<?xml version="1.0" encoding="UTF-8" standalone="no"?>
<svg xmlns:ffdec="https://www.free-decompiler.com/flash" xmlns:xlink="http://www.w3.org/1999/xlink" ffdec:objectType="frame" height="133.75px" width="285.25px" xmlns="http://www.w3.org/2000/svg">
  <g transform="matrix(1.0, 0.0, 0.0, 1.0, -4.65, -18.0)">
    <use ffdec:characterId="376" ffdec:characterName="BinZone" height="133.75" id="server_0" transform="matrix(1.0, 0.0, 0.0, 1.0, 4.65, 18.0)" width="285.25" xlink:href="#sprite0"/>
  </g>
  <defs>
    <g id="sprite0" transform="matrix(1.0, 0.0, 0.0, 1.0, 144.35, 62.95)">
      <filter id="filter0">
        <feOffset dx="-3.8035416365892933" dy="8.156780677370921" in="SourceGraphic" result="filterResult0"/>
        <feColorMatrix in="filterResult0" result="filterResult1" type="matrix" values="0 0 0 0 0.0,0 0 0 0 0.0,0 0 0 0 0.0,0 0 0 1 0"/>
        <feConvolveMatrix divisor="36.0" in="filterResult1" kernelMatrix="1 1 1 1 1 1 1 1 1 1 1 1 1 1 1 1 1 1 1 1 1 1 1 1 1 1 1 1 1 1 1 1 1 1 1 1" order="6 6" result="filterResult2"/>
        <feColorMatrix in="filterResult2" result="filterResult3" type="matrix" values="1 0 0 0 0,0 1 0 0 0,0 0 1 0 0,0 0 0 0.296875 0"/>
        <feComposite in="SourceGraphic" in2="filterResult3" operator="over" result="filterResult4"/>
        <feColorMatrix in="filterResult4" result="filterResult5" type="matrix" values="1.0 0.0 0.0 0.0 0.0 0.0 1.0 0.0 0.0 0.0 0.0 0.0 1.0 0.0 0.0 0.0 0.0 0.0 1.0 0.0"/>
      </filter>
      <use ffdec:characterId="357" filter="url(#filter0)" height="133.75" transform="matrix(1.0, 0.0, 0.0, 1.0, -144.35, -62.95)" width="285.25" xlink:href="#sprite1"/>
      <filter id="filter1">
        <feOffset dx="-0.4539872824501041" dy="0.8910081634719007" in="SourceGraphic" result="filterResult6"/>
        <feColorMatrix in="filterResult6" result="filterResult7" type="matrix" values="0 0 0 0 1.0,0 0 0 0 1.0,0 0 0 0 1.0,0 0 0 1 0"/>
        <feColorMatrix in="filterResult7" result="filterResult8" type="matrix" values="1 0 0 0 0,0 1 0 0 0,0 0 1 0 0,0 0 0 0.296875 0"/>
        <feComposite in="filterResult8" in2="SourceGraphic" operator="out" result="filterResult9"/>
        <feOffset dx="0.4539872824501042" dy="-0.8910081634719007" in="SourceGraphic" result="filterResult10"/>
        <feColorMatrix in="filterResult10" result="filterResult11" type="matrix" values="0 0 0 0 0.0,0 0 0 0 0.0,0 0 0 0 0.0,0 0 0 1 0"/>
        <feColorMatrix in="filterResult11" result="filterResult12" type="matrix" values="1 0 0 0 0,0 1 0 0 0,0 0 1 0 0,0 0 0 0.296875 0"/>
        <feComposite in="filterResult12" in2="SourceGraphic" operator="out" result="filterResult13"/>
        <feComposite in="filterResult9" in2="filterResult13" operator="out" result="filterResult14"/>
        <feComposite in="filterResult13" in2="filterResult9" operator="out" result="filterResult15"/>
        <feComposite in="filterResult14" in2="filterResult15" operator="over" result="filterResult16"/>
        <feConvolveMatrix divisor="9.0" in="filterResult16" kernelMatrix="1 1 1 1 1 1 1 1 1" order="3 3" result="filterResult17"/>
        <feComposite in="filterResult17" in2="SourceGraphic" operator="out" result="filterResult18"/>
        <feComposite in="filterResult18" in2="SourceGraphic" operator="over" result="filterResult19"/>
      </filter>
      <use ffdec:characterId="359" filter="url(#filter1)" height="39.2" transform="matrix(0.8127, 0.0, 0.0, 0.8127, -102.4656, -44.1226)" width="45.25" xlink:href="#sprite2"/>
      <filter id="filter2">
        <feOffset dx="-0.4539872824501041" dy="0.8910081634719007" in="SourceGraphic" result="filterResult20"/>
        <feColorMatrix in="filterResult20" result="filterResult21" type="matrix" values="0 0 0 0 1.0,0 0 0 0 1.0,0 0 0 0 1.0,0 0 0 1 0"/>
        <feColorMatrix in="filterResult21" result="filterResult22" type="matrix" values="1 0 0 0 0,0 1 0 0 0,0 0 1 0 0,0 0 0 0.296875 0"/>
        <feComposite in="filterResult22" in2="SourceGraphic" operator="out" result="filterResult23"/>
        <feOffset dx="0.4539872824501042" dy="-0.8910081634719007" in="SourceGraphic" result="filterResult24"/>
        <feColorMatrix in="filterResult24" result="filterResult25" type="matrix" values="0 0 0 0 0.0,0 0 0 0 0.0,0 0 0 0 0.0,0 0 0 1 0"/>
        <feColorMatrix in="filterResult25" result="filterResult26" type="matrix" values="1 0 0 0 0,0 1 0 0 0,0 0 1 0 0,0 0 0 0.296875 0"/>
        <feComposite in="filterResult26" in2="SourceGraphic" operator="out" result="filterResult27"/>
        <feComposite in="filterResult23" in2="filterResult27" operator="out" result="filterResult28"/>
        <feComposite in="filterResult27" in2="filterResult23" operator="out" result="filterResult29"/>
        <feComposite in="filterResult28" in2="filterResult29" operator="over" result="filterResult30"/>
        <feConvolveMatrix divisor="9.0" in="filterResult30" kernelMatrix="1 1 1 1 1 1 1 1 1" order="3 3" result="filterResult31"/>
        <feComposite in="filterResult31" in2="SourceGraphic" operator="out" result="filterResult32"/>
        <feComposite in="filterResult32" in2="SourceGraphic" operator="over" result="filterResult33"/>
      </filter>
      <use ffdec:characterId="359" filter="url(#filter2)" height="39.2" transform="matrix(0.8127, 0.0, 0.0, 0.8127, 24.9844, -44.1226)" width="45.25" xlink:href="#sprite2"/>
      <filter id="filter3">
        <feOffset dx="-0.4539872824501041" dy="0.8910081634719007" in="SourceGraphic" result="filterResult34"/>
        <feColorMatrix in="filterResult34" result="filterResult35" type="matrix" values="0 0 0 0 1.0,0 0 0 0 1.0,0 0 0 0 1.0,0 0 0 1 0"/>
        <feColorMatrix in="filterResult35" result="filterResult36" type="matrix" values="1 0 0 0 0,0 1 0 0 0,0 0 1 0 0,0 0 0 0.296875 0"/>
        <feComposite in="filterResult36" in2="SourceGraphic" operator="out" result="filterResult37"/>
        <feOffset dx="0.4539872824501042" dy="-0.8910081634719007" in="SourceGraphic" result="filterResult38"/>
        <feColorMatrix in="filterResult38" result="filterResult39" type="matrix" values="0 0 0 0 0.0,0 0 0 0 0.0,0 0 0 0 0.0,0 0 0 1 0"/>
        <feColorMatrix in="filterResult39" result="filterResult40" type="matrix" values="1 0 0 0 0,0 1 0 0 0,0 0 1 0 0,0 0 0 0.296875 0"/>
        <feComposite in="filterResult40" in2="SourceGraphic" operator="out" result="filterResult41"/>
        <feComposite in="filterResult37" in2="filterResult41" operator="out" result="filterResult42"/>
        <feComposite in="filterResult41" in2="filterResult37" operator="out" result="filterResult43"/>
        <feComposite in="filterResult42" in2="filterResult43" operator="over" result="filterResult44"/>
        <feConvolveMatrix divisor="9.0" in="filterResult44" kernelMatrix="1 1 1 1 1 1 1 1 1" order="3 3" result="filterResult45"/>
        <feComposite in="filterResult45" in2="SourceGraphic" operator="out" result="filterResult46"/>
        <feComposite in="filterResult46" in2="SourceGraphic" operator="over" result="filterResult47"/>
      </filter>
      <use ffdec:characterId="359" filter="url(#filter3)" height="39.2" transform="matrix(0.8127, 0.0, 0.0, 0.8127, -17.5156, -44.1226)" width="45.25" xlink:href="#sprite2"/>
      <filter id="filter4">
        <feOffset dx="-0.4539872824501041" dy="0.8910081634719007" in="SourceGraphic" result="filterResult48"/>
        <feColorMatrix in="filterResult48" result="filterResult49" type="matrix" values="0 0 0 0 1.0,0 0 0 0 1.0,0 0 0 0 1.0,0 0 0 1 0"/>
        <feColorMatrix in="filterResult49" result="filterResult50" type="matrix" values="1 0 0 0 0,0 1 0 0 0,0 0 1 0 0,0 0 0 0.296875 0"/>
        <feComposite in="filterResult50" in2="SourceGraphic" operator="out" result="filterResult51"/>
        <feOffset dx="0.4539872824501042" dy="-0.8910081634719007" in="SourceGraphic" result="filterResult52"/>
        <feColorMatrix in="filterResult52" result="filterResult53" type="matrix" values="0 0 0 0 0.0,0 0 0 0 0.0,0 0 0 0 0.0,0 0 0 1 0"/>
        <feColorMatrix in="filterResult53" result="filterResult54" type="matrix" values="1 0 0 0 0,0 1 0 0 0,0 0 1 0 0,0 0 0 0.296875 0"/>
        <feComposite in="filterResult54" in2="SourceGraphic" operator="out" result="filterResult55"/>
        <feComposite in="filterResult51" in2="filterResult55" operator="out" result="filterResult56"/>
        <feComposite in="filterResult55" in2="filterResult51" operator="out" result="filterResult57"/>
        <feComposite in="filterResult56" in2="filterResult57" operator="over" result="filterResult58"/>
        <feConvolveMatrix divisor="9.0" in="filterResult58" kernelMatrix="1 1 1 1 1 1 1 1 1" order="3 3" result="filterResult59"/>
        <feComposite in="filterResult59" in2="SourceGraphic" operator="out" result="filterResult60"/>
        <feComposite in="filterResult60" in2="SourceGraphic" operator="over" result="filterResult61"/>
      </filter>
      <use ffdec:characterId="359" filter="url(#filter4)" height="39.2" transform="matrix(0.8127, 0.0, 0.0, 0.8127, 67.4344, -44.1226)" width="45.25" xlink:href="#sprite2"/>
      <filter id="filter5">
        <feOffset dx="-0.4539872824501041" dy="0.8910081634719007" in="SourceGraphic" result="filterResult62"/>
        <feColorMatrix in="filterResult62" result="filterResult63" type="matrix" values="0 0 0 0 1.0,0 0 0 0 1.0,0 0 0 0 1.0,0 0 0 1 0"/>
        <feColorMatrix in="filterResult63" result="filterResult64" type="matrix" values="1 0 0 0 0,0 1 0 0 0,0 0 1 0 0,0 0 0 0.296875 0"/>
        <feComposite in="filterResult64" in2="SourceGraphic" operator="out" result="filterResult65"/>
        <feOffset dx="0.4539872824501042" dy="-0.8910081634719007" in="SourceGraphic" result="filterResult66"/>
        <feColorMatrix in="filterResult66" result="filterResult67" type="matrix" values="0 0 0 0 0.0,0 0 0 0 0.0,0 0 0 0 0.0,0 0 0 1 0"/>
        <feColorMatrix in="filterResult67" result="filterResult68" type="matrix" values="1 0 0 0 0,0 1 0 0 0,0 0 1 0 0,0 0 0 0.296875 0"/>
        <feComposite in="filterResult68" in2="SourceGraphic" operator="out" result="filterResult69"/>
        <feComposite in="filterResult65" in2="filterResult69" operator="out" result="filterResult70"/>
        <feComposite in="filterResult69" in2="filterResult65" operator="out" result="filterResult71"/>
        <feComposite in="filterResult70" in2="filterResult71" operator="over" result="filterResult72"/>
        <feConvolveMatrix divisor="9.0" in="filterResult72" kernelMatrix="1 1 1 1 1 1 1 1 1" order="3 3" result="filterResult73"/>
        <feComposite in="filterResult73" in2="SourceGraphic" operator="out" result="filterResult74"/>
        <feComposite in="filterResult74" in2="SourceGraphic" operator="over" result="filterResult75"/>
      </filter>
      <use ffdec:characterId="360" filter="url(#filter5)" height="31.85" transform="matrix(1.0, 0.0, 0.0, 1.0, -60.0, -44.1)" width="36.75" xlink:href="#sprite3"/>
      <use ffdec:characterId="366" height="32.95" id="load1_mc" transform="matrix(0.8127, 0.0, 0.0, 0.8127, -98.7305, -41.9065)" width="38.45" xlink:href="#sprite4"/>
      <use ffdec:characterId="366" height="32.95" id="load4_mc" transform="matrix(0.8127, 0.0, 0.0, 0.8127, 28.7195, -41.9065)" width="38.45" xlink:href="#sprite4"/>
      <use ffdec:characterId="366" height="32.95" id="load2_mc" transform="matrix(0.8127, 0.0, 0.0, 0.8127, -56.2805, -41.9065)" width="38.45" xlink:href="#sprite4"/>
      <use ffdec:characterId="366" height="32.95" id="load3_mc" transform="matrix(0.8127, 0.0, 0.0, 0.8127, -13.7805, -41.9065)" width="38.45" xlink:href="#sprite4"/>
      <use ffdec:characterId="366" height="32.95" id="load5_mc" transform="matrix(0.8127, 0.0, 0.0, 0.8127, 71.1695, -41.9065)" width="38.45" xlink:href="#sprite4"/>
      <use ffdec:characterId="368" height="19.25" transform="matrix(1.0, 0.0, 0.0, 1.0, -17.15, 20.0)" width="97.85" xlink:href="#sprite7"/>
      <filter id="filter11">
        <feColorMatrix in="SourceGraphic" result="filterResult82" type="matrix" values="0 0 0 0 0.8,0 0 0 0 0.4,0 0 0 0 0.0,0 0 0 1 0"/>
        <feConvolveMatrix divisor="16.0" in="filterResult82" kernelMatrix="1 1 1 1 1 1 1 1 1 1 1 1 1 1 1 1" order="4 4" result="filterResult83"/>
        <feComposite in="SourceGraphic" in2="filterResult83" operator="over" result="filterResult84"/>
        <feOffset dx="-0.9079745649002082" dy="1.7820163269438014" in="filterResult84" result="filterResult85"/>
        <feColorMatrix in="filterResult85" result="filterResult86" type="matrix" values="0 0 0 0 1.0,0 0 0 0 1.0,0 0 0 0 1.0,0 0 0 1 0"/>
        <feColorMatrix in="filterResult86" result="filterResult87" type="matrix" values="1 0 0 0 0,0 1 0 0 0,0 0 1 0 0,0 0 0 0.25 0"/>
        <feComposite in="filterResult87" in2="filterResult84" operator="out" result="filterResult88"/>
        <feOffset dx="0.9079745649002084" dy="-1.7820163269438014" in="filterResult84" result="filterResult89"/>
        <feColorMatrix in="filterResult89" result="filterResult90" type="matrix" values="0 0 0 0 0.0,0 0 0 0 0.0,0 0 0 0 0.0,0 0 0 1 0"/>
        <feColorMatrix in="filterResult90" result="filterResult91" type="matrix" values="1 0 0 0 0,0 1 0 0 0,0 0 1 0 0,0 0 0 0.25 0"/>
        <feComposite in="filterResult91" in2="filterResult84" operator="out" result="filterResult92"/>
        <feComposite in="filterResult88" in2="filterResult92" operator="out" result="filterResult93"/>
        <feComposite in="filterResult92" in2="filterResult88" operator="out" result="filterResult94"/>
        <feComposite in="filterResult93" in2="filterResult94" operator="over" result="filterResult95"/>
        <feConvolveMatrix divisor="16.0" in="filterResult95" kernelMatrix="1 1 1 1 1 1 1 1 1 1 1 1 1 1 1 1" order="4 4" result="filterResult96"/>
        <feComposite in="filterResult96" in2="filterResult84" operator="out" result="filterResult97"/>
        <feComposite in="filterResult97" in2="filterResult84" operator="over" result="filterResult98"/>
      </filter>
      <use ffdec:characterId="369" filter="url(#filter11)" height="39.0" id="label_txt" transform="matrix(0.9541, 0.0, 0.0, 0.9541, -126.9237, 6.9418)" width="112.15" xlink:href="#text0"/>
      <filter id="filter13">
        <feColorMatrix in="SourceGraphic" result="filterResult99" type="matrix" values="0 0 0 0 0.4,0 0 0 0 0.2,0 0 0 0 0.8,0 0 0 1 0"/>
        <feConvolveMatrix divisor="16.0" in="filterResult99" kernelMatrix="1 1 1 1 1 1 1 1 1 1 1 1 1 1 1 1" order="4 4" result="filterResult100"/>
        <feComposite in="SourceGraphic" in2="filterResult100" operator="over" result="filterResult101"/>
      </filter>
      <use ffdec:characterId="370" filter="url(#filter13)" height="32.0" id="buddyCount_txt" transform="matrix(0.9541, 0.0, 0.0, 0.9541, 83.4918, 10.6918)" width="40.85" xlink:href="#text1"/>
    </g>
    <g id="sprite1" transform="matrix(1.0, 0.0, 0.0, 1.0, 0.35, 0.0)">
      <use ffdec:characterId="356" height="133.75" transform="matrix(1.0, 0.0, 0.0, 1.0, -0.35, 0.0)" width="285.25" xlink:href="#shape0"/>
    </g>
    <g id="shape0" transform="matrix(1.0, 0.0, 0.0, 1.0, 0.35, 0.0)">
      <path d="M143.1 123.1 L143.1 133.75 Q88.2 133.9 60.65 132.4 33.05 130.85 27.3 128.15 21.5 125.4 19.25 123.6 L15.5 120.45 Q14.0 119.1 10.95 115.2 7.9 111.3 4.35 102.35 6.45 107.2 9.8 111.45 L11.55 113.4 Q17.95 119.9 29.15 120.45 85.9 123.1 143.1 123.1" fill="url(#gradient0)" fill-rule="evenodd" stroke="none"/>
      <path d="M143.1 123.1 L175.85 122.9 Q216.55 122.35 257.05 120.45 263.55 120.15 268.45 117.8 271.95 116.15 274.65 113.4 L276.4 111.45 Q279.75 107.2 281.85 102.35 278.3 111.3 275.25 115.2 L270.7 120.45 266.95 123.6 266.85 123.7 Q264.55 125.5 258.9 128.15 253.15 130.85 225.55 132.4 198.0 133.9 143.1 133.75 L143.1 123.1" fill="url(#gradient1)" fill-rule="evenodd" stroke="none"/>
      <path d="M269.0 8.1 L272.1 10.4 Q279.75 16.85 281.2 29.8 286.1 59.15 283.8 92.25 282.8 105.35 276.35 112.45 269.75 119.55 256.0 120.45 L178.0 122.85 Q103.15 123.95 29.15 120.45 16.4 119.8 9.8 111.45 3.2 103.05 1.35 92.25 -0.65 74.9 0.3 58.05 1.1 43.75 4.0 29.8 5.7 17.35 13.55 10.8 21.25 4.2 33.15 3.0 124.8 -2.1 217.5 1.4 L252.0 3.0 Q262.05 3.7 269.0 8.1" fill="#0099ff" fill-rule="evenodd" stroke="none"/>
      <path d="M23.3 108.85 L20.55 106.05 Q14.95 98.9 13.4 89.7 12.45 81.35 12.3 73.15 12.15 66.85 12.5 60.6 13.2 48.35 15.65 36.5 17.1 25.9 23.75 20.35 30.3 14.7 40.45 13.7 L92.25 12.0 147.4 11.15 191.6 11.7 Q203.85 11.85 216.15 12.3 L245.55 13.7 Q254.1 14.3 260.05 18.0 L262.65 20.0 Q269.15 25.45 270.45 36.5 273.35 54.05 273.25 73.15 273.2 81.3 272.6 89.7 271.75 100.8 266.3 106.9 L264.5 108.6 Q259.15 111.9 250.6 112.45 L183.15 114.55 170.4 114.6 167.6 114.65 157.6 114.7 138.0 114.8 67.8 113.6 35.5 112.45 Q28.25 112.1 23.3 108.85" fill="url(#gradient2)" fill-rule="evenodd" stroke="none"/>
      <path d="M264.5 108.6 L266.3 106.9 Q271.75 100.8 272.6 89.7 273.2 81.3 273.25 73.15 273.35 54.05 270.45 36.5 269.15 25.45 262.65 20.0 L260.05 18.0 Q254.1 14.3 245.55 13.7 L216.15 12.3 Q203.85 11.85 191.6 11.7 L147.4 11.15 92.25 12.0 40.45 13.7 Q30.3 14.7 23.75 20.35 17.1 25.9 15.65 36.5 13.2 48.35 12.5 60.6 12.15 66.85 12.3 73.15 12.45 81.35 13.4 89.7 14.95 98.9 20.55 106.05 L23.3 108.85 Q20.7 107.15 18.75 104.7 13.05 97.45 11.45 88.1 10.6 80.55 10.4 73.15 10.15 65.8 10.55 58.55 11.25 46.15 13.75 34.1 15.25 23.35 22.0 17.7 28.65 12.0 38.95 10.95 L91.5 9.25 147.5 8.35 192.35 8.95 Q204.8 9.1 217.3 9.55 L247.15 10.95 Q255.8 11.55 261.85 15.35 L264.5 17.35 Q271.1 22.9 272.4 34.1 275.5 52.75 275.25 73.15 L274.6 88.1 Q273.75 99.4 268.2 105.55 L264.5 108.6" fill="#0082d9" fill-rule="evenodd" stroke="none"/>
      <path d="M283.9 73.15 Q283.95 51.1 280.55 30.8 279.1 17.85 271.5 11.4 L268.4 9.1 Q261.5 4.7 251.5 4.0 L217.15 2.4 Q124.9 -1.1 33.65 4.0 21.8 5.2 14.15 11.8 6.3 18.35 4.65 30.8 1.75 44.75 0.95 59.05 0.55 66.05 0.7 73.15" fill="none" stroke="url(#gradient3)" stroke-linecap="round" stroke-linejoin="round" stroke-width="2.0"/>
    </g>
    <linearGradient gradientTransform="matrix(0.0061, -0.0048, 0.0138, 0.0175, 14.15, 106.15)" gradientUnits="userSpaceOnUse" id="gradient0" spreadMethod="pad" x1="-819.2" x2="819.2">
      <stop offset="0.0" stop-color="#0074c4"/>
      <stop offset="0.29411764705882354" stop-color="#0067ad"/>
    </linearGradient>
    <linearGradient gradientTransform="matrix(-0.0052, -0.0046, 0.0119, -0.0135, 262.1, 120.8)" gradientUnits="userSpaceOnUse" id="gradient1" spreadMethod="pad" x1="-819.2" x2="819.2">
      <stop offset="0.0" stop-color="#0074c4"/>
      <stop offset="0.29411764705882354" stop-color="#0067ad"/>
    </linearGradient>
    <radialGradient cx="0" cy="0" gradientTransform="matrix(0.3671, 0.0, 0.0, 0.0919, 142.5, 97.3)" gradientUnits="userSpaceOnUse" id="gradient2" r="819.2" spreadMethod="pad">
      <stop offset="0.0" stop-color="#48b6ff"/>
      <stop offset="0.7333333333333333" stop-color="#0099ff"/>
    </radialGradient>
    <linearGradient gradientTransform="matrix(0.0, -0.0471, 0.0707, 0.0, 163.1, 37.05)" gradientUnits="userSpaceOnUse" id="gradient3" spreadMethod="pad" x1="-819.2" x2="819.2">
      <stop offset="0.0" stop-color="#0099ff" stop-opacity="0.0"/>
      <stop offset="1.0" stop-color="#ffffff" stop-opacity="0.5019608"/>
    </linearGradient>
    <g id="sprite2" transform="matrix(1.0, 0.0, 0.0, 1.0, -0.35, -47.1)">
      <use ffdec:characterId="358" height="39.2" transform="matrix(1.0, 0.0, 0.0, 1.0, 0.35, 47.1)" width="45.25" xlink:href="#shape1"/>
    </g>
    <g id="shape1" transform="matrix(1.0, 0.0, 0.0, 1.0, -0.35, -47.1)">
      <path d="M28.9 67.05 Q32.5 67.8 34.7 69.1 36.85 70.4 38.9 73.4 L42.45 78.95 44.05 81.8 Q44.2 82.55 43.85 83.1 43.35 83.7 42.75 83.75 L41.15 83.6 Q40.15 83.4 38.35 81.3 36.6 79.15 35.0 76.1 33.35 73.05 31.65 71.85 29.95 70.65 29.1 70.45 L29.0 78.4 Q28.7 83.1 23.7 83.65 L8.45 84.8 Q4.3 84.7 2.9 79.2 L2.9 79.0 Q1.85 71.95 1.85 65.3 1.95 60.35 6.8 59.4 L13.1 58.95 Q12.0 56.4 9.05 54.85 8.5 55.45 7.6 55.45 6.75 55.45 6.15 54.85 5.6 54.3 5.6 53.4 5.6 52.55 6.15 51.95 6.75 51.4 7.6 51.4 8.5 51.4 9.05 51.95 9.65 52.55 9.65 53.4 L9.5 54.25 Q12.4 55.65 13.9 57.95 14.2 55.95 15.0 54.25 L14.6 53.9 Q13.75 53.0 13.75 51.7 13.75 50.4 14.6 49.5 15.5 48.6 16.8 48.6 18.1 48.6 19.0 49.5 19.9 50.4 19.9 51.7 19.9 53.0 19.0 53.9 18.1 54.8 16.8 54.8 L15.95 54.7 Q15.15 56.5 15.25 58.9 19.5 58.8 23.9 59.05 27.7 59.35 28.55 63.4 L28.9 67.05 Z" fill="none" stroke="#004b91" stroke-linecap="round" stroke-linejoin="round" stroke-width="3.0"/>
      <path d="M12.75 58.25 Q14.4 59.4 15.4 60.95 L15.65 59.7 16.75 61.9 Q21.0 61.8 25.4 62.05 27.35 62.2 28.5 63.35 L28.55 63.4 28.9 67.05 30.4 70.05 Q34.0 70.8 36.2 72.1 38.35 73.4 40.4 76.4 L43.95 81.95 44.1 82.2 43.85 83.1 Q43.35 83.7 42.75 83.75 L41.15 83.6 Q40.15 83.4 38.35 81.3 36.6 79.15 35.0 76.1 33.35 73.05 31.65 71.85 29.95 70.65 29.1 70.45 L29.0 78.4 Q28.7 83.1 23.7 83.65 L8.45 84.8 Q6.1 84.75 4.6 82.95 L4.4 82.2 4.4 82.0 Q3.35 74.95 3.35 68.3 3.45 63.35 8.3 62.4 L14.6 61.95 13.1 58.95 12.75 58.25 M15.5 56.05 L15.25 54.7 Q15.25 53.4 16.1 52.5 17.0 51.6 18.3 51.6 19.2 51.6 19.9 52.05 19.8 53.1 19.0 53.9 18.1 54.8 16.8 54.8 L15.95 54.7 15.5 56.05 M7.35 55.45 L7.65 54.95 Q8.25 54.4 9.1 54.4 10.0 54.4 10.55 54.95 11.1 55.5 11.15 56.3 L9.05 54.85 Q8.5 55.45 7.6 55.45 L7.35 55.45" fill="#0077c9" fill-rule="evenodd" stroke="none"/>
      <path d="M28.5 63.35 Q27.35 62.2 25.4 62.05 21.0 61.8 16.75 61.9 L15.65 59.7 15.4 60.95 Q14.4 59.4 12.75 58.25 12.15 57.15 11.15 56.3 11.1 55.5 10.55 54.95 10.0 54.4 9.1 54.4 8.25 54.4 7.65 54.95 L7.35 55.45 Q6.65 55.35 6.15 54.85 5.6 54.3 5.6 53.4 5.6 52.55 6.15 51.95 6.75 51.4 7.6 51.4 8.5 51.4 9.05 51.95 9.65 52.55 9.65 53.4 L9.5 54.25 Q12.4 55.65 13.9 57.95 14.2 55.95 15.0 54.25 L14.6 53.9 Q13.75 53.0 13.75 51.7 13.75 50.4 14.6 49.5 15.5 48.6 16.8 48.6 18.1 48.6 19.0 49.5 19.9 50.4 19.9 51.7 L19.9 52.05 Q19.2 51.6 18.3 51.6 17.0 51.6 16.1 52.5 15.25 53.4 15.25 54.7 L15.5 56.05 Q15.2 57.35 15.25 58.9 L15.9 58.9 17.05 58.85 23.9 59.05 Q27.65 59.35 28.5 63.35 M13.1 58.95 L14.6 61.95 8.3 62.4 Q3.45 63.35 3.35 68.3 3.35 74.95 4.4 82.0 L4.4 82.2 4.6 82.95 Q3.5 81.55 2.9 79.2 L2.9 79.0 Q1.85 71.95 1.85 65.3 1.95 60.35 6.8 59.4 L12.3 59.0 13.1 58.95 M44.1 82.2 L43.95 81.95 40.4 76.4 Q38.35 73.4 36.2 72.1 34.0 70.8 30.4 70.05 L28.9 67.05 30.15 67.35 Q32.9 68.05 34.7 69.1 36.85 70.4 38.9 73.4 L42.45 78.95 44.05 81.8 44.1 82.2" fill="#0062a6" fill-rule="evenodd" stroke="none"/>
    </g>
    <g id="sprite3" transform="matrix(1.0, 0.0, 0.0, 1.0, 1.2, 1.2)">
      <use ffdec:characterId="359" height="39.2" transform="matrix(0.8127, 0.0, 0.0, 0.8127, -1.2156, -1.2226)" width="45.25" xlink:href="#sprite2"/>
    </g>
    <g id="sprite4" transform="matrix(1.0, 0.0, 0.0, 1.0, -3.9, -49.95)">
      <filter id="filter6">
        <feColorMatrix in="SourceGraphic" result="filterResult76" type="matrix" values="0 0 0 0 0.0,0 0 0 0 1.0,0 0 0 0 0.0,0 0 0 1 0"/>
        <feConvolveMatrix divisor="441.0" in="filterResult76" kernelMatrix="1 1 1 1 1 1 1 1 1 1 1 1 1 1 1 1 1 1 1 1 1 1 1 1 1 1 1 1 1 1 1 1 1 1 1 1 1 1 1 1 1 1 1 1 1 1 1 1 1 1 1 1 1 1 1 1 1 1 1 1 1 1 1 1 1 1 1 1 1 1 1 1 1 1 1 1 1 1 1 1 1 1 1 1 1 1 1 1 1 1 1 1 1 1 1 1 1 1 1 1 1 1 1 1 1 1 1 1 1 1 1 1 1 1 1 1 1 1 1 1 1 1 1 1 1 1 1 1 1 1 1 1 1 1 1 1 1 1 1 1 1 1 1 1 1 1 1 1 1 1 1 1 1 1 1 1 1 1 1 1 1 1 1 1 1 1 1 1 1 1 1 1 1 1 1 1 1 1 1 1 1 1 1 1 1 1 1 1 1 1 1 1 1 1 1 1 1 1 1 1 1 1 1 1 1 1 1 1 1 1 1 1 1 1 1 1 1 1 1 1 1 1 1 1 1 1 1 1 1 1 1 1 1 1 1 1 1 1 1 1 1 1 1 1 1 1 1 1 1 1 1 1 1 1 1 1 1 1 1 1 1 1 1 1 1 1 1 1 1 1 1 1 1 1 1 1 1 1 1 1 1 1 1 1 1 1 1 1 1 1 1 1 1 1 1 1 1 1 1 1 1 1 1 1 1 1 1 1 1 1 1 1 1 1 1 1 1 1 1 1 1 1 1 1 1 1 1 1 1 1 1 1 1 1 1 1 1 1 1 1 1 1 1 1 1 1 1 1 1 1 1 1 1 1 1 1 1 1 1 1 1 1 1 1 1 1 1 1 1 1 1 1 1 1 1 1 1 1 1 1 1 1 1 1 1 1 1 1 1 1 1 1 1 1 1 1 1 1 1 1 1 1 1 1 1 1 1 1 1 1 1 1 1 1 1 1 1 1 1 1 1 1 1 1 1 1 1 1 1 1 1 1 1 1 1 1 1 1 1 1 1" order="21 21" result="filterResult77"/>
        <feComposite in="SourceGraphic" in2="filterResult77" operator="over" result="filterResult78"/>
        <feColorMatrix in="filterResult78" result="filterResult79" type="matrix" values="0 0 0 0 0.0,0 0 0 0 1.0,0 0 0 0 0.0,0 0 0 1 0"/>
        <feConvolveMatrix divisor="4.0" in="filterResult79" kernelMatrix="1 1 1 1" order="2 2" result="filterResult80"/>
        <feComposite in="filterResult78" in2="filterResult80" operator="over" result="filterResult81"/>
      </filter>
      <use ffdec:characterId="362" filter="url(#filter6)" height="32.95" transform="matrix(1.0, 0.0, 0.0, 1.0, 3.9, 49.95)" width="38.45" xlink:href="#sprite5"/>
      <use ffdec:characterId="364" height="11.1" transform="matrix(0.8525, 0.0, 0.0, 0.8525, 21.3, 57.1)" width="11.05" xlink:href="#sprite6"/>
      <use ffdec:characterId="364" height="11.1" transform="matrix(0.9462, 0.0, 0.0, 0.9462, 13.15, 57.65)" width="11.05" xlink:href="#sprite6"/>
      <use ffdec:characterId="365" height="10.05" transform="matrix(1.0, 0.0, 0.0, 1.0, 10.2, 69.75)" width="11.8" xlink:href="#shape4"/>
    </g>
    <g id="sprite5" transform="matrix(1.0, 0.0, 0.0, 1.0, 0.0, 0.0)">
      <use ffdec:characterId="361" height="32.95" transform="matrix(1.0, 0.0, 0.0, 1.0, 0.0, 0.0)" width="38.45" xlink:href="#shape2"/>
    </g>
    <g id="shape2" transform="matrix(1.0, 0.0, 0.0, 1.0, 0.0, 0.0)">
      <path d="M12.2 3.3 Q10.55 6.45 11.3 10.9 L11.4 10.9 Q15.0 10.8 18.75 11.0 22.0 11.25 22.75 14.7 L23.05 17.85 Q28.1 19.45 29.95 20.6 31.8 21.7 33.55 24.25 L36.2 28.3 37.8 30.75 Q38.55 31.75 38.45 32.2 L37.95 32.65 Q37.55 32.7 36.55 31.7 35.5 30.65 34.2 28.35 32.85 26.05 30.95 23.65 29.05 21.25 27.5 20.3 26.25 19.55 23.1 18.8 23.3 24.35 23.1 27.5 22.85 31.5 18.6 32.0 L5.6 32.95 Q2.05 32.85 0.85 28.2 L0.85 28.0 Q0.0 22.0 0.0 16.35 0.05 12.1 4.2 11.3 L10.6 10.95 Q9.3 7.05 4.5 4.15 L4.45 4.2 3.75 4.45 3.1 4.2 Q2.85 3.9 2.85 3.5 L2.9 3.25 3.1 2.85 Q3.4 2.6 3.75 2.6 L4.45 2.85 4.7 3.5 4.65 3.9 Q9.6 6.55 10.65 10.25 10.05 6.25 12.15 3.3 L11.7 2.95 Q11.2 2.45 11.2 1.7 11.2 0.95 11.7 0.45 12.2 0.0 12.9 0.0 13.65 0.0 14.15 0.45 14.65 0.95 14.65 1.7 14.65 2.45 14.15 2.95 13.65 3.45 12.9 3.45 L12.35 3.35 12.2 3.3 12.45 2.9 12.15 3.3 12.2 3.3" fill="#00ff00" fill-rule="evenodd" stroke="none"/>
    </g>
    <g id="sprite6" transform="matrix(1.0, 0.0, 0.0, 1.0, 0.0, 0.0)">
      <use ffdec:characterId="363" height="11.1" transform="matrix(1.0, 0.0, 0.0, 1.0, 0.0, 0.0)" width="11.05" xlink:href="#shape3"/>
    </g>
    <g id="shape3" transform="matrix(1.0, 0.0, 0.0, 1.0, 0.0, 0.0)">
      <path d="M10.1 5.55 Q10.1 7.45 8.75 8.8 7.4 10.15 5.5 10.15 3.65 10.15 2.25 8.8 0.95 7.45 0.95 5.55 0.95 3.7 2.25 2.3 3.65 0.95 5.5 0.95 7.4 0.95 8.75 2.3 10.1 3.7 10.1 5.55" fill="#ffffff" fill-rule="evenodd" stroke="none"/>
      <path d="M9.4 1.65 Q11.05 3.3 11.05 5.55 11.05 7.85 9.4 9.45 7.8 11.1 5.5 11.1 3.25 11.1 1.6 9.45 0.0 7.85 0.0 5.55 0.0 3.3 1.6 1.65 3.25 0.0 5.5 0.0 7.8 0.0 9.4 1.65 M10.1 5.55 Q10.1 3.7 8.75 2.3 7.4 0.95 5.5 0.95 3.65 0.95 2.25 2.3 0.95 3.7 0.95 5.55 0.95 7.45 2.25 8.8 3.65 10.15 5.5 10.15 7.4 10.15 8.75 8.8 10.1 7.45 10.1 5.55" fill="#007200" fill-rule="evenodd" stroke="none"/>
      <path d="M7.25 5.55 Q7.25 6.4 6.65 7.0 6.1 7.55 5.35 7.6 L5.2 7.6 Q4.4 7.6 3.8 7.0 3.2 6.4 3.2 5.55 3.2 4.75 3.8 4.15 4.4 3.55 5.2 3.55 L5.35 3.55 Q6.1 3.6 6.65 4.15 7.25 4.75 7.25 5.55" fill="#007200" fill-rule="evenodd" stroke="none"/>
    </g>
    <g id="shape4" transform="matrix(1.0, 0.0, 0.0, 1.0, -10.2, -69.75)">
      <path d="M22.0 69.75 Q21.85 70.65 20.8 71.4 20.5 74.3 18.1 74.3 17.75 75.35 18.2 77.45 19.7 77.05 20.45 78.2 L21.25 78.15 21.8 78.55 Q22.0 78.9 21.55 79.45 21.5 78.45 20.5 78.85 L18.7 79.5 17.85 79.7 16.85 79.8 16.75 79.8 Q15.7 79.8 14.45 79.15 13.1 78.5 11.75 76.8 10.4 75.1 10.2 70.0 15.1 72.7 22.0 69.75 M11.3 73.25 Q13.05 74.95 14.4 73.7 16.35 75.1 17.45 73.4 L19.0 73.55 Q19.95 73.2 20.05 71.6 15.6 73.0 11.15 71.45 L11.3 73.25 M16.05 77.8 Q14.75 77.7 14.05 78.2 15.1 79.25 17.25 79.25 18.85 79.25 20.3 78.45 19.6 77.65 18.5 77.85 17.85 78.05 17.6 78.4 17.0 77.9 16.05 77.8" fill="#007200" fill-rule="evenodd" stroke="none"/>
      <path d="M16.05 77.8 Q17.0 77.9 17.6 78.4 17.85 78.05 18.5 77.85 19.6 77.65 20.3 78.45 18.85 79.25 17.25 79.25 15.1 79.25 14.05 78.2 14.75 77.7 16.05 77.8 M11.3 73.25 L11.15 71.45 Q15.6 73.0 20.05 71.6 19.95 73.2 19.0 73.55 L17.45 73.4 Q16.35 75.1 14.4 73.7 13.05 74.95 11.3 73.25" fill="#ffffff" fill-rule="evenodd" stroke="none"/>
    </g>
    <g id="sprite7" transform="matrix(1.0, 0.0, 0.0, 1.0, -2.55, -2.6)">
      <use ffdec:characterId="367" height="19.25" transform="matrix(1.0, 0.0, 0.0, 1.0, 2.55, 2.6)" width="97.85" xlink:href="#shape5"/>
    </g>
    <g id="shape5" transform="matrix(1.0, 0.0, 0.0, 1.0, -2.55, -2.6)">
      <path d="M8.5 14.1 Q8.5 13.15 7.8 12.7 7.05 12.25 5.45 12.35 L5.5 14.05 5.5 15.3 5.55 15.8 5.95 15.85 6.3 15.85 Q7.35 15.85 7.9 15.45 8.5 15.0 8.5 14.1 M8.25 8.6 Q8.25 7.8 7.8 7.4 7.3 6.95 6.25 6.95 L5.85 6.95 5.45 7.0 5.45 9.05 5.45 10.05 5.45 10.35 7.55 10.05 Q8.25 9.65 8.25 8.6 M11.1 8.3 Q11.1 9.4 10.55 10.15 L9.05 11.15 Q10.25 11.5 10.9 12.3 11.5 13.05 11.5 14.25 11.5 16.15 10.1 17.05 8.65 17.9 6.0 17.9 L4.45 17.85 2.7 17.65 2.7 16.6 2.7 13.85 2.65 9.85 2.55 5.1 4.45 4.85 6.1 4.75 Q8.7 4.75 9.9 5.65 11.15 6.55 11.1 8.3 M12.25 8.55 L12.85 8.65 15.0 8.75 14.85 10.3 14.85 11.7 14.95 13.9 15.3 15.05 16.0 15.35 Q16.4 15.35 16.75 14.9 L17.1 13.45 17.1 11.6 17.1 9.9 17.05 8.75 17.05 8.3 17.7 8.3 19.95 8.3 19.95 9.55 19.95 12.9 20.0 17.9 19.4 17.85 17.55 17.85 17.6 17.45 17.6 16.35 16.55 17.4 15.15 17.7 Q14.0 17.75 13.35 17.2 12.65 16.65 12.3 15.45 12.0 14.3 12.0 12.35 L12.05 10.5 12.25 8.55 M26.5 11.0 Q26.15 10.25 25.45 10.25 24.8 10.25 24.45 11.0 24.1 11.75 24.1 13.1 24.1 14.6 24.5 15.3 24.85 16.0 25.45 16.0 26.1 16.0 26.45 15.35 26.85 14.7 26.85 13.15 26.85 11.75 26.5 11.0 M26.7 5.2 L26.95 5.2 27.85 5.2 29.7 5.2 29.65 6.2 29.65 8.95 29.65 13.05 29.65 18.0 29.25 18.0 28.3 18.0 27.15 18.0 27.2 17.55 27.25 16.45 Q26.8 17.15 26.15 17.5 L24.7 17.85 Q23.0 17.85 22.05 16.65 21.05 15.45 21.05 13.05 21.05 11.65 21.45 10.55 21.85 9.5 22.65 8.9 23.4 8.3 24.55 8.3 25.3 8.3 25.85 8.65 L26.8 9.5 26.75 7.65 26.7 5.2 M35.05 10.25 Q34.4 10.25 34.05 11.0 33.7 11.75 33.7 13.1 33.7 14.6 34.1 15.3 34.45 16.0 35.05 16.0 L36.05 15.35 Q36.45 14.7 36.45 13.15 36.45 11.75 36.1 11.0 35.75 10.25 35.05 10.25 M37.45 5.2 L39.3 5.2 39.25 6.2 39.25 8.95 39.25 13.05 39.25 18.0 38.85 18.0 37.9 18.0 36.75 18.0 36.8 17.55 36.85 16.45 35.75 17.5 34.3 17.85 Q32.6 17.85 31.65 16.65 30.65 15.45 30.65 13.05 30.65 11.65 31.05 10.55 31.45 9.5 32.25 8.9 33.0 8.3 34.15 8.3 34.9 8.3 35.45 8.65 36.05 8.95 36.4 9.5 L36.35 7.65 36.3 5.2 36.55 5.2 37.45 5.2 M42.25 8.8 L43.05 8.75 43.7 12.1 44.2 14.25 44.4 15.0 45.35 9.9 45.65 8.2 47.9 8.35 48.7 8.35 46.9 14.95 45.8 19.1 45.25 21.25 45.1 21.85 43.35 21.6 42.45 21.45 42.2 21.4 42.8 19.15 42.95 18.4 40.75 11.35 39.95 8.9 42.25 8.8 M60.95 10.2 Q61.45 11.1 61.45 12.3 L60.1 12.3 58.9 12.3 58.45 12.35 58.1 10.85 Q57.8 10.35 57.3 10.35 56.65 10.35 56.35 11.05 56.0 11.8 56.0 13.15 56.0 14.45 56.35 15.1 56.65 15.75 57.3 15.75 L58.1 15.3 Q58.4 14.85 58.4 13.85 L59.15 13.9 61.5 13.9 Q61.4 15.35 60.8 16.25 60.25 17.15 59.35 17.55 58.5 17.95 57.4 17.95 55.15 17.9 54.1 16.65 53.05 15.4 53.05 13.1 53.05 11.65 53.55 10.55 54.0 9.5 54.95 8.9 55.9 8.3 57.3 8.3 58.6 8.3 59.55 8.8 60.45 9.3 60.95 10.2 M68.95 8.9 Q69.95 9.45 70.45 10.55 70.95 11.6 70.95 13.05 70.95 14.75 70.4 15.8 69.8 16.9 68.85 17.4 67.85 17.9 66.55 17.9 64.4 17.85 63.3 16.6 62.2 15.3 62.2 12.95 62.2 11.5 62.75 10.5 63.25 9.45 64.25 8.85 65.2 8.3 66.55 8.3 68.0 8.3 68.95 8.9 M66.6 10.25 Q65.95 10.25 65.6 10.95 65.25 11.6 65.25 12.95 65.25 14.55 65.55 15.25 65.9 15.95 66.6 15.9 67.2 15.95 67.6 15.25 67.95 14.6 67.95 13.05 67.95 11.7 67.6 11.0 67.3 10.25 66.6 10.25 M71.9 12.35 L71.95 10.5 72.15 8.55 72.75 8.65 74.9 8.75 74.75 10.3 74.75 11.7 74.85 13.9 75.2 15.05 Q75.5 15.35 75.9 15.35 L76.65 14.9 77.0 13.45 77.0 11.6 77.0 9.9 76.95 8.75 76.95 8.3 77.6 8.3 79.85 8.3 79.85 9.55 79.85 12.9 79.9 17.9 79.3 17.85 77.45 17.85 77.5 17.45 77.5 16.35 76.45 17.4 75.05 17.7 Q73.9 17.75 73.25 17.2 72.55 16.65 72.2 15.45 71.9 14.3 71.9 12.35 M98.75 14.5 Q99.5 14.5 99.95 14.95 100.4 15.4 100.4 16.2 100.4 17.05 99.95 17.5 99.45 17.9 98.7 17.9 97.95 17.9 97.55 17.45 97.1 17.0 97.1 16.2 97.1 15.4 97.55 14.95 98.0 14.5 98.75 14.5 M81.1 8.75 L81.45 8.75 82.35 8.8 83.4 8.75 83.4 8.95 83.4 9.5 83.4 10.2 Q83.8 9.35 84.55 8.85 85.3 8.3 86.4 8.3 87.65 8.35 88.35 9.15 89.0 9.95 89.05 11.4 L89.05 12.6 89.1 14.3 89.1 16.05 89.1 17.4 89.1 18.0 88.25 18.0 87.3 18.0 86.5 18.0 86.15 18.0 86.2 17.45 86.2 16.1 86.2 14.25 86.2 12.15 86.0 11.15 Q85.8 10.85 85.3 10.8 84.7 10.85 84.4 11.35 84.05 11.85 84.05 12.65 L84.0 13.95 84.0 15.5 84.0 16.85 84.0 17.4 83.55 17.35 82.45 17.35 81.1 17.4 81.1 16.3 81.15 13.3 81.1 8.75 M97.05 11.15 Q97.05 10.35 97.5 9.9 97.95 9.45 98.7 9.45 99.5 9.45 99.9 9.9 100.3 10.35 100.35 11.15 100.3 12.05 99.85 12.45 99.4 12.9 98.7 12.9 97.9 12.85 97.5 12.4 97.05 11.9 97.05 11.15 M93.0 6.15 L93.75 6.15 93.75 6.8 93.7 8.55 96.05 8.55 96.05 9.95 96.05 10.65 96.05 10.85 94.85 10.85 93.7 10.85 93.7 12.3 93.75 13.8 Q93.75 14.45 94.05 14.75 94.35 15.05 95.0 15.05 L95.45 15.0 96.05 14.9 96.2 16.7 96.25 17.35 95.05 17.6 94.0 17.7 Q92.55 17.7 91.75 16.95 90.9 16.15 90.9 14.35 L90.85 12.55 90.85 10.85 89.65 10.85 89.65 9.0 89.65 8.5 90.3 8.5 90.9 8.5 90.9 6.8 90.9 6.15 93.0 6.15" fill="#096caf" fill-rule="evenodd" stroke="none"/>
      <path d="M7.8 12.2 Q7.05 11.75 5.45 11.85 L5.5 13.55 5.5 14.8 5.55 15.3 5.95 15.35 6.3 15.35 Q7.35 15.35 7.9 14.95 8.5 14.5 8.5 13.6 8.5 12.65 7.8 12.2 M8.25 8.1 Q8.25 7.3 7.8 6.9 7.3 6.45 6.25 6.45 L5.85 6.45 5.45 6.5 5.45 8.55 5.45 9.55 5.45 9.85 7.55 9.55 Q8.25 9.15 8.25 8.1 M11.1 7.8 Q11.1 8.9 10.55 9.65 L9.05 10.65 Q10.25 11.0 10.9 11.8 11.5 12.55 11.5 13.75 11.5 15.65 10.1 16.55 8.65 17.4 6.0 17.4 L4.45 17.35 2.7 17.15 2.7 16.1 2.7 13.35 2.65 9.35 2.55 4.6 4.45 4.35 6.1 4.25 Q8.7 4.25 9.9 5.15 11.15 6.05 11.1 7.8 M12.85 8.15 L15.0 8.25 14.85 9.8 14.85 11.2 14.95 13.4 15.3 14.55 16.0 14.85 Q16.4 14.85 16.75 14.4 L17.1 12.95 17.1 11.1 17.1 9.4 17.05 8.25 17.05 7.8 17.7 7.8 19.95 7.8 19.95 9.05 19.95 12.4 20.0 17.4 19.4 17.35 17.55 17.35 17.6 16.95 17.6 15.85 16.55 16.9 15.15 17.2 Q14.0 17.25 13.35 16.7 12.65 16.15 12.3 14.95 12.0 13.8 12.0 11.85 L12.05 10.0 12.25 8.05 12.85 8.15 M26.5 10.5 Q26.15 9.75 25.45 9.75 24.8 9.75 24.45 10.5 24.1 11.25 24.1 12.6 24.1 14.1 24.5 14.8 24.85 15.5 25.45 15.5 26.1 15.5 26.45 14.85 26.85 14.2 26.85 12.65 26.85 11.25 26.5 10.5 M26.7 4.7 L26.95 4.7 27.85 4.7 29.7 4.7 29.65 5.7 29.65 8.45 29.65 12.55 29.65 17.5 29.25 17.5 28.3 17.5 27.15 17.5 27.2 17.05 27.25 15.95 Q26.8 16.65 26.15 17.0 L24.7 17.35 Q23.0 17.35 22.05 16.15 21.05 14.95 21.05 12.55 21.05 11.15 21.45 10.05 21.85 9.0 22.65 8.4 23.4 7.8 24.55 7.8 25.3 7.8 25.85 8.15 L26.8 9.0 26.75 7.15 26.7 4.7 M35.05 9.75 Q34.4 9.75 34.05 10.5 33.7 11.25 33.7 12.6 33.7 14.1 34.1 14.8 34.45 15.5 35.05 15.5 L36.05 14.85 Q36.45 14.2 36.45 12.65 36.45 11.25 36.1 10.5 35.75 9.75 35.05 9.75 M39.3 4.7 L39.25 5.7 39.25 8.45 39.25 12.55 39.25 17.5 38.85 17.5 37.9 17.5 36.75 17.5 36.8 17.05 36.85 15.95 35.75 17.0 34.3 17.35 Q32.6 17.35 31.65 16.15 30.65 14.95 30.65 12.55 30.65 11.15 31.05 10.05 31.45 9.0 32.25 8.4 33.0 7.8 34.15 7.8 34.9 7.8 35.45 8.15 36.05 8.45 36.4 9.0 L36.35 7.15 36.3 4.7 36.55 4.7 37.45 4.7 39.3 4.7 M43.05 8.25 L43.7 11.6 44.2 13.75 44.4 14.5 45.35 9.4 45.65 7.7 47.9 7.85 48.7 7.85 46.9 14.45 45.8 18.6 45.25 20.75 45.1 21.35 43.35 21.1 42.45 20.95 42.2 20.9 42.8 18.65 42.95 17.9 40.75 10.85 39.95 8.4 42.25 8.3 43.05 8.25 M60.95 9.7 Q61.45 10.6 61.45 11.8 L60.1 11.8 58.9 11.8 58.45 11.85 58.1 10.35 Q57.8 9.85 57.3 9.85 56.65 9.85 56.35 10.55 56.0 11.3 56.0 12.65 56.0 13.95 56.35 14.6 56.65 15.25 57.3 15.25 L58.1 14.8 Q58.4 14.35 58.4 13.35 L59.15 13.4 61.5 13.4 Q61.4 14.85 60.8 15.75 60.25 16.65 59.35 17.05 58.5 17.45 57.4 17.45 55.15 17.4 54.1 16.15 53.05 14.9 53.05 12.6 53.05 11.15 53.55 10.05 54.0 9.0 54.95 8.4 55.9 7.8 57.3 7.8 58.6 7.8 59.55 8.3 60.45 8.8 60.95 9.7 M62.75 10.0 Q63.25 8.95 64.25 8.35 65.2 7.8 66.55 7.8 68.0 7.8 68.95 8.4 69.95 8.95 70.45 10.05 70.95 11.1 70.95 12.55 70.95 14.25 70.4 15.3 69.8 16.4 68.85 16.9 67.85 17.4 66.55 17.4 64.4 17.35 63.3 16.1 62.2 14.8 62.2 12.45 62.2 11.0 62.75 10.0 M67.6 10.5 Q67.3 9.75 66.6 9.75 65.95 9.75 65.6 10.45 65.25 11.1 65.25 12.45 65.25 14.05 65.55 14.75 65.9 15.45 66.6 15.4 67.2 15.45 67.6 14.75 67.95 14.1 67.95 12.55 67.95 11.2 67.6 10.5 M71.9 11.85 L71.95 10.0 72.15 8.05 72.75 8.15 74.9 8.25 74.75 9.8 74.75 11.2 74.85 13.4 75.2 14.55 Q75.5 14.85 75.9 14.85 L76.65 14.4 77.0 12.95 77.0 11.1 77.0 9.4 76.95 8.25 76.95 7.8 77.6 7.8 79.85 7.8 79.85 9.05 79.85 12.4 79.9 17.4 79.3 17.35 77.45 17.35 77.5 16.95 77.5 15.85 76.45 16.9 75.05 17.2 Q73.9 17.25 73.25 16.7 72.55 16.15 72.2 14.95 71.9 13.8 71.9 11.85 M98.75 14.0 Q99.5 14.0 99.95 14.45 100.4 14.9 100.4 15.7 100.4 16.55 99.95 17.0 99.45 17.4 98.7 17.4 97.95 17.4 97.55 16.95 97.1 16.5 97.1 15.7 97.1 14.9 97.55 14.45 98.0 14.0 98.75 14.0 M83.4 8.45 L83.4 9.0 83.4 9.7 Q83.8 8.85 84.55 8.35 85.3 7.8 86.4 7.8 87.65 7.85 88.35 8.65 89.0 9.45 89.05 10.9 L89.05 12.1 89.1 13.8 89.1 15.55 89.1 16.9 89.1 17.5 88.25 17.5 87.3 17.5 86.5 17.5 86.15 17.5 86.2 16.95 86.2 15.6 86.2 13.75 86.2 11.65 86.0 10.65 Q85.8 10.35 85.3 10.3 84.7 10.35 84.4 10.85 84.05 11.35 84.05 12.15 L84.0 13.45 84.0 15.0 84.0 16.35 84.0 16.9 83.55 16.85 82.45 16.85 81.1 16.9 81.1 15.8 81.15 12.8 81.1 8.25 81.45 8.25 82.35 8.3 83.4 8.25 83.4 8.45 M99.9 9.4 Q100.3 9.85 100.35 10.65 100.3 11.55 99.85 11.95 99.4 12.4 98.7 12.4 97.9 12.35 97.5 11.9 97.05 11.4 97.05 10.65 97.05 9.85 97.5 9.4 97.95 8.95 98.7 8.95 99.5 8.95 99.9 9.4 M93.0 5.65 L93.75 5.65 93.75 6.3 93.7 8.05 96.05 8.05 96.05 9.45 96.05 10.15 96.05 10.35 94.85 10.35 93.7 10.35 93.7 11.8 93.75 13.3 Q93.75 13.95 94.05 14.25 94.35 14.55 95.0 14.55 L95.45 14.5 96.05 14.4 96.2 16.2 96.25 16.85 95.05 17.1 94.0 17.2 Q92.55 17.2 91.75 16.45 90.9 15.65 90.9 13.85 L90.85 12.05 90.85 10.35 89.65 10.35 89.65 8.5 89.65 8.0 90.3 8.0 90.9 8.0 90.9 6.3 90.9 5.65 93.0 5.65" fill="#096caf" fill-rule="evenodd" stroke="none"/>
      <path d="M7.8 11.65 Q7.05 11.2 5.45 11.3 L5.5 13.0 5.5 14.25 5.55 14.75 5.95 14.8 6.3 14.8 Q7.35 14.8 7.9 14.4 8.5 13.95 8.5 13.05 8.5 12.1 7.8 11.65 M6.25 5.9 L5.85 5.9 5.45 5.95 5.45 8.0 5.45 9.0 5.45 9.3 7.55 9.0 Q8.25 8.6 8.25 7.55 8.25 6.75 7.8 6.35 7.3 5.9 6.25 5.9 M11.1 7.25 Q11.1 8.35 10.55 9.1 L9.05 10.1 Q10.25 10.45 10.9 11.25 11.5 12.0 11.5 13.2 11.5 15.1 10.1 16.0 8.65 16.85 6.0 16.85 L4.45 16.8 2.7 16.6 2.7 15.55 2.7 12.8 2.65 8.8 2.55 4.05 4.45 3.8 6.1 3.7 Q8.7 3.7 9.9 4.6 11.15 5.5 11.1 7.25 M14.85 9.25 L14.85 10.65 14.95 12.85 15.3 14.0 16.0 14.3 Q16.4 14.3 16.75 13.85 L17.1 12.4 17.1 10.55 17.1 8.85 17.05 7.7 17.05 7.25 17.7 7.25 19.95 7.25 19.95 8.5 19.95 11.85 20.0 16.85 19.4 16.8 17.55 16.8 17.6 16.4 17.6 15.3 16.55 16.35 15.15 16.65 Q14.0 16.7 13.35 16.15 12.65 15.6 12.3 14.4 12.0 13.25 12.0 11.3 L12.05 9.45 12.25 7.5 12.85 7.6 15.0 7.7 14.85 9.25 M24.45 9.95 Q24.1 10.7 24.1 12.05 24.1 13.55 24.5 14.25 24.85 14.95 25.45 14.95 26.1 14.95 26.45 14.3 26.85 13.65 26.85 12.1 26.85 10.7 26.5 9.95 26.15 9.2 25.45 9.2 24.8 9.2 24.45 9.95 M26.7 4.15 L26.95 4.15 27.85 4.15 29.7 4.15 29.65 5.15 29.65 7.9 29.65 12.0 29.65 16.95 29.25 16.95 28.3 16.95 27.15 16.95 27.2 16.5 27.25 15.4 Q26.8 16.1 26.15 16.45 L24.7 16.8 Q23.0 16.8 22.05 15.6 21.05 14.4 21.05 12.0 21.05 10.6 21.45 9.5 21.85 8.45 22.65 7.85 23.4 7.25 24.55 7.25 25.3 7.25 25.85 7.6 L26.8 8.45 26.75 6.6 26.7 4.15 M35.05 9.2 Q34.4 9.2 34.05 9.95 33.7 10.7 33.7 12.05 33.7 13.55 34.1 14.25 34.45 14.95 35.05 14.95 L36.05 14.3 Q36.45 13.65 36.45 12.1 36.45 10.7 36.1 9.95 35.75 9.2 35.05 9.2 M39.3 4.15 L39.25 5.15 39.25 7.9 39.25 12.0 39.25 16.95 38.85 16.95 37.9 16.95 36.75 16.95 36.8 16.5 36.85 15.4 35.75 16.45 34.3 16.8 Q32.6 16.8 31.65 15.6 30.65 14.4 30.65 12.0 30.65 10.6 31.05 9.5 31.45 8.45 32.25 7.85 33.0 7.25 34.15 7.25 34.9 7.25 35.45 7.6 36.05 7.9 36.4 8.45 L36.35 6.6 36.3 4.15 36.55 4.15 37.45 4.15 39.3 4.15 M43.05 7.7 L43.7 11.05 44.2 13.2 44.4 13.95 45.35 8.85 45.65 7.15 47.9 7.3 48.7 7.3 46.9 13.9 45.8 18.05 45.25 20.2 45.1 20.8 43.35 20.55 42.45 20.4 42.2 20.35 42.8 18.1 42.95 17.35 40.75 10.3 39.95 7.85 42.25 7.75 43.05 7.7 M60.95 9.15 Q61.45 10.05 61.45 11.25 L60.1 11.25 58.9 11.25 58.45 11.3 58.1 9.8 Q57.8 9.3 57.3 9.3 56.65 9.3 56.35 10.0 56.0 10.75 56.0 12.1 56.0 13.4 56.35 14.05 56.65 14.7 57.3 14.7 L58.1 14.25 Q58.4 13.8 58.4 12.8 L59.15 12.85 61.5 12.85 Q61.4 14.3 60.8 15.2 60.25 16.1 59.35 16.5 58.5 16.9 57.4 16.9 55.15 16.85 54.1 15.6 53.05 14.35 53.05 12.05 53.05 10.6 53.55 9.5 54.0 8.45 54.95 7.85 55.9 7.25 57.3 7.25 58.6 7.25 59.55 7.75 60.45 8.25 60.95 9.15 M65.6 9.9 Q65.25 10.55 65.25 11.9 65.25 13.5 65.55 14.2 65.9 14.9 66.6 14.85 67.2 14.9 67.6 14.2 67.95 13.55 67.95 12.0 67.95 10.65 67.6 9.95 67.3 9.2 66.6 9.2 65.95 9.2 65.6 9.9 M62.2 11.9 Q62.2 10.45 62.75 9.45 63.25 8.4 64.25 7.8 65.2 7.25 66.55 7.25 68.0 7.25 68.95 7.85 69.95 8.4 70.45 9.5 70.95 10.55 70.95 12.0 70.95 13.7 70.4 14.75 69.8 15.85 68.85 16.35 67.85 16.85 66.55 16.85 64.4 16.8 63.3 15.55 62.2 14.25 62.2 11.9 M71.9 11.3 L71.95 9.45 72.15 7.5 72.75 7.6 74.9 7.7 74.75 9.25 74.75 10.65 74.85 12.85 75.2 14.0 Q75.5 14.3 75.9 14.3 L76.65 13.85 77.0 12.4 77.0 10.55 77.0 8.85 76.95 7.7 76.95 7.25 77.6 7.25 79.85 7.25 79.85 8.5 79.85 11.85 79.9 16.85 79.3 16.8 77.45 16.8 77.5 16.4 77.5 15.3 76.45 16.35 75.05 16.65 Q73.9 16.7 73.25 16.15 72.55 15.6 72.2 14.4 71.9 13.25 71.9 11.3 M99.95 13.9 Q100.4 14.35 100.4 15.15 100.4 16.0 99.95 16.45 99.45 16.85 98.7 16.85 97.95 16.85 97.55 16.4 97.1 15.95 97.1 15.15 97.1 14.35 97.55 13.9 98.0 13.45 98.75 13.45 99.5 13.45 99.95 13.9 M82.35 7.75 L83.4 7.7 83.4 7.9 83.4 8.45 83.4 9.15 Q83.8 8.3 84.55 7.8 85.3 7.25 86.4 7.25 87.65 7.3 88.35 8.1 89.0 8.9 89.05 10.35 L89.05 11.55 89.1 13.25 89.1 15.0 89.1 16.35 89.1 16.95 88.25 16.95 87.3 16.95 86.5 16.95 86.15 16.95 86.2 16.4 86.2 15.05 86.2 13.2 86.2 11.1 86.0 10.1 Q85.8 9.8 85.3 9.75 84.7 9.8 84.4 10.3 84.05 10.8 84.05 11.6 L84.0 12.9 84.0 14.45 84.0 15.8 84.0 16.35 83.55 16.3 82.45 16.3 81.1 16.35 81.1 15.25 81.15 12.25 81.1 7.7 81.45 7.7 82.35 7.75 M98.7 11.85 Q97.9 11.8 97.5 11.35 97.05 10.85 97.05 10.1 97.05 9.3 97.5 8.85 97.95 8.4 98.7 8.4 99.5 8.4 99.9 8.85 100.3 9.3 100.35 10.1 100.3 11.0 99.85 11.4 99.4 11.85 98.7 11.85 M93.0 5.1 L93.75 5.1 93.75 5.75 93.7 7.5 96.05 7.5 96.05 8.9 96.05 9.6 96.05 9.8 94.85 9.8 93.7 9.8 93.7 11.25 93.75 12.75 Q93.75 13.4 94.05 13.7 94.35 14.0 95.0 14.0 L95.45 13.95 96.05 13.85 96.2 15.65 96.25 16.3 95.05 16.55 94.0 16.65 Q92.55 16.65 91.75 15.9 90.9 15.1 90.9 13.3 L90.85 11.5 90.85 9.8 89.65 9.8 89.65 7.95 89.65 7.45 90.3 7.45 90.9 7.45 90.9 5.75 90.9 5.1 93.0 5.1" fill="#096caf" fill-rule="evenodd" stroke="none"/>
      <path d="M7.8 11.1 Q7.05 10.65 5.45 10.75 L5.5 12.45 5.5 13.7 5.55 14.2 5.95 14.25 6.3 14.25 Q7.35 14.25 7.9 13.85 8.5 13.4 8.5 12.5 8.5 11.55 7.8 11.1 M7.8 5.8 Q7.3 5.35 6.25 5.35 L5.85 5.35 5.45 5.4 5.45 7.45 5.45 8.45 5.45 8.75 7.55 8.45 Q8.25 8.05 8.25 7.0 8.25 6.2 7.8 5.8 M11.1 6.7 Q11.1 7.8 10.55 8.55 L9.05 9.55 Q10.25 9.9 10.9 10.7 11.5 11.45 11.5 12.65 11.5 14.55 10.1 15.45 8.65 16.3 6.0 16.3 L4.45 16.25 2.7 16.05 2.7 15.0 2.7 12.25 2.65 8.25 2.55 3.5 4.45 3.25 6.1 3.15 Q8.7 3.15 9.9 4.05 11.15 4.95 11.1 6.7 M12.05 8.9 L12.25 6.95 12.85 7.05 15.0 7.15 14.85 8.7 14.85 10.1 14.95 12.3 15.3 13.45 16.0 13.75 Q16.4 13.75 16.75 13.3 L17.1 11.85 17.1 10.0 17.1 8.3 17.05 7.15 17.05 6.7 17.7 6.7 19.95 6.7 19.95 7.95 19.95 11.3 20.0 16.3 19.4 16.25 17.55 16.25 17.6 15.85 17.6 14.75 16.55 15.8 15.15 16.1 Q14.0 16.15 13.35 15.6 12.65 15.05 12.3 13.85 12.0 12.7 12.0 10.75 L12.05 8.9 M24.45 9.4 Q24.1 10.15 24.1 11.5 24.1 13.0 24.5 13.7 24.85 14.4 25.45 14.4 26.1 14.4 26.45 13.75 26.85 13.1 26.85 11.55 26.85 10.15 26.5 9.4 26.15 8.65 25.45 8.65 24.8 8.65 24.45 9.4 M26.7 3.6 L26.95 3.6 27.85 3.6 29.7 3.6 29.65 4.6 29.65 7.35 29.65 11.45 29.65 16.4 29.25 16.4 28.3 16.4 27.15 16.4 27.2 15.95 27.25 14.85 Q26.8 15.55 26.15 15.9 L24.7 16.25 Q23.0 16.25 22.05 15.05 21.05 13.85 21.05 11.45 21.05 10.05 21.45 8.95 21.85 7.9 22.65 7.3 23.4 6.7 24.55 6.7 25.3 6.7 25.85 7.05 L26.8 7.9 26.75 6.05 26.7 3.6 M35.05 8.65 Q34.4 8.65 34.05 9.4 33.7 10.15 33.7 11.5 33.7 13.0 34.1 13.7 34.45 14.4 35.05 14.4 L36.05 13.75 Q36.45 13.1 36.45 11.55 36.45 10.15 36.1 9.4 35.75 8.65 35.05 8.65 M39.3 3.6 L39.25 4.6 39.25 7.35 39.25 11.45 39.25 16.4 38.85 16.4 37.9 16.4 36.75 16.4 36.8 15.95 36.85 14.85 35.75 15.9 34.3 16.25 Q32.6 16.25 31.65 15.05 30.65 13.85 30.65 11.45 30.65 10.05 31.05 8.95 31.45 7.9 32.25 7.3 33.0 6.7 34.15 6.7 34.9 6.7 35.45 7.05 36.05 7.35 36.4 7.9 L36.35 6.05 36.3 3.6 36.55 3.6 37.45 3.6 39.3 3.6 M45.35 8.3 L45.65 6.6 47.9 6.75 48.7 6.75 46.9 13.35 45.8 17.5 45.25 19.65 45.1 20.25 43.35 20.0 42.45 19.85 42.2 19.8 42.8 17.55 42.95 16.8 40.75 9.75 39.95 7.3 42.25 7.2 43.05 7.15 43.7 10.5 44.2 12.65 44.4 13.4 45.35 8.3 M62.2 11.35 Q62.2 9.9 62.75 8.9 63.25 7.85 64.25 7.25 65.2 6.7 66.55 6.7 68.0 6.7 68.95 7.3 69.95 7.85 70.45 8.95 70.95 10.0 70.95 11.45 70.95 13.15 70.4 14.2 69.8 15.3 68.85 15.8 67.85 16.3 66.55 16.3 64.4 16.25 63.3 15.0 62.2 13.7 62.2 11.35 M60.95 8.6 Q61.45 9.5 61.45 10.7 L60.1 10.7 58.9 10.7 58.45 10.75 58.1 9.25 Q57.8 8.75 57.3 8.75 56.65 8.75 56.35 9.45 56.0 10.2 56.0 11.55 56.0 12.85 56.35 13.5 56.65 14.15 57.3 14.15 L58.1 13.7 Q58.4 13.25 58.4 12.25 L59.15 12.3 61.5 12.3 Q61.4 13.75 60.8 14.65 60.25 15.55 59.35 15.95 58.5 16.35 57.4 16.35 55.15 16.3 54.1 15.05 53.05 13.8 53.05 11.5 53.05 10.05 53.55 8.95 54.0 7.9 54.95 7.3 55.9 6.7 57.3 6.7 58.6 6.7 59.55 7.2 60.45 7.7 60.95 8.6 M65.6 9.35 Q65.25 10.0 65.25 11.35 65.25 12.95 65.55 13.65 65.9 14.35 66.6 14.3 67.2 14.35 67.6 13.65 67.95 13.0 67.95 11.45 67.95 10.1 67.6 9.4 67.3 8.65 66.6 8.65 65.95 8.65 65.6 9.35 M71.9 10.75 L71.95 8.9 72.15 6.95 72.75 7.05 74.9 7.15 74.75 8.7 74.75 10.1 74.85 12.3 75.2 13.45 Q75.5 13.75 75.9 13.75 L76.65 13.3 77.0 11.85 77.0 10.0 77.0 8.3 76.95 7.15 76.95 6.7 77.6 6.7 79.85 6.7 79.85 7.95 79.85 11.3 79.9 16.3 79.3 16.25 77.45 16.25 77.5 15.85 77.5 14.75 76.45 15.8 75.05 16.1 Q73.9 16.15 73.25 15.6 72.55 15.05 72.2 13.85 71.9 12.7 71.9 10.75 M99.95 13.35 Q100.4 13.8 100.4 14.6 100.4 15.45 99.95 15.9 99.45 16.3 98.7 16.3 97.95 16.3 97.55 15.85 97.1 15.4 97.1 14.6 97.1 13.8 97.55 13.35 98.0 12.9 98.75 12.9 99.5 12.9 99.95 13.35 M83.4 7.15 L83.4 7.35 83.4 7.9 83.4 8.6 Q83.8 7.75 84.55 7.25 85.3 6.7 86.4 6.7 87.65 6.75 88.35 7.55 89.0 8.35 89.05 9.8 L89.05 11.0 89.1 12.7 89.1 14.45 89.1 15.8 89.1 16.4 88.25 16.4 87.3 16.4 86.5 16.4 86.15 16.4 86.2 15.85 86.2 14.5 86.2 12.65 86.2 10.55 86.0 9.55 Q85.8 9.25 85.3 9.2 84.7 9.25 84.4 9.75 84.05 10.25 84.05 11.05 L84.0 12.35 84.0 13.9 84.0 15.25 84.0 15.8 83.55 15.75 82.45 15.75 81.1 15.8 81.1 14.7 81.15 11.7 81.1 7.15 81.45 7.15 82.35 7.2 83.4 7.15 M98.7 11.3 Q97.9 11.25 97.5 10.8 97.05 10.3 97.05 9.55 97.05 8.75 97.5 8.3 97.95 7.85 98.7 7.85 99.5 7.85 99.9 8.3 100.3 8.75 100.35 9.55 100.3 10.45 99.85 10.85 99.4 11.3 98.7 11.3 M93.0 4.55 L93.75 4.55 93.75 5.2 93.7 6.95 96.05 6.95 96.05 8.35 96.05 9.05 96.05 9.25 94.85 9.25 93.7 9.25 93.7 10.7 93.75 12.2 Q93.75 12.85 94.05 13.15 94.35 13.45 95.0 13.45 L95.45 13.4 96.05 13.3 96.2 15.1 96.25 15.75 95.05 16.0 94.0 16.1 Q92.55 16.1 91.75 15.35 90.9 14.55 90.9 12.75 L90.85 10.95 90.85 9.25 89.65 9.25 89.65 7.4 89.65 6.9 90.3 6.9 90.9 6.9 90.9 5.2 90.9 4.55 93.0 4.55" fill="#096caf" fill-rule="evenodd" stroke="none"/>
      <path d="M8.5 11.95 Q8.5 11.0 7.8 10.55 7.05 10.1 5.45 10.2 L5.5 11.9 5.5 13.15 5.55 13.65 5.95 13.7 6.3 13.7 Q7.35 13.7 7.9 13.3 8.5 12.85 8.5 11.95 M7.8 5.25 Q7.3 4.8 6.25 4.8 L5.85 4.8 5.45 4.85 5.45 6.9 5.45 7.9 5.45 8.2 7.55 7.9 Q8.25 7.5 8.25 6.45 8.25 5.65 7.8 5.25 M10.9 10.15 Q11.5 10.9 11.5 12.1 11.5 14.0 10.1 14.9 8.65 15.75 6.0 15.75 L4.45 15.7 2.7 15.5 2.7 14.45 2.7 11.7 2.65 7.7 2.55 2.95 4.45 2.7 6.1 2.6 Q8.7 2.6 9.9 3.5 11.15 4.4 11.1 6.15 11.1 7.25 10.55 8.0 L9.05 9.0 Q10.25 9.35 10.9 10.15 M17.7 6.15 L19.95 6.15 19.95 7.4 19.95 10.75 20.0 15.75 19.4 15.7 17.55 15.7 17.6 15.3 17.6 14.2 16.55 15.25 15.15 15.55 Q14.0 15.6 13.35 15.05 12.65 14.5 12.3 13.3 12.0 12.15 12.0 10.2 L12.05 8.35 12.25 6.4 12.85 6.5 15.0 6.6 14.85 8.15 14.85 9.55 14.95 11.75 15.3 12.9 16.0 13.2 Q16.4 13.2 16.75 12.75 L17.1 11.3 17.1 9.45 17.1 7.75 17.05 6.6 17.05 6.15 17.7 6.15 M24.45 8.85 Q24.1 9.6 24.1 10.95 24.1 12.45 24.5 13.15 24.85 13.85 25.45 13.85 26.1 13.85 26.45 13.2 26.85 12.55 26.85 11.0 26.85 9.6 26.5 8.85 26.15 8.1 25.45 8.1 24.8 8.1 24.45 8.85 M26.75 5.5 L26.7 3.05 26.95 3.05 27.85 3.05 29.7 3.05 29.65 4.05 29.65 6.8 29.65 10.9 29.65 15.85 29.25 15.85 28.3 15.85 27.15 15.85 27.2 15.4 27.25 14.3 Q26.8 15.0 26.15 15.35 L24.7 15.7 Q23.0 15.7 22.05 14.5 21.05 13.3 21.05 10.9 21.05 9.5 21.45 8.4 21.85 7.35 22.65 6.75 23.4 6.15 24.55 6.15 25.3 6.15 25.85 6.5 L26.8 7.35 26.75 5.5 M35.05 8.1 Q34.4 8.1 34.05 8.85 33.7 9.6 33.7 10.95 33.7 12.45 34.1 13.15 34.45 13.85 35.05 13.85 L36.05 13.2 Q36.45 12.55 36.45 11.0 36.45 9.6 36.1 8.85 35.75 8.1 35.05 8.1 M39.3 3.05 L39.25 4.05 39.25 6.8 39.25 10.9 39.25 15.85 38.85 15.85 37.9 15.85 36.75 15.85 36.8 15.4 36.85 14.3 35.75 15.35 34.3 15.7 Q32.6 15.7 31.65 14.5 30.65 13.3 30.65 10.9 30.65 9.5 31.05 8.4 31.45 7.35 32.25 6.75 33.0 6.15 34.15 6.15 34.9 6.15 35.45 6.5 36.05 6.8 36.4 7.35 L36.35 5.5 36.3 3.05 36.55 3.05 37.45 3.05 39.3 3.05 M42.25 6.65 L43.05 6.6 43.7 9.95 44.2 12.1 44.4 12.85 45.35 7.75 45.65 6.05 47.9 6.2 48.7 6.2 46.9 12.8 45.8 16.95 45.25 19.1 45.1 19.7 43.35 19.45 42.45 19.3 42.2 19.25 42.8 17.0 42.95 16.25 40.75 9.2 39.95 6.75 42.25 6.65 M65.6 8.8 Q65.25 9.45 65.25 10.8 65.25 12.4 65.55 13.1 65.9 13.8 66.6 13.75 67.2 13.8 67.6 13.1 67.95 12.45 67.95 10.9 67.95 9.55 67.6 8.85 67.3 8.1 66.6 8.1 65.95 8.1 65.6 8.8 M62.75 8.35 Q63.25 7.3 64.25 6.7 65.2 6.15 66.55 6.15 68.0 6.15 68.95 6.75 69.95 7.3 70.45 8.4 70.95 9.45 70.95 10.9 70.95 12.6 70.4 13.65 69.8 14.75 68.85 15.25 67.85 15.75 66.55 15.75 64.4 15.7 63.3 14.45 62.2 13.15 62.2 10.8 62.2 9.35 62.75 8.35 M60.95 8.05 Q61.45 8.95 61.45 10.15 L60.1 10.15 58.9 10.15 58.45 10.2 58.1 8.7 Q57.8 8.2 57.3 8.2 56.65 8.2 56.35 8.9 56.0 9.65 56.0 11.0 56.0 12.3 56.35 12.95 56.65 13.6 57.3 13.6 L58.1 13.15 Q58.4 12.7 58.4 11.7 L59.15 11.75 61.5 11.75 Q61.4 13.2 60.8 14.1 60.25 15.0 59.35 15.4 58.5 15.8 57.4 15.8 55.15 15.75 54.1 14.5 53.05 13.25 53.05 10.95 53.05 9.5 53.55 8.4 54.0 7.35 54.95 6.75 55.9 6.15 57.3 6.15 58.6 6.15 59.55 6.65 60.45 7.15 60.95 8.05 M76.95 6.15 L77.6 6.15 79.85 6.15 79.85 7.4 79.85 10.75 79.9 15.75 79.3 15.7 77.45 15.7 77.5 15.3 77.5 14.2 76.45 15.25 75.05 15.55 Q73.9 15.6 73.25 15.05 72.55 14.5 72.2 13.3 71.9 12.15 71.9 10.2 L71.95 8.35 72.15 6.4 72.75 6.5 74.9 6.6 74.75 8.15 74.75 9.55 74.85 11.75 75.2 12.9 Q75.5 13.2 75.9 13.2 L76.65 12.75 77.0 11.3 77.0 9.45 77.0 7.75 76.95 6.6 76.95 6.15 M99.95 15.35 Q99.45 15.75 98.7 15.75 97.95 15.75 97.55 15.3 97.1 14.85 97.1 14.05 97.1 13.25 97.55 12.8 98.0 12.35 98.75 12.35 99.5 12.35 99.95 12.8 100.4 13.25 100.4 14.05 100.4 14.9 99.95 15.35 M86.0 9.0 Q85.8 8.7 85.3 8.65 84.7 8.7 84.4 9.2 84.05 9.7 84.05 10.5 L84.0 11.8 84.0 13.35 84.0 14.7 84.0 15.25 83.55 15.2 82.45 15.2 81.1 15.25 81.1 14.15 81.15 11.15 81.1 6.6 81.45 6.6 82.35 6.65 83.4 6.6 83.4 6.8 83.4 7.35 83.4 8.05 Q83.8 7.2 84.55 6.7 85.3 6.15 86.4 6.15 87.65 6.2 88.35 7.0 89.0 7.8 89.05 9.25 L89.05 10.45 89.1 12.15 89.1 13.9 89.1 15.25 89.1 15.85 88.25 15.85 87.3 15.85 86.5 15.85 86.15 15.85 86.2 15.3 86.2 13.95 86.2 12.1 86.2 10.0 86.0 9.0 M99.85 10.3 Q99.4 10.75 98.7 10.75 97.9 10.7 97.5 10.25 97.05 9.75 97.05 9.0 97.05 8.2 97.5 7.75 97.95 7.3 98.7 7.3 99.5 7.3 99.9 7.75 100.3 8.2 100.35 9.0 100.3 9.9 99.85 10.3 M93.0 4.0 L93.75 4.0 93.75 4.65 93.7 6.4 96.05 6.4 96.05 7.8 96.05 8.5 96.05 8.7 94.85 8.7 93.7 8.7 93.7 10.15 93.75 11.65 Q93.75 12.3 94.05 12.6 94.35 12.9 95.0 12.9 L95.45 12.85 96.05 12.75 96.2 14.55 96.25 15.2 95.05 15.45 94.0 15.55 Q92.55 15.55 91.75 14.8 90.9 14.0 90.9 12.2 L90.85 10.4 90.85 8.7 89.65 8.7 89.65 6.85 89.65 6.35 90.3 6.35 90.9 6.35 90.9 4.65 90.9 4.0 93.0 4.0" fill="#ffffff" fill-rule="evenodd" stroke="none"/>
    </g>
    <g id="text0" transform="matrix(1.0, 0.0, 0.0, 1.0, -12.5, 2.0)">
      <g transform="matrix(1.0, 0.0, 0.0, 1.0, 12.5, -2.0)">
        <use fill="#ffff66" height="39.0" transform="matrix(0.0313, 0.0, 0.0, 0.0313, 30.95, 26.0)" width="112.15" xlink:href="#font_Burbank_Big_Regular_Bold_D0"/>
        <use fill="#ffff66" height="39.0" transform="matrix(0.0313, 0.0, 0.0, 0.0313, 48.95, 26.0)" width="112.15" xlink:href="#font_Burbank_Big_Regular_Bold_i0"/>
        <use fill="#ffff66" height="39.0" transform="matrix(0.0313, 0.0, 0.0, 0.0313, 56.6, 26.0)" width="112.15" xlink:href="#font_Burbank_Big_Regular_Bold_r0"/>
        <use fill="#ffff66" height="39.0" transform="matrix(0.0313, 0.0, 0.0, 0.0313, 68.85, 26.0)" width="112.15" xlink:href="#font_Burbank_Big_Regular_Bold_t0"/>
      </g>
    </g>
    <g id="font_Burbank_Big_Regular_Bold_D0">
      <path d="M38.0 3.0 Q39.0 -148.5 39.0 -277.5 39.5 -406.0 39.0 -502.0 38.5 -598.0 38.5 -651.5 L38.0 -705.5 Q82.5 -712.5 122.5 -716.0 162.5 -720.0 198.5 -720.0 382.0 -719.5 468.5 -625.0 555.0 -530.5 554.0 -347.0 554.0 -220.0 513.0 -140.5 472.5 -60.5 391.5 -23.5 311.0 13.5 190.5 13.5 L117.5 11.0 Q79.5 8.5 38.0 3.0 M208.0 -120.0 L219.5 -119.0 231.5 -119.0 Q275.0 -118.0 307.5 -137.0 340.0 -156.5 357.5 -207.5 375.5 -258.5 376.0 -352.5 376.0 -469.0 341.0 -527.5 306.0 -585.5 233.5 -585.5 L218.0 -585.0 201.5 -583.5 Q202.0 -488.5 203.0 -405.0 L205.0 -257.5 Q206.5 -193.0 207.0 -157.0 L208.0 -120.0" fill-rule="evenodd" stroke="none"/>
    </g>
    <g id="font_Burbank_Big_Regular_Bold_i0">
      <path d="M124.0 -562.0 Q72.5 -562.5 47.0 -585.0 21.5 -607.5 21.5 -651.5 21.5 -691.5 47.5 -714.0 73.0 -737.0 124.0 -737.5 174.5 -736.5 199.0 -713.0 223.5 -689.5 223.0 -651.5 223.5 -612.0 199.5 -587.5 175.0 -563.0 124.0 -562.0 M43.0 -1.0 L43.0 -50.5 42.5 -213.5 Q42.0 -326.0 40.0 -513.0 L83.0 -513.0 Q125.5 -512.5 204.0 -514.0 L203.5 -473.0 Q203.5 -433.0 204.0 -362.5 204.0 -292.0 204.5 -199.5 205.5 -107.0 207.0 -2.0 L185.5 -2.0 Q164.0 -2.5 127.5 -2.0 90.5 -2.0 43.0 -1.0" fill-rule="evenodd" stroke="none"/>
    </g>
    <g id="font_Burbank_Big_Regular_Bold_r0">
      <path d="M35.0 1.0 L35.0 -43.5 Q35.5 -86.5 35.5 -159.5 35.5 -232.5 35.0 -322.0 35.0 -412.0 34.0 -506.0 33.5 -505.5 66.5 -505.5 99.5 -505.5 169.0 -507.0 L168.0 -480.5 Q167.0 -455.0 167.0 -415.5 191.5 -469.5 243.0 -499.0 294.0 -528.5 359.5 -525.5 L357.5 -485.5 Q356.0 -446.0 354.5 -369.5 297.5 -366.0 263.5 -347.0 230.0 -328.5 215.0 -290.5 200.0 -252.5 198.5 -191.5 198.0 -162.0 198.0 -129.0 L199.0 -67.0 200.0 -19.0 200.5 0.0 159.0 0.0 Q118.0 0.5 35.0 1.0" fill-rule="evenodd" stroke="none"/>
    </g>
    <g id="font_Burbank_Big_Regular_Bold_t0">
      <path d="M378.0 -16.5 Q342.5 -7.0 310.5 -2.0 278.5 3.0 250.0 3.0 170.5 4.0 124.0 -40.5 77.0 -85.0 75.0 -185.5 74.0 -237.0 74.0 -287.0 73.5 -337.5 73.5 -385.0 L7.0 -385.0 Q8.0 -460.0 7.0 -489.5 6.5 -519.5 6.0 -518.0 L41.0 -517.0 75.0 -517.0 76.0 -612.5 77.0 -649.0 Q151.5 -648.5 194.0 -649.0 L237.5 -649.0 236.5 -611.5 Q235.5 -575.0 234.5 -515.0 L368.5 -515.0 Q367.0 -462.5 367.0 -434.0 L367.0 -394.5 367.5 -384.0 299.5 -385.0 234.5 -385.0 Q234.5 -343.5 235.0 -301.5 235.0 -259.5 236.5 -218.0 237.0 -181.5 254.0 -164.0 271.5 -146.5 307.0 -146.5 319.5 -146.5 334.0 -148.5 349.0 -151.0 366.5 -155.5 L374.5 -54.0 Q377.5 -17.0 378.0 -16.5" fill-rule="evenodd" stroke="none"/>
    </g>
    <g id="text1" transform="matrix(1.0, 0.0, 0.0, 1.0, 2.0, 2.0)">
      <g transform="matrix(1.0, 0.0, 0.0, 1.0, -2.0, -2.0)">
        <use fill="#ff99ff" height="32.0" transform="matrix(0.0273, 0.0, 0.0, 0.0273, 0.0, 23.0)" width="40.85" xlink:href="#font_Burbank_Big_Regular_Bold_00"/>
      </g>
    </g>
    <g id="font_Burbank_Big_Regular_Bold_00">
      <path d="M299.0 -112.5 Q328.0 -112.0 349.0 -135.0 370.0 -157.5 381.5 -211.5 393.0 -266.0 393.0 -359.5 393.0 -471.0 368.5 -527.0 344.5 -583.5 298.0 -583.5 249.0 -584.5 225.0 -529.0 200.5 -474.0 200.5 -355.5 200.5 -229.5 225.5 -170.5 250.0 -112.0 299.0 -112.5 M298.0 26.5 Q213.0 26.5 151.5 -17.0 90.0 -60.5 56.5 -145.0 23.0 -229.0 22.5 -352.5 23.5 -536.0 96.0 -628.0 168.5 -720.0 297.0 -720.0 432.5 -720.0 503.0 -629.0 573.0 -538.0 573.5 -357.5 573.0 -171.5 503.0 -73.0 433.0 26.0 298.0 26.5" fill-rule="evenodd" stroke="none"/>
    </g>
  </defs>
</svg>
