<?xml version="1.0" encoding="UTF-8" standalone="no"?>
<svg xmlns:ffdec="https://www.free-decompiler.com/flash" xmlns:xlink="http://www.w3.org/1999/xlink" ffdec:objectType="frame" height="17.8px" width="16.9px" xmlns="http://www.w3.org/2000/svg">
  <g transform="matrix(1.0, 0.0, 0.0, 1.0, 8.45, 8.9)">
    <use ffdec:characterId="2048" height="17.8" transform="matrix(1.0, 0.0, 0.0, 1.0, -8.45, -8.9)" width="16.9" xlink:href="#shape0"/>
  </g>
  <defs>
    <g id="shape0" transform="matrix(1.0, 0.0, 0.0, 1.0, 8.45, 8.9)">
      <path d="M-7.6 3.7 Q-8.95 2.6 -8.2 0.9 -7.55 -0.55 -5.3 -1.1 L-3.2 -1.4 -4.85 -3.4 Q-6.25 -5.05 -5.25 -7.0 -4.15 -9.1 -1.35 -8.9 1.55 -8.7 1.9 -6.05 2.05 -4.7 1.65 -3.4 L3.85 -5.35 Q6.4 -6.75 8.05 -4.0 9.3 -1.95 6.6 -0.45 L3.65 0.6 6.65 1.5 Q9.3 2.9 7.65 5.4 6.0 7.9 3.35 6.3 L1.0 4.15 0.95 6.4 Q0.45 8.7 -1.85 8.9 -4.15 9.1 -4.55 6.7 L-4.5 4.25 Q-6.35 4.75 -7.6 3.7" fill="#51cfc2" fill-rule="evenodd" stroke="none"/>
    </g>
  </defs>
</svg>
