<?xml version="1.0" encoding="UTF-8" standalone="no"?>
<svg xmlns:ffdec="https://www.free-decompiler.com/flash" xmlns:xlink="http://www.w3.org/1999/xlink" ffdec:objectType="frame" height="29.65px" width="7.8px" xmlns="http://www.w3.org/2000/svg">
  <g transform="matrix(1.0, 0.0, 0.0, 1.0, 0.0, 0.0)">
    <use ffdec:characterId="152" height="29.65" transform="matrix(1.0, 0.0, 0.0, 1.0, 0.0, 0.0)" width="7.8" xlink:href="#shape0"/>
  </g>
  <defs>
    <g id="shape0" transform="matrix(1.0, 0.0, 0.0, 1.0, 0.0, 0.0)">
      <path d="M1.95 5.55 Q2.6 2.55 3.05 1.6 L3.05 1.55 3.1 1.35 Q3.9 1.2 4.5 0.5 L4.9 0.0 Q6.0 0.45 6.85 4.05 7.8 8.25 7.8 14.15 7.8 20.05 6.85 24.2 5.9 28.4 4.55 28.4 3.8 28.4 2.95 29.05 L1.5 29.6 Q0.75 29.8 0.05 29.1 -0.15 26.55 0.3 20.65 1.25 8.5 1.95 5.55" fill="#4aa613" fill-rule="evenodd" stroke="none"/>
    </g>
  </defs>
</svg>
