<?xml version="1.0" encoding="UTF-8" standalone="no"?>
<svg xmlns:ffdec="https://www.free-decompiler.com/flash" xmlns:xlink="http://www.w3.org/1999/xlink" ffdec:objectType="frame" height="30.7px" width="78.55px" xmlns="http://www.w3.org/2000/svg">
  <g transform="matrix(1.0, 0.0, 0.0, 1.0, -3.05, -1.35)">
    <filter id="filter4">
      <feColorMatrix in="SourceGraphic" result="filterResult0" type="matrix" values="0 0 0 0 0.5019608,0 0 0 0 0.015686275,0 0 0 0 0.015686275,0 0 0 1 0"/>
      <feConvolveMatrix divisor="16.0" in="filterResult0" kernelMatrix="1 1 1 1 1 1 1 1 1 1 1 1 1 1 1 1" order="4 4" result="filterResult1"/>
      <feComposite in="SourceGraphic" in2="filterResult1" operator="over" result="filterResult2"/>
      <feOffset dx="0.17433012704532486" dy="1.9923877651713184" in="filterResult2" result="filterResult3"/>
      <feColorMatrix in="filterResult3" result="filterResult4" type="matrix" values="0 0 0 0 0.5019608,0 0 0 0 0.015686275,0 0 0 0 0.015686275,0 0 0 1 0"/>
      <feConvolveMatrix divisor="1.0" in="filterResult4" kernelMatrix="1" order="1 1" result="filterResult5"/>
      <feColorMatrix in="filterResult5" result="filterResult6" type="matrix" values="1 0 0 0 0,0 1 0 0 0,0 0 1 0 0,0 0 0 20.0 0"/>
      <feComposite in="filterResult2" in2="filterResult6" operator="over" result="filterResult7"/>
      <feOffset dx="-0.2090380502662456" dy="1.9890457746218126" in="filterResult7" result="filterResult8"/>
      <feColorMatrix in="filterResult8" result="filterResult9" type="matrix" values="0 0 0 0 0.0,0 0 0 0 0.0,0 0 0 0 0.0,0 0 0 1 0"/>
      <feConvolveMatrix divisor="4.0" in="filterResult9" kernelMatrix="1 1 1 1" order="2 2" result="filterResult10"/>
      <feColorMatrix in="filterResult10" result="filterResult11" type="matrix" values="1 0 0 0 0,0 1 0 0 0,0 0 1 0 0,0 0 0 0.296875 0"/>
      <feComposite in="filterResult7" in2="filterResult11" operator="over" result="filterResult12"/>
    </filter>
    <use ffdec:characterId="373" filter="url(#filter4)" height="30.7" transform="matrix(1.0, 0.0, 0.0, 1.0, 3.05, 1.35)" width="78.55" xlink:href="#text0"/>
    <use ffdec:characterId="374" height="27.7" transform="matrix(1.0, 0.0, 0.0, 1.0, 3.05, 3.35)" width="77.55" xlink:href="#shape0"/>
  </g>
  <defs>
    <g id="text0" transform="matrix(1.0, 0.0, 0.0, 1.0, -1.05, 0.65)">
      <g transform="matrix(1.0, 0.0, 0.0, 1.0, 0.0, 0.0)">
        <use fill="#fc1b1b" height="30.7" transform="matrix(0.0371, 0.0, 0.0, 0.0371, 0.0, 29.0)" width="78.55" xlink:href="#font_Burbank_Big_Regular_Black_F0"/>
        <use fill="#fc1b1b" height="30.7" transform="matrix(0.0371, 0.0, 0.0, 0.0371, 19.25, 29.0)" width="78.55" xlink:href="#font_Burbank_Big_Regular_Black_U0"/>
        <use fill="#fc1b1b" height="30.7" transform="matrix(0.0371, 0.0, 0.0, 0.0371, 42.7, 29.0)" width="78.55" xlink:href="#font_Burbank_Big_Regular_Black_L0"/>
        <use fill="#fc1b1b" height="30.7" transform="matrix(0.0371, 0.0, 0.0, 0.0371, 61.2, 29.0)" width="78.55" xlink:href="#font_Burbank_Big_Regular_Black_L0"/>
      </g>
    </g>
    <g id="font_Burbank_Big_Regular_Black_F0">
      <path d="M37.0 -3.0 L36.5 -55.5 36.0 -201.5 33.5 -425.5 Q31.5 -555.0 28.5 -710.5 L64.0 -711.0 Q99.0 -711.0 160.5 -711.5 222.5 -712.0 304.0 -713.0 385.5 -714.0 479.0 -716.0 L479.0 -661.5 Q478.5 -608.0 479.0 -512.0 L448.0 -511.5 Q417.5 -511.5 366.0 -510.5 L251.0 -509.0 250.5 -479.0 Q250.0 -448.5 251.0 -388.0 L286.5 -388.0 Q308.5 -388.5 345.0 -388.5 L438.5 -390.0 Q438.0 -389.5 437.5 -337.5 437.0 -285.5 439.5 -192.5 L390.5 -193.0 254.0 -192.5 258.0 -4.0 Q195.5 -4.5 145.5 -4.5 L66.5 -3.5 37.0 -3.0" fill-rule="evenodd" stroke="none"/>
    </g>
    <g id="font_Burbank_Big_Regular_Black_U0">
      <path d="M307.0 14.5 Q159.0 15.5 86.5 -89.0 14.0 -193.5 14.5 -415.5 14.5 -483.0 20.5 -556.5 27.0 -629.5 40.0 -704.5 L92.0 -697.0 Q144.5 -689.5 256.0 -677.0 247.0 -607.0 242.0 -547.0 237.5 -486.5 237.5 -433.0 237.5 -342.5 245.0 -288.0 252.5 -233.5 266.5 -209.0 280.5 -185.0 300.0 -185.5 319.5 -184.5 333.0 -202.0 346.5 -220.0 353.5 -268.0 360.5 -316.0 360.5 -405.5 360.5 -476.0 355.0 -556.0 349.5 -636.0 339.0 -719.0 L395.5 -721.0 Q452.0 -723.0 562.0 -731.0 576.0 -647.0 583.5 -562.0 591.0 -477.5 591.0 -399.5 591.5 -191.5 522.0 -88.5 452.5 14.5 307.0 14.5" fill-rule="evenodd" stroke="none"/>
    </g>
    <g id="font_Burbank_Big_Regular_Black_L0">
      <path d="M35.0 -3.0 L34.5 -61.5 34.0 -217.0 Q33.5 -316.0 32.0 -441.5 31.0 -567.0 28.5 -705.5 L83.0 -705.0 Q137.0 -704.0 250.0 -705.5 L249.5 -684.5 249.5 -607.0 250.5 -451.0 Q251.5 -350.5 254.0 -194.5 355.5 -191.5 412.0 -191.5 L469.0 -191.5 Q467.0 -102.0 467.5 -51.5 467.5 -1.0 468.0 0.0 L317.0 -2.0 Q241.0 -2.5 177.5 -2.5 L74.5 -3.0 35.0 -3.0" fill-rule="evenodd" stroke="none"/>
    </g>
    <g id="shape0" transform="matrix(1.0, 0.0, 0.0, 1.0, -3.05, -3.35)">
      <path d="M72.5 4.3 L72.45 5.1 72.45 7.95 72.5 13.75 72.65 23.3 78.5 23.4 80.6 23.4 80.55 28.6 80.55 30.5 74.95 30.45 69.8 30.4 65.95 30.4 64.5 30.4 64.5 28.2 64.45 22.45 64.4 14.1 64.25 4.3 66.3 4.35 72.5 4.3 M13.3 4.05 L19.8 3.95 19.8 5.95 19.8 11.5 18.65 11.5 15.6 11.55 11.3 11.6 11.3 12.7 11.3 16.1 12.65 16.1 14.8 16.1 18.25 16.05 18.25 18.0 18.3 23.35 16.5 23.35 11.45 23.35 11.55 30.35 7.4 30.35 4.45 30.35 3.35 30.4 3.35 28.45 3.35 23.0 3.25 14.7 3.05 4.15 4.4 4.1 7.95 4.1 13.3 4.05 M42.1 3.35 L42.9 9.65 43.2 15.65 Q43.2 23.4 40.6 27.2 38.05 31.05 32.65 31.05 27.15 31.1 24.45 27.2 21.75 23.3 21.8 15.1 L22.0 9.85 Q22.25 7.15 22.75 4.35 L24.65 4.65 30.75 5.4 30.25 10.2 30.05 14.45 Q30.05 17.8 30.35 19.8 30.6 21.85 31.15 22.75 31.65 23.65 32.4 23.6 33.1 23.65 33.6 23.0 34.1 22.35 34.35 20.55 L34.65 15.45 34.4 9.85 33.85 3.8 35.95 3.75 42.1 3.35 M53.95 5.1 L53.95 7.95 54.0 13.75 54.15 23.3 60.0 23.4 62.1 23.4 62.05 28.6 62.05 30.5 56.45 30.45 51.3 30.4 47.45 30.4 46.0 30.4 46.0 28.2 45.95 22.45 45.9 14.1 45.75 4.3 47.8 4.35 54.0 4.3 53.95 5.1" fill="url(#gradient0)" fill-rule="evenodd" stroke="none"/>
    </g>
    <linearGradient gradientTransform="matrix(0.0, 0.0164, -0.016, 0.0, 53.9, 17.4)" gradientUnits="userSpaceOnUse" id="gradient0" spreadMethod="pad" x1="-819.2" x2="819.2">
      <stop offset="0.0" stop-color="#ff6a44"/>
      <stop offset="0.6196078431372549" stop-color="#fc1b1b"/>
    </linearGradient>
  </defs>
</svg>
