<?xml version="1.0" encoding="UTF-8" standalone="no"?>
<svg xmlns:ffdec="https://www.free-decompiler.com/flash" xmlns:xlink="http://www.w3.org/1999/xlink" ffdec:objectType="frame" height="18.5px" width="18.5px" xmlns="http://www.w3.org/2000/svg">
  <g transform="matrix(1.0, 0.0, 0.0, 1.0, 1.25, 1.25)">
    <use ffdec:characterId="2766" height="18.5" transform="matrix(1.0, 0.0, 0.0, 1.0, -1.25, -1.25)" width="18.5" xlink:href="#shape0"/>
  </g>
  <defs>
    <g id="shape0" transform="matrix(1.0, 0.0, 0.0, 1.0, 1.25, 1.25)">
      <path d="M15.2 4.5 Q15.2 7.8 12.85 10.15 10.5 12.5 7.2 12.5 3.9 12.5 1.55 10.15 0.55 9.15 0.0 8.05 L0.0 8.0 Q0.0 4.7 2.35 2.35 4.7 0.0 8.0 0.0 11.3 0.0 13.65 2.35 14.65 3.35 15.2 4.5" fill="#ffffff" fill-rule="evenodd" stroke="none"/>
      <path d="M0.0 8.05 Q0.55 9.15 1.55 10.15 3.9 12.5 7.2 12.5 10.5 12.5 12.85 10.15 15.2 7.8 15.2 4.5 16.0 6.05 16.0 8.0 16.0 11.3 13.65 13.65 11.3 16.0 8.0 16.0 4.7 16.0 2.35 13.65 0.0 11.3 0.0 8.05" fill="#dae7ec" fill-rule="evenodd" stroke="none"/>
      <path d="M0.0 8.05 Q0.0 11.3 2.35 13.65 4.7 16.0 8.0 16.0 11.3 16.0 13.65 13.65 16.0 11.3 16.0 8.0 16.0 6.05 15.2 4.5 14.65 3.35 13.65 2.35 11.3 0.0 8.0 0.0 4.7 0.0 2.35 2.35 0.0 4.7 0.0 8.0 L0.0 8.05 Z" fill="none" stroke="#645d59" stroke-linecap="round" stroke-linejoin="round" stroke-width="2.5"/>
    </g>
  </defs>
</svg>
