<?xml version="1.0" encoding="UTF-8" standalone="no"?>
<svg xmlns:ffdec="https://www.free-decompiler.com/flash" xmlns:xlink="http://www.w3.org/1999/xlink" ffdec:objectType="frame" height="192.15px" width="151.8px" xmlns="http://www.w3.org/2000/svg">
  <g transform="matrix(1.0, 0.0, 0.0, 1.0, 0.4, 0.05)">
    <filter id="filter0">
      <feColorMatrix in="SourceGraphic" result="filterResult0" type="matrix" values="0.21094832 -0.16069257 0.9497442 0.0 0.0 0.29599896 0.923993 -0.21999197 0.0 0.0 -0.6023121 1.2205814 0.38173065 0.0 0.0 0.0 0.0 0.0 1.0 0.0"/>
    </filter>
    <use ffdec:characterId="835" filter="url(#filter0)" height="120.7" transform="matrix(1.2462, 0.0, 0.0, 1.2462, -0.0088, 0.3755)" width="120.7" xlink:href="#sprite0"/>
    <use ffdec:characterId="846" height="350.85" transform="matrix(-0.5456, 0.0026, 0.0026, 0.5456, 150.1213, -0.0381)" width="275.85" xlink:href="#sprite18"/>
    <use ffdec:characterId="96" height="18.0" transform="matrix(1.495, 0.0, 0.0, 8.3556, 1.0, 1.45)" width="100.6" xlink:href="#shape48"/>
  </g>
  <defs>
    <g id="sprite0" transform="matrix(1.0, 0.0, 0.0, 1.0, -140.5, -52.5)">
      <use ffdec:characterId="833" height="120.7" transform="matrix(1.0, 0.0, 0.0, 1.0, 140.5, 52.5)" width="120.7" xlink:href="#shape0"/>
      <use ffdec:characterId="834" height="13.5" transform="matrix(1.0, 0.0, 0.0, 1.0, 154.15, 66.05)" width="13.5" xlink:href="#sprite1"/>
      <use ffdec:characterId="834" height="13.5" transform="matrix(1.0, 0.0, 0.0, 1.0, 194.15, 66.05)" width="13.5" xlink:href="#sprite1"/>
      <use ffdec:characterId="834" height="13.5" transform="matrix(1.0, 0.0, 0.0, 1.0, 154.15, 106.05)" width="13.5" xlink:href="#sprite1"/>
      <use ffdec:characterId="834" height="13.5" transform="matrix(1.0, 0.0, 0.0, 1.0, 194.15, 106.05)" width="13.5" xlink:href="#sprite1"/>
      <use ffdec:characterId="834" height="13.5" transform="matrix(1.0, 0.0, 0.0, 1.0, 154.15, 146.15)" width="13.5" xlink:href="#sprite1"/>
      <use ffdec:characterId="834" height="13.5" transform="matrix(1.0, 0.0, 0.0, 1.0, 194.15, 146.15)" width="13.5" xlink:href="#sprite1"/>
      <use ffdec:characterId="834" height="13.5" transform="matrix(1.0, 0.0, 0.0, 1.0, 234.25, 66.05)" width="13.5" xlink:href="#sprite1"/>
      <use ffdec:characterId="834" height="13.5" transform="matrix(1.0, 0.0, 0.0, 1.0, 234.25, 106.05)" width="13.5" xlink:href="#sprite1"/>
      <use ffdec:characterId="834" height="13.5" transform="matrix(1.0, 0.0, 0.0, 1.0, 234.25, 146.15)" width="13.5" xlink:href="#sprite1"/>
      <use ffdec:characterId="834" height="13.5" transform="matrix(0.6825, 0.0, 0.0, 0.6825, 176.2016, 67.9016)" width="13.5" xlink:href="#sprite2"/>
      <use ffdec:characterId="834" height="13.5" transform="matrix(0.6825, 0.0, 0.0, 0.6825, 216.0516, 67.9516)" width="13.5" xlink:href="#sprite3"/>
      <use ffdec:characterId="834" height="13.5" transform="matrix(0.6825, 0.0, 0.0, 0.6825, 176.0516, 148.0516)" width="13.5" xlink:href="#sprite4"/>
      <use ffdec:characterId="834" height="13.5" transform="matrix(0.6825, 0.0, 0.0, 0.6825, 216.1016, 147.8016)" width="13.5" xlink:href="#sprite5"/>
      <use ffdec:characterId="834" height="13.5" transform="matrix(0.6825, 0.0, 0.0, 0.6825, 176.2516, 108.0516)" width="13.5" xlink:href="#sprite6"/>
      <use ffdec:characterId="834" height="13.5" transform="matrix(0.6825, 0.0, 0.0, 0.6825, 216.5516, 108.0516)" width="13.5" xlink:href="#sprite7"/>
      <use ffdec:characterId="834" height="13.5" transform="matrix(0.6825, 0.0, 0.0, 0.6825, 216.5516, 88.0516)" width="13.5" xlink:href="#sprite8"/>
      <use ffdec:characterId="834" height="13.5" transform="matrix(0.6825, 0.0, 0.0, 0.6825, 196.5516, 88.0516)" width="13.5" xlink:href="#sprite9"/>
      <use ffdec:characterId="834" height="13.5" transform="matrix(0.6825, 0.0, 0.0, 0.6825, 176.3516, 88.0516)" width="13.5" xlink:href="#sprite10"/>
      <use ffdec:characterId="834" height="13.5" transform="matrix(0.6825, 0.0, 0.0, 0.6825, 236.3516, 88.0516)" width="13.5" xlink:href="#sprite11"/>
      <use ffdec:characterId="834" height="13.5" transform="matrix(0.6825, 0.0, 0.0, 0.6825, 176.4516, 128.2016)" width="13.5" xlink:href="#sprite12"/>
      <use ffdec:characterId="834" height="13.5" transform="matrix(0.6825, 0.0, 0.0, 0.6825, 156.3516, 128.2016)" width="13.5" xlink:href="#sprite13"/>
      <use ffdec:characterId="834" height="13.5" transform="matrix(0.6825, 0.0, 0.0, 0.6825, 216.3516, 128.2016)" width="13.5" xlink:href="#sprite14"/>
      <use ffdec:characterId="834" height="13.5" transform="matrix(0.6825, 0.0, 0.0, 0.6825, 196.2516, 128.2016)" width="13.5" xlink:href="#sprite15"/>
      <use ffdec:characterId="834" height="13.5" transform="matrix(0.6825, 0.0, 0.0, 0.6825, 236.2016, 128.2016)" width="13.5" xlink:href="#sprite16"/>
      <use ffdec:characterId="834" height="13.5" transform="matrix(0.6825, 0.0, 0.0, 0.6825, 156.2516, 88.0516)" width="13.5" xlink:href="#sprite17"/>
    </g>
    <g id="shape0" transform="matrix(1.0, 0.0, 0.0, 1.0, -140.5, -52.5)">
      <path d="M218.8 94.85 L202.85 94.85 202.85 110.8 218.8 110.8 218.8 94.85 M218.8 75.0 L202.85 75.0 202.85 90.95 218.8 90.95 218.8 75.0 M202.75 71.0 L218.7 71.0 218.7 55.05 202.75 55.05 202.75 71.0 M238.65 71.0 L238.65 55.05 222.7 55.05 222.7 71.0 238.65 71.0 M198.85 94.85 L182.9 94.85 182.9 110.8 198.85 110.8 198.85 94.85 M198.85 90.95 L198.85 75.0 182.9 75.0 182.9 90.95 198.85 90.95 M178.95 94.85 L163.0 94.85 163.0 110.8 178.95 110.8 178.95 94.85 M178.95 75.0 L163.0 75.0 163.0 90.95 178.95 90.95 178.95 75.0 M162.9 71.0 L178.85 71.0 178.85 55.05 162.9 55.05 162.9 71.0 M182.8 55.05 L182.8 71.0 198.75 71.0 198.75 55.05 182.8 55.05 M258.6 71.0 L258.6 55.05 242.65 55.05 242.65 71.0 258.6 71.0 M260.6 73.0 L260.7 73.0 260.7 112.8 161.0 112.8 161.0 112.85 260.65 112.85 260.65 132.8 260.75 132.8 260.75 172.6 161.05 172.6 161.05 172.65 141.1 172.65 141.1 132.85 141.0 132.85 141.0 112.9 160.95 112.9 160.95 112.85 141.05 112.85 141.05 73.05 140.95 73.05 140.95 53.1 160.9 53.1 160.9 53.05 180.7 53.05 180.55 53.2 180.55 53.35 180.8 53.1 180.8 53.05 260.6 53.05 260.6 73.0 M258.7 90.95 L258.7 75.0 242.75 75.0 242.75 90.95 258.7 90.95 M238.75 90.95 L238.75 75.0 222.8 75.0 222.8 90.95 238.65 90.95 240.65 92.95 240.75 92.95 238.75 90.95 M143.1 170.65 L159.05 170.65 159.05 154.7 143.1 154.7 143.1 170.65 M161.05 132.85 L161.05 132.8 160.95 132.8 160.95 132.85 161.05 132.85 M159.05 134.85 L143.1 134.85 143.1 150.8 159.05 150.8 159.05 134.85 M158.95 114.9 L143.0 114.9 143.0 130.85 158.95 130.85 158.95 114.9 M159.0 91.0 L159.0 75.05 143.05 75.05 143.05 91.0 159.0 91.0 M159.0 94.9 L143.05 94.9 143.05 110.85 159.0 110.85 159.0 94.9 M158.9 71.05 L158.9 55.1 142.95 55.1 142.95 71.05 158.9 71.05 M161.0 73.0 L160.9 73.0 160.9 73.05 161.0 73.05 161.0 73.0 M242.75 94.85 L242.75 110.8 258.7 110.8 258.7 94.85 242.75 94.85 M242.8 134.8 L242.8 150.75 258.75 150.75 258.75 134.8 242.8 134.8 M202.9 154.65 L202.9 170.6 218.85 170.6 218.85 154.65 202.9 154.65 M222.85 170.6 L238.8 170.6 238.8 154.65 222.85 154.65 222.85 170.6 M242.8 154.65 L242.8 170.6 258.75 170.6 258.75 154.65 242.8 154.65 M163.05 154.65 L163.05 170.6 179.0 170.6 179.0 154.65 163.05 154.65 M182.95 170.6 L198.9 170.6 198.9 154.65 182.95 154.65 182.95 170.6 M198.9 134.8 L182.95 134.8 182.95 150.75 198.9 150.75 198.9 134.8 M179.0 134.8 L163.05 134.8 163.05 150.75 179.0 150.75 179.0 134.8 M178.9 114.85 L162.95 114.85 162.95 130.8 178.9 130.8 178.9 114.85 M198.8 114.85 L182.85 114.85 182.85 130.8 198.8 130.8 198.8 114.85 M242.7 114.85 L242.7 130.8 258.65 130.8 258.65 114.85 242.7 114.85 M238.8 134.8 L222.85 134.8 222.85 150.75 238.8 150.75 238.8 134.8 M218.85 134.8 L202.9 134.8 202.9 150.75 218.85 150.75 218.85 134.8 M218.75 114.85 L202.8 114.85 202.8 130.8 218.75 130.8 218.75 114.85 M238.7 114.85 L222.75 114.85 222.75 130.8 238.7 130.8 238.7 114.85 M238.75 94.85 L222.8 94.85 222.8 110.8 238.75 110.8 238.75 94.85" fill="url(#gradient0)" fill-rule="evenodd" stroke="none"/>
      <path d="M141.0 172.7 L160.6 172.7 160.6 153.1 141.0 153.1 141.0 172.7 M160.6 133.1 L141.0 133.1 141.0 152.6 160.6 152.6 160.6 133.1 M160.6 132.6 L160.6 113.1 141.0 113.1 141.0 132.6 160.6 132.6 M141.0 92.6 L160.6 92.6 160.6 73.0 141.0 73.0 141.0 92.6 M160.6 93.1 L141.0 93.1 141.0 112.6 160.6 112.6 160.6 93.1 M160.6 72.5 L160.6 53.0 141.0 53.0 141.0 72.5 160.6 72.5 M260.7 93.1 L241.2 93.1 241.2 112.6 260.7 112.6 260.7 93.1 M180.6 112.6 L180.6 93.1 161.1 93.1 161.1 112.6 180.6 112.6 M180.6 152.6 L180.6 133.1 161.1 133.1 161.1 152.6 180.6 152.6 M241.2 133.1 L241.2 152.6 260.7 152.6 260.7 133.1 241.2 133.1 M201.1 152.6 L220.6 152.6 220.6 133.1 201.1 133.1 201.1 152.6 M241.2 153.1 L241.2 172.7 260.7 172.7 260.7 153.1 241.2 153.1 M240.7 153.1 L221.1 153.1 221.1 172.7 240.7 172.7 240.7 153.1 M200.6 153.1 L181.1 153.1 181.1 172.7 200.6 172.7 200.6 153.1 M201.1 153.1 L201.1 172.7 220.6 172.7 220.6 153.1 201.1 153.1 M180.6 172.7 L180.6 153.1 161.1 153.1 161.1 172.7 180.6 172.7 M180.6 132.6 L180.6 113.1 161.1 113.1 161.1 132.6 180.6 132.6 M200.6 133.1 L181.1 133.1 181.1 152.6 200.6 152.6 200.6 133.1 M200.6 113.1 L181.1 113.1 181.1 132.6 200.6 132.6 200.6 113.1 M241.2 113.1 L241.2 132.6 260.7 132.6 260.7 113.1 241.2 113.1 M220.6 132.6 L220.6 113.1 201.1 113.1 201.1 132.6 220.6 132.6 M240.7 133.1 L221.1 133.1 221.1 152.6 240.7 152.6 240.7 133.1 M240.7 113.1 L221.1 113.1 221.1 132.6 240.7 132.6 240.7 113.1 M220.6 93.1 L201.1 93.1 201.1 112.6 220.6 112.6 220.6 93.1 M240.7 93.1 L221.1 93.1 221.1 112.6 240.7 112.6 240.7 93.1 M221.1 73.0 L221.1 92.6 240.7 92.6 240.7 73.0 221.1 73.0 M240.7 72.5 L240.7 53.0 221.1 53.0 221.1 72.5 240.7 72.5 M181.1 73.0 L181.1 92.6 200.6 92.6 200.6 73.0 181.1 73.0 M201.1 73.0 L201.1 92.6 220.6 92.6 220.6 73.0 201.1 73.0 M200.6 93.1 L181.1 93.1 181.1 112.6 200.6 112.6 200.6 93.1 M180.6 92.6 L180.6 73.0 161.1 73.0 161.1 92.6 180.6 92.6 M180.6 72.5 L180.6 53.0 161.1 53.0 161.1 72.5 180.6 72.5 M200.6 72.5 L200.6 53.0 181.1 53.0 181.1 72.5 200.6 72.5 M201.1 53.0 L201.1 72.5 220.6 72.5 220.6 53.0 201.1 53.0 M260.7 72.5 L260.7 53.0 241.2 53.0 241.2 72.5 260.7 72.5 M260.7 92.6 L260.7 73.0 241.2 73.0 241.2 92.6 260.7 92.6 M260.95 52.5 L261.15 52.6 261.2 52.75 261.2 172.95 261.15 173.15 260.95 173.2 140.75 173.2 140.6 173.15 140.5 172.95 140.5 52.75 140.6 52.6 Q140.65 52.5 140.75 52.5 L260.95 52.5" fill="url(#gradient1)" fill-rule="evenodd" stroke="none"/>
    </g>
    <radialGradient cx="0" cy="0" gradientTransform="matrix(0.0719, 0.0, 0.0, 0.0719, 200.75, 112.4)" gradientUnits="userSpaceOnUse" id="gradient0" r="819.2" spreadMethod="pad">
      <stop offset="0.0" stop-color="#0067db"/>
      <stop offset="1.0" stop-color="#0067db" stop-opacity="0.0"/>
    </radialGradient>
    <radialGradient cx="0" cy="0" gradientTransform="matrix(0.073, 0.0, 0.0, 0.073, 200.85, 112.85)" gradientUnits="userSpaceOnUse" id="gradient1" r="819.2" spreadMethod="pad">
      <stop offset="0.0" stop-color="#33c0ff"/>
      <stop offset="1.0" stop-color="#33c0ff" stop-opacity="0.0"/>
    </radialGradient>
    <g id="sprite1" transform="matrix(1.0, 0.0, 0.0, 1.0, 4.1, 4.1)">
      <use ffdec:characterId="381" height="13.5" transform="matrix(1.0, 0.0, 0.0, 1.0, -4.1, -4.1)" width="13.5" xlink:href="#shape1"/>
    </g>
    <g id="shape1" transform="matrix(1.0, 0.0, 0.0, 1.0, 4.1, 4.1)">
      <path d="M2.6 2.7 L8.9 2.7" fill="none" stroke="url(#gradient2)" stroke-linecap="round" stroke-linejoin="round" stroke-width="1.0"/>
      <path d="M2.6 2.7 L2.6 8.9 M2.6 -3.6 L2.6 2.7 -3.6 2.7" fill="none" stroke="url(#gradient3)" stroke-linecap="round" stroke-linejoin="round" stroke-width="1.0"/>
    </g>
    <radialGradient cx="0" cy="0" fx="3.2" fy="0" gradientTransform="matrix(0.0082, 0.0, 0.0, 0.0082, 2.65, 2.65)" gradientUnits="userSpaceOnUse" id="gradient2" r="819.2" spreadMethod="pad">
      <stop offset="0.0" stop-color="#72e2ff"/>
      <stop offset="1.0" stop-color="#72e2ff" stop-opacity="0.0"/>
    </radialGradient>
    <radialGradient cx="0" cy="0" fx="3.2" fy="0" gradientTransform="matrix(0.0082, 0.0, 0.0, 0.0082, 2.65, 2.65)" gradientUnits="userSpaceOnUse" id="gradient3" r="819.2" spreadMethod="pad">
      <stop offset="0.0" stop-color="#72e2ff"/>
      <stop offset="1.0" stop-color="#72e2ff" stop-opacity="0.0"/>
    </radialGradient>
    <g id="sprite2" transform="matrix(1.0, 0.0, 0.0, 1.0, 4.1, 4.1)">
      <use ffdec:characterId="381" height="13.5" transform="matrix(1.0, 0.0, 0.0, 1.0, -4.1, -4.1)" width="13.5" xlink:href="#shape2"/>
    </g>
    <g id="shape2" transform="matrix(1.0, 0.0, 0.0, 1.0, 4.1, 4.1)">
      <path d="M2.6 2.7 L8.9 2.7" ffdec:has-small-stroke="true" ffdec:original-stroke-width="1.0" fill="none" stroke="url(#gradient4)" stroke-linecap="round" stroke-linejoin="round" stroke-width="1.1756644353939654"/>
      <path d="M2.6 2.7 L2.6 8.9 M2.6 -3.6 L2.6 2.7 -3.6 2.7" ffdec:has-small-stroke="true" ffdec:original-stroke-width="1.0" fill="none" stroke="url(#gradient5)" stroke-linecap="round" stroke-linejoin="round" stroke-width="1.1756644353939654"/>
    </g>
    <radialGradient cx="0" cy="0" fx="3.2" fy="0" gradientTransform="matrix(0.0082, 0.0, 0.0, 0.0082, 2.65, 2.65)" gradientUnits="userSpaceOnUse" id="gradient4" r="819.2" spreadMethod="pad">
      <stop offset="0.0" stop-color="#72e2ff"/>
      <stop offset="1.0" stop-color="#72e2ff" stop-opacity="0.0"/>
    </radialGradient>
    <radialGradient cx="0" cy="0" fx="3.2" fy="0" gradientTransform="matrix(0.0082, 0.0, 0.0, 0.0082, 2.65, 2.65)" gradientUnits="userSpaceOnUse" id="gradient5" r="819.2" spreadMethod="pad">
      <stop offset="0.0" stop-color="#72e2ff"/>
      <stop offset="1.0" stop-color="#72e2ff" stop-opacity="0.0"/>
    </radialGradient>
    <g id="sprite3" transform="matrix(1.0, 0.0, 0.0, 1.0, 4.1, 4.1)">
      <use ffdec:characterId="381" height="13.5" transform="matrix(1.0, 0.0, 0.0, 1.0, -4.1, -4.1)" width="13.5" xlink:href="#shape3"/>
    </g>
    <g id="shape3" transform="matrix(1.0, 0.0, 0.0, 1.0, 4.1, 4.1)">
      <path d="M2.6 2.7 L8.9 2.7" ffdec:has-small-stroke="true" ffdec:original-stroke-width="1.0" fill="none" stroke="url(#gradient6)" stroke-linecap="round" stroke-linejoin="round" stroke-width="1.1756644353939654"/>
      <path d="M2.6 2.7 L2.6 8.9 M2.6 -3.6 L2.6 2.7 -3.6 2.7" ffdec:has-small-stroke="true" ffdec:original-stroke-width="1.0" fill="none" stroke="url(#gradient7)" stroke-linecap="round" stroke-linejoin="round" stroke-width="1.1756644353939654"/>
    </g>
    <radialGradient cx="0" cy="0" fx="3.2" fy="0" gradientTransform="matrix(0.0082, 0.0, 0.0, 0.0082, 2.65, 2.65)" gradientUnits="userSpaceOnUse" id="gradient6" r="819.2" spreadMethod="pad">
      <stop offset="0.0" stop-color="#72e2ff"/>
      <stop offset="1.0" stop-color="#72e2ff" stop-opacity="0.0"/>
    </radialGradient>
    <radialGradient cx="0" cy="0" fx="3.2" fy="0" gradientTransform="matrix(0.0082, 0.0, 0.0, 0.0082, 2.65, 2.65)" gradientUnits="userSpaceOnUse" id="gradient7" r="819.2" spreadMethod="pad">
      <stop offset="0.0" stop-color="#72e2ff"/>
      <stop offset="1.0" stop-color="#72e2ff" stop-opacity="0.0"/>
    </radialGradient>
    <g id="sprite4" transform="matrix(1.0, 0.0, 0.0, 1.0, 4.1, 4.1)">
      <use ffdec:characterId="381" height="13.5" transform="matrix(1.0, 0.0, 0.0, 1.0, -4.1, -4.1)" width="13.5" xlink:href="#shape4"/>
    </g>
    <g id="shape4" transform="matrix(1.0, 0.0, 0.0, 1.0, 4.1, 4.1)">
      <path d="M2.6 2.7 L8.9 2.7" ffdec:has-small-stroke="true" ffdec:original-stroke-width="1.0" fill="none" stroke="url(#gradient8)" stroke-linecap="round" stroke-linejoin="round" stroke-width="1.1756644353939654"/>
      <path d="M2.6 2.7 L2.6 8.9 M2.6 -3.6 L2.6 2.7 -3.6 2.7" ffdec:has-small-stroke="true" ffdec:original-stroke-width="1.0" fill="none" stroke="url(#gradient9)" stroke-linecap="round" stroke-linejoin="round" stroke-width="1.1756644353939654"/>
    </g>
    <radialGradient cx="0" cy="0" fx="3.2" fy="0" gradientTransform="matrix(0.0082, 0.0, 0.0, 0.0082, 2.65, 2.65)" gradientUnits="userSpaceOnUse" id="gradient8" r="819.2" spreadMethod="pad">
      <stop offset="0.0" stop-color="#72e2ff"/>
      <stop offset="1.0" stop-color="#72e2ff" stop-opacity="0.0"/>
    </radialGradient>
    <radialGradient cx="0" cy="0" fx="3.2" fy="0" gradientTransform="matrix(0.0082, 0.0, 0.0, 0.0082, 2.65, 2.65)" gradientUnits="userSpaceOnUse" id="gradient9" r="819.2" spreadMethod="pad">
      <stop offset="0.0" stop-color="#72e2ff"/>
      <stop offset="1.0" stop-color="#72e2ff" stop-opacity="0.0"/>
    </radialGradient>
    <g id="sprite5" transform="matrix(1.0, 0.0, 0.0, 1.0, 4.1, 4.1)">
      <use ffdec:characterId="381" height="13.5" transform="matrix(1.0, 0.0, 0.0, 1.0, -4.1, -4.1)" width="13.5" xlink:href="#shape5"/>
    </g>
    <g id="shape5" transform="matrix(1.0, 0.0, 0.0, 1.0, 4.1, 4.1)">
      <path d="M2.6 2.7 L8.9 2.7" ffdec:has-small-stroke="true" ffdec:original-stroke-width="1.0" fill="none" stroke="url(#gradient10)" stroke-linecap="round" stroke-linejoin="round" stroke-width="1.1756644353939654"/>
      <path d="M2.6 2.7 L2.6 8.9 M2.6 -3.6 L2.6 2.7 -3.6 2.7" ffdec:has-small-stroke="true" ffdec:original-stroke-width="1.0" fill="none" stroke="url(#gradient11)" stroke-linecap="round" stroke-linejoin="round" stroke-width="1.1756644353939654"/>
    </g>
    <radialGradient cx="0" cy="0" fx="3.2" fy="0" gradientTransform="matrix(0.0082, 0.0, 0.0, 0.0082, 2.65, 2.65)" gradientUnits="userSpaceOnUse" id="gradient10" r="819.2" spreadMethod="pad">
      <stop offset="0.0" stop-color="#72e2ff"/>
      <stop offset="1.0" stop-color="#72e2ff" stop-opacity="0.0"/>
    </radialGradient>
    <radialGradient cx="0" cy="0" fx="3.2" fy="0" gradientTransform="matrix(0.0082, 0.0, 0.0, 0.0082, 2.65, 2.65)" gradientUnits="userSpaceOnUse" id="gradient11" r="819.2" spreadMethod="pad">
      <stop offset="0.0" stop-color="#72e2ff"/>
      <stop offset="1.0" stop-color="#72e2ff" stop-opacity="0.0"/>
    </radialGradient>
    <g id="sprite6" transform="matrix(1.0, 0.0, 0.0, 1.0, 4.1, 4.1)">
      <use ffdec:characterId="381" height="13.5" transform="matrix(1.0, 0.0, 0.0, 1.0, -4.1, -4.1)" width="13.5" xlink:href="#shape6"/>
    </g>
    <g id="shape6" transform="matrix(1.0, 0.0, 0.0, 1.0, 4.1, 4.1)">
      <path d="M2.6 2.7 L8.9 2.7" ffdec:has-small-stroke="true" ffdec:original-stroke-width="1.0" fill="none" stroke="url(#gradient12)" stroke-linecap="round" stroke-linejoin="round" stroke-width="1.1756644353939654"/>
      <path d="M2.6 2.7 L2.6 8.9 M2.6 -3.6 L2.6 2.7 -3.6 2.7" ffdec:has-small-stroke="true" ffdec:original-stroke-width="1.0" fill="none" stroke="url(#gradient13)" stroke-linecap="round" stroke-linejoin="round" stroke-width="1.1756644353939654"/>
    </g>
    <radialGradient cx="0" cy="0" fx="3.2" fy="0" gradientTransform="matrix(0.0082, 0.0, 0.0, 0.0082, 2.65, 2.65)" gradientUnits="userSpaceOnUse" id="gradient12" r="819.2" spreadMethod="pad">
      <stop offset="0.0" stop-color="#72e2ff"/>
      <stop offset="1.0" stop-color="#72e2ff" stop-opacity="0.0"/>
    </radialGradient>
    <radialGradient cx="0" cy="0" fx="3.2" fy="0" gradientTransform="matrix(0.0082, 0.0, 0.0, 0.0082, 2.65, 2.65)" gradientUnits="userSpaceOnUse" id="gradient13" r="819.2" spreadMethod="pad">
      <stop offset="0.0" stop-color="#72e2ff"/>
      <stop offset="1.0" stop-color="#72e2ff" stop-opacity="0.0"/>
    </radialGradient>
    <g id="sprite7" transform="matrix(1.0, 0.0, 0.0, 1.0, 4.1, 4.1)">
      <use ffdec:characterId="381" height="13.5" transform="matrix(1.0, 0.0, 0.0, 1.0, -4.1, -4.1)" width="13.5" xlink:href="#shape7"/>
    </g>
    <g id="shape7" transform="matrix(1.0, 0.0, 0.0, 1.0, 4.1, 4.1)">
      <path d="M2.6 2.7 L8.9 2.7" ffdec:has-small-stroke="true" ffdec:original-stroke-width="1.0" fill="none" stroke="url(#gradient14)" stroke-linecap="round" stroke-linejoin="round" stroke-width="1.1756644353939654"/>
      <path d="M2.6 2.7 L2.6 8.9 M2.6 -3.6 L2.6 2.7 -3.6 2.7" ffdec:has-small-stroke="true" ffdec:original-stroke-width="1.0" fill="none" stroke="url(#gradient15)" stroke-linecap="round" stroke-linejoin="round" stroke-width="1.1756644353939654"/>
    </g>
    <radialGradient cx="0" cy="0" fx="3.2" fy="0" gradientTransform="matrix(0.0082, 0.0, 0.0, 0.0082, 2.65, 2.65)" gradientUnits="userSpaceOnUse" id="gradient14" r="819.2" spreadMethod="pad">
      <stop offset="0.0" stop-color="#72e2ff"/>
      <stop offset="1.0" stop-color="#72e2ff" stop-opacity="0.0"/>
    </radialGradient>
    <radialGradient cx="0" cy="0" fx="3.2" fy="0" gradientTransform="matrix(0.0082, 0.0, 0.0, 0.0082, 2.65, 2.65)" gradientUnits="userSpaceOnUse" id="gradient15" r="819.2" spreadMethod="pad">
      <stop offset="0.0" stop-color="#72e2ff"/>
      <stop offset="1.0" stop-color="#72e2ff" stop-opacity="0.0"/>
    </radialGradient>
    <g id="sprite8" transform="matrix(1.0, 0.0, 0.0, 1.0, 4.1, 4.1)">
      <use ffdec:characterId="381" height="13.5" transform="matrix(1.0, 0.0, 0.0, 1.0, -4.1, -4.1)" width="13.5" xlink:href="#shape8"/>
    </g>
    <g id="shape8" transform="matrix(1.0, 0.0, 0.0, 1.0, 4.1, 4.1)">
      <path d="M2.6 2.7 L8.9 2.7" ffdec:has-small-stroke="true" ffdec:original-stroke-width="1.0" fill="none" stroke="url(#gradient16)" stroke-linecap="round" stroke-linejoin="round" stroke-width="1.1756644353939654"/>
      <path d="M2.6 2.7 L2.6 8.9 M2.6 -3.6 L2.6 2.7 -3.6 2.7" ffdec:has-small-stroke="true" ffdec:original-stroke-width="1.0" fill="none" stroke="url(#gradient17)" stroke-linecap="round" stroke-linejoin="round" stroke-width="1.1756644353939654"/>
    </g>
    <radialGradient cx="0" cy="0" fx="3.2" fy="0" gradientTransform="matrix(0.0082, 0.0, 0.0, 0.0082, 2.65, 2.65)" gradientUnits="userSpaceOnUse" id="gradient16" r="819.2" spreadMethod="pad">
      <stop offset="0.0" stop-color="#72e2ff"/>
      <stop offset="1.0" stop-color="#72e2ff" stop-opacity="0.0"/>
    </radialGradient>
    <radialGradient cx="0" cy="0" fx="3.2" fy="0" gradientTransform="matrix(0.0082, 0.0, 0.0, 0.0082, 2.65, 2.65)" gradientUnits="userSpaceOnUse" id="gradient17" r="819.2" spreadMethod="pad">
      <stop offset="0.0" stop-color="#72e2ff"/>
      <stop offset="1.0" stop-color="#72e2ff" stop-opacity="0.0"/>
    </radialGradient>
    <g id="sprite9" transform="matrix(1.0, 0.0, 0.0, 1.0, 4.1, 4.1)">
      <use ffdec:characterId="381" height="13.5" transform="matrix(1.0, 0.0, 0.0, 1.0, -4.1, -4.1)" width="13.5" xlink:href="#shape9"/>
    </g>
    <g id="shape9" transform="matrix(1.0, 0.0, 0.0, 1.0, 4.1, 4.1)">
      <path d="M2.6 2.7 L8.9 2.7" ffdec:has-small-stroke="true" ffdec:original-stroke-width="1.0" fill="none" stroke="url(#gradient18)" stroke-linecap="round" stroke-linejoin="round" stroke-width="1.1756644353939654"/>
      <path d="M2.6 2.7 L2.6 8.9 M2.6 -3.6 L2.6 2.7 -3.6 2.7" ffdec:has-small-stroke="true" ffdec:original-stroke-width="1.0" fill="none" stroke="url(#gradient19)" stroke-linecap="round" stroke-linejoin="round" stroke-width="1.1756644353939654"/>
    </g>
    <radialGradient cx="0" cy="0" fx="3.2" fy="0" gradientTransform="matrix(0.0082, 0.0, 0.0, 0.0082, 2.65, 2.65)" gradientUnits="userSpaceOnUse" id="gradient18" r="819.2" spreadMethod="pad">
      <stop offset="0.0" stop-color="#72e2ff"/>
      <stop offset="1.0" stop-color="#72e2ff" stop-opacity="0.0"/>
    </radialGradient>
    <radialGradient cx="0" cy="0" fx="3.2" fy="0" gradientTransform="matrix(0.0082, 0.0, 0.0, 0.0082, 2.65, 2.65)" gradientUnits="userSpaceOnUse" id="gradient19" r="819.2" spreadMethod="pad">
      <stop offset="0.0" stop-color="#72e2ff"/>
      <stop offset="1.0" stop-color="#72e2ff" stop-opacity="0.0"/>
    </radialGradient>
    <g id="sprite10" transform="matrix(1.0, 0.0, 0.0, 1.0, 4.1, 4.1)">
      <use ffdec:characterId="381" height="13.5" transform="matrix(1.0, 0.0, 0.0, 1.0, -4.1, -4.1)" width="13.5" xlink:href="#shape10"/>
    </g>
    <g id="shape10" transform="matrix(1.0, 0.0, 0.0, 1.0, 4.1, 4.1)">
      <path d="M2.6 2.7 L8.9 2.7" ffdec:has-small-stroke="true" ffdec:original-stroke-width="1.0" fill="none" stroke="url(#gradient20)" stroke-linecap="round" stroke-linejoin="round" stroke-width="1.1756644353939654"/>
      <path d="M2.6 2.7 L2.6 8.9 M2.6 -3.6 L2.6 2.7 -3.6 2.7" ffdec:has-small-stroke="true" ffdec:original-stroke-width="1.0" fill="none" stroke="url(#gradient21)" stroke-linecap="round" stroke-linejoin="round" stroke-width="1.1756644353939654"/>
    </g>
    <radialGradient cx="0" cy="0" fx="3.2" fy="0" gradientTransform="matrix(0.0082, 0.0, 0.0, 0.0082, 2.65, 2.65)" gradientUnits="userSpaceOnUse" id="gradient20" r="819.2" spreadMethod="pad">
      <stop offset="0.0" stop-color="#72e2ff"/>
      <stop offset="1.0" stop-color="#72e2ff" stop-opacity="0.0"/>
    </radialGradient>
    <radialGradient cx="0" cy="0" fx="3.2" fy="0" gradientTransform="matrix(0.0082, 0.0, 0.0, 0.0082, 2.65, 2.65)" gradientUnits="userSpaceOnUse" id="gradient21" r="819.2" spreadMethod="pad">
      <stop offset="0.0" stop-color="#72e2ff"/>
      <stop offset="1.0" stop-color="#72e2ff" stop-opacity="0.0"/>
    </radialGradient>
    <g id="sprite11" transform="matrix(1.0, 0.0, 0.0, 1.0, 4.1, 4.1)">
      <use ffdec:characterId="381" height="13.5" transform="matrix(1.0, 0.0, 0.0, 1.0, -4.1, -4.1)" width="13.5" xlink:href="#shape11"/>
    </g>
    <g id="shape11" transform="matrix(1.0, 0.0, 0.0, 1.0, 4.1, 4.1)">
      <path d="M2.6 2.7 L8.9 2.7" ffdec:has-small-stroke="true" ffdec:original-stroke-width="1.0" fill="none" stroke="url(#gradient22)" stroke-linecap="round" stroke-linejoin="round" stroke-width="1.1756644353939654"/>
      <path d="M2.6 2.7 L2.6 8.9 M2.6 -3.6 L2.6 2.7 -3.6 2.7" ffdec:has-small-stroke="true" ffdec:original-stroke-width="1.0" fill="none" stroke="url(#gradient23)" stroke-linecap="round" stroke-linejoin="round" stroke-width="1.1756644353939654"/>
    </g>
    <radialGradient cx="0" cy="0" fx="3.2" fy="0" gradientTransform="matrix(0.0082, 0.0, 0.0, 0.0082, 2.65, 2.65)" gradientUnits="userSpaceOnUse" id="gradient22" r="819.2" spreadMethod="pad">
      <stop offset="0.0" stop-color="#72e2ff"/>
      <stop offset="1.0" stop-color="#72e2ff" stop-opacity="0.0"/>
    </radialGradient>
    <radialGradient cx="0" cy="0" fx="3.2" fy="0" gradientTransform="matrix(0.0082, 0.0, 0.0, 0.0082, 2.65, 2.65)" gradientUnits="userSpaceOnUse" id="gradient23" r="819.2" spreadMethod="pad">
      <stop offset="0.0" stop-color="#72e2ff"/>
      <stop offset="1.0" stop-color="#72e2ff" stop-opacity="0.0"/>
    </radialGradient>
    <g id="sprite12" transform="matrix(1.0, 0.0, 0.0, 1.0, 4.1, 4.1)">
      <use ffdec:characterId="381" height="13.5" transform="matrix(1.0, 0.0, 0.0, 1.0, -4.1, -4.1)" width="13.5" xlink:href="#shape12"/>
    </g>
    <g id="shape12" transform="matrix(1.0, 0.0, 0.0, 1.0, 4.1, 4.1)">
      <path d="M2.6 2.7 L8.9 2.7" ffdec:has-small-stroke="true" ffdec:original-stroke-width="1.0" fill="none" stroke="url(#gradient24)" stroke-linecap="round" stroke-linejoin="round" stroke-width="1.1756644353939654"/>
      <path d="M2.6 2.7 L2.6 8.9 M2.6 -3.6 L2.6 2.7 -3.6 2.7" ffdec:has-small-stroke="true" ffdec:original-stroke-width="1.0" fill="none" stroke="url(#gradient25)" stroke-linecap="round" stroke-linejoin="round" stroke-width="1.1756644353939654"/>
    </g>
    <radialGradient cx="0" cy="0" fx="3.2" fy="0" gradientTransform="matrix(0.0082, 0.0, 0.0, 0.0082, 2.65, 2.65)" gradientUnits="userSpaceOnUse" id="gradient24" r="819.2" spreadMethod="pad">
      <stop offset="0.0" stop-color="#72e2ff"/>
      <stop offset="1.0" stop-color="#72e2ff" stop-opacity="0.0"/>
    </radialGradient>
    <radialGradient cx="0" cy="0" fx="3.2" fy="0" gradientTransform="matrix(0.0082, 0.0, 0.0, 0.0082, 2.65, 2.65)" gradientUnits="userSpaceOnUse" id="gradient25" r="819.2" spreadMethod="pad">
      <stop offset="0.0" stop-color="#72e2ff"/>
      <stop offset="1.0" stop-color="#72e2ff" stop-opacity="0.0"/>
    </radialGradient>
    <g id="sprite13" transform="matrix(1.0, 0.0, 0.0, 1.0, 4.1, 4.1)">
      <use ffdec:characterId="381" height="13.5" transform="matrix(1.0, 0.0, 0.0, 1.0, -4.1, -4.1)" width="13.5" xlink:href="#shape13"/>
    </g>
    <g id="shape13" transform="matrix(1.0, 0.0, 0.0, 1.0, 4.1, 4.1)">
      <path d="M2.6 2.7 L8.9 2.7" ffdec:has-small-stroke="true" ffdec:original-stroke-width="1.0" fill="none" stroke="url(#gradient26)" stroke-linecap="round" stroke-linejoin="round" stroke-width="1.1756644353939654"/>
      <path d="M2.6 2.7 L2.6 8.9 M2.6 -3.6 L2.6 2.7 -3.6 2.7" ffdec:has-small-stroke="true" ffdec:original-stroke-width="1.0" fill="none" stroke="url(#gradient27)" stroke-linecap="round" stroke-linejoin="round" stroke-width="1.1756644353939654"/>
    </g>
    <radialGradient cx="0" cy="0" fx="3.2" fy="0" gradientTransform="matrix(0.0082, 0.0, 0.0, 0.0082, 2.65, 2.65)" gradientUnits="userSpaceOnUse" id="gradient26" r="819.2" spreadMethod="pad">
      <stop offset="0.0" stop-color="#72e2ff"/>
      <stop offset="1.0" stop-color="#72e2ff" stop-opacity="0.0"/>
    </radialGradient>
    <radialGradient cx="0" cy="0" fx="3.2" fy="0" gradientTransform="matrix(0.0082, 0.0, 0.0, 0.0082, 2.65, 2.65)" gradientUnits="userSpaceOnUse" id="gradient27" r="819.2" spreadMethod="pad">
      <stop offset="0.0" stop-color="#72e2ff"/>
      <stop offset="1.0" stop-color="#72e2ff" stop-opacity="0.0"/>
    </radialGradient>
    <g id="sprite14" transform="matrix(1.0, 0.0, 0.0, 1.0, 4.1, 4.1)">
      <use ffdec:characterId="381" height="13.5" transform="matrix(1.0, 0.0, 0.0, 1.0, -4.1, -4.1)" width="13.5" xlink:href="#shape14"/>
    </g>
    <g id="shape14" transform="matrix(1.0, 0.0, 0.0, 1.0, 4.1, 4.1)">
      <path d="M2.6 2.7 L8.9 2.7" ffdec:has-small-stroke="true" ffdec:original-stroke-width="1.0" fill="none" stroke="url(#gradient28)" stroke-linecap="round" stroke-linejoin="round" stroke-width="1.1756644353939654"/>
      <path d="M2.6 2.7 L2.6 8.9 M2.6 -3.6 L2.6 2.7 -3.6 2.7" ffdec:has-small-stroke="true" ffdec:original-stroke-width="1.0" fill="none" stroke="url(#gradient29)" stroke-linecap="round" stroke-linejoin="round" stroke-width="1.1756644353939654"/>
    </g>
    <radialGradient cx="0" cy="0" fx="3.2" fy="0" gradientTransform="matrix(0.0082, 0.0, 0.0, 0.0082, 2.65, 2.65)" gradientUnits="userSpaceOnUse" id="gradient28" r="819.2" spreadMethod="pad">
      <stop offset="0.0" stop-color="#72e2ff"/>
      <stop offset="1.0" stop-color="#72e2ff" stop-opacity="0.0"/>
    </radialGradient>
    <radialGradient cx="0" cy="0" fx="3.2" fy="0" gradientTransform="matrix(0.0082, 0.0, 0.0, 0.0082, 2.65, 2.65)" gradientUnits="userSpaceOnUse" id="gradient29" r="819.2" spreadMethod="pad">
      <stop offset="0.0" stop-color="#72e2ff"/>
      <stop offset="1.0" stop-color="#72e2ff" stop-opacity="0.0"/>
    </radialGradient>
    <g id="sprite15" transform="matrix(1.0, 0.0, 0.0, 1.0, 4.1, 4.1)">
      <use ffdec:characterId="381" height="13.5" transform="matrix(1.0, 0.0, 0.0, 1.0, -4.1, -4.1)" width="13.5" xlink:href="#shape15"/>
    </g>
    <g id="shape15" transform="matrix(1.0, 0.0, 0.0, 1.0, 4.1, 4.1)">
      <path d="M2.6 2.7 L8.9 2.7" ffdec:has-small-stroke="true" ffdec:original-stroke-width="1.0" fill="none" stroke="url(#gradient30)" stroke-linecap="round" stroke-linejoin="round" stroke-width="1.1756644353939654"/>
      <path d="M2.6 2.7 L2.6 8.9 M2.6 -3.6 L2.6 2.7 -3.6 2.7" ffdec:has-small-stroke="true" ffdec:original-stroke-width="1.0" fill="none" stroke="url(#gradient31)" stroke-linecap="round" stroke-linejoin="round" stroke-width="1.1756644353939654"/>
    </g>
    <radialGradient cx="0" cy="0" fx="3.2" fy="0" gradientTransform="matrix(0.0082, 0.0, 0.0, 0.0082, 2.65, 2.65)" gradientUnits="userSpaceOnUse" id="gradient30" r="819.2" spreadMethod="pad">
      <stop offset="0.0" stop-color="#72e2ff"/>
      <stop offset="1.0" stop-color="#72e2ff" stop-opacity="0.0"/>
    </radialGradient>
    <radialGradient cx="0" cy="0" fx="3.2" fy="0" gradientTransform="matrix(0.0082, 0.0, 0.0, 0.0082, 2.65, 2.65)" gradientUnits="userSpaceOnUse" id="gradient31" r="819.2" spreadMethod="pad">
      <stop offset="0.0" stop-color="#72e2ff"/>
      <stop offset="1.0" stop-color="#72e2ff" stop-opacity="0.0"/>
    </radialGradient>
    <g id="sprite16" transform="matrix(1.0, 0.0, 0.0, 1.0, 4.1, 4.1)">
      <use ffdec:characterId="381" height="13.5" transform="matrix(1.0, 0.0, 0.0, 1.0, -4.1, -4.1)" width="13.5" xlink:href="#shape16"/>
    </g>
    <g id="shape16" transform="matrix(1.0, 0.0, 0.0, 1.0, 4.1, 4.1)">
      <path d="M2.6 2.7 L8.9 2.7" ffdec:has-small-stroke="true" ffdec:original-stroke-width="1.0" fill="none" stroke="url(#gradient32)" stroke-linecap="round" stroke-linejoin="round" stroke-width="1.1756644353939654"/>
      <path d="M2.6 2.7 L2.6 8.9 M2.6 -3.6 L2.6 2.7 -3.6 2.7" ffdec:has-small-stroke="true" ffdec:original-stroke-width="1.0" fill="none" stroke="url(#gradient33)" stroke-linecap="round" stroke-linejoin="round" stroke-width="1.1756644353939654"/>
    </g>
    <radialGradient cx="0" cy="0" fx="3.2" fy="0" gradientTransform="matrix(0.0082, 0.0, 0.0, 0.0082, 2.65, 2.65)" gradientUnits="userSpaceOnUse" id="gradient32" r="819.2" spreadMethod="pad">
      <stop offset="0.0" stop-color="#72e2ff"/>
      <stop offset="1.0" stop-color="#72e2ff" stop-opacity="0.0"/>
    </radialGradient>
    <radialGradient cx="0" cy="0" fx="3.2" fy="0" gradientTransform="matrix(0.0082, 0.0, 0.0, 0.0082, 2.65, 2.65)" gradientUnits="userSpaceOnUse" id="gradient33" r="819.2" spreadMethod="pad">
      <stop offset="0.0" stop-color="#72e2ff"/>
      <stop offset="1.0" stop-color="#72e2ff" stop-opacity="0.0"/>
    </radialGradient>
    <g id="sprite17" transform="matrix(1.0, 0.0, 0.0, 1.0, 4.1, 4.1)">
      <use ffdec:characterId="381" height="13.5" transform="matrix(1.0, 0.0, 0.0, 1.0, -4.1, -4.1)" width="13.5" xlink:href="#shape17"/>
    </g>
    <g id="shape17" transform="matrix(1.0, 0.0, 0.0, 1.0, 4.1, 4.1)">
      <path d="M2.6 2.7 L8.9 2.7" ffdec:has-small-stroke="true" ffdec:original-stroke-width="1.0" fill="none" stroke="url(#gradient34)" stroke-linecap="round" stroke-linejoin="round" stroke-width="1.1756644353939654"/>
      <path d="M2.6 2.7 L2.6 8.9 M2.6 -3.6 L2.6 2.7 -3.6 2.7" ffdec:has-small-stroke="true" ffdec:original-stroke-width="1.0" fill="none" stroke="url(#gradient35)" stroke-linecap="round" stroke-linejoin="round" stroke-width="1.1756644353939654"/>
    </g>
    <radialGradient cx="0" cy="0" fx="3.2" fy="0" gradientTransform="matrix(0.0082, 0.0, 0.0, 0.0082, 2.65, 2.65)" gradientUnits="userSpaceOnUse" id="gradient34" r="819.2" spreadMethod="pad">
      <stop offset="0.0" stop-color="#72e2ff"/>
      <stop offset="1.0" stop-color="#72e2ff" stop-opacity="0.0"/>
    </radialGradient>
    <radialGradient cx="0" cy="0" fx="3.2" fy="0" gradientTransform="matrix(0.0082, 0.0, 0.0, 0.0082, 2.65, 2.65)" gradientUnits="userSpaceOnUse" id="gradient35" r="819.2" spreadMethod="pad">
      <stop offset="0.0" stop-color="#72e2ff"/>
      <stop offset="1.0" stop-color="#72e2ff" stop-opacity="0.0"/>
    </radialGradient>
    <g id="sprite18" transform="matrix(1.0, 0.0, 0.0, 1.0, 70.7, 194.3)">
      <clipPath id="clipPath0">
        <path d="M 203.85 -194.3 L -70.7 -193.05 L -69.4 81.55 L 205.15 80.25 L 203.85 -194.3 Z"/>
      </clipPath>
      <g clip-path="url(#clipPath0)">
        <use ffdec:characterId="836" height="50.3" transform="matrix(1.0, 0.0, 0.0, 1.0, -53.4, -74.0)" width="78.7" xlink:href="#shape18"/>
        <use ffdec:characterId="837" height="35.75" transform="matrix(0.6903, -0.731, 0.4368, 0.4924, 16.9669, 86.6985)" width="79.05" xlink:href="#shape19"/>
        <use ffdec:characterId="609" height="32.75" transform="matrix(0.5154, -0.6893, 0.4409, 0.4185, 10.8999, 94.4396)" width="33.2" xlink:href="#shape20"/>
        <use ffdec:characterId="837" height="35.75" transform="matrix(-0.73, -0.6874, -0.3416, 0.4593, 174.6959, 83.2484)" width="79.05" xlink:href="#shape19"/>
        <use ffdec:characterId="609" height="32.75" transform="matrix(-0.5632, -0.6476, -0.3547, 0.3901, 181.3069, 90.5175)" width="33.2" xlink:href="#shape21"/>
        <use ffdec:characterId="837" height="35.75" transform="matrix(0.3296, -0.7193, 0.6854, 0.2945, 36.8227, 96.1983)" width="79.05" xlink:href="#shape19"/>
        <use ffdec:characterId="609" height="32.75" transform="matrix(0.1745, -0.6497, 0.6527, 0.2357, 34.5453, 103.5169)" width="33.2" xlink:href="#shape22"/>
        <use ffdec:characterId="688" height="141.25" transform="matrix(-0.7408, 0.3797, 0.2766, 0.6395, 67.7792, 47.4677)" width="49.4" xlink:href="#shape23"/>
        <use ffdec:characterId="837" height="35.75" transform="matrix(0.0946, -0.7686, 0.6891, 0.0849, 55.9202, 50.1576)" width="79.05" xlink:href="#shape19"/>
        <use ffdec:characterId="609" height="32.75" transform="matrix(-0.0238, -0.6597, 0.6439, 0.0387, 55.9442, 57.6907)" width="33.2" xlink:href="#shape24"/>
        <use ffdec:characterId="733" height="84.8" transform="matrix(1.0862, -0.1334, 0.1334, 1.0862, 47.7924, -12.7185)" width="98.7" xlink:href="#shape25"/>
        <use ffdec:characterId="837" height="35.75" transform="matrix(-0.2887, -0.7391, -0.6594, 0.1947, 153.915, 103.9815)" width="79.05" xlink:href="#shape19"/>
        <use ffdec:characterId="609" height="32.75" transform="matrix(-0.144, -0.6514, -0.6264, 0.1421, 155.8325, 111.3793)" width="33.2" xlink:href="#shape26"/>
        <use ffdec:characterId="688" height="141.25" transform="matrix(0.6891, 0.4651, -0.2851, 0.4883, 113.55, 48.7952)" width="49.4" xlink:href="#shape27"/>
        <use ffdec:characterId="837" height="35.75" transform="matrix(0.1612, -0.7502, -0.6727, -0.1446, 125.0415, 56.3242)" width="79.05" xlink:href="#shape28"/>
        <use ffdec:characterId="609" height="32.75" transform="matrix(0.2367, -0.6098, -0.6154, -0.1731, 122.5503, 63.384)" width="33.2" xlink:href="#shape29"/>
        <use ffdec:characterId="626" height="25.9" transform="matrix(-0.8631, -0.041, -0.0433, 0.9122, 111.5568, -115.502)" width="26.4" xlink:href="#shape30"/>
        <use ffdec:characterId="745" height="172.25" transform="matrix(-0.6387, 0.0195, 0.0338, 0.6056, 121.1336, -66.5207)" width="169.6" xlink:href="#shape31"/>
        <use ffdec:characterId="838" height="149.65" transform="matrix(-0.6961, -0.0291, -0.0291, 0.6961, 122.8722, -62.6138)" width="155.8" xlink:href="#shape32"/>
        <use ffdec:characterId="746" height="175.3" transform="matrix(-0.6387, 0.0195, 0.0338, 0.6056, 122.0595, -67.5225)" width="172.6" xlink:href="#shape33"/>
        <use ffdec:characterId="839" height="189.3" transform="matrix(0.7396, -0.0793, 0.0793, 0.7396, -30.0847, -172.1059)" width="263.05" xlink:href="#shape34"/>
        <use ffdec:characterId="840" height="44.25" transform="matrix(0.9655, -0.011, 0.0103, 0.9038, 28.7952, -72.1435)" width="42.05" xlink:href="#shape35"/>
        <use ffdec:characterId="840" height="44.25" transform="matrix(1.0937, -0.0125, 0.0125, 1.0937, 58.4057, -73.0078)" width="42.05" xlink:href="#shape35"/>
        <use ffdec:characterId="841" height="65.5" transform="matrix(-0.6165, -0.0258, -0.026, 0.6223, 65.5416, -79.0383)" width="67.95" xlink:href="#shape36"/>
        <use ffdec:characterId="750" height="28.85" transform="matrix(-0.5235, 0.2014, 0.1958, 0.537, 42.3684, -68.5332)" width="28.8" xlink:href="#shape37"/>
        <use ffdec:characterId="842" height="15.35" transform="matrix(-0.5987, -0.1719, -0.1733, 0.6037, 57.4926, -43.9057)" width="52.9" xlink:href="#shape38"/>
      </g>
      <clipPath id="clipPath1">
        <path d="M 43.56 -19.54 L 43.56 -19.54 L 43.56 -19.54 L 43.56 -19.54 Z M 104.1 -26.39 L 103.66 -26.38 L 103.2 -26.36 L 102.73 -26.33 L 102.25 -26.29 L 101.76 -26.23 L 101.26 -26.16 L 100.74 -26.08 L 100.21 -25.98 L 99.11 -25.76 L 97.96 -25.48 L 96.77 -25.15 L 95.52 -24.77 L 93.54 -24.15 L 91.59 -23.55 L 89.69 -22.98 L 87.83 -22.43 L 86.02 -21.9 L 84.25 -21.4 L 82.52 -20.92 L 80.83 -20.47 L 79.19 -20.04 L 77.58 -19.63 L 76.03 -19.25 L 74.51 -18.89 L 73.04 -18.55 L 71.61 -18.24 L 70.22 -17.95 L 68.87 -17.69 L 67.48 -17.44 L 66.11 -17.23 L 64.75 -17.05 L 63.42 -16.9 L 62.1 -16.78 L 60.79 -16.7 L 59.51 -16.65 L 58.24 -16.63 L 57.51 -16.64 L 56.49 -16.66 L 55.48 -16.71 L 54.48 -16.79 L 53.49 -16.88 L 52.51 -17 L 51.55 -17.14 L 50.6 -17.3 L 49.66 -17.48 L 48.69 -17.7 L 47.78 -17.93 L 46.93 -18.18 L 46.14 -18.43 L 45.4 -18.69 L 44.73 -18.96 L 44.11 -19.25 L 43.56 -19.54 L 43.56 -19.54 L 45.38 -1.45 L 45.78 -1.65 L 46.2 -1.83 L 46.63 -1.98 L 47.07 -2.1 L 47.53 -2.2 L 48 -2.27 L 48.48 -2.31 L 48.98 -2.32 L 49.12 -2.32 L 49.55 -2.3 L 49.98 -2.27 L 50.42 -2.22 L 50.88 -2.14 L 51.34 -2.05 L 51.81 -1.94 L 52.29 -1.82 L 52.77 -1.67 L 53.59 -1.4 L 54.4 -1.13 L 55.2 -0.84 L 55.98 -0.55 L 56.75 -0.25 L 57.5 0.05 L 58.24 0.36 L 58.97 0.69 L 59.68 1.01 L 60.39 1.35 L 61.07 1.69 L 61.75 2.05 L 62.41 2.4 L 63.06 2.77 L 63.7 3.15 L 64.32 3.53 L 65.56 4.29 L 66.83 5.04 L 68.12 5.8 L 69.43 6.54 L 70.77 7.29 L 72.13 8.03 L 73.51 8.77 L 74.91 9.5 L 76.29 10.21 L 77.59 10.86 L 78.82 11.46 L 79.96 12.01 L 81.03 12.5 L 82.02 12.94 L 82.93 13.32 L 83.76 13.66 L 84.17 13.81 L 84.59 13.95 L 85.04 14.09 L 85.5 14.22 L 85.99 14.35 L 86.49 14.47 L 87.56 14.7 L 88.7 14.9 L 89.92 15.08 L 91.21 15.24 L 92.58 15.38 L 93.32 15.43 L 94.05 15.45 L 94.37 15.46 L 94.94 15.45 L 95.5 15.42 L 96.05 15.38 L 96.6 15.33 L 97.14 15.26 L 97.68 15.17 L 98.21 15.07 L 98.73 14.95 L 99.25 14.82 L 99.77 14.67 L 100.27 14.51 L 100.77 14.32 L 101.27 14.13 L 101.76 13.92 L 102.24 13.69 L 102.72 13.44 L 103 13.28 L 103.28 13.11 L 103.55 12.92 L 103.82 12.72 L 104.08 12.5 L 104.34 12.27 L 104.6 12.03 L 104.85 11.77 L 105.1 11.5 L 105.34 11.22 L 105.58 10.92 L 105.81 10.61 L 106.05 10.28 L 106.27 9.95 L 106.5 9.59 L 106.71 9.23 L 106.93 8.85 L 107.14 8.46 L 107.55 7.63 L 107.94 6.76 L 108.31 5.82 L 108.67 4.83 L 109.01 3.79 L 109.34 2.7 L 109.65 1.55 L 109.94 0.36 L 110.2 -0.84 L 110.45 -2.05 L 110.67 -3.28 L 110.88 -4.51 L 111.06 -5.76 L 111.23 -7.02 L 111.37 -8.29 L 111.5 -9.57 L 111.6 -10.86 L 111.69 -12.17 L 111.75 -13.49 L 111.79 -14.81 L 111.82 -16.16 L 111.82 -17.51 L 111.8 -18.87 L 111.79 -19.33 L 111.75 -19.77 L 111.71 -20.2 L 111.65 -20.61 L 111.58 -21.01 L 111.49 -21.39 L 111.39 -21.76 L 111.27 -22.12 L 111.14 -22.46 L 111 -22.79 L 110.84 -23.1 L 110.67 -23.4 L 110.49 -23.68 L 110.29 -23.95 L 110.08 -24.21 L 109.85 -24.45 L 109.61 -24.68 L 109.35 -24.89 L 109.09 -25.09 L 108.8 -25.28 L 108.51 -25.45 L 108.2 -25.6 L 107.87 -25.75 L 107.53 -25.87 L 107.18 -25.99 L 106.82 -26.09 L 106.44 -26.17 L 106.04 -26.24 L 105.63 -26.3 L 105.21 -26.34 L 104.78 -26.37 L 104.33 -26.39 L 104.1 -26.39 Z"/>
      </clipPath>
      <g clip-path="url(#clipPath1)">
        <use ffdec:characterId="799" height="75.05" transform="matrix(0.6456, 0.0099, -0.0128, 0.8363, 44.9477, -38.721)" width="128.6" xlink:href="#shape39"/>
        <use ffdec:characterId="672" height="43.25" transform="matrix(-0.7166, -0.0245, -0.0206, 0.8354, 110.5848, -7.3267)" width="89.9" xlink:href="#shape40"/>
        <use ffdec:characterId="673" height="52.05" transform="matrix(-0.7456, -0.014, -0.0191, 0.8361, 111.2099, -41.2126)" width="87.0" xlink:href="#shape41"/>
      </g>
      <clipPath id="clipPath2">
        <path d="M 203.85 -194.3 L -70.7 -193.05 L -69.4 81.55 L 205.15 80.25 L 203.85 -194.3 Z"/>
      </clipPath>
      <g clip-path="url(#clipPath2)">
        <use ffdec:characterId="843" height="54.75" transform="matrix(0.6456, 0.0099, -0.0128, 0.8363, 40.5861, -30.1301)" width="111.9" xlink:href="#shape42"/>
        <use ffdec:characterId="844" height="69.3" transform="matrix(-0.6688, -0.1846, -0.1846, 0.6688, 69.1849, -49.8269)" width="88.9" xlink:href="#shape43"/>
        <use ffdec:characterId="841" height="65.5" transform="matrix(-0.724, -0.0303, -0.033, 0.7908, 105.0532, -82.7136)" width="67.95" xlink:href="#shape44"/>
        <use ffdec:characterId="750" height="28.85" transform="matrix(-0.3996, 0.1533, 0.1208, 0.4372, 75.3646, -65.8036)" width="28.8" xlink:href="#shape37"/>
        <use ffdec:characterId="842" height="15.35" transform="matrix(-0.6884, 0.2381, 0.2601, 0.7519, 102.9899, -50.8658)" width="52.9" xlink:href="#shape38"/>
        <use ffdec:characterId="754" height="152.15" transform="matrix(-0.6688, -0.1846, -0.1846, 0.6688, 13.4108, -30.5639)" width="56.2" xlink:href="#shape45"/>
        <use ffdec:characterId="677" height="11.45" transform="matrix(-1.0672, -0.6795, -0.7121, 1.1185, 56.5233, -75.725)" width="28.7" xlink:href="#shape46"/>
        <use ffdec:characterId="677" height="11.45" transform="matrix(1.2471, -0.7004, 0.7004, 1.2471, 57.6122, -76.7077)" width="28.7" xlink:href="#shape46"/>
        <use ffdec:characterId="845" height="50.3" transform="matrix(1.0, 0.0, 0.0, 1.0, 112.35, -74.0)" width="84.3" xlink:href="#shape47"/>
      </g>
    </g>
    <g id="shape18" transform="matrix(1.0, 0.0, 0.0, 1.0, 53.4, 74.0)">
      <path d="M-2.05 -57.6 Q-4.05 -53.05 -7.95 -52.3 L-14.65 -52.0 -19.5 -52.3 Q-24.4 -51.3 -25.45 -48.0 -20.8 -49.55 -16.45 -48.65 L-14.85 -48.25 -13.4 -48.4 Q-12.85 -48.45 -12.05 -47.8 L-12.95 -47.6 -8.85 -44.1 -8.85 -41.8 Q-8.9 -39.5 -11.6 -37.05 -14.3 -34.65 -18.35 -33.8 L-25.45 -33.5 Q-28.6 -34.05 -31.45 -35.1 -27.65 -36.35 -25.1 -37.7 -19.5 -40.6 -19.5 -44.05 L-19.5 -44.1 -25.25 -42.65 -26.35 -42.45 Q-31.25 -41.5 -33.55 -41.5 L-39.4 -41.9 Q-41.85 -41.9 -46.15 -44.2 -49.9 -46.15 -52.2 -49.05 -51.85 -51.6 -51.0 -53.3 -50.0 -55.2 -47.85 -56.9 -48.85 -60.25 -47.15 -63.25 -45.85 -65.55 -42.9 -67.7 -35.65 -73.0 -24.3 -73.0 -20.6 -73.0 -15.1 -70.65 -7.2 -67.2 -6.9 -61.4 -4.95 -61.2 -3.6 -60.1 -2.35 -59.1 -2.05 -57.6 M-7.8 -43.0 L-7.7 -42.85 -7.6 -42.7 -7.5 -42.5 -7.45 -42.45 -6.9 -41.3 -6.75 -40.9 Q-6.45 -40.1 -6.55 -39.7 -6.75 -39.0 -8.75 -44.0 L-7.8 -43.0 M-37.65 -33.3 L-37.65 -33.7 -36.65 -33.65 -36.3 -33.65 -37.65 -33.3 M-45.75 -58.35 L-47.85 -56.9 -45.75 -58.35 M-14.85 -48.25 L-12.95 -47.6 -14.85 -48.25 M-19.75 -45.65 L-19.75 -45.55 -19.7 -45.45 -19.75 -45.65" fill="url(#gradient36)" fill-rule="evenodd" stroke="none"/>
      <path d="M-2.05 -57.6 L-2.0 -56.75 Q-2.0 -50.65 -8.5 -46.8 L-10.2 -45.9 Q-11.45 -46.95 -12.95 -47.6 -11.45 -46.95 -10.2 -45.9 -8.8 -44.65 -7.8 -43.0 L-8.75 -44.0 Q-6.75 -39.0 -6.55 -39.7 -6.45 -40.1 -6.75 -40.9 L-6.4 -40.05 Q-6.05 -38.85 -6.05 -37.75 -6.05 -35.8 -6.7 -34.0 -7.55 -31.75 -9.35 -29.8 -14.15 -24.7 -24.2 -24.7 -34.3 -24.7 -36.85 -28.7 -37.55 -29.75 -37.65 -33.3 L-36.3 -33.65 -36.65 -33.65 -37.65 -33.7 Q-44.2 -33.95 -48.45 -37.65 -52.4 -41.15 -52.4 -45.5 L-52.2 -49.05 Q-49.9 -46.15 -46.15 -44.2 -41.85 -41.9 -39.4 -41.9 L-33.55 -41.5 Q-31.25 -41.5 -26.35 -42.45 L-25.25 -42.65 -19.5 -44.1 -19.5 -44.05 Q-19.5 -40.6 -25.1 -37.7 -27.65 -36.35 -31.45 -35.1 -28.6 -34.05 -25.45 -33.5 L-18.35 -33.8 Q-14.3 -34.65 -11.6 -37.05 -8.9 -39.5 -8.85 -41.8 L-8.85 -44.1 -12.95 -47.6 -12.05 -47.8 Q-12.85 -48.45 -13.4 -48.4 L-14.85 -48.25 -16.45 -48.65 Q-20.8 -49.55 -25.45 -48.0 -24.4 -51.3 -19.5 -52.3 L-14.65 -52.0 -7.95 -52.3 Q-4.05 -53.05 -2.05 -57.6 M-19.75 -45.65 L-19.7 -45.45 -19.75 -45.55 -19.75 -45.65 M-36.3 -33.65 L-32.6 -34.1 -32.2 -34.2 -32.6 -34.1 -36.3 -33.65" fill="url(#gradient37)" fill-rule="evenodd" stroke="none"/>
      <path d="M-10.2 -45.9 L-8.5 -46.8 Q-2.0 -50.65 -2.0 -56.75 L-2.05 -57.6 Q-2.35 -59.1 -3.6 -60.1 -4.95 -61.2 -6.9 -61.4 -7.2 -67.2 -15.1 -70.65 -20.6 -73.0 -24.3 -73.0 -35.65 -73.0 -42.9 -67.7 -45.85 -65.55 -47.15 -63.25 -48.85 -60.25 -47.85 -56.9 L-45.75 -58.35 M-16.45 -48.65 L-14.85 -48.25 -12.95 -47.6 Q-11.45 -46.95 -10.2 -45.9 -8.8 -44.65 -7.8 -43.0 L-7.7 -42.85 -7.6 -42.7 -7.5 -42.5 -7.45 -42.45 -6.9 -41.3 -6.75 -40.9 -6.4 -40.05 Q-6.05 -38.85 -6.05 -37.75 -6.05 -35.8 -6.7 -34.0 -7.55 -31.75 -9.35 -29.8 -14.15 -24.7 -24.2 -24.7 -34.3 -24.7 -36.85 -28.7 -37.55 -29.75 -37.65 -33.3 L-37.65 -33.7 Q-44.2 -33.95 -48.45 -37.65 -52.4 -41.15 -52.4 -45.5 L-52.2 -49.05 Q-51.85 -51.6 -51.0 -53.3 -50.0 -55.2 -47.85 -56.9 M-36.3 -33.65 L-36.65 -33.65 -37.65 -33.7 M-32.2 -34.2 L-32.6 -34.1 -36.3 -33.65" fill="none" stroke="#5c6775" stroke-linecap="round" stroke-linejoin="round" stroke-width="2.0"/>
      <path d="M11.0 -45.55 L17.5 -44.5 -25.1 -42.5 Q1.85 -45.7 11.0 -45.55 M21.7 -46.95 Q15.3 -46.6 2.9 -46.45 L-29.75 -46.1 -19.85 -47.2 -14.35 -47.55 Q-18.95 -48.1 -22.35 -49.3 L13.4 -50.25 25.3 -49.3 11.3 -47.7 21.7 -46.95 M18.25 -51.85 L13.75 -51.2 Q-26.75 -50.85 -34.7 -53.55 2.15 -54.15 18.25 -51.85" fill="url(#gradient38)" fill-rule="evenodd" stroke="none"/>
    </g>
    <radialGradient cx="0" cy="0" gradientTransform="matrix(0.0403, 0.0, 0.0, -0.0403, -31.65, -38.2)" gradientUnits="userSpaceOnUse" id="gradient36" r="819.2" spreadMethod="pad">
      <stop offset="0.26666666666666666" stop-color="#ffffff"/>
      <stop offset="0.8980392156862745" stop-color="#bed4e7"/>
    </radialGradient>
    <radialGradient cx="0" cy="0" gradientTransform="matrix(0.0403, 0.0, 0.0, -0.0403, -31.65, -38.2)" gradientUnits="userSpaceOnUse" id="gradient37" r="819.2" spreadMethod="pad">
      <stop offset="0.24705882352941178" stop-color="#cddeed"/>
      <stop offset="0.8823529411764706" stop-color="#97afc5"/>
    </radialGradient>
    <radialGradient cx="0" cy="0" gradientTransform="matrix(-0.0409, 0.0, 0.0, -0.0386, -11.25, -47.55)" gradientUnits="userSpaceOnUse" id="gradient38" r="819.2" spreadMethod="pad">
      <stop offset="0.11372549019607843" stop-color="#cddeed"/>
      <stop offset="0.9058823529411765" stop-color="#ffffff"/>
    </radialGradient>
    <g id="shape19" transform="matrix(1.0, 0.0, 0.0, 1.0, 3.2, 1.2)">
      <path d="M-0.65 3.9 L-0.7 3.8 -0.65 3.85 -0.65 3.9 M74.0 31.3 L74.2 31.4 73.3 33.0 Q70.6 34.3 68.5 33.55 L54.4 26.55 Q48.45 24.55 41.85 23.65 48.5 24.35 54.5 26.25 L68.75 33.05 Q70.8 33.75 73.45 32.35 L74.0 31.3 M3.3 21.05 L3.25 21.05 3.3 21.05" fill="#1f2f32" fill-rule="evenodd" stroke="none"/>
      <path d="M73.65 31.4 L54.15 21.25 Q48.5 18.65 43.15 16.65 L36.45 14.2 Q29.45 11.65 23.55 11.15 L8.7 9.8 Q2.35 9.7 -0.65 3.85 1.15 1.2 5.65 0.25 8.0 -0.1 11.55 0.15 22.6 0.85 38.9 7.45 47.35 10.95 55.3 15.25 62.5 19.05 69.35 23.6 72.9 25.9 74.0 27.75 75.0 29.15 74.3 30.75 L74.0 31.3 73.75 31.15 73.7 31.25 73.65 31.4" fill="#5b6e7d" fill-rule="evenodd" stroke="none"/>
      <path d="M-0.65 3.85 Q2.35 9.7 8.7 9.8 L23.55 11.15 Q29.45 11.65 36.45 14.2 L43.15 16.65 Q48.5 18.65 54.15 21.25 L73.65 31.4 73.7 31.25 73.75 31.15 74.0 31.3 73.45 32.35 Q70.8 33.75 68.75 33.05 L54.5 26.25 Q48.5 24.35 41.85 23.65 L32.65 23.15 17.6 24.2 Q16.8 24.35 15.95 24.7 8.75 25.1 5.3 22.75 L4.4 22.05 3.4 21.15 3.3 21.1 3.3 21.05 3.25 21.05 Q0.95 18.65 -0.45 15.0 L-0.5 14.8 -0.55 14.7 Q-3.25 7.65 -0.65 3.9 L-0.65 3.85" fill="#343541" fill-rule="evenodd" stroke="none"/>
      <path d="M-0.65 3.9 L-0.65 3.85 M41.85 23.65 L32.65 23.15 M3.3 21.05 L3.25 21.05 M-0.45 15.0 L-0.55 14.7" fill="none" stroke="#1f2f32" stroke-linecap="round" stroke-linejoin="round" stroke-width="2.5"/>
      <path d="M74.0 31.3 L74.3 30.75 Q75.0 29.15 74.0 27.75 72.9 25.9 69.35 23.6 62.5 19.05 55.3 15.25 47.35 10.95 38.9 7.45 22.6 0.85 11.55 0.15 8.0 -0.1 5.65 0.25 1.15 1.2 -0.65 3.85 M32.65 23.15 L17.65 24.55 15.95 24.7 Q8.75 25.1 5.3 22.75 L4.4 22.05 3.4 21.15 3.3 21.1 3.3 21.05 3.25 21.05 Q0.95 18.65 -0.45 15.0 M-0.55 14.7 Q-3.25 7.65 -0.65 3.9 M41.85 23.65 Q48.5 24.35 54.5 26.25 L68.75 33.05 Q70.8 33.75 73.45 32.35 L74.0 31.3" fill="none" stroke="#323232" stroke-linecap="round" stroke-linejoin="round" stroke-width="2.5"/>
    </g>
    <g id="shape20" transform="matrix(1.0, 0.0, 0.0, 1.0, 5.8, 11.25)">
      <path d="M1.7 -1.3 Q2.2 -5.2 6.25 -5.35 9.25 -4.75 9.9 -1.6 10.2 0.55 9.1 1.9 L10.2 2.5 Q11.25 3.2 11.1 4.5 L10.65 5.65 Q12.95 4.05 15.85 3.8 18.2 4.0 19.0 6.4 19.95 9.15 17.75 11.05 14.5 13.95 11.05 11.4 8.9 9.7 9.55 7.25 L9.75 6.6 7.3 6.5 Q6.55 6.25 6.25 5.35 5.85 4.55 5.9 3.95 L4.85 3.85 Q1.05 2.7 1.7 -1.3" fill="#5b6e7d" fill-rule="evenodd" stroke="none"/>
      <path d="M13.5 -4.7 Q13.9 -1.7 18.2 0.65 32.1 9.0 21.7 18.6 8.9 24.15 0.35 11.0 -8.25 -2.15 -1.75 -6.7 4.7 -11.3 8.9 -9.5 13.05 -7.75 13.5 -4.7 M1.7 -1.3 Q1.05 2.7 4.85 3.85 L5.9 3.95 Q5.85 4.55 6.25 5.35 6.55 6.25 7.3 6.5 L9.75 6.6 9.55 7.25 Q8.9 9.7 11.05 11.4 14.5 13.95 17.75 11.05 19.95 9.15 19.0 6.4 18.2 4.0 15.85 3.8 12.95 4.05 10.65 5.65 L11.1 4.5 Q11.25 3.2 10.2 2.5 L9.1 1.9 Q10.2 0.55 9.9 -1.6 9.25 -4.75 6.25 -5.35 2.2 -5.2 1.7 -1.3" fill="#343541" fill-rule="evenodd" stroke="none"/>
      <path d="M13.5 -4.7 Q13.9 -1.7 18.2 0.65 32.1 9.0 21.7 18.6 8.9 24.15 0.35 11.0 -8.25 -2.15 -1.75 -6.7 4.7 -11.3 8.9 -9.5 13.05 -7.75 13.5 -4.7 Z" ffdec:has-small-stroke="true" ffdec:original-stroke-width="2.5" fill="none" stroke="#323232" stroke-linecap="round" stroke-linejoin="round" stroke-width="2.6078233329188327"/>
    </g>
    <g id="shape21" transform="matrix(1.0, 0.0, 0.0, 1.0, 5.8, 11.25)">
      <path d="M1.7 -1.3 Q2.2 -5.2 6.25 -5.35 9.25 -4.75 9.9 -1.6 10.2 0.55 9.1 1.9 L10.2 2.5 Q11.25 3.2 11.1 4.5 L10.65 5.65 Q12.95 4.05 15.85 3.8 18.2 4.0 19.0 6.4 19.95 9.15 17.75 11.05 14.5 13.95 11.05 11.4 8.9 9.7 9.55 7.25 L9.75 6.6 7.3 6.5 Q6.55 6.25 6.25 5.35 5.85 4.55 5.9 3.95 L4.85 3.85 Q1.05 2.7 1.7 -1.3" fill="#5b6e7d" fill-rule="evenodd" stroke="none"/>
      <path d="M13.5 -4.7 Q13.9 -1.7 18.2 0.65 32.1 9.0 21.7 18.6 8.9 24.15 0.35 11.0 -8.25 -2.15 -1.75 -6.7 4.7 -11.3 8.9 -9.5 13.05 -7.75 13.5 -4.7 M1.7 -1.3 Q1.05 2.7 4.85 3.85 L5.9 3.95 Q5.85 4.55 6.25 5.35 6.55 6.25 7.3 6.5 L9.75 6.6 9.55 7.25 Q8.9 9.7 11.05 11.4 14.5 13.95 17.75 11.05 19.95 9.15 19.0 6.4 18.2 4.0 15.85 3.8 12.95 4.05 10.65 5.65 L11.1 4.5 Q11.25 3.2 10.2 2.5 L9.1 1.9 Q10.2 0.55 9.9 -1.6 9.25 -4.75 6.25 -5.35 2.2 -5.2 1.7 -1.3" fill="#343541" fill-rule="evenodd" stroke="none"/>
      <path d="M13.5 -4.7 Q13.9 -1.7 18.2 0.65 32.1 9.0 21.7 18.6 8.9 24.15 0.35 11.0 -8.25 -2.15 -1.75 -6.7 4.7 -11.3 8.9 -9.5 13.05 -7.75 13.5 -4.7 Z" ffdec:has-small-stroke="true" ffdec:original-stroke-width="2.5" fill="none" stroke="#323232" stroke-linecap="round" stroke-linejoin="round" stroke-width="2.7190610912427147"/>
    </g>
    <g id="shape22" transform="matrix(1.0, 0.0, 0.0, 1.0, 5.8, 11.25)">
      <path d="M1.7 -1.3 Q2.2 -5.2 6.25 -5.35 9.25 -4.75 9.9 -1.6 10.2 0.55 9.1 1.9 L10.2 2.5 Q11.25 3.2 11.1 4.5 L10.65 5.65 Q12.95 4.05 15.85 3.8 18.2 4.0 19.0 6.4 19.95 9.15 17.75 11.05 14.5 13.95 11.05 11.4 8.9 9.7 9.55 7.25 L9.75 6.6 7.3 6.5 Q6.55 6.25 6.25 5.35 5.85 4.55 5.9 3.95 L4.85 3.85 Q1.05 2.7 1.7 -1.3" fill="#5b6e7d" fill-rule="evenodd" stroke="none"/>
      <path d="M13.5 -4.7 Q13.9 -1.7 18.2 0.65 32.1 9.0 21.7 18.6 8.9 24.15 0.35 11.0 -8.25 -2.15 -1.75 -6.7 4.7 -11.3 8.9 -9.5 13.05 -7.75 13.5 -4.7 M1.7 -1.3 Q1.05 2.7 4.85 3.85 L5.9 3.95 Q5.85 4.55 6.25 5.35 6.55 6.25 7.3 6.5 L9.75 6.6 9.55 7.25 Q8.9 9.7 11.05 11.4 14.5 13.95 17.75 11.05 19.95 9.15 19.0 6.4 18.2 4.0 15.85 3.8 12.95 4.05 10.65 5.65 L11.1 4.5 Q11.25 3.2 10.2 2.5 L9.1 1.9 Q10.2 0.55 9.9 -1.6 9.25 -4.75 6.25 -5.35 2.2 -5.2 1.7 -1.3" fill="#343541" fill-rule="evenodd" stroke="none"/>
      <path d="M13.5 -4.7 Q13.9 -1.7 18.2 0.65 32.1 9.0 21.7 18.6 8.9 24.15 0.35 11.0 -8.25 -2.15 -1.75 -6.7 4.7 -11.3 8.9 -9.5 13.05 -7.75 13.5 -4.7 Z" ffdec:has-small-stroke="true" ffdec:original-stroke-width="2.5" fill="none" stroke="#323232" stroke-linecap="round" stroke-linejoin="round" stroke-width="2.8022433706523535"/>
    </g>
    <g id="shape23" transform="matrix(1.0, 0.0, 0.0, 1.0, -2.9, -2.45)">
      <path d="M22.45 20.45 Q38.35 59.5 43.6 83.7 49.0 108.4 50.4 122.8 51.75 137.15 50.2 140.4 48.6 143.65 46.15 141.7 43.65 139.7 40.85 111.5 38.0 83.25 23.95 52.45 17.15 37.55 11.85 28.1 4.6 15.45 4.2 10.95 3.8 6.45 6.35 4.55 8.9 2.65 13.1 4.95 17.25 7.2 22.45 20.45" fill="#343541" fill-rule="evenodd" stroke="none"/>
      <path d="M22.45 20.45 Q38.35 59.5 43.6 83.7 49.0 108.4 50.4 122.8 51.75 137.15 50.2 140.4 48.6 143.65 46.15 141.7 43.65 139.7 40.85 111.5 38.0 83.25 23.95 52.45 17.15 37.55 11.85 28.1 4.6 15.45 4.2 10.95 3.8 6.45 6.35 4.55 8.9 2.65 13.1 4.95 17.25 7.2 22.45 20.45 Z" fill="none" stroke="#323232" stroke-linecap="round" stroke-linejoin="round" stroke-width="2.5"/>
    </g>
    <g id="shape24" transform="matrix(1.0, 0.0, 0.0, 1.0, 5.8, 11.25)">
      <path d="M1.7 -1.3 Q2.2 -5.2 6.25 -5.35 9.25 -4.75 9.9 -1.6 10.2 0.55 9.1 1.9 L10.2 2.5 Q11.25 3.2 11.1 4.5 L10.65 5.65 Q12.95 4.05 15.85 3.8 18.2 4.0 19.0 6.4 19.95 9.15 17.75 11.05 14.5 13.95 11.05 11.4 8.9 9.7 9.55 7.25 L9.75 6.6 7.3 6.5 Q6.55 6.25 6.25 5.35 5.85 4.55 5.9 3.95 L4.85 3.85 Q1.05 2.7 1.7 -1.3" fill="#5b6e7d" fill-rule="evenodd" stroke="none"/>
      <path d="M13.5 -4.7 Q13.9 -1.7 18.2 0.65 32.1 9.0 21.7 18.6 8.9 24.15 0.35 11.0 -8.25 -2.15 -1.75 -6.7 4.7 -11.3 8.9 -9.5 13.05 -7.75 13.5 -4.7 M1.7 -1.3 Q1.05 2.7 4.85 3.85 L5.9 3.95 Q5.85 4.55 6.25 5.35 6.55 6.25 7.3 6.5 L9.75 6.6 9.55 7.25 Q8.9 9.7 11.05 11.4 14.5 13.95 17.75 11.05 19.95 9.15 19.0 6.4 18.2 4.0 15.85 3.8 12.95 4.05 10.65 5.65 L11.1 4.5 Q11.25 3.2 10.2 2.5 L9.1 1.9 Q10.2 0.55 9.9 -1.6 9.25 -4.75 6.25 -5.35 2.2 -5.2 1.7 -1.3" fill="#343541" fill-rule="evenodd" stroke="none"/>
      <path d="M13.5 -4.7 Q13.9 -1.7 18.2 0.65 32.1 9.0 21.7 18.6 8.9 24.15 0.35 11.0 -8.25 -2.15 -1.75 -6.7 4.7 -11.3 8.9 -9.5 13.05 -7.75 13.5 -4.7 Z" ffdec:has-small-stroke="true" ffdec:original-stroke-width="2.5" fill="none" stroke="#323232" stroke-linecap="round" stroke-linejoin="round" stroke-width="2.9538015724012627"/>
    </g>
    <g id="shape25" transform="matrix(1.0, 0.0, 0.0, 1.0, 48.15, 41.65)">
      <path d="M32.2 -23.15 Q21.2 -30.45 4.2 -34.1 -12.85 -37.8 -25.9 -35.7 -38.95 -33.6 -40.35 -26.9 -41.8 -20.25 -30.8 -12.95 -19.8 -5.65 -2.75 -1.95 14.25 1.7 27.3 -0.4 40.3 -2.5 41.75 -9.15 43.2 -15.85 32.2 -23.15 M0.1 38.65 Q-16.5 48.55 -27.65 31.25 -44.0 -4.85 -46.8 -20.3 -49.65 -35.75 -33.85 -39.75 1.4 -44.1 29.8 -29.1 58.15 -14.15 46.05 0.3 29.5 20.1 0.1 38.65" fill="#bd3232" fill-rule="evenodd" stroke="none"/>
      <path d="M32.2 -23.15 Q43.2 -15.85 41.75 -9.15 40.3 -2.5 27.3 -0.4 14.25 1.7 -2.75 -1.95 -19.8 -5.65 -30.8 -12.95 -41.8 -20.25 -40.35 -26.9 -38.95 -33.6 -25.9 -35.7 -12.85 -37.8 4.2 -34.1 21.2 -30.45 32.2 -23.15" fill="#e63232" fill-rule="evenodd" stroke="none"/>
      <path d="M0.1 38.65 Q-16.5 48.55 -27.65 31.25 -44.0 -4.85 -46.8 -20.3 -49.65 -35.75 -33.85 -39.75 1.4 -44.1 29.8 -29.1 58.15 -14.15 46.05 0.3 29.5 20.1 0.1 38.65 Z" fill="none" stroke="#323232" stroke-linecap="round" stroke-linejoin="round" stroke-width="1.8"/>
      <path d="M23.85 -32.0 Q22.0 -29.25 18.45 -26.15 -0.1 -9.95 -12.3 -9.5 -24.45 -9.05 -29.5 -15.4 -34.5 -21.7 -35.25 -35.15 L-35.2 -39.35 -33.85 -39.75 Q-2.25 -43.65 23.85 -32.0" fill="#bd3232" fill-rule="evenodd" stroke="none"/>
      <path d="M0.1 38.65 Q29.5 20.1 46.05 0.3 58.15 -14.15 29.8 -29.1 L23.85 -32.0 Q-2.25 -43.65 -33.85 -39.75 L-35.2 -39.35 Q-49.55 -35.1 -46.8 -20.3 -44.0 -4.85 -27.65 31.25" fill="none" stroke="#323232" stroke-linecap="round" stroke-linejoin="round" stroke-width="1.8"/>
    </g>
    <g id="shape26" transform="matrix(1.0, 0.0, 0.0, 1.0, 5.8, 11.25)">
      <path d="M1.7 -1.3 Q2.2 -5.2 6.25 -5.35 9.25 -4.75 9.9 -1.6 10.2 0.55 9.1 1.9 L10.2 2.5 Q11.25 3.2 11.1 4.5 L10.65 5.65 Q12.95 4.05 15.85 3.8 18.2 4.0 19.0 6.4 19.95 9.15 17.75 11.05 14.5 13.95 11.05 11.4 8.9 9.7 9.55 7.25 L9.75 6.6 7.3 6.5 Q6.55 6.25 6.25 5.35 5.85 4.55 5.9 3.95 L4.85 3.85 Q1.05 2.7 1.7 -1.3" fill="#5b6e7d" fill-rule="evenodd" stroke="none"/>
      <path d="M13.5 -4.7 Q13.9 -1.7 18.2 0.65 32.1 9.0 21.7 18.6 8.9 24.15 0.35 11.0 -8.25 -2.15 -1.75 -6.7 4.7 -11.3 8.9 -9.5 13.05 -7.75 13.5 -4.7 M1.7 -1.3 Q1.05 2.7 4.85 3.85 L5.9 3.95 Q5.85 4.55 6.25 5.35 6.55 6.25 7.3 6.5 L9.75 6.6 9.55 7.25 Q8.9 9.7 11.05 11.4 14.5 13.95 17.75 11.05 19.95 9.15 19.0 6.4 18.2 4.0 15.85 3.8 12.95 4.05 10.65 5.65 L11.1 4.5 Q11.25 3.2 10.2 2.5 L9.1 1.9 Q10.2 0.55 9.9 -1.6 9.25 -4.75 6.25 -5.35 2.2 -5.2 1.7 -1.3" fill="#343541" fill-rule="evenodd" stroke="none"/>
      <path d="M13.5 -4.7 Q13.9 -1.7 18.2 0.65 32.1 9.0 21.7 18.6 8.9 24.15 0.35 11.0 -8.25 -2.15 -1.75 -6.7 4.7 -11.3 8.9 -9.5 13.05 -7.75 13.5 -4.7 Z" ffdec:has-small-stroke="true" ffdec:original-stroke-width="2.5" fill="none" stroke="#323232" stroke-linecap="round" stroke-linejoin="round" stroke-width="2.806758772602235"/>
    </g>
    <g id="shape27" transform="matrix(1.0, 0.0, 0.0, 1.0, -2.9, -2.45)">
      <path d="M22.45 20.45 Q38.35 59.5 43.6 83.7 49.0 108.4 50.4 122.8 51.75 137.15 50.2 140.4 48.6 143.65 46.15 141.7 43.65 139.7 40.85 111.5 38.0 83.25 23.95 52.45 17.15 37.55 11.85 28.1 4.6 15.45 4.2 10.95 3.8 6.45 6.35 4.55 8.9 2.65 13.1 4.95 17.25 7.2 22.45 20.45" fill="#343541" fill-rule="evenodd" stroke="none"/>
      <path d="M22.45 20.45 Q38.35 59.5 43.6 83.7 49.0 108.4 50.4 122.8 51.75 137.15 50.2 140.4 48.6 143.65 46.15 141.7 43.65 139.7 40.85 111.5 38.0 83.25 23.95 52.45 17.15 37.55 11.85 28.1 4.6 15.45 4.2 10.95 3.8 6.45 6.35 4.55 8.9 2.65 13.1 4.95 17.25 7.2 22.45 20.45 Z" ffdec:has-small-stroke="true" ffdec:original-stroke-width="2.5" fill="none" stroke="#323232" stroke-linecap="round" stroke-linejoin="round" stroke-width="2.5032119893949982"/>
    </g>
    <g id="shape28" transform="matrix(1.0, 0.0, 0.0, 1.0, 3.2, 1.2)">
      <path d="M-0.65 3.9 L-0.7 3.8 -0.65 3.85 -0.65 3.9 M74.0 31.3 L74.2 31.4 73.3 33.0 Q70.6 34.3 68.5 33.55 L54.4 26.55 Q48.45 24.55 41.85 23.65 48.5 24.35 54.5 26.25 L68.75 33.05 Q70.8 33.75 73.45 32.35 L74.0 31.3 M3.3 21.05 L3.25 21.05 3.3 21.05" fill="#1f2f32" fill-rule="evenodd" stroke="none"/>
      <path d="M73.65 31.4 L54.15 21.25 Q48.5 18.65 43.15 16.65 L36.45 14.2 Q29.45 11.65 23.55 11.15 L8.7 9.8 Q2.35 9.7 -0.65 3.85 1.15 1.2 5.65 0.25 8.0 -0.1 11.55 0.15 22.6 0.85 38.9 7.45 47.35 10.95 55.3 15.25 62.5 19.05 69.35 23.6 72.9 25.9 74.0 27.75 75.0 29.15 74.3 30.75 L74.0 31.3 73.75 31.15 73.7 31.25 73.65 31.4" fill="#5b6e7d" fill-rule="evenodd" stroke="none"/>
      <path d="M-0.65 3.85 Q2.35 9.7 8.7 9.8 L23.55 11.15 Q29.45 11.65 36.45 14.2 L43.15 16.65 Q48.5 18.65 54.15 21.25 L73.65 31.4 73.7 31.25 73.75 31.15 74.0 31.3 73.45 32.35 Q70.8 33.75 68.75 33.05 L54.5 26.25 Q48.5 24.35 41.85 23.65 L32.65 23.15 17.6 24.2 Q16.8 24.35 15.95 24.7 8.75 25.1 5.3 22.75 L4.4 22.05 3.4 21.15 3.3 21.1 3.3 21.05 3.25 21.05 Q0.95 18.65 -0.45 15.0 L-0.5 14.8 -0.55 14.7 Q-3.25 7.65 -0.65 3.9 L-0.65 3.85" fill="#343541" fill-rule="evenodd" stroke="none"/>
      <path d="M-0.65 3.9 L-0.65 3.85 M41.85 23.65 L32.65 23.15 M3.3 21.05 L3.25 21.05 M-0.45 15.0 L-0.55 14.7" ffdec:has-small-stroke="true" ffdec:original-stroke-width="2.5" fill="none" stroke="#1f2f32" stroke-linecap="round" stroke-linejoin="round" stroke-width="2.5148971813471537"/>
      <path d="M74.0 31.3 L74.3 30.75 Q75.0 29.15 74.0 27.75 72.9 25.9 69.35 23.6 62.5 19.05 55.3 15.25 47.35 10.95 38.9 7.45 22.6 0.85 11.55 0.15 8.0 -0.1 5.65 0.25 1.15 1.2 -0.65 3.85 M32.65 23.15 L17.65 24.55 15.95 24.7 Q8.75 25.1 5.3 22.75 L4.4 22.05 3.4 21.15 3.3 21.1 3.3 21.05 3.25 21.05 Q0.95 18.65 -0.45 15.0 M-0.55 14.7 Q-3.25 7.65 -0.65 3.9 M41.85 23.65 Q48.5 24.35 54.5 26.25 L68.75 33.05 Q70.8 33.75 73.45 32.35 L74.0 31.3" ffdec:has-small-stroke="true" ffdec:original-stroke-width="2.5" fill="none" stroke="#323232" stroke-linecap="round" stroke-linejoin="round" stroke-width="2.5148971813471537"/>
    </g>
    <g id="shape29" transform="matrix(1.0, 0.0, 0.0, 1.0, 5.8, 11.25)">
      <path d="M1.7 -1.3 Q2.2 -5.2 6.25 -5.35 9.25 -4.75 9.9 -1.6 10.2 0.55 9.1 1.9 L10.2 2.5 Q11.25 3.2 11.1 4.5 L10.65 5.65 Q12.95 4.05 15.85 3.8 18.2 4.0 19.0 6.4 19.95 9.15 17.75 11.05 14.5 13.95 11.05 11.4 8.9 9.7 9.55 7.25 L9.75 6.6 7.3 6.5 Q6.55 6.25 6.25 5.35 5.85 4.55 5.9 3.95 L4.85 3.85 Q1.05 2.7 1.7 -1.3" fill="#5b6e7d" fill-rule="evenodd" stroke="none"/>
      <path d="M13.5 -4.7 Q13.9 -1.7 18.2 0.65 32.1 9.0 21.7 18.6 8.9 24.15 0.35 11.0 -8.25 -2.15 -1.75 -6.7 4.7 -11.3 8.9 -9.5 13.05 -7.75 13.5 -4.7 M1.7 -1.3 Q1.05 2.7 4.85 3.85 L5.9 3.95 Q5.85 4.55 6.25 5.35 6.55 6.25 7.3 6.5 L9.75 6.6 9.55 7.25 Q8.9 9.7 11.05 11.4 14.5 13.95 17.75 11.05 19.95 9.15 19.0 6.4 18.2 4.0 15.85 3.8 12.95 4.05 10.65 5.65 L11.1 4.5 Q11.25 3.2 10.2 2.5 L9.1 1.9 Q10.2 0.55 9.9 -1.6 9.25 -4.75 6.25 -5.35 2.2 -5.2 1.7 -1.3" fill="#343541" fill-rule="evenodd" stroke="none"/>
      <path d="M13.5 -4.7 Q13.9 -1.7 18.2 0.65 32.1 9.0 21.7 18.6 8.9 24.15 0.35 11.0 -8.25 -2.15 -1.75 -6.7 4.7 -11.3 8.9 -9.5 13.05 -7.75 13.5 -4.7 Z" ffdec:has-small-stroke="true" ffdec:original-stroke-width="2.5" fill="none" stroke="#323232" stroke-linecap="round" stroke-linejoin="round" stroke-width="2.9806138266376827"/>
    </g>
    <g id="shape30" transform="matrix(1.0, 0.0, 0.0, 1.0, -0.05, 0.0)">
      <path d="M20.95 23.8 L20.45 24.2 19.9 24.5 Q15.85 26.55 11.15 25.6 5.7 24.5 2.5 19.95 -0.7 15.5 0.25 10.3 1.1 5.1 5.45 2.15 9.95 -0.8 15.35 0.3 20.75 1.35 23.95 5.9 27.1 10.35 26.3 15.65 25.35 20.8 20.95 23.8" fill="#323232" fill-rule="evenodd" stroke="none"/>
    </g>
    <g id="shape31" transform="matrix(1.0, 0.0, 0.0, 1.0, 0.05, -0.05)">
      <path d="M161.05 18.7 Q163.8 25.2 161.55 35.0 144.2 98.85 110.7 146.2 93.8 170.0 73.2 149.55 37.65 107.95 15.7 41.45 9.55 19.2 28.3 12.45 51.55 6.25 76.2 4.45 104.25 2.3 134.15 5.9 L137.2 6.25 147.0 7.65 Q157.7 10.75 161.05 18.7" fill="#e63232" fill-rule="evenodd" stroke="none"/>
      <path d="M160.35 8.0 Q172.85 15.9 168.4 34.7 148.5 105.45 110.2 158.05 90.9 184.5 67.3 161.85 26.75 115.75 1.7 42.0 -5.3 17.35 16.1 9.85 45.05 2.35 75.95 0.6 104.15 -1.05 133.9 2.1 L136.95 2.4 151.8 4.35 Q156.75 5.75 160.35 8.0 M161.05 18.7 Q157.7 10.75 147.0 7.65 L137.2 6.25 134.15 5.9 Q104.25 2.3 76.2 4.45 51.55 6.25 28.3 12.45 9.55 19.2 15.7 41.45 37.65 107.95 73.2 149.55 93.8 170.0 110.7 146.2 144.2 98.85 161.55 35.0 163.8 25.2 161.05 18.7" fill="#bd3232" fill-rule="evenodd" stroke="none"/>
    </g>
    <g id="shape32" transform="matrix(1.0, 0.0, 0.0, 1.0, -8.45, -8.45)">
      <path d="M136.3 14.15 L149.7 16.75 Q154.1 18.35 157.2 20.55 168.0 28.2 162.3 44.15 138.1 104.15 98.6 147.2 78.7 168.8 59.05 147.65 25.85 105.0 9.2 39.45 4.9 17.65 25.1 12.55 52.2 8.0 80.65 8.5 106.6 8.95 133.5 13.6 L136.3 14.15" fill="url(#gradient39)" fill-rule="evenodd" stroke="none"/>
    </g>
    <radialGradient cx="0" cy="0" gradientTransform="matrix(0.3467, 0.0, 0.0, 0.192, 90.5, 8.85)" gradientUnits="userSpaceOnUse" id="gradient39" r="819.2" spreadMethod="pad">
      <stop offset="0.10588235294117647" stop-color="#3e0000"/>
      <stop offset="0.8" stop-color="#3e0000" stop-opacity="0.0"/>
    </radialGradient>
    <g id="shape33" transform="matrix(1.0, 0.0, 0.0, 1.0, 3.75, -1.9)">
      <path d="M65.1 165.25 Q24.55 119.15 -0.5 45.4 -7.5 20.75 13.9 13.25 77.25 -3.15 149.6 7.75 171.9 13.95 166.2 38.1 146.3 108.85 108.0 161.45 88.7 187.9 65.1 165.25 Z" fill="none" stroke="#323232" stroke-linecap="round" stroke-linejoin="round" stroke-width="3.0"/>
    </g>
    <g id="shape34" transform="matrix(1.0, 0.0, 0.0, 1.0, 149.4, 21.3)">
      <path d="M-55.05 -9.5 Q-53.35 -16.75 -36.3 -19.3 -19.0 -21.8 3.75 -17.95 26.55 -14.1 41.6 -6.15 56.45 1.8 55.2 9.1 L32.7 118.6 Q28.65 116.3 20.7 113.75 4.25 108.5 -19.55 104.85 -43.25 101.25 -60.3 101.45 -69.8 101.55 -74.1 102.85 L-55.45 -6.95 -55.25 -8.25 -55.1 -8.95 -55.25 -8.25 -55.3 -7.9 -55.2 -8.65 -55.1 -8.95 -55.05 -9.5" fill="url(#gradient40)" fill-rule="evenodd" stroke="none"/>
      <path d="M-147.9 105.85 L-148.35 104.2 Q-149.2 98.2 -138.75 96.1 -115.35 93.2 -77.7 106.0 L-77.7 106.05 -81.85 127.8 Q-138.8 122.35 -147.9 105.85" fill="url(#gradient41)" fill-rule="evenodd" stroke="none"/>
      <path d="M-148.25 105.9 L-147.9 105.85 Q-138.8 122.35 -81.85 127.8 -39.2 131.9 30.4 129.75 L34.35 129.65 59.05 128.65 59.35 128.65 Q103.9 127.7 112.55 147.75 115.4 167.3 36.95 167.0 38.35 159.4 30.8 152.55 -8.75 128.6 -106.7 141.05 -144.3 127.3 -148.25 105.9 M46.45 160.45 L30.8 152.55 46.45 160.45" fill="url(#gradient42)" fill-rule="evenodd" stroke="none"/>
      <path d="M-55.05 -9.5 Q-53.35 -16.75 -36.3 -19.3 -19.0 -21.8 3.75 -17.95 26.55 -14.1 41.6 -6.15 56.45 1.8 55.2 9.1 L32.7 118.6 M-74.1 102.85 L-55.45 -6.95 -55.3 -7.9 M-55.2 -8.65 L-55.1 -9.3 -55.05 -9.5 M-55.1 -8.95 L-55.25 -8.25 M-148.35 104.2 L-148.25 105.9 Q-144.3 127.3 -106.7 141.05 M-147.9 105.85 L-148.35 104.2 Q-149.2 98.2 -138.75 96.1 -115.35 93.2 -77.7 106.0 L-77.7 105.65 -77.45 104.9 -77.7 106.0 -77.7 106.05 M34.35 129.65 L59.05 128.65 59.35 128.65 Q103.9 127.7 112.55 147.75 115.4 167.3 36.95 167.0 M-81.85 127.8 Q-138.8 122.35 -147.9 105.85" ffdec:has-small-stroke="true" ffdec:original-stroke-width="2.0" fill="none" stroke="#1d242e" stroke-linecap="round" stroke-linejoin="round" stroke-width="2.4640989705547702"/>
      <path d="M36.95 167.0 Q38.35 159.4 30.8 152.55 -8.75 128.6 -106.7 141.05 M30.8 152.55 L46.45 160.45" ffdec:has-small-stroke="true" ffdec:original-stroke-width="2.0" fill="none" stroke="#323232" stroke-linecap="round" stroke-linejoin="round" stroke-width="2.4640989705547702"/>
      <path d="M-77.45 104.9 Q-76.75 103.65 -74.1 102.85 -69.8 101.55 -60.3 101.45 -43.25 101.25 -19.55 104.85 4.25 108.5 20.7 113.75 28.65 116.3 32.7 118.6 34.5 119.55 35.5 120.5 L34.35 129.65 30.4 129.75 Q-39.2 131.9 -81.85 127.8 L-77.7 106.05 -77.7 106.0 -77.45 104.9" fill="url(#gradient43)" fill-rule="evenodd" stroke="none"/>
      <path d="M-77.45 104.9 Q-76.75 103.65 -74.1 102.85 -69.8 101.55 -60.3 101.45 -43.25 101.25 -19.55 104.85 4.25 108.5 20.7 113.75 28.65 116.3 32.7 118.6 34.5 119.55 35.5 120.5 L34.35 129.65 30.4 129.75 Q-39.2 131.9 -81.85 127.8 L-77.7 106.05" ffdec:has-small-stroke="true" ffdec:original-stroke-width="2.0" fill="none" stroke="#1d242e" stroke-linecap="round" stroke-linejoin="round" stroke-width="2.4640989705547702"/>
      <path d="M-77.45 104.9 Q-76.75 103.65 -74.1 102.85 -69.8 101.55 -60.3 101.45 -43.25 101.25 -19.55 104.85 4.25 108.5 20.7 113.75 28.65 116.3 32.7 118.6 34.5 119.55 35.5 120.5 L34.35 129.65 30.4 129.75 Q-39.2 131.9 -81.85 127.8 L-77.7 106.05 -77.7 106.0 -77.45 104.9" fill="url(#gradient44)" fill-rule="evenodd" stroke="none"/>
      <path d="M-77.45 104.9 Q-76.75 103.65 -74.1 102.85 -69.8 101.55 -60.3 101.45 -43.25 101.25 -19.55 104.85 4.25 108.5 20.7 113.75 28.65 116.3 32.7 118.6 34.5 119.55 35.5 120.5 L34.35 129.65 30.4 129.75 Q-39.2 131.9 -81.85 127.8 L-77.7 106.05" ffdec:has-small-stroke="true" ffdec:original-stroke-width="2.0" fill="none" stroke="#1d242e" stroke-linecap="round" stroke-linejoin="round" stroke-width="2.4640989705547702"/>
      <path d="M112.55 149.2 Q103.9 129.15 59.35 130.1 L59.05 130.1 34.35 131.1 30.4 131.2 Q-39.2 133.35 -81.85 129.25 -138.8 123.8 -147.9 107.3 L-148.35 105.65 Q-149.2 99.65 -138.75 97.55 -115.8 94.7 -79.15 106.95" ffdec:has-small-stroke="true" ffdec:original-stroke-width="2.0" fill="none" stroke="#6869a8" stroke-linecap="round" stroke-linejoin="round" stroke-width="2.4640989705547702"/>
    </g>
    <linearGradient gradientTransform="matrix(0.1016, 0.0125, -0.1224, 0.9921, 6.0, 0.4)" gradientUnits="userSpaceOnUse" id="gradient40" spreadMethod="pad" x1="-819.2" x2="819.2">
      <stop offset="0.0" stop-color="#151424"/>
      <stop offset="0.396078431372549" stop-color="#4d4d88"/>
      <stop offset="1.0" stop-color="#151424"/>
    </linearGradient>
    <radialGradient cx="0" cy="0" gradientTransform="matrix(-0.0138, 0.0517, -0.1208, -0.0324, -82.7, 132.9)" gradientUnits="userSpaceOnUse" id="gradient41" r="819.2" spreadMethod="pad">
      <stop offset="0.0" stop-color="#0d0f1e"/>
      <stop offset="0.5333333333333333" stop-color="#2a2f4c"/>
    </radialGradient>
    <radialGradient cx="0" cy="0" gradientTransform="matrix(-0.0085, 0.0751, -0.2624, -0.0295, -19.95, 168.55)" gradientUnits="userSpaceOnUse" id="gradient42" r="819.2" spreadMethod="pad">
      <stop offset="0.24313725490196078" stop-color="#2a2f4c"/>
      <stop offset="0.5019607843137255" stop-color="#1a1d32"/>
    </radialGradient>
    <linearGradient gradientTransform="matrix(0.0659, 0.0067, -0.1014, 0.9945, -16.7, -0.45)" gradientUnits="userSpaceOnUse" id="gradient43" spreadMethod="pad" x1="-819.2" x2="819.2">
      <stop offset="0.050980392156862744" stop-color="#84651e"/>
      <stop offset="0.49019607843137253" stop-color="#f7e5a3"/>
      <stop offset="0.8509803921568627" stop-color="#9f7a24"/>
    </linearGradient>
    <linearGradient gradientTransform="matrix(0.0659, 0.0067, -0.1014, 0.9945, -16.7, -0.45)" gradientUnits="userSpaceOnUse" id="gradient44" spreadMethod="pad" x1="-819.2" x2="819.2">
      <stop offset="0.050980392156862744" stop-color="#84651e"/>
      <stop offset="0.49019607843137253" stop-color="#f7e5a3"/>
      <stop offset="0.8509803921568627" stop-color="#9f7a24"/>
    </linearGradient>
    <g id="shape35" transform="matrix(1.0, 0.0, 0.0, 1.0, 21.0, 22.1)">
      <path d="M17.1 -12.95 Q19.6 -9.35 20.55 -4.6 22.35 4.3 17.65 12.0 12.85 19.65 4.35 21.6 -4.15 23.5 -11.4 18.55 -18.05 14.0 -20.1 6.25 L-20.5 4.65 Q-22.3 -4.3 -17.45 -11.95 -12.7 -19.65 -4.2 -21.55 4.25 -23.45 11.55 -18.5 14.9 -16.2 17.1 -12.95" fill="#000000" fill-opacity="0.43529412" fill-rule="evenodd" stroke="none"/>
    </g>
    <g id="shape36" transform="matrix(1.0, 0.0, 0.0, 1.0, 33.8, 32.8)">
      <path d="M28.6 -15.85 Q35.5 -4.5 31.95 8.2 L31.25 10.4 Q27.35 21.4 16.6 27.4 4.75 33.95 -8.4 30.55 -21.55 27.15 -28.4 15.75 -35.15 4.35 -31.6 -8.25 -29.75 -15.0 -25.5 -20.0 -21.8 -24.45 -16.3 -27.5 -4.5 -34.05 8.65 -30.65 21.8 -27.25 28.6 -15.85" fill="url(#gradient45)" fill-rule="evenodd" stroke="none"/>
      <path d="M28.6 -15.85 Q35.5 -4.5 31.95 8.2 28.4 20.8 16.6 27.4 4.75 33.95 -8.4 30.55 -21.55 27.15 -28.4 15.75 -35.15 4.35 -31.6 -8.25 -28.1 -20.9 -16.3 -27.5 -4.5 -34.05 8.65 -30.65 21.8 -27.25 28.6 -15.85 Z" ffdec:has-small-stroke="true" ffdec:original-stroke-width="2.0" fill="none" stroke="#323232" stroke-linecap="round" stroke-linejoin="round" stroke-width="2.9566340330382594"/>
      <path d="M28.6 -15.85 Q35.5 -4.5 31.95 8.2 28.4 20.8 16.6 27.4 4.75 33.95 -8.4 30.55 -21.55 27.15 -28.4 15.75 -35.15 4.35 -31.6 -8.25 -28.1 -20.9 -16.3 -27.5 -4.5 -34.05 8.65 -30.65 21.8 -27.25 28.6 -15.85 Z" ffdec:has-small-stroke="true" ffdec:original-stroke-width="2.0" fill="none" stroke="#323232" stroke-linecap="round" stroke-linejoin="round" stroke-width="2.9566340330382594"/>
    </g>
    <radialGradient cx="0" cy="0" gradientTransform="matrix(0.0399, 0.0, 0.0, 0.0399, 0.0, 0.0)" gradientUnits="userSpaceOnUse" id="gradient45" r="819.2" spreadMethod="pad">
      <stop offset="0.5725490196078431" stop-color="#e6e6e6"/>
      <stop offset="1.0" stop-color="#d94545"/>
    </radialGradient>
    <g id="shape37" transform="matrix(1.0, 0.0, 0.0, 1.0, 14.4, 14.4)">
      <path d="M10.2 -10.15 Q14.4 -5.95 14.4 0.0 14.4 6.0 10.2 10.2 5.95 14.4 0.0 14.45 -6.0 14.4 -10.2 10.2 -14.4 6.0 -14.4 0.0 -14.4 -5.95 -10.2 -10.15 -6.0 -14.4 0.0 -14.4 5.95 -14.4 10.2 -10.15" fill="#e666cc" fill-rule="evenodd" stroke="none"/>
      <path d="M5.65 -5.1 Q7.8 -2.9 7.85 0.2 7.8 3.3 5.65 5.5 3.45 7.7 0.35 7.7 -2.8 7.7 -4.95 5.5 -7.15 3.3 -7.15 0.2 -7.15 -2.9 -4.95 -5.1 -2.8 -7.3 0.35 -7.25 3.45 -7.3 5.65 -5.1" fill="#993232" fill-rule="evenodd" stroke="none"/>
      <path d="M9.7 -3.4 Q8.25 -1.95 6.2 -1.95 4.1 -1.95 2.65 -3.4 1.2 -4.85 1.2 -6.9 1.2 -9.0 2.65 -10.45 4.1 -11.9 6.2 -11.9 8.25 -11.9 9.7 -10.45 11.15 -9.0 11.15 -6.9 11.15 -4.85 9.7 -3.4 M-6.2 6.35 Q-6.95 5.6 -6.95 4.55 -6.95 3.5 -6.2 2.8 -5.5 2.05 -4.45 2.05 -3.4 2.05 -2.7 2.8 -1.95 3.5 -1.95 4.55 -1.95 5.6 -2.7 6.35 -3.4 7.05 -4.45 7.05 -5.5 7.05 -6.2 6.35" fill="#e6e6e6" fill-rule="evenodd" stroke="none"/>
    </g>
    <g id="shape38" transform="matrix(1.0, 0.0, 0.0, 1.0, 27.45, -17.85)">
      <path d="M16.6 27.4 Q4.75 33.95 -8.4 30.55 -19.35 27.7 -25.95 19.35 1.75 27.7 23.95 22.0 20.8 25.05 16.6 27.4 M8.05 26.75 L-2.2 26.45 Q0.15 28.45 3.2 28.45 6.2 28.45 8.05 26.75" fill="#520000" fill-rule="evenodd" stroke="none"/>
      <path d="M8.05 26.75 Q6.2 28.45 3.2 28.45 0.15 28.45 -2.2 26.45 L8.05 26.75" fill="#710000" fill-rule="evenodd" stroke="none"/>
      <path d="M16.6 27.4 Q4.75 33.95 -8.4 30.55 -19.35 27.7 -25.95 19.35 1.75 27.7 23.95 22.0 20.8 25.05 16.6 27.4 Z" fill="none" stroke="#141414" stroke-linecap="round" stroke-linejoin="round" stroke-width="3.0"/>
    </g>
    <g id="shape39" transform="matrix(1.0, 0.0, 0.0, 1.0, 32.45, 38.8)">
      <path d="M78.05 -37.55 Q90.35 14.2 76.15 32.2 L-31.2 17.45 Q-25.15 4.45 -28.95 -22.7 27.7 -33.6 78.05 -37.55" fill="#713737" fill-rule="evenodd" stroke="none"/>
      <path d="M78.05 -37.55 Q27.7 -33.6 -28.95 -22.7 -25.15 4.45 -31.2 17.45 L76.15 32.2 Q90.35 14.2 78.05 -37.55 Z" fill="none" stroke="#323232" stroke-linecap="round" stroke-linejoin="round" stroke-width="2.5"/>
      <path d="M41.8 15.6 Q39.4 12.6 40.3 11.05 L42.55 7.15 Q43.9 4.75 47.95 1.4 51.95 -1.95 64.25 -1.7 76.5 -1.45 94.9 10.0 95.25 32.1 76.7 35.0 67.1 14.35 59.45 13.0 44.15 18.55 41.8 15.6" fill="#e697d0" fill-rule="evenodd" stroke="none"/>
      <path d="M41.8 15.6 Q39.4 12.6 40.3 11.05 L42.55 7.15 Q43.9 4.75 47.95 1.4 51.95 -1.95 64.25 -1.7 76.5 -1.45 94.9 10.0 95.25 32.1 76.7 35.0 67.1 14.35 59.45 13.0 44.15 18.55 41.8 15.6 Z" fill="none" stroke="#323232" stroke-linecap="round" stroke-linejoin="round" stroke-width="2.5"/>
    </g>
    <g id="shape40" transform="matrix(1.0, 0.0, 0.0, 1.0, 1.7, 0.8)">
      <path d="M84.9 14.0 L85.55 15.55 Q86.65 18.65 85.4 21.6 74.3 24.75 66.1 16.5 65.2 22.0 60.1 23.55 49.95 26.6 43.2 18.05 L41.35 19.75 Q29.05 30.95 14.3 20.25 12.6 22.1 10.45 23.05 8.25 24.15 4.0 23.7 0.35 17.0 1.5 10.0 6.3 11.9 11.25 13.2 15.6 14.35 18.85 11.65 22.15 14.8 30.1 15.35 39.05 15.9 45.05 10.8 47.35 16.3 56.15 15.5 60.1 15.15 63.4 13.25 65.0 12.3 65.4 10.9 74.3 16.7 84.9 14.0" fill="#b9c7c8" fill-rule="evenodd" stroke="none"/>
      <path d="M87.4 23.9 Q82.55 41.35 62.65 41.7 44.25 43.15 24.9 41.8 7.15 40.55 2.15 24.1 -5.3 6.6 1.6 2.9 8.5 -0.85 17.0 5.25 27.5 -5.35 39.9 2.55 L42.7 4.6 Q52.85 -2.75 62.85 4.5 76.65 -3.4 86.15 10.6 89.45 15.45 87.4 23.9 M1.5 10.0 Q0.35 17.0 4.0 23.7 8.25 24.15 10.45 23.05 12.6 22.1 14.3 20.25 29.05 30.95 41.35 19.75 L43.2 18.05 Q49.95 26.6 60.1 23.55 65.2 22.0 66.1 16.5 74.3 24.75 85.4 21.6 86.65 18.65 85.55 15.55 L84.9 14.0 Q76.6 -1.9 64.9 7.2 L64.15 8.0 Q53.15 -0.7 42.1 7.75 29.4 -4.6 18.8 8.05 L18.0 9.25 Q11.0 2.45 6.9 3.8 2.75 5.15 1.5 10.0 M84.7 24.35 Q76.15 27.25 69.05 21.8 L67.05 20.15 Q62.8 29.2 52.6 27.25 47.1 26.15 43.35 21.75 32.9 31.5 19.3 25.5 16.9 24.45 14.65 23.2 10.7 26.75 5.15 26.4 8.4 34.15 19.6 38.2 30.25 40.25 52.7 40.35 75.1 40.45 83.1 28.9 L84.7 24.35" fill="#323232" fill-rule="evenodd" stroke="none"/>
      <path d="M84.9 14.0 Q74.3 16.7 65.4 10.9 65.0 12.3 63.4 13.25 60.1 15.15 56.15 15.5 47.35 16.3 45.05 10.8 39.05 15.9 30.1 15.35 22.15 14.8 18.85 11.65 15.6 14.35 11.25 13.2 6.3 11.9 1.5 10.0 2.75 5.15 6.9 3.8 11.0 2.45 18.0 9.25 L18.8 8.05 Q29.4 -4.6 42.1 7.75 53.15 -0.7 64.15 8.0 L64.9 7.2 Q76.6 -1.9 84.9 14.0" fill="#d3dbdc" fill-rule="evenodd" stroke="none"/>
      <path d="M84.7 24.35 L83.1 28.9 Q75.1 40.45 52.7 40.35 30.25 40.25 19.6 38.2 8.4 34.15 5.15 26.4 10.7 26.75 14.65 23.2 16.9 24.45 19.3 25.5 32.9 31.5 43.35 21.75 47.1 26.15 52.6 27.25 62.8 29.2 67.05 20.15 L69.05 21.8 Q76.15 27.25 84.7 24.35" fill="#c96598" fill-rule="evenodd" stroke="none"/>
    </g>
    <g id="shape41" transform="matrix(1.0, 0.0, 0.0, 1.0, -1.2, 10.7)">
      <path d="M14.6 -5.9 Q21.05 -9.3 28.75 -9.9 59.65 -12.2 73.9 -7.85 88.15 -3.55 88.2 10.35 88.2 24.25 81.35 34.0 74.5 43.7 63.65 37.8 54.05 44.95 43.9 37.75 40.95 39.85 37.3 40.45 28.55 41.45 23.05 33.75 19.75 36.8 16.9 37.5 9.0 39.5 4.7 32.45 0.6 25.65 1.3 16.6 2.0 7.55 4.75 1.55 8.1 -2.5 14.6 -5.9 M70.0 -5.7 Q57.25 -10.2 35.95 -8.2 14.6 -6.25 7.45 1.6 4.75 5.15 3.95 16.5 14.6 8.2 25.05 17.4 35.0 10.35 44.2 17.85 55.25 10.7 64.5 19.1 71.35 11.8 85.0 12.75 85.55 8.8 84.15 3.75 82.75 -1.25 70.0 -5.7 M82.05 27.65 Q84.15 22.4 84.75 15.55 71.0 15.1 63.95 21.9 54.7 13.45 43.65 20.7 41.95 18.95 39.6 18.0 31.75 14.55 24.8 20.15 L20.95 17.85 Q10.55 11.25 3.45 21.4 3.75 26.75 8.05 32.15 13.95 38.2 23.9 30.15 25.4 34.15 28.65 35.75 36.8 39.8 44.35 34.8 54.5 42.25 63.7 34.85 L65.7 35.95 Q74.55 40.4 79.85 32.0 L82.05 27.7 82.05 27.65" fill="#323232" fill-rule="evenodd" stroke="none"/>
      <path d="M70.0 -5.7 Q82.75 -1.25 84.15 3.75 85.55 8.8 85.0 12.75 71.35 11.8 64.5 19.1 55.25 10.7 44.2 17.85 35.0 10.35 25.05 17.4 14.6 8.2 3.95 16.5 4.75 5.15 7.45 1.6 14.6 -6.25 35.95 -8.2 57.25 -10.2 70.0 -5.7" fill="#c96598" fill-rule="evenodd" stroke="none"/>
      <path d="M23.9 30.15 Q26.3 24.8 34.15 25.7 41.95 26.55 44.0 30.7 49.75 24.35 55.95 26.1 62.15 27.8 63.15 30.7 71.25 22.45 82.05 27.65 L82.05 27.7 79.85 32.0 Q74.55 40.4 65.7 35.95 L63.7 34.85 Q54.5 42.25 44.35 34.8 36.8 39.8 28.65 35.75 25.4 34.15 23.9 30.15" fill="#d3dbdc" fill-rule="evenodd" stroke="none"/>
      <path d="M23.9 30.15 Q13.95 38.2 8.05 32.15 3.75 26.75 3.45 21.4 10.55 11.25 20.95 17.85 L24.8 20.15 Q31.75 14.55 39.6 18.0 41.95 18.95 43.65 20.7 54.7 13.45 63.95 21.9 71.0 15.1 84.75 15.55 84.15 22.4 82.05 27.65 71.25 22.45 63.15 30.7 62.15 27.8 55.95 26.1 49.75 24.35 44.0 30.7 41.95 26.55 34.15 25.7 26.3 24.8 23.9 30.15" fill="#a7b9ba" fill-rule="evenodd" stroke="none"/>
    </g>
    <g id="shape42" transform="matrix(1.0, 0.0, 0.0, 1.0, 39.0, 28.45)">
      <path d="M-31.15 19.5 Q-40.1 14.55 -34.95 8.75 -33.25 6.75 -30.9 5.75 -26.35 3.75 -19.45 5.35 -9.15 7.75 -1.45 11.35 6.25 14.9 15.1 18.3 23.95 21.7 28.9 23.1 33.85 24.5 42.6 25.0 51.3 25.45 58.25 22.5 65.2 19.45 68.7 8.15 72.15 -3.2 71.55 -16.3 70.9 -29.45 46.2 -23.05 21.45 -16.7 5.1 -14.1 -11.3 -11.5 -24.65 -13.5 -30.85 -14.45 -34.15 -15.85 L-34.2 -15.85 Q-37.9 -17.45 -37.75 -19.6 -37.05 -24.4 -32.3 -27.2" fill="none" stroke="#323232" stroke-linecap="round" stroke-linejoin="round" stroke-width="2.5"/>
    </g>
    <g id="shape43" transform="matrix(1.0, 0.0, 0.0, 1.0, -126.85, -11.5)">
      <path d="M129.75 14.95 Q127.9 12.7 132.25 11.65 136.65 10.85 141.45 14.0 L143.7 15.1 190.15 43.05 Q194.75 45.95 199.15 49.1 L200.35 49.95 Q204.6 53.1 208.6 56.75 L213.25 61.85 213.25 61.9 Q217.75 68.65 214.1 75.1 210.45 81.5 205.15 80.7 199.9 79.85 190.3 69.3 180.7 58.75 165.75 47.1 156.2 39.6 146.15 32.55 L139.4 27.85 126.85 19.1 Q126.75 17.55 128.0 17.45 L150.2 32.85 163.35 42.55 Q171.65 48.7 179.85 55.7 188.05 62.65 195.0 70.2 201.9 77.7 205.75 77.35 209.55 77.0 211.7 73.4 214.5 67.5 210.4 61.85 205.35 56.7 199.7 52.35 194.55 48.4 188.9 45.05 L142.8 17.1 Q135.8 11.9 129.75 14.95 M211.7 73.4 L211.75 73.4 211.7 73.4" fill="#323232" fill-rule="evenodd" stroke="none"/>
      <path d="M211.7 73.4 L211.75 73.4 211.7 73.4" fill="#bd1c1c" fill-rule="evenodd" stroke="none"/>
      <path d="M211.7 73.4 Q209.55 77.0 205.75 77.35 201.9 77.7 195.0 70.2 188.05 62.65 179.85 55.7 171.65 48.7 163.35 42.55 L150.2 32.85 128.0 17.45 129.6 15.15 129.45 15.1 129.55 15.05 129.75 14.95 175.55 46.75 Q184.8 52.85 190.15 58.1 195.45 63.3 202.55 68.6 207.85 72.55 211.7 73.4 M129.75 15.0 L130.1 15.35 129.75 14.95 129.75 15.0" fill="#bd3232" fill-rule="evenodd" stroke="none"/>
      <path d="M129.75 14.95 Q135.8 11.9 142.8 17.1 L188.9 45.05 Q194.55 48.4 199.7 52.35 205.35 56.7 210.4 61.85 214.5 67.5 211.7 73.4 207.85 72.55 202.55 68.6 195.45 63.3 190.15 58.1 184.8 52.85 175.55 46.75 L129.75 14.95 130.1 15.35 129.75 15.0 129.75 14.95" fill="#e63232" fill-rule="evenodd" stroke="none"/>
    </g>
    <g id="shape44" transform="matrix(1.0, 0.0, 0.0, 1.0, 33.8, 32.8)">
      <path d="M28.6 -15.85 Q35.5 -4.5 31.95 8.2 L31.25 10.4 Q27.35 21.4 16.6 27.4 4.75 33.95 -8.4 30.55 -21.55 27.15 -28.4 15.75 -35.15 4.35 -31.6 -8.25 -29.75 -15.0 -25.5 -20.0 -21.8 -24.45 -16.3 -27.5 -4.5 -34.05 8.65 -30.65 21.8 -27.25 28.6 -15.85" fill="url(#gradient46)" fill-rule="evenodd" stroke="none"/>
      <path d="M28.6 -15.85 Q35.5 -4.5 31.95 8.2 28.4 20.8 16.6 27.4 4.75 33.95 -8.4 30.55 -21.55 27.15 -28.4 15.75 -35.15 4.35 -31.6 -8.25 -28.1 -20.9 -16.3 -27.5 -4.5 -34.05 8.65 -30.65 21.8 -27.25 28.6 -15.85 Z" ffdec:has-small-stroke="true" ffdec:original-stroke-width="2.0" fill="none" stroke="#323232" stroke-linecap="round" stroke-linejoin="round" stroke-width="2.4157203146935315"/>
      <path d="M28.6 -15.85 Q35.5 -4.5 31.95 8.2 28.4 20.8 16.6 27.4 4.75 33.95 -8.4 30.55 -21.55 27.15 -28.4 15.75 -35.15 4.35 -31.6 -8.25 -28.1 -20.9 -16.3 -27.5 -4.5 -34.05 8.65 -30.65 21.8 -27.25 28.6 -15.85 Z" ffdec:has-small-stroke="true" ffdec:original-stroke-width="2.0" fill="none" stroke="#323232" stroke-linecap="round" stroke-linejoin="round" stroke-width="2.4157203146935315"/>
    </g>
    <radialGradient cx="0" cy="0" gradientTransform="matrix(0.0399, 0.0, 0.0, 0.0399, 0.0, 0.0)" gradientUnits="userSpaceOnUse" id="gradient46" r="819.2" spreadMethod="pad">
      <stop offset="0.5725490196078431" stop-color="#e6e6e6"/>
      <stop offset="1.0" stop-color="#d94545"/>
    </radialGradient>
    <g id="shape45" transform="matrix(1.0, 0.0, 0.0, 1.0, -196.95, -59.65)">
      <path d="M247.55 209.05 L250.2 209.05 Q251.5 206.65 250.65 204.0 249.65 200.95 247.2 195.95 L237.75 177.45 Q236.4 174.55 236.05 172.75 235.5 170.3 235.45 167.8 L234.75 153.8 230.7 117.05 229.15 107.5 Q228.05 101.85 226.6 96.25 225.35 91.5 223.7 86.9 221.4 80.7 218.3 74.85 215.7 70.05 212.55 65.4 210.2 61.45 207.35 59.85 212.0 61.05 214.9 64.9 217.8 68.75 220.2 73.75 L225.0 83.85 Q227.35 89.55 228.85 95.5 L231.4 106.95 233.0 116.65 235.65 137.65 237.6 162.0 Q237.9 167.3 237.7 168.0 242.2 182.8 247.05 191.75 251.85 200.7 252.4 202.35 L253.0 205.1 253.15 207.5 252.95 208.5 252.2 210.05 251.0 211.4 246.0 211.8 Q241.45 212.05 233.25 207.1 225.0 202.05 223.1 200.0 221.15 197.95 219.05 194.55 216.8 190.9 215.45 187.15 213.6 182.2 213.0 177.05 212.45 171.9 212.85 166.6 213.35 160.75 213.4 154.9 213.5 146.1 212.65 137.25 211.8 128.5 210.35 119.85 208.8 111.05 206.55 102.5 203.45 90.95 199.15 79.7 198.4 77.95 197.35 73.3 196.3 68.65 198.0 63.95 197.8 71.55 200.9 78.35 203.45 84.05 205.35 90.4 L211.3 113.65 213.35 125.3 214.85 137.05 Q215.8 145.9 215.75 154.85 L215.5 174.8 Q215.45 176.8 215.8 178.85 217.05 187.6 222.1 194.8 L224.5 197.9 Q229.35 203.65 236.55 205.95 L247.55 209.05" fill="#323232" fill-rule="evenodd" stroke="none"/>
      <path d="M198.0 63.95 Q199.8 69.1 201.75 73.4 203.65 77.65 206.95 82.6 210.2 87.55 212.5 96.55 L217.25 116.9 220.75 138.2 223.05 160.35 224.05 183.2 Q230.75 194.15 247.55 209.05 L236.55 205.95 Q229.35 203.65 224.5 197.9 L222.1 194.8 Q217.05 187.6 215.8 178.85 215.45 176.8 215.5 174.8 L215.75 154.85 Q215.8 145.9 214.85 137.05 L213.35 125.3 211.3 113.65 205.35 90.4 Q203.45 84.05 200.9 78.35 197.8 71.55 198.0 63.95" fill="#bd3232" fill-rule="evenodd" stroke="none"/>
      <path d="M247.55 209.05 Q230.75 194.15 224.05 183.2 L223.05 160.35 220.75 138.2 217.25 116.9 212.5 96.55 Q210.2 87.55 206.95 82.6 203.65 77.65 201.75 73.4 199.8 69.1 198.0 63.95 200.35 58.7 207.35 59.85 210.2 61.45 212.55 65.4 215.7 70.05 218.3 74.85 221.4 80.7 223.7 86.9 225.35 91.5 226.6 96.25 228.05 101.85 229.15 107.5 L230.7 117.05 234.75 153.8 235.45 167.8 Q235.5 170.3 236.05 172.75 236.4 174.55 237.75 177.45 L247.2 195.95 Q249.65 200.95 250.65 204.0 251.5 206.65 250.2 209.05 L247.55 209.05" fill="#e63232" fill-rule="evenodd" stroke="none"/>
    </g>
    <g id="shape46" transform="matrix(1.0, 0.0, 0.0, 1.0, 14.35, 5.7)">
      <path d="M9.75 -1.0 L12.3 1.6 Q13.65 3.15 14.35 5.75 13.95 5.0 12.2 3.8 6.35 -0.3 -0.75 -0.9 -7.9 -1.55 -12.9 -0.1 -14.25 -0.7 -14.35 -1.9 -14.5 -3.1 -13.7 -4.3 -11.05 -5.35 -5.7 -5.65 -0.35 -5.95 4.1 -3.95 8.5 -2.05 9.75 -1.0" fill="#323232" fill-rule="evenodd" stroke="none"/>
    </g>
    <g id="shape47" transform="matrix(1.0, 0.0, 0.0, 1.0, -112.35, 74.0)">
      <path d="M119.0 -42.4 L123.2 -43.05 Q161.4 -43.4 168.9 -40.7 134.15 -40.1 119.0 -42.4 M125.8 -48.7 Q124.3 -48.75 119.7 -49.75 L159.85 -51.75 Q134.45 -48.55 125.8 -48.7 M157.25 -44.95 L123.55 -44.0 112.35 -44.95 125.55 -46.55 115.75 -47.3 Q121.75 -47.65 133.45 -47.8 L164.2 -48.15 154.9 -47.05 149.7 -46.7 Q154.05 -46.15 157.25 -44.95" fill="url(#gradient47)" fill-rule="evenodd" stroke="none"/>
      <path d="M149.8 -40.8 Q147.65 -42.5 146.65 -44.4 145.25 -47.15 145.25 -52.2 145.25 -56.55 149.2 -60.05 153.45 -63.75 160.0 -64.0 160.05 -67.9 160.8 -69.0 163.35 -73.0 173.45 -73.0 183.5 -73.0 188.3 -67.9 190.1 -65.95 190.95 -63.7 190.35 -59.4 186.6 -55.65 181.5 -50.5 167.95 -49.85 L176.0 -48.75 178.55 -48.8 180.45 -47.7 Q182.0 -46.6 182.0 -44.7 182.0 -43.1 180.6 -42.2 179.65 -41.55 177.35 -40.95 L178.2 -39.4 178.7 -38.0 Q178.7 -35.6 173.7 -33.1 168.7 -30.6 164.0 -30.6 158.6 -30.6 154.25 -32.45 L150.5 -34.45 Q148.8 -37.45 149.8 -40.8 L151.9 -39.35 149.8 -40.8 M160.0 -64.0 L161.0 -64.05 165.05 -63.6 165.45 -63.5 165.05 -63.6 161.0 -64.05 160.0 -64.0" fill="url(#gradient48)" fill-rule="evenodd" stroke="none"/>
      <path d="M190.95 -63.7 Q191.6 -61.9 191.6 -59.95 191.6 -57.6 189.85 -54.7 188.85 -53.05 187.45 -51.8 L189.15 -50.9 Q195.65 -47.05 195.65 -40.95 195.65 -38.9 194.05 -37.6 192.7 -36.5 190.75 -36.3 190.45 -30.5 182.55 -27.05 177.05 -24.7 173.35 -24.7 162.0 -24.7 154.75 -30.0 151.8 -32.15 150.5 -34.45 L154.25 -32.45 Q158.6 -30.6 164.0 -30.6 168.7 -30.6 173.7 -33.1 178.7 -35.6 178.7 -38.0 L178.2 -39.4 177.35 -40.95 Q179.65 -41.55 180.6 -42.2 182.0 -43.1 182.0 -44.7 182.0 -46.6 180.45 -47.7 L178.55 -48.8 176.0 -48.75 167.95 -49.85 Q181.5 -50.5 186.6 -55.65 190.35 -59.4 190.95 -63.7 M181.15 -49.1 Q184.95 -49.7 187.45 -51.8 184.95 -49.7 181.15 -49.1" fill="url(#gradient49)" fill-rule="evenodd" stroke="none"/>
      <path d="M160.0 -64.0 Q153.45 -63.75 149.2 -60.05 145.25 -56.55 145.25 -52.2 145.25 -47.15 146.65 -44.4 147.65 -42.5 149.8 -40.8 L151.9 -39.35 M160.0 -64.0 Q160.05 -67.9 160.8 -69.0 163.35 -73.0 173.45 -73.0 183.5 -73.0 188.3 -67.9 190.1 -65.95 190.95 -63.7 191.6 -61.9 191.6 -59.95 191.6 -57.6 189.85 -54.7 188.85 -53.05 187.45 -51.8 L189.15 -50.9 Q195.65 -47.05 195.65 -40.95 195.65 -38.9 194.05 -37.6 192.7 -36.5 190.75 -36.3 190.45 -30.5 182.55 -27.05 177.05 -24.7 173.35 -24.7 162.0 -24.7 154.75 -30.0 151.8 -32.15 150.5 -34.45 148.8 -37.45 149.8 -40.8 M165.45 -63.5 L165.05 -63.6 161.0 -64.05 160.0 -64.0 M187.45 -51.8 Q184.95 -49.7 181.15 -49.1" fill="none" stroke="#5c6775" stroke-linecap="round" stroke-linejoin="round" stroke-width="2.0"/>
    </g>
    <radialGradient cx="0" cy="0" gradientTransform="matrix(0.0386, 0.0, 0.0, 0.0386, 146.8, -46.7)" gradientUnits="userSpaceOnUse" id="gradient47" r="819.2" spreadMethod="pad">
      <stop offset="0.11372549019607843" stop-color="#cddeed"/>
      <stop offset="0.9058823529411765" stop-color="#ffffff"/>
    </radialGradient>
    <radialGradient cx="0" cy="0" gradientTransform="matrix(0.0403, 0.0, 0.0, 0.0403, 166.0, -59.5)" gradientUnits="userSpaceOnUse" id="gradient48" r="819.2" spreadMethod="pad">
      <stop offset="0.26666666666666666" stop-color="#ffffff"/>
      <stop offset="0.8980392156862745" stop-color="#bed4e7"/>
    </radialGradient>
    <radialGradient cx="0" cy="0" gradientTransform="matrix(0.0403, 0.0, 0.0, 0.0403, 166.0, -59.5)" gradientUnits="userSpaceOnUse" id="gradient49" r="819.2" spreadMethod="pad">
      <stop offset="0.24705882352941178" stop-color="#cddeed"/>
      <stop offset="0.8823529411764706" stop-color="#97afc5"/>
    </radialGradient>
    <g id="shape48" transform="matrix(1.0, 0.0, 0.0, 1.0, 0.0, 0.0)">
      <path d="M100.6 0.0 L100.6 18.0 0.0 18.0 0.0 0.0 100.6 0.0" fill="#ffffff" fill-opacity="0.0" fill-rule="evenodd" stroke="none"/>
    </g>
  </defs>
</svg>
