<?xml version="1.0" encoding="UTF-8" standalone="no"?>
<svg xmlns:ffdec="https://www.free-decompiler.com/flash" xmlns:xlink="http://www.w3.org/1999/xlink" ffdec:objectType="frame" height="201.6px" width="236.75px" xmlns="http://www.w3.org/2000/svg">
  <g transform="matrix(1.0, 0.0, 0.0, 1.0, 9.95, -56.6)">
    <use ffdec:characterId="2451" height="201.6" transform="matrix(1.0, 0.0, 0.0, 1.0, -9.95, 56.6)" width="236.75" xlink:href="#shape0"/>
    <use ffdec:characterId="2453" height="7.2" transform="matrix(1.0, 0.0, 0.0, 1.0, 35.75, 89.7)" width="16.5" xlink:href="#sprite0"/>
    <use ffdec:characterId="2455" height="4.8" transform="matrix(1.0, 0.0, 0.0, 1.0, 38.4, 100.2)" width="9.8" xlink:href="#sprite1"/>
    <use ffdec:characterId="2457" height="4.15" transform="matrix(1.0, 0.0, 0.0, 1.0, 50.25, 98.5)" width="7.85" xlink:href="#sprite2"/>
    <use ffdec:characterId="2453" height="7.2" transform="matrix(0.9994, 0.0345, -0.0345, 0.9994, 42.0158, 106.083)" width="16.5" xlink:href="#sprite0"/>
    <use ffdec:characterId="2459" height="5.3" transform="matrix(1.0, 0.0, 0.0, 1.0, 44.8, 125.15)" width="12.6" xlink:href="#sprite3"/>
    <use ffdec:characterId="2461" height="2.5" transform="matrix(1.0, 0.0, 0.0, 1.0, 59.35, 125.1)" width="6.9" xlink:href="#sprite4"/>
    <use ffdec:characterId="2455" height="4.8" transform="matrix(-0.995, -0.1001, 0.1001, -0.995, 57.6025, 139.6478)" width="9.8" xlink:href="#sprite1"/>
    <use ffdec:characterId="2457" height="4.15" transform="matrix(1.0, 0.0, 0.0, 1.0, 66.8, 135.15)" width="7.85" xlink:href="#sprite2"/>
    <use ffdec:characterId="2455" height="4.8" transform="matrix(0.9553, 0.2957, -0.2957, 0.9553, 75.3554, 134.3723)" width="9.8" xlink:href="#sprite1"/>
    <use ffdec:characterId="2453" height="7.2" transform="matrix(0.9157, 0.4018, -0.4018, 0.9157, 89.623, 134.987)" width="16.5" xlink:href="#sprite0"/>
    <use ffdec:characterId="2455" height="4.8" transform="matrix(0.959, 0.2832, -0.2832, 0.959, 84.2479, 144.9768)" width="9.8" xlink:href="#sprite1"/>
    <use ffdec:characterId="2455" height="4.8" transform="matrix(1.0, 0.0, 0.0, 1.0, 57.15, 171.1)" width="9.8" xlink:href="#sprite1"/>
    <use ffdec:characterId="2455" height="4.8" transform="matrix(-0.995, -0.1001, 0.1001, -0.995, 67.7525, 185.4978)" width="9.8" xlink:href="#sprite1"/>
    <use ffdec:characterId="2455" height="4.8" transform="matrix(-0.995, -0.1001, 0.1001, -0.995, 204.7025, 176.5978)" width="9.8" xlink:href="#sprite1"/>
    <use ffdec:characterId="2453" height="7.2" transform="matrix(0.9994, 0.0345, -0.0345, 0.9994, 188.4658, 163.083)" width="16.5" xlink:href="#sprite0"/>
    <use ffdec:characterId="2453" height="7.2" transform="matrix(0.9994, 0.0345, -0.0345, 0.9994, 175.6658, 109.333)" width="16.5" xlink:href="#sprite0"/>
    <use ffdec:characterId="2457" height="4.15" transform="matrix(0.9736, -0.2284, 0.2284, 0.9736, 43.4477, 118.516)" width="7.85" xlink:href="#sprite2"/>
    <use ffdec:characterId="2455" height="4.8" transform="matrix(0.9975, 0.0697, -0.0697, 0.9975, 53.1826, 115.3662)" width="9.8" xlink:href="#sprite1"/>
    <use ffdec:characterId="2453" height="7.2" transform="matrix(1.0, -0.1722, 0.0922, 0.9841, 125.7585, 126.7432)" width="16.5" xlink:href="#sprite0"/>
    <use ffdec:characterId="2455" height="4.8" transform="matrix(1.0, -0.1722, 0.0922, 0.9841, 129.3085, 136.6432)" width="9.8" xlink:href="#sprite1"/>
    <use ffdec:characterId="2457" height="4.15" transform="matrix(1.0, -0.1722, 0.0922, 0.9841, 141.0039, 132.9354)" width="7.85" xlink:href="#sprite2"/>
    <use ffdec:characterId="2453" height="7.2" transform="matrix(1.0026, -0.1381, 0.0576, 0.9895, 151.6728, 127.1238)" width="16.5" xlink:href="#sprite0"/>
    <use ffdec:characterId="2459" height="5.3" transform="matrix(1.011, 0.0873, -0.1606, 0.9753, 174.4329, 120.27)" width="12.6" xlink:href="#sprite3"/>
    <use ffdec:characterId="2455" height="4.8" transform="matrix(-0.9621, 0.2967, -0.2159, -0.9728, 141.5282, 147.2894)" width="9.8" xlink:href="#sprite1"/>
    <use ffdec:characterId="2457" height="4.15" transform="matrix(0.9525, -0.3924, 0.3181, 0.9188, 162.0623, 117.3172)" width="7.85" xlink:href="#sprite2"/>
    <use ffdec:characterId="2455" height="4.8" transform="matrix(1.004, -0.1031, 0.0222, 0.9937, 145.488, 120.1044)" width="9.8" xlink:href="#sprite1"/>
    <use ffdec:characterId="2453" height="7.2" transform="matrix(1.0, 0.0, 0.0, 1.0, 144.25, 139.0)" width="16.5" xlink:href="#sprite0"/>
    <use ffdec:characterId="2455" height="4.8" transform="matrix(1.0, 0.0, 0.0, 1.0, 148.05, 150.65)" width="9.8" xlink:href="#sprite1"/>
    <use ffdec:characterId="2457" height="4.15" transform="matrix(0.9755, -0.2199, 0.2199, 0.9755, 134.6511, 156.2612)" width="7.85" xlink:href="#sprite2"/>
    <use ffdec:characterId="2453" height="7.2" transform="matrix(0.9994, 0.0345, -0.0345, 0.9994, 159.7658, 145.533)" width="16.5" xlink:href="#sprite0"/>
    <use ffdec:characterId="2459" height="5.3" transform="matrix(0.9954, -0.0956, 0.1153, 1.2014, 137.7889, 162.637)" width="12.6" xlink:href="#sprite3"/>
    <use ffdec:characterId="2455" height="4.8" transform="matrix(-1.002, -0.0251, -0.0152, -1.2049, 177.5578, 160.5548)" width="9.8" xlink:href="#sprite1"/>
    <use ffdec:characterId="2457" height="4.15" transform="matrix(0.9428, -0.3674, 0.3396, 1.1478, 154.1559, 159.3914)" width="7.85" xlink:href="#sprite2"/>
    <use ffdec:characterId="2455" height="4.8" transform="matrix(0.9975, 0.0697, -0.0697, 0.9975, 180.7326, 143.8662)" width="9.8" xlink:href="#sprite1"/>
  </g>
  <defs>
    <g id="shape0" transform="matrix(1.0, 0.0, 0.0, 1.0, 9.95, -56.6)">
      <path d="M209.85 206.3 Q204.85 206.2 199.95 206.35 L202.5 216.9 194.6 217.25 198.7 231.1 Q160.8 225.85 122.95 234.1 69.65 229.65 26.1 258.2 10.0 197.6 -9.95 139.05 L1.55 133.75 -4.15 116.95 9.05 111.6 4.8 97.95 7.4 96.75 Q11.45 94.9 15.5 93.45 22.45 90.95 29.15 89.7 L34.15 88.95 Q55.55 86.35 74.75 96.65 L79.4 99.35 Q88.2 104.85 96.5 113.15 129.25 62.9 188.3 89.6 195.4 149.75 209.85 206.3" fill="#000033" fill-opacity="0.4" fill-rule="evenodd" stroke="none"/>
      <path d="M219.8 189.55 Q205.35 133.0 198.25 72.85 139.2 46.15 106.45 96.4 98.15 88.1 89.35 82.6 L84.7 79.9 Q65.5 69.6 44.1 72.2 L39.1 72.95 Q32.4 74.2 25.45 76.7 21.4 78.15 17.35 80.0 L14.75 81.2 19.0 94.85 5.8 100.2 11.5 117.0 0.0 122.3 Q19.95 180.85 36.05 241.45 79.6 212.9 132.9 217.35 170.75 209.1 208.65 214.35 L204.55 200.5 212.45 200.15 209.9 189.6 Q214.8 189.45 219.8 189.55 Z" fill="none" stroke="#000000" stroke-linecap="round" stroke-linejoin="round" stroke-width="14.0"/>
      <path d="M19.0 94.85 L14.75 81.2 Q66.2 56.3 106.45 96.4 139.2 46.15 198.25 72.85 205.35 133.0 219.8 189.55 214.8 189.45 209.9 189.6 168.2 190.7 130.7 207.35 89.15 186.95 49.1 209.6 36.3 151.45 19.0 94.85" fill="#ffffff" fill-rule="evenodd" stroke="none"/>
      <path d="M204.55 200.5 L208.65 214.35 Q170.75 209.1 132.9 217.35 79.6 212.9 36.05 241.45 19.95 180.85 0.0 122.3 L11.5 117.0 Q28.5 168.4 42.55 222.8 93.5 193.65 131.8 212.35 167.5 202.65 204.55 200.5" fill="#4782dc" fill-rule="evenodd" stroke="none"/>
      <path d="M19.0 94.85 Q36.3 151.45 49.1 209.6 89.15 186.95 130.7 207.35 168.2 190.7 209.9 189.6 L212.45 200.15 204.55 200.5 Q167.5 202.65 131.8 212.35 93.5 193.65 42.55 222.8 28.5 168.4 11.5 117.0 L5.8 100.2 19.0 94.85" fill="#b2c7e7" fill-rule="evenodd" stroke="none"/>
      <path d="M209.9 189.6 Q214.8 189.45 219.8 189.55 205.35 133.0 198.25 72.85 139.2 46.15 106.45 96.4 66.2 56.3 14.75 81.2 L19.0 94.85 5.8 100.2 11.5 117.0 0.0 122.3 M209.9 189.6 L212.45 200.15 204.55 200.5 208.65 214.35" fill="none" stroke="#264a83" stroke-linecap="round" stroke-linejoin="round" stroke-width="7.0"/>
      <path d="M208.65 214.35 Q170.75 209.1 132.9 217.35 79.6 212.9 36.05 241.45 19.95 180.85 0.0 122.3" fill="none" stroke="#1f4074" stroke-linecap="round" stroke-linejoin="round" stroke-width="7.0"/>
      <path d="M171.1 77.1 Q178.45 77.95 186.15 80.65 188.15 93.45 190.7 106.65 183.2 106.3 176.05 106.95 L171.1 77.1 M138.7 117.7 Q132.0 121.15 125.75 125.7 L119.8 97.8 Q125.45 91.95 131.4 87.75 L138.7 117.7" fill="#d4ddec" fill-rule="evenodd" stroke="none"/>
      <path d="M176.05 106.95 Q156.0 108.65 138.7 117.7 L131.4 87.75 Q149.85 74.7 171.1 77.1 L176.05 106.95" fill="#a3e7b4" fill-rule="evenodd" stroke="none"/>
      <path d="M71.2 108.55 L77.5 119.0 Q82.55 114.9 91.0 114.0 L84.75 104.15 Q76.2 103.25 71.2 108.55 M107.5 141.85 Q84.55 130.05 69.05 132.9 L56.65 86.2 Q74.8 87.5 95.6 99.95 102.15 120.7 107.5 141.85" fill="#fcf0c9" fill-rule="evenodd" stroke="none"/>
      <path d="M71.2 108.55 Q76.2 103.25 84.75 104.15 L91.0 114.0 Q82.55 114.9 77.5 119.0 L71.2 108.55" fill="#f7c1c1" fill-rule="evenodd" stroke="none"/>
      <path d="M58.2 165.65 Q55.75 166.15 53.45 166.95 50.85 154.4 47.85 142.1 60.05 138.55 76.9 142.1 80.95 153.0 82.1 165.95 L78.35 165.35 76.8 151.4 71.3 144.65 Q67.3 144.35 63.3 147.6 L65.2 155.75 59.2 156.7 58.2 165.65" fill="#e6c5ec" fill-rule="evenodd" stroke="none"/>
      <path d="M58.2 165.65 L59.2 156.7 65.2 155.75 63.3 147.6 Q67.3 144.35 71.3 144.65 L76.8 151.4 78.35 165.35 Q67.15 163.8 58.2 165.65" fill="#ec9cc3" fill-rule="evenodd" stroke="none"/>
    </g>
    <g id="sprite0" transform="matrix(1.0, 0.0, 0.0, 1.0, 0.5, 0.45)">
      <use ffdec:characterId="2452" height="7.2" transform="matrix(1.0, 0.0, 0.0, 1.0, -0.5, -0.45)" width="16.5" xlink:href="#shape1"/>
    </g>
    <g id="shape1" transform="matrix(1.0, 0.0, 0.0, 1.0, 0.5, 0.45)">
      <path d="M15.6 -0.4 L16.0 -0.1 Q16.0 2.45 14.35 3.45 L12.55 3.95 Q11.5 3.95 10.9 3.45 9.95 2.7 10.3 1.05 L10.05 0.95 8.8 2.55 Q7.45 4.05 5.6 4.55 4.95 5.1 4.9 3.95 L4.8 1.85 2.9 4.05 0.05 6.6 -0.3 6.5 Q-0.5 7.15 -0.5 6.15 3.45 1.3 5.1 0.5 L5.25 0.45 Q5.75 0.65 5.9 3.4 L7.9 1.6 Q9.65 -0.1 10.15 -0.1 11.45 -0.1 11.3 1.2 11.15 2.7 12.35 2.95 L14.05 1.1 15.4 -0.45 15.6 -0.4" fill="#999999" fill-rule="evenodd" stroke="none"/>
    </g>
    <g id="sprite1" transform="matrix(1.0, 0.0, 0.0, 1.0, 0.5, 0.45)">
      <use ffdec:characterId="2454" height="4.8" transform="matrix(1.0, 0.0, 0.0, 1.0, -0.5, -0.45)" width="9.8" xlink:href="#shape2"/>
    </g>
    <g id="shape2" transform="matrix(1.0, 0.0, 0.0, 1.0, 0.5, 0.45)">
      <path d="M9.15 0.35 L9.3 1.05 Q9.3 2.5 7.5 2.5 7.0 2.5 6.05 0.8 L4.3 2.2 3.0 3.1 Q2.15 3.1 1.75 1.45 L0.3 4.2 -0.1 4.25 Q-0.5 4.65 -0.5 3.65 0.2 0.4 1.85 -0.3 2.35 0.05 2.85 2.05 L3.9 1.05 Q4.9 0.2 6.15 -0.45 L7.3 1.3 7.4 1.45 8.85 0.4 9.15 0.35" fill="#999999" fill-rule="evenodd" stroke="none"/>
    </g>
    <g id="sprite2" transform="matrix(1.0, 0.0, 0.0, 1.0, 0.45, 0.5)">
      <use ffdec:characterId="2456" height="4.15" transform="matrix(1.0, 0.0, 0.0, 1.0, -0.45, -0.5)" width="7.85" xlink:href="#shape3"/>
    </g>
    <g id="shape3" transform="matrix(1.0, 0.0, 0.0, 1.0, 0.45, 0.5)">
      <path d="M7.3 2.1 L7.4 2.6 Q7.4 2.8 6.8 2.8 6.2 2.8 6.15 2.45 L5.95 1.05 3.65 3.65 3.2 3.5 Q2.75 3.3 2.55 0.95 0.7 2.15 -0.1 2.3 L-0.25 2.25 Q-0.45 2.7 -0.45 1.7 L1.05 0.65 Q2.5 -0.2 3.05 -0.3 3.55 -0.1 3.55 1.9 L3.55 2.2 Q5.7 -0.25 6.3 -0.5 L6.75 0.05 7.3 2.1" fill="#999999" fill-rule="evenodd" stroke="none"/>
    </g>
    <g id="sprite3" transform="matrix(1.0, 0.0, 0.0, 1.0, 0.5, 0.55)">
      <use ffdec:characterId="2458" height="5.3" transform="matrix(1.0, 0.0, 0.0, 1.0, -0.5, -0.55)" width="12.6" xlink:href="#shape4"/>
    </g>
    <g id="shape4" transform="matrix(1.0, 0.0, 0.0, 1.0, 0.5, 0.55)">
      <path d="M11.8 -0.45 Q12.1 -0.8 12.1 0.2 12.1 1.9 9.3 3.05 8.8 3.05 8.75 2.55 8.65 2.05 8.15 2.05 6.95 2.05 6.1 3.1 L5.3 4.15 4.85 3.4 Q4.4 2.65 3.5 2.65 2.25 2.65 1.35 3.6 L-0.1 4.75 -0.5 4.3 Q1.05 2.3 3.7 1.6 L5.5 3.1 Q6.25 0.3 8.15 0.75 8.75 0.75 9.0 1.15 L9.35 1.9 11.4 -0.45 11.8 -0.45" fill="#999999" fill-rule="evenodd" stroke="none"/>
    </g>
    <g id="sprite4" transform="matrix(1.0, 0.0, 0.0, 1.0, 0.35, 0.35)">
      <use ffdec:characterId="2460" height="2.5" transform="matrix(1.0, 0.0, 0.0, 1.0, -0.35, -0.35)" width="6.9" xlink:href="#shape5"/>
    </g>
    <g id="shape5" transform="matrix(1.0, 0.0, 0.0, 1.0, 0.35, 0.35)">
      <path d="M-0.05 0.95 Q0.35 -0.3 3.45 -0.35 6.5 -0.45 4.65 0.6 L6.55 0.65 Q5.4 1.95 4.55 1.95 L4.0 1.25 Q3.35 0.55 2.3 0.55 2.0 0.55 -0.1 2.1 L-0.35 2.15 -0.05 0.95" fill="#999999" fill-rule="evenodd" stroke="none"/>
    </g>
  </defs>
</svg>
