<?xml version="1.0" encoding="UTF-8" standalone="no"?>
<svg xmlns:ffdec="https://www.free-decompiler.com/flash" xmlns:xlink="http://www.w3.org/1999/xlink" ffdec:objectType="frame" height="41.95px" width="43.15px" xmlns="http://www.w3.org/2000/svg">
  <g transform="matrix(1.0, 0.0, 0.0, 1.0, 21.2, 22.15)">
    <use ffdec:characterId="661" height="41.95" transform="matrix(1.0, 0.0, 0.0, 1.0, -21.2, -22.15)" width="43.15" xlink:href="#shape0"/>
  </g>
  <defs>
    <g id="shape0" transform="matrix(1.0, 0.0, 0.0, 1.0, 21.2, 22.15)">
      <path d="M5.95 -5.45 Q9.85 -8.35 14.15 -10.0 17.05 -11.15 19.5 -9.55 20.25 -9.2 20.55 -8.3 L20.95 -6.0 Q21.05 -4.75 20.3 -3.6 L18.4 -1.5 15.1 1.25 Q16.0 2.0 16.9 5.3 17.8 8.55 18.0 10.9 18.15 13.15 17.25 15.55 16.3 18.0 14.3 18.55 12.25 19.2 8.45 18.1 6.2 17.9 4.75 16.3 3.55 14.95 2.7 13.1 1.4 10.25 0.95 6.9 -0.75 7.05 -2.1 6.35 L-4.15 4.5 -4.65 3.8 Q-6.15 5.8 -7.0 8.3 -7.35 9.2 -8.2 9.9 L-9.95 10.85 -12.45 11.25 -15.65 11.2 Q-17.0 11.15 -18.2 10.15 -19.05 9.5 -19.4 8.5 L-20.1 5.95 Q-20.55 3.25 -19.05 0.75 L-18.15 -0.9 -17.55 -2.3 -17.8 -3.6 -18.6 -7.05 Q-19.3 -10.15 -19.35 -12.5 -19.4 -14.85 -18.6 -17.5 -17.8 -19.95 -15.65 -20.85 L-14.35 -21.15 Q-12.05 -20.55 -10.3 -19.0 -5.2 -14.7 -1.95 -8.85 L1.2 -8.95 Q3.65 -9.35 5.15 -7.3 L5.8 -5.75 5.85 -5.45 5.95 -5.45 Q7.45 0.55 1.3 7.05 7.45 0.55 5.95 -5.45 M-5.7 -3.8 L-4.75 -4.4 Q-6.85 -7.85 -9.0 -9.5 -11.4 -11.45 -11.85 -9.25 -12.1 -8.1 -10.05 -6.0 L-8.0 -4.15 -8.5 -4.1 -8.5 -4.2 Q-11.45 -3.15 -11.7 -1.95 -11.85 -1.05 -10.8 -0.85 -7.8 -0.2 -5.7 -3.15 L-5.7 -3.75 -5.8 -3.75 -5.7 -3.8 M10.25 -1.6 Q8.55 -2.25 8.2 -0.65 8.0 0.3 8.2 0.75 8.5 1.55 9.75 1.8 11.25 2.1 11.55 0.85 11.9 -0.9 10.25 -1.6 M6.8 1.5 Q6.7 1.85 8.4 3.8 10.1 5.85 10.9 6.0 L12.45 6.2 12.6 6.1 12.8 5.6 Q13.1 4.25 12.05 3.35 10.95 2.4 7.1 0.9 L7.0 1.05 Q6.85 1.1 6.8 1.5 M-1.95 -8.85 L-4.5 3.1 -1.95 -8.85" fill="#c24dc4" fill-rule="evenodd" stroke="none"/>
      <path d="M6.8 1.5 Q6.85 1.1 7.0 1.05 L7.1 0.9 Q10.95 2.4 12.05 3.35 13.1 4.25 12.8 5.6 L12.6 6.1 12.45 6.2 10.9 6.0 Q10.1 5.85 8.4 3.8 6.7 1.85 6.8 1.5 M10.25 -1.6 Q11.9 -0.9 11.55 0.85 11.25 2.1 9.75 1.8 8.5 1.55 8.2 0.75 8.0 0.3 8.2 -0.65 8.55 -2.25 10.25 -1.6 M-5.7 -3.8 L-5.8 -3.75 -5.7 -3.75 -5.7 -3.15 Q-7.8 -0.2 -10.8 -0.85 -11.85 -1.05 -11.7 -1.95 -11.45 -3.15 -8.5 -4.2 L-8.5 -4.1 -8.0 -4.15 -10.05 -6.0 Q-12.1 -8.1 -11.85 -9.25 -11.4 -11.45 -9.0 -9.5 -6.85 -7.85 -4.75 -4.4 L-5.7 -3.8" fill="#993399" fill-rule="evenodd" stroke="none"/>
      <path d="M5.95 -5.45 Q9.85 -8.35 14.15 -10.0 17.05 -11.15 19.5 -9.55 20.25 -9.2 20.55 -8.3 L20.95 -6.0 Q21.05 -4.75 20.3 -3.6 L18.4 -1.5 15.1 1.25 Q16.0 2.0 16.9 5.3 17.8 8.55 18.0 10.9 18.15 13.15 17.25 15.55 16.3 18.0 14.3 18.55 12.25 19.2 8.45 18.1 6.2 17.9 4.75 16.3 3.55 14.95 2.7 13.1 1.4 10.25 0.95 6.9 -0.75 7.05 -2.1 6.35 L-4.15 4.5 -4.65 3.8 Q-6.15 5.8 -7.0 8.3 -7.35 9.2 -8.2 9.9 L-9.95 10.85 -12.45 11.25 -15.65 11.2 Q-17.0 11.15 -18.2 10.15 -19.05 9.5 -19.4 8.5 L-20.1 5.95 Q-20.55 3.25 -19.05 0.75 L-18.15 -0.9 -17.55 -2.3 -17.8 -3.6 -18.6 -7.05 Q-19.3 -10.15 -19.35 -12.5 -19.4 -14.85 -18.6 -17.5 -17.8 -19.95 -15.65 -20.85 L-14.35 -21.15 Q-12.05 -20.55 -10.3 -19.0 -5.2 -14.7 -1.95 -8.85 L1.2 -8.95 Q3.65 -9.35 5.15 -7.3 L5.8 -5.75 5.95 -5.45 5.85 -5.45 5.8 -5.75 M-4.5 3.1 L-1.95 -8.85 M5.95 -5.45 Q7.45 0.55 1.3 7.05" fill="none" stroke="#993399" stroke-linecap="round" stroke-linejoin="round" stroke-width="2.0"/>
    </g>
  </defs>
</svg>
