<?xml version="1.0" encoding="UTF-8" standalone="no"?>
<svg xmlns:ffdec="https://www.free-decompiler.com/flash" xmlns:xlink="http://www.w3.org/1999/xlink" ffdec:objectType="frame" height="58.9px" width="73.15px" xmlns="http://www.w3.org/2000/svg">
  <g transform="matrix(1.0, 0.0, 0.0, 1.0, 0.0, 0.0)">
    <use ffdec:characterId="1928" height="58.9" transform="matrix(1.0, 0.0, 0.0, 1.0, 0.0, 0.0)" width="73.15" xlink:href="#sprite0"/>
    <filter id="filter5">
      <feColorMatrix in="SourceGraphic" result="filterResult5" type="matrix" values="0 0 0 0 1.0,0 0 0 0 1.0,0 0 0 0 0.0,0 0 0 1 0"/>
      <feConvolveMatrix divisor="100.0" in="filterResult5" kernelMatrix="1 1 1 1 1 1 1 1 1 1 1 1 1 1 1 1 1 1 1 1 1 1 1 1 1 1 1 1 1 1 1 1 1 1 1 1 1 1 1 1 1 1 1 1 1 1 1 1 1 1 1 1 1 1 1 1 1 1 1 1 1 1 1 1 1 1 1 1 1 1 1 1 1 1 1 1 1 1 1 1 1 1 1 1 1 1 1 1 1 1 1 1 1 1 1 1 1 1 1 1" order="10 10" result="filterResult6"/>
      <feComposite in="SourceGraphic" in2="filterResult6" operator="over" result="filterResult7"/>
    </filter>
    <use ffdec:characterId="1819" filter="url(#filter5)" height="194.9" transform="matrix(0.2799, -0.0073, 0.0073, 0.2799, 3.8703, 2.727)" width="231.45" xlink:href="#sprite1"/>
  </g>
  <defs>
    <g id="sprite0" transform="matrix(1.0, 0.0, 0.0, 1.0, 0.0, 0.0)">
      <use ffdec:characterId="1927" height="58.9" transform="matrix(1.0, 0.0, 0.0, 1.0, 0.0, 0.0)" width="73.15" xlink:href="#shape0"/>
    </g>
    <g id="shape0" transform="matrix(1.0, 0.0, 0.0, 1.0, 0.0, 0.0)">
      <path d="M55.95 0.0 Q67.45 0.0 71.25 7.5 L72.8 12.4 72.9 13.2 73.05 14.05 73.15 16.55 73.15 16.8 73.15 42.1 Q73.15 58.9 55.95 58.9 L17.25 58.9 Q11.85 58.9 8.15 57.3 5.05 55.85 3.1 53.3 0.0 49.2 0.0 42.1 L0.0 16.8 Q0.0 0.0 17.25 0.0 L55.95 0.0" fill="#bc5acf" fill-rule="evenodd" stroke="none"/>
    </g>
    <g id="sprite1" transform="matrix(1.0, 0.0, 0.0, 1.0, 245.1, 44.2)">
      <use ffdec:characterId="1788" height="63.1" transform="matrix(1.0, 0.0, 0.0, 1.0, -245.1, 84.65)" width="231.45" xlink:href="#shape1"/>
      <use ffdec:characterId="1795" height="37.9" transform="matrix(1.0, 0.0, 0.0, 1.0, -82.7, 104.05)" width="48.75" xlink:href="#sprite2"/>
      <use ffdec:characterId="1800" height="127.55" transform="matrix(1.0, 0.0, 0.0, 1.0, -185.55, -4.4)" width="117.35" xlink:href="#sprite5"/>
      <use ffdec:characterId="1801" height="94.3" transform="matrix(1.0, 0.0, 0.0, 1.0, -181.25, 24.55)" width="104.05" xlink:href="#shape9"/>
      <use ffdec:characterId="1803" height="27.75" transform="matrix(1.0, 0.0, 0.0, 1.0, -116.5, 36.35)" width="19.35" xlink:href="#sprite7"/>
      <use ffdec:characterId="1803" height="27.75" transform="matrix(-0.7824, 0.2096, 0.2096, 0.7824, -155.5447, 84.3947)" width="19.35" xlink:href="#sprite8"/>
      <use ffdec:characterId="1808" height="49.35" transform="matrix(1.0, 0.0, 0.0, 1.0, -159.55, -26.5)" width="62.1" xlink:href="#sprite9"/>
      <use ffdec:characterId="1809" height="118.85" transform="matrix(1.0, 0.0, 0.0, 1.0, -184.45, -4.75)" width="106.35" xlink:href="#shape15"/>
      <clipPath id="clipPath0">
        <path d="M -115.5 1.55 L -113.1 12.75 L -137.7 15.35 L -140.4 4.25 L -134.55 3.7 L -134.3 4.95 L -127.35 4.45 L -125.55 6.3 L -116.45 3.55 L -117.85 1.55 Z M -146.15 29.1 L -143.5 30.2 L -137.7 31.85 L -137.2 31.65 L -136.45 31.9 L -132.2 32.85 L -131.9 32.9 L -127.35 33.4 L -121.5 33.55 L -113.55 33.05 L -112.03 33.04 L -110.61 32.99 L -109.28 32.92 L -108.04 32.81 L -107.45 32.75 L -106.89 32.68 L -106.35 32.6 L -105.83 32.52 L -105.34 32.42 L -104.87 32.32 L -104.42 32.22 L -104 32.1 L -104 32.15 L -103.45 32.15 L -103.21 32.19 L -102.96 32.24 L -102.7 32.32 L -102.44 32.41 L -102.16 32.53 L -101.88 32.67 L -101.6 32.82 L -101.3 33 L -100.94 33.27 L -100.59 33.57 L -100.25 33.88 L -99.93 34.21 L -99.6 34.57 L -99.29 34.94 L -98.99 35.34 L -98.7 35.75 L -98.95 36 L -98.97 36.06 L -98.97 36.12 L -98.96 36.19 L -98.94 36.25 L -98.9 36.31 L -98.85 36.38 L -98.71 36.5 L -98.52 36.62 L -98.27 36.75 L -97.96 36.88 L -97.6 37 L -95.55 37.6 L -95.33 37.72 L -95.11 37.86 L -94.89 38.04 L -94.65 38.23 L -94.41 38.46 L -94.17 38.71 L -93.92 38.98 L -93.66 39.29 L -93.4 39.62 L -93.13 39.97 L -92.86 40.35 L -92.58 40.76 L -92 41.65 L -91.4 42.65 L -90.89 43.66 L -90.44 44.6 L -90.07 45.47 L -89.92 45.88 L -89.78 46.26 L -89.65 46.63 L -89.55 46.98 L -89.46 47.31 L -89.39 47.63 L -89.34 47.92 L -89.31 48.2 L -89.3 48.46 L -89.3 48.7 L -89.6 49.4 L -89.9 50.45 L -89.35 51.65 L -89.18 51.82 L -89.03 51.99 L -88.9 52.16 L -88.8 52.33 L -88.72 52.49 L -88.68 52.64 L -88.65 52.8 L -88.65 52.95 L -88.66 53.02 L -88.68 53.12 L -88.78 53.38 L -88.95 53.74 L -89.18 54.19 L -89.47 54.73 L -89.83 55.36 L -90.75 56.9 L -91.42 58.02 L -92.04 58.99 L -92.32 59.41 L -92.6 59.8 L -92.86 60.14 L -93.1 60.45 L -103.6 66 L -103.95 66.2 L -108.55 67.4 L -110 67.71 L -111.46 68 L -112.95 68.26 L -114.45 68.49 L -115.97 68.69 L -117.51 68.87 L -119.07 69.02 L -120.65 69.15 L -133.7 69.1 L -134.5 69.05 L -139.55 68.5 L -140.35 68.3 L -140.72 68.19 L -141.09 68.07 L -141.44 67.95 L -141.77 67.82 L -142.09 67.69 L -142.4 67.55 L -142.69 67.4 L -142.97 67.25 L -143.24 67.09 L -143.49 66.93 L -143.72 66.75 L -143.95 66.57 L -144.16 66.39 L -144.35 66.2 L -144.43 66.14 L -144.57 66.07 L -144.75 65.98 L -144.99 65.89 L -145.62 65.67 L -146.46 65.4 L -147.51 65.09 L -148.77 64.74 L -150.23 64.34 L -151.9 63.9 L -152.63 63.69 L -153.35 63.46 L -154.05 63.21 L -154.73 62.93 L -155.4 62.64 L -156.05 62.33 L -156.68 61.99 L -157.29 61.64 L -157.88 61.26 L -158.46 60.86 L -159.02 60.45 L -159.56 60.01 L -160.08 59.55 L -160.59 59.07 L -161.08 58.57 L -161.55 58.05 L -161.8 57.7 L -161.7 57.6 L -162.05 57.1 L -162.53 56.44 L -162.95 55.81 L -163.31 55.2 L -163.47 54.91 L -163.61 54.62 L -163.74 54.35 L -163.85 54.08 L -163.95 53.81 L -164.03 53.56 L -164.09 53.31 L -164.14 53.06 L -164.18 52.83 L -164.2 52.6 L -163.85 48.65 L -163.85 48.4 L -163.86 48.11 L -163.88 47.78 L -163.93 47.4 L -164.06 46.51 L -164.25 45.45 L -164.75 43.2 L -164.72 42.93 L -164.67 42.65 L -164.58 42.35 L -164.47 42.04 L -164.33 41.72 L -164.15 41.38 L -163.95 41.03 L -163.73 40.66 L -163.47 40.28 L -163.18 39.89 L -162.86 39.49 L -162.52 39.07 L -162.14 38.63 L -161.74 38.19 L -161.31 37.72 L -160.85 37.25 L -160.19 36.6 L -159.55 35.99 L -158.94 35.42 L -158.36 34.9 L -157.81 34.42 L -157.28 33.99 L -156.78 33.6 L -156.3 33.25 L -155.96 33.05 L -155.53 32.81 L -155 32.55 L -154.38 32.25 L -153.65 31.92 L -152.83 31.56 L -150.9 30.75 L -149.38 30.12 L -148.14 29.64 L -147.61 29.45 L -147.16 29.3 L -146.77 29.18 L -146.45 29.1 Z M -208.9 -44.2 L -208.9 125.6 L -58 125.6 L -58 -44.2 Z"/>
      </clipPath>
      <g clip-path="url(#clipPath0)">
        <use ffdec:characterId="1815" height="157.25" transform="matrix(1.0, 0.0, 0.0, 1.0, -203.75, -41.5)" width="141.95" xlink:href="#sprite11"/>
      </g>
      <use ffdec:characterId="1816" height="11.25" transform="matrix(1.0, 0.0, 0.0, 1.0, -137.35, -2.9)" width="22.45" xlink:href="#shape19"/>
      <use ffdec:characterId="1818" height="51.2" transform="matrix(1.0, 0.0, 0.0, 1.0, -216.7, 99.5)" width="193.8" xlink:href="#sprite13"/>
    </g>
    <g id="shape1" transform="matrix(1.0, 0.0, 0.0, 1.0, 245.1, -84.65)">
      <path d="M-48.05 135.6 Q-82.1 144.3 -130.05 144.3 -178.0 144.25 -211.7 135.5 -245.45 126.85 -245.1 114.45 -244.8 102.1 -210.75 93.35 -176.65 84.7 -128.7 84.65 -80.75 84.7 -47.0 93.4 -13.35 102.15 -13.65 114.5 -14.0 126.9 -48.05 135.6" fill="url(#gradient0)" fill-rule="evenodd" stroke="none"/>
      <path d="M-27.1 120.75 Q-27.1 131.95 -55.3 139.85 -83.5 147.75 -123.35 147.75 -163.2 147.75 -191.4 139.85 -219.6 131.95 -219.6 120.75 -219.6 109.55 -191.4 101.65 -163.2 93.75 -123.35 93.75 -83.5 93.75 -55.3 101.65 -27.1 109.55 -27.1 120.75" fill="url(#gradient1)" fill-rule="evenodd" stroke="none"/>
      <path d="M-115.7 143.65 Q-124.55 141.8 -124.6 138.8 -124.6 135.7 -115.85 133.3 -107.15 130.9 -94.75 130.45 -82.35 130.1 -73.55 131.95 -64.75 133.85 -64.7 136.9 -64.65 139.95 -73.4 142.35 -82.1 144.8 -94.5 145.15 -106.95 145.6 -115.7 143.65" fill="url(#gradient2)" fill-rule="evenodd" stroke="none"/>
      <path d="M-117.15 143.05 Q-117.15 143.65 -118.95 144.2 L-121.25 144.65 -123.0 144.3 -123.75 143.65 Q-123.75 142.8 -120.45 142.55 -117.15 142.3 -117.15 143.05 M-126.2 141.5 L-126.25 141.5 -126.2 141.55 -126.2 141.5 M-126.5 141.9 L-127.05 141.55 Q-126.55 141.1 -125.75 140.9 L-122.25 140.6 -121.6 140.7 -121.25 140.95 Q-122.0 142.0 -124.45 142.0 L-126.5 141.9 M-121.95 141.1 L-121.85 141.0 -122.0 141.05 -121.95 141.1 M-129.25 142.85 Q-129.25 142.2 -127.35 142.15 -125.45 142.1 -125.45 142.85 -125.45 143.05 -126.05 143.3 L-127.0 143.5 Q-129.25 143.5 -129.25 142.85 M-123.4 143.6 L-123.4 143.55 -123.4 143.6" fill="#d3e8ad" fill-rule="evenodd" stroke="none"/>
      <path d="M-111.05 134.0 L-111.0 134.05 -110.95 134.0 -111.05 134.0 M-114.15 134.2 L-114.3 134.2 -114.2 134.25 -114.15 134.2 M-111.9 134.85 L-112.05 134.85 -113.1 134.9 Q-114.85 134.9 -114.85 134.2 -114.85 133.45 -112.7 133.4 -110.55 133.35 -109.95 133.9 -110.45 134.6 -111.8 134.85 L-111.9 134.85 M-111.65 136.05 Q-111.65 136.55 -112.35 136.9 -113.05 137.25 -114.0 137.25 L-114.55 137.4 -115.25 137.55 Q-117.5 137.55 -118.35 137.0 L-118.75 136.4 Q-118.75 135.35 -115.2 135.35 -111.65 135.35 -111.65 136.05 M-112.2 136.15 L-116.25 135.8 Q-117.2 135.85 -118.25 136.4 L-117.95 136.75 -115.05 137.05 Q-112.65 136.6 -112.2 136.15" fill="#4b6e35" fill-rule="evenodd" stroke="none"/>
      <path d="M-108.45 135.0 Q-107.7 134.6 -104.25 135.0 L-104.15 135.1 -104.05 135.55 Q-104.05 136.05 -105.3 136.4 L-108.35 136.25 -108.75 135.8 Q-108.85 135.2 -108.45 135.0 M-177.15 139.2 Q-177.4 138.9 -177.3 138.6 -176.5 137.95 -174.5 137.65 -172.1 137.35 -170.5 138.05 -172.1 139.75 -174.85 139.75 -176.65 139.75 -177.15 139.2 M-164.6 139.35 Q-164.6 139.8 -167.85 140.65 L-170.25 140.4 Q-168.95 139.4 -166.9 138.9 -164.6 138.3 -164.6 139.35" fill="#e0f4fb" fill-rule="evenodd" stroke="none"/>
      <path d="M-46.35 108.15 L-46.3 108.5 Q-46.3 108.9 -46.8 109.0 L-47.75 109.05 Q-48.35 109.05 -48.75 108.65 -47.9 108.05 -47.45 108.0 L-46.4 108.25 -46.35 108.15 M-46.75 107.55 L-48.05 107.9 -49.65 108.05 -52.05 107.7 -52.15 107.15 Q-51.3 106.5 -50.05 106.35 -48.2 106.1 -46.75 107.25 L-46.75 107.55 M-70.9 141.3 L-70.85 141.75 Q-70.85 142.35 -72.05 142.35 L-73.75 142.0 Q-73.2 141.2 -72.2 141.15 L-71.0 141.3 -70.9 141.3 M-72.35 140.25 Q-72.35 138.7 -67.15 139.0 L-67.05 139.05 -67.0 139.5 Q-67.0 140.15 -68.65 140.65 L-70.75 141.0 -72.25 140.8 -72.35 140.25" fill="#64b514" fill-rule="evenodd" stroke="none"/>
      <path d="M-174.1 140.75 Q-172.85 140.25 -170.5 141.15 L-170.45 141.1 -170.4 141.5 Q-170.4 142.05 -173.25 142.6 L-174.9 142.4 -175.0 141.95 Q-175.0 141.15 -174.1 140.75 M-212.65 118.85 L-212.55 119.35 -212.65 119.75 -212.65 119.8 -213.0 119.85 -214.85 119.75 Q-215.0 120.05 -215.0 119.4 -215.0 119.05 -214.5 118.85 L-212.75 118.75 -212.65 118.85 M-217.25 118.05 L-217.3 117.75 Q-217.3 116.9 -213.4 117.25 L-213.1 117.9 Q-214.3 118.65 -215.25 118.65 -216.6 118.65 -217.25 118.05" fill="#fee9ab" fill-rule="evenodd" stroke="none"/>
      <path d="M-58.85 104.3 L-60.3 104.65 -60.55 105.0 -58.8 105.05 -57.5 104.5 -56.9 104.15 -58.85 104.3 M-59.9 105.85 Q-61.0 105.85 -61.55 105.3 L-61.6 104.8 Q-61.6 103.2 -55.8 103.35 L-55.5 103.8 -56.6 104.9 Q-57.9 105.85 -59.9 105.85 M-61.0 103.5 Q-61.1 104.0 -62.4 104.0 L-63.8 103.75 Q-63.65 102.75 -62.7 102.45 -61.75 102.1 -61.05 103.1 L-61.0 103.5" fill="#3a618f" fill-rule="evenodd" stroke="none"/>
      <path d="M-94.1 141.05 L-94.05 141.45 -94.1 141.75 -96.4 142.5 Q-97.15 142.5 -97.6 142.05 -97.2 141.4 -96.0 141.15 L-94.3 141.0 -94.1 141.05 M-93.9 143.55 L-94.0 143.45 -94.1 143.0 Q-94.1 142.05 -90.25 141.65 -86.7 141.25 -85.55 141.6 L-85.45 141.55 -85.4 141.95 Q-85.4 142.35 -87.6 143.0 -90.05 143.75 -92.5 143.75 L-93.9 143.55 M-92.5 142.8 L-93.15 142.85 -90.9 142.9 -88.5 142.6 -87.0 142.25 -86.6 142.05 -91.4 142.25 -92.1 142.5 -92.5 142.8 M-35.35 122.15 Q-34.55 120.5 -30.9 120.65 L-30.8 120.8 -30.75 121.3 -30.75 121.55 -32.4 122.1 -34.05 122.4 -35.35 122.15 M-32.25 123.0 L-32.25 122.55 -30.5 122.5 -30.3 122.85 Q-30.75 123.3 -31.25 123.3 L-32.25 123.0 M-68.55 135.25 L-69.35 135.6 -70.4 135.8 -72.25 135.5 Q-71.85 134.75 -70.7 134.4 L-68.8 134.5 -68.55 135.25 M-70.15 133.25 Q-70.15 132.75 -69.6 132.6 -68.75 132.3 -66.4 132.65 L-66.25 133.05 Q-66.6 133.5 -67.75 133.7 L-69.0 133.85 -70.1 133.85 -70.15 133.25" fill="#ffffff" fill-rule="evenodd" stroke="none"/>
    </g>
    <radialGradient cx="0" cy="0" gradientTransform="matrix(0.2272, -8.0E-4, -0.0011, 0.0569, -129.35, 114.45)" gradientUnits="userSpaceOnUse" id="gradient0" r="819.2" spreadMethod="pad">
      <stop offset="0.5176470588235295" stop-color="#107309" stop-opacity="0.3019608"/>
      <stop offset="0.6196078431372549" stop-color="#107309" stop-opacity="0.0"/>
    </radialGradient>
    <radialGradient cx="0" cy="0" gradientTransform="matrix(0.1444, 0.0, 0.0, 0.0366, -127.5, 114.75)" gradientUnits="userSpaceOnUse" id="gradient1" r="819.2" spreadMethod="pad">
      <stop offset="0.4" stop-color="#273a1b"/>
      <stop offset="0.48627450980392156" stop-color="#3c5827"/>
      <stop offset="0.5803921568627451" stop-color="#639342"/>
    </radialGradient>
    <radialGradient cx="0" cy="0" gradientTransform="matrix(0.0494, -0.0052, 0.0013, 0.0125, -94.65, 137.8)" gradientUnits="userSpaceOnUse" id="gradient2" r="819.2" spreadMethod="pad">
      <stop offset="0.396078431372549" stop-color="#ffffff" stop-opacity="0.2"/>
      <stop offset="0.6666666666666666" stop-color="#ffffff" stop-opacity="0.0"/>
    </radialGradient>
    <g id="sprite2" transform="matrix(1.0, 0.0, 0.0, 1.0, 24.55, 18.95)">
      <filter id="filter0">
        <feConvolveMatrix divisor="25.0" in="SourceGraphic" kernelMatrix="1 1 1 1 1 1 1 1 1 1 1 1 1 1 1 1 1 1 1 1 1 1 1 1 1" order="5 5" result="filterResult0"/>
      </filter>
      <use ffdec:characterId="1790" filter="url(#filter0)" height="36.1" transform="matrix(1.0, 0.0, 0.0, 1.0, -24.55, -18.95)" width="48.45" xlink:href="#sprite3"/>
      <use ffdec:characterId="1791" height="36.35" transform="matrix(1.0, 0.0, 0.0, 1.0, -23.75, -18.15)" width="47.45" xlink:href="#shape3"/>
      <filter id="filter1">
        <feConvolveMatrix divisor="4.0" in="SourceGraphic" kernelMatrix="1 1 1 1" order="2 2" result="filterResult1"/>
      </filter>
      <use ffdec:characterId="1793" filter="url(#filter1)" height="35.15" transform="matrix(0.9409, 0.0, 0.0, 0.9409, -20.7521, -16.3241)" width="43.9" xlink:href="#sprite4"/>
      <use ffdec:characterId="1794" height="31.25" transform="matrix(1.0, 0.0, 0.0, 1.0, -21.45, -12.3)" width="45.65" xlink:href="#shape5"/>
    </g>
    <g id="sprite3" transform="matrix(1.0, 0.0, 0.0, 1.0, 24.4, 18.0)">
      <use ffdec:characterId="1789" height="36.1" transform="matrix(1.0, 0.0, 0.0, 1.0, -24.4, -18.0)" width="48.45" xlink:href="#shape2"/>
    </g>
    <g id="shape2" transform="matrix(1.0, 0.0, 0.0, 1.0, 24.4, 18.0)">
      <path d="M-22.9 -10.05 Q-4.95 0.6 -4.85 16.6 M-15.2 -16.5 Q8.35 -6.8 22.55 6.4" ffdec:has-small-stroke="true" ffdec:original-stroke-width="3.0" fill="none" stroke="#ffffff" stroke-linecap="round" stroke-linejoin="round" stroke-opacity="0.3019608" stroke-width="3.5713847627307986"/>
    </g>
    <g id="shape3" transform="matrix(1.0, 0.0, 0.0, 1.0, 23.75, 18.15)">
      <path d="M-23.75 -11.05 L-15.95 -18.15 Q10.5 -5.45 23.7 8.2 14.5 14.35 -2.8 18.2 -3.15 1.8 -23.75 -11.05" fill="url(#gradient3)" fill-rule="evenodd" stroke="none"/>
    </g>
    <radialGradient cx="0" cy="0" fx="92.80000000000001" fy="0" gradientTransform="matrix(0.0316, -0.0085, 0.018, 0.0671, 10.55, 26.05)" gradientUnits="userSpaceOnUse" id="gradient3" r="819.2" spreadMethod="pad">
      <stop offset="0.27450980392156865" stop-color="#f8f0d3"/>
      <stop offset="0.47843137254901963" stop-color="#f4e9bd"/>
      <stop offset="0.5843137254901961" stop-color="#edd98e"/>
    </radialGradient>
    <g id="sprite4" transform="matrix(1.0, 0.0, 0.0, 1.0, 21.95, 17.35)">
      <use ffdec:characterId="1792" height="35.15" transform="matrix(1.0, 0.0, 0.0, 1.0, -21.95, -17.35)" width="43.9" xlink:href="#shape4"/>
    </g>
    <g id="shape4" transform="matrix(1.0, 0.0, 0.0, 1.0, 21.95, 17.35)">
      <path d="M21.45 7.25 Q8.85 -5.2 -14.9 -16.85 M-21.45 -10.7 Q-2.4 1.65 -1.8 17.3" ffdec:has-small-stroke="true" ffdec:original-stroke-width="1.0" fill="none" stroke="#653d23" stroke-linecap="round" stroke-linejoin="round" stroke-opacity="0.3019608" stroke-width="3.795823483406457"/>
    </g>
    <g id="shape5" transform="matrix(1.0, 0.0, 0.0, 1.0, 21.45, 12.3)">
      <path d="M4.6 -5.6 Q4.6 -6.7 6.0 -6.35 7.4 -6.05 7.4 -5.5 L6.75 -4.95 6.0 -4.55 Q5.5 -4.55 5.0 -5.0 L4.6 -5.6 M5.0 -5.85 L5.85 -4.9 Q6.05 -4.9 7.0 -5.45 L6.55 -5.85 5.05 -6.1 5.0 -5.85 M2.45 16.05 L2.45 15.85 Q2.45 14.7 4.7 14.5 6.9 14.25 6.9 15.75 6.9 16.05 3.0 17.1 L2.8 17.1 2.8 16.95 Q2.8 16.3 2.45 16.05 M-3.55 15.3 Q-3.85 15.0 -3.75 14.4 L-3.75 14.35 Q-3.65 13.95 -2.55 14.0 L-2.3 14.05 Q-1.4 14.1 -1.4 14.55 L-1.65 15.1 -2.25 15.0 -3.55 15.3 M-2.95 14.55 L-2.8 14.6 -2.95 14.45 -2.95 14.55 M-2.15 15.4 L-2.75 15.5 -3.05 15.5 -2.15 15.4" fill="#9ec4e9" fill-rule="evenodd" stroke="none"/>
      <path d="M17.65 12.25 Q17.65 12.9 16.75 13.35 15.65 13.9 13.6 13.9 12.65 13.9 12.65 12.7 12.65 11.7 15.15 11.0 L15.35 10.95 14.4 10.05 Q15.8 8.45 17.05 8.75 18.15 9.0 18.15 10.1 18.15 10.45 17.35 10.85 L17.05 11.0 Q17.65 11.3 17.65 12.25 M17.0 10.55 L17.8 10.05 Q17.8 9.25 16.85 9.1 15.85 8.95 14.9 9.95 L15.3 10.55 15.75 10.9 16.25 10.85 17.0 10.55" fill="#f8a887" fill-rule="evenodd" stroke="none"/>
      <path d="M22.3 6.1 Q24.2 5.65 24.2 7.55 L23.25 8.6 Q22.3 9.3 21.95 9.3 21.5 9.3 20.75 8.2 L20.1 7.05 20.55 6.85 19.8 6.15 19.35 5.5 Q19.35 4.75 20.85 4.95 22.25 5.15 22.3 6.1 M-1.5 -11.2 Q-0.15 -11.2 -0.15 -10.55 -0.15 -10.15 -0.55 -10.05 L-2.05 -9.9 -2.25 -10.2 -2.8 -10.65 -2.8 -10.6 -2.85 -10.75 Q-4.25 -10.75 -4.25 -11.85 -4.25 -12.35 -2.9 -12.3 -1.55 -12.25 -1.55 -11.45 L-1.55 -11.2 -1.5 -11.2 M-1.8 -11.45 Q-1.8 -11.75 -2.6 -11.8 L-3.95 -11.65 Q-3.8 -11.05 -2.85 -11.05 L-1.85 -11.25 -1.8 -11.45 M-9.85 -1.35 Q-9.0 -1.35 -8.15 0.0 L-7.45 1.35 -7.45 1.55 -7.0 1.6 Q-5.05 1.9 -5.05 3.4 -5.05 4.1 -7.35 4.1 -8.1 4.1 -8.65 3.15 L-9.0 2.25 -9.0 2.2 -9.65 2.2 -11.75 -0.75 Q-11.75 -1.35 -9.85 -1.35 M-11.2 -0.55 L-10.4 0.7 -9.45 1.7 -7.95 1.4 -7.9 1.3 Q-7.9 0.8 -8.95 -0.3 -10.2 -1.6 -11.2 -0.55" fill="#4b200e" fill-rule="evenodd" stroke="none"/>
      <path d="M8.75 -2.7 L8.2 -3.55 Q10.4 -5.25 11.25 -2.75 L10.6 -2.25 9.75 -2.05 Q9.15 -2.05 8.75 -2.7 M9.8 -2.45 Q10.3 -2.45 10.8 -2.8 9.85 -4.55 8.8 -3.15 L9.2 -2.75 Q9.55 -2.45 9.8 -2.45 M1.2 6.9 L-1.6 7.25 Q-2.45 7.25 -2.25 6.35 -2.25 5.5 -0.45 5.25 1.3 5.05 1.3 6.35 L1.2 6.9 M0.95 6.2 Q0.5 5.4 -0.6 5.6 L-1.9 6.05 -1.9 6.75 -1.45 6.85 0.95 6.65 0.95 6.2 M9.7 13.85 L11.35 13.6 11.85 13.8 12.0 14.0 Q12.0 14.3 10.95 14.75 L9.3 15.2 8.95 14.7 8.85 14.2 Q8.85 14.05 9.7 13.85 M-11.65 -3.6 Q-11.65 -3.35 -11.95 -3.05 -12.35 -2.55 -13.2 -2.55 -14.4 -2.55 -14.6 -3.0 L-14.65 -3.85 -14.45 -3.9 -15.35 -4.9 Q-14.6 -5.5 -13.85 -5.1 -13.2 -4.75 -13.2 -4.25 L-12.4 -4.3 Q-11.65 -4.2 -11.65 -3.6 M-11.95 -3.55 Q-11.95 -4.1 -13.45 -3.8 L-13.9 -3.75 -14.15 -3.7 -14.15 -3.25 -14.0 -3.0 -13.5 -2.9 Q-12.75 -2.9 -12.3 -3.2 L-11.95 -3.55 M-14.75 -4.9 L-14.5 -4.4 -14.05 -4.1 -13.65 -4.2 -13.65 -4.15 -13.6 -4.15 -13.6 -4.3 -14.0 -4.75 -14.75 -4.9 M-0.35 -3.1 Q-0.35 -2.65 -0.6 -2.45 -0.85 -2.25 -1.55 -2.15 L-1.45 -1.7 Q-1.45 -1.3 -1.8 -1.2 L-3.4 -0.7 -4.2 -0.7 -4.4 -1.55 Q-4.4 -2.2 -2.9 -2.4 L-2.85 -2.4 -2.95 -2.7 Q-2.95 -3.0 -2.15 -3.3 L-0.8 -3.55 Q-0.35 -3.55 -0.35 -3.1 M-3.95 -1.05 Q-2.95 -0.85 -1.75 -1.8 -1.75 -2.2 -2.15 -2.1 L-4.0 -1.8 -3.95 -1.05" fill="#325c78" fill-rule="evenodd" stroke="none"/>
      <path d="M-3.75 14.35 L-4.25 14.45 -4.45 14.05 Q-4.45 12.45 -4.25 12.2 L-4.05 12.05 -4.5 11.6 Q-5.0 10.95 -5.0 10.1 L-4.9 9.8 -1.6 9.6 Q-1.3 9.8 -1.3 10.95 -1.3 11.6 -1.45 11.8 L-2.0 12.2 -2.0 12.25 -1.8 13.15 Q-1.8 13.8 -1.95 13.9 L-2.3 14.05 -2.55 14.0 Q-3.65 13.95 -3.75 14.35 M-3.25 11.9 L-2.45 11.95 -1.9 11.55 -1.65 10.95 Q-1.65 9.65 -3.05 9.8 -4.5 9.9 -4.5 10.5 L-4.25 11.35 -3.45 11.95 -3.25 11.9" fill="#ffffff" fill-rule="evenodd" stroke="none"/>
      <path d="M17.4 2.05 L17.45 2.0 Q17.2 1.75 16.4 1.65 L15.1 1.8 15.3 2.25 16.05 2.35 16.75 2.2 17.4 2.05 M17.2 2.65 L18.15 2.8 Q20.35 3.35 20.35 4.3 L19.45 4.95 17.8 5.45 Q17.1 5.45 16.45 4.6 L15.9 3.75 Q15.9 3.25 16.15 3.0 15.35 2.95 15.0 2.45 14.7 2.05 14.7 1.7 14.7 1.05 16.25 1.2 17.8 1.35 17.8 2.0 L17.2 2.6 17.15 2.65 17.2 2.65 M-1.65 15.1 Q-1.15 15.3 -0.8 16.0 L-0.45 16.95 Q-0.3 16.4 1.15 16.0 L2.45 16.05 Q2.8 16.3 2.8 16.95 L2.8 17.1 2.25 17.55 1.0 17.85 -0.4 17.6 -0.45 17.5 Q-0.5 18.35 -0.8 18.55 L-3.75 18.95 Q-4.65 18.95 -4.45 17.05 L-4.2 15.8 -3.55 15.3 -2.25 15.0 -1.65 15.1 M-20.45 -8.85 L-18.75 -9.1 Q-18.0 -9.05 -17.95 -8.75 L-17.95 -8.35 -17.3 -8.15 -16.75 -7.8 Q-15.85 -7.45 -15.85 -6.85 L-16.85 -6.25 -18.25 -5.9 Q-19.1 -5.9 -19.9 -7.4 L-20.25 -7.4 Q-20.75 -7.4 -21.45 -8.15 -21.45 -8.55 -20.45 -8.85 M-3.05 15.5 Q-3.55 15.65 -3.8 16.15 L-4.05 17.85 -3.9 18.55 -2.5 18.4 -1.1 18.25 -0.8 17.45 -1.2 15.65 -2.15 15.4 -3.05 15.5" fill="#e7ce6d" fill-rule="evenodd" stroke="none"/>
    </g>
    <g id="sprite5" transform="matrix(1.0, 0.0, 0.0, 1.0, 58.5, 63.75)">
      <use ffdec:characterId="1796" height="127.55" transform="matrix(1.0, 0.0, 0.0, 1.0, -58.5, -63.75)" width="117.35" xlink:href="#shape6"/>
      <filter id="filter2">
        <feConvolveMatrix divisor="16.0" in="SourceGraphic" kernelMatrix="1 1 1 1 1 1 1 1 1 1 1 1 1 1 1 1" order="4 4" result="filterResult2"/>
      </filter>
      <use ffdec:characterId="1798" filter="url(#filter2)" height="123.35" transform="matrix(1.0, 0.0, 0.0, 1.0, -56.55, -61.65)" width="113.1" xlink:href="#sprite6"/>
      <use ffdec:characterId="1799" height="127.55" transform="matrix(1.0, 0.0, 0.0, 1.0, -58.5, -63.75)" width="117.0" xlink:href="#shape8"/>
    </g>
    <g id="shape6" transform="matrix(1.0, 0.0, 0.0, 1.0, 58.5, 63.75)">
      <path d="M7.35 -61.7 L12.0 -60.6 12.2 -60.45 Q19.25 -55.8 23.15 -48.65 L23.65 -45.9 Q24.1 -43.4 24.3 -43.1 25.35 -41.75 25.6 -41.0 L25.7 -39.7 Q25.7 -38.1 23.85 -33.65 L21.4 -28.05 Q22.6 -28.2 24.05 -27.15 25.5 -26.1 26.7 -24.35 25.9 -23.7 27.9 -23.05 L29.85 -22.4 Q31.55 -21.55 34.1 -17.2 36.55 -12.9 36.55 -11.0 L36.25 -10.25 Q35.95 -9.7 35.95 -9.15 35.95 -8.75 36.65 -7.95 37.35 -7.2 37.35 -6.6 37.35 -6.1 35.5 -2.55 L33.3 1.25 33.35 1.25 Q36.25 2.1 36.75 2.5 L38.0 4.05 39.25 5.5 40.65 6.2 42.3 6.85 Q44.95 7.5 47.25 11.6 47.45 12.2 50.35 15.4 53.4 18.8 54.75 20.9 57.5 25.35 57.5 36.0 57.5 39.85 50.95 47.4 45.3 53.9 43.5 54.7 37.65 57.1 16.8 62.2 L14.8 61.4 12.95 60.6 Q12.2 60.6 10.05 61.7 7.95 62.8 5.75 62.8 L-13.0 61.0 -21.5 59.9 -22.5 59.8 -27.0 59.2 -28.25 59.0 -33.35 57.95 Q-37.4 56.8 -38.35 55.85 L-39.6 54.6 Q-46.0 51.65 -52.0 42.2 -57.5 33.65 -57.5 30.15 -57.5 28.25 -56.9 24.3 -56.4 20.9 -55.2 19.25 L-54.85 18.75 -52.6 13.75 -49.8 10.4 Q-47.9 8.2 -46.55 7.5 -45.6 7.0 -44.65 6.45 L-43.5 5.4 Q-43.1 4.55 -40.5 1.9 -40.05 1.45 -37.2 0.15 -34.3 -1.15 -33.45 -1.8 -35.95 -4.95 -36.15 -6.95 L-35.95 -11.05 -36.55 -14.35 -37.15 -16.65 Q-37.15 -18.8 -33.65 -22.8 -31.2 -25.55 -29.45 -26.9 -28.35 -27.7 -24.3 -29.5 L-20.05 -31.2 Q-21.15 -33.05 -22.05 -35.2 L-22.9 -38.0 Q-22.9 -47.55 -21.1 -50.4 -19.65 -52.75 -10.5 -59.2 L-10.0 -59.5 Q-6.8 -61.55 -5.65 -62.0 -3.95 -62.75 1.2 -62.75 L7.35 -61.7 M-0.4 10.8 L-8.8 9.9 Q-14.05 9.2 -16.2 7.05 -16.65 6.6 -23.6 4.7 -30.15 2.9 -31.2 0.7 -30.15 2.9 -23.6 4.7 -16.65 6.6 -16.2 7.05 -14.05 9.2 -8.8 9.9 L-0.4 10.8 M-1.2 -27.15 L-5.65 -27.25 Q-7.6 -27.55 -7.7 -29.15 L-9.1 -29.15 -11.45 -28.35 -16.2 -30.3 -17.4 -30.3 -16.2 -30.3 -11.45 -28.35 -9.1 -29.15 -7.7 -29.15 Q-7.6 -27.55 -5.65 -27.25 L-1.2 -27.15 M29.25 3.65 Q28.7 3.9 23.45 6.85 17.4 9.75 12.25 10.0 17.4 9.75 23.45 6.85 28.7 3.9 29.25 3.65 M16.6 -28.35 L8.3 -27.15 5.35 -27.15 8.3 -27.15 16.6 -28.35" fill="#ffeacc" fill-rule="evenodd" stroke="none"/>
      <path d="M7.35 -61.7 L12.0 -60.6 12.2 -60.45 Q19.25 -55.8 23.15 -48.65 L23.65 -45.9 Q24.1 -43.4 24.3 -43.1 25.35 -41.75 25.6 -41.0 L25.7 -39.7 Q25.7 -38.1 23.85 -33.65 L21.4 -28.05 Q22.6 -28.2 24.05 -27.15 25.5 -26.1 26.7 -24.35 25.9 -23.7 27.9 -23.05 L29.85 -22.4 Q31.55 -21.55 34.1 -17.2 36.55 -12.9 36.55 -11.0 L36.25 -10.25 Q35.95 -9.7 35.95 -9.15 35.95 -8.75 36.65 -7.95 37.35 -7.2 37.35 -6.6 37.35 -6.1 35.5 -2.55 L33.3 1.25 33.35 1.25 Q36.25 2.1 36.75 2.5 L38.0 4.05 39.25 5.5 40.65 6.2 42.3 6.85 Q44.95 7.5 47.25 11.6 47.45 12.2 50.35 15.4 53.4 18.8 54.75 20.9 57.5 25.35 57.5 36.0 57.5 39.85 50.95 47.4 45.3 53.9 43.5 54.7 37.65 57.1 16.8 62.2 L14.8 61.4 12.95 60.6 Q12.2 60.6 10.05 61.7 7.95 62.8 5.75 62.8 L-13.0 61.0 -21.5 59.9 -22.5 59.8 -27.0 59.2 -28.25 59.0 -33.35 57.95 Q-37.4 56.8 -38.35 55.85 L-39.6 54.6 Q-46.0 51.65 -52.0 42.2 -57.5 33.65 -57.5 30.15 -57.5 28.25 -56.9 24.3 -56.4 20.9 -55.2 19.25 L-54.85 18.75 -52.6 13.75 -49.8 10.4 Q-47.9 8.2 -46.55 7.5 -45.6 7.0 -44.65 6.45 L-43.5 5.4 Q-43.1 4.55 -40.5 1.9 -40.05 1.45 -37.2 0.15 -34.3 -1.15 -33.45 -1.8 -35.95 -4.95 -36.15 -6.95 L-35.95 -11.05 -36.55 -14.35 -37.15 -16.65 Q-37.15 -18.8 -33.65 -22.8 -31.2 -25.55 -29.45 -26.9 -28.35 -27.7 -24.3 -29.5 L-20.05 -31.2 Q-21.15 -33.05 -22.05 -35.2 L-22.9 -38.0 Q-22.9 -47.55 -21.1 -50.4 -19.65 -52.75 -10.5 -59.2 L-10.0 -59.5 Q-6.8 -61.55 -5.65 -62.0 -3.95 -62.75 1.2 -62.75 L7.35 -61.7 M5.35 -27.15 L8.3 -27.15 16.6 -28.35 M12.25 10.0 Q17.4 9.75 23.45 6.85 28.7 3.9 29.25 3.65 M-17.4 -30.3 L-16.2 -30.3 -11.45 -28.35 -9.1 -29.15 -7.7 -29.15 Q-7.6 -27.55 -5.65 -27.25 L-1.2 -27.15 M-31.2 0.7 Q-30.15 2.9 -23.6 4.7 -16.65 6.6 -16.2 7.05 -14.05 9.2 -8.8 9.9 L-0.4 10.8" ffdec:has-small-stroke="true" ffdec:original-stroke-width="2.0" fill="none" stroke="#e0c78d" stroke-linecap="round" stroke-linejoin="round" stroke-width="3.5713847627307986"/>
      <path d="M-34.2 -1.4 L-34.1 -1.35 Q-27.4 2.75 -20.9 5.45 L-15.9 7.3 Q10.7 16.15 33.7 0.25 L33.8 0.5 35.5 1.95 37.45 3.3 41.05 5.6 Q57.75 15.95 58.8 30.75 59.75 44.55 44.95 53.7 L42.8 54.95 42.65 55.05 Q36.25 57.45 16.8 62.2 L14.8 61.4 12.95 60.6 Q12.2 60.6 10.05 61.7 7.95 62.8 5.75 62.8 L-13.0 61.0 -21.5 59.9 -22.5 59.8 -27.0 59.2 -28.25 59.0 -31.25 58.45 Q-35.7 56.55 -39.75 54.0 -44.6 51.0 -48.05 47.65 -53.55 42.3 -55.5 36.15 -56.75 32.3 -56.6 28.1 -56.45 23.35 -55.35 19.5 -52.9 10.95 -45.9 6.5 L-43.0 4.7 -34.4 -1.2 -34.2 -1.4" fill="url(#gradient4)" fill-rule="evenodd" stroke="none"/>
      <path d="M21.4 -28.05 Q22.6 -28.2 24.05 -27.15 25.5 -26.1 26.7 -24.35 25.9 -23.7 27.9 -23.05 L29.85 -22.4 Q31.55 -21.55 34.1 -17.2 36.55 -12.9 36.55 -11.0 L36.25 -10.25 Q35.95 -9.7 35.95 -9.15 35.95 -8.75 36.65 -7.95 37.35 -7.2 37.35 -6.6 37.35 -6.1 35.5 -2.55 L33.3 1.25 33.35 1.25 33.7 1.35 30.3 3.4 25.8 5.55 Q15.0 10.0 0.8 10.0 -6.95 10.0 -13.7 8.7 -21.95 7.05 -28.65 3.4 -32.4 1.4 -34.95 -0.9 L-33.45 -1.8 Q-35.95 -4.95 -36.15 -6.95 L-35.95 -11.05 -36.55 -14.35 -37.15 -16.65 Q-37.15 -18.8 -33.65 -22.8 -31.2 -25.55 -29.45 -26.9 -28.35 -27.7 -24.3 -29.5 L-20.05 -31.2 -16.2 -30.3 -11.45 -28.35 -9.1 -29.15 -7.7 -29.15 Q-7.6 -27.55 -5.65 -27.25 L-1.4 -27.15 8.3 -27.15 21.45 -28.15 21.4 -28.05" fill="url(#gradient5)" fill-rule="evenodd" stroke="none"/>
      <path d="M11.7 -60.5 L11.9 -60.35 Q18.95 -55.7 22.85 -48.55 L23.35 -45.8 Q23.8 -43.3 24.0 -43.0 25.05 -41.65 25.3 -40.9 L25.4 -39.6 Q25.4 -38.0 23.55 -33.55 L21.5 -28.8 Q13.95 -25.8 4.3 -25.8 -4.5 -25.8 -9.85 -27.45 -15.2 -29.15 -18.0 -30.45 -20.85 -31.75 -21.9 -34.05 L-22.35 -35.1 -23.2 -37.9 Q-23.2 -47.45 -21.4 -50.3 -19.95 -52.65 -10.8 -59.1 L-10.3 -59.4 -8.1 -60.75 Q-2.45 -62.2 4.25 -62.2 L7.05 -61.6 11.7 -60.5" fill="url(#gradient6)" fill-rule="evenodd" stroke="none"/>
      <path d="M47.05 42.3 Q36.5 48.8 21.0 49.9 5.45 50.95 -5.85 46.05 -17.2 41.2 -17.75 33.2 -18.35 25.2 -7.85 18.8 2.75 12.3 18.3 11.25 33.8 10.15 45.05 15.1 56.45 19.95 57.05 27.9 57.6 35.9 47.05 42.3" fill="url(#gradient7)" fill-rule="evenodd" stroke="none"/>
      <path d="M29.6 -21.9 Q38.7 -18.05 39.2 -11.7 39.65 -5.3 31.2 -0.15 22.75 5.05 10.35 5.9 -2.1 6.75 -11.15 2.85 -20.2 -1.05 -20.65 -7.45 -21.15 -13.85 -12.75 -18.95 -4.25 -24.15 8.2 -25.0 20.6 -25.9 29.6 -21.9" fill="url(#gradient8)" fill-rule="evenodd" stroke="none"/>
      <path d="M25.1 -52.65 Q32.35 -49.6 32.75 -44.5 33.1 -39.4 26.35 -35.25 19.6 -31.1 9.7 -30.45 -0.3 -29.75 -7.5 -32.85 -14.75 -36.0 -15.1 -41.1 -15.5 -46.25 -8.8 -50.3 -2.0 -54.45 7.95 -55.15 17.9 -55.85 25.1 -52.65" fill="url(#gradient9)" fill-rule="evenodd" stroke="none"/>
    </g>
    <radialGradient cx="0" cy="0" fx="64.0" fy="0" gradientTransform="matrix(0.1202, 0.0027, 0.0, 0.0742, 6.5, 23.45)" gradientUnits="userSpaceOnUse" id="gradient4" r="819.2" spreadMethod="pad">
      <stop offset="0.5176470588235295" stop-color="#fecfa3" stop-opacity="0.0"/>
      <stop offset="0.6" stop-color="#fecfa3"/>
    </radialGradient>
    <radialGradient cx="0" cy="0" fx="64.0" fy="0" gradientTransform="matrix(0.0651, 0.0, 0.0, 0.038, 0.7, -11.15)" gradientUnits="userSpaceOnUse" id="gradient5" r="819.2" spreadMethod="pad">
      <stop offset="0.5058823529411764" stop-color="#fecfa3" stop-opacity="0.0"/>
      <stop offset="0.6" stop-color="#fecfa3" stop-opacity="0.8"/>
    </radialGradient>
    <radialGradient cx="0" cy="0" fx="150.4" fy="0" gradientTransform="matrix(6.0E-4, 0.0274, -0.0454, 0.001, 6.4, -44.55)" gradientUnits="userSpaceOnUse" id="gradient6" r="819.2" spreadMethod="pad">
      <stop offset="0.49019607843137253" stop-color="#fecfa3" stop-opacity="0.0"/>
      <stop offset="0.6" stop-color="#fecfa3" stop-opacity="0.8"/>
    </radialGradient>
    <radialGradient cx="0" cy="0" gradientTransform="matrix(0.0708, -0.005, 0.0023, 0.0332, 16.0, 28.85)" gradientUnits="userSpaceOnUse" id="gradient7" r="819.2" spreadMethod="pad">
      <stop offset="0.1450980392156863" stop-color="#ffffff" stop-opacity="0.8"/>
      <stop offset="0.4235294117647059" stop-color="#ffffff" stop-opacity="0.3019608"/>
      <stop offset="0.6901960784313725" stop-color="#ffffff" stop-opacity="0.0"/>
    </radialGradient>
    <radialGradient cx="0" cy="0" gradientTransform="matrix(0.054, -0.0038, 0.0018, 0.0253, 6.35, -10.9)" gradientUnits="userSpaceOnUse" id="gradient8" r="819.2" spreadMethod="pad">
      <stop offset="0.26666666666666666" stop-color="#ffffff" stop-opacity="0.7019608"/>
      <stop offset="0.4235294117647059" stop-color="#ffffff" stop-opacity="0.3019608"/>
      <stop offset="0.6901960784313725" stop-color="#ffffff" stop-opacity="0.0"/>
    </radialGradient>
    <radialGradient cx="0" cy="0" gradientTransform="matrix(0.0432, -0.003, 0.0014, 0.0202, 6.5, -43.85)" gradientUnits="userSpaceOnUse" id="gradient9" r="819.2" spreadMethod="pad">
      <stop offset="0.0" stop-color="#ffffff" stop-opacity="0.7019608"/>
      <stop offset="0.4235294117647059" stop-color="#ffffff" stop-opacity="0.3019608"/>
      <stop offset="0.6901960784313725" stop-color="#ffffff" stop-opacity="0.0"/>
    </radialGradient>
    <g id="sprite6" transform="matrix(1.0, 0.0, 0.0, 1.0, 56.55, 61.65)">
      <use ffdec:characterId="1797" height="123.35" transform="matrix(1.0, 0.0, 0.0, 1.0, -56.55, -61.65)" width="113.1" xlink:href="#shape7"/>
    </g>
    <g id="shape7" transform="matrix(1.0, 0.0, 0.0, 1.0, 56.55, 61.65)">
      <path d="M32.4 1.25 Q35.15 2.05 35.65 2.45 36.05 2.7 36.85 3.95 L38.1 5.35 39.45 6.0 41.05 6.65 Q43.6 7.3 45.85 11.25 L48.85 14.95 Q51.8 18.25 53.1 20.3 55.8 24.6 55.8 34.95 55.8 38.65 49.45 46.0 43.95 52.3 42.2 53.05 36.55 55.4 16.3 60.35 15.9 60.35 14.35 59.55 12.85 58.8 12.55 58.8 11.85 58.8 9.75 59.85 7.7 60.95 5.6 60.95 L-12.6 59.2 -20.85 58.1 -21.85 58.0 -26.2 57.45 -27.4 57.25 -32.35 56.2 Q-36.3 55.1 -37.2 54.2 L-38.4 52.95 Q-44.65 50.1 -50.45 40.95 -55.8 32.65 -55.8 29.25 -55.8 27.4 -55.2 23.6 -54.7 20.3 -53.55 18.7 L-53.2 18.2 -51.05 13.35 -48.3 10.1 Q-46.45 7.95 -45.15 7.3 L-43.3 6.25 -42.2 5.25 -39.3 1.85 Q-38.85 1.4 -36.1 0.15 -33.5 -1.0 -32.6 -1.65 L-32.85 -2.25 Q-34.9 -4.95 -35.05 -6.75 L-34.9 -10.7 Q-34.9 -11.6 -35.45 -13.9 L-36.05 -16.15 Q-36.05 -18.25 -32.65 -22.1 -30.25 -24.8 -28.55 -26.1 -27.5 -26.85 -23.6 -28.6 L-19.45 -30.25 -19.5 -30.4 -21.4 -34.15 Q-22.2 -36.2 -22.2 -36.85 -22.2 -46.15 -20.45 -48.9 -19.05 -51.2 -10.2 -57.45 L-9.7 -57.75 -5.5 -60.15 Q-3.85 -60.9 1.15 -60.9 L7.15 -59.85 11.65 -58.8 11.85 -58.65 Q18.7 -54.15 22.45 -47.2 L22.95 -44.55 Q23.4 -42.1 23.6 -41.8 L24.85 -39.8 24.95 -38.5 Q24.95 -36.95 23.15 -32.65 L21.3 -28.35 M21.3 -27.2 Q22.2 -27.1 23.35 -26.35 L25.9 -23.6 Q25.15 -23.0 27.05 -22.35 L28.95 -21.75 Q30.6 -20.9 33.1 -16.7 35.45 -12.5 35.45 -10.65 L35.15 -9.95 34.9 -8.9 Q34.9 -8.5 35.55 -7.7 36.25 -7.0 36.25 -6.4 36.25 -5.9 34.45 -2.45 L32.4 1.1 M-19.5 -30.4 L-19.15 -30.25 M-32.85 -2.25 L-32.45 -1.75 -32.6 -1.65 -32.3 -1.3" ffdec:has-small-stroke="true" ffdec:original-stroke-width="1.5" fill="none" stroke="#653d23" stroke-linecap="round" stroke-linejoin="round" stroke-opacity="0.2" stroke-width="3.5713847627307986"/>
      <path d="M21.3 -28.35 L20.8 -27.25 21.2 -27.2 21.3 -27.2 M32.4 1.1 L32.3 1.2 32.35 1.2 32.4 1.25 M-19.15 -30.25 L-16.6 -29.15 -11.1 -27.5 -8.85 -28.3 -7.45 -28.3 Q-7.35 -26.75 -5.5 -26.45 L1.45 -26.05 5.95 -26.35 8.05 -26.35 Q16.9 -26.05 20.8 -27.25 L20.75 -27.2 21.2 -27.2 M-32.3 -1.3 Q-28.65 2.95 -22.9 4.55 -16.15 6.4 -15.7 6.85 -13.65 8.95 -8.55 9.6 -2.85 10.05 11.9 9.7 L12.6 9.65 Q17.3 9.25 22.75 6.65 L32.4 1.1" fill="none" stroke="#653d23" stroke-linecap="round" stroke-linejoin="round" stroke-opacity="0.2" stroke-width="5.0"/>
    </g>
    <g id="shape8" transform="matrix(1.0, 0.0, 0.0, 1.0, 58.5, 63.75)">
      <path d="M5.35 -27.15 L8.3 -27.15 16.6 -28.35 M12.25 10.0 Q17.4 9.75 23.45 6.85 28.7 3.9 29.25 3.65 M-17.4 -30.3 L-16.2 -30.3 -11.45 -28.35 -9.1 -29.15 -7.7 -29.15 Q-7.6 -27.55 -5.65 -27.25 L-1.2 -27.15 M-31.2 0.7 Q-30.15 2.9 -23.6 4.7 -16.65 6.6 -16.2 7.05 -14.05 9.2 -8.8 9.9 L-0.4 10.8" ffdec:has-small-stroke="true" ffdec:original-stroke-width="2.0" fill="none" stroke="#eddebc" stroke-linecap="round" stroke-linejoin="round" stroke-width="3.5713847627307986"/>
      <path d="M12.2 -60.45 Q19.25 -55.8 23.15 -48.65 L23.65 -45.9 Q24.1 -43.4 24.3 -43.1 25.35 -41.75 25.6 -41.0 L25.7 -39.7 Q25.7 -38.1 23.85 -33.65 L21.4 -28.05 Q22.6 -28.2 24.05 -27.15 25.5 -26.1 26.7 -24.35 25.9 -23.7 27.9 -23.05 L29.85 -22.4 Q31.55 -21.55 34.1 -17.2 36.55 -12.9 36.55 -11.0 L36.25 -10.25 Q35.95 -9.7 35.95 -9.15 35.95 -8.75 36.65 -7.95 37.35 -7.2 37.35 -6.6 37.35 -6.1 35.5 -2.55 L33.3 1.25 33.35 1.25 Q36.25 2.1 36.75 2.5 L38.0 4.05 39.25 5.5 40.65 6.2 42.3 6.85 Q44.95 7.5 47.25 11.6 47.45 12.2 50.35 15.4 53.4 18.8 54.75 20.9 57.5 25.35 57.5 36.0 57.5 39.85 50.95 47.4 45.3 53.9 43.5 54.7 37.65 57.1 16.8 62.2 L14.8 61.4 12.95 60.6 Q12.2 60.6 10.05 61.7 7.95 62.8 5.75 62.8 L-13.0 61.0 -21.5 59.9 -22.5 59.8 -27.0 59.2 -28.25 59.0 -33.35 57.95 Q-37.4 56.8 -38.35 55.85 L-39.6 54.6 Q-46.0 51.65 -52.0 42.2 -57.5 33.65 -57.5 30.15 -57.5 28.25 -56.9 24.3 -56.4 20.9 -55.2 19.25 L-54.85 18.75 -52.6 13.75 -49.8 10.4 Q-47.9 8.2 -46.55 7.5 -45.6 7.0 -44.65 6.45 L-43.5 5.4 Q-43.1 4.55 -40.5 1.9 -40.05 1.45 -37.2 0.15 -34.3 -1.15 -33.45 -1.8 -35.95 -4.95 -36.15 -6.95 L-35.95 -11.05 -36.55 -14.35 -37.15 -16.65 Q-37.15 -18.8 -33.65 -22.8 -31.2 -25.55 -29.45 -26.9 -28.35 -27.7 -24.3 -29.5 L-20.05 -31.2 Q-21.15 -33.05 -22.05 -35.2 L-22.9 -38.0 Q-22.9 -47.55 -21.1 -50.4 -19.65 -52.75 -10.5 -59.2 L-10.0 -59.5 Q-6.8 -61.55 -5.65 -62.0 -3.95 -62.75 1.2 -62.75 L7.35 -61.7 12.0 -60.6 12.2 -60.45 Z" ffdec:has-small-stroke="true" ffdec:original-stroke-width="2.0" fill="none" stroke="#eddebc" stroke-linecap="round" stroke-linejoin="round" stroke-width="3.5713847627307986"/>
    </g>
    <g id="shape9" transform="matrix(1.0, 0.0, 0.0, 1.0, 181.25, -24.55)">
      <path d="M-77.35 92.6 Q-77.35 93.4 -77.8 94.3 -78.45 95.55 -79.5 95.55 -80.9 95.55 -81.35 94.1 -81.35 91.2 -79.35 90.5 -77.35 89.85 -77.35 92.6 M-79.35 91.3 Q-80.55 91.7 -80.55 93.55 L-80.35 94.2 -79.75 94.6 Q-78.85 94.6 -78.45 93.65 L-78.2 92.65 Q-78.2 90.85 -79.35 91.3 M-78.9 97.3 Q-78.9 96.65 -78.05 96.65 -77.4 96.65 -77.25 97.0 L-77.2 97.4 Q-77.2 98.25 -77.9 98.25 -78.65 98.25 -78.85 97.8 L-78.9 97.3 M-82.75 95.55 L-82.8 96.6 Q-82.95 97.4 -83.7 97.4 -84.55 97.4 -84.75 96.15 -84.75 94.55 -83.75 93.75 -82.75 93.0 -82.75 95.55 M-171.3 79.55 L-171.75 79.85 Q-172.3 79.85 -172.4 79.55 L-172.4 79.15 -172.3 78.05 Q-171.55 77.95 -171.35 78.3 L-171.3 79.0 -171.3 79.55 M-172.45 75.45 L-172.45 76.05 Q-172.45 76.75 -172.95 78.1 -173.55 79.8 -174.4 79.8 -175.45 79.8 -175.2 77.9 L-174.95 76.3 Q-174.45 74.95 -173.25 74.95 -172.55 74.95 -172.45 75.45 M-173.05 75.6 Q-173.9 75.45 -174.35 76.6 L-174.6 77.95 -174.45 79.1 -173.05 76.6 -173.05 75.6 M-173.05 81.55 L-172.8 81.15 Q-172.75 80.85 -172.45 80.85 -172.05 80.85 -172.05 81.5 -172.05 82.1 -172.3 82.1 L-172.8 82.05 -172.8 81.9 -173.05 81.55" fill="#ffffff" fill-rule="evenodd" stroke="none"/>
      <path d="M-108.25 25.35 Q-108.15 24.25 -107.45 24.65 L-107.4 25.05 Q-107.4 25.4 -107.9 25.7 L-108.25 25.35 M-110.3 27.15 L-110.55 25.65 Q-110.55 25.3 -109.95 25.1 L-108.95 25.05 -108.9 25.6 -109.15 26.45 Q-109.45 27.2 -109.85 27.2 L-110.3 27.15 M-150.2 36.05 Q-149.85 35.45 -149.3 35.45 -148.9 35.45 -148.85 35.7 L-148.85 36.0 Q-148.85 37.6 -149.7 37.6 -150.45 37.6 -150.45 36.85 L-150.2 36.05 M-148.45 35.7 Q-148.45 34.1 -146.4 33.3 -144.4 32.5 -144.4 34.25 -144.4 34.8 -144.95 35.65 -145.75 36.9 -147.15 36.9 -148.2 36.9 -148.4 36.45 L-148.45 35.7 M-148.0 36.15 L-147.55 36.45 Q-146.0 36.45 -145.25 35.35 L-144.85 34.25 Q-144.85 33.1 -146.4 33.8 -148.0 34.5 -148.0 35.65 L-148.0 36.15 M-146.5 38.35 Q-146.8 38.75 -147.3 38.75 -148.1 38.75 -148.1 38.25 L-147.9 37.65 Q-147.65 37.3 -147.2 37.3 -146.3 37.3 -146.3 37.8 L-146.5 38.35 M-147.8 38.25 L-147.75 38.35 -147.8 38.2 -147.8 38.25 M-147.7 38.4 L-147.65 38.4 -147.7 38.4" fill="#58351f" fill-rule="evenodd" stroke="none"/>
      <path d="M-142.75 49.25 Q-142.3 49.25 -142.2 48.75 L-142.2 48.3 Q-142.2 47.65 -142.85 47.05 -143.55 46.4 -143.65 47.45 L-143.3 48.55 -142.75 49.25 M-144.2 47.65 Q-144.2 46.45 -143.15 46.45 -141.6 46.45 -141.6 48.3 -141.6 49.9 -142.5 49.9 -143.35 49.9 -143.85 48.9 L-144.2 47.65 M-140.0 48.85 L-139.9 49.75 -140.1 50.05 -140.5 50.2 -140.9 50.1 -140.95 49.5 -140.9 49.05 -140.0 48.85" fill="#97cbd6" fill-rule="evenodd" stroke="none"/>
      <path d="M-93.05 71.8 Q-93.05 69.95 -91.1 70.5 -89.2 71.05 -89.2 72.6 L-89.3 73.3 Q-89.55 73.65 -90.45 73.65 -91.65 73.65 -92.45 72.85 L-93.05 71.8 M-87.05 73.1 L-87.85 73.4 -88.4 73.35 -88.8 73.0 Q-87.95 72.25 -87.15 72.2 -86.4 72.15 -86.4 72.6 -86.4 72.75 -87.05 73.1 M-90.0 74.85 L-90.5 74.9 Q-91.4 74.9 -91.9 74.35 -91.4 73.55 -90.65 73.7 -89.95 73.85 -89.95 74.4 L-90.0 74.85" fill="#602f17" fill-rule="evenodd" stroke="none"/>
      <path d="M-155.9 65.3 Q-155.9 66.35 -157.4 67.35 L-158.7 68.05 Q-158.35 68.1 -158.35 68.6 L-158.95 69.3 Q-159.6 69.8 -160.25 69.8 L-160.95 69.65 -160.95 69.35 Q-160.95 68.7 -160.05 68.3 L-160.2 68.3 Q-162.55 68.3 -162.55 67.0 -162.55 66.1 -161.7 65.25 -160.6 64.1 -158.65 64.3 L-156.4 64.5 Q-155.9 64.8 -155.9 65.3 M-160.2 67.7 Q-158.7 67.7 -157.5 66.85 -156.45 66.1 -156.45 65.35 -156.45 64.8 -157.1 64.8 L-159.15 65.0 Q-160.3 65.0 -161.1 65.5 -161.95 66.05 -161.95 67.0 L-161.45 67.45 -160.2 67.7" fill="#cc946f" fill-rule="evenodd" stroke="none"/>
      <path d="M-90.5 107.95 Q-91.0 108.45 -91.45 108.45 L-91.85 108.3 -91.95 107.9 Q-91.95 107.3 -91.0 106.85 -90.05 106.45 -90.05 107.15 L-90.5 107.95 M-89.85 111.25 L-89.9 111.6 -90.15 111.65 Q-91.2 111.65 -91.2 110.6 L-91.1 110.05 -90.0 109.95 -89.85 111.25 M-86.4 109.8 Q-86.95 111.6 -88.05 111.6 -89.25 111.6 -89.45 110.55 L-89.45 109.45 Q-89.45 107.35 -87.75 106.75 -86.1 106.2 -86.1 107.95 L-86.4 109.8 M-177.05 90.0 Q-177.65 88.9 -178.8 88.95 L-178.8 89.3 -178.65 91.6 Q-178.45 92.55 -177.45 94.05 L-176.6 93.05 -176.55 92.15 Q-176.55 90.9 -177.05 90.0 M-181.2 92.05 Q-181.2 89.6 -180.45 89.7 -179.7 89.8 -179.7 91.15 L-179.85 92.15 Q-180.1 92.75 -180.45 92.75 -181.5 92.75 -181.2 92.05 M-179.4 90.55 Q-179.4 87.2 -177.65 88.85 -175.95 90.45 -175.95 92.25 -175.95 92.9 -176.25 93.65 -176.65 94.7 -177.3 94.7 -178.35 94.7 -179.0 92.6 L-179.4 90.55" fill="#5f99b1" fill-rule="evenodd" stroke="none"/>
      <path d="M-109.85 35.45 L-112.0 36.0 Q-113.15 36.3 -113.2 36.65 -113.25 37.05 -113.65 37.35 L-114.75 38.05 -114.6 38.45 -115.85 41.0 Q-117.1 43.5 -117.2 44.6 L-117.3 44.6 -117.35 43.95 Q-117.35 42.75 -116.25 41.25 L-115.95 40.5 -115.8 39.85 -115.3 39.05 -114.85 38.5 -114.95 38.3 -115.05 38.05 -114.3 37.35 Q-113.5 36.9 -113.4 36.5 -113.1 35.7 -110.15 35.3 L-109.85 35.45 M-118.6 43.6 L-119.5 46.4 -119.3 47.0 -119.15 47.55 -119.2 47.85 -119.2 47.95 Q-119.75 47.55 -119.75 46.4 L-119.4 45.1 -118.65 43.45 -118.6 43.6 M-117.25 47.85 L-117.15 49.45 -117.35 50.7 -116.95 53.5 -117.0 54.45 -117.15 54.45 -117.6 50.7 -117.35 48.8 -117.55 47.85 -117.25 47.85 M-98.1 41.55 Q-98.5 40.5 -98.8 40.45 -98.35 40.2 -97.85 41.4 -97.45 42.4 -97.45 43.05 L-97.65 43.75 -97.05 44.6 Q-96.5 45.35 -96.5 45.75 L-96.55 46.15 -96.65 46.2 Q-96.7 45.8 -97.3 44.95 L-97.9 43.75 -97.7 43.05 -98.1 41.55 M-146.75 30.75 Q-148.4 31.15 -149.6 33.0 -149.7 33.25 -151.15 34.1 L-151.65 34.65 -152.0 35.3 -153.25 36.4 Q-154.2 37.2 -154.25 37.7 -154.25 38.15 -154.85 38.9 L-155.5 40.05 -155.75 40.1 -155.8 39.75 Q-155.8 39.3 -155.1 38.7 -154.45 38.05 -154.55 37.3 L-153.45 36.15 -152.2 35.1 -150.85 33.7 -149.8 32.75 Q-148.65 30.95 -146.9 30.55 L-146.75 30.75 M-158.75 45.55 L-158.55 46.65 -158.95 49.05 Q-158.95 50.1 -158.45 50.55 -159.1 50.65 -159.3 49.95 L-159.35 49.0 -158.95 46.65 -158.95 46.35 -159.3 46.05 -159.3 43.65 -159.1 43.65 -158.75 45.55 M-150.6 47.4 Q-150.2 48.95 -149.5 50.0 -149.0 50.75 -149.0 51.7 L-149.4 54.35 Q-149.4 55.9 -148.4 56.8 -147.4 57.7 -147.4 58.55 -147.4 59.0 -146.2 60.05 L-144.4 61.35 Q-144.4 61.85 -144.85 61.9 L-147.0 60.15 Q-148.05 59.1 -148.05 58.5 -148.05 58.15 -147.65 58.0 -149.45 56.95 -149.8 56.1 L-149.95 54.35 -149.45 50.85 Q-150.6 48.4 -150.75 47.4 L-150.6 47.4 M-126.0 29.05 Q-129.65 28.9 -130.45 26.4 L-130.25 26.35 -129.1 27.45 Q-128.1 28.25 -127.0 28.3 -125.45 28.35 -125.4 29.05 -125.3 29.85 -123.6 30.15 L-123.55 30.35 -123.85 30.45 Q-125.95 30.45 -126.15 29.9 L-126.0 29.05 M-123.3 69.15 Q-122.85 68.6 -121.9 68.45 L-120.65 68.3 Q-120.05 67.85 -118.95 67.7 L-117.2 67.05 Q-115.9 66.5 -115.65 66.6 L-116.85 67.4 -118.65 68.1 -120.9 68.9 Q-119.9 69.0 -119.35 69.65 L-118.95 70.55 -117.55 71.5 -116.15 72.15 -115.7 73.0 -115.25 73.95 Q-114.6 74.05 -114.0 74.8 -113.45 75.45 -113.45 75.75 L-113.6 76.2 -113.7 76.25 Q-113.9 75.55 -114.6 75.1 L-115.65 74.4 -115.85 73.4 Q-116.0 72.8 -116.45 72.45 L-118.2 71.75 Q-119.3 71.35 -119.4 70.8 L-119.55 69.9 Q-119.9 69.4 -121.45 69.1 L-121.95 69.3 -123.3 69.15 M-148.85 61.3 L-148.85 61.45 -149.0 61.5 -150.6 61.1 -151.95 60.35 Q-152.2 60.05 -153.0 59.65 L-154.15 58.95 Q-155.7 57.25 -156.1 55.65 L-156.25 55.7 Q-157.25 55.7 -158.0 54.2 L-158.7 52.2 -158.65 52.2 -157.7 54.1 Q-157.25 55.15 -156.0 55.15 L-155.4 56.4 Q-154.75 57.75 -154.1 58.35 L-152.95 59.1 Q-152.1 59.55 -151.7 59.9 L-148.85 61.3 M-149.5 70.3 Q-148.3 68.7 -145.65 68.7 L-147.6 70.05 Q-148.6 70.95 -148.85 71.6 -149.15 72.3 -150.3 72.95 L-151.8 73.7 -149.5 70.3 M-152.5 75.25 L-151.5 74.25 -151.4 74.2 -151.35 74.7 Q-151.35 75.65 -153.0 76.5 L-153.2 76.35 -152.5 75.25 M-153.3 89.2 Q-151.55 90.05 -150.8 92.5 -149.6 96.2 -149.05 97.1 L-149.1 97.2 Q-149.75 96.7 -150.8 94.3 L-151.8 91.55 -152.45 90.3 -153.3 89.2 M-91.9 64.45 L-88.55 67.8 -88.6 67.9 -88.8 67.95 -90.7 66.45 -91.65 65.1 Q-91.85 64.65 -93.6 63.75 -94.0 63.55 -93.95 62.95 -93.9 62.6 -95.55 62.4 L-95.55 62.1 Q-93.55 62.65 -91.9 64.45 M-115.65 59.75 L-114.35 61.5 Q-113.7 62.45 -112.55 62.9 -112.0 63.1 -111.8 63.75 -111.65 64.25 -110.5 64.35 -110.1 64.4 -108.95 65.05 L-107.65 65.75 Q-105.5 65.75 -105.05 64.65 -104.9 64.8 -104.9 64.9 -104.9 65.3 -105.7 65.7 -106.5 66.1 -107.3 66.1 -108.25 66.1 -109.3 65.35 L-110.65 64.55 Q-111.75 64.4 -112.0 63.8 -112.25 63.2 -112.85 63.1 -113.7 62.9 -114.0 62.35 L-114.5 61.45 Q-115.6 60.3 -115.75 59.75 L-115.65 59.75 M-104.65 70.2 Q-103.25 69.8 -102.8 71.0 -102.15 72.65 -101.0 73.0 -100.2 73.45 -99.4 74.9 L-98.3 77.1 -98.25 77.2 -98.85 77.25 -99.65 74.85 Q-100.6 73.3 -103.0 72.85 -102.65 72.1 -104.65 70.2 M-98.85 98.8 Q-98.7 99.0 -98.7 99.25 -98.7 99.75 -100.35 102.75 L-102.75 106.65 -102.8 106.4 -102.0 104.85 -100.65 102.45 -99.5 100.3 Q-98.95 99.15 -99.15 98.45 L-99.05 98.45 -98.85 98.8 M-102.9 107.95 L-102.6 109.75 Q-102.6 110.65 -103.2 111.15 L-105.3 113.05 -105.45 113.05 Q-105.25 112.25 -104.25 111.65 -103.2 111.0 -103.05 110.55 -102.9 110.15 -103.0 109.35 L-103.1 107.95 -102.9 107.95 M-117.25 108.75 Q-117.25 109.15 -117.6 109.9 L-118.0 111.0 -117.8 111.55 -117.6 112.1 -118.4 116.65 Q-118.4 116.95 -119.15 117.85 -120.1 118.85 -120.95 118.85 L-119.3 117.15 Q-118.3 116.05 -118.4 115.35 L-118.2 113.4 -118.0 112.05 -118.2 111.55 -118.4 111.0 -118.0 109.45 Q-117.6 108.35 -117.5 107.4 L-117.35 107.4 -117.25 108.75 M-109.5 118.25 Q-106.95 116.05 -107.6 114.85 L-106.3 114.85 Q-107.1 115.15 -107.5 116.45 -107.9 117.85 -109.05 118.45 L-109.5 118.25 M-150.75 100.2 L-150.7 99.9 -150.55 99.9 -150.05 101.05 -149.9 101.85 Q-149.9 102.55 -150.5 102.75 -151.15 102.95 -151.15 103.45 L-150.55 105.45 Q-150.55 106.05 -151.1 106.45 L-152.45 107.75 -152.7 107.8 -152.85 107.1 Q-152.85 106.9 -151.95 106.3 -151.1 105.7 -151.1 105.4 L-151.35 104.5 -151.65 103.45 Q-151.65 103.05 -150.95 102.25 -150.3 101.4 -150.3 100.9 L-150.5 100.55 -150.75 100.2 M-158.1 110.15 L-156.5 111.15 -156.45 111.35 -156.75 111.45 Q-158.3 111.45 -158.7 110.85 -159.05 110.3 -160.95 110.5 -161.95 110.6 -163.05 109.85 L-164.25 108.55 -164.6 107.85 Q-162.7 109.55 -159.35 109.55 -158.85 109.55 -158.1 110.15 M-163.35 62.65 Q-161.75 61.35 -161.0 61.5 -161.45 62.7 -162.85 63.7 -164.3 64.7 -164.6 65.6 -164.7 65.9 -167.1 67.45 -169.55 69.0 -170.6 69.35 -170.2 68.8 -167.65 67.2 -165.3 65.8 -165.15 64.95 -164.95 63.95 -163.35 62.65 M-165.5 84.95 L-165.05 85.1 -166.25 86.55 -166.4 86.95 -167.45 87.35 Q-168.5 88.15 -168.8 90.55 L-169.15 90.6 Q-169.3 90.85 -169.3 90.35 -169.3 88.5 -168.5 87.7 L-165.85 84.9 -165.5 84.95 M-169.75 97.5 Q-169.25 99.85 -167.8 102.05 -166.65 103.85 -166.65 105.05 L-166.7 105.35 -166.8 105.5 -167.1 104.95 -167.55 104.45 -167.4 104.4 -168.75 101.85 -170.05 99.05 -169.9 97.5 -169.75 97.5" fill="#cc946f" fill-rule="evenodd" stroke="none"/>
    </g>
    <g id="sprite7" transform="matrix(1.0, 0.0, 0.0, 1.0, 9.85, 13.6)">
      <use ffdec:characterId="1802" height="27.75" transform="matrix(1.0, 0.0, 0.0, 1.0, -9.85, -13.6)" width="19.35" xlink:href="#shape10"/>
    </g>
    <g id="shape10" transform="matrix(1.0, 0.0, 0.0, 1.0, 9.85, 13.6)">
      <path d="M9.0 -0.5 Q9.3 5.05 6.9 9.1 4.5 13.2 0.75 13.4 -3.0 13.6 -5.85 9.85 -8.7 6.05 -9.0 0.5 -9.35 -5.05 -6.95 -9.1 -4.55 -13.15 -0.8 -13.35 2.95 -13.55 5.8 -9.85 8.65 -6.05 9.0 -0.5" fill="#8a581b" fill-rule="evenodd" stroke="none"/>
      <path d="M6.45 -0.15 Q6.7 5.35 4.65 9.3 2.6 13.4 -0.65 13.6 -3.9 13.75 -6.35 10.1 -8.85 6.3 -9.1 0.85 -9.4 -4.65 -7.3 -8.6 -5.25 -12.6 -2.0 -12.85 1.2 -13.0 3.7 -9.35 6.15 -5.6 6.45 -0.15" fill="#a9cdef" fill-rule="evenodd" stroke="none"/>
      <path d="M6.45 -0.15 Q6.7 5.35 4.65 9.3 2.6 13.4 -0.65 13.6 -3.9 13.75 -6.35 10.1 -8.85 6.3 -9.1 0.85 -9.4 -4.65 -7.3 -8.6 -5.25 -12.6 -2.0 -12.85 1.2 -13.0 3.7 -9.35 6.15 -5.6 6.45 -0.15" fill="url(#gradient10)" fill-rule="evenodd" stroke="none"/>
      <path d="M1.65 -7.1 L-1.4 -0.75 Q-3.0 2.35 -4.55 2.45 -5.65 2.5 -5.95 2.95 L-6.4 4.3 -7.2 7.25 -7.45 8.45 -8.6 6.75 Q-8.15 5.45 -7.95 2.7 -7.6 -1.7 -7.05 -1.7 -5.45 -0.8 -4.55 -0.8 -2.45 -0.8 -1.8 -5.25 -1.05 -10.0 0.3 -12.4 1.5 -11.95 2.15 -11.2 L2.95 -10.4 Q3.1 -10.3 1.65 -7.1 M6.0 -3.45 L5.85 -3.1 Q3.4 2.9 0.7 3.1 -0.6 3.2 -3.2 6.8 -5.1 9.4 -6.4 10.1 L-6.75 9.55 Q-5.4 8.6 -2.9 5.1 -0.05 1.1 0.4 1.15 L2.0 0.5 Q3.35 -0.35 3.9 -1.7 4.8 -3.95 5.65 -5.1 L6.0 -3.45" fill="#ffffff" fill-rule="evenodd" stroke="none"/>
      <path d="M8.95 -0.5 Q9.3 5.05 6.8 9.15 4.3 13.35 0.45 13.65 -3.45 13.95 -6.25 10.25 -9.1 6.55 -9.35 1.0 -9.6 -4.55 -7.3 -8.65 -5.05 -12.75 -1.2 -13.1 2.7 -13.4 5.65 -9.75 8.6 -6.05 8.95 -0.5 Z" ffdec:has-small-stroke="true" ffdec:original-stroke-width="1.0" fill="none" stroke="#cca277" stroke-linecap="round" stroke-linejoin="round" stroke-width="3.5713847627307986"/>
    </g>
    <radialGradient cx="0" cy="0" gradientTransform="matrix(0.0163, 0.0, 0.0, 0.0277, -0.3, 3.5)" gradientUnits="userSpaceOnUse" id="gradient10" r="819.2" spreadMethod="pad">
      <stop offset="0.5411764705882353" stop-color="#2d308a" stop-opacity="0.0"/>
      <stop offset="0.7411764705882353" stop-color="#3c3cb0" stop-opacity="0.5019608"/>
    </radialGradient>
    <g id="sprite8" transform="matrix(1.0, 0.0, 0.0, 1.0, 9.85, 13.6)">
      <use ffdec:characterId="1802" height="27.75" transform="matrix(1.0, 0.0, 0.0, 1.0, -9.85, -13.6)" width="19.35" xlink:href="#shape11"/>
    </g>
    <g id="shape11" transform="matrix(1.0, 0.0, 0.0, 1.0, 9.85, 13.6)">
      <path d="M9.0 -0.5 Q9.3 5.05 6.9 9.1 4.5 13.2 0.75 13.4 -3.0 13.6 -5.85 9.85 -8.7 6.05 -9.0 0.5 -9.35 -5.05 -6.95 -9.1 -4.55 -13.15 -0.8 -13.35 2.95 -13.55 5.8 -9.85 8.65 -6.05 9.0 -0.5" fill="#8a581b" fill-rule="evenodd" stroke="none"/>
      <path d="M6.45 -0.15 Q6.7 5.35 4.65 9.3 2.6 13.4 -0.65 13.6 -3.9 13.75 -6.35 10.1 -8.85 6.3 -9.1 0.85 -9.4 -4.65 -7.3 -8.6 -5.25 -12.6 -2.0 -12.85 1.2 -13.0 3.7 -9.35 6.15 -5.6 6.45 -0.15" fill="#a9cdef" fill-rule="evenodd" stroke="none"/>
      <path d="M6.45 -0.15 Q6.7 5.35 4.65 9.3 2.6 13.4 -0.65 13.6 -3.9 13.75 -6.35 10.1 -8.85 6.3 -9.1 0.85 -9.4 -4.65 -7.3 -8.6 -5.25 -12.6 -2.0 -12.85 1.2 -13.0 3.7 -9.35 6.15 -5.6 6.45 -0.15" fill="url(#gradient11)" fill-rule="evenodd" stroke="none"/>
      <path d="M1.65 -7.1 L-1.4 -0.75 Q-3.0 2.35 -4.55 2.45 -5.65 2.5 -5.95 2.95 L-6.4 4.3 -7.2 7.25 -7.45 8.45 -8.6 6.75 Q-8.15 5.45 -7.95 2.7 -7.6 -1.7 -7.05 -1.7 -5.45 -0.8 -4.55 -0.8 -2.45 -0.8 -1.8 -5.25 -1.05 -10.0 0.3 -12.4 1.5 -11.95 2.15 -11.2 L2.95 -10.4 Q3.1 -10.3 1.65 -7.1 M6.0 -3.45 L5.85 -3.1 Q3.4 2.9 0.7 3.1 -0.6 3.2 -3.2 6.8 -5.1 9.4 -6.4 10.1 L-6.75 9.55 Q-5.4 8.6 -2.9 5.1 -0.05 1.1 0.4 1.15 L2.0 0.5 Q3.35 -0.35 3.9 -1.7 4.8 -3.95 5.65 -5.1 L6.0 -3.45" fill="#ffffff" fill-rule="evenodd" stroke="none"/>
      <path d="M8.95 -0.5 Q9.3 5.05 6.8 9.15 4.3 13.35 0.45 13.65 -3.45 13.95 -6.25 10.25 -9.1 6.55 -9.35 1.0 -9.6 -4.55 -7.3 -8.65 -5.05 -12.75 -1.2 -13.1 2.7 -13.4 5.65 -9.75 8.6 -6.05 8.95 -0.5 Z" ffdec:has-small-stroke="true" ffdec:original-stroke-width="1.0" fill="none" stroke="#cca277" stroke-linecap="round" stroke-linejoin="round" stroke-width="4.409230313146613"/>
    </g>
    <radialGradient cx="0" cy="0" gradientTransform="matrix(0.0163, 0.0, 0.0, 0.0277, -0.3, 3.5)" gradientUnits="userSpaceOnUse" id="gradient11" r="819.2" spreadMethod="pad">
      <stop offset="0.5411764705882353" stop-color="#2d308a" stop-opacity="0.0"/>
      <stop offset="0.7411764705882353" stop-color="#3c3cb0" stop-opacity="0.5019608"/>
    </radialGradient>
    <g id="sprite9" transform="matrix(1.0, 0.0, 0.0, 1.0, 31.05, 24.7)">
      <use ffdec:characterId="1804" height="47.35" transform="matrix(1.0, 0.0, 0.0, 1.0, -30.05, -23.7)" width="60.1" xlink:href="#shape12"/>
      <filter id="filter3">
        <feConvolveMatrix divisor="4.0" in="SourceGraphic" kernelMatrix="1 1 1 1" order="2 2" result="filterResult3"/>
      </filter>
      <use ffdec:characterId="1806" filter="url(#filter3)" height="44.05" transform="matrix(1.0, 0.0, 0.0, 1.0, -28.7, -21.2)" width="57.4" xlink:href="#sprite10"/>
      <use ffdec:characterId="1807" height="49.35" transform="matrix(1.0, 0.0, 0.0, 1.0, -31.05, -24.7)" width="62.1" xlink:href="#shape14"/>
    </g>
    <g id="shape12" transform="matrix(1.0, 0.0, 0.0, 1.0, 30.05, 23.7)">
      <path d="M2.15 -14.95 L2.4 -14.95 3.65 -11.0 Q3.65 -10.75 3.25 -10.45 L4.85 -7.45 14.2 -0.3 15.55 -0.75 Q18.25 0.45 18.85 1.0 19.25 1.4 18.7 2.05 19.65 1.15 20.5 1.35 21.3 1.55 23.35 3.2 25.35 4.8 25.35 5.1 L24.7 5.9 23.45 6.7 30.05 11.7 25.55 14.6 27.8 16.7 25.35 17.75 21.4 16.05 22.5 19.0 19.65 20.25 17.15 17.05 10.45 17.8 10.65 20.8 -3.05 21.95 -2.65 23.65 -14.15 23.45 -13.1 16.75 -16.15 21.2 Q-23.05 20.3 -30.05 18.4 L-21.4 9.5 -22.0 9.15 -22.75 8.8 Q-22.5 7.5 -15.5 0.3 -14.4 0.3 -12.95 0.8 L-7.35 -4.95 -7.3 -5.05 -6.6 -8.9 -6.35 -12.15 -6.0 -12.15 -3.8 -23.7 1.25 -14.25 2.15 -14.95 M-2.25 -8.75 L-2.25 -8.85 -2.25 -8.8 -2.25 -8.75 M18.1 2.65 L18.2 2.55 18.1 2.65" fill="#a33737" fill-rule="evenodd" stroke="none"/>
      <path d="M2.15 -14.95 L2.4 -14.95 3.65 -11.0 Q3.65 -10.75 3.25 -10.45 L4.85 -7.45 14.2 -0.3 15.55 -0.75 Q18.25 0.45 18.85 1.0 19.25 1.4 18.7 2.05 19.65 1.15 20.5 1.35 21.3 1.55 23.35 3.2 25.35 4.8 25.35 5.1 L24.7 5.9 23.45 6.7 30.05 11.7 25.55 14.6 27.8 16.7 25.35 17.75 21.4 16.05 22.5 19.0 19.65 20.25 17.15 17.05 10.45 17.8 10.65 20.8 -3.05 21.95 -2.65 23.65 -14.15 23.45 -13.1 16.75 -16.15 21.2 Q-23.05 20.3 -30.05 18.4 L-21.4 9.5 -22.0 9.15 -22.75 8.8 Q-22.5 7.5 -15.5 0.3 -14.4 0.3 -12.95 0.8 L-7.35 -4.95 -7.3 -5.05 -6.6 -8.9 -6.35 -12.15 -6.0 -12.15 -3.8 -23.7 1.25 -14.25 2.15 -14.95 M18.1 2.65 L18.2 2.55 18.1 2.65 M-2.25 -8.85 L-2.25 -8.8 -2.25 -8.75 -2.25 -8.85" fill="url(#gradient12)" fill-rule="evenodd" stroke="none"/>
      <path d="M17.85 12.85 L14.3 13.2 Q12.45 13.1 11.25 11.15 10.35 9.65 10.35 9.1 17.9 6.35 19.75 9.2 20.5 10.3 20.5 11.1 L20.3 11.15 17.65 12.2 17.85 12.85 M8.05 15.2 Q8.05 16.65 7.85 16.85 7.1 17.75 3.55 17.75 1.15 17.75 0.7 17.15 0.45 16.8 0.45 14.4 0.45 13.35 0.8 13.1 L5.8 12.95 7.55 13.5 7.9 14.0 8.05 15.2 M7.15 14.0 Q2.9 13.05 1.7 14.0 1.3 14.3 1.3 15.6 L1.3 16.35 Q1.7 17.0 3.7 17.0 6.45 17.0 7.15 16.1 L7.35 15.2 7.15 14.0 M-9.5 14.5 L-10.85 14.7 -12.65 14.45 -12.65 14.2 -12.35 13.35 -11.65 12.55 Q-10.5 11.6 -8.6 12.15 -8.45 12.1 -8.45 12.45 L-8.5 12.85 -9.4 13.15 -9.5 14.5" fill="#d68787" fill-rule="evenodd" stroke="none"/>
      <path d="M20.5 11.1 Q22.95 10.65 22.95 13.05 22.95 13.5 21.3 14.35 19.75 15.15 19.2 15.15 18.85 15.15 18.2 13.75 L17.85 12.85 17.65 12.2 20.3 11.15 20.5 11.1 M-8.5 12.85 L-6.45 12.8 Q-6.25 12.95 -6.25 13.65 L-6.3 14.8 Q-6.7 15.45 -8.5 15.45 L-9.5 15.3 -9.55 15.05 -9.5 14.5 -9.4 13.15 -8.5 12.85" fill="#5b493e" fill-rule="evenodd" stroke="none"/>
      <path d="M-15.0 13.7 L-15.6 14.1 Q-16.85 14.1 -16.8 13.5 -16.8 12.75 -15.75 12.6 -14.7 12.4 -14.7 13.2 L-15.0 13.7 M-17.5 14.65 Q-17.7 15.0 -18.55 15.0 L-19.65 14.8 -19.7 14.4 Q-19.7 13.45 -18.55 13.35 -17.4 13.25 -17.4 14.15 L-17.5 14.65" fill="#a3c1ed" fill-rule="evenodd" stroke="none"/>
    </g>
    <radialGradient cx="0" cy="0" gradientTransform="matrix(0.063, -0.0061, 0.0041, 0.0423, 3.45, -6.6)" gradientUnits="userSpaceOnUse" id="gradient12" r="819.2" spreadMethod="pad">
      <stop offset="0.396078431372549" stop-color="#ffffff" stop-opacity="0.0"/>
      <stop offset="0.7607843137254902" stop-color="#ffffff" stop-opacity="0.3019608"/>
    </radialGradient>
    <g id="sprite10" transform="matrix(1.0, 0.0, 0.0, 1.0, 28.7, 21.2)">
      <use ffdec:characterId="1805" height="44.05" transform="matrix(1.0, 0.0, 0.0, 1.0, -28.7, -21.2)" width="57.4" xlink:href="#shape13"/>
    </g>
    <g id="shape13" transform="matrix(1.0, 0.0, 0.0, 1.0, 28.7, 21.2)">
      <path d="M-11.95 0.75 L-6.4 -4.3 -6.25 -4.15 -3.45 -20.2 4.45 -5.45 13.1 -0.3 10.7 0.4 Q10.95 1.1 14.25 4.1 M-3.85 16.15 L-2.8 20.25 9.85 19.2 9.65 16.4 16.6 15.6 19.2 18.45 21.15 17.55 19.7 14.8 23.4 16.4 25.65 15.4 23.6 13.45 27.7 10.8 22.9 6.95 Q23.5 8.4 22.75 8.2 L21.45 8.35 20.65 8.95 Q20.3 9.15 15.05 5.1 M-2.8 20.25 L-2.45 21.85 -13.05 21.65 -12.1 15.45 -14.9 19.6 Q-21.25 18.75 -27.7 17.0 L-19.7 8.75" ffdec:has-small-stroke="true" ffdec:original-stroke-width="2.0" fill="none" stroke="#431612" stroke-linecap="round" stroke-linejoin="round" stroke-opacity="0.3019608" stroke-width="3.5713847627307986"/>
    </g>
    <g id="shape14" transform="matrix(1.0, 0.0, 0.0, 1.0, 31.05, 24.7)">
      <path d="M-21.4 9.5 L-22.0 9.15 -22.75 8.8 Q-22.5 7.5 -15.5 0.3 -14.4 0.3 -12.95 0.8 -11.75 1.2 -10.35 1.9 -12.8 4.95 -15.75 7.75 -18.7 10.5 -19.75 10.25 L-20.95 9.8 -21.4 9.5" fill="#5b493e" fill-rule="evenodd" stroke="none"/>
      <path d="M-7.3 -5.05 L-6.6 -8.9 -6.35 -12.15 -6.0 -12.15 -5.1 -12.15 -3.4 -11.95 -3.35 -11.95 -2.9 -11.2 -2.85 -10.7 -2.85 -10.65 -2.85 -6.45 -2.75 -6.35 -2.7 -4.8 -2.95 -4.65 -3.2 -4.55 -4.1 -4.3 -5.2 -4.55 -6.85 -4.9 -7.3 -5.05 M-2.85 -6.45 L-2.85 -6.35 -2.85 -6.45" fill="#e16a6a" fill-rule="evenodd" stroke="none"/>
      <path d="M3.25 -10.45 L4.85 -7.45 5.4 -7.05 Q4.4 -6.0 2.75 -5.1 0.9 -4.1 -0.05 -4.0 -1.0 -3.9 -1.8 -5.05 L-2.75 -6.45 -2.85 -6.45 -2.85 -10.65 -2.85 -10.7 -2.8 -10.7 -2.25 -8.8 -2.25 -8.75 -2.25 -8.85 2.3 -10.05 3.25 -10.45" fill="#a3c1ed" fill-rule="evenodd" stroke="none"/>
      <path d="M14.2 -0.3 L15.55 -0.75 Q18.25 0.45 18.85 1.0 19.25 1.4 18.7 2.05 L18.2 2.55 18.1 2.65 15.45 4.45 Q11.9 1.15 11.6 0.4 L14.2 -0.3" fill="#d68787" fill-rule="evenodd" stroke="none"/>
      <path d="M-6.0 -12.15 L-3.8 -23.7 1.25 -14.25 2.15 -14.95 2.4 -14.95 3.65 -11.0 Q3.65 -10.75 3.25 -10.45 L4.85 -7.45 5.4 -7.05 14.2 -0.3 15.55 -0.75 Q18.25 0.45 18.85 1.0 19.25 1.4 18.7 2.05 19.65 1.15 20.5 1.35 21.3 1.55 23.35 3.2 25.35 4.8 25.35 5.1 L24.7 5.9 23.45 6.7 30.05 11.7 25.55 14.6 27.8 16.7 25.35 17.75 21.4 16.05 22.5 19.0 19.65 20.25 17.15 17.05 10.45 17.8 10.65 20.8 -3.05 21.95 -2.65 23.65 -14.15 23.45 -13.1 16.75 -16.15 21.2 Q-23.05 20.3 -30.05 18.4 L-21.4 9.5 -22.0 9.15 -22.75 8.8 Q-22.5 7.5 -15.5 0.3 -14.4 0.3 -12.95 0.8 L-7.35 -4.95 -7.3 -5.05 -6.6 -8.9 -6.35 -12.15 -6.0 -12.15 -5.1 -12.15 -3.4 -11.95 -3.35 -11.95 -3.4 -12.0 -0.45 -13.4 1.25 -14.25 M-2.85 -6.45 L-2.75 -6.45 -1.8 -5.05 Q-1.0 -3.9 -0.05 -4.0 0.9 -4.1 2.75 -5.1 4.4 -6.0 5.4 -7.05 M3.25 -10.45 L2.3 -10.05 -2.25 -8.85 -2.25 -8.75 -2.25 -8.8 -2.8 -10.7 -2.9 -11.2 -2.85 -10.7 -2.85 -10.65 -2.85 -6.45 -2.75 -6.35 -2.75 -6.45 M23.45 6.7 L22.8 7.1 22.0 7.65 21.3 7.95 Q20.5 7.95 16.9 4.05 16.9 3.85 17.8 2.95 L18.1 2.65 18.2 2.55 18.1 2.65 15.45 4.45 Q11.9 1.15 11.6 0.4 L14.2 -0.3 M18.2 2.55 L18.7 2.05 M-2.9 -11.2 L-2.95 -11.9 -3.35 -11.95 -2.9 -11.2 M-2.85 -6.45 L-2.85 -6.35 -2.85 -6.45 M-2.75 -6.35 L-2.7 -4.8 -2.95 -4.65 -3.2 -4.55 -4.1 -4.3 -5.2 -4.55 -6.85 -4.9 -7.3 -5.05 M-12.95 0.8 Q-11.75 1.2 -10.35 1.9 -12.8 4.95 -15.75 7.75 -18.7 10.5 -19.75 10.25 L-20.95 9.8 -21.4 9.5 M-3.05 21.95 L-4.2 17.5" ffdec:has-small-stroke="true" ffdec:original-stroke-width="2.0" fill="none" stroke="#6e261e" stroke-linecap="round" stroke-linejoin="round" stroke-width="3.5713847627307986"/>
    </g>
    <g id="shape15" transform="matrix(1.0, 0.0, 0.0, 1.0, 184.45, 4.75)">
      <path d="M-118.0 97.3 L-117.9 97.35 -169.9 90.75 -169.8 90.75 Q-178.1 89.85 -184.45 87.4 L-183.95 83.35 Q-183.6 80.9 -182.85 79.35 -177.0 81.9 -168.95 82.8 L-168.9 82.8 -116.9 89.4 -116.8 89.4 Q-91.25 93.25 -84.7 100.45 -80.65 104.05 -78.1 108.75 -82.1 113.1 -83.55 113.75 L-84.35 114.1 -84.5 113.8 Q-86.5 109.5 -90.1 106.4 L-90.4 106.1 Q-96.05 100.6 -118.0 97.3" fill="#000000" fill-opacity="0.2" fill-rule="evenodd" stroke="none"/>
      <path d="M-121.55 -4.75 L-115.5 3.8 -125.5 6.85 -127.5 4.8 -135.15 5.35 -136.4 -0.45 -121.55 -4.75" fill="#3c1411" fill-rule="evenodd" stroke="none"/>
    </g>
    <g id="sprite11" transform="matrix(1.0, 0.0, 0.0, 1.0, 70.95, 78.45)">
      <use ffdec:characterId="1811" height="155.3" transform="matrix(1.0, 0.0, 0.0, 1.0, -70.2, -77.7)" width="140.45" xlink:href="#shape16"/>
      <filter id="filter4">
        <feConvolveMatrix divisor="9.0" in="SourceGraphic" kernelMatrix="1 1 1 1 1 1 1 1 1" order="3 3" result="filterResult4"/>
      </filter>
      <use ffdec:characterId="1813" filter="url(#filter4)" height="138.5" transform="matrix(1.0, 0.0, 0.0, 1.0, -66.0, -75.5)" width="133.2" xlink:href="#sprite12"/>
      <use ffdec:characterId="1814" height="157.25" transform="matrix(1.0, 0.0, 0.0, 1.0, -70.95, -78.45)" width="141.95" xlink:href="#shape18"/>
    </g>
    <g id="shape16" transform="matrix(1.0, 0.0, 0.0, 1.0, 70.2, 77.7)">
      <path d="M47.85 -67.55 Q54.65 -61.85 60.6 -55.05 66.6 -48.3 69.2 -39.55 71.95 -30.2 67.55 -21.35 63.3 -12.8 56.55 -6.05 49.75 0.85 41.6 5.95 33.2 11.15 23.7 14.05 15.3 16.7 6.7 17.85 -2.75 19.4 -12.4 19.35 L-29.2 18.3 Q-37.85 17.45 -46.4 15.6 L-52.2 15.4 Q-60.75 16.85 -59.4 25.55 -58.75 29.55 -55.25 31.5 -46.7 36.15 -36.95 37.7 L-20.25 39.55 -1.1 41.5 18.35 43.55 Q26.3 44.3 36.45 47.05 46.6 49.8 56.0 57.2 65.35 64.55 66.8 70.9 68.2 77.2 59.35 77.6 58.05 77.75 56.2 74.85 54.3 71.95 49.1 66.05 43.85 60.1 34.9 57.4 25.95 54.65 17.25 53.5 L-2.0 51.45 -20.95 49.55 Q-30.05 48.95 -38.85 47.3 -47.5 45.8 -55.9 43.15 -61.8 41.45 -65.5 36.7 -71.4 29.3 -69.9 19.6 -68.8 12.6 -62.85 8.5 -55.05 3.1 -45.6 5.2 L-28.25 8.25 -9.55 9.3 7.25 7.8 Q16.3 6.1 25.0 2.65 33.15 -0.45 40.3 -5.55 47.35 -10.5 53.3 -16.85 58.35 -22.2 59.05 -29.45 59.95 -38.95 54.25 -46.65 48.6 -54.3 41.35 -60.25 34.55 -65.85 25.6 -66.7 14.9 -68.05 10.45 -58.25 6.45 -49.4 10.7 -40.5 14.05 -33.45 11.45 -30.65 8.8 -27.85 4.8 -29.55 0.8 -31.3 -1.05 -43.15 -2.95 -55.05 1.6 -63.95 5.85 -72.35 14.75 -75.85 23.65 -79.4 32.8 -76.15 41.05 -73.1 47.85 -67.55" fill="#9ec4e9" fill-rule="evenodd" stroke="none"/>
      <path d="M-9.55 9.3 L-8.2 9.3 Q-7.5 10.75 -7.5 12.4 -7.5 16.3 -11.65 19.35 L-12.4 19.35 -29.2 18.3 Q-37.85 17.45 -46.4 15.6 L-52.2 15.4 Q-54.5 15.8 -56.05 16.7 -57.5 14.7 -57.5 12.4 -57.5 7.95 -52.2 4.65 L-45.6 5.2 -28.25 8.25 -9.55 9.3" fill="url(#gradient13)" fill-rule="evenodd" stroke="none"/>
      <path d="M10.3 -57.8 Q6.55 -49.2 10.7 -40.5 14.05 -33.45 11.4 -30.55 8.75 -27.7 4.8 -29.3 0.85 -30.95 -0.9 -41.1 -2.6 -51.25 -1.15 -56.85 1.85 -58.75 5.5 -58.75 8.05 -58.75 10.3 -57.8" fill="url(#gradient14)" fill-rule="evenodd" stroke="none"/>
      <path d="M60.1 -14.85 L62.4 -12.85 Q59.75 -9.25 56.55 -6.05 49.75 0.85 41.6 5.95 35.15 9.95 28.05 12.6 L25.9 11.1 Q21.95 8.1 20.2 4.45 L25.0 2.65 Q33.15 -0.45 40.3 -5.55 47.35 -10.5 53.3 -16.85 L54.4 -18.1 Q57.45 -16.85 60.1 -14.85" fill="url(#gradient15)" fill-rule="evenodd" stroke="none"/>
    </g>
    <radialGradient cx="0" cy="0" gradientTransform="matrix(-0.0042, -0.0168, 0.0363, -0.0091, -58.4, 10.6)" gradientUnits="userSpaceOnUse" id="gradient13" r="819.2" spreadMethod="pad">
      <stop offset="0.33725490196078434" stop-color="#000000" stop-opacity="0.0"/>
      <stop offset="0.4627450980392157" stop-color="#000000" stop-opacity="0.101960786"/>
    </radialGradient>
    <radialGradient cx="0" cy="0" gradientTransform="matrix(0.0109, -6.0E-4, 0.0019, 0.0341, 3.0, -58.65)" gradientUnits="userSpaceOnUse" id="gradient14" r="819.2" spreadMethod="pad">
      <stop offset="0.5411764705882353" stop-color="#000000" stop-opacity="0.0"/>
      <stop offset="0.7098039215686275" stop-color="#000000" stop-opacity="0.2"/>
    </radialGradient>
    <radialGradient cx="0" cy="0" gradientTransform="matrix(0.0392, -0.0273, 0.0108, 0.0155, 30.15, 7.05)" gradientUnits="userSpaceOnUse" id="gradient15" r="819.2" spreadMethod="pad">
      <stop offset="0.49411764705882355" stop-color="#000000" stop-opacity="0.101960786"/>
      <stop offset="0.6627450980392157" stop-color="#000000" stop-opacity="0.0"/>
    </radialGradient>
    <g id="sprite12" transform="matrix(1.0, 0.0, 0.0, 1.0, 66.7, 68.45)">
      <use ffdec:characterId="1812" height="138.5" transform="matrix(1.0, 0.0, 0.0, 1.0, -66.7, -68.45)" width="133.2" xlink:href="#shape17"/>
    </g>
    <g id="shape17" transform="matrix(1.0, 0.0, 0.0, 1.0, 66.7, 68.45)">
      <path d="M34.6 -64.9 Q51.85 -55.85 62.65 -37.25 L62.8 -36.85 Q69.95 -19.4 53.7 -3.15 M2.4 -48.25 Q5.6 -68.6 28.5 -66.8 M-64.8 24.0 Q-66.4 32.3 -61.65 39.85 -58.95 43.95 -49.3 45.45 -15.45 51.95 18.75 53.75 43.05 56.55 54.35 68.55" ffdec:has-small-stroke="true" ffdec:original-stroke-width="3.0" fill="none" stroke="#ffffff" stroke-linecap="round" stroke-linejoin="round" stroke-opacity="0.5019608" stroke-width="3.5713847627307986"/>
    </g>
    <g id="shape18" transform="matrix(1.0, 0.0, 0.0, 1.0, 70.95, 78.45)">
      <path d="M47.85 -67.55 Q41.05 -73.1 32.8 -76.15 23.65 -79.4 14.75 -75.85 5.85 -72.35 1.6 -63.95 -2.95 -55.05 -1.25 -43.45 0.45 -31.9 4.6 -29.85 8.75 -27.85 11.4 -30.65 14.05 -33.45 10.7 -40.5 6.45 -49.4 10.45 -58.25 14.9 -68.05 25.6 -66.7 34.55 -65.85 41.35 -60.25 48.6 -54.3 54.25 -46.65 59.95 -38.95 59.05 -29.45 58.35 -22.2 53.3 -16.85 47.35 -10.5 40.3 -5.55 33.15 -0.45 25.0 2.65 16.3 6.1 7.25 7.8 L-9.55 9.3 -28.25 8.25 -45.6 5.2 Q-55.05 3.1 -62.85 8.5 -68.8 12.6 -69.9 19.6 -71.4 29.3 -65.5 36.7 -61.8 41.45 -55.9 43.15 -47.5 45.8 -38.85 47.3 -30.05 48.95 -20.95 49.55 L-2.0 51.45 17.25 53.5 Q25.95 54.65 34.9 57.4 43.85 60.1 49.1 66.05 54.3 71.95 56.2 74.85 58.05 77.75 59.35 77.6 68.2 77.2 66.8 70.9 65.35 64.55 56.0 57.2 46.6 49.8 36.45 47.05 26.3 44.3 18.35 43.55 L-1.1 41.5 -20.25 39.55 -36.95 37.7 Q-46.7 36.15 -55.25 31.5 -58.75 29.55 -59.4 25.55 -60.75 16.85 -52.2 15.4 L-46.4 15.6 Q-37.85 17.45 -29.2 18.3 L-12.4 19.35 Q-2.75 19.4 6.7 17.85 15.3 16.7 23.7 14.05 33.2 11.15 41.6 5.95 49.75 0.85 56.55 -6.05 63.3 -12.8 67.55 -21.35 71.95 -30.2 69.2 -39.55 66.6 -48.3 60.6 -55.05 54.65 -61.85 47.85 -67.55 Z" ffdec:has-small-stroke="true" ffdec:original-stroke-width="1.5" fill="none" stroke="#84b3e1" stroke-linecap="round" stroke-linejoin="round" stroke-width="3.5713847627307986"/>
      <path d="M61.2 -51.05 Q62.75 -49.5 62.75 -48.1 62.75 -47.15 62.4 -47.15 61.1 -47.15 60.25 -48.9 59.8 -49.75 59.65 -50.6 59.65 -52.65 61.2 -51.05 M59.9 -50.15 Q60.95 -48.15 61.85 -47.45 L62.5 -47.45 62.5 -48.45 61.6 -49.95 Q60.95 -51.0 59.9 -51.2 L59.9 -50.15 M23.25 -75.8 Q31.3 -76.45 39.1 -71.1 28.35 -73.95 21.2 -73.6 20.4 -73.75 20.15 -74.55 L20.2 -74.8 20.4 -75.1 20.65 -75.3 21.9 -75.7 23.25 -75.8 M18.1 -73.8 L17.4 -73.2 16.35 -72.85 Q15.8 -72.85 15.65 -73.1 L15.65 -73.05 15.6 -73.35 Q15.6 -73.7 16.15 -74.0 L18.0 -74.2 18.1 -73.8 M12.5 -69.5 Q10.4 -67.7 9.2 -67.7 7.9 -67.7 7.9 -68.4 7.9 -69.4 9.85 -70.85 11.8 -72.3 13.2 -72.35 15.65 -72.75 14.2 -71.2 L12.5 -69.5 M65.3 -44.75 L65.75 -43.25 65.5 -42.7 65.05 -42.3 Q64.5 -42.3 64.15 -43.4 L63.85 -44.55 63.95 -45.6 Q64.75 -45.75 65.3 -44.75 M65.8 -40.25 L65.9 -40.25 Q66.7 -37.5 66.95 -34.9 L67.1 -29.7 Q67.1 -26.25 63.85 -19.25 L63.85 -19.2 63.8 -19.35 63.95 -20.0 Q63.95 -20.5 65.25 -24.1 66.55 -28.15 66.55 -31.35 L66.3 -35.55 66.0 -37.6 Q65.65 -39.2 65.65 -39.7 L65.8 -40.25 M2.55 44.45 L2.3 44.7 0.5 44.6 -1.65 44.4 Q-1.25 44.0 0.1 44.05 L2.45 44.4 2.55 44.45 M20.9 47.3 L14.45 46.25 14.4 46.1 28.95 47.85 Q38.35 49.3 41.3 50.7 41.3 51.15 40.95 51.15 L36.05 49.95 30.15 48.6 20.9 47.3 M54.4 60.55 Q55.7 61.7 55.7 62.15 L55.65 62.45 55.6 62.45 55.6 62.6 55.25 62.65 Q52.4 60.45 52.4 59.35 53.05 59.3 54.4 60.55 M50.8 58.85 Q50.1 58.85 49.7 58.3 L49.4 57.75 49.45 57.25 50.55 57.7 51.35 58.4 50.8 58.85 M44.4 53.95 Q44.4 52.25 46.75 53.45 49.05 54.65 49.05 55.85 49.05 56.6 48.05 56.6 46.55 56.6 45.3 55.2 L44.4 53.95 M-27.9 41.75 L-27.9 42.05 -28.2 42.15 -36.25 41.5 Q-43.35 40.65 -45.9 39.6 L-45.05 39.45 -35.5 40.45 -27.9 41.75 M-4.25 44.05 Q-4.25 44.35 -4.65 44.4 L-7.55 44.55 Q-8.35 44.55 -8.55 44.25 -8.4 43.5 -7.0 43.5 L-4.35 43.65 -4.25 44.05 M-59.95 13.9 Q-61.1 15.4 -62.65 15.4 L-63.35 15.3 -63.4 14.4 Q-63.4 12.2 -61.2 11.05 -59.05 9.95 -59.05 11.85 -59.05 12.7 -59.95 13.9 M-59.9 11.5 Q-60.65 11.4 -61.6 12.45 -62.5 13.5 -62.4 14.25 L-62.4 14.35 Q-60.65 13.8 -59.9 12.4 L-59.9 11.5 M-62.95 16.75 L-62.9 17.1 -63.35 18.5 Q-63.85 19.75 -64.25 20.0 L-64.75 19.1 -64.45 17.7 Q-64.05 16.65 -63.1 16.65 L-62.95 16.75 M-53.45 38.35 Q-55.9 37.95 -60.5 33.65 -65.15 29.35 -63.75 21.0 -63.25 28.0 -60.95 30.65 -58.7 33.3 -54.6 35.55 -50.55 37.8 -50.55 38.1 L-50.8 38.55 -53.45 38.35" fill="#ffffff" fill-rule="evenodd" stroke="none"/>
      <path d="M61.0 77.75 Q58.6 78.2 56.95 75.8 55.3 73.4 55.3 70.35 55.3 67.3 56.75 65.35 58.2 63.4 60.15 63.45 62.1 63.5 64.2 65.6 66.3 67.7 67.1 71.5 67.85 75.3 65.65 76.3 63.4 77.25 61.0 77.75" fill="url(#gradient16)" fill-rule="evenodd" stroke="none"/>
      <path d="M61.0 77.75 Q58.6 78.2 56.95 75.8 55.3 73.4 55.3 70.35 55.3 67.3 56.75 65.35 58.2 63.4 60.15 63.45 62.1 63.5 64.2 65.6 66.3 67.7 67.1 71.5 67.85 75.3 65.65 76.3 63.4 77.25 61.0 77.75 Z" ffdec:has-small-stroke="true" ffdec:original-stroke-width="2.0" fill="none" stroke="#3380cc" stroke-linecap="round" stroke-linejoin="round" stroke-width="3.5713847627307986"/>
      <path d="M66.2 76.55 Q63.85 77.45 61.45 77.95 59.05 78.4 57.55 76.05 56.0 73.7 56.0 70.65 56.0 67.6 57.45 65.65 58.9 63.7 60.85 63.75 62.8 63.8 64.9 65.9 67.0 68.0 67.8 71.8 68.55 75.6 66.2 76.55 Z" ffdec:has-small-stroke="true" ffdec:original-stroke-width="1.0" fill="none" stroke="#c8def2" stroke-linecap="round" stroke-linejoin="round" stroke-width="3.5713847627307986"/>
      <path d="M51.35 61.85 L51.3 62.4 Q51.15 62.75 50.5 62.95 50.05 62.5 50.05 61.9 L50.1 61.0 51.25 61.15 51.35 61.85 M49.35 60.55 L49.0 60.45 48.9 60.05 49.0 59.7 49.35 59.6 Q49.75 59.8 49.75 60.35 L49.35 60.55 M52.45 63.65 Q51.7 63.65 51.55 63.15 L51.55 62.6 Q51.55 61.45 52.25 61.75 52.95 62.1 52.95 63.1 L52.9 63.55 52.45 63.65 M-16.95 45.7 L-16.95 45.55 -17.4 45.55 Q-18.4 45.55 -18.9 45.05 -18.5 43.8 -17.2 43.85 -15.95 43.9 -15.95 44.75 L-16.2 45.3 -15.75 45.35 -15.65 45.75 Q-15.75 46.2 -16.25 46.2 L-16.8 46.15 -16.9 46.05 -16.95 45.7 M-57.05 9.0 L-57.1 8.6 -57.05 8.2 -55.25 8.1 -55.2 8.1 -55.15 8.4 -55.6 8.85 -56.45 9.1 -57.05 9.0 M-56.9 7.5 Q-56.9 6.8 -55.45 6.3 -54.0 5.75 -54.0 7.05 L-54.5 7.7 Q-55.05 8.05 -55.7 8.05 -57.25 8.05 -56.9 7.5 M-51.95 8.5 L-52.35 8.6 -53.05 8.5 -53.15 8.4 -53.2 8.05 Q-53.2 7.45 -51.95 7.45 L-51.85 8.0 -51.9 8.4 -51.95 8.5" fill="#f8a887" fill-rule="evenodd" stroke="none"/>
      <path d="M12.55 -66.9 L12.65 -66.4 12.05 -65.5 11.3 -64.75 10.95 -65.0 10.85 -65.45 Q10.85 -66.05 11.3 -66.6 11.85 -67.25 12.55 -66.9 M9.8 -63.15 L9.45 -61.25 Q8.85 -59.75 7.65 -59.75 6.75 -59.75 6.55 -60.25 L6.55 -60.75 Q6.55 -63.0 8.2 -64.25 9.8 -65.5 9.8 -63.15 M9.0 -63.8 Q8.05 -63.7 7.3 -60.8 L7.3 -60.6 Q8.15 -60.7 8.55 -61.35 L9.0 -62.2 9.0 -63.8 M30.7 -67.2 Q30.4 -66.9 30.15 -66.9 L29.65 -66.95 29.55 -67.0 29.5 -67.35 29.75 -67.85 30.7 -68.3 30.95 -68.25 31.05 -67.95 30.7 -67.2 M29.55 -68.85 Q29.55 -67.8 28.25 -67.8 L27.4 -67.9 27.35 -68.45 Q27.35 -69.3 28.45 -69.55 29.55 -69.85 29.55 -68.85 M55.2 59.6 Q55.2 59.3 55.6 59.35 L56.35 59.6 56.3 59.95 55.35 60.05 Q55.2 60.1 55.2 59.6 M58.05 60.7 L57.95 61.05 57.55 61.15 Q56.6 61.15 56.6 60.15 L56.65 59.6 Q57.7 59.6 58.05 60.7 M-51.6 11.2 L-51.6 10.8 Q-53.0 10.65 -54.05 11.45 L-55.15 12.5 Q-55.35 12.7 -54.85 12.7 -52.65 12.7 -52.0 12.05 L-51.6 11.2 M-50.75 10.95 Q-50.75 11.7 -51.4 12.5 -52.35 13.65 -54.1 13.65 -55.4 13.65 -55.85 13.0 L-56.0 12.35 Q-56.0 11.05 -53.35 10.2 -50.75 9.35 -50.75 10.95 M-56.85 13.3 Q-57.25 13.85 -57.7 14.0 L-58.05 13.7 -58.15 13.25 Q-58.15 12.75 -57.8 12.45 L-56.6 12.25 -56.5 12.65 -56.85 13.3 M-65.5 28.95 L-65.75 29.35 -67.25 29.35 -67.35 28.85 Q-67.35 28.5 -67.05 28.5 L-65.6 28.65 -65.5 28.95 M-67.3 27.75 Q-68.25 27.75 -68.4 26.65 -68.4 25.4 -67.45 25.45 -66.5 25.5 -66.5 26.6 -66.5 27.75 -67.3 27.75" fill="#365885" fill-rule="evenodd" stroke="none"/>
      <path d="M43.15 -63.15 Q43.15 -63.85 44.15 -63.65 45.1 -63.5 45.1 -62.15 45.1 -61.4 44.15 -61.4 43.4 -61.4 43.2 -62.25 43.1 -62.65 43.15 -63.15 M46.05 -60.85 L45.3 -60.6 44.9 -60.7 44.8 -61.15 Q44.8 -62.25 46.05 -61.25 L46.05 -60.85 M25.8 -70.4 L26.15 -70.1 Q25.7 -69.45 25.35 -69.35 L25.0 -69.5 Q24.85 -69.6 24.85 -69.95 24.85 -70.5 25.3 -70.55 L25.55 -70.5 25.2 -71.0 24.9 -71.65 Q25.5 -73.05 26.7 -72.5 L26.8 -71.05 Q26.8 -70.4 25.8 -70.4" fill="#d8ac6b" fill-rule="evenodd" stroke="none"/>
      <path d="M63.35 -29.4 L62.95 -29.45 62.85 -29.85 Q62.85 -30.4 63.25 -30.4 63.7 -30.45 64.0 -29.6 L63.35 -29.4 M63.0 -28.0 L62.95 -27.55 Q63.05 -27.35 62.55 -27.35 61.75 -27.35 61.55 -27.85 61.45 -28.1 61.5 -28.4 L61.55 -29.0 62.9 -29.0 63.0 -28.0 M62.1 -24.85 Q61.4 -24.85 61.4 -25.55 61.4 -26.65 62.65 -27.0 63.85 -27.35 63.85 -26.25 63.85 -25.95 63.15 -25.4 62.45 -24.85 62.1 -24.85 M40.2 54.55 L40.25 54.15 39.3 54.15 39.3 54.7 39.35 54.8 40.2 54.55 M38.4 53.75 Q38.4 53.0 39.85 53.15 41.3 53.3 41.3 53.95 L40.95 55.0 Q40.5 55.65 39.75 55.65 38.8 55.65 38.5 54.75 L38.4 53.75 M37.4 56.45 Q37.3 56.55 37.3 56.05 37.3 55.6 38.25 55.6 L38.4 56.3 37.4 56.45 M39.85 56.3 Q39.85 55.75 40.6 55.8 41.3 55.85 41.3 56.4 41.3 57.1 40.75 57.1 40.15 57.1 39.95 56.65 L39.85 56.3" fill="#2c7e33" fill-rule="evenodd" stroke="none"/>
      <path d="M19.35 -70.05 Q18.95 -69.75 18.45 -69.75 18.1 -69.75 18.0 -69.9 L17.95 -70.05 Q17.95 -70.45 18.3 -70.7 18.75 -71.1 19.65 -70.95 L19.7 -70.65 19.35 -70.05 M18.55 -70.25 L18.45 -70.2 18.6 -70.2 18.55 -70.25 M19.7 -69.75 Q19.7 -70.5 21.45 -70.65 23.15 -70.85 23.15 -69.7 23.15 -68.5 21.65 -68.5 20.75 -68.5 20.15 -69.1 L19.7 -69.75 M21.25 -68.9 Q23.1 -68.9 22.75 -69.6 22.75 -70.3 21.45 -70.25 20.1 -70.2 20.1 -69.75 L20.5 -69.3 Q20.9 -68.9 21.25 -68.9 M63.2 -38.35 Q63.2 -37.45 62.0 -37.45 L60.45 -37.65 60.4 -37.75 60.3 -38.4 Q60.3 -39.8 63.0 -39.2 63.2 -39.2 63.2 -38.35 M59.4 -41.05 L59.9 -41.1 60.65 -40.45 60.4 -39.8 59.9 -39.6 59.35 -39.75 Q59.15 -39.85 59.15 -40.4 59.15 -40.95 59.4 -41.05 M-22.95 41.55 L-23.35 42.4 Q-23.85 43.1 -24.45 43.1 -25.3 43.1 -25.1 42.45 -25.1 41.3 -24.0 40.85 -22.95 40.35 -22.95 41.55 M-24.65 42.6 Q-23.85 42.45 -23.6 42.1 L-23.35 41.5 -24.3 41.55 -24.65 42.0 -24.65 42.6 M-26.35 45.45 Q-27.1 45.45 -27.25 44.6 -27.25 43.9 -26.1 43.4 -25.0 42.85 -25.0 44.1 L-25.35 44.85 Q-25.75 45.45 -26.35 45.45 M-24.5 45.1 L-24.5 44.2 -23.6 43.85 Q-23.35 43.85 -23.35 44.3 L-23.55 44.75 Q-23.8 45.15 -24.1 45.15 L-24.5 45.1 M-62.05 38.3 Q-62.05 37.45 -60.85 37.45 -59.65 37.4 -59.3 38.85 -59.75 39.7 -60.9 39.7 -61.9 39.7 -62.05 38.3 M-57.65 39.4 Q-57.5 39.4 -57.5 39.95 L-57.55 40.45 -57.65 40.45 -58.25 40.8 -58.8 40.65 -58.95 39.95 -58.9 39.45 -57.8 39.45 -57.65 39.4" fill="#fee9ab" fill-rule="evenodd" stroke="none"/>
    </g>
    <radialGradient cx="0" cy="0" fx="57.6" fy="0" gradientTransform="matrix(0.017, 0.0029, -0.003, 0.0179, 57.15, 70.25)" gradientUnits="userSpaceOnUse" id="gradient16" r="819.2" spreadMethod="pad">
      <stop offset="0.08627450980392157" stop-color="#2d8cec"/>
      <stop offset="0.5372549019607843" stop-color="#a9d1f8"/>
      <stop offset="0.6588235294117647" stop-color="#d0e6fb"/>
    </radialGradient>
    <g id="shape19" transform="matrix(1.0, 0.0, 0.0, 1.0, 137.35, 2.9)">
      <path d="M-122.05 6.45 L-121.8 7.0 -122.95 7.8 -124.65 8.35 -125.55 7.6 -126.35 6.7 Q-126.15 5.9 -123.4 5.1 L-123.1 5.2 -122.05 6.45 M-132.2 5.95 L-132.4 6.6 Q-132.75 6.95 -134.15 6.95 -134.9 6.95 -134.9 5.1 -134.9 4.8 -133.8 4.7 L-132.6 4.6 -132.5 4.7 -132.55 4.8 -132.4 5.3 -132.2 5.95 M-132.55 5.3 Q-132.8 4.9 -133.6 4.95 L-134.6 5.1 -134.4 6.65 -133.85 6.65 -132.55 6.3 -132.5 5.8 -132.55 5.3" fill="#d68787" fill-rule="evenodd" stroke="none"/>
      <path d="M-119.3 -1.35 L-118.65 -1.5 -119.1 -2.0 Q-119.65 -2.45 -120.5 -2.6 L-120.6 -2.55 Q-119.6 -1.35 -119.3 -1.35 M-118.6 0.65 L-119.8 -0.95 Q-120.9 -2.05 -120.9 -2.55 -120.9 -3.2 -119.75 -2.7 -118.6 -2.2 -118.4 -1.65 -117.5 -0.25 -117.5 0.1 L-117.55 0.35 -117.85 0.4 -118.6 0.65 M-115.85 2.05 L-115.35 2.35 -114.9 2.8 -115.4 3.3 -115.95 3.65 Q-115.2 4.1 -115.2 4.55 -115.2 4.75 -116.4 5.3 L-118.0 5.8 -118.6 5.3 -118.5 5.15 -118.7 4.6 -119.3 4.1 -119.35 4.0 Q-119.35 3.8 -118.05 3.55 L-116.65 3.35 -117.15 2.5 -117.0 2.5 -116.55 2.95 -116.2 3.3 -116.15 3.25 -116.15 3.2 -116.0 3.3 -115.2 2.8 -115.75 2.4 -116.3 2.3 -116.25 2.25 -115.85 2.05 M-119.45 -1.05 L-118.4 0.4 Q-117.8 0.4 -117.8 0.05 L-118.35 -0.8 Q-118.5 -1.3 -119.45 -1.05 M-116.35 1.95 L-116.35 2.0 -116.4 1.95 -116.35 1.95 M-129.2 5.1 L-128.0 4.9 -128.0 4.55 Q-128.35 3.95 -129.7 4.35 L-129.7 4.8 -129.6 5.0 -129.2 5.1 M-132.5 4.7 L-132.35 4.55 -131.9 4.3 -130.9 4.25 -130.0 4.45 Q-129.9 3.65 -128.05 3.95 -127.65 4.45 -127.65 5.1 L-129.5 5.5 -129.65 5.5 -129.45 6.15 Q-129.45 6.95 -131.2 6.95 L-132.0 6.75 -132.2 5.95 -132.4 5.3 -132.55 4.8 -132.5 4.7" fill="#6e261e" fill-rule="evenodd" stroke="none"/>
      <path d="M-135.55 0.4 L-135.7 -0.2 -136.55 0.1 -136.2 1.4 -135.35 1.25 -135.35 1.0 -135.55 0.4 M-134.9 1.45 L-134.85 1.6 -134.6 3.2 Q-134.6 3.7 -134.75 3.8 L-136.4 4.05 Q-137.1 4.05 -137.15 3.55 L-137.1 2.9 -137.35 1.85 Q-137.35 1.7 -136.9 1.6 L-136.4 1.5 -136.9 0.1 Q-136.9 -0.3 -136.2 -0.45 -135.45 -0.6 -135.25 0.05 L-134.8 1.45 -134.9 1.45" fill="#5b493e" fill-rule="evenodd" stroke="none"/>
      <path d="M-117.55 0.35 Q-116.85 0.3 -116.55 0.65 -115.6 1.6 -115.6 1.85 L-115.85 2.05 -116.25 2.25 -116.3 2.3 -117.0 2.5 -117.15 2.5 -117.25 2.5 Q-117.9 2.5 -118.75 0.8 L-118.6 0.65 -117.85 0.4 -117.55 0.35 M-118.6 5.3 Q-118.85 5.6 -120.0 6.0 L-121.9 6.5 -122.05 6.45 -123.1 5.2 -123.15 5.15 Q-123.15 4.8 -121.95 4.5 L-120.15 4.05 -119.55 4.05 -119.3 4.1 -118.7 4.6 -118.5 5.15 -118.6 5.3 M-116.35 1.95 L-116.4 1.95 -116.35 2.0 -116.35 1.95" fill="#5893ba" fill-rule="evenodd" stroke="none"/>
    </g>
    <g id="sprite13" transform="matrix(1.0, 0.0, 0.0, 1.0, 627.4, 65.1)">
      <use ffdec:characterId="1817" height="51.2" transform="matrix(1.0, 0.0, 0.0, 1.0, -627.4, -65.1)" width="193.8" xlink:href="#shape20"/>
    </g>
    <g id="shape20" transform="matrix(1.0, 0.0, 0.0, 1.0, 627.4, 65.1)">
      <path d="M-451.3 -51.5 L-444.2 -51.0 Q-440.1 -50.35 -437.4 -49.2 -434.6 -48.1 -434.75 -47.15 -434.9 -46.2 -437.9 -45.95 L-444.95 -46.45 Q-449.0 -47.1 -451.8 -48.25 -454.55 -49.4 -454.4 -50.35 -454.25 -51.3 -451.3 -51.5" fill="#000000" fill-opacity="0.101960786" fill-rule="evenodd" stroke="none"/>
      <path d="M-620.8 -36.45 L-605.35 -35.8 Q-596.35 -34.75 -590.15 -32.95 -583.95 -31.1 -584.1 -29.65 -584.3 -28.15 -590.1 -27.3 -595.95 -26.5 -606.5 -26.95 -617.1 -27.45 -622.35 -30.25 -627.6 -33.1 -627.4 -34.6 -627.25 -36.05 -620.8 -36.45 M-573.25 -21.15 Q-567.9 -22.4 -560.35 -22.4 -552.75 -22.4 -547.5 -21.15 -542.15 -19.9 -542.15 -18.15 -542.15 -16.4 -547.5 -15.15 -552.75 -13.9 -560.35 -13.9 -567.9 -13.9 -573.25 -15.15 -578.5 -16.4 -578.5 -18.15 -578.5 -19.9 -573.25 -21.15 M-530.3 -39.65 Q-526.95 -40.6 -522.25 -40.6 -517.55 -40.6 -514.25 -39.65 L-513.1 -39.25 -512.5 -39.5 -508.65 -39.95 -504.85 -39.5 Q-503.25 -39.0 -503.25 -38.3 L-503.3 -38.05 -500.35 -38.2 -495.4 -37.75 Q-493.3 -37.3 -493.3 -36.65 -493.3 -36.0 -495.4 -35.55 L-500.35 -35.1 -505.35 -35.55 Q-507.4 -36.0 -507.4 -36.65 L-507.4 -36.7 -508.65 -36.65 -511.05 -36.8 Q-511.6 -35.8 -514.25 -35.05 -517.55 -34.1 -522.25 -34.1 -526.95 -34.1 -530.3 -35.05 -533.6 -36.0 -533.6 -37.35 -533.6 -38.7 -530.3 -39.65" fill="#000000" fill-opacity="0.2" fill-rule="evenodd" stroke="none"/>
      <path d="M-614.75 -58.3 L-614.65 -58.3 Q-611.05 -60.55 -606.4 -60.0 -601.65 -59.4 -598.7 -56.3 -595.45 -52.8 -596.05 -47.4 L-596.2 -46.3 Q-592.25 -46.5 -591.65 -42.9 L-589.8 -42.4 -588.3 -41.65 -587.9 -41.3 -588.1 -41.1 Q-587.15 -38.95 -588.2 -37.0 -590.55 -32.45 -595.95 -34.1 -598.05 -34.8 -598.75 -35.6 -601.3 -34.85 -602.8 -36.8 -607.55 -31.8 -613.05 -34.7 -617.8 -33.8 -622.05 -37.25 -623.6 -38.5 -622.65 -40.15 -621.3 -42.5 -619.35 -43.05 L-615.7 -42.8 Q-616.55 -44.0 -616.95 -45.65 -618.95 -53.4 -614.65 -58.25 L-614.75 -58.3 M-549.3 -25.7 Q-550.05 -24.1 -552.65 -22.8 -555.45 -21.45 -559.15 -21.15 -562.45 -16.45 -568.5 -20.2 L-568.5 -20.25 Q-572.45 -18.7 -572.4 -22.6 L-572.55 -22.95 -572.4 -22.95 -572.4 -23.1 -572.45 -23.35 -572.45 -23.55 -572.5 -26.05 Q-572.5 -33.2 -564.95 -32.3 -562.05 -32.0 -559.75 -30.5 -557.85 -29.25 -557.45 -27.9 -556.35 -28.7 -554.4 -29.05 -549.75 -29.95 -549.75 -25.7 L-549.75 -25.6 -549.7 -25.6 -549.3 -25.7 M-533.15 -49.5 L-533.0 -49.85 Q-531.8 -52.15 -529.4 -54.25 -525.75 -57.55 -520.9 -59.0 L-518.95 -59.5 -516.1 -59.95 Q-512.1 -60.35 -509.05 -59.0 L-508.45 -58.65 Q-506.8 -57.8 -505.7 -56.35 L-505.5 -56.45 Q-504.35 -57.15 -503.1 -57.5 L-502.4 -57.7 -500.45 -57.95 -500.6 -58.7 -500.4 -57.95 Q-496.0 -56.5 -499.4 -48.3 -500.2 -45.5 -502.85 -46.55 -502.7 -43.0 -506.5 -43.4 -508.75 -43.65 -509.65 -44.7 -512.25 -43.05 -515.2 -42.1 -520.65 -40.35 -526.4 -41.75 -532.85 -43.3 -533.0 -49.45 L-533.15 -49.5 M-446.55 -61.05 Q-445.4 -61.7 -444.1 -61.95 -443.85 -62.9 -442.75 -63.8 -441.5 -64.75 -440.1 -65.0 -436.4 -65.75 -437.05 -61.85 L-437.25 -60.95 -436.1 -60.05 Q-434.2 -58.15 -434.55 -55.15 -433.6 -54.0 -433.6 -52.25 L-433.9 -51.6 Q-435.35 -48.55 -438.75 -48.0 -441.15 -47.6 -442.9 -49.05 L-443.7 -49.8 Q-446.75 -49.3 -449.0 -51.3 -450.1 -52.3 -450.1 -53.8 -449.95 -57.0 -447.3 -57.7 L-447.25 -58.7 Q-447.1 -60.1 -446.55 -61.05" fill="#c2ee80" fill-rule="evenodd" stroke="none"/>
      <path d="M-587.9 -41.3 L-585.85 -39.4 Q-584.1 -37.4 -584.3 -35.75 -584.55 -33.4 -586.8 -32.1 -589.15 -30.75 -592.95 -31.2 -595.0 -31.4 -596.0 -32.65 -598.25 -30.75 -600.5 -31.0 -601.25 -31.1 -601.9 -31.55 L-603.05 -31.15 Q-607.2 -29.75 -612.25 -30.35 -615.55 -30.7 -617.25 -32.25 L-620.45 -32.1 Q-623.45 -32.45 -624.7 -36.05 -625.35 -37.95 -625.4 -39.65 -624.95 -44.0 -619.35 -43.15 -619.7 -47.35 -619.2 -51.25 -618.65 -55.95 -614.75 -58.3 L-614.65 -58.25 Q-618.95 -53.4 -616.95 -45.65 -616.55 -44.0 -615.7 -42.8 L-619.35 -43.05 Q-621.3 -42.5 -622.65 -40.15 -623.6 -38.5 -622.05 -37.25 -617.8 -33.8 -613.05 -34.7 -607.55 -31.8 -602.8 -36.8 -601.3 -34.85 -598.75 -35.6 -598.05 -34.8 -595.95 -34.1 -590.55 -32.45 -588.2 -37.0 -587.15 -38.95 -588.1 -41.1 L-587.9 -41.3 M-572.55 -22.95 L-572.4 -22.6 Q-572.45 -18.7 -568.5 -20.25 L-568.5 -20.2 Q-562.45 -16.45 -559.15 -21.15 -555.45 -21.45 -552.65 -22.8 -550.05 -24.1 -549.3 -25.7 L-548.4 -25.8 Q-545.8 -25.8 -544.6 -23.8 -544.0 -22.8 -543.95 -21.8 -543.95 -19.4 -548.4 -17.95 -549.4 -16.65 -551.1 -16.65 L-552.75 -17.05 -553.5 -16.95 -554.2 -15.85 Q-555.45 -14.65 -559.15 -14.65 L-562.45 -15.1 Q-563.35 -14.65 -564.55 -14.65 -566.35 -14.65 -567.35 -15.5 L-568.15 -15.3 Q-569.45 -15.3 -570.45 -16.2 -571.55 -15.5 -573.05 -15.5 -575.1 -15.5 -576.05 -17.2 -576.65 -18.2 -576.65 -19.1 -576.65 -22.3 -572.55 -22.95 M-533.15 -49.5 L-533.0 -49.45 Q-532.85 -43.3 -526.4 -41.75 -520.65 -40.35 -515.2 -42.1 -512.25 -43.05 -509.65 -44.7 -508.75 -43.65 -506.5 -43.4 -502.7 -43.0 -502.85 -46.55 -500.2 -45.5 -499.4 -48.3 -496.0 -56.5 -500.4 -57.95 -494.8 -58.25 -494.8 -50.9 -494.8 -47.65 -496.55 -44.7 -497.75 -42.8 -499.4 -41.75 L-499.4 -41.15 Q-499.4 -39.55 -500.2 -38.1 -501.4 -36.0 -504.1 -36.0 -507.65 -36.0 -509.1 -38.65 L-509.25 -39.1 -509.35 -39.0 Q-513.75 -35.4 -520.3 -35.4 -530.65 -35.4 -533.35 -39.6 -534.25 -40.95 -534.25 -44.9 -534.25 -47.3 -533.15 -49.5 M-433.6 -52.25 L-433.7 -50.95 Q-434.05 -48.95 -435.55 -47.65 -437.5 -45.9 -440.75 -46.45 -442.8 -46.75 -444.05 -47.75 L-446.9 -47.45 Q-450.1 -47.95 -451.3 -50.7 -452.1 -52.5 -451.9 -53.65 -451.6 -55.55 -449.65 -56.75 -449.2 -59.55 -446.6 -61.05 L-446.55 -61.05 Q-447.1 -60.1 -447.25 -58.7 L-447.3 -57.7 Q-449.95 -57.0 -450.1 -53.8 -450.1 -52.3 -449.0 -51.3 -446.75 -49.3 -443.7 -49.8 L-442.9 -49.05 Q-441.15 -47.6 -438.75 -48.0 -435.35 -48.55 -433.9 -51.6 L-433.6 -52.25" fill="#80cc5e" fill-rule="evenodd" stroke="none"/>
      <path d="M-608.05 -53.25 Q-607.55 -57.8 -610.65 -57.15 -613.8 -56.4 -614.3 -51.85 L-614.05 -49.95 Q-613.6 -48.55 -612.4 -48.4 -610.15 -48.15 -608.85 -50.65 -608.2 -51.95 -608.05 -53.25 M-610.6 -58.2 Q-606.45 -58.85 -607.15 -52.95 -607.3 -51.35 -608.5 -49.55 -610.1 -46.95 -612.55 -47.25 -614.8 -47.5 -615.25 -49.65 -615.6 -50.8 -615.35 -51.95 -614.7 -57.65 -610.6 -58.2 M-616.95 -39.3 L-617.15 -39.05 -616.9 -39.1 -616.95 -39.3 M-612.75 -39.0 Q-613.05 -36.0 -616.1 -36.35 -618.6 -36.65 -618.4 -38.6 -618.15 -41.0 -615.25 -41.25 -612.45 -41.55 -612.75 -39.0 M-570.4 -27.15 Q-570.4 -31.0 -566.85 -31.0 -562.55 -31.0 -562.55 -27.55 -562.55 -26.6 -563.35 -25.6 -564.45 -24.15 -566.35 -24.15 -568.35 -24.15 -569.55 -25.5 -570.4 -26.4 -570.4 -27.15 M-601.9 -44.0 Q-603.1 -42.65 -605.3 -42.9 L-606.7 -43.3 -606.6 -44.9 Q-606.3 -47.5 -603.55 -47.6 -600.8 -47.75 -601.0 -46.0 -601.1 -44.9 -601.9 -44.0 M-603.7 -44.15 L-604.6 -43.95 -604.35 -43.9 -603.7 -44.15 M-522.15 -52.25 Q-524.1 -50.7 -526.6 -50.7 -528.05 -50.7 -528.55 -51.5 L-528.8 -52.4 Q-528.8 -53.45 -527.85 -54.55 -526.35 -56.4 -523.05 -56.4 -521.85 -56.4 -521.1 -55.6 -520.55 -55.05 -520.55 -54.6 -520.55 -53.6 -522.15 -52.25 M-507.5 -53.6 Q-508.3 -52.7 -509.6 -52.7 -511.95 -52.7 -513.25 -54.45 -514.1 -55.65 -514.1 -56.55 -514.1 -58.6 -510.5 -58.2 -506.95 -57.85 -506.95 -54.8 -506.95 -54.3 -507.5 -53.6 M-507.8 -54.8 Q-507.8 -56.4 -510.55 -57.15 -513.35 -57.95 -513.35 -56.55 -513.35 -55.75 -512.45 -54.8 -511.3 -53.55 -509.55 -53.55 -508.65 -53.55 -508.15 -54.15 -507.8 -54.5 -507.8 -54.8 M-501.15 -53.95 Q-502.3 -52.95 -503.75 -52.95 -505.0 -52.95 -505.3 -53.55 L-505.4 -54.2 Q-505.4 -55.7 -502.75 -56.15 -500.15 -56.6 -500.15 -55.55 -500.15 -54.85 -501.15 -53.95 M-530.15 -46.95 Q-530.15 -48.6 -527.75 -48.2 -525.35 -47.8 -525.35 -46.2 -525.35 -45.9 -525.65 -45.55 -526.15 -45.05 -527.1 -45.05 -529.5 -45.05 -530.15 -46.95 M-555.4 -27.25 Q-552.95 -27.5 -552.95 -25.8 -552.95 -25.3 -553.75 -24.55 -554.75 -23.65 -556.25 -23.65 -557.35 -23.65 -557.7 -24.45 L-557.85 -25.3 Q-557.85 -26.95 -555.4 -27.25 M-506.65 -45.95 Q-507.95 -45.95 -508.3 -46.5 L-508.45 -47.1 Q-508.45 -48.3 -506.55 -48.2 -504.65 -48.1 -504.65 -46.8 -504.65 -45.95 -506.65 -45.95 M-438.1 -62.8 Q-438.15 -62.3 -439.3 -61.55 -440.45 -60.85 -440.85 -60.9 -441.45 -61.0 -441.55 -61.4 L-441.55 -61.8 Q-441.25 -63.45 -439.55 -63.95 -437.8 -64.4 -438.1 -62.8 M-444.9 -54.95 L-445.6 -54.1 -445.65 -53.95 Q-443.7 -53.8 -443.55 -55.0 L-444.9 -54.95 M-442.4 -54.55 Q-442.55 -53.75 -443.5 -53.2 -444.6 -52.55 -445.95 -52.75 -446.85 -52.9 -446.95 -53.5 L-446.85 -54.1 Q-446.75 -54.85 -446.05 -55.55 -445.1 -56.6 -443.85 -56.4 -442.6 -56.2 -442.4 -55.3 -442.25 -54.9 -442.4 -54.55 M-437.2 -50.05 L-438.05 -50.45 -438.25 -51.0 Q-438.1 -51.95 -437.1 -52.05 -436.1 -52.15 -436.25 -51.1 -436.45 -49.95 -437.2 -50.05" fill="#d6f5db" fill-rule="evenodd" stroke="none"/>
    </g>
  </defs>
</svg>
