<?xml version="1.0" encoding="UTF-8" standalone="no"?>
<svg xmlns:ffdec="https://www.free-decompiler.com/flash" xmlns:xlink="http://www.w3.org/1999/xlink" ffdec:objectType="frame" height="139.95px" width="216.35px" xmlns="http://www.w3.org/2000/svg">
  <g transform="matrix(1.0, 0.0, 0.0, 1.0, 3.7, -3.1)">
    <use ffdec:characterId="1671" height="40.7" transform="matrix(1.0, 0.0, 0.0, 1.0, 6.3, 59.2)" width="206.35" xlink:href="#text0"/>
    <use ffdec:characterId="1672" height="38.3" transform="matrix(1.0, 0.0, 0.0, 1.0, -3.7, 104.75)" width="209.4" xlink:href="#text1"/>
    <use ffdec:characterId="1673" height="19.15" transform="matrix(1.0, 0.0, 0.0, 1.0, 84.6, 3.3)" width="46.7" xlink:href="#text2"/>
    <use ffdec:characterId="1675" height="56.05" transform="matrix(0.9461, 0.083, -0.083, 0.9461, 21.6084, 3.0832)" width="182.25" xlink:href="#sprite0"/>
  </g>
  <defs>
    <g id="text0" transform="matrix(1.0, 0.0, 0.0, 1.0, -9.7, 1.95)">
      <g transform="matrix(1.0, 0.0, 0.0, 1.0, 0.0, 0.0)">
        <use fill="#4e014e" height="40.7" transform="matrix(0.0137, 0.0, 0.0, 0.0137, 9.0, 11.0)" width="206.35" xlink:href="#font_Burbank_Big_Regular_Black_B0"/>
        <use fill="#4e014e" height="40.7" transform="matrix(0.0137, 0.0, 0.0, 0.0137, 17.25, 11.0)" width="206.35" xlink:href="#font_Burbank_Big_Regular_Black_o0"/>
        <use fill="#4e014e" height="40.7" transform="matrix(0.0137, 0.0, 0.0, 0.0137, 25.25, 11.0)" width="206.35" xlink:href="#font_Burbank_Big_Regular_Black_r0"/>
        <use fill="#4e014e" height="40.7" transform="matrix(0.0137, 0.0, 0.0, 0.0137, 30.8, 11.0)" width="206.35" xlink:href="#font_Burbank_Big_Regular_Black_r0"/>
        <use fill="#4e014e" height="40.7" transform="matrix(0.0137, 0.0, 0.0, 0.0137, 36.35, 11.0)" width="206.35" xlink:href="#font_Burbank_Big_Regular_Black_o0"/>
        <use fill="#4e014e" height="40.7" transform="matrix(0.0137, 0.0, 0.0, 0.0137, 44.35, 11.0)" width="206.35" xlink:href="#font_Burbank_Big_Regular_Black_w0"/>
        <use fill="#4e014e" height="40.7" transform="matrix(0.0137, 0.0, 0.0, 0.0137, 58.4, 11.0)" width="206.35" xlink:href="#font_Burbank_Big_Regular_Black_a0"/>
        <use fill="#4e014e" height="40.7" transform="matrix(0.0137, 0.0, 0.0, 0.0137, 69.1, 11.0)" width="206.35" xlink:href="#font_Burbank_Big_Regular_Black_B0"/>
        <use fill="#4e014e" height="40.7" transform="matrix(0.0137, 0.0, 0.0, 0.0137, 77.35, 11.0)" width="206.35" xlink:href="#font_Burbank_Big_Regular_Black_i0"/>
        <use fill="#4e014e" height="40.7" transform="matrix(0.0137, 0.0, 0.0, 0.0137, 81.1, 11.0)" width="206.35" xlink:href="#font_Burbank_Big_Regular_Black_n0"/>
        <use fill="#4e014e" height="40.7" transform="matrix(0.0137, 0.0, 0.0, 0.0137, 91.9, 11.0)" width="206.35" xlink:href="#font_Burbank_Big_Regular_Black_P0"/>
        <use fill="#4e014e" height="40.7" transform="matrix(0.0137, 0.0, 0.0, 0.0137, 99.9, 11.0)" width="206.35" xlink:href="#font_Burbank_Big_Regular_Black_e0"/>
        <use fill="#4e014e" height="40.7" transform="matrix(0.0137, 0.0, 0.0, 0.0137, 107.85, 11.0)" width="206.35" xlink:href="#font_Burbank_Big_Regular_Black_t0"/>
        <use fill="#4e014e" height="40.7" transform="matrix(0.0137, 0.0, 0.0, 0.0137, 116.9, 11.0)" width="206.35" xlink:href="#font_Burbank_Big_Regular_Black_f0"/>
        <use fill="#4e014e" height="40.7" transform="matrix(0.0137, 0.0, 0.0, 0.0137, 122.8, 11.0)" width="206.35" xlink:href="#font_Burbank_Big_Regular_Black_o0"/>
        <use fill="#4e014e" height="40.7" transform="matrix(0.0137, 0.0, 0.0, 0.0137, 130.8, 11.0)" width="206.35" xlink:href="#font_Burbank_Big_Regular_Black_r0"/>
        <use fill="#4e014e" height="40.7" transform="matrix(0.0137, 0.0, 0.0, 0.0137, 139.55, 11.0)" width="206.35" xlink:href="#font_Burbank_Big_Regular_Black_a0"/>
        <use fill="#4e014e" height="40.7" transform="matrix(0.0137, 0.0, 0.0, 0.0137, 150.25, 11.0)" width="206.35" xlink:href="#font_Burbank_Big_Regular_Black_w0"/>
        <use fill="#4e014e" height="40.7" transform="matrix(0.0137, 0.0, 0.0, 0.0137, 161.1, 11.0)" width="206.35" xlink:href="#font_Burbank_Big_Regular_Black_h0"/>
        <use fill="#4e014e" height="40.7" transform="matrix(0.0137, 0.0, 0.0, 0.0137, 168.7, 11.0)" width="206.35" xlink:href="#font_Burbank_Big_Regular_Black_o0"/>
        <use fill="#4e014e" height="40.7" transform="matrix(0.0137, 0.0, 0.0, 0.0137, 176.7, 11.0)" width="206.35" xlink:href="#font_Burbank_Big_Regular_Black_l0"/>
        <use fill="#4e014e" height="40.7" transform="matrix(0.0137, 0.0, 0.0, 0.0137, 180.45, 11.0)" width="206.35" xlink:href="#font_Burbank_Big_Regular_Black_e0"/>
        <use fill="#4e014e" height="40.7" transform="matrix(0.0137, 0.0, 0.0, 0.0137, 191.6, 11.0)" width="206.35" xlink:href="#font_Burbank_Big_Regular_Black_d0"/>
        <use fill="#4e014e" height="40.7" transform="matrix(0.0137, 0.0, 0.0, 0.0137, 199.6, 11.0)" width="206.35" xlink:href="#font_Burbank_Big_Regular_Black_a0"/>
        <use fill="#4e014e" height="40.7" transform="matrix(0.0137, 0.0, 0.0, 0.0137, 207.1, 11.0)" width="206.35" xlink:href="#font_Burbank_Big_Regular_Black_y0"/>
      </g>
      <g transform="matrix(1.0, 0.0, 0.0, 1.0, 0.0, 0.0)">
        <use fill="#4e014e" height="40.7" transform="matrix(0.0137, 0.0, 0.0, 0.0137, 12.0, 23.0)" width="206.35" xlink:href="#font_Burbank_Big_Regular_Black_t0"/>
        <use fill="#4e014e" height="40.7" transform="matrix(0.0137, 0.0, 0.0, 0.0137, 17.85, 23.0)" width="206.35" xlink:href="#font_Burbank_Big_Regular_Black_o0"/>
        <use fill="#4e014e" height="40.7" transform="matrix(0.0137, 0.0, 0.0, 0.0137, 29.05, 23.0)" width="206.35" xlink:href="#font_Burbank_Big_Regular_Black_f0"/>
        <use fill="#4e014e" height="40.7" transform="matrix(0.0137, 0.0, 0.0, 0.0137, 34.95, 23.0)" width="206.35" xlink:href="#font_Burbank_Big_Regular_Black_i0"/>
        <use fill="#4e014e" height="40.7" transform="matrix(0.0137, 0.0, 0.0, 0.0137, 38.7, 23.0)" width="206.35" xlink:href="#font_Burbank_Big_Regular_Black_n0"/>
        <use fill="#4e014e" height="40.7" transform="matrix(0.0137, 0.0, 0.0, 0.0137, 46.3, 23.0)" width="206.35" xlink:href="#font_Burbank_Big_Regular_Black_d0"/>
        <use fill="#4e014e" height="40.7" transform="matrix(0.0137, 0.0, 0.0, 0.0137, 57.5, 23.0)" width="206.35" xlink:href="#font_Burbank_Big_Regular_Black_o0"/>
        <use fill="#4e014e" height="40.7" transform="matrix(0.0137, 0.0, 0.0, 0.0137, 65.5, 23.0)" width="206.35" xlink:href="#font_Burbank_Big_Regular_Black_u0"/>
        <use fill="#4e014e" height="40.7" transform="matrix(0.0137, 0.0, 0.0, 0.0137, 73.1, 23.0)" width="206.35" xlink:href="#font_Burbank_Big_Regular_Black_t0"/>
        <use fill="#4e014e" height="40.7" transform="matrix(0.0137, 0.0, 0.0, 0.0137, 82.15, 23.0)" width="206.35" xlink:href="#font_Burbank_Big_Regular_Black_w0"/>
        <use fill="#4e014e" height="40.7" transform="matrix(0.0137, 0.0, 0.0, 0.0137, 93.0, 23.0)" width="206.35" xlink:href="#font_Burbank_Big_Regular_Black_h0"/>
        <use fill="#4e014e" height="40.7" transform="matrix(0.0137, 0.0, 0.0, 0.0137, 100.6, 23.0)" width="206.35" xlink:href="#font_Burbank_Big_Regular_Black_a0"/>
        <use fill="#4e014e" height="40.7" transform="matrix(0.0137, 0.0, 0.0, 0.0137, 108.1, 23.0)" width="206.35" xlink:href="#font_Burbank_Big_Regular_Black_t0"/>
        <use fill="#4e014e" height="40.7" transform="matrix(0.0137, 0.0, 0.0, 0.0137, 117.15, 23.0)" width="206.35" xlink:href="#font_Burbank_Big_Regular_Black_i0"/>
        <use fill="#4e014e" height="40.7" transform="matrix(0.0137, 0.0, 0.0, 0.0137, 120.9, 23.0)" width="206.35" xlink:href="#font_Burbank_Big_Regular_Black_t0"/>
        <use fill="#4e014e" height="40.7" transform="matrix(0.0137, 0.0, 0.0, 0.0137, 126.75, 23.0)" width="206.35" xlink:href="#font_Burbank_Big_Regular_Black__1"/>
        <use fill="#4e014e" height="40.7" transform="matrix(0.0137, 0.0, 0.0, 0.0137, 129.15, 23.0)" width="206.35" xlink:href="#font_Burbank_Big_Regular_Black_s0"/>
        <use fill="#4e014e" height="40.7" transform="matrix(0.0137, 0.0, 0.0, 0.0137, 139.4, 23.0)" width="206.35" xlink:href="#font_Burbank_Big_Regular_Black_l0"/>
        <use fill="#4e014e" height="40.7" transform="matrix(0.0137, 0.0, 0.0, 0.0137, 143.15, 23.0)" width="206.35" xlink:href="#font_Burbank_Big_Regular_Black_i0"/>
        <use fill="#4e014e" height="40.7" transform="matrix(0.0137, 0.0, 0.0, 0.0137, 146.9, 23.0)" width="206.35" xlink:href="#font_Burbank_Big_Regular_Black_k0"/>
        <use fill="#4e014e" height="40.7" transform="matrix(0.0137, 0.0, 0.0, 0.0137, 154.7, 23.0)" width="206.35" xlink:href="#font_Burbank_Big_Regular_Black_e0"/>
        <use fill="#4e014e" height="40.7" transform="matrix(0.0137, 0.0, 0.0, 0.0137, 165.85, 23.0)" width="206.35" xlink:href="#font_Burbank_Big_Regular_Black_t0"/>
        <use fill="#4e014e" height="40.7" transform="matrix(0.0137, 0.0, 0.0, 0.0137, 171.7, 23.0)" width="206.35" xlink:href="#font_Burbank_Big_Regular_Black_o0"/>
        <use fill="#4e014e" height="40.7" transform="matrix(0.0137, 0.0, 0.0, 0.0137, 182.9, 23.0)" width="206.35" xlink:href="#font_Burbank_Big_Regular_Black_h0"/>
        <use fill="#4e014e" height="40.7" transform="matrix(0.0137, 0.0, 0.0, 0.0137, 190.5, 23.0)" width="206.35" xlink:href="#font_Burbank_Big_Regular_Black_a0"/>
        <use fill="#4e014e" height="40.7" transform="matrix(0.0137, 0.0, 0.0, 0.0137, 198.0, 23.0)" width="206.35" xlink:href="#font_Burbank_Big_Regular_Black_v0"/>
        <use fill="#4e014e" height="40.7" transform="matrix(0.0137, 0.0, 0.0, 0.0137, 205.4, 23.0)" width="206.35" xlink:href="#font_Burbank_Big_Regular_Black_e0"/>
      </g>
      <g transform="matrix(1.0, 0.0, 0.0, 1.0, 0.0, 0.0)">
        <use fill="#4e014e" height="40.7" transform="matrix(0.0137, 0.0, 0.0, 0.0137, 53.0, 35.0)" width="206.35" xlink:href="#font_Burbank_Big_Regular_Black_y0"/>
        <use fill="#4e014e" height="40.7" transform="matrix(0.0137, 0.0, 0.0, 0.0137, 60.65, 35.0)" width="206.35" xlink:href="#font_Burbank_Big_Regular_Black_o0"/>
        <use fill="#4e014e" height="40.7" transform="matrix(0.0137, 0.0, 0.0, 0.0137, 68.65, 35.0)" width="206.35" xlink:href="#font_Burbank_Big_Regular_Black_u0"/>
        <use fill="#4e014e" height="40.7" transform="matrix(0.0137, 0.0, 0.0, 0.0137, 76.25, 35.0)" width="206.35" xlink:href="#font_Burbank_Big_Regular_Black_r0"/>
        <use fill="#4e014e" height="40.7" transform="matrix(0.0137, 0.0, 0.0, 0.0137, 85.0, 35.0)" width="206.35" xlink:href="#font_Burbank_Big_Regular_Black_v0"/>
        <use fill="#4e014e" height="40.7" transform="matrix(0.0137, 0.0, 0.0, 0.0137, 92.4, 35.0)" width="206.35" xlink:href="#font_Burbank_Big_Regular_Black_e0"/>
        <use fill="#4e014e" height="40.7" transform="matrix(0.0137, 0.0, 0.0, 0.0137, 100.35, 35.0)" width="206.35" xlink:href="#font_Burbank_Big_Regular_Black_r0"/>
        <use fill="#4e014e" height="40.7" transform="matrix(0.0137, 0.0, 0.0, 0.0137, 105.9, 35.0)" width="206.35" xlink:href="#font_Burbank_Big_Regular_Black_y0"/>
        <use fill="#4e014e" height="40.7" transform="matrix(0.0137, 0.0, 0.0, 0.0137, 116.75, 35.0)" width="206.35" xlink:href="#font_Burbank_Big_Regular_Black_o0"/>
        <use fill="#4e014e" height="40.7" transform="matrix(0.0137, 0.0, 0.0, 0.0137, 124.75, 35.0)" width="206.35" xlink:href="#font_Burbank_Big_Regular_Black_w0"/>
        <use fill="#4e014e" height="40.7" transform="matrix(0.0137, 0.0, 0.0, 0.0137, 135.6, 35.0)" width="206.35" xlink:href="#font_Burbank_Big_Regular_Black_n0"/>
        <use fill="#4e014e" height="40.7" transform="matrix(0.0137, 0.0, 0.0, 0.0137, 146.4, 35.0)" width="206.35" xlink:href="#font_Burbank_Big_Regular_Black_p0"/>
        <use fill="#4e014e" height="40.7" transform="matrix(0.0137, 0.0, 0.0, 0.0137, 154.5, 35.0)" width="206.35" xlink:href="#font_Burbank_Big_Regular_Black_e0"/>
        <use fill="#4e014e" height="40.7" transform="matrix(0.0137, 0.0, 0.0, 0.0137, 162.45, 35.0)" width="206.35" xlink:href="#font_Burbank_Big_Regular_Black_t0"/>
        <use fill="#4e014e" height="40.7" transform="matrix(0.0137, 0.0, 0.0, 0.0137, 168.3, 35.0)" width="206.35" xlink:href="#font_Burbank_Big_Regular_Black__2"/>
      </g>
    </g>
    <g id="font_Burbank_Big_Regular_Black_B0">
      <path d="M247.0 -568.5 Q245.5 -495.0 246.0 -460.0 246.5 -424.5 247.0 -425.0 304.5 -421.5 333.5 -439.0 362.5 -456.5 362.5 -497.5 362.5 -532.5 341.0 -551.5 319.5 -570.0 276.5 -570.5 L262.5 -569.5 247.0 -568.5 M251.0 -137.0 L267.0 -136.0 282.5 -135.0 Q325.5 -135.0 349.5 -152.5 373.5 -170.5 374.0 -211.0 374.5 -250.5 345.5 -270.5 317.0 -291.0 248.0 -286.5 248.5 -213.0 249.5 -175.0 L251.0 -137.0 M38.0 -1.0 L37.5 -59.0 36.0 -214.5 Q35.0 -313.0 33.0 -440.0 31.5 -567.0 28.5 -708.5 100.0 -721.0 161.5 -726.5 223.5 -732.0 275.5 -732.0 432.0 -732.0 506.0 -679.5 580.5 -627.0 579.5 -526.5 579.0 -467.5 548.5 -427.5 518.0 -387.5 465.0 -369.5 532.5 -349.5 566.5 -305.0 600.0 -260.5 600.0 -195.5 599.0 -82.0 510.5 -32.5 422.0 17.5 259.0 16.5 210.0 16.5 154.5 11.5 99.5 7.0 38.0 -1.0" fill-rule="evenodd" stroke="none"/>
    </g>
    <g id="font_Burbank_Big_Regular_Black_o0">
      <path d="M294.0 -125.0 Q309.5 -124.5 320.5 -135.0 331.5 -145.5 337.0 -175.0 343.0 -205.0 343.0 -262.0 343.0 -312.0 337.5 -340.5 332.0 -369.0 321.0 -381.0 310.0 -392.5 293.0 -392.0 268.0 -393.5 255.0 -366.0 242.0 -338.5 241.5 -268.5 241.5 -212.0 247.0 -180.5 252.0 -149.0 263.5 -137.0 275.0 -124.5 294.0 -125.0 M291.0 10.0 Q155.5 10.0 85.0 -61.5 14.5 -133.0 14.5 -269.5 15.0 -352.5 48.5 -410.5 82.5 -468.5 144.5 -499.0 206.5 -529.0 291.0 -529.5 426.5 -528.0 498.5 -457.5 570.5 -387.0 570.5 -261.0 569.5 -162.5 533.0 -102.5 496.5 -42.5 433.5 -16.0 370.5 10.5 291.0 10.0" fill-rule="evenodd" stroke="none"/>
    </g>
    <g id="font_Burbank_Big_Regular_Black_r0">
      <path d="M26.5 2.0 L26.5 -43.5 Q27.0 -88.5 27.0 -162.5 L26.0 -327.5 Q25.5 -418.0 24.5 -511.0 L66.0 -510.5 Q108.5 -510.5 203.0 -512.0 202.5 -511.0 201.5 -487.0 L200.5 -425.0 Q226.0 -477.5 280.0 -507.0 333.5 -536.0 403.5 -529.5 L401.0 -476.0 Q399.0 -423.0 397.5 -321.5 336.5 -321.0 304.0 -307.0 271.0 -292.5 258.5 -260.0 245.5 -227.0 244.5 -170.0 L244.5 -119.0 Q244.5 -90.5 245.0 -63.0 245.0 -35.5 245.5 -17.5 245.5 0.5 246.0 1.0 L191.5 1.0 Q137.0 0.5 26.5 2.0" fill-rule="evenodd" stroke="none"/>
    </g>
    <g id="font_Burbank_Big_Regular_Black_w0">
      <path d="M437.0 7.0 Q419.0 -133.0 406.5 -211.0 394.0 -288.5 393.0 -290.0 371.5 -149.5 363.0 -82.0 355.0 -14.0 355.5 -14.5 L191.0 -16.0 Q129.5 -16.5 102.5 -17.0 L76.0 -17.5 Q41.0 -256.5 20.5 -379.5 0.5 -502.5 0.0 -503.0 63.5 -502.5 111.5 -503.0 160.0 -504.0 187.5 -505.0 L215.0 -506.0 Q222.5 -336.0 228.5 -259.0 235.0 -182.0 235.5 -183.5 264.0 -342.5 279.0 -429.0 294.0 -515.0 294.0 -516.0 L493.5 -516.0 Q512.5 -409.5 525.5 -341.5 538.5 -274.0 546.0 -237.5 554.0 -201.0 557.5 -187.0 561.0 -173.5 561.0 -174.0 L571.5 -388.0 Q575.0 -467.5 576.0 -502.5 L577.5 -536.5 Q688.5 -533.0 742.0 -533.0 795.0 -533.0 794.5 -533.5 752.0 -264.0 733.5 -129.5 715.5 5.0 716.0 5.0 579.0 4.0 508.0 5.5 L437.0 7.0" fill-rule="evenodd" stroke="none"/>
    </g>
    <g id="font_Burbank_Big_Regular_Black_a0">
      <path d="M264.0 -115.5 Q289.0 -115.0 303.0 -136.0 317.0 -157.0 316.5 -214.0 L316.5 -222.0 Q267.0 -220.5 245.5 -202.5 224.0 -184.0 224.5 -158.5 224.5 -139.0 234.0 -127.5 244.0 -116.0 264.0 -115.5 M187.5 17.5 Q134.0 17.0 94.0 -0.5 53.5 -18.5 30.5 -52.0 7.5 -85.5 7.0 -132.0 7.0 -218.5 70.0 -262.0 132.5 -306.0 262.0 -305.0 273.0 -305.0 284.5 -304.5 L307.0 -303.0 307.0 -318.5 Q306.0 -355.0 297.0 -370.5 288.0 -386.5 270.5 -386.0 251.5 -386.0 241.5 -370.0 231.5 -354.5 229.5 -325.5 L175.0 -326.5 26.5 -329.5 Q29.5 -388.5 59.5 -433.0 90.0 -477.5 144.5 -503.0 199.5 -528.0 275.5 -528.5 366.0 -528.0 421.0 -500.0 476.0 -472.0 502.0 -419.0 527.5 -366.0 529.5 -291.0 530.5 -234.0 530.5 -180.0 530.5 -126.0 530.0 -82.5 L529.0 -13.0 528.5 13.5 479.0 14.0 347.0 15.5 Q347.5 15.0 349.0 -5.5 L352.5 -59.5 Q326.5 -17.5 282.0 0.0 237.5 18.0 187.5 17.5" fill-rule="evenodd" stroke="none"/>
    </g>
    <g id="font_Burbank_Big_Regular_Black_i0">
      <path d="M140.5 -549.0 Q73.5 -549.0 40.5 -576.5 7.0 -604.0 7.0 -659.5 7.0 -708.5 40.5 -736.0 74.0 -763.5 140.5 -764.0 204.5 -763.0 236.5 -734.0 268.5 -704.5 268.5 -658.5 268.5 -610.0 237.5 -580.0 207.0 -550.0 140.5 -549.0 M30.5 -1.0 Q31.0 0.0 31.0 -50.5 L30.5 -214.0 27.5 -514.0 84.5 -514.0 Q140.5 -513.5 246.0 -515.0 245.5 -514.0 246.0 -471.0 246.0 -428.0 246.5 -354.5 246.5 -281.5 247.5 -190.0 248.5 -99.0 250.0 -2.0 L221.0 -2.0 143.0 -1.5 Q94.0 -1.5 30.5 -1.0" fill-rule="evenodd" stroke="none"/>
    </g>
    <g id="font_Burbank_Big_Regular_Black_n0">
      <path d="M317.5 18.5 L318.0 -8.5 319.0 -79.0 Q320.0 -123.5 320.0 -178.5 320.0 -233.5 319.5 -292.0 319.0 -316.0 311.0 -329.0 303.0 -342.0 284.5 -342.0 265.0 -342.0 256.5 -329.0 248.0 -315.5 247.0 -289.0 246.0 -266.5 245.5 -232.5 245.0 -198.5 245.0 -161.0 L245.0 -90.0 245.5 -36.0 Q245.5 -15.0 246.0 -14.5 L225.5 -14.5 Q205.5 -15.0 173.0 -15.0 140.0 -15.5 101.5 -15.0 63.0 -15.0 24.5 -14.5 L25.5 -76.5 Q26.5 -137.5 27.0 -247.0 27.5 -356.5 26.5 -503.0 27.5 -502.5 52.5 -502.5 77.5 -502.0 116.0 -502.0 155.0 -502.5 196.5 -504.0 L196.0 -491.5 Q195.5 -479.5 195.5 -461.0 195.0 -443.0 195.5 -423.0 219.0 -469.5 265.5 -499.0 312.5 -529.0 369.5 -529.5 445.5 -528.5 487.5 -482.0 530.0 -435.5 533.5 -347.0 534.5 -322.0 535.0 -278.0 535.5 -234.5 535.5 -184.0 L535.5 -87.5 535.5 -12.5 535.5 17.5 Q511.0 17.0 475.0 17.0 439.0 17.0 403.0 17.5 367.0 18.0 342.5 18.0 L317.5 18.5" fill-rule="evenodd" stroke="none"/>
    </g>
    <g id="font_Burbank_Big_Regular_Black_P0">
      <path d="M249.0 -536.5 Q248.5 -537.0 248.0 -480.5 247.5 -424.0 249.0 -308.0 302.0 -305.0 329.5 -331.5 357.0 -358.0 357.5 -425.0 357.5 -480.5 335.5 -509.0 314.0 -537.5 270.5 -537.5 L259.5 -537.5 249.0 -536.5 M28.5 -3.0 Q29.0 -4.0 30.0 -88.5 31.0 -172.5 32.0 -328.5 33.0 -484.5 33.0 -700.5 82.5 -707.5 128.0 -710.5 173.5 -714.0 214.0 -713.5 393.5 -714.0 486.0 -644.0 578.0 -574.0 578.5 -427.0 577.5 -329.0 535.5 -266.5 493.0 -204.0 419.5 -175.0 346.0 -146.0 252.0 -148.5 L256.0 -4.0 221.5 -4.5 Q188.0 -5.0 136.5 -4.5 84.5 -4.5 28.5 -3.0" fill-rule="evenodd" stroke="none"/>
    </g>
    <g id="font_Burbank_Big_Regular_Black_e0">
      <path d="M293.0 -396.5 Q268.5 -397.0 255.5 -375.5 242.5 -353.5 239.5 -299.0 262.5 -299.0 287.5 -300.0 L341.0 -302.0 Q340.5 -348.5 329.0 -372.0 318.0 -396.0 293.0 -396.5 M297.0 14.5 Q191.0 13.5 129.0 -22.0 67.0 -58.0 40.5 -120.0 13.5 -182.0 14.5 -262.0 14.5 -342.0 46.5 -402.0 78.0 -462.0 139.0 -495.5 200.0 -529.0 287.5 -529.5 395.5 -528.5 458.5 -488.5 521.5 -448.5 547.0 -377.0 572.0 -305.0 566.5 -209.0 L482.5 -208.5 Q399.5 -208.5 241.5 -207.0 245.5 -162.0 258.5 -142.0 272.0 -122.5 295.0 -123.0 312.0 -122.5 324.0 -135.0 336.0 -147.5 341.0 -176.0 L401.5 -174.0 Q460.5 -172.0 568.5 -169.0 541.0 -76.0 469.5 -31.0 398.0 14.5 297.0 14.5" fill-rule="evenodd" stroke="none"/>
    </g>
    <g id="font_Burbank_Big_Regular_Black_t0">
      <path d="M414.5 -15.5 Q372.5 -6.0 335.5 -1.5 298.0 3.0 265.0 3.0 175.5 4.0 124.0 -46.5 73.0 -96.5 70.5 -208.0 70.0 -244.0 70.0 -279.5 69.5 -315.0 69.5 -350.0 40.5 -349.5 23.0 -349.5 L5.0 -349.0 Q5.5 -416.5 5.0 -454.5 4.5 -492.5 4.0 -507.5 L3.0 -522.0 Q20.5 -521.5 37.5 -521.5 54.5 -521.0 70.5 -521.0 L72.0 -615.5 72.5 -651.5 Q173.5 -650.5 230.0 -651.5 287.0 -652.0 287.5 -652.5 L286.5 -614.5 Q285.5 -578.0 284.5 -519.0 L405.5 -519.0 Q404.0 -448.5 404.0 -411.0 403.5 -374.0 404.0 -360.5 L404.5 -348.0 284.5 -350.0 Q284.5 -325.0 285.5 -300.0 L286.5 -252.0 Q288.0 -221.5 304.0 -207.5 320.0 -193.5 352.5 -193.5 L375.0 -195.0 401.5 -198.5 Q407.0 -111.5 411.0 -63.5 L414.5 -15.5" fill-rule="evenodd" stroke="none"/>
    </g>
    <g id="font_Burbank_Big_Regular_Black_f0">
      <path d="M414.5 -291.0 L386.0 -291.5 303.0 -293.0 Q303.0 -236.5 303.5 -185.0 303.5 -133.0 304.0 -92.0 L305.0 -26.5 305.0 -2.0 276.0 -2.0 Q248.0 -2.5 199.5 -2.0 150.5 -2.0 89.0 -1.0 L88.5 -41.5 Q87.5 -81.0 86.5 -147.0 85.5 -213.0 85.0 -293.0 L12.5 -293.0 12.5 -336.0 Q12.5 -380.0 11.5 -479.0 L86.0 -476.0 86.0 -484.5 Q86.5 -553.5 105.5 -605.5 125.0 -657.0 171.5 -686.5 218.0 -715.5 300.0 -716.0 328.5 -716.0 362.0 -712.5 396.0 -709.0 435.0 -700.5 L432.0 -657.0 Q429.0 -613.5 426.0 -525.5 L399.5 -527.5 378.0 -528.5 Q336.0 -528.0 321.5 -514.5 306.5 -500.5 306.0 -477.0 L306.0 -470.0 418.0 -469.0 Q417.5 -468.5 417.0 -446.0 416.0 -423.5 415.0 -383.5 414.5 -343.5 414.5 -291.0" fill-rule="evenodd" stroke="none"/>
    </g>
    <g id="font_Burbank_Big_Regular_Black_h0">
      <path d="M24.5 -18.5 L25.5 -71.5 Q26.5 -123.5 27.0 -216.0 28.0 -308.5 28.0 -431.0 28.0 -553.5 26.5 -695.5 26.5 -695.0 80.5 -695.0 134.0 -695.0 241.5 -696.5 L241.0 -665.0 Q240.0 -634.0 239.5 -580.5 239.0 -527.0 239.5 -457.5 263.0 -490.5 298.5 -510.0 334.5 -530.0 380.0 -530.5 452.5 -529.5 492.0 -481.0 531.0 -433.0 534.5 -351.0 536.5 -289.0 537.0 -224.5 537.5 -160.0 537.5 -105.0 537.5 -50.0 537.0 -16.5 L536.5 18.5 477.5 17.5 Q419.5 17.0 319.5 17.5 L320.0 -11.0 321.0 -84.0 Q321.5 -129.5 321.0 -184.0 321.0 -238.0 319.5 -292.0 319.5 -316.5 311.5 -329.0 303.5 -342.0 285.5 -342.0 265.5 -342.0 257.0 -329.0 248.5 -315.5 248.0 -289.0 246.5 -238.5 246.5 -191.0 246.0 -143.0 246.0 -104.5 L246.5 -43.0 247.0 -19.5 187.0 -19.5 Q128.5 -20.0 24.5 -18.5" fill-rule="evenodd" stroke="none"/>
    </g>
    <g id="font_Burbank_Big_Regular_Black_l0">
      <path d="M246.0 -11.5 Q143.0 -13.5 85.5 -13.5 L27.5 -13.5 Q29.0 -205.0 29.5 -337.5 29.5 -470.0 29.0 -551.0 29.0 -631.5 28.0 -668.0 L27.5 -703.5 Q140.0 -700.0 193.5 -699.5 247.0 -699.0 247.0 -699.5 245.5 -499.0 245.0 -365.5 244.5 -232.0 244.5 -154.0 245.0 -76.5 245.5 -43.5 245.5 -10.5 246.0 -11.5" fill-rule="evenodd" stroke="none"/>
    </g>
    <g id="font_Burbank_Big_Regular_Black_d0">
      <path d="M297.0 -125.0 Q311.0 -124.5 323.0 -135.0 334.5 -146.0 342.0 -175.5 349.0 -205.5 349.0 -261.0 349.0 -320.0 336.0 -354.0 323.0 -387.5 296.0 -388.0 270.0 -388.5 258.0 -356.5 245.5 -324.5 246.0 -256.0 246.0 -186.5 260.0 -155.5 274.5 -124.5 297.0 -125.0 M558.0 20.5 L528.5 20.0 Q500.5 19.5 459.5 19.5 418.5 19.0 379.0 19.5 L380.5 -6.5 Q382.5 -32.0 384.0 -76.0 359.5 -32.0 319.0 -11.0 278.5 10.5 231.5 10.0 167.0 10.5 118.5 -20.0 69.5 -50.0 42.0 -111.5 15.0 -172.5 14.5 -266.0 14.5 -343.0 37.0 -402.0 59.0 -460.5 103.5 -493.5 148.0 -527.0 214.0 -527.5 257.0 -527.0 289.5 -509.0 321.5 -491.0 343.0 -462.0 342.5 -501.5 340.5 -561.5 338.5 -622.0 335.0 -704.5 L352.5 -704.0 Q371.5 -703.5 420.5 -703.5 470.0 -703.5 560.0 -705.5 L559.5 -647.5 558.5 -491.0 Q557.5 -390.5 557.5 -259.5 557.5 -129.0 558.0 20.5" fill-rule="evenodd" stroke="none"/>
    </g>
    <g id="font_Burbank_Big_Regular_Black_y0">
      <path d="M364.5 238.5 L231.0 220.0 162.5 211.0 143.5 209.0 Q162.5 133.5 171.0 95.5 179.5 57.5 179.0 57.5 127.0 -111.5 87.0 -235.0 46.5 -358.0 23.5 -425.5 L0.0 -493.5 Q115.0 -495.0 175.0 -499.5 235.0 -504.0 235.5 -505.0 255.5 -353.5 269.5 -273.5 284.0 -193.0 284.5 -192.5 309.5 -358.5 320.5 -446.5 L331.0 -535.5 500.0 -527.0 Q558.5 -525.0 559.0 -525.5 499.5 -300.0 461.5 -151.0 423.0 -2.5 402.0 83.0 381.0 168.5 372.5 204.0 364.0 239.5 364.5 238.5" fill-rule="evenodd" stroke="none"/>
    </g>
    <g id="font_Burbank_Big_Regular_Black_u0">
      <path d="M208.0 4.0 Q106.0 5.0 62.0 -70.0 18.5 -145.5 19.5 -307.0 19.5 -361.0 22.5 -413.5 26.0 -466.5 33.0 -520.0 L51.5 -518.0 116.0 -512.5 238.5 -505.0 Q235.0 -469.0 233.5 -431.5 232.5 -394.5 232.5 -364.5 232.5 -287.0 237.5 -245.0 242.0 -203.0 252.0 -187.0 262.0 -171.0 277.5 -172.0 293.0 -171.5 302.0 -185.0 310.5 -198.0 312.5 -229.5 315.0 -308.0 314.5 -375.5 313.5 -443.0 311.5 -484.5 309.5 -526.0 309.0 -527.5 L329.0 -526.5 397.5 -525.0 Q445.5 -524.5 527.5 -524.5 L527.0 -457.5 Q526.5 -392.0 527.0 -271.5 527.5 -151.0 529.5 14.5 L488.5 13.0 Q447.0 12.0 354.5 13.5 L355.0 -14.5 Q355.5 -41.5 355.5 -83.0 332.5 -40.5 293.0 -18.5 254.0 4.0 208.0 4.0" fill-rule="evenodd" stroke="none"/>
    </g>
    <g id="font_Burbank_Big_Regular_Black__1">
      <path d="M17.5 -451.5 L17.5 -476.5 Q17.0 -502.0 15.0 -561.5 12.5 -620.5 7.0 -722.0 L47.5 -720.0 Q88.5 -718.5 169.0 -720.0 168.5 -719.0 162.0 -649.5 155.5 -579.5 147.5 -450.5 L112.0 -452.0 Q77.5 -453.0 17.5 -451.5" fill-rule="evenodd" stroke="none"/>
    </g>
    <g id="font_Burbank_Big_Regular_Black_s0">
      <path d="M269.5 23.5 Q150.0 24.0 79.5 -27.0 9.5 -78.5 3.0 -188.5 L52.0 -188.0 Q102.0 -187.5 211.0 -185.5 212.5 -156.0 225.0 -139.5 237.0 -123.0 263.0 -123.0 282.5 -123.0 292.5 -130.5 303.0 -138.0 303.0 -153.5 303.5 -164.5 295.0 -173.0 286.5 -181.5 265.0 -189.0 243.5 -196.5 204.0 -204.0 147.5 -214.0 105.0 -232.5 62.5 -251.0 38.5 -284.0 14.5 -316.5 14.5 -368.5 15.0 -420.0 44.5 -458.0 74.0 -496.0 127.5 -516.5 181.5 -537.5 254.0 -537.5 337.0 -537.0 393.5 -510.5 450.5 -483.5 480.0 -436.5 509.5 -389.0 511.0 -327.5 510.5 -328.0 458.5 -328.5 406.5 -329.0 311.5 -324.5 309.0 -352.5 297.5 -369.5 286.0 -386.5 263.0 -387.0 244.5 -387.0 235.0 -378.5 225.5 -370.0 225.5 -357.5 224.5 -340.5 245.0 -327.0 265.5 -313.5 318.5 -304.0 395.0 -290.5 437.5 -268.5 480.0 -247.0 497.0 -217.0 513.5 -187.0 513.0 -148.5 512.5 -89.5 481.0 -51.5 449.5 -13.5 395.0 5.0 340.0 23.5 269.5 23.5" fill-rule="evenodd" stroke="none"/>
    </g>
    <g id="font_Burbank_Big_Regular_Black_k0">
      <path d="M336.0 23.5 Q320.0 -31.0 307.0 -73.0 294.5 -115.5 284.5 -145.5 L261.5 -108.0 243.5 -78.0 244.0 -32.0 244.5 -15.5 Q140.5 -18.0 83.0 -17.5 L24.5 -16.5 Q27.0 -264.5 27.0 -414.5 27.0 -564.5 26.5 -631.5 L25.5 -697.5 Q139.5 -694.5 193.0 -695.0 246.5 -695.0 246.0 -695.5 245.0 -612.5 244.5 -546.0 244.0 -479.5 244.0 -424.5 243.5 -369.0 243.5 -319.5 277.5 -420.0 295.5 -476.5 313.0 -532.5 313.5 -533.5 L496.0 -526.0 Q561.0 -524.0 562.0 -524.5 520.0 -453.0 490.0 -399.5 459.5 -346.0 441.5 -311.5 480.5 -209.0 509.0 -136.0 L553.5 -24.0 Q569.0 15.0 569.5 15.5 485.0 17.0 433.5 19.0 L358.5 22.0 336.0 23.5" fill-rule="evenodd" stroke="none"/>
    </g>
    <g id="font_Burbank_Big_Regular_Black_v0">
      <path d="M426.0 -6.0 Q279.0 -7.0 200.0 -6.0 120.5 -5.5 120.0 -5.0 58.5 -249.5 29.0 -371.5 L0.0 -493.5 Q105.5 -495.5 165.0 -498.5 L225.5 -502.0 Q239.0 -374.5 248.5 -297.5 258.0 -220.5 262.5 -186.0 L267.5 -152.5 Q291.5 -300.5 303.0 -384.5 315.0 -468.5 318.5 -503.0 322.0 -537.5 321.5 -536.5 L488.0 -531.0 Q540.5 -530.0 539.5 -530.5 500.5 -346.5 475.0 -230.5 450.0 -114.5 438.0 -60.0 L426.0 -6.0" fill-rule="evenodd" stroke="none"/>
    </g>
    <g id="font_Burbank_Big_Regular_Black_p0">
      <path d="M297.0 -126.0 Q313.5 -125.5 324.5 -137.0 335.0 -148.5 340.5 -178.0 346.0 -207.5 346.0 -261.0 347.0 -326.0 335.5 -357.0 323.5 -388.5 297.0 -388.0 271.0 -388.5 258.0 -359.0 244.5 -329.0 244.5 -261.0 244.5 -209.5 250.5 -179.5 256.0 -150.0 267.5 -138.0 279.0 -125.5 297.0 -126.0 M24.5 207.0 Q26.0 100.0 26.0 -4.0 26.5 -107.5 26.5 -198.5 26.0 -289.5 26.0 -359.5 L25.0 -469.5 24.5 -510.0 Q47.5 -509.0 79.0 -509.0 110.0 -509.5 140.0 -509.5 L190.0 -510.5 211.0 -511.0 Q209.5 -481.0 209.0 -464.0 L209.0 -434.0 Q230.5 -476.5 270.0 -502.5 309.5 -528.5 366.5 -529.5 435.5 -528.5 482.5 -491.5 529.0 -454.5 553.5 -393.0 577.5 -331.0 577.5 -256.0 577.0 -169.0 550.5 -110.0 524.5 -51.5 478.5 -21.5 432.5 8.0 374.0 8.0 331.0 8.0 295.5 -7.5 260.0 -23.5 239.5 -54.5 242.5 42.0 245.5 99.0 248.0 156.5 249.5 181.5 L251.0 206.0 Q214.0 204.5 175.0 204.5 135.5 204.5 101.5 205.0 67.5 205.5 46.5 206.5 L24.5 207.0" fill-rule="evenodd" stroke="none"/>
    </g>
    <g id="font_Burbank_Big_Regular_Black__2">
      <path d="M50.0 -261.0 Q50.5 -262.0 47.5 -317.0 44.5 -372.0 38.0 -473.5 31.5 -575.5 20.5 -716.0 21.5 -715.5 57.5 -715.0 93.5 -714.0 149.5 -713.5 205.5 -713.0 267.5 -713.5 267.0 -714.0 260.0 -601.5 253.0 -489.0 243.5 -263.0 L218.0 -263.5 Q193.0 -264.0 149.5 -263.5 106.0 -263.0 50.0 -261.0 M148.5 11.5 Q82.5 11.0 46.0 -21.0 10.0 -53.0 9.0 -110.5 9.0 -161.5 43.5 -194.5 77.5 -227.0 146.5 -228.5 190.5 -228.0 220.5 -211.5 250.0 -195.0 265.5 -168.0 280.5 -140.5 280.5 -107.5 280.0 -70.0 262.5 -43.5 245.0 -17.0 215.0 -3.0 185.5 11.0 148.5 11.5" fill-rule="evenodd" stroke="none"/>
    </g>
    <g id="text1" transform="matrix(1.0, 0.0, 0.0, 1.0, -2.95, 1.9)">
      <g transform="matrix(1.0, 0.0, 0.0, 1.0, 0.0, 0.0)">
        <use fill="#e23310" height="38.3" transform="matrix(0.0195, 0.0, 0.0, 0.0195, 3.0, 15.0)" width="209.4" xlink:href="#font_Burbank_Big_Regular_Black_T0"/>
        <use fill="#e23310" height="38.3" transform="matrix(0.0195, 0.0, 0.0, 0.0195, 13.25, 15.0)" width="209.4" xlink:href="#font_Burbank_Big_Regular_Black_o0"/>
        <use fill="#e23310" height="38.3" transform="matrix(0.0195, 0.0, 0.0, 0.0195, 29.25, 15.0)" width="209.4" xlink:href="#font_Burbank_Big_Regular_Black_l0"/>
        <use fill="#e23310" height="38.3" transform="matrix(0.0195, 0.0, 0.0, 0.0195, 34.6, 15.0)" width="209.4" xlink:href="#font_Burbank_Big_Regular_Black_e0"/>
        <use fill="#e23310" height="38.3" transform="matrix(0.0195, 0.0, 0.0, 0.0195, 45.95, 15.0)" width="209.4" xlink:href="#font_Burbank_Big_Regular_Black_a0"/>
        <use fill="#e23310" height="38.3" transform="matrix(0.0195, 0.0, 0.0, 0.0195, 56.7, 15.0)" width="209.4" xlink:href="#font_Burbank_Big_Regular_Black_r0"/>
        <use fill="#e23310" height="38.3" transform="matrix(0.0195, 0.0, 0.0, 0.0195, 64.6, 15.0)" width="209.4" xlink:href="#font_Burbank_Big_Regular_Black_n0"/>
        <use fill="#e23310" height="38.3" transform="matrix(0.0195, 0.0, 0.0, 0.0195, 80.05, 15.0)" width="209.4" xlink:href="#font_Burbank_Big_Regular_Black_m0"/>
        <use fill="#e23310" height="38.3" transform="matrix(0.0195, 0.0, 0.0, 0.0195, 96.6, 15.0)" width="209.4" xlink:href="#font_Burbank_Big_Regular_Black_o0"/>
        <use fill="#e23310" height="38.3" transform="matrix(0.0195, 0.0, 0.0, 0.0195, 108.0, 15.0)" width="209.4" xlink:href="#font_Burbank_Big_Regular_Black_r0"/>
        <use fill="#e23310" height="38.3" transform="matrix(0.0195, 0.0, 0.0, 0.0195, 115.9, 15.0)" width="209.4" xlink:href="#font_Burbank_Big_Regular_Black_e0"/>
        <use fill="#e23310" height="38.3" transform="matrix(0.0195, 0.0, 0.0, 0.0195, 127.25, 15.0)" width="209.4" xlink:href="#font_Burbank_Big_Regular_Black__3"/>
        <use fill="#e23310" height="38.3" transform="matrix(0.0195, 0.0, 0.0, 0.0195, 136.85, 15.0)" width="209.4" xlink:href="#font_Burbank_Big_Regular_Black_v0"/>
        <use fill="#e23310" height="38.3" transform="matrix(0.0195, 0.0, 0.0, 0.0195, 147.35, 15.0)" width="209.4" xlink:href="#font_Burbank_Big_Regular_Black_i0"/>
        <use fill="#e23310" height="38.3" transform="matrix(0.0195, 0.0, 0.0, 0.0195, 152.75, 15.0)" width="209.4" xlink:href="#font_Burbank_Big_Regular_Black_s0"/>
        <use fill="#e23310" height="38.3" transform="matrix(0.0195, 0.0, 0.0, 0.0195, 162.85, 15.0)" width="209.4" xlink:href="#font_Burbank_Big_Regular_Black_i0"/>
        <use fill="#e23310" height="38.3" transform="matrix(0.0195, 0.0, 0.0, 0.0195, 168.25, 15.0)" width="209.4" xlink:href="#font_Burbank_Big_Regular_Black_t0"/>
        <use fill="#e23310" height="38.3" transform="matrix(0.0195, 0.0, 0.0, 0.0195, 181.2, 15.0)" width="209.4" xlink:href="#font_Burbank_Big_Regular_Black_t0"/>
        <use fill="#e23310" height="38.3" transform="matrix(0.0195, 0.0, 0.0, 0.0195, 189.55, 15.0)" width="209.4" xlink:href="#font_Burbank_Big_Regular_Black_h0"/>
        <use fill="#e23310" height="38.3" transform="matrix(0.0195, 0.0, 0.0, 0.0195, 200.45, 15.0)" width="209.4" xlink:href="#font_Burbank_Big_Regular_Black_e0"/>
      </g>
      <g transform="matrix(1.0, 0.0, 0.0, 1.0, 0.0, 0.0)">
        <use fill="#e23310" height="38.3" transform="matrix(0.0195, 0.0, 0.0, 0.0195, 45.0, 35.0)" width="209.4" xlink:href="#font_Burbank_Big_Regular_Black_B0"/>
        <use fill="#e23310" height="38.3" transform="matrix(0.0195, 0.0, 0.0, 0.0195, 56.75, 35.0)" width="209.4" xlink:href="#font_Burbank_Big_Regular_Black_I0"/>
        <use fill="#e23310" height="38.3" transform="matrix(0.0195, 0.0, 0.0, 0.0195, 62.55, 35.0)" width="209.4" xlink:href="#font_Burbank_Big_Regular_Black_N0"/>
        <use fill="#e23310" height="38.3" transform="matrix(0.0195, 0.0, 0.0, 0.0195, 79.35, 35.0)" width="209.4" xlink:href="#font_Burbank_Big_Regular_Black_P0"/>
        <use fill="#e23310" height="38.3" transform="matrix(0.0195, 0.0, 0.0, 0.0195, 90.75, 35.0)" width="209.4" xlink:href="#font_Burbank_Big_Regular_Black_E0"/>
        <use fill="#e23310" height="38.3" transform="matrix(0.0195, 0.0, 0.0, 0.0195, 100.65, 35.0)" width="209.4" xlink:href="#font_Burbank_Big_Regular_Black_T0"/>
        <use fill="#e23310" height="38.3" transform="matrix(0.0195, 0.0, 0.0, 0.0195, 115.5, 35.0)" width="209.4" xlink:href="#font_Burbank_Big_Regular_Black_S0"/>
        <use fill="#e23310" height="38.3" transform="matrix(0.0195, 0.0, 0.0, 0.0195, 127.2, 35.0)" width="209.4" xlink:href="#font_Burbank_Big_Regular_Black_H0"/>
        <use fill="#e23310" height="38.3" transform="matrix(0.0195, 0.0, 0.0, 0.0195, 138.95, 35.0)" width="209.4" xlink:href="#font_Burbank_Big_Regular_Black_O0"/>
        <use fill="#e23310" height="38.3" transform="matrix(0.0195, 0.0, 0.0, 0.0195, 151.65, 35.0)" width="209.4" xlink:href="#font_Burbank_Big_Regular_Black_P0"/>
        <use fill="#e23310" height="38.3" transform="matrix(0.0195, 0.0, 0.0, 0.0195, 163.05, 35.0)" width="209.4" xlink:href="#font_Burbank_Big_Regular_Black__2"/>
      </g>
    </g>
    <g id="font_Burbank_Big_Regular_Black_T0">
      <path d="M8.0 -508.0 Q8.5 -508.5 8.5 -560.5 8.5 -612.5 7.0 -711.5 L38.5 -711.5 121.5 -711.5 240.0 -711.5 377.5 -712.5 518.0 -713.5 517.5 -685.5 Q516.5 -658.0 516.0 -612.0 515.5 -565.5 516.0 -508.0 L497.0 -508.0 446.0 -508.0 374.0 -509.0 Q373.5 -420.5 374.5 -295.0 375.5 -169.5 378.0 3.0 L349.5 3.0 Q321.0 2.5 271.0 3.0 220.5 3.0 153.5 4.0 L153.5 -59.0 153.0 -235.5 151.5 -509.0 8.0 -508.0" fill-rule="evenodd" stroke="none"/>
    </g>
    <g id="font_Burbank_Big_Regular_Black_m0">
      <path d="M27.5 -15.5 L28.0 -80.0 Q28.0 -143.0 27.0 -254.0 26.5 -365.0 24.5 -509.0 L47.5 -508.5 109.5 -507.5 Q148.5 -507.5 198.5 -508.0 L197.5 -484.0 Q196.5 -460.5 196.5 -426.0 222.5 -471.5 266.0 -500.0 310.0 -528.5 365.5 -529.5 426.5 -528.5 462.5 -502.0 498.0 -475.0 513.0 -431.0 538.0 -468.0 578.5 -490.0 619.5 -512.5 673.0 -513.0 729.0 -512.5 762.0 -487.5 795.0 -463.0 809.5 -423.5 824.0 -383.5 825.5 -338.0 827.0 -279.0 827.5 -217.0 828.0 -155.5 828.0 -102.5 L827.0 -16.5 826.5 17.5 Q825.5 17.0 768.5 16.5 711.0 16.0 610.5 16.5 L610.5 -10.0 610.5 -79.0 Q610.5 -122.0 610.0 -173.5 609.0 -225.5 607.0 -277.5 606.5 -301.5 599.0 -315.0 591.5 -328.5 575.5 -328.5 556.0 -328.5 547.5 -312.5 539.0 -297.0 537.5 -268.5 536.5 -228.0 536.5 -186.0 536.0 -144.0 536.5 -108.0 L537.0 -49.5 537.5 -26.5 507.5 -26.5 428.0 -26.5 316.5 -25.5 317.5 -50.5 320.0 -113.5 Q321.0 -152.5 321.0 -198.0 321.5 -243.5 319.5 -287.5 319.0 -313.0 310.5 -327.0 302.0 -341.0 284.5 -341.0 264.5 -340.5 255.5 -323.0 247.0 -306.0 246.0 -278.5 244.5 -235.0 244.5 -189.5 244.5 -143.5 245.0 -104.5 L246.0 -40.5 Q246.5 -16.0 247.0 -15.5 L217.0 -15.5 Q187.5 -16.0 138.0 -16.0 89.0 -16.0 27.5 -15.5" fill-rule="evenodd" stroke="none"/>
    </g>
    <g id="font_Burbank_Big_Regular_Black__3">
      <path d="M98.5 146.5 Q48.5 110.5 25.5 94.5 3.0 78.5 3.0 79.0 34.0 50.5 50.5 29.5 67.0 8.5 73.5 -3.0 43.0 -16.0 26.0 -42.5 9.5 -69.0 9.0 -100.5 10.0 -152.0 42.5 -183.5 75.0 -215.0 129.0 -216.0 184.0 -215.0 215.0 -179.5 246.0 -144.5 247.0 -85.0 246.5 -28.0 208.5 30.0 170.0 88.0 98.5 146.5" fill-rule="evenodd" stroke="none"/>
    </g>
    <g id="font_Burbank_Big_Regular_Black_I0">
      <path d="M38.0 1.0 L38.0 -54.0 38.0 -205.5 36.5 -431.5 34.0 -710.5 91.5 -711.0 Q148.5 -711.0 258.0 -711.5 L258.5 -652.5 259.5 -494.0 Q260.0 -393.5 261.0 -266.5 L263.0 1.0 234.5 1.0 Q206.5 0.5 156.0 0.5 105.5 0.5 38.0 1.0" fill-rule="evenodd" stroke="none"/>
    </g>
    <g id="font_Burbank_Big_Regular_Black_N0">
      <path d="M31.5 -17.5 Q32.0 -18.5 32.5 -98.5 33.0 -179.0 32.0 -328.5 31.5 -478.0 28.5 -686.0 L58.0 -687.5 134.0 -691.0 238.5 -694.5 Q238.5 -694.0 257.0 -652.5 275.0 -611.5 309.0 -535.5 343.5 -459.0 392.0 -353.5 390.5 -408.0 386.0 -500.0 381.0 -592.0 371.5 -730.0 L400.5 -729.5 475.0 -728.5 Q522.0 -728.0 579.5 -728.0 L581.0 -640.0 Q582.5 -552.5 586.0 -389.5 590.0 -226.0 597.0 2.0 L570.5 4.5 Q544.5 7.5 498.0 11.0 L389.0 18.5 Q389.0 18.0 370.0 -23.5 L315.5 -140.0 Q280.0 -215.0 230.5 -317.5 L234.5 -193.5 Q237.5 -119.5 242.5 -15.5 L214.0 -16.0 138.5 -17.0 Q91.0 -17.5 31.5 -17.5" fill-rule="evenodd" stroke="none"/>
    </g>
    <g id="font_Burbank_Big_Regular_Black_E0">
      <path d="M37.0 -4.0 L36.5 -56.5 Q36.5 -108.0 35.5 -202.0 L33.0 -425.5 Q31.5 -554.0 28.5 -709.5 28.5 -710.0 143.0 -712.0 257.0 -714.5 487.5 -717.0 L487.5 -665.5 Q487.5 -615.0 489.5 -525.5 L458.5 -525.0 374.5 -523.5 250.0 -520.0 Q249.0 -481.0 249.5 -460.0 L250.0 -439.5 267.0 -439.0 326.5 -439.0 442.5 -440.5 Q442.0 -440.0 441.5 -396.0 441.5 -351.5 443.5 -265.0 444.0 -265.5 398.0 -265.5 352.0 -266.0 254.0 -266.0 255.0 -228.0 256.0 -208.0 L257.0 -188.5 313.5 -186.0 Q371.0 -183.5 489.5 -181.0 L488.5 -133.5 Q487.5 -86.0 487.5 6.0 L452.5 5.0 356.0 2.0 Q294.5 0.5 213.0 -1.0 131.5 -3.0 37.0 -4.0" fill-rule="evenodd" stroke="none"/>
    </g>
    <g id="font_Burbank_Big_Regular_Black_S0">
      <path d="M305.0 17.5 Q156.5 16.5 82.5 -53.0 8.0 -123.0 6.0 -252.0 7.0 -251.5 68.5 -251.5 129.5 -251.0 239.5 -254.0 240.0 -202.0 256.5 -174.0 272.5 -146.0 306.0 -145.5 330.0 -145.0 342.5 -158.0 355.0 -171.0 355.5 -200.5 356.0 -219.0 345.0 -233.0 334.5 -247.0 305.5 -260.0 277.0 -273.0 223.0 -287.5 155.0 -305.5 108.5 -334.5 62.0 -363.5 38.0 -408.5 14.5 -453.5 14.5 -520.0 15.0 -591.0 50.5 -637.0 86.0 -683.5 149.0 -706.5 212.5 -729.0 296.0 -729.0 435.5 -729.5 509.0 -660.0 583.0 -590.5 585.5 -457.5 L555.5 -459.5 475.5 -462.5 Q424.5 -464.5 359.5 -465.0 361.5 -518.5 346.0 -542.5 331.0 -566.5 303.0 -566.5 278.5 -566.0 265.0 -551.0 252.0 -536.5 252.0 -510.0 251.5 -478.0 279.5 -456.0 308.0 -434.5 369.5 -421.0 453.5 -402.0 504.0 -374.0 554.0 -346.0 576.0 -304.5 598.0 -263.0 597.0 -203.0 596.5 -128.0 560.0 -79.0 523.5 -30.5 458.0 -6.5 393.0 17.5 305.0 17.5" fill-rule="evenodd" stroke="none"/>
    </g>
    <g id="font_Burbank_Big_Regular_Black_H0">
      <path d="M351.0 18.5 L351.0 -200.5 316.0 -200.5 Q293.5 -200.5 252.0 -199.5 L255.0 -19.5 224.0 -20.0 144.0 -20.0 Q94.0 -20.0 33.0 -18.5 L33.0 -67.5 32.5 -206.0 Q32.5 -296.0 31.5 -420.0 30.5 -543.5 28.5 -694.5 29.5 -694.0 86.0 -694.5 142.5 -694.5 248.0 -695.5 L248.0 -656.5 Q248.0 -618.0 248.5 -548.5 249.0 -479.0 250.0 -385.0 L284.0 -384.5 Q308.0 -384.0 350.0 -384.0 L347.0 -729.0 376.0 -728.5 455.0 -728.5 Q505.5 -728.5 571.5 -730.0 L571.5 -672.0 Q571.5 -614.5 572.0 -512.5 572.0 -410.0 572.5 -274.5 L574.5 19.5 545.5 18.5 Q517.0 17.5 467.0 17.5 417.0 17.0 351.0 18.5" fill-rule="evenodd" stroke="none"/>
    </g>
    <g id="font_Burbank_Big_Regular_Black_O0">
      <path d="M326.5 -146.5 Q348.0 -145.5 363.5 -162.0 378.5 -178.5 386.5 -223.5 394.0 -268.0 394.0 -352.5 394.0 -435.0 386.0 -480.0 378.0 -524.5 362.5 -542.0 347.0 -559.0 324.5 -558.0 301.0 -558.5 286.0 -540.0 270.5 -521.0 263.5 -475.0 256.0 -429.0 256.0 -348.0 256.0 -270.5 264.0 -226.0 271.5 -182.0 287.5 -164.0 303.0 -146.0 326.5 -146.5 M325.5 19.5 Q172.5 18.0 94.5 -75.5 16.0 -168.5 14.5 -348.0 13.5 -466.5 49.5 -551.0 85.5 -635.5 154.5 -680.5 224.0 -726.0 323.5 -727.0 433.5 -726.5 502.5 -682.0 572.0 -637.0 604.5 -552.5 637.0 -468.5 637.0 -349.0 635.5 -218.0 597.0 -136.5 559.0 -55.0 489.5 -17.5 420.5 20.0 325.5 19.5" fill-rule="evenodd" stroke="none"/>
    </g>
    <g id="text2" transform="matrix(1.0, 0.0, 0.0, 1.0, -98.8, 1.2)">
      <g transform="matrix(1.0, 0.0, 0.0, 1.0, 0.0, 0.0)">
        <use fill="#4e014e" height="19.15" transform="matrix(0.0215, 0.0, 0.0, 0.0215, 98.0, 17.0)" width="46.7" xlink:href="#font_Burbank_Big_Regular_Black_I0"/>
        <use fill="#4e014e" height="19.15" transform="matrix(0.0215, 0.0, 0.0, 0.0215, 104.35, 17.0)" width="46.7" xlink:href="#font_Burbank_Big_Regular_Black__1"/>
        <use fill="#4e014e" height="19.15" transform="matrix(0.0215, 0.0, 0.0, 0.0215, 108.15, 17.0)" width="46.7" xlink:href="#font_Burbank_Big_Regular_Black_M0"/>
        <use fill="#4e014e" height="19.15" transform="matrix(0.0215, 0.0, 0.0, 0.0215, 131.15, 17.0)" width="46.7" xlink:href="#font_Burbank_Big_Regular_Black_A0"/>
      </g>
    </g>
    <g id="font_Burbank_Big_Regular_Black_M0">
      <path d="M16.5 -14.5 L19.5 -67.0 27.5 -211.0 Q32.0 -303.5 37.0 -426.5 42.0 -549.5 46.0 -693.0 L73.0 -693.0 143.5 -693.0 Q188.5 -693.0 244.5 -693.5 300.5 -694.5 360.5 -696.5 L366.5 -646.5 Q372.5 -598.0 384.5 -515.0 397.0 -431.5 414.5 -326.5 427.0 -402.0 442.5 -505.5 457.5 -609.5 473.0 -730.0 L499.5 -729.5 Q525.0 -728.5 569.5 -727.5 L669.0 -724.0 785.5 -720.0 788.0 -631.0 Q791.0 -543.0 798.5 -379.0 806.0 -215.5 820.0 12.5 L785.5 13.5 700.5 17.0 593.0 20.5 593.5 -19.5 Q594.5 -58.5 595.0 -129.5 595.5 -200.5 595.0 -296.0 594.5 -391.5 592.0 -505.0 582.0 -449.0 570.5 -381.5 559.5 -314.0 548.5 -241.5 537.0 -169.0 528.5 -98.5 527.5 -98.0 495.5 -98.0 464.0 -98.0 413.0 -99.0 362.0 -99.5 303.0 -101.5 L295.5 -151.0 273.5 -284.5 Q259.0 -370.0 239.5 -480.5 239.5 -422.5 240.0 -348.0 240.5 -274.0 242.0 -188.0 243.0 -102.5 246.0 -10.0 245.0 -10.5 224.5 -10.5 L170.0 -12.0 Q136.5 -12.5 96.5 -13.5 L16.5 -14.5" fill-rule="evenodd" stroke="none"/>
    </g>
    <g id="font_Burbank_Big_Regular_Black_A0">
      <path d="M300.0 -558.0 Q293.0 -516.5 281.5 -441.0 270.0 -365.0 256.0 -262.0 L344.0 -262.0 300.0 -558.0 M0.0 -16.5 L11.0 -67.5 41.0 -211.5 86.0 -432.0 Q112.0 -559.5 142.5 -713.5 208.0 -716.0 267.5 -717.0 L372.5 -718.5 445.0 -719.0 472.0 -719.0 Q472.5 -718.0 483.5 -660.0 L515.0 -500.0 Q535.0 -398.5 562.0 -265.5 588.5 -133.0 619.5 17.5 L585.0 17.0 Q551.0 16.5 497.5 16.5 444.0 16.5 383.0 17.5 L379.5 -10.0 Q376.0 -38.0 367.5 -95.0 343.0 -95.5 310.0 -95.5 L233.5 -96.5 224.5 -15.5 192.5 -16.0 111.0 -17.0 Q60.0 -17.5 0.0 -16.5" fill-rule="evenodd" stroke="none"/>
    </g>
    <g id="sprite0" transform="matrix(1.0, 0.0, 0.0, 1.0, 2.85, 11.5)">
      <use ffdec:characterId="1674" height="56.05" transform="matrix(1.0, 0.0, 0.0, 1.0, -2.85, -11.5)" width="182.25" xlink:href="#shape0"/>
    </g>
    <g id="shape0" transform="matrix(1.0, 0.0, 0.0, 1.0, 2.85, 11.5)">
      <path d="M42.2 13.3 L38.2 13.6 38.65 18.9 39.3 26.7 40.35 37.7 38.95 37.8 34.85 38.25 34.65 35.25 33.9 26.9 32.8 14.15 28.65 14.6 28.65 13.35 28.2 9.15 41.9 7.6 42.2 13.3 M27.35 9.0 L20.85 9.75 17.2 10.3 16.05 10.4 17.15 22.1 18.0 31.3 18.55 37.35 18.7 39.55 24.25 39.1 28.25 38.8 29.8 38.65 29.55 34.7 29.5 33.35 25.3 33.55 23.7 33.65 23.3 30.5 23.0 27.55 26.6 27.15 28.05 27.05 27.75 23.2 27.65 21.65 24.1 22.05 22.5 22.25 22.05 17.2 21.9 15.35 24.65 15.05 26.9 14.75 27.85 14.7 27.5 10.6 27.35 9.0 M2.3 11.75 L0.65 12.05 1.9 27.5 2.65 37.45 2.95 41.05 6.95 40.6 8.55 40.4 7.8 33.65 Q11.95 32.95 13.95 29.95 16.1 26.85 15.6 21.7 15.25 16.1 12.5 13.55 9.65 11.0 3.9 11.55 L2.3 11.75 M6.35 16.45 Q8.0 16.2 8.95 17.7 9.8 19.25 10.1 22.4 10.3 24.75 10.0 26.1 9.75 27.45 9.05 28.15 8.4 28.8 7.4 29.0 L6.95 23.75 6.6 19.95 6.35 16.45 Z" fill="none" stroke="#000000" stroke-linecap="round" stroke-linejoin="round" stroke-opacity="0.30980393" stroke-width="7.0"/>
      <path d="M83.7 11.0 Q82.1 9.55 79.1 9.85 L77.4 10.05 75.6 10.55 76.45 20.55 76.85 27.05 77.1 29.3 79.0 29.1 80.25 28.95 80.75 28.9 80.35 24.95 80.15 22.4 80.45 22.4 80.85 22.3 82.8 27.6 83.45 29.55 86.1 29.05 87.05 28.85 84.8 23.35 83.7 20.85 Q84.75 20.0 85.2 18.75 85.7 17.45 85.6 15.6 85.25 12.5 83.7 11.0 M81.85 16.3 Q82.0 18.05 81.45 18.9 80.9 19.75 79.9 19.85 L79.85 18.9 79.6 16.5 79.3 13.0 79.4 13.0 79.65 12.95 Q80.65 12.85 81.2 13.75 81.75 14.65 81.85 16.3 M69.0 14.5 Q69.2 13.8 69.65 13.8 70.05 13.7 70.45 14.3 L70.95 16.35 71.4 20.45 71.6 25.0 71.4 27.15 70.85 27.8 Q70.4 27.85 70.05 27.3 69.7 26.7 69.5 25.1 L69.05 20.65 68.8 16.65 69.0 14.5 M63.95 12.55 L63.9 11.6 60.15 12.05 57.5 12.4 56.45 12.5 57.2 20.15 57.75 26.15 58.1 30.05 58.15 31.45 59.15 31.35 61.7 31.1 61.15 24.7 63.7 24.4 64.55 24.35 64.25 21.7 64.15 20.7 61.9 21.05 60.75 21.1 60.45 17.1 60.3 15.7 63.15 15.4 64.15 15.3 63.95 12.55 M65.2 16.1 Q64.95 18.4 65.2 21.15 65.45 24.55 66.15 26.7 66.75 28.9 67.95 29.9 69.15 30.9 71.0 30.75 72.7 30.55 73.75 29.5 74.8 28.5 75.15 26.25 75.5 24.0 75.3 20.15 75.1 17.25 74.45 15.05 73.85 12.9 72.6 11.7 71.45 10.6 69.45 10.8 67.35 11.0 66.4 12.45 65.4 13.9 65.2 16.1 Z" fill="none" stroke="#000000" stroke-linecap="round" stroke-linejoin="round" stroke-opacity="0.30980393" stroke-width="7.0"/>
      <path d="M130.0 -0.3 L130.15 1.3 130.5 5.75 131.1 12.3 131.7 20.3 132.4 28.65 132.4 29.1 134.65 29.25 136.65 29.15 139.3 28.65 Q141.0 28.15 142.3 27.15 144.5 25.5 145.5 22.1 146.35 18.85 145.95 13.5 145.5 8.15 144.15 4.75 142.8 1.35 140.4 -0.05 137.9 -1.5 134.05 -1.15 L132.1 -0.85 130.0 -0.3 M156.6 -3.35 L155.6 -3.25 152.85 -2.9 148.9 -2.4 148.15 13.1 147.5 23.3 147.25 26.85 151.35 26.5 152.7 26.35 152.7 21.8 155.1 21.6 156.75 21.45 157.45 25.75 157.75 27.15 161.9 26.65 163.45 26.55 161.3 17.5 159.4 9.4 157.9 2.75 157.0 -1.7 156.6 -3.35 M159.8 -2.55 L164.1 10.2 166.3 17.15 166.95 19.35 167.45 23.4 167.6 25.5 167.6 26.1 173.15 25.5 172.45 19.15 172.45 18.75 174.3 6.0 175.5 -2.15 175.9 -5.1 171.6 -4.7 170.3 -4.65 169.7 3.3 169.3 8.8 169.1 10.9 167.35 3.6 166.05 -1.5 165.7 -3.35 162.0 -2.8 160.25 -2.6 159.8 -2.55 M154.65 10.25 L155.85 16.75 153.5 17.0 152.75 17.05 152.95 7.75 153.15 1.95 154.65 10.25 M139.2 7.45 Q139.7 9.75 140.05 13.65 L140.3 19.3 139.9 22.5 Q139.6 23.55 139.0 23.95 L137.55 24.25 137.45 22.5 137.0 17.8 136.4 11.15 135.8 3.7 Q136.95 3.3 137.75 4.25 138.6 5.1 139.2 7.45 Z" fill="none" stroke="#000000" stroke-linecap="round" stroke-linejoin="round" stroke-opacity="0.30980393" stroke-width="7.0"/>
      <path d="M108.5 8.8 L108.25 7.75 107.65 7.8 106.0 8.05 103.5 8.35 103.1 17.85 102.7 24.15 102.5 26.35 105.05 26.15 105.85 26.1 105.9 23.25 107.35 23.15 108.4 23.05 108.8 25.7 109.0 26.6 111.55 26.25 112.5 26.2 111.15 20.6 110.0 15.6 109.1 11.45 108.5 8.8 M105.85 20.3 L106.0 14.6 106.15 11.0 107.1 16.1 107.8 20.15 106.4 20.3 105.85 20.3 Z" fill="none" stroke="#000000" stroke-linecap="round" stroke-linejoin="round" stroke-opacity="0.30980393" stroke-width="7.0"/>
      <path d="M137.5 0.9 Q136.7 -0.05 135.5 0.3 L136.15 7.8 136.75 14.45 137.2 19.15 137.3 20.85 138.7 20.55 Q139.35 20.2 139.65 19.15 L140.05 15.95 139.75 10.3 Q139.45 6.4 138.9 4.05 138.3 1.75 137.5 0.9 M153.3 13.65 L155.6 13.4 154.4 6.9 152.85 -1.45 152.65 4.4 152.5 13.7 153.3 13.65 M159.95 -6.0 L161.7 -6.2 165.4 -6.7 165.8 -4.85 167.05 0.2 168.85 7.55 169.1 5.45 169.45 -0.1 170.0 -8.05 171.3 -8.1 175.65 -8.5 175.2 -5.55 174.0 2.6 172.2 15.35 172.2 15.8 172.85 22.1 167.3 22.7 167.3 22.1 167.15 20.05 166.7 15.9 166.1 13.8 163.8 6.85 159.5 -5.95 159.95 -6.0 M155.3 -6.65 L156.3 -6.75 156.75 -5.05 157.65 -0.65 159.15 6.0 161.0 14.15 163.15 23.15 161.6 23.25 157.45 23.75 157.2 22.35 156.45 18.05 154.8 18.2 152.45 18.4 152.45 23.0 151.1 23.1 147.0 23.5 147.25 19.85 147.85 9.75 148.65 -5.8 152.55 -6.3 155.3 -6.65 M129.7 -3.65 L131.8 -4.25 133.75 -4.5 Q137.6 -4.9 140.15 -3.4 142.55 -2.0 143.9 1.35 145.25 4.75 145.65 10.1 146.1 15.5 145.2 18.75 144.25 22.1 142.0 23.75 139.85 25.4 136.35 25.75 L134.35 25.85 132.1 25.75 131.45 16.95 130.8 8.9 130.2 2.35 129.85 -2.1 129.7 -3.65" fill="#ffffff" fill-rule="evenodd" stroke="none"/>
      <path d="M129.7 -3.65 L129.85 -2.1 130.2 2.35 130.8 8.9 131.45 16.95 132.1 25.75 134.35 25.85 136.35 25.75 Q139.85 25.4 142.0 23.75 144.25 22.1 145.2 18.75 146.1 15.5 145.65 10.1 145.25 4.75 143.9 1.35 142.55 -2.0 140.15 -3.4 137.6 -4.9 133.75 -4.5 L131.8 -4.25 129.7 -3.65 M155.3 -6.65 L152.55 -6.3 148.65 -5.8 147.85 9.75 147.25 19.85 147.0 23.5 151.1 23.1 152.45 23.0 152.45 18.4 154.8 18.2 156.45 18.05 157.2 22.35 157.45 23.75 161.6 23.25 163.15 23.15 161.0 14.15 159.15 6.0 157.65 -0.65 156.75 -5.05 156.3 -6.75 155.3 -6.65 M159.95 -6.0 L159.5 -5.95 163.8 6.85 166.1 13.8 166.7 15.9 167.15 20.05 167.3 22.1 167.3 22.7 172.85 22.1 172.2 15.8 172.2 15.35 174.0 2.6 175.2 -5.55 175.65 -8.5 171.3 -8.1 170.0 -8.05 169.45 -0.1 169.1 5.45 168.85 7.55 167.05 0.2 165.8 -4.85 165.4 -6.7 161.7 -6.2 159.95 -6.0 M153.3 13.65 L152.5 13.7 152.65 4.4 152.85 -1.45 154.4 6.9 155.6 13.4 153.3 13.65 M137.5 0.9 Q138.3 1.75 138.9 4.05 139.45 6.4 139.75 10.3 L140.05 15.95 139.65 19.15 Q139.35 20.2 138.7 20.55 L137.3 20.85 137.2 19.15 136.75 14.45 136.15 7.8 135.5 0.3 Q136.7 -0.05 137.5 0.9 Z" fill="none" stroke="#4d004d" stroke-linecap="round" stroke-linejoin="round" stroke-width="6.0"/>
      <path d="M107.6 18.05 L106.9 14.05 105.9 8.95 105.75 12.55 105.65 18.2 106.2 18.2 107.6 18.05 M107.4 5.7 L108.0 5.65 108.25 6.7 108.9 9.45 109.8 13.55 110.95 18.55 112.25 24.15 111.3 24.15 108.75 24.5 108.6 23.65 108.15 20.95 107.1 21.05 105.65 21.15 105.65 24.0 104.85 24.05 102.3 24.3 102.5 22.1 102.85 15.85 103.3 6.25 105.75 5.95 107.4 5.7" fill="#ffffff" fill-rule="evenodd" stroke="none"/>
      <path d="M107.4 5.7 L105.75 5.95 103.3 6.25 102.85 15.85 102.5 22.1 102.3 24.3 104.85 24.05 105.65 24.0 105.65 21.15 107.1 21.05 108.15 20.95 108.6 23.65 108.75 24.5 111.3 24.15 112.25 24.15 110.95 18.55 109.8 13.55 108.9 9.45 108.25 6.7 108.0 5.65 107.4 5.7 M107.6 18.05 L106.2 18.2 105.65 18.2 105.75 12.55 105.9 8.95 106.9 14.05 107.6 18.05 Z" fill="none" stroke="#00264d" stroke-linecap="round" stroke-linejoin="round" stroke-width="6.0"/>
      <path d="M63.6 9.4 L63.7 10.4 63.9 13.15 62.9 13.25 60.0 13.55 60.15 14.9 60.5 18.9 61.65 18.75 63.9 18.55 64.0 19.5 64.25 22.2 63.45 22.2 60.9 22.5 61.5 28.95 58.95 29.2 57.9 29.3 57.8 27.9 57.45 23.9 56.9 17.9 56.2 10.25 57.2 10.15 59.9 9.85 63.6 9.4 M66.1 10.25 Q67.15 8.8 69.2 8.6 71.2 8.4 72.4 9.55 73.55 10.65 74.2 12.85 74.8 15.05 75.05 18.0 75.25 21.8 74.9 24.0 74.5 26.2 73.45 27.35 72.45 28.4 70.75 28.5 68.9 28.7 67.7 27.7 66.5 26.7 65.9 24.5 65.15 22.3 64.9 19.05 64.65 16.25 64.95 14.0 65.15 11.65 66.1 10.25 M69.4 11.6 Q68.9 11.65 68.75 12.25 68.6 13.0 68.6 14.5 L68.8 18.45 69.2 22.9 Q69.55 24.5 69.85 25.05 70.15 25.65 70.55 25.55 L71.2 25.0 71.4 22.85 71.2 18.25 70.75 14.25 70.15 12.05 Q69.8 11.55 69.4 11.6 M85.3 13.4 Q85.5 15.25 84.95 16.5 84.5 17.8 83.5 18.55 L84.5 21.2 86.8 26.7 85.8 26.85 83.15 27.35 82.55 25.45 80.6 20.1 80.2 20.2 79.9 20.3 80.1 22.75 80.5 26.7 80.0 26.75 78.75 26.85 76.85 27.05 76.65 24.8 76.2 18.4 75.3 8.35 77.15 7.9 78.8 7.6 Q81.85 7.3 83.4 8.75 85.05 10.3 85.3 13.4 M81.2 16.65 Q81.75 15.8 81.6 14.05 81.5 12.45 80.95 11.6 80.45 10.75 79.45 10.85 L79.2 10.85 79.1 10.85 79.35 14.3 79.6 16.75 79.65 17.7 Q80.65 17.55 81.2 16.65" fill="#ffffff" fill-rule="evenodd" stroke="none"/>
      <path d="M81.2 16.65 Q80.65 17.55 79.65 17.7 L79.6 16.75 79.35 14.3 79.1 10.85 79.2 10.85 79.45 10.85 Q80.45 10.75 80.95 11.6 81.5 12.45 81.6 14.05 81.75 15.8 81.2 16.65 M85.3 13.4 Q85.05 10.3 83.4 8.75 81.85 7.3 78.8 7.6 L77.15 7.9 75.3 8.35 76.2 18.4 76.65 24.8 76.85 27.05 78.75 26.85 80.0 26.75 80.5 26.7 80.1 22.75 79.9 20.3 80.2 20.2 80.6 20.1 82.55 25.45 83.15 27.35 85.8 26.85 86.8 26.7 84.5 21.2 83.5 18.55 Q84.5 17.8 84.95 16.5 85.5 15.25 85.3 13.4 M69.4 11.6 Q69.8 11.55 70.15 12.05 L70.75 14.25 71.2 18.25 71.4 22.85 71.2 25.0 70.55 25.55 Q70.15 25.65 69.85 25.05 69.55 24.5 69.2 22.9 L68.8 18.45 68.6 14.5 Q68.6 13.0 68.75 12.25 68.9 11.65 69.4 11.6 M66.1 10.25 Q65.15 11.65 64.95 14.0 64.65 16.25 64.9 19.05 65.15 22.3 65.9 24.5 66.5 26.7 67.7 27.7 68.9 28.7 70.75 28.5 72.45 28.4 73.45 27.35 74.5 26.2 74.9 24.0 75.25 21.8 75.05 18.0 74.8 15.05 74.2 12.85 73.55 10.65 72.4 9.55 71.2 8.4 69.2 8.6 67.15 8.8 66.1 10.25 M63.6 9.4 L59.9 9.85 57.2 10.15 56.2 10.25 56.9 17.9 57.45 23.9 57.8 27.9 57.9 29.3 58.95 29.2 61.5 28.95 60.9 22.5 63.45 22.2 64.25 22.2 64.0 19.5 63.9 18.55 61.65 18.75 60.5 18.9 60.15 14.9 60.0 13.55 62.9 13.25 63.9 13.15 63.7 10.4 63.6 9.4 Z" fill="none" stroke="#352419" stroke-linecap="round" stroke-linejoin="round" stroke-width="6.0"/>
      <path d="M41.85 9.95 L37.85 10.25 38.35 15.5 38.95 23.3 40.0 34.3 38.6 34.4 34.5 34.9 34.3 31.85 33.6 23.55 32.45 10.8 28.3 11.25 28.3 9.95 27.85 5.75 41.55 4.25 41.85 9.95 M6.3 16.6 L6.6 20.4 7.05 25.6 Q8.05 25.4 8.7 24.8 9.4 24.1 9.65 22.75 10.0 21.35 9.75 19.05 9.5 15.9 8.65 14.35 7.65 12.8 6.05 13.05 L6.3 16.6 M0.3 8.65 L2.0 8.35 3.55 8.15 Q9.3 7.6 12.15 10.2 14.95 12.75 15.3 18.35 15.75 23.5 13.65 26.6 11.6 29.6 7.5 30.25 L8.2 37.0 6.6 37.2 2.6 37.65 2.3 34.05 1.55 24.1 0.3 8.65 M27.15 7.25 L27.5 11.35 26.55 11.4 24.3 11.7 21.6 12.0 21.7 13.85 22.15 18.9 23.75 18.7 27.3 18.3 27.4 19.8 27.75 23.65 26.3 23.75 22.7 24.15 22.95 27.1 23.35 30.3 24.95 30.2 29.15 30.0 29.2 31.3 29.5 35.25 27.95 35.4 23.95 35.7 18.35 36.15 18.2 34.0 17.65 27.95 16.85 18.7 15.75 7.0 16.9 6.9 20.5 6.4 27.0 5.65 27.15 7.25" fill="#ffffff" fill-rule="evenodd" stroke="none"/>
      <path d="M41.85 9.95 L37.85 10.25 38.35 15.5 38.95 23.3 40.0 34.3 38.6 34.4 34.5 34.9 34.3 31.85 33.6 23.55 32.45 10.8 28.3 11.25 28.3 9.95 27.85 5.75 41.55 4.25 41.85 9.95 M27.15 7.25 L27.0 5.65 20.5 6.4 16.9 6.9 15.75 7.0 16.85 18.7 17.65 27.95 18.2 34.0 18.35 36.15 23.95 35.7 27.95 35.4 29.5 35.25 29.2 31.3 29.15 30.0 24.95 30.2 23.35 30.3 22.95 27.1 22.7 24.15 26.3 23.75 27.75 23.65 27.4 19.8 27.3 18.3 23.75 18.7 22.15 18.9 21.7 13.85 21.6 12.0 24.3 11.7 26.55 11.4 27.5 11.35 27.15 7.25 M0.3 8.65 L1.55 24.1 2.3 34.05 2.6 37.65 6.6 37.2 8.2 37.0 7.5 30.25 Q11.6 29.6 13.65 26.6 15.75 23.5 15.3 18.35 14.95 12.75 12.15 10.2 9.3 7.6 3.55 8.15 L2.0 8.35 0.3 8.65 M6.3 16.6 L6.05 13.05 Q7.65 12.8 8.65 14.35 9.5 15.9 9.75 19.05 10.0 21.35 9.65 22.75 9.4 24.1 8.7 24.8 8.05 25.4 7.05 25.6 L6.6 20.4 6.3 16.6 Z" fill="none" stroke="#002500" stroke-linecap="round" stroke-linejoin="round" stroke-width="6.0"/>
      <path d="M131.8 -4.25 L133.75 -4.5 Q137.6 -4.9 140.15 -3.4 142.55 -2.0 143.9 1.35 145.25 4.75 145.65 10.1 146.1 15.5 145.2 18.75 144.25 22.1 142.0 23.75 139.85 25.4 136.35 25.75 L134.35 25.85 132.1 25.75 131.45 16.95 130.8 8.9 130.2 2.35 129.85 -2.1 129.7 -3.65 131.8 -4.25 M155.3 -6.65 L156.3 -6.75 156.75 -5.05 157.65 -0.65 159.15 6.0 161.0 14.15 163.15 23.15 161.6 23.25 157.45 23.75 157.2 22.35 156.45 18.05 154.8 18.2 152.45 18.4 152.45 23.0 147.0 23.5 147.1 22.1 147.65 14.35 147.8 11.4 147.95 8.1 148.15 4.55 148.35 0.65 148.55 -3.55 148.65 -5.8 152.55 -6.3 155.3 -6.65 M137.5 0.9 Q136.7 -0.05 135.5 0.3 L136.15 7.8 136.75 14.45 137.2 19.15 137.3 20.85 138.7 20.55 Q139.35 20.2 139.65 19.15 L140.05 15.95 139.75 10.3 Q139.45 6.4 138.9 4.05 138.3 1.75 137.5 0.9 M153.3 13.65 L155.6 13.4 154.4 6.9 152.85 -1.45 152.65 4.4 152.5 13.7 153.3 13.65 M159.5 -5.95 L159.95 -6.0 161.7 -6.2 165.4 -6.7 165.8 -4.85 167.05 0.2 168.85 7.55 169.1 5.45 169.45 -0.1 170.0 -8.05 171.3 -8.1 175.65 -8.5 175.2 -5.55 174.0 2.6 172.2 15.35 172.2 15.8 172.85 22.1 167.3 22.7 167.3 22.1 167.15 20.05 166.7 15.9 166.1 13.8 163.8 6.85 159.5 -5.95" fill="#950095" fill-rule="evenodd" stroke="none"/>
      <path d="M131.8 -4.25 L129.7 -3.65 129.85 -2.1 130.2 2.35 130.8 8.9 131.45 16.95 132.1 25.75 134.35 25.85 136.35 25.75 Q139.85 25.4 142.0 23.75 144.25 22.1 145.2 18.75 146.1 15.5 145.65 10.1 145.25 4.75 143.9 1.35 142.55 -2.0 140.15 -3.4 137.6 -4.9 133.75 -4.5 L131.8 -4.25 M155.3 -6.65 L156.3 -6.75 156.75 -5.05 157.65 -0.65 159.15 6.0 161.0 14.15 163.15 23.15 161.6 23.25 157.45 23.75 157.2 22.35 156.45 18.05 154.8 18.2 152.45 18.4 152.45 23.0 147.0 23.5 147.1 22.1 147.65 14.35 147.8 11.4 147.95 8.1 148.15 4.55 148.35 0.65 148.55 -3.55 148.65 -5.8 152.55 -6.3 155.3 -6.65 M159.5 -5.95 L163.8 6.85 166.1 13.8 166.7 15.9 167.15 20.05 167.3 22.1 167.3 22.7 172.85 22.1 172.2 15.8 172.2 15.35 174.0 2.6 175.2 -5.55 175.65 -8.5 171.3 -8.1 170.0 -8.05 169.45 -0.1 169.1 5.45 168.85 7.55 167.05 0.2 165.8 -4.85 165.4 -6.7 161.7 -6.2 159.95 -6.0 159.5 -5.95 M153.3 13.65 L152.5 13.7 152.65 4.4 152.85 -1.45 154.4 6.9 155.6 13.4 153.3 13.65 M137.5 0.9 Q138.3 1.75 138.9 4.05 139.45 6.4 139.75 10.3 L140.05 15.95 139.65 19.15 Q139.35 20.2 138.7 20.55 L137.3 20.85 137.2 19.15 136.75 14.45 136.15 7.8 135.5 0.3 Q136.7 -0.05 137.5 0.9 Z" fill="none" stroke="#91008f" stroke-linecap="round" stroke-linejoin="round" stroke-width="3.0"/>
      <path d="M107.6 18.05 L106.9 14.05 105.9 8.95 105.75 12.55 105.65 18.2 106.2 18.2 107.6 18.05 M107.4 5.7 L108.0 5.65 108.25 6.7 108.9 9.45 109.8 13.55 110.95 18.55 112.25 24.15 111.3 24.15 108.75 24.5 108.6 23.65 108.15 20.95 107.1 21.05 105.65 21.15 105.65 24.0 104.85 24.05 102.3 24.3 102.5 22.1 102.85 15.85 103.3 6.25 105.75 5.95 107.4 5.7" fill="#ffffff" fill-rule="evenodd" stroke="none"/>
      <path d="M107.4 5.7 L105.75 5.95 103.3 6.25 102.85 15.85 102.5 22.1 102.3 24.3 104.85 24.05 105.65 24.0 105.65 21.15 107.1 21.05 108.15 20.95 108.6 23.65 108.75 24.5 111.3 24.15 112.25 24.15 110.95 18.55 109.8 13.55 108.9 9.45 108.25 6.7 108.0 5.65 107.4 5.7 M107.6 18.05 L106.2 18.2 105.65 18.2 105.75 12.55 105.9 8.95 106.9 14.05 107.6 18.05 Z" fill="none" stroke="#014795" stroke-linecap="round" stroke-linejoin="round" stroke-width="3.0"/>
      <path d="M63.6 9.4 L63.7 10.4 63.9 13.15 62.9 13.25 60.0 13.55 60.15 14.9 60.5 18.9 61.65 18.75 63.9 18.55 64.0 19.5 64.25 22.2 63.45 22.2 60.9 22.5 61.5 28.95 58.95 29.2 57.9 29.3 57.8 27.9 57.45 23.9 56.9 17.9 56.2 10.25 57.2 10.15 59.9 9.85 63.6 9.4 M66.1 10.25 Q67.15 8.8 69.2 8.6 71.2 8.4 72.4 9.55 73.55 10.65 74.2 12.85 74.8 15.05 75.05 18.0 75.25 21.8 74.9 24.0 74.5 26.2 73.45 27.35 72.45 28.4 70.75 28.5 68.9 28.7 67.7 27.7 66.5 26.7 65.9 24.5 65.15 22.3 64.9 19.05 64.65 16.25 64.95 14.0 65.15 11.65 66.1 10.25 M69.4 11.6 Q68.9 11.65 68.75 12.25 68.6 13.0 68.6 14.5 L68.8 18.45 69.2 22.9 Q69.55 24.5 69.85 25.05 70.15 25.65 70.55 25.55 L71.2 25.0 71.4 22.85 71.2 18.25 70.75 14.25 70.15 12.05 Q69.8 11.55 69.4 11.6 M85.3 13.4 Q85.5 15.25 84.95 16.5 84.5 17.8 83.5 18.55 L84.5 21.2 86.8 26.7 85.8 26.85 83.15 27.35 82.55 25.45 80.6 20.1 80.2 20.2 79.9 20.3 80.1 22.75 80.5 26.7 80.0 26.75 78.75 26.85 76.85 27.05 76.65 24.8 76.2 18.4 75.3 8.35 77.15 7.9 78.8 7.6 Q81.85 7.3 83.4 8.75 85.05 10.3 85.3 13.4 M81.2 16.65 Q81.75 15.8 81.6 14.05 81.5 12.45 80.95 11.6 80.45 10.75 79.45 10.85 L79.2 10.85 79.1 10.85 79.35 14.3 79.6 16.75 79.65 17.7 Q80.65 17.55 81.2 16.65" fill="#ffffff" fill-rule="evenodd" stroke="none"/>
      <path d="M81.2 16.65 Q80.65 17.55 79.65 17.7 L79.6 16.75 79.35 14.3 79.1 10.85 79.2 10.85 79.45 10.85 Q80.45 10.75 80.95 11.6 81.5 12.45 81.6 14.05 81.75 15.8 81.2 16.65 M85.3 13.4 Q85.05 10.3 83.4 8.75 81.85 7.3 78.8 7.6 L77.15 7.9 75.3 8.35 76.2 18.4 76.65 24.8 76.85 27.05 78.75 26.85 80.0 26.75 80.5 26.7 80.1 22.75 79.9 20.3 80.2 20.2 80.6 20.1 82.55 25.45 83.15 27.35 85.8 26.85 86.8 26.7 84.5 21.2 83.5 18.55 Q84.5 17.8 84.95 16.5 85.5 15.25 85.3 13.4 M69.4 11.6 Q69.8 11.55 70.15 12.05 L70.75 14.25 71.2 18.25 71.4 22.85 71.2 25.0 70.55 25.55 Q70.15 25.65 69.85 25.05 69.55 24.5 69.2 22.9 L68.8 18.45 68.6 14.5 Q68.6 13.0 68.75 12.25 68.9 11.65 69.4 11.6 M66.1 10.25 Q65.15 11.65 64.95 14.0 64.65 16.25 64.9 19.05 65.15 22.3 65.9 24.5 66.5 26.7 67.7 27.7 68.9 28.7 70.75 28.5 72.45 28.4 73.45 27.35 74.5 26.2 74.9 24.0 75.25 21.8 75.05 18.0 74.8 15.05 74.2 12.85 73.55 10.65 72.4 9.55 71.2 8.4 69.2 8.6 67.15 8.8 66.1 10.25 M63.6 9.4 L59.9 9.85 57.2 10.15 56.2 10.25 56.9 17.9 57.45 23.9 57.8 27.9 57.9 29.3 58.95 29.2 61.5 28.95 60.9 22.5 63.45 22.2 64.25 22.2 64.0 19.5 63.9 18.55 61.65 18.75 60.5 18.9 60.15 14.9 60.0 13.55 62.9 13.25 63.9 13.15 63.7 10.4 63.6 9.4 Z" fill="none" stroke="#9c5702" stroke-linecap="round" stroke-linejoin="round" stroke-width="3.0"/>
      <path d="M41.85 9.95 L37.85 10.25 38.35 15.5 38.95 23.3 40.0 34.3 38.6 34.4 34.5 34.9 34.3 31.85 33.6 23.55 32.45 10.8 28.3 11.25 28.3 9.95 27.85 5.75 41.55 4.25 41.85 9.95 M6.3 16.6 L6.6 20.4 7.05 25.6 Q8.05 25.4 8.7 24.8 9.4 24.1 9.65 22.75 10.0 21.35 9.75 19.05 9.5 15.9 8.65 14.35 7.65 12.8 6.05 13.05 L6.3 16.6 M0.3 8.65 L2.0 8.35 3.55 8.15 Q9.3 7.6 12.15 10.2 14.95 12.75 15.3 18.35 15.75 23.5 13.65 26.6 11.6 29.6 7.5 30.25 L8.2 37.0 6.6 37.2 2.6 37.65 2.3 34.05 1.55 24.1 0.3 8.65 M27.15 7.25 L27.5 11.35 26.55 11.4 24.3 11.7 21.6 12.0 21.7 13.85 22.15 18.9 23.75 18.7 27.3 18.3 27.4 19.8 27.75 23.65 26.3 23.75 22.7 24.15 22.95 27.1 23.35 30.3 24.95 30.2 29.15 30.0 29.2 31.3 29.5 35.25 27.95 35.4 23.95 35.7 18.35 36.15 18.2 34.0 17.65 27.95 16.85 18.7 15.75 7.0 16.9 6.9 20.5 6.4 27.0 5.65 27.15 7.25" fill="#009951" fill-rule="evenodd" stroke="none"/>
      <path d="M41.85 9.95 L37.85 10.25 38.35 15.5 38.95 23.3 40.0 34.3 38.6 34.4 34.5 34.9 34.3 31.85 33.6 23.55 32.45 10.8 28.3 11.25 28.3 9.95 27.85 5.75 41.55 4.25 41.85 9.95 M27.15 7.25 L27.0 5.65 20.5 6.4 16.9 6.9 15.75 7.0 16.85 18.7 17.65 27.95 18.2 34.0 18.35 36.15 23.95 35.7 27.95 35.4 29.5 35.25 29.2 31.3 29.15 30.0 24.95 30.2 23.35 30.3 22.95 27.1 22.7 24.15 26.3 23.75 27.75 23.65 27.4 19.8 27.3 18.3 23.75 18.7 22.15 18.9 21.7 13.85 21.6 12.0 24.3 11.7 26.55 11.4 27.5 11.35 27.15 7.25 M0.3 8.65 L1.55 24.1 2.3 34.05 2.6 37.65 6.6 37.2 8.2 37.0 7.5 30.25 Q11.6 29.6 13.65 26.6 15.75 23.5 15.3 18.35 14.95 12.75 12.15 10.2 9.3 7.6 3.55 8.15 L2.0 8.35 0.3 8.65 M6.3 16.6 L6.05 13.05 Q7.65 12.8 8.65 14.35 9.5 15.9 9.75 19.05 10.0 21.35 9.65 22.75 9.4 24.1 8.7 24.8 8.05 25.4 7.05 25.6 L6.6 20.4 6.3 16.6 Z" fill="none" stroke="#008027" stroke-linecap="round" stroke-linejoin="round" stroke-width="3.0"/>
      <path d="M5.95 17.1 L6.25 20.9 6.7 26.1 Q7.7 25.9 8.4 25.25 9.05 24.55 9.35 23.25 9.65 21.85 9.45 19.55 9.2 16.35 8.25 14.8 7.3 13.3 5.65 13.55 L5.95 17.1 M0.0 9.2 L1.7 8.85 3.25 8.65 Q9.0 8.1 11.8 10.7 14.6 13.25 15.0 18.8 15.35 24.0 13.35 27.05 11.25 30.1 7.2 30.7 L7.9 37.55 6.35 37.65 2.3 38.15 2.05 34.6 1.25 24.65 0.0 9.2 M26.7 6.2 L26.75 7.8 27.2 11.8 26.2 11.9 23.95 12.2 21.2 12.5 21.35 14.3 21.8 19.35 23.35 19.2 26.9 18.8 27.0 20.3 27.35 24.2 25.9 24.3 22.3 24.65 22.6 27.6 22.95 30.8 24.55 30.75 28.8 30.45 28.85 31.8 29.1 35.75 27.55 35.9 23.55 36.2 18.05 36.65 17.8 34.45 17.3 28.45 16.45 19.2 15.35 7.5 16.5 7.35 20.15 6.9 26.7 6.2 M41.2 4.75 L41.25 6.3 41.55 10.45 40.45 10.5 37.5 10.8 37.9 16.05 38.6 23.9 39.55 34.8 38.15 34.95 34.1 35.4 33.9 32.4 33.2 24.05 32.1 11.3 28.0 11.8 27.9 10.45 27.5 6.3 30.8 5.95 41.2 4.75" fill="#00c25c" fill-rule="evenodd" stroke="none"/>
      <path d="M70.45 14.45 L69.9 12.4 Q69.55 11.8 69.15 11.85 68.7 11.9 68.55 12.6 L68.35 14.75 68.55 18.75 68.95 22.55 69.05 23.2 Q69.25 24.75 69.55 25.4 69.9 25.95 70.35 25.9 L70.95 25.3 71.2 23.1 71.2 22.55 70.9 18.55 70.45 14.45 M65.95 10.5 Q66.95 9.1 68.95 8.9 70.95 8.7 72.2 9.85 73.4 11.0 73.95 13.15 74.55 15.35 74.8 18.25 L74.9 22.55 74.7 24.3 Q74.3 26.55 73.25 27.65 72.25 28.65 70.55 28.8 68.7 29.0 67.5 27.95 66.25 26.95 65.65 24.8 L65.1 22.55 64.7 19.3 Q64.45 16.5 64.75 14.25 64.95 12.0 65.95 10.5 M63.35 9.75 L63.4 10.7 63.6 13.45 62.65 13.55 59.75 13.9 59.85 15.25 60.2 19.25 61.35 19.1 63.7 18.85 63.75 19.85 64.0 22.5 63.1 22.5 62.7 22.55 60.6 22.85 61.2 29.2 58.65 29.45 57.65 29.6 57.55 28.2 57.2 24.25 57.05 22.55 56.65 18.2 55.9 10.6 56.95 10.5 59.6 10.15 63.35 9.75 M83.25 9.15 Q84.85 10.65 85.1 13.75 85.25 15.6 84.75 16.85 84.3 18.15 83.3 18.95 L84.3 21.5 84.75 22.55 86.55 27.0 85.6 27.2 82.95 27.65 82.3 25.7 81.15 22.55 80.4 20.4 80.05 20.5 79.65 20.6 79.85 22.55 79.9 23.1 80.3 27.0 79.8 27.05 78.5 27.2 76.6 27.45 76.5 25.15 76.3 22.55 76.0 18.7 75.15 8.7 77.0 8.2 78.6 7.95 Q81.65 7.65 83.25 9.15 M81.0 17.0 Q81.55 16.15 81.4 14.4 81.3 12.8 80.75 11.9 80.2 11.05 79.2 11.1 L79.0 11.2 78.85 11.2 79.1 14.6 79.35 17.05 79.45 18.0 Q80.45 17.9 81.0 17.0" fill="#e7a500" fill-rule="evenodd" stroke="none"/>
      <path d="M107.35 18.4 L106.6 14.35 105.6 9.2 105.55 12.8 105.45 18.55 105.9 18.5 107.35 18.4 M103.05 6.55 L105.5 6.2 107.2 6.05 107.85 6.0 108.0 6.95 108.65 9.75 109.55 13.8 110.7 18.85 112.05 24.4 111.1 24.45 108.5 24.75 108.3 23.9 107.9 21.25 106.85 21.35 105.4 21.5 105.4 24.3 104.6 24.4 102.05 24.6 102.2 22.35 102.6 16.2 103.05 6.55" fill="#008ecd" fill-rule="evenodd" stroke="none"/>
      <path d="M139.45 10.85 Q139.1 6.9 138.6 4.6 138.05 2.3 137.15 1.4 136.35 0.55 135.1 0.85 L135.75 8.35 136.4 14.95 136.8 19.7 137.0 21.45 138.4 21.1 Q139.0 20.75 139.3 19.7 139.6 18.6 139.7 16.5 L139.45 10.85 M152.9 14.15 L155.2 13.9 154.05 7.4 152.45 -0.85 152.25 4.95 152.15 14.25 152.9 14.15 M156.35 -4.55 L157.3 -0.1 158.8 6.55 160.65 14.7 162.8 23.7 161.25 23.8 157.05 24.3 156.85 22.9 156.1 18.55 154.4 18.75 152.1 18.95 152.1 23.55 150.8 23.65 146.7 24.0 146.9 20.4 147.5 10.3 148.3 -5.25 152.2 -5.8 154.95 -6.05 156.0 -6.15 156.35 -4.55 M159.65 -5.45 L161.4 -5.65 165.05 -6.2 165.5 -4.3 166.65 0.75 168.5 8.1 168.7 6.0 169.1 0.45 169.6 -6.85 169.65 -7.5 170.95 -7.55 175.3 -7.9 175.15 -6.85 174.85 -5.05 173.6 3.15 171.8 15.85 171.8 16.3 172.0 18.25 172.45 22.6 172.0 22.65 170.3 22.75 166.95 23.2 166.9 22.65 166.8 20.6 166.35 16.5 165.7 14.35 163.45 7.35 159.2 -5.35 159.65 -5.45 M133.45 -3.95 Q137.3 -4.35 139.8 -2.85 142.3 -1.45 143.55 1.95 144.9 5.3 145.3 10.65 145.75 16.05 144.85 19.35 143.9 22.7 141.75 24.3 139.5 26.0 136.05 26.3 L134.0 26.4 131.75 26.3 131.1 17.5 130.45 9.45 129.9 2.9 129.5 -1.5 129.4 -3.15 131.5 -3.65 133.45 -3.95" fill="#e00ae0" fill-rule="evenodd" stroke="none"/>
      <path d="M6.65 16.2 L6.95 20.0 7.4 25.2 Q8.4 25.0 9.1 24.35 9.75 23.65 10.05 22.35 10.35 20.95 10.15 18.65 9.9 15.45 8.95 13.9 8.0 12.4 6.35 12.65 L6.65 16.2 M0.7 8.3 L2.4 7.95 3.95 7.75 Q9.7 7.2 12.5 9.8 15.3 12.35 15.7 17.9 16.05 23.1 14.05 26.15 11.95 29.2 7.9 29.8 L8.6 36.65 7.05 36.75 3.0 37.25 2.75 33.7 1.95 23.75 0.7 8.3 M24.65 11.3 L21.9 11.6 22.05 13.4 22.5 18.45 24.05 18.3 27.6 17.9 27.7 19.4 28.05 23.3 26.6 23.4 23.0 23.75 23.3 26.7 23.65 29.9 25.25 29.85 29.5 29.55 29.55 30.9 29.8 34.85 28.25 35.0 24.25 35.3 18.75 35.75 18.5 33.55 18.0 27.55 17.15 18.3 16.05 6.6 17.2 6.45 20.85 6.0 27.4 5.3 27.45 6.9 27.9 10.9 26.9 11.0 24.65 11.3 M42.0 5.35 L42.3 9.5 41.2 9.55 38.25 9.85 38.65 15.1 39.35 22.95 40.3 33.85 38.9 34.0 34.85 34.45 34.65 31.45 33.95 23.1 32.85 10.35 28.75 10.85 28.65 9.5 28.25 5.35 31.55 5.0 41.95 3.8 42.0 5.35" fill="#00ff66" fill-rule="evenodd" stroke="none"/>
      <path d="M66.45 9.9 Q67.45 8.5 69.45 8.3 71.45 8.1 72.7 9.25 73.9 10.4 74.45 12.55 75.05 14.75 75.3 17.65 L75.35 22.55 75.2 23.7 Q74.8 25.95 73.75 27.05 72.75 28.05 71.05 28.2 69.2 28.4 68.0 27.35 66.75 26.35 66.15 24.2 L65.75 22.55 Q65.35 20.85 65.2 18.7 64.95 15.9 65.25 13.65 65.45 11.4 66.45 9.9 M63.9 9.1 L63.95 10.05 64.15 12.8 63.2 12.9 60.3 13.25 60.4 14.6 60.75 18.6 61.9 18.45 64.25 18.2 64.3 19.2 64.55 21.85 63.65 21.85 61.15 22.2 61.75 28.55 59.2 28.8 58.2 28.95 58.1 27.55 57.75 23.6 57.65 22.55 57.2 17.55 56.45 9.95 57.5 9.85 60.15 9.5 63.9 9.1 M69.65 11.25 Q69.2 11.3 69.05 12.0 L68.85 14.15 69.05 18.15 69.55 22.55 69.55 22.6 Q69.75 24.15 70.05 24.8 70.4 25.35 70.85 25.3 L71.45 24.7 71.7 22.55 71.7 22.5 71.4 17.95 70.95 13.85 70.4 11.8 69.65 11.25 M83.65 8.55 Q85.25 10.05 85.5 13.15 85.65 15.0 85.15 16.25 84.7 17.55 83.7 18.35 L84.7 20.9 85.4 22.55 86.95 26.4 86.0 26.6 83.35 27.05 82.7 25.1 81.8 22.55 80.8 19.8 80.45 19.9 80.05 20.0 80.3 22.5 80.3 22.55 80.7 26.4 80.2 26.45 78.9 26.6 77.0 26.85 76.9 24.55 76.75 22.55 76.4 18.1 75.55 8.1 77.4 7.6 79.0 7.35 Q82.05 7.05 83.65 8.55 M81.8 13.8 Q81.7 12.2 81.15 11.3 80.6 10.45 79.6 10.5 L79.4 10.6 79.25 10.6 79.5 14.0 79.75 16.45 79.85 17.4 Q80.85 17.3 81.4 16.4 81.95 15.55 81.8 13.8" fill="#ffff00" fill-rule="evenodd" stroke="none"/>
      <path d="M103.5 6.05 L105.95 5.7 107.65 5.55 108.3 5.5 108.45 6.45 109.1 9.25 110.0 13.3 111.15 18.35 112.5 23.9 111.55 23.95 108.95 24.25 108.75 23.4 108.35 20.75 107.3 20.85 105.85 21.0 105.85 23.8 105.05 23.9 102.5 24.1 102.65 21.85 103.05 15.7 103.5 6.05 M106.05 8.7 L106.0 12.3 105.9 18.05 106.35 18.0 107.8 17.9 107.05 13.85 106.05 8.7" fill="#00ccff" fill-rule="evenodd" stroke="none"/>
      <path d="M140.2 9.9 Q139.85 5.95 139.35 3.65 138.8 1.35 137.9 0.45 137.1 -0.4 135.85 -0.1 L136.5 7.4 137.15 14.0 137.55 18.75 137.75 20.5 139.15 20.15 Q139.75 19.8 140.05 18.75 140.35 17.65 140.45 15.55 L140.2 9.9 M153.65 13.2 L155.95 12.95 154.8 6.45 153.2 -1.8 153.0 4.0 152.9 13.3 153.65 13.2 M152.95 -6.75 L154.1 -6.85 155.7 -7.0 156.75 -7.1 157.1 -5.5 158.05 -1.05 159.55 5.6 161.4 13.75 163.55 22.75 162.0 22.85 157.8 23.35 157.6 21.95 156.85 17.6 155.15 17.8 152.85 18.0 152.85 22.6 151.55 22.7 147.45 23.05 147.65 19.45 148.25 9.35 149.05 -6.2 152.95 -6.75 M160.0 -6.3 L160.45 -6.4 162.2 -6.6 163.85 -6.85 165.85 -7.15 165.95 -6.85 166.3 -5.25 167.45 -0.2 169.3 7.15 169.5 5.05 169.9 -0.5 170.35 -6.85 170.45 -8.45 171.75 -8.5 176.1 -8.85 175.8 -6.85 175.65 -6.0 174.4 2.2 172.6 14.9 172.6 15.35 172.8 17.3 173.25 21.65 172.8 21.7 171.1 21.8 167.75 22.25 167.7 21.7 167.6 19.65 167.15 15.55 166.5 13.4 164.25 6.4 160.0 -6.3 M134.2 -4.9 Q138.05 -5.3 140.55 -3.8 143.05 -2.4 144.3 1.0 145.65 4.35 146.05 9.7 146.5 15.1 145.6 18.4 144.65 21.75 142.5 23.35 140.25 25.05 136.8 25.35 L134.75 25.45 132.5 25.35 131.85 16.55 131.2 8.5 130.65 1.95 130.25 -2.45 130.15 -4.1 132.25 -4.6 134.2 -4.9" fill="#ff66ff" fill-rule="evenodd" stroke="none"/>
      <path d="M121.75 15.45 L121.2 15.25 120.4 15.2 119.5 15.4 119.45 15.4 119.45 15.45 118.85 15.75 118.7 15.85 Q118.15 16.5 118.15 17.55 118.2 18.6 118.8 19.2 119.45 19.85 120.6 19.8 121.65 19.75 122.2 19.15 122.85 18.5 122.8 17.3 122.75 16.3 122.1 15.7 L121.75 15.45 Z" fill="none" stroke="#000000" stroke-linecap="round" stroke-linejoin="round" stroke-opacity="0.32156864" stroke-width="3.5"/>
      <path d="M92.35 16.85 L93.2 16.7 93.95 16.8 94.55 17.0 94.65 17.05 94.95 17.25 Q95.55 17.9 95.55 18.9 95.6 20.1 94.95 20.75 L94.9 20.8 Q94.35 21.3 93.35 21.3 92.2 21.35 91.55 20.7 90.95 20.1 90.9 19.05 90.95 18.0 91.55 17.35 L91.7 17.25 Q91.95 17.0 92.35 16.85 L92.25 16.95 91.7 17.25" fill="none" stroke="#000000" stroke-linecap="round" stroke-linejoin="round" stroke-opacity="0.3019608" stroke-width="3.5"/>
      <path d="M47.25 21.65 L47.1 21.75 Q46.55 22.4 46.55 23.45 46.6 24.5 47.25 25.1 47.9 25.7 49.0 25.65 50.05 25.6 50.6 25.0 51.2 24.4 51.15 23.2 51.1 22.2 50.45 21.55 L50.05 21.3 49.5 21.1 48.7 21.05 47.85 21.25 47.8 21.3 47.25 21.65 Q47.5 21.35 47.85 21.25" fill="none" stroke="#000000" stroke-linecap="round" stroke-linejoin="round" stroke-opacity="0.32156864" stroke-width="3.5"/>
      <path d="M51.2 22.3 Q51.25 23.5 50.65 24.1 50.1 24.7 49.05 24.75 47.95 24.8 47.3 24.2 46.65 23.6 46.6 22.55 46.6 21.5 47.15 20.85 47.75 20.2 48.75 20.15 49.8 20.1 50.5 20.65 51.15 21.3 51.2 22.3" fill="#008027" fill-rule="evenodd" stroke="none"/>
      <path d="M51.2 22.3 Q51.15 21.3 50.5 20.65 49.8 20.1 48.75 20.15 47.75 20.2 47.15 20.85 46.6 21.5 46.6 22.55 46.65 23.6 47.3 24.2 47.95 24.8 49.05 24.75 50.1 24.7 50.65 24.1 51.25 23.5 51.2 22.3 Z" fill="none" stroke="#002500" stroke-linecap="round" stroke-linejoin="round" stroke-width="3.0"/>
      <path d="M51.2 22.3 Q51.25 23.5 50.65 24.1 50.1 24.7 49.05 24.75 47.95 24.8 47.3 24.2 46.65 23.6 46.6 22.55 46.6 21.5 47.15 20.85 47.75 20.2 48.75 20.15 49.8 20.1 50.5 20.65 51.15 21.3 51.2 22.3" fill="#00ff66" fill-rule="evenodd" stroke="none"/>
      <path d="M51.2 22.3 Q51.15 21.3 50.5 20.65 49.8 20.1 48.75 20.15 47.75 20.2 47.15 20.85 46.6 21.5 46.6 22.55 46.65 23.6 47.3 24.2 47.95 24.8 49.05 24.75 50.1 24.7 50.65 24.1 51.25 23.5 51.2 22.3 Z" fill="none" stroke="#008027" stroke-linecap="round" stroke-linejoin="round" stroke-width="1.5"/>
      <path d="M51.2 22.3 Q51.25 23.5 50.65 24.1 50.1 24.7 49.05 24.75 47.95 24.8 47.3 24.2 46.65 23.6 46.6 22.55 46.6 21.5 47.15 20.85 47.75 20.2 48.75 20.15 49.8 20.1 50.5 20.65 51.15 21.3 51.2 22.3" fill="#00ff66" fill-rule="evenodd" stroke="none"/>
      <path d="M94.5 16.2 L95.0 16.5 Q95.6 17.15 95.6 18.15 95.65 19.35 95.0 20.0 L94.85 20.15 Q94.3 20.55 93.4 20.55 92.25 20.6 91.6 19.95 91.0 19.35 90.95 18.3 91.0 17.25 91.6 16.6 92.2 16.0 93.25 15.95 L94.5 16.2" fill="#008027" fill-rule="evenodd" stroke="none"/>
      <path d="M94.5 16.2 L93.25 15.95 Q92.2 16.0 91.6 16.6 91.0 17.25 90.95 18.3 91.0 19.35 91.6 19.95 92.25 20.6 93.4 20.55 94.3 20.55 94.85 20.15 L95.0 20.0 Q95.65 19.35 95.6 18.15 95.6 17.15 95.0 16.5 L94.5 16.2 Z" fill="none" stroke="#352419" stroke-linecap="round" stroke-linejoin="round" stroke-width="3.0"/>
      <path d="M94.5 16.2 L95.0 16.5 Q95.6 17.15 95.6 18.15 95.65 19.35 95.0 20.0 L94.85 20.15 Q94.3 20.55 93.4 20.55 92.25 20.6 91.6 19.95 91.0 19.35 90.95 18.3 91.0 17.25 91.6 16.6 92.2 16.0 93.25 15.95 L94.5 16.2" fill="#00ff66" fill-rule="evenodd" stroke="none"/>
      <path d="M94.5 16.2 L93.25 15.95 Q92.2 16.0 91.6 16.6 91.0 17.25 90.95 18.3 91.0 19.35 91.6 19.95 92.25 20.6 93.4 20.55 94.3 20.55 94.85 20.15 L95.0 20.0 Q95.65 19.35 95.6 18.15 95.6 17.15 95.0 16.5 L94.5 16.2 Z" fill="none" stroke="#9c5702" stroke-linecap="round" stroke-linejoin="round" stroke-width="1.5"/>
      <path d="M94.5 16.2 L95.0 16.5 Q95.6 17.15 95.6 18.15 95.65 19.35 95.0 20.0 L94.85 20.15 Q94.3 20.55 93.4 20.55 92.25 20.6 91.6 19.95 91.0 19.35 90.95 18.3 91.0 17.25 91.6 16.6 92.2 16.0 93.25 15.95 L94.5 16.2" fill="#ffff00" fill-rule="evenodd" stroke="none"/>
      <path d="M122.85 16.45 Q122.8 15.45 122.15 14.85 121.5 14.3 120.45 14.35 119.4 14.4 118.75 15.0 118.2 15.65 118.2 16.7 118.25 17.75 118.85 18.35 119.5 19.0 120.65 18.95 121.7 18.9 122.25 18.3 122.9 17.65 122.85 16.45 Z" fill="none" stroke="#00264d" stroke-linecap="round" stroke-linejoin="round" stroke-width="3.0"/>
      <path d="M122.85 16.45 Q122.8 15.45 122.15 14.85 121.5 14.3 120.45 14.35 119.4 14.4 118.75 15.0 118.2 15.65 118.2 16.7 118.25 17.75 118.85 18.35 119.5 19.0 120.65 18.95 121.7 18.9 122.25 18.3 122.9 17.65 122.85 16.45 Z" fill="none" stroke="#014795" stroke-linecap="round" stroke-linejoin="round" stroke-width="1.5"/>
      <path d="M122.85 16.45 Q122.9 17.65 122.25 18.3 121.7 18.9 120.65 18.95 119.5 19.0 118.85 18.35 118.25 17.75 118.2 16.7 118.2 15.65 118.75 15.0 119.4 14.4 120.45 14.35 121.5 14.3 122.15 14.85 122.8 15.45 122.85 16.45" fill="#00ccff" fill-rule="evenodd" stroke="none"/>
    </g>
  </defs>
</svg>
