<?xml version="1.0" encoding="UTF-8" standalone="no"?>
<svg xmlns:ffdec="https://www.free-decompiler.com/flash" xmlns:xlink="http://www.w3.org/1999/xlink" ffdec:objectType="frame" height="48.75px" width="47.3px" xmlns="http://www.w3.org/2000/svg">
  <g transform="matrix(1.0, 0.0, 0.0, 1.0, 12.3, 6.55)">
    <filter id="filter0">
      <feColorMatrix in="SourceGraphic" result="filterResult0" type="matrix" values="0 0 0 0 1.0,0 0 0 0 1.0,0 0 0 0 1.0,0 0 0 1 0"/>
      <feConvolveMatrix divisor="9.0" in="filterResult0" kernelMatrix="1 1 1 1 1 1 1 1 1" order="3 3" result="filterResult1"/>
      <feComposite in="SourceGraphic" in2="filterResult1" operator="over" result="filterResult2"/>
      <feColorMatrix in="filterResult2" result="filterResult3" type="matrix" values="0 0 0 0 0.43529412,0 0 0 0 1.0,0 0 0 0 1.0,0 0 0 1 0"/>
      <feConvolveMatrix divisor="25.0" in="filterResult3" kernelMatrix="1 1 1 1 1 1 1 1 1 1 1 1 1 1 1 1 1 1 1 1 1 1 1 1 1" order="5 5" result="filterResult4"/>
      <feComposite in="filterResult2" in2="filterResult4" operator="over" result="filterResult5"/>
    </filter>
    <use ffdec:characterId="2030" filter="url(#filter0)" height="281.45" transform="matrix(0.1351, 0.0362, -0.0362, 0.1351, -0.5445, -5.1314)" width="256.45" xlink:href="#sprite0"/>
  </g>
  <defs>
    <g id="sprite0" transform="matrix(1.0, 0.0, 0.0, 1.0, 103.25, 145.0)">
      <use ffdec:characterId="2023" height="394.8" transform="matrix(-0.6638, -0.0781, -0.0781, 0.6638, 92.1768, -125.6396)" width="247.95" xlink:href="#shape0"/>
      <use ffdec:characterId="2024" height="39.9" transform="matrix(-1.2592, 0.3319, 0.3319, 1.2592, 47.5457, -119.0197)" width="67.8" xlink:href="#shape1"/>
      <use ffdec:characterId="2025" height="46.55" transform="matrix(-0.7319, 0.1929, 0.1929, 0.7319, 44.5037, -57.9735)" width="29.7" xlink:href="#shape2"/>
      <use ffdec:characterId="2026" height="65.5" transform="matrix(0.6981, 0.0768, -0.0768, 0.6981, 14.3215, -123.9431)" width="67.95" xlink:href="#shape3"/>
      <use ffdec:characterId="2027" height="28.85" transform="matrix(0.6626, 0.0832, -0.0729, 0.6766, 34.5087, -117.6411)" width="28.8" xlink:href="#shape4"/>
      <use ffdec:characterId="2028" height="66.5" transform="matrix(0.6168, -0.3464, 0.3464, 0.6168, 8.9419, -79.6784)" width="87.6" xlink:href="#shape5"/>
      <use ffdec:characterId="2026" height="65.5" transform="matrix(0.7186, -0.2099, 0.2292, 0.7849, -39.7059, -105.549)" width="67.95" xlink:href="#shape6"/>
      <use ffdec:characterId="2027" height="28.85" transform="matrix(0.3857, 0.3329, -0.3117, 0.441, -17.8652, -104.6948)" width="28.8" xlink:href="#shape4"/>
      <use ffdec:characterId="2029" height="165.75" transform="matrix(0.6168, -0.3464, 0.3464, 0.6168, 68.2618, -77.2114)" width="44.6" xlink:href="#shape7"/>
    </g>
    <g id="shape0" transform="matrix(1.0, 0.0, 0.0, 1.0, -3.25, 272.65)">
      <path d="M147.45 77.4 Q147.65 69.5 153.45 65.45 152.3 67.35 147.45 77.4 M199.7 0.55 L199.8 0.35 199.75 0.45 199.7 0.55 M249.85 -91.95 Q250.55 -99.4 249.85 -106.6 248.9 -116.0 247.6 -123.9 243.45 -148.9 235.6 -158.9 239.65 -160.45 248.65 -123.9 L249.0 -122.6 Q252.5 -108.25 249.85 -91.95" fill="#d7d7d7" fill-opacity="0.9411765" fill-rule="evenodd" stroke="none"/>
      <path d="M153.45 65.45 Q153.9 64.65 153.75 65.15 L153.85 65.15 153.45 65.45 M180.6 50.05 Q188.8 40.2 194.05 24.1 192.7 39.3 180.6 50.05 M224.75 -33.65 Q245.5 -65.35 249.85 -91.95 247.15 -64.6 224.75 -33.65" fill="#e6e6e6" fill-opacity="0.9411765" fill-rule="evenodd" stroke="none"/>
      <path d="M128.9 -271.45 Q176.65 -264.95 201.55 -225.85 L202.0 -225.2 203.4 -223.2 204.15 -222.0 Q210.05 -212.4 208.8 -201.15 L208.75 -200.55 Q207.25 -189.0 221.1 -155.05 223.8 -150.75 236.55 -127.6 L238.2 -124.1 Q247.6 -100.85 226.5 -55.4 191.7 -15.05 189.85 -3.2 189.95 7.4 188.2 16.1 183.0 41.75 161.85 51.45 133.5 64.4 141.85 83.7 150.2 102.95 126.75 121.15 130.25 94.05 119.45 87.5 94.65 72.45 104.15 54.65 113.15 37.75 61.05 13.9 L55.2 11.25 Q9.3 -8.8 16.9 -64.75 17.2 -69.05 17.05 -73.4 16.45 -87.5 10.55 -101.85 4.85 -119.7 4.3 -135.25 3.5 -157.6 13.25 -175.15 22.05 -191.05 28.3 -204.3 33.75 -216.0 37.2 -225.65 44.55 -246.35 66.65 -259.35 L68.9 -260.65 Q73.45 -263.15 78.7 -265.0 L79.1 -265.15 107.25 -269.55 Q118.4 -271.4 128.9 -271.45" fill="#d2e9f0" fill-opacity="0.9411765" fill-rule="evenodd" stroke="none"/>
      <path d="M126.75 121.15 Q150.2 102.95 141.85 83.7 133.5 64.4 161.85 51.45 183.0 41.75 188.2 16.1 189.95 7.4 189.85 -3.2 191.7 -15.05 226.5 -55.4 247.6 -100.85 238.2 -124.1 L236.55 -127.6 Q223.8 -150.75 221.1 -155.05 207.25 -189.0 208.75 -200.55 L208.8 -201.15 Q210.05 -212.4 204.15 -222.0 L203.4 -223.2 202.0 -225.2 201.55 -225.85 Q176.65 -264.95 128.9 -271.45 175.95 -271.75 209.8 -236.15 215.4 -231.3 218.9 -222.2 221.95 -214.3 223.4 -203.1 L223.55 -201.95 223.7 -200.9 Q228.5 -166.7 235.6 -158.9 243.45 -148.9 247.6 -123.9 248.9 -116.0 249.85 -106.6 250.55 -99.4 249.85 -91.95 245.5 -65.35 224.75 -33.65 220.0 -27.15 214.4 -20.45 204.85 -10.4 199.8 0.35 L199.7 0.55 Q196.1 8.2 194.8 16.25 194.35 18.9 194.2 21.65 L194.05 24.1 Q188.8 40.2 180.6 50.05 171.9 57.8 157.6 63.25 155.5 64.05 153.85 65.15 L153.75 65.15 Q153.9 64.65 153.45 65.45 147.65 69.5 147.45 77.4 147.35 82.45 149.55 89.15 151.4 110.65 126.75 121.15" fill="#97d3ee" fill-opacity="0.9411765" fill-rule="evenodd" stroke="none"/>
      <path d="M223.4 -203.1 Q221.95 -214.3 218.9 -222.2 216.4 -228.7 205.3 -240.8 168.4 -279.7 107.25 -269.55 93.0 -270.2 78.7 -265.0 73.45 -263.15 68.9 -260.65 L66.65 -259.35 Q44.55 -246.35 37.2 -225.65 33.75 -216.0 28.3 -204.3 22.05 -191.05 13.25 -175.15 3.5 -157.6 4.3 -135.25 4.85 -119.7 10.55 -101.85 16.45 -87.5 17.05 -73.4 17.2 -69.05 16.9 -64.75 9.3 -8.8 55.2 11.25 L61.05 13.9 Q113.15 37.75 104.15 54.65 94.65 72.45 119.45 87.5 130.25 94.05 126.75 121.15 151.4 110.65 149.55 89.15 147.35 82.45 147.45 77.4 147.65 69.5 153.45 65.45 L153.85 65.15 Q155.5 64.05 157.6 63.25 171.9 57.8 180.6 50.05 192.7 39.3 194.05 24.1 L194.2 21.65 Q194.35 18.9 194.8 16.25 196.1 8.2 199.7 0.55 L199.8 0.35 Q204.85 -10.4 214.4 -20.45 220.0 -27.15 224.75 -33.65 247.15 -64.6 249.85 -91.95 250.55 -99.4 249.85 -106.6 248.9 -116.0 247.6 -123.9 243.45 -148.9 235.6 -158.9 228.5 -166.7 223.7 -200.9 L223.55 -201.95 223.4 -203.1 Z" ffdec:has-small-stroke="true" ffdec:original-stroke-width="2.0" fill="none" stroke="#3aa2db" stroke-linecap="round" stroke-linejoin="round" stroke-opacity="0.9411765" stroke-width="10.69622958059634"/>
    </g>
    <g id="shape1" transform="matrix(1.0, 0.0, 0.0, 1.0, -21.25, 51.2)">
      <path d="M22.05 -26.2 L21.75 -27.4 Q20.1 -34.0 23.8 -39.8 27.45 -45.65 34.15 -47.25 40.85 -48.9 46.75 -45.35 49.5 -43.7 51.3 -41.35 L52.75 -39.15 54.0 -41.6 Q58.1 -48.65 65.75 -50.6 73.35 -52.5 80.0 -48.2 83.1 -46.25 85.15 -43.35 87.5 -40.15 88.5 -35.9 90.3 -27.95 86.25 -20.85 82.1 -13.85 74.5 -11.9 66.9 -10.0 60.2 -14.25 54.9 -17.7 52.65 -23.45 L52.25 -22.75 Q48.55 -16.9 41.85 -15.3 35.15 -13.7 29.25 -17.25 23.85 -20.5 22.05 -26.2" fill="#97d3ee" fill-rule="evenodd" stroke="none"/>
    </g>
    <g id="shape2" transform="matrix(1.0, 0.0, 0.0, 1.0, 48.15, 23.0)">
      <path d="M-22.9 -2.35 Q-19.65 0.65 -20.2 3.1 -20.75 5.55 -22.65 7.3 -24.6 8.95 -30.5 8.35 -36.4 7.7 -38.35 4.55 -40.4 1.35 -38.85 -1.25 -37.25 -3.85 -32.8 -5.0 -26.25 -5.4 -22.9 -2.35" fill="#57b0e2" fill-rule="evenodd" stroke="none"/>
      <path d="M-31.15 22.3 Q-32.25 16.7 -37.25 14.9 -42.25 13.1 -45.05 9.15 -47.85 5.2 -46.45 -1.95 -44.95 -9.2 -37.4 -10.95 L-24.7 -13.8 Q-19.65 -14.85 -19.7 -21.75" ffdec:has-small-stroke="true" ffdec:original-stroke-width="2.5" fill="none" stroke="#2492d0" stroke-linecap="round" stroke-linejoin="round" stroke-width="9.44520284429789"/>
    </g>
    <g id="shape3" transform="matrix(1.0, 0.0, 0.0, 1.0, 33.8, 32.8)">
      <path d="M28.6 -15.85 Q35.5 -4.5 31.95 8.2 L31.25 10.4 Q27.35 21.4 16.6 27.4 4.75 33.95 -8.4 30.55 -21.55 27.15 -28.4 15.75 -35.15 4.35 -31.6 -8.25 -29.75 -15.0 -25.5 -20.0 -21.8 -24.45 -16.3 -27.5 -4.5 -34.05 8.65 -30.65 21.8 -27.25 28.6 -15.85" fill="url(#gradient0)" fill-rule="evenodd" stroke="none"/>
      <path d="M28.6 -15.85 Q35.5 -4.5 31.95 8.2 28.4 20.8 16.6 27.4 4.75 33.95 -8.4 30.55 -21.55 27.15 -28.4 15.75 -35.15 4.35 -31.6 -8.25 -28.1 -20.9 -16.3 -27.5 -4.5 -34.05 8.65 -30.65 21.8 -27.25 28.6 -15.85 Z" ffdec:has-small-stroke="true" ffdec:original-stroke-width="2.0" fill="none" stroke="#2492d0" stroke-linecap="round" stroke-linejoin="round" stroke-width="10.179172490757693"/>
    </g>
    <radialGradient cx="0" cy="0" gradientTransform="matrix(0.0453, 0.0, 0.0, 0.0453, 3.3, -0.35)" gradientUnits="userSpaceOnUse" id="gradient0" r="819.2" spreadMethod="pad">
      <stop offset="0.6980392156862745" stop-color="#dae1e6"/>
      <stop offset="0.788235294117647" stop-color="#96bfdc"/>
      <stop offset="0.8549019607843137" stop-color="#60b5ca"/>
    </radialGradient>
    <g id="shape4" transform="matrix(1.0, 0.0, 0.0, 1.0, 14.4, 14.4)">
      <path d="M10.2 -10.15 Q14.4 -5.95 14.4 0.0 14.4 6.0 10.2 10.2 5.95 14.4 0.0 14.45 -6.0 14.4 -10.2 10.2 -14.4 6.0 -14.4 0.0 -14.4 -5.95 -10.2 -10.15 -6.0 -14.4 0.0 -14.4 5.95 -14.4 10.2 -10.15" fill="#66bfe6" fill-rule="evenodd" stroke="none"/>
      <path d="M5.65 -5.1 Q7.8 -2.9 7.85 0.2 7.8 3.3 5.65 5.5 3.45 7.7 0.35 7.7 -2.8 7.7 -4.95 5.5 -7.15 3.3 -7.15 0.2 -7.15 -2.9 -4.95 -5.1 -2.8 -7.3 0.35 -7.25 3.45 -7.3 5.65 -5.1" fill="#326e99" fill-rule="evenodd" stroke="none"/>
      <path d="M9.7 -3.4 Q8.25 -1.95 6.2 -1.95 4.1 -1.95 2.65 -3.4 1.2 -4.85 1.2 -6.9 1.2 -9.0 2.65 -10.45 4.1 -11.9 6.2 -11.9 8.25 -11.9 9.7 -10.45 11.15 -9.0 11.15 -6.9 11.15 -4.85 9.7 -3.4 M-6.2 6.35 Q-6.95 5.6 -6.95 4.55 -6.95 3.5 -6.2 2.8 -5.5 2.05 -4.45 2.05 -3.4 2.05 -2.7 2.8 -1.95 3.5 -1.95 4.55 -1.95 5.6 -2.7 6.35 -3.4 7.05 -4.45 7.05 -5.5 7.05 -6.2 6.35" fill="#e6e6e6" fill-rule="evenodd" stroke="none"/>
    </g>
    <g id="shape5" transform="matrix(1.0, 0.0, 0.0, 1.0, -127.0, -13.0)">
      <path d="M209.95 61.7 L210.0 61.7 209.95 61.7" fill="#c0b9b1" fill-rule="evenodd" stroke="none"/>
      <path d="M213.1 72.05 Q212.15 74.8 208.55 77.5 206.5 79.0 203.55 78.25 201.15 77.65 198.1 75.6 L181.05 58.95 170.1 49.45 158.4 40.05 Q153.75 36.35 149.0 32.8 L128.0 17.45 129.45 15.1 129.95 15.3 Q130.9 15.45 131.2 14.75 140.75 19.4 152.7 27.35 164.65 35.25 174.5 43.5 184.3 51.8 193.7 61.05 199.65 66.95 205.9 69.8 209.45 71.4 213.1 72.05" fill="#97d3ee" fill-rule="evenodd" stroke="none"/>
      <path d="M131.2 14.75 Q131.75 14.35 132.4 14.25 137.2 13.35 141.1 16.0 147.05 19.9 153.15 23.55 159.45 27.3 165.7 31.2 L189.9 46.4 Q193.1 48.45 196.3 50.6 201.15 53.85 208.45 60.35 L209.95 61.7 210.0 61.7 Q215.0 66.65 213.1 72.05 209.45 71.4 205.9 69.8 199.65 66.95 193.7 61.05 184.3 51.8 174.5 43.5 164.65 35.25 152.7 27.35 140.75 19.4 131.2 14.75" fill="#d2e9f0" fill-rule="evenodd" stroke="none"/>
      <path d="M131.2 14.75 Q131.75 14.35 132.4 14.25 137.2 13.35 141.1 16.0 147.05 19.9 153.15 23.55 159.45 27.3 165.7 31.2 L189.9 46.4 Q193.1 48.45 196.3 50.6 201.15 53.85 208.45 60.35 L209.95 61.7 M210.0 61.7 Q215.0 66.65 213.1 72.05 212.15 74.8 208.55 77.5 206.5 79.0 203.55 78.25 201.15 77.65 198.1 75.6 L181.05 58.95 170.1 49.45 158.4 40.05 Q153.75 36.35 149.0 32.8 L128.0 17.45 129.45 15.1 129.95 15.3 Q130.9 15.45 131.2 14.75" ffdec:has-small-stroke="true" ffdec:original-stroke-width="2.0" fill="none" stroke="#3aa2db" stroke-linecap="round" stroke-linejoin="round" stroke-width="10.10528093186208"/>
    </g>
    <g id="shape6" transform="matrix(1.0, 0.0, 0.0, 1.0, 33.8, 32.8)">
      <path d="M28.6 -15.85 Q35.5 -4.5 31.95 8.2 L31.25 10.4 Q27.35 21.4 16.6 27.4 4.75 33.95 -8.4 30.55 -21.55 27.15 -28.4 15.75 -35.15 4.35 -31.6 -8.25 -29.75 -15.0 -25.5 -20.0 -21.8 -24.45 -16.3 -27.5 -4.5 -34.05 8.65 -30.65 21.8 -27.25 28.6 -15.85" fill="url(#gradient1)" fill-rule="evenodd" stroke="none"/>
      <path d="M28.6 -15.85 Q35.5 -4.5 31.95 8.2 28.4 20.8 16.6 27.4 4.75 33.95 -8.4 30.55 -21.55 27.15 -28.4 15.75 -35.15 4.35 -31.6 -8.25 -28.1 -20.9 -16.3 -27.5 -4.5 -34.05 8.65 -30.65 21.8 -27.25 28.6 -15.85 Z" ffdec:has-small-stroke="true" ffdec:original-stroke-width="2.0" fill="none" stroke="#2492d0" stroke-linecap="round" stroke-linejoin="round" stroke-width="9.120371366008753"/>
    </g>
    <radialGradient cx="0" cy="0" gradientTransform="matrix(0.0453, 0.0, 0.0, 0.0453, 3.3, -0.35)" gradientUnits="userSpaceOnUse" id="gradient1" r="819.2" spreadMethod="pad">
      <stop offset="0.6980392156862745" stop-color="#dae1e6"/>
      <stop offset="0.788235294117647" stop-color="#96bfdc"/>
      <stop offset="0.8549019607843137" stop-color="#60b5ca"/>
    </radialGradient>
    <g id="shape7" transform="matrix(1.0, 0.0, 0.0, 1.0, -198.4, -57.1)">
      <path d="M239.15 219.1 L239.0 219.55 Q235.9 221.45 232.3 221.85 L230.85 221.3 Q228.1 219.3 226.3 216.35 223.7 212.2 221.65 207.75 218.8 201.4 217.6 194.6 216.85 190.15 217.0 185.6 L217.45 168.05 Q217.6 159.25 217.1 150.5 216.6 141.8 215.45 133.15 L212.6 115.75 212.4 115.15 212.35 114.55 Q209.65 101.3 205.25 88.75 L202.5 80.25 Q198.95 71.7 199.45 62.8 205.35 81.6 215.2 106.1 217.5 112.05 219.2 120.2 L221.9 135.9 224.45 157.5 225.9 179.9 226.2 197.1 239.15 219.1" fill="#97d3ee" fill-rule="evenodd" stroke="none"/>
      <path d="M199.45 62.8 Q202.25 57.7 205.4 58.1 210.25 61.9 212.6 64.85 217.15 70.55 220.25 77.4 223.15 83.75 225.1 90.55 227.15 97.85 228.6 105.15 L233.8 131.8 239.85 172.55 Q240.95 180.15 241.5 187.8 242.1 195.6 241.95 203.45 241.75 211.5 239.15 219.1 L226.2 197.1 225.9 179.9 224.45 157.5 221.9 135.9 219.2 120.2 Q217.5 112.05 215.2 106.1 205.35 81.6 199.45 62.8" fill="#d2e9f0" fill-rule="evenodd" stroke="none"/>
      <path d="M239.15 219.1 L239.0 219.55 Q235.9 221.45 232.3 221.85 L230.85 221.3 Q228.1 219.3 226.3 216.35 223.7 212.2 221.65 207.75 218.8 201.4 217.6 194.6 216.85 190.15 217.0 185.6 L217.45 168.05 Q217.6 159.25 217.1 150.5 216.6 141.8 215.45 133.15 L212.6 115.75 212.4 115.15 212.35 114.55 Q209.65 101.3 205.25 88.75 L202.5 80.25 Q198.95 71.7 199.45 62.8 M205.4 58.1 Q210.25 61.9 212.6 64.85 217.15 70.55 220.25 77.4 223.15 83.75 225.1 90.55 227.15 97.85 228.6 105.15 L233.8 131.8 239.85 172.55 Q240.95 180.15 241.5 187.8 242.1 195.6 241.95 203.45 241.75 211.5 239.15 219.1" ffdec:has-small-stroke="true" ffdec:original-stroke-width="2.0" fill="none" stroke="#3aa2db" stroke-linecap="round" stroke-linejoin="round" stroke-width="10.10528093186208"/>
    </g>
  </defs>
</svg>
