<?xml version="1.0" encoding="UTF-8" standalone="no"?>
<svg xmlns:ffdec="https://www.free-decompiler.com/flash" xmlns:xlink="http://www.w3.org/1999/xlink" ffdec:objectType="frame" height="48.75px" width="47.3px" xmlns="http://www.w3.org/2000/svg">
  <g transform="matrix(1.0, 0.0, 0.0, 1.0, 12.3, 6.55)">
    <use ffdec:characterId="2042" height="25.5" transform="matrix(1.0, 0.0, 0.0, 1.0, -6.05, 2.3)" width="34.6" xlink:href="#shape0"/>
    <use ffdec:characterId="2044" height="27.8" transform="matrix(0.248, 0.0, 0.0, 0.2571, 19.5268, 17.6764)" width="26.8" xlink:href="#sprite0"/>
    <use ffdec:characterId="2047" height="27.8" transform="matrix(0.2503, 0.0, 0.0, 0.2503, 19.6461, 17.471)" width="26.8" xlink:href="#sprite1"/>
    <use ffdec:characterId="2049" height="17.8" transform="matrix(0.2503, 0.0, 0.0, 0.2784, 9.9851, 5.6721)" width="16.9" xlink:href="#sprite5"/>
    <use ffdec:characterId="2052" height="17.8" transform="matrix(0.2503, 0.0, 0.0, 0.2503, 9.9851, 5.1724)" width="16.9" xlink:href="#sprite6"/>
    <use ffdec:characterId="2054" height="35.1" transform="matrix(0.2509, 0.0, 0.0, 0.261, -5.0277, 12.1692)" width="34.9" xlink:href="#sprite9"/>
    <use ffdec:characterId="2055" height="35.1" transform="matrix(0.2503, 0.0, 0.0, 0.2503, -5.3176, 11.4574)" width="34.9" xlink:href="#sprite10"/>
    <use ffdec:characterId="2056" height="66.5" transform="matrix(-0.0799, -0.0021, -0.0023, 0.0868, 17.0182, 12.7815)" width="68.95" xlink:href="#shape12"/>
    <use ffdec:characterId="2057" height="11.45" transform="matrix(0.1225, 0.0271, -0.0272, 0.1218, 13.8477, 10.9676)" width="28.7" xlink:href="#shape13"/>
    <use ffdec:characterId="2056" height="66.5" transform="matrix(0.0799, -0.0021, 0.0023, 0.0868, 5.6818, 12.7815)" width="68.95" xlink:href="#shape14"/>
    <use ffdec:characterId="2057" height="11.45" transform="matrix(-0.1225, 0.0271, 0.0272, 0.1218, 8.8523, 10.9676)" width="28.7" xlink:href="#shape13"/>
  </g>
  <defs>
    <g id="shape0" transform="matrix(1.0, 0.0, 0.0, 1.0, 6.05, -2.3)">
      <path d="M24.5 19.5 L25.05 19.45 26.3 19.55 Q28.15 19.95 28.5 21.7 28.65 22.75 28.1 23.9 27.5 25.0 26.45 25.9 23.95 28.0 21.45 27.4 L18.7 27.05 17.55 27.5 Q17.1 27.7 16.05 27.5 L14.3 27.25 12.9 27.55 11.6 27.8 10.3 27.5 Q9.4 27.3 8.75 27.5 L6.35 27.4 5.0 27.05 4.3 27.3 3.45 27.5 2.6 27.2 1.6 27.05 0.5 27.15 -0.8 27.2 -2.85 26.95 Q-3.95 26.55 -4.25 25.5 -4.55 24.5 -3.7 23.8 L-2.85 23.3 -4.6 21.7 Q-6.25 19.65 -6.05 17.25 -5.9 14.75 -3.15 14.2 L-0.9 14.15 Q0.15 14.3 0.7 14.6 L0.0 12.8 Q-0.55 10.65 0.45 8.85 1.45 6.95 3.7 7.25 L5.2 7.85 6.1 8.6 Q5.8 7.8 5.95 6.7 6.2 4.55 8.3 3.15 9.55 2.25 11.1 2.3 12.65 2.35 13.85 3.2 15.1 4.05 15.55 5.4 16.05 6.95 15.4 8.75 L16.6 7.7 Q18.1 6.7 19.3 7.35 20.5 8.05 19.55 9.8 L18.8 10.95 18.35 11.45 19.45 11.0 22.3 10.25 Q26.8 9.5 27.65 12.45 28.55 15.45 26.6 17.8 L25.2 19.1 24.5 19.5" fill="url(#gradient0)" fill-rule="evenodd" stroke="none"/>
    </g>
    <linearGradient gradientTransform="matrix(0.0, 0.0096, 0.0096, 0.0, 11.2, 24.0)" gradientUnits="userSpaceOnUse" id="gradient0" spreadMethod="pad" x1="-819.2" x2="819.2">
      <stop offset="0.0" stop-color="#1a3833"/>
      <stop offset="1.0" stop-color="#1a1333"/>
    </linearGradient>
    <g id="sprite0" transform="matrix(1.0, 0.0, 0.0, 1.0, 13.4, 13.9)">
      <use ffdec:characterId="2043" height="27.8" transform="matrix(1.0, 0.0, 0.0, 1.0, -13.4, -13.9)" width="26.8" xlink:href="#shape1"/>
    </g>
    <g id="shape1" transform="matrix(1.0, 0.0, 0.0, 1.0, 13.4, 13.9)">
      <path d="M-9.6 -6.05 Q-6.1 -6.4 -3.4 -4.15 -3.95 -5.4 -4.2 -7.05 -4.6 -10.35 -2.9 -12.4 -1.9 -13.6 -0.1 -13.85 1.7 -14.05 3.15 -13.25 6.85 -11.1 4.1 -5.65 L6.9 -7.2 Q10.05 -8.35 12.1 -6.15 14.45 -3.65 12.5 -1.35 10.7 0.85 7.1 0.85 L9.75 2.2 Q12.3 4.15 11.85 7.1 11.3 10.5 7.8 10.05 4.45 9.6 2.85 6.6 L2.65 9.55 Q1.8 12.65 -1.15 13.6 -4.95 14.8 -6.35 11.25 -7.8 7.5 -3.9 3.6 L-8.55 3.45 Q-13.25 2.5 -13.4 -1.4 -13.55 -5.65 -9.6 -6.05" fill="#1a1116" fill-rule="evenodd" stroke="none"/>
    </g>
    <g id="sprite1" transform="matrix(1.0, 0.0, 0.0, 1.0, 13.4, 13.9)">
      <use ffdec:characterId="2044" height="27.8" transform="matrix(1.0, 0.0, 0.0, 1.0, -13.4, -13.9)" width="26.8" xlink:href="#sprite2"/>
      <use ffdec:characterId="2046" height="7.6" transform="matrix(1.0, 0.0, 0.0, 1.0, -2.4, -3.1)" width="7.4" xlink:href="#sprite3"/>
      <use ffdec:characterId="2046" height="7.6" transform="matrix(0.4005, 0.0, 0.0, 0.4005, -0.1318, -1.8218)" width="7.4" xlink:href="#sprite4"/>
    </g>
    <g id="sprite2" transform="matrix(1.0, 0.0, 0.0, 1.0, 13.4, 13.9)">
      <use ffdec:characterId="2043" height="27.8" transform="matrix(1.0, 0.0, 0.0, 1.0, -13.4, -13.9)" width="26.8" xlink:href="#shape2"/>
    </g>
    <g id="shape2" transform="matrix(1.0, 0.0, 0.0, 1.0, 13.4, 13.9)">
      <path d="M-9.6 -6.05 Q-6.1 -6.4 -3.4 -4.15 -3.95 -5.4 -4.2 -7.05 -4.6 -10.35 -2.9 -12.4 -1.9 -13.6 -0.1 -13.85 1.7 -14.05 3.15 -13.25 6.85 -11.1 4.1 -5.65 L6.9 -7.2 Q10.05 -8.35 12.1 -6.15 14.45 -3.65 12.5 -1.35 10.7 0.85 7.1 0.85 L9.75 2.2 Q12.3 4.15 11.85 7.1 11.3 10.5 7.8 10.05 4.45 9.6 2.85 6.6 L2.65 9.55 Q1.8 12.65 -1.15 13.6 -4.95 14.8 -6.35 11.25 -7.8 7.5 -3.9 3.6 L-8.55 3.45 Q-13.25 2.5 -13.4 -1.4 -13.55 -5.65 -9.6 -6.05" fill="#ffffff" fill-rule="evenodd" stroke="none"/>
    </g>
    <g id="sprite3" transform="matrix(1.0, 0.0, 0.0, 1.0, 3.7, 3.8)">
      <use ffdec:characterId="2045" height="7.6" transform="matrix(1.0, 0.0, 0.0, 1.0, -3.7, -3.8)" width="7.4" xlink:href="#shape3"/>
    </g>
    <g id="shape3" transform="matrix(1.0, 0.0, 0.0, 1.0, 3.7, 3.8)">
      <path d="M-1.65 3.15 Q-4.6 0.75 -3.3 -1.8 -2.55 -3.3 -1.15 -3.7 0.2 -4.1 1.7 -3.15 3.2 -2.1 3.6 -0.8 4.0 0.6 3.0 1.85 0.6 4.9 -1.65 3.15" fill="#ff4f00" fill-rule="evenodd" stroke="none"/>
    </g>
    <g id="sprite4" transform="matrix(1.0, 0.0, 0.0, 1.0, 3.7, 3.8)">
      <use ffdec:characterId="2045" height="7.6" transform="matrix(1.0, 0.0, 0.0, 1.0, -3.7, -3.8)" width="7.4" xlink:href="#shape4"/>
    </g>
    <g id="shape4" transform="matrix(1.0, 0.0, 0.0, 1.0, 3.7, 3.8)">
      <path d="M-1.65 3.15 Q-4.6 0.75 -3.3 -1.8 -2.55 -3.3 -1.15 -3.7 0.2 -4.1 1.7 -3.15 3.2 -2.1 3.6 -0.8 4.0 0.6 3.0 1.85 0.6 4.9 -1.65 3.15" fill="#ff9000" fill-rule="evenodd" stroke="none"/>
    </g>
    <g id="sprite5" transform="matrix(1.0, 0.0, 0.0, 1.0, 8.45, 8.9)">
      <use ffdec:characterId="2048" height="17.8" transform="matrix(1.0, 0.0, 0.0, 1.0, -8.45, -8.9)" width="16.9" xlink:href="#shape5"/>
    </g>
    <g id="shape5" transform="matrix(1.0, 0.0, 0.0, 1.0, 8.45, 8.9)">
      <path d="M-7.6 3.7 Q-8.95 2.6 -8.2 0.9 -7.55 -0.55 -5.3 -1.1 L-3.2 -1.4 -4.85 -3.4 Q-6.25 -5.05 -5.25 -7.0 -4.15 -9.1 -1.35 -8.9 1.55 -8.7 1.9 -6.05 2.05 -4.7 1.65 -3.4 L3.85 -5.35 Q6.4 -6.75 8.05 -4.0 9.3 -1.95 6.6 -0.45 L3.65 0.6 6.65 1.5 Q9.3 2.9 7.65 5.4 6.0 7.9 3.35 6.3 L1.0 4.15 0.95 6.4 Q0.45 8.7 -1.85 8.9 -4.15 9.1 -4.55 6.7 L-4.5 4.25 Q-6.35 4.75 -7.6 3.7" fill="#1a1d22" fill-rule="evenodd" stroke="none"/>
    </g>
    <g id="sprite6" transform="matrix(1.0, 0.0, 0.0, 1.0, 8.45, 8.9)">
      <use ffdec:characterId="2049" height="17.8" transform="matrix(1.0, 0.0, 0.0, 1.0, -8.45, -8.9)" width="16.9" xlink:href="#sprite7"/>
      <use ffdec:characterId="2051" height="9.45" transform="matrix(0.4189, 0.0, 0.0, 0.4189, -1.9558, -1.2186)" width="9.05" xlink:href="#sprite8"/>
    </g>
    <g id="sprite7" transform="matrix(1.0, 0.0, 0.0, 1.0, 8.45, 8.9)">
      <use ffdec:characterId="2048" height="17.8" transform="matrix(1.0, 0.0, 0.0, 1.0, -8.45, -8.9)" width="16.9" xlink:href="#shape6"/>
    </g>
    <g id="shape6" transform="matrix(1.0, 0.0, 0.0, 1.0, 8.45, 8.9)">
      <path d="M-7.6 3.7 Q-8.95 2.6 -8.2 0.9 -7.55 -0.55 -5.3 -1.1 L-3.2 -1.4 -4.85 -3.4 Q-6.25 -5.05 -5.25 -7.0 -4.15 -9.1 -1.35 -8.9 1.55 -8.7 1.9 -6.05 2.05 -4.7 1.65 -3.4 L3.85 -5.35 Q6.4 -6.75 8.05 -4.0 9.3 -1.95 6.6 -0.45 L3.65 0.6 6.65 1.5 Q9.3 2.9 7.65 5.4 6.0 7.9 3.35 6.3 L1.0 4.15 0.95 6.4 Q0.45 8.7 -1.85 8.9 -4.15 9.1 -4.55 6.7 L-4.5 4.25 Q-6.35 4.75 -7.6 3.7" fill="#51cfc2" fill-rule="evenodd" stroke="none"/>
    </g>
    <g id="sprite8" transform="matrix(1.0, 0.0, 0.0, 1.0, 4.55, 4.7)">
      <use ffdec:characterId="2050" height="9.45" transform="matrix(1.0, 0.0, 0.0, 1.0, -4.55, -4.7)" width="9.05" xlink:href="#shape7"/>
    </g>
    <g id="shape7" transform="matrix(1.0, 0.0, 0.0, 1.0, 4.55, 4.7)">
      <path d="M2.65 3.95 Q0.7 5.05 -1.4 4.6 -3.85 4.0 -4.35 1.45 -4.95 -1.45 -3.5 -3.25 -2.0 -5.1 0.9 -4.55 3.85 -4.0 4.4 -0.65 4.95 2.6 2.65 3.95" fill="#ffffff" fill-rule="evenodd" stroke="none"/>
    </g>
    <g id="sprite9" transform="matrix(1.0, 0.0, 0.0, 1.0, 17.45, 17.55)">
      <use ffdec:characterId="2053" height="35.1" transform="matrix(1.0, 0.0, 0.0, 1.0, -17.45, -17.55)" width="34.9" xlink:href="#shape8"/>
    </g>
    <g id="shape8" transform="matrix(1.0, 0.0, 0.0, 1.0, 17.45, 17.55)">
      <path d="M0.05 -8.6 Q0.8 -15.45 5.45 -16.45 7.35 -16.9 8.85 -15.8 10.45 -14.6 10.8 -12.25 11.45 -8.2 9.05 -5.45 7.85 -4.05 6.55 -3.5 13.35 -6.1 16.4 -1.7 17.6 0.1 17.4 2.2 17.2 4.35 15.55 5.75 12.75 8.1 9.1 7.4 L6.05 6.25 Q10.05 9.3 8.15 13.9 6.2 18.55 1.05 17.25 -3.3 16.15 -4.55 11.7 L-4.95 7.5 Q-8.25 15.0 -13.6 12.8 -15.7 11.95 -16.8 9.75 -17.9 7.45 -17.2 5.0 -15.95 0.8 -12.05 -1.3 L-8.45 -2.5 Q-13.2 -6.3 -12.5 -12.15 -11.8 -18.05 -6.45 -17.5 -1.9 -17.05 -0.5 -12.7 0.25 -10.6 0.05 -8.6" fill="#1a1d22" fill-rule="evenodd" stroke="none"/>
    </g>
    <g id="sprite10" transform="matrix(1.0, 0.0, 0.0, 1.0, 17.45, 17.55)">
      <use ffdec:characterId="2054" height="35.1" transform="matrix(1.0, 0.0, 0.0, 1.0, -17.45, -17.55)" width="34.9" xlink:href="#sprite11"/>
      <use ffdec:characterId="2051" height="9.45" transform="matrix(1.0, 0.0, 0.0, 1.0, -5.15, -5.15)" width="9.05" xlink:href="#sprite12"/>
      <use ffdec:characterId="2051" height="9.45" transform="matrix(0.544, 0.0, 0.0, 0.3778, -3.325, -3.9256)" width="9.05" xlink:href="#sprite13"/>
    </g>
    <g id="sprite11" transform="matrix(1.0, 0.0, 0.0, 1.0, 17.45, 17.55)">
      <use ffdec:characterId="2053" height="35.1" transform="matrix(1.0, 0.0, 0.0, 1.0, -17.45, -17.55)" width="34.9" xlink:href="#shape9"/>
    </g>
    <g id="shape9" transform="matrix(1.0, 0.0, 0.0, 1.0, 17.45, 17.55)">
      <path d="M0.05 -8.6 Q0.8 -15.45 5.45 -16.45 7.35 -16.9 8.85 -15.8 10.45 -14.6 10.8 -12.25 11.45 -8.2 9.05 -5.45 7.85 -4.05 6.55 -3.5 13.35 -6.1 16.4 -1.7 17.6 0.1 17.4 2.2 17.2 4.35 15.55 5.75 12.75 8.1 9.1 7.4 L6.05 6.25 Q10.05 9.3 8.15 13.9 6.2 18.55 1.05 17.25 -3.3 16.15 -4.55 11.7 L-4.95 7.5 Q-8.25 15.0 -13.6 12.8 -15.7 11.95 -16.8 9.75 -17.9 7.45 -17.2 5.0 -15.95 0.8 -12.05 -1.3 L-8.45 -2.5 Q-13.2 -6.3 -12.5 -12.15 -11.8 -18.05 -6.45 -17.5 -1.9 -17.05 -0.5 -12.7 0.25 -10.6 0.05 -8.6" fill="#ffdb2e" fill-rule="evenodd" stroke="none"/>
    </g>
    <g id="sprite12" transform="matrix(1.0, 0.0, 0.0, 1.0, 4.55, 4.7)">
      <use ffdec:characterId="2050" height="9.45" transform="matrix(1.0, 0.0, 0.0, 1.0, -4.55, -4.7)" width="9.05" xlink:href="#shape10"/>
    </g>
    <g id="shape10" transform="matrix(1.0, 0.0, 0.0, 1.0, 4.55, 4.7)">
      <path d="M2.65 3.95 Q0.7 5.05 -1.4 4.6 -3.85 4.0 -4.35 1.45 -4.95 -1.45 -3.5 -3.25 -2.0 -5.1 0.9 -4.55 3.85 -4.0 4.4 -0.65 4.95 2.6 2.65 3.95" fill="#ed6a2e" fill-rule="evenodd" stroke="none"/>
    </g>
    <g id="sprite13" transform="matrix(1.0, 0.0, 0.0, 1.0, 4.55, 4.7)">
      <use ffdec:characterId="2050" height="9.45" transform="matrix(1.0, 0.0, 0.0, 1.0, -4.55, -4.7)" width="9.05" xlink:href="#shape11"/>
    </g>
    <g id="shape11" transform="matrix(1.0, 0.0, 0.0, 1.0, 4.55, 4.7)">
      <path d="M2.65 3.95 Q0.7 5.05 -1.4 4.6 -3.85 4.0 -4.35 1.45 -4.95 -1.45 -3.5 -3.25 -2.0 -5.1 0.9 -4.55 3.85 -4.0 4.4 -0.65 4.95 2.6 2.65 3.95" fill="#f8812d" fill-rule="evenodd" stroke="none"/>
    </g>
    <g id="shape12" transform="matrix(1.0, 0.0, 0.0, 1.0, 34.3, 33.3)">
      <path d="M-25.5 -20.0 Q-21.8 -24.45 -16.3 -27.5 -4.5 -34.05 8.65 -30.65 21.8 -27.25 28.6 -15.85 35.5 -4.5 31.95 8.2 L31.25 10.4 Q27.55 14.8 22.0 17.85 10.15 24.45 -3.0 21.05 -16.15 17.65 -22.95 6.25 -29.75 -5.15 -26.2 -17.75 L-25.5 -20.0" fill="#e6e6e6" fill-rule="evenodd" stroke="none"/>
      <path d="M31.25 10.4 Q27.35 21.4 16.6 27.4 4.75 33.95 -8.4 30.55 -21.55 27.15 -28.4 15.75 -35.15 4.35 -31.6 -8.25 -29.75 -15.0 -25.5 -20.0 L-26.2 -17.75 Q-29.75 -5.15 -22.95 6.25 -16.15 17.65 -3.0 21.05 10.15 24.45 22.0 17.85 27.55 14.8 31.25 10.4" fill="#c0c0c0" fill-rule="evenodd" stroke="none"/>
      <path d="M28.6 -15.85 Q35.5 -4.5 31.95 8.2 28.4 20.8 16.6 27.4 4.75 33.95 -8.4 30.55 -21.55 27.15 -28.4 15.75 -35.15 4.35 -31.6 -8.25 -28.1 -20.9 -16.3 -27.5 -4.5 -34.05 8.65 -30.65 21.8 -27.25 28.6 -15.85 Z" ffdec:has-small-stroke="true" ffdec:original-stroke-width="3.0" fill="none" stroke="#191919" stroke-linecap="round" stroke-linejoin="round" stroke-width="11.979673834480932"/>
      <path d="M10.2 -10.15 Q14.4 -5.95 14.4 0.0 14.4 6.0 10.2 10.2 5.95 14.4 0.0 14.45 -6.0 14.4 -10.2 10.2 -14.4 6.0 -14.4 0.0 -14.4 -5.95 -10.2 -10.15 -6.0 -14.4 0.0 -14.4 5.95 -14.4 10.2 -10.15" fill="#666666" fill-rule="evenodd" stroke="none"/>
      <path d="M5.65 -5.1 Q7.8 -2.9 7.85 0.2 7.8 3.3 5.65 5.5 3.45 7.7 0.35 7.7 -2.8 7.7 -4.95 5.5 -7.15 3.3 -7.15 0.2 -7.15 -2.9 -4.95 -5.1 -2.8 -7.3 0.35 -7.25 3.45 -7.3 5.65 -5.1" fill="#000000" fill-rule="evenodd" stroke="none"/>
      <path d="M2.65 -3.4 Q1.2 -4.85 1.2 -6.9 1.2 -9.0 2.65 -10.45 4.1 -11.9 6.2 -11.9 8.25 -11.9 9.7 -10.45 11.15 -9.0 11.15 -6.9 11.15 -4.85 9.7 -3.4 8.25 -1.95 6.2 -1.95 4.1 -1.95 2.65 -3.4 M-6.95 4.55 Q-6.95 3.5 -6.2 2.8 -5.5 2.05 -4.45 2.05 -3.4 2.05 -2.7 2.8 -1.95 3.5 -1.95 4.55 -1.95 5.6 -2.7 6.35 -3.4 7.05 -4.45 7.05 -5.5 7.05 -6.2 6.35 -6.95 5.6 -6.95 4.55" fill="#e6e6e6" fill-opacity="0.69803923" fill-rule="evenodd" stroke="none"/>
    </g>
    <g id="shape13" transform="matrix(1.0, 0.0, 0.0, 1.0, 14.35, 5.7)">
      <path d="M9.75 -1.0 L12.3 1.6 Q13.65 3.15 14.35 5.75 13.95 5.0 12.2 3.8 6.35 -0.3 -0.75 -0.9 -7.9 -1.55 -12.9 -0.1 -14.25 -0.7 -14.35 -1.9 -14.5 -3.1 -13.7 -4.3 -11.05 -5.35 -5.7 -5.65 -0.35 -5.95 4.1 -3.95 8.5 -2.05 9.75 -1.0" fill="#180c0d" fill-rule="evenodd" stroke="none"/>
    </g>
    <g id="shape14" transform="matrix(1.0, 0.0, 0.0, 1.0, 34.3, 33.3)">
      <path d="M-25.5 -20.0 Q-21.8 -24.45 -16.3 -27.5 -4.5 -34.05 8.65 -30.65 21.8 -27.25 28.6 -15.85 35.5 -4.5 31.95 8.2 L31.25 10.4 Q27.55 14.8 22.0 17.85 10.15 24.45 -3.0 21.05 -16.15 17.65 -22.95 6.25 -29.75 -5.15 -26.2 -17.75 L-25.5 -20.0" fill="#e6e6e6" fill-rule="evenodd" stroke="none"/>
      <path d="M31.25 10.4 Q27.35 21.4 16.6 27.4 4.75 33.95 -8.4 30.55 -21.55 27.15 -28.4 15.75 -35.15 4.35 -31.6 -8.25 -29.75 -15.0 -25.5 -20.0 L-26.2 -17.75 Q-29.75 -5.15 -22.95 6.25 -16.15 17.65 -3.0 21.05 10.15 24.45 22.0 17.85 27.55 14.8 31.25 10.4" fill="#c0c0c0" fill-rule="evenodd" stroke="none"/>
      <path d="M28.6 -15.85 Q35.5 -4.5 31.95 8.2 28.4 20.8 16.6 27.4 4.75 33.95 -8.4 30.55 -21.55 27.15 -28.4 15.75 -35.15 4.35 -31.6 -8.25 -28.1 -20.9 -16.3 -27.5 -4.5 -34.05 8.65 -30.65 21.8 -27.25 28.6 -15.85 Z" ffdec:has-small-stroke="true" ffdec:original-stroke-width="3.0" fill="none" stroke="#191919" stroke-linecap="round" stroke-linejoin="round" stroke-width="11.979673834480932"/>
      <path d="M10.2 -10.15 Q14.4 -5.95 14.4 0.0 14.4 6.0 10.2 10.2 5.95 14.4 0.0 14.45 -6.0 14.4 -10.2 10.2 -14.4 6.0 -14.4 0.0 -14.4 -5.95 -10.2 -10.15 -6.0 -14.4 0.0 -14.4 5.95 -14.4 10.2 -10.15" fill="#666666" fill-rule="evenodd" stroke="none"/>
      <path d="M5.65 -5.1 Q7.8 -2.9 7.85 0.2 7.8 3.3 5.65 5.5 3.45 7.7 0.35 7.7 -2.8 7.7 -4.95 5.5 -7.15 3.3 -7.15 0.2 -7.15 -2.9 -4.95 -5.1 -2.8 -7.3 0.35 -7.25 3.45 -7.3 5.65 -5.1" fill="#000000" fill-rule="evenodd" stroke="none"/>
      <path d="M2.65 -3.4 Q1.2 -4.85 1.2 -6.9 1.2 -9.0 2.65 -10.45 4.1 -11.9 6.2 -11.9 8.25 -11.9 9.7 -10.45 11.15 -9.0 11.15 -6.9 11.15 -4.85 9.7 -3.4 8.25 -1.95 6.2 -1.95 4.1 -1.95 2.65 -3.4 M-6.95 4.55 Q-6.95 3.5 -6.2 2.8 -5.5 2.05 -4.45 2.05 -3.4 2.05 -2.7 2.8 -1.95 3.5 -1.95 4.55 -1.95 5.6 -2.7 6.35 -3.4 7.05 -4.45 7.05 -5.5 7.05 -6.2 6.35 -6.95 5.6 -6.95 4.55" fill="#e6e6e6" fill-opacity="0.69803923" fill-rule="evenodd" stroke="none"/>
    </g>
  </defs>
</svg>
