<?xml version="1.0" encoding="UTF-8" standalone="no"?>
<svg xmlns:ffdec="https://www.free-decompiler.com/flash" xmlns:xlink="http://www.w3.org/1999/xlink" ffdec:objectType="frame" height="48.75px" width="47.3px" xmlns="http://www.w3.org/2000/svg">
  <g transform="matrix(1.0, 0.0, 0.0, 1.0, 12.3, 6.55)">
    <filter id="filter0">
      <feColorMatrix in="SourceGraphic" result="filterResult0" type="matrix" values="0 0 0 0 1.0,0 0 0 0 1.0,0 0 0 0 1.0,0 0 0 1 0"/>
      <feConvolveMatrix divisor="4.0" in="filterResult0" kernelMatrix="1 1 1 1" order="2 2" result="filterResult1"/>
      <feComposite in="SourceGraphic" in2="filterResult1" operator="over" result="filterResult2"/>
    </filter>
    <use ffdec:characterId="2088" filter="url(#filter0)" height="96.75" transform="matrix(0.2639, 0.0, 0.0, 0.2639, -6.667, 3.8453)" width="141.75" xlink:href="#sprite0"/>
  </g>
  <defs>
    <g id="sprite0" transform="matrix(1.0, 0.0, 0.0, 1.0, 20.15, 10.25)">
      <use ffdec:characterId="2076" height="58.05" transform="matrix(1.0, 0.0, 0.0, 1.0, -20.15, 10.85)" width="141.75" xlink:href="#shape0"/>
      <use ffdec:characterId="2078" height="14.75" transform="matrix(1.0, 0.0, 0.0, 1.0, 38.4, 71.75)" width="11.45" xlink:href="#sprite1"/>
      <use ffdec:characterId="2078" height="14.75" transform="matrix(-1.0, 0.0, 0.0, 1.0, 66.2, 71.75)" width="11.45" xlink:href="#sprite2"/>
      <use ffdec:characterId="2080" height="42.05" transform="matrix(1.0266, 0.0, 0.0, 0.927, 28.8867, 39.9536)" width="45.2" xlink:href="#sprite3"/>
      <use ffdec:characterId="2087" height="70.3" transform="matrix(1.1238, 0.0, 0.0, 1.1238, 15.2381, -10.2619)" width="65.6" xlink:href="#sprite4"/>
    </g>
    <g id="shape0" transform="matrix(1.0, 0.0, 0.0, 1.0, 20.15, -10.85)">
      <path d="M121.1 40.35 Q111.8 24.45 103.7 50.95 107.85 19.6 87.95 18.6 108.1 4.4 117.65 28.85 119.55 33.8 121.1 40.35" fill="url(#gradient0)" fill-rule="evenodd" stroke="none"/>
      <path d="M85.7 18.5 Q87.1 15.05 88.5 14.0 L88.05 16.5 Q111.35 1.7 118.95 29.55 120.25 34.3 121.1 40.35 119.55 33.8 117.65 28.85 108.1 4.4 87.95 18.6 83.5 23.45 80.05 35.1 L79.85 35.25 Q73.0 39.9 65.75 52.4 L65.6 52.35 Q66.2 47.5 67.6 42.3 74.65 35.95 79.8 28.65 83.15 23.8 85.7 18.5" fill="url(#gradient1)" fill-rule="evenodd" stroke="none"/>
      <path d="M103.7 50.95 Q100.0 34.25 88.5 59.25 93.15 39.65 87.95 18.6 107.85 19.6 103.7 50.95" fill="url(#gradient2)" fill-rule="evenodd" stroke="none"/>
      <path d="M88.5 59.25 Q78.15 50.25 75.65 63.35 75.5 63.3 75.55 63.7 72.05 52.95 65.75 52.4 73.0 39.9 79.85 35.25 L80.05 35.1 Q83.5 23.45 87.95 18.6 93.15 39.65 88.5 59.25" fill="url(#gradient3)" fill-rule="evenodd" stroke="none"/>
      <path d="M75.55 63.7 Q69.55 61.15 65.9 68.4 64.5 61.15 65.5 52.8 L65.75 52.4 Q72.05 52.95 75.55 63.7" fill="url(#gradient4)" fill-rule="evenodd" stroke="none"/>
      <path d="M-16.1 28.85 Q-18.05 33.8 -19.65 40.35 -18.75 34.3 -17.45 29.55 -9.55 1.7 14.75 16.5 L14.2 14.0 Q15.75 15.05 17.15 18.5 19.8 23.8 23.3 28.65 28.65 35.95 36.0 42.3 37.45 47.5 38.1 52.35 L37.9 52.4 Q30.35 39.9 23.25 35.25 L23.0 35.1 Q19.45 23.45 14.8 18.6 -6.15 4.4 -16.1 28.85" fill="url(#gradient5)" fill-rule="evenodd" stroke="none"/>
      <path d="M14.8 18.6 Q19.45 23.45 23.0 35.1 L23.25 35.25 Q30.35 39.9 37.9 52.4 31.35 52.95 27.7 63.7 27.75 63.3 27.6 63.35 25.05 50.25 14.25 59.25 9.4 39.65 14.8 18.6" fill="url(#gradient6)" fill-rule="evenodd" stroke="none"/>
      <path d="M38.15 52.8 Q39.2 61.15 37.75 68.4 33.95 61.15 27.7 63.7 31.35 52.95 37.9 52.4 L38.15 52.8" fill="url(#gradient7)" fill-rule="evenodd" stroke="none"/>
      <path d="M14.25 59.25 Q2.25 34.25 -1.55 50.95 -5.9 19.6 14.8 18.6 9.4 39.65 14.25 59.25" fill="url(#gradient8)" fill-rule="evenodd" stroke="none"/>
      <path d="M-16.1 28.85 Q-6.15 4.4 14.8 18.6 -5.9 19.6 -1.55 50.95 -10.0 24.45 -19.65 40.35 L-16.1 28.85" fill="url(#gradient9)" fill-rule="evenodd" stroke="none"/>
      <path d="M85.7 18.5 Q87.1 15.05 88.5 14.0 L88.05 16.5 Q111.35 1.7 118.95 29.55 120.25 34.3 121.1 40.35 111.8 24.45 103.7 50.95 100.0 34.25 88.5 59.25 78.15 50.25 75.65 63.35 75.5 63.3 75.55 63.7 69.55 61.15 65.9 68.4 64.5 61.15 65.5 52.8 L65.6 52.35 65.75 52.4 Q72.05 52.95 75.55 63.7 M121.1 40.35 Q119.55 33.8 117.65 28.85 108.1 4.4 87.95 18.6 107.85 19.6 103.7 50.95 M88.5 59.25 Q93.15 39.65 87.95 18.6 M17.15 18.5 Q15.75 15.05 14.2 14.0 L14.75 16.5 Q-9.55 1.7 -17.45 29.55 -18.75 34.3 -19.65 40.35 -18.05 33.8 -16.1 28.85 -6.15 4.4 14.8 18.6 -5.9 19.6 -1.55 50.95 -10.0 24.45 -19.65 40.35 L-16.1 28.85 M37.9 52.4 L38.1 52.35 38.15 52.8 Q39.2 61.15 37.75 68.4 33.95 61.15 27.7 63.7 31.35 52.95 37.9 52.4 L38.15 52.8 M27.7 63.7 Q27.75 63.3 27.6 63.35 25.05 50.25 14.25 59.25 2.25 34.25 -1.55 50.95 M65.5 52.8 L65.75 52.4 M14.25 59.25 Q9.4 39.65 14.8 18.6" ffdec:has-small-stroke="true" ffdec:original-stroke-width="1.0" fill="none" stroke="#552870" stroke-linecap="round" stroke-linejoin="round" stroke-width="3.789741513907362"/>
      <path d="M65.6 52.35 Q66.2 47.5 67.6 42.3 74.65 35.95 79.8 28.65 83.15 23.8 85.7 18.5 M87.95 18.6 Q83.5 23.45 80.05 35.1 L79.85 35.25 Q73.0 39.9 65.75 52.4" ffdec:has-small-stroke="true" ffdec:original-stroke-width="1.0" fill="none" stroke="url(#gradient10)" stroke-linecap="round" stroke-linejoin="round" stroke-width="3.789741513907362"/>
      <path d="M14.8 18.6 Q19.45 23.45 23.0 35.1 L23.25 35.25 Q30.35 39.9 37.9 52.4 M38.1 52.35 Q37.45 47.5 36.0 42.3 28.65 35.95 23.3 28.65 19.8 23.8 17.15 18.5" ffdec:has-small-stroke="true" ffdec:original-stroke-width="1.0" fill="none" stroke="url(#gradient11)" stroke-linecap="round" stroke-linejoin="round" stroke-width="3.789741513907362"/>
    </g>
    <radialGradient cx="0" cy="0" fx="3.2" fy="0" gradientTransform="matrix(0.0188, 0.0, 0.0, 0.0122, 103.15, 14.8)" gradientUnits="userSpaceOnUse" id="gradient0" r="819.2" spreadMethod="pad">
      <stop offset="0.15294117647058825" stop-color="#713b7b"/>
      <stop offset="0.8549019607843137" stop-color="#020019"/>
    </radialGradient>
    <linearGradient gradientTransform="matrix(0.0118, -0.0097, 0.3524, 0.866, 72.0, 15.2)" gradientUnits="userSpaceOnUse" id="gradient1" spreadMethod="pad" x1="-819.2" x2="819.2">
      <stop offset="0.15294117647058825" stop-color="#677f5c"/>
      <stop offset="0.8549019607843137" stop-color="#713b7b"/>
    </linearGradient>
    <radialGradient cx="0" cy="0" fx="3.2" fy="0" gradientTransform="matrix(0.0171, 0.0, 0.0, 0.0242, 95.75, 31.5)" gradientUnits="userSpaceOnUse" id="gradient2" r="819.2" spreadMethod="pad">
      <stop offset="0.15294117647058825" stop-color="#713b7b"/>
      <stop offset="0.8549019607843137" stop-color="#020019"/>
    </radialGradient>
    <radialGradient cx="0" cy="0" fx="3.2" fy="0" gradientTransform="matrix(0.0194, -0.0208, 0.0147, 0.0275, 81.15, 42.3)" gradientUnits="userSpaceOnUse" id="gradient3" r="819.2" spreadMethod="pad">
      <stop offset="0.15294117647058825" stop-color="#713b7b"/>
      <stop offset="0.8549019607843137" stop-color="#020019"/>
    </radialGradient>
    <radialGradient cx="0" cy="0" fx="3.2" fy="0" gradientTransform="matrix(0.0088, 0.0, 0.0, 0.0125, 69.25, 59.7)" gradientUnits="userSpaceOnUse" id="gradient4" r="819.2" spreadMethod="pad">
      <stop offset="0.15294117647058825" stop-color="#713b7b"/>
      <stop offset="0.8549019607843137" stop-color="#020019"/>
    </radialGradient>
    <linearGradient gradientTransform="matrix(-0.0123, -0.0097, -0.3666, 0.866, 31.4, 15.2)" gradientUnits="userSpaceOnUse" id="gradient5" spreadMethod="pad" x1="-819.2" x2="819.2">
      <stop offset="0.15294117647058825" stop-color="#677f5c"/>
      <stop offset="0.8549019607843137" stop-color="#713b7b"/>
    </linearGradient>
    <radialGradient cx="0" cy="0" fx="3.2" fy="0" gradientTransform="matrix(-0.0202, -0.0208, -0.0153, 0.0275, 21.9, 42.3)" gradientUnits="userSpaceOnUse" id="gradient6" r="819.2" spreadMethod="pad">
      <stop offset="0.15294117647058825" stop-color="#713b7b"/>
      <stop offset="0.8549019607843137" stop-color="#020019"/>
    </radialGradient>
    <radialGradient cx="0" cy="0" fx="3.2" fy="0" gradientTransform="matrix(-0.0092, 0.0, 0.0, 0.0125, 34.25, 59.7)" gradientUnits="userSpaceOnUse" id="gradient7" r="819.2" spreadMethod="pad">
      <stop offset="0.15294117647058825" stop-color="#713b7b"/>
      <stop offset="0.8549019607843137" stop-color="#020019"/>
    </radialGradient>
    <radialGradient cx="0" cy="0" fx="3.2" fy="0" gradientTransform="matrix(-0.0178, 0.0, 0.0, 0.0242, 6.7, 31.5)" gradientUnits="userSpaceOnUse" id="gradient8" r="819.2" spreadMethod="pad">
      <stop offset="0.15294117647058825" stop-color="#713b7b"/>
      <stop offset="0.8549019607843137" stop-color="#020019"/>
    </radialGradient>
    <radialGradient cx="0" cy="0" fx="3.2" fy="0" gradientTransform="matrix(-0.0195, 0.0, 0.0, 0.0122, -1.0, 14.8)" gradientUnits="userSpaceOnUse" id="gradient9" r="819.2" spreadMethod="pad">
      <stop offset="0.15294117647058825" stop-color="#713b7b"/>
      <stop offset="0.8549019607843137" stop-color="#020019"/>
    </radialGradient>
    <linearGradient gradientTransform="matrix(0.0103, -0.0058, 0.0044, 0.0155, 91.3, 82.9)" gradientUnits="userSpaceOnUse" id="gradient10" spreadMethod="pad" x1="-819.2" x2="819.2">
      <stop offset="0.15294117647058825" stop-color="#002735"/>
      <stop offset="0.8549019607843137" stop-color="#552870"/>
    </linearGradient>
    <linearGradient gradientTransform="matrix(-0.0107, -0.0058, -0.0045, 0.0155, 11.35, 82.9)" gradientUnits="userSpaceOnUse" id="gradient11" spreadMethod="pad" x1="-819.2" x2="819.2">
      <stop offset="0.15294117647058825" stop-color="#002735"/>
      <stop offset="0.8549019607843137" stop-color="#552870"/>
    </linearGradient>
    <g id="sprite1" transform="matrix(1.0, 0.0, 0.0, 1.0, 0.5, 0.5)">
      <use ffdec:characterId="2077" height="14.75" transform="matrix(1.0, 0.0, 0.0, 1.0, -0.5, -0.5)" width="11.45" xlink:href="#shape1"/>
    </g>
    <g id="shape1" transform="matrix(1.0, 0.0, 0.0, 1.0, 0.5, 0.5)">
      <path d="M1.8 7.75 Q-2.1 5.75 2.45 0.0 L10.45 4.5 Q4.85 6.15 7.25 9.0 4.85 9.3 1.8 7.75" fill="url(#gradient12)" fill-rule="evenodd" stroke="none"/>
      <path d="M1.8 7.75 Q4.85 9.3 7.25 9.0 4.85 6.15 10.45 4.5 L2.45 0.0 Q-2.1 5.75 1.8 7.75 M7.45 13.7 Q8.05 11.35 7.85 8.85 L7.75 9.25 5.8 13.75 M7.8 8.35 L7.85 8.85 M7.75 9.25 Q6.5 11.5 4.3 13.1" ffdec:has-small-stroke="true" ffdec:original-stroke-width="1.0" fill="none" stroke="#002735" stroke-linecap="round" stroke-linejoin="round" stroke-width="3.789741513907362"/>
      <path d="M6.85 11.55 L6.45 12.95 Q6.05 13.95 5.85 13.95 5.6 13.95 5.55 13.8 L5.5 13.65 6.2 12.25 Q6.9 11.1 6.85 11.55 M7.75 11.2 L7.9 11.7 7.8 13.0 7.5 13.8 7.3 13.6 7.25 13.4 7.5 11.9 Q7.6 11.1 7.75 11.2 M4.05 13.15 L4.0 13.0 4.55 12.5 6.05 11.35 5.0 12.7 Q4.05 13.45 4.05 13.15" fill="url(#gradient13)" fill-rule="evenodd" stroke="none"/>
    </g>
    <radialGradient cx="0" cy="0" fx="3.2" fy="0" gradientTransform="matrix(0.0063, 0.0, 0.0, 0.0058, 2.5, 3.4)" gradientUnits="userSpaceOnUse" id="gradient12" r="819.2" spreadMethod="pad">
      <stop offset="0.32941176470588235" stop-color="#778a52"/>
      <stop offset="0.8431372549019608" stop-color="#255874"/>
      <stop offset="1.0" stop-color="#0b354d"/>
    </radialGradient>
    <linearGradient gradientTransform="matrix(5.0E-4, -0.0018, 0.9659, 0.2588, -4.95, 9.4)" gradientUnits="userSpaceOnUse" id="gradient13" spreadMethod="pad" x1="-819.2" x2="819.2">
      <stop offset="0.0" stop-color="#79acbd"/>
      <stop offset="0.3137254901960784" stop-color="#1e5264"/>
      <stop offset="0.8627450980392157" stop-color="#1e5264" stop-opacity="0.0"/>
    </linearGradient>
    <g id="sprite2" transform="matrix(1.0, 0.0, 0.0, 1.0, 0.5, 0.5)">
      <use ffdec:characterId="2077" height="14.75" transform="matrix(1.0, 0.0, 0.0, 1.0, -0.5, -0.5)" width="11.45" xlink:href="#shape2"/>
    </g>
    <g id="shape2" transform="matrix(1.0, 0.0, 0.0, 1.0, 0.5, 0.5)">
      <path d="M1.8 7.75 Q-2.1 5.75 2.45 0.0 L10.45 4.5 Q4.85 6.15 7.25 9.0 4.85 9.3 1.8 7.75" fill="url(#gradient14)" fill-rule="evenodd" stroke="none"/>
      <path d="M1.8 7.75 Q4.85 9.3 7.25 9.0 4.85 6.15 10.45 4.5 L2.45 0.0 Q-2.1 5.75 1.8 7.75 M7.45 13.7 Q8.05 11.35 7.85 8.85 L7.75 9.25 5.8 13.75 M7.8 8.35 L7.85 8.85 M7.75 9.25 Q6.5 11.5 4.3 13.1" ffdec:has-small-stroke="true" ffdec:original-stroke-width="1.0" fill="none" stroke="#002735" stroke-linecap="round" stroke-linejoin="round" stroke-width="3.789741513907362"/>
      <path d="M6.85 11.55 L6.45 12.95 Q6.05 13.95 5.85 13.95 5.6 13.95 5.55 13.8 L5.5 13.65 6.2 12.25 Q6.9 11.1 6.85 11.55 M7.75 11.2 L7.9 11.7 7.8 13.0 7.5 13.8 7.3 13.6 7.25 13.4 7.5 11.9 Q7.6 11.1 7.75 11.2 M4.05 13.15 L4.0 13.0 4.55 12.5 6.05 11.35 5.0 12.7 Q4.05 13.45 4.05 13.15" fill="url(#gradient15)" fill-rule="evenodd" stroke="none"/>
    </g>
    <radialGradient cx="0" cy="0" fx="3.2" fy="0" gradientTransform="matrix(0.0063, 0.0, 0.0, 0.0058, 2.5, 3.4)" gradientUnits="userSpaceOnUse" id="gradient14" r="819.2" spreadMethod="pad">
      <stop offset="0.32941176470588235" stop-color="#778a52"/>
      <stop offset="0.8431372549019608" stop-color="#255874"/>
      <stop offset="1.0" stop-color="#0b354d"/>
    </radialGradient>
    <linearGradient gradientTransform="matrix(5.0E-4, -0.0018, 0.9659, 0.2588, -4.95, 9.4)" gradientUnits="userSpaceOnUse" id="gradient15" spreadMethod="pad" x1="-819.2" x2="819.2">
      <stop offset="0.0" stop-color="#79acbd"/>
      <stop offset="0.3137254901960784" stop-color="#1e5264"/>
      <stop offset="0.8627450980392157" stop-color="#1e5264" stop-opacity="0.0"/>
    </linearGradient>
    <g id="sprite3" transform="matrix(1.0, 0.0, 0.0, 1.0, 0.5, 0.05)">
      <use ffdec:characterId="2079" height="42.05" transform="matrix(1.0, 0.0, 0.0, 1.0, -0.5, -0.05)" width="45.2" xlink:href="#shape3"/>
    </g>
    <g id="shape3" transform="matrix(1.0, 0.0, 0.0, 1.0, 0.5, 0.05)">
      <path d="M42.2 15.15 Q44.2 19.1 44.2 22.5 44.2 29.55 34.55 36.25 30.9 38.75 27.2 40.25 23.65 41.7 22.0 41.4 20.55 41.7 17.0 40.25 13.3 38.75 9.65 36.25 0.0 29.55 0.0 22.5 0.0 19.1 2.0 15.15 L4.65 9.4 Q5.3 7.5 4.05 4.6 19.2 -4.8 39.95 4.75 39.0 8.65 39.6 9.95 L42.2 15.15" fill="url(#gradient16)" fill-rule="evenodd" stroke="none"/>
      <path d="M42.2 15.15 Q44.2 19.1 44.2 22.5 44.2 29.55 34.55 36.25 30.9 38.75 27.2 40.25 23.65 41.7 22.0 41.4 20.55 41.7 17.0 40.25 13.3 38.75 9.65 36.25 0.0 29.55 0.0 22.5 0.0 19.1 2.0 15.15 4.0 11.25 4.65 9.3 5.25 7.35 4.6 6.2 L4.3 4.65 Q19.75 -4.65 39.95 4.75 39.35 7.9 39.65 9.1 40.2 11.25 42.2 15.15" fill="url(#gradient17)" fill-rule="evenodd" stroke="none"/>
      <path d="M43.7 22.5 Q43.7 19.2 41.75 15.4 39.7 11.4 39.25 9.75 38.8 8.35 39.65 6.1 39.35 7.1 40.35 9.9 L40.2 9.45 Q40.7 11.1 42.65 14.95 44.7 19.0 44.7 22.5 44.75 29.75 34.85 36.65 L34.85 36.7 Q31.15 39.2 27.4 40.75 23.75 42.2 22.0 41.95 20.45 42.2 16.8 40.75 13.05 39.2 9.4 36.7 L9.4 36.65 Q-0.55 29.75 -0.5 22.5 -0.5 19.0 1.55 14.95 L4.2 9.7 Q4.85 8.3 4.55 6.0 5.4 8.3 5.0 9.75 L2.45 15.4 Q0.5 19.2 0.5 22.5 0.55 29.35 9.95 35.85 13.55 38.3 17.2 39.8 20.55 41.15 21.9 40.9 L22.1 40.9 Q23.65 41.15 27.0 39.8 30.65 38.3 34.3 35.85 43.65 29.35 43.7 22.5" fill="#002735" fill-rule="evenodd" stroke="none"/>
    </g>
    <radialGradient cx="0" cy="0" fx="3.2" fy="0" gradientTransform="matrix(0.092, 0.0, 0.0, 0.0413, 21.8, 11.3)" gradientUnits="userSpaceOnUse" id="gradient16" r="819.2" spreadMethod="pad">
      <stop offset="0.0" stop-color="#778a52"/>
      <stop offset="1.0" stop-color="#41728e"/>
    </radialGradient>
    <radialGradient cx="0" cy="0" fx="3.2" fy="0" gradientTransform="matrix(0.0383, 0.0, 0.0, 0.0329, 22.6, 14.2)" gradientUnits="userSpaceOnUse" id="gradient17" r="819.2" spreadMethod="pad">
      <stop offset="0.5372549019607843" stop-color="#001927" stop-opacity="0.03137255"/>
      <stop offset="0.9568627450980393" stop-color="#001927" stop-opacity="0.7490196"/>
    </radialGradient>
    <g id="sprite4" transform="matrix(1.0, 0.0, 0.0, 1.0, 0.5, 0.5)">
      <use ffdec:characterId="2081" height="59.7" transform="matrix(1.0, 0.0, 0.0, 1.0, -0.5, -0.5)" width="65.6" xlink:href="#shape4"/>
      <use ffdec:characterId="2084" height="52.7" transform="matrix(0.4522, 0.0, 0.0, 0.4522, 8.8325, 22.2586)" width="103.9" xlink:href="#sprite5"/>
      <use ffdec:characterId="2086" height="35.55" transform="matrix(1.0, 0.0, 0.0, 1.0, 23.55, 34.25)" width="13.3" xlink:href="#sprite6"/>
    </g>
    <g id="shape4" transform="matrix(1.0, 0.0, 0.0, 1.0, 0.5, 0.5)">
      <path d="M43.4 48.3 L42.15 50.05 41.3 46.7 44.2 45.4 Q44.1 46.95 43.4 48.3 M23.3 46.7 L22.45 50.05 Q20.6 48.1 20.4 45.4 L23.3 46.7" fill="#feffee" fill-rule="evenodd" stroke="none"/>
      <path d="M13.85 13.35 L15.95 5.6 Q16.45 5.55 16.45 4.25 L16.4 3.25 16.35 2.95 16.1 2.05 15.65 1.1 15.4 0.8 15.05 0.4 Q14.8 0.5 14.8 0.95 L15.05 3.2 15.1 3.9 15.05 4.25 15.1 4.45 15.1 5.05 Q13.85 7.8 11.35 14.3 L10.35 16.8 Q7.55 19.15 5.65 21.55 2.7 25.35 2.7 28.65 2.7 32.5 6.2 32.5 7.45 32.5 8.65 31.9 L10.0 34.05 9.0 36.25 5.95 36.7 Q3.15 36.7 1.4 34.1 0.0 32.0 0.0 29.8 0.0 26.95 7.6 16.0 14.45 6.1 14.65 2.75 L14.6 2.1 14.55 1.15 14.5 0.65 Q14.5 0.0 15.1 0.0 15.85 0.0 16.3 1.9 L16.6 4.3 Q16.6 5.8 14.1 12.6 L13.85 13.35" fill="url(#gradient18)" fill-rule="evenodd" stroke="none"/>
      <path d="M54.35 17.0 L53.3 14.25 49.35 4.6 49.5 4.3 49.8 3.35 Q49.85 1.55 49.6 1.0 L49.75 0.55 Q49.75 0.1 49.25 0.35 48.8 0.6 48.75 1.1 L48.75 1.25 48.55 2.25 48.5 3.25 Q48.35 3.25 48.5 4.25 L48.55 4.35 48.45 4.55 48.35 5.0 48.7 6.5 Q49.05 7.9 49.35 8.0 L50.85 13.5 50.5 12.6 Q48.0 5.8 48.0 4.3 48.0 3.25 48.3 1.9 48.75 0.0 49.5 0.0 50.1 0.0 50.1 0.65 L50.05 1.15 50.0 2.1 49.95 2.75 Q50.15 6.1 57.0 16.0 64.6 26.95 64.6 29.8 64.6 32.0 63.2 34.1 61.45 36.7 58.65 36.7 L55.6 36.25 54.6 34.05 55.95 31.95 Q57.1 32.5 58.3 32.5 61.8 32.5 61.8 28.65 61.8 25.35 58.85 21.55 57.0 19.2 54.35 17.0" fill="url(#gradient19)" fill-rule="evenodd" stroke="none"/>
      <path d="M54.35 17.0 Q57.0 19.2 58.85 21.55 61.8 25.35 61.8 28.65 61.8 32.5 58.3 32.5 57.1 32.5 55.95 31.95 L56.9 30.05 Q57.4 28.75 57.4 27.25 57.4 23.7 56.3 21.5 L55.0 18.65 54.65 17.9 54.2 16.85 54.35 17.0 M10.35 16.8 L10.5 16.7 9.95 17.9 9.8 18.3 8.3 21.5 Q7.2 23.7 7.2 27.25 7.2 28.75 7.7 30.05 L8.65 31.9 Q7.45 32.5 6.2 32.5 2.7 32.5 2.7 28.65 2.7 25.35 5.65 21.55 7.55 19.15 10.35 16.8" fill="#532e69" fill-rule="evenodd" stroke="none"/>
      <path d="M50.85 13.5 L49.35 8.0 Q49.05 7.9 48.7 6.5 L48.35 5.0 48.45 4.55 48.55 4.35 48.5 4.25 Q48.35 3.25 48.5 3.25 L48.55 2.25 48.75 1.25 48.75 1.1 Q48.8 0.6 49.25 0.35 49.75 0.1 49.75 0.55 L49.6 1.0 Q49.85 1.55 49.8 3.35 L49.5 4.3 49.35 4.6 53.3 14.25 54.35 17.0 54.2 16.85 54.65 17.9 55.0 18.65 56.3 21.5 Q57.4 23.7 57.4 27.25 57.4 28.75 56.9 30.05 L55.95 31.95 54.6 34.05 55.6 36.25 55.65 36.35 Q56.3 38.0 56.3 39.35 56.3 43.6 50.8 48.95 L47.0 52.25 Q39.15 58.45 32.35 58.7 25.45 58.45 17.6 52.25 L13.8 48.95 Q8.3 43.6 8.3 39.35 8.3 38.0 8.95 36.35 L9.0 36.25 10.0 34.05 8.65 31.9 7.7 30.05 Q7.2 28.75 7.2 27.25 7.2 23.7 8.3 21.5 L9.8 18.3 9.95 17.9 10.5 16.7 10.35 16.8 11.35 14.3 Q13.85 7.8 15.1 5.05 L15.1 4.45 15.05 4.25 15.1 3.9 15.05 3.2 14.8 0.95 Q14.8 0.5 15.05 0.4 L15.4 0.8 15.65 1.1 16.1 2.05 16.35 2.95 16.4 3.25 16.45 4.25 Q16.45 5.55 15.95 5.6 L13.85 13.35 Q12.9 15.95 12.4 18.35 11.6 21.75 11.6 24.75 L11.7 27.15 Q11.9 29.05 12.4 30.7 15.55 27.05 19.95 25.3 24.8 23.4 31.6 23.55 L32.3 23.6 33.0 23.55 Q39.8 23.4 44.65 25.3 49.05 27.05 52.2 30.7 L52.9 27.15 53.0 24.75 Q53.0 21.95 52.3 18.75 L50.85 13.5 M43.4 48.3 Q44.1 46.95 44.2 45.4 L41.3 46.7 42.15 50.05 43.4 48.3 M23.3 46.7 L20.4 45.4 Q20.6 48.1 22.45 50.05 L23.3 46.7" fill="url(#gradient20)" fill-rule="evenodd" stroke="none"/>
      <path d="M60.45 22.8 L61.7 25.0 62.35 27.35 62.55 28.8 62.5 30.05 Q62.5 31.2 62.05 31.8 61.4 32.65 59.55 33.15 L56.95 33.15 56.75 33.1 56.6 33.75 Q56.6 34.75 58.75 35.0 L62.9 34.55 62.55 34.75 62.75 34.95 Q62.75 35.4 61.65 35.85 L59.75 36.35 59.15 36.35 Q58.95 36.75 57.75 36.75 56.6 36.75 55.75 36.0 55.05 35.4 55.05 34.9 55.05 34.35 55.2 34.25 55.05 33.8 55.05 33.35 L55.1 32.7 Q55.15 32.4 55.55 32.55 L55.8 32.9 55.9 32.75 55.7 32.35 55.85 32.05 56.2 31.85 57.15 32.15 59.35 32.15 Q60.7 31.85 61.2 31.2 L61.5 30.0 Q61.5 28.75 61.15 28.0 L60.7 26.1 59.9 24.35 59.0 22.55 Q58.05 20.55 56.6 19.25 L55.2 17.9 Q53.85 16.45 53.85 16.05 53.85 15.7 54.15 15.55 L57.45 19.1 Q59.75 21.5 60.45 22.8 M44.2 46.8 L44.2 46.4 44.15 46.2 Q44.15 45.75 45.7 44.6 47.25 43.45 47.25 44.25 L44.2 46.8 M40.55 48.2 L37.25 49.0 37.3 50.4 37.5 53.3 37.7 57.45 37.6 57.75 Q37.5 58.1 37.1 58.1 L36.9 58.0 Q36.6 58.55 36.1 58.55 35.0 58.55 34.55 58.0 L34.3 57.4 34.7 55.7 35.35 53.75 35.55 51.65 35.45 50.05 Q35.45 47.4 36.05 47.65 L36.15 47.65 36.15 46.4 36.1 42.25 Q36.1 41.75 36.4 41.45 36.85 42.35 36.95 43.6 L37.05 45.85 37.2 48.15 Q37.75 47.85 38.9 47.55 L41.25 47.3 41.8 48.5 42.25 49.8 Q42.25 50.3 41.7 50.3 41.4 50.3 41.0 49.35 L40.55 48.2 M6.9 20.6 Q2.9 25.1 2.9 29.05 2.9 30.0 3.35 30.8 4.05 32.1 5.75 32.1 L6.9 32.0 7.85 31.85 Q8.8 31.85 9.05 32.4 L9.1 32.45 9.4 33.25 9.55 33.5 10.0 33.8 10.05 34.15 9.5 35.5 Q8.75 36.6 7.9 36.6 L7.55 36.45 7.4 36.3 5.85 36.75 4.55 36.55 3.6 36.2 3.1 35.75 2.8 35.6 Q2.05 35.2 2.05 34.8 L2.05 34.6 2.3 34.55 4.45 35.05 5.85 35.05 Q7.5 34.4 8.15 33.9 L8.05 33.6 Q8.0 33.3 8.1 33.2 L8.1 32.85 7.5 32.85 5.75 33.1 Q3.9 33.1 2.85 31.75 1.9 30.6 1.9 29.05 1.9 25.55 4.75 21.6 5.9 19.9 8.3 17.5 10.85 14.9 10.85 15.7 10.85 16.1 6.9 20.6 M19.05 44.55 Q20.5 45.45 20.65 46.05 L20.7 46.9 Q20.65 47.2 19.1 45.85 L17.55 44.3 Q17.55 43.65 19.05 44.55 M24.45 47.45 L25.4 47.7 27.55 48.25 Q28.1 48.3 28.1 48.65 L27.85 49.2 26.4 48.95 24.85 48.65 24.25 48.55 24.1 48.8 24.05 48.95 Q23.5 50.95 22.95 50.95 22.45 50.95 22.45 50.35 L23.05 48.4 Q23.15 47.65 23.45 47.3 23.75 46.85 24.1 46.95 L24.4 47.4 24.45 47.45" fill="#1a002a" fill-opacity="0.2" fill-rule="evenodd" stroke="none"/>
      <path d="M49.9 5.0 L49.95 2.75 50.0 2.1 50.05 1.15 50.1 0.65 Q50.1 0.0 49.5 0.0 48.75 0.0 48.3 1.9 48.0 3.25 48.0 4.3 48.0 5.8 50.5 12.6 L50.85 13.5 52.3 18.75 Q53.0 21.95 53.0 24.75 L52.9 27.15 52.2 30.7 Q50.05 28.2 47.35 26.65 M16.25 27.25 Q14.15 28.7 12.4 30.7 11.9 29.05 11.7 27.15 L11.6 24.75 Q11.6 21.75 12.4 18.35 12.9 15.95 13.85 13.35 L14.1 12.6 Q16.6 5.8 16.6 4.3 L16.3 1.9 Q15.85 0.0 15.1 0.0 14.5 0.0 14.5 0.65 L14.55 1.15 14.6 2.1 14.65 2.75 14.7 5.0 M53.3 14.25 Q53.3 14.9 54.2 16.85 L54.65 17.9 55.0 18.65 56.3 21.5 Q57.4 23.7 57.4 27.25 57.4 28.75 56.9 30.05 L55.95 31.95 54.6 34.05 55.6 36.25 58.65 36.7 Q61.45 36.7 63.2 34.1 64.6 32.0 64.6 29.8 64.6 26.95 57.0 16.0 50.15 6.1 49.95 2.75 M55.6 36.25 L55.65 36.35 Q56.3 38.0 56.3 39.35 56.3 43.6 50.8 48.95 L47.0 52.25 Q39.15 58.45 32.35 58.7 25.45 58.45 17.6 52.25 L13.8 48.95 Q8.3 43.6 8.3 39.35 8.3 38.0 8.95 36.35 L9.0 36.25 5.95 36.7 Q3.15 36.7 1.4 34.1 0.0 32.0 0.0 29.8 0.0 26.95 7.6 16.0 14.45 6.1 14.65 2.75 M11.35 14.3 L10.5 16.7 9.95 17.9 9.8 18.3 8.3 21.5 Q7.2 23.7 7.2 27.25 7.2 28.75 7.7 30.05 L8.65 31.9 10.0 34.05 9.0 36.25" ffdec:has-small-stroke="true" ffdec:original-stroke-width="1.0" fill="none" stroke="#552870" stroke-linecap="round" stroke-linejoin="round" stroke-width="3.372135174271342"/>
      <path d="M41.3 46.7 L42.15 50.05 43.4 48.3 Q44.1 46.95 44.2 45.4 M20.4 45.4 Q20.6 48.1 22.45 50.05 L23.3 46.7" ffdec:has-small-stroke="true" ffdec:original-stroke-width="1.0" fill="none" stroke="#b6bb95" stroke-linecap="round" stroke-linejoin="round" stroke-width="3.372135174271342"/>
      <path d="M44.2 45.4 L41.3 46.7 Q38.85 47.65 36.35 48.05 L34.6 48.3 Q29.0 48.85 23.3 46.7 L20.4 45.4 17.55 43.8 M44.2 45.4 L46.95 43.8" ffdec:has-small-stroke="true" ffdec:original-stroke-width="1.0" fill="none" stroke="#562a70" stroke-linecap="round" stroke-linejoin="round" stroke-width="3.372135174271342"/>
      <path d="M47.35 26.65 L44.65 25.3 Q39.8 23.4 33.0 23.55 L32.3 23.6 31.6 23.55 Q24.8 23.4 19.95 25.3 17.95 26.1 16.25 27.25" ffdec:has-small-stroke="true" ffdec:original-stroke-width="1.0" fill="none" stroke="#516caa" stroke-linecap="round" stroke-linejoin="round" stroke-width="3.372135174271342"/>
    </g>
    <radialGradient cx="0" cy="0" fx="3.2" fy="0" gradientTransform="matrix(0.0188, 0.0, 0.0, 0.031, -2.4, 10.0)" gradientUnits="userSpaceOnUse" id="gradient18" r="819.2" spreadMethod="pad">
      <stop offset="0.6196078431372549" stop-color="#b47baa"/>
      <stop offset="0.8784313725490196" stop-color="#82599a"/>
    </radialGradient>
    <radialGradient cx="0" cy="0" fx="3.2" fy="0" gradientTransform="matrix(0.0112, -0.003, 0.0065, 0.0243, 61.7, 14.4)" gradientUnits="userSpaceOnUse" id="gradient19" r="819.2" spreadMethod="pad">
      <stop offset="0.6196078431372549" stop-color="#b47baa"/>
      <stop offset="0.8784313725490196" stop-color="#82599a"/>
    </radialGradient>
    <radialGradient cx="0" cy="0" fx="3.2" fy="0" gradientTransform="matrix(0.0332, 0.0, 0.0, 0.0308, 32.2, 27.5)" gradientUnits="userSpaceOnUse" id="gradient20" r="819.2" spreadMethod="pad">
      <stop offset="0.0" stop-color="#8cb3d7"/>
      <stop offset="0.6196078431372549" stop-color="#b47baa"/>
      <stop offset="0.8784313725490196" stop-color="#72418e"/>
    </radialGradient>
    <g id="sprite5" transform="matrix(1.0, 0.0, 0.0, 1.0, 2.25, 1.75)">
      <use ffdec:characterId="2082" height="72.45" transform="matrix(-0.5298, 0.2038, 0.2038, 0.5298, 86.9046, -1.76)" width="69.35" xlink:href="#shape5"/>
      <use ffdec:characterId="2083" height="30.9" transform="matrix(-0.457, 0.1792, 0.1792, 0.457, 72.9416, 13.9702)" width="30.9" xlink:href="#shape6"/>
      <use ffdec:characterId="2082" height="72.45" transform="matrix(0.5298, 0.2038, -0.2038, 0.5298, 12.4954, -1.56)" width="69.35" xlink:href="#shape7"/>
      <use ffdec:characterId="2083" height="30.9" transform="matrix(-0.457, 0.1792, 0.1792, 0.457, 35.0916, 14.1202)" width="30.9" xlink:href="#shape6"/>
    </g>
    <g id="shape5" transform="matrix(1.0, 0.0, 0.0, 1.0, 34.55, 34.1)">
      <path d="M17.55 -10.85 Q29.15 -8.05 33.0 1.05 36.8 10.2 30.5 20.1 24.2 30.05 11.55 35.1 -1.05 40.15 -12.65 37.35 -24.3 34.55 -28.15 25.4 -31.95 16.3 -25.6 6.4 -19.3 -3.5 -6.7 -8.55 5.95 -13.6 17.55 -10.85" fill="#000433" fill-opacity="0.2" fill-rule="evenodd" stroke="none"/>
      <path d="M-32.1 -4.5 Q-31.1 -10.2 -27.85 -15.6 -20.9 -27.2 -7.8 -30.8 5.3 -34.45 16.85 -28.0 28.5 -21.6 31.75 -8.8 L32.25 -6.55 Q31.25 -0.9 27.95 4.5 21.0 16.15 7.9 19.8 -5.2 23.4 -16.8 16.9 -28.3 10.45 -31.55 -2.2 L-32.1 -4.5" fill="#e6e6e6" fill-rule="evenodd" stroke="none"/>
      <path d="M32.25 -6.55 Q34.4 4.95 28.1 15.5 21.05 27.1 8.0 30.7 -5.1 34.3 -16.75 27.9 -28.3 21.35 -31.45 8.7 -33.25 1.9 -32.1 -4.5 L-31.55 -2.2 Q-28.3 10.45 -16.8 16.9 -5.2 23.4 7.9 19.8 21.0 16.15 27.95 4.5 31.25 -0.9 32.25 -6.55" fill="#9899a6" fill-rule="evenodd" stroke="none"/>
      <path d="M31.75 -8.8 Q35.0 3.85 28.1 15.5 21.05 27.1 8.0 30.7 -5.1 34.3 -16.75 27.9 -28.3 21.35 -31.45 8.7 -34.8 -4.0 -27.85 -15.6 -20.9 -27.2 -7.8 -30.8 5.3 -34.45 16.85 -28.0 28.5 -21.6 31.75 -8.8 Z" ffdec:has-small-stroke="true" ffdec:original-stroke-width="4.0" fill="none" stroke="#292448" stroke-linecap="round" stroke-linejoin="round" stroke-width="13.13527226074483"/>
    </g>
    <g id="shape6" transform="matrix(1.0, 0.0, 0.0, 1.0, 15.45, 15.45)">
      <path d="M10.95 -10.85 Q15.45 -6.35 15.45 0.0 15.45 6.45 10.95 10.95 6.35 15.45 0.0 15.45 -6.45 15.45 -10.95 10.95 -15.45 6.45 -15.45 0.0 -15.45 -6.35 -10.95 -10.85 -6.45 -15.45 0.0 -15.45 6.35 -15.45 10.95 -10.85" fill="#271480" fill-rule="evenodd" stroke="none"/>
      <path d="M6.05 -5.45 Q8.35 -3.1 8.4 0.25 8.35 3.5 6.05 5.9 3.7 8.25 0.4 8.25 -3.0 8.25 -5.3 5.9 -7.65 3.5 -7.65 0.25 -7.65 -3.1 -5.3 -5.45 -3.0 -7.8 0.4 -7.8 3.7 -7.8 6.05 -5.45" fill="#000000" fill-rule="evenodd" stroke="none"/>
      <path d="M2.85 -3.65 Q1.3 -5.2 1.3 -7.35 1.3 -9.65 2.85 -11.2 4.35 -12.75 6.65 -12.7 8.85 -12.75 10.4 -11.2 11.95 -9.65 11.95 -7.35 11.95 -5.2 10.4 -3.65 8.85 -2.1 6.65 -2.05 4.35 -2.1 2.85 -3.65 M-6.65 3.0 Q-5.85 2.2 -4.75 2.2 -3.65 2.2 -2.9 3.0 -2.1 3.75 -2.05 4.9 -2.1 6.0 -2.9 6.8 -3.65 7.55 -4.75 7.55 -5.85 7.55 -6.65 6.8 -7.45 6.0 -7.45 4.9 -7.45 3.75 -6.65 3.0" fill="#e6e6e6" fill-rule="evenodd" stroke="none"/>
    </g>
    <g id="shape7" transform="matrix(1.0, 0.0, 0.0, 1.0, 34.55, 34.1)">
      <path d="M17.55 -10.85 Q29.15 -8.05 33.0 1.05 36.8 10.2 30.5 20.1 24.2 30.05 11.55 35.1 -1.05 40.15 -12.65 37.35 -24.3 34.55 -28.15 25.4 -31.95 16.3 -25.6 6.4 -19.3 -3.5 -6.7 -8.55 5.95 -13.6 17.55 -10.85" fill="#000433" fill-opacity="0.2" fill-rule="evenodd" stroke="none"/>
      <path d="M-32.1 -4.5 Q-31.1 -10.2 -27.85 -15.6 -20.9 -27.2 -7.8 -30.8 5.3 -34.45 16.85 -28.0 28.5 -21.6 31.75 -8.8 L32.25 -6.55 Q31.25 -0.9 27.95 4.5 21.0 16.15 7.9 19.8 -5.2 23.4 -16.8 16.9 -28.3 10.45 -31.55 -2.2 L-32.1 -4.5" fill="#e6e6e6" fill-rule="evenodd" stroke="none"/>
      <path d="M32.25 -6.55 Q34.4 4.95 28.1 15.5 21.05 27.1 8.0 30.7 -5.1 34.3 -16.75 27.9 -28.3 21.35 -31.45 8.7 -33.25 1.9 -32.1 -4.5 L-31.55 -2.2 Q-28.3 10.45 -16.8 16.9 -5.2 23.4 7.9 19.8 21.0 16.15 27.95 4.5 31.25 -0.9 32.25 -6.55" fill="#9899a6" fill-rule="evenodd" stroke="none"/>
      <path d="M31.75 -8.8 Q35.0 3.85 28.1 15.5 21.05 27.1 8.0 30.7 -5.1 34.3 -16.75 27.9 -28.3 21.35 -31.45 8.7 -34.8 -4.0 -27.85 -15.6 -20.9 -27.2 -7.8 -30.8 5.3 -34.45 16.85 -28.0 28.5 -21.6 31.75 -8.8 Z" ffdec:has-small-stroke="true" ffdec:original-stroke-width="4.0" fill="none" stroke="#292448" stroke-linecap="round" stroke-linejoin="round" stroke-width="13.13527226074342"/>
    </g>
    <g id="sprite6" transform="matrix(1.0, 0.0, 0.0, 1.0, 0.0, 0.0)">
      <use ffdec:characterId="2085" height="35.55" transform="matrix(1.0, 0.0, 0.0, 1.0, 0.0, 0.0)" width="13.3" xlink:href="#shape8"/>
    </g>
    <g id="shape8" transform="matrix(1.0, 0.0, 0.0, 1.0, 0.0, 0.0)">
      <path d="M5.35 9.1 Q4.1 18.55 1.3 26.35 0.2 29.25 4.45 33.7 5.45 34.65 6.3 34.5 7.15 34.15 7.85 32.65 12.15 23.6 12.3 10.45 12.15 2.35 8.95 1.05 L8.85 1.0 Q8.3 0.75 7.55 1.55 6.85 2.15 6.2 3.95 6.3 1.95 7.15 0.85 8.05 -0.35 9.3 0.1 L9.35 0.1 9.4 0.15 Q13.15 1.6 13.3 10.45 13.15 23.9 8.75 33.1 7.75 35.15 6.55 35.45 5.25 35.85 3.75 34.4 -1.1 29.35 0.35 26.0 3.3 17.85 5.3 9.25 L5.35 9.1 M5.4 8.85 L5.35 9.05 5.35 8.95 5.4 8.85" fill="#552870" fill-rule="evenodd" stroke="none"/>
      <path d="M6.2 3.95 Q6.85 2.15 7.55 1.55 8.3 0.75 8.85 1.0 L8.95 1.05 Q12.15 2.35 12.3 10.45 12.15 23.6 7.85 32.65 7.15 34.15 6.3 34.5 5.45 34.65 4.45 33.7 0.2 29.25 1.3 26.35 4.1 18.55 5.35 9.1 L5.35 9.05 5.4 8.85 5.4 8.7 6.2 3.95" fill="url(#gradient21)" fill-rule="evenodd" stroke="none"/>
    </g>
    <radialGradient cx="0" cy="0" fx="3.2" fy="0" gradientTransform="matrix(0.008, 0.0011, -0.0043, 0.0317, 10.05, 3.95)" gradientUnits="userSpaceOnUse" id="gradient21" r="819.2" spreadMethod="pad">
      <stop offset="0.0" stop-color="#8cb3d7"/>
      <stop offset="0.5686274509803921" stop-color="#b47baa"/>
      <stop offset="0.8470588235294118" stop-color="#72418e"/>
      <stop offset="1.0" stop-color="#72418e"/>
    </radialGradient>
  </defs>
</svg>
