<?xml version="1.0" encoding="UTF-8" standalone="no"?>
<svg xmlns:ffdec="https://www.free-decompiler.com/flash" xmlns:xlink="http://www.w3.org/1999/xlink" ffdec:objectType="frame" height="48.75px" width="47.3px" xmlns="http://www.w3.org/2000/svg">
  <g transform="matrix(1.0, 0.0, 0.0, 1.0, 12.3, 6.55)">
    <use ffdec:characterId="2139" height="226.25" transform="matrix(0.1662, 0.0, 0.0, 0.1662, -5.0, -1.6662)" width="208.45" xlink:href="#sprite0"/>
  </g>
  <defs>
    <g id="sprite0" transform="matrix(1.0, 0.0, 0.0, 1.0, 0.0, 1.0)">
      <filter id="filter0">
        <feConvolveMatrix divisor="25.0" in="SourceGraphic" kernelMatrix="1 1 1 1 1 1 1 1 1 1 1 1 1 1 1 1 1 1 1 1 1 1 1 1 1" order="5 5" result="filterResult0"/>
        <feConvolveMatrix divisor="25.0" in="filterResult0" kernelMatrix="1 1 1 1 1 1 1 1 1 1 1 1 1 1 1 1 1 1 1 1 1 1 1 1 1" order="5 5" result="filterResult1"/>
      </filter>
      <use ffdec:characterId="2090" filter="url(#filter0)" height="207.05" transform="matrix(1.0, 0.0, 0.0, 1.0, 13.6, 9.0)" width="173.6" xlink:href="#sprite1"/>
      <filter id="filter1">
        <feConvolveMatrix divisor="121.0" in="SourceGraphic" kernelMatrix="1 1 1 1 1 1 1 1 1 1 1 1 1 1 1 1 1 1 1 1 1 1 1 1 1 1 1 1 1 1 1 1 1 1 1 1 1 1 1 1 1 1 1 1 1 1 1 1 1 1 1 1 1 1 1 1 1 1 1 1 1 1 1 1 1 1 1 1 1 1 1 1 1 1 1 1 1 1 1 1 1 1 1 1 1 1 1 1 1 1 1 1 1 1 1 1 1 1 1 1 1 1 1 1 1 1 1 1 1 1 1 1 1 1 1 1 1 1 1 1 1" order="11 11" result="filterResult2"/>
        <feConvolveMatrix divisor="121.0" in="filterResult2" kernelMatrix="1 1 1 1 1 1 1 1 1 1 1 1 1 1 1 1 1 1 1 1 1 1 1 1 1 1 1 1 1 1 1 1 1 1 1 1 1 1 1 1 1 1 1 1 1 1 1 1 1 1 1 1 1 1 1 1 1 1 1 1 1 1 1 1 1 1 1 1 1 1 1 1 1 1 1 1 1 1 1 1 1 1 1 1 1 1 1 1 1 1 1 1 1 1 1 1 1 1 1 1 1 1 1 1 1 1 1 1 1 1 1 1 1 1 1 1 1 1 1 1 1" order="11 11" result="filterResult3"/>
      </filter>
      <use ffdec:characterId="2090" filter="url(#filter1)" height="207.05" transform="matrix(1.0, 0.0, 0.0, 1.0, 13.6, 9.0)" width="173.6" xlink:href="#sprite1"/>
      <filter id="filter2">
        <feConvolveMatrix divisor="9.0" in="SourceGraphic" kernelMatrix="1 1 1 1 1 1 1 1 1" order="3 3" result="filterResult4"/>
      </filter>
      <use ffdec:characterId="2092" filter="url(#filter2)" height="21.5" transform="matrix(1.549, 0.0, 0.0, 1.8397, 33.15, 185.7)" width="87.0" xlink:href="#sprite2"/>
      <use ffdec:characterId="2096" height="63.9" transform="matrix(1.4985, 0.0, 0.0, 1.4985, 31.0007, 121.2978)" width="92.0" xlink:href="#sprite3"/>
      <filter id="filter3">
        <feConvolveMatrix divisor="4.0" in="SourceGraphic" kernelMatrix="1 1 1 1" order="2 2" result="filterResult5"/>
      </filter>
      <use ffdec:characterId="2098" filter="url(#filter3)" height="21.3" transform="matrix(1.7011, -0.0082, 0.0075, 1.5453, 49.7, 122.55)" width="60.0" xlink:href="#sprite5"/>
      <use ffdec:characterId="2100" height="49.4" transform="matrix(1.4985, 0.0, 0.0, 1.4985, 45.5058, 75.3507)" width="72.85" xlink:href="#sprite6"/>
      <use ffdec:characterId="2102" height="8.35" transform="matrix(1.4994, 0.0, 0.0, 1.4994, 89.8501, 124.8)" width="6.9" xlink:href="#sprite7"/>
      <use ffdec:characterId="2104" height="9.9" transform="matrix(1.1886, 0.0, 0.0, 1.1886, 89.45, 107.35)" width="8.3" xlink:href="#sprite8"/>
      <use ffdec:characterId="2111" height="40.9" transform="matrix(1.4985, 0.0, 0.0, 1.4985, 132.05, 50.45)" width="51.0" xlink:href="#sprite9"/>
      <filter id="filter5">
        <feConvolveMatrix divisor="9.0" in="SourceGraphic" kernelMatrix="1 1 1 1 1 1 1 1 1" order="3 3" result="filterResult7"/>
      </filter>
      <use ffdec:characterId="2113" filter="url(#filter5)" height="43.2" transform="matrix(1.5017, 0.0, 0.0, 1.5017, 63.3993, 76.9437)" width="51.15" xlink:href="#sprite13"/>
      <use ffdec:characterId="2120" height="56.75" transform="matrix(1.4985, 0.0, 0.0, 1.4985, 61.5075, 61.1117)" width="59.7" xlink:href="#sprite14"/>
      <use ffdec:characterId="2122" height="45.75" transform="matrix(1.4985, 0.0, 0.0, 1.4985, 58.8007, 19.0007)" width="52.4" xlink:href="#sprite17"/>
      <use ffdec:characterId="2127" height="45.3" transform="matrix(1.4985, 0.0, 0.0, 1.4985, 0.005, 32.1)" width="40.8" xlink:href="#sprite18"/>
      <use ffdec:characterId="2132" height="34.65" transform="matrix(1.476, -0.2591, 0.2591, 1.476, 59.0453, 12.1563)" width="50.8" xlink:href="#sprite21"/>
      <use ffdec:characterId="2104" height="9.9" transform="matrix(1.9419, 0.0, 0.0, 1.9419, 103.3, 36.1)" width="8.3" xlink:href="#sprite8"/>
      <use ffdec:characterId="2102" height="8.35" transform="matrix(1.9874, 0.0, 0.0, 1.9874, 71.9513, 36.75)" width="6.9" xlink:href="#sprite7"/>
      <use ffdec:characterId="2133" height="14.4" transform="matrix(1.4985, 0.0, 0.0, 1.4985, 75.2254, 58.6751)" width="26.2" xlink:href="#sprite23"/>
      <use ffdec:characterId="2138" height="45.3" transform="matrix(1.0, 0.0, 0.0, 1.0, 81.9, 49.05)" width="18.4" xlink:href="#sprite24"/>
    </g>
    <g id="sprite1" transform="matrix(1.0, 0.0, 0.0, 1.0, 24.35, 0.0)">
      <use ffdec:characterId="2089" height="207.05" transform="matrix(1.0, 0.0, 0.0, 1.0, -24.35, 0.0)" width="173.6" xlink:href="#shape0"/>
    </g>
    <g id="shape0" transform="matrix(1.0, 0.0, 0.0, 1.0, 24.35, 0.0)">
      <path d="M97.05 36.55 Q97.05 38.25 94.4 49.05 L91.7 59.7 Q91.7 60.65 93.45 63.6 95.25 66.7 95.55 70.5 95.65 72.05 95.15 75.55 95.15 76.65 95.5 77.6 98.4 75.45 103.75 72.9 109.5 70.2 113.3 69.05 L113.85 68.75 Q114.95 67.95 116.6 67.05 121.85 64.2 125.9 64.2 L129.3 64.8 135.15 64.55 Q137.0 64.55 140.8 61.2 144.4 58.0 148.0 58.55 L148.25 58.8 Q148.5 58.9 148.5 60.0 148.5 63.3 144.6 65.2 144.15 66.45 141.1 68.25 137.7 70.2 136.0 70.2 L130.9 69.25 125.8 68.3 Q124.1 68.3 121.95 69.15 116.9 71.45 110.25 77.2 L102.75 83.8 102.55 84.0 109.3 89.65 110.65 90.1 111.55 90.25 Q115.25 91.1 116.35 92.55 L122.5 95.6 Q126.6 97.65 127.55 97.65 128.9 97.65 133.5 94.5 138.35 91.1 142.0 90.55 L147.25 90.55 148.6 90.85 Q149.25 91.15 149.25 92.3 L148.6 93.25 147.25 94.3 Q140.2 95.15 134.35 99.35 129.9 103.3 129.25 103.3 124.85 103.3 115.85 98.05 L115.5 98.35 114.3 98.8 115.05 103.25 Q116.0 110.9 112.15 114.15 L108.3 117.55 Q108.3 118.1 116.2 128.65 124.05 140.65 124.05 148.4 124.05 168.1 115.85 182.0 103.45 203.0 74.05 207.05 L52.95 207.05 Q20.0 203.65 7.8 190.7 0.0 182.5 0.0 168.05 0.0 164.65 1.75 154.55 3.45 144.5 4.3 142.95 8.2 135.7 10.05 130.25 12.2 123.85 10.55 114.6 8.9 105.5 13.55 94.3 L9.15 90.95 Q1.55 84.95 1.05 83.75 L0.25 83.4 -7.3 83.4 Q-8.95 84.05 -11.45 86.8 -13.5 89.05 -15.35 89.05 -17.5 89.05 -20.35 87.55 -23.65 85.85 -24.35 83.6 L-24.0 82.75 Q-23.65 82.3 -22.5 82.3 -20.45 82.3 -18.35 83.6 -16.3 84.9 -15.8 84.9 L-14.0 83.65 Q-12.15 82.1 -10.3 81.25 -3.75 78.4 6.9 81.9 12.6 83.9 15.6 85.9 L17.15 86.95 Q18.5 84.6 19.8 83.15 L15.6 77.9 Q8.7 69.0 6.75 69.0 L5.25 70.0 Q3.15 70.95 -3.35 70.95 -12.8 70.95 -19.45 60.45 -21.65 57.05 -23.2 53.05 -24.35 49.95 -24.35 49.2 -24.35 45.25 -23.0 46.9 L-18.9 53.5 Q-10.8 66.8 -3.05 66.8 L1.65 65.9 Q5.45 64.95 6.35 64.95 9.8 64.95 14.45 69.5 16.9 70.95 20.2 73.45 24.05 76.35 26.8 79.0 L27.1 78.65 Q27.75 77.3 27.75 72.75 27.75 72.0 28.9 68.65 L30.0 65.25 Q30.0 63.75 26.65 55.9 23.25 48.05 23.25 41.25 23.25 28.5 30.4 17.8 40.4 2.75 61.2 0.0 78.95 0.4 85.0 5.45 88.6 8.45 92.25 16.3 95.85 19.55 96.75 26.1 97.05 28.3 97.05 36.55" fill="#ffffff" fill-opacity="0.5294118" fill-rule="evenodd" stroke="none"/>
    </g>
    <g id="sprite2" transform="matrix(1.0, 0.0, 0.0, 1.0, 0.0, 0.0)">
      <use ffdec:characterId="2091" height="21.5" transform="matrix(1.0, 0.0, 0.0, 1.0, 0.0, 0.0)" width="87.0" xlink:href="#shape1"/>
    </g>
    <g id="shape1" transform="matrix(1.0, 0.0, 0.0, 1.0, 0.0, 0.0)">
      <path d="M44.55 0.85 L52.5 0.85 59.95 0.0 69.5 0.0 Q77.2 2.55 80.65 4.15 83.95 5.8 85.05 7.15 86.25 7.25 86.75 8.95 L87.0 10.7 Q87.0 12.4 81.45 15.4 75.1 18.9 68.65 18.9 L67.2 18.75 Q60.5 20.6 54.65 20.2 L47.85 20.35 42.3 21.5 34.7 21.5 32.2 21.1 30.6 20.4 13.65 20.2 8.2 18.1 Q5.85 17.05 5.1 15.95 L4.8 15.85 Q0.0 14.6 0.0 11.65 0.0 10.1 2.1 8.55 2.6 6.7 5.35 5.8 L9.05 5.0 12.05 3.9 Q26.4 -0.9 44.55 0.85" fill="#000000" fill-opacity="0.3019608" fill-rule="evenodd" stroke="none"/>
    </g>
    <g id="sprite3" transform="matrix(1.0, 0.0, 0.0, 1.0, 0.5, -1.5)">
      <use ffdec:characterId="2093" height="63.9" transform="matrix(1.0, 0.0, 0.0, 1.0, -0.5, 1.5)" width="92.0" xlink:href="#shape2"/>
      <use ffdec:characterId="2095" height="10.55" transform="matrix(1.0, 0.0, 0.0, 0.9388, 19.4, 32.8)" width="12.35" xlink:href="#sprite4"/>
      <use ffdec:characterId="2095" height="10.55" transform="matrix(0.7419, 0.0, 0.0, 0.6965, 51.15, 38.4)" width="12.35" xlink:href="#sprite4"/>
      <use ffdec:characterId="2095" height="10.55" transform="matrix(0.7419, 0.0, 0.0, 0.6965, 69.95, 23.55)" width="12.35" xlink:href="#sprite4"/>
      <use ffdec:characterId="2095" height="10.55" transform="matrix(1.0881, 0.0, 0.0, 1.0216, 36.05, 28.05)" width="12.35" xlink:href="#sprite4"/>
      <use ffdec:characterId="2095" height="10.55" transform="matrix(1.0881, 0.0, 0.0, 1.0216, 65.4, 36.45)" width="12.35" xlink:href="#sprite4"/>
      <use ffdec:characterId="2095" height="10.55" transform="matrix(1.0881, 0.0, 0.0, 1.0216, 10.8, 17.9)" width="12.35" xlink:href="#sprite4"/>
      <use ffdec:characterId="2095" height="10.55" transform="matrix(0.6633, 0.0, 0.0, 0.6227, 28.6, 23.2)" width="12.35" xlink:href="#sprite4"/>
      <use ffdec:characterId="2095" height="10.55" transform="matrix(0.6633, 0.0, 0.0, 0.6227, 6.0, 37.25)" width="12.35" xlink:href="#sprite4"/>
      <use ffdec:characterId="2095" height="10.55" transform="matrix(0.6633, 0.0, 0.0, 0.6227, 43.2, 53.95)" width="12.35" xlink:href="#sprite4"/>
      <use ffdec:characterId="2095" height="10.55" transform="matrix(0.6633, 0.0, 0.0, 0.6227, 80.8, 31.8)" width="12.35" xlink:href="#sprite4"/>
      <use ffdec:characterId="2095" height="10.55" transform="matrix(0.6633, 0.0, 0.0, 0.6227, 26.6, 47.05)" width="12.35" xlink:href="#sprite4"/>
    </g>
    <g id="shape2" transform="matrix(1.0, 0.0, 0.0, 1.0, 0.5, -1.5)">
      <path d="M4.6 18.3 L3.8 22.9 Q3.0 26.1 3.0 27.1 3.0 29.6 7.25 35.1 10.9 39.85 13.0 41.45 15.9 43.55 20.7 45.7 28.8 49.35 35.9 49.35 37.55 49.35 39.3 48.4 41.0 47.45 43.1 47.45 L46.5 48.0 49.6 48.6 55.45 47.75 63.5 46.9 Q66.25 46.9 70.55 43.95 76.6 39.75 77.0 39.55 77.6 39.3 78.05 37.5 L78.6 35.45 79.65 34.0 80.8 32.6 Q81.55 31.8 82.3 29.9 83.0 27.9 83.0 26.5 L82.7 24.35 Q82.4 23.25 82.4 22.4 82.4 21.5 82.8 20.75 83.2 20.05 83.2 19.4 82.4 13.3 80.6 11.75 79.95 11.15 78.75 8.4 82.95 11.95 86.45 16.5 89.9 21.05 90.75 26.5 L91.0 29.6 Q91.0 32.95 89.3 40.05 84.75 47.45 82.4 50.35 80.0 53.25 76.8 55.85 73.6 58.45 70.5 58.9 L63.6 60.2 Q60.5 60.9 58.8 61.7 57.2 62.4 54.25 62.6 L49.4 62.65 42.9 63.15 38.6 63.6 34.0 63.05 29.4 61.9 27.15 61.45 25.0 60.8 Q21.9 59.3 20.6 58.9 19.3 58.5 16.95 56.65 14.6 54.75 13.95 54.85 13.3 54.95 11.45 53.3 9.55 51.65 8.2 51.0 L6.6 50.1 Q0.5 43.8 0.5 38.6 L0.25 34.25 Q0.0 32.4 0.0 29.95 0.0 24.8 4.6 18.3" fill="#dff1f3" fill-rule="evenodd" stroke="none"/>
      <path d="M6.6 50.1 L8.2 51.0 Q9.55 51.65 11.45 53.3 13.3 54.95 13.95 54.85 14.6 54.75 16.95 56.65 19.3 58.5 20.6 58.9 21.9 59.3 25.0 60.8 L27.15 61.45 29.4 61.9 34.0 63.05 38.6 63.6 42.9 63.15 49.4 62.65 54.25 62.6 Q57.2 62.4 58.8 61.7 60.5 60.9 63.6 60.2 L70.5 58.9 Q73.6 58.45 76.8 55.85 80.0 53.25 82.4 50.35 84.75 47.45 89.3 40.05 88.4 43.0 85.6 49.1 82.8 55.15 80.1 56.85 77.4 58.55 72.15 60.15 66.9 61.7 64.2 62.05 L59.7 62.85 54.95 64.2 Q52.0 65.15 47.05 64.8 L40.65 64.45 Q33.4 64.85 31.8 63.85 L22.25 61.35 Q15.55 59.55 11.6 55.45 L6.6 50.1" fill="#ffffff" fill-rule="evenodd" stroke="none"/>
      <path d="M78.75 8.4 Q79.95 11.15 80.6 11.75 82.4 13.3 83.2 19.4 83.2 20.05 82.8 20.75 82.4 21.5 82.4 22.4 82.4 23.25 82.7 24.35 L83.0 26.5 Q83.0 27.9 82.3 29.9 81.55 31.8 80.8 32.6 L79.65 34.0 78.6 35.45 78.05 37.5 Q77.6 39.3 77.0 39.55 76.6 39.75 70.55 43.95 66.25 46.9 63.5 46.9 L55.45 47.75 49.6 48.6 46.5 48.0 43.1 47.45 Q41.0 47.45 39.3 48.4 37.55 49.35 35.9 49.35 28.8 49.35 20.7 45.7 15.9 43.55 13.0 41.45 10.9 39.85 7.25 35.1 3.0 29.6 3.0 27.1 3.0 26.1 3.8 22.9 L4.6 18.3 Q6.75 13.85 16.15 8.15 25.5 2.45 35.4 2.1 L54.75 2.8 68.3 4.5 Q74.25 5.1 78.75 8.4" fill="url(#gradient0)" fill-rule="evenodd" stroke="none"/>
      <path d="M78.75 8.4 Q74.25 5.1 68.3 4.5 L54.75 2.8 35.4 2.1 Q25.5 2.45 16.15 8.15 6.75 13.85 4.6 18.3 0.0 24.8 0.0 29.95 0.0 32.4 0.25 34.25 L0.5 38.6 Q0.5 43.8 6.6 50.1 L11.6 55.45 Q15.55 59.55 22.25 61.35 L31.8 63.85 Q33.4 64.85 40.65 64.45 L47.05 64.8 Q52.0 65.15 54.95 64.2 L59.7 62.85 64.2 62.05 Q66.9 61.7 72.15 60.15 77.4 58.55 80.1 56.85 82.8 55.15 85.6 49.1 88.4 43.0 89.3 40.05 91.0 32.95 91.0 29.6 L90.75 26.5 Q89.9 21.05 86.45 16.5 82.95 11.95 78.75 8.4 Z" ffdec:has-small-stroke="true" ffdec:original-stroke-width="1.0" fill="none" stroke="#addeeb" stroke-linecap="round" stroke-linejoin="round" stroke-width="4.014486906465719"/>
    </g>
    <radialGradient cx="0" cy="0" gradientTransform="matrix(0.0522, 0.0, 0.0, 0.0375, 41.4, 18.3)" gradientUnits="userSpaceOnUse" id="gradient0" r="819.2" spreadMethod="pad">
      <stop offset="0.5333333333333333" stop-color="#ffffff"/>
      <stop offset="1.0" stop-color="#edf7f9"/>
    </radialGradient>
    <g id="sprite4" transform="matrix(1.0, 0.0, 0.0, 1.0, 0.0, 0.0)">
      <use ffdec:characterId="2094" height="10.55" transform="matrix(1.0, 0.0, 0.0, 1.0, 0.0, 0.0)" width="12.35" xlink:href="#shape3"/>
    </g>
    <g id="shape3" transform="matrix(1.0, 0.0, 0.0, 1.0, 0.0, 0.0)">
      <path d="M1.65 6.35 Q2.15 6.75 4.15 7.35 L5.95 7.95 7.65 8.35 Q10.2 8.35 12.05 5.75 L12.35 5.4 Q12.1 7.2 10.55 8.75 8.75 10.55 6.65 10.55 5.55 10.55 4.2 9.6 L2.15 8.35 Q0.3 7.75 0.05 6.45 L0.0 4.6 1.65 6.35" fill="#c9e0e2" fill-opacity="0.18039216" fill-rule="evenodd" stroke="none"/>
      <path d="M11.45 4.1 Q11.45 5.05 11.15 5.45 10.5 6.35 8.4 6.35 5.1 6.35 3.05 4.85 1.55 3.75 1.55 3.05 1.55 -0.35 6.5 0.05 11.45 0.45 11.45 4.1" fill="#ffffff" fill-opacity="0.30588236" fill-rule="evenodd" stroke="none"/>
    </g>
    <g id="sprite5" transform="matrix(1.0, 0.0, 0.0, 1.0, 0.0, 0.0)">
      <use ffdec:characterId="2097" height="21.3" transform="matrix(1.0, 0.0, 0.0, 1.0, 0.0, 0.0)" width="60.0" xlink:href="#shape4"/>
    </g>
    <g id="shape4" transform="matrix(1.0, 0.0, 0.0, 1.0, 0.0, 0.0)">
      <path d="M56.8 3.9 Q60.0 5.6 60.0 7.4 L59.65 8.8 59.0 10.3 Q58.75 10.9 56.8 11.9 L54.8 12.9 Q51.5 16.5 48.4 18.3 47.35 18.85 44.4 19.15 L39.2 19.3 Q38.55 19.25 35.3 20.25 L30.6 21.3 Q29.6 21.3 27.15 20.4 L24.7 19.5 20.4 20.1 13.9 19.25 Q11.85 18.55 8.4 16.5 7.6 16.0 5.45 15.7 3.45 15.4 2.8 14.9 L1.95 14.1 Q1.55 13.55 1.6 12.7 1.65 11.7 0.85 10.8 0.0 9.9 0.0 9.6 0.0 8.2 2.2 6.65 8.35 0.85 28.9 0.25 46.5 -1.05 56.8 3.9" fill="#2d6f74" fill-opacity="0.2" fill-rule="evenodd" stroke="none"/>
    </g>
    <g id="sprite6" transform="matrix(1.0, 0.0, 0.0, 1.0, 3.9, 0.5)">
      <use ffdec:characterId="2099" height="49.4" transform="matrix(1.0, 0.0, 0.0, 1.0, -3.9, -0.5)" width="72.85" xlink:href="#shape5"/>
      <use ffdec:characterId="2095" height="10.55" transform="matrix(1.2001, 0.0, 0.0, 1.0881, 37.45, 22.5)" width="12.35" xlink:href="#sprite4"/>
      <use ffdec:characterId="2095" height="10.55" transform="matrix(1.2001, 0.0, 0.0, 1.0881, 16.3, 17.1)" width="12.35" xlink:href="#sprite4"/>
      <use ffdec:characterId="2095" height="10.55" transform="matrix(0.7315, 0.0, 0.0, 0.6633, 28.65, 29.95)" width="12.35" xlink:href="#sprite4"/>
      <use ffdec:characterId="2095" height="10.55" transform="matrix(0.7315, 0.0, 0.0, 0.6633, 36.8, 19.35)" width="12.35" xlink:href="#sprite4"/>
      <use ffdec:characterId="2095" height="10.55" transform="matrix(0.7315, 0.0, 0.0, 0.6633, 5.7, 13.15)" width="12.35" xlink:href="#sprite4"/>
    </g>
    <g id="shape5" transform="matrix(1.0, 0.0, 0.0, 1.0, 3.9, 0.5)">
      <path d="M0.35 13.15 Q-1.05 17.55 -1.05 25.5 -1.05 29.5 0.65 32.35 2.35 35.15 5.1 36.3 7.8 37.45 9.1 38.15 10.4 38.8 12.25 40.5 14.1 42.15 17.1 42.7 L21.75 42.9 26.35 41.7 29.65 40.6 Q31.05 40.0 33.0 40.15 37.35 40.4 39.75 41.2 L43.75 41.0 Q45.4 40.05 48.5 39.1 51.55 38.2 52.75 36.9 L54.85 34.6 Q55.75 33.6 58.85 32.95 61.95 32.3 63.05 27.5 64.15 22.7 63.45 19.25 62.7 15.8 59.95 11.7 58.75 9.9 58.4 7.95 61.3 10.5 62.65 12.4 68.15 18.9 68.45 24.95 68.15 25.55 67.8 26.95 67.45 28.35 66.15 30.45 L62.9 34.7 59.2 38.4 56.4 40.95 51.7 43.75 Q47.75 45.65 44.65 46.2 L32.75 47.05 21.1 46.95 Q16.5 46.85 10.7 44.25 5.95 42.15 5.7 43.2 L3.75 41.8 3.1 41.3 0.95 39.8 Q-0.85 38.5 -1.7 33.65 -3.75 29.45 -3.3 24.5 -3.05 22.35 -2.3 20.25 -2.8 16.15 0.35 13.15" fill="#dff1f3" fill-rule="evenodd" stroke="none"/>
      <path d="M5.7 43.2 Q5.95 42.15 10.7 44.25 16.5 46.85 21.1 46.95 L32.75 47.05 44.65 46.2 Q47.75 45.65 51.7 43.75 L56.4 40.95 59.2 38.4 62.9 34.7 66.15 30.45 Q67.45 28.35 67.8 26.95 68.15 25.55 68.45 24.95 L68.45 25.5 Q68.45 27.8 67.05 30.8 L65.05 34.35 62.8 37.4 59.4 41.25 Q57.4 43.3 52.7 45.4 47.95 47.5 42.8 47.95 37.6 48.4 21.3 48.4 13.15 48.4 5.7 43.2" fill="#ffffff" fill-rule="evenodd" stroke="none"/>
      <path d="M58.4 7.95 Q58.75 9.9 59.95 11.7 62.7 15.8 63.45 19.25 64.15 22.7 63.05 27.5 61.95 32.3 58.85 32.95 55.75 33.6 54.85 34.6 L52.75 36.9 Q51.55 38.2 48.5 39.1 45.4 40.05 43.75 41.0 L39.75 41.2 Q37.35 40.4 33.0 40.15 31.05 40.0 29.65 40.6 L26.35 41.7 21.75 42.9 17.1 42.7 Q14.1 42.15 12.25 40.5 10.4 38.8 9.1 38.15 7.8 37.45 5.1 36.3 2.35 35.15 0.65 32.35 -1.05 29.5 -1.05 25.5 -1.05 17.55 0.35 13.15 L4.9 8.95 Q6.15 8.45 8.8 5.85 11.4 3.2 17.6 2.7 24.95 -0.2 32.55 0.0 42.25 0.3 51.3 4.4 55.6 5.55 58.4 7.95" fill="url(#gradient1)" fill-rule="evenodd" stroke="none"/>
      <path d="M58.4 7.95 Q55.6 5.55 51.3 4.4 42.25 0.3 32.55 0.0 24.95 -0.2 17.6 2.7 11.4 3.2 8.8 5.85 6.15 8.45 4.9 8.95 L0.35 13.15 Q-2.8 16.15 -2.3 20.25 -3.05 22.35 -3.3 24.5 -3.75 29.45 -1.7 33.65 -0.85 38.5 0.95 39.8 L3.1 41.3 3.75 41.8 5.7 43.2 Q13.15 48.4 21.3 48.4 37.6 48.4 42.8 47.95 47.95 47.5 52.7 45.4 57.4 43.3 59.4 41.25 L62.8 37.4 65.05 34.35 67.05 30.8 Q68.45 27.8 68.45 25.5 L68.45 24.95 Q68.15 18.9 62.65 12.4 61.3 10.5 58.4 7.95 Z" ffdec:has-small-stroke="true" ffdec:original-stroke-width="1.0" fill="none" stroke="#addeeb" stroke-linecap="round" stroke-linejoin="round" stroke-width="4.014486906465719"/>
    </g>
    <radialGradient cx="0" cy="0" gradientTransform="matrix(0.0383, 0.0, 0.0, 0.0287, 28.8, 16.85)" gradientUnits="userSpaceOnUse" id="gradient1" r="819.2" spreadMethod="pad">
      <stop offset="0.5333333333333333" stop-color="#ffffff"/>
      <stop offset="1.0" stop-color="#edf7f9"/>
    </radialGradient>
    <g id="sprite7" transform="matrix(1.0, 0.0, 0.0, 1.0, 0.1, 0.0)">
      <use ffdec:characterId="2101" height="8.35" transform="matrix(1.0, 0.0, 0.0, 1.0, -0.1, 0.0)" width="6.9" xlink:href="#shape6"/>
    </g>
    <g id="shape6" transform="matrix(1.0, 0.0, 0.0, 1.0, 0.1, 0.0)">
      <path d="M-0.1 4.3 L1.4 1.65 3.4 1.45 3.45 1.45 6.6 2.65 6.7 5.65 5.5 7.75 4.7 7.6 3.75 8.35 1.65 7.8 0.35 6.4 -0.1 4.3" fill="#000000" fill-opacity="0.3019608" fill-rule="evenodd" stroke="none"/>
      <path d="M6.7 1.7 L5.65 3.05 5.5 4.45 4.8 4.6 2.9 5.3 2.3 4.65 1.15 4.45 0.2 2.5 1.5 0.2 3.5 0.0 3.55 0.0 6.7 1.2 6.7 1.7 M4.2 1.4 L5.35 1.8 5.4 2.05 6.15 2.1 6.2 1.7 3.85 0.45 1.9 1.2 1.6 2.35 0.9 3.0 1.05 3.8 1.45 2.95 2.05 2.8 2.5 1.6 3.3 1.5 3.3 1.55 4.2 2.15 4.2 1.4" fill="#1e1e1e" fill-rule="evenodd" stroke="none"/>
      <path d="M2.5 1.6 L2.05 2.8 1.45 2.95 1.05 3.8 0.9 3.0 1.6 2.35 1.9 1.2 3.85 0.45 6.2 1.7 6.15 2.1 5.4 2.05 5.35 1.8 4.2 1.4 4.2 1.2 3.35 0.75 2.45 1.6 2.5 1.6" fill="#383838" fill-rule="evenodd" stroke="none"/>
      <path d="M6.7 1.7 L6.8 4.2 5.6 6.3 4.8 6.15 3.85 6.9 1.75 6.35 0.45 4.95 0.0 2.85 0.2 2.5 1.15 4.45 2.3 4.65 2.9 5.3 4.8 4.6 5.5 4.45 5.65 3.05 6.7 1.7" fill="#000000" fill-rule="evenodd" stroke="none"/>
      <path d="M4.2 1.4 L4.2 2.15 3.3 1.55 3.3 1.5 2.5 1.6 2.45 1.6 3.35 0.75 4.2 1.2 4.2 1.4" fill="#cccccc" fill-rule="evenodd" stroke="none"/>
    </g>
    <g id="sprite8" transform="matrix(1.0, 0.0, 0.0, 1.0, 0.0, 0.0)">
      <use ffdec:characterId="2103" height="9.9" transform="matrix(1.0, 0.0, 0.0, 1.0, 0.0, 0.0)" width="8.3" xlink:href="#shape7"/>
    </g>
    <g id="shape7" transform="matrix(1.0, 0.0, 0.0, 1.0, 0.0, 0.0)">
      <path d="M7.15 2.9 L8.3 5.55 7.4 8.55 5.05 9.9 2.6 8.85 0.75 8.8 0.0 5.9 0.2 5.65 1.05 4.25 1.15 2.6 3.8 1.6 7.15 2.9" fill="#000000" fill-opacity="0.3019608" fill-rule="evenodd" stroke="none"/>
      <path d="M5.7 1.9 L5.75 1.9 5.95 1.95 6.7 2.85 7.35 2.95 7.35 3.6 7.2 4.4 6.4 4.7 6.15 6.15 4.3 6.8 2.55 5.5 1.05 6.3 0.2 4.05 1.05 2.65 1.15 1.0 3.8 0.0 7.15 1.3 7.35 1.7 7.35 1.75 7.35 2.9 6.7 1.5 3.8 0.4 1.65 1.2 1.45 3.1 0.65 4.1 1.2 5.6 1.25 4.05 2.05 3.55 2.35 2.0 2.75 1.9 2.7 2.7 4.15 2.1 5.05 2.45 5.7 1.9" fill="#1e1e1e" fill-rule="evenodd" stroke="none"/>
      <path d="M7.35 2.95 L7.35 2.9 7.35 1.75 8.3 3.95 7.4 6.95 5.05 8.3 2.6 7.25 0.75 7.2 0.0 4.3 0.2 4.05 1.05 6.3 2.55 5.5 4.3 6.8 6.15 6.15 6.4 4.7 7.2 4.4 7.35 3.6 7.35 2.95" fill="#000000" fill-rule="evenodd" stroke="none"/>
      <path d="M2.75 1.9 L2.75 1.75 4.0 1.25 5.7 1.9 5.05 2.45 4.15 2.1 2.7 2.7 2.75 1.9" fill="#cccccc" fill-rule="evenodd" stroke="none"/>
      <path d="M7.35 2.95 L6.7 2.85 5.95 1.95 5.75 1.9 5.7 1.9 4.0 1.25 2.75 1.75 2.75 1.9 2.35 2.0 2.05 3.55 1.25 4.05 1.2 5.6 0.65 4.1 1.45 3.1 1.65 1.2 3.8 0.4 6.7 1.5 7.35 2.9 7.35 2.95" fill="#383838" fill-rule="evenodd" stroke="none"/>
    </g>
    <g id="sprite9" transform="matrix(1.0, 0.0, 0.0, 1.0, 0.0, 0.0)">
      <use ffdec:characterId="2108" height="35.35" transform="matrix(1.0, 0.0, 0.0, 1.0, 0.0, 0.0)" width="51.0" xlink:href="#sprite10"/>
      <use ffdec:characterId="2110" height="14.75" transform="matrix(1.0, 0.0, 0.0, 1.0, 9.2, 26.15)" width="37.0" xlink:href="#sprite12"/>
    </g>
    <g id="sprite10" transform="matrix(1.0, 0.0, 0.0, 1.0, 0.0, 0.0)">
      <filter id="filter4">
        <feConvolveMatrix divisor="4.0" in="SourceGraphic" kernelMatrix="1 1 1 1" order="2 2" result="filterResult6"/>
      </filter>
      <use ffdec:characterId="2106" filter="url(#filter4)" height="11.5" transform="matrix(1.0, 0.0, 0.0, 1.0, 0.0, 23.85)" width="9.3" xlink:href="#sprite11"/>
      <use ffdec:characterId="2107" height="26.75" transform="matrix(1.0, 0.0, 0.0, 1.0, 3.35, 0.0)" width="47.65" xlink:href="#shape9"/>
    </g>
    <g id="sprite11" transform="matrix(1.0, 0.0, 0.0, 1.0, 0.0, 0.0)">
      <use ffdec:characterId="2105" height="11.5" transform="matrix(1.0, 0.0, 0.0, 1.0, 0.0, 0.0)" width="9.3" xlink:href="#shape8"/>
    </g>
    <g id="shape8" transform="matrix(1.0, 0.0, 0.0, 1.0, 0.0, 0.0)">
      <path d="M4.05 0.45 L4.1 0.75 3.35 1.5 3.6 1.45 4.7 0.75 Q5.7 0.0 7.4 0.0 8.85 0.0 9.2 0.45 L9.3 1.3 Q9.3 2.65 4.3 6.4 3.85 6.7 2.95 9.25 2.2 11.5 1.15 11.5 0.35 11.5 0.1 10.5 L0.0 9.45 Q0.0 8.7 0.65 7.3 L0.95 6.65 0.9 6.25 0.9 5.4 Q0.9 3.75 1.35 2.8 2.05 1.2 4.05 0.45" fill="#2d6f74" fill-opacity="0.2" fill-rule="evenodd" stroke="none"/>
    </g>
    <g id="shape9" transform="matrix(1.0, 0.0, 0.0, 1.0, -3.35, 0.0)">
      <path d="M30.6 16.05 L30.7 15.35 35.85 11.4 36.7 11.0 Q43.9 7.55 49.1 7.0 L49.55 6.85 51.0 6.85 49.0 7.7 Q43.8 8.25 36.6 11.7 L35.75 12.1 30.6 16.05 M35.65 5.45 L35.75 4.75 37.25 2.35 39.7 0.5 39.7 1.1 37.15 3.05 35.65 5.45 M34.2 4.45 Q35.35 6.45 34.8 9.65 35.1 6.75 33.9 4.9 L34.2 4.45 M5.1 26.7 L6.8 25.95 Q7.55 25.75 9.1 23.9 L9.5 23.4 13.1 20.75 Q17.2 18.15 21.75 16.8 L25.55 18.5 28.0 18.1 29.25 16.6 32.05 16.9 33.7 18.65 37.35 18.8 37.6 18.85 37.5 19.5 33.6 19.35 31.95 17.6 29.15 17.3 27.9 18.8 25.45 19.2 21.65 17.5 Q17.4 18.75 13.1 21.9 L10.55 23.9 8.4 25.9 Q6.75 26.95 5.1 26.7" fill="#643912" fill-rule="evenodd" stroke="none"/>
      <path d="M49.55 6.85 L49.1 7.0 Q43.9 7.55 36.7 11.0 L35.85 11.4 30.7 15.35 30.6 16.05 32.6 16.35 35.05 18.3 37.35 18.8 33.7 18.65 32.05 16.9 29.25 16.6 28.0 18.1 25.55 18.5 21.75 16.8 Q17.2 18.15 13.1 20.75 L9.5 23.4 9.1 23.9 Q7.55 25.75 6.8 25.95 L5.1 26.7 4.35 26.5 Q3.1 25.9 3.4 24.55 L3.45 24.5 Q6.3 22.15 9.1 20.3 11.1 19.0 13.1 17.95 16.9 15.85 20.75 14.7 L22.9 14.7 26.4 16.55 33.45 11.15 34.65 10.55 34.75 9.85 34.8 9.65 Q35.35 6.45 34.2 4.45 L35.75 2.25 39.7 0.0 39.7 0.5 37.25 2.35 35.75 4.75 35.65 5.45 Q36.85 7.2 36.5 9.8 43.5 6.95 49.55 6.85" fill="#7b4c22" fill-rule="evenodd" stroke="none"/>
      <path d="M33.8 12.35 L33.5 12.6 32.2 13.65 31.95 13.2 33.2 12.1 33.5 11.9 33.75 11.75 33.9 12.1 34.0 12.25 33.8 12.35 M35.6 6.65 L35.7 8.0 36.0 9.35 36.0 10.4 37.3 9.8 37.25 10.4 Q35.8 11.0 34.8 11.65 L34.5 11.25 35.6 10.6 35.5 10.55 35.45 6.65 35.6 6.65 M41.6 8.6 L38.3 9.95 38.4 9.4 Q39.95 8.85 41.6 8.6 M24.65 16.25 L26.35 17.35 26.4 17.45 26.15 17.5 Q23.5 16.1 21.8 16.1 L21.75 15.35 Q23.05 15.4 24.65 16.25 M17.45 16.5 Q19.45 15.65 20.8 15.45 L20.85 16.2 Q19.5 16.4 17.65 17.15 L17.45 16.5 M27.35 16.8 L31.15 13.9 31.2 14.0 31.35 14.3 27.35 16.8 M6.5 23.85 L6.4 23.65 Q6.4 23.15 8.8 21.5 L8.9 21.75 9.1 22.15 6.5 23.85 M13.7 18.8 L13.6 18.5 15.1 17.7 16.65 16.9 16.8 17.55 Q16.0 17.9 15.1 18.4 14.45 18.7 13.8 19.1 L13.7 18.8 M12.5 19.85 L10.4 21.3 10.0 20.7 12.4 19.2 12.8 19.0 12.95 19.6 12.5 19.85" fill="#9a6e3a" fill-rule="evenodd" stroke="none"/>
    </g>
    <g id="sprite12" transform="matrix(1.0, 0.0, 0.0, 1.0, 0.0, 0.0)">
      <use ffdec:characterId="2109" height="14.75" transform="matrix(1.0, 0.0, 0.0, 1.0, 0.0, 0.0)" width="37.0" xlink:href="#shape10"/>
    </g>
    <g id="shape10" transform="matrix(1.0, 0.0, 0.0, 1.0, 0.0, 0.0)">
      <path d="M36.7 6.45 L37.0 6.9 33.5 8.95 30.35 12.15 Q22.8 7.6 19.45 9.35 L13.7 14.75 11.5 13.95 Q8.3 12.55 5.85 10.4 L1.65 9.7 Q-0.05 8.95 0.0 7.2 L0.1 6.55 Q0.05 8.25 1.75 9.0 3.65 8.35 5.5 8.95 L5.95 9.1 Q8.35 11.65 11.5 13.15 L13.8 14.05 19.55 8.65 Q22.9 6.9 30.45 11.45 L33.6 8.25 36.7 6.45 M26.3 5.95 L25.05 3.4 25.3 3.05 26.4 5.25 26.3 5.95 M28.9 0.2 L29.8 0.0 29.9 0.3 Q28.55 0.7 27.2 2.75 L26.9 3.15 27.0 2.5 Q27.95 0.95 28.9 0.2 M28.45 5.4 L28.65 5.7 26.4 8.35 26.5 7.65 28.45 5.4" fill="#643912" fill-rule="evenodd" stroke="none"/>
      <path d="M26.4 8.35 Q28.45 9.4 29.75 10.6 L32.4 8.45 36.6 6.35 36.7 6.45 33.6 8.25 30.45 11.45 Q22.9 6.9 19.55 8.65 L13.8 14.05 11.5 13.15 Q8.35 11.65 5.95 9.1 L5.5 8.95 Q3.65 8.35 1.75 9.0 0.05 8.25 0.1 6.55 0.4 5.85 1.6 5.8 L5.5 6.05 7.35 6.85 Q9.1 9.1 11.5 10.5 L13.2 11.35 18.5 7.35 Q22.05 6.35 24.1 7.35 L24.2 7.4 26.3 5.95 26.4 5.25 25.3 3.05 Q27.1 0.8 28.9 0.2 27.95 0.95 27.0 2.5 L26.9 3.15 26.9 3.2 28.45 5.4 26.5 7.65 26.4 8.35" fill="#7b4c22" fill-rule="evenodd" stroke="none"/>
      <path d="M21.75 7.35 L22.1 7.35 22.1 7.85 21.75 7.8 19.55 8.1 19.5 7.65 21.75 7.35 M23.95 7.6 L25.0 7.9 25.75 7.0 Q26.6 6.15 27.3 6.25 L25.45 8.05 26.15 8.6 26.2 8.65 26.05 8.75 Q24.25 8.2 23.1 8.0 L23.1 7.45 23.95 7.6 M13.05 12.15 L13.0 12.3 12.8 12.35 10.3 11.0 10.35 10.75 10.45 10.55 13.05 12.15 M18.15 8.8 L15.0 11.2 Q17.65 8.75 18.6 8.1 L18.65 8.45 18.15 8.8 M5.05 7.4 L6.2 7.55 6.15 7.7 6.1 8.1 2.0 7.6 Q2.0 7.4 2.65 7.4 L4.95 7.35 4.7 7.4 5.05 7.4 M9.3 9.8 L9.6 10.0 9.35 10.55 8.2 10.05 7.0 8.85 7.2 8.0 9.3 9.8" fill="#9a6e3a" fill-rule="evenodd" stroke="none"/>
    </g>
    <g id="sprite13" transform="matrix(1.0, 0.0, 0.0, 1.0, 0.4, 3.6)">
      <use ffdec:characterId="2112" height="43.2" transform="matrix(1.0, 0.0, 0.0, 1.0, -0.4, -3.6)" width="51.15" xlink:href="#shape11"/>
    </g>
    <g id="shape11" transform="matrix(1.0, 0.0, 0.0, 1.0, 0.4, 3.6)">
      <path d="M50.05 28.0 L50.75 31.7 49.1 31.95 48.25 30.8 48.3 32.2 Q46.7 32.75 45.25 33.9 L44.85 34.35 44.2 33.05 44.3 34.9 42.35 37.0 41.3 37.65 40.55 35.6 40.55 38.0 38.15 38.9 38.1 38.85 37.6 37.45 37.4 39.1 34.95 39.6 35.05 38.75 35.15 37.05 34.75 33.75 Q34.45 32.1 34.35 29.15 L34.5 27.6 Q34.7 26.0 34.4 22.95 34.05 19.9 33.2 17.85 L31.8 15.0 31.2 13.85 30.4 14.05 27.95 14.6 21.9 14.9 19.85 14.75 15.4 13.95 12.6 12.95 10.9 12.3 7.35 10.75 6.15 10.0 Q5.15 9.4 1.85 6.4 L0.05 4.7 Q-0.05 4.6 0.15 4.65 -0.85 3.5 0.0 1.95 0.95 0.55 2.3 0.1 L9.0 -2.0 Q14.3 -3.6 21.95 -3.6 28.65 -3.6 38.25 -1.45 47.6 0.65 47.6 1.9 47.6 2.5 46.4 3.65 45.15 4.9 43.05 5.95 L43.6 9.95 43.65 10.35 Q43.85 11.65 45.05 13.35 L46.3 14.8 46.35 14.9 Q48.0 16.8 49.0 20.8 L49.5 23.05 49.8 25.05 49.8 25.1 50.05 28.0" fill="#2d6f74" fill-opacity="0.2" fill-rule="evenodd" stroke="none"/>
    </g>
    <g id="sprite14" transform="matrix(1.0, 0.0, 0.0, 1.0, 5.1, 7.9)">
      <filter id="filter6">
        <feConvolveMatrix divisor="4.0" in="SourceGraphic" kernelMatrix="1 1 1 1" order="2 2" result="filterResult8"/>
      </filter>
      <use ffdec:characterId="2115" filter="url(#filter6)" height="43.8" transform="matrix(1.0, 0.0, 0.0, 1.0, -2.25, 5.05)" width="50.9" xlink:href="#sprite15"/>
      <use ffdec:characterId="2116" height="42.05" transform="matrix(1.0, 0.0, 0.0, 1.0, -4.5, -7.9)" width="56.35" xlink:href="#shape13"/>
      <use ffdec:characterId="2118" height="7.1" transform="matrix(0.995, 0.0996, -0.0996, 0.995, 35.1159, 31.9308)" width="4.7" xlink:href="#sprite16"/>
      <use ffdec:characterId="2118" height="7.1" transform="matrix(0.9975, -0.0698, 0.0698, 0.9975, 49.44, 26.0643)" width="4.7" xlink:href="#sprite16"/>
      <use ffdec:characterId="2118" height="7.1" transform="matrix(0.9984, -0.0569, 0.0569, 0.9984, 41.7918, 28.3116)" width="4.7" xlink:href="#sprite16"/>
      <use ffdec:characterId="2118" height="7.1" transform="matrix(1.0, 0.0083, -0.0083, 1.0, 38.6013, 29.9483)" width="4.7" xlink:href="#sprite16"/>
      <use ffdec:characterId="2118" height="7.1" transform="matrix(0.9886, 0.1507, -0.1507, 0.9886, 40.2749, 28.9216)" width="4.7" xlink:href="#sprite16"/>
      <use ffdec:characterId="2118" height="7.1" transform="matrix(0.9979, 0.0648, -0.0648, 0.9979, 36.8601, 30.7874)" width="4.7" xlink:href="#sprite16"/>
      <use ffdec:characterId="2118" height="7.1" transform="matrix(0.9832, -0.1826, 0.1826, 0.9832, 45.276, 26.989)" width="4.7" xlink:href="#sprite16"/>
      <use ffdec:characterId="2118" height="7.1" transform="matrix(1.0, -0.0043, 0.0043, 1.0, 43.6493, 27.6009)" width="4.7" xlink:href="#sprite16"/>
      <use ffdec:characterId="2118" height="7.1" transform="matrix(0.9986, -0.0526, 0.0526, 0.9986, 47.3924, 26.4107)" width="4.7" xlink:href="#sprite16"/>
      <use ffdec:characterId="2119" height="36.1" transform="matrix(1.0, 0.0, 0.0, 1.0, -5.1, -2.95)" width="55.95" xlink:href="#shape15"/>
    </g>
    <g id="sprite15" transform="matrix(1.0, 0.0, 0.0, 1.0, 1.9, 0.0)">
      <use ffdec:characterId="2114" height="43.8" transform="matrix(1.0, 0.0, 0.0, 1.0, -1.9, 0.0)" width="50.9" xlink:href="#shape12"/>
    </g>
    <g id="shape12" transform="matrix(1.0, 0.0, 0.0, 1.0, 1.9, 0.0)">
      <path d="M48.15 28.0 Q48.45 30.3 49.0 32.45 L47.75 34.3 Q46.95 35.45 46.75 36.15 46.2 37.8 45.15 39.0 44.15 40.15 43.05 40.45 42.25 40.65 40.6 41.5 L37.85 42.65 34.9 43.4 34.45 43.45 32.4 43.8 32.75 42.05 32.95 40.25 33.15 38.75 33.25 37.05 32.85 33.75 Q32.55 32.1 32.45 29.15 32.45 28.35 32.6 27.6 32.8 26.0 32.5 22.95 32.15 19.9 31.3 17.85 L29.9 15.0 29.3 13.85 28.5 14.05 26.05 14.6 20.0 14.9 17.95 14.75 13.5 13.95 10.7 12.95 9.0 12.3 5.45 10.75 4.25 10.0 -0.05 6.4 -1.85 4.7 Q-1.95 4.6 -1.75 4.65 L0.35 2.9 0.65 2.55 Q1.6 1.45 2.05 0.0 2.5 0.05 3.05 0.4 5.9 2.4 9.75 4.3 L9.8 4.3 10.0 4.45 Q12.95 6.0 17.6 6.75 L19.95 7.05 25.6 6.6 26.25 6.45 27.0 6.3 27.45 6.2 27.6 6.05 Q27.6 5.7 27.9 5.45 L27.9 5.4 Q28.45 4.8 30.1 4.55 L31.45 4.05 32.45 3.6 32.8 3.45 33.85 2.9 34.7 2.4 35.8 1.6 36.25 1.55 36.3 1.55 36.65 1.5 36.7 1.5 36.75 1.45 37.45 0.8 37.6 0.65 Q38.55 -0.1 39.55 0.15 41.2 0.85 40.5 2.0 L40.05 2.7 39.9 3.0 39.85 3.0 39.95 3.1 40.85 5.0 Q41.5 6.95 41.7 9.95 L41.75 10.35 Q41.95 11.65 43.15 13.35 L44.4 14.8 44.45 14.9 Q46.1 16.8 47.1 20.8 L47.6 23.05 47.9 25.05 47.9 25.1 48.15 28.0" fill="#2d6f74" fill-opacity="0.2" fill-rule="evenodd" stroke="none"/>
    </g>
    <g id="shape13" transform="matrix(1.0, 0.0, 0.0, 1.0, 4.5, 7.9)">
      <path d="M-1.85 -2.85 L-0.1 -3.9 2.95 -5.0 Q5.0 -5.65 9.05 -6.1 L11.25 -6.35 16.25 -6.7 22.85 -6.9 25.0 -6.85 31.0 -6.45 Q35.3 -5.95 38.1 -4.8 L40.25 -3.7 Q42.9 -1.9 43.05 0.9 L41.75 2.1 40.75 2.95 39.2 4.2 36.25 6.05 34.45 5.05 33.8 4.7 31.15 3.8 28.85 3.35 25.6 2.75 24.5 2.7 20.25 2.6 17.1 2.65 11.4 3.1 10.7 3.2 5.4 4.15 4.85 4.3 Q2.75 4.9 1.65 5.95 L0.0 4.8 -3.05 1.9 -3.45 1.5 Q-3.7 -1.25 -1.85 -2.85 Z" ffdec:has-small-stroke="true" ffdec:original-stroke-width="2.0" fill="none" stroke="#00375b" stroke-linecap="round" stroke-linejoin="round" stroke-width="4.014486906465719"/>
      <path d="M2.7 -2.85 Q5.8 -4.0 10.45 -4.6 L10.8 -3.2 11.3 -1.1 11.45 -0.25 11.4 1.5 10.3 1.65 Q7.1 2.15 4.4 2.95 L4.3 2.7 Q3.9 1.65 3.65 -0.3 L3.6 -0.6 2.7 -2.85 M17.2 1.1 L17.15 -1.7 17.0 -3.5 16.8 -5.15 23.0 -5.3 24.65 -5.25 24.5 -4.6 24.45 -2.5 24.4 0.25 24.4 1.1 22.0 1.0 17.2 1.1 M29.3 1.35 L29.65 0.4 Q30.45 -1.65 30.45 -3.1 L30.45 -3.2 30.4 -4.05 30.35 -4.35 30.3 -4.7 30.35 -4.7 32.8 -4.25 34.0 -4.05 34.7 -3.9 35.5 -3.65 36.55 -3.2 36.5 -3.2 Q35.85 -2.55 35.95 -0.6 35.95 -0.2 34.75 1.85 L34.6 2.25 32.9 1.8 30.35 1.4 29.3 1.35" fill="#00dd4d" fill-rule="evenodd" stroke="none"/>
      <path d="M41.75 2.0 L40.75 2.85 39.2 4.1 38.15 3.65 34.6 2.25 34.75 1.85 Q35.95 -0.2 35.95 -0.6 35.85 -2.55 36.5 -3.2 L36.55 -3.2 38.8 -1.8 39.65 -0.9 41.2 0.6 41.75 2.0 M0.0 4.7 L-3.05 1.8 Q-1.95 -1.1 2.7 -2.85 L3.6 -0.6 3.65 -0.3 Q3.9 1.65 4.3 2.7 L4.4 2.95 Q1.95 3.7 0.0 4.7 M11.4 1.5 L11.45 -0.25 11.3 -1.1 10.8 -3.2 10.45 -4.6 16.8 -5.15 17.0 -3.5 17.15 -1.7 17.2 1.1 11.4 1.5 M24.4 1.1 L24.4 0.25 24.45 -2.5 24.5 -4.6 24.65 -5.25 30.3 -4.7 30.35 -4.35 30.4 -4.05 30.45 -3.2 30.45 -3.1 Q30.45 -1.65 29.65 0.4 L29.3 1.35 25.8 1.15 24.4 1.1" fill="#006ca5" fill-rule="evenodd" stroke="none"/>
      <path d="M-0.1 -4.0 L2.95 -5.1 Q5.0 -5.75 9.05 -6.2 L10.25 -5.55 10.45 -4.6 Q5.8 -4.0 2.7 -2.85 L2.3 -3.45 -0.1 -4.0 M16.25 -6.8 L17.15 -6.85 22.85 -7.0 25.0 -6.95 25.0 -6.85 Q24.75 -6.2 24.65 -5.25 L23.0 -5.3 16.8 -5.15 16.75 -5.95 16.25 -6.8 M31.0 -6.55 L32.8 -6.3 Q35.9 -5.8 38.05 -4.9 L38.1 -4.9 40.25 -3.8 39.7 -3.9 37.85 -3.7 Q36.95 -3.55 36.55 -3.2 L35.5 -3.65 34.7 -3.9 34.0 -4.05 32.8 -4.25 30.35 -4.7 30.3 -4.7 30.1 -5.3 30.35 -5.95 31.0 -6.55 M39.7 -3.9 L40.0 -3.9 Q39.9 -3.9 39.75 -4.0 L39.7 -3.9" fill="#00ff96" fill-rule="evenodd" stroke="none"/>
      <path d="M9.05 -6.2 L11.25 -6.45 16.25 -6.8 16.75 -5.95 16.8 -5.15 10.45 -4.6 10.25 -5.55 9.05 -6.2 M25.0 -6.95 L27.8 -6.85 30.35 -6.6 31.0 -6.55 30.35 -5.95 30.1 -5.3 30.3 -4.7 24.65 -5.25 Q24.75 -6.2 25.0 -6.85 L25.0 -6.95 M40.25 -3.8 Q42.9 -2.0 43.05 0.8 L41.75 2.0 41.2 0.6 39.65 -0.9 38.8 -1.8 36.55 -3.2 Q36.95 -3.55 37.85 -3.7 L39.7 -3.9 40.25 -3.8 M-3.05 1.8 L-3.45 1.4 Q-3.7 -1.35 -1.85 -2.95 L-0.1 -4.0 2.3 -3.45 2.7 -2.85 Q-1.95 -1.1 -3.05 1.8" fill="#0072ad" fill-rule="evenodd" stroke="none"/>
      <path d="M39.7 -3.9 L39.75 -4.0 Q39.9 -3.9 40.0 -3.9 L39.7 -3.9" fill="#009900" fill-rule="evenodd" stroke="none"/>
      <path d="M39.2 4.1 L36.25 5.95 34.45 4.95 33.8 4.6 Q34.0 3.3 34.6 2.25 L38.15 3.65 39.2 4.1 M28.85 3.25 L25.6 2.65 24.5 2.6 24.4 1.1 25.8 1.15 29.3 1.35 Q28.9 2.5 28.85 3.25 M17.1 2.55 L11.4 3.0 11.4 2.05 11.4 1.5 17.2 1.1 17.2 1.7 17.1 2.55 M4.85 4.2 Q2.75 4.8 1.65 5.85 L0.0 4.7 Q1.95 3.7 4.4 2.95 L4.85 4.2" fill="#005585" fill-rule="evenodd" stroke="none"/>
      <path d="M33.8 4.6 L32.9 4.25 31.15 3.7 28.85 3.25 Q28.9 2.5 29.3 1.35 L30.35 1.4 32.9 1.8 34.6 2.25 Q34.0 3.3 33.8 4.6 M24.5 2.6 L20.25 2.5 17.1 2.55 17.2 1.7 17.2 1.1 22.0 1.0 24.4 1.1 24.5 2.6 M11.4 3.0 L10.7 3.1 5.4 4.05 4.85 4.2 4.4 2.95 Q7.1 2.15 10.3 1.65 L11.4 1.5 11.4 2.05 11.4 3.0" fill="#00870d" fill-rule="evenodd" stroke="none"/>
      <path d="M30.95 10.2 L31.65 11.85 31.85 12.2 32.95 13.8 33.4 14.35 Q34.15 15.25 34.55 16.45 L34.8 17.6 Q35.1 19.65 34.55 22.4 L34.4 23.15 33.9 24.95 Q33.85 27.3 34.15 29.15 34.6 31.75 35.8 33.15 L36.4 32.75 Q42.4 28.8 50.85 26.45 49.8 25.2 49.1 23.75 48.1 21.7 47.65 19.35 L47.4 17.35 47.1 15.95 46.6 14.4 Q45.6 11.65 43.95 10.5 L43.9 10.4 42.65 9.5 Q41.45 8.4 41.25 7.5 L41.2 7.25 Q41.0 5.2 40.35 3.85 L39.9 3.15 39.45 2.6 39.35 2.5 39.55 2.3 40.0 1.8 Q40.7 0.9 39.05 0.6 38.05 0.5 37.1 1.1 L36.15 1.75 35.3 1.9 34.2 2.55 33.35 2.95 33.05 3.1 32.3 3.45 31.95 3.55 30.95 3.95 30.0 4.25 29.6 4.4 Q27.95 4.75 27.4 5.2 L27.4 5.25 Q27.1 5.4 27.1 5.65 L27.65 5.6" ffdec:has-small-stroke="true" ffdec:original-stroke-width="2.0" fill="none" stroke="#00456b" stroke-linecap="round" stroke-linejoin="round" stroke-width="4.014486906465719"/>
    </g>
    <g id="sprite16" transform="matrix(1.0, 0.0, 0.0, 1.0, 0.2, 0.15)">
      <use ffdec:characterId="2117" height="7.1" transform="matrix(1.0, 0.0, 0.0, 1.0, -0.2, -0.15)" width="4.7" xlink:href="#shape14"/>
    </g>
    <g id="shape14" transform="matrix(1.0, 0.0, 0.0, 1.0, 0.2, 0.15)">
      <path d="M3.0 5.15 L3.5 5.55 1.3 1.05 0.65 1.45 2.8 5.85 2.7 5.55 3.0 5.15 3.0 5.1 2.75 5.15 2.9 5.1 Q3.05 5.0 3.0 5.15 M2.5 6.9 Q1.9 6.8 1.85 6.3 L-0.2 0.85 1.3 -0.15 4.35 4.95 4.5 5.65 Q4.6 6.15 4.15 6.45 L3.4 6.9 2.5 6.9" fill="#00375b" fill-rule="evenodd" stroke="none"/>
      <path d="M0.5 0.35 L1.05 0.0 3.6 5.2 3.25 5.5 3.0 5.45 Q1.2 2.95 0.5 0.35" fill="#006ca5" fill-rule="evenodd" stroke="none"/>
      <path d="M3.6 5.2 L3.7 5.4 Q3.75 5.8 3.25 6.0 L2.6 6.0 0.0 0.65 0.5 0.35 Q1.2 2.95 3.0 5.45 L3.25 5.5 3.6 5.2" fill="#005585" fill-rule="evenodd" stroke="none"/>
    </g>
    <g id="shape15" transform="matrix(1.0, 0.0, 0.0, 1.0, 5.1, 2.95)">
      <path d="M24.9 11.65 L24.95 11.9 24.8 12.15 24.2 12.15 24.1 11.85 24.3 11.55 24.9 11.65" fill="#00dd4d" fill-rule="evenodd" stroke="none"/>
      <path d="M39.3 12.3 L41.45 9.9 Q43.25 7.75 43.3 4.85 L43.1 0.0 41.5 -1.85 Q41.05 -2.1 40.3 0.3 39.5 2.65 36.6 4.65 M32.8 6.45 L29.55 6.95 28.2 7.2 27.3 7.35 25.1 7.65 20.5 7.9 14.75 7.35 Q11.65 6.85 7.6 5.1 L1.5 2.2 Q-0.6 1.05 -1.15 -0.4 -1.7 -1.85 -2.25 -1.95 -2.8 -2.1 -3.5 -1.1 -4.2 -0.1 -4.1 0.35 L-3.95 1.2 -3.9 1.7 -3.75 2.6 -3.5 3.75 -3.15 5.55 -2.8 7.2 -2.3 8.75 Q-1.85 9.85 -0.5 10.8 L1.75 12.1 3.85 13.1 Q5.05 13.65 5.8 13.8 L7.9 14.5 11.5 15.65 17.25 16.6 19.9 16.75 27.7 16.4 30.85 15.8 32.3 15.4 33.75 14.85 34.6 14.55" ffdec:has-small-stroke="true" ffdec:original-stroke-width="2.0" fill="none" stroke="#00456b" stroke-linecap="round" stroke-linejoin="round" stroke-width="4.014486906465719"/>
      <path d="M36.6 4.65 Q39.5 2.6 40.25 -0.25 40.95 -3.1 42.0 -1.7 L43.1 0.0 Q43.45 2.5 42.0 4.45 39.85 6.95 37.7 7.8 L36.6 4.65 M27.7 16.7 L19.9 17.05 17.25 16.85 17.0 16.4 17.0 16.2 21.7 16.5 28.15 15.95 27.7 16.7 M5.7 14.0 L4.45 13.5 1.8 12.45 -0.55 11.0 Q-1.95 10.05 -2.45 9.0 L-3.0 7.6 -3.2 6.7 -2.55 7.85 Q-1.5 9.8 0.2 10.75 L2.35 11.95 2.9 12.15 5.8 13.0 5.55 13.5 5.7 14.0 M-4.1 0.35 L-3.9 -0.7 -2.75 -2.0 Q-1.85 -2.75 -1.2 -0.85 -0.6 1.05 1.0 1.9 3.6 3.3 6.7 4.7 L6.45 5.1 6.45 5.2 5.3 6.1 5.0 7.1 1.25 5.45 Q-0.3 4.7 -1.45 3.6 L-4.0 0.65 -4.1 0.35 M16.8 7.55 L19.85 7.9 27.1 7.4 27.7 7.8 Q28.25 8.5 28.25 9.4 L28.2 10.2 18.75 10.85 15.95 10.75 15.85 10.05 15.95 8.9 Q16.1 8.3 16.8 7.55" fill="#005585" fill-rule="evenodd" stroke="none"/>
      <path d="M-3.2 6.7 L-3.55 5.2 -4.05 2.55 -3.95 1.5 -3.95 1.2 -3.4 3.35 -3.0 4.7 -2.75 6.45 -2.55 7.85 -3.2 6.7 M37.7 7.8 Q39.85 6.95 42.0 4.45 41.9 6.0 41.55 6.35 L39.1 8.35 38.1 8.9 37.7 7.8 M28.2 10.2 L27.9 11.3 27.9 11.5 20.3 12.15 16.25 12.0 15.95 10.75 18.75 10.85 28.2 10.2" fill="#0072ad" fill-rule="evenodd" stroke="none"/>
      <path d="M43.1 0.0 Q43.65 2.15 43.6 5.0 43.55 7.9 39.95 11.8 L39.3 12.3 38.1 8.9 39.1 8.35 41.55 6.35 Q41.9 6.0 42.0 4.45 43.45 2.5 43.1 0.0 M16.25 12.0 L20.3 12.15 27.9 11.5 27.6 13.0 27.75 13.95 27.85 14.55 28.15 15.85 28.15 15.95 21.7 16.5 17.0 16.2 16.75 13.1 16.45 12.5 16.25 12.0" fill="#006ca5" fill-rule="evenodd" stroke="none"/>
      <path d="M33.2 6.0 L34.05 5.8 34.95 5.5 36.6 4.65 37.7 7.8 35.1 8.7 Q34.3 7.05 33.2 6.0 M27.95 7.2 Q28.8 7.3 29.1 7.75 L30.05 10.0 29.45 10.15 28.85 8.5 Q28.5 7.4 27.95 7.2 M5.0 7.1 L5.3 6.1 6.45 5.2 6.35 6.9 6.4 7.9 5.1 7.1 5.0 7.1" fill="#00a320" fill-rule="evenodd" stroke="none"/>
      <path d="M39.3 12.3 Q38.1 13.25 36.3 14.05 L35.75 10.9 35.1 8.7 37.7 7.8 38.1 8.9 39.3 12.3 M30.6 16.1 L27.7 16.7 28.15 15.95 Q29.35 15.65 29.25 15.25 L29.15 14.1 29.15 12.9 Q29.15 12.2 29.45 11.35 L29.45 10.15 30.05 10.0 30.4 11.7 30.6 12.95 30.85 14.2 31.05 15.05 30.6 16.1 M17.25 16.85 L11.5 15.9 7.9 14.75 5.7 14.0 5.55 13.5 5.8 13.0 7.0 13.4 7.25 13.5 10.15 14.7 Q14.2 16.25 15.75 16.2 L17.0 16.2 17.0 16.4 17.25 16.85 M7.0 4.85 L8.35 5.45 Q11.8 6.85 16.8 7.55 16.1 8.3 15.95 8.9 L15.85 10.05 15.95 10.75 11.9 9.95 8.65 8.85 8.4 8.75 6.4 7.9 6.35 6.9 6.45 5.2 7.0 4.85 M27.1 7.4 L27.9 7.2 27.95 7.2 Q28.5 7.4 28.85 8.5 L29.45 10.15 28.2 10.2 28.25 9.4 Q28.25 8.5 27.7 7.8 L27.1 7.4" fill="#00d248" fill-rule="evenodd" stroke="none"/>
      <path d="M27.95 7.2 L33.2 6.0 Q34.3 7.05 35.1 8.7 L30.05 10.0 29.1 7.75 Q28.8 7.3 27.95 7.2" fill="#00870d" fill-rule="evenodd" stroke="none"/>
      <path d="M36.3 14.05 L32.3 15.6 31.95 15.75 31.45 15.9 30.55 16.1 30.85 16.0 30.6 16.1 31.05 15.05 30.85 14.2 30.6 12.95 30.4 11.7 30.05 10.0 35.1 8.7 35.75 10.9 36.3 14.05" fill="#00a721" fill-rule="evenodd" stroke="none"/>
      <path d="M28.2 10.2 L29.45 10.15 29.45 11.35 27.9 11.5 27.9 11.3 28.2 10.2 M6.4 7.9 L8.4 8.75 8.65 8.85 11.9 9.95 15.95 10.75 16.25 12.0 12.1 11.45 8.5 10.45 6.85 9.85 6.4 7.9" fill="#00ff96" fill-rule="evenodd" stroke="none"/>
      <path d="M27.9 11.5 L29.45 11.35 Q29.15 12.2 29.15 12.9 L29.15 14.1 29.25 15.25 Q29.35 15.65 28.15 15.95 L28.15 15.85 27.85 14.55 27.75 13.95 27.6 13.0 27.9 11.5 M6.85 9.85 L8.5 10.45 12.1 11.45 16.25 12.0 16.45 12.5 16.75 13.1 17.0 16.2 15.75 16.2 Q14.2 16.25 10.15 14.7 L9.5 14.05 8.5 12.85 8.3 12.55 Q7.35 11.2 6.85 9.85" fill="#00ff76" fill-rule="evenodd" stroke="none"/>
      <path d="M6.7 4.7 L6.75 4.7 7.0 4.85 6.45 5.2 6.45 5.1 6.7 4.7" fill="#009900" fill-rule="evenodd" stroke="none"/>
      <path d="M6.85 9.85 Q7.35 11.2 8.3 12.55 L8.5 12.85 9.5 14.05 10.15 14.7 7.25 13.5 7.0 13.4 5.8 13.0 5.9 12.35 5.95 11.55 5.45 9.6 Q4.9 8.4 4.9 7.75 L5.0 7.1 5.1 7.1 6.4 7.9 6.85 9.85" fill="#00dd4d" fill-rule="evenodd" stroke="none"/>
      <path d="M-3.95 1.2 L-4.1 0.4 -4.1 0.35 -4.0 0.65 -1.45 3.6 Q-0.3 4.7 1.25 5.45 L5.0 7.1 4.9 7.75 Q4.9 8.4 5.45 9.6 L5.95 11.55 5.9 12.35 5.8 13.0 2.9 12.15 2.35 11.95 0.2 10.75 Q-1.5 9.8 -2.55 7.85 L-2.75 6.45 -3.0 4.7 -3.4 3.35 -3.95 1.2" fill="#006195" fill-rule="evenodd" stroke="none"/>
      <path d="M34.9 9.15 L35.0 9.1 37.55 8.1 40.4 7.55 41.25 7.5 Q41.45 8.4 42.65 9.5 L40.0 10.2 37.3 11.05 35.7 11.25 35.05 11.35 34.85 10.85 34.9 9.15 M46.6 14.4 L47.1 15.95 46.35 16.85 44.3 17.95 42.6 18.65 40.45 19.25 38.5 19.0 38.15 18.85 Q37.25 18.65 36.75 17.05 L41.4 15.8 44.5 15.1 46.6 14.4 M34.0 10.1 Q34.1 10.85 34.5 11.45 L34.3 11.5 33.3 11.6 33.05 11.1 Q32.85 10.85 33.3 10.25 33.7 9.6 34.0 10.1" fill="#0072ad" fill-rule="evenodd" stroke="none"/>
      <path d="M42.65 9.5 L43.9 10.4 43.95 10.5 Q45.6 11.65 46.6 14.4 L44.5 15.1 41.4 15.8 36.75 17.05 Q36.25 15.15 35.85 14.75 L34.9 13.75 33.95 12.55 33.3 11.6 34.3 11.5 34.5 11.45 35.3 12.3 35.85 12.7 35.05 11.35 35.7 11.25 37.3 11.05 40.0 10.2 42.65 9.5 M38.85 2.15 L39.3 2.5 39.45 2.6 36.9 4.0 36.65 3.7 37.95 2.95 38.85 2.15 M35.95 4.1 L36.0 4.2 36.2 4.4 35.85 4.55 34.05 5.5 33.75 5.05 35.5 4.35 35.95 4.1 M31.05 5.8 L32.7 5.45 32.95 5.4 33.25 5.8 Q32.0 6.2 31.5 6.85 L31.25 6.4 31.05 5.8" fill="#00ff96" fill-rule="evenodd" stroke="none"/>
      <path d="M40.35 3.85 Q41.0 5.2 41.2 7.25 L41.25 7.5 40.4 7.55 37.55 8.1 35.0 9.1 34.9 9.15 34.9 8.85 34.9 8.0 34.45 6.2 36.0 5.6 36.7 5.4 37.0 6.35 37.8 7.5 37.7 7.2 37.35 5.1 38.7 4.45 40.35 3.85 M47.1 15.95 L47.4 17.3 47.4 17.35 47.65 19.35 Q46.95 19.95 45.45 20.3 42.65 20.7 41.6 21.1 L39.15 21.9 Q36.4 22.8 36.4 22.9 L36.5 21.6 36.6 20.45 36.7 19.35 36.75 17.05 Q37.25 18.65 38.15 18.85 L38.5 19.0 40.45 19.25 42.6 18.65 44.3 17.95 46.35 16.85 47.1 15.95 M49.1 23.75 Q49.8 25.2 50.85 26.45 42.4 28.8 37.3 32.2 37.3 31.5 36.8 30.5 36.3 29.5 36.05 28.1 35.55 28.4 35.15 28.6 L36.0 28.1 Q36.65 27.7 37.0 27.6 L40.6 26.35 41.2 26.1 45.4 25.0 47.8 24.55 49.1 23.75 M31.5 6.85 L33.1 6.6 33.5 6.5 Q33.85 7.7 34.0 10.1 33.7 9.6 33.3 10.25 32.85 10.85 33.05 11.1 31.85 9.6 31.9 9.0 L31.75 7.85 31.5 6.85" fill="#006295" fill-rule="evenodd" stroke="none"/>
      <path d="M40.35 3.85 L38.7 4.45 37.35 5.1 37.25 4.75 37.0 4.1 36.9 4.0 39.45 2.6 40.35 3.85 M36.7 5.4 L36.0 5.6 34.45 6.2 34.4 6.05 34.1 5.55 34.05 5.5 35.85 4.55 36.2 4.4 36.35 4.65 36.7 5.4 M47.65 19.35 Q48.1 21.7 49.1 23.75 L47.8 24.55 45.4 25.0 41.2 26.1 40.6 26.35 37.0 27.6 Q36.65 27.7 36.0 28.1 L35.75 25.3 Q35.75 24.15 36.45 22.9 L36.4 22.9 Q36.4 22.8 39.15 21.9 L41.6 21.1 Q42.65 20.7 45.45 20.3 46.95 19.95 47.65 19.35 M33.25 5.8 L33.4 6.15 33.5 6.5 33.1 6.6 31.5 6.85 Q32.0 6.2 33.25 5.8" fill="#00f06f" fill-rule="evenodd" stroke="none"/>
      <path d="M34.15 29.15 Q33.85 27.3 33.9 24.95 L34.4 23.15 34.9 23.15 36.4 22.9 36.45 22.9 Q35.75 24.15 35.75 25.3 L36.0 28.1 35.15 28.6 34.15 29.15 M34.8 17.6 L34.55 16.45 Q34.15 15.25 33.4 14.35 L32.95 13.8 31.85 12.2 Q32.2 12.05 33.3 11.6 L33.95 12.55 34.9 13.75 35.85 14.75 Q36.25 15.15 36.75 17.05 L35.1 17.6 34.8 17.6 M30.4 7.25 L29.95 6.3 31.05 5.8 Q29.55 4.45 28.55 4.8 L27.4 5.25 27.4 5.2 Q27.95 4.75 29.6 4.4 L30.95 3.95 Q31.65 4.1 32.1 4.45 L32.95 5.4 33.75 5.05 33.65 4.9 33.4 4.65 31.95 3.55 32.3 3.45 33.35 2.95 Q35.1 3.2 35.95 4.1 L36.65 3.7 36.9 4.0 37.0 4.1 37.25 4.75 37.35 5.1 36.7 5.4 36.35 4.65 36.2 4.4 36.0 4.2 35.95 4.1 35.5 4.35 33.75 5.05 34.05 5.5 34.1 5.55 34.4 6.05 34.45 6.2 34.1 6.35 33.5 6.5 33.4 6.15 33.25 5.8 32.95 5.4 32.7 5.45 31.05 5.8 31.25 6.4 31.5 6.85 30.4 7.25 M34.2 2.55 L35.3 1.9 Q37.45 1.35 38.85 2.15 L37.95 2.95 36.65 3.7 Q35.85 2.9 34.2 2.55 M34.5 11.45 L35.05 11.35 35.85 12.7 35.3 12.3 34.5 11.45" fill="#00d248" fill-rule="evenodd" stroke="none"/>
      <path d="M29.95 6.3 L29.85 6.25 28.9 5.7 27.1 5.65 Q27.1 5.4 27.4 5.25 L28.55 4.8 Q29.55 4.45 31.05 5.8 L29.95 6.3 M30.95 3.95 L31.95 3.55 33.4 4.65 33.65 4.9 33.75 5.05 32.95 5.4 32.1 4.45 Q31.65 4.1 30.95 3.95 M33.35 2.95 L34.2 2.55 Q35.85 2.9 36.65 3.7 L35.95 4.1 Q35.1 3.2 33.35 2.95" fill="#00870d" fill-rule="evenodd" stroke="none"/>
      <path d="M37.35 5.1 L37.7 7.2 37.8 7.5 37.0 6.35 36.7 5.4 37.35 5.1 M34.45 6.2 L34.9 8.0 34.9 8.85 34.9 9.15 34.85 10.85 35.05 11.35 34.5 11.45 Q34.1 10.85 34.0 10.1 33.85 7.7 33.5 6.5 L34.1 6.35 34.45 6.2 M37.3 32.2 L35.8 33.15 Q34.6 31.75 34.15 29.15 L35.15 28.6 Q35.55 28.4 36.05 28.1 36.3 29.5 36.8 30.5 37.3 31.5 37.3 32.2 M34.4 23.15 L34.55 22.4 Q35.1 19.65 34.8 17.6 L35.1 17.6 36.75 17.05 36.7 19.35 36.6 20.45 36.5 21.6 36.4 22.9 34.9 23.15 34.4 23.15 M31.85 12.2 L31.65 11.85 Q30.6 9.9 30.55 8.15 L30.45 7.55 30.4 7.25 31.5 6.85 31.75 7.85 31.9 9.0 Q31.85 9.6 33.05 11.1 L33.3 11.6 Q32.2 12.05 31.85 12.2" fill="#005585" fill-rule="evenodd" stroke="none"/>
    </g>
    <g id="sprite17" transform="matrix(1.0, 0.0, 0.0, 1.0, 0.5, 0.5)">
      <use ffdec:characterId="2121" height="45.75" transform="matrix(1.0, 0.0, 0.0, 1.0, -0.5, -0.5)" width="52.4" xlink:href="#shape16"/>
      <use ffdec:characterId="2095" height="10.55" transform="matrix(1.0881, 0.0, 0.0, 1.0881, 27.4, 21.3)" width="12.35" xlink:href="#sprite4"/>
      <use ffdec:characterId="2095" height="10.55" transform="matrix(1.0881, 0.0, 0.0, 1.0881, 12.6, 6.5)" width="12.35" xlink:href="#sprite4"/>
      <use ffdec:characterId="2095" height="10.55" transform="matrix(0.6633, 0.0, 0.0, 0.6633, 16.2, 24.55)" width="12.35" xlink:href="#sprite4"/>
      <use ffdec:characterId="2095" height="10.55" transform="matrix(0.6633, 0.0, 0.0, 0.6633, 1.8, 13.95)" width="12.35" xlink:href="#sprite4"/>
      <use ffdec:characterId="2095" height="10.55" transform="matrix(0.6633, 0.0, 0.0, 0.6633, 25.0, 4.15)" width="12.35" xlink:href="#sprite4"/>
      <use ffdec:characterId="2095" height="10.55" transform="matrix(0.6633, 0.0, 0.0, 0.6633, 37.2, 12.75)" width="12.35" xlink:href="#sprite4"/>
    </g>
    <g id="shape16" transform="matrix(1.0, 0.0, 0.0, 1.0, 0.5, 0.5)">
      <path d="M4.15 32.2 L7.1 34.75 Q8.8 36.35 12.7 38.4 19.3 42.95 23.05 43.1 L30.35 42.8 Q33.95 42.3 35.75 41.35 37.5 40.35 38.8 39.0 40.1 37.6 41.2 37.3 42.3 36.95 44.5 34.05 46.65 31.1 46.45 32.15 50.0 29.85 48.85 26.35 L50.35 22.5 51.35 19.25 51.35 22.1 Q51.2 24.1 50.65 26.05 51.2 32.1 45.1 35.6 44.1 36.55 42.25 39.0 40.35 41.4 36.4 42.25 L32.8 43.75 Q29.3 44.9 25.7 44.75 22.85 44.65 20.0 43.75 15.95 42.5 11.95 39.6 9.7 38.5 7.45 36.8 5.15 35.05 4.45 32.6 L4.15 32.2" fill="#ffffff" fill-rule="evenodd" stroke="none"/>
      <path d="M45.25 6.05 L45.8 6.6 46.2 7.05 Q50.3 10.1 50.2 13.65 51.2 16.3 51.35 19.25 L50.35 22.5 48.85 26.35 Q50.0 29.85 46.45 32.15 46.65 31.1 44.5 34.05 42.3 36.95 41.2 37.3 40.1 37.6 38.8 39.0 37.5 40.35 35.75 41.35 33.95 42.3 30.35 42.8 L23.05 43.1 Q19.3 42.95 12.7 38.4 8.8 36.35 7.1 34.75 L4.15 32.2 Q0.0 26.8 0.0 21.2 0.0 19.05 1.0 16.3 1.75 14.35 2.35 13.4 L2.25 13.7 Q1.65 15.6 1.65 18.25 1.65 20.25 3.2 24.75 4.7 29.25 6.3 29.6 L9.1 30.2 Q9.1 32.15 11.3 33.15 13.5 34.1 14.25 34.8 17.75 35.2 18.7 35.75 19.6 36.3 22.85 35.8 L27.8 36.65 Q29.95 36.8 34.15 34.5 39.5 32.55 40.9 30.0 42.3 27.45 44.65 25.45 46.2 23.85 46.8 22.4 L47.95 17.85 Q48.8 13.2 47.75 11.55 46.65 9.9 45.55 6.85 L45.25 6.05" fill="#dff1f3" fill-rule="evenodd" stroke="none"/>
      <path d="M45.25 6.05 L45.55 6.85 Q46.65 9.9 47.75 11.55 48.8 13.2 47.95 17.85 L46.8 22.4 Q46.2 23.85 44.65 25.45 42.3 27.45 40.9 30.0 39.5 32.55 34.15 34.5 29.95 36.8 27.8 36.65 L22.85 35.8 Q19.6 36.3 18.7 35.75 17.75 35.2 14.25 34.8 13.5 34.1 11.3 33.15 9.1 32.15 9.1 30.2 L6.3 29.6 Q4.7 29.25 3.2 24.75 1.65 20.25 1.65 18.25 1.65 15.6 2.25 13.7 L2.35 13.4 2.45 13.25 5.95 7.1 Q7.9 3.55 9.6 2.95 14.7 0.75 19.3 0.3 22.05 0.0 33.75 0.0 39.4 0.0 45.25 6.05" fill="url(#gradient2)" fill-rule="evenodd" stroke="none"/>
      <path d="M51.35 19.25 Q51.2 16.3 50.2 13.65 50.3 10.1 46.2 7.05 L45.8 6.6 45.25 6.05 Q39.4 0.0 33.75 0.0 22.05 0.0 19.3 0.3 14.7 0.75 9.6 2.95 7.9 3.55 5.95 7.1 L2.45 13.25 2.35 13.4 Q1.75 14.35 1.0 16.3 0.0 19.05 0.0 21.2 0.0 26.8 4.15 32.2 L4.45 32.6 Q5.15 35.05 7.45 36.8 9.7 38.5 11.95 39.6 15.95 42.5 20.0 43.75 22.85 44.65 25.7 44.75 29.3 44.9 32.8 43.75 L36.4 42.25 Q40.35 41.4 42.25 39.0 44.1 36.55 45.1 35.6 51.2 32.1 50.65 26.05 51.2 24.1 51.35 22.1 L51.35 19.25 Z" ffdec:has-small-stroke="true" ffdec:original-stroke-width="1.0" fill="none" stroke="#addeeb" stroke-linecap="round" stroke-linejoin="round" stroke-width="4.014486906465719"/>
    </g>
    <radialGradient cx="0" cy="0" gradientTransform="matrix(0.0334, 0.0, 0.0, 0.028, 25.0, 13.0)" gradientUnits="userSpaceOnUse" id="gradient2" r="819.2" spreadMethod="pad">
      <stop offset="0.5333333333333333" stop-color="#ffffff"/>
      <stop offset="1.0" stop-color="#edf7f9"/>
    </radialGradient>
    <g id="sprite18" transform="matrix(1.0, 0.0, 0.0, 1.0, 3.4, 0.0)">
      <use ffdec:characterId="2124" height="9.3" transform="matrix(1.0, 0.0, 0.0, 1.0, -3.4, 36.0)" width="34.9" xlink:href="#sprite19"/>
      <use ffdec:characterId="2126" height="39.8" transform="matrix(1.0, 0.0, 0.0, 1.0, 0.75, 0.0)" width="36.65" xlink:href="#sprite20"/>
    </g>
    <g id="sprite19" transform="matrix(1.0, 0.0, 0.0, 1.0, 0.0, 0.0)">
      <use ffdec:characterId="2123" height="9.3" transform="matrix(1.0, 0.0, 0.0, 1.0, 0.0, 0.0)" width="34.9" xlink:href="#shape17"/>
    </g>
    <g id="shape17" transform="matrix(1.0, 0.0, 0.0, 1.0, 0.0, 0.0)">
      <path d="M34.9 7.9 L33.45 7.75 30.85 5.05 Q29.55 4.05 28.2 3.6 L26.2 3.15 25.8 3.1 24.8 3.1 Q20.4 3.7 19.6 4.65 18.75 5.55 16.05 6.9 L11.8 5.5 6.8 7.35 Q4.5 5.85 1.8 5.3 4.15 5.2 6.7 6.55 L8.75 5.1 8.45 4.95 8.95 4.55 3.0 1.3 2.4 0.35 13.15 4.9 14.3 5.35 14.9 5.45 15.25 5.45 Q16.45 5.4 17.5 4.4 L17.55 4.35 Q19.95 0.7 24.25 1.1 L25.8 1.35 28.2 1.95 30.85 3.05 31.4 3.4 Q32.85 4.25 34.1 5.4 35.05 6.9 34.9 7.9" fill="#7b4c22" fill-rule="evenodd" stroke="none"/>
      <path d="M34.9 7.9 Q34.7 8.9 33.35 9.3 31.5 6.45 29.45 5.05 L28.2 4.35 Q27.2 3.85 26.2 3.7 L25.8 3.65 24.6 3.65 Q20.3 4.25 19.8 5.2 19.25 6.1 15.85 7.45 L11.6 6.05 6.6 7.9 Q3.65 6.0 0.0 5.6 L1.8 5.3 Q4.5 5.85 6.8 7.35 L11.8 5.5 16.05 6.9 Q18.75 5.55 19.6 4.65 20.4 3.7 24.8 3.1 L25.8 3.1 26.2 3.15 28.2 3.6 Q29.55 4.05 30.85 5.05 L33.45 7.75 34.9 7.9 M8.45 4.95 L2.8 1.85 1.65 0.0 2.4 0.35 3.0 1.3 8.95 4.55 8.45 4.95" fill="#643912" fill-rule="evenodd" stroke="none"/>
      <path d="M32.25 4.9 L32.2 5.0 Q31.8 4.45 30.7 3.9 L30.75 3.4 32.25 4.9 M29.75 3.2 L29.75 3.45 Q28.55 2.95 26.8 2.75 L26.6 2.0 26.8 2.05 Q28.85 2.4 29.75 2.85 L29.75 3.2 M22.75 2.5 L22.2 2.65 21.95 2.05 22.05 2.0 25.4 1.85 25.7 2.65 22.75 2.5 M19.85 3.95 L17.3 5.6 19.6 3.6 Q20.25 3.0 21.05 2.55 L21.3 3.1 Q20.65 3.4 19.85 3.95 M15.1 6.15 L14.75 6.2 12.9 5.85 12.95 5.4 12.95 5.15 15.1 6.15 M5.55 2.35 L10.65 4.2 11.9 4.7 11.95 5.4 11.95 5.55 10.95 5.15 7.65 6.65 7.5 6.6 9.15 5.5 Q9.85 5.1 10.5 4.95 L9.55 4.5 5.45 2.45 5.55 2.35" fill="#9a6e3a" fill-rule="evenodd" stroke="none"/>
    </g>
    <g id="sprite20" transform="matrix(1.0, 0.0, 0.0, 1.0, 0.0, 0.0)">
      <use ffdec:characterId="2125" height="39.8" transform="matrix(1.0, 0.0, 0.0, 1.0, 0.0, 0.0)" width="36.65" xlink:href="#shape18"/>
    </g>
    <g id="shape18" transform="matrix(1.0, 0.0, 0.0, 1.0, 0.0, 0.0)">
      <path d="M8.05 11.35 Q5.45 8.05 3.5 2.7 L3.3 0.0 3.7 1.05 3.75 2.05 Q5.75 7.55 8.45 10.85 L8.05 11.35 M36.65 38.5 Q36.45 39.95 34.1 39.8 32.8 37.6 31.3 35.75 L30.45 34.8 Q27.7 31.8 24.25 29.95 L21.35 31.0 14.9 31.15 Q11.35 28.45 8.9 25.5 L5.5 25.1 1.35 23.3 1.05 22.3 1.55 22.5 1.6 22.65 5.75 24.45 9.15 24.85 Q11.6 27.8 15.25 30.2 L21.5 30.15 24.5 29.3 Q27.75 31.0 30.45 33.55 L32.6 35.75 34.55 38.25 Q36.1 39.25 36.65 38.5 M7.0 23.0 L6.75 22.6 4.85 19.05 5.35 17.1 Q4.65 14.2 2.0 13.8 L0.0 12.6 0.9 12.35 2.25 13.15 Q4.9 13.55 5.6 16.45 L5.1 18.4 Q5.95 20.4 7.25 22.35 L7.0 23.0" fill="#643912" fill-rule="evenodd" stroke="none"/>
      <path d="M8.05 11.35 L8.45 10.85 Q5.75 7.55 3.75 2.05 L3.7 1.05 Q6.05 7.1 9.1 10.65 L9.65 11.55 Q8.7 12.35 8.15 13.95 7.3 15.85 7.25 19.05 9.25 23.9 15.05 27.65 L20.45 27.9 24.85 26.8 Q27.85 28.25 30.45 30.35 33.3 32.65 35.7 35.75 L36.3 36.55 Q36.75 37.7 36.65 38.5 36.1 39.25 34.55 38.25 L32.6 35.75 30.45 33.55 Q27.75 31.0 24.5 29.3 L21.5 30.15 15.25 30.2 Q11.6 27.8 9.15 24.85 L5.75 24.45 1.6 22.65 1.55 22.5 Q5.75 23.8 7.0 23.0 L7.25 22.35 Q5.95 20.4 5.1 18.4 L5.6 16.45 Q4.9 13.55 2.25 13.15 L0.9 12.35 1.5 12.2 Q5.05 12.65 6.25 14.65 7.1 12.75 8.2 11.5 L8.05 11.35" fill="#7b4c22" fill-rule="evenodd" stroke="none"/>
      <path d="M9.65 11.55 L9.85 11.85 Q8.8 12.55 8.15 13.95 8.7 12.35 9.65 11.55" fill="#6d421b" fill-rule="evenodd" stroke="none"/>
      <path d="M8.6 11.95 L8.85 12.05 Q7.5 13.35 6.95 15.25 L5.95 18.6 5.85 18.7 5.6 18.05 Q5.6 17.2 6.55 15.1 7.6 12.75 8.6 11.95 M6.75 19.65 L10.45 24.85 11.15 25.6 10.8 26.05 9.2 23.75 8.9 23.9 8.35 24.05 6.15 23.95 6.1 23.7 8.1 23.4 8.9 23.3 6.6 19.7 6.75 19.65 M17.15 28.75 L19.6 28.8 19.7 29.35 15.75 28.95 15.9 28.6 17.15 28.75 M13.05 27.15 L14.45 28.05 15.0 28.35 14.8 28.75 Q12.95 28.2 11.85 27.25 L11.6 27.0 12.0 26.3 13.05 27.15 M30.55 32.6 L30.35 32.35 30.6 31.45 31.15 32.05 32.45 33.55 32.0 34.3 30.55 32.6 M34.75 37.0 L34.8 37.05 34.6 37.1 33.05 35.5 32.75 35.15 33.05 34.55 33.15 34.4 Q34.35 35.95 34.75 37.0 M25.2 28.2 L24.1 28.1 24.05 27.85 Q25.5 27.75 27.1 28.6 L26.75 29.5 25.2 28.2 M27.95 30.4 L27.65 30.2 28.0 29.2 Q28.85 29.75 29.7 30.6 L29.4 31.55 27.95 30.4 M20.8 28.75 L21.6 28.55 22.25 28.35 22.45 28.3 22.75 28.45 22.25 28.85 21.9 29.05 20.7 29.35 20.6 28.75 20.8 28.75" fill="#9a6e3a" fill-rule="evenodd" stroke="none"/>
    </g>
    <g id="sprite21" transform="matrix(1.0, 0.0, 0.0, 1.0, 2.45, -9.5)">
      <use ffdec:characterId="2128" height="31.05" transform="matrix(1.0, 0.0, 0.0, 1.0, -1.9, 10.05)" width="49.5" xlink:href="#shape19"/>
      <filter id="filter7">
        <feConvolveMatrix divisor="4.0" in="SourceGraphic" kernelMatrix="1 1 1 1" order="2 2" result="filterResult9"/>
      </filter>
      <use ffdec:characterId="2130" filter="url(#filter7)" height="27.1" transform="matrix(1.0, 0.0, 0.0, 1.0, -2.45, 17.05)" width="47.25" xlink:href="#sprite22"/>
      <use ffdec:characterId="2131" height="32.65" transform="matrix(1.0, 0.0, 0.0, 1.0, -2.25, 9.5)" width="50.6" xlink:href="#shape21"/>
    </g>
    <g id="shape19" transform="matrix(1.0, 0.0, 0.0, 1.0, 1.9, -10.05)">
      <path d="M44.85 38.9 L44.45 38.15 44.2 37.25 44.15 37.15 Q43.45 35.7 43.45 35.1 43.45 34.4 41.75 32.05 L40.65 30.6 38.5 27.6 Q36.95 25.4 34.0 24.0 26.5 17.45 14.9 18.7 L7.7 20.0 Q4.55 21.0 3.0 21.9 L3.0 22.1 -1.0 24.75 Q-1.95 24.75 -1.9 23.5 L-1.8 22.75 -1.85 22.4 Q-1.85 21.7 -0.15 19.75 L1.55 17.4 2.75 16.5 4.9 14.6 Q5.6 14.1 7.15 13.3 L13.05 12.85 12.95 12.4 Q12.95 10.65 19.0 10.2 L28.0 10.55 Q32.7 11.95 34.8 14.0 L37.4 17.65 43.35 22.6 44.45 24.7 45.35 25.95 46.1 27.4 47.05 29.3 Q47.6 31.1 47.6 32.3 L47.4 34.5 47.05 37.85 Q46.5 40.6 45.35 41.1 L45.05 41.0 44.95 40.65 45.35 39.55 44.9 38.9 44.85 38.9 M3.1 20.65 L7.0 19.3 Q9.55 18.55 14.6 17.85 19.6 17.1 27.9 19.65 L30.3 20.75 32.35 21.6 Q33.65 22.0 34.35 23.15 L36.8 24.85 Q40.2 27.7 40.2 28.4 L40.5 28.95 Q41.0 29.25 41.9 30.8 L45.7 37.7 46.0 37.55 46.15 36.1 46.15 35.9 46.05 35.5 46.1 35.25 46.15 34.2 Q46.25 33.25 46.6 32.85 L46.25 30.9 46.0 30.8 46.0 30.3 45.35 28.55 45.2 28.55 44.85 27.8 44.0 26.5 41.35 22.95 42.6 23.25 42.0 22.55 39.2 20.35 39.4 20.65 39.4 21.1 38.65 21.3 Q36.3 19.4 32.45 17.45 24.75 13.6 14.05 13.6 10.2 13.6 5.8 15.3 L4.6 15.8 4.65 16.05 2.2 19.1 0.1 21.3 -0.3 22.25 -0.15 22.7 0.05 22.85 1.0 22.15 Q1.8 21.25 3.1 20.65 M20.1 13.35 Q26.8 14.15 32.1 16.05 L34.4 16.95 Q34.6 16.4 35.5 16.65 L34.1 14.85 Q30.1 10.6 21.15 10.6 L17.0 11.45 Q16.15 11.65 14.8 12.35 L13.85 12.9 20.1 13.35" fill="#000000" fill-rule="evenodd" stroke="none"/>
      <path d="M3.1 20.65 Q1.8 21.25 1.0 22.15 L0.05 22.85 -0.15 22.7 -0.3 22.25 0.1 21.3 2.2 19.1 4.65 16.05 4.6 15.8 5.8 15.3 Q10.2 13.6 14.05 13.6 24.75 13.6 32.45 17.45 36.3 19.4 38.65 21.3 L39.4 21.1 39.4 20.65 39.2 20.35 42.0 22.55 42.6 23.25 41.35 22.95 44.0 26.5 44.85 27.8 45.2 28.55 45.35 28.55 46.0 30.3 46.0 30.8 46.25 30.9 46.6 32.85 Q46.25 33.25 46.15 34.2 L46.1 35.25 46.05 35.5 46.15 35.9 46.15 36.1 46.0 37.55 45.7 37.7 41.9 30.8 Q41.0 29.25 40.5 28.95 L40.2 28.4 Q40.2 27.7 36.8 24.85 L34.35 23.15 Q33.65 22.0 32.35 21.6 L30.3 20.75 27.9 19.65 Q19.6 17.1 14.6 17.85 9.55 18.55 7.0 19.3 L3.1 20.65 M20.1 13.35 L13.85 12.9 14.8 12.35 Q16.15 11.65 17.0 11.45 L21.15 10.6 Q30.1 10.6 34.1 14.85 L35.5 16.65 Q34.6 16.4 34.4 16.95 L32.1 16.05 Q26.8 14.15 20.1 13.35" fill="#00dd4d" fill-rule="evenodd" stroke="none"/>
      <path d="M40.65 23.35 L41.55 23.95 40.7 23.55 40.6 23.3 40.65 23.35" fill="#000000" fill-rule="evenodd" stroke="none"/>
    </g>
    <g id="sprite22" transform="matrix(1.0, 0.0, 0.0, 1.0, 0.0, 0.0)">
      <use ffdec:characterId="2129" height="27.1" transform="matrix(1.0, 0.0, 0.0, 1.0, 0.0, 0.0)" width="47.25" xlink:href="#shape20"/>
    </g>
    <g id="shape20" transform="matrix(1.0, 0.0, 0.0, 1.0, 0.0, 0.0)">
      <path d="M0.15 8.6 Q0.4 7.55 1.75 6.25 7.45 1.7 14.65 0.15 L26.4 0.55 Q35.0 3.1 42.0 8.0 46.5 13.7 47.25 20.85 47.4 24.05 46.45 27.1 45.7 25.65 45.9 23.45 44.35 20.9 43.8 17.9 41.95 16.15 40.15 12.85 L37.7 11.45 35.15 9.2 Q32.35 8.55 30.25 6.75 27.0 6.3 24.65 5.05 21.15 5.5 18.25 4.2 L16.0 4.75 12.65 4.55 Q9.3 5.95 7.6 5.6 L1.85 8.6 0.15 9.8 0.05 9.85 Q-0.1 9.65 0.15 8.6" fill="#2d6f74" fill-opacity="0.2" fill-rule="evenodd" stroke="none"/>
    </g>
    <g id="shape21" transform="matrix(1.0, 0.0, 0.0, 1.0, 2.25, -9.5)">
      <path d="M-1.05 24.75 Q-1.4 24.0 -1.15 23.0 -0.85 21.5 0.4 19.7 L0.65 19.4 1.1 18.8 2.5 17.2 Q3.3 16.2 4.85 15.05 6.0 14.15 7.5 14.0 L8.45 13.95 10.15 13.35 13.15 13.15 Q14.65 11.95 16.8 11.4 L17.9 10.75 20.25 10.55 22.25 10.9 23.5 10.75 26.15 11.05 28.45 11.8 Q31.9 12.2 33.9 14.2 36.2 14.4 37.15 15.7 L37.7 16.9 37.75 17.45 Q39.4 19.3 40.7 21.65 L42.3 22.75 Q44.05 24.2 44.55 26.05 L44.95 26.5 Q46.15 27.9 46.35 29.3 L46.55 30.5 46.8 32.0 Q47.65 33.55 47.2 35.85 L47.15 37.3 47.05 38.55 46.5 40.2 Q46.05 40.95 45.35 41.15" ffdec:has-small-stroke="true" ffdec:original-stroke-width="2.0" fill="none" stroke="#00375b" stroke-linecap="round" stroke-linejoin="round" stroke-width="4.014484505796245"/>
      <path d="M45.35 41.15 Q44.35 39.7 44.6 37.25 M0.55 22.9 L0.5 22.95 -1.05 24.75" ffdec:has-small-stroke="true" ffdec:original-stroke-width="2.0" fill="none" stroke="#006b15" stroke-linecap="round" stroke-linejoin="round" stroke-width="4.014484505796245"/>
      <path d="M44.6 37.25 Q43.05 34.7 42.5 31.7 40.7 30.05 38.95 26.9 L38.85 26.65 36.4 25.3 33.85 23.05 Q31.05 22.45 28.95 20.7 25.7 20.25 23.35 19.05 19.85 19.55 16.95 18.3 L14.7 18.85 11.35 18.7 Q8.0 20.15 6.3 19.8 L0.55 22.9" ffdec:has-small-stroke="true" ffdec:original-stroke-width="2.0" fill="none" stroke="#006514" stroke-linecap="round" stroke-linejoin="round" stroke-width="4.014484505796245"/>
      <path d="M23.6 11.65 L21.8 11.7 21.5 11.55 20.85 11.35 20.3 11.15 19.65 11.0 20.25 10.55 22.25 10.9 23.5 10.75 23.45 11.2 23.6 11.65 24.25 11.7 Q25.55 11.8 27.8 12.95 L29.85 13.05 Q30.95 13.2 32.85 14.6 L33.7 15.2 Q35.8 15.25 37.4 17.05 L37.7 16.9 37.75 17.45 37.4 17.05 35.1 17.55 34.6 17.55 31.45 16.8 Q28.85 16.1 28.15 15.65 L26.4 14.4 25.55 13.7 23.6 11.65 M18.9 11.15 L18.3 11.8 17.95 11.75 Q16.6 11.75 15.3 13.4 14.65 14.2 14.0 15.9 L11.3 15.2 Q13.1 12.4 16.8 11.4 L18.9 11.15" fill="#006ca5" fill-rule="evenodd" stroke="none"/>
      <path d="M23.6 11.65 L23.45 11.2 23.5 10.75 26.15 11.05 28.45 11.8 Q31.9 12.2 33.9 14.2 36.2 14.4 37.15 15.7 L37.7 16.9 37.4 17.05 Q35.8 15.25 33.7 15.2 L32.85 14.6 Q30.95 13.2 29.85 13.05 L27.8 12.95 Q25.55 11.8 24.25 11.7 L23.6 11.65 M20.25 10.55 L19.65 11.0 20.3 11.15 20.85 11.35 19.5 11.15 19.45 11.15 18.9 11.15 16.8 11.4 17.9 10.75 20.25 10.55" fill="#0072ad" fill-rule="evenodd" stroke="none"/>
      <path d="M20.85 11.35 L21.5 11.55 21.8 11.7 23.6 11.65 25.55 13.7 26.4 14.4 28.15 15.65 Q28.85 16.1 31.45 16.8 L34.6 17.55 35.1 17.55 37.4 17.05 37.75 17.45 Q39.9 19.8 41.4 23.0 L14.0 15.9 Q14.65 14.2 15.3 13.4 16.6 11.75 17.95 11.75 L18.3 11.8 18.9 11.15 19.45 11.15 19.5 11.15 20.85 11.35" fill="#006195" fill-rule="evenodd" stroke="none"/>
      <path d="M47.2 35.85 L47.15 37.3 47.05 38.55 46.5 40.2 Q46.7 38.6 46.4 37.2 46.15 36.05 45.5 35.1 45.15 32.25 43.1 30.05 L42.6 28.4 42.35 27.75 41.2 26.3 40.15 25.4 39.45 24.9 39.0 24.3 Q37.95 23.1 36.2 22.2 L35.85 22.05 34.4 21.45 32.85 20.2 32.5 19.95 32.15 19.75 Q31.35 19.3 30.25 19.15 L29.6 19.05 Q28.2 17.85 26.9 17.65 L26.45 17.6 25.25 17.5 23.95 17.4 23.75 17.3 Q22.0 16.3 20.7 16.15 L19.85 16.05 17.75 16.35 Q14.75 15.65 12.15 16.45 L8.6 16.55 7.15 17.4 4.7 18.0 Q3.35 18.45 2.45 19.2 L2.3 19.35 1.85 19.75 1.45 20.25 0.8 20.55 Q1.25 19.65 2.35 18.85 2.5 18.0 3.05 17.55 3.6 17.05 4.95 16.95 5.15 16.25 5.6 15.85 5.95 15.5 6.5 15.35 L6.65 15.05 8.1 14.95 Q10.4 13.8 13.0 14.1 L15.25 13.7 15.95 13.65 15.35 14.25 15.7 14.75 Q16.2 15.2 17.25 15.1 L19.1 15.1 20.5 15.35 21.85 15.3 23.65 15.65 25.8 16.75 26.9 16.8 28.45 17.1 29.3 17.5 30.6 18.5 30.65 18.55 Q35.0 19.6 36.3 21.5 38.6 21.8 39.4 23.25 L40.5 24.95 Q41.2 25.0 41.65 25.55 L42.2 26.25 43.2 26.65 43.9 26.65 44.1 27.3 45.5 28.85 46.15 30.3 46.5 32.7 47.2 35.85 M-1.15 23.0 L-1.15 22.9 Q-0.6 21.2 0.8 20.55 0.45 21.15 0.45 21.8 L0.45 21.85 -0.9 22.85 -1.15 23.0" fill="#00dd4d" fill-rule="evenodd" stroke="none"/>
      <path d="M46.5 40.2 Q46.05 40.95 45.35 41.15 44.35 39.7 44.6 37.25 43.05 34.7 42.5 31.7 40.7 30.05 38.95 26.9 L38.85 26.65 36.4 25.3 33.85 23.05 Q31.05 22.45 28.95 20.7 25.7 20.25 23.35 19.05 19.85 19.55 16.95 18.3 L14.7 18.85 11.35 18.7 Q8.0 20.15 6.3 19.8 L0.55 22.9 0.5 22.95 -1.05 24.75 Q-1.4 24.0 -1.15 23.0 L-0.9 22.85 0.45 21.85 0.45 21.8 Q0.45 21.15 0.8 20.55 L1.45 20.25 1.85 19.75 2.3 19.35 2.45 19.2 Q3.35 18.45 4.7 18.0 L7.15 17.4 8.6 16.55 12.15 16.45 Q14.75 15.65 17.75 16.35 L19.85 16.05 20.7 16.15 Q22.0 16.3 23.75 17.3 L23.95 17.4 25.25 17.5 26.45 17.6 26.9 17.65 Q28.2 17.85 29.6 19.05 L30.25 19.15 Q31.35 19.3 32.15 19.75 L32.5 19.95 32.85 20.2 34.4 21.45 35.85 22.05 36.2 22.2 Q37.95 23.1 39.0 24.3 L39.45 24.9 40.15 25.4 41.2 26.3 42.35 27.75 42.6 28.4 43.1 30.05 Q45.15 32.25 45.5 35.1 46.15 36.05 46.4 37.2 46.7 38.6 46.5 40.2" fill="#00a320" fill-rule="evenodd" stroke="none"/>
      <path d="M17.35 12.95 L15.95 13.65 Q17.2 13.7 18.6 14.4 L21.5 14.2 Q23.15 14.4 24.65 15.5 L26.55 15.55 28.05 15.9 Q28.9 16.25 29.6 16.75 L30.25 17.35 31.35 17.45 Q33.15 17.85 35.1 19.5 36.5 19.6 37.5 20.0 38.55 20.4 39.05 21.2 L40.2 22.85 41.6 23.6 Q43.15 24.65 43.9 26.65 L44.95 26.5 Q46.15 27.9 46.35 29.3 L46.55 30.5 46.8 32.0 Q47.65 33.55 47.2 35.85 L46.5 32.7 46.15 30.3 45.5 28.85 44.1 27.3 43.9 26.65 43.2 26.65 42.2 26.25 41.65 25.55 Q41.2 25.0 40.5 24.95 L39.4 23.25 Q38.6 21.8 36.3 21.5 35.0 19.6 30.65 18.55 L30.6 18.5 29.3 17.5 28.45 17.1 26.9 16.8 25.8 16.75 23.65 15.65 21.85 15.3 20.5 15.35 19.1 15.1 17.25 15.1 Q16.2 15.2 15.7 14.75 L15.35 14.25 15.95 13.65 15.25 13.7 13.0 14.1 Q10.4 13.8 8.1 14.95 L6.65 15.05 7.2 14.25 7.5 14.0 8.45 13.95 10.15 13.35 13.35 13.2 17.35 12.95 M-1.15 22.9 Q-0.85 21.5 0.4 19.7 L0.7 19.4 2.25 17.9 Q3.85 15.95 5.5 15.4 L6.65 15.05 6.5 15.35 Q5.95 15.5 5.6 15.85 5.15 16.25 4.95 16.95 3.6 17.05 3.05 17.55 2.5 18.0 2.35 18.85 1.25 19.65 0.8 20.55 -0.6 21.2 -1.15 22.9" fill="#00ff76" fill-rule="evenodd" stroke="none"/>
      <path d="M17.35 12.95 L19.05 13.3 Q20.7 13.0 22.25 13.3 23.75 13.6 25.1 14.35 L26.4 14.4 Q29.25 14.6 30.75 16.15 L32.0 16.4 Q33.5 16.8 34.6 17.55 L35.5 18.3 Q38.2 18.8 39.05 19.9 L40.65 21.6 42.3 22.75 Q44.05 24.2 44.55 26.05 L44.95 26.5 43.9 26.65 Q43.15 24.65 41.6 23.6 L40.2 22.85 39.05 21.2 Q38.55 20.4 37.5 20.0 36.5 19.6 35.1 19.5 33.15 17.85 31.35 17.45 L30.25 17.35 29.6 16.75 Q28.9 16.25 28.05 15.9 L26.55 15.55 24.65 15.5 Q23.15 14.4 21.5 14.2 L18.6 14.4 Q17.2 13.7 15.95 13.65 L17.35 12.95 M0.4 19.7 L0.65 19.4 1.1 18.8 2.5 17.2 Q3.3 16.2 4.85 15.05 6.0 14.15 7.5 14.0 L7.2 14.25 6.65 15.05 5.5 15.4 Q3.85 15.95 2.25 17.9 L0.7 19.4 0.4 19.7" fill="#6bffa1" fill-rule="evenodd" stroke="none"/>
    </g>
    <g id="sprite23" transform="matrix(1.0, 0.0, 0.0, 1.0, 0.25, 0.05)">
      <use ffdec:characterId="2104" height="9.9" transform="matrix(0.5607, 0.0, 0.0, 0.5607, 2.75, 5.2)" width="8.3" xlink:href="#sprite8"/>
      <use ffdec:characterId="2102" height="8.35" transform="matrix(0.6236, 0.0, 0.0, 0.6236, -0.2624, -0.05)" width="6.9" xlink:href="#sprite7"/>
      <use ffdec:characterId="2104" height="9.9" transform="matrix(0.6093, 0.0, 0.0, 0.6093, 15.75, 6.95)" width="8.3" xlink:href="#sprite8"/>
      <use ffdec:characterId="2102" height="8.35" transform="matrix(0.686, 0.0, 0.0, 0.686, 8.8814, 8.6)" width="6.9" xlink:href="#sprite7"/>
      <use ffdec:characterId="2104" height="9.9" transform="matrix(0.6308, 0.0, 0.0, 0.6308, 20.7, 0.9)" width="8.3" xlink:href="#sprite8"/>
    </g>
    <g id="sprite24" transform="matrix(1.0, 0.0, 0.0, 1.0, 0.1, -0.25)">
      <use ffdec:characterId="2134" height="45.3" transform="matrix(1.0, 0.0, 0.0, 1.0, -0.1, 0.25)" width="18.4" xlink:href="#shape22"/>
      <use ffdec:characterId="2136" height="2.4" transform="matrix(1.0, 0.0, 0.0, 1.0, 6.2, 17.65)" width="5.15" xlink:href="#sprite25"/>
      <use ffdec:characterId="2136" height="2.4" transform="matrix(1.0, 0.0, 0.0, 1.0, 5.1, 25.4)" width="5.15" xlink:href="#sprite25"/>
      <use ffdec:characterId="2136" height="2.4" transform="matrix(0.7764, 0.1549, -0.1549, 0.7764, 8.5, 10.45)" width="5.15" xlink:href="#sprite25"/>
      <use ffdec:characterId="2136" height="2.4" transform="matrix(0.6271, 0.1251, -0.1251, 0.6271, 10.55, 6.2)" width="5.15" xlink:href="#sprite25"/>
      <use ffdec:characterId="2136" height="2.4" transform="matrix(0.9165, -0.0271, 0.0271, 0.9165, 4.55, 32.25)" width="5.15" xlink:href="#sprite25"/>
      <use ffdec:characterId="2136" height="2.4" transform="matrix(0.636, -0.0663, 0.0663, 0.636, 4.9, 38.05)" width="5.15" xlink:href="#sprite25"/>
      <use ffdec:characterId="2137" height="33.15" transform="matrix(1.0, 0.0, 0.0, 1.0, 1.85, 4.45)" width="12.6" xlink:href="#shape24"/>
    </g>
    <g id="shape22" transform="matrix(1.0, 0.0, 0.0, 1.0, 0.1, -0.25)">
      <path d="M17.25 4.55 Q17.7 6.35 17.55 9.15 L17.05 15.15 Q16.65 18.3 17.15 21.85 17.6 25.35 18.15 28.05 18.65 30.75 17.7 31.65 L13.1 31.45 Q9.4 30.3 8.65 27.45 7.85 24.55 7.85 20.7 6.6 12.8 6.6 11.65 6.6 7.6 8.25 4.65 9.75 2.05 11.95 1.25 14.05 0.45 15.4 1.6 16.75 2.7 17.25 4.55" fill="#2d6f74" fill-opacity="0.2" fill-rule="evenodd" stroke="none"/>
      <path d="M4.55 44.6 Q2.75 43.15 2.25 40.15 L1.7 37.8 0.8 33.35 Q0.2 29.85 0.0 26.75 -0.25 22.45 0.25 18.75 L0.25 18.5 Q0.85 14.3 2.75 10.6 4.8 6.5 8.5 3.05 11.75 -0.45 14.45 0.4 16.6 1.15 16.6 3.25 L16.5 4.35 16.1 6.15 Q15.75 7.5 14.95 8.15 15.25 10.0 14.9 11.2 L13.95 12.8 Q14.45 15.55 13.95 17.15 13.45 18.75 12.9 18.8 13.5 21.85 13.3 23.4 13.1 24.95 12.05 26.45 12.5 28.45 12.05 30.1 11.6 31.7 10.75 32.15 11.15 35.1 10.7 35.9 L9.25 37.6 Q10.1 39.9 8.65 42.25 7.4 44.25 4.55 44.6 M4.4 42.25 Q3.7 38.85 4.4 36.65 2.85 33.75 4.4 31.0 L2.45 32.25 Q1.5 33.9 3.2 37.15 2.5 39.2 4.4 42.25 M1.9 29.85 L2.55 32.1 4.4 30.8 Q2.4 27.5 4.45 23.7 3.0 19.2 6.4 16.45 5.35 12.4 8.75 9.2 8.65 5.9 11.45 5.1 11.0 2.15 14.05 1.2 12.25 1.45 11.05 2.1 9.85 2.75 9.2 4.95 L9.2 5.05 Q5.45 7.1 4.7 10.2 3.6 11.05 2.8 12.7 2.0 14.35 2.5 17.7 L2.5 17.75 Q1.35 19.35 1.1 21.3 0.85 23.2 1.85 25.75 1.4 28.35 1.9 29.85" fill="#ff6600" fill-rule="evenodd" stroke="none"/>
      <path d="M1.9 29.85 Q1.4 28.35 1.85 25.75 0.85 23.2 1.1 21.3 1.35 19.35 2.5 17.75 L2.5 17.7 Q2.0 14.35 2.8 12.7 3.6 11.05 4.7 10.2 5.45 7.1 9.2 5.05 L9.2 4.95 Q9.85 2.75 11.05 2.1 12.25 1.45 14.05 1.2 11.0 2.15 11.45 5.1 8.65 5.9 8.75 9.2 5.35 12.4 6.4 16.45 3.0 19.2 4.45 23.7 2.4 27.5 4.4 30.8 L2.55 32.1 1.9 29.85 M4.4 42.25 Q2.5 39.2 3.2 37.15 1.5 33.9 2.45 32.25 L4.4 31.0 Q2.85 33.75 4.4 36.65 3.7 38.85 4.4 42.25" fill="#de4900" fill-rule="evenodd" stroke="none"/>
      <path d="M4.55 44.6 Q7.4 44.25 8.65 42.25 10.1 39.9 9.25 37.6 L10.7 35.9 Q11.15 35.1 10.75 32.15 11.6 31.7 12.05 30.1 12.5 28.45 12.05 26.45 13.1 24.95 13.3 23.4 13.5 21.85 12.9 18.8 13.45 18.75 13.95 17.15 14.45 15.55 13.95 12.8 L14.9 11.2 Q15.25 10.0 14.95 8.15 15.75 7.5 16.1 6.15 L16.5 4.35 15.15 17.3 14.7 21.45 13.8 27.7 12.55 33.9 11.7 37.2 11.35 38.3 Q9.05 45.8 6.2 45.55 L4.55 44.6" fill="#ff8d1e" fill-rule="evenodd" stroke="none"/>
    </g>
    <g id="sprite25" transform="matrix(1.0, 0.0, 0.0, 1.0, 0.0, 0.0)">
      <use ffdec:characterId="2135" height="2.4" transform="matrix(1.0, 0.0, 0.0, 1.0, 0.0, 0.0)" width="5.15" xlink:href="#shape23"/>
    </g>
    <g id="shape23" transform="matrix(1.0, 0.0, 0.0, 1.0, 0.0, 0.0)">
      <path d="M5.15 2.2 L4.2 2.15 Q3.2 1.65 2.2 1.7 L0.55 1.6 Q-0.1 1.45 0.05 0.95 0.2 0.4 1.0 0.15 L2.8 0.1 Q3.75 0.25 4.5 1.0 5.2 1.75 5.15 2.2" fill="#ff8d1e" fill-rule="evenodd" stroke="none"/>
    </g>
    <g id="shape24" transform="matrix(1.0, 0.0, 0.0, 1.0, -1.85, -4.45)">
      <path d="M7.7 5.95 Q8.2 5.3 9.4 4.8 10.6 4.3 11.55 4.5 12.45 4.7 13.05 5.3 L14.45 7.4 Q13.2 6.0 11.75 5.45 10.25 4.9 7.7 5.95 M6.7 8.9 L9.35 8.65 Q10.65 8.85 11.8 9.55 12.9 10.25 13.3 11.15 L13.95 12.8 12.0 10.85 Q11.25 10.2 9.9 9.9 L6.85 9.7 Q5.15 9.85 3.95 10.55 5.3 9.35 6.7 8.9 M4.4 16.2 Q5.45 15.65 7.2 15.4 L10.2 15.75 Q11.5 16.4 12.1 17.15 12.65 17.9 13.25 19.75 12.85 19.0 11.95 18.4 11.05 17.75 9.55 17.3 L6.95 16.8 4.5 17.05 Q3.15 17.4 2.4 17.85 3.3 16.7 4.4 16.2 M5.35 23.35 L8.45 23.4 Q10.1 23.75 11.0 24.75 L12.2 26.7 Q11.75 26.0 10.7 25.4 9.6 24.8 8.2 24.6 L5.55 24.4 Q4.25 24.35 2.3 25.3 3.9 23.7 5.35 23.35 M4.25 31.5 L1.85 32.4 Q3.45 30.4 4.7 29.9 L7.65 29.95 Q9.3 30.5 9.95 31.2 L11.25 32.95 Q10.0 31.75 8.6 31.6 L6.7 31.35 5.75 31.3 4.25 31.5 M4.5 36.85 L3.6 37.1 4.6 36.35 Q5.65 35.8 6.1 35.85 L6.65 35.85 Q7.95 35.85 9.0 37.25 L9.25 37.6 9.05 37.5 Q8.15 37.05 7.25 36.95 L5.75 36.8 4.5 36.85" fill="#9f3d00" fill-rule="evenodd" stroke="none"/>
    </g>
  </defs>
</svg>
