<?xml version="1.0" encoding="UTF-8" standalone="no"?>
<svg xmlns:ffdec="https://www.free-decompiler.com/flash" xmlns:xlink="http://www.w3.org/1999/xlink" ffdec:objectType="frame" height="48.75px" width="47.3px" xmlns="http://www.w3.org/2000/svg">
  <g transform="matrix(1.0, 0.0, 0.0, 1.0, 12.3, 6.55)">
    <filter id="filter0">
      <feColorMatrix in="SourceGraphic" result="filterResult0" type="matrix" values="0 0 0 0 1.0,0 0 0 0 1.0,0 0 0 0 1.0,0 0 0 1 0"/>
      <feConvolveMatrix divisor="4.0" in="filterResult0" kernelMatrix="1 1 1 1" order="2 2" result="filterResult1"/>
      <feComposite in="SourceGraphic" in2="filterResult1" operator="over" result="filterResult2"/>
    </filter>
    <use ffdec:characterId="2184" filter="url(#filter0)" height="51.55" transform="matrix(0.4938, 0.0, 0.0, 0.4938, -6.7627, 6.0386)" width="76.7" xlink:href="#sprite0"/>
  </g>
  <defs>
    <g id="sprite0" transform="matrix(1.0, 0.0, 0.0, 1.0, 94.1, -49.9)">
      <use ffdec:characterId="2174" height="28.9" transform="matrix(-0.9288, 0.0, 0.0, 0.9288, -65.3536, 70.15)" width="30.95" xlink:href="#sprite1"/>
      <use ffdec:characterId="2176" height="17.3" transform="matrix(-0.9075, 0.0, 0.0, 0.9075, -57.965, 83.05)" width="23.95" xlink:href="#sprite2"/>
      <use ffdec:characterId="2178" height="11.95" transform="matrix(-0.9008, 0.0, 0.0, 0.9008, -67.5495, 50.7996)" width="13.1" xlink:href="#sprite3"/>
      <use ffdec:characterId="2180" height="21.95" transform="matrix(1.0, 0.0, 0.0, 1.0, -77.95, 51.35)" width="37.6" xlink:href="#sprite4"/>
      <use ffdec:characterId="2181" height="35.4" transform="matrix(1.0, 0.0, 0.0, 1.0, -78.65, 56.75)" width="40.75" xlink:href="#shape4"/>
      <use ffdec:characterId="2183" height="7.0" transform="matrix(1.0, 0.0, 0.0, 1.0, -53.2, 76.25)" width="8.6" xlink:href="#sprite5"/>
      <use ffdec:characterId="2178" height="11.95" transform="matrix(1.0, 0.0, 0.0, 1.0, -56.9, 49.9)" width="13.1" xlink:href="#sprite6"/>
      <use ffdec:characterId="2174" height="28.9" transform="matrix(1.0, 0.0, 0.0, 1.0, -48.35, 69.1)" width="30.95" xlink:href="#sprite7"/>
      <use ffdec:characterId="2176" height="17.3" transform="matrix(1.0, 0.0, 0.0, 1.0, -61.4, 84.15)" width="23.95" xlink:href="#sprite8"/>
    </g>
    <g id="sprite1" transform="matrix(1.0, 0.0, 0.0, 1.0, 30.95, 0.0)">
      <use ffdec:characterId="2173" height="28.9" transform="matrix(1.0, 0.0, 0.0, 1.0, -30.95, 0.0)" width="30.95" xlink:href="#shape0"/>
    </g>
    <g id="shape0" transform="matrix(1.0, 0.0, 0.0, 1.0, 30.95, 0.0)">
      <path d="M-27.9 16.35 L-24.05 12.4 -19.85 8.55 -16.6 5.95 Q-13.6 3.7 -10.8 2.3 -7.7 0.7 -4.85 0.05 L-4.65 0.05 -4.45 0.2 -4.4 0.45 Q-5.15 12.7 -24.05 21.65 L-20.0 21.4 Q-13.95 21.0 -7.95 21.25 L-7.1 20.8 -7.0 20.8 -6.95 20.8 -4.6 20.5 -2.1 20.8 -2.05 20.8 Q-0.75 21.25 -0.8 22.0 -0.75 22.75 -2.1 23.15 L-2.05 23.15 -4.6 23.55 -7.1 23.15 -7.35 23.1 -9.5 23.2 -6.1 23.9 -3.8 23.6 -1.3 23.9 -1.25 23.9 Q0.05 24.35 0.0 25.1 0.05 25.85 -1.3 26.25 L-1.25 26.25 -3.8 26.65 -6.3 26.25 -7.5 25.5 -12.9 25.1 -11.65 25.85 -11.4 25.85 -8.9 26.15 -8.85 26.15 Q-7.55 26.6 -7.6 27.35 -7.55 28.1 -8.9 28.5 L-8.85 28.5 -11.4 28.9 -13.9 28.5 Q-15.25 28.1 -15.15 27.35 -15.25 27.0 -14.65 26.65 -19.4 25.05 -23.75 24.6 L-30.0 24.45 -30.25 24.4 -30.4 24.2 -30.4 24.0 -30.3 23.8 -26.55 20.5 -30.2 21.5 -30.5 21.8 -30.8 21.75 -30.95 21.5 -30.9 21.2 -30.7 21.05 -30.3 20.65 Q-27.5 20.15 -24.75 18.9 -19.55 16.5 -14.65 12.2 L-14.1 11.75 -8.45 5.95 -8.2 5.85 -7.95 5.95 -7.8 6.2 -7.9 6.45 Q-15.8 15.55 -24.4 19.6 L-24.45 19.6 -28.95 23.6 -23.65 23.85 -23.25 23.9 Q-18.6 24.4 -13.5 26.25 L-13.35 26.4 -13.25 26.6 -13.35 26.85 -13.5 26.95 -14.4 27.35 Q-14.35 27.6 -13.7 27.8 L-13.65 27.8 -11.4 28.15 -9.1 27.8 Q-8.45 27.6 -8.35 27.35 -8.45 27.1 -9.1 26.85 L-11.4 26.6 -11.75 26.6 -11.9 26.55 Q-13.25 25.9 -13.6 25.5 -14.0 25.1 -13.75 24.8 -13.7 24.5 -13.15 24.4 L-7.15 24.8 -6.9 24.9 -6.8 25.1 -6.05 25.55 -3.8 25.9 -1.5 25.55 -0.75 25.1 Q-0.85 24.85 -1.5 24.6 L-3.8 24.35 -5.95 24.6 -6.15 24.65 Q-10.55 23.9 -10.85 23.45 L-10.9 22.95 -10.6 22.7 -9.95 22.5 -7.3 22.35 -7.15 22.35 -6.85 22.45 -4.6 22.8 -2.3 22.45 Q-1.65 22.25 -1.55 22.0 -1.65 21.75 -2.3 21.5 L-4.6 21.25 -6.75 21.5 -6.9 21.55 -6.95 21.55 Q-7.35 21.7 -7.5 21.9 L-7.65 21.95 -7.8 22.0 Q-13.85 21.75 -19.95 22.15 L-20.7 22.2 -26.15 22.6 -26.4 22.5 -26.55 22.3 -26.55 22.05 -26.35 21.85 Q-6.45 13.05 -5.2 0.9 -8.1 1.6 -11.25 3.3 L-16.65 6.65 -20.2 9.35 -24.05 12.65 -27.9 16.35" fill="#2d4300" fill-rule="evenodd" stroke="none"/>
      <path d="M-27.9 16.35 L-24.05 12.65 -23.7 14.6 Q-23.25 16.25 -22.45 16.25 -22.15 16.25 -21.3 12.6 L-20.2 9.35 -16.65 6.65 -16.7 7.45 -16.35 10.15 Q-15.8 12.15 -14.65 12.2 -19.55 16.5 -24.75 18.9 -27.5 20.15 -30.3 20.65 -31.25 20.0 -27.9 16.35 M-11.25 3.3 Q-8.1 1.6 -5.2 0.9 -6.45 13.05 -26.35 21.85 L-26.55 22.05 -26.55 22.3 -26.4 22.5 -26.15 22.6 -20.7 22.2 -21.55 22.7 -23.25 23.9 -23.65 23.85 -28.95 23.6 -24.45 19.6 -24.4 19.6 Q-15.8 15.55 -7.9 6.45 L-7.8 6.2 -7.95 5.95 -8.2 5.85 -8.45 5.95 -14.1 11.75 Q-13.6 10.85 -12.95 8.3 -12.3 5.65 -11.25 3.3" fill="url(#gradient0)" fill-rule="evenodd" stroke="none"/>
      <path d="M-20.7 22.2 L-19.95 22.15 Q-13.85 21.75 -7.8 22.0 L-7.65 21.95 -7.5 21.9 Q-7.35 21.7 -6.95 21.55 L-6.9 21.55 -6.75 21.5 -4.6 21.25 -2.3 21.5 Q-1.65 21.75 -1.55 22.0 -1.65 22.25 -2.3 22.45 L-4.6 22.8 -6.85 22.45 -7.15 22.35 -7.3 22.35 -9.95 22.5 -10.6 22.7 -10.9 22.95 -10.85 23.45 Q-10.55 23.9 -6.15 24.65 L-5.95 24.6 -3.8 24.35 -1.5 24.6 Q-0.85 24.85 -0.75 25.1 L-1.5 25.55 -3.8 25.9 -6.05 25.55 -6.8 25.1 -6.9 24.9 -7.15 24.8 -13.15 24.4 Q-13.7 24.5 -13.75 24.8 -14.0 25.1 -13.6 25.5 -13.25 25.9 -11.9 26.55 L-11.75 26.6 -11.4 26.6 -9.1 26.85 Q-8.45 27.1 -8.35 27.35 -8.45 27.6 -9.1 27.8 L-11.4 28.15 -13.65 27.8 -13.7 27.8 Q-14.35 27.6 -14.4 27.35 L-13.5 26.95 -13.35 26.85 -13.25 26.6 -13.35 26.4 -13.5 26.25 Q-18.6 24.4 -23.25 23.9 L-21.55 22.7 -20.7 22.2" fill="url(#gradient1)" fill-rule="evenodd" stroke="none"/>
      <path d="M-24.05 12.65 L-20.2 9.35 -21.3 12.6 Q-22.15 16.25 -22.45 16.25 -23.25 16.25 -23.7 14.6 L-24.05 12.65 M-16.65 6.65 L-11.25 3.3 Q-12.3 5.65 -12.95 8.3 -13.6 10.85 -14.1 11.75 L-14.65 12.2 Q-15.8 12.15 -16.35 10.15 L-16.7 7.45 -16.65 6.65" fill="url(#gradient2)" fill-rule="evenodd" stroke="none"/>
    </g>
    <radialGradient cx="0" cy="0" gradientTransform="matrix(0.004, 0.0055, -0.0238, 0.0172, -28.1, 13.8)" gradientUnits="userSpaceOnUse" id="gradient0" r="819.2" spreadMethod="pad">
      <stop offset="0.0" stop-color="#777f32"/>
      <stop offset="0.42745098039215684" stop-color="#5f7724"/>
      <stop offset="0.9529411764705882" stop-color="#2e4b00"/>
    </radialGradient>
    <radialGradient cx="0" cy="0" gradientTransform="matrix(0.027, 0.0, 0.0, 0.0202, -0.3, 23.6)" gradientUnits="userSpaceOnUse" id="gradient1" r="819.2" spreadMethod="pad">
      <stop offset="0.0" stop-color="#777f32"/>
      <stop offset="0.42745098039215684" stop-color="#5f7724"/>
      <stop offset="0.9529411764705882" stop-color="#2e4b00"/>
    </radialGradient>
    <radialGradient cx="0" cy="0" gradientTransform="matrix(0.004, 0.0055, -0.0238, 0.0172, -28.1, 13.8)" gradientUnits="userSpaceOnUse" id="gradient2" r="819.2" spreadMethod="pad">
      <stop offset="0.403921568627451" stop-color="#415c0e"/>
      <stop offset="0.9529411764705882" stop-color="#243900"/>
    </radialGradient>
    <g id="sprite2" transform="matrix(1.0, 0.0, 0.0, 1.0, 23.95, 0.0)">
      <use ffdec:characterId="2175" height="17.3" transform="matrix(1.0, 0.0, 0.0, 1.0, -23.95, 0.0)" width="23.95" xlink:href="#shape1"/>
    </g>
    <g id="shape1" transform="matrix(1.0, 0.0, 0.0, 1.0, 23.95, 0.0)">
      <path d="M-15.65 0.6 Q-13.5 1.8 -12.3 7.95 L-12.1 9.0 -11.8 11.25 -5.1 12.5 -5.05 12.45 -4.2 12.3 -4.15 12.3 -3.05 12.25 -1.1 12.45 Q0.05 12.8 0.0 13.4 0.05 14.05 -1.1 14.35 L-1.05 14.3 -3.05 14.6 -4.6 14.45 -4.65 14.45 -5.05 14.35 -5.05 14.3 -5.15 14.35 -5.35 14.4 -9.8 13.95 -8.4 14.55 -7.75 14.55 -6.95 14.5 -4.4 14.75 Q-3.0 15.15 -3.05 15.9 -3.0 16.65 -4.4 17.0 L-4.4 16.95 -6.95 17.3 -9.5 16.95 -9.5 17.0 Q-10.85 16.65 -10.75 15.9 L-10.65 15.5 Q-14.65 13.9 -18.0 14.45 L-18.95 14.95 -19.05 15.0 -20.95 15.25 -22.95 14.95 Q-24.05 14.65 -23.95 14.05 -24.05 13.45 -22.95 13.1 L-20.95 12.9 -20.6 12.9 -20.55 12.9 -19.65 12.95 Q-17.5 12.45 -16.9 11.55 L-16.7 11.0 -16.65 9.0 -16.65 7.95 -16.95 1.7 Q-16.15 4.7 -15.95 7.95 L-15.95 9.0 -15.95 11.05 -16.05 11.55 Q-16.45 12.7 -18.35 13.4 L-18.95 13.65 -20.4 13.65 -20.6 13.65 -20.95 13.65 -22.75 13.85 -22.7 13.8 Q-23.15 13.95 -23.2 14.05 L-22.75 14.25 -20.95 14.5 -19.2 14.25 -19.1 14.25 -19.05 14.25 -18.65 14.05 -17.95 13.7 Q-14.3 13.15 -9.4 15.5 L-9.95 15.85 -10.0 15.95 -9.3 16.25 -6.95 16.55 -4.6 16.25 -4.55 16.25 -3.8 15.9 Q-3.9 15.65 -4.6 15.45 L-4.6 15.5 -6.95 15.25 -7.65 15.3 -7.7 15.3 -8.0 15.3 -10.35 14.5 -10.9 14.05 -10.9 13.6 -10.6 13.3 -7.35 13.4 -7.25 13.4 -4.1 13.8 -4.0 13.75 -3.05 13.85 -1.3 13.6 -0.75 13.4 Q-0.85 13.3 -1.3 13.15 L-3.05 13.0 -4.1 13.05 -5.65 13.2 -6.0 13.1 -12.2 11.95 -12.4 11.8 -12.5 11.6 -12.5 11.55 -12.75 9.0 -12.95 7.95 Q-13.7 4.15 -15.65 0.6" fill="#2d4300" fill-rule="evenodd" stroke="none"/>
      <path d="M-16.95 1.7 L-17.1 1.5 -16.95 1.35 -16.05 0.05 -16.0 0.0 -15.65 0.6 Q-13.7 4.15 -12.95 7.95 L-12.75 9.0 -12.5 11.55 -12.5 11.6 -12.4 11.8 -12.2 11.95 -6.0 13.1 -5.65 13.2 -4.1 13.05 -3.05 13.0 -1.3 13.15 Q-0.85 13.3 -0.75 13.4 L-1.3 13.6 -3.05 13.85 -4.0 13.75 -4.1 13.8 -7.25 13.4 -7.35 13.4 -10.6 13.3 -10.9 13.6 -10.9 14.05 -10.35 14.5 -8.0 15.3 -7.7 15.3 -7.65 15.3 -6.95 15.25 -4.6 15.5 -4.6 15.45 Q-3.9 15.65 -3.8 15.9 L-4.55 16.25 -4.6 16.25 -6.95 16.55 -9.3 16.25 -10.0 15.95 -9.95 15.85 -9.4 15.5 Q-14.3 13.15 -17.95 13.7 L-18.65 14.05 -19.05 14.25 -19.1 14.25 -19.2 14.25 -20.95 14.5 -22.75 14.25 -23.2 14.05 Q-23.15 13.95 -22.7 13.8 L-22.75 13.85 -20.95 13.65 -20.6 13.65 -20.4 13.65 -18.95 13.65 -18.35 13.4 Q-16.45 12.7 -16.05 11.55 L-15.95 11.05 -15.95 9.0 -15.95 7.95 Q-16.15 4.7 -16.95 1.7" fill="url(#gradient3)" fill-rule="evenodd" stroke="none"/>
    </g>
    <radialGradient cx="0" cy="0" gradientTransform="matrix(0.0123, -0.0033, 0.005, 0.0189, -15.9, 1.5)" gradientUnits="userSpaceOnUse" id="gradient3" r="819.2" spreadMethod="pad">
      <stop offset="0.0" stop-color="#507724" stop-opacity="0.0"/>
      <stop offset="0.3137254901960784" stop-color="#5f7724"/>
      <stop offset="0.9529411764705882" stop-color="#2e4b00"/>
    </radialGradient>
    <g id="sprite3" transform="matrix(1.0, 0.0, 0.0, 1.0, 12.6, 0.5)">
      <use ffdec:characterId="2177" height="11.95" transform="matrix(1.0, 0.0, 0.0, 1.0, -12.6, -0.5)" width="13.1" xlink:href="#shape2"/>
    </g>
    <g id="shape2" transform="matrix(1.0, 0.0, 0.0, 1.0, 12.6, 0.5)">
      <path d="M-4.55 10.95 Q-7.0 10.95 -9.15 9.35 -11.25 7.75 -11.9 5.5 -12.5 3.2 -11.2 1.6 -9.95 0.0 -7.5 0.0 -5.1 0.0 -2.95 1.6 -0.8 3.2 -0.2 5.5 0.45 7.75 -0.9 9.35 -2.15 10.95 -4.55 10.95" fill="url(#gradient4)" fill-rule="evenodd" stroke="none"/>
      <path d="M-5.65 1.45 Q-3.25 2.15 -2.05 3.7 -0.9 5.25 -1.25 6.75 -1.65 8.25 -3.2 8.35 -4.8 8.4 -6.55 6.7 -8.3 5.0 -10.0 5.35 -11.7 5.65 -11.35 3.9 -11.0 2.15 -9.55 1.45 -8.1 0.7 -5.65 1.45" fill="url(#gradient5)" fill-rule="evenodd" stroke="none"/>
      <path d="M-1.25 5.25 Q-1.25 6.1 -1.9 6.7 -2.5 7.35 -3.35 7.35 -4.2 7.35 -4.85 6.7 -5.45 6.1 -5.45 5.25 -5.45 4.4 -4.85 3.75 -4.2 3.15 -3.35 3.15 -2.5 3.15 -1.9 3.75 -1.25 4.4 -1.25 5.25" fill="#000000" fill-rule="evenodd" stroke="none"/>
      <path d="M-3.15 3.75 Q-3.15 4.3 -3.55 4.7 -3.95 5.1 -4.5 5.1 -5.05 5.1 -5.45 4.7 -5.85 4.3 -5.85 3.75 -5.85 3.25 -5.45 2.8 -5.05 2.4 -4.5 2.4 -3.95 2.4 -3.55 2.8 -3.15 3.25 -3.15 3.75" fill="#ffffff" fill-opacity="0.2" fill-rule="evenodd" stroke="none"/>
      <path d="M-9.15 9.35 Q-11.25 7.75 -11.9 5.5 -12.5 3.2 -11.2 1.6 -9.95 0.0 -7.5 0.0 -5.1 0.0 -2.95 1.6 -0.8 3.2 -0.2 5.5 0.45 7.75 -0.9 9.35 -2.15 10.95 -4.55 10.95 -7.0 10.95 -9.15 9.35 Z" ffdec:has-small-stroke="true" ffdec:original-stroke-width="1.0" fill="none" stroke="#96a180" stroke-linecap="round" stroke-linejoin="round" stroke-width="2.248228706439917"/>
    </g>
    <radialGradient cx="0" cy="0" gradientTransform="matrix(0.0069, 0.0, 0.0017, 0.0065, -5.3, 4.7)" gradientUnits="userSpaceOnUse" id="gradient4" r="819.2" spreadMethod="pad">
      <stop offset="0.3803921568627451" stop-color="#ffffff"/>
      <stop offset="0.9529411764705882" stop-color="#d1d4c3"/>
    </radialGradient>
    <radialGradient cx="0" cy="0" gradientTransform="matrix(-0.0126, -0.0034, 0.0029, -0.0107, -5.2, 2.2)" gradientUnits="userSpaceOnUse" id="gradient5" r="819.2" spreadMethod="pad">
      <stop offset="0.0" stop-color="#ffffff"/>
      <stop offset="0.8313725490196079" stop-color="#ffffff" stop-opacity="0.0"/>
    </radialGradient>
    <g id="sprite4" transform="matrix(1.0, 0.0, 0.0, 1.0, 37.1, 0.5)">
      <use ffdec:characterId="2179" height="21.95" transform="matrix(1.0, 0.0, 0.0, 1.0, -37.1, -0.5)" width="37.6" xlink:href="#shape3"/>
    </g>
    <g id="shape3" transform="matrix(1.0, 0.0, 0.0, 1.0, 37.1, 0.5)">
      <path d="M-32.95 4.35 Q-30.1 0.95 -25.1 0.15 -20.8 -0.5 -15.7 1.55 -13.4 2.45 -11.0 3.85 -3.0 8.55 0.0 15.95 L-35.45 20.95 Q-37.0 16.45 -36.5 12.5 -35.85 7.7 -32.95 4.35" fill="url(#gradient6)" fill-rule="evenodd" stroke="none"/>
      <path d="M-32.95 4.35 Q-35.85 7.7 -36.5 12.5 -37.0 16.45 -35.45 20.95 L0.0 15.95 Q-3.0 8.55 -11.0 3.85 -13.4 2.45 -15.7 1.55 -20.8 -0.5 -25.1 0.15 -30.1 0.95 -32.95 4.35 Z" ffdec:has-small-stroke="true" ffdec:original-stroke-width="1.0" fill="none" stroke="#2d4300" stroke-linecap="round" stroke-linejoin="round" stroke-width="2.025278902314658"/>
    </g>
    <radialGradient cx="0" cy="0" gradientTransform="matrix(0.0095, -0.0165, 0.0234, 0.0135, -19.75, 14.35)" gradientUnits="userSpaceOnUse" id="gradient6" r="819.2" spreadMethod="pad">
      <stop offset="0.5843137254901961" stop-color="#82c259"/>
      <stop offset="0.9529411764705882" stop-color="#305600"/>
    </radialGradient>
    <g id="shape4" transform="matrix(1.0, 0.0, 0.0, 1.0, 78.65, -56.75)">
      <path d="M-50.8 65.1 Q-46.65 66.75 -42.55 65.1 -40.3 67.4 -38.75 74.4 -37.2 81.35 -42.35 86.55 L-45.65 89.2 Q-49.55 91.7 -54.25 91.65 -59.8 91.6 -64.75 89.0 -69.7 86.4 -73.3 82.25 -77.3 77.6 -78.05 71.65 -78.8 65.65 -74.95 60.95 -71.3 56.45 -65.55 57.55 -61.85 58.3 -58.8 60.6 -54.95 63.45 -50.8 65.1" fill="url(#gradient7)" fill-rule="evenodd" stroke="none"/>
      <path d="M-50.8 65.1 Q-46.65 66.75 -42.55 65.1 -40.3 67.4 -38.75 74.4 -37.2 81.35 -42.35 86.55 L-45.65 89.2 Q-49.55 91.7 -54.25 91.65 -59.8 91.6 -64.75 89.0 -69.7 86.4 -73.3 82.25 -77.3 77.6 -78.05 71.65 -78.8 65.65 -74.95 60.95 -71.3 56.45 -65.55 57.55 -61.85 58.3 -58.8 60.6 -54.95 63.45 -50.8 65.1 Z" ffdec:has-small-stroke="true" ffdec:original-stroke-width="1.0" fill="none" stroke="#2d4300" stroke-linecap="round" stroke-linejoin="round" stroke-width="2.025278902314658"/>
      <path d="M-50.8 64.5 Q-46.65 66.15 -42.55 64.5 -40.3 66.8 -38.75 73.8 -37.2 80.75 -42.35 85.95 L-45.65 88.6 Q-49.55 91.1 -54.25 91.05 -59.8 91.0 -64.75 88.4 -69.7 85.8 -73.3 81.65 -77.3 77.0 -78.05 71.05 -78.8 65.05 -74.95 60.35 -71.3 55.85 -65.55 56.95 -61.85 57.7 -58.8 60.0 -54.95 62.85 -50.8 64.5" fill="url(#gradient8)" fill-rule="evenodd" stroke="none"/>
    </g>
    <radialGradient cx="0" cy="0" gradientTransform="matrix(0.0245, -0.0141, 0.0199, 0.0346, -64.8, 65.2)" gradientUnits="userSpaceOnUse" id="gradient7" r="819.2" spreadMethod="pad">
      <stop offset="0.34901960784313724" stop-color="#ffeb91"/>
      <stop offset="0.7019607843137254" stop-color="#9ea24d"/>
      <stop offset="0.8784313725490196" stop-color="#3d5d13"/>
      <stop offset="1.0" stop-color="#5a7229"/>
    </radialGradient>
    <radialGradient cx="0" cy="0" gradientTransform="matrix(0.0245, -0.0141, 0.0199, 0.0346, -64.8, 64.6)" gradientUnits="userSpaceOnUse" id="gradient8" r="819.2" spreadMethod="pad">
      <stop offset="0.34901960784313724" stop-color="#ffeb91"/>
      <stop offset="0.7019607843137254" stop-color="#9ea24d" stop-opacity="0.0"/>
    </radialGradient>
    <g id="sprite5" transform="matrix(1.0, 0.0, 0.0, 1.0, 8.6, 0.0)">
      <use ffdec:characterId="2182" height="7.0" transform="matrix(1.0, 0.0, 0.0, 1.0, -8.6, 0.0)" width="8.6" xlink:href="#shape5"/>
    </g>
    <g id="shape5" transform="matrix(1.0, 0.0, 0.0, 1.0, 8.6, 0.0)">
      <path d="M-2.85 5.4 L-2.1 5.6 Q-1.8 5.85 -1.8 6.2 -1.8 6.55 -2.1 6.75 L-2.85 7.0 -3.6 6.75 -3.9 6.2 -3.6 5.6 -2.85 5.4 M-3.95 0.6 Q-3.25 0.0 -2.3 0.0 -1.35 0.0 -0.7 0.6 0.0 1.2 0.0 2.05 0.0 2.9 -0.7 3.5 -1.35 4.1 -2.3 4.1 -3.25 4.1 -3.95 3.5 -4.6 2.9 -4.6 2.05 -4.6 1.2 -3.95 0.6 M-6.9 2.55 Q-6.9 2.9 -7.15 3.1 L-7.75 3.35 -8.35 3.1 -8.6 2.55 -8.35 1.95 -7.75 1.75 Q-7.4 1.75 -7.15 1.95 -6.9 2.2 -6.9 2.55" fill="#444d00" fill-opacity="0.5019608" fill-rule="evenodd" stroke="none"/>
    </g>
    <g id="sprite6" transform="matrix(1.0, 0.0, 0.0, 1.0, 12.6, 0.5)">
      <use ffdec:characterId="2177" height="11.95" transform="matrix(1.0, 0.0, 0.0, 1.0, -12.6, -0.5)" width="13.1" xlink:href="#shape6"/>
    </g>
    <g id="shape6" transform="matrix(1.0, 0.0, 0.0, 1.0, 12.6, 0.5)">
      <path d="M-4.55 10.95 Q-7.0 10.95 -9.15 9.35 -11.25 7.75 -11.9 5.5 -12.5 3.2 -11.2 1.6 -9.95 0.0 -7.5 0.0 -5.1 0.0 -2.95 1.6 -0.8 3.2 -0.2 5.5 0.45 7.75 -0.9 9.35 -2.15 10.95 -4.55 10.95" fill="url(#gradient9)" fill-rule="evenodd" stroke="none"/>
      <path d="M-5.65 1.45 Q-3.25 2.15 -2.05 3.7 -0.9 5.25 -1.25 6.75 -1.65 8.25 -3.2 8.35 -4.8 8.4 -6.55 6.7 -8.3 5.0 -10.0 5.35 -11.7 5.65 -11.35 3.9 -11.0 2.15 -9.55 1.45 -8.1 0.7 -5.65 1.45" fill="url(#gradient10)" fill-rule="evenodd" stroke="none"/>
      <path d="M-1.25 5.25 Q-1.25 6.1 -1.9 6.7 -2.5 7.35 -3.35 7.35 -4.2 7.35 -4.85 6.7 -5.45 6.1 -5.45 5.25 -5.45 4.4 -4.85 3.75 -4.2 3.15 -3.35 3.15 -2.5 3.15 -1.9 3.75 -1.25 4.4 -1.25 5.25" fill="#000000" fill-rule="evenodd" stroke="none"/>
      <path d="M-3.15 3.75 Q-3.15 4.3 -3.55 4.7 -3.95 5.1 -4.5 5.1 -5.05 5.1 -5.45 4.7 -5.85 4.3 -5.85 3.75 -5.85 3.25 -5.45 2.8 -5.05 2.4 -4.5 2.4 -3.95 2.4 -3.55 2.8 -3.15 3.25 -3.15 3.75" fill="#ffffff" fill-opacity="0.2" fill-rule="evenodd" stroke="none"/>
      <path d="M-9.15 9.35 Q-11.25 7.75 -11.9 5.5 -12.5 3.2 -11.2 1.6 -9.95 0.0 -7.5 0.0 -5.1 0.0 -2.95 1.6 -0.8 3.2 -0.2 5.5 0.45 7.75 -0.9 9.35 -2.15 10.95 -4.55 10.95 -7.0 10.95 -9.15 9.35 Z" ffdec:has-small-stroke="true" ffdec:original-stroke-width="1.0" fill="none" stroke="#96a180" stroke-linecap="round" stroke-linejoin="round" stroke-width="2.025278902314658"/>
    </g>
    <radialGradient cx="0" cy="0" gradientTransform="matrix(0.0069, 0.0, 0.0017, 0.0065, -5.3, 4.7)" gradientUnits="userSpaceOnUse" id="gradient9" r="819.2" spreadMethod="pad">
      <stop offset="0.3803921568627451" stop-color="#ffffff"/>
      <stop offset="0.9529411764705882" stop-color="#d1d4c3"/>
    </radialGradient>
    <radialGradient cx="0" cy="0" gradientTransform="matrix(-0.0126, -0.0034, 0.0029, -0.0107, -5.2, 2.2)" gradientUnits="userSpaceOnUse" id="gradient10" r="819.2" spreadMethod="pad">
      <stop offset="0.0" stop-color="#ffffff"/>
      <stop offset="0.8313725490196079" stop-color="#ffffff" stop-opacity="0.0"/>
    </radialGradient>
    <g id="sprite7" transform="matrix(1.0, 0.0, 0.0, 1.0, 30.95, 0.0)">
      <use ffdec:characterId="2173" height="28.9" transform="matrix(1.0, 0.0, 0.0, 1.0, -30.95, 0.0)" width="30.95" xlink:href="#shape7"/>
    </g>
    <g id="shape7" transform="matrix(1.0, 0.0, 0.0, 1.0, 30.95, 0.0)">
      <path d="M-27.9 16.35 L-24.05 12.4 -19.85 8.55 -16.6 5.95 Q-13.6 3.7 -10.8 2.3 -7.7 0.7 -4.85 0.05 L-4.65 0.05 -4.45 0.2 -4.4 0.45 Q-5.15 12.7 -24.05 21.65 L-20.0 21.4 Q-13.95 21.0 -7.95 21.25 L-7.1 20.8 -7.0 20.8 -6.95 20.8 -4.6 20.5 -2.1 20.8 -2.05 20.8 Q-0.75 21.25 -0.8 22.0 -0.75 22.75 -2.1 23.15 L-2.05 23.15 -4.6 23.55 -7.1 23.15 -7.35 23.1 -9.5 23.2 -6.1 23.9 -3.8 23.6 -1.3 23.9 -1.25 23.9 Q0.05 24.35 0.0 25.1 0.05 25.85 -1.3 26.25 L-1.25 26.25 -3.8 26.65 -6.3 26.25 -7.5 25.5 -12.9 25.1 -11.65 25.85 -11.4 25.85 -8.9 26.15 -8.85 26.15 Q-7.55 26.6 -7.6 27.35 -7.55 28.1 -8.9 28.5 L-8.85 28.5 -11.4 28.9 -13.9 28.5 Q-15.25 28.1 -15.15 27.35 -15.25 27.0 -14.65 26.65 -19.4 25.05 -23.75 24.6 L-30.0 24.45 -30.25 24.4 -30.4 24.2 -30.4 24.0 -30.3 23.8 -26.55 20.5 -30.2 21.5 -30.5 21.8 -30.8 21.75 -30.95 21.5 -30.9 21.2 -30.7 21.05 -30.3 20.65 Q-27.5 20.15 -24.75 18.9 -19.55 16.5 -14.65 12.2 L-14.1 11.75 -8.45 5.95 -8.2 5.85 -7.95 5.95 -7.8 6.2 -7.9 6.45 Q-15.8 15.55 -24.4 19.6 L-24.45 19.6 -28.95 23.6 -23.65 23.85 -23.25 23.9 Q-18.6 24.4 -13.5 26.25 L-13.35 26.4 -13.25 26.6 -13.35 26.85 -13.5 26.95 -14.4 27.35 Q-14.35 27.6 -13.7 27.8 L-13.65 27.8 -11.4 28.15 -9.1 27.8 Q-8.45 27.6 -8.35 27.35 -8.45 27.1 -9.1 26.85 L-11.4 26.6 -11.75 26.6 -11.9 26.55 Q-13.25 25.9 -13.6 25.5 -14.0 25.1 -13.75 24.8 -13.7 24.5 -13.15 24.4 L-7.15 24.8 -6.9 24.9 -6.8 25.1 -6.05 25.55 -3.8 25.9 -1.5 25.55 -0.75 25.1 Q-0.85 24.85 -1.5 24.6 L-3.8 24.35 -5.95 24.6 -6.15 24.65 Q-10.55 23.9 -10.85 23.45 L-10.9 22.95 -10.6 22.7 -9.95 22.5 -7.3 22.35 -7.15 22.35 -6.85 22.45 -4.6 22.8 -2.3 22.45 Q-1.65 22.25 -1.55 22.0 -1.65 21.75 -2.3 21.5 L-4.6 21.25 -6.75 21.5 -6.9 21.55 -6.95 21.55 Q-7.35 21.7 -7.5 21.9 L-7.65 21.95 -7.8 22.0 Q-13.85 21.75 -19.95 22.15 L-20.7 22.2 -26.15 22.6 -26.4 22.5 -26.55 22.3 -26.55 22.05 -26.35 21.85 Q-6.45 13.05 -5.2 0.9 -8.1 1.6 -11.25 3.3 L-16.65 6.65 -20.2 9.35 -24.05 12.65 -27.9 16.35" fill="#2d4300" fill-rule="evenodd" stroke="none"/>
      <path d="M-27.9 16.35 L-24.05 12.65 -23.7 14.6 Q-23.25 16.25 -22.45 16.25 -22.15 16.25 -21.3 12.6 L-20.2 9.35 -16.65 6.65 -16.7 7.45 -16.35 10.15 Q-15.8 12.15 -14.65 12.2 -19.55 16.5 -24.75 18.9 -27.5 20.15 -30.3 20.65 -31.25 20.0 -27.9 16.35 M-11.25 3.3 Q-8.1 1.6 -5.2 0.9 -6.45 13.05 -26.35 21.85 L-26.55 22.05 -26.55 22.3 -26.4 22.5 -26.15 22.6 -20.7 22.2 -21.55 22.7 -23.25 23.9 -23.65 23.85 -28.95 23.6 -24.45 19.6 -24.4 19.6 Q-15.8 15.55 -7.9 6.45 L-7.8 6.2 -7.95 5.95 -8.2 5.85 -8.45 5.95 -14.1 11.75 Q-13.6 10.85 -12.95 8.3 -12.3 5.65 -11.25 3.3" fill="url(#gradient11)" fill-rule="evenodd" stroke="none"/>
      <path d="M-20.7 22.2 L-19.95 22.15 Q-13.85 21.75 -7.8 22.0 L-7.65 21.95 -7.5 21.9 Q-7.35 21.7 -6.95 21.55 L-6.9 21.55 -6.75 21.5 -4.6 21.25 -2.3 21.5 Q-1.65 21.75 -1.55 22.0 -1.65 22.25 -2.3 22.45 L-4.6 22.8 -6.85 22.45 -7.15 22.35 -7.3 22.35 -9.95 22.5 -10.6 22.7 -10.9 22.95 -10.85 23.45 Q-10.55 23.9 -6.15 24.65 L-5.95 24.6 -3.8 24.35 -1.5 24.6 Q-0.85 24.85 -0.75 25.1 L-1.5 25.55 -3.8 25.9 -6.05 25.55 -6.8 25.1 -6.9 24.9 -7.15 24.8 -13.15 24.4 Q-13.7 24.5 -13.75 24.8 -14.0 25.1 -13.6 25.5 -13.25 25.9 -11.9 26.55 L-11.75 26.6 -11.4 26.6 -9.1 26.85 Q-8.45 27.1 -8.35 27.35 -8.45 27.6 -9.1 27.8 L-11.4 28.15 -13.65 27.8 -13.7 27.8 Q-14.35 27.6 -14.4 27.35 L-13.5 26.95 -13.35 26.85 -13.25 26.6 -13.35 26.4 -13.5 26.25 Q-18.6 24.4 -23.25 23.9 L-21.55 22.7 -20.7 22.2" fill="url(#gradient12)" fill-rule="evenodd" stroke="none"/>
      <path d="M-24.05 12.65 L-20.2 9.35 -21.3 12.6 Q-22.15 16.25 -22.45 16.25 -23.25 16.25 -23.7 14.6 L-24.05 12.65 M-16.65 6.65 L-11.25 3.3 Q-12.3 5.65 -12.95 8.3 -13.6 10.85 -14.1 11.75 L-14.65 12.2 Q-15.8 12.15 -16.35 10.15 L-16.7 7.45 -16.65 6.65" fill="url(#gradient13)" fill-rule="evenodd" stroke="none"/>
    </g>
    <radialGradient cx="0" cy="0" gradientTransform="matrix(0.004, 0.0055, -0.0238, 0.0172, -28.1, 13.8)" gradientUnits="userSpaceOnUse" id="gradient11" r="819.2" spreadMethod="pad">
      <stop offset="0.0" stop-color="#e2d57b"/>
      <stop offset="0.42745098039215684" stop-color="#a6c259"/>
      <stop offset="0.9529411764705882" stop-color="#305600"/>
    </radialGradient>
    <radialGradient cx="0" cy="0" gradientTransform="matrix(0.027, 0.0, 0.0, 0.0202, -0.3, 23.6)" gradientUnits="userSpaceOnUse" id="gradient12" r="819.2" spreadMethod="pad">
      <stop offset="0.0" stop-color="#e2d57b"/>
      <stop offset="0.42745098039215684" stop-color="#a6c259"/>
      <stop offset="0.9529411764705882" stop-color="#305600"/>
    </radialGradient>
    <radialGradient cx="0" cy="0" gradientTransform="matrix(0.004, 0.0055, -0.0238, 0.0172, -28.1, 13.8)" gradientUnits="userSpaceOnUse" id="gradient13" r="819.2" spreadMethod="pad">
      <stop offset="0.403921568627451" stop-color="#5e8023"/>
      <stop offset="0.9529411764705882" stop-color="#172a00"/>
    </radialGradient>
    <g id="sprite8" transform="matrix(1.0, 0.0, 0.0, 1.0, 23.95, 0.0)">
      <use ffdec:characterId="2175" height="17.3" transform="matrix(1.0, 0.0, 0.0, 1.0, -23.95, 0.0)" width="23.95" xlink:href="#shape8"/>
    </g>
    <g id="shape8" transform="matrix(1.0, 0.0, 0.0, 1.0, 23.95, 0.0)">
      <path d="M-15.65 0.6 Q-13.5 1.8 -12.3 7.95 L-12.1 9.0 -11.8 11.25 -5.1 12.5 -5.05 12.45 -4.2 12.3 -4.15 12.3 -3.05 12.25 -1.1 12.45 Q0.05 12.8 0.0 13.4 0.05 14.05 -1.1 14.35 L-1.05 14.3 -3.05 14.6 -4.6 14.45 -4.65 14.45 -5.05 14.35 -5.05 14.3 -5.15 14.35 -5.35 14.4 -9.8 13.95 -8.4 14.55 -7.75 14.55 -6.95 14.5 -4.4 14.75 Q-3.0 15.15 -3.05 15.9 -3.0 16.65 -4.4 17.0 L-4.4 16.95 -6.95 17.3 -9.5 16.95 -9.5 17.0 Q-10.85 16.65 -10.75 15.9 L-10.65 15.5 Q-14.65 13.9 -18.0 14.45 L-18.95 14.95 -19.05 15.0 -20.95 15.25 -22.95 14.95 Q-24.05 14.65 -23.95 14.05 -24.05 13.45 -22.95 13.1 L-20.95 12.9 -20.6 12.9 -20.55 12.9 -19.65 12.95 Q-17.5 12.45 -16.9 11.55 L-16.7 11.0 -16.65 9.0 -16.65 7.95 -16.95 1.7 Q-16.15 4.7 -15.95 7.95 L-15.95 9.0 -15.95 11.05 -16.05 11.55 Q-16.45 12.7 -18.35 13.4 L-18.95 13.65 -20.4 13.65 -20.6 13.65 -20.95 13.65 -22.75 13.85 -22.7 13.8 Q-23.15 13.95 -23.2 14.05 L-22.75 14.25 -20.95 14.5 -19.2 14.25 -19.1 14.25 -19.05 14.25 -18.65 14.05 -17.95 13.7 Q-14.3 13.15 -9.4 15.5 L-9.95 15.85 -10.0 15.95 -9.3 16.25 -6.95 16.55 -4.6 16.25 -4.55 16.25 -3.8 15.9 Q-3.9 15.65 -4.6 15.45 L-4.6 15.5 -6.95 15.25 -7.65 15.3 -7.7 15.3 -8.0 15.3 -10.35 14.5 -10.9 14.05 -10.9 13.6 -10.6 13.3 -7.35 13.4 -7.25 13.4 -4.1 13.8 -4.0 13.75 -3.05 13.85 -1.3 13.6 -0.75 13.4 Q-0.85 13.3 -1.3 13.15 L-3.05 13.0 -4.1 13.05 -5.65 13.2 -6.0 13.1 -12.2 11.95 -12.4 11.8 -12.5 11.6 -12.5 11.55 -12.75 9.0 -12.95 7.95 Q-13.7 4.15 -15.65 0.6" fill="#2d4300" fill-rule="evenodd" stroke="none"/>
      <path d="M-16.95 1.7 L-17.1 1.5 -16.95 1.35 -16.05 0.05 -16.0 0.0 -15.65 0.6 Q-13.7 4.15 -12.95 7.95 L-12.75 9.0 -12.5 11.55 -12.5 11.6 -12.4 11.8 -12.2 11.95 -6.0 13.1 -5.65 13.2 -4.1 13.05 -3.05 13.0 -1.3 13.15 Q-0.85 13.3 -0.75 13.4 L-1.3 13.6 -3.05 13.85 -4.0 13.75 -4.1 13.8 -7.25 13.4 -7.35 13.4 -10.6 13.3 -10.9 13.6 -10.9 14.05 -10.35 14.5 -8.0 15.3 -7.7 15.3 -7.65 15.3 -6.95 15.25 -4.6 15.5 -4.6 15.45 Q-3.9 15.65 -3.8 15.9 L-4.55 16.25 -4.6 16.25 -6.95 16.55 -9.3 16.25 -10.0 15.95 -9.95 15.85 -9.4 15.5 Q-14.3 13.15 -17.95 13.7 L-18.65 14.05 -19.05 14.25 -19.1 14.25 -19.2 14.25 -20.95 14.5 -22.75 14.25 -23.2 14.05 Q-23.15 13.95 -22.7 13.8 L-22.75 13.85 -20.95 13.65 -20.6 13.65 -20.4 13.65 -18.95 13.65 -18.35 13.4 Q-16.45 12.7 -16.05 11.55 L-15.95 11.05 -15.95 9.0 -15.95 7.95 Q-16.15 4.7 -16.95 1.7" fill="url(#gradient14)" fill-rule="evenodd" stroke="none"/>
    </g>
    <radialGradient cx="0" cy="0" gradientTransform="matrix(0.0123, -0.0033, 0.005, 0.0189, -15.9, 1.5)" gradientUnits="userSpaceOnUse" id="gradient14" r="819.2" spreadMethod="pad">
      <stop offset="0.0" stop-color="#82c259" stop-opacity="0.0"/>
      <stop offset="0.3137254901960784" stop-color="#a6c259"/>
      <stop offset="0.9529411764705882" stop-color="#305600"/>
    </radialGradient>
  </defs>
</svg>
