<?xml version="1.0" encoding="UTF-8" standalone="no"?>
<svg xmlns:ffdec="https://www.free-decompiler.com/flash" xmlns:xlink="http://www.w3.org/1999/xlink" ffdec:objectType="frame" height="48.75px" width="47.3px" xmlns="http://www.w3.org/2000/svg">
  <g transform="matrix(1.0, 0.0, 0.0, 1.0, 12.3, 6.55)">
    <filter id="filter0">
      <feColorMatrix in="SourceGraphic" result="filterResult0" type="matrix" values="0.62465054 1.2245642 -0.8892148 0.0 0.16054901 -0.0060027624 0.6312056 0.33479714 0.0 0.16054903 0.93398994 -0.22080088 0.24681088 0.0 0.16054901 0.0 0.0 0.0 1.0 0.0"/>
    </filter>
    <use ffdec:characterId="2240" filter="url(#filter0)" height="52.0" id="bg_mc" transform="matrix(0.875, 0.0, 0.0, 0.875, -10.5, -6.05)" width="52.0" xlink:href="#sprite0"/>
    <filter id="filter1">
      <feColorMatrix in="SourceGraphic" result="filterResult1" type="matrix" values="0 0 0 0 0.4,0 0 0 0 0.8,0 0 0 0 1.0,0 0 0 1 0"/>
      <feConvolveMatrix divisor="25.0" in="filterResult1" kernelMatrix="1 1 1 1 1 1 1 1 1 1 1 1 1 1 1 1 1 1 1 1 1 1 1 1 1" order="5 5" result="filterResult2"/>
      <feComposite in="SourceGraphic" in2="filterResult2" operator="over" result="filterResult3"/>
      <feColorMatrix in="filterResult3" result="filterResult4" type="matrix" values="1.0 0.0 0.0 0.0 0.0 0.0 1.0 0.0 0.0 0.0 0.0 0.0 1.0 0.0 0.0 0.0 0.0 0.0 1.0 0.0"/>
    </filter>
    <use ffdec:characterId="2246" filter="url(#filter1)" height="118.0" transform="matrix(0.275, 0.0, 0.0, 0.275, 1.5531, 0.1325)" width="79.45" xlink:href="#sprite2"/>
  </g>
  <defs>
    <g id="sprite0" transform="matrix(1.0, 0.0, 0.0, 1.0, 0.0, 0.0)">
      <use ffdec:characterId="2239" height="52.0" transform="matrix(1.0, 0.0, 0.0, 1.0, 0.0, 0.0)" width="52.0" xlink:href="#sprite1"/>
    </g>
    <g id="sprite1" transform="matrix(1.0, 0.0, 0.0, 1.0, 0.0, 0.0)">
      <use ffdec:characterId="2220" height="52.0" transform="matrix(1.0, 0.0, 0.0, 1.0, 0.0, 0.0)" width="52.0" xlink:href="#shape0"/>
    </g>
    <g id="shape0" transform="matrix(1.0, 0.0, 0.0, 1.0, 0.0, 0.0)">
      <path d="M0.0 0.0 L4.0 4.0 4.0 48.0 0.0 52.0 0.0 0.0" fill="#390a4f" fill-rule="evenodd" stroke="none"/>
      <path d="M48.0 48.0 L52.0 52.0 0.0 52.0 4.0 48.0 48.0 48.0" fill="#2a0635" fill-rule="evenodd" stroke="none"/>
      <path d="M48.0 48.0 L48.0 4.0 4.0 4.0 0.0 0.0 52.0 0.0 52.0 52.0 48.0 48.0" fill="#863ca1" fill-rule="evenodd" stroke="none"/>
      <path d="M4.0 4.0 L48.0 4.0 48.0 48.0 4.0 48.0 4.0 4.0" fill="#59146b" fill-rule="evenodd" stroke="none"/>
    </g>
    <g id="sprite2" transform="matrix(1.0, 0.0, 0.0, 1.0, 28.9, 60.25)">
      <use ffdec:characterId="2245" height="118.0" transform="matrix(1.0, 0.0, 0.0, 1.0, -28.9, -60.25)" width="79.45" xlink:href="#sprite3"/>
    </g>
    <g id="sprite3" transform="matrix(1.0, 0.0, 0.0, 1.0, 35.1, 68.35)">
      <use ffdec:characterId="2241" height="111.45" transform="matrix(1.0, 0.0, 0.0, 1.0, -35.1, -61.8)" width="60.3" xlink:href="#shape1"/>
      <use ffdec:characterId="2243" height="57.25" transform="matrix(0.7087, 0.3565, -0.3565, 0.7087, -2.4049, -68.3741)" width="66.0" xlink:href="#sprite4"/>
      <use ffdec:characterId="2244" height="12.4" transform="matrix(1.0, 0.0, 0.0, 1.0, 15.8, -61.8)" width="9.4" xlink:href="#shape3"/>
    </g>
    <g id="shape1" transform="matrix(1.0, 0.0, 0.0, 1.0, 35.1, 61.8)">
      <path d="M25.2 -59.65 L-29.8 49.65 -35.1 49.65 20.95 -61.8 25.2 -59.65" fill="#8c561a" fill-rule="evenodd" stroke="none"/>
    </g>
    <g id="sprite4" transform="matrix(1.0, 0.0, 0.0, 1.0, 33.0, 23.65)">
      <use ffdec:characterId="2242" height="57.25" transform="matrix(1.0, 0.0, 0.0, 1.0, -33.0, -23.65)" width="66.0" xlink:href="#shape2"/>
    </g>
    <g id="shape2" transform="matrix(1.0, 0.0, 0.0, 1.0, 33.0, 23.65)">
      <path d="M31.5 -16.35 Q31.45 -14.0 22.25 -12.35 L11.5 -11.0 0.0 -10.65 Q-13.05 -10.65 -22.3 -12.35 -30.8 -13.9 -31.45 -16.05 L-31.5 -16.55 Q-31.2 -18.85 -22.3 -20.5 -13.05 -22.15 0.0 -22.15 L11.5 -21.75 22.25 -20.5 Q31.4 -18.8 31.5 -16.45 L31.5 -16.35" fill="#fef8f5" fill-rule="evenodd" stroke="none"/>
      <path d="M-31.45 -16.05 Q-30.8 -13.9 -22.3 -12.35 -13.05 -10.65 0.0 -10.65 L11.5 -11.0 22.25 -12.35 Q31.45 -14.0 31.5 -16.35 L31.5 26.4 Q31.4 28.75 22.25 30.4 13.15 32.1 0.0 32.1 -13.2 32.1 -22.3 30.4 -30.8 28.8 -31.45 26.7 L-31.5 26.35 -31.45 26.0 -31.45 -16.05 M-31.45 26.7 L-31.45 26.0 -31.45 26.7" fill="#fff0e7" fill-rule="evenodd" stroke="none"/>
      <path d="M31.5 -16.35 Q31.45 -14.0 22.25 -12.35 L11.5 -11.0 0.0 -10.65 Q-13.05 -10.65 -22.3 -12.35 -30.8 -13.9 -31.45 -16.05" ffdec:has-small-stroke="true" ffdec:original-stroke-width="3.0" fill="none" stroke="#ffffff" stroke-linecap="round" stroke-linejoin="round" stroke-width="4.584325689769253"/>
      <path d="M-31.45 -16.05 L-31.45 26.0 -31.45 26.7 Q-30.8 28.8 -22.3 30.4 -13.2 32.1 0.0 32.1 13.15 32.1 22.25 30.4 31.4 28.75 31.5 26.4 L31.5 -16.35 31.5 -16.45 Q31.4 -18.8 22.25 -20.5 L11.5 -21.75 0.0 -22.15 Q-13.05 -22.15 -22.3 -20.5 -31.2 -18.85 -31.5 -16.55 L-31.45 -16.05 -31.5 -16.4 -31.5 -16.55 M-31.45 26.7 L-31.5 26.35 -31.45 26.0" ffdec:has-small-stroke="true" ffdec:original-stroke-width="3.0" fill="none" stroke="#a79060" stroke-linecap="round" stroke-linejoin="round" stroke-width="4.584325689769253"/>
    </g>
    <g id="shape3" transform="matrix(1.0, 0.0, 0.0, 1.0, -15.8, 61.8)">
      <path d="M25.2 -59.65 L20.05 -49.4 15.8 -51.55 20.95 -61.8 25.2 -59.65" fill="#8c561a" fill-rule="evenodd" stroke="none"/>
    </g>
  </defs>
</svg>
