<?xml version="1.0" encoding="UTF-8" standalone="no"?>
<svg xmlns:ffdec="https://www.free-decompiler.com/flash" xmlns:xlink="http://www.w3.org/1999/xlink" ffdec:objectType="frame" height="48.75px" width="47.3px" xmlns="http://www.w3.org/2000/svg">
  <g transform="matrix(1.0, 0.0, 0.0, 1.0, 12.3, 6.55)">
    <use ffdec:characterId="1998" height="75.45" transform="matrix(0.4249, 0.0, 0.0, 0.4249, -4.0318, -0.1872)" width="77.9" xlink:href="#sprite0"/>
  </g>
  <defs>
    <g id="sprite0" transform="matrix(1.0, 0.0, 0.0, 1.0, -4.75, 13.15)">
      <use ffdec:characterId="1992" height="57.25" transform="matrix(0.9909, -0.1314, 0.1314, 0.9909, 18.5844, -5.6338)" width="57.05" xlink:href="#sprite1"/>
      <use ffdec:characterId="1996" height="67.9" transform="matrix(1.0, 0.0, 0.0, 1.0, 4.75, -5.6)" width="36.75" xlink:href="#sprite3"/>
      <use ffdec:characterId="1997" height="59.75" transform="matrix(1.0, 0.0, 0.0, 1.0, 14.05, -5.4)" width="49.65" xlink:href="#sprite5"/>
    </g>
    <g id="sprite1" transform="matrix(1.0, 0.0, 0.0, 1.0, -3.75, 1.0)">
      <use ffdec:characterId="1989" height="186.4" transform="matrix(0.2027, 0.0, 0.0, 0.2027, 3.746, -1.004)" width="160.65" xlink:href="#sprite2"/>
      <use ffdec:characterId="1991" height="50.8" transform="matrix(1.0, 0.0, 0.0, 1.0, 19.05, 5.45)" width="41.75" xlink:href="#shape1"/>
    </g>
    <g id="sprite2" transform="matrix(1.0, 0.0, 0.0, 1.0, 1.5, 1.5)">
      <use ffdec:characterId="1988" height="186.4" transform="matrix(1.0, 0.0, 0.0, 1.0, -1.5, -1.5)" width="160.65" xlink:href="#shape0"/>
    </g>
    <g id="shape0" transform="matrix(1.0, 0.0, 0.0, 1.0, 1.5, 1.5)">
      <path d="M157.6 97.95 L156.95 107.25 154.85 106.95 157.6 97.95" fill="#e2e2e2" fill-opacity="0.6" fill-rule="evenodd" stroke="none"/>
      <path d="M3.6 59.2 L3.85 58.1 Q18.5 14.3 56.9 2.2 109.35 -9.4 143.2 40.35 158.3 69.15 157.6 97.95 L154.85 106.95 Q130.55 163.75 74.45 158.45 31.0 150.55 10.25 102.05 2.75 80.9 3.6 59.2" fill="#f0ebd9" fill-opacity="0.6" fill-rule="evenodd" stroke="none"/>
      <path d="M156.95 107.25 Q155.55 119.35 151.35 131.45 127.05 188.25 70.95 182.95 27.5 175.05 6.75 126.55 -4.95 93.55 3.6 59.2 2.75 80.9 10.25 102.05 31.0 150.55 74.45 158.45 130.55 163.75 154.85 106.95 L156.95 107.25" fill="#dacda3" fill-opacity="0.6" fill-rule="evenodd" stroke="none"/>
      <path d="M3.6 59.2 L3.85 58.1 Q18.5 14.3 56.9 2.2 109.35 -9.4 143.2 40.35 158.3 69.15 157.6 97.95 L156.95 107.25 Q155.55 119.35 151.35 131.45 127.05 188.25 70.95 182.95 27.5 175.05 6.75 126.55 -4.95 93.55 3.6 59.2 Z" ffdec:has-small-stroke="true" ffdec:original-stroke-width="3.0" fill="none" stroke="#666666" stroke-linecap="round" stroke-linejoin="round" stroke-opacity="0.6" stroke-width="11.616372867789934"/>
    </g>
    <g id="shape1" transform="matrix(1.0, 0.0, 0.0, 1.0, -19.05, -5.45)">
      <path d="M23.2 26.65 Q28.8 30.55 35.05 24.3 32.05 33.4 28.15 33.45 23.3 33.5 23.2 26.65" fill="#ffffff" fill-opacity="0.6" fill-rule="evenodd" stroke="none"/>
      <path d="M23.2 26.65 Q23.3 33.5 28.15 33.45 32.05 33.4 35.05 24.3 28.8 30.55 23.2 26.65 Z" ffdec:has-small-stroke="true" ffdec:original-stroke-width="0.05" fill="none" stroke="#666666" stroke-linecap="round" stroke-linejoin="round" stroke-opacity="0.6" stroke-width="2.3546126888385235"/>
      <path d="M33.3 16.7 Q40.55 21.45 46.3 27.25 53.95 35.35 57.95 45.55 62.7 54.25 59.5 56.25 58.0 56.0 48.5 36.15 41.85 25.35 30.7 19.8 L33.3 16.7" fill="#f0ebd9" fill-opacity="0.6" fill-rule="evenodd" stroke="none"/>
      <path d="M33.3 16.7 Q40.55 21.45 46.3 27.25 53.95 35.35 57.95 45.55 62.7 54.25 59.5 56.25 58.0 56.0 48.5 36.15 41.85 25.35 30.7 19.8" ffdec:has-small-stroke="true" ffdec:original-stroke-width="0.05" fill="none" stroke="#999999" stroke-linecap="round" stroke-linejoin="round" stroke-opacity="0.6" stroke-width="2.3546126888385235"/>
      <path d="M29.7 10.35 Q29.45 9.25 29.55 8.2 29.75 6.25 30.95 5.65 32.1 5.05 33.65 6.1 35.25 7.25 36.25 9.5 37.2 11.6 37.05 13.55 36.9 15.6 35.7 16.25 34.5 16.85 32.85 15.75 31.35 14.6 30.4 12.45 L30.3 12.2 30.35 12.7 Q30.5 15.15 29.0 17.0 27.4 18.85 25.1 19.05 22.75 19.2 21.0 17.55 19.2 15.95 19.05 13.5 18.85 11.05 20.4 9.2 21.9 7.35 24.25 7.2 26.55 7.0 28.4 8.65 L29.7 10.35 30.3 12.2 29.7 10.35 M24.95 10.7 Q24.1 10.75 23.5 11.4 23.0 12.1 23.1 13.0 23.15 13.9 23.75 14.45 24.4 15.05 25.25 15.0 26.15 14.95 26.65 14.25 27.2 13.6 27.15 12.7 27.05 11.8 26.4 11.2 25.85 10.65 24.95 10.7 M35.25 8.15 L34.2 8.0 Q33.75 8.25 33.65 8.9 33.6 9.65 33.95 10.4 34.25 11.2 34.8 11.55 35.35 11.95 35.85 11.75 36.3 11.5 36.35 10.8 36.5 10.1 36.15 9.4 35.8 8.6 35.25 8.15" fill="#ffffff" fill-opacity="0.6" fill-rule="evenodd" stroke="none"/>
      <path d="M35.25 8.15 Q35.8 8.6 36.15 9.4 36.5 10.1 36.35 10.8 36.3 11.5 35.85 11.75 35.35 11.95 34.8 11.55 34.25 11.2 33.95 10.4 33.6 9.65 33.65 8.9 33.75 8.25 34.2 8.0 L35.25 8.15 M24.95 10.7 Q25.85 10.65 26.4 11.2 27.05 11.8 27.15 12.7 27.2 13.6 26.65 14.25 26.15 14.95 25.25 15.0 24.4 15.05 23.75 14.45 23.15 13.9 23.1 13.0 23.0 12.1 23.5 11.4 24.1 10.75 24.95 10.7" fill="#996600" fill-opacity="0.6" fill-rule="evenodd" stroke="none"/>
      <path d="M29.7 10.35 Q29.45 9.25 29.55 8.2 29.75 6.25 30.95 5.65 32.1 5.05 33.65 6.1 35.25 7.25 36.25 9.5 37.2 11.6 37.05 13.55 36.9 15.6 35.7 16.25 34.5 16.85 32.85 15.75 31.35 14.6 30.4 12.45 L30.3 12.2 30.35 12.7 Q30.5 15.15 29.0 17.0 27.4 18.85 25.1 19.05 22.75 19.2 21.0 17.55 19.2 15.95 19.05 13.5 18.85 11.05 20.4 9.2 21.9 7.35 24.25 7.2 26.55 7.0 28.4 8.65 L29.7 10.35 30.3 12.2" ffdec:has-small-stroke="true" ffdec:original-stroke-width="0.05" fill="none" stroke="#999999" stroke-linecap="round" stroke-linejoin="round" stroke-opacity="0.6" stroke-width="2.3546126888385235"/>
    </g>
    <g id="sprite3" transform="matrix(1.0, 0.0, 0.0, 1.0, -1.95, 0.55)">
      <use ffdec:characterId="1994" height="187.55" transform="matrix(0.2195, 0.0, 0.0, 0.215, 1.9707, -0.5725)" width="167.35" xlink:href="#sprite4"/>
      <use ffdec:characterId="1995" height="59.9" transform="matrix(1.0, 0.0, 0.0, 1.0, 7.0, 7.45)" width="27.1" xlink:href="#shape3"/>
    </g>
    <g id="sprite4" transform="matrix(1.0, 0.0, 0.0, 1.0, 1.5, 1.5)">
      <use ffdec:characterId="1993" height="187.55" transform="matrix(1.0, 0.0, 0.0, 1.0, -1.5, -1.5)" width="167.35" xlink:href="#shape2"/>
    </g>
    <g id="shape2" transform="matrix(1.0, 0.0, 0.0, 1.0, 1.5, 1.5)">
      <path d="M163.7 79.7 Q164.7 88.55 164.15 97.8 L160.35 97.6 Q162.7 88.45 163.7 79.7" fill="#e2e2e2" fill-opacity="0.5176471" fill-rule="evenodd" stroke="none"/>
      <path d="M0.7 80.85 Q1.6 72.8 3.85 64.5 17.95 19.2 56.7 4.95 102.6 -11.65 140.65 27.7 160.35 51.45 163.7 79.7 162.7 88.45 160.35 97.6 138.25 158.5 82.9 161.05 37.6 159.5 14.05 119.4 3.1 100.8 0.7 80.85" fill="#f0ebd9" fill-opacity="0.5176471" fill-rule="evenodd" stroke="none"/>
      <path d="M164.15 97.8 Q163.45 109.1 160.35 121.1 138.25 182.0 82.9 184.55 37.6 183.0 14.05 142.9 -3.2 113.6 0.7 80.85 3.1 100.8 14.05 119.4 37.6 159.5 82.9 161.05 138.25 158.5 160.35 97.6 L164.15 97.8" fill="#e6ddbf" fill-opacity="0.5176471" fill-rule="evenodd" stroke="none"/>
      <path d="M163.7 79.7 Q164.7 88.55 164.15 97.8 163.45 109.1 160.35 121.1 138.25 182.0 82.9 184.55 37.6 183.0 14.05 142.9 -3.2 113.6 0.7 80.85 1.6 72.8 3.85 64.5 17.95 19.2 56.7 4.95 102.6 -11.65 140.65 27.7 160.35 51.45 163.7 79.7 Z" ffdec:has-small-stroke="true" ffdec:original-stroke-width="3.0" fill="none" stroke="#999999" stroke-linecap="round" stroke-linejoin="round" stroke-opacity="0.5176471" stroke-width="10.832394341348465"/>
    </g>
    <g id="shape3" transform="matrix(1.0, 0.0, 0.0, 1.0, -7.0, -7.45)">
      <path d="M27.85 29.0 Q25.75 36.95 19.85 37.0 13.0 36.45 11.25 29.0 19.85 35.4 27.85 29.0" fill="#ffffff" fill-opacity="0.5176471" fill-rule="evenodd" stroke="none"/>
      <path d="M27.85 29.0 Q25.75 36.95 19.85 37.0 13.0 36.45 11.25 29.0 19.85 35.4 27.85 29.0 Z" ffdec:has-small-stroke="true" ffdec:original-stroke-width="0.05" fill="none" stroke="#666666" stroke-linecap="round" stroke-linejoin="round" stroke-opacity="0.5176471" stroke-width="2.353600287304723"/>
      <path d="M17.35 20.25 L21.75 20.25 Q20.9 53.95 19.65 65.25 17.65 69.45 16.0 65.25 15.35 58.1 17.35 20.25" fill="#f0ebd9" fill-opacity="0.5176471" fill-rule="evenodd" stroke="none"/>
      <path d="M17.35 20.25 Q15.35 58.1 16.0 65.25 17.65 69.45 19.65 65.25 20.9 53.95 21.75 20.25" ffdec:has-small-stroke="true" ffdec:original-stroke-width="0.05" fill="none" stroke="#666666" stroke-linecap="round" stroke-linejoin="round" stroke-opacity="0.5176471" stroke-width="2.353600287304723"/>
      <path d="M17.85 9.3 Q19.7 11.15 19.7 13.8 19.7 16.45 17.85 18.3 16.0 20.15 13.35 20.15 10.7 20.15 8.85 18.3 7.0 16.45 7.0 13.8 7.0 11.15 8.85 9.3 10.7 7.45 13.35 7.45 16.0 7.45 17.85 9.3 M14.6 11.75 L13.95 11.25 12.9 11.0 Q11.9 11.0 11.2 11.75 10.5 12.55 10.5 13.65 10.5 14.75 11.2 15.5 L12.5 16.3 12.9 16.3 Q13.9 16.3 14.6 15.5 15.3 14.75 15.3 13.65 15.3 12.55 14.6 11.75" fill="#ffffff" fill-opacity="0.5176471" fill-rule="evenodd" stroke="none"/>
      <path d="M14.6 11.75 Q15.3 12.55 15.3 13.65 15.3 14.75 14.6 15.5 13.9 16.3 12.9 16.3 L12.5 16.3 11.2 15.5 Q10.5 14.75 10.5 13.65 10.5 12.55 11.2 11.75 11.9 11.0 12.9 11.0 L13.95 11.25 14.6 11.75" fill="#996600" fill-opacity="0.5176471" fill-rule="evenodd" stroke="none"/>
      <path d="M17.85 9.3 Q19.7 11.15 19.7 13.8 19.7 16.45 17.85 18.3 16.0 20.15 13.35 20.15 10.7 20.15 8.85 18.3 7.0 16.45 7.0 13.8 7.0 11.15 8.85 9.3 10.7 7.45 13.35 7.45 16.0 7.45 17.85 9.3 Z" ffdec:has-small-stroke="true" ffdec:original-stroke-width="0.05" fill="none" stroke="#666666" stroke-linecap="round" stroke-linejoin="round" stroke-opacity="0.5176471" stroke-width="2.353600287304723"/>
      <path d="M26.5 12.35 L27.15 11.85 28.2 11.6 Q29.2 11.6 29.9 12.35 30.6 13.15 30.6 14.25 30.6 15.35 29.9 16.1 L28.6 16.9 28.2 16.9 Q27.2 16.9 26.5 16.1 25.8 15.35 25.8 14.25 25.8 13.15 26.5 12.35" fill="#996600" fill-opacity="0.5176471" fill-rule="evenodd" stroke="none"/>
      <path d="M23.25 9.9 Q25.1 8.05 27.75 8.05 30.4 8.05 32.25 9.9 34.1 11.75 34.1 14.4 34.1 17.05 32.25 18.9 30.4 20.75 27.75 20.75 25.1 20.75 23.25 18.9 21.4 17.05 21.4 14.4 21.4 11.75 23.25 9.9 M26.5 12.35 Q25.8 13.15 25.8 14.25 25.8 15.35 26.5 16.1 27.2 16.9 28.2 16.9 L28.6 16.9 29.9 16.1 Q30.6 15.35 30.6 14.25 30.6 13.15 29.9 12.35 29.2 11.6 28.2 11.6 L27.15 11.85 26.5 12.35" fill="#ffffff" fill-opacity="0.5176471" fill-rule="evenodd" stroke="none"/>
      <path d="M23.25 9.9 Q21.4 11.75 21.4 14.4 21.4 17.05 23.25 18.9 25.1 20.75 27.75 20.75 30.4 20.75 32.25 18.9 34.1 17.05 34.1 14.4 34.1 11.75 32.25 9.9 30.4 8.05 27.75 8.05 25.1 8.05 23.25 9.9 Z" ffdec:has-small-stroke="true" ffdec:original-stroke-width="0.05" fill="none" stroke="#666666" stroke-linecap="round" stroke-linejoin="round" stroke-opacity="0.5176471" stroke-width="2.353600287304723"/>
    </g>
    <g id="sprite5" transform="matrix(1.0, 0.0, 0.0, 1.0, -3.75, 1.0)">
      <use ffdec:characterId="1989" height="186.4" transform="matrix(0.2027, 0.0, 0.0, 0.2027, 3.746, -1.004)" width="160.65" xlink:href="#sprite6"/>
      <use ffdec:characterId="1756" height="53.7" transform="matrix(1.0, 0.0, 0.0, 1.0, 15.7, 5.05)" width="37.7" xlink:href="#shape5"/>
    </g>
    <g id="sprite6" transform="matrix(1.0, 0.0, 0.0, 1.0, 1.5, 1.5)">
      <use ffdec:characterId="1988" height="186.4" transform="matrix(1.0, 0.0, 0.0, 1.0, -1.5, -1.5)" width="160.65" xlink:href="#shape4"/>
    </g>
    <g id="shape4" transform="matrix(1.0, 0.0, 0.0, 1.0, 1.5, 1.5)">
      <path d="M157.6 97.95 L156.95 107.25 154.85 106.95 157.6 97.95" fill="#e2e2e2" fill-rule="evenodd" stroke="none"/>
      <path d="M3.6 59.2 L3.85 58.1 Q18.5 14.3 56.9 2.2 109.35 -9.4 143.2 40.35 158.3 69.15 157.6 97.95 L154.85 106.95 Q130.55 163.75 74.45 158.45 31.0 150.55 10.25 102.05 2.75 80.9 3.6 59.2" fill="#f0ebd9" fill-rule="evenodd" stroke="none"/>
      <path d="M156.95 107.25 Q155.55 119.35 151.35 131.45 127.05 188.25 70.95 182.95 27.5 175.05 6.75 126.55 -4.95 93.55 3.6 59.2 2.75 80.9 10.25 102.05 31.0 150.55 74.45 158.45 130.55 163.75 154.85 106.95 L156.95 107.25" fill="#dacda3" fill-rule="evenodd" stroke="none"/>
      <path d="M3.6 59.2 L3.85 58.1 Q18.5 14.3 56.9 2.2 109.35 -9.4 143.2 40.35 158.3 69.15 157.6 97.95 L156.95 107.25 Q155.55 119.35 151.35 131.45 127.05 188.25 70.95 182.95 27.5 175.05 6.75 126.55 -4.95 93.55 3.6 59.2 Z" ffdec:has-small-stroke="true" ffdec:original-stroke-width="3.0" fill="none" stroke="#666666" stroke-linecap="round" stroke-linejoin="round" stroke-width="11.611378231617156"/>
    </g>
    <g id="shape5" transform="matrix(1.0, 0.0, 0.0, 1.0, -55.7, -9.0)">
      <path d="M73.85 29.05 Q70.25 38.15 65.5 38.2 59.65 38.25 59.5 31.4 66.3 35.3 73.85 29.05" fill="#ffffff" fill-rule="evenodd" stroke="none"/>
      <path d="M73.85 29.05 Q66.3 35.3 59.5 31.4 59.65 38.25 65.5 38.2 70.25 38.15 73.85 29.05 Z" ffdec:has-small-stroke="true" ffdec:original-stroke-width="0.05" fill="none" stroke="#666666" stroke-linecap="round" stroke-linejoin="round" stroke-width="2.353600287304723"/>
      <path d="M70.75 20.05 Q77.4 25.7 82.35 32.2 88.9 41.2 91.6 51.8 95.15 61.15 91.75 62.7 90.35 62.25 83.35 41.3 78.15 29.75 67.85 22.8 L70.75 20.05" fill="#f0ebd9" fill-rule="evenodd" stroke="none"/>
      <path d="M70.75 20.05 Q77.4 25.7 82.35 32.2 88.9 41.2 91.6 51.8 95.15 61.15 91.75 62.7 90.35 62.25 83.35 41.3 78.15 29.75 67.85 22.8" ffdec:has-small-stroke="true" ffdec:original-stroke-width="0.05" fill="none" stroke="#999999" stroke-linecap="round" stroke-linejoin="round" stroke-width="2.353600287304723"/>
      <path d="M74.8 12.35 Q74.3 11.85 73.75 12.0 73.2 12.15 72.95 12.8 72.75 13.5 72.95 14.35 73.15 15.15 73.65 15.6 74.2 16.1 74.75 15.95 75.3 15.8 75.5 15.15 75.75 14.5 75.55 13.7 75.35 12.85 74.8 12.35 M70.65 9.1 Q72.05 8.7 73.55 10.0 75.05 11.45 75.65 13.8 76.3 16.1 75.7 18.0 75.1 20.0 73.7 20.4 72.25 20.75 70.7 19.35 69.25 17.95 68.6 15.65 68.0 13.3 68.55 11.35 69.2 9.45 70.65 9.1 M64.25 16.4 Q64.25 15.5 63.6 14.85 63.0 14.25 62.1 14.25 61.2 14.25 60.55 14.85 59.95 15.5 59.95 16.4 59.95 17.3 60.55 17.9 61.2 18.55 62.1 18.55 63.0 18.55 63.6 17.9 64.25 17.3 64.25 16.4 M67.6 16.6 Q67.6 19.05 65.85 20.8 64.1 22.55 61.65 22.55 59.2 22.55 57.45 20.8 55.7 19.05 55.7 16.6 55.7 14.15 57.45 12.4 59.2 10.65 61.65 10.65 64.1 10.65 65.85 12.4 67.6 14.15 67.6 16.6" fill="#ffffff" fill-rule="evenodd" stroke="none"/>
      <path d="M74.8 12.35 Q75.35 12.85 75.55 13.7 75.75 14.5 75.5 15.15 75.3 15.8 74.75 15.95 74.2 16.1 73.65 15.6 73.15 15.15 72.95 14.35 72.75 13.5 72.95 12.8 73.2 12.15 73.75 12.0 74.3 11.85 74.8 12.35 M64.25 16.4 Q64.25 17.3 63.6 17.9 63.0 18.55 62.1 18.55 61.2 18.55 60.55 17.9 59.95 17.3 59.95 16.4 59.95 15.5 60.55 14.85 61.2 14.25 62.1 14.25 63.0 14.25 63.6 14.85 64.25 15.5 64.25 16.4" fill="#996600" fill-rule="evenodd" stroke="none"/>
      <path d="M70.65 9.1 Q72.05 8.7 73.55 10.0 75.05 11.45 75.65 13.8 76.3 16.1 75.7 18.0 75.1 20.0 73.7 20.4 72.25 20.75 70.7 19.35 69.25 17.95 68.6 15.65 68.0 13.3 68.55 11.35 69.2 9.45 70.65 9.1 M67.6 16.6 Q67.6 19.05 65.85 20.8 64.1 22.55 61.65 22.55 59.2 22.55 57.45 20.8 55.7 19.05 55.7 16.6 55.7 14.15 57.45 12.4 59.2 10.65 61.65 10.65 64.1 10.65 65.85 12.4 67.6 14.15 67.6 16.6 Z" ffdec:has-small-stroke="true" ffdec:original-stroke-width="0.05" fill="none" stroke="#999999" stroke-linecap="round" stroke-linejoin="round" stroke-width="2.353600287304723"/>
    </g>
  </defs>
</svg>
