<?xml version="1.0" encoding="UTF-8" standalone="no"?>
<svg xmlns:ffdec="https://www.free-decompiler.com/flash" xmlns:xlink="http://www.w3.org/1999/xlink" ffdec:objectType="frame" height="41.6px" width="36.75px" xmlns="http://www.w3.org/2000/svg">
  <g transform="matrix(1.0, 0.0, 0.0, 1.0, -10.15, -1.5)">
    <use ffdec:characterId="2765" height="41.6" transform="matrix(1.0, 0.0, 0.0, 1.0, 11.7, 1.5)" width="35.2" xlink:href="#shape0"/>
    <use ffdec:characterId="2767" height="18.5" transform="matrix(0.7701, 0.0, 0.0, 0.7701, 10.1374, 12.5374)" width="18.5" xlink:href="#sprite0"/>
    <use ffdec:characterId="2767" height="18.5" transform="matrix(0.7701, 0.0, 0.0, 0.7701, 31.7874, 12.1874)" width="18.5" xlink:href="#sprite0"/>
    <use ffdec:characterId="2769" height="5.0" transform="matrix(0.9703, 0.0, 0.0, 0.9703, 15.3, 17.55)" width="5.0" xlink:href="#sprite1"/>
    <use ffdec:characterId="2769" height="5.0" transform="matrix(0.9703, 0.0, 0.0, 0.9703, 37.0, 17.45)" width="5.0" xlink:href="#sprite1"/>
    <use ffdec:characterId="2770" height="5.65" transform="matrix(1.0, 0.0, 0.0, 1.0, 22.35, 28.45)" width="14.55" xlink:href="#shape3"/>
    <use ffdec:characterId="2772" height="28.85" transform="matrix(0.7678, 0.0597, -0.0597, 0.7678, 14.3648, 18.3157)" width="18.2" xlink:href="#sprite2"/>
  </g>
  <defs>
    <g id="shape0" transform="matrix(1.0, 0.0, 0.0, 1.0, -11.7, -1.5)">
      <path d="M40.6 4.5 Q40.6 5.8 39.7 6.65 38.8 7.55 37.6 7.55 36.3 7.55 35.4 6.65 34.55 5.8 34.55 4.5 34.55 3.25 35.4 2.4 36.3 1.5 37.6 1.5 38.8 1.5 39.7 2.4 40.6 3.25 40.6 4.5" fill="#a63f00" fill-rule="evenodd" stroke="none"/>
      <path d="M36.5 6.4 Q34.25 8.6 33.5 11.7" fill="none" stroke="#a63f00" stroke-linecap="round" stroke-linejoin="round" stroke-width="2.2"/>
      <path d="M13.05 28.3 Q14.2 31.05 16.5 33.35 21.4 38.2 28.2 38.2 35.05 38.2 39.85 33.35 44.7 28.5 44.7 21.7 L44.5 18.95 Q45.8 21.95 45.8 25.5 45.8 32.3 40.95 37.15 36.15 42.0 29.3 42.0 22.5 42.0 17.6 37.15 13.8 33.3 13.05 28.3" fill="#ec7400" fill-rule="evenodd" stroke="none"/>
      <path d="M44.5 18.95 L44.7 21.7 Q44.7 28.5 39.85 33.35 35.05 38.2 28.2 38.2 21.4 38.2 16.5 33.35 14.2 31.05 13.05 28.3 L12.8 25.5 Q12.8 18.7 17.6 13.85 22.5 9.05 29.3 9.05 36.15 9.05 40.95 13.85 43.3 16.2 44.5 18.95" fill="url(#gradient0)" fill-rule="evenodd" stroke="none"/>
      <path d="M13.05 28.3 Q13.8 33.3 17.6 37.15 22.5 42.0 29.3 42.0 36.15 42.0 40.95 37.15 45.8 32.3 45.8 25.5 45.8 21.95 44.5 18.95 43.3 16.2 40.95 13.85 36.15 9.05 29.3 9.05 22.5 9.05 17.6 13.85 12.8 18.7 12.8 25.5 L13.05 28.3 Z" fill="none" stroke="#a63f00" stroke-linecap="round" stroke-linejoin="round" stroke-width="2.2"/>
      <path d="M43.95 26.15 Q42.05 28.05 39.4 28.05 36.75 28.05 34.8 26.15 32.95 24.25 32.95 21.6 32.95 18.9 34.8 17.05 36.75 15.15 39.4 15.15 L40.7 15.3 Q42.6 17.55 43.6 19.95 44.6 22.65 44.5 25.55 L44.5 25.6 43.95 26.15" fill="#ec7400" fill-rule="evenodd" stroke="none"/>
      <path d="M25.1 22.5 Q25.1 24.8 23.6 26.55 L23.2 27.0 Q22.1 28.2 20.65 28.65 L18.65 28.95 16.6 28.65 Q15.25 28.2 14.15 27.0 L13.5 26.3 Q12.25 24.65 12.25 22.5 12.25 20.35 13.5 18.65 L14.15 17.95 Q16.05 16.05 18.65 16.05 21.3 16.05 23.2 17.95 L23.6 18.4 Q25.1 20.15 25.1 22.5" fill="#ec7400" fill-rule="evenodd" stroke="none"/>
      <path d="M45.8 25.5 Q45.8 32.3 40.95 37.15 36.15 42.0 29.3 42.0 22.5 42.0 17.6 37.15 13.8 33.3 13.05 28.3 L12.8 25.5 Q12.8 18.7 17.6 13.85 22.5 9.05 29.3 9.05 36.15 9.05 40.95 13.85 43.3 16.2 44.5 18.95 45.8 21.95 45.8 25.5 Z" fill="none" stroke="#a63f00" stroke-linecap="round" stroke-linejoin="round" stroke-width="2.0"/>
    </g>
    <radialGradient cx="0" cy="0" gradientTransform="matrix(0.0252, 0.0, 0.0, 0.0252, 27.8, 15.6)" gradientUnits="userSpaceOnUse" id="gradient0" r="819.2" spreadMethod="pad">
      <stop offset="0.43529411764705883" stop-color="#ffad1d"/>
      <stop offset="1.0" stop-color="#ff9900"/>
    </radialGradient>
    <g id="sprite0" transform="matrix(1.0, 0.0, 0.0, 1.0, 1.25, 1.25)">
      <use ffdec:characterId="2766" height="18.5" transform="matrix(1.0, 0.0, 0.0, 1.0, -1.25, -1.25)" width="18.5" xlink:href="#shape1"/>
    </g>
    <g id="shape1" transform="matrix(1.0, 0.0, 0.0, 1.0, 1.25, 1.25)">
      <path d="M15.2 4.5 Q15.2 7.8 12.85 10.15 10.5 12.5 7.2 12.5 3.9 12.5 1.55 10.15 0.55 9.15 0.0 8.05 L0.0 8.0 Q0.0 4.7 2.35 2.35 4.7 0.0 8.0 0.0 11.3 0.0 13.65 2.35 14.65 3.35 15.2 4.5" fill="#ffffff" fill-rule="evenodd" stroke="none"/>
      <path d="M0.0 8.05 Q0.55 9.15 1.55 10.15 3.9 12.5 7.2 12.5 10.5 12.5 12.85 10.15 15.2 7.8 15.2 4.5 16.0 6.05 16.0 8.0 16.0 11.3 13.65 13.65 11.3 16.0 8.0 16.0 4.7 16.0 2.35 13.65 0.0 11.3 0.0 8.05" fill="#dae7ec" fill-rule="evenodd" stroke="none"/>
      <path d="M0.0 8.05 Q0.0 11.3 2.35 13.65 4.7 16.0 8.0 16.0 11.3 16.0 13.65 13.65 16.0 11.3 16.0 8.0 16.0 6.05 15.2 4.5 14.65 3.35 13.65 2.35 11.3 0.0 8.0 0.0 4.7 0.0 2.35 2.35 0.0 4.7 0.0 8.0 L0.0 8.05 Z" fill="none" stroke="#645d59" stroke-linecap="round" stroke-linejoin="round" stroke-width="2.5"/>
    </g>
    <g id="sprite1" transform="matrix(1.0, 0.0, 0.0, 1.0, 0.0, 0.0)">
      <use ffdec:characterId="2768" height="5.0" transform="matrix(1.0, 0.0, 0.0, 1.0, 0.0, 0.0)" width="5.0" xlink:href="#shape2"/>
    </g>
    <g id="shape2" transform="matrix(1.0, 0.0, 0.0, 1.0, 0.0, 0.0)">
      <path d="M5.0 2.5 Q5.0 3.55 4.25 4.25 3.55 5.0 2.5 5.0 1.45 5.0 0.7 4.25 0.0 3.55 0.0 2.5 0.0 1.45 0.7 0.7 1.45 0.0 2.5 0.0 3.55 0.0 4.25 0.7 5.0 1.45 5.0 2.5" fill="#000000" fill-rule="evenodd" stroke="none"/>
      <path d="M4.65 1.3 L4.3 2.1 Q3.95 2.45 3.5 2.45 3.0 2.45 2.65 2.1 2.3 1.75 2.3 1.3 2.3 0.8 2.65 0.45 3.0 0.1 3.5 0.1 3.95 0.1 4.3 0.45 4.65 0.8 4.65 1.3" fill="#ffffff" fill-rule="evenodd" stroke="none"/>
    </g>
    <g id="shape3" transform="matrix(1.0, 0.0, 0.0, 1.0, -22.35, -28.45)">
      <path d="M30.1 32.25 Q33.9 31.75 36.9 28.45 35.9 33.05 30.7 33.95 25.45 34.8 22.35 31.0 26.25 32.75 30.1 32.25" fill="#a63f00" fill-rule="evenodd" stroke="none"/>
    </g>
    <g id="sprite2" transform="matrix(1.0, 0.0, 0.0, 1.0, 1.25, 1.25)">
      <use ffdec:characterId="2771" height="28.85" transform="matrix(1.0, 0.0, 0.0, 1.0, -1.25, -1.25)" width="18.2" xlink:href="#shape4"/>
    </g>
    <g id="shape4" transform="matrix(1.0, 0.0, 0.0, 1.0, 1.25, 1.25)">
      <path d="M0.4 22.5 Q1.9 23.7 3.35 23.05 4.6 22.2 5.1 20.4 6.35 12.8 6.85 5.7 7.1 4.25 8.45 4.45 9.75 4.6 10.85 5.05 15.2 6.35 16.0 8.15 L15.35 8.75 13.05 8.1 8.9 6.85 Q8.5 8.55 7.95 16.6 7.35 24.6 5.15 25.6 2.15 27.35 1.15 24.95 0.7 23.9 0.4 22.5" fill="#ec7400" fill-rule="evenodd" stroke="none"/>
      <path d="M13.3 1.9 Q14.95 2.6 16.25 3.5 17.2 5.25 16.85 6.7 L16.6 7.25 16.0 8.15 Q15.2 6.35 10.85 5.05 9.75 4.6 8.45 4.45 7.1 4.25 6.85 5.7 6.35 12.8 5.1 20.4 4.6 22.2 3.35 23.05 1.9 23.7 0.4 22.5 0.0 20.45 0.0 17.75 0.0 12.15 1.75 6.25 3.6 0.0 5.75 0.0 L9.6 0.65 13.3 1.9" fill="url(#gradient1)" fill-rule="evenodd" stroke="none"/>
      <path d="M13.3 1.9 L9.6 0.65 5.75 0.0 Q3.6 0.0 1.75 6.25 0.0 12.15 0.0 17.75 0.0 20.45 0.4 22.5 0.7 23.9 1.15 24.95 2.15 27.35 5.15 25.6 7.35 24.6 7.95 16.6 8.5 8.55 8.9 6.85 L13.05 8.1" fill="none" stroke="#a63f00" stroke-linecap="round" stroke-linejoin="round" stroke-width="2.5"/>
      <path d="M14.45 7.6 L15.6 9.2 12.7 9.25 11.95 8.7 Q11.65 8.25 11.8 7.75 11.95 7.25 12.4 7.0 L13.85 7.15 14.45 7.6 M13.5 3.25 L12.15 2.4 Q11.95 1.9 12.15 1.45 12.35 0.95 13.4 0.85 14.45 0.75 15.55 2.05 16.65 3.3 16.45 3.45 L13.5 3.25" fill="#a63f00" fill-rule="evenodd" stroke="none"/>
    </g>
    <radialGradient cx="0" cy="0" gradientTransform="matrix(0.0043, 0.001, -0.0058, 0.0239, 4.3, 2.65)" gradientUnits="userSpaceOnUse" id="gradient1" r="819.2" spreadMethod="pad">
      <stop offset="0.43529411764705883" stop-color="#ffad1d"/>
      <stop offset="1.0" stop-color="#ff9900"/>
    </radialGradient>
  </defs>
</svg>
