<?xml version="1.0" encoding="UTF-8" standalone="no"?>
<svg xmlns:ffdec="https://www.free-decompiler.com/flash" xmlns:xlink="http://www.w3.org/1999/xlink" ffdec:objectType="frame" height="17.9px" width="60.8px" xmlns="http://www.w3.org/2000/svg">
  <g transform="matrix(1.0, 0.0, 0.0, 1.0, -78.3, -66.7)">
    <use ffdec:characterId="243" height="17.05" transform="matrix(0.9995, 0.0, 0.0, 1.0005, 79.5499, 66.6993)" width="59.35" xlink:href="#text0"/>
    <use ffdec:characterId="244" height="16.55" transform="matrix(1.0, 0.0, 0.0, 1.0, 78.3, 68.05)" width="60.8" xlink:href="#shape0"/>
  </g>
  <defs>
    <g id="text0" transform="matrix(1.0, 0.0, 0.0, 1.0, -0.1, 1.35)">
      <g transform="matrix(1.0, 0.0, 0.0, 1.0, 0.0, 0.0)">
        <use fill="#4d0362" height="17.05" transform="matrix(0.0186, 0.0, 0.0, 0.0186, 0.0, 14.0)" width="59.35" xlink:href="#font_Burbank_Big_Regular_Black_S0"/>
        <use fill="#4d0362" height="17.05" transform="matrix(0.0186, 0.0, 0.0, 0.0186, 11.15, 14.0)" width="59.35" xlink:href="#font_Burbank_Big_Regular_Black_T0"/>
        <use fill="#4d0362" height="17.05" transform="matrix(0.0186, 0.0, 0.0, 0.0186, 20.9, 14.0)" width="59.35" xlink:href="#font_Burbank_Big_Regular_Black_A0"/>
        <use fill="#4d0362" height="17.05" transform="matrix(0.0186, 0.0, 0.0, 0.0186, 32.4, 14.0)" width="59.35" xlink:href="#font_Burbank_Big_Regular_Black_R0"/>
        <use fill="#4d0362" height="17.05" transform="matrix(0.0186, 0.0, 0.0, 0.0186, 43.5, 14.0)" width="59.35" xlink:href="#font_Burbank_Big_Regular_Black_T0"/>
        <use fill="#4d0362" height="17.05" transform="matrix(0.0186, 0.0, 0.0, 0.0186, 53.25, 14.0)" width="59.35" xlink:href="#font_Burbank_Big_Regular_Black__0"/>
      </g>
    </g>
    <g id="font_Burbank_Big_Regular_Black_S0">
      <path d="M305.0 17.5 Q156.5 16.5 82.5 -53.0 8.0 -123.0 6.0 -252.0 7.0 -251.5 68.5 -251.5 129.5 -251.0 239.5 -254.0 240.0 -202.0 256.5 -174.0 272.5 -146.0 306.0 -145.5 330.0 -145.0 342.5 -158.0 355.0 -171.0 355.5 -200.5 356.0 -219.0 345.0 -233.0 334.5 -247.0 305.5 -260.0 277.0 -273.0 223.0 -287.5 155.0 -305.5 108.5 -334.5 62.0 -363.5 38.0 -408.5 14.5 -453.5 14.5 -520.0 15.0 -591.0 50.5 -637.0 86.0 -683.5 149.0 -706.5 212.5 -729.0 296.0 -729.0 435.5 -729.5 509.0 -660.0 583.0 -590.5 585.5 -457.5 L555.5 -459.5 475.5 -462.5 Q424.5 -464.5 359.5 -465.0 361.5 -518.5 346.0 -542.5 331.0 -566.5 303.0 -566.5 278.5 -566.0 265.0 -551.0 252.0 -536.5 252.0 -510.0 251.5 -478.0 279.5 -456.0 308.0 -434.5 369.5 -421.0 453.5 -402.0 504.0 -374.0 554.0 -346.0 576.0 -304.5 598.0 -263.0 597.0 -203.0 596.5 -128.0 560.0 -79.0 523.5 -30.5 458.0 -6.5 393.0 17.5 305.0 17.5" fill-rule="evenodd" stroke="none"/>
    </g>
    <g id="font_Burbank_Big_Regular_Black_T0">
      <path d="M8.0 -508.0 Q8.5 -508.5 8.5 -560.5 8.5 -612.5 7.0 -711.5 L38.5 -711.5 121.5 -711.5 240.0 -711.5 377.5 -712.5 518.0 -713.5 517.5 -685.5 Q516.5 -658.0 516.0 -612.0 515.5 -565.5 516.0 -508.0 L497.0 -508.0 446.0 -508.0 374.0 -509.0 Q373.5 -420.5 374.5 -295.0 375.5 -169.5 378.0 3.0 L349.5 3.0 Q321.0 2.5 271.0 3.0 220.5 3.0 153.5 4.0 L153.5 -59.0 153.0 -235.5 151.5 -509.0 8.0 -508.0" fill-rule="evenodd" stroke="none"/>
    </g>
    <g id="font_Burbank_Big_Regular_Black_A0">
      <path d="M300.0 -558.0 Q293.0 -516.5 281.5 -441.0 270.0 -365.0 256.0 -262.0 L344.0 -262.0 300.0 -558.0 M0.0 -16.5 L11.0 -67.5 41.0 -211.5 86.0 -432.0 Q112.0 -559.5 142.5 -713.5 208.0 -716.0 267.5 -717.0 L372.5 -718.5 445.0 -719.0 472.0 -719.0 Q472.5 -718.0 483.5 -660.0 L515.0 -500.0 Q535.0 -398.5 562.0 -265.5 588.5 -133.0 619.5 17.5 L585.0 17.0 Q551.0 16.5 497.5 16.5 444.0 16.5 383.0 17.5 L379.5 -10.0 Q376.0 -38.0 367.5 -95.0 343.0 -95.5 310.0 -95.5 L233.5 -96.5 224.5 -15.5 192.5 -16.0 111.0 -17.0 Q60.0 -17.5 0.0 -16.5" fill-rule="evenodd" stroke="none"/>
    </g>
    <g id="font_Burbank_Big_Regular_Black_R0">
      <path d="M247.0 -360.5 Q302.0 -356.5 334.5 -378.5 367.0 -400.5 367.5 -456.5 367.5 -502.0 344.5 -530.0 321.0 -558.5 273.5 -559.0 L259.5 -558.5 243.5 -556.0 245.5 -457.5 246.5 -387.5 247.0 -360.5 M375.0 23.5 L350.0 -41.0 Q326.0 -104.5 279.5 -216.0 L269.0 -215.0 247.0 -214.0 251.0 -9.0 Q250.0 -9.5 217.5 -9.5 L135.0 -9.5 Q84.5 -9.0 28.5 -8.0 29.0 -9.0 30.0 -93.5 31.0 -178.5 32.0 -334.5 33.0 -491.0 33.0 -707.5 94.0 -720.0 149.5 -726.0 204.5 -732.0 253.0 -732.0 418.0 -731.5 504.5 -663.5 591.0 -595.5 591.0 -467.0 590.5 -391.5 560.5 -342.5 531.0 -293.0 478.0 -265.0 495.0 -228.0 526.5 -162.0 557.5 -96.5 605.0 1.0 L576.5 3.5 496.5 11.5 375.0 23.5" fill-rule="evenodd" stroke="none"/>
    </g>
    <g id="font_Burbank_Big_Regular_Black__0">
      <path d="M50.0 -261.0 Q50.5 -262.0 47.5 -317.0 44.5 -372.0 38.0 -473.5 31.5 -575.5 20.5 -716.0 21.5 -715.5 57.5 -715.0 93.5 -714.0 149.5 -713.5 205.5 -713.0 267.5 -713.5 267.0 -714.0 260.0 -601.5 253.0 -489.0 243.5 -263.0 L218.0 -263.5 Q193.0 -264.0 149.5 -263.5 106.0 -263.0 50.0 -261.0 M148.5 11.5 Q82.5 11.0 46.0 -21.0 10.0 -53.0 9.0 -110.5 9.0 -161.5 43.5 -194.5 77.5 -227.0 146.5 -228.5 190.5 -228.0 220.5 -211.5 250.0 -195.0 265.5 -168.0 280.5 -140.5 280.5 -107.5 280.0 -70.0 262.5 -43.5 245.0 -17.0 215.0 -3.0 185.5 11.0 148.5 11.5" fill-rule="evenodd" stroke="none"/>
    </g>
    <g id="shape0" transform="matrix(1.0, 0.0, 0.0, 1.0, -78.3, -68.05)">
      <path d="M136.75 78.35 L137.55 79.2 137.85 80.3 137.5 81.5 Q137.2 82.0 136.65 82.25 L135.4 82.5 Q134.2 82.5 133.5 81.9 132.85 81.3 132.8 80.25 132.8 79.3 133.45 78.7 134.1 78.1 135.35 78.05 L136.75 78.35 M133.35 73.5 L133.05 69.0 133.7 69.05 135.4 69.05 137.6 69.05 137.45 71.15 137.15 77.4 136.7 77.4 135.4 77.4 133.6 77.45 133.55 76.4 133.35 73.5 M125.75 72.85 L123.1 72.85 123.1 71.9 123.1 69.1 123.65 69.1 125.2 69.1 127.4 69.1 129.95 69.05 132.55 69.05 132.55 69.55 132.5 70.95 132.5 72.85 132.15 72.85 131.2 72.85 129.9 72.85 129.9 76.8 129.95 82.35 129.45 82.35 128.0 82.35 125.8 82.35 125.8 81.2 125.8 77.95 125.75 72.85 M90.75 72.85 L90.75 71.9 90.75 69.1 91.3 69.1 92.85 69.1 95.05 69.1 97.6 69.05 100.2 69.05 100.2 69.55 100.15 70.95 100.15 72.85 99.8 72.85 98.85 72.85 97.55 72.85 97.55 76.8 97.6 82.35 97.1 82.35 95.65 82.35 93.45 82.35 93.45 81.2 93.45 77.95 93.4 72.85 90.75 72.85 M84.1 72.85 Q84.1 73.45 84.65 73.85 85.15 74.25 86.3 74.5 87.85 74.85 88.8 75.35 L90.15 76.65 Q90.55 77.4 90.5 78.55 90.5 79.9 89.85 80.85 L87.95 82.2 85.1 82.6 Q82.35 82.6 81.0 81.3 79.6 80.0 79.55 77.6 L80.7 77.65 83.9 77.6 Q83.9 78.55 84.2 79.05 84.5 79.6 85.1 79.6 L85.8 79.35 86.05 78.6 85.85 77.95 85.1 77.45 83.6 76.95 81.45 76.1 Q80.6 75.55 80.15 74.7 79.7 73.9 79.7 72.65 79.75 71.35 80.4 70.45 81.05 69.6 82.2 69.2 L84.95 68.75 Q87.55 68.75 88.9 70.05 90.25 71.35 90.3 73.8 L89.75 73.75 88.25 73.7 86.1 73.65 Q86.15 72.65 85.85 72.25 85.6 71.8 85.05 71.8 84.6 71.8 84.35 72.05 84.1 72.35 84.1 72.85 M112.45 69.15 L114.6 68.8 116.55 68.7 Q119.6 68.7 121.2 70.0 122.8 71.25 122.8 73.65 122.8 75.05 122.25 75.95 L120.7 77.4 121.6 79.3 123.05 82.3 122.55 82.35 121.05 82.5 118.8 82.75 118.35 81.55 117.05 78.3 116.85 78.3 116.45 78.35 116.5 82.15 115.9 82.1 114.35 82.1 112.4 82.15 112.4 80.55 112.45 76.1 112.45 69.15 M116.35 72.0 L116.4 73.8 116.4 75.1 116.45 75.6 Q117.45 75.7 118.05 75.25 118.65 74.85 118.65 73.85 118.65 73.0 118.25 72.45 117.8 71.95 116.9 71.9 L116.65 71.95 116.35 72.0 M105.9 71.95 L105.55 74.1 105.1 77.45 106.75 77.45 105.9 71.95 M103.0 69.05 L105.3 69.0 107.25 68.95 108.6 68.95 109.1 68.95 109.3 70.05 109.9 73.0 110.75 77.35 111.85 82.6 111.2 82.6 109.6 82.6 107.45 82.6 107.4 82.1 107.15 80.55 106.1 80.55 104.7 80.5 104.5 82.0 103.9 82.0 102.4 82.0 100.35 82.0 100.55 81.05 101.1 78.35 101.95 74.3 103.0 69.05" fill="#4d0362" fill-rule="evenodd" stroke="none"/>
      <path d="M136.75 78.95 L137.55 79.8 137.85 80.9 137.5 82.1 Q137.2 82.6 136.65 82.85 L135.4 83.1 Q134.2 83.1 133.5 82.5 132.85 81.9 132.8 80.85 132.8 79.9 133.45 79.3 134.1 78.7 135.35 78.65 L136.75 78.95 M133.35 74.1 L133.05 69.6 133.7 69.65 135.4 69.65 137.6 69.65 137.45 71.75 137.15 78.0 136.7 78.0 135.4 78.0 133.6 78.05 133.55 77.0 133.35 74.1 M123.65 69.7 L125.2 69.7 127.4 69.7 129.95 69.65 132.55 69.65 132.55 70.15 132.5 71.55 132.5 73.45 132.15 73.45 131.2 73.45 129.9 73.45 129.9 77.4 129.95 82.95 129.45 82.95 128.0 82.95 125.8 82.95 125.8 81.8 125.8 78.55 125.75 73.45 123.1 73.45 123.1 72.5 123.1 69.7 123.65 69.7 M105.55 74.7 L105.1 78.05 106.75 78.05 105.9 72.55 105.55 74.7 M85.85 72.85 Q85.6 72.4 85.05 72.4 84.6 72.4 84.35 72.65 84.1 72.95 84.1 73.45 84.1 74.05 84.65 74.45 85.15 74.85 86.3 75.1 87.85 75.45 88.8 75.95 L90.15 77.25 Q90.55 78.0 90.5 79.15 90.5 80.5 89.85 81.45 L87.95 82.8 85.1 83.2 Q82.35 83.2 81.0 81.9 79.6 80.6 79.55 78.2 L80.7 78.25 83.9 78.2 Q83.9 79.15 84.2 79.65 84.5 80.2 85.1 80.2 L85.8 79.95 86.05 79.2 85.85 78.55 85.1 78.05 83.6 77.55 81.45 76.7 Q80.6 76.15 80.15 75.3 79.7 74.5 79.7 73.25 79.75 71.95 80.4 71.05 81.05 70.2 82.2 69.8 L84.95 69.35 Q87.55 69.35 88.9 70.65 90.25 71.95 90.3 74.4 L89.75 74.35 88.25 74.3 86.1 74.25 Q86.15 73.25 85.85 72.85 M90.75 73.45 L90.75 72.5 90.75 69.7 91.3 69.7 92.85 69.7 95.05 69.7 97.6 69.65 100.2 69.65 100.2 70.15 100.15 71.55 100.15 73.45 99.8 73.45 98.85 73.45 97.55 73.45 97.55 77.4 97.6 82.95 97.1 82.95 95.65 82.95 93.45 82.95 93.45 81.8 93.45 78.55 93.4 73.45 90.75 73.45 M114.6 69.4 L116.55 69.3 Q119.6 69.3 121.2 70.6 122.8 71.85 122.8 74.25 122.8 75.65 122.25 76.55 L120.7 78.0 121.6 79.9 123.05 82.9 122.55 82.95 121.05 83.1 118.8 83.35 118.35 82.15 117.05 78.9 116.85 78.9 116.45 78.95 116.5 82.75 115.9 82.7 114.35 82.7 112.4 82.75 112.4 81.15 112.45 76.7 112.45 69.75 114.6 69.4 M116.9 72.5 L116.65 72.55 116.35 72.6 116.4 74.4 116.4 75.7 116.45 76.2 Q117.45 76.3 118.05 75.85 118.65 75.45 118.65 74.45 118.65 73.6 118.25 73.05 117.8 72.55 116.9 72.5 M103.0 69.65 L105.3 69.6 107.25 69.55 108.6 69.55 109.1 69.55 109.3 70.65 109.9 73.6 110.75 77.95 111.85 83.2 111.2 83.2 109.6 83.2 107.45 83.2 107.4 82.7 107.15 81.15 106.1 81.15 104.7 81.1 104.5 82.6 103.9 82.6 102.4 82.6 100.35 82.6 100.55 81.65 101.1 78.95 101.95 74.9 103.0 69.65" fill="#e90808" fill-rule="evenodd" stroke="none"/>
      <path d="M103.0 69.65 L101.95 74.9 101.1 78.95 100.55 81.65 100.35 82.6 102.4 82.6 103.9 82.6 104.5 82.6 104.7 81.1 106.1 81.15 107.15 81.15 107.4 82.7 107.45 83.2 109.6 83.2 111.2 83.2 111.85 83.2 110.75 77.95 109.9 73.6 109.3 70.65 109.1 69.55 108.6 69.55 107.25 69.55 105.3 69.6 103.0 69.65 M116.9 72.5 Q117.8 72.55 118.25 73.05 118.65 73.6 118.65 74.45 118.65 75.45 118.05 75.85 117.45 76.3 116.45 76.2 L116.4 75.7 116.4 74.4 116.35 72.6 116.65 72.55 116.9 72.5 M114.6 69.4 L112.45 69.75 112.45 76.7 112.4 81.15 112.4 82.75 114.35 82.7 115.9 82.7 116.5 82.75 116.45 78.95 116.85 78.9 117.05 78.9 118.35 82.15 118.8 83.35 121.05 83.1 122.55 82.95 123.05 82.9 121.6 79.9 120.7 78.0 122.25 76.55 Q122.8 75.65 122.8 74.25 122.8 71.85 121.2 70.6 119.6 69.3 116.55 69.3 L114.6 69.4 M90.75 73.45 L93.4 73.45 93.45 78.55 93.45 81.8 93.45 82.95 95.65 82.95 97.1 82.95 97.6 82.95 97.55 77.4 97.55 73.45 98.85 73.45 99.8 73.45 100.15 73.45 100.15 71.55 100.2 70.15 100.2 69.65 97.6 69.65 95.05 69.7 92.85 69.7 91.3 69.7 90.75 69.7 90.75 72.5 90.75 73.45 M85.85 72.85 Q86.15 73.25 86.1 74.25 L88.25 74.3 89.75 74.35 90.3 74.4 Q90.25 71.95 88.9 70.65 87.55 69.35 84.95 69.35 L82.2 69.8 Q81.05 70.2 80.4 71.05 79.75 71.95 79.7 73.25 79.7 74.5 80.15 75.3 80.6 76.15 81.45 76.7 L83.6 77.55 85.1 78.05 85.85 78.55 86.05 79.2 85.8 79.95 85.1 80.2 Q84.5 80.2 84.2 79.65 83.9 79.15 83.9 78.2 L80.7 78.25 79.55 78.2 Q79.6 80.6 81.0 81.9 82.35 83.2 85.1 83.2 L87.95 82.8 89.85 81.45 Q90.5 80.5 90.5 79.15 90.55 78.0 90.15 77.25 L88.8 75.95 Q87.85 75.45 86.3 75.1 85.15 74.85 84.65 74.45 84.1 74.05 84.1 73.45 84.1 72.95 84.35 72.65 84.6 72.4 85.05 72.4 85.6 72.4 85.85 72.85 M105.55 74.7 L105.9 72.55 106.75 78.05 105.1 78.05 105.55 74.7 M123.65 69.7 L123.1 69.7 123.1 72.5 123.1 73.45 125.75 73.45 125.8 78.55 125.8 81.8 125.8 82.95 128.0 82.95 129.45 82.95 129.95 82.95 129.9 77.4 129.9 73.45 131.2 73.45 132.15 73.45 132.5 73.45 132.5 71.55 132.55 70.15 132.55 69.65 129.95 69.65 127.4 69.7 125.2 69.7 123.65 69.7 M133.35 74.1 L133.55 77.0 133.6 78.05 135.4 78.0 136.7 78.0 137.15 78.0 137.45 71.75 137.6 69.65 135.4 69.65 133.7 69.65 133.05 69.6 133.35 74.1 M136.75 78.95 L135.35 78.65 Q134.1 78.7 133.45 79.3 132.8 79.9 132.8 80.85 132.85 81.9 133.5 82.5 134.2 83.1 135.4 83.1 L136.65 82.85 Q137.2 82.6 137.5 82.1 L137.85 80.9 137.55 79.8 136.75 78.95 Z" fill="none" stroke="#5d0000" stroke-linecap="round" stroke-linejoin="round" stroke-width="2.5"/>
      <path d="M136.75 78.35 L137.55 79.2 137.85 80.3 137.5 81.5 Q137.2 82.0 136.65 82.25 L135.4 82.5 Q134.2 82.5 133.5 81.9 132.85 81.3 132.8 80.25 132.8 79.3 133.45 78.7 134.1 78.1 135.35 78.05 L136.75 78.35 M133.35 73.5 L133.05 69.0 133.7 69.05 135.4 69.05 137.6 69.05 137.45 71.15 137.15 77.4 136.7 77.4 135.4 77.4 133.6 77.45 133.55 76.4 133.35 73.5 M123.1 69.1 L123.65 69.1 125.2 69.1 127.4 69.1 129.95 69.05 132.55 69.05 132.55 69.55 132.5 70.95 132.5 72.85 132.15 72.85 131.2 72.85 129.9 72.85 129.9 76.8 129.95 82.35 129.45 82.35 128.0 82.35 125.8 82.35 125.8 81.2 125.8 77.95 125.75 72.85 123.1 72.85 123.1 71.9 123.1 69.1 M90.75 72.85 L90.75 71.9 90.75 69.1 91.3 69.1 92.85 69.1 95.05 69.1 97.6 69.05 100.2 69.05 100.2 69.55 100.15 70.95 100.15 72.85 99.8 72.85 98.85 72.85 97.55 72.85 97.55 76.8 97.6 82.35 97.1 82.35 95.65 82.35 93.45 82.35 93.45 81.2 93.45 77.95 93.4 72.85 90.75 72.85 M85.85 72.25 Q85.6 71.8 85.05 71.8 84.6 71.8 84.35 72.05 84.1 72.35 84.1 72.85 84.1 73.45 84.65 73.85 85.15 74.25 86.3 74.5 87.85 74.85 88.8 75.35 L90.15 76.65 Q90.55 77.4 90.5 78.55 90.5 79.9 89.85 80.85 L87.95 82.2 85.1 82.6 Q82.35 82.6 81.0 81.3 79.6 80.0 79.55 77.6 L80.7 77.65 83.9 77.6 Q83.9 78.55 84.2 79.05 84.5 79.6 85.1 79.6 L85.8 79.35 86.05 78.6 85.85 77.95 85.1 77.45 83.6 76.95 81.45 76.1 Q80.6 75.55 80.15 74.7 79.7 73.9 79.7 72.65 79.75 71.35 80.4 70.45 81.05 69.6 82.2 69.2 L84.95 68.75 Q87.55 68.75 88.9 70.05 90.25 71.35 90.3 73.8 L89.75 73.75 88.25 73.7 86.1 73.65 Q86.15 72.65 85.85 72.25 M116.35 72.0 L116.4 73.8 116.4 75.1 116.45 75.6 Q117.45 75.7 118.05 75.25 118.65 74.85 118.65 73.85 118.65 73.0 118.25 72.45 117.8 71.95 116.9 71.9 L116.65 71.95 116.35 72.0 M112.45 69.15 L114.6 68.8 116.55 68.7 Q119.6 68.7 121.2 70.0 122.8 71.25 122.8 73.65 122.8 75.05 122.25 75.95 L120.7 77.4 121.6 79.3 123.05 82.3 122.55 82.35 121.05 82.5 118.8 82.75 118.35 81.55 117.05 78.3 116.85 78.3 116.45 78.35 116.5 82.15 115.9 82.1 114.35 82.1 112.4 82.15 112.4 80.55 112.45 76.1 112.45 69.15 M105.9 71.95 L105.55 74.1 105.1 77.45 106.75 77.45 105.9 71.95 M109.3 70.05 L109.9 73.0 110.75 77.35 111.85 82.6 111.2 82.6 109.6 82.6 107.45 82.6 107.4 82.1 107.15 80.55 106.1 80.55 104.7 80.5 104.5 82.0 103.9 82.0 102.4 82.0 100.35 82.0 100.55 81.05 101.1 78.35 101.95 74.3 103.0 69.05 105.3 69.0 107.25 68.95 108.6 68.95 109.1 68.95 109.3 70.05" fill="url(#gradient0)" fill-rule="evenodd" stroke="none"/>
    </g>
    <linearGradient gradientTransform="matrix(-1.0E-4, -0.0171, 0.0085, 0.0, 84.85, 83.65)" gradientUnits="userSpaceOnUse" id="gradient0" spreadMethod="pad" x1="-819.2" x2="819.2">
      <stop offset="0.054901960784313725" stop-color="#790004"/>
      <stop offset="0.9921568627450981" stop-color="#ff0000"/>
    </linearGradient>
  </defs>
</svg>
