<?xml version="1.0" encoding="UTF-8" standalone="no"?>
<svg xmlns:ffdec="https://www.free-decompiler.com/flash" xmlns:xlink="http://www.w3.org/1999/xlink" ffdec:objectType="frame" height="12.5px" width="100.0px" xmlns="http://www.w3.org/2000/svg">
  <g transform="matrix(1.0, 0.0, 0.0, 1.0, 65.3, 6.5)">
    <use ffdec:characterId="2310" height="8.0" transform="matrix(1.0, 0.0, 0.0, 1.0, -65.3, -3.5)" width="100.0" xlink:href="#sprite0"/>
    <filter id="filter0">
      <feFlood flood-color="#e4e4e4" flood-opacity="1.0" result="filterResult0"/>
      <feOffset dx="2.82846398332808" dy="2.8283902656839723" in="SourceGraphic" result="filterResult1"/>
      <feComposite in="filterResult0" in2="filterResult1" operator="out" result="filterResult2"/>
      <feComposite in="filterResult2" in2="SourceGraphic" operator="in" result="filterResult3"/>
      <feColorMatrix in="filterResult3" result="filterResult4" type="matrix" values="1 0 0 0 0,0 1 0 0 0,0 0 1 0 0,0 0 0 2.19921875 0"/>
      <feFlood flood-color="#333333" flood-opacity="1.0" result="filterResult5"/>
      <feOffset dx="-2.8284639833280805" dy="-2.828390265683972" in="SourceGraphic" result="filterResult6"/>
      <feComposite in="filterResult5" in2="filterResult6" operator="out" result="filterResult7"/>
      <feComposite in="filterResult7" in2="SourceGraphic" operator="in" result="filterResult8"/>
      <feColorMatrix in="filterResult8" result="filterResult9" type="matrix" values="1 0 0 0 0,0 1 0 0 0,0 0 1 0 0,0 0 0 2.19921875 0"/>
      <feComposite in="filterResult4" in2="filterResult9" operator="out" result="filterResult10"/>
      <feComposite in="filterResult9" in2="filterResult4" operator="out" result="filterResult11"/>
      <feComposite in="filterResult11" in2="filterResult10" operator="over" result="filterResult12"/>
      <feComposite in="filterResult12" in2="SourceGraphic" operator="in" result="filterResult13"/>
      <feComposite in="filterResult13" in2="SourceGraphic" operator="over" result="filterResult14"/>
    </filter>
    <use ffdec:characterId="2312" filter="url(#filter0)" height="12.5" id="sliderKnob_spr" transform="matrix(1.0, 0.0, 0.0, 1.0, -9.8, -6.5)" width="19.9" xlink:href="#sprite1"/>
  </g>
  <defs>
    <g id="sprite0" transform="matrix(1.0, 0.0, 0.0, 1.0, 0.0, 2.0)">
      <use ffdec:characterId="2309" height="8.0" transform="matrix(1.0, 0.0, 0.0, 1.0, 0.0, -2.0)" width="100.0" xlink:href="#shape0"/>
    </g>
    <g id="shape0" transform="matrix(1.0, 0.0, 0.0, 1.0, 0.0, 2.0)">
      <path d="M100.0 6.0 L0.0 6.0 2.15 3.75 97.85 3.75 100.0 6.0" fill="#b99e42" fill-rule="evenodd" stroke="none"/>
      <path d="M97.85 0.3 L100.0 -2.0 100.0 6.0 97.85 3.75 97.85 0.3" fill="#a9913d" fill-rule="evenodd" stroke="none"/>
      <path d="M0.0 -2.0 L100.0 -2.0 97.85 0.3 2.15 0.3 0.0 -2.0" fill="#5e5022" fill-rule="evenodd" stroke="none"/>
      <path d="M0.0 -2.0 L2.15 0.3 2.15 3.75 0.0 6.0 0.0 -2.0" fill="#6f5f28" fill-rule="evenodd" stroke="none"/>
      <path d="M2.15 0.3 L97.85 0.3 97.85 3.75 2.15 3.75 2.15 0.3" fill="#666666" fill-rule="evenodd" stroke="none"/>
    </g>
    <g id="sprite1" transform="matrix(1.0, 0.0, 0.0, 1.0, 9.8, 6.5)">
      <use ffdec:characterId="2311" height="12.5" transform="matrix(1.0, 0.0, 0.0, 1.0, -9.8, -6.5)" width="19.9" xlink:href="#shape1"/>
    </g>
    <g id="shape1" transform="matrix(1.0, 0.0, 0.0, 1.0, 9.8, 6.5)">
      <path d="M3.45 -6.5 Q6.2 -6.5 8.15 -4.65 10.1 -2.85 10.1 -0.25 L10.1 -0.2 Q10.1 2.35 8.15 4.2 6.2 6.0 3.45 6.0 L-3.2 6.0 Q-5.95 6.0 -7.9 4.2 -9.8 2.35 -9.8 -0.2 L-9.8 -0.25 Q-9.8 -2.85 -7.9 -4.65 -5.95 -6.5 -3.2 -6.5 L3.45 -6.5" fill="#aa3737" fill-rule="evenodd" stroke="none"/>
    </g>
  </defs>
</svg>
