<?xml version="1.0" encoding="UTF-8" standalone="no"?>
<svg xmlns:ffdec="https://www.free-decompiler.com/flash" xmlns:xlink="http://www.w3.org/1999/xlink" ffdec:objectType="frame" height="40.6px" width="133.3px" xmlns="http://www.w3.org/2000/svg">
  <g transform="matrix(1.0, 0.0, 0.0, 1.0, 136.3, 38.1)">
    <use ffdec:characterId="1125" height="44.5" transform="matrix(0.4249, 0.0, 0.0, 0.7692, -16.8, -31.75)" width="32.5" xlink:href="#sprite0"/>
    <use ffdec:characterId="1126" height="45.8" transform="matrix(0.4249, 0.0, 0.0, 0.7692, -31.8625, -38.0846)" width="39.95" xlink:href="#sprite1"/>
    <use ffdec:characterId="1125" height="44.5" transform="matrix(0.4249, 0.0, 0.0, 0.7692, -91.3, -32.45)" width="32.5" xlink:href="#sprite2"/>
    <use ffdec:characterId="1127" height="44.3" transform="matrix(0.4249, 0.0, 0.0, 0.7692, -103.15, -37.95)" width="30.5" xlink:href="#sprite3"/>
    <use ffdec:characterId="1127" height="44.3" transform="matrix(0.4249, 0.0, 0.0, 0.7692, -115.7, -32.7)" width="30.5" xlink:href="#sprite4"/>
    <use ffdec:characterId="1129" height="43.95" transform="matrix(0.4249, 0.0, 0.0, 0.7692, -136.3125, -37.05)" width="50.15" xlink:href="#sprite5"/>
    <use ffdec:characterId="1127" height="44.3" transform="matrix(0.4249, 0.0, 0.0, 0.7692, -50.6, -32.7)" width="30.5" xlink:href="#sprite6"/>
    <use ffdec:characterId="1129" height="43.95" transform="matrix(0.4249, 0.0, 0.0, 0.7692, -71.1625, -37.05)" width="50.15" xlink:href="#sprite7"/>
  </g>
  <defs>
    <g id="sprite0" transform="matrix(1.0, 0.0, 0.0, 1.0, 0.0, 0.0)">
      <use ffdec:characterId="513" height="44.5" transform="matrix(1.0, 0.0, 0.0, 1.0, 0.0, 0.0)" width="32.5" xlink:href="#shape0"/>
    </g>
    <g id="shape0" transform="matrix(1.0, 0.0, 0.0, 1.0, 0.0, 0.0)">
      <path d="M24.8 16.9 L24.85 11.8 32.2 11.75 28.45 16.85 24.8 16.9 M4.25 11.85 L11.9 11.85 8.15 16.95 0.5 16.95 4.25 11.85 M11.7 38.9 L25.35 38.75 21.6 43.85 7.95 44.0 11.7 38.9" fill="#790000" fill-rule="evenodd" stroke="none"/>
      <path d="M32.2 11.75 L24.85 11.8 24.8 16.9 24.8 18.6 Q24.85 28.4 25.35 38.75 L11.7 38.9 Q12.1 28.8 12.05 18.5 L11.9 11.85 4.25 11.85 3.75 0.2 Q17.45 0.6 32.5 0.0 L32.2 11.75" fill="url(#gradient0)" fill-rule="evenodd" stroke="none"/>
      <path d="M3.75 0.2 L4.25 11.85 0.5 16.95 0.0 5.3 3.75 0.2 M11.9 11.85 L12.05 18.5 Q12.1 28.8 11.7 38.9 L7.95 44.0 Q8.45 31.4 8.2 18.45 L8.15 16.95 11.9 11.85" fill="#ab0404" fill-rule="evenodd" stroke="none"/>
      <path d="M11.9 11.85 L12.05 18.5 Q12.1 28.8 11.7 38.9 L25.35 38.75 M11.7 38.9 L7.95 44.0" ffdec:has-small-stroke="true" ffdec:original-stroke-width="1.0" fill="none" stroke="url(#gradient1)" stroke-linecap="round" stroke-linejoin="round" stroke-width="1.6092875051715805"/>
    </g>
    <linearGradient gradientTransform="matrix(0.0, 0.022, -0.0238, 0.0, 229.2, 19.6)" gradientUnits="userSpaceOnUse" id="gradient0" spreadMethod="pad" x1="-819.2" x2="819.2">
      <stop offset="0.0" stop-color="#ff452e"/>
      <stop offset="1.0" stop-color="#e00a0a"/>
    </linearGradient>
    <radialGradient cx="0" cy="0" gradientTransform="matrix(0.0208, 0.0, 0.0, 0.01, 15.25, 35.5)" gradientUnits="userSpaceOnUse" id="gradient1" r="819.2" spreadMethod="pad">
      <stop offset="0.12941176470588237" stop-color="#ffe48e" stop-opacity="0.4"/>
      <stop offset="1.0" stop-color="#ffe983" stop-opacity="0.0"/>
    </radialGradient>
    <g id="sprite1" transform="matrix(1.0, 0.0, 0.0, 1.0, 0.5, 0.5)">
      <use ffdec:characterId="534" height="45.8" transform="matrix(1.0, 0.0, 0.0, 1.0, -0.5, -0.5)" width="39.95" xlink:href="#shape1"/>
    </g>
    <g id="shape1" transform="matrix(1.0, 0.0, 0.0, 1.0, 0.5, 0.5)">
      <path d="M22.6 23.15 L20.85 11.1 19.15 23.5 22.6 23.15 M3.75 37.35 L5.6 29.45 Q8.3 17.25 10.4 5.25 L11.3 0.0 Q19.4 0.5 30.6 0.55 L38.95 38.85 24.65 39.7 23.75 30.8 18.2 31.25 17.25 36.15 16.8 38.35 3.75 37.35" fill="url(#gradient2)" fill-rule="evenodd" stroke="none"/>
      <path d="M22.6 23.15 L19.15 23.5 20.85 11.1 22.6 23.15 M3.75 37.35 L16.8 38.35 13.05 43.45 0.0 42.45 3.75 37.35 M17.25 36.15 L18.2 31.25 23.75 30.8 20.0 35.9 17.25 36.15 M24.65 39.7 L38.95 38.85 35.2 43.95 20.9 44.8 24.65 39.7" fill="#790000" fill-rule="evenodd" stroke="none"/>
      <path d="M11.3 0.0 L10.4 5.25 Q8.3 17.25 5.6 29.45 L3.75 37.35 0.0 42.45 2.95 29.5 Q5.55 17.2 7.55 5.1 L11.3 0.0" fill="#ab0404" fill-rule="evenodd" stroke="none"/>
      <path d="M23.75 30.8 L24.65 39.7 20.9 44.8 20.0 35.9 23.75 30.8" fill="#9a0000" fill-rule="evenodd" stroke="none"/>
      <path d="M11.3 0.0 L10.4 5.25 Q8.3 17.25 5.6 29.45 L3.75 37.35 16.8 38.35 M0.0 42.45 L3.75 37.35" ffdec:has-small-stroke="true" ffdec:original-stroke-width="1.0" fill="none" stroke="url(#gradient3)" stroke-linecap="round" stroke-linejoin="round" stroke-width="1.6092875051715805"/>
      <path d="M18.2 31.25 L23.75 30.8 24.65 39.7 38.95 38.85 M20.9 44.8 L24.65 39.7" ffdec:has-small-stroke="true" ffdec:original-stroke-width="1.0" fill="none" stroke="url(#gradient4)" stroke-linecap="round" stroke-linejoin="round" stroke-width="1.6092875051715805"/>
    </g>
    <linearGradient gradientTransform="matrix(0.0, 0.0231, -0.024, 0.0, 142.65, 19.8)" gradientUnits="userSpaceOnUse" id="gradient2" spreadMethod="pad" x1="-819.2" x2="819.2">
      <stop offset="0.0" stop-color="#ff452e"/>
      <stop offset="1.0" stop-color="#e00a0a"/>
    </linearGradient>
    <radialGradient cx="0" cy="0" gradientTransform="matrix(0.0153, 0.0, 0.0, 0.0096, 8.25, 35.0)" gradientUnits="userSpaceOnUse" id="gradient3" r="819.2" spreadMethod="pad">
      <stop offset="0.12941176470588237" stop-color="#ffe48e" stop-opacity="0.4"/>
      <stop offset="1.0" stop-color="#ffe983" stop-opacity="0.0"/>
    </radialGradient>
    <radialGradient cx="0" cy="0" gradientTransform="matrix(0.0192, 0.0, 0.0, 0.0093, 26.75, 36.5)" gradientUnits="userSpaceOnUse" id="gradient4" r="819.2" spreadMethod="pad">
      <stop offset="0.12941176470588237" stop-color="#ffe48e" stop-opacity="0.4"/>
      <stop offset="1.0" stop-color="#ffe983" stop-opacity="0.0"/>
    </radialGradient>
    <g id="sprite2" transform="matrix(1.0, 0.0, 0.0, 1.0, 0.0, 0.0)">
      <use ffdec:characterId="513" height="44.5" transform="matrix(1.0, 0.0, 0.0, 1.0, 0.0, 0.0)" width="32.5" xlink:href="#shape2"/>
    </g>
    <g id="shape2" transform="matrix(1.0, 0.0, 0.0, 1.0, 0.0, 0.0)">
      <path d="M24.8 16.9 L24.85 11.8 32.2 11.75 28.45 16.85 24.8 16.9 M4.25 11.85 L11.9 11.85 8.15 16.95 0.5 16.95 4.25 11.85 M11.7 38.9 L25.35 38.75 21.6 43.85 7.95 44.0 11.7 38.9" fill="#790000" fill-rule="evenodd" stroke="none"/>
      <path d="M32.2 11.75 L24.85 11.8 24.8 16.9 24.8 18.6 Q24.85 28.4 25.35 38.75 L11.7 38.9 Q12.1 28.8 12.05 18.5 L11.9 11.85 4.25 11.85 3.75 0.2 Q17.45 0.6 32.5 0.0 L32.2 11.75" fill="url(#gradient5)" fill-rule="evenodd" stroke="none"/>
      <path d="M3.75 0.2 L4.25 11.85 0.5 16.95 0.0 5.3 3.75 0.2 M11.9 11.85 L12.05 18.5 Q12.1 28.8 11.7 38.9 L7.95 44.0 Q8.45 31.4 8.2 18.45 L8.15 16.95 11.9 11.85" fill="#ab0404" fill-rule="evenodd" stroke="none"/>
      <path d="M11.9 11.85 L12.05 18.5 Q12.1 28.8 11.7 38.9 L25.35 38.75 M11.7 38.9 L7.95 44.0" ffdec:has-small-stroke="true" ffdec:original-stroke-width="1.0" fill="none" stroke="url(#gradient6)" stroke-linecap="round" stroke-linejoin="round" stroke-width="1.6092875051715805"/>
    </g>
    <linearGradient gradientTransform="matrix(0.0, 0.022, -0.0238, 0.0, 229.2, 19.6)" gradientUnits="userSpaceOnUse" id="gradient5" spreadMethod="pad" x1="-819.2" x2="819.2">
      <stop offset="0.0" stop-color="#ff452e"/>
      <stop offset="1.0" stop-color="#e00a0a"/>
    </linearGradient>
    <radialGradient cx="0" cy="0" gradientTransform="matrix(0.0208, 0.0, 0.0, 0.01, 15.25, 35.5)" gradientUnits="userSpaceOnUse" id="gradient6" r="819.2" spreadMethod="pad">
      <stop offset="0.12941176470588237" stop-color="#ffe48e" stop-opacity="0.4"/>
      <stop offset="1.0" stop-color="#ffe983" stop-opacity="0.0"/>
    </radialGradient>
    <g id="sprite3" transform="matrix(1.0, 0.0, 0.0, 1.0, 0.0, 0.0)">
      <use ffdec:characterId="488" height="44.3" transform="matrix(1.0, 0.0, 0.0, 1.0, 0.0, 0.0)" width="30.5" xlink:href="#shape3"/>
    </g>
    <g id="shape3" transform="matrix(1.0, 0.0, 0.0, 1.0, 0.0, 0.0)">
      <path d="M27.65 24.8 L24.6 28.95 17.7 28.85 17.8 25.1 27.65 24.8 M30.0 39.2 L26.25 44.3 Q13.35 43.2 0.85 43.7 L4.6 38.6 Q15.25 38.15 26.15 38.9 L30.0 39.2 M29.45 11.05 L26.55 15.0 17.85 15.05 17.7 11.05 29.45 11.05" fill="#790000" fill-rule="evenodd" stroke="none"/>
      <path d="M26.55 15.0 L27.65 15.0 Q27.15 19.9 27.65 24.8 L17.8 25.1 17.7 28.85 24.6 28.95 29.8 29.0 30.0 39.2 26.15 38.9 Q15.25 38.15 4.6 38.6 L4.55 26.65 4.5 24.2 4.0 6.3 3.75 1.25 29.65 0.0 29.45 11.05 17.7 11.05 17.85 15.05 26.55 15.0" fill="url(#gradient7)" fill-rule="evenodd" stroke="none"/>
      <path d="M0.85 43.7 L0.75 29.3 0.7 26.7 0.0 6.35 3.75 1.25 4.0 6.3 4.5 24.2 4.55 26.65 4.6 38.6 0.85 43.7" fill="#ab0404" fill-rule="evenodd" stroke="none"/>
      <path d="M3.75 1.25 L4.0 6.3 4.5 24.2 4.55 26.65 4.6 38.6 Q15.25 38.15 26.15 38.9 L30.0 39.2 M0.85 43.7 L4.6 38.6" ffdec:has-small-stroke="true" ffdec:original-stroke-width="1.0" fill="none" stroke="url(#gradient8)" stroke-linecap="round" stroke-linejoin="round" stroke-width="1.6092875051715805"/>
    </g>
    <linearGradient gradientTransform="matrix(0.0, 0.0231, -0.024, 0.0, -19.95, 20.0)" gradientUnits="userSpaceOnUse" id="gradient7" spreadMethod="pad" x1="-819.2" x2="819.2">
      <stop offset="0.0" stop-color="#ff452e"/>
      <stop offset="1.0" stop-color="#e00a0a"/>
    </linearGradient>
    <radialGradient cx="0" cy="0" gradientTransform="matrix(0.0226, 0.0, 0.0, 0.0095, 10.0, 35.5)" gradientUnits="userSpaceOnUse" id="gradient8" r="819.2" spreadMethod="pad">
      <stop offset="0.12941176470588237" stop-color="#ffe48e" stop-opacity="0.4"/>
      <stop offset="1.0" stop-color="#ffe983" stop-opacity="0.0"/>
    </radialGradient>
    <g id="sprite4" transform="matrix(1.0, 0.0, 0.0, 1.0, 0.0, 0.0)">
      <use ffdec:characterId="488" height="44.3" transform="matrix(1.0, 0.0, 0.0, 1.0, 0.0, 0.0)" width="30.5" xlink:href="#shape4"/>
    </g>
    <g id="shape4" transform="matrix(1.0, 0.0, 0.0, 1.0, 0.0, 0.0)">
      <path d="M27.65 24.8 L24.6 28.95 17.7 28.85 17.8 25.1 27.65 24.8 M30.0 39.2 L26.25 44.3 Q13.35 43.2 0.85 43.7 L4.6 38.6 Q15.25 38.15 26.15 38.9 L30.0 39.2 M29.45 11.05 L26.55 15.0 17.85 15.05 17.7 11.05 29.45 11.05" fill="#790000" fill-rule="evenodd" stroke="none"/>
      <path d="M26.55 15.0 L27.65 15.0 Q27.15 19.9 27.65 24.8 L17.8 25.1 17.7 28.85 24.6 28.95 29.8 29.0 30.0 39.2 26.15 38.9 Q15.25 38.15 4.6 38.6 L4.55 26.65 4.5 24.2 4.0 6.3 3.75 1.25 29.65 0.0 29.45 11.05 17.7 11.05 17.85 15.05 26.55 15.0" fill="url(#gradient9)" fill-rule="evenodd" stroke="none"/>
      <path d="M0.85 43.7 L0.75 29.3 0.7 26.7 0.0 6.35 3.75 1.25 4.0 6.3 4.5 24.2 4.55 26.65 4.6 38.6 0.85 43.7" fill="#ab0404" fill-rule="evenodd" stroke="none"/>
      <path d="M3.75 1.25 L4.0 6.3 4.5 24.2 4.55 26.65 4.6 38.6 Q15.25 38.15 26.15 38.9 L30.0 39.2 M0.85 43.7 L4.6 38.6" ffdec:has-small-stroke="true" ffdec:original-stroke-width="1.0" fill="none" stroke="url(#gradient10)" stroke-linecap="round" stroke-linejoin="round" stroke-width="1.6092875051715805"/>
    </g>
    <linearGradient gradientTransform="matrix(0.0, 0.0231, -0.024, 0.0, -19.95, 20.0)" gradientUnits="userSpaceOnUse" id="gradient9" spreadMethod="pad" x1="-819.2" x2="819.2">
      <stop offset="0.0" stop-color="#ff452e"/>
      <stop offset="1.0" stop-color="#e00a0a"/>
    </linearGradient>
    <radialGradient cx="0" cy="0" gradientTransform="matrix(0.0226, 0.0, 0.0, 0.0095, 10.0, 35.5)" gradientUnits="userSpaceOnUse" id="gradient10" r="819.2" spreadMethod="pad">
      <stop offset="0.12941176470588237" stop-color="#ffe48e" stop-opacity="0.4"/>
      <stop offset="1.0" stop-color="#ffe983" stop-opacity="0.0"/>
    </radialGradient>
    <g id="sprite5" transform="matrix(1.0, 0.0, 0.0, 1.0, 0.5, 0.0)">
      <use ffdec:characterId="1128" height="43.95" transform="matrix(1.0, 0.0, 0.0, 1.0, -0.5, 0.0)" width="50.15" xlink:href="#shape5"/>
    </g>
    <g id="shape5" transform="matrix(1.0, 0.0, 0.0, 1.0, 0.5, 0.0)">
      <path d="M28.5 0.1 L46.8 0.0 Q47.1 10.1 47.75 20.15 48.3 29.5 49.15 38.85 L36.4 38.25 35.75 16.35 32.35 31.45 32.3 31.45 21.55 31.75 18.25 20.7 17.45 18.0 17.15 20.7 Q16.55 26.1 16.25 31.65 L15.95 37.8 3.75 37.3 4.95 20.95 5.5 6.85 5.6 1.6 24.1 2.3 24.7 5.9 26.7 18.35 28.5 0.1" fill="url(#gradient11)" fill-rule="evenodd" stroke="none"/>
      <path d="M3.75 37.3 L15.95 37.8 12.2 42.9 0.0 42.4 3.75 37.3 M21.55 31.75 L32.3 31.45 32.3 31.55 28.6 36.55 17.8 36.85 21.55 31.75 M36.4 38.25 L49.15 38.85 45.4 43.95 32.65 43.35 36.4 38.25" fill="#790000" fill-rule="evenodd" stroke="none"/>
      <path d="M28.5 0.1 L26.7 18.35 24.7 5.9 24.75 5.2 28.5 0.1" fill="#b80a0a" fill-rule="evenodd" stroke="none"/>
      <path d="M5.6 1.6 L5.5 6.85 4.95 20.95 3.75 37.3 0.0 42.4 Q0.95 31.9 1.45 21.0 L1.85 6.7 5.6 1.6 M32.35 31.45 L35.75 16.35 36.4 38.25 32.65 43.35 32.3 31.55 32.35 31.45" fill="#ab0404" fill-rule="evenodd" stroke="none"/>
      <path d="M16.25 31.65 Q16.55 26.1 17.15 20.7 L17.45 18.0 18.25 20.7 21.55 31.75 17.8 36.85 16.25 31.65" fill="#9a0000" fill-rule="evenodd" stroke="none"/>
      <path d="M5.6 1.6 L5.5 6.85 4.95 20.95 3.75 37.3 15.95 37.8 M0.0 42.4 L3.75 37.3" ffdec:has-small-stroke="true" ffdec:original-stroke-width="1.0" fill="none" stroke="url(#gradient12)" stroke-linecap="round" stroke-linejoin="round" stroke-width="1.6092875051715805"/>
      <path d="M17.45 18.0 L18.25 20.7 21.55 31.75 32.3 31.45 M17.8 36.85 L21.55 31.75" ffdec:has-small-stroke="true" ffdec:original-stroke-width="1.0" fill="none" stroke="url(#gradient13)" stroke-linecap="round" stroke-linejoin="round" stroke-width="1.6092875051715805"/>
      <path d="M35.75 16.35 L36.4 38.25 49.15 38.85 M32.65 43.35 L36.4 38.25" ffdec:has-small-stroke="true" ffdec:original-stroke-width="1.0" fill="none" stroke="url(#gradient14)" stroke-linecap="round" stroke-linejoin="round" stroke-width="1.6092875051715805"/>
    </g>
    <linearGradient gradientTransform="matrix(0.0, 0.0231, -0.024, 0.0, -299.65, 19.55)" gradientUnits="userSpaceOnUse" id="gradient11" spreadMethod="pad" x1="-819.2" x2="819.2">
      <stop offset="0.0" stop-color="#ff452e"/>
      <stop offset="1.0" stop-color="#e00a0a"/>
    </linearGradient>
    <radialGradient cx="0" cy="0" gradientTransform="matrix(0.0168, 0.0, 0.0, 0.0097, 7.5, 34.25)" gradientUnits="userSpaceOnUse" id="gradient12" r="819.2" spreadMethod="pad">
      <stop offset="0.12941176470588237" stop-color="#ffe48e" stop-opacity="0.4"/>
      <stop offset="1.0" stop-color="#ffe983" stop-opacity="0.0"/>
    </radialGradient>
    <radialGradient cx="0" cy="0" gradientTransform="matrix(0.0131, 0.0, 0.0, 0.0089, 23.75, 28.75)" gradientUnits="userSpaceOnUse" id="gradient13" r="819.2" spreadMethod="pad">
      <stop offset="0.12941176470588237" stop-color="#ffe48e" stop-opacity="0.4"/>
      <stop offset="1.0" stop-color="#ffe983" stop-opacity="0.0"/>
    </radialGradient>
    <radialGradient cx="0" cy="0" gradientTransform="matrix(0.0162, 0.0, 0.0, 0.0093, 39.25, 35.5)" gradientUnits="userSpaceOnUse" id="gradient14" r="819.2" spreadMethod="pad">
      <stop offset="0.12941176470588237" stop-color="#ffe48e" stop-opacity="0.4"/>
      <stop offset="1.0" stop-color="#ffe983" stop-opacity="0.0"/>
    </radialGradient>
    <g id="sprite6" transform="matrix(1.0, 0.0, 0.0, 1.0, 0.0, 0.0)">
      <use ffdec:characterId="488" height="44.3" transform="matrix(1.0, 0.0, 0.0, 1.0, 0.0, 0.0)" width="30.5" xlink:href="#shape6"/>
    </g>
    <g id="shape6" transform="matrix(1.0, 0.0, 0.0, 1.0, 0.0, 0.0)">
      <path d="M27.65 24.8 L24.6 28.95 17.7 28.85 17.8 25.1 27.65 24.8 M30.0 39.2 L26.25 44.3 Q13.35 43.2 0.85 43.7 L4.6 38.6 Q15.25 38.15 26.15 38.9 L30.0 39.2 M29.45 11.05 L26.55 15.0 17.85 15.05 17.7 11.05 29.45 11.05" fill="#790000" fill-rule="evenodd" stroke="none"/>
      <path d="M26.55 15.0 L27.65 15.0 Q27.15 19.9 27.65 24.8 L17.8 25.1 17.7 28.85 24.6 28.95 29.8 29.0 30.0 39.2 26.15 38.9 Q15.25 38.15 4.6 38.6 L4.55 26.65 4.5 24.2 4.0 6.3 3.75 1.25 29.65 0.0 29.45 11.05 17.7 11.05 17.85 15.05 26.55 15.0" fill="url(#gradient15)" fill-rule="evenodd" stroke="none"/>
      <path d="M0.85 43.7 L0.75 29.3 0.7 26.7 0.0 6.35 3.75 1.25 4.0 6.3 4.5 24.2 4.55 26.65 4.6 38.6 0.85 43.7" fill="#ab0404" fill-rule="evenodd" stroke="none"/>
      <path d="M3.75 1.25 L4.0 6.3 4.5 24.2 4.55 26.65 4.6 38.6 Q15.25 38.15 26.15 38.9 L30.0 39.2 M0.85 43.7 L4.6 38.6" ffdec:has-small-stroke="true" ffdec:original-stroke-width="1.0" fill="none" stroke="url(#gradient16)" stroke-linecap="round" stroke-linejoin="round" stroke-width="1.6092875051715805"/>
    </g>
    <linearGradient gradientTransform="matrix(0.0, 0.0231, -0.024, 0.0, -19.95, 20.0)" gradientUnits="userSpaceOnUse" id="gradient15" spreadMethod="pad" x1="-819.2" x2="819.2">
      <stop offset="0.0" stop-color="#ff452e"/>
      <stop offset="1.0" stop-color="#e00a0a"/>
    </linearGradient>
    <radialGradient cx="0" cy="0" gradientTransform="matrix(0.0226, 0.0, 0.0, 0.0095, 10.0, 35.5)" gradientUnits="userSpaceOnUse" id="gradient16" r="819.2" spreadMethod="pad">
      <stop offset="0.12941176470588237" stop-color="#ffe48e" stop-opacity="0.4"/>
      <stop offset="1.0" stop-color="#ffe983" stop-opacity="0.0"/>
    </radialGradient>
    <g id="sprite7" transform="matrix(1.0, 0.0, 0.0, 1.0, 0.5, 0.0)">
      <use ffdec:characterId="1128" height="43.95" transform="matrix(1.0, 0.0, 0.0, 1.0, -0.5, 0.0)" width="50.15" xlink:href="#shape7"/>
    </g>
    <g id="shape7" transform="matrix(1.0, 0.0, 0.0, 1.0, 0.5, 0.0)">
      <path d="M28.5 0.1 L46.8 0.0 Q47.1 10.1 47.75 20.15 48.3 29.5 49.15 38.85 L36.4 38.25 35.75 16.35 32.35 31.45 32.3 31.45 21.55 31.75 18.25 20.7 17.45 18.0 17.15 20.7 Q16.55 26.1 16.25 31.65 L15.95 37.8 3.75 37.3 4.95 20.95 5.5 6.85 5.6 1.6 24.1 2.3 24.7 5.9 26.7 18.35 28.5 0.1" fill="url(#gradient17)" fill-rule="evenodd" stroke="none"/>
      <path d="M3.75 37.3 L15.95 37.8 12.2 42.9 0.0 42.4 3.75 37.3 M21.55 31.75 L32.3 31.45 32.3 31.55 28.6 36.55 17.8 36.85 21.55 31.75 M36.4 38.25 L49.15 38.85 45.4 43.95 32.65 43.35 36.4 38.25" fill="#790000" fill-rule="evenodd" stroke="none"/>
      <path d="M28.5 0.1 L26.7 18.35 24.7 5.9 24.75 5.2 28.5 0.1" fill="#b80a0a" fill-rule="evenodd" stroke="none"/>
      <path d="M5.6 1.6 L5.5 6.85 4.95 20.95 3.75 37.3 0.0 42.4 Q0.95 31.9 1.45 21.0 L1.85 6.7 5.6 1.6 M32.35 31.45 L35.75 16.35 36.4 38.25 32.65 43.35 32.3 31.55 32.35 31.45" fill="#ab0404" fill-rule="evenodd" stroke="none"/>
      <path d="M16.25 31.65 Q16.55 26.1 17.15 20.7 L17.45 18.0 18.25 20.7 21.55 31.75 17.8 36.85 16.25 31.65" fill="#9a0000" fill-rule="evenodd" stroke="none"/>
      <path d="M5.6 1.6 L5.5 6.85 4.95 20.95 3.75 37.3 15.95 37.8 M0.0 42.4 L3.75 37.3" ffdec:has-small-stroke="true" ffdec:original-stroke-width="1.0" fill="none" stroke="url(#gradient18)" stroke-linecap="round" stroke-linejoin="round" stroke-width="1.6092875051715805"/>
      <path d="M17.45 18.0 L18.25 20.7 21.55 31.75 32.3 31.45 M17.8 36.85 L21.55 31.75" ffdec:has-small-stroke="true" ffdec:original-stroke-width="1.0" fill="none" stroke="url(#gradient19)" stroke-linecap="round" stroke-linejoin="round" stroke-width="1.6092875051715805"/>
      <path d="M35.75 16.35 L36.4 38.25 49.15 38.85 M32.65 43.35 L36.4 38.25" ffdec:has-small-stroke="true" ffdec:original-stroke-width="1.0" fill="none" stroke="url(#gradient20)" stroke-linecap="round" stroke-linejoin="round" stroke-width="1.6092875051715805"/>
    </g>
    <linearGradient gradientTransform="matrix(0.0, 0.0231, -0.024, 0.0, -299.65, 19.55)" gradientUnits="userSpaceOnUse" id="gradient17" spreadMethod="pad" x1="-819.2" x2="819.2">
      <stop offset="0.0" stop-color="#ff452e"/>
      <stop offset="1.0" stop-color="#e00a0a"/>
    </linearGradient>
    <radialGradient cx="0" cy="0" gradientTransform="matrix(0.0168, 0.0, 0.0, 0.0097, 7.5, 34.25)" gradientUnits="userSpaceOnUse" id="gradient18" r="819.2" spreadMethod="pad">
      <stop offset="0.12941176470588237" stop-color="#ffe48e" stop-opacity="0.4"/>
      <stop offset="1.0" stop-color="#ffe983" stop-opacity="0.0"/>
    </radialGradient>
    <radialGradient cx="0" cy="0" gradientTransform="matrix(0.0131, 0.0, 0.0, 0.0089, 23.75, 28.75)" gradientUnits="userSpaceOnUse" id="gradient19" r="819.2" spreadMethod="pad">
      <stop offset="0.12941176470588237" stop-color="#ffe48e" stop-opacity="0.4"/>
      <stop offset="1.0" stop-color="#ffe983" stop-opacity="0.0"/>
    </radialGradient>
    <radialGradient cx="0" cy="0" gradientTransform="matrix(0.0162, 0.0, 0.0, 0.0093, 39.25, 35.5)" gradientUnits="userSpaceOnUse" id="gradient20" r="819.2" spreadMethod="pad">
      <stop offset="0.12941176470588237" stop-color="#ffe48e" stop-opacity="0.4"/>
      <stop offset="1.0" stop-color="#ffe983" stop-opacity="0.0"/>
    </radialGradient>
  </defs>
</svg>
