<?xml version="1.0" encoding="UTF-8" standalone="no"?>
<svg xmlns:ffdec="https://www.free-decompiler.com/flash" xmlns:xlink="http://www.w3.org/1999/xlink" ffdec:objectType="frame" height="121.95px" width="168.15px" xmlns="http://www.w3.org/2000/svg">
  <g transform="matrix(1.0, 0.0, 0.0, 1.0, 0.0, 0.0)">
    <use ffdec:characterId="1429" height="38.05" id="a0" transform="matrix(1.0, 0.0, 0.0523, 0.9986, 0.6, 0.0)" width="38.0" xlink:href="#sprite0"/>
    <use ffdec:characterId="1429" height="38.05" id="a4" transform="matrix(1.0, 0.0, -0.0087, 1.0, 2.65, 41.95)" width="38.0" xlink:href="#sprite0"/>
    <use ffdec:characterId="1429" height="38.05" id="a8" transform="matrix(1.0, 0.0, -0.0532, 0.9984, 2.0, 83.95)" width="38.0" xlink:href="#sprite0"/>
    <use ffdec:characterId="1429" height="38.05" id="a1" transform="matrix(1.0, 0.0, 0.0523, 0.9986, 43.1, 0.0)" width="38.0" xlink:href="#sprite0"/>
    <use ffdec:characterId="1429" height="38.05" id="a5" transform="matrix(1.0, 0.0, -0.0087, 1.0, 45.15, 41.95)" width="38.0" xlink:href="#sprite0"/>
    <use ffdec:characterId="1429" height="38.05" id="a9" transform="matrix(1.0, 0.0, -0.0532, 0.9984, 44.5, 83.95)" width="38.0" xlink:href="#sprite0"/>
    <use ffdec:characterId="1429" height="38.05" id="a2" transform="matrix(1.0, 0.0, 0.0523, 0.9986, 85.6, 0.0)" width="38.0" xlink:href="#sprite0"/>
    <use ffdec:characterId="1429" height="38.05" id="a6" transform="matrix(1.0, 0.0, -0.0087, 1.0, 87.65, 41.95)" width="38.0" xlink:href="#sprite0"/>
    <use ffdec:characterId="1429" height="38.05" id="a10" transform="matrix(1.0, 0.0, -0.0532, 0.9984, 87.0, 83.95)" width="38.0" xlink:href="#sprite0"/>
    <use ffdec:characterId="1429" height="38.05" id="a3" transform="matrix(1.0, 0.0, 0.0523, 0.9986, 128.1, 0.0)" width="38.0" xlink:href="#sprite0"/>
    <use ffdec:characterId="1429" height="38.05" id="a7" transform="matrix(1.0, 0.0, -0.0087, 1.0, 130.15, 41.95)" width="38.0" xlink:href="#sprite0"/>
    <use ffdec:characterId="1429" height="38.05" id="a11" transform="matrix(1.0, 0.0, -0.0532, 0.9984, 129.5, 83.95)" width="38.0" xlink:href="#sprite0"/>
  </g>
  <defs>
    <g id="sprite0" transform="matrix(1.0, 0.0, 0.0, 1.0, 0.0, 0.0)">
      <use ffdec:characterId="1428" ffdec:characterName="core390_fla.apparalItemBG_473" height="38.0" id="bg_mc" transform="matrix(1.0, 0.0, 0.0, 1.001, 0.0, 0.0)" width="38.0" xlink:href="#sprite1"/>
    </g>
    <g id="sprite1" transform="matrix(1.0, 0.0, 0.0, 1.0, 0.0, 0.0)">
      <use ffdec:characterId="1426" height="38.0" transform="matrix(1.0, 0.0, 0.0, 1.0, 0.0, 0.0)" width="38.0" xlink:href="#shape0"/>
    </g>
    <g id="shape0" transform="matrix(1.0, 0.0, 0.0, 1.0, 0.0, 0.0)">
      <path d="M29.2 0.0 Q38.0 0.0 38.0 8.75 L38.0 29.25 Q38.0 38.0 29.2 38.0 L8.75 38.0 Q0.0 38.0 0.0 29.25 L0.0 8.75 Q0.0 0.0 8.75 0.0 L29.2 0.0" fill="#ffffff" fill-opacity="0.4" fill-rule="evenodd" stroke="none"/>
    </g>
  </defs>
</svg>
