<?xml version="1.0" encoding="UTF-8" standalone="no"?>
<svg xmlns:ffdec="https://www.free-decompiler.com/flash" xmlns:xlink="http://www.w3.org/1999/xlink" ffdec:objectType="frame" height="42.75px" width="39.4px" xmlns="http://www.w3.org/2000/svg">
  <g transform="matrix(1.0, 0.0, 0.0, 1.0, 8.3, 3.55)">
    <use ffdec:characterId="2529" height="35.65" transform="matrix(1.0, 0.0, 0.0, 1.0, -0.5, 1.0)" width="21.55" xlink:href="#shape0"/>
    <clipPath id="clipPath0">
      <path d="M 10.27 2.28 L 10.13 2.28 L 9.99 2.3 L 9.84 2.32 L 9.7 2.36 L 9.56 2.41 L 9.42 2.47 L 9.13 2.62 L 8.85 2.81 L 8.56 3.05 L 8.28 3.33 L 8 3.65 L 3.45 9.25 L 3.12 9.7 L 2.82 10.16 L 2.53 10.61 L 2.27 11.07 L 2.03 11.53 L 1.8 12 L 1.6 12.47 L 1.42 12.94 L 1.27 13.41 L 1.13 13.89 L 1.01 14.37 L 0.92 14.85 L 0.84 15.33 L 0.79 15.82 L 0.76 16.31 L 0.75 16.8 L 0.75 29.5 L 0.76 29.86 L 0.78 30.22 L 0.81 30.56 L 0.85 30.89 L 0.9 31.2 L 0.97 31.51 L 1.04 31.8 L 1.13 32.09 L 1.23 32.36 L 1.33 32.62 L 1.45 32.86 L 1.58 33.1 L 1.73 33.33 L 1.88 33.54 L 2.04 33.74 L 2.22 33.93 L 2.4 34.11 L 2.6 34.28 L 2.81 34.43 L 3.03 34.58 L 3.26 34.71 L 3.5 34.83 L 3.75 34.94 L 4.02 35.04 L 4.29 35.13 L 4.58 35.2 L 4.87 35.27 L 5.18 35.32 L 5.5 35.36 L 5.83 35.39 L 6.17 35.4 L 6.53 35.41 L 7 35.4 L 14.35 35.4 L 14.68 35.39 L 14.99 35.36 L 15.3 35.32 L 15.59 35.28 L 15.88 35.22 L 16.16 35.15 L 16.42 35.08 L 16.68 34.99 L 16.92 34.89 L 17.16 34.78 L 17.39 34.66 L 17.6 34.53 L 17.81 34.39 L 18 34.24 L 18.19 34.07 L 18.36 33.9 L 18.53 33.72 L 18.68 33.52 L 18.83 33.32 L 18.96 33.1 L 19.09 32.88 L 19.2 32.64 L 19.31 32.39 L 19.4 32.14 L 19.49 31.87 L 19.56 31.59 L 19.63 31.3 L 19.68 31 L 19.73 30.69 L 19.76 30.37 L 19.79 30.04 L 19.8 29.7 L 19.8 16.8 L 19.79 16.31 L 19.76 15.82 L 19.71 15.33 L 19.63 14.85 L 19.54 14.37 L 19.42 13.89 L 19.28 13.41 L 19.12 12.94 L 18.95 12.47 L 18.75 12 L 18.52 11.53 L 18.28 11.07 L 18.02 10.61 L 17.73 10.16 L 17.43 9.7 L 17.1 9.25 L 12.6 3.65 L 12.31 3.33 L 12.01 3.05 L 11.72 2.81 L 11.43 2.62 L 11.14 2.47 L 11 2.41 L 10.85 2.36 L 10.71 2.32 L 10.56 2.3 L 10.42 2.28 L 10.27 2.28 Z"/>
    </clipPath>
    <g clip-path="url(#clipPath0)">
      <filter id="filter0">
        <feConvolveMatrix divisor="16.0" in="SourceGraphic" kernelMatrix="1 1 1 1 1 1 1 1 1 1 1 1 1 1 1 1" order="4 4" result="filterResult0"/>
      </filter>
      <use ffdec:characterId="2540" filter="url(#filter0)" height="47.0" transform="matrix(0.9633, 0.0, 0.0, 0.91, -8.3052, -3.5697)" width="40.9" xlink:href="#sprite0"/>
    </g>
  </g>
  <defs>
    <g id="shape0" transform="matrix(1.0, 0.0, 0.0, 1.0, 0.5, -1.0)">
      <path d="M12.6 3.65 Q10.25 0.9 8.0 3.65 L3.45 9.25 Q0.75 12.85 0.75 16.8 L0.75 29.5 Q0.8 35.65 7.0 35.4 L14.35 35.4 Q19.65 35.25 19.8 29.7 L19.8 16.8 Q19.8 12.85 17.1 9.25 L12.6 3.65 Z" fill="none" stroke="#104472" stroke-linecap="round" stroke-linejoin="round" stroke-width="2.5"/>
    </g>
    <g id="sprite0" transform="matrix(1.0, 0.0, 0.0, 1.0, 9.4, 6.45)">
      <use ffdec:characterId="2539" height="47.0" transform="matrix(1.0, 0.0, 0.0, 1.0, -9.4, -6.45)" width="40.9" xlink:href="#shape1"/>
    </g>
    <g id="shape1" transform="matrix(1.0, 0.0, 0.0, 1.0, 9.4, 6.45)">
      <path d="M23.55 40.45 L21.5 40.55 0.6 40.55 Q-9.4 40.55 -9.4 30.55 L-9.4 3.55 Q-9.4 -6.45 0.6 -6.45 L21.5 -6.45 Q31.5 -6.45 31.5 3.55 L31.5 20.55 23.55 20.55 23.55 40.45 23.55 20.55 31.5 20.55 31.5 30.55 Q31.5 39.45 23.55 40.45" fill="#0056b6" fill-rule="evenodd" stroke="none"/>
      <path d="M17.0 7.7 L18.15 9.6 18.55 10.35 18.5 10.3 17.45 8.95 17.0 7.7 M15.5 6.9 L17.45 8.95 Q18.6 11.45 18.45 15.15 L18.45 29.15 Q18.2 35.0 12.5 35.15 L4.85 35.15 2.35 35.0 1.3 34.55 0.9 33.25 1.55 33.55 3.85 33.95 11.5 33.95 Q17.95 34.2 17.45 27.45 L17.45 13.6 Q17.4 9.6 15.5 6.9" fill="#29c7fc" fill-rule="evenodd" stroke="none"/>
      <path d="M0.45 32.95 Q0.05 31.75 0.0 30.15 L0.0 16.0 Q0.0 11.65 2.8 7.7 L7.5 1.55 Q9.4 -0.9 11.3 0.6 L11.4 0.7 12.25 1.55 17.0 7.7 16.45 7.3 16.4 7.2 12.95 2.75 Q10.6 -0.3 8.2 2.75 L3.5 8.9 Q0.7 12.85 0.7 17.2 L0.7 31.35 0.9 33.25 0.45 32.95" fill="#0a63c6" fill-rule="evenodd" stroke="none"/>
      <path d="M1.3 34.55 Q0.75 33.85 0.45 32.95 L0.9 33.25 1.3 34.55 M14.75 12.15 L11.45 7.9 Q9.85 5.75 8.15 7.9 L4.9 12.15 Q2.95 14.9 2.95 17.9 L2.95 27.7 Q3.05 31.95 6.9 32.05 L12.15 32.05 Q16.65 32.25 16.7 27.55 L16.7 17.9 Q16.7 14.9 14.75 12.15 M15.5 6.9 Q17.4 9.6 17.45 13.6 L17.45 27.45 Q17.95 34.2 11.5 33.95 L3.85 33.95 1.55 33.55 1.5 32.75 1.5 18.6 Q1.5 14.25 4.3 10.3 L9.0 4.15 Q11.4 1.1 13.75 4.15 L15.5 6.9" fill="#03a9f5" fill-rule="evenodd" stroke="none"/>
      <path d="M14.75 12.15 Q16.7 14.9 16.7 17.9 L16.7 27.55 Q16.65 32.25 12.15 32.05 L6.9 32.05 Q3.05 31.95 2.95 27.7 L2.95 17.9 Q2.95 14.9 4.9 12.15 L8.15 7.9 Q9.85 5.75 11.45 7.9 L14.75 12.15" fill="url(#gradient0)" fill-rule="evenodd" stroke="none"/>
      <path d="M0.9 33.25 L0.7 31.35 0.7 17.2 Q0.7 12.85 3.5 8.9 L8.2 2.75 Q10.6 -0.3 12.95 2.75 L16.4 7.2 16.45 7.3 17.0 7.7 17.45 8.95 15.5 6.9 13.75 4.15 Q11.4 1.1 9.0 4.15 L4.3 10.3 Q1.5 14.25 1.5 18.6 L1.5 32.75 1.55 33.55 0.9 33.25" fill="#007cd4" fill-rule="evenodd" stroke="none"/>
      <path d="M18.55 10.35 L18.55 10.4 Q19.8 13.1 19.8 16.0 L19.8 29.95 Q19.75 36.7 13.3 36.45 L5.65 36.45 Q3.2 36.35 1.8 35.1 L1.3 34.55 2.35 35.0 4.85 35.15 12.5 35.15 Q18.2 35.0 18.45 29.15 L18.45 15.15 Q18.6 11.45 17.45 8.95 L18.5 10.3 18.55 10.35" fill="#64e1ff" fill-rule="evenodd" stroke="none"/>
      <path d="M18.15 23.5 Q19.05 26.45 19.05 28.2 18.95 29.9 19.15 31.9 19.35 33.9 16.7 35.0 15.15 35.8 17.0 30.35 17.65 27.9 18.15 23.5" fill="#ffffff" fill-rule="evenodd" stroke="none"/>
    </g>
    <radialGradient cx="0" cy="0" gradientTransform="matrix(-0.0311, 0.0, 0.0, 0.0216, 9.8, 13.2)" gradientUnits="userSpaceOnUse" id="gradient0" r="819.2" spreadMethod="pad">
      <stop offset="0.3333333333333333" stop-color="#27bbff"/>
      <stop offset="0.5803921568627451" stop-color="#03a9f5"/>
      <stop offset="0.9058823529411765" stop-color="#0091e2"/>
    </radialGradient>
  </defs>
</svg>
