<?xml version="1.0" encoding="UTF-8" standalone="no"?>
<svg xmlns:ffdec="https://www.free-decompiler.com/flash" xmlns:xlink="http://www.w3.org/1999/xlink" ffdec:objectType="frame" height="89.95px" width="144.1px" xmlns="http://www.w3.org/2000/svg">
  <g transform="matrix(1.0, 0.0, 0.0, 1.0, 26.75, 39.1)">
    <use ffdec:characterId="1707" height="100.65" transform="matrix(0.5703, -0.1528, 0.1528, 0.5703, -26.7671, -6.5467)" width="107.0" xlink:href="#shape0"/>
    <use ffdec:characterId="1707" height="100.65" transform="matrix(0.4657, 0.1461, -0.1461, 0.4657, 67.5293, -18.0159)" width="107.0" xlink:href="#shape1"/>
    <use ffdec:characterId="1707" height="100.65" transform="matrix(0.8144, 0.0, 0.0, 0.8144, 3.2458, -39.112)" width="107.0" xlink:href="#shape0"/>
  </g>
  <defs>
    <g id="shape0" transform="matrix(1.0, 0.0, 0.0, 1.0, 56.0, 55.15)">
      <path d="M38.95 16.9 L38.55 16.85 38.6 16.8 39.2 16.35 38.95 16.9 M14.95 38.3 L14.2 38.5 14.15 38.3 14.95 38.3 M43.0 -3.55 L43.2 -2.8 42.85 -3.7 42.55 -4.3 43.0 -3.55" fill="#e2e66a" fill-rule="evenodd" stroke="none"/>
      <path d="M31.55 -37.7 Q40.7 -28.45 38.4 -17.9 43.3 -15.5 46.1 -9.7 48.4 -5.05 48.4 -0.85 48.4 13.05 40.55 24.65 27.5 43.8 -2.6 43.8 -8.75 43.8 -22.4 36.15 -36.7 28.15 -42.7 20.55 -44.6 18.1 -45.2 14.1 -45.45 12.35 -45.5 7.8 -45.6 2.85 -47.8 0.15 -50.0 -2.45 -50.0 -4.95 -50.0 -10.95 -48.35 -15.4 -46.4 -20.8 -41.7 -25.2 -39.2 -27.6 -37.65 -31.2 L-35.3 -36.4 Q-31.8 -41.45 -16.45 -41.45 -14.1 -41.45 -12.4 -43.15 L-9.1 -46.35 Q-3.45 -50.05 13.3 -45.45 15.2 -44.7 22.6 -42.25 29.5 -39.75 31.55 -37.7 M43.0 -3.55 L42.55 -4.3 42.85 -3.7 43.2 -2.8 43.0 -3.55 M14.95 38.3 L14.15 38.3 14.2 38.5 14.95 38.3 M38.95 16.9 L39.2 16.35 38.6 16.8 38.55 16.85 38.95 16.9" fill="#eae933" fill-rule="evenodd" stroke="none"/>
      <path d="M31.55 -37.7 Q40.7 -28.45 38.4 -17.9 43.3 -15.5 46.1 -9.7 48.4 -5.05 48.4 -0.85 48.4 13.05 40.55 24.65 27.5 43.8 -2.6 43.8 -8.75 43.8 -22.4 36.15 -36.7 28.15 -42.7 20.55 -44.6 18.1 -45.2 14.1 -45.45 12.35 -45.5 7.8 -45.6 2.85 -47.8 0.15 -50.0 -2.45 -50.0 -4.95 -50.0 -10.95 -48.35 -15.4 -46.4 -20.8 -41.7 -25.2 -39.2 -27.6 -37.65 -31.2 L-35.3 -36.4 Q-31.8 -41.45 -16.45 -41.45 -14.1 -41.45 -12.4 -43.15 L-9.1 -46.35 Q-3.45 -50.05 13.3 -45.45 15.2 -44.7 22.6 -42.25 29.5 -39.75 31.55 -37.7 Z" fill="none" stroke="#e8bd17" stroke-linecap="round" stroke-linejoin="round" stroke-width="2.0"/>
      <path d="M22.5 -26.1 Q22.5 -25.55 23.45 -24.4 24.55 -23.1 25.6 -23.1 28.2 -23.1 28.4 -23.55 28.55 -24.0 29.25 -24.0 30.3 -24.0 30.5 -22.8 30.5 -22.05 29.9 -21.5 28.95 -20.5 26.6 -20.5 22.75 -20.5 21.0 -23.25 L20.0 -26.0 Q20.0 -28.1 23.15 -30.05 26.25 -32.0 26.25 -29.55 26.25 -28.6 24.4 -27.8 22.5 -27.0 22.5 -26.1 M1.5 -35.3 Q1.5 -33.55 1.15 -33.0 -0.05 -31.25 -4.4 -31.25 -10.0 -31.25 -10.0 -34.75 -10.0 -36.85 -7.6 -38.65 -5.25 -40.4 -5.25 -38.05 -5.25 -37.55 -6.35 -36.65 -7.5 -35.7 -7.5 -34.85 -7.5 -34.6 -6.75 -34.3 -5.8 -33.9 -4.45 -33.9 -1.1 -33.9 -1.05 -35.2 -0.95 -36.5 0.25 -36.5 1.3 -36.5 1.5 -35.3 M29.6 -14.85 Q29.4 -15.05 29.4 -15.8 29.4 -17.8 34.05 -17.65 38.95 -17.55 41.15 -13.9 L41.1 -10.95 Q43.05 -7.45 44.65 -5.05 45.4 -3.65 45.4 0.05 45.4 2.35 44.9 5.15 L44.7 8.4 Q44.2 11.1 42.65 13.4 40.55 19.3 37.15 24.3 L36.0 25.95 Q34.7 28.5 33.05 29.55 21.3 42.3 1.4 42.3 -9.5 42.3 -13.05 37.45 -14.2 35.9 -14.6 31.85 -28.25 30.1 -34.75 24.35 -39.0 20.6 -41.6 13.1 -42.1 11.7 -42.15 7.8 -42.25 4.5 -42.75 2.8 -44.15 1.75 -45.45 -1.2 -47.0 -4.8 -47.0 -5.95 L-46.95 -6.75 -46.9 -6.8 -47.0 -8.1 Q-47.0 -15.45 -42.65 -18.75 -40.95 -20.5 -38.45 -20.95 L-38.25 -21.05 Q-38.1 -21.0 -38.1 -20.2 L-41.05 -16.5 Q-44.0 -12.7 -44.0 -9.85 -44.0 -6.45 -41.3 -3.5 L-40.9 -3.1 -39.75 -4.2 Q-37.5 -5.9 -37.5 -3.55 L-38.5 -1.95 -39.2 -0.9 -39.15 -0.85 Q-38.75 -0.85 -38.35 -0.15 -37.25 -0.5 -37.25 1.05 -37.25 1.4 -37.4 1.75 -35.75 2.65 -35.75 3.2 L-35.8 3.7 -35.5 3.75 Q-35.05 2.8 -34.0 2.35 L-33.45 2.15 Q-33.0 0.75 -32.0 0.75 -30.95 0.75 -30.75 2.15 -30.75 3.4 -31.45 4.65 -32.25 5.95 -33.55 6.35 -34.4 7.45 -35.75 7.5 L-36.55 7.5 Q-39.0 7.25 -39.95 5.35 L-40.0 5.25 -40.1 5.9 Q-40.1 8.95 -38.1 12.8 -36.1 16.75 -33.7 18.35 -32.75 19.0 -32.25 19.85 L-31.3 21.0 Q-29.65 22.0 -19.6 22.3 -18.75 22.3 -17.7 23.0 L-15.45 24.45 Q-11.6 26.55 -4.4 26.55 -0.4 26.55 3.75 24.95 L4.95 24.45 Q7.0 24.0 8.15 23.35 L8.25 23.45 8.3 23.5 8.55 23.55 8.75 23.45 8.8 23.5 7.9 25.45 7.15 27.25 Q5.9 30.2 5.9 30.55 5.9 33.2 6.7 34.1 8.3 36.05 13.9 36.05 23.15 36.05 28.4 29.9 26.9 29.35 26.1 27.9 L25.5 25.45 Q25.5 22.4 29.4 19.9 33.25 17.4 33.25 19.95 L33.4 17.9 Q33.4 17.3 38.15 13.05 41.25 9.8 42.35 6.9 L40.25 7.25 Q35.85 7.25 34.25 4.7 33.5 3.45 33.5 1.8 33.5 0.25 35.0 -1.3 35.65 -3.8 38.0 -4.1 L40.25 -3.75 40.35 -3.7 Q38.4 -8.1 38.4 -8.4 38.4 -9.0 38.9 -10.1 39.35 -11.05 39.4 -11.7 L39.4 -11.8 Q39.4 -12.85 38.0 -13.45 35.85 -14.35 29.8 -14.7 L29.6 -14.85 M38.25 -0.7 L37.25 0.0 37.25 0.95 37.5 2.5 Q37.85 3.65 38.6 3.65 L41.5 3.2 Q42.15 2.75 42.75 2.75 L42.8 2.75 41.15 -1.9 40.9 -1.65 39.5 -1.4 38.25 -0.7 M43.0 -3.55 L42.55 -4.3 42.85 -3.7 43.2 -2.8 43.0 -3.55 M39.2 16.35 L38.6 16.8 38.55 16.85 38.95 16.9 39.2 16.35 M30.65 22.05 Q28.0 23.2 28.0 25.3 28.0 26.0 28.5 26.65 29.1 27.4 30.15 27.6 32.6 23.75 33.2 20.25 32.85 21.05 30.65 22.05 M14.95 38.3 L14.15 38.3 14.2 38.5 14.95 38.3 M-30.85 -25.85 Q-32.0 -24.75 -32.0 -23.8 -32.0 -20.4 -28.3 -20.4 -26.75 -20.4 -26.25 -21.45 -25.7 -22.5 -25.0 -22.5 -23.95 -22.5 -23.75 -21.3 -23.75 -20.2 -24.55 -19.2 -25.8 -17.75 -28.4 -17.75 -32.35 -17.75 -33.8 -20.6 L-34.5 -23.6 Q-34.5 -26.1 -32.1 -27.9 -29.75 -29.7 -29.75 -27.3 -29.75 -26.9 -30.85 -25.85" fill="#e7c132" fill-rule="evenodd" stroke="none"/>
      <path d="M1.25 -52.0 Q1.75 -51.55 1.75 -49.5 1.75 -47.4 1.0 -46.5 L0.6 -46.65 0.5 -47.1 0.5 -49.85 Q0.65 -51.4 1.25 -52.0 M14.5 -51.75 L9.85 -48.1 Q7.35 -46.1 7.1 -44.35 L6.5 -44.0 6.05 -44.4 6.0 -45.0 Q6.0 -46.4 9.5 -49.3 12.7 -51.9 14.0 -52.25 L14.5 -51.75 M8.4 -51.6 Q4.75 -47.95 3.25 -45.5 2.9 -45.65 2.85 -45.7 L2.75 -46.2 5.65 -50.25 Q9.05 -54.4 11.5 -55.05 11.75 -55.35 11.75 -54.75 L8.4 -51.6 M13.6 -46.15 L10.5 -44.5 10.1 -44.7 10.0 -45.2 Q10.0 -45.95 11.85 -46.75 L16.25 -48.5 16.75 -48.0 Q16.3 -47.5 13.6 -46.15 M47.5 -15.85 Q48.35 -15.7 48.5 -15.25 48.35 -14.75 47.5 -14.75 L46.5 -14.9 46.5 -16.25 Q49.15 -18.35 50.3 -17.05 51.0 -16.3 51.0 -14.6 51.0 -13.35 50.05 -12.15 48.55 -10.25 45.5 -10.25 L44.05 -10.45 Q43.1 -10.7 43.0 -10.85 L43.0 -11.4 Q50.0 -11.45 50.0 -14.7 50.0 -16.5 49.35 -16.5 L47.85 -16.4 47.5 -15.9 47.5 -15.85 M20.15 41.15 L20.6 39.2 Q20.8 37.95 21.25 37.5 21.75 37.8 21.75 38.6 L21.7 39.45 Q22.05 37.9 22.4 37.85 L22.5 40.5 Q22.5 43.1 21.75 43.75 L21.35 43.6 21.25 43.15 21.5 40.45 Q20.85 42.95 18.25 45.5 L17.85 45.3 17.75 44.8 20.15 41.15 M28.2 36.95 Q29.7 37.8 31.0 39.4 L30.95 39.8 30.5 40.0 Q29.0 40.0 27.3 38.75 L25.0 36.9 25.0 36.35 Q26.35 35.85 28.2 36.95 M23.75 36.75 Q24.85 37.2 25.75 38.85 26.6 40.35 26.75 41.75 L26.25 42.0 Q25.45 41.2 24.45 39.3 23.5 37.6 23.5 37.25 L23.6 36.8 23.75 36.75 M-56.0 -1.7 Q-56.0 -4.05 -54.2 -6.25 -51.65 -9.35 -47.5 -6.0 L-48.0 -5.5 Q-48.45 -5.65 -48.45 -6.15 L-50.85 -6.4 Q-53.05 -6.4 -54.25 -4.0 L-55.0 -1.6 -54.85 -1.25 Q-54.6 -0.95 -54.15 -0.9 L-53.0 -0.9 Q-53.6 -1.0 -54.0 -1.35 L-54.0 -1.9 -53.1 -2.0 Q-51.65 -2.0 -52.0 -0.8 L-52.1 0.0 -53.5 0.25 Q-55.15 0.25 -55.75 -0.7 L-56.0 -1.7 M-34.0 15.0 Q-33.45 15.75 -33.3 17.25 L-33.25 19.6 Q-33.25 25.3 -39.25 28.75 L-39.65 28.6 -39.75 28.15 -37.55 26.1 Q-35.25 23.8 -34.75 22.25 -34.4 21.1 -34.4 19.2 L-34.5 16.5 Q-34.5 15.4 -34.0 15.0 M-35.25 13.75 Q-35.25 14.35 -36.75 17.35 -38.3 20.5 -39.0 21.0 L-39.5 20.65 Q-38.55 19.5 -37.55 16.9 -36.45 14.2 -35.75 13.25 L-35.4 13.3 Q-35.25 13.35 -35.25 13.75 M-32.5 21.4 L-32.75 20.1 -33.0 18.6 Q-31.9 18.05 -31.6 19.35 L-31.5 21.3 Q-31.5 22.9 -31.8 24.45 -32.3 26.75 -33.25 26.75 L-33.8 26.65 -34.0 26.4 -32.9 23.5 Q-32.5 22.45 -32.5 21.4 M-30.75 19.0 L-29.6 18.85 Q-29.6 20.3 -28.75 21.5 L-29.25 22.0 Q-30.25 21.6 -30.45 20.55 L-30.75 19.0" fill="#9e7e03" fill-rule="evenodd" stroke="none"/>
      <path d="M44.45 0.25 L44.75 0.2 44.7 0.85 44.5 0.8 44.45 0.25" fill="#85942a" fill-rule="evenodd" stroke="none"/>
      <path d="M31.25 -26.4 Q31.25 -24.8 30.75 -23.55 29.8 -21.25 27.5 -21.25 24.25 -21.25 22.7 -23.75 L21.75 -26.3 Q21.75 -28.6 23.25 -30.05 24.6 -31.35 26.5 -31.4 28.45 -31.45 29.75 -30.2 31.25 -28.85 31.25 -26.4 M25.0 -28.8 Q25.0 -28.6 25.75 -27.5 L25.5 -25.25 Q25.65 -23.0 27.6 -23.0 29.0 -23.0 29.25 -24.05 L29.25 -25.6 Q29.25 -27.8 27.15 -29.45 25.0 -31.15 25.0 -28.8 M0.55 -34.35 Q-0.6 -32.5 -3.0 -32.5 -6.5 -32.5 -8.05 -34.3 -9.0 -35.4 -9.0 -36.6 -9.0 -38.3 -7.4 -39.55 -5.9 -40.65 -3.85 -40.8 1.25 -41.25 1.25 -36.7 1.25 -35.55 0.55 -34.35 M44.45 0.25 Q44.1 -2.2 40.5 -2.4 36.5 -2.6 36.5 -0.55 L36.6 0.05 Q37.0 0.75 38.35 0.75 39.75 0.75 41.25 1.5 L43.1 2.25 Q44.5 2.25 44.5 0.8 L44.7 0.85 Q44.55 1.95 43.85 3.25 42.6 5.75 40.25 5.75 36.45 5.75 35.25 3.2 34.75 2.15 34.75 0.3 34.75 -3.65 39.75 -3.75 44.75 -3.85 44.75 0.2 L44.45 0.25 M34.65 18.8 Q32.5 17.65 32.5 23.05 L32.5 24.55 Q32.75 26.0 33.85 26.0 34.75 26.0 35.8 24.45 36.75 23.0 36.75 22.25 36.75 19.95 34.65 18.8 M37.5 22.7 Q37.5 24.25 35.6 26.1 33.2 28.5 29.5 28.5 27.05 28.5 26.5 26.95 L26.5 25.3 Q26.5 23.1 28.2 21.05 29.8 19.15 32.0 18.3 L35.8 18.45 Q37.5 19.55 37.5 22.7 M11.65 36.9 Q10.2 39.25 5.75 39.25 2.2 39.25 1.35 37.2 L1.25 35.05 Q1.25 33.5 2.95 31.8 4.65 30.2 6.75 29.5 12.25 27.7 12.25 33.75 12.25 35.85 11.65 36.9 M-2.85 -39.4 Q-5.75 -40.1 -5.75 -37.95 -5.75 -37.3 -5.45 -37.1 -4.9 -36.75 -2.75 -36.5 L-2.75 -35.15 Q-2.5 -34.25 -1.25 -34.25 0.0 -34.25 0.0 -36.25 0.0 -38.75 -2.85 -39.4 M10.45 36.05 Q11.0 35.1 11.0 34.35 11.0 32.15 8.0 31.9 5.0 31.65 5.0 33.45 5.0 32.95 6.75 35.0 L8.75 37.25 Q9.75 37.25 10.45 36.05 M-25.1 -28.5 Q-23.5 -26.9 -23.5 -24.25 -23.5 -22.1 -23.95 -21.25 -25.05 -19.15 -28.65 -19.15 -33.75 -19.15 -33.75 -24.75 -33.75 -27.3 -32.15 -28.75 -30.7 -30.05 -28.6 -30.0 -26.55 -29.9 -25.1 -28.5 M-27.25 -27.75 Q-29.75 -29.0 -29.75 -25.9 L-28.8 -23.3 Q-27.65 -20.75 -26.4 -20.75 -25.15 -20.75 -24.8 -21.9 L-24.75 -23.45 Q-24.75 -26.45 -27.25 -27.75 M-30.5 -0.4 Q-30.5 1.4 -31.0 2.75 -32.05 5.5 -34.9 5.5 -39.1 5.5 -40.2 2.75 L-40.5 -0.05 Q-40.5 -6.4 -35.5 -5.35 -33.55 -4.95 -32.05 -3.5 -30.5 -2.0 -30.5 -0.4 M-16.75 23.75 Q-16.75 21.7 -20.0 20.9 -23.25 20.05 -23.25 22.25 L-21.5 24.0 Q-19.55 25.75 -18.65 25.75 -17.35 25.75 -16.95 25.15 L-16.75 23.75 M-31.5 -0.1 Q-31.5 -2.2 -34.85 -3.75 -38.25 -5.3 -38.25 -3.05 L-36.45 -0.55 Q-34.4 2.0 -33.15 2.0 -32.05 2.0 -31.7 1.35 L-31.5 -0.1 M-25.0 20.85 Q-23.35 19.7 -21.1 19.75 -15.5 19.85 -15.5 25.4 -15.5 26.6 -16.2 27.7 -17.4 29.5 -20.15 29.5 -22.4 29.5 -24.55 27.7 -26.75 25.85 -26.75 23.9 -26.75 22.05 -25.0 20.85" fill="#ea7223" fill-rule="evenodd" stroke="none"/>
      <path d="M25.0 -28.8 Q25.0 -31.15 27.15 -29.45 29.25 -27.8 29.25 -25.6 L29.25 -24.05 Q29.0 -23.0 27.6 -23.0 25.65 -23.0 25.5 -25.25 L25.75 -27.5 Q25.0 -28.6 25.0 -28.8 M44.5 0.8 Q44.5 2.25 43.1 2.25 L41.25 1.5 Q39.75 0.75 38.35 0.75 37.0 0.75 36.6 0.05 L36.5 -0.55 Q36.5 -2.6 40.5 -2.4 44.1 -2.2 44.45 0.25 L44.5 0.8 M34.65 18.8 Q36.75 19.95 36.75 22.25 36.75 23.0 35.8 24.45 34.75 26.0 33.85 26.0 32.75 26.0 32.5 24.55 L32.5 23.05 Q32.5 17.65 34.65 18.8 M10.45 36.05 Q9.75 37.25 8.75 37.25 L6.75 35.0 Q5.0 32.95 5.0 33.45 5.0 31.65 8.0 31.9 11.0 32.15 11.0 34.35 11.0 35.1 10.45 36.05 M-2.85 -39.4 Q0.0 -38.75 0.0 -36.25 0.0 -34.25 -1.25 -34.25 -2.5 -34.25 -2.75 -35.15 L-2.75 -36.5 Q-4.9 -36.75 -5.45 -37.1 -5.75 -37.3 -5.75 -37.95 -5.75 -40.1 -2.85 -39.4 M-27.25 -27.75 Q-24.75 -26.45 -24.75 -23.45 L-24.8 -21.9 Q-25.15 -20.75 -26.4 -20.75 -27.65 -20.75 -28.8 -23.3 L-29.75 -25.9 Q-29.75 -29.0 -27.25 -27.75 M-31.5 -0.1 L-31.7 1.35 Q-32.05 2.0 -33.15 2.0 -34.4 2.0 -36.45 -0.55 L-38.25 -3.05 Q-38.25 -5.3 -34.85 -3.75 -31.5 -2.2 -31.5 -0.1 M-16.75 23.75 L-16.95 25.15 Q-17.35 25.75 -18.65 25.75 -19.55 25.75 -21.5 24.0 L-23.25 22.25 Q-23.25 20.05 -20.0 20.9 -16.75 21.7 -16.75 23.75" fill="#f5c4a3" fill-rule="evenodd" stroke="none"/>
      <path d="M0.95 -23.9 Q-6.9 -23.9 -12.05 -20.2 -17.1 -16.45 -20.85 -16.45 L-21.4 -16.55 -21.45 -16.85 -21.4 -16.9 -21.45 -17.6 Q-21.45 -21.5 -15.85 -25.2 -9.85 -29.2 -1.1 -30.0 15.2 -29.9 24.1 -17.95 30.95 -8.8 30.95 1.9 30.95 7.05 27.75 14.5 L25.65 18.65 Q24.2 21.55 21.9 24.0 L21.35 23.6 21.55 23.3 Q20.15 24.25 18.7 24.6 L18.15 24.2 Q21.9 21.7 24.55 18.15 L26.05 13.9 Q26.85 10.5 26.85 4.7 26.85 -2.2 21.95 -10.9 14.6 -23.9 0.95 -23.9 M-23.45 -4.4 Q-23.8 -1.9 -23.55 0.85 -23.35 2.75 -22.75 4.65 -20.45 11.65 -13.5 12.1 L-6.55 13.1 2.2 14.65 6.95 16.2 Q10.45 17.4 10.8 21.15 18.55 21.15 15.7 24.75 L16.4 24.85 Q15.35 25.9 14.7 23.7 14.0 21.45 9.8 22.6 L8.4 19.75 Q6.4 16.05 -4.15 15.8 L-17.45 14.95 Q-18.65 14.85 -19.6 14.05 -22.45 11.55 -23.95 8.0 -25.3 4.9 -26.0 1.55 -26.65 -1.6 -24.3 -4.15 -23.85 -4.6 -23.45 -4.4 M-16.15 13.8 L-12.55 13.6 -17.95 12.8 -16.15 13.8" fill="#dfb71b" fill-rule="evenodd" stroke="none"/>
      <path d="M15.6 -19.1 Q22.45 -19.1 22.45 -16.0 L22.2 -14.85 21.1 -13.85 Q20.0 -13.05 19.7 -11.45 19.25 -8.75 19.2 -5.15 23.15 -5.6 24.7 -4.2 25.65 -3.5 25.5 -2.4 25.5 -1.2 24.35 -0.35 22.75 0.85 19.25 1.1 19.4 4.6 19.8 7.55 19.85 8.65 20.2 9.05 L21.7 10.3 Q22.65 10.9 22.65 11.85 22.65 13.5 20.35 14.25 L17.95 14.8 13.95 14.9 7.85 14.3 Q5.65 13.65 5.65 12.1 5.65 11.5 5.9 11.2 L7.4 9.8 Q8.05 9.25 8.35 7.8 L8.5 2.9 8.4 0.3 7.6 -0.25 Q6.9 -0.25 6.25 0.65 L4.4 4.35 1.45 10.9 0.25 13.1 Q-0.15 13.65 -0.75 13.65 L-1.7 13.2 -2.9 11.05 -4.5 7.8 -7.7 0.6 Q-8.35 -0.9 -9.05 -0.9 -9.8 -0.9 -9.95 0.4 L-10.05 5.7 -9.8 9.05 -9.35 9.85 -7.85 10.7 Q-7.05 11.2 -7.05 12.15 -7.05 14.9 -14.05 14.9 -19.9 14.9 -19.9 12.25 -19.9 11.6 -19.55 11.25 L-18.0 10.3 Q-17.2 9.95 -16.9 9.35 L-16.45 6.9 -16.05 0.6 -16.0 -0.15 -16.3 -0.15 Q-21.1 -0.15 -22.3 -1.45 L-22.6 -2.9 Q-22.6 -5.2 -17.05 -5.65 L-15.9 -5.7 -15.9 -7.05 Q-15.9 -10.9 -16.45 -12.35 L-16.95 -13.1 -18.0 -13.7 Q-19.7 -14.5 -19.7 -15.85 -19.7 -16.7 -19.1 -17.4 L-17.45 -18.35 -14.5 -18.95 -11.55 -19.15 -7.15 -18.65 Q-6.5 -18.4 -6.15 -17.95 L-5.1 -16.3 -0.1 -7.05 Q0.7 -5.5 1.05 -5.2 1.4 -4.85 1.9 -4.85 2.45 -4.85 2.85 -5.2 L3.65 -6.5 7.05 -13.2 7.95 -14.85 Q9.15 -17.25 10.2 -18.05 11.7 -19.1 15.6 -19.1" fill="#ce6a16" fill-rule="evenodd" stroke="none"/>
      <path d="M18.65 -0.5 L23.1 -0.95 Q24.2 -1.55 24.35 -2.4 M-21.5 -2.4 Q-20.75 -1.0 -15.65 -1.3 M-18.4 12.2 L-18.45 13.0 Q-11.3 14.2 -8.75 12.3 M7.45 -1.6 Q6.15 -2.6 3.35 3.15 L-0.75 11.75 Q-3.75 4.25 -5.3 1.75 -7.25 -2.7 -8.85 -2.05 M7.25 11.8 Q7.3 13.9 14.4 13.75 21.4 13.45 20.65 12.45 L21.1 11.7" fill="none" stroke="#f5c4a3" stroke-linecap="round" stroke-linejoin="round" stroke-width="2.0"/>
      <path d="M10.8 -16.5 Q12.05 -18.15 16.6 -17.95 21.15 -17.8 21.15 -16.4 M-18.3 -16.7 Q-15.15 -17.9 -11.55 -17.9 -7.95 -17.95 -7.15 -16.75 L-1.05 -6.65 Q0.5 -4.2 1.3 -3.75 L3.15 -3.95" fill="none" stroke="#935237" stroke-linecap="round" stroke-linejoin="round" stroke-width="2.0"/>
      <path d="M22.75 -39.7 Q25.65 -37.9 27.95 -35.75 30.0 -33.8 30.0 -33.15 L30.0 -32.25 29.8 -31.75 27.5 -31.5 Q23.2 -31.5 20.8 -33.0 19.7 -33.7 17.5 -36.3 13.5 -40.9 4.3 -40.5 L4.2 -40.85 4.0 -41.95 Q4.5 -42.45 8.5 -42.75 13.75 -44.55 20.75 -40.85 L22.75 -39.7 M16.5 -40.45 L16.55 -40.25 16.6 -40.4 16.5 -40.45 M8.15 -29.7 Q12.4 -28.7 16.1 -26.55 19.75 -24.4 21.4 -21.75 L21.0 -21.15 Q15.7 -26.8 9.0 -28.5 2.3 -30.2 -1.35 -29.85 L-5.55 -29.7 Q-2.2 -31.1 1.8 -30.8 L8.15 -29.7 M32.15 -14.25 Q32.0 -14.5 32.0 -15.25 L32.05 -16.05 32.25 -16.45 Q35.75 -17.5 37.9 -15.25 39.5 -13.6 39.5 -12.0 L39.25 -10.85 37.75 -9.45 Q37.8 -9.0 38.5 -7.5 L38.25 -6.9 Q38.05 -6.5 37.25 -6.5 35.15 -6.5 35.15 -10.1 35.2 -13.8 32.3 -14.0 L32.15 -14.25 M2.55 23.65 L-1.45 23.2 Q-5.2 22.3 -5.7 21.75 L-6.65 19.25 Q-0.65 18.25 2.2 19.65 4.3 20.65 3.95 22.25 3.65 23.35 2.55 23.65 M15.35 25.3 Q13.1 22.2 10.15 22.8 14.65 20.4 14.85 23.85 L15.35 25.3 M8.15 21.5 Q-1.05 13.9 -15.65 17.95 -21.8 19.55 -26.45 10.7 -31.1 1.85 -24.15 -4.75 -25.8 5.2 -23.25 8.8 -20.55 12.55 -17.6 15.35 -0.3 13.55 6.9 17.85 8.75 18.95 8.15 21.5 M-31.2 -33.0 L-31.35 -33.25 -31.5 -34.25 Q-31.5 -37.15 -26.0 -37.9 -20.5 -38.65 -20.5 -36.5 -20.5 -35.25 -22.5 -34.0 -24.9 -32.5 -28.5 -32.5 -28.85 -32.5 -29.4 -32.95 L-31.2 -33.0" fill="#f2f2b7" fill-rule="evenodd" stroke="none"/>
    </g>
    <g id="shape1" transform="matrix(1.0, 0.0, 0.0, 1.0, 56.0, 55.15)">
      <path d="M38.95 16.9 L38.55 16.85 38.6 16.8 39.2 16.35 38.95 16.9 M14.95 38.3 L14.2 38.5 14.15 38.3 14.95 38.3 M43.0 -3.55 L43.2 -2.8 42.85 -3.7 42.55 -4.3 43.0 -3.55" fill="#e2e66a" fill-rule="evenodd" stroke="none"/>
      <path d="M31.55 -37.7 Q40.7 -28.45 38.4 -17.9 43.3 -15.5 46.1 -9.7 48.4 -5.05 48.4 -0.85 48.4 13.05 40.55 24.65 27.5 43.8 -2.6 43.8 -8.75 43.8 -22.4 36.15 -36.7 28.15 -42.7 20.55 -44.6 18.1 -45.2 14.1 -45.45 12.35 -45.5 7.8 -45.6 2.85 -47.8 0.15 -50.0 -2.45 -50.0 -4.95 -50.0 -10.95 -48.35 -15.4 -46.4 -20.8 -41.7 -25.2 -39.2 -27.6 -37.65 -31.2 L-35.3 -36.4 Q-31.8 -41.45 -16.45 -41.45 -14.1 -41.45 -12.4 -43.15 L-9.1 -46.35 Q-3.45 -50.05 13.3 -45.45 15.2 -44.7 22.6 -42.25 29.5 -39.75 31.55 -37.7 M43.0 -3.55 L42.55 -4.3 42.85 -3.7 43.2 -2.8 43.0 -3.55 M14.95 38.3 L14.15 38.3 14.2 38.5 14.95 38.3 M38.95 16.9 L39.2 16.35 38.6 16.8 38.55 16.85 38.95 16.9" fill="#eae933" fill-rule="evenodd" stroke="none"/>
      <path d="M31.55 -37.7 Q40.7 -28.45 38.4 -17.9 43.3 -15.5 46.1 -9.7 48.4 -5.05 48.4 -0.85 48.4 13.05 40.55 24.65 27.5 43.8 -2.6 43.8 -8.75 43.8 -22.4 36.15 -36.7 28.15 -42.7 20.55 -44.6 18.1 -45.2 14.1 -45.45 12.35 -45.5 7.8 -45.6 2.85 -47.8 0.15 -50.0 -2.45 -50.0 -4.95 -50.0 -10.95 -48.35 -15.4 -46.4 -20.8 -41.7 -25.2 -39.2 -27.6 -37.65 -31.2 L-35.3 -36.4 Q-31.8 -41.45 -16.45 -41.45 -14.1 -41.45 -12.4 -43.15 L-9.1 -46.35 Q-3.45 -50.05 13.3 -45.45 15.2 -44.7 22.6 -42.25 29.5 -39.75 31.55 -37.7 Z" ffdec:has-small-stroke="true" ffdec:original-stroke-width="2.0" fill="none" stroke="#e8bd17" stroke-linecap="round" stroke-linejoin="round" stroke-width="2.0488303286923046"/>
      <path d="M22.5 -26.1 Q22.5 -25.55 23.45 -24.4 24.55 -23.1 25.6 -23.1 28.2 -23.1 28.4 -23.55 28.55 -24.0 29.25 -24.0 30.3 -24.0 30.5 -22.8 30.5 -22.05 29.9 -21.5 28.95 -20.5 26.6 -20.5 22.75 -20.5 21.0 -23.25 L20.0 -26.0 Q20.0 -28.1 23.15 -30.05 26.25 -32.0 26.25 -29.55 26.25 -28.6 24.4 -27.8 22.5 -27.0 22.5 -26.1 M1.5 -35.3 Q1.5 -33.55 1.15 -33.0 -0.05 -31.25 -4.4 -31.25 -10.0 -31.25 -10.0 -34.75 -10.0 -36.85 -7.6 -38.65 -5.25 -40.4 -5.25 -38.05 -5.25 -37.55 -6.35 -36.65 -7.5 -35.7 -7.5 -34.85 -7.5 -34.6 -6.75 -34.3 -5.8 -33.9 -4.45 -33.9 -1.1 -33.9 -1.05 -35.2 -0.95 -36.5 0.25 -36.5 1.3 -36.5 1.5 -35.3 M29.6 -14.85 Q29.4 -15.05 29.4 -15.8 29.4 -17.8 34.05 -17.65 38.95 -17.55 41.15 -13.9 L41.1 -10.95 Q43.05 -7.45 44.65 -5.05 45.4 -3.65 45.4 0.05 45.4 2.35 44.9 5.15 L44.7 8.4 Q44.2 11.1 42.65 13.4 40.55 19.3 37.15 24.3 L36.0 25.95 Q34.7 28.5 33.05 29.55 21.3 42.3 1.4 42.3 -9.5 42.3 -13.05 37.45 -14.2 35.9 -14.6 31.85 -28.25 30.1 -34.75 24.35 -39.0 20.6 -41.6 13.1 -42.1 11.7 -42.15 7.8 -42.25 4.5 -42.75 2.8 -44.15 1.75 -45.45 -1.2 -47.0 -4.8 -47.0 -5.95 L-46.95 -6.75 -46.9 -6.8 -47.0 -8.1 Q-47.0 -15.45 -42.65 -18.75 -40.95 -20.5 -38.45 -20.95 L-38.25 -21.05 Q-38.1 -21.0 -38.1 -20.2 L-41.05 -16.5 Q-44.0 -12.7 -44.0 -9.85 -44.0 -6.45 -41.3 -3.5 L-40.9 -3.1 -39.75 -4.2 Q-37.5 -5.9 -37.5 -3.55 L-38.5 -1.95 -39.2 -0.9 -39.15 -0.85 Q-38.75 -0.85 -38.35 -0.15 -37.25 -0.5 -37.25 1.05 -37.25 1.4 -37.4 1.75 -35.75 2.65 -35.75 3.2 L-35.8 3.7 -35.5 3.75 Q-35.05 2.8 -34.0 2.35 L-33.45 2.15 Q-33.0 0.75 -32.0 0.75 -30.95 0.75 -30.75 2.15 -30.75 3.4 -31.45 4.65 -32.25 5.95 -33.55 6.35 -34.4 7.45 -35.75 7.5 L-36.55 7.5 Q-39.0 7.25 -39.95 5.35 L-40.0 5.25 -40.1 5.9 Q-40.1 8.95 -38.1 12.8 -36.1 16.75 -33.7 18.35 -32.75 19.0 -32.25 19.85 L-31.3 21.0 Q-29.65 22.0 -19.6 22.3 -18.75 22.3 -17.7 23.0 L-15.45 24.45 Q-11.6 26.55 -4.4 26.55 -0.4 26.55 3.75 24.95 L4.95 24.45 Q7.0 24.0 8.15 23.35 L8.25 23.45 8.3 23.5 8.55 23.55 8.75 23.45 8.8 23.5 7.9 25.45 7.15 27.25 Q5.9 30.2 5.9 30.55 5.9 33.2 6.7 34.1 8.3 36.05 13.9 36.05 23.15 36.05 28.4 29.9 26.9 29.35 26.1 27.9 L25.5 25.45 Q25.5 22.4 29.4 19.9 33.25 17.4 33.25 19.95 L33.4 17.9 Q33.4 17.3 38.15 13.05 41.25 9.8 42.35 6.9 L40.25 7.25 Q35.85 7.25 34.25 4.7 33.5 3.45 33.5 1.8 33.5 0.25 35.0 -1.3 35.65 -3.8 38.0 -4.1 L40.25 -3.75 40.35 -3.7 Q38.4 -8.1 38.4 -8.4 38.4 -9.0 38.9 -10.1 39.35 -11.05 39.4 -11.7 L39.4 -11.8 Q39.4 -12.85 38.0 -13.45 35.85 -14.35 29.8 -14.7 L29.6 -14.85 M38.25 -0.7 L37.25 0.0 37.25 0.95 37.5 2.5 Q37.85 3.65 38.6 3.65 L41.5 3.2 Q42.15 2.75 42.75 2.75 L42.8 2.75 41.15 -1.9 40.9 -1.65 39.5 -1.4 38.25 -0.7 M43.0 -3.55 L42.55 -4.3 42.85 -3.7 43.2 -2.8 43.0 -3.55 M39.2 16.35 L38.6 16.8 38.55 16.85 38.95 16.9 39.2 16.35 M30.65 22.05 Q28.0 23.2 28.0 25.3 28.0 26.0 28.5 26.65 29.1 27.4 30.15 27.6 32.6 23.75 33.2 20.25 32.85 21.05 30.65 22.05 M14.95 38.3 L14.15 38.3 14.2 38.5 14.95 38.3 M-30.85 -25.85 Q-32.0 -24.75 -32.0 -23.8 -32.0 -20.4 -28.3 -20.4 -26.75 -20.4 -26.25 -21.45 -25.7 -22.5 -25.0 -22.5 -23.95 -22.5 -23.75 -21.3 -23.75 -20.2 -24.55 -19.2 -25.8 -17.75 -28.4 -17.75 -32.35 -17.75 -33.8 -20.6 L-34.5 -23.6 Q-34.5 -26.1 -32.1 -27.9 -29.75 -29.7 -29.75 -27.3 -29.75 -26.9 -30.85 -25.85" fill="#e7c132" fill-rule="evenodd" stroke="none"/>
      <path d="M1.25 -52.0 Q1.75 -51.55 1.75 -49.5 1.75 -47.4 1.0 -46.5 L0.6 -46.65 0.5 -47.1 0.5 -49.85 Q0.65 -51.4 1.25 -52.0 M14.5 -51.75 L9.85 -48.1 Q7.35 -46.1 7.1 -44.35 L6.5 -44.0 6.05 -44.4 6.0 -45.0 Q6.0 -46.4 9.5 -49.3 12.7 -51.9 14.0 -52.25 L14.5 -51.75 M8.4 -51.6 Q4.75 -47.95 3.25 -45.5 2.9 -45.65 2.85 -45.7 L2.75 -46.2 5.65 -50.25 Q9.05 -54.4 11.5 -55.05 11.75 -55.35 11.75 -54.75 L8.4 -51.6 M13.6 -46.15 L10.5 -44.5 10.1 -44.7 10.0 -45.2 Q10.0 -45.95 11.85 -46.75 L16.25 -48.5 16.75 -48.0 Q16.3 -47.5 13.6 -46.15 M47.5 -15.85 Q48.35 -15.7 48.5 -15.25 48.35 -14.75 47.5 -14.75 L46.5 -14.9 46.5 -16.25 Q49.15 -18.35 50.3 -17.05 51.0 -16.3 51.0 -14.6 51.0 -13.35 50.05 -12.15 48.55 -10.25 45.5 -10.25 L44.05 -10.45 Q43.1 -10.7 43.0 -10.85 L43.0 -11.4 Q50.0 -11.45 50.0 -14.7 50.0 -16.5 49.35 -16.5 L47.85 -16.4 47.5 -15.9 47.5 -15.85 M20.15 41.15 L20.6 39.2 Q20.8 37.95 21.25 37.5 21.75 37.8 21.75 38.6 L21.7 39.45 Q22.05 37.9 22.4 37.85 L22.5 40.5 Q22.5 43.1 21.75 43.75 L21.35 43.6 21.25 43.15 21.5 40.45 Q20.85 42.95 18.25 45.5 L17.85 45.3 17.75 44.8 20.15 41.15 M28.2 36.95 Q29.7 37.8 31.0 39.4 L30.95 39.8 30.5 40.0 Q29.0 40.0 27.3 38.75 L25.0 36.9 25.0 36.35 Q26.35 35.85 28.2 36.95 M23.75 36.75 Q24.85 37.2 25.75 38.85 26.6 40.35 26.75 41.75 L26.25 42.0 Q25.45 41.2 24.45 39.3 23.5 37.6 23.5 37.25 L23.6 36.8 23.75 36.75 M-56.0 -1.7 Q-56.0 -4.05 -54.2 -6.25 -51.65 -9.35 -47.5 -6.0 L-48.0 -5.5 Q-48.45 -5.65 -48.45 -6.15 L-50.85 -6.4 Q-53.05 -6.4 -54.25 -4.0 L-55.0 -1.6 -54.85 -1.25 Q-54.6 -0.95 -54.15 -0.9 L-53.0 -0.9 Q-53.6 -1.0 -54.0 -1.35 L-54.0 -1.9 -53.1 -2.0 Q-51.65 -2.0 -52.0 -0.8 L-52.1 0.0 -53.5 0.25 Q-55.15 0.25 -55.75 -0.7 L-56.0 -1.7 M-34.0 15.0 Q-33.45 15.75 -33.3 17.25 L-33.25 19.6 Q-33.25 25.3 -39.25 28.75 L-39.65 28.6 -39.75 28.15 -37.55 26.1 Q-35.25 23.8 -34.75 22.25 -34.4 21.1 -34.4 19.2 L-34.5 16.5 Q-34.5 15.4 -34.0 15.0 M-35.25 13.75 Q-35.25 14.35 -36.75 17.35 -38.3 20.5 -39.0 21.0 L-39.5 20.65 Q-38.55 19.5 -37.55 16.9 -36.45 14.2 -35.75 13.25 L-35.4 13.3 Q-35.25 13.35 -35.25 13.75 M-32.5 21.4 L-32.75 20.1 -33.0 18.6 Q-31.9 18.05 -31.6 19.35 L-31.5 21.3 Q-31.5 22.9 -31.8 24.45 -32.3 26.75 -33.25 26.75 L-33.8 26.65 -34.0 26.4 -32.9 23.5 Q-32.5 22.45 -32.5 21.4 M-30.75 19.0 L-29.6 18.85 Q-29.6 20.3 -28.75 21.5 L-29.25 22.0 Q-30.25 21.6 -30.45 20.55 L-30.75 19.0" fill="#9e7e03" fill-rule="evenodd" stroke="none"/>
      <path d="M44.45 0.25 L44.75 0.2 44.7 0.85 44.5 0.8 44.45 0.25" fill="#85942a" fill-rule="evenodd" stroke="none"/>
      <path d="M31.25 -26.4 Q31.25 -24.8 30.75 -23.55 29.8 -21.25 27.5 -21.25 24.25 -21.25 22.7 -23.75 L21.75 -26.3 Q21.75 -28.6 23.25 -30.05 24.6 -31.35 26.5 -31.4 28.45 -31.45 29.75 -30.2 31.25 -28.85 31.25 -26.4 M25.0 -28.8 Q25.0 -28.6 25.75 -27.5 L25.5 -25.25 Q25.65 -23.0 27.6 -23.0 29.0 -23.0 29.25 -24.05 L29.25 -25.6 Q29.25 -27.8 27.15 -29.45 25.0 -31.15 25.0 -28.8 M0.55 -34.35 Q-0.6 -32.5 -3.0 -32.5 -6.5 -32.5 -8.05 -34.3 -9.0 -35.4 -9.0 -36.6 -9.0 -38.3 -7.4 -39.55 -5.9 -40.65 -3.85 -40.8 1.25 -41.25 1.25 -36.7 1.25 -35.55 0.55 -34.35 M44.45 0.25 Q44.1 -2.2 40.5 -2.4 36.5 -2.6 36.5 -0.55 L36.6 0.05 Q37.0 0.75 38.35 0.75 39.75 0.75 41.25 1.5 L43.1 2.25 Q44.5 2.25 44.5 0.8 L44.7 0.85 Q44.55 1.95 43.85 3.25 42.6 5.75 40.25 5.75 36.45 5.75 35.25 3.2 34.75 2.15 34.75 0.3 34.75 -3.65 39.75 -3.75 44.75 -3.85 44.75 0.2 L44.45 0.25 M34.65 18.8 Q32.5 17.65 32.5 23.05 L32.5 24.55 Q32.75 26.0 33.85 26.0 34.75 26.0 35.8 24.45 36.75 23.0 36.75 22.25 36.75 19.95 34.65 18.8 M37.5 22.7 Q37.5 24.25 35.6 26.1 33.2 28.5 29.5 28.5 27.05 28.5 26.5 26.95 L26.5 25.3 Q26.5 23.1 28.2 21.05 29.8 19.15 32.0 18.3 L35.8 18.45 Q37.5 19.55 37.5 22.7 M11.65 36.9 Q10.2 39.25 5.75 39.25 2.2 39.25 1.35 37.2 L1.25 35.05 Q1.25 33.5 2.95 31.8 4.65 30.2 6.75 29.5 12.25 27.7 12.25 33.75 12.25 35.85 11.65 36.9 M-2.85 -39.4 Q-5.75 -40.1 -5.75 -37.95 -5.75 -37.3 -5.45 -37.1 -4.9 -36.75 -2.75 -36.5 L-2.75 -35.15 Q-2.5 -34.25 -1.25 -34.25 0.0 -34.25 0.0 -36.25 0.0 -38.75 -2.85 -39.4 M10.45 36.05 Q11.0 35.1 11.0 34.35 11.0 32.15 8.0 31.9 5.0 31.65 5.0 33.45 5.0 32.95 6.75 35.0 L8.75 37.25 Q9.75 37.25 10.45 36.05 M-25.1 -28.5 Q-23.5 -26.9 -23.5 -24.25 -23.5 -22.1 -23.95 -21.25 -25.05 -19.15 -28.65 -19.15 -33.75 -19.15 -33.75 -24.75 -33.75 -27.3 -32.15 -28.75 -30.7 -30.05 -28.6 -30.0 -26.55 -29.9 -25.1 -28.5 M-27.25 -27.75 Q-29.75 -29.0 -29.75 -25.9 L-28.8 -23.3 Q-27.65 -20.75 -26.4 -20.75 -25.15 -20.75 -24.8 -21.9 L-24.75 -23.45 Q-24.75 -26.45 -27.25 -27.75 M-30.5 -0.4 Q-30.5 1.4 -31.0 2.75 -32.05 5.5 -34.9 5.5 -39.1 5.5 -40.2 2.75 L-40.5 -0.05 Q-40.5 -6.4 -35.5 -5.35 -33.55 -4.95 -32.05 -3.5 -30.5 -2.0 -30.5 -0.4 M-16.75 23.75 Q-16.75 21.7 -20.0 20.9 -23.25 20.05 -23.25 22.25 L-21.5 24.0 Q-19.55 25.75 -18.65 25.75 -17.35 25.75 -16.95 25.15 L-16.75 23.75 M-31.5 -0.1 Q-31.5 -2.2 -34.85 -3.75 -38.25 -5.3 -38.25 -3.05 L-36.45 -0.55 Q-34.4 2.0 -33.15 2.0 -32.05 2.0 -31.7 1.35 L-31.5 -0.1 M-25.0 20.85 Q-23.35 19.7 -21.1 19.75 -15.5 19.85 -15.5 25.4 -15.5 26.6 -16.2 27.7 -17.4 29.5 -20.15 29.5 -22.4 29.5 -24.55 27.7 -26.75 25.85 -26.75 23.9 -26.75 22.05 -25.0 20.85" fill="#ea7223" fill-rule="evenodd" stroke="none"/>
      <path d="M25.0 -28.8 Q25.0 -31.15 27.15 -29.45 29.25 -27.8 29.25 -25.6 L29.25 -24.05 Q29.0 -23.0 27.6 -23.0 25.65 -23.0 25.5 -25.25 L25.75 -27.5 Q25.0 -28.6 25.0 -28.8 M44.5 0.8 Q44.5 2.25 43.1 2.25 L41.25 1.5 Q39.75 0.75 38.35 0.75 37.0 0.75 36.6 0.05 L36.5 -0.55 Q36.5 -2.6 40.5 -2.4 44.1 -2.2 44.45 0.25 L44.5 0.8 M34.65 18.8 Q36.75 19.95 36.75 22.25 36.75 23.0 35.8 24.45 34.75 26.0 33.85 26.0 32.75 26.0 32.5 24.55 L32.5 23.05 Q32.5 17.65 34.65 18.8 M10.45 36.05 Q9.75 37.25 8.75 37.25 L6.75 35.0 Q5.0 32.95 5.0 33.45 5.0 31.65 8.0 31.9 11.0 32.15 11.0 34.35 11.0 35.1 10.45 36.05 M-2.85 -39.4 Q0.0 -38.75 0.0 -36.25 0.0 -34.25 -1.25 -34.25 -2.5 -34.25 -2.75 -35.15 L-2.75 -36.5 Q-4.9 -36.75 -5.45 -37.1 -5.75 -37.3 -5.75 -37.95 -5.75 -40.1 -2.85 -39.4 M-27.25 -27.75 Q-24.75 -26.45 -24.75 -23.45 L-24.8 -21.9 Q-25.15 -20.75 -26.4 -20.75 -27.65 -20.75 -28.8 -23.3 L-29.75 -25.9 Q-29.75 -29.0 -27.25 -27.75 M-31.5 -0.1 L-31.7 1.35 Q-32.05 2.0 -33.15 2.0 -34.4 2.0 -36.45 -0.55 L-38.25 -3.05 Q-38.25 -5.3 -34.85 -3.75 -31.5 -2.2 -31.5 -0.1 M-16.75 23.75 L-16.95 25.15 Q-17.35 25.75 -18.65 25.75 -19.55 25.75 -21.5 24.0 L-23.25 22.25 Q-23.25 20.05 -20.0 20.9 -16.75 21.7 -16.75 23.75" fill="#f5c4a3" fill-rule="evenodd" stroke="none"/>
      <path d="M0.95 -23.9 Q-6.9 -23.9 -12.05 -20.2 -17.1 -16.45 -20.85 -16.45 L-21.4 -16.55 -21.45 -16.85 -21.4 -16.9 -21.45 -17.6 Q-21.45 -21.5 -15.85 -25.2 -9.85 -29.2 -1.1 -30.0 15.2 -29.9 24.1 -17.95 30.95 -8.8 30.95 1.9 30.95 7.05 27.75 14.5 L25.65 18.65 Q24.2 21.55 21.9 24.0 L21.35 23.6 21.55 23.3 Q20.15 24.25 18.7 24.6 L18.15 24.2 Q21.9 21.7 24.55 18.15 L26.05 13.9 Q26.85 10.5 26.85 4.7 26.85 -2.2 21.95 -10.9 14.6 -23.9 0.95 -23.9 M-23.45 -4.4 Q-23.8 -1.9 -23.55 0.85 -23.35 2.75 -22.75 4.65 -20.45 11.65 -13.5 12.1 L-6.55 13.1 2.2 14.65 6.95 16.2 Q10.45 17.4 10.8 21.15 18.55 21.15 15.7 24.75 L16.4 24.85 Q15.35 25.9 14.7 23.7 14.0 21.45 9.8 22.6 L8.4 19.75 Q6.4 16.05 -4.15 15.8 L-17.45 14.95 Q-18.65 14.85 -19.6 14.05 -22.45 11.55 -23.95 8.0 -25.3 4.9 -26.0 1.55 -26.65 -1.6 -24.3 -4.15 -23.85 -4.6 -23.45 -4.4 M-16.15 13.8 L-12.55 13.6 -17.95 12.8 -16.15 13.8" fill="#dfb71b" fill-rule="evenodd" stroke="none"/>
      <path d="M15.6 -19.1 Q22.45 -19.1 22.45 -16.0 L22.2 -14.85 21.1 -13.85 Q20.0 -13.05 19.7 -11.45 19.25 -8.75 19.2 -5.15 23.15 -5.6 24.7 -4.2 25.65 -3.5 25.5 -2.4 25.5 -1.2 24.35 -0.35 22.75 0.85 19.25 1.1 19.4 4.6 19.8 7.55 19.85 8.65 20.2 9.05 L21.7 10.3 Q22.65 10.9 22.65 11.85 22.65 13.5 20.35 14.25 L17.95 14.8 13.95 14.9 7.85 14.3 Q5.65 13.65 5.65 12.1 5.65 11.5 5.9 11.2 L7.4 9.8 Q8.05 9.25 8.35 7.8 L8.5 2.9 8.4 0.3 7.6 -0.25 Q6.9 -0.25 6.25 0.65 L4.4 4.35 1.45 10.9 0.25 13.1 Q-0.15 13.65 -0.75 13.65 L-1.7 13.2 -2.9 11.05 -4.5 7.8 -7.7 0.6 Q-8.35 -0.9 -9.05 -0.9 -9.8 -0.9 -9.95 0.4 L-10.05 5.7 -9.8 9.05 -9.35 9.85 -7.85 10.7 Q-7.05 11.2 -7.05 12.15 -7.05 14.9 -14.05 14.9 -19.9 14.9 -19.9 12.25 -19.9 11.6 -19.55 11.25 L-18.0 10.3 Q-17.2 9.95 -16.9 9.35 L-16.45 6.9 -16.05 0.6 -16.0 -0.15 -16.3 -0.15 Q-21.1 -0.15 -22.3 -1.45 L-22.6 -2.9 Q-22.6 -5.2 -17.05 -5.65 L-15.9 -5.7 -15.9 -7.05 Q-15.9 -10.9 -16.45 -12.35 L-16.95 -13.1 -18.0 -13.7 Q-19.7 -14.5 -19.7 -15.85 -19.7 -16.7 -19.1 -17.4 L-17.45 -18.35 -14.5 -18.95 -11.55 -19.15 -7.15 -18.65 Q-6.5 -18.4 -6.15 -17.95 L-5.1 -16.3 -0.1 -7.05 Q0.7 -5.5 1.05 -5.2 1.4 -4.85 1.9 -4.85 2.45 -4.85 2.85 -5.2 L3.65 -6.5 7.05 -13.2 7.95 -14.85 Q9.15 -17.25 10.2 -18.05 11.7 -19.1 15.6 -19.1" fill="#ce6a16" fill-rule="evenodd" stroke="none"/>
      <path d="M18.65 -0.5 L23.1 -0.95 Q24.2 -1.55 24.35 -2.4 M-21.5 -2.4 Q-20.75 -1.0 -15.65 -1.3 M-18.4 12.2 L-18.45 13.0 Q-11.3 14.2 -8.75 12.3 M7.45 -1.6 Q6.15 -2.6 3.35 3.15 L-0.75 11.75 Q-3.75 4.25 -5.3 1.75 -7.25 -2.7 -8.85 -2.05 M7.25 11.8 Q7.3 13.9 14.4 13.75 21.4 13.45 20.65 12.45 L21.1 11.7" ffdec:has-small-stroke="true" ffdec:original-stroke-width="2.0" fill="none" stroke="#f5c4a3" stroke-linecap="round" stroke-linejoin="round" stroke-width="2.0488303286923046"/>
      <path d="M10.8 -16.5 Q12.05 -18.15 16.6 -17.95 21.15 -17.8 21.15 -16.4 M-18.3 -16.7 Q-15.15 -17.9 -11.55 -17.9 -7.95 -17.95 -7.15 -16.75 L-1.05 -6.65 Q0.5 -4.2 1.3 -3.75 L3.15 -3.95" ffdec:has-small-stroke="true" ffdec:original-stroke-width="2.0" fill="none" stroke="#935237" stroke-linecap="round" stroke-linejoin="round" stroke-width="2.0488303286923046"/>
      <path d="M22.75 -39.7 Q25.65 -37.9 27.95 -35.75 30.0 -33.8 30.0 -33.15 L30.0 -32.25 29.8 -31.75 27.5 -31.5 Q23.2 -31.5 20.8 -33.0 19.7 -33.7 17.5 -36.3 13.5 -40.9 4.3 -40.5 L4.2 -40.85 4.0 -41.95 Q4.5 -42.45 8.5 -42.75 13.75 -44.55 20.75 -40.85 L22.75 -39.7 M16.5 -40.45 L16.55 -40.25 16.6 -40.4 16.5 -40.45 M8.15 -29.7 Q12.4 -28.7 16.1 -26.55 19.75 -24.4 21.4 -21.75 L21.0 -21.15 Q15.7 -26.8 9.0 -28.5 2.3 -30.2 -1.35 -29.85 L-5.55 -29.7 Q-2.2 -31.1 1.8 -30.8 L8.15 -29.7 M32.15 -14.25 Q32.0 -14.5 32.0 -15.25 L32.05 -16.05 32.25 -16.45 Q35.75 -17.5 37.9 -15.25 39.5 -13.6 39.5 -12.0 L39.25 -10.85 37.75 -9.45 Q37.8 -9.0 38.5 -7.5 L38.25 -6.9 Q38.05 -6.5 37.25 -6.5 35.15 -6.5 35.15 -10.1 35.2 -13.8 32.3 -14.0 L32.15 -14.25 M2.55 23.65 L-1.45 23.2 Q-5.2 22.3 -5.7 21.75 L-6.65 19.25 Q-0.65 18.25 2.2 19.65 4.3 20.65 3.95 22.25 3.65 23.35 2.55 23.65 M15.35 25.3 Q13.1 22.2 10.15 22.8 14.65 20.4 14.85 23.85 L15.35 25.3 M8.15 21.5 Q-1.05 13.9 -15.65 17.95 -21.8 19.55 -26.45 10.7 -31.1 1.85 -24.15 -4.75 -25.8 5.2 -23.25 8.8 -20.55 12.55 -17.6 15.35 -0.3 13.55 6.9 17.85 8.75 18.95 8.15 21.5 M-31.2 -33.0 L-31.35 -33.25 -31.5 -34.25 Q-31.5 -37.15 -26.0 -37.9 -20.5 -38.65 -20.5 -36.5 -20.5 -35.25 -22.5 -34.0 -24.9 -32.5 -28.5 -32.5 -28.85 -32.5 -29.4 -32.95 L-31.2 -33.0" fill="#f2f2b7" fill-rule="evenodd" stroke="none"/>
    </g>
  </defs>
</svg>
