<?xml version="1.0" encoding="UTF-8" standalone="no"?>
<svg xmlns:ffdec="https://www.free-decompiler.com/flash" xmlns:xlink="http://www.w3.org/1999/xlink" ffdec:objectType="frame" height="35.55px" width="13.3px" xmlns="http://www.w3.org/2000/svg">
  <g transform="matrix(1.0, 0.0, 0.0, 1.0, 0.0, 0.0)">
    <use ffdec:characterId="2085" height="35.55" transform="matrix(1.0, 0.0, 0.0, 1.0, 0.0, 0.0)" width="13.3" xlink:href="#shape0"/>
  </g>
  <defs>
    <g id="shape0" transform="matrix(1.0, 0.0, 0.0, 1.0, 0.0, 0.0)">
      <path d="M5.35 9.1 Q4.1 18.55 1.3 26.35 0.2 29.25 4.45 33.7 5.45 34.65 6.3 34.5 7.15 34.15 7.85 32.65 12.15 23.6 12.3 10.45 12.15 2.35 8.95 1.05 L8.85 1.0 Q8.3 0.75 7.55 1.55 6.85 2.15 6.2 3.95 6.3 1.95 7.15 0.85 8.05 -0.35 9.3 0.1 L9.35 0.1 9.4 0.15 Q13.15 1.6 13.3 10.45 13.15 23.9 8.75 33.1 7.75 35.15 6.55 35.45 5.25 35.85 3.75 34.4 -1.1 29.35 0.35 26.0 3.3 17.85 5.3 9.25 L5.35 9.1 M5.4 8.85 L5.35 9.05 5.35 8.95 5.4 8.85" fill="#552870" fill-rule="evenodd" stroke="none"/>
      <path d="M6.2 3.95 Q6.85 2.15 7.55 1.55 8.3 0.75 8.85 1.0 L8.95 1.05 Q12.15 2.35 12.3 10.45 12.15 23.6 7.85 32.65 7.15 34.15 6.3 34.5 5.45 34.65 4.45 33.7 0.2 29.25 1.3 26.35 4.1 18.55 5.35 9.1 L5.35 9.05 5.4 8.85 5.4 8.7 6.2 3.95" fill="url(#gradient0)" fill-rule="evenodd" stroke="none"/>
    </g>
    <radialGradient cx="0" cy="0" fx="3.2" fy="0" gradientTransform="matrix(0.008, 0.0011, -0.0043, 0.0317, 10.05, 3.95)" gradientUnits="userSpaceOnUse" id="gradient0" r="819.2" spreadMethod="pad">
      <stop offset="0.0" stop-color="#8cb3d7"/>
      <stop offset="0.5686274509803921" stop-color="#b47baa"/>
      <stop offset="0.8470588235294118" stop-color="#72418e"/>
      <stop offset="1.0" stop-color="#72418e"/>
    </radialGradient>
  </defs>
</svg>
