<?xml version="1.0" encoding="UTF-8" standalone="no"?>
<svg xmlns:ffdec="https://www.free-decompiler.com/flash" xmlns:xlink="http://www.w3.org/1999/xlink" ffdec:objectType="frame" height="10.5px" width="18.5px" xmlns="http://www.w3.org/2000/svg">
  <g transform="matrix(1.0, 0.0, 0.0, 1.0, 0.0, 0.0)">
    <use ffdec:characterId="188" height="10.5" transform="matrix(1.0, 0.0, 0.0, 1.0, 0.0, 0.0)" width="18.5" xlink:href="#shape0"/>
  </g>
  <defs>
    <g id="shape0" transform="matrix(1.0, 0.0, 0.0, 1.0, 0.0, 0.0)">
      <path d="M0.0 5.25 L0.05 4.8 Q0.3 2.95 2.7 1.55 L2.9 1.45 Q5.55 0.0 9.25 0.0 12.35 0.0 14.7 1.0 L14.75 1.05 15.8 1.55 Q18.5 3.1 18.5 5.25 L18.3 6.5 Q17.7 7.85 15.8 8.95 13.1 10.5 9.25 10.5 5.4 10.5 2.7 8.95 0.0 7.4 0.0 5.25" fill="#4aa613" fill-rule="evenodd" stroke="none"/>
    </g>
  </defs>
</svg>
