<?xml version="1.0" encoding="UTF-8" standalone="no"?>
<svg xmlns:ffdec="https://www.free-decompiler.com/flash" xmlns:xlink="http://www.w3.org/1999/xlink" ffdec:objectType="frame" height="6.15px" width="19.05px" xmlns="http://www.w3.org/2000/svg">
  <g transform="matrix(1.0, 0.0, 0.0, 1.0, 0.0, 0.0)">
    <use ffdec:characterId="50" height="6.15" transform="matrix(1.0, 0.0, 0.0, 1.0, 0.0, 0.0)" width="19.05" xlink:href="#shape0"/>
  </g>
  <defs>
    <g id="shape0" transform="matrix(1.0, 0.0, 0.0, 1.0, 0.0, 0.0)">
      <path d="M15.2 2.1 Q15.2 0.15 17.15 0.45 19.05 0.8 19.05 2.2 19.05 3.7 17.35 3.7 15.7 3.7 15.3 3.0 L15.2 2.1 M7.9 5.35 Q7.9 6.15 7.15 6.15 6.4 6.15 6.4 5.35 6.4 4.55 7.15 4.65 7.9 4.7 7.9 5.35 M0.0 1.15 Q0.0 0.35 1.0 0.05 2.0 -0.2 2.0 0.85 L1.75 1.7 Q1.45 2.25 1.05 2.25 0.25 2.25 0.05 1.75 L0.0 1.15" fill="#000000" fill-opacity="0.29803923" fill-rule="evenodd" stroke="none"/>
    </g>
  </defs>
</svg>
