<?xml version="1.0" encoding="UTF-8" standalone="no"?>
<svg xmlns:ffdec="https://www.free-decompiler.com/flash" xmlns:xlink="http://www.w3.org/1999/xlink" ffdec:objectType="morphshape" height="48.8px" width="48.8px" xmlns="http://www.w3.org/2000/svg">
  <g transform="matrix(1.0, 0.0, 0.0, 1.0, 8.6, 8.6)">
    <path d="M0.0 15.8 Q0.0 22.35 4.6 26.95 9.25 31.6 15.8 31.6 22.35 31.6 26.95 26.95 31.6 22.35 31.6 15.8 31.6 9.25 26.95 4.6 22.35 0.0 15.8 0.0 9.25 0.0 4.6 4.6 0.0 9.25 0.0 15.8 M1.4 15.8 Q1.4 21.8 5.6 26.0 9.8 30.2 15.8 30.2 21.8 30.2 26.0 26.0 30.2 21.8 30.2 15.8 30.2 9.8 26.0 5.6 21.8 1.4 15.8 1.4 9.8 1.4 5.6 5.6 1.4 9.8 1.4 15.8" fill="#ffffff" fill-opacity="0.5019608" fill-rule="evenodd" stroke="none">
      <animate attributeName="fill" dur="2s" repeatCount="indefinite" values="#ffffff;#ffffff"/>
      <animate attributeName="fill-opacity" dur="2s" repeatCount="indefinite" values="0.5019608;0.0"/>
      <animate attributeName="d" dur="2s" repeatCount="indefinite" values="M0.0 15.8 Q0.0 22.35 4.6 26.95 9.25 31.6 15.8 31.6 22.35 31.6 26.95 26.95 31.6 22.35 31.6 15.8 31.6 9.25 26.95 4.6 22.35 0.0 15.8 0.0 9.25 0.0 4.6 4.6 0.0 9.25 0.0 15.8 M1.4 15.8 Q1.4 21.8 5.6 26.0 9.8 30.2 15.8 30.2 21.8 30.2 26.0 26.0 30.2 21.8 30.2 15.8 30.2 9.8 26.0 5.6 21.8 1.4 15.8 1.4 9.8 1.4 5.6 5.6 1.4 9.8 1.4 15.8;M-8.6 15.8 Q-8.6 25.9 -1.5 33.0 5.7 40.2 15.8 40.2 25.9 40.2 33.0 33.0 40.2 25.9 40.2 15.8 40.2 5.7 33.0 -1.5 25.9 -8.6 15.8 -8.6 5.7 -8.6 -1.5 -1.5 -8.6 5.7 -8.6 15.8 M-6.45 15.8 Q-6.45 25.05 0.05 31.55 6.55 38.05 15.8 38.05 25.05 38.05 31.55 31.55 38.05 25.05 38.05 15.8 38.05 6.55 31.55 0.05 25.05 -6.45 15.8 -6.45 6.55 -6.45 0.05 0.05 -6.45 6.55 -6.45 15.8"/>
    </path>
    <path d="M0.0 15.8 Q0.0 9.25 4.6 4.6 9.25 0.0 15.8 0.0 22.35 0.0 26.95 4.6 31.6 9.25 31.6 15.8 31.6 22.35 26.95 26.95 22.35 31.6 15.8 31.6 9.25 31.6 4.6 26.95 0.0 22.35 0.0 15.8" fill="none" stroke="#000000" stroke-linecap="round" stroke-linejoin="round" stroke-opacity="0.0" stroke-width="0.0">
      <animate attributeName="stroke" dur="2s" repeatCount="indefinite" values="#000000;#000001"/>
      <animate attributeName="stroke-width" dur="2s" repeatCount="indefinite" values="0.0;0.0"/>
      <animate attributeName="fill-opacity" dur="2s" repeatCount="indefinite" values="0.0;0.0"/>
      <animate attributeName="d" dur="2s" repeatCount="indefinite" values="M0.0 15.8 Q0.0 9.25 4.6 4.6 9.25 0.0 15.8 0.0 22.35 0.0 26.95 4.6 31.6 9.25 31.6 15.8 31.6 22.35 26.95 26.95 22.35 31.6 15.8 31.6 9.25 31.6 4.6 26.95 0.0 22.35 0.0 15.8;M-8.6 15.8 Q-8.6 5.7 -1.5 -1.5 5.7 -8.6 15.8 -8.6 25.9 -8.6 33.0 -1.5 40.2 5.7 40.2 15.8 40.2 25.9 33.0 33.0 25.9 40.2 15.8 40.2 5.7 40.2 -1.5 33.0 -8.6 25.9 -8.6 15.8"/>
    </path>
    <path d="M1.4 15.8 Q1.4 9.8 5.6 5.6 9.8 1.4 15.8 1.4 21.8 1.4 26.0 5.6 30.2 9.8 30.2 15.8 30.2 21.8 26.0 26.0 21.8 30.2 15.8 30.2 9.8 30.2 5.6 26.0 1.4 21.8 1.4 15.8 Z" fill="none" stroke="#000000" stroke-linecap="round" stroke-linejoin="round" stroke-opacity="0.0" stroke-width="0.0">
      <animate attributeName="stroke" dur="2s" repeatCount="indefinite" values="#000000;#000001"/>
      <animate attributeName="stroke-width" dur="2s" repeatCount="indefinite" values="0.0;0.0"/>
      <animate attributeName="fill-opacity" dur="2s" repeatCount="indefinite" values="0.0;0.0"/>
      <animate attributeName="d" dur="2s" repeatCount="indefinite" values="M1.4 15.8 Q1.4 9.8 5.6 5.6 9.8 1.4 15.8 1.4 21.8 1.4 26.0 5.6 30.2 9.8 30.2 15.8 30.2 21.8 26.0 26.0 21.8 30.2 15.8 30.2 9.8 30.2 5.6 26.0 1.4 21.8 1.4 15.8 Z;M-6.45 15.8 Q-6.45 6.55 0.05 0.05 6.55 -6.45 15.8 -6.45 25.05 -6.45 31.55 0.05 38.05 6.55 38.05 15.8 38.05 25.05 31.55 31.55 25.05 38.05 15.8 38.05 6.55 38.05 0.05 31.55 -6.45 25.05 -6.45 15.8 Z"/>
    </path>
  </g>
</svg>
