<?xml version="1.0" encoding="UTF-8" standalone="no"?>
<svg xmlns:ffdec="https://www.free-decompiler.com/flash" xmlns:xlink="http://www.w3.org/1999/xlink" ffdec:objectType="frame" height="117.65px" width="117.65px" xmlns="http://www.w3.org/2000/svg">
  <g transform="matrix(1.0, 0.0, 0.0, 1.0, -7.6, -42.4)">
    <clipPath id="clipPath0">
      <path d="M 16.85 44.4 L 16.4 44.41 L 15.97 44.43 L 15.55 44.46 L 15.15 44.51 L 14.76 44.58 L 14.39 44.65 L 14.03 44.75 L 13.68 44.85 L 13.35 44.97 L 13.03 45.11 L 12.72 45.26 L 12.43 45.42 L 12.16 45.6 L 11.89 45.79 L 11.65 45.99 L 11.41 46.21 L 11.19 46.45 L 10.99 46.69 L 10.8 46.96 L 10.62 47.23 L 10.46 47.52 L 10.31 47.83 L 10.17 48.15 L 10.05 48.48 L 9.95 48.83 L 9.85 49.19 L 9.78 49.56 L 9.71 49.95 L 9.66 50.35 L 9.63 50.77 L 9.61 51.2 L 9.6 51.65 L 9.6 150.8 L 9.61 151.25 L 9.63 151.68 L 9.66 152.1 L 9.71 152.5 L 9.78 152.89 L 9.85 153.26 L 9.95 153.62 L 10.05 153.97 L 10.17 154.3 L 10.31 154.62 L 10.46 154.93 L 10.62 155.22 L 10.8 155.49 L 10.99 155.76 L 11.19 156 L 11.41 156.24 L 11.65 156.46 L 11.89 156.66 L 12.16 156.85 L 12.43 157.03 L 12.72 157.19 L 13.03 157.34 L 13.35 157.48 L 13.68 157.6 L 14.03 157.7 L 14.39 157.8 L 14.76 157.87 L 15.15 157.94 L 15.55 157.99 L 15.97 158.02 L 16.4 158.04 L 16.85 158.05 L 116 158.05 L 116.45 158.04 L 116.88 158.02 L 117.3 157.99 L 117.7 157.94 L 118.09 157.87 L 118.46 157.8 L 118.82 157.7 L 119.17 157.6 L 119.5 157.48 L 119.82 157.34 L 120.13 157.19 L 120.42 157.03 L 120.69 156.85 L 120.96 156.66 L 121.2 156.46 L 121.44 156.24 L 121.66 156 L 121.86 155.76 L 122.05 155.49 L 122.23 155.22 L 122.39 154.93 L 122.54 154.62 L 122.68 154.3 L 122.8 153.97 L 122.9 153.62 L 123 153.26 L 123.07 152.89 L 123.14 152.5 L 123.19 152.1 L 123.22 151.68 L 123.24 151.25 L 123.25 150.8 L 123.25 51.65 L 123.24 51.2 L 123.22 50.77 L 123.19 50.35 L 123.14 49.95 L 123.07 49.56 L 123 49.19 L 122.9 48.83 L 122.8 48.48 L 122.68 48.15 L 122.54 47.83 L 122.39 47.52 L 122.23 47.23 L 122.05 46.96 L 121.86 46.69 L 121.66 46.45 L 121.44 46.21 L 121.2 45.99 L 120.96 45.79 L 120.69 45.6 L 120.42 45.42 L 120.13 45.26 L 119.82 45.11 L 119.5 44.97 L 119.17 44.85 L 118.82 44.75 L 118.46 44.65 L 118.09 44.58 L 117.7 44.51 L 117.3 44.46 L 116.88 44.43 L 116.45 44.41 L 116 44.4 Z"/>
    </clipPath>
    <g clip-path="url(#clipPath0)">
      <use ffdec:characterId="1461" height="0.0" id="photoContainer_mc" transform="matrix(1.0, 0.0, 0.0, 1.0, 9.6, 44.4)" width="0.0" xlink:href="#sprite0"/>
    </g>
    <use ffdec:characterId="1462" height="117.65" transform="matrix(1.0, 0.0, 0.0, 1.0, 7.6, 42.4)" width="117.65" xlink:href="#shape0"/>
  </g>
  <defs>
    <g id="shape0" transform="matrix(1.0, 0.0, 0.0, 1.0, -7.6, -42.4)">
      <path d="M116.0 44.4 L16.85 44.4 Q9.6 44.4 9.6 51.65 L9.6 150.8 Q9.6 158.05 16.85 158.05 L116.0 158.05 Q123.25 158.05 123.25 150.8 L123.25 51.65 Q123.25 44.4 116.0 44.4 Z" fill="none" stroke="url(#gradient0)" stroke-linecap="round" stroke-linejoin="round" stroke-width="4.0"/>
      <path d="M114.6 46.0 L18.25 46.0 Q11.2 46.0 11.2 53.05 L11.2 149.45 Q11.2 156.45 18.25 156.45 L114.6 156.45 Q121.65 156.45 121.65 149.45 L121.65 53.05 Q121.65 46.0 114.6 46.0 Z" fill="none" stroke="#4d0362" stroke-linecap="round" stroke-linejoin="round" stroke-width="1.0"/>
      <path d="M113.05 47.8 L19.85 47.8 Q15.95 47.8 14.45 49.3 12.95 50.85 13.0 54.65 L13.0 147.9 Q13.1 151.85 14.45 153.25 15.85 154.65 19.85 154.65 L113.05 154.65 Q117.1 154.65 118.55 153.15 119.9 151.7 119.85 147.9 L119.85 54.65 Q120.05 50.85 118.4 49.2 116.8 47.65 113.05 47.8 Z" fill="none" stroke="#000000" stroke-linecap="round" stroke-linejoin="round" stroke-opacity="0.21960784" stroke-width="3.0"/>
      <path d="M16.85 44.4 Q9.6 44.4 9.6 51.65 L9.6 150.8 Q9.6 158.05 16.85 158.05 L116.0 158.05 Q123.25 158.05 123.25 150.8 L123.25 51.65 Q123.25 44.4 116.0 44.4 L16.85 44.4 Z" fill="none" stroke="#ffffff" stroke-linecap="round" stroke-linejoin="round" stroke-opacity="0.36078432" stroke-width="1.0"/>
    </g>
    <radialGradient cx="0" cy="0" gradientTransform="matrix(0.0938, 0.0, 0.0, 0.0938, 65.25, 97.45)" gradientUnits="userSpaceOnUse" id="gradient0" r="819.2" spreadMethod="pad">
      <stop offset="0.0" stop-color="#4f0464"/>
      <stop offset="0.7686274509803922" stop-color="#7d0c9c"/>
      <stop offset="1.0" stop-color="#ce57ee"/>
    </radialGradient>
  </defs>
</svg>
