<?xml version="1.0" encoding="UTF-8" standalone="no"?>
<svg xmlns:ffdec="https://www.free-decompiler.com/flash" xmlns:xlink="http://www.w3.org/1999/xlink" ffdec:objectType="frame" height="904.35px" width="372.0px" xmlns="http://www.w3.org/2000/svg">
  <g transform="matrix(1.0, 0.0, 0.0, 1.0, 0.0, 0.0)">
    <use ffdec:characterId="2379" height="0.0" id="panelHolder_mc" transform="matrix(0.9763, 0.0, 0.0, 1.0, 0.0, 0.0)" width="0.0" xlink:href="#sprite0"/>
    <use ffdec:characterId="148" height="127.0" transform="matrix(0.516, 0.0, 0.0, 0.252, 246.1, 871.85)" width="244.0" xlink:href="#shape0"/>
    <use ffdec:characterId="3002" height="27.0" transform="matrix(1.0, 0.0, 0.0, 1.0, 252.6, 877.35)" width="110.2" xlink:href="#text0"/>
  </g>
  <defs>
    <g id="shape0" transform="matrix(1.0, 0.0, 0.0, 1.0, 0.0, 0.0)">
      <path d="M244.0 127.0 L0.0 127.0 0.0 0.0 244.0 0.0 244.0 127.0" fill="#66ccff" fill-rule="evenodd" stroke="none"/>
    </g>
    <g id="text0" transform="matrix(1.0, 0.0, 0.0, 1.0, -0.45, 1.65)">
      <g transform="matrix(1.0, 0.0, 0.0, 1.0, 0.0, 0.0)">
        <use fill="#ffffff" height="27.0" transform="matrix(0.0225, 0.0, 0.0, 0.0225, 0.0, 20.0)" width="110.2" xlink:href="#font_Yikes__B0"/>
        <use fill="#ffffff" height="27.0" transform="matrix(0.0225, 0.0, 0.0, 0.0225, 12.25, 20.0)" width="110.2" xlink:href="#font_Yikes__i0"/>
        <use fill="#ffffff" height="27.0" transform="matrix(0.0225, 0.0, 0.0, 0.0225, 17.7, 20.0)" width="110.2" xlink:href="#font_Yikes__n0"/>
        <use fill="#ffffff" height="27.0" transform="matrix(0.0225, 0.0, 0.0, 0.0225, 36.75, 20.0)" width="110.2" xlink:href="#font_Yikes__b0"/>
        <use fill="#ffffff" height="27.0" transform="matrix(0.0225, 0.0, 0.0, 0.0225, 44.8, 20.0)" width="110.2" xlink:href="#font_Yikes__a0"/>
        <use fill="#ffffff" height="27.0" transform="matrix(0.0225, 0.0, 0.0, 0.0225, 57.45, 20.0)" width="110.2" xlink:href="#font_Yikes__d0"/>
        <use fill="#ffffff" height="27.0" transform="matrix(0.0225, 0.0, 0.0, 0.0225, 66.65, 20.0)" width="110.2" xlink:href="#font_Yikes__g0"/>
        <use fill="#ffffff" height="27.0" transform="matrix(0.0225, 0.0, 0.0, 0.0225, 80.15, 20.0)" width="110.2" xlink:href="#font_Yikes__e0"/>
        <use fill="#ffffff" height="27.0" transform="matrix(0.0225, 0.0, 0.0, 0.0225, 89.75, 20.0)" width="110.2" xlink:href="#font_Yikes__s0"/>
      </g>
    </g>
    <g id="font_Yikes__B0">
      <path d="M359.5 -338.5 Q359.5 -306.0 315.0 -257.0 270.0 -213.0 225.5 -168.0 225.5 -224.0 243.0 -406.0 260.5 -414.5 279.0 -414.5 311.5 -414.5 335.5 -391.5 359.5 -368.5 359.5 -338.5 M339.5 -641.0 Q332.0 -594.0 244.0 -509.5 L244.0 -686.5 261.0 -688.0 286.5 -689.5 Q340.5 -689.5 340.5 -651.5 340.5 -647.0 339.5 -641.0 M538.5 -447.0 Q523.0 -514.5 438.0 -514.5 405.5 -514.5 359.5 -503.5 405.5 -548.5 452.0 -592.5 501.0 -648.5 501.0 -708.0 501.0 -748.5 449.5 -771.0 407.0 -790.0 349.5 -790.0 258.5 -790.0 105.5 -705.0 85.5 -528.5 66.0 -351.5 41.5 -147.0 19.5 -53.0 128.5 1.5 159.0 33.5 224.5 1.5 309.0 -56.0 420.0 -130.5 470.5 -191.0 545.0 -282.0 545.0 -391.0 545.0 -420.0 538.5 -447.0" fill-rule="evenodd" stroke="none"/>
    </g>
    <g id="font_Yikes__i0">
      <path d="M236.0 -581.0 Q210.0 -560.0 163.0 -547.0 118.0 -534.0 75.0 -534.0 57.5 -534.0 43.0 -536.5 L42.0 -518.0 Q38.5 -425.0 39.5 -282.0 L41.5 -33.5 Q113.5 -62.0 152.0 -78.5 168.0 -223.5 194.5 -359.5 231.0 -550.5 236.0 -581.0 M260.0 -717.0 Q260.0 -749.5 230.0 -770.0 203.0 -788.5 168.0 -788.5 131.5 -788.5 82.0 -747.0 31.5 -703.5 31.5 -669.0 31.5 -661.5 34.5 -655.0 53.5 -613.0 109.5 -613.0 135.0 -613.0 165.0 -622.0 201.5 -633.0 228.5 -657.0 260.0 -685.0 260.0 -717.0" fill-rule="evenodd" stroke="none"/>
    </g>
    <g id="font_Yikes__n0">
      <path d="M538.5 -543.0 Q538.0 -577.0 505.5 -595.5 480.0 -609.5 446.5 -609.5 436.0 -609.5 428.0 -608.0 398.0 -602.5 333.0 -558.5 262.0 -511.0 231.0 -470.0 237.0 -592.0 234.0 -617.0 210.5 -603.0 125.0 -573.0 89.0 -560.5 44.0 -546.0 63.0 -501.0 67.0 -303.0 69.5 -158.5 71.5 -14.0 163.0 -65.0 210.5 -59.5 210.5 -94.0 213.0 -195.5 215.5 -292.5 214.5 -348.5 236.0 -395.0 273.5 -439.0 315.0 -487.5 340.5 -487.5 369.5 -487.5 369.5 -426.0 369.5 -363.5 326.5 -199.5 278.0 -12.0 271.5 31.5 295.0 14.5 346.0 0.5 371.0 -6.5 438.0 -20.0 L491.0 -235.5 Q540.5 -449.0 538.5 -543.0" fill-rule="evenodd" stroke="none"/>
    </g>
    <g id="font_Yikes__b0">
      <path d="M304.0 -463.5 Q314.0 -454.5 314.0 -399.5 314.0 -304.0 290.0 -216.0 260.5 -110.0 215.0 -112.5 194.5 -113.5 182.5 -151.0 175.0 -171.5 162.5 -238.0 166.0 -268.0 170.0 -300.0 208.0 -392.0 225.0 -421.5 254.5 -475.5 279.5 -475.5 292.0 -475.5 304.0 -463.5 M469.5 -420.0 Q467.5 -479.5 450.5 -527.0 423.5 -599.0 370.5 -599.0 260.5 -599.0 174.0 -460.5 189.0 -579.0 204.5 -697.5 220.5 -807.5 252.5 -870.5 210.0 -846.5 154.0 -839.5 L65.0 -832.5 Q66.0 -789.0 56.0 -526.5 45.0 -242.0 45.0 -97.5 45.0 -36.5 46.5 10.5 86.5 20.5 131.0 7.5 128.0 -19.0 131.0 -74.0 194.5 10.5 234.0 10.5 303.5 10.5 363.0 -80.5 411.5 -153.5 443.5 -266.5 471.5 -364.5 469.5 -420.0" fill-rule="evenodd" stroke="none"/>
    </g>
    <g id="font_Yikes__a0">
      <path d="M389.0 -356.5 Q384.0 -292.5 382.5 -196.0 359.5 -119.0 322.0 -120.5 296.0 -122.0 276.5 -139.0 254.0 -160.0 257.0 -195.0 262.5 -259.0 304.0 -304.5 340.5 -345.0 389.0 -356.5 M532.5 2.0 Q521.5 -75.5 532.0 -258.5 541.0 -426.0 522.0 -514.5 511.0 -565.5 444.0 -605.5 387.0 -640.0 348.0 -640.0 307.5 -640.0 256.5 -609.0 188.0 -567.5 155.0 -490.0 224.0 -475.0 294.0 -442.5 302.5 -489.0 328.5 -528.5 357.5 -571.0 386.0 -570.0 414.5 -569.0 414.5 -524.0 414.5 -503.5 409.0 -473.5 376.5 -433.0 323.0 -399.0 306.0 -388.5 246.0 -357.0 176.0 -320.0 152.0 -290.0 114.0 -242.5 114.0 -153.5 114.0 -103.5 140.5 -57.0 179.0 10.5 257.0 10.5 301.0 10.5 382.5 -56.0 L383.5 22.0 Q450.5 2.0 532.5 2.0" fill-rule="evenodd" stroke="none"/>
    </g>
    <g id="font_Yikes__d0">
      <path d="M267.0 -418.5 Q270.5 -412.0 270.5 -392.5 270.5 -372.0 265.0 -312.5 259.0 -252.5 259.0 -231.0 259.0 -212.5 262.0 -205.0 206.0 -107.0 179.0 -105.5 131.0 -103.0 131.0 -223.5 131.0 -293.5 146.5 -375.0 161.5 -451.5 174.0 -464.0 189.0 -477.5 203.5 -477.5 234.0 -477.5 267.0 -418.5 M546.5 -851.5 Q437.0 -842.0 348.0 -858.0 356.0 -817.0 356.0 -774.0 356.0 -723.0 340.5 -631.5 320.0 -514.0 314.5 -456.0 255.0 -591.5 176.0 -596.0 98.0 -601.0 52.0 -501.0 17.5 -426.0 11.0 -328.0 8.0 -280.0 8.0 -245.0 8.0 10.0 143.5 18.0 222.0 22.5 292.0 -115.0 283.0 1.0 272.5 21.0 290.5 26.5 346.5 24.5 399.5 23.0 420.0 18.0 417.0 -37.5 417.0 -96.0 417.0 -325.5 456.5 -548.5 494.5 -762.5 546.5 -851.5" fill-rule="evenodd" stroke="none"/>
    </g>
    <g id="font_Yikes__g0">
      <path d="M406.5 57.5 Q387.0 109.0 337.5 132.5 313.0 144.0 258.0 153.5 250.5 155.0 243.5 155.0 202.5 155.0 202.5 107.0 202.5 54.0 244.0 -8.0 288.0 -72.5 332.5 -72.5 L360.5 -75.0 Q377.5 -76.5 386.5 -74.0 399.5 -70.5 406.5 -58.0 420.5 -33.0 420.5 -6.0 420.5 19.5 406.5 57.5 M409.0 -508.0 Q429.0 -508.0 429.0 -470.5 429.0 -411.0 313.0 -279.0 307.0 -272.5 302.0 -272.5 281.0 -272.5 281.0 -340.5 281.0 -365.5 285.5 -386.5 292.5 -415.0 338.0 -461.5 383.5 -508.0 409.0 -508.0 M704.0 -570.5 Q671.0 -623.0 636.5 -634.5 632.5 -635.5 628.0 -635.5 604.5 -635.5 579.0 -612.0 555.5 -589.5 527.5 -539.0 464.5 -583.5 415.5 -583.5 345.5 -583.5 247.0 -506.0 139.5 -421.0 139.5 -338.0 139.5 -275.5 177.0 -249.0 210.0 -225.0 279.5 -225.0 357.5 -225.0 417.5 -262.5 455.5 -245.5 455.5 -228.0 455.5 -218.0 442.5 -198.5 425.0 -171.5 419.5 -159.5 276.0 -159.5 152.0 -98.5 35.0 -41.5 35.0 51.0 35.0 61.0 37.0 71.5 54.5 178.5 229.5 196.5 L270.0 198.5 Q386.0 198.5 501.0 129.5 547.0 101.5 579.0 56.5 611.0 11.0 611.0 -27.0 611.0 -66.0 572.5 -108.0 534.0 -150.5 491.0 -158.5 500.5 -190.5 526.0 -213.5 546.5 -232.0 544.0 -242.0 541.0 -255.5 523.5 -274.5 506.0 -294.0 501.5 -318.0 543.0 -351.5 559.0 -382.5 570.5 -405.0 579.0 -454.0 580.0 -458.5 580.0 -463.0 580.0 -493.5 547.0 -523.5 567.0 -555.0 590.0 -560.5 603.0 -546.5 609.5 -526.5 L622.5 -487.0 Q658.0 -543.5 704.0 -570.5" fill-rule="evenodd" stroke="none"/>
    </g>
    <g id="font_Yikes__e0">
      <path d="M330.5 -382.5 Q316.0 -384.5 301.5 -384.5 246.0 -384.5 187.5 -353.0 227.0 -553.0 282.5 -557.5 316.5 -560.0 326.0 -487.0 330.5 -457.0 330.5 -382.5 M426.5 -308.0 Q442.5 -320.5 442.5 -406.0 442.5 -493.0 415.5 -550.5 379.5 -625.0 307.0 -625.0 157.5 -625.0 82.0 -448.0 32.5 -332.0 30.5 -215.0 29.5 -152.0 72.5 -83.0 125.5 3.0 207.0 -1.5 280.0 -5.5 325.5 -29.5 359.5 -48.0 381.0 -80.0 394.5 -104.0 407.0 -128.0 353.5 -162.5 305.0 -215.0 295.0 -186.5 284.5 -158.0 271.0 -132.0 231.5 -132.5 175.5 -134.0 175.5 -243.0 175.5 -253.5 176.0 -266.0 244.0 -311.5 338.0 -311.5 L388.0 -309.5 426.5 -308.0" fill-rule="evenodd" stroke="none"/>
    </g>
    <g id="font_Yikes__s0">
      <path d="M417.0 -418.5 Q415.0 -482.5 369.5 -544.0 326.0 -604.0 286.5 -604.0 212.0 -604.0 148.0 -550.0 80.5 -493.5 81.5 -419.5 82.5 -367.0 120.0 -303.5 137.5 -274.5 191.5 -204.0 230.0 -153.0 231.5 -134.5 233.5 -113.0 231.5 -108.0 227.5 -97.5 209.5 -99.5 156.0 -104.5 130.5 -200.5 17.0 -144.0 20.0 -118.0 71.0 51.0 184.0 51.0 225.5 51.0 283.0 5.0 352.0 -51.0 356.5 -122.5 359.0 -166.0 319.5 -236.0 306.0 -260.5 245.0 -350.0 204.5 -410.5 204.5 -430.0 204.5 -507.5 236.5 -511.0 267.0 -514.5 282.5 -473.0 293.5 -441.5 293.5 -396.5 293.5 -387.0 293.0 -379.5 359.0 -403.5 417.0 -418.5" fill-rule="evenodd" stroke="none"/>
    </g>
  </defs>
</svg>
