<?xml version="1.0" encoding="UTF-8" standalone="no"?>
<svg xmlns:ffdec="https://www.free-decompiler.com/flash" xmlns:xlink="http://www.w3.org/1999/xlink" ffdec:objectType="frame" height="32.8px" width="42.35px" xmlns="http://www.w3.org/2000/svg">
  <g transform="matrix(1.0, 0.0, 0.0, 1.0, 0.5, 2.85)">
    <clipPath id="clipPath0">
      <path d="M -0.5 -2.85 L 0.35 11.35 L 1.87 11.49 L 3.29 11.59 L 4.59 11.65 L 5.8 11.67 L 6.54 11.66 L 7.23 11.64 L 7.88 11.59 L 8.48 11.53 L 9.03 11.45 L 9.53 11.35 L 9.99 11.23 L 10.4 11.1 L 15.65 15.4 L 14.6 15.76 L 13.64 16.08 L 12.75 16.36 L 11.95 16.59 L 11.23 16.77 L 10.59 16.91 L 10.03 17 L 9.55 17.05 L 4.75 17.3 L 0.9 19.9 L 1.5 29.65 L 38.85 29.95 L 40.55 11.35 L 40.6 11.35 L 41.85 -2.15 L -0.5 -2.85 Z"/>
    </clipPath>
    <g clip-path="url(#clipPath0)">
      <use ffdec:characterId="1548" height="23.1" transform="matrix(1.0, 0.0, 0.0, 1.0, 3.3, -1.55)" width="26.6" xlink:href="#shape0"/>
    </g>
    <use ffdec:characterId="1549" height="1.7" transform="matrix(1.0, 0.0, 0.0, 1.0, 10.15, 1.05)" width="12.5" xlink:href="#shape1"/>
  </g>
  <defs>
    <g id="shape0" transform="matrix(1.0, 0.0, 0.0, 1.0, -3.3, 1.55)">
      <path d="M23.8 10.4 Q23.8 7.95 22.7 6.3 21.7 4.6 20.25 4.55 L13.25 4.55 Q11.7 4.6 10.6 6.3 9.55 7.95 9.55 10.4 9.55 12.75 10.6 14.5 11.7 16.15 13.25 16.2 L20.15 16.2 Q21.65 16.15 22.7 14.5 23.8 12.75 23.8 10.4 M29.15 10.4 Q29.15 14.7 26.85 17.75 24.6 20.75 21.4 20.8 L11.9 20.8 Q10.0 20.8 8.4 19.75 7.3 19.0 6.35 17.75 4.05 14.7 4.05 10.4 4.05 6.1 6.35 3.05 8.65 0.0 11.9 0.0 L21.4 0.0 Q24.6 0.05 26.85 3.05 29.15 6.1 29.15 10.4" fill="url(#gradient0)" fill-rule="evenodd" stroke="none"/>
      <path d="M23.8 10.4 Q23.8 12.75 22.7 14.5 21.65 16.15 20.15 16.2 L13.25 16.2 Q11.7 16.15 10.6 14.5 9.55 12.75 9.55 10.4 9.55 7.95 10.6 6.3 11.7 4.6 13.25 4.55 L20.25 4.55 Q21.7 4.6 22.7 6.3 23.8 7.95 23.8 10.4 M29.15 10.4 Q29.15 14.7 26.85 17.75 24.6 20.75 21.4 20.8 L11.9 20.8 Q10.0 20.8 8.4 19.75 7.3 19.0 6.35 17.75 4.05 14.7 4.05 10.4 4.05 6.1 6.35 3.05 8.65 0.0 11.9 0.0 L21.4 0.0 Q24.6 0.05 26.85 3.05 29.15 6.1 29.15 10.4 Z" fill="none" stroke="#515151" stroke-linecap="round" stroke-linejoin="round" stroke-width="1.5"/>
      <path d="M12.5 -1.55 L20.2 -1.55 Q23.65 -1.55 26.3 1.9 28.9 5.05 28.9 9.55 L28.9 9.8 Q28.9 14.3 26.3 17.75 23.65 20.9 20.2 20.9 L12.5 20.9 Q9.0 20.9 6.4 17.75 3.8 14.3 3.8 9.8 L3.8 9.55 Q3.8 5.05 6.4 1.9 9.0 -1.55 12.5 -1.55 M23.65 5.05 Q21.7 3.5 19.1 3.5 L13.9 3.5 Q11.3 3.5 9.55 5.05 7.65 6.9 7.65 9.55 7.65 11.95 9.55 13.8 11.3 15.65 13.9 15.65 L19.1 15.65 Q21.7 15.65 23.65 13.8 25.4 11.95 25.4 9.55 25.4 6.9 23.65 5.05" fill="url(#gradient1)" fill-rule="evenodd" stroke="none"/>
    </g>
    <radialGradient cx="0" cy="0" gradientTransform="matrix(0.0199, 0.0, 0.0, 0.016, 16.1, 10.4)" gradientUnits="userSpaceOnUse" id="gradient0" r="819.2" spreadMethod="pad">
      <stop offset="0.4980392156862745" stop-color="#999999"/>
      <stop offset="0.5803921568627451" stop-color="#c0c0c0"/>
      <stop offset="0.596078431372549" stop-color="#c0c0c0"/>
      <stop offset="0.8666666666666667" stop-color="#4f4f4f"/>
    </radialGradient>
    <radialGradient cx="0" cy="0" gradientTransform="matrix(0.0258, 0.0, 0.0, 0.0212, 16.35, 9.8)" gradientUnits="userSpaceOnUse" id="gradient1" r="819.2" spreadMethod="pad">
      <stop offset="0.4627450980392157" stop-color="#ffffff" stop-opacity="0.0"/>
      <stop offset="0.5098039215686274" stop-color="#ffffff" stop-opacity="0.34901962"/>
      <stop offset="0.5333333333333333" stop-color="#ffffff" stop-opacity="0.0"/>
    </radialGradient>
    <g id="shape1" transform="matrix(1.0, 0.0, 0.0, 1.0, -10.15, -1.05)">
      <path d="M12.2 2.7 L10.3 2.45 Q9.7 2.0 11.75 1.55 L16.8 1.05 21.2 1.55 Q23.15 2.0 22.5 2.45 L20.6 2.7 16.4 2.45 12.2 2.7" fill="#ffffff" fill-opacity="0.65882355" fill-rule="evenodd" stroke="none"/>
    </g>
  </defs>
</svg>
