<?xml version="1.0" encoding="UTF-8" standalone="no"?>
<svg xmlns:ffdec="https://www.free-decompiler.com/flash" xmlns:xlink="http://www.w3.org/1999/xlink" ffdec:objectType="frame" height="123.35px" width="113.1px" xmlns="http://www.w3.org/2000/svg">
  <g transform="matrix(1.0, 0.0, 0.0, 1.0, 56.55, 61.65)">
    <use ffdec:characterId="1797" height="123.35" transform="matrix(1.0, 0.0, 0.0, 1.0, -56.55, -61.65)" width="113.1" xlink:href="#shape0"/>
  </g>
  <defs>
    <g id="shape0" transform="matrix(1.0, 0.0, 0.0, 1.0, 56.55, 61.65)">
      <path d="M32.4 1.25 Q35.15 2.05 35.65 2.45 36.05 2.7 36.85 3.95 L38.1 5.35 39.45 6.0 41.05 6.65 Q43.6 7.3 45.85 11.25 L48.85 14.95 Q51.8 18.25 53.1 20.3 55.8 24.6 55.8 34.95 55.8 38.65 49.45 46.0 43.95 52.3 42.2 53.05 36.55 55.4 16.3 60.35 15.9 60.35 14.35 59.55 12.85 58.8 12.55 58.8 11.85 58.8 9.75 59.85 7.7 60.95 5.6 60.95 L-12.6 59.2 -20.85 58.1 -21.85 58.0 -26.2 57.45 -27.4 57.25 -32.35 56.2 Q-36.3 55.1 -37.2 54.2 L-38.4 52.95 Q-44.65 50.1 -50.45 40.95 -55.8 32.65 -55.8 29.25 -55.8 27.4 -55.2 23.6 -54.7 20.3 -53.55 18.7 L-53.2 18.2 -51.05 13.35 -48.3 10.1 Q-46.45 7.95 -45.15 7.3 L-43.3 6.25 -42.2 5.25 -39.3 1.85 Q-38.85 1.4 -36.1 0.15 -33.5 -1.0 -32.6 -1.65 L-32.85 -2.25 Q-34.9 -4.95 -35.05 -6.75 L-34.9 -10.7 Q-34.9 -11.6 -35.45 -13.9 L-36.05 -16.15 Q-36.05 -18.25 -32.65 -22.1 -30.25 -24.8 -28.55 -26.1 -27.5 -26.85 -23.6 -28.6 L-19.45 -30.25 -19.5 -30.4 -21.4 -34.15 Q-22.2 -36.2 -22.2 -36.85 -22.2 -46.15 -20.45 -48.9 -19.05 -51.2 -10.2 -57.45 L-9.7 -57.75 -5.5 -60.15 Q-3.85 -60.9 1.15 -60.9 L7.15 -59.85 11.65 -58.8 11.85 -58.65 Q18.7 -54.15 22.45 -47.2 L22.95 -44.55 Q23.4 -42.1 23.6 -41.8 L24.85 -39.8 24.95 -38.5 Q24.95 -36.95 23.15 -32.65 L21.3 -28.35 M21.3 -27.2 Q22.2 -27.1 23.35 -26.35 L25.9 -23.6 Q25.15 -23.0 27.05 -22.35 L28.95 -21.75 Q30.6 -20.9 33.1 -16.7 35.45 -12.5 35.45 -10.65 L35.15 -9.95 34.9 -8.9 Q34.9 -8.5 35.55 -7.7 36.25 -7.0 36.25 -6.4 36.25 -5.9 34.45 -2.45 L32.4 1.1 M-19.5 -30.4 L-19.15 -30.25 M-32.85 -2.25 L-32.45 -1.75 -32.6 -1.65 -32.3 -1.3" fill="none" stroke="#653d23" stroke-linecap="round" stroke-linejoin="round" stroke-opacity="0.2" stroke-width="1.5"/>
      <path d="M21.3 -28.35 L20.8 -27.25 21.2 -27.2 21.3 -27.2 M32.4 1.1 L32.3 1.2 32.35 1.2 32.4 1.25 M-19.15 -30.25 L-16.6 -29.15 -11.1 -27.5 -8.85 -28.3 -7.45 -28.3 Q-7.35 -26.75 -5.5 -26.45 L1.45 -26.05 5.95 -26.35 8.05 -26.35 Q16.9 -26.05 20.8 -27.25 L20.75 -27.2 21.2 -27.2 M-32.3 -1.3 Q-28.65 2.95 -22.9 4.55 -16.15 6.4 -15.7 6.85 -13.65 8.95 -8.55 9.6 -2.85 10.05 11.9 9.7 L12.6 9.65 Q17.3 9.25 22.75 6.65 L32.4 1.1" fill="none" stroke="#653d23" stroke-linecap="round" stroke-linejoin="round" stroke-opacity="0.2" stroke-width="5.0"/>
    </g>
  </defs>
</svg>
