<?xml version="1.0" encoding="UTF-8" standalone="no"?>
<svg xmlns:ffdec="https://www.free-decompiler.com/flash" xmlns:xlink="http://www.w3.org/1999/xlink" ffdec:objectType="frame" height="22.05px" width="152.0px" xmlns="http://www.w3.org/2000/svg">
  <g transform="matrix(1.0, 0.0, 0.0, 1.0, 0.0, 0.0)">
    <use ffdec:characterId="137" height="22.05" transform="matrix(1.0, 0.0, 0.0, 1.0, 0.0, 0.0)" width="152.0" xlink:href="#shape0"/>
  </g>
  <defs>
    <g id="shape0" transform="matrix(1.0, 0.0, 0.0, 1.0, 0.0, 0.0)">
      <path d="M152.0 22.05 L151.05 22.05 0.95 22.05 0.0 22.05 0.0 21.05 0.0 0.95 0.0 0.05 0.95 0.05 151.05 0.05 152.0 0.05 152.0 0.95 152.0 21.05 152.0 22.05" fill="#f8f3de" fill-rule="evenodd" stroke="none"/>
      <path d="M152.0 0.0 L152.0 0.95 152.0 21.05 152.0 22.0 151.05 22.0 0.95 22.0 0.0 22.0 0.0 21.05 0.0 0.95 0.0 0.0 0.95 0.0 151.05 0.0 152.0 0.0" fill="#f8f3de" fill-rule="evenodd" stroke="none"/>
      <path d="M151.0 12.0 L1.0 12.0 1.0 1.0 151.0 1.0 151.0 12.0" fill="url(#gradient0)" fill-rule="evenodd" stroke="none"/>
    </g>
    <linearGradient gradientTransform="matrix(0.0, -0.0071, 0.104, 0.0, 63.5, 6.65)" gradientUnits="userSpaceOnUse" id="gradient0" spreadMethod="pad" x1="-819.2" x2="819.2">
      <stop offset="0.0" stop-color="#eeeeee" stop-opacity="0.0"/>
      <stop offset="1.0" stop-color="#ffffff" stop-opacity="0.3019608"/>
    </linearGradient>
  </defs>
</svg>
