<?xml version="1.0" encoding="UTF-8" standalone="no"?>
<svg xmlns:ffdec="https://www.free-decompiler.com/flash" xmlns:xlink="http://www.w3.org/1999/xlink" ffdec:objectType="frame" height="42.2px" width="74.0px" xmlns="http://www.w3.org/2000/svg">
  <g transform="matrix(1.0, 0.0, 0.0, 1.0, -166.6, 7.15)">
    <filter id="filter4">
      <feOffset dx="-0.8452314747976207" dy="1.8126179283046493" in="SourceGraphic" result="filterResult0"/>
      <feColorMatrix in="filterResult0" result="filterResult1" type="matrix" values="0 0 0 0 0.0,0 0 0 0 0.0,0 0 0 0 0.0,0 0 0 1 0"/>
      <feConvolveMatrix divisor="4.0" in="filterResult1" kernelMatrix="1 1 1 1" order="2 2" result="filterResult2"/>
      <feColorMatrix in="filterResult2" result="filterResult3" type="matrix" values="1 0 0 0 0,0 1 0 0 0,0 0 1 0 0,0 0 0 0.296875 0"/>
      <feComposite in="SourceGraphic" in2="filterResult3" operator="over" result="filterResult4"/>
    </filter>
    <use ffdec:characterId="157" filter="url(#filter4)" height="42.2" transform="matrix(1.0, 0.0, 0.0, 1.0, 166.6, -7.15)" width="74.0" xlink:href="#sprite0"/>
  </g>
  <defs>
    <g id="sprite0" transform="matrix(1.0, 0.0, 0.0, 1.0, 35.75, 8.9)">
      <use ffdec:characterId="155" height="28.6" transform="matrix(1.0, 0.0, 0.0, 1.0, -35.75, -1.85)" width="66.5" xlink:href="#shape0"/>
      <use ffdec:characterId="156" height="24.8" transform="matrix(0.9208, 0.3901, -0.3901, 0.9208, -7.4099, -8.8785)" width="49.6" xlink:href="#text0"/>
    </g>
    <g id="shape0" transform="matrix(1.0, 0.0, 0.0, 1.0, 35.75, 1.85)">
      <path d="M27.75 8.25 L30.5 8.25 30.75 26.75 27.75 26.75 27.75 8.25" fill="#9a8b1d" fill-rule="evenodd" stroke="none"/>
      <path d="M30.75 26.4 L-35.75 -1.85 7.3 -1.85 30.75 8.15 30.75 26.4" fill="url(#gradient0)" fill-rule="evenodd" stroke="none"/>
    </g>
    <linearGradient gradientTransform="matrix(-0.0022, 0.0053, -0.0158, -0.0067, -4.0, -1.35)" gradientUnits="userSpaceOnUse" id="gradient0" spreadMethod="pad" x1="-819.2" x2="819.2">
      <stop offset="0.0" stop-color="#ffff93"/>
      <stop offset="1.0" stop-color="#ffff00"/>
    </linearGradient>
    <g id="text0" transform="matrix(1.0, 0.0, 0.0, 1.0, -47.2, 2.0)">
      <g transform="matrix(1.0, 0.0, 0.0, 1.0, 47.2, -2.0)">
        <use fill="#000000" height="24.8" transform="matrix(0.0127, 0.0, 0.0, 0.0127, 9.95, 14.3)" width="49.6" xlink:href="#font_GosmickSansBold_N0"/>
        <use fill="#000000" height="24.8" transform="matrix(0.0127, 0.0, 0.0, 0.0127, 18.2, 14.3)" width="49.6" xlink:href="#font_GosmickSansBold_E0"/>
        <use fill="#000000" height="24.8" transform="matrix(0.0127, 0.0, 0.0, 0.0127, 25.25, 14.3)" width="49.6" xlink:href="#font_GosmickSansBold_W0"/>
        <use fill="#000000" height="24.8" transform="matrix(0.0127, 0.0, 0.0, 0.0127, 37.2, 14.3)" width="49.6" xlink:href="#font_GosmickSansBold__0"/>
      </g>
    </g>
    <g id="font_GosmickSansBold_N0">
      <path d="M623.5 -102.5 L623.5 -100.5 Q623.5 -82.0 614.5 -66.0 613.5 -46.5 599.0 -34.5 584.5 -22.5 565.5 -16.5 547.0 -10.5 527.5 -9.5 508.0 -8.5 497.5 -11.5 489.5 -11.5 480.0 -16.5 464.0 -32.0 441.5 -60.0 419.0 -88.5 392.0 -124.5 365.5 -161.0 336.5 -204.0 307.5 -247.0 278.0 -292.0 249.0 -337.0 221.0 -382.0 192.5 -427.0 167.0 -468.0 L166.0 -468.0 166.0 -469.0 Q164.0 -448.5 164.0 -424.0 L164.0 -381.0 164.0 -260.5 Q164.0 -207.0 165.5 -169.5 167.0 -132.5 170.0 -105.5 172.0 -88.5 164.5 -68.5 157.0 -48.5 144.5 -31.5 132.0 -14.5 117.0 -3.0 101.5 9.0 88.0 9.0 64.5 9.0 48.0 -7.5 32.0 -24.0 32.0 -47.5 L32.0 -56.5 Q32.0 -64.5 33.0 -72.0 35.0 -105.5 37.5 -171.5 40.0 -238.0 40.0 -319.5 40.0 -379.0 39.5 -423.0 L38.5 -500.5 37.5 -559.5 Q37.0 -585.0 36.0 -607.5 36.0 -615.5 35.5 -623.5 35.0 -631.0 35.0 -639.0 35.0 -659.5 48.5 -676.5 61.5 -693.5 86.0 -700.5 102.5 -706.0 119.5 -705.0 136.5 -704.5 154.0 -695.0 171.0 -685.5 189.5 -664.0 208.0 -642.5 229.5 -605.5 260.0 -551.0 295.0 -495.0 330.0 -438.5 364.0 -386.5 398.5 -334.0 430.5 -288.5 463.0 -243.0 490.5 -210.0 489.5 -220.5 489.0 -234.5 488.5 -249.0 488.5 -274.5 L488.5 -343.5 Q488.5 -428.0 487.5 -501.5 486.5 -574.5 480.5 -643.5 478.5 -660.5 488.5 -675.0 498.5 -689.5 514.0 -699.0 529.5 -709.0 547.0 -712.5 564.5 -716.0 578.5 -712.0 601.0 -711.0 612.5 -694.5 623.5 -678.0 623.5 -638.0 623.5 -609.5 622.5 -573.5 621.5 -538.0 619.5 -499.0 617.5 -456.0 616.5 -409.0 615.5 -361.5 615.5 -322.0 L615.5 -275.5 Q615.5 -224.5 617.5 -181.5 619.5 -138.5 623.5 -102.5" fill-rule="evenodd" stroke="none"/>
    </g>
    <g id="font_GosmickSansBold_E0">
      <path d="M530.5 -94.0 L529.5 -96.0 Q537.5 -68.5 523.0 -48.0 508.0 -27.5 474.0 -14.0 440.5 -1.0 390.0 6.0 340.0 12.5 277.5 12.5 226.5 12.5 189.5 9.5 152.5 6.5 128.0 -3.5 103.5 -13.0 89.0 -32.5 75.0 -52.0 67.5 -85.0 60.5 -117.5 58.5 -166.5 56.5 -215.0 56.5 -283.5 L56.5 -318.5 Q56.5 -323.5 56.0 -327.5 55.5 -331.5 55.5 -337.0 L55.5 -356.5 Q55.5 -384.0 57.5 -410.0 L61.5 -463.0 65.5 -506.0 Q67.5 -526.5 67.5 -544.0 68.5 -566.5 61.5 -579.5 54.5 -593.0 46.0 -602.0 40.0 -610.5 36.0 -618.5 31.5 -627.0 29.5 -636.0 28.5 -652.5 31.5 -662.5 35.0 -673.0 41.0 -678.5 47.0 -684.0 57.5 -687.0 67.5 -690.5 82.0 -692.5 84.0 -692.5 92.0 -694.5 L114.0 -698.5 127.0 -700.5 Q146.5 -704.5 172.5 -708.0 198.5 -712.0 227.5 -714.5 L286.0 -718.5 Q316.5 -720.0 346.0 -720.0 L364.5 -720.0 Q429.0 -720.0 463.5 -711.0 497.5 -701.5 500.5 -668.0 L500.5 -669.0 Q503.0 -654.5 494.0 -637.5 485.5 -620.5 469.0 -611.5 454.5 -600.0 430.5 -598.0 406.5 -596.0 381.0 -597.0 L369.5 -597.5 358.5 -598.0 327.5 -598.0 Q312.5 -598.0 294.5 -597.5 L259.0 -595.5 Q241.5 -594.0 226.0 -591.5 210.0 -589.0 199.5 -584.0 197.5 -569.5 194.5 -542.5 191.5 -515.0 191.5 -486.5 191.5 -470.0 192.5 -454.0 193.5 -438.5 196.5 -424.0 L240.5 -428.0 290.0 -432.0 Q328.5 -436.5 364.0 -438.5 L421.0 -440.5 Q450.5 -440.5 465.5 -428.5 480.5 -417.0 482.5 -397.5 484.5 -377.0 467.5 -357.0 450.5 -337.0 424.0 -327.5 L406.5 -327.5 Q391.0 -322.5 374.5 -321.0 L340.0 -318.5 243.0 -313.5 Q208.0 -311.5 193.5 -301.0 192.5 -296.0 192.5 -286.5 L192.5 -271.5 Q192.5 -225.0 195.0 -183.5 197.5 -141.5 201.5 -121.0 210.0 -114.5 227.0 -112.0 243.5 -109.5 268.5 -109.5 316.5 -110.5 365.0 -115.5 413.5 -121.0 466.0 -133.0 L464.0 -132.0 Q472.0 -134.0 479.0 -134.0 502.0 -134.0 514.0 -123.5 526.5 -112.5 530.5 -94.0" fill-rule="evenodd" stroke="none"/>
    </g>
    <g id="font_GosmickSansBold_W0">
      <path d="M919.5 -672.0 L918.5 -673.0 Q921.5 -660.5 915.0 -635.5 908.5 -610.5 900.0 -585.0 L900.0 -586.0 896.0 -572.0 892.0 -557.0 Q890.0 -550.0 888.5 -546.5 887.0 -543.0 887.0 -545.0 876.5 -502.0 865.5 -459.5 854.0 -416.5 843.0 -373.5 832.5 -336.0 823.0 -298.5 813.0 -261.0 804.0 -223.0 801.0 -211.5 797.5 -199.5 788.5 -163.5 777.0 -126.5 766.0 -89.0 750.0 -58.0 734.0 -27.5 713.0 -8.0 692.0 11.5 664.5 11.5 640.0 11.5 623.5 0.5 607.0 -10.5 594.0 -34.0 580.5 -57.5 568.0 -96.0 555.0 -134.5 538.5 -188.5 L526.0 -236.5 512.0 -287.0 Q504.0 -314.5 498.5 -335.0 493.5 -355.5 488.5 -374.0 483.5 -392.5 477.0 -412.5 471.0 -432.5 462.0 -460.0 452.5 -429.0 440.5 -371.0 424.0 -301.0 405.0 -236.0 386.0 -171.0 369.5 -118.0 365.5 -106.5 363.0 -98.5 360.5 -90.5 358.5 -79.0 359.5 -77.0 359.0 -75.5 358.5 -74.0 358.5 -72.0 347.0 -36.0 321.0 -14.0 295.0 8.0 264.0 8.0 208.0 8.0 185.5 -53.5 161.0 -121.0 137.0 -212.0 113.5 -303.0 89.0 -396.5 80.0 -434.0 69.0 -476.0 L49.0 -555.0 Q47.0 -561.0 45.5 -567.0 L42.0 -580.5 43.0 -579.5 Q37.0 -608.0 24.5 -633.5 L24.5 -651.0 Q25.5 -653.0 24.5 -653.0 L25.5 -655.0 25.5 -661.5 Q29.5 -666.0 34.0 -670.5 41.0 -679.0 56.5 -693.5 71.5 -708.5 88.0 -710.5 L87.0 -710.5 Q101.5 -712.5 122.5 -704.0 143.5 -695.0 156.5 -671.5 164.0 -657.5 171.0 -635.0 178.0 -612.0 185.5 -584.5 192.5 -557.0 199.5 -525.0 207.0 -493.5 214.0 -461.5 L226.0 -408.5 236.5 -357.5 Q242.5 -331.5 248.5 -307.0 254.0 -282.5 259.5 -262.5 265.0 -242.5 269.5 -229.0 273.5 -215.0 275.5 -212.0 285.5 -241.5 296.5 -282.0 307.0 -322.5 317.5 -368.0 L337.5 -460.0 Q347.0 -507.0 354.5 -547.5 367.5 -580.5 383.0 -609.5 398.5 -639.0 414.0 -661.0 430.0 -683.0 446.5 -695.5 463.0 -708.5 479.0 -708.5 495.5 -708.5 509.0 -695.5 522.0 -683.0 533.0 -662.5 543.5 -642.0 552.0 -616.0 560.0 -589.5 567.5 -563.0 569.5 -556.0 571.5 -546.0 573.5 -536.5 577.5 -522.0 L597.0 -447.5 620.5 -357.5 Q633.0 -311.0 645.0 -267.5 657.5 -224.0 668.5 -193.5 673.0 -204.5 676.5 -220.0 680.0 -235.5 685.0 -255.0 701.5 -319.5 713.0 -371.0 L735.0 -467.0 Q749.5 -528.5 761.5 -578.5 773.0 -628.5 785.5 -671.5 806.0 -692.0 829.0 -706.0 852.0 -720.0 869.5 -720.0 890.0 -720.0 902.5 -706.5 915.5 -693.5 919.5 -672.0" fill-rule="evenodd" stroke="none"/>
    </g>
    <g id="font_GosmickSansBold__0">
      <path d="M179.0 -83.0 L179.0 -81.0 179.0 -65.5 Q179.0 -51.0 173.0 -34.0 167.0 -16.5 151.5 -2.0 136.0 12.5 106.5 11.5 71.5 10.0 47.0 -15.5 22.5 -41.0 19.5 -77.0 17.5 -109.5 39.5 -132.0 61.5 -154.5 94.0 -154.5 127.0 -154.5 149.5 -133.5 172.0 -112.5 179.0 -83.0 M176.0 -665.5 Q168.0 -592.0 163.5 -514.5 158.5 -437.0 158.5 -360.5 158.5 -347.0 159.0 -334.5 159.5 -321.5 159.5 -308.0 161.0 -276.5 157.5 -258.5 154.5 -240.5 147.5 -230.0 140.5 -219.0 128.0 -212.5 L97.5 -196.5 Q61.5 -188.5 44.0 -206.5 26.5 -224.0 27.5 -271.5 28.5 -312.5 30.0 -356.5 L33.0 -442.0 Q34.0 -483.5 34.5 -520.0 35.0 -557.0 35.0 -584.5 35.0 -613.5 33.5 -635.0 31.5 -656.5 29.5 -674.0 27.5 -689.0 35.0 -702.5 42.0 -715.5 54.5 -726.0 66.5 -736.0 82.5 -742.0 98.5 -747.5 114.5 -747.5 145.5 -747.5 163.0 -723.5 180.0 -699.5 176.0 -665.5" fill-rule="evenodd" stroke="none"/>
    </g>
  </defs>
</svg>
