<?xml version="1.0" encoding="UTF-8" standalone="no"?>
<svg xmlns:ffdec="https://www.free-decompiler.com/flash" xmlns:xlink="http://www.w3.org/1999/xlink" ffdec:objectType="frame" height="140.45px" width="224.35px" xmlns="http://www.w3.org/2000/svg">
  <g transform="matrix(1.0, 0.0, 0.0, 1.0, 198.15, 158.9)">
    <use ffdec:characterId="325" height="140.45" transform="matrix(1.0, 0.0, 0.0, 1.0, -198.15, -158.9)" width="224.35" xlink:href="#shape0"/>
  </g>
  <defs>
    <g id="shape0" transform="matrix(1.0, 0.0, 0.0, 1.0, 198.15, 158.9)">
      <path d="M-8.45 -38.75 Q25.35 -58.3 25.35 -85.85 25.35 -113.4 -8.45 -132.9 M-154.9 -79.55 Q-154.65 -85.45 -149.25 -91.8 -143.5 -98.6 -135.45 -101.4 -125.95 -104.8 -118.7 -106.1 -109.45 -107.8 -99.1 -107.3 -86.4 -106.65 -77.2 -103.9 -66.1 -100.55 -60.7 -94.25 -54.2 -86.6 -56.35 -79.65 -58.3 -73.25 -66.7 -69.05 -74.9 -64.9 -86.05 -64.25 -97.75 -63.6 -108.5 -67.2 -114.85 -69.3 -117.05 -74.2 -119.15 -78.75 -116.85 -83.4" fill="none" stroke="#ffde72" stroke-linecap="butt" stroke-linejoin="miter-clip" stroke-miterlimit="10.0" stroke-opacity="0.5411765" stroke-width="1.7000000000000002"/>
      <path d="M-197.05 -71.95 L-196.55 -71.95 M-8.45 -132.9 Q-15.6 -137.05 -24.3 -140.5" fill="none" stroke="#ffde72" stroke-linecap="butt" stroke-linejoin="miter-clip" stroke-miterlimit="10.0" stroke-opacity="0.5411765" stroke-width="1.7000000000000002"/>
      <path d="M-196.55 -71.95 Q-197.7 -77.0 -197.05 -81.6 -195.7 -91.25 -189.85 -98.65 -183.4 -106.9 -170.85 -113.15 -139.9 -128.6 -107.4 -128.6 -70.4 -128.6 -44.1 -115.5 -32.95 -109.95 -25.85 -101.75 -17.5 -92.05 -17.95 -81.6 -18.1 -76.95 -21.1 -71.5 -24.35 -65.55 -29.8 -61.05 -38.7 -53.7 -50.4 -49.45 L-37.55 -26.35 Q-61.2 -19.3 -89.9 -19.3 -134.95 -19.3 -167.95 -37.15 L-168.3 -37.4 -170.95 -38.8 Q-182.05 -45.3 -189.85 -57.15 -194.95 -64.95 -196.55 -71.95 L-154.15 -72.4 Q-152.5 -66.25 -147.5 -60.55 -135.35 -46.8 -107.7 -44.5 -85.8 -42.7 -70.4 -44.75 -59.55 -46.15 -50.4 -49.45" fill="none" stroke="#ffde72" stroke-linecap="round" stroke-linejoin="miter-clip" stroke-miterlimit="10.0" stroke-opacity="0.5411765" stroke-width="1.7000000000000002"/>
      <path d="M-37.55 -26.35 Q-21.9 -31.0 -8.45 -38.75 M-24.3 -140.5 L-44.55 -116.15 M-154.15 -72.4 Q-155.1 -75.9 -154.9 -79.55 M-24.3 -140.5 Q-66.9 -157.45 -146.25 -158.05" fill="none" stroke="#ffde72" stroke-linecap="round" stroke-linejoin="miter-clip" stroke-miterlimit="10.0" stroke-opacity="0.5411765" stroke-width="1.7000000000000002"/>
    </g>
  </defs>
</svg>
