<?xml version="1.0" encoding="UTF-8" standalone="no"?>
<svg xmlns:ffdec="https://www.free-decompiler.com/flash" xmlns:xlink="http://www.w3.org/1999/xlink" ffdec:objectType="frame" height="42.8px" width="29.75px" xmlns="http://www.w3.org/2000/svg">
  <g transform="matrix(1.0, 0.0, 0.0, 1.0, 0.0, 0.0)">
    <use ffdec:characterId="490" height="42.8" transform="matrix(1.0, 0.0, 0.0, 1.0, 0.0, 0.0)" width="29.75" xlink:href="#shape0"/>
  </g>
  <defs>
    <g id="shape0" transform="matrix(1.0, 0.0, 0.0, 1.0, 0.0, 0.0)">
      <path d="M3.75 0.65 L4.0 5.85 4.4 20.95 4.5 37.2 0.75 42.3 0.55 21.05 0.0 5.75 3.75 0.65" fill="#ab0404" fill-rule="evenodd" stroke="none"/>
      <path d="M4.5 37.2 L4.4 20.95 4.0 5.85 3.75 0.65 17.3 0.0 Q17.05 10.6 17.55 20.7 L17.9 26.6 29.75 26.2 Q28.9 31.9 29.05 37.55 L4.5 37.2" fill="url(#gradient0)" fill-rule="evenodd" stroke="none"/>
      <path d="M4.5 37.2 L29.05 37.55 25.3 42.65 0.75 42.3 4.5 37.2" fill="#790000" fill-rule="evenodd" stroke="none"/>
      <path d="M3.75 0.65 L4.0 5.85 4.4 20.95 4.5 37.2 29.05 37.55 M0.75 42.3 L4.5 37.2" fill="none" stroke="url(#gradient1)" stroke-linecap="round" stroke-linejoin="round" stroke-width="1.0"/>
    </g>
    <linearGradient gradientTransform="matrix(0.0, 0.0231, -0.024, 0.0, -267.75, 18.95)" gradientUnits="userSpaceOnUse" id="gradient0" spreadMethod="pad" x1="-819.2" x2="819.2">
      <stop offset="0.0" stop-color="#ff452e"/>
      <stop offset="1.0" stop-color="#e00a0a"/>
    </linearGradient>
    <radialGradient cx="0" cy="0" gradientTransform="matrix(0.0226, 0.0, 0.0, 0.0089, 9.75, 34.75)" gradientUnits="userSpaceOnUse" id="gradient1" r="819.2" spreadMethod="pad">
      <stop offset="0.12941176470588237" stop-color="#ffe48e" stop-opacity="0.4"/>
      <stop offset="1.0" stop-color="#ffe983" stop-opacity="0.0"/>
    </radialGradient>
  </defs>
</svg>
