<?xml version="1.0" encoding="UTF-8" standalone="no"?>
<svg xmlns:ffdec="https://www.free-decompiler.com/flash" xmlns:xlink="http://www.w3.org/1999/xlink" ffdec:objectType="frame" height="17.0px" width="3.05px" xmlns="http://www.w3.org/2000/svg">
  <g transform="matrix(1.0, 0.0, 0.0, 1.0, 1.5, 4.2)">
    <use ffdec:characterId="1103" height="17.0" transform="matrix(1.0, 0.0, 0.0, 1.0, -1.5, -4.2)" width="3.05" xlink:href="#shape0"/>
  </g>
  <defs>
    <g id="shape0" transform="matrix(1.0, 0.0, 0.0, 1.0, 1.5, 4.2)">
      <path d="M-1.25 -3.95 L-1.05 -4.15 -0.7 -4.2 0.95 -3.85 1.45 -3.5 1.55 -3.0 1.55 12.2 1.5 12.6 Q1.3 12.6 1.2 12.75 L0.0 11.05 0.05 -1.95 -1.25 -3.95" fill="#ffffff" fill-opacity="0.5019608" fill-rule="evenodd" stroke="none"/>
      <path d="M-1.25 -3.95 L0.05 -1.95 0.0 11.05 1.2 12.75 0.75 12.8 -0.8 12.4 -1.25 12.1 -1.5 11.55 -1.5 -3.6 -1.3 -3.9 -1.25 -3.95" fill="#1c0600" fill-opacity="0.5019608" fill-rule="evenodd" stroke="none"/>
      <path d="M0.05 10.85 L0.05 -2.15" fill="none" stroke="#4f3939" stroke-linecap="round" stroke-linejoin="round" stroke-width="1.7000000000000002"/>
      <path d="M-0.1 11.05 L-0.05 -1.35" ffdec:has-small-stroke="true" ffdec:original-stroke-width="0.8" fill="none" stroke="#c4b7b7" stroke-linecap="round" stroke-linejoin="round" stroke-width="1.0"/>
      <path d="M0.25 11.15 L0.25 -1.35" ffdec:has-small-stroke="true" ffdec:original-stroke-width="0.3" fill="none" stroke="#f7f5f5" stroke-linecap="round" stroke-linejoin="round" stroke-width="1.0"/>
    </g>
  </defs>
</svg>
