<?xml version="1.0" encoding="UTF-8" standalone="no"?>
<svg xmlns:ffdec="https://www.free-decompiler.com/flash" xmlns:xlink="http://www.w3.org/1999/xlink" ffdec:objectType="frame" height="134.9px" width="198.05px" xmlns="http://www.w3.org/2000/svg">
  <g transform="matrix(1.0, 0.0, 0.0, 1.0, 101.6, 59.7)">
    <clipPath id="clipPath0">
      <path d="M -49.55 -56.8 L -50 -56.79 L -50.43 -56.77 L -50.85 -56.74 L -51.25 -56.69 L -51.64 -56.62 L -52.01 -56.55 L -52.37 -56.45 L -52.72 -56.35 L -53.05 -56.23 L -53.37 -56.09 L -53.68 -55.94 L -53.97 -55.78 L -54.24 -55.6 L -54.51 -55.41 L -54.75 -55.21 L -54.99 -54.99 L -55.21 -54.75 L -55.41 -54.51 L -55.6 -54.24 L -55.78 -53.97 L -55.94 -53.68 L -56.09 -53.37 L -56.23 -53.05 L -56.35 -52.72 L -56.45 -52.37 L -56.55 -52.01 L -56.62 -51.64 L -56.69 -51.25 L -56.74 -50.85 L -56.77 -50.43 L -56.79 -50 L -56.8 -49.55 L -56.8 49.6 L -56.79 50.05 L -56.77 50.48 L -56.74 50.9 L -56.69 51.3 L -56.62 51.69 L -56.55 52.06 L -56.45 52.42 L -56.35 52.77 L -56.23 53.1 L -56.09 53.42 L -55.94 53.73 L -55.78 54.02 L -55.6 54.29 L -55.41 54.56 L -55.21 54.8 L -54.99 55.04 L -54.75 55.26 L -54.51 55.46 L -54.24 55.65 L -53.97 55.83 L -53.68 55.99 L -53.37 56.14 L -53.05 56.28 L -52.72 56.4 L -52.37 56.5 L -52.01 56.6 L -51.64 56.67 L -51.25 56.74 L -50.85 56.79 L -50.43 56.82 L -50 56.84 L -49.55 56.85 L 49.6 56.85 L 50.05 56.84 L 50.48 56.82 L 50.9 56.79 L 51.3 56.74 L 51.69 56.67 L 52.06 56.6 L 52.42 56.5 L 52.77 56.4 L 53.1 56.28 L 53.42 56.14 L 53.73 55.99 L 54.02 55.83 L 54.29 55.65 L 54.56 55.46 L 54.8 55.26 L 55.04 55.04 L 55.26 54.8 L 55.46 54.56 L 55.65 54.29 L 55.83 54.02 L 55.99 53.73 L 56.14 53.42 L 56.28 53.1 L 56.4 52.77 L 56.5 52.42 L 56.6 52.06 L 56.67 51.69 L 56.74 51.3 L 56.79 50.9 L 56.82 50.48 L 56.84 50.05 L 56.85 49.6 L 56.85 -49.55 L 56.84 -50 L 56.82 -50.43 L 56.79 -50.85 L 56.74 -51.25 L 56.67 -51.64 L 56.6 -52.01 L 56.5 -52.37 L 56.4 -52.72 L 56.28 -53.05 L 56.14 -53.37 L 55.99 -53.68 L 55.83 -53.97 L 55.65 -54.24 L 55.46 -54.51 L 55.26 -54.75 L 55.04 -54.99 L 54.8 -55.21 L 54.56 -55.41 L 54.29 -55.6 L 54.02 -55.78 L 53.73 -55.94 L 53.42 -56.09 L 53.1 -56.23 L 52.77 -56.35 L 52.42 -56.45 L 52.06 -56.55 L 51.69 -56.62 L 51.3 -56.69 L 50.9 -56.74 L 50.48 -56.77 L 50.05 -56.79 L 49.6 -56.8 Z"/>
    </clipPath>
    <g clip-path="url(#clipPath0)">
      <use ffdec:characterId="1452" height="582.75" transform="matrix(0.2, 0.0, 0.0, 0.2, -101.6, -59.7)" width="990.35" xlink:href="#shape0"/>
      <use ffdec:characterId="1454" height="96.2" transform="matrix(0.1677, -0.0205, 0.0322, 0.2628, -29.5, -20.75)" width="490.5" xlink:href="#sprite0"/>
      <use ffdec:characterId="1456" height="265.05" transform="matrix(0.1347, -0.003, 0.0075, 0.3338, -79.3189, -13.2634)" width="1088.8" xlink:href="#sprite1"/>
    </g>
  </g>
  <defs>
    <g id="shape0" transform="matrix(1.0, 0.0, 0.0, 1.0, 0.0, 0.0)">
      <path d="M990.35 582.75 L0.0 582.75 0.0 0.0 990.35 0.0 990.35 582.75" fill="url(#gradient0)" fill-rule="evenodd" stroke="none"/>
    </g>
    <linearGradient gradientTransform="matrix(0.0085, 0.1281, -0.9976, 0.0663, 803.35, 217.85)" gradientUnits="userSpaceOnUse" id="gradient0" spreadMethod="pad" x1="-819.2" x2="819.2">
      <stop offset="0.0" stop-color="#46bdee"/>
      <stop offset="1.0" stop-color="#e2f6ff"/>
    </linearGradient>
    <g id="sprite0" transform="matrix(1.0, 0.0, 0.0, 1.0, 0.0, 0.0)">
      <use ffdec:characterId="1453" height="96.2" transform="matrix(1.0, 0.0, 0.0, 1.0, 0.0, 0.0)" width="490.5" xlink:href="#shape1"/>
    </g>
    <g id="shape1" transform="matrix(1.0, 0.0, 0.0, 1.0, 0.0, 0.0)">
      <path d="M481.6 20.25 Q502.2 32.75 475.05 48.65 493.1 56.0 480.15 66.7 493.45 79.25 482.55 87.9 471.45 96.55 441.15 96.2 410.85 95.8 361.7 90.9 282.35 86.65 68.55 63.8 -15.85 35.4 3.7 36.0 36.95 21.15 145.45 44.95 253.8 68.75 255.65 51.4 231.0 30.8 288.85 28.65 274.65 16.15 306.2 10.45 337.7 4.65 363.35 9.3 364.95 -4.15 412.95 1.8 460.95 7.8 481.6 20.25" fill="url(#gradient1)" fill-rule="evenodd" stroke="none"/>
    </g>
    <radialGradient cx="0" cy="0" fx="-12.8" fy="0" gradientTransform="matrix(0.0085, 0.0528, -0.2817, -0.0172, 293.7, 18.9)" gradientUnits="userSpaceOnUse" id="gradient1" r="819.2" spreadMethod="pad">
      <stop offset="0.6627450980392157" stop-color="#ffffff"/>
      <stop offset="0.807843137254902" stop-color="#e2f7ff"/>
    </radialGradient>
    <g id="sprite1" transform="matrix(1.0, 0.0, 0.0, 1.0, 537.45, 364.4)">
      <use ffdec:characterId="1455" height="265.05" transform="matrix(1.0, 0.0, 0.0, 1.0, -537.45, -364.4)" width="1088.8" xlink:href="#shape2"/>
    </g>
    <g id="shape2" transform="matrix(1.0, 0.0, 0.0, 1.0, 537.45, 364.4)">
      <path d="M550.95 -327.8 L538.2 -99.35 -537.4 -109.1 -524.95 -333.35 Q-412.5 -347.9 -298.05 -354.95 -179.5 -362.25 -60.65 -363.75 59.75 -365.3 179.7 -359.65 299.85 -354.0 418.9 -341.95 L550.95 -327.8" fill="url(#gradient2)" fill-rule="evenodd" stroke="none"/>
      <path d="M544.6 -213.85 L538.25 -99.35 -537.4 -109.1 -531.6 -213.85 544.6 -213.85" fill="url(#gradient3)" fill-rule="evenodd" stroke="none"/>
      <path d="M201.9 -359.8 L270.6 -356.6 344.0 -352.25 415.3 -347.2 487.65 -341.2 542.75 -336.05 551.35 -335.2 538.25 -99.35 -537.45 -109.1 -524.8 -335.75 -461.85 -342.45 -388.1 -349.6 -308.2 -355.4 -234.3 -359.5 -160.05 -362.3 Q-123.65 -363.45 -87.15 -363.95 L-16.35 -364.4 Q20.8 -364.45 57.75 -363.95 95.35 -363.45 132.8 -362.1 L201.9 -359.8" fill="url(#gradient4)" fill-rule="evenodd" stroke="none"/>
    </g>
    <radialGradient cx="0" cy="0" gradientTransform="matrix(5.1941, 0.0, 0.0, 0.9391, 95.85, 128.5)" gradientUnits="userSpaceOnUse" id="gradient2" r="819.2" spreadMethod="pad">
      <stop offset="0.5019607843137255" stop-color="#8ce720"/>
      <stop offset="0.5843137254901961" stop-color="#bfee77"/>
    </radialGradient>
    <linearGradient gradientTransform="matrix(-9.0E-4, 0.8209, -1.0279, -5.0E-4, -36.9, 79.95)" gradientUnits="userSpaceOnUse" id="gradient3" spreadMethod="pad" x1="-819.2" x2="819.2">
      <stop offset="0.2823529411764706" stop-color="#69b500" stop-opacity="0.0"/>
      <stop offset="0.43137254901960786" stop-color="#69b500"/>
    </linearGradient>
    <radialGradient cx="0" cy="0" gradientTransform="matrix(5.1941, 0.0, 0.0, 0.9391, 69.8, 128.5)" gradientUnits="userSpaceOnUse" id="gradient4" r="819.2" spreadMethod="pad">
      <stop offset="0.28627450980392155" stop-color="#508a00"/>
      <stop offset="0.5019607843137255" stop-color="#6ac400"/>
      <stop offset="0.5843137254901961" stop-color="#9fee25"/>
    </radialGradient>
  </defs>
</svg>
