<?xml version="1.0" encoding="UTF-8" standalone="no"?>
<svg xmlns:ffdec="https://www.free-decompiler.com/flash" xmlns:xlink="http://www.w3.org/1999/xlink" ffdec:objectType="frame" height="89.15px" width="77.7px" xmlns="http://www.w3.org/2000/svg">
  <g transform="matrix(1.0, 0.0, 0.0, 1.0, 1.1, -5.5)">
    <use ffdec:characterId="199" height="89.15" transform="matrix(1.0, 0.0, 0.0, 1.0, -1.1, 5.5)" width="77.7" xlink:href="#shape0"/>
  </g>
  <defs>
    <g id="shape0" transform="matrix(1.0, 0.0, 0.0, 1.0, 1.1, -5.5)">
      <path d="M51.45 14.95 Q56.4 15.55 60.65 16.5 68.15 18.35 69.75 20.7 70.15 21.25 70.15 21.85 L70.5 21.85 71.85 25.35 Q72.8 28.7 72.55 31.15 72.4 33.9 67.05 36.05 L63.55 83.15 Q63.4 84.7 61.5 86.1 59.6 87.35 55.95 88.4 52.5 89.45 48.6 89.95 L42.2 90.55 37.7 90.65 29.65 90.3 Q23.95 89.8 19.35 88.4 16.15 87.5 14.35 86.35 11.9 84.9 11.85 83.15 L8.2 36.05 Q4.3 34.55 3.15 32.65 2.7 31.9 3.1 29.5 3.5 27.1 4.15 24.85 4.75 22.6 6.2 20.1 9.8 17.8 14.25 16.7 18.65 15.55 23.85 14.95 24.5 13.15 25.65 12.15 28.5 9.65 36.85 9.5 L38.45 9.5 Q46.8 9.65 49.65 12.15 50.75 13.15 51.45 14.95 L37.6 14.2 23.85 14.95" fill="none" stroke="#5b4c44" stroke-linecap="round" stroke-linejoin="round" stroke-width="8.0"/>
      <path d="M66.65 41.6 L63.75 42.55 62.3 42.9 Q56.45 44.45 49.3 45.15 L42.4 45.55 37.6 45.6 28.8 45.35 Q19.9 44.75 12.9 42.9 L11.7 42.55 8.65 41.6 8.2 36.05 12.9 37.55 Q23.15 40.25 37.6 40.25 52.05 40.25 62.3 37.55 L67.05 36.05 66.65 41.6" fill="url(#gradient0)" fill-rule="evenodd" stroke="none"/>
      <path d="M2.7 29.65 L2.7 29.9 Q2.7 30.65 3.15 31.4 4.3 33.3 8.2 34.8 L12.9 36.3 Q23.15 39.0 37.6 39.0 52.05 39.0 62.3 36.3 L67.05 34.8 Q72.4 32.65 72.55 29.9 L72.6 29.45 72.55 31.15 Q72.4 33.9 67.05 36.05 L62.3 37.55 Q52.05 40.25 37.6 40.25 23.15 40.25 12.9 37.55 L8.2 36.05 Q4.3 34.55 3.15 32.65 2.7 31.9 2.7 31.15 L2.7 29.65" fill="url(#gradient1)" fill-rule="evenodd" stroke="none"/>
      <path d="M70.15 22.3 L70.15 22.05 70.15 21.85 70.5 21.85 71.85 25.35 Q72.5 27.6 72.6 29.45 L72.55 29.9 Q72.4 32.65 67.05 34.8 L62.3 36.3 Q52.05 39.0 37.6 39.0 23.15 39.0 12.9 36.3 L8.2 34.8 Q4.3 33.3 3.15 31.4 2.7 30.65 2.7 29.9 L2.7 29.65 Q2.8 27.7 3.45 25.35 4.25 22.6 5.35 21.0 L5.05 21.85 5.05 22.05 5.1 22.3 Q5.25 24.15 8.9 25.75 11.05 26.7 14.55 27.5 24.1 29.8 37.6 29.8 51.05 29.8 60.65 27.5 64.1 26.7 66.35 25.75 69.95 24.2 70.15 22.3" fill="url(#gradient2)" fill-rule="evenodd" stroke="none"/>
      <path d="M70.15 22.3 Q69.95 24.2 66.35 25.75 64.1 26.7 60.65 27.5 51.05 29.8 37.6 29.8 24.1 29.8 14.55 27.5 11.05 26.7 8.9 25.75 5.25 24.15 5.1 22.3 5.3 23.95 8.9 25.4 11.05 26.25 14.55 26.95 24.1 29.05 37.6 29.05 51.05 29.05 60.65 26.95 64.1 26.25 66.35 25.4 69.9 24.0 70.15 22.3" fill="#e7f0f4" fill-rule="evenodd" stroke="none"/>
      <path d="M11.75 82.0 Q11.95 83.7 14.35 85.1 16.15 86.25 19.35 87.15 23.95 88.55 29.65 89.05 L37.7 89.4 42.2 89.3 48.6 88.7 Q52.5 88.2 55.95 87.15 59.6 86.1 61.5 84.85 63.4 83.45 63.65 81.9 L63.55 83.15 Q63.4 84.7 61.5 86.1 59.6 87.35 55.95 88.4 52.5 89.45 48.6 89.95 L42.2 90.55 37.7 90.65 29.65 90.3 Q23.95 89.8 19.35 88.4 16.15 87.5 14.35 86.35 11.9 84.9 11.85 83.15 L11.75 82.0" fill="url(#gradient3)" fill-rule="evenodd" stroke="none"/>
      <path d="M70.15 21.85 L70.15 22.05 70.15 22.3 Q69.9 24.0 66.35 25.4 64.1 26.25 60.65 26.95 51.05 29.05 37.6 29.05 24.1 29.05 14.55 26.95 11.05 26.25 8.9 25.4 5.3 23.95 5.1 22.3 L5.05 22.05 5.05 21.85 5.35 21.0 5.5 20.8 5.8 20.4 6.65 19.85 6.8 19.7 7.2 19.45 Q9.6 18.15 14.55 17.0 24.1 14.95 37.6 14.95 51.05 14.95 60.65 17.0 68.15 18.7 69.75 20.8 L70.15 21.65 70.15 21.85" fill="url(#gradient4)" fill-rule="evenodd" stroke="none"/>
      <path d="M70.15 21.65 L69.75 20.8 Q68.15 18.7 60.65 17.0 51.05 14.95 37.6 14.95 24.1 14.95 14.55 17.0 9.6 18.15 7.2 19.45 L6.8 19.7 6.65 19.85 5.8 20.4 5.5 20.8 5.5 20.7 5.8 20.25 6.65 19.6 6.8 19.45 7.2 19.2 Q9.6 17.75 14.55 16.5 24.1 14.2 37.6 14.2 51.05 14.2 60.65 16.5 68.15 18.35 69.75 20.7 L70.15 21.65" fill="#f8fbfc" fill-rule="evenodd" stroke="none"/>
      <path d="M8.65 41.6 L11.7 42.55 12.9 42.9 Q19.9 44.75 28.8 45.35 L37.6 45.6 42.4 45.55 49.3 45.15 Q56.45 44.45 62.3 42.9 L63.75 42.55 66.65 41.6 63.65 81.9 Q63.4 83.45 61.5 84.85 59.6 86.1 55.95 87.15 52.5 88.2 48.6 88.7 L42.2 89.3 37.7 89.4 29.65 89.05 Q23.95 88.55 19.35 87.15 16.15 86.25 14.35 85.1 11.95 83.7 11.75 82.0 L11.75 81.9 8.65 41.6" fill="url(#gradient5)" fill-rule="evenodd" stroke="none"/>
      <path d="M44.85 20.55 Q52.3 21.05 52.3 22.0 51.85 24.0 45.0 24.15 L30.25 24.15 Q23.4 24.0 22.95 22.0 22.95 21.05 30.4 20.55 L44.85 20.55" fill="#b4c2c6" fill-rule="evenodd" stroke="none"/>
      <path d="M44.9 22.7 L44.55 22.25 44.45 21.8 44.45 21.7 44.4 20.85 44.4 20.65 Q44.25 18.95 43.9 18.0 43.2 16.35 37.55 16.35 32.05 16.35 31.4 18.0 31.0 18.95 30.9 20.65 L30.9 20.85 30.85 21.7 30.8 21.7 30.8 21.8 30.65 22.25 30.4 22.7 29.9 20.65 29.95 19.8 Q30.1 17.85 30.5 16.8 31.25 15.05 37.5 15.05 43.95 15.05 44.7 16.8 45.15 17.85 45.3 19.8 L45.4 20.65 44.9 22.7" fill="#89959a" fill-rule="evenodd" stroke="none"/>
      <path d="M30.4 22.7 L30.1 22.95 29.85 23.1 28.95 23.45 26.6 23.7 25.75 23.65 25.75 23.1 25.75 23.0 Q25.95 17.2 28.0 15.35 30.35 13.25 37.2 13.1 L38.5 13.1 Q45.35 13.25 47.65 15.35 49.3 16.85 49.8 20.95 L49.95 23.0 49.95 23.1 49.95 23.55 48.7 23.7 48.45 23.7 Q46.4 23.65 45.4 23.1 L44.9 22.7 45.4 20.65 45.3 19.8 Q45.15 17.85 44.7 16.8 43.95 15.05 37.5 15.05 31.25 15.05 30.5 16.8 30.1 17.85 29.95 19.8 L29.9 20.65 30.4 22.7" fill="url(#gradient6)" fill-rule="evenodd" stroke="none"/>
      <path d="M22.85 21.85 L22.85 21.6 Q23.0 14.4 25.65 12.15 28.5 9.65 36.85 9.5 L38.45 9.5 Q46.8 9.65 49.65 12.15 52.05 14.25 52.4 20.65 L52.4 21.6 52.4 21.9 52.15 19.8 Q51.6 15.15 49.2 13.35 46.45 11.2 38.4 11.1 L36.85 11.1 Q28.8 11.2 26.05 13.35 23.65 15.15 23.1 19.85 L22.85 21.85" fill="#e7f0f4" fill-rule="evenodd" stroke="none"/>
      <path d="M25.75 23.65 L24.05 23.2 23.3 22.7 23.15 22.55 23.0 22.35 22.85 21.85 23.1 19.85 Q23.65 15.15 26.05 13.35 28.8 11.2 36.85 11.1 L38.4 11.1 Q46.45 11.2 49.2 13.35 51.6 15.15 52.15 19.8 L52.4 21.9 52.25 22.35 52.15 22.55 52.0 22.7 51.25 23.2 49.95 23.55 49.95 23.1 49.95 23.0 49.8 20.95 Q49.3 16.85 47.65 15.35 45.35 13.25 38.5 13.1 L37.2 13.1 Q30.35 13.25 28.0 15.35 25.95 17.2 25.75 23.0 L25.75 23.1 25.75 23.65" fill="#c8d2d6" fill-rule="evenodd" stroke="none"/>
      <path d="M20.75 82.5 L21.0 82.15 Q21.8 81.05 21.7 79.45 L20.55 53.1 Q20.5 51.55 19.6 50.4 18.65 49.3 17.45 49.3 L16.6 49.45 Q17.4 48.6 18.45 48.6 19.65 48.6 20.6 49.75 21.5 50.85 21.55 52.45 L22.7 78.8 Q22.8 80.35 22.0 81.5 L20.75 82.5" fill="#79868b" fill-rule="evenodd" stroke="none"/>
      <path d="M16.6 49.45 L17.45 49.3 Q18.65 49.3 19.6 50.4 20.5 51.55 20.55 53.1 L21.7 79.45 Q21.8 81.05 21.0 82.15 L20.75 82.5 19.95 82.6 Q18.7 82.6 17.75 81.5 16.85 80.35 16.75 78.8 L15.6 52.45 Q15.55 50.85 16.35 49.75 L16.6 49.45" fill="#8d999f" fill-rule="evenodd" stroke="none"/>
      <path d="M54.85 49.35 L55.35 49.3 Q56.6 49.3 57.45 50.4 58.25 51.55 58.2 53.1 L57.05 79.45 Q56.95 81.05 56.05 82.15 L55.7 82.6 55.1 82.6 Q53.9 82.6 53.05 81.5 52.25 80.35 52.35 78.8 L53.5 52.45 Q53.55 50.85 54.45 49.75 L54.85 49.35" fill="#95a1a6" fill-rule="evenodd" stroke="none"/>
      <path d="M54.85 49.35 Q55.65 48.6 56.6 48.6 57.85 48.6 58.7 49.75 59.5 50.85 59.45 52.45 L58.3 78.8 Q58.2 80.35 57.3 81.5 56.6 82.35 55.7 82.6 L56.05 82.15 Q56.95 81.05 57.05 79.45 L58.2 53.1 Q58.25 51.55 57.45 50.4 56.6 49.3 55.35 49.3 L54.85 49.35" fill="#848e93" fill-rule="evenodd" stroke="none"/>
      <path d="M37.8 84.4 L37.2 84.4 Q35.45 84.4 34.2 83.3 32.95 82.15 32.95 80.6 L32.95 54.25 Q32.95 52.65 34.2 51.55 L35.15 50.9 35.7 50.85 Q37.45 50.85 38.7 52.0 39.95 53.1 39.95 54.7 L39.95 81.05 Q39.95 82.6 38.7 83.75 L37.8 84.4" fill="#95a1a6" fill-rule="evenodd" stroke="none"/>
      <path d="M35.15 50.9 Q36.05 50.4 37.2 50.4 38.95 50.4 40.2 51.55 41.45 52.65 41.45 54.25 L41.45 80.6 Q41.45 82.15 40.2 83.3 39.15 84.25 37.8 84.4 L38.7 83.75 Q39.95 82.6 39.95 81.05 L39.95 54.7 Q39.95 53.1 38.7 52.0 37.45 50.85 35.7 50.85 L35.15 50.9" fill="#848e93" fill-rule="evenodd" stroke="none"/>
    </g>
    <radialGradient cx="0" cy="0" gradientTransform="matrix(0.0354, 0.0, 0.0, 0.0446, 41.8, 49.25)" gradientUnits="userSpaceOnUse" id="gradient0" r="819.2" spreadMethod="pad">
      <stop offset="0.4" stop-color="#829095"/>
      <stop offset="1.0" stop-color="#657177"/>
    </radialGradient>
    <radialGradient cx="0" cy="0" gradientTransform="matrix(0.0403, 0.0, 0.0, 0.0157, 39.55, 27.5)" gradientUnits="userSpaceOnUse" id="gradient1" r="819.2" spreadMethod="pad">
      <stop offset="0.43137254901960786" stop-color="#86949b"/>
      <stop offset="1.0" stop-color="#7f8d95"/>
    </radialGradient>
    <radialGradient cx="0" cy="0" gradientTransform="matrix(0.04, 0.0, 0.0, 0.0165, 39.55, 26.75)" gradientUnits="userSpaceOnUse" id="gradient2" r="819.2" spreadMethod="pad">
      <stop offset="0.43137254901960786" stop-color="#c1cacc"/>
      <stop offset="1.0" stop-color="#9eadb0"/>
    </radialGradient>
    <radialGradient cx="0" cy="0" gradientTransform="matrix(0.0351, 0.0, 0.0, 0.0392, 39.05, 64.8)" gradientUnits="userSpaceOnUse" id="gradient3" r="819.2" spreadMethod="pad">
      <stop offset="0.4" stop-color="#7f8d93"/>
      <stop offset="1.0" stop-color="#7f8b90"/>
    </radialGradient>
    <radialGradient cx="0" cy="0" gradientTransform="matrix(0.0493, 0.0, 0.0, 0.0145, 49.05, 18.0)" gradientUnits="userSpaceOnUse" id="gradient4" r="819.2" spreadMethod="pad">
      <stop offset="0.4" stop-color="#e1eaec"/>
      <stop offset="1.0" stop-color="#d6dfe1"/>
    </radialGradient>
    <radialGradient cx="0" cy="0" gradientTransform="matrix(0.0351, 0.0, 0.0, 0.0464, 41.8, 49.5)" gradientUnits="userSpaceOnUse" id="gradient5" r="819.2" spreadMethod="pad">
      <stop offset="0.43137254901960786" stop-color="#b3b8be"/>
      <stop offset="1.0" stop-color="#97a3a8"/>
    </radialGradient>
    <radialGradient cx="0" cy="0" gradientTransform="matrix(0.0169, 0.0, 0.0, 0.0169, 38.55, 11.5)" gradientUnits="userSpaceOnUse" id="gradient6" r="819.2" spreadMethod="pad">
      <stop offset="0.4117647058823529" stop-color="#b0bcc0"/>
      <stop offset="1.0" stop-color="#9eadb0"/>
    </radialGradient>
  </defs>
</svg>
