<?xml version="1.0" encoding="UTF-8" standalone="no"?>
<svg xmlns:ffdec="https://www.free-decompiler.com/flash" xmlns:xlink="http://www.w3.org/1999/xlink" ffdec:objectType="frame" height="20.8px" width="33.0px" xmlns="http://www.w3.org/2000/svg">
  <g transform="matrix(1.0, 0.0, 0.0, 1.0, -4.2, 9.85)">
    <use ffdec:characterId="2682" height="20.8" id="pageNum_txt" transform="matrix(1.0, 0.0, 0.0, 1.0, 4.2, -9.85)" width="33.0" xlink:href="#text0"/>
  </g>
  <defs>
    <g id="text0" transform="matrix(1.0, 0.0, 0.0, 1.0, -49.5, 2.0)">
      <g transform="matrix(1.0, 0.0, 0.0, 1.0, 49.5, -2.0)">
        <use fill="#276955" height="20.8" transform="matrix(0.0117, 0.0, 0.0, 0.0117, 0.0, 13.35)" width="33.0" xlink:href="#font_GosmickSansBold_60"/>
        <use fill="#276955" height="20.8" transform="matrix(0.0117, 0.0, 0.0, 0.0117, 6.8, 13.35)" width="33.0" xlink:href="#font_GosmickSansBold__0"/>
        <use fill="#276955" height="20.8" transform="matrix(0.0117, 0.0, 0.0, 0.0117, 12.05, 13.35)" width="33.0" xlink:href="#font_GosmickSansBold_80"/>
      </g>
    </g>
    <g id="font_GosmickSansBold_60">
      <path d="M422.0 -221.5 Q422.0 -289.0 386.5 -325.0 351.0 -361.5 290.5 -361.5 242.5 -361.5 209.5 -333.5 176.0 -305.0 176.0 -255.0 176.0 -222.5 185.5 -194.5 195.5 -167.0 213.5 -146.5 231.5 -126.0 255.5 -114.5 279.5 -102.5 308.0 -102.5 360.5 -102.5 391.0 -136.5 422.0 -170.0 422.0 -221.5 M556.0 -221.0 Q550.5 -171.0 530.0 -127.5 509.5 -84.0 477.0 -51.5 444.0 -19.5 399.5 -1.0 355.0 17.5 303.0 17.5 238.5 17.5 187.5 -7.0 137.0 -31.5 102.0 -75.5 67.5 -119.5 49.0 -180.0 30.5 -240.5 30.5 -313.0 30.5 -374.5 45.0 -433.5 59.0 -492.5 88.0 -541.5 116.5 -591.0 159.5 -627.5 202.5 -664.5 260.0 -682.0 277.5 -687.0 303.5 -693.5 329.5 -700.5 355.5 -706.0 381.5 -711.5 403.0 -714.5 424.5 -717.5 433.0 -715.5 469.0 -717.5 485.0 -705.5 501.5 -693.0 501.5 -674.5 501.5 -652.0 459.0 -624.5 416.5 -597.0 325.5 -583.5 293.5 -572.5 270.5 -561.0 247.5 -550.0 231.0 -534.5 215.0 -519.0 204.0 -498.5 193.5 -478.0 186.0 -447.5 217.0 -466.0 247.0 -471.0 277.5 -476.0 304.0 -476.0 L323.5 -476.0 338.5 -475.0 Q390.0 -473.0 432.5 -452.5 475.0 -432.0 504.0 -398.0 533.5 -364.5 547.0 -319.5 561.0 -274.5 556.0 -221.0" fill-rule="evenodd" stroke="none"/>
    </g>
    <g id="font_GosmickSansBold__0">
      <path d="M430.0 -700.5 L429.0 -694.5 Q427.0 -691.0 426.0 -687.5 425.0 -684.0 423.0 -681.0 L423.0 -682.0 Q396.5 -637.0 362.0 -557.0 327.5 -477.0 284.5 -375.0 L284.5 -376.0 Q264.0 -326.5 243.5 -278.0 223.0 -229.5 203.0 -180.0 197.5 -168.0 193.5 -155.5 189.5 -143.5 184.5 -132.0 174.0 -104.5 164.0 -80.5 153.5 -56.5 141.5 -38.5 129.0 -20.5 113.0 -9.5 97.5 1.0 75.0 1.0 67.5 1.0 59.0 -3.0 50.0 -7.0 42.5 -14.5 35.0 -21.5 30.0 -31.5 25.5 -41.0 27.5 -52.0 33.0 -57.5 35.0 -63.0 L41.0 -81.0 47.0 -94.0 47.0 -93.0 Q83.0 -171.0 119.0 -259.5 L189.5 -436.0 Q204.0 -471.0 217.5 -506.5 L244.5 -573.5 Q250.0 -583.5 253.0 -593.5 256.0 -603.0 260.0 -613.5 L278.5 -658.0 Q287.5 -680.0 300.5 -698.0 313.5 -716.0 329.5 -726.5 346.0 -737.5 368.5 -739.5 379.0 -741.5 389.5 -739.5 400.5 -737.5 409.5 -731.5 419.0 -726.0 424.5 -718.0 430.0 -709.5 430.0 -700.5" fill-rule="evenodd" stroke="none"/>
    </g>
    <g id="font_GosmickSansBold_80">
      <path d="M357.5 -525.5 Q357.5 -564.5 332.0 -587.0 306.0 -609.5 267.5 -609.5 221.0 -609.5 195.5 -583.0 170.0 -556.0 170.0 -516.5 171.0 -482.5 196.0 -461.0 221.0 -439.5 264.0 -437.5 307.0 -439.5 332.5 -464.0 357.5 -488.5 357.5 -525.5 M413.5 -204.5 Q413.5 -236.0 402.0 -258.5 390.0 -280.5 370.0 -294.0 350.0 -308.0 324.0 -313.5 298.0 -319.0 269.5 -318.0 247.0 -318.0 227.5 -309.5 208.0 -300.5 193.0 -287.0 178.0 -273.0 169.5 -255.5 161.0 -238.5 161.0 -220.0 161.0 -193.0 170.5 -170.5 180.0 -148.0 197.5 -132.0 215.0 -115.5 238.5 -106.5 262.0 -98.0 289.0 -98.0 344.0 -98.0 379.0 -127.0 413.5 -156.5 413.5 -204.5 M547.0 -209.0 Q547.0 -164.0 527.5 -123.0 508.0 -82.0 473.0 -50.5 438.5 -19.5 390.0 -1.0 342.0 17.5 285.5 17.5 234.5 17.5 189.5 3.0 144.5 -11.0 110.0 -38.5 76.0 -65.5 54.5 -103.5 33.0 -141.5 29.5 -189.5 27.5 -244.5 49.5 -292.5 71.5 -340.0 118.0 -368.5 79.0 -403.5 62.5 -437.0 46.0 -470.0 47.0 -519.5 49.0 -562.5 69.0 -598.5 89.0 -635.0 121.5 -661.5 153.5 -688.5 196.0 -703.0 238.5 -718.0 285.5 -718.0 329.5 -718.0 368.5 -703.5 407.5 -689.5 435.5 -663.0 464.0 -637.0 478.5 -601.5 493.5 -566.5 491.5 -523.5 486.5 -475.0 466.0 -448.0 445.5 -421.0 419.0 -398.5 L421.0 -397.5 Q422.0 -397.5 424.0 -396.5 L422.0 -397.5 Q460.0 -386.0 484.0 -358.0 508.0 -330.0 521.5 -299.0 535.5 -268.5 541.0 -242.0 547.0 -216.0 547.0 -209.0" fill-rule="evenodd" stroke="none"/>
    </g>
  </defs>
</svg>
