<?xml version="1.0" encoding="UTF-8" standalone="no"?>
<svg xmlns:ffdec="https://www.free-decompiler.com/flash" xmlns:xlink="http://www.w3.org/1999/xlink" ffdec:objectType="frame" height="140.0px" width="240.55px" xmlns="http://www.w3.org/2000/svg">
  <g transform="matrix(1.0, 0.0, 0.0, 1.0, 0.25, 140.0)">
    <filter id="filter0">
      <feColorMatrix in="SourceGraphic" result="filterResult0" type="matrix" values="0 0 0 0 0.3254902,0 0 0 0 0.7764706,0 0 0 0 0.3137255,0 0 0 1 0"/>
      <feConvolveMatrix divisor="4.0" in="filterResult0" kernelMatrix="1 1 1 1" order="2 2" result="filterResult1"/>
      <feConvolveMatrix divisor="4.0" in="filterResult1" kernelMatrix="1 1 1 1" order="2 2" result="filterResult2"/>
      <feComposite in="SourceGraphic" in2="filterResult2" operator="over" result="filterResult3"/>
      <feOffset dx="4.3217335835636105E-5" dy="3.9999999997665325" in="filterResult3" result="filterResult4"/>
      <feColorMatrix in="filterResult4" result="filterResult5" type="matrix" values="0 0 0 0 0.0,0 0 0 0 0.0,0 0 0 0 0.0,0 0 0 1 0"/>
      <feConvolveMatrix divisor="4.0" in="filterResult5" kernelMatrix="1 1 1 1" order="2 2" result="filterResult6"/>
      <feConvolveMatrix divisor="4.0" in="filterResult6" kernelMatrix="1 1 1 1" order="2 2" result="filterResult7"/>
      <feColorMatrix in="filterResult7" result="filterResult8" type="matrix" values="1 0 0 0 0,0 1 0 0 0,0 0 1 0 0,0 0 0 0.19921875 0"/>
      <feComposite in="filterResult3" in2="filterResult8" operator="over" result="filterResult9"/>
      <feColorMatrix in="filterResult9" result="filterResult10" type="matrix" values="-1.0360205 1.2152654 0.8207551 0.0 -0.0627451 0.5495994 0.48812577 -0.03772522 0.0 -0.062745094 -0.10967953 2.2289953 -1.1193157 0.0 -0.0627451 0.0 0.0 0.0 1.0 0.0"/>
    </filter>
    <use ffdec:characterId="172" filter="url(#filter0)" height="328.7" transform="matrix(0.4773, 0.0, 0.0, 0.4259, -0.2743, -140.0)" width="504.05" xlink:href="#sprite0"/>
  </g>
  <defs>
    <g id="sprite0" transform="matrix(1.0, 0.0, 0.0, 1.0, -100.1, 0.0)">
      <use ffdec:characterId="171" height="328.7" transform="matrix(1.0, 0.0, 0.0, 1.0, 100.1, 0.0)" width="504.05" xlink:href="#shape0"/>
    </g>
    <g id="shape0" transform="matrix(1.0, 0.0, 0.0, 1.0, -100.1, 0.0)">
      <path d="M120.1 0.0 L584.15 0.0 Q604.15 0.0 604.15 20.0 L604.15 308.7 Q604.15 328.7 584.15 328.7 L120.1 328.7 Q100.1 328.7 100.1 308.7 L100.1 20.0 Q100.1 18.4 100.25 16.95 101.7 0.0 120.1 0.0" fill="#9ad79a" fill-rule="evenodd" stroke="none"/>
    </g>
  </defs>
</svg>
