<?xml version="1.0" encoding="UTF-8" standalone="no"?>
<svg xmlns:ffdec="https://www.free-decompiler.com/flash" xmlns:xlink="http://www.w3.org/1999/xlink" ffdec:objectType="frame" height="49.15px" width="67.75px" xmlns="http://www.w3.org/2000/svg">
  <g transform="matrix(1.0, 0.0, 0.0, 1.0, 39.1, 23.45)">
    <use ffdec:characterId="1557" height="11.2" transform="matrix(0.7009, -0.547, 0.547, 0.7009, -15.284, -13.5066)" width="15.8" xlink:href="#sprite0"/>
    <use ffdec:characterId="1546" height="11.85" transform="matrix(0.3531, 0.0701, -0.0701, 0.3531, -20.7622, -13.1174)" width="34.8" xlink:href="#sprite1"/>
    <use ffdec:characterId="1546" height="11.85" transform="matrix(0.3846, -0.1532, 0.1532, 0.3846, 3.3466, -13.5235)" width="34.8" xlink:href="#sprite3"/>
    <use ffdec:characterId="1546" height="11.85" transform="matrix(0.2877, -0.2067, 0.2602, 0.3621, -24.2609, 11.2335)" width="34.8" xlink:href="#sprite4"/>
    <use ffdec:characterId="1553" height="32.05" transform="matrix(1.1125, 0.0, 0.0, 1.1125, -24.885, -19.7731)" width="41.0" xlink:href="#sprite5"/>
  </g>
  <defs>
    <g id="sprite0" transform="matrix(1.0, 0.0, 0.0, 1.0, 24.8, 6.95)">
      <use ffdec:characterId="1556" height="11.2" transform="matrix(1.0, 0.0, 0.0, 1.0, -24.8, -6.95)" width="15.8" xlink:href="#shape0"/>
    </g>
    <g id="shape0" transform="matrix(1.0, 0.0, 0.0, 1.0, 24.8, 6.95)">
      <path d="M-17.0 -5.95 Q-19.7 -5.95 -21.65 -4.05 -23.55 -2.1 -23.8 0.6 L-23.8 3.1 -21.15 2.85 -21.15 1.85 Q-21.15 -0.3 -19.9 -1.8 -18.75 -3.3 -16.95 -3.3 -15.2 -3.3 -14.0 -1.8 -12.75 -0.3 -12.75 1.85 L-12.75 2.65 Q-11.4 3.7 -10.0 2.65 L-10.2 0.6 Q-10.45 -2.1 -12.4 -4.05 -14.3 -5.95 -17.0 -5.95 Z" fill="none" stroke="#3f3f3f" stroke-linecap="round" stroke-linejoin="round" stroke-width="2.0"/>
      <path d="M-17.0 -5.95 Q-14.3 -5.95 -12.4 -4.05 -10.45 -2.1 -10.2 0.6 L-10.0 2.65 Q-11.4 3.7 -12.75 2.65 L-12.75 1.85 Q-12.75 -0.3 -14.0 -1.8 -15.2 -3.3 -16.95 -3.3 -18.75 -3.3 -19.9 -1.8 -21.15 -0.3 -21.15 1.85 L-21.15 2.85 -23.8 3.1 -23.8 0.6 Q-23.55 -2.1 -21.65 -4.05 -19.7 -5.95 -17.0 -5.95" fill="#cccccc" fill-rule="evenodd" stroke="none"/>
    </g>
    <g id="sprite1" transform="matrix(1.0, 0.0, 0.0, 1.0, 0.75, 0.75)">
      <use ffdec:characterId="1543" height="11.85" transform="matrix(1.0, 0.0, 0.0, 1.0, -0.75, -0.75)" width="34.8" xlink:href="#shape1"/>
      <use ffdec:characterId="1545" height="2.0" transform="matrix(1.0, 0.0, 0.0, 1.0, 6.65, 6.35)" width="19.4" xlink:href="#sprite2"/>
      <use ffdec:characterId="1545" height="2.0" transform="matrix(0.75, 0.0, 0.0, 0.75, 9.25, 1.45)" width="19.4" xlink:href="#sprite2"/>
    </g>
    <g id="shape1" transform="matrix(1.0, 0.0, 0.0, 1.0, 0.75, 0.75)">
      <path d="M23.0 10.35 L10.5 10.35 10.4 10.35 Q6.1 10.35 3.05 8.85 0.0 7.35 0.0 5.2 0.0 3.05 3.05 1.55 5.5 0.3 8.75 0.05 L10.4 0.0 10.5 0.0 23.0 0.0 24.95 0.1 Q27.95 0.4 30.25 1.55 33.3 3.05 33.3 5.2 33.3 7.35 30.25 8.85 27.25 10.35 23.0 10.35 M7.9 5.0 L11.45 5.55 22.15 5.55 25.6 5.0 24.95 4.75 22.15 4.4 11.45 4.4 8.75 4.7 7.9 5.0 7.25 4.7 6.75 4.4 7.25 4.7 7.9 5.0 M26.85 4.25 L26.2 4.7 25.6 5.0 26.2 4.7 26.85 4.25" fill="url(#gradient0)" fill-rule="evenodd" stroke="none"/>
      <path d="M7.9 5.0 L7.25 4.7 6.75 4.4 M25.6 5.0 L26.2 4.7 26.85 4.25" ffdec:has-small-stroke="true" ffdec:original-stroke-width="1.0" fill="none" stroke="#666666" stroke-linecap="round" stroke-linejoin="round" stroke-width="2.77812093310226"/>
      <path d="M23.0 10.35 L10.5 10.35 10.4 10.35 Q6.1 10.35 3.05 8.85 0.0 7.35 0.0 5.2 0.0 3.05 3.05 1.55 5.5 0.3 8.75 0.05 L10.4 0.0 10.5 0.0 23.0 0.0 24.95 0.1 Q27.95 0.4 30.25 1.55 33.3 3.05 33.3 5.2 33.3 7.35 30.25 8.85 27.25 10.35 23.0 10.35 M25.6 5.0 L22.15 5.55 11.45 5.55 7.9 5.0 8.75 4.7 11.45 4.4 22.15 4.4 24.95 4.75 25.6 5.0 Z" ffdec:has-small-stroke="true" ffdec:original-stroke-width="1.5" fill="none" stroke="#3f3f3f" stroke-linecap="round" stroke-linejoin="round" stroke-width="2.77812093310226"/>
      <path d="M12.1 -0.3 L21.3 -0.3 Q25.45 -0.3 28.6 0.95 31.7 2.1 31.7 3.7 L31.7 3.8 Q31.7 5.45 28.6 6.7 25.45 7.8 21.3 7.8 L12.1 7.8 Q7.95 7.8 4.8 6.7 1.7 5.45 1.7 3.8 L1.7 3.7 Q1.7 2.1 4.8 0.95 7.95 -0.3 12.1 -0.3 M25.45 2.1 L20.0 1.55 13.75 1.55 8.6 2.1 Q6.3 2.75 6.3 3.7 6.3 4.6 8.6 5.25 L13.75 5.9 20.0 5.9 25.45 5.25 Q27.5 4.6 27.5 3.7 27.5 2.75 25.45 2.1" fill="url(#gradient1)" fill-rule="evenodd" stroke="none"/>
    </g>
    <radialGradient cx="0" cy="0" gradientTransform="matrix(0.0235, 0.0, 0.0, 0.0076, 15.9, 3.75)" gradientUnits="userSpaceOnUse" id="gradient0" r="819.2" spreadMethod="pad">
      <stop offset="0.3137254901960784" stop-color="#999999"/>
      <stop offset="0.4588235294117647" stop-color="#c0c0c0"/>
      <stop offset="0.596078431372549" stop-color="#c0c0c0"/>
      <stop offset="0.8901960784313725" stop-color="#626262"/>
    </radialGradient>
    <radialGradient cx="0" cy="0" gradientTransform="matrix(0.0309, 0.0, 0.0, 0.0077, 16.7, 3.8)" gradientUnits="userSpaceOnUse" id="gradient1" r="819.2" spreadMethod="pad">
      <stop offset="0.4627450980392157" stop-color="#ffffff" stop-opacity="0.0"/>
      <stop offset="0.5098039215686274" stop-color="#ffffff" stop-opacity="0.34901962"/>
      <stop offset="0.5333333333333333" stop-color="#ffffff" stop-opacity="0.0"/>
    </radialGradient>
    <g id="sprite2" transform="matrix(1.0, 0.0, 0.0, 1.0, 0.0, 0.0)">
      <use ffdec:characterId="1544" height="2.0" transform="matrix(1.0, 0.0, 0.0, 1.0, 0.0, 0.0)" width="19.4" xlink:href="#shape2"/>
    </g>
    <g id="shape2" transform="matrix(1.0, 0.0, 0.0, 1.0, 0.0, 0.0)">
      <path d="M16.55 1.7 L9.7 2.0 2.85 1.7 Q0.0 1.4 0.0 1.0 0.0 0.6 2.85 0.3 L9.7 0.0 16.55 0.3 Q19.4 0.6 19.4 1.0 19.4 1.4 16.55 1.7" fill="#ffffff" fill-opacity="0.4" fill-rule="evenodd" stroke="none"/>
    </g>
    <g id="sprite3" transform="matrix(1.0, 0.0, 0.0, 1.0, 0.75, 0.75)">
      <use ffdec:characterId="1543" height="11.85" transform="matrix(1.0, 0.0, 0.0, 1.0, -0.75, -0.75)" width="34.8" xlink:href="#shape3"/>
      <use ffdec:characterId="1545" height="2.0" transform="matrix(1.0, 0.0, 0.0, 1.0, 6.65, 6.35)" width="19.4" xlink:href="#sprite2"/>
      <use ffdec:characterId="1545" height="2.0" transform="matrix(0.75, 0.0, 0.0, 0.75, 9.25, 1.45)" width="19.4" xlink:href="#sprite2"/>
    </g>
    <g id="shape3" transform="matrix(1.0, 0.0, 0.0, 1.0, 0.75, 0.75)">
      <path d="M23.0 10.35 L10.5 10.35 10.4 10.35 Q6.1 10.35 3.05 8.85 0.0 7.35 0.0 5.2 0.0 3.05 3.05 1.55 5.5 0.3 8.75 0.05 L10.4 0.0 10.5 0.0 23.0 0.0 24.95 0.1 Q27.95 0.4 30.25 1.55 33.3 3.05 33.3 5.2 33.3 7.35 30.25 8.85 27.25 10.35 23.0 10.35 M7.9 5.0 L11.45 5.55 22.15 5.55 25.6 5.0 24.95 4.75 22.15 4.4 11.45 4.4 8.75 4.7 7.9 5.0 7.25 4.7 6.75 4.4 7.25 4.7 7.9 5.0 M26.85 4.25 L26.2 4.7 25.6 5.0 26.2 4.7 26.85 4.25" fill="url(#gradient2)" fill-rule="evenodd" stroke="none"/>
      <path d="M7.9 5.0 L7.25 4.7 6.75 4.4 M25.6 5.0 L26.2 4.7 26.85 4.25" ffdec:has-small-stroke="true" ffdec:original-stroke-width="1.0" fill="none" stroke="#666666" stroke-linecap="round" stroke-linejoin="round" stroke-width="2.415386777026043"/>
      <path d="M23.0 10.35 L10.5 10.35 10.4 10.35 Q6.1 10.35 3.05 8.85 0.0 7.35 0.0 5.2 0.0 3.05 3.05 1.55 5.5 0.3 8.75 0.05 L10.4 0.0 10.5 0.0 23.0 0.0 24.95 0.1 Q27.95 0.4 30.25 1.55 33.3 3.05 33.3 5.2 33.3 7.35 30.25 8.85 27.25 10.35 23.0 10.35 M25.6 5.0 L22.15 5.55 11.45 5.55 7.9 5.0 8.75 4.7 11.45 4.4 22.15 4.4 24.95 4.75 25.6 5.0 Z" ffdec:has-small-stroke="true" ffdec:original-stroke-width="1.5" fill="none" stroke="#3f3f3f" stroke-linecap="round" stroke-linejoin="round" stroke-width="2.415386777026043"/>
      <path d="M12.1 -0.3 L21.3 -0.3 Q25.45 -0.3 28.6 0.95 31.7 2.1 31.7 3.7 L31.7 3.8 Q31.7 5.45 28.6 6.7 25.45 7.8 21.3 7.8 L12.1 7.8 Q7.95 7.8 4.8 6.7 1.7 5.45 1.7 3.8 L1.7 3.7 Q1.7 2.1 4.8 0.95 7.95 -0.3 12.1 -0.3 M25.45 2.1 L20.0 1.55 13.75 1.55 8.6 2.1 Q6.3 2.75 6.3 3.7 6.3 4.6 8.6 5.25 L13.75 5.9 20.0 5.9 25.45 5.25 Q27.5 4.6 27.5 3.7 27.5 2.75 25.45 2.1" fill="url(#gradient3)" fill-rule="evenodd" stroke="none"/>
    </g>
    <radialGradient cx="0" cy="0" gradientTransform="matrix(0.0235, 0.0, 0.0, 0.0076, 15.9, 3.75)" gradientUnits="userSpaceOnUse" id="gradient2" r="819.2" spreadMethod="pad">
      <stop offset="0.3137254901960784" stop-color="#999999"/>
      <stop offset="0.4588235294117647" stop-color="#c0c0c0"/>
      <stop offset="0.596078431372549" stop-color="#c0c0c0"/>
      <stop offset="0.8901960784313725" stop-color="#626262"/>
    </radialGradient>
    <radialGradient cx="0" cy="0" gradientTransform="matrix(0.0309, 0.0, 0.0, 0.0077, 16.7, 3.8)" gradientUnits="userSpaceOnUse" id="gradient3" r="819.2" spreadMethod="pad">
      <stop offset="0.4627450980392157" stop-color="#ffffff" stop-opacity="0.0"/>
      <stop offset="0.5098039215686274" stop-color="#ffffff" stop-opacity="0.34901962"/>
      <stop offset="0.5333333333333333" stop-color="#ffffff" stop-opacity="0.0"/>
    </radialGradient>
    <g id="sprite4" transform="matrix(1.0, 0.0, 0.0, 1.0, 0.75, 0.75)">
      <use ffdec:characterId="1543" height="11.85" transform="matrix(1.0, 0.0, 0.0, 1.0, -0.75, -0.75)" width="34.8" xlink:href="#shape4"/>
      <use ffdec:characterId="1545" height="2.0" transform="matrix(1.0, 0.0, 0.0, 1.0, 6.65, 6.35)" width="19.4" xlink:href="#sprite2"/>
      <use ffdec:characterId="1545" height="2.0" transform="matrix(0.75, 0.0, 0.0, 0.75, 9.25, 1.45)" width="19.4" xlink:href="#sprite2"/>
    </g>
    <g id="shape4" transform="matrix(1.0, 0.0, 0.0, 1.0, 0.75, 0.75)">
      <path d="M23.0 10.35 L10.5 10.35 10.4 10.35 Q6.1 10.35 3.05 8.85 0.0 7.35 0.0 5.2 0.0 3.05 3.05 1.55 5.5 0.3 8.75 0.05 L10.4 0.0 10.5 0.0 23.0 0.0 24.95 0.1 Q27.95 0.4 30.25 1.55 33.3 3.05 33.3 5.2 33.3 7.35 30.25 8.85 27.25 10.35 23.0 10.35 M7.9 5.0 L11.45 5.55 22.15 5.55 25.6 5.0 24.95 4.75 22.15 4.4 11.45 4.4 8.75 4.7 7.9 5.0 7.25 4.7 6.75 4.4 7.25 4.7 7.9 5.0 M26.85 4.25 L26.2 4.7 25.6 5.0 26.2 4.7 26.85 4.25" fill="url(#gradient4)" fill-rule="evenodd" stroke="none"/>
      <path d="M7.9 5.0 L7.25 4.7 6.75 4.4 M25.6 5.0 L26.2 4.7 26.85 4.25" ffdec:has-small-stroke="true" ffdec:original-stroke-width="1.0" fill="none" stroke="#666666" stroke-linecap="round" stroke-linejoin="round" stroke-width="2.483292840454409"/>
      <path d="M23.0 10.35 L10.5 10.35 10.4 10.35 Q6.1 10.35 3.05 8.85 0.0 7.35 0.0 5.2 0.0 3.05 3.05 1.55 5.5 0.3 8.75 0.05 L10.4 0.0 10.5 0.0 23.0 0.0 24.95 0.1 Q27.95 0.4 30.25 1.55 33.3 3.05 33.3 5.2 33.3 7.35 30.25 8.85 27.25 10.35 23.0 10.35 M25.6 5.0 L22.15 5.55 11.45 5.55 7.9 5.0 8.75 4.7 11.45 4.4 22.15 4.4 24.95 4.75 25.6 5.0 Z" ffdec:has-small-stroke="true" ffdec:original-stroke-width="1.5" fill="none" stroke="#3f3f3f" stroke-linecap="round" stroke-linejoin="round" stroke-width="2.483292840454409"/>
      <path d="M12.1 -0.3 L21.3 -0.3 Q25.45 -0.3 28.6 0.95 31.7 2.1 31.7 3.7 L31.7 3.8 Q31.7 5.45 28.6 6.7 25.45 7.8 21.3 7.8 L12.1 7.8 Q7.95 7.8 4.8 6.7 1.7 5.45 1.7 3.8 L1.7 3.7 Q1.7 2.1 4.8 0.95 7.95 -0.3 12.1 -0.3 M25.45 2.1 L20.0 1.55 13.75 1.55 8.6 2.1 Q6.3 2.75 6.3 3.7 6.3 4.6 8.6 5.25 L13.75 5.9 20.0 5.9 25.45 5.25 Q27.5 4.6 27.5 3.7 27.5 2.75 25.45 2.1" fill="url(#gradient5)" fill-rule="evenodd" stroke="none"/>
    </g>
    <radialGradient cx="0" cy="0" gradientTransform="matrix(0.0235, 0.0, 0.0, 0.0076, 15.9, 3.75)" gradientUnits="userSpaceOnUse" id="gradient4" r="819.2" spreadMethod="pad">
      <stop offset="0.3137254901960784" stop-color="#999999"/>
      <stop offset="0.4588235294117647" stop-color="#c0c0c0"/>
      <stop offset="0.596078431372549" stop-color="#c0c0c0"/>
      <stop offset="0.8901960784313725" stop-color="#626262"/>
    </radialGradient>
    <radialGradient cx="0" cy="0" gradientTransform="matrix(0.0309, 0.0, 0.0, 0.0077, 16.7, 3.8)" gradientUnits="userSpaceOnUse" id="gradient5" r="819.2" spreadMethod="pad">
      <stop offset="0.4627450980392157" stop-color="#ffffff" stop-opacity="0.0"/>
      <stop offset="0.5098039215686274" stop-color="#ffffff" stop-opacity="0.34901962"/>
      <stop offset="0.5333333333333333" stop-color="#ffffff" stop-opacity="0.0"/>
    </radialGradient>
    <g id="sprite5" transform="matrix(1.0, 0.0, 0.0, 1.0, 21.65, 25.1)">
      <use ffdec:characterId="1552" height="32.05" transform="matrix(1.0, 0.0, 0.0, 1.0, -21.65, -25.1)" width="41.0" xlink:href="#shape5"/>
    </g>
    <g id="shape5" transform="matrix(1.0, 0.0, 0.0, 1.0, 21.65, 25.1)">
      <path d="M-12.65 -11.5 L-11.75 -9.95 -9.35 -5.45 -5.45 1.55 -6.15 2.05 -8.35 3.4 -9.1 2.8 -11.05 0.95 -13.95 -1.8 -12.65 0.5 -10.75 3.9 -11.65 4.3 -13.95 5.45 -14.65 3.9 -16.75 -0.25 -20.15 -6.7 -19.75 -6.9 -18.65 -7.6 Q-17.95 -7.9 -17.1 -8.45 L-16.45 -7.9 -14.55 -6.0 -11.55 -3.25 -13.3 -6.05 -15.75 -10.1 -14.85 -10.45 -12.65 -11.5 M1.35 -1.85 L0.5 -1.45 -1.65 -0.45 -4.6 1.0 -5.1 0.05 -6.45 -2.65 -8.6 -6.7 -11.35 -11.85 -10.8 -12.15 -8.85 -13.2 Q-7.5 -13.85 -5.3 -15.0 L-5.1 -14.55 -4.5 -13.4 -3.55 -11.65 -3.8 -11.55 Q-4.1 -11.4 -4.55 -11.15 -4.95 -10.95 -5.45 -10.7 -5.9 -10.4 -6.3 -10.2 L-5.75 -9.0 -5.4 -8.45 -4.75 -8.8 -3.1 -9.65 -2.95 -9.3 -2.35 -8.2 -1.45 -6.55 -1.8 -6.4 -2.6 -5.95 -3.75 -5.4 -3.55 -5.0 -2.9 -3.75 -2.1 -4.1 -0.2 -4.95 0.2 -4.15 1.35 -1.85 M7.05 -21.3 L7.55 -21.55 10.65 -13.9 12.7 -9.15 13.4 -7.6 10.7 -5.95 9.2 -5.2 8.8 -5.0 6.2 -9.3 4.2 -12.6 5.7 -8.2 6.55 -5.85 6.8 -5.2 4.15 -4.0 2.8 -3.35 2.5 -3.15 -2.85 -11.85 -4.85 -14.85 -3.05 -15.75 -1.7 -16.45 -1.25 -16.7 1.2 -12.1 3.15 -8.4 1.65 -12.75 0.8 -15.3 0.45 -16.5 0.35 -16.7 2.5 -17.8 3.35 -18.15 6.8 -12.8 9.1 -9.55 6.65 -14.45 5.0 -17.65 4.1 -19.35 3.9 -19.8 5.75 -20.6 7.05 -21.3 M15.75 -13.8 Q16.4 -13.8 16.9 -13.4 L17.6 -12.5 Q18.0 -11.55 17.8 -10.7 17.5 -9.95 16.55 -9.45 15.6 -8.95 14.75 -9.15 13.85 -9.4 13.35 -10.4 12.9 -11.3 13.25 -12.15 13.5 -12.9 14.45 -13.5 L15.75 -13.8 M11.6 -23.6 L12.6 -21.35 15.6 -14.85 14.8 -14.45 12.8 -13.45 12.35 -14.1 11.3 -15.9 9.75 -18.5 7.95 -21.75 8.9 -22.25 11.6 -23.6" fill="#4040ff" fill-rule="evenodd" stroke="none"/>
      <path d="M11.6 -23.6 L8.9 -22.25 7.95 -21.75 9.75 -18.5 11.3 -15.9 12.35 -14.1 12.8 -13.45 14.8 -14.45 15.6 -14.85 12.6 -21.35 11.6 -23.6 M15.75 -13.8 L14.45 -13.5 Q13.5 -12.9 13.25 -12.15 12.9 -11.3 13.35 -10.4 13.85 -9.4 14.75 -9.15 15.6 -8.95 16.55 -9.45 17.5 -9.95 17.8 -10.7 18.0 -11.55 17.6 -12.5 L16.9 -13.4 Q16.4 -13.8 15.75 -13.8 M7.05 -21.3 L5.75 -20.6 3.9 -19.8 4.1 -19.35 5.0 -17.65 6.65 -14.45 9.1 -9.55 6.8 -12.8 3.35 -18.15 2.5 -17.8 0.35 -16.7 0.45 -16.5 0.8 -15.3 1.65 -12.75 3.15 -8.4 1.2 -12.1 -1.25 -16.7 -1.7 -16.45 -3.05 -15.75 -4.85 -14.85 -2.85 -11.85 2.5 -3.15 2.8 -3.35 4.15 -4.0 6.8 -5.2 6.55 -5.85 5.7 -8.2 4.2 -12.6 6.2 -9.3 8.8 -5.0 9.2 -5.2 10.7 -5.95 13.4 -7.6 12.7 -9.15 10.65 -13.9 7.55 -21.55 7.05 -21.3 M1.35 -1.85 L0.2 -4.15 -0.2 -4.95 -2.1 -4.1 -2.9 -3.75 -3.55 -5.0 -3.75 -5.4 -2.6 -5.95 -1.8 -6.4 -1.45 -6.55 -2.35 -8.2 -2.95 -9.3 -3.1 -9.65 -4.75 -8.8 -5.4 -8.45 -5.75 -9.0 -6.3 -10.2 Q-5.9 -10.4 -5.45 -10.7 -4.95 -10.95 -4.55 -11.15 -4.1 -11.4 -3.8 -11.55 L-3.55 -11.65 -4.5 -13.4 -5.1 -14.55 -5.3 -15.0 Q-7.5 -13.85 -8.85 -13.2 L-10.8 -12.15 -11.35 -11.85 -8.6 -6.7 -6.45 -2.65 -5.1 0.05 -4.6 1.0 -1.65 -0.45 0.5 -1.45 1.35 -1.85 M-12.65 -11.5 L-14.85 -10.45 -15.75 -10.1 -13.3 -6.05 -11.55 -3.25 -14.55 -6.0 -16.45 -7.9 -17.1 -8.45 Q-17.95 -7.9 -18.65 -7.6 L-19.75 -6.9 -20.15 -6.7 -16.75 -0.25 -14.65 3.9 -13.95 5.45 -11.65 4.3 -10.75 3.9 -12.65 0.5 -13.95 -1.8 -11.05 0.95 -9.1 2.8 -8.35 3.4 -6.15 2.05 -5.45 1.55 -9.35 -5.45 -11.75 -9.95 -12.65 -11.5 Z" fill="none" stroke="#b24040" stroke-linecap="round" stroke-linejoin="round" stroke-width="3.0"/>
      <path d="M-12.65 -11.5 L-11.75 -9.95 -9.35 -5.45 -5.45 1.55 -6.15 2.05 -8.35 3.4 -9.1 2.8 -11.05 0.95 -13.95 -1.8 -12.65 0.5 -10.75 3.9 -11.65 4.3 -13.95 5.45 -14.65 3.9 -16.75 -0.25 -20.15 -6.7 -19.75 -6.9 -18.65 -7.6 Q-17.95 -7.9 -17.1 -8.45 L-16.45 -7.9 -14.55 -6.0 -11.55 -3.25 -13.3 -6.05 -15.75 -10.1 -14.85 -10.45 -12.65 -11.5 M1.35 -1.85 L0.5 -1.45 -1.65 -0.45 -4.6 1.0 -5.1 0.05 -6.45 -2.65 -8.6 -6.7 -11.35 -11.85 -10.8 -12.15 -8.85 -13.2 Q-7.5 -13.85 -5.3 -15.0 L-5.1 -14.55 -4.5 -13.4 -3.55 -11.65 -3.8 -11.55 Q-4.1 -11.4 -4.55 -11.15 -4.95 -10.95 -5.45 -10.7 -5.9 -10.4 -6.3 -10.2 L-5.75 -9.0 -5.4 -8.45 -4.75 -8.8 -3.1 -9.65 -2.95 -9.3 -2.35 -8.2 -1.45 -6.55 -1.8 -6.4 -2.6 -5.95 -3.75 -5.4 -3.55 -5.0 -2.9 -3.75 -2.1 -4.1 -0.2 -4.95 0.2 -4.15 1.35 -1.85 M7.05 -21.3 L7.55 -21.55 10.65 -13.9 12.7 -9.15 13.4 -7.6 10.7 -5.95 9.2 -5.2 8.8 -5.0 6.2 -9.3 4.2 -12.6 5.7 -8.2 6.55 -5.85 6.8 -5.2 4.15 -4.0 2.8 -3.35 2.5 -3.15 -2.85 -11.85 -4.85 -14.85 -3.05 -15.75 -1.7 -16.45 -1.25 -16.7 1.2 -12.1 3.15 -8.4 1.65 -12.75 0.8 -15.3 0.45 -16.5 0.35 -16.7 2.5 -17.8 3.35 -18.15 6.8 -12.8 9.1 -9.55 6.65 -14.45 5.0 -17.65 4.1 -19.35 3.9 -19.8 5.75 -20.6 7.05 -21.3 M15.75 -13.8 Q16.4 -13.8 16.9 -13.4 L17.6 -12.5 Q18.0 -11.55 17.8 -10.7 17.5 -9.95 16.55 -9.45 15.6 -8.95 14.75 -9.15 13.85 -9.4 13.35 -10.4 12.9 -11.3 13.25 -12.15 13.5 -12.9 14.45 -13.5 L15.75 -13.8 M11.6 -23.6 L12.6 -21.35 15.6 -14.85 14.8 -14.45 12.8 -13.45 12.35 -14.1 11.3 -15.9 9.75 -18.5 7.95 -21.75 8.9 -22.25 11.6 -23.6" fill="#ffffb2" fill-rule="evenodd" stroke="none"/>
    </g>
  </defs>
</svg>
