<?xml version="1.0" encoding="UTF-8" standalone="no"?>
<svg xmlns:ffdec="https://www.free-decompiler.com/flash" xmlns:xlink="http://www.w3.org/1999/xlink" ffdec:objectType="frame" height="56.75px" width="122.25px" xmlns="http://www.w3.org/2000/svg">
  <g transform="matrix(1.0, 0.0, 0.0, 1.0, -8.55, -2.2)">
    <use ffdec:characterId="214" height="56.75" transform="matrix(1.0, 0.0, 0.0, 1.0, 8.55, 2.2)" width="122.25" xlink:href="#shape0"/>
    <use ffdec:characterId="215" height="27.9" transform="matrix(1.0, 0.0, 0.0, 1.0, 21.95, 16.8)" width="93.85" xlink:href="#text0"/>
  </g>
  <defs>
    <g id="shape0" transform="matrix(1.0, 0.0, 0.0, 1.0, -8.55, -2.2)">
      <path d="M24.1 2.2 L116.2 2.2 Q130.8 2.7 130.8 17.75 L130.8 43.4 Q130.8 58.45 116.2 58.95 L24.1 58.95 Q8.55 58.95 8.55 43.4 L8.55 17.75 Q8.55 2.2 24.1 2.2" fill="#3577e9" fill-rule="evenodd" stroke="none"/>
    </g>
    <g id="text0" transform="matrix(1.0, 0.0, 0.0, 1.0, -0.8, -5.55)">
      <g transform="matrix(1.0, 0.0, 0.0, 1.0, 0.0, 0.0)">
        <use fill="#d4e4ff" height="27.9" transform="matrix(0.0322, 0.0, 0.0, 0.0322, 0.0, 32.0)" width="93.85" xlink:href="#font_Fredoka_One_S0"/>
        <use fill="#d4e4ff" height="27.9" transform="matrix(0.0322, 0.0, 0.0, 0.0322, 21.25, 32.0)" width="93.85" xlink:href="#font_Fredoka_One_E0"/>
        <use fill="#d4e4ff" height="27.9" transform="matrix(0.0322, 0.0, 0.0, 0.0322, 44.3, 32.0)" width="93.85" xlink:href="#font_Fredoka_One_N0"/>
        <use fill="#d4e4ff" height="27.9" transform="matrix(0.0322, 0.0, 0.0, 0.0322, 70.05, 32.0)" width="93.85" xlink:href="#font_Fredoka_One_T0"/>
      </g>
    </g>
    <g id="font_Fredoka_One_S0">
      <path d="M52.0 -105.5 Q57.0 -100.0 61.5 -94.0 83.0 -63.5 137.0 -30.5 164.0 -13.5 207.0 -1.5 250.0 10.0 298.0 10.0 392.0 10.0 475.0 -44.0 518.0 -71.5 545.0 -122.5 571.5 -173.0 571.5 -239.5 571.5 -306.0 545.5 -351.5 519.0 -397.5 480.5 -415.5 441.5 -434.0 395.5 -447.0 349.0 -460.0 310.5 -466.0 271.5 -472.0 245.0 -489.5 219.0 -507.0 219.0 -535.0 219.0 -563.0 241.0 -579.0 263.0 -595.0 296.5 -595.0 329.5 -595.0 351.0 -581.5 358.5 -576.5 367.0 -568.5 376.0 -560.0 379.0 -558.0 410.5 -537.5 432.0 -537.5 469.0 -537.5 504.0 -589.0 528.5 -624.5 528.5 -645.0 528.5 -665.5 496.5 -695.5 L471.0 -714.5 Q451.5 -731.0 401.0 -747.0 350.0 -763.0 289.0 -763.0 173.0 -763.0 106.0 -696.0 39.0 -628.5 39.0 -538.5 39.0 -473.0 65.0 -426.5 91.0 -380.0 130.0 -358.5 169.0 -337.0 214.0 -321.0 259.0 -305.0 298.0 -298.0 337.0 -291.0 363.0 -275.0 389.0 -259.0 389.0 -235.5 389.0 -157.5 294.0 -157.5 271.5 -157.5 244.5 -173.5 218.0 -189.5 204.0 -207.0 152.5 -258.0 124.0 -258.0 95.0 -258.0 69.5 -233.5 25.5 -190.5 25.5 -164.5 25.5 -138.0 52.0 -105.5" fill-rule="evenodd" stroke="none"/>
    </g>
    <g id="font_Fredoka_One_E0">
      <path d="M222.0 -181.0 L222.0 -284.5 423.0 -284.5 Q459.0 -284.5 476.0 -291.0 515.0 -303.0 515.0 -375.0 515.0 -440.5 487.5 -454.5 472.0 -463.0 460.5 -464.5 L425.0 -466.0 222.0 -466.0 222.0 -569.5 536.5 -569.5 Q572.5 -569.5 590.0 -575.5 627.5 -588.0 627.5 -659.5 627.5 -725.0 600.0 -739.5 584.5 -747.5 573.0 -749.0 L537.5 -750.5 134.0 -750.5 Q80.0 -750.5 60.5 -731.5 41.0 -712.5 41.0 -660.5 L41.0 -91.0 Q41.0 -55.5 47.0 -39.0 59.5 0.0 131.0 0.0 L536.5 0.0 Q572.5 0.0 590.0 -6.0 627.5 -18.5 627.5 -90.0 627.5 -155.5 600.0 -170.0 584.5 -178.0 573.0 -179.5 L537.5 -181.0 222.0 -181.0" fill-rule="evenodd" stroke="none"/>
    </g>
    <g id="font_Fredoka_One_N0">
      <path d="M526.0 -719.5 Q516.0 -701.5 516.0 -662.5 L516.0 -316.5 Q443.5 -410.5 227.5 -704.5 208.0 -728.0 204.0 -731.0 196.5 -738.5 178.5 -744.0 161.0 -749.5 130.0 -749.5 99.5 -749.5 80.0 -743.5 60.5 -737.5 50.5 -719.5 41.0 -701.5 41.0 -662.5 L41.0 -91.0 Q41.0 -67.5 42.5 -55.5 44.0 -43.0 52.0 -27.5 66.5 0.0 130.0 0.0 195.5 0.0 210.0 -27.5 218.0 -43.0 219.5 -54.5 221.0 -65.5 221.0 -90.0 L221.0 -427.0 Q294.0 -333.0 524.5 -25.5 534.5 -12.5 550.0 -6.0 565.5 0.0 605.0 0.0 670.5 0.0 685.0 -27.5 693.5 -43.0 695.0 -54.5 696.5 -65.5 696.5 -90.0 L696.5 -658.5 Q696.5 -694.5 690.0 -710.5 686.0 -725.0 677.5 -732.0 668.5 -739.5 651.0 -744.5 633.0 -749.5 603.5 -749.5 574.5 -749.5 555.0 -743.5 535.5 -737.5 526.0 -719.5" fill-rule="evenodd" stroke="none"/>
    </g>
    <g id="font_Fredoka_One_T0">
      <path d="M90.0 -751.5 Q56.5 -751.5 38.0 -742.5 25.5 -736.5 20.5 -720.5 15.5 -704.5 15.5 -678.0 15.5 -651.5 20.5 -635.0 25.5 -618.5 41.0 -611.0 56.5 -603.0 89.0 -603.0 L285.5 -603.0 285.5 -89.0 Q285.5 -65.5 287.0 -54.0 289.0 -42.0 296.5 -27.0 304.0 -12.5 323.0 -6.0 342.0 0.0 374.0 0.0 405.5 0.0 425.0 -6.0 444.5 -12.5 452.0 -27.0 460.0 -42.0 461.5 -53.0 463.0 -64.5 463.0 -88.0 L463.0 -603.0 658.5 -603.0 Q692.0 -603.0 710.5 -612.5 723.0 -618.5 728.0 -634.5 733.0 -650.0 733.0 -677.0 733.0 -703.5 728.0 -720.0 723.0 -736.5 707.5 -744.0 692.0 -751.5 659.5 -751.5 L90.0 -751.5" fill-rule="evenodd" stroke="none"/>
    </g>
  </defs>
</svg>
