<?xml version="1.0" encoding="UTF-8" standalone="no"?>
<svg xmlns:ffdec="https://www.free-decompiler.com/flash" xmlns:xlink="http://www.w3.org/1999/xlink" ffdec:objectType="frame" height="327.2px" width="275.85px" xmlns="http://www.w3.org/2000/svg">
  <g transform="matrix(1.0, 0.0, 0.0, 1.0, 70.7, 194.55)">
    <clipPath id="clipPath0">
      <path d="M 203.85 -194.3 L -70.7 -193.05 L -69.4 81.55 L 205.15 80.25 L 203.85 -194.3 Z"/>
    </clipPath>
    <g clip-path="url(#clipPath0)">
      <use ffdec:characterId="2732" height="35.75" transform="matrix(0.8987, -0.5066, 0.2784, 0.6153, -14.6601, 86.3828)" width="79.05" xlink:href="#shape0"/>
      <use ffdec:characterId="609" height="32.75" transform="matrix(0.7147, -0.5189, 0.3049, 0.5442, -22.9756, 92.0872)" width="33.2" xlink:href="#shape1"/>
      <use ffdec:characterId="2732" height="35.75" transform="matrix(-0.9437, -0.4098, -0.1702, 0.5621, 172.2241, 87.7369)" width="79.05" xlink:href="#shape0"/>
      <use ffdec:characterId="609" height="32.75" transform="matrix(-0.7688, -0.4294, -0.2068, 0.4999, 181.1363, 92.4666)" width="33.2" xlink:href="#shape1"/>
      <use ffdec:characterId="2732" height="35.75" transform="matrix(0.523, -0.621, 0.5971, 0.479, 1.0099, 112.5123)" width="79.05" xlink:href="#shape0"/>
      <use ffdec:characterId="609" height="32.75" transform="matrix(0.3506, -0.5947, 0.5808, 0.4118, -3.2175, 119.1657)" width="33.2" xlink:href="#shape1"/>
      <use ffdec:characterId="2732" height="35.75" transform="matrix(0.4557, -0.6509, 0.5837, 0.4086, -3.6086, 85.9426)" width="79.05" xlink:href="#shape0"/>
      <use ffdec:characterId="609" height="32.75" transform="matrix(0.2959, -0.6093, 0.5649, 0.345, -7.2214, 92.7522)" width="33.2" xlink:href="#shape1"/>
      <use ffdec:characterId="733" height="84.8" transform="matrix(1.1146, -0.1369, 0.1369, 1.1146, 19.4809, 18.4169)" width="98.7" xlink:href="#shape2"/>
      <use ffdec:characterId="2732" height="35.75" transform="matrix(-0.5299, -0.6182, -0.5728, 0.4119, 159.833, 114.2339)" width="79.05" xlink:href="#shape0"/>
      <use ffdec:characterId="609" height="32.75" transform="matrix(-0.36, -0.5822, -0.5587, 0.3498, 164.1732, 120.7417)" width="33.2" xlink:href="#shape1"/>
      <use ffdec:characterId="2732" height="35.75" transform="matrix(-0.3359, -0.7121, -0.6386, 0.3012, 152.5913, 92.1174)" width="79.05" xlink:href="#shape0"/>
      <use ffdec:characterId="609" height="32.75" transform="matrix(-0.1869, -0.6447, -0.6096, 0.2423, 154.9918, 99.3636)" width="33.2" xlink:href="#shape1"/>
      <use ffdec:characterId="688" height="141.25" transform="matrix(-0.6323, 0.2082, -0.23, -0.6986, 147.0027, 116.8923)" width="49.4" xlink:href="#shape3"/>
      <use ffdec:characterId="688" height="141.25" transform="matrix(0.6323, 0.2082, 0.1673, -0.5079, -12.5065, 101.5094)" width="49.4" xlink:href="#shape3"/>
      <use ffdec:characterId="744" height="25.25" transform="matrix(0.1386, 0.9893, 0.9893, -0.1386, 17.1932, -8.3011)" width="59.1" xlink:href="#shape4"/>
      <use ffdec:characterId="626" height="25.9" transform="matrix(-0.8856, -0.0421, -0.0444, 0.936, 106.3057, -115.0521)" width="26.4" xlink:href="#shape5"/>
      <use ffdec:characterId="745" height="172.25" transform="matrix(-0.6555, 0.02, 0.0347, 0.6214, 116.1345, -64.7699)" width="169.6" xlink:href="#shape6"/>
      <use ffdec:characterId="746" height="175.3" transform="matrix(-0.6555, 0.02, 0.0347, 0.6214, 117.0738, -65.7944)" width="172.6" xlink:href="#shape7"/>
      <use ffdec:characterId="2733" height="189.3" transform="matrix(0.7589, -0.0814, 0.0814, 0.7589, -39.1127, -173.1596)" width="263.05" xlink:href="#shape8"/>
      <use ffdec:characterId="748" height="44.25" transform="matrix(0.9908, -0.0113, 0.0106, 0.9274, 21.3598, -70.5091)" width="42.05" xlink:href="#shape9"/>
      <use ffdec:characterId="748" height="44.25" transform="matrix(1.1223, -0.0128, 0.0129, 1.1223, 51.7984, -71.4323)" width="42.05" xlink:href="#shape9"/>
      <use ffdec:characterId="749" height="37.65" transform="matrix(1.1223, 0.0172, -0.0172, 1.1223, 15.2539, -79.0903)" width="38.9" xlink:href="#shape10"/>
      <use ffdec:characterId="750" height="28.85" transform="matrix(-0.4383, 0.1686, 0.164, 0.4497, 41.1002, -66.4029)" width="28.8" xlink:href="#shape11"/>
    </g>
    <clipPath id="clipPath1">
      <path d="M 49.37 12.47 L 48.89 12.49 L 48.74 12.5 L 48.59 12.53 L 48.45 12.57 L 48.32 12.63 L 48.18 12.69 L 48.05 12.77 L 47.93 12.86 L 47.8 12.96 L 47.68 13.07 L 47.56 13.2 L 47.33 13.48 L 47.11 13.82 L 46.9 14.2 L 46.7 14.63 L 46.51 15.11 L 46.33 15.64 L 46.16 16.22 L 46 16.84 L 45.85 17.51 L 45.71 18.23 L 45.58 19 L 45.46 19.82 L 45.36 20.65 L 45.28 21.46 L 45.24 22.24 L 45.23 22.98 L 45.25 23.7 L 45.3 24.38 L 45.39 25.04 L 45.51 25.66 L 45.59 25.99 L 45.68 26.31 L 45.79 26.61 L 45.91 26.91 L 46.03 27.2 L 46.17 27.48 L 46.32 27.75 L 46.47 28.01 L 46.64 28.26 L 46.82 28.5 L 47.01 28.73 L 47.21 28.95 L 47.42 29.16 L 47.64 29.36 L 47.87 29.55 L 48.11 29.73 L 48.58 30.05 L 49.06 30.35 L 49.54 30.65 L 50.04 30.93 L 50.54 31.19 L 51.05 31.45 L 51.57 31.69 L 52.1 31.92 L 52.64 32.13 L 53.19 32.34 L 53.74 32.52 L 54.31 32.7 L 54.88 32.86 L 55.46 33.01 L 56.06 33.15 L 56.66 33.28 L 57.89 33.5 L 59.17 33.72 L 60.5 33.92 L 61.89 34.1 L 63.32 34.27 L 64.8 34.43 L 66.33 34.58 L 67.91 34.7 L 69.02 34.79 L 70.04 34.85 L 70.97 34.88 L 71.83 34.89 L 72.71 34.88 L 73.48 34.83 L 73.83 34.8 L 74.15 34.75 L 74.44 34.7 L 74.7 34.64 L 74.97 34.56 L 75.21 34.48 L 75.41 34.38 L 75.57 34.27 L 75.71 34.14 L 75.83 34.02 L 75.95 33.88 L 76.05 33.75 L 76.14 33.6 L 76.21 33.45 L 76.28 33.3 L 76.33 33.14 L 76.37 32.97 L 76.4 32.8 L 76.41 32.63 L 76.41 32.45 L 76.41 32.26 L 76.38 32.07 L 76.35 31.87 L 76.31 31.67 L 76.2 31.33 L 76.07 30.98 L 75.92 30.63 L 75.75 30.26 L 75.55 29.89 L 75.33 29.51 L 75.09 29.13 L 74.82 28.73 L 74.54 28.33 L 74.23 27.92 L 73.89 27.5 L 73.54 27.07 L 73.16 26.64 L 72.76 26.19 L 72.33 25.74 L 71.89 25.29 L 71.05 24.46 L 70.18 23.65 L 69.25 22.83 L 68.29 22.02 L 67.28 21.21 L 66.23 20.4 L 65.13 19.6 L 63.99 18.8 L 62.88 18.05 L 61.78 17.35 L 60.69 16.7 L 59.62 16.09 L 58.57 15.52 L 57.54 15 L 56.52 14.53 L 55.52 14.1 L 54.59 13.72 L 53.71 13.39 L 52.87 13.11 L 52.08 12.88 L 51.33 12.7 L 50.98 12.63 L 50.63 12.57 L 50.3 12.53 L 49.98 12.49 L 49.67 12.47 L 49.37 12.47 Z"/>
    </clipPath>
    <g clip-path="url(#clipPath1)">
      <use ffdec:characterId="771" height="27.95" transform="matrix(0.7455, -0.1875, 0.2429, 0.9656, 42.5785, 14.023)" width="36.95" xlink:href="#shape12"/>
      <use ffdec:characterId="673" height="52.05" transform="matrix(-0.5458, 0.0231, 0.083, 0.6748, 88.6573, -11.5926)" width="87.0" xlink:href="#shape13"/>
    </g>
    <clipPath id="clipPath2">
      <path d="M 203.85 -194.3 L -70.7 -193.05 L -69.4 81.55 L 205.15 80.25 L 203.85 -194.3 Z"/>
    </clipPath>
    <g clip-path="url(#clipPath2)">
      <use ffdec:characterId="772" height="30.45" transform="matrix(0.7455, -0.1875, 0.2429, 0.9656, 41.343, 13.0503)" width="39.45" xlink:href="#shape14"/>
      <use ffdec:characterId="2734" height="69.3" transform="matrix(-0.6863, -0.1894, -0.1894, 0.6863, 62.8152, -47.6878)" width="88.9" xlink:href="#shape15"/>
      <use ffdec:characterId="753" height="65.5" transform="matrix(-0.7429, -0.0311, -0.0339, 0.8114, 99.5702, -81.4144)" width="67.95" xlink:href="#shape16"/>
      <use ffdec:characterId="750" height="28.85" transform="matrix(-0.3393, 0.1302, 0.1026, 0.3713, 77.0091, -66.6709)" width="28.8" xlink:href="#shape11"/>
      <use ffdec:characterId="754" height="152.15" transform="matrix(-0.6863, -0.1894, -0.1894, 0.6863, 5.5852, -27.9223)" width="56.2" xlink:href="#shape17"/>
      <use ffdec:characterId="677" height="11.45" transform="matrix(-0.8863, 0.8126, 0.8516, 0.9288, 36.8135, -114.4549)" width="28.7" xlink:href="#shape18"/>
      <use ffdec:characterId="677" height="11.45" transform="matrix(1.0187, 1.0431, -1.0431, 1.0186, 75.5776, -126.9751)" width="28.7" xlink:href="#shape18"/>
      <use ffdec:characterId="744" height="25.25" transform="matrix(-0.2586, 0.9649, -0.9649, -0.2586, 115.3505, -6.0654)" width="59.1" xlink:href="#shape4"/>
    </g>
  </g>
  <defs>
    <g id="shape0" transform="matrix(1.0, 0.0, 0.0, 1.0, 3.2, 1.2)">
      <path d="M-0.65 3.9 L-0.7 3.8 -0.65 3.85 -0.65 3.9 M74.0 31.3 L74.2 31.4 73.3 33.0 Q70.6 34.3 68.5 33.55 L54.4 26.55 Q48.45 24.55 41.85 23.65 48.5 24.35 54.5 26.25 L68.75 33.05 Q70.8 33.75 73.45 32.35 L74.0 31.3 M3.3 21.05 L3.25 21.05 3.3 21.05" fill="#1f2f32" fill-rule="evenodd" stroke="none"/>
      <path d="M73.65 31.4 L54.15 21.25 Q48.5 18.65 43.15 16.65 L36.45 14.2 Q29.45 11.65 23.55 11.15 L8.7 9.8 Q2.35 9.7 -0.65 3.85 1.15 1.2 5.65 0.25 8.0 -0.1 11.55 0.15 22.6 0.85 38.9 7.45 47.35 10.95 55.3 15.25 62.5 19.05 69.35 23.6 72.9 25.9 74.0 27.75 75.0 29.15 74.3 30.75 L74.0 31.3 73.75 31.15 73.7 31.25 73.65 31.4" fill="#5b6e7d" fill-rule="evenodd" stroke="none"/>
      <path d="M-0.65 3.85 Q2.35 9.7 8.7 9.8 L23.55 11.15 Q29.45 11.65 36.45 14.2 L43.15 16.65 Q48.5 18.65 54.15 21.25 L73.65 31.4 73.7 31.25 73.75 31.15 74.0 31.3 73.45 32.35 Q70.8 33.75 68.75 33.05 L54.5 26.25 Q48.5 24.35 41.85 23.65 L32.65 23.15 17.6 24.2 Q16.8 24.35 15.95 24.7 8.75 25.1 5.3 22.75 L4.4 22.05 3.4 21.15 3.3 21.1 3.3 21.05 3.25 21.05 Q0.95 18.65 -0.45 15.0 L-0.5 14.8 -0.55 14.7 Q-3.25 7.65 -0.65 3.9 L-0.65 3.85" fill="#343541" fill-rule="evenodd" stroke="none"/>
      <path d="M-0.65 3.9 L-0.65 3.85 M41.85 23.65 L32.65 23.15 M3.3 21.05 L3.25 21.05 M-0.45 15.0 L-0.55 14.7" fill="none" stroke="#1f2f32" stroke-linecap="round" stroke-linejoin="round" stroke-width="2.5"/>
      <path d="M74.0 31.3 L74.3 30.75 Q75.0 29.15 74.0 27.75 72.9 25.9 69.35 23.6 62.5 19.05 55.3 15.25 47.35 10.95 38.9 7.45 22.6 0.85 11.55 0.15 8.0 -0.1 5.65 0.25 1.15 1.2 -0.65 3.85 M32.65 23.15 L17.65 24.55 15.95 24.7 Q8.75 25.1 5.3 22.75 L4.4 22.05 3.4 21.15 3.3 21.1 3.3 21.05 3.25 21.05 Q0.95 18.65 -0.45 15.0 M-0.55 14.7 Q-3.25 7.65 -0.65 3.9 M41.85 23.65 Q48.5 24.35 54.5 26.25 L68.75 33.05 Q70.8 33.75 73.45 32.35 L74.0 31.3" fill="none" stroke="#323232" stroke-linecap="round" stroke-linejoin="round" stroke-width="2.5"/>
    </g>
    <g id="shape1" transform="matrix(1.0, 0.0, 0.0, 1.0, 5.8, 11.25)">
      <path d="M1.7 -1.3 Q2.2 -5.2 6.25 -5.35 9.25 -4.75 9.9 -1.6 10.2 0.55 9.1 1.9 L10.2 2.5 Q11.25 3.2 11.1 4.5 L10.65 5.65 Q12.95 4.05 15.85 3.8 18.2 4.0 19.0 6.4 19.95 9.15 17.75 11.05 14.5 13.95 11.05 11.4 8.9 9.7 9.55 7.25 L9.75 6.6 7.3 6.5 Q6.55 6.25 6.25 5.35 5.85 4.55 5.9 3.95 L4.85 3.85 Q1.05 2.7 1.7 -1.3" fill="#5b6e7d" fill-rule="evenodd" stroke="none"/>
      <path d="M13.5 -4.7 Q13.9 -1.7 18.2 0.65 32.1 9.0 21.7 18.6 8.9 24.15 0.35 11.0 -8.25 -2.15 -1.75 -6.7 4.7 -11.3 8.9 -9.5 13.05 -7.75 13.5 -4.7 M1.7 -1.3 Q1.05 2.7 4.85 3.85 L5.9 3.95 Q5.85 4.55 6.25 5.35 6.55 6.25 7.3 6.5 L9.75 6.6 9.55 7.25 Q8.9 9.7 11.05 11.4 14.5 13.95 17.75 11.05 19.95 9.15 19.0 6.4 18.2 4.0 15.85 3.8 12.95 4.05 10.65 5.65 L11.1 4.5 Q11.25 3.2 10.2 2.5 L9.1 1.9 Q10.2 0.55 9.9 -1.6 9.25 -4.75 6.25 -5.35 2.2 -5.2 1.7 -1.3" fill="#343541" fill-rule="evenodd" stroke="none"/>
      <path d="M13.5 -4.7 Q13.9 -1.7 18.2 0.65 32.1 9.0 21.7 18.6 8.9 24.15 0.35 11.0 -8.25 -2.15 -1.75 -6.7 4.7 -11.3 8.9 -9.5 13.05 -7.75 13.5 -4.7 Z" fill="none" stroke="#323232" stroke-linecap="round" stroke-linejoin="round" stroke-width="2.5"/>
    </g>
    <g id="shape2" transform="matrix(1.0, 0.0, 0.0, 1.0, 48.15, 41.65)">
      <path d="M32.2 -23.15 Q21.2 -30.45 4.2 -34.1 -12.85 -37.8 -25.9 -35.7 -38.95 -33.6 -40.35 -26.9 -41.8 -20.25 -30.8 -12.95 -19.8 -5.65 -2.75 -1.95 14.25 1.7 27.3 -0.4 40.3 -2.5 41.75 -9.15 43.2 -15.85 32.2 -23.15 M0.1 38.65 Q-16.5 48.55 -27.65 31.25 -44.0 -4.85 -46.8 -20.3 -49.65 -35.75 -33.85 -39.75 1.4 -44.1 29.8 -29.1 58.15 -14.15 46.05 0.3 29.5 20.1 0.1 38.65" fill="#bd3232" fill-rule="evenodd" stroke="none"/>
      <path d="M32.2 -23.15 Q43.2 -15.85 41.75 -9.15 40.3 -2.5 27.3 -0.4 14.25 1.7 -2.75 -1.95 -19.8 -5.65 -30.8 -12.95 -41.8 -20.25 -40.35 -26.9 -38.95 -33.6 -25.9 -35.7 -12.85 -37.8 4.2 -34.1 21.2 -30.45 32.2 -23.15" fill="#e63232" fill-rule="evenodd" stroke="none"/>
      <path d="M0.1 38.65 Q-16.5 48.55 -27.65 31.25 -44.0 -4.85 -46.8 -20.3 -49.65 -35.75 -33.85 -39.75 1.4 -44.1 29.8 -29.1 58.15 -14.15 46.05 0.3 29.5 20.1 0.1 38.65 Z" fill="none" stroke="#323232" stroke-linecap="round" stroke-linejoin="round" stroke-width="1.8"/>
      <path d="M23.85 -32.0 Q22.0 -29.25 18.45 -26.15 -0.1 -9.95 -12.3 -9.5 -24.45 -9.05 -29.5 -15.4 -34.5 -21.7 -35.25 -35.15 L-35.2 -39.35 -33.85 -39.75 Q-2.25 -43.65 23.85 -32.0" fill="#bd3232" fill-rule="evenodd" stroke="none"/>
      <path d="M0.1 38.65 Q29.5 20.1 46.05 0.3 58.15 -14.15 29.8 -29.1 L23.85 -32.0 Q-2.25 -43.65 -33.85 -39.75 L-35.2 -39.35 Q-49.55 -35.1 -46.8 -20.3 -44.0 -4.85 -27.65 31.25" fill="none" stroke="#323232" stroke-linecap="round" stroke-linejoin="round" stroke-width="1.8"/>
    </g>
    <g id="shape3" transform="matrix(1.0, 0.0, 0.0, 1.0, -2.9, -2.45)">
      <path d="M22.45 20.45 Q38.35 59.5 43.6 83.7 49.0 108.4 50.4 122.8 51.75 137.15 50.2 140.4 48.6 143.65 46.15 141.7 43.65 139.7 40.85 111.5 38.0 83.25 23.95 52.45 17.15 37.55 11.85 28.1 4.6 15.45 4.2 10.95 3.8 6.45 6.35 4.55 8.9 2.65 13.1 4.95 17.25 7.2 22.45 20.45" fill="#343541" fill-rule="evenodd" stroke="none"/>
      <path d="M22.45 20.45 Q38.35 59.5 43.6 83.7 49.0 108.4 50.4 122.8 51.75 137.15 50.2 140.4 48.6 143.65 46.15 141.7 43.65 139.7 40.85 111.5 38.0 83.25 23.95 52.45 17.15 37.55 11.85 28.1 4.6 15.45 4.2 10.95 3.8 6.45 6.35 4.55 8.9 2.65 13.1 4.95 17.25 7.2 22.45 20.45 Z" fill="none" stroke="#323232" stroke-linecap="round" stroke-linejoin="round" stroke-width="2.5"/>
    </g>
    <g id="shape4" transform="matrix(1.0, 0.0, 0.0, 1.0, 51.65, 14.4)">
      <path d="M-4.9 9.5 L-16.7 8.35 -31.9 9.6 Q-37.7 9.4 -42.9 6.65 -52.65 1.45 -49.7 -7.85 -47.75 -14.3 -40.0 -12.45 -31.05 -10.3 -21.65 -10.5 -16.55 -10.7 -11.35 -12.45 -6.2 -14.2 -0.8 -11.55 5.95 -7.45 6.2 -1.55 6.25 0.1 5.75 1.95 3.45 9.85 -4.9 9.5" fill="#343541" fill-rule="evenodd" stroke="none"/>
      <path d="M-4.9 9.5 L-16.7 8.35 -31.9 9.6 Q-37.7 9.4 -42.9 6.65 -52.65 1.45 -49.7 -7.85 -47.75 -14.3 -40.0 -12.45 -31.05 -10.3 -21.65 -10.5 -16.55 -10.7 -11.35 -12.45 -6.2 -14.2 -0.8 -11.55 5.95 -7.45 6.2 -1.55 6.25 0.1 5.75 1.95 3.45 9.85 -4.9 9.5 Z" fill="none" stroke="#323232" stroke-linecap="round" stroke-linejoin="round" stroke-width="2.5"/>
    </g>
    <g id="shape5" transform="matrix(1.0, 0.0, 0.0, 1.0, -0.05, 0.0)">
      <path d="M20.95 23.8 L20.45 24.2 19.9 24.5 Q15.85 26.55 11.15 25.6 5.7 24.5 2.5 19.95 -0.7 15.5 0.25 10.3 1.1 5.1 5.45 2.15 9.95 -0.8 15.35 0.3 20.75 1.35 23.95 5.9 27.1 10.35 26.3 15.65 25.35 20.8 20.95 23.8" fill="#323232" fill-rule="evenodd" stroke="none"/>
    </g>
    <g id="shape6" transform="matrix(1.0, 0.0, 0.0, 1.0, 0.05, -0.05)">
      <path d="M161.05 18.7 Q163.8 25.2 161.55 35.0 144.2 98.85 110.7 146.2 93.8 170.0 73.2 149.55 37.65 107.95 15.7 41.45 9.55 19.2 28.3 12.45 51.55 6.25 76.2 4.45 104.25 2.3 134.15 5.9 L137.2 6.25 147.0 7.65 Q157.7 10.75 161.05 18.7" fill="#e63232" fill-rule="evenodd" stroke="none"/>
      <path d="M160.35 8.0 Q172.85 15.9 168.4 34.7 148.5 105.45 110.2 158.05 90.9 184.5 67.3 161.85 26.75 115.75 1.7 42.0 -5.3 17.35 16.1 9.85 45.05 2.35 75.95 0.6 104.15 -1.05 133.9 2.1 L136.95 2.4 151.8 4.35 Q156.75 5.75 160.35 8.0 M161.05 18.7 Q157.7 10.75 147.0 7.65 L137.2 6.25 134.15 5.9 Q104.25 2.3 76.2 4.45 51.55 6.25 28.3 12.45 9.55 19.2 15.7 41.45 37.65 107.95 73.2 149.55 93.8 170.0 110.7 146.2 144.2 98.85 161.55 35.0 163.8 25.2 161.05 18.7" fill="#bd3232" fill-rule="evenodd" stroke="none"/>
    </g>
    <g id="shape7" transform="matrix(1.0, 0.0, 0.0, 1.0, 3.75, -1.9)">
      <path d="M65.1 165.25 Q24.55 119.15 -0.5 45.4 -7.5 20.75 13.9 13.25 77.25 -3.15 149.6 7.75 171.9 13.95 166.2 38.1 146.3 108.85 108.0 161.45 88.7 187.9 65.1 165.25 Z" fill="none" stroke="#323232" stroke-linecap="round" stroke-linejoin="round" stroke-width="3.0"/>
    </g>
    <g id="shape8" transform="matrix(1.0, 0.0, 0.0, 1.0, 149.4, 21.3)">
      <path d="M-55.05 -9.5 Q-53.35 -16.75 -36.3 -19.3 -19.0 -21.8 3.75 -17.95 26.55 -14.1 41.6 -6.15 56.45 1.8 55.2 9.1 L32.7 118.6 Q28.65 116.3 20.7 113.75 4.25 108.5 -19.55 104.85 -43.25 101.25 -60.3 101.45 -69.8 101.55 -74.1 102.85 L-55.45 -6.95 -55.25 -8.25 -55.1 -8.95 -55.25 -8.25 -55.3 -7.9 -55.2 -8.65 -55.1 -8.95 -55.05 -9.5" fill="url(#gradient0)" fill-rule="evenodd" stroke="none"/>
      <path d="M-147.9 105.85 L-148.35 104.2 Q-149.2 98.2 -138.75 96.1 -115.35 93.2 -77.7 106.0 L-77.7 106.05 -81.85 127.8 Q-138.8 122.35 -147.9 105.85" fill="url(#gradient1)" fill-rule="evenodd" stroke="none"/>
      <path d="M-148.25 105.9 L-147.9 105.85 Q-138.8 122.35 -81.85 127.8 -39.2 131.9 30.4 129.75 L34.35 129.65 59.05 128.65 59.35 128.65 Q103.9 127.7 112.55 147.75 115.4 167.3 36.95 167.0 38.35 159.4 30.8 152.55 -8.75 128.6 -106.7 141.05 -144.3 127.3 -148.25 105.9 M46.45 160.45 L30.8 152.55 46.45 160.45" fill="url(#gradient2)" fill-rule="evenodd" stroke="none"/>
      <path d="M-55.05 -9.5 Q-53.35 -16.75 -36.3 -19.3 -19.0 -21.8 3.75 -17.95 26.55 -14.1 41.6 -6.15 56.45 1.8 55.2 9.1 L32.7 118.6 M-74.1 102.85 L-55.45 -6.95 -55.3 -7.9 M-55.2 -8.65 L-55.1 -9.3 -55.05 -9.5 M-55.1 -8.95 L-55.25 -8.25 M-148.35 104.2 L-148.25 105.9 Q-144.3 127.3 -106.7 141.05 M-147.9 105.85 L-148.35 104.2 Q-149.2 98.2 -138.75 96.1 -115.35 93.2 -77.7 106.0 L-77.7 105.65 -77.45 104.9 -77.7 106.0 -77.7 106.05 M34.35 129.65 L59.05 128.65 59.35 128.65 Q103.9 127.7 112.55 147.75 115.4 167.3 36.95 167.0 M-81.85 127.8 Q-138.8 122.35 -147.9 105.85" fill="none" stroke="#1d242e" stroke-linecap="round" stroke-linejoin="round" stroke-width="2.0"/>
      <path d="M36.95 167.0 Q38.35 159.4 30.8 152.55 -8.75 128.6 -106.7 141.05 M30.8 152.55 L46.45 160.45" fill="none" stroke="#323232" stroke-linecap="round" stroke-linejoin="round" stroke-width="2.0"/>
      <path d="M-77.45 104.9 Q-76.75 103.65 -74.1 102.85 -69.8 101.55 -60.3 101.45 -43.25 101.25 -19.55 104.85 4.25 108.5 20.7 113.75 28.65 116.3 32.7 118.6 34.5 119.55 35.5 120.5 L34.35 129.65 30.4 129.75 Q-39.2 131.9 -81.85 127.8 L-77.7 106.05 -77.7 106.0 -77.45 104.9" fill="url(#gradient3)" fill-rule="evenodd" stroke="none"/>
      <path d="M-77.45 104.9 Q-76.75 103.65 -74.1 102.85 -69.8 101.55 -60.3 101.45 -43.25 101.25 -19.55 104.85 4.25 108.5 20.7 113.75 28.65 116.3 32.7 118.6 34.5 119.55 35.5 120.5 L34.35 129.65 30.4 129.75 Q-39.2 131.9 -81.85 127.8 L-77.7 106.05" fill="none" stroke="#1d242e" stroke-linecap="round" stroke-linejoin="round" stroke-width="2.0"/>
      <path d="M-77.45 104.9 Q-76.75 103.65 -74.1 102.85 -69.8 101.55 -60.3 101.45 -43.25 101.25 -19.55 104.85 4.25 108.5 20.7 113.75 28.65 116.3 32.7 118.6 34.5 119.55 35.5 120.5 L34.35 129.65 30.4 129.75 Q-39.2 131.9 -81.85 127.8 L-77.7 106.05 -77.7 106.0 -77.45 104.9" fill="url(#gradient4)" fill-rule="evenodd" stroke="none"/>
      <path d="M-77.45 104.9 Q-76.75 103.65 -74.1 102.85 -69.8 101.55 -60.3 101.45 -43.25 101.25 -19.55 104.85 4.25 108.5 20.7 113.75 28.65 116.3 32.7 118.6 34.5 119.55 35.5 120.5 L34.35 129.65 30.4 129.75 Q-39.2 131.9 -81.85 127.8 L-77.7 106.05" fill="none" stroke="#1d242e" stroke-linecap="round" stroke-linejoin="round" stroke-width="2.0"/>
      <path d="M112.55 149.2 Q103.9 129.15 59.35 130.1 L59.05 130.1 34.35 131.1 30.4 131.2 Q-39.2 133.35 -81.85 129.25 -138.8 123.8 -147.9 107.3 L-148.35 105.65 Q-149.2 99.65 -138.75 97.55 -115.8 94.7 -79.15 106.95" fill="none" stroke="#6869a8" stroke-linecap="round" stroke-linejoin="round" stroke-width="2.0"/>
    </g>
    <linearGradient gradientTransform="matrix(0.1016, 0.0125, -0.1224, 0.9921, 6.0, 0.4)" gradientUnits="userSpaceOnUse" id="gradient0" spreadMethod="pad" x1="-819.2" x2="819.2">
      <stop offset="0.0" stop-color="#151424"/>
      <stop offset="0.396078431372549" stop-color="#4d4d88"/>
      <stop offset="1.0" stop-color="#151424"/>
    </linearGradient>
    <radialGradient cx="0" cy="0" gradientTransform="matrix(-0.0138, 0.0517, -0.1208, -0.0324, -82.7, 132.9)" gradientUnits="userSpaceOnUse" id="gradient1" r="819.2" spreadMethod="pad">
      <stop offset="0.0" stop-color="#0d0f1e"/>
      <stop offset="0.5333333333333333" stop-color="#2a2f4c"/>
    </radialGradient>
    <radialGradient cx="0" cy="0" gradientTransform="matrix(-0.0085, 0.0751, -0.2624, -0.0295, -19.95, 168.55)" gradientUnits="userSpaceOnUse" id="gradient2" r="819.2" spreadMethod="pad">
      <stop offset="0.24313725490196078" stop-color="#2a2f4c"/>
      <stop offset="0.5019607843137255" stop-color="#1a1d32"/>
    </radialGradient>
    <linearGradient gradientTransform="matrix(0.0659, 0.0067, -0.1014, 0.9945, -16.7, -0.45)" gradientUnits="userSpaceOnUse" id="gradient3" spreadMethod="pad" x1="-819.2" x2="819.2">
      <stop offset="0.050980392156862744" stop-color="#84651e"/>
      <stop offset="0.49019607843137253" stop-color="#f7e5a3"/>
      <stop offset="0.8509803921568627" stop-color="#9f7a24"/>
    </linearGradient>
    <linearGradient gradientTransform="matrix(0.0659, 0.0067, -0.1014, 0.9945, -16.7, -0.45)" gradientUnits="userSpaceOnUse" id="gradient4" spreadMethod="pad" x1="-819.2" x2="819.2">
      <stop offset="0.050980392156862744" stop-color="#84651e"/>
      <stop offset="0.49019607843137253" stop-color="#f7e5a3"/>
      <stop offset="0.8509803921568627" stop-color="#9f7a24"/>
    </linearGradient>
    <g id="shape9" transform="matrix(1.0, 0.0, 0.0, 1.0, 21.0, 22.1)">
      <path d="M17.1 -12.95 Q19.6 -9.35 20.55 -4.6 22.35 4.3 17.65 12.0 12.85 19.65 4.35 21.6 -4.15 23.5 -11.4 18.55 -18.05 14.0 -20.1 6.25 L-20.5 4.65 Q-22.3 -4.3 -17.45 -11.95 -12.7 -19.65 -4.2 -21.55 4.25 -23.45 11.55 -18.5 14.9 -16.2 17.1 -12.95" fill="#bd3232" fill-rule="evenodd" stroke="none"/>
    </g>
    <g id="shape10" transform="matrix(1.0, 0.0, 0.0, 1.0, -15.1, 55.6)">
      <path d="M20.1 -24.95 Q22.95 -23.35 26.55 -22.85 34.15 -21.8 40.45 -26.25 46.7 -30.75 47.95 -38.2 49.25 -45.6 44.85 -51.55 L43.95 -52.6 44.75 -52.15 Q47.4 -50.4 48.5 -49.0 L51.8 -44.65 Q54.05 -41.65 52.8 -34.25 51.5 -26.8 45.25 -22.3 38.95 -17.85 31.35 -18.9 25.9 -19.65 22.1 -22.95 L21.05 -23.9 20.1 -24.95" fill="#c0c0c0" fill-rule="evenodd" stroke="none"/>
      <path d="M43.95 -52.6 L44.85 -51.55 Q49.25 -45.6 47.95 -38.2 46.7 -30.75 40.45 -26.25 34.15 -21.8 26.55 -22.85 22.95 -23.35 20.1 -24.95 L19.25 -25.95 Q14.85 -31.95 16.15 -39.35 17.45 -46.8 23.7 -51.3 30.0 -55.75 37.6 -54.65 40.25 -54.3 42.55 -53.3 L42.9 -53.15 43.95 -52.6" fill="#e6e6e6" fill-rule="evenodd" stroke="none"/>
      <path d="M21.05 -23.9 L22.1 -22.95 Q25.9 -19.65 31.35 -18.9 38.95 -17.85 45.25 -22.3 51.5 -26.8 52.8 -34.25 54.05 -41.65 51.8 -44.65 M48.5 -49.0 Q47.4 -50.4 44.75 -52.15 L42.9 -53.15 42.55 -53.3 Q40.25 -54.3 37.6 -54.65 30.0 -55.75 23.7 -51.3 17.45 -46.8 16.15 -39.35 14.85 -31.95 19.25 -25.95 L21.05 -23.9" fill="none" stroke="#323232" stroke-linecap="round" stroke-linejoin="round" stroke-width="1.5"/>
    </g>
    <g id="shape11" transform="matrix(1.0, 0.0, 0.0, 1.0, 14.4, 14.4)">
      <path d="M10.2 -10.15 Q14.4 -5.95 14.4 0.0 14.4 6.0 10.2 10.2 5.95 14.4 0.0 14.45 -6.0 14.4 -10.2 10.2 -14.4 6.0 -14.4 0.0 -14.4 -5.95 -10.2 -10.15 -6.0 -14.4 0.0 -14.4 5.95 -14.4 10.2 -10.15" fill="#e666cc" fill-rule="evenodd" stroke="none"/>
      <path d="M5.65 -5.1 Q7.8 -2.9 7.85 0.2 7.8 3.3 5.65 5.5 3.45 7.7 0.35 7.7 -2.8 7.7 -4.95 5.5 -7.15 3.3 -7.15 0.2 -7.15 -2.9 -4.95 -5.1 -2.8 -7.3 0.35 -7.25 3.45 -7.3 5.65 -5.1" fill="#993232" fill-rule="evenodd" stroke="none"/>
      <path d="M9.7 -3.4 Q8.25 -1.95 6.2 -1.95 4.1 -1.95 2.65 -3.4 1.2 -4.85 1.2 -6.9 1.2 -9.0 2.65 -10.45 4.1 -11.9 6.2 -11.9 8.25 -11.9 9.7 -10.45 11.15 -9.0 11.15 -6.9 11.15 -4.85 9.7 -3.4 M-6.2 6.35 Q-6.95 5.6 -6.95 4.55 -6.95 3.5 -6.2 2.8 -5.5 2.05 -4.45 2.05 -3.4 2.05 -2.7 2.8 -1.95 3.5 -1.95 4.55 -1.95 5.6 -2.7 6.35 -3.4 7.05 -4.45 7.05 -5.5 7.05 -6.2 6.35" fill="#e6e6e6" fill-rule="evenodd" stroke="none"/>
    </g>
    <g id="shape12" transform="matrix(1.0, 0.0, 0.0, 1.0, 32.95, -20.55)">
      <path d="M2.25 48.35 Q0.4 49.0 -7.55 46.9 -15.5 44.85 -21.3 42.75 -27.1 40.65 -30.95 37.2 -33.0 35.35 -32.95 32.6 -32.85 30.1 -31.15 26.9 -27.65 20.15 -24.5 20.6 -21.4 21.0 -16.65 23.8 -12.15 26.35 -7.45 30.45 -2.6 34.7 0.45 38.7 3.9 43.2 4.0 46.0 4.0 47.7 2.25 48.35" fill="#5a2c2c" fill-rule="evenodd" stroke="none"/>
    </g>
    <g id="shape13" transform="matrix(1.0, 0.0, 0.0, 1.0, -1.2, 10.7)">
      <path d="M14.6 -5.9 Q21.05 -9.3 28.75 -9.9 59.65 -12.2 73.9 -7.85 88.15 -3.55 88.2 10.35 88.2 24.25 81.35 34.0 74.5 43.7 63.65 37.8 54.05 44.95 43.9 37.75 40.95 39.85 37.3 40.45 28.55 41.45 23.05 33.75 19.75 36.8 16.9 37.5 9.0 39.5 4.7 32.45 0.6 25.65 1.3 16.6 2.0 7.55 4.75 1.55 8.1 -2.5 14.6 -5.9 M70.0 -5.7 Q57.25 -10.2 35.95 -8.2 14.6 -6.25 7.45 1.6 4.75 5.15 3.95 16.5 14.6 8.2 25.05 17.4 35.0 10.35 44.2 17.85 55.25 10.7 64.5 19.1 71.35 11.8 85.0 12.75 85.55 8.8 84.15 3.75 82.75 -1.25 70.0 -5.7 M82.05 27.65 Q84.15 22.4 84.75 15.55 71.0 15.1 63.95 21.9 54.7 13.45 43.65 20.7 41.95 18.95 39.6 18.0 31.75 14.55 24.8 20.15 L20.95 17.85 Q10.55 11.25 3.45 21.4 3.75 26.75 8.05 32.15 13.95 38.2 23.9 30.15 25.4 34.15 28.65 35.75 36.8 39.8 44.35 34.8 54.5 42.25 63.7 34.85 L65.7 35.95 Q74.55 40.4 79.85 32.0 L82.05 27.7 82.05 27.65" fill="#323232" fill-rule="evenodd" stroke="none"/>
      <path d="M70.0 -5.7 Q82.75 -1.25 84.15 3.75 85.55 8.8 85.0 12.75 71.35 11.8 64.5 19.1 55.25 10.7 44.2 17.85 35.0 10.35 25.05 17.4 14.6 8.2 3.95 16.5 4.75 5.15 7.45 1.6 14.6 -6.25 35.95 -8.2 57.25 -10.2 70.0 -5.7" fill="#c96598" fill-rule="evenodd" stroke="none"/>
      <path d="M23.9 30.15 Q26.3 24.8 34.15 25.7 41.95 26.55 44.0 30.7 49.75 24.35 55.95 26.1 62.15 27.8 63.15 30.7 71.25 22.45 82.05 27.65 L82.05 27.7 79.85 32.0 Q74.55 40.4 65.7 35.95 L63.7 34.85 Q54.5 42.25 44.35 34.8 36.8 39.8 28.65 35.75 25.4 34.15 23.9 30.15" fill="#d3dbdc" fill-rule="evenodd" stroke="none"/>
      <path d="M23.9 30.15 Q13.95 38.2 8.05 32.15 3.75 26.75 3.45 21.4 10.55 11.25 20.95 17.85 L24.8 20.15 Q31.75 14.55 39.6 18.0 41.95 18.95 43.65 20.7 54.7 13.45 63.95 21.9 71.0 15.1 84.75 15.55 84.15 22.4 82.05 27.65 71.25 22.45 63.15 30.7 62.15 27.8 55.95 26.1 49.75 24.35 44.0 30.7 41.95 26.55 34.15 25.7 26.3 24.8 23.9 30.15" fill="#a7b9ba" fill-rule="evenodd" stroke="none"/>
    </g>
    <g id="shape14" transform="matrix(1.0, 0.0, 0.0, 1.0, 34.2, -19.3)">
      <path d="M2.25 48.35 Q0.4 49.0 -7.55 46.9 -15.5 44.85 -21.3 42.75 -27.1 40.65 -30.95 37.2 -33.0 35.35 -32.95 32.6 -32.85 30.1 -31.15 26.9 -27.65 20.15 -24.5 20.6 -21.4 21.0 -16.65 23.8 -12.15 26.35 -7.45 30.45 -2.6 34.7 0.45 38.7 3.9 43.2 4.0 46.0 4.0 47.7 2.25 48.35 Z" fill="none" stroke="#323232" stroke-linecap="round" stroke-linejoin="round" stroke-width="2.5"/>
    </g>
    <g id="shape15" transform="matrix(1.0, 0.0, 0.0, 1.0, -126.85, -11.5)">
      <path d="M129.75 14.95 Q127.9 12.7 132.25 11.65 136.65 10.85 141.45 14.0 L143.7 15.1 190.15 43.05 Q194.75 45.95 199.15 49.1 L200.35 49.95 Q204.6 53.1 208.6 56.75 L213.25 61.85 213.25 61.9 Q217.75 68.65 214.1 75.1 210.45 81.5 205.15 80.7 199.9 79.85 190.3 69.3 180.7 58.75 165.75 47.1 156.2 39.6 146.15 32.55 L139.4 27.85 126.85 19.1 Q126.75 17.55 128.0 17.45 L150.2 32.85 163.35 42.55 Q171.65 48.7 179.85 55.7 188.05 62.65 195.0 70.2 201.9 77.7 205.75 77.35 209.55 77.0 211.7 73.4 214.5 67.5 210.4 61.85 205.35 56.7 199.7 52.35 194.55 48.4 188.9 45.05 L142.8 17.1 Q135.8 11.9 129.75 14.95 M211.7 73.4 L211.75 73.4 211.7 73.4" fill="#323232" fill-rule="evenodd" stroke="none"/>
      <path d="M211.7 73.4 L211.75 73.4 211.7 73.4" fill="#bd1c1c" fill-rule="evenodd" stroke="none"/>
      <path d="M211.7 73.4 Q209.55 77.0 205.75 77.35 201.9 77.7 195.0 70.2 188.05 62.65 179.85 55.7 171.65 48.7 163.35 42.55 L150.2 32.85 128.0 17.45 129.6 15.15 129.45 15.1 129.55 15.05 129.75 14.95 175.55 46.75 Q184.8 52.85 190.15 58.1 195.45 63.3 202.55 68.6 207.85 72.55 211.7 73.4 M129.75 15.0 L130.1 15.35 129.75 14.95 129.75 15.0" fill="#bd3232" fill-rule="evenodd" stroke="none"/>
      <path d="M129.75 14.95 Q135.8 11.9 142.8 17.1 L188.9 45.05 Q194.55 48.4 199.7 52.35 205.35 56.7 210.4 61.85 214.5 67.5 211.7 73.4 207.85 72.55 202.55 68.6 195.45 63.3 190.15 58.1 184.8 52.85 175.55 46.75 L129.75 14.95 130.1 15.35 129.75 15.0 129.75 14.95" fill="#e63232" fill-rule="evenodd" stroke="none"/>
    </g>
    <g id="shape16" transform="matrix(1.0, 0.0, 0.0, 1.0, 33.8, 32.8)">
      <path d="M-25.5 -20.0 Q-21.8 -24.45 -16.3 -27.5 -4.5 -34.05 8.65 -30.65 21.8 -27.25 28.6 -15.85 35.5 -4.5 31.95 8.2 L31.25 10.4 Q27.55 14.8 22.0 17.85 10.15 24.45 -3.0 21.05 -16.15 17.65 -22.95 6.25 -29.75 -5.15 -26.2 -17.75 L-25.5 -20.0" fill="#e6e6e6" fill-rule="evenodd" stroke="none"/>
      <path d="M31.25 10.4 Q27.35 21.4 16.6 27.4 4.75 33.95 -8.4 30.55 -21.55 27.15 -28.4 15.75 -35.15 4.35 -31.6 -8.25 -29.75 -15.0 -25.5 -20.0 L-26.2 -17.75 Q-29.75 -5.15 -22.95 6.25 -16.15 17.65 -3.0 21.05 10.15 24.45 22.0 17.85 27.55 14.8 31.25 10.4" fill="#c0c0c0" fill-rule="evenodd" stroke="none"/>
      <path d="M28.6 -15.85 Q35.5 -4.5 31.95 8.2 28.4 20.8 16.6 27.4 4.75 33.95 -8.4 30.55 -21.55 27.15 -28.4 15.75 -35.15 4.35 -31.6 -8.25 -28.1 -20.9 -16.3 -27.5 -4.5 -34.05 8.65 -30.65 21.8 -27.25 28.6 -15.85 Z" fill="none" stroke="#323232" stroke-linecap="round" stroke-linejoin="round" stroke-width="2.0"/>
    </g>
    <g id="shape17" transform="matrix(1.0, 0.0, 0.0, 1.0, -196.95, -59.65)">
      <path d="M247.55 209.05 L250.2 209.05 Q251.5 206.65 250.65 204.0 249.65 200.95 247.2 195.95 L237.75 177.45 Q236.4 174.55 236.05 172.75 235.5 170.3 235.45 167.8 L234.75 153.8 230.7 117.05 229.15 107.5 Q228.05 101.85 226.6 96.25 225.35 91.5 223.7 86.9 221.4 80.7 218.3 74.85 215.7 70.05 212.55 65.4 210.2 61.45 207.35 59.85 212.0 61.05 214.9 64.9 217.8 68.75 220.2 73.75 L225.0 83.85 Q227.35 89.55 228.85 95.5 L231.4 106.95 233.0 116.65 235.65 137.65 237.6 162.0 Q237.9 167.3 237.7 168.0 242.2 182.8 247.05 191.75 251.85 200.7 252.4 202.35 L253.0 205.1 253.15 207.5 252.95 208.5 252.2 210.05 251.0 211.4 246.0 211.8 Q241.45 212.05 233.25 207.1 225.0 202.05 223.1 200.0 221.15 197.95 219.05 194.55 216.8 190.9 215.45 187.15 213.6 182.2 213.0 177.05 212.45 171.9 212.85 166.6 213.35 160.75 213.4 154.9 213.5 146.1 212.65 137.25 211.8 128.5 210.35 119.85 208.8 111.05 206.55 102.5 203.45 90.95 199.15 79.7 198.4 77.95 197.35 73.3 196.3 68.65 198.0 63.95 197.8 71.55 200.9 78.35 203.45 84.05 205.35 90.4 L211.3 113.65 213.35 125.3 214.85 137.05 Q215.8 145.9 215.75 154.85 L215.5 174.8 Q215.45 176.8 215.8 178.85 217.05 187.6 222.1 194.8 L224.5 197.9 Q229.35 203.65 236.55 205.95 L247.55 209.05" fill="#323232" fill-rule="evenodd" stroke="none"/>
      <path d="M198.0 63.95 Q199.8 69.1 201.75 73.4 203.65 77.65 206.95 82.6 210.2 87.55 212.5 96.55 L217.25 116.9 220.75 138.2 223.05 160.35 224.05 183.2 Q230.75 194.15 247.55 209.05 L236.55 205.95 Q229.35 203.65 224.5 197.9 L222.1 194.8 Q217.05 187.6 215.8 178.85 215.45 176.8 215.5 174.8 L215.75 154.85 Q215.8 145.9 214.85 137.05 L213.35 125.3 211.3 113.65 205.35 90.4 Q203.45 84.05 200.9 78.35 197.8 71.55 198.0 63.95" fill="#bd3232" fill-rule="evenodd" stroke="none"/>
      <path d="M247.55 209.05 Q230.75 194.15 224.05 183.2 L223.05 160.35 220.75 138.2 217.25 116.9 212.5 96.55 Q210.2 87.55 206.95 82.6 203.65 77.65 201.75 73.4 199.8 69.1 198.0 63.95 200.35 58.7 207.35 59.85 210.2 61.45 212.55 65.4 215.7 70.05 218.3 74.85 221.4 80.7 223.7 86.9 225.35 91.5 226.6 96.25 228.05 101.85 229.15 107.5 L230.7 117.05 234.75 153.8 235.45 167.8 Q235.5 170.3 236.05 172.75 236.4 174.55 237.75 177.45 L247.2 195.95 Q249.65 200.95 250.65 204.0 251.5 206.65 250.2 209.05 L247.55 209.05" fill="#e63232" fill-rule="evenodd" stroke="none"/>
    </g>
    <g id="shape18" transform="matrix(1.0, 0.0, 0.0, 1.0, 14.35, 5.7)">
      <path d="M9.75 -1.0 L12.3 1.6 Q13.65 3.15 14.35 5.75 13.95 5.0 12.2 3.8 6.35 -0.3 -0.75 -0.9 -7.9 -1.55 -12.9 -0.1 -14.25 -0.7 -14.35 -1.9 -14.5 -3.1 -13.7 -4.3 -11.05 -5.35 -5.7 -5.65 -0.35 -5.95 4.1 -3.95 8.5 -2.05 9.75 -1.0" fill="#323232" fill-rule="evenodd" stroke="none"/>
    </g>
  </defs>
</svg>
