<?xml version="1.0" encoding="UTF-8" standalone="no"?>
<svg xmlns:ffdec="https://www.free-decompiler.com/flash" xmlns:xlink="http://www.w3.org/1999/xlink" ffdec:objectType="frame" height="38.5px" width="136.4px" xmlns="http://www.w3.org/2000/svg">
  <g transform="matrix(1.0, 0.0, 0.0, 1.0, 33.95, 6.95)">
    <use ffdec:characterId="1466" height="29.65" transform="matrix(1.0, 0.0, 0.0, 1.0, -1.5, -0.45)" width="29.7" xlink:href="#sprite0"/>
    <use ffdec:characterId="1488" height="28.4" transform="matrix(1.0563, -0.4657, 0.4659, 1.0558, -3.449, 1.2531)" width="17.6" xlink:href="#sprite1"/>
    <use ffdec:characterId="1470" height="20.6" id="bar_mc" transform="matrix(1.0, 0.0, 0.0, 1.0, -33.95, 5.5)" width="136.4" xlink:href="#sprite3"/>
    <use ffdec:characterId="1472" height="31.0" id="bt" transform="matrix(1.0, 0.0, 0.0, 1.0, -1.5, -1.8)" width="103.0" xlink:href="#button0"/>
  </g>
  <defs>
    <g id="sprite0" transform="matrix(1.0, 0.0, 0.0, 1.0, -159.95, -144.95)">
      <use ffdec:characterId="1465" height="29.65" transform="matrix(1.0, 0.0, 0.0, 1.0, 159.95, 144.95)" width="29.7" xlink:href="#shape0"/>
    </g>
    <g id="shape0" transform="matrix(1.0, 0.0, 0.0, 1.0, -159.95, -144.95)">
      <path d="M162.1 160.45 Q162.1 154.95 166.0 151.05 169.85 147.1 175.45 147.1 180.95 147.1 184.85 151.05 188.75 154.95 188.75 160.45 188.75 166.0 184.85 169.85 180.95 173.7 175.45 173.7 169.85 173.7 166.0 169.85 162.1 166.0 162.1 160.45 Z" fill="none" stroke="#000000" stroke-linecap="round" stroke-linejoin="round" stroke-opacity="0.2" stroke-width="1.8"/>
      <path d="M183.1 168.1 Q186.6 164.6 186.6 159.55 186.6 154.5 183.1 151.0 179.5 147.4 174.5 147.4 169.45 147.4 165.9 151.0 162.4 154.5 162.4 159.55 162.4 164.6 165.9 168.1 169.45 171.6 174.5 171.6 179.5 171.6 183.1 168.1 M183.75 168.75 Q179.9 172.5 174.5 172.5 169.05 172.5 165.25 168.75 161.45 164.95 161.45 159.5 161.45 154.1 165.25 150.3 169.05 146.45 174.5 146.45 179.9 146.45 183.75 150.3 187.55 154.1 187.55 159.5 187.55 164.95 183.75 168.75" fill="#ffffff" fill-opacity="0.50980395" fill-rule="evenodd" stroke="none"/>
      <path d="M183.1 168.1 Q179.5 171.6 174.5 171.6 169.45 171.6 165.9 168.1 162.4 164.6 162.4 159.55 162.4 154.5 165.9 151.0 169.45 147.4 174.5 147.4 179.5 147.4 183.1 151.0 186.6 154.5 186.6 159.55 186.6 164.6 183.1 168.1" fill="#ffffff" fill-rule="evenodd" stroke="none"/>
      <path d="M183.75 168.75 Q179.9 172.5 174.5 172.5 169.05 172.5 165.25 168.75 161.45 164.95 161.45 159.5 161.45 154.1 165.25 150.3 169.05 146.45 174.5 146.45 179.9 146.45 183.75 150.3 187.55 154.1 187.55 159.5 187.55 164.95 183.75 168.75" fill="none" stroke="#7d0c9c" stroke-linecap="round" stroke-linejoin="round" stroke-width="2.0"/>
      <path d="M183.1 168.1 Q179.5 171.6 174.5 171.6 169.45 171.6 165.9 168.1 162.4 164.6 162.4 159.55 162.4 154.5 165.9 151.0 169.45 147.4 174.5 147.4 179.5 147.4 183.1 151.0 186.6 154.5 186.6 159.55 186.6 164.6 183.1 168.1 Z" fill="none" stroke="#000000" stroke-linecap="round" stroke-linejoin="round" stroke-opacity="0.21176471" stroke-width="1.0"/>
      <path d="M184.75 153.95 Q183.9 151.1 181.85 148.7 L183.75 150.3 Q187.55 154.1 187.55 159.5 187.55 164.95 183.75 168.75 179.9 172.5 174.5 172.5 169.05 172.5 165.25 168.75 164.1 167.6 163.3 166.25 167.65 168.15 171.7 168.55 175.8 168.95 178.4 167.65 183.5 165.35 185.05 158.4 185.5 156.5 184.75 153.95" fill="#000000" fill-opacity="0.2" fill-rule="evenodd" stroke="none"/>
      <path d="M170.85 150.6 L170.15 150.3 169.95 149.65 170.15 148.95 170.85 148.7 Q171.3 148.7 171.55 148.95 L171.85 149.65 171.55 150.3 Q171.3 150.6 170.85 150.6 M167.75 150.6 Q168.1 150.25 168.55 150.25 169.05 150.25 169.35 150.6 169.7 150.95 169.7 151.4 169.7 151.9 169.35 152.2 169.05 152.55 168.55 152.55 168.1 152.55 167.75 152.2 167.4 151.9 167.4 151.4 167.4 150.95 167.75 150.6" fill="#ffffff" fill-rule="evenodd" stroke="none"/>
      <path d="M165.25 168.75 Q161.45 164.95 161.45 159.5 161.45 154.1 165.25 150.3 169.05 146.45 174.5 146.45 179.9 146.45 183.75 150.3 187.55 154.1 187.55 159.5 187.55 164.95 183.75 168.75 179.9 172.5 174.5 172.5 169.05 172.5 165.25 168.75 Z" fill="none" stroke="#7d0c9c" stroke-linecap="round" stroke-linejoin="round" stroke-width="3.0"/>
      <path d="M183.75 168.4 Q179.9 172.15 174.5 172.15 169.05 172.15 165.25 168.4 161.45 164.6 161.45 159.15 161.45 153.75 165.25 149.95 169.05 146.1 174.5 146.1 179.9 146.1 183.75 149.95 187.55 153.75 187.55 159.15 187.55 164.6 183.75 168.4 Z" fill="none" stroke="#ffffff" stroke-linecap="round" stroke-linejoin="round" stroke-opacity="0.2" stroke-width="1.0"/>
    </g>
    <g id="sprite1" transform="matrix(1.0, 0.0, 0.0, 1.0, -31.25, -65.55)">
      <use ffdec:characterId="1484" height="28.15" transform="matrix(1.0, 0.0, 0.0, 1.0, 31.25, 65.8)" width="17.6" xlink:href="#shape1"/>
      <use ffdec:characterId="1486" height="55.85" transform="matrix(0.2522, 0.0, 0.0, 0.3115, 36.2347, 73.6385)" width="37.25" xlink:href="#sprite2"/>
      <use ffdec:characterId="1487" height="7.5" transform="matrix(1.0, 0.0, 0.0, 1.0, 34.15, 65.55)" width="14.05" xlink:href="#shape3"/>
    </g>
    <g id="shape1" transform="matrix(1.0, 0.0, 0.0, 1.0, -31.25, -65.8)">
      <path d="M34.35 67.4 Q36.7 66.55 40.05 66.55 43.35 66.55 45.7 67.4 48.1 68.25 48.1 69.4 L48.1 89.95 Q48.05 91.1 45.65 92.15 43.3 93.15 39.9 93.2 36.6 93.2 34.35 92.15 32.0 91.1 32.0 89.95 L32.0 69.4 Q32.0 68.25 34.35 67.4 Z" fill="none" stroke="#151515" stroke-linecap="round" stroke-linejoin="round" stroke-width="1.5"/>
      <path d="M32.0 69.55 L32.05 69.85 32.35 70.3 Q32.9 70.9 34.35 71.45 36.7 72.3 40.05 72.3 43.35 72.3 45.7 71.45 L46.7 71.05 Q46.9 70.9 47.05 70.85 L47.6 70.4 48.0 69.9 48.1 69.45 48.1 75.8 Q48.05 77.0 45.7 77.8 43.35 78.65 40.05 78.65 36.7 78.65 34.35 77.8 32.05 77.0 32.0 75.85 L32.0 69.55" fill="url(#gradient0)" fill-rule="evenodd" stroke="none"/>
      <path d="M48.1 75.8 L48.1 89.5 Q48.05 90.65 45.65 91.6 43.3 92.6 39.9 92.6 36.6 92.7 34.3 91.7 32.05 90.65 32.0 89.55 L32.0 75.85 Q32.05 77.0 34.35 77.8 36.7 78.65 40.05 78.65 43.35 78.65 45.7 77.8 48.05 77.0 48.1 75.8" fill="url(#gradient1)" fill-rule="evenodd" stroke="none"/>
      <path d="M32.0 69.55 L32.0 69.4 Q32.0 68.25 34.35 67.4 36.7 66.55 40.05 66.55 43.35 66.55 45.7 67.4 46.65 67.7 47.2 68.05 L48.0 68.9 48.05 69.1 48.1 69.4 48.1 69.45 48.0 69.9 47.6 70.4 47.05 70.85 Q46.9 70.9 46.7 71.05 L45.7 71.45 Q43.35 72.3 40.05 72.3 36.7 72.3 34.35 71.45 32.9 70.9 32.35 70.3 L32.05 69.85 32.0 69.55" fill="url(#gradient2)" fill-rule="evenodd" stroke="none"/>
      <path d="M33.4 71.05 Q40.1 73.6 46.6 71.2" fill="none" stroke="#ffffff" stroke-linecap="round" stroke-linejoin="round" stroke-opacity="0.4" stroke-width="1.5"/>
    </g>
    <radialGradient cx="0" cy="0" gradientTransform="matrix(0.0099, 0.0, 0.0, 0.0086, 40.7, 74.15)" gradientUnits="userSpaceOnUse" id="gradient0" r="819.2" spreadMethod="pad">
      <stop offset="0.3176470588235294" stop-color="#ff9933"/>
      <stop offset="0.47843137254901963" stop-color="#f9932f"/>
      <stop offset="1.0" stop-color="#b64f00"/>
    </radialGradient>
    <radialGradient cx="0" cy="0" gradientTransform="matrix(0.0091, 0.0, 0.0, 0.0112, 40.8, 83.25)" gradientUnits="userSpaceOnUse" id="gradient1" r="819.2" spreadMethod="pad">
      <stop offset="0.3254901960784314" stop-color="#464646"/>
      <stop offset="0.5137254901960784" stop-color="#414141"/>
      <stop offset="1.0" stop-color="#202020"/>
    </radialGradient>
    <radialGradient cx="0" cy="0" gradientTransform="matrix(0.0152, 0.0, 0.0, 0.0055, 40.15, 69.6)" gradientUnits="userSpaceOnUse" id="gradient2" r="819.2" spreadMethod="pad">
      <stop offset="0.3176470588235294" stop-color="#ff9933"/>
      <stop offset="0.7725490196078432" stop-color="#b64f00"/>
      <stop offset="1.0" stop-color="#ffbd58"/>
    </radialGradient>
    <g id="sprite2" transform="matrix(1.0, 0.0, 0.0, 1.0, 1.25, 1.0)">
      <use ffdec:characterId="1485" height="55.85" transform="matrix(1.0, 0.0, 0.0, 1.0, -1.25, -1.0)" width="37.25" xlink:href="#shape2"/>
    </g>
    <g id="shape2" transform="matrix(1.0, 0.0, 0.0, 1.0, 1.25, 1.0)">
      <path d="M0.75 30.5 L13.35 28.15 Q8.35 39.0 3.65 53.85 19.0 37.8 35.0 14.55 L21.2 17.4 31.3 1.4 7.15 9.25 0.75 30.5 Z" ffdec:has-small-stroke="true" ffdec:original-stroke-width="2.0" fill="none" stroke="#00b3e0" stroke-linecap="round" stroke-linejoin="round" stroke-width="3.0564991988423253"/>
      <path d="M6.15 7.85 L30.3 0.0 20.2 16.0 34.0 13.15 Q18.0 36.4 2.65 52.45 7.35 37.6 12.35 26.75 L-0.25 29.1 6.15 7.85" fill="#9cebff" fill-rule="evenodd" stroke="none"/>
      <path d="M6.15 7.85 L-0.25 29.1 12.35 26.75 Q7.35 37.6 2.65 52.45 18.0 36.4 34.0 13.15 L20.2 16.0 30.3 0.0 6.15 7.85 Z" ffdec:has-small-stroke="true" ffdec:original-stroke-width="2.0" fill="none" stroke="#00ccff" stroke-linecap="round" stroke-linejoin="round" stroke-width="3.0564991988423253"/>
      <path d="M30.35 16.1 L21.5 17.9 M27.25 2.75 L8.0 8.95 2.6 26.9 M14.2 28.65 Q10.3 37.05 6.65 47.9" ffdec:has-small-stroke="true" ffdec:original-stroke-width="2.0" fill="none" stroke="#ffffff" stroke-linecap="round" stroke-linejoin="round" stroke-width="3.0564991988423253"/>
      <path d="M30.3 0.0 L6.15 7.85 -0.25 29.1 12.35 26.75 Q7.35 37.6 2.65 52.45 18.0 36.4 34.0 13.15 L20.2 16.0 30.3 0.0 Z" ffdec:has-small-stroke="true" ffdec:original-stroke-width="2.0" fill="none" stroke="#00ccff" stroke-linecap="round" stroke-linejoin="round" stroke-width="3.0564991988423253"/>
    </g>
    <g id="shape3" transform="matrix(1.0, 0.0, 0.0, 1.0, -34.15, -65.55)">
      <path d="M37.5 66.7 L39.75 66.5 42.05 66.7 43.75 67.1 Q45.4 67.7 45.4 68.55 45.35 69.4 43.75 69.95 L39.75 70.55 Q37.45 70.55 35.8 69.95 34.15 69.4 34.15 68.55 34.15 67.7 35.8 67.1 L37.5 66.7 M39.75 66.8 L37.75 66.9 36.25 67.3 Q34.75 67.75 34.75 68.55 34.8 69.3 36.25 69.8 L39.75 70.35 43.3 69.8 Q44.7 69.3 44.75 68.55 44.75 67.75 43.3 67.3 L41.75 66.9 39.75 66.8" fill="#666666" fill-rule="evenodd" stroke="none"/>
      <path d="M39.75 66.8 L41.75 66.9 43.3 67.3 Q44.75 67.75 44.75 68.55 44.7 69.3 43.3 69.8 L39.75 70.35 36.25 69.8 Q34.8 69.3 34.75 68.55 34.75 67.75 36.25 67.3 L37.75 66.9 39.75 66.8 M38.35 67.4 L37.3 67.65 Q36.25 68.05 36.25 68.55 36.3 69.05 37.3 69.4 L39.75 69.8 42.2 69.4 Q43.25 69.05 43.3 68.55 43.3 68.05 42.2 67.65 L41.2 67.4 39.75 67.3 38.35 67.4" fill="#999999" fill-rule="evenodd" stroke="none"/>
      <path d="M38.35 67.4 L39.75 67.3 41.2 67.4 42.2 67.65 Q43.3 68.05 43.3 68.55 43.25 69.05 42.2 69.4 L39.75 69.8 37.3 69.4 Q36.3 69.05 36.25 68.55 36.25 68.05 37.3 67.65 L38.35 67.4" fill="#707070" fill-rule="evenodd" stroke="none"/>
      <path d="M36.95 66.5 L37.15 66.1 37.75 65.75 39.8 65.55 41.8 65.75 42.35 66.1 42.6 66.45 42.6 66.5 Q42.6 66.95 41.8 67.25 L41.45 67.3 39.8 67.6 38.05 67.3 37.75 67.25 Q36.95 66.95 36.95 66.5" fill="#999999" fill-rule="evenodd" stroke="none"/>
      <path d="M42.6 66.5 L42.9 68.15 Q42.9 68.6 41.95 68.95 L39.8 69.25 37.45 68.95 Q36.6 68.6 36.6 68.15 L36.95 66.5 Q36.95 66.95 37.75 67.25 L38.05 67.3 39.8 67.6 41.45 67.3 41.8 67.25 Q42.6 66.95 42.6 66.5" fill="url(#gradient3)" fill-rule="evenodd" stroke="none"/>
      <path d="M43.65 73.0 L43.15 72.5 Q43.05 72.15 43.2 71.8 L43.65 71.3 44.35 71.35 44.85 71.8 44.85 72.5 44.35 73.0 43.65 73.0 M47.35 72.65 L46.3 72.6 Q45.8 72.4 45.6 71.9 45.4 71.4 45.6 70.85 45.85 70.35 46.35 70.15 L47.35 70.2 48.1 70.9 Q48.3 71.4 48.1 71.95 L47.35 72.65" fill="#ffffff" fill-opacity="0.4" fill-rule="evenodd" stroke="none"/>
    </g>
    <radialGradient cx="0" cy="0" gradientTransform="matrix(0.0036, 0.0, 0.0, 0.0021, 40.1, 67.8)" gradientUnits="userSpaceOnUse" id="gradient3" r="819.2" spreadMethod="pad">
      <stop offset="0.3254901960784314" stop-color="#878787"/>
      <stop offset="1.0" stop-color="#5d5d5d"/>
    </radialGradient>
    <g id="sprite3" transform="matrix(1.0, 0.0, 0.0, 1.0, 66.3, 0.0)">
      <use ffdec:characterId="256" height="17.05" transform="matrix(1.0, 0.0, 0.0, 1.0, -0.05, 1.65)" width="70.15" xlink:href="#shape4"/>
      <clipPath id="clipPath0">
        <path d="M 6.15 2.25 L 5.86 2.26 L 5.57 2.28 L 5.29 2.33 L 5.02 2.38 L 4.75 2.46 L 4.49 2.55 L 4.23 2.66 L 3.97 2.79 L 3.73 2.93 L 3.49 3.09 L 3.25 3.27 L 3.02 3.46 L 2.79 3.67 L 2.57 3.9 L 2.36 4.14 L 2.15 4.4 L 1.96 4.67 L 1.77 4.94 L 1.61 5.22 L 1.45 5.51 L 1.31 5.8 L 1.17 6.1 L 1.06 6.41 L 0.95 6.72 L 0.86 7.05 L 0.77 7.38 L 0.71 7.71 L 0.65 8.06 L 0.61 8.41 L 0.57 8.76 L 0.56 9.13 L 0.55 9.5 L 0.56 9.87 L 0.57 10.23 L 0.61 10.58 L 0.65 10.93 L 0.71 11.27 L 0.77 11.6 L 0.86 11.93 L 0.95 12.25 L 1.06 12.57 L 1.17 12.88 L 1.31 13.18 L 1.45 13.48 L 1.61 13.77 L 1.77 14.05 L 1.96 14.33 L 2.15 14.6 L 2.36 14.85 L 2.57 15.09 L 2.79 15.31 L 3.02 15.52 L 3.25 15.71 L 3.49 15.88 L 3.73 16.04 L 3.97 16.17 L 4.23 16.3 L 4.49 16.4 L 4.75 16.49 L 5.02 16.57 L 5.29 16.63 L 5.57 16.67 L 5.86 16.69 L 6.15 16.7 L 62.65 16.7 L 62.92 16.69 L 63.19 16.67 L 63.46 16.63 L 63.72 16.57 L 63.98 16.49 L 64.24 16.4 L 64.49 16.3 L 64.74 16.17 L 64.98 16.04 L 65.22 15.88 L 65.46 15.71 L 65.7 15.52 L 65.93 15.31 L 66.16 15.09 L 66.38 14.85 L 66.6 14.6 L 66.8 14.33 L 66.99 14.05 L 67.16 13.77 L 67.32 13.48 L 67.47 13.18 L 67.61 12.88 L 67.73 12.57 L 67.84 12.25 L 67.93 11.93 L 68.02 11.6 L 68.09 11.27 L 68.15 10.93 L 68.19 10.58 L 68.22 10.23 L 68.24 9.87 L 68.25 9.5 L 68.24 9.13 L 68.22 8.76 L 68.19 8.41 L 68.15 8.06 L 68.09 7.71 L 68.02 7.38 L 67.93 7.05 L 67.84 6.72 L 67.73 6.41 L 67.61 6.1 L 67.47 5.8 L 67.32 5.51 L 67.16 5.22 L 66.99 4.94 L 66.8 4.67 L 66.6 4.4 L 66.38 4.14 L 66.16 3.9 L 65.93 3.67 L 65.7 3.46 L 65.46 3.27 L 65.22 3.09 L 64.98 2.93 L 64.74 2.79 L 64.49 2.66 L 64.24 2.55 L 63.98 2.46 L 63.72 2.38 L 63.46 2.33 L 63.19 2.28 L 62.92 2.26 L 62.65 2.25 Z"/>
      </clipPath>
      <g clip-path="url(#clipPath0)">
        <use ffdec:characterId="1469" height="22.1" transform="matrix(0.9325, 0.0, 0.0, 0.9321, -66.3001, 1.0E-4)" width="72.6" xlink:href="#sprite4"/>
      </g>
      <use ffdec:characterId="260" height="15.95" transform="matrix(1.0, 0.0, 0.0, 1.0, -0.2, 1.5)" width="69.2" xlink:href="#shape6"/>
    </g>
    <g id="shape4" transform="matrix(1.0, 0.0, 0.0, 1.0, -201.3, -153.3)">
      <path d="M207.6 170.35 Q205.2 170.35 203.5 168.05 201.85 165.75 201.85 162.55 201.85 159.3 203.5 157.0 205.2 154.7 207.6 154.7 L265.7 154.7 Q267.95 154.7 269.75 157.0 271.45 159.3 271.45 162.55 271.45 165.75 269.75 168.05 267.95 170.35 265.7 170.35 L207.6 170.35" fill="#000000" fill-opacity="0.2" fill-rule="evenodd" stroke="none"/>
      <path d="M203.7 155.9 Q205.35 153.8 207.7 153.8 L263.95 153.8 Q266.15 153.8 267.9 155.9 269.55 158.0 269.55 161.0 269.55 164.0 267.9 166.1 266.15 168.2 263.95 168.2 L207.7 168.2 Q205.35 168.2 203.7 166.1 202.1 164.0 202.1 161.0 202.1 158.0 203.7 155.9" fill="#3c054a" fill-rule="evenodd" stroke="none"/>
      <path d="M203.5 156.05 Q205.15 153.9 207.5 153.9 L264.0 153.9 Q266.2 153.9 267.95 156.05 269.6 158.15 269.6 161.15 269.6 164.1 267.95 166.25 266.2 168.35 264.0 168.35 L207.5 168.35 Q205.15 168.35 203.5 166.25 201.9 164.1 201.9 161.15 201.9 158.15 203.5 156.05" fill="url(#gradient4)" fill-rule="evenodd" stroke="none"/>
      <path d="M203.5 156.05 Q201.9 158.15 201.9 161.15 201.9 164.1 203.5 166.25 205.15 168.35 207.5 168.35 L264.0 168.35 Q266.2 168.35 267.95 166.25 269.6 164.1 269.6 161.15 269.6 158.15 267.95 156.05 266.2 153.9 264.0 153.9 L207.5 153.9 Q205.15 153.9 203.5 156.05 Z" fill="none" stroke="#009900" stroke-linecap="round" stroke-linejoin="round" stroke-width="1.2000000000000002"/>
      <path d="M269.6 161.75 L269.3 160.0 Q268.9 158.5 267.95 157.3 266.2 155.15 264.0 155.15 L207.5 155.15 Q205.15 155.15 203.5 157.3 201.9 159.4 201.9 162.4" fill="none" stroke="#000000" stroke-linecap="round" stroke-linejoin="round" stroke-opacity="0.2" stroke-width="1.2000000000000002"/>
    </g>
    <linearGradient gradientTransform="matrix(1.0E-4, 0.0159, -0.0088, 0.0, 235.9, 163.95)" gradientUnits="userSpaceOnUse" id="gradient4" spreadMethod="pad" x1="-819.2" x2="819.2">
      <stop offset="0.00784313725490196" stop-color="#3c054a"/>
      <stop offset="0.21176470588235294" stop-color="#89489a"/>
      <stop offset="0.7372549019607844" stop-color="#3c054a"/>
    </linearGradient>
    <g id="sprite4" transform="matrix(1.0, 0.0, 0.0, 1.0, 36.3, 11.05)">
      <use ffdec:characterId="258" height="22.1" transform="matrix(1.0, 0.0, 0.0, 1.0, -36.3, -11.05)" width="72.6" xlink:href="#shape5"/>
    </g>
    <g id="shape5" transform="matrix(1.0, 0.0, 0.0, 1.0, 36.3, 11.05)">
      <path d="M36.3 -11.05 L36.3 11.05 -36.3 11.05 -36.3 -11.05 36.3 -11.05" fill="url(#gradient5)" fill-rule="evenodd" stroke="none"/>
    </g>
    <linearGradient gradientTransform="matrix(1.0E-4, 0.0122, -0.0135, 1.0E-4, -0.6, 0.05)" gradientUnits="userSpaceOnUse" id="gradient5" spreadMethod="pad" x1="-819.2" x2="819.2">
      <stop offset="0.00392156862745098" stop-color="#54c800"/>
      <stop offset="0.24705882352941178" stop-color="#ffff71"/>
      <stop offset="0.5843137254901961" stop-color="#54c800"/>
    </linearGradient>
    <g id="shape6" transform="matrix(1.0, 0.0, 0.0, 1.0, -201.15, -153.15)">
      <path d="M203.5 156.05 Q201.9 158.15 201.9 161.15 201.9 164.1 203.5 166.25 205.15 168.35 207.5 168.35 L264.0 168.35 Q266.2 168.35 267.95 166.25 269.6 164.1 269.6 161.15 269.6 158.15 267.95 156.05 266.2 153.9 264.0 153.9 L207.5 153.9 Q205.15 153.9 203.5 156.05 Z" fill="none" stroke="#007e00" stroke-linecap="round" stroke-linejoin="round" stroke-width="1.55"/>
      <path d="M206.15 157.65 Q206.55 158.05 206.55 158.65 206.55 159.25 206.15 159.65 205.75 160.05 205.15 160.05 204.55 160.05 204.15 159.65 203.75 159.25 203.75 158.65 203.75 158.05 204.15 157.65 204.55 157.25 205.15 157.25 205.75 157.25 206.15 157.65 M206.7 156.85 Q206.35 156.55 206.35 156.1 206.35 155.7 206.7 155.35 207.1 155.05 207.55 155.05 208.05 155.05 208.4 155.35 208.75 155.7 208.75 156.1 208.75 156.55 208.4 156.85 208.05 157.2 207.55 157.2 L206.7 156.85 M265.8 157.25 Q265.45 157.65 264.95 157.65 264.45 157.65 264.05 157.25 263.7 156.9 263.7 156.4 263.7 155.9 264.05 155.5 264.45 155.15 264.95 155.15 265.45 155.15 265.8 155.5 266.2 155.9 266.2 156.4 266.2 156.9 265.8 157.25" fill="#ffffff" fill-rule="evenodd" stroke="none"/>
    </g>
  </defs>
</svg>
