<?xml version="1.0" encoding="UTF-8" standalone="no"?>
<svg xmlns:ffdec="https://www.free-decompiler.com/flash" xmlns:xlink="http://www.w3.org/1999/xlink" ffdec:objectType="frame" height="35.2px" width="35.2px" xmlns="http://www.w3.org/2000/svg">
  <g transform="matrix(1.0, 0.0, 0.0, 1.0, 1.0, 1.0)">
    <use ffdec:characterId="2383" height="35.2" transform="matrix(1.0, 0.0, 0.0, 1.0, -1.0, -1.0)" width="35.2" xlink:href="#shape0"/>
  </g>
  <defs>
    <g id="shape0" transform="matrix(1.0, 0.0, 0.0, 1.0, 1.0, 1.0)">
      <path d="M28.3 28.3 Q23.45 33.2 16.6 33.2 9.75 33.2 4.9 28.3 0.0 23.45 0.0 16.6 0.0 9.75 4.9 4.85 9.75 0.0 16.6 0.0 23.45 0.0 28.3 4.85 33.2 9.75 33.2 16.6 33.2 23.45 28.3 28.3" fill="#f7ffff" fill-rule="evenodd" stroke="none"/>
      <path d="M28.3 28.3 Q23.45 33.2 16.6 33.2 9.75 33.2 4.9 28.3 0.0 23.45 0.0 16.6 0.0 9.75 4.9 4.85 9.75 0.0 16.6 0.0 23.45 0.0 28.3 4.85 33.2 9.75 33.2 16.6 33.2 23.45 28.3 28.3 Z" fill="none" stroke="#70d801" stroke-linecap="round" stroke-linejoin="round" stroke-width="2.0"/>
      <path d="M27.05 27.05 Q22.6 31.45 16.4 31.45 10.2 31.45 5.8 27.05 1.35 22.6 1.35 16.4 1.35 10.2 5.8 5.75 10.2 1.35 16.4 1.35 22.6 1.35 27.05 5.75 31.45 10.2 31.45 16.4 31.45 22.6 27.05 27.05" fill="#f7ffff" fill-rule="evenodd" stroke="none"/>
      <path d="M27.05 27.05 Q22.6 31.45 16.4 31.45 10.2 31.45 5.8 27.05 1.35 22.6 1.35 16.4 1.35 10.2 5.8 5.75 10.2 1.35 16.4 1.35 22.6 1.35 27.05 5.75 31.45 10.2 31.45 16.4 31.45 22.6 27.05 27.05 Z" fill="none" stroke="#ffffff" stroke-linecap="round" stroke-linejoin="round" stroke-width="2.0"/>
      <path d="M30.2 16.45 Q30.2 22.15 26.15 26.25 22.05 30.3 16.35 30.3 10.65 30.3 6.6 26.25 2.5 22.15 2.5 16.45 2.5 10.75 6.6 6.65 10.65 2.6 16.35 2.6 22.05 2.6 26.15 6.65 30.2 10.75 30.2 16.45" fill="#f7ffff" fill-rule="evenodd" stroke="none"/>
      <path d="M30.2 16.45 Q30.2 22.15 26.15 26.25 22.05 30.3 16.35 30.3 10.65 30.3 6.6 26.25 2.5 22.15 2.5 16.45 2.5 10.75 6.6 6.65 10.65 2.6 16.35 2.6 22.05 2.6 26.15 6.65 30.2 10.75 30.2 16.45 Z" fill="none" stroke="#bdff76" stroke-linecap="round" stroke-linejoin="round" stroke-width="2.5"/>
      <path d="M29.0 16.3 Q29.0 21.55 25.25 25.35 21.5 29.1 16.2 29.1 10.95 29.1 7.2 25.35 3.4 21.55 3.4 16.3 3.4 11.05 7.2 7.25 10.95 3.5 16.2 3.5 21.5 3.5 25.25 7.25 29.0 11.05 29.0 16.3" fill="#ddf2ff" fill-rule="evenodd" stroke="none"/>
      <path d="M29.0 16.3 Q29.0 21.55 25.25 25.35 21.5 29.1 16.2 29.1 10.95 29.1 7.2 25.35 3.4 21.55 3.4 16.3 3.4 11.05 7.2 7.25 10.95 3.5 16.2 3.5 21.5 3.5 25.25 7.25 29.0 11.05 29.0 16.3 Z" fill="none" stroke="#6bc414" stroke-linecap="round" stroke-linejoin="round" stroke-width="2.0"/>
    </g>
  </defs>
</svg>
