<?xml version="1.0" encoding="UTF-8" standalone="no"?>
<svg xmlns:ffdec="https://www.free-decompiler.com/flash" xmlns:xlink="http://www.w3.org/1999/xlink" ffdec:objectType="frame" height="10.0px" width="11.0px" xmlns="http://www.w3.org/2000/svg">
  <g transform="matrix(1.0, 0.0, 0.0, 1.0, 0.0, 0.0)">
    <use ffdec:characterId="146" height="10.0" transform="matrix(1.0, 0.0, 0.0, 1.0, 0.0, 0.0)" width="11.0" xlink:href="#shape0"/>
  </g>
  <defs>
    <g id="shape0" transform="matrix(1.0, 0.0, 0.0, 1.0, 0.0, 0.0)">
      <path d="M9.4 1.45 Q11.0 2.95 11.0 5.0 11.0 7.05 9.4 8.5 7.8 10.0 5.5 10.0 3.2 10.0 1.6 8.5 0.0 7.05 0.0 5.0 0.0 2.95 1.6 1.45 2.2 0.9 2.95 0.55 4.1 0.0 5.5 0.0 L7.7 0.4 Q8.6 0.75 9.4 1.45" fill="#4aa613" fill-rule="evenodd" stroke="none"/>
    </g>
  </defs>
</svg>
