<?xml version="1.0" encoding="UTF-8" standalone="no"?>
<svg xmlns:ffdec="https://www.free-decompiler.com/flash" xmlns:xlink="http://www.w3.org/1999/xlink" ffdec:objectType="frame" height="20.05px" width="101.75px" xmlns="http://www.w3.org/2000/svg">
  <g transform="matrix(1.0, 0.0, 0.0, 1.0, -2.45, 1.55)">
    <use ffdec:characterId="254" height="11.6" transform="matrix(1.0, 0.0, 0.0, 1.0, 2.45, 0.6)" width="30.75" xlink:href="#text0"/>
    <filter id="filter6">
      <feOffset dx="1.0804333958909026E-5" dy="0.9999999999416331" in="SourceGraphic" result="filterResult0"/>
      <feColorMatrix in="filterResult0" result="filterResult1" type="matrix" values="0 0 0 0 0.0,0 0 0 0 0.0,0 0 0 0 0.0,0 0 0 1 0"/>
      <feColorMatrix in="filterResult1" result="filterResult2" type="matrix" values="1 0 0 0 0,0 1 0 0 0,0 0 1 0 0,0 0 0 0.3984375 0"/>
      <feComposite in="SourceGraphic" in2="filterResult2" operator="over" result="filterResult3"/>
    </filter>
    <use ffdec:characterId="271" filter="url(#filter6)" height="55.7" transform="matrix(0.2449, 0.029, -0.0303, 0.2564, 37.1718, -1.5554)" width="57.8" xlink:href="#sprite0"/>
    <use ffdec:characterId="261" ffdec:characterName="core390_fla.petCommands_EnergyStatusBar_50" height="20.6" id="progressBar" transform="matrix(0.6426, 0.0, 0.0, 0.7393, 14.0864, 0.9654)" width="136.4" xlink:href="#sprite1"/>
  </g>
  <defs>
    <g id="text0" transform="matrix(1.0, 0.0, 0.0, 1.0, -0.45, 1.4)">
      <g transform="matrix(1.0, 0.0, 0.0, 1.0, 0.0, 0.0)">
        <use fill="#4d0362" height="11.6" transform="matrix(0.0117, 0.0, 0.0, 0.0117, 0.0, 9.0)" width="30.75" xlink:href="#font_Burbank_Big_Regular_Bold_L0"/>
        <use fill="#4d0362" height="11.6" transform="matrix(0.0117, 0.0, 0.0, 0.0117, 5.15, 9.0)" width="30.75" xlink:href="#font_Burbank_Big_Regular_Bold_E0"/>
        <use fill="#4d0362" height="11.6" transform="matrix(0.0117, 0.0, 0.0, 0.0117, 10.65, 9.0)" width="30.75" xlink:href="#font_Burbank_Big_Regular_Bold_V0"/>
        <use fill="#4d0362" height="11.6" transform="matrix(0.0117, 0.0, 0.0, 0.0117, 16.9, 9.0)" width="30.75" xlink:href="#font_Burbank_Big_Regular_Bold_E0"/>
        <use fill="#4d0362" height="11.6" transform="matrix(0.0117, 0.0, 0.0, 0.0117, 22.4, 9.0)" width="30.75" xlink:href="#font_Burbank_Big_Regular_Bold_L0"/>
        <use fill="#4d0362" height="11.6" transform="matrix(0.0117, 0.0, 0.0, 0.0117, 27.75, 9.0)" width="30.75" xlink:href="#font_Burbank_Big_Regular_Bold_:0"/>
      </g>
    </g>
    <g id="font_Burbank_Big_Regular_Bold_L0">
      <path d="M43.0 -3.0 L43.0 -59.5 Q43.0 -114.5 42.0 -211.5 L40.5 -435.0 37.0 -705.5 77.5 -705.0 Q118.0 -704.0 204.0 -705.5 203.5 -706.0 203.5 -677.5 L203.5 -584.5 Q203.5 -520.0 204.5 -412.0 205.5 -304.5 208.0 -146.5 318.5 -143.5 376.0 -143.5 433.0 -143.0 433.0 -143.5 431.5 -75.0 432.0 -37.5 L432.0 1.0 Q358.5 -0.5 289.0 -1.5 L164.5 -2.5 76.5 -3.0 43.0 -3.0" fill-rule="evenodd" stroke="none"/>
    </g>
    <g id="font_Burbank_Big_Regular_Bold_E0">
      <path d="M45.0 -4.0 L45.0 -56.5 43.5 -202.0 Q43.0 -296.5 41.0 -425.5 39.5 -555.0 37.0 -710.5 L142.0 -712.0 444.5 -716.0 444.5 -677.5 Q445.0 -640.0 446.5 -572.5 L414.5 -572.0 328.5 -570.5 Q273.5 -570.0 203.0 -568.5 202.5 -567.5 202.5 -526.5 202.5 -485.0 204.0 -410.5 L273.5 -410.5 Q323.5 -410.5 407.5 -412.5 L407.5 -378.0 Q407.0 -343.5 408.5 -278.5 L354.0 -279.5 Q300.5 -280.0 206.0 -278.5 206.5 -247.0 207.5 -212.5 208.5 -178.5 210.0 -142.5 L273.5 -140.0 Q336.0 -138.0 450.5 -136.0 L449.5 -100.0 Q449.0 -64.0 449.5 5.0 L417.0 4.0 328.5 1.5 Q272.5 -0.5 200.0 -2.0 127.0 -3.5 45.0 -4.0" fill-rule="evenodd" stroke="none"/>
    </g>
    <g id="font_Burbank_Big_Regular_Bold_V0">
      <path d="M142.5 15.5 Q102.0 -196.5 70.5 -352.5 39.0 -508.5 20.5 -594.5 2.5 -681.0 2.0 -682.0 53.5 -682.0 92.5 -682.5 L154.0 -683.5 176.0 -684.0 Q193.0 -559.5 210.0 -451.0 227.0 -342.5 241.5 -259.0 256.0 -175.5 265.0 -125.0 296.0 -309.5 317.5 -442.0 339.5 -574.5 351.0 -646.0 L362.5 -718.0 Q442.5 -716.5 489.5 -716.5 536.5 -716.5 537.5 -717.0 L457.0 -315.0 Q423.5 -151.0 406.5 -66.5 389.0 18.0 389.0 18.5 L353.5 18.5 263.0 17.5 Q207.0 17.0 142.5 15.5" fill-rule="evenodd" stroke="none"/>
    </g>
    <g id="font_Burbank_Big_Regular_Bold_:0">
      <path d="M114.5 -269.5 Q71.5 -270.0 47.0 -296.5 23.0 -323.5 22.5 -368.5 23.5 -413.0 49.0 -437.5 74.5 -462.5 115.5 -463.0 160.5 -462.0 184.0 -436.5 207.5 -411.0 208.0 -368.5 207.0 -316.0 181.0 -292.5 155.0 -269.0 114.5 -269.5 M116.5 15.5 Q74.0 14.5 49.5 -12.0 25.0 -38.0 24.5 -82.0 25.0 -126.5 50.5 -152.5 76.0 -178.5 119.0 -179.0 162.0 -178.5 186.5 -153.0 210.5 -127.0 211.0 -82.0 210.5 -33.0 185.0 -8.5 159.5 15.5 116.5 15.5" fill-rule="evenodd" stroke="none"/>
    </g>
    <g id="sprite0" transform="matrix(1.0, 0.0, 0.0, 1.0, 28.9, 26.4)">
      <use ffdec:characterId="270" height="55.7" transform="matrix(1.0, 0.0, 0.0, 1.0, -28.9, -26.4)" width="57.8" xlink:href="#shape0"/>
    </g>
    <g id="shape0" transform="matrix(1.0, 0.0, 0.0, 1.0, 28.9, 26.4)">
      <path d="M6.25 -4.65 L24.9 -3.85 9.9 7.3 14.9 25.3 -0.35 14.4 -15.9 24.75 -10.3 6.9 -24.9 -4.7 -6.2 -4.85 0.35 -22.4 6.25 -4.65 Z" fill="none" stroke="#460505" stroke-linecap="round" stroke-linejoin="round" stroke-width="8.0"/>
      <path d="M6.25 -5.6 L24.9 -4.8 9.9 6.35 14.9 24.35 -0.35 13.45 -15.9 23.8 -10.3 5.95 -24.9 -5.65 -6.2 -5.8 0.35 -23.35 6.25 -5.6 Z" fill="none" stroke="#990000" stroke-linecap="round" stroke-linejoin="round" stroke-width="6.0"/>
      <path d="M6.25 -5.15 L24.9 -4.35 9.9 6.8 14.9 24.8 -0.35 13.9 -15.9 24.25 -10.3 6.4 -24.9 -5.2 -6.2 -5.35 0.35 -22.9 6.25 -5.15" fill="#cc0000" fill-rule="evenodd" stroke="none"/>
      <path d="M24.3 -5.25 L8.9 -5.45 M-4.65 -10.3 L-0.4 -23.25 M-24.3 -5.05 L-9.75 -5.45 M-10.95 7.95 L-15.45 21.9" ffdec:has-small-stroke="true" ffdec:original-stroke-width="2.5" fill="none" stroke="#ffffff" stroke-linecap="round" stroke-linejoin="round" stroke-opacity="0.4" stroke-width="3.9609305249585782"/>
    </g>
    <g id="sprite1" transform="matrix(1.0, 0.0, 0.0, 1.0, -135.05, -151.65)">
      <use ffdec:characterId="256" height="17.05" transform="matrix(1.0, 0.0, 0.0, 1.0, 201.3, 153.3)" width="70.15" xlink:href="#shape1"/>
      <clipPath id="clipPath0">
        <path d="M 207.5 153.9 L 207.21 153.91 L 206.92 153.93 L 206.64 153.98 L 206.37 154.03 L 206.1 154.11 L 205.84 154.2 L 205.58 154.31 L 205.32 154.44 L 205.08 154.58 L 204.84 154.74 L 204.6 154.92 L 204.37 155.11 L 204.14 155.32 L 203.92 155.55 L 203.71 155.79 L 203.5 156.05 L 203.31 156.32 L 203.12 156.59 L 202.96 156.87 L 202.8 157.16 L 202.66 157.45 L 202.52 157.75 L 202.41 158.06 L 202.3 158.38 L 202.21 158.7 L 202.12 159.03 L 202.06 159.36 L 202 159.71 L 201.96 160.06 L 201.93 160.41 L 201.91 160.78 L 201.9 161.15 L 201.91 161.52 L 201.93 161.88 L 201.96 162.23 L 202 162.57 L 202.06 162.92 L 202.12 163.25 L 202.21 163.58 L 202.3 163.9 L 202.41 164.22 L 202.52 164.52 L 202.66 164.83 L 202.8 165.12 L 202.96 165.42 L 203.12 165.7 L 203.31 165.98 L 203.5 166.25 L 203.71 166.5 L 203.92 166.74 L 204.14 166.96 L 204.37 167.17 L 204.6 167.36 L 204.84 167.53 L 205.08 167.69 L 205.32 167.82 L 205.58 167.95 L 205.84 168.05 L 206.1 168.14 L 206.37 168.22 L 206.64 168.28 L 206.92 168.32 L 207.21 168.34 L 207.5 168.35 L 264 168.35 L 264.27 168.34 L 264.54 168.32 L 264.81 168.28 L 265.07 168.22 L 265.33 168.14 L 265.59 168.05 L 265.84 167.95 L 266.09 167.82 L 266.33 167.69 L 266.57 167.53 L 266.81 167.36 L 267.05 167.17 L 267.28 166.96 L 267.51 166.74 L 267.73 166.5 L 267.95 166.25 L 268.15 165.98 L 268.34 165.7 L 268.51 165.42 L 268.67 165.12 L 268.82 164.83 L 268.96 164.52 L 269.08 164.22 L 269.19 163.9 L 269.28 163.58 L 269.37 163.25 L 269.44 162.92 L 269.5 162.57 L 269.54 162.23 L 269.57 161.88 L 269.59 161.52 L 269.6 161.15 L 269.59 160.78 L 269.57 160.41 L 269.54 160.06 L 269.5 159.71 L 269.44 159.36 L 269.37 159.03 L 269.28 158.7 L 269.19 158.38 L 269.08 158.06 L 268.96 157.75 L 268.82 157.45 L 268.67 157.16 L 268.51 156.87 L 268.34 156.59 L 268.15 156.32 L 267.95 156.05 L 267.73 155.79 L 267.51 155.55 L 267.28 155.32 L 267.05 155.11 L 266.81 154.92 L 266.57 154.74 L 266.33 154.58 L 266.09 154.44 L 265.84 154.31 L 265.59 154.2 L 265.33 154.11 L 265.07 154.03 L 264.81 153.98 L 264.54 153.93 L 264.27 153.91 L 264 153.9 Z"/>
      </clipPath>
      <g clip-path="url(#clipPath0)">
        <use ffdec:characterId="259" height="22.1" transform="matrix(0.9325, 0.0, 0.0, 0.9321, 135.0499, 151.6501)" width="72.6" xlink:href="#sprite2"/>
      </g>
      <use ffdec:characterId="260" height="15.95" transform="matrix(1.0, 0.0, 0.0, 1.0, 201.15, 153.15)" width="69.2" xlink:href="#shape3"/>
    </g>
    <g id="shape1" transform="matrix(1.0, 0.0, 0.0, 1.0, -201.3, -153.3)">
      <path d="M207.6 170.35 Q205.2 170.35 203.5 168.05 201.85 165.75 201.85 162.55 201.85 159.3 203.5 157.0 205.2 154.7 207.6 154.7 L265.7 154.7 Q267.95 154.7 269.75 157.0 271.45 159.3 271.45 162.55 271.45 165.75 269.75 168.05 267.95 170.35 265.7 170.35 L207.6 170.35" fill="#000000" fill-opacity="0.2" fill-rule="evenodd" stroke="none"/>
      <path d="M203.7 155.9 Q205.35 153.8 207.7 153.8 L263.95 153.8 Q266.15 153.8 267.9 155.9 269.55 158.0 269.55 161.0 269.55 164.0 267.9 166.1 266.15 168.2 263.95 168.2 L207.7 168.2 Q205.35 168.2 203.7 166.1 202.1 164.0 202.1 161.0 202.1 158.0 203.7 155.9" fill="#3c054a" fill-rule="evenodd" stroke="none"/>
      <path d="M203.5 156.05 Q205.15 153.9 207.5 153.9 L264.0 153.9 Q266.2 153.9 267.95 156.05 269.6 158.15 269.6 161.15 269.6 164.1 267.95 166.25 266.2 168.35 264.0 168.35 L207.5 168.35 Q205.15 168.35 203.5 166.25 201.9 164.1 201.9 161.15 201.9 158.15 203.5 156.05" fill="url(#gradient0)" fill-rule="evenodd" stroke="none"/>
      <path d="M203.5 156.05 Q201.9 158.15 201.9 161.15 201.9 164.1 203.5 166.25 205.15 168.35 207.5 168.35 L264.0 168.35 Q266.2 168.35 267.95 166.25 269.6 164.1 269.6 161.15 269.6 158.15 267.95 156.05 266.2 153.9 264.0 153.9 L207.5 153.9 Q205.15 153.9 203.5 156.05 Z" ffdec:has-small-stroke="true" ffdec:original-stroke-width="1.2" fill="none" stroke="#009900" stroke-linecap="round" stroke-linejoin="round" stroke-width="1.44372516058824"/>
      <path d="M269.6 161.75 L269.3 160.0 Q268.9 158.5 267.95 157.3 266.2 155.15 264.0 155.15 L207.5 155.15 Q205.15 155.15 203.5 157.3 201.9 159.4 201.9 162.4" ffdec:has-small-stroke="true" ffdec:original-stroke-width="1.2" fill="none" stroke="#000000" stroke-linecap="round" stroke-linejoin="round" stroke-opacity="0.2" stroke-width="1.44372516058824"/>
    </g>
    <linearGradient gradientTransform="matrix(1.0E-4, 0.0159, -0.0088, 0.0, 235.9, 163.95)" gradientUnits="userSpaceOnUse" id="gradient0" spreadMethod="pad" x1="-819.2" x2="819.2">
      <stop offset="0.00784313725490196" stop-color="#3c054a"/>
      <stop offset="0.21176470588235294" stop-color="#89489a"/>
      <stop offset="0.7372549019607844" stop-color="#3c054a"/>
    </linearGradient>
    <g id="sprite2" transform="matrix(1.0, 0.0, 0.0, 1.0, 36.3, 11.05)">
      <use ffdec:characterId="258" height="22.1" transform="matrix(1.0, 0.0, 0.0, 1.0, -36.3, -11.05)" width="72.6" xlink:href="#shape2"/>
    </g>
    <g id="shape2" transform="matrix(1.0, 0.0, 0.0, 1.0, 36.3, 11.05)">
      <path d="M36.3 -11.05 L36.3 11.05 -36.3 11.05 -36.3 -11.05 36.3 -11.05" fill="url(#gradient1)" fill-rule="evenodd" stroke="none"/>
    </g>
    <linearGradient gradientTransform="matrix(1.0E-4, 0.0122, -0.0135, 1.0E-4, -0.6, 0.05)" gradientUnits="userSpaceOnUse" id="gradient1" spreadMethod="pad" x1="-819.2" x2="819.2">
      <stop offset="0.00392156862745098" stop-color="#54c800"/>
      <stop offset="0.24705882352941178" stop-color="#ffff71"/>
      <stop offset="0.5843137254901961" stop-color="#54c800"/>
    </linearGradient>
    <g id="shape3" transform="matrix(1.0, 0.0, 0.0, 1.0, -201.15, -153.15)">
      <path d="M203.5 156.05 Q201.9 158.15 201.9 161.15 201.9 164.1 203.5 166.25 205.15 168.35 207.5 168.35 L264.0 168.35 Q266.2 168.35 267.95 166.25 269.6 164.1 269.6 161.15 269.6 158.15 267.95 156.05 266.2 153.9 264.0 153.9 L207.5 153.9 Q205.15 153.9 203.5 156.05 Z" fill="none" stroke="#007e00" stroke-linecap="round" stroke-linejoin="round" stroke-width="1.55"/>
      <path d="M206.15 157.65 Q206.55 158.05 206.55 158.65 206.55 159.25 206.15 159.65 205.75 160.05 205.15 160.05 204.55 160.05 204.15 159.65 203.75 159.25 203.75 158.65 203.75 158.05 204.15 157.65 204.55 157.25 205.15 157.25 205.75 157.25 206.15 157.65 M206.7 156.85 Q206.35 156.55 206.35 156.1 206.35 155.7 206.7 155.35 207.1 155.05 207.55 155.05 208.05 155.05 208.4 155.35 208.75 155.7 208.75 156.1 208.75 156.55 208.4 156.85 208.05 157.2 207.55 157.2 L206.7 156.85 M265.8 157.25 Q265.45 157.65 264.95 157.65 264.45 157.65 264.05 157.25 263.7 156.9 263.7 156.4 263.7 155.9 264.05 155.5 264.45 155.15 264.95 155.15 265.45 155.15 265.8 155.5 266.2 155.9 266.2 156.4 266.2 156.9 265.8 157.25" fill="#ffffff" fill-rule="evenodd" stroke="none"/>
    </g>
  </defs>
</svg>
