<?xml version="1.0" encoding="UTF-8" standalone="no"?>
<svg xmlns:ffdec="https://www.free-decompiler.com/flash" xmlns:xlink="http://www.w3.org/1999/xlink" ffdec:objectType="frame" height="40.4px" width="275.85px" xmlns="http://www.w3.org/2000/svg">
  <g transform="matrix(1.0, 0.0, 0.0, 1.0, 34.8, 2.0)">
    <use ffdec:characterId="193" height="32.2" id="buddybg" transform="matrix(1.0, 0.0, 0.0, 1.0, -14.75, 2.05)" width="255.8" xlink:href="#sprite0"/>
    <use ffdec:characterId="195" height="32.2" id="invitebg" transform="matrix(1.0, 0.0, 0.0, 1.0, -14.75, 2.05)" width="255.8" xlink:href="#sprite1"/>
    <use ffdec:characterId="197" height="32.2" id="searchbg" transform="matrix(1.0, 0.0, 0.0, 1.0, -14.75, 2.05)" width="255.8" xlink:href="#sprite2"/>
    <use ffdec:characterId="198" height="56.9" id="name_txt" transform="matrix(0.3223, 0.0, 0.0, 0.3223, 33.1554, 8.9054)" width="375.7" xlink:href="#text0"/>
    <filter id="filter16">
      <feOffset dx="-0.3135570753993684" dy="2.983568661932719" in="SourceGraphic" result="filterResult5"/>
      <feColorMatrix in="filterResult5" result="filterResult6" type="matrix" values="0 0 0 0 0.0,0 0 0 0 0.0,0 0 0 0 0.0,0 0 0 1 0"/>
      <feConvolveMatrix divisor="9.0" in="filterResult6" kernelMatrix="1 1 1 1 1 1 1 1 1" order="3 3" result="filterResult7"/>
      <feColorMatrix in="filterResult7" result="filterResult8" type="matrix" values="1 0 0 0 0,0 1 0 0 0,0 0 1 0 0,0 0 0 0.25 0"/>
      <feComposite in="SourceGraphic" in2="filterResult8" operator="over" result="filterResult9"/>
    </filter>
    <use ffdec:characterId="186" filter="url(#filter16)" height="45.15" id="newMessageBtn" transform="matrix(0.5814, 0.0, 0.0, 0.5814, 157.5535, 4.3558)" width="64.0" xlink:href="#sprite3"/>
    <use ffdec:characterId="203" height="28.75" id="deleteBtn" transform="matrix(1.0, 0.0, 0.0, 1.0, 207.7, 3.85)" width="25.05" xlink:href="#sprite6"/>
    <filter id="filter20">
      <feOffset dx="-0.3135570753993684" dy="2.983568661932719" in="SourceGraphic" result="filterResult23"/>
      <feColorMatrix in="filterResult23" result="filterResult24" type="matrix" values="0 0 0 0 0.0,0 0 0 0 0.0,0 0 0 0 0.0,0 0 0 1 0"/>
      <feConvolveMatrix divisor="9.0" in="filterResult24" kernelMatrix="1 1 1 1 1 1 1 1 1" order="3 3" result="filterResult25"/>
      <feColorMatrix in="filterResult25" result="filterResult26" type="matrix" values="1 0 0 0 0,0 1 0 0 0,0 0 1 0 0,0 0 0 0.25 0"/>
      <feComposite in="SourceGraphic" in2="filterResult26" operator="over" result="filterResult27"/>
    </filter>
    <use ffdec:characterId="190" filter="url(#filter20)" height="108.75" id="onlineIndicator" transform="matrix(0.1801, 0.0, 0.0, 0.1801, 11.3172, 9.1672)" width="108.75" xlink:href="#sprite9"/>
    <filter id="filter22">
      <feOffset dx="-0.3135570753993684" dy="2.983568661932719" in="SourceGraphic" result="filterResult30"/>
      <feColorMatrix in="filterResult30" result="filterResult31" type="matrix" values="0 0 0 0 0.0,0 0 0 0 0.0,0 0 0 0 0.0,0 0 0 1 0"/>
      <feConvolveMatrix divisor="9.0" in="filterResult31" kernelMatrix="1 1 1 1 1 1 1 1 1" order="3 3" result="filterResult32"/>
      <feColorMatrix in="filterResult32" result="filterResult33" type="matrix" values="1 0 0 0 0,0 1 0 0 0,0 0 1 0 0,0 0 0 0.25 0"/>
      <feComposite in="SourceGraphic" in2="filterResult33" operator="over" result="filterResult34"/>
    </filter>
    <use ffdec:characterId="207" filter="url(#filter22)" height="108.75" id="offlineIndicator" transform="matrix(0.1801, 0.0, 0.0, 0.1801, 11.3172, 9.1672)" width="108.75" xlink:href="#sprite11"/>
    <filter id="filter24">
      <feOffset dx="-0.3135570753993684" dy="2.983568661932719" in="SourceGraphic" result="filterResult37"/>
      <feColorMatrix in="filterResult37" result="filterResult38" type="matrix" values="0 0 0 0 0.0,0 0 0 0 0.0,0 0 0 0 0.0,0 0 0 1 0"/>
      <feConvolveMatrix divisor="9.0" in="filterResult38" kernelMatrix="1 1 1 1 1 1 1 1 1" order="3 3" result="filterResult39"/>
      <feColorMatrix in="filterResult39" result="filterResult40" type="matrix" values="1 0 0 0 0,0 1 0 0 0,0 0 1 0 0,0 0 0 0.25 0"/>
      <feComposite in="SourceGraphic" in2="filterResult40" operator="over" result="filterResult41"/>
    </filter>
    <use ffdec:characterId="208" filter="url(#filter24)" height="108.75" id="onlineIndicatorApp" transform="matrix(0.1801, 0.0, 0.0, 0.1801, 11.3172, 9.1172)" width="108.75" xlink:href="#sprite13"/>
    <use ffdec:characterId="24" height="31.0" id="mugshot_spr" transform="matrix(1.3033, 0.0, 0.0, 1.3033, -34.8017, -2.0017)" width="31.0" xlink:href="#sprite15"/>
    <filter id="filter30">
      <feOffset dx="-1.5628939176605707" dy="3.6820324010170786" in="SourceGraphic" result="filterResult59"/>
      <feColorMatrix in="filterResult59" result="filterResult60" type="matrix" values="0 0 0 0 0.0,0 0 0 0 0.0,0 0 0 0 0.0,0 0 0 1 0"/>
      <feConvolveMatrix divisor="16.0" in="filterResult60" kernelMatrix="1 1 1 1 1 1 1 1 1 1 1 1 1 1 1 1" order="4 4" result="filterResult61"/>
      <feConvolveMatrix divisor="16.0" in="filterResult61" kernelMatrix="1 1 1 1 1 1 1 1 1 1 1 1 1 1 1 1" order="4 4" result="filterResult62"/>
      <feColorMatrix in="filterResult62" result="filterResult63" type="matrix" values="1 0 0 0 0,0 1 0 0 0,0 0 1 0 0,0 0 0 0.19921875 0"/>
      <feComposite in="SourceGraphic" in2="filterResult63" operator="over" result="filterResult64"/>
      <feColorMatrix in="filterResult64" result="filterResult65" type="matrix" values="-0.5628875 -0.03828597 2.0011733 0.0 -0.16549018 0.6219378 1.2217704 -0.44370812 0.0 -0.16549021 -1.2556344 2.8487337 -0.19309917 0.0 -0.1654902 0.0 0.0 0.0 1.0 0.0"/>
    </filter>
    <use ffdec:characterId="213" filter="url(#filter30)" height="131.95" id="add_btn" transform="matrix(0.2289, 0.0, 0.0, 0.2289, 173.4436, 3.4268)" width="229.75" xlink:href="#sprite17"/>
    <use ffdec:characterId="216" height="56.75" id="sent_img" transform="matrix(0.4062, 0.0, 0.0, 0.4062, 173.473, 6.7936)" width="122.25" xlink:href="#sprite19"/>
    <filter id="filter36">
      <feOffset dx="-1.5628939176605707" dy="3.6820324010170786" in="SourceGraphic" result="filterResult72"/>
      <feColorMatrix in="filterResult72" result="filterResult73" type="matrix" values="0 0 0 0 0.0,0 0 0 0 0.0,0 0 0 0 0.0,0 0 0 1 0"/>
      <feConvolveMatrix divisor="16.0" in="filterResult73" kernelMatrix="1 1 1 1 1 1 1 1 1 1 1 1 1 1 1 1" order="4 4" result="filterResult74"/>
      <feConvolveMatrix divisor="16.0" in="filterResult74" kernelMatrix="1 1 1 1 1 1 1 1 1 1 1 1 1 1 1 1" order="4 4" result="filterResult75"/>
      <feColorMatrix in="filterResult75" result="filterResult76" type="matrix" values="1 0 0 0 0,0 1 0 0 0,0 0 1 0 0,0 0 0 0.19921875 0"/>
      <feComposite in="SourceGraphic" in2="filterResult76" operator="over" result="filterResult77"/>
    </filter>
    <use ffdec:characterId="220" filter="url(#filter36)" height="93.05" id="accept_btn" transform="matrix(0.2488, 0.0, 0.0, 0.2488, 162.0402, 7.8934)" width="107.6" xlink:href="#sprite20"/>
    <filter id="filter38">
      <feOffset dx="-1.5628939176605707" dy="3.6820324010170786" in="SourceGraphic" result="filterResult83"/>
      <feColorMatrix in="filterResult83" result="filterResult84" type="matrix" values="0 0 0 0 0.0,0 0 0 0 0.0,0 0 0 0 0.0,0 0 0 1 0"/>
      <feConvolveMatrix divisor="16.0" in="filterResult84" kernelMatrix="1 1 1 1 1 1 1 1 1 1 1 1 1 1 1 1" order="4 4" result="filterResult85"/>
      <feConvolveMatrix divisor="16.0" in="filterResult85" kernelMatrix="1 1 1 1 1 1 1 1 1 1 1 1 1 1 1 1" order="4 4" result="filterResult86"/>
      <feColorMatrix in="filterResult86" result="filterResult87" type="matrix" values="1 0 0 0 0,0 1 0 0 0,0 0 1 0 0,0 0 0 0.19921875 0"/>
      <feComposite in="SourceGraphic" in2="filterResult87" operator="over" result="filterResult88"/>
    </filter>
    <use ffdec:characterId="224" filter="url(#filter38)" height="93.05" id="decline_btn" transform="matrix(0.2488, 0.0, 0.0, 0.2488, 201.7902, 7.8934)" width="107.6" xlink:href="#sprite22"/>
  </g>
  <defs>
    <g id="sprite0" transform="matrix(1.0, 0.0, 0.0, 1.0, 0.0, 0.0)">
      <use ffdec:characterId="192" height="32.2" transform="matrix(1.0, 0.0, 0.0, 1.0, 0.0, 0.0)" width="255.8" xlink:href="#shape0"/>
    </g>
    <g id="shape0" transform="matrix(1.0, 0.0, 0.0, 1.0, 0.0, 0.0)">
      <path d="M0.0 25.75 L0.0 6.4 Q0.0 0.0 4.05 0.0 L251.8 0.0 Q255.8 0.0 255.8 6.4 L255.8 25.75 Q255.8 32.2 251.8 32.2 L4.05 32.2 Q0.0 32.2 0.0 25.75" fill="#fff89c" fill-rule="evenodd" stroke="none"/>
    </g>
    <g id="sprite1" transform="matrix(1.0, 0.0, 0.0, 1.0, 0.0, 0.0)">
      <use ffdec:characterId="194" height="32.2" transform="matrix(1.0, 0.0, 0.0, 1.0, 0.0, 0.0)" width="255.8" xlink:href="#shape1"/>
    </g>
    <g id="shape1" transform="matrix(1.0, 0.0, 0.0, 1.0, 0.0, 0.0)">
      <path d="M0.0 25.75 L0.0 6.4 Q0.0 0.0 4.05 0.0 L251.8 0.0 Q255.8 0.0 255.8 6.4 L255.8 25.75 Q255.8 32.2 251.8 32.2 L4.05 32.2 Q0.0 32.2 0.0 25.75" fill="#d99cff" fill-rule="evenodd" stroke="none"/>
    </g>
    <g id="sprite2" transform="matrix(1.0, 0.0, 0.0, 1.0, 0.0, 0.0)">
      <use ffdec:characterId="196" height="32.2" transform="matrix(1.0, 0.0, 0.0, 1.0, 0.0, 0.0)" width="255.8" xlink:href="#shape2"/>
    </g>
    <g id="shape2" transform="matrix(1.0, 0.0, 0.0, 1.0, 0.0, 0.0)">
      <path d="M0.0 25.75 L0.0 6.4 Q0.0 0.0 4.05 0.0 L251.8 0.0 Q255.8 0.0 255.8 6.4 L255.8 25.75 Q255.8 32.2 251.8 32.2 L4.05 32.2 Q0.0 32.2 0.0 25.75" fill="#74a7ff" fill-rule="evenodd" stroke="none"/>
    </g>
    <g id="text0" transform="matrix(1.0, 0.0, 0.0, 1.0, 2.0, 2.0)">
      <g transform="matrix(1.0, 0.0, 0.0, 1.0, -2.0, -2.0)">
        <use fill="#d47400" height="56.9" transform="matrix(0.043, 0.0, 0.0, 0.043, 0.0, 43.65)" width="375.7" xlink:href="#font_GosmickSansBold_W0"/>
        <use fill="#d47400" height="56.9" transform="matrix(0.043, 0.0, 0.0, 0.043, 40.5, 43.65)" width="375.7" xlink:href="#font_GosmickSansBold_W0"/>
        <use fill="#d47400" height="56.9" transform="matrix(0.043, 0.0, 0.0, 0.043, 81.0, 43.65)" width="375.7" xlink:href="#font_GosmickSansBold_W0"/>
        <use fill="#d47400" height="56.9" transform="matrix(0.043, 0.0, 0.0, 0.043, 121.5, 43.65)" width="375.7" xlink:href="#font_GosmickSansBold_W0"/>
        <use fill="#d47400" height="56.9" transform="matrix(0.043, 0.0, 0.0, 0.043, 162.0, 43.65)" width="375.7" xlink:href="#font_GosmickSansBold_W0"/>
        <use fill="#d47400" height="56.9" transform="matrix(0.043, 0.0, 0.0, 0.043, 202.5, 43.65)" width="375.7" xlink:href="#font_GosmickSansBold_W0"/>
        <use fill="#d47400" height="56.9" transform="matrix(0.043, 0.0, 0.0, 0.043, 243.0, 43.65)" width="375.7" xlink:href="#font_GosmickSansBold_W0"/>
        <use fill="#d47400" height="56.9" transform="matrix(0.043, 0.0, 0.0, 0.043, 283.5, 43.65)" width="375.7" xlink:href="#font_GosmickSansBold_W0"/>
        <use fill="#d47400" height="56.9" transform="matrix(0.043, 0.0, 0.0, 0.043, 324.0, 43.65)" width="375.7" xlink:href="#font_GosmickSansBold_W0"/>
        <use fill="#d47400" height="56.9" transform="matrix(0.043, 0.0, 0.0, 0.043, 364.5, 43.65)" width="375.7" xlink:href="#font_GosmickSansBold_W0"/>
        <use fill="#d47400" height="56.9" transform="matrix(0.043, 0.0, 0.0, 0.043, 405.0, 43.65)" width="375.7" xlink:href="#font_GosmickSansBold_W0"/>
        <use fill="#d47400" height="56.9" transform="matrix(0.043, 0.0, 0.0, 0.043, 445.5, 43.65)" width="375.7" xlink:href="#font_GosmickSansBold_W0"/>
        <use fill="#d47400" height="56.9" transform="matrix(0.043, 0.0, 0.0, 0.043, 486.0, 43.65)" width="375.7" xlink:href="#font_GosmickSansBold_W0"/>
        <use fill="#d47400" height="56.9" transform="matrix(0.043, 0.0, 0.0, 0.043, 526.5, 43.65)" width="375.7" xlink:href="#font_GosmickSansBold_W0"/>
        <use fill="#d47400" height="56.9" transform="matrix(0.043, 0.0, 0.0, 0.043, 567.0, 43.65)" width="375.7" xlink:href="#font_GosmickSansBold_W0"/>
      </g>
    </g>
    <g id="font_GosmickSansBold_W0">
      <path d="M919.5 -672.0 L918.5 -673.0 Q921.5 -660.5 915.0 -635.5 908.5 -610.5 900.0 -585.0 L900.0 -586.0 896.0 -572.0 892.0 -557.0 Q890.0 -550.0 888.5 -546.5 887.0 -543.0 887.0 -545.0 876.5 -502.0 865.5 -459.5 854.0 -416.5 843.0 -373.5 832.5 -336.0 823.0 -298.5 813.0 -261.0 804.0 -223.0 801.0 -211.5 797.5 -199.5 788.5 -163.5 777.0 -126.5 766.0 -89.0 750.0 -58.0 734.0 -27.5 713.0 -8.0 692.0 11.5 664.5 11.5 640.0 11.5 623.5 0.5 607.0 -10.5 594.0 -34.0 580.5 -57.5 568.0 -96.0 555.0 -134.5 538.5 -188.5 L526.0 -236.5 512.0 -287.0 Q504.0 -314.5 498.5 -335.0 493.5 -355.5 488.5 -374.0 483.5 -392.5 477.0 -412.5 471.0 -432.5 462.0 -460.0 452.5 -429.0 440.5 -371.0 424.0 -301.0 405.0 -236.0 386.0 -171.0 369.5 -118.0 365.5 -106.5 363.0 -98.5 360.5 -90.5 358.5 -79.0 359.5 -77.0 359.0 -75.5 358.5 -74.0 358.5 -72.0 347.0 -36.0 321.0 -14.0 295.0 8.0 264.0 8.0 208.0 8.0 185.5 -53.5 161.0 -121.0 137.0 -212.0 113.5 -303.0 89.0 -396.5 80.0 -434.0 69.0 -476.0 L49.0 -555.0 Q47.0 -561.0 45.5 -567.0 L42.0 -580.5 43.0 -579.5 Q37.0 -608.0 24.5 -633.5 L24.5 -651.0 Q25.5 -653.0 24.5 -653.0 L25.5 -655.0 25.5 -661.5 Q29.5 -666.0 34.0 -670.5 41.0 -679.0 56.5 -693.5 71.5 -708.5 88.0 -710.5 L87.0 -710.5 Q101.5 -712.5 122.5 -704.0 143.5 -695.0 156.5 -671.5 164.0 -657.5 171.0 -635.0 178.0 -612.0 185.5 -584.5 192.5 -557.0 199.5 -525.0 207.0 -493.5 214.0 -461.5 L226.0 -408.5 236.5 -357.5 Q242.5 -331.5 248.5 -307.0 254.0 -282.5 259.5 -262.5 265.0 -242.5 269.5 -229.0 273.5 -215.0 275.5 -212.0 285.5 -241.5 296.5 -282.0 307.0 -322.5 317.5 -368.0 L337.5 -460.0 Q347.0 -507.0 354.5 -547.5 367.5 -580.5 383.0 -609.5 398.5 -639.0 414.0 -661.0 430.0 -683.0 446.5 -695.5 463.0 -708.5 479.0 -708.5 495.5 -708.5 509.0 -695.5 522.0 -683.0 533.0 -662.5 543.5 -642.0 552.0 -616.0 560.0 -589.5 567.5 -563.0 569.5 -556.0 571.5 -546.0 573.5 -536.5 577.5 -522.0 L597.0 -447.5 620.5 -357.5 Q633.0 -311.0 645.0 -267.5 657.5 -224.0 668.5 -193.5 673.0 -204.5 676.5 -220.0 680.0 -235.5 685.0 -255.0 701.5 -319.5 713.0 -371.0 L735.0 -467.0 Q749.5 -528.5 761.5 -578.5 773.0 -628.5 785.5 -671.5 806.0 -692.0 829.0 -706.0 852.0 -720.0 869.5 -720.0 890.0 -720.0 902.5 -706.5 915.5 -693.5 919.5 -672.0" fill-rule="evenodd" stroke="none"/>
    </g>
    <g id="sprite3" transform="matrix(1.0, 0.0, 0.0, 1.0, 1.8, 0.85)">
      <use ffdec:characterId="183" height="39.75" transform="matrix(1.0, 0.0, 0.0, 1.0, -1.8, 4.55)" width="58.65" xlink:href="#sprite4"/>
      <filter id="filter15">
        <feOffset dx="-0.3135570753993684" dy="2.983568661932719" in="SourceGraphic" result="filterResult0"/>
        <feColorMatrix in="filterResult0" result="filterResult1" type="matrix" values="0 0 0 0 0.0,0 0 0 0 0.0,0 0 0 0 0.0,0 0 0 1 0"/>
        <feConvolveMatrix divisor="9.0" in="filterResult1" kernelMatrix="1 1 1 1 1 1 1 1 1" order="3 3" result="filterResult2"/>
        <feColorMatrix in="filterResult2" result="filterResult3" type="matrix" values="1 0 0 0 0,0 1 0 0 0,0 0 1 0 0,0 0 0 0.25 0"/>
        <feComposite in="SourceGraphic" in2="filterResult3" operator="over" result="filterResult4"/>
      </filter>
      <use ffdec:characterId="185" filter="url(#filter15)" height="44.95" transform="matrix(0.7079, 0.0, 0.0, 0.7079, 30.3723, -0.8277)" width="44.95" xlink:href="#sprite5"/>
    </g>
    <g id="sprite4" transform="matrix(1.0, 0.0, 0.0, 1.0, -9.75, -8.05)">
      <use ffdec:characterId="182" height="39.75" transform="matrix(1.0, 0.0, 0.0, 1.0, 9.75, 8.05)" width="58.65" xlink:href="#shape3"/>
    </g>
    <g id="shape3" transform="matrix(1.0, 0.0, 0.0, 1.0, -9.75, -8.05)">
      <path d="M66.9 41.3 L66.9 14.55 Q66.9 9.55 61.9 9.55 L16.25 9.55 Q11.25 9.55 11.25 14.55 L11.25 41.3 Q11.25 46.3 16.25 46.3 L61.9 46.3 Q66.9 46.3 66.9 41.3 Z" fill="none" stroke="#5b4c44" stroke-linecap="round" stroke-linejoin="round" stroke-width="3.0"/>
      <path d="M12.95 10.45 Q14.15 9.55 16.25 9.55 L61.9 9.55 Q66.9 9.55 66.9 14.55 L66.9 41.3 66.85 42.3 Q65.65 43.15 63.55 43.15 L17.9 43.15 Q12.9 43.15 12.9 38.15 L12.9 11.4 12.95 10.45" fill="url(#gradient0)" fill-rule="evenodd" stroke="none"/>
      <path d="M12.95 10.45 L12.9 11.4 12.9 38.15 Q12.9 43.15 17.9 43.15 L63.55 43.15 Q65.65 43.15 66.85 42.3 66.4 46.3 61.9 46.3 L16.25 46.3 Q11.25 46.3 11.25 41.3 L11.25 14.55 Q11.25 11.65 12.95 10.45" fill="#d0dae2" fill-rule="evenodd" stroke="none"/>
      <path d="M66.85 42.3 L66.9 41.3 66.9 14.55 Q66.9 9.55 61.9 9.55 L16.25 9.55 Q14.15 9.55 12.95 10.45 11.25 11.65 11.25 14.55 L11.25 41.3 Q11.25 46.3 16.25 46.3 L61.9 46.3 Q66.4 46.3 66.85 42.3 Z" ffdec:has-small-stroke="true" ffdec:original-stroke-width="1.0" fill="none" stroke="#676767" stroke-linecap="round" stroke-linejoin="round" stroke-width="1.7199695562029238"/>
      <path d="M12.1 18.0 L11.2 17.45 11.7 15.1 39.15 32.05 66.7 15.05 67.05 17.5 66.25 18.0 47.85 29.3 47.9 29.35 49.1 30.05 65.6 40.3 65.6 40.35 67.15 41.3 66.65 43.85 46.9 31.45 45.7 30.7 39.15 34.65 32.7 30.7 31.5 31.45 11.7 43.7 11.25 41.15 12.7 40.3 12.7 40.25 29.3 30.05 30.5 29.3 12.1 18.0" fill="#666666" fill-opacity="0.9882353" fill-rule="evenodd" stroke="none"/>
      <path d="M66.25 18.0 L66.4 19.5 49.1 30.05 47.9 29.35 47.85 29.3 66.25 18.0 M46.9 31.45 L46.4 31.75 46.35 31.75 39.15 36.15 31.55 31.45 31.5 31.45 32.7 30.7 39.15 34.65 45.7 30.7 46.9 31.45 M29.3 30.05 L11.95 19.5 Q11.95 18.7 12.1 18.0 L30.5 29.3 29.3 30.05" fill="#000000" fill-opacity="0.2" fill-rule="evenodd" stroke="none"/>
    </g>
    <linearGradient gradientTransform="matrix(0.0, 0.0221, -0.0214, 0.0, 39.15, 27.9)" gradientUnits="userSpaceOnUse" id="gradient0" spreadMethod="pad" x1="-819.2" x2="819.2">
      <stop offset="0.027450980392156862" stop-color="#ffffff"/>
      <stop offset="0.6039215686274509" stop-color="#eeeeee"/>
    </linearGradient>
    <g id="sprite5" transform="matrix(1.0, 0.0, 0.0, 1.0, 3.5, 3.5)">
      <use ffdec:characterId="184" height="44.95" transform="matrix(1.0, 0.0, 0.0, 1.0, -3.5, -3.5)" width="44.95" xlink:href="#shape4"/>
    </g>
    <g id="shape4" transform="matrix(1.0, 0.0, 0.0, 1.0, 3.5, 3.5)">
      <path d="M24.6 0.0 L13.45 0.0 Q12.45 0.0 12.45 1.0 L12.45 12.4 1.0 12.4 Q0.0 12.4 0.0 13.4 L0.0 24.55 Q0.0 25.55 1.0 25.55 L12.45 25.55 12.45 36.95 Q12.45 37.95 13.45 37.95 L24.6 37.95 Q25.6 37.95 25.6 36.95 L25.6 25.55 36.95 25.55 Q37.95 25.55 37.95 24.55 L37.95 13.4 Q37.95 12.4 36.95 12.4 L25.6 12.4 25.6 1.0 Q25.6 0.0 24.6 0.0 Z" fill="none" stroke="#006000" stroke-linecap="round" stroke-linejoin="round" stroke-width="7.0"/>
      <path d="M24.6 0.0 Q25.6 0.0 25.6 1.0 L25.6 12.4 36.95 12.4 Q37.95 12.4 37.95 13.4 L37.95 24.55 Q37.95 25.55 36.95 25.55 L25.6 25.55 25.6 36.95 Q25.6 37.95 24.6 37.95 L13.45 37.95 Q12.45 37.95 12.45 36.95 L12.45 25.55 1.0 25.55 Q0.0 25.55 0.0 24.55 L0.0 13.4 Q0.0 12.4 1.0 12.4 L12.45 12.4 12.45 1.0 Q12.45 0.0 13.45 0.0 L24.6 0.0" fill="url(#gradient1)" fill-rule="evenodd" stroke="none"/>
    </g>
    <linearGradient gradientTransform="matrix(0.0, 0.0162, -0.032, 0.0, 17.5, 11.6)" gradientUnits="userSpaceOnUse" id="gradient1" spreadMethod="pad" x1="-819.2" x2="819.2">
      <stop offset="0.13725490196078433" stop-color="#cbffd2"/>
      <stop offset="0.7803921568627451" stop-color="#00cc33"/>
    </linearGradient>
    <g id="sprite6" transform="matrix(1.0, 0.0, 0.0, 1.0, 1.2, 1.3)">
      <filter id="filter17">
        <feOffset dx="-1.5628939176605707" dy="3.6820324010170786" in="SourceGraphic" result="filterResult10"/>
        <feColorMatrix in="filterResult10" result="filterResult11" type="matrix" values="0 0 0 0 0.0,0 0 0 0 0.0,0 0 0 0 0.0,0 0 0 1 0"/>
        <feConvolveMatrix divisor="16.0" in="filterResult11" kernelMatrix="1 1 1 1 1 1 1 1 1 1 1 1 1 1 1 1" order="4 4" result="filterResult12"/>
        <feConvolveMatrix divisor="16.0" in="filterResult12" kernelMatrix="1 1 1 1 1 1 1 1 1 1 1 1 1 1 1 1" order="4 4" result="filterResult13"/>
        <feColorMatrix in="filterResult13" result="filterResult14" type="matrix" values="1 0 0 0 0,0 1 0 0 0,0 0 1 0 0,0 0 0 0.19921875 0"/>
        <feComposite in="SourceGraphic" in2="filterResult14" operator="over" result="filterResult15"/>
      </filter>
      <use ffdec:characterId="200" filter="url(#filter17)" height="89.15" transform="matrix(0.3223, 0.0, 0.0, 0.3223, -1.2045, -1.2773)" width="77.7" xlink:href="#sprite7"/>
      <filter id="filter18">
        <feOffset dx="-0.2090380502662456" dy="1.9890457746218126" in="SourceGraphic" result="filterResult16"/>
        <feColorMatrix in="filterResult16" result="filterResult17" type="matrix" values="0 0 0 0 0.0,0 0 0 0 0.0,0 0 0 0 0.0,0 0 0 1 0"/>
        <feConvolveMatrix divisor="9.0" in="filterResult17" kernelMatrix="1 1 1 1 1 1 1 1 1" order="3 3" result="filterResult18"/>
        <feColorMatrix in="filterResult18" result="filterResult19" type="matrix" values="1 0 0 0 0,0 1 0 0 0,0 0 1 0 0,0 0 0 0.25 0"/>
        <feComposite in="SourceGraphic" in2="filterResult19" operator="over" result="filterResult20"/>
      </filter>
      <use ffdec:characterId="202" filter="url(#filter18)" height="53.9" transform="matrix(0.2315, 0.0, 0.0, 0.2315, 4.7764, 11.1972)" width="55.8" xlink:href="#sprite8"/>
    </g>
    <g id="sprite7" transform="matrix(1.0, 0.0, 0.0, 1.0, 1.1, -5.5)">
      <use ffdec:characterId="199" height="89.15" transform="matrix(1.0, 0.0, 0.0, 1.0, -1.1, 5.5)" width="77.7" xlink:href="#shape5"/>
    </g>
    <g id="shape5" transform="matrix(1.0, 0.0, 0.0, 1.0, 1.1, -5.5)">
      <path d="M51.45 14.95 Q56.4 15.55 60.65 16.5 68.15 18.35 69.75 20.7 70.15 21.25 70.15 21.85 L70.5 21.85 71.85 25.35 Q72.8 28.7 72.55 31.15 72.4 33.9 67.05 36.05 L63.55 83.15 Q63.4 84.7 61.5 86.1 59.6 87.35 55.95 88.4 52.5 89.45 48.6 89.95 L42.2 90.55 37.7 90.65 29.65 90.3 Q23.95 89.8 19.35 88.4 16.15 87.5 14.35 86.35 11.9 84.9 11.85 83.15 L8.2 36.05 Q4.3 34.55 3.15 32.65 2.7 31.9 3.1 29.5 3.5 27.1 4.15 24.85 4.75 22.6 6.2 20.1 9.8 17.8 14.25 16.7 18.65 15.55 23.85 14.95 24.5 13.15 25.65 12.15 28.5 9.65 36.85 9.5 L38.45 9.5 Q46.8 9.65 49.65 12.15 50.75 13.15 51.45 14.95 L37.6 14.2 23.85 14.95" fill="none" stroke="#5b4c44" stroke-linecap="round" stroke-linejoin="round" stroke-width="8.0"/>
      <path d="M66.65 41.6 L63.75 42.55 62.3 42.9 Q56.45 44.45 49.3 45.15 L42.4 45.55 37.6 45.6 28.8 45.35 Q19.9 44.75 12.9 42.9 L11.7 42.55 8.65 41.6 8.2 36.05 12.9 37.55 Q23.15 40.25 37.6 40.25 52.05 40.25 62.3 37.55 L67.05 36.05 66.65 41.6" fill="url(#gradient2)" fill-rule="evenodd" stroke="none"/>
      <path d="M2.7 29.65 L2.7 29.9 Q2.7 30.65 3.15 31.4 4.3 33.3 8.2 34.8 L12.9 36.3 Q23.15 39.0 37.6 39.0 52.05 39.0 62.3 36.3 L67.05 34.8 Q72.4 32.65 72.55 29.9 L72.6 29.45 72.55 31.15 Q72.4 33.9 67.05 36.05 L62.3 37.55 Q52.05 40.25 37.6 40.25 23.15 40.25 12.9 37.55 L8.2 36.05 Q4.3 34.55 3.15 32.65 2.7 31.9 2.7 31.15 L2.7 29.65" fill="url(#gradient3)" fill-rule="evenodd" stroke="none"/>
      <path d="M70.15 22.3 L70.15 22.05 70.15 21.85 70.5 21.85 71.85 25.35 Q72.5 27.6 72.6 29.45 L72.55 29.9 Q72.4 32.65 67.05 34.8 L62.3 36.3 Q52.05 39.0 37.6 39.0 23.15 39.0 12.9 36.3 L8.2 34.8 Q4.3 33.3 3.15 31.4 2.7 30.65 2.7 29.9 L2.7 29.65 Q2.8 27.7 3.45 25.35 4.25 22.6 5.35 21.0 L5.05 21.85 5.05 22.05 5.1 22.3 Q5.25 24.15 8.9 25.75 11.05 26.7 14.55 27.5 24.1 29.8 37.6 29.8 51.05 29.8 60.65 27.5 64.1 26.7 66.35 25.75 69.95 24.2 70.15 22.3" fill="url(#gradient4)" fill-rule="evenodd" stroke="none"/>
      <path d="M70.15 22.3 Q69.95 24.2 66.35 25.75 64.1 26.7 60.65 27.5 51.05 29.8 37.6 29.8 24.1 29.8 14.55 27.5 11.05 26.7 8.9 25.75 5.25 24.15 5.1 22.3 5.3 23.95 8.9 25.4 11.05 26.25 14.55 26.95 24.1 29.05 37.6 29.05 51.05 29.05 60.65 26.95 64.1 26.25 66.35 25.4 69.9 24.0 70.15 22.3" fill="#e7f0f4" fill-rule="evenodd" stroke="none"/>
      <path d="M11.75 82.0 Q11.95 83.7 14.35 85.1 16.15 86.25 19.35 87.15 23.95 88.55 29.65 89.05 L37.7 89.4 42.2 89.3 48.6 88.7 Q52.5 88.2 55.95 87.15 59.6 86.1 61.5 84.85 63.4 83.45 63.65 81.9 L63.55 83.15 Q63.4 84.7 61.5 86.1 59.6 87.35 55.95 88.4 52.5 89.45 48.6 89.95 L42.2 90.55 37.7 90.65 29.65 90.3 Q23.95 89.8 19.35 88.4 16.15 87.5 14.35 86.35 11.9 84.9 11.85 83.15 L11.75 82.0" fill="url(#gradient5)" fill-rule="evenodd" stroke="none"/>
      <path d="M70.15 21.85 L70.15 22.05 70.15 22.3 Q69.9 24.0 66.35 25.4 64.1 26.25 60.65 26.95 51.05 29.05 37.6 29.05 24.1 29.05 14.55 26.95 11.05 26.25 8.9 25.4 5.3 23.95 5.1 22.3 L5.05 22.05 5.05 21.85 5.35 21.0 5.5 20.8 5.8 20.4 6.65 19.85 6.8 19.7 7.2 19.45 Q9.6 18.15 14.55 17.0 24.1 14.95 37.6 14.95 51.05 14.95 60.65 17.0 68.15 18.7 69.75 20.8 L70.15 21.65 70.15 21.85" fill="url(#gradient6)" fill-rule="evenodd" stroke="none"/>
      <path d="M70.15 21.65 L69.75 20.8 Q68.15 18.7 60.65 17.0 51.05 14.95 37.6 14.95 24.1 14.95 14.55 17.0 9.6 18.15 7.2 19.45 L6.8 19.7 6.65 19.85 5.8 20.4 5.5 20.8 5.5 20.7 5.8 20.25 6.65 19.6 6.8 19.45 7.2 19.2 Q9.6 17.75 14.55 16.5 24.1 14.2 37.6 14.2 51.05 14.2 60.65 16.5 68.15 18.35 69.75 20.7 L70.15 21.65" fill="#f8fbfc" fill-rule="evenodd" stroke="none"/>
      <path d="M8.65 41.6 L11.7 42.55 12.9 42.9 Q19.9 44.75 28.8 45.35 L37.6 45.6 42.4 45.55 49.3 45.15 Q56.45 44.45 62.3 42.9 L63.75 42.55 66.65 41.6 63.65 81.9 Q63.4 83.45 61.5 84.85 59.6 86.1 55.95 87.15 52.5 88.2 48.6 88.7 L42.2 89.3 37.7 89.4 29.65 89.05 Q23.95 88.55 19.35 87.15 16.15 86.25 14.35 85.1 11.95 83.7 11.75 82.0 L11.75 81.9 8.65 41.6" fill="url(#gradient7)" fill-rule="evenodd" stroke="none"/>
      <path d="M44.85 20.55 Q52.3 21.05 52.3 22.0 51.85 24.0 45.0 24.15 L30.25 24.15 Q23.4 24.0 22.95 22.0 22.95 21.05 30.4 20.55 L44.85 20.55" fill="#b4c2c6" fill-rule="evenodd" stroke="none"/>
      <path d="M44.9 22.7 L44.55 22.25 44.45 21.8 44.45 21.7 44.4 20.85 44.4 20.65 Q44.25 18.95 43.9 18.0 43.2 16.35 37.55 16.35 32.05 16.35 31.4 18.0 31.0 18.95 30.9 20.65 L30.9 20.85 30.85 21.7 30.8 21.7 30.8 21.8 30.65 22.25 30.4 22.7 29.9 20.65 29.95 19.8 Q30.1 17.85 30.5 16.8 31.25 15.05 37.5 15.05 43.95 15.05 44.7 16.8 45.15 17.85 45.3 19.8 L45.4 20.65 44.9 22.7" fill="#89959a" fill-rule="evenodd" stroke="none"/>
      <path d="M30.4 22.7 L30.1 22.95 29.85 23.1 28.95 23.45 26.6 23.7 25.75 23.65 25.75 23.1 25.75 23.0 Q25.95 17.2 28.0 15.35 30.35 13.25 37.2 13.1 L38.5 13.1 Q45.35 13.25 47.65 15.35 49.3 16.85 49.8 20.95 L49.95 23.0 49.95 23.1 49.95 23.55 48.7 23.7 48.45 23.7 Q46.4 23.65 45.4 23.1 L44.9 22.7 45.4 20.65 45.3 19.8 Q45.15 17.85 44.7 16.8 43.95 15.05 37.5 15.05 31.25 15.05 30.5 16.8 30.1 17.85 29.95 19.8 L29.9 20.65 30.4 22.7" fill="url(#gradient8)" fill-rule="evenodd" stroke="none"/>
      <path d="M22.85 21.85 L22.85 21.6 Q23.0 14.4 25.65 12.15 28.5 9.65 36.85 9.5 L38.45 9.5 Q46.8 9.65 49.65 12.15 52.05 14.25 52.4 20.65 L52.4 21.6 52.4 21.9 52.15 19.8 Q51.6 15.15 49.2 13.35 46.45 11.2 38.4 11.1 L36.85 11.1 Q28.8 11.2 26.05 13.35 23.65 15.15 23.1 19.85 L22.85 21.85" fill="#e7f0f4" fill-rule="evenodd" stroke="none"/>
      <path d="M25.75 23.65 L24.05 23.2 23.3 22.7 23.15 22.55 23.0 22.35 22.85 21.85 23.1 19.85 Q23.65 15.15 26.05 13.35 28.8 11.2 36.85 11.1 L38.4 11.1 Q46.45 11.2 49.2 13.35 51.6 15.15 52.15 19.8 L52.4 21.9 52.25 22.35 52.15 22.55 52.0 22.7 51.25 23.2 49.95 23.55 49.95 23.1 49.95 23.0 49.8 20.95 Q49.3 16.85 47.65 15.35 45.35 13.25 38.5 13.1 L37.2 13.1 Q30.35 13.25 28.0 15.35 25.95 17.2 25.75 23.0 L25.75 23.1 25.75 23.65" fill="#c8d2d6" fill-rule="evenodd" stroke="none"/>
      <path d="M20.75 82.5 L21.0 82.15 Q21.8 81.05 21.7 79.45 L20.55 53.1 Q20.5 51.55 19.6 50.4 18.65 49.3 17.45 49.3 L16.6 49.45 Q17.4 48.6 18.45 48.6 19.65 48.6 20.6 49.75 21.5 50.85 21.55 52.45 L22.7 78.8 Q22.8 80.35 22.0 81.5 L20.75 82.5" fill="#79868b" fill-rule="evenodd" stroke="none"/>
      <path d="M16.6 49.45 L17.45 49.3 Q18.65 49.3 19.6 50.4 20.5 51.55 20.55 53.1 L21.7 79.45 Q21.8 81.05 21.0 82.15 L20.75 82.5 19.95 82.6 Q18.7 82.6 17.75 81.5 16.85 80.35 16.75 78.8 L15.6 52.45 Q15.55 50.85 16.35 49.75 L16.6 49.45" fill="#8d999f" fill-rule="evenodd" stroke="none"/>
      <path d="M54.85 49.35 L55.35 49.3 Q56.6 49.3 57.45 50.4 58.25 51.55 58.2 53.1 L57.05 79.45 Q56.95 81.05 56.05 82.15 L55.7 82.6 55.1 82.6 Q53.9 82.6 53.05 81.5 52.25 80.35 52.35 78.8 L53.5 52.45 Q53.55 50.85 54.45 49.75 L54.85 49.35" fill="#95a1a6" fill-rule="evenodd" stroke="none"/>
      <path d="M54.85 49.35 Q55.65 48.6 56.6 48.6 57.85 48.6 58.7 49.75 59.5 50.85 59.45 52.45 L58.3 78.8 Q58.2 80.35 57.3 81.5 56.6 82.35 55.7 82.6 L56.05 82.15 Q56.95 81.05 57.05 79.45 L58.2 53.1 Q58.25 51.55 57.45 50.4 56.6 49.3 55.35 49.3 L54.85 49.35" fill="#848e93" fill-rule="evenodd" stroke="none"/>
      <path d="M37.8 84.4 L37.2 84.4 Q35.45 84.4 34.2 83.3 32.95 82.15 32.95 80.6 L32.95 54.25 Q32.95 52.65 34.2 51.55 L35.15 50.9 35.7 50.85 Q37.45 50.85 38.7 52.0 39.95 53.1 39.95 54.7 L39.95 81.05 Q39.95 82.6 38.7 83.75 L37.8 84.4" fill="#95a1a6" fill-rule="evenodd" stroke="none"/>
      <path d="M35.15 50.9 Q36.05 50.4 37.2 50.4 38.95 50.4 40.2 51.55 41.45 52.65 41.45 54.25 L41.45 80.6 Q41.45 82.15 40.2 83.3 39.15 84.25 37.8 84.4 L38.7 83.75 Q39.95 82.6 39.95 81.05 L39.95 54.7 Q39.95 53.1 38.7 52.0 37.45 50.85 35.7 50.85 L35.15 50.9" fill="#848e93" fill-rule="evenodd" stroke="none"/>
    </g>
    <radialGradient cx="0" cy="0" gradientTransform="matrix(0.0354, 0.0, 0.0, 0.0446, 41.8, 49.25)" gradientUnits="userSpaceOnUse" id="gradient2" r="819.2" spreadMethod="pad">
      <stop offset="0.4" stop-color="#829095"/>
      <stop offset="1.0" stop-color="#657177"/>
    </radialGradient>
    <radialGradient cx="0" cy="0" gradientTransform="matrix(0.0403, 0.0, 0.0, 0.0157, 39.55, 27.5)" gradientUnits="userSpaceOnUse" id="gradient3" r="819.2" spreadMethod="pad">
      <stop offset="0.43137254901960786" stop-color="#86949b"/>
      <stop offset="1.0" stop-color="#7f8d95"/>
    </radialGradient>
    <radialGradient cx="0" cy="0" gradientTransform="matrix(0.04, 0.0, 0.0, 0.0165, 39.55, 26.75)" gradientUnits="userSpaceOnUse" id="gradient4" r="819.2" spreadMethod="pad">
      <stop offset="0.43137254901960786" stop-color="#c1cacc"/>
      <stop offset="1.0" stop-color="#9eadb0"/>
    </radialGradient>
    <radialGradient cx="0" cy="0" gradientTransform="matrix(0.0351, 0.0, 0.0, 0.0392, 39.05, 64.8)" gradientUnits="userSpaceOnUse" id="gradient5" r="819.2" spreadMethod="pad">
      <stop offset="0.4" stop-color="#7f8d93"/>
      <stop offset="1.0" stop-color="#7f8b90"/>
    </radialGradient>
    <radialGradient cx="0" cy="0" gradientTransform="matrix(0.0493, 0.0, 0.0, 0.0145, 49.05, 18.0)" gradientUnits="userSpaceOnUse" id="gradient6" r="819.2" spreadMethod="pad">
      <stop offset="0.4" stop-color="#e1eaec"/>
      <stop offset="1.0" stop-color="#d6dfe1"/>
    </radialGradient>
    <radialGradient cx="0" cy="0" gradientTransform="matrix(0.0351, 0.0, 0.0, 0.0464, 41.8, 49.5)" gradientUnits="userSpaceOnUse" id="gradient7" r="819.2" spreadMethod="pad">
      <stop offset="0.43137254901960786" stop-color="#b3b8be"/>
      <stop offset="1.0" stop-color="#97a3a8"/>
    </radialGradient>
    <radialGradient cx="0" cy="0" gradientTransform="matrix(0.0169, 0.0, 0.0, 0.0169, 38.55, 11.5)" gradientUnits="userSpaceOnUse" id="gradient8" r="819.2" spreadMethod="pad">
      <stop offset="0.4117647058823529" stop-color="#b0bcc0"/>
      <stop offset="1.0" stop-color="#9eadb0"/>
    </radialGradient>
    <g id="sprite8" transform="matrix(1.0, 0.0, 0.0, 1.0, 0.75, 3.9)">
      <use ffdec:characterId="201" height="53.9" transform="matrix(1.0, 0.0, 0.0, 1.0, -0.75, -3.9)" width="55.8" xlink:href="#shape6"/>
    </g>
    <g id="shape6" transform="matrix(1.0, 0.0, 0.0, 1.0, 0.75, 3.9)">
      <path d="M40.25 24.1 L39.75 24.65 38.7 25.6 Q46.05 32.3 53.65 37.25 L55.05 38.15 Q49.1 45.6 43.75 50.0 35.85 44.75 27.15 36.35 18.45 44.75 10.55 50.0 5.2 45.6 -0.75 38.15 L0.65 37.25 Q8.25 32.35 15.6 25.6 L14.6 24.65 14.1 24.15 9.0 18.85 Q5.25 14.75 1.4 8.7 L2.1 7.8 2.2 7.6 Q5.5 3.3 11.95 -1.65 18.15 5.55 24.8 12.45 L27.15 14.85 29.5 12.45 Q36.15 5.55 42.35 -1.65 48.8 3.3 52.1 7.6 L52.3 7.85 52.9 8.7 Q49.05 14.75 45.3 18.85 L40.25 24.1" fill="#ee1313" fill-rule="evenodd" stroke="none"/>
      <path d="M55.05 38.15 L53.65 37.25 Q46.05 32.3 38.7 25.6 L39.75 24.65 40.25 24.1 Q47.0 30.0 54.0 34.4 L55.05 38.15 M52.9 8.7 L52.3 7.85 52.1 7.6 Q48.8 3.3 42.35 -1.65 36.15 5.55 29.5 12.45 L27.15 14.85 24.8 12.45 Q18.15 5.55 11.95 -1.65 5.5 3.3 2.2 7.6 L2.1 7.8 1.4 8.7 2.4 6.1 3.55 4.6 Q6.7 0.65 12.55 -3.9 18.5 3.05 24.9 9.7 L27.15 12.0 29.4 9.7 Q35.8 3.05 41.8 -3.9 48.4 1.15 51.55 5.55 L51.95 6.1 52.0 6.4 52.9 8.7 M14.1 24.15 L14.6 24.65 15.6 25.6 Q8.25 32.35 0.65 37.25 L-0.75 38.15 0.3 34.4 Q7.25 30.05 14.1 24.15" fill="#8e0000" fill-rule="evenodd" stroke="none"/>
    </g>
    <g id="sprite9" transform="matrix(1.0, 0.0, 0.0, 1.0, 42.1, 42.1)">
      <use ffdec:characterId="187" height="108.75" transform="matrix(1.0, 0.0, 0.0, 1.0, -42.1, -42.1)" width="108.75" xlink:href="#shape7"/>
      <filter id="filter19">
        <feConvolveMatrix divisor="25.0" in="SourceGraphic" kernelMatrix="1 1 1 1 1 1 1 1 1 1 1 1 1 1 1 1 1 1 1 1 1 1 1 1 1" order="5 5" result="filterResult21"/>
        <feConvolveMatrix divisor="25.0" in="filterResult21" kernelMatrix="1 1 1 1 1 1 1 1 1 1 1 1 1 1 1 1 1 1 1 1 1 1 1 1 1" order="5 5" result="filterResult22"/>
      </filter>
      <use ffdec:characterId="188" filter="url(#filter19)" height="0.0" transform="matrix(1.2778, 0.0, 0.0, 1.2778, 7.55, 17.4)" width="0.0" xlink:href="#sprite10"/>
      <use ffdec:characterId="189" height="33.5" transform="matrix(1.0, 0.0, 0.0, 1.0, -8.6, -14.55)" width="41.85" xlink:href="#shape8"/>
    </g>
    <g id="shape7" transform="matrix(1.0, 0.0, 0.0, 1.0, 42.1, 42.1)">
      <path d="M62.0 12.25 Q62.0 32.8 47.4 47.4 32.8 62.0 12.25 62.0 -8.25 62.0 -22.85 47.4 -37.45 32.8 -37.45 12.25 -37.45 -8.25 -22.85 -22.85 -8.25 -37.45 12.25 -37.45 32.8 -37.45 47.4 -22.85 62.0 -8.25 62.0 12.25" fill="#e9e9e9" fill-rule="evenodd" stroke="none"/>
      <path d="M62.0 12.25 Q62.0 32.8 47.4 47.4 32.8 62.0 12.25 62.0 -8.25 62.0 -22.85 47.4 -37.45 32.8 -37.45 12.25 -37.45 -8.25 -22.85 -22.85 -8.25 -37.45 12.25 -37.45 32.8 -37.45 47.4 -22.85 62.0 -8.25 62.0 12.25 Z" ffdec:has-small-stroke="true" ffdec:original-stroke-width="5.0" fill="none" stroke="#858585" stroke-linecap="round" stroke-linejoin="round" stroke-width="5.552016265672655"/>
      <path d="M46.15 12.25 Q46.15 26.25 36.2 36.2 26.25 46.15 12.25 46.15 -1.7 46.15 -11.65 36.2 -21.6 26.25 -21.6 12.25 -21.6 -1.7 -11.65 -11.65 -1.7 -21.6 12.25 -21.6 26.25 -21.6 36.2 -11.65 46.15 -1.7 46.15 12.25" fill="url(#gradient9)" fill-rule="evenodd" stroke="none"/>
      <path d="M66.65 12.25 Q66.65 34.7 50.7 50.7 34.7 66.65 12.25 66.65 -10.15 66.65 -26.15 50.7 -42.1 34.7 -42.1 12.25 -42.1 -10.15 -26.15 -26.15 -10.15 -42.1 12.25 -42.1 34.7 -42.1 50.7 -26.15 66.65 -10.15 66.65 12.25" fill="url(#gradient10)" fill-rule="evenodd" stroke="none"/>
      <path d="M46.15 12.25 Q46.15 26.25 36.2 36.2 26.25 46.15 12.25 46.15 -1.7 46.15 -11.65 36.2 -21.6 26.25 -21.6 12.25 -21.6 -1.7 -11.65 -11.65 -1.7 -21.6 12.25 -21.6 26.25 -21.6 36.2 -11.65 46.15 -1.7 46.15 12.25" fill="url(#gradient11)" fill-rule="evenodd" stroke="none"/>
      <path d="M46.15 12.25 Q46.15 26.25 36.2 36.2 26.25 46.15 12.25 46.15 -1.7 46.15 -11.65 36.2 -21.6 26.25 -21.6 12.25 -21.6 -1.7 -11.65 -11.65 -1.7 -21.6 12.25 -21.6 26.25 -21.6 36.2 -11.65 46.15 -1.7 46.15 12.25 Z" ffdec:has-small-stroke="true" ffdec:original-stroke-width="5.0" fill="none" stroke="#009900" stroke-linecap="round" stroke-linejoin="round" stroke-width="5.552016265672655"/>
    </g>
    <radialGradient cx="0" cy="0" gradientTransform="matrix(0.0412, 0.0, 0.0, 0.0412, 13.0, 15.5)" gradientUnits="userSpaceOnUse" id="gradient9" r="819.2" spreadMethod="pad">
      <stop offset="0.6352941176470588" stop-color="#00b62d" stop-opacity="0.0"/>
      <stop offset="1.0" stop-color="#009123"/>
    </radialGradient>
    <radialGradient cx="0" cy="0" gradientTransform="matrix(0.0551, 0.0, 0.0, 0.0551, 12.05, 12.05)" gradientUnits="userSpaceOnUse" id="gradient10" r="819.2" spreadMethod="pad">
      <stop offset="0.615686274509804" stop-color="#00af00"/>
      <stop offset="1.0" stop-color="#00af00" stop-opacity="0.0"/>
    </radialGradient>
    <radialGradient cx="0" cy="0" gradientTransform="matrix(0.0363, 0.0, 0.0, 0.0274, 15.0, 20.5)" gradientUnits="userSpaceOnUse" id="gradient11" r="819.2" spreadMethod="pad">
      <stop offset="0.27450980392156865" stop-color="#30ee5f"/>
      <stop offset="0.4117647058823529" stop-color="#2ce95a"/>
      <stop offset="0.8745098039215686" stop-color="#06bd33"/>
      <stop offset="1.0" stop-color="#00b62d"/>
    </radialGradient>
    <g id="shape8" transform="matrix(1.0, 0.0, 0.0, 1.0, 8.6, 14.55)">
      <path d="M33.25 2.2 Q33.25 9.15 27.1 14.05 21.0 18.95 12.35 18.95 3.65 18.95 -2.45 14.05 -8.6 9.15 -8.6 2.2 -8.6 -4.75 -2.45 -9.7 3.65 -14.55 12.35 -14.55 21.0 -14.55 27.1 -9.7 33.25 -4.75 33.25 2.2" fill="url(#gradient12)" fill-rule="evenodd" stroke="none"/>
    </g>
    <radialGradient cx="0" cy="0" gradientTransform="matrix(0.0498, 0.0, 0.0, 0.0277, 12.35, 8.0)" gradientUnits="userSpaceOnUse" id="gradient12" r="819.2" spreadMethod="pad">
      <stop offset="0.41568627450980394" stop-color="#ffffff" stop-opacity="0.12156863"/>
      <stop offset="1.0" stop-color="#ffffff"/>
    </radialGradient>
    <g id="sprite11" transform="matrix(1.0, 0.0, 0.0, 1.0, 42.1, 42.1)">
      <use ffdec:characterId="204" height="104.45" transform="matrix(1.0, 0.0, 0.0, 1.0, -39.95, -39.95)" width="104.45" xlink:href="#shape9"/>
      <use ffdec:characterId="206" height="108.75" transform="matrix(1.0, 0.0, 0.0, 1.0, -42.1, -42.1)" width="108.75" xlink:href="#sprite12"/>
      <filter id="filter21">
        <feConvolveMatrix divisor="25.0" in="SourceGraphic" kernelMatrix="1 1 1 1 1 1 1 1 1 1 1 1 1 1 1 1 1 1 1 1 1 1 1 1 1" order="5 5" result="filterResult28"/>
        <feConvolveMatrix divisor="25.0" in="filterResult28" kernelMatrix="1 1 1 1 1 1 1 1 1 1 1 1 1 1 1 1 1 1 1 1 1 1 1 1 1" order="5 5" result="filterResult29"/>
      </filter>
      <use ffdec:characterId="188" filter="url(#filter21)" height="0.0" transform="matrix(1.2778, 0.0, 0.0, 1.2778, 7.55, 17.4)" width="0.0" xlink:href="#sprite10"/>
      <use ffdec:characterId="189" height="33.5" transform="matrix(1.0, 0.0, 0.0, 1.0, -8.6, -14.55)" width="41.85" xlink:href="#shape8"/>
    </g>
    <g id="shape9" transform="matrix(1.0, 0.0, 0.0, 1.0, 39.95, 39.95)">
      <path d="M62.0 12.25 Q62.0 32.8 47.4 47.4 32.8 62.0 12.25 62.0 -8.25 62.0 -22.85 47.4 -37.45 32.8 -37.45 12.25 -37.45 -8.25 -22.85 -22.85 -8.25 -37.45 12.25 -37.45 32.8 -37.45 47.4 -22.85 62.0 -8.25 62.0 12.25" fill="#e9e9e9" fill-rule="evenodd" stroke="none"/>
      <path d="M62.0 12.25 Q62.0 32.8 47.4 47.4 32.8 62.0 12.25 62.0 -8.25 62.0 -22.85 47.4 -37.45 32.8 -37.45 12.25 -37.45 -8.25 -22.85 -22.85 -8.25 -37.45 12.25 -37.45 32.8 -37.45 47.4 -22.85 62.0 -8.25 62.0 12.25 Z" ffdec:has-small-stroke="true" ffdec:original-stroke-width="5.0" fill="none" stroke="#858585" stroke-linecap="round" stroke-linejoin="round" stroke-width="5.552016265672655"/>
      <path d="M46.15 12.25 Q46.15 26.25 36.2 36.2 26.25 46.15 12.25 46.15 -1.7 46.15 -11.65 36.2 -21.6 26.25 -21.6 12.25 -21.6 -1.7 -11.65 -11.65 -1.7 -21.6 12.25 -21.6 26.25 -21.6 36.2 -11.65 46.15 -1.7 46.15 12.25" fill="url(#gradient13)" fill-rule="evenodd" stroke="none"/>
    </g>
    <radialGradient cx="0" cy="0" gradientTransform="matrix(0.0412, 0.0, 0.0, 0.0412, 13.0, 15.5)" gradientUnits="userSpaceOnUse" id="gradient13" r="819.2" spreadMethod="pad">
      <stop offset="0.6352941176470588" stop-color="#00b62d" stop-opacity="0.0"/>
      <stop offset="1.0" stop-color="#009123"/>
    </radialGradient>
    <g id="sprite12" transform="matrix(1.0, 0.0, 0.0, 1.0, 0.0, 0.0)">
      <use ffdec:characterId="205" height="108.75" transform="matrix(1.0, 0.0, 0.0, 1.0, 0.0, 0.0)" width="108.75" xlink:href="#shape10"/>
    </g>
    <g id="shape10" transform="matrix(1.0, 0.0, 0.0, 1.0, 0.0, 0.0)">
      <path d="M108.75 54.35 Q108.75 76.8 92.8 92.8 76.8 108.75 54.35 108.75 31.95 108.75 15.95 92.8 0.0 76.8 0.0 54.35 0.0 31.95 15.95 15.95 31.95 0.0 54.35 0.0 76.8 0.0 92.8 15.95 108.75 31.95 108.75 54.35 M88.25 54.35 Q88.25 40.4 78.3 30.45 68.35 20.5 54.35 20.5 40.4 20.5 30.45 30.45 20.5 40.4 20.5 54.35 20.5 68.35 30.45 78.3 40.4 88.25 54.35 88.25 68.35 88.25 78.3 78.3 88.25 68.35 88.25 54.35" fill="url(#gradient14)" fill-rule="evenodd" stroke="none"/>
      <path d="M88.25 54.35 Q88.25 68.35 78.3 78.3 68.35 88.25 54.35 88.25 40.4 88.25 30.45 78.3 20.5 68.35 20.5 54.35 20.5 40.4 30.45 30.45 40.4 20.5 54.35 20.5 68.35 20.5 78.3 30.45 88.25 40.4 88.25 54.35" fill="url(#gradient15)" fill-rule="evenodd" stroke="none"/>
      <path d="M88.25 54.35 Q88.25 68.35 78.3 78.3 68.35 88.25 54.35 88.25 40.4 88.25 30.45 78.3 20.5 68.35 20.5 54.35 20.5 40.4 30.45 30.45 40.4 20.5 54.35 20.5 68.35 20.5 78.3 30.45 88.25 40.4 88.25 54.35 Z" ffdec:has-small-stroke="true" ffdec:original-stroke-width="5.0" fill="none" stroke="#ff1600" stroke-linecap="round" stroke-linejoin="round" stroke-width="5.552016265672655"/>
    </g>
    <radialGradient cx="0" cy="0" gradientTransform="matrix(0.0551, 0.0, 0.0, 0.0551, 54.15, 54.15)" gradientUnits="userSpaceOnUse" id="gradient14" r="819.2" spreadMethod="pad">
      <stop offset="0.615686274509804" stop-color="#ff3d00"/>
      <stop offset="1.0" stop-color="#ff3d00" stop-opacity="0.0"/>
    </radialGradient>
    <radialGradient cx="0" cy="0" gradientTransform="matrix(0.0363, 0.0, 0.0, 0.0274, 57.1, 62.6)" gradientUnits="userSpaceOnUse" id="gradient15" r="819.2" spreadMethod="pad">
      <stop offset="0.27450980392156865" stop-color="#ff532d"/>
      <stop offset="0.4117647058823529" stop-color="#ff512b"/>
      <stop offset="0.8745098039215686" stop-color="#ff4218"/>
      <stop offset="1.0" stop-color="#ff3f15"/>
    </radialGradient>
    <g id="sprite13" transform="matrix(1.0, 0.0, 0.0, 1.0, 42.1, 42.1)">
      <use ffdec:characterId="204" height="104.45" transform="matrix(1.0, 0.0, 0.0, 1.0, -39.95, -39.95)" width="104.45" xlink:href="#shape11"/>
      <use ffdec:characterId="206" height="108.75" transform="matrix(1.0, 0.0, 0.0, 1.0, -42.1, -42.1)" width="108.75" xlink:href="#sprite14"/>
      <filter id="filter23">
        <feConvolveMatrix divisor="25.0" in="SourceGraphic" kernelMatrix="1 1 1 1 1 1 1 1 1 1 1 1 1 1 1 1 1 1 1 1 1 1 1 1 1" order="5 5" result="filterResult35"/>
        <feConvolveMatrix divisor="25.0" in="filterResult35" kernelMatrix="1 1 1 1 1 1 1 1 1 1 1 1 1 1 1 1 1 1 1 1 1 1 1 1 1" order="5 5" result="filterResult36"/>
      </filter>
      <use ffdec:characterId="188" filter="url(#filter23)" height="0.0" transform="matrix(1.2778, 0.0, 0.0, 1.2778, 7.55, 17.4)" width="0.0" xlink:href="#sprite10"/>
      <use ffdec:characterId="189" height="33.5" transform="matrix(1.0, 0.0, 0.0, 1.0, -8.6, -14.55)" width="41.85" xlink:href="#shape8"/>
    </g>
    <g id="shape11" transform="matrix(1.0, 0.0, 0.0, 1.0, 39.95, 39.95)">
      <path d="M62.0 12.25 Q62.0 32.8 47.4 47.4 32.8 62.0 12.25 62.0 -8.25 62.0 -22.85 47.4 -37.45 32.8 -37.45 12.25 -37.45 -8.25 -22.85 -22.85 -8.25 -37.45 12.25 -37.45 32.8 -37.45 47.4 -22.85 62.0 -8.25 62.0 12.25" fill="#e9e9e9" fill-rule="evenodd" stroke="none"/>
      <path d="M62.0 12.25 Q62.0 32.8 47.4 47.4 32.8 62.0 12.25 62.0 -8.25 62.0 -22.85 47.4 -37.45 32.8 -37.45 12.25 -37.45 -8.25 -22.85 -22.85 -8.25 -37.45 12.25 -37.45 32.8 -37.45 47.4 -22.85 62.0 -8.25 62.0 12.25 Z" ffdec:has-small-stroke="true" ffdec:original-stroke-width="5.0" fill="none" stroke="#858585" stroke-linecap="round" stroke-linejoin="round" stroke-width="5.552016265672655"/>
      <path d="M46.15 12.25 Q46.15 26.25 36.2 36.2 26.25 46.15 12.25 46.15 -1.7 46.15 -11.65 36.2 -21.6 26.25 -21.6 12.25 -21.6 -1.7 -11.65 -11.65 -1.7 -21.6 12.25 -21.6 26.25 -21.6 36.2 -11.65 46.15 -1.7 46.15 12.25" fill="url(#gradient16)" fill-rule="evenodd" stroke="none"/>
    </g>
    <radialGradient cx="0" cy="0" gradientTransform="matrix(0.0412, 0.0, 0.0, 0.0412, 13.0, 15.5)" gradientUnits="userSpaceOnUse" id="gradient16" r="819.2" spreadMethod="pad">
      <stop offset="0.6352941176470588" stop-color="#00b62d" stop-opacity="0.0"/>
      <stop offset="1.0" stop-color="#009123"/>
    </radialGradient>
    <g id="sprite14" transform="matrix(1.0, 0.0, 0.0, 1.0, 0.0, 0.0)">
      <use ffdec:characterId="205" height="108.75" transform="matrix(1.0, 0.0, 0.0, 1.0, 0.0, 0.0)" width="108.75" xlink:href="#shape12"/>
    </g>
    <g id="shape12" transform="matrix(1.0, 0.0, 0.0, 1.0, 0.0, 0.0)">
      <path d="M108.75 54.35 Q108.75 76.8 92.8 92.8 76.8 108.75 54.35 108.75 31.95 108.75 15.95 92.8 0.0 76.8 0.0 54.35 0.0 31.95 15.95 15.95 31.95 0.0 54.35 0.0 76.8 0.0 92.8 15.95 108.75 31.95 108.75 54.35 M88.25 54.35 Q88.25 40.4 78.3 30.45 68.35 20.5 54.35 20.5 40.4 20.5 30.45 30.45 20.5 40.4 20.5 54.35 20.5 68.35 30.45 78.3 40.4 88.25 54.35 88.25 68.35 88.25 78.3 78.3 88.25 68.35 88.25 54.35" fill="url(#gradient17)" fill-rule="evenodd" stroke="none"/>
      <path d="M88.25 54.35 Q88.25 68.35 78.3 78.3 68.35 88.25 54.35 88.25 40.4 88.25 30.45 78.3 20.5 68.35 20.5 54.35 20.5 40.4 30.45 30.45 40.4 20.5 54.35 20.5 68.35 20.5 78.3 30.45 88.25 40.4 88.25 54.35" fill="url(#gradient18)" fill-rule="evenodd" stroke="none"/>
      <path d="M88.25 54.35 Q88.25 68.35 78.3 78.3 68.35 88.25 54.35 88.25 40.4 88.25 30.45 78.3 20.5 68.35 20.5 54.35 20.5 40.4 30.45 30.45 40.4 20.5 54.35 20.5 68.35 20.5 78.3 30.45 88.25 40.4 88.25 54.35 Z" ffdec:has-small-stroke="true" ffdec:original-stroke-width="5.0" fill="none" stroke="#3251c8" stroke-linecap="round" stroke-linejoin="round" stroke-width="5.552016265672655"/>
    </g>
    <radialGradient cx="0" cy="0" gradientTransform="matrix(0.0551, 0.0, 0.0, 0.0551, 54.15, 54.15)" gradientUnits="userSpaceOnUse" id="gradient17" r="819.2" spreadMethod="pad">
      <stop offset="0.615686274509804" stop-color="#3289c8"/>
      <stop offset="1.0" stop-color="#3289c8" stop-opacity="0.0"/>
    </radialGradient>
    <radialGradient cx="0" cy="0" gradientTransform="matrix(0.0363, 0.0, 0.0, 0.0274, 57.1, 62.6)" gradientUnits="userSpaceOnUse" id="gradient18" r="819.2" spreadMethod="pad">
      <stop offset="0.27450980392156865" stop-color="#4aa9f7"/>
      <stop offset="0.4117647058823529" stop-color="#48a6f5"/>
      <stop offset="0.8745098039215686" stop-color="#3590e1"/>
      <stop offset="1.0" stop-color="#328dde"/>
    </radialGradient>
    <g id="sprite15" transform="matrix(1.0, 0.0, 0.0, 1.0, 0.5, 0.5)">
      <use ffdec:characterId="20" height="30.0" transform="matrix(1.0, 0.0, 0.0, 1.0, 0.0, 0.0)" width="30.0" xlink:href="#shape13"/>
      <use ffdec:characterId="22" height="30.0" id="mask_spr" transform="matrix(0.9667, 0.0, 0.0, 0.9667, 0.45, 0.45)" width="30.0" xlink:href="#sprite16"/>
      <use ffdec:characterId="23" height="31.0" transform="matrix(1.0, 0.0, 0.0, 1.0, -0.5, -0.5)" width="31.0" xlink:href="#shape15"/>
    </g>
    <g id="shape13" transform="matrix(1.0, 0.0, 0.0, 1.0, 0.0, 0.0)">
      <path d="M0.45 4.0 Q2.1 2.8 5.0 2.8 L21.0 2.8 Q28.0 2.8 28.0 9.8 L28.0 25.8 Q28.0 27.5 27.6 28.85 25.9 30.0 23.0 30.0 L7.0 30.0 Q0.0 30.0 0.0 23.0 L0.0 7.0 Q0.0 5.3 0.45 4.0" fill="#c9ffee" fill-rule="evenodd" stroke="none"/>
      <path d="M0.45 4.0 Q1.7 0.0 7.0 0.0 L23.0 0.0 Q30.0 0.0 30.0 7.0 L30.0 23.0 Q30.0 27.1 27.6 28.85 28.0 27.5 28.0 25.8 L28.0 9.8 Q28.0 2.8 21.0 2.8 L5.0 2.8 Q2.1 2.8 0.45 4.0" fill="#75cbb1" fill-rule="evenodd" stroke="none"/>
    </g>
    <g id="sprite16" transform="matrix(1.0, 0.0, 0.0, 1.0, 0.0, 0.0)">
      <use ffdec:characterId="21" height="30.0" transform="matrix(1.0, 0.0, 0.0, 1.0, 0.0, 0.0)" width="30.0" xlink:href="#shape14"/>
    </g>
    <g id="shape14" transform="matrix(1.0, 0.0, 0.0, 1.0, 0.0, 0.0)">
      <path d="M0.0 7.0 Q0.0 0.0 7.0 0.0 L23.0 0.0 Q30.0 0.0 30.0 7.0 L30.0 23.0 Q30.0 30.0 23.0 30.0 L7.0 30.0 Q0.0 30.0 0.0 23.0 L0.0 7.0" fill="#ffffff" fill-rule="evenodd" stroke="none"/>
    </g>
    <g id="shape15" transform="matrix(1.0, 0.0, 0.0, 1.0, 0.5, 0.5)">
      <path d="M0.0 7.0 L0.0 23.0 Q0.0 30.0 7.0 30.0 L23.0 30.0 Q30.0 30.0 30.0 23.0 L30.0 7.0 Q30.0 0.0 23.0 0.0 L7.0 0.0 Q0.0 0.0 0.0 7.0 Z" fill="none" stroke="#074331" stroke-linecap="round" stroke-linejoin="round" stroke-width="1.0"/>
    </g>
    <g id="sprite17" transform="matrix(1.0, 0.0, 0.0, 1.0, 10.95, 14.3)">
      <clipPath id="clipPath0">
        <path d="M 29.8 0.05 L 29.09 0.06 L 28.39 0.08 L 27.7 0.12 L 27.01 0.17 L 26.33 0.23 L 25.65 0.31 L 24.98 0.4 L 24.31 0.51 L 23.65 0.64 L 23 0.77 L 22.35 0.92 L 21.71 1.09 L 21.07 1.27 L 20.44 1.47 L 19.82 1.68 L 19.2 1.9 L 18.59 2.14 L 17.98 2.39 L 17.38 2.66 L 16.78 2.94 L 16.2 3.24 L 15.61 3.55 L 15.03 3.87 L 14.46 4.21 L 13.9 4.57 L 13.34 4.94 L 12.78 5.32 L 12.23 5.72 L 11.69 6.13 L 11.16 6.55 L 10.62 6.99 L 10.1 7.45 L 8.6 8.85 L 7.3 10.25 L 5.9 11.9 L 5.32 12.68 L 4.76 13.48 L 4.24 14.28 L 3.75 15.1 L 3.29 15.88 L 2.86 16.69 L 2.47 17.51 L 2.1 18.35 L 1.82 19.03 L 1.56 19.71 L 1.32 20.41 L 1.09 21.11 L 0.89 21.81 L 0.7 22.53 L 0.53 23.25 L 0.38 23.98 L 0.24 24.71 L 0.12 25.45 L 0.02 26.2 L -0.06 26.96 L -0.12 27.72 L -0.16 28.49 L -0.19 29.27 L -0.2 30.05 L -0.2 72.05 L -0.19 72.85 L -0.16 73.65 L -0.12 74.44 L -0.05 75.22 L 0.03 75.99 L 0.14 76.75 L 0.26 77.51 L 0.4 78.26 L 0.56 79.01 L 0.74 79.74 L 0.93 80.47 L 1.15 81.19 L 1.38 81.9 L 1.64 82.61 L 1.91 83.31 L 2.2 84 L 2.48 84.63 L 2.78 85.25 L 3.1 85.86 L 3.42 86.47 L 3.77 87.07 L 4.13 87.67 L 4.51 88.26 L 4.9 88.84 L 5.31 89.41 L 5.73 89.98 L 6.17 90.54 L 6.62 91.1 L 7.1 91.65 L 7.58 92.19 L 8.08 92.72 L 8.6 93.25 L 9.15 93.79 L 9.71 94.32 L 10.28 94.82 L 10.86 95.31 L 11.44 95.79 L 12.03 96.24 L 12.62 96.68 L 13.23 97.1 L 13.83 97.5 L 14.45 97.89 L 15.08 98.26 L 15.71 98.61 L 16.34 98.95 L 16.99 99.27 L 17.64 99.57 L 18.3 99.85 L 18.97 100.12 L 19.64 100.37 L 20.32 100.6 L 21.01 100.81 L 21.7 101.01 L 22.4 101.19 L 23.11 101.35 L 23.83 101.5 L 24.55 101.63 L 25.28 101.74 L 26.01 101.84 L 26.76 101.91 L 27.51 101.97 L 28.26 102.02 L 29.03 102.04 L 29.8 102.05 L 163.85 102.05 L 164.91 102.03 L 165.95 101.99 L 166.97 101.91 L 167.99 101.8 L 168.99 101.66 L 169.97 101.49 L 170.94 101.28 L 171.9 101.05 L 172.51 100.87 L 173.11 100.69 L 173.71 100.49 L 174.31 100.27 L 174.9 100.05 L 175.48 99.81 L 176.06 99.55 L 176.64 99.29 L 177.21 99.01 L 177.77 98.72 L 178.33 98.41 L 178.88 98.1 L 179.43 97.77 L 179.98 97.42 L 180.52 97.07 L 181.05 96.7 L 185.05 93.25 L 186.15 92.15 L 187.45 90.65 L 190.1 86.7 L 191.5 83.95 L 191.78 83.26 L 192.05 82.57 L 192.3 81.87 L 192.53 81.16 L 192.74 80.45 L 192.93 79.72 L 193.11 78.99 L 193.26 78.25 L 193.4 77.5 L 193.52 76.75 L 193.62 75.98 L 193.7 75.21 L 193.77 74.43 L 193.81 73.65 L 193.84 72.85 L 193.85 72.05 L 193.85 30.05 L 193.84 29.28 L 193.82 28.51 L 193.77 27.76 L 193.71 27.01 L 193.64 26.26 L 193.54 25.53 L 193.43 24.8 L 193.3 24.08 L 193.15 23.36 L 192.99 22.65 L 192.81 21.95 L 192.61 21.26 L 192.4 20.57 L 192.17 19.89 L 191.92 19.22 L 191.65 18.55 L 191.37 17.89 L 191.07 17.24 L 190.75 16.59 L 190.41 15.96 L 190.06 15.33 L 189.69 14.7 L 189.3 14.08 L 188.9 13.48 L 188.48 12.87 L 188.04 12.28 L 187.59 11.69 L 187.11 11.11 L 186.62 10.53 L 186.12 9.96 L 185.59 9.4 L 185.05 8.85 L 184.5 8.31 L 183.94 7.78 L 183.37 7.28 L 182.79 6.79 L 182.21 6.31 L 181.62 5.86 L 181.03 5.42 L 180.43 5 L 179.82 4.6 L 179.2 4.21 L 178.57 3.84 L 177.94 3.49 L 177.31 3.15 L 176.66 2.83 L 176.01 2.53 L 175.35 2.25 L 174.68 1.98 L 174.01 1.73 L 173.33 1.5 L 172.64 1.29 L 171.95 1.09 L 171.25 0.91 L 170.54 0.75 L 169.82 0.6 L 169.1 0.47 L 168.37 0.36 L 167.64 0.26 L 166.89 0.19 L 166.14 0.13 L 165.39 0.08 L 164.62 0.06 L 163.85 0.05 Z"/>
      </clipPath>
      <g clip-path="url(#clipPath0)">
        <filter id="filter25">
          <feConvolveMatrix divisor="16.0" in="SourceGraphic" kernelMatrix="1 1 1 1 1 1 1 1 1 1 1 1 1 1 1 1" order="4 4" result="filterResult42"/>
          <feConvolveMatrix divisor="16.0" in="filterResult42" kernelMatrix="1 1 1 1 1 1 1 1 1 1 1 1 1 1 1 1" order="4 4" result="filterResult43"/>
        </filter>
        <use ffdec:characterId="211" filter="url(#filter25)" height="131.95" transform="matrix(1.0, 0.0, 0.0, 1.0, -10.95, -14.3)" width="229.75" xlink:href="#sprite18"/>
      </g>
      <filter id="filter29">
        <feOffset dx="-1.8054294798588804" dy="2.3959182776665178" in="SourceGraphic" result="filterResult44"/>
        <feColorMatrix in="filterResult44" result="filterResult45" type="matrix" values="0 0 0 0 0.69411767,0 0 0 0 0.85882354,0 0 0 0 0.6901961,0 0 0 1 0"/>
        <feColorMatrix in="filterResult45" result="filterResult46" type="matrix" values="1 0 0 0 0,0 1 0 0 0,0 0 1 0 0,0 0 0 0.5 0"/>
        <feComposite in="filterResult46" in2="SourceGraphic" operator="out" result="filterResult47"/>
        <feOffset dx="1.8054294798588804" dy="-2.3959182776665173" in="SourceGraphic" result="filterResult48"/>
        <feColorMatrix in="filterResult48" result="filterResult49" type="matrix" values="0 0 0 0 0.050980393,0 0 0 0 0.32156864,0 0 0 0 0.043137256,0 0 0 1 0"/>
        <feColorMatrix in="filterResult49" result="filterResult50" type="matrix" values="1 0 0 0 0,0 1 0 0 0,0 0 1 0 0,0 0 0 0.5 0"/>
        <feComposite in="filterResult50" in2="SourceGraphic" operator="out" result="filterResult51"/>
        <feComposite in="filterResult47" in2="filterResult51" operator="out" result="filterResult52"/>
        <feComposite in="filterResult51" in2="filterResult47" operator="out" result="filterResult53"/>
        <feComposite in="filterResult52" in2="filterResult53" operator="over" result="filterResult54"/>
        <feConvolveMatrix divisor="16.0" in="filterResult54" kernelMatrix="1 1 1 1 1 1 1 1 1 1 1 1 1 1 1 1" order="4 4" result="filterResult55"/>
        <feConvolveMatrix divisor="16.0" in="filterResult55" kernelMatrix="1 1 1 1 1 1 1 1 1 1 1 1 1 1 1 1" order="4 4" result="filterResult56"/>
        <feComposite in="filterResult56" in2="SourceGraphic" operator="out" result="filterResult57"/>
        <feComposite in="filterResult57" in2="SourceGraphic" operator="over" result="filterResult58"/>
      </filter>
      <use ffdec:characterId="212" filter="url(#filter29)" height="42.4" transform="matrix(1.0, 0.0, 0.0, 1.0, 36.1, 28.95)" width="118.05" xlink:href="#text1"/>
    </g>
    <g id="sprite18" transform="matrix(1.0, 0.0, 0.0, 1.0, 10.95, 14.3)">
      <use ffdec:characterId="210" height="131.95" transform="matrix(1.0, 0.0, 0.0, 1.0, -10.95, -14.3)" width="229.75" xlink:href="#shape16"/>
    </g>
    <g id="shape16" transform="matrix(1.0, 0.0, 0.0, 1.0, 10.95, 14.3)">
      <path d="M-10.95 -14.3 L218.8 -14.3 218.8 117.65 -10.95 117.65 -10.95 -14.3" fill="#3e863c" fill-rule="evenodd" stroke="none"/>
      <path d="M7.45 15.15 L8.3 14.0 9.65 12.4 10.9 11.05 14.8 7.75 Q22.05 2.5 31.5 2.5 L161.55 2.5 Q173.6 2.5 182.15 11.05 190.7 19.55 190.7 31.6 L190.7 72.35 Q190.7 78.6 188.4 83.9 L187.05 86.6 186.5 87.5 185.8 88.65 185.15 89.55 184.5 90.35 184.45 90.4 183.2 91.85 182.15 92.95 180.7 94.35 178.75 95.95 Q173.1 98.5 166.4 98.5 L32.35 98.5 Q19.95 98.5 11.15 89.7 2.7 81.25 2.35 69.5 L2.35 31.0 Q2.45 25.2 4.6 20.25 L5.35 18.7 5.15 22.05 5.15 64.05 Q5.15 76.45 13.95 85.25 22.75 94.05 35.15 94.05 L169.2 94.05 Q177.95 94.05 184.9 89.7 L185.0 89.5 185.55 88.6 186.9 85.9 Q189.2 80.6 189.2 74.35 L189.2 33.6 Q189.2 21.55 180.65 13.05 172.1 4.5 160.05 4.5 L30.0 4.5 Q20.55 4.5 13.3 9.75 L9.4 13.05 8.15 14.4 7.45 15.15" fill="#246922" fill-rule="evenodd" stroke="none"/>
      <path d="M30.0 0.0 L164.05 0.0 Q176.45 0.0 185.25 8.8 194.05 17.6 194.05 30.0 L194.05 72.0 Q194.05 78.45 191.7 83.9 L190.3 86.65 187.65 90.6 186.35 92.1 185.25 93.2 181.25 96.65 Q177.0 99.65 172.1 101.0 168.3 102.0 164.05 102.0 L30.0 102.0 Q17.6 102.0 8.8 93.2 4.6 89.0 2.4 83.95 0.0 78.45 0.0 72.0 L0.0 30.0 Q0.0 23.7 2.3 18.3 3.0 16.6 3.95 15.05 4.9 13.4 6.1 11.85 L7.5 10.2 8.8 8.8 10.3 7.4 Q18.65 0.0 30.0 0.0 M5.35 18.7 L4.6 20.25 Q2.45 25.2 2.35 31.0 L2.35 69.5 Q2.7 81.25 11.15 89.7 19.95 98.5 32.35 98.5 L166.4 98.5 Q173.1 98.5 178.75 95.95 L180.7 94.35 182.15 92.95 183.2 91.85 184.45 90.4 184.5 90.35 185.15 89.55 185.8 88.65 186.5 87.5 187.05 86.6 188.4 83.9 Q190.7 78.6 190.7 72.35 L190.7 31.6 Q190.7 19.55 182.15 11.05 173.6 2.5 161.55 2.5 L31.5 2.5 Q22.05 2.5 14.8 7.75 L10.9 11.05 9.65 12.4 8.3 14.0 7.45 15.15 6.2 17.1 5.35 18.7" fill="#145412" fill-rule="evenodd" stroke="none"/>
      <path d="M5.35 18.7 L6.2 17.1 7.45 15.15 8.15 14.4 9.4 13.05 13.3 9.75 Q20.55 4.5 30.0 4.5 L160.05 4.5 Q172.1 4.5 180.65 13.05 189.2 21.55 189.2 33.6 L189.2 74.35 Q189.2 80.6 186.9 85.9 L185.55 88.6 185.0 89.5 184.9 89.7 Q177.95 94.05 169.2 94.05 L35.15 94.05 Q22.75 94.05 13.95 85.25 5.15 76.45 5.15 64.05 L5.15 22.05 5.35 18.7" fill="url(#gradient19)" fill-rule="evenodd" stroke="none"/>
      <path d="M186.9 61.25 L185.65 48.0 185.65 38.55 Q185.65 26.8 178.6 18.75 L174.55 15.0 Q170.65 11.4 154.8 9.9 L108.95 9.7 43.2 7.95 157.75 7.95 Q172.25 8.8 179.6 16.95 L179.85 17.25 Q186.9 25.3 186.9 37.05 L186.9 61.25" fill="#89d087" fill-rule="evenodd" stroke="none"/>
      <path d="M43.2 7.95 L108.95 9.7 154.8 9.9 Q170.65 11.4 174.55 15.0 L178.6 18.75 Q185.65 26.8 185.65 38.55 L185.65 48.0 186.9 61.25 186.9 76.2 184.5 44.65 Q184.5 29.5 177.2 20.4 L176.55 19.7 Q167.0 10.1 146.05 11.2 138.95 10.85 130.15 10.95 98.7 11.2 58.0 9.45 L27.65 7.95 43.2 7.95" fill="#67af65" fill-rule="evenodd" stroke="none"/>
    </g>
    <radialGradient cx="0" cy="0" gradientTransform="matrix(0.1152, 0.0, 0.0, 0.0763, 123.25, 27.95)" gradientUnits="userSpaceOnUse" id="gradient19" r="819.2" spreadMethod="pad">
      <stop offset="0.3254901960784314" stop-color="#418a3f"/>
      <stop offset="1.0" stop-color="#367b34"/>
    </radialGradient>
    <g id="text1" transform="matrix(1.0, 0.0, 0.0, 1.0, -0.8, -10.7)">
      <g transform="matrix(1.0, 0.0, 0.0, 1.0, 0.0, 0.0)">
        <use fill="#b2dbb1" height="42.4" transform="matrix(0.0518, 0.0, 0.0, 0.0518, 0.0, 52.0)" width="118.05" xlink:href="#font_Fredoka_One_A0"/>
        <use fill="#b2dbb1" height="42.4" transform="matrix(0.0518, 0.0, 0.0, 0.0518, 42.55, 52.0)" width="118.05" xlink:href="#font_Fredoka_One_D0"/>
        <use fill="#b2dbb1" height="42.4" transform="matrix(0.0518, 0.0, 0.0, 0.0518, 81.85, 52.0)" width="118.05" xlink:href="#font_Fredoka_One_D0"/>
      </g>
    </g>
    <g id="font_Fredoka_One_A0">
      <path d="M391.0 -451.5 L460.0 -311.5 323.5 -311.5 Q357.5 -381.5 391.0 -451.5 M474.0 -697.5 Q447.5 -750.5 392.0 -750.5 366.5 -750.5 343.5 -736.5 320.5 -722.0 309.5 -698.5 171.0 -412.0 33.0 -126.0 15.5 -91.0 15.5 -73.5 15.5 -37.0 75.0 -8.0 109.5 9.0 129.5 9.0 149.5 9.0 162.5 -0.5 175.0 -10.0 180.5 -19.5 186.5 -28.5 196.5 -49.0 223.0 -104.5 250.0 -159.5 L533.5 -159.5 Q560.0 -104.5 587.0 -49.0 597.0 -28.5 602.5 -18.5 608.5 -8.0 621.0 1.0 634.0 10.0 654.0 10.0 674.0 10.0 708.5 -7.0 768.0 -37.0 768.0 -73.5 768.0 -91.0 750.5 -126.0 L474.0 -697.5" fill-rule="evenodd" stroke="none"/>
    </g>
    <g id="font_Fredoka_One_D0">
      <path d="M321.5 -182.5 L222.0 -182.5 222.0 -569.5 320.5 -569.5 Q398.5 -569.5 456.0 -513.5 514.0 -457.5 514.0 -375.0 514.0 -292.0 454.5 -237.0 395.5 -182.5 321.5 -182.5 M132.0 -751.5 Q66.5 -751.5 52.0 -724.0 44.0 -708.5 42.5 -697.5 41.0 -686.0 41.0 -661.5 L41.0 -92.0 Q41.0 -48.0 53.5 -26.5 68.5 -1.0 131.0 -1.0 L318.5 -1.0 Q475.0 -1.0 585.0 -112.5 695.5 -224.5 695.5 -380.5 695.5 -536.5 582.5 -643.5 470.0 -750.5 321.5 -750.5 L132.0 -751.5" fill-rule="evenodd" stroke="none"/>
    </g>
    <g id="sprite19" transform="matrix(1.0, 0.0, 0.0, 1.0, -8.55, -2.2)">
      <use ffdec:characterId="214" height="56.75" transform="matrix(1.0, 0.0, 0.0, 1.0, 8.55, 2.2)" width="122.25" xlink:href="#shape17"/>
      <use ffdec:characterId="215" height="27.9" transform="matrix(1.0, 0.0, 0.0, 1.0, 21.95, 16.8)" width="93.85" xlink:href="#text2"/>
    </g>
    <g id="shape17" transform="matrix(1.0, 0.0, 0.0, 1.0, -8.55, -2.2)">
      <path d="M24.1 2.2 L116.2 2.2 Q130.8 2.7 130.8 17.75 L130.8 43.4 Q130.8 58.45 116.2 58.95 L24.1 58.95 Q8.55 58.95 8.55 43.4 L8.55 17.75 Q8.55 2.2 24.1 2.2" fill="#3577e9" fill-rule="evenodd" stroke="none"/>
    </g>
    <g id="text2" transform="matrix(1.0, 0.0, 0.0, 1.0, -0.8, -5.55)">
      <g transform="matrix(1.0, 0.0, 0.0, 1.0, 0.0, 0.0)">
        <use fill="#d4e4ff" height="27.9" transform="matrix(0.0322, 0.0, 0.0, 0.0322, 0.0, 32.0)" width="93.85" xlink:href="#font_Fredoka_One_S0"/>
        <use fill="#d4e4ff" height="27.9" transform="matrix(0.0322, 0.0, 0.0, 0.0322, 21.25, 32.0)" width="93.85" xlink:href="#font_Fredoka_One_E0"/>
        <use fill="#d4e4ff" height="27.9" transform="matrix(0.0322, 0.0, 0.0, 0.0322, 44.3, 32.0)" width="93.85" xlink:href="#font_Fredoka_One_N0"/>
        <use fill="#d4e4ff" height="27.9" transform="matrix(0.0322, 0.0, 0.0, 0.0322, 70.05, 32.0)" width="93.85" xlink:href="#font_Fredoka_One_T0"/>
      </g>
    </g>
    <g id="font_Fredoka_One_S0">
      <path d="M52.0 -105.5 Q57.0 -100.0 61.5 -94.0 83.0 -63.5 137.0 -30.5 164.0 -13.5 207.0 -1.5 250.0 10.0 298.0 10.0 392.0 10.0 475.0 -44.0 518.0 -71.5 545.0 -122.5 571.5 -173.0 571.5 -239.5 571.5 -306.0 545.5 -351.5 519.0 -397.5 480.5 -415.5 441.5 -434.0 395.5 -447.0 349.0 -460.0 310.5 -466.0 271.5 -472.0 245.0 -489.5 219.0 -507.0 219.0 -535.0 219.0 -563.0 241.0 -579.0 263.0 -595.0 296.5 -595.0 329.5 -595.0 351.0 -581.5 358.5 -576.5 367.0 -568.5 376.0 -560.0 379.0 -558.0 410.5 -537.5 432.0 -537.5 469.0 -537.5 504.0 -589.0 528.5 -624.5 528.5 -645.0 528.5 -665.5 496.5 -695.5 L471.0 -714.5 Q451.5 -731.0 401.0 -747.0 350.0 -763.0 289.0 -763.0 173.0 -763.0 106.0 -696.0 39.0 -628.5 39.0 -538.5 39.0 -473.0 65.0 -426.5 91.0 -380.0 130.0 -358.5 169.0 -337.0 214.0 -321.0 259.0 -305.0 298.0 -298.0 337.0 -291.0 363.0 -275.0 389.0 -259.0 389.0 -235.5 389.0 -157.5 294.0 -157.5 271.5 -157.5 244.5 -173.5 218.0 -189.5 204.0 -207.0 152.5 -258.0 124.0 -258.0 95.0 -258.0 69.5 -233.5 25.5 -190.5 25.5 -164.5 25.5 -138.0 52.0 -105.5" fill-rule="evenodd" stroke="none"/>
    </g>
    <g id="font_Fredoka_One_E0">
      <path d="M222.0 -181.0 L222.0 -284.5 423.0 -284.5 Q459.0 -284.5 476.0 -291.0 515.0 -303.0 515.0 -375.0 515.0 -440.5 487.5 -454.5 472.0 -463.0 460.5 -464.5 L425.0 -466.0 222.0 -466.0 222.0 -569.5 536.5 -569.5 Q572.5 -569.5 590.0 -575.5 627.5 -588.0 627.5 -659.5 627.5 -725.0 600.0 -739.5 584.5 -747.5 573.0 -749.0 L537.5 -750.5 134.0 -750.5 Q80.0 -750.5 60.5 -731.5 41.0 -712.5 41.0 -660.5 L41.0 -91.0 Q41.0 -55.5 47.0 -39.0 59.5 0.0 131.0 0.0 L536.5 0.0 Q572.5 0.0 590.0 -6.0 627.5 -18.5 627.5 -90.0 627.5 -155.5 600.0 -170.0 584.5 -178.0 573.0 -179.5 L537.5 -181.0 222.0 -181.0" fill-rule="evenodd" stroke="none"/>
    </g>
    <g id="font_Fredoka_One_N0">
      <path d="M526.0 -719.5 Q516.0 -701.5 516.0 -662.5 L516.0 -316.5 Q443.5 -410.5 227.5 -704.5 208.0 -728.0 204.0 -731.0 196.5 -738.5 178.5 -744.0 161.0 -749.5 130.0 -749.5 99.5 -749.5 80.0 -743.5 60.5 -737.5 50.5 -719.5 41.0 -701.5 41.0 -662.5 L41.0 -91.0 Q41.0 -67.5 42.5 -55.5 44.0 -43.0 52.0 -27.5 66.5 0.0 130.0 0.0 195.5 0.0 210.0 -27.5 218.0 -43.0 219.5 -54.5 221.0 -65.5 221.0 -90.0 L221.0 -427.0 Q294.0 -333.0 524.5 -25.5 534.5 -12.5 550.0 -6.0 565.5 0.0 605.0 0.0 670.5 0.0 685.0 -27.5 693.5 -43.0 695.0 -54.5 696.5 -65.5 696.5 -90.0 L696.5 -658.5 Q696.5 -694.5 690.0 -710.5 686.0 -725.0 677.5 -732.0 668.5 -739.5 651.0 -744.5 633.0 -749.5 603.5 -749.5 574.5 -749.5 555.0 -743.5 535.5 -737.5 526.0 -719.5" fill-rule="evenodd" stroke="none"/>
    </g>
    <g id="font_Fredoka_One_T0">
      <path d="M90.0 -751.5 Q56.5 -751.5 38.0 -742.5 25.5 -736.5 20.5 -720.5 15.5 -704.5 15.5 -678.0 15.5 -651.5 20.5 -635.0 25.5 -618.5 41.0 -611.0 56.5 -603.0 89.0 -603.0 L285.5 -603.0 285.5 -89.0 Q285.5 -65.5 287.0 -54.0 289.0 -42.0 296.5 -27.0 304.0 -12.5 323.0 -6.0 342.0 0.0 374.0 0.0 405.5 0.0 425.0 -6.0 444.5 -12.5 452.0 -27.0 460.0 -42.0 461.5 -53.0 463.0 -64.5 463.0 -88.0 L463.0 -603.0 658.5 -603.0 Q692.0 -603.0 710.5 -612.5 723.0 -618.5 728.0 -634.5 733.0 -650.0 733.0 -677.0 733.0 -703.5 728.0 -720.0 723.0 -736.5 707.5 -744.0 692.0 -751.5 659.5 -751.5 L90.0 -751.5" fill-rule="evenodd" stroke="none"/>
    </g>
    <g id="sprite20" transform="matrix(1.0, 0.0, 0.0, 1.0, 12.3, 14.9)">
      <use ffdec:characterId="217" height="93.05" transform="matrix(1.0, 0.0, 0.0, 1.0, -12.3, -14.9)" width="107.6" xlink:href="#shape18"/>
      <filter id="filter35">
        <feColorMatrix in="SourceGraphic" result="filterResult66" type="matrix" values="0.4668964 1.3915999 -0.8584963 0.0 0.0 0.05904843 0.59010756 0.35084397 0.0 0.0 0.9877739 -0.036440253 0.048666343 0.0 0.0 0.0 0.0 0.0 1.0 0.0"/>
        <feOffset dx="-0.3135570753993684" dy="2.983568661932719" in="filterResult66" result="filterResult67"/>
        <feColorMatrix in="filterResult67" result="filterResult68" type="matrix" values="0 0 0 0 0.0,0 0 0 0 0.0,0 0 0 0 0.0,0 0 0 1 0"/>
        <feConvolveMatrix divisor="9.0" in="filterResult68" kernelMatrix="1 1 1 1 1 1 1 1 1" order="3 3" result="filterResult69"/>
        <feColorMatrix in="filterResult69" result="filterResult70" type="matrix" values="1 0 0 0 0,0 1 0 0 0,0 0 1 0 0,0 0 0 0.25 0"/>
        <feComposite in="filterResult66" in2="filterResult70" operator="over" result="filterResult71"/>
      </filter>
      <use ffdec:characterId="219" filter="url(#filter35)" height="55.65" transform="matrix(1.0, 0.0, 0.0, 1.0, 9.75, 4.85)" width="64.4" xlink:href="#sprite21"/>
    </g>
    <g id="shape18" transform="matrix(1.0, 0.0, 0.0, 1.0, 12.3, 14.9)">
      <path d="M17.0 -10.35 Q41.5 -11.6 66.55 -10.05 89.9 -9.7 91.0 16.45 91.65 31.5 91.0 46.9 89.9 72.7 66.55 73.7 40.95 74.7 16.15 73.35 -6.9 72.7 -8.0 46.9 -8.6 30.85 -8.0 16.05 -6.9 -9.7 17.0 -10.35 Z" fill="none" stroke="#3e5277" stroke-linecap="round" stroke-linejoin="round" stroke-width="8.0"/>
      <path d="M18.4 -6.55 Q41.35 -7.75 64.8 -6.3 86.6 -5.95 87.65 18.5 L87.9 30.55 Q87.65 25.6 87.0 19.4 84.9 -1.25 63.0 -1.7 L16.35 -4.6 Q9.25 -4.15 4.5 -2.7 9.95 -6.35 18.4 -6.55 M-3.55 8.8 L-3.55 9.0 -3.55 9.1 -3.65 9.25 -3.55 8.8" fill="#ffffff" fill-rule="evenodd" stroke="none"/>
      <path d="M86.7 -0.15 Q90.6 6.15 91.0 16.45 91.65 31.5 91.0 46.9 90.25 64.75 78.8 70.75 73.75 73.35 66.55 73.7 40.95 74.7 16.15 73.35 -0.8 72.9 -5.85 58.8 -7.65 53.75 -8.0 46.9 -8.6 30.85 -8.0 16.05 -7.3 0.25 1.95 -6.1 -2.6 -0.65 -3.55 8.75 L-3.55 8.8 -3.65 9.25 -3.55 9.1 -3.7 11.35 Q-4.3 25.15 -3.7 40.15 -2.7 64.35 18.85 64.95 42.05 66.15 66.05 65.25 80.35 64.65 85.7 54.05 86.75 52.05 87.45 49.7 88.65 45.5 88.9 40.15 89.5 25.75 88.9 11.7 88.65 4.8 86.7 -0.15" fill="#bbd1de" fill-rule="evenodd" stroke="none"/>
      <path d="M18.4 -6.55 Q9.95 -6.35 4.5 -2.7 9.25 -4.15 16.35 -4.6 L63.0 -1.7 Q84.9 -1.25 87.0 19.4 87.65 25.6 87.9 30.55 L87.65 18.5 Q86.6 -5.95 64.8 -6.3 41.35 -7.75 18.4 -6.55 M1.95 -6.1 Q7.8 -10.1 17.0 -10.35 41.5 -11.6 66.55 -10.05 80.7 -9.85 86.7 -0.15 88.65 4.8 88.9 11.7 89.5 25.75 88.9 40.15 88.65 45.5 87.45 49.7 86.75 52.05 85.7 54.05 80.35 64.65 66.05 65.25 42.05 66.15 18.85 64.95 -2.7 64.35 -3.7 40.15 -4.3 25.15 -3.7 11.35 L-3.55 9.1 -3.55 9.0 -3.55 8.8 -3.55 8.75 Q-2.6 -0.65 1.95 -6.1" fill="url(#gradient20)" fill-rule="evenodd" stroke="none"/>
    </g>
    <radialGradient cx="0" cy="0" gradientTransform="matrix(0.0986, 0.0, 0.0, 0.0669, 57.0, 14.15)" gradientUnits="userSpaceOnUse" id="gradient20" r="819.2" spreadMethod="pad">
      <stop offset="0.3843137254901961" stop-color="#f1f8fc"/>
      <stop offset="1.0" stop-color="#d6e5ed"/>
    </radialGradient>
    <g id="sprite21" transform="matrix(1.0, 0.0, 0.0, 1.0, 8.1, 6.8)">
      <use ffdec:characterId="218" height="55.65" transform="matrix(1.0, 0.0, 0.0, 1.0, -8.1, -6.8)" width="64.4" xlink:href="#shape19"/>
    </g>
    <g id="shape19" transform="matrix(1.0, 0.0, 0.0, 1.0, 8.1, 6.8)">
      <path d="M56.3 3.5 L54.0 8.65 Q34.75 23.55 18.95 48.85 8.75 40.6 -5.8 32.85 L-8.1 29.2 Q-6.8 29.5 0.45 33.1 7.65 36.7 18.4 44.6 32.1 23.85 43.8 14.05 L56.3 3.5" fill="#003ca6" fill-rule="evenodd" stroke="none"/>
      <path d="M56.3 3.5 L43.8 14.05 Q32.1 23.85 18.4 44.6 7.65 36.7 0.45 33.1 -6.8 29.5 -8.1 29.2 -5.1 21.95 -0.55 16.25 8.25 20.85 15.8 27.0 27.3 6.4 43.65 -6.8 50.4 -2.5 56.3 3.5" fill="url(#gradient21)" fill-rule="evenodd" stroke="none"/>
    </g>
    <radialGradient cx="0" cy="0" gradientTransform="matrix(0.0486, 0.0, 0.0, 0.0486, 30.5, 3.75)" gradientUnits="userSpaceOnUse" id="gradient21" r="819.2" spreadMethod="pad">
      <stop offset="0.4" stop-color="#339bff"/>
      <stop offset="1.0" stop-color="#1f92ff"/>
    </radialGradient>
    <g id="sprite22" transform="matrix(1.0, 0.0, 0.0, 1.0, 12.3, 14.9)">
      <use ffdec:characterId="221" height="93.05" transform="matrix(1.0, 0.0, 0.0, 1.0, -12.3, -14.9)" width="107.6" xlink:href="#shape20"/>
      <filter id="filter37">
        <feOffset dx="-0.3135570753993684" dy="2.983568661932719" in="SourceGraphic" result="filterResult78"/>
        <feColorMatrix in="filterResult78" result="filterResult79" type="matrix" values="0 0 0 0 0.0,0 0 0 0 0.0,0 0 0 0 0.0,0 0 0 1 0"/>
        <feConvolveMatrix divisor="9.0" in="filterResult79" kernelMatrix="1 1 1 1 1 1 1 1 1" order="3 3" result="filterResult80"/>
        <feColorMatrix in="filterResult80" result="filterResult81" type="matrix" values="1 0 0 0 0,0 1 0 0 0,0 0 1 0 0,0 0 0 0.25 0"/>
        <feComposite in="SourceGraphic" in2="filterResult81" operator="over" result="filterResult82"/>
      </filter>
      <use ffdec:characterId="223" filter="url(#filter37)" height="55.15" transform="matrix(1.0, 0.0, 0.0, 1.0, 12.5, 5.0)" width="57.45" xlink:href="#sprite23"/>
    </g>
    <g id="shape20" transform="matrix(1.0, 0.0, 0.0, 1.0, 12.3, 14.9)">
      <path d="M17.0 -10.35 Q41.5 -11.6 66.55 -10.05 89.9 -9.7 91.0 16.45 91.65 31.5 91.0 46.9 89.9 72.7 66.55 73.7 40.95 74.7 16.15 73.35 -6.9 72.7 -8.0 46.9 -8.6 30.85 -8.0 16.05 -6.9 -9.7 17.0 -10.35 Z" fill="none" stroke="#3e5277" stroke-linecap="round" stroke-linejoin="round" stroke-width="8.0"/>
      <path d="M18.4 -6.55 Q41.35 -7.75 64.8 -6.3 86.6 -5.95 87.65 18.5 L87.9 30.55 Q87.65 25.6 87.0 19.4 84.9 -1.25 63.0 -1.7 L16.35 -4.6 Q9.25 -4.15 4.5 -2.7 9.95 -6.35 18.4 -6.55 M-3.55 8.8 L-3.55 9.0 -3.55 9.1 -3.65 9.25 -3.55 8.8" fill="#ffffff" fill-rule="evenodd" stroke="none"/>
      <path d="M86.7 -0.15 Q90.6 6.15 91.0 16.45 91.65 31.5 91.0 46.9 90.25 64.75 78.8 70.75 73.75 73.35 66.55 73.7 40.95 74.7 16.15 73.35 -0.8 72.9 -5.85 58.8 -7.65 53.75 -8.0 46.9 -8.6 30.85 -8.0 16.05 -7.3 0.25 1.95 -6.1 -2.6 -0.65 -3.55 8.75 L-3.55 8.8 -3.65 9.25 -3.55 9.1 -3.7 11.35 Q-4.3 25.15 -3.7 40.15 -2.7 64.35 18.85 64.95 42.05 66.15 66.05 65.25 80.35 64.65 85.7 54.05 86.75 52.05 87.45 49.7 88.65 45.5 88.9 40.15 89.5 25.75 88.9 11.7 88.65 4.8 86.7 -0.15" fill="#bbd1de" fill-rule="evenodd" stroke="none"/>
      <path d="M18.4 -6.55 Q9.95 -6.35 4.5 -2.7 9.25 -4.15 16.35 -4.6 L63.0 -1.7 Q84.9 -1.25 87.0 19.4 87.65 25.6 87.9 30.55 L87.65 18.5 Q86.6 -5.95 64.8 -6.3 41.35 -7.75 18.4 -6.55 M1.95 -6.1 Q7.8 -10.1 17.0 -10.35 41.5 -11.6 66.55 -10.05 80.7 -9.85 86.7 -0.15 88.65 4.8 88.9 11.7 89.5 25.75 88.9 40.15 88.65 45.5 87.45 49.7 86.75 52.05 85.7 54.05 80.35 64.65 66.05 65.25 42.05 66.15 18.85 64.95 -2.7 64.35 -3.7 40.15 -4.3 25.15 -3.7 11.35 L-3.55 9.1 -3.55 9.0 -3.55 8.8 -3.55 8.75 Q-2.6 -0.65 1.95 -6.1" fill="url(#gradient22)" fill-rule="evenodd" stroke="none"/>
    </g>
    <radialGradient cx="0" cy="0" gradientTransform="matrix(0.0986, 0.0, 0.0, 0.0669, 57.0, 14.15)" gradientUnits="userSpaceOnUse" id="gradient22" r="819.2" spreadMethod="pad">
      <stop offset="0.3843137254901961" stop-color="#f1f8fc"/>
      <stop offset="1.0" stop-color="#d6e5ed"/>
    </radialGradient>
    <g id="sprite23" transform="matrix(1.0, 0.0, 0.0, 1.0, 1.6, 6.65)">
      <use ffdec:characterId="222" height="55.15" transform="matrix(1.0, 0.0, 0.0, 1.0, -1.6, -6.65)" width="57.45" xlink:href="#shape21"/>
    </g>
    <g id="shape21" transform="matrix(1.0, 0.0, 0.0, 1.0, 1.6, 6.65)">
      <path d="M41.9 17.35 L39.35 14.9 Q47.25 8.3 55.85 2.8 L53.9 8.25 Q47.65 12.6 41.9 17.35 M-1.6 2.8 Q7.0 8.3 14.9 14.9 L12.35 17.35 Q6.55 12.6 0.3 8.25 L-1.6 2.8 M-0.65 31.95 Q5.65 36.75 12.1 43.3 18.15 35.45 24.8 28.55 L27.15 26.15 29.45 28.55 Q36.05 35.45 42.1 43.3 48.55 36.75 54.85 31.95 L54.2 36.95 Q48.05 42.25 42.25 48.5 35.25 39.2 27.15 30.9 18.95 39.2 11.95 48.5 6.15 42.25 0.0 36.95 L-0.65 31.95" fill="#8e0000" fill-rule="evenodd" stroke="none"/>
      <path d="M41.9 17.35 Q48.5 24.0 54.85 31.95 48.55 36.75 42.1 43.3 36.05 35.45 29.45 28.55 L27.15 26.15 24.8 28.55 Q18.15 35.45 12.1 43.3 5.65 36.75 -0.65 31.95 5.7 24.0 12.35 17.35 L14.9 14.9 Q7.0 8.3 -1.6 2.8 L8.15 -6.65 Q17.95 -2.1 27.15 4.65 36.25 -2.1 46.05 -6.65 L55.85 2.8 Q47.25 8.3 39.35 14.9 L41.9 17.35" fill="url(#gradient23)" fill-rule="evenodd" stroke="none"/>
    </g>
    <radialGradient cx="0" cy="0" gradientTransform="matrix(0.0452, 0.0, 0.0, 0.0436, 32.35, 8.0)" gradientUnits="userSpaceOnUse" id="gradient23" r="819.2" spreadMethod="pad">
      <stop offset="0.4" stop-color="#ee1313"/>
      <stop offset="1.0" stop-color="#e20000"/>
    </radialGradient>
  </defs>
</svg>
