<?xml version="1.0" encoding="UTF-8" standalone="no"?>
<svg xmlns:ffdec="https://www.free-decompiler.com/flash" xmlns:xlink="http://www.w3.org/1999/xlink" ffdec:objectType="frame" height="28.8px" width="28.8px" xmlns="http://www.w3.org/2000/svg">
  <g transform="matrix(1.0, 0.0, 0.0, 1.0, 14.55, 14.45)">
    <use ffdec:characterId="2787" height="28.8" transform="matrix(1.0, 0.0, 0.0, 1.0, -14.55, -14.45)" width="28.8" xlink:href="#shape0"/>
  </g>
  <defs>
    <g id="shape0" transform="matrix(1.0, 0.0, 0.0, 1.0, 14.55, 14.45)">
      <path d="M-13.55 0.15 L-8.8 0.15 -8.8 -0.05 Q-8.8 -3.7 -6.25 -6.3 -3.65 -8.85 0.0 -8.85 L0.05 -8.85 0.05 -13.45 M5.3 0.15 L8.8 0.15 8.8 -0.05 Q8.8 -3.7 6.2 -6.3 3.65 -8.85 0.05 -8.85 L0.05 -5.35 M13.25 0.15 L8.8 0.15 Q8.75 3.65 6.2 6.15 3.65 8.75 0.05 8.75 L0.05 13.35 M-5.25 0.15 L-8.8 0.15 Q-8.7 3.65 -6.25 6.15 -3.65 8.75 0.0 8.75 L0.05 8.75 0.05 5.25" fill="none" stroke="#ffffff" stroke-linecap="round" stroke-linejoin="round" stroke-width="2.0"/>
    </g>
  </defs>
</svg>
