<?xml version="1.0" encoding="UTF-8" standalone="no"?>
<svg xmlns:ffdec="https://www.free-decompiler.com/flash" xmlns:xlink="http://www.w3.org/1999/xlink" ffdec:objectType="frame" height="131.95px" width="229.75px" xmlns="http://www.w3.org/2000/svg">
  <g transform="matrix(1.0, 0.0, 0.0, 1.0, 10.95, 14.3)">
    <clipPath id="clipPath0">
      <path d="M 29.8 0.05 L 29.09 0.06 L 28.39 0.08 L 27.7 0.12 L 27.01 0.17 L 26.33 0.23 L 25.65 0.31 L 24.98 0.4 L 24.31 0.51 L 23.65 0.64 L 23 0.77 L 22.35 0.92 L 21.71 1.09 L 21.07 1.27 L 20.44 1.47 L 19.82 1.68 L 19.2 1.9 L 18.59 2.14 L 17.98 2.39 L 17.38 2.66 L 16.78 2.94 L 16.2 3.24 L 15.61 3.55 L 15.03 3.87 L 14.46 4.21 L 13.9 4.57 L 13.34 4.94 L 12.78 5.32 L 12.23 5.72 L 11.69 6.13 L 11.16 6.55 L 10.62 6.99 L 10.1 7.45 L 8.6 8.85 L 7.3 10.25 L 5.9 11.9 L 5.32 12.68 L 4.76 13.48 L 4.24 14.28 L 3.75 15.1 L 3.29 15.88 L 2.86 16.69 L 2.47 17.51 L 2.1 18.35 L 1.82 19.03 L 1.56 19.71 L 1.32 20.41 L 1.09 21.11 L 0.89 21.81 L 0.7 22.53 L 0.53 23.25 L 0.38 23.98 L 0.24 24.71 L 0.12 25.45 L 0.02 26.2 L -0.06 26.96 L -0.12 27.72 L -0.16 28.49 L -0.19 29.27 L -0.2 30.05 L -0.2 72.05 L -0.19 72.85 L -0.16 73.65 L -0.12 74.44 L -0.05 75.22 L 0.03 75.99 L 0.14 76.75 L 0.26 77.51 L 0.4 78.26 L 0.56 79.01 L 0.74 79.74 L 0.93 80.47 L 1.15 81.19 L 1.38 81.9 L 1.64 82.61 L 1.91 83.31 L 2.2 84 L 2.48 84.63 L 2.78 85.25 L 3.1 85.86 L 3.42 86.47 L 3.77 87.07 L 4.13 87.67 L 4.51 88.26 L 4.9 88.84 L 5.31 89.41 L 5.73 89.98 L 6.17 90.54 L 6.62 91.1 L 7.1 91.65 L 7.58 92.19 L 8.08 92.72 L 8.6 93.25 L 9.15 93.79 L 9.71 94.32 L 10.28 94.82 L 10.86 95.31 L 11.44 95.79 L 12.03 96.24 L 12.62 96.68 L 13.23 97.1 L 13.83 97.5 L 14.45 97.89 L 15.08 98.26 L 15.71 98.61 L 16.34 98.95 L 16.99 99.27 L 17.64 99.57 L 18.3 99.85 L 18.97 100.12 L 19.64 100.37 L 20.32 100.6 L 21.01 100.81 L 21.7 101.01 L 22.4 101.19 L 23.11 101.35 L 23.83 101.5 L 24.55 101.63 L 25.28 101.74 L 26.01 101.84 L 26.76 101.91 L 27.51 101.97 L 28.26 102.02 L 29.03 102.04 L 29.8 102.05 L 163.85 102.05 L 164.91 102.03 L 165.95 101.99 L 166.97 101.91 L 167.99 101.8 L 168.99 101.66 L 169.97 101.49 L 170.94 101.28 L 171.9 101.05 L 172.51 100.87 L 173.11 100.69 L 173.71 100.49 L 174.31 100.27 L 174.9 100.05 L 175.48 99.81 L 176.06 99.55 L 176.64 99.29 L 177.21 99.01 L 177.77 98.72 L 178.33 98.41 L 178.88 98.1 L 179.43 97.77 L 179.98 97.42 L 180.52 97.07 L 181.05 96.7 L 185.05 93.25 L 186.15 92.15 L 187.45 90.65 L 190.1 86.7 L 191.5 83.95 L 191.78 83.26 L 192.05 82.57 L 192.3 81.87 L 192.53 81.16 L 192.74 80.45 L 192.93 79.72 L 193.11 78.99 L 193.26 78.25 L 193.4 77.5 L 193.52 76.75 L 193.62 75.98 L 193.7 75.21 L 193.77 74.43 L 193.81 73.65 L 193.84 72.85 L 193.85 72.05 L 193.85 30.05 L 193.84 29.28 L 193.82 28.51 L 193.77 27.76 L 193.71 27.01 L 193.64 26.26 L 193.54 25.53 L 193.43 24.8 L 193.3 24.08 L 193.15 23.36 L 192.99 22.65 L 192.81 21.95 L 192.61 21.26 L 192.4 20.57 L 192.17 19.89 L 191.92 19.22 L 191.65 18.55 L 191.37 17.89 L 191.07 17.24 L 190.75 16.59 L 190.41 15.96 L 190.06 15.33 L 189.69 14.7 L 189.3 14.08 L 188.9 13.48 L 188.48 12.87 L 188.04 12.28 L 187.59 11.69 L 187.11 11.11 L 186.62 10.53 L 186.12 9.96 L 185.59 9.4 L 185.05 8.85 L 184.5 8.31 L 183.94 7.78 L 183.37 7.28 L 182.79 6.79 L 182.21 6.31 L 181.62 5.86 L 181.03 5.42 L 180.43 5 L 179.82 4.6 L 179.2 4.21 L 178.57 3.84 L 177.94 3.49 L 177.31 3.15 L 176.66 2.83 L 176.01 2.53 L 175.35 2.25 L 174.68 1.98 L 174.01 1.73 L 173.33 1.5 L 172.64 1.29 L 171.95 1.09 L 171.25 0.91 L 170.54 0.75 L 169.82 0.6 L 169.1 0.47 L 168.37 0.36 L 167.64 0.26 L 166.89 0.19 L 166.14 0.13 L 165.39 0.08 L 164.62 0.06 L 163.85 0.05 Z"/>
    </clipPath>
    <g clip-path="url(#clipPath0)">
      <filter id="filter0">
        <feConvolveMatrix divisor="16.0" in="SourceGraphic" kernelMatrix="1 1 1 1 1 1 1 1 1 1 1 1 1 1 1 1" order="4 4" result="filterResult0"/>
        <feConvolveMatrix divisor="16.0" in="filterResult0" kernelMatrix="1 1 1 1 1 1 1 1 1 1 1 1 1 1 1 1" order="4 4" result="filterResult1"/>
      </filter>
      <use ffdec:characterId="211" filter="url(#filter0)" height="131.95" transform="matrix(1.0, 0.0, 0.0, 1.0, -10.95, -14.3)" width="229.75" xlink:href="#sprite0"/>
    </g>
    <filter id="filter4">
      <feOffset dx="-1.8054294798588804" dy="2.3959182776665178" in="SourceGraphic" result="filterResult2"/>
      <feColorMatrix in="filterResult2" result="filterResult3" type="matrix" values="0 0 0 0 0.69411767,0 0 0 0 0.85882354,0 0 0 0 0.6901961,0 0 0 1 0"/>
      <feColorMatrix in="filterResult3" result="filterResult4" type="matrix" values="1 0 0 0 0,0 1 0 0 0,0 0 1 0 0,0 0 0 0.5 0"/>
      <feComposite in="filterResult4" in2="SourceGraphic" operator="out" result="filterResult5"/>
      <feOffset dx="1.8054294798588804" dy="-2.3959182776665173" in="SourceGraphic" result="filterResult6"/>
      <feColorMatrix in="filterResult6" result="filterResult7" type="matrix" values="0 0 0 0 0.050980393,0 0 0 0 0.32156864,0 0 0 0 0.043137256,0 0 0 1 0"/>
      <feColorMatrix in="filterResult7" result="filterResult8" type="matrix" values="1 0 0 0 0,0 1 0 0 0,0 0 1 0 0,0 0 0 0.5 0"/>
      <feComposite in="filterResult8" in2="SourceGraphic" operator="out" result="filterResult9"/>
      <feComposite in="filterResult5" in2="filterResult9" operator="out" result="filterResult10"/>
      <feComposite in="filterResult9" in2="filterResult5" operator="out" result="filterResult11"/>
      <feComposite in="filterResult10" in2="filterResult11" operator="over" result="filterResult12"/>
      <feConvolveMatrix divisor="16.0" in="filterResult12" kernelMatrix="1 1 1 1 1 1 1 1 1 1 1 1 1 1 1 1" order="4 4" result="filterResult13"/>
      <feConvolveMatrix divisor="16.0" in="filterResult13" kernelMatrix="1 1 1 1 1 1 1 1 1 1 1 1 1 1 1 1" order="4 4" result="filterResult14"/>
      <feComposite in="filterResult14" in2="SourceGraphic" operator="out" result="filterResult15"/>
      <feComposite in="filterResult15" in2="SourceGraphic" operator="over" result="filterResult16"/>
    </filter>
    <use ffdec:characterId="212" filter="url(#filter4)" height="42.4" transform="matrix(1.0, 0.0, 0.0, 1.0, 36.1, 28.95)" width="118.05" xlink:href="#text0"/>
  </g>
  <defs>
    <g id="sprite0" transform="matrix(1.0, 0.0, 0.0, 1.0, 10.95, 14.3)">
      <use ffdec:characterId="210" height="131.95" transform="matrix(1.0, 0.0, 0.0, 1.0, -10.95, -14.3)" width="229.75" xlink:href="#shape0"/>
    </g>
    <g id="shape0" transform="matrix(1.0, 0.0, 0.0, 1.0, 10.95, 14.3)">
      <path d="M-10.95 -14.3 L218.8 -14.3 218.8 117.65 -10.95 117.65 -10.95 -14.3" fill="#3e863c" fill-rule="evenodd" stroke="none"/>
      <path d="M7.45 15.15 L8.3 14.0 9.65 12.4 10.9 11.05 14.8 7.75 Q22.05 2.5 31.5 2.5 L161.55 2.5 Q173.6 2.5 182.15 11.05 190.7 19.55 190.7 31.6 L190.7 72.35 Q190.7 78.6 188.4 83.9 L187.05 86.6 186.5 87.5 185.8 88.65 185.15 89.55 184.5 90.35 184.45 90.4 183.2 91.85 182.15 92.95 180.7 94.35 178.75 95.95 Q173.1 98.5 166.4 98.5 L32.35 98.5 Q19.95 98.5 11.15 89.7 2.7 81.25 2.35 69.5 L2.35 31.0 Q2.45 25.2 4.6 20.25 L5.35 18.7 5.15 22.05 5.15 64.05 Q5.15 76.45 13.95 85.25 22.75 94.05 35.15 94.05 L169.2 94.05 Q177.95 94.05 184.9 89.7 L185.0 89.5 185.55 88.6 186.9 85.9 Q189.2 80.6 189.2 74.35 L189.2 33.6 Q189.2 21.55 180.65 13.05 172.1 4.5 160.05 4.5 L30.0 4.5 Q20.55 4.5 13.3 9.75 L9.4 13.05 8.15 14.4 7.45 15.15" fill="#246922" fill-rule="evenodd" stroke="none"/>
      <path d="M30.0 0.0 L164.05 0.0 Q176.45 0.0 185.25 8.8 194.05 17.6 194.05 30.0 L194.05 72.0 Q194.05 78.45 191.7 83.9 L190.3 86.65 187.65 90.6 186.35 92.1 185.25 93.2 181.25 96.65 Q177.0 99.65 172.1 101.0 168.3 102.0 164.05 102.0 L30.0 102.0 Q17.6 102.0 8.8 93.2 4.6 89.0 2.4 83.95 0.0 78.45 0.0 72.0 L0.0 30.0 Q0.0 23.7 2.3 18.3 3.0 16.6 3.95 15.05 4.9 13.4 6.1 11.85 L7.5 10.2 8.8 8.8 10.3 7.4 Q18.65 0.0 30.0 0.0 M5.35 18.7 L4.6 20.25 Q2.45 25.2 2.35 31.0 L2.35 69.5 Q2.7 81.25 11.15 89.7 19.95 98.5 32.35 98.5 L166.4 98.5 Q173.1 98.5 178.75 95.95 L180.7 94.35 182.15 92.95 183.2 91.85 184.45 90.4 184.5 90.35 185.15 89.55 185.8 88.65 186.5 87.5 187.05 86.6 188.4 83.9 Q190.7 78.6 190.7 72.35 L190.7 31.6 Q190.7 19.55 182.15 11.05 173.6 2.5 161.55 2.5 L31.5 2.5 Q22.05 2.5 14.8 7.75 L10.9 11.05 9.65 12.4 8.3 14.0 7.45 15.15 6.2 17.1 5.35 18.7" fill="#145412" fill-rule="evenodd" stroke="none"/>
      <path d="M5.35 18.7 L6.2 17.1 7.45 15.15 8.15 14.4 9.4 13.05 13.3 9.75 Q20.55 4.5 30.0 4.5 L160.05 4.5 Q172.1 4.5 180.65 13.05 189.2 21.55 189.2 33.6 L189.2 74.35 Q189.2 80.6 186.9 85.9 L185.55 88.6 185.0 89.5 184.9 89.7 Q177.95 94.05 169.2 94.05 L35.15 94.05 Q22.75 94.05 13.95 85.25 5.15 76.45 5.15 64.05 L5.15 22.05 5.35 18.7" fill="url(#gradient0)" fill-rule="evenodd" stroke="none"/>
      <path d="M186.9 61.25 L185.65 48.0 185.65 38.55 Q185.65 26.8 178.6 18.75 L174.55 15.0 Q170.65 11.4 154.8 9.9 L108.95 9.7 43.2 7.95 157.75 7.95 Q172.25 8.8 179.6 16.95 L179.85 17.25 Q186.9 25.3 186.9 37.05 L186.9 61.25" fill="#89d087" fill-rule="evenodd" stroke="none"/>
      <path d="M43.2 7.95 L108.95 9.7 154.8 9.9 Q170.65 11.4 174.55 15.0 L178.6 18.75 Q185.65 26.8 185.65 38.55 L185.65 48.0 186.9 61.25 186.9 76.2 184.5 44.65 Q184.5 29.5 177.2 20.4 L176.55 19.7 Q167.0 10.1 146.05 11.2 138.95 10.85 130.15 10.95 98.7 11.2 58.0 9.45 L27.65 7.95 43.2 7.95" fill="#67af65" fill-rule="evenodd" stroke="none"/>
    </g>
    <radialGradient cx="0" cy="0" gradientTransform="matrix(0.1152, 0.0, 0.0, 0.0763, 123.25, 27.95)" gradientUnits="userSpaceOnUse" id="gradient0" r="819.2" spreadMethod="pad">
      <stop offset="0.3254901960784314" stop-color="#418a3f"/>
      <stop offset="1.0" stop-color="#367b34"/>
    </radialGradient>
    <g id="text0" transform="matrix(1.0, 0.0, 0.0, 1.0, -0.8, -10.7)">
      <g transform="matrix(1.0, 0.0, 0.0, 1.0, 0.0, 0.0)">
        <use fill="#b2dbb1" height="42.4" transform="matrix(0.0518, 0.0, 0.0, 0.0518, 0.0, 52.0)" width="118.05" xlink:href="#font_Fredoka_One_A0"/>
        <use fill="#b2dbb1" height="42.4" transform="matrix(0.0518, 0.0, 0.0, 0.0518, 42.55, 52.0)" width="118.05" xlink:href="#font_Fredoka_One_D0"/>
        <use fill="#b2dbb1" height="42.4" transform="matrix(0.0518, 0.0, 0.0, 0.0518, 81.85, 52.0)" width="118.05" xlink:href="#font_Fredoka_One_D0"/>
      </g>
    </g>
    <g id="font_Fredoka_One_A0">
      <path d="M391.0 -451.5 L460.0 -311.5 323.5 -311.5 Q357.5 -381.5 391.0 -451.5 M474.0 -697.5 Q447.5 -750.5 392.0 -750.5 366.5 -750.5 343.5 -736.5 320.5 -722.0 309.5 -698.5 171.0 -412.0 33.0 -126.0 15.5 -91.0 15.5 -73.5 15.5 -37.0 75.0 -8.0 109.5 9.0 129.5 9.0 149.5 9.0 162.5 -0.5 175.0 -10.0 180.5 -19.5 186.5 -28.5 196.5 -49.0 223.0 -104.5 250.0 -159.5 L533.5 -159.5 Q560.0 -104.5 587.0 -49.0 597.0 -28.5 602.5 -18.5 608.5 -8.0 621.0 1.0 634.0 10.0 654.0 10.0 674.0 10.0 708.5 -7.0 768.0 -37.0 768.0 -73.5 768.0 -91.0 750.5 -126.0 L474.0 -697.5" fill-rule="evenodd" stroke="none"/>
    </g>
    <g id="font_Fredoka_One_D0">
      <path d="M321.5 -182.5 L222.0 -182.5 222.0 -569.5 320.5 -569.5 Q398.5 -569.5 456.0 -513.5 514.0 -457.5 514.0 -375.0 514.0 -292.0 454.5 -237.0 395.5 -182.5 321.5 -182.5 M132.0 -751.5 Q66.5 -751.5 52.0 -724.0 44.0 -708.5 42.5 -697.5 41.0 -686.0 41.0 -661.5 L41.0 -92.0 Q41.0 -48.0 53.5 -26.5 68.5 -1.0 131.0 -1.0 L318.5 -1.0 Q475.0 -1.0 585.0 -112.5 695.5 -224.5 695.5 -380.5 695.5 -536.5 582.5 -643.5 470.0 -750.5 321.5 -750.5 L132.0 -751.5" fill-rule="evenodd" stroke="none"/>
    </g>
  </defs>
</svg>
