<?xml version="1.0" encoding="UTF-8" standalone="no"?>
<svg xmlns:ffdec="https://www.free-decompiler.com/flash" xmlns:xlink="http://www.w3.org/1999/xlink" ffdec:objectType="frame" height="6.0px" width="18.45px" xmlns="http://www.w3.org/2000/svg">
  <g transform="matrix(1.0, 0.0, 0.0, 1.0, 0.0, 0.0)">
    <use ffdec:characterId="198" height="6.0" transform="matrix(1.0, 0.0, 0.0, 1.0, 0.0, 0.0)" width="18.45" xlink:href="#shape0"/>
  </g>
  <defs>
    <g id="shape0" transform="matrix(1.0, 0.0, 0.0, 1.0, 0.0, 0.0)">
      <path d="M18.45 1.75 L14.1 2.35 Q9.8 3.25 9.8 4.5 9.8 5.3 11.5 5.95 L9.05 6.0 3.35 5.5 1.8 5.1 Q0.65 4.8 0.0 4.4 0.8 3.55 0.8 2.5 L0.5 1.35 1.8 0.85 Q4.8 0.0 9.05 0.0 13.3 0.0 16.3 0.85 17.7 1.25 18.45 1.75" fill="#278200" fill-rule="evenodd" stroke="none"/>
    </g>
  </defs>
</svg>
