<?xml version="1.0" encoding="UTF-8" standalone="no"?>
<svg xmlns:ffdec="https://www.free-decompiler.com/flash" xmlns:xlink="http://www.w3.org/1999/xlink" ffdec:objectType="shape" height="119.1px" width="154.45px" xmlns="http://www.w3.org/2000/svg">
  <g transform="matrix(1.0, 0.0, 0.0, 1.0, 77.7, 119.4)">
    <path d="M51.55 -18.3 Q0.6 -7.5 -52.6 -18.3 L-59.2 -111.85 Q-54.3 -118.9 -1.5 -119.4 46.95 -119.8 58.3 -112.05 L51.55 -18.3" fill="url(#gradient0)" fill-rule="evenodd" stroke="none"/>
    <path d="M51.55 -18.3 L64.5 -20.25 76.75 -21.6 75.85 -14.9 72.95 -8.9 Q63.8 -0.9 53.55 -1.8 1.65 1.0 -51.4 -1.4 -74.0 0.85 -77.7 -20.8 L-77.7 -21.6 -76.9 -21.6 -52.6 -18.3 Q0.6 -7.5 51.55 -18.3" fill="url(#gradient1)" fill-rule="evenodd" stroke="none"/>
  </g>
  <defs>
    <radialGradient cx="0" cy="0" gradientTransform="matrix(0.157, 0.0, 0.0, 0.157, -0.45, -119.4)" gradientUnits="userSpaceOnUse" id="gradient0" r="819.2" spreadMethod="pad">
      <stop offset="0.0" stop-color="#d3d3d3"/>
      <stop offset="1.0" stop-color="#707070"/>
    </radialGradient>
    <radialGradient cx="0" cy="0" gradientTransform="matrix(0.1725, 0.0, 0.0, 0.1725, -63.3, -2.85)" gradientUnits="userSpaceOnUse" id="gradient1" r="819.2" spreadMethod="pad">
      <stop offset="0.0" stop-color="#ffffff"/>
      <stop offset="1.0" stop-color="#000000"/>
    </radialGradient>
  </defs>
</svg>
