<?xml version="1.0" encoding="UTF-8" standalone="no"?>
<svg xmlns:ffdec="https://www.free-decompiler.com/flash" xmlns:xlink="http://www.w3.org/1999/xlink" ffdec:objectType="shape" height="118.8px" width="169.9px" xmlns="http://www.w3.org/2000/svg">
  <g transform="matrix(1.0, 0.0, 0.0, 1.0, 83.85, 118.65)">
    <path d="M-55.75 -22.8 L-61.3 -95.15 -61.15 -97.0 -61.55 -98.65 -62.35 -109.25 -62.2 -112.55 Q-52.55 -116.2 -27.9 -117.85 18.75 -120.25 59.05 -115.45 L63.05 -113.45 55.9 -20.45 55.4 -13.65 48.4 -14.2 Q-5.6 -22.25 -55.75 -22.8" fill="url(#gradient0)" fill-rule="evenodd" stroke="none"/>
    <path d="M-55.75 -22.8 Q-5.6 -22.25 48.4 -14.2 L55.4 -13.65 68.75 -12.5 81.65 -13.65 86.0 -16.85 Q86.95 -6.15 66.75 -0.9 L59.35 0.05 Q39.9 -0.55 -54.55 0.15 -80.85 -0.45 -83.85 -16.05 L-83.5 -19.35 Q-79.85 -21.3 -55.75 -22.8 M-23.35 -1.25 L-8.1 -1.15 -13.35 -1.4 Q-45.35 -2.55 -54.0 -1.8 -53.65 -0.75 -48.9 -1.25 L-23.35 -1.25" fill="url(#gradient1)" fill-rule="evenodd" stroke="none"/>
    <path d="M55.4 -13.65 L55.9 -20.45 67.4 -20.25 81.25 -19.2 86.0 -16.85 81.65 -13.65 68.75 -12.5 55.4 -13.65" fill="url(#gradient2)" fill-rule="evenodd" stroke="none"/>
    <path d="M-13.35 -1.4 L-8.1 -1.15 -23.35 -1.25 -13.35 -1.4" fill="url(#gradient3)" fill-rule="evenodd" stroke="none"/>
  </g>
  <defs>
    <radialGradient cx="0" cy="0" gradientTransform="matrix(0.1661, 0.0, 0.0, 0.1661, 14.25, -118.95)" gradientUnits="userSpaceOnUse" id="gradient0" r="819.2" spreadMethod="pad">
      <stop offset="0.0" stop-color="#d2d2d2"/>
      <stop offset="1.0" stop-color="#737373"/>
    </radialGradient>
    <radialGradient cx="0" cy="0" gradientTransform="matrix(0.196, 0.0, 0.0, 0.196, 76.35, -4.35)" gradientUnits="userSpaceOnUse" id="gradient1" r="819.2" spreadMethod="pad">
      <stop offset="0.0" stop-color="#ffffff"/>
      <stop offset="1.0" stop-color="#262626"/>
    </radialGradient>
    <radialGradient cx="0" cy="0" gradientTransform="matrix(0.1623, 0.0, 0.0, 0.1623, 48.95, -8.55)" gradientUnits="userSpaceOnUse" id="gradient2" r="819.2" spreadMethod="pad">
      <stop offset="0.0" stop-color="#ffffff"/>
      <stop offset="1.0" stop-color="#a4a4a4"/>
    </radialGradient>
    <radialGradient cx="0" cy="0" gradientTransform="matrix(0.0456, 0.0, 0.0, 0.0456, -11.9, -1.2)" gradientUnits="userSpaceOnUse" id="gradient3" r="819.2" spreadMethod="pad">
      <stop offset="0.0" stop-color="#ffffff"/>
      <stop offset="1.0" stop-color="#000000"/>
    </radialGradient>
  </defs>
</svg>
