<?xml version="1.0" encoding="UTF-8" standalone="no"?>
<svg xmlns:ffdec="https://www.free-decompiler.com/flash" xmlns:xlink="http://www.w3.org/1999/xlink" ffdec:objectType="shape" height="161.85px" width="159.45px" xmlns="http://www.w3.org/2000/svg">
  <g transform="matrix(1.0, 0.0, 0.0, 1.0, 79.9, 127.85)">
    <path d="M-62.65 -105.45 L-62.9 -105.8 Q-63.25 -124.7 -4.0 -127.85 22.9 -127.3 45.35 -119.25 65.45 -109.55 61.6 -98.65 50.6 -82.75 4.85 -81.65 -28.3 -82.85 -49.7 -92.05 L-59.3 -98.85 -62.65 -105.45" fill="url(#gradient0)" fill-rule="evenodd" stroke="none"/>
    <path d="M-62.65 -105.45 L-59.3 -98.85 -49.7 -92.05 Q-28.3 -82.85 4.85 -81.65 50.6 -82.75 61.6 -98.65 L55.55 -39.8 50.8 6.4 Q47.2 14.7 34.7 19.35 7.85 26.85 -13.8 22.75 -49.15 14.7 -52.35 -2.45 L-54.0 -18.85 -54.0 -18.95 -56.05 -39.25 -62.65 -105.45" fill="url(#gradient1)" fill-rule="evenodd" stroke="none"/>
    <path d="M55.55 -39.8 L56.85 -39.45 71.2 -30.45 79.15 -18.6 79.55 -4.95 78.1 -3.0 71.75 8.6 56.05 21.0 33.9 28.4 7.5 28.85 -19.2 23.3 -43.9 14.15 -50.6 10.1 -63.0 3.5 -66.95 -0.75 -75.4 -8.55 -79.65 -18.95 -79.9 -19.35 -76.6 -29.4 Q-66.05 -38.75 -56.05 -39.25 L-54.0 -18.95 -54.0 -18.85 -52.35 -2.45 Q-49.15 14.7 -13.8 22.75 7.85 26.85 34.7 19.35 47.2 14.7 50.8 6.4 L55.55 -39.8" fill="url(#gradient2)" fill-rule="evenodd" stroke="none"/>
    <path d="M79.55 -4.95 Q65.95 36.6 6.45 33.85 -26.75 31.5 -59.45 13.5 L-71.35 2.55 Q-76.5 -5.95 -79.65 -18.95 L-75.4 -8.55 -66.95 -0.75 -63.0 3.5 -50.6 10.1 -43.9 14.15 -19.2 23.3 7.5 28.85 33.9 28.4 56.05 21.0 71.75 8.6 78.1 -3.0 79.55 -4.95" fill="url(#gradient3)" fill-rule="evenodd" stroke="none"/>
  </g>
  <defs>
    <radialGradient cx="0" cy="0" gradientTransform="matrix(0.0762, 0.0, 0.0, 0.0762, -0.45, -106.2)" gradientUnits="userSpaceOnUse" id="gradient0" r="819.2" spreadMethod="pad">
      <stop offset="0.0" stop-color="#ffffff"/>
      <stop offset="1.0" stop-color="#ffffff"/>
    </radialGradient>
    <radialGradient cx="0" cy="0" gradientTransform="matrix(0.1297, 0.0, 0.0, 0.1297, 4.75, -81.8)" gradientUnits="userSpaceOnUse" id="gradient1" r="819.2" spreadMethod="pad">
      <stop offset="0.0" stop-color="#d3d3d3"/>
      <stop offset="1.0" stop-color="#969696"/>
    </radialGradient>
    <radialGradient cx="0" cy="0" gradientTransform="matrix(0.1621, 0.0, 0.0, 0.1621, -49.45, -36.55)" gradientUnits="userSpaceOnUse" id="gradient2" r="819.2" spreadMethod="pad">
      <stop offset="0.0" stop-color="#ffffff"/>
      <stop offset="1.0" stop-color="#cdcdcd"/>
    </radialGradient>
    <radialGradient cx="0" cy="0" gradientTransform="matrix(0.148, 0.0, 0.0, 0.148, 29.6, 32.35)" gradientUnits="userSpaceOnUse" id="gradient3" r="819.2" spreadMethod="pad">
      <stop offset="0.0" stop-color="#d0d0d0"/>
      <stop offset="1.0" stop-color="#404040"/>
    </radialGradient>
  </defs>
</svg>
