<?xml version="1.0" encoding="UTF-8" standalone="no"?>
<svg xmlns:ffdec="https://www.free-decompiler.com/flash" xmlns:xlink="http://www.w3.org/1999/xlink" ffdec:objectType="shape" height="161.05px" width="161.55px" xmlns="http://www.w3.org/2000/svg">
  <g transform="matrix(1.0, 0.0, 0.0, 1.0, 80.15, 127.6)">
    <path d="M-62.9 -104.1 Q-64.05 -125.05 -7.3 -127.6 L7.5 -127.2 25.8 -124.7 41.3 -120.6 54.2 -114.65 61.6 -107.8 62.95 -100.5 62.95 -100.4 Q56.6 -84.6 11.2 -81.95 -21.65 -81.85 -46.65 -91.0 -60.25 -96.7 -62.9 -104.1" fill="url(#gradient0)" fill-rule="evenodd" stroke="none"/>
    <path d="M-62.9 -104.1 Q-60.25 -96.7 -46.65 -91.0 -21.65 -81.85 11.2 -81.95 56.6 -84.6 62.95 -100.4 L56.6 -38.9 52.1 4.4 Q46.75 17.35 25.0 22.25 L8.9 24.1 -8.5 23.3 -22.35 20.1 -26.55 18.8 Q-55.5 7.55 -52.85 -5.9 L-56.3 -38.9 -56.4 -39.0 -62.9 -104.1" fill="url(#gradient1)" fill-rule="evenodd" stroke="none"/>
    <path d="M56.6 -38.9 L68.3 -32.85 78.6 -21.2 81.4 -8.0 78.25 -0.45 76.5 4.9 75.45 6.5 Q62.0 21.55 42.2 26.85 6.75 30.6 -22.35 20.1 L-8.5 23.3 8.9 24.1 25.0 22.25 Q46.75 17.35 52.1 4.4 L56.6 -38.9 M-80.15 -16.55 L-79.25 -26.75 Q-74.1 -35.45 -56.4 -39.0 L-56.3 -38.9 -52.85 -5.9 Q-55.5 7.55 -26.55 18.8 -63.4 9.95 -80.15 -16.55" fill="url(#gradient2)" fill-rule="evenodd" stroke="none"/>
    <path d="M81.4 -8.0 Q75.35 32.8 14.2 33.45 -69.35 27.0 -80.15 -16.55 -63.4 9.95 -26.55 18.8 L-22.35 20.1 Q6.75 30.6 42.2 26.85 62.0 21.55 75.45 6.5 L76.5 4.9 78.25 -0.45 81.4 -8.0" fill="url(#gradient3)" fill-rule="evenodd" stroke="none"/>
  </g>
  <defs>
    <radialGradient cx="0" cy="0" gradientTransform="matrix(0.0776, 0.0, 0.0, 0.0776, -0.45, -106.2)" gradientUnits="userSpaceOnUse" id="gradient0" r="819.2" spreadMethod="pad">
      <stop offset="0.0" stop-color="#ffffff"/>
      <stop offset="1.0" stop-color="#ffffff"/>
    </radialGradient>
    <radialGradient cx="0" cy="0" gradientTransform="matrix(0.1326, 0.0, 0.0, 0.1326, 11.15, -82.05)" gradientUnits="userSpaceOnUse" id="gradient1" r="819.2" spreadMethod="pad">
      <stop offset="0.0" stop-color="#d2d2d2"/>
      <stop offset="1.0" stop-color="#848484"/>
    </radialGradient>
    <radialGradient cx="0" cy="0" gradientTransform="matrix(0.1703, 0.0, 0.0, 0.1703, -55.5, -34.75)" gradientUnits="userSpaceOnUse" id="gradient2" r="819.2" spreadMethod="pad">
      <stop offset="0.0" stop-color="#ffffff"/>
      <stop offset="1.0" stop-color="#aaaaaa"/>
    </radialGradient>
    <radialGradient cx="0" cy="0" gradientTransform="matrix(0.1649, 0.0, 0.0, 0.1649, -51.25, 17.5)" gradientUnits="userSpaceOnUse" id="gradient3" r="819.2" spreadMethod="pad">
      <stop offset="0.0" stop-color="#c7c7c7"/>
      <stop offset="1.0" stop-color="#383838"/>
    </radialGradient>
  </defs>
</svg>
