<?xml version="1.0" encoding="UTF-8" standalone="no"?>
<svg xmlns:ffdec="https://www.free-decompiler.com/flash" xmlns:xlink="http://www.w3.org/1999/xlink" ffdec:objectType="shape" height="160.0px" width="164.1px" xmlns="http://www.w3.org/2000/svg">
  <g transform="matrix(1.0, 0.0, 0.0, 1.0, 81.35, 127.35)">
    <path d="M63.8 -102.25 L60.65 -95.4 Q49.3 -85.6 17.9 -82.45 L-4.3 -82.45 Q-51.4 -86.55 -62.75 -102.9 L-62.75 -103.05 -63.0 -104.5 Q-64.2 -127.6 0.2 -127.2 4.95 -128.25 38.2 -121.4 61.65 -113.55 63.8 -102.25" fill="url(#gradient0)" fill-rule="evenodd" stroke="none"/>
    <path d="M-62.75 -102.9 Q-51.4 -86.55 -4.3 -82.45 L17.9 -82.45 Q49.3 -85.6 60.65 -95.4 L63.8 -102.25 57.1 -38.4 Q53.25 5.6 50.1 10.1 38.1 25.5 -6.65 22.85 L-6.75 22.85 -28.3 17.35 -37.15 13.8 Q-46.9 9.65 -51.9 1.65 L-53.9 -14.7 -53.9 -15.15 -55.0 -25.2 -55.0 -25.55 -56.3 -38.5 -62.75 -102.9" fill="url(#gradient1)" fill-rule="evenodd" stroke="none"/>
    <path d="M-56.3 -38.5 L-55.0 -25.55 -55.0 -25.2 -53.9 -15.15 -53.9 -14.7 -51.9 1.65 Q-46.9 9.65 -37.15 13.8 L-53.4 7.45 -70.3 -3.25 -74.25 -8.0 -79.9 -13.85 -81.35 -23.7 Q-77.75 -33.3 -63.4 -36.65 L-56.3 -38.5 M-6.65 22.85 Q38.1 25.5 50.1 10.1 53.25 5.6 57.1 -38.4 L65.05 -35.05 77.55 -23.7 82.75 -11.05 79.65 3.05 68.85 15.75 67.8 16.45 49.3 25.15 Q19.3 30.05 -6.65 22.85" fill="url(#gradient2)" fill-rule="evenodd" stroke="none"/>
    <path d="M-37.15 13.8 L-28.3 17.35 -6.75 22.85 -6.65 22.85 Q19.3 30.05 49.3 25.15 L67.8 16.45 68.85 15.75 79.65 3.05 Q81.25 6.9 67.25 20.4 L49.45 28.3 47.2 29.1 23.45 32.65 -1.65 31.3 Q-38.4 26.25 -66.05 8.0 -82.0 -9.45 -79.9 -13.85 L-74.25 -8.0 -70.3 -3.25 -53.4 7.45 -37.15 13.8" fill="url(#gradient3)" fill-rule="evenodd" stroke="none"/>
  </g>
  <defs>
    <radialGradient cx="0" cy="0" gradientTransform="matrix(0.0786, 0.0, 0.0, 0.0786, -0.45, -106.15)" gradientUnits="userSpaceOnUse" id="gradient0" r="819.2" spreadMethod="pad">
      <stop offset="0.0" stop-color="#ffffff"/>
      <stop offset="1.0" stop-color="#ffffff"/>
    </radialGradient>
    <radialGradient cx="0" cy="0" gradientTransform="matrix(0.1329, 0.0, 0.0, 0.1329, -3.6, -82.5)" gradientUnits="userSpaceOnUse" id="gradient1" r="819.2" spreadMethod="pad">
      <stop offset="0.0" stop-color="#d0d0d0"/>
      <stop offset="1.0" stop-color="#7f7f7f"/>
    </radialGradient>
    <radialGradient cx="0" cy="0" gradientTransform="matrix(0.1776, 0.0, 0.0, 0.1776, -61.2, -32.75)" gradientUnits="userSpaceOnUse" id="gradient2" r="819.2" spreadMethod="pad">
      <stop offset="0.0" stop-color="#ffffff"/>
      <stop offset="1.0" stop-color="#c7c7c7"/>
    </radialGradient>
    <radialGradient cx="0" cy="0" gradientTransform="matrix(0.1365, 0.0, 0.0, 0.1365, 21.75, 32.65)" gradientUnits="userSpaceOnUse" id="gradient3" r="819.2" spreadMethod="pad">
      <stop offset="0.0" stop-color="#c2c2c2"/>
      <stop offset="1.0" stop-color="#3d3d3d"/>
    </radialGradient>
  </defs>
</svg>
