<?xml version="1.0" encoding="UTF-8" standalone="no"?>
<svg xmlns:ffdec="https://www.free-decompiler.com/flash" xmlns:xlink="http://www.w3.org/1999/xlink" ffdec:objectType="shape" height="159.2px" width="165.75px" xmlns="http://www.w3.org/2000/svg">
  <g transform="matrix(1.0, 0.0, 0.0, 1.0, 82.5, 127.2)">
    <path d="M-64.3 -106.85 Q-63.8 -125.75 -3.25 -127.2 62.25 -121.0 64.25 -103.85 L64.1 -103.6 64.1 -103.05 64.0 -102.35 64.0 -102.25 62.95 -97.1 61.85 -96.55 Q58.4 -90.8 42.35 -86.15 11.6 -80.25 -18.55 -84.15 -48.75 -89.4 -61.55 -100.5 L-64.3 -106.85" fill="url(#gradient0)" fill-rule="evenodd" stroke="none"/>
    <path d="M-64.3 -106.85 L-61.55 -100.5 Q-48.75 -89.4 -18.55 -84.15 11.6 -80.25 42.35 -86.15 58.4 -90.8 61.85 -96.55 L62.95 -97.1 64.0 -102.25 57.2 -38.65 Q52.85 3.6 51.85 8.25 40.75 23.8 3.65 23.4 L-22.35 17.85 -41.25 11.4 Q-42.15 10.95 -43.1 10.45 L-50.85 3.75 Q-55.5 -10.8 -55.5 -20.15 L-57.35 -37.95 -64.3 -106.85" fill="url(#gradient1)" fill-rule="evenodd" stroke="none"/>
    <path d="M57.2 -38.65 Q75.65 -30.65 83.25 -14.1 L82.75 0.05 Q74.2 13.1 72.55 14.05 L56.6 23.05 33.75 26.3 8.1 24.2 3.65 23.4 Q40.75 23.8 51.85 8.25 52.85 3.6 57.2 -38.65 M-82.45 -19.65 Q-83.55 -28.5 -68.0 -34.7 L-57.35 -37.95 -55.5 -20.15 Q-55.5 -10.8 -50.85 3.75 L-43.1 10.45 Q-42.15 10.95 -41.25 11.4 L-47.3 9.55 -67.1 -1.15 -79.0 -11.05 -79.0 -12.0 -82.45 -19.65" fill="url(#gradient2)" fill-rule="evenodd" stroke="none"/>
    <path d="M82.75 0.05 Q83.9 3.05 72.55 17.6 L55.8 26.45 Q32.65 34.1 5.2 31.2 -79.0 19.35 -82.45 -19.65 L-79.0 -12.0 -79.0 -11.05 -67.1 -1.15 -47.3 9.55 -41.25 11.4 -22.35 17.85 3.65 23.4 8.1 24.2 33.75 26.3 56.6 23.05 72.55 14.05 Q74.2 13.1 82.75 0.05" fill="url(#gradient3)" fill-rule="evenodd" stroke="none"/>
  </g>
  <defs>
    <radialGradient cx="0" cy="0" gradientTransform="matrix(0.0789, 0.0, 0.0, 0.0789, -0.45, -106.15)" gradientUnits="userSpaceOnUse" id="gradient0" r="819.2" spreadMethod="pad">
      <stop offset="0.0" stop-color="#ffffff"/>
      <stop offset="1.0" stop-color="#ffffff"/>
    </radialGradient>
    <radialGradient cx="0" cy="0" gradientTransform="matrix(0.1306, 0.0, 0.0, 0.1306, 2.65, -82.5)" gradientUnits="userSpaceOnUse" id="gradient1" r="819.2" spreadMethod="pad">
      <stop offset="0.0" stop-color="#d2d2d2"/>
      <stop offset="1.0" stop-color="#959595"/>
    </radialGradient>
    <radialGradient cx="0" cy="0" gradientTransform="matrix(0.1859, 0.0, 0.0, 0.1859, -66.55, -30.5)" gradientUnits="userSpaceOnUse" id="gradient2" r="819.2" spreadMethod="pad">
      <stop offset="0.0" stop-color="#ffffff"/>
      <stop offset="1.0" stop-color="#acacac"/>
    </radialGradient>
    <radialGradient cx="0" cy="0" gradientTransform="matrix(0.1733, 0.0, 0.0, 0.1733, -58.8, 12.4)" gradientUnits="userSpaceOnUse" id="gradient3" r="819.2" spreadMethod="pad">
      <stop offset="0.0" stop-color="#cbcbcb"/>
      <stop offset="1.0" stop-color="#333333"/>
    </radialGradient>
  </defs>
</svg>
