<?xml version="1.0" encoding="UTF-8" standalone="no"?>
<svg xmlns:ffdec="https://www.free-decompiler.com/flash" xmlns:xlink="http://www.w3.org/1999/xlink" ffdec:objectType="shape" height="158.15px" width="168.8px" xmlns="http://www.w3.org/2000/svg">
  <g transform="matrix(1.0, 0.0, 0.0, 1.0, 83.85, 127.1)">
    <path d="M-64.85 -105.45 L-65.1 -105.8 -63.55 -112.65 -56.05 -118.65 -43.2 -123.25 -28.4 -125.85 -9.05 -127.1 10.4 -126.15 27.9 -123.5 44.55 -119.0 57.4 -112.95 64.1 -106.35 64.75 -99.1 Q56.95 -83.9 7.85 -82.55 L-13.25 -83.8 -33.45 -87.3 -50.05 -92.85 Q-63.0 -98.55 -64.85 -105.45" fill="url(#gradient0)" fill-rule="evenodd" stroke="none"/>
    <path d="M-64.85 -105.45 Q-63.0 -98.55 -50.05 -92.85 L-33.45 -87.3 -13.25 -83.8 7.85 -82.55 Q56.95 -83.9 64.75 -99.1 L58.3 -38.2 53.55 5.6 50.5 10.2 Q43.65 20.65 11.3 23.05 L-14.15 18.65 -41.25 11.15 -43.6 9.85 -50.05 5.2 -54.0 -1.4 -54.0 -1.95 -57.9 -37.3 -57.9 -37.85 -64.85 -105.45" fill="url(#gradient1)" fill-rule="evenodd" stroke="none"/>
    <path d="M58.3 -38.2 L73.35 -29.15 82.45 -17.9 83.25 -16.75 84.95 -3.1 78.1 10.75 62.95 20.75 Q37.75 27.45 11.3 23.05 43.65 20.65 50.5 10.2 L53.55 5.6 58.3 -38.2 M-83.75 -17.8 L-83.85 -18.05 -82.0 -26.25 Q-74.9 -33.1 -57.9 -37.85 L-57.9 -37.3 -54.0 -1.95 -54.0 -1.4 -50.05 5.2 -43.6 9.85 -62.45 1.65 -77.25 -8.1 -82.45 -16.3 -83.75 -17.8" fill="url(#gradient2)" fill-rule="evenodd" stroke="none"/>
    <path d="M84.95 -3.1 Q76.5 33.95 12.5 30.8 -73.05 23.55 -83.75 -17.8 L-82.45 -16.3 -77.25 -8.1 -62.45 1.65 -43.6 9.85 -41.25 11.15 -14.15 18.65 11.3 23.05 Q37.75 27.45 62.95 20.75 L78.1 10.75 84.95 -3.1" fill="url(#gradient3)" fill-rule="evenodd" stroke="none"/>
  </g>
  <defs>
    <radialGradient cx="0" cy="0" gradientTransform="matrix(0.08, 0.0, 0.0, 0.08, -0.45, -106.1)" gradientUnits="userSpaceOnUse" id="gradient0" r="819.2" spreadMethod="pad">
      <stop offset="0.0" stop-color="#ffffff"/>
      <stop offset="1.0" stop-color="#ffffff"/>
    </radialGradient>
    <radialGradient cx="0" cy="0" gradientTransform="matrix(0.1315, 0.0, 0.0, 0.1315, 8.8, -82.7)" gradientUnits="userSpaceOnUse" id="gradient1" r="819.2" spreadMethod="pad">
      <stop offset="0.0" stop-color="#d3d3d3"/>
      <stop offset="1.0" stop-color="#8d8d8d"/>
    </radialGradient>
    <radialGradient cx="0" cy="0" gradientTransform="matrix(0.1933, 0.0, 0.0, 0.1933, -71.45, -28.15)" gradientUnits="userSpaceOnUse" id="gradient2" r="819.2" spreadMethod="pad">
      <stop offset="0.0" stop-color="#ffffff"/>
      <stop offset="1.0" stop-color="#aaaaaa"/>
    </radialGradient>
    <radialGradient cx="0" cy="0" gradientTransform="matrix(0.1575, 0.0, 0.0, 0.1575, 35.8, 30.3)" gradientUnits="userSpaceOnUse" id="gradient3" r="819.2" spreadMethod="pad">
      <stop offset="0.0" stop-color="#c5c5c5"/>
      <stop offset="1.0" stop-color="#323232"/>
    </radialGradient>
  </defs>
</svg>
