<?xml version="1.0" encoding="UTF-8" standalone="no"?>
<svg xmlns:ffdec="https://www.free-decompiler.com/flash" xmlns:xlink="http://www.w3.org/1999/xlink" ffdec:objectType="shape" height="153.85px" width="178.7px" xmlns="http://www.w3.org/2000/svg">
  <g transform="matrix(1.0, 0.0, 0.0, 1.0, 88.75, 126.3)">
    <path d="M-67.75 -104.75 L-66.85 -111.5 -58.95 -117.7 -46.8 -122.05 -30.7 -124.95 -10.9 -126.3 9.2 -125.6 29.15 -123.1 45.5 -119.15 59.05 -113.45 66.45 -107.3 67.8 -100.4 Q60.65 -85.45 9.6 -83.8 L-12.2 -84.6 -33.05 -87.6 -50.5 -92.5 Q-65.65 -98.55 -67.75 -104.75" fill="url(#gradient0)" fill-rule="evenodd" stroke="none"/>
    <path d="M-67.75 -104.75 Q-65.65 -98.55 -50.5 -92.5 L-33.05 -87.6 -12.2 -84.6 9.6 -83.8 Q60.65 -85.45 67.8 -100.4 L60.65 -37.45 55.9 5.1 50.9 11.7 Q39.2 18.65 34.9 18.65 L34.5 18.65 16.75 18.4 Q-22.75 15.3 -51.65 6.25 L-55.75 0.3 Q-56.7 -1.3 -56.95 -6.55 L-59.45 -28.85 -59.45 -29.15 -60.35 -37.3 -60.35 -37.7 -67.75 -104.75" fill="url(#gradient1)" fill-rule="evenodd" stroke="none"/>
    <path d="M60.65 -37.45 L76.65 -28.45 87.6 -15.8 89.95 -2.05 83.1 9.55 67.7 16.55 45.1 18.9 34.9 18.65 Q39.2 18.65 50.9 11.7 L55.9 5.1 60.65 -37.45 M-88.5 -13.85 L-88.75 -14.1 -87.3 -21.5 Q-81.75 -28.7 -60.35 -37.7 L-60.35 -37.3 -59.45 -29.15 -59.45 -28.85 -56.95 -6.55 Q-56.7 -1.3 -55.75 0.3 L-51.65 6.25 -65.65 1.9 -81.2 -6.0 -84.65 -10.15 -88.5 -13.85" fill="url(#gradient2)" fill-rule="evenodd" stroke="none"/>
    <path d="M89.95 -2.05 L88.65 2.15 82.05 13.1 64.0 22.1 Q25.3 30.15 -11.7 26.3 -48.45 21.75 -76.75 3.5 -90.2 -10.25 -88.5 -13.85 L-84.65 -10.15 -81.2 -6.0 -65.65 1.9 -51.65 6.25 Q-22.75 15.3 16.75 18.4 L34.5 18.65 34.9 18.65 45.1 18.9 67.7 16.55 83.1 9.55 89.95 -2.05" fill="url(#gradient3)" fill-rule="evenodd" stroke="none"/>
  </g>
  <defs>
    <radialGradient cx="0" cy="0" gradientTransform="matrix(0.0835, 0.0, 0.0, 0.0835, -0.45, -106.15)" gradientUnits="userSpaceOnUse" id="gradient0" r="819.2" spreadMethod="pad">
      <stop offset="0.0" stop-color="#ffffff"/>
      <stop offset="1.0" stop-color="#ffffff"/>
    </radialGradient>
    <radialGradient cx="0" cy="0" gradientTransform="matrix(0.1345, 0.0, 0.0, 0.1345, 10.9, -83.85)" gradientUnits="userSpaceOnUse" id="gradient1" r="819.2" spreadMethod="pad">
      <stop offset="0.0" stop-color="#d3d3d3"/>
      <stop offset="1.0" stop-color="#919191"/>
    </radialGradient>
    <radialGradient cx="0" cy="0" gradientTransform="matrix(0.1646, 0.0, 0.0, 0.1646, -39.6, -39.7)" gradientUnits="userSpaceOnUse" id="gradient2" r="819.2" spreadMethod="pad">
      <stop offset="0.0" stop-color="#ffffff"/>
      <stop offset="1.0" stop-color="#aaaaaa"/>
    </radialGradient>
    <radialGradient cx="0" cy="0" gradientTransform="matrix(0.1865, 0.0, 0.0, 0.1865, 59.6, 22.75)" gradientUnits="userSpaceOnUse" id="gradient3" r="819.2" spreadMethod="pad">
      <stop offset="0.0" stop-color="#d1d1d1"/>
      <stop offset="1.0" stop-color="#393939"/>
    </radialGradient>
  </defs>
</svg>
