<?xml version="1.0" encoding="UTF-8" standalone="no"?>
<svg xmlns:ffdec="https://www.free-decompiler.com/flash" xmlns:xlink="http://www.w3.org/1999/xlink" ffdec:objectType="shape" height="152.6px" width="180.55px" xmlns="http://www.w3.org/2000/svg">
  <g transform="matrix(1.0, 0.0, 0.0, 1.0, 89.55, 125.6)">
    <path d="M68.6 -102.25 Q65.85 -87.6 16.05 -84.15 L-5.85 -84.3 Q-40.9 -87.15 -60.25 -96.55 L-67.65 -103.05 -68.3 -109.75 Q-65.0 -116.5 -51.3 -120.6 L-35.2 -124.2 Q4.75 -128.3 42.6 -120.2 70.6 -110.7 68.6 -102.25" fill="url(#gradient0)" fill-rule="evenodd" stroke="none"/>
    <path d="M-67.65 -103.05 L-60.25 -96.55 Q-40.9 -87.15 -5.85 -84.3 L16.05 -84.15 Q65.85 -87.6 68.6 -102.25 L61.2 -37.05 Q58.45 6.3 52.45 10.1 L44.3 15.35 38.1 17.35 23.7 17.6 -6.25 15.65 -34.9 10.9 -51.3 6.75 -55.75 2.3 -56.3 0.6 -58.8 -22.9 -58.95 -23.7 -60.5 -37.7 -67.65 -103.05" fill="url(#gradient1)" fill-rule="evenodd" stroke="none"/>
    <path d="M-60.5 -37.7 L-58.95 -23.7 -58.8 -22.9 -56.3 0.6 -55.75 2.3 -51.3 6.75 -61.05 4.4 -78.6 -3.0 -88.75 -10.75 -89.55 -18.3 Q-82.7 -27.45 -66.7 -35.3 L-60.5 -37.7 M38.1 17.35 L44.3 15.35 52.45 10.1 Q58.45 6.3 61.2 -37.05 73.05 -34.25 86.4 -18.95 L91.0 -5.4 86.4 6.4 73.2 13.8 51.95 17.05 38.1 17.35" fill="url(#gradient2)" fill-rule="evenodd" stroke="none"/>
    <path d="M-51.3 6.75 L-34.9 10.9 -6.25 15.65 23.7 17.6 38.1 17.35 51.95 17.05 73.2 13.8 86.4 6.4 91.0 -5.4 89.7 -1.0 85.35 9.95 69.25 19.45 45.85 25.0 22.0 27.0 -5.6 26.55 -31.3 23.05 -52.95 16.8 -74.35 6.4 Q-90.45 -6.55 -88.75 -10.75 L-78.6 -3.0 -61.05 4.4 -51.3 6.75" fill="url(#gradient3)" fill-rule="evenodd" stroke="none"/>
  </g>
  <defs>
    <radialGradient cx="0" cy="0" gradientTransform="matrix(0.0844, 0.0, 0.0, 0.0844, -0.45, -106.2)" gradientUnits="userSpaceOnUse" id="gradient0" r="819.2" spreadMethod="pad">
      <stop offset="0.0" stop-color="#ffffff"/>
      <stop offset="1.0" stop-color="#ffffff"/>
    </radialGradient>
    <radialGradient cx="0" cy="0" gradientTransform="matrix(0.1395, 0.0, 0.0, 0.1395, 16.75, -84.25)" gradientUnits="userSpaceOnUse" id="gradient1" r="819.2" spreadMethod="pad">
      <stop offset="0.0" stop-color="#d1d1d1"/>
      <stop offset="1.0" stop-color="#808080"/>
    </radialGradient>
    <radialGradient cx="0" cy="0" gradientTransform="matrix(0.1718, 0.0, 0.0, 0.1718, -45.85, -38.25)" gradientUnits="userSpaceOnUse" id="gradient2" r="819.2" spreadMethod="pad">
      <stop offset="0.0" stop-color="#ffffff"/>
      <stop offset="1.0" stop-color="#cccccc"/>
    </radialGradient>
    <radialGradient cx="0" cy="0" gradientTransform="matrix(0.2181, 0.0, 0.0, 0.2181, 89.65, -1.2)" gradientUnits="userSpaceOnUse" id="gradient3" r="819.2" spreadMethod="pad">
      <stop offset="0.0" stop-color="#bfbfbf"/>
      <stop offset="1.0" stop-color="#3f3f3f"/>
    </radialGradient>
  </defs>
</svg>
