<?xml version="1.0" encoding="UTF-8" standalone="no"?>
<svg xmlns:ffdec="https://www.free-decompiler.com/flash" xmlns:xlink="http://www.w3.org/1999/xlink" ffdec:objectType="shape" height="151.9px" width="182.35px" xmlns="http://www.w3.org/2000/svg">
  <g transform="matrix(1.0, 0.0, 0.0, 1.0, 90.9, 125.35)">
    <path d="M68.7 -101.35 Q67.1 -96.4 58.45 -92.5 35.35 -83.8 -2.0 -84.3 -35.5 -85.85 -58.4 -95.25 L-66.95 -101.05 -69.05 -106.6 Q-70.0 -108.05 -65.25 -113.7 L-54.7 -119.25 -39.25 -123.25 Q-4.55 -128.2 38.5 -121.4 69.35 -112.4 69.0 -104.2 69.1 -102.75 68.7 -101.35" fill="url(#gradient0)" fill-rule="evenodd" stroke="none"/>
    <path d="M-69.05 -106.6 L-66.95 -101.05 -58.4 -95.25 Q-35.5 -85.85 -2.0 -84.3 35.35 -83.8 58.45 -92.5 67.1 -96.4 68.7 -101.35 L61.35 -37.15 57.2 -0.45 55.1 7.45 47.35 13.65 41.4 15.9 31.6 16.55 Q-11.95 16.3 -51.1 7.45 L-55.5 4.15 Q-55.1 2.95 -57.45 -2.2 L-61.4 -37.45 -61.55 -37.45 -69.05 -106.6" fill="url(#gradient1)" fill-rule="evenodd" stroke="none"/>
    <path d="M-61.55 -37.45 L-61.4 -37.45 -57.45 -2.2 Q-55.1 2.95 -55.5 4.15 L-51.1 7.45 -55.75 6.65 -76.45 -0.65 -88.1 -7.6 Q-89.65 -12.5 -90.35 -12.75 L-90.35 -12.9 -90.6 -13.55 -90.7 -13.65 -90.9 -14.1 Q-90.55 -21.6 -72.95 -32.3 L-61.55 -37.45 M41.4 15.9 L47.35 13.65 55.1 7.45 57.2 -0.45 61.35 -37.15 70.05 -33.65 84.85 -21.85 91.45 -8.9 89.35 2.95 77.55 11.0 58.15 14.95 41.4 15.9" fill="url(#gradient2)" fill-rule="evenodd" stroke="none"/>
    <path d="M-51.1 7.45 Q-11.95 16.3 31.6 16.55 L41.4 15.9 58.15 14.95 77.55 11.0 89.35 2.95 Q82.55 17.05 53.15 22.6 34.8 26.8 0.2 26.55 -48.4 22.6 -71.7 9.05 L-83.2 0.45 -86.5 -2.6 -87.7 -4.95 -90.35 -12.75 Q-89.65 -12.5 -88.1 -7.6 L-76.45 -0.65 -55.75 6.65 -51.1 7.45" fill="url(#gradient3)" fill-rule="evenodd" stroke="none"/>
  </g>
  <defs>
    <radialGradient cx="0" cy="0" gradientTransform="matrix(0.0847, 0.0, 0.0, 0.0847, -0.45, -106.2)" gradientUnits="userSpaceOnUse" id="gradient0" r="819.2" spreadMethod="pad">
      <stop offset="0.0" stop-color="#ffffff"/>
      <stop offset="1.0" stop-color="#ffffff"/>
    </radialGradient>
    <radialGradient cx="0" cy="0" gradientTransform="matrix(0.1327, 0.0, 0.0, 0.1327, -0.1, -84.3)" gradientUnits="userSpaceOnUse" id="gradient1" r="819.2" spreadMethod="pad">
      <stop offset="0.0" stop-color="#d3d3d3"/>
      <stop offset="1.0" stop-color="#8d8d8d"/>
    </radialGradient>
    <radialGradient cx="0" cy="0" gradientTransform="matrix(0.1788, 0.0, 0.0, 0.1788, -51.8, -36.65)" gradientUnits="userSpaceOnUse" id="gradient2" r="819.2" spreadMethod="pad">
      <stop offset="0.0" stop-color="#ffffff"/>
      <stop offset="1.0" stop-color="#b2b2b2"/>
    </radialGradient>
    <radialGradient cx="0" cy="0" gradientTransform="matrix(0.119, 0.0, 0.0, 0.119, 1.35, 15.6)" gradientUnits="userSpaceOnUse" id="gradient3" r="819.2" spreadMethod="pad">
      <stop offset="0.0" stop-color="#bdbdbd"/>
      <stop offset="1.0" stop-color="#616161"/>
    </radialGradient>
  </defs>
</svg>
