<?xml version="1.0" encoding="UTF-8" standalone="no"?>
<svg xmlns:ffdec="https://www.free-decompiler.com/flash" xmlns:xlink="http://www.w3.org/1999/xlink" ffdec:objectType="shape" height="150.75px" width="185.05px" xmlns="http://www.w3.org/2000/svg">
  <g transform="matrix(1.0, 0.0, 0.0, 1.0, 92.3, 124.9)">
    <path d="M69.65 -103.95 Q65.15 -89.15 16.85 -84.95 L-6.5 -84.6 -29.45 -86.55 -48.4 -90.4 Q-64.85 -95.25 -69.25 -101.45 L-69.85 -108.2 Q-61.55 -118.35 -37.0 -122.7 3.35 -127.9 42.95 -120.85 67.0 -114.95 69.65 -103.95" fill="url(#gradient0)" fill-rule="evenodd" stroke="none"/>
    <path d="M-69.25 -101.45 Q-64.85 -95.25 -48.4 -90.4 L-29.45 -86.55 -6.5 -84.6 16.85 -84.95 Q65.15 -89.15 69.65 -103.95 L62.0 -37.3 57.65 1.2 Q55.4 9.05 47.7 11.95 L23.6 14.15 -9.15 13.9 -37.65 11.95 -51.4 9.4 -57.1 3.85 -57.45 2.0 -57.6 1.75 -61.95 -37.7 -69.25 -101.45" fill="url(#gradient1)" fill-rule="evenodd" stroke="none"/>
    <path d="M-61.95 -37.7 L-57.6 1.75 -57.45 2.0 -57.1 3.85 -51.4 9.4 -63.7 7.3 -81.75 1.75 -91.8 -4.95 -92.3 -13.95 -84.55 -24.25 Q-76.9 -29.55 -69.25 -34.95 L-61.95 -37.7 M47.7 11.95 Q55.4 9.05 57.65 1.2 L62.0 -37.3 Q88.55 -25.55 92.75 -7.25 L87.5 1.75 72.95 7.55 51.55 11.7 47.7 11.95" fill="url(#gradient2)" fill-rule="evenodd" stroke="none"/>
    <path d="M-51.4 9.4 L-37.65 11.95 -9.15 13.9 23.6 14.15 47.7 11.95 51.55 11.7 72.95 7.55 87.5 1.75 92.75 -7.25 91.15 -3.0 86.4 5.85 68.45 15.2 Q28.05 27.0 -7.55 25.75 -46.55 23.65 -78.2 8.75 -93.25 -0.9 -91.8 -4.95 L-81.75 1.75 -63.7 7.3 -51.4 9.4" fill="url(#gradient3)" fill-rule="evenodd" stroke="none"/>
  </g>
  <defs>
    <radialGradient cx="0" cy="0" gradientTransform="matrix(0.0856, 0.0, 0.0, 0.0856, -0.45, -106.1)" gradientUnits="userSpaceOnUse" id="gradient0" r="819.2" spreadMethod="pad">
      <stop offset="0.0" stop-color="#ffffff"/>
      <stop offset="1.0" stop-color="#ffffff"/>
    </radialGradient>
    <radialGradient cx="0" cy="0" gradientTransform="matrix(0.1351, 0.0, 0.0, 0.1351, -6.1, -84.7)" gradientUnits="userSpaceOnUse" id="gradient1" r="819.2" spreadMethod="pad">
      <stop offset="0.0" stop-color="#d3d3d3"/>
      <stop offset="1.0" stop-color="#949494"/>
    </radialGradient>
    <radialGradient cx="0" cy="0" gradientTransform="matrix(0.1736, 0.0, 0.0, 0.1736, -46.15, -38.3)" gradientUnits="userSpaceOnUse" id="gradient2" r="819.2" spreadMethod="pad">
      <stop offset="0.0" stop-color="#ffffff"/>
      <stop offset="1.0" stop-color="#cbcbcb"/>
    </radialGradient>
    <radialGradient cx="0" cy="0" gradientTransform="matrix(0.2138, 0.0, 0.0, 0.2138, 82.9, 7.65)" gradientUnits="userSpaceOnUse" id="gradient3" r="819.2" spreadMethod="pad">
      <stop offset="0.0" stop-color="#c8c8c8"/>
      <stop offset="1.0" stop-color="#454545"/>
    </radialGradient>
  </defs>
</svg>
