<?xml version="1.0" encoding="UTF-8" standalone="no"?>
<svg xmlns:ffdec="https://www.free-decompiler.com/flash" xmlns:xlink="http://www.w3.org/1999/xlink" ffdec:objectType="shape" height="172.0px" width="156.3px" xmlns="http://www.w3.org/2000/svg">
  <g transform="matrix(1.0, 0.0, 0.0, 1.0, 78.6, 129.7)">
    <path d="M61.6 -102.1 L59.25 -92.35 Q53.0 -83.1 39.8 -78.25 L36.8 -76.9 Q11.45 -68.75 -20.9 -72.55 -48.6 -77.8 -60.5 -92.75 L-61.95 -98.95 -61.95 -99.1 -62.1 -99.35 Q-63.95 -101.2 -58.5 -111.1 -44.25 -124.6 -19.2 -128.65 9.0 -131.9 34.5 -124.95 57.4 -116.9 61.6 -102.1" fill="url(#gradient0)" fill-rule="evenodd" stroke="none"/>
    <path d="M-61.95 -98.95 L-60.5 -92.75 Q-48.6 -77.8 -20.9 -72.55 11.45 -68.75 36.8 -76.9 L39.8 -78.25 Q53.0 -83.1 59.25 -92.35 L61.6 -102.1 55.25 -44.05 50.8 -2.85 48.8 7.3 41.55 16.55 30.55 23.4 Q-2.2 35.3 -31.75 23.15 -45.2 16.55 -49.8 7.2 -53.6 -17.05 -54.2 -26.25 L-54.3 -26.6 -54.3 -26.85 -54.45 -27.9 -54.45 -28.1 -56.15 -43.9 -56.3 -43.9 -61.95 -98.95" fill="url(#gradient1)" fill-rule="evenodd" stroke="none"/>
    <path d="M-56.3 -43.9 L-56.15 -43.9 -54.45 -28.1 -54.45 -27.9 -54.3 -26.85 -54.3 -26.6 -54.2 -26.25 Q-53.6 -17.05 -49.8 7.2 -45.2 16.55 -31.75 23.15 -2.2 35.3 30.55 23.4 L41.55 16.55 48.8 7.3 50.8 -2.85 55.25 -44.05 60.15 -42.2 72.0 -31.9 77.7 -18.95 75.6 -3.8 Q58.8 32.25 -0.35 39.25 -60.0 32.1 -76.45 -3.65 -77.8 -11.1 -78.6 -18.6 L-73.45 -31.0 Q-59.75 -44.8 -56.3 -43.9" fill="url(#gradient2)" fill-rule="evenodd" stroke="none"/>
    <path d="M75.6 -3.8 Q77.2 0.15 62.25 18.9 L46.3 30.55 24.4 39.5 0.75 42.3 -24.9 39.65 -46.35 31.05 -62.65 19.6 Q-77.95 0.3 -76.45 -3.65 -60.0 32.1 -0.35 39.25 58.8 32.25 75.6 -3.8" fill="url(#gradient3)" fill-rule="evenodd" stroke="none"/>
  </g>
  <defs>
    <radialGradient cx="0" cy="0" gradientTransform="matrix(0.0756, 0.0, 0.0, 0.0756, -0.45, -102.2)" gradientUnits="userSpaceOnUse" id="gradient0" r="819.2" spreadMethod="pad">
      <stop offset="0.0" stop-color="#ffffff"/>
      <stop offset="1.0" stop-color="#ffffff"/>
    </radialGradient>
    <radialGradient cx="0" cy="0" gradientTransform="matrix(0.1225, 0.0, 0.0, 0.1225, -0.45, -71.05)" gradientUnits="userSpaceOnUse" id="gradient1" r="819.2" spreadMethod="pad">
      <stop offset="0.0" stop-color="#d3d3d3"/>
      <stop offset="1.0" stop-color="#a2a2a2"/>
    </radialGradient>
    <radialGradient cx="0" cy="0" gradientTransform="matrix(0.1535, 0.0, 0.0, 0.1535, -43.0, -44.05)" gradientUnits="userSpaceOnUse" id="gradient2" r="819.2" spreadMethod="pad">
      <stop offset="0.0" stop-color="#ffffff"/>
      <stop offset="1.0" stop-color="#acacac"/>
    </radialGradient>
    <radialGradient cx="0" cy="0" gradientTransform="matrix(0.1066, 0.0, 0.0, 0.1066, -0.45, 39.2)" gradientUnits="userSpaceOnUse" id="gradient3" r="819.2" spreadMethod="pad">
      <stop offset="0.0" stop-color="#aeaeae"/>
      <stop offset="1.0" stop-color="#3f3f3f"/>
    </radialGradient>
  </defs>
</svg>
