<?xml version="1.0" encoding="UTF-8" standalone="no"?>
<svg xmlns:ffdec="https://www.free-decompiler.com/flash" xmlns:xlink="http://www.w3.org/1999/xlink" ffdec:objectType="shape" height="171.45px" width="156.95px" xmlns="http://www.w3.org/2000/svg">
  <g transform="matrix(1.0, 0.0, 0.0, 1.0, 78.2, 129.85)">
    <path d="M62.0 -97.25 Q57.2 -76.65 12.75 -71.5 L-8.0 -71.5 -29.1 -75.05 Q-46.35 -79.4 -56.3 -88.65 L-61.95 -97.1 -61.85 -106.85 -55.75 -115.3 Q-39.2 -127.3 -12.2 -129.7 17.0 -130.8 39.7 -122.35 61.65 -112.35 62.0 -97.25" fill="url(#gradient0)" fill-rule="evenodd" stroke="none"/>
    <path d="M-61.95 -97.1 L-56.3 -88.65 Q-46.35 -79.4 -29.1 -75.05 L-8.0 -71.5 12.75 -71.5 Q57.2 -76.65 62.0 -97.25 L56.05 -42.85 50.9 2.95 Q46.65 18.5 25.7 25.95 3.35 32.0 -22.75 25.75 -29.65 22.7 -36.5 19.6 L-46.25 11.25 -51.3 1.75 -55.6 -38.75 -55.75 -39.25 -56.3 -44.05 -56.3 -44.45 -56.4 -44.45 -61.95 -97.1" fill="url(#gradient1)" fill-rule="evenodd" stroke="none"/>
    <path d="M-56.4 -44.45 L-56.3 -44.45 -56.3 -44.05 -55.75 -39.25 -55.6 -38.75 -51.3 1.75 -46.25 11.25 -36.5 19.6 Q-29.65 22.7 -22.75 25.75 3.35 32.0 25.7 25.95 46.65 18.5 50.9 2.95 L56.05 -42.85 Q66.1 -39.95 75.45 -25.7 L78.75 -10.5 73.75 5.2 73.2 5.35 60.8 20.1 41.65 32.1 17.25 38.45 -9.65 37.0 -34.9 28.7 -56.4 16.15 -71.1 2.45 -77.15 -10.5 -78.2 -12.0 -77.7 -25.55 Q-72.75 -38.4 -56.4 -44.45" fill="url(#gradient2)" fill-rule="evenodd" stroke="none"/>
    <path d="M-78.2 -12.0 L-77.15 -10.5 -71.1 2.45 -56.4 16.15 -34.9 28.7 -9.65 37.0 17.25 38.45 41.65 32.1 60.8 20.1 73.2 5.35 73.75 5.2 78.75 -10.5 Q72.45 32.8 16.85 41.6 L-8.9 41.25 -32.55 34.75 -53.15 24.45 -67.1 11.95 -69.85 8.0 -76.6 -5.4 -78.2 -12.0" fill="url(#gradient3)" fill-rule="evenodd" stroke="none"/>
  </g>
  <defs>
    <radialGradient cx="0" cy="0" gradientTransform="matrix(0.0764, 0.0, 0.0, 0.0764, -0.45, -102.25)" gradientUnits="userSpaceOnUse" id="gradient0" r="819.2" spreadMethod="pad">
      <stop offset="0.0" stop-color="#ffffff"/>
      <stop offset="1.0" stop-color="#ffffff"/>
    </radialGradient>
    <radialGradient cx="0" cy="0" gradientTransform="matrix(0.1266, 0.0, 0.0, 0.1266, 12.5, -71.55)" gradientUnits="userSpaceOnUse" id="gradient1" r="819.2" spreadMethod="pad">
      <stop offset="0.0" stop-color="#d0d0d0"/>
      <stop offset="1.0" stop-color="#7f7f7f"/>
    </radialGradient>
    <radialGradient cx="0" cy="0" gradientTransform="matrix(0.1718, 0.0, 0.0, 0.1718, 61.8, -26.35)" gradientUnits="userSpaceOnUse" id="gradient2" r="819.2" spreadMethod="pad">
      <stop offset="0.0" stop-color="#ffffff"/>
      <stop offset="1.0" stop-color="#aaaaaa"/>
    </radialGradient>
    <radialGradient cx="0" cy="0" gradientTransform="matrix(0.1549, 0.0, 0.0, 0.1549, 38.9, 36.6)" gradientUnits="userSpaceOnUse" id="gradient3" r="819.2" spreadMethod="pad">
      <stop offset="0.0" stop-color="#b4b4b4"/>
      <stop offset="1.0" stop-color="#3e3e3e"/>
    </radialGradient>
  </defs>
</svg>
