<?xml version="1.0" encoding="UTF-8" standalone="no"?>
<svg xmlns:ffdec="https://www.free-decompiler.com/flash" xmlns:xlink="http://www.w3.org/1999/xlink" ffdec:objectType="shape" height="171.55px" width="158.5px" xmlns="http://www.w3.org/2000/svg">
  <g transform="matrix(1.0, 0.0, 0.0, 1.0, 79.1, 129.85)">
    <path d="M-62.2 -100.15 L-62.35 -100.8 -62.45 -102.0 Q-64.5 -104.1 -58.65 -113.1 L-48.9 -120.6 -34.65 -126.15 -18.3 -129.2 -0.35 -129.85 19.1 -127.85 35.85 -123.5 48.65 -117.4 58.55 -109.15 62.5 -99.45 Q62.7 -97.2 62.05 -94.95 58.95 -85.3 39.25 -76.75 L37.05 -75.85 18.55 -72.0 Q-13.15 -69.55 -40.45 -79.3 L-53.4 -86.4 -61.15 -95.15 -62.2 -100.15" fill="url(#gradient0)" fill-rule="evenodd" stroke="none"/>
    <path d="M-62.2 -100.15 L-61.15 -95.15 -53.4 -86.4 -40.45 -79.3 Q-13.15 -69.55 18.55 -72.0 L37.05 -75.85 39.25 -76.75 Q58.95 -85.3 62.05 -94.95 L56.15 -42.6 51.4 0.45 49.2 10.1 41.8 18.55 30.2 24.7 Q-2.0 35.15 -32.8 21.2 -46.1 13.9 -50.5 4.3 L-52.95 -13.95 -52.95 -14.9 -53.15 -15.15 -54.55 -28.35 -54.55 -29.4 -54.7 -29.75 -56.3 -44.05 -62.2 -100.15" fill="url(#gradient1)" fill-rule="evenodd" stroke="none"/>
    <path d="M56.15 -42.6 L61.6 -40.05 74.0 -28.2 79.4 -13.95 77.0 1.65 66.6 17.05 48.8 30.25 25.55 37.55 -0.95 37.3 Q-62.2 22.6 -77.15 -8.65 L-79.1 -22.1 -73.55 -34.0 Q-59.25 -45.2 -56.3 -44.05 L-54.7 -29.75 -54.55 -29.4 -54.55 -28.35 -53.15 -15.15 -52.95 -14.9 -52.95 -13.95 -50.5 4.3 Q-46.1 13.9 -32.8 21.2 -2.0 35.15 30.2 24.7 L41.8 18.55 49.2 10.1 51.4 0.45 56.15 -42.6" fill="url(#gradient2)" fill-rule="evenodd" stroke="none"/>
    <path d="M77.0 1.65 Q59.05 45.55 -0.6 41.35 -39.5 35.15 -63.15 15.35 -79.0 -4.45 -77.15 -8.65 -62.2 22.6 -0.95 37.3 L25.55 37.55 48.8 30.25 66.6 17.05 77.0 1.65" fill="url(#gradient3)" fill-rule="evenodd" stroke="none"/>
  </g>
  <defs>
    <radialGradient cx="0" cy="0" gradientTransform="matrix(0.0769, 0.0, 0.0, 0.0769, -0.45, -102.25)" gradientUnits="userSpaceOnUse" id="gradient0" r="819.2" spreadMethod="pad">
      <stop offset="0.0" stop-color="#ffffff"/>
      <stop offset="1.0" stop-color="#ffffff"/>
    </radialGradient>
    <radialGradient cx="0" cy="0" gradientTransform="matrix(0.1234, 0.0, 0.0, 0.1234, -1.65, -71.45)" gradientUnits="userSpaceOnUse" id="gradient1" r="819.2" spreadMethod="pad">
      <stop offset="0.0" stop-color="#d2d2d2"/>
      <stop offset="1.0" stop-color="#8f8f8f"/>
    </radialGradient>
    <radialGradient cx="0" cy="0" gradientTransform="matrix(0.1602, 0.0, 0.0, 0.1602, -43.85, -47.9)" gradientUnits="userSpaceOnUse" id="gradient2" r="819.2" spreadMethod="pad">
      <stop offset="0.0" stop-color="#ffffff"/>
      <stop offset="1.0" stop-color="#aaaaaa"/>
    </radialGradient>
    <radialGradient cx="0" cy="0" gradientTransform="matrix(0.1374, 0.0, 0.0, 0.1374, 23.95, 40.6)" gradientUnits="userSpaceOnUse" id="gradient3" r="819.2" spreadMethod="pad">
      <stop offset="0.0" stop-color="#b9b9b9"/>
      <stop offset="1.0" stop-color="#444444"/>
    </radialGradient>
  </defs>
</svg>
