<?xml version="1.0" encoding="UTF-8" standalone="no"?>
<svg xmlns:ffdec="https://www.free-decompiler.com/flash" xmlns:xlink="http://www.w3.org/1999/xlink" ffdec:objectType="shape" height="171.05px" width="159.4px" xmlns="http://www.w3.org/2000/svg">
  <g transform="matrix(1.0, 0.0, 0.0, 1.0, 79.75, 129.75)">
    <path d="M-63.15 -101.3 L-63.4 -102.25 -60.9 -111.1 -52.45 -119.0 Q-28.85 -130.6 -3.75 -129.7 24.5 -128.95 45.75 -118.9 L56.85 -111.1 62.5 -102.25 62.15 -92.85 Q51.85 -72.8 4.6 -71.4 L-16.45 -73.05 Q-46.35 -79.05 -59.85 -93.0 L-63.15 -101.3" fill="url(#gradient0)" fill-rule="evenodd" stroke="none"/>
    <path d="M-63.15 -101.3 L-59.85 -93.0 Q-46.35 -79.05 -16.45 -73.05 L4.6 -71.4 Q51.85 -72.8 62.15 -92.85 L56.45 -42.7 50.9 5.35 50.9 7.8 44.95 16.55 34.4 23.3 Q2.45 34.9 -28.4 22.6 L-41.25 14.95 -49.25 6.65 Q-52.05 -1.75 -54.3 -19.9 L-54.3 -20.7 -56.95 -43.5 -63.15 -101.3" fill="url(#gradient1)" fill-rule="evenodd" stroke="none"/>
    <path d="M56.45 -42.7 Q74.3 -33.5 79.4 -17.35 L79.65 -1.8 73.2 10.2 71.65 13.9 55.9 27.8 34.4 35.95 8.0 37.0 -19.2 31.2 -41.6 21.7 -43.6 21.2 -58.0 11.5 -63.0 8.6 -75.4 -5.4 -79.65 -17.8 Q-80.25 -19.3 -76.75 -31.0 -65.8 -42.95 -56.95 -43.5 L-54.3 -20.7 -54.3 -19.9 Q-52.05 -1.75 -49.25 6.65 L-41.25 14.95 -28.4 22.6 Q2.45 34.9 34.4 23.3 L44.95 16.55 50.9 7.8 50.9 5.35 56.45 -42.7" fill="url(#gradient2)" fill-rule="evenodd" stroke="none"/>
    <path d="M79.65 -1.8 Q66.9 42.95 7.5 41.25 -34.05 36.1 -59.2 18.0 -78.8 -1.35 -79.65 -17.8 L-75.4 -5.4 -63.0 8.6 -58.0 11.5 -43.6 21.2 -41.6 21.7 -19.2 31.2 8.0 37.0 34.4 35.95 55.9 27.8 71.65 13.9 73.2 10.2 79.65 -1.8" fill="url(#gradient3)" fill-rule="evenodd" stroke="none"/>
  </g>
  <defs>
    <radialGradient cx="0" cy="0" gradientTransform="matrix(0.0771, 0.0, 0.0, 0.0771, -0.45, -102.3)" gradientUnits="userSpaceOnUse" id="gradient0" r="819.2" spreadMethod="pad">
      <stop offset="0.0" stop-color="#ffffff"/>
      <stop offset="1.0" stop-color="#ffffff"/>
    </radialGradient>
    <radialGradient cx="0" cy="0" gradientTransform="matrix(0.1226, 0.0, 0.0, 0.1226, 4.8, -71.5)" gradientUnits="userSpaceOnUse" id="gradient1" r="819.2" spreadMethod="pad">
      <stop offset="0.0" stop-color="#d3d3d3"/>
      <stop offset="1.0" stop-color="#a1a1a1"/>
    </radialGradient>
    <radialGradient cx="0" cy="0" gradientTransform="matrix(0.1653, 0.0, 0.0, 0.1653, -49.6, -41.65)" gradientUnits="userSpaceOnUse" id="gradient2" r="819.2" spreadMethod="pad">
      <stop offset="0.0" stop-color="#ffffff"/>
      <stop offset="1.0" stop-color="#cdcdcd"/>
    </radialGradient>
    <radialGradient cx="0" cy="0" gradientTransform="matrix(0.1735, 0.0, 0.0, 0.1735, 52.5, 32.35)" gradientUnits="userSpaceOnUse" id="gradient3" r="819.2" spreadMethod="pad">
      <stop offset="0.0" stop-color="#b4b4b4"/>
      <stop offset="1.0" stop-color="#585858"/>
    </radialGradient>
  </defs>
</svg>
