<?xml version="1.0" encoding="UTF-8" standalone="no"?>
<svg xmlns:ffdec="https://www.free-decompiler.com/flash" xmlns:xlink="http://www.w3.org/1999/xlink" ffdec:objectType="shape" height="170.15px" width="161.9px" xmlns="http://www.w3.org/2000/svg">
  <g transform="matrix(1.0, 0.0, 0.0, 1.0, 80.4, 129.45)">
    <path d="M-63.4 -99.6 Q-69.25 -123.5 -8.25 -129.45 20.55 -129.15 41.8 -120.5 62.65 -111.5 63.45 -95.25 57.5 -74.8 10.4 -71.75 -22.3 -71.65 -47.4 -83.5 L-58.0 -90.9 -63.0 -99.45 -63.4 -99.6" fill="url(#gradient0)" fill-rule="evenodd" stroke="none"/>
    <path d="M-63.4 -99.6 L-63.0 -99.45 -58.0 -90.9 -47.4 -83.5 Q-22.3 -71.65 10.4 -71.75 57.5 -74.8 63.45 -95.25 L57.4 -41.55 52.1 3.25 52.1 5.6 51.05 7.7 Q50.25 14.4 38.2 21.55 L25.15 26.45 9.2 28.7 Q-17.3 28.95 -38.2 16.95 -53.8 4.2 -53.15 -6.55 L-55.0 -24.1 -55.1 -24.4 -57.2 -43.25 -57.2 -43.4 -57.35 -43.4 -63.4 -99.6" fill="url(#gradient1)" fill-rule="evenodd" stroke="none"/>
    <path d="M57.4 -41.55 L68.3 -34.7 78.75 -20.8 81.5 -5.2 79.15 0.7 75.95 10.6 62.0 25.25 41.9 34.4 16.05 36.5 Q-18.25 32.35 -41.9 19.85 -61.5 10.85 -73.3 -2.6 -79.4 -14.15 -80.3 -15.25 L-79.35 -27.8 -71.2 -37.15 Q-64.25 -40.3 -57.35 -43.4 L-57.2 -43.4 -57.2 -43.25 -55.1 -24.4 -55.0 -24.1 -53.15 -6.55 Q-53.8 4.2 -38.2 16.95 -17.3 28.95 9.2 28.7 L25.15 26.45 38.2 21.55 Q50.25 14.4 51.05 7.7 L52.1 5.6 52.1 3.25 57.4 -41.55" fill="url(#gradient2)" fill-rule="evenodd" stroke="none"/>
    <path d="M81.5 -5.2 Q74.8 39.4 15.8 40.7 L-10.2 37.65 -34.2 30.8 Q-61.9 18.7 -71.85 3.85 -81.35 -12.5 -80.3 -15.25 -79.4 -14.15 -73.3 -2.6 -61.5 10.85 -41.9 19.85 -18.25 32.35 16.05 36.5 L41.9 34.4 62.0 25.25 75.95 10.6 79.15 0.7 81.5 -5.2" fill="url(#gradient3)" fill-rule="evenodd" stroke="none"/>
  </g>
  <defs>
    <radialGradient cx="0" cy="0" gradientTransform="matrix(0.0784, 0.0, 0.0, 0.0784, -0.45, -102.3)" gradientUnits="userSpaceOnUse" id="gradient0" r="819.2" spreadMethod="pad">
      <stop offset="0.0" stop-color="#ffffff"/>
      <stop offset="1.0" stop-color="#ffffff"/>
    </radialGradient>
    <radialGradient cx="0" cy="0" gradientTransform="matrix(0.1248, 0.0, 0.0, 0.1248, 11.25, -71.8)" gradientUnits="userSpaceOnUse" id="gradient1" r="819.2" spreadMethod="pad">
      <stop offset="0.0" stop-color="#d2d2d2"/>
      <stop offset="1.0" stop-color="#939393"/>
    </radialGradient>
    <radialGradient cx="0" cy="0" gradientTransform="matrix(0.1725, 0.0, 0.0, 0.1725, -55.65, -39.55)" gradientUnits="userSpaceOnUse" id="gradient2" r="819.2" spreadMethod="pad">
      <stop offset="0.0" stop-color="#ffffff"/>
      <stop offset="1.0" stop-color="#c1c1c1"/>
    </radialGradient>
    <radialGradient cx="0" cy="0" gradientTransform="matrix(0.134, 0.0, 0.0, 0.134, 16.35, 36.4)" gradientUnits="userSpaceOnUse" id="gradient3" r="819.2" spreadMethod="pad">
      <stop offset="0.0" stop-color="#b1b1b1"/>
      <stop offset="1.0" stop-color="#444444"/>
    </radialGradient>
  </defs>
</svg>
