<?xml version="1.0" encoding="UTF-8" standalone="no"?>
<svg xmlns:ffdec="https://www.free-decompiler.com/flash" xmlns:xlink="http://www.w3.org/1999/xlink" ffdec:objectType="shape" height="168.8px" width="164.25px" xmlns="http://www.w3.org/2000/svg">
  <g transform="matrix(1.0, 0.0, 0.0, 1.0, 81.5, 129.05)">
    <path d="M64.35 -97.35 L62.65 -93.3 Q63.7 -89.3 53.95 -82.75 43.0 -75.15 17.6 -72.25 L-3.75 -72.25 Q-51.65 -78.0 -63.15 -97.6 -72.25 -120.85 -16.95 -129.05 L2.6 -129.05 Q31.05 -126.7 52.35 -114.65 63.7 -107.4 64.35 -97.5 L64.35 -97.35" fill="url(#gradient0)" fill-rule="evenodd" stroke="none"/>
    <path d="M-63.15 -97.6 Q-51.65 -78.0 -3.75 -72.25 L17.6 -72.25 Q43.0 -75.15 53.95 -82.75 63.7 -89.3 62.65 -93.3 L64.35 -97.35 57.9 -41.0 53.25 -2.75 53.0 2.8 50.1 12.05 42.2 19.7 29.65 25.25 Q12.5 31.2 -19.95 24.7 -55.0 12.2 -52.95 -5.75 L-54.2 -16.85 -54.3 -17.1 -57.2 -42.95 -63.15 -97.6" fill="url(#gradient1)" fill-rule="evenodd" stroke="none"/>
    <path d="M-57.2 -42.95 L-54.3 -17.1 -54.2 -16.85 -52.95 -5.75 Q-55.0 12.2 -19.95 24.7 12.5 31.2 29.65 25.25 L42.2 19.7 50.1 12.05 53.0 2.8 53.25 -2.75 57.9 -41.0 65.3 -37.15 77.7 -23.85 82.75 -9.2 79.65 7.2 68.05 22.25 49.75 32.1 23.7 35.45 Q-16.55 32.1 -53.25 13.5 -78.6 -5.7 -79.9 -11.8 L-80.05 -12.1 -81.5 -24.4 -75.4 -34.15 -63.0 -41.1 -57.2 -42.95" fill="url(#gradient2)" fill-rule="evenodd" stroke="none"/>
    <path d="M-79.9 -11.8 Q-78.6 -5.7 -53.25 13.5 -16.55 32.1 23.7 35.45 L49.75 32.1 68.05 22.25 79.65 7.2 Q80.7 10.45 67.5 25.5 L49.2 35.15 23.6 39.75 -1.75 37.9 Q-41.45 31.2 -66.35 11.15 -81.5 -7.85 -79.9 -11.8" fill="url(#gradient3)" fill-rule="evenodd" stroke="none"/>
  </g>
  <defs>
    <radialGradient cx="0" cy="0" gradientTransform="matrix(0.0793, 0.0, 0.0, 0.0793, -0.45, -102.25)" gradientUnits="userSpaceOnUse" id="gradient0" r="819.2" spreadMethod="pad">
      <stop offset="0.0" stop-color="#ffffff"/>
      <stop offset="1.0" stop-color="#ffffff"/>
    </radialGradient>
    <radialGradient cx="0" cy="0" gradientTransform="matrix(0.1258, 0.0, 0.0, 0.1258, -3.6, -72.45)" gradientUnits="userSpaceOnUse" id="gradient1" r="819.2" spreadMethod="pad">
      <stop offset="0.0" stop-color="#d0d0d0"/>
      <stop offset="1.0" stop-color="#909090"/>
    </radialGradient>
    <radialGradient cx="0" cy="0" gradientTransform="matrix(0.1806, 0.0, 0.0, 0.1806, -61.4, -37.15)" gradientUnits="userSpaceOnUse" id="gradient2" r="819.2" spreadMethod="pad">
      <stop offset="0.0" stop-color="#ffffff"/>
      <stop offset="1.0" stop-color="#cfcfcf"/>
    </radialGradient>
    <radialGradient cx="0" cy="0" gradientTransform="matrix(0.1088, 0.0, 0.0, 0.1088, -2.6, 32.0)" gradientUnits="userSpaceOnUse" id="gradient3" r="819.2" spreadMethod="pad">
      <stop offset="0.0" stop-color="#b2b2b2"/>
      <stop offset="1.0" stop-color="#474747"/>
    </radialGradient>
  </defs>
</svg>
