<?xml version="1.0" encoding="UTF-8" standalone="no"?>
<svg xmlns:ffdec="https://www.free-decompiler.com/flash" xmlns:xlink="http://www.w3.org/1999/xlink" ffdec:objectType="shape" height="164.9px" width="171.35px" xmlns="http://www.w3.org/2000/svg">
  <g transform="matrix(1.0, 0.0, 0.0, 1.0, 84.65, 128.4)">
    <path d="M-65.55 -99.2 L-65.9 -108.05 -59.85 -116.0 Q-43.45 -126.7 -14.6 -128.4 15.3 -128.8 41.3 -120.05 65.85 -109.9 66.45 -95.75 62.5 -76.25 13.05 -73.05 -19.65 -72.75 -46.8 -83.65 -61.4 -90.25 -65.55 -99.2" fill="url(#gradient0)" fill-rule="evenodd" stroke="none"/>
    <path d="M-65.55 -99.2 Q-61.4 -90.25 -46.8 -83.65 -19.65 -72.75 13.05 -73.05 62.5 -76.25 66.45 -95.75 L59.85 -39.8 Q55.5 8.55 50.9 13.25 L42.05 20.25 Q16.3 32.3 -16.35 24.15 L-22.0 22.6 -22.1 22.6 -22.6 22.5 -23.05 22.35 -23.15 22.35 -37.8 16.25 -47.3 9.85 -48.5 8.9 -48.65 8.25 -54.0 1.1 -54.2 0.3 -54.2 -0.1 -54.3 -0.9 -54.3 -1.4 -54.45 -2.05 -54.45 -2.75 -54.55 -3.1 -56.05 -16.05 -56.05 -16.2 -59.05 -42.05 -65.55 -99.2" fill="url(#gradient1)" fill-rule="evenodd" stroke="none"/>
    <path d="M59.85 -39.8 L70.15 -33.65 82.55 -19.65 86.7 -4.15 82.2 11.8 68.6 24.2 48.4 30.25 21.85 30.7 -6.95 26.7 -16.35 24.15 Q16.3 32.3 42.05 20.25 L50.9 13.25 Q55.5 8.55 59.85 -39.8 M-84.1 -13.55 L-84.65 -24.4 -77.25 -32.85 -65.1 -39.55 -59.05 -42.05 -56.05 -16.2 -56.05 -16.05 -54.55 -3.1 -54.45 -2.75 -54.45 -2.05 -54.3 -1.4 -54.3 -0.9 -54.2 -0.1 -54.2 0.3 -54.0 1.1 -48.65 8.25 -48.5 8.9 -47.3 9.85 -37.8 16.25 -23.15 22.35 -34.9 19.35 -58.25 9.15 -75.15 -1.95 -83.05 -12.6 -84.1 -13.55" fill="url(#gradient2)" fill-rule="evenodd" stroke="none"/>
    <path d="M82.2 11.8 Q83.25 15.5 68.2 27.1 L45.85 34.75 21.5 36.5 -5.7 34.5 Q-64.75 27.8 -84.1 -13.55 L-83.05 -12.6 -75.15 -1.95 -58.25 9.15 -34.9 19.35 -23.15 22.35 -23.05 22.35 -22.6 22.5 -22.1 22.6 -22.0 22.6 -16.35 24.15 -6.95 26.7 21.85 30.7 48.4 30.25 68.6 24.2 82.2 11.8" fill="url(#gradient3)" fill-rule="evenodd" stroke="none"/>
  </g>
  <defs>
    <radialGradient cx="0" cy="0" gradientTransform="matrix(0.082, 0.0, 0.0, 0.082, -0.45, -102.2)" gradientUnits="userSpaceOnUse" id="gradient0" r="819.2" spreadMethod="pad">
      <stop offset="0.0" stop-color="#ffffff"/>
      <stop offset="1.0" stop-color="#ffffff"/>
    </radialGradient>
    <radialGradient cx="0" cy="0" gradientTransform="matrix(0.1278, 0.0, 0.0, 0.1278, 15.0, -73.1)" gradientUnits="userSpaceOnUse" id="gradient1" r="819.2" spreadMethod="pad">
      <stop offset="0.0" stop-color="#d2d2d2"/>
      <stop offset="1.0" stop-color="#888888"/>
    </radialGradient>
    <radialGradient cx="0" cy="0" gradientTransform="matrix(0.1671, 0.0, 0.0, 0.1671, -42.6, -43.6)" gradientUnits="userSpaceOnUse" id="gradient2" r="819.2" spreadMethod="pad">
      <stop offset="0.0" stop-color="#ffffff"/>
      <stop offset="1.0" stop-color="#d5d5d5"/>
    </radialGradient>
    <radialGradient cx="0" cy="0" gradientTransform="matrix(0.1404, 0.0, 0.0, 0.1404, 19.2, 36.45)" gradientUnits="userSpaceOnUse" id="gradient3" r="819.2" spreadMethod="pad">
      <stop offset="0.0" stop-color="#bdbdbd"/>
      <stop offset="1.0" stop-color="#4a4a4a"/>
    </radialGradient>
  </defs>
</svg>
