<?xml version="1.0" encoding="UTF-8" standalone="no"?>
<svg xmlns:ffdec="https://www.free-decompiler.com/flash" xmlns:xlink="http://www.w3.org/1999/xlink" ffdec:objectType="shape" height="159.45px" width="182.8px" xmlns="http://www.w3.org/2000/svg">
  <g transform="matrix(1.0, 0.0, 0.0, 1.0, 91.25, 127.2)">
    <path d="M69.55 -100.15 L67.15 -91.7 66.75 -91.7 64.35 -89.45 Q55.75 -80.25 23.05 -75.35 -12.75 -72.8 -42.95 -81.4 L-58.5 -88.25 -67.5 -95.95 -69.6 -102.65 -69.85 -103.45 -69.85 -104.4 -65.8 -112.05 Q-60.6 -115.35 -55.5 -118.75 -32.85 -127.6 -0.6 -127.2 60.15 -123.1 69.55 -100.15" fill="url(#gradient0)" fill-rule="evenodd" stroke="none"/>
    <path d="M-69.6 -102.65 L-67.5 -95.95 -58.5 -88.25 -42.95 -81.4 Q-12.75 -72.8 23.05 -75.35 55.75 -80.25 64.35 -89.45 L66.75 -91.7 67.15 -91.7 69.55 -100.15 62.15 -39.8 Q57.05 3.4 55.0 9.15 L47.1 16.55 Q34.05 23.45 25.8 23.65 L24.9 23.65 0.9 23.15 -27.65 19.15 -40.0 16.15 Q-48.45 13.9 -55.5 5.1 -58.45 -6.95 -58.25 -8.4 L-59.75 -20.45 -59.75 -20.8 -62.2 -41.1 -62.35 -41.1 -69.6 -102.65" fill="url(#gradient1)" fill-rule="evenodd" stroke="none"/>
    <path d="M-62.35 -41.1 L-62.2 -41.1 -59.75 -20.8 -59.75 -20.45 -58.25 -8.4 Q-58.45 -6.95 -55.5 5.1 -48.45 13.9 -40.0 16.15 L-55.75 12.45 -75.85 3.85 -88.25 -5.65 -91.25 -15.15 -85.7 -25.3 -72.5 -36.1 -62.35 -41.1 M25.8 23.65 Q34.05 23.45 47.1 16.55 L55.0 9.15 Q57.05 3.4 62.15 -39.8 L70.4 -35.85 85.1 -22.4 91.55 -7.75 89.35 5.95 Q74.65 23.4 25.8 23.65" fill="url(#gradient2)" fill-rule="evenodd" stroke="none"/>
    <path d="M-40.0 16.15 L-27.65 19.15 0.9 23.15 24.9 23.65 25.8 23.65 Q74.65 23.4 89.35 5.95 81.65 22.1 54.85 27.6 14.75 35.75 -25.15 29.65 L-50.5 22.5 -71.7 12.45 Q-89.65 -1.15 -88.25 -5.65 L-75.85 3.85 -55.75 12.45 -40.0 16.15" fill="url(#gradient3)" fill-rule="evenodd" stroke="none"/>
  </g>
  <defs>
    <radialGradient cx="0" cy="0" gradientTransform="matrix(0.0854, 0.0, 0.0, 0.0854, -0.45, -102.3)" gradientUnits="userSpaceOnUse" id="gradient0" r="819.2" spreadMethod="pad">
      <stop offset="0.0" stop-color="#ffffff"/>
      <stop offset="1.0" stop-color="#ffffff"/>
    </radialGradient>
    <radialGradient cx="0" cy="0" gradientTransform="matrix(0.1252, 0.0, 0.0, 0.1252, -0.1, -74.65)" gradientUnits="userSpaceOnUse" id="gradient1" r="819.2" spreadMethod="pad">
      <stop offset="0.0" stop-color="#d3d3d3"/>
      <stop offset="1.0" stop-color="#9d9d9d"/>
    </radialGradient>
    <radialGradient cx="0" cy="0" gradientTransform="matrix(0.1817, 0.0, 0.0, 0.1817, -51.95, -41.25)" gradientUnits="userSpaceOnUse" id="gradient2" r="819.2" spreadMethod="pad">
      <stop offset="0.0" stop-color="#ffffff"/>
      <stop offset="1.0" stop-color="#b2b2b2"/>
    </radialGradient>
    <radialGradient cx="0" cy="0" gradientTransform="matrix(0.1223, 0.0, 0.0, 0.1223, 1.35, 23.15)" gradientUnits="userSpaceOnUse" id="gradient3" r="819.2" spreadMethod="pad">
      <stop offset="0.0" stop-color="#bdbdbd"/>
      <stop offset="1.0" stop-color="#747474"/>
    </radialGradient>
  </defs>
</svg>
