<?xml version="1.0" encoding="UTF-8" standalone="no"?>
<svg xmlns:ffdec="https://www.free-decompiler.com/flash" xmlns:xlink="http://www.w3.org/1999/xlink" ffdec:objectType="shape" height="159.45px" width="183.3px" xmlns="http://www.w3.org/2000/svg">
  <g transform="matrix(1.0, 0.0, 0.0, 1.0, 92.0, 127.1)">
    <path d="M-70.15 -100.95 L-70.3 -101.05 -70.4 -102.0 -67.9 -109.5 -58.25 -117.05 Q-38.85 -126.25 -4.4 -127.1 29.25 -126.1 51.05 -117.6 73.2 -106.7 68.85 -94.35 56.85 -76.25 5.2 -74.65 -30.3 -75.4 -55.25 -85.9 L-66.35 -93.55 -70.15 -100.95" fill="url(#gradient0)" fill-rule="evenodd" stroke="none"/>
    <path d="M-70.15 -100.95 L-66.35 -93.55 -55.25 -85.9 Q-30.3 -75.4 5.2 -74.65 56.85 -76.25 68.85 -94.35 L62.15 -40.35 56.35 6.75 49.85 14.3 Q36.8 22.05 29.95 22.35 L29.65 22.35 29.4 22.35 7.85 22.85 -21.8 20.1 -39.65 16.7 -45.45 14.4 -47.05 12.85 -54.3 7.55 Q-60.15 -6.85 -59.45 -13.05 L-63.0 -41.1 -70.15 -100.95" fill="url(#gradient1)" fill-rule="evenodd" stroke="none"/>
    <path d="M62.15 -40.35 Q83.0 -30.4 91.3 -11.55 L91.15 2.0 81.65 12.3 63.7 18.65 38.5 22.25 29.95 22.35 Q36.8 22.05 49.85 14.3 L56.35 6.75 62.15 -40.35 M-91.8 -10.4 L-91.95 -10.5 Q-92.75 -20.8 -77.15 -32.95 L-63.0 -41.1 -59.45 -13.05 Q-60.15 -6.85 -54.3 7.55 L-47.05 12.85 -45.45 14.4 -39.65 16.7 Q-67.9 11.3 -86.65 -1.7 L-91.8 -10.4" fill="url(#gradient2)" fill-rule="evenodd" stroke="none"/>
    <path d="M91.15 2.0 Q91.7 4.55 80.9 15.9 50.5 31.1 7.5 32.35 -31.65 32.0 -67.1 16.0 -90.45 3.5 -91.8 -10.4 L-86.65 -1.7 Q-67.9 11.3 -39.65 16.7 L-21.8 20.1 7.85 22.85 29.4 22.35 29.65 22.35 29.95 22.35 38.5 22.25 63.7 18.65 81.65 12.3 91.15 2.0" fill="url(#gradient3)" fill-rule="evenodd" stroke="none"/>
  </g>
  <defs>
    <radialGradient cx="0" cy="0" gradientTransform="matrix(0.0853, 0.0, 0.0, 0.0853, -0.45, -102.25)" gradientUnits="userSpaceOnUse" id="gradient0" r="819.2" spreadMethod="pad">
      <stop offset="0.0" stop-color="#ffffff"/>
      <stop offset="1.0" stop-color="#ffffff"/>
    </radialGradient>
    <radialGradient cx="0" cy="0" gradientTransform="matrix(0.1258, 0.0, 0.0, 0.1258, 5.7, -74.75)" gradientUnits="userSpaceOnUse" id="gradient1" r="819.2" spreadMethod="pad">
      <stop offset="0.0" stop-color="#d4d4d4"/>
      <stop offset="1.0" stop-color="#959595"/>
    </radialGradient>
    <radialGradient cx="0" cy="0" gradientTransform="matrix(0.1882, 0.0, 0.0, 0.1882, -57.55, -39.0)" gradientUnits="userSpaceOnUse" id="gradient2" r="819.2" spreadMethod="pad">
      <stop offset="0.0" stop-color="#ffffff"/>
      <stop offset="1.0" stop-color="#acacac"/>
    </radialGradient>
    <radialGradient cx="0" cy="0" gradientTransform="matrix(0.1301, 0.0, 0.0, 0.1301, 8.8, 22.85)" gradientUnits="userSpaceOnUse" id="gradient3" r="819.2" spreadMethod="pad">
      <stop offset="0.0" stop-color="#bebebe"/>
      <stop offset="1.0" stop-color="#686868"/>
    </radialGradient>
  </defs>
</svg>
