<?xml version="1.0" encoding="UTF-8" standalone="no"?>
<svg xmlns:ffdec="https://www.free-decompiler.com/flash" xmlns:xlink="http://www.w3.org/1999/xlink" ffdec:objectType="shape" height="158.7px" width="184.8px" xmlns="http://www.w3.org/2000/svg">
  <g transform="matrix(1.0, 0.0, 0.0, 1.0, 92.45, 126.85)">
    <path d="M69.8 -96.85 Q63.3 -78.75 9.2 -75.05 L-12.6 -75.45 -34.2 -78.6 -52.35 -84.15 Q-67.65 -91.0 -70.3 -98.65 L-70.4 -98.95 -69.35 -107.3 -61.55 -114.8 Q-42.85 -124.85 -11.5 -126.8 21.95 -127.4 47.1 -119.4 70.9 -110.25 69.8 -96.85" fill="url(#gradient0)" fill-rule="evenodd" stroke="none"/>
    <path d="M-70.3 -98.65 Q-67.65 -91.0 -52.35 -84.15 L-34.2 -78.6 -12.6 -75.45 9.2 -75.05 Q63.3 -78.75 69.8 -96.85 L62.75 -40.6 57.1 4.3 52.2 11.95 Q41.3 20.3 32.85 21.2 L15.4 22.35 -12.75 21.0 -38.7 17.6 Q-57.35 10.45 -58.0 0.6 L-59.75 -12.75 -59.75 -13.3 -59.85 -13.85 -63.25 -41.4 -63.4 -41.4 -70.3 -98.65" fill="url(#gradient1)" fill-rule="evenodd" stroke="none"/>
    <path d="M-63.4 -41.4 L-63.25 -41.4 -59.85 -13.85 -59.75 -13.3 -59.75 -12.75 -58.0 0.6 Q-57.35 10.45 -38.7 17.6 L-43.75 16.95 -67.9 10.2 -84.55 2.0 -92.2 -6.95 -92.45 -7.25 -90.9 -17.9 -80.95 -29.95 -63.4 -41.4 M32.85 21.2 Q41.3 20.3 52.2 11.95 L57.1 4.3 62.75 -40.6 79.95 -29.25 90.2 -15.5 92.35 -2.05 84.7 8.75 69.25 15.5 45.6 20.25 32.85 21.2" fill="url(#gradient2)" fill-rule="evenodd" stroke="none"/>
    <path d="M-38.7 17.6 L-12.75 21.0 15.4 22.35 32.85 21.2 45.6 20.25 69.25 15.5 84.7 8.75 92.35 -2.05 91.0 1.5 84.15 12.05 65.3 22.1 40.2 28.7 14.6 31.85 -5.45 31.5 Q-78.85 25.0 -92.2 -6.95 L-84.55 2.0 -67.9 10.2 -43.75 16.95 -38.7 17.6" fill="url(#gradient3)" fill-rule="evenodd" stroke="none"/>
  </g>
  <defs>
    <radialGradient cx="0" cy="0" gradientTransform="matrix(0.086, 0.0, 0.0, 0.086, -0.45, -102.25)" gradientUnits="userSpaceOnUse" id="gradient0" r="819.2" spreadMethod="pad">
      <stop offset="0.0" stop-color="#ffffff"/>
      <stop offset="1.0" stop-color="#ffffff"/>
    </radialGradient>
    <radialGradient cx="0" cy="0" gradientTransform="matrix(0.1299, 0.0, 0.0, 0.1299, 11.4, -75.15)" gradientUnits="userSpaceOnUse" id="gradient1" r="819.2" spreadMethod="pad">
      <stop offset="0.0" stop-color="#d3d3d3"/>
      <stop offset="1.0" stop-color="#929292"/>
    </radialGradient>
    <radialGradient cx="0" cy="0" gradientTransform="matrix(0.1702, 0.0, 0.0, 0.1702, -40.55, -44.5)" gradientUnits="userSpaceOnUse" id="gradient2" r="819.2" spreadMethod="pad">
      <stop offset="0.0" stop-color="#ffffff"/>
      <stop offset="1.0" stop-color="#aaaaaa"/>
    </radialGradient>
    <radialGradient cx="0" cy="0" gradientTransform="matrix(0.1372, 0.0, 0.0, 0.1372, 16.1, 22.25)" gradientUnits="userSpaceOnUse" id="gradient3" r="819.2" spreadMethod="pad">
      <stop offset="0.0" stop-color="#bebebe"/>
      <stop offset="1.0" stop-color="#444444"/>
    </radialGradient>
  </defs>
</svg>
