<?xml version="1.0" encoding="UTF-8" standalone="no"?>
<svg xmlns:ffdec="https://www.free-decompiler.com/flash" xmlns:xlink="http://www.w3.org/1999/xlink" ffdec:objectType="shape" height="158.3px" width="185.2px" xmlns="http://www.w3.org/2000/svg">
  <g transform="matrix(1.0, 0.0, 0.0, 1.0, 92.45, 126.7)">
    <path d="M-69.75 -96.3 L-70.55 -104.75 -64.6 -112.3 Q-58.5 -115.55 -52.45 -118.9 -27.9 -127.3 5.1 -126.65 34.8 -125.55 58.8 -114.5 70.15 -108.45 70.3 -99.45 66.2 -81.15 17.25 -75.6 L-6.65 -75.05 -29.9 -77.55 -48.4 -82.2 Q-65.1 -88.1 -69.75 -96.3" fill="url(#gradient0)" fill-rule="evenodd" stroke="none"/>
    <path d="M-69.75 -96.3 Q-65.1 -88.1 -48.4 -82.2 L-29.9 -77.55 -6.65 -75.05 17.25 -75.6 Q66.2 -81.15 70.3 -99.45 L62.95 -40.25 57.65 1.75 55.1 7.3 Q55.1 9.3 45.25 16.25 L35.05 19.95 Q1.0 23.35 -37.55 18.65 L-37.9 18.55 -38.1 18.55 -50.85 12.2 Q-59.55 4.9 -58.25 -3.1 L-61.05 -25.3 -61.05 -25.7 -63.0 -41.0 -69.75 -96.3" fill="url(#gradient1)" fill-rule="evenodd" stroke="none"/>
    <path d="M62.95 -40.25 L76.15 -32.85 88.65 -19.2 92.75 -6.0 87.6 4.8 73.35 12.45 51.3 18.1 35.05 19.95 45.25 16.25 Q55.1 9.3 55.1 7.3 L57.65 1.75 62.95 -40.25 M-91.65 -3.0 L-91.95 -3.25 -92.45 -14.1 -84.4 -26.5 -69.35 -38.2 -63.0 -41.0 -61.05 -25.7 -61.05 -25.3 -58.25 -3.1 Q-59.55 4.9 -50.85 12.2 L-38.1 18.55 -63.55 13.0 -81.65 5.7 -91.65 -3.0" fill="url(#gradient2)" fill-rule="evenodd" stroke="none"/>
    <path d="M92.75 -6.0 L86.4 8.6 69.0 19.35 50.6 25.4 44.3 27.0 20.25 31.05 -7.85 31.6 -32.8 28.7 -60.0 21.2 -77.95 12.2 Q-92.85 0.7 -91.65 -3.0 L-81.65 5.7 -63.55 13.0 -38.1 18.55 -37.9 18.55 -37.55 18.65 Q1.0 23.35 35.05 19.95 L51.3 18.1 73.35 12.45 87.6 4.8 92.75 -6.0" fill="url(#gradient3)" fill-rule="evenodd" stroke="none"/>
  </g>
  <defs>
    <radialGradient cx="0" cy="0" gradientTransform="matrix(0.0863, 0.0, 0.0, 0.0863, -0.45, -102.25)" gradientUnits="userSpaceOnUse" id="gradient0" r="819.2" spreadMethod="pad">
      <stop offset="0.0" stop-color="#ffffff"/>
      <stop offset="1.0" stop-color="#ffffff"/>
    </radialGradient>
    <radialGradient cx="0" cy="0" gradientTransform="matrix(0.1279, 0.0, 0.0, 0.1279, -6.15, -75.2)" gradientUnits="userSpaceOnUse" id="gradient1" r="819.2" spreadMethod="pad">
      <stop offset="0.0" stop-color="#d3d3d3"/>
      <stop offset="1.0" stop-color="#949494"/>
    </radialGradient>
    <radialGradient cx="0" cy="0" gradientTransform="matrix(0.1755, 0.0, 0.0, 0.1755, -46.3, -42.75)" gradientUnits="userSpaceOnUse" id="gradient2" r="819.2" spreadMethod="pad">
      <stop offset="0.0" stop-color="#ffffff"/>
      <stop offset="1.0" stop-color="#cbcbcb"/>
    </radialGradient>
    <radialGradient cx="0" cy="0" gradientTransform="matrix(0.2235, 0.0, 0.0, 0.2235, 91.3, -2.55)" gradientUnits="userSpaceOnUse" id="gradient3" r="819.2" spreadMethod="pad">
      <stop offset="0.0" stop-color="#c0c0c0"/>
      <stop offset="1.0" stop-color="#515151"/>
    </radialGradient>
  </defs>
</svg>
