<?xml version="1.0" encoding="UTF-8" standalone="no"?>
<svg xmlns:ffdec="https://www.free-decompiler.com/flash" xmlns:xlink="http://www.w3.org/1999/xlink" ffdec:objectType="shape" height="158.25px" width="185.85px" xmlns="http://www.w3.org/2000/svg">
  <g transform="matrix(1.0, 0.0, 0.0, 1.0, 93.35, 126.5)">
    <path d="M70.15 -102.1 L67.8 -93.9 67.0 -93.4 Q55.25 -83.45 42.85 -80.35 12.75 -72.9 -23.8 -76.4 -54.3 -80.7 -68.7 -93.9 L-70.65 -100.15 -70.8 -100.5 Q-72.0 -102.25 -66.7 -110.05 -49.85 -122.2 -22.5 -125.5 11.4 -128.5 39.55 -122.35 L54.6 -117.15 65.85 -110.05 70.15 -102.1" fill="url(#gradient0)" fill-rule="evenodd" stroke="none"/>
    <path d="M-70.65 -100.15 L-68.7 -93.9 Q-54.3 -80.7 -23.8 -76.4 12.75 -72.9 42.85 -80.35 55.25 -83.45 67.0 -93.4 L67.8 -93.9 70.15 -102.1 62.5 -40.5 Q57.85 -1.0 55.55 7.05 L47.6 14.4 36.8 19.05 Q12.35 22.7 -30.95 20.25 L-37.55 19.05 -48.4 14.4 -56.4 7.05 -58.8 -3.0 -58.8 -3.55 -63.4 -40.5 -70.65 -100.15" fill="url(#gradient1)" fill-rule="evenodd" stroke="none"/>
    <path d="M-63.4 -40.5 L-58.8 -3.55 -58.8 -3.0 -56.4 7.05 -48.4 14.4 -37.55 19.05 -58.25 15.65 -78.6 9.05 -87.55 2.55 -90.6 0.85 Q-92.25 -4.35 -93.35 -9.7 L-87.45 -22.55 -73.7 -35.3 -63.4 -40.5 M36.8 19.05 L47.6 14.4 55.55 7.05 Q57.85 -1.0 62.5 -40.5 L72.55 -35.6 86.25 -22.9 92.5 -10.25 89.7 0.7 77.45 9.15 57.2 15.65 36.8 19.05" fill="url(#gradient2)" fill-rule="evenodd" stroke="none"/>
    <path d="M-37.55 19.05 L-30.95 20.25 Q12.35 22.7 36.8 19.05 L57.2 15.65 77.45 9.15 89.7 0.7 Q90.75 5.1 73.6 15.75 45.8 29.15 1.5 31.75 -40.95 30.9 -74.0 16.0 -91.65 5.2 -90.6 0.85 L-87.55 2.55 -78.6 9.05 -58.25 15.65 -37.55 19.05" fill="url(#gradient3)" fill-rule="evenodd" stroke="none"/>
  </g>
  <defs>
    <radialGradient cx="0" cy="0" gradientTransform="matrix(0.0862, 0.0, 0.0, 0.0862, -0.45, -102.2)" gradientUnits="userSpaceOnUse" id="gradient0" r="819.2" spreadMethod="pad">
      <stop offset="0.0" stop-color="#ffffff"/>
      <stop offset="1.0" stop-color="#ffffff"/>
    </radialGradient>
    <radialGradient cx="0" cy="0" gradientTransform="matrix(0.124, 0.0, 0.0, 0.124, -0.45, -75.0)" gradientUnits="userSpaceOnUse" id="gradient1" r="819.2" spreadMethod="pad">
      <stop offset="0.0" stop-color="#d4d4d4"/>
      <stop offset="1.0" stop-color="#a0a0a0"/>
    </radialGradient>
    <radialGradient cx="0" cy="0" gradientTransform="matrix(0.18, 0.0, 0.0, 0.18, -51.8, -40.75)" gradientUnits="userSpaceOnUse" id="gradient2" r="819.2" spreadMethod="pad">
      <stop offset="0.0" stop-color="#ffffff"/>
      <stop offset="1.0" stop-color="#d1d1d1"/>
    </radialGradient>
    <radialGradient cx="0" cy="0" gradientTransform="matrix(0.1129, 0.0, 0.0, 0.1129, -0.5, 21.4)" gradientUnits="userSpaceOnUse" id="gradient3" r="819.2" spreadMethod="pad">
      <stop offset="0.0" stop-color="#c0c0c0"/>
      <stop offset="1.0" stop-color="#4f4f4f"/>
    </radialGradient>
  </defs>
</svg>
