<?xml version="1.0" encoding="UTF-8" standalone="no"?>
<svg xmlns:ffdec="https://www.free-decompiler.com/flash" xmlns:xlink="http://www.w3.org/1999/xlink" ffdec:objectType="shape" height="174.8px" width="166.45px" xmlns="http://www.w3.org/2000/svg">
  <g transform="matrix(1.0, 0.0, 0.0, 1.0, 83.2, 129.75)">
    <path d="M-65.25 -98.05 L-65.25 -98.15 -65.4 -98.4 Q-66.45 -100.0 -62.45 -110.2 L-53.5 -118.75 Q-33.1 -130.25 -2.2 -129.7 36.65 -125.05 49.55 -114.8 64.35 -102.9 65.3 -95.0 L64.0 -83.9 Q51.05 -61.1 2.2 -61.45 L-19.05 -64.25 -37.8 -70.15 -53.75 -79.55 -62.65 -89.05 -65.25 -98.05" fill="url(#gradient0)" fill-rule="evenodd" stroke="none"/>
    <path d="M-65.25 -98.05 L-62.65 -89.05 -53.75 -79.55 -37.8 -70.15 -19.05 -64.25 2.2 -61.45 Q51.05 -61.1 64.0 -83.9 L58.8 -43.4 51.95 11.5 Q48.25 20.9 34.0 27.5 8.0 35.7 -15.4 29.45 -52.45 16.7 -53.75 -3.65 L-59.05 -46.4 -65.25 -98.05" fill="url(#gradient1)" fill-rule="evenodd" stroke="none"/>
    <path d="M58.8 -43.4 Q77.4 -31.2 83.25 -11.45 L82.75 7.2 Q66.35 49.45 7.75 39.9 -58.65 27.25 -79.1 -6.3 L-83.2 -20.45 -79.25 -32.85 -68.45 -42.05 -59.05 -46.4 -53.75 -3.65 Q-52.45 16.7 -15.4 29.45 8.0 35.7 34.0 27.5 48.25 20.9 51.95 11.5 L58.8 -43.4" fill="url(#gradient2)" fill-rule="evenodd" stroke="none"/>
    <path d="M82.75 7.2 L81.4 11.25 72.55 27.1 55.4 39.25 31.35 45.05 6.25 44.7 -20.9 39.5 -44.4 30.15 -62.65 17.85 Q-80.7 -1.8 -79.1 -6.3 -58.65 27.25 7.75 39.9 66.35 49.45 82.75 7.2" fill="url(#gradient3)" fill-rule="evenodd" stroke="none"/>
  </g>
  <defs>
    <radialGradient cx="0" cy="0" gradientTransform="matrix(0.0803, 0.0, 0.0, 0.0803, -0.45, -97.45)" gradientUnits="userSpaceOnUse" id="gradient0" r="819.2" spreadMethod="pad">
      <stop offset="0.0" stop-color="#ffffff"/>
      <stop offset="1.0" stop-color="#ffffff"/>
    </radialGradient>
    <radialGradient cx="0" cy="0" gradientTransform="matrix(0.1153, 0.0, 0.0, 0.1153, 2.65, -61.55)" gradientUnits="userSpaceOnUse" id="gradient1" r="819.2" spreadMethod="pad">
      <stop offset="0.0" stop-color="#d2d2d2"/>
      <stop offset="1.0" stop-color="#a7a7a7"/>
    </radialGradient>
    <radialGradient cx="0" cy="0" gradientTransform="matrix(0.1907, 0.0, 0.0, 0.1907, -66.9, -38.25)" gradientUnits="userSpaceOnUse" id="gradient2" r="819.2" spreadMethod="pad">
      <stop offset="0.0" stop-color="#ffffff"/>
      <stop offset="1.0" stop-color="#acacac"/>
    </radialGradient>
    <radialGradient cx="0" cy="0" gradientTransform="matrix(0.1311, 0.0, 0.0, 0.1311, 5.7, 39.65)" gradientUnits="userSpaceOnUse" id="gradient3" r="819.2" spreadMethod="pad">
      <stop offset="0.0" stop-color="#b5b5b5"/>
      <stop offset="1.0" stop-color="#686868"/>
    </radialGradient>
  </defs>
</svg>
