<?xml version="1.0" encoding="UTF-8" standalone="no"?>
<svg xmlns:ffdec="https://www.free-decompiler.com/flash" xmlns:xlink="http://www.w3.org/1999/xlink" ffdec:objectType="shape" height="170.75px" width="174.65px" xmlns="http://www.w3.org/2000/svg">
  <g transform="matrix(1.0, 0.0, 0.0, 1.0, 86.9, 128.85)">
    <path d="M-67.1 -97.6 L-67.1 -98.05 -67.2 -98.3 -67.4 -99.1 Q-69.35 -101.2 -63.55 -111.25 L-53.15 -119.55 Q-26.3 -130.6 0.45 -128.5 64.75 -119.15 67.8 -92.6 L67.7 -92.35 67.7 -92.05 65.3 -82.55 56.15 -73.75 40.6 -66.9 Q11.2 -59.55 -23.15 -66.2 -52.9 -74.0 -65.65 -91.2 L-67.1 -97.6" fill="url(#gradient0)" fill-rule="evenodd" stroke="none"/>
    <path d="M-67.1 -97.6 L-65.65 -91.2 Q-52.9 -74.0 -23.15 -66.2 11.2 -59.55 40.6 -66.9 L56.15 -73.75 65.3 -82.55 67.7 -92.05 61.1 -41.8 55.0 3.85 52.9 13.0 45.35 21.2 32.65 27.5 Q17.8 32.55 -0.95 30.7 L-20.4 26.55 Q-55.1 15.35 -55.5 -6.0 L-55.6 -6.15 -55.6 -6.8 -57.45 -21.05 -57.6 -21.75 -60.6 -45.6 -67.1 -97.6" fill="url(#gradient1)" fill-rule="evenodd" stroke="none"/>
    <path d="M61.1 -41.8 L67.4 -38.1 81.4 -23.15 87.75 -6.0 85.35 11.8 78.35 20.25 74.1 26.05 54.85 34.5 29.65 36.85 2.45 34.5 Q-65.1 21.55 -83.75 -8.0 L-84.0 -8.3 -86.9 -20.7 -81.5 -31.6 -69.25 -41.4 -60.6 -45.6 -57.6 -21.75 -57.45 -21.05 -55.6 -6.8 -55.6 -6.15 -55.5 -6.0 Q-55.1 15.35 -20.4 26.55 L-0.95 30.7 Q17.8 32.55 32.65 27.5 L45.35 21.2 52.9 13.0 55.0 3.85 61.1 -41.8" fill="url(#gradient2)" fill-rule="evenodd" stroke="none"/>
    <path d="M85.35 11.8 Q85.75 14.7 72.95 29.1 L54.5 37.8 28.1 41.9 0.9 41.0 -26.2 35.55 -50.05 26.3 -68.0 14.15 Q-84.8 -4.05 -83.75 -8.0 -65.1 21.55 2.45 34.5 L29.65 36.85 54.85 34.5 74.1 26.05 78.35 20.25 85.35 11.8" fill="url(#gradient3)" fill-rule="evenodd" stroke="none"/>
  </g>
  <defs>
    <radialGradient cx="0" cy="0" gradientTransform="matrix(0.0834, 0.0, 0.0, 0.0834, -0.45, -97.45)" gradientUnits="userSpaceOnUse" id="gradient0" r="819.2" spreadMethod="pad">
      <stop offset="0.0" stop-color="#ffffff"/>
      <stop offset="1.0" stop-color="#ffffff"/>
    </radialGradient>
    <radialGradient cx="0" cy="0" gradientTransform="matrix(0.1177, 0.0, 0.0, 0.1177, -0.95, -63.05)" gradientUnits="userSpaceOnUse" id="gradient1" r="819.2" spreadMethod="pad">
      <stop offset="0.0" stop-color="#d1d1d1"/>
      <stop offset="1.0" stop-color="#989898"/>
    </radialGradient>
    <radialGradient cx="0" cy="0" gradientTransform="matrix(0.1793, 0.0, 0.0, 0.1793, -49.2, -46.65)" gradientUnits="userSpaceOnUse" id="gradient2" r="819.2" spreadMethod="pad">
      <stop offset="0.0" stop-color="#ffffff"/>
      <stop offset="1.0" stop-color="#dadada"/>
    </radialGradient>
    <radialGradient cx="0" cy="0" gradientTransform="matrix(0.1161, 0.0, 0.0, 0.1161, 1.05, 34.25)" gradientUnits="userSpaceOnUse" id="gradient3" r="819.2" spreadMethod="pad">
      <stop offset="0.0" stop-color="#b8b8b8"/>
      <stop offset="1.0" stop-color="#555555"/>
    </radialGradient>
  </defs>
</svg>
