<?xml version="1.0" encoding="UTF-8" standalone="no"?>
<svg xmlns:ffdec="https://www.free-decompiler.com/flash" xmlns:xlink="http://www.w3.org/1999/xlink" ffdec:objectType="shape" height="165.55px" width="183.45px" xmlns="http://www.w3.org/2000/svg">
  <g transform="matrix(1.0, 0.0, 0.0, 1.0, 92.3, 127.45)">
    <path d="M-70.65 -95.75 L-70.8 -95.95 -70.9 -97.1 -68.45 -106.5 -59.45 -114.95 -45.05 -121.65 -27.0 -125.85 -5.7 -127.45 15.15 -126.3 34.8 -122.35 51.15 -116.1 63.3 -107.9 70.05 -98.05 69.35 -88.0 61.85 -78.85 47.7 -71.2 Q20.9 -63.45 0.75 -64.6 -28.85 -65.2 -56.05 -78.1 L-66.7 -86.8 -70.65 -95.75" fill="url(#gradient0)" fill-rule="evenodd" stroke="none"/>
    <path d="M-70.65 -95.75 L-66.7 -86.8 -56.05 -78.1 Q-28.85 -65.2 0.75 -64.6 20.9 -63.45 47.7 -71.2 L61.85 -78.85 69.35 -88.0 63.2 -42.7 56.35 8.0 Q52.35 17.35 38.2 23.55 4.7 34.4 -31.5 23.3 L-45.45 16.95 Q-46.75 14.9 -54.3 8.9 -57.65 0.8 -59.85 -14.6 L-63.95 -44.3 -70.65 -95.75" fill="url(#gradient1)" fill-rule="evenodd" stroke="none"/>
    <path d="M63.2 -42.7 Q83.55 -31.55 91.15 -11.3 L91.15 4.4 81.4 16.55 63.8 24.35 38.5 29.1 8.3 30.15 -21.05 27.25 -49.95 20.9 -72.0 11.8 -84.1 2.55 -86.65 1.1 -91.5 -8.8 -91.65 -8.9 -91.8 -9.2 -91.8 -9.35 -91.95 -9.6 -92.3 -10.4 -88.75 -22.9 -77.25 -35.75 -63.95 -44.3 -59.85 -14.6 Q-57.65 0.8 -54.3 8.9 -46.75 14.9 -45.45 16.95 L-31.5 23.3 Q4.7 34.4 38.2 23.55 52.35 17.35 56.35 8.0 L63.2 -42.7" fill="url(#gradient2)" fill-rule="evenodd" stroke="none"/>
    <path d="M91.15 4.4 L89.85 7.55 80.35 20.1 60.15 30.0 36.25 35.95 7.35 38.1 -19.35 35.95 -46.25 29.2 Q-57.15 24.35 -68.0 19.45 L-85.45 5.2 -90.9 -6.55 -91.5 -8.8 -86.65 1.1 -84.1 2.55 -72.0 11.8 -49.95 20.9 -21.05 27.25 8.3 30.15 38.5 29.1 63.8 24.35 81.4 16.55 91.15 4.4" fill="url(#gradient3)" fill-rule="evenodd" stroke="none"/>
  </g>
  <defs>
    <radialGradient cx="0" cy="0" gradientTransform="matrix(0.086, 0.0, 0.0, 0.086, -0.45, -97.45)" gradientUnits="userSpaceOnUse" id="gradient0" r="819.2" spreadMethod="pad">
      <stop offset="0.0" stop-color="#ffffff"/>
      <stop offset="1.0" stop-color="#ffffff"/>
    </radialGradient>
    <radialGradient cx="0" cy="0" gradientTransform="matrix(0.1174, 0.0, 0.0, 0.1174, 5.7, -64.4)" gradientUnits="userSpaceOnUse" id="gradient1" r="819.2" spreadMethod="pad">
      <stop offset="0.0" stop-color="#d4d4d4"/>
      <stop offset="1.0" stop-color="#959595"/>
    </radialGradient>
    <radialGradient cx="0" cy="0" gradientTransform="matrix(0.1907, 0.0, 0.0, 0.1907, -57.75, -43.0)" gradientUnits="userSpaceOnUse" id="gradient2" r="819.2" spreadMethod="pad">
      <stop offset="0.0" stop-color="#ffffff"/>
      <stop offset="1.0" stop-color="#acacac"/>
    </radialGradient>
    <radialGradient cx="0" cy="0" gradientTransform="matrix(0.1329, 0.0, 0.0, 0.1329, 8.75, 30.1)" gradientUnits="userSpaceOnUse" id="gradient3" r="819.2" spreadMethod="pad">
      <stop offset="0.0" stop-color="#bebebe"/>
      <stop offset="1.0" stop-color="#686868"/>
    </radialGradient>
  </defs>
</svg>
