<?xml version="1.0" encoding="UTF-8" standalone="no"?>
<svg xmlns:ffdec="https://www.free-decompiler.com/flash" xmlns:xlink="http://www.w3.org/1999/xlink" ffdec:objectType="shape" height="118.8px" width="180.9px" xmlns="http://www.w3.org/2000/svg">
  <g transform="matrix(1.0, 0.0, 0.0, 1.0, 90.15, 118.5)">
    <path d="M13.4 -1.4 L-19.7 -1.2 -48.2 -1.25 -49.8 -1.4 Q-40.2 -2.75 13.4 -1.4 M58.3 -17.65 L30.8 -20.95 0.1 -22.65 -30.8 -23.35 -59.2 -21.75 -66.35 -111.5 -64.2 -113.45 Q-33.65 -118.95 20.25 -118.45 61.85 -117.85 65.95 -112.55 L58.45 -19.1 58.3 -17.65" fill="url(#gradient0)" fill-rule="evenodd" stroke="none"/>
    <path d="M13.4 -1.4 Q-40.2 -2.75 -49.8 -1.4 L-48.2 -1.25 -19.7 -1.2 -15.65 -1.15 -63.8 0.3 -73.2 -0.65 -80.4 -2.75 Q-94.95 -7.25 -87.8 -16.75 L-76.2 -20.0 -59.2 -21.75 -30.8 -23.35 0.1 -22.65 30.8 -20.95 58.3 -17.65 89.05 -12.1 90.75 -13.3 Q89.85 -4.3 74.0 -0.75 68.45 1.5 18.95 -1.15 L13.4 -1.4" fill="url(#gradient1)" fill-rule="evenodd" stroke="none"/>
    <path d="M90.75 -13.3 L89.05 -12.1 58.3 -17.65 58.45 -19.1 69.65 -18.6 83.6 -16.3 90.75 -13.3" fill="url(#gradient2)" fill-rule="evenodd" stroke="none"/>
    <path d="M-19.7 -1.2 L13.4 -1.4 18.95 -1.15 -15.65 -1.15 -19.7 -1.2" fill="url(#gradient3)" fill-rule="evenodd" stroke="none"/>
  </g>
  <defs>
    <radialGradient cx="0" cy="0" gradientTransform="matrix(0.1595, 0.0, 0.0, 0.1595, -0.1, -118.75)" gradientUnits="userSpaceOnUse" id="gradient0" r="819.2" spreadMethod="pad">
      <stop offset="0.0" stop-color="#d3d3d3"/>
      <stop offset="1.0" stop-color="#666666"/>
    </radialGradient>
    <radialGradient cx="0" cy="0" gradientTransform="matrix(0.2161, 0.0, 0.0, 0.2161, 86.25, -5.8)" gradientUnits="userSpaceOnUse" id="gradient1" r="819.2" spreadMethod="pad">
      <stop offset="0.0" stop-color="#ffffff"/>
      <stop offset="1.0" stop-color="#000000"/>
    </radialGradient>
    <radialGradient cx="0" cy="0" gradientTransform="matrix(0.1942, 0.0, 0.0, 0.1942, 68.45, -13.2)" gradientUnits="userSpaceOnUse" id="gradient2" r="819.2" spreadMethod="pad">
      <stop offset="0.0" stop-color="#ffffff"/>
      <stop offset="1.0" stop-color="#888888"/>
    </radialGradient>
    <radialGradient cx="0" cy="0" gradientTransform="matrix(0.0981, 0.0, 0.0, 0.0981, -45.45, -1.25)" gradientUnits="userSpaceOnUse" id="gradient3" r="819.2" spreadMethod="pad">
      <stop offset="0.0" stop-color="#ffffff"/>
      <stop offset="1.0" stop-color="#000000"/>
    </radialGradient>
  </defs>
</svg>
