<?xml version="1.0" encoding="UTF-8" standalone="no"?>
<svg xmlns:ffdec="https://www.free-decompiler.com/flash" xmlns:xlink="http://www.w3.org/1999/xlink" ffdec:objectType="shape" height="164.15px" width="185.3px" xmlns="http://www.w3.org/2000/svg">
  <g transform="matrix(1.0, 0.0, 0.0, 1.0, 92.55, 126.85)">
    <path d="M-70.3 -90.4 L-71.1 -100.4 -65.1 -109.65 -53.25 -117.4 -36.5 -123.25 Q-6.75 -129.55 25.55 -124.8 53.6 -119.5 68.05 -103.95 L70.85 -94.2 70.85 -94.1 Q67.0 -71.75 15.0 -65.3 -14.15 -62.5 -48.2 -73.05 L-62.65 -81.15 -70.3 -90.4" fill="url(#gradient0)" fill-rule="evenodd" stroke="none"/>
    <path d="M70.85 -94.1 L63.8 -42.7 57.75 1.2 54.05 11.15 44.8 19.15 31.25 24.7 Q18.85 30.7 -23.3 26.05 -43.05 21.3 -50.85 14.15 -60.15 3.6 -58.8 -4.95 L-63.95 -43.9 -70.3 -90.4 -62.65 -81.15 -48.2 -73.05 Q-14.15 -62.5 15.0 -65.3 67.0 -71.75 70.85 -94.1" fill="url(#gradient1)" fill-rule="evenodd" stroke="none"/>
    <path d="M63.8 -42.7 L76.5 -34.8 88.8 -19.75 92.75 -4.85 89.35 4.3 Q76.8 23.85 23.6 28.4 -24.1 30.55 -63.15 18.55 -83.4 10.0 -89.9 1.95 L-91.95 -1.25 -92.55 -13.85 Q-88.25 -28.6 -69.35 -41.4 L-63.95 -43.9 -58.8 -4.95 Q-60.15 3.6 -50.85 14.15 -43.05 21.3 -23.3 26.05 18.85 30.7 31.25 24.7 L44.8 19.15 54.05 11.15 57.75 1.2 63.8 -42.7" fill="url(#gradient2)" fill-rule="evenodd" stroke="none"/>
    <path d="M89.35 4.3 L88.55 6.25 Q88.1 12.15 68.45 23.65 38.35 37.4 -6.65 37.3 -68.6 32.85 -89.9 1.95 -83.4 10.0 -63.15 18.55 -24.1 30.55 23.6 28.4 76.8 23.85 89.35 4.3" fill="url(#gradient3)" fill-rule="evenodd" stroke="none"/>
  </g>
  <defs>
    <radialGradient cx="0" cy="0" gradientTransform="matrix(0.087, 0.0, 0.0, 0.087, -0.45, -97.45)" gradientUnits="userSpaceOnUse" id="gradient0" r="819.2" spreadMethod="pad">
      <stop offset="0.0" stop-color="#ffffff"/>
      <stop offset="1.0" stop-color="#ffffff"/>
    </radialGradient>
    <radialGradient cx="0" cy="0" gradientTransform="matrix(0.1198, 0.0, 0.0, 0.1198, -6.2, -64.9)" gradientUnits="userSpaceOnUse" id="gradient1" r="819.2" spreadMethod="pad">
      <stop offset="0.0" stop-color="#d3d3d3"/>
      <stop offset="1.0" stop-color="#949494"/>
    </radialGradient>
    <radialGradient cx="0" cy="0" gradientTransform="matrix(0.1776, 0.0, 0.0, 0.1776, -46.45, -46.95)" gradientUnits="userSpaceOnUse" id="gradient2" r="819.2" spreadMethod="pad">
      <stop offset="0.0" stop-color="#ffffff"/>
      <stop offset="1.0" stop-color="#cbcbcb"/>
    </radialGradient>
    <radialGradient cx="0" cy="0" gradientTransform="matrix(0.1292, 0.0, 0.0, 0.1292, -7.7, 28.45)" gradientUnits="userSpaceOnUse" id="gradient3" r="819.2" spreadMethod="pad">
      <stop offset="0.0" stop-color="#bfbfbf"/>
      <stop offset="1.0" stop-color="#717171"/>
    </radialGradient>
  </defs>
</svg>
