<?xml version="1.0" encoding="UTF-8" standalone="no"?>
<svg xmlns:ffdec="https://www.free-decompiler.com/flash" xmlns:xlink="http://www.w3.org/1999/xlink" ffdec:objectType="shape" height="186.85px" width="157.15px" xmlns="http://www.w3.org/2000/svg">
  <g transform="matrix(1.0, 0.0, 0.0, 1.0, 78.3, 130.5)">
    <path d="M-62.75 -84.4 Q-65.75 -99.25 -57.35 -109.15 L-55.75 -111.1 Q-39.75 -127.1 -12.85 -130.5 L6.8 -130.5 Q25.0 -128.75 41.0 -119.8 65.95 -101.05 62.95 -84.7 58.0 -55.9 12.85 -48.8 L-8.0 -48.8 Q-43.1 -55.75 -56.95 -72.45 L-62.75 -84.4" fill="url(#gradient0)" fill-rule="evenodd" stroke="none"/>
    <path d="M62.95 -84.7 L57.9 -47.6 50.9 4.65 47.1 16.45 38.35 26.45 25.15 33.85 Q11.2 39.4 -6.65 37.55 L-22.6 33.6 -36.35 25.75 -36.5 25.25 -46.1 15.5 -46.55 13.9 -51.1 4.0 -52.2 -3.55 -52.2 -3.9 -54.55 -22.1 -54.7 -22.4 -55.25 -26.6 -55.25 -27.05 -56.55 -36.9 -56.65 -37.15 -58.4 -50.65 -58.5 -50.65 -62.75 -84.4 -56.95 -72.45 Q-43.1 -55.75 -8.0 -48.8 L12.85 -48.8 Q58.0 -55.9 62.95 -84.7" fill="url(#gradient1)" fill-rule="evenodd" stroke="none"/>
    <path d="M57.9 -47.6 L65.95 -41.4 76.15 -24.75 78.85 -6.0 73.75 13.5 Q72.15 15.1 60.8 31.6 L41.1 46.25 17.0 53.65 -8.8 52.35 Q-59.35 36.95 -74.1 4.7 L-76.0 0.15 -77.55 -4.85 -77.7 -5.25 -78.2 -7.25 -78.2 -7.35 -78.3 -7.6 -77.95 -25.7 -70.3 -41.1 -58.5 -50.65 -58.4 -50.65 -56.65 -37.15 -56.55 -36.9 -55.25 -27.05 -55.25 -26.6 -54.7 -22.4 -54.55 -22.1 -52.2 -3.9 -52.2 -3.55 -51.1 4.0 -46.55 13.9 -46.1 15.5 -36.5 25.25 -36.35 25.75 -22.6 33.6 -6.65 37.55 Q11.2 39.4 25.15 33.85 L38.35 26.45 47.1 16.45 50.9 4.65 57.9 -47.6" fill="url(#gradient2)" fill-rule="evenodd" stroke="none"/>
    <path d="M73.75 13.5 Q49.2 63.7 -9.15 55.1 L-32.4 47.15 -52.6 34.75 -69.5 15.9 -74.1 4.7 Q-59.35 36.95 -8.8 52.35 L17.0 53.65 41.1 46.25 60.8 31.6 Q72.15 15.1 73.75 13.5 M-76.0 0.15 L-76.9 -2.05 -77.55 -4.85 -76.0 0.15" fill="url(#gradient3)" fill-rule="evenodd" stroke="none"/>
  </g>
  <defs>
    <radialGradient cx="0" cy="0" gradientTransform="matrix(0.0778, 0.0, 0.0, 0.0778, -0.45, -91.8)" gradientUnits="userSpaceOnUse" id="gradient0" r="819.2" spreadMethod="pad">
      <stop offset="0.0" stop-color="#ffffff"/>
      <stop offset="1.0" stop-color="#ffffff"/>
    </radialGradient>
    <radialGradient cx="0" cy="0" gradientTransform="matrix(0.1093, 0.0, 0.0, 0.1093, 12.65, -48.9)" gradientUnits="userSpaceOnUse" id="gradient1" r="819.2" spreadMethod="pad">
      <stop offset="0.0" stop-color="#d0d0d0"/>
      <stop offset="1.0" stop-color="#8e8e8e"/>
    </radialGradient>
    <radialGradient cx="0" cy="0" gradientTransform="matrix(0.1737, 0.0, 0.0, 0.1737, 62.15, -30.9)" gradientUnits="userSpaceOnUse" id="gradient2" r="819.2" spreadMethod="pad">
      <stop offset="0.0" stop-color="#ffffff"/>
      <stop offset="1.0" stop-color="#aaaaaa"/>
    </radialGradient>
    <radialGradient cx="0" cy="0" gradientTransform="matrix(0.1119, 0.0, 0.0, 0.1119, -9.35, 52.15)" gradientUnits="userSpaceOnUse" id="gradient3" r="819.2" spreadMethod="pad">
      <stop offset="0.0" stop-color="#acacac"/>
      <stop offset="1.0" stop-color="#515151"/>
    </radialGradient>
  </defs>
</svg>
