<?xml version="1.0" encoding="UTF-8" standalone="no"?>
<svg xmlns:ffdec="https://www.free-decompiler.com/flash" xmlns:xlink="http://www.w3.org/1999/xlink" ffdec:objectType="shape" height="186.6px" width="158.9px" xmlns="http://www.w3.org/2000/svg">
  <g transform="matrix(1.0, 0.0, 0.0, 1.0, 79.35, 130.8)">
    <path d="M-61.95 -81.8 L-63.8 -95.0 -59.55 -107.3 -49.55 -117.85 Q-36.85 -127.2 -18.4 -129.85 L0.45 -130.8 Q20.4 -129.7 36.1 -121.9 L50.25 -112.65 59.75 -101.2 63.45 -88.1 63.45 -87.6 63.3 -87.05 63.3 -86.95 61.45 -79.05 61.1 -75.6 52.2 -64.35 52.35 -64.1 Q33.35 -49.45 0.9 -48.65 -50.05 -53.25 -61.95 -81.8" fill="url(#gradient0)" fill-rule="evenodd" stroke="none"/>
    <path d="M-61.95 -81.8 Q-50.05 -53.25 0.9 -48.65 33.35 -49.45 52.35 -64.1 L52.2 -64.35 61.1 -75.6 61.45 -79.05 63.3 -86.95 58.0 -47.35 51.7 -0.65 49.05 13.8 41.55 24.35 29.65 32.25 Q-2.55 45.2 -32.65 27.8 -46.1 18.55 -50.2 6.9 L-58.15 -51.15 -61.95 -81.8" fill="url(#gradient1)" fill-rule="evenodd" stroke="none"/>
    <path d="M58.0 -47.35 Q74.95 -35.45 79.55 -10.5 L77.0 9.15 Q75.5 10.8 66.2 28.15 L48.15 43.75 25.55 52.35 -0.95 52.6 Q-60.5 38.45 -77.25 -3.35 L-79.35 -21.3 -74.0 -37.3 -62.45 -48.95 Q-62.35 -49.75 -58.15 -51.15 L-50.2 6.9 Q-46.1 18.55 -32.65 27.8 -2.55 45.2 29.65 32.25 L41.55 24.35 49.05 13.8 51.7 -0.65 58.0 -47.35" fill="url(#gradient2)" fill-rule="evenodd" stroke="none"/>
    <path d="M77.0 9.15 Q57.65 60.5 -0.45 55.35 L-25.0 48.9 Q-35.9 43.3 -46.9 37.65 L-66.05 19.6 -75.55 2.45 -77.25 -3.35 Q-60.5 38.45 -0.95 52.6 L25.55 52.35 48.15 43.75 66.2 28.15 Q75.5 10.8 77.0 9.15" fill="url(#gradient3)" fill-rule="evenodd" stroke="none"/>
  </g>
  <defs>
    <radialGradient cx="0" cy="0" gradientTransform="matrix(0.0781, 0.0, 0.0, 0.0781, -0.45, -91.8)" gradientUnits="userSpaceOnUse" id="gradient0" r="819.2" spreadMethod="pad">
      <stop offset="0.0" stop-color="#ffffff"/>
      <stop offset="1.0" stop-color="#ffffff"/>
    </radialGradient>
    <radialGradient cx="0" cy="0" gradientTransform="matrix(0.1062, 0.0, 0.0, 0.1062, -1.65, -48.65)" gradientUnits="userSpaceOnUse" id="gradient1" r="819.2" spreadMethod="pad">
      <stop offset="0.0" stop-color="#d2d2d2"/>
      <stop offset="1.0" stop-color="#9b9b9b"/>
    </radialGradient>
    <radialGradient cx="0" cy="0" gradientTransform="matrix(0.1723, 0.0, 0.0, 0.1723, -44.2, -57.7)" gradientUnits="userSpaceOnUse" id="gradient2" r="819.2" spreadMethod="pad">
      <stop offset="0.0" stop-color="#ffffff"/>
      <stop offset="1.0" stop-color="#b8b8b8"/>
    </radialGradient>
    <radialGradient cx="0" cy="0" gradientTransform="matrix(0.1157, 0.0, 0.0, 0.1157, -0.8, 52.45)" gradientUnits="userSpaceOnUse" id="gradient3" r="819.2" spreadMethod="pad">
      <stop offset="0.0" stop-color="#afafaf"/>
      <stop offset="1.0" stop-color="#535353"/>
    </radialGradient>
  </defs>
</svg>
