<?xml version="1.0" encoding="UTF-8" standalone="no"?>
<svg xmlns:ffdec="https://www.free-decompiler.com/flash" xmlns:xlink="http://www.w3.org/1999/xlink" ffdec:objectType="shape" height="185.35px" width="159.85px" xmlns="http://www.w3.org/2000/svg">
  <g transform="matrix(1.0, 0.0, 0.0, 1.0, 80.3, 130.25)">
    <path d="M-63.95 -89.85 L-64.05 -90.1 -64.3 -91.0 -64.3 -92.6 -61.95 -104.2 -53.9 -114.95 -41.6 -122.95 Q-27.5 -131.3 0.9 -130.1 21.0 -129.9 46.8 -115.05 68.3 -95.4 62.95 -78.5 52.1 -50.65 4.7 -48.65 -27.2 -49.85 -51.1 -67.5 L-59.75 -78.1 -60.5 -78.6 -63.95 -89.85" fill="url(#gradient0)" fill-rule="evenodd" stroke="none"/>
    <path d="M-63.95 -89.85 L-60.5 -78.6 -59.75 -78.1 -51.1 -67.5 Q-27.2 -49.85 4.7 -48.65 52.1 -50.65 62.95 -78.5 L58.55 -46.85 50.8 9.05 50.9 10.6 44.95 21.55 42.85 23.4 Q30.3 35.9 3.8 37.65 -14.15 37.4 -28.6 29.65 L-41.1 20.4 -49.15 9.55 Q-54.8 -17.1 -58.8 -50.5 L-58.95 -50.5 -63.95 -89.85" fill="url(#gradient1)" fill-rule="evenodd" stroke="none"/>
    <path d="M58.55 -46.85 L71.9 -33.2 79.55 -15.15 79.55 4.65 70.95 24.45 55.1 40.7 33.6 50.6 7.5 52.35 Q-54.0 40.7 -75.4 0.95 L-80.3 -16.85 -77.15 -33.2 -66.95 -46.15 -58.95 -50.5 -58.8 -50.5 Q-54.8 -17.1 -49.15 9.55 L-41.1 20.4 -28.6 29.65 Q-14.15 37.4 3.8 37.65 30.3 35.9 42.85 23.4 L44.95 21.55 50.9 10.6 50.8 9.05 58.55 -46.85" fill="url(#gradient2)" fill-rule="evenodd" stroke="none"/>
    <path d="M79.55 4.65 Q75.95 25.0 54.75 43.45 L33.6 52.85 9.2 55.1 6.95 55.1 -17.85 50.05 -40.7 40.3 -59.75 25.65 Q-76.75 5.2 -75.4 0.95 -54.0 40.7 7.5 52.35 L33.6 50.6 55.1 40.7 70.95 24.45 79.55 4.65" fill="url(#gradient3)" fill-rule="evenodd" stroke="none"/>
  </g>
  <defs>
    <radialGradient cx="0" cy="0" gradientTransform="matrix(0.0789, 0.0, 0.0, 0.0789, -0.45, -91.8)" gradientUnits="userSpaceOnUse" id="gradient0" r="819.2" spreadMethod="pad">
      <stop offset="0.0" stop-color="#ffffff"/>
      <stop offset="1.0" stop-color="#ffffff"/>
    </radialGradient>
    <radialGradient cx="0" cy="0" gradientTransform="matrix(0.1054, 0.0, 0.0, 0.1054, 4.85, -48.8)" gradientUnits="userSpaceOnUse" id="gradient1" r="819.2" spreadMethod="pad">
      <stop offset="0.0" stop-color="#d3d3d3"/>
      <stop offset="1.0" stop-color="#a6a6a6"/>
    </radialGradient>
    <radialGradient cx="0" cy="0" gradientTransform="matrix(0.1752, 0.0, 0.0, 0.1752, -49.95, -51.1)" gradientUnits="userSpaceOnUse" id="gradient2" r="819.2" spreadMethod="pad">
      <stop offset="0.0" stop-color="#ffffff"/>
      <stop offset="1.0" stop-color="#b3b3b3"/>
    </radialGradient>
    <radialGradient cx="0" cy="0" gradientTransform="matrix(0.1367, 0.0, 0.0, 0.1367, 7.75, 52.25)" gradientUnits="userSpaceOnUse" id="gradient3" r="819.2" spreadMethod="pad">
      <stop offset="0.0" stop-color="#b1b1b1"/>
      <stop offset="1.0" stop-color="#656565"/>
    </radialGradient>
  </defs>
</svg>
