<?xml version="1.0" encoding="UTF-8" standalone="no"?>
<svg xmlns:ffdec="https://www.free-decompiler.com/flash" xmlns:xlink="http://www.w3.org/1999/xlink" ffdec:objectType="shape" height="183.0px" width="164.75px" xmlns="http://www.w3.org/2000/svg">
  <g transform="matrix(1.0, 0.0, 0.0, 1.0, 81.9, 129.75)">
    <path d="M-63.8 -84.85 L-65.25 -98.05 -60.25 -109.75 -49.55 -119.4 Q-36.6 -127.6 -17.35 -129.55 13.4 -131.25 38.9 -119.25 60.55 -108.6 65.3 -85.35 L65.3 -84.7 62.5 -75.2 Q62.8 -72.9 52.45 -62.15 31.2 -48.4 -4.0 -50.0 -52.05 -57.5 -63.8 -84.85" fill="url(#gradient0)" fill-rule="evenodd" stroke="none"/>
    <path d="M-63.8 -84.85 Q-52.05 -57.5 -4.0 -50.0 31.2 -48.4 52.45 -62.15 62.8 -72.9 62.5 -75.2 L65.3 -84.7 59.75 -44.7 53.25 -0.2 53.0 4.3 50.25 14.05 50.0 16.15 41.8 25.95 29.95 32.65 Q15.5 38.35 -3.05 36.5 L-19.95 32.25 Q-54.8 16.45 -53.25 -6.0 L-53.25 -6.45 -55.1 -19.35 -55.1 -19.75 -56.95 -33.2 -56.95 -33.75 -59.3 -50.65 -63.8 -84.85" fill="url(#gradient1)" fill-rule="evenodd" stroke="none"/>
    <path d="M59.75 -44.7 L65.55 -40.75 77.8 -23.7 82.85 -4.7 79.55 15.2 71.35 27.35 67.95 33.15 49.05 45.55 24.9 50.35 -2.7 47.3 Q-63.95 30.95 -79.9 -7.75 L-81.9 -24.25 -75.85 -38.65 Q-62.0 -50.9 -59.3 -50.65 L-56.95 -33.75 -56.95 -33.2 -55.1 -19.75 -55.1 -19.35 -53.25 -6.45 -53.25 -6.0 Q-54.8 16.45 -19.95 32.25 L-3.05 36.5 Q15.5 38.35 29.95 32.65 L41.8 25.95 50.0 16.15 50.25 14.05 53.0 4.3 53.25 -0.2 59.75 -44.7" fill="url(#gradient2)" fill-rule="evenodd" stroke="none"/>
    <path d="M79.55 15.2 Q73.85 34.75 48.4 48.1 L24.2 53.25 -1.75 51.3 -27.0 44.4 Q-38.25 38.5 -49.55 32.55 -70.55 19.05 -79.9 -7.75 -63.95 30.95 -2.7 47.3 L24.9 50.35 49.05 45.55 67.95 33.15 71.35 27.35 79.55 15.2" fill="url(#gradient3)" fill-rule="evenodd" stroke="none"/>
  </g>
  <defs>
    <radialGradient cx="0" cy="0" gradientTransform="matrix(0.0806, 0.0, 0.0, 0.0806, -0.45, -91.8)" gradientUnits="userSpaceOnUse" id="gradient0" r="819.2" spreadMethod="pad">
      <stop offset="0.0" stop-color="#ffffff"/>
      <stop offset="1.0" stop-color="#ffffff"/>
    </radialGradient>
    <radialGradient cx="0" cy="0" gradientTransform="matrix(0.1088, 0.0, 0.0, 0.1088, -3.65, -50.05)" gradientUnits="userSpaceOnUse" id="gradient1" r="819.2" spreadMethod="pad">
      <stop offset="0.0" stop-color="#d0d0d0"/>
      <stop offset="1.0" stop-color="#959595"/>
    </radialGradient>
    <radialGradient cx="0" cy="0" gradientTransform="matrix(0.1879, 0.0, 0.0, 0.1879, -61.85, -45.2)" gradientUnits="userSpaceOnUse" id="gradient2" r="819.2" spreadMethod="pad">
      <stop offset="0.0" stop-color="#ffffff"/>
      <stop offset="1.0" stop-color="#cfcfcf"/>
    </radialGradient>
    <radialGradient cx="0" cy="0" gradientTransform="matrix(0.1163, 0.0, 0.0, 0.1163, -2.55, 47.2)" gradientUnits="userSpaceOnUse" id="gradient3" r="819.2" spreadMethod="pad">
      <stop offset="0.0" stop-color="#b2b2b2"/>
      <stop offset="1.0" stop-color="#555555"/>
    </radialGradient>
  </defs>
</svg>
