<?xml version="1.0" encoding="UTF-8" standalone="no"?>
<svg xmlns:ffdec="https://www.free-decompiler.com/flash" xmlns:xlink="http://www.w3.org/1999/xlink" ffdec:objectType="shape" height="180.95px" width="166.85px" xmlns="http://www.w3.org/2000/svg">
  <g transform="matrix(1.0, 0.0, 0.0, 1.0, 83.35, 129.55)">
    <path d="M-65.55 -91.3 L-65.65 -91.95 -65.65 -92.25 -65.8 -92.5 -66.15 -95.0 -63.0 -106.6 -53.9 -116.8 -39.15 -124.55 -22.85 -128.65 -2.95 -129.55 16.3 -126.9 34.7 -121.0 49.85 -112.15 60.8 -100.95 65.85 -88.8 64.35 -76.15 64.35 -75.95 Q51.3 -49.45 2.2 -50.0 L-19.05 -53.15 -38.35 -60.15 Q-62.85 -74.35 -65.55 -91.3" fill="url(#gradient0)" fill-rule="evenodd" stroke="none"/>
    <path d="M-65.55 -91.3 Q-62.85 -74.35 -38.35 -60.15 L-19.05 -53.15 2.2 -50.0 Q51.3 -49.45 64.35 -75.95 L60.0 -45.0 52.65 9.05 Q51.95 9.3 51.7 13.5 L45.25 23.3 33.2 31.2 Q20.4 37.3 2.2 36.5 L-15.5 33.15 Q-52.05 19.6 -53.75 -3.8 L-57.45 -31.5 -57.6 -31.8 -60.1 -50.0 -65.55 -91.3" fill="url(#gradient1)" fill-rule="evenodd" stroke="none"/>
    <path d="M60.0 -45.0 Q78.25 -31.1 83.5 -9.2 L82.55 10.6 73.05 29.2 55.55 42.65 32.3 48.5 5.5 47.15 Q-57.35 34.5 -79.1 -3.65 L-83.35 -19.9 -79.55 -34.15 -68.3 -45.75 -60.1 -50.0 -57.6 -31.8 -57.45 -31.5 -53.75 -3.8 Q-52.05 19.6 -15.5 33.15 L2.2 36.5 Q20.4 37.3 33.2 31.2 L45.25 23.3 51.7 13.5 Q51.95 9.3 52.65 9.05 L60.0 -45.0" fill="url(#gradient2)" fill-rule="evenodd" stroke="none"/>
    <path d="M82.55 10.6 L81.5 13.9 72.15 32.1 55.25 45.05 32.65 51.4 4.95 51.0 -20.5 45.55 -44.0 35.3 -62.75 21.3 Q-80.15 0.45 -79.1 -3.65 -57.35 34.5 5.5 47.15 L32.3 48.5 55.55 42.65 73.05 29.2 82.55 10.6" fill="url(#gradient3)" fill-rule="evenodd" stroke="none"/>
  </g>
  <defs>
    <radialGradient cx="0" cy="0" gradientTransform="matrix(0.0814, 0.0, 0.0, 0.0814, -0.45, -91.8)" gradientUnits="userSpaceOnUse" id="gradient0" r="819.2" spreadMethod="pad">
      <stop offset="0.0" stop-color="#ffffff"/>
      <stop offset="1.0" stop-color="#ffffff"/>
    </radialGradient>
    <radialGradient cx="0" cy="0" gradientTransform="matrix(0.1062, 0.0, 0.0, 0.1062, 2.7, -50.05)" gradientUnits="userSpaceOnUse" id="gradient1" r="819.2" spreadMethod="pad">
      <stop offset="0.0" stop-color="#d2d2d2"/>
      <stop offset="1.0" stop-color="#a7a7a7"/>
    </radialGradient>
    <radialGradient cx="0" cy="0" gradientTransform="matrix(0.1935, 0.0, 0.0, 0.1935, -67.1, -41.75)" gradientUnits="userSpaceOnUse" id="gradient2" r="819.2" spreadMethod="pad">
      <stop offset="0.0" stop-color="#ffffff"/>
      <stop offset="1.0" stop-color="#d5d5d5"/>
    </radialGradient>
    <radialGradient cx="0" cy="0" gradientTransform="matrix(0.1207, 0.0, 0.0, 0.1207, 5.65, 47.05)" gradientUnits="userSpaceOnUse" id="gradient3" r="819.2" spreadMethod="pad">
      <stop offset="0.0" stop-color="#b5b5b5"/>
      <stop offset="1.0" stop-color="#626262"/>
    </radialGradient>
  </defs>
</svg>
