<?xml version="1.0" encoding="UTF-8" standalone="no"?>
<svg xmlns:ffdec="https://www.free-decompiler.com/flash" xmlns:xlink="http://www.w3.org/1999/xlink" ffdec:objectType="shape" height="176.25px" width="174.75px" xmlns="http://www.w3.org/2000/svg">
  <g transform="matrix(1.0, 0.0, 0.0, 1.0, 87.0, 128.3)">
    <path d="M-66.6 -85.55 L-67.1 -89.15 -67.1 -89.6 -67.2 -89.85 -67.4 -90.5 -67.65 -92.35 Q-70.55 -94.7 -64.2 -107.65 L-53.65 -117.6 Q-31.55 -129.5 -0.05 -128.15 30.9 -124.8 50.8 -111.5 68.2 -99.35 68.2 -85.75 L68.05 -85.35 68.05 -85.1 65.55 -74.4 Q57.5 -62.15 45.1 -58.3 L40.75 -56.15 21.2 -51.95 -1.5 -51.7 Q-34.5 -55.5 -57.2 -72.8 -64.6 -81.2 -66.6 -85.55" fill="url(#gradient0)" fill-rule="evenodd" stroke="none"/>
    <path d="M-66.6 -85.55 Q-64.6 -81.2 -57.2 -72.8 -34.5 -55.5 -1.5 -51.7 L21.2 -51.95 40.75 -56.15 45.1 -58.3 Q57.5 -62.15 65.55 -74.4 L68.05 -85.1 62.0 -43.25 55.4 2.3 52.9 14.7 45.1 24.1 32.85 30.95 Q7.8 38.35 -20.25 30.15 -54.8 18.55 -55.6 -6.45 L-55.6 -6.95 -55.75 -7.25 -61.55 -49.05 -61.7 -49.05 Q-63.95 -67.3 -66.6 -85.55" fill="url(#gradient1)" fill-rule="evenodd" stroke="none"/>
    <path d="M62.0 -43.25 L67.8 -39.55 81.65 -22.9 87.75 -4.3 85.35 15.2 83.6 17.05 83.5 17.75 73.75 31.2 55.0 40.7 30.05 43.9 2.2 41.75 -28.05 34.4 -53.15 22.85 -72.4 9.15 -79.65 -0.9 -84.0 -6.15 -87.0 -20.7 -81.65 -33.75 -69.5 -44.8 -61.7 -49.05 -61.55 -49.05 -55.75 -7.25 -55.6 -6.95 -55.6 -6.45 Q-54.8 18.55 -20.25 30.15 7.8 38.35 32.85 30.95 L45.1 24.1 52.9 14.7 55.4 2.3 62.0 -43.25" fill="url(#gradient2)" fill-rule="evenodd" stroke="none"/>
    <path d="M85.35 15.2 L83.9 18.65 73.2 33.3 54.3 43.6 28.35 47.95 0.9 47.15 -26.05 41.25 -50.05 30.8 Q-78.85 10.35 -84.0 -6.15 L-79.65 -0.9 -72.4 9.15 -53.15 22.85 -28.05 34.4 2.2 41.75 30.05 43.9 55.0 40.7 73.75 31.2 83.5 17.75 83.6 17.05 85.35 15.2" fill="url(#gradient3)" fill-rule="evenodd" stroke="none"/>
  </g>
  <defs>
    <radialGradient cx="0" cy="0" gradientTransform="matrix(0.0841, 0.0, 0.0, 0.0841, -0.45, -91.75)" gradientUnits="userSpaceOnUse" id="gradient0" r="819.2" spreadMethod="pad">
      <stop offset="0.0" stop-color="#ffffff"/>
      <stop offset="1.0" stop-color="#ffffff"/>
    </radialGradient>
    <radialGradient cx="0" cy="0" gradientTransform="matrix(0.1088, 0.0, 0.0, 0.1088, -0.95, -51.75)" gradientUnits="userSpaceOnUse" id="gradient1" r="819.2" spreadMethod="pad">
      <stop offset="0.0" stop-color="#d1d1d1"/>
      <stop offset="1.0" stop-color="#989898"/>
    </radialGradient>
    <radialGradient cx="0" cy="0" gradientTransform="matrix(0.1836, 0.0, 0.0, 0.1836, -49.45, -51.25)" gradientUnits="userSpaceOnUse" id="gradient2" r="819.2" spreadMethod="pad">
      <stop offset="0.0" stop-color="#ffffff"/>
      <stop offset="1.0" stop-color="#dadada"/>
    </radialGradient>
    <radialGradient cx="0" cy="0" gradientTransform="matrix(0.1192, 0.0, 0.0, 0.1192, 1.05, 41.5)" gradientUnits="userSpaceOnUse" id="gradient3" r="819.2" spreadMethod="pad">
      <stop offset="0.0" stop-color="#b8b8b8"/>
      <stop offset="1.0" stop-color="#555555"/>
    </radialGradient>
  </defs>
</svg>
