<?xml version="1.0" encoding="UTF-8" standalone="no"?>
<svg xmlns:ffdec="https://www.free-decompiler.com/flash" xmlns:xlink="http://www.w3.org/1999/xlink" ffdec:objectType="shape" height="172.3px" width="181.25px" xmlns="http://www.w3.org/2000/svg">
  <g transform="matrix(1.0, 0.0, 0.0, 1.0, 90.1, 127.25)">
    <path d="M-69.05 -86.0 L-70.0 -98.15 -63.95 -109.15 -52.6 -117.7 Q-36.85 -125.75 -16.95 -127.1 15.7 -128.5 43.4 -117.05 69.85 -102.65 70.15 -84.7 64.25 -64.6 38.65 -56.85 L17.5 -53.0 -5.1 -53.15 Q-57.9 -60.3 -69.05 -86.0" fill="url(#gradient0)" fill-rule="evenodd" stroke="none"/>
    <path d="M-69.05 -86.0 Q-57.9 -60.3 -5.1 -53.15 L17.5 -53.0 38.65 -56.85 Q64.25 -64.6 70.15 -84.7 L64.0 -43.15 56.7 5.2 53.15 15.35 43.5 24.45 Q23.8 35.35 -5.1 32.8 -33.6 28.2 -49.95 13.1 -58.7 1.45 -57.6 -7.05 L-57.7 -7.5 -61.4 -33.1 -61.55 -33.65 -63.7 -48.15 -69.05 -86.0" fill="url(#gradient1)" fill-rule="evenodd" stroke="none"/>
    <path d="M64.0 -43.15 L74.1 -36.0 86.95 -18.6 91.15 -0.1 86.4 16.95 Q62.5 46.25 -6.4 37.4 L-35.7 30.4 -60.5 20.5 -78.85 7.45 -83.35 0.95 -83.85 0.7 -84.0 0.05 -88.85 -6.0 -89.05 -6.3 -90.1 -19.65 -82.7 -33.1 Q-66.75 -48.1 -63.7 -48.15 L-61.55 -33.65 -61.4 -33.1 -57.7 -7.5 -57.6 -7.05 Q-58.7 1.45 -49.95 13.1 -33.6 28.2 -5.1 32.8 23.8 35.35 43.5 24.45 L53.15 15.35 56.7 5.2 64.0 -43.15" fill="url(#gradient2)" fill-rule="evenodd" stroke="none"/>
    <path d="M86.4 16.95 Q79.5 32.35 49.45 40.8 L22.9 45.05 -5.6 44.0 Q-65.65 37.3 -88.85 -6.0 L-84.0 0.05 -83.85 0.7 -83.35 0.95 -78.85 7.45 -60.5 20.5 -35.7 30.4 -6.4 37.4 Q62.5 46.25 86.4 16.95" fill="url(#gradient3)" fill-rule="evenodd" stroke="none"/>
  </g>
  <defs>
    <radialGradient cx="0" cy="0" gradientTransform="matrix(0.0866, 0.0, 0.0, 0.0866, -0.45, -91.8)" gradientUnits="userSpaceOnUse" id="gradient0" r="819.2" spreadMethod="pad">
      <stop offset="0.0" stop-color="#ffffff"/>
      <stop offset="1.0" stop-color="#ffffff"/>
    </radialGradient>
    <radialGradient cx="0" cy="0" gradientTransform="matrix(0.1156, 0.0, 0.0, 0.1156, 17.05, -53.1)" gradientUnits="userSpaceOnUse" id="gradient1" r="819.2" spreadMethod="pad">
      <stop offset="0.0" stop-color="#d1d1d1"/>
      <stop offset="1.0" stop-color="#808080"/>
    </radialGradient>
    <radialGradient cx="0" cy="0" gradientTransform="matrix(0.1828, 0.0, 0.0, 0.1828, -46.35, -52.2)" gradientUnits="userSpaceOnUse" id="gradient2" r="819.2" spreadMethod="pad">
      <stop offset="0.0" stop-color="#ffffff"/>
      <stop offset="1.0" stop-color="#d8d8d8"/>
    </radialGradient>
    <radialGradient cx="0" cy="0" gradientTransform="matrix(0.1155, 0.0, 0.0, 0.1155, -6.05, 37.35)" gradientUnits="userSpaceOnUse" id="gradient3" r="819.2" spreadMethod="pad">
      <stop offset="0.0" stop-color="#bababa"/>
      <stop offset="1.0" stop-color="#636363"/>
    </radialGradient>
  </defs>
</svg>
