<?xml version="1.0" encoding="UTF-8" standalone="no"?>
<svg xmlns:ffdec="https://www.free-decompiler.com/flash" xmlns:xlink="http://www.w3.org/1999/xlink" ffdec:objectType="shape" height="171.0px" width="183.2px" xmlns="http://www.w3.org/2000/svg">
  <g transform="matrix(1.0, 0.0, 0.0, 1.0, 91.5, 126.9)">
    <path d="M70.3 -86.7 L69.9 -86.15 68.2 -77.2 59.5 -67.5 56.35 -65.55 43.25 -58.95 22.55 -54.05 -1.1 -53.15 -23.95 -56.35 -43.6 -62.65 -59.05 -71.9 -68.45 -82.75 -70.3 -90.4 -70.55 -91.55 Q-72.65 -93.8 -66.95 -105.45 L-56.3 -115.2 Q-43.1 -125.5 -0.85 -126.9 34.35 -123.7 55.55 -110.55 70.3 -99.2 70.4 -87.5 L70.4 -87.3 70.3 -86.8 70.3 -86.7" fill="url(#gradient0)" fill-rule="evenodd" stroke="none"/>
    <path d="M-70.3 -90.4 L-68.45 -82.75 -59.05 -71.9 -43.6 -62.65 -23.95 -56.35 -1.1 -53.15 22.55 -54.05 43.25 -58.95 56.35 -65.55 59.5 -67.5 68.2 -77.2 69.9 -86.15 70.3 -86.7 64.0 -43.75 58.95 -12.1 57.5 0.05 55.0 12.2 46.8 21.7 33.75 28.85 Q-0.45 39.15 -35.2 24.45 L-47.7 16.7 -51.4 11.7 -55.35 7.2 Q-61.7 -28.1 -64.05 -47.45 L-64.2 -47.45 -70.3 -90.4" fill="url(#gradient1)" fill-rule="evenodd" stroke="none"/>
    <path d="M-64.2 -47.45 L-64.05 -47.45 Q-61.7 -28.1 -55.35 7.2 L-51.4 11.7 -47.7 16.7 -35.2 24.45 Q-0.45 39.15 33.75 28.85 L46.8 21.7 55.0 12.2 57.5 0.05 58.95 -12.1 64.0 -43.75 70.7 -39.8 85.2 -23.45 91.7 -5.1 89.15 11.95 Q69.25 42.4 1.15 37.55 L-28.6 32.55 -55.5 23.8 -71.7 14.05 -75.95 11.95 Q-76.8 10.25 -88.1 -1.15 L-91.5 -14.45 -86.25 -28.2 -73.05 -42.2 -64.2 -47.45" fill="url(#gradient2)" fill-rule="evenodd" stroke="none"/>
    <path d="M89.15 11.95 L87.3 15.5 76.65 28.05 Q45.1 45.5 0.75 44.0 -59.2 41.1 -88.1 -1.15 -76.8 10.25 -75.95 11.95 L-71.7 14.05 -55.5 23.8 -28.6 32.55 1.15 37.55 Q69.25 42.4 89.15 11.95" fill="url(#gradient3)" fill-rule="evenodd" stroke="none"/>
  </g>
  <defs>
    <radialGradient cx="0" cy="0" gradientTransform="matrix(0.0868, 0.0, 0.0, 0.0868, -0.45, -91.8)" gradientUnits="userSpaceOnUse" id="gradient0" r="819.2" spreadMethod="pad">
      <stop offset="0.0" stop-color="#ffffff"/>
      <stop offset="1.0" stop-color="#ffffff"/>
    </radialGradient>
    <radialGradient cx="0" cy="0" gradientTransform="matrix(0.1083, 0.0, 0.0, 0.1083, -0.1, -53.15)" gradientUnits="userSpaceOnUse" id="gradient1" r="819.2" spreadMethod="pad">
      <stop offset="0.0" stop-color="#d3d3d3"/>
      <stop offset="1.0" stop-color="#9d9d9d"/>
    </radialGradient>
    <radialGradient cx="0" cy="0" gradientTransform="matrix(0.1882, 0.0, 0.0, 0.1882, -52.35, -49.6)" gradientUnits="userSpaceOnUse" id="gradient2" r="819.2" spreadMethod="pad">
      <stop offset="0.0" stop-color="#ffffff"/>
      <stop offset="1.0" stop-color="#b2b2b2"/>
    </radialGradient>
    <radialGradient cx="0" cy="0" gradientTransform="matrix(0.1192, 0.0, 0.0, 0.1192, 1.35, 37.45)" gradientUnits="userSpaceOnUse" id="gradient3" r="819.2" spreadMethod="pad">
      <stop offset="0.0" stop-color="#bdbdbd"/>
      <stop offset="1.0" stop-color="#5d5d5d"/>
    </radialGradient>
  </defs>
</svg>
