<?xml version="1.0" encoding="UTF-8" standalone="no"?>
<svg xmlns:ffdec="https://www.free-decompiler.com/flash" xmlns:xlink="http://www.w3.org/1999/xlink" ffdec:objectType="shape" height="169.35px" width="184.8px" xmlns="http://www.w3.org/2000/svg">
  <g transform="matrix(1.0, 0.0, 0.0, 1.0, 92.45, 126.4)">
    <path d="M-71.35 -86.8 L-70.55 -98.95 Q-62.75 -112.15 -56.05 -113.7 -33.35 -126.65 -8.5 -126.4 34.7 -124.95 48.65 -115.75 L61.85 -106.85 Q72.2 -97.9 70.85 -84.15 63.3 -58.45 9.2 -53.8 -22.4 -52.65 -52.45 -66.1 -66.45 -73.75 -70.9 -86.7 L-71.35 -86.8" fill="url(#gradient0)" fill-rule="evenodd" stroke="none"/>
    <path d="M-71.35 -86.8 L-70.9 -86.7 Q-66.45 -73.75 -52.45 -66.1 -22.4 -52.65 9.2 -53.8 63.3 -58.45 70.85 -84.15 L64.9 -44.7 58.3 -0.35 57.75 0.7 Q57.4 6.4 56.7 6.9 55.0 16.15 42.2 23.8 19.7 34.4 -9.55 31.75 -36.7 28.1 -52.7 13.25 -60.4 -1.8 -59.05 -4.6 L-64.6 -42.05 -64.75 -42.45 -65.4 -46.85 -65.55 -46.85 -71.35 -86.8" fill="url(#gradient1)" fill-rule="evenodd" stroke="none"/>
    <path d="M64.9 -44.7 L79.8 -32.65 90.5 -15.25 92.35 1.65 90.65 4.3 84.95 15.75 69.1 25.95 45.1 33.15 16.2 36.5 -14.85 34.9 -43.9 29.45 -68.0 20.1 -72.65 16.55 -84.65 8.5 -85.6 6.4 -92.2 -4.05 -92.45 -5.4 -91.15 -18.95 -81.65 -33.75 -65.55 -46.85 -65.4 -46.85 -64.75 -42.45 -64.6 -42.05 -59.05 -4.6 Q-60.4 -1.8 -52.7 13.25 -36.7 28.1 -9.55 31.75 19.7 34.4 42.2 23.8 55.0 16.15 56.7 6.9 57.4 6.4 57.75 0.7 L58.3 -0.35 64.9 -44.7" fill="url(#gradient2)" fill-rule="evenodd" stroke="none"/>
    <path d="M92.35 1.65 L83.8 18.9 68.6 29.2 65.3 30.95 42.35 39.25 16.05 42.95 -7.85 42.4 Q-77.95 34.4 -92.2 -4.05 L-85.6 6.4 -84.65 8.5 -72.65 16.55 -68.0 20.1 -43.9 29.45 -14.85 34.9 16.2 36.5 45.1 33.15 69.1 25.95 84.95 15.75 90.65 4.3 92.35 1.65" fill="url(#gradient3)" fill-rule="evenodd" stroke="none"/>
  </g>
  <defs>
    <radialGradient cx="0" cy="0" gradientTransform="matrix(0.0875, 0.0, 0.0, 0.0875, -0.45, -91.8)" gradientUnits="userSpaceOnUse" id="gradient0" r="819.2" spreadMethod="pad">
      <stop offset="0.0" stop-color="#ffffff"/>
      <stop offset="1.0" stop-color="#ffffff"/>
    </radialGradient>
    <radialGradient cx="0" cy="0" gradientTransform="matrix(0.1135, 0.0, 0.0, 0.1135, 11.5, -53.85)" gradientUnits="userSpaceOnUse" id="gradient1" r="819.2" spreadMethod="pad">
      <stop offset="0.0" stop-color="#d3d3d3"/>
      <stop offset="1.0" stop-color="#929292"/>
    </radialGradient>
    <radialGradient cx="0" cy="0" gradientTransform="matrix(0.1976, 0.0, 0.0, 0.1976, -63.2, -43.5)" gradientUnits="userSpaceOnUse" id="gradient2" r="819.2" spreadMethod="pad">
      <stop offset="0.0" stop-color="#ffffff"/>
      <stop offset="1.0" stop-color="#c6c6c6"/>
    </radialGradient>
    <radialGradient cx="0" cy="0" gradientTransform="matrix(0.1415, 0.0, 0.0, 0.1415, 16.05, 36.35)" gradientUnits="userSpaceOnUse" id="gradient3" r="819.2" spreadMethod="pad">
      <stop offset="0.0" stop-color="#bebebe"/>
      <stop offset="1.0" stop-color="#565656"/>
    </radialGradient>
  </defs>
</svg>
