<?xml version="1.0" encoding="UTF-8" standalone="no"?>
<svg xmlns:ffdec="https://www.free-decompiler.com/flash" xmlns:xlink="http://www.w3.org/1999/xlink" ffdec:objectType="shape" height="169.1px" width="185.6px" xmlns="http://www.w3.org/2000/svg">
  <g transform="matrix(1.0, 0.0, 0.0, 1.0, 92.75, 126.25)">
    <path d="M-70.65 -83.35 L-71.6 -95.5 -65.65 -106.05 Q-48.25 -121.6 -16.95 -125.75 16.85 -128.2 44.45 -118.1 72.7 -103.45 71.35 -87.85 L71.25 -87.15 Q66.55 -62.05 16.75 -54.5 -19.7 -51.7 -49.25 -64.0 L-62.9 -72.7 -70.65 -83.35" fill="url(#gradient0)" fill-rule="evenodd" stroke="none"/>
    <path d="M71.25 -87.15 L64.75 -44.8 57.65 2.7 53.8 12.75 Q40.9 28.25 12.35 31.75 -14.3 33.85 -39.15 24.1 -55.45 14.75 -57.6 3.85 L-63.25 -33.75 -63.4 -34.0 -65.25 -46.4 -70.65 -83.35 -62.9 -72.7 -49.25 -64.0 Q-19.7 -51.7 16.75 -54.5 66.55 -62.05 71.25 -87.15" fill="url(#gradient1)" fill-rule="evenodd" stroke="none"/>
    <path d="M64.75 -44.8 L76.5 -36.8 88.8 -20.45 92.85 -3.8 87.75 10.75 Q62.5 37.65 -8.6 35.45 L-37.65 31.75 -63.25 23.8 -81.9 13.1 -91.8 0.85 -92.75 -13.95 -85.05 -29.15 -69.25 -44.45 -65.25 -46.4 -63.4 -34.0 -63.25 -33.75 -57.6 3.85 Q-55.45 14.75 -39.15 24.1 -14.3 33.85 12.35 31.75 40.9 28.25 53.8 12.75 L57.65 2.7 64.75 -44.8" fill="url(#gradient2)" fill-rule="evenodd" stroke="none"/>
    <path d="M87.75 10.75 Q88.1 14.3 71.9 25.95 L48.4 36.5 22.0 41.9 -7.3 42.85 Q-68.8 38.85 -91.8 0.85 L-81.9 13.1 -63.25 23.8 -37.65 31.75 -8.6 35.45 Q62.5 37.65 87.75 10.75" fill="url(#gradient3)" fill-rule="evenodd" stroke="none"/>
  </g>
  <defs>
    <radialGradient cx="0" cy="0" gradientTransform="matrix(0.0877, 0.0, 0.0, 0.0877, -0.45, -91.75)" gradientUnits="userSpaceOnUse" id="gradient0" r="819.2" spreadMethod="pad">
      <stop offset="0.0" stop-color="#ffffff"/>
      <stop offset="1.0" stop-color="#ffffff"/>
    </radialGradient>
    <radialGradient cx="0" cy="0" gradientTransform="matrix(0.1111, 0.0, 0.0, 0.1111, -6.2, -53.9)" gradientUnits="userSpaceOnUse" id="gradient1" r="819.2" spreadMethod="pad">
      <stop offset="0.0" stop-color="#d3d3d3"/>
      <stop offset="1.0" stop-color="#949494"/>
    </radialGradient>
    <radialGradient cx="0" cy="0" gradientTransform="matrix(0.1805, 0.0, 0.0, 0.1805, -46.7, -50.75)" gradientUnits="userSpaceOnUse" id="gradient2" r="819.2" spreadMethod="pad">
      <stop offset="0.0" stop-color="#ffffff"/>
      <stop offset="1.0" stop-color="#d5d5d5"/>
    </radialGradient>
    <radialGradient cx="0" cy="0" gradientTransform="matrix(0.1203, 0.0, 0.0, 0.1203, -7.65, 35.45)" gradientUnits="userSpaceOnUse" id="gradient3" r="819.2" spreadMethod="pad">
      <stop offset="0.0" stop-color="#bfbfbf"/>
      <stop offset="1.0" stop-color="#686868"/>
    </radialGradient>
  </defs>
</svg>
