<?xml version="1.0" encoding="UTF-8" standalone="no"?>
<svg xmlns:ffdec="https://www.free-decompiler.com/flash" xmlns:xlink="http://www.w3.org/1999/xlink" ffdec:objectType="shape" height="169.05px" width="186.1px" xmlns="http://www.w3.org/2000/svg">
  <g transform="matrix(1.0, 0.0, 0.0, 1.0, 93.5, 126.1)">
    <path d="M-71.45 -87.5 L-71.45 -87.85 -71.6 -88.1 -71.7 -88.8 Q-73.7 -91.0 -68.0 -102.35 -52.0 -119.65 -22.1 -124.8 9.85 -128.9 40.35 -120.05 66.75 -110.05 71.35 -91.7 L70.5 -85.65 Q63.2 -59.4 0.2 -53.7 L-24.1 -55.65 -44.4 -61.2 -60.1 -69.65 -69.75 -80.35 -71.45 -87.5" fill="url(#gradient0)" fill-rule="evenodd" stroke="none"/>
    <path d="M70.5 -85.65 L64.35 -45.6 58.7 -8.8 58.15 -3.35 55.25 9.85 47.6 18.9 35.2 26.05 Q-0.15 38.35 -35.7 26.2 -51.1 19.7 -56.15 9.85 L-58.95 -3.35 -65.25 -45.5 -65.4 -45.5 -71.45 -87.5 -69.75 -80.35 -60.1 -69.65 -44.4 -61.2 -24.1 -55.65 0.2 -53.7 Q63.2 -59.4 70.5 -85.65" fill="url(#gradient1)" fill-rule="evenodd" stroke="none"/>
    <path d="M64.35 -45.6 L72.8 -40.6 86.7 -25.0 92.6 -9.05 89.7 5.7 Q68.85 33.7 0.35 35.7 L-30.95 33.7 -58.0 27.25 -78.3 17.75 -90.35 5.95 -90.6 5.7 -93.5 -8.3 Q-93.15 -21.4 -73.8 -40.5 L-65.4 -45.5 -65.25 -45.5 -58.95 -3.35 -56.15 9.85 Q-51.1 19.7 -35.7 26.2 -0.15 38.35 35.2 26.05 L47.6 18.9 55.25 9.85 58.15 -3.35 58.7 -8.8 64.35 -45.6" fill="url(#gradient2)" fill-rule="evenodd" stroke="none"/>
    <path d="M89.7 5.7 Q63.8 42.05 0.35 42.95 -64.2 42.55 -90.35 5.95 L-78.3 17.75 -58.0 27.25 -30.95 33.7 0.35 35.7 Q68.85 33.7 89.7 5.7" fill="url(#gradient3)" fill-rule="evenodd" stroke="none"/>
  </g>
  <defs>
    <radialGradient cx="0" cy="0" gradientTransform="matrix(0.0875, 0.0, 0.0, 0.0875, -0.45, -91.75)" gradientUnits="userSpaceOnUse" id="gradient0" r="819.2" spreadMethod="pad">
      <stop offset="0.0" stop-color="#ffffff"/>
      <stop offset="1.0" stop-color="#ffffff"/>
    </radialGradient>
    <radialGradient cx="0" cy="0" gradientTransform="matrix(0.1069, 0.0, 0.0, 0.1069, -0.45, -53.75)" gradientUnits="userSpaceOnUse" id="gradient1" r="819.2" spreadMethod="pad">
      <stop offset="0.0" stop-color="#d4d4d4"/>
      <stop offset="1.0" stop-color="#a0a0a0"/>
    </radialGradient>
    <radialGradient cx="0" cy="0" gradientTransform="matrix(0.1852, 0.0, 0.0, 0.1852, -52.25, -48.15)" gradientUnits="userSpaceOnUse" id="gradient2" r="819.2" spreadMethod="pad">
      <stop offset="0.0" stop-color="#ffffff"/>
      <stop offset="1.0" stop-color="#b6b6b6"/>
    </radialGradient>
    <radialGradient cx="0" cy="0" gradientTransform="matrix(0.116, 0.0, 0.0, 0.116, -0.5, 35.6)" gradientUnits="userSpaceOnUse" id="gradient3" r="819.2" spreadMethod="pad">
      <stop offset="0.0" stop-color="#c0c0c0"/>
      <stop offset="1.0" stop-color="#606060"/>
    </radialGradient>
  </defs>
</svg>
