<?xml version="1.0" encoding="UTF-8" standalone="no"?>
<svg xmlns:ffdec="https://www.free-decompiler.com/flash" xmlns:xlink="http://www.w3.org/1999/xlink" ffdec:objectType="shape" height="193.1px" width="156.55px" xmlns="http://www.w3.org/2000/svg">
  <g transform="matrix(1.0, 0.0, 0.0, 1.0, 79.0, 129.85)">
    <path d="M-63.4 -79.15 L-63.95 -81.8 -61.95 -95.75 -54.0 -109.25 -41.9 -119.25 Q-23.55 -129.35 -4.55 -129.85 29.75 -128.25 45.6 -114.8 L56.7 -102.9 Q65.55 -89.9 62.25 -73.75 L62.25 -73.6 Q52.9 -41.55 5.9 -36.0 L-14.85 -37.3 -33.85 -43.4 -49.0 -53.45 -59.55 -66.45 -63.4 -79.15" fill="url(#gradient0)" fill-rule="evenodd" stroke="none"/>
    <path d="M-63.4 -79.15 L-59.55 -66.45 -49.0 -53.45 -33.85 -43.4 -14.85 -37.3 5.9 -36.0 Q52.9 -41.55 62.25 -73.6 L58.8 -50.5 49.85 8.9 Q41.6 30.9 20.8 38.7 4.95 44.0 -11.5 40.8 -37.45 33.8 -48.1 14.3 -53.2 -7.65 -57.1 -35.05 L-58.15 -42.7 -58.25 -42.95 -59.55 -51.95 -63.4 -79.15" fill="url(#gradient1)" fill-rule="evenodd" stroke="none"/>
    <path d="M58.8 -50.5 Q70.7 -42.85 77.2 -20.7 L77.55 1.2 Q64.75 51.1 8.1 61.3 L-17.5 58.4 -41.8 47.15 -47.6 41.75 -61.3 30.25 -72.95 11.8 -73.8 10.9 -74.0 10.6 -79.0 -10.25 -76.2 -30.05 -66.35 -46.85 -59.55 -51.95 -58.25 -42.95 -58.15 -42.7 -57.1 -35.05 Q-53.2 -7.65 -48.1 14.3 -37.45 33.8 -11.5 40.8 4.95 44.0 20.8 38.7 41.6 30.9 49.85 8.9 L58.8 -50.5" fill="url(#gradient2)" fill-rule="evenodd" stroke="none"/>
    <path d="M77.55 1.2 Q64.9 54.95 8.3 63.25 -48.4 63.55 -73.8 10.9 L-72.95 11.8 -61.3 30.25 -47.6 41.75 -41.8 47.15 -17.5 58.4 8.1 61.3 Q64.75 51.1 77.55 1.2" fill="url(#gradient3)" fill-rule="evenodd" stroke="none"/>
  </g>
  <defs>
    <radialGradient cx="0" cy="0" gradientTransform="matrix(0.0778, 0.0, 0.0, 0.0778, -0.45, -85.25)" gradientUnits="userSpaceOnUse" id="gradient0" r="819.2" spreadMethod="pad">
      <stop offset="0.0" stop-color="#ffffff"/>
      <stop offset="1.0" stop-color="#ffffff"/>
    </radialGradient>
    <radialGradient cx="0" cy="0" gradientTransform="matrix(0.1019, 0.0, 0.0, 0.1019, 6.1, -36.1)" gradientUnits="userSpaceOnUse" id="gradient1" r="819.2" spreadMethod="pad">
      <stop offset="0.0" stop-color="#d2d2d2"/>
      <stop offset="1.0" stop-color="#5f5f5f"/>
    </radialGradient>
    <radialGradient cx="0" cy="0" gradientTransform="matrix(0.1778, 0.0, 0.0, 0.1778, 65.6, -29.0)" gradientUnits="userSpaceOnUse" id="gradient2" r="819.2" spreadMethod="pad">
      <stop offset="0.0" stop-color="#ffffff"/>
      <stop offset="1.0" stop-color="#c0c0c0"/>
    </radialGradient>
    <radialGradient cx="0" cy="0" gradientTransform="matrix(0.1177, 0.0, 0.0, 0.1177, 8.15, 61.2)" gradientUnits="userSpaceOnUse" id="gradient3" r="819.2" spreadMethod="pad">
      <stop offset="0.0" stop-color="#aeaeae"/>
      <stop offset="1.0" stop-color="#4c4c4c"/>
    </radialGradient>
  </defs>
</svg>
