<?xml version="1.0" encoding="UTF-8" standalone="no"?>
<svg xmlns:ffdec="https://www.free-decompiler.com/flash" xmlns:xlink="http://www.w3.org/1999/xlink" ffdec:objectType="shape" height="191.9px" width="159.1px" xmlns="http://www.w3.org/2000/svg">
  <g transform="matrix(1.0, 0.0, 0.0, 1.0, 79.55, 129.55)">
    <path d="M-62.2 -73.75 L-64.3 -89.15 -59.55 -103.6 Q-45.05 -123.55 -18.55 -128.65 L1.25 -129.55 Q19.75 -128.65 36.55 -119.55 L51.4 -108.2 Q62.5 -97.25 64.0 -81.15 L63.8 -80.7 63.8 -80.35 63.7 -79.95 63.7 -79.55 63.55 -79.3 63.55 -78.85 63.45 -78.35 63.45 -78.1 63.05 -77.45 61.2 -66.35 52.65 -53.95 38.1 -43.65 19.45 -37.6 -0.6 -36.35 Q-49.8 -41.8 -62.2 -73.75" fill="url(#gradient0)" fill-rule="evenodd" stroke="none"/>
    <path d="M63.45 -78.1 L59.05 -48.95 51.55 0.95 Q50.25 23.55 29.75 35.55 16.05 42.55 -1.4 41.6 L-18.1 38.2 Q-52.6 22.25 -51.8 -2.3 L-51.9 -2.6 -54.0 -17.1 -54.2 -17.8 -56.4 -33.1 -56.4 -33.75 -57.9 -43.25 -58.0 -43.65 -58.0 -44.2 -59.45 -53.8 -62.2 -73.75 Q-49.8 -41.8 -0.6 -36.35 L19.45 -37.6 38.1 -43.65 52.65 -53.95 61.2 -66.35 63.05 -77.45 63.45 -78.1" fill="url(#gradient1)" fill-rule="evenodd" stroke="none"/>
    <path d="M59.05 -48.95 Q75.5 -35.25 79.55 -8.9 L76.9 12.85 75.7 14.4 74.8 16.8 67.7 29.75 66.1 33.3 51.55 46.35 48.4 49.7 25.15 59.05 -1.1 59.45 Q-60.5 45.2 -77.15 -0.45 L-77.25 -0.75 -79.55 -20.7 -74.25 -38.5 -63.4 -51.05 Q-62.75 -52.35 -59.45 -53.8 L-58.0 -44.2 -58.0 -43.65 -57.9 -43.25 -56.4 -33.75 -56.4 -33.1 -54.2 -17.8 -54.0 -17.1 -51.9 -2.6 -51.8 -2.3 Q-52.6 22.25 -18.1 38.2 L-1.4 41.6 Q16.05 42.55 29.75 35.55 50.25 23.55 51.55 0.95 L59.05 -48.95" fill="url(#gradient2)" fill-rule="evenodd" stroke="none"/>
    <path d="M76.9 12.85 Q57.2 66.95 -0.6 61.95 L-25.5 54.7 -46.8 42.55 -48.9 40.8 -65.9 23.55 -75.65 4.4 -77.15 -0.45 Q-60.5 45.2 -1.1 59.45 L25.15 59.05 48.4 49.7 51.55 46.35 66.1 33.3 67.7 29.75 74.8 16.8 75.7 14.4 76.9 12.85" fill="url(#gradient3)" fill-rule="evenodd" stroke="none"/>
  </g>
  <defs>
    <radialGradient cx="0" cy="0" gradientTransform="matrix(0.0787, 0.0, 0.0, 0.0787, -0.45, -85.25)" gradientUnits="userSpaceOnUse" id="gradient0" r="819.2" spreadMethod="pad">
      <stop offset="0.0" stop-color="#ffffff"/>
      <stop offset="1.0" stop-color="#ffffff"/>
    </radialGradient>
    <radialGradient cx="0" cy="0" gradientTransform="matrix(0.097, 0.0, 0.0, 0.097, -1.65, -36.5)" gradientUnits="userSpaceOnUse" id="gradient1" r="819.2" spreadMethod="pad">
      <stop offset="0.0" stop-color="#d2d2d2"/>
      <stop offset="1.0" stop-color="#6f6f6f"/>
    </radialGradient>
    <radialGradient cx="0" cy="0" gradientTransform="matrix(0.1795, 0.0, 0.0, 0.1795, -44.4, -62.05)" gradientUnits="userSpaceOnUse" id="gradient2" r="819.2" spreadMethod="pad">
      <stop offset="0.0" stop-color="#ffffff"/>
      <stop offset="1.0" stop-color="#b8b8b8"/>
    </radialGradient>
    <radialGradient cx="0" cy="0" gradientTransform="matrix(0.1189, 0.0, 0.0, 0.1189, -0.8, 59.4)" gradientUnits="userSpaceOnUse" id="gradient3" r="819.2" spreadMethod="pad">
      <stop offset="0.0" stop-color="#afafaf"/>
      <stop offset="1.0" stop-color="#4a4a4a"/>
    </radialGradient>
  </defs>
</svg>
