<?xml version="1.0" encoding="UTF-8" standalone="no"?>
<svg xmlns:ffdec="https://www.free-decompiler.com/flash" xmlns:xlink="http://www.w3.org/1999/xlink" ffdec:objectType="shape" height="186.0px" width="167.0px" xmlns="http://www.w3.org/2000/svg">
  <g transform="matrix(1.0, 0.0, 0.0, 1.0, 83.5, 128.4)">
    <path d="M-65.9 -84.6 L-65.9 -84.85 -66.05 -85.1 -66.15 -85.75 Q-67.9 -87.85 -63.55 -102.1 L-54.2 -113.9 Q-30.25 -130.0 -2.7 -128.25 L16.55 -125.35 Q35.45 -120.6 50.1 -108.6 L61.2 -95.75 66.2 -82.05 64.9 -67.7 Q52.75 -37.3 1.0 -38.2 -32.05 -41.95 -53.75 -60.8 L-63.4 -74.1 -65.9 -84.6" fill="url(#gradient0)" fill-rule="evenodd" stroke="none"/>
    <path d="M-65.9 -84.6 L-63.4 -74.1 -53.75 -60.8 Q-32.05 -41.95 1.0 -38.2 52.75 -37.3 64.9 -67.7 L61.45 -46.05 51.7 14.95 Q47.45 27.0 33.75 34.2 1.7 44.8 -16.25 36.35 -51.65 22.6 -53.75 -3.9 L-53.75 -4.3 -58.5 -35.3 -58.65 -35.6 -59.05 -38.2 -59.05 -38.9 -61.3 -53.0 -65.9 -84.6" fill="url(#gradient1)" fill-rule="evenodd" stroke="none"/>
    <path d="M61.45 -46.05 Q79.6 -29.2 83.5 -7.6 L82.55 14.05 Q81.15 15.85 72.55 34.2 L55.55 48.5 32.55 55.25 6.55 54.2 Q-51.85 42.2 -74.75 6.6 L-76.2 4.3 -79.1 -1.0 -83.5 -19.2 -79.8 -35.3 Q-66.35 -53.45 -61.3 -53.0 L-59.05 -38.9 -59.05 -38.2 -58.65 -35.6 -58.5 -35.3 -53.75 -4.3 -53.75 -3.9 Q-51.65 22.6 -16.25 36.35 1.7 44.8 33.75 34.2 47.45 27.0 51.7 14.95 L61.45 -46.05" fill="url(#gradient2)" fill-rule="evenodd" stroke="none"/>
    <path d="M82.55 14.05 L72.0 36.35 55.25 50.35 32.4 57.6 6.0 57.1 Q-47.2 52.05 -74.75 6.6 -51.85 42.2 6.55 54.2 L32.55 55.25 55.55 48.5 72.55 34.2 Q81.15 15.85 82.55 14.05" fill="url(#gradient3)" fill-rule="evenodd" stroke="none"/>
  </g>
  <defs>
    <radialGradient cx="0" cy="0" gradientTransform="matrix(0.0824, 0.0, 0.0, 0.0824, -0.45, -85.25)" gradientUnits="userSpaceOnUse" id="gradient0" r="819.2" spreadMethod="pad">
      <stop offset="0.0" stop-color="#ffffff"/>
      <stop offset="1.0" stop-color="#ffffff"/>
    </radialGradient>
    <radialGradient cx="0" cy="0" gradientTransform="matrix(0.1048, 0.0, 0.0, 0.1048, 2.7, -38.05)" gradientUnits="userSpaceOnUse" id="gradient1" r="819.2" spreadMethod="pad">
      <stop offset="0.0" stop-color="#d2d2d2"/>
      <stop offset="1.0" stop-color="#767676"/>
    </radialGradient>
    <radialGradient cx="0" cy="0" gradientTransform="matrix(0.1968, 0.0, 0.0, 0.1968, -67.4, -44.9)" gradientUnits="userSpaceOnUse" id="gradient2" r="819.2" spreadMethod="pad">
      <stop offset="0.0" stop-color="#ffffff"/>
      <stop offset="1.0" stop-color="#d5d5d5"/>
    </radialGradient>
    <radialGradient cx="0" cy="0" gradientTransform="matrix(0.1235, 0.0, 0.0, 0.1235, 5.65, 54.0)" gradientUnits="userSpaceOnUse" id="gradient3" r="819.2" spreadMethod="pad">
      <stop offset="0.0" stop-color="#b5b5b5"/>
      <stop offset="1.0" stop-color="#636363"/>
    </radialGradient>
  </defs>
</svg>
