<?xml version="1.0" encoding="UTF-8" standalone="no"?>
<svg xmlns:ffdec="https://www.free-decompiler.com/flash" xmlns:xlink="http://www.w3.org/1999/xlink" ffdec:objectType="shape" height="182.6px" width="172.05px" xmlns="http://www.w3.org/2000/svg">
  <g transform="matrix(1.0, 0.0, 0.0, 1.0, 85.35, 127.35)">
    <path d="M-66.85 -80.35 L-67.5 -94.7 Q-62.35 -106.45 -60.9 -107.9 -39.75 -127.1 -13.55 -127.35 L7.5 -126.15 25.15 -121.9 42.85 -113.7 56.95 -102.55 65.65 -89.35 67.95 -75.05 67.55 -72.75 Q62.05 -43.95 12.5 -39.15 -6.75 -37.95 -27.65 -45.35 L-46.8 -55.0 -60.0 -67.15 -66.85 -80.35" fill="url(#gradient0)" fill-rule="evenodd" stroke="none"/>
    <path d="M-66.85 -80.35 L-60.0 -67.15 -46.8 -55.0 -27.65 -45.35 Q-6.75 -37.95 12.5 -39.15 62.05 -43.95 67.55 -72.75 L62.95 -43.75 54.5 8.0 50.6 19.6 41.65 29.35 28.45 36.05 11.95 39.25 Q-6.25 39.9 -22.85 32.9 L-37.55 24.6 -48.4 14.05 -48.75 12.55 -54.0 2.7 -57.6 -20.15 -57.6 -20.7 -59.55 -33.2 -59.75 -33.45 -62.65 -52.65 -62.75 -52.65 -66.85 -80.35" fill="url(#gradient1)" fill-rule="evenodd" stroke="none"/>
    <path d="M62.95 -43.75 L71.2 -36.65 82.85 -17.9 86.7 2.7 86.7 3.85 81.75 23.95 80.45 25.15 68.45 40.2 47.7 49.95 22.65 52.15 -6.75 48.35 Q-61.25 32.7 -79.35 1.5 -82.15 -3.4 -84.1 -8.65 L-84.3 -8.8 -85.35 -25.8 Q-78.75 -43.6 -62.75 -52.65 L-62.65 -52.65 -59.75 -33.45 -59.55 -33.2 -57.6 -20.7 -57.6 -20.15 -54.0 2.7 -48.75 12.55 -48.4 14.05 -37.55 24.6 -22.85 32.9 Q-6.25 39.9 11.95 39.25 L28.45 36.05 41.65 29.35 50.6 19.6 54.5 8.0 62.95 -43.75" fill="url(#gradient2)" fill-rule="evenodd" stroke="none"/>
    <path d="M81.75 23.95 L80.45 26.85 67.4 42.55 47.35 52.35 21.3 55.25 -6.0 52.85 Q-57.1 43.4 -79.35 1.5 -61.25 32.7 -6.75 48.35 L22.65 52.15 47.7 49.95 68.45 40.2 80.45 25.15 81.75 23.95" fill="url(#gradient3)" fill-rule="evenodd" stroke="none"/>
  </g>
  <defs>
    <radialGradient cx="0" cy="0" gradientTransform="matrix(0.0843, 0.0, 0.0, 0.0843, -0.45, -85.25)" gradientUnits="userSpaceOnUse" id="gradient0" r="819.2" spreadMethod="pad">
      <stop offset="0.0" stop-color="#ffffff"/>
      <stop offset="1.0" stop-color="#ffffff"/>
    </radialGradient>
    <radialGradient cx="0" cy="0" gradientTransform="matrix(0.1127, 0.0, 0.0, 0.1127, 15.2, -39.15)" gradientUnits="userSpaceOnUse" id="gradient1" r="819.2" spreadMethod="pad">
      <stop offset="0.0" stop-color="#d2d2d2"/>
      <stop offset="1.0" stop-color="#646464"/>
    </radialGradient>
    <radialGradient cx="0" cy="0" gradientTransform="matrix(0.183, 0.0, 0.0, 0.183, -43.15, -58.2)" gradientUnits="userSpaceOnUse" id="gradient2" r="819.2" spreadMethod="pad">
      <stop offset="0.0" stop-color="#ffffff"/>
      <stop offset="1.0" stop-color="#d5d5d5"/>
    </radialGradient>
    <radialGradient cx="0" cy="0" gradientTransform="matrix(0.1499, 0.0, 0.0, 0.1499, 21.75, 52.1)" gradientUnits="userSpaceOnUse" id="gradient3" r="819.2" spreadMethod="pad">
      <stop offset="0.0" stop-color="#b7b7b7"/>
      <stop offset="1.0" stop-color="#5e5e5e"/>
    </radialGradient>
  </defs>
</svg>
