<?xml version="1.0" encoding="UTF-8" standalone="no"?>
<svg xmlns:ffdec="https://www.free-decompiler.com/flash" xmlns:xlink="http://www.w3.org/1999/xlink" ffdec:objectType="shape" height="180.75px" width="175.05px" xmlns="http://www.w3.org/2000/svg">
  <g transform="matrix(1.0, 0.0, 0.0, 1.0, 87.2, 127.1)">
    <path d="M68.2 -75.95 L66.2 -65.95 56.7 -53.95 41.8 -45.35 21.6 -40.25 -1.1 -39.8 Q-51.55 -46.55 -66.7 -77.3 L-68.8 -91.2 Q-67.65 -104.4 -54.45 -114.4 L-39.25 -122.15 Q-14.25 -128.6 0.2 -126.65 30.6 -123.4 54.2 -105.7 68.35 -92.55 68.45 -77.3 L68.2 -76.15 68.2 -75.95" fill="url(#gradient0)" fill-rule="evenodd" stroke="none"/>
    <path d="M-66.7 -77.3 Q-51.55 -46.55 -1.1 -39.8 L21.6 -40.25 41.8 -45.35 56.7 -53.95 66.2 -65.95 68.2 -75.95 63.05 -44.3 55.1 4.65 52.9 14.85 52.9 16.25 45.1 26.55 32.05 34.4 16.55 38.35 Q-4.65 39.65 -20.75 33.15 -54.55 20.65 -55.75 -6.95 L-55.75 -7.35 -55.85 -7.75 -62.75 -52.1 -66.7 -77.3" fill="url(#gradient1)" fill-rule="evenodd" stroke="none"/>
    <path d="M-62.75 -52.1 L-55.85 -7.75 -55.75 -7.35 -55.75 -6.95 Q-54.55 20.65 -20.75 33.15 -4.65 39.65 16.55 38.35 L32.05 34.4 45.1 26.55 52.9 16.25 52.9 14.85 55.1 4.65 63.05 -44.3 67.95 -40.85 81.75 -22.65 87.85 -2.05 85.2 18.65 83.9 20.1 73.75 35.7 54.85 46.5 30.3 50.5 1.25 48.5 Q-60.9 35.15 -81.75 -0.05 L-83.0 -2.3 -83.85 -3.9 -87.2 -20.45 -81.9 -35.45 -69.35 -48.25 Q-66.0 -50.15 -62.75 -52.1" fill="url(#gradient2)" fill-rule="evenodd" stroke="none"/>
    <path d="M-81.75 -0.05 Q-60.9 35.15 1.25 48.5 L30.3 50.5 54.85 46.5 73.75 35.7 83.9 20.1 85.2 18.65 83.9 21.45 72.8 37.9 54.5 48.9 28.45 53.65 1.0 52.95 Q-55.65 46.25 -81.75 -0.05" fill="url(#gradient3)" fill-rule="evenodd" stroke="none"/>
  </g>
  <defs>
    <radialGradient cx="0" cy="0" gradientTransform="matrix(0.0847, 0.0, 0.0, 0.0847, -0.45, -85.25)" gradientUnits="userSpaceOnUse" id="gradient0" r="819.2" spreadMethod="pad">
      <stop offset="0.0" stop-color="#ffffff"/>
      <stop offset="1.0" stop-color="#ffffff"/>
    </radialGradient>
    <radialGradient cx="0" cy="0" gradientTransform="matrix(0.1037, 0.0, 0.0, 0.1037, -0.95, -39.95)" gradientUnits="userSpaceOnUse" id="gradient1" r="819.2" spreadMethod="pad">
      <stop offset="0.0" stop-color="#d1d1d1"/>
      <stop offset="1.0" stop-color="#737373"/>
    </radialGradient>
    <radialGradient cx="0" cy="0" gradientTransform="matrix(0.188, 0.0, 0.0, 0.188, -49.65, -55.5)" gradientUnits="userSpaceOnUse" id="gradient2" r="819.2" spreadMethod="pad">
      <stop offset="0.0" stop-color="#ffffff"/>
      <stop offset="1.0" stop-color="#dadada"/>
    </radialGradient>
    <radialGradient cx="0" cy="0" gradientTransform="matrix(0.1221, 0.0, 0.0, 0.1221, 1.05, 48.35)" gradientUnits="userSpaceOnUse" id="gradient3" r="819.2" spreadMethod="pad">
      <stop offset="0.0" stop-color="#b8b8b8"/>
      <stop offset="1.0" stop-color="#686868"/>
    </radialGradient>
  </defs>
</svg>
