<?xml version="1.0" encoding="UTF-8" standalone="no"?>
<svg xmlns:ffdec="https://www.free-decompiler.com/flash" xmlns:xlink="http://www.w3.org/1999/xlink" ffdec:objectType="shape" height="178.0px" width="179.0px" xmlns="http://www.w3.org/2000/svg">
  <g transform="matrix(1.0, 0.0, 0.0, 1.0, 89.15, 126.2)">
    <path d="M-69.6 -82.2 L-69.75 -82.3 -69.05 -96.45 -61.7 -108.2 Q-35.8 -127.2 -9.55 -126.15 30.8 -123.5 47.45 -111.5 71.15 -95.05 69.65 -73.35 62.0 -44.2 10.5 -40.5 L-11.8 -42.05 -33.7 -48.15 -51.65 -57.9 -63.95 -69.65 -69.6 -82.2" fill="url(#gradient0)" fill-rule="evenodd" stroke="none"/>
    <path d="M-69.6 -82.2 L-63.95 -69.65 -51.65 -57.9 -33.7 -48.15 -11.8 -42.05 10.5 -40.5 Q62.0 -44.2 69.65 -73.35 L64.75 -43.9 Q56.6 15.3 50.5 20.75 36.35 36.35 8.0 37.65 -20.0 36.45 -41.25 22.5 -53.7 12.8 -56.3 0.95 L-64.75 -51.05 -69.6 -82.2" fill="url(#gradient1)" fill-rule="evenodd" stroke="none"/>
    <path d="M64.75 -43.9 L77.45 -32.4 88.0 -12.9 89.85 7.7 82.85 25.65 Q55.0 56.55 -13.0 43.6 L-41.5 34.4 -65.0 21.55 -78.45 8.35 -81.1 6.25 -88.25 -8.3 -88.35 -8.4 -88.75 -9.2 -89.15 -9.95 -87.95 -25.45 -78.85 -39.7 -64.75 -51.05 -56.3 0.95 Q-53.7 12.8 -41.25 22.5 -20.0 36.45 8.0 37.65 36.35 36.35 50.5 20.75 56.6 15.3 64.75 -43.9" fill="url(#gradient2)" fill-rule="evenodd" stroke="none"/>
    <path d="M82.85 25.65 L81.65 28.05 66.1 41.5 44.2 48.65 42.05 49.15 16.55 51.8 -12.3 49.0 Q-61.1 38.55 -81.1 6.25 -85.3 -0.5 -88.25 -8.3 L-81.1 6.25 -78.45 8.35 -65.0 21.55 -41.5 34.4 -13.0 43.6 Q55.0 56.55 82.85 25.65" fill="url(#gradient3)" fill-rule="evenodd" stroke="none"/>
  </g>
  <defs>
    <radialGradient cx="0" cy="0" gradientTransform="matrix(0.0867, 0.0, 0.0, 0.0867, -0.45, -85.25)" gradientUnits="userSpaceOnUse" id="gradient0" r="819.2" spreadMethod="pad">
      <stop offset="0.0" stop-color="#ffffff"/>
      <stop offset="1.0" stop-color="#ffffff"/>
    </radialGradient>
    <radialGradient cx="0" cy="0" gradientTransform="matrix(0.1118, 0.0, 0.0, 0.1118, 11.2, -40.6)" gradientUnits="userSpaceOnUse" id="gradient1" r="819.2" spreadMethod="pad">
      <stop offset="0.0" stop-color="#d3d3d3"/>
      <stop offset="1.0" stop-color="#6a6a6a"/>
    </radialGradient>
    <radialGradient cx="0" cy="0" gradientTransform="matrix(0.1984, 0.0, 0.0, 0.1984, -61.55, -49.05)" gradientUnits="userSpaceOnUse" id="gradient2" r="819.2" spreadMethod="pad">
      <stop offset="0.0" stop-color="#ffffff"/>
      <stop offset="1.0" stop-color="#bebebe"/>
    </radialGradient>
    <radialGradient cx="0" cy="0" gradientTransform="matrix(0.1465, 0.0, 0.0, 0.1465, 16.45, 47.25)" gradientUnits="userSpaceOnUse" id="gradient3" r="819.2" spreadMethod="pad">
      <stop offset="0.0" stop-color="#bbbbbb"/>
      <stop offset="1.0" stop-color="#6e6e6e"/>
    </radialGradient>
  </defs>
</svg>
