<?xml version="1.0" encoding="UTF-8" standalone="no"?>
<svg xmlns:ffdec="https://www.free-decompiler.com/flash" xmlns:xlink="http://www.w3.org/1999/xlink" ffdec:objectType="shape" height="176.25px" width="181.35px" xmlns="http://www.w3.org/2000/svg">
  <g transform="matrix(1.0, 0.0, 0.0, 1.0, 90.2, 125.65)">
    <path d="M70.6 -77.05 L66.6 -65.15 55.0 -53.55 38.2 -45.5 17.6 -41.4 -6.65 -41.65 -28.3 -46.3 -47.7 -54.75 -61.95 -66.2 -69.05 -78.35 -69.5 -78.5 -70.55 -92.75 -64.75 -104.75 -52.95 -114.8 Q-38.85 -123.25 -16.8 -125.5 16.35 -126.9 43.75 -114.0 71.2 -96.35 70.6 -77.05" fill="url(#gradient0)" fill-rule="evenodd" stroke="none"/>
    <path d="M-69.5 -78.5 L-69.05 -78.35 -61.95 -66.2 -47.7 -54.75 -28.3 -46.3 -6.65 -41.65 17.6 -41.4 38.2 -45.5 55.0 -53.55 66.6 -65.15 70.6 -77.05 65.05 -44.2 57.1 2.15 57.2 3.05 56.7 5.85 53.15 17.05 43.9 26.85 30.2 33.7 12.6 37.0 -5.2 36.35 -22.75 32.25 -38.45 24.9 -49.8 15.5 -51.65 11.7 -56.05 4.55 -56.3 2.8 -56.4 2.45 -58.0 -7.25 -58.0 -7.75 -63.4 -40.85 -63.55 -41.1 -63.55 -41.8 -63.7 -42.05 -64.3 -46.05 -64.3 -46.4 -65.0 -50.1 -65.0 -50.65 -65.1 -50.65 -69.5 -78.5" fill="url(#gradient1)" fill-rule="evenodd" stroke="none"/>
    <path d="M-65.1 -50.65 L-65.0 -50.65 -65.0 -50.1 -64.3 -46.4 -64.3 -46.05 -63.7 -42.05 -63.55 -41.8 -63.55 -41.1 -63.4 -40.85 -58.0 -7.75 -58.0 -7.25 -56.4 2.45 -56.3 2.8 -56.05 4.55 -51.65 11.7 -49.8 15.5 -38.45 24.9 -22.75 32.25 -5.2 36.35 12.6 37.0 30.2 33.7 43.9 26.85 53.15 17.05 56.7 5.85 57.2 3.05 57.1 2.15 65.05 -44.2 74.4 -37.05 86.95 -18.4 91.15 1.75 86.25 20.4 Q62.25 53.1 -6.15 44.15 L-35.3 36.75 -60.35 25.5 -78.85 11.0 -85.45 0.45 -88.85 -4.3 -90.2 -19.65 Q-84.4 -37.6 -65.1 -50.65" fill="url(#gradient2)" fill-rule="evenodd" stroke="none"/>
    <path d="M86.25 20.4 L85.1 22.75 71.65 36.85 50.8 45.55 22.9 50.6 -5.6 49.55 Q-65.65 41.5 -88.85 -4.3 L-85.45 0.45 -78.85 11.0 -60.35 25.5 -35.3 36.75 -6.15 44.15 Q62.25 53.1 86.25 20.4" fill="url(#gradient3)" fill-rule="evenodd" stroke="none"/>
  </g>
  <defs>
    <radialGradient cx="0" cy="0" gradientTransform="matrix(0.0873, 0.0, 0.0, 0.0873, -0.45, -85.25)" gradientUnits="userSpaceOnUse" id="gradient0" r="819.2" spreadMethod="pad">
      <stop offset="0.0" stop-color="#ffffff"/>
      <stop offset="1.0" stop-color="#ffffff"/>
    </radialGradient>
    <radialGradient cx="0" cy="0" gradientTransform="matrix(0.1155, 0.0, 0.0, 0.1155, 17.1, -41.45)" gradientUnits="userSpaceOnUse" id="gradient1" r="819.2" spreadMethod="pad">
      <stop offset="0.0" stop-color="#d1d1d1"/>
      <stop offset="1.0" stop-color="#6c6c6c"/>
    </radialGradient>
    <radialGradient cx="0" cy="0" gradientTransform="matrix(0.1871, 0.0, 0.0, 0.1871, -46.6, -56.15)" gradientUnits="userSpaceOnUse" id="gradient2" r="819.2" spreadMethod="pad">
      <stop offset="0.0" stop-color="#ffffff"/>
      <stop offset="1.0" stop-color="#d8d8d8"/>
    </radialGradient>
    <radialGradient cx="0" cy="0" gradientTransform="matrix(0.1174, 0.0, 0.0, 0.1174, -6.05, 44.05)" gradientUnits="userSpaceOnUse" id="gradient3" r="819.2" spreadMethod="pad">
      <stop offset="0.0" stop-color="#bababa"/>
      <stop offset="1.0" stop-color="#5b5b5b"/>
    </radialGradient>
  </defs>
</svg>
