<?xml version="1.0" encoding="UTF-8" standalone="no"?>
<svg xmlns:ffdec="https://www.free-decompiler.com/flash" xmlns:xlink="http://www.w3.org/1999/xlink" ffdec:objectType="shape" height="174.65px" width="184.0px" xmlns="http://www.w3.org/2000/svg">
  <g transform="matrix(1.0, 0.0, 0.0, 1.0, 92.45, 125.4)">
    <path d="M-71.6 -82.75 L-71.7 -83.0 -72.0 -84.85 -69.5 -97.25 -60.25 -108.7 Q-29.75 -126.9 -5.7 -125.25 34.25 -122.7 52.45 -109.75 L64.9 -98.65 71.1 -86.0 70.3 -72.8 Q58.45 -44.05 4.85 -41.65 -30.9 -42.65 -56.8 -59.85 L-67.65 -71.4 -71.6 -82.75" fill="url(#gradient0)" fill-rule="evenodd" stroke="none"/>
    <path d="M-71.6 -82.75 L-67.65 -71.4 -56.8 -59.85 Q-30.9 -42.65 4.85 -41.65 58.45 -44.05 70.3 -72.8 L65.85 -46.05 56.15 10.35 Q52.75 21.55 37.7 29.45 6.0 43.2 -30.95 29.45 -48.25 22.1 -54.3 11.25 L-55.0 8.25 -55.75 6.9 -58.25 -1.5 -62.2 -25.55 -62.35 -26.1 -66.15 -49.05 -71.6 -82.75" fill="url(#gradient1)" fill-rule="evenodd" stroke="none"/>
    <path d="M65.85 -46.05 Q82.1 -34.9 91.55 -9.2 L91.0 9.15 Q88.6 15.0 84.65 19.9 65.0 44.2 8.3 43.9 L-22.1 40.3 -49.95 32.25 -72.4 20.25 -82.8 9.85 -86.75 6.4 -92.45 -8.65 -89.15 -24.5 -77.8 -40.35 -66.15 -49.05 -62.35 -26.1 -62.2 -25.55 -58.25 -1.5 -55.75 6.9 -55.0 8.25 -54.3 11.25 Q-48.25 22.1 -30.95 29.45 6.0 43.2 37.7 29.45 52.75 21.55 56.15 10.35 L65.85 -46.05" fill="url(#gradient2)" fill-rule="evenodd" stroke="none"/>
    <path d="M84.65 19.9 L80.35 27.1 62.4 38.45 36.55 46.65 8.8 49.25 Q-54.0 49.25 -86.75 6.4 L-82.8 9.85 -72.4 20.25 -49.95 32.25 -22.1 40.3 8.3 43.9 Q65.0 44.2 84.65 19.9" fill="url(#gradient3)" fill-rule="evenodd" stroke="none"/>
  </g>
  <defs>
    <radialGradient cx="0" cy="0" gradientTransform="matrix(0.0876, 0.0, 0.0, 0.0876, -0.45, -85.25)" gradientUnits="userSpaceOnUse" id="gradient0" r="819.2" spreadMethod="pad">
      <stop offset="0.0" stop-color="#ffffff"/>
      <stop offset="1.0" stop-color="#ffffff"/>
    </radialGradient>
    <radialGradient cx="0" cy="0" gradientTransform="matrix(0.1083, 0.0, 0.0, 0.1083, 5.75, -41.75)" gradientUnits="userSpaceOnUse" id="gradient1" r="819.2" spreadMethod="pad">
      <stop offset="0.0" stop-color="#d4d4d4"/>
      <stop offset="1.0" stop-color="#6d6d6d"/>
    </radialGradient>
    <radialGradient cx="0" cy="0" gradientTransform="matrix(0.1959, 0.0, 0.0, 0.1959, -58.2, -50.1)" gradientUnits="userSpaceOnUse" id="gradient2" r="819.2" spreadMethod="pad">
      <stop offset="0.0" stop-color="#ffffff"/>
      <stop offset="1.0" stop-color="#c3c3c3"/>
    </radialGradient>
    <radialGradient cx="0" cy="0" gradientTransform="matrix(0.1253, 0.0, 0.0, 0.1253, 8.7, 43.8)" gradientUnits="userSpaceOnUse" id="gradient3" r="819.2" spreadMethod="pad">
      <stop offset="0.0" stop-color="#bebebe"/>
      <stop offset="1.0" stop-color="#6a6a6a"/>
    </radialGradient>
  </defs>
</svg>
