<?xml version="1.0" encoding="UTF-8" standalone="no"?>
<svg xmlns:ffdec="https://www.free-decompiler.com/flash" xmlns:xlink="http://www.w3.org/1999/xlink" ffdec:objectType="shape" height="173.6px" width="184.9px" xmlns="http://www.w3.org/2000/svg">
  <g transform="matrix(1.0, 0.0, 0.0, 1.0, 92.55, 124.75)">
    <path d="M-71.7 -79.55 L-72.0 -80.2 -71.1 -93.3 -63.55 -105.15 -50.35 -114.65 Q-21.5 -125.5 -8.8 -124.7 31.6 -123.75 49.2 -112.4 L62.25 -102.55 70.4 -89.85 71.35 -76.75 Q62.25 -47.35 10.75 -42.2 -25.35 -41.1 -53.4 -56.7 L-65.65 -67.4 -71.7 -79.55" fill="url(#gradient0)" fill-rule="evenodd" stroke="none"/>
    <path d="M-71.7 -79.55 L-65.65 -67.4 -53.4 -56.7 Q-25.35 -41.1 10.75 -42.2 62.25 -47.35 71.35 -76.75 L66.1 -46.05 57.2 6.4 Q53.45 19.6 41.55 26.7 18.8 37.75 -8.9 35.3 -31.45 32.0 -43.35 22.85 -54.8 13.0 -54.45 10.45 -59.5 0.05 -59.2 -4.05 L-66.7 -48.8 -71.7 -79.55" fill="url(#gradient1)" fill-rule="evenodd" stroke="none"/>
    <path d="M66.1 -46.05 L80.35 -33.45 90.5 -15.25 92.35 3.35 84.95 19.05 Q54.75 48.2 -14.7 41.5 L-43.45 35.45 -67.9 24.9 -77.15 17.2 Q-80.6 14.7 -84.0 12.15 L-84.65 11.7 -85.35 10.25 -88.5 3.75 Q-89.2 3.65 -90.4 1.15 L-91.25 -0.75 -91.4 -0.9 -91.5 -1.15 -91.65 -1.4 -91.8 -1.7 -92.2 -2.3 -92.55 -3.1 -91.25 -19.35 -81.75 -35.6 -66.7 -48.8 -59.2 -4.05 Q-59.5 0.05 -54.45 10.45 -54.8 13.0 -43.35 22.85 -31.45 32.0 -8.9 35.3 18.8 37.75 41.55 26.7 53.45 19.6 57.2 6.4 L66.1 -46.05" fill="url(#gradient2)" fill-rule="evenodd" stroke="none"/>
    <path d="M84.95 19.05 Q49.75 54.95 -14.05 47.6 -64.1 39.55 -84.0 12.15 -80.6 14.7 -77.15 17.2 L-67.9 24.9 -43.45 35.45 -14.7 41.5 Q54.75 48.2 84.95 19.05 M-85.35 10.25 Q-88.25 5.9 -90.4 1.15 -89.2 3.65 -88.5 3.75 L-85.35 10.25" fill="url(#gradient3)" fill-rule="evenodd" stroke="none"/>
  </g>
  <defs>
    <radialGradient cx="0" cy="0" gradientTransform="matrix(0.0882, 0.0, 0.0, 0.0882, -0.45, -85.25)" gradientUnits="userSpaceOnUse" id="gradient0" r="819.2" spreadMethod="pad">
      <stop offset="0.0" stop-color="#ffffff"/>
      <stop offset="1.0" stop-color="#ffffff"/>
    </radialGradient>
    <radialGradient cx="0" cy="0" gradientTransform="matrix(0.112, 0.0, 0.0, 0.112, 11.55, -42.3)" gradientUnits="userSpaceOnUse" id="gradient1" r="819.2" spreadMethod="pad">
      <stop offset="0.0" stop-color="#d3d3d3"/>
      <stop offset="1.0" stop-color="#696969"/>
    </radialGradient>
    <radialGradient cx="0" cy="0" gradientTransform="matrix(0.1996, 0.0, 0.0, 0.1996, -63.5, -46.5)" gradientUnits="userSpaceOnUse" id="gradient2" r="819.2" spreadMethod="pad">
      <stop offset="0.0" stop-color="#ffffff"/>
      <stop offset="1.0" stop-color="#c6c6c6"/>
    </radialGradient>
    <radialGradient cx="0" cy="0" gradientTransform="matrix(0.1439, 0.0, 0.0, 0.1439, 16.0, 42.95)" gradientUnits="userSpaceOnUse" id="gradient3" r="819.2" spreadMethod="pad">
      <stop offset="0.0" stop-color="#bebebe"/>
      <stop offset="1.0" stop-color="#787878"/>
    </radialGradient>
  </defs>
</svg>
