<?xml version="1.0" encoding="UTF-8" standalone="no"?>
<svg xmlns:ffdec="https://www.free-decompiler.com/flash" xmlns:xlink="http://www.w3.org/1999/xlink" ffdec:objectType="shape" height="118.15px" width="184.65px" xmlns="http://www.w3.org/2000/svg">
  <g transform="matrix(1.0, 0.0, 0.0, 1.0, 92.85, 117.85)">
    <path d="M59.05 -20.25 L28.85 -22.55 -1.75 -23.45 -36.25 -22.1 -60.0 -20.25 -67.4 -111.85 -65.25 -113.9 -56.95 -115.55 Q-7.9 -120.0 55.1 -115.75 65.95 -114.4 66.45 -111.85 L59.05 -20.25 M-33.35 -1.4 L-23.55 -2.05 21.6 -2.05 32.4 -1.4 -33.35 -1.4" fill="url(#gradient0)" fill-rule="evenodd" stroke="none"/>
    <path d="M32.85 -1.15 L37.3 -1.25 32.4 -1.4 21.6 -2.05 -23.55 -2.05 -33.35 -1.4 -38.2 -1.25 -33.7 -1.15 -68.8 0.3 Q-83.85 -1.4 -91.0 -7.05 -91.95 -7.25 -92.85 -11.45 -90.45 -15.55 -60.0 -20.25 L-36.25 -22.1 -1.75 -23.45 28.85 -22.55 59.05 -20.25 77.0 -17.35 89.7 -13.3 Q93.65 -12.75 90.1 -7.05 83.0 -1.25 67.8 0.3 L32.85 -1.15" fill="url(#gradient1)" fill-rule="evenodd" stroke="none"/>
    <path d="M32.4 -1.4 L37.3 -1.25 32.85 -1.15 -33.7 -1.15 -38.2 -1.25 -33.35 -1.4 32.4 -1.4" fill="url(#gradient2)" fill-rule="evenodd" stroke="none"/>
  </g>
  <defs>
    <radialGradient cx="0" cy="0" gradientTransform="matrix(0.1595, 0.0, 0.0, 0.1595, -0.45, -118.45)" gradientUnits="userSpaceOnUse" id="gradient0" r="819.2" spreadMethod="pad">
      <stop offset="0.0" stop-color="#d4d4d4"/>
      <stop offset="1.0" stop-color="#6a6a6a"/>
    </radialGradient>
    <radialGradient cx="0" cy="0" gradientTransform="matrix(0.2198, 0.0, 0.0, 0.2198, 87.1, -5.5)" gradientUnits="userSpaceOnUse" id="gradient1" r="819.2" spreadMethod="pad">
      <stop offset="0.0" stop-color="#ffffff"/>
      <stop offset="1.0" stop-color="#050505"/>
    </radialGradient>
    <radialGradient cx="0" cy="0" gradientTransform="matrix(0.0797, 0.0, 0.0, 0.0797, 16.65, -1.25)" gradientUnits="userSpaceOnUse" id="gradient2" r="819.2" spreadMethod="pad">
      <stop offset="0.0" stop-color="#ffffff"/>
      <stop offset="1.0" stop-color="#000000"/>
    </radialGradient>
  </defs>
</svg>
