<?xml version="1.0" encoding="UTF-8" standalone="no"?>
<svg xmlns:ffdec="https://www.free-decompiler.com/flash" xmlns:xlink="http://www.w3.org/1999/xlink" ffdec:objectType="shape" height="197.5px" width="157.1px" xmlns="http://www.w3.org/2000/svg">
  <g transform="matrix(1.0, 0.0, 0.0, 1.0, 79.0, 128.0)">
    <path d="M-61.85 -60.65 L-64.3 -78.0 -60.5 -93.8 -51.0 -107.8 -36.25 -119.0 Q-22.1 -127.2 -0.7 -128.0 L19.1 -125.5 Q37.15 -120.85 50.0 -107.9 L59.6 -93.8 Q66.05 -80.7 61.2 -61.35 44.8 -25.3 -0.15 -23.15 -48.1 -26.25 -61.85 -60.65" fill="url(#gradient0)" fill-rule="evenodd" stroke="none"/>
    <path d="M-61.85 -60.65 Q-48.1 -26.25 -0.15 -23.15 44.8 -25.3 61.2 -61.35 L59.85 -53.25 49.2 10.35 48.4 13.35 41.65 26.2 30.45 36.6 16.2 43.2 -0.95 45.55 -16.7 43.35 -31.2 36.6 -42.65 25.65 -49.7 12.75 -49.95 11.0 -49.95 10.6 -54.0 -13.3 -54.0 -13.85 -56.65 -29.15 -56.8 -29.75 -58.65 -41.1 -58.8 -41.55 -58.8 -42.05 -58.95 -42.35 -60.8 -53.25 -61.85 -60.65" fill="url(#gradient1)" fill-rule="evenodd" stroke="none"/>
    <path d="M59.85 -53.25 Q75.5 -38.3 78.1 -14.1 L75.6 9.15 70.6 21.55 Q50.3 62.15 -0.15 67.9 L-26.3 63.0 -49.0 49.55 -50.35 47.7 -66.35 30.55 -75.05 11.5 -76.1 10.1 -76.45 9.15 -79.0 -12.9 -76.9 -22.8 Q-77.45 -33.75 -60.8 -53.25 L-58.95 -42.35 -58.8 -42.05 -58.8 -41.55 -58.65 -41.1 -56.8 -29.75 -56.65 -29.15 -54.0 -13.85 -54.0 -13.3 -49.95 10.6 -49.95 11.0 -49.7 12.75 -42.65 25.65 -31.2 36.6 -16.7 43.35 -0.95 45.55 16.2 43.2 30.45 36.6 41.65 26.2 48.4 13.35 49.2 10.35 59.85 -53.25" fill="url(#gradient2)" fill-rule="evenodd" stroke="none"/>
    <path d="M70.6 21.55 Q50.15 65.3 0.1 69.5 -57.7 65.0 -76.1 10.1 L-75.05 11.5 -66.35 30.55 -50.35 47.7 -49.0 49.55 -26.3 63.0 -0.15 67.9 Q50.3 62.15 70.6 21.55" fill="url(#gradient3)" fill-rule="evenodd" stroke="none"/>
  </g>
  <defs>
    <radialGradient cx="0" cy="0" gradientTransform="matrix(0.0779, 0.0, 0.0, 0.0779, -0.45, -77.9)" gradientUnits="userSpaceOnUse" id="gradient0" r="819.2" spreadMethod="pad">
      <stop offset="0.0" stop-color="#ffffff"/>
      <stop offset="1.0" stop-color="#ffffff"/>
    </radialGradient>
    <radialGradient cx="0" cy="0" gradientTransform="matrix(0.0885, 0.0, 0.0, 0.0885, -0.45, -23.3)" gradientUnits="userSpaceOnUse" id="gradient1" r="819.2" spreadMethod="pad">
      <stop offset="0.0" stop-color="#d3d3d3"/>
      <stop offset="1.0" stop-color="#727272"/>
    </radialGradient>
    <radialGradient cx="0" cy="0" gradientTransform="matrix(0.1772, 0.0, 0.0, 0.1772, -43.75, -61.15)" gradientUnits="userSpaceOnUse" id="gradient2" r="819.2" spreadMethod="pad">
      <stop offset="0.0" stop-color="#ffffff"/>
      <stop offset="1.0" stop-color="#c7c7c7"/>
    </radialGradient>
    <radialGradient cx="0" cy="0" gradientTransform="matrix(0.1172, 0.0, 0.0, 0.1172, -0.45, 67.85)" gradientUnits="userSpaceOnUse" id="gradient3" r="819.2" spreadMethod="pad">
      <stop offset="0.0" stop-color="#aeaeae"/>
      <stop offset="1.0" stop-color="#494949"/>
    </radialGradient>
  </defs>
</svg>
