<?xml version="1.0" encoding="UTF-8" standalone="no"?>
<svg xmlns:ffdec="https://www.free-decompiler.com/flash" xmlns:xlink="http://www.w3.org/1999/xlink" ffdec:objectType="shape" height="195.5px" width="157.3px" xmlns="http://www.w3.org/2000/svg">
  <g transform="matrix(1.0, 0.0, 0.0, 1.0, 78.45, 127.2)">
    <path d="M-63.4 -68.3 Q-67.15 -95.1 -46.0 -114.0 -32.65 -124.55 -13.1 -127.2 L6.7 -127.2 Q26.5 -124.8 41.55 -113.7 65.55 -92.6 63.7 -69.0 L63.55 -68.6 63.55 -68.45 63.15 -66.05 Q56.6 -32.9 12.5 -23.95 L-8.5 -24.1 -28.3 -29.5 -45.3 -39.8 -57.6 -53.95 -63.4 -68.3" fill="url(#gradient0)" fill-rule="evenodd" stroke="none"/>
    <path d="M63.15 -66.05 L60.4 -49.85 50.9 5.85 46.8 20.25 38.2 31.85 25.45 40.45 10.15 44.95 -7.05 44.8 -22.75 40.05 -36.25 31.2 -46.0 19.15 Q-54.55 -11.6 -61.3 -53.95 L-63.4 -68.3 -57.6 -53.95 -45.3 -39.8 -28.3 -29.5 -8.5 -24.1 12.5 -23.95 Q56.6 -32.9 63.15 -66.05" fill="url(#gradient1)" fill-rule="evenodd" stroke="none"/>
    <path d="M60.4 -49.85 L66.35 -44.05 76.4 -23.95 78.85 -1.8 73.5 21.55 Q65.35 33.45 60.55 42.15 L40.75 58.5 17.1 66.7 -9.3 65.65 -34.4 55.6 -53.9 40.3 -55.6 39.4 -58.5 35.0 -70.55 19.35 -73.2 12.2 -73.3 11.8 -77.0 0.95 -77.15 0.7 -77.25 0.15 -77.4 -0.1 -78.45 -3.1 -78.3 -25.0 -70.8 -44.05 -61.3 -53.95 Q-54.55 -11.6 -46.0 19.15 L-36.25 31.2 -22.75 40.05 -7.05 44.8 10.15 44.95 25.45 40.45 38.2 31.85 46.8 20.25 50.9 5.85 60.4 -49.85" fill="url(#gradient2)" fill-rule="evenodd" stroke="none"/>
    <path d="M73.5 21.55 Q64.35 44.9 40.05 60.6 L16.85 68.3 -9.15 67.5 -33.45 58.25 -54.3 42.55 -68.8 23.65 Q-69.6 23.4 -70.55 19.35 L-58.5 35.0 -55.6 39.4 -53.9 40.3 -34.4 55.6 -9.3 65.65 17.1 66.7 40.75 58.5 60.55 42.15 Q65.35 33.45 73.5 21.55" fill="url(#gradient3)" fill-rule="evenodd" stroke="none"/>
  </g>
  <defs>
    <radialGradient cx="0" cy="0" gradientTransform="matrix(0.079, 0.0, 0.0, 0.079, -0.45, -77.9)" gradientUnits="userSpaceOnUse" id="gradient0" r="819.2" spreadMethod="pad">
      <stop offset="0.0" stop-color="#ffffff"/>
      <stop offset="1.0" stop-color="#ffffff"/>
    </radialGradient>
    <radialGradient cx="0" cy="0" gradientTransform="matrix(0.1088, 0.0, 0.0, 0.1088, 12.7, -24.1)" gradientUnits="userSpaceOnUse" id="gradient1" r="819.2" spreadMethod="pad">
      <stop offset="0.0" stop-color="#d0d0d0"/>
      <stop offset="1.0" stop-color="#5b5b5b"/>
    </radialGradient>
    <radialGradient cx="0" cy="0" gradientTransform="matrix(0.1761, 0.0, 0.0, 0.1761, 62.45, -34.5)" gradientUnits="userSpaceOnUse" id="gradient2" r="819.2" spreadMethod="pad">
      <stop offset="0.0" stop-color="#ffffff"/>
      <stop offset="1.0" stop-color="#bababa"/>
    </radialGradient>
    <radialGradient cx="0" cy="0" gradientTransform="matrix(0.1192, 0.0, 0.0, 0.1192, -9.3, 65.5)" gradientUnits="userSpaceOnUse" id="gradient3" r="819.2" spreadMethod="pad">
      <stop offset="0.0" stop-color="#acacac"/>
      <stop offset="1.0" stop-color="#575757"/>
    </radialGradient>
  </defs>
</svg>
