<?xml version="1.0" encoding="UTF-8" standalone="no"?>
<svg xmlns:ffdec="https://www.free-decompiler.com/flash" xmlns:xlink="http://www.w3.org/1999/xlink" ffdec:objectType="shape" height="195.0px" width="160.2px" xmlns="http://www.w3.org/2000/svg">
  <g transform="matrix(1.0, 0.0, 0.0, 1.0, 80.4, 127.35)">
    <path d="M-63.05 -66.05 Q-64.6 -70.2 -64.3 -73.5 L-64.3 -73.6 -64.5 -73.85 -65.25 -78.25 -62.9 -93.9 -54.7 -107.55 Q-41.35 -124.0 -4.8 -127.35 L13.55 -125.05 15.8 -124.45 32.55 -118.1 47.7 -107.4 58.95 -93.4 64.35 -78.0 63.55 -61.1 Q52.75 -26.1 3.8 -23.95 L-16.55 -26.75 Q-39.6 -34.15 -51.4 -47.1 -60.25 -58.2 -63.05 -66.05" fill="url(#gradient0)" fill-rule="evenodd" stroke="none"/>
    <path d="M-63.05 -66.05 Q-60.25 -58.2 -51.4 -47.1 -39.6 -34.15 -16.55 -26.75 L3.8 -23.95 Q52.75 -26.1 63.55 -61.1 L61.35 -47.6 50.8 11.25 50.8 13.25 49.05 16.45 49.2 16.8 44.7 26.2 Q33.05 39.35 20.15 42.85 -7.05 48.1 -28.4 35.7 L-41.0 24.9 -49.15 12.05 Q-54.0 -9.55 -58.4 -37.45 L-58.5 -37.7 -61.4 -55.25 -61.55 -55.25 -63.05 -66.05" fill="url(#gradient1)" fill-rule="evenodd" stroke="none"/>
    <path d="M61.35 -47.6 L72.15 -34.0 79.8 -12.0 79.55 11.0 71.1 33.15 60.4 45.2 55.0 51.9 50.35 54.0 33.75 63.0 7.5 65.65 Q-48.7 56.4 -72.45 13.15 L-75.4 7.2 -80.4 -13.95 -77.5 -34.8 -67.5 -50.9 -61.55 -55.25 -61.4 -55.25 -58.5 -37.7 -58.4 -37.45 Q-54.0 -9.55 -49.15 12.05 L-41.0 24.9 -28.4 35.7 Q-7.05 48.1 20.15 42.85 33.05 39.35 44.7 26.2 L49.2 16.8 49.05 16.45 50.8 13.25 50.8 11.25 61.35 -47.6" fill="url(#gradient2)" fill-rule="evenodd" stroke="none"/>
    <path d="M71.1 33.15 Q59.85 54.85 32.85 64.85 L7.6 67.65 Q-47.65 60.95 -72.45 13.15 -48.7 56.4 7.5 65.65 L33.75 63.0 50.35 54.0 55.0 51.9 60.4 45.2 71.1 33.15" fill="url(#gradient3)" fill-rule="evenodd" stroke="none"/>
  </g>
  <defs>
    <radialGradient cx="0" cy="0" gradientTransform="matrix(0.0807, 0.0, 0.0, 0.0807, -0.45, -77.9)" gradientUnits="userSpaceOnUse" id="gradient0" r="819.2" spreadMethod="pad">
      <stop offset="0.0" stop-color="#ffffff"/>
      <stop offset="1.0" stop-color="#ffffff"/>
    </radialGradient>
    <radialGradient cx="0" cy="0" gradientTransform="matrix(0.1082, 0.0, 0.0, 0.1082, 4.9, -23.95)" gradientUnits="userSpaceOnUse" id="gradient1" r="819.2" spreadMethod="pad">
      <stop offset="0.0" stop-color="#d3d3d3"/>
      <stop offset="1.0" stop-color="#717171"/>
    </radialGradient>
    <radialGradient cx="0" cy="0" gradientTransform="matrix(0.1879, 0.0, 0.0, 0.1879, -50.4, -59.15)" gradientUnits="userSpaceOnUse" id="gradient2" r="819.2" spreadMethod="pad">
      <stop offset="0.0" stop-color="#ffffff"/>
      <stop offset="1.0" stop-color="#d5d5d5"/>
    </radialGradient>
    <radialGradient cx="0" cy="0" gradientTransform="matrix(0.1243, 0.0, 0.0, 0.1243, 7.7, 65.6)" gradientUnits="userSpaceOnUse" id="gradient3" r="819.2" spreadMethod="pad">
      <stop offset="0.0" stop-color="#b1b1b1"/>
      <stop offset="1.0" stop-color="#5c5c5c"/>
    </radialGradient>
  </defs>
</svg>
