<?xml version="1.0" encoding="UTF-8" standalone="no"?>
<svg xmlns:ffdec="https://www.free-decompiler.com/flash" xmlns:xlink="http://www.w3.org/1999/xlink" ffdec:objectType="shape" height="191.25px" width="165.15px" xmlns="http://www.w3.org/2000/svg">
  <g transform="matrix(1.0, 0.0, 0.0, 1.0, 82.3, 126.0)">
    <path d="M-64.5 -69.0 L-64.75 -69.35 -66.15 -86.0 -61.3 -100.7 -50.75 -112.8 Q-38.35 -122.85 -17.6 -126.0 L2.6 -126.0 Q23.7 -123.4 39.45 -112.95 L53.4 -100.95 56.7 -96.05 Q64.9 -87.85 65.95 -68.3 L65.85 -67.95 65.85 -67.7 62.65 -53.8 Q55.05 -38.65 36.9 -30.55 16.45 -22.9 1.8 -25.45 L-4.3 -25.55 -25.4 -31.1 -43.1 -40.75 -56.05 -53.7 -56.95 -54.2 -64.5 -69.0" fill="url(#gradient0)" fill-rule="evenodd" stroke="none"/>
    <path d="M-64.5 -69.0 L-56.95 -54.2 -56.05 -53.7 -43.1 -40.75 -25.4 -31.1 -4.3 -25.55 1.8 -25.45 Q16.45 -22.9 36.9 -30.55 55.05 -38.65 62.65 -53.8 L65.85 -67.7 Q63.6 -57.0 62.0 -46.3 L53.0 4.0 53.15 4.8 51.85 11.0 51.4 11.4 51.7 11.7 51.3 11.95 49.85 19.6 41.9 30.95 28.85 39.5 Q14.7 45.85 -3.25 43.6 L-20.4 38.45 Q-54.2 20.25 -53.75 -5.5 L-56.15 -19.5 -56.3 -19.9 -60.6 -45.6 -60.8 -46.15 -62.35 -56.05 -64.5 -69.0" fill="url(#gradient1)" fill-rule="evenodd" stroke="none"/>
    <path d="M62.0 -46.3 L66.1 -42.85 78.25 -22.4 82.85 -0.45 79.3 22.85 67.4 43.1 48.65 57.35 24.75 63.25 -2.45 60.8 Q-56.45 45.2 -75.15 8.25 L-77.4 3.25 -79.8 -3.0 -79.9 -3.1 -80.15 -3.65 -82.15 -23.35 Q-82.7 -24.1 -80.85 -28.45 L-76.35 -41.65 -67.2 -51.6 Q-63.4 -56.15 -62.35 -56.05 L-60.8 -46.15 -60.6 -45.6 -56.3 -19.9 -56.15 -19.5 -53.75 -5.5 Q-54.2 20.25 -20.4 38.45 L-3.25 43.6 Q14.7 45.85 28.85 39.5 L41.9 30.95 49.85 19.6 51.3 11.95 51.7 11.7 51.4 11.4 51.85 11.0 53.15 4.8 53.0 4.0 62.0 -46.3" fill="url(#gradient2)" fill-rule="evenodd" stroke="none"/>
    <path d="M79.3 22.85 L78.25 25.4 66.6 45.2 47.9 59.2 24.5 65.25 -2.45 63.15 Q-55.05 50.75 -75.15 8.25 -56.45 45.2 -2.45 60.8 L24.75 63.25 48.65 57.35 67.4 43.1 79.3 22.85" fill="url(#gradient3)" fill-rule="evenodd" stroke="none"/>
  </g>
  <defs>
    <radialGradient cx="0" cy="0" gradientTransform="matrix(0.0823, 0.0, 0.0, 0.0823, -0.45, -77.9)" gradientUnits="userSpaceOnUse" id="gradient0" r="819.2" spreadMethod="pad">
      <stop offset="0.0" stop-color="#ffffff"/>
      <stop offset="1.0" stop-color="#ffffff"/>
    </radialGradient>
    <radialGradient cx="0" cy="0" gradientTransform="matrix(0.1009, 0.0, 0.0, 0.1009, -3.65, -25.6)" gradientUnits="userSpaceOnUse" id="gradient1" r="819.2" spreadMethod="pad">
      <stop offset="0.0" stop-color="#d0d0d0"/>
      <stop offset="1.0" stop-color="#6b6b6b"/>
    </radialGradient>
    <radialGradient cx="0" cy="0" gradientTransform="matrix(0.1969, 0.0, 0.0, 0.1969, -62.3, -51.95)" gradientUnits="userSpaceOnUse" id="gradient2" r="819.2" spreadMethod="pad">
      <stop offset="0.0" stop-color="#ffffff"/>
      <stop offset="1.0" stop-color="#d5d5d5"/>
    </radialGradient>
    <radialGradient cx="0" cy="0" gradientTransform="matrix(0.1232, 0.0, 0.0, 0.1232, -2.55, 60.6)" gradientUnits="userSpaceOnUse" id="gradient3" r="819.2" spreadMethod="pad">
      <stop offset="0.0" stop-color="#b2b2b2"/>
      <stop offset="1.0" stop-color="#5b5b5b"/>
    </radialGradient>
  </defs>
</svg>
