<?xml version="1.0" encoding="UTF-8" standalone="no"?>
<svg xmlns:ffdec="https://www.free-decompiler.com/flash" xmlns:xlink="http://www.w3.org/1999/xlink" ffdec:objectType="shape" height="189.3px" width="167.2px" xmlns="http://www.w3.org/2000/svg">
  <g transform="matrix(1.0, 0.0, 0.0, 1.0, 83.6, 126.05)">
    <path d="M-64.45 -67.25 L-65.65 -73.85 -65.65 -74.1 -65.8 -74.4 -66.15 -76.5 Q-66.55 -76.8 -66.35 -77.2 L-66.6 -78.1 Q-68.45 -80.2 -64.2 -96.2 L-55.0 -109.65 -40.8 -119.25 Q-25.95 -126.55 -3.05 -126.0 L16.55 -122.7 Q37.05 -116.9 50.5 -103.95 L61.7 -89.6 66.75 -74.0 65.15 -58.3 Q51.95 -24.75 2.2 -25.55 L-19.05 -29.4 -38.6 -38.2 -54.0 -50.8 Q-61.8 -61.2 -64.45 -67.25" fill="url(#gradient0)" fill-rule="evenodd" stroke="none"/>
    <path d="M-64.45 -67.25 Q-61.8 -61.2 -54.0 -50.8 L-38.6 -38.2 -19.05 -29.4 2.2 -25.55 Q51.95 -24.75 65.15 -58.3 L62.95 -46.05 51.55 16.55 44.95 28.15 Q34.15 39.4 20.55 42.05 L18.7 42.55 1.7 43.6 -15.75 39.75 Q-39.55 29.85 -50.05 10.6 -54.1 -3.8 -58.5 -31.25 L-60.1 -40.5 -60.1 -40.85 -62.65 -55.4 Q-63.4 -61.35 -64.45 -67.25" fill="url(#gradient1)" fill-rule="evenodd" stroke="none"/>
    <path d="M62.95 -46.05 L76.25 -27.9 83.6 -5.65 82.45 17.35 72.8 38.35 55.55 53.75 32.55 61.3 5.65 60.5 Q-57.2 47.4 -78.85 1.9 L-79.1 1.65 -83.6 -18.4 -79.9 -36.8 Q-67.0 -56.0 -62.65 -55.4 L-60.1 -40.85 -60.1 -40.5 -58.5 -31.25 Q-54.1 -3.8 -50.05 10.6 -39.55 29.85 -15.75 39.75 L1.7 43.6 18.7 42.55 20.55 42.05 Q34.15 39.4 44.95 28.15 L51.55 16.55 62.95 -46.05" fill="url(#gradient2)" fill-rule="evenodd" stroke="none"/>
    <path d="M72.8 38.35 L71.65 40.7 54.85 55.5 32.15 63.25 5.2 62.9 -20.4 56.4 -43.75 44.4 Q-70.0 26.7 -78.85 1.9 -57.2 47.4 5.65 60.5 L32.55 61.3 55.55 53.75 72.8 38.35" fill="url(#gradient3)" fill-rule="evenodd" stroke="none"/>
  </g>
  <defs>
    <radialGradient cx="0" cy="0" gradientTransform="matrix(0.0835, 0.0, 0.0, 0.0835, -0.45, -77.9)" gradientUnits="userSpaceOnUse" id="gradient0" r="819.2" spreadMethod="pad">
      <stop offset="0.0" stop-color="#ffffff"/>
      <stop offset="1.0" stop-color="#ffffff"/>
    </radialGradient>
    <radialGradient cx="0" cy="0" gradientTransform="matrix(0.1093, 0.0, 0.0, 0.1093, 2.7, -25.6)" gradientUnits="userSpaceOnUse" id="gradient1" r="819.2" spreadMethod="pad">
      <stop offset="0.0" stop-color="#d2d2d2"/>
      <stop offset="1.0" stop-color="#767676"/>
    </radialGradient>
    <radialGradient cx="0" cy="0" gradientTransform="matrix(0.2012, 0.0, 0.0, 0.2012, -67.65, -47.8)" gradientUnits="userSpaceOnUse" id="gradient2" r="819.2" spreadMethod="pad">
      <stop offset="0.0" stop-color="#ffffff"/>
      <stop offset="1.0" stop-color="#d5d5d5"/>
    </radialGradient>
    <radialGradient cx="0" cy="0" gradientTransform="matrix(0.1261, 0.0, 0.0, 0.1261, 5.6, 60.45)" gradientUnits="userSpaceOnUse" id="gradient3" r="819.2" spreadMethod="pad">
      <stop offset="0.0" stop-color="#b5b5b5"/>
      <stop offset="1.0" stop-color="#636363"/>
    </radialGradient>
  </defs>
</svg>
