<?xml version="1.0" encoding="UTF-8" standalone="no"?>
<svg xmlns:ffdec="https://www.free-decompiler.com/flash" xmlns:xlink="http://www.w3.org/1999/xlink" ffdec:objectType="shape" height="119.4px" width="154.6px" xmlns="http://www.w3.org/2000/svg">
  <g transform="matrix(1.0, 0.0, 0.0, 1.0, 77.95, 119.1)">
    <path d="M76.65 -21.3 Q75.95 -6.0 62.5 -2.85 L50.6 -1.0 27.8 -0.1 3.0 0.3 -47.4 -1.25 -51.4 -1.8 -55.25 -1.95 Q-78.45 -3.65 -77.95 -21.85 L-65.9 -20.95 -52.85 -19.35 -52.7 -19.2 -19.45 -14.6 Q20.25 -11.15 51.15 -17.1 L76.65 -21.3" fill="url(#gradient0)" fill-rule="evenodd" stroke="none"/>
    <path d="M-52.85 -19.35 L-59.3 -112.3 Q-55.05 -116.5 -30.25 -118.35 5.2 -120.65 51.55 -115.85 L57.9 -113.6 51.15 -17.8 51.15 -17.1 Q20.25 -11.15 -19.45 -14.6 L-52.7 -19.2 -52.85 -19.35 M-50.35 -1.25 L-51.4 -1.4 -51.4 -1.8 -47.4 -1.25 -50.35 -1.25" fill="url(#gradient1)" fill-rule="evenodd" stroke="none"/>
    <path d="M51.15 -17.8 L73.75 -21.2 76.65 -21.3 51.15 -17.1 51.15 -17.8" fill="url(#gradient2)" fill-rule="evenodd" stroke="none"/>
    <path d="M3.0 0.3 L-20.65 0.15 -46.55 -0.75 -50.35 -1.25 -47.4 -1.25 3.0 0.3 M-51.4 -1.4 L-55.25 -1.95 -51.4 -1.8 -51.4 -1.4" fill="url(#gradient3)" fill-rule="evenodd" stroke="none"/>
  </g>
  <defs>
    <radialGradient cx="0" cy="0" gradientTransform="matrix(0.1606, 0.0, 0.0, 0.1606, -53.35, -2.05)" gradientUnits="userSpaceOnUse" id="gradient0" r="819.2" spreadMethod="pad">
      <stop offset="0.0" stop-color="#ffffff"/>
      <stop offset="1.0" stop-color="#010101"/>
    </radialGradient>
    <radialGradient cx="0" cy="0" gradientTransform="matrix(0.1601, 0.0, 0.0, 0.1601, 5.75, -119.4)" gradientUnits="userSpaceOnUse" id="gradient1" r="819.2" spreadMethod="pad">
      <stop offset="0.0" stop-color="#d2d2d2"/>
      <stop offset="1.0" stop-color="#5a5a5a"/>
    </radialGradient>
    <radialGradient cx="0" cy="0" gradientTransform="matrix(0.1049, 0.0, 0.0, 0.1049, -6.55, -0.45)" gradientUnits="userSpaceOnUse" id="gradient2" r="819.2" spreadMethod="pad">
      <stop offset="0.0" stop-color="#ffffff"/>
      <stop offset="1.0" stop-color="#5d5d5d"/>
    </radialGradient>
    <radialGradient cx="0" cy="0" gradientTransform="matrix(0.0825, 0.0, 0.0, 0.0825, 10.65, 0.05)" gradientUnits="userSpaceOnUse" id="gradient3" r="819.2" spreadMethod="pad">
      <stop offset="0.0" stop-color="#000000"/>
      <stop offset="1.0" stop-color="#000000"/>
    </radialGradient>
  </defs>
</svg>
