<?xml version="1.0" encoding="UTF-8" standalone="no"?>
<svg xmlns:ffdec="https://www.free-decompiler.com/flash" xmlns:xlink="http://www.w3.org/1999/xlink" ffdec:objectType="shape" height="120.1px" width="154.55px" xmlns="http://www.w3.org/2000/svg">
  <g transform="matrix(1.0, 0.0, 0.0, 1.0, 77.8, 113.5)">
    <path d="M52.1 -22.1 L51.15 -11.55 Q1.15 3.35 -52.2 -11.55 L-52.95 -22.1 -59.75 -112.4 Q-34.35 -114.25 56.85 -112.95 L58.8 -112.55 52.1 -22.1" fill="url(#gradient0)" fill-rule="evenodd" stroke="none"/>
    <path d="M51.15 -11.55 L52.1 -22.1 58.8 -22.8 71.35 -22.65 76.75 -21.6 Q75.6 -17.0 51.15 -11.55 M-52.95 -22.1 L-52.2 -11.55 -64.85 -14.9 -75.85 -18.7 -77.8 -21.3 -77.8 -21.5 -72.4 -22.65 -61.95 -22.8 -52.95 -22.1" fill="url(#gradient1)" fill-rule="evenodd" stroke="none"/>
    <path d="M-52.2 -11.55 Q1.15 3.35 51.15 -11.55 75.6 -17.0 76.75 -21.6 75.35 -7.05 65.95 -2.75 L60.9 -0.75 Q30.45 6.7 3.0 6.5 -79.0 8.25 -77.8 -21.3 L-75.85 -18.7 -64.85 -14.9 -52.2 -11.55" fill="url(#gradient2)" fill-rule="evenodd" stroke="none"/>
  </g>
  <defs>
    <radialGradient cx="0" cy="0" gradientTransform="matrix(0.1516, 0.0, 0.0, 0.1516, -0.45, -113.9)" gradientUnits="userSpaceOnUse" id="gradient0" r="819.2" spreadMethod="pad">
      <stop offset="0.0" stop-color="#d3d3d3"/>
      <stop offset="1.0" stop-color="#6b6b6b"/>
    </radialGradient>
    <radialGradient cx="0" cy="0" gradientTransform="matrix(0.1458, 0.0, 0.0, 0.1458, -42.4, -16.45)" gradientUnits="userSpaceOnUse" id="gradient1" r="819.2" spreadMethod="pad">
      <stop offset="0.0" stop-color="#ffffff"/>
      <stop offset="1.0" stop-color="#b6b6b6"/>
    </radialGradient>
    <radialGradient cx="0" cy="0" gradientTransform="matrix(0.1709, 0.0, 0.0, 0.1709, 60.65, -0.85)" gradientUnits="userSpaceOnUse" id="gradient2" r="819.2" spreadMethod="pad">
      <stop offset="0.0" stop-color="#ffffff"/>
      <stop offset="1.0" stop-color="#292929"/>
    </radialGradient>
  </defs>
</svg>
