<?xml version="1.0" encoding="UTF-8" standalone="no"?>
<svg xmlns:ffdec="https://www.free-decompiler.com/flash" xmlns:xlink="http://www.w3.org/1999/xlink" ffdec:objectType="shape" height="185.85px" width="172.15px" xmlns="http://www.w3.org/2000/svg">
  <g transform="matrix(1.0, 0.0, 0.0, 1.0, 85.45, 124.95)">
    <path d="M-67.2 -72.25 L-67.65 -74.65 -68.0 -88.55 -62.1 -102.55 -50.5 -113.7 Q-36.25 -123.25 -15.2 -124.95 L5.65 -124.0 Q26.5 -120.85 43.65 -109.5 69.0 -89.3 68.2 -66.1 L67.35 -61.4 Q60.5 -32.75 15.0 -26.75 L-7.05 -27.8 -28.4 -33.9 -29.75 -34.7 Q-48.9 -42.7 -60.25 -57.75 L-67.2 -72.25" fill="url(#gradient0)" fill-rule="evenodd" stroke="none"/>
    <path d="M-67.2 -72.25 L-60.25 -57.75 Q-48.9 -42.7 -29.75 -34.7 L-28.4 -33.9 -7.05 -27.8 15.0 -26.75 Q60.5 -32.75 67.35 -61.4 L64.25 -44.2 55.0 4.4 54.5 8.75 50.5 21.55 41.65 31.85 28.2 39.25 11.0 42.55 Q-5.6 43.35 -22.75 35.95 L-37.55 26.85 -47.05 16.95 -48.5 15.1 -49.45 12.45 -54.0 3.05 -54.2 2.45 -64.2 -54.6 -64.3 -54.85 -67.2 -72.25" fill="url(#gradient1)" fill-rule="evenodd" stroke="none"/>
    <path d="M64.25 -44.2 L71.75 -36.8 83.25 -16.2 86.7 6.25 81.65 27.6 Q79.95 29.1 67.95 45.2 L47.6 55.6 21.2 58.5 -6.95 54.7 Q-56.55 39.25 -75.65 10.85 -80.4 2.85 -84.0 -6.3 L-84.1 -6.55 -84.3 -6.8 -84.55 -7.5 -85.45 -26.25 -78.3 -41.65 -64.3 -54.85 -64.2 -54.6 -54.2 2.45 -54.0 3.05 -49.45 12.45 -48.5 15.1 -47.05 16.95 -37.55 26.85 -22.75 35.95 Q-5.6 43.35 11.0 42.55 L28.2 39.25 41.65 31.85 50.5 21.55 54.5 8.75 55.0 4.4 64.25 -44.2" fill="url(#gradient2)" fill-rule="evenodd" stroke="none"/>
    <path d="M81.65 27.6 L80.45 29.9 67.5 46.5 46.8 57.7 22.25 60.9 -6.25 58.15 Q-53.6 47.6 -75.65 10.85 -56.55 39.25 -6.95 54.7 L21.2 58.5 47.6 55.6 67.95 45.2 Q79.95 29.1 81.65 27.6" fill="url(#gradient3)" fill-rule="evenodd" stroke="none"/>
  </g>
  <defs>
    <radialGradient cx="0" cy="0" gradientTransform="matrix(0.085, 0.0, 0.0, 0.085, -0.45, -77.9)" gradientUnits="userSpaceOnUse" id="gradient0" r="819.2" spreadMethod="pad">
      <stop offset="0.0" stop-color="#ffffff"/>
      <stop offset="1.0" stop-color="#ffffff"/>
    </radialGradient>
    <radialGradient cx="0" cy="0" gradientTransform="matrix(0.1158, 0.0, 0.0, 0.1158, 15.25, -26.85)" gradientUnits="userSpaceOnUse" id="gradient1" r="819.2" spreadMethod="pad">
      <stop offset="0.0" stop-color="#d2d2d2"/>
      <stop offset="1.0" stop-color="#646464"/>
    </radialGradient>
    <radialGradient cx="0" cy="0" gradientTransform="matrix(0.2014, 0.0, 0.0, 0.2014, -62.9, -52.15)" gradientUnits="userSpaceOnUse" id="gradient2" r="819.2" spreadMethod="pad">
      <stop offset="0.0" stop-color="#ffffff"/>
      <stop offset="1.0" stop-color="#d5d5d5"/>
    </radialGradient>
    <radialGradient cx="0" cy="0" gradientTransform="matrix(0.1528, 0.0, 0.0, 0.1528, 21.7, 58.45)" gradientUnits="userSpaceOnUse" id="gradient3" r="819.2" spreadMethod="pad">
      <stop offset="0.0" stop-color="#b7b7b7"/>
      <stop offset="1.0" stop-color="#5e5e5e"/>
    </radialGradient>
  </defs>
</svg>
