<?xml version="1.0" encoding="UTF-8" standalone="no"?>
<svg xmlns:ffdec="https://www.free-decompiler.com/flash" xmlns:xlink="http://www.w3.org/1999/xlink" ffdec:objectType="shape" height="181.45px" width="177.5px" xmlns="http://www.w3.org/2000/svg">
  <g transform="matrix(1.0, 0.0, 0.0, 1.0, 88.6, 123.55)">
    <path d="M-69.15 -75.5 L-69.35 -76.65 -69.35 -76.75 -69.5 -77.05 -69.6 -77.55 -69.85 -78.35 -70.15 -80.2 -67.65 -94.45 -58.5 -107.3 -44.7 -116.65 Q-18.15 -127.5 15.65 -121.25 36.8 -116.25 51.55 -103.95 L62.65 -91.7 Q63.45 -91.45 64.6 -88.1 L69.55 -75.7 68.6 -60.55 Q56.6 -28.35 4.4 -27.8 L-17.6 -31.0 -38.35 -38.9 Q-65.5 -56.0 -69.15 -75.5" fill="url(#gradient0)" fill-rule="evenodd" stroke="none"/>
    <path d="M-69.15 -75.5 Q-65.5 -56.0 -38.35 -38.9 L-17.6 -31.0 4.4 -27.8 Q56.6 -28.35 68.6 -60.55 L65.55 -44.7 56.05 6.65 54.75 11.7 54.5 14.3 48.0 25.75 Q33.45 40.65 3.8 41.5 -14.95 40.05 -30.55 31.6 -46.85 21.15 -52.85 9.95 -57.2 -8.35 -60.9 -28.6 L-65.4 -53.45 -69.15 -75.5" fill="url(#gradient1)" fill-rule="evenodd" stroke="none"/>
    <path d="M65.55 -44.7 Q104.5 -7.5 78.5 34.9 L60.55 48.2 37.05 54.45 8.55 54.55 Q-57.35 44.7 -82.7 3.85 L-82.95 3.6 -88.6 -14.6 -85.45 -31.35 -74.6 -46.55 -65.4 -53.45 -60.9 -28.6 Q-57.2 -8.35 -52.85 9.95 -46.85 21.15 -30.55 31.6 -14.95 40.05 3.8 41.5 33.45 40.65 48.0 25.75 L54.5 14.3 54.75 11.7 56.05 6.65 65.55 -44.7" fill="url(#gradient2)" fill-rule="evenodd" stroke="none"/>
    <path d="M78.5 34.9 L77.3 36.85 60.15 50.2 36.9 56.8 8.65 57.9 -19.35 52.95 -44.5 42.4 -67.4 25.4 -80.7 8.25 Q-81.65 7.7 -82.7 3.85 -57.35 44.7 8.55 54.55 L37.05 54.45 60.55 48.2 78.5 34.9" fill="url(#gradient3)" fill-rule="evenodd" stroke="none"/>
  </g>
  <defs>
    <radialGradient cx="0" cy="0" gradientTransform="matrix(0.0867, 0.0, 0.0, 0.0867, -0.45, -77.9)" gradientUnits="userSpaceOnUse" id="gradient0" r="819.2" spreadMethod="pad">
      <stop offset="0.0" stop-color="#ffffff"/>
      <stop offset="1.0" stop-color="#ffffff"/>
    </radialGradient>
    <radialGradient cx="0" cy="0" gradientTransform="matrix(0.1118, 0.0, 0.0, 0.1118, 5.15, -27.85)" gradientUnits="userSpaceOnUse" id="gradient1" r="819.2" spreadMethod="pad">
      <stop offset="0.0" stop-color="#d3d3d3"/>
      <stop offset="1.0" stop-color="#767676"/>
    </radialGradient>
    <radialGradient cx="0" cy="0" gradientTransform="matrix(0.1982, 0.0, 0.0, 0.1982, -56.05, -56.0)" gradientUnits="userSpaceOnUse" id="gradient2" r="819.2" spreadMethod="pad">
      <stop offset="0.0" stop-color="#ffffff"/>
      <stop offset="1.0" stop-color="#d8d8d8"/>
    </radialGradient>
    <radialGradient cx="0" cy="0" gradientTransform="matrix(0.1281, 0.0, 0.0, 0.1281, 8.75, 54.45)" gradientUnits="userSpaceOnUse" id="gradient3" r="819.2" spreadMethod="pad">
      <stop offset="0.0" stop-color="#bbbbbb"/>
      <stop offset="1.0" stop-color="#6e6e6e"/>
    </radialGradient>
  </defs>
</svg>
