<?xml version="1.0" encoding="UTF-8" standalone="no"?>
<svg xmlns:ffdec="https://www.free-decompiler.com/flash" xmlns:xlink="http://www.w3.org/1999/xlink" ffdec:objectType="shape" height="175.15px" width="185.7px" xmlns="http://www.w3.org/2000/svg">
  <g transform="matrix(1.0, 0.0, 0.0, 1.0, 92.85, 121.9)">
    <path d="M-71.45 -67.15 L-72.65 -82.3 Q-67.05 -100.4 -51.55 -109.25 -30.9 -122.0 5.2 -121.9 27.15 -120.75 45.25 -111.35 72.0 -95.4 72.25 -72.8 L72.15 -72.55 72.15 -72.45 67.95 -59.05 56.35 -46.3 38.65 -36.65 Q16.2 -29.0 -1.1 -30.45 L-6.65 -30.3 -29.65 -34.4 -49.0 -42.45 -63.55 -53.95 -71.1 -67.0 -71.45 -67.15" fill="url(#gradient0)" fill-rule="evenodd" stroke="none"/>
    <path d="M-71.45 -67.15 L-71.1 -67.0 -63.55 -53.95 -49.0 -42.45 -29.65 -34.4 -6.65 -30.3 -1.1 -30.45 Q16.2 -29.0 38.65 -36.65 L56.35 -46.3 67.95 -59.05 72.15 -72.45 67.4 -47.2 57.65 3.5 53.95 15.5 44.55 26.2 31.25 33.85 13.3 38.35 Q-6.15 40.55 -22.85 35.8 -50.8 25.65 -57.35 7.55 L-59.55 -4.15 -59.55 -4.6 -60.9 -11.05 -60.9 -11.45 -61.05 -11.8 -65.0 -32.85 -65.1 -33.1 -66.95 -42.7 -66.95 -42.85 -68.3 -49.75 -71.45 -67.15" fill="url(#gradient1)" fill-rule="evenodd" stroke="none"/>
    <path d="M67.4 -47.2 L77.3 -39.25 89.35 -20.45 92.85 -1.5 92.85 -0.65 87.5 16.55 Q62.0 50.75 -7.85 48.35 -63.3 42.2 -83.75 17.6 -87.7 12.85 -90.35 7.35 L-91.15 5.6 -91.4 5.35 -91.5 5.1 -91.95 4.4 -92.85 -13.3 Q-87.6 -34.5 -68.3 -49.75 L-66.95 -42.85 -66.95 -42.7 -65.1 -33.1 -65.0 -32.85 -61.05 -11.8 -60.9 -11.45 -60.9 -11.05 -59.55 -4.6 -59.55 -4.15 -57.35 7.55 Q-50.8 25.65 -22.85 35.8 -6.15 40.55 13.3 38.35 L31.25 33.85 44.55 26.2 53.95 15.5 57.65 3.5 67.4 -47.2" fill="url(#gradient2)" fill-rule="evenodd" stroke="none"/>
    <path d="M87.5 16.55 Q79.8 32.6 48.25 45.55 L22.0 52.15 -7.05 53.25 -35.0 48.35 -59.05 38.45 -62.65 36.35 -80.4 23.3 -81.35 21.3 -83.75 17.6 Q-63.3 42.2 -7.85 48.35 62.0 50.75 87.5 16.55 M-90.35 7.35 L-90.7 6.75 -91.15 5.6 -90.35 7.35" fill="url(#gradient3)" fill-rule="evenodd" stroke="none"/>
  </g>
  <defs>
    <radialGradient cx="0" cy="0" gradientTransform="matrix(0.0889, 0.0, 0.0, 0.0889, -0.45, -77.9)" gradientUnits="userSpaceOnUse" id="gradient0" r="819.2" spreadMethod="pad">
      <stop offset="0.0" stop-color="#ffffff"/>
      <stop offset="1.0" stop-color="#ffffff"/>
    </radialGradient>
    <radialGradient cx="0" cy="0" gradientTransform="matrix(0.1093, 0.0, 0.0, 0.1093, -6.25, -30.4)" gradientUnits="userSpaceOnUse" id="gradient1" r="819.2" spreadMethod="pad">
      <stop offset="0.0" stop-color="#d3d3d3"/>
      <stop offset="1.0" stop-color="#747474"/>
    </radialGradient>
    <radialGradient cx="0" cy="0" gradientTransform="matrix(0.1874, 0.0, 0.0, 0.1874, -47.1, -57.4)" gradientUnits="userSpaceOnUse" id="gradient2" r="819.2" spreadMethod="pad">
      <stop offset="0.0" stop-color="#ffffff"/>
      <stop offset="1.0" stop-color="#d5d5d5"/>
    </radialGradient>
    <radialGradient cx="0" cy="0" gradientTransform="matrix(0.1225, 0.0, 0.0, 0.1225, -7.6, 48.3)" gradientUnits="userSpaceOnUse" id="gradient3" r="819.2" spreadMethod="pad">
      <stop offset="0.0" stop-color="#bfbfbf"/>
      <stop offset="1.0" stop-color="#727272"/>
    </radialGradient>
  </defs>
</svg>
