<?xml version="1.0" encoding="UTF-8" standalone="no"?>
<svg xmlns:ffdec="https://www.free-decompiler.com/flash" xmlns:xlink="http://www.w3.org/1999/xlink" ffdec:objectType="shape" height="120.4px" width="160.85px" xmlns="http://www.w3.org/2000/svg">
  <g transform="matrix(1.0, 0.0, 0.0, 1.0, 79.85, 113.75)">
    <path d="M53.95 -24.4 L52.35 -6.3 42.35 -4.85 15.25 -6.0 -53.4 -16.05 -53.5 -17.9 -60.8 -112.15 Q-38.55 -114.3 44.8 -113.6 L60.8 -112.95 53.95 -24.4" fill="url(#gradient0)" fill-rule="evenodd" stroke="none"/>
    <path d="M52.35 -6.3 L53.95 -24.4 68.05 -23.7 Q81.4 -21.85 81.0 -17.65 L75.2 -12.5 Q60.4 -5.65 52.35 -6.3 M-53.5 -17.9 L-53.4 -16.05 -79.65 -20.45 -78.75 -20.8 -55.85 -17.9 -53.5 -17.9" fill="url(#gradient1)" fill-rule="evenodd" stroke="none"/>
    <path d="M-53.4 -16.05 L15.25 -6.0 42.35 -4.85 52.35 -6.3 Q60.4 -5.65 75.2 -12.5 L81.0 -17.65 Q75.85 10.1 12.6 6.15 -9.25 6.6 -58.65 -0.35 -82.0 -6.55 -79.65 -20.45 L-53.4 -16.05" fill="url(#gradient2)" fill-rule="evenodd" stroke="none"/>
  </g>
  <defs>
    <radialGradient cx="0" cy="0" gradientTransform="matrix(0.1578, 0.0, 0.0, 0.1578, 10.75, -114.0)" gradientUnits="userSpaceOnUse" id="gradient0" r="819.2" spreadMethod="pad">
      <stop offset="0.0" stop-color="#d2d2d2"/>
      <stop offset="1.0" stop-color="#606060"/>
    </radialGradient>
    <radialGradient cx="0" cy="0" gradientTransform="matrix(0.1662, 0.0, 0.0, 0.1662, -55.1, -13.55)" gradientUnits="userSpaceOnUse" id="gradient1" r="819.2" spreadMethod="pad">
      <stop offset="0.0" stop-color="#ffffff"/>
      <stop offset="1.0" stop-color="#9d9d9d"/>
    </radialGradient>
    <radialGradient cx="0" cy="0" gradientTransform="matrix(0.186, 0.0, 0.0, 0.186, 71.75, -3.55)" gradientUnits="userSpaceOnUse" id="gradient2" r="819.2" spreadMethod="pad">
      <stop offset="0.0" stop-color="#ffffff"/>
      <stop offset="1.0" stop-color="#080808"/>
    </radialGradient>
  </defs>
</svg>
