<?xml version="1.0" encoding="UTF-8" standalone="no"?>
<svg xmlns:ffdec="https://www.free-decompiler.com/flash" xmlns:xlink="http://www.w3.org/1999/xlink" ffdec:objectType="shape" height="119.65px" width="162.9px" xmlns="http://www.w3.org/2000/svg">
  <g transform="matrix(1.0, 0.0, 0.0, 1.0, 80.85, 113.7)">
    <path d="M-53.9 -16.55 L24.2 -6.0 49.05 -5.1 53.0 -5.75 68.3 -8.0 Q81.2 -12.55 82.05 -17.15 81.3 -5.2 65.3 1.2 L55.4 3.85 38.35 5.6 20.55 5.95 4.4 5.6 -21.2 4.3 -55.5 0.15 -63.25 -1.5 -70.15 -4.05 -76.45 -9.2 -79.65 -14.45 -80.85 -20.15 -79.8 -20.15 -79.35 -20.0 -59.75 -17.5 -53.9 -16.55" fill="url(#gradient0)" fill-rule="evenodd" stroke="none"/>
    <path d="M53.0 -5.75 L54.6 -24.4 Q80.2 -23.15 82.05 -18.15 L82.05 -17.15 Q81.2 -12.55 68.3 -8.0 L53.0 -5.75 M-54.0 -17.5 L-53.9 -16.55 -59.75 -17.5 -54.0 -17.5" fill="url(#gradient1)" fill-rule="evenodd" stroke="none"/>
    <path d="M54.6 -24.4 L53.0 -5.75 49.05 -5.1 24.2 -6.0 -53.9 -16.55 -54.0 -17.5 -61.05 -107.65 Q-62.1 -112.55 -60.5 -112.8 -30.5 -114.15 50.6 -113.45 L61.6 -112.8 54.6 -24.4" fill="url(#gradient2)" fill-rule="evenodd" stroke="none"/>
  </g>
  <defs>
    <radialGradient cx="0" cy="0" gradientTransform="matrix(0.1787, 0.0, 0.0, 0.1787, 64.05, 1.6)" gradientUnits="userSpaceOnUse" id="gradient0" r="819.2" spreadMethod="pad">
      <stop offset="0.0" stop-color="#ffffff"/>
      <stop offset="1.0" stop-color="#282828"/>
    </radialGradient>
    <radialGradient cx="0" cy="0" gradientTransform="matrix(0.1746, 0.0, 0.0, 0.1746, -60.8, -13.2)" gradientUnits="userSpaceOnUse" id="gradient1" r="819.2" spreadMethod="pad">
      <stop offset="0.0" stop-color="#ffffff"/>
      <stop offset="1.0" stop-color="#c5c5c5"/>
    </radialGradient>
    <radialGradient cx="0" cy="0" gradientTransform="matrix(0.1547, 0.0, 0.0, 0.1547, -3.5, -113.95)" gradientUnits="userSpaceOnUse" id="gradient2" r="819.2" spreadMethod="pad">
      <stop offset="0.0" stop-color="#d0d0d0"/>
      <stop offset="1.0" stop-color="#6a6a6a"/>
    </radialGradient>
  </defs>
</svg>
