<?xml version="1.0" encoding="UTF-8" standalone="no"?>
<svg xmlns:ffdec="https://www.free-decompiler.com/flash" xmlns:xlink="http://www.w3.org/1999/xlink" ffdec:objectType="shape" height="119.0px" width="168.1px" xmlns="http://www.w3.org/2000/svg">
  <g transform="matrix(1.0, 0.0, 0.0, 1.0, 83.4, 113.7)">
    <path d="M-55.25 -17.35 L-62.75 -111.35 -62.75 -112.55 -59.85 -112.8 -13.25 -113.7 24.65 -113.7 62.25 -112.95 62.5 -111.85 55.55 -24.75 53.95 -6.15 39.7 -6.55 -20.25 -13.85 -55.25 -17.35" fill="url(#gradient0)" fill-rule="evenodd" stroke="none"/>
    <path d="M-55.25 -17.35 L-20.25 -13.85 39.7 -6.55 53.95 -6.15 Q61.35 -4.6 77.7 -8.9 L84.7 -14.35 Q84.95 -4.45 67.25 1.75 42.95 6.9 -10.1 4.55 L-50.5 0.85 -62.75 -1.0 Q-84.65 -6.55 -83.35 -19.2 L-70.15 -18.7 -55.25 -17.35" fill="url(#gradient1)" fill-rule="evenodd" stroke="none"/>
    <path d="M53.95 -6.15 L55.55 -24.75 Q84.3 -22.65 84.7 -14.35 L77.7 -8.9 Q61.35 -4.6 53.95 -6.15" fill="url(#gradient2)" fill-rule="evenodd" stroke="none"/>
  </g>
  <defs>
    <radialGradient cx="0" cy="0" gradientTransform="matrix(0.157, 0.0, 0.0, 0.157, 8.5, -113.85)" gradientUnits="userSpaceOnUse" id="gradient0" r="819.2" spreadMethod="pad">
      <stop offset="0.0" stop-color="#d3d3d3"/>
      <stop offset="1.0" stop-color="#676767"/>
    </radialGradient>
    <radialGradient cx="0" cy="0" gradientTransform="matrix(0.1866, 0.0, 0.0, 0.1866, -67.75, -2.9)" gradientUnits="userSpaceOnUse" id="gradient1" r="819.2" spreadMethod="pad">
      <stop offset="0.0" stop-color="#ffffff"/>
      <stop offset="1.0" stop-color="#090909"/>
    </radialGradient>
    <radialGradient cx="0" cy="0" gradientTransform="matrix(0.1859, 0.0, 0.0, 0.1859, 68.85, -10.8)" gradientUnits="userSpaceOnUse" id="gradient2" r="819.2" spreadMethod="pad">
      <stop offset="0.0" stop-color="#ffffff"/>
      <stop offset="1.0" stop-color="#a1a1a1"/>
    </radialGradient>
  </defs>
</svg>
