<?xml version="1.0" encoding="UTF-8" standalone="no"?>
<svg xmlns:ffdec="https://www.free-decompiler.com/flash" xmlns:xlink="http://www.w3.org/1999/xlink" ffdec:objectType="shape" height="118.2px" width="170.0px" xmlns="http://www.w3.org/2000/svg">
  <g transform="matrix(1.0, 0.0, 0.0, 1.0, 83.75, 113.6)">
    <path d="M56.45 -24.5 L54.85 -6.7 48.0 -6.8 -11.0 -13.55 -55.35 -17.5 -55.5 -17.65 -62.9 -110.55 -62.9 -112.4 Q-51.75 -113.7 33.6 -113.6 L63.7 -112.8 56.45 -24.5" fill="url(#gradient0)" fill-rule="evenodd" stroke="none"/>
    <path d="M-55.5 -17.65 L-55.35 -17.5 -11.0 -13.55 48.0 -6.8 54.85 -6.7 Q84.15 -6.3 86.15 -14.3 82.85 1.95 55.8 4.3 -7.3 5.8 -61.55 -0.75 L-64.2 -1.4 Q-83.5 -5.1 -83.75 -18.6 L-77.5 -18.7 -55.5 -17.65" fill="url(#gradient1)" fill-rule="evenodd" stroke="none"/>
    <path d="M54.85 -6.7 L56.45 -24.5 Q85.2 -21.85 86.25 -14.9 L86.15 -14.3 Q84.15 -6.3 54.85 -6.7" fill="url(#gradient2)" fill-rule="evenodd" stroke="none"/>
  </g>
  <defs>
    <radialGradient cx="0" cy="0" gradientTransform="matrix(0.161, 0.0, 0.0, 0.161, 14.4, -113.75)" gradientUnits="userSpaceOnUse" id="gradient0" r="819.2" spreadMethod="pad">
      <stop offset="0.0" stop-color="#d2d2d2"/>
      <stop offset="1.0" stop-color="#626262"/>
    </radialGradient>
    <radialGradient cx="0" cy="0" gradientTransform="matrix(0.1848, 0.0, 0.0, 0.1848, 66.1, 2.4)" gradientUnits="userSpaceOnUse" id="gradient1" r="819.2" spreadMethod="pad">
      <stop offset="0.0" stop-color="#ffffff"/>
      <stop offset="1.0" stop-color="#3b3b3b"/>
    </radialGradient>
    <radialGradient cx="0" cy="0" gradientTransform="matrix(0.1973, 0.0, 0.0, 0.1973, 77.5, -8.85)" gradientUnits="userSpaceOnUse" id="gradient2" r="819.2" spreadMethod="pad">
      <stop offset="0.0" stop-color="#ffffff"/>
      <stop offset="1.0" stop-color="#d0d0d0"/>
    </radialGradient>
  </defs>
</svg>
