<?xml version="1.0" encoding="UTF-8" standalone="no"?>
<svg xmlns:ffdec="https://www.free-decompiler.com/flash" xmlns:xlink="http://www.w3.org/1999/xlink" ffdec:objectType="shape" height="119.55px" width="155.3px" xmlns="http://www.w3.org/2000/svg">
  <g transform="matrix(1.0, 0.0, 0.0, 1.0, 77.5, 119.2)">
    <path d="M-52.35 -20.15 L-58.95 -113.1 Q-51.1 -116.8 -26.05 -118.65 13.2 -120.65 54.6 -115.3 L58.8 -113.1 52.1 -18.6 51.85 -16.05 41.8 -14.35 17.0 -12.9 -10.1 -14.45 -52.35 -20.15 M-51.1 -1.95 L-43.9 -1.25 -44.8 -1.25 Q-50.75 -0.75 -51.1 -1.95" fill="url(#gradient0)" fill-rule="evenodd" stroke="none"/>
    <path d="M-52.35 -20.15 L-10.1 -14.45 17.0 -12.9 41.8 -14.35 51.85 -16.05 72.0 -19.75 77.8 -21.2 Q77.0 -6.0 64.0 -3.0 28.2 1.15 -25.95 0.15 L-49.7 -0.75 -63.0 -2.75 Q-76.6 -5.65 -77.5 -22.0 L-70.3 -21.75 -52.35 -20.15 M-51.1 -1.95 Q-50.75 -0.75 -44.8 -1.25 L-43.9 -1.25 -51.1 -1.95" fill="url(#gradient1)" fill-rule="evenodd" stroke="none"/>
    <path d="M51.85 -16.05 L52.1 -18.6 73.75 -21.3 77.8 -21.2 72.0 -19.75 51.85 -16.05" fill="url(#gradient2)" fill-rule="evenodd" stroke="none"/>
  </g>
  <defs>
    <radialGradient cx="0" cy="0" gradientTransform="matrix(0.1632, 0.0, 0.0, 0.1632, 11.9, -119.35)" gradientUnits="userSpaceOnUse" id="gradient0" r="819.2" spreadMethod="pad">
      <stop offset="0.0" stop-color="#d0d0d0"/>
      <stop offset="1.0" stop-color="#5b5b5b"/>
    </radialGradient>
    <radialGradient cx="0" cy="0" gradientTransform="matrix(0.1732, 0.0, 0.0, 0.1732, -62.7, -2.8)" gradientUnits="userSpaceOnUse" id="gradient1" r="819.2" spreadMethod="pad">
      <stop offset="0.0" stop-color="#ffffff"/>
      <stop offset="1.0" stop-color="#000000"/>
    </radialGradient>
    <radialGradient cx="0" cy="0" gradientTransform="matrix(0.1135, 0.0, 0.0, 0.1135, -12.7, -0.45)" gradientUnits="userSpaceOnUse" id="gradient2" r="819.2" spreadMethod="pad">
      <stop offset="0.0" stop-color="#ffffff"/>
      <stop offset="1.0" stop-color="#626262"/>
    </radialGradient>
  </defs>
</svg>
