<?xml version="1.0" encoding="UTF-8" standalone="no"?>
<svg xmlns:ffdec="https://www.free-decompiler.com/flash" xmlns:xlink="http://www.w3.org/1999/xlink" ffdec:objectType="shape" height="118.65px" width="181.85px" xmlns="http://www.w3.org/2000/svg">
  <g transform="matrix(1.0, 0.0, 0.0, 1.0, 90.7, 113.7)">
    <path d="M-59.05 -19.5 L-66.7 -109.75 Q-68.15 -113.7 -64.5 -112.95 L-22.5 -113.7 28.85 -113.7 66.35 -112.8 66.6 -112.65 58.95 -23.35 57.75 -11.3 29.5 -13.65 -27.8 -16.45 -58.8 -16.55 -59.05 -19.5" fill="url(#gradient0)" fill-rule="evenodd" stroke="none"/>
    <path d="M-59.05 -19.5 L-58.8 -16.55 -73.05 -16.45 -59.05 -19.5 M57.75 -11.3 L58.95 -23.35 69.25 -22.0 83.5 -17.9 91.15 -12.5 89.35 -9.45 Q86.05 -8.05 57.75 -11.3" fill="url(#gradient1)" fill-rule="evenodd" stroke="none"/>
    <path d="M-58.8 -16.55 L-27.8 -16.45 29.5 -13.65 57.75 -11.3 Q86.05 -8.05 89.35 -9.45 L91.15 -12.5 Q85.9 10.2 1.7 3.35 -42.4 2.45 -71.35 -0.1 -85.2 -4.45 -89.4 -8.8 L-90.7 -13.65 -87.7 -15.25 -73.05 -16.45 -58.8 -16.55" fill="url(#gradient2)" fill-rule="evenodd" stroke="none"/>
  </g>
  <defs>
    <radialGradient cx="0" cy="0" gradientTransform="matrix(0.1548, 0.0, 0.0, 0.1548, -0.1, -113.85)" gradientUnits="userSpaceOnUse" id="gradient0" r="819.2" spreadMethod="pad">
      <stop offset="0.0" stop-color="#d3d3d3"/>
      <stop offset="1.0" stop-color="#777777"/>
    </radialGradient>
    <radialGradient cx="0" cy="0" gradientTransform="matrix(0.1739, 0.0, 0.0, 0.1739, -51.35, -16.05)" gradientUnits="userSpaceOnUse" id="gradient1" r="819.2" spreadMethod="pad">
      <stop offset="0.0" stop-color="#ffffff"/>
      <stop offset="1.0" stop-color="#d2d2d2"/>
    </radialGradient>
    <radialGradient cx="0" cy="0" gradientTransform="matrix(0.21, 0.0, 0.0, 0.21, -80.7, -3.55)" gradientUnits="userSpaceOnUse" id="gradient2" r="819.2" spreadMethod="pad">
      <stop offset="0.0" stop-color="#ffffff"/>
      <stop offset="1.0" stop-color="#393939"/>
    </radialGradient>
  </defs>
</svg>
