<?xml version="1.0" encoding="UTF-8" standalone="no"?>
<svg xmlns:ffdec="https://www.free-decompiler.com/flash" xmlns:xlink="http://www.w3.org/1999/xlink" ffdec:objectType="shape" height="117.85px" width="182.75px" xmlns="http://www.w3.org/2000/svg">
  <g transform="matrix(1.0, 0.0, 0.0, 1.0, 91.75, 113.6)">
    <path d="M-59.55 -20.15 L-67.4 -111.75 Q-66.7 -113.7 -57.1 -113.2 L39.25 -113.6 65.95 -112.95 66.35 -112.65 66.35 -111.75 58.8 -23.05 57.65 -12.25 30.05 -14.2 -20.9 -16.3 -59.2 -16.05 -59.55 -20.15" fill="url(#gradient0)" fill-rule="evenodd" stroke="none"/>
    <path d="M-59.55 -20.15 L-59.2 -16.05 -72.95 -15.95 -80.85 -15.15 -59.55 -20.15 M57.65 -12.25 L58.8 -23.05 Q80.2 -20.45 90.65 -13.3 L91.0 -9.85 81.95 -9.6 57.65 -12.25" fill="url(#gradient1)" fill-rule="evenodd" stroke="none"/>
    <path d="M-59.2 -16.05 L-20.9 -16.3 30.05 -14.2 57.65 -12.25 81.95 -9.6 91.0 -9.85 Q85.2 8.0 7.75 3.25 -29.0 2.8 -33.05 2.3 -65.9 2.7 -81.35 -2.75 -102.35 -14.9 -80.85 -15.15 L-72.95 -15.95 -59.2 -16.05" fill="url(#gradient2)" fill-rule="evenodd" stroke="none"/>
  </g>
  <defs>
    <radialGradient cx="0" cy="0" gradientTransform="matrix(0.1576, 0.0, 0.0, 0.1576, 5.45, -113.85)" gradientUnits="userSpaceOnUse" id="gradient0" r="819.2" spreadMethod="pad">
      <stop offset="0.0" stop-color="#d4d4d4"/>
      <stop offset="1.0" stop-color="#686868"/>
    </radialGradient>
    <radialGradient cx="0" cy="0" gradientTransform="matrix(0.1806, 0.0, 0.0, 0.1806, -56.95, -15.75)" gradientUnits="userSpaceOnUse" id="gradient1" r="819.2" spreadMethod="pad">
      <stop offset="0.0" stop-color="#ffffff"/>
      <stop offset="1.0" stop-color="#acacac"/>
    </radialGradient>
    <radialGradient cx="0" cy="0" gradientTransform="matrix(0.2106, 0.0, 0.0, 0.2106, -81.5, -2.95)" gradientUnits="userSpaceOnUse" id="gradient2" r="819.2" spreadMethod="pad">
      <stop offset="0.0" stop-color="#ffffff"/>
      <stop offset="1.0" stop-color="#161616"/>
    </radialGradient>
  </defs>
</svg>
