<?xml version="1.0" encoding="UTF-8" standalone="no"?>
<svg xmlns:ffdec="https://www.free-decompiler.com/flash" xmlns:xlink="http://www.w3.org/1999/xlink" ffdec:objectType="shape" height="117.75px" width="184.0px" xmlns="http://www.w3.org/2000/svg">
  <g transform="matrix(1.0, 0.0, 0.0, 1.0, 91.95, 113.65)">
    <path d="M-59.55 -20.8 L-67.4 -112.65 Q-44.3 -113.9 32.95 -113.6 L66.9 -112.8 59.25 -22.8 58.3 -13.05 45.25 -14.1 -12.75 -16.2 -59.05 -15.65 -59.55 -20.8" fill="url(#gradient0)" fill-rule="evenodd" stroke="none"/>
    <path d="M-89.05 -13.15 L-81.1 -15.65 -64.3 -20.0 -59.55 -20.8 -59.05 -15.65 -68.3 -15.5 -84.9 -14.1 -89.05 -13.15 M59.25 -22.8 Q82.55 -20.7 92.05 -10.4 L85.45 -10.15 58.3 -13.05 59.25 -22.8" fill="url(#gradient1)" fill-rule="evenodd" stroke="none"/>
    <path d="M92.05 -10.4 Q85.2 7.55 11.8 3.25 L-11.7 3.05 Q-20.0 2.5 -49.8 2.45 -80.0 0.75 -90.35 -7.35 -91.15 -7.75 -91.95 -12.5 L-89.15 -13.15 -89.05 -13.15 -84.9 -14.1 -68.3 -15.5 -59.05 -15.65 -12.75 -16.2 45.25 -14.1 58.3 -13.05 85.45 -10.15 92.05 -10.4" fill="url(#gradient2)" fill-rule="evenodd" stroke="none"/>
  </g>
  <defs>
    <radialGradient cx="0" cy="0" gradientTransform="matrix(0.1614, 0.0, 0.0, 0.1614, 10.9, -113.75)" gradientUnits="userSpaceOnUse" id="gradient0" r="819.2" spreadMethod="pad">
      <stop offset="0.0" stop-color="#d3d3d3"/>
      <stop offset="1.0" stop-color="#696969"/>
    </radialGradient>
    <radialGradient cx="0" cy="0" gradientTransform="matrix(0.1614, 0.0, 0.0, 0.1614, -40.05, -18.5)" gradientUnits="userSpaceOnUse" id="gradient1" r="819.2" spreadMethod="pad">
      <stop offset="0.0" stop-color="#ffffff"/>
      <stop offset="1.0" stop-color="#aaaaaa"/>
    </radialGradient>
    <radialGradient cx="0" cy="0" gradientTransform="matrix(0.2039, 0.0, 0.0, 0.2039, -74.7, -0.25)" gradientUnits="userSpaceOnUse" id="gradient2" r="819.2" spreadMethod="pad">
      <stop offset="0.0" stop-color="#ffffff"/>
      <stop offset="1.0" stop-color="#161616"/>
    </radialGradient>
  </defs>
</svg>
