<?xml version="1.0" encoding="UTF-8" standalone="no"?>
<svg xmlns:ffdec="https://www.free-decompiler.com/flash" xmlns:xlink="http://www.w3.org/1999/xlink" ffdec:objectType="shape" height="116.9px" width="184.75px" xmlns="http://www.w3.org/2000/svg">
  <g transform="matrix(1.0, 0.0, 0.0, 1.0, 92.85, 113.55)">
    <path d="M58.55 -14.6 L11.45 -15.95 -6.25 -16.05 -59.55 -14.6 -60.25 -21.75 -68.0 -112.55 Q-42.65 -114.1 55.0 -113.2 L67.15 -112.55 59.35 -21.75 58.55 -14.6" fill="url(#gradient0)" fill-rule="evenodd" stroke="none"/>
    <path d="M58.55 -14.6 L59.35 -21.75 71.65 -19.5 85.35 -15.0 91.8 -11.7 89.35 -11.3 76.75 -13.15 58.55 -14.6 M-60.25 -21.75 L-59.55 -14.6 -80.95 -12.75 -89.95 -11.3 -92.85 -11.55 Q-89.65 -13.2 -86.5 -14.9 L-74.1 -18.95 -60.25 -21.75" fill="url(#gradient1)" fill-rule="evenodd" stroke="none"/>
    <path d="M-59.55 -14.6 L-6.25 -16.05 11.45 -15.95 58.55 -14.6 76.75 -13.15 89.35 -11.3 91.8 -11.7 Q93.15 -5.65 72.95 0.85 L46.55 2.95 22.25 2.8 -1.7 3.05 -21.05 2.95 -23.15 2.8 Q-88.6 6.25 -92.85 -11.55 L-89.95 -11.3 -80.95 -12.75 -59.55 -14.6" fill="url(#gradient2)" fill-rule="evenodd" stroke="none"/>
  </g>
  <defs>
    <radialGradient cx="0" cy="0" gradientTransform="matrix(0.1547, 0.0, 0.0, 0.1547, -0.45, -113.7)" gradientUnits="userSpaceOnUse" id="gradient0" r="819.2" spreadMethod="pad">
      <stop offset="0.0" stop-color="#d4d4d4"/>
      <stop offset="1.0" stop-color="#7a7a7a"/>
    </radialGradient>
    <radialGradient cx="0" cy="0" gradientTransform="matrix(0.1749, 0.0, 0.0, 0.1749, -51.15, -17.95)" gradientUnits="userSpaceOnUse" id="gradient1" r="819.2" spreadMethod="pad">
      <stop offset="0.0" stop-color="#ffffff"/>
      <stop offset="1.0" stop-color="#d1d1d1"/>
    </radialGradient>
    <radialGradient cx="0" cy="0" gradientTransform="matrix(0.1644, 0.0, 0.0, 0.1644, -41.9, 3.05)" gradientUnits="userSpaceOnUse" id="gradient2" r="819.2" spreadMethod="pad">
      <stop offset="0.0" stop-color="#ffffff"/>
      <stop offset="1.0" stop-color="#3c3c3c"/>
    </radialGradient>
  </defs>
</svg>
