<?xml version="1.0" encoding="UTF-8" standalone="no"?>
<svg xmlns:ffdec="https://www.free-decompiler.com/flash" xmlns:xlink="http://www.w3.org/1999/xlink" ffdec:objectType="shape" height="129.8px" width="157.2px" xmlns="http://www.w3.org/2000/svg">
  <g transform="matrix(1.0, 0.0, 0.0, 1.0, 78.35, 116.8)">
    <path d="M60.3 -111.85 L58.3 -110.45 47.35 -108.85 Q-11.8 -106.05 -51.9 -109.75 -60.35 -110.8 -60.6 -112.55 L-56.95 -114.0 -45.6 -115.45 -33.15 -116.25 0.75 -116.8 17.1 -116.5 Q56.2 -115.15 60.3 -111.85" fill="url(#gradient0)" fill-rule="evenodd" stroke="none"/>
    <path d="M-60.6 -112.55 Q-60.35 -110.8 -51.9 -109.75 -11.8 -106.05 47.35 -108.85 L58.3 -110.45 60.3 -111.85 53.55 -28.2 51.4 -2.3 50.5 0.05 Q-1.1 10.2 -52.2 -8.3 L-52.35 -8.4 -53.65 -25.2 -60.6 -112.55" fill="url(#gradient1)" fill-rule="evenodd" stroke="none"/>
    <path d="M-53.65 -25.2 L-52.35 -8.4 -67.4 -13.15 Q-78.15 -17.8 -78.3 -20.75 L-78.3 -21.2 Q-76.5 -25.3 -61.7 -25.3 L-53.65 -25.2 M50.5 0.05 L51.4 -2.3 53.55 -28.2 60.8 -27.55 72.7 -24.65 78.85 -19.2 77.85 -14.85 Q75.4 -10.7 67.4 -6.55 L50.5 0.05" fill="url(#gradient2)" fill-rule="evenodd" stroke="none"/>
    <path d="M-52.35 -8.4 L-52.2 -8.3 Q-1.1 10.2 50.5 0.05 L67.4 -6.55 Q75.4 -10.7 77.85 -14.85 75.2 -4.8 71.9 -1.8 L58.95 5.45 Q49.45 12.75 -0.35 13.0 -80.3 7.85 -78.3 -20.75 -78.15 -17.8 -67.4 -13.15 L-52.35 -8.4" fill="url(#gradient3)" fill-rule="evenodd" stroke="none"/>
  </g>
  <defs>
    <radialGradient cx="0" cy="0" gradientTransform="matrix(0.0742, 0.0, 0.0, 0.0742, -0.45, -112.4)" gradientUnits="userSpaceOnUse" id="gradient0" r="819.2" spreadMethod="pad">
      <stop offset="0.0" stop-color="#ffffff"/>
      <stop offset="1.0" stop-color="#ffffff"/>
    </radialGradient>
    <radialGradient cx="0" cy="0" gradientTransform="matrix(0.1479, 0.0, 0.0, 0.1479, -1.65, -107.4)" gradientUnits="userSpaceOnUse" id="gradient1" r="819.2" spreadMethod="pad">
      <stop offset="0.0" stop-color="#d2d2d2"/>
      <stop offset="1.0" stop-color="#6a6a6a"/>
    </radialGradient>
    <radialGradient cx="0" cy="0" gradientTransform="matrix(0.1492, 0.0, 0.0, 0.1492, -43.3, -24.85)" gradientUnits="userSpaceOnUse" id="gradient2" r="819.2" spreadMethod="pad">
      <stop offset="0.0" stop-color="#ffffff"/>
      <stop offset="1.0" stop-color="#c6c6c6"/>
    </radialGradient>
    <radialGradient cx="0" cy="0" gradientTransform="matrix(0.1491, 0.0, 0.0, 0.1491, 39.15, 10.9)" gradientUnits="userSpaceOnUse" id="gradient3" r="819.2" spreadMethod="pad">
      <stop offset="0.0" stop-color="#ffffff"/>
      <stop offset="1.0" stop-color="#343434"/>
    </radialGradient>
  </defs>
</svg>
