<?xml version="1.0" encoding="UTF-8" standalone="no"?>
<svg xmlns:ffdec="https://www.free-decompiler.com/flash" xmlns:xlink="http://www.w3.org/1999/xlink" ffdec:objectType="shape" height="128.6px" width="163.0px" xmlns="http://www.w3.org/2000/svg">
  <g transform="matrix(1.0, 0.0, 0.0, 1.0, 80.7, 116.15)">
    <path d="M62.15 -111.6 L59.5 -110.2 50.1 -108.85 32.05 -107.8 -3.6 -107.4 -24.1 -107.9 -54.2 -110.2 Q-61.4 -111.1 -61.7 -112.55 -61.85 -113.9 -57.7 -114.25 -14.45 -118.0 50.25 -114.4 61.2 -113.2 62.15 -111.6" fill="url(#gradient0)" fill-rule="evenodd" stroke="none"/>
    <path d="M-61.7 -112.55 Q-61.4 -111.1 -54.2 -110.2 L-24.1 -107.9 -3.6 -107.4 32.05 -107.8 50.1 -108.85 59.5 -110.2 62.15 -111.6 55.25 -28.45 52.9 -0.45 51.15 2.0 49.2 2.55 Q10.25 2.7 -28.6 -5.65 L-53.5 -10.65 -53.65 -10.75 -53.5 -11.2 -54.45 -23.05 -61.7 -112.55" fill="url(#gradient1)" fill-rule="evenodd" stroke="none"/>
    <path d="M-54.45 -23.05 L-53.5 -11.2 -53.65 -10.75 -70.9 -15.5 -79.35 -18.6 -80.7 -20.8 Q-80.6 -22.4 -74.9 -22.65 L-54.45 -23.05 M51.15 2.0 L52.9 -0.45 55.25 -28.45 Q63.2 -28.85 76.9 -22.55 L82.3 -16.55 79.4 -9.2 68.6 -2.05 51.15 2.0" fill="url(#gradient2)" fill-rule="evenodd" stroke="none"/>
    <path d="M-53.65 -10.75 L-53.5 -10.65 -28.6 -5.65 Q10.25 2.7 49.2 2.55 L51.15 2.0 68.6 -2.05 79.4 -9.2 82.3 -16.55 Q80.3 -5.15 75.45 -0.45 55.75 12.15 18.55 12.45 -80.15 10.45 -80.7 -20.8 L-79.35 -18.6 -70.9 -15.5 -53.65 -10.75" fill="url(#gradient3)" fill-rule="evenodd" stroke="none"/>
  </g>
  <defs>
    <radialGradient cx="0" cy="0" gradientTransform="matrix(0.0764, 0.0, 0.0, 0.0764, -0.45, -112.4)" gradientUnits="userSpaceOnUse" id="gradient0" r="819.2" spreadMethod="pad">
      <stop offset="0.0" stop-color="#ffffff"/>
      <stop offset="1.0" stop-color="#ffffff"/>
    </radialGradient>
    <radialGradient cx="0" cy="0" gradientTransform="matrix(0.1502, 0.0, 0.0, 0.1502, -3.55, -107.55)" gradientUnits="userSpaceOnUse" id="gradient1" r="819.2" spreadMethod="pad">
      <stop offset="0.0" stop-color="#d0d0d0"/>
      <stop offset="1.0" stop-color="#6a6a6a"/>
    </radialGradient>
    <radialGradient cx="0" cy="0" gradientTransform="matrix(0.1748, 0.0, 0.0, 0.1748, -60.85, -18.3)" gradientUnits="userSpaceOnUse" id="gradient2" r="819.2" spreadMethod="pad">
      <stop offset="0.0" stop-color="#ffffff"/>
      <stop offset="1.0" stop-color="#c7c7c7"/>
    </radialGradient>
    <radialGradient cx="0" cy="0" gradientTransform="matrix(0.1524, 0.0, 0.0, 0.1524, 39.55, 11.4)" gradientUnits="userSpaceOnUse" id="gradient3" r="819.2" spreadMethod="pad">
      <stop offset="0.0" stop-color="#ffffff"/>
      <stop offset="1.0" stop-color="#3a3a3a"/>
    </radialGradient>
  </defs>
</svg>
