<?xml version="1.0" encoding="UTF-8" standalone="no"?>
<svg xmlns:ffdec="https://www.free-decompiler.com/flash" xmlns:xlink="http://www.w3.org/1999/xlink" ffdec:objectType="shape" height="126.0px" width="178.3px" xmlns="http://www.w3.org/2000/svg">
  <g transform="matrix(1.0, 0.0, 0.0, 1.0, 88.45, 115.8)">
    <path d="M65.95 -111.25 L60.8 -109.9 48.5 -108.7 33.35 -108.05 -6.5 -107.8 -32.0 -108.45 -59.45 -110.55 -66.05 -112.05 -65.0 -113.45 Q-19.45 -117.95 57.2 -113.9 65.55 -113.35 65.95 -111.25" fill="url(#gradient0)" fill-rule="evenodd" stroke="none"/>
    <path d="M-66.05 -112.05 L-59.45 -110.55 -32.0 -108.45 -6.5 -107.8 33.35 -108.05 48.5 -108.7 60.8 -109.9 65.95 -111.25 58.55 -27.9 56.15 -2.6 44.7 -3.1 -7.05 -7.05 -57.2 -11.8 -58.25 -23.45 -66.05 -112.05" fill="url(#gradient1)" fill-rule="evenodd" stroke="none"/>
    <path d="M-58.25 -23.45 L-57.2 -11.8 -80.85 -14.6 -88.25 -15.95 -86.75 -16.75 -58.25 -23.45 M56.15 -2.6 L58.55 -27.9 76.25 -23.15 87.05 -16.75 89.85 -9.05 83.1 -3.65 68.6 -1.95 56.15 -2.6" fill="url(#gradient2)" fill-rule="evenodd" stroke="none"/>
    <path d="M-57.2 -11.8 L-7.05 -7.05 44.7 -3.1 56.15 -2.6 68.6 -1.95 83.1 -3.65 89.85 -9.05 88.55 -4.45 Q83.6 0.7 73.5 4.8 48.85 11.4 12.6 9.95 -32.4 7.8 -58.15 3.05 -90.9 -5.4 -88.25 -15.95 L-80.85 -14.6 -57.2 -11.8" fill="url(#gradient3)" fill-rule="evenodd" stroke="none"/>
  </g>
  <defs>
    <radialGradient cx="0" cy="0" gradientTransform="matrix(0.0811, 0.0, 0.0, 0.0811, -0.45, -112.4)" gradientUnits="userSpaceOnUse" id="gradient0" r="819.2" spreadMethod="pad">
      <stop offset="0.0" stop-color="#ffffff"/>
      <stop offset="1.0" stop-color="#ffffff"/>
    </radialGradient>
    <radialGradient cx="0" cy="0" gradientTransform="matrix(0.1539, 0.0, 0.0, 0.1539, 10.65, -107.8)" gradientUnits="userSpaceOnUse" id="gradient1" r="819.2" spreadMethod="pad">
      <stop offset="0.0" stop-color="#d3d3d3"/>
      <stop offset="1.0" stop-color="#7f7f7f"/>
    </radialGradient>
    <radialGradient cx="0" cy="0" gradientTransform="matrix(0.1584, 0.0, 0.0, 0.1584, -39.35, -22.65)" gradientUnits="userSpaceOnUse" id="gradient2" r="819.2" spreadMethod="pad">
      <stop offset="0.0" stop-color="#ffffff"/>
      <stop offset="1.0" stop-color="#aaaaaa"/>
    </radialGradient>
    <radialGradient cx="0" cy="0" gradientTransform="matrix(0.1233, 0.0, 0.0, 0.1233, -9.75, 8.35)" gradientUnits="userSpaceOnUse" id="gradient3" r="819.2" spreadMethod="pad">
      <stop offset="0.0" stop-color="#ffffff"/>
      <stop offset="1.0" stop-color="#1e1e1e"/>
    </radialGradient>
  </defs>
</svg>
