<?xml version="1.0" encoding="UTF-8" standalone="no"?>
<svg xmlns:ffdec="https://www.free-decompiler.com/flash" xmlns:xlink="http://www.w3.org/1999/xlink" ffdec:objectType="shape" height="125.75px" width="181.85px" xmlns="http://www.w3.org/2000/svg">
  <g transform="matrix(1.0, 0.0, 0.0, 1.0, 90.7, 116.35)">
    <path d="M67.15 -111.85 L64.6 -110.55 Q24.75 -106.65 -40.3 -108.85 L-56.65 -110.05 Q-66.85 -111.1 -67.5 -112.55 L-63.25 -114.0 -54.8 -114.95 -39.25 -115.85 -1.65 -116.35 Q57.6 -115.7 67.15 -111.85" fill="url(#gradient0)" fill-rule="evenodd" stroke="none"/>
    <path d="M-67.5 -112.55 Q-66.85 -111.1 -56.65 -110.05 L-40.3 -108.85 Q24.75 -106.65 64.6 -110.55 L67.15 -111.85 59.5 -27.15 57.4 -4.7 0.1 -7.5 -58.4 -11.2 -58.4 -11.45 -59.55 -24.4 -67.5 -112.55" fill="url(#gradient1)" fill-rule="evenodd" stroke="none"/>
    <path d="M-59.55 -24.4 L-58.4 -11.45 -58.4 -11.2 -87.95 -13.4 -90.7 -14.1 Q-88.7 -15.0 -86.75 -15.95 L-72.65 -20.8 -59.55 -24.4 M57.4 -4.7 L59.5 -27.15 69.55 -25.2 84.4 -18.95 91.15 -11.7 88.9 -6.15 Q82.75 -2.75 57.4 -4.7" fill="url(#gradient2)" fill-rule="evenodd" stroke="none"/>
    <path d="M-58.4 -11.2 L0.1 -7.5 57.4 -4.7 Q82.75 -2.75 88.9 -6.15 L91.15 -11.7 90.2 -7.75 88.0 -2.05 78.85 2.45 70.3 5.1 62.15 7.05 48.25 8.6 22.65 9.4 -21.45 8.1 -44.8 5.95 -57.45 3.75 -57.9 3.75 -58.15 3.6 -70.4 1.4 -77.95 -1.4 -82.55 -4.05 -89.4 -9.35 -90.7 -14.1 -87.95 -13.4 -58.4 -11.2" fill="url(#gradient3)" fill-rule="evenodd" stroke="none"/>
  </g>
  <defs>
    <radialGradient cx="0" cy="0" gradientTransform="matrix(0.0825, 0.0, 0.0, 0.0825, -0.45, -112.45)" gradientUnits="userSpaceOnUse" id="gradient0" r="819.2" spreadMethod="pad">
      <stop offset="0.0" stop-color="#ffffff"/>
      <stop offset="1.0" stop-color="#ffffff"/>
    </radialGradient>
    <radialGradient cx="0" cy="0" gradientTransform="matrix(0.1503, 0.0, 0.0, 0.1503, -0.1, -107.9)" gradientUnits="userSpaceOnUse" id="gradient1" r="819.2" spreadMethod="pad">
      <stop offset="0.0" stop-color="#d3d3d3"/>
      <stop offset="1.0" stop-color="#777777"/>
    </radialGradient>
    <radialGradient cx="0" cy="0" gradientTransform="matrix(0.1745, 0.0, 0.0, 0.1745, -51.45, -21.45)" gradientUnits="userSpaceOnUse" id="gradient2" r="819.2" spreadMethod="pad">
      <stop offset="0.0" stop-color="#ffffff"/>
      <stop offset="1.0" stop-color="#d2d2d2"/>
    </radialGradient>
    <radialGradient cx="0" cy="0" gradientTransform="matrix(0.1891, 0.0, 0.0, 0.1891, 62.6, 6.8)" gradientUnits="userSpaceOnUse" id="gradient3" r="819.2" spreadMethod="pad">
      <stop offset="0.0" stop-color="#ffffff"/>
      <stop offset="1.0" stop-color="#464646"/>
    </radialGradient>
  </defs>
</svg>
