<?xml version="1.0" encoding="UTF-8" standalone="no"?>
<svg xmlns:ffdec="https://www.free-decompiler.com/flash" xmlns:xlink="http://www.w3.org/1999/xlink" ffdec:objectType="shape" height="124.55px" width="184.55px" xmlns="http://www.w3.org/2000/svg">
  <g transform="matrix(1.0, 0.0, 0.0, 1.0, 92.05, 115.9)">
    <path d="M67.8 -111.75 L63.55 -110.45 53.95 -109.4 34.25 -108.35 -0.45 -107.8 -22.1 -108.05 -47.3 -108.95 -60.25 -110.05 -67.1 -111.25 -67.75 -111.75 Q-66.6 -114.15 -51.4 -114.95 -1.6 -117.1 53.7 -114.5 L64.0 -113.35 67.8 -111.75" fill="url(#gradient0)" fill-rule="evenodd" stroke="none"/>
    <path d="M-67.75 -111.75 L-67.1 -111.25 -60.25 -110.05 -47.3 -108.95 -22.1 -108.05 -0.45 -107.8 34.25 -108.35 53.95 -109.4 63.55 -110.45 67.8 -111.75 60.0 -26.5 58.15 -7.85 20.7 -8.0 -58.65 -9.45 -60.1 -25.7 -60.25 -25.7 -67.75 -111.75" fill="url(#gradient1)" fill-rule="evenodd" stroke="none"/>
    <path d="M-60.25 -25.7 L-60.1 -25.7 -58.65 -9.45 -91.65 -10.25 -92.05 -12.9 -84.3 -17.65 -68.7 -23.85 -60.25 -25.7 M58.15 -7.85 L60.0 -26.5 75.7 -22.1 Q91.0 -15.5 92.5 -10.25 L87.85 -7.75 58.15 -7.85" fill="url(#gradient2)" fill-rule="evenodd" stroke="none"/>
    <path d="M-58.65 -9.45 L20.7 -8.0 58.15 -7.85 87.85 -7.75 92.5 -10.25 91.3 -6.15 84.15 -1.15 78.1 1.9 60.0 6.15 38.75 7.8 1.95 8.6 Q-85.95 9.65 -91.65 -10.25 L-58.65 -9.45" fill="url(#gradient3)" fill-rule="evenodd" stroke="none"/>
  </g>
  <defs>
    <radialGradient cx="0" cy="0" gradientTransform="matrix(0.0833, 0.0, 0.0, 0.0833, -0.45, -112.35)" gradientUnits="userSpaceOnUse" id="gradient0" r="819.2" spreadMethod="pad">
      <stop offset="0.0" stop-color="#ffffff"/>
      <stop offset="1.0" stop-color="#ffffff"/>
    </radialGradient>
    <radialGradient cx="0" cy="0" gradientTransform="matrix(0.1532, 0.0, 0.0, 0.1532, -6.0, -107.9)" gradientUnits="userSpaceOnUse" id="gradient1" r="819.2" spreadMethod="pad">
      <stop offset="0.0" stop-color="#d3d3d3"/>
      <stop offset="1.0" stop-color="#7a7a7a"/>
    </radialGradient>
    <radialGradient cx="0" cy="0" gradientTransform="matrix(0.1695, 0.0, 0.0, 0.1695, -45.85, -23.55)" gradientUnits="userSpaceOnUse" id="gradient2" r="819.2" spreadMethod="pad">
      <stop offset="0.0" stop-color="#ffffff"/>
      <stop offset="1.0" stop-color="#aaaaaa"/>
    </radialGradient>
    <radialGradient cx="0" cy="0" gradientTransform="matrix(0.1698, 0.0, 0.0, 0.1698, -45.7, 6.55)" gradientUnits="userSpaceOnUse" id="gradient3" r="819.2" spreadMethod="pad">
      <stop offset="0.0" stop-color="#ffffff"/>
      <stop offset="1.0" stop-color="#232323"/>
    </radialGradient>
  </defs>
</svg>
