<?xml version="1.0" encoding="UTF-8" standalone="no"?>
<svg xmlns:ffdec="https://www.free-decompiler.com/flash" xmlns:xlink="http://www.w3.org/1999/xlink" ffdec:objectType="shape" height="141.65px" width="155.5px" xmlns="http://www.w3.org/2000/svg">
  <g transform="matrix(1.0, 0.0, 0.0, 1.0, 78.2, 121.25)">
    <path d="M-60.5 -109.25 Q-60.8 -109.85 -60.6 -110.45 -56.8 -119.95 -4.9 -121.25 28.9 -121.2 46.8 -117.3 58.7 -114.65 59.85 -111.1 55.8 -100.7 1.0 -99.45 -32.0 -99.9 -51.1 -104.4 -59.45 -106.75 -60.5 -109.25" fill="url(#gradient0)" fill-rule="evenodd" stroke="none"/>
    <path d="M-60.5 -109.25 Q-59.45 -106.75 -51.1 -104.4 -32.0 -99.9 1.0 -99.45 55.8 -100.7 59.85 -111.1 L53.15 -31.9 50.6 -2.45 Q49.45 2.25 48.0 3.6 47.3 4.2 46.55 4.15 1.5 23.05 -47.15 4.3 L-49.8 2.45 Q-52.2 -2.6 -51.9 -7.35 L-54.0 -31.9 -60.5 -109.25" fill="url(#gradient1)" fill-rule="evenodd" stroke="none"/>
    <path d="M53.15 -31.9 Q56.85 -33.1 71.1 -27.15 L77.3 -20.95 75.35 -13.05 71.65 -10.25 Q67.85 -4.5 48.0 3.6 49.45 2.25 50.6 -2.45 L53.15 -31.9 M-77.95 -19.75 L-77.95 -20.0 -78.05 -20.25 -78.2 -21.05 Q-70.9 -30.2 -54.0 -31.9 L-51.9 -7.35 Q-52.2 -2.6 -49.8 2.45 L-47.15 4.3 -49.45 3.75 -66.45 -4.7 -76.35 -13.15 -76.6 -15.5 -77.95 -19.75" fill="url(#gradient2)" fill-rule="evenodd" stroke="none"/>
    <path d="M77.3 -20.95 Q77.3 15.9 -0.45 20.4 L-23.05 18.8 -39.5 15.35 Q-67.8 5.35 -72.25 -1.8 -77.25 -10.85 -77.95 -19.75 L-76.6 -15.5 -76.35 -13.15 -66.45 -4.7 -49.45 3.75 -47.15 4.3 Q1.5 23.05 46.55 4.15 47.3 4.2 48.0 3.6 67.85 -4.5 71.65 -10.25 L75.35 -13.05 77.3 -20.95" fill="url(#gradient3)" fill-rule="evenodd" stroke="none"/>
  </g>
  <defs>
    <radialGradient cx="0" cy="0" gradientTransform="matrix(0.0737, 0.0, 0.0, 0.0737, -0.45, -111.15)" gradientUnits="userSpaceOnUse" id="gradient0" r="819.2" spreadMethod="pad">
      <stop offset="0.0" stop-color="#ffffff"/>
      <stop offset="1.0" stop-color="#ffffff"/>
    </radialGradient>
    <radialGradient cx="0" cy="0" gradientTransform="matrix(0.1409, 0.0, 0.0, 0.1409, -0.45, -99.55)" gradientUnits="userSpaceOnUse" id="gradient1" r="819.2" spreadMethod="pad">
      <stop offset="0.0" stop-color="#d3d3d3"/>
      <stop offset="1.0" stop-color="#7e7e7e"/>
    </radialGradient>
    <radialGradient cx="0" cy="0" gradientTransform="matrix(0.1465, 0.0, 0.0, 0.1465, -42.55, -28.1)" gradientUnits="userSpaceOnUse" id="gradient2" r="819.2" spreadMethod="pad">
      <stop offset="0.0" stop-color="#ffffff"/>
      <stop offset="1.0" stop-color="#c4c4c4"/>
    </radialGradient>
    <radialGradient cx="0" cy="0" gradientTransform="matrix(0.1492, 0.0, 0.0, 0.1492, -39.55, 15.15)" gradientUnits="userSpaceOnUse" id="gradient3" r="819.2" spreadMethod="pad">
      <stop offset="0.0" stop-color="#fcfcfc"/>
      <stop offset="1.0" stop-color="#3a3a3a"/>
    </radialGradient>
  </defs>
</svg>
