<?xml version="1.0" encoding="UTF-8" standalone="no"?>
<svg xmlns:ffdec="https://www.free-decompiler.com/flash" xmlns:xlink="http://www.w3.org/1999/xlink" ffdec:objectType="shape" height="141.2px" width="156.6px" xmlns="http://www.w3.org/2000/svg">
  <g transform="matrix(1.0, 0.0, 0.0, 1.0, 77.95, 121.25)">
    <path d="M60.4 -109.25 Q56.05 -101.6 13.05 -99.75 -31.85 -97.5 -60.5 -109.25 L-60.25 -112.8 Q-44.2 -120.2 -12.45 -121.25 54.3 -121.8 60.4 -109.25" fill="url(#gradient0)" fill-rule="evenodd" stroke="none"/>
    <path d="M38.35 9.85 L37.95 9.85 37.7 9.95 Q-12.45 18.65 -51.1 -0.35 L-53.25 -23.95 -53.25 -24.4 -53.75 -31.1 -60.5 -109.25 Q-31.85 -97.5 13.05 -99.75 56.05 -101.6 60.4 -109.25 L53.8 -32.3 50.9 0.15 47.1 5.45 38.35 9.85" fill="url(#gradient1)" fill-rule="evenodd" stroke="none"/>
    <path d="M-51.1 -0.35 L-56.15 -2.05 -70.8 -9.85 -73.55 -13.3 -77.95 -17.65 -77.15 -23.85 Q-70.2 -30.25 -53.75 -31.1 L-53.25 -24.4 -53.25 -23.95 -51.1 -0.35 M78.35 -16.45 L73.6 -7.85 61.45 1.1 41.8 9.3 38.35 9.85 47.1 5.45 50.9 0.15 53.8 -32.3 64.9 -29.75 74.8 -24.5 75.35 -24.1 78.35 -16.45" fill="url(#gradient2)" fill-rule="evenodd" stroke="none"/>
    <path d="M-51.1 -0.35 Q-12.45 18.65 37.7 9.95 L37.95 9.85 38.35 9.85 41.8 9.3 61.45 1.1 73.6 -7.85 78.35 -16.45 Q80.35 -13.3 69.9 2.15 52.9 15.75 14.35 19.95 -22.15 20.2 -49.15 10.45 -65.6 5.15 -73.8 -5.5 -77.4 -9.85 -77.95 -17.65 L-73.55 -13.3 -70.8 -9.85 -56.15 -2.05 -51.1 -0.35" fill="url(#gradient3)" fill-rule="evenodd" stroke="none"/>
  </g>
  <defs>
    <radialGradient cx="0" cy="0" gradientTransform="matrix(0.0743, 0.0, 0.0, 0.0743, -0.45, -111.2)" gradientUnits="userSpaceOnUse" id="gradient0" r="819.2" spreadMethod="pad">
      <stop offset="0.0" stop-color="#ffffff"/>
      <stop offset="1.0" stop-color="#ffffff"/>
    </radialGradient>
    <radialGradient cx="0" cy="0" gradientTransform="matrix(0.147, 0.0, 0.0, 0.147, 12.25, -99.8)" gradientUnits="userSpaceOnUse" id="gradient1" r="819.2" spreadMethod="pad">
      <stop offset="0.0" stop-color="#d0d0d0"/>
      <stop offset="1.0" stop-color="#6e6e6e"/>
    </radialGradient>
    <radialGradient cx="0" cy="0" gradientTransform="matrix(0.1625, 0.0, 0.0, 0.1625, -54.4, -26.15)" gradientUnits="userSpaceOnUse" id="gradient2" r="819.2" spreadMethod="pad">
      <stop offset="0.0" stop-color="#ffffff"/>
      <stop offset="1.0" stop-color="#aaaaaa"/>
    </radialGradient>
    <radialGradient cx="0" cy="0" gradientTransform="matrix(0.1422, 0.0, 0.0, 0.1422, 33.15, 17.6)" gradientUnits="userSpaceOnUse" id="gradient3" r="819.2" spreadMethod="pad">
      <stop offset="0.0" stop-color="#fefefe"/>
      <stop offset="1.0" stop-color="#181818"/>
    </radialGradient>
  </defs>
</svg>
