<?xml version="1.0" encoding="UTF-8" standalone="no"?>
<svg xmlns:ffdec="https://www.free-decompiler.com/flash" xmlns:xlink="http://www.w3.org/1999/xlink" ffdec:objectType="shape" height="141.15px" width="157.45px" xmlns="http://www.w3.org/2000/svg">
  <g transform="matrix(1.0, 0.0, 0.0, 1.0, 78.4, 121.25)">
    <path d="M-60.95 -109.95 Q-61.25 -110.65 -61.05 -111.35 -56.65 -120.85 -2.45 -121.25 L16.45 -120.75 34.8 -119.0 Q58.95 -115.3 60.9 -110.2 L60.85 -109.5 Q60.15 -106.2 50.6 -103.85 13.2 -98.35 -21.55 -100.5 L-39.65 -102.65 -52.7 -105.55 Q-59.85 -107.7 -60.95 -109.95" fill="url(#gradient0)" fill-rule="evenodd" stroke="none"/>
    <path d="M-60.95 -109.95 Q-59.85 -107.7 -52.7 -105.55 L-39.65 -102.65 -21.55 -100.5 Q13.2 -98.35 50.6 -103.85 60.15 -106.2 60.85 -109.5 L54.05 -32.3 Q52.4 1.45 48.65 4.65 L41.65 8.9 34.0 11.15 33.9 11.15 26.5 12.55 Q-15.65 11.95 -46.8 0.15 -51.0 -0.9 -51.1 -1.5 L-51.9 -4.05 -52.2 -8.0 -52.35 -8.9 -52.35 -9.35 -52.85 -16.05 -52.95 -16.3 -54.2 -30.3 -60.95 -109.95" fill="url(#gradient1)" fill-rule="evenodd" stroke="none"/>
    <path d="M54.05 -32.3 Q58.7 -32.95 73.35 -25.8 L79.05 -18.15 Q76.65 3.05 34.0 11.15 L41.65 8.9 48.65 4.65 Q52.4 1.45 54.05 -32.3 M-78.2 -18.35 Q-78.6 -19.4 -78.2 -20.25 -78.25 -27.3 -61.15 -29.95 L-54.2 -30.3 -52.95 -16.3 -52.85 -16.05 -52.35 -9.35 -52.35 -8.9 -52.2 -8.0 -51.9 -4.05 -51.1 -1.5 -67.2 -8.4 Q-77.05 -14.7 -78.2 -18.35" fill="url(#gradient2)" fill-rule="evenodd" stroke="none"/>
    <path d="M79.05 -18.15 Q78.35 2.3 59.75 9.95 33.1 21.2 2.05 19.7 -77.7 12.7 -78.2 -18.35 -77.05 -14.7 -67.2 -8.4 L-51.1 -1.5 Q-51.0 -0.9 -46.8 0.15 -15.65 11.95 26.5 12.55 L33.9 11.15 34.0 11.15 Q76.65 3.05 79.05 -18.15" fill="url(#gradient3)" fill-rule="evenodd" stroke="none"/>
  </g>
  <defs>
    <radialGradient cx="0" cy="0" gradientTransform="matrix(0.0748, 0.0, 0.0, 0.0748, -0.45, -111.25)" gradientUnits="userSpaceOnUse" id="gradient0" r="819.2" spreadMethod="pad">
      <stop offset="0.0" stop-color="#ffffff"/>
      <stop offset="1.0" stop-color="#ffffff"/>
    </radialGradient>
    <radialGradient cx="0" cy="0" gradientTransform="matrix(0.1428, 0.0, 0.0, 0.1428, -1.65, -99.8)" gradientUnits="userSpaceOnUse" id="gradient1" r="819.2" spreadMethod="pad">
      <stop offset="0.0" stop-color="#d2d2d2"/>
      <stop offset="1.0" stop-color="#7e7e7e"/>
    </radialGradient>
    <radialGradient cx="0" cy="0" gradientTransform="matrix(0.1502, 0.0, 0.0, 0.1502, -43.4, -31.0)" gradientUnits="userSpaceOnUse" id="gradient2" r="819.2" spreadMethod="pad">
      <stop offset="0.0" stop-color="#ffffff"/>
      <stop offset="1.0" stop-color="#c6c6c6"/>
    </radialGradient>
    <radialGradient cx="0" cy="0" gradientTransform="matrix(0.1312, 0.0, 0.0, 0.1312, 20.35, 19.5)" gradientUnits="userSpaceOnUse" id="gradient3" r="819.2" spreadMethod="pad">
      <stop offset="0.0" stop-color="#fbfbfb"/>
      <stop offset="1.0" stop-color="#3a3a3a"/>
    </radialGradient>
  </defs>
</svg>
