<?xml version="1.0" encoding="UTF-8" standalone="no"?>
<svg xmlns:ffdec="https://www.free-decompiler.com/flash" xmlns:xlink="http://www.w3.org/1999/xlink" ffdec:objectType="shape" height="140.95px" width="159.1px" xmlns="http://www.w3.org/2000/svg">
  <g transform="matrix(1.0, 0.0, 0.0, 1.0, 79.55, 121.25)">
    <path d="M-61.7 -111.0 Q-58.25 -120.3 -9.95 -121.25 L13.3 -120.85 29.75 -119.55 Q58.8 -115.55 60.8 -110.55 L60.8 -109.5 60.65 -109.15 60.65 -108.2 Q48.95 -99.75 3.8 -99.75 -46.1 -100.0 -61.7 -111.0" fill="url(#gradient0)" fill-rule="evenodd" stroke="none"/>
    <path d="M-61.7 -111.0 Q-46.1 -100.0 3.8 -99.75 48.95 -99.75 60.65 -108.2 L54.05 -32.55 50.8 3.25 Q49.45 8.0 30.2 12.05 -8.55 11.75 -43.6 0.15 L-52.35 -3.1 -53.15 -12.35 -53.15 -12.75 -54.55 -29.5 -54.7 -29.5 -61.7 -111.0" fill="url(#gradient1)" fill-rule="evenodd" stroke="none"/>
    <path d="M54.05 -32.55 Q71.7 -29.55 78.85 -20.0 L79.55 -11.3 77.95 -9.85 71.65 -1.7 Q70.8 -1.3 69.9 -1.0 55.4 10.15 30.2 12.05 49.45 8.0 50.8 3.25 L54.05 -32.55 M-79.3 -19.15 L-79.55 -20.45 Q-79.8 -28.6 -54.7 -29.5 L-54.55 -29.5 -53.15 -12.75 -53.15 -12.35 -52.35 -3.1 Q-77.1 -13.1 -79.3 -19.15" fill="url(#gradient2)" fill-rule="evenodd" stroke="none"/>
    <path d="M79.55 -11.3 Q79.65 -4.05 68.05 6.25 60.95 12.9 30.7 18.65 L6.95 19.7 Q-72.75 15.2 -79.3 -19.15 -77.1 -13.1 -52.35 -3.1 L-43.6 0.15 Q-8.55 11.75 30.2 12.05 55.4 10.15 69.9 -1.0 70.8 -1.3 71.65 -1.7 L77.95 -9.85 79.55 -11.3" fill="url(#gradient3)" fill-rule="evenodd" stroke="none"/>
  </g>
  <defs>
    <radialGradient cx="0" cy="0" gradientTransform="matrix(0.0748, 0.0, 0.0, 0.0748, -0.45, -111.3)" gradientUnits="userSpaceOnUse" id="gradient0" r="819.2" spreadMethod="pad">
      <stop offset="0.0" stop-color="#ffffff"/>
      <stop offset="1.0" stop-color="#ffffff"/>
    </radialGradient>
    <radialGradient cx="0" cy="0" gradientTransform="matrix(0.1425, 0.0, 0.0, 0.1425, 4.7, -99.85)" gradientUnits="userSpaceOnUse" id="gradient1" r="819.2" spreadMethod="pad">
      <stop offset="0.0" stop-color="#d3d3d3"/>
      <stop offset="1.0" stop-color="#838383"/>
    </radialGradient>
    <radialGradient cx="0" cy="0" gradientTransform="matrix(0.1579, 0.0, 0.0, 0.1579, -49.15, -25.55)" gradientUnits="userSpaceOnUse" id="gradient2" r="819.2" spreadMethod="pad">
      <stop offset="0.0" stop-color="#ffffff"/>
      <stop offset="1.0" stop-color="#ababab"/>
    </radialGradient>
    <radialGradient cx="0" cy="0" gradientTransform="matrix(0.1389, 0.0, 0.0, 0.1389, 27.0, 18.95)" gradientUnits="userSpaceOnUse" id="gradient3" r="819.2" spreadMethod="pad">
      <stop offset="0.0" stop-color="#fcfcfc"/>
      <stop offset="1.0" stop-color="#1d1d1d"/>
    </radialGradient>
  </defs>
</svg>
