<?xml version="1.0" encoding="UTF-8" standalone="no"?>
<svg xmlns:ffdec="https://www.free-decompiler.com/flash" xmlns:xlink="http://www.w3.org/1999/xlink" ffdec:objectType="shape" height="139.75px" width="163.3px" xmlns="http://www.w3.org/2000/svg">
  <g transform="matrix(1.0, 0.0, 0.0, 1.0, 80.85, 121.05)">
    <path d="M-62.2 -111.5 Q-57.2 -121.8 1.8 -121.0 27.3 -120.35 49.3 -116.1 L59.25 -112.95 62.75 -109.4 Q57.9 -100.25 1.7 -100.0 -52.45 -100.95 -62.2 -111.5" fill="url(#gradient0)" fill-rule="evenodd" stroke="none"/>
    <path d="M-62.2 -111.5 Q-52.45 -100.95 1.7 -100.0 57.9 -100.25 62.75 -109.4 L55.8 -32.05 52.9 0.7 49.85 5.7 Q42.25 10.1 39.05 10.45 L38.2 10.45 25.15 11.0 Q-17.6 6.05 -52.95 -4.6 L-55.1 -28.45 -62.2 -111.5" fill="url(#gradient1)" fill-rule="evenodd" stroke="none"/>
    <path d="M55.8 -32.05 L64.5 -30.05 77.0 -23.15 82.45 -14.7 79.55 -5.1 68.05 4.3 49.2 10.2 39.05 10.45 Q42.25 10.1 49.85 5.7 L52.9 0.7 55.8 -32.05 M-80.05 -18.3 L-80.05 -18.4 -80.3 -19.2 -80.7 -20.95 Q-81.9 -23.7 -74.75 -25.8 L-55.1 -28.45 -52.95 -4.6 -70.3 -11.45 Q-80.05 -16.45 -80.05 -18.3" fill="url(#gradient2)" fill-rule="evenodd" stroke="none"/>
    <path d="M82.45 -14.7 Q79.7 0.1 75.6 3.05 67.0 12.85 43.9 16.95 6.6 22.35 -42.55 10.9 L-58.0 5.6 Q-81.1 -4.45 -80.05 -18.3 -80.05 -16.45 -70.3 -11.45 L-52.95 -4.6 Q-17.6 6.05 25.15 11.0 L38.2 10.45 39.05 10.45 49.2 10.2 68.05 4.3 79.55 -5.1 82.45 -14.7" fill="url(#gradient3)" fill-rule="evenodd" stroke="none"/>
  </g>
  <defs>
    <radialGradient cx="0" cy="0" gradientTransform="matrix(0.0771, 0.0, 0.0, 0.0771, -0.45, -111.25)" gradientUnits="userSpaceOnUse" id="gradient0" r="819.2" spreadMethod="pad">
      <stop offset="0.0" stop-color="#ffffff"/>
      <stop offset="1.0" stop-color="#ffffff"/>
    </radialGradient>
    <radialGradient cx="0" cy="0" gradientTransform="matrix(0.1449, 0.0, 0.0, 0.1449, -3.55, -100.15)" gradientUnits="userSpaceOnUse" id="gradient1" r="819.2" spreadMethod="pad">
      <stop offset="0.0" stop-color="#d0d0d0"/>
      <stop offset="1.0" stop-color="#7f7f7f"/>
    </radialGradient>
    <radialGradient cx="0" cy="0" gradientTransform="matrix(0.1753, 0.0, 0.0, 0.1753, -60.95, -23.3)" gradientUnits="userSpaceOnUse" id="gradient2" r="819.2" spreadMethod="pad">
      <stop offset="0.0" stop-color="#ffffff"/>
      <stop offset="1.0" stop-color="#c7c7c7"/>
    </radialGradient>
    <radialGradient cx="0" cy="0" gradientTransform="matrix(0.1549, 0.0, 0.0, 0.1549, 39.5, 17.35)" gradientUnits="userSpaceOnUse" id="gradient3" r="819.2" spreadMethod="pad">
      <stop offset="0.0" stop-color="#ffffff"/>
      <stop offset="1.0" stop-color="#474747"/>
    </radialGradient>
  </defs>
</svg>
