<?xml version="1.0" encoding="UTF-8" standalone="no"?>
<svg xmlns:ffdec="https://www.free-decompiler.com/flash" xmlns:xlink="http://www.w3.org/1999/xlink" ffdec:objectType="shape" height="139.55px" width="165.45px" xmlns="http://www.w3.org/2000/svg">
  <g transform="matrix(1.0, 0.0, 0.0, 1.0, 82.45, 121.0)">
    <path d="M-63.4 -111.6 Q-59.2 -120.6 -7.2 -121.0 22.4 -120.8 47.6 -116.5 60.65 -113.9 63.05 -110.2 L63.05 -110.05 62.85 -108.15 Q61.55 -105.8 54.5 -103.95 19.7 -98.65 -17.35 -100.8 L-37.9 -102.9 Q-57.2 -105.25 -63.4 -111.6" fill="url(#gradient0)" fill-rule="evenodd" stroke="none"/>
    <path d="M-63.4 -111.6 Q-57.2 -105.25 -37.9 -102.9 L-17.35 -100.8 Q19.7 -98.65 54.5 -103.95 61.55 -105.8 62.85 -108.15 L56.05 -32.15 53.25 -0.65 Q51.55 3.75 52.1 4.4 L45.5 8.5 40.85 9.85 32.15 10.2 3.9 6.9 -22.0 2.45 -47.3 -3.35 -53.9 -5.65 -54.0 -5.75 -54.55 -12.35 -54.55 -12.5 -55.85 -28.1 -63.4 -111.6" fill="url(#gradient1)" fill-rule="evenodd" stroke="none"/>
    <path d="M56.05 -32.15 L60.9 -31.25 75.2 -24.75 83.0 -16.75 82.75 -7.05 73.35 2.7 Q55.8 11.5 40.85 9.85 L45.5 8.5 52.1 4.4 Q51.55 3.75 53.25 -0.65 L56.05 -32.15 M-82.45 -20.45 Q-82.7 -21.6 -78.2 -24.4 L-55.85 -28.1 -54.55 -12.5 -54.55 -12.35 -54.0 -5.75 -66.7 -9.85 -78.75 -15.65 -82.45 -20.45" fill="url(#gradient2)" fill-rule="evenodd" stroke="none"/>
    <path d="M82.75 -7.05 L81.5 -1.95 Q71.65 9.85 65.4 11.0 38.65 20.0 4.6 18.3 -78.2 12.2 -82.45 -20.45 L-78.75 -15.65 -66.7 -9.85 -54.0 -5.75 -53.9 -5.65 -47.3 -3.35 -22.0 2.45 3.9 6.9 32.15 10.2 40.85 9.85 Q55.8 11.5 73.35 2.7 L82.75 -7.05" fill="url(#gradient3)" fill-rule="evenodd" stroke="none"/>
  </g>
  <defs>
    <radialGradient cx="0" cy="0" gradientTransform="matrix(0.0775, 0.0, 0.0, 0.0775, -0.45, -111.2)" gradientUnits="userSpaceOnUse" id="gradient0" r="819.2" spreadMethod="pad">
      <stop offset="0.0" stop-color="#ffffff"/>
      <stop offset="1.0" stop-color="#ffffff"/>
    </radialGradient>
    <radialGradient cx="0" cy="0" gradientTransform="matrix(0.1424, 0.0, 0.0, 0.1424, 2.6, -100.1)" gradientUnits="userSpaceOnUse" id="gradient1" r="819.2" spreadMethod="pad">
      <stop offset="0.0" stop-color="#d2d2d2"/>
      <stop offset="1.0" stop-color="#838383"/>
    </radialGradient>
    <radialGradient cx="0" cy="0" gradientTransform="matrix(0.1826, 0.0, 0.0, 0.1826, -66.25, -21.95)" gradientUnits="userSpaceOnUse" id="gradient2" r="819.2" spreadMethod="pad">
      <stop offset="0.0" stop-color="#ffffff"/>
      <stop offset="1.0" stop-color="#acacac"/>
    </radialGradient>
    <radialGradient cx="0" cy="0" gradientTransform="matrix(0.1624, 0.0, 0.0, 0.1624, 45.25, 16.25)" gradientUnits="userSpaceOnUse" id="gradient3" r="819.2" spreadMethod="pad">
      <stop offset="0.0" stop-color="#ffffff"/>
      <stop offset="1.0" stop-color="#242424"/>
    </radialGradient>
  </defs>
</svg>
