<?xml version="1.0" encoding="UTF-8" standalone="no"?>
<svg xmlns:ffdec="https://www.free-decompiler.com/flash" xmlns:xlink="http://www.w3.org/1999/xlink" ffdec:objectType="shape" height="138.9px" width="168.4px" xmlns="http://www.w3.org/2000/svg">
  <g transform="matrix(1.0, 0.0, 0.0, 1.0, 83.45, 120.85)">
    <path d="M-63.95 -110.8 Q-60.0 -120.6 -8.25 -120.85 L10.65 -120.5 26.85 -119.25 43.75 -117.15 56.45 -114.25 63.05 -111.25 63.7 -107.9 Q57.9 -100.8 5.65 -100.15 -24.65 -100.45 -48.75 -104.75 -62.1 -107.65 -63.95 -110.8" fill="url(#gradient0)" fill-rule="evenodd" stroke="none"/>
    <path d="M-63.95 -110.8 Q-62.1 -107.65 -48.75 -104.75 -24.65 -100.45 5.65 -100.15 57.9 -100.8 63.7 -107.9 L56.7 -32.3 53.55 3.05 Q48.05 8.6 43.55 9.15 L40.6 9.4 Q-9.45 5.4 -54.55 -6.3 L-56.4 -27.65 -56.55 -27.8 -63.95 -110.8" fill="url(#gradient1)" fill-rule="evenodd" stroke="none"/>
    <path d="M56.7 -32.3 L72.7 -26.35 83.0 -18.3 84.95 -8.9 78.35 0.7 64.0 7.2 62.65 7.55 43.55 9.15 Q48.05 8.6 53.55 3.05 L56.7 -32.3 M-83.3 -18.5 L-83.35 -18.7 Q-84.6 -23.55 -72.15 -25.0 L-56.55 -27.8 -56.4 -27.65 -54.55 -6.3 Q-81.75 -13.7 -83.3 -18.5" fill="url(#gradient2)" fill-rule="evenodd" stroke="none"/>
    <path d="M84.95 -8.9 Q82.2 8.1 60.4 12.85 43.05 18.4 10.5 18.0 -74.15 13.8 -83.3 -18.5 -81.75 -13.7 -54.55 -6.3 -9.45 5.4 40.6 9.4 L43.55 9.15 62.65 7.55 64.0 7.2 78.35 0.7 84.95 -8.9" fill="url(#gradient3)" fill-rule="evenodd" stroke="none"/>
  </g>
  <defs>
    <radialGradient cx="0" cy="0" gradientTransform="matrix(0.0783, 0.0, 0.0, 0.0783, -0.45, -111.2)" gradientUnits="userSpaceOnUse" id="gradient0" r="819.2" spreadMethod="pad">
      <stop offset="0.0" stop-color="#ffffff"/>
      <stop offset="1.0" stop-color="#ffffff"/>
    </radialGradient>
    <radialGradient cx="0" cy="0" gradientTransform="matrix(0.1451, 0.0, 0.0, 0.1451, 8.65, -100.2)" gradientUnits="userSpaceOnUse" id="gradient1" r="819.2" spreadMethod="pad">
      <stop offset="0.0" stop-color="#d3d3d3"/>
      <stop offset="1.0" stop-color="#7b7b7b"/>
    </radialGradient>
    <radialGradient cx="0" cy="0" gradientTransform="matrix(0.1909, 0.0, 0.0, 0.1909, -71.15, -20.55)" gradientUnits="userSpaceOnUse" id="gradient2" r="819.2" spreadMethod="pad">
      <stop offset="0.0" stop-color="#ffffff"/>
      <stop offset="1.0" stop-color="#aaaaaa"/>
    </radialGradient>
    <radialGradient cx="0" cy="0" gradientTransform="matrix(0.1665, 0.0, 0.0, 0.1665, -50.5, 8.05)" gradientUnits="userSpaceOnUse" id="gradient3" r="819.2" spreadMethod="pad">
      <stop offset="0.0" stop-color="#fcfcfc"/>
      <stop offset="1.0" stop-color="#242424"/>
    </radialGradient>
  </defs>
</svg>
