<?xml version="1.0" encoding="UTF-8" standalone="no"?>
<svg xmlns:ffdec="https://www.free-decompiler.com/flash" xmlns:xlink="http://www.w3.org/1999/xlink" ffdec:objectType="shape" height="119.7px" width="162.85px" xmlns="http://www.w3.org/2000/svg">
  <g transform="matrix(1.0, 0.0, 0.0, 1.0, 80.75, 119.15)">
    <path d="M54.2 -20.25 L53.7 -13.05 Q7.65 -15.95 -29.65 -20.95 L-54.3 -22.25 -60.35 -104.4 Q-61.55 -112.4 -59.85 -113.1 -33.25 -119.25 16.85 -119.15 57.2 -118.45 61.1 -113.1 L54.2 -20.25 M-37.7 -1.25 L-52.85 -1.25 Q-52.7 -2.6 -48.4 -2.05 L-38.2 -2.05 -28.6 -1.4 -37.7 -1.25" fill="url(#gradient0)" fill-rule="evenodd" stroke="none"/>
    <path d="M53.7 -13.05 L68.6 -14.1 Q81.65 -16.75 82.05 -19.65 82.85 -6.8 64.1 -1.4 54.9 1.05 1.15 -0.45 L-32.0 0.45 Q-67.75 1.4 -76.75 -8.4 L-79.8 -14.1 Q-81.9 -20.45 -79.35 -21.05 L-70.15 -22.55 -54.3 -22.25 -29.65 -20.95 Q7.65 -15.95 53.7 -13.05 M-28.6 -1.4 L-38.2 -2.05 -48.4 -2.05 Q-52.7 -2.6 -52.85 -1.25 L-37.7 -1.25 -24.1 -1.15 -28.6 -1.4" fill="url(#gradient1)" fill-rule="evenodd" stroke="none"/>
    <path d="M53.7 -13.05 L54.2 -20.25 64.0 -20.95 75.95 -20.7 82.05 -19.65 Q81.65 -16.75 68.6 -14.1 L53.7 -13.05" fill="url(#gradient2)" fill-rule="evenodd" stroke="none"/>
    <path d="M-37.7 -1.25 L-28.6 -1.4 -24.1 -1.15 -37.7 -1.25" fill="url(#gradient3)" fill-rule="evenodd" stroke="none"/>
  </g>
  <defs>
    <radialGradient cx="0" cy="0" gradientTransform="matrix(0.1594, 0.0, 0.0, 0.1594, -3.5, -119.2)" gradientUnits="userSpaceOnUse" id="gradient0" r="819.2" spreadMethod="pad">
      <stop offset="0.0" stop-color="#d0d0d0"/>
      <stop offset="1.0" stop-color="#585858"/>
    </radialGradient>
    <radialGradient cx="0" cy="0" gradientTransform="matrix(0.188, 0.0, 0.0, 0.188, 72.8, -5.3)" gradientUnits="userSpaceOnUse" id="gradient1" r="819.2" spreadMethod="pad">
      <stop offset="0.0" stop-color="#ffffff"/>
      <stop offset="1.0" stop-color="#202020"/>
    </radialGradient>
    <radialGradient cx="0" cy="0" gradientTransform="matrix(0.1732, 0.0, 0.0, 0.1732, 60.9, -8.7)" gradientUnits="userSpaceOnUse" id="gradient2" r="819.2" spreadMethod="pad">
      <stop offset="0.0" stop-color="#ffffff"/>
      <stop offset="1.0" stop-color="#969696"/>
    </radialGradient>
    <radialGradient cx="0" cy="0" gradientTransform="matrix(0.0338, 0.0, 0.0, 0.0338, -28.15, -1.25)" gradientUnits="userSpaceOnUse" id="gradient3" r="819.2" spreadMethod="pad">
      <stop offset="0.0" stop-color="#000000"/>
      <stop offset="1.0" stop-color="#000000"/>
    </radialGradient>
  </defs>
</svg>
