<?xml version="1.0" encoding="UTF-8" standalone="no"?>
<svg xmlns:ffdec="https://www.free-decompiler.com/flash" xmlns:xlink="http://www.w3.org/1999/xlink" ffdec:objectType="shape" height="135.6px" width="180.2px" xmlns="http://www.w3.org/2000/svg">
  <g transform="matrix(1.0, 0.0, 0.0, 1.0, 89.3, 120.5)">
    <path d="M67.4 -109.5 L62.95 -106.2 52.65 -103.7 Q2.5 -98.9 -46.1 -104.1 L-59.3 -106.75 -66.7 -110.05 -67.1 -112.95 Q-51.8 -119.5 -15.75 -120.5 54.3 -121.0 67.4 -109.5" fill="url(#gradient0)" fill-rule="evenodd" stroke="none"/>
    <path d="M-66.7 -110.05 L-59.3 -106.75 -46.1 -104.1 Q2.5 -98.9 52.65 -103.7 L62.95 -106.2 67.4 -109.5 59.85 -31.0 56.95 -3.0 56.95 -0.1 56.6 1.5 55.25 3.05 23.6 2.15 -3.35 0.45 -32.0 -2.6 -56.95 -5.9 -59.05 -28.7 -59.2 -28.7 -66.7 -110.05" fill="url(#gradient1)" fill-rule="evenodd" stroke="none"/>
    <path d="M-59.2 -28.7 L-59.05 -28.7 -56.95 -5.9 -60.6 -6.3 -78.75 -10.15 -88.6 -13.55 -89.3 -16.55 -81.65 -20.8 -67.1 -26.5 -59.2 -28.7 M55.25 3.05 L56.6 1.5 56.95 -0.1 56.95 -3.0 59.85 -31.0 72.8 -26.85 86.25 -18.3 90.9 -8.8 86.55 -1.15 Q74.9 4.4 55.25 3.05" fill="url(#gradient2)" fill-rule="evenodd" stroke="none"/>
    <path d="M-56.95 -5.9 L-32.0 -2.6 -3.35 0.45 23.6 2.15 55.25 3.05 Q74.9 4.4 86.55 -1.15 L90.9 -8.8 Q87.55 2.6 82.2 4.55 65.25 16.75 -4.8 14.85 -86.4 7.3 -88.6 -13.55 L-78.75 -10.15 -60.6 -6.3 -56.95 -5.9" fill="url(#gradient3)" fill-rule="evenodd" stroke="none"/>
  </g>
  <defs>
    <radialGradient cx="0" cy="0" gradientTransform="matrix(0.0829, 0.0, 0.0, 0.0829, -0.45, -111.3)" gradientUnits="userSpaceOnUse" id="gradient0" r="819.2" spreadMethod="pad">
      <stop offset="0.0" stop-color="#ffffff"/>
      <stop offset="1.0" stop-color="#ffffff"/>
    </radialGradient>
    <radialGradient cx="0" cy="0" gradientTransform="matrix(0.1523, 0.0, 0.0, 0.1523, 16.45, -101.0)" gradientUnits="userSpaceOnUse" id="gradient1" r="819.2" spreadMethod="pad">
      <stop offset="0.0" stop-color="#d1d1d1"/>
      <stop offset="1.0" stop-color="#666666"/>
    </radialGradient>
    <radialGradient cx="0" cy="0" gradientTransform="matrix(0.1682, 0.0, 0.0, 0.1682, -45.65, -27.65)" gradientUnits="userSpaceOnUse" id="gradient2" r="819.2" spreadMethod="pad">
      <stop offset="0.0" stop-color="#ffffff"/>
      <stop offset="1.0" stop-color="#cccccc"/>
    </radialGradient>
    <radialGradient cx="0" cy="0" gradientTransform="matrix(0.184, 0.0, 0.0, 0.184, 58.75, 12.1)" gradientUnits="userSpaceOnUse" id="gradient3" r="819.2" spreadMethod="pad">
      <stop offset="0.0" stop-color="#fcfcfc"/>
      <stop offset="1.0" stop-color="#525252"/>
    </radialGradient>
  </defs>
</svg>
