<?xml version="1.0" encoding="UTF-8" standalone="no"?>
<svg xmlns:ffdec="https://www.free-decompiler.com/flash" xmlns:xlink="http://www.w3.org/1999/xlink" ffdec:objectType="shape" height="135.15px" width="182.3px" xmlns="http://www.w3.org/2000/svg">
  <g transform="matrix(1.0, 0.0, 0.0, 1.0, 91.0, 120.3)">
    <path d="M-67.85 -111.1 L-67.9 -111.5 Q-62.65 -120.05 -3.85 -120.3 29.5 -120.0 51.55 -116.35 L62.95 -113.6 67.8 -110.3 Q64.9 -104.75 42.45 -102.55 -13.45 -99.2 -57.45 -106.05 -67.3 -108.55 -67.85 -111.1" fill="url(#gradient0)" fill-rule="evenodd" stroke="none"/>
    <path d="M-67.85 -111.1 Q-67.3 -108.55 -57.45 -106.05 -13.45 -99.2 42.45 -102.55 64.9 -104.75 67.8 -110.3 L60.0 -30.85 57.1 -0.1 56.15 1.9 30.2 1.5 1.4 0.3 -26.45 -2.05 -57.9 -5.5 -60.1 -29.0 -67.85 -111.1" fill="url(#gradient1)" fill-rule="evenodd" stroke="none"/>
    <path d="M60.0 -30.85 L70.05 -28.1 84.4 -20.15 91.15 -11.2 91.3 -10.5 89.35 -3.25 77.7 0.95 56.15 1.9 57.1 -0.1 60.0 -30.85 M-90.7 -14.2 L-91.0 -14.45 -85.35 -18.95 -73.05 -24.65 -60.1 -29.0 -57.9 -5.5 -75.4 -8.4 -87.95 -11.55 -90.7 -14.2" fill="url(#gradient2)" fill-rule="evenodd" stroke="none"/>
    <path d="M89.35 -3.25 L88.0 0.85 74.0 7.7 69.0 9.65 46.95 13.8 4.6 14.85 -8.8 14.3 Q-83.2 9.15 -90.7 -14.2 L-87.95 -11.55 -75.4 -8.4 -57.9 -5.5 -26.45 -2.05 1.4 0.3 30.2 1.5 56.15 1.9 77.7 0.95 89.35 -3.25" fill="url(#gradient3)" fill-rule="evenodd" stroke="none"/>
  </g>
  <defs>
    <radialGradient cx="0" cy="0" gradientTransform="matrix(0.0832, 0.0, 0.0, 0.0832, -0.45, -111.3)" gradientUnits="userSpaceOnUse" id="gradient0" r="819.2" spreadMethod="pad">
      <stop offset="0.0" stop-color="#ffffff"/>
      <stop offset="1.0" stop-color="#ffffff"/>
    </radialGradient>
    <radialGradient cx="0" cy="0" gradientTransform="matrix(0.1448, 0.0, 0.0, 0.1448, -0.1, -101.0)" gradientUnits="userSpaceOnUse" id="gradient1" r="819.2" spreadMethod="pad">
      <stop offset="0.0" stop-color="#d3d3d3"/>
      <stop offset="1.0" stop-color="#8d8d8d"/>
    </radialGradient>
    <radialGradient cx="0" cy="0" gradientTransform="matrix(0.1754, 0.0, 0.0, 0.1754, -51.55, -26.7)" gradientUnits="userSpaceOnUse" id="gradient2" r="819.2" spreadMethod="pad">
      <stop offset="0.0" stop-color="#ffffff"/>
      <stop offset="1.0" stop-color="#d2d2d2"/>
    </radialGradient>
    <radialGradient cx="0" cy="0" gradientTransform="matrix(0.184, 0.0, 0.0, 0.184, -61.25, 5.9)" gradientUnits="userSpaceOnUse" id="gradient3" r="819.2" spreadMethod="pad">
      <stop offset="0.0" stop-color="#f1f1f1"/>
      <stop offset="1.0" stop-color="#343434"/>
    </radialGradient>
  </defs>
</svg>
