<?xml version="1.0" encoding="UTF-8" standalone="no"?>
<svg xmlns:ffdec="https://www.free-decompiler.com/flash" xmlns:xlink="http://www.w3.org/1999/xlink" ffdec:objectType="shape" height="133.95px" width="182.95px" xmlns="http://www.w3.org/2000/svg">
  <g transform="matrix(1.0, 0.0, 0.0, 1.0, 91.8, 120.3)">
    <path d="M-68.55 -110.8 L-66.05 -113.9 Q-45.65 -119.8 -8.0 -120.3 58.0 -119.8 67.5 -110.45 L67.4 -110.05 67.4 -109.5 67.25 -108.7 67.25 -108.6 66.75 -108.05 60.0 -105.45 Q28.8 -100.1 -18.4 -101.45 L-37.0 -102.8 -54.7 -105.25 Q-68.0 -108.35 -68.55 -110.8" fill="url(#gradient0)" fill-rule="evenodd" stroke="none"/>
    <path d="M-68.55 -110.8 Q-68.0 -108.35 -54.7 -105.25 L-37.0 -102.8 -18.4 -101.45 Q28.8 -100.1 60.0 -105.45 L66.75 -108.05 67.25 -108.6 59.75 -30.85 56.6 0.6 8.9 0.15 -47.3 -3.65 -58.25 -5.1 -60.6 -29.5 -68.55 -110.8" fill="url(#gradient1)" fill-rule="evenodd" stroke="none"/>
    <path d="M59.75 -30.85 L65.85 -29.5 82.2 -21.85 91.0 -12.75 91.15 -5.2 81.75 -0.9 65.15 0.45 56.6 0.6 59.75 -30.85 M-91.8 -12.5 Q-91.0 -18.4 -60.6 -29.5 L-58.25 -5.1 -72.65 -6.95 -86.65 -9.7 -91.8 -12.5" fill="url(#gradient2)" fill-rule="evenodd" stroke="none"/>
    <path d="M91.15 -5.2 Q85.1 8.35 48.25 12.85 -32.65 16.55 -73.3 2.8 -81.2 0.85 -90.35 -7.75 L-91.8 -12.5 -86.65 -9.7 -72.65 -6.95 -58.25 -5.1 -47.3 -3.65 8.9 0.15 56.6 0.6 65.15 0.45 81.75 -0.9 91.15 -5.2" fill="url(#gradient3)" fill-rule="evenodd" stroke="none"/>
  </g>
  <defs>
    <radialGradient cx="0" cy="0" gradientTransform="matrix(0.0831, 0.0, 0.0, 0.0831, -0.45, -111.25)" gradientUnits="userSpaceOnUse" id="gradient0" r="819.2" spreadMethod="pad">
      <stop offset="0.0" stop-color="#ffffff"/>
      <stop offset="1.0" stop-color="#ffffff"/>
    </radialGradient>
    <radialGradient cx="0" cy="0" gradientTransform="matrix(0.1467, 0.0, 0.0, 0.1467, 5.55, -101.05)" gradientUnits="userSpaceOnUse" id="gradient1" r="819.2" spreadMethod="pad">
      <stop offset="0.0" stop-color="#d4d4d4"/>
      <stop offset="1.0" stop-color="#7d7d7d"/>
    </radialGradient>
    <radialGradient cx="0" cy="0" gradientTransform="matrix(0.1826, 0.0, 0.0, 0.1826, -57.15, -25.6)" gradientUnits="userSpaceOnUse" id="gradient2" r="819.2" spreadMethod="pad">
      <stop offset="0.0" stop-color="#ffffff"/>
      <stop offset="1.0" stop-color="#acacac"/>
    </radialGradient>
    <radialGradient cx="0" cy="0" gradientTransform="matrix(0.183, 0.0, 0.0, 0.183, -58.35, 7.3)" gradientUnits="userSpaceOnUse" id="gradient3" r="819.2" spreadMethod="pad">
      <stop offset="0.0" stop-color="#eeeeee"/>
      <stop offset="1.0" stop-color="#343434"/>
    </radialGradient>
  </defs>
</svg>
