<?xml version="1.0" encoding="UTF-8" standalone="no"?>
<svg xmlns:ffdec="https://www.free-decompiler.com/flash" xmlns:xlink="http://www.w3.org/1999/xlink" ffdec:objectType="shape" height="152.05px" width="156.55px" xmlns="http://www.w3.org/2000/svg">
  <g transform="matrix(1.0, 0.0, 0.0, 1.0, 78.05, 124.95)">
    <path d="M-61.05 -106.2 L-60.8 -111.75 -54.7 -116.65 Q-38.4 -123.65 -12.3 -124.95 54.75 -125.6 60.9 -106.2 L60.9 -106.05 56.45 -100.8 46.55 -96.45 Q26.6 -90.8 -8.25 -91.2 -52.85 -94.35 -61.05 -106.2" fill="url(#gradient0)" fill-rule="evenodd" stroke="none"/>
    <path d="M-61.05 -106.2 Q-52.85 -94.35 -8.25 -91.2 26.6 -90.8 46.55 -96.45 L56.45 -100.8 60.9 -106.05 54.5 -36.25 Q53.15 4.3 47.1 7.8 33.4 17.7 10.5 19.35 L-7.05 19.35 -19.35 17.6 -32.0 14.15 -35.55 13.0 -37.15 12.3 -46.25 6.9 Q-53.65 -1.0 -51.55 -3.8 L-51.65 -4.05 -52.85 -18.05 -52.95 -18.3 -54.0 -30.2 -54.0 -30.55 -54.2 -31.1 -54.55 -36.0 -61.05 -106.2" fill="url(#gradient1)" fill-rule="evenodd" stroke="none"/>
    <path d="M54.5 -36.25 Q65.4 -34.7 75.35 -24.9 L78.5 -14.6 73.6 -3.55 61.35 7.45 41.55 17.2 17.0 21.95 -9.55 20.4 -19.35 17.6 -7.05 19.35 10.5 19.35 Q33.4 17.7 47.1 7.8 53.15 4.3 54.5 -36.25 M-78.05 -15.95 L-77.4 -24.5 -69.75 -31.35 -54.55 -36.0 -54.2 -31.1 -54.0 -30.55 -54.0 -30.2 -52.95 -18.3 -52.85 -18.05 -51.65 -4.05 -51.55 -3.8 Q-53.65 -1.0 -46.25 6.9 L-37.15 12.3 -56.15 4.15 -70.9 -5.75 -78.05 -15.95 M-35.55 13.0 L-32.0 14.15 -34.9 13.5 -35.55 13.0" fill="url(#gradient2)" fill-rule="evenodd" stroke="none"/>
    <path d="M78.5 -14.6 Q76.75 3.75 58.0 15.1 L36.55 23.95 15.65 27.1 Q-66.05 26.05 -78.05 -15.95 L-70.9 -5.75 -56.15 4.15 -37.15 12.3 -35.55 13.0 -34.9 13.5 -32.0 14.15 -19.35 17.6 -9.55 20.4 17.0 21.95 41.55 17.2 61.35 7.45 73.6 -3.55 78.5 -14.6" fill="url(#gradient3)" fill-rule="evenodd" stroke="none"/>
  </g>
  <defs>
    <radialGradient cx="0" cy="0" gradientTransform="matrix(0.075, 0.0, 0.0, 0.075, -0.45, -109.15)" gradientUnits="userSpaceOnUse" id="gradient0" r="819.2" spreadMethod="pad">
      <stop offset="0.0" stop-color="#ffffff"/>
      <stop offset="1.0" stop-color="#ffffff"/>
    </radialGradient>
    <radialGradient cx="0" cy="0" gradientTransform="matrix(0.1407, 0.0, 0.0, 0.1407, 12.35, -91.3)" gradientUnits="userSpaceOnUse" id="gradient1" r="819.2" spreadMethod="pad">
      <stop offset="0.0" stop-color="#d0d0d0"/>
      <stop offset="1.0" stop-color="#7f7f7f"/>
    </radialGradient>
    <radialGradient cx="0" cy="0" gradientTransform="matrix(0.1636, 0.0, 0.0, 0.1636, -54.55, -31.0)" gradientUnits="userSpaceOnUse" id="gradient2" r="819.2" spreadMethod="pad">
      <stop offset="0.0" stop-color="#ffffff"/>
      <stop offset="1.0" stop-color="#aaaaaa"/>
    </radialGradient>
    <radialGradient cx="0" cy="0" gradientTransform="matrix(0.1742, 0.0, 0.0, 0.1742, -62.45, 7.75)" gradientUnits="userSpaceOnUse" id="gradient3" r="819.2" spreadMethod="pad">
      <stop offset="0.0" stop-color="#dfdfdf"/>
      <stop offset="1.0" stop-color="#272727"/>
    </radialGradient>
  </defs>
</svg>
