<?xml version="1.0" encoding="UTF-8" standalone="no"?>
<svg xmlns:ffdec="https://www.free-decompiler.com/flash" xmlns:xlink="http://www.w3.org/1999/xlink" ffdec:objectType="shape" height="151.65px" width="158.0px" xmlns="http://www.w3.org/2000/svg">
  <g transform="matrix(1.0, 0.0, 0.0, 1.0, 78.85, 124.65)">
    <path d="M61.45 -107.65 L59.35 -102.55 50.6 -97.5 Q20.4 -89.3 -21.8 -92.5 -49.55 -96.35 -60.25 -105.0 L-61.4 -108.85 -61.55 -109.15 Q-62.75 -111.0 -57.35 -115.55 L-47.85 -119.8 -33.85 -122.95 Q-1.05 -127.05 35.3 -121.4 60.0 -115.2 61.45 -107.65" fill="url(#gradient0)" fill-rule="evenodd" stroke="none"/>
    <path d="M-61.4 -108.85 L-60.25 -105.0 Q-49.55 -96.35 -21.8 -92.5 20.4 -89.3 50.6 -97.5 L59.35 -102.55 61.45 -107.65 54.75 -36.1 51.4 -0.75 Q49.45 7.2 47.9 7.45 39.55 19.95 -7.85 18.8 L-27.1 14.4 -44.25 7.8 -50.5 2.0 Q-50.5 -0.65 -51.65 -3.0 L-54.7 -35.2 -61.4 -108.85" fill="url(#gradient1)" fill-rule="evenodd" stroke="none"/>
    <path d="M-54.7 -35.2 L-51.65 -3.0 Q-50.5 -0.65 -50.5 2.0 L-44.25 7.8 -49.7 5.95 -67.2 -3.65 -77.0 -13.85 Q-78.2 -18.05 -78.85 -22.4 L-73.55 -29.25 -73.05 -29.75 -61.4 -34.25 -54.7 -35.2 M-7.85 18.8 Q39.55 19.95 47.9 7.45 49.45 7.2 51.4 -0.75 L54.75 -36.1 60.9 -34.4 73.6 -26.85 79.15 -17.0 77.0 -5.9 66.75 5.6 49.05 15.75 Q18.95 25.0 -7.85 18.8" fill="url(#gradient2)" fill-rule="evenodd" stroke="none"/>
    <path d="M-44.25 7.8 L-27.1 14.4 -7.85 18.8 Q18.95 25.0 49.05 15.75 L66.75 5.6 77.0 -5.9 Q75.95 3.5 63.2 13.25 L46.3 21.7 42.85 22.75 23.45 26.45 -0.6 27.0 Q-79.1 13.25 -77.0 -13.85 L-67.2 -3.65 -49.7 5.95 -44.25 7.8" fill="url(#gradient3)" fill-rule="evenodd" stroke="none"/>
  </g>
  <defs>
    <radialGradient cx="0" cy="0" gradientTransform="matrix(0.0755, 0.0, 0.0, 0.0755, -0.45, -109.2)" gradientUnits="userSpaceOnUse" id="gradient0" r="819.2" spreadMethod="pad">
      <stop offset="0.0" stop-color="#ffffff"/>
      <stop offset="1.0" stop-color="#ffffff"/>
    </radialGradient>
    <radialGradient cx="0" cy="0" gradientTransform="matrix(0.1369, 0.0, 0.0, 0.1369, -1.65, -91.25)" gradientUnits="userSpaceOnUse" id="gradient1" r="819.2" spreadMethod="pad">
      <stop offset="0.0" stop-color="#d2d2d2"/>
      <stop offset="1.0" stop-color="#8f8f8f"/>
    </radialGradient>
    <radialGradient cx="0" cy="0" gradientTransform="matrix(0.1521, 0.0, 0.0, 0.1521, -43.5, -36.85)" gradientUnits="userSpaceOnUse" id="gradient2" r="819.2" spreadMethod="pad">
      <stop offset="0.0" stop-color="#ffffff"/>
      <stop offset="1.0" stop-color="#aaaaaa"/>
    </radialGradient>
    <radialGradient cx="0" cy="0" gradientTransform="matrix(0.1257, 0.0, 0.0, 0.1257, -21.7, 23.5)" gradientUnits="userSpaceOnUse" id="gradient3" r="819.2" spreadMethod="pad">
      <stop offset="0.0" stop-color="#f2f2f2"/>
      <stop offset="1.0" stop-color="#292929"/>
    </radialGradient>
  </defs>
</svg>
