<?xml version="1.0" encoding="UTF-8" standalone="no"?>
<svg xmlns:ffdec="https://www.free-decompiler.com/flash" xmlns:xlink="http://www.w3.org/1999/xlink" ffdec:objectType="shape" height="151.9px" width="159.1px" xmlns="http://www.w3.org/2000/svg">
  <g transform="matrix(1.0, 0.0, 0.0, 1.0, 79.55, 125.05)">
    <path d="M-62.15 -108.5 L-62.2 -108.7 Q-60.35 -123.5 -5.2 -125.05 L13.3 -124.3 30.2 -122.15 44.45 -118.9 56.05 -114.15 61.35 -109.25 61.1 -103.7 Q49.55 -91.8 4.85 -91.2 -29.9 -92.3 -49.55 -98.95 -61.65 -104.1 -62.15 -108.5" fill="url(#gradient0)" fill-rule="evenodd" stroke="none"/>
    <path d="M-62.15 -108.5 Q-61.65 -104.1 -49.55 -98.95 -29.9 -92.3 4.85 -91.2 49.55 -91.8 61.1 -103.7 L54.75 -36.35 50.9 4.4 50.0 5.7 Q42.45 18.4 2.75 19.35 L-18.8 15.2 -43.45 7.3 -46.1 5.85 Q-47.7 4.75 -49.25 3.6 -53.75 -3.65 -52.6 -5.9 L-52.95 -9.2 -52.95 -10.15 -53.5 -15.65 -53.5 -16.05 -55.35 -34.5 -62.15 -108.5" fill="url(#gradient1)" fill-rule="evenodd" stroke="none"/>
    <path d="M54.75 -36.35 Q72.5 -31.4 79.15 -19.2 L79.55 -8.1 78.1 -6.55 Q72.95 5.0 55.9 14.15 30.6 24.0 2.75 19.35 42.45 18.4 50.0 5.7 L50.9 4.4 54.75 -36.35 M-79.55 -19.65 Q-79.8 -20.7 -76.2 -27.8 -65.8 -34.5 -55.35 -34.5 L-53.5 -16.05 -53.5 -15.65 -52.95 -10.15 -52.95 -9.2 -52.6 -5.9 Q-53.75 -3.65 -49.25 3.6 -47.7 4.75 -46.1 5.85 L-63.15 -1.8 -64.2 -3.0 -75.4 -11.55 -77.7 -16.55 -79.55 -19.65" fill="url(#gradient2)" fill-rule="evenodd" stroke="none"/>
    <path d="M79.55 -8.1 Q75.35 10.45 53.0 20.1 L29.75 25.75 6.7 26.85 Q-74.9 19.35 -79.55 -19.65 L-77.7 -16.55 -75.4 -11.55 -64.2 -3.0 -63.15 -1.8 -46.1 5.85 -43.45 7.3 -18.8 15.2 2.75 19.35 Q30.6 24.0 55.9 14.15 72.95 5.0 78.1 -6.55 L79.55 -8.1" fill="url(#gradient3)" fill-rule="evenodd" stroke="none"/>
  </g>
  <defs>
    <radialGradient cx="0" cy="0" gradientTransform="matrix(0.0755, 0.0, 0.0, 0.0755, -0.45, -109.2)" gradientUnits="userSpaceOnUse" id="gradient0" r="819.2" spreadMethod="pad">
      <stop offset="0.0" stop-color="#ffffff"/>
      <stop offset="1.0" stop-color="#ffffff"/>
    </radialGradient>
    <radialGradient cx="0" cy="0" gradientTransform="matrix(0.1362, 0.0, 0.0, 0.1362, 4.75, -91.3)" gradientUnits="userSpaceOnUse" id="gradient1" r="819.2" spreadMethod="pad">
      <stop offset="0.0" stop-color="#d3d3d3"/>
      <stop offset="1.0" stop-color="#868686"/>
    </radialGradient>
    <radialGradient cx="0" cy="0" gradientTransform="matrix(0.1597, 0.0, 0.0, 0.1597, -49.25, -31.15)" gradientUnits="userSpaceOnUse" id="gradient2" r="819.2" spreadMethod="pad">
      <stop offset="0.0" stop-color="#ffffff"/>
      <stop offset="1.0" stop-color="#ababab"/>
    </radialGradient>
    <radialGradient cx="0" cy="0" gradientTransform="matrix(0.1223, 0.0, 0.0, 0.1223, -15.3, 24.1)" gradientUnits="userSpaceOnUse" id="gradient3" r="819.2" spreadMethod="pad">
      <stop offset="0.0" stop-color="#efefef"/>
      <stop offset="1.0" stop-color="#292929"/>
    </radialGradient>
  </defs>
</svg>
