<?xml version="1.0" encoding="UTF-8" standalone="no"?>
<svg xmlns:ffdec="https://www.free-decompiler.com/flash" xmlns:xlink="http://www.w3.org/1999/xlink" ffdec:objectType="shape" height="150.55px" width="163.75px" xmlns="http://www.w3.org/2000/svg">
  <g transform="matrix(1.0, 0.0, 0.0, 1.0, 81.2, 124.6)">
    <path d="M-62.65 -108.7 L-62.75 -109.25 Q-59.75 -125.25 1.95 -124.55 60.65 -120.2 63.3 -106.35 L63.2 -105.15 Q62.15 -100.55 51.3 -96.85 29.0 -90.7 -4.15 -91.7 -50.2 -93.55 -62.65 -108.7" fill="url(#gradient0)" fill-rule="evenodd" stroke="none"/>
    <path d="M63.2 -105.15 L56.45 -35.45 Q53.6 4.05 49.85 8.0 47.6 13.8 17.8 18.4 L-3.35 15.65 -29.65 9.4 -50.05 2.45 -51.9 0.85 Q-54.2 -16.0 -55.35 -30.45 L-55.6 -33.65 -55.75 -33.65 -62.65 -108.7 Q-50.2 -93.55 -4.15 -91.7 29.0 -90.7 51.3 -96.85 62.15 -100.55 63.2 -105.15" fill="url(#gradient1)" fill-rule="evenodd" stroke="none"/>
    <path d="M56.45 -35.45 L64.9 -32.65 77.2 -23.7 82.55 -12.9 81.15 -7.0 80.45 -4.05 79.65 -1.15 68.75 9.55 68.3 10.35 49.2 17.75 25.95 19.35 17.8 18.4 Q47.6 13.8 49.85 8.0 53.6 4.05 56.45 -35.45 M-79.8 -15.5 L-81.2 -23.15 -75.4 -28.45 Q-73.65 -29.75 -55.75 -33.65 L-55.6 -33.65 -55.35 -30.45 Q-54.2 -16.0 -51.9 0.85 L-50.05 2.45 Q-75.65 -8.3 -79.8 -15.5" fill="url(#gradient2)" fill-rule="evenodd" stroke="none"/>
    <path d="M80.45 -4.05 L78.5 4.0 68.3 13.8 64.35 16.55 44.0 23.3 21.85 25.95 -1.75 24.7 -25.0 20.5 -46.1 14.85 -60.5 8.0 -66.35 4.4 -75.4 -4.45 Q-79.9 -9.85 -79.8 -15.5 -75.65 -8.3 -50.05 2.45 L-29.65 9.4 -3.35 15.65 17.8 18.4 25.95 19.35 49.2 17.75 68.3 10.35 68.75 9.55 79.65 -1.15 80.45 -4.05" fill="url(#gradient3)" fill-rule="evenodd" stroke="none"/>
  </g>
  <defs>
    <radialGradient cx="0" cy="0" gradientTransform="matrix(0.0778, 0.0, 0.0, 0.0778, -0.45, -109.2)" gradientUnits="userSpaceOnUse" id="gradient0" r="819.2" spreadMethod="pad">
      <stop offset="0.0" stop-color="#ffffff"/>
      <stop offset="1.0" stop-color="#ffffff"/>
    </radialGradient>
    <radialGradient cx="0" cy="0" gradientTransform="matrix(0.1395, 0.0, 0.0, 0.1395, -3.6, -91.8)" gradientUnits="userSpaceOnUse" id="gradient1" r="819.2" spreadMethod="pad">
      <stop offset="0.0" stop-color="#d0d0d0"/>
      <stop offset="1.0" stop-color="#7f7f7f"/>
    </radialGradient>
    <radialGradient cx="0" cy="0" gradientTransform="matrix(0.1763, 0.0, 0.0, 0.1763, -61.1, -28.15)" gradientUnits="userSpaceOnUse" id="gradient2" r="819.2" spreadMethod="pad">
      <stop offset="0.0" stop-color="#ffffff"/>
      <stop offset="1.0" stop-color="#c7c7c7"/>
    </radialGradient>
    <radialGradient cx="0" cy="0" gradientTransform="matrix(0.1131, 0.0, 0.0, 0.1131, -2.2, 24.55)" gradientUnits="userSpaceOnUse" id="gradient3" r="819.2" spreadMethod="pad">
      <stop offset="0.0" stop-color="#ebebeb"/>
      <stop offset="1.0" stop-color="#464646"/>
    </radialGradient>
  </defs>
</svg>
