<?xml version="1.0" encoding="UTF-8" standalone="no"?>
<svg xmlns:ffdec="https://www.free-decompiler.com/flash" xmlns:xlink="http://www.w3.org/1999/xlink" ffdec:objectType="shape" height="147.45px" width="170.95px" xmlns="http://www.w3.org/2000/svg">
  <g transform="matrix(1.0, 0.0, 0.0, 1.0, 84.4, 124.2)">
    <path d="M-64.5 -107.4 L-64.75 -112.55 -58.8 -117.05 Q-42.6 -123.15 -14.7 -124.2 23.55 -124.4 54.75 -115.2 65.65 -111.0 65.4 -105.45 62.5 -93.9 11.7 -92.05 -29.3 -92.35 -58.0 -102.65 L-64.5 -107.4" fill="url(#gradient0)" fill-rule="evenodd" stroke="none"/>
    <path d="M-64.5 -107.4 L-58.0 -102.65 Q-29.3 -92.35 11.7 -92.05 62.5 -93.9 65.4 -105.45 L58.3 -34.8 54.5 3.05 51.05 8.6 Q41.4 14.85 34.8 15.2 L22.65 14.85 -6.95 11.0 -34.2 5.6 -54.0 -0.45 -54.55 -5.1 -54.55 -5.75 -55.1 -11.3 -55.25 -12.1 -57.2 -32.95 -64.5 -107.4" fill="url(#gradient1)" fill-rule="evenodd" stroke="none"/>
    <path d="M58.3 -34.8 L70.3 -29.75 82.3 -20.0 86.55 -8.55 83.0 0.7 Q83.3 3.9 69.25 12.05 L48.95 15.75 34.8 15.2 Q41.4 14.85 51.05 8.6 L54.5 3.05 58.3 -34.8 M-83.85 -16.05 L-84.4 -22.25 -76.6 -26.85 -62.35 -31.6 -57.2 -32.95 -55.25 -12.1 -55.1 -11.3 -54.55 -5.75 -54.55 -5.1 -54.0 -0.45 -58.65 -1.95 -75.4 -9.2 -83.85 -16.05" fill="url(#gradient2)" fill-rule="evenodd" stroke="none"/>
    <path d="M86.55 -8.55 L85.35 -3.55 81.15 7.45 Q64.9 20.05 43.15 22.6 3.3 25.0 -28.95 18.4 -67.15 8.9 -79.65 -6.15 -83.35 -9.95 -83.85 -16.05 L-75.4 -9.2 -58.65 -1.95 -54.0 -0.45 -34.2 5.6 -6.95 11.0 22.65 14.85 34.8 15.2 48.95 15.75 69.25 12.05 Q83.3 3.9 83.0 0.7 L86.55 -8.55" fill="url(#gradient3)" fill-rule="evenodd" stroke="none"/>
  </g>
  <defs>
    <radialGradient cx="0" cy="0" gradientTransform="matrix(0.0805, 0.0, 0.0, 0.0805, -0.45, -109.1)" gradientUnits="userSpaceOnUse" id="gradient0" r="819.2" spreadMethod="pad">
      <stop offset="0.0" stop-color="#ffffff"/>
      <stop offset="1.0" stop-color="#ffffff"/>
    </radialGradient>
    <radialGradient cx="0" cy="0" gradientTransform="matrix(0.1427, 0.0, 0.0, 0.1427, 14.75, -92.2)" gradientUnits="userSpaceOnUse" id="gradient1" r="819.2" spreadMethod="pad">
      <stop offset="0.0" stop-color="#d2d2d2"/>
      <stop offset="1.0" stop-color="#787878"/>
    </radialGradient>
    <radialGradient cx="0" cy="0" gradientTransform="matrix(0.16, 0.0, 0.0, 0.16, -42.35, -32.4)" gradientUnits="userSpaceOnUse" id="gradient2" r="819.2" spreadMethod="pad">
      <stop offset="0.0" stop-color="#ffffff"/>
      <stop offset="1.0" stop-color="#c8c8c8"/>
    </radialGradient>
    <radialGradient cx="0" cy="0" gradientTransform="matrix(0.1332, 0.0, 0.0, 0.1332, 17.5, 23.75)" gradientUnits="userSpaceOnUse" id="gradient3" r="819.2" spreadMethod="pad">
      <stop offset="0.0" stop-color="#e7e7e7"/>
      <stop offset="1.0" stop-color="#323232"/>
    </radialGradient>
  </defs>
</svg>
