<?xml version="1.0" encoding="UTF-8" standalone="no"?>
<svg xmlns:ffdec="https://www.free-decompiler.com/flash" xmlns:xlink="http://www.w3.org/1999/xlink" ffdec:objectType="shape" height="118.7px" width="167.55px" xmlns="http://www.w3.org/2000/svg">
  <g transform="matrix(1.0, 0.0, 0.0, 1.0, 82.95, 118.4)">
    <path d="M54.3 -13.3 L40.35 -14.35 11.45 -18.3 -15.9 -21.05 -42.15 -22.4 -55.5 -22.65 -62.2 -112.05 -57.9 -114.0 -46.8 -116.1 Q1.65 -120.7 55.55 -116.1 L62.0 -114.0 55.0 -20.55 54.3 -13.3 M-29.6 -1.25 L-47.95 -1.25 Q-53.5 -1.0 -54.0 -1.7 -45.4 -2.65 -18.55 -1.4 L-29.6 -1.25" fill="url(#gradient0)" fill-rule="evenodd" stroke="none"/>
    <path d="M-55.5 -22.65 L-42.15 -22.4 -15.9 -21.05 11.45 -18.3 40.35 -14.35 54.3 -13.3 64.0 -12.6 77.8 -13.85 84.55 -16.85 Q85.45 -6.15 64.6 -0.9 58.45 1.15 2.75 -0.75 L-34.1 0.3 -51.8 0.15 Q-78.45 0.85 -82.95 -19.2 L-77.15 -21.3 -62.9 -22.8 -55.5 -22.65 M-29.6 -1.25 L-13.65 -1.15 -18.55 -1.4 Q-45.4 -2.65 -54.0 -1.7 -53.5 -1.0 -47.95 -1.25 L-29.6 -1.25" fill="url(#gradient1)" fill-rule="evenodd" stroke="none"/>
    <path d="M54.3 -13.3 L55.0 -20.55 Q82.05 -21.6 84.55 -16.85 L77.8 -13.85 64.0 -12.6 54.3 -13.3" fill="url(#gradient2)" fill-rule="evenodd" stroke="none"/>
    <path d="M-18.55 -1.4 L-13.65 -1.15 -29.6 -1.25 -18.55 -1.4" fill="url(#gradient3)" fill-rule="evenodd" stroke="none"/>
  </g>
  <defs>
    <radialGradient cx="0" cy="0" gradientTransform="matrix(0.1626, 0.0, 0.0, 0.1626, 8.4, -119.05)" gradientUnits="userSpaceOnUse" id="gradient0" r="819.2" spreadMethod="pad">
      <stop offset="0.0" stop-color="#d3d3d3"/>
      <stop offset="1.0" stop-color="#676767"/>
    </radialGradient>
    <radialGradient cx="0" cy="0" gradientTransform="matrix(0.1922, 0.0, 0.0, 0.1922, -72.4, -4.15)" gradientUnits="userSpaceOnUse" id="gradient1" r="819.2" spreadMethod="pad">
      <stop offset="0.0" stop-color="#ffffff"/>
      <stop offset="1.0" stop-color="#000000"/>
    </radialGradient>
    <radialGradient cx="0" cy="0" gradientTransform="matrix(0.1858, 0.0, 0.0, 0.1858, 68.8, -8.8)" gradientUnits="userSpaceOnUse" id="gradient2" r="819.2" spreadMethod="pad">
      <stop offset="0.0" stop-color="#ffffff"/>
      <stop offset="1.0" stop-color="#8a8a8a"/>
    </radialGradient>
    <radialGradient cx="0" cy="0" gradientTransform="matrix(0.0365, 0.0, 0.0, 0.0365, -22.75, -1.25)" gradientUnits="userSpaceOnUse" id="gradient3" r="819.2" spreadMethod="pad">
      <stop offset="0.0" stop-color="#ffffff"/>
      <stop offset="1.0" stop-color="#000000"/>
    </radialGradient>
  </defs>
</svg>
