<?xml version="1.0" encoding="UTF-8" standalone="no"?>
<svg xmlns:ffdec="https://www.free-decompiler.com/flash" xmlns:xlink="http://www.w3.org/1999/xlink" ffdec:objectType="shape" height="144.4px" width="180.4px" xmlns="http://www.w3.org/2000/svg">
  <g transform="matrix(1.0, 0.0, 0.0, 1.0, 89.4, 123.65)">
    <path d="M-67.2 -106.85 L-67.65 -111.85 -62.1 -116.1 Q-45.1 -122.5 -16.0 -123.65 24.85 -124.0 55.9 -115.85 67.5 -112.05 68.05 -106.35 63.2 -93.4 -2.2 -93.0 -57.6 -95.95 -67.2 -106.85" fill="url(#gradient0)" fill-rule="evenodd" stroke="none"/>
    <path d="M-67.2 -106.85 Q-57.6 -95.95 -2.2 -93.0 63.2 -93.4 68.05 -106.35 L60.55 -34.15 56.7 2.15 Q54.2 8.75 48.4 10.1 L24.4 9.95 -6.4 8.0 -33.05 4.3 -56.4 -0.2 -59.75 -33.35 -67.2 -106.85" fill="url(#gradient1)" fill-rule="evenodd" stroke="none"/>
    <path d="M60.55 -34.15 Q66.9 -31.6 73.2 -29.15 L85.9 -19.1 86.4 -18.6 91.0 -7.05 86.4 2.7 Q75.05 10.1 48.4 10.1 54.2 8.75 56.7 2.15 L60.55 -34.15 M-88.5 -12.1 L-89.4 -17.5 Q-85.9 -20.3 -82.45 -23.15 L-66.95 -31.0 -59.75 -33.35 -56.4 -0.2 Q-85.6 -7.35 -88.5 -12.1" fill="url(#gradient2)" fill-rule="evenodd" stroke="none"/>
    <path d="M91.0 -7.05 L89.95 -3.35 85.45 6.4 69.25 14.6 64.35 16.0 42.35 19.95 22.8 20.75 -5.1 20.5 -28.95 17.85 -53.5 12.3 -65.8 7.3 -74.9 3.05 -82.55 -2.75 -87.3 -7.05 -88.5 -12.1 Q-85.6 -7.35 -56.4 -0.2 L-33.05 4.3 -6.4 8.0 24.4 9.95 48.4 10.1 Q75.05 10.1 86.4 2.7 L91.0 -7.05" fill="url(#gradient3)" fill-rule="evenodd" stroke="none"/>
  </g>
  <defs>
    <radialGradient cx="0" cy="0" gradientTransform="matrix(0.0836, 0.0, 0.0, 0.0836, -0.45, -109.2)" gradientUnits="userSpaceOnUse" id="gradient0" r="819.2" spreadMethod="pad">
      <stop offset="0.0" stop-color="#ffffff"/>
      <stop offset="1.0" stop-color="#ffffff"/>
    </radialGradient>
    <radialGradient cx="0" cy="0" gradientTransform="matrix(0.1463, 0.0, 0.0, 0.1463, 16.6, -93.1)" gradientUnits="userSpaceOnUse" id="gradient1" r="819.2" spreadMethod="pad">
      <stop offset="0.0" stop-color="#d1d1d1"/>
      <stop offset="1.0" stop-color="#7b7b7b"/>
    </radialGradient>
    <radialGradient cx="0" cy="0" gradientTransform="matrix(0.1698, 0.0, 0.0, 0.1698, -45.75, -33.1)" gradientUnits="userSpaceOnUse" id="gradient2" r="819.2" spreadMethod="pad">
      <stop offset="0.0" stop-color="#ffffff"/>
      <stop offset="1.0" stop-color="#cccccc"/>
    </radialGradient>
    <radialGradient cx="0" cy="0" gradientTransform="matrix(0.149, 0.0, 0.0, 0.149, -28.45, 17.8)" gradientUnits="userSpaceOnUse" id="gradient3" r="819.2" spreadMethod="pad">
      <stop offset="0.0" stop-color="#ededed"/>
      <stop offset="1.0" stop-color="#5b5b5b"/>
    </radialGradient>
  </defs>
</svg>
