<?xml version="1.0" encoding="UTF-8" standalone="no"?>
<svg xmlns:ffdec="https://www.free-decompiler.com/flash" xmlns:xlink="http://www.w3.org/1999/xlink" ffdec:objectType="shape" height="142.95px" width="184.8px" xmlns="http://www.w3.org/2000/svg">
  <g transform="matrix(1.0, 0.0, 0.0, 1.0, 92.2, 123.1)">
    <path d="M69.1 -107.55 Q64.35 -94.85 -1.25 -93.3 -58.5 -95.0 -68.8 -105.8 L-69.25 -110.55 -63.4 -114.95 Q-45.65 -121.45 -16.7 -122.95 58.15 -124.7 69.1 -107.55" fill="url(#gradient0)" fill-rule="evenodd" stroke="none"/>
    <path d="M55.0 4.65 L51.55 5.2 24.65 6.75 -3.5 6.5 -36.35 5.1 -57.35 2.45 -61.3 -34.0 -68.8 -105.8 Q-58.5 -95.0 -1.25 -93.3 64.35 -94.85 69.1 -107.55 L61.35 -34.0 57.65 0.7 55.0 4.65" fill="url(#gradient1)" fill-rule="evenodd" stroke="none"/>
    <path d="M55.0 4.65 L57.65 0.7 61.35 -34.0 Q76.65 -30.05 88.1 -17.9 L92.6 -8.3 87.6 -1.5 73.6 2.45 55.0 4.65 M-61.3 -34.0 L-57.35 2.45 -64.05 1.65 -82.0 -2.2 -91.8 -6.8 -92.2 -13.65 -84.55 -22.0 Q-64.8 -35.05 -61.3 -34.0" fill="url(#gradient2)" fill-rule="evenodd" stroke="none"/>
    <path d="M-57.35 2.45 L-36.35 5.1 -3.5 6.5 24.65 6.75 51.55 5.2 55.0 4.65 73.6 2.45 87.6 -1.5 92.6 -8.3 Q88.05 2.95 82.2 5.45 66.65 14.9 19.1 19.6 -22.0 21.2 -55.75 13.35 L-73.05 8.0 Q-93.25 -1.4 -91.8 -6.8 L-82.0 -2.2 -64.05 1.65 -57.35 2.45" fill="url(#gradient3)" fill-rule="evenodd" stroke="none"/>
  </g>
  <defs>
    <radialGradient cx="0" cy="0" gradientTransform="matrix(0.0848, 0.0, 0.0, 0.0848, -0.45, -109.15)" gradientUnits="userSpaceOnUse" id="gradient0" r="819.2" spreadMethod="pad">
      <stop offset="0.0" stop-color="#ffffff"/>
      <stop offset="1.0" stop-color="#ffffff"/>
    </radialGradient>
    <radialGradient cx="0" cy="0" gradientTransform="matrix(0.1416, 0.0, 0.0, 0.1416, -6.1, -93.35)" gradientUnits="userSpaceOnUse" id="gradient1" r="819.2" spreadMethod="pad">
      <stop offset="0.0" stop-color="#d3d3d3"/>
      <stop offset="1.0" stop-color="#7a7a7a"/>
    </radialGradient>
    <radialGradient cx="0" cy="0" gradientTransform="matrix(0.172, 0.0, 0.0, 0.172, -46.05, -33.55)" gradientUnits="userSpaceOnUse" id="gradient2" r="819.2" spreadMethod="pad">
      <stop offset="0.0" stop-color="#ffffff"/>
      <stop offset="1.0" stop-color="#cbcbcb"/>
    </radialGradient>
    <radialGradient cx="0" cy="0" gradientTransform="matrix(0.1255, 0.0, 0.0, 0.1255, -6.25, 19.85)" gradientUnits="userSpaceOnUse" id="gradient3" r="819.2" spreadMethod="pad">
      <stop offset="0.0" stop-color="#e8e8e8"/>
      <stop offset="1.0" stop-color="#5d5d5d"/>
    </radialGradient>
  </defs>
</svg>
