<?xml version="1.0" encoding="UTF-8" standalone="no"?>
<svg xmlns:ffdec="https://www.free-decompiler.com/flash" xmlns:xlink="http://www.w3.org/1999/xlink" ffdec:objectType="frame" height="215.2px" width="228.05px" xmlns="http://www.w3.org/2000/svg">
  <g transform="matrix(1.0, 0.0, 0.0, 1.0, 0.0, 0.0)">
    <use ffdec:characterId="2594" height="215.2" transform="matrix(1.0, 0.0, 0.0, 1.0, 0.0, 0.0)" width="228.05" xlink:href="#shape0"/>
  </g>
  <defs>
    <g id="shape0" transform="matrix(1.0, 0.0, 0.0, 1.0, 0.0, 0.0)">
      <path d="M216.05 59.7 Q228.05 59.7 228.05 71.7 L228.05 203.2 Q228.05 215.2 216.05 215.2 L12.0 215.2 Q0.0 215.2 0.0 203.2 L0.0 71.7 Q0.0 59.7 12.0 59.7 L110.1 59.7 Q126.5 49.0 124.8 29.25 123.35 10.1 90.1 0.0 130.5 2.6 143.9 21.2 157.3 39.8 153.4 59.7 L216.05 59.7" fill="#ffffff" fill-rule="evenodd" stroke="none"/>
    </g>
  </defs>
</svg>
