<?xml version="1.0" encoding="UTF-8" standalone="no"?>
<svg xmlns:ffdec="https://www.free-decompiler.com/flash" xmlns:xlink="http://www.w3.org/1999/xlink" ffdec:objectType="frame" height="459.2px" width="343.15px" xmlns="http://www.w3.org/2000/svg">
  <g transform="matrix(1.0, 0.0, 0.0, 1.0, 0.0, 0.0)">
    <use ffdec:characterId="2549" height="459.2" transform="matrix(1.0, 0.0, 0.0, 1.0, 0.0, 0.0)" width="343.15" xlink:href="#shape0"/>
  </g>
  <defs>
    <g id="shape0" transform="matrix(1.0, 0.0, 0.0, 1.0, 0.0, 0.0)">
      <path d="M4.95 10.6 L5.35 9.5 5.8 8.55 6.05 8.1 6.45 7.45 6.9 6.9 7.4 6.25 Q8.7 4.75 10.5 3.7 15.9 0.45 25.7 1.15 L171.55 0.0 317.4 1.15 Q336.1 -0.2 338.75 12.7 340.6 21.55 341.85 75.05 L342.3 75.05 342.3 167.7 343.15 167.7 343.05 198.4 342.7 214.1 342.65 220.45 Q342.6 222.05 341.6 222.65 L340.7 223.2 340.55 241.55 340.95 241.9 Q342.35 243.05 342.35 244.7 L342.1 263.05 Q342.0 264.65 341.0 265.25 L340.25 265.7 339.9 284.25 340.2 284.5 Q341.45 285.45 341.55 287.3 L341.2 305.8 Q341.1 307.4 340.1 308.0 L339.4 308.4 338.95 327.0 339.2 327.2 Q340.75 328.5 340.55 330.05 L340.1 350.8 Q340.0 352.2 339.05 352.75 L338.2 353.2 337.7 369.3 338.05 369.6 Q339.35 370.65 339.3 372.1 L339.2 376.5 339.15 377.7 339.05 382.15 337.4 429.85 Q337.4 437.15 335.3 442.2 333.85 445.6 331.45 448.0 325.55 453.9 314.55 454.8 243.35 459.3 171.55 459.2 99.75 459.3 28.55 454.8 17.55 453.9 11.65 448.0 5.7 442.05 5.7 429.85 L3.95 378.6 3.6 372.1 Q3.55 370.65 4.85 369.6 L5.5 369.05 5.0 353.35 3.85 352.75 Q2.9 352.2 2.8 350.8 L2.35 330.05 Q2.15 328.5 3.7 327.2 L4.25 326.75 3.8 308.6 2.8 308.0 Q1.8 307.4 1.7 305.8 L1.35 287.3 Q1.45 285.45 2.7 284.5 L3.3 284.0 3.0 265.9 1.9 265.25 Q0.9 264.65 0.8 263.05 L0.55 244.7 Q0.55 243.05 1.95 241.9 L2.7 241.3 2.5 223.4 1.3 222.65 Q0.3 222.05 0.25 220.45 L0.2 212.0 Q-0.2 168.05 0.25 132.95 1.65 25.6 4.35 12.7 L4.7 11.35 4.95 10.6" fill="#000000" fill-rule="evenodd" stroke="none"/>
    </g>
  </defs>
</svg>
