<?xml version="1.0" encoding="UTF-8" standalone="no"?>
<svg xmlns:ffdec="https://www.free-decompiler.com/flash" xmlns:xlink="http://www.w3.org/1999/xlink" ffdec:objectType="frame" height="34.15px" width="42.85px" xmlns="http://www.w3.org/2000/svg">
  <g transform="matrix(1.0, 0.0, 0.0, 1.0, 82.5, -4.9)">
    <use ffdec:characterId="1467" height="34.15" transform="matrix(1.0, 0.0, 0.0, 1.0, -82.5, 4.9)" width="42.85" xlink:href="#shape0"/>
  </g>
  <defs>
    <g id="shape0" transform="matrix(1.0, 0.0, 0.0, 1.0, 82.5, -4.9)">
      <path d="M-61.55 16.45 L-59.15 16.15 -54.7 15.9 -53.75 15.9 -52.8 15.95 Q-47.85 16.55 -47.45 18.35 L-47.45 18.6 -43.15 26.25 Q-42.35 26.65 -42.25 27.25 -41.8 29.3 -47.2 31.6 -52.55 34.05 -60.45 35.5 L-63.6 36.1 -72.15 36.8 -73.35 36.8 -74.35 36.75 Q-80.2 36.55 -80.55 34.55 -80.7 34.0 -80.1 33.3 L-79.7 24.45 Q-80.05 22.6 -75.6 20.35 -71.15 18.25 -64.45 16.9 L-61.55 16.45 -64.1 16.9 Q-70.85 18.25 -75.3 20.35 -79.75 22.6 -79.35 24.45 L-79.8 33.3 Q-80.35 34.0 -80.25 34.55 -79.85 36.55 -74.05 36.75 L-73.35 36.8 -74.05 36.75 Q-79.85 36.55 -80.25 34.55 -80.35 34.0 -79.8 33.3 L-79.35 24.45 Q-79.75 22.6 -75.3 20.35 -70.85 18.25 -64.1 16.9 L-61.55 16.45" fill="#4512de" fill-rule="evenodd" stroke="none"/>
      <path d="M-61.55 16.45 L-59.15 16.15 -54.7 15.9 -53.75 15.9 -52.5 15.95 Q-47.55 16.55 -47.15 18.35 L-47.15 18.6 -42.85 26.25 Q-42.0 26.65 -41.95 27.25 -41.5 29.3 -46.9 31.6 -52.25 34.05 -60.15 35.5 L-63.6 36.1 -72.15 36.8 -73.35 36.8 -74.05 36.75 Q-79.85 36.55 -80.25 34.55 -80.35 34.0 -79.8 33.3 L-79.35 24.45 Q-79.75 22.6 -75.3 20.35 -70.85 18.25 -64.1 16.9 L-61.55 16.45 Z" fill="none" stroke="#002851" stroke-linecap="round" stroke-linejoin="round" stroke-width="4.5"/>
      <path d="M-53.5 15.9 L-52.8 15.95 Q-47.85 16.55 -47.45 18.35 L-47.45 18.6 -43.15 26.25 Q-42.35 26.65 -42.25 27.25 -41.8 29.3 -47.2 31.6 -52.55 34.05 -60.45 35.5 L-66.6 36.5 -73.05 36.8 -74.35 36.75 Q-80.2 36.55 -80.55 34.55 -80.7 34.0 -80.1 33.3 L-79.7 24.45 Q-80.05 22.6 -75.6 20.35 -71.15 18.25 -64.45 16.9 L-61.55 16.45 -59.1 16.15 -54.7 15.9 -53.5 15.9 M-73.05 36.8 L-73.95 36.75 Q-79.8 36.55 -80.2 34.55 -80.3 34.0 -79.75 33.3 L-79.3 24.45 Q-79.7 22.6 -75.2 20.35 -70.75 18.25 -64.05 16.9 L-61.55 16.45 -64.05 16.9 Q-70.75 18.25 -75.2 20.35 -79.7 22.6 -79.3 24.45 L-79.75 33.3 Q-80.3 34.0 -80.2 34.55 -79.8 36.55 -73.95 36.75 L-73.05 36.8" fill="#4512de" fill-rule="evenodd" stroke="none"/>
      <path d="M-53.5 15.9 L-54.7 15.9 -59.1 16.15 -61.55 16.45 -64.05 16.9 Q-70.75 18.25 -75.2 20.35 -79.7 22.6 -79.3 24.45 L-79.75 33.3 Q-80.3 34.0 -80.2 34.55 -79.8 36.55 -73.95 36.75 L-73.05 36.8 -66.6 36.5 -60.1 35.5 Q-52.2 34.05 -46.85 31.6 -41.45 29.3 -41.9 27.25 -41.95 26.65 -42.75 26.25 L-47.1 18.6 -47.1 18.35 Q-47.45 16.55 -52.45 15.95 L-53.5 15.9 Z" fill="none" stroke="#003f80" stroke-linecap="round" stroke-linejoin="round" stroke-width="2.5"/>
      <path d="M-47.45 18.6 L-43.15 26.25 Q-42.35 26.65 -42.25 27.25 -41.8 29.3 -47.2 31.6 -52.55 34.05 -60.45 35.5 -68.45 37.05 -74.35 36.75 -80.2 36.55 -80.55 34.55 -80.7 34.0 -80.1 33.3 L-79.7 24.45 Q-80.05 22.6 -75.6 20.35 -71.15 18.25 -64.45 16.9 -57.75 15.65 -52.8 15.95 -47.85 16.55 -47.45 18.35 L-47.45 18.6" fill="#0f7bea" fill-rule="evenodd" stroke="none"/>
      <path d="M-47.45 18.6 L-43.15 26.25 Q-42.35 26.65 -42.25 27.25 -41.8 29.3 -47.2 31.6 -52.55 34.05 -60.45 35.5 -68.45 37.05 -74.35 36.75 -80.2 36.55 -80.55 34.55 -80.7 34.0 -80.1 33.3 L-79.7 24.45 Q-80.05 22.6 -75.6 20.35 -71.15 18.25 -64.45 16.9 -57.75 15.65 -52.8 15.95 -47.85 16.55 -47.45 18.35 L-47.45 18.6 Z" ffdec:has-small-stroke="true" ffdec:original-stroke-width="0.8" fill="none" stroke="#005ebf" stroke-linecap="round" stroke-linejoin="round" stroke-width="1.0"/>
      <path d="M-55.6 10.55 L-55.4 11.25 Q-52.1 11.55 -50.45 14.4 -49.7 15.75 -49.65 17.25 -52.9 19.45 -56.6 20.95 L-61.2 22.45 -66.95 23.35 -72.5 23.65 Q-74.75 23.5 -76.15 22.85 -79.05 19.65 -77.1 15.7 -76.0 13.45 -73.6 12.45 -75.0 8.45 -70.85 6.5 -68.55 5.4 -66.15 6.05 -64.95 6.35 -63.85 7.2 -61.15 5.55 -58.35 7.2 -56.35 8.45 -55.6 10.55 M-59.8 7.4 Q-62.6 6.75 -64.05 9.25 L-64.7 10.8 Q-62.65 13.45 -59.6 12.65 -56.0 11.8 -57.65 8.7 -58.3 7.55 -59.8 7.4 M-60.15 15.5 Q-62.55 13.95 -65.05 15.1 -67.95 16.3 -67.65 19.25 -67.45 21.65 -65.25 22.1 L-61.2 22.45 Q-57.65 20.9 -58.5 17.7 -58.85 16.4 -60.15 15.5 M-75.05 14.9 Q-76.8 17.8 -74.15 20.1 -72.15 21.8 -69.85 20.9 L-69.6 18.4 Q-69.2 16.55 -68.0 15.1 -69.6 13.45 -72.05 13.3 -74.05 13.3 -75.05 14.9 M-66.05 11.45 L-65.9 10.4 Q-65.6 8.9 -64.5 7.7 -65.9 6.55 -67.7 6.45 -70.65 6.2 -72.3 8.95 -72.95 9.85 -72.35 10.4 -71.45 11.85 -69.9 12.2 -67.75 12.55 -66.05 11.45 M-52.25 17.05 Q-51.65 16.35 -51.75 15.55 -52.1 12.15 -55.5 11.9 L-56.0 12.65 Q-56.8 14.05 -58.4 14.85 L-58.85 15.2 Q-57.05 16.5 -56.45 18.55 L-55.2 18.65 Q-53.4 18.55 -52.25 17.05" fill="#01ad01" fill-rule="evenodd" stroke="none"/>
      <path d="M-60.15 15.5 Q-58.85 16.4 -58.5 17.7 -57.65 20.9 -61.2 22.45 L-65.25 22.1 Q-67.45 21.65 -67.65 19.25 -67.95 16.3 -65.05 15.1 -62.55 13.95 -60.15 15.5 M-59.8 7.4 Q-58.3 7.55 -57.65 8.7 -56.0 11.8 -59.6 12.65 -62.65 13.45 -64.7 10.8 L-64.05 9.25 Q-62.6 6.75 -59.8 7.4 M-52.25 17.05 Q-53.4 18.55 -55.2 18.65 L-56.45 18.55 Q-57.05 16.5 -58.85 15.2 L-58.4 14.85 Q-56.8 14.05 -56.0 12.65 L-55.5 11.9 Q-52.1 12.15 -51.75 15.55 -51.65 16.35 -52.25 17.05 M-66.05 11.45 Q-67.75 12.55 -69.9 12.2 -71.45 11.85 -72.35 10.4 -72.95 9.85 -72.3 8.95 -70.65 6.2 -67.7 6.45 -65.9 6.55 -64.5 7.7 -65.6 8.9 -65.9 10.4 L-66.05 11.45 M-75.05 14.9 Q-74.05 13.3 -72.05 13.3 -69.6 13.45 -68.0 15.1 -69.2 16.55 -69.6 18.4 L-69.85 20.9 Q-72.15 21.8 -74.15 20.1 -76.8 17.8 -75.05 14.9" fill="#01de01" fill-rule="evenodd" stroke="none"/>
      <path d="M-55.6 10.55 L-55.4 11.25 Q-52.1 11.55 -50.45 14.4 -49.7 15.75 -49.65 17.25 -52.9 19.45 -56.6 20.95 L-61.2 22.45 -66.95 23.35 -72.5 23.65 Q-74.75 23.5 -76.15 22.85 -79.05 19.65 -77.1 15.7 -76.0 13.45 -73.6 12.45 -75.0 8.45 -70.85 6.5 -68.55 5.4 -66.15 6.05 -64.95 6.35 -63.85 7.2 -61.15 5.55 -58.35 7.2 -56.35 8.45 -55.6 10.55 Z" fill="none" stroke="#0c5101" stroke-linecap="round" stroke-linejoin="round" stroke-width="1.8"/>
      <path d="M-78.05 26.0 Q-64.8 27.85 -51.85 21.95 L-48.3 20.15 M-79.0 34.1 Q-73.4 36.25 -61.15 34.05 -53.05 32.6 -48.05 30.25 -45.45 29.0 -43.75 27.5" fill="none" stroke="#6faff2" stroke-linecap="round" stroke-linejoin="round" stroke-width="1.0"/>
      <path d="M-59.05 8.1 Q-58.55 8.35 -58.4 8.8 -58.25 9.3 -58.5 9.75 -58.75 10.25 -59.2 10.4 L-60.15 10.3 -60.8 9.6 Q-60.95 9.15 -60.7 8.65 L-60.0 8.05 -59.05 8.1 M-70.0 9.4 L-70.5 8.8 Q-70.65 8.4 -70.45 8.05 L-69.85 7.55 Q-69.4 7.4 -69.1 7.55 L-68.6 8.15 Q-68.45 8.55 -68.6 8.9 L-69.2 9.45 -70.0 9.4 M-72.35 15.4 L-72.85 15.85 -73.55 15.85 -74.0 15.3 -73.95 14.65 -73.45 14.2 -72.8 14.2 -72.3 14.75 -72.35 15.4 M-74.5 16.35 L-73.0 16.45 Q-72.25 16.8 -72.0 17.6 -71.75 18.35 -72.1 19.05 -72.4 19.75 -73.2 20.0 L-74.7 19.9 Q-75.4 19.6 -75.65 18.8 -75.9 18.05 -75.6 17.3 -75.25 16.6 -74.5 16.35 M-65.3 16.05 L-65.75 16.45 -66.3 16.4 -66.7 15.95 -66.65 15.35 Q-66.5 15.1 -66.2 15.0 L-65.65 15.0 -65.25 15.45 Q-65.15 15.75 -65.3 16.05" fill="#ffffff" fill-rule="evenodd" stroke="none"/>
    </g>
  </defs>
</svg>
