<?xml version="1.0" encoding="UTF-8" standalone="no"?>
<svg xmlns:ffdec="https://www.free-decompiler.com/flash" xmlns:xlink="http://www.w3.org/1999/xlink" ffdec:objectType="frame" height="27.1px" width="47.25px" xmlns="http://www.w3.org/2000/svg">
  <g transform="matrix(1.0, 0.0, 0.0, 1.0, 0.0, 0.0)">
    <use ffdec:characterId="2129" height="27.1" transform="matrix(1.0, 0.0, 0.0, 1.0, 0.0, 0.0)" width="47.25" xlink:href="#shape0"/>
  </g>
  <defs>
    <g id="shape0" transform="matrix(1.0, 0.0, 0.0, 1.0, 0.0, 0.0)">
      <path d="M0.15 8.6 Q0.4 7.55 1.75 6.25 7.45 1.7 14.65 0.15 L26.4 0.55 Q35.0 3.1 42.0 8.0 46.5 13.7 47.25 20.85 47.4 24.05 46.45 27.1 45.7 25.65 45.9 23.45 44.35 20.9 43.8 17.9 41.95 16.15 40.15 12.85 L37.7 11.45 35.15 9.2 Q32.35 8.55 30.25 6.75 27.0 6.3 24.65 5.05 21.15 5.5 18.25 4.2 L16.0 4.75 12.65 4.55 Q9.3 5.95 7.6 5.6 L1.85 8.6 0.15 9.8 0.05 9.85 Q-0.1 9.65 0.15 8.6" fill="#2d6f74" fill-opacity="0.2" fill-rule="evenodd" stroke="none"/>
    </g>
  </defs>
</svg>
