<?xml version="1.0" encoding="UTF-8" standalone="no"?>
<svg xmlns:ffdec="https://www.free-decompiler.com/flash" xmlns:xlink="http://www.w3.org/1999/xlink" ffdec:objectType="frame" height="153.75px" width="278.65px" xmlns="http://www.w3.org/2000/svg">
  <g transform="matrix(1.0, 0.0, 0.0, 1.0, 2.0, 1.2)">
    <use ffdec:characterId="2947" height="153.75" transform="matrix(1.0, 0.0, 0.0, 1.0, -2.0, -1.2)" width="278.65" xlink:href="#sprite0"/>
    <use ffdec:characterId="2948" height="23.7" transform="matrix(1.0, 0.0, 0.0, 1.0, 22.0, 5.25)" width="227.0" xlink:href="#text0"/>
    <use ffdec:characterId="2949" height="121.75" id="modMsg_txt" transform="matrix(1.0, 0.0, 0.0, 1.0, 5.0, 28.25)" width="265.0" xlink:href="#text1"/>
    <use ffdec:characterId="2279" height="25.0" id="closeModMsg_btn" transform="matrix(0.7998, 0.0, 0.0, 0.8004, 252.9107, 4.3385)" width="25.0" xlink:href="#button0"/>
  </g>
  <defs>
    <g id="sprite0" transform="matrix(1.0, 0.0, 0.0, 1.0, 2.0, 1.2)">
      <use ffdec:characterId="2946" height="153.75" transform="matrix(1.0, 0.0, 0.0, 1.0, -2.0, -1.2)" width="278.65" xlink:href="#shape0"/>
    </g>
    <g id="shape0" transform="matrix(1.0, 0.0, 0.0, 1.0, 2.0, 1.2)">
      <path d="M255.3 0.15 Q275.3 0.15 275.3 11.75 L275.3 139.65 Q275.3 151.2 255.3 151.2 L19.35 151.2 Q-0.65 151.2 -0.65 139.65 L-0.65 11.75 Q-0.65 0.15 19.35 0.15 L255.3 0.15" fill="url(#gradient0)" fill-rule="evenodd" stroke="none"/>
      <path d="M255.3 0.15 L19.35 0.15 Q-0.65 0.15 -0.65 11.75 L-0.65 139.65 Q-0.65 151.2 19.35 151.2 L255.3 151.2 Q275.3 151.2 275.3 139.65 L275.3 11.75 Q275.3 0.15 255.3 0.15 Z" fill="none" stroke="#9e3016" stroke-linecap="round" stroke-linejoin="round" stroke-width="2.75"/>
    </g>
    <linearGradient gradientTransform="matrix(0.0, 0.0823, -0.1684, 0.0, 137.35, 76.65)" gradientUnits="userSpaceOnUse" id="gradient0" spreadMethod="pad" x1="-819.2" x2="819.2">
      <stop offset="0.0" stop-color="#ff4e24"/>
      <stop offset="1.0" stop-color="#b5381a"/>
    </linearGradient>
    <g id="text0" transform="matrix(1.0, 0.0, 0.0, 1.0, 2.0, 2.0)">
      <g transform="matrix(1.0, 0.0, 0.0, 1.0, -2.0, -2.0)">
        <use fill="#000000" height="23.7" transform="matrix(0.0156, 0.0, 0.0, 0.0156, 44.8, 17.35)" width="227.0" xlink:href="#font_GosmickSans_M0"/>
        <use fill="#000000" height="23.7" transform="matrix(0.0156, 0.0, 0.0, 0.0156, 56.9, 17.35)" width="227.0" xlink:href="#font_GosmickSans_O0"/>
        <use fill="#000000" height="23.7" transform="matrix(0.0156, 0.0, 0.0, 0.0156, 67.55, 17.35)" width="227.0" xlink:href="#font_GosmickSans_D0"/>
        <use fill="#000000" height="23.7" transform="matrix(0.0156, 0.0, 0.0, 0.0156, 77.75, 17.35)" width="227.0" xlink:href="#font_GosmickSans_E0"/>
        <use fill="#000000" height="23.7" transform="matrix(0.0156, 0.0, 0.0, 0.0156, 86.4, 17.35)" width="227.0" xlink:href="#font_GosmickSans_R0"/>
        <use fill="#000000" height="23.7" transform="matrix(0.0156, 0.0, 0.0, 0.0156, 96.15, 17.35)" width="227.0" xlink:href="#font_GosmickSans_A0"/>
        <use fill="#000000" height="23.7" transform="matrix(0.0156, 0.0, 0.0, 0.0156, 106.25, 17.35)" width="227.0" xlink:href="#font_GosmickSans_T0"/>
        <use fill="#000000" height="23.7" transform="matrix(0.0156, 0.0, 0.0, 0.0156, 115.95, 17.35)" width="227.0" xlink:href="#font_GosmickSans_O0"/>
        <use fill="#000000" height="23.7" transform="matrix(0.0156, 0.0, 0.0, 0.0156, 126.6, 17.35)" width="227.0" xlink:href="#font_GosmickSans_R0"/>
      </g>
      <g transform="matrix(1.0, 0.0, 0.0, 1.0, -2.0, -2.0)">
        <use fill="#000000" height="23.7" transform="matrix(0.0156, 0.0, 0.0, 0.0156, 140.8, 17.35)" width="227.0" xlink:href="#font_GosmickSans_S0"/>
        <use fill="#000000" height="23.7" transform="matrix(0.0156, 0.0, 0.0, 0.0156, 150.1, 17.35)" width="227.0" xlink:href="#font_GosmickSans_A0"/>
        <use fill="#000000" height="23.7" transform="matrix(0.0156, 0.0, 0.0, 0.0156, 160.2, 17.35)" width="227.0" xlink:href="#font_GosmickSans_Y0"/>
        <use fill="#000000" height="23.7" transform="matrix(0.0156, 0.0, 0.0, 0.0156, 169.7, 17.35)" width="227.0" xlink:href="#font_GosmickSans_S0"/>
        <use fill="#000000" height="23.7" transform="matrix(0.0156, 0.0, 0.0, 0.0156, 179.0, 17.35)" width="227.0" xlink:href="#font_GosmickSans_:0"/>
      </g>
    </g>
    <g id="font_GosmickSans_M0">
      <path d="M744.5 -124.0 Q742.5 -113.0 741.5 -90.5 740.5 -68.0 736.5 -46.0 732.0 -24.0 723.0 -7.5 713.5 9.0 697.5 9.0 674.0 9.0 662.5 -11.5 651.5 -31.5 651.5 -51.0 651.5 -129.0 649.5 -183.0 648.0 -237.5 644.0 -281.0 640.0 -324.5 633.5 -365.0 626.5 -405.5 618.5 -456.5 615.5 -475.0 611.5 -494.0 607.0 -513.0 600.0 -530.5 590.0 -509.0 581.5 -482.0 L541.0 -357.0 Q521.0 -295.0 502.0 -231.5 493.5 -204.5 486.0 -179.0 478.0 -153.5 470.0 -127.0 465.0 -111.5 459.0 -90.0 452.5 -68.5 443.0 -49.0 433.0 -29.5 419.0 -16.5 404.5 -3.0 383.0 -3.0 365.5 -3.0 352.5 -18.0 339.0 -32.5 329.5 -52.5 320.5 -72.5 314.0 -94.0 L303.0 -128.0 Q280.5 -193.5 259.5 -258.5 L217.0 -389.0 Q207.0 -420.0 196.0 -459.0 185.5 -498.5 171.0 -527.5 166.0 -516.0 161.5 -495.0 156.5 -474.0 153.0 -447.5 149.5 -421.0 146.5 -391.0 143.5 -361.5 141.0 -332.5 138.0 -304.0 136.0 -279.0 134.0 -254.0 133.0 -237.5 132.0 -227.5 133.0 -198.0 134.0 -169.0 134.5 -135.5 135.0 -102.5 134.0 -73.5 133.0 -45.0 127.0 -37.0 123.0 -30.5 114.0 -21.5 105.5 -12.0 95.0 -4.5 85.0 3.5 74.0 8.0 63.5 12.0 54.5 9.0 37.0 3.0 36.5 -6.5 36.0 -15.5 36.0 -32.0 36.0 -43.0 36.5 -62.0 37.0 -81.0 38.0 -101.0 39.0 -121.0 40.5 -140.5 42.0 -160.0 44.0 -173.5 53.5 -244.0 52.5 -315.0 52.0 -386.5 61.5 -457.0 67.5 -506.0 73.0 -554.5 79.0 -603.5 82.0 -652.5 83.0 -667.0 91.5 -677.0 100.5 -687.5 112.0 -693.5 124.0 -699.5 137.0 -703.5 150.5 -708.0 161.0 -710.0 176.0 -713.0 188.5 -709.5 200.5 -706.0 210.0 -697.0 219.0 -688.5 226.5 -676.0 233.5 -664.0 237.5 -651.5 264.0 -567.5 290.0 -483.0 315.5 -398.5 343.0 -314.5 354.5 -283.0 364.0 -248.0 374.0 -213.0 388.0 -183.5 429.0 -270.5 455.5 -367.0 482.5 -463.0 509.0 -555.0 513.0 -568.5 516.0 -581.5 L522.0 -607.5 Q528.5 -633.0 539.5 -654.5 551.0 -676.0 566.5 -690.0 581.5 -703.5 601.0 -708.5 620.5 -713.0 643.0 -707.0 656.5 -702.5 662.5 -696.5 668.5 -690.5 676.0 -679.0 680.0 -673.0 685.0 -649.0 L695.5 -596.5 Q700.5 -568.5 704.0 -543.5 707.5 -518.5 709.5 -509.0 727.0 -412.0 733.5 -314.5 740.5 -217.5 744.5 -124.0" fill-rule="evenodd" stroke="none"/>
    </g>
    <g id="font_GosmickSans_O0">
      <path d="M557.0 -381.0 Q555.0 -417.5 550.5 -451.0 546.0 -484.5 537.5 -506.0 523.5 -544.0 503.5 -569.0 483.5 -594.0 459.5 -609.5 435.0 -624.5 406.0 -631.0 377.0 -637.0 344.0 -637.0 296.0 -637.0 256.0 -615.5 216.0 -594.0 187.5 -556.0 158.5 -518.0 143.5 -465.0 128.0 -411.5 128.0 -349.0 128.0 -291.5 143.5 -241.5 158.5 -191.5 187.0 -154.5 215.0 -117.5 254.5 -96.0 294.0 -74.5 342.0 -74.5 391.0 -74.5 432.0 -98.0 473.0 -121.5 501.0 -162.5 529.5 -203.5 544.5 -260.0 559.0 -316.5 557.0 -381.0 M653.5 -368.5 Q651.5 -286.5 626.0 -216.5 600.0 -146.5 557.0 -94.5 514.0 -43.0 456.5 -13.0 398.5 16.5 332.0 16.5 268.5 16.5 214.5 -10.0 161.0 -37.0 121.0 -83.5 81.0 -130.0 58.5 -193.0 36.0 -256.0 36.0 -328.5 36.0 -411.5 61.0 -483.5 86.0 -555.0 129.0 -608.0 172.0 -660.5 230.0 -691.0 288.0 -721.0 353.5 -721.0 399.5 -721.0 442.0 -708.0 484.5 -695.5 520.0 -671.5 555.0 -647.0 582.5 -613.5 609.5 -579.5 625.0 -538.5 632.0 -518.0 638.0 -490.5 644.5 -463.0 648.0 -437.5 651.5 -411.5 653.0 -392.0 654.5 -372.5 653.5 -368.5" fill-rule="evenodd" stroke="none"/>
    </g>
    <g id="font_GosmickSans_D0">
      <path d="M527.5 -365.5 Q525.5 -456.5 483.0 -516.5 440.5 -576.5 365.5 -594.5 350.5 -605.0 327.0 -610.5 303.5 -616.0 277.0 -619.0 251.0 -621.5 224.5 -621.0 198.0 -620.5 176.5 -618.0 170.0 -592.5 166.0 -526.5 162.0 -460.5 162.0 -361.0 L162.0 -265.0 Q162.0 -219.0 163.5 -180.5 165.0 -142.0 167.0 -110.5 190.5 -96.0 220.5 -85.5 250.0 -74.5 289.0 -74.5 345.5 -74.5 390.5 -95.5 435.5 -116.5 466.5 -155.0 498.0 -193.5 513.5 -247.0 529.5 -301.0 527.5 -365.5 M625.0 -357.0 Q625.0 -275.5 599.0 -207.5 573.0 -140.0 526.0 -91.5 479.5 -43.0 415.5 -15.5 351.5 11.5 275.5 11.5 235.5 11.5 193.0 4.0 150.5 -4.0 120.0 -18.0 107.5 -26.5 98.5 -29.0 89.0 -31.5 82.5 -35.0 76.0 -38.5 71.5 -46.0 66.5 -53.0 63.5 -70.5 60.5 -88.0 60.0 -118.0 59.5 -148.5 60.5 -197.5 61.5 -216.0 62.0 -245.0 62.5 -274.5 62.5 -305.0 62.5 -335.5 63.0 -363.0 63.5 -390.0 64.5 -404.5 70.5 -488.5 77.0 -572.5 78.0 -591.0 73.5 -598.5 68.5 -606.0 61.5 -610.5 L47.0 -620.5 Q40.0 -625.5 36.0 -640.0 33.0 -659.5 45.0 -671.5 57.5 -684.0 79.0 -691.5 100.5 -699.5 129.5 -702.5 159.0 -705.5 190.5 -705.5 236.5 -705.5 273.0 -703.5 309.5 -701.5 341.0 -693.0 410.0 -683.0 462.5 -651.5 515.5 -620.5 551.5 -575.0 588.0 -529.5 606.5 -473.5 625.0 -417.5 625.0 -357.0" fill-rule="evenodd" stroke="none"/>
    </g>
    <g id="font_GosmickSans_E0">
      <path d="M524.5 -74.5 Q530.5 -52.0 515.5 -35.5 501.0 -19.0 467.5 -8.5 434.0 2.0 385.5 8.0 337.0 13.5 277.5 13.5 203.0 13.5 160.0 6.0 117.0 -2.0 95.5 -31.0 74.0 -60.5 69.0 -119.0 63.5 -178.0 63.5 -279.5 L63.5 -316.5 Q63.5 -326.5 63.0 -336.5 62.5 -346.0 62.5 -356.5 62.5 -405.5 69.0 -458.5 75.0 -511.0 76.0 -554.0 76.0 -576.5 70.5 -592.0 65.0 -607.5 57.0 -618.0 49.5 -629.0 43.5 -637.0 37.0 -645.0 36.0 -654.5 35.0 -675.0 45.0 -681.0 54.5 -687.0 75.0 -691.5 76.0 -691.5 81.0 -693.0 L92.0 -696.0 Q97.5 -697.5 102.0 -698.0 106.5 -698.5 107.5 -697.5 127.0 -702.5 154.5 -706.5 182.5 -711.0 214.5 -714.0 247.0 -717.0 281.5 -718.5 316.5 -720.0 350.5 -720.0 L369.5 -720.0 Q428.0 -720.0 459.5 -713.5 490.5 -706.5 492.5 -683.0 494.5 -673.0 488.0 -661.0 481.5 -649.5 469.0 -643.0 463.0 -637.0 450.5 -634.5 438.5 -632.0 424.0 -631.5 409.5 -631.0 394.0 -631.5 378.0 -632.0 362.5 -632.0 L331.0 -632.0 Q312.5 -632.0 290.5 -631.5 L247.0 -629.0 Q225.5 -627.0 207.0 -622.0 188.5 -617.5 176.0 -610.5 L172.0 -579.5 Q169.0 -557.0 167.5 -528.0 166.0 -498.5 167.0 -466.5 168.0 -434.0 176.0 -406.5 205.0 -407.5 240.5 -410.5 L312.0 -416.5 378.5 -422.5 429.0 -425.0 Q470.0 -425.0 473.0 -396.0 475.0 -382.0 462.5 -367.5 449.5 -353.0 429.0 -346.0 L410.5 -346.0 Q394.5 -341.0 379.5 -339.5 L342.0 -337.0 276.0 -333.5 Q248.0 -332.5 227.0 -329.5 206.0 -326.5 192.0 -322.0 178.0 -317.5 169.0 -308.0 168.0 -298.0 167.5 -287.5 167.0 -277.5 167.0 -266.0 167.0 -241.5 168.0 -216.0 169.0 -190.5 170.5 -167.5 172.0 -145.0 174.0 -127.0 176.0 -108.5 179.0 -98.0 189.5 -84.5 212.0 -79.5 234.5 -74.5 267.5 -74.5 320.5 -75.5 373.0 -81.0 425.0 -87.0 480.5 -99.0 486.5 -101.0 490.5 -101.0 519.0 -101.0 524.5 -74.5" fill-rule="evenodd" stroke="none"/>
    </g>
    <g id="font_GosmickSans_R0">
      <path d="M439.5 -490.5 Q447.5 -517.0 438.5 -542.5 429.0 -568.5 408.0 -589.0 387.0 -609.5 358.0 -622.0 328.5 -635.0 297.0 -635.0 265.0 -635.0 235.0 -632.0 205.0 -628.5 187.5 -624.5 185.5 -605.0 184.5 -579.5 L182.5 -527.5 Q182.5 -488.5 180.5 -463.5 L178.0 -421.0 Q177.0 -403.5 176.0 -392.0 175.0 -381.0 175.0 -370.5 191.5 -364.5 216.0 -364.5 258.0 -364.5 297.0 -373.0 336.0 -382.0 366.0 -398.0 396.5 -413.5 415.5 -437.0 435.0 -461.0 439.5 -490.5 M593.0 -45.0 Q596.0 -41.0 591.5 -33.0 587.0 -24.5 578.0 -17.0 569.5 -9.5 558.0 -3.0 547.0 3.0 536.5 3.0 525.5 3.0 510.0 -6.0 494.5 -15.5 478.0 -28.5 462.0 -42.0 446.5 -56.5 431.0 -70.5 420.0 -81.0 383.0 -115.0 343.0 -148.0 303.0 -181.5 268.5 -209.0 233.5 -236.5 208.5 -255.0 183.5 -273.5 177.0 -277.5 174.0 -267.5 173.0 -250.5 172.0 -233.5 172.0 -212.0 172.0 -185.5 173.0 -155.5 174.0 -126.0 179.0 -96.5 182.5 -76.0 177.5 -57.5 173.0 -39.0 164.5 -24.5 155.5 -10.5 143.0 -2.0 130.0 6.0 115.5 6.0 87.0 6.0 82.0 -25.5 77.0 -44.0 74.0 -69.5 71.5 -95.5 70.5 -125.0 69.5 -154.5 69.0 -186.5 68.5 -218.0 68.5 -249.0 L68.5 -278.5 Q68.5 -306.0 70.0 -345.0 71.5 -384.0 73.5 -426.0 76.0 -468.0 78.0 -508.5 80.0 -548.5 82.0 -578.5 83.0 -586.5 80.0 -595.5 L75.0 -609.0 Q72.5 -611.0 66.5 -614.0 60.5 -617.5 54.0 -622.0 47.0 -626.5 41.5 -633.0 36.0 -640.0 36.0 -651.0 35.0 -667.5 57.5 -679.0 80.0 -691.0 114.0 -698.5 148.5 -706.5 188.5 -710.0 228.5 -713.5 264.0 -713.5 336.0 -713.5 391.5 -697.5 447.5 -682.0 484.5 -652.5 521.0 -623.5 538.0 -582.5 555.0 -541.5 548.0 -491.5 541.5 -449.5 516.5 -416.5 491.5 -384.0 451.5 -357.5 433.0 -345.0 412.5 -336.0 392.0 -326.5 374.0 -319.5 355.5 -312.5 340.5 -306.5 325.5 -301.0 316.5 -296.0 365.5 -250.0 414.5 -207.5 L503.5 -131.5 Q542.5 -98.5 567.5 -75.5 592.0 -52.5 593.0 -45.0" fill-rule="evenodd" stroke="none"/>
    </g>
    <g id="font_GosmickSans_A0">
      <path d="M435.0 -296.0 Q412.5 -364.5 387.5 -437.0 362.5 -509.0 341.0 -577.5 339.0 -577.5 334.5 -568.0 329.5 -558.0 326.5 -550.0 299.0 -478.5 269.5 -417.0 239.5 -355.5 216.0 -292.0 255.0 -296.0 308.0 -293.5 361.5 -291.0 435.0 -296.0 M628.5 -32.0 Q631.0 -27.0 624.0 -20.0 617.5 -13.5 606.5 -7.5 596.0 -1.0 585.0 3.5 574.5 8.0 569.5 8.0 543.5 8.0 524.5 -35.0 505.0 -78.0 482.5 -145.5 479.0 -154.5 477.0 -165.5 475.0 -176.0 471.5 -186.5 468.0 -196.5 461.5 -203.0 454.5 -209.0 442.5 -209.0 425.0 -209.0 399.0 -210.0 372.5 -211.0 344.5 -211.5 L289.5 -212.5 240.5 -211.0 Q211.0 -208.0 197.0 -204.0 183.5 -199.5 178.0 -194.0 173.0 -188.5 171.0 -181.5 169.0 -174.0 162.0 -165.0 153.5 -143.5 143.0 -113.5 132.0 -83.0 118.5 -56.0 104.5 -29.0 87.5 -10.0 70.5 9.0 51.0 9.0 38.0 9.0 26.5 -1.0 15.5 -11.5 15.5 -29.0 19.5 -44.0 30.0 -68.0 41.0 -91.5 58.5 -135.5 68.5 -172.0 84.0 -208.5 99.5 -245.0 116.5 -288.0 138.0 -337.0 163.0 -400.5 187.5 -464.0 212.5 -523.0 237.5 -581.5 260.5 -628.5 283.5 -675.0 301.0 -690.0 316.5 -704.5 337.0 -714.0 357.5 -723.0 368.5 -723.0 387.0 -723.0 398.5 -711.5 409.5 -700.5 415.5 -684.0 422.0 -667.5 426.0 -648.5 430.0 -629.0 435.0 -613.5 471.0 -502.0 507.5 -391.0 543.5 -279.5 579.5 -166.0 583.5 -154.0 591.5 -134.5 599.0 -115.0 607.0 -95.0 615.5 -75.0 621.5 -58.0 627.5 -41.0 628.5 -32.0" fill-rule="evenodd" stroke="none"/>
    </g>
    <g id="font_GosmickSans_T0">
      <path d="M592.0 -687.5 Q592.0 -654.5 567.5 -639.5 543.0 -625.0 509.0 -621.0 475.5 -616.5 440.5 -618.0 405.5 -619.5 385.0 -618.5 374.0 -618.5 369.0 -613.5 363.5 -608.5 362.0 -602.0 360.5 -595.0 361.0 -586.5 361.5 -577.5 361.5 -569.5 L357.5 -471.0 Q355.5 -422.0 355.5 -373.0 L355.5 -305.5 Q355.5 -268.5 357.0 -230.0 358.5 -191.5 360.5 -154.5 362.5 -118.0 368.0 -88.0 372.0 -67.5 371.0 -56.0 370.0 -44.0 354.5 -28.5 344.0 -18.5 329.5 -8.0 314.5 3.0 300.0 3.0 285.0 3.0 277.0 -7.5 269.5 -18.5 266.5 -32.0 259.0 -65.5 256.0 -106.0 253.0 -146.5 252.5 -188.5 252.0 -230.5 252.5 -272.0 253.0 -313.5 253.0 -348.0 253.0 -405.5 254.5 -461.5 256.0 -517.0 258.0 -573.5 259.0 -594.0 257.0 -603.5 255.0 -613.5 230.5 -612.5 197.5 -611.0 164.5 -610.5 131.0 -610.0 97.5 -610.0 89.0 -610.0 79.0 -610.5 68.5 -611.0 60.0 -614.0 51.5 -616.5 44.5 -622.0 38.0 -627.5 36.0 -639.0 35.0 -648.0 41.0 -659.0 47.0 -669.5 57.5 -679.0 67.5 -688.0 78.5 -694.5 89.0 -701.5 97.5 -703.5 115.0 -706.5 136.0 -702.0 156.5 -697.0 175.0 -697.0 249.0 -697.0 320.5 -702.0 392.5 -706.5 466.0 -708.5 476.5 -708.5 497.5 -711.5 518.5 -715.0 539.0 -715.0 560.5 -715.0 576.0 -709.5 592.0 -703.5 592.0 -687.5" fill-rule="evenodd" stroke="none"/>
    </g>
    <g id="font_GosmickSans_S0">
      <path d="M566.5 -209.0 Q564.0 -193.5 559.0 -173.5 554.0 -153.5 546.5 -134.0 538.5 -114.5 528.5 -98.0 518.0 -82.0 506.0 -74.5 481.5 -47.0 453.5 -30.5 426.0 -14.5 396.5 -5.0 366.5 4.0 336.0 7.0 305.0 10.5 275.5 12.5 231.5 15.5 188.5 6.5 145.5 -2.0 111.5 -19.5 78.0 -37.0 57.0 -62.0 36.0 -87.0 36.0 -117.5 36.0 -137.0 46.5 -155.5 57.5 -174.0 81.0 -174.0 88.0 -174.0 99.5 -168.5 110.5 -162.5 110.5 -153.5 128.0 -110.5 168.0 -92.5 208.0 -74.5 255.0 -72.5 296.0 -70.5 337.0 -80.5 378.0 -90.0 409.0 -108.5 440.5 -127.0 457.0 -154.0 474.0 -181.0 469.0 -215.0 464.0 -242.5 444.5 -261.5 425.0 -280.5 397.0 -293.5 368.5 -306.0 335.0 -314.0 301.0 -321.5 268.5 -327.5 159.5 -348.0 106.5 -385.0 53.5 -422.0 44.0 -488.5 38.0 -535.5 61.5 -576.0 85.0 -616.5 126.5 -645.0 168.0 -673.5 220.5 -690.0 273.5 -706.5 324.5 -706.5 L365.0 -704.5 Q387.0 -702.5 408.0 -696.5 429.0 -690.0 447.0 -680.0 465.0 -669.5 475.0 -653.0 480.5 -642.0 489.0 -628.5 497.5 -615.5 489.5 -606.0 494.5 -595.0 487.5 -583.5 480.5 -572.5 467.5 -562.0 454.5 -552.0 441.0 -544.5 427.0 -537.5 418.0 -536.5 413.5 -537.5 415.5 -549.0 418.0 -560.0 414.5 -571.5 414.5 -588.5 400.0 -600.0 385.0 -611.5 364.0 -618.0 343.0 -624.5 320.5 -626.5 298.0 -628.5 282.5 -627.5 250.0 -625.5 222.0 -616.0 194.5 -606.0 176.0 -590.0 157.5 -573.5 149.5 -552.5 141.5 -531.5 146.5 -508.0 152.5 -481.0 177.5 -461.0 203.0 -441.5 252.0 -428.0 272.5 -423.0 298.5 -417.5 324.5 -412.5 350.0 -406.5 403.5 -398.5 445.5 -381.5 487.5 -364.5 516.0 -340.0 545.0 -315.5 557.5 -282.0 570.5 -249.0 566.5 -209.0" fill-rule="evenodd" stroke="none"/>
    </g>
    <g id="font_GosmickSans_Y0">
      <path d="M591.0 -705.5 Q593.0 -700.0 585.5 -682.5 578.5 -664.5 567.5 -649.0 L530.5 -586.0 486.0 -510.5 440.5 -432.0 Q418.0 -393.0 401.5 -361.5 381.0 -322.5 373.5 -285.0 365.5 -247.5 364.5 -210.5 363.5 -174.0 365.5 -136.0 367.5 -98.0 366.5 -59.0 364.5 -48.0 356.0 -34.5 347.0 -21.5 336.0 -10.5 324.5 0.0 311.5 7.5 298.0 14.5 286.5 13.5 268.5 11.5 260.5 -7.0 253.0 -25.5 256.0 -56.0 260.0 -100.0 258.5 -157.0 257.0 -214.0 261.0 -279.5 262.0 -294.5 255.0 -308.5 248.0 -322.5 237.5 -334.0 227.5 -346.0 216.5 -356.5 206.0 -367.5 198.5 -378.5 179.0 -396.0 152.0 -435.0 125.0 -474.0 98.0 -517.5 70.5 -561.0 48.5 -602.0 26.5 -643.0 17.5 -665.5 24.5 -686.0 40.5 -699.0 56.5 -712.5 75.0 -712.5 91.0 -712.5 102.0 -698.5 112.5 -685.0 130.0 -656.0 154.5 -612.0 181.5 -568.5 208.0 -525.0 232.0 -488.0 256.0 -451.5 275.5 -423.5 295.0 -396.0 306.0 -385.0 L328.0 -417.0 Q341.0 -435.0 358.0 -461.5 375.0 -488.0 397.0 -526.0 419.0 -564.0 446.5 -618.5 453.5 -633.5 462.5 -654.5 471.0 -675.5 483.0 -694.0 494.5 -712.5 511.0 -726.0 527.5 -739.5 552.0 -739.5 566.5 -739.5 577.5 -728.5 589.0 -717.5 591.0 -705.5" fill-rule="evenodd" stroke="none"/>
    </g>
    <g id="font_GosmickSans_:0">
      <path d="M163.0 -78.0 Q170.0 -48.0 153.5 -23.5 137.0 1.0 105.5 1.0 70.5 1.0 55.0 -22.5 39.0 -46.0 36.0 -76.0 34.0 -105.5 49.0 -125.5 64.5 -145.5 94.0 -145.5 L96.5 -145.5 Q125.0 -145.5 140.0 -136.5 154.5 -127.0 159.5 -97.5 L163.0 -78.0 M169.0 -391.0 Q174.0 -375.5 171.5 -361.5 169.0 -347.0 161.0 -336.0 152.5 -325.5 140.0 -319.5 127.0 -313.0 111.5 -313.0 82.0 -313.0 62.5 -337.0 43.0 -361.5 42.0 -393.0 42.0 -418.5 58.5 -436.5 75.0 -454.5 101.5 -454.5 130.0 -454.5 145.0 -442.5 159.5 -431.0 165.0 -404.5 L169.0 -391.0" fill-rule="evenodd" stroke="none"/>
    </g>
    <g id="button0" transform="matrix(1.0, 0.0, 0.0, 1.0, 3.55, 3.7)">
      <filter id="filter14">
        <feOffset dx="0.70711599583202" dy="0.7070975664209931" in="SourceGraphic" result="filterResult0"/>
        <feColorMatrix in="filterResult0" result="filterResult1" type="matrix" values="0 0 0 0 0.0,0 0 0 0 0.0,0 0 0 0 0.0,0 0 0 1 0"/>
        <feConvolveMatrix divisor="1.0" in="filterResult1" kernelMatrix="1" order="1 1" result="filterResult2"/>
        <feColorMatrix in="filterResult2" result="filterResult3" type="matrix" values="1 0 0 0 0,0 1 0 0 0,0 0 1 0 0,0 0 0 2.0 0"/>
        <feComposite in="SourceGraphic" in2="filterResult3" operator="over" result="filterResult4"/>
        <feColorMatrix in="filterResult4" result="filterResult5" type="matrix" values="0 0 0 0 0.47058824,0 0 0 0 0.3529412,0 0 0 0 0.003921569,0 0 0 1 0"/>
        <feConvolveMatrix divisor="25.0" in="filterResult5" kernelMatrix="1 1 1 1 1 1 1 1 1 1 1 1 1 1 1 1 1 1 1 1 1 1 1 1 1" order="5 5" result="filterResult6"/>
        <feComposite in="filterResult4" in2="filterResult6" operator="over" result="filterResult7"/>
      </filter>
      <use ffdec:characterId="2278" filter="url(#filter14)" height="25.8" transform="matrix(0.8, 0.0, 0.0, 0.8, 0.2, -1.32)" width="22.0" xlink:href="#sprite1"/>
    </g>
    <g id="sprite1" transform="matrix(1.0, 0.0, 0.0, 1.0, -0.25, 1.65)">
      <use ffdec:characterId="2277" height="25.8" transform="matrix(1.0, 0.0, 0.0, 1.0, 0.25, -1.65)" width="22.0" xlink:href="#shape1"/>
    </g>
    <g id="shape1" transform="matrix(1.0, 0.0, 0.0, 1.0, -0.25, 1.65)">
      <path d="M18.95 -0.05 Q21.15 1.05 22.25 1.05 21.8 2.75 19.1 5.85 L13.45 11.95 18.7 20.2 Q18.25 21.15 16.75 22.4 L14.3 24.15 Q13.95 22.8 9.75 16.1 6.45 20.3 5.3 23.55 L0.25 21.55 Q1.4 17.75 6.75 11.15 2.5 4.35 2.0 2.85 5.1 1.5 7.9 -1.05 8.35 2.05 10.55 6.6 15.8 0.35 16.35 -1.65 17.0 -1.05 18.95 -0.05" fill="#f3f301" fill-rule="evenodd" stroke="none"/>
    </g>
  </defs>
</svg>
