<?xml version="1.0" encoding="UTF-8" standalone="no"?>
<svg xmlns:ffdec="https://www.free-decompiler.com/flash" xmlns:xlink="http://www.w3.org/1999/xlink" ffdec:objectType="frame" height="24.05px" width="21.5px" xmlns="http://www.w3.org/2000/svg">
  <g transform="matrix(1.0, 0.0, 0.0, 1.0, -17.45, 9.85)">
    <use ffdec:characterId="1110" height="24.05" transform="matrix(1.0, 0.0, 0.0, 1.0, 17.45, -9.85)" width="21.5" xlink:href="#shape0"/>
  </g>
  <defs>
    <g id="shape0" transform="matrix(1.0, 0.0, 0.0, 1.0, -17.45, 9.85)">
      <path d="M19.95 -3.45 Q19.7 -3.2 19.7 -2.6 19.7 -2.15 19.2 -1.9 L19.5 -1.05 19.05 -0.15 18.55 0.4 18.9 1.35 18.8 1.95 19.0 2.3 19.15 2.8 18.95 3.55 18.45 4.15 18.15 3.85 Q17.9 3.75 17.9 3.25 L17.95 2.45 17.75 1.7 17.8 1.25 17.55 0.8 17.6 0.45 17.45 0.05 Q17.4 -0.3 17.8 -0.7 L18.2 -1.35 18.1 -1.85 Q18.0 -2.15 18.6 -3.05 L19.0 -4.15 19.1 -4.35 19.1 -4.4 Q19.05 -4.7 19.3 -4.85 L19.5 -5.0 19.7 -5.35 Q19.5 -6.0 19.65 -6.0 19.75 -6.5 20.7 -6.4 20.55 -7.1 21.25 -7.5 21.7 -7.9 21.9 -7.65 L22.0 -7.4 21.85 -6.35 Q21.6 -5.45 21.05 -5.45 L20.6 -5.55 20.75 -5.1 20.55 -4.55 20.05 -4.25 19.95 -3.45 M27.05 -9.85 L27.45 -9.65 28.2 -9.4 28.5 -9.2 28.5 -9.15 28.7 -9.05 28.25 -8.75 27.7 -8.95 27.3 -9.15 26.8 -8.85 25.8 -8.55 25.35 -8.65 25.25 -8.75 25.0 -8.5 Q24.8 -8.3 24.5 -8.3 L24.0 -8.35 23.8 -8.45 23.6 -8.5 Q23.45 -8.35 23.1 -8.15 L23.05 -8.1 22.9 -7.8 22.45 -7.85 22.4 -7.9 22.35 -7.9 22.3 -8.0 Q22.3 -8.45 23.35 -8.8 L23.55 -8.8 Q23.6 -9.4 24.1 -9.4 L24.15 -9.35 24.6 -9.45 24.6 -9.5 25.25 -9.7 25.45 -9.7 25.85 -9.75 26.15 -9.65 26.5 -9.7 26.9 -9.75 27.05 -9.85 M30.1 -9.15 Q30.45 -9.15 30.85 -8.75 L30.65 -8.6 Q29.4 -8.8 29.4 -9.3 L29.8 -9.15 30.1 -9.15 M32.55 -8.15 L32.6 -8.15 33.05 -7.7 33.55 -7.5 33.6 -7.15 33.65 -7.1 Q34.65 -6.95 35.2 -6.05 L35.55 -5.6 35.75 -5.45 35.85 -5.25 36.1 -4.95 36.1 -4.9 36.7 -3.9 37.05 -3.3 37.3 -2.75 37.25 -2.7 Q36.95 -2.8 36.75 -3.4 36.45 -4.1 36.5 -4.25 L36.1 -4.7 35.15 -5.45 34.95 -5.65 34.8 -5.9 34.3 -5.95 33.8 -6.15 32.8 -6.45 32.75 -6.85 Q32.1 -7.05 31.9 -7.25 L31.7 -7.65 31.25 -8.1 30.9 -8.4 Q30.9 -8.7 31.85 -8.7 32.25 -8.7 32.55 -8.15 M37.5 -2.5 L37.8 -2.1 Q38.35 -1.35 38.35 -0.9 L38.2 -0.25 38.25 -0.15 38.5 0.3 38.8 1.25 38.7 2.1 Q38.45 2.1 38.45 1.6 L38.45 1.55 Q37.7 1.35 37.35 1.0 L37.15 0.35 Q37.15 -0.1 37.3 -0.4 L37.45 -0.9 37.25 -2.1 Q37.25 -2.55 37.5 -2.4 L37.5 -2.5 M38.75 2.35 L38.9 2.7 38.85 3.45 38.95 3.8 38.8 4.25 38.8 4.45 38.7 4.3 38.55 4.3 38.25 3.75 38.05 3.2 Q38.05 2.5 38.65 2.5 L38.75 2.35 M38.65 5.0 L38.6 4.9 Q38.5 4.7 38.7 4.65 38.7 4.4 38.8 4.75 L38.65 5.0 M38.55 5.3 L38.45 5.75 38.55 6.1 38.2 6.85 38.05 6.85 38.05 6.8 37.9 6.8 Q37.55 6.8 37.55 6.45 37.55 5.55 37.95 5.25 38.25 5.0 38.35 5.5 L38.35 5.25 38.5 5.25 38.55 5.3 M33.2 11.7 Q33.7 11.7 33.9 11.95 L34.2 11.7 34.35 11.3 34.75 11.05 34.95 10.7 Q34.8 10.25 35.35 10.05 L36.0 9.65 36.15 8.95 36.85 8.3 Q36.75 7.85 37.3 7.55 L37.9 7.5 38.15 7.55 37.8 8.3 Q37.55 8.6 37.65 9.0 L37.1 9.6 36.45 10.45 36.35 10.55 36.2 10.75 35.9 11.1 35.85 11.2 35.55 11.75 34.85 12.45 Q34.5 12.85 33.9 12.85 L33.7 13.2 33.3 13.2 33.1 13.15 32.65 13.6 32.45 13.5 31.9 13.7 31.9 13.8 31.5 13.95 30.8 14.0 30.65 13.9 30.55 13.9 30.3 13.9 30.05 13.9 Q29.95 13.75 29.9 14.0 L29.55 14.15 28.1 14.2 Q27.9 13.95 27.75 14.0 L27.7 13.9 28.0 13.85 28.5 13.8 Q28.15 13.7 28.15 13.45 28.15 13.2 29.0 13.05 L29.85 12.9 30.55 13.05 30.9 12.75 Q31.15 12.45 31.5 12.45 L32.0 12.6 32.5 12.15 Q32.85 11.7 33.2 11.7 M21.25 9.15 L21.7 9.35 22.15 9.55 22.35 10.15 Q22.4 10.55 23.55 10.65 L24.0 11.15 24.5 11.4 Q24.8 11.35 24.95 11.6 L25.2 12.2 25.0 12.6 25.1 12.75 24.9 13.1 24.5 12.85 24.25 12.55 23.75 12.85 22.85 11.95 22.4 11.35 Q21.7 11.25 21.55 10.85 L21.55 10.7 20.75 9.95 20.45 9.35 20.0 8.8 20.0 8.6 20.25 8.65 20.25 8.6 20.45 8.35 21.0 8.55 21.25 9.15 M29.45 13.7 L29.15 13.75 29.4 13.75 29.7 13.75 29.45 13.7 M27.4 13.9 Q27.25 13.9 27.25 14.0 L26.95 13.95 26.85 13.95 Q26.35 13.95 25.85 13.4 L25.8 13.35 25.7 13.3 25.55 13.35 Q25.25 13.35 25.35 13.15 25.25 12.9 25.45 12.85 L25.45 12.8 Q25.45 12.25 26.35 12.7 27.25 13.1 27.25 13.6 L27.25 13.75 27.4 13.9 M33.55 12.85 L33.55 12.8 33.45 12.75 33.4 12.85 33.55 12.85 M18.6 4.35 L19.1 4.8 19.85 5.75 Q20.25 6.2 20.35 7.65 20.35 8.2 19.95 8.2 L19.85 8.2 19.7 8.3 Q19.3 8.3 19.35 7.55 L19.15 7.1 19.25 6.7 18.7 5.95 18.05 4.5 Q18.0 3.9 18.35 4.35 L18.6 4.35" fill="#2e0000" fill-opacity="0.3019608" fill-rule="evenodd" stroke="none"/>
      <path d="M26.1 -6.5 L27.0 -6.2 27.75 -5.8 27.9 -5.4 28.3 -4.9 28.45 -4.55 28.7 -4.1 28.65 -3.75 28.95 -3.5 29.05 -3.3 29.15 -3.05 29.2 -3.0 29.3 -2.35 29.45 -1.65 29.6 -1.35 29.8 -1.05 29.75 -0.85 29.7 -0.75 29.65 -0.3 29.55 0.35 30.05 0.7 30.15 0.85 30.25 1.45 30.4 2.6 30.35 3.05 30.1 3.35 30.4 4.1 30.5 4.35 30.5 4.55 30.2 5.05 30.45 5.4 30.75 5.65 30.75 5.8 30.75 6.3 30.9 6.4 30.95 6.5 31.05 6.65 31.0 6.85 31.05 6.9 31.2 6.55 31.2 6.25 31.2 6.15 31.1 5.95 Q31.0 5.6 31.15 5.65 L31.15 5.55 31.5 5.45 31.3 5.05 31.3 5.0 31.1 5.15 30.9 5.05 30.9 4.95 31.1 4.75 31.3 4.85 Q31.25 4.2 31.7 4.25 L31.95 4.6 32.35 5.05 32.55 5.5 32.55 4.75 32.45 4.3 32.4 4.2 Q32.25 3.8 32.4 3.8 L32.35 3.5 32.6 3.3 32.3 3.0 32.3 2.75 32.3 2.55 32.25 1.85 Q32.1 1.4 32.25 1.15 L32.35 0.95 32.75 0.9 32.55 0.45 32.45 0.2 Q32.4 -0.2 32.65 -0.45 32.85 -1.0 33.35 -0.85 L33.8 -0.55 33.85 -0.45 34.1 -0.35 34.35 -0.15 34.4 0.05 34.4 0.45 34.35 0.8 Q34.1 1.05 34.2 1.25 L34.3 1.55 34.35 1.7 34.4 1.9 34.35 2.3 Q34.05 2.45 34.1 2.5 L34.05 2.5 34.0 2.6 33.95 3.1 33.55 4.0 33.6 4.0 Q33.85 4.0 33.85 4.3 L33.65 4.6 33.5 4.6 33.55 4.85 33.5 5.4 33.6 5.8 33.55 6.05 Q33.45 5.9 33.5 6.1 L33.55 6.2 33.7 6.65 33.55 7.15 33.35 7.35 33.5 7.8 33.55 8.1 Q33.55 8.95 33.35 8.95 L33.0 8.85 32.9 8.55 32.9 8.5 32.75 8.45 32.45 8.15 32.4 8.05 32.4 7.8 32.25 7.8 32.2 8.45 32.05 8.55 32.1 8.9 32.2 9.0 31.95 9.65 31.8 9.65 31.8 10.2 31.85 10.3 31.85 10.4 31.6 10.85 30.95 10.65 30.3 10.2 30.1 9.85 30.05 9.65 29.85 9.2 29.3 8.95 29.15 8.85 29.15 8.75 28.9 8.15 28.3 7.65 27.95 7.15 Q27.95 6.7 28.1 6.7 27.7 6.45 27.8 6.1 L27.4 6.2 27.2 6.2 26.8 5.9 26.8 5.55 Q26.65 5.5 26.8 5.5 L26.65 5.05 Q26.05 4.6 26.15 4.2 L25.9 4.15 25.8 4.0 25.7 3.8 25.7 3.75 25.75 3.5 Q25.7 2.8 25.35 2.7 24.95 2.45 24.85 1.65 L24.85 1.15 24.65 0.7 24.15 0.25 24.0 -0.15 23.95 -1.6 23.75 -1.85 23.65 -2.2 23.65 -2.5 23.95 -2.8 Q23.75 -3.05 23.85 -3.2 23.65 -3.4 23.9 -3.45 L23.95 -3.7 23.65 -4.3 23.65 -4.5 23.65 -4.8 23.75 -4.85 23.75 -4.9 Q23.6 -5.3 24.25 -5.55 24.3 -5.8 24.7 -5.85 24.95 -6.05 25.55 -5.85 25.45 -6.25 25.6 -6.25 25.7 -6.7 26.1 -6.5 M25.2 -6.65 L25.45 -6.35 25.2 -6.0 Q25.0 -6.0 24.95 -6.15 L24.95 -6.35 Q24.95 -6.65 25.2 -6.65 M27.35 6.65 L27.35 6.55 27.55 6.35 27.75 6.55 27.55 6.8 27.35 6.65" fill="#2e0000" fill-opacity="0.3019608" fill-rule="evenodd" stroke="none"/>
    </g>
  </defs>
</svg>
