<?xml version="1.0" encoding="UTF-8" standalone="no"?>
<svg xmlns:ffdec="https://www.free-decompiler.com/flash" xmlns:xlink="http://www.w3.org/1999/xlink" ffdec:objectType="frame" height="14.1px" width="17.7px" xmlns="http://www.w3.org/2000/svg">
  <g transform="matrix(1.0, 0.0, 0.0, 1.0, 1.4, 0.1)">
    <use ffdec:characterId="118" height="14.1" transform="matrix(1.0, 0.0, 0.0, 1.0, -1.4, -0.1)" width="17.7" xlink:href="#shape0"/>
  </g>
  <defs>
    <g id="shape0" transform="matrix(1.0, 0.0, 0.0, 1.0, 1.4, 0.1)">
      <path d="M14.0 13.0 L1.0 13.0 1.0 1.0 14.0 1.0 14.0 13.0" fill="#0000ff" fill-opacity="0.0" fill-rule="evenodd" stroke="none"/>
      <path d="M15.0 0.0 L15.0 14.0 0.0 14.0 0.0 0.0 15.0 0.0 M14.0 13.0 L14.0 1.0 1.0 1.0 1.0 13.0 14.0 13.0" fill="#0000ff" fill-opacity="0.0" fill-rule="evenodd" stroke="none"/>
      <path d="M1.0 1.0 L14.0 1.0 14.0 7.5 1.0 7.5 1.0 1.0" fill="url(#gradient0)" fill-rule="evenodd" stroke="none"/>
      <path d="M15.7 1.35 L7.6 12.05 -0.5 1.35 15.7 1.35" fill="#eaea00" fill-rule="evenodd" stroke="none"/>
      <path d="M16.1 0.9 L16.2 1.5 Q16.5 2.15 15.9 2.5 15.25 2.9 14.9 2.25 14.7 1.8 14.85 1.5 L14.8 1.45 Q14.35 0.85 15.05 0.5 15.8 0.2 16.1 0.9 M13.8 1.1 Q14.2 1.8 13.55 2.1 12.9 2.45 12.5 1.75 12.15 1.0 12.8 0.7 13.45 0.4 13.8 1.1 M11.95 1.05 Q12.65 2.1 11.65 2.35 10.7 2.6 10.3 1.85 9.9 1.05 10.6 0.5 11.3 0.0 11.95 1.05 M15.3 3.45 Q15.85 4.3 15.05 4.55 14.25 4.75 13.9 4.1 13.6 3.5 14.15 3.05 14.7 2.55 15.3 3.45 M13.5 5.35 Q13.75 5.75 13.35 6.0 12.95 6.2 12.7 5.75 12.5 5.3 12.9 5.1 13.3 4.9 13.5 5.35 M12.65 6.6 Q12.95 7.45 12.3 7.7 11.6 8.0 11.1 7.25 10.6 6.55 11.45 6.15 12.3 5.8 12.65 6.6 M10.45 8.9 Q10.7 9.3 10.35 9.5 9.95 9.75 9.75 9.35 9.55 8.95 9.9 8.75 10.25 8.5 10.45 8.9 M9.35 1.25 Q9.75 1.95 9.1 2.35 8.4 2.8 8.0 2.05 7.65 1.35 8.3 0.95 8.9 0.55 9.35 1.25 M7.7 0.6 Q8.0 1.35 7.4 1.6 6.75 1.85 6.3 1.2 5.85 0.5 6.6 0.2 7.4 -0.15 7.7 0.6 M5.2 0.95 Q5.6 1.7 4.9 2.05 4.25 2.4 3.85 1.65 3.45 0.9 4.15 0.55 4.85 0.25 5.2 0.95 M3.0 0.95 Q3.5 1.75 2.75 1.95 2.0 2.15 1.7 1.6 1.45 1.0 1.95 0.6 2.45 0.15 3.0 0.95 M0.4 0.5 Q0.95 1.4 0.1 1.9 -0.75 2.45 -1.25 1.55 -1.7 0.65 -0.9 0.1 -0.1 -0.4 0.4 0.5 M1.05 2.45 Q1.3 3.05 0.8 3.25 0.3 3.45 -0.1 2.95 -0.45 2.4 0.15 2.1 0.8 1.85 1.05 2.45 M2.65 4.55 Q3.05 5.25 2.4 5.55 1.75 5.9 1.35 5.2 1.0 4.45 1.65 4.15 2.3 3.85 2.65 4.55 M4.0 5.85 Q4.65 6.85 3.75 7.05 2.8 7.3 2.45 6.6 2.1 5.9 2.75 5.4 3.4 4.9 4.0 5.85 M5.15 7.9 Q5.45 8.4 5.0 8.65 4.55 8.95 4.3 8.45 4.0 8.0 4.45 7.7 4.9 7.45 5.15 7.9 M7.2 9.3 Q7.5 10.05 6.85 10.35 6.2 10.6 5.7 9.9 5.25 9.2 6.05 8.85 6.85 8.5 7.2 9.3 M8.2 11.65 Q8.55 12.3 7.9 12.65 7.3 12.95 6.95 12.25 6.6 11.6 7.2 11.3 7.85 11.0 8.2 11.65 M9.25 10.25 Q9.75 11.05 9.0 11.25 8.25 11.45 7.95 10.9 7.7 10.3 8.2 9.9 8.7 9.45 9.25 10.25" fill="#b3aa00" fill-rule="evenodd" stroke="none"/>
    </g>
    <linearGradient gradientTransform="matrix(0.0, -0.0041, 0.009, 0.0, 6.45, 4.35)" gradientUnits="userSpaceOnUse" id="gradient0" spreadMethod="pad" x1="-819.2" x2="819.2">
      <stop offset="0.0" stop-color="#eeeeee" stop-opacity="0.0"/>
      <stop offset="1.0" stop-color="#ffffff" stop-opacity="0.3019608"/>
    </linearGradient>
  </defs>
</svg>
