<?xml version="1.0" encoding="UTF-8" standalone="no"?>
<svg xmlns:ffdec="https://www.free-decompiler.com/flash" xmlns:xlink="http://www.w3.org/1999/xlink" ffdec:objectType="frame" height="144.45px" width="206.4px" xmlns="http://www.w3.org/2000/svg">
  <g transform="matrix(1.0, 0.0, 0.0, 1.0, 3.15, -58.7)">
    <use ffdec:characterId="759" height="17.1" transform="matrix(0.4444, 0.0, 0.0, 0.4444, 126.0, 85.95)" width="17.1" xlink:href="#sprite0"/>
    <use ffdec:characterId="759" height="17.1" transform="matrix(0.4444, 0.0, 0.0, 0.4444, 113.8, 75.1)" width="17.1" xlink:href="#sprite0"/>
    <use ffdec:characterId="759" height="17.1" transform="matrix(0.2703, 0.0, 0.0, 0.2703, 134.7, 80.1)" width="17.1" xlink:href="#sprite0"/>
    <use ffdec:characterId="759" height="17.1" transform="matrix(0.5614, 0.0, 0.0, 0.5614, 143.2, 88.35)" width="17.1" xlink:href="#sprite0"/>
    <use ffdec:characterId="759" height="17.1" transform="matrix(0.2677, 0.0, 0.0, 0.2677, 137.9, 98.1)" width="17.1" xlink:href="#sprite0"/>
    <use ffdec:characterId="759" height="17.1" transform="matrix(0.2677, 0.0, 0.0, 0.2677, 117.85, 96.1)" width="17.1" xlink:href="#sprite0"/>
    <use ffdec:characterId="759" height="17.1" transform="matrix(0.2677, 0.0, 0.0, 0.2677, 145.15, 78.1)" width="17.1" xlink:href="#sprite0"/>
    <use ffdec:characterId="759" height="17.1" transform="matrix(0.2002, 0.0, 0.0, 0.2002, 127.85, 74.9)" width="17.1" xlink:href="#sprite0"/>
    <use ffdec:characterId="759" height="17.1" transform="matrix(0.2002, 0.0, 0.0, 0.2002, 157.75, 84.55)" width="17.1" xlink:href="#sprite0"/>
    <use ffdec:characterId="759" height="17.1" transform="matrix(0.2002, 0.0, 0.0, 0.2002, 146.95, 105.5)" width="17.1" xlink:href="#sprite0"/>
    <use ffdec:characterId="759" height="17.1" transform="matrix(0.4444, 0.0, 0.0, 0.4444, 175.45, 69.75)" width="17.1" xlink:href="#sprite0"/>
    <use ffdec:characterId="759" height="17.1" transform="matrix(0.4444, 0.0, 0.0, 0.4444, 146.75, 67.15)" width="17.1" xlink:href="#sprite0"/>
    <use ffdec:characterId="759" height="17.1" transform="matrix(0.2703, 0.0, 0.0, 0.2703, 184.15, 63.9)" width="17.1" xlink:href="#sprite0"/>
    <use ffdec:characterId="759" height="17.1" transform="matrix(0.5614, 0.0, 0.0, 0.5614, 192.65, 72.15)" width="17.1" xlink:href="#sprite0"/>
    <use ffdec:characterId="759" height="17.1" transform="matrix(0.2677, 0.0, 0.0, 0.2677, 187.35, 81.9)" width="17.1" xlink:href="#sprite0"/>
    <use ffdec:characterId="759" height="17.1" transform="matrix(0.2677, 0.0, 0.0, 0.2677, 167.3, 79.9)" width="17.1" xlink:href="#sprite0"/>
    <use ffdec:characterId="759" height="17.1" transform="matrix(0.2677, 0.0, 0.0, 0.2677, 194.6, 61.9)" width="17.1" xlink:href="#sprite0"/>
    <use ffdec:characterId="759" height="17.1" transform="matrix(0.2002, 0.0, 0.0, 0.2002, 177.3, 58.7)" width="17.1" xlink:href="#sprite0"/>
    <use ffdec:characterId="759" height="17.1" transform="matrix(0.2002, 0.0, 0.0, 0.2002, 174.2, 89.65)" width="17.1" xlink:href="#sprite0"/>
    <use ffdec:characterId="759" height="17.1" transform="matrix(0.2002, 0.0, 0.0, 0.2002, 196.4, 89.3)" width="17.1" xlink:href="#sprite0"/>
    <use ffdec:characterId="759" height="17.1" transform="matrix(0.4444, 0.0, 0.0, 0.4444, 50.5, 96.8)" width="17.1" xlink:href="#sprite0"/>
    <use ffdec:characterId="759" height="17.1" transform="matrix(0.4444, 0.0, 0.0, 0.4444, 38.3, 85.95)" width="17.1" xlink:href="#sprite0"/>
    <use ffdec:characterId="759" height="17.1" transform="matrix(0.2703, 0.0, 0.0, 0.2703, 59.2, 90.95)" width="17.1" xlink:href="#sprite0"/>
    <use ffdec:characterId="759" height="17.1" transform="matrix(0.5614, 0.0, 0.0, 0.5614, 67.7, 99.2)" width="17.1" xlink:href="#sprite0"/>
    <use ffdec:characterId="759" height="17.1" transform="matrix(0.2677, 0.0, 0.0, 0.2677, 62.4, 108.95)" width="17.1" xlink:href="#sprite0"/>
    <use ffdec:characterId="759" height="17.1" transform="matrix(0.2677, 0.0, 0.0, 0.2677, 42.35, 106.95)" width="17.1" xlink:href="#sprite0"/>
    <use ffdec:characterId="759" height="17.1" transform="matrix(0.2677, 0.0, 0.0, 0.2677, 69.65, 88.95)" width="17.1" xlink:href="#sprite0"/>
    <use ffdec:characterId="759" height="17.1" transform="matrix(0.2002, 0.0, 0.0, 0.2002, 52.35, 85.75)" width="17.1" xlink:href="#sprite0"/>
    <use ffdec:characterId="759" height="17.1" transform="matrix(0.2002, 0.0, 0.0, 0.2002, 82.25, 95.4)" width="17.1" xlink:href="#sprite0"/>
    <use ffdec:characterId="759" height="17.1" transform="matrix(0.2002, 0.0, 0.0, 0.2002, 71.45, 116.35)" width="17.1" xlink:href="#sprite0"/>
    <use ffdec:characterId="759" height="17.1" transform="matrix(0.4444, 0.0, 0.0, 0.4444, 68.3, 64.5)" width="17.1" xlink:href="#sprite0"/>
    <use ffdec:characterId="759" height="17.1" transform="matrix(0.4444, 0.0, 0.0, 0.4444, 34.05, 64.9)" width="17.1" xlink:href="#sprite0"/>
    <use ffdec:characterId="759" height="17.1" transform="matrix(0.2703, 0.0, 0.0, 0.2703, 123.1, 139.75)" width="17.1" xlink:href="#sprite0"/>
    <use ffdec:characterId="759" height="17.1" transform="matrix(0.5614, 0.0, 0.0, 0.5614, 85.5, 66.9)" width="17.1" xlink:href="#sprite0"/>
    <use ffdec:characterId="759" height="17.1" transform="matrix(0.2677, 0.0, 0.0, 0.2677, 80.2, 76.65)" width="17.1" xlink:href="#sprite0"/>
    <use ffdec:characterId="759" height="17.1" transform="matrix(0.2677, 0.0, 0.0, 0.2677, 60.15, 74.65)" width="17.1" xlink:href="#sprite0"/>
    <use ffdec:characterId="759" height="17.1" transform="matrix(0.2677, 0.0, 0.0, 0.2677, 133.55, 137.75)" width="17.1" xlink:href="#sprite0"/>
    <use ffdec:characterId="759" height="17.1" transform="matrix(0.2002, 0.0, 0.0, 0.2002, 116.25, 134.55)" width="17.1" xlink:href="#sprite0"/>
    <use ffdec:characterId="759" height="17.1" transform="matrix(0.2002, 0.0, 0.0, 0.2002, 100.05, 63.1)" width="17.1" xlink:href="#sprite0"/>
    <use ffdec:characterId="759" height="17.1" transform="matrix(0.2002, 0.0, 0.0, 0.2002, 89.25, 84.05)" width="17.1" xlink:href="#sprite0"/>
    <use ffdec:characterId="759" height="17.1" transform="matrix(0.4444, 0.0, 0.0, 0.4444, 183.75, 110.35)" width="17.1" xlink:href="#sprite0"/>
    <use ffdec:characterId="759" height="17.1" transform="matrix(0.4444, 0.0, 0.0, 0.4444, 171.55, 99.5)" width="17.1" xlink:href="#sprite0"/>
    <use ffdec:characterId="759" height="17.1" transform="matrix(0.2703, 0.0, 0.0, 0.2703, 192.45, 104.5)" width="17.1" xlink:href="#sprite0"/>
    <use ffdec:characterId="759" height="17.1" transform="matrix(0.5614, 0.0, 0.0, 0.5614, 181.45, 184.9)" width="17.1" xlink:href="#sprite0"/>
    <use ffdec:characterId="759" height="17.1" transform="matrix(0.2677, 0.0, 0.0, 0.2677, 195.65, 122.5)" width="17.1" xlink:href="#sprite0"/>
    <use ffdec:characterId="759" height="17.1" transform="matrix(0.2677, 0.0, 0.0, 0.2677, 175.6, 120.5)" width="17.1" xlink:href="#sprite0"/>
    <use ffdec:characterId="759" height="17.1" transform="matrix(0.2677, 0.0, 0.0, 0.2677, 176.4, 170.1)" width="17.1" xlink:href="#sprite0"/>
    <use ffdec:characterId="759" height="17.1" transform="matrix(0.2002, 0.0, 0.0, 0.2002, 185.6, 99.3)" width="17.1" xlink:href="#sprite0"/>
    <use ffdec:characterId="759" height="17.1" transform="matrix(0.2002, 0.0, 0.0, 0.2002, 189.0, 176.55)" width="17.1" xlink:href="#sprite0"/>
    <use ffdec:characterId="759" height="17.1" transform="matrix(0.2002, 0.0, 0.0, 0.2002, 167.4, 174.95)" width="17.1" xlink:href="#sprite0"/>
    <use ffdec:characterId="759" height="17.1" transform="matrix(0.4444, 0.0, 0.0, 0.4444, 15.5, 115.1)" width="17.1" xlink:href="#sprite0"/>
    <use ffdec:characterId="759" height="17.1" transform="matrix(0.2703, 0.0, 0.0, 0.2703, 24.2, 109.25)" width="17.1" xlink:href="#sprite0"/>
    <use ffdec:characterId="759" height="17.1" transform="matrix(0.5614, 0.0, 0.0, 0.5614, 2.15, 81.45)" width="17.1" xlink:href="#sprite0"/>
    <use ffdec:characterId="759" height="17.1" transform="matrix(0.2677, 0.0, 0.0, 0.2677, -3.15, 91.2)" width="17.1" xlink:href="#sprite0"/>
    <use ffdec:characterId="759" height="17.1" transform="matrix(0.2677, 0.0, 0.0, 0.2677, 4.1, 71.2)" width="17.1" xlink:href="#sprite0"/>
    <use ffdec:characterId="759" height="17.1" transform="matrix(0.2002, 0.0, 0.0, 0.2002, 17.35, 104.05)" width="17.1" xlink:href="#sprite0"/>
    <use ffdec:characterId="759" height="17.1" transform="matrix(0.2002, 0.0, 0.0, 0.2002, 16.7, 77.65)" width="17.1" xlink:href="#sprite0"/>
    <use ffdec:characterId="759" height="17.1" transform="matrix(0.2002, 0.0, 0.0, 0.2002, 5.9, 98.6)" width="17.1" xlink:href="#sprite0"/>
    <use ffdec:characterId="759" height="17.1" transform="matrix(0.4444, 0.0, 0.0, 0.4444, 126.9, 167.9)" width="17.1" xlink:href="#sprite0"/>
    <use ffdec:characterId="759" height="17.1" transform="matrix(0.4444, 0.0, 0.0, 0.4444, 114.7, 157.05)" width="17.1" xlink:href="#sprite0"/>
    <use ffdec:characterId="759" height="17.1" transform="matrix(0.2703, 0.0, 0.0, 0.2703, 135.6, 162.05)" width="17.1" xlink:href="#sprite0"/>
    <use ffdec:characterId="759" height="17.1" transform="matrix(0.5614, 0.0, 0.0, 0.5614, 144.1, 170.3)" width="17.1" xlink:href="#sprite0"/>
    <use ffdec:characterId="759" height="17.1" transform="matrix(0.2677, 0.0, 0.0, 0.2677, 138.8, 180.05)" width="17.1" xlink:href="#sprite0"/>
    <use ffdec:characterId="759" height="17.1" transform="matrix(0.2677, 0.0, 0.0, 0.2677, 118.75, 178.05)" width="17.1" xlink:href="#sprite0"/>
    <use ffdec:characterId="759" height="17.1" transform="matrix(0.2677, 0.0, 0.0, 0.2677, 146.05, 160.05)" width="17.1" xlink:href="#sprite0"/>
    <use ffdec:characterId="759" height="17.1" transform="matrix(0.2002, 0.0, 0.0, 0.2002, 128.75, 156.85)" width="17.1" xlink:href="#sprite0"/>
    <use ffdec:characterId="759" height="17.1" transform="matrix(0.2002, 0.0, 0.0, 0.2002, 158.65, 166.5)" width="17.1" xlink:href="#sprite0"/>
    <use ffdec:characterId="759" height="17.1" transform="matrix(0.2002, 0.0, 0.0, 0.2002, 147.85, 187.45)" width="17.1" xlink:href="#sprite0"/>
    <use ffdec:characterId="759" height="17.1" transform="matrix(0.4444, 0.0, 0.0, 0.4444, 42.5, 163.65)" width="17.1" xlink:href="#sprite0"/>
    <use ffdec:characterId="759" height="17.1" transform="matrix(0.4444, 0.0, 0.0, 0.4444, 30.3, 152.8)" width="17.1" xlink:href="#sprite0"/>
    <use ffdec:characterId="759" height="17.1" transform="matrix(0.2703, 0.0, 0.0, 0.2703, 51.2, 157.8)" width="17.1" xlink:href="#sprite0"/>
    <use ffdec:characterId="759" height="17.1" transform="matrix(0.5614, 0.0, 0.0, 0.5614, 59.7, 166.05)" width="17.1" xlink:href="#sprite0"/>
    <use ffdec:characterId="759" height="17.1" transform="matrix(0.2677, 0.0, 0.0, 0.2677, 54.4, 175.8)" width="17.1" xlink:href="#sprite0"/>
    <use ffdec:characterId="759" height="17.1" transform="matrix(0.2677, 0.0, 0.0, 0.2677, 34.35, 173.8)" width="17.1" xlink:href="#sprite0"/>
    <use ffdec:characterId="759" height="17.1" transform="matrix(0.2677, 0.0, 0.0, 0.2677, 61.65, 155.8)" width="17.1" xlink:href="#sprite0"/>
    <use ffdec:characterId="759" height="17.1" transform="matrix(0.2002, 0.0, 0.0, 0.2002, 44.35, 152.6)" width="17.1" xlink:href="#sprite0"/>
    <use ffdec:characterId="759" height="17.1" transform="matrix(0.2002, 0.0, 0.0, 0.2002, 74.25, 162.25)" width="17.1" xlink:href="#sprite0"/>
    <use ffdec:characterId="759" height="17.1" transform="matrix(0.2002, 0.0, 0.0, 0.2002, 63.45, 183.2)" width="17.1" xlink:href="#sprite0"/>
    <use ffdec:characterId="759" height="17.1" transform="matrix(0.4444, 0.0, 0.0, 0.4444, 80.8, 143.6)" width="17.1" xlink:href="#sprite0"/>
    <use ffdec:characterId="759" height="17.1" transform="matrix(0.4444, 0.0, 0.0, 0.4444, 68.6, 132.75)" width="17.1" xlink:href="#sprite0"/>
    <use ffdec:characterId="759" height="17.1" transform="matrix(0.2703, 0.0, 0.0, 0.2703, 89.5, 137.75)" width="17.1" xlink:href="#sprite0"/>
    <use ffdec:characterId="759" height="17.1" transform="matrix(0.5614, 0.0, 0.0, 0.5614, 98.0, 146.0)" width="17.1" xlink:href="#sprite0"/>
    <use ffdec:characterId="759" height="17.1" transform="matrix(0.2677, 0.0, 0.0, 0.2677, 92.7, 155.75)" width="17.1" xlink:href="#sprite0"/>
    <use ffdec:characterId="759" height="17.1" transform="matrix(0.2677, 0.0, 0.0, 0.2677, 72.65, 153.75)" width="17.1" xlink:href="#sprite0"/>
    <use ffdec:characterId="759" height="17.1" transform="matrix(0.2677, 0.0, 0.0, 0.2677, 99.95, 135.75)" width="17.1" xlink:href="#sprite0"/>
    <use ffdec:characterId="759" height="17.1" transform="matrix(0.2002, 0.0, 0.0, 0.2002, 82.65, 132.55)" width="17.1" xlink:href="#sprite0"/>
    <use ffdec:characterId="759" height="17.1" transform="matrix(0.2002, 0.0, 0.0, 0.2002, 112.55, 142.2)" width="17.1" xlink:href="#sprite0"/>
    <use ffdec:characterId="759" height="17.1" transform="matrix(0.2002, 0.0, 0.0, 0.2002, 101.75, 163.15)" width="17.1" xlink:href="#sprite0"/>
    <use ffdec:characterId="759" height="17.1" transform="matrix(0.4444, 0.0, 0.0, 0.4444, 176.45, 145.1)" width="17.1" xlink:href="#sprite0"/>
    <use ffdec:characterId="759" height="17.1" transform="matrix(0.4444, 0.0, 0.0, 0.4444, 164.25, 134.25)" width="17.1" xlink:href="#sprite0"/>
    <use ffdec:characterId="759" height="17.1" transform="matrix(0.2703, 0.0, 0.0, 0.2703, 185.15, 139.25)" width="17.1" xlink:href="#sprite0"/>
    <use ffdec:characterId="759" height="17.1" transform="matrix(0.5614, 0.0, 0.0, 0.5614, 193.65, 147.5)" width="17.1" xlink:href="#sprite0"/>
    <use ffdec:characterId="759" height="17.1" transform="matrix(0.2677, 0.0, 0.0, 0.2677, 188.35, 157.25)" width="17.1" xlink:href="#sprite0"/>
    <use ffdec:characterId="759" height="17.1" transform="matrix(0.2677, 0.0, 0.0, 0.2677, 168.3, 155.25)" width="17.1" xlink:href="#sprite0"/>
    <use ffdec:characterId="759" height="17.1" transform="matrix(0.2677, 0.0, 0.0, 0.2677, 195.6, 137.25)" width="17.1" xlink:href="#sprite0"/>
    <use ffdec:characterId="759" height="17.1" transform="matrix(0.2002, 0.0, 0.0, 0.2002, 178.3, 134.05)" width="17.1" xlink:href="#sprite0"/>
    <use ffdec:characterId="759" height="17.1" transform="matrix(0.2002, 0.0, 0.0, 0.2002, 170.9, 188.75)" width="17.1" xlink:href="#sprite0"/>
    <use ffdec:characterId="759" height="17.1" transform="matrix(0.2002, 0.0, 0.0, 0.2002, 197.4, 164.65)" width="17.1" xlink:href="#sprite0"/>
    <use ffdec:characterId="759" height="17.1" transform="matrix(0.4444, 0.0, 0.0, 0.4444, 14.45, 191.15)" width="17.1" xlink:href="#sprite0"/>
    <use ffdec:characterId="759" height="17.1" transform="matrix(0.4444, 0.0, 0.0, 0.4444, 3.0, 177.8)" width="17.1" xlink:href="#sprite0"/>
    <use ffdec:characterId="759" height="17.1" transform="matrix(0.2703, 0.0, 0.0, 0.2703, 23.15, 185.3)" width="17.1" xlink:href="#sprite0"/>
    <use ffdec:characterId="759" height="17.1" transform="matrix(0.5614, 0.0, 0.0, 0.5614, 31.65, 193.55)" width="17.1" xlink:href="#sprite0"/>
    <use ffdec:characterId="759" height="17.1" transform="matrix(0.2677, 0.0, 0.0, 0.2677, 23.35, 169.25)" width="17.1" xlink:href="#sprite0"/>
    <use ffdec:characterId="759" height="17.1" transform="matrix(0.2677, 0.0, 0.0, 0.2677, 8.8, 163.0)" width="17.1" xlink:href="#sprite0"/>
    <use ffdec:characterId="759" height="17.1" transform="matrix(0.2677, 0.0, 0.0, 0.2677, 33.6, 183.3)" width="17.1" xlink:href="#sprite0"/>
    <use ffdec:characterId="759" height="17.1" transform="matrix(0.2002, 0.0, 0.0, 0.2002, 16.3, 180.1)" width="17.1" xlink:href="#sprite0"/>
    <use ffdec:characterId="759" height="17.1" transform="matrix(0.2002, 0.0, 0.0, 0.2002, 46.2, 189.75)" width="17.1" xlink:href="#sprite0"/>
    <use ffdec:characterId="759" height="17.1" transform="matrix(0.4444, 0.0, 0.0, 0.4444, 97.35, 193.2)" width="17.1" xlink:href="#sprite0"/>
    <use ffdec:characterId="759" height="17.1" transform="matrix(0.4444, 0.0, 0.0, 0.4444, 85.15, 182.35)" width="17.1" xlink:href="#sprite0"/>
    <use ffdec:characterId="759" height="17.1" transform="matrix(0.2703, 0.0, 0.0, 0.2703, 106.05, 187.35)" width="17.1" xlink:href="#sprite0"/>
    <use ffdec:characterId="759" height="17.1" transform="matrix(0.2677, 0.0, 0.0, 0.2677, 95.95, 169.05)" width="17.1" xlink:href="#sprite0"/>
    <use ffdec:characterId="759" height="17.1" transform="matrix(0.2677, 0.0, 0.0, 0.2677, 70.2, 189.85)" width="17.1" xlink:href="#sprite0"/>
    <use ffdec:characterId="759" height="17.1" transform="matrix(0.2677, 0.0, 0.0, 0.2677, 116.5, 185.35)" width="17.1" xlink:href="#sprite0"/>
    <use ffdec:characterId="759" height="17.1" transform="matrix(0.2002, 0.0, 0.0, 0.2002, 99.2, 182.15)" width="17.1" xlink:href="#sprite0"/>
    <use ffdec:characterId="759" height="17.1" transform="matrix(0.2002, 0.0, 0.0, 0.2002, 129.1, 191.8)" width="17.1" xlink:href="#sprite0"/>
    <use ffdec:characterId="759" height="17.1" transform="matrix(0.2002, 0.0, 0.0, 0.2002, 105.0, 176.45)" width="17.1" xlink:href="#sprite0"/>
    <use ffdec:characterId="759" height="17.1" transform="matrix(0.2703, 0.0, 0.0, 0.2703, 146.25, 133.9)" width="17.1" xlink:href="#sprite0"/>
    <use ffdec:characterId="759" height="17.1" transform="matrix(0.2677, 0.0, 0.0, 0.2677, 156.45, 140.9)" width="17.1" xlink:href="#sprite0"/>
    <use ffdec:characterId="759" height="17.1" transform="matrix(0.2703, 0.0, 0.0, 0.2703, 143.5, 152.15)" width="17.1" xlink:href="#sprite0"/>
    <use ffdec:characterId="759" height="17.1" transform="matrix(0.2086, 0.0, 0.0, 0.2086, 154.45, 150.65)" width="17.1" xlink:href="#sprite0"/>
    <use ffdec:characterId="759" height="17.1" transform="matrix(0.2002, 0.0, 0.0, 0.2002, 138.15, 143.7)" width="17.1" xlink:href="#sprite0"/>
    <use ffdec:characterId="759" height="17.1" transform="matrix(0.2703, 0.0, 0.0, 0.2703, 94.9, 95.35)" width="17.1" xlink:href="#sprite0"/>
    <use ffdec:characterId="759" height="17.1" transform="matrix(0.2677, 0.0, 0.0, 0.2677, 105.1, 102.35)" width="17.1" xlink:href="#sprite0"/>
    <use ffdec:characterId="759" height="17.1" transform="matrix(0.2703, 0.0, 0.0, 0.2703, 92.15, 113.6)" width="17.1" xlink:href="#sprite0"/>
    <use ffdec:characterId="759" height="17.1" transform="matrix(0.2086, 0.0, 0.0, 0.2086, 103.1, 112.1)" width="17.1" xlink:href="#sprite0"/>
    <use ffdec:characterId="759" height="17.1" transform="matrix(0.2002, 0.0, 0.0, 0.2002, 86.8, 105.15)" width="17.1" xlink:href="#sprite0"/>
    <use ffdec:characterId="759" height="17.1" transform="matrix(0.2703, 0.0, 0.0, 0.2703, 107.7, 67.8)" width="17.1" xlink:href="#sprite0"/>
    <use ffdec:characterId="759" height="17.1" transform="matrix(0.2677, 0.0, 0.0, 0.2677, 121.4, 68.55)" width="17.1" xlink:href="#sprite0"/>
    <use ffdec:characterId="759" height="17.1" transform="matrix(0.2703, 0.0, 0.0, 0.2703, 104.95, 86.05)" width="17.1" xlink:href="#sprite0"/>
    <use ffdec:characterId="759" height="17.1" transform="matrix(0.2086, 0.0, 0.0, 0.2086, 115.9, 84.55)" width="17.1" xlink:href="#sprite0"/>
    <use ffdec:characterId="759" height="17.1" transform="matrix(0.2002, 0.0, 0.0, 0.2002, 99.6, 77.6)" width="17.1" xlink:href="#sprite0"/>
    <use ffdec:characterId="759" height="17.1" transform="matrix(0.2703, 0.0, 0.0, 0.2703, 124.95, 105.35)" width="17.1" xlink:href="#sprite0"/>
    <use ffdec:characterId="759" height="17.1" transform="matrix(0.2677, 0.0, 0.0, 0.2677, 35.0, 138.4)" width="17.1" xlink:href="#sprite0"/>
    <use ffdec:characterId="759" height="17.1" transform="matrix(0.2703, 0.0, 0.0, 0.2703, 50.6, 141.35)" width="17.1" xlink:href="#sprite0"/>
    <use ffdec:characterId="759" height="17.1" transform="matrix(0.2086, 0.0, 0.0, 0.2086, 157.2, 110.05)" width="17.1" xlink:href="#sprite0"/>
    <use ffdec:characterId="759" height="17.1" transform="matrix(0.2002, 0.0, 0.0, 0.2002, 116.85, 115.15)" width="17.1" xlink:href="#sprite0"/>
    <use ffdec:characterId="759" height="17.1" transform="matrix(0.2703, 0.0, 0.0, 0.2703, 35.9, 80.55)" width="17.1" xlink:href="#sprite0"/>
    <use ffdec:characterId="759" height="17.1" transform="matrix(0.2677, 0.0, 0.0, 0.2677, 20.05, 138.4)" width="17.1" xlink:href="#sprite0"/>
    <use ffdec:characterId="759" height="17.1" transform="matrix(0.2703, 0.0, 0.0, 0.2703, 7.1, 149.65)" width="17.1" xlink:href="#sprite0"/>
    <use ffdec:characterId="759" height="17.1" transform="matrix(0.2086, 0.0, 0.0, 0.2086, 18.05, 148.15)" width="17.1" xlink:href="#sprite0"/>
    <use ffdec:characterId="759" height="17.1" transform="matrix(0.2002, 0.0, 0.0, 0.2002, 21.8, 88.65)" width="17.1" xlink:href="#sprite0"/>
  </g>
  <defs>
    <g id="sprite0" transform="matrix(1.0, 0.0, 0.0, 1.0, 0.0, 0.0)">
      <use ffdec:characterId="758" height="17.1" transform="matrix(1.0, 0.0, 0.0, 1.0, 0.0, 0.0)" width="17.1" xlink:href="#shape0"/>
    </g>
    <g id="shape0" transform="matrix(1.0, 0.0, 0.0, 1.0, 0.0, 0.0)">
      <path d="M0.15 9.55 L0.1 9.85 0.05 9.3 0.0 8.55 Q0.0 7.5 0.25 6.55 0.75 4.25 2.5 2.5 5.0 0.0 8.55 0.0 12.1 0.0 14.6 2.5 16.35 4.25 16.9 6.55 L17.1 8.55 17.1 9.35 16.95 10.4 16.85 9.85 16.3 8.25 Q15.65 6.8 14.5 5.65 12.0 3.15 8.45 3.15 4.9 3.15 2.4 5.65 1.3 6.75 0.7 8.0 L0.15 9.55" fill="#231c0d" fill-rule="evenodd" stroke="none"/>
      <path d="M16.85 9.85 L15.15 11.85 Q12.4 14.35 8.55 14.35 4.7 14.35 2.0 11.85 0.8 10.8 0.15 9.55 L0.7 8.0 Q1.3 6.75 2.4 5.65 4.9 3.15 8.45 3.15 12.0 3.15 14.5 5.65 15.65 6.8 16.3 8.25 L16.85 9.85" fill="#4a3811" fill-rule="evenodd" stroke="none"/>
      <path d="M0.15 9.55 Q0.8 10.8 2.0 11.85 4.7 14.35 8.55 14.35 12.4 14.35 15.15 11.85 L16.85 9.85 16.95 10.4 Q16.4 12.8 14.6 14.6 12.1 17.1 8.55 17.1 5.0 17.1 2.5 14.6 0.45 12.55 0.1 9.85 L0.15 9.55" fill="#e0caad" fill-rule="evenodd" stroke="none"/>
    </g>
  </defs>
</svg>
