<?xml version="1.0" encoding="UTF-8" standalone="no"?>
<svg xmlns:ffdec="https://www.free-decompiler.com/flash" xmlns:xlink="http://www.w3.org/1999/xlink" ffdec:objectType="frame" height="26.1px" width="74.4px" xmlns="http://www.w3.org/2000/svg">
  <g transform="matrix(1.0, 0.0, 0.0, 1.0, 37.2, 10.4)">
    <use ffdec:characterId="2638" height="26.1" transform="matrix(1.0, 0.0, 0.0, 1.0, -37.2, -10.4)" width="74.4" xlink:href="#text0"/>
  </g>
  <defs>
    <g id="text0" transform="matrix(1.0, 0.0, 0.0, 1.0, -34.8, 2.0)">
      <g transform="matrix(1.0, 0.0, 0.0, 1.0, 34.8, -2.0)">
        <use fill="#145f49" height="26.1" transform="matrix(0.0137, 0.0, 0.0, 0.0137, 5.0, 15.25)" width="74.4" xlink:href="#font_GosmickSansBold_N0"/>
        <use fill="#145f49" height="26.1" transform="matrix(0.0137, 0.0, 0.0, 0.0137, 13.85, 15.25)" width="74.4" xlink:href="#font_GosmickSansBold_o0"/>
      </g>
      <g transform="matrix(1.0, 0.0, 0.0, 1.0, 34.8, -2.0)">
        <use fill="#145f49" height="26.1" transform="matrix(0.0137, 0.0, 0.0, 0.0137, 24.7, 15.25)" width="74.4" xlink:href="#font_GosmickSansBold_b0"/>
        <use fill="#145f49" height="26.1" transform="matrix(0.0137, 0.0, 0.0, 0.0137, 31.95, 15.25)" width="74.4" xlink:href="#font_GosmickSansBold_u0"/>
        <use fill="#145f49" height="26.1" transform="matrix(0.0137, 0.0, 0.0, 0.0137, 38.6, 15.25)" width="74.4" xlink:href="#font_GosmickSansBold_d0"/>
        <use fill="#145f49" height="26.1" transform="matrix(0.0137, 0.0, 0.0, 0.0137, 45.95, 15.25)" width="74.4" xlink:href="#font_GosmickSansBold_d0"/>
        <use fill="#145f49" height="26.1" transform="matrix(0.0137, 0.0, 0.0, 0.0137, 53.3, 15.25)" width="74.4" xlink:href="#font_GosmickSansBold_i0"/>
        <use fill="#145f49" height="26.1" transform="matrix(0.0137, 0.0, 0.0, 0.0137, 55.85, 15.25)" width="74.4" xlink:href="#font_GosmickSansBold_e0"/>
        <use fill="#145f49" height="26.1" transform="matrix(0.0137, 0.0, 0.0, 0.0137, 63.05, 15.25)" width="74.4" xlink:href="#font_GosmickSansBold_s0"/>
      </g>
    </g>
    <g id="font_GosmickSansBold_N0">
      <path d="M623.5 -102.5 L623.5 -100.5 Q623.5 -82.0 614.5 -66.0 613.5 -46.5 599.0 -34.5 584.5 -22.5 565.5 -16.5 547.0 -10.5 527.5 -9.5 508.0 -8.5 497.5 -11.5 489.5 -11.5 480.0 -16.5 464.0 -32.0 441.5 -60.0 419.0 -88.5 392.0 -124.5 365.5 -161.0 336.5 -204.0 307.5 -247.0 278.0 -292.0 249.0 -337.0 221.0 -382.0 192.5 -427.0 167.0 -468.0 L166.0 -468.0 166.0 -469.0 Q164.0 -448.5 164.0 -424.0 L164.0 -381.0 164.0 -260.5 Q164.0 -207.0 165.5 -169.5 167.0 -132.5 170.0 -105.5 172.0 -88.5 164.5 -68.5 157.0 -48.5 144.5 -31.5 132.0 -14.5 117.0 -3.0 101.5 9.0 88.0 9.0 64.5 9.0 48.0 -7.5 32.0 -24.0 32.0 -47.5 L32.0 -56.5 Q32.0 -64.5 33.0 -72.0 35.0 -105.5 37.5 -171.5 40.0 -238.0 40.0 -319.5 40.0 -379.0 39.5 -423.0 L38.5 -500.5 37.5 -559.5 Q37.0 -585.0 36.0 -607.5 36.0 -615.5 35.5 -623.5 35.0 -631.0 35.0 -639.0 35.0 -659.5 48.5 -676.5 61.5 -693.5 86.0 -700.5 102.5 -706.0 119.5 -705.0 136.5 -704.5 154.0 -695.0 171.0 -685.5 189.5 -664.0 208.0 -642.5 229.5 -605.5 260.0 -551.0 295.0 -495.0 330.0 -438.5 364.0 -386.5 398.5 -334.0 430.5 -288.5 463.0 -243.0 490.5 -210.0 489.5 -220.5 489.0 -234.5 488.5 -249.0 488.5 -274.5 L488.5 -343.5 Q488.5 -428.0 487.5 -501.5 486.5 -574.5 480.5 -643.5 478.5 -660.5 488.5 -675.0 498.5 -689.5 514.0 -699.0 529.5 -709.0 547.0 -712.5 564.5 -716.0 578.5 -712.0 601.0 -711.0 612.5 -694.5 623.5 -678.0 623.5 -638.0 623.5 -609.5 622.5 -573.5 621.5 -538.0 619.5 -499.0 617.5 -456.0 616.5 -409.0 615.5 -361.5 615.5 -322.0 L615.5 -275.5 Q615.5 -224.5 617.5 -181.5 619.5 -138.5 623.5 -102.5" fill-rule="evenodd" stroke="none"/>
    </g>
    <g id="font_GosmickSansBold_o0">
      <path d="M361.5 -252.0 Q361.5 -284.5 354.5 -313.0 347.0 -341.0 334.5 -361.5 321.5 -382.0 302.5 -393.5 283.5 -405.5 260.0 -405.5 235.5 -405.5 215.5 -393.5 195.5 -382.0 181.0 -361.5 167.0 -341.0 159.0 -314.0 151.5 -286.5 151.5 -256.0 151.5 -226.5 158.0 -199.0 165.0 -172.0 178.0 -151.5 191.5 -131.0 210.0 -119.0 228.5 -106.5 253.0 -106.5 277.5 -106.5 297.5 -118.0 317.5 -129.0 332.0 -148.5 346.0 -168.0 354.0 -194.5 361.5 -221.0 361.5 -252.0 M486.5 -240.5 Q482.5 -186.0 462.5 -140.0 442.5 -94.0 410.5 -59.0 379.0 -24.5 336.5 -5.0 294.0 14.5 245.5 14.5 196.5 14.5 156.5 -5.5 116.5 -25.5 88.0 -59.5 59.0 -94.0 44.0 -140.5 28.5 -187.0 28.5 -240.5 28.5 -299.0 47.0 -349.5 65.5 -400.0 97.5 -437.5 130.0 -475.0 174.5 -496.5 219.0 -518.0 271.5 -518.0 322.5 -518.0 364.0 -496.0 405.5 -474.0 434.0 -436.5 463.0 -399.0 477.0 -348.5 490.5 -298.0 486.5 -240.5" fill-rule="evenodd" stroke="none"/>
    </g>
    <g id="font_GosmickSansBold_b0">
      <path d="M387.0 -245.0 L387.0 -267.5 Q387.0 -280.0 385.5 -291.0 384.0 -301.5 381.5 -309.5 379.0 -318.0 375.5 -321.0 368.5 -364.0 340.5 -382.5 312.5 -401.0 279.5 -401.0 250.0 -401.0 224.5 -384.0 199.5 -367.0 177.0 -340.5 172.0 -320.0 169.0 -299.5 166.0 -279.0 166.0 -255.5 L166.0 -249.5 Q166.0 -197.0 177.0 -155.0 L178.0 -154.0 Q197.5 -137.5 218.5 -123.0 239.5 -108.0 266.0 -108.0 318.5 -108.0 351.5 -146.5 385.0 -185.0 387.0 -245.0 M511.0 -252.0 Q511.0 -198.0 492.0 -149.5 473.0 -101.5 440.0 -66.5 406.5 -31.0 361.5 -10.5 316.5 10.0 264.0 10.0 223.5 10.0 193.0 3.5 163.0 -3.5 138.5 -24.0 136.0 -14.5 129.5 -6.5 123.0 2.0 114.5 7.0 106.5 12.0 97.5 13.5 88.0 15.0 80.0 11.0 L63.5 10.5 Q54.5 9.0 46.5 3.0 39.0 -3.5 34.5 -16.0 29.5 -29.0 30.5 -51.5 29.5 -59.5 29.0 -68.5 28.5 -77.0 28.5 -89.5 28.5 -116.0 30.0 -151.5 L34.0 -222.5 Q36.0 -254.0 37.0 -283.5 38.0 -312.5 38.0 -333.0 38.0 -382.0 38.5 -433.5 39.0 -484.5 40.0 -529.0 41.0 -573.5 42.5 -607.5 44.0 -641.0 46.0 -654.5 48.0 -679.0 61.0 -693.5 74.0 -707.5 90.0 -714.0 106.5 -720.0 123.0 -720.0 139.5 -720.0 150.5 -716.0 157.5 -714.0 166.5 -706.5 175.0 -699.5 177.0 -691.5 L176.0 -686.0 Q175.0 -681.0 174.0 -673.0 172.0 -658.5 170.5 -635.5 169.0 -612.5 169.0 -594.0 L169.0 -524.5 169.0 -499.0 Q169.0 -486.5 170.0 -474.5 187.5 -486.5 215.0 -499.5 242.5 -512.0 275.5 -515.0 322.5 -519.5 365.5 -503.5 408.5 -487.5 441.0 -456.0 473.0 -424.0 492.0 -379.0 511.0 -334.0 511.0 -278.5 L511.0 -252.0" fill-rule="evenodd" stroke="none"/>
    </g>
    <g id="font_GosmickSansBold_u0">
      <path d="M466.0 -443.5 Q461.0 -380.0 459.5 -318.5 457.5 -257.0 457.5 -192.5 L457.5 -165.0 Q457.5 -146.5 458.0 -133.5 L460.0 -108.5 Q462.0 -102.5 463.0 -93.5 464.0 -84.0 464.0 -75.0 L464.0 -58.5 464.0 -48.5 Q466.0 -23.5 452.5 -8.5 439.5 7.0 406.5 7.0 L395.5 6.5 Q387.0 6.0 377.5 3.0 367.5 0.0 359.5 -7.5 351.0 -14.5 348.0 -27.0 332.0 -13.5 311.0 -6.5 290.0 1.0 269.0 4.5 248.0 8.0 229.5 8.0 L200.5 8.0 Q139.5 4.0 101.0 -30.0 62.5 -63.5 43.0 -117.0 33.0 -146.5 30.0 -182.5 27.5 -218.0 27.5 -251.0 L27.5 -288.0 Q27.5 -294.0 28.0 -299.5 28.5 -305.0 28.5 -311.5 29.5 -328.5 29.5 -347.0 29.5 -365.5 31.5 -385.0 L31.5 -412.5 Q31.5 -429.0 32.5 -445.5 33.0 -462.0 39.0 -475.5 45.0 -489.5 59.0 -499.5 72.5 -510.0 99.5 -514.0 111.5 -516.0 124.5 -512.5 137.0 -509.0 147.5 -501.0 157.5 -493.5 164.5 -481.5 171.0 -470.0 171.0 -455.5 171.0 -423.0 169.5 -390.5 168.0 -358.5 166.0 -329.5 164.0 -306.0 162.5 -285.5 161.0 -265.5 161.0 -249.0 161.0 -181.5 172.5 -149.0 184.5 -117.0 216.0 -115.0 235.5 -111.5 254.0 -117.0 272.5 -122.0 287.0 -134.0 302.0 -145.5 311.0 -164.0 319.5 -182.5 319.5 -206.0 323.5 -239.5 325.0 -278.0 326.5 -316.5 327.5 -355.5 327.5 -378.0 328.0 -400.5 328.5 -423.0 329.5 -443.5 329.5 -455.5 338.0 -468.5 346.0 -481.0 358.5 -491.5 370.5 -501.5 385.0 -508.5 399.5 -515.0 410.5 -515.0 435.0 -515.0 451.5 -498.5 468.0 -482.0 466.0 -443.5" fill-rule="evenodd" stroke="none"/>
    </g>
    <g id="font_GosmickSansBold_d0">
      <path d="M370.5 -263.0 Q370.5 -327.5 345.5 -367.0 320.5 -406.5 268.0 -406.5 211.0 -406.5 180.0 -363.0 149.5 -319.5 149.5 -242.5 149.5 -215.0 157.5 -190.5 166.0 -166.0 179.5 -148.0 193.5 -130.0 213.0 -120.0 232.5 -109.5 254.0 -109.5 312.0 -109.5 341.5 -151.5 370.5 -193.5 370.5 -263.0 M515.0 -54.5 L514.0 -57.5 Q514.0 -51.5 507.0 -40.5 500.5 -30.0 490.5 -20.0 480.0 -10.5 467.5 -2.5 454.5 5.0 442.0 5.0 L434.0 4.0 Q427.0 3.0 417.0 -1.5 407.5 -6.5 396.0 -14.0 385.0 -21.5 375.5 -36.0 352.0 -18.5 323.0 -5.5 293.5 7.0 264.0 9.0 216.0 12.0 173.0 -4.0 130.0 -20.5 98.0 -53.5 66.5 -86.0 48.0 -133.0 29.5 -180.0 29.5 -237.5 29.5 -295.0 47.5 -345.5 65.5 -396.0 97.5 -434.5 130.0 -473.0 175.0 -495.5 220.0 -518.0 274.0 -518.0 305.0 -518.0 329.5 -510.5 354.0 -502.5 375.5 -490.5 L377.0 -589.0 Q377.5 -635.0 379.5 -675.0 380.5 -686.0 385.5 -696.0 390.0 -705.5 399.0 -710.5 406.5 -721.0 417.0 -723.0 428.0 -725.0 438.0 -726.0 446.5 -726.0 450.5 -727.0 486.0 -729.0 499.5 -703.5 513.0 -678.0 511.0 -635.0 L506.0 -540.5 Q503.5 -491.5 502.0 -441.0 500.5 -390.0 499.5 -340.0 498.5 -290.0 498.5 -243.0 498.5 -203.0 500.5 -171.0 502.5 -139.5 506.5 -116.0 L505.5 -117.0 Q506.5 -115.0 507.5 -110.5 L510.0 -101.5 Q512.0 -90.0 513.5 -76.5 515.0 -62.5 515.0 -54.5" fill-rule="evenodd" stroke="none"/>
    </g>
    <g id="font_GosmickSansBold_i0">
      <path d="M173.0 -642.0 Q171.0 -628.5 162.5 -614.5 153.5 -600.0 140.5 -588.0 127.0 -576.5 110.5 -570.5 94.0 -564.0 76.0 -567.0 48.0 -571.5 37.5 -596.0 26.5 -620.5 28.5 -650.0 31.5 -683.0 54.0 -706.5 76.0 -730.0 109.5 -730.0 128.0 -730.0 141.5 -722.0 154.5 -713.5 162.5 -700.5 170.0 -687.0 172.5 -671.5 175.0 -656.5 173.0 -642.0 M164.0 -442.5 L162.0 -399.5 Q161.0 -378.0 159.5 -357.5 157.5 -318.5 156.5 -282.5 155.5 -247.0 155.5 -210.0 155.5 -171.0 156.5 -134.5 157.5 -98.5 159.5 -71.5 159.5 -57.5 151.0 -44.0 142.5 -31.0 130.5 -20.0 119.0 -9.5 106.5 -2.5 94.0 4.0 86.0 4.0 63.5 4.0 50.0 -5.5 37.0 -15.5 30.0 -35.5 23.5 -55.5 21.5 -85.5 19.5 -116.0 19.5 -155.5 L19.5 -173.0 19.5 -198.5 Q19.5 -212.0 20.5 -224.5 22.5 -248.0 23.0 -273.0 23.5 -298.0 24.5 -324.5 L26.5 -388.5 Q27.5 -423.0 30.5 -451.5 33.0 -472.0 42.5 -485.0 52.0 -497.5 64.5 -504.5 77.0 -512.0 88.5 -514.5 100.5 -517.0 106.5 -517.0 136.0 -517.0 151.0 -498.5 166.0 -480.0 164.0 -442.5" fill-rule="evenodd" stroke="none"/>
    </g>
    <g id="font_GosmickSansBold_e0">
      <path d="M294.0 -311.5 Q311.5 -325.5 320.5 -340.0 329.5 -354.5 328.5 -368.5 326.5 -369.5 326.5 -370.5 326.5 -371.5 325.5 -372.5 323.5 -375.0 322.0 -378.0 320.5 -381.0 321.5 -380.0 313.5 -394.0 296.5 -402.0 279.5 -409.5 259.0 -409.5 237.5 -409.5 219.5 -399.5 201.5 -389.0 188.0 -372.0 174.0 -355.5 165.5 -333.5 156.5 -311.5 153.5 -289.0 159.5 -287.5 165.0 -288.5 L177.0 -290.0 Q210.0 -293.0 239.0 -298.0 268.5 -303.0 294.0 -311.5 M454.5 -187.0 Q470.0 -187.0 485.5 -175.5 500.5 -163.5 503.0 -147.0 L503.0 -148.0 Q509.0 -120.5 489.5 -92.0 470.0 -63.0 436.0 -40.0 402.5 -17.0 358.5 -2.5 314.5 12.5 270.5 12.5 215.0 12.5 170.5 -5.5 126.0 -23.5 94.0 -56.5 62.5 -90.0 45.5 -136.0 28.5 -182.0 28.5 -239.5 28.5 -297.0 47.0 -347.5 65.5 -398.0 98.0 -435.5 130.0 -473.0 175.5 -495.0 221.0 -517.0 275.5 -517.0 313.5 -517.0 346.5 -505.0 380.0 -493.5 404.0 -472.0 428.0 -450.5 442.0 -421.5 455.5 -393.0 455.5 -359.0 455.5 -301.0 419.5 -265.0 383.0 -229.0 322.5 -210.5 295.0 -202.5 275.0 -197.5 255.0 -192.0 239.0 -190.0 L211.0 -187.0 186.5 -186.0 Q178.0 -185.0 176.0 -186.0 174.0 -187.0 164.0 -185.0 165.0 -177.0 173.0 -160.5 187.5 -132.0 216.0 -115.5 244.5 -99.0 281.5 -99.0 331.0 -99.0 361.5 -119.5 392.0 -140.0 417.0 -166.5 434.0 -184.0 454.5 -187.0" fill-rule="evenodd" stroke="none"/>
    </g>
    <g id="font_GosmickSansBold_s0">
      <path d="M440.5 -147.5 Q437.5 -109.5 417.5 -79.5 397.5 -50.0 366.5 -29.0 336.0 -8.0 297.5 2.5 259.0 13.5 219.0 13.5 154.5 13.5 102.5 -7.5 50.0 -28.5 31.5 -65.0 23.5 -81.5 30.0 -98.5 37.0 -115.5 49.5 -128.5 62.5 -142.0 78.0 -149.5 93.0 -157.5 102.5 -155.5 104.5 -153.0 108.5 -151.0 L111.5 -147.5 Q113.5 -145.0 115.5 -143.0 127.0 -129.5 156.0 -115.5 185.5 -101.0 226.5 -101.0 262.0 -101.0 287.5 -112.0 313.5 -122.5 314.5 -141.0 316.5 -180.0 243.5 -196.5 L221.0 -202.5 Q168.0 -216.0 132.5 -230.0 97.5 -244.5 76.5 -262.5 55.5 -280.5 48.5 -304.0 42.0 -327.5 45.0 -360.5 49.0 -397.5 71.5 -426.5 94.0 -455.5 128.0 -477.0 162.0 -499.0 203.5 -512.0 244.5 -525.5 286.5 -528.5 L323.0 -527.0 Q342.0 -525.5 360.0 -519.5 378.0 -513.0 393.0 -501.0 408.5 -488.5 419.0 -467.0 424.0 -449.5 423.5 -437.0 423.0 -424.0 421.0 -416.0 421.0 -417.0 421.5 -417.5 L422.0 -418.0 Q413.5 -391.0 406.0 -376.5 398.5 -361.5 376.0 -359.5 357.5 -357.5 346.0 -361.0 335.0 -364.5 327.0 -371.0 319.5 -378.0 316.0 -386.5 312.5 -395.5 309.5 -404.5 L309.5 -405.5 295.5 -409.5 Q287.5 -411.5 279.5 -411.5 L260.5 -410.5 242.5 -408.5 Q211.0 -404.5 189.5 -389.5 168.0 -375.0 167.0 -358.5 175.0 -346.0 206.0 -337.0 272.5 -318.5 319.0 -300.0 365.5 -281.5 393.5 -260.0 422.0 -238.5 432.5 -211.5 443.5 -184.0 440.5 -147.5" fill-rule="evenodd" stroke="none"/>
    </g>
  </defs>
</svg>
