<?xml version="1.0" encoding="UTF-8" standalone="no"?>
<svg xmlns:ffdec="https://www.free-decompiler.com/flash" xmlns:xlink="http://www.w3.org/1999/xlink" ffdec:objectType="frame" height="51.3px" width="73.85px" xmlns="http://www.w3.org/2000/svg">
  <g transform="matrix(1.0, 0.0, 0.0, 1.0, 27.75, 5.9)">
    <use ffdec:characterId="1539" height="39.75" transform="matrix(1.0, 0.0, 0.0, 1.0, -1.25, -1.3)" width="37.5" xlink:href="#button0"/>
    <filter id="filter1">
      <feColorMatrix in="SourceGraphic" result="filterResult0" type="matrix" values="0 0 0 0 0.23529412,0 0 0 0 0.019607844,0 0 0 0 0.2901961,0 0 0 1 0"/>
      <feConvolveMatrix divisor="9.0" in="filterResult0" kernelMatrix="1 1 1 1 1 1 1 1 1" order="3 3" result="filterResult1"/>
      <feComposite in="SourceGraphic" in2="filterResult1" operator="over" result="filterResult2"/>
      <feOffset dx="1.41423199166404" dy="1.4141951328419862" in="filterResult2" result="filterResult3"/>
      <feColorMatrix in="filterResult3" result="filterResult4" type="matrix" values="0 0 0 0 0.0,0 0 0 0 0.0,0 0 0 0 0.0,0 0 0 1 0"/>
      <feColorMatrix in="filterResult4" result="filterResult5" type="matrix" values="1 0 0 0 0,0 1 0 0 0,0 0 1 0 0,0 0 0 0.3984375 0"/>
      <feComposite in="filterResult2" in2="filterResult5" operator="over" result="filterResult6"/>
    </filter>
    <use ffdec:characterId="1563" filter="url(#filter1)" height="12.55" transform="matrix(1.0, 0.0, 0.0, 1.0, 24.95, -3.8)" width="8.75" xlink:href="#text0"/>
    <use ffdec:characterId="261" ffdec:characterName="core390_fla.petCommands_EnergyStatusBar_50" height="20.6" id="progressBar" transform="matrix(0.4509, 0.0, 0.0, 0.5187, -27.7625, 27.1073)" width="136.4" xlink:href="#sprite0"/>
    <use ffdec:characterId="1558" ffdec:characterName="core390_fla.Unlockeding_Anim_52" height="49.15" id="unlockedAnim_mc" transform="matrix(1.0, 0.0, 0.0, 1.0, -21.65, -3.75)" width="67.75" xlink:href="#sprite2"/>
  </g>
  <defs>
    <g id="button0" transform="matrix(1.0, 0.0, 0.0, 1.0, 1.95, 3.35)">
      <use ffdec:characterId="1535" height="38.5" transform="matrix(1.0, 0.0, 0.0, 1.0, -1.7, -2.1)" width="37.0" xlink:href="#shape0"/>
      <use ffdec:characterId="1536" height="39.0" transform="matrix(1.0, 0.0, 0.0, 1.0, -1.95, -2.85)" width="37.5" xlink:href="#shape1"/>
      <use ffdec:characterId="1537" height="37.5" transform="matrix(1.0, 0.0, 0.0, 1.0, -1.2, -2.2)" width="36.0" xlink:href="#shape2"/>
    </g>
    <g id="shape0" transform="matrix(1.0, 0.0, 0.0, 1.0, 1.7, 2.1)">
      <path d="M5.35 -1.1 Q-0.7 -1.1 -0.7 4.95 L-0.7 29.35 Q-0.7 35.4 5.35 35.4 L28.25 35.4 Q34.3 35.4 34.3 29.35 L34.3 4.95 Q34.3 -1.1 28.25 -1.1 L5.35 -1.1 Z" fill="none" stroke="#000000" stroke-linecap="round" stroke-linejoin="round" stroke-opacity="0.2" stroke-width="2.0"/>
    </g>
    <g id="shape1" transform="matrix(1.0, 0.0, 0.0, 1.0, 1.95, 2.85)">
      <path d="M5.35 -1.6 L28.25 -1.6 Q34.3 -1.6 34.3 4.45 L34.3 28.85 Q34.3 34.9 28.25 34.9 L5.35 34.9 Q-0.7 34.9 -0.7 28.85 L-0.7 4.45 Q-0.7 -1.6 5.35 -1.6" fill="#ffffff" fill-opacity="0.0" fill-rule="evenodd" stroke="none"/>
      <path d="M5.35 -1.6 Q-0.7 -1.6 -0.7 4.45 L-0.7 28.85 Q-0.7 34.9 5.35 34.9 L28.25 34.9 Q34.3 34.9 34.3 28.85 L34.3 4.45 Q34.3 -1.6 28.25 -1.6 L5.35 -1.6 Z" fill="none" stroke="#7d0c9c" stroke-linecap="round" stroke-linejoin="round" stroke-width="2.5"/>
    </g>
    <g id="shape2" transform="matrix(1.0, 0.0, 0.0, 1.0, 1.2, 2.2)">
      <path d="M5.35 -1.7 Q-0.7 -1.7 -0.7 4.35 L-0.7 28.75 Q-0.7 34.8 5.35 34.8 L28.25 34.8 Q34.3 34.8 34.3 28.75 L34.3 4.35 Q34.3 -1.7 28.25 -1.7 L5.35 -1.7 Z" fill="none" stroke="#ffffff" stroke-linecap="round" stroke-linejoin="round" stroke-opacity="0.2" stroke-width="1.0"/>
    </g>
    <g id="text0" transform="matrix(1.0, 0.0, 0.0, 1.0, -7.5, 1.5)">
      <g transform="matrix(1.0, 0.0, 0.0, 1.0, 4.9, 0.0)">
        <use fill="#ffffff" height="12.55" transform="matrix(0.0127, 0.0, 0.0, 0.0127, 2.0, 10.0)" width="8.75" xlink:href="#font_Burbank_Big_Regular_Black_60"/>
      </g>
    </g>
    <g id="font_Burbank_Big_Regular_Black_60">
      <path d="M327.5 -306.0 Q310.0 -306.0 293.0 -300.0 276.5 -293.5 261.0 -282.5 267.5 -210.0 285.0 -179.5 303.0 -149.5 331.0 -150.5 358.0 -150.5 370.5 -171.5 383.0 -192.5 383.0 -233.5 383.0 -269.0 370.0 -287.5 356.5 -306.0 327.5 -306.0 M322.5 24.5 Q168.0 24.0 91.5 -70.0 14.5 -164.5 14.5 -346.0 14.0 -460.0 47.0 -545.5 80.0 -631.0 150.5 -678.5 220.5 -726.5 332.0 -727.0 426.5 -726.5 487.5 -695.5 549.0 -664.5 579.5 -610.0 609.5 -555.0 610.5 -483.5 493.5 -486.0 431.5 -484.5 L368.5 -482.5 Q366.5 -518.0 356.0 -537.5 345.5 -557.0 325.5 -557.0 294.0 -558.5 278.0 -520.0 261.5 -481.5 259.0 -388.0 290.5 -417.0 333.0 -434.0 376.0 -451.0 422.0 -451.5 527.5 -450.5 576.5 -394.5 625.0 -338.5 624.5 -242.5 623.5 -148.5 583.0 -89.0 542.5 -30.0 474.5 -2.5 406.5 25.0 322.5 24.5" fill-rule="evenodd" stroke="none"/>
    </g>
    <g id="sprite0" transform="matrix(1.0, 0.0, 0.0, 1.0, -135.05, -151.65)">
      <use ffdec:characterId="256" height="17.05" transform="matrix(1.0, 0.0, 0.0, 1.0, 201.3, 153.3)" width="70.15" xlink:href="#shape3"/>
      <clipPath id="clipPath0">
        <path d="M 207.5 153.9 L 207.21 153.91 L 206.92 153.93 L 206.64 153.98 L 206.37 154.03 L 206.1 154.11 L 205.84 154.2 L 205.58 154.31 L 205.32 154.44 L 205.08 154.58 L 204.84 154.74 L 204.6 154.92 L 204.37 155.11 L 204.14 155.32 L 203.92 155.55 L 203.71 155.79 L 203.5 156.05 L 203.31 156.32 L 203.12 156.59 L 202.96 156.87 L 202.8 157.16 L 202.66 157.45 L 202.52 157.75 L 202.41 158.06 L 202.3 158.38 L 202.21 158.7 L 202.12 159.03 L 202.06 159.36 L 202 159.71 L 201.96 160.06 L 201.93 160.41 L 201.91 160.78 L 201.9 161.15 L 201.91 161.52 L 201.93 161.88 L 201.96 162.23 L 202 162.57 L 202.06 162.92 L 202.12 163.25 L 202.21 163.58 L 202.3 163.9 L 202.41 164.22 L 202.52 164.52 L 202.66 164.83 L 202.8 165.12 L 202.96 165.42 L 203.12 165.7 L 203.31 165.98 L 203.5 166.25 L 203.71 166.5 L 203.92 166.74 L 204.14 166.96 L 204.37 167.17 L 204.6 167.36 L 204.84 167.53 L 205.08 167.69 L 205.32 167.82 L 205.58 167.95 L 205.84 168.05 L 206.1 168.14 L 206.37 168.22 L 206.64 168.28 L 206.92 168.32 L 207.21 168.34 L 207.5 168.35 L 264 168.35 L 264.27 168.34 L 264.54 168.32 L 264.81 168.28 L 265.07 168.22 L 265.33 168.14 L 265.59 168.05 L 265.84 167.95 L 266.09 167.82 L 266.33 167.69 L 266.57 167.53 L 266.81 167.36 L 267.05 167.17 L 267.28 166.96 L 267.51 166.74 L 267.73 166.5 L 267.95 166.25 L 268.15 165.98 L 268.34 165.7 L 268.51 165.42 L 268.67 165.12 L 268.82 164.83 L 268.96 164.52 L 269.08 164.22 L 269.19 163.9 L 269.28 163.58 L 269.37 163.25 L 269.44 162.92 L 269.5 162.57 L 269.54 162.23 L 269.57 161.88 L 269.59 161.52 L 269.6 161.15 L 269.59 160.78 L 269.57 160.41 L 269.54 160.06 L 269.5 159.71 L 269.44 159.36 L 269.37 159.03 L 269.28 158.7 L 269.19 158.38 L 269.08 158.06 L 268.96 157.75 L 268.82 157.45 L 268.67 157.16 L 268.51 156.87 L 268.34 156.59 L 268.15 156.32 L 267.95 156.05 L 267.73 155.79 L 267.51 155.55 L 267.28 155.32 L 267.05 155.11 L 266.81 154.92 L 266.57 154.74 L 266.33 154.58 L 266.09 154.44 L 265.84 154.31 L 265.59 154.2 L 265.33 154.11 L 265.07 154.03 L 264.81 153.98 L 264.54 153.93 L 264.27 153.91 L 264 153.9 Z"/>
      </clipPath>
      <g clip-path="url(#clipPath0)">
        <use ffdec:characterId="259" height="22.1" transform="matrix(0.9325, 0.0, 0.0, 0.9321, 135.0499, 151.6501)" width="72.6" xlink:href="#sprite1"/>
      </g>
      <use ffdec:characterId="260" height="15.95" transform="matrix(1.0, 0.0, 0.0, 1.0, 201.15, 153.15)" width="69.2" xlink:href="#shape5"/>
    </g>
    <g id="shape3" transform="matrix(1.0, 0.0, 0.0, 1.0, -201.3, -153.3)">
      <path d="M207.6 170.35 Q205.2 170.35 203.5 168.05 201.85 165.75 201.85 162.55 201.85 159.3 203.5 157.0 205.2 154.7 207.6 154.7 L265.7 154.7 Q267.95 154.7 269.75 157.0 271.45 159.3 271.45 162.55 271.45 165.75 269.75 168.05 267.95 170.35 265.7 170.35 L207.6 170.35" fill="#000000" fill-opacity="0.2" fill-rule="evenodd" stroke="none"/>
      <path d="M203.7 155.9 Q205.35 153.8 207.7 153.8 L263.95 153.8 Q266.15 153.8 267.9 155.9 269.55 158.0 269.55 161.0 269.55 164.0 267.9 166.1 266.15 168.2 263.95 168.2 L207.7 168.2 Q205.35 168.2 203.7 166.1 202.1 164.0 202.1 161.0 202.1 158.0 203.7 155.9" fill="#3c054a" fill-rule="evenodd" stroke="none"/>
      <path d="M203.5 156.05 Q205.15 153.9 207.5 153.9 L264.0 153.9 Q266.2 153.9 267.95 156.05 269.6 158.15 269.6 161.15 269.6 164.1 267.95 166.25 266.2 168.35 264.0 168.35 L207.5 168.35 Q205.15 168.35 203.5 166.25 201.9 164.1 201.9 161.15 201.9 158.15 203.5 156.05" fill="url(#gradient0)" fill-rule="evenodd" stroke="none"/>
      <path d="M203.5 156.05 Q201.9 158.15 201.9 161.15 201.9 164.1 203.5 166.25 205.15 168.35 207.5 168.35 L264.0 168.35 Q266.2 168.35 267.95 166.25 269.6 164.1 269.6 161.15 269.6 158.15 267.95 156.05 266.2 153.9 264.0 153.9 L207.5 153.9 Q205.15 153.9 203.5 156.05 Z" ffdec:has-small-stroke="true" ffdec:original-stroke-width="1.2" fill="none" stroke="#009900" stroke-linecap="round" stroke-linejoin="round" stroke-width="2.0578296818550808"/>
      <path d="M269.6 161.75 L269.3 160.0 Q268.9 158.5 267.95 157.3 266.2 155.15 264.0 155.15 L207.5 155.15 Q205.15 155.15 203.5 157.3 201.9 159.4 201.9 162.4" ffdec:has-small-stroke="true" ffdec:original-stroke-width="1.2" fill="none" stroke="#000000" stroke-linecap="round" stroke-linejoin="round" stroke-opacity="0.2" stroke-width="2.0578296818550808"/>
    </g>
    <linearGradient gradientTransform="matrix(1.0E-4, 0.0159, -0.0088, 0.0, 235.9, 163.95)" gradientUnits="userSpaceOnUse" id="gradient0" spreadMethod="pad" x1="-819.2" x2="819.2">
      <stop offset="0.00784313725490196" stop-color="#3c054a"/>
      <stop offset="0.21176470588235294" stop-color="#89489a"/>
      <stop offset="0.7372549019607844" stop-color="#3c054a"/>
    </linearGradient>
    <g id="sprite1" transform="matrix(1.0, 0.0, 0.0, 1.0, 36.3, 11.05)">
      <use ffdec:characterId="258" height="22.1" transform="matrix(1.0, 0.0, 0.0, 1.0, -36.3, -11.05)" width="72.6" xlink:href="#shape4"/>
    </g>
    <g id="shape4" transform="matrix(1.0, 0.0, 0.0, 1.0, 36.3, 11.05)">
      <path d="M36.3 -11.05 L36.3 11.05 -36.3 11.05 -36.3 -11.05 36.3 -11.05" fill="url(#gradient1)" fill-rule="evenodd" stroke="none"/>
    </g>
    <linearGradient gradientTransform="matrix(1.0E-4, 0.0122, -0.0135, 1.0E-4, -0.6, 0.05)" gradientUnits="userSpaceOnUse" id="gradient1" spreadMethod="pad" x1="-819.2" x2="819.2">
      <stop offset="0.00392156862745098" stop-color="#54c800"/>
      <stop offset="0.24705882352941178" stop-color="#ffff71"/>
      <stop offset="0.5843137254901961" stop-color="#54c800"/>
    </linearGradient>
    <g id="shape5" transform="matrix(1.0, 0.0, 0.0, 1.0, -201.15, -153.15)">
      <path d="M203.5 156.05 Q201.9 158.15 201.9 161.15 201.9 164.1 203.5 166.25 205.15 168.35 207.5 168.35 L264.0 168.35 Q266.2 168.35 267.95 166.25 269.6 164.1 269.6 161.15 269.6 158.15 267.95 156.05 266.2 153.9 264.0 153.9 L207.5 153.9 Q205.15 153.9 203.5 156.05 Z" ffdec:has-small-stroke="true" ffdec:original-stroke-width="1.55" fill="none" stroke="#007e00" stroke-linecap="round" stroke-linejoin="round" stroke-width="2.0578296818550808"/>
      <path d="M206.15 157.65 Q206.55 158.05 206.55 158.65 206.55 159.25 206.15 159.65 205.75 160.05 205.15 160.05 204.55 160.05 204.15 159.65 203.75 159.25 203.75 158.65 203.75 158.05 204.15 157.65 204.55 157.25 205.15 157.25 205.75 157.25 206.15 157.65 M206.7 156.85 Q206.35 156.55 206.35 156.1 206.35 155.7 206.7 155.35 207.1 155.05 207.55 155.05 208.05 155.05 208.4 155.35 208.75 155.7 208.75 156.1 208.75 156.55 208.4 156.85 208.05 157.2 207.55 157.2 L206.7 156.85 M265.8 157.25 Q265.45 157.65 264.95 157.65 264.45 157.65 264.05 157.25 263.7 156.9 263.7 156.4 263.7 155.9 264.05 155.5 264.45 155.15 264.95 155.15 265.45 155.15 265.8 155.5 266.2 155.9 266.2 156.4 266.2 156.9 265.8 157.25" fill="#ffffff" fill-rule="evenodd" stroke="none"/>
    </g>
    <g id="sprite2" transform="matrix(1.0, 0.0, 0.0, 1.0, 39.1, 23.45)">
      <filter id="filter2">
        <feOffset dx="-0.5847250027462125" dy="1.912615139321929" in="SourceGraphic" result="filterResult7"/>
        <feColorMatrix in="filterResult7" result="filterResult8" type="matrix" values="0 0 0 0 0.0,0 0 0 0 0.0,0 0 0 0 0.0,0 0 0 1 0"/>
        <feColorMatrix in="filterResult8" result="filterResult9" type="matrix" values="1 0 0 0 0,0 1 0 0 0,0 0 1 0 0,0 0 0 0.3984375 0"/>
        <feComposite in="SourceGraphic" in2="filterResult9" operator="over" result="filterResult10"/>
      </filter>
      <use ffdec:characterId="1551" filter="url(#filter2)" height="47.6" transform="matrix(0.75, 0.0, 0.0, 0.75, -31.825, -14.4625)" width="78.75" xlink:href="#sprite3"/>
    </g>
    <g id="sprite3" transform="matrix(1.0, 0.0, 0.0, 1.0, 38.3, -0.05)">
      <use ffdec:characterId="1542" height="26.75" transform="matrix(1.4892, -0.2085, 0.2085, 1.4892, -14.3883, 7.8349)" width="19.1" xlink:href="#sprite4"/>
      <use ffdec:characterId="1546" height="11.85" transform="matrix(0.7045, 0.1115, -0.1115, 0.7045, -21.8448, 8.988)" width="34.8" xlink:href="#sprite5"/>
      <use ffdec:characterId="1546" height="11.85" transform="matrix(0.7091, -0.0772, 0.0772, 0.7091, 0.9603, 11.9761)" width="34.8" xlink:href="#sprite7"/>
      <use ffdec:characterId="1550" height="32.8" transform="matrix(-0.7029, -0.121, -0.121, 0.7029, -4.5535, 5.1571)" width="42.35" xlink:href="#sprite8"/>
      <use ffdec:characterId="1550" height="32.8" transform="matrix(0.7029, -0.121, 0.121, 0.7029, 6.7035, 5.1571)" width="42.35" xlink:href="#sprite9"/>
    </g>
    <g id="sprite4" transform="matrix(1.0, 0.0, 0.0, 1.0, 26.55, 6.95)">
      <use ffdec:characterId="1541" height="26.75" transform="matrix(1.0, 0.0, 0.0, 1.0, -26.55, -6.95)" width="19.1" xlink:href="#shape6"/>
    </g>
    <g id="shape6" transform="matrix(1.0, 0.0, 0.0, 1.0, 26.55, 6.95)">
      <path d="M-16.95 -3.3 Q-15.2 -3.3 -14.0 -1.8 -12.75 -0.3 -12.75 1.85 L-12.75 2.9 Q-14.6 1.8 -16.95 1.8 -19.3 1.8 -21.15 2.9 L-21.15 1.85 Q-21.15 -0.3 -19.9 -1.8 -18.75 -3.3 -16.95 -3.3 M-17.0 -5.95 Q-19.7 -5.95 -21.65 -4.05 -23.55 -2.1 -23.55 0.6 L-23.55 4.75 Q-25.55 7.05 -25.55 10.25 -25.55 13.8 -23.05 16.3 -20.55 18.8 -17.0 18.8 -13.45 18.8 -10.95 16.3 -8.45 13.8 -8.45 10.25 -8.45 7.05 -10.45 4.75 L-10.45 0.6 Q-10.45 -2.1 -12.4 -4.05 -14.3 -5.95 -17.0 -5.95 Z" fill="none" stroke="#3f3f3f" stroke-linecap="round" stroke-linejoin="round" stroke-width="2.0"/>
      <path d="M-23.4 8.05 L-23.4 0.6 Q-23.4 -2.05 -21.55 -3.95 -19.65 -5.8 -17.0 -5.8 -14.35 -5.8 -12.5 -3.95 -10.6 -2.05 -10.6 0.6 L-10.6 8.05 Q-10.6 10.75 -12.5 12.55 -14.25 14.35 -16.7 14.45 L-17.0 14.45 -17.25 14.45 Q-19.75 14.35 -21.55 12.55 -23.4 10.75 -23.4 8.05 M-12.65 7.8 L-12.65 1.65 Q-12.65 -0.55 -13.95 -2.1 -15.2 -3.65 -17.0 -3.65 -18.85 -3.65 -20.1 -2.1 -21.35 -0.55 -21.35 1.65 L-21.35 7.8 Q-21.35 10.0 -20.1 11.5 -18.85 13.05 -17.0 13.05 -15.2 13.05 -13.95 11.5 -12.65 10.0 -12.65 7.8" fill="url(#gradient2)" fill-rule="evenodd" stroke="none"/>
      <path d="M-23.4 8.05 Q-23.4 10.75 -21.55 12.55 -19.75 14.35 -17.25 14.45 L-17.0 14.45 -16.7 14.45 Q-14.25 14.35 -12.5 12.55 -10.6 10.75 -10.6 8.05 M-21.35 7.8 Q-21.35 10.0 -20.1 11.5 -18.85 13.05 -17.0 13.05 -15.2 13.05 -13.95 11.5 -12.65 10.0 -12.65 7.8" ffdec:has-small-stroke="true" ffdec:original-stroke-width="0.3" fill="none" stroke="#adadad" stroke-linecap="round" stroke-linejoin="round" stroke-width="0.8866636643713233"/>
      <path d="M-17.0 -5.8 Q-14.35 -5.8 -12.5 -3.95 -10.6 -2.05 -10.6 0.6 L-10.6 8.05 Q-10.6 10.75 -12.5 12.55 -14.25 14.35 -16.7 14.45 L-17.0 14.45 -17.25 14.45 Q-19.75 14.35 -21.55 12.55 -23.4 10.75 -23.4 8.05 L-23.4 0.6 Q-23.4 -2.05 -21.55 -3.95 -19.65 -5.8 -17.0 -5.8 M-17.0 -3.65 Q-18.85 -3.65 -20.1 -2.1 -21.35 -0.55 -21.35 1.65 L-21.35 7.8 Q-21.35 10.0 -20.1 11.5 -18.85 13.05 -17.0 13.05 -15.2 13.05 -13.95 11.5 -12.65 10.0 -12.65 7.8 L-12.65 1.65 Q-12.65 -0.55 -13.95 -2.1 -15.2 -3.65 -17.0 -3.65" fill="#cccccc" fill-rule="evenodd" stroke="none"/>
      <path d="M-21.05 12.75 L-21.15 12.65 -21.05 12.45 -21.05 12.3 -21.2 11.95 Q-22.9 10.3 -22.9 7.8 L-22.9 0.35 Q-22.9 -2.1 -21.2 -3.85 -19.45 -5.55 -17.0 -5.55 -14.55 -5.55 -12.85 -3.85 -11.1 -2.1 -11.1 0.35 L-11.1 7.8 Q-11.1 10.3 -12.85 11.95 L-13.0 12.3 -12.95 12.45 -12.85 12.65 -12.95 12.8 Q-14.6 14.1 -16.7 14.2 L-17.0 14.2 -17.25 14.2 Q-19.45 14.1 -21.05 12.75 M-20.5 -2.65 Q-21.85 -1.0 -21.85 1.4 L-21.85 7.55 Q-21.85 9.95 -20.45 11.6 L-20.5 11.6 -19.55 12.45 -18.8 12.9 -18.4 12.95 -18.15 12.65 -17.0 12.8 -15.85 12.65 -15.85 12.7 -15.55 12.95 -15.15 12.9 -14.45 12.45 -13.55 11.6 Q-12.15 9.95 -12.15 7.55 L-12.15 1.4 Q-12.15 -1.0 -13.55 -2.65 -14.95 -4.4 -17.0 -4.4 -19.1 -4.4 -20.5 -2.65" fill="#cccccc" fill-rule="evenodd" stroke="none"/>
      <path d="M-12.95 12.8 Q-14.5 14.35 -16.7 14.45 L-17.0 14.45 -17.25 14.45 Q-19.5 14.35 -21.05 12.75" ffdec:has-small-stroke="true" ffdec:original-stroke-width="0.05" fill="none" stroke="#999999" stroke-linecap="round" stroke-linejoin="round" stroke-width="0.8866636643713233"/>
      <path d="M-8.6 9.55 L-8.6 10.25 Q-8.6 13.75 -11.05 16.2 -13.5 18.65 -17.0 18.65 -20.5 18.65 -22.95 16.2 -25.4 13.75 -25.4 10.25 L-25.35 9.3 -23.6 9.95 -23.6 10.25 -23.35 12.0 Q-22.95 13.65 -21.75 14.85 -19.75 16.85 -17.0 16.85 -14.25 16.85 -12.3 14.85 -10.35 13.0 -10.35 10.25 L-10.35 10.1 -8.6 9.55" fill="url(#gradient3)" fill-rule="evenodd" stroke="none"/>
      <path d="M-10.35 10.1 L-10.35 10.25 Q-10.35 13.0 -12.3 14.85 -14.25 16.85 -17.0 16.85 -19.75 16.85 -21.75 14.85 -22.95 13.65 -23.35 12.0 L-23.6 10.25 -23.6 9.95 -22.9 10.15 -22.9 10.25 -22.7 11.85 Q-22.3 13.3 -21.2 14.4 -19.45 16.15 -17.0 16.15 -14.55 16.15 -12.85 14.4 -11.1 12.7 -11.1 10.3 L-10.35 10.1" fill="url(#gradient4)" fill-rule="evenodd" stroke="none"/>
      <path d="M-11.1 10.3 Q-11.1 12.7 -12.85 14.4 -14.55 16.15 -17.0 16.15 -19.45 16.15 -21.2 14.4 -22.3 13.3 -22.7 11.85 L-22.9 10.25 -22.9 10.15 Q-20.05 10.9 -16.7 10.9 L-11.1 10.3" fill="url(#gradient5)" fill-rule="evenodd" stroke="none"/>
      <path d="M-22.9 10.15 L-22.7 8.65 Q-22.3 7.2 -21.2 6.05 -19.45 4.35 -17.0 4.35 -14.55 4.35 -12.85 6.05 -11.1 7.8 -11.1 10.25 L-11.1 10.3 -16.7 10.9 Q-20.05 10.9 -22.9 10.15" fill="url(#gradient6)" fill-rule="evenodd" stroke="none"/>
      <path d="M-25.35 9.3 Q-25.05 6.4 -22.95 4.3 -20.5 1.85 -17.0 1.85 -13.5 1.85 -11.05 4.3 -8.85 6.5 -8.6 9.55 L-10.35 10.1 Q-10.4 7.45 -12.3 5.5 -14.25 3.6 -17.0 3.6 -19.75 3.6 -21.75 5.5 -22.95 6.8 -23.35 8.4 L-23.6 9.95 -25.35 9.3" fill="url(#gradient7)" fill-rule="evenodd" stroke="none"/>
      <path d="M-10.35 10.1 L-11.1 10.3 -11.1 10.25 Q-11.1 7.8 -12.85 6.05 -14.55 4.35 -17.0 4.35 -19.45 4.35 -21.2 6.05 -22.3 7.2 -22.7 8.65 L-22.9 10.15 -23.6 9.95 -23.35 8.4 Q-22.95 6.8 -21.75 5.5 -19.75 3.6 -17.0 3.6 -14.25 3.6 -12.3 5.5 -10.4 7.45 -10.35 10.1" fill="url(#gradient8)" fill-rule="evenodd" stroke="none"/>
      <path d="M-8.6 9.55 L-8.6 10.25 Q-8.6 13.75 -11.05 16.2 -13.5 18.65 -17.0 18.65 -20.5 18.65 -22.95 16.2 -25.4 13.75 -25.4 10.25 L-25.35 9.3 Q-25.05 6.4 -22.95 4.3 -20.5 1.85 -17.0 1.85 -13.5 1.85 -11.05 4.3 -8.85 6.5 -8.6 9.55" ffdec:has-small-stroke="true" ffdec:original-stroke-width="0.3" fill="none" stroke="#adadad" stroke-linecap="round" stroke-linejoin="round" stroke-width="0.8866636643713233"/>
      <path d="M-10.35 10.1 L-11.1 10.3 M-22.9 10.15 L-23.6 9.95" ffdec:has-small-stroke="true" ffdec:original-stroke-width="0.05" fill="none" stroke="#ffffff" stroke-linecap="round" stroke-linejoin="round" stroke-width="0.8866636643713233"/>
      <path d="M-11.2 4.45 Q-8.8 6.85 -8.8 10.25 -8.8 13.65 -11.2 16.05 -13.6 18.45 -17.0 18.45 -20.4 18.45 -22.8 16.05 -25.2 13.65 -25.2 10.25 -25.2 6.85 -22.8 4.45 -20.4 2.05 -17.0 2.05 -13.6 2.05 -11.2 4.45 M-12.4 5.6 Q-14.3 3.75 -17.0 3.75 -19.7 3.75 -21.65 5.6 -22.8 6.9 -23.2 8.45 L-23.45 10.25 -23.2 11.95 Q-22.8 13.6 -21.65 14.75 -19.7 16.7 -17.0 16.7 -14.3 16.7 -12.4 14.75 -10.5 12.95 -10.5 10.25 -10.5 7.55 -12.4 5.6" fill="url(#gradient9)" fill-rule="evenodd" stroke="none"/>
      <path d="M-18.35 4.5 L-18.6 3.8 -17.6 3.65 -17.65 4.4 -18.35 4.5 M-13.35 5.6 L-13.0 4.9 -12.3 5.5 -12.15 5.65 -12.85 6.05 -13.35 5.6 M-17.0 3.6 L-16.9 3.6 -17.0 4.35 -17.3 4.35 -17.3 3.6 -17.0 3.6 M-11.65 6.25 L-12.5 6.45 -12.65 6.3 -11.9 5.9 -11.65 6.25 M-10.35 10.8 L-11.1 10.65 -11.1 10.25 -11.1 9.95 -10.35 9.8 -10.35 10.25 -10.35 10.8 M-12.6 15.15 L-12.95 14.5 -12.85 14.4 -12.65 14.2 -12.15 14.7 -12.3 14.85 -12.6 15.15 M-11.9 14.45 L-12.4 13.95 -12.25 13.75 -11.6 14.1 -11.9 14.45 M-15.85 16.8 L-16.2 16.85 -16.4 16.15 -16.2 16.1 -15.85 16.8 M-17.55 16.85 L-17.4 16.15 -17.0 16.15 -16.8 16.15 -16.6 16.85 -17.0 16.85 -17.55 16.85 M-22.35 6.3 L-21.8 5.55 -21.3 6.2 -21.55 6.5 -22.35 6.3" fill="#f7f7f7" fill-rule="evenodd" stroke="none"/>
      <path d="M-14.9 8.85 Q-15.75 9.55 -16.95 9.55 -18.15 9.55 -19.05 8.85 -19.9 8.2 -19.9 7.25 -19.9 6.3 -19.05 5.6 -18.15 4.95 -16.95 4.95 -15.75 4.95 -14.9 5.6 -14.0 6.3 -14.0 7.25 -14.0 8.2 -14.9 8.85" fill="url(#gradient10)" fill-rule="evenodd" stroke="none"/>
      <path d="M-14.8 8.55 Q-14.8 9.45 -15.45 10.15 L-16.1 10.65 -15.1 14.2 -19.15 14.1 -18.1 10.55 -18.55 10.15 Q-19.2 9.45 -19.2 8.55 -19.2 7.65 -18.55 7.0 -17.9 6.35 -17.0 6.35 -16.1 6.35 -15.45 7.0 -14.8 7.65 -14.8 8.55" fill="#000000" fill-rule="evenodd" stroke="none"/>
    </g>
    <linearGradient gradientTransform="matrix(0.0137, 1.0E-4, -1.0E-4, 0.0124, -16.95, -15.0)" gradientUnits="userSpaceOnUse" id="gradient2" spreadMethod="pad" x1="-819.2" x2="819.2">
      <stop offset="0.12941176470588237" stop-color="#cccccc"/>
      <stop offset="0.47058823529411764" stop-color="#c0c0c0"/>
      <stop offset="0.8666666666666667" stop-color="#e8e8e8"/>
    </linearGradient>
    <linearGradient gradientTransform="matrix(0.0097, 0.0079, -0.0064, 0.008, -19.6, 5.55)" gradientUnits="userSpaceOnUse" id="gradient3" spreadMethod="pad" x1="-819.2" x2="819.2">
      <stop offset="0.12941176470588237" stop-color="#999999"/>
      <stop offset="0.47058823529411764" stop-color="#c0c0c0"/>
      <stop offset="0.8666666666666667" stop-color="#999999"/>
    </linearGradient>
    <linearGradient gradientTransform="matrix(0.0097, 0.0079, -0.0064, 0.008, -19.6, 5.55)" gradientUnits="userSpaceOnUse" id="gradient4" spreadMethod="pad" x1="-819.2" x2="819.2">
      <stop offset="0.12941176470588237" stop-color="#b7b7b7"/>
      <stop offset="0.47058823529411764" stop-color="#e5e5e5"/>
      <stop offset="0.8666666666666667" stop-color="#b7b7b7"/>
    </linearGradient>
    <radialGradient cx="0" cy="0" gradientTransform="matrix(0.0096, 0.0, 0.0, 0.0096, -17.0, 10.25)" gradientUnits="userSpaceOnUse" id="gradient5" r="819.2" spreadMethod="pad">
      <stop offset="0.6823529411764706" stop-color="#999999"/>
      <stop offset="0.8509803921568627" stop-color="#565656"/>
    </radialGradient>
    <radialGradient cx="0" cy="0" gradientTransform="matrix(0.0096, 0.0, 0.0, 0.0096, -17.0, 10.25)" gradientUnits="userSpaceOnUse" id="gradient6" r="819.2" spreadMethod="pad">
      <stop offset="0.6823529411764706" stop-color="#cecece"/>
      <stop offset="0.8509803921568627" stop-color="#7f7f7f"/>
    </radialGradient>
    <linearGradient gradientTransform="matrix(0.0097, 0.0079, -0.0064, 0.008, -19.6, 5.55)" gradientUnits="userSpaceOnUse" id="gradient7" spreadMethod="pad" x1="-819.2" x2="819.2">
      <stop offset="0.12941176470588237" stop-color="#c9c9c9"/>
      <stop offset="0.47058823529411764" stop-color="#eaeaea"/>
      <stop offset="0.8666666666666667" stop-color="#c4c4c4"/>
    </linearGradient>
    <linearGradient gradientTransform="matrix(0.0097, 0.0079, -0.0064, 0.008, -19.6, 5.55)" gradientUnits="userSpaceOnUse" id="gradient8" spreadMethod="pad" x1="-819.2" x2="819.2">
      <stop offset="0.12941176470588237" stop-color="#939393"/>
      <stop offset="0.47058823529411764" stop-color="#bfbfbf"/>
      <stop offset="0.8666666666666667" stop-color="#a8a8a8"/>
    </linearGradient>
    <radialGradient cx="0" cy="0" gradientTransform="matrix(0.0106, 0.0, 0.0, 0.0106, -17.0, 10.25)" gradientUnits="userSpaceOnUse" id="gradient9" r="819.2" spreadMethod="pad">
      <stop offset="0.9333333333333333" stop-color="#333333" stop-opacity="0.0"/>
      <stop offset="1.0" stop-color="#414141"/>
    </radialGradient>
    <radialGradient cx="0" cy="0" gradientTransform="matrix(0.0047, 0.0, 0.0, 0.0034, -17.1, 7.25)" gradientUnits="userSpaceOnUse" id="gradient10" r="819.2" spreadMethod="pad">
      <stop offset="0.3058823529411765" stop-color="#ffffff" stop-opacity="0.5019608"/>
      <stop offset="0.6823529411764706" stop-color="#ffffff" stop-opacity="0.0"/>
    </radialGradient>
    <g id="sprite5" transform="matrix(1.0, 0.0, 0.0, 1.0, 0.75, 0.75)">
      <use ffdec:characterId="1543" height="11.85" transform="matrix(1.0, 0.0, 0.0, 1.0, -0.75, -0.75)" width="34.8" xlink:href="#shape7"/>
      <use ffdec:characterId="1545" height="2.0" transform="matrix(1.0, 0.0, 0.0, 1.0, 6.65, 6.35)" width="19.4" xlink:href="#sprite6"/>
      <use ffdec:characterId="1545" height="2.0" transform="matrix(0.75, 0.0, 0.0, 0.75, 9.25, 1.45)" width="19.4" xlink:href="#sprite6"/>
    </g>
    <g id="shape7" transform="matrix(1.0, 0.0, 0.0, 1.0, 0.75, 0.75)">
      <path d="M23.0 10.35 L10.5 10.35 10.4 10.35 Q6.1 10.35 3.05 8.85 0.0 7.35 0.0 5.2 0.0 3.05 3.05 1.55 5.5 0.3 8.75 0.05 L10.4 0.0 10.5 0.0 23.0 0.0 24.95 0.1 Q27.95 0.4 30.25 1.55 33.3 3.05 33.3 5.2 33.3 7.35 30.25 8.85 27.25 10.35 23.0 10.35 M7.9 5.0 L11.45 5.55 22.15 5.55 25.6 5.0 24.95 4.75 22.15 4.4 11.45 4.4 8.75 4.7 7.9 5.0 7.25 4.7 6.75 4.4 7.25 4.7 7.9 5.0 M26.85 4.25 L26.2 4.7 25.6 5.0 26.2 4.7 26.85 4.25" fill="url(#gradient11)" fill-rule="evenodd" stroke="none"/>
      <path d="M7.9 5.0 L7.25 4.7 6.75 4.4 M25.6 5.0 L26.2 4.7 26.85 4.25" ffdec:has-small-stroke="true" ffdec:original-stroke-width="1.0" fill="none" stroke="#666666" stroke-linecap="round" stroke-linejoin="round" stroke-width="1.8692486022373125"/>
      <path d="M23.0 10.35 L10.5 10.35 10.4 10.35 Q6.1 10.35 3.05 8.85 0.0 7.35 0.0 5.2 0.0 3.05 3.05 1.55 5.5 0.3 8.75 0.05 L10.4 0.0 10.5 0.0 23.0 0.0 24.95 0.1 Q27.95 0.4 30.25 1.55 33.3 3.05 33.3 5.2 33.3 7.35 30.25 8.85 27.25 10.35 23.0 10.35 M25.6 5.0 L22.15 5.55 11.45 5.55 7.9 5.0 8.75 4.7 11.45 4.4 22.15 4.4 24.95 4.75 25.6 5.0 Z" ffdec:has-small-stroke="true" ffdec:original-stroke-width="1.5" fill="none" stroke="#3f3f3f" stroke-linecap="round" stroke-linejoin="round" stroke-width="1.8692486022373125"/>
      <path d="M12.1 -0.3 L21.3 -0.3 Q25.45 -0.3 28.6 0.95 31.7 2.1 31.7 3.7 L31.7 3.8 Q31.7 5.45 28.6 6.7 25.45 7.8 21.3 7.8 L12.1 7.8 Q7.95 7.8 4.8 6.7 1.7 5.45 1.7 3.8 L1.7 3.7 Q1.7 2.1 4.8 0.95 7.95 -0.3 12.1 -0.3 M25.45 2.1 L20.0 1.55 13.75 1.55 8.6 2.1 Q6.3 2.75 6.3 3.7 6.3 4.6 8.6 5.25 L13.75 5.9 20.0 5.9 25.45 5.25 Q27.5 4.6 27.5 3.7 27.5 2.75 25.45 2.1" fill="url(#gradient12)" fill-rule="evenodd" stroke="none"/>
    </g>
    <radialGradient cx="0" cy="0" gradientTransform="matrix(0.0235, 0.0, 0.0, 0.0076, 15.9, 3.75)" gradientUnits="userSpaceOnUse" id="gradient11" r="819.2" spreadMethod="pad">
      <stop offset="0.3137254901960784" stop-color="#999999"/>
      <stop offset="0.4588235294117647" stop-color="#c0c0c0"/>
      <stop offset="0.596078431372549" stop-color="#c0c0c0"/>
      <stop offset="0.8901960784313725" stop-color="#626262"/>
    </radialGradient>
    <radialGradient cx="0" cy="0" gradientTransform="matrix(0.0309, 0.0, 0.0, 0.0077, 16.7, 3.8)" gradientUnits="userSpaceOnUse" id="gradient12" r="819.2" spreadMethod="pad">
      <stop offset="0.4627450980392157" stop-color="#ffffff" stop-opacity="0.0"/>
      <stop offset="0.5098039215686274" stop-color="#ffffff" stop-opacity="0.34901962"/>
      <stop offset="0.5333333333333333" stop-color="#ffffff" stop-opacity="0.0"/>
    </radialGradient>
    <g id="sprite6" transform="matrix(1.0, 0.0, 0.0, 1.0, 0.0, 0.0)">
      <use ffdec:characterId="1544" height="2.0" transform="matrix(1.0, 0.0, 0.0, 1.0, 0.0, 0.0)" width="19.4" xlink:href="#shape8"/>
    </g>
    <g id="shape8" transform="matrix(1.0, 0.0, 0.0, 1.0, 0.0, 0.0)">
      <path d="M16.55 1.7 L9.7 2.0 2.85 1.7 Q0.0 1.4 0.0 1.0 0.0 0.6 2.85 0.3 L9.7 0.0 16.55 0.3 Q19.4 0.6 19.4 1.0 19.4 1.4 16.55 1.7" fill="#ffffff" fill-opacity="0.4" fill-rule="evenodd" stroke="none"/>
    </g>
    <g id="sprite7" transform="matrix(1.0, 0.0, 0.0, 1.0, 0.75, 0.75)">
      <use ffdec:characterId="1543" height="11.85" transform="matrix(1.0, 0.0, 0.0, 1.0, -0.75, -0.75)" width="34.8" xlink:href="#shape9"/>
      <use ffdec:characterId="1545" height="2.0" transform="matrix(1.0, 0.0, 0.0, 1.0, 6.65, 6.35)" width="19.4" xlink:href="#sprite6"/>
      <use ffdec:characterId="1545" height="2.0" transform="matrix(0.75, 0.0, 0.0, 0.75, 9.25, 1.45)" width="19.4" xlink:href="#sprite6"/>
    </g>
    <g id="shape9" transform="matrix(1.0, 0.0, 0.0, 1.0, 0.75, 0.75)">
      <path d="M23.0 10.35 L10.5 10.35 10.4 10.35 Q6.1 10.35 3.05 8.85 0.0 7.35 0.0 5.2 0.0 3.05 3.05 1.55 5.5 0.3 8.75 0.05 L10.4 0.0 10.5 0.0 23.0 0.0 24.95 0.1 Q27.95 0.4 30.25 1.55 33.3 3.05 33.3 5.2 33.3 7.35 30.25 8.85 27.25 10.35 23.0 10.35 M7.9 5.0 L11.45 5.55 22.15 5.55 25.6 5.0 24.95 4.75 22.15 4.4 11.45 4.4 8.75 4.7 7.9 5.0 7.25 4.7 6.75 4.4 7.25 4.7 7.9 5.0 M26.85 4.25 L26.2 4.7 25.6 5.0 26.2 4.7 26.85 4.25" fill="url(#gradient13)" fill-rule="evenodd" stroke="none"/>
      <path d="M7.9 5.0 L7.25 4.7 6.75 4.4 M25.6 5.0 L26.2 4.7 26.85 4.25" ffdec:has-small-stroke="true" ffdec:original-stroke-width="1.0" fill="none" stroke="#666666" stroke-linecap="round" stroke-linejoin="round" stroke-width="1.8692840005388576"/>
      <path d="M23.0 10.35 L10.5 10.35 10.4 10.35 Q6.1 10.35 3.05 8.85 0.0 7.35 0.0 5.2 0.0 3.05 3.05 1.55 5.5 0.3 8.75 0.05 L10.4 0.0 10.5 0.0 23.0 0.0 24.95 0.1 Q27.95 0.4 30.25 1.55 33.3 3.05 33.3 5.2 33.3 7.35 30.25 8.85 27.25 10.35 23.0 10.35 M25.6 5.0 L22.15 5.55 11.45 5.55 7.9 5.0 8.75 4.7 11.45 4.4 22.15 4.4 24.95 4.75 25.6 5.0 Z" ffdec:has-small-stroke="true" ffdec:original-stroke-width="1.5" fill="none" stroke="#3f3f3f" stroke-linecap="round" stroke-linejoin="round" stroke-width="1.8692840005388576"/>
      <path d="M12.1 -0.3 L21.3 -0.3 Q25.45 -0.3 28.6 0.95 31.7 2.1 31.7 3.7 L31.7 3.8 Q31.7 5.45 28.6 6.7 25.45 7.8 21.3 7.8 L12.1 7.8 Q7.95 7.8 4.8 6.7 1.7 5.45 1.7 3.8 L1.7 3.7 Q1.7 2.1 4.8 0.95 7.95 -0.3 12.1 -0.3 M25.45 2.1 L20.0 1.55 13.75 1.55 8.6 2.1 Q6.3 2.75 6.3 3.7 6.3 4.6 8.6 5.25 L13.75 5.9 20.0 5.9 25.45 5.25 Q27.5 4.6 27.5 3.7 27.5 2.75 25.45 2.1" fill="url(#gradient14)" fill-rule="evenodd" stroke="none"/>
    </g>
    <radialGradient cx="0" cy="0" gradientTransform="matrix(0.0235, 0.0, 0.0, 0.0076, 15.9, 3.75)" gradientUnits="userSpaceOnUse" id="gradient13" r="819.2" spreadMethod="pad">
      <stop offset="0.3137254901960784" stop-color="#999999"/>
      <stop offset="0.4588235294117647" stop-color="#c0c0c0"/>
      <stop offset="0.596078431372549" stop-color="#c0c0c0"/>
      <stop offset="0.8901960784313725" stop-color="#626262"/>
    </radialGradient>
    <radialGradient cx="0" cy="0" gradientTransform="matrix(0.0309, 0.0, 0.0, 0.0077, 16.7, 3.8)" gradientUnits="userSpaceOnUse" id="gradient14" r="819.2" spreadMethod="pad">
      <stop offset="0.4627450980392157" stop-color="#ffffff" stop-opacity="0.0"/>
      <stop offset="0.5098039215686274" stop-color="#ffffff" stop-opacity="0.34901962"/>
      <stop offset="0.5333333333333333" stop-color="#ffffff" stop-opacity="0.0"/>
    </radialGradient>
    <g id="sprite8" transform="matrix(1.0, 0.0, 0.0, 1.0, 0.5, 2.85)">
      <clipPath id="clipPath1">
        <path d="M -0.5 -2.85 L 0.35 11.35 L 1.87 11.49 L 3.29 11.59 L 4.59 11.65 L 5.8 11.67 L 6.54 11.66 L 7.23 11.64 L 7.88 11.59 L 8.48 11.53 L 9.03 11.45 L 9.53 11.35 L 9.99 11.23 L 10.4 11.1 L 15.65 15.4 L 14.6 15.76 L 13.64 16.08 L 12.75 16.36 L 11.95 16.59 L 11.23 16.77 L 10.59 16.91 L 10.03 17 L 9.55 17.05 L 4.75 17.3 L 0.9 19.9 L 1.5 29.65 L 38.85 29.95 L 40.55 11.35 L 40.6 11.35 L 41.85 -2.15 L -0.5 -2.85 Z"/>
      </clipPath>
      <g clip-path="url(#clipPath1)">
        <use ffdec:characterId="1548" height="23.1" transform="matrix(1.0, 0.0, 0.0, 1.0, 3.3, -1.55)" width="26.6" xlink:href="#shape10"/>
      </g>
      <use ffdec:characterId="1549" height="1.7" transform="matrix(1.0, 0.0, 0.0, 1.0, 10.15, 1.05)" width="12.5" xlink:href="#shape11"/>
    </g>
    <g id="shape10" transform="matrix(1.0, 0.0, 0.0, 1.0, -3.3, 1.55)">
      <path d="M23.8 10.4 Q23.8 7.95 22.7 6.3 21.7 4.6 20.25 4.55 L13.25 4.55 Q11.7 4.6 10.6 6.3 9.55 7.95 9.55 10.4 9.55 12.75 10.6 14.5 11.7 16.15 13.25 16.2 L20.15 16.2 Q21.65 16.15 22.7 14.5 23.8 12.75 23.8 10.4 M29.15 10.4 Q29.15 14.7 26.85 17.75 24.6 20.75 21.4 20.8 L11.9 20.8 Q10.0 20.8 8.4 19.75 7.3 19.0 6.35 17.75 4.05 14.7 4.05 10.4 4.05 6.1 6.35 3.05 8.65 0.0 11.9 0.0 L21.4 0.0 Q24.6 0.05 26.85 3.05 29.15 6.1 29.15 10.4" fill="url(#gradient15)" fill-rule="evenodd" stroke="none"/>
      <path d="M23.8 10.4 Q23.8 12.75 22.7 14.5 21.65 16.15 20.15 16.2 L13.25 16.2 Q11.7 16.15 10.6 14.5 9.55 12.75 9.55 10.4 9.55 7.95 10.6 6.3 11.7 4.6 13.25 4.55 L20.25 4.55 Q21.7 4.6 22.7 6.3 23.8 7.95 23.8 10.4 M29.15 10.4 Q29.15 14.7 26.85 17.75 24.6 20.75 21.4 20.8 L11.9 20.8 Q10.0 20.8 8.4 19.75 7.3 19.0 6.35 17.75 4.05 14.7 4.05 10.4 4.05 6.1 6.35 3.05 8.65 0.0 11.9 0.0 L21.4 0.0 Q24.6 0.05 26.85 3.05 29.15 6.1 29.15 10.4 Z" ffdec:has-small-stroke="true" ffdec:original-stroke-width="1.5" fill="none" stroke="#515151" stroke-linecap="round" stroke-linejoin="round" stroke-width="1.8692774017251665"/>
      <path d="M12.5 -1.55 L20.2 -1.55 Q23.65 -1.55 26.3 1.9 28.9 5.05 28.9 9.55 L28.9 9.8 Q28.9 14.3 26.3 17.75 23.65 20.9 20.2 20.9 L12.5 20.9 Q9.0 20.9 6.4 17.75 3.8 14.3 3.8 9.8 L3.8 9.55 Q3.8 5.05 6.4 1.9 9.0 -1.55 12.5 -1.55 M23.65 5.05 Q21.7 3.5 19.1 3.5 L13.9 3.5 Q11.3 3.5 9.55 5.05 7.65 6.9 7.65 9.55 7.65 11.95 9.55 13.8 11.3 15.65 13.9 15.65 L19.1 15.65 Q21.7 15.65 23.65 13.8 25.4 11.95 25.4 9.55 25.4 6.9 23.65 5.05" fill="url(#gradient16)" fill-rule="evenodd" stroke="none"/>
    </g>
    <radialGradient cx="0" cy="0" gradientTransform="matrix(0.0199, 0.0, 0.0, 0.016, 16.1, 10.4)" gradientUnits="userSpaceOnUse" id="gradient15" r="819.2" spreadMethod="pad">
      <stop offset="0.4980392156862745" stop-color="#999999"/>
      <stop offset="0.5803921568627451" stop-color="#c0c0c0"/>
      <stop offset="0.596078431372549" stop-color="#c0c0c0"/>
      <stop offset="0.8666666666666667" stop-color="#4f4f4f"/>
    </radialGradient>
    <radialGradient cx="0" cy="0" gradientTransform="matrix(0.0258, 0.0, 0.0, 0.0212, 16.35, 9.8)" gradientUnits="userSpaceOnUse" id="gradient16" r="819.2" spreadMethod="pad">
      <stop offset="0.4627450980392157" stop-color="#ffffff" stop-opacity="0.0"/>
      <stop offset="0.5098039215686274" stop-color="#ffffff" stop-opacity="0.34901962"/>
      <stop offset="0.5333333333333333" stop-color="#ffffff" stop-opacity="0.0"/>
    </radialGradient>
    <g id="shape11" transform="matrix(1.0, 0.0, 0.0, 1.0, -10.15, -1.05)">
      <path d="M12.2 2.7 L10.3 2.45 Q9.7 2.0 11.75 1.55 L16.8 1.05 21.2 1.55 Q23.15 2.0 22.5 2.45 L20.6 2.7 16.4 2.45 12.2 2.7" fill="#ffffff" fill-opacity="0.65882355" fill-rule="evenodd" stroke="none"/>
    </g>
    <g id="sprite9" transform="matrix(1.0, 0.0, 0.0, 1.0, 0.5, 2.85)">
      <clipPath id="clipPath2">
        <path d="M -0.5 -2.85 L 0.35 11.35 L 1.87 11.49 L 3.29 11.59 L 4.59 11.65 L 5.8 11.67 L 6.54 11.66 L 7.23 11.64 L 7.88 11.59 L 8.48 11.53 L 9.03 11.45 L 9.53 11.35 L 9.99 11.23 L 10.4 11.1 L 15.65 15.4 L 14.6 15.76 L 13.64 16.08 L 12.75 16.36 L 11.95 16.59 L 11.23 16.77 L 10.59 16.91 L 10.03 17 L 9.55 17.05 L 4.75 17.3 L 0.9 19.9 L 1.5 29.65 L 38.85 29.95 L 40.55 11.35 L 40.6 11.35 L 41.85 -2.15 L -0.5 -2.85 Z"/>
      </clipPath>
      <g clip-path="url(#clipPath2)">
        <use ffdec:characterId="1548" height="23.1" transform="matrix(1.0, 0.0, 0.0, 1.0, 3.3, -1.55)" width="26.6" xlink:href="#shape12"/>
      </g>
      <use ffdec:characterId="1549" height="1.7" transform="matrix(1.0, 0.0, 0.0, 1.0, 10.15, 1.05)" width="12.5" xlink:href="#shape11"/>
    </g>
    <g id="shape12" transform="matrix(1.0, 0.0, 0.0, 1.0, -3.3, 1.55)">
      <path d="M23.8 10.4 Q23.8 7.95 22.7 6.3 21.7 4.6 20.25 4.55 L13.25 4.55 Q11.7 4.6 10.6 6.3 9.55 7.95 9.55 10.4 9.55 12.75 10.6 14.5 11.7 16.15 13.25 16.2 L20.15 16.2 Q21.65 16.15 22.7 14.5 23.8 12.75 23.8 10.4 M29.15 10.4 Q29.15 14.7 26.85 17.75 24.6 20.75 21.4 20.8 L11.9 20.8 Q10.0 20.8 8.4 19.75 7.3 19.0 6.35 17.75 4.05 14.7 4.05 10.4 4.05 6.1 6.35 3.05 8.65 0.0 11.9 0.0 L21.4 0.0 Q24.6 0.05 26.85 3.05 29.15 6.1 29.15 10.4" fill="url(#gradient17)" fill-rule="evenodd" stroke="none"/>
      <path d="M23.8 10.4 Q23.8 12.75 22.7 14.5 21.65 16.15 20.15 16.2 L13.25 16.2 Q11.7 16.15 10.6 14.5 9.55 12.75 9.55 10.4 9.55 7.95 10.6 6.3 11.7 4.6 13.25 4.55 L20.25 4.55 Q21.7 4.6 22.7 6.3 23.8 7.95 23.8 10.4 M29.15 10.4 Q29.15 14.7 26.85 17.75 24.6 20.75 21.4 20.8 L11.9 20.8 Q10.0 20.8 8.4 19.75 7.3 19.0 6.35 17.75 4.05 14.7 4.05 10.4 4.05 6.1 6.35 3.05 8.65 0.0 11.9 0.0 L21.4 0.0 Q24.6 0.05 26.85 3.05 29.15 6.1 29.15 10.4 Z" ffdec:has-small-stroke="true" ffdec:original-stroke-width="1.5" fill="none" stroke="#515151" stroke-linecap="round" stroke-linejoin="round" stroke-width="1.8692774017251665"/>
      <path d="M12.5 -1.55 L20.2 -1.55 Q23.65 -1.55 26.3 1.9 28.9 5.05 28.9 9.55 L28.9 9.8 Q28.9 14.3 26.3 17.75 23.65 20.9 20.2 20.9 L12.5 20.9 Q9.0 20.9 6.4 17.75 3.8 14.3 3.8 9.8 L3.8 9.55 Q3.8 5.05 6.4 1.9 9.0 -1.55 12.5 -1.55 M23.65 5.05 Q21.7 3.5 19.1 3.5 L13.9 3.5 Q11.3 3.5 9.55 5.05 7.65 6.9 7.65 9.55 7.65 11.95 9.55 13.8 11.3 15.65 13.9 15.65 L19.1 15.65 Q21.7 15.65 23.65 13.8 25.4 11.95 25.4 9.55 25.4 6.9 23.65 5.05" fill="url(#gradient18)" fill-rule="evenodd" stroke="none"/>
    </g>
    <radialGradient cx="0" cy="0" gradientTransform="matrix(0.0199, 0.0, 0.0, 0.016, 16.1, 10.4)" gradientUnits="userSpaceOnUse" id="gradient17" r="819.2" spreadMethod="pad">
      <stop offset="0.4980392156862745" stop-color="#999999"/>
      <stop offset="0.5803921568627451" stop-color="#c0c0c0"/>
      <stop offset="0.596078431372549" stop-color="#c0c0c0"/>
      <stop offset="0.8666666666666667" stop-color="#4f4f4f"/>
    </radialGradient>
    <radialGradient cx="0" cy="0" gradientTransform="matrix(0.0258, 0.0, 0.0, 0.0212, 16.35, 9.8)" gradientUnits="userSpaceOnUse" id="gradient18" r="819.2" spreadMethod="pad">
      <stop offset="0.4627450980392157" stop-color="#ffffff" stop-opacity="0.0"/>
      <stop offset="0.5098039215686274" stop-color="#ffffff" stop-opacity="0.34901962"/>
      <stop offset="0.5333333333333333" stop-color="#ffffff" stop-opacity="0.0"/>
    </radialGradient>
  </defs>
</svg>
