<?xml version="1.0" encoding="UTF-8" standalone="no"?>
<svg xmlns:ffdec="https://www.free-decompiler.com/flash" xmlns:xlink="http://www.w3.org/1999/xlink" ffdec:objectType="frame" height="156.1px" width="163.95px" xmlns="http://www.w3.org/2000/svg">
  <g transform="matrix(1.0, 0.0, 0.0, 1.0, 1.1, 0.0)">
    <filter id="filter0">
      <feColorMatrix in="SourceGraphic" result="filterResult0" type="matrix" values="-0.5785902 0.9937142 0.5848759 0.0 0.0 0.4686218 0.53360665 -0.0022284836 0.0 0.0 0.017748892 1.6869918 -0.7047409 0.0 0.0 0.0 0.0 0.0 1.0 0.0"/>
    </filter>
    <use ffdec:characterId="704" filter="url(#filter0)" height="120.7" transform="matrix(1.2462, 0.0, 0.0, 1.2462, 3.9412, -0.0245)" width="120.7" xlink:href="#sprite0"/>
    <use ffdec:characterId="724" height="173.25" transform="matrix(0.7782, -0.095, 0.095, 0.7782, -1.0942, 21.2821)" width="189.5" xlink:href="#sprite18"/>
  </g>
  <defs>
    <g id="sprite0" transform="matrix(1.0, 0.0, 0.0, 1.0, -140.5, -52.5)">
      <use ffdec:characterId="702" height="120.7" transform="matrix(1.0, 0.0, 0.0, 1.0, 140.5, 52.5)" width="120.7" xlink:href="#shape0"/>
      <use ffdec:characterId="703" height="13.5" transform="matrix(1.0, 0.0, 0.0, 1.0, 154.15, 66.05)" width="13.5" xlink:href="#sprite1"/>
      <use ffdec:characterId="703" height="13.5" transform="matrix(1.0, 0.0, 0.0, 1.0, 194.15, 66.05)" width="13.5" xlink:href="#sprite1"/>
      <use ffdec:characterId="703" height="13.5" transform="matrix(1.0, 0.0, 0.0, 1.0, 154.15, 106.05)" width="13.5" xlink:href="#sprite1"/>
      <use ffdec:characterId="703" height="13.5" transform="matrix(1.0, 0.0, 0.0, 1.0, 194.15, 106.05)" width="13.5" xlink:href="#sprite1"/>
      <use ffdec:characterId="703" height="13.5" transform="matrix(1.0, 0.0, 0.0, 1.0, 154.15, 146.15)" width="13.5" xlink:href="#sprite1"/>
      <use ffdec:characterId="703" height="13.5" transform="matrix(1.0, 0.0, 0.0, 1.0, 194.15, 146.15)" width="13.5" xlink:href="#sprite1"/>
      <use ffdec:characterId="703" height="13.5" transform="matrix(1.0, 0.0, 0.0, 1.0, 234.25, 66.05)" width="13.5" xlink:href="#sprite1"/>
      <use ffdec:characterId="703" height="13.5" transform="matrix(1.0, 0.0, 0.0, 1.0, 234.25, 106.05)" width="13.5" xlink:href="#sprite1"/>
      <use ffdec:characterId="703" height="13.5" transform="matrix(1.0, 0.0, 0.0, 1.0, 234.25, 146.15)" width="13.5" xlink:href="#sprite1"/>
      <use ffdec:characterId="703" height="13.5" transform="matrix(0.6825, 0.0, 0.0, 0.6825, 176.2016, 67.9016)" width="13.5" xlink:href="#sprite2"/>
      <use ffdec:characterId="703" height="13.5" transform="matrix(0.6825, 0.0, 0.0, 0.6825, 216.0516, 67.9516)" width="13.5" xlink:href="#sprite3"/>
      <use ffdec:characterId="703" height="13.5" transform="matrix(0.6825, 0.0, 0.0, 0.6825, 176.0516, 148.0516)" width="13.5" xlink:href="#sprite4"/>
      <use ffdec:characterId="703" height="13.5" transform="matrix(0.6825, 0.0, 0.0, 0.6825, 216.1016, 147.8016)" width="13.5" xlink:href="#sprite5"/>
      <use ffdec:characterId="703" height="13.5" transform="matrix(0.6825, 0.0, 0.0, 0.6825, 176.2516, 108.0516)" width="13.5" xlink:href="#sprite6"/>
      <use ffdec:characterId="703" height="13.5" transform="matrix(0.6825, 0.0, 0.0, 0.6825, 216.5516, 108.0516)" width="13.5" xlink:href="#sprite7"/>
      <use ffdec:characterId="703" height="13.5" transform="matrix(0.6825, 0.0, 0.0, 0.6825, 216.5516, 88.0516)" width="13.5" xlink:href="#sprite8"/>
      <use ffdec:characterId="703" height="13.5" transform="matrix(0.6825, 0.0, 0.0, 0.6825, 196.5516, 88.0516)" width="13.5" xlink:href="#sprite9"/>
      <use ffdec:characterId="703" height="13.5" transform="matrix(0.6825, 0.0, 0.0, 0.6825, 176.3516, 88.0516)" width="13.5" xlink:href="#sprite10"/>
      <use ffdec:characterId="703" height="13.5" transform="matrix(0.6825, 0.0, 0.0, 0.6825, 236.3516, 88.0516)" width="13.5" xlink:href="#sprite11"/>
      <use ffdec:characterId="703" height="13.5" transform="matrix(0.6825, 0.0, 0.0, 0.6825, 176.4516, 128.2016)" width="13.5" xlink:href="#sprite12"/>
      <use ffdec:characterId="703" height="13.5" transform="matrix(0.6825, 0.0, 0.0, 0.6825, 156.3516, 128.2016)" width="13.5" xlink:href="#sprite13"/>
      <use ffdec:characterId="703" height="13.5" transform="matrix(0.6825, 0.0, 0.0, 0.6825, 216.3516, 128.2016)" width="13.5" xlink:href="#sprite14"/>
      <use ffdec:characterId="703" height="13.5" transform="matrix(0.6825, 0.0, 0.0, 0.6825, 196.2516, 128.2016)" width="13.5" xlink:href="#sprite15"/>
      <use ffdec:characterId="703" height="13.5" transform="matrix(0.6825, 0.0, 0.0, 0.6825, 236.2016, 128.2016)" width="13.5" xlink:href="#sprite16"/>
      <use ffdec:characterId="703" height="13.5" transform="matrix(0.6825, 0.0, 0.0, 0.6825, 156.2516, 88.0516)" width="13.5" xlink:href="#sprite17"/>
    </g>
    <g id="shape0" transform="matrix(1.0, 0.0, 0.0, 1.0, -140.5, -52.5)">
      <path d="M218.8 94.85 L202.85 94.85 202.85 110.8 218.8 110.8 218.8 94.85 M218.8 75.0 L202.85 75.0 202.85 90.95 218.8 90.95 218.8 75.0 M202.75 71.0 L218.7 71.0 218.7 55.05 202.75 55.05 202.75 71.0 M238.65 71.0 L238.65 55.05 222.7 55.05 222.7 71.0 238.65 71.0 M198.85 94.85 L182.9 94.85 182.9 110.8 198.85 110.8 198.85 94.85 M198.85 90.95 L198.85 75.0 182.9 75.0 182.9 90.95 198.85 90.95 M178.95 94.85 L163.0 94.85 163.0 110.8 178.95 110.8 178.95 94.85 M178.95 75.0 L163.0 75.0 163.0 90.95 178.95 90.95 178.95 75.0 M162.9 71.0 L178.85 71.0 178.85 55.05 162.9 55.05 162.9 71.0 M198.75 71.0 L198.75 55.05 182.8 55.05 182.8 71.0 198.75 71.0 M258.7 90.95 L258.7 75.0 242.75 75.0 242.75 90.95 258.7 90.95 M258.6 71.0 L258.6 55.05 242.65 55.05 242.65 71.0 258.6 71.0 M260.6 73.0 L260.7 73.0 260.7 112.8 161.0 112.8 161.0 112.85 260.65 112.85 260.65 132.8 260.75 132.8 260.75 172.6 161.05 172.6 161.05 172.65 141.1 172.65 141.1 132.85 141.0 132.85 141.0 112.9 160.95 112.9 160.95 112.85 141.05 112.85 141.05 73.05 140.95 73.05 140.95 53.1 160.9 53.1 160.9 53.05 180.7 53.05 180.55 53.2 180.55 53.35 180.8 53.1 180.8 53.05 260.6 53.05 260.6 73.0 M240.75 92.95 L238.75 90.95 238.75 75.0 222.8 75.0 222.8 90.95 238.65 90.95 240.65 92.95 240.75 92.95 M143.1 170.65 L159.05 170.65 159.05 154.7 143.1 154.7 143.1 170.65 M161.05 132.85 L161.05 132.8 160.95 132.8 160.95 132.85 161.05 132.85 M159.05 134.85 L143.1 134.85 143.1 150.8 159.05 150.8 159.05 134.85 M158.95 114.9 L143.0 114.9 143.0 130.85 158.95 130.85 158.95 114.9 M159.0 94.9 L143.05 94.9 143.05 110.85 159.0 110.85 159.0 94.9 M159.0 91.0 L159.0 75.05 143.05 75.05 143.05 91.0 159.0 91.0 M142.95 55.1 L142.95 71.05 158.9 71.05 158.9 55.1 142.95 55.1 M161.0 73.0 L160.9 73.0 160.9 73.05 161.0 73.05 161.0 73.0 M242.75 94.85 L242.75 110.8 258.7 110.8 258.7 94.85 242.75 94.85 M242.8 134.8 L242.8 150.75 258.75 150.75 258.75 134.8 242.8 134.8 M202.9 154.65 L202.9 170.6 218.85 170.6 218.85 154.65 202.9 154.65 M238.8 154.65 L222.85 154.65 222.85 170.6 238.8 170.6 238.8 154.65 M242.8 154.65 L242.8 170.6 258.75 170.6 258.75 154.65 242.8 154.65 M163.05 154.65 L163.05 170.6 179.0 170.6 179.0 154.65 163.05 154.65 M198.9 154.65 L182.95 154.65 182.95 170.6 198.9 170.6 198.9 154.65 M198.9 134.8 L182.95 134.8 182.95 150.75 198.9 150.75 198.9 134.8 M179.0 134.8 L163.05 134.8 163.05 150.75 179.0 150.75 179.0 134.8 M178.9 114.85 L162.95 114.85 162.95 130.8 178.9 130.8 178.9 114.85 M198.8 114.85 L182.85 114.85 182.85 130.8 198.8 130.8 198.8 114.85 M242.7 114.85 L242.7 130.8 258.65 130.8 258.65 114.85 242.7 114.85 M238.8 134.8 L222.85 134.8 222.85 150.75 238.8 150.75 238.8 134.8 M218.85 134.8 L202.9 134.8 202.9 150.75 218.85 150.75 218.85 134.8 M218.75 114.85 L202.8 114.85 202.8 130.8 218.75 130.8 218.75 114.85 M238.7 114.85 L222.75 114.85 222.75 130.8 238.7 130.8 238.7 114.85 M238.75 94.85 L222.8 94.85 222.8 110.8 238.75 110.8 238.75 94.85" fill="url(#gradient0)" fill-rule="evenodd" stroke="none"/>
      <path d="M141.0 172.7 L160.6 172.7 160.6 153.1 141.0 153.1 141.0 172.7 M160.6 133.1 L141.0 133.1 141.0 152.6 160.6 152.6 160.6 133.1 M160.6 132.6 L160.6 113.1 141.0 113.1 141.0 132.6 160.6 132.6 M160.6 93.1 L141.0 93.1 141.0 112.6 160.6 112.6 160.6 93.1 M141.0 92.6 L160.6 92.6 160.6 73.0 141.0 73.0 141.0 92.6 M160.6 72.5 L160.6 53.0 141.0 53.0 141.0 72.5 160.6 72.5 M180.6 112.6 L180.6 93.1 161.1 93.1 161.1 112.6 180.6 112.6 M260.7 93.1 L241.2 93.1 241.2 112.6 260.7 112.6 260.7 93.1 M180.6 152.6 L180.6 133.1 161.1 133.1 161.1 152.6 180.6 152.6 M241.2 133.1 L241.2 152.6 260.7 152.6 260.7 133.1 241.2 133.1 M201.1 152.6 L220.6 152.6 220.6 133.1 201.1 133.1 201.1 152.6 M241.2 153.1 L241.2 172.7 260.7 172.7 260.7 153.1 241.2 153.1 M240.7 153.1 L221.1 153.1 221.1 172.7 240.7 172.7 240.7 153.1 M201.1 153.1 L201.1 172.7 220.6 172.7 220.6 153.1 201.1 153.1 M180.6 172.7 L180.6 153.1 161.1 153.1 161.1 172.7 180.6 172.7 M200.6 153.1 L181.1 153.1 181.1 172.7 200.6 172.7 200.6 153.1 M180.6 132.6 L180.6 113.1 161.1 113.1 161.1 132.6 180.6 132.6 M200.6 133.1 L181.1 133.1 181.1 152.6 200.6 152.6 200.6 133.1 M200.6 113.1 L181.1 113.1 181.1 132.6 200.6 132.6 200.6 113.1 M241.2 113.1 L241.2 132.6 260.7 132.6 260.7 113.1 241.2 113.1 M220.6 132.6 L220.6 113.1 201.1 113.1 201.1 132.6 220.6 132.6 M240.7 133.1 L221.1 133.1 221.1 152.6 240.7 152.6 240.7 133.1 M240.7 113.1 L221.1 113.1 221.1 132.6 240.7 132.6 240.7 113.1 M220.6 93.1 L201.1 93.1 201.1 112.6 220.6 112.6 220.6 93.1 M240.7 93.1 L221.1 93.1 221.1 112.6 240.7 112.6 240.7 93.1 M221.1 73.0 L221.1 92.6 240.7 92.6 240.7 73.0 221.1 73.0 M240.7 72.5 L240.7 53.0 221.1 53.0 221.1 72.5 240.7 72.5 M201.1 73.0 L201.1 92.6 220.6 92.6 220.6 73.0 201.1 73.0 M200.6 93.1 L181.1 93.1 181.1 112.6 200.6 112.6 200.6 93.1 M180.6 92.6 L180.6 73.0 161.1 73.0 161.1 92.6 180.6 92.6 M181.1 73.0 L181.1 92.6 200.6 92.6 200.6 73.0 181.1 73.0 M180.6 72.5 L180.6 53.0 161.1 53.0 161.1 72.5 180.6 72.5 M200.6 72.5 L200.6 53.0 181.1 53.0 181.1 72.5 200.6 72.5 M201.1 53.0 L201.1 72.5 220.6 72.5 220.6 53.0 201.1 53.0 M260.95 52.5 L261.15 52.6 261.2 52.75 261.2 172.95 261.15 173.15 260.95 173.2 140.75 173.2 140.6 173.15 140.5 172.95 140.5 52.75 140.6 52.6 Q140.65 52.5 140.75 52.5 L260.95 52.5 M260.7 72.5 L260.7 53.0 241.2 53.0 241.2 72.5 260.7 72.5 M260.7 92.6 L260.7 73.0 241.2 73.0 241.2 92.6 260.7 92.6" fill="url(#gradient1)" fill-rule="evenodd" stroke="none"/>
    </g>
    <radialGradient cx="0" cy="0" gradientTransform="matrix(0.0719, 0.0, 0.0, 0.0719, 200.75, 112.4)" gradientUnits="userSpaceOnUse" id="gradient0" r="819.2" spreadMethod="pad">
      <stop offset="0.0" stop-color="#0067db"/>
      <stop offset="1.0" stop-color="#0067db" stop-opacity="0.0"/>
    </radialGradient>
    <radialGradient cx="0" cy="0" gradientTransform="matrix(0.073, 0.0, 0.0, 0.073, 200.85, 112.85)" gradientUnits="userSpaceOnUse" id="gradient1" r="819.2" spreadMethod="pad">
      <stop offset="0.0" stop-color="#33c0ff"/>
      <stop offset="1.0" stop-color="#33c0ff" stop-opacity="0.0"/>
    </radialGradient>
    <g id="sprite1" transform="matrix(1.0, 0.0, 0.0, 1.0, 4.1, 4.1)">
      <use ffdec:characterId="381" height="13.5" transform="matrix(1.0, 0.0, 0.0, 1.0, -4.1, -4.1)" width="13.5" xlink:href="#shape1"/>
    </g>
    <g id="shape1" transform="matrix(1.0, 0.0, 0.0, 1.0, 4.1, 4.1)">
      <path d="M2.6 2.7 L8.9 2.7" fill="none" stroke="url(#gradient2)" stroke-linecap="round" stroke-linejoin="round" stroke-width="1.0"/>
      <path d="M2.6 2.7 L2.6 8.9 M2.6 -3.6 L2.6 2.7 -3.6 2.7" fill="none" stroke="url(#gradient3)" stroke-linecap="round" stroke-linejoin="round" stroke-width="1.0"/>
    </g>
    <radialGradient cx="0" cy="0" fx="3.2" fy="0" gradientTransform="matrix(0.0082, 0.0, 0.0, 0.0082, 2.65, 2.65)" gradientUnits="userSpaceOnUse" id="gradient2" r="819.2" spreadMethod="pad">
      <stop offset="0.0" stop-color="#72e2ff"/>
      <stop offset="1.0" stop-color="#72e2ff" stop-opacity="0.0"/>
    </radialGradient>
    <radialGradient cx="0" cy="0" fx="3.2" fy="0" gradientTransform="matrix(0.0082, 0.0, 0.0, 0.0082, 2.65, 2.65)" gradientUnits="userSpaceOnUse" id="gradient3" r="819.2" spreadMethod="pad">
      <stop offset="0.0" stop-color="#72e2ff"/>
      <stop offset="1.0" stop-color="#72e2ff" stop-opacity="0.0"/>
    </radialGradient>
    <g id="sprite2" transform="matrix(1.0, 0.0, 0.0, 1.0, 4.1, 4.1)">
      <use ffdec:characterId="381" height="13.5" transform="matrix(1.0, 0.0, 0.0, 1.0, -4.1, -4.1)" width="13.5" xlink:href="#shape2"/>
    </g>
    <g id="shape2" transform="matrix(1.0, 0.0, 0.0, 1.0, 4.1, 4.1)">
      <path d="M2.6 2.7 L8.9 2.7" ffdec:has-small-stroke="true" ffdec:original-stroke-width="1.0" fill="none" stroke="url(#gradient4)" stroke-linecap="round" stroke-linejoin="round" stroke-width="1.1756644353939654"/>
      <path d="M2.6 2.7 L2.6 8.9 M2.6 -3.6 L2.6 2.7 -3.6 2.7" ffdec:has-small-stroke="true" ffdec:original-stroke-width="1.0" fill="none" stroke="url(#gradient5)" stroke-linecap="round" stroke-linejoin="round" stroke-width="1.1756644353939654"/>
    </g>
    <radialGradient cx="0" cy="0" fx="3.2" fy="0" gradientTransform="matrix(0.0082, 0.0, 0.0, 0.0082, 2.65, 2.65)" gradientUnits="userSpaceOnUse" id="gradient4" r="819.2" spreadMethod="pad">
      <stop offset="0.0" stop-color="#72e2ff"/>
      <stop offset="1.0" stop-color="#72e2ff" stop-opacity="0.0"/>
    </radialGradient>
    <radialGradient cx="0" cy="0" fx="3.2" fy="0" gradientTransform="matrix(0.0082, 0.0, 0.0, 0.0082, 2.65, 2.65)" gradientUnits="userSpaceOnUse" id="gradient5" r="819.2" spreadMethod="pad">
      <stop offset="0.0" stop-color="#72e2ff"/>
      <stop offset="1.0" stop-color="#72e2ff" stop-opacity="0.0"/>
    </radialGradient>
    <g id="sprite3" transform="matrix(1.0, 0.0, 0.0, 1.0, 4.1, 4.1)">
      <use ffdec:characterId="381" height="13.5" transform="matrix(1.0, 0.0, 0.0, 1.0, -4.1, -4.1)" width="13.5" xlink:href="#shape3"/>
    </g>
    <g id="shape3" transform="matrix(1.0, 0.0, 0.0, 1.0, 4.1, 4.1)">
      <path d="M2.6 2.7 L8.9 2.7" ffdec:has-small-stroke="true" ffdec:original-stroke-width="1.0" fill="none" stroke="url(#gradient6)" stroke-linecap="round" stroke-linejoin="round" stroke-width="1.1756644353939654"/>
      <path d="M2.6 2.7 L2.6 8.9 M2.6 -3.6 L2.6 2.7 -3.6 2.7" ffdec:has-small-stroke="true" ffdec:original-stroke-width="1.0" fill="none" stroke="url(#gradient7)" stroke-linecap="round" stroke-linejoin="round" stroke-width="1.1756644353939654"/>
    </g>
    <radialGradient cx="0" cy="0" fx="3.2" fy="0" gradientTransform="matrix(0.0082, 0.0, 0.0, 0.0082, 2.65, 2.65)" gradientUnits="userSpaceOnUse" id="gradient6" r="819.2" spreadMethod="pad">
      <stop offset="0.0" stop-color="#72e2ff"/>
      <stop offset="1.0" stop-color="#72e2ff" stop-opacity="0.0"/>
    </radialGradient>
    <radialGradient cx="0" cy="0" fx="3.2" fy="0" gradientTransform="matrix(0.0082, 0.0, 0.0, 0.0082, 2.65, 2.65)" gradientUnits="userSpaceOnUse" id="gradient7" r="819.2" spreadMethod="pad">
      <stop offset="0.0" stop-color="#72e2ff"/>
      <stop offset="1.0" stop-color="#72e2ff" stop-opacity="0.0"/>
    </radialGradient>
    <g id="sprite4" transform="matrix(1.0, 0.0, 0.0, 1.0, 4.1, 4.1)">
      <use ffdec:characterId="381" height="13.5" transform="matrix(1.0, 0.0, 0.0, 1.0, -4.1, -4.1)" width="13.5" xlink:href="#shape4"/>
    </g>
    <g id="shape4" transform="matrix(1.0, 0.0, 0.0, 1.0, 4.1, 4.1)">
      <path d="M2.6 2.7 L8.9 2.7" ffdec:has-small-stroke="true" ffdec:original-stroke-width="1.0" fill="none" stroke="url(#gradient8)" stroke-linecap="round" stroke-linejoin="round" stroke-width="1.1756644353939654"/>
      <path d="M2.6 2.7 L2.6 8.9 M2.6 -3.6 L2.6 2.7 -3.6 2.7" ffdec:has-small-stroke="true" ffdec:original-stroke-width="1.0" fill="none" stroke="url(#gradient9)" stroke-linecap="round" stroke-linejoin="round" stroke-width="1.1756644353939654"/>
    </g>
    <radialGradient cx="0" cy="0" fx="3.2" fy="0" gradientTransform="matrix(0.0082, 0.0, 0.0, 0.0082, 2.65, 2.65)" gradientUnits="userSpaceOnUse" id="gradient8" r="819.2" spreadMethod="pad">
      <stop offset="0.0" stop-color="#72e2ff"/>
      <stop offset="1.0" stop-color="#72e2ff" stop-opacity="0.0"/>
    </radialGradient>
    <radialGradient cx="0" cy="0" fx="3.2" fy="0" gradientTransform="matrix(0.0082, 0.0, 0.0, 0.0082, 2.65, 2.65)" gradientUnits="userSpaceOnUse" id="gradient9" r="819.2" spreadMethod="pad">
      <stop offset="0.0" stop-color="#72e2ff"/>
      <stop offset="1.0" stop-color="#72e2ff" stop-opacity="0.0"/>
    </radialGradient>
    <g id="sprite5" transform="matrix(1.0, 0.0, 0.0, 1.0, 4.1, 4.1)">
      <use ffdec:characterId="381" height="13.5" transform="matrix(1.0, 0.0, 0.0, 1.0, -4.1, -4.1)" width="13.5" xlink:href="#shape5"/>
    </g>
    <g id="shape5" transform="matrix(1.0, 0.0, 0.0, 1.0, 4.1, 4.1)">
      <path d="M2.6 2.7 L8.9 2.7" ffdec:has-small-stroke="true" ffdec:original-stroke-width="1.0" fill="none" stroke="url(#gradient10)" stroke-linecap="round" stroke-linejoin="round" stroke-width="1.1756644353939654"/>
      <path d="M2.6 2.7 L2.6 8.9 M2.6 -3.6 L2.6 2.7 -3.6 2.7" ffdec:has-small-stroke="true" ffdec:original-stroke-width="1.0" fill="none" stroke="url(#gradient11)" stroke-linecap="round" stroke-linejoin="round" stroke-width="1.1756644353939654"/>
    </g>
    <radialGradient cx="0" cy="0" fx="3.2" fy="0" gradientTransform="matrix(0.0082, 0.0, 0.0, 0.0082, 2.65, 2.65)" gradientUnits="userSpaceOnUse" id="gradient10" r="819.2" spreadMethod="pad">
      <stop offset="0.0" stop-color="#72e2ff"/>
      <stop offset="1.0" stop-color="#72e2ff" stop-opacity="0.0"/>
    </radialGradient>
    <radialGradient cx="0" cy="0" fx="3.2" fy="0" gradientTransform="matrix(0.0082, 0.0, 0.0, 0.0082, 2.65, 2.65)" gradientUnits="userSpaceOnUse" id="gradient11" r="819.2" spreadMethod="pad">
      <stop offset="0.0" stop-color="#72e2ff"/>
      <stop offset="1.0" stop-color="#72e2ff" stop-opacity="0.0"/>
    </radialGradient>
    <g id="sprite6" transform="matrix(1.0, 0.0, 0.0, 1.0, 4.1, 4.1)">
      <use ffdec:characterId="381" height="13.5" transform="matrix(1.0, 0.0, 0.0, 1.0, -4.1, -4.1)" width="13.5" xlink:href="#shape6"/>
    </g>
    <g id="shape6" transform="matrix(1.0, 0.0, 0.0, 1.0, 4.1, 4.1)">
      <path d="M2.6 2.7 L8.9 2.7" ffdec:has-small-stroke="true" ffdec:original-stroke-width="1.0" fill="none" stroke="url(#gradient12)" stroke-linecap="round" stroke-linejoin="round" stroke-width="1.1756644353939654"/>
      <path d="M2.6 2.7 L2.6 8.9 M2.6 -3.6 L2.6 2.7 -3.6 2.7" ffdec:has-small-stroke="true" ffdec:original-stroke-width="1.0" fill="none" stroke="url(#gradient13)" stroke-linecap="round" stroke-linejoin="round" stroke-width="1.1756644353939654"/>
    </g>
    <radialGradient cx="0" cy="0" fx="3.2" fy="0" gradientTransform="matrix(0.0082, 0.0, 0.0, 0.0082, 2.65, 2.65)" gradientUnits="userSpaceOnUse" id="gradient12" r="819.2" spreadMethod="pad">
      <stop offset="0.0" stop-color="#72e2ff"/>
      <stop offset="1.0" stop-color="#72e2ff" stop-opacity="0.0"/>
    </radialGradient>
    <radialGradient cx="0" cy="0" fx="3.2" fy="0" gradientTransform="matrix(0.0082, 0.0, 0.0, 0.0082, 2.65, 2.65)" gradientUnits="userSpaceOnUse" id="gradient13" r="819.2" spreadMethod="pad">
      <stop offset="0.0" stop-color="#72e2ff"/>
      <stop offset="1.0" stop-color="#72e2ff" stop-opacity="0.0"/>
    </radialGradient>
    <g id="sprite7" transform="matrix(1.0, 0.0, 0.0, 1.0, 4.1, 4.1)">
      <use ffdec:characterId="381" height="13.5" transform="matrix(1.0, 0.0, 0.0, 1.0, -4.1, -4.1)" width="13.5" xlink:href="#shape7"/>
    </g>
    <g id="shape7" transform="matrix(1.0, 0.0, 0.0, 1.0, 4.1, 4.1)">
      <path d="M2.6 2.7 L8.9 2.7" ffdec:has-small-stroke="true" ffdec:original-stroke-width="1.0" fill="none" stroke="url(#gradient14)" stroke-linecap="round" stroke-linejoin="round" stroke-width="1.1756644353939654"/>
      <path d="M2.6 2.7 L2.6 8.9 M2.6 -3.6 L2.6 2.7 -3.6 2.7" ffdec:has-small-stroke="true" ffdec:original-stroke-width="1.0" fill="none" stroke="url(#gradient15)" stroke-linecap="round" stroke-linejoin="round" stroke-width="1.1756644353939654"/>
    </g>
    <radialGradient cx="0" cy="0" fx="3.2" fy="0" gradientTransform="matrix(0.0082, 0.0, 0.0, 0.0082, 2.65, 2.65)" gradientUnits="userSpaceOnUse" id="gradient14" r="819.2" spreadMethod="pad">
      <stop offset="0.0" stop-color="#72e2ff"/>
      <stop offset="1.0" stop-color="#72e2ff" stop-opacity="0.0"/>
    </radialGradient>
    <radialGradient cx="0" cy="0" fx="3.2" fy="0" gradientTransform="matrix(0.0082, 0.0, 0.0, 0.0082, 2.65, 2.65)" gradientUnits="userSpaceOnUse" id="gradient15" r="819.2" spreadMethod="pad">
      <stop offset="0.0" stop-color="#72e2ff"/>
      <stop offset="1.0" stop-color="#72e2ff" stop-opacity="0.0"/>
    </radialGradient>
    <g id="sprite8" transform="matrix(1.0, 0.0, 0.0, 1.0, 4.1, 4.1)">
      <use ffdec:characterId="381" height="13.5" transform="matrix(1.0, 0.0, 0.0, 1.0, -4.1, -4.1)" width="13.5" xlink:href="#shape8"/>
    </g>
    <g id="shape8" transform="matrix(1.0, 0.0, 0.0, 1.0, 4.1, 4.1)">
      <path d="M2.6 2.7 L8.9 2.7" ffdec:has-small-stroke="true" ffdec:original-stroke-width="1.0" fill="none" stroke="url(#gradient16)" stroke-linecap="round" stroke-linejoin="round" stroke-width="1.1756644353939654"/>
      <path d="M2.6 2.7 L2.6 8.9 M2.6 -3.6 L2.6 2.7 -3.6 2.7" ffdec:has-small-stroke="true" ffdec:original-stroke-width="1.0" fill="none" stroke="url(#gradient17)" stroke-linecap="round" stroke-linejoin="round" stroke-width="1.1756644353939654"/>
    </g>
    <radialGradient cx="0" cy="0" fx="3.2" fy="0" gradientTransform="matrix(0.0082, 0.0, 0.0, 0.0082, 2.65, 2.65)" gradientUnits="userSpaceOnUse" id="gradient16" r="819.2" spreadMethod="pad">
      <stop offset="0.0" stop-color="#72e2ff"/>
      <stop offset="1.0" stop-color="#72e2ff" stop-opacity="0.0"/>
    </radialGradient>
    <radialGradient cx="0" cy="0" fx="3.2" fy="0" gradientTransform="matrix(0.0082, 0.0, 0.0, 0.0082, 2.65, 2.65)" gradientUnits="userSpaceOnUse" id="gradient17" r="819.2" spreadMethod="pad">
      <stop offset="0.0" stop-color="#72e2ff"/>
      <stop offset="1.0" stop-color="#72e2ff" stop-opacity="0.0"/>
    </radialGradient>
    <g id="sprite9" transform="matrix(1.0, 0.0, 0.0, 1.0, 4.1, 4.1)">
      <use ffdec:characterId="381" height="13.5" transform="matrix(1.0, 0.0, 0.0, 1.0, -4.1, -4.1)" width="13.5" xlink:href="#shape9"/>
    </g>
    <g id="shape9" transform="matrix(1.0, 0.0, 0.0, 1.0, 4.1, 4.1)">
      <path d="M2.6 2.7 L8.9 2.7" ffdec:has-small-stroke="true" ffdec:original-stroke-width="1.0" fill="none" stroke="url(#gradient18)" stroke-linecap="round" stroke-linejoin="round" stroke-width="1.1756644353939654"/>
      <path d="M2.6 2.7 L2.6 8.9 M2.6 -3.6 L2.6 2.7 -3.6 2.7" ffdec:has-small-stroke="true" ffdec:original-stroke-width="1.0" fill="none" stroke="url(#gradient19)" stroke-linecap="round" stroke-linejoin="round" stroke-width="1.1756644353939654"/>
    </g>
    <radialGradient cx="0" cy="0" fx="3.2" fy="0" gradientTransform="matrix(0.0082, 0.0, 0.0, 0.0082, 2.65, 2.65)" gradientUnits="userSpaceOnUse" id="gradient18" r="819.2" spreadMethod="pad">
      <stop offset="0.0" stop-color="#72e2ff"/>
      <stop offset="1.0" stop-color="#72e2ff" stop-opacity="0.0"/>
    </radialGradient>
    <radialGradient cx="0" cy="0" fx="3.2" fy="0" gradientTransform="matrix(0.0082, 0.0, 0.0, 0.0082, 2.65, 2.65)" gradientUnits="userSpaceOnUse" id="gradient19" r="819.2" spreadMethod="pad">
      <stop offset="0.0" stop-color="#72e2ff"/>
      <stop offset="1.0" stop-color="#72e2ff" stop-opacity="0.0"/>
    </radialGradient>
    <g id="sprite10" transform="matrix(1.0, 0.0, 0.0, 1.0, 4.1, 4.1)">
      <use ffdec:characterId="381" height="13.5" transform="matrix(1.0, 0.0, 0.0, 1.0, -4.1, -4.1)" width="13.5" xlink:href="#shape10"/>
    </g>
    <g id="shape10" transform="matrix(1.0, 0.0, 0.0, 1.0, 4.1, 4.1)">
      <path d="M2.6 2.7 L8.9 2.7" ffdec:has-small-stroke="true" ffdec:original-stroke-width="1.0" fill="none" stroke="url(#gradient20)" stroke-linecap="round" stroke-linejoin="round" stroke-width="1.1756644353939654"/>
      <path d="M2.6 2.7 L2.6 8.9 M2.6 -3.6 L2.6 2.7 -3.6 2.7" ffdec:has-small-stroke="true" ffdec:original-stroke-width="1.0" fill="none" stroke="url(#gradient21)" stroke-linecap="round" stroke-linejoin="round" stroke-width="1.1756644353939654"/>
    </g>
    <radialGradient cx="0" cy="0" fx="3.2" fy="0" gradientTransform="matrix(0.0082, 0.0, 0.0, 0.0082, 2.65, 2.65)" gradientUnits="userSpaceOnUse" id="gradient20" r="819.2" spreadMethod="pad">
      <stop offset="0.0" stop-color="#72e2ff"/>
      <stop offset="1.0" stop-color="#72e2ff" stop-opacity="0.0"/>
    </radialGradient>
    <radialGradient cx="0" cy="0" fx="3.2" fy="0" gradientTransform="matrix(0.0082, 0.0, 0.0, 0.0082, 2.65, 2.65)" gradientUnits="userSpaceOnUse" id="gradient21" r="819.2" spreadMethod="pad">
      <stop offset="0.0" stop-color="#72e2ff"/>
      <stop offset="1.0" stop-color="#72e2ff" stop-opacity="0.0"/>
    </radialGradient>
    <g id="sprite11" transform="matrix(1.0, 0.0, 0.0, 1.0, 4.1, 4.1)">
      <use ffdec:characterId="381" height="13.5" transform="matrix(1.0, 0.0, 0.0, 1.0, -4.1, -4.1)" width="13.5" xlink:href="#shape11"/>
    </g>
    <g id="shape11" transform="matrix(1.0, 0.0, 0.0, 1.0, 4.1, 4.1)">
      <path d="M2.6 2.7 L8.9 2.7" ffdec:has-small-stroke="true" ffdec:original-stroke-width="1.0" fill="none" stroke="url(#gradient22)" stroke-linecap="round" stroke-linejoin="round" stroke-width="1.1756644353939654"/>
      <path d="M2.6 2.7 L2.6 8.9 M2.6 -3.6 L2.6 2.7 -3.6 2.7" ffdec:has-small-stroke="true" ffdec:original-stroke-width="1.0" fill="none" stroke="url(#gradient23)" stroke-linecap="round" stroke-linejoin="round" stroke-width="1.1756644353939654"/>
    </g>
    <radialGradient cx="0" cy="0" fx="3.2" fy="0" gradientTransform="matrix(0.0082, 0.0, 0.0, 0.0082, 2.65, 2.65)" gradientUnits="userSpaceOnUse" id="gradient22" r="819.2" spreadMethod="pad">
      <stop offset="0.0" stop-color="#72e2ff"/>
      <stop offset="1.0" stop-color="#72e2ff" stop-opacity="0.0"/>
    </radialGradient>
    <radialGradient cx="0" cy="0" fx="3.2" fy="0" gradientTransform="matrix(0.0082, 0.0, 0.0, 0.0082, 2.65, 2.65)" gradientUnits="userSpaceOnUse" id="gradient23" r="819.2" spreadMethod="pad">
      <stop offset="0.0" stop-color="#72e2ff"/>
      <stop offset="1.0" stop-color="#72e2ff" stop-opacity="0.0"/>
    </radialGradient>
    <g id="sprite12" transform="matrix(1.0, 0.0, 0.0, 1.0, 4.1, 4.1)">
      <use ffdec:characterId="381" height="13.5" transform="matrix(1.0, 0.0, 0.0, 1.0, -4.1, -4.1)" width="13.5" xlink:href="#shape12"/>
    </g>
    <g id="shape12" transform="matrix(1.0, 0.0, 0.0, 1.0, 4.1, 4.1)">
      <path d="M2.6 2.7 L8.9 2.7" ffdec:has-small-stroke="true" ffdec:original-stroke-width="1.0" fill="none" stroke="url(#gradient24)" stroke-linecap="round" stroke-linejoin="round" stroke-width="1.1756644353939654"/>
      <path d="M2.6 2.7 L2.6 8.9 M2.6 -3.6 L2.6 2.7 -3.6 2.7" ffdec:has-small-stroke="true" ffdec:original-stroke-width="1.0" fill="none" stroke="url(#gradient25)" stroke-linecap="round" stroke-linejoin="round" stroke-width="1.1756644353939654"/>
    </g>
    <radialGradient cx="0" cy="0" fx="3.2" fy="0" gradientTransform="matrix(0.0082, 0.0, 0.0, 0.0082, 2.65, 2.65)" gradientUnits="userSpaceOnUse" id="gradient24" r="819.2" spreadMethod="pad">
      <stop offset="0.0" stop-color="#72e2ff"/>
      <stop offset="1.0" stop-color="#72e2ff" stop-opacity="0.0"/>
    </radialGradient>
    <radialGradient cx="0" cy="0" fx="3.2" fy="0" gradientTransform="matrix(0.0082, 0.0, 0.0, 0.0082, 2.65, 2.65)" gradientUnits="userSpaceOnUse" id="gradient25" r="819.2" spreadMethod="pad">
      <stop offset="0.0" stop-color="#72e2ff"/>
      <stop offset="1.0" stop-color="#72e2ff" stop-opacity="0.0"/>
    </radialGradient>
    <g id="sprite13" transform="matrix(1.0, 0.0, 0.0, 1.0, 4.1, 4.1)">
      <use ffdec:characterId="381" height="13.5" transform="matrix(1.0, 0.0, 0.0, 1.0, -4.1, -4.1)" width="13.5" xlink:href="#shape13"/>
    </g>
    <g id="shape13" transform="matrix(1.0, 0.0, 0.0, 1.0, 4.1, 4.1)">
      <path d="M2.6 2.7 L8.9 2.7" ffdec:has-small-stroke="true" ffdec:original-stroke-width="1.0" fill="none" stroke="url(#gradient26)" stroke-linecap="round" stroke-linejoin="round" stroke-width="1.1756644353939654"/>
      <path d="M2.6 2.7 L2.6 8.9 M2.6 -3.6 L2.6 2.7 -3.6 2.7" ffdec:has-small-stroke="true" ffdec:original-stroke-width="1.0" fill="none" stroke="url(#gradient27)" stroke-linecap="round" stroke-linejoin="round" stroke-width="1.1756644353939654"/>
    </g>
    <radialGradient cx="0" cy="0" fx="3.2" fy="0" gradientTransform="matrix(0.0082, 0.0, 0.0, 0.0082, 2.65, 2.65)" gradientUnits="userSpaceOnUse" id="gradient26" r="819.2" spreadMethod="pad">
      <stop offset="0.0" stop-color="#72e2ff"/>
      <stop offset="1.0" stop-color="#72e2ff" stop-opacity="0.0"/>
    </radialGradient>
    <radialGradient cx="0" cy="0" fx="3.2" fy="0" gradientTransform="matrix(0.0082, 0.0, 0.0, 0.0082, 2.65, 2.65)" gradientUnits="userSpaceOnUse" id="gradient27" r="819.2" spreadMethod="pad">
      <stop offset="0.0" stop-color="#72e2ff"/>
      <stop offset="1.0" stop-color="#72e2ff" stop-opacity="0.0"/>
    </radialGradient>
    <g id="sprite14" transform="matrix(1.0, 0.0, 0.0, 1.0, 4.1, 4.1)">
      <use ffdec:characterId="381" height="13.5" transform="matrix(1.0, 0.0, 0.0, 1.0, -4.1, -4.1)" width="13.5" xlink:href="#shape14"/>
    </g>
    <g id="shape14" transform="matrix(1.0, 0.0, 0.0, 1.0, 4.1, 4.1)">
      <path d="M2.6 2.7 L8.9 2.7" ffdec:has-small-stroke="true" ffdec:original-stroke-width="1.0" fill="none" stroke="url(#gradient28)" stroke-linecap="round" stroke-linejoin="round" stroke-width="1.1756644353939654"/>
      <path d="M2.6 2.7 L2.6 8.9 M2.6 -3.6 L2.6 2.7 -3.6 2.7" ffdec:has-small-stroke="true" ffdec:original-stroke-width="1.0" fill="none" stroke="url(#gradient29)" stroke-linecap="round" stroke-linejoin="round" stroke-width="1.1756644353939654"/>
    </g>
    <radialGradient cx="0" cy="0" fx="3.2" fy="0" gradientTransform="matrix(0.0082, 0.0, 0.0, 0.0082, 2.65, 2.65)" gradientUnits="userSpaceOnUse" id="gradient28" r="819.2" spreadMethod="pad">
      <stop offset="0.0" stop-color="#72e2ff"/>
      <stop offset="1.0" stop-color="#72e2ff" stop-opacity="0.0"/>
    </radialGradient>
    <radialGradient cx="0" cy="0" fx="3.2" fy="0" gradientTransform="matrix(0.0082, 0.0, 0.0, 0.0082, 2.65, 2.65)" gradientUnits="userSpaceOnUse" id="gradient29" r="819.2" spreadMethod="pad">
      <stop offset="0.0" stop-color="#72e2ff"/>
      <stop offset="1.0" stop-color="#72e2ff" stop-opacity="0.0"/>
    </radialGradient>
    <g id="sprite15" transform="matrix(1.0, 0.0, 0.0, 1.0, 4.1, 4.1)">
      <use ffdec:characterId="381" height="13.5" transform="matrix(1.0, 0.0, 0.0, 1.0, -4.1, -4.1)" width="13.5" xlink:href="#shape15"/>
    </g>
    <g id="shape15" transform="matrix(1.0, 0.0, 0.0, 1.0, 4.1, 4.1)">
      <path d="M2.6 2.7 L8.9 2.7" ffdec:has-small-stroke="true" ffdec:original-stroke-width="1.0" fill="none" stroke="url(#gradient30)" stroke-linecap="round" stroke-linejoin="round" stroke-width="1.1756644353939654"/>
      <path d="M2.6 2.7 L2.6 8.9 M2.6 -3.6 L2.6 2.7 -3.6 2.7" ffdec:has-small-stroke="true" ffdec:original-stroke-width="1.0" fill="none" stroke="url(#gradient31)" stroke-linecap="round" stroke-linejoin="round" stroke-width="1.1756644353939654"/>
    </g>
    <radialGradient cx="0" cy="0" fx="3.2" fy="0" gradientTransform="matrix(0.0082, 0.0, 0.0, 0.0082, 2.65, 2.65)" gradientUnits="userSpaceOnUse" id="gradient30" r="819.2" spreadMethod="pad">
      <stop offset="0.0" stop-color="#72e2ff"/>
      <stop offset="1.0" stop-color="#72e2ff" stop-opacity="0.0"/>
    </radialGradient>
    <radialGradient cx="0" cy="0" fx="3.2" fy="0" gradientTransform="matrix(0.0082, 0.0, 0.0, 0.0082, 2.65, 2.65)" gradientUnits="userSpaceOnUse" id="gradient31" r="819.2" spreadMethod="pad">
      <stop offset="0.0" stop-color="#72e2ff"/>
      <stop offset="1.0" stop-color="#72e2ff" stop-opacity="0.0"/>
    </radialGradient>
    <g id="sprite16" transform="matrix(1.0, 0.0, 0.0, 1.0, 4.1, 4.1)">
      <use ffdec:characterId="381" height="13.5" transform="matrix(1.0, 0.0, 0.0, 1.0, -4.1, -4.1)" width="13.5" xlink:href="#shape16"/>
    </g>
    <g id="shape16" transform="matrix(1.0, 0.0, 0.0, 1.0, 4.1, 4.1)">
      <path d="M2.6 2.7 L8.9 2.7" ffdec:has-small-stroke="true" ffdec:original-stroke-width="1.0" fill="none" stroke="url(#gradient32)" stroke-linecap="round" stroke-linejoin="round" stroke-width="1.1756644353939654"/>
      <path d="M2.6 2.7 L2.6 8.9 M2.6 -3.6 L2.6 2.7 -3.6 2.7" ffdec:has-small-stroke="true" ffdec:original-stroke-width="1.0" fill="none" stroke="url(#gradient33)" stroke-linecap="round" stroke-linejoin="round" stroke-width="1.1756644353939654"/>
    </g>
    <radialGradient cx="0" cy="0" fx="3.2" fy="0" gradientTransform="matrix(0.0082, 0.0, 0.0, 0.0082, 2.65, 2.65)" gradientUnits="userSpaceOnUse" id="gradient32" r="819.2" spreadMethod="pad">
      <stop offset="0.0" stop-color="#72e2ff"/>
      <stop offset="1.0" stop-color="#72e2ff" stop-opacity="0.0"/>
    </radialGradient>
    <radialGradient cx="0" cy="0" fx="3.2" fy="0" gradientTransform="matrix(0.0082, 0.0, 0.0, 0.0082, 2.65, 2.65)" gradientUnits="userSpaceOnUse" id="gradient33" r="819.2" spreadMethod="pad">
      <stop offset="0.0" stop-color="#72e2ff"/>
      <stop offset="1.0" stop-color="#72e2ff" stop-opacity="0.0"/>
    </radialGradient>
    <g id="sprite17" transform="matrix(1.0, 0.0, 0.0, 1.0, 4.1, 4.1)">
      <use ffdec:characterId="381" height="13.5" transform="matrix(1.0, 0.0, 0.0, 1.0, -4.1, -4.1)" width="13.5" xlink:href="#shape17"/>
    </g>
    <g id="shape17" transform="matrix(1.0, 0.0, 0.0, 1.0, 4.1, 4.1)">
      <path d="M2.6 2.7 L8.9 2.7" ffdec:has-small-stroke="true" ffdec:original-stroke-width="1.0" fill="none" stroke="url(#gradient34)" stroke-linecap="round" stroke-linejoin="round" stroke-width="1.1756644353939654"/>
      <path d="M2.6 2.7 L2.6 8.9 M2.6 -3.6 L2.6 2.7 -3.6 2.7" ffdec:has-small-stroke="true" ffdec:original-stroke-width="1.0" fill="none" stroke="url(#gradient35)" stroke-linecap="round" stroke-linejoin="round" stroke-width="1.1756644353939654"/>
    </g>
    <radialGradient cx="0" cy="0" fx="3.2" fy="0" gradientTransform="matrix(0.0082, 0.0, 0.0, 0.0082, 2.65, 2.65)" gradientUnits="userSpaceOnUse" id="gradient34" r="819.2" spreadMethod="pad">
      <stop offset="0.0" stop-color="#72e2ff"/>
      <stop offset="1.0" stop-color="#72e2ff" stop-opacity="0.0"/>
    </radialGradient>
    <radialGradient cx="0" cy="0" fx="3.2" fy="0" gradientTransform="matrix(0.0082, 0.0, 0.0, 0.0082, 2.65, 2.65)" gradientUnits="userSpaceOnUse" id="gradient35" r="819.2" spreadMethod="pad">
      <stop offset="0.0" stop-color="#72e2ff"/>
      <stop offset="1.0" stop-color="#72e2ff" stop-opacity="0.0"/>
    </radialGradient>
    <g id="sprite18" transform="matrix(1.0, 0.0, 0.0, 1.0, 96.2, 119.25)">
      <use ffdec:characterId="705" height="14.45" transform="matrix(1.0, 0.0, 0.0, 1.0, -38.2, -95.55)" width="81.2" xlink:href="#shape18"/>
      <use ffdec:characterId="707" height="12.4" transform="matrix(-2.0222, 1.1587, -1.1587, -2.0222, 81.893, -38.8682)" width="22.45" xlink:href="#sprite19"/>
      <use ffdec:characterId="707" height="12.4" transform="matrix(2.2505, -0.5885, 0.5885, 2.2505, -84.1847, -7.0244)" width="22.45" xlink:href="#sprite20"/>
      <use ffdec:characterId="708" height="59.0" transform="matrix(1.5918, 0.0427, -0.0444, 1.6575, -46.4939, -50.2886)" width="59.05" xlink:href="#shape21"/>
      <use ffdec:characterId="709" height="14.7" transform="matrix(1.621, 0.0435, -0.043, 1.6023, -42.1565, -63.8776)" width="19.8" xlink:href="#shape22"/>
      <use ffdec:characterId="709" height="14.7" transform="matrix(-1.621, -0.0435, -0.043, 1.6023, 44.8057, -60.4751)" width="19.8" xlink:href="#shape22"/>
      <use ffdec:characterId="711" height="60.9" transform="matrix(-0.6485, 0.0815, 0.0883, 0.6831, -6.3916, -97.3831)" width="60.9" xlink:href="#sprite21"/>
      <use ffdec:characterId="713" height="21.9" transform="matrix(-0.7175, 0.0902, 0.0917, 0.7093, -9.3294, -81.414)" width="21.9" xlink:href="#sprite22"/>
      <use ffdec:characterId="711" height="60.9" transform="matrix(0.7137, 0.1165, -0.1174, 0.7055, 9.3427, -97.5801)" width="60.9" xlink:href="#sprite21"/>
      <use ffdec:characterId="713" height="21.9" transform="matrix(0.7137, 0.1165, -0.1174, 0.7055, 12.0003, -80.1599)" width="21.9" xlink:href="#sprite22"/>
      <use ffdec:characterId="715" height="59.95" transform="matrix(0.623, 0.0167, -0.0157, 0.5872, -27.0883, -4.7328)" width="85.55" xlink:href="#sprite23"/>
      <use ffdec:characterId="717" height="32.95" transform="matrix(2.0741, -1.0428, -1.0428, -2.0741, 57.68, -41.5001)" width="9.0" xlink:href="#sprite24"/>
      <use ffdec:characterId="717" height="32.95" transform="matrix(-1.1555, 2.0232, 2.0232, 1.1555, -71.8184, -2.268)" width="9.0" xlink:href="#sprite25"/>
      <use ffdec:characterId="718" height="80.9" transform="matrix(-0.546, 0.0018, 0.0018, 0.5314, 50.8369, -118.9684)" width="223.0" xlink:href="#shape28"/>
      <use ffdec:characterId="720" height="23.9" transform="matrix(2.4434, -0.087, 0.087, 2.4434, 33.7848, -82.9782)" width="23.5" xlink:href="#sprite26"/>
      <use ffdec:characterId="722" height="23.9" transform="matrix(-2.4198, -0.3501, -0.3501, 2.4198, -30.9651, -80.0849)" width="23.5" xlink:href="#sprite27"/>
      <use ffdec:characterId="723" height="31.95" transform="matrix(1.0, 0.0, 0.0, 1.0, -44.65, -44.6)" width="87.15" xlink:href="#shape31"/>
    </g>
    <g id="shape18" transform="matrix(1.0, 0.0, 0.0, 1.0, 38.2, 95.55)">
      <path d="M27.15 -82.55 L20.85 -83.2 15.6 -83.85 12.75 -84.05 7.25 -84.3 2.0 -84.6 -5.15 -84.25 -11.1 -83.9 -16.9 -83.6 -22.35 -83.3 -28.85 -82.75 -34.25 -82.25 -36.0 -82.45 Q-37.2 -82.75 -37.2 -83.15 -37.2 -84.5 -35.7 -85.9 -34.45 -87.1 -31.8 -88.6 L-31.2 -89.15 -31.2 -89.2 -30.5 -89.6 -30.3 -89.8 -30.05 -90.0 -28.65 -90.6 -26.7 -91.2 -25.25 -91.5 -23.6 -91.8 -21.1 -92.25 -18.3 -92.7 -9.35 -93.6 5.75 -94.55 Q16.2 -94.55 28.8 -91.55 42.0 -88.4 42.0 -85.35 42.0 -84.1 38.55 -83.05 35.25 -82.1 31.8 -82.1 L29.2 -82.3 27.15 -82.55" fill="#767a8c" fill-rule="evenodd" stroke="none"/>
      <path d="M27.15 -82.55 L29.2 -82.3 31.8 -82.1 Q35.25 -82.1 38.55 -83.05 42.0 -84.1 42.0 -85.35 42.0 -88.4 28.8 -91.55 16.2 -94.55 5.75 -94.55 L-9.35 -93.6 -18.3 -92.7 -21.1 -92.25 -23.6 -91.8 -25.25 -91.5 -26.7 -91.2 -28.65 -90.6 -30.05 -90.0 -30.3 -89.8 -30.5 -89.6 -31.2 -89.2 -31.2 -89.15 -31.8 -88.6 Q-34.45 -87.1 -35.7 -85.9 -37.2 -84.5 -37.2 -83.15 -37.2 -82.75 -36.0 -82.45 L-34.25 -82.25 -28.85 -82.75 -22.35 -83.3 -16.9 -83.6 -11.1 -83.9 -5.15 -84.25 2.0 -84.6 7.25 -84.3 12.75 -84.05 15.6 -83.85 20.85 -83.2 27.15 -82.55 Z" fill="none" stroke="#4e5d72" stroke-linecap="round" stroke-linejoin="round" stroke-width="2.0"/>
    </g>
    <g id="sprite19" transform="matrix(1.0, 0.0, 0.0, 1.0, 0.15, 0.25)">
      <use ffdec:characterId="706" height="12.4" transform="matrix(1.0, 0.0, 0.0, 1.0, -0.15, -0.25)" width="22.45" xlink:href="#shape19"/>
    </g>
    <g id="shape19" transform="matrix(1.0, 0.0, 0.0, 1.0, 0.15, 0.25)">
      <path d="M0.3 9.8 Q6.4 4.45 21.8 0.9 L22.0 1.15 Q22.3 1.8 21.2 2.5 18.55 3.85 14.65 4.85 10.2 6.45 7.15 9.3 L5.4 10.9 Q4.3 11.8 3.3 11.9 L1.8 11.65 0.7 10.6 0.3 9.8" fill="#fe81e6" fill-rule="evenodd" stroke="none"/>
      <path d="M0.3 9.8 L0.1 8.25 Q0.05 6.55 1.4 5.65 L1.5 5.55 Q7.85 1.3 19.55 0.0 L20.9 0.25 21.8 0.9 Q6.4 4.45 0.3 9.8" fill="#feb4f0" fill-rule="evenodd" stroke="none"/>
      <path d="M21.8 0.9 L20.9 0.25 19.55 0.0 Q7.85 1.3 1.5 5.55 L1.4 5.65 Q0.05 6.55 0.1 8.25 L0.3 9.8 0.7 10.6 1.8 11.65 3.3 11.9 Q4.3 11.8 5.4 10.9 L7.15 9.3 Q10.2 6.45 14.65 4.85 18.55 3.85 21.2 2.5 22.3 1.8 22.0 1.15 L21.8 0.9 Z" ffdec:has-small-stroke="true" ffdec:original-stroke-width="0.5" fill="none" stroke="#fe81e6" stroke-linecap="round" stroke-linejoin="round" stroke-width="0.5472633499892309"/>
    </g>
    <g id="sprite20" transform="matrix(1.0, 0.0, 0.0, 1.0, 0.15, 0.25)">
      <use ffdec:characterId="706" height="12.4" transform="matrix(1.0, 0.0, 0.0, 1.0, -0.15, -0.25)" width="22.45" xlink:href="#shape20"/>
    </g>
    <g id="shape20" transform="matrix(1.0, 0.0, 0.0, 1.0, 0.15, 0.25)">
      <path d="M0.3 9.8 Q6.4 4.45 21.8 0.9 L22.0 1.15 Q22.3 1.8 21.2 2.5 18.55 3.85 14.65 4.85 10.2 6.45 7.15 9.3 L5.4 10.9 Q4.3 11.8 3.3 11.9 L1.8 11.65 0.7 10.6 0.3 9.8" fill="#fe81e6" fill-rule="evenodd" stroke="none"/>
      <path d="M0.3 9.8 L0.1 8.25 Q0.05 6.55 1.4 5.65 L1.5 5.55 Q7.85 1.3 19.55 0.0 L20.9 0.25 21.8 0.9 Q6.4 4.45 0.3 9.8" fill="#feb4f0" fill-rule="evenodd" stroke="none"/>
      <path d="M21.8 0.9 L20.9 0.25 19.55 0.0 Q7.85 1.3 1.5 5.55 L1.4 5.65 Q0.05 6.55 0.1 8.25 L0.3 9.8 0.7 10.6 1.8 11.65 3.3 11.9 Q4.3 11.8 5.4 10.9 L7.15 9.3 Q10.2 6.45 14.65 4.85 18.55 3.85 21.2 2.5 22.3 1.8 22.0 1.15 L21.8 0.9 Z" ffdec:has-small-stroke="true" ffdec:original-stroke-width="0.5" fill="none" stroke="#fe81e6" stroke-linecap="round" stroke-linejoin="round" stroke-width="0.5483069095421708"/>
    </g>
    <g id="shape21" transform="matrix(1.0, 0.0, 0.0, 1.0, 30.8, 55.85)">
      <path d="M14.15 -1.7 Q7.35 2.65 -1.25 2.65 -13.25 2.65 -21.8 -5.85 -30.3 -14.35 -30.3 -26.35 -30.3 -38.35 -21.8 -46.85 -13.25 -55.35 -1.25 -55.35 7.35 -55.35 14.15 -50.95 16.85 -49.25 19.25 -46.85 27.75 -38.35 27.75 -26.35 27.75 -14.35 19.25 -5.85 16.85 -3.45 14.15 -1.7" fill="#9900cc" fill-rule="evenodd" stroke="none"/>
      <path d="M14.15 -1.7 Q7.35 2.65 -1.25 2.65 -13.25 2.65 -21.8 -5.85 -30.3 -14.35 -30.3 -26.35 -30.3 -38.35 -21.8 -46.85 -13.25 -55.35 -1.25 -55.35 7.35 -55.35 14.15 -50.95 16.85 -49.25 19.25 -46.85 27.75 -38.35 27.75 -26.35 27.75 -14.35 19.25 -5.85 16.85 -3.45 14.15 -1.7 Z" fill="none" stroke="#0d0e6a" stroke-linecap="round" stroke-linejoin="round" stroke-width="1.0"/>
      <path d="M14.15 -9.6 Q6.4 -3.15 -4.0 -3.15 -15.9 -3.15 -24.35 -11.55 -27.15 -14.35 -29.0 -17.5 -30.3 -21.65 -30.3 -26.35 -30.3 -38.35 -21.8 -46.85 -13.25 -55.35 -1.25 -55.35 7.35 -55.35 14.15 -50.95 16.85 -49.25 19.25 -46.85 L22.55 -43.0 Q24.7 -37.9 24.7 -31.85 24.7 -19.95 16.25 -11.55 L14.15 -9.6" fill="#cc33cc" fill-rule="evenodd" stroke="none"/>
      <path d="M14.15 -1.7 Q7.35 2.65 -1.25 2.65 -13.25 2.65 -21.8 -5.85 -30.3 -14.35 -30.3 -26.35 -30.3 -38.35 -21.8 -46.85 -13.25 -55.35 -1.25 -55.35 7.35 -55.35 14.15 -50.95 16.85 -49.25 19.25 -46.85 27.75 -38.35 27.75 -26.35 27.75 -14.35 19.25 -5.85 16.85 -3.45 14.15 -1.7 Z" fill="none" stroke="#9900cc" stroke-linecap="round" stroke-linejoin="round" stroke-width="1.0"/>
    </g>
    <g id="shape22" transform="matrix(1.0, 0.0, 0.0, 1.0, 15.55, 9.3)">
      <path d="M-15.1 -8.65 L-15.1 -8.7 -14.5 -7.75 -15.1 -8.65" fill="#e37d00" fill-rule="evenodd" stroke="none"/>
      <path d="M-15.1 -8.65 L-15.55 -9.3 -15.5 -9.25 -15.15 -8.75 -15.1 -8.7 -15.1 -8.65" fill="#ff9900" fill-rule="evenodd" stroke="none"/>
      <path d="M-3.0 -0.25 L-3.8 -3.75 1.6 -4.9 2.55 -1.4 Q0.05 0.15 -3.0 -0.25" fill="#9900cc" fill-rule="evenodd" stroke="none"/>
      <path d="M-3.0 -0.25 Q0.05 0.15 2.55 -1.4 L3.75 3.2 Q2.5 5.25 -1.8 4.85 L-3.0 -0.25" fill="#cc33cc" fill-rule="evenodd" stroke="none"/>
      <path d="M2.55 -1.4 L1.6 -4.9 -3.8 -3.75 -3.0 -0.25 -1.8 4.85 Q2.5 5.25 3.75 3.2 L2.55 -1.4 Z" fill="none" stroke="#9900cc" stroke-linecap="round" stroke-linejoin="round" stroke-width="1.0"/>
    </g>
    <g id="sprite21" transform="matrix(1.0, 0.0, 0.0, 1.0, 30.45, 30.45)">
      <use ffdec:characterId="710" height="60.9" transform="matrix(1.0, 0.0, 0.0, 1.0, -30.45, -30.45)" width="60.9" xlink:href="#shape23"/>
    </g>
    <g id="shape23" transform="matrix(1.0, 0.0, 0.0, 1.0, 30.45, 30.45)">
      <path d="M0.0 -29.2 Q12.1 -29.2 20.65 -20.65 29.2 -12.1 29.2 0.0 29.2 12.1 20.65 20.65 12.1 29.2 0.0 29.2 -12.1 29.2 -20.65 20.65 -29.2 12.1 -29.2 0.0 -29.2 -12.1 -20.65 -20.65 -12.1 -29.2 0.0 -29.2" fill="#ffffff" fill-rule="evenodd" stroke="none"/>
      <path d="M0.0 -29.2 Q-12.1 -29.2 -20.65 -20.65 -29.2 -12.1 -29.2 0.0 -29.2 12.1 -20.65 20.65 -12.1 29.2 0.0 29.2 12.1 29.2 20.65 20.65 29.2 12.1 29.2 0.0 29.2 -12.1 20.65 -20.65 12.1 -29.2 0.0 -29.2 Z" fill="none" stroke="#cccccc" stroke-linecap="round" stroke-linejoin="round" stroke-width="2.5"/>
    </g>
    <g id="sprite22" transform="matrix(1.0, 0.0, 0.0, 1.0, 10.9, 10.9)">
      <use ffdec:characterId="712" height="21.9" transform="matrix(1.0, 0.0, 0.0, 1.0, -10.9, -10.9)" width="21.9" xlink:href="#shape24"/>
    </g>
    <g id="shape24" transform="matrix(1.0, 0.0, 0.0, 1.0, 10.9, 10.9)">
      <path d="M0.05 -10.9 Q4.6 -10.9 7.8 -7.7 11.0 -4.5 11.0 0.05 11.0 4.6 7.8 7.8 4.6 11.0 0.05 11.0 -4.5 11.0 -7.7 7.8 -10.9 4.6 -10.9 0.05 -10.9 -4.5 -7.7 -7.7 -4.5 -10.9 0.05 -10.9 M0.1 -4.2 Q-1.65 -4.2 -2.9 -2.95 -4.15 -1.7 -4.15 0.05 -4.15 1.8 -2.9 3.05 -1.65 4.3 0.1 4.3 1.85 4.3 3.1 3.05 4.35 1.8 4.35 0.05 4.35 -1.7 3.1 -2.95 1.85 -4.2 0.1 -4.2" fill="#000033" fill-rule="evenodd" stroke="none"/>
      <path d="M0.1 -4.2 Q1.85 -4.2 3.1 -2.95 4.35 -1.7 4.35 0.05 4.35 1.8 3.1 3.05 1.85 4.3 0.1 4.3 -1.65 4.3 -2.9 3.05 -4.15 1.8 -4.15 0.05 -4.15 -1.7 -2.9 -2.95 -1.65 -4.2 0.1 -4.2" fill="#000000" fill-rule="evenodd" stroke="none"/>
    </g>
    <g id="sprite23" transform="matrix(1.0, 0.0, 0.0, 1.0, 52.9, 23.5)">
      <use ffdec:characterId="714" height="59.95" transform="matrix(1.0, 0.0, 0.0, 1.0, -52.9, -23.5)" width="85.55" xlink:href="#shape25"/>
    </g>
    <g id="shape25" transform="matrix(1.0, 0.0, 0.0, 1.0, 52.9, 23.5)">
      <path d="M-46.95 -1.65 Q-47.7 -3.0 -48.8 -9.15 L-51.4 -22.0 Q-26.65 -5.35 -7.8 -4.0 22.25 -3.8 31.15 -21.75 L28.8 -4.75 Q23.3 7.75 5.05 9.8 -9.75 10.5 -19.05 8.45 -28.35 6.35 -46.95 -1.65" fill="#ffffff" fill-rule="evenodd" stroke="none"/>
      <path d="M4.0 31.3 L3.0 31.85 Q-7.3 37.2 -18.75 33.3 -29.95 29.45 -38.05 17.1 L-31.85 16.8 Q-20.6 16.8 -13.5 19.35 -4.1 22.65 4.0 31.3" fill="#ff9999" fill-rule="evenodd" stroke="none"/>
      <path d="M28.8 -4.75 Q27.3 3.8 20.3 15.15 13.65 25.9 4.0 31.3 -4.1 22.65 -13.5 19.35 -20.6 16.8 -31.85 16.8 L-38.05 17.1 -38.35 16.6 Q-46.55 3.75 -46.95 -1.65 -28.35 6.35 -19.05 8.45 -9.75 10.5 5.05 9.8 23.3 7.75 28.8 -4.75" fill="#000000" fill-rule="evenodd" stroke="none"/>
      <path d="M-46.95 -1.65 Q-47.7 -3.0 -48.8 -9.15 L-51.4 -22.0 Q-26.65 -5.35 -7.8 -4.0 22.25 -3.8 31.15 -21.75 L28.8 -4.75 Q27.3 3.8 20.3 15.15 13.65 25.9 4.0 31.3 L3.0 31.85 Q-7.3 37.2 -18.75 33.3 -29.95 29.45 -38.05 17.1 L-38.35 16.6 Q-46.55 3.75 -46.95 -1.65 -28.35 6.35 -19.05 8.45 -9.75 10.5 5.05 9.8 23.3 7.75 28.8 -4.75 M4.0 31.3 Q-4.1 22.65 -13.5 19.35 -20.6 16.8 -31.85 16.8 L-38.05 17.1" fill="none" stroke="#666666" stroke-linecap="round" stroke-linejoin="round" stroke-width="3.0"/>
    </g>
    <g id="sprite24" transform="matrix(1.0, 0.0, 0.0, 1.0, 2.2, -6.0)">
      <use ffdec:characterId="716" height="32.95" transform="matrix(1.0, 0.0, 0.0, 1.0, -2.2, 6.0)" width="9.0" xlink:href="#shape26"/>
    </g>
    <g id="shape26" transform="matrix(1.0, 0.0, 0.0, 1.0, 2.2, -6.0)">
      <path d="M2.85 6.25 Q4.35 6.3 4.85 6.7 L5.6 7.95 Q5.9 8.9 5.7 10.6 7.9 23.45 4.55 31.4 L3.1 34.9 Q2.1 37.3 0.6 38.35 L-1.0 38.6 Q-1.55 38.3 -1.8 37.35 -2.05 36.4 -1.9 35.75 L-1.55 34.6 1.05 29.6 Q3.45 25.1 2.55 13.05 2.05 11.6 0.95 10.5 -0.2 9.4 0.6 7.75 1.35 6.1 2.85 6.25" fill="#fe81e6" fill-rule="evenodd" stroke="none"/>
      <path d="M2.85 6.25 Q4.35 6.3 4.85 6.7 L5.6 7.95 Q5.9 8.9 5.7 10.6 7.9 23.45 4.55 31.4 L3.1 34.9 Q2.1 37.3 0.6 38.35 L-1.0 38.6 Q-1.55 38.3 -1.8 37.35 -2.05 36.4 -1.9 35.75 L-1.55 34.6 1.05 29.6 Q3.45 25.1 2.55 13.05 2.05 11.6 0.95 10.5 -0.2 9.4 0.6 7.75 1.35 6.1 2.85 6.25 Z" ffdec:has-small-stroke="true" ffdec:original-stroke-width="0.5" fill="none" stroke="#fe81e6" stroke-linecap="round" stroke-linejoin="round" stroke-width="0.5494244086045408"/>
    </g>
    <g id="sprite25" transform="matrix(1.0, 0.0, 0.0, 1.0, 2.2, -6.0)">
      <use ffdec:characterId="716" height="32.95" transform="matrix(1.0, 0.0, 0.0, 1.0, -2.2, 6.0)" width="9.0" xlink:href="#shape27"/>
    </g>
    <g id="shape27" transform="matrix(1.0, 0.0, 0.0, 1.0, 2.2, -6.0)">
      <path d="M2.85 6.25 Q4.35 6.3 4.85 6.7 L5.6 7.95 Q5.9 8.9 5.7 10.6 7.9 23.45 4.55 31.4 L3.1 34.9 Q2.1 37.3 0.6 38.35 L-1.0 38.6 Q-1.55 38.3 -1.8 37.35 -2.05 36.4 -1.9 35.75 L-1.55 34.6 1.05 29.6 Q3.45 25.1 2.55 13.05 2.05 11.6 0.95 10.5 -0.2 9.4 0.6 7.75 1.35 6.1 2.85 6.25" fill="#fe81e6" fill-rule="evenodd" stroke="none"/>
      <path d="M2.85 6.25 Q4.35 6.3 4.85 6.7 L5.6 7.95 Q5.9 8.9 5.7 10.6 7.9 23.45 4.55 31.4 L3.1 34.9 Q2.1 37.3 0.6 38.35 L-1.0 38.6 Q-1.55 38.3 -1.8 37.35 -2.05 36.4 -1.9 35.75 L-1.55 34.6 1.05 29.6 Q3.45 25.1 2.55 13.05 2.05 11.6 0.95 10.5 -0.2 9.4 0.6 7.75 1.35 6.1 2.85 6.25 Z" ffdec:has-small-stroke="true" ffdec:original-stroke-width="0.5" fill="none" stroke="#fe81e6" stroke-linecap="round" stroke-linejoin="round" stroke-width="0.5474250778313554"/>
    </g>
    <g id="shape28" transform="matrix(1.0, 0.0, 0.0, 1.0, 38.9, 1.5)">
      <path d="M1.5 23.7 Q30.5 7.45 43.15 10.85 55.8 14.25 64.5 9.25 73.15 4.25 85.05 2.25 96.95 0.2 107.4 0.0 117.8 -0.2 125.4 3.45 128.7 5.0 131.65 6.85 L135.45 9.35 135.55 9.55 136.2 10.95 138.45 15.25 Q140.25 18.3 138.75 21.45 137.0 25.35 129.8 24.15 L119.9 22.0 Q118.75 21.7 117.95 21.1 L118.55 22.9 Q119.05 24.15 116.05 24.7 107.35 26.3 99.8 23.4 L89.9 19.6 Q92.65 22.5 91.5 25.5 91.3 26.0 51.1 24.4 L39.7 23.55 33.7 23.25 33.85 23.15 Q36.0 21.8 8.2 23.35 L4.7 23.55 1.45 23.7 1.5 23.7 4.7 23.55 1.5 23.7 M135.55 9.55 L131.65 6.85 135.55 9.55 M79.15 29.85 Q92.0 32.0 92.7 33.8 86.0 31.6 79.15 29.85" fill="#db0202" fill-rule="evenodd" stroke="none"/>
      <path d="M135.45 9.35 L137.6 10.95 138.55 11.75 139.0 12.15 139.15 12.3 139.35 12.45 Q141.85 14.9 144.05 19.35 L144.1 19.4 146.55 25.2 146.65 26.75 Q146.1 29.15 145.8 32.45 145.5 35.7 143.05 35.95 L142.85 36.0 140.2 36.25 139.2 34.9 Q138.2 33.45 131.75 31.4 L131.55 32.2 Q123.6 28.75 122.9 28.7 L122.8 28.7 121.35 29.95 Q120.1 30.95 117.5 31.8 114.9 32.6 110.9 30.2 110.95 30.95 111.8 33.3 112.2 34.4 118.1 39.8 L118.0 39.8 118.1 39.8 118.15 39.85 118.0 39.8 113.95 38.75 113.5 38.7 113.6 38.8 113.5 38.7 114.5 38.9 113.6 38.8 Q103.85 37.45 96.8 35.1 L95.4 34.65 92.7 33.8 Q92.0 32.0 79.15 29.85 L69.1 27.45 Q60.15 25.4 51.1 24.4 91.3 26.0 91.5 25.5 92.65 22.5 89.9 19.6 L99.8 23.4 Q107.35 26.3 116.05 24.7 119.05 24.15 118.55 22.9 L117.95 21.1 Q118.75 21.7 119.9 22.0 L129.8 24.15 Q137.0 25.35 138.75 21.45 140.25 18.3 138.45 15.25 L136.2 10.95 135.55 9.55 135.45 9.35 M142.85 36.0 L139.2 34.9 142.85 36.0 M137.6 10.95 L135.55 9.55 137.6 10.95 M137.15 30.6 L137.15 30.55 137.1 30.55 137.15 30.6" fill="#9e0303" fill-rule="evenodd" stroke="none"/>
      <path d="M180.05 29.15 Q186.05 43.8 178.05 57.1 169.85 70.7 154.15 70.35 142.15 69.55 134.95 59.8 L135.35 61.35 135.75 64.3 135.75 70.15 Q135.65 74.6 133.6 77.9 129.6 69.5 113.9 64.85 98.2 60.15 84.8 58.2 L59.75 55.15 Q48.1 54.05 34.95 54.8 21.8 55.55 9.05 57.45 -3.7 59.3 -19.6 64.8 -35.55 70.25 -36.65 65.45 -37.75 60.55 -37.2 52.3 -20.6 50.4 1.6 46.65 24.35 42.75 27.75 42.75 L38.1 42.2 46.25 41.65 Q58.05 41.65 80.3 44.8 L101.9 47.9 103.15 47.55 104.1 47.15 Q104.1 44.0 99.75 40.6 95.8 37.55 95.4 34.65 L96.8 35.1 Q103.85 37.45 113.6 38.8 L114.5 38.9 113.5 38.7 113.95 38.75 118.0 39.8 118.15 39.85 118.1 39.8 Q124.9 42.1 129.95 47.8 129.1 40.75 131.05 33.9 L131.55 32.2 132.8 32.75 131.55 32.2 131.75 31.4 Q138.2 33.45 139.2 34.9 L140.2 36.25 140.6 36.75 Q145.9 43.15 152.9 47.7 160.15 52.3 167.1 47.1 173.7 42.15 177.9 34.7 179.5 32.0 180.05 29.15 M137.15 30.6 L137.1 30.55 137.15 30.55 137.15 30.6 M133.35 32.9 L134.05 33.15 133.35 32.9 M137.4 34.3 L137.5 34.3 137.5 34.35 137.55 34.35 137.6 34.4 139.2 34.9 137.6 34.4 137.55 34.35 137.5 34.35 137.5 34.3 137.4 34.3 134.05 33.15 137.4 34.3 M129.95 47.8 L131.3 50.2 Q133.7 54.7 134.95 59.8 133.7 54.7 131.3 50.2 L129.95 47.8" fill="#babcc6" fill-rule="evenodd" stroke="none"/>
      <path d="M144.05 19.35 Q156.85 9.05 170.95 18.45 177.05 22.45 180.05 29.15 179.5 32.0 177.9 34.7 173.7 42.15 167.1 47.1 160.15 52.3 152.9 47.7 145.9 43.15 140.6 36.75 L140.2 36.25 142.85 36.0 142.95 36.0 142.85 36.0 143.05 35.95 Q145.5 35.7 145.8 32.45 146.1 29.15 146.65 26.75 147.5 22.85 144.1 19.4 L144.05 19.35 M-37.2 52.3 Q-36.8 46.25 -33.6 38.65 -30.45 31.0 -20.25 27.7 -11.2 24.7 1.5 23.7 L1.45 23.7 4.7 23.55 8.2 23.35 Q14.15 23.1 20.15 23.1 L33.7 23.25 39.7 23.55 51.1 24.4 Q60.15 25.4 69.1 27.45 L79.15 29.85 Q86.0 31.6 92.7 33.8 L95.4 34.65 Q95.8 37.55 99.75 40.6 104.1 44.0 104.1 47.15 L103.15 47.55 101.9 47.9 80.3 44.8 Q58.05 41.65 46.25 41.65 L38.1 42.2 27.75 42.75 Q24.35 42.75 1.6 46.65 -20.6 50.4 -37.2 52.3 M142.95 36.0 Q144.6 36.0 145.75 33.7 146.8 31.65 146.65 26.75 146.8 31.65 145.75 33.7 144.6 36.0 142.95 36.0 M146.55 25.2 L146.55 24.85 146.6 24.9 146.6 24.95 146.6 25.0 146.6 25.05 146.55 25.2" fill="#dde5ec" fill-rule="evenodd" stroke="none"/>
      <path d="M1.5 23.7 Q30.5 7.45 43.15 10.85 55.8 14.25 64.5 9.25 73.15 4.25 85.05 2.25 96.95 0.2 107.4 0.0 117.8 -0.2 125.4 3.45 128.7 5.0 131.65 6.85 L135.55 9.55 137.6 10.95 M144.05 19.35 L144.1 19.4 M142.95 36.0 L142.85 36.0 M113.6 38.8 L113.5 38.7 M118.1 39.8 Q112.2 34.4 111.8 33.3 110.95 30.95 110.9 30.2 114.9 32.6 117.5 31.8 120.1 30.95 121.35 29.95 L122.8 28.7 122.9 28.7 M134.05 33.15 L133.35 32.9 M139.2 34.9 L137.6 34.4 137.55 34.35 137.5 34.35 137.5 34.3 137.4 34.3 M132.8 32.75 L131.55 32.2 M118.0 39.8 L118.15 39.85 118.1 39.8 M1.45 23.7 L1.5 23.7" fill="none" stroke="#560000" stroke-linecap="round" stroke-linejoin="round" stroke-width="3.0"/>
      <path d="M144.05 19.35 Q156.85 9.05 170.95 18.45 177.05 22.45 180.05 29.15 186.05 43.8 178.05 57.1 169.85 70.7 154.15 70.35 142.15 69.55 134.95 59.8 L135.35 61.35 135.75 64.3 135.75 70.15 Q135.65 74.6 133.6 77.9 129.6 69.5 113.9 64.85 98.2 60.15 84.8 58.2 L59.75 55.15 Q48.1 54.05 34.95 54.8 21.8 55.55 9.05 57.45 -3.7 59.3 -19.6 64.8 -35.55 70.25 -36.65 65.45 -37.75 60.55 -37.2 52.3 -36.8 46.25 -33.6 38.65 -30.45 31.0 -20.25 27.7 -11.2 24.7 1.5 23.7 L4.7 23.55 M69.1 27.45 L79.15 29.85 Q86.0 31.6 92.7 33.8 L95.4 34.65 96.8 35.1 Q103.85 37.45 113.6 38.8 L114.5 38.9 113.5 38.7 113.95 38.75 118.0 39.8 118.1 39.8 Q124.9 42.1 129.95 47.8 129.1 40.75 131.05 33.9 L131.55 32.2 M134.95 59.8 Q133.7 54.7 131.3 50.2 L129.95 47.8" fill="none" stroke="#8a98ad" stroke-linecap="round" stroke-linejoin="round" stroke-width="3.0"/>
      <path d="M137.6 10.95 L138.55 11.75 139.0 12.15 139.15 12.3 139.35 12.45 Q141.85 14.9 144.05 19.35 M146.65 26.75 Q146.8 31.65 145.75 33.7 144.6 36.0 142.95 36.0 M122.9 28.7 Q123.6 28.75 131.55 32.2 M139.2 34.9 L142.85 36.0 M146.65 26.75 L146.55 25.2 144.1 19.4 M137.4 34.3 L134.05 33.15" fill="none" stroke="#4f0202" stroke-linecap="round" stroke-linejoin="round" stroke-width="3.0"/>
      <path d="M69.1 27.45 Q54.6 24.1 39.7 23.55 L33.7 23.25 Q19.15 22.85 4.7 23.45" fill="none" stroke="#8a98ad" stroke-linecap="round" stroke-linejoin="round" stroke-width="3.0"/>
    </g>
    <g id="sprite26" transform="matrix(1.0, 0.0, 0.0, 1.0, 0.5, 0.5)">
      <use ffdec:characterId="719" height="23.9" transform="matrix(1.0, 0.0, 0.0, 1.0, -0.5, -0.5)" width="23.5" xlink:href="#shape29"/>
    </g>
    <g id="shape29" transform="matrix(1.0, 0.0, 0.0, 1.0, 0.5, 0.5)">
      <path d="M22.5 4.6 Q22.5 7.05 19.3 7.05 L12.95 6.25 Q12.1 6.25 11.9 6.7 11.7 7.1 12.15 7.65 12.55 8.25 13.8 8.35 15.0 8.4 16.15 9.2 17.25 9.95 17.1 11.15 16.9 12.3 16.4 12.6 L15.0 12.85 12.05 12.0 Q10.05 11.15 8.95 11.65 7.8 12.1 8.25 12.4 L10.15 13.35 Q11.6 13.95 11.2 15.5 10.8 17.05 8.45 16.05 6.1 15.0 5.6 15.85 L4.85 17.2 3.9 18.9 3.25 20.25 3.1 20.65 2.05 22.55 Q1.75 22.9 1.35 22.9 0.85 22.9 0.0 22.3 4.85 9.85 8.65 4.75 12.2 0.0 15.55 0.0 18.5 0.0 20.5 1.35 22.5 2.7 22.5 4.6" fill="url(#gradient36)" fill-rule="evenodd" stroke="none"/>
      <path d="M22.4 4.15 L22.15 4.7 Q22.65 5.75 20.85 6.85 21.95 4.6 19.85 2.8 17.7 1.0 15.35 1.2 14.25 1.25 13.4 1.85 10.3 4.25 8.8 6.8 L6.15 11.75 3.45 17.15 Q1.45 21.35 1.45 21.9 L1.75 22.55 Q1.55 23.15 1.1 23.15 0.7 23.15 0.45 22.7 L0.25 22.15 Q0.25 20.9 2.4 16.4 L4.75 11.7 Q5.15 10.7 6.1 9.1 L7.55 6.45 9.4 3.85 Q10.35 2.75 12.5 1.55 L12.4 1.6 11.45 1.95 11.35 1.7 Q11.8 1.2 13.45 0.55 L15.9 -0.1 Q19.1 -0.1 21.0 1.7 22.4 3.05 22.4 4.15 M11.3 6.8 L11.4 7.3 Q11.55 7.75 11.8 7.85 12.45 8.4 14.4 8.6 17.3 8.95 17.3 10.5 L17.05 11.25 16.45 11.95 Q16.1 11.95 15.85 11.0 15.6 10.0 13.9 9.55 12.15 9.1 11.6 8.6 11.0 8.1 11.0 7.6 11.0 7.25 11.3 6.8 M7.95 11.85 L7.95 11.9 8.1 12.2 Q8.0 13.0 9.5 13.4 11.5 13.9 11.5 14.65 11.6 15.85 10.7 15.1 9.75 14.35 8.4 13.75 7.05 13.1 7.25 12.7 L7.65 12.1 7.95 11.85" fill="#e94242" fill-rule="evenodd" stroke="none"/>
      <path d="M11.3 6.8 Q11.55 5.45 12.65 5.2 L16.4 5.45 19.95 5.95 Q20.75 5.95 20.75 6.3 20.75 6.95 19.3 6.95 L16.0 6.45 13.5 5.9 Q12.75 5.9 12.35 6.9 L11.9 7.85 11.8 7.85 Q11.55 7.75 11.4 7.3 L11.3 6.8 M7.95 11.85 Q8.05 7.65 15.65 12.15 L15.5 12.4 15.05 12.65 Q14.4 12.65 12.7 11.9 11.0 11.15 9.85 11.15 9.25 11.15 8.9 11.8 L8.3 12.4 8.1 12.25 8.1 12.2 7.95 11.9 7.95 11.85" fill="#9c0000" fill-rule="evenodd" stroke="none"/>
      <path d="M3.1 20.65 L2.05 22.55 Q1.75 22.9 1.35 22.9 0.85 22.9 0.0 22.3 4.85 9.85 8.65 4.75 12.2 0.0 15.55 0.0 18.5 0.0 20.5 1.35 22.5 2.7 22.5 4.6 22.5 7.05 19.3 7.05 L12.95 6.25 Q12.1 6.25 11.9 6.7 11.7 7.1 12.15 7.65 12.55 8.25 13.8 8.35 15.0 8.4 16.15 9.2 17.25 9.95 17.1 11.15 16.9 12.3 16.4 12.6 L15.0 12.85 12.05 12.0 Q10.05 11.15 8.95 11.65 7.8 12.1 8.25 12.4 L10.15 13.35 Q11.6 13.95 11.2 15.5 10.8 17.05 8.45 16.05 6.1 15.0 5.6 15.85 L4.85 17.2 3.9 18.9 3.25 20.25 3.15 20.55 3.1 20.65 3.25 20.25" fill="none" stroke="#7e0000" stroke-linecap="round" stroke-linejoin="round" stroke-width="1.0"/>
    </g>
    <linearGradient gradientTransform="matrix(0.0068, -0.0039, 0.5002, 0.8659, 5.95, -6.05)" gradientUnits="userSpaceOnUse" id="gradient36" spreadMethod="pad" x1="-819.2" x2="819.2">
      <stop offset="0.27450980392156865" stop-color="#be0000"/>
      <stop offset="0.796078431372549" stop-color="#980000"/>
    </linearGradient>
    <g id="sprite27" transform="matrix(1.0, 0.0, 0.0, 1.0, 0.5, 0.5)">
      <use ffdec:characterId="721" height="23.9" transform="matrix(1.0, 0.0, 0.0, 1.0, -0.5, -0.5)" width="23.5" xlink:href="#shape30"/>
    </g>
    <g id="shape30" transform="matrix(1.0, 0.0, 0.0, 1.0, 0.5, 0.5)">
      <path d="M22.5 4.6 Q22.5 7.05 19.3 7.05 L12.95 6.25 Q12.1 6.25 11.9 6.7 11.7 7.1 12.15 7.65 12.55 8.25 13.8 8.35 15.0 8.4 16.15 9.2 17.25 9.95 17.1 11.15 16.9 12.3 16.4 12.6 L15.0 12.85 12.05 12.0 Q10.05 11.15 8.95 11.65 7.8 12.1 8.25 12.4 L10.15 13.35 Q11.6 13.95 11.2 15.5 10.8 17.05 8.45 16.05 6.1 15.0 5.6 15.85 L4.85 17.2 3.9 18.9 3.25 20.25 3.1 20.65 2.05 22.55 Q1.75 22.9 1.35 22.9 0.85 22.9 0.0 22.3 4.85 9.85 8.65 4.75 12.2 0.0 15.55 0.0 18.5 0.0 20.5 1.35 22.5 2.7 22.5 4.6" fill="url(#gradient37)" fill-rule="evenodd" stroke="none"/>
      <path d="M21.0 1.7 Q22.4 3.05 22.4 4.15 L22.15 4.7 Q22.65 5.75 20.85 6.85 21.95 4.6 19.85 2.8 17.7 1.0 15.35 1.2 L12.4 1.6 11.45 1.95 11.35 1.7 Q11.8 1.2 13.45 0.55 L15.9 -0.1 Q19.1 -0.1 21.0 1.7 M11.3 6.8 L11.4 7.3 Q11.55 7.75 11.8 7.85 12.45 8.4 14.4 8.6 17.3 8.95 17.3 10.5 L17.05 11.25 16.45 11.95 Q16.1 11.95 15.85 11.0 15.6 10.0 13.9 9.55 12.15 9.1 11.6 8.6 11.0 8.1 11.0 7.6 11.0 7.25 11.3 6.8 M7.95 11.85 L7.95 11.9 8.1 12.2 Q8.0 13.0 9.5 13.4 11.5 13.9 11.5 14.65 11.6 15.85 10.7 15.1 9.75 14.35 8.4 13.75 7.05 13.1 7.25 12.7 L7.65 12.1 7.95 11.85" fill="#e94242" fill-rule="evenodd" stroke="none"/>
      <path d="M11.3 6.8 Q11.55 5.45 12.65 5.2 L16.4 5.45 19.95 5.95 Q20.75 5.95 20.75 6.3 20.75 6.95 19.3 6.95 L16.0 6.45 13.5 5.9 Q12.75 5.9 12.35 6.9 L11.9 7.85 11.8 7.85 Q11.55 7.75 11.4 7.3 L11.3 6.8 M7.95 11.85 Q8.05 7.65 15.65 12.15 L15.5 12.4 15.05 12.65 Q14.4 12.65 12.7 11.9 11.0 11.15 9.85 11.15 9.25 11.15 8.9 11.8 L8.3 12.4 8.1 12.25 8.1 12.2 7.95 11.9 7.95 11.85 M8.8 6.8 L6.15 11.75 3.45 17.15 Q1.45 21.35 1.45 21.9 L1.75 22.55 Q1.55 23.15 1.1 23.15 0.7 23.15 0.45 22.7 L0.25 22.15 Q0.25 20.9 2.4 16.4 L4.75 11.7 Q5.15 10.7 6.1 9.1 L7.55 6.45 9.4 3.85 Q10.8 2.25 12.25 1.95 10.5 3.85 8.8 6.8" fill="#9c0000" fill-rule="evenodd" stroke="none"/>
      <path d="M3.1 20.65 L2.05 22.55 Q1.75 22.9 1.35 22.9 0.85 22.9 0.0 22.3 4.85 9.85 8.65 4.75 12.2 0.0 15.55 0.0 18.5 0.0 20.5 1.35 22.5 2.7 22.5 4.6 22.5 7.05 19.3 7.05 L12.95 6.25 Q12.1 6.25 11.9 6.7 11.7 7.1 12.15 7.65 12.55 8.25 13.8 8.35 15.0 8.4 16.15 9.2 17.25 9.95 17.1 11.15 16.9 12.3 16.4 12.6 L15.0 12.85 12.05 12.0 Q10.05 11.15 8.95 11.65 7.8 12.1 8.25 12.4 L10.15 13.35 Q11.6 13.95 11.2 15.5 10.8 17.05 8.45 16.05 6.1 15.0 5.6 15.85 L4.85 17.2 3.9 18.9 3.25 20.25 3.15 20.55 3.1 20.65 3.25 20.25" fill="none" stroke="#7e0000" stroke-linecap="round" stroke-linejoin="round" stroke-width="1.0"/>
    </g>
    <linearGradient gradientTransform="matrix(0.0068, -0.0039, 0.5002, 0.8659, 5.95, -6.05)" gradientUnits="userSpaceOnUse" id="gradient37" spreadMethod="pad" x1="-819.2" x2="819.2">
      <stop offset="0.27450980392156865" stop-color="#be0000"/>
      <stop offset="0.796078431372549" stop-color="#980000"/>
    </linearGradient>
    <g id="shape31" transform="matrix(1.0, 0.0, 0.0, 1.0, 44.65, 44.6)">
      <path d="M37.1 -22.85 Q39.25 -19.7 27.6 -17.8 15.9 -15.85 -0.9 -15.75 -17.7 -15.7 -29.6 -17.65 -37.0 -18.9 -38.85 -19.55" fill="none" stroke="#200000" stroke-linecap="round" stroke-linejoin="round" stroke-opacity="0.3019608" stroke-width="5.0"/>
      <path d="M40.0 -27.1 Q39.6 -22.75 27.8 -20.65 15.9 -18.55 -0.9 -18.45 -17.7 -18.4 -29.6 -20.35 -41.45 -22.35 -41.85 -25.25" fill="none" stroke="#ff0000" stroke-linecap="round" stroke-linejoin="round" stroke-width="5.0"/>
      <path d="M41.5 -26.65 Q40.25 -21.25 28.25 -19.1 16.2 -17.05 -0.9 -16.9 -18.0 -16.85 -30.1 -18.8 -42.1 -20.85 -43.65 -24.4" fill="none" stroke="#7e0000" stroke-linecap="round" stroke-linejoin="round" stroke-width="2.0"/>
      <path d="M37.65 -26.0 Q38.9 -23.3 30.1 -21.3 21.35 -19.35 8.3 -18.75 L-10.25 -19.55 15.9 -20.8 Q33.7 -22.25 37.65 -26.0" fill="#ff7087" fill-rule="evenodd" stroke="none"/>
      <path d="M-13.9 -30.45 Q-13.15 -36.6 -8.25 -40.45 -3.3 -44.25 2.8 -43.5 8.95 -42.75 12.75 -37.85 16.6 -32.95 15.85 -26.8 15.1 -20.65 10.2 -16.85 5.3 -13.0 -0.85 -13.75 -6.95 -14.5 -10.8 -19.4 -14.65 -24.3 -13.9 -30.45" fill="url(#gradient38)" fill-rule="evenodd" stroke="none"/>
      <path d="M-13.9 -30.45 Q-13.15 -36.6 -8.25 -40.45 -3.3 -44.25 2.8 -43.5 8.95 -42.75 12.75 -37.85 16.6 -32.95 15.85 -26.8 15.1 -20.65 10.2 -16.85 5.3 -13.0 -0.85 -13.75 -6.95 -14.5 -10.8 -19.4 -14.65 -24.3 -13.9 -30.45 Z" fill="none" stroke="#7e0000" stroke-linecap="round" stroke-linejoin="round" stroke-width="2.0"/>
    </g>
    <radialGradient cx="0" cy="0" gradientTransform="matrix(0.0217, 0.0, 0.0, 0.0217, 0.95, -35.7)" gradientUnits="userSpaceOnUse" id="gradient38" r="819.2" spreadMethod="pad">
      <stop offset="0.2980392156862745" stop-color="#ff5b5b"/>
      <stop offset="0.8784313725490196" stop-color="#a30000"/>
    </radialGradient>
  </defs>
</svg>
