<?xml version="1.0" encoding="UTF-8" standalone="no"?>
<svg xmlns:ffdec="https://www.free-decompiler.com/flash" xmlns:xlink="http://www.w3.org/1999/xlink" ffdec:objectType="frame" height="45.6px" width="272.75px" xmlns="http://www.w3.org/2000/svg">
  <g transform="matrix(1.0, 0.0, 0.0, 1.0, -7.3, -320.35)">
    <clipPath id="clipPath0">
      <path d="M 25.5 330.25 L 25.18 330.26 L 24.87 330.29 L 24.57 330.33 L 24.27 330.39 L 23.97 330.47 L 23.68 330.57 L 23.39 330.69 L 23.11 330.83 L 22.84 330.98 L 22.57 331.15 L 22.3 331.34 L 22.04 331.54 L 21.79 331.77 L 21.54 332.01 L 21.29 332.27 L 21.05 332.55 L 20.82 332.87 L 20.61 333.19 L 20.41 333.52 L 20.23 333.86 L 20.06 334.21 L 19.91 334.57 L 19.77 334.93 L 19.65 335.3 L 19.56 335.62 L 19.48 335.94 L 19.41 336.27 L 19.35 336.61 L 19.31 336.96 L 19.27 337.32 L 19.26 337.68 L 19.25 338.05 L 19.25 349.3 L 19.26 349.7 L 19.28 350.09 L 19.31 350.47 L 19.36 350.84 L 19.43 351.21 L 19.5 351.57 L 19.59 351.93 L 19.7 352.27 L 19.82 352.62 L 19.95 352.95 L 20.1 353.27 L 20.26 353.59 L 20.44 353.91 L 20.63 354.21 L 20.83 354.51 L 21.05 354.8 L 21.29 355.08 L 21.54 355.34 L 21.79 355.58 L 22.04 355.81 L 22.3 356.01 L 22.57 356.2 L 22.84 356.37 L 23.11 356.52 L 23.39 356.66 L 23.68 356.78 L 23.97 356.88 L 24.27 356.96 L 24.57 357.02 L 24.87 357.06 L 25.18 357.09 L 25.5 357.1 L 261.15 357.1 L 261.57 357.09 L 261.98 357.04 L 262.37 356.97 L 262.75 356.86 L 263.12 356.73 L 263.48 356.57 L 263.82 356.37 L 264.15 356.15 L 265.6 354.8 L 265.82 354.51 L 266.02 354.21 L 266.21 353.91 L 266.39 353.59 L 266.55 353.27 L 266.7 352.95 L 266.83 352.62 L 266.95 352.27 L 267.06 351.93 L 267.15 351.57 L 267.22 351.21 L 267.29 350.84 L 267.34 350.47 L 267.37 350.09 L 267.39 349.7 L 267.4 349.3 L 267.4 338.05 L 267.39 337.65 L 267.37 337.26 L 267.34 336.88 L 267.29 336.51 L 267.22 336.14 L 267.15 335.78 L 267.06 335.42 L 266.95 335.08 L 266.83 334.73 L 266.7 334.4 L 266.55 334.08 L 266.39 333.76 L 266.21 333.44 L 266.02 333.14 L 265.82 332.84 L 265.6 332.55 L 265.37 332.27 L 265.14 332.01 L 264.9 331.77 L 264.65 331.54 L 264.39 331.34 L 264.13 331.15 L 263.86 330.98 L 263.59 330.83 L 263.31 330.69 L 263.02 330.57 L 262.72 330.47 L 262.42 330.39 L 262.11 330.33 L 261.8 330.29 L 261.48 330.26 L 261.15 330.25 Z"/>
    </clipPath>
    <g clip-path="url(#clipPath0)">
      <use ffdec:characterId="631" height="3000.0" transform="matrix(0.1628, 0.0, 0.0, 0.0152, 7.2769, 320.3288)" width="1675.0" xlink:href="#shape0"/>
    </g>
    <use ffdec:characterId="2693" height="27.85" transform="matrix(1.0, 0.0, 0.0, 1.0, 18.75, 329.75)" width="249.15" xlink:href="#shape1"/>
  </g>
  <defs>
    <g id="shape0" transform="matrix(1.0, 0.0, 0.0, 1.0, -3.85, 24.4)">
      <path d="M1678.85 2975.6 L3.85 2975.6 3.85 -24.4 1678.85 -24.4 1678.85 2975.6" fill="#ffffff" fill-rule="evenodd" stroke="none"/>
    </g>
    <g id="shape1" transform="matrix(1.0, 0.0, 0.0, 1.0, -18.75, -329.75)">
      <path d="M21.05 332.55 Q22.95 330.25 25.5 330.25 L261.15 330.25 Q263.8 330.25 265.6 332.55 267.4 334.85 267.4 338.05 L267.4 349.3 Q267.4 352.3 265.8 354.55 L265.7 354.7 Q266.1 353.35 266.1 351.8 L266.1 340.55 Q266.1 337.35 264.3 335.05 262.5 332.75 259.85 332.75 L24.2 332.75 Q21.65 332.75 19.75 335.05 L19.75 335.1 19.8 334.85 Q20.25 333.6 21.05 332.55" fill="#000000" fill-opacity="0.12156863" fill-rule="evenodd" stroke="none"/>
      <path d="M267.4 342.15 L267.4 338.05 Q267.4 334.85 265.6 332.55 263.8 330.25 261.15 330.25 L25.5 330.25 Q22.95 330.25 21.05 332.55 20.25 333.6 19.8 334.85 L19.65 335.3 Q19.25 336.55 19.25 338.05 L19.25 349.3 Q19.25 352.5 21.05 354.8 22.95 357.1 25.5 357.1 L261.15 357.1 Q262.85 357.1 264.15 356.15 L265.6 354.8 265.8 354.55 Q267.4 352.3 267.4 349.3 L267.4 343.1" fill="none" stroke="url(#gradient0)" stroke-linecap="round" stroke-linejoin="round" stroke-width="1.0"/>
      <path d="M267.4 343.1 L267.4 342.15" fill="none" stroke="url(#gradient1)" stroke-linecap="round" stroke-linejoin="round" stroke-width="1.0"/>
    </g>
    <linearGradient gradientTransform="matrix(1.0E-4, -0.0141, 0.0341, 0.0, 179.9, 343.7)" gradientUnits="userSpaceOnUse" id="gradient0" spreadMethod="pad" x1="-819.2" x2="819.2">
      <stop offset="0.0" stop-color="#b8ffe9"/>
      <stop offset="0.17647058823529413" stop-color="#6caf9a"/>
      <stop offset="0.8196078431372549" stop-color="#6caf9a"/>
      <stop offset="1.0" stop-color="#276552"/>
    </linearGradient>
    <linearGradient gradientTransform="matrix(1.0E-4, -0.0489, 0.0341, 0.0, 179.9, 347.05)" gradientUnits="userSpaceOnUse" id="gradient1" spreadMethod="pad" x1="-819.2" x2="819.2">
      <stop offset="0.0" stop-color="#b8ffe9"/>
      <stop offset="0.17647058823529413" stop-color="#6caf9a"/>
      <stop offset="0.8196078431372549" stop-color="#6caf9a"/>
      <stop offset="1.0" stop-color="#276552"/>
    </linearGradient>
  </defs>
</svg>
