<?xml version="1.0" encoding="UTF-8" standalone="no"?>
<svg xmlns:ffdec="https://www.free-decompiler.com/flash" xmlns:xlink="http://www.w3.org/1999/xlink" ffdec:objectType="frame" height="53.4px" width="52.3px" xmlns="http://www.w3.org/2000/svg">
  <g transform="matrix(1.0, 0.0, 0.0, 1.0, 4.5, 0.0)">
    <use ffdec:characterId="735" height="53.4" transform="matrix(1.0, 0.0, 0.0, 1.0, -4.5, 0.0)" width="52.3" xlink:href="#shape0"/>
  </g>
  <defs>
    <g id="shape0" transform="matrix(1.0, 0.0, 0.0, 1.0, 4.5, 0.0)">
      <path d="M14.85 18.4 Q2.5 13.85 3.25 0.65 13.25 14.65 27.0 17.0 21.25 20.65 14.85 18.4 M0.55 2.35 Q0.55 12.45 9.85 20.7 5.15 20.35 2.05 16.95 -1.05 13.55 0.55 2.35 M46.05 3.7 Q51.4 11.5 40.35 21.8 44.95 11.7 46.05 3.7 M23.25 25.8 L22.15 26.0 20.7 26.15 Q25.0 24.0 28.95 21.2 38.2 14.65 44.45 0.0 44.7 10.4 37.45 17.9 31.45 24.15 23.25 25.8" fill="#001a2a" fill-opacity="0.52156866" fill-rule="evenodd" stroke="none"/>
      <path d="M41.3 46.35 L42.3 48.3 35.2 53.15 32.75 53.35 Q31.3 53.2 31.65 51.65 32.0 50.05 33.05 46.75 34.2 43.2 34.85 42.3 35.9 40.45 38.0 42.0 39.65 43.2 40.05 44.15 L41.3 46.35 M0.5 44.7 Q5.95 42.65 7.65 41.45 12.85 34.15 15.15 33.85 17.45 33.5 15.7 37.65 13.95 41.75 13.75 43.1 13.55 44.05 13.8 44.75 13.9 45.3 13.4 45.6 L12.65 46.15 6.3 46.35 -3.6 47.45 Q-3.9 47.45 -4.2 47.1 L-4.5 46.6 0.5 44.7" fill="#001a2a" fill-opacity="0.5254902" fill-rule="evenodd" stroke="none"/>
    </g>
  </defs>
</svg>
