<?xml version="1.0" encoding="UTF-8" standalone="no"?>
<svg xmlns:ffdec="https://www.free-decompiler.com/flash" xmlns:xlink="http://www.w3.org/1999/xlink" ffdec:objectType="frame" height="382.2px" width="315.6px" xmlns="http://www.w3.org/2000/svg">
  <g transform="matrix(1.0, 0.0, 0.0, 1.0, 37.75, 8.5)">
    <use ffdec:characterId="2570" height="36.45" id="newMessage_btn" transform="matrix(1.0, 0.0, 0.0, 1.0, 72.8, 337.25)" width="96.4" xlink:href="#button0"/>
    <use ffdec:characterId="2573" height="318.4" id="holderAndMask_mc" transform="matrix(1.0, 0.0, 0.0, 1.0, -36.15, 15.25)" width="311.0" xlink:href="#sprite4"/>
    <use ffdec:characterId="2574" height="16.05" id="pagingInfo_txt" transform="matrix(1.0, 0.0, 0.0, 1.0, 45.0, -1.6)" width="151.0" xlink:href="#text1"/>
    <use ffdec:characterId="2575" height="20.8" id="noMessages_spr" transform="matrix(1.0, 0.0, 0.0, 1.0, 16.0, 106.55)" width="195.0" xlink:href="#text2"/>
    <use ffdec:characterId="2576" height="2.25" transform="matrix(1.0, 0.0, 0.0, 1.0, -37.75, -8.5)" width="315.6" xlink:href="#shape3"/>
  </g>
  <defs>
    <g id="button0" transform="matrix(1.0, 0.0, 0.0, 1.0, 0.0, 0.0)">
      <filter id="filter11">
        <feOffset dx="-1.5628939176605707" dy="3.6820324010170786" in="SourceGraphic" result="filterResult15"/>
        <feColorMatrix in="filterResult15" result="filterResult16" type="matrix" values="0 0 0 0 0.0,0 0 0 0 0.0,0 0 0 0 0.0,0 0 0 1 0"/>
        <feConvolveMatrix divisor="16.0" in="filterResult16" kernelMatrix="1 1 1 1 1 1 1 1 1 1 1 1 1 1 1 1" order="4 4" result="filterResult17"/>
        <feConvolveMatrix divisor="16.0" in="filterResult17" kernelMatrix="1 1 1 1 1 1 1 1 1 1 1 1 1 1 1 1" order="4 4" result="filterResult18"/>
        <feColorMatrix in="filterResult18" result="filterResult19" type="matrix" values="1 0 0 0 0,0 1 0 0 0,0 0 1 0 0,0 0 0 0.19921875 0"/>
        <feComposite in="SourceGraphic" in2="filterResult19" operator="over" result="filterResult20"/>
        <feColorMatrix in="filterResult20" result="filterResult21" type="matrix" values="1.6735313 -0.29397455 -0.039556798 0.0 -0.19501959 -0.14886865 1.5284255 -0.039556798 0.0 -0.1950196 -0.14886865 -0.29397455 1.7828431 0.0 -0.19501959 0.0 0.0 0.0 1.0 0.0"/>
      </filter>
      <use ffdec:characterId="2566" filter="url(#filter11)" height="132.85" transform="matrix(0.2748, 0.0, 0.0, 0.2748, 0.0072, -0.0193)" width="350.75" xlink:href="#sprite0"/>
      <filter id="filter13">
        <feOffset dx="-0.3135570753993684" dy="2.983568661932719" in="SourceGraphic" result="filterResult27"/>
        <feColorMatrix in="filterResult27" result="filterResult28" type="matrix" values="0 0 0 0 0.0,0 0 0 0 0.0,0 0 0 0 0.0,0 0 0 1 0"/>
        <feConvolveMatrix divisor="9.0" in="filterResult28" kernelMatrix="1 1 1 1 1 1 1 1 1" order="3 3" result="filterResult29"/>
        <feColorMatrix in="filterResult29" result="filterResult30" type="matrix" values="1 0 0 0 0,0 1 0 0 0,0 0 1 0 0,0 0 0 0.25 0"/>
        <feComposite in="SourceGraphic" in2="filterResult30" operator="over" result="filterResult31"/>
      </filter>
      <use ffdec:characterId="2569" filter="url(#filter13)" height="45.15" transform="matrix(0.4064, 0.0, 0.0, 0.4064, 64.8184, 8.3545)" width="64.0" xlink:href="#sprite1"/>
    </g>
    <g id="sprite0" transform="matrix(1.0, 0.0, 0.0, 1.0, 163.35, 11.35)">
      <use ffdec:characterId="2564" height="132.85" transform="matrix(1.0, 0.0, 0.0, 1.0, -163.35, -11.35)" width="350.75" xlink:href="#shape0"/>
      <filter id="filter10">
        <feOffset dx="-1.8054294798588804" dy="2.3959182776665178" in="SourceGraphic" result="filterResult0"/>
        <feColorMatrix in="filterResult0" result="filterResult1" type="matrix" values="0 0 0 0 0.69411767,0 0 0 0 0.85882354,0 0 0 0 0.6901961,0 0 0 1 0"/>
        <feColorMatrix in="filterResult1" result="filterResult2" type="matrix" values="1 0 0 0 0,0 1 0 0 0,0 0 1 0 0,0 0 0 0.5 0"/>
        <feComposite in="filterResult2" in2="SourceGraphic" operator="out" result="filterResult3"/>
        <feOffset dx="1.8054294798588804" dy="-2.3959182776665173" in="SourceGraphic" result="filterResult4"/>
        <feColorMatrix in="filterResult4" result="filterResult5" type="matrix" values="0 0 0 0 0.050980393,0 0 0 0 0.32156864,0 0 0 0 0.043137256,0 0 0 1 0"/>
        <feColorMatrix in="filterResult5" result="filterResult6" type="matrix" values="1 0 0 0 0,0 1 0 0 0,0 0 1 0 0,0 0 0 0.5 0"/>
        <feComposite in="filterResult6" in2="SourceGraphic" operator="out" result="filterResult7"/>
        <feComposite in="filterResult3" in2="filterResult7" operator="out" result="filterResult8"/>
        <feComposite in="filterResult7" in2="filterResult3" operator="out" result="filterResult9"/>
        <feComposite in="filterResult8" in2="filterResult9" operator="over" result="filterResult10"/>
        <feConvolveMatrix divisor="16.0" in="filterResult10" kernelMatrix="1 1 1 1 1 1 1 1 1 1 1 1 1 1 1 1" order="4 4" result="filterResult11"/>
        <feConvolveMatrix divisor="16.0" in="filterResult11" kernelMatrix="1 1 1 1 1 1 1 1 1 1 1 1 1 1 1 1" order="4 4" result="filterResult12"/>
        <feComposite in="filterResult12" in2="SourceGraphic" operator="out" result="filterResult13"/>
        <feComposite in="filterResult13" in2="SourceGraphic" operator="over" result="filterResult14"/>
      </filter>
      <use ffdec:characterId="2565" filter="url(#filter10)" height="67.5" transform="matrix(1.0, 0.0, 0.0, 1.0, -133.85, 20.9)" width="187.75" xlink:href="#text0"/>
    </g>
    <g id="shape0" transform="matrix(1.0, 0.0, 0.0, 1.0, 163.35, 11.35)">
      <path d="M-127.35 -1.0 Q-81.45 -2.95 -32.75 -3.15 L65.25 -3.15 Q102.4 -3.4 141.1 -2.6 160.0 -1.45 169.55 9.15 L169.85 9.55 Q179.05 20.0 179.05 35.3 L178.1 87.9 174.95 46.8 Q174.95 27.05 165.45 15.2 L164.6 14.3 Q152.15 1.8 124.9 3.2 115.65 2.75 104.15 2.9 85.9 3.05 65.25 2.65 L-32.75 2.65 -87.8 0.95 -127.35 -1.0 M136.25 1.5 Q156.9 3.5 162.0 8.15 L167.25 13.05 Q176.45 23.55 176.45 38.85 L176.45 51.15 178.1 68.4 178.1 36.9 Q178.1 21.6 168.9 11.1 L168.55 10.7 Q159.0 0.1 140.1 -1.0 L-95.9 -1.0 -86.85 -0.6 -81.6 -0.35 -32.75 0.95 136.25 1.5" fill="#59a157" fill-rule="evenodd" stroke="none"/>
      <path d="M136.25 1.5 L-32.75 0.95 -81.6 -0.35 -86.85 -0.6 -95.9 -1.0 140.1 -1.0 Q159.0 0.1 168.55 10.7 L168.9 11.1 Q178.1 21.6 178.1 36.9 L178.1 68.4 176.45 51.15 176.45 38.85 Q176.45 23.55 167.25 13.05 L162.0 8.15 Q156.9 3.5 136.25 1.5" fill="#73b871" fill-rule="evenodd" stroke="none"/>
      <path d="M-124.25 -11.35 L148.3 -11.35 Q164.45 -11.35 175.95 0.1 187.4 11.55 187.4 27.7 L187.4 82.4 Q187.4 90.8 184.35 97.9 L182.5 101.5 179.05 106.65 177.35 108.6 175.95 110.0 170.7 114.5 Q165.2 118.4 158.8 120.2 153.85 121.5 148.3 121.5 L-124.25 121.5 Q-140.4 121.5 -151.9 110.0 -157.35 104.55 -160.2 97.95 -163.35 90.8 -163.35 82.4 L-163.35 27.7 Q-163.35 19.5 -160.35 12.45 -159.45 10.25 -158.2 8.25 L-155.4 4.05 -153.6 1.9 -151.9 0.1 -149.95 -1.75 Q-139.05 -11.35 -124.25 -11.35 M-156.4 13.0 L-157.35 15.0 Q-160.15 21.45 -160.3 29.0 L-160.3 79.15 Q-159.85 94.45 -148.8 105.45 -137.35 116.9 -121.2 116.9 L151.4 116.9 Q160.1 116.9 167.45 113.6 L170.0 111.5 171.9 109.7 173.25 108.25 174.9 106.35 174.95 106.3 175.8 105.25 176.65 104.1 177.35 103.0 177.55 102.6 178.3 101.4 180.05 97.9 Q183.05 91.0 183.05 82.85 L183.05 29.8 Q183.05 14.1 171.9 3.0 160.75 -8.1 145.05 -8.1 L-122.3 -8.1 Q-131.7 -8.1 -139.45 -4.15 L-144.05 -1.3 Q-146.75 0.6 -149.15 3.0 L-150.8 4.8 -152.55 6.85 -153.65 8.35 -155.25 10.9 -156.4 13.0" fill="#145412" fill-rule="evenodd" stroke="none"/>
      <path d="M-153.65 8.35 L-152.55 6.85 -150.8 4.8 -149.15 3.0 Q-146.75 0.6 -144.05 -1.3 L-139.45 -4.15 Q-131.7 -8.1 -122.3 -8.1 L145.05 -8.1 Q160.75 -8.1 171.9 3.0 183.05 14.1 183.05 29.8 L183.05 82.85 Q183.05 91.0 180.05 97.9 L178.3 101.4 177.55 102.6 177.35 103.0 176.65 104.1 175.8 105.25 174.95 106.3 174.9 106.35 173.25 108.25 171.9 109.7 170.0 111.5 167.45 113.6 Q160.1 116.9 151.4 116.9 L-121.2 116.9 Q-137.35 116.9 -148.8 105.45 -159.85 94.45 -160.3 79.15 L-160.3 29.0 Q-160.15 21.45 -157.35 15.0 L-156.4 13.0 -156.65 17.35 -156.65 72.05 Q-156.65 88.2 -145.2 99.65 -133.7 111.1 -117.55 111.1 L155.05 111.1 Q166.4 111.1 175.5 105.45 L175.6 105.2 176.3 104.05 176.7 103.35 178.1 100.5 Q181.1 93.6 181.1 85.45 L181.1 32.4 Q181.1 16.7 169.95 5.65 158.8 -5.5 143.1 -5.5 L-124.25 -5.5 Q-136.6 -5.5 -146.0 1.35 L-149.2 3.85 -150.3 4.9 -151.1 5.65 -152.75 7.4 -153.65 8.35" fill="#246922" fill-rule="evenodd" stroke="none"/>
      <path d="M-156.4 13.0 L-155.25 10.9 -153.65 8.35 -152.75 7.4 -151.1 5.65 -150.3 4.9 -149.35 4.0 -149.2 3.85 Q-153.25 11.75 -153.25 13.95 L-153.25 68.65 Q-153.25 84.8 -141.8 96.3 -130.35 107.75 -114.2 107.75 L158.4 107.75 Q168.45 107.75 176.7 103.35 L176.3 104.05 175.6 105.2 175.5 105.45 Q166.4 111.1 155.05 111.1 L-117.55 111.1 Q-133.7 111.1 -145.2 99.65 -156.65 88.2 -156.65 72.05 L-156.65 17.35 -156.4 13.0" fill="#2a7428" fill-rule="evenodd" stroke="none"/>
      <path d="M-150.3 4.9 L-149.2 3.85 -149.35 4.0 -150.3 4.9" fill="url(#gradient0)" fill-rule="evenodd" stroke="none"/>
      <path d="M-127.35 -1.0 L-87.8 0.95 -32.75 2.65 65.25 2.65 Q85.9 3.05 104.15 2.9 115.65 2.75 124.9 3.2 152.15 1.8 164.6 14.3 L165.45 15.2 Q174.95 27.05 174.95 46.8 L178.1 87.9 179.05 35.3 Q179.05 20.0 169.85 9.55 L169.55 9.15 Q160.0 -1.45 141.1 -2.6 102.4 -3.4 65.25 -3.15 L-32.75 -3.15 Q-81.45 -2.95 -127.35 -1.0 M-149.2 3.85 L-146.0 1.35 Q-136.6 -5.5 -124.25 -5.5 L143.1 -5.5 Q158.8 -5.5 169.95 5.65 181.1 16.7 181.1 32.4 L181.1 85.45 Q181.1 93.6 178.1 100.5 L176.7 103.35 Q168.45 107.75 158.4 107.75 L-114.2 107.75 Q-130.35 107.75 -141.8 96.3 -153.25 84.8 -153.25 68.65 L-153.25 13.95 Q-153.25 11.75 -149.2 3.85" fill="url(#gradient1)" fill-rule="evenodd" stroke="none"/>
    </g>
    <radialGradient cx="0" cy="0" gradientTransform="matrix(0.1501, 0.0, 0.0, 0.0994, -2.8, 25.05)" gradientUnits="userSpaceOnUse" id="gradient0" r="819.2" spreadMethod="pad">
      <stop offset="0.3254901960784314" stop-color="#418a3f"/>
      <stop offset="1.0" stop-color="#367b34"/>
    </radialGradient>
    <radialGradient cx="0" cy="0" gradientTransform="matrix(0.3838, 0.0, 0.0, 0.0994, 95.2, 25.05)" gradientUnits="userSpaceOnUse" id="gradient1" r="819.2" spreadMethod="pad">
      <stop offset="0.3254901960784314" stop-color="#418a3f"/>
      <stop offset="1.0" stop-color="#367b34"/>
    </radialGradient>
    <g id="text0" transform="matrix(1.0, 0.0, 0.0, 1.0, -1.5, -6.7)">
      <g transform="matrix(1.0, 0.0, 0.0, 1.0, 0.0, 0.0)">
        <use fill="#b2dbb1" height="67.5" transform="matrix(0.0361, 0.0, 0.0, 0.0361, 0.0, 36.0)" width="187.75" xlink:href="#font_Fredoka_One_N0"/>
        <use fill="#b2dbb1" height="67.5" transform="matrix(0.0361, 0.0, 0.0, 0.0361, 28.65, 36.0)" width="187.75" xlink:href="#font_Fredoka_One_E0"/>
        <use fill="#b2dbb1" height="67.5" transform="matrix(0.0361, 0.0, 0.0, 0.0361, 54.25, 36.0)" width="187.75" xlink:href="#font_Fredoka_One_W0"/>
      </g>
      <g transform="matrix(1.0, 0.0, 0.0, 1.0, 0.0, 0.0)">
        <use fill="#b2dbb1" height="67.5" transform="matrix(0.0361, 0.0, 0.0, 0.0361, 0.0, 73.0)" width="187.75" xlink:href="#font_Fredoka_One_M0"/>
        <use fill="#b2dbb1" height="67.5" transform="matrix(0.0361, 0.0, 0.0, 0.0361, 34.2, 73.0)" width="187.75" xlink:href="#font_Fredoka_One_E0"/>
        <use fill="#b2dbb1" height="67.5" transform="matrix(0.0361, 0.0, 0.0, 0.0361, 59.8, 73.0)" width="187.75" xlink:href="#font_Fredoka_One_S0"/>
        <use fill="#b2dbb1" height="67.5" transform="matrix(0.0361, 0.0, 0.0, 0.0361, 83.35, 73.0)" width="187.75" xlink:href="#font_Fredoka_One_S0"/>
        <use fill="#b2dbb1" height="67.5" transform="matrix(0.0361, 0.0, 0.0, 0.0361, 106.9, 73.0)" width="187.75" xlink:href="#font_Fredoka_One_A0"/>
        <use fill="#b2dbb1" height="67.5" transform="matrix(0.0361, 0.0, 0.0, 0.0361, 137.2, 73.0)" width="187.75" xlink:href="#font_Fredoka_One_G0"/>
        <use fill="#b2dbb1" height="67.5" transform="matrix(0.0361, 0.0, 0.0, 0.0361, 165.6, 73.0)" width="187.75" xlink:href="#font_Fredoka_One_E0"/>
      </g>
    </g>
    <g id="font_Fredoka_One_N0">
      <path d="M526.0 -719.5 Q516.0 -701.5 516.0 -662.5 L516.0 -316.5 Q443.5 -410.5 227.5 -704.5 208.0 -728.0 204.0 -731.0 196.5 -738.5 178.5 -744.0 161.0 -749.5 130.0 -749.5 99.5 -749.5 80.0 -743.5 60.5 -737.5 50.5 -719.5 41.0 -701.5 41.0 -662.5 L41.0 -91.0 Q41.0 -67.5 42.5 -55.5 44.0 -43.0 52.0 -27.5 66.5 0.0 130.0 0.0 195.5 0.0 210.0 -27.5 218.0 -43.0 219.5 -54.5 221.0 -65.5 221.0 -90.0 L221.0 -427.0 Q294.0 -333.0 524.5 -25.5 534.5 -12.5 550.0 -6.0 565.5 0.0 605.0 0.0 670.5 0.0 685.0 -27.5 693.5 -43.0 695.0 -54.5 696.5 -65.5 696.5 -90.0 L696.5 -658.5 Q696.5 -694.5 690.0 -710.5 686.0 -725.0 677.5 -732.0 668.5 -739.5 651.0 -744.5 633.0 -749.5 603.5 -749.5 574.5 -749.5 555.0 -743.5 535.5 -737.5 526.0 -719.5" fill-rule="evenodd" stroke="none"/>
    </g>
    <g id="font_Fredoka_One_E0">
      <path d="M222.0 -181.0 L222.0 -284.5 423.0 -284.5 Q459.0 -284.5 476.0 -291.0 515.0 -303.0 515.0 -375.0 515.0 -440.5 487.5 -454.5 472.0 -463.0 460.5 -464.5 L425.0 -466.0 222.0 -466.0 222.0 -569.5 536.5 -569.5 Q572.5 -569.5 590.0 -575.5 627.5 -588.0 627.5 -659.5 627.5 -725.0 600.0 -739.5 584.5 -747.5 573.0 -749.0 L537.5 -750.5 134.0 -750.5 Q80.0 -750.5 60.5 -731.5 41.0 -712.5 41.0 -660.5 L41.0 -91.0 Q41.0 -55.5 47.0 -39.0 59.5 0.0 131.0 0.0 L536.5 0.0 Q572.5 0.0 590.0 -6.0 627.5 -18.5 627.5 -90.0 627.5 -155.5 600.0 -170.0 584.5 -178.0 573.0 -179.5 L537.5 -181.0 222.0 -181.0" fill-rule="evenodd" stroke="none"/>
    </g>
    <g id="font_Fredoka_One_W0">
      <path d="M939.0 -746.5 Q911.5 -756.5 891.0 -756.5 870.5 -756.5 856.5 -746.0 843.0 -735.0 837.5 -724.0 832.5 -712.5 824.5 -689.0 L711.5 -345.0 594.0 -700.5 Q588.0 -717.0 565.0 -733.5 542.5 -750.5 516.5 -750.5 490.5 -750.5 474.0 -743.5 436.0 -727.0 422.0 -684.0 366.0 -515.5 310.5 -347.0 L197.5 -689.0 Q187.5 -723.0 174.5 -739.5 162.0 -755.5 137.5 -755.5 113.5 -755.5 84.0 -745.5 15.5 -722.0 15.5 -681.0 15.5 -664.5 26.5 -631.0 L224.5 -62.5 231.5 -47.0 Q238.5 -31.5 259.5 -16.5 280.5 -1.0 313.5 -1.0 346.0 -1.0 369.5 -24.5 379.0 -34.0 386.0 -45.0 393.0 -56.5 395.5 -62.5 L511.0 -404.5 631.0 -51.0 Q638.0 -35.0 660.0 -18.0 682.0 -1.0 712.0 -1.0 742.5 -1.0 764.5 -18.0 786.5 -35.0 791.5 -45.0 796.5 -55.5 798.5 -62.5 L995.5 -631.0 Q1007.5 -667.5 1007.5 -681.0 1007.5 -722.0 939.0 -746.5" fill-rule="evenodd" stroke="none"/>
    </g>
    <g id="font_Fredoka_One_M0">
      <path d="M838.5 -722.0 Q824.5 -749.5 759.5 -749.5 694.5 -749.5 677.0 -722.0 618.5 -648.0 444.5 -418.0 328.0 -570.5 212.0 -723.0 L206.0 -729.0 Q199.5 -736.5 179.5 -743.0 159.5 -749.5 132.0 -749.5 67.5 -749.5 52.0 -723.0 44.0 -707.5 42.5 -696.0 41.0 -684.0 41.0 -660.5 L41.0 -92.0 Q41.0 -67.5 42.5 -55.5 44.0 -43.0 52.0 -28.5 67.5 -1.0 130.0 -1.0 194.5 -1.0 210.0 -28.5 218.0 -43.0 219.5 -55.0 221.0 -66.5 221.0 -90.0 L221.0 -435.0 Q226.5 -429.0 286.5 -345.5 347.0 -262.0 367.5 -236.5 371.5 -231.0 376.0 -225.5 384.0 -215.0 403.0 -204.5 422.0 -193.5 445.0 -193.5 468.0 -193.5 488.0 -205.5 508.0 -217.0 513.0 -223.5 518.0 -230.5 531.5 -248.0 545.0 -265.0 594.0 -334.5 643.0 -403.5 668.5 -435.0 L668.5 -92.0 Q668.5 -56.5 674.0 -39.0 679.0 -25.5 688.0 -18.5 697.5 -11.5 715.0 -6.0 732.0 -1.0 762.0 -1.0 791.5 -1.0 811.0 -7.0 850.0 -19.5 850.0 -90.0 L850.0 -658.5 Q850.0 -682.0 848.5 -694.5 847.0 -706.5 838.5 -722.0" fill-rule="evenodd" stroke="none"/>
    </g>
    <g id="font_Fredoka_One_S0">
      <path d="M52.0 -105.5 Q57.0 -100.0 61.5 -94.0 83.0 -63.5 137.0 -30.5 164.0 -13.5 207.0 -1.5 250.0 10.0 298.0 10.0 392.0 10.0 475.0 -44.0 518.0 -71.5 545.0 -122.5 571.5 -173.0 571.5 -239.5 571.5 -306.0 545.5 -351.5 519.0 -397.5 480.5 -415.5 441.5 -434.0 395.5 -447.0 349.0 -460.0 310.5 -466.0 271.5 -472.0 245.0 -489.5 219.0 -507.0 219.0 -535.0 219.0 -563.0 241.0 -579.0 263.0 -595.0 296.5 -595.0 329.5 -595.0 351.0 -581.5 358.5 -576.5 367.0 -568.5 376.0 -560.0 379.0 -558.0 410.5 -537.5 432.0 -537.5 469.0 -537.5 504.0 -589.0 528.5 -624.5 528.5 -645.0 528.5 -665.5 496.5 -695.5 L471.0 -714.5 Q451.5 -731.0 401.0 -747.0 350.0 -763.0 289.0 -763.0 173.0 -763.0 106.0 -696.0 39.0 -628.5 39.0 -538.5 39.0 -473.0 65.0 -426.5 91.0 -380.0 130.0 -358.5 169.0 -337.0 214.0 -321.0 259.0 -305.0 298.0 -298.0 337.0 -291.0 363.0 -275.0 389.0 -259.0 389.0 -235.5 389.0 -157.5 294.0 -157.5 271.5 -157.5 244.5 -173.5 218.0 -189.5 204.0 -207.0 152.5 -258.0 124.0 -258.0 95.0 -258.0 69.5 -233.5 25.5 -190.5 25.5 -164.5 25.5 -138.0 52.0 -105.5" fill-rule="evenodd" stroke="none"/>
    </g>
    <g id="font_Fredoka_One_A0">
      <path d="M391.0 -451.5 L460.0 -311.5 323.5 -311.5 Q357.5 -381.5 391.0 -451.5 M474.0 -697.5 Q447.5 -750.5 392.0 -750.5 366.5 -750.5 343.5 -736.5 320.5 -722.0 309.5 -698.5 171.0 -412.0 33.0 -126.0 15.5 -91.0 15.5 -73.5 15.5 -37.0 75.0 -8.0 109.5 9.0 129.5 9.0 149.5 9.0 162.5 -0.5 175.0 -10.0 180.5 -19.5 186.5 -28.5 196.5 -49.0 223.0 -104.5 250.0 -159.5 L533.5 -159.5 Q560.0 -104.5 587.0 -49.0 597.0 -28.5 602.5 -18.5 608.5 -8.0 621.0 1.0 634.0 10.0 654.0 10.0 674.0 10.0 708.5 -7.0 768.0 -37.0 768.0 -73.5 768.0 -91.0 750.5 -126.0 L474.0 -697.5" fill-rule="evenodd" stroke="none"/>
    </g>
    <g id="font_Fredoka_One_G0">
      <path d="M432.0 -452.5 Q401.5 -452.5 383.0 -443.5 370.5 -437.0 366.0 -421.0 361.5 -404.5 361.5 -377.5 361.5 -350.0 365.5 -334.5 369.5 -318.5 383.0 -310.5 396.5 -302.0 428.0 -302.0 L509.0 -302.0 509.0 -190.5 Q464.0 -172.0 407.5 -172.0 329.5 -172.0 268.5 -234.0 207.0 -296.0 207.0 -384.5 207.0 -473.0 267.5 -528.0 327.5 -582.5 405.5 -582.5 465.0 -582.5 508.0 -554.5 551.0 -526.5 570.5 -526.5 603.0 -526.5 643.0 -580.5 666.5 -613.5 666.5 -638.5 666.5 -663.5 639.0 -684.0 531.5 -764.0 410.5 -764.0 255.0 -764.0 140.5 -655.0 25.5 -546.0 25.5 -383.0 25.5 -220.0 138.0 -105.0 251.0 10.0 403.5 10.0 575.5 10.0 661.5 -79.0 690.0 -108.5 690.0 -141.5 L690.0 -366.5 Q690.0 -404.5 680.0 -424.0 667.5 -450.5 612.5 -452.5 L432.0 -452.5" fill-rule="evenodd" stroke="none"/>
    </g>
    <g id="sprite1" transform="matrix(1.0, 0.0, 0.0, 1.0, 1.8, 0.85)">
      <use ffdec:characterId="2567" height="39.75" transform="matrix(1.0, 0.0, 0.0, 1.0, -1.8, 4.55)" width="58.65" xlink:href="#sprite2"/>
      <filter id="filter12">
        <feOffset dx="-0.3135570753993684" dy="2.983568661932719" in="SourceGraphic" result="filterResult22"/>
        <feColorMatrix in="filterResult22" result="filterResult23" type="matrix" values="0 0 0 0 0.0,0 0 0 0 0.0,0 0 0 0 0.0,0 0 0 1 0"/>
        <feConvolveMatrix divisor="9.0" in="filterResult23" kernelMatrix="1 1 1 1 1 1 1 1 1" order="3 3" result="filterResult24"/>
        <feColorMatrix in="filterResult24" result="filterResult25" type="matrix" values="1 0 0 0 0,0 1 0 0 0,0 0 1 0 0,0 0 0 0.25 0"/>
        <feComposite in="SourceGraphic" in2="filterResult25" operator="over" result="filterResult26"/>
      </filter>
      <use ffdec:characterId="2568" filter="url(#filter12)" height="44.95" transform="matrix(0.7079, 0.0, 0.0, 0.7079, 30.3723, -0.8277)" width="44.95" xlink:href="#sprite3"/>
    </g>
    <g id="sprite2" transform="matrix(1.0, 0.0, 0.0, 1.0, -9.75, -8.05)">
      <use ffdec:characterId="182" height="39.75" transform="matrix(1.0, 0.0, 0.0, 1.0, 9.75, 8.05)" width="58.65" xlink:href="#shape1"/>
    </g>
    <g id="shape1" transform="matrix(1.0, 0.0, 0.0, 1.0, -9.75, -8.05)">
      <path d="M66.9 41.3 L66.9 14.55 Q66.9 9.55 61.9 9.55 L16.25 9.55 Q11.25 9.55 11.25 14.55 L11.25 41.3 Q11.25 46.3 16.25 46.3 L61.9 46.3 Q66.9 46.3 66.9 41.3 Z" fill="none" stroke="#5b4c44" stroke-linecap="round" stroke-linejoin="round" stroke-width="3.0"/>
      <path d="M12.95 10.45 Q14.15 9.55 16.25 9.55 L61.9 9.55 Q66.9 9.55 66.9 14.55 L66.9 41.3 66.85 42.3 Q65.65 43.15 63.55 43.15 L17.9 43.15 Q12.9 43.15 12.9 38.15 L12.9 11.4 12.95 10.45" fill="url(#gradient2)" fill-rule="evenodd" stroke="none"/>
      <path d="M12.95 10.45 L12.9 11.4 12.9 38.15 Q12.9 43.15 17.9 43.15 L63.55 43.15 Q65.65 43.15 66.85 42.3 66.4 46.3 61.9 46.3 L16.25 46.3 Q11.25 46.3 11.25 41.3 L11.25 14.55 Q11.25 11.65 12.95 10.45" fill="#d0dae2" fill-rule="evenodd" stroke="none"/>
      <path d="M66.85 42.3 L66.9 41.3 66.9 14.55 Q66.9 9.55 61.9 9.55 L16.25 9.55 Q14.15 9.55 12.95 10.45 11.25 11.65 11.25 14.55 L11.25 41.3 Q11.25 46.3 16.25 46.3 L61.9 46.3 Q66.4 46.3 66.85 42.3 Z" ffdec:has-small-stroke="true" ffdec:original-stroke-width="1.0" fill="none" stroke="#676767" stroke-linecap="round" stroke-linejoin="round" stroke-width="2.4605218697202935"/>
      <path d="M12.1 18.0 L11.2 17.45 11.7 15.1 39.15 32.05 66.7 15.05 67.05 17.5 66.25 18.0 47.85 29.3 47.9 29.35 49.1 30.05 65.6 40.3 65.6 40.35 67.15 41.3 66.65 43.85 46.9 31.45 45.7 30.7 39.15 34.65 32.7 30.7 31.5 31.45 11.7 43.7 11.25 41.15 12.7 40.3 12.7 40.25 29.3 30.05 30.5 29.3 12.1 18.0" fill="#666666" fill-opacity="0.9882353" fill-rule="evenodd" stroke="none"/>
      <path d="M66.25 18.0 L66.4 19.5 49.1 30.05 47.9 29.35 47.85 29.3 66.25 18.0 M46.9 31.45 L46.4 31.75 46.35 31.75 39.15 36.15 31.55 31.45 31.5 31.45 32.7 30.7 39.15 34.65 45.7 30.7 46.9 31.45 M29.3 30.05 L11.95 19.5 Q11.95 18.7 12.1 18.0 L30.5 29.3 29.3 30.05" fill="#000000" fill-opacity="0.2" fill-rule="evenodd" stroke="none"/>
    </g>
    <linearGradient gradientTransform="matrix(0.0, 0.0221, -0.0214, 0.0, 39.15, 27.9)" gradientUnits="userSpaceOnUse" id="gradient2" spreadMethod="pad" x1="-819.2" x2="819.2">
      <stop offset="0.027450980392156862" stop-color="#ffffff"/>
      <stop offset="0.6039215686274509" stop-color="#eeeeee"/>
    </linearGradient>
    <g id="sprite3" transform="matrix(1.0, 0.0, 0.0, 1.0, 3.5, 3.5)">
      <use ffdec:characterId="184" height="44.95" transform="matrix(1.0, 0.0, 0.0, 1.0, -3.5, -3.5)" width="44.95" xlink:href="#shape2"/>
    </g>
    <g id="shape2" transform="matrix(1.0, 0.0, 0.0, 1.0, 3.5, 3.5)">
      <path d="M24.6 0.0 L13.45 0.0 Q12.45 0.0 12.45 1.0 L12.45 12.4 1.0 12.4 Q0.0 12.4 0.0 13.4 L0.0 24.55 Q0.0 25.55 1.0 25.55 L12.45 25.55 12.45 36.95 Q12.45 37.95 13.45 37.95 L24.6 37.95 Q25.6 37.95 25.6 36.95 L25.6 25.55 36.95 25.55 Q37.95 25.55 37.95 24.55 L37.95 13.4 Q37.95 12.4 36.95 12.4 L25.6 12.4 25.6 1.0 Q25.6 0.0 24.6 0.0 Z" fill="none" stroke="#006000" stroke-linecap="round" stroke-linejoin="round" stroke-width="7.0"/>
      <path d="M24.6 0.0 Q25.6 0.0 25.6 1.0 L25.6 12.4 36.95 12.4 Q37.95 12.4 37.95 13.4 L37.95 24.55 Q37.95 25.55 36.95 25.55 L25.6 25.55 25.6 36.95 Q25.6 37.95 24.6 37.95 L13.45 37.95 Q12.45 37.95 12.45 36.95 L12.45 25.55 1.0 25.55 Q0.0 25.55 0.0 24.55 L0.0 13.4 Q0.0 12.4 1.0 12.4 L12.45 12.4 12.45 1.0 Q12.45 0.0 13.45 0.0 L24.6 0.0" fill="url(#gradient3)" fill-rule="evenodd" stroke="none"/>
    </g>
    <linearGradient gradientTransform="matrix(0.0, 0.0162, -0.032, 0.0, 17.5, 11.6)" gradientUnits="userSpaceOnUse" id="gradient3" spreadMethod="pad" x1="-819.2" x2="819.2">
      <stop offset="0.13725490196078433" stop-color="#cbffd2"/>
      <stop offset="0.7803921568627451" stop-color="#00cc33"/>
    </linearGradient>
    <g id="sprite4" transform="matrix(1.0, 0.0, 0.0, 1.0, 43.1, 7.3)">
      <clipPath id="clipPath0">
        <path d="M -42.6 -6.8 L -42.6 310.6 L 267.4 310.6 L 267.4 310.55 L 267.4 -6.8 Z"/>
      </clipPath>
      <g clip-path="url(#clipPath0)">
        <use ffdec:characterId="2572" height="0.0" id="itemsHolder_spr" transform="matrix(1.0, 0.0, 0.0, 1.0, 0.0, 0.0)" width="0.0" xlink:href="#sprite5"/>
      </g>
    </g>
    <g id="text1" transform="matrix(1.0, 0.0, 0.0, 1.0, -31.75, 2.0)">
      <g transform="matrix(1.0, 0.0, 0.0, 1.0, 31.75, -2.0)">
        <use fill="#084432" height="16.05" transform="matrix(0.0098, 0.0, 0.0, 0.0098, 50.3, 11.45)" width="151.0" xlink:href="#font_GosmickSansBold_80"/>
        <use fill="#084432" height="16.05" transform="matrix(0.0098, 0.0, 0.0, 0.0098, 55.85, 11.45)" width="151.0" xlink:href="#font_GosmickSansBold_-0"/>
        <use fill="#084432" height="16.05" transform="matrix(0.0098, 0.0, 0.0, 0.0098, 60.05, 11.45)" width="151.0" xlink:href="#font_GosmickSansBold_10"/>
        <use fill="#084432" height="16.05" transform="matrix(0.0098, 0.0, 0.0, 0.0098, 63.05, 11.45)" width="151.0" xlink:href="#font_GosmickSansBold_40"/>
      </g>
      <g transform="matrix(1.0, 0.0, 0.0, 1.0, 31.75, -2.0)">
        <use fill="#084432" height="16.05" transform="matrix(0.0098, 0.0, 0.0, 0.0098, 72.1, 11.45)" width="151.0" xlink:href="#font_GosmickSansBold_o0"/>
        <use fill="#084432" height="16.05" transform="matrix(0.0098, 0.0, 0.0, 0.0098, 77.05, 11.45)" width="151.0" xlink:href="#font_GosmickSansBold_f0"/>
      </g>
      <g transform="matrix(1.0, 0.0, 0.0, 1.0, 31.75, -2.0)">
        <use fill="#084432" height="16.05" transform="matrix(0.0098, 0.0, 0.0, 0.0098, 83.95, 11.45)" width="151.0" xlink:href="#font_GosmickSansBold_20"/>
        <use fill="#084432" height="16.05" transform="matrix(0.0098, 0.0, 0.0, 0.0098, 89.55, 11.45)" width="151.0" xlink:href="#font_GosmickSansBold_20"/>
        <use fill="#084432" height="16.05" transform="matrix(0.0098, 0.0, 0.0, 0.0098, 95.15, 11.45)" width="151.0" xlink:href="#font_GosmickSansBold_30"/>
      </g>
    </g>
    <g id="font_GosmickSansBold_80">
      <path d="M357.5 -525.5 Q357.5 -564.5 332.0 -587.0 306.0 -609.5 267.5 -609.5 221.0 -609.5 195.5 -583.0 170.0 -556.0 170.0 -516.5 171.0 -482.5 196.0 -461.0 221.0 -439.5 264.0 -437.5 307.0 -439.5 332.5 -464.0 357.5 -488.5 357.5 -525.5 M413.5 -204.5 Q413.5 -236.0 402.0 -258.5 390.0 -280.5 370.0 -294.0 350.0 -308.0 324.0 -313.5 298.0 -319.0 269.5 -318.0 247.0 -318.0 227.5 -309.5 208.0 -300.5 193.0 -287.0 178.0 -273.0 169.5 -255.5 161.0 -238.5 161.0 -220.0 161.0 -193.0 170.5 -170.5 180.0 -148.0 197.5 -132.0 215.0 -115.5 238.5 -106.5 262.0 -98.0 289.0 -98.0 344.0 -98.0 379.0 -127.0 413.5 -156.5 413.5 -204.5 M547.0 -209.0 Q547.0 -164.0 527.5 -123.0 508.0 -82.0 473.0 -50.5 438.5 -19.5 390.0 -1.0 342.0 17.5 285.5 17.5 234.5 17.5 189.5 3.0 144.5 -11.0 110.0 -38.5 76.0 -65.5 54.5 -103.5 33.0 -141.5 29.5 -189.5 27.5 -244.5 49.5 -292.5 71.5 -340.0 118.0 -368.5 79.0 -403.5 62.5 -437.0 46.0 -470.0 47.0 -519.5 49.0 -562.5 69.0 -598.5 89.0 -635.0 121.5 -661.5 153.5 -688.5 196.0 -703.0 238.5 -718.0 285.5 -718.0 329.5 -718.0 368.5 -703.5 407.5 -689.5 435.5 -663.0 464.0 -637.0 478.5 -601.5 493.5 -566.5 491.5 -523.5 486.5 -475.0 466.0 -448.0 445.5 -421.0 419.0 -398.5 L421.0 -397.5 Q422.0 -397.5 424.0 -396.5 L422.0 -397.5 Q460.0 -386.0 484.0 -358.0 508.0 -330.0 521.5 -299.0 535.5 -268.5 541.0 -242.0 547.0 -216.0 547.0 -209.0" fill-rule="evenodd" stroke="none"/>
    </g>
    <g id="font_GosmickSansBold_-0">
      <path d="M409.5 -327.5 L409.5 -323.5 Q409.5 -321.5 407.5 -312.5 405.5 -303.0 401.5 -295.0 395.5 -276.5 387.0 -266.0 379.0 -256.0 366.5 -250.5 354.5 -245.5 337.5 -244.0 L298.0 -242.5 262.0 -242.5 Q228.5 -242.5 223.0 -243.5 L212.5 -244.0 Q206.0 -244.5 194.5 -244.5 171.0 -244.5 154.5 -244.0 L124.0 -242.5 104.5 -241.5 83.0 -241.5 Q33.0 -241.5 26.5 -282.5 24.5 -288.5 26.5 -297.0 28.5 -305.0 33.0 -312.5 44.0 -343.0 67.0 -351.5 90.0 -359.5 136.0 -359.5 L143.5 -359.5 154.5 -358.5 197.5 -358.5 Q206.0 -358.5 216.0 -358.0 226.5 -357.5 249.0 -357.5 L306.0 -357.5 Q314.5 -357.5 328.0 -358.0 342.0 -358.5 369.5 -358.5 371.5 -357.5 375.5 -357.0 379.0 -356.5 381.0 -355.5 L380.0 -355.5 Q391.0 -352.5 399.0 -348.5 406.5 -345.0 409.5 -327.5" fill-rule="evenodd" stroke="none"/>
    </g>
    <g id="font_GosmickSansBold_10">
      <path d="M292.0 -42.0 Q292.0 -25.5 285.0 -16.5 278.5 -7.0 267.5 -3.0 256.0 1.0 241.5 1.5 227.5 2.0 212.0 1.0 L201.0 0.5 190.5 0.0 119.0 0.0 Q92.0 0.0 83.0 -5.0 73.5 -10.0 76.0 -18.5 78.0 -26.5 87.5 -38.5 L108.5 -62.5 124.0 -81.0 125.0 -244.0 Q125.0 -289.0 128.0 -340.5 131.0 -392.5 134.0 -439.5 L139.5 -504.0 Q141.5 -533.5 141.5 -552.0 L140.5 -552.0 Q132.0 -552.0 124.5 -549.5 116.5 -547.0 108.5 -545.0 100.5 -543.0 95.0 -540.0 90.0 -536.5 79.0 -536.5 58.5 -536.5 42.0 -550.5 25.5 -564.5 23.5 -585.0 L24.5 -583.0 Q19.5 -601.5 36.5 -619.0 53.5 -637.0 81.5 -654.0 109.5 -671.0 142.5 -685.0 175.0 -699.5 203.0 -710.0 215.0 -717.0 228.5 -717.0 240.5 -715.0 249.0 -709.0 257.0 -702.5 262.0 -690.5 275.5 -676.0 278.5 -658.5 281.5 -641.0 281.5 -620.5 L281.5 -604.5 Q281.5 -596.0 280.5 -589.0 279.5 -581.0 279.0 -570.5 278.5 -560.5 277.5 -551.0 L271.5 -471.0 265.5 -390.0 Q263.0 -349.5 261.5 -312.0 260.0 -274.5 260.0 -245.0 259.0 -199.5 261.5 -153.5 264.0 -107.5 267.5 -79.0 269.5 -75.0 272.0 -71.0 L276.5 -64.5 277.5 -64.5 Q282.5 -61.5 287.0 -59.0 292.0 -56.5 292.0 -42.0" fill-rule="evenodd" stroke="none"/>
    </g>
    <g id="font_GosmickSansBold_40">
      <path d="M616.5 -254.0 Q617.5 -236.5 608.5 -220.0 599.0 -203.5 585.0 -191.0 571.5 -178.0 557.0 -171.0 542.5 -163.5 534.5 -166.0 L519.0 -167.0 505.0 -167.0 494.5 -167.0 490.0 -166.5 483.5 -166.0 Q483.5 -161.5 484.0 -150.0 L485.0 -124.0 Q485.5 -109.5 486.5 -95.5 487.5 -82.0 488.5 -74.5 489.5 -60.5 482.0 -46.5 474.0 -33.0 462.0 -22.0 449.5 -11.5 436.5 -5.0 424.0 1.0 414.5 1.0 394.0 1.0 381.5 -21.0 368.5 -43.0 362.0 -71.5 355.5 -100.0 352.5 -126.5 349.0 -153.5 349.0 -161.5 L347.0 -161.5 336.0 -161.0 324.5 -160.5 Q282.5 -158.5 240.0 -158.0 197.5 -157.5 162.0 -157.5 L109.5 -157.5 Q88.0 -157.5 72.5 -164.0 57.5 -170.5 48.0 -181.5 39.0 -192.0 35.0 -204.0 30.5 -216.0 31.5 -227.0 29.5 -233.0 31.5 -241.0 34.0 -248.5 42.0 -262.0 L70.5 -307.0 Q105.5 -358.5 127.0 -393.0 148.5 -428.0 162.5 -456.0 176.0 -484.5 186.0 -512.0 L208.0 -576.5 212.5 -590.5 Q215.0 -598.0 218.0 -605.5 224.5 -632.0 237.5 -652.5 251.0 -673.0 267.0 -687.5 282.5 -701.5 298.0 -709.5 313.5 -717.0 322.5 -717.0 339.0 -717.0 355.0 -703.5 370.5 -690.5 374.0 -673.0 374.0 -660.5 369.5 -637.5 365.5 -614.5 357.5 -593.0 352.5 -575.5 345.5 -562.0 L333.0 -536.5 322.5 -513.0 Q315.5 -497.5 307.0 -481.5 290.0 -446.5 270.0 -408.5 250.0 -370.5 232.5 -340.0 L233.5 -341.0 219.0 -312.5 Q213.0 -300.0 205.0 -285.5 L207.0 -285.5 267.5 -285.5 Q303.0 -285.5 350.0 -287.5 L351.0 -287.5 Q351.0 -288.5 352.5 -288.5 L351.0 -288.5 Q354.5 -294.5 357.5 -301.0 353.5 -297.0 353.5 -312.0 353.5 -328.5 354.5 -347.0 L356.5 -413.5 Q357.5 -450.5 359.5 -474.0 362.5 -494.5 372.0 -507.0 382.0 -520.0 394.0 -527.0 406.5 -534.5 418.5 -537.0 430.0 -539.5 436.0 -539.5 496.5 -539.5 493.5 -464.5 L491.5 -414.5 Q490.5 -386.0 489.0 -360.5 L486.5 -316.5 485.5 -299.0 Q483.5 -292.5 481.5 -291.5 L503.0 -292.5 Q515.0 -293.5 525.5 -295.5 534.5 -297.0 545.5 -297.5 556.0 -298.0 566.5 -298.0 585.5 -295.5 599.5 -286.0 613.5 -276.5 616.5 -254.0" fill-rule="evenodd" stroke="none"/>
    </g>
    <g id="font_GosmickSansBold_o0">
      <path d="M361.5 -252.0 Q361.5 -284.5 354.5 -313.0 347.0 -341.0 334.5 -361.5 321.5 -382.0 302.5 -393.5 283.5 -405.5 260.0 -405.5 235.5 -405.5 215.5 -393.5 195.5 -382.0 181.0 -361.5 167.0 -341.0 159.0 -314.0 151.5 -286.5 151.5 -256.0 151.5 -226.5 158.0 -199.0 165.0 -172.0 178.0 -151.5 191.5 -131.0 210.0 -119.0 228.5 -106.5 253.0 -106.5 277.5 -106.5 297.5 -118.0 317.5 -129.0 332.0 -148.5 346.0 -168.0 354.0 -194.5 361.5 -221.0 361.5 -252.0 M486.5 -240.5 Q482.5 -186.0 462.5 -140.0 442.5 -94.0 410.5 -59.0 379.0 -24.5 336.5 -5.0 294.0 14.5 245.5 14.5 196.5 14.5 156.5 -5.5 116.5 -25.5 88.0 -59.5 59.0 -94.0 44.0 -140.5 28.5 -187.0 28.5 -240.5 28.5 -299.0 47.0 -349.5 65.5 -400.0 97.5 -437.5 130.0 -475.0 174.5 -496.5 219.0 -518.0 271.5 -518.0 322.5 -518.0 364.0 -496.0 405.5 -474.0 434.0 -436.5 463.0 -399.0 477.0 -348.5 490.5 -298.0 486.5 -240.5" fill-rule="evenodd" stroke="none"/>
    </g>
    <g id="font_GosmickSansBold_f0">
      <path d="M435.0 -676.0 L436.0 -668.0 434.5 -650.5 Q434.0 -643.5 434.0 -636.0 433.0 -605.5 426.5 -590.0 420.0 -574.5 395.5 -572.5 372.5 -569.5 363.5 -580.5 354.5 -591.0 349.0 -605.5 347.0 -612.5 342.0 -618.5 337.0 -625.0 319.5 -623.0 292.0 -623.0 274.5 -591.0 257.0 -559.5 258.0 -503.0 L280.5 -503.0 285.0 -503.5 290.0 -504.0 323.5 -504.0 Q359.5 -504.0 376.0 -490.5 392.0 -477.0 392.0 -449.5 391.0 -434.0 386.0 -423.0 381.0 -411.5 368.0 -404.5 355.5 -397.0 332.5 -392.5 309.5 -388.0 273.5 -386.0 262.0 -383.0 259.0 -373.0 256.0 -363.5 256.0 -346.0 L256.0 -320.5 Q255.0 -306.0 255.0 -289.5 L255.0 -257.0 255.0 -153.5 Q255.0 -139.0 256.0 -125.5 L258.0 -97.0 258.0 -68.5 Q258.0 -1.0 205.0 16.5 172.0 28.0 155.5 18.5 139.5 9.5 131.5 -11.5 124.0 -32.5 123.5 -60.5 123.0 -88.0 123.0 -115.5 L123.0 -364.5 Q123.0 -374.5 121.0 -376.5 119.0 -379.0 112.5 -377.5 L80.0 -377.5 Q52.0 -377.5 41.0 -390.5 29.5 -403.5 27.5 -419.5 L29.5 -413.5 Q27.5 -425.0 33.5 -444.0 39.0 -462.5 45.0 -471.0 L45.0 -470.0 Q56.5 -484.0 73.5 -488.5 91.0 -492.5 108.5 -494.5 L120.0 -495.5 Q127.0 -495.5 129.0 -494.5 130.0 -543.5 141.5 -586.0 152.5 -629.0 174.0 -661.0 195.5 -693.5 228.0 -713.5 260.0 -733.5 304.0 -737.5 333.0 -737.5 356.0 -730.0 379.0 -722.0 396.0 -712.0 412.5 -701.5 423.0 -692.0 433.0 -682.0 435.0 -676.0" fill-rule="evenodd" stroke="none"/>
    </g>
    <g id="font_GosmickSansBold_20">
      <path d="M552.0 -81.0 Q555.0 -68.5 547.0 -54.0 538.5 -40.0 525.0 -28.5 511.0 -17.5 494.0 -10.0 477.0 -3.0 462.0 -3.0 L443.0 -4.5 Q434.0 -5.0 425.0 -5.0 L395.5 -5.0 326.5 -5.0 Q292.0 -5.0 256.5 -4.5 221.0 -4.0 188.5 -2.5 L128.0 1.0 130.0 1.0 122.5 2.5 112.5 3.0 Q103.5 3.0 93.0 -3.0 L92.0 -3.0 Q86.0 -7.0 80.0 -9.0 64.5 -17.5 52.0 -29.0 40.0 -41.0 38.0 -62.5 38.0 -75.5 45.5 -95.0 53.5 -114.5 66.0 -136.0 79.0 -157.5 93.5 -178.0 108.5 -198.5 122.0 -214.0 139.5 -233.5 158.0 -253.0 L192.5 -288.5 191.5 -288.5 Q232.5 -332.5 263.0 -367.0 294.0 -401.5 314.0 -429.5 334.0 -457.5 342.5 -481.5 351.0 -506.0 347.0 -529.5 347.0 -540.5 340.0 -551.0 333.0 -561.0 322.0 -569.0 311.5 -577.5 298.5 -582.5 285.5 -587.5 275.5 -588.5 251.0 -592.0 228.0 -585.0 205.0 -578.5 183.5 -564.0 169.0 -553.0 157.0 -538.0 145.5 -523.0 136.0 -510.0 125.0 -493.5 115.5 -482.0 106.5 -471.0 89.0 -471.0 37.0 -469.0 30.5 -518.0 27.5 -552.0 51.0 -586.0 75.0 -620.5 112.5 -647.5 150.5 -674.5 197.0 -691.5 243.5 -708.5 285.5 -708.5 324.5 -708.5 361.5 -695.5 398.5 -683.0 426.5 -659.5 454.5 -636.0 472.0 -603.5 489.5 -571.5 489.5 -531.5 489.5 -494.5 479.5 -462.0 470.0 -430.0 450.5 -399.0 431.0 -367.5 401.0 -335.0 370.5 -302.0 331.0 -264.0 293.0 -229.5 256.5 -194.0 220.0 -158.5 204.0 -130.0 205.0 -130.0 206.0 -131.0 L253.0 -134.0 Q261.0 -134.0 273.0 -134.5 284.5 -135.0 296.0 -135.0 314.5 -135.0 334.5 -134.5 L372.5 -133.0 405.0 -131.5 Q420.0 -131.0 432.0 -131.0 493.5 -132.0 521.5 -118.0 550.0 -104.5 552.0 -81.0" fill-rule="evenodd" stroke="none"/>
    </g>
    <g id="font_GosmickSansBold_30">
      <path d="M546.0 -214.0 Q546.0 -167.0 526.5 -125.5 507.0 -84.0 471.5 -53.0 436.0 -22.5 388.0 -4.5 340.0 13.5 283.5 13.5 239.5 13.5 196.5 0.5 153.5 -12.0 118.5 -33.0 83.0 -54.0 59.5 -82.5 36.0 -110.5 30.5 -141.0 L31.5 -139.0 Q28.5 -153.5 33.5 -167.5 38.0 -181.0 48.0 -192.0 58.5 -202.5 71.0 -209.5 84.0 -216.0 96.5 -216.0 112.5 -216.0 122.5 -209.5 132.0 -202.5 142.5 -185.5 168.0 -152.5 197.0 -130.0 226.5 -107.5 273.5 -103.5 304.0 -101.5 329.0 -108.0 354.5 -114.5 372.0 -127.5 390.0 -140.0 400.0 -158.0 409.5 -176.0 409.5 -197.5 409.5 -226.0 397.0 -249.5 384.0 -272.5 362.5 -288.5 341.0 -305.0 313.0 -314.0 284.5 -322.5 253.0 -323.5 L233.0 -322.0 207.0 -318.5 197.5 -318.5 Q174.0 -321.5 159.5 -330.5 145.5 -340.0 143.5 -360.5 140.5 -383.0 159.5 -407.0 179.0 -431.0 223.0 -435.0 246.0 -440.0 268.5 -447.0 291.0 -453.5 309.0 -463.0 327.5 -472.0 339.0 -486.0 350.0 -499.5 350.0 -518.0 350.0 -549.0 327.5 -567.0 305.0 -585.5 272.5 -591.0 236.5 -595.0 204.0 -581.0 171.0 -567.0 139.5 -541.5 134.0 -529.5 123.0 -523.5 111.5 -518.0 98.5 -518.0 73.5 -518.0 58.5 -537.0 43.0 -556.0 49.0 -580.5 54.5 -607.0 76.5 -630.5 98.5 -654.0 129.0 -671.0 159.5 -688.0 195.0 -698.0 230.5 -707.5 263.0 -707.5 313.5 -707.5 356.5 -693.5 399.5 -680.0 429.0 -655.0 459.0 -629.5 474.0 -595.0 489.5 -560.0 486.5 -519.0 481.5 -482.0 459.0 -450.5 436.0 -418.5 402.5 -395.0 L403.5 -395.0 Q433.0 -383.0 459.5 -366.0 485.5 -349.0 504.5 -326.5 523.5 -304.0 534.5 -278.0 546.0 -252.0 546.0 -221.0 L546.0 -214.0" fill-rule="evenodd" stroke="none"/>
    </g>
    <g id="text2" transform="matrix(1.0, 0.0, 0.0, 1.0, 27.5, 2.0)">
      <g transform="matrix(1.0, 0.0, 0.0, 1.0, -27.5, -2.0)">
        <use fill="#145f49" height="20.8" transform="matrix(0.0137, 0.0, 0.0, 0.0137, 71.3, 15.25)" width="195.0" xlink:href="#font_GosmickSansBold_L0"/>
        <use fill="#145f49" height="20.8" transform="matrix(0.0137, 0.0, 0.0, 0.0137, 78.15, 15.25)" width="195.0" xlink:href="#font_GosmickSansBold_o0"/>
        <use fill="#145f49" height="20.8" transform="matrix(0.0137, 0.0, 0.0, 0.0137, 85.1, 15.25)" width="195.0" xlink:href="#font_GosmickSansBold_a0"/>
        <use fill="#145f49" height="20.8" transform="matrix(0.0137, 0.0, 0.0, 0.0137, 91.7, 15.25)" width="195.0" xlink:href="#font_GosmickSansBold_d0"/>
        <use fill="#145f49" height="20.8" transform="matrix(0.0137, 0.0, 0.0, 0.0137, 99.05, 15.25)" width="195.0" xlink:href="#font_GosmickSansBold_i0"/>
        <use fill="#145f49" height="20.8" transform="matrix(0.0137, 0.0, 0.0, 0.0137, 101.6, 15.25)" width="195.0" xlink:href="#font_GosmickSansBold_n0"/>
        <use fill="#145f49" height="20.8" transform="matrix(0.0137, 0.0, 0.0, 0.0137, 108.6, 15.25)" width="195.0" xlink:href="#font_GosmickSansBold_g0"/>
        <use fill="#145f49" height="20.8" transform="matrix(0.0137, 0.0, 0.0, 0.0137, 115.6, 15.25)" width="195.0" xlink:href="#font_GosmickSansBold_.0"/>
        <use fill="#145f49" height="20.8" transform="matrix(0.0137, 0.0, 0.0, 0.0137, 118.3, 15.25)" width="195.0" xlink:href="#font_GosmickSansBold_.0"/>
        <use fill="#145f49" height="20.8" transform="matrix(0.0137, 0.0, 0.0, 0.0137, 121.0, 15.25)" width="195.0" xlink:href="#font_GosmickSansBold_.0"/>
      </g>
    </g>
    <g id="font_GosmickSansBold_L0">
      <path d="M479.0 -78.0 L479.0 -81.0 Q485.5 -54.5 470.0 -38.0 454.5 -21.5 422.5 -12.5 390.0 -3.5 343.5 1.5 297.0 6.0 242.5 8.0 L225.0 8.5 208.0 9.0 170.5 7.5 139.5 4.0 Q103.5 -2.0 81.5 -16.5 59.5 -31.0 47.5 -54.0 36.0 -77.0 32.5 -108.5 28.5 -140.5 28.5 -181.5 28.5 -195.0 29.0 -209.0 29.5 -223.5 29.5 -240.0 29.5 -251.0 30.0 -262.5 30.5 -273.5 30.5 -286.0 30.5 -316.5 31.5 -358.5 33.0 -400.5 34.0 -446.0 35.0 -491.5 36.5 -536.5 L39.0 -617.5 Q39.0 -626.0 39.5 -633.5 40.0 -641.0 40.0 -649.5 40.0 -661.5 45.0 -671.5 50.0 -681.0 57.5 -688.5 64.5 -695.5 72.0 -700.0 80.0 -704.5 85.0 -708.0 104.5 -713.0 123.5 -708.0 142.5 -702.5 156.5 -693.5 171.0 -684.0 179.0 -673.0 187.5 -661.5 187.5 -654.5 L188.5 -656.5 Q188.5 -651.5 188.0 -647.0 187.5 -642.0 186.5 -637.0 184.5 -627.0 184.5 -619.5 180.0 -582.0 177.5 -539.0 175.0 -496.0 173.0 -450.0 171.0 -404.5 170.0 -359.0 169.0 -313.5 169.0 -270.5 L169.0 -222.5 Q169.0 -191.5 169.5 -168.5 170.0 -145.5 172.0 -124.0 196.5 -112.0 239.5 -115.0 L257.0 -115.5 274.5 -116.0 332.5 -118.0 Q363.5 -119.0 410.5 -125.0 L408.5 -125.0 Q414.5 -127.0 419.0 -126.5 423.0 -126.0 428.0 -124.0 L429.0 -124.0 Q449.5 -124.0 463.5 -111.0 477.0 -97.5 479.0 -78.0" fill-rule="evenodd" stroke="none"/>
    </g>
    <g id="font_GosmickSansBold_a0">
      <path d="M330.5 -196.5 Q330.5 -206.0 329.5 -213.5 328.5 -221.0 326.5 -226.5 312.0 -237.5 294.0 -246.0 276.0 -254.0 254.5 -254.0 203.5 -254.0 171.5 -228.0 140.0 -201.5 140.0 -167.0 140.0 -133.0 161.0 -113.0 182.0 -93.0 219.0 -93.0 247.5 -93.0 269.5 -102.5 291.5 -111.5 309.0 -125.0 322.5 -142.5 326.5 -161.5 330.5 -180.0 330.5 -196.5 M461.5 -54.0 L462.5 -52.0 Q463.5 -41.0 458.0 -29.0 452.5 -17.5 442.0 -7.0 432.0 3.0 420.0 9.5 408.5 15.5 398.0 15.5 377.5 15.5 363.5 2.0 349.0 -11.0 339.0 -32.5 310.0 -10.0 281.5 0.0 253.0 10.5 220.0 13.5 181.0 16.5 146.5 9.0 111.5 1.0 85.0 -20.0 58.0 -41.0 43.0 -76.0 27.5 -111.5 27.5 -163.5 27.5 -231.5 52.5 -270.5 77.5 -310.0 112.0 -330.0 146.5 -350.0 183.0 -355.5 220.0 -361.5 243.5 -360.5 273.5 -358.5 293.0 -354.5 313.0 -351.0 327.5 -346.0 327.5 -358.5 324.0 -371.5 320.5 -385.0 310.5 -395.5 301.0 -406.5 283.0 -412.5 265.0 -418.5 236.5 -417.5 190.5 -414.5 169.5 -402.5 148.5 -390.0 136.0 -380.0 L128.0 -373.0 Q124.0 -369.5 119.5 -367.5 112.5 -363.5 101.0 -363.0 L84.0 -363.5 83.0 -363.5 Q70.5 -363.5 63.5 -376.5 56.0 -390.0 51.0 -401.5 49.0 -403.5 48.5 -410.5 L48.0 -417.5 Q53.0 -442.0 70.5 -462.0 88.0 -482.0 113.5 -497.0 139.0 -512.0 171.0 -520.5 202.5 -529.5 238.5 -531.5 290.5 -534.5 327.0 -523.5 363.5 -513.0 387.0 -494.5 410.5 -476.0 423.5 -452.5 436.0 -429.0 442.0 -404.5 448.5 -380.0 449.0 -356.5 L449.5 -318.5 449.5 -310.0 449.5 -285.5 Q449.5 -273.5 448.5 -260.0 447.5 -239.5 447.5 -216.0 L447.5 -174.0 Q447.5 -143.0 450.5 -117.0 453.5 -91.0 461.5 -54.0" fill-rule="evenodd" stroke="none"/>
    </g>
    <g id="font_GosmickSansBold_d0">
      <path d="M370.5 -263.0 Q370.5 -327.5 345.5 -367.0 320.5 -406.5 268.0 -406.5 211.0 -406.5 180.0 -363.0 149.5 -319.5 149.5 -242.5 149.5 -215.0 157.5 -190.5 166.0 -166.0 179.5 -148.0 193.5 -130.0 213.0 -120.0 232.5 -109.5 254.0 -109.5 312.0 -109.5 341.5 -151.5 370.5 -193.5 370.5 -263.0 M515.0 -54.5 L514.0 -57.5 Q514.0 -51.5 507.0 -40.5 500.5 -30.0 490.5 -20.0 480.0 -10.5 467.5 -2.5 454.5 5.0 442.0 5.0 L434.0 4.0 Q427.0 3.0 417.0 -1.5 407.5 -6.5 396.0 -14.0 385.0 -21.5 375.5 -36.0 352.0 -18.5 323.0 -5.5 293.5 7.0 264.0 9.0 216.0 12.0 173.0 -4.0 130.0 -20.5 98.0 -53.5 66.5 -86.0 48.0 -133.0 29.5 -180.0 29.5 -237.5 29.5 -295.0 47.5 -345.5 65.5 -396.0 97.5 -434.5 130.0 -473.0 175.0 -495.5 220.0 -518.0 274.0 -518.0 305.0 -518.0 329.5 -510.5 354.0 -502.5 375.5 -490.5 L377.0 -589.0 Q377.5 -635.0 379.5 -675.0 380.5 -686.0 385.5 -696.0 390.0 -705.5 399.0 -710.5 406.5 -721.0 417.0 -723.0 428.0 -725.0 438.0 -726.0 446.5 -726.0 450.5 -727.0 486.0 -729.0 499.5 -703.5 513.0 -678.0 511.0 -635.0 L506.0 -540.5 Q503.5 -491.5 502.0 -441.0 500.5 -390.0 499.5 -340.0 498.5 -290.0 498.5 -243.0 498.5 -203.0 500.5 -171.0 502.5 -139.5 506.5 -116.0 L505.5 -117.0 Q506.5 -115.0 507.5 -110.5 L510.0 -101.5 Q512.0 -90.0 513.5 -76.5 515.0 -62.5 515.0 -54.5" fill-rule="evenodd" stroke="none"/>
    </g>
    <g id="font_GosmickSansBold_i0">
      <path d="M173.0 -642.0 Q171.0 -628.5 162.5 -614.5 153.5 -600.0 140.5 -588.0 127.0 -576.5 110.5 -570.5 94.0 -564.0 76.0 -567.0 48.0 -571.5 37.5 -596.0 26.5 -620.5 28.5 -650.0 31.5 -683.0 54.0 -706.5 76.0 -730.0 109.5 -730.0 128.0 -730.0 141.5 -722.0 154.5 -713.5 162.5 -700.5 170.0 -687.0 172.5 -671.5 175.0 -656.5 173.0 -642.0 M164.0 -442.5 L162.0 -399.5 Q161.0 -378.0 159.5 -357.5 157.5 -318.5 156.5 -282.5 155.5 -247.0 155.5 -210.0 155.5 -171.0 156.5 -134.5 157.5 -98.5 159.5 -71.5 159.5 -57.5 151.0 -44.0 142.5 -31.0 130.5 -20.0 119.0 -9.5 106.5 -2.5 94.0 4.0 86.0 4.0 63.5 4.0 50.0 -5.5 37.0 -15.5 30.0 -35.5 23.5 -55.5 21.5 -85.5 19.5 -116.0 19.5 -155.5 L19.5 -173.0 19.5 -198.5 Q19.5 -212.0 20.5 -224.5 22.5 -248.0 23.0 -273.0 23.5 -298.0 24.5 -324.5 L26.5 -388.5 Q27.5 -423.0 30.5 -451.5 33.0 -472.0 42.5 -485.0 52.0 -497.5 64.5 -504.5 77.0 -512.0 88.5 -514.5 100.5 -517.0 106.5 -517.0 136.0 -517.0 151.0 -498.5 166.0 -480.0 164.0 -442.5" fill-rule="evenodd" stroke="none"/>
    </g>
    <g id="font_GosmickSansBold_n0">
      <path d="M170.0 -439.5 Q170.0 -440.5 171.0 -441.5 L170.0 -440.5 170.0 -439.5 M489.5 -64.5 Q490.5 -40.0 481.5 -18.5 472.5 3.0 451.0 8.0 439.5 15.0 430.0 14.0 420.0 13.0 413.0 11.0 408.0 9.0 406.0 9.0 386.5 7.0 375.0 -11.0 364.0 -29.0 357.5 -55.0 351.5 -81.0 349.5 -112.5 347.5 -143.5 347.5 -172.0 L347.5 -224.5 Q347.5 -239.0 348.0 -254.5 348.5 -270.5 349.5 -285.0 350.5 -296.0 350.5 -305.5 L350.5 -322.0 Q350.5 -366.0 333.5 -385.0 316.5 -404.5 291.0 -403.5 255.5 -403.5 231.0 -380.5 207.0 -357.5 192.0 -320.5 176.5 -284.0 170.0 -237.0 163.0 -189.5 163.0 -140.5 L163.0 -119.0 Q163.0 -109.0 165.0 -97.5 168.0 -72.0 162.0 -52.5 156.0 -33.0 144.5 -19.0 133.5 -5.5 119.0 2.0 104.5 9.0 92.5 9.0 71.0 9.0 58.0 -1.0 45.5 -11.5 39.0 -30.0 33.0 -48.5 31.0 -75.5 29.0 -102.5 29.0 -136.5 L29.0 -194.0 Q29.0 -227.5 30.0 -264.0 31.0 -300.0 33.0 -336.0 35.0 -372.0 38.0 -402.5 L38.0 -421.0 Q38.0 -425.0 37.5 -428.0 37.0 -431.5 37.0 -436.5 36.0 -442.5 36.0 -452.0 36.0 -461.0 37.0 -466.0 39.0 -479.5 51.5 -489.5 64.0 -500.0 78.5 -505.5 93.5 -511.0 109.0 -513.0 124.0 -515.5 132.5 -513.0 153.0 -512.0 160.5 -496.5 168.0 -480.5 170.5 -458.0 169.5 -456.0 169.5 -453.0 169.5 -451.0 168.0 -451.0 L168.0 -448.5 168.0 -446.5 Q171.0 -449.0 173.5 -452.0 189.5 -468.0 209.0 -481.0 228.5 -494.0 249.0 -503.0 269.5 -512.0 289.5 -517.0 309.5 -521.5 328.0 -520.5 398.5 -516.5 440.5 -462.5 482.5 -409.0 482.5 -316.5 L482.5 -186.5 Q482.5 -159.0 484.5 -131.5 486.5 -103.5 488.5 -81.0 488.5 -77.0 489.0 -72.5 489.5 -68.0 489.5 -64.5" fill-rule="evenodd" stroke="none"/>
    </g>
    <g id="font_GosmickSansBold_g0">
      <path d="M355.5 -279.5 Q355.5 -301.0 354.0 -321.0 352.5 -341.0 346.0 -357.5 340.0 -373.5 328.5 -385.0 317.5 -396.5 298.0 -400.5 285.5 -406.5 271.5 -404.5 257.0 -402.5 242.5 -399.5 220.0 -393.0 203.5 -376.5 186.5 -359.5 175.0 -336.5 164.0 -313.5 158.0 -285.0 152.5 -257.0 154.5 -227.5 157.5 -172.0 186.0 -140.0 214.0 -107.5 260.0 -107.5 290.0 -107.5 308.0 -124.0 326.5 -140.5 337.5 -166.0 348.0 -191.5 351.5 -221.5 355.5 -252.0 355.5 -279.5 M489.5 -449.5 L489.5 -451.5 Q487.5 -426.0 486.0 -402.0 484.5 -378.0 482.5 -354.5 476.0 -284.5 471.0 -215.0 466.0 -145.5 466.0 -59.5 L466.0 -32.0 Q466.0 4.0 465.5 32.0 465.0 60.5 461.0 85.0 456.5 109.5 449.0 131.5 441.5 153.5 428.0 176.0 415.5 194.5 395.5 206.5 375.0 219.0 351.5 226.5 328.5 234.5 304.0 237.5 279.5 240.5 260.0 240.5 229.5 240.5 193.0 228.5 156.5 217.0 125.5 196.0 94.0 175.0 71.0 145.0 48.0 115.5 44.0 79.5 39.0 63.5 42.0 50.5 45.0 37.5 54.0 28.5 62.5 19.0 75.5 14.5 88.0 10.0 102.5 10.0 116.5 10.0 131.0 16.0 145.5 22.5 156.5 35.5 161.0 50.0 170.0 65.0 179.0 79.5 191.5 92.0 204.0 104.0 219.0 112.0 234.5 119.5 253.0 119.5 L254.0 119.0 Q255.0 118.5 255.0 120.5 271.5 118.5 287.0 113.5 303.0 108.5 314.5 96.5 325.5 85.0 333.0 64.5 340.0 44.0 340.0 11.0 L340.0 5.0 340.0 3.0 340.0 0.0 340.0 -7.5 Q323.5 -2.0 301.5 1.5 279.5 5.0 256.0 7.0 210.0 10.0 170.0 -5.5 130.0 -21.5 99.5 -52.0 68.5 -82.0 49.5 -126.0 30.5 -170.0 28.5 -224.5 26.5 -279.5 43.5 -332.0 60.5 -384.0 92.5 -424.5 125.0 -465.0 170.5 -490.0 216.0 -515.0 270.5 -518.0 302.0 -520.0 329.5 -515.0 357.5 -510.0 381.0 -490.5 398.5 -506.0 409.0 -510.0 420.0 -514.0 433.0 -514.0 445.5 -514.0 456.5 -508.5 468.0 -502.5 476.0 -494.0 484.5 -485.5 488.5 -473.5 492.5 -462.0 489.5 -449.5" fill-rule="evenodd" stroke="none"/>
    </g>
    <g id="font_GosmickSansBold_.0">
      <path d="M185.5 -66.5 Q185.5 -30.5 162.0 -8.5 138.0 13.5 106.5 13.5 70.5 13.5 47.5 -11.5 24.5 -36.5 20.5 -69.5 19.5 -105.5 41.5 -129.5 63.5 -153.5 96.5 -153.5 113.5 -153.5 129.5 -147.0 145.5 -140.0 157.5 -128.5 170.0 -116.5 177.5 -100.5 185.5 -85.0 185.5 -66.5" fill-rule="evenodd" stroke="none"/>
    </g>
    <g id="shape3" transform="matrix(1.0, 0.0, 0.0, 1.0, 37.75, 8.5)">
      <path d="M277.85 -8.5 L277.85 -6.25 -37.75 -6.25 -37.75 -8.5 277.85 -8.5" fill="#30b42e" fill-rule="evenodd" stroke="none"/>
    </g>
  </defs>
</svg>
