<?xml version="1.0" encoding="UTF-8" standalone="no"?>
<svg xmlns:ffdec="https://www.free-decompiler.com/flash" xmlns:xlink="http://www.w3.org/1999/xlink" ffdec:objectType="shape" height="487.85px" width="820.55px" xmlns="http://www.w3.org/2000/svg">
  <g transform="matrix(1.0, 0.0, 0.0, 1.0, -2.0, 0.0)">
    <path d="M813.9 24.85 Q812.4 27.3 812.4 30.55 812.4 34.45 814.5 37.2 815.95 39.15 817.85 39.7 L817.9 39.8 Q819.05 38.7 820.4 38.25 L820.45 38.3 Q819.05 38.7 817.9 39.85 L817.7 39.95 Q815.75 42.1 815.75 44.95 815.75 46.55 816.45 47.95 L816.4 47.95 Q815.25 48.3 814.35 49.3 813.05 50.85 813.05 53.0 813.05 55.2 814.35 56.7 815.8 58.25 817.7 58.25 819.1 58.25 820.2 57.45 L821.1 57.95 Q821.1 59.25 821.75 60.2 L822.55 60.85 822.55 61.05 822.45 61.05 Q819.7 61.05 817.7 63.95 815.75 66.8 815.75 70.85 815.75 74.95 817.7 77.8 818.7 79.2 819.85 79.9 L820.0 79.95 819.8 79.95 Q818.1 79.95 816.9 81.95 815.75 83.9 815.75 86.65 815.75 89.35 816.9 91.3 817.9 92.95 819.2 93.2 818.45 95.95 818.45 99.55 818.45 103.85 819.55 106.95 820.4 109.5 821.6 110.6 821.4 110.65 821.25 110.8 820.1 110.1 818.75 110.1 816.65 110.1 815.15 111.65 813.7 113.2 813.7 115.35 813.7 117.5 815.15 119.05 816.65 120.6 818.75 120.6 L820.55 120.3 820.7 121.35 Q819.7 122.75 818.95 126.9 817.75 133.15 817.75 139.6 817.75 146.05 818.6 148.25 L819.95 151.15 819.6 151.55 Q818.5 150.05 817.1 150.05 815.15 150.05 813.75 152.95 812.4 155.8 812.4 159.9 812.4 163.95 813.75 166.8 815.15 169.7 817.1 169.7 L817.8 169.65 Q817.05 172.95 817.05 177.4 817.05 182.9 818.2 186.75 819.4 190.65 821.05 190.7 L821.1 191.1 820.9 191.0 Q820.25 190.65 819.45 190.65 817.9 190.65 816.85 191.85 815.75 193.1 815.75 194.85 815.75 196.6 816.85 197.8 817.9 199.05 819.45 199.05 L820.15 199.0 820.1 199.25 820.1 199.35 Q819.5 200.65 818.6 204.9 817.7 209.0 816.4 226.05 815.8 234.3 816.05 237.85 813.9 238.35 812.15 240.1 809.7 242.7 809.7 246.35 809.7 250.0 812.15 252.5 814.55 255.05 817.95 255.1 L818.0 255.1 817.75 256.0 817.05 259.85 Q814.35 274.8 814.35 280.3 814.35 285.85 815.9 289.7 817.5 293.65 820.1 294.35 L820.7 294.45 819.95 296.0 Q819.1 298.35 819.1 301.75 819.1 305.1 819.95 307.4 820.6 309.2 821.5 309.65 L821.6 310.9 Q820.7 311.75 820.0 314.5 819.1 318.65 819.1 324.45 819.1 330.25 820.0 334.35 820.5 336.15 821.05 337.2 819.3 337.55 817.95 339.8 816.4 342.6 816.4 346.55 816.4 349.05 817.05 351.1 815.3 352.15 813.9 354.8 811.7 359.25 811.7 365.45 811.7 371.7 813.9 376.1 815.3 378.85 816.55 380.45 L816.75 380.65 Q815.1 384.35 815.1 389.55 815.1 394.8 816.75 398.45 L817.7 400.15 Q819.25 399.35 821.1 399.35 L822.3 399.45 822.3 399.5 821.05 399.4 Q819.2 399.4 817.65 400.2 L815.85 401.45 Q813.7 403.55 813.7 406.4 813.7 409.3 815.85 411.3 816.85 412.3 818.1 412.85 814.95 413.2 811.55 415.3 808.15 417.6 809.85 421.6 811.6 423.3 815.9 422.3 805.85 427.15 804.5 442.3 803.7 455.35 787.75 466.35 763.7 468.0 756.6 474.6 750.3 474.85 742.2 476.75 728.75 476.8 721.9 482.35 L709.4 481.6 Q697.6 481.0 691.8 485.4 673.15 482.55 653.2 482.75 629.6 482.5 604.15 486.6 599.75 485.3 594.9 485.75 588.55 485.1 581.3 487.85 563.3 483.45 537.7 483.65 L504.35 485.15 Q489.75 482.3 474.4 482.6 461.45 482.35 447.95 484.35 L429.9 485.1 Q408.05 484.9 387.95 481.3 L361.5 479.95 338.85 480.25 Q314.3 481.2 292.05 486.4 268.85 481.6 243.35 481.85 227.6 481.7 211.0 483.5 203.0 485.5 195.6 485.85 L191.5 485.5 Q175.6 482.3 160.35 482.6 142.2 482.25 124.95 486.75 88.05 478.4 73.9 479.15 70.2 479.0 67.5 479.25 60.35 473.1 49.75 471.85 L47.9 471.1 Q35.45 460.25 19.05 459.25 L18.95 459.25 Q14.8 457.85 7.05 435.25 L7.05 435.2 7.25 435.15 Q8.05 434.95 8.8 434.45 L9.3 434.1 Q11.05 431.85 11.65 425.6 10.95 417.4 6.85 415.2 13.15 413.5 8.3 405.0 15.5 401.0 7.95 395.75 11.95 387.85 7.65 382.7 7.2 382.45 9.2 363.8 11.15 345.1 6.85 338.8 9.1 338.85 10.3 331.85 11.05 291.0 7.25 262.5 6.15 253.85 5.2 250.35 L5.15 250.1 Q10.45 120.15 2.0 92.1 L2.0 89.8 2.3 85.05 2.0 80.4 2.0 35.0 2.3 32.95 2.0 31.0 2.0 27.9 3.25 26.8 Q5.6 24.4 5.6 20.9 5.6 18.9 4.8 17.2 6.75 16.35 8.35 14.65 L8.65 14.35 11.15 13.95 13.65 14.35 Q16.75 14.35 18.85 12.0 L19.85 10.75 23.05 11.15 25.55 10.9 28.05 11.15 Q31.95 11.15 34.7 8.95 36.25 7.7 36.95 6.25 L37.15 6.25 37.8 6.3 38.45 6.35 39.55 6.45 39.5 6.0 39.6 6.4 Q39.9 8.05 42.2 9.2 44.95 10.6 48.8 10.6 L51.3 10.45 53.8 10.6 Q57.6 10.6 60.3 9.2 62.25 8.2 62.85 6.95 L81.4 7.8 81.95 7.8 82.0 7.85 82.4 8.2 82.9 8.55 Q85.05 9.95 88.15 9.95 L90.65 9.7 93.15 9.95 Q96.15 9.95 98.3 8.55 L98.5 8.4 Q99.25 8.0 99.7 7.4 121.15 7.05 123.55 6.0 L124.15 5.7 128.4 5.75 130.65 5.75 133.4 5.75 152.6 4.1 160.25 2.7 163.65 2.9 166.15 2.8 168.65 2.9 171.8 2.7 171.85 2.75 173.6 3.8 Q176.2 5.05 179.9 5.05 L182.8 4.95 184.9 5.05 198.25 3.9 200.7 3.55 Q202.9 4.65 205.85 4.65 L208.35 4.45 210.85 4.65 Q214.2 4.65 216.55 3.25 L217.3 2.75 219.6 2.75 222.05 2.75 224.6 2.75 235.9 2.7 242.1 3.05 252.25 3.25 257.15 3.2 267.9 3.05 271.2 2.9 272.05 3.55 Q274.3 5.0 277.55 5.0 L280.05 4.75 282.55 5.0 Q285.75 5.0 287.95 3.55 L288.55 3.15 292.05 3.25 293.4 3.15 297.05 3.25 Q301.0 2.95 301.7 2.2 302.1 1.6 301.9 0.9 L302.2 0.7 Q302.8 1.1 303.5 1.3 303.75 2.65 304.85 3.7 306.35 5.0 308.4 5.0 L311.15 4.55 313.4 5.0 Q315.4 5.0 317.85 3.85 319.95 4.9 322.7 4.9 L325.2 4.65 327.7 4.9 Q331.15 4.9 333.6 3.15 335.1 2.1 335.7 0.8 L338.25 0.85 340.8 0.8 343.25 0.85 345.7 0.8 Q348.25 2.25 351.65 2.25 L354.15 2.05 356.65 2.25 Q360.55 2.25 363.3 0.35 L363.7 0.1 364.05 0.0 366.4 0.0 367.7 0.15 369.05 0.0 384.2 0.0 387.75 0.1 Q388.05 2.25 389.85 4.8 391.7 7.5 395.3 7.35 L396.25 7.3 396.25 7.35 Q396.55 7.75 397.4 7.6 L398.6 7.25 400.3 7.35 401.25 7.3 401.25 7.35 Q401.55 7.75 402.4 7.6 403.4 7.45 404.5 6.75 L406.2 5.15 406.5 4.7 406.65 4.55 Q409.15 2.2 409.45 0.0 L417.95 0.0 435.5 0.85 438.0 0.85 440.5 0.85 458.1 0.0 464.15 0.0 468.05 0.15 470.55 0.1 473.05 0.15 476.7 0.05 491.35 1.1 Q504.15 1.7 530.05 2.2 L541.0 2.35 550.65 2.35 561.95 1.6 562.75 0.9 567.9 1.45 570.4 1.35 572.9 1.45 577.6 1.0 Q581.35 2.2 586.75 2.2 L589.25 2.15 591.75 2.2 595.15 2.1 Q595.25 5.0 598.75 7.1 602.35 9.25 607.55 9.25 L610.05 9.15 612.55 9.25 Q617.7 9.25 621.3 7.1 623.85 5.55 624.65 3.65 L624.7 3.6 625.9 3.6 627.05 3.6 Q628.3 4.5 630.65 5.3 635.6 7.0 647.25 6.8 L654.6 6.7 Q668.05 6.1 668.55 5.05 668.75 4.6 668.35 4.2 L671.6 4.3 674.2 4.25 676.6 4.3 679.3 4.25 678.05 4.45 677.45 4.55 677.15 4.55 Q673.6 5.05 672.55 5.95 671.35 6.9 676.6 10.05 681.9 13.2 686.95 13.2 L689.85 13.1 691.95 13.2 Q697.0 13.2 700.45 11.7 702.85 10.6 703.65 9.3 L705.85 10.25 Q708.75 11.3 714.2 10.95 L724.2 10.35 Q733.4 8.9 737.55 7.5 L738.65 7.1 749.7 7.8 752.2 7.8 754.7 7.8 Q762.9 7.8 768.65 6.55 L770.25 6.2 Q769.5 7.1 769.5 8.15 769.5 10.05 771.7 11.4 774.0 12.75 777.2 12.75 L779.7 12.55 782.2 12.75 785.2 12.4 786.6 14.05 Q789.1 16.25 792.55 16.25 L795.0 15.95 795.1 15.95 795.2 15.95 795.0 16.0 Q795.25 18.25 797.25 19.9 799.6 21.9 802.95 21.9 L805.5 21.6 807.95 21.9 809.95 21.75 810.55 22.4 Q812.05 23.95 813.9 24.85" fill="url(#gradient0)" fill-rule="evenodd" stroke="none"/>
  </g>
  <defs>
    <radialGradient cx="0" cy="0" gradientTransform="matrix(0.5717, 0.0, 0.0, 0.5717, 414.5, 243.95)" gradientUnits="userSpaceOnUse" id="gradient0" r="819.2" spreadMethod="pad">
      <stop offset="0.0" stop-color="#000000" stop-opacity="0.9019608"/>
      <stop offset="1.0" stop-color="#000000" stop-opacity="0.4"/>
    </radialGradient>
  </defs>
</svg>
