<?xml version="1.0" encoding="UTF-8" standalone="no"?>
<svg xmlns:ffdec="https://www.free-decompiler.com/flash" xmlns:xlink="http://www.w3.org/1999/xlink" ffdec:objectType="shape" height="309.45px" width="35.75px" xmlns="http://www.w3.org/2000/svg">
  <g transform="matrix(1.0, 0.0, 0.0, 1.0, 0.0, 0.0)">
    <path d="M12.95 241.4 Q16.15 245.85 14.7 259.0 13.2 272.15 13.55 272.3 16.75 275.95 13.75 281.5 19.4 285.2 14.0 288.0 17.65 294.0 12.95 295.2 16.0 296.75 16.5 302.5 16.05 306.9 14.75 308.5 11.75 310.4 8.75 308.5 7.8 307.1 7.75 304.0 7.55 300.2 10.0 296.35 L10.0 296.3 Q6.55 293.65 8.75 291.0 3.15 295.15 3.1 286.2 3.0 278.05 7.8 278.35 2.0 276.25 8.0 244.25 8.75 242.05 9.9 241.15 7.3 203.15 8.9 185.4 9.2 181.8 9.6 179.8 2.15 179.5 6.35 71.75 L6.15 71.75 Q4.75 71.75 3.75 69.1 2.75 66.5 2.75 62.75 2.75 59.55 3.5 57.15 3.0 56.05 2.55 54.25 1.5 49.8 1.5 43.5 1.5 37.2 2.55 32.7 3.2 30.15 3.95 29.05 L3.75 28.85 Q2.75 27.7 2.75 26.1 2.75 24.5 3.75 23.35 L3.95 23.15 Q2.7 22.7 1.75 21.75 0.0 20.05 0.0 17.6 0.0 15.15 1.75 13.4 L2.75 12.65 Q1.0 10.55 1.0 7.75 1.0 4.55 3.25 2.25 5.5 0.0 8.65 0.0 11.8 0.0 14.05 2.25 L14.6 2.9 Q16.05 1.7 18.0 1.7 20.3 1.7 21.9 3.35 L22.2 3.65 Q22.7 2.65 23.8 1.8 25.85 0.25 28.75 0.25 31.65 0.25 33.7 1.8 35.75 3.35 35.75 5.5 35.75 7.65 33.7 9.2 31.65 10.75 28.75 10.75 25.85 10.75 23.8 9.2 L23.35 8.8 Q23.0 10.25 21.9 11.35 20.3 13.0 18.0 13.0 16.3 13.0 15.0 12.1 L14.05 13.2 Q12.85 14.4 11.4 15.0 12.0 16.2 12.0 17.6 12.0 20.05 10.25 21.75 9.35 22.65 8.3 23.1 L8.55 23.35 Q9.55 24.5 9.55 26.1 9.55 27.7 8.55 28.85 7.8 29.7 6.85 29.95 7.3 31.0 8.05 31.55 8.8 32.1 8.8 40.0 8.8 47.9 7.7 54.25 L7.5 54.45 7.65 54.6 8.55 56.35 Q9.55 59.0 9.55 62.75 9.55 65.15 9.15 67.15 15.7 86.15 11.65 178.95 L11.7 179.15 Q12.4 181.6 13.25 187.7 16.05 207.75 15.5 236.5 14.6 241.45 12.95 241.4 12.35 240.45 11.5 240.5 12.2 241.4 12.95 241.4" fill="#2c9300" fill-rule="evenodd" stroke="none"/>
  </g>
</svg>
