<?xml version="1.0" encoding="UTF-8" standalone="no"?>
<svg xmlns:ffdec="https://www.free-decompiler.com/flash" xmlns:xlink="http://www.w3.org/1999/xlink" ffdec:objectType="shape" height="15.5px" width="35.25px" xmlns="http://www.w3.org/2000/svg">
  <g transform="matrix(1.0, 0.0, 0.0, 1.0, -25.25, -431.5)">
    <path d="M25.3 431.95 Q25.65 431.3 28.15 431.55 30.55 431.8 33.65 432.8 36.75 433.8 38.7 435.0 40.6 436.2 40.25 436.85 39.85 437.55 37.45 437.05 L31.9 435.5 26.9 433.55 Q24.95 432.65 25.3 431.95" fill="#5fdb22" fill-rule="evenodd" stroke="none"/>
    <path d="M60.4 446.45 Q60.0 447.15 58.5 446.95 57.0 446.75 55.1 445.85 L51.5 444.35 Q49.8 443.8 50.2 443.1 50.55 442.4 52.25 442.35 54.0 442.45 56.15 443.1 58.3 443.85 59.5 444.8 60.75 445.75 60.4 446.45" fill="#06c80c" fill-rule="evenodd" stroke="none"/>
  </g>
</svg>
