<?xml version="1.0" encoding="UTF-8" standalone="no"?>
<svg xmlns:ffdec="https://www.free-decompiler.com/flash" xmlns:xlink="http://www.w3.org/1999/xlink" ffdec:objectType="shape" height="35.35px" width="173.25px" xmlns="http://www.w3.org/2000/svg">
  <g transform="matrix(1.0, 0.0, 0.0, 1.0, 7.7, 19.55)">
    <path d="M-5.2 1.0 L-5.15 1.1 -5.2 1.15 -5.2 1.1 -5.2 1.0 M140.2 12.0 L148.1 13.25 145.4 13.0 140.2 12.0" fill="#1b1b1b" fill-rule="evenodd" stroke="none"/>
    <path d="M-5.15 1.1 L16.4 -2.15 17.55 -2.3 33.4 -4.05 Q83.5 -7.4 131.55 -2.7 144.1 -1.5 162.85 2.5 161.95 7.85 157.05 10.9 153.0 13.55 148.1 13.25 L140.2 12.0 Q91.5 2.75 33.7 4.05 L18.45 4.55 17.85 4.55 10.6 4.95 0.4 4.65 Q-5.05 3.95 -5.2 1.15 L-5.15 1.1" fill="#000000" fill-rule="evenodd" stroke="none"/>
    <path d="M162.85 2.5 Q144.1 -1.5 131.55 -2.7 83.5 -7.4 33.4 -4.05 L17.55 -2.3 16.4 -2.15 -5.15 1.1 -5.2 1.0 Q-5.25 -2.05 -1.2 -4.45 2.8 -6.75 15.4 -9.0 85.1 -22.35 148.0 -13.5 L148.25 -13.25 148.25 -13.4 Q156.6 -11.7 160.1 -7.4 163.75 -2.9 162.85 2.5" fill="#333333" fill-rule="evenodd" stroke="none"/>
    <path d="M162.85 2.5 Q163.75 -2.9 160.1 -7.4 156.6 -11.7 148.25 -13.4 L148.0 -13.5 Q85.1 -22.35 15.4 -9.0 2.8 -6.75 -1.2 -4.45 -5.25 -2.05 -5.2 1.0 L-5.2 1.1 -5.2 1.15 Q-5.05 3.95 0.4 4.65 L10.6 4.95 17.85 4.55 18.45 4.55 33.7 4.05 Q91.5 2.75 140.2 12.0 L145.4 13.0 148.1 13.25 Q153.0 13.55 157.05 10.9 161.95 7.85 162.85 2.5 Z" fill="none" stroke="#000000" stroke-linecap="round" stroke-linejoin="round" stroke-width="5.0"/>
  </g>
</svg>
