<?xml version="1.0" encoding="UTF-8" standalone="no"?>
<svg xmlns:ffdec="https://www.free-decompiler.com/flash" xmlns:xlink="http://www.w3.org/1999/xlink" ffdec:objectType="shape" height="33.45px" width="690.75px" xmlns="http://www.w3.org/2000/svg">
  <g transform="matrix(1.0, 0.0, 0.0, 1.0, -14.25, -428.95)">
    <path d="M673.65 444.0 L678.3 443.55 682.5 444.05 Q683.9 444.35 683.9 445.35 683.9 446.3 682.15 447.0 680.4 447.75 677.85 447.8 L673.55 447.15 Q671.75 446.45 671.75 445.5 671.75 444.5 673.65 444.0" fill="#889b46" fill-rule="evenodd" stroke="none"/>
    <path d="M668.65 447.0 L672.0 446.45 675.25 446.9 Q676.7 447.45 676.7 448.2 676.7 448.95 675.25 449.45 L672.35 449.5 Q670.7 448.95 669.05 449.0 667.3 449.0 667.3 448.3 667.3 447.55 668.65 447.0" fill="#889b46" fill-rule="evenodd" stroke="none"/>
    <path d="M665.6 452.15 L664.05 452.45 662.45 452.2 Q661.8 451.95 661.8 451.6 661.8 451.25 662.45 450.95 L664.05 450.7 665.6 450.9 Q666.3 451.2 666.3 451.55 666.3 451.9 665.6 452.15" fill="#889b46" fill-rule="evenodd" stroke="none"/>
    <path d="M695.85 433.3 L694.3 433.7 692.85 433.35 Q692.25 433.0 692.25 432.45 692.25 431.9 692.85 431.5 693.5 431.1 694.3 431.1 695.2 431.1 695.85 431.45 696.45 431.85 696.45 432.4 696.45 432.95 695.85 433.3" fill="#889b46" fill-rule="evenodd" stroke="none"/>
    <path d="M696.1 430.8 Q695.8 431.15 695.2 431.15 694.65 431.15 694.25 430.8 693.85 430.5 693.85 430.05 693.85 429.6 694.25 429.25 694.65 428.95 695.2 428.95 695.8 428.95 696.1 429.25 696.5 429.6 696.5 430.05 696.5 430.5 696.1 430.8" fill="#889b46" fill-rule="evenodd" stroke="none"/>
    <path d="M632.8 454.35 Q632.8 453.85 634.0 453.4 L637.0 452.95 640.0 453.3 Q641.2 453.75 641.2 454.25 641.2 454.8 640.0 455.2 L637.0 455.7 634.0 455.3 Q632.8 454.9 632.8 454.35" fill="#889b46" fill-rule="evenodd" stroke="none"/>
    <path d="M42.55 451.05 L39.95 451.55 37.35 451.1 Q36.25 450.6 36.25 449.85 36.25 449.1 37.35 448.6 38.45 448.1 39.95 448.05 41.45 448.05 42.55 448.55 43.65 449.0 43.65 449.75 43.65 450.5 42.55 451.05" fill="#889b46" fill-rule="evenodd" stroke="none"/>
    <path d="M42.9 453.45 L41.15 453.2 Q40.45 452.95 40.45 452.55 40.45 452.2 41.15 451.9 L42.9 451.65 44.7 451.85 Q45.45 452.15 45.45 452.5 45.45 452.9 44.7 453.15 L42.9 453.45" fill="#889b46" fill-rule="evenodd" stroke="none"/>
    <path d="M19.1 441.5 Q18.25 442.15 17.1 442.15 15.9 442.2 15.05 441.55 14.25 440.95 14.25 440.0 14.25 439.1 15.05 438.45 15.9 437.8 17.1 437.75 18.25 437.75 19.1 438.4 20.0 439.05 20.0 439.95 20.0 440.9 19.1 441.5" fill="#889b46" fill-rule="evenodd" stroke="none"/>
    <path d="M20.9 443.1 L19.3 443.55 Q18.35 443.55 17.7 443.15 17.05 442.75 17.05 442.15 17.05 441.6 17.7 441.2 L19.3 440.8 Q20.25 440.8 20.9 441.15 21.55 441.55 21.55 442.1 21.55 442.7 20.9 443.1" fill="#889b46" fill-rule="evenodd" stroke="none"/>
    <path d="M309.7 457.75 L306.4 458.2 303.1 457.85 Q301.75 457.55 301.75 457.0 301.75 456.55 303.1 456.15 L306.4 455.75 309.7 456.05 Q311.1 456.4 311.1 456.85 311.1 457.4 309.7 457.75" fill="#889b46" fill-rule="evenodd" stroke="none"/>
    <path d="M220.65 457.35 Q220.65 456.85 222.6 456.45 L227.5 455.9 233.25 456.3 240.2 457.15 Q244.3 457.7 237.35 458.2 L227.5 458.7 222.6 458.4 Q220.65 458.0 220.65 457.35" fill="#889b46" fill-rule="evenodd" stroke="none"/>
    <path d="M221.7 461.95 L219.65 462.4 217.5 462.0 Q216.65 461.65 216.65 461.15 216.65 460.75 217.5 460.35 L219.65 460.1 221.7 460.3 Q222.6 460.7 222.6 461.2 222.6 461.6 221.7 461.95" fill="#71813a" fill-rule="evenodd" stroke="none"/>
    <path d="M318.25 456.05 L313.85 456.5 309.5 456.15 Q307.7 455.85 307.7 455.3 307.7 454.85 309.5 454.45 L313.85 454.05 318.25 454.35 Q320.1 454.7 320.1 455.15 320.1 455.7 318.25 456.05" fill="#889b46" fill-rule="evenodd" stroke="none"/>
    <path d="M702.55 453.45 Q704.3 452.25 704.85 452.95 705.35 453.65 704.25 455.25 703.2 456.75 700.35 457.8 697.45 458.85 695.05 459.25 L691.8 459.15 Q691.0 458.65 692.75 457.85 L697.6 455.85 Q700.75 454.65 702.55 453.45" fill="#71813a" fill-rule="evenodd" stroke="none"/>
    <path d="M674.65 456.75 L684.25 454.55 Q690.15 453.15 693.25 451.65 696.3 450.25 698.2 446.5 700.1 442.85 701.05 445.15 702.0 447.45 700.95 450.7 699.85 454.0 696.05 455.2 692.3 456.4 681.6 457.0 670.95 457.55 674.65 456.75" fill="#3f8a11" fill-rule="evenodd" stroke="none"/>
  </g>
</svg>
