<?xml version="1.0" encoding="UTF-8" standalone="no"?>
<svg xmlns:ffdec="https://www.free-decompiler.com/flash" xmlns:xlink="http://www.w3.org/1999/xlink" ffdec:objectType="shape" height="11.5px" width="9.7px" xmlns="http://www.w3.org/2000/svg">
  <g transform="matrix(1.0, 0.0, 0.0, 1.0, 0.0, 0.0)">
    <path d="M4.7 2.55 L4.4 4.35 4.0 7.15 5.4 7.15 4.7 2.55 M7.55 0.95 L8.05 3.45 8.8 7.1 9.7 11.5 9.15 11.5 7.75 11.5 6.0 11.5 5.95 11.1 5.75 9.75 4.85 9.75 3.65 9.75 3.5 11.0 3.0 11.0 1.75 11.0 0.0 11.0 0.15 10.2 0.65 7.95 1.35 4.5 2.25 0.1 4.2 0.05 5.8 0.0 6.95 0.0 7.4 0.0 7.55 0.95" fill="url(#gradient0)" fill-rule="evenodd" stroke="none"/>
  </g>
  <defs>
    <linearGradient gradientTransform="matrix(0.0, 0.0069, -0.007, 0.0, 4.85, 5.75)" gradientUnits="userSpaceOnUse" id="gradient0" spreadMethod="pad" x1="-819.2" x2="819.2">
      <stop offset="0.09019607843137255" stop-color="#fc4747"/>
      <stop offset="0.7803921568627451" stop-color="#c70505"/>
    </linearGradient>
  </defs>
</svg>
