<?xml version="1.0" encoding="UTF-8" standalone="no"?>
<svg xmlns:ffdec="https://www.free-decompiler.com/flash" xmlns:xlink="http://www.w3.org/1999/xlink" ffdec:objectType="shape" height="120.95px" width="161.95px" xmlns="http://www.w3.org/2000/svg">
  <g transform="matrix(1.0, 0.0, 0.0, 1.0, 60.0, 141.6)">
    <path d="M94.5 -52.1 Q98.15 -49.7 100.2 -45.15 102.4 -40.55 101.75 -36.55 101.15 -32.5 98.25 -31.3 95.3 -30.1 91.7 -32.45 88.15 -34.75 86.0 -39.35 83.85 -43.9 84.5 -47.95 85.1 -52.0 88.0 -53.2 90.95 -54.35 94.5 -52.1 M98.5 -28.9 Q99.9 -29.05 100.9 -28.0 101.95 -26.95 101.95 -25.25 101.95 -23.55 100.9 -22.2 99.85 -20.85 98.45 -20.7 97.05 -20.5 96.05 -21.6 95.05 -22.65 95.05 -24.35 95.05 -26.05 96.05 -27.4 97.1 -28.7 98.5 -28.9 M-59.75 -126.7 Q-58.4 -137.5 -50.7 -140.6 -42.95 -143.7 -33.35 -137.35 -23.7 -130.9 -17.85 -118.75 -12.05 -106.6 -13.45 -95.85 -14.85 -85.05 -22.6 -81.9 -30.25 -78.85 -39.85 -85.2 -49.45 -91.6 -55.3 -103.75 -61.1 -115.9 -59.75 -126.7 M-13.95 -80.85 Q-11.15 -81.2 -8.5 -77.35 -5.85 -73.5 -4.85 -67.65 -3.9 -61.8 -5.15 -57.4 -6.35 -52.95 -9.15 -52.6 -11.9 -52.25 -14.6 -56.15 -17.3 -60.0 -18.3 -65.85 -19.25 -71.7 -18.0 -76.1 -16.7 -80.5 -13.95 -80.85" fill="#ffffff" fill-opacity="0.4" fill-rule="evenodd" stroke="none"/>
  </g>
</svg>
