<?xml version="1.0" encoding="UTF-8" standalone="no"?>
<svg xmlns:ffdec="https://www.free-decompiler.com/flash" xmlns:xlink="http://www.w3.org/1999/xlink" ffdec:objectType="frame" height="53.95px" width="120.05px" xmlns="http://www.w3.org/2000/svg">
  <g transform="matrix(1.0, 0.0, 0.0, 1.0, 11.5, 6.1)">
    <use ffdec:characterId="2282" height="53.95" transform="matrix(1.0164, 0.0, 0.0, 1.0, -11.5019, -6.1)" width="118.1" xlink:href="#sprite0"/>
    <use ffdec:characterId="2313" height="12.5" id="sliderR_spr" transform="matrix(1.0, 0.0, 0.0, 0.9991, 0.0, 1.5058)" width="100.0" xlink:href="#sprite1"/>
    <use ffdec:characterId="2314" height="12.5" id="sliderG_spr" transform="matrix(1.0, 0.0, 0.0, 0.9991, 0.0, 14.4558)" width="100.0" xlink:href="#sprite4"/>
    <use ffdec:characterId="2315" height="12.5" id="sliderB_spr" transform="matrix(1.0, 0.0, 0.0, 0.9991, 0.0, 27.5058)" width="100.0" xlink:href="#sprite6"/>
  </g>
  <defs>
    <g id="sprite0" transform="matrix(1.0, 0.0, 0.0, 1.0, -6.0, 1.15)">
      <use ffdec:characterId="2281" height="53.95" transform="matrix(1.0, 0.0, 0.0, 1.0, 6.0, -1.15)" width="118.1" xlink:href="#shape0"/>
    </g>
    <g id="shape0" transform="matrix(1.0, 0.0, 0.0, 1.0, -6.0, 1.15)">
      <path d="M110.25 0.65 L110.25 50.1 43.35 50.8 43.35 49.35 21.35 50.2 43.35 49.35 43.35 50.8 110.25 50.1 110.25 51.05 41.25 51.8 41.25 50.3 21.35 51.1 21.35 50.2 21.35 1.35 108.5 0.65 21.35 1.35 21.35 0.0 108.5 0.0 108.5 0.65 109.0 0.65 110.25 0.65" fill="url(#gradient0)" fill-rule="evenodd" stroke="none"/>
      <path d="M122.35 8.45 L122.35 8.5 121.75 8.4 122.35 8.5 122.35 9.15 123.0 9.15 123.0 10.65 123.1 10.65 123.1 28.6 122.75 28.6 122.75 31.0 122.75 32.6 121.85 32.85 121.0 33.1 120.3 33.4 121.0 33.1 120.35 33.4 120.3 33.4 119.15 33.4 119.15 34.3 Q118.9 34.65 118.9 35.05 118.9 35.9 120.75 37.3 L122.0 38.25 122.45 38.65 122.45 38.8 122.65 38.8 122.75 38.9 120.05 39.85 118.55 40.6 117.65 40.6 117.1 40.6 117.1 41.25 117.1 41.95 117.0 42.3 117.0 42.35 117.05 42.45 117.1 42.55 117.1 42.6 117.45 43.05 121.35 44.2 122.55 44.35 123.0 44.4 123.0 44.55 123.1 44.55 123.1 45.1 122.85 45.1 122.85 50.75 110.25 51.05 110.25 50.1 110.25 0.65 111.1 0.65 112.2 0.65 112.85 2.05 Q113.4 3.5 113.0 8.9 115.8 7.95 117.6 7.95 L117.65 7.95 121.75 8.4 122.35 8.45 M122.35 49.8 L110.25 50.1 122.35 49.8 M120.2 32.5 Q120.6 31.8 122.05 31.25 L122.75 31.0 122.05 31.25 Q120.6 31.8 120.2 32.5 M120.9 38.1 Q119.25 38.9 117.65 40.6 119.25 38.9 120.9 38.1" fill="url(#gradient1)" fill-rule="evenodd" stroke="none"/>
      <path d="M122.35 6.75 L122.35 8.45 121.75 8.4 117.65 7.95 117.6 7.95 Q115.8 7.95 113.0 8.9 113.4 3.5 112.85 2.05 L112.2 0.65 114.2 0.65 114.25 0.65 114.6 0.85 114.7 0.9 Q115.05 1.1 115.55 1.3 117.85 2.55 120.05 4.15 121.4 5.15 122.35 6.75 M114.2 0.65 L114.6 0.85 114.2 0.65" fill="url(#gradient2)" fill-rule="evenodd" stroke="none"/>
      <path d="M21.35 51.1 L9.45 51.8 9.45 43.65 9.75 43.65 9.8 43.65 9.95 43.6 10.15 43.6 10.85 43.6 13.75 43.6 13.75 42.85 13.8 42.85 13.85 42.8 14.3 42.65 14.55 42.6 14.7 42.5 16.05 42.5 16.05 41.6 16.6 41.6 16.6 40.4 16.05 40.4 16.0 40.4 15.55 39.95 12.05 38.8 11.75 38.75 11.75 37.25 12.35 37.0 12.75 36.75 13.25 36.35 14.1 36.35 14.1 34.95 13.3 34.95 Q12.45 34.25 9.45 33.85 L7.75 12.7 9.25 12.7 9.45 12.7 7.2 0.9 7.05 0.1 8.6 0.1 12.6 0.1 12.6 0.0 21.35 0.0 21.35 1.35 21.35 50.2 10.85 50.8 10.85 43.6 10.85 50.8 21.35 50.2 21.35 51.1 M10.05 11.7 L11.15 13.4 8.9 1.5 21.35 1.35 8.9 1.5 11.15 13.4 10.05 11.7 M8.55 1.5 L8.9 1.5 8.6 0.1 8.9 1.5 8.55 1.5 M9.25 12.7 L10.85 32.9 Q15.0 33.4 15.0 34.6 L14.65 35.35 15.0 34.6 Q15.0 33.4 10.85 32.9 L9.25 12.7 M15.55 39.95 L16.05 40.4 15.55 39.95 M12.4 37.6 L13.45 37.8 Q17.7 38.7 17.7 40.1 17.7 40.5 17.2 40.9 17.7 40.5 17.7 40.1 17.7 38.7 13.45 37.8 L12.4 37.6" fill="url(#gradient3)" fill-rule="evenodd" stroke="none"/>
      <path d="M122.35 8.5 L123.1 8.6 122.95 8.2 122.65 7.35 122.35 6.75 Q121.4 5.15 120.05 4.15 117.85 2.55 115.55 1.3 115.05 1.1 114.7 0.9 L114.6 0.85 114.2 0.65 Q112.9 0.05 112.15 0.0 L111.85 0.0 108.5 0.0 21.35 0.0 12.6 0.0 7.0 0.0 7.2 0.9 9.45 12.7 9.25 12.7 7.75 12.7 9.45 33.85 Q12.45 34.25 13.3 34.95 L13.6 35.55 Q13.6 36.15 12.75 36.75 L12.35 37.0 11.75 37.25 11.15 37.5 9.45 38.05 9.45 38.35 8.65 38.25 9.45 38.05 M122.35 8.5 L121.75 8.4 117.65 7.95 117.6 7.95 Q115.8 7.95 113.0 8.9 113.4 3.5 112.85 2.05 L112.2 0.65 111.85 0.0 M123.1 10.65 L123.1 8.6 M121.85 32.85 L123.1 32.6 123.1 28.6 123.1 10.65 M122.65 38.8 L122.75 38.9 120.05 39.85 118.55 40.6 Q117.35 41.3 117.1 41.95 L117.0 42.3 117.0 42.35 117.05 42.45 117.1 42.55 117.1 42.6 117.45 43.05 121.35 44.2 122.55 44.35 123.1 44.4 123.1 44.55 123.1 45.1 123.1 50.75 122.85 50.75 110.25 51.05 41.25 51.8 41.25 50.3 21.35 51.1 9.45 51.8 9.45 43.65 9.75 43.65 9.8 43.65 9.95 43.6 10.15 43.6 13.75 42.85 M13.8 42.85 L13.85 42.8 14.3 42.65 14.55 42.6 M14.7 42.5 Q16.25 41.8 16.25 41.05 L16.05 40.4 15.55 39.95 12.05 38.8 11.75 38.75 9.45 38.35 M122.0 38.25 L122.65 38.8 M122.0 38.25 L120.75 37.3 Q118.9 35.9 118.9 35.05 118.9 34.65 119.15 34.3 119.5 33.8 120.3 33.4 L121.0 33.1 121.85 32.85" fill="none" stroke="#d58611" stroke-linecap="round" stroke-linejoin="round" stroke-width="2.0"/>
      <path d="M111.1 0.65 L110.25 0.65 109.0 0.65 M110.25 50.1 L122.35 49.8 M122.75 31.0 L122.05 31.25 Q120.6 31.8 120.2 32.5 M108.5 0.65 L21.35 1.35 8.9 1.5 11.15 13.4 10.05 11.7 M21.35 50.2 L43.35 49.35 43.35 50.8 110.25 50.1 M117.65 40.6 L117.1 41.25 M117.65 40.6 Q119.25 38.9 120.9 38.1 M8.6 0.1 L8.9 1.5 8.55 1.5 M14.65 35.35 L15.0 34.6 Q15.0 33.4 10.85 32.9 L9.25 12.7 M17.2 40.9 Q17.7 40.5 17.7 40.1 17.7 38.7 13.45 37.8 L12.4 37.6 M10.85 43.6 L10.85 50.8 21.35 50.2" fill="none" stroke="#ffffff" stroke-linecap="round" stroke-linejoin="round" stroke-opacity="0.5019608" stroke-width="2.5"/>
    </g>
    <radialGradient cx="0" cy="0" gradientTransform="matrix(0.1976, 0.0, 0.0, 0.083, 92.4, 19.9)" gradientUnits="userSpaceOnUse" id="gradient0" r="819.2" spreadMethod="pad">
      <stop offset="0.0" stop-color="#fbe6c8"/>
      <stop offset="0.44313725490196076" stop-color="#f4c279"/>
      <stop offset="0.615686274509804" stop-color="#ed9b23"/>
      <stop offset="0.8470588235294118" stop-color="#ed9b23"/>
    </radialGradient>
    <radialGradient cx="0" cy="0" gradientTransform="matrix(0.0998, 0.0, 0.0, 0.083, 101.1, 19.9)" gradientUnits="userSpaceOnUse" id="gradient1" r="819.2" spreadMethod="pad">
      <stop offset="0.0" stop-color="#fbe6c8"/>
      <stop offset="0.44313725490196076" stop-color="#f4c279"/>
      <stop offset="0.615686274509804" stop-color="#ed9b23"/>
      <stop offset="0.8470588235294118" stop-color="#ed9b23"/>
    </radialGradient>
    <radialGradient cx="0" cy="0" gradientTransform="matrix(0.0031, -0.0049, 0.0085, 0.0045, 114.4, 6.1)" gradientUnits="userSpaceOnUse" id="gradient2" r="819.2" spreadMethod="pad">
      <stop offset="0.5411764705882353" stop-color="#fcedd8"/>
      <stop offset="0.7411764705882353" stop-color="#f7d5a2"/>
    </radialGradient>
    <radialGradient cx="0" cy="0" gradientTransform="matrix(0.1328, 0.0, 0.0, 0.083, 69.1, 19.9)" gradientUnits="userSpaceOnUse" id="gradient3" r="819.2" spreadMethod="pad">
      <stop offset="0.0" stop-color="#fbe6c8"/>
      <stop offset="0.44313725490196076" stop-color="#f4c279"/>
      <stop offset="0.615686274509804" stop-color="#ed9b23"/>
      <stop offset="0.8470588235294118" stop-color="#ed9b23"/>
    </radialGradient>
    <g id="sprite1" transform="matrix(1.0, 0.0, 0.0, 1.0, 65.3, 6.5)">
      <use ffdec:characterId="2310" height="8.0" transform="matrix(1.0, 0.0, 0.0, 1.0, -65.3, -3.5)" width="100.0" xlink:href="#sprite2"/>
      <filter id="filter0">
        <feFlood flood-color="#e4e4e4" flood-opacity="1.0" result="filterResult0"/>
        <feOffset dx="2.82846398332808" dy="2.8283902656839723" in="SourceGraphic" result="filterResult1"/>
        <feComposite in="filterResult0" in2="filterResult1" operator="out" result="filterResult2"/>
        <feComposite in="filterResult2" in2="SourceGraphic" operator="in" result="filterResult3"/>
        <feColorMatrix in="filterResult3" result="filterResult4" type="matrix" values="1 0 0 0 0,0 1 0 0 0,0 0 1 0 0,0 0 0 2.19921875 0"/>
        <feFlood flood-color="#333333" flood-opacity="1.0" result="filterResult5"/>
        <feOffset dx="-2.8284639833280805" dy="-2.828390265683972" in="SourceGraphic" result="filterResult6"/>
        <feComposite in="filterResult5" in2="filterResult6" operator="out" result="filterResult7"/>
        <feComposite in="filterResult7" in2="SourceGraphic" operator="in" result="filterResult8"/>
        <feColorMatrix in="filterResult8" result="filterResult9" type="matrix" values="1 0 0 0 0,0 1 0 0 0,0 0 1 0 0,0 0 0 2.19921875 0"/>
        <feComposite in="filterResult4" in2="filterResult9" operator="out" result="filterResult10"/>
        <feComposite in="filterResult9" in2="filterResult4" operator="out" result="filterResult11"/>
        <feComposite in="filterResult11" in2="filterResult10" operator="over" result="filterResult12"/>
        <feComposite in="filterResult12" in2="SourceGraphic" operator="in" result="filterResult13"/>
        <feComposite in="filterResult13" in2="SourceGraphic" operator="over" result="filterResult14"/>
      </filter>
      <use ffdec:characterId="2312" filter="url(#filter0)" height="12.5" id="sliderKnob_spr" transform="matrix(1.0, 0.0, 0.0, 1.0, -9.8, -6.5)" width="19.9" xlink:href="#sprite3"/>
    </g>
    <g id="sprite2" transform="matrix(1.0, 0.0, 0.0, 1.0, 0.0, 2.0)">
      <use ffdec:characterId="2309" height="8.0" transform="matrix(1.0, 0.0, 0.0, 1.0, 0.0, -2.0)" width="100.0" xlink:href="#shape1"/>
    </g>
    <g id="shape1" transform="matrix(1.0, 0.0, 0.0, 1.0, 0.0, 2.0)">
      <path d="M100.0 6.0 L0.0 6.0 2.15 3.75 97.85 3.75 100.0 6.0" fill="#b99e42" fill-rule="evenodd" stroke="none"/>
      <path d="M97.85 0.3 L100.0 -2.0 100.0 6.0 97.85 3.75 97.85 0.3" fill="#a9913d" fill-rule="evenodd" stroke="none"/>
      <path d="M0.0 -2.0 L100.0 -2.0 97.85 0.3 2.15 0.3 0.0 -2.0" fill="#5e5022" fill-rule="evenodd" stroke="none"/>
      <path d="M0.0 -2.0 L2.15 0.3 2.15 3.75 0.0 6.0 0.0 -2.0" fill="#6f5f28" fill-rule="evenodd" stroke="none"/>
      <path d="M2.15 0.3 L97.85 0.3 97.85 3.75 2.15 3.75 2.15 0.3" fill="#666666" fill-rule="evenodd" stroke="none"/>
    </g>
    <g id="sprite3" transform="matrix(1.0, 0.0, 0.0, 1.0, 9.8, 6.5)">
      <use ffdec:characterId="2311" height="12.5" transform="matrix(1.0, 0.0, 0.0, 1.0, -9.8, -6.5)" width="19.9" xlink:href="#shape2"/>
    </g>
    <g id="shape2" transform="matrix(1.0, 0.0, 0.0, 1.0, 9.8, 6.5)">
      <path d="M3.45 -6.5 Q6.2 -6.5 8.15 -4.65 10.1 -2.85 10.1 -0.25 L10.1 -0.2 Q10.1 2.35 8.15 4.2 6.2 6.0 3.45 6.0 L-3.2 6.0 Q-5.95 6.0 -7.9 4.2 -9.8 2.35 -9.8 -0.2 L-9.8 -0.25 Q-9.8 -2.85 -7.9 -4.65 -5.95 -6.5 -3.2 -6.5 L3.45 -6.5" fill="#aa3737" fill-rule="evenodd" stroke="none"/>
    </g>
    <g id="sprite4" transform="matrix(1.0, 0.0, 0.0, 1.0, 65.3, 6.5)">
      <use ffdec:characterId="2310" height="8.0" transform="matrix(1.0, 0.0, 0.0, 1.0, -65.3, -3.5)" width="100.0" xlink:href="#sprite2"/>
      <filter id="filter1">
        <feFlood flood-color="#e4e4e4" flood-opacity="1.0" result="filterResult15"/>
        <feOffset dx="2.82846398332808" dy="2.8283902656839723" in="SourceGraphic" result="filterResult16"/>
        <feComposite in="filterResult15" in2="filterResult16" operator="out" result="filterResult17"/>
        <feComposite in="filterResult17" in2="SourceGraphic" operator="in" result="filterResult18"/>
        <feColorMatrix in="filterResult18" result="filterResult19" type="matrix" values="1 0 0 0 0,0 1 0 0 0,0 0 1 0 0,0 0 0 2.19921875 0"/>
        <feFlood flood-color="#333333" flood-opacity="1.0" result="filterResult20"/>
        <feOffset dx="-2.8284639833280805" dy="-2.828390265683972" in="SourceGraphic" result="filterResult21"/>
        <feComposite in="filterResult20" in2="filterResult21" operator="out" result="filterResult22"/>
        <feComposite in="filterResult22" in2="SourceGraphic" operator="in" result="filterResult23"/>
        <feColorMatrix in="filterResult23" result="filterResult24" type="matrix" values="1 0 0 0 0,0 1 0 0 0,0 0 1 0 0,0 0 0 2.19921875 0"/>
        <feComposite in="filterResult19" in2="filterResult24" operator="out" result="filterResult25"/>
        <feComposite in="filterResult24" in2="filterResult19" operator="out" result="filterResult26"/>
        <feComposite in="filterResult26" in2="filterResult25" operator="over" result="filterResult27"/>
        <feComposite in="filterResult27" in2="SourceGraphic" operator="in" result="filterResult28"/>
        <feComposite in="filterResult28" in2="SourceGraphic" operator="over" result="filterResult29"/>
      </filter>
      <use ffdec:characterId="2312" filter="url(#filter1)" height="12.5" id="sliderKnob_spr" transform="matrix(1.0, 0.0, 0.0, 1.0, -9.8, -6.5)" width="19.9" xlink:href="#sprite5"/>
    </g>
    <g id="sprite5" transform="matrix(1.0, 0.0, 0.0, 1.0, 9.8, 6.5)">
      <use ffdec:characterId="2311" height="12.5" transform="matrix(1.0, 0.0, 0.0, 1.0, -9.8, -6.5)" width="19.9" xlink:href="#shape3"/>
    </g>
    <g id="shape3" transform="matrix(1.0, 0.0, 0.0, 1.0, 9.8, 6.5)">
      <path d="M3.45 -6.5 Q6.2 -6.5 8.15 -4.65 10.1 -2.85 10.1 -0.25 L10.1 -0.2 Q10.1 2.35 8.15 4.2 6.2 6.0 3.45 6.0 L-3.2 6.0 Q-5.95 6.0 -7.9 4.2 -9.8 2.35 -9.8 -0.2 L-9.8 -0.25 Q-9.8 -2.85 -7.9 -4.65 -5.95 -6.5 -3.2 -6.5 L3.45 -6.5" fill="#379337" fill-rule="evenodd" stroke="none"/>
    </g>
    <g id="sprite6" transform="matrix(1.0, 0.0, 0.0, 1.0, 65.3, 6.5)">
      <use ffdec:characterId="2310" height="8.0" transform="matrix(1.0, 0.0, 0.0, 1.0, -65.3, -3.5)" width="100.0" xlink:href="#sprite2"/>
      <filter id="filter2">
        <feFlood flood-color="#e4e4e4" flood-opacity="1.0" result="filterResult30"/>
        <feOffset dx="2.82846398332808" dy="2.8283902656839723" in="SourceGraphic" result="filterResult31"/>
        <feComposite in="filterResult30" in2="filterResult31" operator="out" result="filterResult32"/>
        <feComposite in="filterResult32" in2="SourceGraphic" operator="in" result="filterResult33"/>
        <feColorMatrix in="filterResult33" result="filterResult34" type="matrix" values="1 0 0 0 0,0 1 0 0 0,0 0 1 0 0,0 0 0 2.19921875 0"/>
        <feFlood flood-color="#333333" flood-opacity="1.0" result="filterResult35"/>
        <feOffset dx="-2.8284639833280805" dy="-2.828390265683972" in="SourceGraphic" result="filterResult36"/>
        <feComposite in="filterResult35" in2="filterResult36" operator="out" result="filterResult37"/>
        <feComposite in="filterResult37" in2="SourceGraphic" operator="in" result="filterResult38"/>
        <feColorMatrix in="filterResult38" result="filterResult39" type="matrix" values="1 0 0 0 0,0 1 0 0 0,0 0 1 0 0,0 0 0 2.19921875 0"/>
        <feComposite in="filterResult34" in2="filterResult39" operator="out" result="filterResult40"/>
        <feComposite in="filterResult39" in2="filterResult34" operator="out" result="filterResult41"/>
        <feComposite in="filterResult41" in2="filterResult40" operator="over" result="filterResult42"/>
        <feComposite in="filterResult42" in2="SourceGraphic" operator="in" result="filterResult43"/>
        <feComposite in="filterResult43" in2="SourceGraphic" operator="over" result="filterResult44"/>
      </filter>
      <use ffdec:characterId="2312" filter="url(#filter2)" height="12.5" id="sliderKnob_spr" transform="matrix(1.0, 0.0, 0.0, 1.0, -9.8, -6.5)" width="19.9" xlink:href="#sprite7"/>
    </g>
    <g id="sprite7" transform="matrix(1.0, 0.0, 0.0, 1.0, 9.8, 6.5)">
      <use ffdec:characterId="2311" height="12.5" transform="matrix(1.0, 0.0, 0.0, 1.0, -9.8, -6.5)" width="19.9" xlink:href="#shape4"/>
    </g>
    <g id="shape4" transform="matrix(1.0, 0.0, 0.0, 1.0, 9.8, 6.5)">
      <path d="M3.45 -6.5 Q6.2 -6.5 8.15 -4.65 10.1 -2.85 10.1 -0.25 L10.1 -0.2 Q10.1 2.35 8.15 4.2 6.2 6.0 3.45 6.0 L-3.2 6.0 Q-5.95 6.0 -7.9 4.2 -9.8 2.35 -9.8 -0.2 L-9.8 -0.25 Q-9.8 -2.85 -7.9 -4.65 -5.95 -6.5 -3.2 -6.5 L3.45 -6.5" fill="#3737aa" fill-rule="evenodd" stroke="none"/>
    </g>
  </defs>
</svg>
