<?xml version="1.0" encoding="UTF-8" standalone="no"?>
<svg xmlns:ffdec="https://www.free-decompiler.com/flash" xmlns:xlink="http://www.w3.org/1999/xlink" ffdec:objectType="frame" height="46.6px" width="46.75px" xmlns="http://www.w3.org/2000/svg">
  <g transform="matrix(1.0, 0.0, 0.0, 1.0, 14.75, 14.55)">
    <use ffdec:characterId="1624" height="17.5" transform="matrix(1.1357, 0.0, 0.0, 1.1314, 6.2203, 3.5323)" width="14.0" xlink:href="#shape0"/>
    <use ffdec:characterId="1616" height="33.1" transform="matrix(1.0625, 0.0, 0.0, 1.0625, -3.1562, -3.1404)" width="33.1" xlink:href="#sprite0"/>
    <use ffdec:characterId="1624" height="17.5" transform="matrix(1.1357, 0.0, 0.0, 1.1314, 6.2203, 3.5323)" width="14.0" xlink:href="#shape0"/>
    <use ffdec:characterId="1626" height="35.6" transform="matrix(0.7417, 0.0, 0.0, 0.7417, -14.7257, -14.5666)" width="35.4" xlink:href="#sprite1"/>
  </g>
  <defs>
    <g id="shape0" transform="matrix(1.0, 0.0, 0.0, 1.0, -7.15, -4.05)">
      <path d="M20.8 14.55 Q21.15 15.3 21.15 16.35 21.15 18.1 20.25 19.3 19.25 20.4 17.7 21.0 16.1 21.55 14.25 21.55 10.45 21.5 8.65 19.8 6.9 18.1 7.2 14.95 L8.0 15.0 10.05 15.1 12.85 15.2 Q12.7 16.5 13.05 17.0 13.45 17.55 14.2 17.5 L15.15 17.25 Q15.6 16.85 15.6 16.05 L15.35 15.15 14.65 14.65 13.4 14.4 11.7 14.45 11.7 13.6 11.55 11.05 13.25 11.05 14.5 10.75 15.25 10.3 15.5 9.4 Q15.5 8.65 15.15 8.3 14.85 7.9 14.25 7.9 13.45 7.9 13.05 8.55 12.75 9.15 12.85 10.35 L9.95 10.4 8.05 10.4 7.4 10.4 Q7.1 7.15 9.0 5.6 10.8 4.05 14.45 4.05 16.5 4.05 17.95 4.7 19.35 5.35 20.15 6.5 20.9 7.6 20.9 9.1 20.9 10.35 20.2 11.25 L18.3 12.5 Q19.1 12.75 19.75 13.25 L20.8 14.55" fill="#8f24ad" fill-rule="evenodd" stroke="none"/>
    </g>
    <g id="sprite0" transform="matrix(1.0, 0.0, 0.0, 1.0, 0.1, -193.0)">
      <use ffdec:characterId="1615" height="33.1" transform="matrix(1.0, 0.0, 0.0, 1.0, -0.1, 193.0)" width="33.1" xlink:href="#shape1"/>
    </g>
    <g id="shape1" transform="matrix(1.0, 0.0, 0.0, 1.0, 0.1, -193.0)">
      <path d="M16.55 195.5 Q20.6 195.5 23.85 197.5 25.25 198.4 26.45 199.65 30.5 203.8 30.5 209.45 30.5 215.3 26.45 219.45 22.3 223.6 16.55 223.6 14.0 223.6 11.75 222.8 8.95 221.75 6.65 219.45 3.6 216.45 2.7 212.5 2.4 211.0 2.4 209.45 2.4 208.0 2.7 206.55 3.45 203.15 5.85 200.5 L6.65 199.65 Q10.25 195.85 15.45 195.5 L16.55 195.5" fill="#faecff" fill-rule="evenodd" stroke="none"/>
      <path d="M16.55 195.5 Q20.6 195.5 23.85 197.5 25.25 198.4 26.45 199.65 30.5 203.8 30.5 209.45 30.5 215.3 26.45 219.45 22.3 223.6 16.55 223.6 14.0 223.6 11.75 222.8 8.95 221.75 6.65 219.45 3.6 216.45 2.7 212.5 2.4 211.0 2.4 209.45 2.4 208.0 2.7 206.55 3.45 203.15 5.85 200.5 L6.65 199.65 Q10.25 195.85 15.45 195.5 L16.55 195.5 Z" fill="none" stroke="#4d0362" stroke-linecap="round" stroke-linejoin="round" stroke-width="5.0"/>
      <path d="M23.85 197.5 Q25.25 198.4 26.45 199.65 30.5 203.8 30.5 209.45 30.5 215.3 26.45 219.45 22.3 223.6 16.55 223.6 14.0 223.6 11.75 222.8 8.95 221.75 6.65 219.45 3.6 216.45 2.7 212.5 2.4 211.0 2.4 209.45 2.4 208.0 2.7 206.55 3.45 203.15 5.85 200.5 L6.65 199.65 Q10.25 195.85 15.45 195.5 L16.55 195.5 Q20.6 195.5 23.85 197.5" fill="#f2defa" fill-rule="evenodd" stroke="none"/>
      <path d="M23.85 197.5 Q25.25 198.4 26.45 199.65 30.5 203.8 30.5 209.45 30.5 215.3 26.45 219.45 22.3 223.6 16.55 223.6 14.0 223.6 11.75 222.8 8.95 221.75 6.65 219.45 3.6 216.45 2.7 212.5 2.4 211.0 2.4 209.45 2.4 208.0 2.7 206.55 3.45 203.15 5.85 200.5 L6.65 199.65 Q10.25 195.85 15.45 195.5 L16.55 195.5 Q20.6 195.5 23.85 197.5 Z" fill="none" stroke="#bb46db" stroke-linecap="round" stroke-linejoin="round" stroke-width="3.0"/>
      <path d="M27.6 203.6 Q29.25 206.55 29.05 210.2 28.75 215.4 24.85 218.9 20.95 222.35 15.75 222.1 10.6 221.8 7.1 217.9 6.05 216.7 5.35 215.35 9.9 220.1 14.25 220.35 19.6 220.65 23.7 217.0 27.85 213.4 28.15 207.9 L27.6 203.6" fill="#000000" fill-opacity="0.2" fill-rule="evenodd" stroke="none"/>
      <path d="M25.4 200.8 L27.15 203.3 Q22.6 198.7 18.35 198.55 13.1 198.35 9.15 202.0 5.1 205.55 4.9 210.95 4.85 212.1 5.55 215.15 3.9 212.3 4.05 208.7 4.2 203.6 8.0 200.15 11.7 196.7 16.8 196.85 21.9 197.1 25.4 200.8" fill="#ffffff" fill-opacity="0.98039216" fill-rule="evenodd" stroke="none"/>
      <path d="M9.65 196.7 Q10.0 197.0 10.0 197.45 L9.75 198.3 Q9.45 198.65 9.0 198.65 8.5 198.7 8.15 198.4 7.8 198.1 7.8 197.65 7.75 197.15 8.05 196.8 8.35 196.45 8.8 196.45 9.3 196.4 9.65 196.7 M7.4 199.05 L7.55 199.45 7.45 199.9 7.05 200.05 6.6 199.95 6.45 199.55 6.55 199.1 6.95 198.95 7.4 199.05" fill="#ffffff" fill-rule="evenodd" stroke="none"/>
    </g>
    <g id="sprite1" transform="matrix(1.0, 0.0, 0.0, 1.0, -75.8, -197.35)">
      <use ffdec:characterId="1625" height="35.6" transform="matrix(1.0, 0.0, 0.0, 1.0, 75.8, 197.35)" width="35.4" xlink:href="#shape2"/>
    </g>
    <g id="shape2" transform="matrix(1.0, 0.0, 0.0, 1.0, -75.8, -197.35)">
      <path d="M87.15 199.35 L88.5 211.2 77.8 216.65 89.6 219.1 91.5 230.95 97.35 220.55 109.2 222.35 101.15 213.45 106.5 202.8 95.65 207.8 87.15 199.35 Z" fill="none" stroke="#720000" stroke-linecap="round" stroke-linejoin="round" stroke-width="4.0"/>
      <path d="M106.5 202.8 L101.15 213.45 109.2 222.35 97.35 220.55 91.5 230.95 89.6 219.1 77.8 216.65 88.5 211.2 87.15 199.35 95.65 207.8 106.5 202.8" fill="#f30f0f" fill-rule="evenodd" stroke="none"/>
      <path d="M106.5 202.8 L95.65 207.8 87.15 199.35 88.5 211.2 77.8 216.65 89.6 219.1 91.5 230.95 97.35 220.55 109.2 222.35 101.15 213.45 106.5 202.8 Z" fill="none" stroke="#a60404" stroke-linecap="round" stroke-linejoin="round" stroke-width="1.5"/>
      <path d="M106.5 202.65 L95.65 207.65 87.15 199.2 88.5 211.05 77.8 216.5 89.6 218.95 91.5 230.8 97.35 220.4 109.2 222.2 101.15 213.3 106.5 202.65 Z" ffdec:has-small-stroke="true" ffdec:original-stroke-width="0.2" fill="none" stroke="#ff9a00" stroke-linecap="round" stroke-linejoin="round" stroke-width="1.348172224393656"/>
      <path d="M88.15 222.95 L87.15 223.45 85.9 224.0 85.4 223.05 84.05 220.15 81.95 215.75 83.15 215.1 84.1 214.6 Q86.25 213.55 87.8 213.9 89.25 214.2 90.05 216.0 90.55 217.15 90.4 218.1 90.25 219.05 89.55 219.85 88.8 220.65 87.7 221.1 L88.6 222.8 88.15 222.95 M88.9 212.4 Q89.55 211.9 90.15 211.55 90.85 211.1 91.4 210.85 93.35 209.95 94.75 210.3 96.15 210.6 96.9 212.15 97.25 213.05 97.2 213.8 97.1 214.6 96.65 215.2 L97.75 216.1 99.65 217.65 99.3 217.9 98.45 218.4 97.0 219.25 96.35 218.55 94.5 216.9 94.4 216.95 94.2 217.1 95.35 219.5 94.95 219.65 93.95 220.15 92.75 220.7 92.3 219.75 90.95 216.85 88.9 212.4 M102.95 212.85 L102.35 211.3 101.5 209.8 100.95 209.2 100.35 209.25 100.0 209.7 100.1 210.55 100.7 212.15 101.45 213.55 102.1 214.15 102.7 214.1 103.0 213.75 102.95 212.85 M103.75 207.75 Q104.55 208.6 105.25 210.0 105.95 211.6 105.95 212.75 105.95 213.9 105.3 214.85 104.75 215.65 103.6 216.1 L100.25 216.25 Q98.85 215.65 97.8 213.5 97.2 212.1 97.15 210.9 97.1 209.65 97.65 208.7 98.25 207.85 99.4 207.25 100.7 206.65 101.8 206.75 102.85 206.95 103.75 207.75 M86.75 219.2 L87.6 218.45 Q87.8 218.0 87.4 217.2 L86.7 216.35 85.75 216.3 85.65 216.35 85.45 216.4 85.75 217.15 86.75 219.2 M93.35 215.4 L94.35 214.65 Q94.6 214.2 94.35 213.55 L93.6 212.8 Q93.1 212.55 92.55 212.8 L92.45 212.85 92.25 213.05 92.8 214.2 93.25 215.0 93.35 215.4" fill="#ffffff" fill-rule="evenodd" stroke="none"/>
      <path d="M88.15 222.95 L88.6 222.8 M85.75 217.15 L85.45 216.4 M93.35 215.4 L93.25 215.0" fill="none" stroke="#3a0202" stroke-linecap="round" stroke-linejoin="round" stroke-width="1.5"/>
      <path d="M86.75 219.2 L85.75 217.15" fill="none" stroke="#000000" stroke-linecap="round" stroke-linejoin="round" stroke-width="2.5"/>
      <path d="M103.75 207.75 Q102.85 206.95 101.8 206.75 100.7 206.65 99.4 207.25 98.25 207.85 97.65 208.7 97.1 209.65 97.15 210.9 97.2 212.1 97.8 213.5 98.85 215.65 100.25 216.25 L103.6 216.1 Q104.75 215.65 105.3 214.85 105.95 213.9 105.95 212.75 105.95 211.6 105.25 210.0 104.55 208.6 103.75 207.75 M102.95 212.85 L103.0 213.75 102.7 214.1 102.1 214.15 101.45 213.55 100.7 212.15 100.1 210.55 100.0 209.7 100.35 209.25 100.95 209.2 101.5 209.8 102.35 211.3 102.95 212.85 M88.9 212.4 L90.95 216.85 92.3 219.75 92.75 220.7 93.95 220.15 94.95 219.65 95.35 219.5 94.2 217.1 94.4 216.95 94.5 216.9 96.35 218.55 97.0 219.25 98.45 218.4 99.3 217.9 99.65 217.65 97.75 216.1 96.65 215.2 Q97.1 214.6 97.2 213.8 97.25 213.05 96.9 212.15 96.15 210.6 94.75 210.3 93.35 209.95 91.4 210.85 90.85 211.1 90.15 211.55 89.55 211.9 88.9 212.4 M88.6 222.8 L87.7 221.1 Q88.8 220.65 89.55 219.85 90.25 219.05 90.4 218.1 90.55 217.15 90.05 216.0 89.25 214.2 87.8 213.9 86.25 213.55 84.1 214.6 L83.15 215.1 81.95 215.75 84.05 220.15 85.4 223.05 85.9 224.0 87.15 223.45 88.15 222.95 M85.45 216.4 L85.65 216.35 85.75 216.3 86.7 216.35 87.4 217.2 Q87.8 218.0 87.6 218.45 L86.75 219.2 M93.25 215.0 L92.8 214.2 92.25 213.05 92.45 212.85 92.55 212.8 Q93.1 212.55 93.6 212.8 L94.35 213.55 Q94.6 214.2 94.35 214.65 L93.35 215.4" fill="none" stroke="#3c0000" stroke-linecap="round" stroke-linejoin="round" stroke-width="2.5"/>
      <path d="M102.95 212.85 L102.35 211.3 101.5 209.8 100.95 209.2 100.35 209.25 100.0 209.7 100.1 210.55 100.7 212.15 101.45 213.55 102.1 214.15 102.7 214.1 103.0 213.75 102.95 212.85 M101.8 206.75 Q102.85 206.95 103.75 207.75 104.55 208.6 105.25 210.0 105.95 211.6 105.95 212.75 105.95 213.9 105.3 214.85 104.75 215.65 103.6 216.1 L100.25 216.25 Q98.85 215.65 97.8 213.5 97.2 212.1 97.15 210.9 97.1 209.65 97.65 208.7 98.25 207.85 99.4 207.25 100.7 206.65 101.8 206.75 M93.6 212.8 Q93.1 212.55 92.55 212.8 L92.45 212.85 92.25 213.05 92.8 214.2 93.25 215.0 93.35 215.4 94.35 214.65 Q94.6 214.2 94.35 213.55 L93.6 212.8 M85.75 216.3 L85.65 216.35 85.45 216.4 85.75 217.15 86.75 219.2 87.6 218.45 Q87.8 218.0 87.4 217.2 L86.7 216.35 85.75 216.3 M87.8 213.9 Q89.25 214.2 90.05 216.0 90.55 217.15 90.4 218.1 90.25 219.05 89.55 219.85 88.8 220.65 87.7 221.1 L88.6 222.8 88.15 222.95 87.15 223.45 85.9 224.0 85.4 223.05 84.05 220.15 81.95 215.75 83.15 215.1 84.1 214.6 Q86.25 213.55 87.8 213.9 M88.9 212.4 Q89.55 211.9 90.15 211.55 90.85 211.1 91.4 210.85 93.35 209.95 94.75 210.3 96.15 210.6 96.9 212.15 97.25 213.05 97.2 213.8 97.1 214.6 96.65 215.2 L97.75 216.1 99.65 217.65 99.3 217.9 98.45 218.4 97.0 219.25 96.35 218.55 94.5 216.9 94.4 216.95 94.2 217.1 95.35 219.5 94.95 219.65 93.95 220.15 92.75 220.7 92.3 219.75 90.95 216.85 88.9 212.4" fill="#ffffff" fill-rule="evenodd" stroke="none"/>
    </g>
  </defs>
</svg>
