<?xml version="1.0" encoding="UTF-8" standalone="no"?>
<svg xmlns:ffdec="https://www.free-decompiler.com/flash" xmlns:xlink="http://www.w3.org/1999/xlink" ffdec:objectType="frame" height="71.25px" width="140.0px" xmlns="http://www.w3.org/2000/svg">
  <g transform="matrix(1.0, 0.0, 0.0, 1.0, 133.35, 18.0)">
    <use ffdec:characterId="960" height="45.9" transform="matrix(0.7796, 0.0, 0.0, 1.4113, -20.6669, -11.55)" width="35.05" xlink:href="#sprite0"/>
    <use ffdec:characterId="961" height="45.15" transform="matrix(0.7796, 0.0, 0.0, 1.4113, -48.65, -17.25)" width="37.85" xlink:href="#sprite1"/>
    <use ffdec:characterId="962" height="42.8" transform="matrix(0.7796, 0.0, 0.0, 1.4113, -69.05, -9.0)" width="29.75" xlink:href="#sprite2"/>
    <use ffdec:characterId="963" height="44.9" transform="matrix(0.7796, 0.0, 0.0, 1.4113, -96.3, -18.0)" width="36.65" xlink:href="#sprite3"/>
    <use ffdec:characterId="965" height="43.95" transform="matrix(0.7796, 0.0, 0.0, 1.4113, -133.3398, -9.2)" width="50.15" xlink:href="#sprite4"/>
  </g>
  <defs>
    <g id="sprite0" transform="matrix(1.0, 0.0, 0.0, 1.0, 0.15, 0.0)">
      <use ffdec:characterId="536" height="45.9" transform="matrix(1.0, 0.0, 0.0, 1.0, -0.15, 0.0)" width="35.05" xlink:href="#shape0"/>
    </g>
    <g id="shape0" transform="matrix(1.0, 0.0, 0.0, 1.0, 0.15, 0.0)">
      <path d="M21.45 0.9 L21.5 18.55 17.75 19.25 17.7 6.0 21.45 0.9 M3.75 2.6 L3.95 7.85 4.2 25.45 4.1 38.7 0.35 43.8 0.4 25.5 0.0 7.7 3.75 2.6" fill="#ab0404" fill-rule="evenodd" stroke="none"/>
      <path d="M17.75 19.25 L21.5 18.55 21.45 0.9 34.55 0.0 Q34.2 12.5 34.25 24.85 L34.4 40.35 21.4 40.3 21.7 28.1 16.85 28.9 16.85 33.4 16.85 38.1 4.1 38.7 4.2 25.45 3.95 7.85 3.75 2.6 16.4 3.0 16.7 19.45 17.75 19.25" fill="url(#gradient0)" fill-rule="evenodd" stroke="none"/>
      <path d="M4.1 38.7 L16.85 38.1 13.1 43.2 0.35 43.8 4.1 38.7 M16.85 33.4 L16.85 28.9 21.7 28.1 17.95 33.2 16.85 33.4 M21.4 40.3 L34.4 40.35 30.65 45.45 17.65 45.4 21.4 40.3" fill="#790000" fill-rule="evenodd" stroke="none"/>
      <path d="M21.7 28.1 L21.4 40.3 17.65 45.4 17.95 33.2 21.7 28.1" fill="#9a0000" fill-rule="evenodd" stroke="none"/>
      <path d="M3.75 2.6 L3.95 7.85 4.2 25.45 4.1 38.7 16.85 38.1 M0.35 43.8 L4.1 38.7" fill="none" stroke="url(#gradient1)" stroke-linecap="round" stroke-linejoin="round" stroke-width="1.0"/>
      <path d="M21.7 28.1 L21.4 40.3 34.4 40.35 M17.65 45.4 L21.4 40.3" fill="none" stroke="url(#gradient2)" stroke-linecap="round" stroke-linejoin="round" stroke-width="1.0"/>
    </g>
    <linearGradient gradientTransform="matrix(0.0, 0.0231, -0.024, 0.0, -129.55, 20.85)" gradientUnits="userSpaceOnUse" id="gradient0" spreadMethod="pad" x1="-819.2" x2="819.2">
      <stop offset="0.0" stop-color="#ff452e"/>
      <stop offset="1.0" stop-color="#e00a0a"/>
    </linearGradient>
    <radialGradient cx="0" cy="0" gradientTransform="matrix(0.0168, 0.0, 0.0, 0.0094, 8.0, 35.5)" gradientUnits="userSpaceOnUse" id="gradient1" r="819.2" spreadMethod="pad">
      <stop offset="0.12941176470588237" stop-color="#ffe48e" stop-opacity="0.4"/>
      <stop offset="1.0" stop-color="#ffe983" stop-opacity="0.0"/>
    </radialGradient>
    <radialGradient cx="0" cy="0" gradientTransform="matrix(0.0165, 0.0, 0.0, 0.0093, 25.5, 37.25)" gradientUnits="userSpaceOnUse" id="gradient2" r="819.2" spreadMethod="pad">
      <stop offset="0.12941176470588237" stop-color="#ffe48e" stop-opacity="0.4"/>
      <stop offset="1.0" stop-color="#ffe983" stop-opacity="0.0"/>
    </radialGradient>
    <g id="sprite1" transform="matrix(1.0, 0.0, 0.0, 1.0, 0.0, 0.0)">
      <use ffdec:characterId="920" height="45.15" transform="matrix(1.0, 0.0, 0.0, 1.0, 0.0, 0.0)" width="37.85" xlink:href="#shape1"/>
    </g>
    <g id="shape1" transform="matrix(1.0, 0.0, 0.0, 1.0, 0.0, 0.0)">
      <path d="M37.35 14.65 L23.8 16.6 Q23.3 11.05 21.05 11.05 19.25 11.0 18.75 16.9 L18.55 20.45 Q18.4 27.8 20.2 29.55 20.7 30.0 21.35 30.05 22.2 29.9 22.8 28.95 23.75 27.35 24.0 23.6 L37.85 24.95 Q37.55 31.05 34.9 34.7 L34.7 34.95 34.6 35.1 32.7 37.0 Q28.35 40.45 20.3 40.0 3.65 39.95 3.75 19.65 4.0 13.3 6.0 9.0 L6.9 7.3 7.35 6.6 Q11.55 0.5 20.5 0.0 36.65 0.9 37.35 14.65" fill="url(#gradient3)" fill-rule="evenodd" stroke="none"/>
      <path d="M23.8 16.6 L20.05 21.7 Q19.75 18.2 18.75 16.9 19.25 11.0 21.05 11.05 23.3 11.05 23.8 16.6" fill="url(#gradient4)" fill-rule="evenodd" stroke="none"/>
      <path d="M37.35 14.65 L33.6 19.75 20.05 21.7 23.8 16.6 37.35 14.65" fill="#790000" fill-rule="evenodd" stroke="none"/>
      <path d="M34.6 35.1 L31.65 39.05 31.3 39.65 Q27.05 45.65 16.55 45.1 -0.1 45.05 0.0 24.75 0.3 16.3 3.75 11.5 L4.45 10.55 6.9 7.3 6.0 9.0 Q4.0 13.3 3.75 19.65 3.65 39.95 20.3 40.0 28.35 40.45 32.7 37.0 L34.6 35.1" fill="url(#gradient5)" fill-rule="evenodd" stroke="none"/>
      <path d="M20.2 29.55 L20.25 28.7 24.0 23.6 Q23.75 27.35 22.8 28.95 22.2 29.9 21.35 30.05 20.7 30.0 20.2 29.55" fill="url(#gradient6)" fill-rule="evenodd" stroke="none"/>
      <path d="M6.9 7.3 L6.0 9.0 Q4.0 13.3 3.75 19.65 3.65 39.95 20.3 40.0 28.35 40.45 32.7 37.0 L34.6 35.1" fill="none" stroke="url(#gradient7)" stroke-linecap="round" stroke-linejoin="round" stroke-width="1.0"/>
    </g>
    <linearGradient gradientTransform="matrix(0.0, 0.0239, -0.0244, 0.0, 20.8, 20.0)" gradientUnits="userSpaceOnUse" id="gradient3" spreadMethod="pad" x1="-819.2" x2="819.2">
      <stop offset="0.0" stop-color="#ff452e"/>
      <stop offset="1.0" stop-color="#e00a0a"/>
    </linearGradient>
    <linearGradient gradientTransform="matrix(0.004, 0.0029, -0.0038, 0.0052, 20.2, 12.75)" gradientUnits="userSpaceOnUse" id="gradient4" spreadMethod="pad" x1="-819.2" x2="819.2">
      <stop offset="0.1803921568627451" stop-color="#aa0000"/>
      <stop offset="0.5019607843137255" stop-color="#790000"/>
      <stop offset="0.803921568627451" stop-color="#790000"/>
      <stop offset="0.9882352941176471" stop-color="#930000"/>
    </linearGradient>
    <linearGradient gradientTransform="matrix(0.0184, 0.0125, -0.0129, 0.0191, 19.65, 27.25)" gradientUnits="userSpaceOnUse" id="gradient5" spreadMethod="pad" x1="-819.2" x2="819.2">
      <stop offset="0.1803921568627451" stop-color="#aa0000"/>
      <stop offset="0.5019607843137255" stop-color="#790000"/>
      <stop offset="0.803921568627451" stop-color="#790000"/>
      <stop offset="0.9882352941176471" stop-color="#930000"/>
    </linearGradient>
    <linearGradient gradientTransform="matrix(0.0054, 0.0038, -0.0023, 0.0032, 25.7, 29.55)" gradientUnits="userSpaceOnUse" id="gradient6" spreadMethod="pad" x1="-819.2" x2="819.2">
      <stop offset="0.1803921568627451" stop-color="#aa0000"/>
      <stop offset="0.5019607843137255" stop-color="#790000"/>
      <stop offset="0.803921568627451" stop-color="#790000"/>
      <stop offset="0.9882352941176471" stop-color="#930000"/>
    </linearGradient>
    <radialGradient cx="0" cy="0" gradientTransform="matrix(0.0241, 0.0, 0.0, 0.0111, 19.25, 35.75)" gradientUnits="userSpaceOnUse" id="gradient7" r="819.2" spreadMethod="pad">
      <stop offset="0.1568627450980392" stop-color="#ffe48e" stop-opacity="0.4"/>
      <stop offset="1.0" stop-color="#ffe983" stop-opacity="0.0"/>
    </radialGradient>
    <g id="sprite2" transform="matrix(1.0, 0.0, 0.0, 1.0, 0.0, 0.0)">
      <use ffdec:characterId="490" height="42.8" transform="matrix(1.0, 0.0, 0.0, 1.0, 0.0, 0.0)" width="29.75" xlink:href="#shape2"/>
    </g>
    <g id="shape2" transform="matrix(1.0, 0.0, 0.0, 1.0, 0.0, 0.0)">
      <path d="M3.75 0.65 L4.0 5.85 4.4 20.95 4.5 37.2 0.75 42.3 0.55 21.05 0.0 5.75 3.75 0.65" fill="#ab0404" fill-rule="evenodd" stroke="none"/>
      <path d="M4.5 37.2 L4.4 20.95 4.0 5.85 3.75 0.65 17.3 0.0 Q17.05 10.6 17.55 20.7 L17.9 26.6 29.75 26.2 Q28.9 31.9 29.05 37.55 L4.5 37.2" fill="url(#gradient8)" fill-rule="evenodd" stroke="none"/>
      <path d="M4.5 37.2 L29.05 37.55 25.3 42.65 0.75 42.3 4.5 37.2" fill="#790000" fill-rule="evenodd" stroke="none"/>
      <path d="M3.75 0.65 L4.0 5.85 4.4 20.95 4.5 37.2 29.05 37.55 M0.75 42.3 L4.5 37.2" fill="none" stroke="url(#gradient9)" stroke-linecap="round" stroke-linejoin="round" stroke-width="1.0"/>
    </g>
    <linearGradient gradientTransform="matrix(0.0, 0.0231, -0.024, 0.0, -267.75, 18.95)" gradientUnits="userSpaceOnUse" id="gradient8" spreadMethod="pad" x1="-819.2" x2="819.2">
      <stop offset="0.0" stop-color="#ff452e"/>
      <stop offset="1.0" stop-color="#e00a0a"/>
    </linearGradient>
    <radialGradient cx="0" cy="0" gradientTransform="matrix(0.0226, 0.0, 0.0, 0.0089, 9.75, 34.75)" gradientUnits="userSpaceOnUse" id="gradient9" r="819.2" spreadMethod="pad">
      <stop offset="0.12941176470588237" stop-color="#ffe48e" stop-opacity="0.4"/>
      <stop offset="1.0" stop-color="#ffe983" stop-opacity="0.0"/>
    </radialGradient>
    <g id="sprite3" transform="matrix(1.0, 0.0, 0.0, 1.0, 0.0, 0.0)">
      <use ffdec:characterId="907" height="44.9" transform="matrix(1.0, 0.0, 0.0, 1.0, 0.0, 0.0)" width="36.65" xlink:href="#shape3"/>
    </g>
    <g id="shape3" transform="matrix(1.0, 0.0, 0.0, 1.0, 0.0, 0.0)">
      <path d="M21.75 1.8 L22.2 6.35 Q24.15 28.0 20.4 28.2 19.6 28.25 19.0 27.55 19.5 21.0 18.0 6.9 L21.75 1.8" fill="#ab0404" fill-rule="evenodd" stroke="none"/>
      <path d="M19.0 27.55 Q19.6 28.25 20.4 28.2 24.15 28.0 22.2 6.35 L21.75 1.8 34.85 0.0 Q39.35 24.7 32.75 34.05 L32.2 34.8 30.5 36.6 Q26.6 39.85 20.35 39.8 0.35 38.35 4.45 7.65 L5.3 2.2 18.05 3.65 Q15.95 24.2 19.0 27.55" fill="url(#gradient10)" fill-rule="evenodd" stroke="none"/>
      <path d="M5.3 2.2 L4.45 7.65 Q0.35 38.35 20.35 39.8 26.6 39.85 30.5 36.6 L32.2 34.8 29.3 38.75 28.3 40.1 27.95 40.55 Q23.9 44.95 16.6 44.9 -5.1 43.3 1.55 7.3 L5.3 2.2" fill="url(#gradient11)" fill-rule="evenodd" stroke="none"/>
      <path d="M5.3 2.2 L4.45 7.65 Q0.35 38.35 20.35 39.8 26.6 39.85 30.5 36.6 L32.2 34.8" fill="none" stroke="url(#gradient12)" stroke-linecap="round" stroke-linejoin="round" stroke-width="1.0"/>
    </g>
    <linearGradient gradientTransform="matrix(0.0, 0.0226, -0.025, 0.0, 105.2, 19.7)" gradientUnits="userSpaceOnUse" id="gradient10" spreadMethod="pad" x1="-819.2" x2="819.2">
      <stop offset="0.0" stop-color="#ff452e"/>
      <stop offset="1.0" stop-color="#e00a0a"/>
    </linearGradient>
    <linearGradient gradientTransform="matrix(0.017, 0.0098, -0.013, 0.0226, 19.55, 26.65)" gradientUnits="userSpaceOnUse" id="gradient11" spreadMethod="pad" x1="-819.2" x2="819.2">
      <stop offset="0.1803921568627451" stop-color="#aa0000"/>
      <stop offset="0.5019607843137255" stop-color="#790000"/>
      <stop offset="0.803921568627451" stop-color="#790000"/>
      <stop offset="0.9882352941176471" stop-color="#930000"/>
    </linearGradient>
    <radialGradient cx="0" cy="0" gradientTransform="matrix(0.0171, 0.0, 0.0, 0.0085, 17.75, 36.75)" gradientUnits="userSpaceOnUse" id="gradient12" r="819.2" spreadMethod="pad">
      <stop offset="0.12941176470588237" stop-color="#ffe48e" stop-opacity="0.4"/>
      <stop offset="1.0" stop-color="#ffe983" stop-opacity="0.0"/>
    </radialGradient>
    <g id="sprite4" transform="matrix(1.0, 0.0, 0.0, 1.0, 0.5, 0.0)">
      <use ffdec:characterId="964" height="43.95" transform="matrix(1.0, 0.0, 0.0, 1.0, -0.5, 0.0)" width="50.15" xlink:href="#shape4"/>
    </g>
    <g id="shape4" transform="matrix(1.0, 0.0, 0.0, 1.0, 0.5, 0.0)">
      <path d="M28.5 0.1 L46.8 0.0 Q47.1 10.1 47.75 20.15 48.3 29.5 49.15 38.85 L36.4 38.25 35.75 16.35 32.35 31.45 32.3 31.45 21.55 31.75 18.25 20.7 17.45 18.0 17.15 20.7 Q16.55 26.1 16.25 31.65 L15.95 37.8 3.75 37.3 4.95 20.95 5.5 6.85 5.6 1.6 24.1 2.3 24.7 5.9 26.7 18.35 28.5 0.1" fill="url(#gradient13)" fill-rule="evenodd" stroke="none"/>
      <path d="M3.75 37.3 L15.95 37.8 12.2 42.9 0.0 42.4 3.75 37.3 M21.55 31.75 L32.3 31.45 32.3 31.55 28.6 36.55 17.8 36.85 21.55 31.75 M36.4 38.25 L49.15 38.85 45.4 43.95 32.65 43.35 36.4 38.25" fill="#790000" fill-rule="evenodd" stroke="none"/>
      <path d="M28.5 0.1 L26.7 18.35 24.7 5.9 24.75 5.2 28.5 0.1" fill="#b80a0a" fill-rule="evenodd" stroke="none"/>
      <path d="M5.6 1.6 L5.5 6.85 4.95 20.95 3.75 37.3 0.0 42.4 Q0.95 31.9 1.45 21.0 L1.85 6.7 5.6 1.6 M32.35 31.45 L35.75 16.35 36.4 38.25 32.65 43.35 32.3 31.55 32.35 31.45" fill="#ab0404" fill-rule="evenodd" stroke="none"/>
      <path d="M16.25 31.65 Q16.55 26.1 17.15 20.7 L17.45 18.0 18.25 20.7 21.55 31.75 17.8 36.85 16.25 31.65" fill="#9a0000" fill-rule="evenodd" stroke="none"/>
      <path d="M5.6 1.6 L5.5 6.85 4.95 20.95 3.75 37.3 15.95 37.8 M0.0 42.4 L3.75 37.3" fill="none" stroke="url(#gradient14)" stroke-linecap="round" stroke-linejoin="round" stroke-width="1.0"/>
      <path d="M17.45 18.0 L18.25 20.7 21.55 31.75 32.3 31.45 M17.8 36.85 L21.55 31.75" fill="none" stroke="url(#gradient15)" stroke-linecap="round" stroke-linejoin="round" stroke-width="1.0"/>
      <path d="M35.75 16.35 L36.4 38.25 49.15 38.85 M32.65 43.35 L36.4 38.25" fill="none" stroke="url(#gradient16)" stroke-linecap="round" stroke-linejoin="round" stroke-width="1.0"/>
    </g>
    <linearGradient gradientTransform="matrix(0.0, 0.0231, -0.024, 0.0, -299.65, 19.55)" gradientUnits="userSpaceOnUse" id="gradient13" spreadMethod="pad" x1="-819.2" x2="819.2">
      <stop offset="0.0" stop-color="#ff452e"/>
      <stop offset="1.0" stop-color="#e00a0a"/>
    </linearGradient>
    <radialGradient cx="0" cy="0" gradientTransform="matrix(0.0168, 0.0, 0.0, 0.0097, 7.5, 34.25)" gradientUnits="userSpaceOnUse" id="gradient14" r="819.2" spreadMethod="pad">
      <stop offset="0.12941176470588237" stop-color="#ffe48e" stop-opacity="0.4"/>
      <stop offset="1.0" stop-color="#ffe983" stop-opacity="0.0"/>
    </radialGradient>
    <radialGradient cx="0" cy="0" gradientTransform="matrix(0.0131, 0.0, 0.0, 0.0089, 23.75, 28.75)" gradientUnits="userSpaceOnUse" id="gradient15" r="819.2" spreadMethod="pad">
      <stop offset="0.12941176470588237" stop-color="#ffe48e" stop-opacity="0.4"/>
      <stop offset="1.0" stop-color="#ffe983" stop-opacity="0.0"/>
    </radialGradient>
    <radialGradient cx="0" cy="0" gradientTransform="matrix(0.0162, 0.0, 0.0, 0.0093, 39.25, 35.5)" gradientUnits="userSpaceOnUse" id="gradient16" r="819.2" spreadMethod="pad">
      <stop offset="0.12941176470588237" stop-color="#ffe48e" stop-opacity="0.4"/>
      <stop offset="1.0" stop-color="#ffe983" stop-opacity="0.0"/>
    </radialGradient>
  </defs>
</svg>
