<?xml version="1.0" encoding="UTF-8" standalone="no"?>
<svg xmlns:ffdec="https://www.free-decompiler.com/flash" xmlns:xlink="http://www.w3.org/1999/xlink" ffdec:objectType="frame" height="205.85px" width="78.0px" xmlns="http://www.w3.org/2000/svg">
  <g transform="matrix(1.0, 0.0, 0.0, 1.0, 2.5, 1.85)">
    <use ffdec:characterId="2471" height="20.65" transform="matrix(1.0, 0.0, 0.0, 1.0, -2.5, -1.85)" width="78.0" xlink:href="#shape0"/>
    <use ffdec:characterId="2479" height="193.0" transform="matrix(1.0, 0.0, 0.0, 1.0, -2.5, 11.0)" width="78.0" xlink:href="#shape1"/>
    <use ffdec:characterId="2473" height="19.15" transform="matrix(1.0, 0.0, 0.0, 1.0, -1.0, -0.35)" width="75.0" xlink:href="#shape2"/>
    <use ffdec:characterId="2480" height="190.0" transform="matrix(1.0, 0.0, 0.0, 1.0, -1.0, 12.5)" width="75.0" xlink:href="#shape3"/>
    <use ffdec:characterId="44" height="4.7" transform="matrix(1.2119, -0.4645, 0.2361, 0.6159, 1.5473, 1.0944)" width="4.7" xlink:href="#sprite0"/>
    <use ffdec:characterId="44" height="4.7" transform="matrix(0.5925, -0.062, 0.062, 0.5925, -0.3381, 3.5533)" width="4.7" xlink:href="#sprite0"/>
    <use ffdec:characterId="44" height="4.7" transform="matrix(0.7519, 0.4341, -0.3026, 0.524, 67.044, -1.0516)" width="4.7" xlink:href="#sprite0"/>
  </g>
  <defs>
    <g id="shape0" transform="matrix(1.0, 0.0, 0.0, 1.0, 2.5, 1.85)">
      <path d="M73.0 11.75 L73.0 12.3 73.0 18.8 0.0 18.8 0.0 13.65 0.0 11.8 0.2 9.9 Q1.55 0.65 12.35 0.65 L60.7 0.65 Q71.5 0.65 72.8 9.9 L73.0 11.75" fill="#ffffff" fill-rule="evenodd" stroke="none"/>
      <path d="M0.0 11.8 L0.0 9.9 0.2 9.9 0.0 11.8 M72.8 9.9 L73.0 9.9 73.0 11.75 72.8 9.9" fill="#0099ff" fill-rule="evenodd" stroke="none"/>
      <path d="M73.0 11.75 L73.0 12.3 M0.0 13.65 L0.0 11.8 0.2 9.9 Q1.55 0.65 12.35 0.65 L60.7 0.65 Q71.5 0.65 72.8 9.9 L73.0 11.75" fill="none" stroke="#009900" stroke-linecap="round" stroke-linejoin="round" stroke-width="5.0"/>
    </g>
    <g id="shape1" transform="matrix(1.0, 0.0, 0.0, 1.0, 2.5, -11.0)">
      <path d="M0.0 13.5 L73.0 13.5 73.0 151.0 73.0 189.45 Q73.0 201.5 60.7 201.5 L12.35 201.5 Q0.0 201.5 0.0 189.45 L0.0 151.0 0.0 13.5" fill="#ffffff" fill-rule="evenodd" stroke="none"/>
      <path d="M0.0 13.5 L0.0 151.0 0.0 189.45 Q0.0 201.5 12.35 201.5 L60.7 201.5 Q73.0 201.5 73.0 189.45 L73.0 151.0 73.0 13.5" fill="none" stroke="#009900" stroke-linecap="round" stroke-linejoin="round" stroke-width="5.0"/>
    </g>
    <g id="shape2" transform="matrix(1.0, 0.0, 0.0, 1.0, 1.0, 0.35)">
      <path d="M0.0 11.8 L0.0 9.9 0.2 9.9 0.0 11.8 M72.8 9.9 L73.0 9.9 73.0 11.75 72.8 9.9" fill="#0099ff" fill-rule="evenodd" stroke="none"/>
      <path d="M73.0 11.75 L73.0 13.5 73.0 18.8 0.0 18.8 0.0 13.65 0.0 11.8 0.2 9.9 Q1.55 0.65 12.35 0.65 L60.7 0.65 Q71.5 0.65 72.8 9.9 L73.0 11.75" fill="#ffffff" fill-rule="evenodd" stroke="none"/>
      <path d="M73.0 11.75 L73.0 13.5 M0.0 13.65 L0.0 11.8 0.2 9.9 Q1.55 0.65 12.35 0.65 L60.7 0.65 Q71.5 0.65 72.8 9.9 L73.0 11.75" fill="none" stroke="#70d801" stroke-linecap="round" stroke-linejoin="round" stroke-width="2.0"/>
    </g>
    <g id="shape3" transform="matrix(1.0, 0.0, 0.0, 1.0, 1.0, -12.5)">
      <path d="M0.0 13.5 L73.0 13.5 73.0 151.0 73.0 189.45 Q73.0 201.5 60.7 201.5 L12.35 201.5 Q0.0 201.5 0.0 189.45 L0.0 151.0 0.0 13.5" fill="#ffffff" fill-rule="evenodd" stroke="none"/>
      <path d="M0.0 13.5 L0.0 151.0 0.0 189.45 Q0.0 201.5 12.35 201.5 L60.7 201.5 Q73.0 201.5 73.0 189.45 L73.0 151.0 73.0 13.5" fill="none" stroke="#70d801" stroke-linecap="round" stroke-linejoin="round" stroke-width="2.0"/>
    </g>
    <g id="sprite0" transform="matrix(1.0, 0.0, 0.0, 1.0, 2.35, 2.35)">
      <use ffdec:characterId="29" height="25.1" transform="matrix(0.1873, 0.0, 0.0, 0.1873, -2.3663, -2.357)" width="25.1" xlink:href="#shape4"/>
    </g>
    <g id="shape4" transform="matrix(1.0, 0.0, 0.0, 1.0, -2.85, -2.9)">
      <path d="M27.95 15.45 Q27.95 20.65 24.25 24.3 20.65 28.0 15.4 28.0 10.2 28.0 6.55 24.3 2.85 20.65 2.85 15.45 2.85 10.25 6.55 6.6 10.2 2.9 15.4 2.9 20.65 2.9 24.25 6.6 27.95 10.25 27.95 15.45" fill="#ffffff" fill-rule="evenodd" stroke="none"/>
    </g>
  </defs>
</svg>
