<?xml version="1.0" encoding="UTF-8" standalone="no"?>
<svg xmlns:ffdec="https://www.free-decompiler.com/flash" xmlns:xlink="http://www.w3.org/1999/xlink" ffdec:objectType="frame" height="8.85px" width="14.0px" xmlns="http://www.w3.org/2000/svg">
  <g transform="matrix(1.0, 0.0, 0.0, 1.0, 0.0, -0.15)">
    <use ffdec:characterId="208" height="8.85" transform="matrix(1.0, 0.0, 0.0, 1.0, 0.0, 0.15)" width="14.0" xlink:href="#shape0"/>
  </g>
  <defs>
    <g id="shape0" transform="matrix(1.0, 0.0, 0.0, 1.0, 0.0, -0.15)">
      <path d="M12.7 1.9 Q14.0 3.05 14.0 4.5 14.0 5.8 13.0 6.85 L11.95 7.65 Q9.9 9.0 7.0 9.0 4.1 9.0 2.05 7.65 L1.95 7.6 Q0.0 6.3 0.0 4.5 L0.05 4.15 Q0.2 2.5 3.2 1.45 6.15 0.4 8.05 0.2 9.95 0.0 11.15 0.8 L12.7 1.9" fill="#4aa613" fill-rule="evenodd" stroke="none"/>
    </g>
  </defs>
</svg>
