<?xml version="1.0" encoding="UTF-8" standalone="no"?>
<svg xmlns:ffdec="https://www.free-decompiler.com/flash" xmlns:xlink="http://www.w3.org/1999/xlink" ffdec:objectType="frame" height="117.65px" width="231.75px" xmlns="http://www.w3.org/2000/svg">
  <g transform="matrix(1.0, 0.0, 0.0, 1.0, -24.0, 79.5)">
    <use ffdec:characterId="2895" height="117.65" transform="matrix(1.0, 0.0, 0.0, 1.0, 24.0, -79.5)" width="231.75" xlink:href="#shape0"/>
  </g>
  <defs>
    <g id="shape0" transform="matrix(1.0, 0.0, 0.0, 1.0, -24.0, 79.5)">
      <path d="M29.1 -78.5 L29.1 -77.35 29.15 -74.9 Q29.7 -44.55 44.65 -20.1 51.6 -8.95 61.55 1.0 69.25 8.75 77.8 14.65 L70.95 14.65 Q64.65 9.8 58.75 3.85 47.5 -7.4 40.0 -20.1 25.65 -44.6 25.1 -74.9 L25.05 -77.35 25.05 -78.5 29.1 -78.5 M202.1 14.65 Q210.55 8.75 218.25 1.0 228.2 -8.95 235.15 -20.1 250.15 -44.55 250.75 -74.9 L250.75 -77.35 250.75 -78.5 254.8 -78.5 254.8 -77.35 254.8 -74.9 Q254.2 -44.6 239.85 -20.1 232.4 -7.4 221.05 3.85 215.15 9.8 208.85 14.65 L202.1 14.65" fill="url(#gradient0)" fill-rule="evenodd" stroke="none"/>
      <path d="M57.0 -78.5 L57.0 -77.8 57.05 -74.9 Q57.15 -71.25 57.55 -67.7 59.0 -54.75 64.4 -43.45 70.05 -31.3 78.6 -22.3 L79.1 -21.75 80.65 -20.1 81.7 -19.1 81.85 -18.95 82.05 -18.75 Q105.95 4.45 139.55 4.45 171.05 4.45 194.05 -15.95 196.9 -17.8 198.2 -19.1 L199.2 -20.1 Q221.45 -43.1 222.3 -74.9 L222.3 -77.35 222.3 -78.5 250.75 -78.5 250.75 -77.35 250.75 -74.9 Q250.15 -44.55 235.15 -20.1 228.2 -8.95 218.25 1.0 210.55 8.75 202.1 14.65 L77.8 14.65 Q69.25 8.75 61.55 1.0 51.6 -8.95 44.65 -20.1 29.7 -44.55 29.15 -74.9 L29.1 -77.35 29.1 -78.5 57.0 -78.5" fill="url(#gradient1)" fill-rule="evenodd" stroke="none"/>
      <path d="M64.4 -43.45 Q58.0 -57.95 57.6 -74.9 L57.55 -77.35 57.55 -78.5 60.3 -78.5 60.4 -74.9 Q60.8 -64.35 63.75 -54.75 69.3 -36.9 83.55 -22.7 106.9 0.55 139.85 0.55 172.85 0.55 196.1 -22.7 218.05 -44.5 219.35 -74.9 L219.4 -78.5 222.1 -78.5 222.1 -77.8 222.05 -74.9 Q221.05 -42.65 197.95 -19.65 L194.05 -15.95 Q171.05 4.45 139.55 4.45 105.95 4.45 82.05 -18.75 L81.85 -18.95 81.7 -19.1 81.15 -19.65 79.1 -21.75 78.6 -22.3 Q70.05 -31.3 64.4 -43.45" fill="url(#gradient2)" fill-rule="evenodd" stroke="none"/>
      <path d="M64.4 -43.45 Q59.0 -54.75 57.55 -67.7 57.15 -71.25 57.05 -74.9 L57.0 -77.8 57.0 -78.5 57.55 -78.5 57.55 -77.35 57.6 -74.9 Q58.0 -57.95 64.4 -43.45" fill="url(#gradient3)" fill-rule="evenodd" stroke="none"/>
      <path d="M57.0 -78.5 L57.0 -77.8 57.05 -74.9 Q57.15 -71.25 57.55 -67.7 59.0 -54.75 64.4 -43.45 70.05 -31.3 78.6 -22.3 L79.1 -21.75 81.15 -19.65 81.7 -19.1 81.85 -18.95 82.05 -18.75 Q105.95 4.45 139.55 4.45 171.05 4.45 194.05 -15.95 L197.95 -19.65 Q221.05 -42.65 222.05 -74.9 L222.1 -77.8 222.1 -78.5 M60.3 -78.5 L60.4 -74.9 Q60.8 -64.35 63.75 -54.75 69.3 -36.9 83.55 -22.7 106.9 0.55 139.85 0.55 172.85 0.55 196.1 -22.7 218.05 -44.5 219.35 -74.9 L219.4 -78.5" fill="none" stroke="#ab8911" stroke-linecap="round" stroke-linejoin="round" stroke-width="2.0"/>
      <path d="M25.05 -74.9 L25.0 -76.15 29.05 -76.15 29.1 -74.9 Q30.05 -30.8 61.55 0.75 93.95 33.15 139.85 33.15 185.75 33.15 218.25 0.75 249.7 -30.8 250.7 -74.9 L250.7 -76.15 254.75 -76.15 254.75 -74.9 Q253.75 -29.15 221.05 3.5 187.45 37.15 139.85 37.15 92.35 37.15 58.75 3.5 26.0 -29.15 25.05 -74.9" fill="url(#gradient4)" fill-rule="evenodd" stroke="none"/>
      <path d="M25.05 -74.9 Q26.0 -29.15 58.75 3.5 92.35 37.15 139.85 37.15 187.45 37.15 221.05 3.5 253.75 -29.15 254.75 -74.9 L254.75 -76.15 250.7 -76.15 250.7 -74.9 Q249.7 -30.8 218.25 0.75 185.75 33.15 139.85 33.15 93.95 33.15 61.55 0.75 30.05 -30.8 29.1 -74.9 L29.05 -76.15 25.0 -76.15 25.05 -74.9 Z" fill="none" stroke="#ab8911" stroke-linecap="round" stroke-linejoin="round" stroke-width="2.0"/>
      <path d="M78.6 -22.3 Q70.05 -31.3 64.4 -43.45 59.0 -54.75 57.55 -67.7 57.15 -71.25 57.05 -74.9 L57.05 -75.8 57.05 -74.9 Q57.15 -71.25 57.55 -67.7 59.0 -54.75 64.4 -43.45 70.05 -31.3 78.6 -22.3 M57.05 -75.8 L57.55 -75.8 57.6 -74.9 Q58.0 -60.7 62.7 -48.3 65.4 -40.15 71.95 -30.9 L81.85 -19.25 82.2 -18.9 90.3 -11.75 90.55 -11.55 90.65 -11.5 Q94.9 -8.2 99.55 -5.6 108.1 -0.8 117.65 1.75 108.1 -0.8 99.55 -5.6 L117.65 1.75 118.45 2.05 Q128.8 4.85 140.25 4.85 174.45 4.85 198.65 -19.25 221.95 -42.5 222.8 -74.9 L222.8 -75.8 250.7 -75.8 250.7 -74.9 Q249.7 -30.95 218.25 0.6 185.75 33.0 139.85 33.0 93.95 33.0 61.55 0.6 30.05 -30.95 29.15 -74.9 L29.1 -75.8 57.05 -75.8 M79.1 -21.75 L80.65 -20.25 81.85 -19.25 80.65 -20.25 79.1 -21.75" fill="url(#gradient5)" fill-rule="evenodd" stroke="none"/>
      <path d="M57.05 -75.8 L57.05 -74.9 Q57.15 -71.25 57.55 -67.7 59.0 -54.75 64.4 -43.45 70.05 -31.3 78.6 -22.3 M57.05 -75.8 L57.0 -77.8 57.0 -78.5 M57.05 -75.8 L29.1 -75.8 29.15 -74.9 Q30.05 -30.95 61.55 0.6 93.95 33.0 139.85 33.0 185.75 33.0 218.25 0.6 249.7 -30.95 250.7 -74.9 L250.7 -75.8 222.8 -75.8 222.8 -74.9 Q221.95 -42.5 198.65 -19.25 174.45 4.85 140.25 4.85 128.8 4.85 118.45 2.05 L117.65 1.75 Q108.1 -0.8 99.55 -5.6 94.9 -8.2 90.65 -11.5 M90.3 -11.75 L82.2 -18.9 M81.85 -19.25 L80.65 -20.25 79.1 -21.75 M117.65 1.75 Q128.0 4.45 139.55 4.45 171.05 4.45 194.05 -15.95" fill="none" stroke="#ab8911" stroke-linecap="round" stroke-linejoin="round" stroke-width="2.0"/>
      <path d="M229.45 -74.9 Q228.65 -76.1 228.65 -77.55 L228.75 -78.5 238.35 -78.5 238.4 -77.55 Q238.4 -76.1 237.65 -74.9 L237.0 -74.1 Q235.55 -72.7 233.55 -72.7 231.5 -72.7 230.1 -74.1 L229.45 -74.9" fill="url(#gradient6)" fill-rule="evenodd" stroke="none"/>
      <path d="M230.35 -52.95 Q232.25 -52.3 233.2 -50.5 234.15 -48.75 233.5 -46.85 232.9 -44.9 231.05 -43.95 229.25 -43.05 227.35 -43.7 225.4 -44.3 224.5 -46.1 223.6 -47.9 224.2 -49.85 224.85 -51.75 226.65 -52.65 228.4 -53.55 230.35 -52.95" fill="url(#gradient7)" fill-rule="evenodd" stroke="none"/>
      <path d="M220.45 -29.7 Q222.15 -28.6 222.55 -26.65 222.95 -24.65 221.85 -22.95 220.75 -21.3 218.75 -20.9 216.75 -20.5 215.05 -21.6 213.4 -22.7 213.0 -24.7 212.6 -26.7 213.7 -28.35 214.8 -30.05 216.8 -30.45 218.8 -30.8 220.45 -29.7" fill="url(#gradient8)" fill-rule="evenodd" stroke="none"/>
      <path d="M49.4 -52.95 Q51.35 -53.55 53.1 -52.65 54.9 -51.75 55.55 -49.85 56.15 -47.9 55.25 -46.1 54.35 -44.3 52.4 -43.7 50.5 -43.05 48.7 -43.95 46.85 -44.9 46.25 -46.85 45.6 -48.75 46.55 -50.5 47.5 -52.3 49.4 -52.95" fill="url(#gradient9)" fill-rule="evenodd" stroke="none"/>
      <path d="M41.45 -78.5 L51.05 -78.5 51.1 -77.55 Q51.1 -76.1 50.3 -74.9 L49.65 -74.1 Q48.25 -72.7 46.2 -72.7 44.2 -72.7 42.75 -74.1 L42.1 -74.9 Q41.35 -76.1 41.35 -77.55 L41.45 -78.5" fill="url(#gradient10)" fill-rule="evenodd" stroke="none"/>
      <path d="M62.9 -30.45 Q64.9 -30.05 66.0 -28.35 67.1 -26.7 66.7 -24.7 66.3 -22.7 64.65 -21.6 62.95 -20.5 60.95 -20.9 58.95 -21.3 57.85 -22.95 56.75 -24.65 57.15 -26.65 57.55 -28.6 59.25 -29.7 60.9 -30.8 62.9 -30.45" fill="url(#gradient11)" fill-rule="evenodd" stroke="none"/>
      <path d="M79.65 -1.25 Q77.7 -1.1 76.15 -2.4 74.6 -3.7 74.4 -5.75 74.25 -7.75 75.55 -9.3 76.85 -10.8 78.9 -11.0 80.9 -11.15 82.45 -9.85 84.0 -8.55 84.15 -6.5 84.3 -4.5 83.0 -3.0 81.7 -1.45 79.65 -1.25" fill="url(#gradient12)" fill-rule="evenodd" stroke="none"/>
      <path d="M195.5 -6.5 Q195.65 -8.55 197.2 -9.85 198.75 -11.15 200.75 -11.0 202.8 -10.8 204.1 -9.3 205.4 -7.75 205.25 -5.75 205.05 -3.7 203.5 -2.4 201.95 -1.1 200.0 -1.25 197.95 -1.45 196.65 -3.0 195.35 -4.5 195.5 -6.5" fill="url(#gradient13)" fill-rule="evenodd" stroke="none"/>
      <path d="M186.0 13.7 Q184.45 15.0 182.5 14.85 180.45 14.65 179.15 13.1 177.85 11.6 178.0 9.6 178.15 7.55 179.7 6.25 181.25 4.95 183.25 5.1 185.3 5.3 186.6 6.8 187.9 8.35 187.75 10.35 187.55 12.4 186.0 13.7" fill="url(#gradient14)" fill-rule="evenodd" stroke="none"/>
      <path d="M160.35 21.85 Q159.2 23.5 157.2 23.9 155.2 24.25 153.55 23.1 151.9 21.95 151.5 19.95 151.15 17.95 152.3 16.3 153.45 14.65 155.45 14.3 157.45 13.9 159.1 15.05 160.75 16.2 161.1 18.2 161.5 20.2 160.35 21.85" fill="url(#gradient15)" fill-rule="evenodd" stroke="none"/>
      <path d="M131.75 20.25 Q131.45 22.25 129.9 23.45 128.3 24.7 126.3 24.4 124.3 24.15 123.05 22.55 121.8 20.95 122.1 18.95 122.35 16.95 123.95 15.7 125.6 14.5 127.6 14.75 129.6 15.05 130.8 16.6 132.0 18.25 131.75 20.25" fill="url(#gradient16)" fill-rule="evenodd" stroke="none"/>
      <path d="M97.45 5.1 Q99.45 4.95 101.0 6.25 102.55 7.55 102.7 9.6 102.85 11.6 101.55 13.1 100.25 14.65 98.2 14.85 96.25 15.0 94.7 13.7 93.15 12.4 92.95 10.35 92.8 8.35 94.1 6.8 95.4 5.3 97.45 5.1" fill="url(#gradient17)" fill-rule="evenodd" stroke="none"/>
    </g>
    <linearGradient gradientTransform="matrix(0.1402, 0.0, 0.0, 0.1402, 139.95, -77.35)" gradientUnits="userSpaceOnUse" id="gradient0" spreadMethod="pad" x1="-819.2" x2="819.2">
      <stop offset="0.0" stop-color="#eee571"/>
      <stop offset="0.047058823529411764" stop-color="#c2b83c"/>
      <stop offset="0.08627450980392157" stop-color="#d0c540"/>
      <stop offset="0.1803921568627451" stop-color="#f5ec6c"/>
      <stop offset="0.19607843137254902" stop-color="#e0d379"/>
      <stop offset="0.2901960784313726" stop-color="#f7f1a8"/>
      <stop offset="0.36470588235294116" stop-color="#e7de63"/>
      <stop offset="0.5058823529411764" stop-color="#d9ce45"/>
      <stop offset="0.7137254901960784" stop-color="#c6c543"/>
      <stop offset="0.9176470588235294" stop-color="#aaa136"/>
    </linearGradient>
    <linearGradient gradientTransform="matrix(0.1275, 0.0596, -0.0125, 0.0268, 139.8, -77.4)" gradientUnits="userSpaceOnUse" id="gradient1" spreadMethod="pad" x1="-819.2" x2="819.2">
      <stop offset="0.03529411764705882" stop-color="#ba9901"/>
      <stop offset="0.47843137254901963" stop-color="#fef1b4"/>
      <stop offset="1.0" stop-color="#fddf02"/>
    </linearGradient>
    <radialGradient cx="0" cy="0" fx="3.2" fy="0" gradientTransform="matrix(0.2424, 0.0, 0.0, 0.2424, 143.9, -1.05)" gradientUnits="userSpaceOnUse" id="gradient2" r="819.2" spreadMethod="pad">
      <stop offset="0.1450980392156863" stop-color="#fff4cc"/>
      <stop offset="0.3843137254901961" stop-color="#ffde36"/>
      <stop offset="0.5098039215686274" stop-color="#ab8911"/>
    </radialGradient>
    <linearGradient gradientTransform="matrix(0.1275, 0.0596, -0.0125, 0.0268, 139.8, -77.4)" gradientUnits="userSpaceOnUse" id="gradient3" spreadMethod="pad" x1="-819.2" x2="819.2">
      <stop offset="0.0" stop-color="#76a0c9"/>
      <stop offset="0.047058823529411764" stop-color="#316293"/>
      <stop offset="0.08627450980392157" stop-color="#316293"/>
      <stop offset="0.1803921568627451" stop-color="#568bbf"/>
      <stop offset="0.2901960784313726" stop-color="#92b3d3"/>
      <stop offset="0.36470588235294116" stop-color="#5388bd"/>
      <stop offset="0.5058823529411764" stop-color="#285179"/>
      <stop offset="0.7137254901960784" stop-color="#316293"/>
      <stop offset="0.9176470588235294" stop-color="#204060"/>
    </linearGradient>
    <linearGradient gradientTransform="matrix(-0.1402, 0.0, 0.0, -0.1402, 139.85, -77.65)" gradientUnits="userSpaceOnUse" id="gradient4" spreadMethod="pad" x1="-819.2" x2="819.2">
      <stop offset="0.0" stop-color="#eee571"/>
      <stop offset="0.047058823529411764" stop-color="#c2b83c"/>
      <stop offset="0.08627450980392157" stop-color="#d0c540"/>
      <stop offset="0.1803921568627451" stop-color="#f5ec6c"/>
      <stop offset="0.19607843137254902" stop-color="#e0d379"/>
      <stop offset="0.2901960784313726" stop-color="#f7f1a8"/>
      <stop offset="0.36470588235294116" stop-color="#e7de63"/>
      <stop offset="0.5058823529411764" stop-color="#d9ce45"/>
      <stop offset="0.7137254901960784" stop-color="#c6c543"/>
      <stop offset="0.9176470588235294" stop-color="#aaa136"/>
    </linearGradient>
    <linearGradient gradientTransform="matrix(0.1005, 0.0983, -0.0207, 0.0211, 102.9, -24.25)" gradientUnits="userSpaceOnUse" id="gradient5" spreadMethod="pad" x1="-819.2" x2="819.2">
      <stop offset="0.03529411764705882" stop-color="#ba9901"/>
      <stop offset="0.47843137254901963" stop-color="#fef1b4"/>
      <stop offset="1.0" stop-color="#fddf02"/>
    </linearGradient>
    <radialGradient cx="0" cy="0" gradientTransform="matrix(0.0, 0.0116, 0.0116, 0.0, 233.3, -77.35)" gradientUnits="userSpaceOnUse" id="gradient6" r="819.2" spreadMethod="pad">
      <stop offset="0.1450980392156863" stop-color="#fff4cc"/>
      <stop offset="0.3843137254901961" stop-color="#ffde36"/>
      <stop offset="0.5098039215686274" stop-color="#ab8911"/>
    </radialGradient>
    <radialGradient cx="0" cy="0" gradientTransform="matrix(0.0036, -0.011, 0.011, 0.0036, 228.7, -48.6)" gradientUnits="userSpaceOnUse" id="gradient7" r="819.2" spreadMethod="pad">
      <stop offset="0.1450980392156863" stop-color="#fff4cc"/>
      <stop offset="0.3843137254901961" stop-color="#ffde36"/>
      <stop offset="0.5098039215686274" stop-color="#ab8911"/>
    </radialGradient>
    <radialGradient cx="0" cy="0" gradientTransform="matrix(0.0064, -0.0096, 0.0096, 0.0064, 217.7, -26.0)" gradientUnits="userSpaceOnUse" id="gradient8" r="819.2" spreadMethod="pad">
      <stop offset="0.1450980392156863" stop-color="#fff4cc"/>
      <stop offset="0.3843137254901961" stop-color="#ffde36"/>
      <stop offset="0.5098039215686274" stop-color="#ab8911"/>
    </radialGradient>
    <radialGradient cx="0" cy="0" gradientTransform="matrix(-0.0036, -0.011, -0.011, 0.0036, 51.05, -48.6)" gradientUnits="userSpaceOnUse" id="gradient9" r="819.2" spreadMethod="pad">
      <stop offset="0.1450980392156863" stop-color="#fff4cc"/>
      <stop offset="0.3843137254901961" stop-color="#ffde36"/>
      <stop offset="0.5098039215686274" stop-color="#ab8911"/>
    </radialGradient>
    <radialGradient cx="0" cy="0" gradientTransform="matrix(0.0, 0.0116, -0.0116, 0.0, 46.45, -77.35)" gradientUnits="userSpaceOnUse" id="gradient10" r="819.2" spreadMethod="pad">
      <stop offset="0.1450980392156863" stop-color="#fff4cc"/>
      <stop offset="0.3843137254901961" stop-color="#ffde36"/>
      <stop offset="0.5098039215686274" stop-color="#ab8911"/>
    </radialGradient>
    <radialGradient cx="0" cy="0" gradientTransform="matrix(-0.0064, -0.0096, -0.0096, 0.0064, 62.0, -26.0)" gradientUnits="userSpaceOnUse" id="gradient11" r="819.2" spreadMethod="pad">
      <stop offset="0.1450980392156863" stop-color="#fff4cc"/>
      <stop offset="0.3843137254901961" stop-color="#ffde36"/>
      <stop offset="0.5098039215686274" stop-color="#ab8911"/>
    </radialGradient>
    <radialGradient cx="0" cy="0" gradientTransform="matrix(-0.0088, -0.0075, -0.0075, 0.0088, 79.25, -6.45)" gradientUnits="userSpaceOnUse" id="gradient12" r="819.2" spreadMethod="pad">
      <stop offset="0.1450980392156863" stop-color="#fff4cc"/>
      <stop offset="0.3843137254901961" stop-color="#ffde36"/>
      <stop offset="0.5098039215686274" stop-color="#ab8911"/>
    </radialGradient>
    <radialGradient cx="0" cy="0" gradientTransform="matrix(0.0088, -0.0075, 0.0075, 0.0088, 200.4, -6.45)" gradientUnits="userSpaceOnUse" id="gradient13" r="819.2" spreadMethod="pad">
      <stop offset="0.1450980392156863" stop-color="#fff4cc"/>
      <stop offset="0.3843137254901961" stop-color="#ffde36"/>
      <stop offset="0.5098039215686274" stop-color="#ab8911"/>
    </radialGradient>
    <radialGradient cx="0" cy="0" gradientTransform="matrix(0.0088, -0.0075, 0.0075, 0.0088, 182.9, 9.65)" gradientUnits="userSpaceOnUse" id="gradient14" r="819.2" spreadMethod="pad">
      <stop offset="0.1450980392156863" stop-color="#fff4cc"/>
      <stop offset="0.3843137254901961" stop-color="#ffde36"/>
      <stop offset="0.5098039215686274" stop-color="#ab8911"/>
    </radialGradient>
    <radialGradient cx="0" cy="0" gradientTransform="matrix(0.0114, -0.0021, 0.0021, 0.0114, 156.55, 18.8)" gradientUnits="userSpaceOnUse" id="gradient15" r="819.2" spreadMethod="pad">
      <stop offset="0.1450980392156863" stop-color="#fff4cc"/>
      <stop offset="0.3843137254901961" stop-color="#ffde36"/>
      <stop offset="0.5098039215686274" stop-color="#ab8911"/>
    </radialGradient>
    <radialGradient cx="0" cy="0" gradientTransform="matrix(0.0115, 0.0016, -0.0016, 0.0115, 127.2, 19.4)" gradientUnits="userSpaceOnUse" id="gradient16" r="819.2" spreadMethod="pad">
      <stop offset="0.1450980392156863" stop-color="#fff4cc"/>
      <stop offset="0.3843137254901961" stop-color="#ffde36"/>
      <stop offset="0.5098039215686274" stop-color="#ab8911"/>
    </radialGradient>
    <radialGradient cx="0" cy="0" gradientTransform="matrix(-0.0088, -0.0075, -0.0075, 0.0088, 97.8, 9.65)" gradientUnits="userSpaceOnUse" id="gradient17" r="819.2" spreadMethod="pad">
      <stop offset="0.1450980392156863" stop-color="#fff4cc"/>
      <stop offset="0.3843137254901961" stop-color="#ffde36"/>
      <stop offset="0.5098039215686274" stop-color="#ab8911"/>
    </radialGradient>
  </defs>
</svg>
