<?xml version="1.0" encoding="UTF-8" standalone="no"?>
<svg xmlns:ffdec="https://www.free-decompiler.com/flash" xmlns:xlink="http://www.w3.org/1999/xlink" ffdec:objectType="frame" height="35.85px" width="33.85px" xmlns="http://www.w3.org/2000/svg">
  <g transform="matrix(1.0, 0.0, 0.0, 1.0, 15.2, 19.65)">
    <use ffdec:characterId="62" height="9.3" transform="matrix(1.0, 0.0, 0.0, 1.0, -3.0, -6.35)" width="9.3" xlink:href="#shape0"/>
    <use ffdec:characterId="2927" height="33.55" transform="matrix(0.4248, 0.7364, -0.5688, 0.0125, 3.9, -14.65)" width="34.75" xlink:href="#shape1"/>
    <use ffdec:characterId="2927" height="33.55" transform="matrix(-0.6951, 0.4858, -0.0639, -0.5655, 14.55, -0.7)" width="34.75" xlink:href="#shape1"/>
  </g>
  <defs>
    <g id="shape0" transform="matrix(1.0, 0.0, 0.0, 1.0, 3.0, 6.35)">
      <path d="M5.0 -4.95 Q6.3 -3.6 6.3 -1.7 6.3 0.25 5.0 1.6 3.55 2.95 1.65 2.95 -0.3 2.95 -1.65 1.6 -3.0 0.25 -3.0 -1.7 -3.0 -3.6 -1.65 -4.95 -0.3 -6.35 1.65 -6.35 3.55 -6.35 5.0 -4.95" fill="url(#gradient0)" fill-rule="evenodd" stroke="none"/>
    </g>
    <radialGradient cx="0" cy="0" gradientTransform="matrix(0.0074, 0.0, 0.0, 0.0074, 1.65, -1.7)" gradientUnits="userSpaceOnUse" id="gradient0" r="819.2" spreadMethod="pad">
      <stop offset="0.5098039215686274" stop-color="#ffffff" stop-opacity="0.6"/>
      <stop offset="0.6705882352941176" stop-color="#ffffff" stop-opacity="0.0"/>
    </radialGradient>
    <g id="shape1" transform="matrix(1.0, 0.0, 0.0, 1.0, 0.0, 0.0)">
      <path d="M11.1 25.65 Q-2.0 35.85 0.35 32.85 15.65 11.45 34.75 0.0 24.6 15.1 11.1 25.65" fill="url(#gradient1)" fill-rule="evenodd" stroke="none"/>
      <path d="M11.1 25.65 Q-2.0 35.85 0.35 32.85 15.65 11.45 34.75 0.0 24.6 15.1 11.1 25.65" fill="url(#gradient2)" fill-rule="evenodd" stroke="none"/>
    </g>
    <linearGradient gradientTransform="matrix(0.0212, 0.0, 0.0, 0.0205, 17.35, 16.75)" gradientUnits="userSpaceOnUse" id="gradient1" spreadMethod="pad" x1="-819.2" x2="819.2">
      <stop offset="0.0" stop-color="#ffffff" stop-opacity="0.0"/>
      <stop offset="0.47843137254901963" stop-color="#ffffff"/>
      <stop offset="0.996078431372549" stop-color="#ffffff" stop-opacity="0.0"/>
    </linearGradient>
    <linearGradient gradientTransform="matrix(0.0212, 0.0, 0.0, 0.0205, 17.35, 16.75)" gradientUnits="userSpaceOnUse" id="gradient2" spreadMethod="pad" x1="-819.2" x2="819.2">
      <stop offset="0.0" stop-color="#ffffff" stop-opacity="0.0"/>
      <stop offset="0.47843137254901963" stop-color="#ffffff"/>
      <stop offset="0.996078431372549" stop-color="#ffffff" stop-opacity="0.0"/>
    </linearGradient>
  </defs>
</svg>
