<?xml version="1.0" encoding="UTF-8" standalone="no"?>
<svg xmlns:ffdec="https://www.free-decompiler.com/flash" xmlns:xlink="http://www.w3.org/1999/xlink" ffdec:objectType="frame" height="8.35px" width="7.55px" xmlns="http://www.w3.org/2000/svg">
  <g transform="matrix(1.0, 0.0, 0.0, 1.0, 47.0, -12.75)">
    <use ffdec:characterId="2188" height="8.35" transform="matrix(1.0, 0.0, 0.0, 1.0, -47.0, 12.75)" width="7.55" xlink:href="#shape0"/>
    <use ffdec:characterId="2189" height="9.5" transform="matrix(0.1949, -0.0868, 0.0997, 0.2239, -42.8867, 15.2881)" width="9.45" xlink:href="#sprite0"/>
  </g>
  <defs>
    <g id="shape0" transform="matrix(1.0, 0.0, 0.0, 1.0, 47.0, -12.75)">
      <path d="M-43.0 21.1 Q-44.55 21.1 -45.6 19.9 -46.55 18.75 -46.55 17.15 -46.55 15.55 -45.6 14.35 -44.55 13.25 -43.0 13.25 -41.55 13.25 -40.55 14.35 -39.45 15.55 -39.45 17.15 -39.45 18.75 -40.55 19.9 -41.55 21.1 -43.0 21.1" fill="#643100" fill-opacity="0.67058825" fill-rule="evenodd" stroke="none"/>
      <path d="M-43.35 20.85 Q-44.65 20.85 -42.35 20.7 L-43.35 20.85 M-40.8 13.9 Q-40.1 14.7 -39.75 17.45 -39.95 18.65 -40.8 19.6 -41.5 20.4 -42.35 20.7 L-46.0 19.6 Q-47.0 18.4 -47.0 16.75 -47.0 15.1 -46.0 13.9 -44.9 12.75 -43.35 12.75 -41.85 12.75 -40.8 13.9" fill="#ffffff" fill-opacity="0.67058825" fill-rule="evenodd" stroke="none"/>
      <path d="M-40.75 14.15 Q-39.7 15.35 -39.7 17.0 -39.7 18.65 -40.75 19.8 -41.8 21.0 -43.25 21.0 -44.7 21.0 -45.75 19.8 -46.8 18.65 -46.8 17.0 -46.8 15.35 -45.75 14.15 -44.7 13.0 -43.25 13.0 -41.8 13.0 -40.75 14.15" fill="#000000" fill-rule="evenodd" stroke="none"/>
      <path d="M-41.05 14.35 Q-40.45 15.1 -40.25 15.95 -42.2 19.55 -46.1 18.4 L-46.4 16.9 Q-46.4 15.45 -45.45 14.35 L-44.7 13.75 -44.65 13.7 -42.1 13.65 -41.6 13.9 -41.05 14.35" fill="url(#gradient0)" fill-rule="evenodd" stroke="none"/>
    </g>
    <linearGradient gradientTransform="matrix(0.0015, 0.0034, -0.0024, 0.0011, -43.2, 16.6)" gradientUnits="userSpaceOnUse" id="gradient0" spreadMethod="pad" x1="-819.2" x2="819.2">
      <stop offset="0.1411764705882353" stop-color="#ffffff" stop-opacity="0.4"/>
      <stop offset="0.9098039215686274" stop-color="#ffffff" stop-opacity="0.0"/>
    </linearGradient>
    <g id="sprite0" transform="matrix(1.0, 0.0, 0.0, 1.0, 40.8, -8.7)">
      <use ffdec:characterId="29" height="25.1" transform="matrix(0.3765, 0.0, 0.0, 0.3785, -40.777, 8.6976)" width="25.1" xlink:href="#shape1"/>
    </g>
    <g id="shape1" transform="matrix(1.0, 0.0, 0.0, 1.0, -2.85, -2.9)">
      <path d="M27.95 15.45 Q27.95 20.65 24.25 24.3 20.65 28.0 15.4 28.0 10.2 28.0 6.55 24.3 2.85 20.65 2.85 15.45 2.85 10.25 6.55 6.6 10.2 2.9 15.4 2.9 20.65 2.9 24.25 6.6 27.95 10.25 27.95 15.45" fill="#ffffff" fill-rule="evenodd" stroke="none"/>
    </g>
  </defs>
</svg>
