<?xml version="1.0" encoding="UTF-8" standalone="no"?>
<svg xmlns:ffdec="https://www.free-decompiler.com/flash" xmlns:xlink="http://www.w3.org/1999/xlink" ffdec:objectType="frame" height="102.3px" width="217.7px" xmlns="http://www.w3.org/2000/svg">
  <g transform="matrix(1.0, 0.0, 0.0, 1.0, 108.85, 37.85)">
    <use ffdec:characterId="2866" height="102.3" transform="matrix(1.0, 0.0, 0.0, 1.0, -108.85, -37.85)" width="217.7" xlink:href="#shape0"/>
  </g>
  <defs>
    <g id="shape0" transform="matrix(1.0, 0.0, 0.0, 1.0, 108.85, 37.85)">
      <path d="M-2.45 -16.9 Q35.45 -16.95 65.6 -8.0 98.2 1.65 105.65 16.85 114.0 34.05 85.85 47.9 54.45 63.2 2.4 63.2 -49.75 63.2 -82.85 47.9 -112.8 34.05 -106.4 16.85 -100.9 1.65 -69.3 -8.0 -40.4 -16.95 -2.45 -16.9" fill="url(#gradient0)" fill-rule="evenodd" stroke="none"/>
      <path d="M-2.45 -16.9 Q35.45 -16.95 65.6 -8.0 98.2 1.65 105.65 16.85 114.0 34.05 85.85 47.9 54.45 63.2 2.4 63.2 -49.75 63.2 -82.85 47.9 -112.8 34.05 -106.4 16.85 -100.9 1.65 -69.3 -8.0 -40.4 -16.95 -2.45 -16.9 Z" fill="none" stroke="#69560e" stroke-linecap="round" stroke-linejoin="round" stroke-width="2.5"/>
      <path d="M107.6 3.7 L107.6 23.65 -107.6 23.65 -107.6 3.7 107.6 3.7" fill="url(#gradient1)" fill-rule="evenodd" stroke="none"/>
      <path d="M107.6 3.7 L107.6 23.65 M-107.6 23.65 L-107.6 3.7" fill="none" stroke="#69560e" stroke-linecap="round" stroke-linejoin="round" stroke-width="2.5"/>
      <path d="M105.65 -2.85 Q114.0 14.35 85.85 28.2 54.45 43.5 2.4 43.5 -49.75 43.5 -82.85 28.2 -112.8 14.35 -106.4 -2.85 -100.9 -18.05 -69.3 -27.7 -40.4 -36.65 -2.45 -36.6 35.45 -36.65 65.6 -27.7 98.2 -18.05 105.65 -2.85" fill="url(#gradient2)" fill-rule="evenodd" stroke="none"/>
      <path d="M105.65 -2.85 Q114.0 14.35 85.85 28.2 54.45 43.5 2.4 43.5 -49.75 43.5 -82.85 28.2 -112.8 14.35 -106.4 -2.85 -100.9 -18.05 -69.3 -27.7 -40.4 -36.65 -2.45 -36.6 35.45 -36.65 65.6 -27.7 98.2 -18.05 105.65 -2.85 Z" fill="none" stroke="#c7b405" stroke-linecap="round" stroke-linejoin="round" stroke-width="2.5"/>
      <path d="M-95.05 3.25 Q-95.4 1.0 -94.95 -1.35 -92.55 -15.25 -64.85 -24.35 -38.55 -33.2 -2.4 -33.1 33.5 -33.2 61.15 -24.35 89.9 -15.25 94.05 -1.35 95.0 1.8 94.6 4.85 L94.25 4.8 94.05 4.1 Q89.9 -9.8 61.15 -18.9 33.5 -27.75 -2.4 -27.65 -38.55 -27.75 -64.85 -18.9 -91.65 -10.1 -95.05 3.25" fill="#8e7513" fill-rule="evenodd" stroke="none"/>
      <path d="M94.6 4.85 L94.25 6.4 Q91.5 16.45 72.6 24.65 44.7 36.4 1.95 36.4 -41.1 36.4 -70.15 24.65 -91.85 15.8 -94.75 4.8 L-95.05 3.25 Q-91.65 -10.1 -64.85 -18.9 -38.55 -27.75 -2.4 -27.65 33.5 -27.75 61.15 -18.9 89.9 -9.8 94.05 4.1 L94.25 4.8 94.6 4.85" fill="url(#gradient3)" fill-rule="evenodd" stroke="none"/>
      <path d="M-95.05 3.25 Q-91.65 -10.1 -64.85 -18.9 -38.55 -27.75 -2.4 -27.65 33.5 -27.75 61.15 -18.9 89.9 -9.8 94.05 4.1 L94.25 4.8" fill="none" stroke="#c7b405" stroke-linecap="round" stroke-linejoin="round" stroke-width="2.5"/>
      <path d="M-95.05 3.25 Q-95.4 1.0 -94.95 -1.35 -92.55 -15.25 -64.85 -24.35 -38.55 -33.2 -2.4 -33.1 33.5 -33.2 61.15 -24.35 89.9 -15.25 94.05 -1.35 95.0 1.8 94.6 4.85 L94.25 6.4 Q91.5 16.45 72.6 24.65 44.7 36.4 1.95 36.4 -41.1 36.4 -70.15 24.65 -91.85 15.8 -94.75 4.8 L-95.05 3.25 Z" fill="none" stroke="#fceb59" stroke-linecap="round" stroke-linejoin="round" stroke-width="2.5"/>
      <path d="M49.75 11.5 Q46.55 14.3 40.75 16.85 25.0 23.45 0.95 23.45 -23.25 23.45 -39.65 16.85 -46.7 13.95 -50.3 10.65 -47.6 12.15 -44.1 13.6 -25.9 21.05 1.1 21.05 27.9 21.05 45.4 13.6 L49.75 11.5" fill="#ffcc00" fill-rule="evenodd" stroke="none"/>
      <path d="M-50.3 10.65 Q-61.1 4.6 -59.7 -2.85 -58.2 -11.65 -40.8 -17.4 -24.3 -23.0 -1.6 -22.95 20.9 -23.0 38.25 -17.4 56.25 -11.65 58.9 -2.85 61.3 5.15 49.75 11.5 54.65 7.1 53.25 2.0 51.05 -5.95 34.75 -11.2 19.05 -16.35 -1.45 -16.3 -22.1 -16.35 -37.1 -11.2 -52.8 -5.95 -53.95 2.0 -54.7 6.6 -50.3 10.65" fill="#8e7513" fill-rule="evenodd" stroke="none"/>
      <path d="M-50.3 10.65 Q-54.7 6.6 -53.95 2.0 -52.8 -5.95 -37.1 -11.2 -22.1 -16.35 -1.45 -16.3 19.05 -16.35 34.75 -11.2 51.05 -5.95 53.25 2.0 54.65 7.1 49.75 11.5 L45.4 13.6 Q27.9 21.05 1.1 21.05 -25.9 21.05 -44.1 13.6 -47.6 12.15 -50.3 10.65" fill="#000000" fill-rule="evenodd" stroke="none"/>
      <path d="M49.75 11.5 Q61.3 5.15 58.9 -2.85 56.25 -11.65 38.25 -17.4 20.9 -23.0 -1.6 -22.95 -24.3 -23.0 -40.8 -17.4 -58.2 -11.65 -59.7 -2.85 -61.1 4.6 -50.3 10.65 -47.6 12.15 -44.1 13.6 -25.9 21.05 1.1 21.05 27.9 21.05 45.4 13.6 L49.75 11.5" fill="none" stroke="#c7b405" stroke-linecap="round" stroke-linejoin="round" stroke-width="2.5"/>
      <path d="M49.75 11.5 Q46.55 14.3 40.75 16.85 25.0 23.45 0.95 23.45 -23.25 23.45 -39.65 16.85 -46.7 13.95 -50.3 10.65" fill="none" stroke="#fceb59" stroke-linecap="round" stroke-linejoin="round" stroke-width="2.5"/>
      <path d="M-50.3 10.65 Q-54.7 6.6 -53.95 2.0 -52.8 -5.95 -37.1 -11.2 -22.1 -16.35 -1.45 -16.3 19.05 -16.35 34.75 -11.2 51.05 -5.95 53.25 2.0 54.65 7.1 49.75 11.5" fill="none" stroke="#c7b405" stroke-linecap="round" stroke-linejoin="round" stroke-width="2.0"/>
      <path d="M79.35 7.25 Q79.0 17.25 60.8 25.2 37.4 35.15 1.6 35.15 -34.5 35.15 -58.85 25.2 -79.5 16.75 -79.85 5.9 L-79.65 4.0 -79.5 3.2 Q-77.05 12.55 -58.85 20.0 -34.5 29.95 1.6 29.95 37.4 29.95 60.8 20.0 76.65 13.1 78.95 4.6 L79.35 7.25" fill="#8e7513" fill-rule="evenodd" stroke="none"/>
      <path d="M54.05 -0.9 L53.65 -2.7 Q51.25 -10.7 34.85 -15.95 19.0 -21.05 -1.5 -21.05 -22.2 -21.05 -37.25 -15.95 -53.1 -10.7 -54.5 -2.7 L-54.65 -0.9 Q-54.4 6.5 -40.25 12.3 -23.65 19.1 0.95 19.1 25.4 19.1 41.35 12.3 54.65 6.5 54.05 -0.9 M-79.65 2.45 Q-80.0 0.8 -79.8 -0.9 L-79.65 -2.0 Q-77.65 -13.75 -54.4 -21.45 -32.35 -28.9 -2.05 -28.85 28.05 -28.9 51.2 -21.45 75.3 -13.75 78.8 -2.0 L79.1 -0.9 Q79.6 1.5 79.15 3.85 L79.05 4.2 78.95 4.6 Q76.65 13.1 60.8 20.0 37.4 29.95 1.6 29.95 -34.5 29.95 -58.85 20.0 -77.05 12.55 -79.5 3.2 L-79.6 2.85 -79.65 2.45" fill="url(#gradient4)" fill-rule="evenodd" stroke="none"/>
      <path d="M79.15 3.85 L79.05 4.2 Q79.4 5.75 79.35 7.25 79.0 17.25 60.8 25.2 37.4 35.15 1.6 35.15 -34.5 35.15 -58.85 25.2 -79.5 16.75 -79.85 5.9 L-79.65 3.2 -79.6 2.85 -79.65 2.45" fill="none" stroke="#c7b405" stroke-linecap="round" stroke-linejoin="round" stroke-width="2.5"/>
      <path d="M54.05 -0.9 Q54.65 6.5 41.35 12.3 25.4 19.1 0.95 19.1 -23.65 19.1 -40.25 12.3 -54.4 6.5 -54.65 -0.9 L-54.5 -2.7 Q-53.1 -10.7 -37.25 -15.95 -22.2 -21.05 -1.5 -21.05 19.0 -21.05 34.85 -15.95 51.25 -10.7 53.65 -2.7 L54.05 -0.9 M-79.65 2.45 Q-80.0 0.8 -79.8 -0.9 L-79.65 -2.0 Q-77.65 -13.75 -54.4 -21.45 -32.35 -28.9 -2.05 -28.85 28.05 -28.9 51.2 -21.45 75.3 -13.75 78.8 -2.0 L79.1 -0.9 Q79.6 1.5 79.15 3.85 M-79.5 3.2 L-79.6 2.85 M78.95 4.6 Q76.65 13.1 60.8 20.0 37.4 29.95 1.6 29.95 -34.5 29.95 -58.85 20.0 -77.05 12.55 -79.5 3.2 M72.6 24.65 Q44.7 36.4 1.95 36.4 -41.1 36.4 -70.15 24.65 -91.85 15.8 -94.75 4.8 M79.05 4.2 L78.95 4.6" fill="none" stroke="#fceb59" stroke-linecap="round" stroke-linejoin="round" stroke-width="2.5"/>
      <path d="M75.2 28.8 Q71.3 24.75 66.1 22.55 L66.1 16.8 Q71.25 17.7 76.0 20.6 L75.2 28.8 M69.05 -8.95 L66.5 -14.5 Q72.2 -17.25 81.75 -16.2 L81.5 -10.1 Q75.65 -10.85 69.05 -8.95 M-86.85 -14.45 Q-79.35 -14.55 -72.65 -12.5 L-72.7 -6.25 Q-79.25 -9.0 -86.85 -8.15 L-86.85 -14.45 M-65.85 16.8 L-65.85 22.55 Q-71.05 24.75 -74.95 28.8 L-75.75 20.6 Q-71.0 17.7 -65.85 16.8" fill="#8e7513" fill-rule="evenodd" stroke="none"/>
      <path d="M69.05 -8.95 Q75.65 -10.85 81.5 -10.1 L81.75 -16.2 Q72.2 -17.25 66.5 -14.5 L69.05 -8.95 M75.2 28.8 L76.0 20.6 Q71.25 17.7 66.1 16.8 L66.1 22.55 Q71.3 24.75 75.2 28.8 M-86.85 -14.45 Q-79.35 -14.55 -72.65 -12.5 L-72.7 -6.25 Q-79.25 -9.0 -86.85 -8.15 L-86.85 -14.45 M-65.85 16.8 L-65.85 22.55 Q-71.05 24.75 -74.95 28.8 L-75.75 20.6 Q-71.0 17.7 -65.85 16.8 Z" fill="none" stroke="#c7b405" stroke-linecap="round" stroke-linejoin="round" stroke-width="2.5"/>
      <path d="M-79.8 -0.9 L-79.65 -2.0 Q-77.65 -13.75 -54.4 -21.45 -32.35 -28.9 -2.05 -28.85 28.05 -28.9 51.2 -21.45 75.3 -13.75 78.8 -2.0 L79.1 -0.9 59.3 -0.9 58.9 -2.85 Q56.25 -11.65 38.25 -17.4 20.9 -23.0 -1.6 -22.95 -24.3 -23.0 -40.8 -17.4 -58.2 -11.65 -59.7 -2.85 L-59.85 -0.9 -79.8 -0.9 M94.05 -1.35 Q89.9 -15.25 61.15 -24.35 33.5 -33.2 -2.4 -33.1 -38.55 -33.2 -64.85 -24.35 -92.55 -15.25 -94.95 -1.35 -95.4 1.0 -95.05 3.25 L-94.75 4.8 -94.0 6.95 Q-89.7 16.65 -70.15 24.65 -41.1 36.4 1.95 36.4 44.7 36.4 72.6 24.65 91.0 16.7 94.1 6.95 L94.25 6.4 94.6 4.85 Q95.0 1.8 94.05 -1.35 M-107.0 6.95 Q-108.3 2.2 -106.4 -2.85 -100.9 -18.05 -69.3 -27.7 -40.4 -36.65 -2.45 -36.6 35.45 -36.65 65.6 -27.7 98.2 -18.05 105.65 -2.85 108.1 2.2 107.4 6.95 105.75 18.4 85.85 28.2 54.45 43.5 2.4 43.5 -49.75 43.5 -82.85 28.2 -104.0 18.4 -107.0 6.95" fill="url(#gradient5)" fill-rule="evenodd" stroke="none"/>
      <path d="M-107.0 6.95 Q-108.3 2.2 -106.4 -2.85 -100.9 -18.05 -69.3 -27.7 -40.4 -36.65 -2.45 -36.6 35.45 -36.65 65.6 -27.7 98.2 -18.05 105.65 -2.85 108.1 2.2 107.4 6.95" fill="none" stroke="#c7b405" stroke-linecap="round" stroke-linejoin="round" stroke-width="2.5"/>
      <path d="M-79.8 -0.9 L-79.65 -2.0 Q-77.65 -13.75 -54.4 -21.45 -32.35 -28.9 -2.05 -28.85 28.05 -28.9 51.2 -21.45 75.3 -13.75 78.8 -2.0 L79.1 -0.9 M94.05 -1.35 Q95.0 1.8 94.6 4.85 L94.25 6.4 94.1 6.95 Q91.0 16.7 72.6 24.65 44.7 36.4 1.95 36.4 -41.1 36.4 -70.15 24.65 -89.7 16.65 -94.0 6.95 L-94.75 4.8 -95.05 3.25 Q-95.4 1.0 -94.95 -1.35 -92.55 -15.25 -64.85 -24.35 -38.55 -33.2 -2.4 -33.1 33.5 -33.2 61.15 -24.35 89.9 -15.25 94.05 -1.35 M107.4 6.95 Q105.75 18.4 85.85 28.2 54.45 43.5 2.4 43.5 -49.75 43.5 -82.85 28.2 -104.0 18.4 -107.0 6.95" fill="none" stroke="#fceb59" stroke-linecap="round" stroke-linejoin="round" stroke-width="2.5"/>
      <path d="M10.5 -32.2 Q6.65 -29.2 6.1 -26.15 L4.0 -26.35 -3.15 -26.4 -10.1 -26.3 -12.45 -26.15 Q-12.65 -28.95 -16.35 -32.25 L-16.25 -32.25 -16.3 -32.3 Q-17.4 -32.6 -12.45 -33.2 L-3.4 -33.8 -1.9 -33.8 6.7 -33.2 Q9.85 -32.85 10.5 -32.2 M17.6 -25.75 Q17.35 -25.05 14.0 -24.8 L9.05 -24.45 6.6 -24.35 -4.9 -24.15 -10.6 -24.2 -19.8 -24.65 -21.85 -25.15 Q-22.2 -25.6 -19.0 -26.0 -15.75 -26.5 -12.8 -26.05 L-12.35 -25.05 -3.85 -25.25 4.75 -25.65 9.7 -25.9 15.4 -26.05 17.6 -25.75 M57.45 -14.7 L64.0 -12.1 67.8 -10.7 71.85 -8.9 Q73.15 -8.25 72.65 -7.95 70.9 -7.55 68.15 -8.5 L64.1 -9.9 62.25 -10.65 Q57.65 -12.6 54.25 -14.3 52.3 -15.3 50.6 -16.25 46.2 -18.75 45.65 -19.6 44.95 -20.35 45.45 -20.6 L49.2 -20.2 Q52.5 -19.5 53.4 -18.2 L51.4 -17.4 57.45 -14.7 M53.85 -18.15 Q60.1 -20.1 65.15 -23.55 L65.2 -23.5 65.3 -23.6 Q65.25 -24.15 69.85 -22.9 74.25 -21.85 77.15 -20.3 L78.1 -19.8 Q81.15 -17.95 82.4 -16.6 83.65 -15.35 82.6 -14.65 73.25 -13.9 66.0 -12.05 L65.1 -12.85 Q63.5 -13.85 60.5 -15.3 58.05 -16.6 55.75 -17.5 L53.85 -18.15 M98.0 10.8 L98.4 10.7 Q100.3 10.35 98.95 13.5 97.85 16.4 94.3 18.9 L93.15 19.75 Q88.2 22.5 84.25 23.85 80.45 25.15 77.85 24.9 71.1 20.1 63.3 17.4 L65.05 16.6 70.05 13.4 74.15 10.15 75.4 8.95 Q83.65 10.45 98.25 10.65 L98.0 10.8 M79.15 5.95 Q78.3 7.6 75.25 8.8 L72.25 8.4 67.45 12.4 62.85 16.5 60.15 18.85 56.75 21.65 Q55.55 22.45 54.7 22.35 53.1 21.65 54.8 19.95 L57.2 17.5 58.5 16.4 Q61.35 13.8 64.45 11.75 L65.2 11.2 65.95 10.75 68.95 8.85 Q73.8 5.7 75.8 5.1 77.75 4.3 78.7 4.3 L78.9 4.3 Q79.75 4.55 79.15 5.95 M-13.15 28.0 L-20.1 28.25 Q-22.4 28.2 -22.7 27.7 -22.3 26.5 -18.35 26.1 L-12.25 25.6 -9.4 25.45 Q-1.9 25.05 4.55 25.1 8.1 25.05 11.45 25.25 L22.95 25.95 Q25.5 26.4 25.95 26.8 26.45 27.5 22.6 28.25 18.65 29.0 14.75 28.3 L13.95 26.6 3.4 27.0 -7.1 27.6 -13.15 28.0 M-14.25 39.45 Q-9.35 33.75 -8.65 28.45 L-6.15 28.75 2.75 28.95 11.45 28.7 14.4 28.5 Q15.55 33.35 21.85 39.85 L21.6 39.8 21.85 39.95 Q23.5 40.5 16.75 41.7 10.85 42.85 4.6 42.8 L2.5 42.8 -9.1 41.5 Q-13.35 40.7 -14.25 39.45 M-81.35 -19.8 Q-76.95 -21.7 -73.6 -22.7 -70.4 -23.65 -68.3 -23.45 -63.2 -19.95 -55.65 -17.6 L-57.7 -16.9 Q-60.0 -15.95 -62.95 -14.25 -66.0 -12.75 -67.75 -11.55 L-69.0 -10.55 Q-76.45 -12.35 -87.75 -13.25 L-87.65 -13.3 -87.85 -13.3 Q-89.4 -13.05 -87.4 -15.4 -85.9 -17.55 -82.45 -19.25 L-81.35 -19.8 M-66.1 -9.85 Q-64.9 -10.45 -60.45 -13.2 L-55.3 -16.75 -52.4 -18.8 -48.7 -21.05 Q-47.3 -21.8 -46.3 -21.7 -44.7 -21.15 -46.45 -19.7 -48.0 -18.25 -49.1 -17.55 L-50.6 -16.55 Q-54.65 -14.0 -58.4 -12.05 -60.55 -10.9 -62.6 -9.9 -68.25 -7.2 -70.4 -6.7 L-73.2 -6.25 Q-74.6 -6.45 -73.35 -7.95 -72.3 -9.55 -69.05 -10.3 L-66.1 -9.85 M-60.0 12.3 L-59.3 12.85 Q-57.75 13.85 -56.8 14.9 -52.7 18.25 -52.3 19.3 -51.85 20.4 -52.4 20.75 L-52.65 20.85 Q-53.7 21.1 -56.6 20.1 -60.1 19.0 -60.75 17.3 L-58.0 16.3 Q-58.95 15.55 -64.0 12.65 L-70.4 9.05 -74.15 7.0 -78.1 4.6 Q-79.15 3.7 -78.4 3.45 -75.9 3.15 -73.2 4.45 -70.4 5.75 -69.2 6.5 L-67.5 7.45 Q-63.5 9.7 -60.7 11.8 L-60.0 12.3 M-72.15 9.8 L-68.0 13.15 Q-65.35 15.0 -63.15 16.25 L-61.25 17.2 Q-69.9 19.65 -79.45 24.9 L-79.5 24.75 -79.65 24.9 Q-80.0 25.85 -85.95 23.8 -91.55 22.0 -94.75 19.5 L-95.9 18.7 Q-98.7 15.65 -99.25 13.7 -99.8 11.75 -97.7 10.9 -83.45 10.5 -72.8 8.8 L-72.15 9.8" fill="#fceb59" fill-rule="evenodd" stroke="none"/>
      <path d="M6.9 -26.8 L-4.6 -26.6 -10.35 -26.65 -19.55 -27.1 Q-21.45 -27.35 -21.6 -27.6 -21.95 -28.05 -18.75 -28.45 -15.5 -28.95 -12.55 -28.5 L-12.1 -27.5 -3.55 -27.7 5.05 -28.1 10.05 -28.35 15.75 -28.5 17.95 -28.2 Q17.7 -27.5 14.35 -27.25 L9.4 -26.9 6.9 -26.8 M4.3 -28.8 L-2.85 -28.85 -9.85 -28.75 -12.2 -28.6 Q-12.4 -31.4 -16.1 -34.7 L-16.0 -34.7 -16.05 -34.75 Q-17.15 -35.05 -12.2 -35.65 L-3.1 -36.25 -1.6 -36.25 7.0 -35.65 Q10.2 -35.3 10.85 -34.65 6.95 -31.65 6.4 -28.6 L4.3 -28.8 M70.35 -25.35 Q74.75 -24.3 77.7 -22.75 L78.65 -22.25 Q81.7 -20.4 82.95 -19.05 84.2 -17.8 83.15 -17.1 73.75 -16.35 66.5 -14.5 L65.6 -15.3 61.0 -17.75 Q58.55 -19.05 56.2 -19.95 L54.3 -20.6 Q60.6 -22.55 65.65 -26.0 L65.7 -25.95 65.8 -26.05 Q65.75 -26.6 70.35 -25.35 M53.85 -20.65 L51.85 -19.85 Q52.95 -19.3 57.9 -17.15 L64.5 -14.55 68.3 -13.15 Q71.05 -12.15 72.35 -11.35 73.65 -10.7 73.15 -10.4 71.4 -10.0 68.65 -10.95 L64.6 -12.35 62.75 -13.1 Q58.1 -15.05 54.7 -16.75 L51.05 -18.7 Q46.65 -21.2 46.1 -22.05 45.4 -22.8 45.9 -23.05 L49.65 -22.65 Q52.95 -21.95 53.85 -20.65 M-82.4 -21.7 L-81.3 -22.25 Q-76.9 -24.15 -73.5 -25.15 -70.3 -26.1 -68.2 -25.9 -63.1 -22.4 -55.5 -20.05 L-57.55 -19.35 Q-59.9 -18.4 -62.85 -16.7 L-67.65 -14.0 Q-68.8 -13.4 -68.9 -13.0 -76.4 -14.8 -87.7 -15.7 L-87.6 -15.75 -87.8 -15.75 Q-89.35 -15.5 -87.35 -17.85 -85.85 -20.0 -82.4 -21.7 M-73.25 -10.4 Q-72.2 -12.0 -68.95 -12.75 L-66.0 -12.3 Q-64.8 -12.9 -60.35 -15.65 -56.0 -18.55 -55.15 -19.2 L-52.25 -21.25 -48.55 -23.5 Q-47.15 -24.25 -46.15 -24.15 -44.55 -23.6 -46.3 -22.15 -47.85 -20.7 -48.95 -20.0 L-50.45 -19.0 Q-54.5 -16.45 -58.3 -14.5 -60.45 -13.35 -62.5 -12.35 -68.15 -9.65 -70.3 -9.15 L-73.1 -8.7 Q-74.55 -8.9 -73.25 -10.4 M-9.15 23.0 Q-1.6 22.6 4.85 22.65 8.4 22.6 11.8 22.8 L23.3 23.5 Q25.9 23.95 26.35 24.35 26.85 25.05 22.95 25.8 19.0 26.55 15.1 25.85 L14.3 24.15 3.7 24.55 -6.8 25.15 -12.9 25.55 -19.85 25.8 Q-22.15 25.75 -22.45 25.25 -22.05 24.05 -18.1 23.65 L-12.0 23.15 -9.15 23.0 M-5.85 26.3 L3.05 26.5 11.8 26.25 14.75 26.05 Q15.9 30.9 22.2 37.4 L21.95 37.35 22.2 37.5 Q23.85 38.05 17.1 39.25 11.2 40.4 4.9 40.35 L2.8 40.35 -8.85 39.05 Q-13.1 38.25 -14.0 37.0 -9.1 31.3 -8.4 26.0 L-5.85 26.3 M-59.2 10.4 Q-57.6 11.4 -56.65 12.45 -52.55 15.8 -52.15 16.85 -51.7 17.95 -52.25 18.3 L-52.5 18.4 Q-53.55 18.65 -56.45 17.65 -60.0 16.55 -60.65 14.85 L-57.9 13.85 -63.9 10.2 -70.3 6.6 Q-71.35 6.0 -74.05 4.55 L-78.05 2.15 Q-79.1 1.25 -78.35 1.0 -75.85 0.7 -73.1 2.0 -70.3 3.3 -69.1 4.05 L-67.4 5.0 Q-63.4 7.25 -60.6 9.35 L-59.9 9.85 -59.2 10.4 M-72.05 7.35 L-67.9 10.7 Q-65.25 12.55 -63.05 13.8 L-61.15 14.75 Q-69.8 17.2 -79.4 22.45 L-79.45 22.3 -79.6 22.45 Q-79.95 23.4 -85.9 21.35 -91.55 19.55 -94.75 17.05 L-95.9 16.25 Q-98.7 13.2 -99.25 11.25 -99.8 9.3 -97.7 8.45 -83.4 8.05 -72.7 6.35 L-72.05 7.35 M84.8 21.4 Q81.0 22.7 78.4 22.45 71.6 17.65 63.8 14.95 L65.55 14.15 70.55 10.95 74.65 7.7 75.95 6.5 Q84.2 8.0 98.85 8.2 L98.6 8.35 99.0 8.25 Q100.9 7.9 99.55 11.05 98.45 13.95 94.9 16.45 L93.75 17.3 Q88.75 20.05 84.8 21.4 M79.25 1.85 L79.45 1.85 Q80.3 2.1 79.7 3.5 78.85 5.15 75.8 6.35 L72.75 5.95 67.95 9.95 63.35 14.05 60.65 16.4 57.2 19.2 Q56.0 20.0 55.15 19.9 53.55 19.2 55.25 17.5 L57.65 15.05 59.0 13.95 Q61.85 11.35 64.95 9.3 L65.7 8.75 66.45 8.3 69.45 6.4 Q74.3 3.25 76.35 2.65 78.3 1.85 79.25 1.85" fill="#8e7513" fill-rule="evenodd" stroke="none"/>
      <path d="M4.0 -27.6 L-3.15 -27.65 -10.1 -27.55 -12.45 -27.4 Q-12.65 -30.2 -16.35 -33.5 L-16.25 -33.5 -16.3 -33.55 Q-17.4 -33.85 -12.45 -34.45 L-3.4 -35.05 -1.9 -35.05 6.7 -34.45 Q9.85 -34.1 10.5 -33.45 6.65 -30.45 6.1 -27.4 L4.0 -27.6 M6.6 -25.6 L-4.9 -25.4 -10.6 -25.45 -19.8 -25.9 -21.85 -26.4 Q-22.2 -26.85 -19.0 -27.25 -15.75 -27.75 -12.8 -27.3 L-12.35 -26.3 -3.85 -26.5 4.75 -26.9 9.7 -27.15 15.4 -27.3 17.6 -27.0 Q17.35 -26.3 14.0 -26.05 L9.05 -25.7 6.6 -25.6 M59.55 -19.65 Q57.7 -18.8 58.95 -19.0 L69.4 -22.75 Q68.25 -23.45 66.35 -23.65 61.7 -20.55 59.55 -19.65 M55.75 -18.75 L53.85 -19.4 Q60.1 -21.35 65.15 -24.8 L65.2 -24.75 65.3 -24.85 Q65.25 -25.4 69.85 -24.15 74.25 -23.1 77.15 -21.55 L78.1 -21.05 Q81.15 -19.2 82.4 -17.85 83.65 -16.6 82.6 -15.9 73.25 -15.15 66.0 -13.3 L65.1 -14.1 Q63.5 -15.1 60.5 -16.55 58.05 -17.85 55.75 -18.75 M51.4 -18.65 L57.45 -15.95 64.0 -13.35 67.8 -11.95 71.85 -10.15 Q73.15 -9.5 72.65 -9.2 70.9 -8.8 68.15 -9.75 L64.1 -11.15 62.25 -11.9 Q57.65 -13.85 54.25 -15.55 52.3 -16.55 50.6 -17.5 46.2 -20.0 45.65 -20.85 44.95 -21.6 45.45 -21.85 L49.2 -21.45 Q52.5 -20.75 53.4 -19.45 L51.4 -18.65 M-83.35 -16.9 Q-84.8 -16.25 -84.85 -15.35 L-71.45 -14.0 Q-68.4 -13.55 -69.55 -14.0 L-83.35 -16.9 M-82.45 -20.5 L-81.35 -21.05 Q-76.95 -22.95 -73.6 -23.95 -70.4 -24.9 -68.3 -24.7 -63.2 -21.2 -55.65 -18.85 L-57.7 -18.15 Q-60.0 -17.2 -62.95 -15.5 -66.0 -14.0 -67.75 -12.8 L-69.0 -11.8 Q-76.45 -13.6 -87.75 -14.5 L-87.65 -14.55 -87.85 -14.55 Q-89.4 -14.3 -87.4 -16.65 -85.9 -18.8 -82.45 -20.5 M-73.35 -9.2 Q-72.3 -10.8 -69.05 -11.55 L-66.1 -11.1 Q-64.9 -11.7 -60.45 -14.45 L-55.3 -18.0 -52.4 -20.05 -48.7 -22.3 Q-47.3 -23.05 -46.3 -22.95 -44.7 -22.4 -46.45 -20.95 -48.0 -19.5 -49.1 -18.8 L-50.6 -17.8 Q-54.65 -15.25 -58.4 -13.3 -60.55 -12.15 -62.6 -11.15 -68.25 -8.45 -70.4 -7.95 L-73.2 -7.5 Q-74.6 -7.7 -73.35 -9.2 M-9.65 -29.1 Q-9.05 -28.1 -8.8 -28.6 -8.7 -29.15 -10.05 -33.55 L-13.45 -33.2 Q-10.2 -30.2 -9.65 -29.1 M-9.4 24.2 Q-1.9 23.8 4.55 23.85 8.1 23.8 11.45 24.0 L22.95 24.7 Q25.5 25.15 25.95 25.55 26.45 26.25 22.6 27.0 18.65 27.75 14.75 27.05 L13.95 25.35 3.4 25.75 -7.1 26.35 -13.15 26.75 -20.1 27.0 Q-22.4 26.95 -22.7 26.45 -22.3 25.25 -18.35 24.85 L-12.25 24.35 -9.4 24.2 M-6.15 27.5 L2.75 27.7 11.45 27.45 14.4 27.25 Q15.55 32.1 21.85 38.6 L21.6 38.55 21.85 38.7 Q23.5 39.25 16.75 40.45 10.85 41.6 4.6 41.55 L2.5 41.55 -9.1 40.25 Q-13.35 39.45 -14.25 38.2 -9.35 32.5 -8.65 27.2 L-6.15 27.5 M-60.0 11.05 L-59.3 11.6 Q-57.75 12.6 -56.8 13.65 -52.7 17.0 -52.3 18.05 -51.85 19.15 -52.4 19.5 L-52.65 19.6 Q-53.7 19.85 -56.6 18.85 -60.1 17.75 -60.75 16.05 L-58.0 15.05 Q-58.95 14.3 -64.0 11.4 L-70.4 7.8 -74.15 5.75 -78.1 3.35 Q-79.15 2.45 -78.4 2.2 -75.9 1.9 -73.2 3.2 -70.4 4.5 -69.2 5.25 L-67.5 6.2 Q-63.5 8.45 -60.7 10.55 L-60.0 11.05 M-72.15 8.55 L-68.0 11.9 Q-65.35 13.75 -63.15 15.0 L-61.25 15.95 Q-69.9 18.4 -79.45 23.65 L-79.5 23.5 -79.65 23.65 Q-80.0 24.6 -85.95 22.55 -91.55 20.75 -94.75 18.25 L-95.9 17.45 Q-98.7 14.4 -99.25 12.45 -99.8 10.5 -97.7 9.65 -83.45 9.25 -72.8 7.55 L-72.15 8.55 M93.7 12.8 Q95.05 11.8 94.85 10.75 L78.6 10.05 Q75.05 9.65 76.6 10.1 L93.7 12.8 M-68.5 16.1 Q-65.55 14.95 -67.4 15.3 L-84.05 20.35 Q-82.65 21.3 -80.2 21.75 -71.6 17.25 -68.5 16.1 M84.25 22.6 Q80.45 23.9 77.85 23.65 71.1 18.85 63.3 16.15 L65.05 15.35 70.05 12.15 74.15 8.9 75.4 7.7 Q83.65 9.2 98.25 9.4 L98.0 9.55 98.4 9.45 Q100.3 9.1 98.95 12.25 97.85 15.15 94.3 17.65 L93.15 18.5 Q88.2 21.25 84.25 22.6 M78.7 3.05 L78.9 3.05 Q79.75 3.3 79.15 4.7 78.3 6.35 75.25 7.55 L72.25 7.15 67.45 11.15 62.85 15.25 60.15 17.6 56.75 20.4 Q55.55 21.2 54.7 21.1 53.1 20.4 54.8 18.7 L57.2 16.25 58.5 15.15 Q61.35 12.55 64.45 10.5 L65.2 9.95 65.95 9.5 68.95 7.6 Q73.8 4.45 75.8 3.85 77.75 3.05 78.7 3.05 M11.4 30.3 Q10.3 28.45 10.2 29.35 10.15 30.2 13.2 38.6 L17.75 37.9 Q12.45 32.15 11.4 30.3" fill="#000000" fill-rule="evenodd" stroke="none"/>
      <path d="M59.55 -19.65 Q61.7 -20.55 66.35 -23.65 68.25 -23.45 69.4 -22.75 L58.95 -19.0 Q57.7 -18.8 59.55 -19.65 M-83.35 -16.9 L-69.55 -14.0 Q-68.4 -13.55 -71.45 -14.0 L-84.85 -15.35 Q-84.8 -16.25 -83.35 -16.9 M-9.65 -29.1 Q-10.2 -30.2 -13.45 -33.2 L-10.05 -33.55 Q-8.7 -29.15 -8.8 -28.6 -9.05 -28.1 -9.65 -29.1 M-68.5 16.1 Q-71.6 17.25 -80.2 21.75 -82.65 21.3 -84.05 20.35 L-67.4 15.3 Q-65.55 14.95 -68.5 16.1 M93.7 12.8 L76.6 10.1 Q75.05 9.65 78.6 10.05 L94.85 10.75 Q95.05 11.8 93.7 12.8 M11.4 30.3 Q12.45 32.15 17.75 37.9 L13.2 38.6 Q10.15 30.2 10.2 29.35 10.3 28.45 11.4 30.3" fill="#fbf4b6" fill-rule="evenodd" stroke="none"/>
      <path d="M7.5 -2.3 Q5.45 -3.2 3.25 -3.45 L-1.4 -3.65 -4.4 -3.3 Q-5.0 -3.0 -4.9 -2.15 L-4.45 9.1 Q-4.55 10.3 -3.45 10.8 L0.8 11.35 7.15 10.65 Q9.55 10.0 10.7 8.9 11.75 7.8 12.25 6.6 L12.4 4.25 Q12.0 1.6 10.8 0.05 9.35 -1.6 7.5 -2.3 M26.1 -3.65 Q29.65 -2.35 31.6 -0.45 L32.3 0.25 33.15 0.25 36.45 0.25 Q39.8 0.15 42.45 1.1 45.0 1.95 45.35 3.25 45.55 4.45 43.4 5.4 41.15 6.25 37.75 6.3 L34.4 6.3 33.5 6.3 32.9 7.5 Q31.4 9.45 28.1 11.15 24.55 12.7 19.05 13.7 L5.4 14.75 0.3 14.7 -3.95 14.65 -7.75 14.6 -11.3 14.5 -14.9 14.6 -18.45 14.65 -22.0 14.7 -25.65 14.75 -28.6 14.5 -31.05 13.95 Q-32.15 13.45 -32.05 12.85 -32.05 12.15 -31.35 12.0 -30.7 11.65 -29.65 11.65 L-27.6 11.35 -25.85 10.5 Q-25.2 9.8 -25.0 8.45 L-24.75 6.3 -28.45 6.3 Q-32.0 6.25 -34.3 5.4 -36.65 4.45 -36.5 3.25 -36.45 1.95 -33.95 1.1 -31.55 0.15 -28.1 0.25 L-24.3 0.25 -24.1 0.25 -23.95 -1.95 Q-23.9 -3.05 -24.65 -3.45 -25.55 -3.95 -26.6 -4.0 L-28.6 -4.4 Q-29.6 -4.7 -29.5 -5.25 -29.5 -5.85 -28.2 -6.2 L-25.2 -6.65 -22.25 -6.75 3.15 -6.75 16.85 -5.9 Q22.5 -5.15 26.1 -3.65" fill="#8e7513" fill-rule="evenodd" stroke="none"/>
      <path d="M7.5 -5.8 Q5.45 -6.7 3.25 -6.95 L-1.4 -7.15 -4.4 -6.8 Q-5.0 -6.5 -4.9 -5.65 L-4.45 5.6 Q-4.55 6.8 -3.45 7.3 L0.8 7.85 7.15 7.15 Q9.55 6.5 10.7 5.4 11.75 4.3 12.25 3.1 L12.4 0.75 Q12.0 -1.9 10.8 -3.45 9.35 -5.1 7.5 -5.8 M16.85 -9.4 Q22.5 -8.65 26.1 -7.15 29.65 -5.85 31.6 -3.95 L32.3 -3.25 33.15 -3.25 36.45 -3.25 Q39.8 -3.35 42.45 -2.4 45.0 -1.55 45.35 -0.25 45.55 0.95 43.4 1.9 41.15 2.75 37.75 2.8 L34.4 2.8 33.5 2.8 32.9 4.0 Q31.4 5.95 28.1 7.65 24.55 9.2 19.05 10.2 L5.4 11.25 0.3 11.2 -3.95 11.15 -7.75 11.1 -11.3 11.0 -14.9 11.1 -18.45 11.15 -22.0 11.2 -25.65 11.25 -28.6 11.0 -31.05 10.45 Q-32.15 9.95 -32.05 9.35 -32.05 8.65 -31.35 8.5 -30.7 8.15 -29.65 8.15 L-27.6 7.85 -25.85 7.0 Q-25.2 6.3 -25.0 4.95 L-24.75 2.8 -28.45 2.8 Q-32.0 2.75 -34.3 1.9 -36.65 0.95 -36.5 -0.25 -36.45 -1.55 -33.95 -2.4 -31.55 -3.35 -28.1 -3.25 L-24.3 -3.25 -24.1 -3.25 -23.95 -5.45 Q-23.9 -6.55 -24.65 -6.95 -25.55 -7.45 -26.6 -7.5 L-28.6 -7.9 Q-29.6 -8.2 -29.5 -8.75 -29.5 -9.35 -28.2 -9.7 L-25.2 -10.15 -22.25 -10.25 3.15 -10.25 16.85 -9.4" fill="#fbf4b6" fill-rule="evenodd" stroke="none"/>
      <path d="M-15.5 -2.15 Q-12.2 -2.2 -9.75 -1.25 -7.4 -0.4 -7.3 0.85 -7.3 2.0 -9.6 3.0 -12.1 3.8 -15.5 3.85 L-28.15 3.85 Q-31.7 3.8 -34.0 3.0 -36.35 2.0 -36.2 0.85 -36.15 -0.4 -33.65 -1.25 -31.25 -2.2 -27.85 -2.15 L-15.5 -2.15 M21.65 -1.25 Q23.85 -2.2 27.25 -2.15 L36.5 -2.15 Q39.85 -2.2 42.45 -1.25 44.95 -0.4 45.35 0.85 45.6 2.0 43.45 3.0 41.2 3.8 37.75 3.85 L28.2 3.85 Q24.8 3.8 22.3 3.0 19.65 2.0 19.6 0.85 19.35 -0.4 21.65 -1.25" fill="url(#gradient6)" fill-rule="evenodd" stroke="none"/>
      <path d="M3.25 -9.1 L16.95 -8.25 Q22.5 -7.45 26.2 -6.05 29.7 -4.65 31.6 -2.85 33.45 -1.15 33.85 0.95 34.15 3.0 32.95 5.05 31.55 7.0 28.2 8.7 24.7 10.25 19.15 11.25 L5.5 12.25 0.55 12.2 -3.7 12.15 -7.5 12.05 -10.95 12.05 -14.55 12.05 -18.2 12.15 -21.75 12.2 -25.3 12.25 -28.3 12.05 Q-29.8 11.85 -30.7 11.45 -31.8 11.0 -31.7 10.4 -31.75 9.65 -31.0 9.5 -30.35 9.2 -29.3 9.2 L-27.3 8.9 Q-26.3 8.7 -25.6 8.05 -24.95 7.3 -24.65 6.05 L-23.7 -4.3 Q-23.65 -5.4 -24.4 -5.8 L-26.4 -6.35 -28.4 -6.75 Q-29.3 -7.05 -29.3 -7.6 -29.25 -8.3 -27.9 -8.55 L-25.0 -9.0 -22.0 -9.1 3.25 -9.1 M10.9 -2.35 Q9.5 -3.95 7.6 -4.7 5.55 -5.5 3.3 -5.8 L-1.3 -6.05 -4.25 -5.65 Q-4.9 -5.35 -4.7 -4.5 L-4.25 6.65 Q-4.35 7.8 -3.25 8.4 L1.0 8.9 7.3 8.25 Q9.65 7.5 10.85 6.5 11.9 5.35 12.35 4.2 L12.5 1.8 Q12.1 -0.8 10.9 -2.35" fill="url(#gradient7)" fill-rule="evenodd" stroke="none"/>
    </g>
    <linearGradient gradientTransform="matrix(0.1313, 0.0, 0.0, 0.0489, 0.0, 23.15)" gradientUnits="userSpaceOnUse" id="gradient0" spreadMethod="reflect" x1="-819.2" x2="819.2">
      <stop offset="0.0" stop-color="#826a0f"/>
      <stop offset="0.11764705882352941" stop-color="#d2bd02"/>
      <stop offset="0.20392156862745098" stop-color="#fbe20d"/>
      <stop offset="0.34901960784313724" stop-color="#baa701"/>
      <stop offset="0.7450980392156863" stop-color="#866f13"/>
      <stop offset="0.8156862745098039" stop-color="#cab502"/>
      <stop offset="0.8509803921568627" stop-color="#fbe20d"/>
      <stop offset="0.8941176470588236" stop-color="#ffffff"/>
      <stop offset="0.9490196078431372" stop-color="#d2bd02"/>
      <stop offset="1.0" stop-color="#826a0f"/>
    </linearGradient>
    <linearGradient gradientTransform="matrix(0.1313, 0.0, 0.0, 0.0489, 0.0, 23.15)" gradientUnits="userSpaceOnUse" id="gradient1" spreadMethod="reflect" x1="-819.2" x2="819.2">
      <stop offset="0.0" stop-color="#826a0f"/>
      <stop offset="0.11764705882352941" stop-color="#d2bd02"/>
      <stop offset="0.20392156862745098" stop-color="#fbe20d"/>
      <stop offset="0.34901960784313724" stop-color="#baa701"/>
      <stop offset="0.7450980392156863" stop-color="#866f13"/>
      <stop offset="0.8156862745098039" stop-color="#cab502"/>
      <stop offset="0.8509803921568627" stop-color="#fbe20d"/>
      <stop offset="0.8941176470588236" stop-color="#ffffff"/>
      <stop offset="0.9490196078431372" stop-color="#d2bd02"/>
      <stop offset="1.0" stop-color="#826a0f"/>
    </linearGradient>
    <linearGradient gradientTransform="matrix(0.0067, -0.0251, 0.1481, 0.0397, 299.5, 91.35)" gradientUnits="userSpaceOnUse" id="gradient2" spreadMethod="reflect" x1="-819.2" x2="819.2">
      <stop offset="0.0392156862745098" stop-color="#f7dd00"/>
      <stop offset="0.17254901960784313" stop-color="#a48717"/>
      <stop offset="0.30196078431372547" stop-color="#f7dd00"/>
      <stop offset="0.40784313725490196" stop-color="#ffff77"/>
      <stop offset="0.6" stop-color="#ffffff"/>
      <stop offset="0.7568627450980392" stop-color="#f7dd00"/>
      <stop offset="1.0" stop-color="#a48717"/>
    </linearGradient>
    <linearGradient gradientTransform="matrix(0.0067, -0.0251, 0.1481, 0.0397, 299.5, 91.35)" gradientUnits="userSpaceOnUse" id="gradient3" spreadMethod="reflect" x1="-819.2" x2="819.2">
      <stop offset="0.0392156862745098" stop-color="#f70000"/>
      <stop offset="0.17254901960784313" stop-color="#a81313"/>
      <stop offset="0.30196078431372547" stop-color="#f70000"/>
      <stop offset="0.40784313725490196" stop-color="#ff7777"/>
      <stop offset="0.6" stop-color="#ffffff"/>
      <stop offset="0.7568627450980392" stop-color="#f70000"/>
      <stop offset="1.0" stop-color="#a41717"/>
    </linearGradient>
    <linearGradient gradientTransform="matrix(0.0067, -0.0251, 0.1481, 0.0397, 299.5, 91.35)" gradientUnits="userSpaceOnUse" id="gradient4" spreadMethod="reflect" x1="-819.2" x2="819.2">
      <stop offset="0.0392156862745098" stop-color="#f7dd00"/>
      <stop offset="0.17254901960784313" stop-color="#a48717"/>
      <stop offset="0.30196078431372547" stop-color="#f7dd00"/>
      <stop offset="0.40784313725490196" stop-color="#ffff77"/>
      <stop offset="0.6" stop-color="#ffffff"/>
      <stop offset="0.7568627450980392" stop-color="#f7dd00"/>
      <stop offset="1.0" stop-color="#a48717"/>
    </linearGradient>
    <linearGradient gradientTransform="matrix(0.0067, -0.0251, 0.1481, 0.0397, 299.5, 91.35)" gradientUnits="userSpaceOnUse" id="gradient5" spreadMethod="reflect" x1="-819.2" x2="819.2">
      <stop offset="0.0392156862745098" stop-color="#f7dd00"/>
      <stop offset="0.17254901960784313" stop-color="#a48717"/>
      <stop offset="0.30196078431372547" stop-color="#f7dd00"/>
      <stop offset="0.40784313725490196" stop-color="#ffff77"/>
      <stop offset="0.6" stop-color="#ffffff"/>
      <stop offset="0.7568627450980392" stop-color="#f7dd00"/>
      <stop offset="1.0" stop-color="#a48717"/>
    </linearGradient>
    <linearGradient gradientTransform="matrix(0.0067, -0.0251, 0.1481, 0.0397, 299.5, 90.35)" gradientUnits="userSpaceOnUse" id="gradient6" spreadMethod="reflect" x1="-819.2" x2="819.2">
      <stop offset="0.0392156862745098" stop-color="#f7dd00"/>
      <stop offset="0.17254901960784313" stop-color="#a48717"/>
      <stop offset="0.30196078431372547" stop-color="#f7dd00"/>
      <stop offset="0.40784313725490196" stop-color="#ffff77"/>
      <stop offset="0.6" stop-color="#ffffff"/>
      <stop offset="0.7568627450980392" stop-color="#f7dd00"/>
      <stop offset="1.0" stop-color="#a48717"/>
    </linearGradient>
    <linearGradient gradientTransform="matrix(0.0067, -0.0251, 0.1481, 0.0397, 299.5, 90.35)" gradientUnits="userSpaceOnUse" id="gradient7" spreadMethod="reflect" x1="-819.2" x2="819.2">
      <stop offset="0.0392156862745098" stop-color="#f7dd00"/>
      <stop offset="0.17254901960784313" stop-color="#a48717"/>
      <stop offset="0.30196078431372547" stop-color="#f7dd00"/>
      <stop offset="0.40784313725490196" stop-color="#ffff77"/>
      <stop offset="0.6" stop-color="#ffffff"/>
      <stop offset="0.7568627450980392" stop-color="#f7dd00"/>
      <stop offset="1.0" stop-color="#a48717"/>
    </linearGradient>
  </defs>
</svg>
