<?xml version="1.0" encoding="UTF-8" standalone="no"?>
<svg xmlns:ffdec="https://www.free-decompiler.com/flash" xmlns:xlink="http://www.w3.org/1999/xlink" ffdec:objectType="frame" height="44.7px" width="35.65px" xmlns="http://www.w3.org/2000/svg">
  <g transform="matrix(1.0, 0.0, 0.0, 1.0, 7.25, 0.35)">
    <use ffdec:characterId="1001" height="44.7" transform="matrix(1.0, 0.0, 0.0, 1.0, -7.25, -0.35)" width="35.65" xlink:href="#shape0"/>
  </g>
  <defs>
    <g id="shape0" transform="matrix(1.0, 0.0, 0.0, 1.0, 7.25, 0.35)">
      <path d="M-0.55 4.1 L-0.75 4.3 -1.2 4.85 -1.7 5.5 -2.9 7.85 Q-3.7 9.85 -3.8 12.35 L-3.6 12.4 -7.2 17.1 -7.25 17.1 Q-7.1 13.7 -5.9 11.15 -3.95 7.05 -0.55 4.1 M3.8 16.6 L4.7 26.0 4.9 26.0 1.25 30.7 0.35 21.3 0.4 21.3 2.9 17.9 3.8 16.6" fill="#ab0404" fill-rule="evenodd" stroke="none"/>
      <path d="M-3.6 12.4 L9.9 13.4 9.75 13.65 7.6 16.65 6.6 16.65 3.85 16.55 3.8 16.55 3.8 16.6 2.9 17.9 -7.2 17.1 -3.6 12.4 M4.9 26.0 L17.6 24.65 16.05 26.95 15.45 27.75 Q14.85 27.45 14.1 27.25 L11.0 26.9 Q7.1 26.9 5.55 28.5 L5.3 28.75 4.85 29.4 4.05 30.45 1.25 30.75 1.25 30.7 4.9 26.0" fill="#790000" fill-rule="evenodd" stroke="none"/>
      <path d="M1.75 33.65 L1.85 33.5 1.9 33.45 1.75 33.65" fill="#00ff66" fill-rule="evenodd" stroke="none"/>
      <path d="M26.5 18.7 L24.6 20.4 Q21.95 22.05 17.55 22.4 L17.65 24.65 17.6 24.65 4.9 26.0 4.7 26.0 3.8 16.6 3.8 16.55 3.85 16.55 6.6 16.65 7.6 16.65 11.7 16.0 Q14.4 15.15 14.85 13.15 16.0 9.35 12.75 8.8 10.0 8.8 9.95 13.4 L9.9 13.4 -3.6 12.4 -3.8 12.35 Q-3.7 9.85 -2.9 7.85 L-1.7 5.5 -1.2 4.85 -0.75 4.3 -0.55 4.1 -0.4 3.95 -0.2 3.75 Q4.15 -0.35 13.75 -0.35 25.4 0.55 27.7 7.45 29.4 14.25 27.0 17.95 L26.5 18.7" fill="url(#gradient0)" fill-rule="evenodd" stroke="none"/>
      <path d="M17.6 24.65 L17.65 24.65 17.55 22.4 Q21.95 22.05 24.6 20.4 L26.5 18.7 23.6 22.65 23.0 23.5 Q20.75 26.15 16.05 26.95 L17.6 24.65" fill="url(#gradient1)" fill-rule="evenodd" stroke="none"/>
      <path d="M9.9 13.4 L9.95 13.4 Q10.0 8.8 12.75 8.8 16.0 9.35 14.85 13.15 14.4 15.15 11.7 16.0 11.65 14.15 9.75 13.65 L9.9 13.4" fill="url(#gradient2)" fill-rule="evenodd" stroke="none"/>
      <path d="M15.45 27.75 Q16.4 28.2 17.05 28.9 18.9 30.9 18.75 33.5 18.65 35.1 17.8 36.45 L17.15 37.35 16.55 37.95 15.25 38.85 Q13.45 39.75 10.7 39.6 6.85 39.35 5.25 37.6 3.65 35.8 3.75 33.2 L3.85 32.2 Q3.95 31.25 4.3 30.45 L4.85 29.4 5.3 28.75 5.55 28.5 Q7.1 26.9 11.0 26.9 L14.1 27.25 Q14.85 27.45 15.45 27.75" fill="url(#gradient3)" fill-rule="evenodd" stroke="none"/>
      <path d="M17.15 37.35 L14.55 40.9 13.5 42.3 13.1 42.7 Q11.1 44.55 7.25 44.35 3.4 44.1 1.8 42.35 0.2 40.55 0.3 37.95 0.35 35.45 1.75 33.65 L1.9 33.45 4.05 30.45 4.85 29.4 4.3 30.45 Q3.95 31.25 3.85 32.2 L3.75 33.2 Q3.65 35.8 5.25 37.6 6.85 39.35 10.7 39.6 13.45 39.75 15.25 38.85 L16.55 37.95 17.15 37.35" fill="url(#gradient4)" fill-rule="evenodd" stroke="none"/>
      <path d="M4.85 29.4 L4.3 30.45 Q3.95 31.25 3.85 32.2 L3.75 33.2 Q3.65 35.8 5.25 37.6 6.85 39.35 10.7 39.6 13.45 39.75 15.25 38.85 L16.55 37.95 17.15 37.35" fill="none" stroke="url(#gradient5)" stroke-linecap="round" stroke-linejoin="round" stroke-width="1.0"/>
      <path d="M3.8 16.6 L4.7 26.0 4.9 26.0 17.6 24.65 M1.25 30.7 L4.9 26.0" fill="none" stroke="url(#gradient6)" stroke-linecap="round" stroke-linejoin="round" stroke-width="1.0"/>
    </g>
    <linearGradient gradientTransform="matrix(1.0E-4, 0.0233, -0.0159, 1.0E-4, 12.1, 18.7)" gradientUnits="userSpaceOnUse" id="gradient0" spreadMethod="pad" x1="-819.2" x2="819.2">
      <stop offset="0.0" stop-color="#ff452e"/>
      <stop offset="1.0" stop-color="#e00a0a"/>
    </linearGradient>
    <linearGradient gradientTransform="matrix(0.0036, 0.0021, -0.0052, 0.009, 20.25, 24.05)" gradientUnits="userSpaceOnUse" id="gradient1" spreadMethod="pad" x1="-819.2" x2="819.2">
      <stop offset="0.1803921568627451" stop-color="#aa0000"/>
      <stop offset="0.5019607843137255" stop-color="#790000"/>
      <stop offset="0.803921568627451" stop-color="#790000"/>
      <stop offset="0.9882352941176471" stop-color="#930000"/>
    </linearGradient>
    <linearGradient gradientTransform="matrix(0.0065, 0.0037, -0.0052, 0.009, 12.4, 13.6)" gradientUnits="userSpaceOnUse" id="gradient2" spreadMethod="pad" x1="-819.2" x2="819.2">
      <stop offset="0.1803921568627451" stop-color="#aa0000"/>
      <stop offset="0.5019607843137255" stop-color="#790000"/>
      <stop offset="0.803921568627451" stop-color="#790000"/>
      <stop offset="0.9882352941176471" stop-color="#930000"/>
    </linearGradient>
    <linearGradient gradientTransform="matrix(0.0, 0.0227, -0.0235, 0.0, -38.75, 20.0)" gradientUnits="userSpaceOnUse" id="gradient3" spreadMethod="pad" x1="-819.2" x2="819.2">
      <stop offset="0.0" stop-color="#ff452e"/>
      <stop offset="1.0" stop-color="#e00a0a"/>
    </linearGradient>
    <linearGradient gradientTransform="matrix(0.0071, 0.0054, -0.0057, 0.0075, 6.0, 40.15)" gradientUnits="userSpaceOnUse" id="gradient4" spreadMethod="pad" x1="-819.2" x2="819.2">
      <stop offset="0.1803921568627451" stop-color="#aa0000"/>
      <stop offset="0.5019607843137255" stop-color="#790000"/>
      <stop offset="0.803921568627451" stop-color="#790000"/>
      <stop offset="0.9882352941176471" stop-color="#930000"/>
    </linearGradient>
    <radialGradient cx="0" cy="0" gradientTransform="matrix(0.0105, 0.0, 0.0, 0.0099, 8.75, 37.0)" gradientUnits="userSpaceOnUse" id="gradient5" r="819.2" spreadMethod="pad">
      <stop offset="0.12941176470588237" stop-color="#ffe48e" stop-opacity="0.4"/>
      <stop offset="1.0" stop-color="#ffe983" stop-opacity="0.0"/>
    </radialGradient>
    <radialGradient cx="0" cy="0" gradientTransform="matrix(0.0088, -0.0024, 0.0023, 0.0085, 5.1, 25.6)" gradientUnits="userSpaceOnUse" id="gradient6" r="819.2" spreadMethod="pad">
      <stop offset="0.12941176470588237" stop-color="#ffe48e" stop-opacity="0.4"/>
      <stop offset="1.0" stop-color="#ffe983" stop-opacity="0.0"/>
    </radialGradient>
  </defs>
</svg>
