<?xml version="1.0" encoding="UTF-8" standalone="no"?>
<svg xmlns:ffdec="https://www.free-decompiler.com/flash" xmlns:xlink="http://www.w3.org/1999/xlink" ffdec:objectType="frame" height="40.5px" width="322.95px" xmlns="http://www.w3.org/2000/svg">
  <g transform="matrix(1.0, 0.0, 0.0, 1.0, 0.6, 0.55)">
    <use ffdec:characterId="1728" height="40.5" transform="matrix(1.0, 0.0, 0.0, 1.0, -0.6, -0.55)" width="322.95" xlink:href="#shape0"/>
    <use ffdec:characterId="1734" height="31.0" id="say_btn" transform="matrix(1.0, 0.0, 0.0, 1.0, 277.4, 4.0)" width="40.0" xlink:href="#button0"/>
    <use ffdec:characterId="1735" height="12.95" transform="matrix(1.0, 0.0, 0.0, 1.0, 0.5, 0.85)" width="315.7" xlink:href="#shape3"/>
    <use ffdec:characterId="1736" height="26.25" id="chatMsg_txt" transform="matrix(1.0, 0.0, 0.0, 1.0, 8.95, 7.75)" width="268.05" xlink:href="#text0"/>
  </g>
  <defs>
    <g id="shape0" transform="matrix(1.0, 0.0, 0.0, 1.0, 0.6, 0.55)">
      <path d="M315.75 6.05 Q319.85 10.15 319.85 15.95 L319.85 23.45 Q319.85 29.25 315.75 33.35 311.65 37.45 305.85 37.45 L15.9 37.45 Q10.1 37.45 6.0 33.35 1.9 29.25 1.9 23.45 L1.9 15.95 Q1.9 10.15 6.0 6.05 10.1 1.95 15.9 1.95 L305.85 1.95 Q311.65 1.95 315.75 6.05" fill="#ffffaa" fill-rule="evenodd" stroke="none"/>
      <path d="M315.75 6.05 Q311.65 1.95 305.85 1.95 L15.9 1.95 Q10.1 1.95 6.0 6.05 1.9 10.15 1.9 15.95 L1.9 23.45 Q1.9 29.25 6.0 33.35 10.1 37.45 15.9 37.45 L305.85 37.45 Q311.65 37.45 315.75 33.35 319.85 29.25 319.85 23.45 L319.85 15.95 Q319.85 10.15 315.75 6.05 Z" fill="none" stroke="#69c8f3" stroke-linecap="round" stroke-linejoin="round" stroke-width="5.0"/>
      <path d="M313.45 9.25 Q309.55 5.85 304.15 5.85 L20.45 5.85 Q14.75 5.85 10.75 9.6 6.7 13.4 6.7 18.75 L6.7 25.65 Q6.7 27.95 7.45 29.95" fill="none" stroke="#0f89bd" stroke-linecap="round" stroke-linejoin="round" stroke-width="3.0"/>
      <path d="M316.45 16.25 Q316.45 10.9 312.45 7.1 308.45 3.35 302.75 3.35 L19.05 3.35 Q13.35 3.35 9.35 7.1 5.3 10.9 5.3 16.25 L5.3 23.15 Q5.3 28.5 9.35 32.25 13.35 36.05 19.05 36.05 L302.75 36.05 Q308.45 36.05 312.45 32.25 316.45 28.5 316.45 23.15 L316.45 16.25 Z" fill="none" stroke="#13abec" stroke-linecap="round" stroke-linejoin="round" stroke-width="3.0"/>
    </g>
    <g id="button0" transform="matrix(1.0, 0.0, 0.0, 1.0, 1.0, 1.0)">
      <use ffdec:characterId="1730" height="31.0" transform="matrix(1.0, 0.0, 0.0, 1.0, -1.0, -1.0)" width="40.0" xlink:href="#sprite0"/>
      <use ffdec:characterId="1731" height="22.85" transform="matrix(1.0, 0.0, 0.0, 1.0, 6.5, 3.15)" width="25.75" xlink:href="#shape2"/>
    </g>
    <g id="sprite0" transform="matrix(1.0, 0.0, 0.0, 1.0, 1.0, 1.0)">
      <use ffdec:characterId="1729" height="31.0" transform="matrix(1.0, 0.0, 0.0, 1.0, -1.0, -1.0)" width="40.0" xlink:href="#shape1"/>
    </g>
    <g id="shape1" transform="matrix(1.0, 0.0, 0.0, 1.0, 1.0, 1.0)">
      <path d="M26.45 0.0 Q31.2 0.0 34.6 3.2 38.0 6.5 38.0 11.05 L38.0 18.3 Q37.85 22.6 34.6 25.7 31.2 29.0 26.45 29.0 L11.55 29.0 Q6.8 29.0 3.35 25.7 0.0 22.5 0.0 17.95 L0.0 11.05 0.05 10.0 Q0.4 6.1 3.35 3.2 6.8 0.0 11.55 0.0 L26.45 0.0" fill="#23b7d6" fill-rule="evenodd" stroke="none"/>
      <path d="M26.45 0.0 L11.55 0.0 Q6.8 0.0 3.35 3.2 0.4 6.1 0.05 10.0 L0.0 11.05 0.0 17.95 Q0.0 22.5 3.35 25.7 6.8 29.0 11.55 29.0 L26.45 29.0 Q31.2 29.0 34.6 25.7 37.85 22.6 38.0 18.3 L38.0 11.05 Q38.0 6.5 34.6 3.2 31.2 0.0 26.45 0.0 Z" fill="none" stroke="url(#gradient0)" stroke-linecap="round" stroke-linejoin="round" stroke-width="2.0"/>
    </g>
    <linearGradient gradientTransform="matrix(0.0171, 0.019, -0.0148, 0.0133, 19.0, 14.5)" gradientUnits="userSpaceOnUse" id="gradient0" spreadMethod="pad" x1="-819.2" x2="819.2">
      <stop offset="0.00392156862745098" stop-color="#e6ebff"/>
      <stop offset="0.4549019607843137" stop-color="#c4d0ff"/>
      <stop offset="0.6313725490196078" stop-color="#002f99"/>
      <stop offset="0.9803921568627451" stop-color="#01226d"/>
    </linearGradient>
    <g id="shape2" transform="matrix(1.0, 0.0, 0.0, 1.0, -6.5, -3.15)">
      <path d="M27.25 4.15 Q31.25 4.15 31.25 8.15 L31.25 16.15 Q31.25 20.15 27.25 20.15 L19.25 20.15 13.25 25.0 13.3 20.15 11.5 20.15 Q7.5 20.15 7.5 16.15 L7.5 8.15 Q7.5 4.15 11.5 4.15 L27.25 4.15" fill="#ffffff" fill-rule="evenodd" stroke="none"/>
      <path d="M27.25 4.15 L11.5 4.15 Q7.5 4.15 7.5 8.15 L7.5 16.15 Q7.5 20.15 11.5 20.15 L13.3 20.15 13.25 25.0 19.25 20.15 27.25 20.15 Q31.25 20.15 31.25 16.15 L31.25 8.15 Q31.25 4.15 27.25 4.15 Z" fill="none" stroke="#666666" stroke-linecap="round" stroke-linejoin="round" stroke-width="2.0"/>
      <path d="M13.5 12.05 L25.5 12.05 M13.5 16.0 L25.5 16.0 M13.5 8.1 L25.5 8.1" fill="none" stroke="#999999" stroke-linecap="round" stroke-linejoin="round" stroke-width="2.0"/>
    </g>
    <g id="shape3" transform="matrix(1.0, 0.0, 0.0, 1.0, -0.5, -0.85)">
      <path d="M314.9 5.7 Q314.2 5.85 313.45 5.4 312.75 4.95 312.5 4.25 312.2 3.6 312.6 3.0 312.9 2.45 313.65 2.3 314.4 2.2 315.1 2.65 315.85 3.1 316.05 3.75 316.35 4.55 316.05 5.1 315.65 5.7 314.9 5.7 M308.85 2.0 Q308.85 1.5 309.2 1.15 309.6 0.85 310.1 0.85 310.6 0.85 310.95 1.15 311.35 1.5 311.35 2.0 311.35 2.5 310.95 2.8 L310.1 3.15 Q309.6 3.15 309.2 2.8 308.85 2.5 308.85 2.0 M5.7 3.95 Q6.1 3.55 6.65 3.55 7.2 3.55 7.55 3.95 7.95 4.4 7.95 5.0 7.95 5.6 7.55 6.0 7.2 6.45 6.65 6.45 6.1 6.45 5.7 6.0 5.35 5.6 5.35 5.0 5.35 4.4 5.7 3.95 M1.9 8.05 Q2.7 7.1 3.5 7.1 4.25 7.05 4.6 8.0 4.85 9.05 4.55 10.4 4.1 11.8 3.3 12.8 2.5 13.8 1.7 13.8 0.9 13.85 0.65 12.85 0.35 11.9 0.75 10.5 1.1 9.15 1.9 8.05" fill="#d8f1fc" fill-rule="evenodd" stroke="none"/>
    </g>
  </defs>
</svg>
