<?xml version="1.0" encoding="UTF-8" standalone="no"?>
<svg xmlns:ffdec="https://www.free-decompiler.com/flash" xmlns:xlink="http://www.w3.org/1999/xlink" ffdec:objectType="frame" height="29.0px" width="32.2px" xmlns="http://www.w3.org/2000/svg">
  <g transform="matrix(1.0, 0.0, 0.0, 1.0, 0.0, 0.0)">
    <use ffdec:characterId="2359" ffdec:characterName="core390_fla.controlTab_450" height="34.9" id="bg_mc" transform="matrix(0.8154, 0.0, 0.0, 0.8316, 0.0, 0.0)" width="39.5" xlink:href="#sprite0"/>
    <use ffdec:characterId="2367" height="18.45" transform="matrix(1.0, 0.0, 0.0, 1.0, 4.4, 5.55)" width="23.7" xlink:href="#shape1"/>
  </g>
  <defs>
    <g id="sprite0" transform="matrix(1.0, 0.0, 0.0, 1.0, 0.0, 0.0)">
      <use ffdec:characterId="2357" height="34.9" transform="matrix(1.0, 0.0, 0.0, 1.0, 0.0, 0.0)" width="39.5" xlink:href="#shape0"/>
    </g>
    <g id="shape0" transform="matrix(1.0, 0.0, 0.0, 1.0, 0.0, 0.0)">
      <path d="M36.25 3.05 L39.5 0.0 39.5 34.9 36.25 32.05 36.25 3.05" fill="#000000" fill-opacity="0.2784314" fill-rule="evenodd" stroke="none"/>
      <path d="M39.5 0.0 L36.25 3.05 2.95 3.05 0.0 0.0 39.5 0.0" fill="#ffffff" fill-opacity="0.4392157" fill-rule="evenodd" stroke="none"/>
      <path d="M0.0 0.0 L2.95 3.05 2.95 32.05 0.0 34.9 0.0 0.0" fill="#ffffff" fill-opacity="0.36078432" fill-rule="evenodd" stroke="none"/>
      <path d="M36.25 32.05 L39.5 34.9 0.0 34.9 2.95 32.05 36.25 32.05" fill="#000000" fill-opacity="0.4" fill-rule="evenodd" stroke="none"/>
      <path d="M36.25 3.05 L36.25 32.05 2.95 32.05 2.95 3.05 36.25 3.05" fill="#000000" fill-opacity="0.09019608" fill-rule="evenodd" stroke="none"/>
    </g>
    <g id="shape1" transform="matrix(1.0, 0.0, 0.0, 1.0, -4.4, -5.55)">
      <path d="M23.7 12.1 L23.45 12.15 23.4 12.15 23.3 12.2 22.95 12.4 19.55 13.0 19.45 13.05 19.3 13.1 18.7 13.4 Q17.75 14.05 17.3 15.45 16.8 16.75 17.15 17.95 L17.25 18.25 17.4 18.65 17.5 19.3 19.35 21.3 14.9 22.15 16.05 11.25 23.85 9.8 23.7 12.1 M22.8 12.1 L22.85 12.15 22.85 12.1 22.8 12.1 M19.45 21.3 L19.4 21.3 19.4 21.25 19.45 21.3" fill="#5170d9" fill-rule="evenodd" stroke="none"/>
      <path d="M16.05 11.25 L14.9 22.15 4.4 16.65 5.4 6.7 16.05 11.25" fill="#000097" fill-rule="evenodd" stroke="none"/>
      <path d="M23.85 9.8 L16.05 11.25 5.4 6.7 13.05 5.55 23.85 9.8" fill="#2b4ec6" fill-rule="evenodd" stroke="none"/>
      <path d="M22.95 12.4 Q22.65 12.55 22.4 12.65 L21.6 13.45 Q20.45 14.55 19.9 16.4 19.2 18.45 19.55 20.35 L19.65 20.95 19.8 21.4 21.5 23.65 21.45 23.65 20.15 22.2 20.05 22.1 20.05 22.15 19.35 21.3 17.5 19.3 17.4 18.65 17.25 18.25 17.15 17.95 Q16.8 16.75 17.3 15.45 17.75 14.05 18.7 13.4 L19.3 13.1 19.45 13.05 19.55 13.0 22.95 12.4 M19.45 21.3 L19.4 21.25 19.4 21.3 19.45 21.3" fill="#000062" fill-rule="evenodd" stroke="none"/>
      <path d="M22.95 12.4 L23.3 12.2 23.4 12.15 23.45 12.15 23.7 12.1 24.0 11.95 24.3 11.95 25.75 12.15 Q27.3 12.75 27.9 14.95 28.45 17.15 27.6 19.6 26.9 22.05 25.05 23.2 23.4 24.45 21.85 23.8 L21.5 23.7 20.75 23.1 20.7 23.05 20.3 22.55 20.15 22.25 20.15 22.2 21.45 23.65 21.5 23.65 19.8 21.4 19.65 20.95 19.55 20.35 Q19.2 18.45 19.9 16.4 20.45 14.55 21.6 13.45 L22.4 12.65 Q22.65 12.55 22.95 12.4 M26.95 15.65 Q26.6 13.95 25.35 13.5 L24.1 13.35 23.9 13.35 23.55 13.5 Q23.2 13.6 22.9 13.9 L22.2 14.55 Q21.35 15.4 20.95 16.75 20.45 18.4 20.7 19.9 L20.8 20.35 Q20.95 21.1 21.25 21.65 L21.5 22.1 21.8 22.2 22.4 22.65 Q23.6 23.1 24.85 22.15 26.15 21.2 26.8 19.3 27.4 17.35 26.95 15.65" fill="#afb5e2" fill-rule="evenodd" stroke="none"/>
      <path d="M26.95 15.65 Q27.4 17.35 26.8 19.3 26.15 21.2 24.85 22.15 23.6 23.1 22.4 22.65 L21.8 22.2 21.5 22.1 21.25 21.65 Q20.95 21.1 20.8 20.35 L20.7 19.9 Q20.45 18.4 20.95 16.75 21.35 15.4 22.2 14.55 L22.9 13.9 Q23.2 13.6 23.55 13.5 L23.9 13.35 24.1 13.35 25.35 13.5 Q26.6 13.95 26.95 15.65" fill="url(#gradient0)" fill-rule="evenodd" stroke="none"/>
    </g>
    <radialGradient cx="0" cy="0" gradientTransform="matrix(0.004, 0.0012, -0.0016, 0.0062, 23.9, 18.0)" gradientUnits="userSpaceOnUse" id="gradient0" r="819.2" spreadMethod="pad">
      <stop offset="0.0" stop-color="#7067c2"/>
      <stop offset="1.0" stop-color="#222222"/>
    </radialGradient>
  </defs>
</svg>
