<?xml version="1.0" encoding="UTF-8" standalone="no"?>
<svg xmlns:ffdec="https://www.free-decompiler.com/flash" xmlns:xlink="http://www.w3.org/1999/xlink" ffdec:objectType="frame" height="27.0px" width="23.0px" xmlns="http://www.w3.org/2000/svg">
  <g transform="matrix(1.0, 0.0, 0.0, 1.0, 1.0, 3.9)">
    <filter id="filter0">
      <feColorMatrix in="SourceGraphic" result="filterResult0" type="matrix" values="0 0 0 0 1.0,0 0 0 0 0.6,0 0 0 0 0.0,0 0 0 1 0"/>
      <feConvolveMatrix divisor="25.0" in="filterResult0" kernelMatrix="1 1 1 1 1 1 1 1 1 1 1 1 1 1 1 1 1 1 1 1 1 1 1 1 1" order="5 5" result="filterResult1"/>
      <feComposite in="SourceGraphic" in2="filterResult1" operator="over" result="filterResult2"/>
    </filter>
    <use ffdec:characterId="2284" filter="url(#filter0)" height="26.4" transform="matrix(0.7282, 0.0, 0.0, 0.7282, -0.3123, -0.3118)" width="27.7" xlink:href="#sprite0"/>
    <use ffdec:characterId="2285" height="27.0" id="btn" transform="matrix(1.0, 0.0, 0.0, 1.0, -1.0, -3.9)" width="23.0" xlink:href="#button0"/>
  </g>
  <defs>
    <g id="sprite0" transform="matrix(1.0, 0.0, 0.0, 1.0, 13.75, 13.2)">
      <use ffdec:characterId="2283" height="26.4" transform="matrix(1.0, 0.0, 0.0, 1.0, -13.75, -13.2)" width="27.7" xlink:href="#shape0"/>
    </g>
    <g id="shape0" transform="matrix(1.0, 0.0, 0.0, 1.0, 13.75, 13.2)">
      <path d="M4.0 -4.05 L0.1 1.3 0.1 1.35 6.45 3.4 8.45 12.8 0.1 1.35 0.05 1.35 0.05 1.3 0.1 1.35 0.05 1.3 0.05 1.35 -6.2 3.4 -13.35 -3.05 0.05 1.3 0.1 1.3 0.1 -12.8 4.0 -4.05" fill="#e3c804" fill-rule="evenodd" stroke="none"/>
      <path d="M4.0 -4.05 L13.55 -3.05 0.1 1.35 0.1 1.3 4.0 -4.05 M-13.35 -3.05 L-3.8 -4.05 0.1 1.3 0.05 1.3 -13.35 -3.05" fill="#ffff59" fill-rule="evenodd" stroke="none"/>
      <path d="M0.1 1.35 L13.55 -3.05 6.45 3.4 0.1 1.35 0.1 8.0 -8.2 12.8 -8.15 12.45 0.05 1.35 0.1 1.35" fill="#bf9d13" fill-rule="evenodd" stroke="none"/>
      <path d="M8.45 12.8 L0.1 8.0 0.1 1.35 8.45 12.8" fill="#eaea00" fill-rule="evenodd" stroke="none"/>
      <path d="M-8.15 12.45 L-6.2 3.4 0.05 1.35 -8.15 12.45 M-3.8 -4.05 L0.1 -12.8 0.1 1.3 -3.8 -4.05" fill="#ffff00" fill-rule="evenodd" stroke="none"/>
      <path d="M13.55 -3.05 L4.0 -4.05 0.1 1.3 0.1 1.35 13.55 -3.05 6.45 3.4 8.45 12.8 0.1 8.0 -8.2 12.8 -8.15 12.45 -6.2 3.4 -13.35 -3.05 -3.8 -4.05 0.1 -12.8 4.0 -4.05 M0.1 1.35 L0.1 8.0 M0.1 1.35 L8.45 12.8 M0.05 1.35 L0.1 1.35 0.05 1.3 0.05 1.35 -8.15 12.45 M0.05 1.3 L0.1 1.3 M0.05 1.35 L-6.2 3.4" ffdec:has-small-stroke="true" ffdec:original-stroke-width="0.8" fill="none" stroke="#ffff00" stroke-linecap="round" stroke-linejoin="round" stroke-width="1.3733157310198867"/>
      <path d="M0.1 1.3 L-3.8 -4.05 M0.1 -12.8 L0.1 1.3 M-13.35 -3.05 L0.05 1.3" ffdec:has-small-stroke="true" ffdec:original-stroke-width="0.8" fill="none" stroke="#ffffff" stroke-linecap="round" stroke-linejoin="round" stroke-width="1.3733157310198867"/>
    </g>
  </defs>
</svg>
