<?xml version="1.0" encoding="UTF-8" standalone="no"?>
<svg xmlns:ffdec="https://www.free-decompiler.com/flash" xmlns:xlink="http://www.w3.org/1999/xlink" ffdec:objectType="frame" height="64.9px" width="57.15px" xmlns="http://www.w3.org/2000/svg">
  <g transform="matrix(1.0, 0.0, 0.0, 1.0, 9.15, 26.25)">
    <use ffdec:characterId="628" height="64.9" transform="matrix(1.0, 0.0, 0.0, 1.0, -9.15, -26.25)" width="57.15" xlink:href="#shape0"/>
    <use ffdec:characterId="630" height="1.0" transform="matrix(0.8, 0.0, 0.0, 0.8, 17.0, 16.05)" width="1.0" xlink:href="#sprite0"/>
    <use ffdec:characterId="630" height="1.0" transform="matrix(0.8, 0.0, 0.0, 0.8, 23.5, 7.75)" width="1.0" xlink:href="#sprite0"/>
    <use ffdec:characterId="630" height="1.0" transform="matrix(1.0, 0.0, 0.0, 1.0, 19.35, 13.6)" width="1.0" xlink:href="#sprite0"/>
    <use ffdec:characterId="630" height="1.0" transform="matrix(1.0, 0.0, 0.0, 1.0, 28.0, 0.1)" width="1.0" xlink:href="#sprite0"/>
    <use ffdec:characterId="630" height="1.0" transform="matrix(1.0, 0.0, 0.0, 1.0, 26.9, 1.6)" width="1.0" xlink:href="#sprite0"/>
    <use ffdec:characterId="630" height="1.0" transform="matrix(1.0, 0.0, 0.0, 1.0, 18.7, -11.9)" width="1.0" xlink:href="#sprite0"/>
    <use ffdec:characterId="630" height="1.0" transform="matrix(1.0, 0.0, 0.0, 1.0, 0.75, -7.4)" width="1.0" xlink:href="#sprite0"/>
    <use ffdec:characterId="630" height="1.0" transform="matrix(1.0, 0.0, 0.0, 1.0, 1.45, -11.0)" width="1.0" xlink:href="#sprite0"/>
    <use ffdec:characterId="630" height="1.0" transform="matrix(1.0, 0.0, 0.0, 1.0, -3.0, 2.45)" width="1.0" xlink:href="#sprite0"/>
    <use ffdec:characterId="630" height="1.0" transform="matrix(0.9, 0.0, 0.0, 0.9, -0.55, 4.45)" width="1.0" xlink:href="#sprite0"/>
    <use ffdec:characterId="630" height="1.0" transform="matrix(1.0, 0.0, 0.0, 1.0, 3.4, 10.85)" width="1.0" xlink:href="#sprite0"/>
    <use ffdec:characterId="630" height="1.0" transform="matrix(1.0, 0.0, 0.0, 1.0, -4.15, 17.85)" width="1.0" xlink:href="#sprite0"/>
    <use ffdec:characterId="630" height="1.0" transform="matrix(1.0, 0.0, 0.0, 1.0, 3.1, 18.9)" width="1.0" xlink:href="#sprite0"/>
    <use ffdec:characterId="630" height="1.0" transform="matrix(1.0, 0.0, 0.0, 1.0, 5.4, 20.65)" width="1.0" xlink:href="#sprite0"/>
    <use ffdec:characterId="630" height="1.0" transform="matrix(0.6, 0.0, 0.0, 0.6, 12.4, 28.2)" width="1.0" xlink:href="#sprite0"/>
    <use ffdec:characterId="630" height="1.0" transform="matrix(1.0, 0.0, 0.0, 1.0, 13.2, 32.95)" width="1.0" xlink:href="#sprite0"/>
    <use ffdec:characterId="630" height="1.0" transform="matrix(0.5, 0.0, 0.0, 0.5, 19.85, 21.0)" width="1.0" xlink:href="#sprite0"/>
    <use ffdec:characterId="630" height="1.0" transform="matrix(0.9, 0.0, 0.0, 0.9, 22.95, 17.25)" width="1.0" xlink:href="#sprite0"/>
    <use ffdec:characterId="630" height="1.0" transform="matrix(1.0, 0.0, 0.0, 1.0, 24.95, 18.7)" width="1.0" xlink:href="#sprite0"/>
    <use ffdec:characterId="630" height="1.0" transform="matrix(0.8, 0.0, 0.0, 0.8, 32.1, 15.5)" width="1.0" xlink:href="#sprite0"/>
    <use ffdec:characterId="630" height="1.0" transform="matrix(1.0, 0.0, 0.0, 1.0, 28.9, 16.85)" width="1.0" xlink:href="#sprite0"/>
    <use ffdec:characterId="630" height="1.0" transform="matrix(1.0, 0.0, 0.0, 1.0, 8.7, 25.6)" width="1.0" xlink:href="#sprite0"/>
    <use ffdec:characterId="630" height="1.0" transform="matrix(1.0, 0.0, 0.0, 1.0, 5.8, 27.9)" width="1.0" xlink:href="#sprite0"/>
    <use ffdec:characterId="630" height="1.0" transform="matrix(1.0, 0.0, 0.0, 1.0, 2.7, 31.8)" width="1.0" xlink:href="#sprite0"/>
    <use ffdec:characterId="630" height="1.0" transform="matrix(1.0, 0.0, 0.0, 1.0, 3.0, 29.9)" width="1.0" xlink:href="#sprite0"/>
    <use ffdec:characterId="630" height="1.0" transform="matrix(1.0, 0.0, 0.0, 1.0, -6.7, 31.1)" width="1.0" xlink:href="#sprite0"/>
    <use ffdec:characterId="630" height="1.0" transform="matrix(1.0, 0.0, 0.0, 1.0, -6.0, 32.4)" width="1.0" xlink:href="#sprite0"/>
    <use ffdec:characterId="630" height="1.0" transform="matrix(1.0, 0.0, 0.0, 1.0, -3.25, 35.8)" width="1.0" xlink:href="#sprite0"/>
    <use ffdec:characterId="630" height="1.0" transform="matrix(1.0, 0.0, 0.0, 1.0, 17.7, 31.95)" width="1.0" xlink:href="#sprite0"/>
    <use ffdec:characterId="630" height="1.0" transform="matrix(1.0, 0.0, 0.0, 1.0, 25.25, 25.25)" width="1.0" xlink:href="#sprite0"/>
    <use ffdec:characterId="630" height="1.0" transform="matrix(0.7, 0.0, 0.0, 0.7, 27.05, 24.6)" width="1.0" xlink:href="#sprite0"/>
    <use ffdec:characterId="630" height="1.0" transform="matrix(1.0, 0.0, 0.0, 1.0, 31.25, 30.1)" width="1.0" xlink:href="#sprite0"/>
    <use ffdec:characterId="630" height="1.0" transform="matrix(0.6, 0.0, 0.0, 0.6, 29.4, 28.2)" width="1.0" xlink:href="#sprite0"/>
    <use ffdec:characterId="630" height="1.0" transform="matrix(1.0, 0.0, 0.0, 1.0, 39.95, 33.95)" width="1.0" xlink:href="#sprite0"/>
    <use ffdec:characterId="630" height="1.0" transform="matrix(1.0, 0.0, 0.0, 1.0, 44.1, 32.4)" width="1.0" xlink:href="#sprite0"/>
    <use ffdec:characterId="630" height="1.0" transform="matrix(1.0, 0.0, 0.0, 1.0, 45.5, 28.5)" width="1.0" xlink:href="#sprite0"/>
    <use ffdec:characterId="630" height="1.0" transform="matrix(1.0, 0.0, 0.0, 1.0, 40.3, 23.15)" width="1.0" xlink:href="#sprite0"/>
    <use ffdec:characterId="632" height="1.0" transform="matrix(1.0, 0.0, 0.0, 1.0, 25.8, 16.85)" width="1.0" xlink:href="#sprite1"/>
    <use ffdec:characterId="632" height="1.0" transform="matrix(1.0, 0.0, 0.0, 1.0, 26.5, 17.45)" width="1.0" xlink:href="#sprite1"/>
    <use ffdec:characterId="632" height="1.0" transform="matrix(1.0, 0.0, 0.0, 1.0, 22.75, 24.15)" width="1.0" xlink:href="#sprite1"/>
    <use ffdec:characterId="632" height="1.0" transform="matrix(0.6, 0.0, 0.0, 0.6, 24.65, 16.65)" width="1.0" xlink:href="#sprite1"/>
    <use ffdec:characterId="632" height="1.0" transform="matrix(0.6, 0.0, 0.0, 0.6, 25.25, 23.75)" width="1.0" xlink:href="#sprite1"/>
    <use ffdec:characterId="632" height="1.0" transform="matrix(0.6, 0.0, 0.0, 0.6, 42.2, 22.45)" width="1.0" xlink:href="#sprite1"/>
    <use ffdec:characterId="632" height="1.0" transform="matrix(1.0, 0.0, 0.0, 1.0, 43.4, 22.75)" width="1.0" xlink:href="#sprite1"/>
    <use ffdec:characterId="632" height="1.0" transform="matrix(1.0, 0.0, 0.0, 1.0, 45.1, 24.6)" width="1.0" xlink:href="#sprite1"/>
    <use ffdec:characterId="632" height="1.0" transform="matrix(1.0, 0.0, 0.0, 1.0, 34.85, 33.1)" width="1.0" xlink:href="#sprite1"/>
    <use ffdec:characterId="632" height="1.0" transform="matrix(1.0, 0.0, 0.0, 1.0, 33.45, 31.4)" width="1.0" xlink:href="#sprite1"/>
    <use ffdec:characterId="632" height="1.0" transform="matrix(1.0, 0.0, 0.0, 1.0, 14.7, 25.15)" width="1.0" xlink:href="#sprite1"/>
    <use ffdec:characterId="632" height="1.0" transform="matrix(1.0, 0.0, 0.0, 1.0, 14.7, 21.65)" width="1.0" xlink:href="#sprite1"/>
    <use ffdec:characterId="632" height="1.0" transform="matrix(1.0, 0.0, 0.0, 1.0, 16.15, 19.4)" width="1.0" xlink:href="#sprite1"/>
    <use ffdec:characterId="632" height="1.0" transform="matrix(0.6, 0.0, 0.0, 0.6, 15.35, 20.15)" width="1.0" xlink:href="#sprite1"/>
    <use ffdec:characterId="632" height="1.0" transform="matrix(1.0, 0.0, 0.0, 1.0, 6.9, 25.75)" width="1.0" xlink:href="#sprite1"/>
    <use ffdec:characterId="632" height="1.0" transform="matrix(1.0, 0.0, 0.0, 1.0, 7.7, 27.15)" width="1.0" xlink:href="#sprite1"/>
    <use ffdec:characterId="632" height="1.0" transform="matrix(1.0, 0.0, 0.0, 1.0, 0.45, 18.6)" width="1.0" xlink:href="#sprite1"/>
    <use ffdec:characterId="632" height="1.0" transform="matrix(1.0, 0.0, 0.0, 1.0, 21.65, 10.15)" width="1.0" xlink:href="#sprite1"/>
    <use ffdec:characterId="632" height="1.0" transform="matrix(1.0, 0.0, 0.0, 1.0, 22.25, 8.0)" width="1.0" xlink:href="#sprite1"/>
    <use ffdec:characterId="632" height="1.0" transform="matrix(1.0, 0.0, 0.0, 1.0, 25.25, -4.65)" width="1.0" xlink:href="#sprite1"/>
    <use ffdec:characterId="632" height="1.0" transform="matrix(1.0, 0.0, 0.0, 1.0, 23.75, -7.1)" width="1.0" xlink:href="#sprite1"/>
    <use ffdec:characterId="632" height="1.0" transform="matrix(1.0, 0.0, 0.0, 1.0, 22.15, -9.9)" width="1.0" xlink:href="#sprite1"/>
    <use ffdec:characterId="632" height="1.0" transform="matrix(0.6, 0.0, 0.0, 0.6, 24.65, -5.5)" width="1.0" xlink:href="#sprite1"/>
    <use ffdec:characterId="632" height="1.0" transform="matrix(0.6, 0.0, 0.0, 0.6, 21.05, -11.6)" width="1.0" xlink:href="#sprite1"/>
    <use ffdec:characterId="632" height="1.0" transform="matrix(0.6, 0.0, 0.0, 0.6, 14.35, -19.9)" width="1.0" xlink:href="#sprite1"/>
    <use ffdec:characterId="632" height="1.0" transform="matrix(0.6, 0.0, 0.0, 0.6, 15.95, -15.65)" width="1.0" xlink:href="#sprite1"/>
    <use ffdec:characterId="632" height="1.0" transform="matrix(0.6, 0.0, 0.0, 0.6, 3.1, -13.15)" width="1.0" xlink:href="#sprite1"/>
    <use ffdec:characterId="632" height="1.0" transform="matrix(0.6, 0.0, 0.0, 0.6, 0.35, -8.9)" width="1.0" xlink:href="#sprite1"/>
    <use ffdec:characterId="632" height="1.0" transform="matrix(0.6, 0.0, 0.0, 0.6, 1.8, -11.0)" width="1.0" xlink:href="#sprite1"/>
    <use ffdec:characterId="632" height="1.0" transform="matrix(0.6, 0.0, 0.0, 0.6, -0.65, -7.25)" width="1.0" xlink:href="#sprite1"/>
    <use ffdec:characterId="632" height="1.0" transform="matrix(1.0, 0.0, 0.0, 1.0, -1.35, -5.9)" width="1.0" xlink:href="#sprite1"/>
    <use ffdec:characterId="632" height="1.0" transform="matrix(1.0, 0.0, 0.0, 1.0, -3.6, -2.4)" width="1.0" xlink:href="#sprite1"/>
    <use ffdec:characterId="632" height="1.0" transform="matrix(0.6, 0.0, 0.0, 0.6, 4.55, 11.55)" width="1.0" xlink:href="#sprite1"/>
    <use ffdec:characterId="632" height="1.0" transform="matrix(0.6, 0.0, 0.0, 0.6, 6.9, 14.15)" width="1.0" xlink:href="#sprite1"/>
    <use ffdec:characterId="632" height="1.0" transform="matrix(1.0, 0.0, 0.0, 1.0, 7.1, 15.05)" width="1.0" xlink:href="#sprite1"/>
    <use ffdec:characterId="632" height="1.0" transform="matrix(0.6, 0.0, 0.0, 0.6, -4.65, 16.95)" width="1.0" xlink:href="#sprite1"/>
    <use ffdec:characterId="632" height="1.0" transform="matrix(1.0, 0.0, 0.0, 1.0, 1.25, 19.15)" width="1.0" xlink:href="#sprite1"/>
    <use ffdec:characterId="632" height="1.0" transform="matrix(0.6, 0.0, 0.0, 0.6, 15.95, -18.6)" width="1.0" xlink:href="#sprite1"/>
    <use ffdec:characterId="630" height="1.0" transform="matrix(1.0, 0.0, 0.0, 1.0, 16.8, -16.8)" width="1.0" xlink:href="#sprite0"/>
    <use ffdec:characterId="630" height="1.0" transform="matrix(0.5, 0.0, 0.0, 0.5, 9.55, -21.8)" width="1.0" xlink:href="#sprite0"/>
    <use ffdec:characterId="630" height="1.0" transform="matrix(0.8, 0.0, 0.0, 0.8, 10.85, -24.0)" width="1.0" xlink:href="#sprite0"/>
    <use ffdec:characterId="630" height="1.0" transform="matrix(1.0, 0.0, 0.0, 1.0, 12.2, -22.05)" width="1.0" xlink:href="#sprite0"/>
    <use ffdec:characterId="630" height="1.0" transform="matrix(0.6, 0.0, 0.0, 0.6, 6.6, -17.15)" width="1.0" xlink:href="#sprite0"/>
    <use ffdec:characterId="632" height="1.0" transform="matrix(1.0, 0.0, 0.0, 1.0, 11.1, -24.75)" width="1.0" xlink:href="#sprite1"/>
    <use ffdec:characterId="632" height="1.0" transform="matrix(0.6, 0.0, 0.0, 0.6, 12.1, -22.9)" width="1.0" xlink:href="#sprite1"/>
    <use ffdec:characterId="632" height="1.0" transform="matrix(0.6, 0.0, 0.0, 0.6, -1.25, 27.8)" width="1.0" xlink:href="#sprite1"/>
    <use ffdec:characterId="632" height="1.0" transform="matrix(0.6, 0.0, 0.0, 0.6, -4.4, 27.8)" width="1.0" xlink:href="#sprite1"/>
    <use ffdec:characterId="633" height="40.55" transform="matrix(0.6464, -0.0371, 0.0345, 0.6013, 3.7595, -11.6821)" width="24.0" xlink:href="#shape3"/>
    <use ffdec:characterId="633" height="40.55" transform="matrix(0.2076, -0.0119, 0.0111, 0.1931, 8.6906, -20.1406)" width="24.0" xlink:href="#shape3"/>
    <use ffdec:characterId="634" height="40.55" transform="matrix(0.2076, -0.0119, 0.0111, 0.1931, 13.1906, -14.3906)" width="24.0" xlink:href="#shape4"/>
    <use ffdec:characterId="635" height="40.55" transform="matrix(0.2076, -0.0119, 0.0111, 0.1931, 16.6906, -9.2406)" width="24.0" xlink:href="#shape5"/>
    <use ffdec:characterId="633" height="40.55" transform="matrix(0.2076, -0.0119, 0.0111, 0.1931, 20.3406, -3.4406)" width="24.0" xlink:href="#shape3"/>
    <use ffdec:characterId="634" height="40.55" transform="matrix(0.2076, -0.0119, 0.0111, 0.1931, 16.9906, 2.1094)" width="24.0" xlink:href="#shape4"/>
    <use ffdec:characterId="635" height="40.55" transform="matrix(0.2076, -0.0119, 0.0111, 0.1931, 14.2406, 7.2594)" width="24.0" xlink:href="#shape5"/>
    <use ffdec:characterId="633" height="40.55" transform="matrix(0.2076, -0.0119, 0.0111, 0.1931, 10.1406, 12.9094)" width="24.0" xlink:href="#shape3"/>
    <use ffdec:characterId="633" height="40.55" transform="matrix(0.2076, -0.0119, 0.0111, 0.1931, -1.2094, -3.5906)" width="24.0" xlink:href="#shape3"/>
    <use ffdec:characterId="635" height="40.55" transform="matrix(0.2076, -0.0119, 0.0111, 0.1931, 2.4406, 2.1094)" width="24.0" xlink:href="#shape5"/>
    <use ffdec:characterId="634" height="40.55" transform="matrix(0.2076, -0.0119, 0.0111, 0.1931, 5.9406, 7.9594)" width="24.0" xlink:href="#shape4"/>
    <use ffdec:characterId="635" height="40.55" transform="matrix(0.2076, -0.0119, 0.0111, 0.1931, 5.3906, -15.4906)" width="24.0" xlink:href="#shape5"/>
    <use ffdec:characterId="634" height="40.55" transform="matrix(0.2076, -0.0119, 0.0111, 0.1931, 2.0406, -9.6906)" width="24.0" xlink:href="#shape4"/>
  </g>
  <defs>
    <g id="shape0" transform="matrix(1.0, 0.0, 0.0, 1.0, 9.15, 26.25)">
      <path d="M13.2 22.35 L-2.0 1.15 Q2.85 -10.65 11.55 -21.8 L26.35 0.9 13.2 22.35" fill="#5f7b98" fill-rule="evenodd" stroke="none"/>
      <path d="M12.7 -18.35 Q19.9 -13.6 30.4 0.65 L21.85 13.75 Q16.65 21.5 16.5 25.35 16.35 29.2 16.95 32.4 L17.95 37.25 Q18.2 37.1 18.35 37.1 17.75 34.9 17.75 32.85 17.7 28.75 20.5 25.9 23.3 23.05 26.5 24.05 29.65 25.05 33.05 29.65 36.4 34.2 39.15 34.2 41.9 34.2 44.1 31.95 45.65 30.35 45.65 28.95 44.85 24.9 42.6 24.9 40.35 24.9 40.1 26.2 L39.65 27.65 Q39.5 27.75 39.05 26.85 38.55 25.9 38.75 24.9 38.9 23.9 40.0 23.2 41.05 22.5 43.7 22.9 46.25 23.3 47.6 27.3 48.95 31.3 45.9 33.75 42.8 36.2 38.85 36.5 34.85 36.75 31.35 32.25 27.85 27.75 24.7 27.55 21.5 27.35 20.5 30.05 19.5 32.7 19.5 35.95 L19.65 37.0 22.1 37.05 Q23.6 37.1 22.15 38.0 L17.0 38.55 Q11.75 38.85 11.7 38.15 L11.55 36.95 Q11.25 34.45 10.55 32.0 9.8 29.5 8.4 29.5 7.0 29.45 6.15 30.6 5.25 31.7 3.85 35.2 2.45 38.65 -0.9 38.4 -4.25 38.1 -5.9 35.45 -7.55 32.8 -7.0 30.45 -6.5 28.1 -3.2 27.2 -0.15 26.8 0.8 29.25 1.75 31.7 0.4 32.35 0.15 31.1 -1.4 30.05 -2.9 29.0 -3.7 29.55 -4.5 30.05 -4.8 31.15 -5.15 32.2 -3.3 34.05 -1.45 35.9 -0.2 35.85 1.05 35.8 3.05 31.05 5.0 26.25 7.6 25.75 10.15 25.2 11.3 28.25 12.4 31.3 12.4 34.85 L12.5 37.35 12.95 37.35 12.65 33.35 Q12.55 29.35 11.65 25.5 10.7 21.65 4.75 13.9 L-5.15 0.8 Q3.55 -14.65 9.1 -17.95 5.4 -13.05 2.0 -6.0 L-1.45 1.2 2.5 7.15 9.4 17.1 Q12.3 21.15 13.2 25.0 14.15 28.85 14.55 34.2 L14.65 37.3 15.9 37.25 15.2 34.05 Q14.35 28.7 14.5 24.85 14.65 21.0 17.1 16.95 L23.55 6.45 26.45 1.55 Q26.45 0.8 21.1 -6.9 15.25 -15.4 12.7 -18.35 M23.6 21.55 Q22.0 22.6 20.5 24.0 18.95 25.4 17.4 28.2 L18.65 23.4 Q19.75 19.25 23.4 17.35 25.65 16.3 28.15 16.15 31.65 15.85 34.7 14.6 37.45 13.45 39.5 11.25 38.95 13.7 37.45 15.75 35.8 18.0 33.0 18.5 L27.75 19.85 Q25.2 20.5 23.6 21.55 M4.7 19.25 Q7.8 20.55 9.55 23.6 L11.5 27.15 Q9.75 25.1 8.3 24.1 L5.45 22.4 Q4.05 21.65 2.05 21.3 L-2.15 20.5 Q-4.35 20.25 -6.05 18.6 -7.6 17.15 -8.5 15.3 -6.85 16.55 -4.45 17.25 L0.4 18.25 Q2.85 18.55 4.7 19.25" fill="#5f7b98" fill-rule="evenodd" stroke="none"/>
      <path d="M11.5 -21.35 Q5.0 -13.6 1.6 -6.55 L-1.85 0.65 2.1 6.6 9.0 16.55 Q11.9 20.6 12.8 24.45 13.75 28.3 14.15 33.65 L14.25 36.75 15.5 36.7 14.8 33.5 Q13.95 28.15 14.1 24.3 14.25 20.45 16.7 16.4 19.15 12.3 23.15 5.9 26.05 1.3 26.1 0.7 26.1 0.1 20.55 -8.15 L11.5 -21.35 M45.5 33.2 Q42.4 35.65 38.45 35.95 34.45 36.2 30.95 31.7 27.45 27.2 24.3 27.0 21.1 26.8 20.1 29.5 19.1 32.15 19.1 35.4 L19.25 36.45 21.7 36.5 Q23.2 36.55 21.75 37.45 L16.6 38.0 11.3 37.6 11.15 36.4 Q10.85 33.9 10.15 31.45 9.4 28.95 8.0 28.95 6.6 28.9 5.75 30.05 4.85 31.15 3.45 34.65 2.05 38.1 -1.3 37.85 -4.65 37.55 -6.3 34.9 -7.95 32.25 -7.4 29.9 -6.9 27.55 -3.6 26.65 -0.55 26.25 0.4 28.7 1.35 31.15 0.0 31.8 -0.25 30.55 -1.8 29.5 -3.3 28.45 -4.1 29.0 -4.9 29.5 -5.2 30.6 -5.55 31.65 -3.7 33.5 -1.85 35.35 -0.6 35.3 0.65 35.25 2.65 30.5 4.6 25.7 7.2 25.2 9.75 24.65 10.9 27.7 12.0 30.75 12.0 34.3 L12.1 36.8 12.55 36.8 12.25 32.8 Q12.15 28.8 11.25 24.95 10.3 21.1 4.35 13.35 L-5.55 0.25 Q2.0 -13.15 11.65 -26.0 20.8 -14.45 30.0 0.1 L21.45 13.2 Q16.25 20.95 16.1 24.8 15.95 28.65 16.55 31.85 L17.55 36.7 Q17.8 36.55 17.95 36.55 17.35 34.35 17.35 32.3 17.3 28.2 20.1 25.35 22.9 22.5 26.1 23.5 29.25 24.5 32.65 29.1 36.0 33.65 38.75 33.65 41.5 33.65 43.7 31.4 45.25 29.8 45.25 28.4 44.45 24.35 42.2 24.35 39.95 24.35 39.7 25.65 L39.25 27.1 Q39.1 27.2 38.65 26.3 38.15 25.35 38.35 24.35 38.5 23.35 39.6 22.65 40.65 21.95 43.3 22.35 45.85 22.75 47.2 26.75 48.55 30.75 45.5 33.2 M23.0 16.8 Q25.25 15.75 27.75 15.6 31.25 15.3 34.3 14.05 37.05 12.9 39.1 10.7 38.55 13.15 37.05 15.2 35.4 17.45 32.6 17.95 L27.35 19.3 Q24.8 19.95 23.2 21.0 21.6 22.05 20.1 23.45 18.55 24.85 17.0 27.65 L18.25 22.85 Q19.35 18.7 23.0 16.8 M5.05 21.85 Q3.65 21.1 1.65 20.75 L-2.55 19.95 Q-4.75 19.7 -6.45 18.05 -8.0 16.6 -8.9 14.75 -7.25 16.0 -4.85 16.7 L0.0 17.7 Q2.45 18.0 4.3 18.7 7.4 20.0 9.15 23.05 L11.1 26.6 Q9.35 24.55 7.9 23.55 L5.05 21.85" fill="url(#gradient0)" fill-rule="evenodd" stroke="none"/>
      <path d="M11.5 -21.35 Q5.0 -13.6 1.6 -6.55 L-1.85 0.65 2.1 6.6 9.0 16.55 Q11.9 20.6 12.8 24.45 13.75 28.3 14.15 33.65 L14.25 36.75 15.5 36.7 14.8 33.5 Q13.95 28.15 14.1 24.3 14.25 20.45 16.7 16.4 19.15 12.3 23.15 5.9 26.05 1.3 26.1 0.7 26.1 0.1 20.55 -8.15 L11.5 -21.35 M45.5 33.2 Q42.4 35.65 38.45 35.95 34.45 36.2 30.95 31.7 27.45 27.2 24.3 27.0 21.1 26.8 20.1 29.5 19.1 32.15 19.1 35.4 L19.25 36.45 21.7 36.5 Q23.2 36.55 21.75 37.45 L16.6 38.0 11.3 37.6 11.15 36.4 Q10.85 33.9 10.15 31.45 9.4 28.95 8.0 28.95 6.6 28.9 5.75 30.05 4.85 31.15 3.45 34.65 2.05 38.1 -1.3 37.85 -4.65 37.55 -6.3 34.9 -7.95 32.25 -7.4 29.9 -6.9 27.55 -3.6 26.65 -0.55 26.25 0.4 28.7 1.35 31.15 0.0 31.8 -0.25 30.55 -1.8 29.5 -3.3 28.45 -4.1 29.0 -4.9 29.5 -5.2 30.6 -5.55 31.65 -3.7 33.5 -1.85 35.35 -0.6 35.3 0.65 35.25 2.65 30.5 4.6 25.7 7.2 25.2 9.75 24.65 10.9 27.7 12.0 30.75 12.0 34.3 L12.1 36.8 12.55 36.8 12.25 32.8 Q12.15 28.8 11.25 24.95 10.3 21.1 4.35 13.35 L-5.55 0.25 Q2.0 -13.15 11.65 -26.0 20.8 -14.45 30.0 0.1 L21.45 13.2 Q16.25 20.95 16.1 24.8 15.95 28.65 16.55 31.85 L17.55 36.7 Q17.8 36.55 17.95 36.55 17.35 34.35 17.35 32.3 17.3 28.2 20.1 25.35 22.9 22.5 26.1 23.5 29.25 24.5 32.65 29.1 36.0 33.65 38.75 33.65 41.5 33.65 43.7 31.4 45.25 29.8 45.25 28.4 44.45 24.35 42.2 24.35 39.95 24.35 39.7 25.65 L39.25 27.1 Q39.1 27.2 38.65 26.3 38.15 25.35 38.35 24.35 38.5 23.35 39.6 22.65 40.65 21.95 43.3 22.35 45.85 22.75 47.2 26.75 48.55 30.75 45.5 33.2 M23.0 16.8 Q19.35 18.7 18.25 22.85 L17.0 27.65 Q18.55 24.85 20.1 23.45 21.6 22.05 23.2 21.0 24.8 19.95 27.35 19.3 L32.6 17.95 Q35.4 17.45 37.05 15.2 38.55 13.15 39.1 10.7 37.05 12.9 34.3 14.05 31.25 15.3 27.75 15.6 25.25 15.75 23.0 16.8 M5.05 21.85 Q3.65 21.1 1.65 20.75 L-2.55 19.95 Q-4.75 19.7 -6.45 18.05 -8.0 16.6 -8.9 14.75 -7.25 16.0 -4.85 16.7 L0.0 17.7 Q2.45 18.0 4.3 18.7 7.4 20.0 9.15 23.05 L11.1 26.6 Q9.35 24.55 7.9 23.55 L5.05 21.85 Z" ffdec:has-small-stroke="true" ffdec:original-stroke-width="0.5" fill="none" stroke="#d3dfe7" stroke-linecap="round" stroke-linejoin="round" stroke-width="1.0"/>
    </g>
    <linearGradient gradientTransform="matrix(0.0205, -0.009, 0.014, 0.0318, 14.75, 12.55)" gradientUnits="userSpaceOnUse" id="gradient0" spreadMethod="pad" x1="-819.2" x2="819.2">
      <stop offset="0.0" stop-color="#a7becc"/>
      <stop offset="0.33725490196078434" stop-color="#d5e0e8"/>
      <stop offset="0.5411764705882353" stop-color="#ffffff"/>
      <stop offset="0.6274509803921569" stop-color="#e3ecf0"/>
      <stop offset="0.8" stop-color="#d3dfe7"/>
      <stop offset="1.0" stop-color="#a4bbca"/>
    </linearGradient>
    <g id="sprite0" transform="matrix(1.0, 0.0, 0.0, 1.0, 0.0, 0.0)">
      <use ffdec:characterId="629" height="1.0" transform="matrix(1.0, 0.0, 0.0, 1.0, 0.0, 0.0)" width="1.0" xlink:href="#shape1"/>
    </g>
    <g id="shape1" transform="matrix(1.0, 0.0, 0.0, 1.0, 0.0, 0.0)">
      <path d="M0.0 0.05 L1.0 0.0 1.0 0.95 0.0 1.0 0.0 0.05" fill="#b0c4d0" fill-rule="evenodd" stroke="none"/>
    </g>
    <g id="sprite1" transform="matrix(1.0, 0.0, 0.0, 1.0, 0.0, 0.0)">
      <use ffdec:characterId="631" height="3000.0" transform="matrix(6.0E-4, 0.0, 0.0, 3.0E-4, 0.0023, -0.0082)" width="1675.0" xlink:href="#shape2"/>
    </g>
    <g id="shape2" transform="matrix(1.0, 0.0, 0.0, 1.0, -3.85, 24.4)">
      <path d="M1678.85 2975.6 L3.85 2975.6 3.85 -24.4 1678.85 -24.4 1678.85 2975.6" fill="#ffffff" fill-rule="evenodd" stroke="none"/>
    </g>
    <g id="shape3" transform="matrix(1.0, 0.0, 0.0, 1.0, 0.5, 0.5)">
      <path d="M0.0 18.95 L14.1 18.95 11.05 39.55 0.0 18.95" fill="url(#gradient1)" fill-rule="evenodd" stroke="none"/>
      <path d="M14.1 18.95 L23.0 20.6 11.05 39.55 14.1 18.95" fill="url(#gradient2)" fill-rule="evenodd" stroke="none"/>
      <path d="M14.1 18.95 L11.95 0.0 23.0 20.6 14.1 18.95" fill="url(#gradient3)" fill-rule="evenodd" stroke="none"/>
      <path d="M11.95 0.0 L14.1 18.95 0.0 18.95 11.95 0.0" fill="url(#gradient4)" fill-rule="evenodd" stroke="none"/>
      <path d="M11.05 39.55 L8.25 20.6 23.0 20.6 11.05 39.55" fill="#99ffff" fill-opacity="0.7019608" fill-rule="evenodd" stroke="none"/>
      <path d="M8.25 20.6 L0.0 18.95 11.95 0.0 8.25 20.6" fill="#99ffff" fill-opacity="0.6" fill-rule="evenodd" stroke="none"/>
      <path d="M0.0 18.95 L8.25 20.6 11.05 39.55 0.0 18.95" fill="url(#gradient5)" fill-rule="evenodd" stroke="none"/>
      <path d="M8.25 20.6 L11.95 0.0 23.0 20.6 8.25 20.6" fill="url(#gradient6)" fill-rule="evenodd" stroke="none"/>
      <path d="M8.2 21.35 L7.5 21.05 7.25 20.4 Q7.25 20.0 7.5 19.7 7.8 19.45 8.2 19.45 L8.85 19.7 9.15 20.4 8.85 21.05 8.2 21.35 M10.65 20.95 L10.5 20.6 10.65 20.25 Q10.8 20.1 11.0 20.1 L18.4 20.1 18.75 20.25 18.9 20.6 18.75 20.95 18.4 21.1 11.0 21.1 10.65 20.95 M8.1 23.1 L8.2 22.7 Q8.3 22.55 8.55 22.5 L8.9 22.6 9.1 22.95 10.7 33.9 10.6 34.25 10.3 34.45 9.9 34.35 9.7 34.05 8.1 23.1" fill="#ffffff" fill-rule="evenodd" stroke="none"/>
      <path d="M11.55 -0.25 L11.8 -0.45 12.15 -0.45 12.4 -0.2 23.45 20.4 23.5 20.65 23.45 20.9 11.5 39.85 11.2 40.05 10.9 40.05 10.6 39.8 -0.45 19.2 -0.5 18.95 -0.4 18.7 11.55 -0.25 M11.95 1.0 L0.6 19.0 11.1 38.55 22.45 20.6 11.95 1.0" fill="url(#gradient7)" fill-rule="evenodd" stroke="none"/>
    </g>
    <linearGradient gradientTransform="matrix(-0.0038, 0.0022, -0.0072, -0.0123, 8.25, 27.65)" gradientUnits="userSpaceOnUse" id="gradient1" spreadMethod="pad" x1="-819.2" x2="819.2">
      <stop offset="0.00784313725490196" stop-color="#ffffff"/>
      <stop offset="1.0" stop-color="#00a9fb"/>
    </linearGradient>
    <linearGradient gradientTransform="matrix(0.0093, -0.0093, 0.0066, 0.0066, 12.75, 27.9)" gradientUnits="userSpaceOnUse" id="gradient2" spreadMethod="pad" x1="-819.2" x2="819.2">
      <stop offset="0.00784313725490196" stop-color="#ffffff"/>
      <stop offset="1.0" stop-color="#00a9fb"/>
    </linearGradient>
    <linearGradient gradientTransform="matrix(0.0033, -0.0123, 0.0094, 0.0025, 16.95, 12.1)" gradientUnits="userSpaceOnUse" id="gradient3" spreadMethod="pad" x1="-819.2" x2="819.2">
      <stop offset="0.00784313725490196" stop-color="#ffffff"/>
      <stop offset="1.0" stop-color="#00a9fb"/>
    </linearGradient>
    <linearGradient gradientTransform="matrix(0.0052, 0.0052, -0.0094, 0.0094, 8.45, 11.95)" gradientUnits="userSpaceOnUse" id="gradient4" spreadMethod="pad" x1="-819.2" x2="819.2">
      <stop offset="0.00784313725490196" stop-color="#ffffff"/>
      <stop offset="1.0" stop-color="#00a9fb"/>
    </linearGradient>
    <linearGradient gradientTransform="matrix(0.0049, -0.0049, 0.0096, 0.0096, 7.15, 27.55)" gradientUnits="userSpaceOnUse" id="gradient5" spreadMethod="pad" x1="-819.2" x2="819.2">
      <stop offset="0.00784313725490196" stop-color="#ffffff"/>
      <stop offset="1.0" stop-color="#00a9fb" stop-opacity="0.6"/>
    </linearGradient>
    <linearGradient gradientTransform="matrix(0.0169, -0.0066, 0.0045, 0.0117, 21.6, 7.8)" gradientUnits="userSpaceOnUse" id="gradient6" spreadMethod="pad" x1="-819.2" x2="819.2">
      <stop offset="0.00784313725490196" stop-color="#ffffff"/>
      <stop offset="0.3764705882352941" stop-color="#f8fafb" stop-opacity="0.80784315"/>
      <stop offset="1.0" stop-color="#e3ecf0" stop-opacity="0.3019608"/>
    </linearGradient>
    <linearGradient gradientTransform="matrix(0.013, 0.0105, -0.0092, 0.0113, 11.55, 18.75)" gradientUnits="userSpaceOnUse" id="gradient7" spreadMethod="pad" x1="-819.2" x2="819.2">
      <stop offset="0.0" stop-color="#ffffff"/>
      <stop offset="1.0" stop-color="#62cafc"/>
    </linearGradient>
    <g id="shape4" transform="matrix(1.0, 0.0, 0.0, 1.0, 0.5, 0.5)">
      <path d="M14.1 18.95 L23.0 20.6 11.05 39.55 14.1 18.95" fill="url(#gradient8)" fill-rule="evenodd" stroke="none"/>
      <path d="M0.0 18.95 L14.1 18.95 11.05 39.55 0.0 18.95" fill="url(#gradient9)" fill-rule="evenodd" stroke="none"/>
      <path d="M11.95 0.0 L14.1 18.95 0.0 18.95 11.95 0.0" fill="url(#gradient10)" fill-rule="evenodd" stroke="none"/>
      <path d="M14.1 18.95 L11.95 0.0 23.0 20.6 14.1 18.95" fill="url(#gradient11)" fill-rule="evenodd" stroke="none"/>
      <path d="M11.95 0.0 L23.0 20.6 8.25 20.6 11.95 0.0" fill="url(#gradient12)" fill-rule="evenodd" stroke="none"/>
      <path d="M11.05 39.55 L0.0 18.95 8.25 20.6 11.05 39.55" fill="url(#gradient13)" fill-rule="evenodd" stroke="none"/>
      <path d="M11.95 0.0 L8.25 20.6 23.0 20.6 11.05 39.55 8.25 20.6 0.0 18.95 11.95 0.0" fill="#fc3f3f" fill-opacity="0.6" fill-rule="evenodd" stroke="none"/>
      <path d="M8.2 21.35 L7.5 21.05 7.25 20.4 Q7.25 20.0 7.5 19.7 7.8 19.45 8.2 19.45 L8.85 19.7 9.15 20.4 8.85 21.05 8.2 21.35 M10.65 20.95 L10.5 20.6 10.65 20.25 Q10.8 20.1 11.0 20.1 L18.4 20.1 18.75 20.25 18.9 20.6 18.75 20.95 18.4 21.1 11.0 21.1 10.65 20.95 M8.1 23.1 L8.2 22.7 Q8.3 22.55 8.55 22.5 L8.9 22.6 9.1 22.95 10.7 33.9 10.6 34.25 10.3 34.45 9.9 34.35 9.7 34.05 8.1 23.1" fill="#ffffff" fill-rule="evenodd" stroke="none"/>
      <path d="M12.15 -0.45 L12.4 -0.2 23.45 20.4 23.5 20.65 23.45 20.9 11.5 39.85 11.2 40.05 10.9 40.05 10.6 39.8 -0.45 19.2 -0.5 18.95 -0.4 18.7 11.55 -0.25 11.8 -0.45 12.15 -0.45 M11.95 1.0 L0.6 19.0 11.1 38.55 22.45 20.6 11.95 1.0" fill="url(#gradient14)" fill-rule="evenodd" stroke="none"/>
    </g>
    <linearGradient gradientTransform="matrix(0.0093, -0.0093, 0.0066, 0.0066, 12.75, 27.9)" gradientUnits="userSpaceOnUse" id="gradient8" spreadMethod="pad" x1="-819.2" x2="819.2">
      <stop offset="0.00784313725490196" stop-color="#ffffff"/>
      <stop offset="1.0" stop-color="#ee0000"/>
    </linearGradient>
    <linearGradient gradientTransform="matrix(-0.0038, 0.0022, -0.0072, -0.0123, 8.25, 27.65)" gradientUnits="userSpaceOnUse" id="gradient9" spreadMethod="pad" x1="-819.2" x2="819.2">
      <stop offset="0.00784313725490196" stop-color="#ffffff"/>
      <stop offset="1.0" stop-color="#ee0000"/>
    </linearGradient>
    <linearGradient gradientTransform="matrix(0.0052, 0.0052, -0.0094, 0.0094, 8.45, 11.95)" gradientUnits="userSpaceOnUse" id="gradient10" spreadMethod="pad" x1="-819.2" x2="819.2">
      <stop offset="0.00784313725490196" stop-color="#ffffff"/>
      <stop offset="1.0" stop-color="#ee0000"/>
    </linearGradient>
    <linearGradient gradientTransform="matrix(0.0033, -0.0123, 0.0094, 0.0025, 16.95, 12.1)" gradientUnits="userSpaceOnUse" id="gradient11" spreadMethod="pad" x1="-819.2" x2="819.2">
      <stop offset="0.00784313725490196" stop-color="#ffffff"/>
      <stop offset="1.0" stop-color="#ee0000"/>
    </linearGradient>
    <linearGradient gradientTransform="matrix(0.0169, -0.0066, 0.0045, 0.0117, 21.6, 7.8)" gradientUnits="userSpaceOnUse" id="gradient12" spreadMethod="pad" x1="-819.2" x2="819.2">
      <stop offset="0.00784313725490196" stop-color="#ffffff"/>
      <stop offset="0.3764705882352941" stop-color="#f8fafb" stop-opacity="0.80784315"/>
      <stop offset="1.0" stop-color="#e3ecf0" stop-opacity="0.3019608"/>
    </linearGradient>
    <linearGradient gradientTransform="matrix(0.0049, -0.0049, 0.0096, 0.0096, 7.15, 27.55)" gradientUnits="userSpaceOnUse" id="gradient13" spreadMethod="pad" x1="-819.2" x2="819.2">
      <stop offset="0.00784313725490196" stop-color="#ffffff"/>
      <stop offset="1.0" stop-color="#d20202" stop-opacity="0.6"/>
    </linearGradient>
    <linearGradient gradientTransform="matrix(0.013, 0.0105, -0.0092, 0.0113, 11.55, 18.75)" gradientUnits="userSpaceOnUse" id="gradient14" spreadMethod="pad" x1="-819.2" x2="819.2">
      <stop offset="0.0" stop-color="#ffffff"/>
      <stop offset="1.0" stop-color="#ff5e5e"/>
    </linearGradient>
    <g id="shape5" transform="matrix(1.0, 0.0, 0.0, 1.0, 0.5, 0.5)">
      <path d="M0.0 18.95 L14.1 18.95 11.05 39.55 0.0 18.95" fill="url(#gradient15)" fill-rule="evenodd" stroke="none"/>
      <path d="M14.1 18.95 L23.0 20.6 11.05 39.55 14.1 18.95" fill="url(#gradient16)" fill-rule="evenodd" stroke="none"/>
      <path d="M14.1 18.95 L11.95 0.0 23.0 20.6 14.1 18.95" fill="url(#gradient17)" fill-rule="evenodd" stroke="none"/>
      <path d="M11.95 0.0 L14.1 18.95 0.0 18.95 11.95 0.0" fill="url(#gradient18)" fill-rule="evenodd" stroke="none"/>
      <path d="M8.25 20.6 L11.95 0.0 23.0 20.6 8.25 20.6" fill="url(#gradient19)" fill-rule="evenodd" stroke="none"/>
      <path d="M0.0 18.95 L8.25 20.6 11.05 39.55 0.0 18.95" fill="url(#gradient20)" fill-rule="evenodd" stroke="none"/>
      <path d="M8.25 20.6 L0.0 18.95 11.95 0.0 8.25 20.6" fill="#7a24fc" fill-opacity="0.6" fill-rule="evenodd" stroke="none"/>
      <path d="M11.05 39.55 L8.25 20.6 23.0 20.6 11.05 39.55" fill="#b17ffd" fill-opacity="0.6" fill-rule="evenodd" stroke="none"/>
      <path d="M8.2 21.35 L7.5 21.05 7.25 20.4 Q7.25 20.0 7.5 19.7 7.8 19.45 8.2 19.45 L8.85 19.7 9.15 20.4 8.85 21.05 8.2 21.35 M10.65 20.95 L10.5 20.6 10.65 20.25 Q10.8 20.1 11.0 20.1 L18.4 20.1 18.75 20.25 18.9 20.6 18.75 20.95 18.4 21.1 11.0 21.1 10.65 20.95 M8.1 23.1 L8.2 22.7 Q8.3 22.55 8.55 22.5 L8.9 22.6 9.1 22.95 10.7 33.9 10.6 34.25 10.3 34.45 9.9 34.35 9.7 34.05 8.1 23.1" fill="#ffffff" fill-rule="evenodd" stroke="none"/>
      <path d="M11.55 -0.25 L11.8 -0.45 12.15 -0.45 12.4 -0.2 23.45 20.4 23.5 20.65 23.45 20.9 11.5 39.85 11.2 40.05 10.9 40.05 10.6 39.8 -0.45 19.2 -0.5 18.95 -0.4 18.7 11.55 -0.25 M11.95 1.0 L0.6 19.0 11.1 38.55 22.45 20.6 11.95 1.0" fill="url(#gradient21)" fill-rule="evenodd" stroke="none"/>
    </g>
    <linearGradient gradientTransform="matrix(-0.0038, 0.0022, -0.0072, -0.0123, 8.25, 27.65)" gradientUnits="userSpaceOnUse" id="gradient15" spreadMethod="pad" x1="-819.2" x2="819.2">
      <stop offset="0.00784313725490196" stop-color="#ffffff"/>
      <stop offset="1.0" stop-color="#00a9fb"/>
    </linearGradient>
    <linearGradient gradientTransform="matrix(0.0093, -0.0093, 0.0066, 0.0066, 12.75, 27.9)" gradientUnits="userSpaceOnUse" id="gradient16" spreadMethod="pad" x1="-819.2" x2="819.2">
      <stop offset="0.00784313725490196" stop-color="#ffffff"/>
      <stop offset="1.0" stop-color="#00a9fb"/>
    </linearGradient>
    <linearGradient gradientTransform="matrix(0.0033, -0.0123, 0.0094, 0.0025, 16.95, 12.1)" gradientUnits="userSpaceOnUse" id="gradient17" spreadMethod="pad" x1="-819.2" x2="819.2">
      <stop offset="0.00784313725490196" stop-color="#ffffff"/>
      <stop offset="1.0" stop-color="#00a9fb"/>
    </linearGradient>
    <linearGradient gradientTransform="matrix(0.0052, 0.0052, -0.0094, 0.0094, 8.45, 11.95)" gradientUnits="userSpaceOnUse" id="gradient18" spreadMethod="pad" x1="-819.2" x2="819.2">
      <stop offset="0.00784313725490196" stop-color="#ffffff"/>
      <stop offset="1.0" stop-color="#00a9fb"/>
    </linearGradient>
    <linearGradient gradientTransform="matrix(0.0169, -0.0066, 0.0045, 0.0117, 21.6, 7.8)" gradientUnits="userSpaceOnUse" id="gradient19" spreadMethod="pad" x1="-819.2" x2="819.2">
      <stop offset="0.00784313725490196" stop-color="#ffffff"/>
      <stop offset="0.3764705882352941" stop-color="#f8fafb" stop-opacity="0.80784315"/>
      <stop offset="1.0" stop-color="#e3ecf0" stop-opacity="0.3019608"/>
    </linearGradient>
    <linearGradient gradientTransform="matrix(0.0049, -0.0049, 0.0096, 0.0096, 7.15, 27.55)" gradientUnits="userSpaceOnUse" id="gradient20" spreadMethod="pad" x1="-819.2" x2="819.2">
      <stop offset="0.00784313725490196" stop-color="#ffffff"/>
      <stop offset="1.0" stop-color="#4900f7" stop-opacity="0.6"/>
    </linearGradient>
    <linearGradient gradientTransform="matrix(0.013, 0.0105, -0.0092, 0.0113, 11.55, 18.75)" gradientUnits="userSpaceOnUse" id="gradient21" spreadMethod="pad" x1="-819.2" x2="819.2">
      <stop offset="0.0" stop-color="#ffffff"/>
      <stop offset="1.0" stop-color="#802bff"/>
    </linearGradient>
  </defs>
</svg>
