<?xml version="1.0" encoding="UTF-8" standalone="no"?>
<svg xmlns:ffdec="https://www.free-decompiler.com/flash" xmlns:xlink="http://www.w3.org/1999/xlink" ffdec:objectType="frame" height="106.45px" width="141.9px" xmlns="http://www.w3.org/2000/svg">
  <g transform="matrix(1.0, 0.0, 0.0, 1.0, -4.05, -2.95)">
    <use ffdec:characterId="1932" height="106.45" transform="matrix(1.0, 0.0, 0.0, 1.0, 4.05, 2.95)" width="141.9" xlink:href="#shape0"/>
    <use ffdec:characterId="1934" height="14.9" transform="matrix(1.0, 0.0, 0.0, 1.0, 94.25, 54.85)" width="44.65" xlink:href="#sprite0"/>
    <use ffdec:characterId="1935" height="103.45" transform="matrix(1.0, 0.0, 0.0, 1.0, 5.55, 4.45)" width="127.7" xlink:href="#shape2"/>
    <use ffdec:characterId="1937" height="29.55" transform="matrix(1.0, 0.0, 0.0, 1.0, 14.95, 12.25)" width="65.85" xlink:href="#sprite1"/>
    <use ffdec:characterId="1938" height="10.05" transform="matrix(1.0, 0.0, 0.0, 1.0, 130.5, 58.85)" width="7.3" xlink:href="#shape4"/>
    <use ffdec:characterId="1940" height="10.05" transform="matrix(1.0, 0.0, 0.0, 1.0, 104.05, 55.8)" width="7.7" xlink:href="#sprite2"/>
    <use ffdec:characterId="1940" height="10.05" transform="matrix(1.0, 0.0, 0.0, 1.0, 117.75, 57.45)" width="7.7" xlink:href="#sprite2"/>
    <use ffdec:characterId="1942" height="36.25" transform="matrix(1.0, 0.0, 0.0, 1.0, 54.2, 72.65)" width="36.35" xlink:href="#sprite3"/>
    <use ffdec:characterId="1943" height="68.4" transform="matrix(1.0, 0.0, 0.0, 1.0, 11.8, 10.35)" width="131.95" xlink:href="#shape7"/>
  </g>
  <defs>
    <g id="shape0" transform="matrix(1.0, 0.0, 0.0, 1.0, -4.05, -2.95)">
      <path d="M89.65 26.55 Q99.55 23.75 109.15 20.2 L113.65 26.7 121.7 28.25 Q120.4 38.55 120.25 49.25 L120.25 52.9 Q120.2 57.75 120.45 62.65 106.25 67.45 92.4 72.85 87.95 74.55 83.55 76.35 M89.65 26.55 L87.85 27.05 71.15 31.0" fill="none" stroke="#7e0c57" stroke-linecap="round" stroke-linejoin="round" stroke-width="3.0"/>
      <path d="M65.45 15.75 Q55.75 10.35 46.95 4.45 L31.8 11.55 5.55 11.15 M92.55 94.75 L92.5 91.9 92.4 72.85 92.55 63.0 M89.6 27.8 L93.95 29.7 M87.85 27.05 L89.6 27.8 M65.45 15.75 Q76.1 21.7 87.85 27.05" fill="none" stroke="#c96300" stroke-linecap="round" stroke-linejoin="round" stroke-width="3.0"/>
      <path d="M92.5 91.9 L89.45 91.5 M120.25 52.9 L144.45 55.3 142.25 82.55 M94.45 92.15 L92.5 91.9 M120.25 52.9 L101.4 51.05" fill="none" stroke="#6f2aa6" stroke-linecap="round" stroke-linejoin="round" stroke-width="3.0"/>
      <path d="M107.0 93.5 L106.95 93.5 106.95 93.55 106.25 94.6 103.9 94.25 104.25 86.5 M98.4 85.8 L98.2 91.3 96.55 93.25 94.45 92.95 94.45 92.15" fill="none" stroke="#b14400" stroke-linecap="round" stroke-linejoin="round" stroke-width="3.0"/>
      <path d="M104.25 86.5 L98.4 85.8" fill="none" stroke="#1d092e" stroke-linecap="round" stroke-linejoin="round" stroke-width="3.0"/>
      <path d="M7.9 22.55 Q23.2 33.75 37.55 47.0 L44.1 53.2 46.65 72.85 Q29.7 55.45 11.35 42.25 9.8 32.3 7.9 22.55" fill="none" stroke="#d28a00" stroke-linecap="round" stroke-linejoin="round" stroke-width="3.0"/>
      <path d="M5.55 11.15 L7.9 22.55 M11.35 42.25 Q13.75 57.85 15.3 73.95 35.4 90.9 51.25 107.9 74.2 99.5 92.55 94.75" fill="none" stroke="#b85b00" stroke-linecap="round" stroke-linejoin="round" stroke-width="3.0"/>
      <path d="M142.25 82.55 L135.15 83.35 134.1 97.3 M101.4 51.05 L101.25 57.6" fill="none" stroke="#602093" stroke-linecap="round" stroke-linejoin="round" stroke-width="3.0"/>
      <path d="M134.1 97.3 L107.0 93.5" fill="none" stroke="#571a87" stroke-linecap="round" stroke-linejoin="round" stroke-width="3.0"/>
      <path d="M89.6 27.8 L89.05 46.25 67.5 63.25 67.7 32.35 48.3 24.05 65.45 15.75 72.2 12.5 89.9 19.25 89.65 26.55 89.6 27.8 Z" fill="none" stroke="#7e0f0f" stroke-linecap="round" stroke-linejoin="round" stroke-width="3.0"/>
      <path d="M89.9 19.25 L89.05 46.25 67.5 63.25 67.7 32.35 72.8 29.35 89.9 19.25" fill="#e62f2f" fill-rule="evenodd" stroke="none"/>
      <path d="M67.7 32.35 L48.3 24.05 72.2 12.5 72.8 29.35 67.7 32.35" fill="#b81616" fill-rule="evenodd" stroke="none"/>
      <path d="M72.2 12.5 L89.9 19.25 72.8 29.35 72.2 12.5" fill="#8e1111" fill-rule="evenodd" stroke="none"/>
      <path d="M83.85 40.3 Q84.1 58.25 83.55 76.2 L82.0 66.35 82.5 35.8 83.85 40.3" fill="#8c105a" fill-rule="evenodd" stroke="none"/>
      <path d="M82.5 35.8 L82.0 66.35 71.25 63.3 71.2 63.25 Q71.95 47.3 71.15 31.0 L82.5 35.8" fill="#a6186c" fill-rule="evenodd" stroke="none"/>
      <path d="M83.55 76.2 L83.55 76.35 71.25 63.3 82.0 66.35 83.55 76.2" fill="#b81c79" fill-rule="evenodd" stroke="none"/>
      <path d="M108.85 31.85 L98.55 35.05 Q91.3 37.45 84.35 40.1 L83.85 40.3 82.5 35.8 71.15 31.0 Q90.65 27.05 109.15 20.2 L108.85 31.85" fill="url(#gradient0)" fill-rule="evenodd" stroke="none"/>
      <path d="M113.45 30.5 L108.85 31.85 109.15 20.2 113.65 26.7 113.45 30.5" fill="#7e0c57" fill-rule="evenodd" stroke="none"/>
      <path d="M121.7 28.25 L113.45 30.5 113.65 26.7 121.7 28.25" fill="#8a1060" fill-rule="evenodd" stroke="none"/>
      <path d="M120.25 49.25 L117.45 51.45 Q113.85 53.8 109.95 54.85 106.05 55.9 101.1 54.4 96.1 52.85 96.8 45.4 97.5 37.95 98.55 35.05 L108.85 31.85 113.45 30.5 121.7 28.25 Q120.4 38.55 120.25 49.25" fill="url(#gradient1)" fill-rule="evenodd" stroke="none"/>
      <path d="M98.55 35.05 Q97.5 37.95 96.8 45.4 96.1 52.85 101.1 54.4 106.05 55.9 109.95 54.85 113.85 53.8 117.45 51.45 L120.25 49.25 Q120.15 55.9 120.45 62.65 101.7 69.0 83.55 76.35 L83.55 76.2 Q84.1 58.25 83.85 40.3 L84.35 40.1 Q91.3 37.45 98.55 35.05" fill="#bf2872" fill-rule="evenodd" stroke="none"/>
      <path d="M100.35 66.45 L121.2 68.45 121.3 68.5 134.05 69.75 136.15 69.95 135.15 83.35 134.7 89.3 130.55 90.7 Q126.2 91.8 120.75 91.8 112.65 91.8 107.55 90.05 L108.1 76.1 97.55 74.85 97.5 73.55 Q97.5 71.95 98.1 68.35 L98.5 66.25 100.35 66.45" fill="url(#gradient2)" fill-rule="evenodd" stroke="none"/>
      <path d="M98.5 66.25 L98.1 68.35 Q97.5 71.95 97.5 73.55 L97.55 74.85 95.75 74.65 94.6 76.0 94.45 92.15 89.45 91.5 89.9 65.4 98.5 66.25 M107.55 90.05 Q112.65 91.8 120.75 91.8 126.2 91.8 130.55 90.7 L134.7 89.3 134.1 97.3 107.0 93.5 107.45 92.8 107.55 90.05" fill="#722ba8" fill-rule="evenodd" stroke="none"/>
      <path d="M134.65 61.5 L144.45 55.3 142.25 82.55 135.15 83.35 136.15 69.95 134.65 61.5" fill="url(#gradient3)" fill-rule="evenodd" stroke="none"/>
      <path d="M134.05 69.75 L134.65 61.5 136.15 69.95 134.05 69.75" fill="#5a1b8c" fill-rule="evenodd" stroke="none"/>
      <path d="M134.05 69.75 L121.3 68.5 121.2 68.45 100.35 66.45 101.25 57.6 101.4 51.05 144.45 55.3 134.65 61.5 134.05 69.75" fill="url(#gradient4)" fill-rule="evenodd" stroke="none"/>
      <path d="M101.25 57.6 L100.35 66.45 98.5 66.25 89.9 65.4 101.25 57.6" fill="url(#gradient5)" fill-rule="evenodd" stroke="none"/>
      <path d="M96.55 93.25 L96.85 78.8 98.55 79.05 98.4 85.8 98.2 91.3 96.55 93.25" fill="url(#gradient6)" fill-rule="evenodd" stroke="none"/>
      <path d="M94.6 76.0 L107.2 77.5 106.25 94.6 103.9 94.25 104.25 86.5 104.6 79.75 98.55 79.05 96.85 78.8 96.55 93.25 94.45 92.95 94.45 92.15 94.6 76.0" fill="#ffae00" fill-rule="evenodd" stroke="none"/>
      <path d="M97.55 74.85 L108.1 76.1 107.2 77.5 94.6 76.0 95.75 74.65 97.55 74.85" fill="#ffe35f" fill-rule="evenodd" stroke="none"/>
      <path d="M98.4 85.8 L98.55 79.05 104.6 79.75 104.25 86.5 98.4 85.8" fill="url(#gradient7)" fill-rule="evenodd" stroke="none"/>
      <path d="M108.1 76.1 L107.55 90.05 107.45 92.8 107.0 93.5 106.95 93.5 106.95 93.55 106.25 94.6 107.2 77.5 108.1 76.1 M97.75 93.45 L97.95 93.45 97.75 93.7 97.75 93.45" fill="#e37801" fill-rule="evenodd" stroke="none"/>
      <path d="M89.45 91.5 L89.9 65.4" fill="none" stroke="#6f2aa6" stroke-linecap="round" stroke-linejoin="round" stroke-width="1.0"/>
    </g>
    <radialGradient cx="0" cy="0" gradientTransform="matrix(0.0295, -0.0079, 0.0039, 0.0147, 91.0, 26.25)" gradientUnits="userSpaceOnUse" id="gradient0" r="819.2" spreadMethod="pad">
      <stop offset="0.2901960784313726" stop-color="#c23178"/>
      <stop offset="1.0" stop-color="#932058"/>
    </radialGradient>
    <radialGradient cx="0" cy="0" gradientTransform="matrix(0.0305, 0.0, 0.0, 0.0328, 112.75, 33.25)" gradientUnits="userSpaceOnUse" id="gradient1" r="819.2" spreadMethod="pad">
      <stop offset="0.4117647058823529" stop-color="#e34291"/>
      <stop offset="1.0" stop-color="#cd2f7d"/>
    </radialGradient>
    <radialGradient cx="0" cy="0" gradientTransform="matrix(0.0368, 0.0, 0.0, 0.0295, 123.75, 69.35)" gradientUnits="userSpaceOnUse" id="gradient2" r="819.2" spreadMethod="pad">
      <stop offset="0.23137254901960785" stop-color="#8e44c9"/>
      <stop offset="0.9921568627450981" stop-color="#7c34b4"/>
    </radialGradient>
    <radialGradient cx="0" cy="0" gradientTransform="matrix(0.0115, 0.0, 0.0, 0.0229, 140.75, 63.75)" gradientUnits="userSpaceOnUse" id="gradient3" r="819.2" spreadMethod="pad">
      <stop offset="0.21568627450980393" stop-color="#9c57d5"/>
      <stop offset="0.9921568627450981" stop-color="#8742bf"/>
    </radialGradient>
    <radialGradient cx="0" cy="0" gradientTransform="matrix(0.0294, 0.003, -8.0E-4, 0.008, 123.85, 53.85)" gradientUnits="userSpaceOnUse" id="gradient4" r="819.2" spreadMethod="pad">
      <stop offset="0.4117647058823529" stop-color="#4a1669"/>
      <stop offset="1.0" stop-color="#350c4d"/>
    </radialGradient>
    <radialGradient cx="0" cy="0" gradientTransform="matrix(0.0072, -0.0042, 0.0027, 0.0046, 97.35, 60.7)" gradientUnits="userSpaceOnUse" id="gradient5" r="819.2" spreadMethod="pad">
      <stop offset="0.4117647058823529" stop-color="#6f2aa6"/>
      <stop offset="1.0" stop-color="#581c87"/>
    </radialGradient>
    <linearGradient gradientTransform="matrix(-6.0E-4, 0.0034, -0.008, -0.0014, 97.85, 82.6)" gradientUnits="userSpaceOnUse" id="gradient6" spreadMethod="pad" x1="-819.2" x2="819.2">
      <stop offset="0.0196078431372549" stop-color="#b14400"/>
      <stop offset="1.0" stop-color="#e37801"/>
    </linearGradient>
    <radialGradient cx="0" cy="0" gradientTransform="matrix(0.0129, 0.0015, -9.0E-4, 0.0079, 101.2, 85.7)" gradientUnits="userSpaceOnUse" id="gradient7" r="819.2" spreadMethod="pad">
      <stop offset="0.3607843137254902" stop-color="#2c0f43"/>
      <stop offset="1.0" stop-color="#190827"/>
    </radialGradient>
    <g id="sprite0" transform="matrix(1.0, 0.0, 0.0, 1.0, 0.0, 0.0)">
      <use ffdec:characterId="1933" height="14.9" transform="matrix(1.0, 0.0, 0.0, 1.0, 0.0, 0.0)" width="44.65" xlink:href="#shape1"/>
    </g>
    <g id="shape1" transform="matrix(1.0, 0.0, 0.0, 1.0, 0.0, 0.0)">
      <path d="M44.3 4.2 L44.1 4.35 37.0 3.5 Q34.5 3.3 33.25 4.8 L27.4 13.65 27.05 13.65 33.0 4.6 33.2 4.4 Q34.45 3.1 36.75 3.3 L44.3 4.2 M13.35 12.3 L13.0 12.25 20.0 3.15 20.15 3.0 Q21.2 1.7 23.1 1.8 L31.25 2.75 Q31.9 2.8 32.3 3.1 L32.35 3.2 31.5 2.95 23.35 2.0 Q21.35 1.9 20.25 3.35 L13.35 12.3 M1.05 11.1 L0.55 11.05 6.8 6.6 7.25 3.0 7.3 1.1 Q7.7 0.15 9.35 0.25 L17.6 1.1 Q18.55 1.2 19.15 1.75 L19.2 1.8 Q18.65 1.4 17.85 1.3 L9.6 0.45 Q7.95 0.35 7.55 1.3 L7.5 3.2 7.05 6.8 1.05 11.1" fill="#4daecc" fill-opacity="0.76862746" fill-rule="evenodd" stroke="none"/>
      <path d="M32.75 4.4 L32.8 4.4 32.95 4.2 33.1 4.05 Q34.3 2.85 36.5 3.05 L44.65 4.0 44.3 4.2 36.75 3.3 Q34.45 3.1 33.2 4.4 L33.0 4.6 27.05 13.65 26.95 13.6 26.65 13.6 32.75 4.4 M13.0 12.25 L12.55 12.2 19.75 2.9 19.8 2.9 19.9 2.8 20.0 2.65 Q21.0 1.45 22.85 1.55 L31.0 2.5 Q31.9 2.55 32.3 3.1 31.9 2.8 31.25 2.75 L23.1 1.8 Q21.2 1.7 20.15 3.0 L20.0 3.15 13.0 12.25 M0.55 11.05 L0.0 11.0 6.55 6.35 7.0 2.75 7.05 0.85 Q7.45 -0.1 9.1 0.0 L17.35 0.85 Q18.5 1.0 19.15 1.75 18.55 1.2 17.6 1.1 L9.35 0.25 Q7.7 0.15 7.3 1.1 L7.25 3.0 6.8 6.6 0.55 11.05" fill="#2a91aa" fill-opacity="0.76862746" fill-rule="evenodd" stroke="none"/>
      <path d="M26.65 13.6 L13.35 12.3 20.25 3.35 Q21.35 1.9 23.35 2.0 L31.5 2.95 32.35 3.2 Q32.65 3.6 32.75 4.35 L32.75 4.4 26.65 13.6" fill="url(#gradient8)" fill-rule="evenodd" stroke="none"/>
      <path d="M44.1 4.35 L40.4 6.65 39.8 14.9 27.4 13.65 33.25 4.8 Q34.5 3.3 37.0 3.5 L44.1 4.35" fill="url(#gradient9)" fill-rule="evenodd" stroke="none"/>
      <path d="M12.55 12.2 L1.05 11.1 7.05 6.8 7.5 3.2 7.55 1.3 Q7.95 0.35 9.6 0.45 L17.85 1.3 Q18.65 1.4 19.2 1.8 L19.75 2.9 12.55 12.2" fill="url(#gradient10)" fill-rule="evenodd" stroke="none"/>
    </g>
    <radialGradient cx="0" cy="0" gradientTransform="matrix(0.0097, 0.0056, -0.0073, 0.0126, 22.75, 2.8)" gradientUnits="userSpaceOnUse" id="gradient8" r="819.2" spreadMethod="pad">
      <stop offset="0.5490196078431373" stop-color="#6ed3ec" stop-opacity="0.76862746"/>
      <stop offset="0.7686274509803922" stop-color="#5cbbdb" stop-opacity="0.76862746"/>
      <stop offset="1.0" stop-color="#2a91aa" stop-opacity="0.76862746"/>
    </radialGradient>
    <radialGradient cx="0" cy="0" gradientTransform="matrix(0.009, 0.0052, -0.0066, 0.0114, 36.6, 4.6)" gradientUnits="userSpaceOnUse" id="gradient9" r="819.2" spreadMethod="pad">
      <stop offset="0.5490196078431373" stop-color="#6ed3ec" stop-opacity="0.76862746"/>
      <stop offset="0.7686274509803922" stop-color="#5cbbdb" stop-opacity="0.76862746"/>
      <stop offset="1.0" stop-color="#2a91aa" stop-opacity="0.76862746"/>
    </radialGradient>
    <radialGradient cx="0" cy="0" gradientTransform="matrix(0.0099, 0.0057, -0.0073, 0.0126, 9.35, 0.45)" gradientUnits="userSpaceOnUse" id="gradient10" r="819.2" spreadMethod="pad">
      <stop offset="0.5490196078431373" stop-color="#6ed3ec" stop-opacity="0.76862746"/>
      <stop offset="0.7686274509803922" stop-color="#5cbbdb" stop-opacity="0.76862746"/>
      <stop offset="1.0" stop-color="#2a91aa" stop-opacity="0.76862746"/>
    </radialGradient>
    <g id="shape2" transform="matrix(1.0, 0.0, 0.0, 1.0, -5.55, -4.45)">
      <path d="M112.85 83.6 L113.55 83.7 113.5 85.05 113.35 89.4 113.25 92.05 113.25 92.2 113.2 92.75 113.25 92.75 113.55 92.75 114.75 92.9 114.7 97.45 110.55 96.9 111.1 83.35 112.85 83.6 M130.5 99.65 L126.6 99.1 126.65 94.35 128.35 94.55 128.4 94.0 128.5 90.85 128.65 88.1 128.75 86.5 128.75 85.75 129.3 85.8 131.55 83.0 130.5 99.65 M122.6 98.55 L118.6 98.0 118.55 93.35 121.6 93.75 121.65 93.75 122.0 93.8 122.65 93.85 122.6 98.55" fill="#00c08f" fill-rule="evenodd" stroke="none"/>
      <path d="M133.25 76.5 L131.95 97.05 130.5 99.65 131.55 83.0 129.3 85.8 Q131.25 83.25 133.2 76.6 L133.25 76.5" fill="#0de2ad" fill-rule="evenodd" stroke="none"/>
      <path d="M117.3 84.2 L120.15 84.55 120.1 85.4 123.75 85.85 127.6 86.35 128.75 86.5 128.65 88.1 127.8 88.0 124.2 87.55 120.6 87.1 116.9 86.65 116.8 86.8 116.8 86.5 117.2 86.05 117.25 85.5 117.2 85.5 117.25 85.45 117.3 84.2" fill="#005842" fill-rule="evenodd" stroke="none"/>
      <path d="M113.95 89.5 L115.75 87.6 116.8 86.5 116.8 86.8 115.05 89.35 115.05 89.4 113.25 92.05 113.35 89.4 113.95 89.5 M116.85 85.85 L116.85 85.9 116.8 85.9 116.85 85.85" fill="#009570" fill-rule="evenodd" stroke="none"/>
      <path d="M128.75 86.5 L127.6 86.35 127.6 85.6 128.75 85.75 128.75 86.5 M117.8 92.75 L117.5 92.7 119.1 89.8 123.0 90.25 121.65 93.2 117.8 92.75" fill="#d92d25" fill-rule="evenodd" stroke="none"/>
      <path d="M121.65 93.2 L123.0 90.25 126.75 90.65 125.6 93.65 121.95 93.25 121.65 93.2 M121.6 93.75 L121.6 93.65 121.6 93.75" fill="#0e67dc" fill-rule="evenodd" stroke="none"/>
      <path d="M117.5 92.7 L117.5 93.25 114.75 92.9 113.55 92.75 113.55 92.25 117.5 92.7 M117.8 93.3 L117.8 92.75 121.65 93.2 121.65 93.75 121.6 93.75 118.55 93.35 117.8 93.3 M121.6 93.75 L121.6 93.65 121.6 93.75 M121.95 93.25 L125.6 93.65 125.6 94.2 125.55 94.2 125.55 94.15 125.55 94.2 122.65 93.85 122.0 93.8 121.95 93.25 M125.9 93.7 L128.4 94.0 128.35 94.55 126.65 94.35 125.95 94.25 125.9 93.7" fill="#ffffff" fill-rule="evenodd" stroke="none"/>
      <path d="M119.1 89.8 L117.5 92.7 113.55 92.25 113.25 92.2 113.25 92.05 115.05 89.4 115.05 89.35 119.1 89.8 M115.0 90.1 L115.0 90.05 115.0 90.1" fill="#0aaa3b" fill-rule="evenodd" stroke="none"/>
      <path d="M116.8 86.8 L116.9 86.65 120.6 87.1 119.1 89.8 115.05 89.35 116.8 86.8 M125.6 93.65 L126.75 90.65 128.5 90.85 128.4 94.0 125.9 93.7 125.6 93.65" fill="#ffa825" fill-rule="evenodd" stroke="none"/>
      <path d="M120.6 87.1 L124.2 87.55 123.0 90.25 119.1 89.8 120.6 87.1" fill="#22c1f4" fill-rule="evenodd" stroke="none"/>
      <path d="M124.2 87.55 L127.8 88.0 126.75 90.65 123.0 90.25 124.2 87.55" fill="#f949ec" fill-rule="evenodd" stroke="none"/>
      <path d="M120.15 84.55 L121.2 84.7 123.75 85.05 123.75 85.85 120.1 85.4 120.15 84.55 M127.8 88.0 L128.65 88.1 128.5 90.85 126.75 90.65 127.8 88.0" fill="#112d4f" fill-rule="evenodd" stroke="none"/>
      <path d="M115.95 84.0 L117.05 84.15 117.3 84.2 117.25 85.45 117.2 85.5 117.25 85.5 117.2 86.05 116.8 86.5 115.75 87.6 115.95 84.0 M116.85 85.85 L116.8 85.9 116.85 85.9 116.85 85.85" fill="#009102" fill-rule="evenodd" stroke="none"/>
      <path d="M115.55 83.95 L115.95 84.0 115.75 87.6 113.95 89.5 114.1 85.15 114.2 85.15 115.55 83.95" fill="#fc1888" fill-rule="evenodd" stroke="none"/>
      <path d="M114.15 83.75 L115.55 83.95 114.2 85.15 114.1 85.15 114.15 83.75" fill="#fe5966" fill-rule="evenodd" stroke="none"/>
      <path d="M113.5 85.05 L114.1 85.15 113.95 89.5 113.35 89.4 113.5 85.05" fill="#c60057" fill-rule="evenodd" stroke="none"/>
      <path d="M113.55 83.7 L114.15 83.75 114.1 85.15 113.5 85.05 113.55 83.7" fill="#e23e4b" fill-rule="evenodd" stroke="none"/>
      <path d="M113.55 92.25 L113.55 92.75 113.25 92.75 113.2 92.75 113.25 92.2 113.55 92.25" fill="#008328" fill-rule="evenodd" stroke="none"/>
      <path d="M117.5 92.7 L117.8 92.75 117.8 93.3 117.5 93.25 117.5 92.7" fill="#b6110a" fill-rule="evenodd" stroke="none"/>
      <path d="M121.65 93.75 L121.65 93.2 121.95 93.25 122.0 93.8 121.65 93.75" fill="#0049aa" fill-rule="evenodd" stroke="none"/>
      <path d="M125.6 94.2 L125.6 93.65 125.9 93.7 125.95 94.25 125.6 94.2" fill="#de7a00" fill-rule="evenodd" stroke="none"/>
      <path d="M123.75 85.85 L123.75 85.05 125.3 85.25 127.6 85.6 127.6 86.35 123.75 85.85" fill="#ee620a" fill-rule="evenodd" stroke="none"/>
      <path d="M126.6 99.1 L122.6 98.55 122.65 93.85 125.55 94.2 125.6 94.2 125.95 94.25 126.65 94.35 126.6 99.1 M118.6 98.0 L114.7 97.45 114.75 92.9 117.5 93.25 117.8 93.3 118.55 93.35 118.6 98.0" fill="#d0e6ea" fill-rule="evenodd" stroke="none"/>
      <path d="M117.35 74.75 L121.3 75.15 Q119.95 80.8 117.05 84.15 L115.95 84.0 115.55 83.95 114.15 83.75 113.55 83.7 112.85 83.6 Q115.85 80.1 117.35 74.75 M125.25 75.6 L129.2 76.05 Q127.85 81.6 125.3 85.25 L123.75 85.05 121.2 84.7 Q123.75 82.0 125.25 75.6" fill="url(#gradient11)" fill-rule="evenodd" stroke="none"/>
      <path d="M117.35 74.75 Q115.85 80.1 112.85 83.6 L111.1 83.35 108.6 83.05 Q111.95 79.7 113.35 75.05 L113.4 74.8 113.55 74.3 117.35 74.75 M117.05 84.15 Q119.95 80.8 121.3 75.15 L125.25 75.6 Q123.75 82.0 121.2 84.7 L120.15 84.55 117.3 84.2 117.05 84.15 M129.2 76.05 L133.2 76.5 133.25 76.5 133.2 76.6 Q131.25 83.25 129.3 85.8 L128.75 85.75 127.6 85.6 125.3 85.25 Q127.85 81.6 129.2 76.05" fill="url(#gradient12)" fill-rule="evenodd" stroke="none"/>
      <path d="M82.5 23.6 L82.5 29.35 M57.05 9.55 L60.1 25.1" fill="none" stroke="#ffffff" stroke-linecap="round" stroke-linejoin="round" stroke-width="1.5"/>
      <path d="M58.6 31.9 L58.7 31.85 58.7 31.9 58.6 31.9" fill="#fcdf1a" fill-rule="evenodd" stroke="none"/>
      <path d="M59.0 31.8 L58.7 31.9 58.7 31.85 59.0 31.8" fill="#f8b911" fill-rule="evenodd" stroke="none"/>
      <path d="M92.55 94.75 Q74.2 99.5 51.25 107.9 L65.35 90.05 92.55 94.75" fill="#ffe74a" fill-rule="evenodd" stroke="none"/>
      <path d="M11.35 42.25 Q9.8 32.3 7.9 22.55 23.2 33.75 37.55 47.0 L44.1 53.2 46.65 72.85 Q29.7 55.45 11.35 42.25" fill="#e7b511" fill-rule="evenodd" stroke="none"/>
      <path d="M44.1 53.2 L59.95 42.9 62.25 63.0 46.65 72.85 44.1 53.2" fill="#fbf864" fill-rule="evenodd" stroke="none"/>
      <path d="M51.25 107.9 Q35.4 90.9 15.3 73.95 13.75 57.85 11.35 42.25 29.7 55.45 46.65 72.85 L51.25 107.9 M7.9 22.55 L5.55 11.15 14.95 18.35 15.5 18.75 16.3 19.4 27.65 28.65 27.9 28.9 28.5 29.4 35.65 35.55 40.05 39.5 40.35 39.75 42.6 41.8 44.1 53.2 37.55 47.0 Q23.2 33.75 7.9 22.55" fill="url(#gradient13)" fill-rule="evenodd" stroke="none"/>
      <path d="M93.95 29.7 L93.25 41.9 59.95 42.9 58.7 31.9 59.0 31.8 93.95 29.7 M92.55 63.0 Q92.2 78.55 92.55 94.75 L65.35 90.05 62.25 63.0 92.55 63.0" fill="url(#gradient14)" fill-rule="evenodd" stroke="none"/>
      <path d="M46.65 72.85 L62.25 63.0 65.35 90.05 51.25 107.9 46.65 72.85" fill="url(#gradient15)" fill-rule="evenodd" stroke="none"/>
      <path d="M93.25 41.9 Q92.75 52.3 92.55 63.0 L62.25 63.0 59.95 42.9 93.25 41.9" fill="#fce93d" fill-rule="evenodd" stroke="none"/>
      <path d="M5.55 11.15 L31.8 11.55 32.9 18.85 35.65 35.55 28.5 29.4 27.9 28.9 27.65 28.65 16.3 19.4 15.5 18.75 14.95 18.35 5.55 11.15" fill="url(#gradient16)" fill-rule="evenodd" stroke="none"/>
      <path d="M31.8 11.55 L46.95 4.45 47.9 12.25 51.05 36.6 42.6 41.8 40.35 39.75 40.05 39.5 35.65 35.55 32.9 18.85 31.8 11.55" fill="url(#gradient17)" fill-rule="evenodd" stroke="none"/>
      <path d="M46.95 4.45 Q67.95 18.55 93.95 29.7 L59.0 31.8 58.7 31.85 58.6 31.9 51.05 36.6 47.9 12.25 46.95 4.45" fill="url(#gradient18)" fill-rule="evenodd" stroke="none"/>
      <path d="M58.7 31.9 L59.95 42.9 44.1 53.2 42.6 41.8 51.05 36.6 58.6 31.9 58.7 31.9" fill="url(#gradient19)" fill-rule="evenodd" stroke="none"/>
    </g>
    <linearGradient gradientTransform="matrix(7.0E-4, -0.0048, 0.0058, 9.0E-4, 125.15, 80.45)" gradientUnits="userSpaceOnUse" id="gradient11" spreadMethod="pad" x1="-819.2" x2="819.2">
      <stop offset="0.0" stop-color="#f0fdff"/>
      <stop offset="1.0" stop-color="#daedf0"/>
    </linearGradient>
    <linearGradient gradientTransform="matrix(7.0E-4, -0.0048, 0.0059, 8.0E-4, 129.25, 80.9)" gradientUnits="userSpaceOnUse" id="gradient12" spreadMethod="pad" x1="-819.2" x2="819.2">
      <stop offset="0.2901960784313726" stop-color="#12fdca"/>
      <stop offset="1.0" stop-color="#00e5a3"/>
    </linearGradient>
    <radialGradient cx="0" cy="0" gradientTransform="matrix(0.0385, -0.0065, 0.0095, 0.0564, 36.8, 39.2)" gradientUnits="userSpaceOnUse" id="gradient13" r="819.2" spreadMethod="pad">
      <stop offset="0.29411764705882354" stop-color="#f49600"/>
      <stop offset="1.0" stop-color="#e07b00"/>
    </radialGradient>
    <radialGradient cx="0" cy="0" gradientTransform="matrix(0.0326, 0.0, 0.0, 0.0536, 86.0, 33.6)" gradientUnits="userSpaceOnUse" id="gradient14" r="819.2" spreadMethod="pad">
      <stop offset="0.29411764705882354" stop-color="#fcc61f"/>
      <stop offset="1.0" stop-color="#f4b70f"/>
    </radialGradient>
    <radialGradient cx="0" cy="0" gradientTransform="matrix(0.0161, -0.0012, 0.0051, 0.0685, 56.4, 38.8)" gradientUnits="userSpaceOnUse" id="gradient15" r="819.2" spreadMethod="pad">
      <stop offset="0.29411764705882354" stop-color="#fff510"/>
      <stop offset="0.9921568627450981" stop-color="#f8cd02"/>
    </radialGradient>
    <radialGradient cx="0" cy="0" gradientTransform="matrix(0.0327, 0.0, 0.0, 0.0088, 25.2, 12.8)" gradientUnits="userSpaceOnUse" id="gradient16" r="819.2" spreadMethod="pad">
      <stop offset="0.29411764705882354" stop-color="#de7a00"/>
      <stop offset="1.0" stop-color="#b65000"/>
    </radialGradient>
    <radialGradient cx="0" cy="0" gradientTransform="matrix(0.0198, -0.008, 0.0033, 0.008, 38.2, 8.6)" gradientUnits="userSpaceOnUse" id="gradient17" r="819.2" spreadMethod="pad">
      <stop offset="0.29411764705882354" stop-color="#ffcb20"/>
      <stop offset="1.0" stop-color="#e29500"/>
    </radialGradient>
    <radialGradient cx="0" cy="0" gradientTransform="matrix(0.0491, 0.0279, -0.0033, 0.0058, 71.2, 20.0)" gradientUnits="userSpaceOnUse" id="gradient18" r="819.2" spreadMethod="pad">
      <stop offset="0.29411764705882354" stop-color="#cd7000"/>
      <stop offset="1.0" stop-color="#a65200"/>
    </radialGradient>
    <radialGradient cx="0" cy="0" gradientTransform="matrix(0.0161, -0.0012, 0.0051, 0.0685, 56.4, 38.8)" gradientUnits="userSpaceOnUse" id="gradient19" r="819.2" spreadMethod="pad">
      <stop offset="0.26666666666666666" stop-color="#fde70b"/>
      <stop offset="0.9921568627450981" stop-color="#f8cd02"/>
    </radialGradient>
    <g id="sprite1" transform="matrix(1.0, 0.0, 0.0, 1.0, 0.0, 0.0)">
      <use ffdec:characterId="1936" height="29.55" transform="matrix(1.0, 0.0, 0.0, 1.0, 0.0, 0.0)" width="65.85" xlink:href="#shape3"/>
    </g>
    <g id="shape3" transform="matrix(1.0, 0.0, 0.0, 1.0, 0.0, 0.0)">
      <path d="M62.8 18.15 L62.85 18.15 63.0 18.1 65.55 18.05 65.85 18.25 61.2 18.55 62.15 18.3 62.8 18.15 M34.5 25.3 L27.65 29.55 25.4 27.5 34.5 25.3" fill="url(#gradient20)" fill-rule="evenodd" stroke="none"/>
      <path d="M62.85 18.15 L62.8 18.15 Q62.3 17.0 61.4 16.55 56.1 12.7 50.2 10.25 L47.7 9.95 47.6 9.35 50.0 9.65 Q55.9 12.1 61.2 15.95 62.35 16.5 62.85 18.15" fill="#5ad5d5" fill-opacity="0.8509804" fill-rule="evenodd" stroke="none"/>
      <path d="M63.0 18.1 L62.85 18.15 Q62.35 16.5 61.2 15.95 55.9 12.1 50.0 9.65 L47.6 9.35 47.5 9.35 47.3 9.35 46.35 9.5 12.95 16.65 12.7 16.4 34.3 11.8 46.4 9.2 46.45 9.2 47.4 9.05 47.5 9.05 50.1 9.35 Q56.0 11.8 61.3 15.65 62.55 16.25 63.0 18.1 M35.45 24.75 L34.5 25.3 25.4 27.5 25.1 27.25 35.45 24.75" fill="#2a91aa" fill-opacity="0.8509804" fill-rule="evenodd" stroke="none"/>
      <path d="M62.8 18.15 L62.15 18.3 61.2 18.55 43.75 19.6 35.75 24.55 34.4 12.7 46.55 10.1 47.5 9.95 47.7 9.95 50.2 10.25 Q56.1 12.7 61.4 16.55 62.3 17.0 62.8 18.15" fill="url(#gradient21)" fill-rule="evenodd" stroke="none"/>
      <path d="M47.4 8.9 L47.4 9.05 46.45 9.2 46.4 9.2 34.3 11.8 33.1 1.0 33.25 1.0 Q34.15 1.05 37.6 2.55 41.0 4.0 46.75 8.2 L47.4 8.9" fill="url(#gradient22)" fill-rule="evenodd" stroke="none"/>
      <path d="M47.6 9.35 L47.7 9.95 47.5 9.95 46.55 10.1 34.4 12.7 13.55 17.15 12.95 16.65 46.35 9.5 47.3 9.35 47.5 9.35 47.6 9.35 M47.4 8.7 L47.4 8.9 46.75 8.2 Q41.0 4.0 37.6 2.55 34.15 1.05 33.25 1.0 L33.1 1.0 31.55 1.3 18.25 7.6 1.35 7.15 0.55 6.5 18.05 7.0 31.35 0.7 33.0 0.4 33.05 0.4 Q33.95 0.45 37.4 1.95 40.8 3.4 46.55 7.6 L47.4 8.7" fill="#44c5c7" fill-opacity="0.8509804" fill-rule="evenodd" stroke="none"/>
      <path d="M0.55 6.5 L0.0 6.1 17.95 6.6 31.25 0.3 32.95 0.0 Q33.9 0.1 37.3 1.55 40.7 3.0 46.45 7.2 47.3 7.9 47.4 8.7 L46.55 7.6 Q40.8 3.4 37.4 1.95 33.95 0.45 33.05 0.4 L33.0 0.4 31.35 0.7 18.05 7.0 0.55 6.5" fill="#32a0b2" fill-opacity="0.8509804" fill-rule="evenodd" stroke="none"/>
      <path d="M34.3 11.8 L12.7 16.4 1.35 7.15 18.25 7.6 31.55 1.3 33.1 1.0 34.3 11.8" fill="url(#gradient23)" fill-rule="evenodd" stroke="none"/>
      <path d="M34.4 12.7 L35.75 24.55 35.45 24.75 25.1 27.25 13.55 17.15 34.4 12.7" fill="url(#gradient24)" fill-rule="evenodd" stroke="none"/>
      <path d="M35.05 2.5 L37.0 3.8 Q41.0 5.75 38.35 7.1 L26.85 10.3 18.4 12.25 Q15.55 12.7 15.2 13.05 L16.7 13.0 13.05 13.75 Q12.55 11.95 20.1 10.75 39.35 7.8 35.05 2.5 M30.95 23.1 L25.7 24.6 Q25.6 22.85 33.45 20.75 54.35 17.65 50.8 12.35 52.4 13.15 54.65 14.7 56.85 16.2 44.5 19.1 L44.45 19.1 42.2 19.65 Q31.85 22.1 29.8 22.9 27.5 23.7 30.95 23.1" fill="#ffffff" fill-opacity="0.3372549" fill-rule="evenodd" stroke="none"/>
      <path d="M16.7 13.0 L15.2 13.05 Q15.55 12.7 18.4 12.25 L26.85 10.3 38.35 7.1 Q41.0 5.75 37.0 3.8 L35.05 2.5 Q38.9 3.75 41.25 5.4 43.6 7.05 41.0 8.1 L28.55 10.8 16.7 13.0 M50.8 12.35 Q51.95 12.2 56.05 14.35 60.15 16.45 57.7 17.1 L48.8 19.25 43.75 19.55 41.75 20.75 31.1 23.05 31.05 23.05 31.1 23.05 30.95 23.1 Q27.5 23.7 29.8 22.9 31.85 22.1 42.2 19.65 L44.45 19.1 44.5 19.1 Q56.85 16.2 54.65 14.7 52.4 13.15 50.8 12.35" fill="#ffffff" fill-opacity="0.8509804" fill-rule="evenodd" stroke="none"/>
    </g>
    <radialGradient cx="0" cy="0" gradientTransform="matrix(0.0327, 0.0, 0.0, 0.0146, 51.25, 23.35)" gradientUnits="userSpaceOnUse" id="gradient20" r="819.2" spreadMethod="pad">
      <stop offset="0.5490196078431373" stop-color="#9dfcfc" stop-opacity="0.8509804"/>
      <stop offset="0.7686274509803922" stop-color="#48cbcb" stop-opacity="0.8509804"/>
      <stop offset="1.0" stop-color="#2a91aa" stop-opacity="0.8509804"/>
    </radialGradient>
    <radialGradient cx="0" cy="0" gradientTransform="matrix(0.0371, -0.0021, 8.0E-4, 0.0139, 37.25, 14.55)" gradientUnits="userSpaceOnUse" id="gradient21" r="819.2" spreadMethod="pad">
      <stop offset="0.5490196078431373" stop-color="#6ee1ec" stop-opacity="0.8509804"/>
      <stop offset="0.7686274509803922" stop-color="#48cbcb" stop-opacity="0.8509804"/>
      <stop offset="1.0" stop-color="#2a91aa" stop-opacity="0.8509804"/>
    </radialGradient>
    <radialGradient cx="0" cy="0" gradientTransform="matrix(0.0325, -0.004, 0.0016, 0.013, 24.65, 5.35)" gradientUnits="userSpaceOnUse" id="gradient22" r="819.2" spreadMethod="pad">
      <stop offset="0.5490196078431373" stop-color="#6ee1ec" stop-opacity="0.8509804"/>
      <stop offset="0.7686274509803922" stop-color="#48cbcb" stop-opacity="0.8509804"/>
      <stop offset="1.0" stop-color="#2a91aa" stop-opacity="0.8509804"/>
    </radialGradient>
    <radialGradient cx="0" cy="0" gradientTransform="matrix(0.0325, -0.004, 0.0016, 0.013, 24.65, 5.35)" gradientUnits="userSpaceOnUse" id="gradient23" r="819.2" spreadMethod="pad">
      <stop offset="0.5490196078431373" stop-color="#62d5e0" stop-opacity="0.8509804"/>
      <stop offset="0.7686274509803922" stop-color="#3dbfbf" stop-opacity="0.8509804"/>
      <stop offset="1.0" stop-color="#2a91aa" stop-opacity="0.8509804"/>
    </radialGradient>
    <radialGradient cx="0" cy="0" gradientTransform="matrix(0.0371, -0.0021, 8.0E-4, 0.0139, 37.25, 14.55)" gradientUnits="userSpaceOnUse" id="gradient24" r="819.2" spreadMethod="pad">
      <stop offset="0.5490196078431373" stop-color="#62d5e0" stop-opacity="0.8509804"/>
      <stop offset="0.7803921568627451" stop-color="#36bfbf" stop-opacity="0.8509804"/>
      <stop offset="1.0" stop-color="#2a91aa" stop-opacity="0.8509804"/>
    </radialGradient>
    <g id="shape4" transform="matrix(1.0, 0.0, 0.0, 1.0, -130.5, -58.85)">
      <path d="M132.35 58.9 L133.5 59.05 136.25 59.35 Q137.0 59.4 137.4 59.75 L135.95 60.65 135.6 60.3 Q135.35 60.1 132.75 59.45 L130.75 59.05 130.5 58.95 131.1 58.85 131.4 58.85 132.35 58.9 M134.4 64.35 L134.3 65.7 132.95 67.2 132.3 68.0 Q132.15 68.05 132.05 68.15 L131.85 68.2 Q131.6 68.2 131.8 67.85 L132.45 67.0 134.4 64.35" fill="#ffffff" fill-rule="evenodd" stroke="none"/>
      <path d="M137.4 59.75 Q137.0 59.4 136.25 59.35 L133.5 59.05 132.35 58.9 136.55 59.05 137.4 59.3 137.8 59.5 137.4 59.75 M130.75 59.05 L132.75 59.45 Q135.35 60.1 135.6 60.3 L135.95 60.65 134.65 61.45 134.4 64.35 132.45 67.0 131.8 67.85 Q131.6 68.2 131.85 68.2 L132.05 68.15 Q132.15 68.05 132.3 68.0 L132.95 67.2 134.3 65.7 134.25 66.4 132.8 67.9 132.15 68.55 131.45 68.75 131.3 68.9 Q130.7 69.05 131.3 67.6 L131.8 66.6 134.3 62.4 134.55 61.65 134.55 61.55 Q134.3 60.2 130.75 59.05" fill="#ffffff" fill-opacity="0.4" fill-rule="evenodd" stroke="none"/>
    </g>
    <g id="sprite2" transform="matrix(1.0, 0.0, 0.0, 1.0, 0.0, 0.0)">
      <use ffdec:characterId="1939" height="10.05" transform="matrix(1.0, 0.0, 0.0, 1.0, 0.0, 0.0)" width="7.7" xlink:href="#shape5"/>
    </g>
    <g id="shape5" transform="matrix(1.0, 0.0, 0.0, 1.0, 0.0, 0.0)">
      <path d="M0.25 0.2 L3.4 0.5 Q5.15 0.8 5.55 1.05 L6.2 1.85 Q6.45 2.45 5.1 4.55 L2.95 7.8 Q7.05 3.25 7.25 2.0 7.45 0.65 5.75 0.5 L3.0 0.2 1.7 0.05 1.5 0.05 6.05 0.2 6.9 0.45 Q8.2 0.85 7.45 2.65 5.75 5.55 2.3 9.05 L1.65 9.7 0.95 9.9 0.8 10.05 Q0.2 10.2 1.4 8.5 L2.85 7.35 Q4.55 5.25 5.0 3.2 5.4 1.1 0.25 0.2 M1.8 9.15 L1.95 9.0 2.45 8.15 1.35 9.35 1.55 9.3 Q1.65 9.2 1.8 9.15" fill="#ffffff" fill-opacity="0.4" fill-rule="evenodd" stroke="none"/>
      <path d="M1.5 0.05 L1.7 0.05 3.0 0.2 5.75 0.5 Q7.45 0.65 7.25 2.0 7.05 3.25 2.95 7.8 L5.1 4.55 Q6.45 2.45 6.2 1.85 L5.55 1.05 Q5.15 0.8 3.4 0.5 L0.25 0.2 0.0 0.1 0.6 0.0 0.9 0.0 1.5 0.05 M1.8 9.15 Q1.65 9.2 1.55 9.3 L1.35 9.35 2.45 8.15 1.95 9.0 1.8 9.15" fill="#ffffff" fill-rule="evenodd" stroke="none"/>
    </g>
    <g id="sprite3" transform="matrix(1.0, 0.0, 0.0, 1.0, -29.65, 0.0)">
      <use ffdec:characterId="1941" height="36.25" transform="matrix(1.0, 0.0, 0.0, 1.0, 29.65, 0.0)" width="36.35" xlink:href="#shape6"/>
    </g>
    <g id="shape6" transform="matrix(1.0, 0.0, 0.0, 1.0, -29.65, 0.0)">
      <path d="M59.95 23.5 L59.55 11.45 59.5 11.1 62.5 12.9 62.5 25.05 59.95 23.5" fill="url(#gradient25)" fill-rule="evenodd" stroke="none"/>
      <path d="M59.0 10.8 L59.55 23.65 62.5 25.6 62.5 26.95 58.45 24.3 58.3 21.25 57.85 11.95 57.75 10.05 59.0 10.8" fill="#70776d" fill-rule="evenodd" stroke="none"/>
      <path d="M59.5 11.1 L59.55 11.45 59.95 23.5 59.55 23.65 59.0 10.8 59.5 11.1" fill="#5f645d" fill-rule="evenodd" stroke="none"/>
      <path d="M59.55 23.65 L59.95 23.5 62.5 25.05 62.5 25.6 59.55 23.65" fill="#858783" fill-rule="evenodd" stroke="none"/>
      <path d="M58.3 21.25 L58.45 24.3 62.5 26.95 62.5 27.55 38.3 35.5 34.35 31.9 32.9 18.9 48.55 14.5 58.3 21.25" fill="url(#gradient26)" fill-rule="evenodd" stroke="none"/>
      <path d="M57.85 11.95 L58.3 21.25 48.55 14.5 57.85 11.95" fill="url(#gradient27)" fill-rule="evenodd" stroke="none"/>
      <path d="M57.85 11.95 L58.45 24.3 62.5 26.95 62.5 27.55 38.3 35.5 34.35 31.9 32.9 18.9 57.85 11.95" fill="url(#gradient28)" fill-rule="evenodd" stroke="none"/>
      <path d="M58.25 27.45 L58.25 28.1 43.6 33.2 43.55 32.5 58.25 27.45" fill="#2c6cb9" fill-rule="evenodd" stroke="none"/>
      <path d="M43.6 33.2 L39.9 29.25 39.85 28.5 43.55 32.5 43.6 33.2" fill="#1e5496" fill-rule="evenodd" stroke="none"/>
      <path d="M39.85 28.5 L53.95 23.75 58.25 27.45 43.55 32.5 39.85 28.5" fill="#3e88df" fill-rule="evenodd" stroke="none"/>
      <path d="M53.95 28.1 Q54.2 24.6 53.1 24.3 52.55 24.15 52.7 17.9 L52.65 17.45 54.4 16.9 Q53.7 21.0 54.05 22.55 54.35 24.25 54.6 24.85 L54.5 27.4 54.4 28.45 53.9 28.6 53.95 28.1 M58.35 16.05 L58.4 15.65 59.4 15.35 59.85 16.55 Q60.25 17.45 60.25 18.1 60.25 18.65 58.5 20.45 L56.7 22.4 Q56.7 23.0 57.6 23.6 58.55 24.2 58.55 25.1 58.55 26.2 58.05 26.95 L57.7 27.35 55.1 28.2 55.35 27.75 56.5 25.65 56.95 24.5 Q56.95 23.6 56.6 23.4 L55.65 22.75 57.75 20.75 Q58.6 20.15 58.85 19.35 L58.35 16.05 M49.55 27.85 L46.7 24.85 Q46.5 24.6 46.85 23.55 47.55 21.15 45.9 19.6 L47.05 19.2 48.2 21.35 47.05 23.7 48.15 24.6 49.35 25.95 49.55 27.85 M40.9 24.75 Q40.85 23.7 41.15 22.65 41.5 21.45 42.3 20.7 L43.6 20.3 42.95 21.8 41.75 25.35 Q41.75 25.95 41.9 26.0 L42.35 26.0 Q46.25 23.55 46.25 28.5 46.25 30.3 45.3 31.4 L43.5 32.0 44.45 27.1 44.4 26.3 44.1 26.25 Q42.2 26.95 41.1 26.7 L40.9 24.75" fill="url(#gradient29)" fill-rule="evenodd" stroke="none"/>
      <path d="M63.8 14.2 L64.0 27.65 62.5 28.15 62.25 14.7 63.8 14.2 M39.75 35.45 L39.8 35.65 38.0 36.25 36.55 23.05 38.4 22.45 39.75 35.45" fill="#b4bab8" fill-rule="evenodd" stroke="none"/>
      <path d="M62.5 28.15 L62.2 27.95 61.9 14.8 62.25 14.7 62.5 28.15 M38.0 36.25 L34.0 32.55 34.0 32.5 32.3 18.4 36.55 23.05 38.0 36.25 M33.85 20.55 L33.25 19.85 34.7 31.55 36.75 33.55 36.7 32.8 35.5 22.45 33.85 20.55" fill="#878e84" fill-rule="evenodd" stroke="none"/>
      <path d="M62.2 27.95 L51.75 31.5 50.9 18.35 52.1 18.0 52.95 28.95 53.0 29.35 61.05 26.7 60.7 15.2 61.9 14.8 62.2 27.95 M51.55 31.55 L39.75 35.45 38.4 22.45 39.9 21.95 41.0 32.85 41.05 33.2 50.1 30.3 49.35 18.9 50.65 18.45 51.55 31.55" fill="#d8dad2" fill-rule="evenodd" stroke="none"/>
      <path d="M49.0 18.6 L49.3 18.55 49.35 18.9 50.1 30.3 49.7 30.05 49.0 18.6 M60.35 15.05 L60.7 14.95 60.7 15.2 61.05 26.7 60.6 26.45 60.35 15.05" fill="#a4aaa8" fill-rule="evenodd" stroke="none"/>
      <path d="M52.1 18.0 L52.05 17.65 60.35 15.05 60.6 26.45 52.95 28.95 52.1 18.0" fill="url(#gradient30)" fill-rule="evenodd" stroke="none"/>
      <path d="M52.95 28.95 L60.6 26.45 61.05 26.7 53.0 29.35 52.95 28.95 M41.0 32.85 L49.7 30.05 50.1 30.3 41.05 33.2 41.0 32.85" fill="#e4e5e1" fill-rule="evenodd" stroke="none"/>
      <path d="M39.9 21.95 L39.85 21.55 49.0 18.6 49.7 30.05 41.0 32.85 39.9 21.95" fill="url(#gradient31)" fill-rule="evenodd" stroke="none"/>
      <path d="M32.25 18.15 L30.85 16.5 29.65 8.2 Q30.9 12.95 32.85 17.0 L33.35 17.95 33.6 18.45 35.4 21.55 35.75 22.1 32.25 18.15" fill="#db5700" fill-rule="evenodd" stroke="none"/>
      <path d="M34.7 31.55 L33.25 19.85 33.85 20.55 35.2 31.4 34.7 31.55" fill="#697264" fill-rule="evenodd" stroke="none"/>
      <path d="M35.2 31.4 L33.85 20.55 35.5 22.45 36.7 32.8 35.2 31.4" fill="url(#gradient32)" fill-rule="evenodd" stroke="none"/>
      <path d="M34.7 31.55 L35.2 31.4 36.7 32.8 36.75 33.55 34.7 31.55" fill="#9ca19a" fill-rule="evenodd" stroke="none"/>
      <path d="M61.6 13.85 L57.55 15.15 Q52.65 9.3 50.75 2.4 L54.95 1.2 Q56.85 8.4 61.6 13.85 M53.4 16.45 L49.35 17.75 Q44.9 11.8 42.35 4.7 L46.55 3.55 Q48.05 7.9 50.15 11.6 L50.45 12.1 53.4 16.45 M45.05 19.15 L40.35 20.65 Q36.55 14.6 33.95 7.05 L38.15 5.9 Q40.65 13.25 45.05 19.15" fill="url(#gradient33)" fill-rule="evenodd" stroke="none"/>
      <path d="M59.3 0.0 L60.05 2.85 Q60.75 5.05 61.7 6.9 63.4 10.15 66.0 12.4 L63.75 13.15 62.2 13.65 61.85 13.75 61.6 13.85 Q56.85 8.4 54.95 1.2 L59.3 0.0 M57.55 15.15 L53.4 16.45 50.45 12.1 50.15 11.6 Q48.05 7.9 46.55 3.55 L50.75 2.4 Q52.65 9.3 57.55 15.15 M49.35 17.75 L45.05 19.15 Q40.65 13.25 38.15 5.9 L42.35 4.7 Q44.9 11.8 49.35 17.75 M40.35 20.65 L38.25 21.3 36.4 21.9 35.75 22.1 35.4 21.55 33.6 18.45 33.35 17.95 32.85 17.0 Q30.9 12.95 29.65 8.2 L33.95 7.05 Q36.55 14.6 40.35 20.65" fill="url(#gradient34)" fill-rule="evenodd" stroke="none"/>
      <path d="M32.25 18.15 L35.75 22.1 36.4 21.9 36.55 23.05 32.3 18.4 32.25 18.15" fill="#696d66" fill-rule="evenodd" stroke="none"/>
      <path d="M63.75 13.15 L63.8 14.2 62.25 14.7 62.2 13.65 63.75 13.15 M38.25 21.3 L38.4 22.45 36.55 23.05 36.4 21.9 38.25 21.3" fill="#9ba19f" fill-rule="evenodd" stroke="none"/>
      <path d="M62.2 13.65 L62.25 14.7 61.9 14.8 61.85 13.75 62.2 13.65" fill="#69706d" fill-rule="evenodd" stroke="none"/>
      <path d="M61.85 13.75 L61.9 14.8 60.7 15.2 60.7 14.95 60.35 15.05 52.05 17.65 52.1 18.0 50.9 18.35 50.65 18.45 49.35 18.9 49.3 18.55 49.0 18.6 39.85 21.55 39.9 21.95 38.4 22.45 38.25 21.3 40.35 20.65 45.05 19.15 49.35 17.75 53.4 16.45 57.55 15.15 61.6 13.85 61.85 13.75" fill="#babdb3" fill-rule="evenodd" stroke="none"/>
      <path d="M51.75 31.5 L51.55 31.55 50.65 18.45 50.9 18.35 51.75 31.5" fill="#9ea6a3" fill-rule="evenodd" stroke="none"/>
      <path d="M34.0 32.5 L31.15 33.4 30.75 17.95 29.8 17.95 29.65 8.2 30.85 16.5 32.25 18.15 32.3 18.4 34.0 32.5" fill="#000000" fill-opacity="0.2" fill-rule="evenodd" stroke="none"/>
      <path d="M29.65 8.2 L39.0 0.45 59.3 0.0 54.95 1.2 50.75 2.4 46.55 3.55 42.35 4.7 38.15 5.9 33.95 7.05 29.65 8.2" fill="#fd7c04" fill-rule="evenodd" stroke="none"/>
    </g>
    <radialGradient cx="0" cy="0" gradientTransform="matrix(0.0034, 0.0, 0.0, 0.0097, 61.25, 15.95)" gradientUnits="userSpaceOnUse" id="gradient25" r="819.2" spreadMethod="pad">
      <stop offset="0.19607843137254902" stop-color="#80e5ff" stop-opacity="0.3019608"/>
      <stop offset="1.0" stop-color="#00ccff" stop-opacity="0.5019608"/>
    </radialGradient>
    <radialGradient cx="0" cy="0" gradientTransform="matrix(0.0034, 0.0126, -0.0243, 0.0065, 50.05, 31.45)" gradientUnits="userSpaceOnUse" id="gradient26" r="819.2" spreadMethod="pad">
      <stop offset="0.23921568627450981" stop-color="#b8aa84"/>
      <stop offset="0.5294117647058824" stop-color="#9f9a79"/>
      <stop offset="1.0" stop-color="#58503f"/>
    </radialGradient>
    <radialGradient cx="0" cy="0" gradientTransform="matrix(0.0093, 0.0, 0.0, 0.0093, 57.05, 20.85)" gradientUnits="userSpaceOnUse" id="gradient27" r="819.2" spreadMethod="pad">
      <stop offset="0.3686274509803922" stop-color="#525979"/>
      <stop offset="0.9333333333333333" stop-color="#21222e"/>
    </radialGradient>
    <radialGradient cx="0" cy="0" gradientTransform="matrix(0.0408, -0.0135, 0.0058, 0.0174, 50.4, 30.4)" gradientUnits="userSpaceOnUse" id="gradient28" r="819.2" spreadMethod="pad">
      <stop offset="0.43529411764705883" stop-color="#000000" stop-opacity="0.0"/>
      <stop offset="1.0" stop-color="#000000" stop-opacity="0.8"/>
    </radialGradient>
    <linearGradient gradientTransform="matrix(0.0015, 0.0062, -0.0042, 0.001, 43.8, 26.25)" gradientUnits="userSpaceOnUse" id="gradient29" spreadMethod="pad" x1="-819.2" x2="819.2">
      <stop offset="0.15294117647058825" stop-color="#ffffff" stop-opacity="0.29803923"/>
      <stop offset="1.0" stop-color="#ffffff"/>
    </linearGradient>
    <radialGradient cx="0" cy="0" gradientTransform="matrix(0.007, 0.0, 0.0, 0.0103, 56.95, 18.5)" gradientUnits="userSpaceOnUse" id="gradient30" r="819.2" spreadMethod="pad">
      <stop offset="0.19607843137254902" stop-color="#80e5ff" stop-opacity="0.3019608"/>
      <stop offset="1.0" stop-color="#00ccff" stop-opacity="0.5019608"/>
    </radialGradient>
    <radialGradient cx="0" cy="0" gradientTransform="matrix(0.0061, 0.0, 0.0, 0.0093, 45.15, 23.25)" gradientUnits="userSpaceOnUse" id="gradient31" r="819.2" spreadMethod="pad">
      <stop offset="0.19607843137254902" stop-color="#80e5ff" stop-opacity="0.3019608"/>
      <stop offset="1.0" stop-color="#00ccff" stop-opacity="0.5019608"/>
    </radialGradient>
    <radialGradient cx="0" cy="0" gradientTransform="matrix(0.0024, -3.0E-4, 9.0E-4, 0.0079, 35.8, 24.5)" gradientUnits="userSpaceOnUse" id="gradient32" r="819.2" spreadMethod="pad">
      <stop offset="0.19607843137254902" stop-color="#80e5ff" stop-opacity="0.3019608"/>
      <stop offset="1.0" stop-color="#00ccff" stop-opacity="0.5019608"/>
    </radialGradient>
    <linearGradient gradientTransform="matrix(-0.0029, -0.0085, 0.0064, -0.0022, 39.5, 13.25)" gradientUnits="userSpaceOnUse" id="gradient33" spreadMethod="pad" x1="-819.2" x2="819.2">
      <stop offset="0.18823529411764706" stop-color="#f9feff"/>
      <stop offset="1.0" stop-color="#fff5dd"/>
    </linearGradient>
    <linearGradient gradientTransform="matrix(-0.0022, -0.0071, 0.0088, -0.0027, 34.95, 14.6)" gradientUnits="userSpaceOnUse" id="gradient34" spreadMethod="pad" x1="-819.2" x2="819.2">
      <stop offset="0.18823529411764706" stop-color="#fd7c04"/>
      <stop offset="1.0" stop-color="#f16c00"/>
    </linearGradient>
    <g id="shape7" transform="matrix(1.0, 0.0, 0.0, 1.0, -11.8, -10.35)">
      <path d="M12.85 16.4 L13.05 16.35 13.45 16.35 13.6 16.5 13.9 17.05 Q18.75 65.85 28.15 75.45 L29.7 76.7 Q31.8 77.4 33.2 75.8 L33.65 75.2 Q34.85 73.15 35.55 69.2 37.25 59.0 35.4 36.65 L35.6 35.95 35.85 35.6 36.05 35.55 36.5 35.6 36.6 35.7 36.9 36.3 Q38.7 59.0 37.0 69.4 36.25 73.95 34.85 76.25 L34.15 77.1 Q32.15 79.55 29.1 78.4 L29.0 78.4 27.2 76.95 Q17.35 67.1 12.4 17.5 12.3 17.05 12.55 16.8 L12.85 16.4" fill="#000000" fill-opacity="0.14901961" fill-rule="evenodd" stroke="none"/>
      <path d="M12.9 15.95 L13.0 16.25 Q16.55 56.6 26.1 65.25 L27.65 66.5 Q29.8 67.4 31.3 66.3 L31.75 65.9 Q33.3 64.55 34.25 60.95 36.3 53.1 35.15 35.0 L35.25 34.65 35.45 34.6 35.9 34.7 35.95 35.0 Q37.1 53.4 35.05 61.45 34.0 65.4 32.2 67.0 L31.9 67.2 Q31.15 67.8 30.25 68.0 28.9 68.1 27.35 67.4 L27.25 67.35 Q16.05 60.25 12.2 16.3 L12.3 15.9 12.5 15.85 12.9 15.95" fill="#ffffff" fill-rule="evenodd" stroke="none"/>
      <path d="M26.1 65.25 Q16.55 56.6 13.0 16.25 L12.9 15.95 13.05 16.05 13.3 16.55 Q16.75 56.25 26.1 65.25 M12.3 15.9 L12.2 16.3 Q16.05 60.25 27.25 67.35 L27.35 67.4 Q28.9 68.1 30.25 68.0 31.15 67.8 31.9 67.2 L32.2 67.0 Q34.0 65.4 35.05 61.45 37.1 53.4 35.95 35.0 L35.9 34.7 36.0 34.8 36.25 35.3 Q37.4 53.7 35.35 61.75 34.4 65.25 32.9 66.9 L32.2 67.5 Q30.05 69.15 26.95 67.8 L26.85 67.75 25.1 66.35 Q15.35 57.05 11.8 16.7 11.75 16.35 12.0 16.15 12.1 15.95 12.3 15.9 M35.25 34.65 L35.15 35.0 Q36.3 53.1 34.25 60.95 33.3 64.55 31.75 65.9 33.05 64.45 33.85 61.35 35.9 53.5 34.75 35.4 L34.95 34.85 Q35.05 34.7 35.25 34.65" fill="#a6b1b4" fill-rule="evenodd" stroke="none"/>
      <path d="M101.3 58.05 L101.35 51.8 143.75 56.0 134.35 61.65 101.3 58.05" fill="url(#gradient35)" fill-rule="evenodd" stroke="none"/>
      <path d="M47.85 10.45 L48.05 10.35 82.15 30.6 73.5 31.05 47.85 15.35 47.85 10.45" fill="url(#gradient36)" fill-rule="evenodd" stroke="none"/>
      <path d="M47.85 10.45 L47.85 15.35 31.65 23.65 31.9 17.95 47.85 10.45" fill="url(#gradient37)" fill-rule="evenodd" stroke="none"/>
      <path d="M31.65 23.65 L20.85 23.4 13.3 17.35 31.95 17.35 31.9 17.95 31.65 23.65" fill="url(#gradient38)" fill-rule="evenodd" stroke="none"/>
    </g>
    <linearGradient gradientTransform="matrix(-7.0E-4, 0.0057, -0.0098, -0.0011, 122.4, 55.9)" gradientUnits="userSpaceOnUse" id="gradient35" spreadMethod="pad" x1="-819.2" x2="819.2">
      <stop offset="0.3607843137254902" stop-color="#484540" stop-opacity="0.0"/>
      <stop offset="1.0" stop-color="#471566" stop-opacity="0.2"/>
    </linearGradient>
    <linearGradient gradientTransform="matrix(-0.0022, 0.0036, -0.0107, -0.0066, 64.25, 22.05)" gradientUnits="userSpaceOnUse" id="gradient36" spreadMethod="pad" x1="-819.2" x2="819.2">
      <stop offset="0.4627450980392157" stop-color="#cd7000" stop-opacity="0.2"/>
      <stop offset="0.4666666666666667" stop-color="#cd7000" stop-opacity="0.16078432"/>
      <stop offset="1.0" stop-color="#cd7000" stop-opacity="0.2509804"/>
    </linearGradient>
    <linearGradient gradientTransform="matrix(0.0013, 0.0023, -0.0071, 0.0038, 39.75, 17.05)" gradientUnits="userSpaceOnUse" id="gradient37" spreadMethod="pad" x1="-819.2" x2="819.2">
      <stop offset="0.4627450980392157" stop-color="#cd7000" stop-opacity="0.2"/>
      <stop offset="0.4666666666666667" stop-color="#cd7000" stop-opacity="0.16078432"/>
      <stop offset="1.0" stop-color="#cd7000" stop-opacity="0.2509804"/>
    </linearGradient>
    <linearGradient gradientTransform="matrix(0.0, 0.0045, -0.0038, 0.0, 22.85, 19.9)" gradientUnits="userSpaceOnUse" id="gradient38" spreadMethod="pad" x1="-819.2" x2="819.2">
      <stop offset="0.4627450980392157" stop-color="#cd7000" stop-opacity="0.2"/>
      <stop offset="0.4666666666666667" stop-color="#cd7000" stop-opacity="0.16078432"/>
      <stop offset="1.0" stop-color="#cd7000" stop-opacity="0.2509804"/>
    </linearGradient>
  </defs>
</svg>
