<?xml version="1.0" encoding="UTF-8" standalone="no"?>
<svg xmlns:ffdec="https://www.free-decompiler.com/flash" xmlns:xlink="http://www.w3.org/1999/xlink" ffdec:objectType="frame" height="11.7px" width="9.7px" xmlns="http://www.w3.org/2000/svg">
  <g transform="matrix(1.0, 0.0, 0.0, 1.0, 0.0, 0.0)">
    <use ffdec:characterId="36" height="11.7" transform="matrix(1.0, 0.0, 0.0, 1.0, 0.0, 0.0)" width="9.7" xlink:href="#shape0"/>
  </g>
  <defs>
    <g id="shape0" transform="matrix(1.0, 0.0, 0.0, 1.0, 0.0, 0.0)">
      <path d="M6.95 4.5 L5.85 4.55 Q5.8 3.55 5.55 3.1 5.3 2.65 4.85 2.65 4.45 2.65 4.2 2.95 3.9 3.25 3.8 3.95 3.65 4.65 3.65 5.85 3.65 7.1 3.8 7.8 4.0 8.55 4.3 8.85 L5.05 9.15 Q5.5 9.15 5.8 8.85 6.1 8.5 6.2 7.75 L4.6 7.8 4.65 7.2 4.6 5.3 5.05 5.35 6.2 5.35 7.8 5.35 9.7 5.35 Q9.75 7.75 9.15 9.15 8.55 10.55 7.45 11.15 6.35 11.7 4.8 11.7 3.4 11.7 2.3 11.15 1.25 10.55 0.6 9.25 0.0 7.95 0.0 5.85 0.0 2.9 1.25 1.45 2.5 -0.05 4.85 0.0 6.25 0.0 7.25 0.5 8.25 1.05 8.8 2.05 9.35 3.05 9.45 4.45 L9.1 4.45 8.15 4.45 6.95 4.5" fill="url(#gradient0)" fill-rule="evenodd" stroke="none"/>
    </g>
    <linearGradient gradientTransform="matrix(0.0, 0.0069, -0.0071, 0.0, 4.85, 5.85)" gradientUnits="userSpaceOnUse" id="gradient0" spreadMethod="pad" x1="-819.2" x2="819.2">
      <stop offset="0.09019607843137255" stop-color="#fc4747"/>
      <stop offset="0.7803921568627451" stop-color="#c70505"/>
    </linearGradient>
  </defs>
</svg>
