<?xml version="1.0" encoding="UTF-8" standalone="no"?>
<svg xmlns:ffdec="https://www.free-decompiler.com/flash" xmlns:xlink="http://www.w3.org/1999/xlink" ffdec:objectType="frame" height="404.9px" width="315.6px" xmlns="http://www.w3.org/2000/svg">
  <g transform="matrix(1.0, 0.0, 0.0, 1.0, 1.45, -47.0)">
    <clipPath id="clipPath0">
      <path d="M 4.5 50.75 L 4.5 431.11 L 309.27 431.11 L 309.27 50.75 Z"/>
    </clipPath>
    <g clip-path="url(#clipPath0)">
      <use ffdec:characterId="2680" height="20.8" id="noMessages_spr" transform="matrix(1.0, 0.0, 0.0, 1.0, 50.0, 204.55)" width="195.0" xlink:href="#text0"/>
      <use ffdec:characterId="2681" height="0.0" id="itemsHolder_spr" transform="matrix(1.0, 0.0, 0.0, 1.0, 42.0, 68.0)" width="0.0" xlink:href="#sprite0"/>
    </g>
    <use ffdec:characterId="2683" height="20.8" id="pageNum_spr" transform="matrix(1.0, 0.0, 0.0, 1.0, 276.25, 431.1)" width="33.0" xlink:href="#sprite1"/>
    <use ffdec:characterId="2684" height="0.0" id="pagePrev_btn" transform="matrix(1.0, 0.0, 0.0, 1.0, 309.95, 89.45)" width="0.0" xlink:href="#button0"/>
    <use ffdec:characterId="2685" height="0.0" id="pageNext_btn" transform="matrix(1.0, 0.0, 0.0, 1.0, 309.95, 142.5)" width="0.0" xlink:href="#button1"/>
    <use ffdec:characterId="2686" height="2.25" transform="matrix(1.0, 0.0, 0.0, 1.0, -1.45, 47.0)" width="315.6" xlink:href="#shape0"/>
  </g>
  <defs>
    <g id="text0" transform="matrix(1.0, 0.0, 0.0, 1.0, 27.5, 2.0)">
      <g transform="matrix(1.0, 0.0, 0.0, 1.0, -27.5, -2.0)">
        <use fill="#145f49" height="20.8" transform="matrix(0.0137, 0.0, 0.0, 0.0137, 71.3, 15.25)" width="195.0" xlink:href="#font_GosmickSansBold_L0"/>
        <use fill="#145f49" height="20.8" transform="matrix(0.0137, 0.0, 0.0, 0.0137, 78.15, 15.25)" width="195.0" xlink:href="#font_GosmickSansBold_o0"/>
        <use fill="#145f49" height="20.8" transform="matrix(0.0137, 0.0, 0.0, 0.0137, 85.1, 15.25)" width="195.0" xlink:href="#font_GosmickSansBold_a0"/>
        <use fill="#145f49" height="20.8" transform="matrix(0.0137, 0.0, 0.0, 0.0137, 91.7, 15.25)" width="195.0" xlink:href="#font_GosmickSansBold_d0"/>
        <use fill="#145f49" height="20.8" transform="matrix(0.0137, 0.0, 0.0, 0.0137, 99.05, 15.25)" width="195.0" xlink:href="#font_GosmickSansBold_i0"/>
        <use fill="#145f49" height="20.8" transform="matrix(0.0137, 0.0, 0.0, 0.0137, 101.6, 15.25)" width="195.0" xlink:href="#font_GosmickSansBold_n0"/>
        <use fill="#145f49" height="20.8" transform="matrix(0.0137, 0.0, 0.0, 0.0137, 108.6, 15.25)" width="195.0" xlink:href="#font_GosmickSansBold_g0"/>
        <use fill="#145f49" height="20.8" transform="matrix(0.0137, 0.0, 0.0, 0.0137, 115.6, 15.25)" width="195.0" xlink:href="#font_GosmickSansBold_.0"/>
        <use fill="#145f49" height="20.8" transform="matrix(0.0137, 0.0, 0.0, 0.0137, 118.3, 15.25)" width="195.0" xlink:href="#font_GosmickSansBold_.0"/>
        <use fill="#145f49" height="20.8" transform="matrix(0.0137, 0.0, 0.0, 0.0137, 121.0, 15.25)" width="195.0" xlink:href="#font_GosmickSansBold_.0"/>
      </g>
    </g>
    <g id="font_GosmickSansBold_L0">
      <path d="M479.0 -78.0 L479.0 -81.0 Q485.5 -54.5 470.0 -38.0 454.5 -21.5 422.5 -12.5 390.0 -3.5 343.5 1.5 297.0 6.0 242.5 8.0 L225.0 8.5 208.0 9.0 170.5 7.5 139.5 4.0 Q103.5 -2.0 81.5 -16.5 59.5 -31.0 47.5 -54.0 36.0 -77.0 32.5 -108.5 28.5 -140.5 28.5 -181.5 28.5 -195.0 29.0 -209.0 29.5 -223.5 29.5 -240.0 29.5 -251.0 30.0 -262.5 30.5 -273.5 30.5 -286.0 30.5 -316.5 31.5 -358.5 33.0 -400.5 34.0 -446.0 35.0 -491.5 36.5 -536.5 L39.0 -617.5 Q39.0 -626.0 39.5 -633.5 40.0 -641.0 40.0 -649.5 40.0 -661.5 45.0 -671.5 50.0 -681.0 57.5 -688.5 64.5 -695.5 72.0 -700.0 80.0 -704.5 85.0 -708.0 104.5 -713.0 123.5 -708.0 142.5 -702.5 156.5 -693.5 171.0 -684.0 179.0 -673.0 187.5 -661.5 187.5 -654.5 L188.5 -656.5 Q188.5 -651.5 188.0 -647.0 187.5 -642.0 186.5 -637.0 184.5 -627.0 184.5 -619.5 180.0 -582.0 177.5 -539.0 175.0 -496.0 173.0 -450.0 171.0 -404.5 170.0 -359.0 169.0 -313.5 169.0 -270.5 L169.0 -222.5 Q169.0 -191.5 169.5 -168.5 170.0 -145.5 172.0 -124.0 196.5 -112.0 239.5 -115.0 L257.0 -115.5 274.5 -116.0 332.5 -118.0 Q363.5 -119.0 410.5 -125.0 L408.5 -125.0 Q414.5 -127.0 419.0 -126.5 423.0 -126.0 428.0 -124.0 L429.0 -124.0 Q449.5 -124.0 463.5 -111.0 477.0 -97.5 479.0 -78.0" fill-rule="evenodd" stroke="none"/>
    </g>
    <g id="font_GosmickSansBold_o0">
      <path d="M361.5 -252.0 Q361.5 -284.5 354.5 -313.0 347.0 -341.0 334.5 -361.5 321.5 -382.0 302.5 -393.5 283.5 -405.5 260.0 -405.5 235.5 -405.5 215.5 -393.5 195.5 -382.0 181.0 -361.5 167.0 -341.0 159.0 -314.0 151.5 -286.5 151.5 -256.0 151.5 -226.5 158.0 -199.0 165.0 -172.0 178.0 -151.5 191.5 -131.0 210.0 -119.0 228.5 -106.5 253.0 -106.5 277.5 -106.5 297.5 -118.0 317.5 -129.0 332.0 -148.5 346.0 -168.0 354.0 -194.5 361.5 -221.0 361.5 -252.0 M486.5 -240.5 Q482.5 -186.0 462.5 -140.0 442.5 -94.0 410.5 -59.0 379.0 -24.5 336.5 -5.0 294.0 14.5 245.5 14.5 196.5 14.5 156.5 -5.5 116.5 -25.5 88.0 -59.5 59.0 -94.0 44.0 -140.5 28.5 -187.0 28.5 -240.5 28.5 -299.0 47.0 -349.5 65.5 -400.0 97.5 -437.5 130.0 -475.0 174.5 -496.5 219.0 -518.0 271.5 -518.0 322.5 -518.0 364.0 -496.0 405.5 -474.0 434.0 -436.5 463.0 -399.0 477.0 -348.5 490.5 -298.0 486.5 -240.5" fill-rule="evenodd" stroke="none"/>
    </g>
    <g id="font_GosmickSansBold_a0">
      <path d="M330.5 -196.5 Q330.5 -206.0 329.5 -213.5 328.5 -221.0 326.5 -226.5 312.0 -237.5 294.0 -246.0 276.0 -254.0 254.5 -254.0 203.5 -254.0 171.5 -228.0 140.0 -201.5 140.0 -167.0 140.0 -133.0 161.0 -113.0 182.0 -93.0 219.0 -93.0 247.5 -93.0 269.5 -102.5 291.5 -111.5 309.0 -125.0 322.5 -142.5 326.5 -161.5 330.5 -180.0 330.5 -196.5 M461.5 -54.0 L462.5 -52.0 Q463.5 -41.0 458.0 -29.0 452.5 -17.5 442.0 -7.0 432.0 3.0 420.0 9.5 408.5 15.5 398.0 15.5 377.5 15.5 363.5 2.0 349.0 -11.0 339.0 -32.5 310.0 -10.0 281.5 0.0 253.0 10.5 220.0 13.5 181.0 16.5 146.5 9.0 111.5 1.0 85.0 -20.0 58.0 -41.0 43.0 -76.0 27.5 -111.5 27.5 -163.5 27.5 -231.5 52.5 -270.5 77.5 -310.0 112.0 -330.0 146.5 -350.0 183.0 -355.5 220.0 -361.5 243.5 -360.5 273.5 -358.5 293.0 -354.5 313.0 -351.0 327.5 -346.0 327.5 -358.5 324.0 -371.5 320.5 -385.0 310.5 -395.5 301.0 -406.5 283.0 -412.5 265.0 -418.5 236.5 -417.5 190.5 -414.5 169.5 -402.5 148.5 -390.0 136.0 -380.0 L128.0 -373.0 Q124.0 -369.5 119.5 -367.5 112.5 -363.5 101.0 -363.0 L84.0 -363.5 83.0 -363.5 Q70.5 -363.5 63.5 -376.5 56.0 -390.0 51.0 -401.5 49.0 -403.5 48.5 -410.5 L48.0 -417.5 Q53.0 -442.0 70.5 -462.0 88.0 -482.0 113.5 -497.0 139.0 -512.0 171.0 -520.5 202.5 -529.5 238.5 -531.5 290.5 -534.5 327.0 -523.5 363.5 -513.0 387.0 -494.5 410.5 -476.0 423.5 -452.5 436.0 -429.0 442.0 -404.5 448.5 -380.0 449.0 -356.5 L449.5 -318.5 449.5 -310.0 449.5 -285.5 Q449.5 -273.5 448.5 -260.0 447.5 -239.5 447.5 -216.0 L447.5 -174.0 Q447.5 -143.0 450.5 -117.0 453.5 -91.0 461.5 -54.0" fill-rule="evenodd" stroke="none"/>
    </g>
    <g id="font_GosmickSansBold_d0">
      <path d="M370.5 -263.0 Q370.5 -327.5 345.5 -367.0 320.5 -406.5 268.0 -406.5 211.0 -406.5 180.0 -363.0 149.5 -319.5 149.5 -242.5 149.5 -215.0 157.5 -190.5 166.0 -166.0 179.5 -148.0 193.5 -130.0 213.0 -120.0 232.5 -109.5 254.0 -109.5 312.0 -109.5 341.5 -151.5 370.5 -193.5 370.5 -263.0 M515.0 -54.5 L514.0 -57.5 Q514.0 -51.5 507.0 -40.5 500.5 -30.0 490.5 -20.0 480.0 -10.5 467.5 -2.5 454.5 5.0 442.0 5.0 L434.0 4.0 Q427.0 3.0 417.0 -1.5 407.5 -6.5 396.0 -14.0 385.0 -21.5 375.5 -36.0 352.0 -18.5 323.0 -5.5 293.5 7.0 264.0 9.0 216.0 12.0 173.0 -4.0 130.0 -20.5 98.0 -53.5 66.5 -86.0 48.0 -133.0 29.5 -180.0 29.5 -237.5 29.5 -295.0 47.5 -345.5 65.5 -396.0 97.5 -434.5 130.0 -473.0 175.0 -495.5 220.0 -518.0 274.0 -518.0 305.0 -518.0 329.5 -510.5 354.0 -502.5 375.5 -490.5 L377.0 -589.0 Q377.5 -635.0 379.5 -675.0 380.5 -686.0 385.5 -696.0 390.0 -705.5 399.0 -710.5 406.5 -721.0 417.0 -723.0 428.0 -725.0 438.0 -726.0 446.5 -726.0 450.5 -727.0 486.0 -729.0 499.5 -703.5 513.0 -678.0 511.0 -635.0 L506.0 -540.5 Q503.5 -491.5 502.0 -441.0 500.5 -390.0 499.5 -340.0 498.5 -290.0 498.5 -243.0 498.5 -203.0 500.5 -171.0 502.5 -139.5 506.5 -116.0 L505.5 -117.0 Q506.5 -115.0 507.5 -110.5 L510.0 -101.5 Q512.0 -90.0 513.5 -76.5 515.0 -62.5 515.0 -54.5" fill-rule="evenodd" stroke="none"/>
    </g>
    <g id="font_GosmickSansBold_i0">
      <path d="M173.0 -642.0 Q171.0 -628.5 162.5 -614.5 153.5 -600.0 140.5 -588.0 127.0 -576.5 110.5 -570.5 94.0 -564.0 76.0 -567.0 48.0 -571.5 37.5 -596.0 26.5 -620.5 28.5 -650.0 31.5 -683.0 54.0 -706.5 76.0 -730.0 109.5 -730.0 128.0 -730.0 141.5 -722.0 154.5 -713.5 162.5 -700.5 170.0 -687.0 172.5 -671.5 175.0 -656.5 173.0 -642.0 M164.0 -442.5 L162.0 -399.5 Q161.0 -378.0 159.5 -357.5 157.5 -318.5 156.5 -282.5 155.5 -247.0 155.5 -210.0 155.5 -171.0 156.5 -134.5 157.5 -98.5 159.5 -71.5 159.5 -57.5 151.0 -44.0 142.5 -31.0 130.5 -20.0 119.0 -9.5 106.5 -2.5 94.0 4.0 86.0 4.0 63.5 4.0 50.0 -5.5 37.0 -15.5 30.0 -35.5 23.5 -55.5 21.5 -85.5 19.5 -116.0 19.5 -155.5 L19.5 -173.0 19.5 -198.5 Q19.5 -212.0 20.5 -224.5 22.5 -248.0 23.0 -273.0 23.5 -298.0 24.5 -324.5 L26.5 -388.5 Q27.5 -423.0 30.5 -451.5 33.0 -472.0 42.5 -485.0 52.0 -497.5 64.5 -504.5 77.0 -512.0 88.5 -514.5 100.5 -517.0 106.5 -517.0 136.0 -517.0 151.0 -498.5 166.0 -480.0 164.0 -442.5" fill-rule="evenodd" stroke="none"/>
    </g>
    <g id="font_GosmickSansBold_n0">
      <path d="M170.0 -439.5 Q170.0 -440.5 171.0 -441.5 L170.0 -440.5 170.0 -439.5 M489.5 -64.5 Q490.5 -40.0 481.5 -18.5 472.5 3.0 451.0 8.0 439.5 15.0 430.0 14.0 420.0 13.0 413.0 11.0 408.0 9.0 406.0 9.0 386.5 7.0 375.0 -11.0 364.0 -29.0 357.5 -55.0 351.5 -81.0 349.5 -112.5 347.5 -143.5 347.5 -172.0 L347.5 -224.5 Q347.5 -239.0 348.0 -254.5 348.5 -270.5 349.5 -285.0 350.5 -296.0 350.5 -305.5 L350.5 -322.0 Q350.5 -366.0 333.5 -385.0 316.5 -404.5 291.0 -403.5 255.5 -403.5 231.0 -380.5 207.0 -357.5 192.0 -320.5 176.5 -284.0 170.0 -237.0 163.0 -189.5 163.0 -140.5 L163.0 -119.0 Q163.0 -109.0 165.0 -97.5 168.0 -72.0 162.0 -52.5 156.0 -33.0 144.5 -19.0 133.5 -5.5 119.0 2.0 104.5 9.0 92.5 9.0 71.0 9.0 58.0 -1.0 45.5 -11.5 39.0 -30.0 33.0 -48.5 31.0 -75.5 29.0 -102.5 29.0 -136.5 L29.0 -194.0 Q29.0 -227.5 30.0 -264.0 31.0 -300.0 33.0 -336.0 35.0 -372.0 38.0 -402.5 L38.0 -421.0 Q38.0 -425.0 37.5 -428.0 37.0 -431.5 37.0 -436.5 36.0 -442.5 36.0 -452.0 36.0 -461.0 37.0 -466.0 39.0 -479.5 51.5 -489.5 64.0 -500.0 78.5 -505.5 93.5 -511.0 109.0 -513.0 124.0 -515.5 132.5 -513.0 153.0 -512.0 160.5 -496.5 168.0 -480.5 170.5 -458.0 169.5 -456.0 169.5 -453.0 169.5 -451.0 168.0 -451.0 L168.0 -448.5 168.0 -446.5 Q171.0 -449.0 173.5 -452.0 189.5 -468.0 209.0 -481.0 228.5 -494.0 249.0 -503.0 269.5 -512.0 289.5 -517.0 309.5 -521.5 328.0 -520.5 398.5 -516.5 440.5 -462.5 482.5 -409.0 482.5 -316.5 L482.5 -186.5 Q482.5 -159.0 484.5 -131.5 486.5 -103.5 488.5 -81.0 488.5 -77.0 489.0 -72.5 489.5 -68.0 489.5 -64.5" fill-rule="evenodd" stroke="none"/>
    </g>
    <g id="font_GosmickSansBold_g0">
      <path d="M355.5 -279.5 Q355.5 -301.0 354.0 -321.0 352.5 -341.0 346.0 -357.5 340.0 -373.5 328.5 -385.0 317.5 -396.5 298.0 -400.5 285.5 -406.5 271.5 -404.5 257.0 -402.5 242.5 -399.5 220.0 -393.0 203.5 -376.5 186.5 -359.5 175.0 -336.5 164.0 -313.5 158.0 -285.0 152.5 -257.0 154.5 -227.5 157.5 -172.0 186.0 -140.0 214.0 -107.5 260.0 -107.5 290.0 -107.5 308.0 -124.0 326.5 -140.5 337.5 -166.0 348.0 -191.5 351.5 -221.5 355.5 -252.0 355.5 -279.5 M489.5 -449.5 L489.5 -451.5 Q487.5 -426.0 486.0 -402.0 484.5 -378.0 482.5 -354.5 476.0 -284.5 471.0 -215.0 466.0 -145.5 466.0 -59.5 L466.0 -32.0 Q466.0 4.0 465.5 32.0 465.0 60.5 461.0 85.0 456.5 109.5 449.0 131.5 441.5 153.5 428.0 176.0 415.5 194.5 395.5 206.5 375.0 219.0 351.5 226.5 328.5 234.5 304.0 237.5 279.5 240.5 260.0 240.5 229.5 240.5 193.0 228.5 156.5 217.0 125.5 196.0 94.0 175.0 71.0 145.0 48.0 115.5 44.0 79.5 39.0 63.5 42.0 50.5 45.0 37.5 54.0 28.5 62.5 19.0 75.5 14.5 88.0 10.0 102.5 10.0 116.5 10.0 131.0 16.0 145.5 22.5 156.5 35.5 161.0 50.0 170.0 65.0 179.0 79.5 191.5 92.0 204.0 104.0 219.0 112.0 234.5 119.5 253.0 119.5 L254.0 119.0 Q255.0 118.5 255.0 120.5 271.5 118.5 287.0 113.5 303.0 108.5 314.5 96.5 325.5 85.0 333.0 64.5 340.0 44.0 340.0 11.0 L340.0 5.0 340.0 3.0 340.0 0.0 340.0 -7.5 Q323.5 -2.0 301.5 1.5 279.5 5.0 256.0 7.0 210.0 10.0 170.0 -5.5 130.0 -21.5 99.5 -52.0 68.5 -82.0 49.5 -126.0 30.5 -170.0 28.5 -224.5 26.5 -279.5 43.5 -332.0 60.5 -384.0 92.5 -424.5 125.0 -465.0 170.5 -490.0 216.0 -515.0 270.5 -518.0 302.0 -520.0 329.5 -515.0 357.5 -510.0 381.0 -490.5 398.5 -506.0 409.0 -510.0 420.0 -514.0 433.0 -514.0 445.5 -514.0 456.5 -508.5 468.0 -502.5 476.0 -494.0 484.5 -485.5 488.5 -473.5 492.5 -462.0 489.5 -449.5" fill-rule="evenodd" stroke="none"/>
    </g>
    <g id="font_GosmickSansBold_.0">
      <path d="M185.5 -66.5 Q185.5 -30.5 162.0 -8.5 138.0 13.5 106.5 13.5 70.5 13.5 47.5 -11.5 24.5 -36.5 20.5 -69.5 19.5 -105.5 41.5 -129.5 63.5 -153.5 96.5 -153.5 113.5 -153.5 129.5 -147.0 145.5 -140.0 157.5 -128.5 170.0 -116.5 177.5 -100.5 185.5 -85.0 185.5 -66.5" fill-rule="evenodd" stroke="none"/>
    </g>
    <g id="sprite1" transform="matrix(1.0, 0.0, 0.0, 1.0, -4.2, 9.85)">
      <use ffdec:characterId="2682" height="20.8" id="pageNum_txt" transform="matrix(1.0, 0.0, 0.0, 1.0, 4.2, -9.85)" width="33.0" xlink:href="#text1"/>
    </g>
    <g id="text1" transform="matrix(1.0, 0.0, 0.0, 1.0, -49.5, 2.0)">
      <g transform="matrix(1.0, 0.0, 0.0, 1.0, 49.5, -2.0)">
        <use fill="#276955" height="20.8" transform="matrix(0.0117, 0.0, 0.0, 0.0117, 0.0, 13.35)" width="33.0" xlink:href="#font_GosmickSansBold_60"/>
        <use fill="#276955" height="20.8" transform="matrix(0.0117, 0.0, 0.0, 0.0117, 6.8, 13.35)" width="33.0" xlink:href="#font_GosmickSansBold__0"/>
        <use fill="#276955" height="20.8" transform="matrix(0.0117, 0.0, 0.0, 0.0117, 12.05, 13.35)" width="33.0" xlink:href="#font_GosmickSansBold_80"/>
      </g>
    </g>
    <g id="font_GosmickSansBold_60">
      <path d="M422.0 -221.5 Q422.0 -289.0 386.5 -325.0 351.0 -361.5 290.5 -361.5 242.5 -361.5 209.5 -333.5 176.0 -305.0 176.0 -255.0 176.0 -222.5 185.5 -194.5 195.5 -167.0 213.5 -146.5 231.5 -126.0 255.5 -114.5 279.5 -102.5 308.0 -102.5 360.5 -102.5 391.0 -136.5 422.0 -170.0 422.0 -221.5 M556.0 -221.0 Q550.5 -171.0 530.0 -127.5 509.5 -84.0 477.0 -51.5 444.0 -19.5 399.5 -1.0 355.0 17.5 303.0 17.5 238.5 17.5 187.5 -7.0 137.0 -31.5 102.0 -75.5 67.5 -119.5 49.0 -180.0 30.5 -240.5 30.5 -313.0 30.5 -374.5 45.0 -433.5 59.0 -492.5 88.0 -541.5 116.5 -591.0 159.5 -627.5 202.5 -664.5 260.0 -682.0 277.5 -687.0 303.5 -693.5 329.5 -700.5 355.5 -706.0 381.5 -711.5 403.0 -714.5 424.5 -717.5 433.0 -715.5 469.0 -717.5 485.0 -705.5 501.5 -693.0 501.5 -674.5 501.5 -652.0 459.0 -624.5 416.5 -597.0 325.5 -583.5 293.5 -572.5 270.5 -561.0 247.5 -550.0 231.0 -534.5 215.0 -519.0 204.0 -498.5 193.5 -478.0 186.0 -447.5 217.0 -466.0 247.0 -471.0 277.5 -476.0 304.0 -476.0 L323.5 -476.0 338.5 -475.0 Q390.0 -473.0 432.5 -452.5 475.0 -432.0 504.0 -398.0 533.5 -364.5 547.0 -319.5 561.0 -274.5 556.0 -221.0" fill-rule="evenodd" stroke="none"/>
    </g>
    <g id="font_GosmickSansBold__0">
      <path d="M430.0 -700.5 L429.0 -694.5 Q427.0 -691.0 426.0 -687.5 425.0 -684.0 423.0 -681.0 L423.0 -682.0 Q396.5 -637.0 362.0 -557.0 327.5 -477.0 284.5 -375.0 L284.5 -376.0 Q264.0 -326.5 243.5 -278.0 223.0 -229.5 203.0 -180.0 197.5 -168.0 193.5 -155.5 189.5 -143.5 184.5 -132.0 174.0 -104.5 164.0 -80.5 153.5 -56.5 141.5 -38.5 129.0 -20.5 113.0 -9.5 97.5 1.0 75.0 1.0 67.5 1.0 59.0 -3.0 50.0 -7.0 42.5 -14.5 35.0 -21.5 30.0 -31.5 25.5 -41.0 27.5 -52.0 33.0 -57.5 35.0 -63.0 L41.0 -81.0 47.0 -94.0 47.0 -93.0 Q83.0 -171.0 119.0 -259.5 L189.5 -436.0 Q204.0 -471.0 217.5 -506.5 L244.5 -573.5 Q250.0 -583.5 253.0 -593.5 256.0 -603.0 260.0 -613.5 L278.5 -658.0 Q287.5 -680.0 300.5 -698.0 313.5 -716.0 329.5 -726.5 346.0 -737.5 368.5 -739.5 379.0 -741.5 389.5 -739.5 400.5 -737.5 409.5 -731.5 419.0 -726.0 424.5 -718.0 430.0 -709.5 430.0 -700.5" fill-rule="evenodd" stroke="none"/>
    </g>
    <g id="font_GosmickSansBold_80">
      <path d="M357.5 -525.5 Q357.5 -564.5 332.0 -587.0 306.0 -609.5 267.5 -609.5 221.0 -609.5 195.5 -583.0 170.0 -556.0 170.0 -516.5 171.0 -482.5 196.0 -461.0 221.0 -439.5 264.0 -437.5 307.0 -439.5 332.5 -464.0 357.5 -488.5 357.5 -525.5 M413.5 -204.5 Q413.5 -236.0 402.0 -258.5 390.0 -280.5 370.0 -294.0 350.0 -308.0 324.0 -313.5 298.0 -319.0 269.5 -318.0 247.0 -318.0 227.5 -309.5 208.0 -300.5 193.0 -287.0 178.0 -273.0 169.5 -255.5 161.0 -238.5 161.0 -220.0 161.0 -193.0 170.5 -170.5 180.0 -148.0 197.5 -132.0 215.0 -115.5 238.5 -106.5 262.0 -98.0 289.0 -98.0 344.0 -98.0 379.0 -127.0 413.5 -156.5 413.5 -204.5 M547.0 -209.0 Q547.0 -164.0 527.5 -123.0 508.0 -82.0 473.0 -50.5 438.5 -19.5 390.0 -1.0 342.0 17.5 285.5 17.5 234.5 17.5 189.5 3.0 144.5 -11.0 110.0 -38.5 76.0 -65.5 54.5 -103.5 33.0 -141.5 29.5 -189.5 27.5 -244.5 49.5 -292.5 71.5 -340.0 118.0 -368.5 79.0 -403.5 62.5 -437.0 46.0 -470.0 47.0 -519.5 49.0 -562.5 69.0 -598.5 89.0 -635.0 121.5 -661.5 153.5 -688.5 196.0 -703.0 238.5 -718.0 285.5 -718.0 329.5 -718.0 368.5 -703.5 407.5 -689.5 435.5 -663.0 464.0 -637.0 478.5 -601.5 493.5 -566.5 491.5 -523.5 486.5 -475.0 466.0 -448.0 445.5 -421.0 419.0 -398.5 L421.0 -397.5 Q422.0 -397.5 424.0 -396.5 L422.0 -397.5 Q460.0 -386.0 484.0 -358.0 508.0 -330.0 521.5 -299.0 535.5 -268.5 541.0 -242.0 547.0 -216.0 547.0 -209.0" fill-rule="evenodd" stroke="none"/>
    </g>
    <g id="shape0" transform="matrix(1.0, 0.0, 0.0, 1.0, 1.45, -47.0)">
      <path d="M314.15 47.0 L314.15 49.25 -1.45 49.25 -1.45 47.0 314.15 47.0" fill="#df7c1d" fill-rule="evenodd" stroke="none"/>
    </g>
  </defs>
</svg>
