<?xml version="1.0" encoding="UTF-8" standalone="no"?>
<svg xmlns:ffdec="https://www.free-decompiler.com/flash" xmlns:xlink="http://www.w3.org/1999/xlink" ffdec:objectType="frame" height="35.9px" width="13.75px" xmlns="http://www.w3.org/2000/svg">
  <g transform="matrix(1.0, 0.0, 0.0, 1.0, -1.8, -2.9)">
    <use ffdec:characterId="782" height="35.9" transform="matrix(1.0, 0.0, 0.0, 1.0, 1.8, 2.9)" width="13.75" xlink:href="#shape0"/>
  </g>
  <defs>
    <g id="shape0" transform="matrix(1.0, 0.0, 0.0, 1.0, -1.8, -2.9)">
      <path d="M13.0 14.8 Q14.7 20.75 14.55 27.35 14.35 34.2 10.55 36.85 6.4 39.85 3.8 33.55 2.05 29.25 3.35 24.35 4.95 18.45 7.25 13.25 9.05 9.05 8.7 3.9 11.3 8.9 13.0 14.8" fill="url(#gradient0)" fill-rule="evenodd" stroke="none"/>
      <path d="M13.0 14.8 Q14.7 20.75 14.55 27.35 14.35 34.2 10.55 36.85 6.4 39.85 3.8 33.55 2.05 29.25 3.35 24.35 4.95 18.45 7.25 13.25 9.05 9.05 8.7 3.9 11.3 8.9 13.0 14.8 Z" fill="none" stroke="#00b0ff" stroke-linecap="round" stroke-linejoin="round" stroke-opacity="0.7490196" stroke-width="2.0"/>
      <path d="M6.7 19.2 Q7.5 18.35 8.1 18.7 8.7 19.05 8.7 20.8 L8.2 25.05 Q7.45 29.2 6.1 29.2 5.25 29.2 4.9 27.35 L4.65 25.2 Q4.65 21.35 6.7 19.2" fill="#ffffff" fill-opacity="0.7882353" fill-rule="evenodd" stroke="none"/>
      <path d="M12.25 21.2 Q12.3 18.25 11.7 15.95 13.2 20.1 13.3 26.35 13.45 32.55 10.0 35.5 6.5 38.45 5.45 33.8 5.8 34.25 8.05 32.75 10.3 31.25 11.2 27.7 12.15 24.2 12.25 21.2" fill="#00386b" fill-opacity="0.14117648" fill-rule="evenodd" stroke="none"/>
    </g>
    <radialGradient cx="0" cy="0" gradientTransform="matrix(0.0105, 0.0, 0.0, 0.0272, 9.2, 17.45)" gradientUnits="userSpaceOnUse" id="gradient0" r="819.2" spreadMethod="pad">
      <stop offset="0.10588235294117647" stop-color="#ffffff"/>
      <stop offset="0.8901960784313725" stop-color="#1fd9ed"/>
    </radialGradient>
  </defs>
</svg>
