<?xml version="1.0" encoding="UTF-8" standalone="no"?>
<svg xmlns:ffdec="https://www.free-decompiler.com/flash" xmlns:xlink="http://www.w3.org/1999/xlink" ffdec:objectType="frame" height="21.65px" width="10.65px" xmlns="http://www.w3.org/2000/svg">
  <g transform="matrix(1.0, 0.0, 0.0, 1.0, 1.3, 5.5)">
    <use ffdec:characterId="1121" height="21.65" transform="matrix(1.0, 0.0, 0.0, 1.0, -1.3, -5.5)" width="10.65" xlink:href="#shape0"/>
  </g>
  <defs>
    <g id="shape0" transform="matrix(1.0, 0.0, 0.0, 1.0, 1.3, 5.5)">
      <path d="M5.7 -2.15 Q5.05 -2.15 4.6 -2.6 4.2 -3.0 4.2 -3.6 4.2 -4.25 4.6 -4.7 L5.7 -5.1 Q6.3 -5.1 6.7 -4.7 7.15 -4.25 7.15 -3.6 7.15 -3.0 6.7 -2.6 6.3 -2.15 5.7 -2.15" fill="url(#gradient0)" fill-rule="evenodd" stroke="none"/>
      <path d="M2.2 11.8 L5.75 10.85 6.95 12.35 Q5.95 13.7 3.55 13.35 2.4 12.7 2.2 11.8" fill="#f3e9e5" fill-rule="evenodd" stroke="none"/>
      <path d="M3.55 13.35 Q5.95 13.7 6.95 12.35 7.4 13.95 6.5 15.35 5.25 16.35 3.6 16.1 3.05 14.85 3.55 13.35" fill="#c9bcb8" fill-rule="evenodd" stroke="none"/>
      <path d="M2.2 11.8 Q2.4 12.7 3.55 13.35 3.05 14.85 3.6 16.1 L2.4 15.25 Q1.5 13.7 2.2 11.8" fill="#746b68" fill-rule="evenodd" stroke="none"/>
      <path d="M0.4 8.85 L0.4 8.7 Q0.45 7.85 1.3 7.2 2.45 5.95 2.0 4.25 L3.2 3.9 Q3.1 6.3 4.45 8.25 L4.4 8.25 3.1 8.45 1.95 8.65 1.6 8.8 Q0.85 9.15 0.65 9.7 L0.4 8.85" fill="url(#gradient1)" fill-rule="evenodd" stroke="none"/>
      <path d="M3.2 3.9 L3.6 3.8 Q4.4 5.55 5.7 6.05 L7.2 6.65 7.8 7.0 Q9.05 7.7 9.1 8.7 L9.1 8.85 8.95 9.5 7.95 8.5 Q7.0 7.95 5.9 7.95 L5.25 8.0 4.7 8.15 4.45 8.25 Q3.1 6.3 3.2 3.9" fill="url(#gradient2)" fill-rule="evenodd" stroke="none"/>
      <path d="M1.95 8.65 L3.1 8.45 4.4 8.25 4.45 8.25 4.7 8.15 5.25 8.0 5.9 7.95 Q7.0 7.95 7.95 8.5 L8.95 9.5 7.8 10.6 Q7.7 10.65 7.55 10.75 6.55 11.25 5.35 11.35 5.9 10.5 5.9 9.9 L5.75 9.0 5.5 8.75 4.85 8.65 3.75 8.75 2.65 8.55 1.95 8.65" fill="url(#gradient3)" fill-rule="evenodd" stroke="none"/>
      <path d="M0.65 9.7 Q0.85 9.15 1.6 8.8 L1.95 8.65 2.65 8.55 3.75 8.75 4.85 8.65 5.5 8.75 5.75 9.0 5.9 9.9 Q5.9 10.5 5.35 11.35 L4.75 11.35 3.5 11.25 1.65 10.6 0.65 9.7" fill="url(#gradient4)" fill-rule="evenodd" stroke="none"/>
      <path d="M9.1 8.85 L9.05 9.7 Q8.75 10.85 7.8 11.65 L6.2 12.6 5.9 12.7 4.75 12.8 4.0 12.75 3.85 12.75 3.6 12.7 3.25 12.6 Q2.4 12.35 1.65 11.65 L0.9 10.8 0.6 10.15 0.4 8.85 0.65 9.7 1.65 10.6 3.5 11.25 4.75 11.35 5.35 11.35 Q6.55 11.25 7.55 10.75 7.7 10.65 7.8 10.6 L8.95 9.5 9.1 8.85" fill="#746b68" fill-rule="evenodd" stroke="none"/>
      <path d="M0.4 8.85 L0.4 8.7 Q0.45 7.85 1.3 7.2 2.45 5.95 2.0 4.25 L3.2 3.9 3.6 3.8 Q4.4 5.55 5.7 6.05 L7.2 6.65 7.8 7.0 Q9.05 7.7 9.1 8.7 L9.1 8.85 8.95 9.5 7.8 10.6 Q7.7 10.65 7.55 10.75 6.55 11.25 5.35 11.35 L4.75 11.35 3.5 11.25 1.65 10.6 0.65 9.7 0.4 8.85 Z" ffdec:has-small-stroke="true" ffdec:original-stroke-width="0.5" fill="none" stroke="#ece2df" stroke-linecap="round" stroke-linejoin="round" stroke-width="1.0"/>
      <path d="M1.7 3.2 Q2.3 2.7 3.05 2.55 3.8 2.4 4.25 2.75 4.85 3.1 4.85 3.7 4.85 4.3 4.25 4.85 3.8 5.35 3.05 5.5 L1.7 5.3 Q1.25 4.95 1.25 4.35 1.25 3.75 1.7 3.2" fill="url(#gradient5)" fill-rule="evenodd" stroke="none"/>
      <path d="M5.4 -4.55 L2.05 -3.9 0.5 -4.85 3.85 -5.5 5.4 -4.55" fill="#f3e9e5" fill-rule="evenodd" stroke="none"/>
      <path d="M4.2 3.3 L4.4 -1.05 Q4.35 -3.1 3.8 -2.75 3.2 -2.5 2.8 0.05 2.3 2.55 2.3 3.8 L2.05 -3.9 5.4 -4.55 5.4 2.9 4.35 3.2 4.2 3.3" fill="#c9bcb8" fill-rule="evenodd" stroke="none"/>
      <path d="M2.05 -3.9 L2.3 3.8 0.9 2.9 0.5 -4.85 2.05 -3.9" fill="#746b68" fill-rule="evenodd" stroke="none"/>
      <path d="M2.3 3.8 Q2.3 2.55 2.8 0.05 3.2 -2.5 3.8 -2.75 4.35 -3.1 4.4 -1.05 L4.2 3.3 2.3 3.8" fill="#b1a3a3" fill-rule="evenodd" stroke="none"/>
      <path d="M1.2 -1.2 Q0.8 -0.75 0.2 -0.75 -0.45 -0.75 -0.9 -1.2 -1.3 -1.6 -1.3 -2.2 -1.3 -2.8 -0.9 -3.3 -0.45 -3.7 0.2 -3.7 0.8 -3.7 1.2 -3.3 L1.65 -2.2 Q1.65 -1.6 1.2 -1.2" fill="url(#gradient6)" fill-rule="evenodd" stroke="none"/>
      <path d="M3.45 -2.9 L4.4 -3.0 5.7 -2.3 5.75 -2.2 4.95 -2.1 3.45 -2.9" fill="#f3e9e5" fill-rule="evenodd" stroke="none"/>
      <path d="M5.25 4.3 L4.25 3.6 Q3.85 1.35 4.2 -1.55 L3.45 -1.95 3.45 -2.9 4.95 -2.1 Q4.45 1.55 5.25 4.3" fill="#746b68" fill-rule="evenodd" stroke="none"/>
      <path d="M5.75 -2.2 Q6.7 0.8 6.0 4.05 L5.25 4.3 Q4.45 1.55 4.95 -2.1 L5.75 -2.2" fill="#c9bcb8" fill-rule="evenodd" stroke="none"/>
    </g>
    <radialGradient cx="0" cy="0" gradientTransform="matrix(0.0023, 0.0, 0.0, 0.0023, 6.0, -4.1)" gradientUnits="userSpaceOnUse" id="gradient0" r="819.2" spreadMethod="pad">
      <stop offset="0.1843137254901961" stop-color="#f3e9e5"/>
      <stop offset="0.8549019607843137" stop-color="#746b68"/>
    </radialGradient>
    <radialGradient cx="0" cy="0" gradientTransform="matrix(0.0065, 0.0, 0.0, 0.0065, 2.1, 8.5)" gradientUnits="userSpaceOnUse" id="gradient1" r="819.2" spreadMethod="pad">
      <stop offset="0.1843137254901961" stop-color="#f3e9e5"/>
      <stop offset="0.8549019607843137" stop-color="#746b68"/>
    </radialGradient>
    <radialGradient cx="0" cy="0" gradientTransform="matrix(0.0065, 0.0, 0.0, 0.0065, 2.1, 8.5)" gradientUnits="userSpaceOnUse" id="gradient2" r="819.2" spreadMethod="pad">
      <stop offset="0.1843137254901961" stop-color="#dbd0cb"/>
      <stop offset="0.8549019607843137" stop-color="#5f5754"/>
    </radialGradient>
    <radialGradient cx="0" cy="0" gradientTransform="matrix(0.0056, 0.0, 0.0, 0.0029, 4.4, 9.65)" gradientUnits="userSpaceOnUse" id="gradient3" r="819.2" spreadMethod="pad">
      <stop offset="0.2196078431372549" stop-color="#91c93e"/>
      <stop offset="0.7843137254901961" stop-color="#397006"/>
    </radialGradient>
    <radialGradient cx="0" cy="0" gradientTransform="matrix(0.0056, 0.0, 0.0, 0.0029, 4.4, 9.65)" gradientUnits="userSpaceOnUse" id="gradient4" r="819.2" spreadMethod="pad">
      <stop offset="0.2196078431372549" stop-color="#a7e150"/>
      <stop offset="0.8" stop-color="#4c8b10"/>
    </radialGradient>
    <radialGradient cx="0" cy="0" gradientTransform="matrix(0.0028, -5.0E-4, 0.0, 0.0023, 3.45, 3.5)" gradientUnits="userSpaceOnUse" id="gradient5" r="819.2" spreadMethod="pad">
      <stop offset="0.1843137254901961" stop-color="#f3e9e5"/>
      <stop offset="0.8549019607843137" stop-color="#746b68"/>
    </radialGradient>
    <radialGradient cx="0" cy="0" gradientTransform="matrix(0.0023, 0.0, 0.0, 0.0023, 0.5, -2.7)" gradientUnits="userSpaceOnUse" id="gradient6" r="819.2" spreadMethod="pad">
      <stop offset="0.1843137254901961" stop-color="#f3e9e5"/>
      <stop offset="0.8549019607843137" stop-color="#746b68"/>
    </radialGradient>
  </defs>
</svg>
