<?xml version="1.0" encoding="UTF-8" standalone="no"?>
<svg xmlns:ffdec="https://www.free-decompiler.com/flash" xmlns:xlink="http://www.w3.org/1999/xlink" ffdec:objectType="frame" height="151.55px" width="255.5px" xmlns="http://www.w3.org/2000/svg">
  <g transform="matrix(1.0, 0.0, 0.0, 1.0, 14.4, -28.0)">
    <use ffdec:characterId="1591" height="33.25" id="owner_mc" transform="matrix(1.0, 0.0, 0.0, 1.0, -7.0, 146.3)" width="230.95" xlink:href="#sprite0"/>
    <use ffdec:characterId="1592" height="13.25" transform="matrix(1.0, 0.0, 0.0, 1.0, -14.4, 28.5)" width="107.8" xlink:href="#text1"/>
    <use ffdec:characterId="1593" height="13.35" transform="matrix(1.0, 0.0, 0.0, 1.0, -14.35, 72.65)" width="109.45" xlink:href="#text2"/>
    <use ffdec:characterId="1594" height="13.25" transform="matrix(1.0, 0.0, 0.0, 1.0, -14.0, 119.55)" width="81.85" xlink:href="#text3"/>
    <use ffdec:characterId="1595" height="19.0" id="adoptionDate_tx" transform="matrix(1.0, 0.0, 0.0, 1.0, 103.8, 28.0)" width="137.3" xlink:href="#text4"/>
    <use ffdec:characterId="1596" height="19.0" id="juggle_tx" transform="matrix(1.0, 0.0, 0.0, 1.0, 103.8, 72.15)" width="137.3" xlink:href="#text5"/>
    <use ffdec:characterId="1597" height="19.0" id="status_tx" transform="matrix(1.0, 0.0, 0.0, 1.0, 103.8, 119.05)" width="137.3" xlink:href="#text6"/>
  </g>
  <defs>
    <g id="sprite0" transform="matrix(1.0, 0.0, 0.0, 1.0, -52.15, 7.4)">
      <filter id="filter2">
        <feColorMatrix in="SourceGraphic" result="filterResult10" type="matrix" values="0 0 0 0 1.0,0 0 0 0 1.0,0 0 0 0 1.0,0 0 0 1 0"/>
        <feConvolveMatrix divisor="16.0" in="filterResult10" kernelMatrix="1 1 1 1 1 1 1 1 1 1 1 1 1 1 1 1" order="4 4" result="filterResult11"/>
        <feComposite in="SourceGraphic" in2="filterResult11" operator="over" result="filterResult12"/>
      </filter>
      <use ffdec:characterId="1589" filter="url(#filter2)" height="86.8" id="bt" transform="matrix(-0.3834, 0.0, 0.0, 0.3834, 85.4279, -7.4151)" width="86.8" xlink:href="#button0"/>
      <use ffdec:characterId="1590" height="18.0" id="owner_tx" transform="matrix(1.0, 0.0, 0.0, 1.0, 96.85, 0.0)" width="186.25" xlink:href="#text0"/>
    </g>
    <g id="button0" transform="matrix(1.0, 0.0, 0.0, 1.0, 21.2, 15.95)">
      <use ffdec:characterId="1585" height="86.8" transform="matrix(1.0, 0.0, 0.0, 1.0, -21.2, -15.95)" width="86.8" xlink:href="#sprite1"/>
      <filter id="filter1">
        <feOffset dx="0.70711599583202" dy="0.7070975664209931" in="SourceGraphic" result="filterResult5"/>
        <feColorMatrix in="filterResult5" result="filterResult6" type="matrix" values="0 0 0 0 0.0,0 0 0 0 0.0,0 0 0 0 0.0,0 0 0 1 0"/>
        <feConvolveMatrix divisor="25.0" in="filterResult6" kernelMatrix="1 1 1 1 1 1 1 1 1 1 1 1 1 1 1 1 1 1 1 1 1 1 1 1 1" order="5 5" result="filterResult7"/>
        <feColorMatrix in="filterResult7" result="filterResult8" type="matrix" values="1 0 0 0 0,0 1 0 0 0,0 0 1 0 0,0 0 0 1.4375 0"/>
        <feComposite in="SourceGraphic" in2="filterResult8" operator="over" result="filterResult9"/>
      </filter>
      <use ffdec:characterId="1587" filter="url(#filter1)" height="45.35" transform="matrix(1.0, 0.0, 0.0, 1.0, -8.2, 5.1)" width="57.5" xlink:href="#sprite3"/>
    </g>
    <g id="sprite1" transform="matrix(1.0, 0.0, 0.0, 1.0, 4.65, 4.65)">
      <use ffdec:characterId="1582" height="78.0" transform="matrix(1.0, 0.0, 0.0, 1.0, 0.0, 0.0)" width="78.0" xlink:href="#shape0"/>
      <filter id="filter0">
        <feOffset dx="0.70711599583202" dy="0.7070975664209931" in="SourceGraphic" result="filterResult0"/>
        <feColorMatrix in="filterResult0" result="filterResult1" type="matrix" values="0 0 0 0 0.0,0 0 0 0 0.0,0 0 0 0 0.0,0 0 0 1 0"/>
        <feConvolveMatrix divisor="25.0" in="filterResult1" kernelMatrix="1 1 1 1 1 1 1 1 1 1 1 1 1 1 1 1 1 1 1 1 1 1 1 1 1" order="5 5" result="filterResult2"/>
        <feColorMatrix in="filterResult2" result="filterResult3" type="matrix" values="1 0 0 0 0,0 1 0 0 0,0 0 1 0 0,0 0 0 1.4375 0"/>
        <feComposite in="SourceGraphic" in2="filterResult3" operator="over" result="filterResult4"/>
      </filter>
      <use ffdec:characterId="1584" filter="url(#filter0)" height="86.8" transform="matrix(1.0, 0.0, 0.0, 1.0, -4.65, -4.65)" width="86.8" xlink:href="#sprite2"/>
    </g>
    <g id="shape0" transform="matrix(1.0, 0.0, 0.0, 1.0, 0.0, 0.0)">
      <path d="M78.0 39.0 Q78.0 55.15 66.6 66.55 55.15 78.0 39.0 78.0 22.85 78.0 11.45 66.55 0.0 55.15 0.0 39.0 0.0 22.85 11.45 11.4 22.85 0.0 39.0 0.0 55.15 0.0 66.6 11.4 78.0 22.85 78.0 39.0" fill="url(#gradient0)" fill-rule="evenodd" stroke="none"/>
    </g>
    <linearGradient gradientTransform="matrix(0.0, 0.0476, -0.0476, 0.0, 39.0, 39.0)" gradientUnits="userSpaceOnUse" id="gradient0" spreadMethod="pad" x1="-819.2" x2="819.2">
      <stop offset="0.0" stop-color="#710391"/>
      <stop offset="1.0" stop-color="#2b013a"/>
    </linearGradient>
    <g id="sprite2" transform="matrix(1.0, 0.0, 0.0, 1.0, 4.4, 4.4)">
      <use ffdec:characterId="1583" height="86.8" transform="matrix(1.0, 0.0, 0.0, 1.0, -4.4, -4.4)" width="86.8" xlink:href="#shape1"/>
    </g>
    <g id="shape1" transform="matrix(1.0, 0.0, 0.0, 1.0, 4.4, 4.4)">
      <path d="M78.0 39.0 Q78.0 55.15 66.55 66.55 55.15 78.0 39.0 78.0 22.85 78.0 11.4 66.55 0.0 55.15 0.0 39.0 0.0 22.85 11.4 11.4 22.85 0.0 39.0 0.0 55.15 0.0 66.55 11.4 78.0 22.85 78.0 39.0 Z" fill="none" stroke="#ffffff" stroke-linecap="round" stroke-linejoin="round" stroke-width="8.8"/>
    </g>
    <g id="sprite3" transform="matrix(1.0, 0.0, 0.0, 1.0, 4.4, 0.0)">
      <use ffdec:characterId="1586" height="45.35" transform="matrix(1.0, 0.0, 0.0, 1.0, -4.4, 0.0)" width="57.5" xlink:href="#shape2"/>
    </g>
    <g id="shape2" transform="matrix(1.0, 0.0, 0.0, 1.0, 4.4, 0.0)">
      <path d="M42.5 10.45 Q41.9 9.45 40.75 9.2 39.6 8.95 38.6 9.55 37.65 10.2 37.4 11.35 37.15 12.55 37.75 13.45 38.4 14.45 39.55 14.7 40.7 14.95 41.65 14.35 42.65 13.75 42.9 12.55 43.15 11.4 42.5 10.45 M50.95 7.0 Q53.4 9.9 53.05 13.65 52.75 17.4 49.85 19.8 L47.8 21.15 Q49.15 24.8 48.8 28.85 L48.4 31.2 Q46.8 38.5 40.55 42.45 34.3 46.5 27.0 44.85 19.7 43.25 15.7 36.95 11.7 30.75 13.3 23.45 14.75 17.05 19.7 13.2 L19.25 12.5 19.0 11.8 29.9 16.6 17.4 9.6 3.15 28.6 Q2.05 30.0 0.45 30.15 -1.3 30.35 -2.65 29.35 L-3.75 28.0 Q-4.35 27.1 -4.4 26.4 -4.55 24.8 -3.45 23.4 L14.05 2.85 Q14.85 1.75 16.2 1.55 17.55 1.35 18.65 2.15 L32.55 12.0 29.6 9.4 30.1 8.4 Q30.35 7.25 29.7 6.3 29.15 5.35 27.95 5.05 26.85 4.8 25.8 5.45 L25.4 5.75 20.95 1.9 Q21.35 1.6 21.9 1.25 24.8 -0.55 28.15 0.2 31.55 0.95 33.45 3.8 35.2 6.6 34.6 9.75 L34.75 9.75 35.35 9.95 Q36.15 7.6 38.1 5.9 41.0 3.5 44.8 3.8 48.6 4.1 50.95 7.0 M41.75 26.35 Q25.8 26.7 20.0 20.15 17.6 42.25 41.75 26.35" fill="#ffffff" fill-rule="evenodd" stroke="none"/>
    </g>
    <g id="text0" transform="matrix(1.0, 0.0, 0.0, 1.0, 2.0, 2.0)">
      <g transform="matrix(1.0, 0.0, 0.0, 1.0, -2.0, -2.0)">
        <use fill="#3a97f7" height="18.0" transform="matrix(0.0137, 0.0, 0.0, 0.0137, 0.0, 10.5)" width="186.25" xlink:href="#font_Burbank_Big_Regular_Black_d0"/>
        <use fill="#3a97f7" height="18.0" transform="matrix(0.0137, 0.0, 0.0, 0.0137, 8.5, 10.5)" width="186.25" xlink:href="#font_Burbank_Big_Regular_Black_a0"/>
        <use fill="#3a97f7" height="18.0" transform="matrix(0.0137, 0.0, 0.0, 0.0137, 16.5, 10.5)" width="186.25" xlink:href="#font_Burbank_Big_Regular_Black_n0"/>
        <use fill="#3a97f7" height="18.0" transform="matrix(0.0137, 0.0, 0.0, 0.0137, 24.6, 10.5)" width="186.25" xlink:href="#font_Burbank_Big_Regular_Black_a0"/>
        <use fill="#3a97f7" height="18.0" transform="matrix(0.0137, 0.0, 0.0, 0.0137, 32.6, 10.5)" width="186.25" xlink:href="#font_Burbank_Big_Regular_Black_20"/>
        <use fill="#3a97f7" height="18.0" transform="matrix(0.0137, 0.0, 0.0, 0.0137, 41.15, 10.5)" width="186.25" xlink:href="#font_Burbank_Big_Regular_Black_20"/>
        <use fill="#3a97f7" height="18.0" transform="matrix(0.0137, 0.0, 0.0, 0.0137, 49.7, 10.5)" width="186.25" xlink:href="#font_Burbank_Big_Regular_Black_c0"/>
        <use fill="#3a97f7" height="18.0" transform="matrix(0.0137, 0.0, 0.0, 0.0137, 57.8, 10.5)" width="186.25" xlink:href="#font_Burbank_Big_Regular_Black_c0"/>
      </g>
    </g>
    <g id="font_Burbank_Big_Regular_Black_d0">
      <path d="M297.0 -125.0 Q311.0 -124.5 323.0 -135.0 334.5 -146.0 342.0 -175.5 349.0 -205.5 349.0 -261.0 349.0 -320.0 336.0 -354.0 323.0 -387.5 296.0 -388.0 270.0 -388.5 258.0 -356.5 245.5 -324.5 246.0 -256.0 246.0 -186.5 260.0 -155.5 274.5 -124.5 297.0 -125.0 M558.0 20.5 L528.5 20.0 Q500.5 19.5 459.5 19.5 418.5 19.0 379.0 19.5 L380.5 -6.5 Q382.5 -32.0 384.0 -76.0 359.5 -32.0 319.0 -11.0 278.5 10.5 231.5 10.0 167.0 10.5 118.5 -20.0 69.5 -50.0 42.0 -111.5 15.0 -172.5 14.5 -266.0 14.5 -343.0 37.0 -402.0 59.0 -460.5 103.5 -493.5 148.0 -527.0 214.0 -527.5 257.0 -527.0 289.5 -509.0 321.5 -491.0 343.0 -462.0 342.5 -501.5 340.5 -561.5 338.5 -622.0 335.0 -704.5 L352.5 -704.0 Q371.5 -703.5 420.5 -703.5 470.0 -703.5 560.0 -705.5 L559.5 -647.5 558.5 -491.0 Q557.5 -390.5 557.5 -259.5 557.5 -129.0 558.0 20.5" fill-rule="evenodd" stroke="none"/>
    </g>
    <g id="font_Burbank_Big_Regular_Black_a0">
      <path d="M264.0 -115.5 Q289.0 -115.0 303.0 -136.0 317.0 -157.0 316.5 -214.0 L316.5 -222.0 Q267.0 -220.5 245.5 -202.5 224.0 -184.0 224.5 -158.5 224.5 -139.0 234.0 -127.5 244.0 -116.0 264.0 -115.5 M187.5 17.5 Q134.0 17.0 94.0 -0.5 53.5 -18.5 30.5 -52.0 7.5 -85.5 7.0 -132.0 7.0 -218.5 70.0 -262.0 132.5 -306.0 262.0 -305.0 273.0 -305.0 284.5 -304.5 L307.0 -303.0 307.0 -318.5 Q306.0 -355.0 297.0 -370.5 288.0 -386.5 270.5 -386.0 251.5 -386.0 241.5 -370.0 231.5 -354.5 229.5 -325.5 L175.0 -326.5 26.5 -329.5 Q29.5 -388.5 59.5 -433.0 90.0 -477.5 144.5 -503.0 199.5 -528.0 275.5 -528.5 366.0 -528.0 421.0 -500.0 476.0 -472.0 502.0 -419.0 527.5 -366.0 529.5 -291.0 530.5 -234.0 530.5 -180.0 530.5 -126.0 530.0 -82.5 L529.0 -13.0 528.5 13.5 479.0 14.0 347.0 15.5 Q347.5 15.0 349.0 -5.5 L352.5 -59.5 Q326.5 -17.5 282.0 0.0 237.5 18.0 187.5 17.5" fill-rule="evenodd" stroke="none"/>
    </g>
    <g id="font_Burbank_Big_Regular_Black_n0">
      <path d="M317.5 18.5 L318.0 -8.5 319.0 -79.0 Q320.0 -123.5 320.0 -178.5 320.0 -233.5 319.5 -292.0 319.0 -316.0 311.0 -329.0 303.0 -342.0 284.5 -342.0 265.0 -342.0 256.5 -329.0 248.0 -315.5 247.0 -289.0 246.0 -266.5 245.5 -232.5 245.0 -198.5 245.0 -161.0 L245.0 -90.0 245.5 -36.0 Q245.5 -15.0 246.0 -14.5 L225.5 -14.5 Q205.5 -15.0 173.0 -15.0 140.0 -15.5 101.5 -15.0 63.0 -15.0 24.5 -14.5 L25.5 -76.5 Q26.5 -137.5 27.0 -247.0 27.5 -356.5 26.5 -503.0 27.5 -502.5 52.5 -502.5 77.5 -502.0 116.0 -502.0 155.0 -502.5 196.5 -504.0 L196.0 -491.5 Q195.5 -479.5 195.5 -461.0 195.0 -443.0 195.5 -423.0 219.0 -469.5 265.5 -499.0 312.5 -529.0 369.5 -529.5 445.5 -528.5 487.5 -482.0 530.0 -435.5 533.5 -347.0 534.5 -322.0 535.0 -278.0 535.5 -234.5 535.5 -184.0 L535.5 -87.5 535.5 -12.5 535.5 17.5 Q511.0 17.0 475.0 17.0 439.0 17.0 403.0 17.5 367.0 18.0 342.5 18.0 L317.5 18.5" fill-rule="evenodd" stroke="none"/>
    </g>
    <g id="font_Burbank_Big_Regular_Black_20">
      <path d="M565.0 1.0 Q293.0 -4.5 158.0 -5.0 23.5 -5.5 23.5 -5.0 20.5 -67.0 19.0 -119.5 17.5 -171.5 17.0 -203.5 L16.5 -236.5 Q119.0 -266.5 192.5 -305.5 265.5 -344.0 304.5 -390.5 343.5 -436.5 344.0 -488.5 344.0 -519.5 332.0 -537.0 320.5 -554.5 298.0 -555.0 265.5 -556.0 250.5 -520.0 236.0 -484.0 241.5 -398.5 L182.0 -399.0 Q123.0 -399.5 13.5 -397.5 -1.0 -560.0 75.5 -643.5 152.5 -727.5 309.0 -728.0 403.5 -727.5 464.0 -699.0 524.5 -671.0 553.5 -619.0 583.0 -567.0 582.5 -496.5 581.5 -395.0 509.0 -317.0 437.0 -239.0 308.0 -196.5 431.0 -198.0 496.5 -201.5 L562.0 -206.0 Q562.5 -99.0 563.5 -48.5 L565.0 1.0" fill-rule="evenodd" stroke="none"/>
    </g>
    <g id="font_Burbank_Big_Regular_Black_c0">
      <path d="M289.0 14.5 Q149.5 13.5 81.5 -57.0 14.0 -128.0 14.5 -260.0 14.5 -343.0 44.5 -403.0 75.0 -463.5 135.0 -496.0 195.0 -529.0 284.5 -529.5 368.0 -529.0 427.0 -498.0 486.0 -467.0 517.5 -414.0 548.5 -360.5 548.0 -293.0 510.5 -294.0 471.5 -294.0 L397.5 -293.0 Q363.5 -292.5 342.5 -291.5 L320.5 -291.0 Q321.5 -333.0 311.5 -358.0 302.0 -383.5 280.5 -384.0 258.5 -384.0 248.5 -352.5 238.5 -320.5 238.5 -256.0 238.5 -196.5 249.0 -168.5 260.0 -141.0 280.5 -141.5 297.0 -140.5 307.5 -158.5 318.0 -177.0 318.5 -222.0 L371.5 -220.0 Q426.0 -218.5 551.0 -218.0 544.0 -135.0 508.0 -83.5 471.5 -32.5 414.5 -9.0 357.5 14.5 289.0 14.5" fill-rule="evenodd" stroke="none"/>
    </g>
    <g id="text1" transform="matrix(1.0, 0.0, 0.0, 1.0, 0.0, 1.5)">
      <g transform="matrix(1.0, 0.0, 0.0, 1.0, 0.0, 0.0)">
        <use fill="#4d0362" height="13.25" transform="matrix(0.0137, 0.0, 0.0, 0.0137, 0.0, 11.0)" width="107.8" xlink:href="#font_Burbank_Big_Regular_Black_A0"/>
        <use fill="#4d0362" height="13.25" transform="matrix(0.0137, 0.0, 0.0, 0.0137, 8.95, 11.0)" width="107.8" xlink:href="#font_Burbank_Big_Regular_Black_D0"/>
        <use fill="#4d0362" height="13.25" transform="matrix(0.0137, 0.0, 0.0, 0.0137, 18.05, 11.0)" width="107.8" xlink:href="#font_Burbank_Big_Regular_Black_O0"/>
        <use fill="#4d0362" height="13.25" transform="matrix(0.0137, 0.0, 0.0, 0.0137, 27.45, 11.0)" width="107.8" xlink:href="#font_Burbank_Big_Regular_Black_P0"/>
        <use fill="#4d0362" height="13.25" transform="matrix(0.0137, 0.0, 0.0, 0.0137, 35.95, 11.0)" width="107.8" xlink:href="#font_Burbank_Big_Regular_Black_T0"/>
        <use fill="#4d0362" height="13.25" transform="matrix(0.0137, 0.0, 0.0, 0.0137, 43.65, 11.0)" width="107.8" xlink:href="#font_Burbank_Big_Regular_Black_I0"/>
        <use fill="#4d0362" height="13.25" transform="matrix(0.0137, 0.0, 0.0, 0.0137, 48.2, 11.0)" width="107.8" xlink:href="#font_Burbank_Big_Regular_Black_O0"/>
        <use fill="#4d0362" height="13.25" transform="matrix(0.0137, 0.0, 0.0, 0.0137, 57.6, 11.0)" width="107.8" xlink:href="#font_Burbank_Big_Regular_Black_N0"/>
        <use fill="#4d0362" height="13.25" transform="matrix(0.0137, 0.0, 0.0, 0.0137, 70.3, 11.0)" width="107.8" xlink:href="#font_Burbank_Big_Regular_Black_D0"/>
        <use fill="#4d0362" height="13.25" transform="matrix(0.0137, 0.0, 0.0, 0.0137, 79.4, 11.0)" width="107.8" xlink:href="#font_Burbank_Big_Regular_Black_A0"/>
        <use fill="#4d0362" height="13.25" transform="matrix(0.0137, 0.0, 0.0, 0.0137, 88.35, 11.0)" width="107.8" xlink:href="#font_Burbank_Big_Regular_Black_T0"/>
        <use fill="#4d0362" height="13.25" transform="matrix(0.0137, 0.0, 0.0, 0.0137, 96.05, 11.0)" width="107.8" xlink:href="#font_Burbank_Big_Regular_Black_E0"/>
        <use fill="#4d0362" height="13.25" transform="matrix(0.0137, 0.0, 0.0, 0.0137, 103.5, 11.0)" width="107.8" xlink:href="#font_Burbank_Big_Regular_Black_:0"/>
      </g>
    </g>
    <g id="font_Burbank_Big_Regular_Black_A0">
      <path d="M300.0 -558.0 Q293.0 -516.5 281.5 -441.0 270.0 -365.0 256.0 -262.0 L344.0 -262.0 300.0 -558.0 M0.0 -16.5 L11.0 -67.5 41.0 -211.5 86.0 -432.0 Q112.0 -559.5 142.5 -713.5 208.0 -716.0 267.5 -717.0 L372.5 -718.5 445.0 -719.0 472.0 -719.0 Q472.5 -718.0 483.5 -660.0 L515.0 -500.0 Q535.0 -398.5 562.0 -265.5 588.5 -133.0 619.5 17.5 L585.0 17.0 Q551.0 16.5 497.5 16.5 444.0 16.5 383.0 17.5 L379.5 -10.0 Q376.0 -38.0 367.5 -95.0 343.0 -95.5 310.0 -95.5 L233.5 -96.5 224.5 -15.5 192.5 -16.0 111.0 -17.0 Q60.0 -17.5 0.0 -16.5" fill-rule="evenodd" stroke="none"/>
    </g>
    <g id="font_Burbank_Big_Regular_Black_D0">
      <path d="M28.5 4.0 Q30.0 -149.5 30.0 -278.5 30.5 -407.5 30.5 -503.0 30.0 -598.5 30.0 -651.0 L29.5 -704.5 Q85.0 -713.5 134.5 -718.5 184.0 -723.0 228.5 -723.0 426.5 -723.0 520.5 -629.0 614.0 -535.0 613.5 -343.0 613.5 -215.5 568.5 -136.0 524.0 -56.0 434.0 -19.0 344.0 18.0 209.0 17.5 168.0 17.5 123.0 14.0 78.0 10.5 28.5 4.0 M254.0 -155.5 Q293.5 -152.0 320.0 -166.0 346.0 -179.5 359.5 -222.5 372.5 -265.0 372.5 -349.0 373.5 -458.5 345.0 -505.5 317.0 -553.0 248.0 -545.0 249.0 -432.0 250.5 -344.5 251.5 -257.0 253.0 -207.0 L254.0 -155.5" fill-rule="evenodd" stroke="none"/>
    </g>
    <g id="font_Burbank_Big_Regular_Black_O0">
      <path d="M326.5 -146.5 Q348.0 -145.5 363.5 -162.0 378.5 -178.5 386.5 -223.5 394.0 -268.0 394.0 -352.5 394.0 -435.0 386.0 -480.0 378.0 -524.5 362.5 -542.0 347.0 -559.0 324.5 -558.0 301.0 -558.5 286.0 -540.0 270.5 -521.0 263.5 -475.0 256.0 -429.0 256.0 -348.0 256.0 -270.5 264.0 -226.0 271.5 -182.0 287.5 -164.0 303.0 -146.0 326.5 -146.5 M325.5 19.5 Q172.5 18.0 94.5 -75.5 16.0 -168.5 14.5 -348.0 13.5 -466.5 49.5 -551.0 85.5 -635.5 154.5 -680.5 224.0 -726.0 323.5 -727.0 433.5 -726.5 502.5 -682.0 572.0 -637.0 604.5 -552.5 637.0 -468.5 637.0 -349.0 635.5 -218.0 597.0 -136.5 559.0 -55.0 489.5 -17.5 420.5 20.0 325.5 19.5" fill-rule="evenodd" stroke="none"/>
    </g>
    <g id="font_Burbank_Big_Regular_Black_P0">
      <path d="M249.0 -536.5 Q248.5 -537.0 248.0 -480.5 247.5 -424.0 249.0 -308.0 302.0 -305.0 329.5 -331.5 357.0 -358.0 357.5 -425.0 357.5 -480.5 335.5 -509.0 314.0 -537.5 270.5 -537.5 L259.5 -537.5 249.0 -536.5 M28.5 -3.0 Q29.0 -4.0 30.0 -88.5 31.0 -172.5 32.0 -328.5 33.0 -484.5 33.0 -700.5 82.5 -707.5 128.0 -710.5 173.5 -714.0 214.0 -713.5 393.5 -714.0 486.0 -644.0 578.0 -574.0 578.5 -427.0 577.5 -329.0 535.5 -266.5 493.0 -204.0 419.5 -175.0 346.0 -146.0 252.0 -148.5 L256.0 -4.0 221.5 -4.5 Q188.0 -5.0 136.5 -4.5 84.5 -4.5 28.5 -3.0" fill-rule="evenodd" stroke="none"/>
    </g>
    <g id="font_Burbank_Big_Regular_Black_T0">
      <path d="M8.0 -508.0 Q8.5 -508.5 8.5 -560.5 8.5 -612.5 7.0 -711.5 L38.5 -711.5 121.5 -711.5 240.0 -711.5 377.5 -712.5 518.0 -713.5 517.5 -685.5 Q516.5 -658.0 516.0 -612.0 515.5 -565.5 516.0 -508.0 L497.0 -508.0 446.0 -508.0 374.0 -509.0 Q373.5 -420.5 374.5 -295.0 375.5 -169.5 378.0 3.0 L349.5 3.0 Q321.0 2.5 271.0 3.0 220.5 3.0 153.5 4.0 L153.5 -59.0 153.0 -235.5 151.5 -509.0 8.0 -508.0" fill-rule="evenodd" stroke="none"/>
    </g>
    <g id="font_Burbank_Big_Regular_Black_I0">
      <path d="M38.0 1.0 L38.0 -54.0 38.0 -205.5 36.5 -431.5 34.0 -710.5 91.5 -711.0 Q148.5 -711.0 258.0 -711.5 L258.5 -652.5 259.5 -494.0 Q260.0 -393.5 261.0 -266.5 L263.0 1.0 234.5 1.0 Q206.5 0.5 156.0 0.5 105.5 0.5 38.0 1.0" fill-rule="evenodd" stroke="none"/>
    </g>
    <g id="font_Burbank_Big_Regular_Black_N0">
      <path d="M31.5 -17.5 Q32.0 -18.5 32.5 -98.5 33.0 -179.0 32.0 -328.5 31.5 -478.0 28.5 -686.0 L58.0 -687.5 134.0 -691.0 238.5 -694.5 Q238.5 -694.0 257.0 -652.5 275.0 -611.5 309.0 -535.5 343.5 -459.0 392.0 -353.5 390.5 -408.0 386.0 -500.0 381.0 -592.0 371.5 -730.0 L400.5 -729.5 475.0 -728.5 Q522.0 -728.0 579.5 -728.0 L581.0 -640.0 Q582.5 -552.5 586.0 -389.5 590.0 -226.0 597.0 2.0 L570.5 4.5 Q544.5 7.5 498.0 11.0 L389.0 18.5 Q389.0 18.0 370.0 -23.5 L315.5 -140.0 Q280.0 -215.0 230.5 -317.5 L234.5 -193.5 Q237.5 -119.5 242.5 -15.5 L214.0 -16.0 138.5 -17.0 Q91.0 -17.5 31.5 -17.5" fill-rule="evenodd" stroke="none"/>
    </g>
    <g id="font_Burbank_Big_Regular_Black_E0">
      <path d="M37.0 -4.0 L36.5 -56.5 Q36.5 -108.0 35.5 -202.0 L33.0 -425.5 Q31.5 -554.0 28.5 -709.5 28.5 -710.0 143.0 -712.0 257.0 -714.5 487.5 -717.0 L487.5 -665.5 Q487.5 -615.0 489.5 -525.5 L458.5 -525.0 374.5 -523.5 250.0 -520.0 Q249.0 -481.0 249.5 -460.0 L250.0 -439.5 267.0 -439.0 326.5 -439.0 442.5 -440.5 Q442.0 -440.0 441.5 -396.0 441.5 -351.5 443.5 -265.0 444.0 -265.5 398.0 -265.5 352.0 -266.0 254.0 -266.0 255.0 -228.0 256.0 -208.0 L257.0 -188.5 313.5 -186.0 Q371.0 -183.5 489.5 -181.0 L488.5 -133.5 Q487.5 -86.0 487.5 6.0 L452.5 5.0 356.0 2.0 Q294.5 0.5 213.0 -1.0 131.5 -3.0 37.0 -4.0" fill-rule="evenodd" stroke="none"/>
    </g>
    <g id="font_Burbank_Big_Regular_Black_:0">
      <path d="M122.0 -267.5 Q68.5 -268.0 38.5 -300.0 8.5 -331.5 8.0 -386.0 9.0 -439.0 40.5 -468.5 71.5 -498.0 124.0 -498.5 179.5 -498.0 208.5 -467.0 237.5 -436.0 237.5 -386.0 237.0 -342.5 221.5 -316.5 206.0 -290.5 180.0 -278.5 154.0 -267.0 122.0 -267.5 M125.0 19.5 Q72.0 18.5 41.5 -13.0 11.0 -45.0 10.0 -97.5 11.0 -151.0 42.5 -182.0 74.0 -213.5 127.0 -214.0 180.5 -213.0 211.0 -182.0 241.0 -150.5 241.5 -97.5 241.0 -37.0 209.5 -8.5 178.0 19.5 125.0 19.5" fill-rule="evenodd" stroke="none"/>
    </g>
    <g id="text2" transform="matrix(1.0, 0.0, 0.0, 1.0, -0.05, 1.5)">
      <g transform="matrix(1.0, 0.0, 0.0, 1.0, 0.0, 0.0)">
        <use fill="#4d0362" height="13.35" transform="matrix(0.0137, 0.0, 0.0, 0.0137, 0.0, 11.0)" width="109.45" xlink:href="#font_Burbank_Big_Regular_Black_J0"/>
        <use fill="#4d0362" height="13.35" transform="matrix(0.0137, 0.0, 0.0, 0.0137, 8.0, 11.0)" width="109.45" xlink:href="#font_Burbank_Big_Regular_Black_U0"/>
        <use fill="#4d0362" height="13.35" transform="matrix(0.0137, 0.0, 0.0, 0.0137, 16.75, 11.0)" width="109.45" xlink:href="#font_Burbank_Big_Regular_Black_G0"/>
        <use fill="#4d0362" height="13.35" transform="matrix(0.0137, 0.0, 0.0, 0.0137, 26.1, 11.0)" width="109.45" xlink:href="#font_Burbank_Big_Regular_Black_G0"/>
        <use fill="#4d0362" height="13.35" transform="matrix(0.0137, 0.0, 0.0, 0.0137, 35.45, 11.0)" width="109.45" xlink:href="#font_Burbank_Big_Regular_Black_L0"/>
        <use fill="#4d0362" height="13.35" transform="matrix(0.0137, 0.0, 0.0, 0.0137, 42.4, 11.0)" width="109.45" xlink:href="#font_Burbank_Big_Regular_Black_I0"/>
        <use fill="#4d0362" height="13.35" transform="matrix(0.0137, 0.0, 0.0, 0.0137, 46.95, 11.0)" width="109.45" xlink:href="#font_Burbank_Big_Regular_Black_N0"/>
        <use fill="#4d0362" height="13.35" transform="matrix(0.0137, 0.0, 0.0, 0.0137, 55.95, 11.0)" width="109.45" xlink:href="#font_Burbank_Big_Regular_Black_G0"/>
        <use fill="#4d0362" height="13.35" transform="matrix(0.0137, 0.0, 0.0, 0.0137, 69.0, 11.0)" width="109.45" xlink:href="#font_Burbank_Big_Regular_Black_S0"/>
        <use fill="#4d0362" height="13.35" transform="matrix(0.0137, 0.0, 0.0, 0.0137, 77.75, 11.0)" width="109.45" xlink:href="#font_Burbank_Big_Regular_Black_K0"/>
        <use fill="#4d0362" height="13.35" transform="matrix(0.0137, 0.0, 0.0, 0.0137, 86.75, 11.0)" width="109.45" xlink:href="#font_Burbank_Big_Regular_Black_I0"/>
        <use fill="#4d0362" height="13.35" transform="matrix(0.0137, 0.0, 0.0, 0.0137, 91.3, 11.0)" width="109.45" xlink:href="#font_Burbank_Big_Regular_Black_L0"/>
        <use fill="#4d0362" height="13.35" transform="matrix(0.0137, 0.0, 0.0, 0.0137, 98.25, 11.0)" width="109.45" xlink:href="#font_Burbank_Big_Regular_Black_L0"/>
        <use fill="#4d0362" height="13.35" transform="matrix(0.0137, 0.0, 0.0, 0.0137, 105.2, 11.0)" width="109.45" xlink:href="#font_Burbank_Big_Regular_Black_:0"/>
      </g>
    </g>
    <g id="font_Burbank_Big_Regular_Black_J0">
      <path d="M261.0 10.0 Q132.0 9.5 68.5 -58.0 5.0 -125.5 5.0 -253.0 5.0 -283.0 8.5 -313.5 11.5 -344.0 18.5 -371.5 L65.0 -366.5 Q113.0 -361.0 220.0 -353.5 218.0 -336.0 217.0 -318.0 216.0 -300.0 216.0 -283.5 216.0 -229.0 227.0 -204.5 238.0 -180.0 258.0 -180.0 275.5 -179.0 287.5 -198.0 299.0 -217.5 305.0 -271.0 311.5 -325.0 311.5 -427.0 311.5 -493.0 306.0 -562.5 300.5 -632.0 289.0 -716.0 L344.0 -719.0 508.0 -730.0 Q519.5 -652.5 526.5 -573.5 533.5 -495.0 533.5 -419.0 534.0 -282.0 507.0 -186.0 479.5 -90.5 419.5 -40.0 359.5 10.0 261.0 10.0" fill-rule="evenodd" stroke="none"/>
    </g>
    <g id="font_Burbank_Big_Regular_Black_U0">
      <path d="M307.0 14.5 Q159.0 15.5 86.5 -89.0 14.0 -193.5 14.5 -415.5 14.5 -483.0 20.5 -556.5 27.0 -629.5 40.0 -704.5 L92.0 -697.0 Q144.5 -689.5 256.0 -677.0 247.0 -607.0 242.0 -547.0 237.5 -486.5 237.5 -433.0 237.5 -342.5 245.0 -288.0 252.5 -233.5 266.5 -209.0 280.5 -185.0 300.0 -185.5 319.5 -184.5 333.0 -202.0 346.5 -220.0 353.5 -268.0 360.5 -316.0 360.5 -405.5 360.5 -476.0 355.0 -556.0 349.5 -636.0 339.0 -719.0 L395.5 -721.0 Q452.0 -723.0 562.0 -731.0 576.0 -647.0 583.5 -562.0 591.0 -477.5 591.0 -399.5 591.5 -191.5 522.0 -88.5 452.5 14.5 307.0 14.5" fill-rule="evenodd" stroke="none"/>
    </g>
    <g id="font_Burbank_Big_Regular_Black_G0">
      <path d="M324.5 22.5 Q234.0 23.0 164.0 -14.0 94.5 -51.0 54.5 -134.0 15.0 -216.5 14.5 -353.5 15.0 -542.0 95.5 -635.0 176.5 -728.5 327.5 -728.0 416.5 -727.5 480.0 -693.0 543.5 -658.0 579.5 -594.5 615.5 -530.5 621.5 -442.5 L597.5 -442.0 537.5 -440.5 Q501.5 -440.0 462.0 -438.5 L390.0 -435.0 Q387.0 -498.5 370.5 -528.0 354.0 -557.5 325.5 -557.0 300.5 -557.5 283.5 -538.0 267.0 -518.0 258.5 -473.0 250.0 -428.0 250.0 -352.5 250.5 -273.5 260.5 -227.0 270.5 -180.5 290.0 -160.5 310.0 -141.0 339.0 -141.5 367.5 -141.0 386.5 -161.5 406.0 -182.5 413.5 -230.5 L311.5 -226.5 312.0 -265.5 Q312.5 -305.0 310.5 -386.0 L338.0 -385.5 411.5 -385.0 Q458.0 -384.5 516.0 -384.5 574.0 -384.0 636.0 -384.0 638.5 -230.5 601.0 -141.0 563.5 -52.0 492.5 -14.0 422.0 23.5 324.5 22.5" fill-rule="evenodd" stroke="none"/>
    </g>
    <g id="font_Burbank_Big_Regular_Black_L0">
      <path d="M35.0 -3.0 L34.5 -61.5 34.0 -217.0 Q33.5 -316.0 32.0 -441.5 31.0 -567.0 28.5 -705.5 L83.0 -705.0 Q137.0 -704.0 250.0 -705.5 L249.5 -684.5 249.5 -607.0 250.5 -451.0 Q251.5 -350.5 254.0 -194.5 355.5 -191.5 412.0 -191.5 L469.0 -191.5 Q467.0 -102.0 467.5 -51.5 467.5 -1.0 468.0 0.0 L317.0 -2.0 Q241.0 -2.5 177.5 -2.5 L74.5 -3.0 35.0 -3.0" fill-rule="evenodd" stroke="none"/>
    </g>
    <g id="font_Burbank_Big_Regular_Black_S0">
      <path d="M305.0 17.5 Q156.5 16.5 82.5 -53.0 8.0 -123.0 6.0 -252.0 7.0 -251.5 68.5 -251.5 129.5 -251.0 239.5 -254.0 240.0 -202.0 256.5 -174.0 272.5 -146.0 306.0 -145.5 330.0 -145.0 342.5 -158.0 355.0 -171.0 355.5 -200.5 356.0 -219.0 345.0 -233.0 334.5 -247.0 305.5 -260.0 277.0 -273.0 223.0 -287.5 155.0 -305.5 108.5 -334.5 62.0 -363.5 38.0 -408.5 14.5 -453.5 14.5 -520.0 15.0 -591.0 50.5 -637.0 86.0 -683.5 149.0 -706.5 212.5 -729.0 296.0 -729.0 435.5 -729.5 509.0 -660.0 583.0 -590.5 585.5 -457.5 L555.5 -459.5 475.5 -462.5 Q424.5 -464.5 359.5 -465.0 361.5 -518.5 346.0 -542.5 331.0 -566.5 303.0 -566.5 278.5 -566.0 265.0 -551.0 252.0 -536.5 252.0 -510.0 251.5 -478.0 279.5 -456.0 308.0 -434.5 369.5 -421.0 453.5 -402.0 504.0 -374.0 554.0 -346.0 576.0 -304.5 598.0 -263.0 597.0 -203.0 596.5 -128.0 560.0 -79.0 523.5 -30.5 458.0 -6.5 393.0 17.5 305.0 17.5" fill-rule="evenodd" stroke="none"/>
    </g>
    <g id="font_Burbank_Big_Regular_Black_K0">
      <path d="M375.0 25.5 Q355.0 -47.5 338.5 -102.5 322.5 -157.5 310.5 -195.5 280.0 -141.0 250.0 -86.0 250.5 -50.0 251.5 -31.0 L252.0 -12.5 Q144.0 -13.5 86.5 -12.5 L28.5 -11.5 Q29.0 -162.0 29.0 -287.5 L29.0 -505.5 29.0 -648.0 28.5 -699.5 Q131.5 -697.5 190.5 -697.5 249.5 -698.0 251.0 -698.5 249.5 -609.0 249.0 -533.0 L249.0 -390.0 346.5 -646.5 Q378.0 -731.5 378.0 -731.0 L557.5 -724.5 619.5 -723.0 Q567.0 -608.0 529.5 -522.0 491.5 -436.0 470.0 -386.0 514.5 -261.0 547.5 -171.5 580.5 -82.0 599.0 -34.0 617.0 14.0 617.5 14.5 504.0 17.0 440.0 21.0 L375.0 25.5" fill-rule="evenodd" stroke="none"/>
    </g>
    <g id="text3" transform="matrix(1.0, 0.0, 0.0, 1.0, -0.4, 1.5)">
      <g transform="matrix(1.0, 0.0, 0.0, 1.0, 0.0, 0.0)">
        <use fill="#4d0362" height="13.25" transform="matrix(0.0137, 0.0, 0.0, 0.0137, 0.0, 11.0)" width="81.85" xlink:href="#font_Burbank_Big_Regular_Black_P0"/>
        <use fill="#4d0362" height="13.25" transform="matrix(0.0137, 0.0, 0.0, 0.0137, 8.5, 11.0)" width="81.85" xlink:href="#font_Burbank_Big_Regular_Black_E0"/>
        <use fill="#4d0362" height="13.25" transform="matrix(0.0137, 0.0, 0.0, 0.0137, 15.95, 11.0)" width="81.85" xlink:href="#font_Burbank_Big_Regular_Black_T0"/>
        <use fill="#4d0362" height="13.25" transform="matrix(0.0137, 0.0, 0.0, 0.0137, 27.35, 11.0)" width="81.85" xlink:href="#font_Burbank_Big_Regular_Black_S0"/>
        <use fill="#4d0362" height="13.25" transform="matrix(0.0137, 0.0, 0.0, 0.0137, 36.1, 11.0)" width="81.85" xlink:href="#font_Burbank_Big_Regular_Black_T0"/>
        <use fill="#4d0362" height="13.25" transform="matrix(0.0137, 0.0, 0.0, 0.0137, 43.8, 11.0)" width="81.85" xlink:href="#font_Burbank_Big_Regular_Black_A0"/>
        <use fill="#4d0362" height="13.25" transform="matrix(0.0137, 0.0, 0.0, 0.0137, 52.75, 11.0)" width="81.85" xlink:href="#font_Burbank_Big_Regular_Black_T0"/>
        <use fill="#4d0362" height="13.25" transform="matrix(0.0137, 0.0, 0.0, 0.0137, 60.45, 11.0)" width="81.85" xlink:href="#font_Burbank_Big_Regular_Black_U0"/>
        <use fill="#4d0362" height="13.25" transform="matrix(0.0137, 0.0, 0.0, 0.0137, 69.2, 11.0)" width="81.85" xlink:href="#font_Burbank_Big_Regular_Black_S0"/>
        <use fill="#4d0362" height="13.25" transform="matrix(0.0137, 0.0, 0.0, 0.0137, 77.95, 11.0)" width="81.85" xlink:href="#font_Burbank_Big_Regular_Black_:0"/>
      </g>
    </g>
    <g id="text4" transform="matrix(1.0, 0.0, 0.0, 1.0, 2.0, 2.0)">
      <g transform="matrix(1.0, 0.0, 0.0, 1.0, -2.0, -2.0)">
        <use fill="#018b01" height="19.0" transform="matrix(0.0146, 0.0, 0.0, 0.0146, 0.0, 11.25)" width="137.3" xlink:href="#font_Burbank_Big_Regular_Black_A0"/>
        <use fill="#018b01" height="19.0" transform="matrix(0.0146, 0.0, 0.0, 0.0146, 9.55, 11.25)" width="137.3" xlink:href="#font_Burbank_Big_Regular_Black_U0"/>
        <use fill="#018b01" height="19.0" transform="matrix(0.0146, 0.0, 0.0, 0.0146, 18.9, 11.25)" width="137.3" xlink:href="#font_Burbank_Big_Regular_Black_G0"/>
      </g>
      <g transform="matrix(1.0, 0.0, 0.0, 1.0, -2.0, -2.0)">
        <use fill="#018b01" height="19.0" transform="matrix(0.0146, 0.0, 0.0, 0.0146, 32.85, 11.25)" width="137.3" xlink:href="#font_Burbank_Big_Regular_Black_10"/>
        <use fill="#018b01" height="19.0" transform="matrix(0.0146, 0.0, 0.0, 0.0146, 39.75, 11.25)" width="137.3" xlink:href="#font_Burbank_Big_Regular_Black_00"/>
        <use fill="#018b01" height="19.0" transform="matrix(0.0146, 0.0, 0.0, 0.0146, 49.75, 11.25)" width="137.3" xlink:href="#font_Burbank_Big_Regular_Black_T0"/>
        <use fill="#018b01" height="19.0" transform="matrix(0.0146, 0.0, 0.0, 0.0146, 57.95, 11.25)" width="137.3" xlink:href="#font_Burbank_Big_Regular_Black_H0"/>
      </g>
      <g transform="matrix(1.0, 0.0, 0.0, 1.0, -2.0, -2.0)">
        <use fill="#018b01" height="19.0" transform="matrix(0.0146, 0.0, 0.0, 0.0146, 71.25, 11.25)" width="137.3" xlink:href="#font_Burbank_Big_Regular_Black_20"/>
        <use fill="#018b01" height="19.0" transform="matrix(0.0146, 0.0, 0.0, 0.0146, 80.4, 11.25)" width="137.3" xlink:href="#font_Burbank_Big_Regular_Black_00"/>
        <use fill="#018b01" height="19.0" transform="matrix(0.0146, 0.0, 0.0, 0.0146, 90.4, 11.25)" width="137.3" xlink:href="#font_Burbank_Big_Regular_Black_00"/>
        <use fill="#018b01" height="19.0" transform="matrix(0.0146, 0.0, 0.0, 0.0146, 100.4, 11.25)" width="137.3" xlink:href="#font_Burbank_Big_Regular_Black_60"/>
      </g>
    </g>
    <g id="font_Burbank_Big_Regular_Black_10">
      <path d="M151.5 3.0 Q153.0 -125.5 153.5 -214.5 154.0 -303.0 153.5 -358.5 153.0 -413.5 152.5 -441.5 109.0 -422.5 85.0 -410.5 61.0 -398.5 60.5 -398.5 33.0 -493.5 17.0 -545.5 0.5 -597.5 0.0 -598.0 111.0 -648.5 174.0 -679.5 L238.5 -710.5 339.0 -699.5 375.0 -695.5 Q375.0 -559.0 375.5 -434.5 376.5 -309.5 378.0 -211.5 379.0 -113.5 380.0 -56.0 L381.0 2.0 Q274.0 4.0 213.0 3.5 152.5 3.5 151.5 3.0" fill-rule="evenodd" stroke="none"/>
    </g>
    <g id="font_Burbank_Big_Regular_Black_00">
      <path d="M324.5 -148.5 Q345.0 -147.5 361.0 -164.0 376.5 -180.5 385.5 -225.5 394.0 -271.0 394.0 -356.5 394.0 -458.0 375.0 -502.0 356.5 -546.0 324.5 -545.0 299.0 -545.5 283.5 -527.0 268.0 -509.0 261.0 -465.5 254.0 -422.5 254.0 -347.0 253.5 -241.5 270.5 -194.5 287.5 -147.5 324.5 -148.5 M323.5 28.5 Q227.0 28.5 158.0 -16.0 88.5 -60.0 51.5 -144.5 14.5 -228.5 14.5 -349.0 15.0 -476.5 52.5 -558.5 90.5 -640.5 159.5 -679.5 229.0 -719.0 323.5 -719.0 477.0 -719.5 556.0 -629.0 635.5 -538.5 636.0 -352.5 635.0 -165.0 555.0 -68.5 475.0 28.0 323.5 28.5" fill-rule="evenodd" stroke="none"/>
    </g>
    <g id="font_Burbank_Big_Regular_Black_H0">
      <path d="M351.0 18.5 L351.0 -200.5 316.0 -200.5 Q293.5 -200.5 252.0 -199.5 L255.0 -19.5 224.0 -20.0 144.0 -20.0 Q94.0 -20.0 33.0 -18.5 L33.0 -67.5 32.5 -206.0 Q32.5 -296.0 31.5 -420.0 30.5 -543.5 28.5 -694.5 29.5 -694.0 86.0 -694.5 142.5 -694.5 248.0 -695.5 L248.0 -656.5 Q248.0 -618.0 248.5 -548.5 249.0 -479.0 250.0 -385.0 L284.0 -384.5 Q308.0 -384.0 350.0 -384.0 L347.0 -729.0 376.0 -728.5 455.0 -728.5 Q505.5 -728.5 571.5 -730.0 L571.5 -672.0 Q571.5 -614.5 572.0 -512.5 572.0 -410.0 572.5 -274.5 L574.5 19.5 545.5 18.5 Q517.0 17.5 467.0 17.5 417.0 17.0 351.0 18.5" fill-rule="evenodd" stroke="none"/>
    </g>
    <g id="font_Burbank_Big_Regular_Black_60">
      <path d="M327.5 -306.0 Q310.0 -306.0 293.0 -300.0 276.5 -293.5 261.0 -282.5 267.5 -210.0 285.0 -179.5 303.0 -149.5 331.0 -150.5 358.0 -150.5 370.5 -171.5 383.0 -192.5 383.0 -233.5 383.0 -269.0 370.0 -287.5 356.5 -306.0 327.5 -306.0 M322.5 24.5 Q168.0 24.0 91.5 -70.0 14.5 -164.5 14.5 -346.0 14.0 -460.0 47.0 -545.5 80.0 -631.0 150.5 -678.5 220.5 -726.5 332.0 -727.0 426.5 -726.5 487.5 -695.5 549.0 -664.5 579.5 -610.0 609.5 -555.0 610.5 -483.5 493.5 -486.0 431.5 -484.5 L368.5 -482.5 Q366.5 -518.0 356.0 -537.5 345.5 -557.0 325.5 -557.0 294.0 -558.5 278.0 -520.0 261.5 -481.5 259.0 -388.0 290.5 -417.0 333.0 -434.0 376.0 -451.0 422.0 -451.5 527.5 -450.5 576.5 -394.5 625.0 -338.5 624.5 -242.5 623.5 -148.5 583.0 -89.0 542.5 -30.0 474.5 -2.5 406.5 25.0 322.5 24.5" fill-rule="evenodd" stroke="none"/>
    </g>
    <g id="text5" transform="matrix(1.0, 0.0, 0.0, 1.0, 2.0, 2.0)">
      <g transform="matrix(1.0, 0.0, 0.0, 1.0, -2.0, -2.0)">
        <use fill="#018b01" height="19.0" transform="matrix(0.0146, 0.0, 0.0, 0.0146, 0.0, 11.25)" width="137.3" xlink:href="#font_Burbank_Big_Regular_Black_90"/>
      </g>
    </g>
    <g id="font_Burbank_Big_Regular_Black_90">
      <path d="M313.5 -385.0 Q326.5 -385.0 342.0 -389.0 357.0 -392.5 371.5 -400.5 369.5 -465.0 362.0 -501.0 354.5 -537.0 341.0 -551.5 327.5 -566.0 308.0 -565.0 279.0 -565.0 264.5 -542.0 250.0 -519.5 250.0 -476.0 249.5 -429.5 265.0 -407.0 280.5 -385.0 313.5 -385.0 M304.0 22.5 Q209.0 22.0 143.5 -12.0 78.5 -45.5 44.5 -105.5 11.0 -166.0 10.0 -246.0 124.5 -237.0 185.5 -237.0 246.0 -237.0 247.0 -237.5 248.0 -194.0 264.0 -173.0 280.0 -152.5 307.0 -152.5 327.0 -152.0 341.0 -165.0 355.0 -178.5 362.5 -212.5 370.0 -247.0 371.5 -309.0 347.5 -287.0 313.0 -275.5 278.0 -264.0 235.5 -264.0 123.0 -265.0 66.0 -323.0 8.5 -380.5 8.0 -482.5 9.0 -561.5 46.0 -616.5 83.0 -672.0 149.0 -701.0 215.5 -730.0 304.0 -730.0 452.5 -731.0 531.5 -637.0 610.5 -543.0 611.5 -345.0 611.0 -213.5 573.0 -132.5 535.0 -51.0 466.0 -14.0 397.5 23.0 304.0 22.5" fill-rule="evenodd" stroke="none"/>
    </g>
    <g id="text6" transform="matrix(1.0, 0.0, 0.0, 1.0, 2.0, 2.0)">
      <g transform="matrix(1.0, 0.0, 0.0, 1.0, -2.0, -2.0)">
        <use fill="#018b01" height="19.0" transform="matrix(0.0146, 0.0, 0.0, 0.0146, 0.0, 11.25)" width="137.3" xlink:href="#font_Burbank_Big_Regular_Black_C0"/>
        <use fill="#018b01" height="19.0" transform="matrix(0.0146, 0.0, 0.0, 0.0146, 9.8, 11.25)" width="137.3" xlink:href="#font_Burbank_Big_Regular_Black_R0"/>
        <use fill="#018b01" height="19.0" transform="matrix(0.0146, 0.0, 0.0, 0.0146, 19.05, 11.25)" width="137.3" xlink:href="#font_Burbank_Big_Regular_Black_A0"/>
        <use fill="#018b01" height="19.0" transform="matrix(0.0146, 0.0, 0.0, 0.0146, 28.6, 11.25)" width="137.3" xlink:href="#font_Burbank_Big_Regular_Black_W0"/>
        <use fill="#018b01" height="19.0" transform="matrix(0.0146, 0.0, 0.0, 0.0146, 41.45, 11.25)" width="137.3" xlink:href="#font_Burbank_Big_Regular_Black_L0"/>
        <use fill="#018b01" height="19.0" transform="matrix(0.0146, 0.0, 0.0, 0.0146, 48.85, 11.25)" width="137.3" xlink:href="#font_Burbank_Big_Regular_Black_E0"/>
        <use fill="#018b01" height="19.0" transform="matrix(0.0146, 0.0, 0.0, 0.0146, 56.75, 11.25)" width="137.3" xlink:href="#font_Burbank_Big_Regular_Black_R0"/>
      </g>
    </g>
    <g id="font_Burbank_Big_Regular_Black_C0">
      <path d="M324.5 16.5 Q231.0 17.0 161.5 -20.0 92.0 -56.5 53.5 -138.5 15.0 -220.5 14.5 -354.5 15.0 -539.0 95.5 -634.0 175.5 -728.5 327.5 -729.0 426.0 -728.0 490.0 -688.5 554.5 -649.0 587.5 -582.0 620.5 -515.0 624.5 -431.0 502.5 -427.0 443.0 -426.0 383.0 -425.5 383.0 -426.0 379.5 -495.5 364.5 -526.0 350.0 -556.5 322.5 -556.0 287.5 -557.0 271.5 -509.5 256.0 -462.5 257.0 -354.5 257.0 -280.0 264.5 -237.0 272.0 -194.0 286.5 -176.0 301.0 -158.0 322.5 -158.5 342.0 -158.0 355.5 -171.0 369.0 -183.5 376.5 -216.0 384.0 -248.0 386.0 -305.0 459.0 -305.0 514.0 -304.0 L599.0 -301.5 630.0 -300.0 Q627.0 -186.5 588.0 -116.5 549.0 -46.5 481.0 -14.5 413.5 17.5 324.5 16.5" fill-rule="evenodd" stroke="none"/>
    </g>
    <g id="font_Burbank_Big_Regular_Black_R0">
      <path d="M247.0 -360.5 Q302.0 -356.5 334.5 -378.5 367.0 -400.5 367.5 -456.5 367.5 -502.0 344.5 -530.0 321.0 -558.5 273.5 -559.0 L259.5 -558.5 243.5 -556.0 245.5 -457.5 246.5 -387.5 247.0 -360.5 M375.0 23.5 L350.0 -41.0 Q326.0 -104.5 279.5 -216.0 L269.0 -215.0 247.0 -214.0 251.0 -9.0 Q250.0 -9.5 217.5 -9.5 L135.0 -9.5 Q84.5 -9.0 28.5 -8.0 29.0 -9.0 30.0 -93.5 31.0 -178.5 32.0 -334.5 33.0 -491.0 33.0 -707.5 94.0 -720.0 149.5 -726.0 204.5 -732.0 253.0 -732.0 418.0 -731.5 504.5 -663.5 591.0 -595.5 591.0 -467.0 590.5 -391.5 560.5 -342.5 531.0 -293.0 478.0 -265.0 495.0 -228.0 526.5 -162.0 557.5 -96.5 605.0 1.0 L576.5 3.5 496.5 11.5 375.0 23.5" fill-rule="evenodd" stroke="none"/>
    </g>
    <g id="font_Burbank_Big_Regular_Black_W0">
      <path d="M460.0 28.5 L438.5 -240.5 Q428.5 -357.0 421.0 -436.0 393.5 -225.0 382.0 -121.0 L370.5 -17.5 187.5 -25.0 91.0 -28.0 63.5 -28.5 Q54.0 -160.0 44.0 -281.5 34.0 -403.0 24.5 -508.5 15.0 -614.5 7.0 -697.5 L117.5 -698.5 200.0 -700.0 232.5 -700.5 Q235.0 -561.0 239.0 -442.0 243.0 -323.0 247.0 -236.5 265.0 -364.0 277.0 -447.0 L295.5 -577.5 304.5 -643.0 Q307.5 -662.0 307.0 -661.5 393.0 -661.5 444.5 -661.0 496.0 -660.5 519.0 -660.0 L541.5 -659.5 Q559.5 -498.5 575.0 -378.5 590.0 -258.5 601.0 -182.5 606.5 -343.5 609.0 -449.0 612.0 -554.5 613.0 -614.5 L614.5 -699.0 614.5 -723.0 Q731.0 -719.5 784.5 -719.0 837.5 -718.5 836.5 -719.0 816.0 -459.5 803.5 -296.5 791.5 -133.5 786.5 -57.0 781.0 19.0 781.5 18.5 620.0 26.0 540.0 27.5 459.5 29.0 460.0 28.5" fill-rule="evenodd" stroke="none"/>
    </g>
  </defs>
</svg>
