<?xml version="1.0" encoding="UTF-8" standalone="no"?>
<svg xmlns:ffdec="https://www.free-decompiler.com/flash" xmlns:xlink="http://www.w3.org/1999/xlink" ffdec:objectType="frame" height="68.65px" width="70.45px" xmlns="http://www.w3.org/2000/svg">
  <g transform="matrix(1.0, 0.0, 0.0, 1.0, -12.9, 14.9)">
    <use ffdec:characterId="1699" ffdec:characterName="core390_fla.levelBar_110" height="13.0" id="levelProgress_mc" transform="matrix(0.8097, 0.0, 0.0, 1.0, 12.8854, 40.75)" width="87.0" xlink:href="#sprite0"/>
    <filter id="filter5">
      <feColorMatrix in="SourceGraphic" result="filterResult24" type="matrix" values="0 0 0 0 1.0,0 0 0 0 1.0,0 0 0 0 0.8,0 0 0 1 0"/>
      <feConvolveMatrix divisor="25.0" in="filterResult24" kernelMatrix="1 1 1 1 1 1 1 1 1 1 1 1 1 1 1 1 1 1 1 1 1 1 1 1 1" order="5 5" result="filterResult25"/>
      <feComposite in="SourceGraphic" in2="filterResult25" operator="over" result="filterResult26"/>
      <feOffset dx="3.2413001876727075E-5" dy="2.999999999824899" in="filterResult26" result="filterResult27"/>
      <feColorMatrix in="filterResult27" result="filterResult28" type="matrix" values="0 0 0 0 0.0,0 0 0 0 0.0,0 0 0 0 0.0,0 0 0 1 0"/>
      <feColorMatrix in="filterResult28" result="filterResult29" type="matrix" values="1 0 0 0 0,0 1 0 0 0,0 0 1 0 0,0 0 0 0.19921875 0"/>
      <feComposite in="filterResult26" in2="filterResult29" operator="over" result="filterResult30"/>
    </filter>
    <use ffdec:characterId="1704" filter="url(#filter5)" height="64.8" id="levelIndicator_spr" transform="matrix(1.0, 0.0, 0.0, 1.0, 19.2, -14.9)" width="64.15" xlink:href="#sprite4"/>
    <filter id="filter11">
      <feColorMatrix in="SourceGraphic" result="filterResult31" type="matrix" values="0 0 0 0 0.011764706,0 0 0 0 0.37254903,0 0 0 0 0.49411765,0 0 0 1 0"/>
      <feConvolveMatrix divisor="16.0" in="filterResult31" kernelMatrix="1 1 1 1 1 1 1 1 1 1 1 1 1 1 1 1" order="4 4" result="filterResult32"/>
      <feComposite in="SourceGraphic" in2="filterResult32" operator="over" result="filterResult33"/>
    </filter>
    <use ffdec:characterId="1705" filter="url(#filter11)" height="31.2" transform="matrix(1.0, 0.0, 0.0, 1.0, 25.15, -13.0)" width="46.95" xlink:href="#text1"/>
  </g>
  <defs>
    <g id="sprite0" transform="matrix(1.0, 0.0, 0.0, 1.0, 1.5, 1.5)">
      <use ffdec:characterId="1689" height="10.0" transform="matrix(1.0, 0.0, 0.0, 1.0, 0.0, -0.3)" width="84.0" xlink:href="#shape0"/>
      <use ffdec:characterId="1691" height="10.0" id="bar_spr" transform="matrix(1.0, 0.0, 0.0, 1.0, 0.0, -0.3)" width="84.0" xlink:href="#sprite1"/>
      <use ffdec:characterId="1692" height="13.0" transform="matrix(1.0, 0.0, 0.0, 1.0, -1.5, -1.5)" width="87.0" xlink:href="#shape2"/>
      <filter id="filter0">
        <feConvolveMatrix divisor="16.0" in="SourceGraphic" kernelMatrix="1 1 1 1 1 1 1 1 1 1 1 1 1 1 1 1" order="4 4" result="filterResult0"/>
      </filter>
      <use ffdec:characterId="1694" filter="url(#filter0)" height="2.5" transform="matrix(1.0, 0.0, 0.0, 1.0, 3.45, 3.5)" width="77.95" xlink:href="#sprite2"/>
      <use ffdec:characterId="1695" height="10.45" transform="matrix(1.0, 0.0, 0.0, 1.0, -0.2, -0.35)" width="84.55" xlink:href="#shape4"/>
      <use ffdec:characterId="1697" height="11.7" transform="matrix(1.0, 0.0, 0.0, 1.0, -0.85, -0.85)" width="85.7" xlink:href="#sprite3"/>
      <use ffdec:characterId="1698" height="3.4" transform="matrix(1.0, 0.0, 0.0, 1.0, 71.25, 1.6)" width="10.35" xlink:href="#shape6"/>
    </g>
    <g id="shape0" transform="matrix(1.0, 0.0, 0.0, 1.0, 0.0, 0.3)">
      <path d="M84.0 5.0 Q84.0 6.45 83.25 7.6 L83.25 2.4 Q84.0 3.55 84.0 5.0" fill="#d0eefb" fill-rule="evenodd" stroke="none"/>
      <path d="M0.2 3.55 L0.2 6.45 0.0 5.0 0.2 3.55" fill="#f22424" fill-rule="evenodd" stroke="none"/>
      <path d="M1.6 -0.3 L82.6 -0.3 82.6 9.7 1.6 9.7 1.6 -0.3" fill="#000066" fill-rule="evenodd" stroke="none"/>
    </g>
    <g id="sprite1" transform="matrix(1.0, 0.0, 0.0, 1.0, 0.0, 0.0)">
      <use ffdec:characterId="1690" height="10.0" transform="matrix(1.0, 0.0, 0.0, 1.0, 0.0, 0.0)" width="84.0" xlink:href="#shape1"/>
    </g>
    <g id="shape1" transform="matrix(1.0, 0.0, 0.0, 1.0, 0.0, 0.0)">
      <path d="M84.0 5.3 Q84.0 6.75 83.25 7.9 L83.25 2.7 Q84.0 3.85 84.0 5.3 M0.2 3.85 L0.2 6.75 0.0 5.3 0.2 3.85" fill="#00ffff" fill-rule="evenodd" stroke="none"/>
      <path d="M82.6 0.0 L82.6 10.0 1.6 10.0 1.6 0.0 82.6 0.0" fill="#00ecff" fill-rule="evenodd" stroke="none"/>
    </g>
    <g id="shape2" transform="matrix(1.0, 0.0, 0.0, 1.0, 1.5, 1.5)">
      <path d="M83.9 6.0 Q83.6 7.4 82.5 8.5 81.35 9.7 79.8 9.95 L79.0 10.0 5.0 10.0 Q2.95 10.0 1.45 8.5 0.0 7.05 0.0 5.0 0.0 2.95 1.45 1.45 2.95 0.0 5.0 0.0 L79.0 0.0 Q81.05 0.0 82.5 1.45 84.0 2.95 84.0 5.0 L83.9 6.0 Z" fill="none" stroke="#01578f" stroke-linecap="round" stroke-linejoin="round" stroke-width="3.0"/>
    </g>
    <g id="sprite2" transform="matrix(1.0, 0.0, 0.0, 1.0, 38.95, 1.25)">
      <use ffdec:characterId="1693" height="2.5" transform="matrix(1.0, 0.0, 0.0, 1.0, -38.95, -1.25)" width="77.95" xlink:href="#shape3"/>
    </g>
    <g id="shape3" transform="matrix(1.0, 0.0, 0.0, 1.0, 38.95, 1.25)">
      <path d="M-37.7 0.0 L37.75 0.0" fill="none" stroke="#ffffff" stroke-linecap="round" stroke-linejoin="round" stroke-opacity="0.6" stroke-width="2.5"/>
    </g>
    <g id="shape4" transform="matrix(1.0, 0.0, 0.0, 1.0, 0.2, 0.35)">
      <path d="M81.75 8.85 L5.8 9.1 Q3.75 9.1 2.25 7.6 0.8 6.15 0.8 4.1 0.8 2.95 1.3 1.95" fill="none" stroke="#000000" stroke-linecap="round" stroke-linejoin="round" stroke-opacity="0.2" stroke-width="2.0"/>
      <path d="M2.75 0.9 L78.1 0.9 Q80.2 0.9 81.65 2.35 83.1 3.85 83.1 5.9 L82.95 7.2" fill="none" stroke="#ffffff" stroke-linecap="round" stroke-linejoin="round" stroke-opacity="0.7019608" stroke-width="2.5"/>
    </g>
    <g id="sprite3" transform="matrix(1.0, 0.0, 0.0, 1.0, 0.85, 0.85)">
      <use ffdec:characterId="1696" height="11.7" transform="matrix(1.0, 0.0, 0.0, 1.0, -0.85, -0.85)" width="85.7" xlink:href="#shape5"/>
    </g>
    <g id="shape5" transform="matrix(1.0, 0.0, 0.0, 1.0, 0.85, 0.85)">
      <path d="M84.0 5.0 L83.9 6.0 Q83.6 7.4 82.5 8.5 81.35 9.7 79.8 9.95 L79.0 10.0 5.0 10.0 Q2.95 10.0 1.45 8.5 0.0 7.05 0.0 5.0 0.0 2.95 1.45 1.45 2.95 0.0 5.0 0.0 L79.0 0.0 Q81.05 0.0 82.5 1.45 84.0 2.95 84.0 5.0 Z" fill="none" stroke="#0099ff" stroke-linecap="round" stroke-linejoin="round" stroke-width="1.7000000000000002"/>
    </g>
    <g id="shape6" transform="matrix(1.0, 0.0, 0.0, 1.0, -71.25, -1.6)">
      <path d="M80.55 2.1 Q81.6 2.6 81.6 3.3 81.6 4.0 80.55 4.5 L78.15 5.0 75.7 4.5 Q74.75 4.0 74.75 3.3 74.75 2.6 75.7 2.1 76.75 1.6 78.15 1.6 79.6 1.6 80.55 2.1 M72.5 2.45 Q73.0 2.45 73.35 2.75 73.75 3.1 73.75 3.55 L73.35 4.3 Q73.0 4.65 72.5 4.65 72.0 4.65 71.6 4.3 71.25 4.0 71.25 3.55 71.25 3.1 71.6 2.75 72.0 2.45 72.5 2.45" fill="#ffffff" fill-rule="evenodd" stroke="none"/>
    </g>
    <g id="sprite4" transform="matrix(1.0, 0.0, 0.0, 1.0, 31.9, 29.35)">
      <filter id="filter1">
        <feFlood flood-color="#ffffff" flood-opacity="1.0" result="filterResult1"/>
        <feOffset dx="2.12134798749606" dy="2.1212926992629795" in="SourceGraphic" result="filterResult2"/>
        <feComposite in="filterResult1" in2="filterResult2" operator="out" result="filterResult3"/>
        <feComposite in="filterResult3" in2="SourceGraphic" operator="in" result="filterResult4"/>
        <feColorMatrix in="filterResult4" result="filterResult5" type="matrix" values="1 0 0 0 0,0 1 0 0 0,0 0 1 0 0,0 0 0 0.796875 0"/>
        <feFlood flood-color="#000000" flood-opacity="1.0" result="filterResult6"/>
        <feOffset dx="-2.12134798749606" dy="-2.121292699262979" in="SourceGraphic" result="filterResult7"/>
        <feComposite in="filterResult6" in2="filterResult7" operator="out" result="filterResult8"/>
        <feComposite in="filterResult8" in2="SourceGraphic" operator="in" result="filterResult9"/>
        <feColorMatrix in="filterResult9" result="filterResult10" type="matrix" values="1 0 0 0 0,0 1 0 0 0,0 0 1 0 0,0 0 0 0.796875 0"/>
        <feComposite in="filterResult5" in2="filterResult10" operator="out" result="filterResult11"/>
        <feComposite in="filterResult10" in2="filterResult5" operator="out" result="filterResult12"/>
        <feComposite in="filterResult12" in2="filterResult11" operator="over" result="filterResult13"/>
        <feConvolveMatrix divisor="25.0" in="filterResult13" kernelMatrix="1 1 1 1 1 1 1 1 1 1 1 1 1 1 1 1 1 1 1 1 1 1 1 1 1" order="5 5" result="filterResult14"/>
        <feComposite in="filterResult14" in2="SourceGraphic" operator="in" result="filterResult15"/>
        <feComposite in="filterResult15" in2="SourceGraphic" operator="over" result="filterResult16"/>
      </filter>
      <use ffdec:characterId="1701" filter="url(#filter1)" height="39.4" id="levelStar_spr" transform="matrix(1.3742, -0.2773, 0.2769, 1.3723, -31.9081, -18.6075)" width="38.75" xlink:href="#sprite5"/>
      <filter id="filter4">
        <feColorMatrix in="SourceGraphic" result="filterResult17" type="matrix" values="0 0 0 0 0.0,0 0 0 0 0.6,0 0 0 0 1.0,0 0 0 1 0"/>
        <feConvolveMatrix divisor="25.0" in="filterResult17" kernelMatrix="1 1 1 1 1 1 1 1 1 1 1 1 1 1 1 1 1 1 1 1 1 1 1 1 1" order="5 5" result="filterResult18"/>
        <feComposite in="SourceGraphic" in2="filterResult18" operator="over" result="filterResult19"/>
        <feOffset dx="1.8054599072949091" dy="2.3958953489563473" in="filterResult19" result="filterResult20"/>
        <feColorMatrix in="filterResult20" result="filterResult21" type="matrix" values="0 0 0 0 0.0,0 0 0 0 0.0,0 0 0 0 0.2,0 0 0 1 0"/>
        <feColorMatrix in="filterResult21" result="filterResult22" type="matrix" values="1 0 0 0 0,0 1 0 0 0,0 0 1 0 0,0 0 0 0.3984375 0"/>
        <feComposite in="filterResult19" in2="filterResult22" operator="over" result="filterResult23"/>
      </filter>
      <use ffdec:characterId="1703" filter="url(#filter4)" height="21.0" id="levelNum_txt" transform="matrix(1.0013, 0.0, 0.0, 1.0, -29.6027, -1.8)" width="52.95" xlink:href="#text0"/>
    </g>
    <g id="sprite5" transform="matrix(1.0, 0.0, 0.0, 1.0, 18.1, 20.35)">
      <use ffdec:characterId="1700" height="39.4" transform="matrix(1.0, 0.0, 0.0, 1.0, -18.1, -20.35)" width="38.75" xlink:href="#shape7"/>
    </g>
    <g id="shape7" transform="matrix(1.0, 0.0, 0.0, 1.0, 18.1, 20.35)">
      <path d="M4.05 -19.6 L8.5 -7.75 19.9 -2.2 9.9 5.75 8.05 18.3 -2.45 11.35 -14.95 13.4 -11.45 1.25 -17.35 -10.1 -4.6 -10.5 4.05 -19.6" fill="url(#gradient0)" fill-rule="evenodd" stroke="none"/>
      <path d="M-11.45 1.25 L-14.95 13.4 M19.9 -2.2 L8.5 -7.75" fill="none" stroke="#ffbd77" stroke-linecap="round" stroke-linejoin="round" stroke-width="1.5"/>
      <path d="M8.5 -7.75 L4.05 -19.6" fill="none" stroke="#ba742e" stroke-linecap="round" stroke-linejoin="round" stroke-width="1.5"/>
      <path d="M-2.45 11.35 L8.05 18.3 9.9 5.75 19.9 -2.2" fill="none" stroke="#ad6721" stroke-linecap="round" stroke-linejoin="round" stroke-width="1.5"/>
      <path d="M4.05 -19.6 L-4.6 -10.5 -17.35 -10.1" fill="none" stroke="#ffcd87" stroke-linecap="round" stroke-linejoin="round" stroke-width="1.5"/>
      <path d="M-14.95 13.4 L-2.45 11.35" fill="none" stroke="#a35d17" stroke-linecap="round" stroke-linejoin="round" stroke-width="1.5"/>
      <path d="M-17.35 -10.1 L-11.45 1.25" fill="none" stroke="#c57f39" stroke-linecap="round" stroke-linejoin="round" stroke-width="1.5"/>
    </g>
    <linearGradient gradientTransform="matrix(0.0126, 0.0126, -0.0163, 0.0164, -0.3, -0.8)" gradientUnits="userSpaceOnUse" id="gradient0" spreadMethod="pad" x1="-819.2" x2="819.2">
      <stop offset="0.0" stop-color="#ffcd87"/>
      <stop offset="0.5333333333333333" stop-color="#ad6721"/>
      <stop offset="1.0" stop-color="#ffbc76"/>
    </linearGradient>
    <g id="text0" transform="matrix(1.0, 0.0, 0.0, 1.0, 2.0, 2.0)">
      <g transform="matrix(1.0, 0.0, 0.0, 1.0, -2.0, -2.0)">
        <use fill="#ffffcc" height="21.0" transform="matrix(0.0166, 0.0, 0.0, 0.0166, 15.65, 14.75)" width="52.95" xlink:href="#font_Burbank_Big_Regular_Black_00"/>
        <use fill="#ffffcc" height="21.0" transform="matrix(0.0166, 0.0, 0.0, 0.0166, 26.45, 14.75)" width="52.95" xlink:href="#font_Burbank_Big_Regular_Black_00"/>
      </g>
    </g>
    <g id="font_Burbank_Big_Regular_Black_00">
      <path d="M324.5 -148.5 Q345.0 -147.5 361.0 -164.0 376.5 -180.5 385.5 -225.5 394.0 -271.0 394.0 -356.5 394.0 -458.0 375.0 -502.0 356.5 -546.0 324.5 -545.0 299.0 -545.5 283.5 -527.0 268.0 -509.0 261.0 -465.5 254.0 -422.5 254.0 -347.0 253.5 -241.5 270.5 -194.5 287.5 -147.5 324.5 -148.5 M323.5 28.5 Q227.0 28.5 158.0 -16.0 88.5 -60.0 51.5 -144.5 14.5 -228.5 14.5 -349.0 15.0 -476.5 52.5 -558.5 90.5 -640.5 159.5 -679.5 229.0 -719.0 323.5 -719.0 477.0 -719.5 556.0 -629.0 635.5 -538.5 636.0 -352.5 635.0 -165.0 555.0 -68.5 475.0 28.0 323.5 28.5" fill-rule="evenodd" stroke="none"/>
    </g>
    <g id="text1" transform="matrix(1.0, 0.0, 0.0, 1.0, 2.0, 2.0)">
      <g transform="matrix(1.0, 0.0, 0.0, 1.0, -2.0, -2.0)">
        <use fill="#ffffff" height="31.2" transform="matrix(0.0176, 0.0, 0.0, 0.0176, 0.0, 19.05)" width="46.95" xlink:href="#font_GosmickSansBold_L0"/>
        <use fill="#ffffff" height="31.2" transform="matrix(0.0176, 0.0, 0.0, 0.0176, 8.8, 19.05)" width="46.95" xlink:href="#font_GosmickSansBold_e0"/>
        <use fill="#ffffff" height="31.2" transform="matrix(0.0176, 0.0, 0.0, 0.0176, 18.05, 19.05)" width="46.95" xlink:href="#font_GosmickSansBold_v0"/>
        <use fill="#ffffff" height="31.2" transform="matrix(0.0176, 0.0, 0.0, 0.0176, 26.45, 19.05)" width="46.95" xlink:href="#font_GosmickSansBold_e0"/>
        <use fill="#ffffff" height="31.2" transform="matrix(0.0176, 0.0, 0.0, 0.0176, 35.7, 19.05)" width="46.95" xlink:href="#font_GosmickSansBold_l0"/>
      </g>
    </g>
    <g id="font_GosmickSansBold_L0">
      <path d="M479.0 -78.0 L479.0 -81.0 Q485.5 -54.5 470.0 -38.0 454.5 -21.5 422.5 -12.5 390.0 -3.5 343.5 1.5 297.0 6.0 242.5 8.0 L225.0 8.5 208.0 9.0 170.5 7.5 139.5 4.0 Q103.5 -2.0 81.5 -16.5 59.5 -31.0 47.5 -54.0 36.0 -77.0 32.5 -108.5 28.5 -140.5 28.5 -181.5 28.5 -195.0 29.0 -209.0 29.5 -223.5 29.5 -240.0 29.5 -251.0 30.0 -262.5 30.5 -273.5 30.5 -286.0 30.5 -316.5 31.5 -358.5 33.0 -400.5 34.0 -446.0 35.0 -491.5 36.5 -536.5 L39.0 -617.5 Q39.0 -626.0 39.5 -633.5 40.0 -641.0 40.0 -649.5 40.0 -661.5 45.0 -671.5 50.0 -681.0 57.5 -688.5 64.5 -695.5 72.0 -700.0 80.0 -704.5 85.0 -708.0 104.5 -713.0 123.5 -708.0 142.5 -702.5 156.5 -693.5 171.0 -684.0 179.0 -673.0 187.5 -661.5 187.5 -654.5 L188.5 -656.5 Q188.5 -651.5 188.0 -647.0 187.5 -642.0 186.5 -637.0 184.5 -627.0 184.5 -619.5 180.0 -582.0 177.5 -539.0 175.0 -496.0 173.0 -450.0 171.0 -404.5 170.0 -359.0 169.0 -313.5 169.0 -270.5 L169.0 -222.5 Q169.0 -191.5 169.5 -168.5 170.0 -145.5 172.0 -124.0 196.5 -112.0 239.5 -115.0 L257.0 -115.5 274.5 -116.0 332.5 -118.0 Q363.5 -119.0 410.5 -125.0 L408.5 -125.0 Q414.5 -127.0 419.0 -126.5 423.0 -126.0 428.0 -124.0 L429.0 -124.0 Q449.5 -124.0 463.5 -111.0 477.0 -97.5 479.0 -78.0" fill-rule="evenodd" stroke="none"/>
    </g>
    <g id="font_GosmickSansBold_e0">
      <path d="M294.0 -311.5 Q311.5 -325.5 320.5 -340.0 329.5 -354.5 328.5 -368.5 326.5 -369.5 326.5 -370.5 326.5 -371.5 325.5 -372.5 323.5 -375.0 322.0 -378.0 320.5 -381.0 321.5 -380.0 313.5 -394.0 296.5 -402.0 279.5 -409.5 259.0 -409.5 237.5 -409.5 219.5 -399.5 201.5 -389.0 188.0 -372.0 174.0 -355.5 165.5 -333.5 156.5 -311.5 153.5 -289.0 159.5 -287.5 165.0 -288.5 L177.0 -290.0 Q210.0 -293.0 239.0 -298.0 268.5 -303.0 294.0 -311.5 M454.5 -187.0 Q470.0 -187.0 485.5 -175.5 500.5 -163.5 503.0 -147.0 L503.0 -148.0 Q509.0 -120.5 489.5 -92.0 470.0 -63.0 436.0 -40.0 402.5 -17.0 358.5 -2.5 314.5 12.5 270.5 12.5 215.0 12.5 170.5 -5.5 126.0 -23.5 94.0 -56.5 62.5 -90.0 45.5 -136.0 28.5 -182.0 28.5 -239.5 28.5 -297.0 47.0 -347.5 65.5 -398.0 98.0 -435.5 130.0 -473.0 175.5 -495.0 221.0 -517.0 275.5 -517.0 313.5 -517.0 346.5 -505.0 380.0 -493.5 404.0 -472.0 428.0 -450.5 442.0 -421.5 455.5 -393.0 455.5 -359.0 455.5 -301.0 419.5 -265.0 383.0 -229.0 322.5 -210.5 295.0 -202.5 275.0 -197.5 255.0 -192.0 239.0 -190.0 L211.0 -187.0 186.5 -186.0 Q178.0 -185.0 176.0 -186.0 174.0 -187.0 164.0 -185.0 165.0 -177.0 173.0 -160.5 187.5 -132.0 216.0 -115.5 244.5 -99.0 281.5 -99.0 331.0 -99.0 361.5 -119.5 392.0 -140.0 417.0 -166.5 434.0 -184.0 454.5 -187.0" fill-rule="evenodd" stroke="none"/>
    </g>
    <g id="font_GosmickSansBold_v0">
      <path d="M466.0 -467.0 L462.0 -451.5 459.5 -447.5 457.5 -444.5 Q456.5 -443.5 456.5 -441.0 439.5 -398.0 415.5 -344.5 L366.5 -232.5 Q359.5 -218.0 354.0 -203.5 348.0 -188.5 341.0 -174.0 337.0 -166.0 334.0 -158.5 L327.5 -143.5 Q314.5 -111.5 301.5 -83.0 289.0 -54.5 275.0 -34.0 261.0 -13.5 245.0 -2.5 229.5 8.0 210.0 5.0 L211.0 5.0 Q195.5 2.0 185.5 -2.5 175.0 -7.5 168.5 -16.0 162.0 -24.5 155.5 -38.0 149.5 -51.5 141.5 -70.5 120.0 -127.0 96.5 -193.5 72.5 -260.0 49.0 -334.0 33.0 -392.0 20.5 -419.5 13.5 -438.0 11.0 -449.0 8.0 -459.5 13.5 -470.0 17.5 -489.5 35.0 -500.5 52.0 -512.0 67.5 -515.0 90.0 -519.0 109.0 -509.5 128.0 -499.5 138.0 -475.0 L140.5 -462.5 Q142.5 -450.5 153.5 -416.5 163.0 -386.0 173.0 -356.0 L193.5 -296.0 Q201.5 -271.5 210.5 -245.5 219.0 -220.0 228.5 -195.5 242.5 -228.5 262.5 -276.5 282.5 -324.5 300.0 -379.0 L300.0 -378.0 Q302.0 -386.0 306.5 -396.5 311.5 -407.5 313.5 -415.5 315.5 -419.5 315.0 -420.5 314.5 -422.0 316.5 -426.0 L316.5 -425.0 Q322.5 -444.5 329.0 -461.5 336.0 -479.0 346.0 -492.0 356.5 -504.5 371.5 -512.0 387.0 -519.0 411.5 -519.0 435.0 -519.0 450.5 -504.5 466.0 -490.5 466.0 -467.0" fill-rule="evenodd" stroke="none"/>
    </g>
    <g id="font_GosmickSansBold_l0">
      <path d="M162.5 -687.0 L160.5 -690.5 Q164.5 -681.0 163.5 -653.5 162.5 -626.0 160.5 -595.0 158.5 -569.5 157.0 -543.5 155.5 -517.5 155.5 -497.0 L155.5 -486.5 155.5 -437.5 Q155.5 -413.0 154.5 -388.0 L154.5 -366.5 Q154.5 -354.5 154.0 -341.0 153.5 -328.0 153.5 -315.5 L153.5 -294.0 153.5 -142.5 153.5 -107.5 Q153.5 -92.5 154.5 -75.0 153.5 -53.5 146.0 -38.0 138.0 -22.5 121.0 -14.5 111.5 -5.5 102.0 0.5 92.0 6.0 84.0 6.0 59.5 6.0 46.0 -4.5 33.0 -15.5 27.0 -37.0 21.5 -58.5 20.5 -92.0 19.5 -125.0 19.5 -170.0 L19.5 -202.0 Q19.5 -262.5 20.5 -322.0 21.5 -382.0 23.5 -443.5 L25.5 -524.0 27.5 -604.5 Q28.5 -615.5 28.5 -625.0 28.5 -635.0 29.5 -643.0 31.0 -664.5 33.5 -680.0 36.0 -695.5 42.5 -706.0 49.0 -717.0 63.0 -723.0 77.0 -729.0 100.5 -731.5 124.0 -733.5 140.0 -722.5 156.5 -712.0 162.5 -687.0" fill-rule="evenodd" stroke="none"/>
    </g>
  </defs>
</svg>
