<?xml version="1.0" encoding="UTF-8" standalone="no"?>
<svg xmlns:ffdec="https://www.free-decompiler.com/flash" xmlns:xlink="http://www.w3.org/1999/xlink" ffdec:objectType="frame" height="56.75px" width="59.7px" xmlns="http://www.w3.org/2000/svg">
  <g transform="matrix(1.0, 0.0, 0.0, 1.0, 5.1, 7.9)">
    <filter id="filter0">
      <feConvolveMatrix divisor="4.0" in="SourceGraphic" kernelMatrix="1 1 1 1" order="2 2" result="filterResult0"/>
    </filter>
    <use ffdec:characterId="2115" filter="url(#filter0)" height="43.8" transform="matrix(1.0, 0.0, 0.0, 1.0, -2.25, 5.05)" width="50.9" xlink:href="#sprite0"/>
    <use ffdec:characterId="2116" height="42.05" transform="matrix(1.0, 0.0, 0.0, 1.0, -4.5, -7.9)" width="56.35" xlink:href="#shape1"/>
    <use ffdec:characterId="2118" height="7.1" transform="matrix(0.995, 0.0996, -0.0996, 0.995, 35.1159, 31.9308)" width="4.7" xlink:href="#sprite1"/>
    <use ffdec:characterId="2118" height="7.1" transform="matrix(0.9975, -0.0698, 0.0698, 0.9975, 49.44, 26.0643)" width="4.7" xlink:href="#sprite1"/>
    <use ffdec:characterId="2118" height="7.1" transform="matrix(0.9984, -0.0569, 0.0569, 0.9984, 41.7918, 28.3116)" width="4.7" xlink:href="#sprite1"/>
    <use ffdec:characterId="2118" height="7.1" transform="matrix(1.0, 0.0083, -0.0083, 1.0, 38.6013, 29.9483)" width="4.7" xlink:href="#sprite1"/>
    <use ffdec:characterId="2118" height="7.1" transform="matrix(0.9886, 0.1507, -0.1507, 0.9886, 40.2749, 28.9216)" width="4.7" xlink:href="#sprite1"/>
    <use ffdec:characterId="2118" height="7.1" transform="matrix(0.9979, 0.0648, -0.0648, 0.9979, 36.8601, 30.7874)" width="4.7" xlink:href="#sprite1"/>
    <use ffdec:characterId="2118" height="7.1" transform="matrix(0.9832, -0.1826, 0.1826, 0.9832, 45.276, 26.989)" width="4.7" xlink:href="#sprite1"/>
    <use ffdec:characterId="2118" height="7.1" transform="matrix(1.0, -0.0043, 0.0043, 1.0, 43.6493, 27.6009)" width="4.7" xlink:href="#sprite1"/>
    <use ffdec:characterId="2118" height="7.1" transform="matrix(0.9986, -0.0526, 0.0526, 0.9986, 47.3924, 26.4107)" width="4.7" xlink:href="#sprite1"/>
    <use ffdec:characterId="2119" height="36.1" transform="matrix(1.0, 0.0, 0.0, 1.0, -5.1, -2.95)" width="55.95" xlink:href="#shape3"/>
  </g>
  <defs>
    <g id="sprite0" transform="matrix(1.0, 0.0, 0.0, 1.0, 1.9, 0.0)">
      <use ffdec:characterId="2114" height="43.8" transform="matrix(1.0, 0.0, 0.0, 1.0, -1.9, 0.0)" width="50.9" xlink:href="#shape0"/>
    </g>
    <g id="shape0" transform="matrix(1.0, 0.0, 0.0, 1.0, 1.9, 0.0)">
      <path d="M48.15 28.0 Q48.45 30.3 49.0 32.45 L47.75 34.3 Q46.95 35.45 46.75 36.15 46.2 37.8 45.15 39.0 44.15 40.15 43.05 40.45 42.25 40.65 40.6 41.5 L37.85 42.65 34.9 43.4 34.45 43.45 32.4 43.8 32.75 42.05 32.95 40.25 33.15 38.75 33.25 37.05 32.85 33.75 Q32.55 32.1 32.45 29.15 32.45 28.35 32.6 27.6 32.8 26.0 32.5 22.95 32.15 19.9 31.3 17.85 L29.9 15.0 29.3 13.85 28.5 14.05 26.05 14.6 20.0 14.9 17.95 14.75 13.5 13.95 10.7 12.95 9.0 12.3 5.45 10.75 4.25 10.0 -0.05 6.4 -1.85 4.7 Q-1.95 4.6 -1.75 4.65 L0.35 2.9 0.65 2.55 Q1.6 1.45 2.05 0.0 2.5 0.05 3.05 0.4 5.9 2.4 9.75 4.3 L9.8 4.3 10.0 4.45 Q12.95 6.0 17.6 6.75 L19.95 7.05 25.6 6.6 26.25 6.45 27.0 6.3 27.45 6.2 27.6 6.05 Q27.6 5.7 27.9 5.45 L27.9 5.4 Q28.45 4.8 30.1 4.55 L31.45 4.05 32.45 3.6 32.8 3.45 33.85 2.9 34.7 2.4 35.8 1.6 36.25 1.55 36.3 1.55 36.65 1.5 36.7 1.5 36.75 1.45 37.45 0.8 37.6 0.65 Q38.55 -0.1 39.55 0.15 41.2 0.85 40.5 2.0 L40.05 2.7 39.9 3.0 39.85 3.0 39.95 3.1 40.85 5.0 Q41.5 6.95 41.7 9.95 L41.75 10.35 Q41.95 11.65 43.15 13.35 L44.4 14.8 44.45 14.9 Q46.1 16.8 47.1 20.8 L47.6 23.05 47.9 25.05 47.9 25.1 48.15 28.0" fill="#2d6f74" fill-opacity="0.2" fill-rule="evenodd" stroke="none"/>
    </g>
    <g id="shape1" transform="matrix(1.0, 0.0, 0.0, 1.0, 4.5, 7.9)">
      <path d="M-1.85 -2.85 L-0.1 -3.9 2.95 -5.0 Q5.0 -5.65 9.05 -6.1 L11.25 -6.35 16.25 -6.7 22.85 -6.9 25.0 -6.85 31.0 -6.45 Q35.3 -5.95 38.1 -4.8 L40.25 -3.7 Q42.9 -1.9 43.05 0.9 L41.75 2.1 40.75 2.95 39.2 4.2 36.25 6.05 34.45 5.05 33.8 4.7 31.15 3.8 28.85 3.35 25.6 2.75 24.5 2.7 20.25 2.6 17.1 2.65 11.4 3.1 10.7 3.2 5.4 4.15 4.85 4.3 Q2.75 4.9 1.65 5.95 L0.0 4.8 -3.05 1.9 -3.45 1.5 Q-3.7 -1.25 -1.85 -2.85 Z" fill="none" stroke="#00375b" stroke-linecap="round" stroke-linejoin="round" stroke-width="2.0"/>
      <path d="M2.7 -2.85 Q5.8 -4.0 10.45 -4.6 L10.8 -3.2 11.3 -1.1 11.45 -0.25 11.4 1.5 10.3 1.65 Q7.1 2.15 4.4 2.95 L4.3 2.7 Q3.9 1.65 3.65 -0.3 L3.6 -0.6 2.7 -2.85 M17.2 1.1 L17.15 -1.7 17.0 -3.5 16.8 -5.15 23.0 -5.3 24.65 -5.25 24.5 -4.6 24.45 -2.5 24.4 0.25 24.4 1.1 22.0 1.0 17.2 1.1 M29.3 1.35 L29.65 0.4 Q30.45 -1.65 30.45 -3.1 L30.45 -3.2 30.4 -4.05 30.35 -4.35 30.3 -4.7 30.35 -4.7 32.8 -4.25 34.0 -4.05 34.7 -3.9 35.5 -3.65 36.55 -3.2 36.5 -3.2 Q35.85 -2.55 35.95 -0.6 35.95 -0.2 34.75 1.85 L34.6 2.25 32.9 1.8 30.35 1.4 29.3 1.35" fill="#00dd4d" fill-rule="evenodd" stroke="none"/>
      <path d="M41.75 2.0 L40.75 2.85 39.2 4.1 38.15 3.65 34.6 2.25 34.75 1.85 Q35.95 -0.2 35.95 -0.6 35.85 -2.55 36.5 -3.2 L36.55 -3.2 38.8 -1.8 39.65 -0.9 41.2 0.6 41.75 2.0 M0.0 4.7 L-3.05 1.8 Q-1.95 -1.1 2.7 -2.85 L3.6 -0.6 3.65 -0.3 Q3.9 1.65 4.3 2.7 L4.4 2.95 Q1.95 3.7 0.0 4.7 M11.4 1.5 L11.45 -0.25 11.3 -1.1 10.8 -3.2 10.45 -4.6 16.8 -5.15 17.0 -3.5 17.15 -1.7 17.2 1.1 11.4 1.5 M24.4 1.1 L24.4 0.25 24.45 -2.5 24.5 -4.6 24.65 -5.25 30.3 -4.7 30.35 -4.35 30.4 -4.05 30.45 -3.2 30.45 -3.1 Q30.45 -1.65 29.65 0.4 L29.3 1.35 25.8 1.15 24.4 1.1" fill="#006ca5" fill-rule="evenodd" stroke="none"/>
      <path d="M-0.1 -4.0 L2.95 -5.1 Q5.0 -5.75 9.05 -6.2 L10.25 -5.55 10.45 -4.6 Q5.8 -4.0 2.7 -2.85 L2.3 -3.45 -0.1 -4.0 M16.25 -6.8 L17.15 -6.85 22.85 -7.0 25.0 -6.95 25.0 -6.85 Q24.75 -6.2 24.65 -5.25 L23.0 -5.3 16.8 -5.15 16.75 -5.95 16.25 -6.8 M31.0 -6.55 L32.8 -6.3 Q35.9 -5.8 38.05 -4.9 L38.1 -4.9 40.25 -3.8 39.7 -3.9 37.85 -3.7 Q36.95 -3.55 36.55 -3.2 L35.5 -3.65 34.7 -3.9 34.0 -4.05 32.8 -4.25 30.35 -4.7 30.3 -4.7 30.1 -5.3 30.35 -5.95 31.0 -6.55 M39.7 -3.9 L40.0 -3.9 Q39.9 -3.9 39.75 -4.0 L39.7 -3.9" fill="#00ff96" fill-rule="evenodd" stroke="none"/>
      <path d="M9.05 -6.2 L11.25 -6.45 16.25 -6.8 16.75 -5.95 16.8 -5.15 10.45 -4.6 10.25 -5.55 9.05 -6.2 M25.0 -6.95 L27.8 -6.85 30.35 -6.6 31.0 -6.55 30.35 -5.95 30.1 -5.3 30.3 -4.7 24.65 -5.25 Q24.75 -6.2 25.0 -6.85 L25.0 -6.95 M40.25 -3.8 Q42.9 -2.0 43.05 0.8 L41.75 2.0 41.2 0.6 39.65 -0.9 38.8 -1.8 36.55 -3.2 Q36.95 -3.55 37.85 -3.7 L39.7 -3.9 40.25 -3.8 M-3.05 1.8 L-3.45 1.4 Q-3.7 -1.35 -1.85 -2.95 L-0.1 -4.0 2.3 -3.45 2.7 -2.85 Q-1.95 -1.1 -3.05 1.8" fill="#0072ad" fill-rule="evenodd" stroke="none"/>
      <path d="M39.7 -3.9 L39.75 -4.0 Q39.9 -3.9 40.0 -3.9 L39.7 -3.9" fill="#009900" fill-rule="evenodd" stroke="none"/>
      <path d="M39.2 4.1 L36.25 5.95 34.45 4.95 33.8 4.6 Q34.0 3.3 34.6 2.25 L38.15 3.65 39.2 4.1 M28.85 3.25 L25.6 2.65 24.5 2.6 24.4 1.1 25.8 1.15 29.3 1.35 Q28.9 2.5 28.85 3.25 M17.1 2.55 L11.4 3.0 11.4 2.05 11.4 1.5 17.2 1.1 17.2 1.7 17.1 2.55 M4.85 4.2 Q2.75 4.8 1.65 5.85 L0.0 4.7 Q1.95 3.7 4.4 2.95 L4.85 4.2" fill="#005585" fill-rule="evenodd" stroke="none"/>
      <path d="M33.8 4.6 L32.9 4.25 31.15 3.7 28.85 3.25 Q28.9 2.5 29.3 1.35 L30.35 1.4 32.9 1.8 34.6 2.25 Q34.0 3.3 33.8 4.6 M24.5 2.6 L20.25 2.5 17.1 2.55 17.2 1.7 17.2 1.1 22.0 1.0 24.4 1.1 24.5 2.6 M11.4 3.0 L10.7 3.1 5.4 4.05 4.85 4.2 4.4 2.95 Q7.1 2.15 10.3 1.65 L11.4 1.5 11.4 2.05 11.4 3.0" fill="#00870d" fill-rule="evenodd" stroke="none"/>
      <path d="M30.95 10.2 L31.65 11.85 31.85 12.2 32.95 13.8 33.4 14.35 Q34.15 15.25 34.55 16.45 L34.8 17.6 Q35.1 19.65 34.55 22.4 L34.4 23.15 33.9 24.95 Q33.85 27.3 34.15 29.15 34.6 31.75 35.8 33.15 L36.4 32.75 Q42.4 28.8 50.85 26.45 49.8 25.2 49.1 23.75 48.1 21.7 47.65 19.35 L47.4 17.35 47.1 15.95 46.6 14.4 Q45.6 11.65 43.95 10.5 L43.9 10.4 42.65 9.5 Q41.45 8.4 41.25 7.5 L41.2 7.25 Q41.0 5.2 40.35 3.85 L39.9 3.15 39.45 2.6 39.35 2.5 39.55 2.3 40.0 1.8 Q40.7 0.9 39.05 0.6 38.05 0.5 37.1 1.1 L36.15 1.75 35.3 1.9 34.2 2.55 33.35 2.95 33.05 3.1 32.3 3.45 31.95 3.55 30.95 3.95 30.0 4.25 29.6 4.4 Q27.95 4.75 27.4 5.2 L27.4 5.25 Q27.1 5.4 27.1 5.65 L27.65 5.6" fill="none" stroke="#00456b" stroke-linecap="round" stroke-linejoin="round" stroke-width="2.0"/>
    </g>
    <g id="sprite1" transform="matrix(1.0, 0.0, 0.0, 1.0, 0.2, 0.15)">
      <use ffdec:characterId="2117" height="7.1" transform="matrix(1.0, 0.0, 0.0, 1.0, -0.2, -0.15)" width="4.7" xlink:href="#shape2"/>
    </g>
    <g id="shape2" transform="matrix(1.0, 0.0, 0.0, 1.0, 0.2, 0.15)">
      <path d="M3.0 5.15 L3.5 5.55 1.3 1.05 0.65 1.45 2.8 5.85 2.7 5.55 3.0 5.15 3.0 5.1 2.75 5.15 2.9 5.1 Q3.05 5.0 3.0 5.15 M2.5 6.9 Q1.9 6.8 1.85 6.3 L-0.2 0.85 1.3 -0.15 4.35 4.95 4.5 5.65 Q4.6 6.15 4.15 6.45 L3.4 6.9 2.5 6.9" fill="#00375b" fill-rule="evenodd" stroke="none"/>
      <path d="M0.5 0.35 L1.05 0.0 3.6 5.2 3.25 5.5 3.0 5.45 Q1.2 2.95 0.5 0.35" fill="#006ca5" fill-rule="evenodd" stroke="none"/>
      <path d="M3.6 5.2 L3.7 5.4 Q3.75 5.8 3.25 6.0 L2.6 6.0 0.0 0.65 0.5 0.35 Q1.2 2.95 3.0 5.45 L3.25 5.5 3.6 5.2" fill="#005585" fill-rule="evenodd" stroke="none"/>
    </g>
    <g id="shape3" transform="matrix(1.0, 0.0, 0.0, 1.0, 5.1, 2.95)">
      <path d="M24.9 11.65 L24.95 11.9 24.8 12.15 24.2 12.15 24.1 11.85 24.3 11.55 24.9 11.65" fill="#00dd4d" fill-rule="evenodd" stroke="none"/>
      <path d="M39.3 12.3 L41.45 9.9 Q43.25 7.75 43.3 4.85 L43.1 0.0 41.5 -1.85 Q41.05 -2.1 40.3 0.3 39.5 2.65 36.6 4.65 M32.8 6.45 L29.55 6.95 28.2 7.2 27.3 7.35 25.1 7.65 20.5 7.9 14.75 7.35 Q11.65 6.85 7.6 5.1 L1.5 2.2 Q-0.6 1.05 -1.15 -0.4 -1.7 -1.85 -2.25 -1.95 -2.8 -2.1 -3.5 -1.1 -4.2 -0.1 -4.1 0.35 L-3.95 1.2 -3.9 1.7 -3.75 2.6 -3.5 3.75 -3.15 5.55 -2.8 7.2 -2.3 8.75 Q-1.85 9.85 -0.5 10.8 L1.75 12.1 3.85 13.1 Q5.05 13.65 5.8 13.8 L7.9 14.5 11.5 15.65 17.25 16.6 19.9 16.75 27.7 16.4 30.85 15.8 32.3 15.4 33.75 14.85 34.6 14.55" fill="none" stroke="#00456b" stroke-linecap="round" stroke-linejoin="round" stroke-width="2.0"/>
      <path d="M36.6 4.65 Q39.5 2.6 40.25 -0.25 40.95 -3.1 42.0 -1.7 L43.1 0.0 Q43.45 2.5 42.0 4.45 39.85 6.95 37.7 7.8 L36.6 4.65 M27.7 16.7 L19.9 17.05 17.25 16.85 17.0 16.4 17.0 16.2 21.7 16.5 28.15 15.95 27.7 16.7 M5.7 14.0 L4.45 13.5 1.8 12.45 -0.55 11.0 Q-1.95 10.05 -2.45 9.0 L-3.0 7.6 -3.2 6.7 -2.55 7.85 Q-1.5 9.8 0.2 10.75 L2.35 11.95 2.9 12.15 5.8 13.0 5.55 13.5 5.7 14.0 M-4.1 0.35 L-3.9 -0.7 -2.75 -2.0 Q-1.85 -2.75 -1.2 -0.85 -0.6 1.05 1.0 1.9 3.6 3.3 6.7 4.7 L6.45 5.1 6.45 5.2 5.3 6.1 5.0 7.1 1.25 5.45 Q-0.3 4.7 -1.45 3.6 L-4.0 0.65 -4.1 0.35 M16.8 7.55 L19.85 7.9 27.1 7.4 27.7 7.8 Q28.25 8.5 28.25 9.4 L28.2 10.2 18.75 10.85 15.95 10.75 15.85 10.05 15.95 8.9 Q16.1 8.3 16.8 7.55" fill="#005585" fill-rule="evenodd" stroke="none"/>
      <path d="M-3.2 6.7 L-3.55 5.2 -4.05 2.55 -3.95 1.5 -3.95 1.2 -3.4 3.35 -3.0 4.7 -2.75 6.45 -2.55 7.85 -3.2 6.7 M37.7 7.8 Q39.85 6.95 42.0 4.45 41.9 6.0 41.55 6.35 L39.1 8.35 38.1 8.9 37.7 7.8 M28.2 10.2 L27.9 11.3 27.9 11.5 20.3 12.15 16.25 12.0 15.95 10.75 18.75 10.85 28.2 10.2" fill="#0072ad" fill-rule="evenodd" stroke="none"/>
      <path d="M43.1 0.0 Q43.65 2.15 43.6 5.0 43.55 7.9 39.95 11.8 L39.3 12.3 38.1 8.9 39.1 8.35 41.55 6.35 Q41.9 6.0 42.0 4.45 43.45 2.5 43.1 0.0 M16.25 12.0 L20.3 12.15 27.9 11.5 27.6 13.0 27.75 13.95 27.85 14.55 28.15 15.85 28.15 15.95 21.7 16.5 17.0 16.2 16.75 13.1 16.45 12.5 16.25 12.0" fill="#006ca5" fill-rule="evenodd" stroke="none"/>
      <path d="M33.2 6.0 L34.05 5.8 34.95 5.5 36.6 4.65 37.7 7.8 35.1 8.7 Q34.3 7.05 33.2 6.0 M27.95 7.2 Q28.8 7.3 29.1 7.75 L30.05 10.0 29.45 10.15 28.85 8.5 Q28.5 7.4 27.95 7.2 M5.0 7.1 L5.3 6.1 6.45 5.2 6.35 6.9 6.4 7.9 5.1 7.1 5.0 7.1" fill="#00a320" fill-rule="evenodd" stroke="none"/>
      <path d="M39.3 12.3 Q38.1 13.25 36.3 14.05 L35.75 10.9 35.1 8.7 37.7 7.8 38.1 8.9 39.3 12.3 M30.6 16.1 L27.7 16.7 28.15 15.95 Q29.35 15.65 29.25 15.25 L29.15 14.1 29.15 12.9 Q29.15 12.2 29.45 11.35 L29.45 10.15 30.05 10.0 30.4 11.7 30.6 12.95 30.85 14.2 31.05 15.05 30.6 16.1 M17.25 16.85 L11.5 15.9 7.9 14.75 5.7 14.0 5.55 13.5 5.8 13.0 7.0 13.4 7.25 13.5 10.15 14.7 Q14.2 16.25 15.75 16.2 L17.0 16.2 17.0 16.4 17.25 16.85 M7.0 4.85 L8.35 5.45 Q11.8 6.85 16.8 7.55 16.1 8.3 15.95 8.9 L15.85 10.05 15.95 10.75 11.9 9.95 8.65 8.85 8.4 8.75 6.4 7.9 6.35 6.9 6.45 5.2 7.0 4.85 M27.1 7.4 L27.9 7.2 27.95 7.2 Q28.5 7.4 28.85 8.5 L29.45 10.15 28.2 10.2 28.25 9.4 Q28.25 8.5 27.7 7.8 L27.1 7.4" fill="#00d248" fill-rule="evenodd" stroke="none"/>
      <path d="M27.95 7.2 L33.2 6.0 Q34.3 7.05 35.1 8.7 L30.05 10.0 29.1 7.75 Q28.8 7.3 27.95 7.2" fill="#00870d" fill-rule="evenodd" stroke="none"/>
      <path d="M36.3 14.05 L32.3 15.6 31.95 15.75 31.45 15.9 30.55 16.1 30.85 16.0 30.6 16.1 31.05 15.05 30.85 14.2 30.6 12.95 30.4 11.7 30.05 10.0 35.1 8.7 35.75 10.9 36.3 14.05" fill="#00a721" fill-rule="evenodd" stroke="none"/>
      <path d="M28.2 10.2 L29.45 10.15 29.45 11.35 27.9 11.5 27.9 11.3 28.2 10.2 M6.4 7.9 L8.4 8.75 8.65 8.85 11.9 9.95 15.95 10.75 16.25 12.0 12.1 11.45 8.5 10.45 6.85 9.85 6.4 7.9" fill="#00ff96" fill-rule="evenodd" stroke="none"/>
      <path d="M27.9 11.5 L29.45 11.35 Q29.15 12.2 29.15 12.9 L29.15 14.1 29.25 15.25 Q29.35 15.65 28.15 15.95 L28.15 15.85 27.85 14.55 27.75 13.95 27.6 13.0 27.9 11.5 M6.85 9.85 L8.5 10.45 12.1 11.45 16.25 12.0 16.45 12.5 16.75 13.1 17.0 16.2 15.75 16.2 Q14.2 16.25 10.15 14.7 L9.5 14.05 8.5 12.85 8.3 12.55 Q7.35 11.2 6.85 9.85" fill="#00ff76" fill-rule="evenodd" stroke="none"/>
      <path d="M6.7 4.7 L6.75 4.7 7.0 4.85 6.45 5.2 6.45 5.1 6.7 4.7" fill="#009900" fill-rule="evenodd" stroke="none"/>
      <path d="M6.85 9.85 Q7.35 11.2 8.3 12.55 L8.5 12.85 9.5 14.05 10.15 14.7 7.25 13.5 7.0 13.4 5.8 13.0 5.9 12.35 5.95 11.55 5.45 9.6 Q4.9 8.4 4.9 7.75 L5.0 7.1 5.1 7.1 6.4 7.9 6.85 9.85" fill="#00dd4d" fill-rule="evenodd" stroke="none"/>
      <path d="M-3.95 1.2 L-4.1 0.4 -4.1 0.35 -4.0 0.65 -1.45 3.6 Q-0.3 4.7 1.25 5.45 L5.0 7.1 4.9 7.75 Q4.9 8.4 5.45 9.6 L5.95 11.55 5.9 12.35 5.8 13.0 2.9 12.15 2.35 11.95 0.2 10.75 Q-1.5 9.8 -2.55 7.85 L-2.75 6.45 -3.0 4.7 -3.4 3.35 -3.95 1.2" fill="#006195" fill-rule="evenodd" stroke="none"/>
      <path d="M34.9 9.15 L35.0 9.1 37.55 8.1 40.4 7.55 41.25 7.5 Q41.45 8.4 42.65 9.5 L40.0 10.2 37.3 11.05 35.7 11.25 35.05 11.35 34.85 10.85 34.9 9.15 M46.6 14.4 L47.1 15.95 46.35 16.85 44.3 17.95 42.6 18.65 40.45 19.25 38.5 19.0 38.15 18.85 Q37.25 18.65 36.75 17.05 L41.4 15.8 44.5 15.1 46.6 14.4 M34.0 10.1 Q34.1 10.85 34.5 11.45 L34.3 11.5 33.3 11.6 33.05 11.1 Q32.85 10.85 33.3 10.25 33.7 9.6 34.0 10.1" fill="#0072ad" fill-rule="evenodd" stroke="none"/>
      <path d="M42.65 9.5 L43.9 10.4 43.95 10.5 Q45.6 11.65 46.6 14.4 L44.5 15.1 41.4 15.8 36.75 17.05 Q36.25 15.15 35.85 14.75 L34.9 13.75 33.95 12.55 33.3 11.6 34.3 11.5 34.5 11.45 35.3 12.3 35.85 12.7 35.05 11.35 35.7 11.25 37.3 11.05 40.0 10.2 42.65 9.5 M38.85 2.15 L39.3 2.5 39.45 2.6 36.9 4.0 36.65 3.7 37.95 2.95 38.85 2.15 M35.95 4.1 L36.0 4.2 36.2 4.4 35.85 4.55 34.05 5.5 33.75 5.05 35.5 4.35 35.95 4.1 M31.05 5.8 L32.7 5.45 32.95 5.4 33.25 5.8 Q32.0 6.2 31.5 6.85 L31.25 6.4 31.05 5.8" fill="#00ff96" fill-rule="evenodd" stroke="none"/>
      <path d="M40.35 3.85 Q41.0 5.2 41.2 7.25 L41.25 7.5 40.4 7.55 37.55 8.1 35.0 9.1 34.9 9.15 34.9 8.85 34.9 8.0 34.45 6.2 36.0 5.6 36.7 5.4 37.0 6.35 37.8 7.5 37.7 7.2 37.35 5.1 38.7 4.45 40.35 3.85 M47.1 15.95 L47.4 17.3 47.4 17.35 47.65 19.35 Q46.95 19.95 45.45 20.3 42.65 20.7 41.6 21.1 L39.15 21.9 Q36.4 22.8 36.4 22.9 L36.5 21.6 36.6 20.45 36.7 19.35 36.75 17.05 Q37.25 18.65 38.15 18.85 L38.5 19.0 40.45 19.25 42.6 18.65 44.3 17.95 46.35 16.85 47.1 15.95 M49.1 23.75 Q49.8 25.2 50.85 26.45 42.4 28.8 37.3 32.2 37.3 31.5 36.8 30.5 36.3 29.5 36.05 28.1 35.55 28.4 35.15 28.6 L36.0 28.1 Q36.65 27.7 37.0 27.6 L40.6 26.35 41.2 26.1 45.4 25.0 47.8 24.55 49.1 23.75 M31.5 6.85 L33.1 6.6 33.5 6.5 Q33.85 7.7 34.0 10.1 33.7 9.6 33.3 10.25 32.85 10.85 33.05 11.1 31.85 9.6 31.9 9.0 L31.75 7.85 31.5 6.85" fill="#006295" fill-rule="evenodd" stroke="none"/>
      <path d="M40.35 3.85 L38.7 4.45 37.35 5.1 37.25 4.75 37.0 4.1 36.9 4.0 39.45 2.6 40.35 3.85 M36.7 5.4 L36.0 5.6 34.45 6.2 34.4 6.05 34.1 5.55 34.05 5.5 35.85 4.55 36.2 4.4 36.35 4.65 36.7 5.4 M47.65 19.35 Q48.1 21.7 49.1 23.75 L47.8 24.55 45.4 25.0 41.2 26.1 40.6 26.35 37.0 27.6 Q36.65 27.7 36.0 28.1 L35.75 25.3 Q35.75 24.15 36.45 22.9 L36.4 22.9 Q36.4 22.8 39.15 21.9 L41.6 21.1 Q42.65 20.7 45.45 20.3 46.95 19.95 47.65 19.35 M33.25 5.8 L33.4 6.15 33.5 6.5 33.1 6.6 31.5 6.85 Q32.0 6.2 33.25 5.8" fill="#00f06f" fill-rule="evenodd" stroke="none"/>
      <path d="M34.15 29.15 Q33.85 27.3 33.9 24.95 L34.4 23.15 34.9 23.15 36.4 22.9 36.45 22.9 Q35.75 24.15 35.75 25.3 L36.0 28.1 35.15 28.6 34.15 29.15 M34.8 17.6 L34.55 16.45 Q34.15 15.25 33.4 14.35 L32.95 13.8 31.85 12.2 Q32.2 12.05 33.3 11.6 L33.95 12.55 34.9 13.75 35.85 14.75 Q36.25 15.15 36.75 17.05 L35.1 17.6 34.8 17.6 M30.4 7.25 L29.95 6.3 31.05 5.8 Q29.55 4.45 28.55 4.8 L27.4 5.25 27.4 5.2 Q27.95 4.75 29.6 4.4 L30.95 3.95 Q31.65 4.1 32.1 4.45 L32.95 5.4 33.75 5.05 33.65 4.9 33.4 4.65 31.95 3.55 32.3 3.45 33.35 2.95 Q35.1 3.2 35.95 4.1 L36.65 3.7 36.9 4.0 37.0 4.1 37.25 4.75 37.35 5.1 36.7 5.4 36.35 4.65 36.2 4.4 36.0 4.2 35.95 4.1 35.5 4.35 33.75 5.05 34.05 5.5 34.1 5.55 34.4 6.05 34.45 6.2 34.1 6.35 33.5 6.5 33.4 6.15 33.25 5.8 32.95 5.4 32.7 5.45 31.05 5.8 31.25 6.4 31.5 6.85 30.4 7.25 M34.2 2.55 L35.3 1.9 Q37.45 1.35 38.85 2.15 L37.95 2.95 36.65 3.7 Q35.85 2.9 34.2 2.55 M34.5 11.45 L35.05 11.35 35.85 12.7 35.3 12.3 34.5 11.45" fill="#00d248" fill-rule="evenodd" stroke="none"/>
      <path d="M29.95 6.3 L29.85 6.25 28.9 5.7 27.1 5.65 Q27.1 5.4 27.4 5.25 L28.55 4.8 Q29.55 4.45 31.05 5.8 L29.95 6.3 M30.95 3.95 L31.95 3.55 33.4 4.65 33.65 4.9 33.75 5.05 32.95 5.4 32.1 4.45 Q31.65 4.1 30.95 3.95 M33.35 2.95 L34.2 2.55 Q35.85 2.9 36.65 3.7 L35.95 4.1 Q35.1 3.2 33.35 2.95" fill="#00870d" fill-rule="evenodd" stroke="none"/>
      <path d="M37.35 5.1 L37.7 7.2 37.8 7.5 37.0 6.35 36.7 5.4 37.35 5.1 M34.45 6.2 L34.9 8.0 34.9 8.85 34.9 9.15 34.85 10.85 35.05 11.35 34.5 11.45 Q34.1 10.85 34.0 10.1 33.85 7.7 33.5 6.5 L34.1 6.35 34.45 6.2 M37.3 32.2 L35.8 33.15 Q34.6 31.75 34.15 29.15 L35.15 28.6 Q35.55 28.4 36.05 28.1 36.3 29.5 36.8 30.5 37.3 31.5 37.3 32.2 M34.4 23.15 L34.55 22.4 Q35.1 19.65 34.8 17.6 L35.1 17.6 36.75 17.05 36.7 19.35 36.6 20.45 36.5 21.6 36.4 22.9 34.9 23.15 34.4 23.15 M31.85 12.2 L31.65 11.85 Q30.6 9.9 30.55 8.15 L30.45 7.55 30.4 7.25 31.5 6.85 31.75 7.85 31.9 9.0 Q31.85 9.6 33.05 11.1 L33.3 11.6 Q32.2 12.05 31.85 12.2" fill="#005585" fill-rule="evenodd" stroke="none"/>
    </g>
  </defs>
</svg>
