<?xml version="1.0" encoding="UTF-8" standalone="no"?>
<svg xmlns:ffdec="https://www.free-decompiler.com/flash" xmlns:xlink="http://www.w3.org/1999/xlink" ffdec:objectType="frame" height="23.7px" width="23.8px" xmlns="http://www.w3.org/2000/svg">
  <g transform="matrix(1.0, 0.0, 0.0, 1.0, 3.8, 3.85)">
    <use ffdec:characterId="234" height="23.7" transform="matrix(1.0, 0.0, 0.0, 1.0, -3.8, -3.85)" width="23.8" xlink:href="#button0"/>
  </g>
  <defs>
    <g id="button0" transform="matrix(1.0, 0.0, 0.0, 1.0, 1.8, 1.85)">
      <use ffdec:characterId="232" height="21.1" transform="matrix(1.0, 0.0, 0.0, 1.0, -0.5, -0.5)" width="21.15" xlink:href="#sprite0"/>
    </g>
    <g id="sprite0" transform="matrix(1.0, 0.0, 0.0, 1.0, 2.5, 2.5)">
      <use ffdec:characterId="231" height="21.1" transform="matrix(1.0, 0.0, 0.0, 1.0, -2.5, -2.5)" width="21.15" xlink:href="#shape0"/>
    </g>
    <g id="shape0" transform="matrix(1.0, 0.0, 0.0, 1.0, 2.5, 2.5)">
      <path d="M15.2 0.95 Q18.15 3.95 18.15 8.05 18.1 12.3 15.2 15.15 L15.1 15.25 Q12.3 18.1 8.05 18.1 4.0 18.1 1.05 15.25 L1.0 15.2 Q-1.95 12.35 -2.0 8.05 -2.0 3.9 1.0 0.95 L1.0 0.9 Q4.0 -2.0 8.05 -2.0 12.35 -2.0 15.2 0.95 M10.25 5.9 L10.2 5.85 Q9.35 5.0 8.05 5.0 6.85 5.0 5.95 5.9 L5.9 5.9 Q5.0 6.8 5.0 8.05 4.95 9.3 5.85 10.15 L5.9 10.2 Q6.8 11.1 8.05 11.1 9.35 11.1 10.2 10.25 L10.3 10.15 Q11.2 9.3 11.15 8.05 11.15 6.8 10.25 5.9" fill="#1bad1b" fill-rule="evenodd" stroke="none"/>
      <path d="M15.2 0.95 Q12.35 -2.0 8.05 -2.0 4.0 -2.0 1.0 0.9 L1.0 0.95 Q-2.0 3.9 -2.0 8.05 -1.95 12.35 1.0 15.2 L1.05 15.25 Q4.0 18.1 8.05 18.1 12.3 18.1 15.1 15.25 L15.2 15.15 Q18.1 12.3 18.15 8.05 18.15 3.95 15.2 0.95 Z" fill="none" stroke="#003f00" stroke-linecap="round" stroke-linejoin="round" stroke-width="1.0"/>
      <path d="M3.45 12.7 Q1.5 10.85 1.5 8.05 1.5 5.35 3.45 3.4 5.4 1.5 8.05 1.5 10.85 1.5 12.7 3.4 14.65 5.35 14.65 8.05 14.65 10.85 12.7 12.7 10.85 14.6 8.05 14.6 5.4 14.6 3.45 12.7 Z" fill="none" stroke="#1e801e" stroke-linecap="round" stroke-linejoin="round" stroke-width="4.0"/>
      <path d="M1.5 8.05 Q1.5 5.35 3.45 3.4 5.4 1.5 8.05 1.5 10.85 1.5 12.7 3.4 14.65 5.35 14.65 8.05 14.65 10.85 12.7 12.7 10.85 14.6 8.05 14.6 5.4 14.6 3.45 12.7 1.5 10.85 1.5 8.05" fill="url(#gradient0)" fill-rule="evenodd" stroke="none"/>
      <path d="M5.9 6.1 L5.75 7.5 4.75 8.55 3.6 8.6 Q3.05 8.35 2.85 7.65 2.7 7.0 3.1 6.25 3.4 5.55 4.0 5.2 L5.15 5.15 Q5.75 5.45 5.9 6.1 M6.85 3.55 L6.8 4.3 6.25 4.8 5.55 4.8 5.05 4.25 5.15 3.55 5.65 3.0 6.4 3.05 6.85 3.55" fill="#ffffff" fill-rule="evenodd" stroke="none"/>
    </g>
    <radialGradient cx="0" cy="0" gradientTransform="matrix(0.0088, 0.0, 0.0, 0.0088, 6.6, 6.1)" gradientUnits="userSpaceOnUse" id="gradient0" r="819.2" spreadMethod="pad">
      <stop offset="0.42745098039215684" stop-color="#83e075"/>
      <stop offset="0.7647058823529411" stop-color="#1fb60a"/>
    </radialGradient>
  </defs>
</svg>
