<?xml version="1.0" encoding="UTF-8" standalone="no"?>
<svg xmlns:ffdec="https://www.free-decompiler.com/flash" xmlns:xlink="http://www.w3.org/1999/xlink" ffdec:objectType="frame" height="877.05px" width="2571.75px" xmlns="http://www.w3.org/2000/svg">
  <g transform="matrix(1.0, 0.0, 0.0, 1.0, 741.3, 0.0)">
    <use ffdec:characterId="2552" height="877.05" transform="matrix(1.0, 0.0, 0.0, 1.0, 0.0, 0.0)" width="1083.55" xlink:href="#shape0"/>
    <filter id="filter0">
      <feConvolveMatrix divisor="100.0" in="SourceGraphic" kernelMatrix="1 1 1 1 1 1 1 1 1 1 1 1 1 1 1 1 1 1 1 1 1 1 1 1 1 1 1 1 1 1 1 1 1 1 1 1 1 1 1 1 1 1 1 1 1 1 1 1 1 1 1 1 1 1 1 1 1 1 1 1 1 1 1 1 1 1 1 1 1 1 1 1 1 1 1 1 1 1 1 1 1 1 1 1 1 1 1 1 1 1 1 1 1 1 1 1 1 1 1 1" order="10 10" result="filterResult0"/>
      <feConvolveMatrix divisor="100.0" in="filterResult0" kernelMatrix="1 1 1 1 1 1 1 1 1 1 1 1 1 1 1 1 1 1 1 1 1 1 1 1 1 1 1 1 1 1 1 1 1 1 1 1 1 1 1 1 1 1 1 1 1 1 1 1 1 1 1 1 1 1 1 1 1 1 1 1 1 1 1 1 1 1 1 1 1 1 1 1 1 1 1 1 1 1 1 1 1 1 1 1 1 1 1 1 1 1 1 1 1 1 1 1 1 1 1 1" order="10 10" result="filterResult1"/>
    </filter>
    <use ffdec:characterId="2554" filter="url(#filter0)" height="369.2" transform="matrix(1.0117, 0.0, 0.0, 1.0117, 114.05, 364.8)" width="850.95" xlink:href="#sprite0"/>
    <filter id="filter1">
      <feConvolveMatrix divisor="100.0" in="SourceGraphic" kernelMatrix="1 1 1 1 1 1 1 1 1 1 1 1 1 1 1 1 1 1 1 1 1 1 1 1 1 1 1 1 1 1 1 1 1 1 1 1 1 1 1 1 1 1 1 1 1 1 1 1 1 1 1 1 1 1 1 1 1 1 1 1 1 1 1 1 1 1 1 1 1 1 1 1 1 1 1 1 1 1 1 1 1 1 1 1 1 1 1 1 1 1 1 1 1 1 1 1 1 1 1 1" order="10 10" result="filterResult2"/>
      <feConvolveMatrix divisor="100.0" in="filterResult2" kernelMatrix="1 1 1 1 1 1 1 1 1 1 1 1 1 1 1 1 1 1 1 1 1 1 1 1 1 1 1 1 1 1 1 1 1 1 1 1 1 1 1 1 1 1 1 1 1 1 1 1 1 1 1 1 1 1 1 1 1 1 1 1 1 1 1 1 1 1 1 1 1 1 1 1 1 1 1 1 1 1 1 1 1 1 1 1 1 1 1 1 1 1 1 1 1 1 1 1 1 1 1 1" order="10 10" result="filterResult3"/>
    </filter>
    <use ffdec:characterId="2554" filter="url(#filter1)" height="369.2" transform="matrix(1.0117, 0.0, 0.0, 1.0117, 969.5, 364.8)" width="850.95" xlink:href="#sprite0"/>
    <filter id="filter2">
      <feConvolveMatrix divisor="100.0" in="SourceGraphic" kernelMatrix="1 1 1 1 1 1 1 1 1 1 1 1 1 1 1 1 1 1 1 1 1 1 1 1 1 1 1 1 1 1 1 1 1 1 1 1 1 1 1 1 1 1 1 1 1 1 1 1 1 1 1 1 1 1 1 1 1 1 1 1 1 1 1 1 1 1 1 1 1 1 1 1 1 1 1 1 1 1 1 1 1 1 1 1 1 1 1 1 1 1 1 1 1 1 1 1 1 1 1 1" order="10 10" result="filterResult4"/>
      <feConvolveMatrix divisor="100.0" in="filterResult4" kernelMatrix="1 1 1 1 1 1 1 1 1 1 1 1 1 1 1 1 1 1 1 1 1 1 1 1 1 1 1 1 1 1 1 1 1 1 1 1 1 1 1 1 1 1 1 1 1 1 1 1 1 1 1 1 1 1 1 1 1 1 1 1 1 1 1 1 1 1 1 1 1 1 1 1 1 1 1 1 1 1 1 1 1 1 1 1 1 1 1 1 1 1 1 1 1 1 1 1 1 1 1 1" order="10 10" result="filterResult5"/>
    </filter>
    <use ffdec:characterId="2554" filter="url(#filter2)" height="369.2" transform="matrix(1.0117, 0.0, 0.0, 1.0117, -741.3, 364.8)" width="850.95" xlink:href="#sprite0"/>
  </g>
  <defs>
    <g id="shape0" transform="matrix(1.0, 0.0, 0.0, 1.0, 0.0, 0.0)">
      <path d="M1057.4 877.05 L0.0 856.05 11.45 482.2 16.15 13.9 1053.3 0.0 1083.55 484.55 1057.4 877.05" fill="url(#gradient0)" fill-rule="evenodd" stroke="none"/>
    </g>
    <radialGradient cx="0" cy="0" gradientTransform="matrix(2.4042, -0.002, 4.0E-4, 0.4975, 512.6, 721.4)" gradientUnits="userSpaceOnUse" id="gradient0" r="819.2" spreadMethod="pad">
      <stop offset="0.10980392156862745" stop-color="#fffecb"/>
      <stop offset="0.42745098039215684" stop-color="#62cef3"/>
      <stop offset="0.5882352941176471" stop-color="#35c0ff"/>
      <stop offset="0.9921568627450981" stop-color="#4db5ff"/>
    </radialGradient>
    <g id="sprite0" transform="matrix(1.0, 0.0, 0.0, 1.0, 0.0, 0.0)">
      <use ffdec:characterId="2553" height="369.2" transform="matrix(1.0, 0.0, 0.0, 1.0, 0.0, 0.0)" width="850.95" xlink:href="#shape1"/>
    </g>
    <g id="shape1" transform="matrix(1.0, 0.0, 0.0, 1.0, 0.0, 0.0)">
      <path d="M574.25 70.05 L552.55 69.05 580.25 67.85 619.65 63.9 639.8 64.6 657.4 65.25 Q658.85 65.15 660.85 55.55 662.8 45.9 675.3 45.05 L686.3 45.55 Q683.2 42.15 682.75 34.7 681.75 19.55 696.6 10.05 709.8 1.5 730.55 0.15 755.3 -1.45 770.6 11.7 777.1 17.35 780.55 24.25 785.75 20.1 793.3 17.8 800.85 15.55 810.0 16.65 818.3 17.7 827.75 25.75 830.85 20.4 836.0 16.7 842.25 12.25 850.95 10.4 L850.95 93.9 848.5 95.15 Q844.1 97.55 838.0 97.55 835.15 97.55 827.7 94.2 L826.55 93.7 825.55 93.25 Q817.8 89.7 815.3 89.7 L814.5 89.75 Q810.0 89.85 801.45 91.5 792.05 93.3 786.1 93.3 786.1 94.95 771.25 92.3 L764.8 90.9 Q767.55 89.9 768.6 88.3 769.75 86.15 773.4 86.05 771.0 84.75 769.4 82.9 763.7 76.3 763.7 75.8 L763.7 75.9 Q758.35 79.95 743.4 79.05 728.55 78.15 709.5 70.95 690.5 63.7 690.3 63.75 687.3 63.95 683.35 66.0 679.3 68.1 676.65 68.3 654.9 69.7 623.05 69.5 601.0 69.55 574.25 70.05 M561.65 203.6 Q571.75 201.2 576.45 199.45 581.1 197.65 582.1 188.3 583.05 178.95 588.3 180.1 593.6 181.25 597.35 184.15 595.45 175.55 595.45 168.1 595.45 152.95 605.65 144.4 614.75 136.75 628.5 136.75 644.95 136.75 654.5 150.9 662.35 162.65 662.35 177.75 662.35 179.85 661.95 181.85 663.95 181.05 665.8 181.05 672.25 181.05 676.3 189.7 680.0 197.8 684.55 197.0 693.5 195.4 701.25 202.05 704.65 204.65 706.5 207.5 L694.6 208.3 Q689.8 208.3 681.5 206.45 673.05 204.65 669.2 204.65 L662.2 206.25 654.2 207.7 648.3 210.1 Q642.8 212.5 637.9 212.5 626.9 212.5 613.1 205.05 L599.2 197.6 Q597.2 197.6 594.55 199.4 591.75 201.25 581.6 202.9 L561.65 203.6 M684.8 351.55 L675.7 352.6 664.1 353.9 635.35 355.2 Q621.5 354.35 612.75 347.55 605.1 341.65 604.85 334.7 604.4 326.1 607.85 321.5 615.15 312.25 637.75 312.75 638.85 308.85 643.55 304.15 649.35 298.8 655.4 298.55 666.0 298.05 682.15 300.45 L696.55 302.9 701.4 298.55 Q706.1 294.25 715.8 293.8 L719.45 293.7 Q718.7 274.15 733.65 273.75 736.8 273.55 739.7 274.55 742.2 262.35 749.9 253.1 760.0 240.9 776.2 238.15 790.45 235.4 802.85 240.05 814.2 244.25 817.85 251.5 819.0 250.65 820.2 250.05 825.65 247.35 829.9 249.25 833.25 243.15 840.25 236.75 845.3 232.2 850.95 229.2 L850.95 273.6 Q847.15 271.6 842.05 270.95 832.6 269.75 823.2 273.15 L820.15 274.35 Q814.15 277.0 813.8 279.95 L810.55 284.25 Q802.7 286.8 790.15 291.95 L789.95 292.95 Q780.2 296.3 774.1 304.65 767.0 314.35 768.6 324.3 766.1 317.05 760.85 313.35 755.8 309.95 749.8 310.2 746.85 310.35 744.65 316.7 742.85 322.0 742.95 325.4 L743.0 327.1 Q742.1 326.05 740.8 325.5 L735.1 325.25 Q729.9 325.5 728.75 327.4 727.85 328.85 727.7 335.95 714.25 332.4 704.9 332.9 695.1 333.3 688.4 344.35 L684.8 351.55 M0.0 274.35 L0.0 228.55 Q10.5 223.3 23.0 223.2 41.75 225.95 48.6 240.25 53.1 249.6 51.7 260.65 50.6 269.3 46.8 276.8 60.25 274.2 67.85 277.3 77.2 281.3 75.6 293.95 75.4 295.45 73.65 299.65 L80.2 298.2 Q95.3 295.25 101.15 295.45 111.6 297.2 112.65 297.75 114.95 299.35 120.15 302.05 L124.7 306.95 Q129.15 311.15 132.75 311.6 134.9 311.9 143.8 310.05 152.55 308.15 160.55 309.2 L172.55 313.7 Q186.3 318.55 195.65 320.55 L215.6 323.05 Q221.85 323.85 227.75 325.55 L233.6 325.35 238.6 326.55 239.1 325.5 Q240.35 323.2 245.9 323.4 L246.95 323.2 248.8 323.45 249.2 323.5 249.9 323.6 Q255.2 324.25 257.2 326.55 260.0 328.3 259.8 329.9 L259.75 330.15 Q260.1 330.5 260.65 330.55 L262.85 330.4 Q264.5 330.05 266.75 330.35 268.85 330.6 270.4 331.3 L272.7 316.25 273.1 313.85 Q274.65 305.4 279.2 301.25 285.8 295.25 288.7 294.7 L295.8 294.2 Q303.4 294.2 308.1 299.2 311.55 302.8 312.45 307.9 L314.8 307.3 315.95 307.75 Q321.6 309.15 321.85 312.15 L322.4 312.15 Q322.4 303.1 335.35 303.1 339.75 303.1 343.1 305.85 346.55 308.7 346.55 312.65 346.55 315.9 344.55 318.75 L349.35 318.05 Q353.35 318.05 358.5 322.25 363.7 326.45 364.3 338.25 L318.1 338.35 320.25 338.6 Q322.25 338.85 324.0 339.8 L320.8 339.4 Q312.55 340.45 304.85 339.5 L300.65 338.35 269.3 338.4 269.55 337.0 250.5 337.1 Q206.65 337.05 177.2 333.35 146.35 329.35 142.5 329.65 L143.3 330.0 141.85 329.85 Q134.1 328.6 124.8 324.55 114.55 320.0 96.7 317.75 L78.15 317.05 Q67.1 317.35 61.35 316.65 56.55 316.05 44.65 311.85 32.9 307.5 30.9 307.25 L27.85 307.0 Q23.8 306.9 19.7 308.4 L19.1 308.6 Q17.95 306.0 16.0 304.0 13.05 300.8 9.25 298.95 10.4 280.85 0.0 274.35 M515.95 283.8 L525.9 284.55 Q529.95 285.25 539.25 293.65 545.55 299.45 547.75 311.35 L548.3 314.7 553.1 345.7 420.05 345.5 Q420.9 328.95 428.2 323.1 435.4 317.2 441.0 317.2 443.6 317.2 447.75 318.15 444.95 314.2 444.95 309.6 444.95 304.1 449.75 300.15 454.4 296.25 460.6 296.25 478.75 296.25 478.75 308.95 L479.5 308.95 Q479.8 304.75 487.75 302.75 488.8 302.15 489.35 302.15 L492.7 303.0 Q493.9 295.85 498.75 290.8 505.35 283.8 515.95 283.8 M308.5 80.8 L308.15 80.8 292.2 80.15 258.75 78.35 229.05 76.55 Q221.05 76.55 219.8 81.6 218.4 86.6 208.35 86.6 202.1 86.6 185.8 83.6 184.75 83.6 183.35 86.6 181.85 89.7 176.35 89.7 172.05 89.7 159.35 85.8 146.45 81.8 141.85 81.8 132.15 81.8 112.85 94.1 93.4 106.25 72.1 106.25 63.15 106.25 54.4 103.0 45.45 99.55 43.3 99.55 41.15 99.55 34.55 101.8 27.75 103.8 20.9 103.8 15.6 103.8 9.9 98.35 4.35 92.7 2.35 92.7 1.55 92.7 0.0 93.35 L0.0 10.15 Q5.7 9.05 12.35 9.05 37.55 9.05 54.9 24.4 L58.15 27.4 Q64.45 33.6 67.6 40.6 75.85 35.75 84.4 35.75 97.45 35.75 104.85 50.25 112.35 64.8 118.95 64.8 125.75 64.8 133.2 59.95 140.95 55.15 148.45 55.15 153.3 55.15 156.75 56.8 160.0 58.35 162.0 61.4 L167.2 68.7 173.65 68.9 178.85 68.1 Q183.35 68.1 190.3 71.7 197.25 75.15 210.45 75.15 214.25 75.15 224.3 73.5 234.1 71.7 236.45 71.7 259.45 71.7 284.2 75.95 305.25 80.35 308.3 80.55 L308.5 80.8 M77.4 213.15 Q78.5 212.2 80.45 211.4 84.95 209.3 89.85 210.35 92.35 210.95 94.65 208.1 97.2 205.1 100.75 205.4 101.75 205.5 102.9 205.95 102.7 205.2 102.8 204.4 103.25 198.85 108.0 194.95 113.7 190.25 122.9 191.05 130.5 191.7 135.3 194.95 140.65 198.55 140.15 204.15 139.9 206.85 138.75 208.15 L142.8 208.0 Q147.4 208.4 148.05 212.0 148.7 215.55 149.25 215.6 L155.75 215.55 Q161.5 215.25 163.15 215.4 L177.55 217.2 187.75 217.85 179.75 218.05 161.8 217.45 142.1 216.5 Q141.2 216.45 139.7 215.7 138.2 214.85 137.15 214.75 L129.2 216.85 Q121.3 218.85 115.25 218.35 112.45 218.1 109.5 216.95 L106.35 215.85 101.9 214.85 98.15 213.9 Q96.05 213.7 91.25 214.05 86.65 214.3 83.9 214.05 L77.4 213.15 M240.4 329.05 L239.6 329.2 240.5 329.3 240.4 329.05" fill="#ffffff" fill-rule="evenodd" stroke="none"/>
      <path d="M574.25 70.05 Q601.0 69.55 623.05 69.5 654.9 69.7 676.65 68.3 679.3 68.1 683.35 66.0 687.3 63.95 690.3 63.75 690.5 63.7 709.5 70.95 728.55 78.15 743.4 79.05 758.35 79.95 763.7 75.9 L763.7 75.8 Q763.7 76.3 769.4 82.9 771.0 84.75 773.4 86.05 769.75 86.15 768.6 88.3 767.55 89.9 764.8 90.9 L771.25 92.3 Q786.1 94.95 786.1 93.3 792.05 93.3 801.45 91.5 810.0 89.85 814.5 89.75 L815.3 89.7 Q817.8 89.7 825.55 93.25 L826.55 93.7 827.7 94.2 Q835.15 97.55 838.0 97.55 844.1 97.55 848.5 95.15 L850.95 93.9 850.95 103.35 Q844.95 109.7 840.1 109.7 825.45 109.7 816.35 104.0 L809.8 100.05 809.75 100.05 801.3 97.7 Q798.45 98.7 796.3 98.8 L790.3 98.75 Q786.75 98.85 780.9 97.25 L776.7 96.0 776.45 96.0 773.6 96.75 Q759.25 97.65 752.85 95.45 749.6 94.25 741.3 89.05 731.75 88.45 722.9 84.95 716.45 82.25 713.15 79.05 704.85 79.2 698.9 74.5 695.5 72.1 692.75 69.45 L684.95 71.55 Q677.75 73.45 673.55 73.7 L656.45 72.4 Q643.15 70.85 626.65 71.55 619.8 72.0 574.25 70.05 M706.5 207.5 Q707.7 209.1 708.25 210.7 L708.25 211.9 Q705.3 215.6 691.9 212.7 678.65 209.7 672.15 207.1 L661.55 207.1 661.95 214.4 Q661.95 218.4 657.25 221.85 650.6 226.65 637.35 226.65 628.0 226.65 619.8 220.85 615.65 217.8 613.65 214.4 608.15 214.0 604.4 208.9 602.3 206.25 600.6 203.45 L595.3 205.05 Q590.5 206.45 587.75 206.45 L574.8 205.5 560.5 203.85 558.0 203.45 556.55 203.25 561.65 203.6 581.6 202.9 Q591.75 201.25 594.55 199.4 597.2 197.6 599.2 197.6 L613.1 205.05 Q626.9 212.5 637.9 212.5 642.8 212.5 648.3 210.1 L654.2 207.7 662.2 206.25 669.2 204.65 Q673.05 204.65 681.5 206.45 689.8 208.3 694.6 208.3 L706.5 207.5 M850.95 273.6 L850.95 351.35 833.1 350.05 Q827.7 349.15 822.95 347.65 815.45 368.2 794.35 369.2 789.7 369.4 759.6 360.35 727.5 350.6 716.65 349.5 L690.6 350.7 684.8 351.55 688.4 344.35 Q695.1 333.3 704.9 332.9 714.25 332.4 727.7 335.95 727.85 328.85 728.75 327.4 729.9 325.5 735.1 325.25 L740.8 325.5 Q742.1 326.05 743.0 327.1 L742.95 325.4 Q742.85 322.0 744.65 316.7 746.85 310.35 749.8 310.2 755.8 309.95 760.85 313.35 766.1 317.05 768.6 324.3 767.0 314.35 774.1 304.65 780.2 296.3 789.95 292.95 L790.15 291.95 Q802.7 286.8 810.55 284.25 L813.8 279.95 Q814.15 277.0 820.15 274.35 L823.2 273.15 Q832.6 269.75 842.05 270.95 847.15 271.6 850.95 273.6 M744.45 330.45 L744.6 331.05 744.55 330.4 744.45 330.45 M769.85 329.2 L769.8 329.1 769.85 329.85 769.85 329.2 M324.0 339.8 L325.0 340.4 323.8 340.25 Q323.65 341.45 322.2 341.45 L315.7 341.15 315.55 341.15 314.75 341.15 313.2 340.95 309.7 341.6 Q307.5 342.0 303.65 341.5 302.05 341.3 300.95 339.4 L299.6 339.25 Q282.7 337.75 272.95 339.25 272.75 340.7 259.95 343.3 246.95 346.0 245.75 348.8 243.2 354.85 240.9 357.25 236.2 362.2 226.5 363.95 L209.3 366.5 Q200.25 367.4 186.25 366.7 L134.85 363.6 85.0 359.8 62.9 357.15 53.6 356.8 26.05 353.3 0.0 351.45 0.0 274.35 Q10.4 280.85 9.25 298.95 13.05 300.8 16.0 304.0 17.95 306.0 19.1 308.6 L19.7 308.4 Q23.8 306.9 27.85 307.0 L30.9 307.25 Q32.9 307.5 44.65 311.85 56.55 316.05 61.35 316.65 67.1 317.35 78.15 317.05 L96.7 317.75 Q114.55 320.0 124.8 324.55 134.1 328.6 141.85 329.85 L143.3 330.0 142.5 329.65 Q146.35 329.35 177.2 333.35 206.65 337.05 250.5 337.1 L269.55 337.0 269.3 338.4 300.65 338.35 304.85 339.5 Q312.55 340.45 320.8 339.4 L324.0 339.8 M308.5 80.8 L308.85 81.2 Q301.35 81.8 273.25 81.2 245.9 81.6 245.9 81.8 L245.9 82.4 238.05 83.0 Q237.15 83.2 226.6 80.55 L223.95 80.55 Q223.0 82.6 224.1 88.3 222.45 92.9 208.15 92.9 206.95 92.9 192.05 89.3 L187.6 88.1 188.1 90.9 Q188.1 97.15 174.55 97.15 165.6 97.15 155.4 92.5 145.2 87.9 139.85 87.9 135.25 87.9 121.25 101.0 101.75 113.9 69.95 113.9 48.65 113.9 40.45 110.3 38.45 109.5 37.05 108.3 32.2 111.5 25.6 111.5 15.2 111.5 8.95 107.9 5.2 105.85 0.4 101.4 L0.0 101.9 0.0 93.35 Q1.55 92.7 2.35 92.7 4.35 92.7 9.9 98.35 15.6 103.8 20.9 103.8 27.75 103.8 34.55 101.8 41.15 99.55 43.3 99.55 45.45 99.55 54.4 103.0 63.15 106.25 72.1 106.25 93.4 106.25 112.85 94.1 132.15 81.8 141.85 81.8 146.45 81.8 159.35 85.8 172.05 89.7 176.35 89.7 181.85 89.7 183.35 86.6 184.75 83.6 185.8 83.6 202.1 86.6 208.35 86.6 218.4 86.6 219.8 81.6 221.05 76.55 229.05 76.55 L258.75 78.35 292.2 80.15 308.15 80.8 308.5 80.8 M77.4 213.15 L83.9 214.05 Q86.65 214.3 91.25 214.05 96.05 213.7 98.15 213.9 L101.9 214.85 106.35 215.85 109.5 216.95 Q112.45 218.1 115.25 218.35 121.3 218.85 129.2 216.85 L137.15 214.75 Q138.2 214.85 139.7 215.7 141.2 216.45 142.1 216.5 L161.8 217.45 179.75 218.05 Q163.05 218.35 160.45 218.15 154.4 217.8 149.5 218.25 L143.15 218.65 139.0 217.7 136.15 216.85 133.8 218.65 Q131.6 220.35 128.55 220.2 127.4 221.35 124.95 222.3 120.25 224.0 115.05 223.55 107.7 222.9 104.2 220.9 101.7 219.3 101.85 217.85 L102.3 215.25 96.45 214.7 85.3 215.85 Q77.8 216.15 76.25 214.7 L76.3 214.25 77.4 213.15" fill="#eceef5" fill-rule="evenodd" stroke="none"/>
    </g>
  </defs>
</svg>
