<?xml version="1.0" encoding="UTF-8" standalone="no"?>
<svg xmlns:ffdec="https://www.free-decompiler.com/flash" xmlns:xlink="http://www.w3.org/1999/xlink" ffdec:objectType="frame" height="144.3px" width="101.5px" xmlns="http://www.w3.org/2000/svg">
  <g transform="matrix(1.0, 0.0, 0.0, 1.0, -24.25, -2.25)">
    <use ffdec:characterId="563" height="23.75" transform="matrix(1.0, 0.0, 0.0, 1.0, 73.8, 14.0)" width="13.75" xlink:href="#shape0"/>
    <use ffdec:characterId="1180" height="13.5" transform="matrix(1.3889, 0.0, 0.0, 1.3889, 76.8, 2.25)" width="13.5" xlink:href="#sprite0"/>
    <use ffdec:characterId="1181" height="101.5" transform="matrix(1.0, 0.0, 0.0, 1.0, 24.25, 24.25)" width="101.5" xlink:href="#sprite1"/>
    <use ffdec:characterId="1182" height="46.45" transform="matrix(1.0, 0.0, 0.0, 1.0, 37.65, 81.2)" width="64.2" xlink:href="#shape3"/>
    <use ffdec:characterId="1183" height="75.6" transform="matrix(1.0, 0.0, 0.0, 1.0, 65.4, 70.95)" width="19.3" xlink:href="#sprite2"/>
    <use ffdec:characterId="1184" height="25.5" transform="matrix(0.9051, 0.0, 0.0, 0.9051, 38.0248, 53.252)" width="36.15" xlink:href="#shape5"/>
    <use ffdec:characterId="1184" height="25.5" transform="matrix(0.9051, 0.0, 0.0, 0.9051, 79.8248, 53.352)" width="36.15" xlink:href="#shape5"/>
    <use ffdec:characterId="1185" height="20.95" transform="matrix(-0.9051, 0.0, 0.0, 0.9051, 70.1482, 33.1)" width="34.8" xlink:href="#sprite3"/>
    <use ffdec:characterId="1185" height="20.95" transform="matrix(0.9051, 0.0, 0.0, 0.9051, 80.5518, 33.85)" width="34.8" xlink:href="#sprite3"/>
  </g>
  <defs>
    <g id="shape0" transform="matrix(1.0, 0.0, 0.0, 1.0, 1.2, 61.0)">
      <path d="M11.05 -59.5 Q1.4 -50.05 0.3 -38.75" fill="none" stroke="#383838" stroke-linecap="round" stroke-linejoin="round" stroke-width="3.0"/>
    </g>
    <g id="sprite0" transform="matrix(1.0, 0.0, 0.0, 1.0, 13.5, 0.0)">
      <use ffdec:characterId="564" height="13.5" transform="matrix(1.0, 0.0, 0.0, 1.0, -13.5, 0.0)" width="13.5" xlink:href="#shape1"/>
    </g>
    <g id="shape1" transform="matrix(1.0, 0.0, 0.0, 1.0, 13.5, 0.0)">
      <path d="M-13.5 6.75 Q-13.5 3.95 -11.55 1.95 -9.55 0.0 -6.75 0.0 -3.95 0.0 -2.0 1.95 0.0 3.95 0.0 6.75 0.0 9.55 -2.0 11.5 -3.95 13.5 -6.75 13.5 -9.55 13.5 -11.55 11.5 -13.5 9.55 -13.5 6.75" fill="#383838" fill-rule="evenodd" stroke="none"/>
    </g>
    <g id="sprite1" transform="matrix(1.0, 0.0, 0.0, 1.0, 100.5, 1.0)">
      <use ffdec:characterId="567" height="101.5" transform="matrix(1.0, 0.0, 0.0, 1.0, -100.5, -1.0)" width="101.5" xlink:href="#shape2"/>
    </g>
    <g id="shape2" transform="matrix(1.0, 0.0, 0.0, 1.0, 100.5, 1.0)">
      <path d="M-92.95 24.85 Q-96.35 33.1 -96.35 42.7 L-96.3 44.95 Q-95.55 62.9 -82.65 75.75 -68.9 89.5 -49.55 89.5 -30.15 89.5 -16.45 75.75 -3.5 62.9 -2.75 44.95 L-2.7 42.7 Q-2.7 34.6 -5.1 27.55 -0.5 36.6 -0.05 47.4 L0.0 49.75 Q0.0 70.35 -14.6 84.9 -29.15 99.5 -49.75 99.5 -70.35 99.5 -84.95 84.9 -99.5 70.35 -99.5 49.75 L-99.45 47.4 Q-98.95 35.0 -92.95 24.85" fill="url(#gradient0)" fill-rule="evenodd" stroke="none"/>
      <path d="M-5.1 27.55 Q-2.7 34.6 -2.7 42.7 L-2.75 44.95 Q-3.5 62.9 -16.45 75.75 -30.15 89.5 -49.55 89.5 -68.9 89.5 -82.65 75.75 -95.55 62.9 -96.3 44.95 L-96.35 42.7 Q-96.35 33.1 -92.95 24.85 -89.75 19.4 -84.95 14.55 -70.35 0.0 -49.75 0.0 -29.15 0.0 -14.6 14.55 -8.6 20.55 -5.1 27.55" fill="url(#gradient1)" fill-rule="evenodd" stroke="none"/>
      <path d="M-92.95 24.85 Q-98.95 35.0 -99.45 47.4 L-99.5 49.75 Q-99.5 70.35 -84.95 84.9 -70.35 99.5 -49.75 99.5 -29.15 99.5 -14.6 84.9 0.0 70.35 0.0 49.75 L-0.05 47.4 Q-0.5 36.6 -5.1 27.55 -8.6 20.55 -14.6 14.55 -29.15 0.0 -49.75 0.0 -70.35 0.0 -84.95 14.55 -89.75 19.4 -92.95 24.85 Z" fill="none" stroke="#a13e00" stroke-linecap="round" stroke-linejoin="round" stroke-width="2.0"/>
    </g>
    <radialGradient cx="0" cy="0" gradientTransform="matrix(0.0793, 0.0, 0.0, 0.0793, -46.75, 30.25)" gradientUnits="userSpaceOnUse" id="gradient0" r="819.2" spreadMethod="pad">
      <stop offset="0.0" stop-color="#ffb61b"/>
      <stop offset="1.0" stop-color="#ee8300"/>
    </radialGradient>
    <radialGradient cx="0" cy="0" gradientTransform="matrix(0.0793, 0.0, 0.0, 0.0793, -46.75, 30.25)" gradientUnits="userSpaceOnUse" id="gradient1" r="819.2" spreadMethod="pad">
      <stop offset="0.0" stop-color="#ffd035"/>
      <stop offset="1.0" stop-color="#ff9a00"/>
    </radialGradient>
    <g id="shape3" transform="matrix(1.0, 0.0, 0.0, 1.0, -37.65, -81.2)">
      <path d="M74.95 95.05 Q84.25 97.25 93.6 98.2 L100.85 98.75 Q98.55 106.75 87.75 112.1 84.25 113.8 80.55 114.65 72.8 116.35 64.15 114.25 L62.6 113.85 Q66.35 105.5 74.95 95.05 M44.0 100.55 Q38.65 92.45 38.65 85.75 38.75 83.9 39.15 82.2 L46.25 85.45 55.2 89.05 Q47.3 94.35 44.0 100.55" fill="#5d1b1b" fill-rule="evenodd" stroke="none"/>
      <path d="M74.95 95.05 Q66.35 105.5 62.6 113.85 L60.75 118.1 Q55.15 128.85 48.0 126.1 43.35 124.3 41.85 116.95 40.25 109.7 42.95 102.85 43.35 101.65 44.0 100.55 47.3 94.35 55.2 89.05 65.1 92.7 74.95 95.05" fill="url(#gradient2)" fill-rule="evenodd" stroke="none"/>
      <path d="M62.6 113.85 L64.15 114.25 Q72.8 116.35 80.55 114.65 84.25 113.8 87.75 112.1 98.55 106.75 100.85 98.75 M39.15 82.2 Q38.75 83.9 38.65 85.75 38.65 92.45 44.0 100.55" fill="none" stroke="#560f0f" stroke-linecap="round" stroke-linejoin="round" stroke-width="2.0"/>
      <path d="M74.95 95.05 Q66.35 105.5 62.6 113.85 L60.75 118.1 Q55.15 128.85 48.0 126.1 43.35 124.3 41.85 116.95 40.25 109.7 42.95 102.85 43.35 101.65 44.0 100.55 47.3 94.35 55.2 89.05" fill="none" stroke="#006630" stroke-linecap="round" stroke-linejoin="round" stroke-width="2.0"/>
      <path d="M100.85 98.75 L93.6 98.2 Q84.25 97.25 74.95 95.05 65.1 92.7 55.2 89.05 L46.25 85.45 39.15 82.2" fill="none" stroke="#560d0d" stroke-linecap="round" stroke-linejoin="round" stroke-width="2.0"/>
      <path d="M55.85 104.6 L55.85 103.45 Q55.75 102.35 55.45 101.8 L54.65 101.05 54.25 100.95 Q54.05 100.9 53.9 101.1 L53.55 101.7 53.35 102.25 49.4 112.95 Q48.95 114.0 49.0 114.65 49.0 115.2 49.65 115.55 L51.05 115.6 51.85 115.1 52.35 114.45 53.5 112.5 54.35 110.35 55.6 106.1 55.85 104.6 M49.45 97.25 L49.6 96.3 49.65 96.2 50.25 95.4 50.95 95.35 51.6 95.6 56.7 98.45 Q58.35 99.4 59.15 100.85 60.0 102.3 60.15 104.1 60.3 105.95 59.95 107.85 L59.8 108.6 60.6 109.05 Q61.3 109.45 61.4 110.6 61.55 111.65 61.1 112.9 L60.25 114.45 59.9 114.65 Q59.2 115.25 58.55 114.95 L58.45 114.9 57.7 114.5 57.65 114.6 57.25 115.25 57.15 115.5 55.9 117.15 54.85 118.25 Q53.55 119.3 52.15 119.55 L49.95 119.3 49.3 119.05 49.05 118.9 48.4 118.4 47.65 117.9 46.95 117.55 46.3 117.15 45.65 116.8 44.95 116.4 44.25 116.1 43.65 115.9 43.55 115.85 43.1 115.4 42.75 114.6 42.8 114.5 42.95 113.5 43.35 112.75 Q43.55 112.6 43.8 112.6 L44.3 112.55 44.5 112.5 44.85 112.05 45.7 110.2 46.5 108.25 45.75 107.85 Q45.1 107.45 44.95 106.3 L44.9 106.05 Q44.8 105.1 45.2 104.05 L45.5 103.35 Q45.9 102.65 46.45 102.25 47.25 101.6 47.9 102.0 L48.75 102.45 49.55 100.3 49.85 99.35 49.95 98.7 49.7 97.85 49.45 97.35 49.45 97.25" fill="#00381a" fill-rule="evenodd" stroke="none"/>
    </g>
    <radialGradient cx="0" cy="0" gradientTransform="matrix(-0.0733, -0.0197, -0.0091, 0.0338, 62.0, 91.55)" gradientUnits="userSpaceOnUse" id="gradient2" r="819.2" spreadMethod="pad">
      <stop offset="0.25098039215686274" stop-color="#52f394"/>
      <stop offset="1.0" stop-color="#00af53"/>
    </radialGradient>
    <g id="sprite2" transform="matrix(1.0, 0.0, 0.0, 1.0, 18.3, 0.0)">
      <use ffdec:characterId="570" height="75.6" transform="matrix(1.0, 0.0, 0.0, 1.0, -18.3, 0.0)" width="19.3" xlink:href="#shape4"/>
    </g>
    <g id="shape4" transform="matrix(1.0, 0.0, 0.0, 1.0, 18.3, 0.0)">
      <path d="M-12.4 2.05 Q-12.3 1.1 -11.25 0.55 -10.15 0.0 -8.65 0.0 -7.3 0.0 -6.2 0.55 -5.0 1.1 -4.9 2.05 L-2.5 26.4 -2.4 26.4 -2.35 26.7 Q-8.45 32.55 -14.9 26.7 L-14.9 26.4 -14.8 26.4 -12.4 2.05" fill="url(#gradient3)" fill-rule="evenodd" stroke="none"/>
      <path d="M-2.35 26.7 L0.0 68.35 Q0.05 70.8 -2.4 72.65 -5.0 74.6 -8.65 74.6 -12.5 74.6 -14.95 72.65 -17.5 70.8 -17.3 68.35 L-14.9 26.7 Q-8.45 32.55 -2.35 26.7" fill="url(#gradient4)" fill-rule="evenodd" stroke="none"/>
      <path d="M-4.9 2.05 L-2.5 26.4 M-2.4 26.4 L-2.35 26.7 0.0 68.35 Q0.05 70.8 -2.4 72.65 -5.0 74.6 -8.65 74.6 -12.5 74.6 -14.95 72.65 -17.5 70.8 -17.3 68.35 L-14.9 26.7 -14.9 26.4 M-14.8 26.4 L-12.4 2.05" fill="none" stroke="#af4a00" stroke-linecap="round" stroke-linejoin="round" stroke-width="2.0"/>
    </g>
    <radialGradient cx="0" cy="0" gradientTransform="matrix(0.0115, 0.0, 0.0, 0.1011, -9.15, 0.8)" gradientUnits="userSpaceOnUse" id="gradient3" r="819.2" spreadMethod="pad">
      <stop offset="0.0" stop-color="#ffd035"/>
      <stop offset="1.0" stop-color="#ff9a00"/>
    </radialGradient>
    <radialGradient cx="0" cy="0" gradientTransform="matrix(0.0115, 0.0, 0.0, 0.1011, -9.15, 0.8)" gradientUnits="userSpaceOnUse" id="gradient4" r="819.2" spreadMethod="pad">
      <stop offset="0.0" stop-color="#f7aa1a"/>
      <stop offset="1.0" stop-color="#ef8601"/>
    </radialGradient>
    <g id="shape5" transform="matrix(1.0, 0.0, 0.0, 1.0, 37.15, 14.25)">
      <path d="M-22.85 -9.9 L-23.05 -9.1 -23.05 -8.4 -23.05 4.9 Q-23.15 6.3 -22.65 6.9 -22.25 7.5 -20.8 7.5 -19.2 7.5 -18.1 6.7 L-17.0 5.7 -16.5 4.8 -15.7 2.1 Q-15.5 0.65 -15.6 -0.65 -15.6 -3.85 -16.1 -5.75 L-16.7 -7.4 -17.5 -8.6 Q-18.4 -9.7 -19.4 -10.1 L-21.45 -10.4 -22.25 -10.3 Q-22.65 -10.2 -22.85 -9.9 M-34.2 -12.5 Q-34.2 -13.2 -33.7 -13.7 L-32.4 -14.15 -30.9 -14.25 -19.3 -14.25 Q-15.6 -14.25 -13.05 -13.2 -10.45 -12.2 -8.95 -10.4 -7.35 -8.6 -6.75 -6.4 L-6.45 -5.55 -4.7 -5.55 Q-3.1 -5.55 -2.0 -4.45 -1.0 -3.45 -1.0 -1.85 -1.0 -0.65 -1.6 0.25 L-2.0 0.65 Q-3.0 1.65 -4.4 1.75 L-4.7 1.75 -6.35 1.75 -6.35 1.85 -6.65 2.8 -6.75 3.1 Q-7.15 4.3 -7.85 5.5 L-9.15 7.3 Q-10.75 9.1 -13.25 10.15 -15.2 10.95 -17.6 11.15 L-19.0 11.25 -19.6 11.25 -21.15 11.15 -22.95 11.05 -24.55 11.05 -26.05 11.05 -27.55 11.05 -29.1 11.05 -30.6 11.15 -31.8 11.25 -32.1 11.25 -33.3 11.05 -34.4 10.45 -34.5 10.35 -34.9 9.2 -34.6 8.2 Q-34.3 7.9 -33.9 7.8 L-33.0 7.5 -32.6 7.3 -32.3 6.6 Q-32.0 5.8 -31.9 4.2 L-31.8 1.75 -33.5 1.75 Q-35.0 1.75 -36.1 0.65 L-36.4 0.35 Q-37.15 -0.55 -37.15 -1.85 L-37.05 -2.75 -36.1 -4.45 Q-35.0 -5.55 -33.5 -5.55 L-31.6 -5.55 -31.6 -8.2 -31.7 -9.4 -32.0 -10.1 Q-32.4 -10.6 -33.0 -10.8 L-33.8 -11.2 -33.9 -11.3 Q-34.2 -11.6 -34.2 -12.4 L-34.2 -12.5" fill="#5d1b1b" fill-rule="evenodd" stroke="none"/>
    </g>
    <g id="sprite3" transform="matrix(1.0, 0.0, 0.0, 1.0, 34.8, 0.0)">
      <use ffdec:characterId="575" height="20.95" transform="matrix(1.0, 0.0, 0.0, 1.0, -34.8, 0.0)" width="34.8" xlink:href="#shape6"/>
    </g>
    <g id="shape6" transform="matrix(1.0, 0.0, 0.0, 1.0, 34.8, 0.0)">
      <path d="M-32.35 8.85 L-34.8 4.1 Q-12.95 -9.3 0.0 20.95 -16.95 -0.45 -32.35 8.85" fill="#323232" fill-rule="evenodd" stroke="none"/>
    </g>
  </defs>
</svg>
