<?xml version="1.0" encoding="UTF-8" standalone="no"?>
<svg xmlns:ffdec="https://www.free-decompiler.com/flash" xmlns:xlink="http://www.w3.org/1999/xlink" ffdec:objectType="frame" height="11.5px" width="9.3px" xmlns="http://www.w3.org/2000/svg">
  <g transform="matrix(1.0, 0.0, 0.0, 1.0, 0.0, 0.0)">
    <use ffdec:characterId="2105" height="11.5" transform="matrix(1.0, 0.0, 0.0, 1.0, 0.0, 0.0)" width="9.3" xlink:href="#shape0"/>
  </g>
  <defs>
    <g id="shape0" transform="matrix(1.0, 0.0, 0.0, 1.0, 0.0, 0.0)">
      <path d="M4.05 0.45 L4.1 0.75 3.35 1.5 3.6 1.45 4.7 0.75 Q5.7 0.0 7.4 0.0 8.85 0.0 9.2 0.45 L9.3 1.3 Q9.3 2.65 4.3 6.4 3.85 6.7 2.95 9.25 2.2 11.5 1.15 11.5 0.35 11.5 0.1 10.5 L0.0 9.45 Q0.0 8.7 0.65 7.3 L0.95 6.65 0.9 6.25 0.9 5.4 Q0.9 3.75 1.35 2.8 2.05 1.2 4.05 0.45" fill="#2d6f74" fill-opacity="0.2" fill-rule="evenodd" stroke="none"/>
    </g>
  </defs>
</svg>
