<?xml version="1.0" encoding="UTF-8" standalone="no"?>
<svg xmlns:ffdec="https://www.free-decompiler.com/flash" xmlns:xlink="http://www.w3.org/1999/xlink" ffdec:objectType="frame" height="25.05px" width="16.05px" xmlns="http://www.w3.org/2000/svg">
  <g transform="matrix(1.0, 0.0, 0.0, 1.0, 9.4, 1.25)">
    <use ffdec:characterId="2198" height="25.05" transform="matrix(1.0, 0.0, 0.0, 1.0, -9.4, -1.25)" width="16.05" xlink:href="#shape0"/>
  </g>
  <defs>
    <g id="shape0" transform="matrix(1.0, 0.0, 0.0, 1.0, 9.4, 1.25)">
      <path d="M-3.25 0.45 L-2.5 0.3 -1.9 0.85 Q-1.7 1.25 -1.8 1.75 L-7.4 22.85 Q-7.6 23.35 -7.95 23.65 L-8.7 23.75 -9.3 23.15 Q-9.5 22.75 -9.35 22.25 L-3.75 1.15 -3.25 0.45" fill="url(#gradient0)" fill-rule="evenodd" stroke="none"/>
      <path d="M-4.75 14.6 L-5.05 15.65 -5.65 16.5 -7.2 16.65 -6.55 16.5 -7.3 15.95 -7.45 15.0 -7.2 14.2 -4.75 14.6" fill="#9a9ba3" fill-rule="evenodd" stroke="none"/>
      <path d="M-3.75 2.55 L-1.05 1.0 -1.05 1.05 Q0.5 1.55 1.05 3.3 1.6 5.05 0.65 8.55 -0.3 12.0 -1.8 13.35 -3.1 14.65 -4.75 14.6 L-7.2 14.2 -7.0 13.4 -6.3 13.55 -5.2 13.25 Q-3.8 13.1 -3.1 12.1 -2.55 11.3 -2.55 10.35 L-2.55 10.1 -1.75 7.85 -1.75 7.9 Q-1.05 5.3 -1.35 4.0 -1.55 3.3 -2.35 3.3 L-2.75 3.25 -2.9 3.2 -3.65 2.65 -3.75 2.55" fill="url(#gradient1)" fill-rule="evenodd" stroke="none"/>
      <path d="M-3.75 2.55 L-3.8 1.7 -3.3 -0.3 -2.75 -1.05 -1.8 -1.2 Q-1.3 -1.1 -1.0 -0.65 -0.75 -0.2 -0.85 0.3 L-1.05 1.0 -3.75 2.55" fill="url(#gradient2)" fill-rule="evenodd" stroke="none"/>
      <path d="M6.6 11.55 L6.25 11.55" ffdec:has-small-stroke="true" ffdec:original-stroke-width="0.1" fill="none" stroke="#ff0000" stroke-linecap="round" stroke-linejoin="round" stroke-width="1.0"/>
      <path d="M-2.75 -0.05 L-3.3 2.4 Q0.35 2.55 -1.3 8.6 -3.0 14.65 -6.4 13.55 L-7.0 15.95" fill="none" stroke="#5e5f69" stroke-linecap="round" stroke-linejoin="round" stroke-width="1.5"/>
    </g>
    <radialGradient cx="0" cy="0" gradientTransform="matrix(0.0213, 0.0, -0.001, 0.0255, -3.1, 4.25)" gradientUnits="userSpaceOnUse" id="gradient0" r="819.2" spreadMethod="pad">
      <stop offset="0.7333333333333333" stop-color="#070707" stop-opacity="0.5019608"/>
      <stop offset="0.8980392156862745" stop-color="#070707" stop-opacity="0.0"/>
    </radialGradient>
    <radialGradient cx="0" cy="0" gradientTransform="matrix(0.0153, -5.0E-4, 5.0E-4, 0.0153, -1.15, 1.7)" gradientUnits="userSpaceOnUse" id="gradient1" r="819.2" spreadMethod="pad">
      <stop offset="0.08235294117647059" stop-color="#e7e8ec"/>
      <stop offset="0.5058823529411764" stop-color="#9a9ba3"/>
      <stop offset="0.8901960784313725" stop-color="#22242e"/>
    </radialGradient>
    <radialGradient cx="0" cy="0" gradientTransform="matrix(0.0154, -0.009, 0.0016, 0.0027, -1.7, -0.75)" gradientUnits="userSpaceOnUse" id="gradient2" r="819.2" spreadMethod="pad">
      <stop offset="0.08235294117647059" stop-color="#e7e8ec"/>
      <stop offset="0.5058823529411764" stop-color="#9a9ba3"/>
      <stop offset="0.8901960784313725" stop-color="#22242e"/>
    </radialGradient>
  </defs>
</svg>
