<?xml version="1.0" encoding="UTF-8" standalone="no"?>
<svg xmlns:ffdec="https://www.free-decompiler.com/flash" xmlns:xlink="http://www.w3.org/1999/xlink" ffdec:objectType="frame" height="983.95px" width="2047.4px" xmlns="http://www.w3.org/2000/svg">
  <g transform="matrix(1.0, 0.0, 0.0, 1.0, 165.0, -39.95)">
    <use ffdec:characterId="1779" height="983.95" transform="matrix(1.0, 0.0, 0.0, 1.0, -165.0, 39.95)" width="2047.4" xlink:href="#shape0"/>
  </g>
  <defs>
    <g id="shape0" transform="matrix(1.0, 0.0, 0.0, 1.0, 165.0, -39.95)">
      <path d="M1770.8 268.7 L1869.8 268.7 M1386.8 52.55 L1386.8 151.55 M1386.8 244.55 L1386.8 268.7 1485.8 268.7 M1386.8 268.7 L1386.8 367.7 M1386.8 460.7 L1386.8 545.6 1485.8 545.6 M1386.8 545.6 L1386.8 644.6 M1770.8 545.6 L1869.8 545.6 M1578.8 545.6 L1677.8 545.6 M1578.8 268.7 L1677.8 268.7 M1770.8 811.85 L1869.8 811.85 M1386.8 737.6 L1386.8 811.85 1485.8 811.85 M1386.8 997.1 L1386.8 898.1 M1578.8 811.85 L1677.8 811.85 M1092.0 268.7 L1191.0 268.7 M900.0 76.7 L900.0 55.4 M900.0 353.6 L900.0 268.7 900.0 169.7 M789.0 268.7 L888.0 268.7 M900.0 446.6 L900.0 644.6 M789.0 545.6 L888.0 545.6 M1194.8 545.6 L1095.8 545.6 M1002.8 545.6 L903.8 545.6 M900.0 268.7 L999.0 268.7 M405.0 52.55 L405.0 151.55 M405.0 244.55 L405.0 268.7 504.0 268.7 M405.0 268.7 L405.0 367.7 M39.6 268.7 L138.6 268.7 M39.6 545.6 L138.6 545.6 M405.0 460.7 L405.0 545.6 504.0 545.6 M405.0 545.6 L405.0 644.6 M231.6 545.6 L330.6 545.6 M231.6 268.7 L330.6 268.7 M405.0 1003.85 L405.0 1011.3 M516.0 811.85 L417.0 811.85 M39.6 811.85 L138.6 811.85 M231.6 811.85 L330.6 811.85 M1194.8 811.85 L1095.8 811.85 M900.0 737.6 L900.0 811.85 900.0 910.85 M900.0 811.85 L801.0 811.85 M1002.8 811.85 L903.8 811.85 M405.0 737.6 L405.0 910.85 M708.0 811.85 L609.0 811.85 M597.0 545.6 L696.0 545.6 M597.0 268.7 L696.0 268.7 M1386.8 545.6 L1287.8 545.6 M1386.8 811.85 L1287.8 811.85 M1284.0 268.7 L1383.0 268.7 M-152.4 268.7 L-53.4 268.7 M-152.4 545.6 L-53.4 545.6 M-152.4 811.85 L-53.4 811.85" fill="none" stroke="#582e00" stroke-linecap="round" stroke-linejoin="round" stroke-width="25.25"/>
    </g>
  </defs>
</svg>
