<?xml version="1.0" encoding="UTF-8" standalone="no"?>
<svg xmlns:ffdec="https://www.free-decompiler.com/flash" xmlns:xlink="http://www.w3.org/1999/xlink" ffdec:objectType="frame" height="172.75px" width="176.8px" xmlns="http://www.w3.org/2000/svg">
  <g transform="matrix(1.0, 0.0, 0.0, 1.0, -37.2, -27.4)">
    <use ffdec:characterId="2875" height="172.75" transform="matrix(1.0, 0.0, 0.0, 1.0, 37.2, 27.4)" width="176.8" xlink:href="#shape0"/>
  </g>
  <defs>
    <g id="shape0" transform="matrix(1.0, 0.0, 0.0, 1.0, -37.2, -27.4)">
      <path d="M193.75 28.4 L193.75 133.95 193.7 133.95 Q190.65 130.2 187.15 126.7 172.75 112.3 154.95 106.0 172.75 112.3 187.15 126.7 190.65 130.2 193.7 133.95 L193.75 134.0 Q210.05 154.0 212.4 179.75 L178.0 179.75 Q173.0 179.75 173.0 184.75 L172.9 184.75 Q171.7 167.5 159.1 154.9 145.15 140.95 125.5 140.95 105.8 140.95 91.95 154.9 79.6 167.2 78.2 184.0 77.9 179.75 73.2 179.75 L38.6 179.75 Q40.9 153.75 57.45 133.65 L57.5 133.6 Q60.45 130.05 63.75 126.7 78.3 112.15 96.3 105.9 78.3 112.15 63.75 126.7 60.45 130.05 57.5 133.6 L57.5 28.4 96.3 28.4 96.3 105.9 Q109.9 101.15 125.45 101.15 141.2 101.15 154.95 106.0 L154.95 28.4 193.75 28.4" fill="url(#gradient0)" fill-rule="evenodd" stroke="none"/>
      <path d="M173.0 187.05 L173.0 184.75 Q173.0 179.75 178.0 179.75 L212.4 179.75 213.0 179.75 213.0 199.15 178.0 199.15 Q173.0 199.15 173.0 194.15 L173.0 187.05 M38.6 179.75 L73.2 179.75 Q77.9 179.75 78.2 184.0 L78.2 184.75 78.2 194.15 Q78.2 199.15 73.2 199.15 L38.2 199.15 38.2 179.75 38.6 179.75" fill="url(#gradient1)" fill-rule="evenodd" stroke="none"/>
      <path d="M193.7 133.95 L193.75 133.95 193.75 28.4 M154.95 28.4 L154.95 106.0 Q141.2 101.15 125.45 101.15 109.9 101.15 96.3 105.9 L96.3 28.4 M193.7 133.95 L193.75 134.0 193.75 133.95 M173.0 187.05 L173.0 184.75 172.9 184.75 173.0 187.05 173.0 194.15 Q173.0 199.15 178.0 199.15 L213.0 199.15 213.0 179.75 212.4 179.75 178.0 179.75 Q173.0 179.75 173.0 184.75 M212.4 179.75 Q210.05 154.0 193.75 134.0 M57.5 133.6 L57.45 133.65 Q40.9 153.75 38.6 179.75 L73.2 179.75 Q77.9 179.75 78.2 184.0 79.6 167.2 91.95 154.9 105.8 140.95 125.5 140.95 145.15 140.95 159.1 154.9 171.7 167.5 172.9 184.75 M57.5 133.6 L57.5 28.4 M38.6 179.75 L38.2 179.75 38.2 199.15 73.2 199.15 Q78.2 199.15 78.2 194.15 L78.2 184.75 78.2 184.0" fill="none" stroke="#69560e" stroke-linecap="round" stroke-linejoin="round" stroke-width="2.0"/>
      <path d="M154.95 106.0 Q172.75 112.3 187.15 126.7 190.65 130.2 193.7 133.95 M96.3 105.9 Q78.3 112.15 63.75 126.7 60.45 130.05 57.5 133.6" fill="none" stroke="#c7b405" stroke-linecap="round" stroke-linejoin="round" stroke-width="2.0"/>
    </g>
    <linearGradient gradientTransform="matrix(-0.0919, -0.053, 0.0255, -0.0442, 141.2, 79.35)" gradientUnits="userSpaceOnUse" id="gradient0" spreadMethod="reflect" x1="-819.2" x2="819.2">
      <stop offset="0.0392156862745098" stop-color="#f7dd00"/>
      <stop offset="0.17254901960784313" stop-color="#a48717"/>
      <stop offset="0.30196078431372547" stop-color="#f7dd00"/>
      <stop offset="0.40784313725490196" stop-color="#ffff77"/>
      <stop offset="0.6" stop-color="#ffffff"/>
      <stop offset="0.7568627450980392" stop-color="#f7dd00"/>
      <stop offset="1.0" stop-color="#a48717"/>
    </linearGradient>
    <linearGradient gradientTransform="matrix(0.0, -0.0112, 0.0118, 0.0, 58.2, 189.45)" gradientUnits="userSpaceOnUse" id="gradient1" spreadMethod="reflect" x1="-819.2" x2="819.2">
      <stop offset="0.0392156862745098" stop-color="#f7dd00"/>
      <stop offset="0.17254901960784313" stop-color="#a48717"/>
      <stop offset="0.30196078431372547" stop-color="#f7dd00"/>
      <stop offset="0.40784313725490196" stop-color="#ffff77"/>
      <stop offset="0.6" stop-color="#ffffff"/>
      <stop offset="0.7568627450980392" stop-color="#f7dd00"/>
      <stop offset="1.0" stop-color="#a48717"/>
    </linearGradient>
  </defs>
</svg>
