<?xml version="1.0" encoding="UTF-8" standalone="no"?>
<svg xmlns:ffdec="https://www.free-decompiler.com/flash" xmlns:xlink="http://www.w3.org/1999/xlink" ffdec:objectType="frame" height="75.6px" width="70.95px" xmlns="http://www.w3.org/2000/svg">
  <g transform="matrix(1.0, 0.0, 0.0, 1.0, 188.6, -42.15)">
    <use ffdec:characterId="1112" height="75.6" transform="matrix(1.0, 0.0, 0.0, 1.0, -188.6, 42.15)" width="70.95" xlink:href="#shape0"/>
    <filter id="filter0">
      <feConvolveMatrix divisor="4.0" in="SourceGraphic" kernelMatrix="1 1 1 1" order="2 2" result="filterResult0"/>
    </filter>
    <use ffdec:characterId="1114" filter="url(#filter0)" height="315.8" transform="matrix(0.2202, 0.0, 0.0, 0.2202, -187.102, 46.0711)" width="310.85" xlink:href="#sprite0"/>
    <filter id="filter1">
      <feConvolveMatrix divisor="4.0" in="SourceGraphic" kernelMatrix="1 1 1 1" order="2 2" result="filterResult1"/>
    </filter>
    <use ffdec:characterId="1116" filter="url(#filter1)" height="253.25" transform="matrix(0.276, 0.0, 0.0, 0.276, -184.3533, 44.0457)" width="238.65" xlink:href="#sprite1"/>
  </g>
  <defs>
    <g id="shape0" transform="matrix(1.0, 0.0, 0.0, 1.0, 188.6, -42.15)">
      <path d="M-141.85 48.95 L-140.75 48.35 -139.25 48.9 -137.8 48.5 -135.0 48.05 Q-133.75 48.05 -132.75 48.5 -131.95 49.0 -131.85 49.05 L-131.25 49.05 Q-131.5 48.0 -128.55 47.25 L-127.15 46.2 Q-126.45 45.6 -125.0 46.45 L-123.3 48.45 Q-121.85 50.35 -121.85 50.95 -121.85 51.65 -123.2 51.65 -124.65 51.65 -125.75 50.45 -126.8 49.25 -127.4 49.25 L-128.8 49.8 Q-130.05 50.35 -131.05 50.35 L-133.65 49.85 Q-134.9 49.35 -135.35 49.35 L-136.85 49.95 -139.25 50.5 Q-140.5 50.5 -141.8 49.7 L-142.9 49.35 Q-142.45 48.9 -141.85 48.95 M-130.3 49.3 L-129.3 48.9 Q-129.9 48.45 -130.3 49.2 L-130.3 49.3 M-161.6 112.8 L-164.25 112.35 -166.75 112.35 -167.35 112.4 Q-168.65 112.4 -168.65 111.85 -168.65 111.1 -166.75 110.85 L-163.9 110.85 Q-158.35 111.5 -158.35 113.65 -158.35 114.95 -159.45 115.85 L-160.55 116.5 Q-161.5 117.15 -165.95 117.75 L-171.7 117.75 -173.1 117.6 -174.65 117.35 -175.55 117.35 Q-177.75 117.35 -180.05 116.6 -181.6 116.1 -182.25 115.45 L-182.5 115.45 -184.7 115.35 Q-187.2 115.05 -187.2 114.3 L-186.85 113.8 -186.85 113.65 -186.75 113.25 Q-186.75 113.15 -186.6 113.15 -188.0 113.05 -188.0 112.35 -188.0 111.6 -187.35 111.85 L-184.65 112.35 -184.55 112.6 Q-184.55 113.15 -186.1 113.15 L-186.05 113.3 -185.35 113.65 -184.7 113.8 -182.65 113.8 -182.5 113.9 -182.4 113.8 -182.35 113.8 -182.2 113.75 -181.75 113.55 Q-181.35 113.55 -181.1 113.8 L-179.15 113.3 Q-177.1 113.0 -177.1 113.9 -177.1 114.2 -179.25 114.7 -179.3 115.05 -179.65 115.2 L-179.4 115.35 -179.4 115.3 Q-179.4 114.95 -178.9 114.95 L-174.45 115.85 -171.1 115.7 -165.8 116.25 -164.25 116.2 -163.8 115.6 -163.65 115.55 -167.2 115.95 Q-167.75 115.95 -167.9 115.55 -167.1 114.2 -164.15 114.05 L-161.7 113.95 -161.6 112.8" fill="#1c0000" fill-opacity="0.3019608" fill-rule="evenodd" stroke="none"/>
      <path d="M-118.75 46.85 Q-118.75 44.8 -119.95 43.8 -121.9 42.15 -126.1 44.65 -130.4 45.35 -134.05 46.55 L-139.4 48.5 -139.0 48.8 -137.85 49.0 Q-136.85 49.0 -136.3 48.6 -135.75 48.2 -134.4 48.2 L-132.3 48.4 -131.1 48.6 -128.8 47.65 Q-126.95 46.7 -126.0 46.7 -124.25 46.7 -123.05 48.6 -121.8 50.5 -121.3 50.5 -119.85 50.5 -119.15 48.7 L-118.75 46.85 M-117.75 48.0 Q-118.0 49.45 -118.6 50.55 -119.35 51.85 -121.0 51.7 -122.7 51.55 -123.75 49.6 -124.8 47.65 -126.0 47.65 L-128.45 48.65 Q-130.4 49.6 -130.95 49.6 L-133.7 49.15 -135.2 49.15 -136.0 49.65 -137.8 49.95 Q-139.2 49.95 -139.7 49.55 L-142.1 49.3 Q-144.0 49.4 -142.85 48.9 -140.3 47.5 -138.7 47.0 -133.65 45.35 -130.1 44.5 L-120.15 42.15 Q-117.15 43.5 -117.75 48.0 M-187.0 113.25 Q-187.0 114.2 -184.15 114.2 -183.15 114.2 -187.0 113.25 M-182.2 88.95 L-182.2 89.95 -182.2 90.45 -182.4 90.8 Q-182.2 90.8 -181.95 92.5 -181.6 94.95 -182.2 97.0 -182.75 98.65 -182.1 101.1 -181.5 103.9 -181.35 105.8 -181.1 108.4 -182.0 108.75 L-182.0 108.8 -182.2 108.9 -182.2 108.95 -182.4 109.4 -182.85 109.55 -185.2 110.05 -185.05 109.95 -186.1 110.45 -186.3 110.6 -186.5 110.85 -187.2 111.0 -185.05 111.45 -184.3 111.5 -183.9 110.8 -184.05 111.6 -183.8 111.6 -183.15 110.7 Q-182.75 110.45 -183.0 111.45 L-183.15 111.75 Q-181.85 112.15 -181.6 113.0 L-179.05 113.4 -181.6 113.15 -181.6 113.75 -181.6 113.8 Q-181.5 114.05 -179.0 114.55 L-171.75 115.3 -167.75 115.35 Q-163.55 115.35 -162.4 114.2 L-162.35 114.05 -161.95 113.5 Q-161.95 112.8 -162.2 112.5 L-162.25 112.4 -164.0 111.6 -165.55 111.25 -167.85 110.7 -167.9 110.6 -170.35 109.55 -174.25 109.55 -175.15 109.7 -175.45 109.7 -176.3 109.55 -176.6 109.4 -176.85 108.95 Q-177.35 107.5 -178.5 106.25 -180.8 103.9 -180.8 101.6 L-180.45 96.9 Q-180.45 94.3 -181.1 92.1 L-182.1 89.15 -182.2 88.95 M-181.75 85.6 Q-181.2 83.4 -181.6 81.45 -181.7 80.85 -181.95 80.3 L-182.0 85.1 -182.1 86.5 -181.75 85.55 -181.75 85.6 M-161.05 111.6 Q-160.45 112.35 -160.35 113.4 -160.35 113.95 -160.7 114.7 -161.95 116.5 -168.1 117.0 L-179.25 116.1 Q-181.85 115.7 -182.65 114.7 L-185.95 114.8 Q-188.9 114.45 -187.5 112.4 -188.9 111.9 -188.55 111.2 L-187.9 110.05 Q-187.65 109.65 -185.6 108.95 L-183.3 108.15 -182.75 107.65 Q-182.5 107.4 -182.65 105.85 L-183.4 101.1 Q-184.0 98.0 -183.55 96.45 -183.25 94.8 -183.3 93.3 L-183.55 90.95 -183.3 84.65 Q-183.1 79.2 -183.25 76.0 -180.35 79.15 -180.05 80.95 -179.7 82.6 -180.35 85.35 -181.1 88.05 -180.8 88.9 L-179.25 93.8 Q-178.8 95.3 -178.8 96.9 L-178.8 97.0 -179.3 101.2 Q-179.55 103.3 -177.35 105.6 -175.6 107.4 -175.55 108.25 L-169.95 108.25 Q-168.65 108.75 -168.0 109.15 -167.35 109.65 -164.45 110.3 -161.6 110.85 -161.05 111.6" fill="#296c01" fill-rule="evenodd" stroke="none"/>
      <path d="M-176.05 108.75 L-175.3 108.9 -174.4 108.75 -170.3 108.75 -167.6 109.85 -165.35 110.45 -163.8 110.8 Q-162.25 111.35 -161.7 111.85 -161.1 112.4 -161.1 113.5 -161.1 114.15 -161.85 114.7 -163.1 116.2 -167.75 116.2 L-171.85 116.1 -179.15 115.35 Q-182.6 114.7 -182.4 113.65 -182.35 112.5 -185.15 112.25 -188.0 112.0 -188.0 111.0 -188.0 110.45 -186.85 110.05 L-186.5 109.7 -185.35 109.2 -183.25 108.8 -183.25 108.9 Q-181.2 109.15 -180.7 110.05 -180.3 110.7 -177.25 110.85 L-173.4 110.45 Q-172.5 109.8 -174.15 109.3 L-176.05 108.75" fill="url(#gradient0)" fill-rule="evenodd" stroke="none"/>
      <path d="M-183.25 108.8 L-183.0 108.75 -182.75 108.3 -182.4 108.0 Q-182.0 107.75 -182.2 105.85 L-182.9 101.25 Q-183.55 98.55 -183.0 96.75 -182.4 94.85 -182.75 92.6 L-183.0 90.2 -182.85 85.05 Q-182.65 80.1 -182.85 77.5 -181.2 79.15 -180.8 81.25 -180.35 83.4 -181.05 85.8 -181.75 88.05 -181.35 88.75 L-180.35 91.85 Q-179.65 94.2 -179.65 96.9 L-179.95 101.6 Q-179.95 103.55 -177.9 105.7 -176.6 107.1 -176.1 108.75 L-176.05 108.75 -174.15 109.3 Q-172.5 109.8 -173.4 110.45 L-177.25 110.85 Q-180.3 110.7 -180.7 110.05 -181.2 109.15 -183.25 108.9 L-183.25 108.8" fill="url(#gradient1)" fill-rule="evenodd" stroke="none"/>
      <path d="M-187.2 113.0 L-184.65 113.0 Q-183.1 113.05 -183.1 113.65 -183.1 114.3 -183.65 114.3 -187.4 114.3 -187.4 113.4 L-187.2 113.0" fill="url(#gradient2)" fill-rule="evenodd" stroke="none"/>
      <path d="M-118.3 47.45 L-118.3 47.6 Q-118.3 49.1 -118.95 49.9 -119.7 51.1 -121.1 51.1 -122.65 51.1 -123.25 49.2 L-123.5 48.6 Q-124.3 47.45 -125.3 47.3 L-125.65 47.25 -125.75 47.25 Q-126.5 47.3 -128.3 48.2 -130.25 49.15 -131.1 49.15 L-132.5 49.0 -133.35 48.9 -134.45 48.7 Q-135.1 48.7 -135.9 49.2 L-137.2 49.65 -139.1 49.25 -139.65 48.9 -142.4 48.95 -136.25 47.05 -133.3 46.0 Q-131.7 45.35 -130.3 45.05 L-126.3 44.25 -124.7 43.75 -123.25 43.35 -120.7 42.75 Q-119.2 42.75 -118.55 44.7 -118.2 45.65 -118.2 46.7 L-118.3 47.45" fill="url(#gradient3)" fill-rule="evenodd" stroke="none"/>
    </g>
    <radialGradient cx="0" cy="0" gradientTransform="matrix(0.0198, 0.0019, -7.0E-4, 0.0078, -173.9, 109.45)" gradientUnits="userSpaceOnUse" id="gradient0" r="819.2" spreadMethod="pad">
      <stop offset="0.1411764705882353" stop-color="#b0ec34"/>
      <stop offset="0.4470588235294118" stop-color="#92d03d"/>
      <stop offset="0.8901960784313725" stop-color="#68b400"/>
      <stop offset="1.0" stop-color="#569500"/>
    </radialGradient>
    <linearGradient gradientTransform="matrix(0.0024, -2.0E-4, 0.1696, 1.629, -196.85, -69.85)" gradientUnits="userSpaceOnUse" id="gradient1" spreadMethod="pad" x1="-819.2" x2="819.2">
      <stop offset="0.0" stop-color="#92d03d"/>
      <stop offset="1.0" stop-color="#66b100"/>
    </linearGradient>
    <radialGradient cx="0" cy="0" gradientTransform="matrix(0.0032, 0.0, 0.0, 0.0013, -184.9, 113.15)" gradientUnits="userSpaceOnUse" id="gradient2" r="819.2" spreadMethod="pad">
      <stop offset="0.1411764705882353" stop-color="#b0ec34"/>
      <stop offset="0.4470588235294118" stop-color="#92d03d"/>
      <stop offset="0.8901960784313725" stop-color="#68b400"/>
      <stop offset="1.0" stop-color="#569500"/>
    </radialGradient>
    <linearGradient gradientTransform="matrix(2.0E-4, 0.0018, -0.7977, 0.0883, -161.55, 51.8)" gradientUnits="userSpaceOnUse" id="gradient3" spreadMethod="pad" x1="-819.2" x2="819.2">
      <stop offset="0.0" stop-color="#92d03d"/>
      <stop offset="1.0" stop-color="#66b100"/>
    </linearGradient>
    <g id="sprite0" transform="matrix(1.0, 0.0, 0.0, 1.0, 791.0, 138.85)">
      <use ffdec:characterId="1113" height="315.8" transform="matrix(1.0, 0.0, 0.0, 1.0, -791.0, -138.85)" width="310.85" xlink:href="#shape1"/>
    </g>
    <g id="shape1" transform="matrix(1.0, 0.0, 0.0, 1.0, 791.0, 138.85)">
      <path d="M-480.25 -127.75 Q-484.1 -116.8 -488.55 -116.8 -493.85 -116.8 -497.15 -119.55 -499.4 -121.4 -501.6 -125.6 -504.1 -130.4 -505.25 -131.7 -507.65 -134.45 -511.45 -134.45 -517.4 -134.45 -526.5 -129.9 -535.6 -125.4 -540.85 -125.4 -543.8 -125.4 -546.75 -126.75 L-549.6 -128.45 Q-554.95 -128.55 -559.75 -126.25 -564.6 -123.9 -569.0 -123.9 L-574.55 -124.9 -581.15 -125.9 Q-583.3 -125.9 -583.7 -127.4 L-574.0 -129.6 Q-571.85 -129.2 -570.6 -128.15 -568.9 -126.7 -565.95 -126.7 -564.65 -126.7 -559.65 -128.8 -554.7 -130.95 -548.7 -130.95 L-544.75 -130.3 -538.25 -129.7 Q-535.25 -129.7 -530.85 -131.15 -526.0 -132.95 -523.85 -135.25 -521.7 -137.55 -513.5 -138.6 -505.3 -139.7 -503.9 -136.15 -502.6 -135.55 -496.2 -128.35 -490.55 -122.05 -486.7 -122.05 -485.75 -122.05 -483.2 -124.9 L-480.25 -127.75 -480.15 -127.75 Q-480.25 -121.4 -480.25 -127.75 M-767.35 30.95 Q-767.35 39.3 -768.65 47.35 L-770.0 55.15 Q-770.0 59.4 -767.75 66.5 -765.55 73.55 -765.55 80.05 -765.55 84.05 -766.95 89.85 -768.4 95.65 -768.4 99.9 -768.4 109.6 -765.5 120.65 -762.65 131.75 -762.65 139.0 -762.65 140.15 -763.5 142.3 -764.4 144.45 -764.4 145.25 -764.4 146.6 -759.05 149.8 L-755.95 151.75 -744.35 153.1 -737.15 153.1 Q-732.0 153.2 -729.25 150.8 -728.75 150.4 -732.3 148.65 -723.85 149.75 -724.15 150.8 -724.5 151.85 -726.2 152.95 L-730.6 155.1 Q-733.2 156.05 -736.75 156.4 L-744.75 156.4 -754.3 155.05 -754.55 155.05 Q-759.25 155.05 -762.7 153.0 -765.55 152.2 -768.1 151.75 L-768.75 151.65 -768.8 151.3 -768.55 151.2 -768.85 151.05 -770.2 150.3 Q-773.25 150.3 -777.95 151.7 -783.8 153.4 -786.15 155.9 -776.9 156.6 -770.8 158.9 -765.3 161.0 -763.95 163.65 -762.9 165.7 -757.25 168.2 -754.1 169.6 -750.1 170.9 L-722.2 173.15 -706.1 173.5 -705.55 173.75 -697.0 173.75 Q-687.65 173.05 -682.3 169.25 -678.1 166.3 -678.1 163.3 L-678.55 160.8 -678.55 160.55 Q-677.2 160.8 -676.45 162.75 -675.9 164.2 -675.9 165.3 -675.9 168.6 -679.85 171.6 -684.65 175.4 -693.75 176.7 L-696.6 176.95 -705.55 176.95 -706.25 176.85 -716.0 176.7 -716.55 176.6 -723.15 176.35 -758.6 172.35 Q-762.3 171.6 -764.75 169.7 -766.85 168.2 -767.3 166.5 -768.0 164.2 -769.8 162.7 -771.0 162.2 -772.65 161.95 L-780.6 161.3 Q-791.0 160.7 -791.0 156.25 -791.0 153.6 -787.85 151.3 -783.6 148.2 -774.9 147.25 L-770.5 145.35 -768.75 144.95 Q-768.65 142.75 -767.6 140.1 -766.5 137.3 -766.5 132.85 L-769.6 119.55 Q-772.7 106.35 -772.7 99.95 -772.7 93.8 -771.25 88.6 -769.85 83.4 -769.85 80.05 -769.85 76.1 -771.2 67.95 -772.55 59.8 -772.55 58.5 L-772.2 46.15 Q-769.9 30.0 -770.35 7.15 -768.6 11.65 -767.9 17.9 -767.35 22.7 -767.35 30.95 M-771.9 34.45 L-772.0 38.05 -772.0 36.6 -771.9 34.45 M-780.85 167.6 Q-773.8 168.45 -773.0 169.1 L-773.5 169.5 -774.9 169.7 Q-784.0 169.7 -785.05 169.5 L-786.6 168.55 Q-789.4 167.35 -789.4 166.7 -789.4 166.15 -788.75 165.55 -787.65 166.7 -780.85 167.6" fill="#1a5b00" fill-opacity="0.8" fill-rule="evenodd" stroke="none"/>
    </g>
    <g id="sprite1" transform="matrix(1.0, 0.0, 0.0, 1.0, 653.85, 160.35)">
      <use ffdec:characterId="1115" height="253.25" transform="matrix(1.0, 0.0, 0.0, 1.0, -653.85, -160.35)" width="238.65" xlink:href="#shape2"/>
    </g>
    <g id="shape2" transform="matrix(1.0, 0.0, 0.0, 1.0, 653.85, 160.35)">
      <path d="M-617.2 -117.85 Q-617.2 -118.4 -616.05 -118.6 -614.9 -118.75 -614.9 -117.95 -614.9 -117.25 -616.05 -117.3 -617.4 -117.3 -617.2 -117.85 M-642.0 -25.05 Q-640.9 -24.35 -640.6 -22.05 L-640.5 -18.35 Q-640.5 -15.05 -641.0 -11.9 L-641.45 -11.7 Q-641.9 -12.45 -641.85 -13.15 L-641.75 -14.55 -642.3 -24.5 -642.2 -25.0 -642.0 -25.05 M-430.9 -160.3 Q-426.95 -160.15 -423.65 -158.6 L-418.4 -156.25 Q-415.2 -154.8 -415.2 -153.15 -415.2 -150.6 -415.7 -148.8 -416.8 -144.95 -419.85 -144.95 -423.6 -144.95 -425.35 -146.95 L-429.35 -151.65 -432.25 -154.85 -434.9 -157.65 Q-439.9 -157.65 -448.45 -153.55 -457.0 -149.45 -462.1 -149.45 L-464.25 -149.9 -474.05 -150.2 -474.1 -150.25 -474.2 -150.75 Q-474.2 -151.5 -474.05 -151.05 -460.4 -151.5 -452.85 -154.75 -445.1 -158.5 -440.0 -159.5 L-430.9 -160.3 M-641.85 6.75 Q-639.2 11.7 -638.05 15.85 -636.9 20.0 -636.9 24.75 -636.9 27.6 -638.1 33.8 -639.3 40.0 -639.3 44.7 L-638.65 52.45 -637.8 58.85 Q-637.55 60.15 -634.35 62.5 -630.95 65.05 -630.45 66.0 L-628.4 69.55 Q-626.7 72.55 -626.7 72.9 -626.7 74.55 -628.75 74.55 -629.5 74.55 -632.75 70.25 -636.1 65.75 -637.35 62.75 -639.8 56.8 -639.9 55.85 -639.65 54.2 -639.65 51.05 -639.65 50.35 -641.05 47.15 -642.5 43.95 -642.5 40.2 -642.5 37.85 -641.4 32.1 -640.35 26.4 -640.35 21.9 -640.35 18.4 -640.85 14.5 L-642.15 6.75 -641.85 6.75 M-630.5 83.05 L-628.8 83.4 Q-626.6 83.4 -625.55 82.85 -624.55 82.25 -623.3 82.25 L-620.45 82.5 -619.2 82.7 Q-617.25 82.7 -615.9 81.5 -614.85 80.6 -614.85 80.1 -614.85 78.75 -616.85 77.35 L-618.9 76.0 Q-618.9 74.55 -615.55 75.8 L-610.25 78.0 Q-606.8 78.7 -605.8 79.65 -605.25 80.25 -605.25 81.6 -605.25 82.95 -607.2 84.35 -609.65 86.1 -613.55 86.4 L-621.6 86.4 -627.05 85.6 -635.0 85.25 Q-639.05 85.25 -641.5 84.25 L-643.35 83.1 -644.45 81.6 -647.25 78.8 Q-646.45 79.2 -645.9 79.55 L-643.3 81.45 Q-640.5 83.25 -638.45 83.25 L-638.05 82.95 Q-638.0 82.65 -637.65 82.65 L-637.1 82.8 -636.6 82.95 -632.95 82.65 -630.5 83.05 M-622.5 75.9 L-623.85 75.6 -623.85 74.85 Q-623.85 74.05 -622.85 74.0 -621.9 73.95 -621.9 74.9 L-621.95 75.6 -622.0 75.75 -622.5 75.9 M-625.9 90.3 L-617.45 89.9 -609.45 90.0 -600.7 89.65 -595.95 89.3 -592.5 87.15 Q-587.85 84.45 -587.85 83.9 -587.85 83.55 -588.2 83.1 L-588.6 82.45 Q-590.15 81.6 -592.85 80.25 L-592.85 79.65 Q-585.75 81.25 -583.25 82.0 -579.15 83.3 -579.15 86.1 -579.15 87.85 -579.4 88.35 -579.95 89.4 -582.35 90.6 L-585.35 91.25 -588.05 91.7 -591.0 92.45 -596.2 92.9 -613.9 92.35 Q-625.0 91.75 -627.2 90.9 -626.35 90.45 -625.9 90.3 M-650.55 91.45 L-650.7 91.65 -651.55 91.8 Q-652.75 91.8 -653.4 91.1 L-653.85 90.25 Q-653.85 89.2 -652.2 89.5 -650.55 89.75 -650.55 91.0 L-650.55 91.45" fill="#d0ff83" fill-opacity="0.8" fill-rule="evenodd" stroke="none"/>
    </g>
  </defs>
</svg>
