<?xml version="1.0" encoding="UTF-8" standalone="no"?>
<svg xmlns:ffdec="https://www.free-decompiler.com/flash" xmlns:xlink="http://www.w3.org/1999/xlink" ffdec:objectType="frame" height="51.2px" width="93.9px" xmlns="http://www.w3.org/2000/svg">
  <g transform="matrix(1.0, 0.0, 0.0, 1.0, 110.9, 8.15)">
    <use ffdec:characterId="489" height="44.3" transform="matrix(0.539, 0.0, 0.0, 0.9758, -33.45, -2.1)" width="30.5" xlink:href="#sprite0"/>
    <use ffdec:characterId="491" height="42.8" transform="matrix(0.539, 0.0, 0.0, 0.9758, -47.7, -8.15)" width="29.75" xlink:href="#sprite1"/>
    <use ffdec:characterId="493" height="45.8" transform="matrix(0.539, 0.0, 0.0, 0.9758, -66.85, -2.1)" width="38.65" xlink:href="#sprite2"/>
    <use ffdec:characterId="495" height="44.7" transform="matrix(0.539, 0.0, 0.0, 0.9758, -85.5695, -8.15)" width="37.5" xlink:href="#sprite3"/>
    <use ffdec:characterId="497" height="43.95" transform="matrix(0.539, 0.0, 0.0, 0.9758, -93.8195, 0.15)" width="17.75" xlink:href="#sprite4"/>
    <use ffdec:characterId="499" height="45.1" transform="matrix(0.539, 0.0, 0.0, 0.9758, -110.9214, -7.7)" width="34.2" xlink:href="#sprite5"/>
  </g>
  <defs>
    <g id="sprite0" transform="matrix(1.0, 0.0, 0.0, 1.0, 0.0, 0.0)">
      <use ffdec:characterId="488" height="44.3" transform="matrix(1.0, 0.0, 0.0, 1.0, 0.0, 0.0)" width="30.5" xlink:href="#shape0"/>
    </g>
    <g id="shape0" transform="matrix(1.0, 0.0, 0.0, 1.0, 0.0, 0.0)">
      <path d="M27.65 24.8 L24.6 28.95 17.7 28.85 17.8 25.1 27.65 24.8 M30.0 39.2 L26.25 44.3 Q13.35 43.2 0.85 43.7 L4.6 38.6 Q15.25 38.15 26.15 38.9 L30.0 39.2 M29.45 11.05 L26.55 15.0 17.85 15.05 17.7 11.05 29.45 11.05" fill="#790000" fill-rule="evenodd" stroke="none"/>
      <path d="M26.55 15.0 L27.65 15.0 Q27.15 19.9 27.65 24.8 L17.8 25.1 17.7 28.85 24.6 28.95 29.8 29.0 30.0 39.2 26.15 38.9 Q15.25 38.15 4.6 38.6 L4.55 26.65 4.5 24.2 4.0 6.3 3.75 1.25 29.65 0.0 29.45 11.05 17.7 11.05 17.85 15.05 26.55 15.0" fill="url(#gradient0)" fill-rule="evenodd" stroke="none"/>
      <path d="M0.85 43.7 L0.75 29.3 0.7 26.7 0.0 6.35 3.75 1.25 4.0 6.3 4.5 24.2 4.55 26.65 4.6 38.6 0.85 43.7" fill="#ab0404" fill-rule="evenodd" stroke="none"/>
      <path d="M3.75 1.25 L4.0 6.3 4.5 24.2 4.55 26.65 4.6 38.6 Q15.25 38.15 26.15 38.9 L30.0 39.2 M0.85 43.7 L4.6 38.6" ffdec:has-small-stroke="true" ffdec:original-stroke-width="1.0" fill="none" stroke="url(#gradient1)" stroke-linecap="round" stroke-linejoin="round" stroke-width="1.268546319679852"/>
    </g>
    <linearGradient gradientTransform="matrix(0.0, 0.0231, -0.024, 0.0, -19.95, 20.0)" gradientUnits="userSpaceOnUse" id="gradient0" spreadMethod="pad" x1="-819.2" x2="819.2">
      <stop offset="0.0" stop-color="#ff452e"/>
      <stop offset="1.0" stop-color="#e00a0a"/>
    </linearGradient>
    <radialGradient cx="0" cy="0" gradientTransform="matrix(0.0226, 0.0, 0.0, 0.0095, 10.0, 35.5)" gradientUnits="userSpaceOnUse" id="gradient1" r="819.2" spreadMethod="pad">
      <stop offset="0.12941176470588237" stop-color="#ffe48e" stop-opacity="0.4"/>
      <stop offset="1.0" stop-color="#ffe983" stop-opacity="0.0"/>
    </radialGradient>
    <g id="sprite1" transform="matrix(1.0, 0.0, 0.0, 1.0, 0.0, 0.0)">
      <use ffdec:characterId="490" height="42.8" transform="matrix(1.0, 0.0, 0.0, 1.0, 0.0, 0.0)" width="29.75" xlink:href="#shape1"/>
    </g>
    <g id="shape1" transform="matrix(1.0, 0.0, 0.0, 1.0, 0.0, 0.0)">
      <path d="M3.75 0.65 L4.0 5.85 4.4 20.95 4.5 37.2 0.75 42.3 0.55 21.05 0.0 5.75 3.75 0.65" fill="#ab0404" fill-rule="evenodd" stroke="none"/>
      <path d="M4.5 37.2 L4.4 20.95 4.0 5.85 3.75 0.65 17.3 0.0 Q17.05 10.6 17.55 20.7 L17.9 26.6 29.75 26.2 Q28.9 31.9 29.05 37.55 L4.5 37.2" fill="url(#gradient2)" fill-rule="evenodd" stroke="none"/>
      <path d="M4.5 37.2 L29.05 37.55 25.3 42.65 0.75 42.3 4.5 37.2" fill="#790000" fill-rule="evenodd" stroke="none"/>
      <path d="M3.75 0.65 L4.0 5.85 4.4 20.95 4.5 37.2 29.05 37.55 M0.75 42.3 L4.5 37.2" ffdec:has-small-stroke="true" ffdec:original-stroke-width="1.0" fill="none" stroke="url(#gradient3)" stroke-linecap="round" stroke-linejoin="round" stroke-width="1.268546319679852"/>
    </g>
    <linearGradient gradientTransform="matrix(0.0, 0.0231, -0.024, 0.0, -267.75, 18.95)" gradientUnits="userSpaceOnUse" id="gradient2" spreadMethod="pad" x1="-819.2" x2="819.2">
      <stop offset="0.0" stop-color="#ff452e"/>
      <stop offset="1.0" stop-color="#e00a0a"/>
    </linearGradient>
    <radialGradient cx="0" cy="0" gradientTransform="matrix(0.0226, 0.0, 0.0, 0.0089, 9.75, 34.75)" gradientUnits="userSpaceOnUse" id="gradient3" r="819.2" spreadMethod="pad">
      <stop offset="0.12941176470588237" stop-color="#ffe48e" stop-opacity="0.4"/>
      <stop offset="1.0" stop-color="#ffe983" stop-opacity="0.0"/>
    </radialGradient>
    <g id="sprite2" transform="matrix(1.0, 0.0, 0.0, 1.0, 0.0, 0.0)">
      <use ffdec:characterId="492" height="45.8" transform="matrix(1.0, 0.0, 0.0, 1.0, 0.0, 0.0)" width="38.65" xlink:href="#shape2"/>
    </g>
    <g id="shape2" transform="matrix(1.0, 0.0, 0.0, 1.0, 0.0, 0.0)">
      <path d="M6.6 7.3 L6.65 7.15 Q8.75 3.7 12.4 1.9 15.9 0.2 20.8 0.0 24.75 0.15 27.8 1.05 32.8 2.55 35.45 6.2 L36.05 7.1 37.0 8.95 Q37.95 11.25 38.25 14.1 L24.15 15.3 24.1 15.3 24.1 15.25 Q23.95 10.25 21.2 10.0 18.25 10.0 17.55 15.3 17.15 17.75 17.3 21.35 L17.45 23.65 17.65 25.5 Q18.15 29.05 19.5 30.45 20.35 31.3 21.5 31.3 L21.8 31.3 23.1 31.15 23.55 31.0 Q24.1 30.75 24.5 30.3 25.1 29.55 25.2 28.15 L21.25 27.9 19.75 20.3 20.4 20.25 20.65 20.25 34.55 19.4 38.65 19.15 38.65 19.5 38.45 24.5 Q37.7 31.1 34.7 35.0 L33.05 36.75 Q28.55 40.7 20.55 40.5 15.8 40.4 12.4 38.8 10.8 38.0 9.5 36.9 L7.85 35.2 6.9 33.9 Q3.95 29.35 3.75 21.7 3.45 14.2 5.55 9.35 6.0 8.25 6.6 7.3" fill="url(#gradient4)" fill-rule="evenodd" stroke="none"/>
      <path d="M34.55 19.4 L20.65 20.25 24.1 15.25 24.1 15.3 24.15 15.3 38.25 14.1 34.55 19.4 M21.25 27.9 L25.2 28.15 23.1 31.15 21.8 31.3 21.5 31.3 Q20.35 31.3 19.5 30.45 L21.25 27.9" fill="#790000" fill-rule="evenodd" stroke="none"/>
      <path d="M6.6 7.3 Q6.0 8.25 5.55 9.35 3.45 14.2 3.75 21.7 3.95 29.35 6.9 33.9 L7.85 35.2 9.5 36.9 Q10.8 38.0 12.4 38.8 15.8 40.4 20.55 40.5 28.55 40.7 33.05 36.75 L34.7 35.0 31.6 39.45 Q27.15 46.1 16.85 45.8 L12.4 45.3 Q8.5 44.45 5.8 42.2 L4.15 40.5 3.2 39.2 1.8 36.5 Q0.2 32.55 0.05 27.0 -0.25 19.6 1.8 14.7 2.55 12.85 3.7 11.4 L6.6 7.3" fill="url(#gradient5)" fill-rule="evenodd" stroke="none"/>
      <path d="M19.75 20.3 L21.25 27.9 19.5 30.45 Q18.15 29.05 17.65 25.5 L17.45 23.65 19.75 20.3 M25.2 28.15 Q25.1 29.55 24.5 30.3 24.1 30.75 23.55 31.0 L23.1 31.15 25.2 28.15" fill="#9a0000" fill-rule="evenodd" stroke="none"/>
      <path d="M20.65 20.25 L20.4 20.25 Q20.15 15.55 17.55 15.3 18.25 10.0 21.2 10.0 23.95 10.25 24.1 15.25 L20.65 20.25" fill="url(#gradient6)" fill-rule="evenodd" stroke="none"/>
      <path d="M6.6 7.3 Q6.0 8.25 5.55 9.35 3.45 14.2 3.75 21.7 3.95 29.35 6.9 33.9 L7.85 35.2 9.5 36.9 Q10.8 38.0 12.4 38.8 15.8 40.4 20.55 40.5 28.55 40.7 33.05 36.75 L34.7 35.0" ffdec:has-small-stroke="true" ffdec:original-stroke-width="1.0" fill="none" stroke="url(#gradient7)" stroke-linecap="round" stroke-linejoin="round" stroke-width="1.268546319679852"/>
    </g>
    <linearGradient gradientTransform="matrix(0.0, 0.0242, -0.0249, 0.0, 260.15, 20.3)" gradientUnits="userSpaceOnUse" id="gradient4" spreadMethod="pad" x1="-819.2" x2="819.2">
      <stop offset="0.0" stop-color="#ff452e"/>
      <stop offset="1.0" stop-color="#e00a0a"/>
    </linearGradient>
    <linearGradient gradientTransform="matrix(0.0188, 0.0131, -0.0144, 0.0207, 19.65, 30.25)" gradientUnits="userSpaceOnUse" id="gradient5" spreadMethod="pad" x1="-819.2" x2="819.2">
      <stop offset="0.1803921568627451" stop-color="#aa0000"/>
      <stop offset="0.5019607843137255" stop-color="#790000"/>
      <stop offset="0.803921568627451" stop-color="#790000"/>
      <stop offset="0.9882352941176471" stop-color="#930000"/>
    </linearGradient>
    <linearGradient gradientTransform="matrix(-0.0033, -0.0033, 0.0036, -0.0036, 18.1, 15.15)" gradientUnits="userSpaceOnUse" id="gradient6" spreadMethod="pad" x1="-819.2" x2="819.2">
      <stop offset="0.1803921568627451" stop-color="#aa0000"/>
      <stop offset="0.5019607843137255" stop-color="#790000"/>
      <stop offset="0.803921568627451" stop-color="#790000"/>
      <stop offset="0.9882352941176471" stop-color="#930000"/>
    </linearGradient>
    <radialGradient cx="0" cy="0" gradientTransform="matrix(0.0256, 0.0, 0.0, 0.0103, 17.75, 37.5)" gradientUnits="userSpaceOnUse" id="gradient7" r="819.2" spreadMethod="pad">
      <stop offset="0.12941176470588237" stop-color="#ffe48e" stop-opacity="0.4"/>
      <stop offset="1.0" stop-color="#ffe983" stop-opacity="0.0"/>
    </radialGradient>
    <g id="sprite3" transform="matrix(1.0, 0.0, 0.0, 1.0, 0.5, 0.0)">
      <use ffdec:characterId="494" height="44.7" transform="matrix(1.0, 0.0, 0.0, 1.0, -0.5, 0.0)" width="37.5" xlink:href="#shape3"/>
    </g>
    <g id="shape3" transform="matrix(1.0, 0.0, 0.0, 1.0, 0.5, 0.0)">
      <path d="M23.9 0.0 L37.0 0.35 36.45 16.4 Q36.15 27.5 36.2 37.95 L24.5 39.1 Q20.85 31.35 16.25 25.05 L16.25 35.8 16.25 37.75 3.75 37.0 4.05 16.1 3.9 7.2 3.75 2.35 15.95 1.6 Q17.85 6.2 20.0 10.3 L23.4 16.15 23.9 0.0" fill="url(#gradient8)" fill-rule="evenodd" stroke="none"/>
      <path d="M23.9 0.0 L23.4 16.15 20.0 10.3 20.15 5.1 23.9 0.0 M3.75 2.35 L3.9 7.2 4.05 16.1 3.75 37.0 0.0 42.1 Q0.4 28.45 0.2 16.05 L0.0 7.45 3.75 2.35" fill="#ab0404" fill-rule="evenodd" stroke="none"/>
      <path d="M16.25 35.8 L16.25 25.05 Q20.85 31.35 24.5 39.1 L20.75 44.2 Q18.65 39.75 16.25 35.8" fill="#9a0000" fill-rule="evenodd" stroke="none"/>
      <path d="M3.75 37.0 L16.25 37.75 12.5 42.85 0.0 42.1 3.75 37.0 M24.5 39.1 L36.2 37.95 32.45 43.05 20.75 44.2 24.5 39.1" fill="#790000" fill-rule="evenodd" stroke="none"/>
      <path d="M16.25 25.05 Q20.85 31.35 24.5 39.1 L36.2 37.95 M20.75 44.2 L24.5 39.1" ffdec:has-small-stroke="true" ffdec:original-stroke-width="1.0" fill="none" stroke="url(#gradient9)" stroke-linecap="round" stroke-linejoin="round" stroke-width="1.268546319679852"/>
      <path d="M3.75 2.35 L3.9 7.2 4.05 16.1 3.75 37.0 16.25 37.75 M0.0 42.1 L3.75 37.0" ffdec:has-small-stroke="true" ffdec:original-stroke-width="1.0" fill="none" stroke="url(#gradient10)" stroke-linecap="round" stroke-linejoin="round" stroke-width="1.268546319679852"/>
    </g>
    <linearGradient gradientTransform="matrix(0.0, 0.022, -0.0238, 0.0, 469.9, 19.65)" gradientUnits="userSpaceOnUse" id="gradient8" spreadMethod="pad" x1="-819.2" x2="819.2">
      <stop offset="0.0" stop-color="#ff452e"/>
      <stop offset="1.0" stop-color="#e00a0a"/>
    </linearGradient>
    <radialGradient cx="0" cy="0" gradientTransform="matrix(0.0156, 0.0, 0.0, 0.0099, 26.0, 36.0)" gradientUnits="userSpaceOnUse" id="gradient9" r="819.2" spreadMethod="pad">
      <stop offset="0.12941176470588237" stop-color="#ffe48e" stop-opacity="0.4"/>
      <stop offset="1.0" stop-color="#ffe983" stop-opacity="0.0"/>
    </radialGradient>
    <radialGradient cx="0" cy="0" gradientTransform="matrix(0.0171, 0.0, 0.0, 0.0093, 7.25, 34.25)" gradientUnits="userSpaceOnUse" id="gradient10" r="819.2" spreadMethod="pad">
      <stop offset="0.12941176470588237" stop-color="#ffe48e" stop-opacity="0.4"/>
      <stop offset="1.0" stop-color="#ffe983" stop-opacity="0.0"/>
    </radialGradient>
    <g id="sprite4" transform="matrix(1.0, 0.0, 0.0, 1.0, 0.5, 0.0)">
      <use ffdec:characterId="496" height="43.95" transform="matrix(1.0, 0.0, 0.0, 1.0, -0.5, 0.0)" width="17.75" xlink:href="#shape4"/>
    </g>
    <g id="shape4" transform="matrix(1.0, 0.0, 0.0, 1.0, 0.5, 0.0)">
      <path d="M3.75 38.35 L4.0 23.4 3.9 5.55 3.75 0.65 16.4 0.0 Q16.2 11.25 16.4 23.15 L16.75 38.45 3.75 38.35" fill="url(#gradient11)" fill-rule="evenodd" stroke="none"/>
      <path d="M3.75 0.65 L3.9 5.55 4.0 23.4 3.75 38.35 0.0 43.45 0.25 23.45 0.0 5.75 3.75 0.65" fill="#ab0404" fill-rule="evenodd" stroke="none"/>
      <path d="M3.75 38.35 L16.75 38.45 13.0 43.55 0.0 43.45 3.75 38.35" fill="#790000" fill-rule="evenodd" stroke="none"/>
      <path d="M3.75 0.65 L3.9 5.55 4.0 23.4 3.75 38.35 16.75 38.45 M0.0 43.45 L3.75 38.35" ffdec:has-small-stroke="true" ffdec:original-stroke-width="1.0" fill="none" stroke="url(#gradient12)" stroke-linecap="round" stroke-linejoin="round" stroke-width="1.268546319679852"/>
    </g>
    <linearGradient gradientTransform="matrix(0.0, 0.0231, -0.024, 0.0, -169.45, 19.55)" gradientUnits="userSpaceOnUse" id="gradient11" spreadMethod="pad" x1="-819.2" x2="819.2">
      <stop offset="0.0" stop-color="#ff452e"/>
      <stop offset="1.0" stop-color="#e00a0a"/>
    </linearGradient>
    <radialGradient cx="0" cy="0" gradientTransform="matrix(0.0134, 0.0, 0.0, 0.0091, 7.5, 35.25)" gradientUnits="userSpaceOnUse" id="gradient12" r="819.2" spreadMethod="pad">
      <stop offset="0.12941176470588237" stop-color="#ffe48e" stop-opacity="0.4"/>
      <stop offset="1.0" stop-color="#ffe983" stop-opacity="0.0"/>
    </radialGradient>
    <g id="sprite5" transform="matrix(1.0, 0.0, 0.0, 1.0, 3.75, 0.0)">
      <use ffdec:characterId="498" height="45.1" transform="matrix(1.0, 0.0, 0.0, 1.0, -3.75, 0.0)" width="34.2" xlink:href="#shape5"/>
    </g>
    <g id="shape5" transform="matrix(1.0, 0.0, 0.0, 1.0, 3.75, 0.0)">
      <path d="M0.75 17.85 L12.75 20.6 Q12.1 27.2 13.5 28.8 14.0 29.4 14.75 29.3 19.05 29.05 16.15 5.55 L15.4 0.0 29.0 1.25 Q32.65 24.2 27.2 33.55 L25.6 35.8 24.25 37.15 Q20.8 39.95 15.5 40.0 -0.7 40.15 0.05 23.65 0.2 20.95 0.75 17.85" fill="url(#gradient13)" fill-rule="evenodd" stroke="none"/>
      <path d="M0.75 17.85 Q0.2 20.95 0.05 23.65 -0.7 40.15 15.5 40.0 20.8 39.95 24.25 37.15 L25.6 35.8 22.85 39.65 22.45 40.25 Q18.7 45.05 11.75 45.1 -7.1 45.3 -3.0 22.95 L0.75 17.85" fill="url(#gradient14)" fill-rule="evenodd" stroke="none"/>
      <path d="M15.4 0.0 L16.15 5.55 Q19.05 29.05 14.75 29.3 14.0 29.4 13.5 28.8 14.0 21.6 11.65 5.1 L15.4 0.0" fill="#ab0404" fill-rule="evenodd" stroke="none"/>
      <path d="M0.75 17.85 Q0.2 20.95 0.05 23.65 -0.7 40.15 15.5 40.0 20.8 39.95 24.25 37.15 L25.6 35.8" ffdec:has-small-stroke="true" ffdec:original-stroke-width="1.0" fill="none" stroke="url(#gradient15)" stroke-linecap="round" stroke-linejoin="round" stroke-width="1.268546319679852"/>
    </g>
    <linearGradient gradientTransform="matrix(0.0, 0.0244, -0.0183, 0.0, 15.0, 20.0)" gradientUnits="userSpaceOnUse" id="gradient13" spreadMethod="pad" x1="-819.2" x2="819.2">
      <stop offset="0.0" stop-color="#ff452e"/>
      <stop offset="1.0" stop-color="#e00a0a"/>
    </linearGradient>
    <linearGradient gradientTransform="matrix(0.0154, 0.0107, -0.0069, 0.01, 7.6, 34.7)" gradientUnits="userSpaceOnUse" id="gradient14" spreadMethod="pad" x1="-819.2" x2="819.2">
      <stop offset="0.1803921568627451" stop-color="#aa0000"/>
      <stop offset="0.5019607843137255" stop-color="#790000"/>
      <stop offset="0.803921568627451" stop-color="#790000"/>
      <stop offset="0.9882352941176471" stop-color="#930000"/>
    </linearGradient>
    <radialGradient cx="0" cy="0" gradientTransform="matrix(0.0189, 0.0, 0.0, 0.01, 11.25, 36.5)" gradientUnits="userSpaceOnUse" id="gradient15" r="819.2" spreadMethod="pad">
      <stop offset="0.12941176470588237" stop-color="#ffe48e" stop-opacity="0.4"/>
      <stop offset="1.0" stop-color="#ffe983" stop-opacity="0.0"/>
    </radialGradient>
  </defs>
</svg>
