<?xml version="1.0" encoding="UTF-8" standalone="no"?>
<svg xmlns:ffdec="https://www.free-decompiler.com/flash" xmlns:xlink="http://www.w3.org/1999/xlink" ffdec:objectType="frame" height="64.8px" width="64.15px" xmlns="http://www.w3.org/2000/svg">
  <g transform="matrix(1.0, 0.0, 0.0, 1.0, 31.9, 29.35)">
    <filter id="filter0">
      <feFlood flood-color="#ffffff" flood-opacity="1.0" result="filterResult0"/>
      <feOffset dx="2.12134798749606" dy="2.1212926992629795" in="SourceGraphic" result="filterResult1"/>
      <feComposite in="filterResult0" in2="filterResult1" operator="out" result="filterResult2"/>
      <feComposite in="filterResult2" in2="SourceGraphic" operator="in" result="filterResult3"/>
      <feColorMatrix in="filterResult3" result="filterResult4" type="matrix" values="1 0 0 0 0,0 1 0 0 0,0 0 1 0 0,0 0 0 0.796875 0"/>
      <feFlood flood-color="#000000" flood-opacity="1.0" result="filterResult5"/>
      <feOffset dx="-2.12134798749606" dy="-2.121292699262979" in="SourceGraphic" result="filterResult6"/>
      <feComposite in="filterResult5" in2="filterResult6" operator="out" result="filterResult7"/>
      <feComposite in="filterResult7" in2="SourceGraphic" operator="in" result="filterResult8"/>
      <feColorMatrix in="filterResult8" result="filterResult9" type="matrix" values="1 0 0 0 0,0 1 0 0 0,0 0 1 0 0,0 0 0 0.796875 0"/>
      <feComposite in="filterResult4" in2="filterResult9" operator="out" result="filterResult10"/>
      <feComposite in="filterResult9" in2="filterResult4" operator="out" result="filterResult11"/>
      <feComposite in="filterResult11" in2="filterResult10" operator="over" result="filterResult12"/>
      <feConvolveMatrix divisor="25.0" in="filterResult12" kernelMatrix="1 1 1 1 1 1 1 1 1 1 1 1 1 1 1 1 1 1 1 1 1 1 1 1 1" order="5 5" result="filterResult13"/>
      <feComposite in="filterResult13" in2="SourceGraphic" operator="in" result="filterResult14"/>
      <feComposite in="filterResult14" in2="SourceGraphic" operator="over" result="filterResult15"/>
    </filter>
    <use ffdec:characterId="1701" filter="url(#filter0)" height="39.4" id="levelStar_spr" transform="matrix(1.3742, -0.2773, 0.2769, 1.3723, -31.9081, -18.6075)" width="38.75" xlink:href="#sprite0"/>
    <filter id="filter3">
      <feColorMatrix in="SourceGraphic" result="filterResult16" type="matrix" values="0 0 0 0 0.0,0 0 0 0 0.6,0 0 0 0 1.0,0 0 0 1 0"/>
      <feConvolveMatrix divisor="25.0" in="filterResult16" kernelMatrix="1 1 1 1 1 1 1 1 1 1 1 1 1 1 1 1 1 1 1 1 1 1 1 1 1" order="5 5" result="filterResult17"/>
      <feComposite in="SourceGraphic" in2="filterResult17" operator="over" result="filterResult18"/>
      <feOffset dx="1.8054599072949091" dy="2.3958953489563473" in="filterResult18" result="filterResult19"/>
      <feColorMatrix in="filterResult19" result="filterResult20" type="matrix" values="0 0 0 0 0.0,0 0 0 0 0.0,0 0 0 0 0.2,0 0 0 1 0"/>
      <feColorMatrix in="filterResult20" result="filterResult21" type="matrix" values="1 0 0 0 0,0 1 0 0 0,0 0 1 0 0,0 0 0 0.3984375 0"/>
      <feComposite in="filterResult18" in2="filterResult21" operator="over" result="filterResult22"/>
    </filter>
    <use ffdec:characterId="1703" filter="url(#filter3)" height="21.0" id="levelNum_txt" transform="matrix(1.0013, 0.0, 0.0, 1.0, -29.6027, -1.8)" width="52.95" xlink:href="#text0"/>
  </g>
  <defs>
    <g id="sprite0" transform="matrix(1.0, 0.0, 0.0, 1.0, 18.1, 20.35)">
      <use ffdec:characterId="1700" height="39.4" transform="matrix(1.0, 0.0, 0.0, 1.0, -18.1, -20.35)" width="38.75" xlink:href="#shape0"/>
    </g>
    <g id="shape0" transform="matrix(1.0, 0.0, 0.0, 1.0, 18.1, 20.35)">
      <path d="M4.05 -19.6 L8.5 -7.75 19.9 -2.2 9.9 5.75 8.05 18.3 -2.45 11.35 -14.95 13.4 -11.45 1.25 -17.35 -10.1 -4.6 -10.5 4.05 -19.6" fill="url(#gradient0)" fill-rule="evenodd" stroke="none"/>
      <path d="M-11.45 1.25 L-14.95 13.4 M19.9 -2.2 L8.5 -7.75" fill="none" stroke="#ffbd77" stroke-linecap="round" stroke-linejoin="round" stroke-width="1.5"/>
      <path d="M8.5 -7.75 L4.05 -19.6" fill="none" stroke="#ba742e" stroke-linecap="round" stroke-linejoin="round" stroke-width="1.5"/>
      <path d="M-2.45 11.35 L8.05 18.3 9.9 5.75 19.9 -2.2" fill="none" stroke="#ad6721" stroke-linecap="round" stroke-linejoin="round" stroke-width="1.5"/>
      <path d="M4.05 -19.6 L-4.6 -10.5 -17.35 -10.1" fill="none" stroke="#ffcd87" stroke-linecap="round" stroke-linejoin="round" stroke-width="1.5"/>
      <path d="M-14.95 13.4 L-2.45 11.35" fill="none" stroke="#a35d17" stroke-linecap="round" stroke-linejoin="round" stroke-width="1.5"/>
      <path d="M-17.35 -10.1 L-11.45 1.25" fill="none" stroke="#c57f39" stroke-linecap="round" stroke-linejoin="round" stroke-width="1.5"/>
    </g>
    <linearGradient gradientTransform="matrix(0.0126, 0.0126, -0.0163, 0.0164, -0.3, -0.8)" gradientUnits="userSpaceOnUse" id="gradient0" spreadMethod="pad" x1="-819.2" x2="819.2">
      <stop offset="0.0" stop-color="#ffcd87"/>
      <stop offset="0.5333333333333333" stop-color="#ad6721"/>
      <stop offset="1.0" stop-color="#ffbc76"/>
    </linearGradient>
    <g id="text0" transform="matrix(1.0, 0.0, 0.0, 1.0, 2.0, 2.0)">
      <g transform="matrix(1.0, 0.0, 0.0, 1.0, -2.0, -2.0)">
        <use fill="#ffffcc" height="21.0" transform="matrix(0.0166, 0.0, 0.0, 0.0166, 15.65, 14.75)" width="52.95" xlink:href="#font_Burbank_Big_Regular_Black_00"/>
        <use fill="#ffffcc" height="21.0" transform="matrix(0.0166, 0.0, 0.0, 0.0166, 26.45, 14.75)" width="52.95" xlink:href="#font_Burbank_Big_Regular_Black_00"/>
      </g>
    </g>
    <g id="font_Burbank_Big_Regular_Black_00">
      <path d="M324.5 -148.5 Q345.0 -147.5 361.0 -164.0 376.5 -180.5 385.5 -225.5 394.0 -271.0 394.0 -356.5 394.0 -458.0 375.0 -502.0 356.5 -546.0 324.5 -545.0 299.0 -545.5 283.5 -527.0 268.0 -509.0 261.0 -465.5 254.0 -422.5 254.0 -347.0 253.5 -241.5 270.5 -194.5 287.5 -147.5 324.5 -148.5 M323.5 28.5 Q227.0 28.5 158.0 -16.0 88.5 -60.0 51.5 -144.5 14.5 -228.5 14.5 -349.0 15.0 -476.5 52.5 -558.5 90.5 -640.5 159.5 -679.5 229.0 -719.0 323.5 -719.0 477.0 -719.5 556.0 -629.0 635.5 -538.5 636.0 -352.5 635.0 -165.0 555.0 -68.5 475.0 28.0 323.5 28.5" fill-rule="evenodd" stroke="none"/>
    </g>
  </defs>
</svg>
