<?xml version="1.0" encoding="UTF-8" standalone="no"?>
<svg xmlns:ffdec="https://www.free-decompiler.com/flash" xmlns:xlink="http://www.w3.org/1999/xlink" ffdec:objectType="frame" height="65.5px" width="87.1px" xmlns="http://www.w3.org/2000/svg">
  <g transform="matrix(1.0, 0.0, 0.0, 1.0, 3.25, 3.25)">
    <use ffdec:characterId="2761" height="65.5" transform="matrix(1.0, 0.0, 0.0, 1.0, -3.25, -3.25)" width="87.1" xlink:href="#shape0"/>
  </g>
  <defs>
    <g id="shape0" transform="matrix(1.0, 0.0, 0.0, 1.0, 3.25, 3.25)">
      <path d="M55.5 49.85 L51.95 50.45 60.25 56.75 60.25 56.7 67.4 58.9 67.55 59.0 67.55 58.95 66.75 47.95 72.9 46.95 Q80.75 45.55 80.6 36.95 L79.65 9.35 Q79.5 2.05 74.55 1.05 L74.15 0.95 74.0 0.95 73.65 0.9 66.75 0.1 66.0 0.05 63.85 0.1 8.4 6.5 Q-0.95 7.6 0.1 17.4 L2.95 46.15 Q3.5 51.95 7.4 53.45 L8.2 53.7 13.15 55.55 13.65 55.75 14.1 55.9 Q16.05 56.4 18.75 55.95 L51.95 50.45" fill="none" stroke="#7d35aa" stroke-linecap="round" stroke-linejoin="round" stroke-width="6.5"/>
      <path d="M13.15 55.55 Q11.85 55.0 10.95 53.95 9.2 51.95 8.85 48.15 L5.9 18.7 Q4.85 8.65 14.4 7.55 L71.25 0.95 73.65 0.9 74.0 0.95 74.15 0.95 74.55 1.05 Q79.5 2.05 79.65 9.35 L80.6 36.95 Q80.75 45.55 72.9 46.95 L66.75 47.95 67.55 58.95 67.55 59.0 67.4 58.9 55.5 49.85 51.95 50.45 18.75 55.95 Q16.05 56.4 14.1 55.9 L13.65 55.75 13.15 55.55" fill="#c791f0" fill-rule="evenodd" stroke="none"/>
      <path d="M73.65 0.9 L71.25 0.95 14.4 7.55 Q4.85 8.65 5.9 18.7 L8.85 48.15 Q9.2 51.95 10.95 53.95 11.85 55.0 13.15 55.55 L8.2 53.7 7.4 53.45 Q3.5 51.95 2.95 46.15 L0.1 17.4 Q-0.95 7.6 8.4 6.5 L63.85 0.1 66.0 0.05 66.75 0.1 73.65 0.9" fill="url(#gradient0)" fill-rule="evenodd" stroke="none"/>
      <path d="M51.95 50.45 L55.5 49.85 67.4 58.9 60.25 56.7 60.25 56.75 51.95 50.45" fill="#9045b8" fill-rule="evenodd" stroke="none"/>
      <path d="M55.15 49.9 L55.9 50.05 56.25 50.5 51.95 52.45 51.2 52.3 50.8 51.65 Q50.7 51.2 50.95 50.9 51.15 50.55 51.6 50.5 L55.15 49.9" fill="#7d35aa" fill-rule="evenodd" stroke="none"/>
    </g>
    <linearGradient gradientTransform="matrix(-0.0019, 0.007, -0.0327, -0.0087, 32.35, 22.85)" gradientUnits="userSpaceOnUse" id="gradient0" spreadMethod="pad" x1="-819.2" x2="819.2">
      <stop offset="0.0" stop-color="#b16cde"/>
      <stop offset="1.0" stop-color="#9c55c2"/>
    </linearGradient>
  </defs>
</svg>
