<?xml version="1.0" encoding="UTF-8" standalone="no"?>
<svg xmlns:ffdec="https://www.free-decompiler.com/flash" xmlns:xlink="http://www.w3.org/1999/xlink" ffdec:objectType="frame" height="53.7px" width="149.4px" xmlns="http://www.w3.org/2000/svg">
  <g transform="matrix(1.0, 0.0, 0.0, 1.0, -46.45, 4.1)">
    <use ffdec:characterId="3008" height="53.6" transform="matrix(1.0, 0.0, 0.0, 1.0, 47.15, -4.0)" width="148.0" xlink:href="#shape0"/>
    <filter id="filter7">
      <feOffset dx="0.17365596594605803" dy="0.9848063796967105" in="SourceGraphic" result="filterResult0"/>
      <feColorMatrix in="filterResult0" result="filterResult1" type="matrix" values="0 0 0 0 0.8980392,0 0 0 0 0.34901962,0 0 0 0 0.023529412,0 0 0 1 0"/>
      <feComposite in="SourceGraphic" in2="filterResult1" operator="over" result="filterResult2"/>
      <feOffset dx="0.17365596594605803" dy="0.9848063796967105" in="filterResult2" result="filterResult3"/>
      <feColorMatrix in="filterResult3" result="filterResult4" type="matrix" values="0 0 0 0 0.8980392,0 0 0 0 0.34901962,0 0 0 0 0.023529412,0 0 0 1 0"/>
      <feComposite in="filterResult2" in2="filterResult4" operator="over" result="filterResult5"/>
    </filter>
    <use ffdec:characterId="3009" filter="url(#filter7)" height="22.05" transform="matrix(1.0, 0.0, 0.0, 1.0, 87.65, 5.9)" width="72.5" xlink:href="#text0"/>
    <use ffdec:characterId="3010" height="23.95" transform="matrix(1.0, 0.0, 0.0, 1.0, 46.45, -4.1)" width="149.4" xlink:href="#shape1"/>
  </g>
  <defs>
    <g id="shape0" transform="matrix(1.0, 0.0, 0.0, 1.0, -47.15, 4.0)">
      <path d="M188.0 31.25 L187.55 31.75 Q183.2 36.4 173.9 39.1 L131.1 48.5 121.15 49.6 120.65 49.6 111.25 48.5 68.45 39.1 Q59.1 36.4 54.8 31.75 L54.1 30.9 53.7 30.35 49.45 24.95 49.85 25.35 51.95 27.25 Q54.45 29.3 58.05 30.9 60.9 32.2 64.5 33.25 L110.5 43.35 Q115.7 44.45 120.65 44.55 L121.15 44.55 Q126.35 44.5 131.75 43.35 L177.8 33.25 184.25 30.9 Q187.9 29.25 190.45 27.2 L192.4 25.4 188.7 30.35 188.4 30.8 188.3 30.9 188.0 31.25" fill="#9d3300" fill-rule="evenodd" stroke="none"/>
      <path d="M175.4 -4.0 Q183.55 -4.0 189.35 1.75 195.1 7.55 195.1 15.7 L195.1 15.75 Q195.65 22.1 191.15 27.15 186.6 32.15 176.75 35.05 L131.6 45.15 Q126.25 46.3 121.15 46.35 116.05 46.3 110.7 45.15 L65.55 35.05 Q55.7 32.15 51.15 27.15 46.65 22.1 47.2 15.75 L47.2 15.7 Q47.2 7.55 52.95 1.75 58.75 -4.0 66.9 -4.0 L175.4 -4.0" fill="#ffa30a" fill-rule="evenodd" stroke="none"/>
      <path d="M59.7 27.5 L58.35 26.25 Q55.05 22.55 55.5 17.85 55.5 11.9 60.45 6.95 65.4 1.9 79.3 3.1 L163.7 3.1 Q177.6 1.9 182.55 6.95 187.5 11.9 187.5 17.85 187.95 22.55 184.65 26.25 L183.3 27.5 Q180.3 29.35 175.9 30.65 L129.6 40.65 121.5 41.6 113.4 40.65 67.1 30.65 Q62.7 29.35 59.7 27.5" fill="url(#gradient0)" fill-rule="evenodd" stroke="none"/>
      <path d="M183.3 27.5 L184.65 26.25 Q187.95 22.55 187.5 17.85 187.5 11.9 182.55 6.95 177.6 1.9 163.7 3.1 L79.3 3.1 Q65.4 1.9 60.45 6.95 55.5 11.9 55.5 17.85 55.05 22.55 58.35 26.25 L59.7 27.5 Q57.6 26.25 56.2 24.7 52.8 20.9 53.25 16.05 53.25 9.9 58.35 4.75 63.5 -0.45 77.85 0.75 L165.15 0.75 Q179.5 -0.45 184.65 4.75 189.75 9.9 189.75 16.05 190.2 20.9 186.8 24.7 185.4 26.25 183.3 27.5" fill="#e55906" fill-rule="evenodd" stroke="none"/>
    </g>
    <linearGradient gradientTransform="matrix(0.0, -0.0237, 0.0237, 0.0, 121.45, 22.25)" gradientUnits="userSpaceOnUse" id="gradient0" spreadMethod="pad" x1="-819.2" x2="819.2">
      <stop offset="0.0" stop-color="#ffc22c"/>
      <stop offset="0.7490196078431373" stop-color="#ff9900"/>
    </linearGradient>
    <g id="text0" transform="matrix(1.0, 0.0, 0.0, 1.0, -36.4, 1.05)">
      <g transform="matrix(1.0, 0.0, 0.0, 1.0, 35.6, 0.0)">
        <use fill="#ffffff" height="22.05" transform="matrix(0.0254, 0.0, 0.0, 0.0254, 0.0, 20.0)" width="72.5" xlink:href="#font_Burbank_Big_Regular_Bold_M0"/>
        <use fill="#ffffff" height="22.05" transform="matrix(0.0254, 0.0, 0.0, 0.0254, 19.15, 20.0)" width="72.5" xlink:href="#font_Burbank_Big_Regular_Bold_o0"/>
        <use fill="#ffffff" height="22.05" transform="matrix(0.0254, 0.0, 0.0, 0.0254, 32.9, 20.0)" width="72.5" xlink:href="#font_Burbank_Big_Regular_Bold_r0"/>
        <use fill="#ffffff" height="22.05" transform="matrix(0.0254, 0.0, 0.0, 0.0254, 42.0, 20.0)" width="72.5" xlink:href="#font_Burbank_Big_Regular_Bold_e0"/>
        <use fill="#ffffff" height="22.05" transform="matrix(0.0254, 0.0, 0.0, 0.0254, 55.35, 20.0)" width="72.5" xlink:href="#font_Burbank_Big_Regular_Bold_.0"/>
        <use fill="#ffffff" height="22.05" transform="matrix(0.0254, 0.0, 0.0, 0.0254, 61.1, 20.0)" width="72.5" xlink:href="#font_Burbank_Big_Regular_Bold_.0"/>
        <use fill="#ffffff" height="22.05" transform="matrix(0.0254, 0.0, 0.0, 0.0254, 66.85, 20.0)" width="72.5" xlink:href="#font_Burbank_Big_Regular_Bold_.0"/>
      </g>
    </g>
    <g id="font_Burbank_Big_Regular_Bold_M0">
      <path d="M27.5 -16.5 L30.0 -67.0 36.5 -207.5 Q40.5 -298.5 45.0 -422.0 49.5 -545.5 53.0 -693.0 L87.5 -693.0 Q120.5 -693.0 174.5 -693.5 228.0 -694.5 290.0 -696.5 290.0 -695.5 295.5 -663.0 301.0 -630.5 312.0 -573.0 322.5 -515.5 337.5 -440.0 353.0 -365.0 371.5 -279.5 382.5 -328.5 397.0 -399.0 411.5 -469.0 428.0 -554.0 444.5 -638.5 461.0 -731.0 L696.5 -723.0 698.0 -669.5 Q699.5 -617.0 703.0 -519.5 706.5 -422.0 712.5 -286.5 718.0 -151.5 727.0 14.5 L701.5 15.0 637.5 17.0 556.0 19.5 556.5 -25.5 Q557.0 -70.0 557.0 -150.5 556.5 -231.0 555.0 -339.0 553.5 -447.5 550.0 -575.5 538.0 -522.0 522.0 -448.0 506.5 -374.5 489.5 -290.0 472.5 -206.0 456.5 -122.0 L432.0 -121.5 Q408.0 -121.5 370.0 -122.0 331.5 -122.5 287.5 -124.0 287.5 -125.0 276.5 -179.0 L245.5 -329.5 Q225.5 -426.0 197.5 -554.0 197.0 -497.0 197.0 -411.0 196.5 -325.0 197.0 -222.0 197.0 -119.5 198.5 -12.5 L172.0 -13.0 Q146.0 -13.5 107.0 -14.5 L27.5 -16.5" fill-rule="evenodd" stroke="none"/>
    </g>
    <g id="font_Burbank_Big_Regular_Bold_o0">
      <path d="M270.5 -97.5 Q306.0 -96.5 326.5 -135.0 347.0 -173.5 347.0 -261.0 347.5 -337.0 329.0 -377.0 310.5 -417.5 271.5 -418.0 234.0 -418.0 214.0 -379.5 194.0 -341.5 193.5 -265.0 193.5 -176.0 212.0 -136.5 230.5 -96.5 270.5 -97.5 M268.5 13.5 Q147.5 12.5 85.0 -59.5 23.0 -131.5 22.5 -265.0 23.0 -346.0 52.5 -405.0 82.5 -464.0 137.5 -496.0 192.5 -528.0 269.5 -528.5 349.5 -528.0 405.0 -495.0 460.0 -462.0 489.0 -402.0 517.5 -342.0 517.0 -260.0 516.5 -164.5 484.5 -104.0 453.0 -43.5 397.0 -15.0 341.0 13.5 268.5 13.5" fill-rule="evenodd" stroke="none"/>
    </g>
    <g id="font_Burbank_Big_Regular_Bold_r0">
      <path d="M35.0 1.0 L35.0 -43.5 Q35.5 -86.5 35.5 -159.5 35.5 -232.5 35.0 -322.0 35.0 -412.0 34.0 -506.0 33.5 -505.5 66.5 -505.5 99.5 -505.5 169.0 -507.0 L168.0 -480.5 Q167.0 -455.0 167.0 -415.5 191.5 -469.5 243.0 -499.0 294.0 -528.5 359.5 -525.5 L357.5 -485.5 Q356.0 -446.0 354.5 -369.5 297.5 -366.0 263.5 -347.0 230.0 -328.5 215.0 -290.5 200.0 -252.5 198.5 -191.5 198.0 -162.0 198.0 -129.0 L199.0 -67.0 200.0 -19.0 200.5 0.0 159.0 0.0 Q118.0 0.5 35.0 1.0" fill-rule="evenodd" stroke="none"/>
    </g>
    <g id="font_Burbank_Big_Regular_Bold_e0">
      <path d="M269.5 -423.0 Q234.0 -423.0 215.0 -390.0 196.5 -357.5 192.5 -293.0 222.5 -293.5 259.0 -294.5 L341.0 -298.0 Q340.0 -358.0 322.0 -390.5 304.0 -422.5 269.5 -423.0 M273.5 16.5 Q181.0 15.5 126.0 -20.0 70.5 -55.5 46.5 -117.5 22.0 -179.5 22.5 -260.0 22.5 -339.5 51.0 -399.5 79.0 -460.0 133.5 -494.0 187.5 -528.0 266.0 -528.5 360.5 -527.0 415.5 -488.0 470.5 -448.5 492.5 -379.0 514.5 -309.5 510.0 -217.0 L428.5 -216.0 Q347.5 -215.0 192.5 -212.0 197.0 -150.5 216.5 -121.5 236.0 -92.0 271.5 -92.0 299.0 -92.0 317.0 -112.5 334.5 -133.0 341.0 -175.0 L386.0 -173.5 Q430.5 -172.5 511.0 -170.0 488.0 -77.5 426.0 -30.5 364.0 16.5 273.5 16.5" fill-rule="evenodd" stroke="none"/>
    </g>
    <g id="font_Burbank_Big_Regular_Bold_.0">
      <path d="M113.5 9.0 Q66.0 8.5 41.5 -19.5 17.5 -47.0 17.5 -90.0 18.0 -136.0 44.5 -161.5 70.5 -187.0 113.5 -187.5 159.0 -186.5 184.5 -160.0 210.0 -133.5 210.0 -91.0 209.5 -40.5 183.5 -15.5 158.0 9.5 113.5 9.0" fill-rule="evenodd" stroke="none"/>
    </g>
    <g id="shape1" transform="matrix(1.0, 0.0, 0.0, 1.0, -46.45, 4.1)">
      <path d="M47.45 18.85 Q47.4 17.75 47.5 16.65 L47.5 16.6 Q47.5 8.45 53.25 2.65 59.0 -3.1 67.15 -3.1 L175.2 -3.1 Q183.3 -3.1 189.1 2.65 194.8 8.45 194.8 16.6 L194.8 16.65 194.85 18.85" fill="none" stroke="url(#gradient1)" stroke-linecap="round" stroke-linejoin="round" stroke-width="2.0"/>
    </g>
    <linearGradient gradientTransform="matrix(0.0, -0.012, 0.0318, 0.0, 122.05, 6.85)" gradientUnits="userSpaceOnUse" id="gradient1" spreadMethod="pad" x1="-819.2" x2="819.2">
      <stop offset="0.0" stop-color="#0099ff" stop-opacity="0.0"/>
      <stop offset="1.0" stop-color="#ffffff" stop-opacity="0.5019608"/>
    </linearGradient>
  </defs>
</svg>
