<?xml version="1.0" encoding="UTF-8" standalone="no"?>
<svg xmlns:ffdec="https://www.free-decompiler.com/flash" xmlns:xlink="http://www.w3.org/1999/xlink" ffdec:objectType="frame" height="66.0px" width="66.0px" xmlns="http://www.w3.org/2000/svg">
  <g transform="matrix(1.0, 0.0, 0.0, 1.0, 33.0, 33.0)">
    <use ffdec:characterId="5" height="66.0" transform="matrix(1.0, 0.0, 0.0, 1.0, -33.0, -33.0)" width="66.0" xlink:href="#shape0"/>
  </g>
  <defs>
    <g id="shape0" transform="matrix(1.0, 0.0, 0.0, 1.0, 33.0, 33.0)">
      <path d="M-11.75 -29.35 Q-6.3 -31.5 0.0 -31.5 13.05 -31.5 22.3 -22.3 25.8 -18.8 27.95 -14.75 29.3 -10.65 29.3 -6.0 29.3 5.25 21.4 13.2 13.4 21.15 2.2 21.15 -9.05 21.15 -17.0 13.2 -24.95 5.25 -24.95 -6.0 -24.95 -17.2 -17.0 -25.15 -14.5 -27.65 -11.75 -29.35" fill="#8500dd" fill-rule="evenodd" stroke="none"/>
      <path d="M-11.75 -29.35 Q-14.5 -27.65 -17.0 -25.15 -24.95 -17.2 -24.95 -6.0 -24.95 5.25 -17.0 13.2 -9.05 21.15 2.2 21.15 13.4 21.15 21.4 13.2 29.3 5.25 29.3 -6.0 29.3 -10.65 27.95 -14.75 31.5 -8.1 31.5 0.0 31.5 13.05 22.3 22.25 13.05 31.5 0.0 31.5 -13.05 31.5 -22.3 22.25 -31.5 13.05 -31.5 0.0 -31.5 -13.05 -22.3 -22.3 -17.5 -27.05 -11.75 -29.35" fill="#6200a4" fill-rule="evenodd" stroke="none"/>
      <path d="M19.8 -24.5 Q11.35 -31.5 0.0 -31.5 -11.3 -31.5 -19.8 -24.55 L-22.3 -22.3 Q-31.5 -13.05 -31.5 0.0 -31.5 13.05 -22.3 22.25 -13.05 31.5 0.0 31.5 13.05 31.5 22.3 22.25 31.5 13.05 31.5 0.0 31.5 -13.05 22.3 -22.3 L19.8 -24.5 Z" fill="none" stroke="#520088" stroke-linecap="round" stroke-linejoin="round" stroke-width="3.0"/>
      <path d="M-11.75 -29.35 Q-14.5 -27.65 -17.0 -25.15 -24.95 -17.2 -24.95 -6.0 -24.95 5.25 -17.0 13.2 -9.05 21.15 2.2 21.15 13.4 21.15 21.4 13.2 29.3 5.25 29.3 -6.0 29.3 -10.65 27.95 -14.75 31.5 -8.1 31.5 0.0 31.5 13.05 22.3 22.25 13.05 31.5 0.0 31.5 -13.05 31.5 -22.3 22.25 -31.5 13.05 -31.5 0.0 -31.5 -13.05 -22.3 -22.3 -17.5 -27.05 -11.75 -29.35" fill="#ff5515" fill-rule="evenodd" stroke="none"/>
      <path d="M27.95 -14.75 Q29.3 -10.65 29.3 -6.0 29.3 5.25 21.4 13.2 13.4 21.15 2.2 21.15 -9.05 21.15 -17.0 13.2 -24.95 5.25 -24.95 -6.0 -24.95 -17.2 -17.0 -25.15 -14.5 -27.65 -11.75 -29.35 -6.3 -31.5 0.0 -31.5 13.05 -31.5 22.3 -22.3 25.8 -18.8 27.95 -14.75" fill="#ff7925" fill-rule="evenodd" stroke="none"/>
      <path d="M19.8 -24.5 Q11.35 -31.5 0.0 -31.5 -11.3 -31.5 -19.8 -24.55 L-22.3 -22.3 Q-31.5 -13.05 -31.5 0.0 -31.5 13.05 -22.3 22.25 -13.05 31.5 0.0 31.5 13.05 31.5 22.3 22.25 31.5 13.05 31.5 0.0 31.5 -13.05 22.3 -22.3 L19.8 -24.5 Z" fill="none" stroke="#c33804" stroke-linecap="round" stroke-linejoin="round" stroke-width="3.0"/>
      <path d="M14.1 -22.75 L15.25 -22.65 16.85 -21.75 19.95 -18.8 Q22.15 -16.4 23.45 -13.65 24.75 -10.95 24.0 -9.15 L21.7 -9.2 Q20.55 -10.75 20.15 -11.8 L18.65 -15.15 Q17.7 -17.45 15.6 -20.0 13.5 -22.55 14.1 -22.75" fill="#ffffff" fill-opacity="0.34901962" fill-rule="evenodd" stroke="none"/>
    </g>
  </defs>
</svg>
