<?xml version="1.0" encoding="UTF-8" standalone="no"?>
<svg xmlns:ffdec="https://www.free-decompiler.com/flash" xmlns:xlink="http://www.w3.org/1999/xlink" ffdec:objectType="frame" height="25.95px" width="25.9px" xmlns="http://www.w3.org/2000/svg">
  <g transform="matrix(1.0, 0.0, 0.0, 1.0, 12.95, 12.95)">
    <use ffdec:characterId="28" height="25.95" transform="matrix(1.0, 0.0, 0.0, 1.0, -12.95, -12.95)" width="25.9" xlink:href="#shape0"/>
  </g>
  <defs>
    <g id="shape0" transform="matrix(1.0, 0.0, 0.0, 1.0, 12.95, 12.95)">
      <path d="M1.1 -6.5 Q1.15 -8.2 2.4 -9.4 3.7 -10.7 5.6 -10.7 7.4 -10.7 8.75 -9.4 10.05 -8.1 10.05 -6.2 10.05 -4.35 8.75 -3.05 7.85 -2.2 6.75 -1.9 L5.6 -1.75 Q3.7 -1.75 2.4 -3.05 1.1 -4.35 1.1 -6.2 L1.1 -6.5 M-2.95 6.1 L-4.0 6.35 Q-4.95 6.35 -5.6 5.7 -6.25 5.05 -6.25 4.1 -6.25 3.4 -5.9 2.9 L-5.6 2.5 Q-4.95 1.85 -4.0 1.85 -3.05 1.85 -2.45 2.5 -1.75 3.15 -1.75 4.1 -1.75 5.05 -2.45 5.7 L-2.95 6.1" fill="#e6e6e6" fill-rule="evenodd" stroke="none"/>
      <path d="M6.75 -1.9 L7.05 0.2 Q7.0 2.95 5.1 4.95 3.1 6.95 0.3 6.95 -1.55 6.95 -2.95 6.1 L-2.45 5.7 Q-1.75 5.05 -1.75 4.1 -1.75 3.15 -2.45 2.5 -3.05 1.85 -4.0 1.85 -4.95 1.85 -5.6 2.5 L-5.9 2.9 Q-6.45 1.6 -6.45 0.2 -6.45 -2.6 -4.45 -4.6 -2.5 -6.55 0.3 -6.5 L1.1 -6.5 1.1 -6.2 Q1.1 -4.35 2.4 -3.05 3.7 -1.75 5.6 -1.75 L6.75 -1.9" fill="#305665" fill-rule="evenodd" stroke="none"/>
      <path d="M6.75 -1.9 Q7.85 -2.2 8.75 -3.05 10.05 -4.35 10.05 -6.2 10.05 -8.1 8.75 -9.4 7.4 -10.7 5.6 -10.7 3.7 -10.7 2.4 -9.4 1.15 -8.2 1.1 -6.5 L0.3 -6.5 Q-2.5 -6.55 -4.45 -4.6 -6.45 -2.6 -6.45 0.2 -6.45 1.6 -5.9 2.9 -6.25 3.4 -6.25 4.1 -6.25 5.05 -5.6 5.7 -4.95 6.35 -4.0 6.35 L-2.95 6.1 Q-1.55 6.95 0.3 6.95 3.1 6.95 5.1 4.95 7.0 2.95 7.05 0.2 L6.75 -1.9 M9.2 -9.15 Q12.95 -5.35 12.95 0.0 12.95 5.4 9.2 9.2 5.35 12.95 0.0 13.0 -5.4 12.95 -9.2 9.2 -12.95 5.4 -12.95 0.0 -12.95 -5.35 -9.2 -9.15 -5.4 -12.95 0.0 -12.95 5.35 -12.95 9.2 -9.15" fill="#63a5e7" fill-rule="evenodd" stroke="none"/>
    </g>
  </defs>
</svg>
