<?xml version="1.0" encoding="UTF-8" standalone="no"?>
<svg xmlns:ffdec="https://www.free-decompiler.com/flash" xmlns:xlink="http://www.w3.org/1999/xlink" ffdec:objectType="frame" height="176.0px" width="174.1px" xmlns="http://www.w3.org/2000/svg">
  <g transform="matrix(1.0, 0.0, 0.0, 1.0, -9.95, 18.0)">
    <use ffdec:characterId="3021" height="176.0" transform="matrix(1.0, 0.0, 0.0, 1.0, 9.95, -18.0)" width="174.1" xlink:href="#text0"/>
  </g>
  <defs>
    <g id="text0" transform="matrix(1.0, 0.0, 0.0, 1.0, 8.05, 2.0)">
      <g transform="matrix(1.0, 0.0, 0.0, 1.0, -8.05, -2.0)">
        <use fill="#ffffff" height="176.0" transform="matrix(0.0195, 0.0, 0.0, 0.0195, 16.15, 21.2)" width="174.1" xlink:href="#font_GosmickSans_Y0"/>
        <use fill="#ffffff" height="176.0" transform="matrix(0.0195, 0.0, 0.0, 0.0195, 28.0, 21.2)" width="174.1" xlink:href="#font_GosmickSans_o0"/>
        <use fill="#ffffff" height="176.0" transform="matrix(0.0195, 0.0, 0.0, 0.0195, 37.95, 21.2)" width="174.1" xlink:href="#font_GosmickSans_u0"/>
      </g>
      <g transform="matrix(1.0, 0.0, 0.0, 1.0, -8.05, -2.0)">
        <use fill="#ffffff" height="176.0" transform="matrix(0.0195, 0.0, 0.0, 0.0195, 53.0, 21.2)" width="174.1" xlink:href="#font_GosmickSans_a0"/>
        <use fill="#ffffff" height="176.0" transform="matrix(0.0195, 0.0, 0.0, 0.0195, 62.45, 21.2)" width="174.1" xlink:href="#font_GosmickSans_l0"/>
        <use fill="#ffffff" height="176.0" transform="matrix(0.0195, 0.0, 0.0, 0.0195, 65.9, 21.2)" width="174.1" xlink:href="#font_GosmickSans_r0"/>
        <use fill="#ffffff" height="176.0" transform="matrix(0.0195, 0.0, 0.0, 0.0195, 73.2, 21.2)" width="174.1" xlink:href="#font_GosmickSans_e0"/>
        <use fill="#ffffff" height="176.0" transform="matrix(0.0195, 0.0, 0.0, 0.0195, 83.45, 21.2)" width="174.1" xlink:href="#font_GosmickSans_a0"/>
        <use fill="#ffffff" height="176.0" transform="matrix(0.0195, 0.0, 0.0, 0.0195, 92.9, 21.2)" width="174.1" xlink:href="#font_GosmickSans_d0"/>
        <use fill="#ffffff" height="176.0" transform="matrix(0.0195, 0.0, 0.0, 0.0195, 103.4, 21.2)" width="174.1" xlink:href="#font_GosmickSans_y0"/>
      </g>
      <g transform="matrix(1.0, 0.0, 0.0, 1.0, -8.05, -2.0)">
        <use fill="#ffffff" height="176.0" transform="matrix(0.0195, 0.0, 0.0, 0.0195, 118.85, 21.2)" width="174.1" xlink:href="#font_GosmickSans_h0"/>
        <use fill="#ffffff" height="176.0" transform="matrix(0.0195, 0.0, 0.0, 0.0195, 128.95, 21.2)" width="174.1" xlink:href="#font_GosmickSans_a0"/>
        <use fill="#ffffff" height="176.0" transform="matrix(0.0195, 0.0, 0.0, 0.0195, 138.4, 21.2)" width="174.1" xlink:href="#font_GosmickSans_v0"/>
        <use fill="#ffffff" height="176.0" transform="matrix(0.0195, 0.0, 0.0, 0.0195, 147.7, 21.2)" width="174.1" xlink:href="#font_GosmickSans_e0"/>
      </g>
      <g transform="matrix(1.0, 0.0, 0.0, 1.0, -8.05, -2.0)">
        <use fill="#ffffff" height="176.0" transform="matrix(0.0195, 0.0, 0.0, 0.0195, 16.3, 47.8)" width="174.1" xlink:href="#font_GosmickSans_B0"/>
        <use fill="#ffffff" height="176.0" transform="matrix(0.0195, 0.0, 0.0, 0.0195, 28.6, 47.8)" width="174.1" xlink:href="#font_GosmickSans_i0"/>
        <use fill="#ffffff" height="176.0" transform="matrix(0.0195, 0.0, 0.0, 0.0195, 32.2, 47.8)" width="174.1" xlink:href="#font_GosmickSans_n0"/>
      </g>
      <g transform="matrix(1.0, 0.0, 0.0, 1.0, -8.05, -2.0)">
        <use fill="#ffffff" height="176.0" transform="matrix(0.0195, 0.0, 0.0, 0.0195, 47.75, 47.8)" width="174.1" xlink:href="#font_GosmickSans_W0"/>
        <use fill="#ffffff" height="176.0" transform="matrix(0.0195, 0.0, 0.0, 0.0195, 66.15, 47.8)" width="174.1" xlink:href="#font_GosmickSans_e0"/>
        <use fill="#ffffff" height="176.0" transform="matrix(0.0195, 0.0, 0.0, 0.0195, 76.4, 47.8)" width="174.1" xlink:href="#font_GosmickSans_e0"/>
        <use fill="#ffffff" height="176.0" transform="matrix(0.0195, 0.0, 0.0, 0.0195, 86.65, 47.8)" width="174.1" xlink:href="#font_GosmickSans_v0"/>
        <use fill="#ffffff" height="176.0" transform="matrix(0.0195, 0.0, 0.0, 0.0195, 95.95, 47.8)" width="174.1" xlink:href="#font_GosmickSans_i0"/>
        <use fill="#ffffff" height="176.0" transform="matrix(0.0195, 0.0, 0.0, 0.0195, 99.55, 47.8)" width="174.1" xlink:href="#font_GosmickSans_l0"/>
        <use fill="#ffffff" height="176.0" transform="matrix(0.0195, 0.0, 0.0, 0.0195, 103.0, 47.8)" width="174.1" xlink:href="#font_GosmickSans_s0"/>
      </g>
      <g transform="matrix(1.0, 0.0, 0.0, 1.0, -8.05, -2.0)">
        <use fill="#ffffff" height="176.0" transform="matrix(0.0195, 0.0, 0.0, 0.0195, 117.55, 47.8)" width="174.1" xlink:href="#font_GosmickSans_o0"/>
        <use fill="#ffffff" height="176.0" transform="matrix(0.0195, 0.0, 0.0, 0.0195, 127.5, 47.8)" width="174.1" xlink:href="#font_GosmickSans_p0"/>
        <use fill="#ffffff" height="176.0" transform="matrix(0.0195, 0.0, 0.0, 0.0195, 137.5, 47.8)" width="174.1" xlink:href="#font_GosmickSans_e0"/>
        <use fill="#ffffff" height="176.0" transform="matrix(0.0195, 0.0, 0.0, 0.0195, 147.75, 47.8)" width="174.1" xlink:href="#font_GosmickSans_n0"/>
      </g>
      <g transform="matrix(1.0, 0.0, 0.0, 1.0, -8.05, -2.0)">
        <use fill="#ffffff" height="176.0" transform="matrix(0.0195, 0.0, 0.0, 0.0195, 8.9, 74.4)" width="174.1" xlink:href="#font_GosmickSans_i0"/>
        <use fill="#ffffff" height="176.0" transform="matrix(0.0195, 0.0, 0.0, 0.0195, 12.5, 74.4)" width="174.1" xlink:href="#font_GosmickSans_n0"/>
      </g>
      <g transform="matrix(1.0, 0.0, 0.0, 1.0, -8.05, -2.0)">
        <use fill="#ffffff" height="176.0" transform="matrix(0.0195, 0.0, 0.0, 0.0195, 28.05, 74.4)" width="174.1" xlink:href="#font_GosmickSans_a0"/>
        <use fill="#ffffff" height="176.0" transform="matrix(0.0195, 0.0, 0.0, 0.0195, 37.5, 74.4)" width="174.1" xlink:href="#font_GosmickSans_n0"/>
        <use fill="#ffffff" height="176.0" transform="matrix(0.0195, 0.0, 0.0, 0.0195, 47.5, 74.4)" width="174.1" xlink:href="#font_GosmickSans_o0"/>
        <use fill="#ffffff" height="176.0" transform="matrix(0.0195, 0.0, 0.0, 0.0195, 57.45, 74.4)" width="174.1" xlink:href="#font_GosmickSans_t0"/>
        <use fill="#ffffff" height="176.0" transform="matrix(0.0195, 0.0, 0.0, 0.0195, 64.85, 74.4)" width="174.1" xlink:href="#font_GosmickSans_h0"/>
        <use fill="#ffffff" height="176.0" transform="matrix(0.0195, 0.0, 0.0, 0.0195, 74.95, 74.4)" width="174.1" xlink:href="#font_GosmickSans_e0"/>
        <use fill="#ffffff" height="176.0" transform="matrix(0.0195, 0.0, 0.0, 0.0195, 85.2, 74.4)" width="174.1" xlink:href="#font_GosmickSans_r0"/>
      </g>
      <g transform="matrix(1.0, 0.0, 0.0, 1.0, -8.05, -2.0)">
        <use fill="#ffffff" height="176.0" transform="matrix(0.0195, 0.0, 0.0, 0.0195, 98.05, 74.4)" width="174.1" xlink:href="#font_GosmickSans_w0"/>
        <use fill="#ffffff" height="176.0" transform="matrix(0.0195, 0.0, 0.0, 0.0195, 112.65, 74.4)" width="174.1" xlink:href="#font_GosmickSans_i0"/>
        <use fill="#ffffff" height="176.0" transform="matrix(0.0195, 0.0, 0.0, 0.0195, 116.25, 74.4)" width="174.1" xlink:href="#font_GosmickSans_n0"/>
        <use fill="#ffffff" height="176.0" transform="matrix(0.0195, 0.0, 0.0, 0.0195, 126.25, 74.4)" width="174.1" xlink:href="#font_GosmickSans_d0"/>
        <use fill="#ffffff" height="176.0" transform="matrix(0.0195, 0.0, 0.0, 0.0195, 136.75, 74.4)" width="174.1" xlink:href="#font_GosmickSans_o0"/>
        <use fill="#ffffff" height="176.0" transform="matrix(0.0195, 0.0, 0.0, 0.0195, 146.7, 74.4)" width="174.1" xlink:href="#font_GosmickSans_w0"/>
        <use fill="#ffffff" height="176.0" transform="matrix(0.0195, 0.0, 0.0, 0.0195, 161.3, 74.4)" width="174.1" xlink:href="#font_GosmickSans_.0"/>
      </g>
      <g transform="matrix(1.0, 0.0, 0.0, 1.0, -8.05, -2.0)">
        <use fill="#ffffff" height="176.0" transform="matrix(0.0195, 0.0, 0.0, 0.0195, 25.5, 101.0)" width="174.1" xlink:href="#font_GosmickSans_P0"/>
        <use fill="#ffffff" height="176.0" transform="matrix(0.0195, 0.0, 0.0, 0.0195, 36.8, 101.0)" width="174.1" xlink:href="#font_GosmickSans_l0"/>
        <use fill="#ffffff" height="176.0" transform="matrix(0.0195, 0.0, 0.0, 0.0195, 40.25, 101.0)" width="174.1" xlink:href="#font_GosmickSans_e0"/>
        <use fill="#ffffff" height="176.0" transform="matrix(0.0195, 0.0, 0.0, 0.0195, 50.5, 101.0)" width="174.1" xlink:href="#font_GosmickSans_a0"/>
        <use fill="#ffffff" height="176.0" transform="matrix(0.0195, 0.0, 0.0, 0.0195, 59.95, 101.0)" width="174.1" xlink:href="#font_GosmickSans_s0"/>
        <use fill="#ffffff" height="176.0" transform="matrix(0.0195, 0.0, 0.0, 0.0195, 68.95, 101.0)" width="174.1" xlink:href="#font_GosmickSans_e0"/>
      </g>
      <g transform="matrix(1.0, 0.0, 0.0, 1.0, -8.05, -2.0)">
        <use fill="#ffffff" height="176.0" transform="matrix(0.0195, 0.0, 0.0, 0.0195, 84.75, 101.0)" width="174.1" xlink:href="#font_GosmickSans_c0"/>
        <use fill="#ffffff" height="176.0" transform="matrix(0.0195, 0.0, 0.0, 0.0195, 94.0, 101.0)" width="174.1" xlink:href="#font_GosmickSans_l0"/>
        <use fill="#ffffff" height="176.0" transform="matrix(0.0195, 0.0, 0.0, 0.0195, 97.45, 101.0)" width="174.1" xlink:href="#font_GosmickSans_o0"/>
        <use fill="#ffffff" height="176.0" transform="matrix(0.0195, 0.0, 0.0, 0.0195, 107.4, 101.0)" width="174.1" xlink:href="#font_GosmickSans_s0"/>
        <use fill="#ffffff" height="176.0" transform="matrix(0.0195, 0.0, 0.0, 0.0195, 116.4, 101.0)" width="174.1" xlink:href="#font_GosmickSans_e0"/>
      </g>
      <g transform="matrix(1.0, 0.0, 0.0, 1.0, -8.05, -2.0)">
        <use fill="#ffffff" height="176.0" transform="matrix(0.0195, 0.0, 0.0, 0.0195, 132.2, 101.0)" width="174.1" xlink:href="#font_GosmickSans_a0"/>
        <use fill="#ffffff" height="176.0" transform="matrix(0.0195, 0.0, 0.0, 0.0195, 141.65, 101.0)" width="174.1" xlink:href="#font_GosmickSans_l0"/>
        <use fill="#ffffff" height="176.0" transform="matrix(0.0195, 0.0, 0.0, 0.0195, 145.1, 101.0)" width="174.1" xlink:href="#font_GosmickSans_l0"/>
      </g>
      <g transform="matrix(1.0, 0.0, 0.0, 1.0, -8.05, -2.0)">
        <use fill="#ffffff" height="176.0" transform="matrix(0.0195, 0.0, 0.0, 0.0195, 13.75, 127.6)" width="174.1" xlink:href="#font_GosmickSans_b0"/>
        <use fill="#ffffff" height="176.0" transform="matrix(0.0195, 0.0, 0.0, 0.0195, 24.15, 127.6)" width="174.1" xlink:href="#font_GosmickSans_r0"/>
        <use fill="#ffffff" height="176.0" transform="matrix(0.0195, 0.0, 0.0, 0.0195, 31.45, 127.6)" width="174.1" xlink:href="#font_GosmickSans_o0"/>
        <use fill="#ffffff" height="176.0" transform="matrix(0.0195, 0.0, 0.0, 0.0195, 41.4, 127.6)" width="174.1" xlink:href="#font_GosmickSans_w0"/>
        <use fill="#ffffff" height="176.0" transform="matrix(0.0195, 0.0, 0.0, 0.0195, 56.0, 127.6)" width="174.1" xlink:href="#font_GosmickSans_s0"/>
        <use fill="#ffffff" height="176.0" transform="matrix(0.0195, 0.0, 0.0, 0.0195, 65.0, 127.6)" width="174.1" xlink:href="#font_GosmickSans_e0"/>
        <use fill="#ffffff" height="176.0" transform="matrix(0.0195, 0.0, 0.0, 0.0195, 75.25, 127.6)" width="174.1" xlink:href="#font_GosmickSans_r0"/>
      </g>
      <g transform="matrix(1.0, 0.0, 0.0, 1.0, -8.05, -2.0)">
        <use fill="#ffffff" height="176.0" transform="matrix(0.0195, 0.0, 0.0, 0.0195, 88.1, 127.6)" width="174.1" xlink:href="#font_GosmickSans_w0"/>
        <use fill="#ffffff" height="176.0" transform="matrix(0.0195, 0.0, 0.0, 0.0195, 102.7, 127.6)" width="174.1" xlink:href="#font_GosmickSans_i0"/>
        <use fill="#ffffff" height="176.0" transform="matrix(0.0195, 0.0, 0.0, 0.0195, 106.3, 127.6)" width="174.1" xlink:href="#font_GosmickSans_n0"/>
        <use fill="#ffffff" height="176.0" transform="matrix(0.0195, 0.0, 0.0, 0.0195, 116.3, 127.6)" width="174.1" xlink:href="#font_GosmickSans_d0"/>
        <use fill="#ffffff" height="176.0" transform="matrix(0.0195, 0.0, 0.0, 0.0195, 126.8, 127.6)" width="174.1" xlink:href="#font_GosmickSans_o0"/>
        <use fill="#ffffff" height="176.0" transform="matrix(0.0195, 0.0, 0.0, 0.0195, 136.75, 127.6)" width="174.1" xlink:href="#font_GosmickSans_w0"/>
        <use fill="#ffffff" height="176.0" transform="matrix(0.0195, 0.0, 0.0, 0.0195, 151.35, 127.6)" width="174.1" xlink:href="#font_GosmickSans_s0"/>
      </g>
      <g transform="matrix(1.0, 0.0, 0.0, 1.0, -8.05, -2.0)">
        <use fill="#ffffff" height="176.0" transform="matrix(0.0195, 0.0, 0.0, 0.0195, 31.0, 154.2)" width="174.1" xlink:href="#font_GosmickSans_a0"/>
        <use fill="#ffffff" height="176.0" transform="matrix(0.0195, 0.0, 0.0, 0.0195, 40.45, 154.2)" width="174.1" xlink:href="#font_GosmickSans_n0"/>
        <use fill="#ffffff" height="176.0" transform="matrix(0.0195, 0.0, 0.0, 0.0195, 50.45, 154.2)" width="174.1" xlink:href="#font_GosmickSans_d0"/>
      </g>
      <g transform="matrix(1.0, 0.0, 0.0, 1.0, -8.05, -2.0)">
        <use fill="#ffffff" height="176.0" transform="matrix(0.0195, 0.0, 0.0, 0.0195, 66.5, 154.2)" width="174.1" xlink:href="#font_GosmickSans_t0"/>
        <use fill="#ffffff" height="176.0" transform="matrix(0.0195, 0.0, 0.0, 0.0195, 73.9, 154.2)" width="174.1" xlink:href="#font_GosmickSans_r0"/>
        <use fill="#ffffff" height="176.0" transform="matrix(0.0195, 0.0, 0.0, 0.0195, 81.2, 154.2)" width="174.1" xlink:href="#font_GosmickSans_y0"/>
      </g>
      <g transform="matrix(1.0, 0.0, 0.0, 1.0, -8.05, -2.0)">
        <use fill="#ffffff" height="176.0" transform="matrix(0.0195, 0.0, 0.0, 0.0195, 96.65, 154.2)" width="174.1" xlink:href="#font_GosmickSans_a0"/>
        <use fill="#ffffff" height="176.0" transform="matrix(0.0195, 0.0, 0.0, 0.0195, 106.1, 154.2)" width="174.1" xlink:href="#font_GosmickSans_g0"/>
        <use fill="#ffffff" height="176.0" transform="matrix(0.0195, 0.0, 0.0, 0.0195, 116.1, 154.2)" width="174.1" xlink:href="#font_GosmickSans_a0"/>
        <use fill="#ffffff" height="176.0" transform="matrix(0.0195, 0.0, 0.0, 0.0195, 125.55, 154.2)" width="174.1" xlink:href="#font_GosmickSans_i0"/>
        <use fill="#ffffff" height="176.0" transform="matrix(0.0195, 0.0, 0.0, 0.0195, 129.15, 154.2)" width="174.1" xlink:href="#font_GosmickSans_n0"/>
        <use fill="#ffffff" height="176.0" transform="matrix(0.0195, 0.0, 0.0, 0.0195, 139.15, 154.2)" width="174.1" xlink:href="#font_GosmickSans_.0"/>
      </g>
    </g>
    <g id="font_GosmickSans_Y0">
      <path d="M591.0 -705.5 Q593.0 -700.0 585.5 -682.5 578.5 -664.5 567.5 -649.0 L530.5 -586.0 486.0 -510.5 440.5 -432.0 Q418.0 -393.0 401.5 -361.5 381.0 -322.5 373.5 -285.0 365.5 -247.5 364.5 -210.5 363.5 -174.0 365.5 -136.0 367.5 -98.0 366.5 -59.0 364.5 -48.0 356.0 -34.5 347.0 -21.5 336.0 -10.5 324.5 0.0 311.5 7.5 298.0 14.5 286.5 13.5 268.5 11.5 260.5 -7.0 253.0 -25.5 256.0 -56.0 260.0 -100.0 258.5 -157.0 257.0 -214.0 261.0 -279.5 262.0 -294.5 255.0 -308.5 248.0 -322.5 237.5 -334.0 227.5 -346.0 216.5 -356.5 206.0 -367.5 198.5 -378.5 179.0 -396.0 152.0 -435.0 125.0 -474.0 98.0 -517.5 70.5 -561.0 48.5 -602.0 26.5 -643.0 17.5 -665.5 24.5 -686.0 40.5 -699.0 56.5 -712.5 75.0 -712.5 91.0 -712.5 102.0 -698.5 112.5 -685.0 130.0 -656.0 154.5 -612.0 181.5 -568.5 208.0 -525.0 232.0 -488.0 256.0 -451.5 275.5 -423.5 295.0 -396.0 306.0 -385.0 L328.0 -417.0 Q341.0 -435.0 358.0 -461.5 375.0 -488.0 397.0 -526.0 419.0 -564.0 446.5 -618.5 453.5 -633.5 462.5 -654.5 471.0 -675.5 483.0 -694.0 494.5 -712.5 511.0 -726.0 527.5 -739.5 552.0 -739.5 566.5 -739.5 577.5 -728.5 589.0 -717.5 591.0 -705.5" fill-rule="evenodd" stroke="none"/>
    </g>
    <g id="font_GosmickSans_o0">
      <path d="M388.0 -245.5 Q388.0 -285.5 379.5 -319.0 370.5 -352.0 354.0 -377.0 338.0 -401.5 314.5 -415.0 291.0 -429.0 260.0 -429.0 230.5 -429.0 205.5 -414.5 180.5 -400.5 162.5 -376.0 144.5 -352.0 134.5 -319.5 125.0 -286.5 125.0 -249.5 125.0 -214.0 133.5 -181.5 142.5 -149.5 158.5 -125.0 174.0 -100.0 198.0 -86.0 222.0 -71.5 253.0 -71.5 282.5 -71.5 307.5 -85.0 332.5 -98.0 350.5 -121.0 368.5 -144.0 378.5 -176.5 388.0 -209.0 388.0 -245.5 M479.0 -234.5 Q475.0 -182.0 455.5 -136.5 436.0 -91.0 405.0 -57.0 373.5 -23.5 332.5 -4.0 292.0 15.5 244.5 15.5 197.5 15.5 159.5 -4.0 121.0 -23.5 93.5 -57.0 65.5 -91.0 51.0 -136.0 36.0 -181.0 36.0 -233.5 36.0 -292.0 54.0 -341.5 72.0 -391.0 103.0 -428.0 134.0 -465.0 177.5 -486.0 221.0 -507.0 272.5 -507.0 321.5 -507.0 361.5 -485.5 401.0 -464.0 429.0 -427.0 456.5 -390.0 470.0 -340.5 483.0 -291.0 479.0 -234.5" fill-rule="evenodd" stroke="none"/>
    </g>
    <g id="font_GosmickSans_u0">
      <path d="M457.5 -449.5 Q452.5 -382.0 451.0 -316.5 449.5 -251.0 449.5 -183.5 L449.5 -154.0 Q449.5 -134.5 450.0 -119.0 450.5 -103.5 451.5 -90.5 452.5 -87.0 453.5 -77.5 454.5 -68.0 455.0 -58.0 455.5 -48.5 455.5 -39.0 L455.5 -29.0 Q457.5 -12.5 448.0 -2.5 438.5 7.0 415.5 7.0 L407.5 6.5 Q401.5 6.0 395.0 4.5 388.0 3.0 382.0 -1.0 376.0 -5.5 375.0 -13.5 L373.0 -20.0 370.0 -34.5 367.0 -48.5 Q365.5 -54.5 364.5 -54.5 355.5 -30.0 332.5 -16.5 309.5 -3.0 283.5 2.5 258.0 8.0 234.0 8.5 210.0 9.0 198.5 8.0 140.5 5.0 104.5 -27.5 68.5 -59.5 51.0 -111.0 38.0 -149.5 36.5 -198.0 35.0 -246.0 36.0 -284.0 37.0 -310.5 37.5 -335.0 38.0 -359.5 40.0 -386.0 41.0 -404.5 40.0 -423.5 39.0 -442.5 42.0 -459.0 45.0 -475.5 56.5 -487.0 67.5 -499.0 94.0 -503.0 112.5 -506.0 129.5 -494.0 146.5 -481.5 146.5 -461.0 146.5 -430.5 145.0 -400.0 143.5 -370.0 141.0 -341.0 138.0 -312.5 136.5 -287.5 135.0 -262.5 135.0 -243.0 135.0 -161.0 152.0 -123.0 169.0 -85.0 212.0 -80.0 236.5 -77.0 260.5 -83.0 284.5 -89.5 303.0 -104.0 321.5 -119.0 333.0 -142.0 344.0 -165.0 344.0 -196.0 347.0 -223.5 348.5 -255.5 350.0 -288.0 351.0 -320.5 352.5 -353.5 353.0 -385.5 353.5 -418.0 355.5 -447.5 354.5 -457.0 361.0 -466.5 367.5 -476.5 377.5 -485.0 387.0 -494.0 399.0 -499.0 410.5 -504.0 420.0 -504.0 437.5 -504.0 448.5 -491.5 460.0 -479.5 457.5 -449.5" fill-rule="evenodd" stroke="none"/>
    </g>
    <g id="font_GosmickSans_a0">
      <path d="M349.5 -232.5 Q331.0 -247.0 308.0 -257.5 285.0 -268.5 256.5 -268.5 224.5 -268.5 198.5 -259.0 172.5 -250.0 153.5 -234.5 134.5 -219.0 124.0 -198.5 114.0 -178.0 114.0 -155.5 114.0 -110.5 141.5 -84.0 169.5 -57.5 218.5 -57.5 254.5 -57.5 279.5 -68.5 304.5 -80.0 327.0 -96.5 342.5 -115.5 349.0 -137.0 355.5 -158.5 356.5 -177.5 357.5 -196.5 355.0 -211.5 352.5 -226.5 349.5 -232.5 M455.0 -31.5 Q456.0 -23.5 451.0 -14.5 446.5 -6.0 439.5 0.5 432.5 7.5 423.0 12.0 414.0 16.5 406.5 16.5 388.5 16.5 375.5 -2.0 362.5 -20.5 353.5 -49.0 293.0 8.5 218.5 14.5 181.5 17.5 148.0 10.0 115.0 2.0 90.5 -18.0 65.5 -38.0 51.0 -70.5 36.0 -103.5 36.0 -152.5 36.0 -217.0 60.0 -254.5 84.0 -291.5 117.0 -311.0 149.5 -330.5 185.0 -336.0 220.5 -341.0 243.0 -340.0 296.0 -338.0 320.5 -330.0 345.0 -322.5 349.5 -317.5 353.5 -312.0 353.5 -311.0 353.5 -321.5 355.0 -344.5 356.5 -367.5 347.5 -390.5 338.0 -413.5 313.0 -429.5 288.0 -445.5 235.5 -441.0 200.0 -439.0 178.0 -431.5 156.0 -424.0 141.5 -415.0 127.0 -406.5 118.5 -397.5 109.5 -389.0 100.5 -384.0 96.5 -381.0 86.0 -382.5 L74.0 -384.0 Q72.0 -384.0 69.5 -388.5 66.5 -393.0 64.5 -398.5 L60.5 -409.5 57.5 -416.5 Q62.5 -439.0 79.0 -457.5 95.5 -476.0 119.5 -489.5 143.5 -502.5 174.5 -511.0 206.0 -519.0 240.0 -521.0 296.0 -524.0 333.0 -512.0 370.0 -499.5 392.5 -478.5 415.0 -457.5 425.0 -432.0 435.5 -406.5 439.0 -381.5 442.5 -356.0 441.5 -336.5 440.5 -316.5 440.5 -307.0 L440.5 -282.5 Q440.5 -270.0 439.5 -256.0 438.5 -231.5 438.5 -209.0 L438.5 -163.5 Q438.5 -130.0 441.5 -101.5 444.5 -72.5 455.0 -31.5" fill-rule="evenodd" stroke="none"/>
    </g>
    <g id="font_GosmickSans_l0">
      <path d="M146.5 -701.5 Q148.5 -698.5 148.0 -676.0 147.5 -653.5 145.5 -624.0 L141.5 -562.0 Q139.5 -529.5 139.5 -505.0 L139.5 -493.5 Q139.5 -441.5 138.5 -391.5 137.5 -341.0 137.5 -290.0 L137.5 -158.0 Q137.5 -130.0 137.0 -105.5 136.5 -81.0 138.5 -57.5 139.5 -36.0 133.5 -27.0 127.0 -17.5 111.0 -12.5 93.5 6.0 84.0 6.0 63.5 6.0 54.0 -6.0 44.0 -17.5 40.0 -42.0 36.0 -66.5 36.0 -103.5 L36.0 -192.5 Q36.0 -299.0 39.0 -405.5 42.0 -512.0 44.0 -618.5 47.5 -647.5 48.0 -668.0 48.5 -688.5 53.0 -702.0 57.5 -716.0 68.5 -723.0 79.0 -730.0 102.5 -732.5 119.0 -734.5 131.0 -726.5 142.5 -719.0 146.5 -701.5" fill-rule="evenodd" stroke="none"/>
    </g>
    <g id="font_GosmickSans_r0">
      <path d="M365.5 -438.5 Q358.5 -389.0 344.5 -370.0 331.0 -351.0 318.0 -349.0 305.0 -347.0 296.5 -356.5 287.5 -365.5 292.0 -373.5 291.0 -387.0 285.5 -394.5 280.5 -402.5 273.5 -406.0 266.0 -409.5 258.5 -411.0 251.0 -412.5 246.0 -412.5 207.0 -410.5 185.0 -390.0 163.0 -369.5 151.5 -337.5 140.5 -305.0 137.0 -263.0 134.0 -221.0 134.0 -176.0 134.0 -143.0 135.0 -110.0 136.0 -76.5 138.0 -45.0 140.5 -24.5 129.5 -14.5 119.0 -5.0 97.5 1.5 89.0 6.5 85.5 9.0 82.0 11.5 77.0 11.5 65.5 10.5 57.5 5.0 49.0 -1.0 44.0 -13.5 39.0 -26.5 37.0 -47.0 35.0 -67.5 36.0 -99.0 37.0 -143.0 36.5 -204.0 36.0 -265.0 37.0 -323.5 38.0 -382.0 41.0 -426.5 44.0 -471.0 52.0 -481.5 73.5 -509.0 101.5 -509.0 122.0 -509.0 131.5 -494.0 141.5 -479.5 138.0 -452.5 L138.0 -446.5 Q140.5 -441.5 141.0 -437.0 141.5 -432.0 143.5 -428.0 179.0 -464.0 215.0 -487.5 251.0 -511.0 290.0 -511.0 324.5 -511.0 342.5 -490.0 360.5 -469.0 365.5 -438.5" fill-rule="evenodd" stroke="none"/>
    </g>
    <g id="font_GosmickSans_e0">
      <path d="M351.0 -378.0 Q349.0 -379.0 346.5 -385.5 344.0 -391.5 342.0 -392.5 329.5 -412.0 307.5 -422.5 285.5 -433.5 259.0 -433.5 229.5 -433.5 205.0 -418.5 180.0 -404.0 163.0 -380.5 145.5 -356.5 135.5 -327.0 126.0 -297.5 126.0 -266.5 136.0 -264.5 148.0 -264.0 159.5 -263.5 174.0 -265.5 210.0 -268.5 243.0 -275.5 276.5 -282.0 306.0 -291.0 331.0 -312.5 343.5 -333.5 356.5 -354.5 351.0 -378.0 M495.5 -132.0 Q500.5 -106.5 482.5 -81.0 464.0 -55.5 430.5 -34.0 397.5 -13.0 355.0 0.0 312.5 13.5 270.5 13.5 216.0 13.5 173.0 -4.0 130.0 -21.5 99.5 -53.5 68.5 -86.0 52.0 -131.5 36.0 -177.0 36.0 -232.5 36.0 -289.0 54.0 -338.5 71.5 -388.0 103.0 -425.5 134.0 -463.0 178.0 -484.5 222.0 -506.0 275.5 -506.0 312.5 -506.0 343.5 -494.5 375.0 -483.5 398.0 -464.0 421.0 -444.5 433.5 -418.0 446.5 -391.5 446.5 -359.5 446.5 -306.0 412.0 -273.0 378.0 -239.5 319.5 -222.0 280.5 -210.0 256.0 -205.0 231.5 -199.5 212.5 -198.0 L177.5 -196.0 141.5 -193.5 Q130.0 -178.0 149.5 -140.5 167.0 -104.5 201.5 -84.5 236.5 -64.5 279.5 -64.5 L282.5 -64.5 Q311.5 -64.5 335.0 -70.5 358.5 -77.0 377.0 -87.5 395.5 -98.5 410.5 -112.0 426.0 -126.0 440.5 -141.5 454.5 -155.5 467.0 -156.5 477.0 -156.5 486.0 -149.5 494.5 -142.5 495.5 -132.0" fill-rule="evenodd" stroke="none"/>
    </g>
    <g id="font_GosmickSans_d0">
      <path d="M397.5 -258.0 Q397.5 -335.0 366.0 -382.5 334.0 -430.0 268.5 -430.0 198.0 -430.0 160.0 -378.5 122.0 -326.5 122.0 -236.5 122.0 -202.5 132.0 -173.0 142.5 -143.5 160.5 -121.5 178.5 -99.0 202.0 -87.0 225.5 -74.5 253.0 -74.5 324.0 -74.5 360.5 -125.0 397.5 -175.0 397.5 -258.0 M509.0 -37.0 Q510.0 -34.0 505.0 -26.5 499.5 -19.5 491.5 -13.0 483.5 -6.5 472.5 -0.5 462.0 5.0 451.5 5.0 L443.0 3.5 Q435.0 2.0 425.5 -3.5 416.0 -9.5 405.5 -20.5 395.5 -32.0 389.0 -51.5 365.5 -28.0 332.5 -10.5 299.0 7.0 262.0 10.0 214.0 14.0 173.0 -1.5 132.0 -17.5 101.5 -50.0 71.0 -82.0 53.5 -128.0 36.0 -174.0 36.0 -230.5 36.0 -287.0 53.5 -337.0 71.0 -387.0 102.5 -425.0 134.5 -463.0 178.5 -485.0 222.5 -507.0 274.5 -507.0 313.5 -507.0 343.0 -493.5 373.0 -480.5 402.5 -461.0 L404.0 -586.0 Q404.5 -643.0 406.5 -692.5 406.5 -700.5 410.5 -707.0 414.5 -714.0 422.0 -716.0 426.0 -725.0 439.5 -725.5 452.5 -726.0 462.0 -728.0 488.5 -730.0 497.0 -709.5 506.0 -689.5 504.0 -651.5 498.5 -555.0 495.0 -447.0 491.5 -339.0 491.5 -236.5 491.5 -192.5 493.5 -158.0 495.5 -123.0 499.5 -98.5 L502.0 -85.0 Q504.0 -77.0 505.5 -67.5 507.0 -58.5 508.0 -50.0 509.0 -41.0 509.0 -37.0" fill-rule="evenodd" stroke="none"/>
    </g>
    <g id="font_GosmickSans_y0">
      <path d="M489.5 -458.5 Q475.0 -441.0 466.5 -417.0 457.5 -393.0 449.5 -372.5 423.0 -304.0 400.0 -246.0 L355.0 -133.0 Q333.0 -77.5 310.5 -20.0 287.5 37.0 262.0 105.5 242.5 155.0 238.5 184.0 234.5 213.0 232.5 229.5 230.5 246.0 224.5 253.5 218.0 261.5 193.5 267.5 181.5 270.5 166.0 263.5 150.5 256.0 148.5 242.0 142.5 228.5 142.0 211.5 141.5 195.0 144.0 178.0 146.5 161.0 151.0 144.0 155.5 127.0 162.0 112.0 163.0 96.5 170.0 80.0 177.0 63.5 186.0 47.0 194.5 30.0 201.5 13.5 209.0 -3.0 211.0 -18.0 199.5 -45.0 187.0 -70.0 174.0 -95.0 163.0 -120.5 139.5 -169.5 116.5 -218.5 94.0 -267.0 73.5 -316.0 68.5 -328.5 60.0 -346.0 51.0 -363.5 43.0 -381.5 35.0 -400.0 28.0 -417.0 21.5 -434.0 19.5 -446.0 17.5 -456.5 23.0 -466.0 28.5 -476.0 37.5 -483.5 46.0 -491.5 56.5 -496.0 66.5 -500.5 76.0 -500.5 89.0 -500.5 104.5 -477.0 120.0 -453.5 135.5 -417.0 151.5 -380.5 168.0 -336.5 184.5 -292.5 200.0 -252.0 216.0 -211.5 231.0 -180.0 246.0 -148.0 259.0 -136.0 270.5 -161.5 282.0 -190.0 294.0 -219.0 305.5 -248.5 317.5 -278.5 327.5 -307.0 338.0 -335.5 347.0 -362.5 353.5 -380.5 361.0 -405.0 368.5 -429.0 380.0 -451.0 391.0 -473.0 407.5 -488.0 424.0 -503.0 448.5 -503.0 455.5 -503.0 463.0 -498.5 470.0 -494.5 476.0 -487.5 482.5 -481.0 486.5 -473.5 490.5 -465.5 489.5 -458.5" fill-rule="evenodd" stroke="none"/>
    </g>
    <g id="font_GosmickSans_h0">
      <path d="M488.5 -49.5 Q490.5 -26.0 478.0 -17.0 465.0 -8.5 449.5 -7.5 431.5 8.0 423.0 8.0 403.5 6.0 394.0 -19.5 384.0 -45.0 380.5 -80.5 377.0 -116.0 377.5 -156.0 378.0 -195.5 378.0 -227.5 L378.0 -307.5 Q378.0 -372.0 357.0 -397.0 336.0 -422.0 295.0 -422.0 268.5 -422.0 237.5 -407.0 207.0 -392.5 185.5 -356.5 165.0 -330.0 158.0 -296.5 150.5 -263.5 142.5 -224.5 L139.0 -122.5 Q138.0 -79.0 133.0 -51.0 128.0 -22.5 116.5 -9.0 105.5 5.0 83.0 5.0 57.5 5.0 46.5 -16.0 36.0 -37.0 36.0 -87.0 36.0 -102.5 37.0 -121.0 38.0 -139.5 38.0 -161.0 L38.0 -221.5 Q38.0 -261.0 38.5 -308.0 39.0 -354.5 40.0 -403.5 41.0 -452.5 42.5 -502.5 44.0 -552.0 45.0 -598.0 46.0 -614.5 45.0 -629.5 44.0 -645.0 44.0 -660.5 44.0 -691.0 57.0 -698.5 69.5 -705.5 84.0 -705.5 89.0 -716.0 98.5 -718.5 107.5 -721.0 118.0 -721.0 135.5 -723.0 141.0 -711.5 146.5 -700.5 147.5 -685.0 145.5 -664.5 144.5 -638.5 L142.5 -586.0 140.5 -510.0 Q139.5 -472.5 139.5 -434.5 L139.5 -430.5 141.5 -416.5 143.5 -403.5 Q148.5 -407.5 153.5 -413.0 158.0 -418.0 163.0 -423.0 196.0 -458.0 233.0 -481.0 270.5 -504.0 311.5 -504.0 388.5 -504.0 433.0 -460.5 477.5 -417.0 477.5 -319.5 L477.5 -297.0 Q477.5 -253.0 478.5 -211.0 L480.5 -125.0 Q480.5 -106.5 484.0 -86.0 487.5 -65.5 488.5 -49.5" fill-rule="evenodd" stroke="none"/>
    </g>
    <g id="font_GosmickSans_v0">
      <path d="M459.0 -476.0 Q457.0 -471.5 455.5 -467.0 453.5 -463.0 452.5 -460.0 451.5 -457.0 449.5 -453.5 426.0 -395.5 394.0 -322.5 L328.5 -172.0 299.5 -103.0 Q285.5 -69.5 272.0 -44.5 258.0 -19.5 243.0 -5.5 228.5 8.0 212.0 5.0 199.5 3.0 192.5 -1.0 185.5 -5.0 179.0 -13.0 173.0 -20.5 168.0 -33.0 L155.5 -62.5 Q132.0 -122.0 107.0 -191.5 82.0 -261.0 58.5 -339.0 46.0 -379.0 37.5 -402.5 28.5 -426.0 24.0 -439.0 19.5 -451.5 18.5 -458.5 17.5 -465.0 21.5 -471.0 21.5 -485.5 35.5 -493.5 49.0 -502.0 61.5 -504.0 78.0 -506.0 91.5 -500.0 105.5 -493.5 111.5 -477.5 L114.0 -465.0 Q116.5 -452.5 129.0 -414.0 149.5 -349.5 172.0 -287.0 194.5 -224.5 215.0 -160.0 L216.0 -157.0 Q220.0 -145.5 225.5 -138.5 232.5 -151.5 244.0 -175.0 256.0 -198.5 269.5 -230.0 282.5 -261.0 297.0 -298.0 311.5 -335.0 323.5 -374.0 329.0 -390.5 335.0 -407.5 342.0 -428.0 347.5 -446.5 353.5 -465.0 362.5 -479.0 371.5 -492.5 385.5 -500.5 399.5 -508.0 422.0 -508.0 437.5 -508.0 448.0 -499.5 459.0 -490.5 459.0 -476.0" fill-rule="evenodd" stroke="none"/>
    </g>
    <g id="font_GosmickSans_B0">
      <path d="M493.5 -171.0 Q494.5 -213.0 476.5 -243.0 459.0 -273.5 430.5 -293.0 402.5 -312.5 367.0 -321.5 332.0 -330.5 298.0 -330.5 271.5 -330.5 243.5 -326.5 216.0 -322.5 189.5 -322.5 181.5 -305.0 179.0 -284.5 177.0 -264.0 177.0 -231.5 177.0 -193.5 179.0 -156.5 181.5 -120.0 184.5 -93.0 206.0 -82.0 240.0 -77.0 274.5 -71.5 319.5 -73.5 383.0 -77.0 430.5 -101.0 478.0 -125.0 493.5 -171.0 M409.5 -555.0 Q409.5 -575.5 399.5 -592.5 390.0 -609.5 373.5 -621.5 357.0 -634.0 335.5 -640.5 314.0 -647.0 290.5 -647.0 217.0 -647.0 187.0 -620.5 187.0 -591.0 183.0 -547.0 179.0 -503.0 179.0 -460.0 179.0 -447.5 179.5 -436.5 180.0 -426.0 181.0 -418.0 189.0 -413.5 199.5 -411.0 209.5 -408.5 219.0 -408.5 238.5 -406.5 260.0 -410.0 281.5 -413.5 301.5 -420.5 321.5 -427.0 338.5 -436.5 356.0 -446.5 368.5 -457.5 381.5 -469.0 389.5 -483.5 397.0 -497.5 401.5 -512.0 406.5 -526.5 408.0 -538.0 409.5 -550.0 409.5 -555.0 M600.0 -200.5 Q598.0 -153.5 572.5 -115.5 547.5 -77.5 508.0 -50.5 469.0 -23.5 418.0 -8.0 367.5 7.5 315.0 10.5 267.0 12.5 222.0 6.5 177.0 0.0 139.0 -9.0 111.5 -16.0 97.5 -39.0 83.5 -62.0 78.0 -96.5 72.5 -131.0 73.0 -174.5 73.5 -218.0 73.5 -266.0 73.5 -330.5 75.5 -400.0 77.5 -470.0 80.5 -523.0 L82.5 -552.0 Q83.5 -567.0 85.0 -581.5 90.0 -592.5 85.0 -598.5 79.5 -604.0 70.5 -608.5 61.0 -613.0 51.0 -620.0 40.5 -626.5 35.5 -640.0 33.5 -655.0 49.0 -668.0 64.5 -680.5 90.0 -690.5 115.5 -700.0 147.5 -707.0 180.0 -713.5 211.0 -718.0 242.5 -722.5 269.0 -724.5 295.5 -726.0 310.0 -725.0 355.0 -721.5 393.5 -707.0 432.0 -692.0 459.0 -667.5 486.0 -643.0 499.5 -610.5 513.0 -578.5 507.5 -542.5 504.5 -520.0 494.5 -499.0 484.0 -478.0 469.5 -459.0 454.5 -440.0 436.5 -424.0 418.5 -408.5 400.0 -397.0 406.5 -393.0 413.5 -390.5 420.5 -388.0 439.0 -383.0 480.0 -372.5 514.5 -351.5 548.5 -330.5 569.0 -302.0 579.5 -287.5 586.0 -270.0 592.5 -252.5 596.5 -237.5 600.0 -222.0 600.5 -211.0 601.0 -200.5 600.0 -200.5" fill-rule="evenodd" stroke="none"/>
    </g>
    <g id="font_GosmickSans_i0">
      <path d="M147.5 -448.5 Q145.5 -384.0 142.0 -322.5 138.0 -261.0 138.0 -202.0 138.0 -159.0 139.5 -120.5 140.5 -82.0 142.5 -53.5 143.5 -42.0 137.0 -32.0 131.0 -21.5 122.0 -13.5 112.5 -5.0 102.5 -0.5 92.0 4.0 85.0 4.0 52.0 4.0 44.0 -33.0 36.0 -69.5 36.0 -144.5 36.0 -163.0 35.5 -181.0 35.0 -199.0 37.0 -216.0 42.0 -268.5 41.5 -332.0 41.0 -395.5 47.0 -455.0 48.0 -470.0 56.5 -480.5 64.5 -490.5 74.0 -496.5 84.0 -502.0 93.0 -504.0 102.5 -506.0 107.5 -506.0 150.5 -506.0 147.5 -448.5 M156.5 -661.5 Q154.5 -650.0 148.0 -638.0 141.5 -625.5 131.0 -616.5 121.0 -607.0 107.5 -602.0 94.0 -597.0 79.0 -600.0 58.5 -602.0 50.5 -621.5 43.0 -641.0 45.0 -665.5 47.0 -692.0 65.0 -711.5 83.0 -731.0 110.5 -731.0 124.0 -731.0 133.5 -724.5 143.5 -717.5 149.0 -707.5 154.5 -697.0 156.0 -685.0 157.5 -672.5 156.5 -661.5" fill-rule="evenodd" stroke="none"/>
    </g>
    <g id="font_GosmickSans_n0">
      <path d="M482.0 -48.5 Q484.0 -28.0 478.0 -10.5 472.0 7.0 454.5 8.0 450.5 12.0 445.0 12.5 439.0 13.0 433.5 12.5 L423.5 11.0 416.5 10.0 Q402.0 8.0 393.5 -9.0 385.0 -26.0 380.0 -50.5 375.5 -75.0 374.0 -104.5 372.5 -134.5 372.5 -162.0 L372.5 -217.5 Q372.5 -244.0 374.0 -273.0 375.5 -302.5 375.5 -319.5 375.5 -378.0 352.0 -403.0 328.5 -428.0 293.0 -427.0 250.0 -427.0 220.0 -401.0 190.5 -375.0 172.0 -332.5 154.0 -290.0 145.5 -237.0 137.5 -183.5 137.5 -128.0 L137.5 -103.5 Q137.5 -91.5 139.5 -80.0 141.5 -58.5 137.0 -42.0 132.5 -26.0 123.5 -14.5 115.0 -3.5 104.0 3.0 93.5 9.0 83.0 9.0 51.5 9.0 43.5 -26.5 36.0 -61.5 36.0 -124.0 L36.0 -184.5 Q36.0 -220.5 37.0 -258.0 38.0 -295.0 40.0 -333.0 42.0 -371.0 46.0 -402.5 L46.0 -424.0 Q46.0 -435.5 44.5 -447.5 43.0 -460.0 45.0 -470.5 46.0 -481.5 57.0 -488.5 67.5 -496.0 80.5 -499.5 93.5 -503.0 105.5 -503.5 118.0 -504.0 123.0 -502.0 134.0 -502.0 139.0 -491.0 143.5 -480.5 144.5 -466.0 143.5 -462.0 143.5 -458.0 143.5 -455.0 142.5 -451.0 L144.0 -442.0 Q144.5 -438.5 146.0 -435.5 147.5 -432.5 152.0 -430.5 157.0 -428.5 167.0 -427.0 174.5 -435.0 182.5 -442.5 214.0 -474.5 255.0 -493.0 296.0 -511.0 330.5 -509.0 396.0 -505.0 435.0 -453.5 474.0 -401.5 474.0 -314.5 L474.0 -251.0 474.0 -176.5 Q474.0 -140.5 477.0 -107.0 480.0 -74.0 482.0 -48.5" fill-rule="evenodd" stroke="none"/>
    </g>
    <g id="font_GosmickSans_W0">
      <path d="M924.5 -687.0 Q926.5 -681.0 922.5 -665.0 918.5 -649.5 913.0 -630.5 907.5 -611.5 901.0 -593.5 895.0 -575.5 892.0 -564.5 871.5 -477.0 848.0 -392.0 824.5 -307.0 803.0 -220.0 792.5 -179.0 782.5 -137.5 772.0 -96.0 758.5 -63.0 744.5 -29.5 724.5 -8.5 704.5 12.5 676.0 12.5 655.5 12.5 641.0 1.5 626.5 -9.5 614.5 -33.0 602.0 -56.5 590.5 -94.0 578.5 -131.5 562.0 -185.5 539.5 -261.5 515.5 -352.0 491.5 -442.5 461.0 -527.5 455.5 -515.5 451.0 -502.5 446.5 -489.5 442.0 -473.0 L431.5 -433.0 Q426.0 -410.0 419.0 -377.0 398.5 -287.0 372.5 -204.5 347.0 -122.0 329.5 -63.5 332.0 -59.5 332.0 -58.5 322.5 -28.0 300.5 -10.0 278.5 8.0 252.0 8.0 207.0 8.0 188.5 -43.0 168.0 -96.5 150.0 -160.0 132.0 -223.5 114.5 -291.5 L80.0 -430.5 Q62.5 -501.5 44.0 -571.5 38.0 -593.0 33.0 -616.0 27.5 -639.0 17.5 -658.5 18.5 -660.5 19.0 -664.0 19.5 -667.5 20.5 -670.5 L25.5 -675.5 Q30.5 -683.0 43.5 -695.5 56.5 -708.5 68.5 -710.5 80.0 -712.5 95.0 -705.5 110.5 -698.5 121.0 -681.0 130.0 -662.5 140.5 -625.5 150.5 -588.5 161.5 -543.0 172.0 -497.5 182.5 -448.0 192.5 -398.5 204.0 -353.5 210.0 -326.5 219.0 -292.0 228.5 -257.0 237.5 -226.0 L254.0 -172.0 Q261.0 -149.5 263.0 -146.5 274.5 -166.0 289.0 -212.5 303.0 -259.0 317.5 -317.0 332.0 -375.0 345.0 -438.0 358.5 -500.5 367.5 -555.0 381.0 -586.5 395.5 -614.5 409.5 -642.0 423.5 -663.0 437.5 -684.0 451.5 -696.0 466.0 -708.5 479.0 -708.5 491.5 -708.5 502.5 -696.0 513.0 -684.0 522.0 -664.5 531.5 -645.0 539.0 -620.0 547.0 -595.0 553.0 -570.5 L566.0 -519.5 Q574.5 -484.0 586.0 -439.0 598.0 -394.0 611.5 -345.0 624.5 -296.0 637.5 -252.0 650.0 -208.0 662.0 -174.0 674.0 -140.0 683.0 -128.0 L689.5 -146.0 Q693.5 -155.5 697.0 -169.0 L705.5 -200.0 Q710.5 -218.0 717.0 -243.5 736.5 -324.5 751.0 -388.5 L778.0 -503.5 801.0 -597.5 Q811.0 -640.0 822.5 -679.0 839.5 -696.0 858.5 -708.0 877.5 -720.0 892.0 -720.0 905.0 -720.0 914.0 -711.0 922.5 -701.5 924.5 -687.0" fill-rule="evenodd" stroke="none"/>
    </g>
    <g id="font_GosmickSans_s0">
      <path d="M432.0 -137.0 Q429.0 -101.5 409.5 -73.0 390.0 -45.0 360.5 -25.5 331.0 -6.0 294.0 4.0 257.0 14.5 218.0 14.5 154.5 14.5 105.5 -5.0 56.5 -24.5 39.0 -58.5 33.0 -70.5 37.0 -83.0 41.0 -95.0 49.5 -105.0 58.5 -114.5 68.5 -120.5 79.0 -126.0 86.0 -125.0 88.0 -124.0 89.5 -122.5 L94.0 -118.5 94.0 -117.5 Q108.5 -101.5 143.0 -84.0 177.0 -66.5 226.5 -66.5 271.5 -66.5 304.5 -83.0 338.0 -99.5 339.0 -128.0 341.0 -155.5 319.5 -175.5 298.0 -195.5 250.0 -207.0 L225.5 -213.0 Q174.0 -226.0 140.0 -239.5 105.5 -253.0 85.5 -270.0 65.5 -286.5 58.5 -307.5 51.0 -328.5 54.5 -358.5 58.5 -394.0 80.0 -422.5 101.5 -450.5 134.5 -471.0 168.0 -491.5 208.5 -503.0 249.0 -515.0 291.0 -517.0 308.0 -518.0 325.5 -517.5 343.0 -517.0 358.5 -512.0 374.0 -507.0 386.5 -497.0 399.5 -487.5 407.5 -470.0 411.5 -455.5 412.5 -446.0 413.5 -436.0 412.5 -430.0 411.5 -424.0 410.0 -420.0 408.5 -415.5 409.5 -414.5 404.5 -398.5 400.5 -390.0 396.5 -382.0 382.0 -380.0 365.5 -378.0 357.0 -381.5 348.0 -385.0 343.0 -391.0 338.0 -397.0 335.5 -405.5 333.0 -413.5 329.5 -422.0 313.5 -435.0 289.0 -434.5 L240.5 -432.0 Q195.5 -427.0 166.5 -405.0 137.0 -383.0 142.5 -354.0 147.5 -343.0 161.0 -333.0 174.0 -323.5 198.5 -316.5 264.0 -298.0 310.5 -280.0 356.5 -262.0 384.5 -242.0 412.5 -222.0 424.0 -196.5 435.0 -171.0 432.0 -137.0" fill-rule="evenodd" stroke="none"/>
    </g>
    <g id="font_GosmickSans_p0">
      <path d="M390.0 -258.5 Q389.0 -293.0 379.5 -325.0 370.5 -356.5 354.0 -379.5 337.5 -402.5 314.5 -416.0 291.5 -429.5 263.0 -428.5 232.5 -427.5 208.0 -413.0 184.0 -398.5 168.5 -374.0 152.5 -349.5 144.0 -315.5 136.0 -282.0 136.0 -242.0 136.0 -211.0 140.0 -182.5 144.0 -154.0 152.5 -130.5 175.0 -107.0 199.0 -90.5 223.0 -74.0 259.0 -74.0 292.5 -74.0 318.0 -88.5 343.0 -102.5 359.0 -127.0 375.5 -152.0 383.5 -185.5 391.0 -219.5 390.0 -258.5 M484.5 -263.0 Q484.5 -203.0 465.5 -153.0 447.0 -103.5 415.0 -67.5 383.5 -32.0 342.5 -12.5 301.5 7.0 257.5 7.0 241.0 7.0 228.0 4.5 215.5 2.0 202.5 -3.0 190.0 -8.5 175.0 -15.5 160.0 -22.5 139.5 -33.0 137.5 -29.0 136.5 -22.5 135.5 -16.5 135.5 -1.0 L135.5 67.5 Q135.5 106.5 136.5 132.0 L138.5 182.5 Q141.5 198.5 136.0 211.5 130.5 224.5 121.0 232.5 112.0 241.0 101.5 245.5 91.5 250.0 84.0 250.0 63.5 250.0 53.5 236.0 43.0 222.5 39.0 198.5 35.0 174.0 35.5 142.0 36.0 109.5 36.0 73.0 L36.0 12.5 Q36.0 -42.0 36.5 -99.0 37.0 -156.5 39.0 -199.5 41.0 -265.0 40.5 -325.5 40.0 -386.0 41.0 -448.5 41.0 -481.0 60.0 -497.5 79.0 -514.0 103.5 -514.0 119.0 -514.0 125.5 -508.0 132.5 -501.5 135.5 -491.5 138.5 -481.0 139.5 -469.0 140.5 -456.5 143.5 -444.5 167.0 -468.0 202.0 -486.0 237.0 -504.0 275.0 -507.0 321.0 -511.0 360.0 -492.5 398.5 -474.0 426.5 -440.5 454.0 -406.5 469.5 -360.5 484.5 -314.5 484.5 -263.0" fill-rule="evenodd" stroke="none"/>
    </g>
    <g id="font_GosmickSans_t0">
      <path d="M365.0 -470.0 Q363.0 -462.0 355.0 -451.0 347.5 -439.5 339.0 -431.5 336.0 -430.5 321.5 -428.0 L288.5 -424.5 255.0 -422.0 Q239.0 -421.0 234.0 -422.0 222.5 -410.0 222.5 -366.0 L222.5 -236.5 Q222.5 -207.0 220.0 -175.0 217.5 -142.5 220.5 -121.0 219.5 -99.5 227.5 -86.5 236.0 -74.0 248.0 -70.5 260.5 -67.0 274.5 -72.0 289.0 -77.0 300.5 -90.5 308.5 -93.5 318.0 -95.0 328.0 -96.5 336.0 -92.5 344.5 -88.5 349.0 -79.0 353.5 -70.0 352.5 -51.5 344.5 -31.0 336.0 -19.0 328.0 -7.5 314.0 -1.0 300.5 5.0 279.0 6.5 L222.5 9.0 Q201.0 9.0 189.0 2.5 177.5 -4.5 161.0 -17.5 161.0 -18.5 157.5 -23.0 154.0 -28.0 149.0 -33.0 144.5 -38.0 141.0 -43.0 137.5 -48.5 137.5 -50.5 123.0 -84.0 123.5 -119.0 124.0 -153.5 124.0 -194.5 124.0 -243.5 126.0 -293.0 L130.0 -391.0 Q130.0 -396.0 129.5 -402.0 129.0 -407.5 129.0 -412.5 126.0 -415.5 115.5 -416.5 L91.0 -417.5 Q78.0 -417.5 64.0 -418.0 L40.0 -419.5 Q30.0 -420.5 24.5 -425.5 19.5 -430.0 17.5 -436.5 15.5 -443.0 16.0 -449.5 16.5 -455.5 18.5 -459.5 21.5 -480.0 36.0 -490.0 50.5 -499.5 65.5 -498.5 L85.0 -497.5 106.5 -496.5 121.5 -497.0 Q127.0 -497.5 132.0 -501.0 132.0 -526.5 134.0 -561.0 135.5 -595.0 137.5 -618.5 139.5 -648.5 157.0 -657.5 174.5 -667.0 191.5 -668.0 213.5 -669.0 226.5 -656.0 240.0 -643.5 240.0 -612.5 240.0 -592.0 237.5 -571.5 235.0 -551.0 235.0 -530.5 234.0 -517.5 235.0 -509.5 236.0 -502.0 257.5 -502.0 L260.5 -502.0 Q271.5 -502.0 280.5 -502.5 L297.5 -504.0 316.5 -504.0 Q347.5 -504.0 357.0 -496.0 367.0 -487.5 365.0 -470.0" fill-rule="evenodd" stroke="none"/>
    </g>
    <g id="font_GosmickSans_w0">
      <path d="M729.0 -471.0 Q724.0 -458.0 721.0 -447.0 718.0 -436.5 712.5 -422.0 679.0 -324.5 654.5 -244.5 630.0 -165.0 607.5 -107.5 585.5 -50.0 563.5 -18.5 541.5 13.5 513.0 13.5 500.5 13.5 488.5 3.0 476.0 -8.0 463.5 -34.0 450.5 -60.0 435.5 -103.0 421.0 -146.0 402.5 -210.5 L393.5 -245.5 Q389.0 -265.0 383.5 -283.5 378.0 -302.0 372.0 -318.0 366.5 -334.5 359.5 -344.0 357.5 -344.0 356.0 -341.0 L350.0 -327.5 Q334.0 -278.5 315.5 -219.0 297.0 -159.5 276.5 -108.5 256.0 -57.0 233.0 -23.0 210.0 11.5 184.5 11.5 168.0 11.5 153.0 -8.5 138.0 -28.5 125.0 -61.0 111.5 -94.0 99.0 -137.0 86.0 -180.0 75.0 -226.0 L52.0 -317.0 Q41.0 -362.5 29.5 -401.0 L23.5 -422.5 Q21.5 -431.0 20.5 -438.5 19.5 -446.0 17.5 -453.5 16.5 -464.5 22.0 -474.0 27.5 -483.0 38.0 -490.0 48.0 -496.5 60.0 -499.0 71.5 -501.5 83.0 -500.5 94.0 -498.5 105.0 -490.5 115.5 -482.0 115.5 -468.0 121.0 -450.5 127.0 -421.5 133.0 -393.0 140.5 -359.0 L155.0 -290.0 170.0 -223.5 Q177.0 -192.5 184.5 -167.5 191.5 -143.0 198.5 -132.0 212.0 -156.5 222.0 -186.0 232.5 -216.0 241.5 -247.5 251.0 -279.5 260.0 -312.0 269.5 -345.0 280.5 -374.5 290.0 -399.0 299.5 -422.0 309.5 -445.0 321.0 -462.0 333.0 -479.0 346.5 -489.5 360.5 -499.5 379.0 -499.5 387.0 -499.5 397.0 -494.5 406.5 -489.5 412.5 -475.0 418.0 -464.5 426.0 -437.0 L444.5 -373.5 465.5 -298.0 Q476.0 -258.0 487.0 -223.0 497.5 -188.0 507.5 -161.5 517.0 -135.0 525.5 -125.5 542.5 -168.5 568.0 -249.0 593.0 -329.5 621.5 -434.0 625.5 -446.0 632.0 -459.5 638.0 -473.0 647.0 -483.5 656.5 -494.5 668.5 -501.0 681.0 -508.0 696.5 -508.0 711.5 -508.0 723.0 -498.5 734.0 -488.5 729.0 -471.0" fill-rule="evenodd" stroke="none"/>
    </g>
    <g id="font_GosmickSans_.0">
      <path d="M170.0 -50.0 Q170.0 -21.5 151.0 -3.5 132.0 14.5 106.5 14.5 77.0 14.5 58.5 -7.0 40.0 -28.5 36.0 -57.0 35.0 -83.5 52.0 -102.5 69.5 -121.5 96.5 -121.5 125.0 -121.5 147.5 -100.5 170.0 -79.5 170.0 -50.0" fill-rule="evenodd" stroke="none"/>
    </g>
    <g id="font_GosmickSans_P0">
      <path d="M448.5 -502.0 Q453.5 -568.5 408.5 -607.5 363.5 -647.0 287.5 -647.0 254.0 -647.0 228.5 -644.0 203.0 -641.0 188.5 -634.0 186.5 -609.5 184.0 -570.5 L179.0 -490.5 Q177.0 -449.5 175.5 -412.5 174.0 -376.0 175.0 -355.5 185.5 -348.0 205.0 -348.0 253.0 -343.0 296.0 -353.0 339.0 -362.5 371.5 -383.0 404.5 -403.5 425.0 -433.5 445.5 -464.0 448.5 -502.0 M550.0 -517.0 Q550.0 -468.0 528.0 -424.5 506.0 -381.0 467.0 -347.0 428.0 -313.5 373.0 -292.5 318.5 -271.5 254.0 -268.5 L201.5 -265.5 Q184.5 -265.0 177.5 -261.5 171.0 -258.0 171.0 -249.0 171.0 -239.5 172.0 -220.0 173.0 -196.5 173.0 -177.0 173.0 -157.5 174.0 -139.5 L176.0 -102.0 Q177.0 -83.0 179.0 -61.5 181.5 -38.0 175.0 -27.5 169.0 -17.5 148.5 -9.0 116.5 3.0 101.0 -8.5 85.0 -20.5 78.5 -51.5 71.5 -83.0 71.0 -131.5 70.5 -180.0 70.5 -242.5 70.5 -277.5 71.5 -321.0 72.5 -364.5 74.0 -409.5 76.0 -454.5 78.5 -497.0 L83.0 -572.5 Q84.0 -589.0 82.0 -595.0 80.0 -601.0 76.0 -606.0 72.5 -609.5 66.5 -611.5 L54.5 -615.0 Q48.0 -616.5 43.0 -619.0 38.0 -621.5 37.0 -627.5 31.5 -654.5 52.5 -671.5 73.5 -689.0 108.5 -699.5 143.5 -709.5 186.0 -715.0 228.5 -720.0 267.5 -722.0 332.0 -725.0 384.0 -711.5 436.0 -698.5 473.0 -671.0 510.0 -644.0 530.0 -604.5 550.0 -565.0 550.0 -517.0" fill-rule="evenodd" stroke="none"/>
    </g>
    <g id="font_GosmickSans_c0">
      <path d="M442.5 -114.5 Q448.5 -93.0 436.0 -71.0 424.0 -49.0 400.5 -30.5 377.0 -12.5 346.0 0.0 315.5 12.5 283.5 15.5 231.5 19.5 187.5 3.0 143.5 -13.5 110.5 -45.5 78.0 -78.0 58.5 -123.0 39.0 -168.0 36.0 -221.0 33.0 -275.5 48.0 -325.5 63.5 -376.0 92.5 -415.0 122.0 -454.5 162.5 -479.5 203.0 -505.0 250.0 -509.0 283.5 -512.0 315.0 -504.5 346.0 -496.5 369.5 -483.0 393.0 -469.0 406.5 -450.0 420.0 -431.0 418.0 -411.5 418.0 -401.5 411.5 -392.5 405.5 -384.0 398.0 -377.5 390.0 -370.5 382.5 -366.5 375.0 -362.5 371.5 -362.5 363.5 -362.5 354.5 -366.5 345.0 -370.5 345.0 -379.0 325.5 -404.5 305.0 -420.0 284.5 -435.0 255.0 -435.0 227.5 -435.0 204.0 -418.5 180.0 -401.5 163.0 -374.5 145.5 -347.0 135.5 -313.5 126.0 -279.5 126.0 -244.5 126.0 -202.5 137.0 -169.0 148.5 -135.0 169.0 -112.0 189.5 -89.0 219.0 -77.5 249.0 -65.5 285.5 -68.5 312.5 -70.5 340.5 -88.0 368.5 -105.5 392.0 -126.0 407.5 -138.0 414.5 -138.0 426.0 -138.0 433.0 -131.0 440.5 -124.0 442.5 -114.5" fill-rule="evenodd" stroke="none"/>
    </g>
    <g id="font_GosmickSans_b0">
      <path d="M414.5 -237.5 Q414.5 -249.5 414.0 -264.0 413.5 -278.5 412.0 -291.0 410.5 -304.0 408.0 -313.5 405.5 -323.5 401.5 -327.5 397.5 -353.0 385.5 -371.0 374.0 -389.0 357.5 -400.0 341.0 -411.5 321.0 -417.0 301.0 -422.5 280.5 -422.5 240.5 -422.5 211.0 -402.5 181.5 -383.0 154.5 -350.0 139.5 -305.0 139.5 -248.5 L139.5 -242.5 Q139.5 -179.0 154.5 -132.0 179.0 -109.5 204.5 -91.0 229.5 -72.5 266.0 -72.5 298.0 -72.5 324.5 -85.0 351.0 -97.0 370.5 -119.0 390.0 -141.0 401.5 -171.5 412.5 -201.5 414.5 -237.5 M504.0 -245.5 Q504.0 -192.5 485.5 -145.5 467.0 -98.0 434.5 -63.5 402.5 -28.5 358.5 -8.5 314.5 11.5 264.0 11.5 211.0 11.5 175.5 -1.5 140.5 -14.0 116.5 -53.0 112.5 -44.0 114.5 -35.0 116.5 -26.5 111.5 -16.0 114.5 -8.0 110.5 -0.5 106.5 7.5 100.0 12.0 93.0 16.5 85.5 17.0 78.0 17.5 72.5 10.5 68.5 11.5 62.5 11.5 56.5 11.5 50.0 8.0 44.0 4.5 40.0 -5.5 36.0 -15.0 38.0 -33.5 36.0 -54.0 36.5 -92.5 37.0 -131.0 39.0 -174.5 L43.0 -260.5 Q45.0 -303.0 45.0 -332.0 45.0 -384.0 45.5 -438.5 46.0 -492.5 47.0 -540.0 48.0 -587.0 50.0 -620.5 52.0 -654.5 54.5 -667.0 55.5 -690.5 67.0 -702.5 79.0 -715.0 94.0 -719.5 109.5 -724.0 123.0 -722.0 136.0 -720.0 140.5 -716.0 148.5 -716.0 150.5 -710.0 L149.5 -699.5 147.0 -674.5 144.0 -641.5 Q142.5 -624.0 142.5 -607.5 L142.5 -533.5 Q142.5 -485.5 145.5 -441.5 L161.5 -453.5 Q173.0 -463.0 190.5 -473.0 208.0 -483.5 230.5 -492.5 253.0 -502.0 277.5 -504.0 323.5 -508.0 364.5 -492.5 405.5 -477.5 436.0 -446.5 467.0 -416.0 485.5 -371.5 504.0 -327.5 504.0 -274.5 L504.0 -245.5" fill-rule="evenodd" stroke="none"/>
    </g>
    <g id="font_GosmickSans_g0">
      <path d="M381.0 -275.5 Q381.0 -301.0 379.0 -325.5 377.0 -350.0 369.0 -370.0 361.5 -390.0 346.5 -404.0 332.0 -418.0 306.0 -423.0 291.0 -431.0 272.5 -428.5 254.0 -426.0 236.5 -421.0 209.0 -412.5 187.5 -393.5 166.0 -375.0 152.0 -347.5 138.0 -320.5 132.0 -287.0 126.0 -254.0 128.0 -219.0 132.0 -152.5 167.0 -112.5 201.5 -72.5 260.0 -72.5 297.0 -72.5 320.5 -92.0 344.0 -111.5 357.5 -142.0 370.5 -172.0 376.0 -207.5 381.0 -242.5 381.0 -275.5 M482.5 -459.0 L474.0 -358.5 Q470.0 -310.5 466.5 -260.5 463.0 -211.0 460.5 -158.0 457.5 -104.5 457.5 -42.0 L457.5 35.0 Q457.5 68.5 454.5 96.5 451.5 124.0 443.5 147.5 435.0 171.0 420.0 195.5 408.5 213.0 389.5 224.0 370.5 234.5 348.5 241.5 326.5 249.0 303.0 251.5 279.5 254.0 260.0 254.0 229.5 254.0 194.5 242.5 159.5 231.5 129.5 211.5 99.5 191.5 78.0 163.5 56.5 135.0 52.0 100.5 46.0 83.0 54.5 71.0 62.5 59.5 76.5 55.5 90.0 51.0 106.0 54.5 122.0 57.5 132.0 68.5 137.0 86.0 148.5 103.5 159.5 121.0 175.0 135.0 190.5 149.5 210.0 158.5 229.5 168.0 252.0 168.0 L261.0 168.5 Q269.5 169.0 270.5 167.0 292.0 164.0 311.0 155.5 329.5 147.5 343.0 128.0 356.5 108.5 362.0 74.0 367.5 40.0 362.5 -15.5 346.0 -7.0 318.5 -1.0 291.0 5.0 255.0 7.0 211.0 10.0 172.0 -5.0 133.0 -20.5 103.5 -49.5 73.5 -79.0 56.0 -122.0 38.0 -165.0 36.0 -217.0 34.0 -272.5 50.5 -323.0 67.5 -374.0 99.0 -414.0 130.0 -454.0 174.5 -479.0 219.0 -504.0 272.5 -507.0 306.0 -509.0 334.5 -502.0 362.5 -495.0 388.0 -467.0 406.5 -487.5 419.5 -495.5 432.0 -503.0 443.5 -503.0 461.0 -503.0 473.5 -489.5 486.5 -476.5 482.5 -459.0" fill-rule="evenodd" stroke="none"/>
    </g>
  </defs>
</svg>
