<?xml version="1.0" encoding="UTF-8" standalone="no"?>
<svg xmlns:ffdec="https://www.free-decompiler.com/flash" xmlns:xlink="http://www.w3.org/1999/xlink" ffdec:objectType="frame" height="20.5px" width="24.25px" xmlns="http://www.w3.org/2000/svg">
  <g transform="matrix(1.0, 0.0, 0.0, 1.0, 1.95, 5.7)">
    <use ffdec:characterId="1915" height="15.35" transform="matrix(0.72, 0.0, 0.0, 0.72, -1.93, -0.58)" width="33.65" xlink:href="#sprite0"/>
  </g>
  <defs>
    <g id="sprite0" transform="matrix(1.0, 0.0, 0.0, 1.0, 1.5, 1.5)">
      <use ffdec:characterId="1914" height="15.35" transform="matrix(1.0, 0.0, 0.0, 1.0, -1.5, -1.5)" width="33.65" xlink:href="#shape0"/>
    </g>
    <g id="shape0" transform="matrix(1.0, 0.0, 0.0, 1.0, 1.5, 1.5)">
      <path d="M23.3 9.5 Q22.1 8.2 19.4 8.75 16.7 9.3 13.65 10.55 10.55 11.75 8.3 12.15 6.1 12.5 3.5 12.25 1.0 12.0 0.4 11.05 -0.25 10.05 0.1 8.55 0.35 7.05 0.95 6.1 L2.6 3.7 Q3.65 2.45 5.4 1.6 7.15 0.75 10.55 0.15 14.05 -0.4 17.25 1.2 20.4 2.75 23.15 3.55 L23.35 3.55 Q28.15 2.6 30.65 0.6 30.25 6.05 25.1 11.15 L23.35 9.55 23.3 9.5 M9.85 6.4 L0.95 6.1 9.85 6.4" fill="#f0ebd9" fill-rule="evenodd" stroke="none"/>
      <path d="M0.95 6.1 L9.85 6.4" fill="none" stroke="#333333" stroke-linecap="round" stroke-linejoin="round" stroke-width="2.0"/>
      <path d="M23.3 9.5 Q22.1 8.2 19.4 8.75 16.7 9.3 13.65 10.55 10.55 11.75 8.3 12.15 6.1 12.5 3.5 12.25 1.0 12.0 0.4 11.05 -0.25 10.05 0.1 8.55 0.35 7.05 0.95 6.1 L2.6 3.7 Q3.65 2.45 5.4 1.6 7.15 0.75 10.55 0.15 14.05 -0.4 17.25 1.2 20.4 2.75 23.15 3.55 L23.35 3.55 Q28.15 2.6 30.65 0.6 30.25 6.05 25.1 11.15 L23.35 9.55 23.3 9.5 Z" fill="none" stroke="#75644a" stroke-linecap="round" stroke-linejoin="round" stroke-width="3.0"/>
    </g>
  </defs>
</svg>
