<?xml version="1.0" encoding="UTF-8" standalone="no"?>
<svg xmlns:ffdec="https://www.free-decompiler.com/flash" xmlns:xlink="http://www.w3.org/1999/xlink" ffdec:objectType="frame" height="20.5px" width="24.25px" xmlns="http://www.w3.org/2000/svg">
  <g transform="matrix(1.0, 0.0, 0.0, 1.0, 1.95, 5.7)">
    <use ffdec:characterId="1925" height="24.25" transform="matrix(0.36, 0.0, 0.0, 0.42, 1.36, 1.52)" width="47.15" xlink:href="#sprite0"/>
  </g>
  <defs>
    <g id="sprite0" transform="matrix(1.0, 0.0, 0.0, 1.0, 1.5, 1.5)">
      <use ffdec:characterId="1924" height="24.25" transform="matrix(1.0, 0.0, 0.0, 1.0, -1.5, -1.5)" width="47.15" xlink:href="#shape0"/>
    </g>
    <g id="shape0" transform="matrix(1.0, 0.0, 0.0, 1.0, 1.5, 1.5)">
      <path d="M9.3 11.75 L35.0 11.75" ffdec:has-small-stroke="true" ffdec:original-stroke-width="2.0" fill="none" stroke="#b9a891" stroke-linecap="round" stroke-linejoin="round" stroke-width="2.5566004467533574"/>
      <path d="M4.35 5.6 L40.15 5.75" fill="none" stroke="#75644a" stroke-linecap="round" stroke-linejoin="round" stroke-width="6.0"/>
      <path d="M44.15 11.0 Q40.55 5.5 44.15 0.0 M0.0 11.0 Q3.6 5.5 0.0 0.0" fill="none" stroke="#666666" stroke-linecap="round" stroke-linejoin="round" stroke-width="3.0"/>
      <path d="M13.15 21.25 Q23.35 12.9 32.8 21.0" fill="none" stroke="#a79272" stroke-linecap="round" stroke-linejoin="round" stroke-width="3.0"/>
    </g>
  </defs>
</svg>
