<?xml version="1.0" encoding="UTF-8" standalone="no"?>
<svg xmlns:ffdec="https://www.free-decompiler.com/flash" xmlns:xlink="http://www.w3.org/1999/xlink" ffdec:objectType="frame" height="40.1px" width="172.0px" xmlns="http://www.w3.org/2000/svg">
  <g transform="matrix(1.0, 0.0, 0.0, 1.0, 0.0, 0.0)">
    <use ffdec:characterId="1602" height="40.1" transform="matrix(1.0, 0.0, 0.0, 1.0, 0.0, 0.0)" width="172.0" xlink:href="#text0"/>
  </g>
  <defs>
    <g id="text0" transform="matrix(1.0, 0.0, 0.0, 1.0, 2.0, 2.0)">
      <g transform="matrix(1.0, 0.0, 0.0, 1.0, -2.0, -2.0)">
        <use fill="#ffffff" height="40.1" transform="matrix(0.0293, 0.0, 0.0, 0.0293, 0.0, 24.5)" width="172.0" xlink:href="#font_Burbank_Big_Regular_Bold_L0"/>
        <use fill="#ffffff" height="40.1" transform="matrix(0.0293, 0.0, 0.0, 0.0293, 12.35, 24.5)" width="172.0" xlink:href="#font_Burbank_Big_Regular_Bold_o0"/>
        <use fill="#ffffff" height="40.1" transform="matrix(0.0293, 0.0, 0.0, 0.0293, 27.95, 24.5)" width="172.0" xlink:href="#font_Burbank_Big_Regular_Bold_a0"/>
        <use fill="#ffffff" height="40.1" transform="matrix(0.0293, 0.0, 0.0, 0.0293, 42.7, 24.5)" width="172.0" xlink:href="#font_Burbank_Big_Regular_Bold_d0"/>
        <use fill="#ffffff" height="40.1" transform="matrix(0.0293, 0.0, 0.0, 0.0293, 58.7, 24.5)" width="172.0" xlink:href="#font_Burbank_Big_Regular_Bold_i0"/>
        <use fill="#ffffff" height="40.1" transform="matrix(0.0293, 0.0, 0.0, 0.0293, 65.85, 24.5)" width="172.0" xlink:href="#font_Burbank_Big_Regular_Bold_n0"/>
        <use fill="#ffffff" height="40.1" transform="matrix(0.0293, 0.0, 0.0, 0.0293, 80.9, 24.5)" width="172.0" xlink:href="#font_Burbank_Big_Regular_Bold_g0"/>
      </g>
    </g>
    <g id="font_Burbank_Big_Regular_Bold_L0">
      <path d="M43.0 -3.0 L43.0 -59.5 Q43.0 -114.5 42.0 -211.5 L40.5 -435.0 37.0 -705.5 77.5 -705.0 Q118.0 -704.0 204.0 -705.5 203.5 -706.0 203.5 -677.5 L203.5 -584.5 Q203.5 -520.0 204.5 -412.0 205.5 -304.5 208.0 -146.5 318.5 -143.5 376.0 -143.5 433.0 -143.0 433.0 -143.5 431.5 -75.0 432.0 -37.5 L432.0 1.0 Q358.5 -0.5 289.0 -1.5 L164.5 -2.5 76.5 -3.0 43.0 -3.0" fill-rule="evenodd" stroke="none"/>
    </g>
    <g id="font_Burbank_Big_Regular_Bold_o0">
      <path d="M270.5 -97.5 Q306.0 -96.5 326.5 -135.0 347.0 -173.5 347.0 -261.0 347.5 -337.0 329.0 -377.0 310.5 -417.5 271.5 -418.0 234.0 -418.0 214.0 -379.5 194.0 -341.5 193.5 -265.0 193.5 -176.0 212.0 -136.5 230.5 -96.5 270.5 -97.5 M268.5 13.5 Q147.5 12.5 85.0 -59.5 23.0 -131.5 22.5 -265.0 23.0 -346.0 52.5 -405.0 82.5 -464.0 137.5 -496.0 192.5 -528.0 269.5 -528.5 349.5 -528.0 405.0 -495.0 460.0 -462.0 489.0 -402.0 517.5 -342.0 517.0 -260.0 516.5 -164.5 484.5 -104.0 453.0 -43.5 397.0 -15.0 341.0 13.5 268.5 13.5" fill-rule="evenodd" stroke="none"/>
    </g>
    <g id="font_Burbank_Big_Regular_Bold_a0">
      <path d="M314.5 -210.0 L314.5 -229.5 Q239.5 -230.5 207.5 -207.0 176.0 -184.0 177.0 -147.5 177.0 -120.5 192.0 -105.5 207.0 -90.5 235.5 -90.0 267.5 -89.0 290.5 -115.0 313.5 -141.5 314.5 -210.0 M184.5 15.5 Q106.5 14.5 60.5 -24.0 14.5 -63.0 13.5 -131.0 13.0 -218.0 85.0 -265.5 157.0 -312.5 307.0 -308.0 L307.0 -316.0 Q307.0 -323.5 306.0 -332.0 304.0 -374.5 290.0 -396.0 276.0 -417.0 248.0 -417.0 218.0 -416.5 203.0 -394.5 187.5 -372.5 185.5 -333.0 L144.0 -333.5 33.0 -337.0 Q35.0 -394.0 61.5 -437.0 88.0 -480.0 136.0 -504.0 184.0 -528.0 251.0 -528.5 365.0 -528.0 418.0 -472.0 470.5 -416.5 472.0 -311.5 473.5 -247.0 474.0 -188.5 474.5 -130.5 474.0 -84.5 474.0 -39.0 473.5 -12.5 L473.0 14.5 438.0 14.5 Q403.5 14.5 340.0 15.5 L341.5 -6.5 Q343.0 -28.0 344.0 -65.5 320.0 -23.0 277.0 -3.5 234.5 15.5 184.5 15.5" fill-rule="evenodd" stroke="none"/>
    </g>
    <g id="font_Burbank_Big_Regular_Bold_d0">
      <path d="M272.5 -93.0 Q307.0 -92.5 328.0 -130.0 349.5 -167.5 350.0 -255.0 349.5 -333.0 329.5 -375.5 310.0 -418.5 271.5 -419.0 235.0 -418.0 215.5 -376.0 196.0 -333.5 195.5 -257.0 196.0 -173.5 216.5 -133.0 236.5 -93.0 272.5 -93.0 M509.0 20.5 L486.0 20.0 432.5 19.0 Q400.5 18.5 368.5 18.5 L370.0 -5.0 Q371.0 -27.5 371.5 -66.5 348.0 -27.0 311.0 -7.5 273.5 11.5 228.5 11.5 133.0 11.0 78.0 -56.5 23.5 -124.5 22.5 -259.0 22.5 -340.0 45.0 -400.0 67.5 -460.0 112.0 -493.5 156.0 -527.0 221.0 -527.5 263.0 -527.0 295.0 -508.5 327.5 -490.5 348.0 -461.0 347.5 -503.5 345.5 -563.5 344.0 -623.5 341.0 -702.5 L355.0 -702.5 Q369.0 -702.0 406.0 -702.5 443.0 -702.5 510.0 -703.5 L509.5 -646.5 508.5 -491.0 Q508.5 -391.5 508.0 -260.5 508.0 -130.0 509.0 20.5" fill-rule="evenodd" stroke="none"/>
    </g>
    <g id="font_Burbank_Big_Regular_Bold_i0">
      <path d="M124.0 -562.0 Q72.5 -562.5 47.0 -585.0 21.5 -607.5 21.5 -651.5 21.5 -691.5 47.5 -714.0 73.0 -737.0 124.0 -737.5 174.5 -736.5 199.0 -713.0 223.5 -689.5 223.0 -651.5 223.5 -612.0 199.5 -587.5 175.0 -563.0 124.0 -562.0 M43.0 -1.0 L43.0 -50.5 42.5 -213.5 Q42.0 -326.0 40.0 -513.0 L83.0 -513.0 Q125.5 -512.5 204.0 -514.0 L203.5 -473.0 Q203.5 -433.0 204.0 -362.5 204.0 -292.0 204.5 -199.5 205.5 -107.0 207.0 -2.0 L185.5 -2.0 Q164.0 -2.5 127.5 -2.0 90.5 -2.0 43.0 -1.0" fill-rule="evenodd" stroke="none"/>
    </g>
    <g id="font_Burbank_Big_Regular_Bold_n0">
      <path d="M320.5 19.5 L321.0 -10.0 322.0 -86.5 322.0 -192.5 Q322.5 -251.0 321.5 -310.5 322.0 -346.0 311.0 -366.0 299.5 -385.5 272.5 -386.0 238.5 -385.0 220.0 -356.0 201.5 -327.0 199.5 -281.5 L198.5 -208.5 198.5 -120.5 198.5 -46.5 198.5 -15.5 173.0 -16.0 Q148.0 -16.0 110.0 -16.5 72.5 -16.5 34.0 -15.5 L34.5 -77.0 35.5 -246.5 Q36.0 -355.5 35.0 -502.0 35.5 -501.5 54.5 -501.5 74.0 -501.0 103.5 -501.0 L165.0 -503.0 164.5 -490.5 163.5 -460.5 Q163.5 -441.5 164.0 -421.0 185.0 -468.0 228.5 -497.5 272.0 -527.0 332.0 -527.5 404.5 -526.0 442.5 -481.0 480.0 -436.0 482.5 -353.5 L484.0 -286.5 Q484.5 -242.5 484.5 -190.5 485.0 -138.5 485.0 -91.0 L485.5 -13.0 485.5 18.5 438.0 18.5 Q410.5 18.5 383.5 19.0 357.0 19.0 339.0 19.5 L320.5 19.5" fill-rule="evenodd" stroke="none"/>
    </g>
    <g id="font_Burbank_Big_Regular_Bold_g0">
      <path d="M349.0 132.0 Q349.5 117.0 337.5 105.5 325.5 94.5 296.0 88.0 266.5 81.0 214.0 78.0 192.5 89.5 182.0 103.5 171.0 117.5 171.0 133.0 171.5 158.0 195.0 170.5 218.5 183.0 258.0 182.5 300.0 182.0 324.5 168.5 348.5 155.5 349.0 132.0 M247.0 -197.5 Q276.5 -197.5 294.5 -225.0 313.0 -252.5 313.5 -312.5 313.5 -364.5 296.5 -394.5 280.0 -424.5 247.0 -425.0 213.5 -424.5 196.5 -395.0 179.5 -365.5 179.0 -312.5 179.5 -254.0 197.0 -226.0 215.0 -197.5 247.0 -197.5 M239.5 278.5 Q170.0 278.5 118.5 264.5 67.0 250.0 38.0 222.5 9.5 194.5 9.0 153.5 9.5 115.0 36.5 86.5 64.0 58.0 115.5 45.0 83.5 32.5 66.0 10.5 48.5 -11.0 48.0 -37.0 48.5 -65.5 67.5 -88.0 87.0 -111.0 122.0 -127.0 73.0 -151.5 46.0 -199.0 19.0 -246.5 18.5 -318.5 19.0 -385.5 47.0 -434.0 75.5 -482.5 126.5 -509.0 178.0 -535.0 247.0 -535.5 258.5 -535.5 269.0 -535.0 L291.0 -532.5 306.0 -603.5 Q315.5 -649.0 327.5 -713.5 328.5 -713.5 370.0 -698.0 411.5 -682.5 486.5 -657.5 485.5 -656.5 459.0 -614.5 432.0 -572.0 389.0 -497.5 431.0 -470.0 453.5 -424.0 476.0 -378.0 476.0 -316.5 475.5 -241.0 445.0 -193.0 414.5 -145.0 364.5 -122.5 314.5 -100.0 255.0 -100.5 227.5 -100.5 203.0 -103.5 197.5 -99.0 195.0 -93.5 192.5 -88.5 192.5 -83.0 192.0 -75.5 200.0 -69.0 208.0 -62.5 229.0 -57.5 250.5 -52.5 290.0 -49.0 405.0 -38.5 456.0 -1.5 507.0 35.5 506.0 101.5 504.5 161.0 467.0 200.5 429.0 240.0 368.5 259.0 308.5 278.5 239.5 278.5" fill-rule="evenodd" stroke="none"/>
    </g>
  </defs>
</svg>
