<?xml version="1.0" encoding="UTF-8" standalone="no"?>
<svg xmlns:ffdec="https://www.free-decompiler.com/flash" xmlns:xlink="http://www.w3.org/1999/xlink" ffdec:objectType="frame" height="162.15px" width="451.85px" xmlns="http://www.w3.org/2000/svg">
  <g transform="matrix(1.0, 0.0, 0.0, 1.0, 123.9, 29.65)">
    <use ffdec:characterId="2833" height="125.2" transform="matrix(1.0, 0.0, 0.0, 1.0, -14.25, -11.6)" width="233.2" xlink:href="#shape0"/>
    <clipPath id="clipPath0">
      <path d="M -123.9 -29.65 L 38.25 132.5 L 60.5 132.5 L -101.65 -29.65 Z M -79.4 -29.65 L 82.75 132.5 L 105.05 132.5 L -57.1 -29.65 Z M -34.85 -29.65 L 127.3 132.5 L 149.55 132.5 L -12.6 -29.65 Z M 9.65 -29.65 L 171.8 132.5 L 194.05 132.5 L 31.9 -29.65 Z M 54.15 -29.65 L 216.3 132.5 L 238.55 132.5 L 76.4 -29.65 Z M 98.65 -29.65 L 260.8 132.5 L 283.05 132.5 L 120.9 -29.65 Z M 143.15 -29.65 L 305.3 132.5 L 327.95 132.5 L 165.8 -29.65 Z"/>
    </clipPath>
    <g clip-path="url(#clipPath0)">
      <use ffdec:characterId="2835" height="125.2" transform="matrix(1.0, 0.0, 0.0, 1.0, -14.25, -11.6)" width="233.2" xlink:href="#shape1"/>
    </g>
    <use ffdec:characterId="2836" height="94.3" transform="matrix(1.0, 0.0, 0.0, 1.0, 18.1, 0.7)" width="166.45" xlink:href="#shape2"/>
  </g>
  <defs>
    <g id="shape0" transform="matrix(1.0, 0.0, 0.0, 1.0, 14.25, 11.6)">
      <path d="M208.95 -11.6 Q218.95 -11.6 218.95 -1.6 L218.95 103.6 Q218.95 113.6 208.95 113.6 L-4.25 113.6 Q-14.25 113.6 -14.25 103.6 L-14.25 -1.6 Q-14.25 -11.6 -4.25 -11.6 L208.95 -11.6" fill="#000000" fill-rule="evenodd" stroke="none"/>
      <path d="M199.2 94.7 L199.65 94.25 200.15 93.75 199.95 94.15 198.75 95.9 198.45 96.3 198.95 95.35 199.2 94.7 M2.6 4.1 L2.45 4.5 2.0 4.9 1.9 5.05 1.85 5.1 1.9 5.05 2.2 4.55 2.25 4.5 2.75 3.85 2.6 4.1" fill="#3f8bff" fill-rule="evenodd" stroke="none"/>
      <path d="M195.4 89.45 Q196.85 87.75 196.85 84.55 L196.85 10.8 Q196.85 8.05 195.75 6.35 194.1 3.8 189.85 3.8 L14.4 3.8 Q12.6 3.8 11.25 4.3 10.1 4.65 9.3 5.45 8.6 6.05 8.2 6.9 L7.9 7.6 7.4 8.15 7.0 8.75 6.75 9.2 6.4 9.55 Q4.8 11.25 4.8 14.6 L4.8 88.35 Q4.8 95.35 11.8 95.35 L187.25 95.35 Q191.0 95.35 192.75 93.35 L193.25 92.65 193.5 92.2 193.85 91.85 194.8 90.45 195.0 89.9 195.4 89.45 M2.45 4.5 Q4.0 3.1 6.25 2.4 8.65 1.6 11.8 1.6 L187.25 1.6 Q192.6 1.6 195.75 3.8 200.25 6.95 200.25 14.6 L200.25 88.35 Q200.25 92.05 199.2 94.7 197.85 95.9 196.0 96.6 193.4 97.55 189.85 97.55 L14.4 97.55 Q1.4 97.55 1.4 84.55 L1.4 10.8 Q1.4 7.5 2.25 5.0 L2.45 4.5" fill="#052648" fill-rule="evenodd" stroke="none"/>
      <path d="M8.2 6.9 Q8.6 6.05 9.3 5.45 10.1 4.65 11.25 4.3 12.6 3.8 14.4 3.8 L189.85 3.8 Q194.1 3.8 195.75 6.35 196.85 8.05 196.85 10.8 L196.85 84.55 Q196.85 87.75 195.4 89.45 196.15 87.9 196.15 85.6 L196.15 11.85 Q196.15 10.05 195.7 8.75 194.35 4.85 189.15 4.85 L13.7 4.85 Q11.2 4.85 9.6 5.75 8.8 6.2 8.2 6.9 M2.45 4.5 L2.25 5.0 Q1.4 7.5 1.4 10.8 L1.4 84.55 Q1.4 97.55 14.4 97.55 L189.85 97.55 Q193.4 97.55 196.0 96.6 197.85 95.9 199.2 94.7 L198.95 95.35 196.5 97.1 Q193.6 98.6 189.15 98.6 L13.7 98.6 Q0.7 98.6 0.7 85.6 L0.7 11.85 Q0.7 7.8 1.95 5.05 L2.0 4.9 2.45 4.5" fill="#031d38" fill-rule="evenodd" stroke="none"/>
      <path d="M195.4 89.45 L195.0 89.9 Q195.45 88.55 195.45 86.75 L195.45 13.0 Q195.45 10.4 194.5 8.75 192.85 6.0 188.45 6.0 L13.0 6.0 10.2 6.35 Q8.8 6.75 7.9 7.6 L8.2 6.9 Q8.8 6.2 9.6 5.75 11.2 4.85 13.7 4.85 L189.15 4.85 Q194.35 4.85 195.7 8.75 196.15 10.05 196.15 11.85 L196.15 85.6 Q196.15 87.9 195.4 89.45 M2.0 4.9 L1.95 5.05 Q0.7 7.8 0.7 11.85 L0.7 85.6 Q0.7 98.6 13.7 98.6 L189.15 98.6 Q193.6 98.6 196.5 97.1 L198.95 95.35 198.45 96.3 196.95 97.55 Q193.8 99.75 188.45 99.75 L13.0 99.75 Q9.65 99.75 7.2 98.9 2.5 97.25 0.85 92.55 0.0 90.1 0.0 86.75 L0.0 13.0 Q0.0 8.1 1.85 5.1 L1.9 5.05 2.0 4.9" fill="#011020" fill-rule="evenodd" stroke="none"/>
      <path d="M193.25 92.65 L192.75 93.35 Q191.0 95.35 187.25 95.35 L11.8 95.35 Q4.8 95.35 4.8 88.35 L4.8 14.6 Q4.8 11.25 6.4 9.55 5.4 11.15 5.4 13.8 L5.4 87.55 Q5.4 94.55 12.4 94.55 L187.85 94.55 Q190.9 94.55 192.65 93.25 L193.25 92.65 M199.2 94.7 Q200.25 92.05 200.25 88.35 L200.25 14.6 Q200.25 6.95 195.75 3.8 192.6 1.6 187.25 1.6 L11.8 1.6 Q8.65 1.6 6.25 2.4 4.0 3.1 2.45 4.5 L2.6 4.1 Q3.95 2.75 5.8 1.95 8.55 0.8 12.4 0.8 L187.85 0.8 Q192.7 0.8 195.75 2.65 200.85 5.65 200.85 13.8 L200.85 87.55 Q200.85 91.5 199.65 94.25 L199.2 94.7" fill="#0e3c6b" fill-rule="evenodd" stroke="none"/>
      <path d="M193.5 92.2 L193.25 92.65 192.65 93.25 Q190.9 94.55 187.85 94.55 L12.4 94.55 Q5.4 94.55 5.4 87.55 L5.4 13.8 Q5.4 11.15 6.4 9.55 L6.75 9.2 Q6.0 10.7 6.0 13.0 L6.0 86.75 Q6.0 93.75 13.0 93.75 L188.45 93.75 Q190.8 93.75 192.4 93.0 L193.5 92.2 M199.65 94.25 Q200.85 91.5 200.85 87.55 L200.85 13.8 Q200.85 5.65 195.75 2.65 192.7 0.8 187.85 0.8 L12.4 0.8 Q8.55 0.8 5.8 1.95 3.95 2.75 2.6 4.1 L2.75 3.85 Q3.85 2.5 5.45 1.6 8.45 0.0 13.0 0.0 L188.45 0.0 Q192.85 0.0 195.75 1.5 201.45 4.4 201.45 13.0 L201.45 86.75 Q201.45 90.9 200.15 93.75 L199.65 94.25" fill="#1e5185" fill-rule="evenodd" stroke="none"/>
    </g>
    <g id="shape1" transform="matrix(1.0, 0.0, 0.0, 1.0, 14.25, 11.6)">
      <path d="M208.95 -11.6 Q218.95 -11.6 218.95 -1.6 L218.95 103.6 Q218.95 113.6 208.95 113.6 L-4.25 113.6 Q-14.25 113.6 -14.25 103.6 L-14.25 -1.6 Q-14.25 -11.6 -4.25 -11.6 L208.95 -11.6" fill="#993300" fill-rule="evenodd" stroke="none"/>
      <path d="M8.2 6.9 L7.9 7.6 7.4 8.15 7.0 8.75 6.75 9.2 6.4 9.55 Q4.8 11.25 4.8 14.6 L4.8 88.35 Q4.8 95.35 11.8 95.35 L187.25 95.35 Q191.0 95.35 192.75 93.35 L193.25 92.65 193.5 92.2 193.85 91.85 194.8 90.45 195.0 89.9 195.4 89.45 Q196.85 87.75 196.85 84.55 L196.85 10.8 Q196.85 8.05 195.75 6.35 194.1 3.8 189.85 3.8 L14.4 3.8 Q12.6 3.8 11.25 4.3 10.1 4.65 9.3 5.45 8.6 6.05 8.2 6.9 M2.45 4.5 Q4.0 3.1 6.25 2.4 8.65 1.6 11.8 1.6 L187.25 1.6 Q192.6 1.6 195.75 3.8 200.25 6.95 200.25 14.6 L200.25 88.35 Q200.25 92.05 199.2 94.7 197.85 95.9 196.0 96.6 193.4 97.55 189.85 97.55 L14.4 97.55 Q1.4 97.55 1.4 84.55 L1.4 10.8 Q1.4 7.5 2.25 5.0 L2.45 4.5" fill="#ffcc00" fill-rule="evenodd" stroke="none"/>
      <path d="M199.65 94.25 L200.15 93.75 199.95 94.15 198.75 95.9 198.45 96.3 198.95 95.35 199.2 94.7 199.65 94.25 M2.75 3.85 L2.6 4.1 2.45 4.5 2.0 4.9 1.9 5.05 1.85 5.1 1.9 5.05 2.2 4.55 2.25 4.5 2.75 3.85" fill="#3f8bff" fill-rule="evenodd" stroke="none"/>
      <path d="M195.4 89.45 Q196.15 87.9 196.15 85.6 L196.15 11.85 Q196.15 10.05 195.7 8.75 194.35 4.85 189.15 4.85 L13.7 4.85 Q11.2 4.85 9.6 5.75 8.8 6.2 8.2 6.9 8.6 6.05 9.3 5.45 10.1 4.65 11.25 4.3 12.6 3.8 14.4 3.8 L189.85 3.8 Q194.1 3.8 195.75 6.35 196.85 8.05 196.85 10.8 L196.85 84.55 Q196.85 87.75 195.4 89.45 M199.2 94.7 L198.95 95.35 196.5 97.1 Q193.6 98.6 189.15 98.6 L13.7 98.6 Q0.7 98.6 0.7 85.6 L0.7 11.85 Q0.7 7.8 1.95 5.05 L2.0 4.9 2.45 4.5 2.25 5.0 Q1.4 7.5 1.4 10.8 L1.4 84.55 Q1.4 97.55 14.4 97.55 L189.85 97.55 Q193.4 97.55 196.0 96.6 197.85 95.9 199.2 94.7" fill="#f09e00" fill-rule="evenodd" stroke="none"/>
      <path d="M8.2 6.9 Q8.8 6.2 9.6 5.75 11.2 4.85 13.7 4.85 L189.15 4.85 Q194.35 4.85 195.7 8.75 196.15 10.05 196.15 11.85 L196.15 85.6 Q196.15 87.9 195.4 89.45 L195.0 89.9 Q195.45 88.55 195.45 86.75 L195.45 13.0 Q195.45 10.4 194.5 8.75 192.85 6.0 188.45 6.0 L13.0 6.0 10.2 6.35 Q8.8 6.75 7.9 7.6 L8.2 6.9 M2.0 4.9 L1.95 5.05 Q0.7 7.8 0.7 11.85 L0.7 85.6 Q0.7 98.6 13.7 98.6 L189.15 98.6 Q193.6 98.6 196.5 97.1 L198.95 95.35 198.45 96.3 196.95 97.55 Q193.8 99.75 188.45 99.75 L13.0 99.75 Q9.65 99.75 7.2 98.9 2.5 97.25 0.85 92.55 0.0 90.1 0.0 86.75 L0.0 13.0 Q0.0 8.1 1.85 5.1 L1.9 5.05 2.0 4.9" fill="#de6d00" fill-rule="evenodd" stroke="none"/>
      <path d="M2.6 4.1 Q3.95 2.75 5.8 1.95 8.55 0.8 12.4 0.8 L187.85 0.8 Q192.7 0.8 195.75 2.65 200.85 5.65 200.85 13.8 L200.85 87.55 Q200.85 91.5 199.65 94.25 L199.2 94.7 Q200.25 92.05 200.25 88.35 L200.25 14.6 Q200.25 6.95 195.75 3.8 192.6 1.6 187.25 1.6 L11.8 1.6 Q8.65 1.6 6.25 2.4 4.0 3.1 2.45 4.5 L2.6 4.1 M193.25 92.65 L192.75 93.35 Q191.0 95.35 187.25 95.35 L11.8 95.35 Q4.8 95.35 4.8 88.35 L4.8 14.6 Q4.8 11.25 6.4 9.55 5.4 11.15 5.4 13.8 L5.4 87.55 Q5.4 94.55 12.4 94.55 L187.85 94.55 Q190.9 94.55 192.65 93.25 L193.25 92.65" fill="#ffe84d" fill-rule="evenodd" stroke="none"/>
      <path d="M199.65 94.25 Q200.85 91.5 200.85 87.55 L200.85 13.8 Q200.85 5.65 195.75 2.65 192.7 0.8 187.85 0.8 L12.4 0.8 Q8.55 0.8 5.8 1.95 3.95 2.75 2.6 4.1 L2.75 3.85 Q3.85 2.5 5.45 1.6 8.45 0.0 13.0 0.0 L188.45 0.0 Q192.85 0.0 195.75 1.5 201.45 4.4 201.45 13.0 L201.45 86.75 Q201.45 90.9 200.15 93.75 L199.65 94.25 M193.5 92.2 L193.25 92.65 192.65 93.25 Q190.9 94.55 187.85 94.55 L12.4 94.55 Q5.4 94.55 5.4 87.55 L5.4 13.8 Q5.4 11.15 6.4 9.55 L6.75 9.2 Q6.0 10.7 6.0 13.0 L6.0 86.75 Q6.0 93.75 13.0 93.75 L188.45 93.75 Q190.8 93.75 192.4 93.0 L193.5 92.2" fill="#fff89c" fill-rule="evenodd" stroke="none"/>
    </g>
    <g id="shape2" transform="matrix(1.0, 0.0, 0.0, 1.0, -18.1, -0.7)">
      <path d="M184.55 1.05 L177.4 1.25 160.25 1.4 143.0 1.25 135.95 1.05 143.0 0.8 160.25 0.7 177.4 0.8 184.55 1.05" fill="url(#gradient0)" fill-rule="evenodd" stroke="none"/>
      <path d="M23.55 94.85 L18.1 94.6 23.55 94.3 36.8 94.2 50.0 94.3 55.5 94.6 50.0 94.85 36.8 95.0 23.55 94.85" fill="url(#gradient1)" fill-rule="evenodd" stroke="none"/>
    </g>
    <linearGradient gradientTransform="matrix(0.0297, 0.0, 0.0, 4.0E-4, 160.25, 1.05)" gradientUnits="userSpaceOnUse" id="gradient0" spreadMethod="pad" x1="-819.2" x2="819.2">
      <stop offset="0.0" stop-color="#ffffff" stop-opacity="0.5019608"/>
      <stop offset="0.41568627450980394" stop-color="#ffffff"/>
      <stop offset="0.5843137254901961" stop-color="#ffffff"/>
      <stop offset="1.0" stop-color="#ffffff" stop-opacity="0.5019608"/>
    </linearGradient>
    <linearGradient gradientTransform="matrix(0.0228, 0.0, 0.0, 5.0E-4, 36.8, 94.6)" gradientUnits="userSpaceOnUse" id="gradient1" spreadMethod="pad" x1="-819.2" x2="819.2">
      <stop offset="0.0" stop-color="#ffffff" stop-opacity="0.5019608"/>
      <stop offset="0.41568627450980394" stop-color="#ffffff"/>
      <stop offset="0.5843137254901961" stop-color="#ffffff"/>
      <stop offset="1.0" stop-color="#ffffff" stop-opacity="0.5019608"/>
    </linearGradient>
  </defs>
</svg>
