<?xml version="1.0" encoding="UTF-8" standalone="no"?>
<svg xmlns:ffdec="https://www.free-decompiler.com/flash" xmlns:xlink="http://www.w3.org/1999/xlink" ffdec:objectType="frame" height="45.65px" width="45.7px" xmlns="http://www.w3.org/2000/svg">
  <g transform="matrix(1.0, 0.0, 0.0, 1.0, 3.45, 14.1)">
    <use ffdec:characterId="1624" height="17.5" transform="matrix(1.0, 0.0, 0.0, 1.0, 7.15, 4.05)" width="14.0" xlink:href="#shape0"/>
    <use ffdec:characterId="1629" height="33.1" transform="matrix(0.9373, 0.0, 0.0, 0.9373, -1.0937, -1.8419)" width="33.1" xlink:href="#sprite0"/>
    <use ffdec:characterId="1630" height="17.5" transform="matrix(1.0, 0.0, 0.0, 1.0, 7.15, 4.05)" width="14.0" xlink:href="#shape2"/>
    <use ffdec:characterId="1632" height="35.6" transform="matrix(0.6544, 0.0, 0.0, 0.6544, 16.8409, -11.8311)" width="35.4" xlink:href="#sprite1"/>
  </g>
  <defs>
    <g id="shape0" transform="matrix(1.0, 0.0, 0.0, 1.0, -7.15, -4.05)">
      <path d="M20.8 14.55 Q21.15 15.3 21.15 16.35 21.15 18.1 20.25 19.3 19.25 20.4 17.7 21.0 16.1 21.55 14.25 21.55 10.45 21.5 8.65 19.8 6.9 18.1 7.2 14.95 L8.0 15.0 10.05 15.1 12.85 15.2 Q12.7 16.5 13.05 17.0 13.45 17.55 14.2 17.5 L15.15 17.25 Q15.6 16.85 15.6 16.05 L15.35 15.15 14.65 14.65 13.4 14.4 11.7 14.45 11.7 13.6 11.55 11.05 13.25 11.05 14.5 10.75 15.25 10.3 15.5 9.4 Q15.5 8.65 15.15 8.3 14.85 7.9 14.25 7.9 13.45 7.9 13.05 8.55 12.75 9.15 12.85 10.35 L9.95 10.4 8.05 10.4 7.4 10.4 Q7.1 7.15 9.0 5.6 10.8 4.05 14.45 4.05 16.5 4.05 17.95 4.7 19.35 5.35 20.15 6.5 20.9 7.6 20.9 9.1 20.9 10.35 20.2 11.25 L18.3 12.5 Q19.1 12.75 19.75 13.25 L20.8 14.55" fill="#8f24ad" fill-rule="evenodd" stroke="none"/>
    </g>
    <g id="sprite0" transform="matrix(1.0, 0.0, 0.0, 1.0, 0.1, -193.0)">
      <use ffdec:characterId="1628" height="33.1" transform="matrix(1.0, 0.0, 0.0, 1.0, -0.1, 193.0)" width="33.1" xlink:href="#shape1"/>
    </g>
    <g id="shape1" transform="matrix(1.0, 0.0, 0.0, 1.0, 0.1, -193.0)">
      <path d="M16.55 195.5 Q20.6 195.5 23.85 197.5 25.25 198.4 26.45 199.65 30.5 203.8 30.5 209.45 30.5 215.3 26.45 219.45 22.3 223.6 16.55 223.6 14.0 223.6 11.75 222.8 8.95 221.75 6.65 219.45 3.6 216.45 2.7 212.5 2.4 211.0 2.4 209.45 2.4 208.0 2.7 206.55 3.45 203.15 5.85 200.5 L6.65 199.65 Q10.25 195.85 15.45 195.5 L16.55 195.5" fill="#faecff" fill-rule="evenodd" stroke="none"/>
      <path d="M16.55 195.5 Q20.6 195.5 23.85 197.5 25.25 198.4 26.45 199.65 30.5 203.8 30.5 209.45 30.5 215.3 26.45 219.45 22.3 223.6 16.55 223.6 14.0 223.6 11.75 222.8 8.95 221.75 6.65 219.45 3.6 216.45 2.7 212.5 2.4 211.0 2.4 209.45 2.4 208.0 2.7 206.55 3.45 203.15 5.85 200.5 L6.65 199.65 Q10.25 195.85 15.45 195.5 L16.55 195.5 Z" fill="none" stroke="#70590c" stroke-linecap="round" stroke-linejoin="round" stroke-width="5.0"/>
      <path d="M23.85 197.5 Q25.25 198.4 26.45 199.65 30.5 203.8 30.5 209.45 30.5 215.3 26.45 219.45 22.3 223.6 16.55 223.6 14.0 223.6 11.75 222.8 8.95 221.75 6.65 219.45 3.6 216.45 2.7 212.5 2.4 211.0 2.4 209.45 2.4 208.0 2.7 206.55 3.45 203.15 5.85 200.5 L6.65 199.65 Q10.25 195.85 15.45 195.5 L16.55 195.5 Q20.6 195.5 23.85 197.5" fill="#faecff" fill-rule="evenodd" stroke="none"/>
      <path d="M23.85 197.5 Q25.25 198.4 26.45 199.65 30.5 203.8 30.5 209.45 30.5 215.3 26.45 219.45 22.3 223.6 16.55 223.6 14.0 223.6 11.75 222.8 8.95 221.75 6.65 219.45 3.6 216.45 2.7 212.5 2.4 211.0 2.4 209.45 2.4 208.0 2.7 206.55 3.45 203.15 5.85 200.5 L6.65 199.65 Q10.25 195.85 15.45 195.5 L16.55 195.5 Q20.6 195.5 23.85 197.5 Z" fill="none" stroke="#91821f" stroke-linecap="round" stroke-linejoin="round" stroke-width="3.0"/>
    </g>
    <g id="shape2" transform="matrix(1.0, 0.0, 0.0, 1.0, -7.15, -4.05)">
      <path d="M20.8 14.55 Q21.15 15.3 21.15 16.35 21.15 18.1 20.25 19.3 19.25 20.4 17.7 21.0 16.1 21.55 14.25 21.55 10.45 21.5 8.65 19.8 6.9 18.1 7.2 14.95 L8.0 15.0 10.05 15.1 12.85 15.2 Q12.7 16.5 13.05 17.0 13.45 17.55 14.2 17.5 L15.15 17.25 Q15.6 16.85 15.6 16.05 L15.35 15.15 14.65 14.65 13.4 14.4 11.7 14.45 11.7 13.6 11.55 11.05 13.25 11.05 14.5 10.75 15.25 10.3 15.5 9.4 Q15.5 8.65 15.15 8.3 14.85 7.9 14.25 7.9 13.45 7.9 13.05 8.55 12.75 9.15 12.85 10.35 L9.95 10.4 8.05 10.4 7.4 10.4 Q7.1 7.15 9.0 5.6 10.8 4.05 14.45 4.05 16.5 4.05 17.95 4.7 19.35 5.35 20.15 6.5 20.9 7.6 20.9 9.1 20.9 10.35 20.2 11.25 L18.3 12.5 Q19.1 12.75 19.75 13.25 L20.8 14.55" fill="#91821f" fill-rule="evenodd" stroke="none"/>
    </g>
    <g id="sprite1" transform="matrix(1.0, 0.0, 0.0, 1.0, -121.55, -198.0)">
      <use ffdec:characterId="1631" height="35.6" transform="matrix(1.0, 0.0, 0.0, 1.0, 121.55, 198.0)" width="35.4" xlink:href="#shape3"/>
    </g>
    <g id="shape3" transform="matrix(1.0, 0.0, 0.0, 1.0, -121.55, -198.0)">
      <path d="M154.95 217.3 L143.15 219.75 141.25 231.6 135.4 221.2 123.55 223.0 131.6 214.1 126.25 203.45 137.1 208.45 145.6 200.0 144.25 211.85 154.95 217.3 Z" fill="none" stroke="#5d4906" stroke-linecap="round" stroke-linejoin="round" stroke-width="4.0"/>
      <path d="M144.25 211.85 L154.95 217.3 143.15 219.75 141.25 231.6 135.4 221.2 123.55 223.0 131.6 214.1 126.25 203.45 137.1 208.45 145.6 200.0 144.25 211.85" fill="url(#gradient0)" fill-rule="evenodd" stroke="none"/>
      <path d="M144.25 211.85 L154.95 217.3 143.15 219.75 141.25 231.6 135.4 221.2 123.55 223.0 131.6 214.1 126.25 203.45 137.1 208.45 145.6 200.0 144.25 211.85 Z" ffdec:has-small-stroke="true" ffdec:original-stroke-width="1.5" fill="none" stroke="#9f8a2d" stroke-linecap="round" stroke-linejoin="round" stroke-width="1.5281443827822603"/>
      <path d="M143.15 219.6 L141.25 231.45 135.4 221.05 123.55 222.85 131.6 213.95 126.25 203.3 137.1 208.3 145.6 199.85 144.25 211.7 154.95 217.15 143.15 219.6 Z" ffdec:has-small-stroke="true" ffdec:original-stroke-width="0.2" fill="none" stroke="#ffffff" stroke-linecap="round" stroke-linejoin="round" stroke-width="1.5281443827822603"/>
      <path d="M141.0 211.75 L140.75 212.35 139.95 214.05 138.8 216.5 137.5 219.3 137.15 219.15 136.35 218.75 135.1 218.15 135.35 217.6 136.15 216.0 137.3 213.6 138.65 210.6 139.25 210.9 141.0 211.75 M133.65 208.3 L134.25 208.55 136.0 209.4 135.9 209.6 135.5 210.45 134.7 212.1 133.45 214.85 135.05 215.7 135.65 216.0 134.95 217.45 134.7 218.0 133.1 217.2 131.6 216.45 130.55 215.95 130.1 215.75 130.4 215.15 131.2 213.45 132.35 211.1 133.65 208.3 M133.2 207.95 L132.95 208.45 132.2 209.95 131.9 209.8 131.0 209.35 129.7 208.75 129.4 209.4 129.3 209.6 129.45 209.7 130.1 210.0 131.3 210.6 131.05 211.05 130.45 212.45 129.95 212.2 128.45 211.5 128.15 212.1 128.05 212.3 128.65 212.65 130.45 213.6 130.25 214.1 129.5 215.55 129.15 215.35 128.15 214.8 126.65 214.1 125.65 213.55 124.8 213.15 125.1 212.6 125.35 212.05 125.8 211.05 126.9 208.65 128.3 205.65 129.5 206.25 133.2 207.95 M141.85 212.2 L142.75 212.6 144.0 213.2 145.45 213.85 146.95 214.6 146.8 214.9 146.4 215.65 145.9 216.75 145.7 216.7 145.15 216.4 144.4 216.0 143.3 218.3 141.85 221.45 141.55 221.35 140.7 220.95 139.45 220.35 139.75 219.7 140.65 217.8 142.05 214.85 140.55 214.2 140.8 213.65 141.5 212.05 141.85 212.2 M147.3 214.8 L148.5 215.4 152.2 217.1 151.95 217.6 151.2 219.1 150.9 218.95 150.0 218.5 148.7 217.9 148.4 218.55 148.3 218.75 148.45 218.85 149.1 219.15 150.3 219.75 150.05 220.2 149.45 221.6 148.95 221.35 147.45 220.65 147.15 221.25 147.05 221.45 147.65 221.8 149.45 222.75 149.25 223.25 148.5 224.7 148.15 224.5 147.15 223.95 145.65 223.25 143.8 222.3 144.1 221.75 144.8 220.2 145.9 217.8 147.3 214.8" fill="#ffffff" fill-rule="evenodd" stroke="none"/>
      <path d="M147.3 214.8 L145.9 217.8 144.8 220.2 144.1 221.75 143.8 222.3 145.65 223.25 147.15 223.95 148.15 224.5 148.5 224.7 149.25 223.25 149.45 222.75 147.65 221.8 147.05 221.45 147.15 221.25 147.45 220.65 148.95 221.35 149.45 221.6 150.05 220.2 150.3 219.75 149.1 219.15 148.45 218.85 148.3 218.75 148.4 218.55 148.7 217.9 150.0 218.5 150.9 218.95 151.2 219.1 151.95 217.6 152.2 217.1 148.5 215.4 147.3 214.8 M141.85 212.2 L141.5 212.05 140.8 213.65 140.55 214.2 142.05 214.85 140.65 217.8 139.75 219.7 139.45 220.35 140.7 220.95 141.55 221.35 141.85 221.45 143.3 218.3 144.4 216.0 145.15 216.4 145.7 216.7 145.9 216.75 146.4 215.65 146.8 214.9 146.95 214.6 145.45 213.85 144.0 213.2 142.75 212.6 141.85 212.2 M133.2 207.95 L129.5 206.25 128.3 205.65 126.9 208.65 125.8 211.05 125.35 212.05 125.1 212.6 124.8 213.15 125.65 213.55 126.65 214.1 128.15 214.8 129.15 215.35 129.5 215.55 130.25 214.1 130.45 213.6 128.65 212.65 128.05 212.3 128.15 212.1 128.45 211.5 129.95 212.2 130.45 212.45 131.05 211.05 131.3 210.6 130.1 210.0 129.45 209.7 129.3 209.6 129.4 209.4 129.7 208.75 131.0 209.35 131.9 209.8 132.2 209.95 132.95 208.45 133.2 207.95 M133.65 208.3 L132.35 211.1 131.2 213.45 130.4 215.15 130.1 215.75 130.55 215.95 131.6 216.45 133.1 217.2 134.7 218.0 134.95 217.45 135.65 216.0 135.05 215.7 133.45 214.85 134.7 212.1 135.5 210.45 135.9 209.6 136.0 209.4 134.25 208.55 133.65 208.3 M141.0 211.75 L139.25 210.9 138.65 210.6 137.3 213.6 136.15 216.0 135.35 217.6 135.1 218.15 136.35 218.75 137.15 219.15 137.5 219.3 138.8 216.5 139.95 214.05 140.75 212.35 141.0 211.75 Z" fill="none" stroke="#513b04" stroke-linecap="round" stroke-linejoin="round" stroke-width="2.5"/>
      <path d="M139.25 210.9 L141.0 211.75 140.75 212.35 139.95 214.05 138.8 216.5 137.5 219.3 137.15 219.15 136.35 218.75 135.1 218.15 135.35 217.6 136.15 216.0 137.3 213.6 138.65 210.6 139.25 210.9 M133.65 208.3 L134.25 208.55 136.0 209.4 135.9 209.6 135.5 210.45 134.7 212.1 133.45 214.85 135.05 215.7 135.65 216.0 134.95 217.45 134.7 218.0 133.1 217.2 131.6 216.45 130.55 215.95 130.1 215.75 130.4 215.15 131.2 213.45 132.35 211.1 133.65 208.3 M133.2 207.95 L132.95 208.45 132.2 209.95 131.9 209.8 131.0 209.35 129.7 208.75 129.4 209.4 129.3 209.6 129.45 209.7 130.1 210.0 131.3 210.6 131.05 211.05 130.45 212.45 129.95 212.2 128.45 211.5 128.15 212.1 128.05 212.3 128.65 212.65 130.45 213.6 130.25 214.1 129.5 215.55 129.15 215.35 128.15 214.8 126.65 214.1 125.65 213.55 124.8 213.15 125.1 212.6 125.35 212.05 125.8 211.05 126.9 208.65 128.3 205.65 129.5 206.25 133.2 207.95 M146.8 214.9 L146.4 215.65 145.9 216.75 145.7 216.7 145.15 216.4 144.4 216.0 143.3 218.3 141.85 221.45 141.55 221.35 140.7 220.95 139.45 220.35 139.75 219.7 140.65 217.8 142.05 214.85 140.55 214.2 140.8 213.65 141.5 212.05 141.85 212.2 142.75 212.6 144.0 213.2 145.45 213.85 146.95 214.6 146.8 214.9 M147.3 214.8 L148.5 215.4 152.2 217.1 151.95 217.6 151.2 219.1 150.9 218.95 150.0 218.5 148.7 217.9 148.4 218.55 148.3 218.75 148.45 218.85 149.1 219.15 150.3 219.75 150.05 220.2 149.45 221.6 148.95 221.35 147.45 220.65 147.15 221.25 147.05 221.45 147.65 221.8 149.45 222.75 149.25 223.25 148.5 224.7 148.15 224.5 147.15 223.95 145.65 223.25 143.8 222.3 144.1 221.75 144.8 220.2 145.9 217.8 147.3 214.8" fill="#ffffff" fill-rule="evenodd" stroke="none"/>
    </g>
    <linearGradient gradientTransform="matrix(0.0192, 0.0, 0.0, 0.0193, 139.25, 215.8)" gradientUnits="userSpaceOnUse" id="gradient0" spreadMethod="pad" x1="-819.2" x2="819.2">
      <stop offset="0.0" stop-color="#8e7e0e"/>
      <stop offset="1.0" stop-color="#e7d454"/>
    </linearGradient>
  </defs>
</svg>
