<?xml version="1.0" encoding="UTF-8" standalone="no"?>
<svg xmlns:ffdec="https://www.free-decompiler.com/flash" xmlns:xlink="http://www.w3.org/1999/xlink" ffdec:objectType="frame" height="325.4px" width="230.7px" xmlns="http://www.w3.org/2000/svg">
  <g transform="matrix(1.0, 0.0, 0.0, 1.0, 115.35, 162.7)">
    <use ffdec:characterId="2444" height="325.4" transform="matrix(1.0, 0.0, 0.0, 1.0, -115.35, -162.7)" width="230.7" xlink:href="#shape0"/>
  </g>
  <defs>
    <g id="shape0" transform="matrix(1.0, 0.0, 0.0, 1.0, 115.35, 162.7)">
      <path d="M77.55 -50.7 L78.25 -51.45 78.6 -51.25 79.2 -51.25 Q93.0 -55.4 99.0 -52.9 107.35 -49.1 109.25 -36.85 111.1 -24.25 105.5 -10.2 103.1 -4.4 100.0 0.3 L99.05 1.75 99.0 1.75 Q78.9 32.7 76.95 65.15 L76.95 65.25 Q77.0 104.85 68.35 120.55 L68.3 120.6 Q67.35 122.55 66.35 123.25 L64.9 123.05 Q62.55 121.35 59.8 113.55 L59.75 113.45 Q57.2 108.25 50.7 104.65 L49.85 104.55 Q49.45 104.65 49.3 105.1 39.85 122.55 34.55 144.4 L34.35 145.3 34.1 146.5 Q32.55 152.05 28.4 152.35 23.75 152.55 16.1 146.85 0.1 135.05 -28.55 98.65 -96.05 6.2 -103.85 -70.55 L-103.85 -70.6 -103.9 -71.35 -103.9 -71.4 Q-105.2 -80.55 -104.45 -90.35 -102.55 -119.55 -85.65 -137.45 -68.7 -155.15 -26.85 -143.7 L-20.15 -141.9 -19.55 -141.95 -19.25 -142.1 -18.6 -141.25 -19.2 -140.95 -20.5 -140.9 -27.1 -142.7 Q-68.25 -153.95 -84.95 -136.7 -101.55 -119.1 -103.45 -90.3 -104.15 -80.6 -102.85 -71.55 L-102.85 -71.5 -102.8 -70.7 Q-95.05 5.8 -27.7 98.0 L-27.75 97.95 Q0.75 134.25 16.75 146.05 24.0 151.35 28.4 151.3 31.7 150.95 33.05 146.45 L33.35 145.05 33.5 144.2 33.5 144.15 Q38.95 122.2 48.4 104.6 48.75 103.85 49.6 103.55 50.45 103.3 51.15 103.75 58.0 107.45 60.65 112.95 L60.75 113.15 Q63.35 120.5 65.55 122.2 L65.9 122.3 Q66.6 121.7 67.4 120.15 L67.45 120.05 Q76.0 104.45 75.95 65.25 L75.95 65.15 Q77.85 32.4 98.2 1.2 L98.2 1.1 99.2 -0.2 99.25 -0.3 Q102.2 -5.0 104.55 -10.65 L104.55 -10.6 Q110.0 -24.3 108.2 -36.7 106.4 -48.3 98.55 -51.9 92.8 -54.25 79.5 -50.2 L78.2 -50.25 Q77.8 -50.4 77.55 -50.7" fill="#168000" fill-opacity="0.31764707" fill-rule="evenodd" stroke="none"/>
      <path d="M77.55 -50.7 Q77.8 -50.4 78.2 -50.25 L79.5 -50.2 Q92.8 -54.25 98.55 -51.9 106.4 -48.3 108.2 -36.7 110.0 -24.3 104.55 -10.6 L104.55 -10.65 Q102.2 -5.0 99.25 -0.3 L99.2 -0.2 98.2 1.1 98.2 1.2 Q77.85 32.4 75.95 65.15 L75.95 65.25 Q76.0 104.45 67.45 120.05 L67.4 120.15 Q66.6 121.7 65.9 122.3 L65.55 122.2 Q63.35 120.5 60.75 113.15 L60.65 112.95 Q58.0 107.45 51.15 103.75 50.45 103.3 49.6 103.55 48.75 103.85 48.4 104.6 38.95 122.2 33.5 144.15 L33.5 144.2 33.35 145.05 33.05 146.45 Q31.7 150.95 28.4 151.3 24.0 151.35 16.75 146.05 0.75 134.25 -27.75 97.95 L-27.7 98.0 Q-95.05 5.8 -102.8 -70.7 L-102.85 -71.5 -102.85 -71.55 Q-104.15 -80.6 -103.45 -90.3 -101.55 -119.1 -84.95 -136.7 -68.25 -153.95 -27.1 -142.7 L-20.5 -140.9 -19.2 -140.95 -18.6 -141.25 -18.0 -140.45 Q-18.35 -140.15 -18.8 -139.95 L-20.8 -139.9 -27.35 -141.7 Q-67.8 -152.7 -84.15 -135.95 L-84.15 -136.0 Q-100.55 -118.6 -102.4 -90.25 -103.15 -80.65 -101.85 -71.7 L-101.85 -71.6 -101.8 -70.85 -101.8 -70.8 Q-94.05 5.4 -26.9 97.3 1.45 133.4 17.35 145.2 24.25 150.25 28.35 150.25 30.95 149.85 32.1 146.25 32.15 145.45 32.35 144.85 L32.55 143.95 Q37.95 121.75 47.45 104.1 48.15 102.95 49.35 102.6 50.55 102.15 51.65 102.8 58.8 106.7 61.55 112.5 L61.7 112.8 Q63.95 119.05 65.75 120.95 L66.45 119.7 66.6 119.5 Q74.95 104.1 74.9 65.3 L74.9 65.1 Q76.85 32.1 97.35 0.65 L97.4 0.55 98.4 -0.95 Q101.3 -5.45 103.6 -11.0 L103.55 -11.0 Q108.95 -24.4 107.2 -36.5 105.5 -47.55 98.15 -50.95 92.6 -53.15 79.75 -49.2 L77.75 -49.3 76.85 -49.9 77.55 -50.7" fill="#168000" fill-opacity="0.23529412" fill-rule="evenodd" stroke="none"/>
      <path d="M-19.25 -142.1 L-19.55 -141.95 -20.15 -141.9 -26.85 -143.7 Q-68.7 -155.15 -85.65 -137.45 -102.55 -119.55 -104.45 -90.35 -105.2 -80.55 -103.9 -71.4 L-103.9 -71.35 -103.85 -70.6 -103.85 -70.55 Q-96.05 6.2 -28.55 98.65 0.1 135.05 16.1 146.85 23.75 152.55 28.4 152.35 32.55 152.05 34.1 146.5 L34.35 145.3 34.55 144.4 Q39.85 122.55 49.3 105.1 49.45 104.65 49.85 104.55 L50.7 104.65 Q57.2 108.25 59.75 113.45 L59.8 113.55 Q62.55 121.35 64.9 123.05 L66.35 123.25 Q67.35 122.55 68.3 120.6 L68.35 120.55 Q77.0 104.85 76.95 65.25 L76.95 65.15 Q78.9 32.7 99.0 1.75 L99.05 1.75 100.0 0.3 Q103.1 -4.4 105.5 -10.2 111.1 -24.25 109.25 -36.85 107.35 -49.1 99.0 -52.9 93.0 -55.4 79.2 -51.25 L78.6 -51.25 78.25 -51.45 Q80.95 -54.4 84.05 -56.7 94.7 -64.75 103.75 -60.7 112.7 -56.65 114.85 -42.9 116.9 -29.2 110.8 -13.8 108.25 -7.35 104.9 -2.2 L103.75 -0.55 Q82.5 32.75 80.45 67.2 80.5 109.9 71.15 127.1 66.25 137.15 60.0 119.65 57.4 114.55 50.8 111.05 40.95 129.85 35.2 153.1 L35.0 154.15 34.7 155.35 Q27.35 183.05 -34.0 106.35 -106.1 9.0 -114.4 -73.1 L-114.5 -73.95 Q-115.8 -83.8 -115.1 -94.4 -113.0 -126.15 -94.75 -145.95 -76.35 -165.8 -52.45 -162.15 -33.05 -159.2 -19.25 -142.1" fill="#168000" fill-opacity="0.4" fill-rule="evenodd" stroke="none"/>
      <path d="M76.2 -49.1 L77.4 -48.3 80.1 -48.2 Q92.4 -52.0 97.75 -50.0 104.55 -46.7 106.1 -36.3 107.9 -24.45 102.65 -11.35 100.4 -5.85 97.45 -1.35 L96.55 -0.05 96.5 0.05 Q75.8 31.75 73.85 65.05 L73.85 65.3 Q73.9 103.75 65.7 119.05 L65.65 119.1 Q64.25 117.0 62.65 112.45 L62.45 111.95 Q59.6 106.0 52.2 101.9 50.65 101.05 49.05 101.6 47.4 102.05 46.6 103.6 37.05 121.4 31.55 143.65 L31.55 143.7 31.4 144.4 31.35 144.5 31.35 144.55 31.3 144.8 31.1 145.85 Q30.25 148.75 28.35 149.2 24.5 149.1 17.9 144.3 2.15 132.6 -26.15 96.6 L-26.05 96.75 Q-93.05 5.1 -100.75 -70.9 L-100.8 -71.0 -100.8 -71.75 -100.85 -71.85 Q-102.1 -80.75 -101.4 -90.2 -99.55 -118.15 -83.5 -135.3 -67.4 -151.45 -27.65 -140.7 L-21.05 -138.85 -18.45 -139.0 Q-17.85 -139.25 -17.35 -139.65 L-16.7 -138.8 Q-17.4 -138.3 -18.15 -138.0 L-21.4 -137.85 -27.9 -139.7 Q-66.95 -150.25 -82.75 -134.55 -98.55 -117.65 -100.4 -90.15 L-100.4 -90.1 Q-101.0 -80.75 -99.85 -72.0 L-99.85 -71.85 -99.8 -71.2 -99.75 -71.05 Q-92.0 4.7 -25.25 96.15 L-25.35 95.95 Q2.8 131.75 18.6 143.45 24.7 147.95 28.3 148.2 29.45 147.7 30.1 145.65 L30.4 144.2 30.6 143.5 30.6 143.45 Q36.05 121.05 45.7 103.15 46.7 101.2 48.8 100.6 50.8 99.9 52.65 100.95 60.45 105.2 63.45 111.5 L63.65 112.0 Q64.65 115.0 65.65 116.9 72.9 101.4 72.85 65.3 L72.85 65.0 Q74.8 31.45 95.6 -0.5 L95.7 -0.7 96.8 -2.15 Q99.5 -6.5 101.65 -11.8 L101.65 -11.75 Q106.85 -24.6 105.15 -36.15 103.65 -45.9 97.3 -49.0 92.2 -50.85 80.35 -47.2 L77.05 -47.4 Q76.2 -47.7 75.5 -48.25 L76.2 -49.1" fill="#168000" fill-opacity="0.078431375" fill-rule="evenodd" stroke="none"/>
      <path d="M76.85 -49.9 L77.75 -49.3 79.75 -49.2 Q92.6 -53.15 98.15 -50.95 105.5 -47.55 107.2 -36.5 108.95 -24.4 103.55 -11.0 L103.6 -11.0 Q101.3 -5.45 98.4 -0.95 L97.4 0.55 97.35 0.65 Q76.85 32.1 74.9 65.1 L74.9 65.3 Q74.95 104.1 66.6 119.5 L66.45 119.7 65.75 120.95 Q63.95 119.05 61.7 112.8 L61.55 112.5 Q58.8 106.7 51.65 102.8 50.55 102.15 49.35 102.6 48.15 102.95 47.45 104.1 37.95 121.75 32.55 143.95 L32.35 144.85 Q32.15 145.45 32.1 146.25 30.95 149.85 28.35 150.25 24.25 150.25 17.35 145.2 1.45 133.4 -26.9 97.3 -94.05 5.4 -101.8 -70.8 L-101.8 -70.85 -101.85 -71.6 -101.85 -71.7 Q-103.15 -80.65 -102.4 -90.25 -100.55 -118.6 -84.15 -136.0 L-84.15 -135.95 Q-67.8 -152.7 -27.35 -141.7 L-20.8 -139.9 -18.8 -139.95 Q-18.35 -140.15 -18.0 -140.45 L-17.35 -139.65 Q-17.85 -139.25 -18.45 -139.0 L-21.05 -138.85 -27.65 -140.7 Q-67.4 -151.45 -83.5 -135.3 -99.55 -118.15 -101.4 -90.2 -102.1 -80.75 -100.85 -71.85 L-100.8 -71.75 -100.8 -71.0 -100.75 -70.9 Q-93.05 5.1 -26.05 96.75 L-26.15 96.6 Q2.15 132.6 17.9 144.3 24.5 149.1 28.35 149.2 30.25 148.75 31.1 145.85 L31.3 144.8 31.35 144.55 31.35 144.5 31.4 144.4 31.55 143.7 31.55 143.65 Q37.05 121.4 46.6 103.6 47.4 102.05 49.05 101.6 50.65 101.05 52.2 101.9 59.6 106.0 62.45 111.95 L62.65 112.45 Q64.25 117.0 65.65 119.1 L65.7 119.05 Q73.9 103.75 73.85 65.3 L73.85 65.05 Q75.8 31.75 96.5 0.05 L96.55 -0.05 97.45 -1.35 Q100.4 -5.85 102.65 -11.35 107.9 -24.45 106.1 -36.3 104.55 -46.7 97.75 -50.0 92.4 -52.0 80.1 -48.2 L77.4 -48.3 76.2 -49.1 76.85 -49.9" fill="#168000" fill-opacity="0.15686275" fill-rule="evenodd" stroke="none"/>
    </g>
  </defs>
</svg>
