<?xml version="1.0" encoding="UTF-8" standalone="no"?>
<svg xmlns:ffdec="https://www.free-decompiler.com/flash" xmlns:xlink="http://www.w3.org/1999/xlink" ffdec:objectType="frame" height="64.85px" width="98.05px" xmlns="http://www.w3.org/2000/svg">
  <g transform="matrix(1.0, 0.0, 0.0, 1.0, 42.8, -45.25)">
    <use ffdec:characterId="2185" height="64.85" transform="matrix(1.0, 0.0, 0.0, 1.0, -42.8, 45.25)" width="98.05" xlink:href="#shape0"/>
  </g>
  <defs>
    <g id="shape0" transform="matrix(1.0, 0.0, 0.0, 1.0, 42.8, -45.25)">
      <path d="M-7.95 58.6 L-7.65 58.65 -7.45 58.9 -7.4 59.2 Q-8.55 68.0 -13.55 75.2 -21.0 86.15 -33.1 83.6 -37.45 82.5 -40.05 78.85 -44.2 72.55 -40.75 66.05 -37.75 61.25 -32.55 59.75 -27.15 58.35 -21.6 59.0 L-7.95 58.6 M-39.95 66.6 L-39.95 66.55 Q-43.1 72.45 -39.3 78.25 -36.9 81.6 -32.9 82.6 -21.35 85.05 -14.25 74.6 -9.65 67.85 -8.45 59.7 -15.2 60.45 -21.65 60.0 L-21.7 60.0 Q-27.05 59.35 -32.3 60.7 -37.2 62.15 -39.95 66.6" fill="#7b4a00" fill-rule="evenodd" stroke="none"/>
      <path d="M-39.95 66.6 Q-37.2 62.15 -32.3 60.7 -27.05 59.35 -21.7 60.0 L-21.65 60.0 Q-15.2 60.45 -8.45 59.7 -9.65 67.85 -14.25 74.6 -21.35 85.05 -32.9 82.6 -36.9 81.6 -39.3 78.25 -43.1 72.45 -39.95 66.55 L-39.95 66.6" fill="url(#gradient0)" fill-rule="evenodd" stroke="none"/>
      <path d="M45.95 46.8 L46.0 46.65 46.1 46.8 46.25 46.9 Q54.8 54.3 54.2 65.55 53.6 76.65 47.6 85.95 41.35 95.6 30.95 100.85 21.1 105.85 10.35 108.0 -1.45 110.1 -13.1 108.1 -25.0 106.25 -34.15 98.65 -38.95 94.65 -40.7 89.9 L-40.75 89.8 Q-42.35 85.55 -41.55 80.7 -39.85 70.15 -30.4 60.85 L-18.8 58.55 Q-10.6 57.05 -4.7 56.45 L-4.65 56.45 13.25 55.9 20.35 56.65 20.8 56.65 28.35 56.9 Q44.95 61.0 48.5 58.0 52.0 55.0 45.95 46.8" fill="url(#gradient1)" fill-rule="evenodd" stroke="none"/>
      <path d="M45.25 45.65 L45.4 45.35 45.6 45.25 45.7 45.25 46.05 45.35 Q55.85 53.25 55.2 65.6 54.6 76.95 48.45 86.5 42.05 96.4 31.4 101.75 21.4 106.85 10.5 109.0 -1.45 111.1 -13.25 109.1 -25.4 107.15 -34.8 99.4 -39.9 95.2 -41.7 90.15 L-41.8 89.95 Q-43.35 85.55 -42.55 80.55 -40.8 69.7 -31.15 60.2 L-30.2 59.75 -19.0 57.55 Q-10.75 56.05 -4.8 55.45 L13.4 54.9 20.85 55.65 21.15 55.7 29.4 55.9 30.95 55.9 Q38.15 55.55 41.1 52.65 44.3 49.4 45.25 45.65 M28.35 56.9 L20.8 56.65 20.35 56.65 13.25 55.9 -4.65 56.45 -4.7 56.45 Q-10.6 57.05 -18.8 58.55 L-30.4 60.85 Q-39.85 70.15 -41.55 80.7 -42.35 85.55 -40.75 89.8 L-40.7 89.9 Q-38.95 94.65 -34.15 98.65 -25.0 106.25 -13.1 108.1 -1.45 110.1 10.35 108.0 21.1 105.85 30.95 100.85 41.35 95.6 47.6 85.95 53.6 76.65 54.2 65.55 54.8 54.3 46.25 46.9 L46.1 46.8 46.0 46.65 45.95 46.8 Q44.8 50.3 41.8 53.35 39.65 55.5 35.45 56.35 L33.2 56.7 29.4 56.9 28.35 56.9" fill="#7b4a00" fill-rule="evenodd" stroke="none"/>
      <path d="M28.35 56.9 L29.4 56.9 33.2 56.7 35.45 56.35 Q39.65 55.5 41.8 53.35 44.8 50.3 45.95 46.8 52.0 55.0 48.5 58.0 44.95 61.0 28.35 56.9" fill="url(#gradient2)" fill-rule="evenodd" stroke="none"/>
      <path d="M29.4 56.9 Q38.35 56.85 41.8 53.35 44.9 50.25 46.0 46.65 54.8 54.1 54.2 65.55 53.6 76.65 47.6 85.95 41.35 95.6 30.95 100.85 21.1 105.85 10.35 108.0 -1.45 110.1 -13.1 108.1 -25.0 106.25 -34.15 98.65 -38.95 94.65 -40.7 89.9 L-40.75 89.8 Q-42.35 85.55 -41.55 80.7 -39.85 70.15 -30.4 60.85 L-18.8 58.55 Q-10.6 57.05 -4.7 56.45 L-4.65 56.45 13.25 55.9 20.35 56.65 20.8 56.65 29.4 56.9" fill="url(#gradient3)" fill-rule="evenodd" stroke="none"/>
      <path d="M16.0 59.4 Q5.85 70.4 -10.3 80.1 -27.2 90.25 -33.95 90.05 L-40.75 89.8 Q-42.35 85.55 -41.55 80.7 -39.85 70.15 -30.4 60.85 L-18.8 58.55 Q-10.6 57.05 -4.7 56.45 L-4.65 56.45 13.25 55.9 20.35 56.65 16.8 56.55 16.0 59.4" fill="url(#gradient4)" fill-rule="evenodd" stroke="none"/>
      <path d="M9.15 83.55 Q10.75 80.9 12.6 79.1 L47.25 74.85 Q45.7 91.55 36.65 97.9 27.6 104.25 20.05 106.05 12.45 107.8 8.7 104.85 4.9 101.85 4.9 96.85 4.9 90.45 9.15 83.55" fill="url(#gradient5)" fill-rule="evenodd" stroke="none"/>
      <path d="M12.15 81.2 Q15.15 76.75 20.55 75.3 26.3 73.95 32.2 74.6 L32.25 74.6 Q39.3 75.05 46.75 74.3 45.4 82.45 40.35 89.2 32.55 99.65 19.9 97.2 15.5 96.2 12.85 92.85 8.7 87.05 12.15 81.15 L12.15 81.2" fill="url(#gradient6)" fill-rule="evenodd" stroke="none"/>
      <path d="M32.3 73.6 Q39.6 74.05 47.3 73.2 L47.6 73.25 47.8 73.5 47.85 73.8 Q46.6 82.6 41.15 89.8 32.95 100.75 19.7 98.2 14.9 97.1 12.05 93.45 7.5 87.15 11.3 80.65 14.55 75.85 20.3 74.35 26.2 72.95 32.3 73.6 M12.15 81.2 L12.15 81.15 Q8.7 87.05 12.85 92.85 15.5 96.2 19.9 97.2 32.55 99.65 40.35 89.2 45.4 82.45 46.75 74.3 39.3 75.05 32.25 74.6 L32.2 74.6 Q26.3 73.95 20.55 75.3 15.15 76.75 12.15 81.2" fill="#7b4a00" fill-rule="evenodd" stroke="none"/>
      <path d="M32.2 74.6 L32.25 74.6 Q39.3 75.05 46.75 74.3 45.4 82.45 40.35 89.2 32.55 99.65 19.9 97.2 15.5 96.2 12.85 92.85 8.7 87.05 12.15 81.15 L12.15 81.2 Q15.15 76.75 20.55 75.3 26.3 73.95 32.2 74.6" fill="url(#gradient7)" fill-rule="evenodd" stroke="none"/>
      <path d="M33.3 66.25 L33.4 66.4 33.45 67.1 8.7 76.75 Q6.5 76.75 5.75 75.5 L5.45 74.2 Q5.45 71.8 9.45 69.2 14.05 66.25 20.0 66.25 L22.2 66.7 24.4 67.1 28.35 66.7 33.3 66.25" fill="url(#gradient8)" fill-rule="evenodd" stroke="none"/>
      <path d="M26.3 68.5 Q25.3 67.7 25.3 66.6 25.3 65.5 26.3 64.7 27.3 63.9 28.75 63.9 30.2 63.9 31.2 64.7 32.2 65.5 32.2 66.6 32.2 67.7 31.2 68.5 30.2 69.3 28.75 69.3 27.3 69.3 26.3 68.5 M33.7 66.25 L33.0 66.05 32.75 65.55 Q32.75 65.25 33.0 65.05 L33.7 64.85 Q34.1 64.85 34.35 65.05 L34.65 65.55 34.35 66.05 Q34.1 66.25 33.7 66.25" fill="#fffbe5" fill-opacity="0.6" fill-rule="evenodd" stroke="none"/>
    </g>
    <radialGradient cx="0" cy="0" gradientTransform="matrix(0.0165, -0.0049, 0.0033, 0.0156, -28.75, 72.35)" gradientUnits="userSpaceOnUse" id="gradient0" r="819.2" spreadMethod="pad">
      <stop offset="0.8" stop-color="#ad6900"/>
      <stop offset="1.0" stop-color="#ffb500"/>
    </radialGradient>
    <radialGradient cx="0" cy="0" gradientTransform="matrix(0.0602, -0.0254, 0.0121, 0.0317, 20.45, 73.85)" gradientUnits="userSpaceOnUse" id="gradient1" r="819.2" spreadMethod="pad">
      <stop offset="0.24313725490196078" stop-color="#ffef7e"/>
      <stop offset="0.8" stop-color="#de9e00"/>
    </radialGradient>
    <radialGradient cx="0" cy="0" gradientTransform="matrix(0.0266, 0.0027, -0.0016, 0.0159, 47.1, 45.05)" gradientUnits="userSpaceOnUse" id="gradient2" r="819.2" spreadMethod="pad">
      <stop offset="0.2980392156862745" stop-color="#e7b600"/>
      <stop offset="0.8784313725490196" stop-color="#ffef7e"/>
    </radialGradient>
    <radialGradient cx="0" cy="0" gradientTransform="matrix(0.0775, -0.0208, 0.0171, 0.0639, 0.55, 54.75)" gradientUnits="userSpaceOnUse" id="gradient3" r="819.2" spreadMethod="pad">
      <stop offset="0.6784313725490196" stop-color="#542900" stop-opacity="0.0"/>
      <stop offset="0.8901960784313725" stop-color="#7b2700" stop-opacity="0.4"/>
      <stop offset="0.9921568627450981" stop-color="#542900" stop-opacity="0.0"/>
    </radialGradient>
    <radialGradient cx="0" cy="0" gradientTransform="matrix(0.0564, 0.0231, -0.0252, 0.0613, -16.0, 44.5)" gradientUnits="userSpaceOnUse" id="gradient4" r="819.2" spreadMethod="pad">
      <stop offset="0.3607843137254902" stop-color="#542900" stop-opacity="0.4"/>
      <stop offset="0.8980392156862745" stop-color="#542900" stop-opacity="0.0"/>
    </radialGradient>
    <radialGradient cx="0" cy="0" gradientTransform="matrix(0.0394, 0.0, 0.0, 0.0394, 23.8, 79.1)" gradientUnits="userSpaceOnUse" id="gradient5" r="819.2" spreadMethod="pad">
      <stop offset="0.3607843137254902" stop-color="#542900" stop-opacity="0.4"/>
      <stop offset="0.8980392156862745" stop-color="#542900" stop-opacity="0.0"/>
    </radialGradient>
    <radialGradient cx="0" cy="0" gradientTransform="matrix(0.0286, -0.0077, 0.0042, 0.0182, 33.15, 74.95)" gradientUnits="userSpaceOnUse" id="gradient6" r="819.2" spreadMethod="pad">
      <stop offset="0.24313725490196078" stop-color="#ffef7e"/>
      <stop offset="0.8" stop-color="#de9e00"/>
    </radialGradient>
    <radialGradient cx="0" cy="0" gradientTransform="matrix(0.0242, -0.0139, 0.0094, 0.0164, 30.05, 80.5)" gradientUnits="userSpaceOnUse" id="gradient7" r="819.2" spreadMethod="pad">
      <stop offset="0.6352941176470588" stop-color="#542900" stop-opacity="0.0"/>
      <stop offset="0.8901960784313725" stop-color="#7b2700" stop-opacity="0.4"/>
      <stop offset="0.9921568627450981" stop-color="#542900" stop-opacity="0.0"/>
    </radialGradient>
    <radialGradient cx="0" cy="0" gradientTransform="matrix(0.0414, 0.0, 0.0, 0.0218, 38.5, 66.7)" gradientUnits="userSpaceOnUse" id="gradient8" r="819.2" spreadMethod="pad">
      <stop offset="0.0" stop-color="#fffad7" stop-opacity="0.101960786"/>
      <stop offset="1.0" stop-color="#fffad7" stop-opacity="0.627451"/>
    </radialGradient>
  </defs>
</svg>
