<?xml version="1.0" encoding="UTF-8" standalone="no"?>
<svg xmlns:ffdec="https://www.free-decompiler.com/flash" xmlns:xlink="http://www.w3.org/1999/xlink" ffdec:objectType="frame" height="25.15px" width="285.6px" xmlns="http://www.w3.org/2000/svg">
  <g transform="matrix(1.0, 0.0, 0.0, 1.0, 14.6, 10.65)">
    <use ffdec:characterId="1748" height="25.15" transform="matrix(1.0, 0.0, 0.0, 1.0, -14.6, -10.65)" width="285.6" xlink:href="#shape0"/>
  </g>
  <defs>
    <g id="shape0" transform="matrix(1.0, 0.0, 0.0, 1.0, 14.6, 10.65)">
      <path d="M3.5 -10.0 L-3.3 -10.65 2.9 -10.1 3.5 -10.0" fill="#1b1b1b" fill-rule="evenodd" stroke="none"/>
      <path d="M5.3 -9.85 Q135.05 3.85 264.7 -5.85 277.3 0.45 264.7 6.75 133.85 19.7 2.9 10.95 L-3.3 10.5 Q-7.95 10.5 -11.3 7.4 -14.6 4.3 -14.6 -0.1 -14.6 -4.45 -11.3 -7.55 -7.95 -10.65 -3.3 -10.65 L4.2 -9.95 5.3 -9.85" fill="#000000" fill-rule="evenodd" stroke="none"/>
    </g>
  </defs>
</svg>
