<?xml version="1.0" encoding="UTF-8" standalone="no"?>
<svg xmlns:ffdec="https://www.free-decompiler.com/flash" xmlns:xlink="http://www.w3.org/1999/xlink" ffdec:objectType="frame" height="18.0px" width="250.95px" xmlns="http://www.w3.org/2000/svg">
  <g transform="matrix(1.0, 0.0, 0.0, 1.0, 0.0, 0.0)">
    <filter id="filter12">
      <feColorMatrix in="SourceGraphic" result="filterResult0" type="matrix" values="0 0 0 0 0.27450982,0 0 0 0 0.14117648,0 0 0 0 0.0,0 0 0 1 0"/>
      <feConvolveMatrix divisor="9.0" in="filterResult0" kernelMatrix="1 1 1 1 1 1 1 1 1" order="3 3" result="filterResult1"/>
      <feComposite in="SourceGraphic" in2="filterResult1" operator="over" result="filterResult2"/>
      <feOffset dx="-1.2875920348588163" dy="2.1429201459149456" in="filterResult2" result="filterResult3"/>
      <feColorMatrix in="filterResult3" result="filterResult4" type="matrix" values="0 0 0 0 0.0,0 0 0 0 0.0,0 0 0 0 0.0,0 0 0 1 0"/>
      <feConvolveMatrix divisor="4.0" in="filterResult4" kernelMatrix="1 1 1 1" order="2 2" result="filterResult5"/>
      <feColorMatrix in="filterResult5" result="filterResult6" type="matrix" values="1 0 0 0 0,0 1 0 0 0,0 0 1 0 0,0 0 0 0.3984375 0"/>
      <feComposite in="filterResult2" in2="filterResult6" operator="over" result="filterResult7"/>
    </filter>
    <use ffdec:characterId="73" filter="url(#filter12)" height="18.0" id="tx" transform="matrix(1.0, 0.0, 0.0, 1.0, 0.0, 0.0)" width="250.95" xlink:href="#text0"/>
  </g>
  <defs>
    <g id="text0" transform="matrix(1.0, 0.0, 0.0, 1.0, 54.9, 2.0)">
      <g transform="matrix(1.0, 0.0, 0.0, 1.0, -54.9, -2.0)">
        <use fill="#ffff00" height="18.0" transform="matrix(0.0137, 0.0, 0.0, 0.0137, 86.9, 12.5)" width="250.95" xlink:href="#font_Burbank_Big_Regular_Bold_F0"/>
        <use fill="#ffff00" height="18.0" transform="matrix(0.0137, 0.0, 0.0, 0.0137, 93.05, 12.5)" width="250.95" xlink:href="#font_Burbank_Big_Regular_Bold_e0"/>
        <use fill="#ffff00" height="18.0" transform="matrix(0.0137, 0.0, 0.0, 0.0137, 100.3, 12.5)" width="250.95" xlink:href="#font_Burbank_Big_Regular_Bold_e0"/>
        <use fill="#ffff00" height="18.0" transform="matrix(0.0137, 0.0, 0.0, 0.0137, 107.55, 12.5)" width="250.95" xlink:href="#font_Burbank_Big_Regular_Bold_d0"/>
        <use fill="#ffff00" height="18.0" transform="matrix(0.0137, 0.0, 0.0, 0.0137, 115.0, 12.5)" width="250.95" xlink:href="#font_Burbank_Big_Regular_Bold_i0"/>
        <use fill="#ffff00" height="18.0" transform="matrix(0.0137, 0.0, 0.0, 0.0137, 118.35, 12.5)" width="250.95" xlink:href="#font_Burbank_Big_Regular_Bold_n0"/>
        <use fill="#ffff00" height="18.0" transform="matrix(0.0137, 0.0, 0.0, 0.0137, 125.35, 12.5)" width="250.95" xlink:href="#font_Burbank_Big_Regular_Bold_g0"/>
      </g>
      <g transform="matrix(1.0, 0.0, 0.0, 1.0, -54.9, -2.0)">
        <use fill="#ffff00" height="18.0" transform="matrix(0.0137, 0.0, 0.0, 0.0137, 135.1, 12.5)" width="250.95" xlink:href="#font_Burbank_Big_Regular_Bold_C0"/>
        <use fill="#ffff00" height="18.0" transform="matrix(0.0137, 0.0, 0.0, 0.0137, 143.0, 12.5)" width="250.95" xlink:href="#font_Burbank_Big_Regular_Bold_o0"/>
        <use fill="#ffff00" height="18.0" transform="matrix(0.0137, 0.0, 0.0, 0.0137, 150.4, 12.5)" width="250.95" xlink:href="#font_Burbank_Big_Regular_Bold_l0"/>
        <use fill="#ffff00" height="18.0" transform="matrix(0.0137, 0.0, 0.0, 0.0137, 153.7, 12.5)" width="250.95" xlink:href="#font_Burbank_Big_Regular_Bold_i0"/>
        <use fill="#ffff00" height="18.0" transform="matrix(0.0137, 0.0, 0.0, 0.0137, 157.05, 12.5)" width="250.95" xlink:href="#font_Burbank_Big_Regular_Bold_n0"/>
      </g>
    </g>
    <g id="font_Burbank_Big_Regular_Bold_F0">
      <path d="M45.0 -2.0 L45.0 -54.5 Q45.0 -106.5 44.0 -201.0 43.5 -296.0 41.5 -425.5 40.0 -555.0 37.0 -710.5 L70.0 -711.0 158.5 -712.0 Q214.5 -712.5 286.0 -713.5 358.0 -714.5 437.0 -716.0 L437.5 -675.0 Q437.5 -635.0 438.5 -563.0 L405.0 -563.0 320.0 -562.5 204.0 -560.0 Q203.5 -560.5 203.5 -514.0 203.5 -468.0 205.0 -374.0 217.5 -373.5 241.0 -373.5 264.5 -373.5 303.5 -374.0 342.5 -374.5 401.5 -376.0 L401.0 -335.5 Q401.0 -296.5 402.5 -227.5 L350.5 -227.5 Q299.5 -228.0 207.0 -227.5 L211.0 -3.0 127.0 -3.0 Q89.5 -2.5 67.5 -2.5 L45.0 -2.0" fill-rule="evenodd" stroke="none"/>
    </g>
    <g id="font_Burbank_Big_Regular_Bold_e0">
      <path d="M269.5 -423.0 Q234.0 -423.0 215.0 -390.0 196.5 -357.5 192.5 -293.0 222.5 -293.5 259.0 -294.5 L341.0 -298.0 Q340.0 -358.0 322.0 -390.5 304.0 -422.5 269.5 -423.0 M273.5 16.5 Q181.0 15.5 126.0 -20.0 70.5 -55.5 46.5 -117.5 22.0 -179.5 22.5 -260.0 22.5 -339.5 51.0 -399.5 79.0 -460.0 133.5 -494.0 187.5 -528.0 266.0 -528.5 360.5 -527.0 415.5 -488.0 470.5 -448.5 492.5 -379.0 514.5 -309.5 510.0 -217.0 L428.5 -216.0 Q347.5 -215.0 192.5 -212.0 197.0 -150.5 216.5 -121.5 236.0 -92.0 271.5 -92.0 299.0 -92.0 317.0 -112.5 334.5 -133.0 341.0 -175.0 L386.0 -173.5 Q430.5 -172.5 511.0 -170.0 488.0 -77.5 426.0 -30.5 364.0 16.5 273.5 16.5" fill-rule="evenodd" stroke="none"/>
    </g>
    <g id="font_Burbank_Big_Regular_Bold_d0">
      <path d="M272.5 -93.0 Q307.0 -92.5 328.0 -130.0 349.5 -167.5 350.0 -255.0 349.5 -333.0 329.5 -375.5 310.0 -418.5 271.5 -419.0 235.0 -418.0 215.5 -376.0 196.0 -333.5 195.5 -257.0 196.0 -173.5 216.5 -133.0 236.5 -93.0 272.5 -93.0 M509.0 20.5 L486.0 20.0 432.5 19.0 Q400.5 18.5 368.5 18.5 L370.0 -5.0 Q371.0 -27.5 371.5 -66.5 348.0 -27.0 311.0 -7.5 273.5 11.5 228.5 11.5 133.0 11.0 78.0 -56.5 23.5 -124.5 22.5 -259.0 22.5 -340.0 45.0 -400.0 67.5 -460.0 112.0 -493.5 156.0 -527.0 221.0 -527.5 263.0 -527.0 295.0 -508.5 327.5 -490.5 348.0 -461.0 347.5 -503.5 345.5 -563.5 344.0 -623.5 341.0 -702.5 L355.0 -702.5 Q369.0 -702.0 406.0 -702.5 443.0 -702.5 510.0 -703.5 L509.5 -646.5 508.5 -491.0 Q508.5 -391.5 508.0 -260.5 508.0 -130.0 509.0 20.5" fill-rule="evenodd" stroke="none"/>
    </g>
    <g id="font_Burbank_Big_Regular_Bold_i0">
      <path d="M124.0 -562.0 Q72.5 -562.5 47.0 -585.0 21.5 -607.5 21.5 -651.5 21.5 -691.5 47.5 -714.0 73.0 -737.0 124.0 -737.5 174.5 -736.5 199.0 -713.0 223.5 -689.5 223.0 -651.5 223.5 -612.0 199.5 -587.5 175.0 -563.0 124.0 -562.0 M43.0 -1.0 L43.0 -50.5 42.5 -213.5 Q42.0 -326.0 40.0 -513.0 L83.0 -513.0 Q125.5 -512.5 204.0 -514.0 L203.5 -473.0 Q203.5 -433.0 204.0 -362.5 204.0 -292.0 204.5 -199.5 205.5 -107.0 207.0 -2.0 L185.5 -2.0 Q164.0 -2.5 127.5 -2.0 90.5 -2.0 43.0 -1.0" fill-rule="evenodd" stroke="none"/>
    </g>
    <g id="font_Burbank_Big_Regular_Bold_n0">
      <path d="M320.5 19.5 L321.0 -10.0 322.0 -86.5 322.0 -192.5 Q322.5 -251.0 321.5 -310.5 322.0 -346.0 311.0 -366.0 299.5 -385.5 272.5 -386.0 238.5 -385.0 220.0 -356.0 201.5 -327.0 199.5 -281.5 L198.5 -208.5 198.5 -120.5 198.5 -46.5 198.5 -15.5 173.0 -16.0 Q148.0 -16.0 110.0 -16.5 72.5 -16.5 34.0 -15.5 L34.5 -77.0 35.5 -246.5 Q36.0 -355.5 35.0 -502.0 35.5 -501.5 54.5 -501.5 74.0 -501.0 103.5 -501.0 L165.0 -503.0 164.5 -490.5 163.5 -460.5 Q163.5 -441.5 164.0 -421.0 185.0 -468.0 228.5 -497.5 272.0 -527.0 332.0 -527.5 404.5 -526.0 442.5 -481.0 480.0 -436.0 482.5 -353.5 L484.0 -286.5 Q484.5 -242.5 484.5 -190.5 485.0 -138.5 485.0 -91.0 L485.5 -13.0 485.5 18.5 438.0 18.5 Q410.5 18.5 383.5 19.0 357.0 19.0 339.0 19.5 L320.5 19.5" fill-rule="evenodd" stroke="none"/>
    </g>
    <g id="font_Burbank_Big_Regular_Bold_g0">
      <path d="M349.0 132.0 Q349.5 117.0 337.5 105.5 325.5 94.5 296.0 88.0 266.5 81.0 214.0 78.0 192.5 89.5 182.0 103.5 171.0 117.5 171.0 133.0 171.5 158.0 195.0 170.5 218.5 183.0 258.0 182.5 300.0 182.0 324.5 168.5 348.5 155.5 349.0 132.0 M247.0 -197.5 Q276.5 -197.5 294.5 -225.0 313.0 -252.5 313.5 -312.5 313.5 -364.5 296.5 -394.5 280.0 -424.5 247.0 -425.0 213.5 -424.5 196.5 -395.0 179.5 -365.5 179.0 -312.5 179.5 -254.0 197.0 -226.0 215.0 -197.5 247.0 -197.5 M239.5 278.5 Q170.0 278.5 118.5 264.5 67.0 250.0 38.0 222.5 9.5 194.5 9.0 153.5 9.5 115.0 36.5 86.5 64.0 58.0 115.5 45.0 83.5 32.5 66.0 10.5 48.5 -11.0 48.0 -37.0 48.5 -65.5 67.5 -88.0 87.0 -111.0 122.0 -127.0 73.0 -151.5 46.0 -199.0 19.0 -246.5 18.5 -318.5 19.0 -385.5 47.0 -434.0 75.5 -482.5 126.5 -509.0 178.0 -535.0 247.0 -535.5 258.5 -535.5 269.0 -535.0 L291.0 -532.5 306.0 -603.5 Q315.5 -649.0 327.5 -713.5 328.5 -713.5 370.0 -698.0 411.5 -682.5 486.5 -657.5 485.5 -656.5 459.0 -614.5 432.0 -572.0 389.0 -497.5 431.0 -470.0 453.5 -424.0 476.0 -378.0 476.0 -316.5 475.5 -241.0 445.0 -193.0 414.5 -145.0 364.5 -122.5 314.5 -100.0 255.0 -100.5 227.5 -100.5 203.0 -103.5 197.5 -99.0 195.0 -93.5 192.5 -88.5 192.5 -83.0 192.0 -75.5 200.0 -69.0 208.0 -62.5 229.0 -57.5 250.5 -52.5 290.0 -49.0 405.0 -38.5 456.0 -1.5 507.0 35.5 506.0 101.5 504.5 161.0 467.0 200.5 429.0 240.0 368.5 259.0 308.5 278.5 239.5 278.5" fill-rule="evenodd" stroke="none"/>
    </g>
    <g id="font_Burbank_Big_Regular_Bold_C0">
      <path d="M299.0 17.5 Q165.5 18.5 94.5 -71.5 23.0 -161.0 22.5 -354.5 22.5 -537.0 92.5 -632.5 162.5 -728.5 302.0 -729.0 388.5 -728.5 443.5 -691.0 499.0 -653.0 526.5 -588.0 554.0 -522.5 557.0 -438.5 466.0 -435.5 422.0 -435.0 L378.0 -435.0 Q374.0 -518.5 353.5 -556.0 332.5 -593.5 295.0 -593.0 246.5 -593.0 224.5 -534.5 202.0 -476.0 203.0 -356.5 202.5 -232.0 226.0 -175.5 249.5 -119.0 298.0 -120.0 323.0 -119.0 342.0 -135.0 361.0 -151.0 372.0 -190.0 383.0 -229.0 384.0 -298.0 466.5 -298.0 516.0 -297.0 L566.5 -296.0 Q564.5 -184.0 531.0 -115.0 498.0 -45.5 438.5 -13.5 379.5 18.5 299.0 17.5" fill-rule="evenodd" stroke="none"/>
    </g>
    <g id="font_Burbank_Big_Regular_Bold_o0">
      <path d="M270.5 -97.5 Q306.0 -96.5 326.5 -135.0 347.0 -173.5 347.0 -261.0 347.5 -337.0 329.0 -377.0 310.5 -417.5 271.5 -418.0 234.0 -418.0 214.0 -379.5 194.0 -341.5 193.5 -265.0 193.5 -176.0 212.0 -136.5 230.5 -96.5 270.5 -97.5 M268.5 13.5 Q147.5 12.5 85.0 -59.5 23.0 -131.5 22.5 -265.0 23.0 -346.0 52.5 -405.0 82.5 -464.0 137.5 -496.0 192.5 -528.0 269.5 -528.5 349.5 -528.0 405.0 -495.0 460.0 -462.0 489.0 -402.0 517.5 -342.0 517.0 -260.0 516.5 -164.5 484.5 -104.0 453.0 -43.5 397.0 -15.0 341.0 13.5 268.5 13.5" fill-rule="evenodd" stroke="none"/>
    </g>
    <g id="font_Burbank_Big_Regular_Bold_l0">
      <path d="M201.5 -8.0 Q124.5 -9.5 81.5 -10.0 38.5 -10.5 38.0 -10.0 40.0 -256.0 40.0 -409.5 40.0 -562.5 39.5 -633.5 L39.0 -703.5 Q123.0 -702.0 163.5 -701.5 L204.0 -701.5 Q202.0 -497.5 201.5 -363.0 200.5 -228.0 201.0 -150.0 201.0 -72.5 201.5 -40.0 L201.5 -8.0" fill-rule="evenodd" stroke="none"/>
    </g>
  </defs>
</svg>
