<?xml version="1.0" encoding="UTF-8" standalone="no"?>
<svg xmlns:ffdec="https://www.free-decompiler.com/flash" xmlns:xlink="http://www.w3.org/1999/xlink" ffdec:objectType="frame" height="19.25px" width="17.55px" xmlns="http://www.w3.org/2000/svg">
  <g transform="matrix(1.0, 0.0, 0.0, 1.0, 8.7, 2.65)">
    <use ffdec:characterId="2665" height="19.25" transform="matrix(1.0, 0.0, 0.0, 1.0, -8.7, -2.65)" width="17.55" xlink:href="#shape0"/>
  </g>
  <defs>
    <g id="shape0" transform="matrix(1.0, 0.0, 0.0, 1.0, 8.7, 2.65)">
      <path d="M6.35 3.55 L-6.2 3.55 -6.2 1.85 Q-6.2 -0.15 -4.2 -0.15 L4.35 -0.15 Q6.35 -0.15 6.35 1.85 L6.35 3.55" fill="url(#gradient0)" fill-rule="evenodd" stroke="none"/>
      <path d="M6.35 9.15 L6.35 9.45 6.35 12.1 Q6.35 14.1 4.35 14.1 L-4.2 14.1 Q-6.2 14.1 -6.2 12.1 L-6.2 9.15 6.35 9.15" fill="url(#gradient1)" fill-rule="evenodd" stroke="none"/>
      <path d="M6.35 9.15 L-6.2 9.15 -6.2 9.1 6.35 9.1 6.35 9.15" fill="url(#gradient2)" fill-rule="evenodd" stroke="none"/>
      <path d="M6.35 3.55 L6.35 3.6 6.35 8.7 6.35 9.1 -6.2 9.1 -6.2 3.55 6.35 3.55" fill="url(#gradient3)" fill-rule="evenodd" stroke="none"/>
      <path d="M-6.2 9.15 L-6.2 12.1 Q-6.2 14.1 -4.2 14.1 L4.35 14.1 Q6.35 14.1 6.35 12.1 L6.35 9.45 M-6.2 3.55 L-6.2 9.1 -6.2 9.15 M6.35 8.7 L6.35 3.6 M6.35 9.15 L6.35 9.1 M6.35 3.55 L6.35 1.85 Q6.35 -0.15 4.35 -0.15 L-4.2 -0.15 Q-6.2 -0.15 -6.2 1.85 L-6.2 3.55" fill="none" stroke="#5eba01" stroke-linecap="round" stroke-linejoin="round" stroke-width="5.0"/>
      <path d="M6.35 3.55 L-6.2 3.55 -6.2 1.85 Q-6.2 -0.15 -4.2 -0.15 L4.35 -0.15 Q6.35 -0.15 6.35 1.85 L6.35 3.55" fill="url(#gradient4)" fill-rule="evenodd" stroke="none"/>
      <path d="M-6.2 9.15 L6.35 9.15 6.35 9.45 6.35 12.1 Q6.35 14.1 4.35 14.1 L-4.2 14.1 Q-6.2 14.1 -6.2 12.1 L-6.2 9.15" fill="url(#gradient5)" fill-rule="evenodd" stroke="none"/>
      <path d="M6.35 9.1 L6.35 9.15 -6.2 9.15 -6.2 9.1 6.35 9.1" fill="url(#gradient6)" fill-rule="evenodd" stroke="none"/>
      <path d="M6.35 9.1 L-6.2 9.1 -6.2 3.55 6.35 3.55 6.35 3.6 6.35 8.7 6.35 9.1" fill="url(#gradient7)" fill-rule="evenodd" stroke="none"/>
      <path d="M6.35 9.15 L6.35 9.1 M-6.2 9.1 L-6.2 9.15 -6.2 12.1 Q-6.2 14.1 -4.2 14.1 L4.35 14.1 Q6.35 14.1 6.35 12.1 L6.35 9.45 M-6.2 3.55 L-6.2 9.1 M6.35 8.7 L6.35 3.6 M6.35 3.55 L6.35 1.85 Q6.35 -0.15 4.35 -0.15 L-4.2 -0.15 Q-6.2 -0.15 -6.2 1.85 L-6.2 3.55" fill="none" stroke="#73e302" stroke-linecap="round" stroke-linejoin="round" stroke-width="3.0"/>
      <path d="M-6.2 3.55 L-6.2 1.85 Q-6.2 -0.15 -4.2 -0.15 L4.35 -0.15 Q6.35 -0.15 6.35 1.85 L6.35 3.55 -6.2 3.55" fill="url(#gradient8)" fill-rule="evenodd" stroke="none"/>
      <path d="M6.35 9.15 L6.35 9.45 6.35 12.1 Q6.35 14.1 4.35 14.1 L-4.2 14.1 Q-6.2 14.1 -6.2 12.1 L-6.2 9.15 6.35 9.15" fill="url(#gradient9)" fill-rule="evenodd" stroke="none"/>
      <path d="M6.35 9.1 L6.35 9.15 -6.2 9.15 -6.2 9.1 6.35 9.1" fill="url(#gradient10)" fill-rule="evenodd" stroke="none"/>
      <path d="M-6.2 3.55 L6.35 3.55 6.35 3.6 6.35 8.7 6.35 9.1 -6.2 9.1 -6.2 3.55" fill="url(#gradient11)" fill-rule="evenodd" stroke="none"/>
      <path d="M6.35 3.55 L6.35 1.85 Q6.35 -0.15 4.35 -0.15 L-4.2 -0.15 Q-6.2 -0.15 -6.2 1.85 L-6.2 3.55 -6.2 9.1 -6.2 9.15 -6.2 12.1 Q-6.2 14.1 -4.2 14.1 L4.35 14.1 Q6.35 14.1 6.35 12.1 L6.35 9.45 M6.35 3.6 L6.35 8.7 M6.35 9.1 L6.35 9.15" fill="none" stroke="#bdff76" stroke-linecap="round" stroke-linejoin="round" stroke-width="1.0"/>
    </g>
    <linearGradient gradientTransform="matrix(0.0077, 0.0, 0.0, 0.0279, 0.1, 22.7)" gradientUnits="userSpaceOnUse" id="gradient0" spreadMethod="pad" x1="-819.2" x2="819.2">
      <stop offset="0.0" stop-color="#e4ffc4"/>
      <stop offset="0.3607843137254902" stop-color="#d1fea0"/>
      <stop offset="0.7098039215686275" stop-color="#cffd8a"/>
    </linearGradient>
    <linearGradient gradientTransform="matrix(0.0077, 0.0, 0.0, 0.0279, 0.1, -8.8)" gradientUnits="userSpaceOnUse" id="gradient1" spreadMethod="pad" x1="-819.2" x2="819.2">
      <stop offset="0.0" stop-color="#e4ffc4"/>
      <stop offset="0.3607843137254902" stop-color="#d1fea0"/>
      <stop offset="0.7098039215686275" stop-color="#cffd8a"/>
    </linearGradient>
    <linearGradient gradientTransform="matrix(0.0077, 0.0, 0.0, 0.0279, 0.1, 24.45)" gradientUnits="userSpaceOnUse" id="gradient2" spreadMethod="pad" x1="-819.2" x2="819.2">
      <stop offset="0.0" stop-color="#e4ffc4"/>
      <stop offset="0.3607843137254902" stop-color="#d1fea0"/>
      <stop offset="0.7098039215686275" stop-color="#cffd8a"/>
    </linearGradient>
    <linearGradient gradientTransform="matrix(0.0077, 0.0, 0.0, 0.0463, 0.1, 35.2)" gradientUnits="userSpaceOnUse" id="gradient3" spreadMethod="pad" x1="-819.2" x2="819.2">
      <stop offset="0.0" stop-color="#e4ffc4"/>
      <stop offset="0.3607843137254902" stop-color="#d1fea0"/>
      <stop offset="0.7098039215686275" stop-color="#cffd8a"/>
    </linearGradient>
    <linearGradient gradientTransform="matrix(0.0077, 0.0, 0.0, 0.0279, 0.1, 22.7)" gradientUnits="userSpaceOnUse" id="gradient4" spreadMethod="pad" x1="-819.2" x2="819.2">
      <stop offset="0.0" stop-color="#e4ffc4"/>
      <stop offset="0.3607843137254902" stop-color="#d1fea0"/>
      <stop offset="0.7098039215686275" stop-color="#cffd8a"/>
    </linearGradient>
    <linearGradient gradientTransform="matrix(0.0077, 0.0, 0.0, 0.0279, 0.1, -8.8)" gradientUnits="userSpaceOnUse" id="gradient5" spreadMethod="pad" x1="-819.2" x2="819.2">
      <stop offset="0.0" stop-color="#e4ffc4"/>
      <stop offset="0.3607843137254902" stop-color="#d1fea0"/>
      <stop offset="0.7098039215686275" stop-color="#cffd8a"/>
    </linearGradient>
    <linearGradient gradientTransform="matrix(0.0077, 0.0, 0.0, 0.0279, 0.1, 24.45)" gradientUnits="userSpaceOnUse" id="gradient6" spreadMethod="pad" x1="-819.2" x2="819.2">
      <stop offset="0.0" stop-color="#e4ffc4"/>
      <stop offset="0.3607843137254902" stop-color="#d1fea0"/>
      <stop offset="0.7098039215686275" stop-color="#cffd8a"/>
    </linearGradient>
    <linearGradient gradientTransform="matrix(0.0077, 0.0, 0.0, 0.0463, 0.1, 35.2)" gradientUnits="userSpaceOnUse" id="gradient7" spreadMethod="pad" x1="-819.2" x2="819.2">
      <stop offset="0.0" stop-color="#e4ffc4"/>
      <stop offset="0.3607843137254902" stop-color="#d1fea0"/>
      <stop offset="0.7098039215686275" stop-color="#cffd8a"/>
    </linearGradient>
    <linearGradient gradientTransform="matrix(0.0117, 0.0, 0.0, 0.0279, 0.1, 22.7)" gradientUnits="userSpaceOnUse" id="gradient8" spreadMethod="pad" x1="-819.2" x2="819.2">
      <stop offset="0.13333333333333333" stop-color="#5eba01"/>
      <stop offset="0.28627450980392155" stop-color="#6fdb02"/>
      <stop offset="0.6470588235294118" stop-color="#6fdb02"/>
      <stop offset="0.8" stop-color="#5eba01"/>
    </linearGradient>
    <linearGradient gradientTransform="matrix(0.0117, 0.0, 0.0, 0.0279, 0.1, -8.8)" gradientUnits="userSpaceOnUse" id="gradient9" spreadMethod="pad" x1="-819.2" x2="819.2">
      <stop offset="0.13333333333333333" stop-color="#5eba01"/>
      <stop offset="0.28627450980392155" stop-color="#6fdb02"/>
      <stop offset="0.6470588235294118" stop-color="#6fdb02"/>
      <stop offset="0.8" stop-color="#5eba01"/>
    </linearGradient>
    <linearGradient gradientTransform="matrix(0.0117, 0.0, 0.0, 0.0279, 0.1, 24.45)" gradientUnits="userSpaceOnUse" id="gradient10" spreadMethod="pad" x1="-819.2" x2="819.2">
      <stop offset="0.13333333333333333" stop-color="#5eba01"/>
      <stop offset="0.28627450980392155" stop-color="#6fdb02"/>
      <stop offset="0.6470588235294118" stop-color="#6fdb02"/>
      <stop offset="0.8" stop-color="#5eba01"/>
    </linearGradient>
    <linearGradient gradientTransform="matrix(0.0117, 0.0, 0.0, 0.0463, 0.1, 35.2)" gradientUnits="userSpaceOnUse" id="gradient11" spreadMethod="pad" x1="-819.2" x2="819.2">
      <stop offset="0.13333333333333333" stop-color="#5eba01"/>
      <stop offset="0.28627450980392155" stop-color="#6fdb02"/>
      <stop offset="0.6470588235294118" stop-color="#6fdb02"/>
      <stop offset="0.8" stop-color="#5eba01"/>
    </linearGradient>
  </defs>
</svg>
