<?xml version="1.0" encoding="UTF-8" standalone="no"?>
<svg xmlns:ffdec="https://www.free-decompiler.com/flash" xmlns:xlink="http://www.w3.org/1999/xlink" ffdec:objectType="frame" height="16.55px" width="8.5px" xmlns="http://www.w3.org/2000/svg">
  <g transform="matrix(1.0, 0.0, 0.0, 1.0, 0.0, 0.0)">
    <use ffdec:characterId="144" height="16.55" transform="matrix(1.0, 0.0, 0.0, 1.0, 0.0, 0.0)" width="8.5" xlink:href="#shape0"/>
  </g>
  <defs>
    <g id="shape0" transform="matrix(1.0, 0.0, 0.0, 1.0, 0.0, 0.0)">
      <path d="M4.25 0.0 Q5.35 0.0 6.25 1.0 L7.25 2.6 Q8.5 5.25 8.5 9.0 8.5 12.75 7.25 15.35 L6.7 16.4 4.5 16.0 Q3.1 16.0 1.95 16.55 L1.25 15.35 Q0.0 12.75 0.0 9.0 0.0 5.25 1.25 2.6 L1.55 2.05 Q2.7 0.0 4.25 0.0" fill="#4aa613" fill-rule="evenodd" stroke="none"/>
    </g>
  </defs>
</svg>
