<?xml version="1.0" encoding="UTF-8" standalone="no"?>
<svg xmlns:ffdec="https://www.free-decompiler.com/flash" xmlns:xlink="http://www.w3.org/1999/xlink" ffdec:objectType="frame" height="145.15px" width="271.0px" xmlns="http://www.w3.org/2000/svg">
  <g transform="matrix(1.0, 0.0, 0.0, 1.0, -45.3, -34.1)">
    <use ffdec:characterId="319" height="145.15" transform="matrix(1.0, 0.0, 0.0, 1.0, 45.3, 34.1)" width="271.0" xlink:href="#shape0"/>
  </g>
  <defs>
    <g id="shape0" transform="matrix(1.0, 0.0, 0.0, 1.0, -45.3, -34.1)">
      <path d="M254.5 124.25 Q278.9 139.5 297.45 164.55 L282.65 172.55 Q238.0 115.35 143.35 106.4 L149.85 101.05 150.0 101.05 Q211.35 97.3 254.5 124.25" fill="url(#gradient0)" fill-rule="evenodd" stroke="none"/>
      <path d="M150.0 101.05 L153.55 97.45 Q248.35 80.25 307.5 143.15 L293.75 152.8 Q276.6 135.5 254.5 124.25 211.35 97.3 150.0 101.05" fill="url(#gradient1)" fill-rule="evenodd" stroke="none"/>
      <path d="M299.35 128.2 Q243.0 82.5 148.75 95.0 L153.95 88.35 Q246.35 61.0 312.0 117.15 L299.35 128.2" fill="url(#gradient2)" fill-rule="evenodd" stroke="none"/>
      <path d="M92.8 38.1 L123.9 73.55 168.15 57.2 144.0 97.65 173.25 134.65 127.25 124.3 101.1 163.55 96.75 116.55 51.35 103.8 94.7 85.2 92.8 38.1" fill="url(#gradient3)" fill-rule="evenodd" stroke="none"/>
      <path d="M92.8 38.1 L123.9 73.55 168.15 57.2 144.0 97.65 173.25 134.65 127.25 124.3 101.1 163.55 96.75 116.55 51.35 103.8 94.7 85.2 92.8 38.1 Z" fill="none" stroke="#3f0ba1" stroke-linecap="round" stroke-linejoin="round" stroke-width="8.0"/>
      <path d="M121.85 74.9 L166.1 58.55 141.95 99.0 171.2 136.0 125.2 125.65 99.05 164.9 94.7 117.9 49.3 105.15 92.65 86.55 90.75 39.45 121.85 74.9 Z" fill="none" stroke="#000000" stroke-linecap="round" stroke-linejoin="round" stroke-opacity="0.2" stroke-width="8.0"/>
      <path d="M149.65 91.8 Q176.2 82.95 199.0 81.2 219.45 79.65 239.75 83.65 279.4 91.5 312.15 121.4 L298.1 131.4 M147.9 98.95 Q208.75 85.65 260.25 108.15 278.1 115.9 292.25 127.0 303.0 135.4 306.65 141.15 L289.85 153.0 M149.2 104.65 Q196.65 103.35 227.65 113.9 265.55 126.75 297.7 161.8 L280.5 175.25 M153.4 110.45 Q193.9 117.55 219.0 129.45 249.65 144.0 280.3 175.1" fill="none" stroke="#000000" stroke-linecap="round" stroke-linejoin="round" stroke-opacity="0.18039216" stroke-width="8.0"/>
      <path d="M149.8 90.0 Q176.35 81.15 199.15 79.4 219.6 77.85 239.9 81.85 279.55 89.7 312.3 119.6 L298.25 129.6 M148.05 97.15 Q208.9 83.85 260.4 106.35 278.25 114.1 292.4 125.2 303.15 133.6 306.8 139.35 L290.0 151.2 M149.35 102.85 Q196.8 101.55 227.8 112.1 265.7 124.95 297.85 160.0 L280.65 173.45 M153.55 108.65 Q194.05 115.75 219.15 127.65 249.8 142.2 280.45 173.3" fill="none" stroke="#3f0ba1" stroke-linecap="round" stroke-linejoin="round" stroke-width="8.0"/>
      <path d="M149.8 90.0 Q176.35 81.15 199.15 79.4 219.6 77.85 239.9 81.85 279.55 89.7 312.3 119.6 L298.25 129.6 M148.05 97.15 Q208.9 83.85 260.4 106.35 278.25 114.1 292.4 125.2 303.15 133.6 306.8 139.35 L290.0 151.2 M149.35 102.85 Q196.8 101.55 227.8 112.1 265.7 124.95 297.85 160.0 L280.65 173.45 M153.55 108.65 Q194.05 115.75 219.15 127.65 249.8 142.2 280.45 173.3" fill="none" stroke="#bfbd01" stroke-linecap="round" stroke-linejoin="round" stroke-width="6.0"/>
      <path d="M92.8 38.1 L123.9 73.55 168.15 57.2 144.0 97.65 173.25 134.65 127.25 124.3 101.1 163.55 96.75 116.55 51.35 103.8 94.7 85.2 92.8 38.1 Z" fill="none" stroke="#bfbd01" stroke-linecap="round" stroke-linejoin="round" stroke-width="6.0"/>
      <path d="M149.8 90.0 Q176.35 81.15 199.15 79.4 219.6 77.85 239.9 81.85 279.55 89.7 312.3 119.6 L298.25 129.6 M148.05 97.15 Q208.9 83.85 260.4 106.35 278.25 114.1 292.4 125.2 303.15 133.6 306.8 139.35 L290.0 151.2 M149.35 102.85 Q196.8 101.55 227.8 112.1 265.7 124.95 297.85 160.0 L280.65 173.45 M153.55 108.65 Q194.05 115.75 219.15 127.65 249.8 142.2 280.45 173.3 M92.8 38.1 L123.9 73.55 168.15 57.2 144.0 97.65 173.25 134.65 127.25 124.3 101.1 163.55 96.75 116.55 51.35 103.8 94.7 85.2 92.8 38.1 Z" fill="none" stroke="#ffffff" stroke-linecap="round" stroke-linejoin="round" stroke-opacity="0.16862746" stroke-width="3.5"/>
      <path d="M280.45 173.3 Q249.85 142.3 218.65 127.6 193.3 115.65 152.65 108.6 L173.25 134.65 127.25 124.3 101.1 163.55 96.75 116.55 51.35 103.8 94.7 85.2 92.8 38.1 123.9 73.55 168.15 57.2 148.5 90.15 Q175.15 81.35 198.5 79.5 219.65 77.85 239.9 81.85 279.55 89.7 312.3 119.6 L298.25 129.6 M144.45 97.8 Q205.35 84.5 258.6 106.65 277.1 114.35 291.85 125.3 303.25 133.75 306.8 139.35 L290.0 151.2 M280.65 173.45 L297.85 160.0 Q265.8 125.0 227.3 112.15 196.0 101.65 148.25 103.05 L152.65 108.6 M148.25 103.05 L144.0 97.65 148.5 90.15" fill="none" stroke="#ffffff" stroke-linecap="round" stroke-linejoin="round" stroke-opacity="0.2509804" stroke-width="1.7000000000000002"/>
    </g>
    <linearGradient gradientTransform="matrix(-0.0886, -0.0327, 0.0103, -0.0279, 216.3, 133.0)" gradientUnits="userSpaceOnUse" id="gradient0" spreadMethod="pad" x1="-819.2" x2="819.2">
      <stop offset="0.0" stop-color="#d24574"/>
      <stop offset="0.09803921568627451" stop-color="#ff6699"/>
      <stop offset="0.4588235294117647" stop-color="#f3bf14"/>
      <stop offset="0.7294117647058823" stop-color="#f3bf14"/>
      <stop offset="0.8745098039215686" stop-color="#dbd800"/>
      <stop offset="1.0" stop-color="#fffedb"/>
    </linearGradient>
    <linearGradient gradientTransform="matrix(-0.0919, -0.0221, 0.007, -0.0289, 224.35, 119.95)" gradientUnits="userSpaceOnUse" id="gradient1" spreadMethod="pad" x1="-819.2" x2="819.2">
      <stop offset="0.0" stop-color="#54de3d"/>
      <stop offset="0.10588235294117647" stop-color="#79ff66"/>
      <stop offset="0.4588235294117647" stop-color="#f3bf14"/>
      <stop offset="0.7294117647058823" stop-color="#f3bf14"/>
      <stop offset="0.8745098039215686" stop-color="#dbd800"/>
      <stop offset="1.0" stop-color="#fffedb"/>
    </linearGradient>
    <linearGradient gradientTransform="matrix(-0.1182, -0.0151, 0.0038, -0.0295, 219.7, 96.7)" gradientUnits="userSpaceOnUse" id="gradient2" spreadMethod="pad" x1="-819.2" x2="819.2">
      <stop offset="0.0" stop-color="#2ad2c0"/>
      <stop offset="0.09803921568627451" stop-color="#66fff2"/>
      <stop offset="0.4588235294117647" stop-color="#f3bf14"/>
      <stop offset="0.7294117647058823" stop-color="#f3bf14"/>
      <stop offset="0.8745098039215686" stop-color="#dbd800"/>
      <stop offset="1.0" stop-color="#fffedb"/>
    </linearGradient>
    <radialGradient cx="0" cy="0" gradientTransform="matrix(0.0753, 0.0, 0.0, 0.0753, 125.15, 104.1)" gradientUnits="userSpaceOnUse" id="gradient3" r="819.2" spreadMethod="pad">
      <stop offset="0.29411764705882354" stop-color="#f3bf14"/>
      <stop offset="0.6666666666666666" stop-color="#fcf902"/>
      <stop offset="1.0" stop-color="#fffedb"/>
    </radialGradient>
  </defs>
</svg>
