<?xml version="1.0" encoding="UTF-8" standalone="no"?>
<svg xmlns:ffdec="https://www.free-decompiler.com/flash" xmlns:xlink="http://www.w3.org/1999/xlink" ffdec:objectType="frame" height="2.95px" width="9.4px" xmlns="http://www.w3.org/2000/svg">
  <g transform="matrix(1.0, 0.0, 0.0, 1.0, 4.7, 1.45)">
    <use ffdec:characterId="584" height="2.95" transform="matrix(1.0, 0.0, 0.0, 1.0, -4.7, -1.45)" width="9.4" xlink:href="#shape0"/>
  </g>
  <defs>
    <g id="shape0" transform="matrix(1.0, 0.0, 0.0, 1.0, 4.7, 1.45)">
      <path d="M4.45 -0.8 L4.45 1.2 Q-0.2 0.45 -4.45 1.25 L-4.45 -0.8 Q-0.2 -1.55 4.45 -0.8" fill="#000000" fill-rule="evenodd" stroke="none"/>
      <path d="M4.45 -0.8 Q-0.2 -1.55 -4.45 -0.8 M-4.45 1.25 Q-0.2 0.45 4.45 1.2" ffdec:has-small-stroke="true" ffdec:original-stroke-width="0.5" fill="none" stroke="#000000" stroke-linecap="round" stroke-linejoin="round" stroke-opacity="0.9882353" stroke-width="1.0"/>
      <path d="M4.45 -0.8 Q-0.2 -1.55 -4.45 -0.8 M-4.45 1.25 Q-0.2 0.45 4.45 1.2" ffdec:has-small-stroke="true" ffdec:original-stroke-width="0.5" fill="none" stroke="#000000" stroke-linecap="round" stroke-linejoin="round" stroke-opacity="0.9882353" stroke-width="1.0"/>
    </g>
  </defs>
</svg>
