<?xml version="1.0" encoding="UTF-8" standalone="no"?>
<svg xmlns:ffdec="https://www.free-decompiler.com/flash" xmlns:xlink="http://www.w3.org/1999/xlink" ffdec:objectType="frame" height="4.15px" width="7.85px" xmlns="http://www.w3.org/2000/svg">
  <g transform="matrix(1.0, 0.0, 0.0, 1.0, 0.45, 0.5)">
    <use ffdec:characterId="2456" height="4.15" transform="matrix(1.0, 0.0, 0.0, 1.0, -0.45, -0.5)" width="7.85" xlink:href="#shape0"/>
  </g>
  <defs>
    <g id="shape0" transform="matrix(1.0, 0.0, 0.0, 1.0, 0.45, 0.5)">
      <path d="M7.3 2.1 L7.4 2.6 Q7.4 2.8 6.8 2.8 6.2 2.8 6.15 2.45 L5.95 1.05 3.65 3.65 3.2 3.5 Q2.75 3.3 2.55 0.95 0.7 2.15 -0.1 2.3 L-0.25 2.25 Q-0.45 2.7 -0.45 1.7 L1.05 0.65 Q2.5 -0.2 3.05 -0.3 3.55 -0.1 3.55 1.9 L3.55 2.2 Q5.7 -0.25 6.3 -0.5 L6.75 0.05 7.3 2.1" fill="#999999" fill-rule="evenodd" stroke="none"/>
    </g>
  </defs>
</svg>
