<?xml version="1.0" encoding="UTF-8" standalone="no"?>
<svg xmlns:ffdec="https://www.free-decompiler.com/flash" xmlns:xlink="http://www.w3.org/1999/xlink" ffdec:objectType="frame" height="16.6px" width="73.85px" xmlns="http://www.w3.org/2000/svg">
  <g transform="matrix(1.0, 0.0, 0.0, 1.0, -77.85, 0.8)">
    <use ffdec:characterId="35" height="3.75" transform="matrix(1.1349, -0.0255, 0.0201, 0.8906, 147.35, 11.0)" width="3.7" xlink:href="#sprite0"/>
    <use ffdec:characterId="35" height="3.75" transform="matrix(1.1015, 0.0, 0.0, 0.9182, 143.6, 11.5)" width="3.7" xlink:href="#sprite0"/>
    <use ffdec:characterId="35" height="3.75" transform="matrix(1.0, 0.0, 0.0, 1.0, 139.95, 10.45)" width="3.7" xlink:href="#sprite0"/>
    <use ffdec:characterId="37" height="11.7" transform="matrix(1.0, 0.0, 0.0, 1.0, 129.95, 2.65)" width="9.7" xlink:href="#sprite1"/>
    <use ffdec:characterId="39" height="11.7" transform="matrix(1.0, 0.0, 0.0, 1.0, 120.35, 2.6)" width="8.9" xlink:href="#sprite2"/>
    <use ffdec:characterId="41" height="11.1" transform="matrix(1.0, 0.0, 0.0, 1.0, 115.8, 2.9)" width="3.55" xlink:href="#sprite3"/>
    <use ffdec:characterId="43" height="11.55" transform="matrix(1.0, 0.0, 0.0, 1.0, 105.9, 2.7)" width="9.15" xlink:href="#sprite4"/>
    <use ffdec:characterId="45" height="11.5" transform="matrix(1.0, 0.0, 0.0, 1.0, 95.75, 2.75)" width="9.7" xlink:href="#sprite5"/>
    <use ffdec:characterId="47" height="11.65" transform="matrix(1.0, 0.0, 0.0, 1.0, 85.8, 2.65)" width="9.7" xlink:href="#sprite6"/>
    <use ffdec:characterId="49" height="11.0" transform="matrix(1.0, 0.0, 0.0, 1.0, 78.65, 3.0)" width="6.9" xlink:href="#sprite7"/>
  </g>
  <defs>
    <g id="sprite0" transform="matrix(1.0, 0.0, 0.0, 1.0, 0.0, 0.0)">
      <use ffdec:characterId="34" height="3.75" transform="matrix(1.0, 0.0, 0.0, 1.0, 0.0, 0.0)" width="3.7" xlink:href="#shape0"/>
    </g>
    <g id="shape0" transform="matrix(1.0, 0.0, 0.0, 1.0, 0.0, 0.0)">
      <path d="M0.0 1.85 Q0.0 1.0 0.5 0.5 1.0 0.0 1.85 0.0 2.7 0.05 3.2 0.55 3.7 1.05 3.7 1.85 3.7 2.8 3.2 3.25 2.7 3.75 1.85 3.75 0.9 3.7 0.45 3.2 0.0 2.65 0.0 1.85" fill="#c70505" fill-rule="evenodd" stroke="none"/>
    </g>
    <g id="sprite1" transform="matrix(1.0, 0.0, 0.0, 1.0, 0.0, 0.0)">
      <use ffdec:characterId="36" height="11.7" transform="matrix(1.0, 0.0, 0.0, 1.0, 0.0, 0.0)" width="9.7" xlink:href="#shape1"/>
    </g>
    <g id="shape1" transform="matrix(1.0, 0.0, 0.0, 1.0, 0.0, 0.0)">
      <path d="M6.95 4.5 L5.85 4.55 Q5.8 3.55 5.55 3.1 5.3 2.65 4.85 2.65 4.45 2.65 4.2 2.95 3.9 3.25 3.8 3.95 3.65 4.65 3.65 5.85 3.65 7.1 3.8 7.8 4.0 8.55 4.3 8.85 L5.05 9.15 Q5.5 9.15 5.8 8.85 6.1 8.5 6.2 7.75 L4.6 7.8 4.65 7.2 4.6 5.3 5.05 5.35 6.2 5.35 7.8 5.35 9.7 5.35 Q9.75 7.75 9.15 9.15 8.55 10.55 7.45 11.15 6.35 11.7 4.8 11.7 3.4 11.7 2.3 11.15 1.25 10.55 0.6 9.25 0.0 7.95 0.0 5.85 0.0 2.9 1.25 1.45 2.5 -0.05 4.85 0.0 6.25 0.0 7.25 0.5 8.25 1.05 8.8 2.05 9.35 3.05 9.45 4.45 L9.1 4.45 8.15 4.45 6.95 4.5" fill="url(#gradient0)" fill-rule="evenodd" stroke="none"/>
    </g>
    <linearGradient gradientTransform="matrix(0.0, 0.0069, -0.0071, 0.0, 4.85, 5.85)" gradientUnits="userSpaceOnUse" id="gradient0" spreadMethod="pad" x1="-819.2" x2="819.2">
      <stop offset="0.09019607843137255" stop-color="#fc4747"/>
      <stop offset="0.7803921568627451" stop-color="#c70505"/>
    </linearGradient>
    <g id="sprite2" transform="matrix(1.0, 0.0, 0.0, 1.0, 0.0, 0.0)">
      <use ffdec:characterId="38" height="11.7" transform="matrix(1.0, 0.0, 0.0, 1.0, 0.0, 0.0)" width="8.9" xlink:href="#shape2"/>
    </g>
    <g id="shape2" transform="matrix(1.0, 0.0, 0.0, 1.0, 0.0, 0.0)">
      <path d="M8.6 0.05 L8.65 1.4 8.7 5.3 8.9 11.45 8.45 11.45 7.35 11.55 5.65 11.7 5.35 11.05 4.5 9.2 3.15 6.45 3.2 8.4 3.35 11.15 2.9 11.15 1.7 11.15 0.05 11.15 0.05 9.85 0.05 6.25 0.0 0.7 0.45 0.65 1.65 0.6 3.3 0.55 3.55 1.2 4.4 3.05 5.7 5.9 5.6 3.6 5.35 0.0 5.8 0.0 6.95 0.0 8.6 0.05" fill="url(#gradient1)" fill-rule="evenodd" stroke="none"/>
    </g>
    <linearGradient gradientTransform="matrix(0.0, 0.0069, -0.0071, 0.0, 4.45, 5.85)" gradientUnits="userSpaceOnUse" id="gradient1" spreadMethod="pad" x1="-819.2" x2="819.2">
      <stop offset="0.09019607843137255" stop-color="#fc4747"/>
      <stop offset="0.7803921568627451" stop-color="#c70505"/>
    </linearGradient>
    <g id="sprite3" transform="matrix(1.0, 0.0, 0.0, 1.0, 0.0, 0.0)">
      <use ffdec:characterId="40" height="11.1" transform="matrix(1.0, 0.0, 0.0, 1.0, 0.0, 0.0)" width="3.55" xlink:href="#shape3"/>
    </g>
    <g id="shape3" transform="matrix(1.0, 0.0, 0.0, 1.0, 0.0, 0.0)">
      <path d="M0.0 4.35 L0.0 0.0 0.9 0.0 3.5 0.0 3.5 0.9 3.5 3.4 3.55 6.95 3.55 11.1 3.1 11.1 1.9 11.1 0.05 11.1 0.05 10.25 0.05 7.9 0.0 4.35" fill="url(#gradient2)" fill-rule="evenodd" stroke="none"/>
    </g>
    <linearGradient gradientTransform="matrix(0.0, 0.0067, -0.0068, 0.0, 1.75, 5.55)" gradientUnits="userSpaceOnUse" id="gradient2" spreadMethod="pad" x1="-819.2" x2="819.2">
      <stop offset="0.09019607843137255" stop-color="#fc4747"/>
      <stop offset="0.7803921568627451" stop-color="#c70505"/>
    </linearGradient>
    <g id="sprite4" transform="matrix(1.0, 0.0, 0.0, 1.0, 0.0, 0.0)">
      <use ffdec:characterId="42" height="11.55" transform="matrix(1.0, 0.0, 0.0, 1.0, 0.0, 0.0)" width="9.15" xlink:href="#shape4"/>
    </g>
    <g id="shape4" transform="matrix(1.0, 0.0, 0.0, 1.0, 0.0, 0.0)">
      <path d="M4.95 3.4 Q4.5 2.65 3.45 2.8 L3.45 5.9 3.5 8.05 3.5 8.85 4.55 8.7 Q4.95 8.5 5.15 7.8 L5.35 5.85 Q5.4 4.15 4.95 3.4 M7.7 1.45 Q9.15 2.95 9.15 5.95 9.15 7.95 8.45 9.2 7.75 10.45 6.35 11.0 L2.8 11.55 1.45 11.5 0.0 11.35 0.0 6.95 0.05 3.45 0.0 1.15 0.0 0.3 1.65 0.05 3.1 0.0 Q6.2 0.0 7.7 1.45" fill="url(#gradient3)" fill-rule="evenodd" stroke="none"/>
    </g>
    <linearGradient gradientTransform="matrix(0.0, 0.007, -0.007, 0.0, 4.6, 5.8)" gradientUnits="userSpaceOnUse" id="gradient3" spreadMethod="pad" x1="-819.2" x2="819.2">
      <stop offset="0.09019607843137255" stop-color="#fc4747"/>
      <stop offset="0.7803921568627451" stop-color="#c70505"/>
    </linearGradient>
    <g id="sprite5" transform="matrix(1.0, 0.0, 0.0, 1.0, 0.0, 0.0)">
      <use ffdec:characterId="44" height="11.5" transform="matrix(1.0, 0.0, 0.0, 1.0, 0.0, 0.0)" width="9.7" xlink:href="#shape5"/>
    </g>
    <g id="shape5" transform="matrix(1.0, 0.0, 0.0, 1.0, 0.0, 0.0)">
      <path d="M4.7 2.55 L4.4 4.35 4.0 7.15 5.4 7.15 4.7 2.55 M7.55 0.95 L8.05 3.45 8.8 7.1 9.7 11.5 9.15 11.5 7.75 11.5 6.0 11.5 5.95 11.1 5.75 9.75 4.85 9.75 3.65 9.75 3.5 11.0 3.0 11.0 1.75 11.0 0.0 11.0 0.15 10.2 0.65 7.95 1.35 4.5 2.25 0.1 4.2 0.05 5.8 0.0 6.95 0.0 7.4 0.0 7.55 0.95" fill="url(#gradient4)" fill-rule="evenodd" stroke="none"/>
    </g>
    <linearGradient gradientTransform="matrix(0.0, 0.0069, -0.007, 0.0, 4.85, 5.75)" gradientUnits="userSpaceOnUse" id="gradient4" spreadMethod="pad" x1="-819.2" x2="819.2">
      <stop offset="0.09019607843137255" stop-color="#fc4747"/>
      <stop offset="0.7803921568627451" stop-color="#c70505"/>
    </linearGradient>
    <g id="sprite6" transform="matrix(1.0, 0.0, 0.0, 1.0, 0.0, 0.0)">
      <use ffdec:characterId="46" height="11.65" transform="matrix(1.0, 0.0, 0.0, 1.0, 0.0, 0.0)" width="9.7" xlink:href="#shape6"/>
    </g>
    <g id="shape6" transform="matrix(1.0, 0.0, 0.0, 1.0, 0.0, 0.0)">
      <path d="M9.2 2.7 Q9.7 4.05 9.7 5.9 9.7 7.95 9.1 9.2 8.5 10.5 7.4 11.1 6.3 11.65 4.85 11.65 2.45 11.65 1.25 10.15 0.0 8.7 0.0 5.9 -0.05 4.05 0.5 2.75 1.1 1.4 2.15 0.7 3.25 0.0 4.8 0.0 6.5 0.0 7.6 0.7 8.7 1.4 9.2 2.7 M5.8 3.85 L5.4 2.9 Q5.15 2.6 4.8 2.65 4.45 2.6 4.2 2.9 L3.85 3.95 3.75 5.9 Q3.75 7.1 3.9 7.8 4.0 8.5 4.25 8.8 L4.85 9.05 Q5.2 9.1 5.45 8.8 L5.8 7.85 5.9 5.85 5.8 3.85" fill="url(#gradient5)" fill-rule="evenodd" stroke="none"/>
    </g>
    <linearGradient gradientTransform="matrix(0.0, 0.0071, -0.0071, 0.0, 4.85, 5.8)" gradientUnits="userSpaceOnUse" id="gradient5" spreadMethod="pad" x1="-819.2" x2="819.2">
      <stop offset="0.09019607843137255" stop-color="#fc4747"/>
      <stop offset="0.7803921568627451" stop-color="#c70505"/>
    </linearGradient>
    <g id="sprite7" transform="matrix(1.0, 0.0, 0.0, 1.0, 0.0, 0.0)">
      <use ffdec:characterId="48" height="11.0" transform="matrix(1.0, 0.0, 0.0, 1.0, 0.0, 0.0)" width="6.9" xlink:href="#shape7"/>
    </g>
    <g id="shape7" transform="matrix(1.0, 0.0, 0.0, 1.0, 0.0, 0.0)">
      <path d="M3.45 1.5 L3.45 3.95 3.5 7.95 6.0 8.0 6.9 8.0 6.85 10.2 6.85 11.0 4.5 10.95 2.3 10.95 0.7 10.95 0.1 10.95 0.1 10.05 0.1 7.6 0.05 4.1 0.0 0.0 0.85 0.0 3.45 0.0 3.45 0.3 3.45 1.5" fill="url(#gradient6)" fill-rule="evenodd" stroke="none"/>
    </g>
    <linearGradient gradientTransform="matrix(0.0, 0.0066, -0.0067, 0.0, 3.45, 5.5)" gradientUnits="userSpaceOnUse" id="gradient6" spreadMethod="pad" x1="-819.2" x2="819.2">
      <stop offset="0.09019607843137255" stop-color="#fc4747"/>
      <stop offset="0.7803921568627451" stop-color="#c70505"/>
    </linearGradient>
  </defs>
</svg>
