<?xml version="1.0" encoding="UTF-8" standalone="no"?>
<svg xmlns:ffdec="https://www.free-decompiler.com/flash" xmlns:xlink="http://www.w3.org/1999/xlink" ffdec:objectType="frame" height="28.0px" width="28.0px" xmlns="http://www.w3.org/2000/svg">
  <g transform="matrix(1.0, 0.0, 0.0, 1.0, 14.0, 14.0)">
    <use ffdec:characterId="2338" height="28.0" transform="matrix(1.0, 0.0, 0.0, 1.0, -14.0, -14.0)" width="28.0" xlink:href="#shape0"/>
  </g>
  <defs>
    <g id="shape0" transform="matrix(1.0, 0.0, 0.0, 1.0, 14.0, 14.0)">
      <path d="M9.9 -9.9 Q14.0 -5.8 14.0 0.0 14.0 5.75 9.9 9.85 5.75 14.0 0.0 14.0 -5.75 14.0 -9.9 9.85 -14.0 5.75 -14.0 0.0 -14.0 -5.8 -9.9 -9.9 -5.75 -14.0 0.0 -14.0 5.75 -14.0 9.9 -9.9" fill="url(#gradient0)" fill-rule="evenodd" stroke="none"/>
      <path d="M-11.1 -2.3 Q-11.1 -3.45 -10.3 -4.3 -9.45 -5.1 -8.3 -5.1 -7.15 -5.1 -6.35 -4.3 -5.5 -3.45 -5.5 -2.3 -5.5 -1.15 -6.35 -0.35 -7.15 0.5 -8.3 0.5 -9.45 0.5 -10.3 -0.35 -11.1 -1.15 -11.1 -2.3 M-4.05 -6.45 Q-4.65 -5.8 -5.5 -5.8 -6.35 -5.8 -7.0 -6.45 -7.6 -7.05 -7.6 -7.9 -7.6 -8.75 -7.0 -9.4 -6.35 -10.0 -5.5 -10.0 -4.65 -10.0 -4.05 -9.4 -3.4 -8.75 -3.4 -7.9 -3.4 -7.05 -4.05 -6.45" fill="#ffffff" fill-rule="evenodd" stroke="none"/>
      <path d="M-0.75 -9.75 Q7.5 -9.75 9.9 -2.0" fill="none" stroke="#ffffff" stroke-linecap="round" stroke-linejoin="round" stroke-width="3.0"/>
    </g>
    <radialGradient cx="0" cy="0" gradientTransform="matrix(0.0212, 0.0, 0.0, 0.0212, 1.1, -0.85)" gradientUnits="userSpaceOnUse" id="gradient0" r="819.2" spreadMethod="pad">
      <stop offset="0.5333333333333333" stop-color="#c0e9fa"/>
      <stop offset="0.7215686274509804" stop-color="#69c8f3"/>
    </radialGradient>
  </defs>
</svg>
