<?xml version="1.0" encoding="UTF-8" standalone="no"?>
<svg xmlns:ffdec="https://www.free-decompiler.com/flash" xmlns:xlink="http://www.w3.org/1999/xlink" ffdec:objectType="frame" height="19.65px" width="6.85px" xmlns="http://www.w3.org/2000/svg">
  <g transform="matrix(1.0, 0.0, 0.0, 1.0, 6.85, 0.0)">
    <use ffdec:characterId="2195" height="19.65" transform="matrix(1.0, 0.0, 0.0, 1.0, -6.85, 0.0)" width="6.85" xlink:href="#shape0"/>
  </g>
  <defs>
    <g id="shape0" transform="matrix(1.0, 0.0, 0.0, 1.0, 6.85, 0.0)">
      <path d="M-6.8 2.75 L-6.85 2.65 Q-6.9 1.8 -5.9 1.3 L-4.7 1.0 -4.85 1.9 -4.8 2.35 -4.45 2.55 -3.45 2.75 -2.45 2.55 -2.1 2.35 -2.05 1.9 Q-2.05 1.4 -2.2 1.0 L-1.0 1.3 Q0.0 1.8 0.0 2.45 L0.0 2.55 Q0.0 3.1 -1.0 3.5 L-1.35 3.65 -3.45 4.0 -5.55 3.65 -5.9 3.5 -6.8 2.75" fill="#e7e8ec" fill-rule="evenodd" stroke="none"/>
      <path d="M0.0 12.35 L0.0 13.2 Q-2.7 14.25 -5.4 13.2 L-5.4 12.35 Q-2.7 13.35 0.0 12.35 M-1.65 18.7 L-1.9 19.15 Q-2.35 19.65 -2.9 19.65 -3.45 19.65 -3.9 19.15 L-4.15 18.7 -2.9 18.8 -1.65 18.7 M-5.7 8.35 L-5.85 7.45 0.0 7.65 0.0 8.5 -5.7 8.35 M-4.7 1.0 L-4.45 0.5 Q-4.0 0.0 -3.45 0.0 -2.9 0.0 -2.45 0.5 L-2.2 1.0 Q-2.05 1.4 -2.05 1.9 L-2.1 2.35 -2.45 2.55 -3.45 2.75 -4.45 2.55 -4.8 2.35 -4.85 1.9 -4.7 1.0" fill="#0c0b0d" fill-rule="evenodd" stroke="none"/>
      <path d="M0.0 8.5 L0.0 12.35 Q-2.7 13.35 -5.4 12.35 L-5.7 8.35 0.0 8.5 M0.0 13.2 L0.0 17.35 0.0 17.5 Q0.0 18.05 -0.85 18.4 L-1.65 18.7 -2.9 18.8 -4.15 18.7 -4.95 18.4 Q-5.8 18.05 -5.8 17.5 L-5.8 17.4 Q-5.45 15.4 -5.4 13.2 -2.7 14.25 0.0 13.2 M-5.85 7.45 L-6.6 3.65 -6.8 2.75 -5.9 3.5 -5.55 3.65 -3.45 4.0 -1.35 3.65 -1.0 3.5 Q0.0 3.1 0.0 2.55 L0.0 7.65 -5.85 7.45" fill="url(#gradient0)" fill-rule="evenodd" stroke="none"/>
    </g>
    <radialGradient cx="0" cy="0" gradientTransform="matrix(0.0072, -7.0E-4, 0.0025, 0.0235, -5.55, 8.0)" gradientUnits="userSpaceOnUse" id="gradient0" r="819.2" spreadMethod="pad">
      <stop offset="0.11764705882352941" stop-color="#d8d9dd"/>
      <stop offset="0.8117647058823529" stop-color="#22242e"/>
      <stop offset="0.9137254901960784" stop-color="#22242e"/>
    </radialGradient>
  </defs>
</svg>
