<?xml version="1.0" encoding="UTF-8" standalone="no"?>
<svg xmlns:ffdec="https://www.free-decompiler.com/flash" xmlns:xlink="http://www.w3.org/1999/xlink" ffdec:objectType="frame" height="55.5px" width="103.55px" xmlns="http://www.w3.org/2000/svg">
  <g transform="matrix(1.0, 0.0, 0.0, 1.0, -2.35, 31.3)">
    <use ffdec:characterId="428" height="13.65" transform="matrix(1.0, 0.0, 0.0, 1.0, 14.75, 8.8)" width="15.4" xlink:href="#sprite0"/>
    <use ffdec:characterId="428" height="13.65" transform="matrix(1.0, 0.0, 0.0, 1.0, 23.25, 10.55)" width="15.4" xlink:href="#sprite0"/>
    <use ffdec:characterId="428" height="13.65" transform="matrix(1.0, 0.0, 0.0, 1.0, 32.5, 8.8)" width="15.4" xlink:href="#sprite0"/>
    <use ffdec:characterId="428" height="13.65" transform="matrix(1.0, 0.0, 0.0, 1.0, 42.8, 5.4)" width="15.4" xlink:href="#sprite0"/>
    <use ffdec:characterId="428" height="13.65" transform="matrix(1.0, 0.0, 0.0, 1.0, 50.5, 2.65)" width="15.4" xlink:href="#sprite0"/>
    <use ffdec:characterId="428" height="13.65" transform="matrix(1.0, 0.0, 0.0, 1.0, 58.2, -1.4)" width="15.4" xlink:href="#sprite0"/>
    <use ffdec:characterId="428" height="13.65" transform="matrix(1.0, 0.0, 0.0, 1.0, 67.1, -4.55)" width="15.4" xlink:href="#sprite0"/>
    <use ffdec:characterId="428" height="13.65" transform="matrix(1.0, 0.0, 0.0, 1.0, 75.1, -9.9)" width="15.4" xlink:href="#sprite0"/>
    <use ffdec:characterId="428" height="13.65" transform="matrix(1.0, 0.0, 0.0, 1.0, 81.6, -16.65)" width="15.4" xlink:href="#sprite0"/>
    <use ffdec:characterId="428" height="13.65" transform="matrix(1.0, 0.0, 0.0, 1.0, 87.25, -23.3)" width="15.4" xlink:href="#sprite0"/>
    <use ffdec:characterId="428" height="13.65" transform="matrix(1.0, 0.0, 0.0, 1.0, 90.5, -31.3)" width="15.4" xlink:href="#sprite0"/>
    <use ffdec:characterId="428" height="13.65" transform="matrix(1.0, 0.0, 0.0, 1.0, 6.85, 5.4)" width="15.4" xlink:href="#sprite0"/>
    <use ffdec:characterId="428" height="13.65" transform="matrix(1.0, 0.0, 0.0, 1.0, 2.35, 0.65)" width="15.4" xlink:href="#sprite0"/>
  </g>
  <defs>
    <g id="sprite0" transform="matrix(1.0, 0.0, 0.0, 1.0, 0.0, 0.0)">
      <use ffdec:characterId="427" height="13.65" transform="matrix(1.0, 0.0, 0.0, 1.0, 0.0, 0.0)" width="15.4" xlink:href="#shape0"/>
    </g>
    <g id="shape0" transform="matrix(1.0, 0.0, 0.0, 1.0, 0.0, 0.0)">
      <path d="M11.5 10.75 L10.9 11.15 Q10.45 10.9 9.4 9.05 L8.4 7.05 Q8.4 6.65 8.55 6.55 L8.9 6.5 10.35 8.5 11.5 10.75 M14.4 9.65 L11.95 7.9 8.9 6.1 Q9.5 5.1 11.8 6.75 L15.15 9.25 Q14.75 9.65 14.4 9.65 M11.4 5.35 L9.55 5.4 7.75 5.25 7.65 5.35 7.55 5.0 Q7.55 4.6 7.7 4.4 7.75 4.4 8.15 4.15 L11.4 4.25 11.55 4.75 11.4 5.35 M8.65 6.15 L3.15 8.9 2.9 8.85 2.8 8.5 Q2.8 8.3 4.95 7.1 7.35 5.8 8.5 6.0 L8.65 6.15 M7.5 5.4 L6.85 5.65 4.65 5.9 2.65 5.9 2.6 5.85 2.5 5.5 Q2.5 4.85 2.65 5.1 L6.65 4.75 7.5 5.4 M4.4 10.65 Q4.4 10.1 5.95 8.45 7.4 6.85 7.9 6.75 8.3 7.0 8.3 7.4 L6.6 9.4 4.55 11.25 4.5 11.15 4.4 10.65" fill="#5d1d3e" fill-rule="evenodd" stroke="none"/>
      <path d="M2.1 8.75 L1.4 9.0 1.05 8.9 0.65 8.65 3.65 7.4 2.25 7.4 1.4 7.15 Q2.1 6.2 4.9 5.85 L5.35 5.8 1.4 5.6 1.2 5.45 0.9 5.15 6.05 4.9 Q3.6 3.75 2.5 3.0 L2.5 2.65 Q3.9 2.5 7.8 4.65 L7.5 4.15 Q6.6 2.7 4.65 2.15 L4.55 1.85 Q6.5 1.95 7.7 2.95 L8.3 3.55 7.5 0.6 Q8.45 0.9 9.0 2.2 L9.3 3.0 9.75 2.4 Q11.45 0.35 12.4 0.0 L12.7 0.05 12.8 0.5 10.7 2.15 Q9.9 2.75 9.45 3.5 L9.5 3.7 Q10.85 2.7 11.7 2.6 L11.9 2.5 12.35 2.8 14.9 2.0 15.3 2.5 11.4 4.8 11.6 4.75 14.9 4.9 12.6 5.55 12.25 5.6 14.45 6.2 Q15.2 6.35 15.4 6.65 L15.3 7.0 14.75 7.15 12.75 6.55 9.5 6.3 10.6 6.8 Q14.65 8.8 14.65 9.8 L14.65 10.15 14.5 10.15 14.15 10.4 10.85 8.15 9.95 7.7 Q11.15 8.95 12.05 11.4 L11.65 11.65 9.9 9.05 8.6 7.65 9.15 9.05 9.65 12.9 9.15 13.15 Q8.5 11.9 8.05 10.0 L7.55 13.4 6.9 13.65 Q6.65 13.25 6.65 12.4 L6.7 10.35 Q5.95 11.9 5.4 12.4 L4.9 12.1 6.2 8.6 6.35 8.3 3.65 10.5 3.45 10.4 3.25 10.15 4.05 9.4 5.15 8.8 Q6.25 8.15 6.4 7.9 L6.25 7.65 5.9 7.65 6.25 7.5 6.15 7.35 5.35 7.4 3.65 7.9 Q2.4 8.4 2.1 8.75" fill="#9a277f" fill-rule="evenodd" stroke="none"/>
      <path d="M4.05 9.4 L3.25 9.75 3.2 9.85 3.15 9.5 Q3.15 9.05 3.8 8.55 L2.4 9.15 2.2 9.25 2.0 8.9 2.1 8.75 Q2.4 8.4 3.65 7.9 L5.35 7.4 6.15 7.35 6.25 7.5 5.9 7.65 6.25 7.65 6.4 7.9 Q6.25 8.15 5.15 8.8 L4.05 9.4" fill="#5d1d3e" fill-rule="evenodd" stroke="none"/>
      <path d="M8.25 6.15 L8.25 6.2 8.35 6.2 8.65 1.0 9.0 1.0 9.25 2.5 9.25 5.15 10.3 3.85 Q12.15 1.65 12.75 1.4 L10.9 4.1 9.75 5.55 11.45 4.65 Q14.5 3.05 14.9 3.1 L15.0 3.25 10.7 5.8 9.0 5.65 9.0 6.1 Q13.1 7.25 13.65 7.5 L13.65 7.4 12.65 6.55 Q14.45 7.0 14.9 7.75 L14.7 8.05 14.15 8.25 13.3 7.95 12.65 7.75 12.6 7.75 12.55 7.7 12.15 7.45 Q10.95 6.7 10.35 6.65 L8.8 6.15 8.8 6.5 10.6 7.05 11.1 7.4 10.9 7.4 10.85 7.6 10.35 7.65 10.3 7.6 Q8.7 6.55 7.65 6.4 L8.25 6.15 M12.0 9.65 L12.9 10.65 12.9 10.9 12.65 11.1 9.45 8.45 9.4 9.7 9.1 8.65 8.7 7.6 10.25 8.6 10.4 8.7 11.8 9.65 11.8 9.5 12.0 9.65 M9.35 11.65 L9.3 13.1 8.9 13.4 Q8.4 12.95 8.4 10.85 L8.4 10.15 9.0 12.6 9.25 12.5 9.35 11.65 M8.1 9.05 L8.0 9.3 8.1 8.9 8.1 9.05 M6.9 11.8 L5.9 13.15 5.8 13.1 5.75 12.75 Q5.75 12.2 6.4 10.25 L6.95 9.5 6.95 9.6 6.9 11.65 6.9 11.8 M3.25 11.2 L3.15 11.25 3.0 11.15 Q3.7 9.9 4.5 9.0 L5.5 8.35 3.55 8.4 Q2.8 8.75 2.65 9.4 L3.3 9.35 1.65 10.15 1.15 9.85 Q1.3 9.5 3.25 8.45 L7.2 6.6 7.5 6.8 7.4 6.75 Q3.85 9.75 3.25 11.2 M2.95 8.1 L2.75 8.1 3.05 8.0 2.95 8.1 M1.25 8.1 L0.0 7.85 Q1.45 6.65 2.6 6.3 L0.9 5.9 4.55 6.1 5.3 6.25 5.5 6.3 4.35 6.9 Q3.25 6.55 2.05 7.35 L1.25 8.1 M6.6 6.0 Q4.9 4.6 2.25 3.85 L2.25 3.4 Q2.9 3.4 5.2 4.55 6.4 5.15 7.2 5.65 L6.55 4.3 Q5.8 2.55 5.8 2.25 L5.8 1.9 5.9 1.9 Q6.45 2.25 7.4 4.05 L8.25 6.1 6.6 6.0" fill="#b44b81" fill-rule="evenodd" stroke="none"/>
      <path d="M10.7 5.8 L11.8 6.15 12.65 6.55 13.65 7.4 13.65 7.5 Q13.1 7.25 9.0 6.1 L9.0 5.65 10.7 5.8 M12.65 7.75 L12.7 7.8 13.75 8.4 13.5 8.4 13.25 8.6 11.8 7.8 11.5 7.4 11.1 7.4 10.6 7.05 8.8 6.5 8.8 6.15 10.35 6.65 Q10.95 6.7 12.15 7.45 L12.55 7.7 12.6 7.75 12.65 7.75 M10.35 7.65 Q12.4 8.95 12.65 9.9 L12.65 10.0 12.0 9.65 11.8 9.5 11.8 9.65 10.4 8.7 10.25 8.6 8.7 7.6 9.1 8.65 9.4 9.7 9.5 10.5 9.35 11.65 9.25 12.5 9.0 12.6 8.4 10.15 8.3 9.75 8.1 9.05 8.1 8.9 8.25 8.0 8.0 7.65 Q7.15 7.85 6.95 9.5 L6.4 10.25 6.25 10.25 6.8 8.5 Q4.4 11.35 3.15 11.4 L3.25 11.2 Q3.85 9.75 7.4 6.75 L7.5 6.8 7.2 6.6 3.25 8.45 2.9 8.6 2.65 8.4 2.95 8.1 3.05 8.0 2.75 8.1 2.6 8.15 Q0.5 8.9 0.4 9.0 L0.25 8.9 1.25 8.1 2.05 7.35 Q3.25 6.55 4.35 6.9 L5.5 6.3 6.6 6.0 8.25 6.1 8.3 6.1 8.25 6.15 7.65 6.4 Q8.7 6.55 10.3 7.6 L10.35 7.65" fill="#9a277f" fill-rule="evenodd" stroke="none"/>
      <path d="M11.8 7.8 L11.8 7.85 11.65 8.15 10.9 7.9 10.8 7.65 10.85 7.6 10.9 7.4 11.1 7.4 11.5 7.4 11.8 7.8 M8.0 9.3 L7.65 11.6 7.15 11.9 7.05 12.0 Q6.9 12.05 6.9 11.8 L6.9 11.65 6.95 9.6 6.95 9.5 Q7.15 7.85 8.0 7.65 L8.25 8.0 8.1 8.9 8.0 9.3 M4.5 9.0 L3.3 9.35 2.65 9.4 Q2.8 8.75 3.55 8.4 L5.5 8.35 4.5 9.0" fill="#5d1d3e" fill-rule="evenodd" stroke="none"/>
      <path d="M12.0 2.5 L11.2 3.8 10.25 4.4 Q10.9 2.3 12.0 2.5 M13.95 7.15 L11.15 7.0 10.7 6.9 10.15 6.65 14.0 6.4 14.4 7.0 13.95 7.15 M10.65 9.0 L10.05 8.55 Q9.55 8.2 8.9 8.15 L9.15 8.0 Q9.5 7.95 10.0 8.25 L10.65 8.85 10.65 9.0 M11.9 9.5 L9.9 8.15 11.05 8.45 11.9 9.35 11.9 9.5 M8.15 2.85 L8.4 2.65 8.9 2.75 9.0 5.0 8.75 5.1 Q8.4 4.35 8.15 2.85 M5.5 4.75 L3.65 3.65 3.65 3.4 Q4.45 3.55 5.6 4.35 L7.25 5.65 5.5 4.75 M5.25 9.25 Q6.2 7.1 7.65 7.4 L7.75 7.5 5.25 9.25" fill="#d294b4" fill-rule="evenodd" stroke="none"/>
    </g>
  </defs>
</svg>
