<?xml version="1.0" encoding="UTF-8" standalone="no"?>
<svg xmlns:ffdec="https://www.free-decompiler.com/flash" xmlns:xlink="http://www.w3.org/1999/xlink" ffdec:objectType="frame" height="15.9px" width="134.25px" xmlns="http://www.w3.org/2000/svg">
  <g transform="matrix(1.0, 0.0, 0.0, 1.0, 15.65, 2.05)">
    <use ffdec:characterId="82" height="12.0" transform="matrix(1.0, 0.0, 0.0, 1.0, 0.0, 0.0)" width="100.0" xlink:href="#shape0"/>
    <clipPath id="clipPath0">
      <path d="M 0 0 L 0 12 L 100 12 L 100 0 Z"/>
    </clipPath>
    <g clip-path="url(#clipPath0)">
      <use ffdec:characterId="88" height="12.0" transform="matrix(1.0, 0.0, 0.0, 1.0, -9.8, 0.0)" width="116.75" xlink:href="#sprite0"/>
    </g>
    <use ffdec:characterId="89" height="15.9" transform="matrix(1.0, 0.0, 0.0, 1.0, -1.55, -2.05)" width="102.95" xlink:href="#shape2"/>
  </g>
  <defs>
    <g id="shape0" transform="matrix(1.0, 0.0, 0.0, 1.0, 0.0, 0.0)">
      <path d="M100.0 12.0 L0.0 12.0 0.0 0.0 100.0 0.0 100.0 12.0" fill="#f3f301" fill-rule="evenodd" stroke="none"/>
    </g>
    <g id="sprite0" transform="matrix(1.0, 0.0, 0.0, 1.0, 0.0, 0.0)">
      <filter id="filter0">
        <feConvolveMatrix divisor="0.0" in="SourceGraphic" kernelMatrix="" order="1 0" result="filterResult0"/>
      </filter>
      <use ffdec:characterId="87" filter="url(#filter0)" height="12.0" transform="matrix(1.0, 0.0, 0.0, 1.0, 0.0, 0.0)" width="116.75" xlink:href="#sprite1"/>
    </g>
    <g id="sprite1" transform="matrix(1.0, 0.0, 0.0, 1.0, 0.0, 0.0)">
      <use ffdec:characterId="86" height="12.0" transform="matrix(1.0, 0.0, 0.0, 1.0, 0.0, 0.0)" width="116.75" xlink:href="#shape1"/>
    </g>
    <g id="shape1" transform="matrix(1.0, 0.0, 0.0, 1.0, 0.0, 0.0)">
      <path d="M96.75 0.0 L90.0 12.0 80.0 12.0 86.75 0.0 96.75 0.0 M100.0 12.0 L106.75 0.0 116.75 0.0 110.0 12.0 100.0 12.0 M56.75 0.0 L50.0 12.0 40.0 12.0 46.75 0.0 56.75 0.0 M60.0 12.0 L66.75 0.0 76.75 0.0 70.0 12.0 60.0 12.0 M16.75 0.0 L10.0 12.0 0.0 12.0 6.75 0.0 16.75 0.0 M20.0 12.0 L26.75 0.0 36.75 0.0 30.0 12.0 20.0 12.0" fill="#ff9900" fill-rule="evenodd" stroke="none"/>
    </g>
    <g id="shape2" transform="matrix(1.0, 0.0, 0.0, 1.0, 1.55, 2.05)">
      <path d="M9.55 -0.15 Q9.8 0.15 9.3 0.5 8.85 0.85 8.6 0.35 8.35 -0.15 8.8 -0.3 L9.55 -0.15 M7.75 -0.35 Q8.15 0.2 7.65 0.5 7.1 0.8 6.8 0.2 6.45 -0.4 6.85 -0.65 7.3 -0.95 7.75 -0.35 M6.0 -0.05 Q6.35 0.55 5.75 1.0 5.15 1.45 4.75 0.65 4.3 -0.2 4.95 -0.45 5.6 -0.7 6.0 -0.05 M3.55 -0.45 Q3.85 0.5 3.15 0.7 2.45 0.95 1.85 0.1 1.3 -0.7 2.25 -1.05 3.25 -1.4 3.55 -0.45 M1.35 -0.2 Q1.65 0.15 1.1 0.6 0.55 1.05 0.2 0.4 -0.15 -0.25 0.45 -0.4 1.05 -0.6 1.35 -0.2 M16.95 -0.6 Q17.45 0.0 16.85 0.35 16.3 0.7 15.9 0.0 15.55 -0.65 16.05 -0.95 16.5 -1.2 16.95 -0.6 M12.1 0.8 Q11.4 1.05 10.8 0.2 10.25 -0.6 11.2 -0.95 12.05 -1.25 12.4 -0.6 L12.75 -0.85 Q13.5 -1.15 13.9 -0.45 14.35 0.25 13.65 0.75 13.0 1.25 12.55 0.45 L12.1 0.8 M23.85 -0.5 Q24.15 0.0 23.65 0.35 23.15 0.7 22.8 0.05 22.45 -0.6 23.0 -0.8 23.5 -1.0 23.85 -0.5 M22.55 -1.15 Q22.9 -0.15 22.15 0.15 21.35 0.4 20.75 -0.5 20.15 -1.4 21.2 -1.8 22.2 -2.15 22.55 -1.15 M29.55 -0.4 L29.7 -0.1 29.8 -0.15 Q30.7 -0.5 31.0 0.45 31.35 1.35 30.65 1.6 29.95 1.85 29.4 1.0 L29.2 0.55 Q28.6 1.0 28.2 0.3 27.8 -0.45 28.5 -0.65 29.2 -0.85 29.55 -0.4 M26.75 -1.1 Q27.25 -0.45 26.65 -0.1 26.0 0.25 25.65 -0.5 25.25 -1.2 25.75 -1.5 26.25 -1.75 26.75 -1.1 M40.4 -0.3 Q40.65 0.5 40.05 0.7 39.4 0.9 38.95 0.2 38.45 -0.55 39.3 -0.85 40.1 -1.15 40.4 -0.3 M38.6 -0.45 Q38.95 -0.05 38.3 0.45 37.65 1.0 37.25 0.25 36.85 -0.5 37.55 -0.7 38.25 -0.9 38.6 -0.45 M42.0 -0.45 Q42.35 0.05 41.8 0.45 41.3 0.85 40.95 0.15 40.55 -0.55 41.1 -0.8 41.65 -1.0 42.0 -0.45 M44.05 -1.0 Q44.55 -0.35 43.95 0.0 43.3 0.35 42.95 -0.4 42.55 -1.1 43.05 -1.4 43.55 -1.65 44.05 -1.0 M45.95 -1.25 Q46.2 -0.9 45.7 -0.5 45.15 -0.05 44.8 -0.65 44.5 -1.3 45.05 -1.45 L45.95 -1.25 M49.7 -0.15 Q49.95 0.25 49.6 0.55 49.2 0.8 48.95 0.3 48.65 -0.2 49.05 -0.4 49.5 -0.55 49.7 -0.15 M48.9 -1.35 Q49.25 -0.35 48.5 -0.1 47.75 0.15 47.2 -0.7 46.6 -1.6 47.6 -1.95 48.6 -2.3 48.9 -1.35 M57.9 -0.5 Q58.25 0.5 57.5 0.8 56.7 1.05 56.1 0.15 55.5 -0.75 56.55 -1.15 57.55 -1.5 57.9 -0.5 M55.45 -0.25 Q55.7 0.0 55.3 0.3 54.9 0.6 54.65 0.15 54.4 -0.25 54.85 -0.4 L55.45 -0.25 M52.95 -0.5 Q53.65 0.35 52.8 0.8 52.0 1.3 51.5 0.35 51.0 -0.6 51.65 -1.0 52.3 -1.35 52.95 -0.5 M79.85 -0.05 Q80.15 0.35 79.8 0.5 79.5 0.7 79.25 0.3 79.05 -0.05 79.35 -0.25 79.6 -0.4 79.85 -0.05 M78.75 -0.4 Q79.25 0.4 78.5 0.9 77.75 1.45 77.25 0.45 76.75 -0.5 77.5 -0.85 78.3 -1.15 78.75 -0.4 M73.75 -0.75 Q74.1 -0.3 73.4 0.25 72.75 0.75 72.3 0.0 71.9 -0.8 72.65 -1.0 73.35 -1.2 73.75 -0.75 M68.5 -0.3 Q68.85 0.3 68.25 0.75 67.65 1.2 67.25 0.4 66.8 -0.45 67.45 -0.7 68.1 -0.95 68.5 -0.3 M66.25 -0.7 Q66.5 0.05 65.9 0.25 65.35 0.45 64.9 -0.25 64.45 -0.9 65.2 -1.15 66.0 -1.45 66.25 -0.7 M64.4 -0.4 Q64.65 -0.1 64.2 0.3 63.7 0.65 63.4 0.1 63.15 -0.45 63.65 -0.6 64.15 -0.7 64.4 -0.4 M62.85 -0.6 Q63.6 0.4 62.7 0.9 61.75 1.45 61.2 0.4 60.65 -0.7 61.35 -1.1 62.1 -1.55 62.85 -0.6 M91.5 -1.05 Q91.75 -0.75 91.3 -0.35 90.8 0.0 90.5 -0.55 90.25 -1.1 90.75 -1.25 91.25 -1.35 91.5 -1.05 M88.75 -0.6 Q89.25 0.05 88.65 0.4 88.0 0.75 87.65 0.0 87.25 -0.7 87.75 -1.0 88.25 -1.25 88.75 -0.6 M87.3 -0.2 Q87.75 0.5 87.05 1.05 86.3 1.55 85.8 0.6 85.35 -0.35 86.1 -0.65 86.85 -0.95 87.3 -0.2 M85.4 -0.3 Q85.7 0.5 85.1 0.7 84.5 0.9 84.0 0.2 83.55 -0.5 84.35 -0.8 85.15 -1.1 85.4 -0.3 M82.8 -0.5 Q83.05 -0.15 82.55 0.25 82.0 0.7 81.65 0.1 81.35 -0.55 81.9 -0.7 L82.8 -0.5 M97.55 -0.9 Q98.1 -0.2 97.45 0.15 96.8 0.55 96.4 -0.2 96.05 -0.95 96.55 -1.25 97.05 -1.55 97.55 -0.9 M95.9 -0.4 Q96.35 0.3 95.65 0.8 94.95 1.3 94.5 0.4 94.05 -0.55 94.75 -0.8 95.5 -1.1 95.9 -0.4 M94.15 -0.8 Q94.5 0.2 93.75 0.5 92.95 0.75 92.35 -0.15 91.75 -1.05 92.8 -1.45 93.8 -1.8 94.15 -0.8 M101.3 -0.15 Q101.6 0.2 101.05 0.65 100.5 1.1 100.15 0.45 99.8 -0.2 100.4 -0.35 101.0 -0.55 101.3 -0.15 M99.95 1.55 Q100.25 2.35 99.65 2.55 99.05 2.75 98.55 2.05 98.1 1.35 98.9 1.05 99.7 0.75 99.95 1.55 M100.55 4.1 Q100.9 4.7 100.35 5.1 L100.1 5.25 100.55 5.6 Q101.0 6.2 100.45 6.55 99.9 6.85 99.55 6.2 99.2 5.55 99.65 5.3 L99.85 5.25 99.4 4.75 Q99.0 4.0 99.6 3.8 100.2 3.55 100.55 4.1 M91.55 11.4 Q91.85 11.9 91.4 12.25 90.9 12.55 90.6 11.95 90.25 11.3 90.75 11.1 91.25 10.95 91.55 11.4 M94.4 11.65 Q94.6 12.15 94.2 12.25 93.85 12.4 93.55 11.95 93.25 11.55 93.75 11.35 94.25 11.15 94.4 11.65 M95.65 11.7 Q95.9 12.05 95.4 12.45 94.9 12.85 94.6 12.25 94.3 11.7 94.85 11.55 L95.65 11.7 M100.6 8.6 Q100.95 9.05 100.25 9.6 99.6 10.1 99.15 9.35 98.75 8.55 99.5 8.35 100.2 8.15 100.6 8.6 M98.25 11.7 Q98.55 12.1 98.2 12.25 97.9 12.45 97.65 12.05 97.45 11.7 97.75 11.5 98.0 11.35 98.25 11.7 M100.25 12.7 Q99.6 13.15 99.15 12.3 98.75 11.45 99.4 11.2 L99.55 11.15 Q99.5 10.8 100.0 10.6 100.7 10.35 100.95 11.05 101.2 11.8 100.65 11.95 L100.6 12.0 100.25 12.7 M83.9 11.85 Q84.05 12.35 83.7 12.45 83.35 12.55 83.05 12.15 82.8 11.75 83.25 11.6 83.75 11.4 83.9 11.85 M89.25 11.5 Q89.65 12.05 89.15 12.35 88.6 12.65 88.3 12.05 87.95 11.45 88.35 11.2 88.8 10.9 89.25 11.5 M87.75 11.55 Q88.05 11.95 87.45 12.45 86.8 12.95 86.4 12.2 86.05 11.5 86.7 11.3 87.4 11.15 87.75 11.55 M82.05 11.3 Q82.55 12.2 81.7 12.8 80.85 13.4 80.25 12.3 79.7 11.15 80.6 10.8 81.5 10.45 82.05 11.3 M75.8 0.35 Q76.0 1.0 75.5 1.2 74.95 1.35 74.55 0.75 74.15 0.15 74.85 -0.1 75.55 -0.35 75.8 0.35 M71.95 0.05 Q72.35 0.6 71.85 0.9 71.35 1.15 71.05 0.6 70.75 0.0 71.15 -0.25 71.55 -0.5 71.95 0.05 M75.85 11.7 Q76.1 12.45 75.55 12.6 75.0 12.8 74.6 12.15 74.15 11.55 74.9 11.25 75.6 11.0 75.85 11.7 M73.05 11.8 Q73.5 12.5 72.8 13.0 72.1 13.5 71.65 12.6 71.2 11.65 71.9 11.4 72.65 11.1 73.05 11.8 M79.4 11.95 Q79.8 12.4 79.35 12.65 78.9 12.95 78.6 12.4 78.35 11.9 78.7 11.7 79.05 11.45 79.4 11.95 M78.0 11.55 Q78.35 11.95 77.7 12.45 77.05 13.0 76.65 12.25 76.25 11.5 76.95 11.3 77.65 11.1 78.0 11.55 M64.75 10.75 Q65.1 11.35 64.55 11.75 64.0 12.15 63.6 11.4 63.2 10.65 63.8 10.45 64.4 10.2 64.75 10.75 M66.65 11.85 Q66.85 12.5 66.35 12.7 65.8 12.85 65.4 12.25 65.0 11.65 65.7 11.4 66.4 11.15 66.65 11.85 M70.65 12.05 Q71.3 12.9 70.5 13.4 69.65 13.85 69.15 12.9 68.6 11.95 69.3 11.55 69.95 11.15 70.65 12.05 M68.7 11.05 Q69.05 11.45 68.4 11.95 67.75 12.5 67.35 11.75 66.95 11.0 67.65 10.8 68.35 10.6 68.7 11.05 M62.1 12.5 Q62.4 12.9 62.05 13.1 61.65 13.3 61.45 12.9 61.2 12.45 61.5 12.3 61.8 12.1 62.1 12.5 M60.0 0.0 Q60.35 0.6 59.75 1.05 59.15 1.5 58.75 0.7 58.3 -0.15 58.95 -0.4 59.6 -0.65 60.0 0.0 M55.35 12.0 Q55.75 12.6 55.15 13.0 54.55 13.45 54.15 12.65 53.75 11.9 54.4 11.65 55.0 11.4 55.35 12.0 M53.55 10.7 Q54.1 11.4 53.45 11.75 52.8 12.15 52.4 11.4 52.05 10.65 52.55 10.35 53.05 10.05 53.55 10.7 M59.7 12.3 Q60.0 12.7 59.4 13.2 58.75 13.7 58.35 12.95 58.0 12.25 58.65 12.05 59.35 11.9 59.7 12.3 M44.05 11.35 Q44.4 11.8 43.95 12.05 43.55 12.3 43.3 11.8 43.05 11.3 43.35 11.1 43.7 10.9 44.05 11.35 M41.9 11.45 Q42.3 11.9 41.6 12.45 40.85 13.0 40.45 12.2 40.0 11.4 40.75 11.2 41.55 10.95 41.9 11.45 M51.15 11.5 Q51.6 12.0 50.8 12.65 50.0 13.25 49.5 12.35 49.0 11.45 49.85 11.2 50.75 10.95 51.15 11.5 M49.05 11.8 Q49.25 12.45 48.75 12.65 48.2 12.8 47.8 12.2 47.4 11.6 48.1 11.35 48.8 11.1 49.05 11.8 M47.15 12.65 Q47.5 13.25 46.9 13.7 46.3 14.15 45.9 13.35 45.45 12.5 46.1 12.25 46.75 12.0 47.15 12.65 M57.95 12.55 Q58.25 13.35 57.65 13.55 57.05 13.75 56.55 13.05 56.1 12.35 56.9 12.05 57.7 11.75 57.95 12.55 M34.95 0.25 Q35.55 1.0 34.85 1.4 34.15 1.8 33.7 1.0 33.3 0.2 33.85 -0.15 34.4 -0.45 34.95 0.25 M33.15 0.3 Q33.5 0.9 32.95 1.3 32.4 1.7 32.0 0.95 31.6 0.2 32.2 0.0 32.8 -0.25 33.15 0.3 M35.0 11.35 Q35.75 12.35 34.85 12.85 33.9 13.4 33.35 12.35 32.8 11.25 33.5 10.85 34.25 10.4 35.0 11.35 M32.85 11.55 Q33.15 11.95 32.55 12.45 31.9 12.95 31.5 12.2 31.15 11.5 31.8 11.3 32.5 11.15 32.85 11.55 M39.65 11.65 Q39.9 12.4 39.35 12.55 38.8 12.75 38.4 12.1 37.95 11.5 38.7 11.2 39.4 10.95 39.65 11.65 M37.3 11.85 Q37.7 12.5 37.1 13.0 36.45 13.45 36.0 12.6 35.6 11.75 36.25 11.5 36.9 11.2 37.3 11.85 M25.95 10.5 Q26.6 11.3 25.85 11.7 25.05 12.15 24.6 11.25 24.15 10.4 24.75 10.05 25.35 9.7 25.95 10.5 M23.4 12.3 Q23.8 12.8 23.0 13.4 22.25 14.0 21.75 13.15 21.3 12.25 22.15 12.0 22.95 11.8 23.4 12.3 M21.3 11.75 Q21.55 12.5 21.0 12.65 20.45 12.85 20.05 12.2 19.6 11.6 20.35 11.3 21.05 11.05 21.3 11.75 M30.05 11.7 Q30.25 12.35 29.75 12.55 29.2 12.7 28.8 12.1 28.4 11.5 29.1 11.25 29.8 11.0 30.05 11.7 M27.45 12.25 Q27.8 12.85 27.2 13.3 26.6 13.75 26.2 12.95 25.75 12.1 26.4 11.85 27.05 11.6 27.45 12.25 M20.1 0.05 Q20.55 0.6 19.7 1.25 18.85 1.9 18.35 0.95 17.85 0.0 18.75 -0.25 19.65 -0.5 20.1 0.05 M16.3 11.8 Q16.85 12.5 16.2 12.85 L15.3 12.75 15.0 13.05 Q14.35 13.6 13.95 12.85 13.55 12.1 14.25 11.9 L15.0 11.95 15.3 11.45 Q15.8 11.15 16.3 11.8 M12.6 12.0 Q12.85 12.75 12.25 12.95 11.7 13.15 11.25 12.45 L11.2 12.4 11.0 12.55 Q10.25 13.05 9.75 12.1 9.3 11.15 10.05 10.85 10.8 10.55 11.25 11.3 L11.4 11.6 11.55 11.55 Q12.35 11.25 12.6 12.0 M19.15 11.8 Q19.4 12.25 18.95 12.6 18.5 12.9 18.2 12.35 17.9 11.75 18.4 11.55 18.85 11.35 19.15 11.8 M0.9 2.85 Q1.45 3.75 0.55 4.4 -0.35 5.1 -1.0 3.85 -1.4 3.05 -1.1 2.65 L-1.35 2.25 Q-1.75 1.55 -1.25 1.25 -0.75 1.0 -0.25 1.65 L0.0 2.2 Q0.5 2.25 0.9 2.85 M1.15 7.35 Q1.4 7.7 0.9 8.1 0.35 8.55 0.0 7.95 -0.3 7.3 0.25 7.15 0.85 7.0 1.15 7.35 M0.6 10.2 Q1.05 10.8 0.5 11.15 -0.05 11.45 -0.4 10.8 -0.75 10.15 -0.3 9.9 0.15 9.6 0.6 10.2 M0.2 11.85 Q0.4 12.15 0.1 12.35 -0.2 12.6 -0.45 12.2 -0.65 11.8 -0.3 11.65 0.0 11.55 0.2 11.85 M6.05 10.85 Q6.4 11.3 5.7 11.85 5.05 12.35 4.6 11.6 4.2 10.8 4.95 10.6 5.65 10.4 6.05 10.85 M4.0 11.6 Q4.35 12.65 3.55 12.9 2.75 13.15 2.15 12.25 1.5 11.3 2.55 10.95 3.65 10.55 4.0 11.6 M7.05 11.6 Q7.45 12.15 6.95 12.4 6.45 12.65 6.2 12.1 5.9 11.55 6.25 11.35 6.65 11.1 7.05 11.6 M0.0 5.6 Q0.15 6.1 -0.25 6.25 -0.65 6.4 -0.95 5.9 -1.25 5.45 -0.7 5.25 -0.2 5.05 0.0 5.6" fill="#785a01" fill-rule="evenodd" stroke="none"/>
    </g>
  </defs>
</svg>
