<?xml version="1.0" encoding="UTF-8" standalone="no"?>
<svg xmlns:ffdec="https://www.free-decompiler.com/flash" xmlns:xlink="http://www.w3.org/1999/xlink" ffdec:objectType="frame" height="185.85px" width="196.65px" xmlns="http://www.w3.org/2000/svg">
  <g transform="matrix(1.0, 0.0, 0.0, 1.0, 137.8, 108.65)">
    <use ffdec:characterId="626" height="25.9" transform="matrix(1.4912, -0.0794, 0.0794, 1.4912, -26.7754, -106.554)" width="26.4" xlink:href="#shape0"/>
    <use ffdec:characterId="1656" height="144.95" transform="matrix(-0.6367, -0.0168, -0.0142, 0.5382, 58.8492, -65.0793)" width="213.75" xlink:href="#shape1"/>
    <use ffdec:characterId="748" height="44.25" transform="matrix(0.7956, -0.0213, 0.0199, 0.7447, -59.4979, -61.011)" width="42.05" xlink:href="#shape2"/>
    <use ffdec:characterId="748" height="44.25" transform="matrix(0.9012, -0.0241, 0.0241, 0.9012, -7.408, -66.1589)" width="42.05" xlink:href="#shape2"/>
    <use ffdec:characterId="640" height="66.0" transform="matrix(-0.5851, -0.0155, -0.0169, 0.6391, -25.0196, -72.7454)" width="68.45" xlink:href="#shape3"/>
    <use ffdec:characterId="1657" height="28.85" transform="matrix(-0.5101, 0.2039, 0.195, 0.5136, -40.5118, -61.4824)" width="28.8" xlink:href="#shape4"/>
    <use ffdec:characterId="1658" height="29.75" transform="matrix(0.5797, -0.0793, 0.0866, 0.6332, -78.2923, -75.8207)" width="81.9" xlink:href="#shape5"/>
    <use ffdec:characterId="1659" height="102.35" transform="matrix(-0.5247, -0.3552, -0.1044, 0.517, -15.1175, -39.9801)" width="94.0" xlink:href="#shape6"/>
    <use ffdec:characterId="1660" height="12.8" transform="matrix(0.523, 0.0202, 0.0, 0.467, -30.0, -10.0)" width="34.95" xlink:href="#shape7"/>
    <use ffdec:characterId="1661" height="12.45" transform="matrix(0.4922, -0.0105, -0.0102, 0.4668, -31.55, -22.85)" width="57.05" xlink:href="#shape8"/>
    <clipPath id="clipPath0">
      <path d="M 8.46 -22.9 L 7.37 -22.54 L 6.22 -22.18 L 5.01 -21.83 L 3.75 -21.47 L 2.42 -21.11 L 1.04 -20.75 L -0.4 -20.39 L -1.9 -20.03 L -3.44 -19.68 L -4.96 -19.36 L -6.49 -19.07 L -8 -18.79 L -9.52 -18.55 L -11.02 -18.32 L -12.53 -18.12 L -14.02 -17.95 L -25.28 -17.27 L -25.44 -17.27 L -26.09 -17.28 L -26.74 -17.29 L -27.39 -17.32 L -28.05 -17.36 L -28.71 -17.42 L -29.37 -17.48 L -30.03 -17.56 L -30.69 -17.64 L -31.35 -17.74 L -32.02 -17.85 L -32.68 -17.98 L -33.35 -18.11 L -34.02 -18.26 L -34.69 -18.42 L -35.37 -18.58 L -36.04 -18.77 L -37.65 -19.37 L -36.9 -10.66 L -36.44 -10.45 L -36.17 -10.54 L -35.88 -10.62 L -35.56 -10.69 L -35.22 -10.74 L -34.86 -10.78 L -34.48 -10.81 L -34.07 -10.83 L -33.64 -10.84 L -32.86 -10.82 L -32.01 -10.77 L -31.1 -10.68 L -30.12 -10.57 L -29.08 -10.41 L -27.97 -10.23 L -26.8 -10.01 L -25.56 -9.75 L -23.98 -9.48 L -22.43 -9.23 L -20.93 -9 L -19.46 -8.79 L -18.03 -8.6 L -16.64 -8.43 L -15.29 -8.27 L -13.98 -8.14 L -6.95 -7.79 L -2.25 -8.03 L -1.55 -8.06 L -0.86 -8.12 L -0.19 -8.19 L 0.45 -8.29 L 1.08 -8.4 L 1.69 -8.53 L 2.27 -8.68 L 2.84 -8.84 L 3.11 -8.94 L 3.38 -9.05 L 3.64 -9.18 L 3.9 -9.33 L 4.15 -9.49 L 4.4 -9.67 L 4.64 -9.87 L 4.88 -10.08 L 5.12 -10.31 L 5.35 -10.56 L 5.58 -10.82 L 5.8 -11.1 L 6.02 -11.4 L 6.23 -11.71 L 6.44 -12.04 L 6.64 -12.39 L 6.83 -12.77 L 7.02 -13.18 L 7.19 -13.63 L 7.35 -14.12 L 7.5 -14.64 L 7.64 -15.2 L 7.77 -15.8 L 7.89 -16.44 L 8 -17.12 L 8.1 -17.83 L 8.18 -18.58 L 8.26 -19.37 L 8.33 -20.2 L 8.38 -21.06 L 8.43 -21.96 L 8.46 -22.9 Z"/>
    </clipPath>
    <g clip-path="url(#clipPath0)">
      <use ffdec:characterId="1663" height="54.95" transform="matrix(0.467, 0.0, 0.0, 0.467, -35.7835, -27.2412)" width="106.1" xlink:href="#shape9"/>
      <use ffdec:characterId="672" height="43.25" transform="matrix(-0.4787, 0.0083, 0.0086, 0.465, 8.0569, -16.5362)" width="89.9" xlink:href="#shape10"/>
      <use ffdec:characterId="673" height="52.05" transform="matrix(-0.4977, -0.0109, -0.012, 0.4651, 7.0309, -34.8902)" width="87.0" xlink:href="#shape11"/>
    </g>
    <use ffdec:characterId="1664" height="34.9" transform="matrix(0.467, 0.0, 0.0, 0.467, -37.8148, -23.4821)" width="100.35" xlink:href="#shape12"/>
    <use ffdec:characterId="640" height="66.0" transform="matrix(-0.6501, -0.0172, -0.0188, 0.7101, 35.3062, -76.9847)" width="68.45" xlink:href="#shape3"/>
    <use ffdec:characterId="1657" height="28.85" transform="matrix(-0.5101, 0.2039, 0.195, 0.5136, 17.2378, -64.2326)" width="28.8" xlink:href="#shape4"/>
    <use ffdec:characterId="1658" height="29.75" transform="matrix(-0.6426, -0.0963, -0.0963, 0.6426, 48.6153, -78.7302)" width="81.9" xlink:href="#shape5"/>
    <use ffdec:characterId="677" height="11.45" transform="matrix(-0.7669, 0.1786, 0.112, 0.4808, -44.8833, -87.5036)" width="28.7" xlink:href="#shape13"/>
    <use ffdec:characterId="677" height="11.45" transform="matrix(0.8852, 0.1683, -0.1007, 0.5296, 10.7716, -93.9832)" width="28.7" xlink:href="#shape13"/>
    <use ffdec:characterId="1665" height="168.55" transform="matrix(-0.6094, -0.2348, -0.2348, 0.6094, -62.6544, -25.4873)" width="58.35" xlink:href="#shape14"/>
  </g>
  <defs>
    <g id="shape0" transform="matrix(1.0, 0.0, 0.0, 1.0, -0.05, 0.0)">
      <path d="M20.95 23.8 L20.45 24.2 19.9 24.5 Q15.85 26.55 11.15 25.6 5.7 24.5 2.5 19.95 -0.7 15.5 0.25 10.3 1.1 5.1 5.45 2.15 9.95 -0.8 15.35 0.3 20.75 1.35 23.95 5.9 27.1 10.35 26.3 15.65 25.35 20.8 20.95 23.8" fill="#323232" fill-rule="evenodd" stroke="none"/>
    </g>
    <g id="shape1" transform="matrix(1.0, 0.0, 0.0, 1.0, 30.1, 9.45)">
      <path d="M143.0 -1.75 Q198.7 9.15 175.5 44.1 152.25 79.1 115.5 115.2 78.65 151.3 43.4 118.65 8.05 85.95 -20.35 44.55 -48.8 3.15 19.25 -4.75 87.25 -12.7 143.0 -1.75" fill="#bd3232" fill-rule="evenodd" stroke="none"/>
      <path d="M143.0 -1.75 Q198.7 9.15 175.5 44.1 152.25 79.1 115.5 115.2 78.65 151.3 43.4 118.65 8.05 85.95 -20.35 44.55 -48.8 3.15 19.25 -4.75 87.25 -12.7 143.0 -1.75 Z" fill="none" stroke="#323232" stroke-linecap="round" stroke-linejoin="round" stroke-width="2.7"/>
      <path d="M51.95 110.15 Q27.1 82.05 -2.0 43.85 -31.15 5.65 27.75 -1.35 86.6 -8.45 137.3 1.35 188.05 11.15 164.6 42.65 141.15 74.2 109.0 106.25 76.75 138.25 51.95 110.15" fill="#e63232" fill-rule="evenodd" stroke="none"/>
    </g>
    <g id="shape2" transform="matrix(1.0, 0.0, 0.0, 1.0, 21.0, 22.1)">
      <path d="M17.1 -12.95 Q19.6 -9.35 20.55 -4.6 22.35 4.3 17.65 12.0 12.85 19.65 4.35 21.6 -4.15 23.5 -11.4 18.55 -18.05 14.0 -20.1 6.25 L-20.5 4.65 Q-22.3 -4.3 -17.45 -11.95 -12.7 -19.65 -4.2 -21.55 4.25 -23.45 11.55 -18.5 14.9 -16.2 17.1 -12.95" fill="#bd3232" fill-rule="evenodd" stroke="none"/>
    </g>
    <g id="shape3" transform="matrix(1.0, 0.0, 0.0, 1.0, 34.05, 33.05)">
      <path d="M-25.5 -20.0 Q-21.8 -24.45 -16.3 -27.5 -4.5 -34.05 8.65 -30.65 21.8 -27.25 28.6 -15.85 35.5 -4.5 31.95 8.2 L31.25 10.4 Q27.55 14.8 22.0 17.85 10.15 24.45 -3.0 21.05 -16.15 17.65 -22.95 6.25 -29.75 -5.15 -26.2 -17.75 L-25.5 -20.0" fill="#e6e6e6" fill-rule="evenodd" stroke="none"/>
      <path d="M31.25 10.4 Q27.35 21.4 16.6 27.4 4.75 33.95 -8.4 30.55 -21.55 27.15 -28.4 15.75 -35.15 4.35 -31.6 -8.25 -29.75 -15.0 -25.5 -20.0 L-26.2 -17.75 Q-29.75 -5.15 -22.95 6.25 -16.15 17.65 -3.0 21.05 10.15 24.45 22.0 17.85 27.55 14.8 31.25 10.4" fill="#c0c0c0" fill-rule="evenodd" stroke="none"/>
      <path d="M28.6 -15.85 Q35.5 -4.5 31.95 8.2 28.4 20.8 16.6 27.4 4.75 33.95 -8.4 30.55 -21.55 27.15 -28.4 15.75 -35.15 4.35 -31.6 -8.25 -28.1 -20.9 -16.3 -27.5 -4.5 -34.05 8.65 -30.65 21.8 -27.25 28.6 -15.85 Z" fill="none" stroke="#323232" stroke-linecap="round" stroke-linejoin="round" stroke-width="2.5"/>
    </g>
    <g id="shape4" transform="matrix(1.0, 0.0, 0.0, 1.0, 14.4, 14.4)">
      <path d="M10.2 -10.15 Q14.4 -5.95 14.4 0.0 14.4 6.0 10.2 10.2 5.95 14.4 0.0 14.45 -6.0 14.4 -10.2 10.2 -14.4 6.0 -14.4 0.0 -14.4 -5.95 -10.2 -10.15 -6.0 -14.4 0.0 -14.4 5.95 -14.4 10.2 -10.15" fill="#54c1cd" fill-rule="evenodd" stroke="none"/>
      <path d="M5.65 -5.1 Q7.8 -2.9 7.85 0.2 7.8 3.3 5.65 5.5 3.45 7.7 0.35 7.7 -2.8 7.7 -4.95 5.5 -7.15 3.3 -7.15 0.2 -7.15 -2.9 -4.95 -5.1 -2.8 -7.3 0.35 -7.25 3.45 -7.3 5.65 -5.1" fill="#1f4061" fill-rule="evenodd" stroke="none"/>
      <path d="M9.7 -3.4 Q8.25 -1.95 6.2 -1.95 4.1 -1.95 2.65 -3.4 1.2 -4.85 1.2 -6.9 1.2 -9.0 2.65 -10.45 4.1 -11.9 6.2 -11.9 8.25 -11.9 9.7 -10.45 11.15 -9.0 11.15 -6.9 11.15 -4.85 9.7 -3.4 M-6.2 6.35 Q-6.95 5.6 -6.95 4.55 -6.95 3.5 -6.2 2.8 -5.5 2.05 -4.45 2.05 -3.4 2.05 -2.7 2.8 -1.95 3.5 -1.95 4.55 -1.95 5.6 -2.7 6.35 -3.4 7.05 -4.45 7.05 -5.5 7.05 -6.2 6.35" fill="#e6e6e6" fill-rule="evenodd" stroke="none"/>
    </g>
    <g id="shape5" transform="matrix(1.0, 0.0, 0.0, 1.0, 50.05, 43.65)">
      <path d="M26.05 -24.25 Q26.25 -22.4 24.8 -21.85 22.55 -20.95 12.55 -21.8 2.55 -22.7 -7.75 -21.7 -18.1 -20.7 -19.8 -21.55 -21.4 -22.35 -21.05 -24.35 L-20.85 -25.3 -16.6 -28.05 Q-4.6 -34.75 8.85 -31.25 17.05 -29.15 22.85 -23.95 L26.05 -24.25 M19.35 -23.2 L21.2 -23.5 22.85 -23.95 21.2 -23.5 19.35 -23.2" fill="#e63232" fill-rule="evenodd" stroke="none"/>
      <path d="M-20.85 -25.3 L-21.05 -24.35 Q-21.4 -22.35 -19.8 -21.55 -18.1 -20.7 -7.75 -21.7 2.55 -22.7 12.55 -21.8 22.55 -20.95 24.8 -21.85 26.25 -22.4 26.05 -24.25 L27.4 -24.1 Q30.35 -23.55 30.6 -21.0 30.8 -18.45 27.75 -18.35 -3.35 -23.15 -29.15 -15.3 -33.1 -14.65 -32.05 -17.15 -31.05 -19.7 -26.4 -19.85 L-25.2 -21.35 -24.35 -22.2 -20.85 -25.3" fill="#bd3232" fill-rule="evenodd" stroke="none"/>
      <path d="M-20.85 -25.3 L-24.35 -22.2 -25.2 -21.35 -26.4 -19.85 Q-31.05 -19.7 -32.05 -17.15 -33.1 -14.65 -29.15 -15.3 -3.35 -23.15 27.75 -18.35 30.8 -18.45 30.6 -21.0 30.35 -23.55 27.4 -24.1 L26.05 -24.25 22.85 -23.95 21.2 -23.5 19.35 -23.2 M22.85 -23.95 Q17.05 -29.15 8.85 -31.25 -4.6 -34.75 -16.6 -28.05 L-20.85 -25.3" fill="none" stroke="#323232" stroke-linecap="round" stroke-linejoin="round" stroke-width="2.5"/>
      <path d="M-26.15 -42.4 Q-26.65 -39.65 -24.2 -34.8 -21.75 -30.0 -15.2 -25.2 -8.75 -20.35 -3.2 -19.85 L-16.3 -18.05 Q-20.4 -17.85 -27.4 -18.0 -34.45 -18.2 -40.25 -22.9 -46.05 -27.65 -48.8 -35.35 M-3.2 -19.85 Q-15.25 -20.1 -21.05 -22.55 -26.9 -25.0 -32.0 -29.9 -37.1 -34.85 -39.15 -40.7" fill="none" stroke="#323232" stroke-linecap="round" stroke-linejoin="round" stroke-width="2.5"/>
    </g>
    <g id="shape6" transform="matrix(1.0, 0.0, 0.0, 1.0, -125.4, -16.95)">
      <path d="M209.95 117.25 L210.05 117.55 Q208.4 117.5 206.55 115.35 208.25 117.25 209.95 117.25" fill="#e4ddb1" fill-rule="evenodd" stroke="none"/>
      <path d="M130.05 20.5 L129.95 20.6 129.9 20.6 130.05 20.5" fill="#e1c92c" fill-rule="evenodd" stroke="none"/>
      <path d="M130.2 20.45 L130.15 20.5 130.1 20.45 130.15 20.45 130.15 20.5 130.2 20.45" fill="#ceaa1a" fill-rule="evenodd" stroke="none"/>
      <path d="M129.95 20.6 L136.9 27.0 155.4 43.7 Q171.35 58.6 184.25 74.15 197.1 89.75 210.25 110.6 L213.15 115.6 Q211.55 117.25 209.95 117.25 208.25 117.25 206.55 115.35 L205.1 113.45 Q177.05 69.8 127.15 22.55 128.35 21.55 129.65 20.75 129.7 20.7 129.9 20.6 L129.95 20.6" fill="#bd3232" fill-rule="evenodd" stroke="none"/>
      <path d="M133.5 18.7 L133.9 19.05 Q166.0 46.3 178.15 59.4 193.9 76.55 208.15 95.1 L215.75 105.35 217.05 108.2 Q217.9 110.3 217.55 112.3 217.15 114.3 214.65 116.0 212.25 117.65 210.05 117.55 L209.95 117.25 Q211.55 117.25 213.15 115.6 L210.25 110.6 Q197.1 89.75 184.25 74.15 171.35 58.6 155.4 43.7 L136.9 27.0 129.95 20.6 130.05 20.5 130.1 20.5 130.05 20.35 130.15 20.45 130.1 20.45 130.15 20.5 130.2 20.45 131.6 19.45 133.5 18.7" fill="#e63232" fill-rule="evenodd" stroke="none"/>
      <path d="M210.05 117.55 Q212.25 117.65 214.65 116.0 217.15 114.3 217.55 112.3 217.9 110.3 217.05 108.2 L215.75 105.35 208.15 95.1 Q193.9 76.55 178.15 59.4 166.0 46.3 133.9 19.05 L133.5 18.7 M210.05 117.55 Q208.4 117.5 206.55 115.35 L205.1 113.45 Q177.05 69.8 127.15 22.55" fill="none" stroke="#323232" stroke-linecap="round" stroke-linejoin="round" stroke-width="3.5"/>
    </g>
    <g id="shape7" transform="matrix(1.0, 0.0, 0.0, 1.0, 0.0, 0.0)">
      <path d="M24.3 8.35 Q25.3 8.95 25.3 9.7 25.3 10.45 24.3 10.9 L22.05 11.3 Q20.8 11.15 19.85 10.5 18.85 9.9 18.85 9.15 18.85 8.45 19.85 7.95 20.8 7.45 22.05 7.6 23.35 7.7 24.3 8.35 M14.75 8.75 L15.65 8.6 Q16.2 8.65 16.6 8.95 L16.95 9.45 16.6 9.95 15.65 10.1 14.75 9.8 14.35 9.25 Q14.35 8.95 14.75 8.75" fill="#fce9ef" fill-rule="evenodd" stroke="none"/>
      <path d="M14.75 8.75 Q14.35 8.95 14.35 9.25 L14.75 9.8 15.65 10.1 16.6 9.95 16.95 9.45 16.6 8.95 Q16.2 8.65 15.65 8.6 L14.75 8.75 M24.3 8.35 Q23.35 7.7 22.05 7.6 20.8 7.45 19.85 7.95 18.85 8.45 18.85 9.15 18.85 9.9 19.85 10.5 20.8 11.15 22.05 11.3 L24.3 10.9 Q25.3 10.45 25.3 9.7 25.3 8.95 24.3 8.35 M0.05 3.85 Q-0.15 1.5 0.6 0.0 L34.95 3.65 Q30.65 14.4 16.2 12.55 1.7 10.65 0.0 3.85 L0.05 3.85" fill="#f4acac" fill-rule="evenodd" stroke="none"/>
    </g>
    <g id="shape8" transform="matrix(1.0, 0.0, 0.0, 1.0, 0.0, 0.0)">
      <path d="M0.0 12.45 Q2.05 6.7 7.1 4.5 12.0 2.5 16.6 5.2 L17.65 5.85 Q26.7 -2.75 38.35 1.25 50.0 5.25 57.05 9.4 L21.25 11.85 Q12.85 12.35 0.0 12.45" fill="#f4acac" fill-rule="evenodd" stroke="none"/>
    </g>
    <g id="shape9" transform="matrix(1.0, 0.0, 0.0, 1.0, 32.3, 25.25)">
      <path d="M72.35 -24.0 Q74.45 12.35 56.45 28.45 L-31.05 17.65 Q-28.25 4.45 -30.55 -9.45 L72.35 -24.0" fill="#713737" fill-rule="evenodd" stroke="none"/>
      <path d="M72.35 -24.0 L-30.55 -9.45 Q-28.25 4.45 -31.05 17.65 L56.45 28.45 Q74.45 12.35 72.35 -24.0 Z" fill="none" stroke="#323232" stroke-linecap="round" stroke-linejoin="round" stroke-width="2.5"/>
    </g>
    <g id="shape10" transform="matrix(1.0, 0.0, 0.0, 1.0, 1.7, 0.8)">
      <path d="M84.9 14.0 L85.55 15.55 Q86.65 18.65 85.4 21.6 74.3 24.75 66.1 16.5 65.2 22.0 60.1 23.55 49.95 26.6 43.2 18.05 L41.35 19.75 Q29.05 30.95 14.3 20.25 12.6 22.1 10.45 23.05 8.25 24.15 4.0 23.7 0.35 17.0 1.5 10.0 6.3 11.9 11.25 13.2 15.6 14.35 18.85 11.65 22.15 14.8 30.1 15.35 39.05 15.9 45.05 10.8 47.35 16.3 56.15 15.5 60.1 15.15 63.4 13.25 65.0 12.3 65.4 10.9 74.3 16.7 84.9 14.0" fill="#b9c7c8" fill-rule="evenodd" stroke="none"/>
      <path d="M87.4 23.9 Q82.55 41.35 62.65 41.7 44.25 43.15 24.9 41.8 7.15 40.55 2.15 24.1 -5.3 6.6 1.6 2.9 8.5 -0.85 17.0 5.25 27.5 -5.35 39.9 2.55 L42.7 4.6 Q52.85 -2.75 62.85 4.5 76.65 -3.4 86.15 10.6 89.45 15.45 87.4 23.9 M1.5 10.0 Q0.35 17.0 4.0 23.7 8.25 24.15 10.45 23.05 12.6 22.1 14.3 20.25 29.05 30.95 41.35 19.75 L43.2 18.05 Q49.95 26.6 60.1 23.55 65.2 22.0 66.1 16.5 74.3 24.75 85.4 21.6 86.65 18.65 85.55 15.55 L84.9 14.0 Q76.6 -1.9 64.9 7.2 L64.15 8.0 Q53.15 -0.7 42.1 7.75 29.4 -4.6 18.8 8.05 L18.0 9.25 Q11.0 2.45 6.9 3.8 2.75 5.15 1.5 10.0 M84.7 24.35 Q76.15 27.25 69.05 21.8 L67.05 20.15 Q62.8 29.2 52.6 27.25 47.1 26.15 43.35 21.75 32.9 31.5 19.3 25.5 16.9 24.45 14.65 23.2 10.7 26.75 5.15 26.4 8.4 34.15 19.6 38.2 30.25 40.25 52.7 40.35 75.1 40.45 83.1 28.9 L84.7 24.35" fill="#323232" fill-rule="evenodd" stroke="none"/>
      <path d="M84.9 14.0 Q74.3 16.7 65.4 10.9 65.0 12.3 63.4 13.25 60.1 15.15 56.15 15.5 47.35 16.3 45.05 10.8 39.05 15.9 30.1 15.35 22.15 14.8 18.85 11.65 15.6 14.35 11.25 13.2 6.3 11.9 1.5 10.0 2.75 5.15 6.9 3.8 11.0 2.45 18.0 9.25 L18.8 8.05 Q29.4 -4.6 42.1 7.75 53.15 -0.7 64.15 8.0 L64.9 7.2 Q76.6 -1.9 84.9 14.0" fill="#d3dbdc" fill-rule="evenodd" stroke="none"/>
      <path d="M84.7 24.35 L83.1 28.9 Q75.1 40.45 52.7 40.35 30.25 40.25 19.6 38.2 8.4 34.15 5.15 26.4 10.7 26.75 14.65 23.2 16.9 24.45 19.3 25.5 32.9 31.5 43.35 21.75 47.1 26.15 52.6 27.25 62.8 29.2 67.05 20.15 L69.05 21.8 Q76.15 27.25 84.7 24.35" fill="#c96598" fill-rule="evenodd" stroke="none"/>
    </g>
    <g id="shape11" transform="matrix(1.0, 0.0, 0.0, 1.0, -1.2, 10.7)">
      <path d="M14.6 -5.9 Q21.05 -9.3 28.75 -9.9 59.65 -12.2 73.9 -7.85 88.15 -3.55 88.2 10.35 88.2 24.25 81.35 34.0 74.5 43.7 63.65 37.8 54.05 44.95 43.9 37.75 40.95 39.85 37.3 40.45 28.55 41.45 23.05 33.75 19.75 36.8 16.9 37.5 9.0 39.5 4.7 32.45 0.6 25.65 1.3 16.6 2.0 7.55 4.75 1.55 8.1 -2.5 14.6 -5.9 M70.0 -5.7 Q57.25 -10.2 35.95 -8.2 14.6 -6.25 7.45 1.6 4.75 5.15 3.95 16.5 14.6 8.2 25.05 17.4 35.0 10.35 44.2 17.85 55.25 10.7 64.5 19.1 71.35 11.8 85.0 12.75 85.55 8.8 84.15 3.75 82.75 -1.25 70.0 -5.7 M82.05 27.65 Q84.15 22.4 84.75 15.55 71.0 15.1 63.95 21.9 54.7 13.45 43.65 20.7 41.95 18.95 39.6 18.0 31.75 14.55 24.8 20.15 L20.95 17.85 Q10.55 11.25 3.45 21.4 3.75 26.75 8.05 32.15 13.95 38.2 23.9 30.15 25.4 34.15 28.65 35.75 36.8 39.8 44.35 34.8 54.5 42.25 63.7 34.85 L65.7 35.95 Q74.55 40.4 79.85 32.0 L82.05 27.7 82.05 27.65" fill="#323232" fill-rule="evenodd" stroke="none"/>
      <path d="M70.0 -5.7 Q82.75 -1.25 84.15 3.75 85.55 8.8 85.0 12.75 71.35 11.8 64.5 19.1 55.25 10.7 44.2 17.85 35.0 10.35 25.05 17.4 14.6 8.2 3.95 16.5 4.75 5.15 7.45 1.6 14.6 -6.25 35.95 -8.2 57.25 -10.2 70.0 -5.7" fill="#c96598" fill-rule="evenodd" stroke="none"/>
      <path d="M23.9 30.15 Q26.3 24.8 34.15 25.7 41.95 26.55 44.0 30.7 49.75 24.35 55.95 26.1 62.15 27.8 63.15 30.7 71.25 22.45 82.05 27.65 L82.05 27.7 79.85 32.0 Q74.55 40.4 65.7 35.95 L63.7 34.85 Q54.5 42.25 44.35 34.8 36.8 39.8 28.65 35.75 25.4 34.15 23.9 30.15" fill="#d3dbdc" fill-rule="evenodd" stroke="none"/>
      <path d="M23.9 30.15 Q13.95 38.2 8.05 32.15 3.75 26.75 3.45 21.4 10.55 11.25 20.95 17.85 L24.8 20.15 Q31.75 14.55 39.6 18.0 41.95 18.95 43.65 20.7 54.7 13.45 63.95 21.9 71.0 15.1 84.75 15.55 84.15 22.4 82.05 27.65 71.25 22.45 63.15 30.7 62.15 27.8 55.95 26.1 49.75 24.35 44.0 30.7 41.95 26.55 34.15 25.7 26.3 24.8 23.9 30.15" fill="#a7b9ba" fill-rule="evenodd" stroke="none"/>
    </g>
    <g id="shape12" transform="matrix(1.0, 0.0, 0.0, 1.0, 36.65, 17.2)">
      <path d="M-35.4 11.4 L-34.4 10.95 -33.7 10.7 Q-27.8 8.5 -10.4 12.2 3.3 14.6 14.4 15.65 L29.45 16.4 39.5 15.9 Q45.65 15.65 50.4 14.15 55.1 12.65 58.55 6.55 61.95 0.45 62.45 -15.95 53.35 -12.9 40.25 -9.8 27.1 -6.75 14.3 -5.35 L-9.8 -3.9 Q-21.1 -3.85 -32.85 -7.1 L-34.8 -7.75" fill="none" stroke="#323232" stroke-linecap="round" stroke-linejoin="round" stroke-width="2.5"/>
    </g>
    <g id="shape13" transform="matrix(1.0, 0.0, 0.0, 1.0, 14.35, 5.7)">
      <path d="M9.75 -1.0 L12.3 1.6 Q13.65 3.15 14.35 5.75 13.95 5.0 12.2 3.8 6.35 -0.3 -0.75 -0.9 -7.9 -1.55 -12.9 -0.1 -14.25 -0.7 -14.35 -1.9 -14.5 -3.1 -13.7 -4.3 -11.05 -5.35 -5.7 -5.65 -0.35 -5.95 4.1 -3.95 8.5 -2.05 9.75 -1.0" fill="#323232" fill-rule="evenodd" stroke="none"/>
    </g>
    <g id="shape14" transform="matrix(1.0, 0.0, 0.0, 1.0, -183.4, -102.85)">
      <path d="M219.45 245.2 L220.45 246.7 Q226.35 255.5 233.75 262.45 226.3 250.05 220.0 234.8 211.45 214.05 210.4 192.15 209.3 170.5 206.0 149.0 L206.05 149.0 Q203.45 131.7 200.2 121.25 L196.25 109.5 Q195.15 106.95 193.8 105.05 L191.9 102.85 Q195.6 103.8 196.7 105.15 198.1 106.7 198.9 108.25 L198.85 108.25 203.0 120.35 Q206.35 130.95 209.0 148.55 212.3 170.2 213.4 191.95 L213.4 192.0 Q214.45 213.4 222.8 233.65 230.4 252.05 239.65 266.25 L241.5 269.1 Q241.8 269.55 241.75 270.1 L241.3 271.0 Q240.9 271.35 240.35 271.4 L239.35 271.15 Q227.05 261.9 217.95 248.4 197.85 218.65 193.55 167.85 191.5 143.95 188.3 131.3 L184.7 118.0 Q183.55 114.3 183.45 112.55 L183.5 112.55 Q183.3 110.65 183.5 108.95 L183.5 108.9 Q183.6 108.0 183.95 107.25 L184.0 107.2 Q184.6 106.0 185.85 105.0 L186.8 104.15 186.45 106.45 Q186.0 110.05 186.45 112.3 186.6 113.9 187.6 117.1 L191.2 130.55 Q194.45 143.35 196.5 167.6 200.65 216.2 219.45 245.2" fill="#323232" fill-rule="evenodd" stroke="none"/>
      <path d="M193.8 105.05 Q195.15 106.95 196.25 109.5 L200.2 121.25 Q203.45 131.7 206.05 149.0 L206.0 149.0 Q209.3 170.5 210.4 192.15 211.45 214.05 220.0 234.8 226.3 250.05 233.75 262.45 226.35 255.5 220.45 246.7 L219.45 245.2 Q209.75 226.15 205.5 205.3 201.05 183.3 200.25 161.7 199.5 140.1 195.95 124.8 192.4 109.5 190.7 103.6 L192.05 103.85 Q192.85 103.8 193.8 105.05" fill="#e63232" fill-rule="evenodd" stroke="none"/>
      <path d="M219.45 245.2 Q200.65 216.2 196.5 167.6 194.45 143.35 191.2 130.55 L187.6 117.1 Q186.6 113.9 186.45 112.3 186.0 110.05 186.45 106.45 L186.75 106.2 Q188.3 104.95 190.7 103.6 192.4 109.5 195.95 124.8 199.5 140.1 200.25 161.7 201.05 183.3 205.5 205.3 209.75 226.15 219.45 245.2" fill="#bd3232" fill-rule="evenodd" stroke="none"/>
    </g>
  </defs>
</svg>
