<?xml version="1.0" encoding="UTF-8" standalone="no"?>
<svg xmlns:ffdec="https://www.free-decompiler.com/flash" xmlns:xlink="http://www.w3.org/1999/xlink" ffdec:objectType="frame" height="101.85px" width="93.5px" xmlns="http://www.w3.org/2000/svg">
  <g transform="matrix(1.0, 0.0, 0.0, 1.0, -125.65, -17.2)">
    <use ffdec:characterId="675" height="101.85" transform="matrix(1.0, 0.0, 0.0, 1.0, 125.65, 17.2)" width="93.5" xlink:href="#shape0"/>
  </g>
  <defs>
    <g id="shape0" transform="matrix(1.0, 0.0, 0.0, 1.0, -125.65, -17.2)">
      <path d="M133.5 18.7 L133.9 19.05 Q166.0 46.3 178.15 59.4 193.9 76.55 208.15 95.1 L215.75 105.35 217.05 108.2 Q217.9 110.3 217.55 112.3 217.15 114.3 214.65 116.0 212.25 117.65 210.05 117.55 208.4 117.5 206.55 115.35 209.9 119.05 213.15 115.6 L210.25 110.6 Q197.1 89.75 184.25 74.15 171.35 58.6 155.4 43.7 L131.55 22.0 Q130.75 21.25 130.35 20.3 L130.55 20.2 131.85 19.5 131.9 19.45 132.15 19.35 133.5 18.7" fill="#e4ddb1" fill-rule="evenodd" stroke="none"/>
      <path d="M130.35 20.3 Q130.75 21.25 131.55 22.0 L155.4 43.7 Q171.35 58.6 184.25 74.15 197.1 89.75 210.25 110.6 L213.15 115.6 Q209.9 119.05 206.55 115.35 L205.1 113.45 Q177.05 69.8 127.15 22.55 128.35 21.55 129.65 20.75 L130.05 20.5 130.1 20.45 130.35 20.3" fill="#dfd1a4" fill-rule="evenodd" stroke="none"/>
      <path d="M131.85 19.5 L130.55 20.2 Q131.25 19.75 131.8 19.45 L131.85 19.5" fill="#dee1e2" fill-rule="evenodd" stroke="none"/>
      <path d="M206.55 115.35 Q208.4 117.5 210.05 117.55 212.25 117.65 214.65 116.0 217.15 114.3 217.55 112.3 217.9 110.3 217.05 108.2 L215.75 105.35 208.15 95.1 Q193.9 76.55 178.15 59.4 166.0 46.3 133.9 19.05 L133.5 18.7 M206.55 115.35 L205.1 113.45 Q177.05 69.8 127.15 22.55" fill="none" stroke="#323232" stroke-linecap="round" stroke-linejoin="round" stroke-width="3.0"/>
      <path d="M133.5 18.7 L132.15 19.35 131.9 19.45 131.85 19.5 130.55 20.2 130.35 20.3 130.1 20.45 130.35 20.3 M127.15 22.55 Q128.35 21.55 129.65 20.75 L130.05 20.5 130.1 20.45" fill="none" stroke="#323232" stroke-linecap="round" stroke-linejoin="round" stroke-width="3.0"/>
    </g>
  </defs>
</svg>
