<?xml version="1.0" encoding="UTF-8" standalone="no"?>
<svg xmlns:ffdec="https://www.free-decompiler.com/flash" xmlns:xlink="http://www.w3.org/1999/xlink" ffdec:objectType="frame" height="38.3px" width="24.8px" xmlns="http://www.w3.org/2000/svg">
  <g transform="matrix(1.0, 0.0, 0.0, 1.0, 3.15, 3.55)">
    <use ffdec:characterId="1717" height="38.3" transform="matrix(1.0, 0.0, 0.0, 1.0, -3.15, -3.55)" width="24.8" xlink:href="#shape0"/>
  </g>
  <defs>
    <g id="shape0" transform="matrix(1.0, 0.0, 0.0, 1.0, 3.15, 3.55)">
      <path d="M8.2 -0.55 L8.2 10.75 5.2 12.15 5.55 32.45 Q3.5 33.6 1.4 32.45 L1.75 12.3 -1.4 10.75 -1.4 -0.55 -0.75 -1.4 -0.35 -1.05 0.2 -0.55 0.4 8.8 2.35 8.8 2.5 -0.55 Q3.3 -2.25 4.25 -0.55 L4.4 8.8 6.4 8.8 6.6 -0.55 Q7.05 -1.5 7.55 -1.45 L7.55 -1.4 8.2 -0.55 M16.3 16.45 L13.45 15.1 Q13.25 3.25 15.3 0.15 17.4 -3.05 19.9 -0.65 L19.9 32.35 Q17.85 33.25 15.7 32.35 L16.3 16.45" fill="#7e7e7e" fill-rule="evenodd" stroke="none"/>
      <path d="M8.2 -0.55 L8.2 10.75 5.2 12.15 5.55 32.45 Q3.5 33.6 1.4 32.45 L1.75 12.3 -1.4 10.75 -1.4 -0.55 -0.75 -1.4 -0.35 -1.05 0.2 -0.55 0.4 8.8 2.35 8.8 2.5 -0.55 Q3.3 -2.25 4.25 -0.55 L4.4 8.8 6.4 8.8 6.6 -0.55 Q7.05 -1.5 7.55 -1.45 L7.55 -1.4 8.2 -0.55 M16.3 16.45 L15.7 32.35 Q17.85 33.25 19.9 32.35 L19.9 -0.65 Q17.4 -3.05 15.3 0.15 13.25 3.25 13.45 15.1 L16.3 16.45 Z" fill="none" stroke="#999999" stroke-linecap="round" stroke-linejoin="round" stroke-width="3.5"/>
      <path d="M4.25 -1.15 L4.4 8.2 6.4 8.2 6.6 -1.15 Q7.05 -2.1 7.55 -2.05 L7.55 -2.0 8.2 -1.15 8.2 10.15 5.2 11.55 5.55 31.85 Q3.5 33.0 1.4 31.85 L1.75 11.7 -1.4 10.15 -1.4 -1.15 -0.75 -2.0 -0.35 -1.65 0.2 -1.15 0.4 8.2 2.35 8.2 2.5 -1.15 Q3.3 -2.85 4.25 -1.15 M15.3 -0.45 Q17.4 -3.65 19.9 -1.25 L19.9 31.75 Q17.85 32.65 15.7 31.75 L16.3 15.85 13.45 14.5 Q13.25 2.65 15.3 -0.45" fill="#999999" fill-rule="evenodd" stroke="none"/>
      <path d="M4.25 -1.15 L4.4 8.2 6.4 8.2 6.6 -1.15 Q7.05 -2.1 7.55 -2.05 L7.55 -2.0 8.2 -1.15 8.2 10.15 5.2 11.55 5.55 31.85 Q3.5 33.0 1.4 31.85 L1.75 11.7 -1.4 10.15 -1.4 -1.15 -0.75 -2.0 -0.35 -1.65 0.2 -1.15 0.4 8.2 2.35 8.2 2.5 -1.15 Q3.3 -2.85 4.25 -1.15 M15.3 -0.45 Q13.25 2.65 13.45 14.5 L16.3 15.85 15.7 31.75 Q17.85 32.65 19.9 31.75 L19.9 -1.25 Q17.4 -3.65 15.3 -0.45 Z" fill="none" stroke="#999999" stroke-linecap="round" stroke-linejoin="round" stroke-width="2.5"/>
      <path d="M15.3 -1.05 Q17.4 -4.25 19.9 -1.9 L19.9 31.2 Q17.85 32.1 15.7 31.2 L16.3 15.25 13.45 13.9 Q13.25 2.1 15.3 -1.05 M4.25 -1.7 L4.4 7.65 6.4 7.65 6.6 -1.7 Q7.05 -2.65 7.55 -2.6 L7.55 -2.55 8.2 -1.7 8.2 9.55 5.2 11.0 5.55 31.25 Q3.5 32.4 1.4 31.25 L1.75 11.15 -1.4 9.55 -1.4 -1.7 -0.75 -2.55 -0.35 -2.25 0.2 -1.7 0.4 7.65 2.35 7.65 2.5 -1.7 Q3.3 -3.5 4.25 -1.7" fill="#cccccc" fill-rule="evenodd" stroke="none"/>
      <path d="M15.3 -1.05 L15.6 -1.45 19.9 3.25 19.9 8.9 14.15 2.25 Q14.6 0.05 15.3 -1.05 M2.5 0.5 L4.35 2.9 4.4 6.65 2.4 4.15 2.5 0.5 M8.2 9.55 L7.1 10.1 5.15 7.65 6.4 7.65 6.45 5.8 8.2 8.2 8.2 9.55 M5.45 23.55 L1.65 18.9 1.75 11.15 -1.4 9.55 -1.4 6.85 5.25 14.65 5.45 23.55 M16.0 22.85 L16.3 15.25 13.45 13.9 13.45 10.8 19.9 18.2 19.9 27.1 16.0 22.85 M0.3 1.45 L-1.4 -0.7 -1.4 -1.7 -0.75 -2.55 -0.35 -2.25 0.2 -1.7 0.3 1.45" fill="#ffffff" fill-opacity="0.6" fill-rule="evenodd" stroke="none"/>
      <path d="M15.15 -0.5 Q14.85 -0.7 14.8 -1.05 14.7 -1.45 14.95 -1.8 L15.55 -2.35 Q15.85 -2.55 16.15 -2.35 L16.5 -1.8 16.3 -1.05 15.75 -0.5 Q15.45 -0.35 15.15 -0.5 M15.55 3.2 Q15.3 4.25 14.7 4.9 14.15 5.6 13.7 5.5 13.2 5.35 13.05 4.45 12.9 3.6 13.2 2.5 13.45 1.4 14.0 0.75 14.65 0.1 15.15 0.25 15.6 0.35 15.65 1.2 15.85 2.05 15.55 3.2 M-2.2 -1.2 Q-1.9 -1.65 -1.45 -1.65 -1.0 -1.65 -0.7 -1.2 -0.4 -0.7 -0.4 -0.05 -0.4 0.6 -0.7 1.05 L-1.45 1.55 -2.2 1.05 -2.5 -0.05 -2.2 -1.2 M-1.6 2.2 Q-1.4 1.9 -1.15 1.9 -0.9 1.9 -0.7 2.2 L-0.5 2.9 -0.7 3.6 -1.15 3.9 -1.6 3.6 -1.8 2.9 -1.6 2.2" fill="#ffffff" fill-rule="evenodd" stroke="none"/>
    </g>
  </defs>
</svg>
