<?xml version="1.0" encoding="UTF-8" standalone="no"?>
<svg xmlns:ffdec="https://www.free-decompiler.com/flash" xmlns:xlink="http://www.w3.org/1999/xlink" ffdec:objectType="frame" height="94.65px" width="26.1px" xmlns="http://www.w3.org/2000/svg">
  <g transform="matrix(1.0, 0.0, 0.0, 1.0, 0.5, 25.55)">
    <use ffdec:characterId="2335" height="54.9" id="up_btn" transform="matrix(0.0, -1.0, 0.4751, 0.0, -0.4759, 45.85)" width="71.4" xlink:href="#button0"/>
    <use ffdec:characterId="2335" height="54.9" id="down_btn" transform="matrix(0.0, 1.0, 0.4751, 0.0, -0.4759, -2.3)" width="71.4" xlink:href="#button0"/>
    <use ffdec:characterId="2340" height="49.5" id="joy2_spr" transform="matrix(1.0, 0.0, 0.0, 1.0, 0.0, -2.5)" width="25.4" xlink:href="#sprite1"/>
  </g>
  <defs>
    <g id="button0" transform="matrix(1.0, 0.0, 0.0, 1.0, 52.8, 11.0)">
      <filter id="filter0">
        <feFlood flood-color="#ffffff" flood-opacity="1.0" result="filterResult0"/>
        <feOffset dx="2.12134798749606" dy="2.1212926992629795" in="SourceGraphic" result="filterResult1"/>
        <feComposite in="filterResult0" in2="filterResult1" operator="out" result="filterResult2"/>
        <feComposite in="filterResult2" in2="SourceGraphic" operator="in" result="filterResult3"/>
        <feColorMatrix in="filterResult3" result="filterResult4" type="matrix" values="1 0 0 0 0,0 1 0 0 0,0 0 1 0 0,0 0 0 0.41796875 0"/>
        <feFlood flood-color="#000000" flood-opacity="1.0" result="filterResult5"/>
        <feOffset dx="-2.12134798749606" dy="-2.121292699262979" in="SourceGraphic" result="filterResult6"/>
        <feComposite in="filterResult5" in2="filterResult6" operator="out" result="filterResult7"/>
        <feComposite in="filterResult7" in2="SourceGraphic" operator="in" result="filterResult8"/>
        <feColorMatrix in="filterResult8" result="filterResult9" type="matrix" values="1 0 0 0 0,0 1 0 0 0,0 0 1 0 0,0 0 0 0.41796875 0"/>
        <feComposite in="filterResult4" in2="filterResult9" operator="out" result="filterResult10"/>
        <feComposite in="filterResult9" in2="filterResult4" operator="out" result="filterResult11"/>
        <feComposite in="filterResult11" in2="filterResult10" operator="over" result="filterResult12"/>
        <feConvolveMatrix divisor="9.0" in="filterResult12" kernelMatrix="1 1 1 1 1 1 1 1 1" order="3 3" result="filterResult13"/>
        <feComposite in="filterResult13" in2="SourceGraphic" operator="in" result="filterResult14"/>
        <feComposite in="filterResult14" in2="SourceGraphic" operator="over" result="filterResult15"/>
        <feColorMatrix in="filterResult15" result="filterResult16" type="matrix" values="-0.11674316 1.7206234 -0.6038803 0.0 0.090196066 0.23591341 0.42684317 0.33724335 0.0 0.09019607 0.95865905 0.6093048 -0.5679639 0.0 0.09019607 0.0 0.0 0.0 1.0 0.0"/>
      </filter>
      <use ffdec:characterId="2334" filter="url(#filter0)" height="54.4" transform="matrix(1.0, 0.0, 0.0, 1.0, -1.0, -11.0)" width="17.5" xlink:href="#sprite0"/>
    </g>
    <g id="sprite0" transform="matrix(1.0, 0.0, 0.0, 1.0, 1.0, 1.0)">
      <use ffdec:characterId="2333" height="54.4" transform="matrix(1.0, 0.0, 0.0, 1.0, -1.0, -1.0)" width="17.5" xlink:href="#shape0"/>
    </g>
    <g id="shape0" transform="matrix(1.0, 0.0, 0.0, 1.0, 1.0, 1.0)">
      <path d="M15.5 26.2 L0.0 52.4 0.0 0.0 15.5 26.2" fill="#c50000" fill-rule="evenodd" stroke="none"/>
      <path d="M1.2 5.7 L1.2 47.05 M14.05 25.95 L1.75 5.3" fill="none" stroke="#ff9797" stroke-linecap="round" stroke-linejoin="round" stroke-width="4.0"/>
      <path d="M15.5 26.2 L0.0 52.4 0.0 0.0 15.5 26.2 Z" fill="none" stroke="#a42f2f" stroke-linecap="round" stroke-linejoin="round" stroke-width="2.0"/>
    </g>
    <g id="sprite1" transform="matrix(1.0, 0.0, 0.0, 1.0, 12.6, 24.75)">
      <use ffdec:characterId="2336" height="49.5" transform="matrix(1.0, 0.0, 0.0, 1.0, -12.6, -24.75)" width="25.4" xlink:href="#shape1"/>
      <use ffdec:characterId="2337" height="0.0" transform="matrix(0.8465, 0.0, 0.0, 0.8465, 0.0, -20.0)" width="0.0" xlink:href="#sprite2"/>
      <use ffdec:characterId="2339" height="28.0" id="s6" transform="matrix(0.5884, 0.0, 0.0, 0.5884, -8.2379, -8.2379)" width="28.0" xlink:href="#sprite3"/>
      <use ffdec:characterId="2339" height="28.0" id="s5" transform="matrix(0.6403, 0.0, 0.0, 0.6403, -8.9647, -8.9647)" width="28.0" xlink:href="#sprite4"/>
      <use ffdec:characterId="2339" height="28.0" id="s4" transform="matrix(0.6923, 0.0, 0.0, 0.6923, -9.6919, -9.6919)" width="28.0" xlink:href="#sprite5"/>
      <use ffdec:characterId="2339" height="28.0" id="s3" transform="matrix(0.7442, 0.0, 0.0, 0.7442, -10.4193, -10.4193)" width="28.0" xlink:href="#sprite6"/>
      <use ffdec:characterId="2339" height="28.0" id="s2" transform="matrix(0.7962, 0.0, 0.0, 0.7962, -11.1464, -11.1464)" width="28.0" xlink:href="#sprite7"/>
      <use ffdec:characterId="2339" height="28.0" id="s1" transform="matrix(0.8481, 0.0, 0.0, 0.8481, -11.873, -11.873)" width="28.0" xlink:href="#sprite8"/>
      <use ffdec:characterId="2339" height="28.0" id="s0" transform="matrix(0.9, 0.0, 0.0, 0.9, -12.5999, -12.5999)" width="28.0" xlink:href="#sprite9"/>
    </g>
    <g id="shape1" transform="matrix(1.0, 0.0, 0.0, 1.0, 12.6, 24.75)">
      <path d="M-4.9 22.25 Q-10.1 22.25 -10.1 16.25 L-10.1 -16.25 Q-10.1 -22.25 -4.9 -22.25 L5.05 -22.25 Q10.3 -22.25 10.3 -16.25 L10.3 16.25 Q10.3 22.25 5.05 22.25 L-4.9 22.25" fill="url(#gradient0)" fill-rule="evenodd" stroke="none"/>
      <path d="M10.3 -16.25 Q10.3 -22.25 5.05 -22.25 L-4.9 -22.25 Q-10.1 -22.25 -10.1 -16.25 L-10.1 16.25 Q-10.1 22.25 -4.9 22.25" fill="none" stroke="#574d2b" stroke-linecap="round" stroke-linejoin="round" stroke-width="5.0"/>
      <path d="M-4.9 22.25 L5.05 22.25 Q10.3 22.25 10.3 16.25 L10.3 -16.25" fill="none" stroke="#b99e42" stroke-linecap="round" stroke-linejoin="round" stroke-width="5.0"/>
    </g>
    <linearGradient gradientTransform="matrix(0.0, -0.0323, 1.0024, -3.0E-4, -76.5, 0.0)" gradientUnits="userSpaceOnUse" id="gradient0" spreadMethod="pad" x1="-819.2" x2="819.2">
      <stop offset="0.0" stop-color="#252525"/>
      <stop offset="0.4117647058823529" stop-color="#666666"/>
      <stop offset="0.6588235294117647" stop-color="#6f6f6f"/>
      <stop offset="1.0" stop-color="#1a1a1a"/>
    </linearGradient>
    <g id="sprite3" transform="matrix(1.0, 0.0, 0.0, 1.0, 14.0, 14.0)">
      <use ffdec:characterId="2338" height="28.0" transform="matrix(1.0, 0.0, 0.0, 1.0, -14.0, -14.0)" width="28.0" xlink:href="#shape2"/>
    </g>
    <g id="shape2" transform="matrix(1.0, 0.0, 0.0, 1.0, 14.0, 14.0)">
      <path d="M9.9 -9.9 Q14.0 -5.8 14.0 0.0 14.0 5.75 9.9 9.85 5.75 14.0 0.0 14.0 -5.75 14.0 -9.9 9.85 -14.0 5.75 -14.0 0.0 -14.0 -5.8 -9.9 -9.9 -5.75 -14.0 0.0 -14.0 5.75 -14.0 9.9 -9.9" fill="url(#gradient1)" fill-rule="evenodd" stroke="none"/>
      <path d="M-11.1 -2.3 Q-11.1 -3.45 -10.3 -4.3 -9.45 -5.1 -8.3 -5.1 -7.15 -5.1 -6.35 -4.3 -5.5 -3.45 -5.5 -2.3 -5.5 -1.15 -6.35 -0.35 -7.15 0.5 -8.3 0.5 -9.45 0.5 -10.3 -0.35 -11.1 -1.15 -11.1 -2.3 M-4.05 -6.45 Q-4.65 -5.8 -5.5 -5.8 -6.35 -5.8 -7.0 -6.45 -7.6 -7.05 -7.6 -7.9 -7.6 -8.75 -7.0 -9.4 -6.35 -10.0 -5.5 -10.0 -4.65 -10.0 -4.05 -9.4 -3.4 -8.75 -3.4 -7.9 -3.4 -7.05 -4.05 -6.45" fill="#a3a3a3" fill-rule="evenodd" stroke="none"/>
      <path d="M-0.75 -9.75 Q7.5 -9.75 9.9 -2.0" fill="none" stroke="#a3a3a3" stroke-linecap="round" stroke-linejoin="round" stroke-width="3.0"/>
    </g>
    <radialGradient cx="0" cy="0" gradientTransform="matrix(0.0212, 0.0, 0.0, 0.0212, 1.1, -0.85)" gradientUnits="userSpaceOnUse" id="gradient1" r="819.2" spreadMethod="pad">
      <stop offset="0.5333333333333333" stop-color="#7b95a0"/>
      <stop offset="0.7215686274509804" stop-color="#43809b"/>
    </radialGradient>
    <g id="sprite4" transform="matrix(1.0, 0.0, 0.0, 1.0, 14.0, 14.0)">
      <use ffdec:characterId="2338" height="28.0" transform="matrix(1.0, 0.0, 0.0, 1.0, -14.0, -14.0)" width="28.0" xlink:href="#shape3"/>
    </g>
    <g id="shape3" transform="matrix(1.0, 0.0, 0.0, 1.0, 14.0, 14.0)">
      <path d="M9.9 -9.9 Q14.0 -5.8 14.0 0.0 14.0 5.75 9.9 9.85 5.75 14.0 0.0 14.0 -5.75 14.0 -9.9 9.85 -14.0 5.75 -14.0 0.0 -14.0 -5.8 -9.9 -9.9 -5.75 -14.0 0.0 -14.0 5.75 -14.0 9.9 -9.9" fill="url(#gradient2)" fill-rule="evenodd" stroke="none"/>
      <path d="M-11.1 -2.3 Q-11.1 -3.45 -10.3 -4.3 -9.45 -5.1 -8.3 -5.1 -7.15 -5.1 -6.35 -4.3 -5.5 -3.45 -5.5 -2.3 -5.5 -1.15 -6.35 -0.35 -7.15 0.5 -8.3 0.5 -9.45 0.5 -10.3 -0.35 -11.1 -1.15 -11.1 -2.3 M-4.05 -6.45 Q-4.65 -5.8 -5.5 -5.8 -6.35 -5.8 -7.0 -6.45 -7.6 -7.05 -7.6 -7.9 -7.6 -8.75 -7.0 -9.4 -6.35 -10.0 -5.5 -10.0 -4.65 -10.0 -4.05 -9.4 -3.4 -8.75 -3.4 -7.9 -3.4 -7.05 -4.05 -6.45" fill="#b2b2b2" fill-rule="evenodd" stroke="none"/>
      <path d="M-0.75 -9.75 Q7.5 -9.75 9.9 -2.0" fill="none" stroke="#b2b2b2" stroke-linecap="round" stroke-linejoin="round" stroke-width="3.0"/>
    </g>
    <radialGradient cx="0" cy="0" gradientTransform="matrix(0.0212, 0.0, 0.0, 0.0212, 1.1, -0.85)" gradientUnits="userSpaceOnUse" id="gradient2" r="819.2" spreadMethod="pad">
      <stop offset="0.5333333333333333" stop-color="#86a2ae"/>
      <stop offset="0.7215686274509804" stop-color="#498ba9"/>
    </radialGradient>
    <g id="sprite5" transform="matrix(1.0, 0.0, 0.0, 1.0, 14.0, 14.0)">
      <use ffdec:characterId="2338" height="28.0" transform="matrix(1.0, 0.0, 0.0, 1.0, -14.0, -14.0)" width="28.0" xlink:href="#shape4"/>
    </g>
    <g id="shape4" transform="matrix(1.0, 0.0, 0.0, 1.0, 14.0, 14.0)">
      <path d="M9.9 -9.9 Q14.0 -5.8 14.0 0.0 14.0 5.75 9.9 9.85 5.75 14.0 0.0 14.0 -5.75 14.0 -9.9 9.85 -14.0 5.75 -14.0 0.0 -14.0 -5.8 -9.9 -9.9 -5.75 -14.0 0.0 -14.0 5.75 -14.0 9.9 -9.9" fill="url(#gradient3)" fill-rule="evenodd" stroke="none"/>
      <path d="M-11.1 -2.3 Q-11.1 -3.45 -10.3 -4.3 -9.45 -5.1 -8.3 -5.1 -7.15 -5.1 -6.35 -4.3 -5.5 -3.45 -5.5 -2.3 -5.5 -1.15 -6.35 -0.35 -7.15 0.5 -8.3 0.5 -9.45 0.5 -10.3 -0.35 -11.1 -1.15 -11.1 -2.3 M-4.05 -6.45 Q-4.65 -5.8 -5.5 -5.8 -6.35 -5.8 -7.0 -6.45 -7.6 -7.05 -7.6 -7.9 -7.6 -8.75 -7.0 -9.4 -6.35 -10.0 -5.5 -10.0 -4.65 -10.0 -4.05 -9.4 -3.4 -8.75 -3.4 -7.9 -3.4 -7.05 -4.05 -6.45" fill="#c2c2c2" fill-rule="evenodd" stroke="none"/>
      <path d="M-0.75 -9.75 Q7.5 -9.75 9.9 -2.0" fill="none" stroke="#c2c2c2" stroke-linecap="round" stroke-linejoin="round" stroke-width="3.0"/>
    </g>
    <radialGradient cx="0" cy="0" gradientTransform="matrix(0.0212, 0.0, 0.0, 0.0212, 1.1, -0.85)" gradientUnits="userSpaceOnUse" id="gradient3" r="819.2" spreadMethod="pad">
      <stop offset="0.5333333333333333" stop-color="#92b1be"/>
      <stop offset="0.7215686274509804" stop-color="#4f98b9"/>
    </radialGradient>
    <g id="sprite6" transform="matrix(1.0, 0.0, 0.0, 1.0, 14.0, 14.0)">
      <use ffdec:characterId="2338" height="28.0" transform="matrix(1.0, 0.0, 0.0, 1.0, -14.0, -14.0)" width="28.0" xlink:href="#shape5"/>
    </g>
    <g id="shape5" transform="matrix(1.0, 0.0, 0.0, 1.0, 14.0, 14.0)">
      <path d="M9.9 -9.9 Q14.0 -5.8 14.0 0.0 14.0 5.75 9.9 9.85 5.75 14.0 0.0 14.0 -5.75 14.0 -9.9 9.85 -14.0 5.75 -14.0 0.0 -14.0 -5.8 -9.9 -9.9 -5.75 -14.0 0.0 -14.0 5.75 -14.0 9.9 -9.9" fill="url(#gradient4)" fill-rule="evenodd" stroke="none"/>
      <path d="M-11.1 -2.3 Q-11.1 -3.45 -10.3 -4.3 -9.45 -5.1 -8.3 -5.1 -7.15 -5.1 -6.35 -4.3 -5.5 -3.45 -5.5 -2.3 -5.5 -1.15 -6.35 -0.35 -7.15 0.5 -8.3 0.5 -9.45 0.5 -10.3 -0.35 -11.1 -1.15 -11.1 -2.3 M-4.05 -6.45 Q-4.65 -5.8 -5.5 -5.8 -6.35 -5.8 -7.0 -6.45 -7.6 -7.05 -7.6 -7.9 -7.6 -8.75 -7.0 -9.4 -6.35 -10.0 -5.5 -10.0 -4.65 -10.0 -4.05 -9.4 -3.4 -8.75 -3.4 -7.9 -3.4 -7.05 -4.05 -6.45" fill="#d1d1d1" fill-rule="evenodd" stroke="none"/>
      <path d="M-0.75 -9.75 Q7.5 -9.75 9.9 -2.0" fill="none" stroke="#d1d1d1" stroke-linecap="round" stroke-linejoin="round" stroke-width="3.0"/>
    </g>
    <radialGradient cx="0" cy="0" gradientTransform="matrix(0.0212, 0.0, 0.0, 0.0212, 1.1, -0.85)" gradientUnits="userSpaceOnUse" id="gradient4" r="819.2" spreadMethod="pad">
      <stop offset="0.5333333333333333" stop-color="#9dbfcd"/>
      <stop offset="0.7215686274509804" stop-color="#56a4c7"/>
    </radialGradient>
    <g id="sprite7" transform="matrix(1.0, 0.0, 0.0, 1.0, 14.0, 14.0)">
      <use ffdec:characterId="2338" height="28.0" transform="matrix(1.0, 0.0, 0.0, 1.0, -14.0, -14.0)" width="28.0" xlink:href="#shape6"/>
    </g>
    <g id="shape6" transform="matrix(1.0, 0.0, 0.0, 1.0, 14.0, 14.0)">
      <path d="M9.9 -9.9 Q14.0 -5.8 14.0 0.0 14.0 5.75 9.9 9.85 5.75 14.0 0.0 14.0 -5.75 14.0 -9.9 9.85 -14.0 5.75 -14.0 0.0 -14.0 -5.8 -9.9 -9.9 -5.75 -14.0 0.0 -14.0 5.75 -14.0 9.9 -9.9" fill="url(#gradient5)" fill-rule="evenodd" stroke="none"/>
      <path d="M-11.1 -2.3 Q-11.1 -3.45 -10.3 -4.3 -9.45 -5.1 -8.3 -5.1 -7.15 -5.1 -6.35 -4.3 -5.5 -3.45 -5.5 -2.3 -5.5 -1.15 -6.35 -0.35 -7.15 0.5 -8.3 0.5 -9.45 0.5 -10.3 -0.35 -11.1 -1.15 -11.1 -2.3 M-4.05 -6.45 Q-4.65 -5.8 -5.5 -5.8 -6.35 -5.8 -7.0 -6.45 -7.6 -7.05 -7.6 -7.9 -7.6 -8.75 -7.0 -9.4 -6.35 -10.0 -5.5 -10.0 -4.65 -10.0 -4.05 -9.4 -3.4 -8.75 -3.4 -7.9 -3.4 -7.05 -4.05 -6.45" fill="#e0e0e0" fill-rule="evenodd" stroke="none"/>
      <path d="M-0.75 -9.75 Q7.5 -9.75 9.9 -2.0" fill="none" stroke="#e0e0e0" stroke-linecap="round" stroke-linejoin="round" stroke-width="3.0"/>
    </g>
    <radialGradient cx="0" cy="0" gradientTransform="matrix(0.0212, 0.0, 0.0, 0.0212, 1.1, -0.85)" gradientUnits="userSpaceOnUse" id="gradient5" r="819.2" spreadMethod="pad">
      <stop offset="0.5333333333333333" stop-color="#a8ccdb"/>
      <stop offset="0.7215686274509804" stop-color="#5cafd5"/>
    </radialGradient>
    <g id="sprite8" transform="matrix(1.0, 0.0, 0.0, 1.0, 14.0, 14.0)">
      <use ffdec:characterId="2338" height="28.0" transform="matrix(1.0, 0.0, 0.0, 1.0, -14.0, -14.0)" width="28.0" xlink:href="#shape7"/>
    </g>
    <g id="shape7" transform="matrix(1.0, 0.0, 0.0, 1.0, 14.0, 14.0)">
      <path d="M9.9 -9.9 Q14.0 -5.8 14.0 0.0 14.0 5.75 9.9 9.85 5.75 14.0 0.0 14.0 -5.75 14.0 -9.9 9.85 -14.0 5.75 -14.0 0.0 -14.0 -5.8 -9.9 -9.9 -5.75 -14.0 0.0 -14.0 5.75 -14.0 9.9 -9.9" fill="url(#gradient6)" fill-rule="evenodd" stroke="none"/>
      <path d="M-11.1 -2.3 Q-11.1 -3.45 -10.3 -4.3 -9.45 -5.1 -8.3 -5.1 -7.15 -5.1 -6.35 -4.3 -5.5 -3.45 -5.5 -2.3 -5.5 -1.15 -6.35 -0.35 -7.15 0.5 -8.3 0.5 -9.45 0.5 -10.3 -0.35 -11.1 -1.15 -11.1 -2.3 M-4.05 -6.45 Q-4.65 -5.8 -5.5 -5.8 -6.35 -5.8 -7.0 -6.45 -7.6 -7.05 -7.6 -7.9 -7.6 -8.75 -7.0 -9.4 -6.35 -10.0 -5.5 -10.0 -4.65 -10.0 -4.05 -9.4 -3.4 -8.75 -3.4 -7.9 -3.4 -7.05 -4.05 -6.45" fill="#f0f0f0" fill-rule="evenodd" stroke="none"/>
      <path d="M-0.75 -9.75 Q7.5 -9.75 9.9 -2.0" fill="none" stroke="#f0f0f0" stroke-linecap="round" stroke-linejoin="round" stroke-width="3.0"/>
    </g>
    <radialGradient cx="0" cy="0" gradientTransform="matrix(0.0212, 0.0, 0.0, 0.0212, 1.1, -0.85)" gradientUnits="userSpaceOnUse" id="gradient6" r="819.2" spreadMethod="pad">
      <stop offset="0.5333333333333333" stop-color="#b4dbeb"/>
      <stop offset="0.7215686274509804" stop-color="#62bce4"/>
    </radialGradient>
    <g id="sprite9" transform="matrix(1.0, 0.0, 0.0, 1.0, 14.0, 14.0)">
      <use ffdec:characterId="2338" height="28.0" transform="matrix(1.0, 0.0, 0.0, 1.0, -14.0, -14.0)" width="28.0" xlink:href="#shape8"/>
    </g>
    <g id="shape8" transform="matrix(1.0, 0.0, 0.0, 1.0, 14.0, 14.0)">
      <path d="M9.9 -9.9 Q14.0 -5.8 14.0 0.0 14.0 5.75 9.9 9.85 5.75 14.0 0.0 14.0 -5.75 14.0 -9.9 9.85 -14.0 5.75 -14.0 0.0 -14.0 -5.8 -9.9 -9.9 -5.75 -14.0 0.0 -14.0 5.75 -14.0 9.9 -9.9" fill="url(#gradient7)" fill-rule="evenodd" stroke="none"/>
      <path d="M-11.1 -2.3 Q-11.1 -3.45 -10.3 -4.3 -9.45 -5.1 -8.3 -5.1 -7.15 -5.1 -6.35 -4.3 -5.5 -3.45 -5.5 -2.3 -5.5 -1.15 -6.35 -0.35 -7.15 0.5 -8.3 0.5 -9.45 0.5 -10.3 -0.35 -11.1 -1.15 -11.1 -2.3 M-4.05 -6.45 Q-4.65 -5.8 -5.5 -5.8 -6.35 -5.8 -7.0 -6.45 -7.6 -7.05 -7.6 -7.9 -7.6 -8.75 -7.0 -9.4 -6.35 -10.0 -5.5 -10.0 -4.65 -10.0 -4.05 -9.4 -3.4 -8.75 -3.4 -7.9 -3.4 -7.05 -4.05 -6.45" fill="#ffffff" fill-rule="evenodd" stroke="none"/>
      <path d="M-0.75 -9.75 Q7.5 -9.75 9.9 -2.0" fill="none" stroke="#ffffff" stroke-linecap="round" stroke-linejoin="round" stroke-width="3.0"/>
    </g>
    <radialGradient cx="0" cy="0" gradientTransform="matrix(0.0212, 0.0, 0.0, 0.0212, 1.1, -0.85)" gradientUnits="userSpaceOnUse" id="gradient7" r="819.2" spreadMethod="pad">
      <stop offset="0.5333333333333333" stop-color="#c0e9fa"/>
      <stop offset="0.7215686274509804" stop-color="#69c8f3"/>
    </radialGradient>
  </defs>
</svg>
