<?xml version="1.0" encoding="UTF-8" standalone="no"?>
<svg xmlns:ffdec="https://www.free-decompiler.com/flash" xmlns:xlink="http://www.w3.org/1999/xlink" ffdec:objectType="frame" height="21.6px" width="116.15px" xmlns="http://www.w3.org/2000/svg">
  <g transform="matrix(1.0, 0.0, 0.0, 1.0, 52.05, 11.2)">
    <use ffdec:characterId="308" height="21.6" transform="matrix(1.0, 0.0, 0.0, 1.0, -52.05, -11.2)" width="116.15" xlink:href="#shape0"/>
  </g>
  <defs>
    <g id="shape0" transform="matrix(1.0, 0.0, 0.0, 1.0, 52.05, 11.2)">
      <path d="M4.7 -3.7 L7.15 -3.7 7.2 2.75 7.2 6.95 7.15 8.45 10.3 8.4 11.3 8.4 11.25 3.25 11.25 -0.7 11.2 -3.7 13.0 -3.7 13.65 -3.7 13.7 -6.7 13.75 -7.75 6.95 -7.65 4.65 -7.65 4.7 -5.3 4.7 -4.05 4.7 -3.7 M16.35 -8.05 L14.4 -7.8 14.4 0.6 14.35 6.05 14.3 8.0 16.5 7.95 18.0 7.95 18.55 7.95 18.5 3.05 18.7 3.0 18.8 3.0 19.6 6.1 20.1 8.1 20.3 8.8 23.5 8.6 24.6 8.5 23.0 3.95 22.3 1.8 23.75 0.15 Q24.25 -0.9 24.25 -2.35 24.25 -5.2 22.75 -6.7 21.25 -8.15 18.1 -8.15 L16.35 -8.05 M19.55 -4.0 Q19.9 -3.3 19.9 -2.1 19.9 -0.85 19.5 -0.3 19.15 0.25 18.5 0.25 L18.45 -0.5 18.45 -2.3 18.4 -4.65 Q19.15 -4.7 19.55 -4.0 M26.05 -7.65 L24.95 -7.65 25.05 -1.4 25.05 3.7 25.05 7.1 25.05 8.3 28.2 8.3 29.25 8.3 29.2 2.3 29.15 -2.8 29.15 -6.35 29.15 -7.7 26.05 -7.65 M35.55 -8.2 Q32.7 -8.2 31.4 -6.1 30.05 -4.05 30.05 0.3 30.05 3.3 30.6 5.15 31.15 7.0 32.3 7.85 33.4 8.7 35.25 8.7 36.75 8.75 37.9 8.1 39.05 7.5 39.75 5.95 40.4 4.35 40.4 1.5 L39.75 1.5 38.1 1.55 35.9 1.6 35.85 3.9 35.65 4.95 35.3 5.2 Q35.05 5.25 34.9 4.9 L34.7 3.5 34.65 0.35 34.65 -2.75 34.9 -4.3 35.3 -4.75 35.7 -4.5 35.9 -3.5 35.95 -1.55 37.15 -1.5 40.35 -1.45 Q40.45 -3.3 40.0 -4.85 39.6 -6.35 38.5 -7.25 37.4 -8.15 35.55 -8.2 M47.05 -8.15 L46.6 -6.05 45.15 0.5 45.15 -3.05 45.2 -7.3 44.15 -7.3 40.95 -7.35 40.95 -6.2 41.0 -3.0 41.0 1.9 40.95 7.95 41.95 7.95 45.2 7.95 45.2 7.6 45.15 6.65 45.5 5.65 46.05 4.25 46.4 6.2 46.95 8.9 47.55 8.85 49.2 8.75 51.45 8.65 51.1 7.6 50.25 4.7 49.0 0.15 49.95 -3.25 51.35 -8.0 50.25 -8.05 47.05 -8.15 M52.75 -3.45 Q52.75 -2.25 53.05 -1.3 53.35 -0.3 54.15 0.45 L56.3 1.9 57.85 3.0 Q58.3 3.55 58.25 4.15 L58.1 5.2 57.65 5.45 Q57.2 5.45 57.0 4.8 56.85 4.15 56.95 2.75 L53.85 2.75 52.7 2.7 Q52.55 4.65 53.0 6.0 53.4 7.35 54.55 8.05 55.7 8.75 57.65 8.75 L60.25 8.3 Q61.35 7.8 61.95 6.8 62.6 5.75 62.6 4.15 L62.3 1.95 Q61.95 1.05 61.05 0.3 60.2 -0.4 58.65 -1.1 57.8 -1.5 57.45 -2.05 57.1 -2.6 57.1 -3.25 L57.2 -4.25 57.7 -4.6 58.2 -4.05 Q58.4 -3.45 58.2 -2.0 L60.2 -1.95 61.75 -1.85 62.35 -1.8 Q62.65 -4.75 61.55 -6.3 60.4 -7.85 57.75 -7.9 L55.15 -7.45 Q54.05 -7.0 53.4 -6.05 52.75 -5.05 52.75 -3.45 M0.15 7.25 L0.2 4.5 -0.25 4.5 -1.45 4.5 -3.15 4.45 -3.25 -1.55 -3.25 -5.2 -3.25 -7.05 -3.25 -7.55 -6.35 -7.55 -7.4 -7.55 -7.3 -1.1 -7.25 3.85 -7.25 7.05 -7.25 8.2 -6.65 8.2 -5.2 8.2 -3.25 8.25 -1.35 8.25 0.2 8.3 0.15 7.25 M-43.95 -7.6 L-45.65 -7.8 -46.3 -7.5 -48.05 -6.65 -50.55 -5.5 -50.2 -4.45 -49.45 -1.5 -48.95 -1.7 -47.55 -2.35 -47.55 -0.35 -47.55 3.15 -47.6 8.2 -46.45 8.25 -43.3 8.2 -43.3 6.9 -43.35 3.4 -43.4 -1.6 -43.4 -7.45 -43.95 -7.6 M-34.3 -8.0 L-36.55 -7.65 -36.45 -1.65 -36.35 3.45 -36.35 6.95 -36.35 8.25 -34.55 8.4 -32.95 8.45 -29.6 8.0 Q-28.2 7.55 -27.4 6.5 -26.65 5.45 -26.6 3.75 -26.6 2.3 -27.25 1.3 -27.8 0.3 -29.0 -0.2 -28.05 -0.65 -27.5 -1.45 -26.9 -2.3 -26.9 -3.55 -26.85 -5.85 -28.25 -7.0 -29.6 -8.1 -32.35 -8.1 L-34.3 -8.0 M-31.15 -1.8 Q-31.5 -1.35 -32.35 -1.35 L-32.35 -2.25 -32.35 -4.9 Q-31.55 -4.95 -31.15 -4.5 -30.75 -4.1 -30.75 -3.1 -30.75 -2.25 -31.15 -1.8 M-24.35 -7.75 L-25.5 0.6 -26.35 6.0 -26.65 7.95 -23.5 7.95 -22.55 8.0 -22.4 6.05 -21.3 6.1 -20.45 6.1 -20.3 8.05 -20.3 8.65 -17.05 8.65 -15.9 8.65 -16.9 2.35 -17.75 -2.9 -18.25 -6.5 -18.45 -7.85 -19.25 -7.85 -21.35 -7.85 -24.35 -7.75 M-21.35 -3.4 L-21.1 -0.85 -20.75 2.7 -21.15 2.7 -22.15 2.7 -21.75 -1.6 -21.45 -4.35 -21.35 -3.4 M-11.3 -7.55 L-14.4 -7.55 -15.45 -7.55 -15.35 -1.1 -15.3 3.85 -15.3 7.05 -15.3 8.2 -14.7 8.2 -13.25 8.2 -11.3 8.25 -9.4 8.25 -7.85 8.3 -7.9 7.25 -7.85 4.5 -8.3 4.5 -9.5 4.5 -11.2 4.45 -11.3 -1.55 -11.3 -5.2 -11.3 -7.05 -11.3 -7.55 M-31.1 2.15 Q-30.75 2.65 -30.75 3.55 -30.75 4.65 -31.15 5.0 -31.55 5.4 -32.25 5.4 L-32.3 4.45 -32.35 1.65 Q-31.5 1.65 -31.1 2.15 Z" fill="none" stroke="#000000" stroke-linecap="round" stroke-linejoin="round" stroke-opacity="0.2" stroke-width="3.0"/>
      <path d="M-30.75 2.05 Q-30.75 1.15 -31.1 0.65 -31.5 0.15 -32.35 0.15 L-32.3 2.95 -32.25 3.9 Q-31.55 3.9 -31.15 3.5 -30.75 3.15 -30.75 2.05 M-11.3 -9.05 L-11.3 -8.55 -11.3 -6.7 -11.3 -3.05 -11.2 2.95 -9.5 3.0 -8.3 3.0 -7.85 3.0 -7.9 5.75 -7.85 6.8 -9.4 6.75 -11.3 6.75 -13.25 6.7 -14.7 6.7 -15.3 6.7 -15.3 5.55 -15.3 2.35 -15.35 -2.6 -15.45 -9.05 -14.4 -9.05 -11.3 -9.05 M-21.35 -4.9 L-21.45 -5.85 -21.75 -3.1 -22.15 1.2 -21.15 1.2 -20.75 1.2 -21.1 -2.35 -21.35 -4.9 M-24.35 -9.25 L-21.35 -9.35 -19.25 -9.35 -18.45 -9.35 -18.25 -8.0 -17.75 -4.4 -16.9 0.85 -15.9 7.15 -17.05 7.15 -20.3 7.15 -20.3 6.55 -20.45 4.6 -21.3 4.6 -22.4 4.55 -22.55 6.5 -23.5 6.45 -26.65 6.45 -26.35 4.5 -25.5 -0.9 -24.35 -9.25 M-32.35 -3.75 L-32.35 -2.85 Q-31.5 -2.85 -31.15 -3.3 -30.75 -3.75 -30.75 -4.6 -30.75 -5.6 -31.15 -6.0 -31.55 -6.45 -32.35 -6.4 L-32.35 -3.75 M-34.3 -9.5 L-32.35 -9.6 Q-29.6 -9.6 -28.25 -8.5 -26.85 -7.35 -26.9 -5.05 -26.9 -3.8 -27.5 -2.95 -28.05 -2.15 -29.0 -1.7 -27.8 -1.2 -27.25 -0.2 -26.6 0.8 -26.6 2.25 -26.65 3.95 -27.4 5.0 -28.2 6.05 -29.6 6.5 L-32.95 6.95 -34.55 6.9 -36.35 6.75 -36.35 5.45 -36.35 1.95 -36.45 -3.15 -36.55 -9.15 -34.3 -9.5 M-43.95 -9.1 L-43.4 -8.95 -43.4 -3.1 -43.35 1.9 -43.3 5.4 -43.3 6.7 -46.45 6.75 -47.6 6.7 -47.55 1.65 -47.55 -1.85 -47.55 -3.85 -48.95 -3.2 -49.45 -3.0 -50.2 -5.95 -50.55 -7.0 -48.05 -8.15 -46.3 -9.0 -45.65 -9.3 -43.95 -9.1 M0.2 3.0 L0.15 5.75 0.2 6.8 -1.35 6.75 -3.25 6.75 -5.2 6.7 -6.65 6.7 -7.25 6.7 -7.25 5.55 -7.25 2.35 -7.3 -2.6 -7.4 -9.05 -6.35 -9.05 -3.25 -9.05 -3.25 -8.55 -3.25 -6.7 -3.25 -3.05 -3.15 2.95 -1.45 3.0 -0.25 3.0 0.2 3.0 M46.6 -7.55 L47.05 -9.65 50.25 -9.55 51.35 -9.5 49.95 -4.75 49.0 -1.35 50.25 3.2 51.1 6.1 51.45 7.15 49.2 7.25 47.55 7.35 46.95 7.4 46.4 4.7 46.05 2.75 45.5 4.15 45.15 5.15 45.2 6.1 45.2 6.45 41.95 6.45 40.95 6.45 41.0 0.4 41.0 -4.5 40.95 -7.7 40.95 -8.85 44.15 -8.8 45.2 -8.8 45.15 -4.55 45.15 -1.0 46.6 -7.55 M35.55 -9.7 Q37.4 -9.65 38.5 -8.75 39.6 -7.85 40.0 -6.35 40.45 -4.8 40.35 -2.95 L37.15 -3.0 35.95 -3.05 35.9 -5.0 35.7 -6.0 35.3 -6.25 34.9 -5.8 34.65 -4.25 34.65 -1.15 34.7 2.0 34.9 3.4 Q35.05 3.75 35.3 3.7 L35.65 3.45 35.85 2.4 35.9 0.1 38.1 0.05 39.75 0.0 40.4 0.0 Q40.4 2.85 39.75 4.45 39.05 6.0 37.9 6.6 36.75 7.25 35.25 7.2 33.4 7.2 32.3 6.35 31.15 5.5 30.6 3.65 30.05 1.8 30.05 -1.2 30.05 -5.55 31.4 -7.6 32.7 -9.7 35.55 -9.7 M29.15 -9.2 L29.15 -7.85 29.15 -4.3 29.2 0.8 29.25 6.8 28.2 6.8 25.05 6.8 25.05 5.6 25.05 2.2 25.05 -2.9 24.95 -9.15 26.05 -9.15 29.15 -9.2 M18.5 -1.25 Q19.15 -1.25 19.5 -1.8 19.9 -2.35 19.9 -3.6 19.9 -4.8 19.55 -5.5 19.15 -6.2 18.4 -6.15 L18.45 -3.8 18.45 -2.0 18.5 -1.25 M16.35 -9.55 L18.1 -9.65 Q21.25 -9.65 22.75 -8.2 24.25 -6.7 24.25 -3.85 24.25 -2.4 23.75 -1.35 23.2 -0.3 22.3 0.3 L23.0 2.45 24.6 7.0 23.5 7.1 20.3 7.3 20.1 6.6 19.6 4.6 18.8 1.5 18.7 1.5 18.5 1.55 18.55 6.45 18.0 6.45 16.5 6.45 14.3 6.5 14.35 4.55 14.4 -0.9 14.4 -9.3 16.35 -9.55 M4.7 -6.8 L4.65 -9.15 6.95 -9.15 13.75 -9.25 13.7 -8.2 13.65 -5.2 13.0 -5.2 11.2 -5.2 11.25 -2.2 11.25 1.75 11.3 6.9 10.3 6.9 7.15 6.95 7.2 5.45 7.2 1.25 7.15 -5.2 4.7 -5.2 4.7 -5.55 4.7 -6.8" fill="#550042" fill-rule="evenodd" stroke="none"/>
      <path d="M4.7 -6.8 L4.7 -5.55 4.7 -5.2 7.15 -5.2 7.2 1.25 7.2 5.45 7.15 6.95 10.3 6.9 11.3 6.9 11.25 1.75 11.25 -2.2 11.2 -5.2 13.0 -5.2 13.65 -5.2 13.7 -8.2 13.75 -9.25 6.95 -9.15 4.65 -9.15 4.7 -6.8 M16.35 -9.55 L14.4 -9.3 14.4 -0.9 14.35 4.55 14.3 6.5 16.5 6.45 18.0 6.45 18.55 6.45 18.5 1.55 18.7 1.5 18.8 1.5 19.6 4.6 20.1 6.6 20.3 7.3 23.5 7.1 24.6 7.0 23.0 2.45 22.3 0.3 Q23.2 -0.3 23.75 -1.35 24.25 -2.4 24.25 -3.85 24.25 -6.7 22.75 -8.2 21.25 -9.65 18.1 -9.65 L16.35 -9.55 M18.5 -1.25 L18.45 -2.0 18.45 -3.8 18.4 -6.15 Q19.15 -6.2 19.55 -5.5 19.9 -4.8 19.9 -3.6 19.9 -2.35 19.5 -1.8 19.15 -1.25 18.5 -1.25 M29.15 -9.2 L26.05 -9.15 24.95 -9.15 25.05 -2.9 25.05 2.2 25.05 5.6 25.05 6.8 28.2 6.8 29.25 6.8 29.2 0.8 29.15 -4.3 29.15 -7.85 29.15 -9.2 M35.55 -9.7 Q32.7 -9.7 31.4 -7.6 30.05 -5.55 30.05 -1.2 30.05 1.8 30.6 3.65 31.15 5.5 32.3 6.35 33.4 7.2 35.25 7.2 36.75 7.25 37.9 6.6 39.05 6.0 39.75 4.45 40.4 2.85 40.4 0.0 L39.75 0.0 38.1 0.05 35.9 0.1 35.85 2.4 35.65 3.45 35.3 3.7 Q35.05 3.75 34.9 3.4 L34.7 2.0 34.65 -1.15 34.65 -4.25 34.9 -5.8 35.3 -6.25 35.7 -6.0 35.9 -5.0 35.95 -3.05 37.15 -3.0 40.35 -2.95 Q40.45 -4.8 40.0 -6.35 39.6 -7.85 38.5 -8.75 37.4 -9.65 35.55 -9.7 M46.6 -7.55 L45.15 -1.0 45.15 -4.55 45.2 -8.8 44.15 -8.8 40.95 -8.85 40.95 -7.7 41.0 -4.5 41.0 0.4 40.95 6.45 41.95 6.45 45.2 6.45 45.2 6.1 45.15 5.15 45.5 4.15 46.05 2.75 46.4 4.7 46.95 7.4 47.55 7.35 49.2 7.25 51.45 7.15 51.1 6.1 50.25 3.2 49.0 -1.35 49.95 -4.75 51.35 -9.5 50.25 -9.55 47.05 -9.65 46.6 -7.55 M0.2 3.0 L-0.25 3.0 -1.45 3.0 -3.15 2.95 -3.25 -3.05 -3.25 -6.7 -3.25 -8.55 -3.25 -9.05 -6.35 -9.05 -7.4 -9.05 -7.3 -2.6 -7.25 2.35 -7.25 5.55 -7.25 6.7 -6.65 6.7 -5.2 6.7 -3.25 6.75 -1.35 6.75 0.2 6.8 0.15 5.75 0.2 3.0 M-43.95 -9.1 L-45.65 -9.3 -46.3 -9.0 -48.05 -8.15 -50.55 -7.0 -50.2 -5.95 -49.45 -3.0 -48.95 -3.2 -47.55 -3.85 -47.55 -1.85 -47.55 1.65 -47.6 6.7 -46.45 6.75 -43.3 6.7 -43.3 5.4 -43.35 1.9 -43.4 -3.1 -43.4 -8.95 -43.95 -9.1 M-34.3 -9.5 L-36.55 -9.15 -36.45 -3.15 -36.35 1.95 -36.35 5.45 -36.35 6.75 -34.55 6.9 -32.95 6.95 -29.6 6.5 Q-28.2 6.05 -27.4 5.0 -26.65 3.95 -26.6 2.25 -26.6 0.8 -27.25 -0.2 -27.8 -1.2 -29.0 -1.7 -28.05 -2.15 -27.5 -2.95 -26.9 -3.8 -26.9 -5.05 -26.85 -7.35 -28.25 -8.5 -29.6 -9.6 -32.35 -9.6 L-34.3 -9.5 M-32.35 -3.75 L-32.35 -6.4 Q-31.55 -6.45 -31.15 -6.0 -30.75 -5.6 -30.75 -4.6 -30.75 -3.75 -31.15 -3.3 -31.5 -2.85 -32.35 -2.85 L-32.35 -3.75 M-24.35 -9.25 L-25.5 -0.9 -26.35 4.5 -26.65 6.45 -23.5 6.45 -22.55 6.5 -22.4 4.55 -21.3 4.6 -20.45 4.6 -20.3 6.55 -20.3 7.15 -17.05 7.15 -15.9 7.15 -16.9 0.85 -17.75 -4.4 -18.25 -8.0 -18.45 -9.35 -19.25 -9.35 -21.35 -9.35 -24.35 -9.25 M-21.35 -4.9 L-21.1 -2.35 -20.75 1.2 -21.15 1.2 -22.15 1.2 -21.75 -3.1 -21.45 -5.85 -21.35 -4.9 M-11.3 -9.05 L-14.4 -9.05 -15.45 -9.05 -15.35 -2.6 -15.3 2.35 -15.3 5.55 -15.3 6.7 -14.7 6.7 -13.25 6.7 -11.3 6.75 -9.4 6.75 -7.85 6.8 -7.9 5.75 -7.85 3.0 -8.3 3.0 -9.5 3.0 -11.2 2.95 -11.3 -3.05 -11.3 -6.7 -11.3 -8.55 -11.3 -9.05 M-30.75 2.05 Q-30.75 3.15 -31.15 3.5 -31.55 3.9 -32.25 3.9 L-32.3 2.95 -32.35 0.15 Q-31.5 0.15 -31.1 0.65 -30.75 1.15 -30.75 2.05 Z" fill="none" stroke="#ffffff" stroke-linecap="round" stroke-linejoin="round" stroke-width="3.0"/>
      <path d="M-30.75 2.05 Q-30.75 1.15 -31.1 0.65 -31.5 0.15 -32.35 0.15 L-32.3 2.95 -32.25 3.9 Q-31.55 3.9 -31.15 3.5 -30.75 3.15 -30.75 2.05 M-11.3 -8.55 L-11.3 -6.7 -11.3 -3.05 -11.2 2.95 -9.5 3.0 -8.3 3.0 -7.85 3.0 -7.9 5.75 -7.85 6.8 -9.4 6.75 -11.3 6.75 -13.25 6.7 -14.7 6.7 -15.3 6.7 -15.3 5.55 -15.3 2.35 -15.35 -2.6 -15.45 -9.05 -14.4 -9.05 -11.3 -9.05 -11.3 -8.55 M-21.45 -5.85 L-21.75 -3.1 -22.15 1.2 -21.15 1.2 -20.75 1.2 -21.1 -2.35 -21.35 -4.9 -21.45 -5.85 M-24.35 -9.25 L-21.35 -9.35 -19.25 -9.35 -18.45 -9.35 -18.25 -8.0 -17.75 -4.4 -16.9 0.85 -15.9 7.15 -17.05 7.15 -20.3 7.15 -20.3 6.55 -20.45 4.6 -21.3 4.6 -22.4 4.55 -22.55 6.5 -23.5 6.45 -26.65 6.45 -26.35 4.5 -25.5 -0.9 -24.35 -9.25 M-32.35 -2.85 Q-31.5 -2.85 -31.15 -3.3 -30.75 -3.75 -30.75 -4.6 -30.75 -5.6 -31.15 -6.0 -31.55 -6.45 -32.35 -6.4 L-32.35 -3.75 -32.35 -2.85 M-34.3 -9.5 L-32.35 -9.6 Q-29.6 -9.6 -28.25 -8.5 -26.85 -7.35 -26.9 -5.05 -26.9 -3.8 -27.5 -2.95 -28.05 -2.15 -29.0 -1.7 -27.8 -1.2 -27.25 -0.2 -26.6 0.8 -26.6 2.25 -26.65 3.95 -27.4 5.0 -28.2 6.05 -29.6 6.5 L-32.95 6.95 -34.55 6.9 -36.35 6.75 -36.35 5.45 -36.35 1.95 -36.45 -3.15 -36.55 -9.15 -34.3 -9.5 M0.2 3.0 L0.15 5.75 0.2 6.8 -1.35 6.75 -3.25 6.75 -5.2 6.7 -6.65 6.7 -7.25 6.7 -7.25 5.55 -7.25 2.35 -7.3 -2.6 -7.4 -9.05 -6.35 -9.05 -3.25 -9.05 -3.25 -8.55 -3.25 -6.7 -3.25 -3.05 -3.15 2.95 -1.45 3.0 -0.25 3.0 0.2 3.0 M46.6 -7.55 L47.05 -9.65 50.25 -9.55 51.35 -9.5 49.95 -4.75 49.0 -1.35 50.25 3.2 51.1 6.1 51.45 7.15 49.2 7.25 47.55 7.35 46.95 7.4 46.4 4.7 46.05 2.75 45.5 4.15 45.15 5.15 45.2 6.1 45.2 6.45 41.95 6.45 40.95 6.45 41.0 0.4 41.0 -4.5 40.95 -7.7 40.95 -8.85 44.15 -8.8 45.2 -8.8 45.15 -4.55 45.15 -1.0 46.6 -7.55 M35.55 -9.7 Q37.4 -9.65 38.5 -8.75 39.6 -7.85 40.0 -6.35 40.45 -4.8 40.35 -2.95 L37.15 -3.0 35.95 -3.05 35.9 -5.0 35.7 -6.0 35.3 -6.25 34.9 -5.8 34.65 -4.25 34.65 -1.15 34.7 2.0 34.9 3.4 Q35.05 3.75 35.3 3.7 L35.65 3.45 35.85 2.4 35.9 0.1 38.1 0.05 39.75 0.0 40.4 0.0 Q40.4 2.85 39.75 4.45 39.05 6.0 37.9 6.6 36.75 7.25 35.25 7.2 33.4 7.2 32.3 6.35 31.15 5.5 30.6 3.65 30.05 1.8 30.05 -1.2 30.05 -5.55 31.4 -7.6 32.7 -9.7 35.55 -9.7 M29.15 -7.85 L29.15 -4.3 29.2 0.8 29.25 6.8 28.2 6.8 25.05 6.8 25.05 5.6 25.05 2.2 25.05 -2.9 24.95 -9.15 26.05 -9.15 29.15 -9.2 29.15 -7.85 M19.55 -5.5 Q19.15 -6.2 18.4 -6.15 L18.45 -3.8 18.45 -2.0 18.5 -1.25 Q19.15 -1.25 19.5 -1.8 19.9 -2.35 19.9 -3.6 19.9 -4.8 19.55 -5.5 M16.35 -9.55 L18.1 -9.65 Q21.25 -9.65 22.75 -8.2 24.25 -6.7 24.25 -3.85 24.25 -2.4 23.75 -1.35 23.2 -0.3 22.3 0.3 L23.0 2.45 24.6 7.0 23.5 7.1 20.3 7.3 20.1 6.6 19.6 4.6 18.8 1.5 18.7 1.5 18.5 1.55 18.55 6.45 18.0 6.45 16.5 6.45 14.3 6.5 14.35 4.55 14.4 -0.9 14.4 -9.3 16.35 -9.55 M4.7 -6.8 L4.65 -9.15 6.95 -9.15 13.75 -9.25 13.7 -8.2 13.65 -5.2 13.0 -5.2 11.2 -5.2 11.25 -2.2 11.25 1.75 11.3 6.9 10.3 6.9 7.15 6.95 7.2 5.45 7.2 1.25 7.15 -5.2 4.7 -5.2 4.7 -5.55 4.7 -6.8" fill="#550042" fill-rule="evenodd" stroke="none"/>
      <path d="M-14.4 -10.1 L-11.3 -10.1 -11.3 -9.6 -11.3 -7.75 -11.3 -4.1 -11.2 1.9 -9.5 1.95 -8.3 1.95 -7.85 1.95 -7.9 4.7 -7.85 5.75 -9.4 5.7 -11.3 5.7 -13.25 5.65 -14.7 5.65 -15.3 5.65 -15.3 4.5 -15.3 1.3 -15.35 -3.65 -15.45 -10.1 -14.4 -10.1 M-21.1 -3.4 L-21.35 -5.95 -21.45 -6.9 -21.75 -4.15 -22.15 0.15 -21.15 0.15 -20.75 0.15 -21.1 -3.4 M-24.35 -10.3 L-21.35 -10.4 -19.25 -10.4 -18.45 -10.4 -18.25 -9.05 -17.75 -5.45 -16.9 -0.2 -15.9 6.1 -17.05 6.1 -20.3 6.1 -20.3 5.5 -20.45 3.55 -21.3 3.55 -22.4 3.5 -22.55 5.45 -23.5 5.4 -26.65 5.4 -26.35 3.45 -25.5 -1.95 -24.35 -10.3 M-31.1 -0.4 Q-31.5 -0.9 -32.35 -0.9 L-32.3 1.9 -32.25 2.85 Q-31.55 2.85 -31.15 2.45 -30.75 2.1 -30.75 1.0 -30.75 0.1 -31.1 -0.4 M-31.15 -7.05 Q-31.55 -7.5 -32.35 -7.45 L-32.35 -4.8 -32.35 -3.9 Q-31.5 -3.9 -31.15 -4.35 -30.75 -4.8 -30.75 -5.65 -30.75 -6.65 -31.15 -7.05 M-34.3 -10.55 L-32.35 -10.65 Q-29.6 -10.65 -28.25 -9.55 -26.85 -8.4 -26.9 -6.1 -26.9 -4.85 -27.5 -4.0 -28.05 -3.2 -29.0 -2.75 -27.8 -2.25 -27.25 -1.25 -26.6 -0.25 -26.6 1.2 -26.65 2.9 -27.4 3.95 -28.2 5.0 -29.6 5.45 L-32.95 5.9 -34.55 5.85 -36.35 5.7 -36.35 4.4 -36.35 0.9 -36.45 -4.2 -36.55 -10.2 -34.3 -10.55 M0.15 4.7 L0.2 5.75 -1.35 5.7 -3.25 5.7 -5.2 5.65 -6.65 5.65 -7.25 5.65 -7.25 4.5 -7.25 1.3 -7.3 -3.65 -7.4 -10.1 -6.35 -10.1 -3.25 -10.1 -3.25 -9.6 -3.25 -7.75 -3.25 -4.1 -3.15 1.9 -1.45 1.95 -0.25 1.95 0.2 1.95 0.15 4.7 M46.6 -8.6 L47.05 -10.7 50.25 -10.6 51.35 -10.55 49.95 -5.8 49.0 -2.4 50.25 2.15 51.1 5.05 51.45 6.1 49.2 6.2 47.55 6.3 46.95 6.35 46.4 3.65 46.05 1.7 45.5 3.1 45.15 4.1 45.2 5.05 45.2 5.4 41.95 5.4 40.95 5.4 41.0 -0.65 41.0 -5.55 40.95 -8.75 40.95 -9.9 44.15 -9.85 45.2 -9.85 45.15 -5.6 45.15 -2.05 46.6 -8.6 M35.55 -10.75 Q37.4 -10.7 38.5 -9.8 39.6 -8.9 40.0 -7.4 40.45 -5.85 40.35 -4.0 L37.15 -4.05 35.95 -4.1 35.9 -6.05 35.7 -7.05 35.3 -7.3 34.9 -6.85 34.65 -5.3 34.65 -2.2 34.7 0.95 34.9 2.35 Q35.05 2.7 35.3 2.65 L35.65 2.4 35.85 1.35 35.9 -0.95 38.1 -1.0 39.75 -1.05 40.4 -1.05 Q40.4 1.8 39.75 3.4 39.05 4.95 37.9 5.55 36.75 6.2 35.25 6.15 33.4 6.15 32.3 5.3 31.15 4.45 30.6 2.6 30.05 0.75 30.05 -2.25 30.05 -6.6 31.4 -8.65 32.7 -10.75 35.55 -10.75 M26.05 -10.2 L29.15 -10.25 29.15 -8.9 29.15 -5.35 29.2 -0.25 29.25 5.75 28.2 5.75 25.05 5.75 25.05 4.55 25.05 1.15 25.05 -3.95 24.95 -10.2 26.05 -10.2 M19.55 -6.55 Q19.15 -7.25 18.4 -7.2 L18.45 -4.85 18.45 -3.05 18.5 -2.3 Q19.15 -2.3 19.5 -2.85 19.9 -3.4 19.9 -4.65 19.9 -5.85 19.55 -6.55 M16.35 -10.6 L18.1 -10.7 Q21.25 -10.7 22.75 -9.25 24.25 -7.75 24.25 -4.9 24.25 -3.45 23.75 -2.4 23.2 -1.35 22.3 -0.75 L23.0 1.4 24.6 5.95 23.5 6.05 20.3 6.25 20.1 5.55 19.6 3.55 18.8 0.45 18.7 0.45 18.5 0.5 18.55 5.4 18.0 5.4 16.5 5.4 14.3 5.45 14.35 3.5 14.4 -1.95 14.4 -10.35 16.35 -10.6 M4.7 -7.85 L4.65 -10.2 6.95 -10.2 13.75 -10.3 13.7 -9.25 13.65 -6.25 13.0 -6.25 11.2 -6.25 11.25 -3.25 11.25 0.7 11.3 5.85 10.3 5.85 7.15 5.9 7.2 4.4 7.2 0.2 7.15 -6.25 4.7 -6.25 4.7 -6.6 4.7 -7.85" fill="#cd019e" fill-rule="evenodd" stroke="none"/>
      <path d="M-43.9 -9.1 L-43.35 -8.95 -43.35 -3.1 -43.3 1.9 -43.25 5.4 -43.25 6.7 -46.4 6.75 -47.55 6.7 -47.5 1.65 -47.5 -1.85 -47.5 -3.85 -48.9 -3.2 -49.4 -3.0 -50.15 -5.95 -50.5 -7.0 -48.0 -8.15 -46.25 -9.0 -45.6 -9.3 -43.9 -9.1" fill="#550042" fill-rule="evenodd" stroke="none"/>
      <path d="M-43.9 -10.0 L-43.35 -9.85 -43.35 -4.0 -43.3 1.0 -43.25 4.5 -43.25 5.8 -46.4 5.85 -47.55 5.8 -47.5 0.75 -47.5 -2.75 -47.5 -4.75 -48.9 -4.1 -49.4 -3.9 -50.15 -6.85 -50.5 -7.9 -48.0 -9.05 -46.25 -9.9 -45.6 -10.2 -43.9 -10.0" fill="#cd019e" fill-rule="evenodd" stroke="none"/>
      <path d="M53.4 -7.7 Q54.05 -8.65 55.15 -9.1 L57.75 -9.55 Q60.4 -9.5 61.55 -7.95 62.65 -6.4 62.35 -3.45 L61.75 -3.5 60.2 -3.6 58.2 -3.65 Q58.4 -5.1 58.2 -5.7 L57.7 -6.25 57.2 -5.9 57.1 -4.9 Q57.1 -4.25 57.45 -3.7 57.8 -3.15 58.65 -2.75 60.2 -2.05 61.05 -1.35 61.95 -0.6 62.3 0.3 L62.6 2.5 Q62.6 4.1 61.95 5.15 61.35 6.15 60.25 6.65 L57.65 7.1 Q55.7 7.1 54.55 6.4 53.4 5.7 53.0 4.35 52.55 3.0 52.7 1.05 L53.85 1.1 56.95 1.1 Q56.85 2.5 57.0 3.15 57.2 3.8 57.65 3.8 L58.1 3.55 58.25 2.5 Q58.3 1.9 57.85 1.35 L56.3 0.25 Q54.95 -0.4 54.15 -1.2 53.35 -1.95 53.05 -2.95 52.75 -3.9 52.75 -5.1 52.75 -6.7 53.4 -7.7" fill="#550042" fill-rule="evenodd" stroke="none"/>
      <path d="M53.4 -7.7 Q52.75 -6.7 52.75 -5.1 52.75 -3.9 53.05 -2.95 53.35 -1.95 54.15 -1.2 54.95 -0.4 56.3 0.25 L57.85 1.35 Q58.3 1.9 58.25 2.5 L58.1 3.55 57.65 3.8 Q57.2 3.8 57.0 3.15 56.85 2.5 56.95 1.1 L53.85 1.1 52.7 1.05 Q52.55 3.0 53.0 4.35 53.4 5.7 54.55 6.4 55.7 7.1 57.65 7.1 L60.25 6.65 Q61.35 6.15 61.95 5.15 62.6 4.1 62.6 2.5 L62.3 0.3 Q61.95 -0.6 61.05 -1.35 60.2 -2.05 58.65 -2.75 57.8 -3.15 57.45 -3.7 57.1 -4.25 57.1 -4.9 L57.2 -5.9 57.7 -6.25 58.2 -5.7 Q58.4 -5.1 58.2 -3.65 L60.2 -3.6 61.75 -3.5 62.35 -3.45 Q62.65 -6.4 61.55 -7.95 60.4 -9.5 57.75 -9.55 L55.15 -9.1 Q54.05 -8.65 53.4 -7.7 Z" fill="none" stroke="#ffffff" stroke-linecap="round" stroke-linejoin="round" stroke-width="3.0"/>
      <path d="M53.4 -7.7 Q54.05 -8.65 55.15 -9.1 L57.75 -9.55 Q60.4 -9.5 61.55 -7.95 62.65 -6.4 62.35 -3.45 L61.75 -3.5 60.2 -3.6 58.2 -3.65 Q58.4 -5.1 58.2 -5.7 L57.7 -6.25 57.2 -5.9 57.1 -4.9 Q57.1 -4.25 57.45 -3.7 57.8 -3.15 58.65 -2.75 60.2 -2.05 61.05 -1.35 61.95 -0.6 62.3 0.3 L62.6 2.5 Q62.6 4.1 61.95 5.15 61.35 6.15 60.25 6.65 L57.65 7.1 Q55.7 7.1 54.55 6.4 53.4 5.7 53.0 4.35 52.55 3.0 52.7 1.05 L53.85 1.1 56.95 1.1 Q56.85 2.5 57.0 3.15 57.2 3.8 57.65 3.8 L58.1 3.55 58.25 2.5 Q58.3 1.9 57.85 1.35 L56.3 0.25 Q54.95 -0.4 54.15 -1.2 53.35 -1.95 53.05 -2.95 52.75 -3.9 52.75 -5.1 52.75 -6.7 53.4 -7.7" fill="#550042" fill-rule="evenodd" stroke="none"/>
      <path d="M58.2 -6.75 L57.7 -7.3 57.2 -6.95 57.1 -5.95 Q57.1 -5.3 57.45 -4.75 57.8 -4.2 58.65 -3.8 60.2 -3.1 61.05 -2.4 61.95 -1.65 62.3 -0.75 L62.6 1.45 Q62.6 3.05 61.95 4.1 61.35 5.1 60.25 5.6 L57.65 6.05 Q55.7 6.05 54.55 5.35 53.4 4.65 53.0 3.3 52.55 1.95 52.7 0.0 L53.85 0.05 56.95 0.05 Q56.85 1.45 57.0 2.1 57.2 2.75 57.65 2.75 L58.1 2.5 58.25 1.45 Q58.3 0.85 57.85 0.3 L56.3 -0.8 Q54.95 -1.45 54.15 -2.25 53.35 -3.0 53.05 -4.0 52.75 -4.95 52.75 -6.15 52.75 -7.75 53.4 -8.75 54.05 -9.7 55.15 -10.15 L57.75 -10.6 Q60.4 -10.55 61.55 -9.0 62.65 -7.45 62.35 -4.5 L61.75 -4.55 60.2 -4.65 58.2 -4.7 Q58.4 -6.15 58.2 -6.75" fill="#cd019e" fill-rule="evenodd" stroke="none"/>
    </g>
  </defs>
</svg>
