<?xml version="1.0" encoding="UTF-8" standalone="no"?>
<svg xmlns:ffdec="https://www.free-decompiler.com/flash" xmlns:xlink="http://www.w3.org/1999/xlink" ffdec:objectType="frame" height="41.3px" width="93.5px" xmlns="http://www.w3.org/2000/svg">
  <g transform="matrix(1.0, 0.0, 0.0, 1.0, 86.0, 38.95)">
    <use ffdec:characterId="905" height="44.3" transform="matrix(0.4447, 0.0, 0.0, 0.8051, -57.6, -38.55)" width="30.5" xlink:href="#sprite0"/>
    <use ffdec:characterId="905" height="44.3" transform="matrix(0.4447, 0.0, 0.0, 0.8051, -70.25, -33.3)" width="30.5" xlink:href="#sprite1"/>
    <use ffdec:characterId="906" height="45.05" transform="matrix(0.4447, 0.0, 0.0, 0.8051, -86.0, -38.95)" width="37.05" xlink:href="#sprite2"/>
    <use ffdec:characterId="908" height="44.9" transform="matrix(0.4447, 0.0, 0.0, 0.8051, -8.8, -34.1)" width="36.65" xlink:href="#sprite3"/>
    <use ffdec:characterId="909" height="44.85" transform="matrix(0.4447, 0.0, 0.0, 0.8051, -24.85, -38.9)" width="38.9" xlink:href="#sprite4"/>
    <use ffdec:characterId="910" height="44.6" transform="matrix(0.4447, 0.0, 0.0, 0.8051, -40.1, -34.1)" width="39.75" xlink:href="#sprite5"/>
  </g>
  <defs>
    <g id="sprite0" transform="matrix(1.0, 0.0, 0.0, 1.0, 0.0, 0.0)">
      <use ffdec:characterId="488" height="44.3" transform="matrix(1.0, 0.0, 0.0, 1.0, 0.0, 0.0)" width="30.5" xlink:href="#shape0"/>
    </g>
    <g id="shape0" transform="matrix(1.0, 0.0, 0.0, 1.0, 0.0, 0.0)">
      <path d="M27.65 24.8 L24.6 28.95 17.7 28.85 17.8 25.1 27.65 24.8 M30.0 39.2 L26.25 44.3 Q13.35 43.2 0.85 43.7 L4.6 38.6 Q15.25 38.15 26.15 38.9 L30.0 39.2 M29.45 11.05 L26.55 15.0 17.85 15.05 17.7 11.05 29.45 11.05" fill="#790000" fill-rule="evenodd" stroke="none"/>
      <path d="M26.55 15.0 L27.65 15.0 Q27.15 19.9 27.65 24.8 L17.8 25.1 17.7 28.85 24.6 28.95 29.8 29.0 30.0 39.2 26.15 38.9 Q15.25 38.15 4.6 38.6 L4.55 26.65 4.5 24.2 4.0 6.3 3.75 1.25 29.65 0.0 29.45 11.05 17.7 11.05 17.85 15.05 26.55 15.0" fill="url(#gradient0)" fill-rule="evenodd" stroke="none"/>
      <path d="M0.85 43.7 L0.75 29.3 0.7 26.7 0.0 6.35 3.75 1.25 4.0 6.3 4.5 24.2 4.55 26.65 4.6 38.6 0.85 43.7" fill="#ab0404" fill-rule="evenodd" stroke="none"/>
      <path d="M3.75 1.25 L4.0 6.3 4.5 24.2 4.55 26.65 4.6 38.6 Q15.25 38.15 26.15 38.9 L30.0 39.2 M0.85 43.7 L4.6 38.6" ffdec:has-small-stroke="true" ffdec:original-stroke-width="1.0" fill="none" stroke="url(#gradient1)" stroke-linecap="round" stroke-linejoin="round" stroke-width="1.5376464862652848"/>
    </g>
    <linearGradient gradientTransform="matrix(0.0, 0.0231, -0.024, 0.0, -19.95, 20.0)" gradientUnits="userSpaceOnUse" id="gradient0" spreadMethod="pad" x1="-819.2" x2="819.2">
      <stop offset="0.0" stop-color="#ff452e"/>
      <stop offset="1.0" stop-color="#e00a0a"/>
    </linearGradient>
    <radialGradient cx="0" cy="0" gradientTransform="matrix(0.0226, 0.0, 0.0, 0.0095, 10.0, 35.5)" gradientUnits="userSpaceOnUse" id="gradient1" r="819.2" spreadMethod="pad">
      <stop offset="0.12941176470588237" stop-color="#ffe48e" stop-opacity="0.4"/>
      <stop offset="1.0" stop-color="#ffe983" stop-opacity="0.0"/>
    </radialGradient>
    <g id="sprite1" transform="matrix(1.0, 0.0, 0.0, 1.0, 0.0, 0.0)">
      <use ffdec:characterId="488" height="44.3" transform="matrix(1.0, 0.0, 0.0, 1.0, 0.0, 0.0)" width="30.5" xlink:href="#shape1"/>
    </g>
    <g id="shape1" transform="matrix(1.0, 0.0, 0.0, 1.0, 0.0, 0.0)">
      <path d="M27.65 24.8 L24.6 28.95 17.7 28.85 17.8 25.1 27.65 24.8 M30.0 39.2 L26.25 44.3 Q13.35 43.2 0.85 43.7 L4.6 38.6 Q15.25 38.15 26.15 38.9 L30.0 39.2 M29.45 11.05 L26.55 15.0 17.85 15.05 17.7 11.05 29.45 11.05" fill="#790000" fill-rule="evenodd" stroke="none"/>
      <path d="M26.55 15.0 L27.65 15.0 Q27.15 19.9 27.65 24.8 L17.8 25.1 17.7 28.85 24.6 28.95 29.8 29.0 30.0 39.2 26.15 38.9 Q15.25 38.15 4.6 38.6 L4.55 26.65 4.5 24.2 4.0 6.3 3.75 1.25 29.65 0.0 29.45 11.05 17.7 11.05 17.85 15.05 26.55 15.0" fill="url(#gradient2)" fill-rule="evenodd" stroke="none"/>
      <path d="M0.85 43.7 L0.75 29.3 0.7 26.7 0.0 6.35 3.75 1.25 4.0 6.3 4.5 24.2 4.55 26.65 4.6 38.6 0.85 43.7" fill="#ab0404" fill-rule="evenodd" stroke="none"/>
      <path d="M3.75 1.25 L4.0 6.3 4.5 24.2 4.55 26.65 4.6 38.6 Q15.25 38.15 26.15 38.9 L30.0 39.2 M0.85 43.7 L4.6 38.6" ffdec:has-small-stroke="true" ffdec:original-stroke-width="1.0" fill="none" stroke="url(#gradient3)" stroke-linecap="round" stroke-linejoin="round" stroke-width="1.5376464862652848"/>
    </g>
    <linearGradient gradientTransform="matrix(0.0, 0.0231, -0.024, 0.0, -19.95, 20.0)" gradientUnits="userSpaceOnUse" id="gradient2" spreadMethod="pad" x1="-819.2" x2="819.2">
      <stop offset="0.0" stop-color="#ff452e"/>
      <stop offset="1.0" stop-color="#e00a0a"/>
    </linearGradient>
    <radialGradient cx="0" cy="0" gradientTransform="matrix(0.0226, 0.0, 0.0, 0.0095, 10.0, 35.5)" gradientUnits="userSpaceOnUse" id="gradient3" r="819.2" spreadMethod="pad">
      <stop offset="0.12941176470588237" stop-color="#ffe48e" stop-opacity="0.4"/>
      <stop offset="1.0" stop-color="#ffe983" stop-opacity="0.0"/>
    </radialGradient>
    <g id="sprite2" transform="matrix(1.0, 0.0, 0.0, 1.0, 0.0, 0.0)">
      <use ffdec:characterId="501" height="45.05" transform="matrix(1.0, 0.0, 0.0, 1.0, 0.0, 0.0)" width="37.05" xlink:href="#shape2"/>
    </g>
    <g id="shape2" transform="matrix(1.0, 0.0, 0.0, 1.0, 0.0, 0.0)">
      <path d="M23.4 13.05 L21.55 15.6 Q18.3 14.45 18.25 12.15 18.15 9.25 20.75 9.1 23.4 9.25 23.4 13.05" fill="url(#gradient4)" fill-rule="evenodd" stroke="none"/>
      <path d="M29.3 17.75 Q26.55 16.7 23.35 16.05 L21.55 15.6 23.4 13.05 36.65 12.5 32.9 17.6 29.3 17.75" fill="#790000" fill-rule="evenodd" stroke="none"/>
      <path d="M21.55 15.6 L23.35 16.05 Q26.55 16.7 29.3 17.75 L31.55 18.7 32.2 19.0 Q37.4 22.0 37.05 28.25 36.85 31.55 35.2 34.05 L34.65 34.8 32.65 36.75 32.35 36.95 Q27.2 40.15 20.2 39.95 12.05 39.85 7.7 35.95 5.4 33.9 4.45 31.2 3.6 28.8 3.8 25.9 L4.7 25.95 17.45 26.55 Q17.1 30.7 20.65 30.4 22.85 29.4 22.65 27.2 22.4 25.0 14.8 23.45 8.55 22.15 6.2 18.45 L5.35 16.7 Q3.85 11.45 4.95 7.85 L5.75 6.0 6.0 5.55 7.6 3.65 Q12.35 -0.7 19.25 0.1 27.65 -0.55 32.35 3.3 36.05 7.05 36.65 12.5 L23.4 13.05 Q23.4 9.25 20.75 9.1 18.15 9.25 18.25 12.15 18.3 14.45 21.55 15.6" fill="url(#gradient5)" fill-rule="evenodd" stroke="none"/>
      <path d="M4.7 25.95 Q2.5 24.3 1.6 21.8 1.1 20.0 0.9 18.4 0.35 14.1 1.95 11.2 L2.1 10.9 3.2 9.45 5.75 6.0 4.95 7.85 Q3.85 11.45 5.35 16.7 L6.2 18.45 Q8.55 22.15 14.8 23.45 22.4 25.0 22.65 27.2 22.85 29.4 20.65 30.4 17.1 30.7 17.45 26.55 L4.7 25.95" fill="url(#gradient6)" fill-rule="evenodd" stroke="none"/>
      <path d="M34.65 34.8 L31.15 39.55 28.6 42.05 Q23.45 45.25 16.45 45.05 8.3 44.95 3.95 41.05 -0.4 37.15 0.05 31.0 L3.8 25.9 Q3.6 28.8 4.45 31.2 5.4 33.9 7.7 35.95 12.05 39.85 20.2 39.95 27.2 40.15 32.35 36.95 L32.65 36.75 34.65 34.8" fill="url(#gradient7)" fill-rule="evenodd" stroke="none"/>
      <path d="M34.65 34.8 L32.65 36.75 32.35 36.95 Q27.2 40.15 20.2 39.95 12.05 39.85 7.7 35.95 5.4 33.9 4.45 31.2 3.6 28.8 3.8 25.9" ffdec:has-small-stroke="true" ffdec:original-stroke-width="1.0" fill="none" stroke="url(#gradient8)" stroke-linecap="round" stroke-linejoin="round" stroke-width="1.5376464862652848"/>
    </g>
    <linearGradient gradientTransform="matrix(0.0047, 0.0038, -0.0025, 0.0031, 18.65, 10.3)" gradientUnits="userSpaceOnUse" id="gradient4" spreadMethod="pad" x1="-819.2" x2="819.2">
      <stop offset="0.1803921568627451" stop-color="#aa0000"/>
      <stop offset="0.5019607843137255" stop-color="#790000"/>
      <stop offset="0.803921568627451" stop-color="#790000"/>
      <stop offset="0.9882352941176471" stop-color="#930000"/>
    </linearGradient>
    <linearGradient gradientTransform="matrix(0.0, 0.022, -0.0238, 0.0, 268.35, 20.0)" gradientUnits="userSpaceOnUse" id="gradient5" spreadMethod="pad" x1="-819.2" x2="819.2">
      <stop offset="0.0" stop-color="#ff452e"/>
      <stop offset="1.0" stop-color="#e00a0a"/>
    </linearGradient>
    <linearGradient gradientTransform="matrix(0.016, 0.013, -0.0094, 0.0115, 16.15, 21.0)" gradientUnits="userSpaceOnUse" id="gradient6" spreadMethod="pad" x1="-819.2" x2="819.2">
      <stop offset="0.1803921568627451" stop-color="#aa0000"/>
      <stop offset="0.5019607843137255" stop-color="#790000"/>
      <stop offset="0.803921568627451" stop-color="#790000"/>
      <stop offset="0.9882352941176471" stop-color="#930000"/>
    </linearGradient>
    <linearGradient gradientTransform="matrix(0.0166, 0.0135, -0.0093, 0.0115, 16.8, 35.95)" gradientUnits="userSpaceOnUse" id="gradient7" spreadMethod="pad" x1="-819.2" x2="819.2">
      <stop offset="0.1803921568627451" stop-color="#aa0000"/>
      <stop offset="0.5019607843137255" stop-color="#790000"/>
      <stop offset="0.803921568627451" stop-color="#790000"/>
      <stop offset="0.9882352941176471" stop-color="#930000"/>
    </linearGradient>
    <radialGradient cx="0" cy="0" gradientTransform="matrix(0.0238, 0.0, 0.0, 0.0102, 18.25, 36.5)" gradientUnits="userSpaceOnUse" id="gradient8" r="819.2" spreadMethod="pad">
      <stop offset="0.12941176470588237" stop-color="#ffe48e" stop-opacity="0.4"/>
      <stop offset="1.0" stop-color="#ffe983" stop-opacity="0.0"/>
    </radialGradient>
    <g id="sprite3" transform="matrix(1.0, 0.0, 0.0, 1.0, 0.0, 0.0)">
      <use ffdec:characterId="907" height="44.9" transform="matrix(1.0, 0.0, 0.0, 1.0, 0.0, 0.0)" width="36.65" xlink:href="#shape3"/>
    </g>
    <g id="shape3" transform="matrix(1.0, 0.0, 0.0, 1.0, 0.0, 0.0)">
      <path d="M21.75 1.8 L22.2 6.35 Q24.15 28.0 20.4 28.2 19.6 28.25 19.0 27.55 19.5 21.0 18.0 6.9 L21.75 1.8" fill="#ab0404" fill-rule="evenodd" stroke="none"/>
      <path d="M19.0 27.55 Q19.6 28.25 20.4 28.2 24.15 28.0 22.2 6.35 L21.75 1.8 34.85 0.0 Q39.35 24.7 32.75 34.05 L32.2 34.8 30.5 36.6 Q26.6 39.85 20.35 39.8 0.35 38.35 4.45 7.65 L5.3 2.2 18.05 3.65 Q15.95 24.2 19.0 27.55" fill="url(#gradient9)" fill-rule="evenodd" stroke="none"/>
      <path d="M5.3 2.2 L4.45 7.65 Q0.35 38.35 20.35 39.8 26.6 39.85 30.5 36.6 L32.2 34.8 29.3 38.75 28.3 40.1 27.95 40.55 Q23.9 44.95 16.6 44.9 -5.1 43.3 1.55 7.3 L5.3 2.2" fill="url(#gradient10)" fill-rule="evenodd" stroke="none"/>
      <path d="M5.3 2.2 L4.45 7.65 Q0.35 38.35 20.35 39.8 26.6 39.85 30.5 36.6 L32.2 34.8" ffdec:has-small-stroke="true" ffdec:original-stroke-width="1.0" fill="none" stroke="url(#gradient11)" stroke-linecap="round" stroke-linejoin="round" stroke-width="1.5376464862652848"/>
    </g>
    <linearGradient gradientTransform="matrix(0.0, 0.0226, -0.025, 0.0, 105.2, 19.7)" gradientUnits="userSpaceOnUse" id="gradient9" spreadMethod="pad" x1="-819.2" x2="819.2">
      <stop offset="0.0" stop-color="#ff452e"/>
      <stop offset="1.0" stop-color="#e00a0a"/>
    </linearGradient>
    <linearGradient gradientTransform="matrix(0.017, 0.0098, -0.013, 0.0226, 19.55, 26.65)" gradientUnits="userSpaceOnUse" id="gradient10" spreadMethod="pad" x1="-819.2" x2="819.2">
      <stop offset="0.1803921568627451" stop-color="#aa0000"/>
      <stop offset="0.5019607843137255" stop-color="#790000"/>
      <stop offset="0.803921568627451" stop-color="#790000"/>
      <stop offset="0.9882352941176471" stop-color="#930000"/>
    </linearGradient>
    <radialGradient cx="0" cy="0" gradientTransform="matrix(0.0171, 0.0, 0.0, 0.0085, 17.75, 36.75)" gradientUnits="userSpaceOnUse" id="gradient11" r="819.2" spreadMethod="pad">
      <stop offset="0.12941176470588237" stop-color="#ffe48e" stop-opacity="0.4"/>
      <stop offset="1.0" stop-color="#ffe983" stop-opacity="0.0"/>
    </radialGradient>
    <g id="sprite4" transform="matrix(1.0, 0.0, 0.0, 1.0, 0.0, 0.0)">
      <use ffdec:characterId="523" height="44.85" transform="matrix(1.0, 0.0, 0.0, 1.0, 0.0, 0.0)" width="38.9" xlink:href="#shape4"/>
    </g>
    <g id="shape4" transform="matrix(1.0, 0.0, 0.0, 1.0, 0.0, 0.0)">
      <path d="M7.0 7.05 L7.25 6.7 7.35 6.5 Q9.1 4.1 11.6 2.5 14.6 0.65 18.65 0.2 L21.2 0.0 25.25 0.4 Q28.7 0.95 31.2 2.4 35.15 4.8 36.95 9.3 38.3 12.4 38.65 16.5 L38.75 17.15 38.9 20.1 38.6 23.85 Q38.15 28.35 36.55 31.4 L35.5 33.25 34.4 34.75 33.35 35.85 33.0 36.2 30.45 37.75 Q28.0 39.05 24.9 39.5 L21.25 39.75 17.45 39.4 Q11.6 38.45 8.25 34.65 3.85 29.7 3.75 20.15 3.75 18.4 3.9 16.85 4.3 12.7 5.7 9.5 L5.7 9.4 5.85 9.15 7.0 7.05 M20.8 29.45 L21.3 29.45 21.35 29.45 Q22.35 29.55 23.1 28.8 23.9 28.05 24.35 25.85 24.7 23.9 24.7 19.9 L24.65 17.05 24.3 14.0 Q23.85 12.0 23.05 11.2 22.35 10.4 21.25 10.45 20.05 10.45 19.3 11.3 18.55 12.15 18.2 14.3 L18.1 14.95 18.05 15.6 18.0 16.95 17.9 20.15 Q17.9 23.75 18.2 25.8 18.55 27.9 19.4 28.7 L20.8 29.45" fill="url(#gradient12)" fill-rule="evenodd" stroke="none"/>
      <path d="M18.05 15.6 L18.1 14.95 18.2 14.3 Q18.55 12.15 19.3 11.3 20.05 10.45 21.25 10.45 22.35 10.4 23.05 11.2 23.85 12.0 24.3 14.0 L24.65 17.05 24.7 19.9 Q24.7 23.9 24.35 25.85 23.9 28.05 23.1 28.8 22.35 29.55 21.35 29.45 L21.3 29.45 20.8 29.45 20.95 25.0 Q20.95 21.25 20.55 19.1 L19.8 17.0 19.3 16.3 Q18.8 15.7 18.05 15.6" fill="url(#gradient13)" fill-rule="evenodd" stroke="none"/>
      <path d="M7.0 7.05 L5.85 9.15 5.7 9.4 5.7 9.5 Q4.3 12.7 3.9 16.85 3.75 18.4 3.75 20.15 3.85 29.7 8.25 34.65 11.6 38.45 17.45 39.4 L21.25 39.75 24.9 39.5 Q28.0 39.05 30.45 37.75 L33.0 36.2 33.35 35.85 34.4 34.75 31.35 38.95 29.6 40.95 Q28.3 42.1 26.7 42.85 24.25 44.15 21.15 44.6 L17.5 44.85 13.7 44.5 Q7.85 43.55 4.5 39.75 0.1 34.8 0.0 25.25 0.0 20.5 1.15 16.8 L1.95 14.6 1.95 14.5 3.25 12.15 7.0 7.05" fill="url(#gradient14)" fill-rule="evenodd" stroke="none"/>
      <path d="M7.0 7.05 L5.85 9.15 5.7 9.4 5.7 9.5 Q4.3 12.7 3.9 16.85 3.75 18.4 3.75 20.15 3.85 29.7 8.25 34.65 11.6 38.45 17.45 39.4 L21.25 39.75 24.9 39.5 Q28.0 39.05 30.45 37.75 L33.0 36.2 33.35 35.85 34.4 34.75" ffdec:has-small-stroke="true" ffdec:original-stroke-width="1.0" fill="none" stroke="url(#gradient15)" stroke-linecap="round" stroke-linejoin="round" stroke-width="1.5376464862652848"/>
    </g>
    <linearGradient gradientTransform="matrix(0.0, 0.022, -0.0238, 0.0, 429.55, 20.0)" gradientUnits="userSpaceOnUse" id="gradient12" spreadMethod="pad" x1="-819.2" x2="819.2">
      <stop offset="0.0" stop-color="#ff452e"/>
      <stop offset="1.0" stop-color="#e00a0a"/>
    </linearGradient>
    <linearGradient gradientTransform="matrix(0.0065, 0.0037, -0.0052, 0.009, 19.4, 13.65)" gradientUnits="userSpaceOnUse" id="gradient13" spreadMethod="pad" x1="-819.2" x2="819.2">
      <stop offset="0.1803921568627451" stop-color="#aa0000"/>
      <stop offset="0.5019607843137255" stop-color="#790000"/>
      <stop offset="0.803921568627451" stop-color="#790000"/>
      <stop offset="0.9882352941176471" stop-color="#930000"/>
    </linearGradient>
    <linearGradient gradientTransform="matrix(0.0168, 0.0097, -0.0125, 0.0215, 21.25, 26.15)" gradientUnits="userSpaceOnUse" id="gradient14" spreadMethod="pad" x1="-819.2" x2="819.2">
      <stop offset="0.1803921568627451" stop-color="#aa0000"/>
      <stop offset="0.5019607843137255" stop-color="#790000"/>
      <stop offset="0.803921568627451" stop-color="#790000"/>
      <stop offset="0.9882352941176471" stop-color="#930000"/>
    </linearGradient>
    <radialGradient cx="0" cy="0" gradientTransform="matrix(0.0262, 0.0, 0.0, 0.0113, 18.5, 36.25)" gradientUnits="userSpaceOnUse" id="gradient15" r="819.2" spreadMethod="pad">
      <stop offset="0.12941176470588237" stop-color="#ffe48e" stop-opacity="0.4"/>
      <stop offset="1.0" stop-color="#ffe983" stop-opacity="0.0"/>
    </radialGradient>
    <g id="sprite5" transform="matrix(1.0, 0.0, 0.0, 1.0, 0.0, 0.0)">
      <use ffdec:characterId="530" height="44.6" transform="matrix(1.0, 0.0, 0.0, 1.0, 0.0, 0.0)" width="39.75" xlink:href="#shape5"/>
    </g>
    <g id="shape5" transform="matrix(1.0, 0.0, 0.0, 1.0, 0.0, 0.0)">
      <path d="M26.15 0.0 L25.05 5.25 Q23.9 10.0 22.1 15.05 L20.95 11.85 22.4 5.1 26.15 0.0" fill="#b80a0a" fill-rule="evenodd" stroke="none"/>
      <path d="M20.95 11.85 L22.1 15.05 Q23.9 10.0 25.05 5.25 L26.15 0.0 39.75 0.7 Q35.2 11.45 32.05 20.6 L29.05 29.95 29.15 38.4 15.4 39.0 14.75 29.6 11.2 20.4 5.9 7.45 3.75 2.4 17.75 1.55 Q19.1 6.65 20.95 11.85" fill="url(#gradient16)" fill-rule="evenodd" stroke="none"/>
      <path d="M3.75 2.4 L5.9 7.45 11.2 20.4 14.75 29.6 11.0 34.7 5.4 20.35 0.0 7.5 3.75 2.4" fill="#9a0000" fill-rule="evenodd" stroke="none"/>
      <path d="M15.4 39.0 L29.15 38.4 25.4 43.5 11.65 44.1 15.4 39.0" fill="#790000" fill-rule="evenodd" stroke="none"/>
      <path d="M14.75 29.6 L15.4 39.0 11.65 44.1 11.0 34.7 14.75 29.6" fill="#ab0404" fill-rule="evenodd" stroke="none"/>
      <path d="M14.75 29.6 L15.4 39.0 29.15 38.4 M15.4 39.0 L11.65 44.1" ffdec:has-small-stroke="true" ffdec:original-stroke-width="1.0" fill="none" stroke="url(#gradient17)" stroke-linecap="round" stroke-linejoin="round" stroke-width="1.5376464862652848"/>
    </g>
    <linearGradient gradientTransform="matrix(0.0, 0.022, -0.0238, 0.0, 21.75, 19.5)" gradientUnits="userSpaceOnUse" id="gradient16" spreadMethod="pad" x1="-819.2" x2="819.2">
      <stop offset="0.0" stop-color="#ff452e"/>
      <stop offset="1.0" stop-color="#e00a0a"/>
    </linearGradient>
    <radialGradient cx="0" cy="0" gradientTransform="matrix(0.0153, 0.0, 0.0, 0.008, 18.5, 36.75)" gradientUnits="userSpaceOnUse" id="gradient17" r="819.2" spreadMethod="pad">
      <stop offset="0.12941176470588237" stop-color="#ffe48e" stop-opacity="0.4"/>
      <stop offset="1.0" stop-color="#ffe983" stop-opacity="0.0"/>
    </radialGradient>
  </defs>
</svg>
