<?xml version="1.0" encoding="UTF-8" standalone="no"?>
<svg xmlns:ffdec="https://www.free-decompiler.com/flash" xmlns:xlink="http://www.w3.org/1999/xlink" ffdec:objectType="frame" height="52.85px" width="82.2px" xmlns="http://www.w3.org/2000/svg">
  <g transform="matrix(1.0, 0.0, 0.0, 1.0, 107.6, 1.5)">
    <use ffdec:characterId="1045" height="44.35" transform="matrix(0.5524, 0.0, 0.0, 1.0, -45.5776, 0.45)" width="36.5" xlink:href="#sprite0"/>
    <use ffdec:characterId="897" height="44.85" transform="matrix(0.5524, 0.0, 0.0, 1.0, -66.75, 6.5)" width="38.9" xlink:href="#sprite1"/>
    <use ffdec:characterId="897" height="44.85" transform="matrix(0.5524, 0.0, 0.0, 1.0, -87.0, -1.5)" width="38.9" xlink:href="#sprite2"/>
    <use ffdec:characterId="1082" height="45.8" transform="matrix(0.5524, 0.0, 0.0, 1.0, -107.6, 4.3)" width="38.65" xlink:href="#sprite3"/>
  </g>
  <defs>
    <g id="sprite0" transform="matrix(1.0, 0.0, 0.0, 1.0, 0.05, 0.0)">
      <use ffdec:characterId="556" height="44.35" transform="matrix(1.0, 0.0, 0.0, 1.0, -0.05, 0.0)" width="36.5" xlink:href="#shape0"/>
    </g>
    <g id="shape0" transform="matrix(1.0, 0.0, 0.0, 1.0, 0.05, 0.0)">
      <path d="M0.45 43.8 L0.0 6.75 3.75 1.65 4.2 38.7 0.45 43.8" fill="#ab0404" fill-rule="evenodd" stroke="none"/>
      <path d="M19.1 29.2 L19.3 26.7 19.25 24.4 Q18.75 18.55 16.85 16.5 L16.75 10.5 Q22.1 8.9 23.0 19.3 23.2 24.15 22.15 26.65 21.15 28.95 19.1 29.2" fill="url(#gradient0)" fill-rule="evenodd" stroke="none"/>
      <path d="M19.1 29.2 Q21.15 28.95 22.15 26.65 23.2 24.15 23.0 19.3 22.1 8.9 16.75 10.5 L16.85 16.5 17.0 29.0 19.1 29.2 M4.2 38.7 L3.75 1.65 Q35.5 -5.6 36.35 18.55 36.7 22.95 35.85 26.4 35.15 29.3 33.6 31.55 L33.05 32.3 31.2 34.25 Q23.4 40.95 4.2 38.7" fill="url(#gradient1)" fill-rule="evenodd" stroke="none"/>
      <path d="M0.45 43.8 L4.2 38.7 Q23.4 40.95 31.2 34.25 L33.05 32.3 29.8 36.7 29.35 37.35 Q22.3 46.35 0.45 43.8" fill="#790000" fill-rule="evenodd" stroke="none"/>
      <path d="M0.45 43.8 L4.2 38.7 3.75 1.65 M33.05 32.3 L31.2 34.25 Q23.4 40.95 4.2 38.7" ffdec:has-small-stroke="true" ffdec:original-stroke-width="1.0" fill="none" stroke="url(#gradient2)" stroke-linecap="round" stroke-linejoin="round" stroke-width="1.2379084758028076"/>
    </g>
    <linearGradient gradientTransform="matrix(0.0078, 0.0048, -0.0061, 0.0098, 17.35, 11.35)" gradientUnits="userSpaceOnUse" id="gradient0" spreadMethod="pad" x1="-819.2" x2="819.2">
      <stop offset="0.1803921568627451" stop-color="#aa0000"/>
      <stop offset="0.5019607843137255" stop-color="#790000"/>
      <stop offset="0.803921568627451" stop-color="#790000"/>
      <stop offset="0.9882352941176471" stop-color="#930000"/>
    </linearGradient>
    <linearGradient gradientTransform="matrix(0.0, 0.0231, -0.024, 0.0, 20.1, 19.6)" gradientUnits="userSpaceOnUse" id="gradient1" spreadMethod="pad" x1="-819.2" x2="819.2">
      <stop offset="0.0" stop-color="#ff452e"/>
      <stop offset="1.0" stop-color="#e00a0a"/>
    </linearGradient>
    <radialGradient cx="0" cy="0" gradientTransform="matrix(0.0247, 0.0, 0.0, 0.0112, 11.75, 35.25)" gradientUnits="userSpaceOnUse" id="gradient2" r="819.2" spreadMethod="pad">
      <stop offset="0.12941176470588237" stop-color="#ffe48e" stop-opacity="0.4"/>
      <stop offset="1.0" stop-color="#ffe983" stop-opacity="0.0"/>
    </radialGradient>
    <g id="sprite1" transform="matrix(1.0, 0.0, 0.0, 1.0, 0.0, 0.0)">
      <use ffdec:characterId="523" height="44.85" transform="matrix(1.0, 0.0, 0.0, 1.0, 0.0, 0.0)" width="38.9" xlink:href="#shape1"/>
    </g>
    <g id="shape1" transform="matrix(1.0, 0.0, 0.0, 1.0, 0.0, 0.0)">
      <path d="M7.0 7.05 L7.25 6.7 7.35 6.5 Q9.1 4.1 11.6 2.5 14.6 0.65 18.65 0.2 L21.2 0.0 25.25 0.4 Q28.7 0.95 31.2 2.4 35.15 4.8 36.95 9.3 38.3 12.4 38.65 16.5 L38.75 17.15 38.9 20.1 38.6 23.85 Q38.15 28.35 36.55 31.4 L35.5 33.25 34.4 34.75 33.35 35.85 33.0 36.2 30.45 37.75 Q28.0 39.05 24.9 39.5 L21.25 39.75 17.45 39.4 Q11.6 38.45 8.25 34.65 3.85 29.7 3.75 20.15 3.75 18.4 3.9 16.85 4.3 12.7 5.7 9.5 L5.7 9.4 5.85 9.15 7.0 7.05 M20.8 29.45 L21.3 29.45 21.35 29.45 Q22.35 29.55 23.1 28.8 23.9 28.05 24.35 25.85 24.7 23.9 24.7 19.9 L24.65 17.05 24.3 14.0 Q23.85 12.0 23.05 11.2 22.35 10.4 21.25 10.45 20.05 10.45 19.3 11.3 18.55 12.15 18.2 14.3 L18.1 14.95 18.05 15.6 18.0 16.95 17.9 20.15 Q17.9 23.75 18.2 25.8 18.55 27.9 19.4 28.7 L20.8 29.45" fill="url(#gradient3)" fill-rule="evenodd" stroke="none"/>
      <path d="M18.05 15.6 L18.1 14.95 18.2 14.3 Q18.55 12.15 19.3 11.3 20.05 10.45 21.25 10.45 22.35 10.4 23.05 11.2 23.85 12.0 24.3 14.0 L24.65 17.05 24.7 19.9 Q24.7 23.9 24.35 25.85 23.9 28.05 23.1 28.8 22.35 29.55 21.35 29.45 L21.3 29.45 20.8 29.45 20.95 25.0 Q20.95 21.25 20.55 19.1 L19.8 17.0 19.3 16.3 Q18.8 15.7 18.05 15.6" fill="url(#gradient4)" fill-rule="evenodd" stroke="none"/>
      <path d="M7.0 7.05 L5.85 9.15 5.7 9.4 5.7 9.5 Q4.3 12.7 3.9 16.85 3.75 18.4 3.75 20.15 3.85 29.7 8.25 34.65 11.6 38.45 17.45 39.4 L21.25 39.75 24.9 39.5 Q28.0 39.05 30.45 37.75 L33.0 36.2 33.35 35.85 34.4 34.75 31.35 38.95 29.6 40.95 Q28.3 42.1 26.7 42.85 24.25 44.15 21.15 44.6 L17.5 44.85 13.7 44.5 Q7.85 43.55 4.5 39.75 0.1 34.8 0.0 25.25 0.0 20.5 1.15 16.8 L1.95 14.6 1.95 14.5 3.25 12.15 7.0 7.05" fill="url(#gradient5)" fill-rule="evenodd" stroke="none"/>
      <path d="M7.0 7.05 L5.85 9.15 5.7 9.4 5.7 9.5 Q4.3 12.7 3.9 16.85 3.75 18.4 3.75 20.15 3.85 29.7 8.25 34.65 11.6 38.45 17.45 39.4 L21.25 39.75 24.9 39.5 Q28.0 39.05 30.45 37.75 L33.0 36.2 33.35 35.85 34.4 34.75" ffdec:has-small-stroke="true" ffdec:original-stroke-width="1.0" fill="none" stroke="url(#gradient6)" stroke-linecap="round" stroke-linejoin="round" stroke-width="1.2379084758028076"/>
    </g>
    <linearGradient gradientTransform="matrix(0.0, 0.022, -0.0238, 0.0, 429.55, 20.0)" gradientUnits="userSpaceOnUse" id="gradient3" spreadMethod="pad" x1="-819.2" x2="819.2">
      <stop offset="0.0" stop-color="#ff452e"/>
      <stop offset="1.0" stop-color="#e00a0a"/>
    </linearGradient>
    <linearGradient gradientTransform="matrix(0.0065, 0.0037, -0.0052, 0.009, 19.4, 13.65)" gradientUnits="userSpaceOnUse" id="gradient4" spreadMethod="pad" x1="-819.2" x2="819.2">
      <stop offset="0.1803921568627451" stop-color="#aa0000"/>
      <stop offset="0.5019607843137255" stop-color="#790000"/>
      <stop offset="0.803921568627451" stop-color="#790000"/>
      <stop offset="0.9882352941176471" stop-color="#930000"/>
    </linearGradient>
    <linearGradient gradientTransform="matrix(0.0168, 0.0097, -0.0125, 0.0215, 21.25, 26.15)" gradientUnits="userSpaceOnUse" id="gradient5" spreadMethod="pad" x1="-819.2" x2="819.2">
      <stop offset="0.1803921568627451" stop-color="#aa0000"/>
      <stop offset="0.5019607843137255" stop-color="#790000"/>
      <stop offset="0.803921568627451" stop-color="#790000"/>
      <stop offset="0.9882352941176471" stop-color="#930000"/>
    </linearGradient>
    <radialGradient cx="0" cy="0" gradientTransform="matrix(0.0262, 0.0, 0.0, 0.0113, 18.5, 36.25)" gradientUnits="userSpaceOnUse" id="gradient6" r="819.2" spreadMethod="pad">
      <stop offset="0.12941176470588237" stop-color="#ffe48e" stop-opacity="0.4"/>
      <stop offset="1.0" stop-color="#ffe983" stop-opacity="0.0"/>
    </radialGradient>
    <g id="sprite2" transform="matrix(1.0, 0.0, 0.0, 1.0, 0.0, 0.0)">
      <use ffdec:characterId="523" height="44.85" transform="matrix(1.0, 0.0, 0.0, 1.0, 0.0, 0.0)" width="38.9" xlink:href="#shape2"/>
    </g>
    <g id="shape2" transform="matrix(1.0, 0.0, 0.0, 1.0, 0.0, 0.0)">
      <path d="M7.0 7.05 L7.25 6.7 7.35 6.5 Q9.1 4.1 11.6 2.5 14.6 0.65 18.65 0.2 L21.2 0.0 25.25 0.4 Q28.7 0.95 31.2 2.4 35.15 4.8 36.95 9.3 38.3 12.4 38.65 16.5 L38.75 17.15 38.9 20.1 38.6 23.85 Q38.15 28.35 36.55 31.4 L35.5 33.25 34.4 34.75 33.35 35.85 33.0 36.2 30.45 37.75 Q28.0 39.05 24.9 39.5 L21.25 39.75 17.45 39.4 Q11.6 38.45 8.25 34.65 3.85 29.7 3.75 20.15 3.75 18.4 3.9 16.85 4.3 12.7 5.7 9.5 L5.7 9.4 5.85 9.15 7.0 7.05 M20.8 29.45 L21.3 29.45 21.35 29.45 Q22.35 29.55 23.1 28.8 23.9 28.05 24.35 25.85 24.7 23.9 24.7 19.9 L24.65 17.05 24.3 14.0 Q23.85 12.0 23.05 11.2 22.35 10.4 21.25 10.45 20.05 10.45 19.3 11.3 18.55 12.15 18.2 14.3 L18.1 14.95 18.05 15.6 18.0 16.95 17.9 20.15 Q17.9 23.75 18.2 25.8 18.55 27.9 19.4 28.7 L20.8 29.45" fill="url(#gradient7)" fill-rule="evenodd" stroke="none"/>
      <path d="M18.05 15.6 L18.1 14.95 18.2 14.3 Q18.55 12.15 19.3 11.3 20.05 10.45 21.25 10.45 22.35 10.4 23.05 11.2 23.85 12.0 24.3 14.0 L24.65 17.05 24.7 19.9 Q24.7 23.9 24.35 25.85 23.9 28.05 23.1 28.8 22.35 29.55 21.35 29.45 L21.3 29.45 20.8 29.45 20.95 25.0 Q20.95 21.25 20.55 19.1 L19.8 17.0 19.3 16.3 Q18.8 15.7 18.05 15.6" fill="url(#gradient8)" fill-rule="evenodd" stroke="none"/>
      <path d="M7.0 7.05 L5.85 9.15 5.7 9.4 5.7 9.5 Q4.3 12.7 3.9 16.85 3.75 18.4 3.75 20.15 3.85 29.7 8.25 34.65 11.6 38.45 17.45 39.4 L21.25 39.75 24.9 39.5 Q28.0 39.05 30.45 37.75 L33.0 36.2 33.35 35.85 34.4 34.75 31.35 38.95 29.6 40.95 Q28.3 42.1 26.7 42.85 24.25 44.15 21.15 44.6 L17.5 44.85 13.7 44.5 Q7.85 43.55 4.5 39.75 0.1 34.8 0.0 25.25 0.0 20.5 1.15 16.8 L1.95 14.6 1.95 14.5 3.25 12.15 7.0 7.05" fill="url(#gradient9)" fill-rule="evenodd" stroke="none"/>
      <path d="M7.0 7.05 L5.85 9.15 5.7 9.4 5.7 9.5 Q4.3 12.7 3.9 16.85 3.75 18.4 3.75 20.15 3.85 29.7 8.25 34.65 11.6 38.45 17.45 39.4 L21.25 39.75 24.9 39.5 Q28.0 39.05 30.45 37.75 L33.0 36.2 33.35 35.85 34.4 34.75" ffdec:has-small-stroke="true" ffdec:original-stroke-width="1.0" fill="none" stroke="url(#gradient10)" stroke-linecap="round" stroke-linejoin="round" stroke-width="1.2379084758028076"/>
    </g>
    <linearGradient gradientTransform="matrix(0.0, 0.022, -0.0238, 0.0, 429.55, 20.0)" gradientUnits="userSpaceOnUse" id="gradient7" spreadMethod="pad" x1="-819.2" x2="819.2">
      <stop offset="0.0" stop-color="#ff452e"/>
      <stop offset="1.0" stop-color="#e00a0a"/>
    </linearGradient>
    <linearGradient gradientTransform="matrix(0.0065, 0.0037, -0.0052, 0.009, 19.4, 13.65)" gradientUnits="userSpaceOnUse" id="gradient8" spreadMethod="pad" x1="-819.2" x2="819.2">
      <stop offset="0.1803921568627451" stop-color="#aa0000"/>
      <stop offset="0.5019607843137255" stop-color="#790000"/>
      <stop offset="0.803921568627451" stop-color="#790000"/>
      <stop offset="0.9882352941176471" stop-color="#930000"/>
    </linearGradient>
    <linearGradient gradientTransform="matrix(0.0168, 0.0097, -0.0125, 0.0215, 21.25, 26.15)" gradientUnits="userSpaceOnUse" id="gradient9" spreadMethod="pad" x1="-819.2" x2="819.2">
      <stop offset="0.1803921568627451" stop-color="#aa0000"/>
      <stop offset="0.5019607843137255" stop-color="#790000"/>
      <stop offset="0.803921568627451" stop-color="#790000"/>
      <stop offset="0.9882352941176471" stop-color="#930000"/>
    </linearGradient>
    <radialGradient cx="0" cy="0" gradientTransform="matrix(0.0262, 0.0, 0.0, 0.0113, 18.5, 36.25)" gradientUnits="userSpaceOnUse" id="gradient10" r="819.2" spreadMethod="pad">
      <stop offset="0.12941176470588237" stop-color="#ffe48e" stop-opacity="0.4"/>
      <stop offset="1.0" stop-color="#ffe983" stop-opacity="0.0"/>
    </radialGradient>
    <g id="sprite3" transform="matrix(1.0, 0.0, 0.0, 1.0, 0.0, 0.0)">
      <use ffdec:characterId="492" height="45.8" transform="matrix(1.0, 0.0, 0.0, 1.0, 0.0, 0.0)" width="38.65" xlink:href="#shape3"/>
    </g>
    <g id="shape3" transform="matrix(1.0, 0.0, 0.0, 1.0, 0.0, 0.0)">
      <path d="M6.6 7.3 L6.65 7.15 Q8.75 3.7 12.4 1.9 15.9 0.2 20.8 0.0 24.75 0.15 27.8 1.05 32.8 2.55 35.45 6.2 L36.05 7.1 37.0 8.95 Q37.95 11.25 38.25 14.1 L24.15 15.3 24.1 15.3 24.1 15.25 Q23.95 10.25 21.2 10.0 18.25 10.0 17.55 15.3 17.15 17.75 17.3 21.35 L17.45 23.65 17.65 25.5 Q18.15 29.05 19.5 30.45 20.35 31.3 21.5 31.3 L21.8 31.3 23.1 31.15 23.55 31.0 Q24.1 30.75 24.5 30.3 25.1 29.55 25.2 28.15 L21.25 27.9 19.75 20.3 20.4 20.25 20.65 20.25 34.55 19.4 38.65 19.15 38.65 19.5 38.45 24.5 Q37.7 31.1 34.7 35.0 L33.05 36.75 Q28.55 40.7 20.55 40.5 15.8 40.4 12.4 38.8 10.8 38.0 9.5 36.9 L7.85 35.2 6.9 33.9 Q3.95 29.35 3.75 21.7 3.45 14.2 5.55 9.35 6.0 8.25 6.6 7.3" fill="url(#gradient11)" fill-rule="evenodd" stroke="none"/>
      <path d="M34.55 19.4 L20.65 20.25 24.1 15.25 24.1 15.3 24.15 15.3 38.25 14.1 34.55 19.4 M21.25 27.9 L25.2 28.15 23.1 31.15 21.8 31.3 21.5 31.3 Q20.35 31.3 19.5 30.45 L21.25 27.9" fill="#790000" fill-rule="evenodd" stroke="none"/>
      <path d="M6.6 7.3 Q6.0 8.25 5.55 9.35 3.45 14.2 3.75 21.7 3.95 29.35 6.9 33.9 L7.85 35.2 9.5 36.9 Q10.8 38.0 12.4 38.8 15.8 40.4 20.55 40.5 28.55 40.7 33.05 36.75 L34.7 35.0 31.6 39.45 Q27.15 46.1 16.85 45.8 L12.4 45.3 Q8.5 44.45 5.8 42.2 L4.15 40.5 3.2 39.2 1.8 36.5 Q0.2 32.55 0.05 27.0 -0.25 19.6 1.8 14.7 2.55 12.85 3.7 11.4 L6.6 7.3" fill="url(#gradient12)" fill-rule="evenodd" stroke="none"/>
      <path d="M19.75 20.3 L21.25 27.9 19.5 30.45 Q18.15 29.05 17.65 25.5 L17.45 23.65 19.75 20.3 M25.2 28.15 Q25.1 29.55 24.5 30.3 24.1 30.75 23.55 31.0 L23.1 31.15 25.2 28.15" fill="#9a0000" fill-rule="evenodd" stroke="none"/>
      <path d="M20.65 20.25 L20.4 20.25 Q20.15 15.55 17.55 15.3 18.25 10.0 21.2 10.0 23.95 10.25 24.1 15.25 L20.65 20.25" fill="url(#gradient13)" fill-rule="evenodd" stroke="none"/>
      <path d="M6.6 7.3 Q6.0 8.25 5.55 9.35 3.45 14.2 3.75 21.7 3.95 29.35 6.9 33.9 L7.85 35.2 9.5 36.9 Q10.8 38.0 12.4 38.8 15.8 40.4 20.55 40.5 28.55 40.7 33.05 36.75 L34.7 35.0" ffdec:has-small-stroke="true" ffdec:original-stroke-width="1.0" fill="none" stroke="url(#gradient14)" stroke-linecap="round" stroke-linejoin="round" stroke-width="1.2379084758028076"/>
    </g>
    <linearGradient gradientTransform="matrix(0.0, 0.0242, -0.0249, 0.0, 260.15, 20.3)" gradientUnits="userSpaceOnUse" id="gradient11" spreadMethod="pad" x1="-819.2" x2="819.2">
      <stop offset="0.0" stop-color="#ff452e"/>
      <stop offset="1.0" stop-color="#e00a0a"/>
    </linearGradient>
    <linearGradient gradientTransform="matrix(0.0188, 0.0131, -0.0144, 0.0207, 19.65, 30.25)" gradientUnits="userSpaceOnUse" id="gradient12" spreadMethod="pad" x1="-819.2" x2="819.2">
      <stop offset="0.1803921568627451" stop-color="#aa0000"/>
      <stop offset="0.5019607843137255" stop-color="#790000"/>
      <stop offset="0.803921568627451" stop-color="#790000"/>
      <stop offset="0.9882352941176471" stop-color="#930000"/>
    </linearGradient>
    <linearGradient gradientTransform="matrix(-0.0033, -0.0033, 0.0036, -0.0036, 18.1, 15.15)" gradientUnits="userSpaceOnUse" id="gradient13" spreadMethod="pad" x1="-819.2" x2="819.2">
      <stop offset="0.1803921568627451" stop-color="#aa0000"/>
      <stop offset="0.5019607843137255" stop-color="#790000"/>
      <stop offset="0.803921568627451" stop-color="#790000"/>
      <stop offset="0.9882352941176471" stop-color="#930000"/>
    </linearGradient>
    <radialGradient cx="0" cy="0" gradientTransform="matrix(0.0256, 0.0, 0.0, 0.0103, 17.75, 37.5)" gradientUnits="userSpaceOnUse" id="gradient14" r="819.2" spreadMethod="pad">
      <stop offset="0.12941176470588237" stop-color="#ffe48e" stop-opacity="0.4"/>
      <stop offset="1.0" stop-color="#ffe983" stop-opacity="0.0"/>
    </radialGradient>
  </defs>
</svg>
