<?xml version="1.0" encoding="UTF-8" standalone="no"?>
<svg xmlns:ffdec="https://www.free-decompiler.com/flash" xmlns:xlink="http://www.w3.org/1999/xlink" ffdec:objectType="frame" height="200.75px" width="173.65px" xmlns="http://www.w3.org/2000/svg">
  <g transform="matrix(1.0, 0.0, 0.0, 1.0, 22.25, 12.05)">
    <filter id="filter0">
      <feColorMatrix in="SourceGraphic" result="filterResult0" type="matrix" values="0.21094832 -0.16069257 0.9497442 0.0 0.0 0.29599896 0.923993 -0.21999197 0.0 0.0 -0.6023121 1.2205814 0.38173065 0.0 0.0 0.0 0.0 0.0 1.0 0.0"/>
    </filter>
    <use ffdec:characterId="777" filter="url(#filter0)" height="120.7" transform="matrix(1.2462, 0.0, 0.0, 1.2462, 0.3912, 0.4255)" width="120.7" xlink:href="#sprite0"/>
    <use ffdec:characterId="779" height="39.7" transform="matrix(0.5336, -0.1429, 0.2588, 0.9659, 119.0008, 8.214)" width="35.2" xlink:href="#sprite18"/>
    <use ffdec:characterId="781" height="40.35" transform="matrix(0.5336, -0.1429, 0.2588, 0.9659, 100.1508, 6.264)" width="30.8" xlink:href="#sprite19"/>
    <use ffdec:characterId="779" height="39.7" transform="matrix(0.3578, -0.0959, 0.1736, 0.6478, 130.1919, 54.9405)" width="35.2" xlink:href="#sprite18"/>
    <use ffdec:characterId="781" height="40.35" transform="matrix(0.3578, -0.0959, 0.1736, 0.6478, 117.5419, 53.6405)" width="30.8" xlink:href="#sprite19"/>
    <clipPath id="clipPath0">
      <path d="M 150.52 0.69 L 0.73 0.72 L 0.73 150.51 L 150.52 150.51 L 150.52 0.69 Z"/>
    </clipPath>
    <g clip-path="url(#clipPath0)">
      <use ffdec:characterId="783" height="35.9" transform="matrix(-0.0967, -0.5106, 0.7094, -0.1344, 94.833, 59.6912)" width="13.75" xlink:href="#sprite20"/>
      <use ffdec:characterId="783" height="35.9" transform="matrix(0.1223, -0.3496, 0.4857, 0.1698, 91.8785, 65.7632)" width="13.75" xlink:href="#sprite21"/>
      <use ffdec:characterId="784" height="35.75" transform="matrix(-0.4649, -0.3126, -0.177, 0.3212, 129.75, 139.815)" width="79.05" xlink:href="#shape22"/>
      <use ffdec:characterId="609" height="32.75" transform="matrix(-0.3647, -0.3114, -0.1883, 0.2816, 134.0338, 143.2384)" width="33.2" xlink:href="#shape23"/>
      <use ffdec:characterId="784" height="35.75" transform="matrix(0.1425, -0.5402, 0.2969, 0.1164, 54.4876, 180.689)" width="79.05" xlink:href="#shape22"/>
      <use ffdec:characterId="609" height="32.75" transform="matrix(0.0754, -0.4722, 0.2827, 0.0799, 53.5323, 186.0905)" width="33.2" xlink:href="#shape24"/>
      <use ffdec:characterId="784" height="35.75" transform="matrix(-0.3097, -0.3138, -0.3027, 0.2849, 127.2543, 154.2622)" width="79.05" xlink:href="#shape22"/>
      <use ffdec:characterId="609" height="32.75" transform="matrix(-0.2152, -0.3069, -0.2968, 0.2478, 129.8369, 157.6419)" width="33.2" xlink:href="#shape25"/>
      <use ffdec:characterId="688" height="141.25" transform="matrix(0.3282, 0.3277, -0.1979, 0.1453, 124.617, 104.3563)" width="49.4" xlink:href="#shape26"/>
      <use ffdec:characterId="784" height="35.75" transform="matrix(-0.4199, -0.0992, -0.0889, 0.3765, 127.8004, 102.9655)" width="79.05" xlink:href="#shape22"/>
      <use ffdec:characterId="609" height="32.75" transform="matrix(-0.3401, -0.14, -0.1043, 0.344, 131.746, 104.4426)" width="33.2" xlink:href="#shape27"/>
      <use ffdec:characterId="733" height="84.8" transform="matrix(-0.5694, 0.2183, 0.2183, 0.5694, 97.5725, 98.5744)" width="98.7" xlink:href="#shape28"/>
      <use ffdec:characterId="784" height="35.75" transform="matrix(-0.0512, -0.4392, 0.3754, -0.0765, 67.7632, 184.2471)" width="79.05" xlink:href="#shape22"/>
      <use ffdec:characterId="609" height="32.75" transform="matrix(-0.0994, -0.3582, 0.3454, -0.0938, 68.7907, 188.3827)" width="33.2" xlink:href="#shape29"/>
      <use ffdec:characterId="688" height="141.25" transform="matrix(0.3929, 0.2456, 0.1841, -0.2557, 34.4403, 163.8858)" width="49.4" xlink:href="#shape30"/>
      <use ffdec:characterId="784" height="35.75" transform="matrix(0.0896, -0.4181, 0.3749, 0.0803, 37.2634, 163.6914)" width="79.05" xlink:href="#shape22"/>
      <use ffdec:characterId="609" height="32.75" transform="matrix(0.0191, -0.364, 0.3523, 0.0527, 36.9261, 167.8678)" width="33.2" xlink:href="#shape31"/>
      <use ffdec:characterId="626" height="25.9" transform="matrix(0.42, -0.2353, 0.2487, 0.4439, 23.371, 51.4382)" width="26.4" xlink:href="#shape32"/>
      <use ffdec:characterId="745" height="172.25" transform="matrix(0.3233, -0.1493, 0.1339, 0.3103, 30.7905, 78.273)" width="169.6" xlink:href="#shape33"/>
      <use ffdec:characterId="746" height="175.3" transform="matrix(0.3233, -0.1493, 0.1339, 0.3103, 30.0922, 77.9494)" width="172.6" xlink:href="#shape34"/>
      <use ffdec:characterId="785" height="189.3" transform="matrix(-0.3884, 0.1446, 0.1446, 0.3884, 79.9016, -12.0276)" width="263.05" xlink:href="#shape35"/>
      <use ffdec:characterId="748" height="44.25" transform="matrix(-0.4841, 0.2349, 0.2198, 0.4531, 75.4071, 52.5035)" width="42.05" xlink:href="#shape36"/>
      <use ffdec:characterId="748" height="44.25" transform="matrix(-0.5483, 0.2661, 0.266, 0.5483, 60.4357, 59.4453)" width="42.05" xlink:href="#shape36"/>
      <use ffdec:characterId="749" height="37.65" transform="matrix(-0.541, 0.2807, 0.2806, 0.541, 76.3266, 46.8568)" width="38.9" xlink:href="#shape37"/>
      <use ffdec:characterId="750" height="28.85" transform="matrix(0.3111, -0.0299, 0.0361, 0.3165, 67.401, 58.7742)" width="28.8" xlink:href="#shape38"/>
      <use ffdec:characterId="786" height="67.15" transform="matrix(0.2557, -0.2347, 0.2366, 0.2578, 53.0989, 62.8654)" width="76.35" xlink:href="#shape39"/>
    </g>
    <clipPath id="clipPath1">
      <path d="M 74.84 81.72 L 73.62 83.05 L 72.99 83.62 L 72.42 84.11 L 71.9 84.5 L 71.66 84.67 L 71.43 84.81 L 68.47 86.35 L 67.93 86.6 L 67.34 86.85 L 66.72 87.11 L 66.06 87.37 L 65.35 87.63 L 64.6 87.89 L 63.82 88.15 L 62.99 88.41 L 62.61 88.51 L 62.21 88.61 L 61.77 88.7 L 61.31 88.78 L 60.81 88.85 L 60.28 88.92 L 59.14 89.04 L 57.87 89.14 L 56.47 89.2 L 54.96 89.24 L 53.31 89.25 L 51.98 89.25 L 50.57 89.22 L 50.57 89.22 L 51.61 91.41 L 52.65 93.5 L 53.67 95.5 L 54.67 97.41 L 55.67 99.22 L 56.64 100.93 L 57.61 102.55 L 58.56 104.08 L 59.49 105.51 L 59.95 106.19 L 60.41 106.85 L 60.87 107.48 L 61.32 108.09 L 61.77 108.68 L 62.21 109.24 L 62.65 109.78 L 63.09 110.3 L 63.52 110.79 L 63.95 111.26 L 64.38 111.7 L 64.8 112.12 L 65.22 112.52 L 65.63 112.89 L 66.09 113.19 L 66.55 113.46 L 67.01 113.72 L 67.47 113.95 L 67.93 114.17 L 68.38 114.37 L 68.84 114.55 L 69.3 114.71 L 69.76 114.85 L 70.22 114.98 L 70.68 115.08 L 71.14 115.16 L 71.6 115.23 L 72.06 115.28 L 72.52 115.31 L 72.99 115.32 L 73.35 115.31 L 73.72 115.29 L 74.09 115.26 L 74.46 115.22 L 74.82 115.17 L 75.19 115.1 L 75.56 115.02 L 75.93 114.93 L 76.3 114.83 L 76.67 114.72 L 77.04 114.59 L 77.4 114.45 L 77.77 114.3 L 78.14 114.14 L 78.51 113.97 L 78.88 113.78 L 79.33 113.54 L 79.78 113.28 L 84.93 108.69 L 83.9 105.58 L 82.92 102.72 L 81.99 100.09 L 81.11 97.7 L 80.29 95.54 L 79.89 94.56 L 79.51 93.63 L 79.15 92.76 L 78.79 91.95 L 78.45 91.2 L 78.13 90.51 L 74.84 81.72 Z"/>
    </clipPath>
    <g clip-path="url(#clipPath1)">
      <use ffdec:characterId="788" height="82.4" transform="matrix(-0.2717, 0.1409, 0.1825, 0.3519, 66.0079, 77.6178)" width="70.9" xlink:href="#shape40"/>
      <use ffdec:characterId="672" height="43.25" transform="matrix(0.2831, -0.1173, 0.1641, 0.3604, 55.6375, 110.8111)" width="89.9" xlink:href="#shape41"/>
      <use ffdec:characterId="673" height="52.05" transform="matrix(0.2717, -0.1409, 0.1825, 0.3519, 45.3728, 83.5654)" width="87.0" xlink:href="#shape42"/>
    </g>
    <clipPath id="clipPath2">
      <path d="M 150.52 0.69 L 0.73 0.72 L 0.73 150.51 L 150.52 150.51 L 150.52 0.69 Z"/>
    </clipPath>
    <g clip-path="url(#clipPath2)">
      <use ffdec:characterId="789" height="91.75" transform="matrix(-0.2717, 0.1409, 0.1825, 0.3519, 73.9733, 76.5228)" width="88.6" xlink:href="#shape43"/>
      <use ffdec:characterId="790" height="69.3" transform="matrix(0.2875, -0.2585, 0.2585, 0.2874, 60.8374, 73.6592)" width="88.9" xlink:href="#shape44"/>
      <use ffdec:characterId="753" height="65.5" transform="matrix(0.3533, -0.1953, 0.2133, 0.386, 34.8105, 66.1927)" width="67.95" xlink:href="#shape45"/>
      <use ffdec:characterId="750" height="28.85" transform="matrix(0.2374, -0.0231, 0.0486, 0.248, 47.4319, 67.9106)" width="28.8" xlink:href="#shape38"/>
      <use ffdec:characterId="786" height="67.15" transform="matrix(0.3939, -0.0977, 0.1067, 0.4303, 35.0785, 61.3758)" width="76.35" xlink:href="#shape39"/>
      <use ffdec:characterId="754" height="152.15" transform="matrix(0.2875, -0.2585, 0.2585, 0.2874, 93.4366, 69.3757)" width="56.2" xlink:href="#shape46"/>
      <use ffdec:characterId="677" height="11.45" transform="matrix(0.5728, 0.3891, 0.4078, -0.6003, 61.5055, 34.5888)" width="28.7" xlink:href="#shape47"/>
      <use ffdec:characterId="677" height="11.45" transform="matrix(-0.247, 0.7889, -0.7889, -0.247, 49.3414, 47.1866)" width="28.7" xlink:href="#shape47"/>
      <use ffdec:characterId="744" height="25.25" transform="matrix(-0.3853, 0.3799, -0.3799, -0.3853, 100.771, 125.9274)" width="59.1" xlink:href="#shape48"/>
      <use ffdec:characterId="744" height="25.25" transform="matrix(0.5408, -0.0178, -0.0178, -0.5408, 86.9266, 143.7574)" width="59.1" xlink:href="#shape48"/>
      <use ffdec:characterId="783" height="35.9" transform="matrix(-0.397, -0.3354, -0.4659, 0.5516, 40.8843, 89.3959)" width="13.75" xlink:href="#sprite20"/>
      <use ffdec:characterId="783" height="35.9" transform="matrix(-0.3645, -0.0655, -0.091, 0.5064, 47.58, 89.8507)" width="13.75" xlink:href="#sprite22"/>
      <use ffdec:characterId="783" height="35.9" transform="matrix(-0.1255, -0.3484, -0.3882, 0.1399, 33.8983, 85.0284)" width="13.75" xlink:href="#sprite23"/>
      <use ffdec:characterId="783" height="35.9" transform="matrix(-0.2416, -0.2807, 0.3127, -0.2692, 94.4719, 51.5141)" width="13.75" xlink:href="#sprite24"/>
    </g>
    <use ffdec:characterId="96" height="18.0" transform="matrix(1.495, 0.0, 0.0, 8.3556, 1.0, 1.45)" width="100.6" xlink:href="#shape52"/>
  </g>
  <defs>
    <g id="sprite0" transform="matrix(1.0, 0.0, 0.0, 1.0, -140.5, -52.5)">
      <use ffdec:characterId="775" height="120.7" transform="matrix(1.0, 0.0, 0.0, 1.0, 140.5, 52.5)" width="120.7" xlink:href="#shape0"/>
      <use ffdec:characterId="776" height="13.5" transform="matrix(1.0, 0.0, 0.0, 1.0, 154.15, 66.05)" width="13.5" xlink:href="#sprite1"/>
      <use ffdec:characterId="776" height="13.5" transform="matrix(1.0, 0.0, 0.0, 1.0, 194.15, 66.05)" width="13.5" xlink:href="#sprite1"/>
      <use ffdec:characterId="776" height="13.5" transform="matrix(1.0, 0.0, 0.0, 1.0, 154.15, 106.05)" width="13.5" xlink:href="#sprite1"/>
      <use ffdec:characterId="776" height="13.5" transform="matrix(1.0, 0.0, 0.0, 1.0, 194.15, 106.05)" width="13.5" xlink:href="#sprite1"/>
      <use ffdec:characterId="776" height="13.5" transform="matrix(1.0, 0.0, 0.0, 1.0, 154.15, 146.15)" width="13.5" xlink:href="#sprite1"/>
      <use ffdec:characterId="776" height="13.5" transform="matrix(1.0, 0.0, 0.0, 1.0, 194.15, 146.15)" width="13.5" xlink:href="#sprite1"/>
      <use ffdec:characterId="776" height="13.5" transform="matrix(1.0, 0.0, 0.0, 1.0, 234.25, 66.05)" width="13.5" xlink:href="#sprite1"/>
      <use ffdec:characterId="776" height="13.5" transform="matrix(1.0, 0.0, 0.0, 1.0, 234.25, 106.05)" width="13.5" xlink:href="#sprite1"/>
      <use ffdec:characterId="776" height="13.5" transform="matrix(1.0, 0.0, 0.0, 1.0, 234.25, 146.15)" width="13.5" xlink:href="#sprite1"/>
      <use ffdec:characterId="776" height="13.5" transform="matrix(0.6825, 0.0, 0.0, 0.6825, 176.2016, 67.9016)" width="13.5" xlink:href="#sprite2"/>
      <use ffdec:characterId="776" height="13.5" transform="matrix(0.6825, 0.0, 0.0, 0.6825, 216.0516, 67.9516)" width="13.5" xlink:href="#sprite3"/>
      <use ffdec:characterId="776" height="13.5" transform="matrix(0.6825, 0.0, 0.0, 0.6825, 176.0516, 148.0516)" width="13.5" xlink:href="#sprite4"/>
      <use ffdec:characterId="776" height="13.5" transform="matrix(0.6825, 0.0, 0.0, 0.6825, 216.1016, 147.8016)" width="13.5" xlink:href="#sprite5"/>
      <use ffdec:characterId="776" height="13.5" transform="matrix(0.6825, 0.0, 0.0, 0.6825, 176.2516, 108.0516)" width="13.5" xlink:href="#sprite6"/>
      <use ffdec:characterId="776" height="13.5" transform="matrix(0.6825, 0.0, 0.0, 0.6825, 216.5516, 108.0516)" width="13.5" xlink:href="#sprite7"/>
      <use ffdec:characterId="776" height="13.5" transform="matrix(0.6825, 0.0, 0.0, 0.6825, 216.5516, 88.0516)" width="13.5" xlink:href="#sprite8"/>
      <use ffdec:characterId="776" height="13.5" transform="matrix(0.6825, 0.0, 0.0, 0.6825, 196.5516, 88.0516)" width="13.5" xlink:href="#sprite9"/>
      <use ffdec:characterId="776" height="13.5" transform="matrix(0.6825, 0.0, 0.0, 0.6825, 176.3516, 88.0516)" width="13.5" xlink:href="#sprite10"/>
      <use ffdec:characterId="776" height="13.5" transform="matrix(0.6825, 0.0, 0.0, 0.6825, 236.3516, 88.0516)" width="13.5" xlink:href="#sprite11"/>
      <use ffdec:characterId="776" height="13.5" transform="matrix(0.6825, 0.0, 0.0, 0.6825, 176.4516, 128.2016)" width="13.5" xlink:href="#sprite12"/>
      <use ffdec:characterId="776" height="13.5" transform="matrix(0.6825, 0.0, 0.0, 0.6825, 156.3516, 128.2016)" width="13.5" xlink:href="#sprite13"/>
      <use ffdec:characterId="776" height="13.5" transform="matrix(0.6825, 0.0, 0.0, 0.6825, 216.3516, 128.2016)" width="13.5" xlink:href="#sprite14"/>
      <use ffdec:characterId="776" height="13.5" transform="matrix(0.6825, 0.0, 0.0, 0.6825, 196.2516, 128.2016)" width="13.5" xlink:href="#sprite15"/>
      <use ffdec:characterId="776" height="13.5" transform="matrix(0.6825, 0.0, 0.0, 0.6825, 236.2016, 128.2016)" width="13.5" xlink:href="#sprite16"/>
      <use ffdec:characterId="776" height="13.5" transform="matrix(0.6825, 0.0, 0.0, 0.6825, 156.2516, 88.0516)" width="13.5" xlink:href="#sprite17"/>
    </g>
    <g id="shape0" transform="matrix(1.0, 0.0, 0.0, 1.0, -140.5, -52.5)">
      <path d="M218.8 75.0 L202.85 75.0 202.85 90.95 218.8 90.95 218.8 75.0 M218.8 94.85 L202.85 94.85 202.85 110.8 218.8 110.8 218.8 94.85 M202.75 71.0 L218.7 71.0 218.7 55.05 202.75 55.05 202.75 71.0 M238.65 71.0 L238.65 55.05 222.7 55.05 222.7 71.0 238.65 71.0 M198.85 90.95 L198.85 75.0 182.9 75.0 182.9 90.95 198.85 90.95 M198.85 94.85 L182.9 94.85 182.9 110.8 198.85 110.8 198.85 94.85 M178.95 75.0 L163.0 75.0 163.0 90.95 178.95 90.95 178.95 75.0 M178.95 94.85 L163.0 94.85 163.0 110.8 178.95 110.8 178.95 94.85 M162.9 71.0 L178.85 71.0 178.85 55.05 162.9 55.05 162.9 71.0 M182.8 55.05 L182.8 71.0 198.75 71.0 198.75 55.05 182.8 55.05 M260.6 73.0 L260.7 73.0 260.7 112.8 161.0 112.8 161.0 112.85 260.65 112.85 260.65 132.8 260.75 132.8 260.75 172.6 161.05 172.6 161.05 172.65 141.1 172.65 141.1 132.85 141.0 132.85 141.0 112.9 160.95 112.9 160.95 112.85 141.05 112.85 141.05 73.05 140.95 73.05 140.95 53.1 160.9 53.1 160.9 53.05 180.7 53.05 180.55 53.2 180.55 53.35 180.8 53.1 180.8 53.05 260.6 53.05 260.6 73.0 M258.6 71.0 L258.6 55.05 242.65 55.05 242.65 71.0 258.6 71.0 M258.7 90.95 L258.7 75.0 242.75 75.0 242.75 90.95 258.7 90.95 M238.75 90.95 L238.75 75.0 222.8 75.0 222.8 90.95 238.65 90.95 240.65 92.95 240.75 92.95 238.75 90.95 M143.1 170.65 L159.05 170.65 159.05 154.7 143.1 154.7 143.1 170.65 M159.05 134.85 L143.1 134.85 143.1 150.8 159.05 150.8 159.05 134.85 M161.05 132.85 L161.05 132.8 160.95 132.8 160.95 132.85 161.05 132.85 M158.95 114.9 L143.0 114.9 143.0 130.85 158.95 130.85 158.95 114.9 M159.0 91.0 L159.0 75.05 143.05 75.05 143.05 91.0 159.0 91.0 M159.0 94.9 L143.05 94.9 143.05 110.85 159.0 110.85 159.0 94.9 M158.9 71.05 L158.9 55.1 142.95 55.1 142.95 71.05 158.9 71.05 M161.0 73.0 L160.9 73.0 160.9 73.05 161.0 73.05 161.0 73.0 M242.75 94.85 L242.75 110.8 258.7 110.8 258.7 94.85 242.75 94.85 M242.8 134.8 L242.8 150.75 258.75 150.75 258.75 134.8 242.8 134.8 M202.9 154.65 L202.9 170.6 218.85 170.6 218.85 154.65 202.9 154.65 M222.85 170.6 L238.8 170.6 238.8 154.65 222.85 154.65 222.85 170.6 M242.8 154.65 L242.8 170.6 258.75 170.6 258.75 154.65 242.8 154.65 M163.05 154.65 L163.05 170.6 179.0 170.6 179.0 154.65 163.05 154.65 M182.95 170.6 L198.9 170.6 198.9 154.65 182.95 154.65 182.95 170.6 M198.9 134.8 L182.95 134.8 182.95 150.75 198.9 150.75 198.9 134.8 M179.0 134.8 L163.05 134.8 163.05 150.75 179.0 150.75 179.0 134.8 M178.9 114.85 L162.95 114.85 162.95 130.8 178.9 130.8 178.9 114.85 M198.8 114.85 L182.85 114.85 182.85 130.8 198.8 130.8 198.8 114.85 M242.7 114.85 L242.7 130.8 258.65 130.8 258.65 114.85 242.7 114.85 M238.8 134.8 L222.85 134.8 222.85 150.75 238.8 150.75 238.8 134.8 M218.85 134.8 L202.9 134.8 202.9 150.75 218.85 150.75 218.85 134.8 M218.75 114.85 L202.8 114.85 202.8 130.8 218.75 130.8 218.75 114.85 M238.7 114.85 L222.75 114.85 222.75 130.8 238.7 130.8 238.7 114.85 M238.75 94.85 L222.8 94.85 222.8 110.8 238.75 110.8 238.75 94.85" fill="url(#gradient0)" fill-rule="evenodd" stroke="none"/>
      <path d="M141.0 172.7 L160.6 172.7 160.6 153.1 141.0 153.1 141.0 172.7 M160.6 132.6 L160.6 113.1 141.0 113.1 141.0 132.6 160.6 132.6 M160.6 133.1 L141.0 133.1 141.0 152.6 160.6 152.6 160.6 133.1 M141.0 92.6 L160.6 92.6 160.6 73.0 141.0 73.0 141.0 92.6 M160.6 93.1 L141.0 93.1 141.0 112.6 160.6 112.6 160.6 93.1 M160.6 72.5 L160.6 53.0 141.0 53.0 141.0 72.5 160.6 72.5 M260.7 93.1 L241.2 93.1 241.2 112.6 260.7 112.6 260.7 93.1 M180.6 112.6 L180.6 93.1 161.1 93.1 161.1 112.6 180.6 112.6 M201.1 152.6 L220.6 152.6 220.6 133.1 201.1 133.1 201.1 152.6 M241.2 133.1 L241.2 152.6 260.7 152.6 260.7 133.1 241.2 133.1 M180.6 152.6 L180.6 133.1 161.1 133.1 161.1 152.6 180.6 152.6 M240.7 153.1 L221.1 153.1 221.1 172.7 240.7 172.7 240.7 153.1 M241.2 153.1 L241.2 172.7 260.7 172.7 260.7 153.1 241.2 153.1 M200.6 153.1 L181.1 153.1 181.1 172.7 200.6 172.7 200.6 153.1 M180.6 172.7 L180.6 153.1 161.1 153.1 161.1 172.7 180.6 172.7 M201.1 153.1 L201.1 172.7 220.6 172.7 220.6 153.1 201.1 153.1 M200.6 113.1 L181.1 113.1 181.1 132.6 200.6 132.6 200.6 113.1 M200.6 133.1 L181.1 133.1 181.1 152.6 200.6 152.6 200.6 133.1 M180.6 132.6 L180.6 113.1 161.1 113.1 161.1 132.6 180.6 132.6 M240.7 113.1 L221.1 113.1 221.1 132.6 240.7 132.6 240.7 113.1 M240.7 133.1 L221.1 133.1 221.1 152.6 240.7 152.6 240.7 133.1 M220.6 132.6 L220.6 113.1 201.1 113.1 201.1 132.6 220.6 132.6 M241.2 113.1 L241.2 132.6 260.7 132.6 260.7 113.1 241.2 113.1 M220.6 93.1 L201.1 93.1 201.1 112.6 220.6 112.6 220.6 93.1 M221.1 73.0 L221.1 92.6 240.7 92.6 240.7 73.0 221.1 73.0 M240.7 93.1 L221.1 93.1 221.1 112.6 240.7 112.6 240.7 93.1 M240.7 72.5 L240.7 53.0 221.1 53.0 221.1 72.5 240.7 72.5 M181.1 73.0 L181.1 92.6 200.6 92.6 200.6 73.0 181.1 73.0 M180.6 92.6 L180.6 73.0 161.1 73.0 161.1 92.6 180.6 92.6 M200.6 93.1 L181.1 93.1 181.1 112.6 200.6 112.6 200.6 93.1 M201.1 73.0 L201.1 92.6 220.6 92.6 220.6 73.0 201.1 73.0 M180.6 72.5 L180.6 53.0 161.1 53.0 161.1 72.5 180.6 72.5 M200.6 72.5 L200.6 53.0 181.1 53.0 181.1 72.5 200.6 72.5 M201.1 53.0 L201.1 72.5 220.6 72.5 220.6 53.0 201.1 53.0 M260.7 92.6 L260.7 73.0 241.2 73.0 241.2 92.6 260.7 92.6 M260.7 72.5 L260.7 53.0 241.2 53.0 241.2 72.5 260.7 72.5 M260.95 52.5 L261.15 52.6 261.2 52.75 261.2 172.95 261.15 173.15 260.95 173.2 140.75 173.2 140.6 173.15 140.5 172.95 140.5 52.75 140.6 52.6 Q140.65 52.5 140.75 52.5 L260.95 52.5" fill="url(#gradient1)" fill-rule="evenodd" stroke="none"/>
    </g>
    <radialGradient cx="0" cy="0" gradientTransform="matrix(0.0719, 0.0, 0.0, 0.0719, 200.75, 112.4)" gradientUnits="userSpaceOnUse" id="gradient0" r="819.2" spreadMethod="pad">
      <stop offset="0.0" stop-color="#0067db"/>
      <stop offset="1.0" stop-color="#0067db" stop-opacity="0.0"/>
    </radialGradient>
    <radialGradient cx="0" cy="0" gradientTransform="matrix(0.073, 0.0, 0.0, 0.073, 200.85, 112.85)" gradientUnits="userSpaceOnUse" id="gradient1" r="819.2" spreadMethod="pad">
      <stop offset="0.0" stop-color="#33c0ff"/>
      <stop offset="1.0" stop-color="#33c0ff" stop-opacity="0.0"/>
    </radialGradient>
    <g id="sprite1" transform="matrix(1.0, 0.0, 0.0, 1.0, 4.1, 4.1)">
      <use ffdec:characterId="381" height="13.5" transform="matrix(1.0, 0.0, 0.0, 1.0, -4.1, -4.1)" width="13.5" xlink:href="#shape1"/>
    </g>
    <g id="shape1" transform="matrix(1.0, 0.0, 0.0, 1.0, 4.1, 4.1)">
      <path d="M2.6 2.7 L8.9 2.7" fill="none" stroke="url(#gradient2)" stroke-linecap="round" stroke-linejoin="round" stroke-width="1.0"/>
      <path d="M2.6 2.7 L2.6 8.9 M2.6 -3.6 L2.6 2.7 -3.6 2.7" fill="none" stroke="url(#gradient3)" stroke-linecap="round" stroke-linejoin="round" stroke-width="1.0"/>
    </g>
    <radialGradient cx="0" cy="0" fx="3.2" fy="0" gradientTransform="matrix(0.0082, 0.0, 0.0, 0.0082, 2.65, 2.65)" gradientUnits="userSpaceOnUse" id="gradient2" r="819.2" spreadMethod="pad">
      <stop offset="0.0" stop-color="#72e2ff"/>
      <stop offset="1.0" stop-color="#72e2ff" stop-opacity="0.0"/>
    </radialGradient>
    <radialGradient cx="0" cy="0" fx="3.2" fy="0" gradientTransform="matrix(0.0082, 0.0, 0.0, 0.0082, 2.65, 2.65)" gradientUnits="userSpaceOnUse" id="gradient3" r="819.2" spreadMethod="pad">
      <stop offset="0.0" stop-color="#72e2ff"/>
      <stop offset="1.0" stop-color="#72e2ff" stop-opacity="0.0"/>
    </radialGradient>
    <g id="sprite2" transform="matrix(1.0, 0.0, 0.0, 1.0, 4.1, 4.1)">
      <use ffdec:characterId="381" height="13.5" transform="matrix(1.0, 0.0, 0.0, 1.0, -4.1, -4.1)" width="13.5" xlink:href="#shape2"/>
    </g>
    <g id="shape2" transform="matrix(1.0, 0.0, 0.0, 1.0, 4.1, 4.1)">
      <path d="M2.6 2.7 L8.9 2.7" ffdec:has-small-stroke="true" ffdec:original-stroke-width="1.0" fill="none" stroke="url(#gradient4)" stroke-linecap="round" stroke-linejoin="round" stroke-width="1.1756644353939654"/>
      <path d="M2.6 2.7 L2.6 8.9 M2.6 -3.6 L2.6 2.7 -3.6 2.7" ffdec:has-small-stroke="true" ffdec:original-stroke-width="1.0" fill="none" stroke="url(#gradient5)" stroke-linecap="round" stroke-linejoin="round" stroke-width="1.1756644353939654"/>
    </g>
    <radialGradient cx="0" cy="0" fx="3.2" fy="0" gradientTransform="matrix(0.0082, 0.0, 0.0, 0.0082, 2.65, 2.65)" gradientUnits="userSpaceOnUse" id="gradient4" r="819.2" spreadMethod="pad">
      <stop offset="0.0" stop-color="#72e2ff"/>
      <stop offset="1.0" stop-color="#72e2ff" stop-opacity="0.0"/>
    </radialGradient>
    <radialGradient cx="0" cy="0" fx="3.2" fy="0" gradientTransform="matrix(0.0082, 0.0, 0.0, 0.0082, 2.65, 2.65)" gradientUnits="userSpaceOnUse" id="gradient5" r="819.2" spreadMethod="pad">
      <stop offset="0.0" stop-color="#72e2ff"/>
      <stop offset="1.0" stop-color="#72e2ff" stop-opacity="0.0"/>
    </radialGradient>
    <g id="sprite3" transform="matrix(1.0, 0.0, 0.0, 1.0, 4.1, 4.1)">
      <use ffdec:characterId="381" height="13.5" transform="matrix(1.0, 0.0, 0.0, 1.0, -4.1, -4.1)" width="13.5" xlink:href="#shape3"/>
    </g>
    <g id="shape3" transform="matrix(1.0, 0.0, 0.0, 1.0, 4.1, 4.1)">
      <path d="M2.6 2.7 L8.9 2.7" ffdec:has-small-stroke="true" ffdec:original-stroke-width="1.0" fill="none" stroke="url(#gradient6)" stroke-linecap="round" stroke-linejoin="round" stroke-width="1.1756644353939654"/>
      <path d="M2.6 2.7 L2.6 8.9 M2.6 -3.6 L2.6 2.7 -3.6 2.7" ffdec:has-small-stroke="true" ffdec:original-stroke-width="1.0" fill="none" stroke="url(#gradient7)" stroke-linecap="round" stroke-linejoin="round" stroke-width="1.1756644353939654"/>
    </g>
    <radialGradient cx="0" cy="0" fx="3.2" fy="0" gradientTransform="matrix(0.0082, 0.0, 0.0, 0.0082, 2.65, 2.65)" gradientUnits="userSpaceOnUse" id="gradient6" r="819.2" spreadMethod="pad">
      <stop offset="0.0" stop-color="#72e2ff"/>
      <stop offset="1.0" stop-color="#72e2ff" stop-opacity="0.0"/>
    </radialGradient>
    <radialGradient cx="0" cy="0" fx="3.2" fy="0" gradientTransform="matrix(0.0082, 0.0, 0.0, 0.0082, 2.65, 2.65)" gradientUnits="userSpaceOnUse" id="gradient7" r="819.2" spreadMethod="pad">
      <stop offset="0.0" stop-color="#72e2ff"/>
      <stop offset="1.0" stop-color="#72e2ff" stop-opacity="0.0"/>
    </radialGradient>
    <g id="sprite4" transform="matrix(1.0, 0.0, 0.0, 1.0, 4.1, 4.1)">
      <use ffdec:characterId="381" height="13.5" transform="matrix(1.0, 0.0, 0.0, 1.0, -4.1, -4.1)" width="13.5" xlink:href="#shape4"/>
    </g>
    <g id="shape4" transform="matrix(1.0, 0.0, 0.0, 1.0, 4.1, 4.1)">
      <path d="M2.6 2.7 L8.9 2.7" ffdec:has-small-stroke="true" ffdec:original-stroke-width="1.0" fill="none" stroke="url(#gradient8)" stroke-linecap="round" stroke-linejoin="round" stroke-width="1.1756644353939654"/>
      <path d="M2.6 2.7 L2.6 8.9 M2.6 -3.6 L2.6 2.7 -3.6 2.7" ffdec:has-small-stroke="true" ffdec:original-stroke-width="1.0" fill="none" stroke="url(#gradient9)" stroke-linecap="round" stroke-linejoin="round" stroke-width="1.1756644353939654"/>
    </g>
    <radialGradient cx="0" cy="0" fx="3.2" fy="0" gradientTransform="matrix(0.0082, 0.0, 0.0, 0.0082, 2.65, 2.65)" gradientUnits="userSpaceOnUse" id="gradient8" r="819.2" spreadMethod="pad">
      <stop offset="0.0" stop-color="#72e2ff"/>
      <stop offset="1.0" stop-color="#72e2ff" stop-opacity="0.0"/>
    </radialGradient>
    <radialGradient cx="0" cy="0" fx="3.2" fy="0" gradientTransform="matrix(0.0082, 0.0, 0.0, 0.0082, 2.65, 2.65)" gradientUnits="userSpaceOnUse" id="gradient9" r="819.2" spreadMethod="pad">
      <stop offset="0.0" stop-color="#72e2ff"/>
      <stop offset="1.0" stop-color="#72e2ff" stop-opacity="0.0"/>
    </radialGradient>
    <g id="sprite5" transform="matrix(1.0, 0.0, 0.0, 1.0, 4.1, 4.1)">
      <use ffdec:characterId="381" height="13.5" transform="matrix(1.0, 0.0, 0.0, 1.0, -4.1, -4.1)" width="13.5" xlink:href="#shape5"/>
    </g>
    <g id="shape5" transform="matrix(1.0, 0.0, 0.0, 1.0, 4.1, 4.1)">
      <path d="M2.6 2.7 L8.9 2.7" ffdec:has-small-stroke="true" ffdec:original-stroke-width="1.0" fill="none" stroke="url(#gradient10)" stroke-linecap="round" stroke-linejoin="round" stroke-width="1.1756644353939654"/>
      <path d="M2.6 2.7 L2.6 8.9 M2.6 -3.6 L2.6 2.7 -3.6 2.7" ffdec:has-small-stroke="true" ffdec:original-stroke-width="1.0" fill="none" stroke="url(#gradient11)" stroke-linecap="round" stroke-linejoin="round" stroke-width="1.1756644353939654"/>
    </g>
    <radialGradient cx="0" cy="0" fx="3.2" fy="0" gradientTransform="matrix(0.0082, 0.0, 0.0, 0.0082, 2.65, 2.65)" gradientUnits="userSpaceOnUse" id="gradient10" r="819.2" spreadMethod="pad">
      <stop offset="0.0" stop-color="#72e2ff"/>
      <stop offset="1.0" stop-color="#72e2ff" stop-opacity="0.0"/>
    </radialGradient>
    <radialGradient cx="0" cy="0" fx="3.2" fy="0" gradientTransform="matrix(0.0082, 0.0, 0.0, 0.0082, 2.65, 2.65)" gradientUnits="userSpaceOnUse" id="gradient11" r="819.2" spreadMethod="pad">
      <stop offset="0.0" stop-color="#72e2ff"/>
      <stop offset="1.0" stop-color="#72e2ff" stop-opacity="0.0"/>
    </radialGradient>
    <g id="sprite6" transform="matrix(1.0, 0.0, 0.0, 1.0, 4.1, 4.1)">
      <use ffdec:characterId="381" height="13.5" transform="matrix(1.0, 0.0, 0.0, 1.0, -4.1, -4.1)" width="13.5" xlink:href="#shape6"/>
    </g>
    <g id="shape6" transform="matrix(1.0, 0.0, 0.0, 1.0, 4.1, 4.1)">
      <path d="M2.6 2.7 L8.9 2.7" ffdec:has-small-stroke="true" ffdec:original-stroke-width="1.0" fill="none" stroke="url(#gradient12)" stroke-linecap="round" stroke-linejoin="round" stroke-width="1.1756644353939654"/>
      <path d="M2.6 2.7 L2.6 8.9 M2.6 -3.6 L2.6 2.7 -3.6 2.7" ffdec:has-small-stroke="true" ffdec:original-stroke-width="1.0" fill="none" stroke="url(#gradient13)" stroke-linecap="round" stroke-linejoin="round" stroke-width="1.1756644353939654"/>
    </g>
    <radialGradient cx="0" cy="0" fx="3.2" fy="0" gradientTransform="matrix(0.0082, 0.0, 0.0, 0.0082, 2.65, 2.65)" gradientUnits="userSpaceOnUse" id="gradient12" r="819.2" spreadMethod="pad">
      <stop offset="0.0" stop-color="#72e2ff"/>
      <stop offset="1.0" stop-color="#72e2ff" stop-opacity="0.0"/>
    </radialGradient>
    <radialGradient cx="0" cy="0" fx="3.2" fy="0" gradientTransform="matrix(0.0082, 0.0, 0.0, 0.0082, 2.65, 2.65)" gradientUnits="userSpaceOnUse" id="gradient13" r="819.2" spreadMethod="pad">
      <stop offset="0.0" stop-color="#72e2ff"/>
      <stop offset="1.0" stop-color="#72e2ff" stop-opacity="0.0"/>
    </radialGradient>
    <g id="sprite7" transform="matrix(1.0, 0.0, 0.0, 1.0, 4.1, 4.1)">
      <use ffdec:characterId="381" height="13.5" transform="matrix(1.0, 0.0, 0.0, 1.0, -4.1, -4.1)" width="13.5" xlink:href="#shape7"/>
    </g>
    <g id="shape7" transform="matrix(1.0, 0.0, 0.0, 1.0, 4.1, 4.1)">
      <path d="M2.6 2.7 L8.9 2.7" ffdec:has-small-stroke="true" ffdec:original-stroke-width="1.0" fill="none" stroke="url(#gradient14)" stroke-linecap="round" stroke-linejoin="round" stroke-width="1.1756644353939654"/>
      <path d="M2.6 2.7 L2.6 8.9 M2.6 -3.6 L2.6 2.7 -3.6 2.7" ffdec:has-small-stroke="true" ffdec:original-stroke-width="1.0" fill="none" stroke="url(#gradient15)" stroke-linecap="round" stroke-linejoin="round" stroke-width="1.1756644353939654"/>
    </g>
    <radialGradient cx="0" cy="0" fx="3.2" fy="0" gradientTransform="matrix(0.0082, 0.0, 0.0, 0.0082, 2.65, 2.65)" gradientUnits="userSpaceOnUse" id="gradient14" r="819.2" spreadMethod="pad">
      <stop offset="0.0" stop-color="#72e2ff"/>
      <stop offset="1.0" stop-color="#72e2ff" stop-opacity="0.0"/>
    </radialGradient>
    <radialGradient cx="0" cy="0" fx="3.2" fy="0" gradientTransform="matrix(0.0082, 0.0, 0.0, 0.0082, 2.65, 2.65)" gradientUnits="userSpaceOnUse" id="gradient15" r="819.2" spreadMethod="pad">
      <stop offset="0.0" stop-color="#72e2ff"/>
      <stop offset="1.0" stop-color="#72e2ff" stop-opacity="0.0"/>
    </radialGradient>
    <g id="sprite8" transform="matrix(1.0, 0.0, 0.0, 1.0, 4.1, 4.1)">
      <use ffdec:characterId="381" height="13.5" transform="matrix(1.0, 0.0, 0.0, 1.0, -4.1, -4.1)" width="13.5" xlink:href="#shape8"/>
    </g>
    <g id="shape8" transform="matrix(1.0, 0.0, 0.0, 1.0, 4.1, 4.1)">
      <path d="M2.6 2.7 L8.9 2.7" ffdec:has-small-stroke="true" ffdec:original-stroke-width="1.0" fill="none" stroke="url(#gradient16)" stroke-linecap="round" stroke-linejoin="round" stroke-width="1.1756644353939654"/>
      <path d="M2.6 2.7 L2.6 8.9 M2.6 -3.6 L2.6 2.7 -3.6 2.7" ffdec:has-small-stroke="true" ffdec:original-stroke-width="1.0" fill="none" stroke="url(#gradient17)" stroke-linecap="round" stroke-linejoin="round" stroke-width="1.1756644353939654"/>
    </g>
    <radialGradient cx="0" cy="0" fx="3.2" fy="0" gradientTransform="matrix(0.0082, 0.0, 0.0, 0.0082, 2.65, 2.65)" gradientUnits="userSpaceOnUse" id="gradient16" r="819.2" spreadMethod="pad">
      <stop offset="0.0" stop-color="#72e2ff"/>
      <stop offset="1.0" stop-color="#72e2ff" stop-opacity="0.0"/>
    </radialGradient>
    <radialGradient cx="0" cy="0" fx="3.2" fy="0" gradientTransform="matrix(0.0082, 0.0, 0.0, 0.0082, 2.65, 2.65)" gradientUnits="userSpaceOnUse" id="gradient17" r="819.2" spreadMethod="pad">
      <stop offset="0.0" stop-color="#72e2ff"/>
      <stop offset="1.0" stop-color="#72e2ff" stop-opacity="0.0"/>
    </radialGradient>
    <g id="sprite9" transform="matrix(1.0, 0.0, 0.0, 1.0, 4.1, 4.1)">
      <use ffdec:characterId="381" height="13.5" transform="matrix(1.0, 0.0, 0.0, 1.0, -4.1, -4.1)" width="13.5" xlink:href="#shape9"/>
    </g>
    <g id="shape9" transform="matrix(1.0, 0.0, 0.0, 1.0, 4.1, 4.1)">
      <path d="M2.6 2.7 L8.9 2.7" ffdec:has-small-stroke="true" ffdec:original-stroke-width="1.0" fill="none" stroke="url(#gradient18)" stroke-linecap="round" stroke-linejoin="round" stroke-width="1.1756644353939654"/>
      <path d="M2.6 2.7 L2.6 8.9 M2.6 -3.6 L2.6 2.7 -3.6 2.7" ffdec:has-small-stroke="true" ffdec:original-stroke-width="1.0" fill="none" stroke="url(#gradient19)" stroke-linecap="round" stroke-linejoin="round" stroke-width="1.1756644353939654"/>
    </g>
    <radialGradient cx="0" cy="0" fx="3.2" fy="0" gradientTransform="matrix(0.0082, 0.0, 0.0, 0.0082, 2.65, 2.65)" gradientUnits="userSpaceOnUse" id="gradient18" r="819.2" spreadMethod="pad">
      <stop offset="0.0" stop-color="#72e2ff"/>
      <stop offset="1.0" stop-color="#72e2ff" stop-opacity="0.0"/>
    </radialGradient>
    <radialGradient cx="0" cy="0" fx="3.2" fy="0" gradientTransform="matrix(0.0082, 0.0, 0.0, 0.0082, 2.65, 2.65)" gradientUnits="userSpaceOnUse" id="gradient19" r="819.2" spreadMethod="pad">
      <stop offset="0.0" stop-color="#72e2ff"/>
      <stop offset="1.0" stop-color="#72e2ff" stop-opacity="0.0"/>
    </radialGradient>
    <g id="sprite10" transform="matrix(1.0, 0.0, 0.0, 1.0, 4.1, 4.1)">
      <use ffdec:characterId="381" height="13.5" transform="matrix(1.0, 0.0, 0.0, 1.0, -4.1, -4.1)" width="13.5" xlink:href="#shape10"/>
    </g>
    <g id="shape10" transform="matrix(1.0, 0.0, 0.0, 1.0, 4.1, 4.1)">
      <path d="M2.6 2.7 L8.9 2.7" ffdec:has-small-stroke="true" ffdec:original-stroke-width="1.0" fill="none" stroke="url(#gradient20)" stroke-linecap="round" stroke-linejoin="round" stroke-width="1.1756644353939654"/>
      <path d="M2.6 2.7 L2.6 8.9 M2.6 -3.6 L2.6 2.7 -3.6 2.7" ffdec:has-small-stroke="true" ffdec:original-stroke-width="1.0" fill="none" stroke="url(#gradient21)" stroke-linecap="round" stroke-linejoin="round" stroke-width="1.1756644353939654"/>
    </g>
    <radialGradient cx="0" cy="0" fx="3.2" fy="0" gradientTransform="matrix(0.0082, 0.0, 0.0, 0.0082, 2.65, 2.65)" gradientUnits="userSpaceOnUse" id="gradient20" r="819.2" spreadMethod="pad">
      <stop offset="0.0" stop-color="#72e2ff"/>
      <stop offset="1.0" stop-color="#72e2ff" stop-opacity="0.0"/>
    </radialGradient>
    <radialGradient cx="0" cy="0" fx="3.2" fy="0" gradientTransform="matrix(0.0082, 0.0, 0.0, 0.0082, 2.65, 2.65)" gradientUnits="userSpaceOnUse" id="gradient21" r="819.2" spreadMethod="pad">
      <stop offset="0.0" stop-color="#72e2ff"/>
      <stop offset="1.0" stop-color="#72e2ff" stop-opacity="0.0"/>
    </radialGradient>
    <g id="sprite11" transform="matrix(1.0, 0.0, 0.0, 1.0, 4.1, 4.1)">
      <use ffdec:characterId="381" height="13.5" transform="matrix(1.0, 0.0, 0.0, 1.0, -4.1, -4.1)" width="13.5" xlink:href="#shape11"/>
    </g>
    <g id="shape11" transform="matrix(1.0, 0.0, 0.0, 1.0, 4.1, 4.1)">
      <path d="M2.6 2.7 L8.9 2.7" ffdec:has-small-stroke="true" ffdec:original-stroke-width="1.0" fill="none" stroke="url(#gradient22)" stroke-linecap="round" stroke-linejoin="round" stroke-width="1.1756644353939654"/>
      <path d="M2.6 2.7 L2.6 8.9 M2.6 -3.6 L2.6 2.7 -3.6 2.7" ffdec:has-small-stroke="true" ffdec:original-stroke-width="1.0" fill="none" stroke="url(#gradient23)" stroke-linecap="round" stroke-linejoin="round" stroke-width="1.1756644353939654"/>
    </g>
    <radialGradient cx="0" cy="0" fx="3.2" fy="0" gradientTransform="matrix(0.0082, 0.0, 0.0, 0.0082, 2.65, 2.65)" gradientUnits="userSpaceOnUse" id="gradient22" r="819.2" spreadMethod="pad">
      <stop offset="0.0" stop-color="#72e2ff"/>
      <stop offset="1.0" stop-color="#72e2ff" stop-opacity="0.0"/>
    </radialGradient>
    <radialGradient cx="0" cy="0" fx="3.2" fy="0" gradientTransform="matrix(0.0082, 0.0, 0.0, 0.0082, 2.65, 2.65)" gradientUnits="userSpaceOnUse" id="gradient23" r="819.2" spreadMethod="pad">
      <stop offset="0.0" stop-color="#72e2ff"/>
      <stop offset="1.0" stop-color="#72e2ff" stop-opacity="0.0"/>
    </radialGradient>
    <g id="sprite12" transform="matrix(1.0, 0.0, 0.0, 1.0, 4.1, 4.1)">
      <use ffdec:characterId="381" height="13.5" transform="matrix(1.0, 0.0, 0.0, 1.0, -4.1, -4.1)" width="13.5" xlink:href="#shape12"/>
    </g>
    <g id="shape12" transform="matrix(1.0, 0.0, 0.0, 1.0, 4.1, 4.1)">
      <path d="M2.6 2.7 L8.9 2.7" ffdec:has-small-stroke="true" ffdec:original-stroke-width="1.0" fill="none" stroke="url(#gradient24)" stroke-linecap="round" stroke-linejoin="round" stroke-width="1.1756644353939654"/>
      <path d="M2.6 2.7 L2.6 8.9 M2.6 -3.6 L2.6 2.7 -3.6 2.7" ffdec:has-small-stroke="true" ffdec:original-stroke-width="1.0" fill="none" stroke="url(#gradient25)" stroke-linecap="round" stroke-linejoin="round" stroke-width="1.1756644353939654"/>
    </g>
    <radialGradient cx="0" cy="0" fx="3.2" fy="0" gradientTransform="matrix(0.0082, 0.0, 0.0, 0.0082, 2.65, 2.65)" gradientUnits="userSpaceOnUse" id="gradient24" r="819.2" spreadMethod="pad">
      <stop offset="0.0" stop-color="#72e2ff"/>
      <stop offset="1.0" stop-color="#72e2ff" stop-opacity="0.0"/>
    </radialGradient>
    <radialGradient cx="0" cy="0" fx="3.2" fy="0" gradientTransform="matrix(0.0082, 0.0, 0.0, 0.0082, 2.65, 2.65)" gradientUnits="userSpaceOnUse" id="gradient25" r="819.2" spreadMethod="pad">
      <stop offset="0.0" stop-color="#72e2ff"/>
      <stop offset="1.0" stop-color="#72e2ff" stop-opacity="0.0"/>
    </radialGradient>
    <g id="sprite13" transform="matrix(1.0, 0.0, 0.0, 1.0, 4.1, 4.1)">
      <use ffdec:characterId="381" height="13.5" transform="matrix(1.0, 0.0, 0.0, 1.0, -4.1, -4.1)" width="13.5" xlink:href="#shape13"/>
    </g>
    <g id="shape13" transform="matrix(1.0, 0.0, 0.0, 1.0, 4.1, 4.1)">
      <path d="M2.6 2.7 L8.9 2.7" ffdec:has-small-stroke="true" ffdec:original-stroke-width="1.0" fill="none" stroke="url(#gradient26)" stroke-linecap="round" stroke-linejoin="round" stroke-width="1.1756644353939654"/>
      <path d="M2.6 2.7 L2.6 8.9 M2.6 -3.6 L2.6 2.7 -3.6 2.7" ffdec:has-small-stroke="true" ffdec:original-stroke-width="1.0" fill="none" stroke="url(#gradient27)" stroke-linecap="round" stroke-linejoin="round" stroke-width="1.1756644353939654"/>
    </g>
    <radialGradient cx="0" cy="0" fx="3.2" fy="0" gradientTransform="matrix(0.0082, 0.0, 0.0, 0.0082, 2.65, 2.65)" gradientUnits="userSpaceOnUse" id="gradient26" r="819.2" spreadMethod="pad">
      <stop offset="0.0" stop-color="#72e2ff"/>
      <stop offset="1.0" stop-color="#72e2ff" stop-opacity="0.0"/>
    </radialGradient>
    <radialGradient cx="0" cy="0" fx="3.2" fy="0" gradientTransform="matrix(0.0082, 0.0, 0.0, 0.0082, 2.65, 2.65)" gradientUnits="userSpaceOnUse" id="gradient27" r="819.2" spreadMethod="pad">
      <stop offset="0.0" stop-color="#72e2ff"/>
      <stop offset="1.0" stop-color="#72e2ff" stop-opacity="0.0"/>
    </radialGradient>
    <g id="sprite14" transform="matrix(1.0, 0.0, 0.0, 1.0, 4.1, 4.1)">
      <use ffdec:characterId="381" height="13.5" transform="matrix(1.0, 0.0, 0.0, 1.0, -4.1, -4.1)" width="13.5" xlink:href="#shape14"/>
    </g>
    <g id="shape14" transform="matrix(1.0, 0.0, 0.0, 1.0, 4.1, 4.1)">
      <path d="M2.6 2.7 L8.9 2.7" ffdec:has-small-stroke="true" ffdec:original-stroke-width="1.0" fill="none" stroke="url(#gradient28)" stroke-linecap="round" stroke-linejoin="round" stroke-width="1.1756644353939654"/>
      <path d="M2.6 2.7 L2.6 8.9 M2.6 -3.6 L2.6 2.7 -3.6 2.7" ffdec:has-small-stroke="true" ffdec:original-stroke-width="1.0" fill="none" stroke="url(#gradient29)" stroke-linecap="round" stroke-linejoin="round" stroke-width="1.1756644353939654"/>
    </g>
    <radialGradient cx="0" cy="0" fx="3.2" fy="0" gradientTransform="matrix(0.0082, 0.0, 0.0, 0.0082, 2.65, 2.65)" gradientUnits="userSpaceOnUse" id="gradient28" r="819.2" spreadMethod="pad">
      <stop offset="0.0" stop-color="#72e2ff"/>
      <stop offset="1.0" stop-color="#72e2ff" stop-opacity="0.0"/>
    </radialGradient>
    <radialGradient cx="0" cy="0" fx="3.2" fy="0" gradientTransform="matrix(0.0082, 0.0, 0.0, 0.0082, 2.65, 2.65)" gradientUnits="userSpaceOnUse" id="gradient29" r="819.2" spreadMethod="pad">
      <stop offset="0.0" stop-color="#72e2ff"/>
      <stop offset="1.0" stop-color="#72e2ff" stop-opacity="0.0"/>
    </radialGradient>
    <g id="sprite15" transform="matrix(1.0, 0.0, 0.0, 1.0, 4.1, 4.1)">
      <use ffdec:characterId="381" height="13.5" transform="matrix(1.0, 0.0, 0.0, 1.0, -4.1, -4.1)" width="13.5" xlink:href="#shape15"/>
    </g>
    <g id="shape15" transform="matrix(1.0, 0.0, 0.0, 1.0, 4.1, 4.1)">
      <path d="M2.6 2.7 L8.9 2.7" ffdec:has-small-stroke="true" ffdec:original-stroke-width="1.0" fill="none" stroke="url(#gradient30)" stroke-linecap="round" stroke-linejoin="round" stroke-width="1.1756644353939654"/>
      <path d="M2.6 2.7 L2.6 8.9 M2.6 -3.6 L2.6 2.7 -3.6 2.7" ffdec:has-small-stroke="true" ffdec:original-stroke-width="1.0" fill="none" stroke="url(#gradient31)" stroke-linecap="round" stroke-linejoin="round" stroke-width="1.1756644353939654"/>
    </g>
    <radialGradient cx="0" cy="0" fx="3.2" fy="0" gradientTransform="matrix(0.0082, 0.0, 0.0, 0.0082, 2.65, 2.65)" gradientUnits="userSpaceOnUse" id="gradient30" r="819.2" spreadMethod="pad">
      <stop offset="0.0" stop-color="#72e2ff"/>
      <stop offset="1.0" stop-color="#72e2ff" stop-opacity="0.0"/>
    </radialGradient>
    <radialGradient cx="0" cy="0" fx="3.2" fy="0" gradientTransform="matrix(0.0082, 0.0, 0.0, 0.0082, 2.65, 2.65)" gradientUnits="userSpaceOnUse" id="gradient31" r="819.2" spreadMethod="pad">
      <stop offset="0.0" stop-color="#72e2ff"/>
      <stop offset="1.0" stop-color="#72e2ff" stop-opacity="0.0"/>
    </radialGradient>
    <g id="sprite16" transform="matrix(1.0, 0.0, 0.0, 1.0, 4.1, 4.1)">
      <use ffdec:characterId="381" height="13.5" transform="matrix(1.0, 0.0, 0.0, 1.0, -4.1, -4.1)" width="13.5" xlink:href="#shape16"/>
    </g>
    <g id="shape16" transform="matrix(1.0, 0.0, 0.0, 1.0, 4.1, 4.1)">
      <path d="M2.6 2.7 L8.9 2.7" ffdec:has-small-stroke="true" ffdec:original-stroke-width="1.0" fill="none" stroke="url(#gradient32)" stroke-linecap="round" stroke-linejoin="round" stroke-width="1.1756644353939654"/>
      <path d="M2.6 2.7 L2.6 8.9 M2.6 -3.6 L2.6 2.7 -3.6 2.7" ffdec:has-small-stroke="true" ffdec:original-stroke-width="1.0" fill="none" stroke="url(#gradient33)" stroke-linecap="round" stroke-linejoin="round" stroke-width="1.1756644353939654"/>
    </g>
    <radialGradient cx="0" cy="0" fx="3.2" fy="0" gradientTransform="matrix(0.0082, 0.0, 0.0, 0.0082, 2.65, 2.65)" gradientUnits="userSpaceOnUse" id="gradient32" r="819.2" spreadMethod="pad">
      <stop offset="0.0" stop-color="#72e2ff"/>
      <stop offset="1.0" stop-color="#72e2ff" stop-opacity="0.0"/>
    </radialGradient>
    <radialGradient cx="0" cy="0" fx="3.2" fy="0" gradientTransform="matrix(0.0082, 0.0, 0.0, 0.0082, 2.65, 2.65)" gradientUnits="userSpaceOnUse" id="gradient33" r="819.2" spreadMethod="pad">
      <stop offset="0.0" stop-color="#72e2ff"/>
      <stop offset="1.0" stop-color="#72e2ff" stop-opacity="0.0"/>
    </radialGradient>
    <g id="sprite17" transform="matrix(1.0, 0.0, 0.0, 1.0, 4.1, 4.1)">
      <use ffdec:characterId="381" height="13.5" transform="matrix(1.0, 0.0, 0.0, 1.0, -4.1, -4.1)" width="13.5" xlink:href="#shape17"/>
    </g>
    <g id="shape17" transform="matrix(1.0, 0.0, 0.0, 1.0, 4.1, 4.1)">
      <path d="M2.6 2.7 L8.9 2.7" ffdec:has-small-stroke="true" ffdec:original-stroke-width="1.0" fill="none" stroke="url(#gradient34)" stroke-linecap="round" stroke-linejoin="round" stroke-width="1.1756644353939654"/>
      <path d="M2.6 2.7 L2.6 8.9 M2.6 -3.6 L2.6 2.7 -3.6 2.7" ffdec:has-small-stroke="true" ffdec:original-stroke-width="1.0" fill="none" stroke="url(#gradient35)" stroke-linecap="round" stroke-linejoin="round" stroke-width="1.1756644353939654"/>
    </g>
    <radialGradient cx="0" cy="0" fx="3.2" fy="0" gradientTransform="matrix(0.0082, 0.0, 0.0, 0.0082, 2.65, 2.65)" gradientUnits="userSpaceOnUse" id="gradient34" r="819.2" spreadMethod="pad">
      <stop offset="0.0" stop-color="#72e2ff"/>
      <stop offset="1.0" stop-color="#72e2ff" stop-opacity="0.0"/>
    </radialGradient>
    <radialGradient cx="0" cy="0" fx="3.2" fy="0" gradientTransform="matrix(0.0082, 0.0, 0.0, 0.0082, 2.65, 2.65)" gradientUnits="userSpaceOnUse" id="gradient35" r="819.2" spreadMethod="pad">
      <stop offset="0.0" stop-color="#72e2ff"/>
      <stop offset="1.0" stop-color="#72e2ff" stop-opacity="0.0"/>
    </radialGradient>
    <g id="sprite18" transform="matrix(1.0, 0.0, 0.0, 1.0, -3.75, 0.0)">
      <use ffdec:characterId="778" height="39.7" transform="matrix(1.0, 0.0, 0.0, 1.0, 3.75, 0.0)" width="35.2" xlink:href="#shape18"/>
    </g>
    <g id="shape18" transform="matrix(1.0, 0.0, 0.0, 1.0, -3.75, 0.0)">
      <path d="M10.4 5.25 L11.3 0.0 Q19.4 0.5 30.6 0.55 L38.95 38.85 24.65 39.7 23.75 30.8 18.2 31.25 16.8 38.35 3.75 37.35 5.6 29.45 Q8.3 17.25 10.4 5.25 M22.6 23.15 L20.85 11.1 19.15 23.5 22.6 23.15" fill="url(#gradient36)" fill-rule="evenodd" stroke="none"/>
    </g>
    <linearGradient gradientTransform="matrix(0.0, 0.0231, -0.024, 0.0, 142.65, 19.8)" gradientUnits="userSpaceOnUse" id="gradient36" spreadMethod="pad" x1="-819.2" x2="819.2">
      <stop offset="0.0" stop-color="#ff452e"/>
      <stop offset="1.0" stop-color="#e00a0a"/>
    </linearGradient>
    <g id="sprite19" transform="matrix(1.0, 0.0, 0.0, 1.0, -3.75, 0.0)">
      <use ffdec:characterId="780" height="40.35" transform="matrix(1.0, 0.0, 0.0, 1.0, 3.75, 0.0)" width="30.8" xlink:href="#shape19"/>
    </g>
    <g id="shape19" transform="matrix(1.0, 0.0, 0.0, 1.0, -3.75, 0.0)">
      <path d="M21.45 0.9 L34.55 0.0 Q34.2 12.5 34.25 24.85 L34.4 40.35 21.4 40.3 21.7 28.1 16.85 28.9 16.85 38.1 4.1 38.7 4.2 25.45 3.95 7.85 3.75 2.6 16.4 3.0 16.7 19.45 21.5 18.55 21.45 0.9" fill="url(#gradient37)" fill-rule="evenodd" stroke="none"/>
    </g>
    <linearGradient gradientTransform="matrix(0.0, 0.0231, -0.024, 0.0, -129.55, 20.85)" gradientUnits="userSpaceOnUse" id="gradient37" spreadMethod="pad" x1="-819.2" x2="819.2">
      <stop offset="0.0" stop-color="#ff452e"/>
      <stop offset="1.0" stop-color="#e00a0a"/>
    </linearGradient>
    <g id="sprite20" transform="matrix(1.0, 0.0, 0.0, 1.0, -1.8, -2.9)">
      <use ffdec:characterId="782" height="35.9" transform="matrix(1.0, 0.0, 0.0, 1.0, 1.8, 2.9)" width="13.75" xlink:href="#shape20"/>
    </g>
    <g id="shape20" transform="matrix(1.0, 0.0, 0.0, 1.0, -1.8, -2.9)">
      <path d="M13.0 14.8 Q14.7 20.75 14.55 27.35 14.35 34.2 10.55 36.85 6.4 39.85 3.8 33.55 2.05 29.25 3.35 24.35 4.95 18.45 7.25 13.25 9.05 9.05 8.7 3.9 11.3 8.9 13.0 14.8" fill="url(#gradient38)" fill-rule="evenodd" stroke="none"/>
      <path d="M13.0 14.8 Q14.7 20.75 14.55 27.35 14.35 34.2 10.55 36.85 6.4 39.85 3.8 33.55 2.05 29.25 3.35 24.35 4.95 18.45 7.25 13.25 9.05 9.05 8.7 3.9 11.3 8.9 13.0 14.8 Z" fill="none" stroke="#00b0ff" stroke-linecap="round" stroke-linejoin="round" stroke-opacity="0.7490196" stroke-width="2.0"/>
      <path d="M6.7 19.2 Q7.5 18.35 8.1 18.7 8.7 19.05 8.7 20.8 L8.2 25.05 Q7.45 29.2 6.1 29.2 5.25 29.2 4.9 27.35 L4.65 25.2 Q4.65 21.35 6.7 19.2" fill="#ffffff" fill-opacity="0.7882353" fill-rule="evenodd" stroke="none"/>
      <path d="M12.25 21.2 Q12.3 18.25 11.7 15.95 13.2 20.1 13.3 26.35 13.45 32.55 10.0 35.5 6.5 38.45 5.45 33.8 5.8 34.25 8.05 32.75 10.3 31.25 11.2 27.7 12.15 24.2 12.25 21.2" fill="#00386b" fill-opacity="0.14117648" fill-rule="evenodd" stroke="none"/>
    </g>
    <radialGradient cx="0" cy="0" gradientTransform="matrix(0.0105, 0.0, 0.0, 0.0272, 9.2, 17.45)" gradientUnits="userSpaceOnUse" id="gradient38" r="819.2" spreadMethod="pad">
      <stop offset="0.10588235294117647" stop-color="#ffffff"/>
      <stop offset="0.8901960784313725" stop-color="#1fd9ed"/>
    </radialGradient>
    <g id="sprite21" transform="matrix(1.0, 0.0, 0.0, 1.0, -1.8, -2.9)">
      <use ffdec:characterId="782" height="35.9" transform="matrix(1.0, 0.0, 0.0, 1.0, 1.8, 2.9)" width="13.75" xlink:href="#shape21"/>
    </g>
    <g id="shape21" transform="matrix(1.0, 0.0, 0.0, 1.0, -1.8, -2.9)">
      <path d="M13.0 14.8 Q14.7 20.75 14.55 27.35 14.35 34.2 10.55 36.85 6.4 39.85 3.8 33.55 2.05 29.25 3.35 24.35 4.95 18.45 7.25 13.25 9.05 9.05 8.7 3.9 11.3 8.9 13.0 14.8" fill="url(#gradient39)" fill-rule="evenodd" stroke="none"/>
      <path d="M13.0 14.8 Q14.7 20.75 14.55 27.35 14.35 34.2 10.55 36.85 6.4 39.85 3.8 33.55 2.05 29.25 3.35 24.35 4.95 18.45 7.25 13.25 9.05 9.05 8.7 3.9 11.3 8.9 13.0 14.8 Z" ffdec:has-small-stroke="true" ffdec:original-stroke-width="2.0" fill="none" stroke="#00b0ff" stroke-linecap="round" stroke-linejoin="round" stroke-opacity="0.7490196" stroke-width="2.2307933175860533"/>
      <path d="M6.7 19.2 Q7.5 18.35 8.1 18.7 8.7 19.05 8.7 20.8 L8.2 25.05 Q7.45 29.2 6.1 29.2 5.25 29.2 4.9 27.35 L4.65 25.2 Q4.65 21.35 6.7 19.2" fill="#ffffff" fill-opacity="0.7882353" fill-rule="evenodd" stroke="none"/>
      <path d="M12.25 21.2 Q12.3 18.25 11.7 15.95 13.2 20.1 13.3 26.35 13.45 32.55 10.0 35.5 6.5 38.45 5.45 33.8 5.8 34.25 8.05 32.75 10.3 31.25 11.2 27.7 12.15 24.2 12.25 21.2" fill="#00386b" fill-opacity="0.14117648" fill-rule="evenodd" stroke="none"/>
    </g>
    <radialGradient cx="0" cy="0" gradientTransform="matrix(0.0105, 0.0, 0.0, 0.0272, 9.2, 17.45)" gradientUnits="userSpaceOnUse" id="gradient39" r="819.2" spreadMethod="pad">
      <stop offset="0.10588235294117647" stop-color="#ffffff"/>
      <stop offset="0.8901960784313725" stop-color="#1fd9ed"/>
    </radialGradient>
    <g id="shape22" transform="matrix(1.0, 0.0, 0.0, 1.0, 3.2, 1.2)">
      <path d="M-0.65 3.9 L-0.7 3.8 -0.65 3.85 -0.65 3.9 M74.0 31.3 L74.2 31.4 73.3 33.0 Q70.6 34.3 68.5 33.55 L54.4 26.55 Q48.45 24.55 41.85 23.65 48.5 24.35 54.5 26.25 L68.75 33.05 Q70.8 33.75 73.45 32.35 L74.0 31.3 M3.3 21.05 L3.25 21.05 3.3 21.05" fill="#1f2f32" fill-rule="evenodd" stroke="none"/>
      <path d="M73.65 31.4 L54.15 21.25 Q48.5 18.65 43.15 16.65 L36.45 14.2 Q29.45 11.65 23.55 11.15 L8.7 9.8 Q2.35 9.7 -0.65 3.85 1.15 1.2 5.65 0.25 8.0 -0.1 11.55 0.15 22.6 0.85 38.9 7.45 47.35 10.95 55.3 15.25 62.5 19.05 69.35 23.6 72.9 25.9 74.0 27.75 75.0 29.15 74.3 30.75 L74.0 31.3 73.75 31.15 73.7 31.25 73.65 31.4" fill="#5b6e7d" fill-rule="evenodd" stroke="none"/>
      <path d="M-0.65 3.85 Q2.35 9.7 8.7 9.8 L23.55 11.15 Q29.45 11.65 36.45 14.2 L43.15 16.65 Q48.5 18.65 54.15 21.25 L73.65 31.4 73.7 31.25 73.75 31.15 74.0 31.3 73.45 32.35 Q70.8 33.75 68.75 33.05 L54.5 26.25 Q48.5 24.35 41.85 23.65 L32.65 23.15 17.6 24.2 Q16.8 24.35 15.95 24.7 8.75 25.1 5.3 22.75 L4.4 22.05 3.4 21.15 3.3 21.1 3.3 21.05 3.25 21.05 Q0.95 18.65 -0.45 15.0 L-0.5 14.8 -0.55 14.7 Q-3.25 7.65 -0.65 3.9 L-0.65 3.85" fill="#343541" fill-rule="evenodd" stroke="none"/>
      <path d="M-0.65 3.9 L-0.65 3.85 M41.85 23.65 L32.65 23.15 M3.3 21.05 L3.25 21.05 M-0.45 15.0 L-0.55 14.7" fill="none" stroke="#1f2f32" stroke-linecap="round" stroke-linejoin="round" stroke-width="2.5"/>
      <path d="M74.0 31.3 L74.3 30.75 Q75.0 29.15 74.0 27.75 72.9 25.9 69.35 23.6 62.5 19.05 55.3 15.25 47.35 10.95 38.9 7.45 22.6 0.85 11.55 0.15 8.0 -0.1 5.65 0.25 1.15 1.2 -0.65 3.85 M32.65 23.15 L17.65 24.55 15.95 24.7 Q8.75 25.1 5.3 22.75 L4.4 22.05 3.4 21.15 3.3 21.1 3.3 21.05 3.25 21.05 Q0.95 18.65 -0.45 15.0 M-0.55 14.7 Q-3.25 7.65 -0.65 3.9 M41.85 23.65 Q48.5 24.35 54.5 26.25 L68.75 33.05 Q70.8 33.75 73.45 32.35 L74.0 31.3" fill="none" stroke="#323232" stroke-linecap="round" stroke-linejoin="round" stroke-width="2.5"/>
    </g>
    <g id="shape23" transform="matrix(1.0, 0.0, 0.0, 1.0, 5.8, 11.25)">
      <path d="M1.7 -1.3 Q2.2 -5.2 6.25 -5.35 9.25 -4.75 9.9 -1.6 10.2 0.55 9.1 1.9 L10.2 2.5 Q11.25 3.2 11.1 4.5 L10.65 5.65 Q12.95 4.05 15.85 3.8 18.2 4.0 19.0 6.4 19.95 9.15 17.75 11.05 14.5 13.95 11.05 11.4 8.9 9.7 9.55 7.25 L9.75 6.6 7.3 6.5 Q6.55 6.25 6.25 5.35 5.85 4.55 5.9 3.95 L4.85 3.85 Q1.05 2.7 1.7 -1.3" fill="#5b6e7d" fill-rule="evenodd" stroke="none"/>
      <path d="M13.5 -4.7 Q13.9 -1.7 18.2 0.65 32.1 9.0 21.7 18.6 8.9 24.15 0.35 11.0 -8.25 -2.15 -1.75 -6.7 4.7 -11.3 8.9 -9.5 13.05 -7.75 13.5 -4.7 M1.7 -1.3 Q1.05 2.7 4.85 3.85 L5.9 3.95 Q5.85 4.55 6.25 5.35 6.55 6.25 7.3 6.5 L9.75 6.6 9.55 7.25 Q8.9 9.7 11.05 11.4 14.5 13.95 17.75 11.05 19.95 9.15 19.0 6.4 18.2 4.0 15.85 3.8 12.95 4.05 10.65 5.65 L11.1 4.5 Q11.25 3.2 10.2 2.5 L9.1 1.9 Q10.2 0.55 9.9 -1.6 9.25 -4.75 6.25 -5.35 2.2 -5.2 1.7 -1.3" fill="#343541" fill-rule="evenodd" stroke="none"/>
      <path d="M13.5 -4.7 Q13.9 -1.7 18.2 0.65 32.1 9.0 21.7 18.6 8.9 24.15 0.35 11.0 -8.25 -2.15 -1.75 -6.7 4.7 -11.3 8.9 -9.5 13.05 -7.75 13.5 -4.7 Z" ffdec:has-small-stroke="true" ffdec:original-stroke-width="2.5" fill="none" stroke="#323232" stroke-linecap="round" stroke-linejoin="round" stroke-width="2.5534533613754284"/>
    </g>
    <g id="shape24" transform="matrix(1.0, 0.0, 0.0, 1.0, 5.8, 11.25)">
      <path d="M1.7 -1.3 Q2.2 -5.2 6.25 -5.35 9.25 -4.75 9.9 -1.6 10.2 0.55 9.1 1.9 L10.2 2.5 Q11.25 3.2 11.1 4.5 L10.65 5.65 Q12.95 4.05 15.85 3.8 18.2 4.0 19.0 6.4 19.95 9.15 17.75 11.05 14.5 13.95 11.05 11.4 8.9 9.7 9.55 7.25 L9.75 6.6 7.3 6.5 Q6.55 6.25 6.25 5.35 5.85 4.55 5.9 3.95 L4.85 3.85 Q1.05 2.7 1.7 -1.3" fill="#5b6e7d" fill-rule="evenodd" stroke="none"/>
      <path d="M13.5 -4.7 Q13.9 -1.7 18.2 0.65 32.1 9.0 21.7 18.6 8.9 24.15 0.35 11.0 -8.25 -2.15 -1.75 -6.7 4.7 -11.3 8.9 -9.5 13.05 -7.75 13.5 -4.7 M1.7 -1.3 Q1.05 2.7 4.85 3.85 L5.9 3.95 Q5.85 4.55 6.25 5.35 6.55 6.25 7.3 6.5 L9.75 6.6 9.55 7.25 Q8.9 9.7 11.05 11.4 14.5 13.95 17.75 11.05 19.95 9.15 19.0 6.4 18.2 4.0 15.85 3.8 12.95 4.05 10.65 5.65 L11.1 4.5 Q11.25 3.2 10.2 2.5 L9.1 1.9 Q10.2 0.55 9.9 -1.6 9.25 -4.75 6.25 -5.35 2.2 -5.2 1.7 -1.3" fill="#343541" fill-rule="evenodd" stroke="none"/>
      <path d="M13.5 -4.7 Q13.9 -1.7 18.2 0.65 32.1 9.0 21.7 18.6 8.9 24.15 0.35 11.0 -8.25 -2.15 -1.75 -6.7 4.7 -11.3 8.9 -9.5 13.05 -7.75 13.5 -4.7 Z" ffdec:has-small-stroke="true" ffdec:original-stroke-width="2.5" fill="none" stroke="#323232" stroke-linecap="round" stroke-linejoin="round" stroke-width="2.6622654434313358"/>
    </g>
    <g id="shape25" transform="matrix(1.0, 0.0, 0.0, 1.0, 5.8, 11.25)">
      <path d="M1.7 -1.3 Q2.2 -5.2 6.25 -5.35 9.25 -4.75 9.9 -1.6 10.2 0.55 9.1 1.9 L10.2 2.5 Q11.25 3.2 11.1 4.5 L10.65 5.65 Q12.95 4.05 15.85 3.8 18.2 4.0 19.0 6.4 19.95 9.15 17.75 11.05 14.5 13.95 11.05 11.4 8.9 9.7 9.55 7.25 L9.75 6.6 7.3 6.5 Q6.55 6.25 6.25 5.35 5.85 4.55 5.9 3.95 L4.85 3.85 Q1.05 2.7 1.7 -1.3" fill="#5b6e7d" fill-rule="evenodd" stroke="none"/>
      <path d="M13.5 -4.7 Q13.9 -1.7 18.2 0.65 32.1 9.0 21.7 18.6 8.9 24.15 0.35 11.0 -8.25 -2.15 -1.75 -6.7 4.7 -11.3 8.9 -9.5 13.05 -7.75 13.5 -4.7 M1.7 -1.3 Q1.05 2.7 4.85 3.85 L5.9 3.95 Q5.85 4.55 6.25 5.35 6.55 6.25 7.3 6.5 L9.75 6.6 9.55 7.25 Q8.9 9.7 11.05 11.4 14.5 13.95 17.75 11.05 19.95 9.15 19.0 6.4 18.2 4.0 15.85 3.8 12.95 4.05 10.65 5.65 L11.1 4.5 Q11.25 3.2 10.2 2.5 L9.1 1.9 Q10.2 0.55 9.9 -1.6 9.25 -4.75 6.25 -5.35 2.2 -5.2 1.7 -1.3" fill="#343541" fill-rule="evenodd" stroke="none"/>
      <path d="M13.5 -4.7 Q13.9 -1.7 18.2 0.65 32.1 9.0 21.7 18.6 8.9 24.15 0.35 11.0 -8.25 -2.15 -1.75 -6.7 4.7 -11.3 8.9 -9.5 13.05 -7.75 13.5 -4.7 Z" ffdec:has-small-stroke="true" ffdec:original-stroke-width="2.5" fill="none" stroke="#323232" stroke-linecap="round" stroke-linejoin="round" stroke-width="2.743962195196523"/>
    </g>
    <g id="shape26" transform="matrix(1.0, 0.0, 0.0, 1.0, -2.9, -2.45)">
      <path d="M22.45 20.45 Q38.35 59.5 43.6 83.7 49.0 108.4 50.4 122.8 51.75 137.15 50.2 140.4 48.6 143.65 46.15 141.7 43.65 139.7 40.85 111.5 38.0 83.25 23.95 52.45 17.15 37.55 11.85 28.1 4.6 15.45 4.2 10.95 3.8 6.45 6.35 4.55 8.9 2.65 13.1 4.95 17.25 7.2 22.45 20.45" fill="#343541" fill-rule="evenodd" stroke="none"/>
      <path d="M22.45 20.45 Q38.35 59.5 43.6 83.7 49.0 108.4 50.4 122.8 51.75 137.15 50.2 140.4 48.6 143.65 46.15 141.7 43.65 139.7 40.85 111.5 38.0 83.25 23.95 52.45 17.15 37.55 11.85 28.1 4.6 15.45 4.2 10.95 3.8 6.45 6.35 4.55 8.9 2.65 13.1 4.95 17.25 7.2 22.45 20.45 Z" ffdec:has-small-stroke="true" ffdec:original-stroke-width="2.5" fill="none" stroke="#323232" stroke-linecap="round" stroke-linejoin="round" stroke-width="2.8824279340846695"/>
    </g>
    <g id="shape27" transform="matrix(1.0, 0.0, 0.0, 1.0, 5.8, 11.25)">
      <path d="M1.7 -1.3 Q2.2 -5.2 6.25 -5.35 9.25 -4.75 9.9 -1.6 10.2 0.55 9.1 1.9 L10.2 2.5 Q11.25 3.2 11.1 4.5 L10.65 5.65 Q12.95 4.05 15.85 3.8 18.2 4.0 19.0 6.4 19.95 9.15 17.75 11.05 14.5 13.95 11.05 11.4 8.9 9.7 9.55 7.25 L9.75 6.6 7.3 6.5 Q6.55 6.25 6.25 5.35 5.85 4.55 5.9 3.95 L4.85 3.85 Q1.05 2.7 1.7 -1.3" fill="#5b6e7d" fill-rule="evenodd" stroke="none"/>
      <path d="M13.5 -4.7 Q13.9 -1.7 18.2 0.65 32.1 9.0 21.7 18.6 8.9 24.15 0.35 11.0 -8.25 -2.15 -1.75 -6.7 4.7 -11.3 8.9 -9.5 13.05 -7.75 13.5 -4.7 M1.7 -1.3 Q1.05 2.7 4.85 3.85 L5.9 3.95 Q5.85 4.55 6.25 5.35 6.55 6.25 7.3 6.5 L9.75 6.6 9.55 7.25 Q8.9 9.7 11.05 11.4 14.5 13.95 17.75 11.05 19.95 9.15 19.0 6.4 18.2 4.0 15.85 3.8 12.95 4.05 10.65 5.65 L11.1 4.5 Q11.25 3.2 10.2 2.5 L9.1 1.9 Q10.2 0.55 9.9 -1.6 9.25 -4.75 6.25 -5.35 2.2 -5.2 1.7 -1.3" fill="#343541" fill-rule="evenodd" stroke="none"/>
      <path d="M13.5 -4.7 Q13.9 -1.7 18.2 0.65 32.1 9.0 21.7 18.6 8.9 24.15 0.35 11.0 -8.25 -2.15 -1.75 -6.7 4.7 -11.3 8.9 -9.5 13.05 -7.75 13.5 -4.7 Z" ffdec:has-small-stroke="true" ffdec:original-stroke-width="2.5" fill="none" stroke="#323232" stroke-linecap="round" stroke-linejoin="round" stroke-width="2.892232548847813"/>
    </g>
    <g id="shape28" transform="matrix(1.0, 0.0, 0.0, 1.0, 48.15, 41.65)">
      <path d="M32.2 -23.15 Q21.2 -30.45 4.2 -34.1 -12.85 -37.8 -25.9 -35.7 -38.95 -33.6 -40.35 -26.9 -41.8 -20.25 -30.8 -12.95 -19.8 -5.65 -2.75 -1.95 14.25 1.7 27.3 -0.4 40.3 -2.5 41.75 -9.15 43.2 -15.85 32.2 -23.15 M0.1 38.65 Q-16.5 48.55 -27.65 31.25 -44.0 -4.85 -46.8 -20.3 -49.65 -35.75 -33.85 -39.75 1.4 -44.1 29.8 -29.1 58.15 -14.15 46.05 0.3 29.5 20.1 0.1 38.65" fill="#bd3232" fill-rule="evenodd" stroke="none"/>
      <path d="M32.2 -23.15 Q43.2 -15.85 41.75 -9.15 40.3 -2.5 27.3 -0.4 14.25 1.7 -2.75 -1.95 -19.8 -5.65 -30.8 -12.95 -41.8 -20.25 -40.35 -26.9 -38.95 -33.6 -25.9 -35.7 -12.85 -37.8 4.2 -34.1 21.2 -30.45 32.2 -23.15" fill="#e63232" fill-rule="evenodd" stroke="none"/>
      <path d="M0.1 38.65 Q-16.5 48.55 -27.65 31.25 -44.0 -4.85 -46.8 -20.3 -49.65 -35.75 -33.85 -39.75 1.4 -44.1 29.8 -29.1 58.15 -14.15 46.05 0.3 29.5 20.1 0.1 38.65 Z" fill="none" stroke="#323232" stroke-linecap="round" stroke-linejoin="round" stroke-width="1.8"/>
      <path d="M23.85 -32.0 Q22.0 -29.25 18.45 -26.15 -0.1 -9.95 -12.3 -9.5 -24.45 -9.05 -29.5 -15.4 -34.5 -21.7 -35.25 -35.15 L-35.2 -39.35 -33.85 -39.75 Q-2.25 -43.65 23.85 -32.0" fill="#bd3232" fill-rule="evenodd" stroke="none"/>
      <path d="M0.1 38.65 Q29.5 20.1 46.05 0.3 58.15 -14.15 29.8 -29.1 L23.85 -32.0 Q-2.25 -43.65 -33.85 -39.75 L-35.2 -39.35 Q-49.55 -35.1 -46.8 -20.3 -44.0 -4.85 -27.65 31.25" fill="none" stroke="#323232" stroke-linecap="round" stroke-linejoin="round" stroke-width="1.8"/>
    </g>
    <g id="shape29" transform="matrix(1.0, 0.0, 0.0, 1.0, 5.8, 11.25)">
      <path d="M1.7 -1.3 Q2.2 -5.2 6.25 -5.35 9.25 -4.75 9.9 -1.6 10.2 0.55 9.1 1.9 L10.2 2.5 Q11.25 3.2 11.1 4.5 L10.65 5.65 Q12.95 4.05 15.85 3.8 18.2 4.0 19.0 6.4 19.95 9.15 17.75 11.05 14.5 13.95 11.05 11.4 8.9 9.7 9.55 7.25 L9.75 6.6 7.3 6.5 Q6.55 6.25 6.25 5.35 5.85 4.55 5.9 3.95 L4.85 3.85 Q1.05 2.7 1.7 -1.3" fill="#5b6e7d" fill-rule="evenodd" stroke="none"/>
      <path d="M13.5 -4.7 Q13.9 -1.7 18.2 0.65 32.1 9.0 21.7 18.6 8.9 24.15 0.35 11.0 -8.25 -2.15 -1.75 -6.7 4.7 -11.3 8.9 -9.5 13.05 -7.75 13.5 -4.7 M1.7 -1.3 Q1.05 2.7 4.85 3.85 L5.9 3.95 Q5.85 4.55 6.25 5.35 6.55 6.25 7.3 6.5 L9.75 6.6 9.55 7.25 Q8.9 9.7 11.05 11.4 14.5 13.95 17.75 11.05 19.95 9.15 19.0 6.4 18.2 4.0 15.85 3.8 12.95 4.05 10.65 5.65 L11.1 4.5 Q11.25 3.2 10.2 2.5 L9.1 1.9 Q10.2 0.55 9.9 -1.6 9.25 -4.75 6.25 -5.35 2.2 -5.2 1.7 -1.3" fill="#343541" fill-rule="evenodd" stroke="none"/>
      <path d="M13.5 -4.7 Q13.9 -1.7 18.2 0.65 32.1 9.0 21.7 18.6 8.9 24.15 0.35 11.0 -8.25 -2.15 -1.75 -6.7 4.7 -11.3 8.9 -9.5 13.05 -7.75 13.5 -4.7 Z" ffdec:has-small-stroke="true" ffdec:original-stroke-width="2.5" fill="none" stroke="#323232" stroke-linecap="round" stroke-linejoin="round" stroke-width="2.7482691597739666"/>
    </g>
    <g id="shape30" transform="matrix(1.0, 0.0, 0.0, 1.0, -2.9, -2.45)">
      <path d="M22.45 20.45 Q38.35 59.5 43.6 83.7 49.0 108.4 50.4 122.8 51.75 137.15 50.2 140.4 48.6 143.65 46.15 141.7 43.65 139.7 40.85 111.5 38.0 83.25 23.95 52.45 17.15 37.55 11.85 28.1 4.6 15.45 4.2 10.95 3.8 6.45 6.35 4.55 8.9 2.65 13.1 4.95 17.25 7.2 22.45 20.45" fill="#343541" fill-rule="evenodd" stroke="none"/>
      <path d="M22.45 20.45 Q38.35 59.5 43.6 83.7 49.0 108.4 50.4 122.8 51.75 137.15 50.2 140.4 48.6 143.65 46.15 141.7 43.65 139.7 40.85 111.5 38.0 83.25 23.95 52.45 17.15 37.55 11.85 28.1 4.6 15.45 4.2 10.95 3.8 6.45 6.35 4.55 8.9 2.65 13.1 4.95 17.25 7.2 22.45 20.45 Z" fill="none" stroke="#323232" stroke-linecap="round" stroke-linejoin="round" stroke-width="2.5"/>
    </g>
    <g id="shape31" transform="matrix(1.0, 0.0, 0.0, 1.0, 5.8, 11.25)">
      <path d="M1.7 -1.3 Q2.2 -5.2 6.25 -5.35 9.25 -4.75 9.9 -1.6 10.2 0.55 9.1 1.9 L10.2 2.5 Q11.25 3.2 11.1 4.5 L10.65 5.65 Q12.95 4.05 15.85 3.8 18.2 4.0 19.0 6.4 19.95 9.15 17.75 11.05 14.5 13.95 11.05 11.4 8.9 9.7 9.55 7.25 L9.75 6.6 7.3 6.5 Q6.55 6.25 6.25 5.35 5.85 4.55 5.9 3.95 L4.85 3.85 Q1.05 2.7 1.7 -1.3" fill="#5b6e7d" fill-rule="evenodd" stroke="none"/>
      <path d="M13.5 -4.7 Q13.9 -1.7 18.2 0.65 32.1 9.0 21.7 18.6 8.9 24.15 0.35 11.0 -8.25 -2.15 -1.75 -6.7 4.7 -11.3 8.9 -9.5 13.05 -7.75 13.5 -4.7 M1.7 -1.3 Q1.05 2.7 4.85 3.85 L5.9 3.95 Q5.85 4.55 6.25 5.35 6.55 6.25 7.3 6.5 L9.75 6.6 9.55 7.25 Q8.9 9.7 11.05 11.4 14.5 13.95 17.75 11.05 19.95 9.15 19.0 6.4 18.2 4.0 15.85 3.8 12.95 4.05 10.65 5.65 L11.1 4.5 Q11.25 3.2 10.2 2.5 L9.1 1.9 Q10.2 0.55 9.9 -1.6 9.25 -4.75 6.25 -5.35 2.2 -5.2 1.7 -1.3" fill="#343541" fill-rule="evenodd" stroke="none"/>
      <path d="M13.5 -4.7 Q13.9 -1.7 18.2 0.65 32.1 9.0 21.7 18.6 8.9 24.15 0.35 11.0 -8.25 -2.15 -1.75 -6.7 4.7 -11.3 8.9 -9.5 13.05 -7.75 13.5 -4.7 Z" ffdec:has-small-stroke="true" ffdec:original-stroke-width="2.5" fill="none" stroke="#323232" stroke-linecap="round" stroke-linejoin="round" stroke-width="2.918531892278529"/>
    </g>
    <g id="shape32" transform="matrix(1.0, 0.0, 0.0, 1.0, -0.05, 0.0)">
      <path d="M20.95 23.8 L20.45 24.2 19.9 24.5 Q15.85 26.55 11.15 25.6 5.7 24.5 2.5 19.95 -0.7 15.5 0.25 10.3 1.1 5.1 5.45 2.15 9.95 -0.8 15.35 0.3 20.75 1.35 23.95 5.9 27.1 10.35 26.3 15.65 25.35 20.8 20.95 23.8" fill="#323232" fill-rule="evenodd" stroke="none"/>
    </g>
    <g id="shape33" transform="matrix(1.0, 0.0, 0.0, 1.0, 0.05, -0.05)">
      <path d="M161.05 18.7 Q163.8 25.2 161.55 35.0 144.2 98.85 110.7 146.2 93.8 170.0 73.2 149.55 37.65 107.95 15.7 41.45 9.55 19.2 28.3 12.45 51.55 6.25 76.2 4.45 104.25 2.3 134.15 5.9 L137.2 6.25 147.0 7.65 Q157.7 10.75 161.05 18.7" fill="#e63232" fill-rule="evenodd" stroke="none"/>
      <path d="M160.35 8.0 Q172.85 15.9 168.4 34.7 148.5 105.45 110.2 158.05 90.9 184.5 67.3 161.85 26.75 115.75 1.7 42.0 -5.3 17.35 16.1 9.85 45.05 2.35 75.95 0.6 104.15 -1.05 133.9 2.1 L136.95 2.4 151.8 4.35 Q156.75 5.75 160.35 8.0 M161.05 18.7 Q157.7 10.75 147.0 7.65 L137.2 6.25 134.15 5.9 Q104.25 2.3 76.2 4.45 51.55 6.25 28.3 12.45 9.55 19.2 15.7 41.45 37.65 107.95 73.2 149.55 93.8 170.0 110.7 146.2 144.2 98.85 161.55 35.0 163.8 25.2 161.05 18.7" fill="#bd3232" fill-rule="evenodd" stroke="none"/>
    </g>
    <g id="shape34" transform="matrix(1.0, 0.0, 0.0, 1.0, 3.75, -1.9)">
      <path d="M65.1 165.25 Q24.55 119.15 -0.5 45.4 -7.5 20.75 13.9 13.25 77.25 -3.15 149.6 7.75 171.9 13.95 166.2 38.1 146.3 108.85 108.0 161.45 88.7 187.9 65.1 165.25 Z" fill="none" stroke="#323232" stroke-linecap="round" stroke-linejoin="round" stroke-width="3.0"/>
    </g>
    <g id="shape35" transform="matrix(1.0, 0.0, 0.0, 1.0, 149.4, 21.3)">
      <path d="M-55.05 -9.5 Q-53.35 -16.75 -36.3 -19.3 -19.0 -21.8 3.75 -17.95 26.55 -14.1 41.6 -6.15 56.45 1.8 55.2 9.1 L32.7 118.6 Q28.65 116.3 20.7 113.75 4.25 108.5 -19.55 104.85 -43.25 101.25 -60.3 101.45 -69.8 101.55 -74.1 102.85 L-55.45 -6.95 -55.25 -8.25 -55.1 -8.95 -55.25 -8.25 -55.3 -7.9 -55.2 -8.65 -55.1 -8.95 -55.05 -9.5" fill="url(#gradient40)" fill-rule="evenodd" stroke="none"/>
      <path d="M-147.9 105.85 L-148.35 104.2 Q-149.2 98.2 -138.75 96.1 -115.35 93.2 -77.7 106.0 L-77.7 106.05 -81.85 127.8 Q-138.8 122.35 -147.9 105.85" fill="url(#gradient41)" fill-rule="evenodd" stroke="none"/>
      <path d="M-148.25 105.9 L-147.9 105.85 Q-138.8 122.35 -81.85 127.8 -39.2 131.9 30.4 129.75 L34.35 129.65 59.05 128.65 59.35 128.65 Q103.9 127.7 112.55 147.75 115.4 167.3 36.95 167.0 38.35 159.4 30.8 152.55 -8.75 128.6 -106.7 141.05 -144.3 127.3 -148.25 105.9 M46.45 160.45 L30.8 152.55 46.45 160.45" fill="url(#gradient42)" fill-rule="evenodd" stroke="none"/>
      <path d="M-55.05 -9.5 Q-53.35 -16.75 -36.3 -19.3 -19.0 -21.8 3.75 -17.95 26.55 -14.1 41.6 -6.15 56.45 1.8 55.2 9.1 L32.7 118.6 M-74.1 102.85 L-55.45 -6.95 -55.3 -7.9 M-55.2 -8.65 L-55.1 -9.3 -55.05 -9.5 M-55.1 -8.95 L-55.25 -8.25 M-148.35 104.2 L-148.25 105.9 Q-144.3 127.3 -106.7 141.05 M-147.9 105.85 L-148.35 104.2 Q-149.2 98.2 -138.75 96.1 -115.35 93.2 -77.7 106.0 L-77.7 105.65 -77.45 104.9 -77.7 106.0 -77.7 106.05 M34.35 129.65 L59.05 128.65 59.35 128.65 Q103.9 127.7 112.55 147.75 115.4 167.3 36.95 167.0 M-81.85 127.8 Q-138.8 122.35 -147.9 105.85" ffdec:has-small-stroke="true" ffdec:original-stroke-width="2.0" fill="none" stroke="#1d242e" stroke-linecap="round" stroke-linejoin="round" stroke-width="2.4127102130125486"/>
      <path d="M36.95 167.0 Q38.35 159.4 30.8 152.55 -8.75 128.6 -106.7 141.05 M30.8 152.55 L46.45 160.45" ffdec:has-small-stroke="true" ffdec:original-stroke-width="2.0" fill="none" stroke="#323232" stroke-linecap="round" stroke-linejoin="round" stroke-width="2.4127102130125486"/>
      <path d="M-77.45 104.9 Q-76.75 103.65 -74.1 102.85 -69.8 101.55 -60.3 101.45 -43.25 101.25 -19.55 104.85 4.25 108.5 20.7 113.75 28.65 116.3 32.7 118.6 34.5 119.55 35.5 120.5 L34.35 129.65 30.4 129.75 Q-39.2 131.9 -81.85 127.8 L-77.7 106.05 -77.7 106.0 -77.45 104.9" fill="url(#gradient43)" fill-rule="evenodd" stroke="none"/>
      <path d="M-77.45 104.9 Q-76.75 103.65 -74.1 102.85 -69.8 101.55 -60.3 101.45 -43.25 101.25 -19.55 104.85 4.25 108.5 20.7 113.75 28.65 116.3 32.7 118.6 34.5 119.55 35.5 120.5 L34.35 129.65 30.4 129.75 Q-39.2 131.9 -81.85 127.8 L-77.7 106.05" ffdec:has-small-stroke="true" ffdec:original-stroke-width="2.0" fill="none" stroke="#1d242e" stroke-linecap="round" stroke-linejoin="round" stroke-width="2.4127102130125486"/>
      <path d="M-77.45 104.9 Q-76.75 103.65 -74.1 102.85 -69.8 101.55 -60.3 101.45 -43.25 101.25 -19.55 104.85 4.25 108.5 20.7 113.75 28.65 116.3 32.7 118.6 34.5 119.55 35.5 120.5 L34.35 129.65 30.4 129.75 Q-39.2 131.9 -81.85 127.8 L-77.7 106.05 -77.7 106.0 -77.45 104.9" fill="url(#gradient44)" fill-rule="evenodd" stroke="none"/>
      <path d="M-77.45 104.9 Q-76.75 103.65 -74.1 102.85 -69.8 101.55 -60.3 101.45 -43.25 101.25 -19.55 104.85 4.25 108.5 20.7 113.75 28.65 116.3 32.7 118.6 34.5 119.55 35.5 120.5 L34.35 129.65 30.4 129.75 Q-39.2 131.9 -81.85 127.8 L-77.7 106.05" ffdec:has-small-stroke="true" ffdec:original-stroke-width="2.0" fill="none" stroke="#1d242e" stroke-linecap="round" stroke-linejoin="round" stroke-width="2.4127102130125486"/>
      <path d="M112.55 149.2 Q103.9 129.15 59.35 130.1 L59.05 130.1 34.35 131.1 30.4 131.2 Q-39.2 133.35 -81.85 129.25 -138.8 123.8 -147.9 107.3 L-148.35 105.65 Q-149.2 99.65 -138.75 97.55 -115.8 94.7 -79.15 106.95" ffdec:has-small-stroke="true" ffdec:original-stroke-width="2.0" fill="none" stroke="#6869a8" stroke-linecap="round" stroke-linejoin="round" stroke-width="2.4127102130125486"/>
    </g>
    <linearGradient gradientTransform="matrix(0.1016, 0.0125, -0.1224, 0.9921, 6.0, 0.4)" gradientUnits="userSpaceOnUse" id="gradient40" spreadMethod="pad" x1="-819.2" x2="819.2">
      <stop offset="0.0" stop-color="#151424"/>
      <stop offset="0.396078431372549" stop-color="#4d4d88"/>
      <stop offset="1.0" stop-color="#151424"/>
    </linearGradient>
    <radialGradient cx="0" cy="0" gradientTransform="matrix(-0.0138, 0.0517, -0.1208, -0.0324, -82.7, 132.9)" gradientUnits="userSpaceOnUse" id="gradient41" r="819.2" spreadMethod="pad">
      <stop offset="0.0" stop-color="#0d0f1e"/>
      <stop offset="0.5333333333333333" stop-color="#2a2f4c"/>
    </radialGradient>
    <radialGradient cx="0" cy="0" gradientTransform="matrix(-0.0085, 0.0751, -0.2624, -0.0295, -19.95, 168.55)" gradientUnits="userSpaceOnUse" id="gradient42" r="819.2" spreadMethod="pad">
      <stop offset="0.24313725490196078" stop-color="#2a2f4c"/>
      <stop offset="0.5019607843137255" stop-color="#1a1d32"/>
    </radialGradient>
    <linearGradient gradientTransform="matrix(0.0659, 0.0067, -0.1014, 0.9945, -16.7, -0.45)" gradientUnits="userSpaceOnUse" id="gradient43" spreadMethod="pad" x1="-819.2" x2="819.2">
      <stop offset="0.050980392156862744" stop-color="#84651e"/>
      <stop offset="0.49019607843137253" stop-color="#f7e5a3"/>
      <stop offset="0.8509803921568627" stop-color="#9f7a24"/>
    </linearGradient>
    <linearGradient gradientTransform="matrix(0.0659, 0.0067, -0.1014, 0.9945, -16.7, -0.45)" gradientUnits="userSpaceOnUse" id="gradient44" spreadMethod="pad" x1="-819.2" x2="819.2">
      <stop offset="0.050980392156862744" stop-color="#84651e"/>
      <stop offset="0.49019607843137253" stop-color="#f7e5a3"/>
      <stop offset="0.8509803921568627" stop-color="#9f7a24"/>
    </linearGradient>
    <g id="shape36" transform="matrix(1.0, 0.0, 0.0, 1.0, 21.0, 22.1)">
      <path d="M17.1 -12.95 Q19.6 -9.35 20.55 -4.6 22.35 4.3 17.65 12.0 12.85 19.65 4.35 21.6 -4.15 23.5 -11.4 18.55 -18.05 14.0 -20.1 6.25 L-20.5 4.65 Q-22.3 -4.3 -17.45 -11.95 -12.7 -19.65 -4.2 -21.55 4.25 -23.45 11.55 -18.5 14.9 -16.2 17.1 -12.95" fill="#bd3232" fill-rule="evenodd" stroke="none"/>
    </g>
    <g id="shape37" transform="matrix(1.0, 0.0, 0.0, 1.0, -15.1, 55.6)">
      <path d="M20.1 -24.95 Q22.95 -23.35 26.55 -22.85 34.15 -21.8 40.45 -26.25 46.7 -30.75 47.95 -38.2 49.25 -45.6 44.85 -51.55 L43.95 -52.6 44.75 -52.15 Q47.4 -50.4 48.5 -49.0 L51.8 -44.65 Q54.05 -41.65 52.8 -34.25 51.5 -26.8 45.25 -22.3 38.95 -17.85 31.35 -18.9 25.9 -19.65 22.1 -22.95 L21.05 -23.9 20.1 -24.95" fill="#c0c0c0" fill-rule="evenodd" stroke="none"/>
      <path d="M43.95 -52.6 L44.85 -51.55 Q49.25 -45.6 47.95 -38.2 46.7 -30.75 40.45 -26.25 34.15 -21.8 26.55 -22.85 22.95 -23.35 20.1 -24.95 L19.25 -25.95 Q14.85 -31.95 16.15 -39.35 17.45 -46.8 23.7 -51.3 30.0 -55.75 37.6 -54.65 40.25 -54.3 42.55 -53.3 L42.9 -53.15 43.95 -52.6" fill="#e6e6e6" fill-rule="evenodd" stroke="none"/>
      <path d="M21.05 -23.9 L22.1 -22.95 Q25.9 -19.65 31.35 -18.9 38.95 -17.85 45.25 -22.3 51.5 -26.8 52.8 -34.25 54.05 -41.65 51.8 -44.65 M48.5 -49.0 Q47.4 -50.4 44.75 -52.15 L42.9 -53.15 42.55 -53.3 Q40.25 -54.3 37.6 -54.65 30.0 -55.75 23.7 -51.3 17.45 -46.8 16.15 -39.35 14.85 -31.95 19.25 -25.95 L21.05 -23.9" ffdec:has-small-stroke="true" ffdec:original-stroke-width="1.5" fill="none" stroke="#323232" stroke-linecap="round" stroke-linejoin="round" stroke-width="1.6406629692313608"/>
    </g>
    <g id="shape38" transform="matrix(1.0, 0.0, 0.0, 1.0, 14.4, 14.4)">
      <path d="M10.2 -10.15 Q14.4 -5.95 14.4 0.0 14.4 6.0 10.2 10.2 5.95 14.4 0.0 14.45 -6.0 14.4 -10.2 10.2 -14.4 6.0 -14.4 0.0 -14.4 -5.95 -10.2 -10.15 -6.0 -14.4 0.0 -14.4 5.95 -14.4 10.2 -10.15" fill="#e666cc" fill-rule="evenodd" stroke="none"/>
      <path d="M5.65 -5.1 Q7.8 -2.9 7.85 0.2 7.8 3.3 5.65 5.5 3.45 7.7 0.35 7.7 -2.8 7.7 -4.95 5.5 -7.15 3.3 -7.15 0.2 -7.15 -2.9 -4.95 -5.1 -2.8 -7.3 0.35 -7.25 3.45 -7.3 5.65 -5.1" fill="#993232" fill-rule="evenodd" stroke="none"/>
      <path d="M9.7 -3.4 Q8.25 -1.95 6.2 -1.95 4.1 -1.95 2.65 -3.4 1.2 -4.85 1.2 -6.9 1.2 -9.0 2.65 -10.45 4.1 -11.9 6.2 -11.9 8.25 -11.9 9.7 -10.45 11.15 -9.0 11.15 -6.9 11.15 -4.85 9.7 -3.4 M-6.2 6.35 Q-6.95 5.6 -6.95 4.55 -6.95 3.5 -6.2 2.8 -5.5 2.05 -4.45 2.05 -3.4 2.05 -2.7 2.8 -1.95 3.5 -1.95 4.55 -1.95 5.6 -2.7 6.35 -3.4 7.05 -4.45 7.05 -5.5 7.05 -6.2 6.35" fill="#e6e6e6" fill-rule="evenodd" stroke="none"/>
    </g>
    <g id="shape39" transform="matrix(1.0, 0.0, 0.0, 1.0, 38.2, 33.95)">
      <path d="M21.55 16.8 Q18.15 20.8 10.75 23.05 3.3 25.3 -3.95 22.75 -11.25 20.15 -15.3 15.05 5.1 19.95 21.55 16.8" fill="#e63232" fill-rule="evenodd" stroke="none"/>
      <path d="M30.95 11.25 Q26.95 21.65 16.6 27.4 4.75 33.95 -8.4 30.55 -21.55 27.15 -28.4 15.75 -30.65 11.9 -31.75 7.95 -25.65 9.55 -14.15 11.45 -2.65 13.35 10.5 13.0 23.65 12.65 30.95 11.25 M21.55 16.8 Q5.1 19.95 -15.3 15.05 -11.25 20.15 -3.95 22.75 3.3 25.3 10.75 23.05 18.15 20.8 21.55 16.8" fill="#bd3232" fill-rule="evenodd" stroke="none"/>
      <path d="M30.95 11.25 Q26.95 21.65 16.6 27.4 4.75 33.95 -8.4 30.55 -21.55 27.15 -28.4 15.75 -30.65 11.9 -31.75 7.95 -25.65 9.55 -14.15 11.45 -2.65 13.35 10.5 13.0 23.65 12.65 30.95 11.25 Z" fill="none" stroke="#323232" stroke-linecap="round" stroke-linejoin="round" stroke-width="3.0"/>
      <path d="M27.75 -18.35 L29.2 -16.15 Q32.9 -10.1 33.35 -4.55 L33.5 1.3 33.05 4.5 Q36.95 4.9 36.65 7.8 36.35 10.7 31.4 11.95 L28.15 12.85 24.85 13.6 24.0 13.75 Q4.55 17.0 -16.4 12.55 L-22.2 11.15 -31.65 8.65 Q-36.6 7.2 -36.7 4.3 -36.85 1.4 -33.45 1.15 -33.6 -3.55 -32.2 -8.4 -30.15 -15.95 -25.2 -21.35 L-25.0 -21.2 -25.7 -18.95 Q-29.25 -6.35 -24.5 0.4 -19.8 7.1 -14.25 9.35 -8.75 11.6 2.15 12.45 13.0 13.3 23.85 11.15 34.7 9.0 31.4 4.65 30.2 4.9 29.05 5.7 L27.75 6.4 Q30.75 -7.0 27.75 -18.35 M33.05 4.5 L31.4 4.65 33.05 4.5 M-30.25 2.15 Q-31.55 1.5 -33.45 1.15 -31.55 1.5 -30.25 2.15" fill="#bd3232" fill-rule="evenodd" stroke="none"/>
      <path d="M-25.2 -21.35 L-25.15 -21.35 Q-21.65 -25.25 -16.6 -28.05 -4.6 -34.75 8.85 -31.25 20.9 -28.15 27.75 -18.35 30.75 -7.0 27.75 6.4 L29.05 5.7 Q30.2 4.9 31.4 4.65 34.7 9.0 23.85 11.15 13.0 13.3 2.15 12.45 -8.75 11.6 -14.25 9.35 -19.8 7.1 -24.5 0.4 -29.25 -6.35 -25.7 -18.95 L-25.0 -21.2 -25.2 -21.35 M22.7 7.3 Q25.6 7.35 27.75 6.4 25.6 7.35 22.7 7.3" fill="#e63232" fill-rule="evenodd" stroke="none"/>
      <path d="M27.75 -18.35 L29.2 -16.15 Q32.9 -10.1 33.35 -4.55 L33.5 1.3 33.05 4.5 Q36.95 4.9 36.65 7.8 36.35 10.7 31.4 11.95 L28.15 12.85 24.85 13.6 24.0 13.75 Q4.55 17.0 -16.4 12.55 L-22.2 11.15 -31.65 8.65 Q-36.6 7.2 -36.7 4.3 -36.85 1.4 -33.45 1.15 -33.6 -3.55 -32.2 -8.4 -30.15 -15.95 -25.2 -21.35 L-25.15 -21.35 Q-21.65 -25.25 -16.6 -28.05 -4.6 -34.75 8.85 -31.25 20.9 -28.15 27.75 -18.35 M27.75 6.4 L29.05 5.7 Q30.2 4.9 31.4 4.65 L33.05 4.5 M-33.45 1.15 Q-31.55 1.5 -30.25 2.15 M27.75 6.4 Q25.6 7.35 22.7 7.3" fill="none" stroke="#323232" stroke-linecap="round" stroke-linejoin="round" stroke-width="3.0"/>
    </g>
    <g id="shape40" transform="matrix(1.0, 0.0, 0.0, 1.0, 3.65, 34.15)">
      <path d="M46.7 47.0 L3.45 36.5 Q8.3 14.85 -2.4 -12.7 L64.95 -32.9 Q70.45 13.35 46.7 47.0" fill="#713737" fill-rule="evenodd" stroke="none"/>
      <path d="M46.7 47.0 Q70.45 13.35 64.95 -32.9 L-2.4 -12.7 Q8.3 14.85 3.45 36.5 L46.7 47.0 Z" ffdec:has-small-stroke="true" ffdec:original-stroke-width="2.5" fill="none" stroke="#323232" stroke-linecap="round" stroke-linejoin="round" stroke-width="2.8236810592163595"/>
      <path d="M60.4 27.9 Q62.65 30.3 64.95 33.5 61.6 37.05 55.45 41.9 30.25 42.45 28.6 39.35 26.9 36.2 27.2 34.6 27.45 33.0 28.1 31.3 28.8 29.55 32.8 25.6 36.8 21.6 46.05 20.85 53.1 20.25 60.4 27.9" fill="#e697d0" fill-rule="evenodd" stroke="none"/>
      <path d="M60.4 27.9 Q62.65 30.3 64.95 33.5 M55.45 41.9 Q30.25 42.45 28.6 39.35 26.9 36.2 27.2 34.6 27.45 33.0 28.1 31.3 28.8 29.55 32.8 25.6 36.8 21.6 46.05 20.85 53.1 20.25 60.4 27.9 L62.85 25.45" ffdec:has-small-stroke="true" ffdec:original-stroke-width="2.5" fill="none" stroke="#323232" stroke-linecap="round" stroke-linejoin="round" stroke-width="2.8236810592163595"/>
    </g>
    <g id="shape41" transform="matrix(1.0, 0.0, 0.0, 1.0, 1.7, 0.8)">
      <path d="M84.9 14.0 L85.55 15.55 Q86.65 18.65 85.4 21.6 74.3 24.75 66.1 16.5 65.2 22.0 60.1 23.55 49.95 26.6 43.2 18.05 L41.35 19.75 Q29.05 30.95 14.3 20.25 12.6 22.1 10.45 23.05 8.25 24.15 4.0 23.7 0.35 17.0 1.5 10.0 6.3 11.9 11.25 13.2 15.6 14.35 18.85 11.65 22.15 14.8 30.1 15.35 39.05 15.9 45.05 10.8 47.35 16.3 56.15 15.5 60.1 15.15 63.4 13.25 65.0 12.3 65.4 10.9 74.3 16.7 84.9 14.0" fill="#b9c7c8" fill-rule="evenodd" stroke="none"/>
      <path d="M87.4 23.9 Q82.55 41.35 62.65 41.7 44.25 43.15 24.9 41.8 7.15 40.55 2.15 24.1 -5.3 6.6 1.6 2.9 8.5 -0.85 17.0 5.25 27.5 -5.35 39.9 2.55 L42.7 4.6 Q52.85 -2.75 62.85 4.5 76.65 -3.4 86.15 10.6 89.45 15.45 87.4 23.9 M1.5 10.0 Q0.35 17.0 4.0 23.7 8.25 24.15 10.45 23.05 12.6 22.1 14.3 20.25 29.05 30.95 41.35 19.75 L43.2 18.05 Q49.95 26.6 60.1 23.55 65.2 22.0 66.1 16.5 74.3 24.75 85.4 21.6 86.65 18.65 85.55 15.55 L84.9 14.0 Q76.6 -1.9 64.9 7.2 L64.15 8.0 Q53.15 -0.7 42.1 7.75 29.4 -4.6 18.8 8.05 L18.0 9.25 Q11.0 2.45 6.9 3.8 2.75 5.15 1.5 10.0 M84.7 24.35 Q76.15 27.25 69.05 21.8 L67.05 20.15 Q62.8 29.2 52.6 27.25 47.1 26.15 43.35 21.75 32.9 31.5 19.3 25.5 16.9 24.45 14.65 23.2 10.7 26.75 5.15 26.4 8.4 34.15 19.6 38.2 30.25 40.25 52.7 40.35 75.1 40.45 83.1 28.9 L84.7 24.35" fill="#323232" fill-rule="evenodd" stroke="none"/>
      <path d="M84.9 14.0 Q74.3 16.7 65.4 10.9 65.0 12.3 63.4 13.25 60.1 15.15 56.15 15.5 47.35 16.3 45.05 10.8 39.05 15.9 30.1 15.35 22.15 14.8 18.85 11.65 15.6 14.35 11.25 13.2 6.3 11.9 1.5 10.0 2.75 5.15 6.9 3.8 11.0 2.45 18.0 9.25 L18.8 8.05 Q29.4 -4.6 42.1 7.75 53.15 -0.7 64.15 8.0 L64.9 7.2 Q76.6 -1.9 84.9 14.0" fill="#d3dbdc" fill-rule="evenodd" stroke="none"/>
      <path d="M84.7 24.35 L83.1 28.9 Q75.1 40.45 52.7 40.35 30.25 40.25 19.6 38.2 8.4 34.15 5.15 26.4 10.7 26.75 14.65 23.2 16.9 24.45 19.3 25.5 32.9 31.5 43.35 21.75 47.1 26.15 52.6 27.25 62.8 29.2 67.05 20.15 L69.05 21.8 Q76.15 27.25 84.7 24.35" fill="#c96598" fill-rule="evenodd" stroke="none"/>
    </g>
    <g id="shape42" transform="matrix(1.0, 0.0, 0.0, 1.0, -1.2, 10.7)">
      <path d="M14.6 -5.9 Q21.05 -9.3 28.75 -9.9 59.65 -12.2 73.9 -7.85 88.15 -3.55 88.2 10.35 88.2 24.25 81.35 34.0 74.5 43.7 63.65 37.8 54.05 44.95 43.9 37.75 40.95 39.85 37.3 40.45 28.55 41.45 23.05 33.75 19.75 36.8 16.9 37.5 9.0 39.5 4.7 32.45 0.6 25.65 1.3 16.6 2.0 7.55 4.75 1.55 8.1 -2.5 14.6 -5.9 M70.0 -5.7 Q57.25 -10.2 35.95 -8.2 14.6 -6.25 7.45 1.6 4.75 5.15 3.95 16.5 14.6 8.2 25.05 17.4 35.0 10.35 44.2 17.85 55.25 10.7 64.5 19.1 71.35 11.8 85.0 12.75 85.55 8.8 84.15 3.75 82.75 -1.25 70.0 -5.7 M82.05 27.65 Q84.15 22.4 84.75 15.55 71.0 15.1 63.95 21.9 54.7 13.45 43.65 20.7 41.95 18.95 39.6 18.0 31.75 14.55 24.8 20.15 L20.95 17.85 Q10.55 11.25 3.45 21.4 3.75 26.75 8.05 32.15 13.95 38.2 23.9 30.15 25.4 34.15 28.65 35.75 36.8 39.8 44.35 34.8 54.5 42.25 63.7 34.85 L65.7 35.95 Q74.55 40.4 79.85 32.0 L82.05 27.7 82.05 27.65" fill="#323232" fill-rule="evenodd" stroke="none"/>
      <path d="M70.0 -5.7 Q82.75 -1.25 84.15 3.75 85.55 8.8 85.0 12.75 71.35 11.8 64.5 19.1 55.25 10.7 44.2 17.85 35.0 10.35 25.05 17.4 14.6 8.2 3.95 16.5 4.75 5.15 7.45 1.6 14.6 -6.25 35.95 -8.2 57.25 -10.2 70.0 -5.7" fill="#c96598" fill-rule="evenodd" stroke="none"/>
      <path d="M23.9 30.15 Q26.3 24.8 34.15 25.7 41.95 26.55 44.0 30.7 49.75 24.35 55.95 26.1 62.15 27.8 63.15 30.7 71.25 22.45 82.05 27.65 L82.05 27.7 79.85 32.0 Q74.55 40.4 65.7 35.95 L63.7 34.85 Q54.5 42.25 44.35 34.8 36.8 39.8 28.65 35.75 25.4 34.15 23.9 30.15" fill="#d3dbdc" fill-rule="evenodd" stroke="none"/>
      <path d="M23.9 30.15 Q13.95 38.2 8.05 32.15 3.75 26.75 3.45 21.4 10.55 11.25 20.95 17.85 L24.8 20.15 Q31.75 14.55 39.6 18.0 41.95 18.95 43.65 20.7 54.7 13.45 63.95 21.9 71.0 15.1 84.75 15.55 84.15 22.4 82.05 27.65 71.25 22.45 63.15 30.7 62.15 27.8 55.95 26.1 49.75 24.35 44.0 30.7 41.95 26.55 34.15 25.7 26.3 24.8 23.9 30.15" fill="#a7b9ba" fill-rule="evenodd" stroke="none"/>
    </g>
    <g id="shape43" transform="matrix(1.0, 0.0, 0.0, 1.0, 28.4, 27.35)">
      <path d="M-27.15 -16.5 Q-25.3 -15.5 -23.1 -14.7 L-17.55 -13.15 Q-11.9 -11.9 -8.55 -11.75 L2.35 -11.75 Q9.9 -11.9 21.35 -13.5 32.75 -15.2 58.6 -26.1 60.5 30.4 52.4 41.9 44.25 53.45 35.0 57.6 25.7 61.7 19.55 62.05 L8.5 61.5 Q3.6 60.65 -2.55 58.75 -8.65 56.8 -10.9 57.2 L-13.65 57.8 -14.2 58.05 -14.6 58.25 Q-17.1 59.7 -17.65 63.15" ffdec:has-small-stroke="true" ffdec:original-stroke-width="2.5" fill="none" stroke="#323232" stroke-linecap="round" stroke-linejoin="round" stroke-width="2.8236810592163595"/>
    </g>
    <g id="shape44" transform="matrix(1.0, 0.0, 0.0, 1.0, -126.85, -11.5)">
      <path d="M129.75 14.95 Q127.9 12.7 132.25 11.65 136.65 10.85 141.45 14.0 L143.7 15.1 190.15 43.05 Q194.75 45.95 199.15 49.1 L200.35 49.95 Q204.6 53.1 208.6 56.75 L213.25 61.85 213.25 61.9 Q217.75 68.65 214.1 75.1 210.45 81.5 205.15 80.7 199.9 79.85 190.3 69.3 180.7 58.75 165.75 47.1 156.2 39.6 146.15 32.55 L139.4 27.85 126.85 19.1 Q126.75 17.55 128.0 17.45 L150.2 32.85 163.35 42.55 Q171.65 48.7 179.85 55.7 188.05 62.65 195.0 70.2 201.9 77.7 205.75 77.35 209.55 77.0 211.7 73.4 214.5 67.5 210.4 61.85 205.35 56.7 199.7 52.35 194.55 48.4 188.9 45.05 L142.8 17.1 Q135.8 11.9 129.75 14.95 M211.7 73.4 L211.75 73.4 211.7 73.4" fill="#323232" fill-rule="evenodd" stroke="none"/>
      <path d="M211.7 73.4 L211.75 73.4 211.7 73.4" fill="#bd1c1c" fill-rule="evenodd" stroke="none"/>
      <path d="M211.7 73.4 Q209.55 77.0 205.75 77.35 201.9 77.7 195.0 70.2 188.05 62.65 179.85 55.7 171.65 48.7 163.35 42.55 L150.2 32.85 128.0 17.45 129.6 15.15 129.45 15.1 129.55 15.05 129.75 14.95 175.55 46.75 Q184.8 52.85 190.15 58.1 195.45 63.3 202.55 68.6 207.85 72.55 211.7 73.4 M129.75 15.0 L130.1 15.35 129.75 14.95 129.75 15.0" fill="#bd3232" fill-rule="evenodd" stroke="none"/>
      <path d="M129.75 14.95 Q135.8 11.9 142.8 17.1 L188.9 45.05 Q194.55 48.4 199.7 52.35 205.35 56.7 210.4 61.85 214.5 67.5 211.7 73.4 207.85 72.55 202.55 68.6 195.45 63.3 190.15 58.1 184.8 52.85 175.55 46.75 L129.75 14.95 130.1 15.35 129.75 15.0 129.75 14.95" fill="#e63232" fill-rule="evenodd" stroke="none"/>
    </g>
    <g id="shape45" transform="matrix(1.0, 0.0, 0.0, 1.0, 33.8, 32.8)">
      <path d="M-25.5 -20.0 Q-21.8 -24.45 -16.3 -27.5 -4.5 -34.05 8.65 -30.65 21.8 -27.25 28.6 -15.85 35.5 -4.5 31.95 8.2 L31.25 10.4 Q27.55 14.8 22.0 17.85 10.15 24.45 -3.0 21.05 -16.15 17.65 -22.95 6.25 -29.75 -5.15 -26.2 -17.75 L-25.5 -20.0" fill="#e6e6e6" fill-rule="evenodd" stroke="none"/>
      <path d="M31.25 10.4 Q27.35 21.4 16.6 27.4 4.75 33.95 -8.4 30.55 -21.55 27.15 -28.4 15.75 -35.15 4.35 -31.6 -8.25 -29.75 -15.0 -25.5 -20.0 L-26.2 -17.75 Q-29.75 -5.15 -22.95 6.25 -16.15 17.65 -3.0 21.05 10.15 24.45 22.0 17.85 27.55 14.8 31.25 10.4" fill="#c0c0c0" fill-rule="evenodd" stroke="none"/>
      <path d="M28.6 -15.85 Q35.5 -4.5 31.95 8.2 28.4 20.8 16.6 27.4 4.75 33.95 -8.4 30.55 -21.55 27.15 -28.4 15.75 -35.15 4.35 -31.6 -8.25 -28.1 -20.9 -16.3 -27.5 -4.5 -34.05 8.65 -30.65 21.8 -27.25 28.6 -15.85 Z" ffdec:has-small-stroke="true" ffdec:original-stroke-width="2.0" fill="none" stroke="#323232" stroke-linecap="round" stroke-linejoin="round" stroke-width="2.365475491656892"/>
    </g>
    <g id="shape46" transform="matrix(1.0, 0.0, 0.0, 1.0, -196.95, -59.65)">
      <path d="M247.55 209.05 L250.2 209.05 Q251.5 206.65 250.65 204.0 249.65 200.95 247.2 195.95 L237.75 177.45 Q236.4 174.55 236.05 172.75 235.5 170.3 235.45 167.8 L234.75 153.8 230.7 117.05 229.15 107.5 Q228.05 101.85 226.6 96.25 225.35 91.5 223.7 86.9 221.4 80.7 218.3 74.85 215.7 70.05 212.55 65.4 210.2 61.45 207.35 59.85 212.0 61.05 214.9 64.9 217.8 68.75 220.2 73.75 L225.0 83.85 Q227.35 89.55 228.85 95.5 L231.4 106.95 233.0 116.65 235.65 137.65 237.6 162.0 Q237.9 167.3 237.7 168.0 242.2 182.8 247.05 191.75 251.85 200.7 252.4 202.35 L253.0 205.1 253.15 207.5 252.95 208.5 252.2 210.05 251.0 211.4 246.0 211.8 Q241.45 212.05 233.25 207.1 225.0 202.05 223.1 200.0 221.15 197.95 219.05 194.55 216.8 190.9 215.45 187.15 213.6 182.2 213.0 177.05 212.45 171.9 212.85 166.6 213.35 160.75 213.4 154.9 213.5 146.1 212.65 137.25 211.8 128.5 210.35 119.85 208.8 111.05 206.55 102.5 203.45 90.95 199.15 79.7 198.4 77.95 197.35 73.3 196.3 68.65 198.0 63.95 197.8 71.55 200.9 78.35 203.45 84.05 205.35 90.4 L211.3 113.65 213.35 125.3 214.85 137.05 Q215.8 145.9 215.75 154.85 L215.5 174.8 Q215.45 176.8 215.8 178.85 217.05 187.6 222.1 194.8 L224.5 197.9 Q229.35 203.65 236.55 205.95 L247.55 209.05" fill="#323232" fill-rule="evenodd" stroke="none"/>
      <path d="M198.0 63.95 Q199.8 69.1 201.75 73.4 203.65 77.65 206.95 82.6 210.2 87.55 212.5 96.55 L217.25 116.9 220.75 138.2 223.05 160.35 224.05 183.2 Q230.75 194.15 247.55 209.05 L236.55 205.95 Q229.35 203.65 224.5 197.9 L222.1 194.8 Q217.05 187.6 215.8 178.85 215.45 176.8 215.5 174.8 L215.75 154.85 Q215.8 145.9 214.85 137.05 L213.35 125.3 211.3 113.65 205.35 90.4 Q203.45 84.05 200.9 78.35 197.8 71.55 198.0 63.95" fill="#bd3232" fill-rule="evenodd" stroke="none"/>
      <path d="M247.55 209.05 Q230.75 194.15 224.05 183.2 L223.05 160.35 220.75 138.2 217.25 116.9 212.5 96.55 Q210.2 87.55 206.95 82.6 203.65 77.65 201.75 73.4 199.8 69.1 198.0 63.95 200.35 58.7 207.35 59.85 210.2 61.45 212.55 65.4 215.7 70.05 218.3 74.85 221.4 80.7 223.7 86.9 225.35 91.5 226.6 96.25 228.05 101.85 229.15 107.5 L230.7 117.05 234.75 153.8 235.45 167.8 Q235.5 170.3 236.05 172.75 236.4 174.55 237.75 177.45 L247.2 195.95 Q249.65 200.95 250.65 204.0 251.5 206.65 250.2 209.05 L247.55 209.05" fill="#e63232" fill-rule="evenodd" stroke="none"/>
    </g>
    <g id="shape47" transform="matrix(1.0, 0.0, 0.0, 1.0, 14.35, 5.7)">
      <path d="M9.75 -1.0 L12.3 1.6 Q13.65 3.15 14.35 5.75 13.95 5.0 12.2 3.8 6.35 -0.3 -0.75 -0.9 -7.9 -1.55 -12.9 -0.1 -14.25 -0.7 -14.35 -1.9 -14.5 -3.1 -13.7 -4.3 -11.05 -5.35 -5.7 -5.65 -0.35 -5.95 4.1 -3.95 8.5 -2.05 9.75 -1.0" fill="#323232" fill-rule="evenodd" stroke="none"/>
    </g>
    <g id="shape48" transform="matrix(1.0, 0.0, 0.0, 1.0, 51.65, 14.4)">
      <path d="M-4.9 9.5 L-16.7 8.35 -31.9 9.6 Q-37.7 9.4 -42.9 6.65 -52.65 1.45 -49.7 -7.85 -47.75 -14.3 -40.0 -12.45 -31.05 -10.3 -21.65 -10.5 -16.55 -10.7 -11.35 -12.45 -6.2 -14.2 -0.8 -11.55 5.95 -7.45 6.2 -1.55 6.25 0.1 5.75 1.95 3.45 9.85 -4.9 9.5" fill="#343541" fill-rule="evenodd" stroke="none"/>
      <path d="M-4.9 9.5 L-16.7 8.35 -31.9 9.6 Q-37.7 9.4 -42.9 6.65 -52.65 1.45 -49.7 -7.85 -47.75 -14.3 -40.0 -12.45 -31.05 -10.3 -21.65 -10.5 -16.55 -10.7 -11.35 -12.45 -6.2 -14.2 -0.8 -11.55 5.95 -7.45 6.2 -1.55 6.25 0.1 5.75 1.95 3.45 9.85 -4.9 9.5 Z" fill="none" stroke="#323232" stroke-linecap="round" stroke-linejoin="round" stroke-width="2.5"/>
    </g>
    <g id="sprite22" transform="matrix(1.0, 0.0, 0.0, 1.0, -1.8, -2.9)">
      <use ffdec:characterId="782" height="35.9" transform="matrix(1.0, 0.0, 0.0, 1.0, 1.8, 2.9)" width="13.75" xlink:href="#shape49"/>
    </g>
    <g id="shape49" transform="matrix(1.0, 0.0, 0.0, 1.0, -1.8, -2.9)">
      <path d="M13.0 14.8 Q14.7 20.75 14.55 27.35 14.35 34.2 10.55 36.85 6.4 39.85 3.8 33.55 2.05 29.25 3.35 24.35 4.95 18.45 7.25 13.25 9.05 9.05 8.7 3.9 11.3 8.9 13.0 14.8" fill="url(#gradient45)" fill-rule="evenodd" stroke="none"/>
      <path d="M13.0 14.8 Q14.7 20.75 14.55 27.35 14.35 34.2 10.55 36.85 6.4 39.85 3.8 33.55 2.05 29.25 3.35 24.35 4.95 18.45 7.25 13.25 9.05 9.05 8.7 3.9 11.3 8.9 13.0 14.8 Z" ffdec:has-small-stroke="true" ffdec:original-stroke-width="2.0" fill="none" stroke="#00b0ff" stroke-linecap="round" stroke-linejoin="round" stroke-opacity="0.7490196" stroke-width="2.2307174507135032"/>
      <path d="M6.7 19.2 Q7.5 18.35 8.1 18.7 8.7 19.05 8.7 20.8 L8.2 25.05 Q7.45 29.2 6.1 29.2 5.25 29.2 4.9 27.35 L4.65 25.2 Q4.65 21.35 6.7 19.2" fill="#ffffff" fill-opacity="0.7882353" fill-rule="evenodd" stroke="none"/>
      <path d="M12.25 21.2 Q12.3 18.25 11.7 15.95 13.2 20.1 13.3 26.35 13.45 32.55 10.0 35.5 6.5 38.45 5.45 33.8 5.8 34.25 8.05 32.75 10.3 31.25 11.2 27.7 12.15 24.2 12.25 21.2" fill="#00386b" fill-opacity="0.14117648" fill-rule="evenodd" stroke="none"/>
    </g>
    <radialGradient cx="0" cy="0" gradientTransform="matrix(0.0105, 0.0, 0.0, 0.0272, 9.2, 17.45)" gradientUnits="userSpaceOnUse" id="gradient45" r="819.2" spreadMethod="pad">
      <stop offset="0.10588235294117647" stop-color="#ffffff"/>
      <stop offset="0.8901960784313725" stop-color="#1fd9ed"/>
    </radialGradient>
    <g id="sprite23" transform="matrix(1.0, 0.0, 0.0, 1.0, -1.8, -2.9)">
      <use ffdec:characterId="782" height="35.9" transform="matrix(1.0, 0.0, 0.0, 1.0, 1.8, 2.9)" width="13.75" xlink:href="#shape50"/>
    </g>
    <g id="shape50" transform="matrix(1.0, 0.0, 0.0, 1.0, -1.8, -2.9)">
      <path d="M13.0 14.8 Q14.7 20.75 14.55 27.35 14.35 34.2 10.55 36.85 6.4 39.85 3.8 33.55 2.05 29.25 3.35 24.35 4.95 18.45 7.25 13.25 9.05 9.05 8.7 3.9 11.3 8.9 13.0 14.8" fill="url(#gradient46)" fill-rule="evenodd" stroke="none"/>
      <path d="M13.0 14.8 Q14.7 20.75 14.55 27.35 14.35 34.2 10.55 36.85 6.4 39.85 3.8 33.55 2.05 29.25 3.35 24.35 4.95 18.45 7.25 13.25 9.05 9.05 8.7 3.9 11.3 8.9 13.0 14.8 Z" ffdec:has-small-stroke="true" ffdec:original-stroke-width="2.0" fill="none" stroke="#00b0ff" stroke-linecap="round" stroke-linejoin="round" stroke-opacity="0.7490196" stroke-width="2.550660935144242"/>
      <path d="M6.7 19.2 Q7.5 18.35 8.1 18.7 8.7 19.05 8.7 20.8 L8.2 25.05 Q7.45 29.2 6.1 29.2 5.25 29.2 4.9 27.35 L4.65 25.2 Q4.65 21.35 6.7 19.2" fill="#ffffff" fill-opacity="0.7882353" fill-rule="evenodd" stroke="none"/>
      <path d="M12.25 21.2 Q12.3 18.25 11.7 15.95 13.2 20.1 13.3 26.35 13.45 32.55 10.0 35.5 6.5 38.45 5.45 33.8 5.8 34.25 8.05 32.75 10.3 31.25 11.2 27.7 12.15 24.2 12.25 21.2" fill="#00386b" fill-opacity="0.14117648" fill-rule="evenodd" stroke="none"/>
    </g>
    <radialGradient cx="0" cy="0" gradientTransform="matrix(0.0105, 0.0, 0.0, 0.0272, 9.2, 17.45)" gradientUnits="userSpaceOnUse" id="gradient46" r="819.2" spreadMethod="pad">
      <stop offset="0.10588235294117647" stop-color="#ffffff"/>
      <stop offset="0.8901960784313725" stop-color="#1fd9ed"/>
    </radialGradient>
    <g id="sprite24" transform="matrix(1.0, 0.0, 0.0, 1.0, -1.8, -2.9)">
      <use ffdec:characterId="782" height="35.9" transform="matrix(1.0, 0.0, 0.0, 1.0, 1.8, 2.9)" width="13.75" xlink:href="#shape51"/>
    </g>
    <g id="shape51" transform="matrix(1.0, 0.0, 0.0, 1.0, -1.8, -2.9)">
      <path d="M13.0 14.8 Q14.7 20.75 14.55 27.35 14.35 34.2 10.55 36.85 6.4 39.85 3.8 33.55 2.05 29.25 3.35 24.35 4.95 18.45 7.25 13.25 9.05 9.05 8.7 3.9 11.3 8.9 13.0 14.8" fill="url(#gradient47)" fill-rule="evenodd" stroke="none"/>
      <path d="M13.0 14.8 Q14.7 20.75 14.55 27.35 14.35 34.2 10.55 36.85 6.4 39.85 3.8 33.55 2.05 29.25 3.35 24.35 4.95 18.45 7.25 13.25 9.05 9.05 8.7 3.9 11.3 8.9 13.0 14.8 Z" ffdec:has-small-stroke="true" ffdec:original-stroke-width="2.0" fill="none" stroke="#00b0ff" stroke-linecap="round" stroke-linejoin="round" stroke-opacity="0.7490196" stroke-width="2.550644293579444"/>
      <path d="M6.7 19.2 Q7.5 18.35 8.1 18.7 8.7 19.05 8.7 20.8 L8.2 25.05 Q7.45 29.2 6.1 29.2 5.25 29.2 4.9 27.35 L4.65 25.2 Q4.65 21.35 6.7 19.2" fill="#ffffff" fill-opacity="0.7882353" fill-rule="evenodd" stroke="none"/>
      <path d="M12.25 21.2 Q12.3 18.25 11.7 15.95 13.2 20.1 13.3 26.35 13.45 32.55 10.0 35.5 6.5 38.45 5.45 33.8 5.8 34.25 8.05 32.75 10.3 31.25 11.2 27.7 12.15 24.2 12.25 21.2" fill="#00386b" fill-opacity="0.14117648" fill-rule="evenodd" stroke="none"/>
    </g>
    <radialGradient cx="0" cy="0" gradientTransform="matrix(0.0105, 0.0, 0.0, 0.0272, 9.2, 17.45)" gradientUnits="userSpaceOnUse" id="gradient47" r="819.2" spreadMethod="pad">
      <stop offset="0.10588235294117647" stop-color="#ffffff"/>
      <stop offset="0.8901960784313725" stop-color="#1fd9ed"/>
    </radialGradient>
    <g id="shape52" transform="matrix(1.0, 0.0, 0.0, 1.0, 0.0, 0.0)">
      <path d="M100.6 0.0 L100.6 18.0 0.0 18.0 0.0 0.0 100.6 0.0" fill="#ffffff" fill-opacity="0.0" fill-rule="evenodd" stroke="none"/>
    </g>
  </defs>
</svg>
