<?xml version="1.0" encoding="UTF-8" standalone="no"?>
<svg xmlns:ffdec="https://www.free-decompiler.com/flash" xmlns:xlink="http://www.w3.org/1999/xlink" ffdec:objectType="frame" height="8.0px" width="10.5px" xmlns="http://www.w3.org/2000/svg">
  <g transform="matrix(1.0, 0.0, 0.0, 1.0, 0.0, 0.0)">
    <use ffdec:characterId="194" height="8.0" transform="matrix(1.0, 0.0, 0.0, 1.0, 0.0, 0.0)" width="10.5" xlink:href="#shape0"/>
  </g>
  <defs>
    <g id="shape0" transform="matrix(1.0, 0.0, 0.0, 1.0, 0.0, 0.0)">
      <path d="M10.5 4.0 Q10.5 4.95 10.0 5.75 L8.95 6.8 Q8.05 7.5 6.9 7.8 L5.25 8.0 Q3.1 8.0 1.55 6.8 0.0 5.65 0.0 4.0 L0.05 3.6 Q0.2 2.2 1.55 1.15 3.1 0.0 5.25 0.0 6.7 0.0 7.9 0.55 L8.95 1.15 Q10.5 2.35 10.5 4.0" fill="#4aa613" fill-rule="evenodd" stroke="none"/>
    </g>
  </defs>
</svg>
