<?xml version="1.0" encoding="UTF-8" standalone="no"?>
<svg xmlns:ffdec="https://www.free-decompiler.com/flash" xmlns:xlink="http://www.w3.org/1999/xlink" ffdec:objectType="frame" height="9.9px" width="12.5px" xmlns="http://www.w3.org/2000/svg">
  <g transform="matrix(1.0, 0.0, 0.0, 1.0, 0.0, 0.0)">
    <use ffdec:characterId="210" height="9.9" transform="matrix(1.0, 0.0, 0.0, 1.0, 0.0, 0.0)" width="12.5" xlink:href="#shape0"/>
  </g>
  <defs>
    <g id="shape0" transform="matrix(1.0, 0.0, 0.0, 1.0, 0.0, 0.0)">
      <path d="M10.4 7.9 Q8.3 9.8 5.65 9.9 3.0 10.0 1.6 8.05 0.15 6.1 0.0 4.5 L0.0 4.25 Q0.0 2.5 1.8 1.25 3.65 0.0 6.25 0.0 8.85 0.0 10.65 1.25 12.35 2.4 12.5 3.95 L12.5 4.25 Q12.5 6.0 10.4 7.9" fill="#4aa613" fill-rule="evenodd" stroke="none"/>
    </g>
  </defs>
</svg>
