<?xml version="1.0" encoding="UTF-8" standalone="no"?>
<svg xmlns:ffdec="https://www.free-decompiler.com/flash" xmlns:xlink="http://www.w3.org/1999/xlink" ffdec:objectType="frame" height="22.1px" width="22.1px" xmlns="http://www.w3.org/2000/svg">
  <g transform="matrix(1.0, 0.0, 0.0, 1.0, 1.7, 2.25)">
    <use ffdec:characterId="866" height="22.1" transform="matrix(1.0, 0.0, 0.0, 1.0, -1.7, -2.25)" width="22.1" xlink:href="#shape0"/>
  </g>
  <defs>
    <g id="shape0" transform="matrix(1.0, 0.0, 0.0, 1.0, 1.7, 2.25)">
      <path d="M9.35 18.6 Q13.5 18.6 16.35 15.7 L16.3 15.7 Q19.15 12.85 19.15 8.75 19.15 4.65 16.25 1.85 13.35 -1.0 9.25 -1.0 5.2 -0.95 2.35 1.9 -0.45 4.75 -0.45 8.85 -0.45 12.9 2.4 15.75 5.3 18.65 9.35 18.6 Z" fill="none" stroke="#182e43" stroke-linecap="round" stroke-linejoin="round" stroke-width="2.5"/>
      <path d="M16.25 1.85 Q19.15 4.65 19.15 8.75 19.15 12.85 16.3 15.7 L16.35 15.7 Q13.5 18.6 9.35 18.6 5.3 18.65 2.4 15.75 -0.45 12.9 -0.45 8.85 -0.45 4.75 2.35 1.9 5.2 -0.95 9.25 -1.0 13.35 -1.0 16.25 1.85" fill="url(#gradient0)" fill-rule="evenodd" stroke="none"/>
      <path d="M2.2 14.8 Q0.0 12.55 0.0 9.4 0.0 6.2 2.15 3.95 4.4 1.75 7.55 1.7 10.8 1.7 13.05 3.9 15.3 6.15 15.3 9.3 15.3 12.5 13.1 14.75 10.85 17.0 7.65 17.0 4.5 17.05 2.2 14.8" fill="url(#gradient1)" fill-rule="evenodd" stroke="none"/>
    </g>
    <linearGradient gradientTransform="matrix(0.0117, 0.0, 0.0, 1.0, 9.15, 0.05)" gradientUnits="userSpaceOnUse" id="gradient0" spreadMethod="pad" x1="-819.2" x2="819.2">
      <stop offset="0.00392156862745098" stop-color="#88a4bd"/>
      <stop offset="0.9058823529411765" stop-color="#1f3a50"/>
    </linearGradient>
    <linearGradient gradientTransform="matrix(-0.0093, 0.0, 0.0, -0.0093, 7.65, 9.35)" gradientUnits="userSpaceOnUse" id="gradient1" spreadMethod="pad" x1="-819.2" x2="819.2">
      <stop offset="0.00784313725490196" stop-color="#d5eafd"/>
      <stop offset="0.9137254901960784" stop-color="#6185a4"/>
    </linearGradient>
  </defs>
</svg>
