<?xml version="1.0" encoding="UTF-8" standalone="no"?>
<svg xmlns:ffdec="https://www.free-decompiler.com/flash" xmlns:xlink="http://www.w3.org/1999/xlink" ffdec:objectType="frame" height="14.45px" width="18.3px" xmlns="http://www.w3.org/2000/svg">
  <g transform="matrix(1.0, 0.0, 0.0, 1.0, 7.25, 13.6)">
    <use ffdec:characterId="1385" height="14.45" transform="matrix(1.0, 0.0, 0.0, 1.0, -7.25, -13.6)" width="18.3" xlink:href="#shape0"/>
  </g>
  <defs>
    <g id="shape0" transform="matrix(1.0, 0.0, 0.0, 1.0, 7.25, 13.6)">
      <path d="M6.4 -11.15 L9.25 -10.35 Q9.25 -6.25 7.35 -3.65 5.8 -1.45 3.9 -1.1 1.5 -0.7 -0.75 -1.55 -2.4 -2.35 -3.25 -3.65 -4.2 -5.15 -4.5 -6.85 -5.05 -9.05 -4.85 -11.8 L6.4 -11.15" fill="#000000" fill-opacity="0.4" fill-rule="evenodd" stroke="none"/>
      <path d="M6.4 -11.15 L-4.85 -11.8 Q-5.05 -9.05 -4.5 -6.85 -4.2 -5.15 -3.25 -3.65 -2.4 -2.35 -0.75 -1.55 1.5 -0.7 3.9 -1.1 5.8 -1.45 7.35 -3.65 9.25 -6.25 9.25 -10.35 L6.4 -11.15 M10.8 -11.1 Q10.85 -9.1 10.2 -6.8 L8.95 -3.5 Q7.15 -0.45 4.85 0.2 L-1.2 -0.05 Q-3.2 -0.8 -4.7 -3.2 -5.95 -5.3 -6.25 -7.85 -6.55 -10.35 -6.1 -13.2 -4.0 -13.5 0.15 -13.25 L7.45 -12.3 Q10.0 -11.7 10.8 -11.1" fill="#dbdbdb" fill-rule="evenodd" stroke="none"/>
      <path d="M10.8 -11.1 Q10.0 -11.7 7.45 -12.3 L0.15 -13.25 Q-4.0 -13.5 -6.1 -13.2 -6.55 -10.35 -6.25 -7.85 -5.95 -5.3 -4.7 -3.2 -3.2 -0.8 -1.2 -0.05 L4.85 0.2 Q7.15 -0.45 8.95 -3.5 L10.2 -6.8 Q10.85 -9.1 10.8 -11.1 Z" ffdec:has-small-stroke="true" ffdec:original-stroke-width="0.5" fill="none" stroke="#adadad" stroke-linecap="round" stroke-linejoin="round" stroke-width="1.0"/>
      <path d="M10.8 -10.7 Q10.0 -11.3 7.45 -11.9 L0.15 -12.85 Q-4.0 -13.1 -6.1 -12.8" ffdec:has-small-stroke="true" ffdec:original-stroke-width="0.5" fill="none" stroke="#ffffff" stroke-linecap="round" stroke-linejoin="round" stroke-width="1.0"/>
      <path d="M9.05 -10.05 L6.2 -10.75 -4.75 -11.45" ffdec:has-small-stroke="true" ffdec:original-stroke-width="0.5" fill="none" stroke="#000033" stroke-linecap="round" stroke-linejoin="round" stroke-opacity="0.2" stroke-width="1.0"/>
      <path d="M6.4 -11.15 L-4.85 -11.8 Q-5.05 -9.05 -4.5 -6.85 -4.2 -5.15 -3.25 -3.65 -2.4 -2.35 -0.75 -1.55 1.5 -0.7 3.9 -1.1 5.8 -1.45 7.35 -3.65 9.25 -6.25 9.25 -10.35 L6.4 -11.15 M10.8 -11.1 Q10.0 -11.7 7.45 -12.3 L0.15 -13.25 Q-4.0 -13.5 -6.1 -13.2 -6.55 -10.35 -6.25 -7.85 -5.95 -5.3 -4.7 -3.2 -3.2 -0.8 -1.2 -0.05 L4.85 0.2 Q7.15 -0.45 8.95 -3.5 L10.2 -6.8 Q10.85 -9.1 10.8 -11.1 Z" ffdec:has-small-stroke="true" ffdec:original-stroke-width="0.5" fill="none" stroke="#adadad" stroke-linecap="round" stroke-linejoin="round" stroke-width="1.0"/>
      <path d="M-6.65 -12.65 L-6.65 -9.55" fill="none" stroke="#666666" stroke-linecap="round" stroke-linejoin="round" stroke-width="1.2000000000000002"/>
      <path d="M-6.4 -12.35 L-6.65 -12.2 Q-6.8 -12.2 -6.95 -12.35 L-7.05 -12.6 -6.95 -12.9 -6.65 -13.0 -6.4 -12.9 -6.25 -12.6 -6.4 -12.35" fill="#ffffff" fill-opacity="0.4" fill-rule="evenodd" stroke="none"/>
      <path d="M-6.85 -11.9 L-6.85 -9.45" ffdec:has-small-stroke="true" ffdec:original-stroke-width="0.5" fill="none" stroke="#000000" stroke-linecap="round" stroke-linejoin="round" stroke-opacity="0.2" stroke-width="1.0"/>
    </g>
  </defs>
</svg>
