<?xml version="1.0" encoding="UTF-8" standalone="no"?>
<svg xmlns:ffdec="https://www.free-decompiler.com/flash" xmlns:xlink="http://www.w3.org/1999/xlink" ffdec:objectType="frame" height="2.8px" width="3.95px" xmlns="http://www.w3.org/2000/svg">
  <g transform="matrix(1.0, 0.0, 0.0, 1.0, 0.2, 0.3)">
    <use ffdec:characterId="74" height="2.8" transform="matrix(1.0, 0.0, 0.0, 1.0, -0.2, -0.3)" width="3.95" xlink:href="#shape0"/>
  </g>
  <defs>
    <g id="shape0" transform="matrix(1.0, 0.0, 0.0, 1.0, 0.2, 0.3)">
      <path d="M3.25 1.1 L2.8 1.75 1.8 2.0 0.7 1.75 Q0.3 1.5 0.3 1.1 0.3 0.75 0.7 0.45 L1.8 0.2 2.8 0.45 3.25 1.1" fill="#fff29c" fill-rule="evenodd" stroke="none"/>
      <path d="M3.25 1.1 L2.8 1.75 1.8 2.0 0.7 1.75 Q0.3 1.5 0.3 1.1 0.3 0.75 0.7 0.45 L1.8 0.2 2.8 0.45 3.25 1.1 Z" fill="none" stroke="#ffcf58" stroke-linecap="round" stroke-linejoin="round" stroke-width="1.0"/>
    </g>
  </defs>
</svg>
