<?xml version="1.0" encoding="UTF-8" standalone="no"?>
<svg xmlns:ffdec="https://www.free-decompiler.com/flash" xmlns:xlink="http://www.w3.org/1999/xlink" ffdec:objectType="frame" height="53.95px" width="118.1px" xmlns="http://www.w3.org/2000/svg">
  <g transform="matrix(1.0, 0.0, 0.0, 1.0, -6.0, 1.15)">
    <use ffdec:characterId="2281" height="53.95" transform="matrix(1.0, 0.0, 0.0, 1.0, 6.0, -1.15)" width="118.1" xlink:href="#shape0"/>
  </g>
  <defs>
    <g id="shape0" transform="matrix(1.0, 0.0, 0.0, 1.0, -6.0, 1.15)">
      <path d="M110.25 0.65 L110.25 50.1 43.35 50.8 43.35 49.35 21.35 50.2 43.35 49.35 43.35 50.8 110.25 50.1 110.25 51.05 41.25 51.8 41.25 50.3 21.35 51.1 21.35 50.2 21.35 1.35 108.5 0.65 21.35 1.35 21.35 0.0 108.5 0.0 108.5 0.65 109.0 0.65 110.25 0.65" fill="url(#gradient0)" fill-rule="evenodd" stroke="none"/>
      <path d="M122.35 8.45 L122.35 8.5 121.75 8.4 122.35 8.5 122.35 9.15 123.0 9.15 123.0 10.65 123.1 10.65 123.1 28.6 122.75 28.6 122.75 31.0 122.75 32.6 121.85 32.85 121.0 33.1 120.3 33.4 121.0 33.1 120.35 33.4 120.3 33.4 119.15 33.4 119.15 34.3 Q118.9 34.65 118.9 35.05 118.9 35.9 120.75 37.3 L122.0 38.25 122.45 38.65 122.45 38.8 122.65 38.8 122.75 38.9 120.05 39.85 118.55 40.6 117.65 40.6 117.1 40.6 117.1 41.25 117.1 41.95 117.0 42.3 117.0 42.35 117.05 42.45 117.1 42.55 117.1 42.6 117.45 43.05 121.35 44.2 122.55 44.35 123.0 44.4 123.0 44.55 123.1 44.55 123.1 45.1 122.85 45.1 122.85 50.75 110.25 51.05 110.25 50.1 110.25 0.65 111.1 0.65 112.2 0.65 112.85 2.05 Q113.4 3.5 113.0 8.9 115.8 7.95 117.6 7.95 L117.65 7.95 121.75 8.4 122.35 8.45 M122.35 49.8 L110.25 50.1 122.35 49.8 M120.2 32.5 Q120.6 31.8 122.05 31.25 L122.75 31.0 122.05 31.25 Q120.6 31.8 120.2 32.5 M120.9 38.1 Q119.25 38.9 117.65 40.6 119.25 38.9 120.9 38.1" fill="url(#gradient1)" fill-rule="evenodd" stroke="none"/>
      <path d="M122.35 6.75 L122.35 8.45 121.75 8.4 117.65 7.95 117.6 7.95 Q115.8 7.95 113.0 8.9 113.4 3.5 112.85 2.05 L112.2 0.65 114.2 0.65 114.25 0.65 114.6 0.85 114.7 0.9 Q115.05 1.1 115.55 1.3 117.85 2.55 120.05 4.15 121.4 5.15 122.35 6.75 M114.2 0.65 L114.6 0.85 114.2 0.65" fill="url(#gradient2)" fill-rule="evenodd" stroke="none"/>
      <path d="M21.35 51.1 L9.45 51.8 9.45 43.65 9.75 43.65 9.8 43.65 9.95 43.6 10.15 43.6 10.85 43.6 13.75 43.6 13.75 42.85 13.8 42.85 13.85 42.8 14.3 42.65 14.55 42.6 14.7 42.5 16.05 42.5 16.05 41.6 16.6 41.6 16.6 40.4 16.05 40.4 16.0 40.4 15.55 39.95 12.05 38.8 11.75 38.75 11.75 37.25 12.35 37.0 12.75 36.75 13.25 36.35 14.1 36.35 14.1 34.95 13.3 34.95 Q12.45 34.25 9.45 33.85 L7.75 12.7 9.25 12.7 9.45 12.7 7.2 0.9 7.05 0.1 8.6 0.1 12.6 0.1 12.6 0.0 21.35 0.0 21.35 1.35 21.35 50.2 10.85 50.8 10.85 43.6 10.85 50.8 21.35 50.2 21.35 51.1 M10.05 11.7 L11.15 13.4 8.9 1.5 21.35 1.35 8.9 1.5 11.15 13.4 10.05 11.7 M8.55 1.5 L8.9 1.5 8.6 0.1 8.9 1.5 8.55 1.5 M9.25 12.7 L10.85 32.9 Q15.0 33.4 15.0 34.6 L14.65 35.35 15.0 34.6 Q15.0 33.4 10.85 32.9 L9.25 12.7 M15.55 39.95 L16.05 40.4 15.55 39.95 M12.4 37.6 L13.45 37.8 Q17.7 38.7 17.7 40.1 17.7 40.5 17.2 40.9 17.7 40.5 17.7 40.1 17.7 38.7 13.45 37.8 L12.4 37.6" fill="url(#gradient3)" fill-rule="evenodd" stroke="none"/>
      <path d="M122.35 8.5 L123.1 8.6 122.95 8.2 122.65 7.35 122.35 6.75 Q121.4 5.15 120.05 4.15 117.85 2.55 115.55 1.3 115.05 1.1 114.7 0.9 L114.6 0.85 114.2 0.65 Q112.9 0.05 112.15 0.0 L111.85 0.0 108.5 0.0 21.35 0.0 12.6 0.0 7.0 0.0 7.2 0.9 9.45 12.7 9.25 12.7 7.75 12.7 9.45 33.85 Q12.45 34.25 13.3 34.95 L13.6 35.55 Q13.6 36.15 12.75 36.75 L12.35 37.0 11.75 37.25 11.15 37.5 9.45 38.05 9.45 38.35 8.65 38.25 9.45 38.05 M122.35 8.5 L121.75 8.4 117.65 7.95 117.6 7.95 Q115.8 7.95 113.0 8.9 113.4 3.5 112.85 2.05 L112.2 0.65 111.85 0.0 M123.1 10.65 L123.1 8.6 M121.85 32.85 L123.1 32.6 123.1 28.6 123.1 10.65 M122.65 38.8 L122.75 38.9 120.05 39.85 118.55 40.6 Q117.35 41.3 117.1 41.95 L117.0 42.3 117.0 42.35 117.05 42.45 117.1 42.55 117.1 42.6 117.45 43.05 121.35 44.2 122.55 44.35 123.1 44.4 123.1 44.55 123.1 45.1 123.1 50.75 122.85 50.75 110.25 51.05 41.25 51.8 41.25 50.3 21.35 51.1 9.45 51.8 9.45 43.65 9.75 43.65 9.8 43.65 9.95 43.6 10.15 43.6 13.75 42.85 M13.8 42.85 L13.85 42.8 14.3 42.65 14.55 42.6 M14.7 42.5 Q16.25 41.8 16.25 41.05 L16.05 40.4 15.55 39.95 12.05 38.8 11.75 38.75 9.45 38.35 M122.0 38.25 L122.65 38.8 M122.0 38.25 L120.75 37.3 Q118.9 35.9 118.9 35.05 118.9 34.65 119.15 34.3 119.5 33.8 120.3 33.4 L121.0 33.1 121.85 32.85" fill="none" stroke="#d58611" stroke-linecap="round" stroke-linejoin="round" stroke-width="2.0"/>
      <path d="M111.1 0.65 L110.25 0.65 109.0 0.65 M110.25 50.1 L122.35 49.8 M122.75 31.0 L122.05 31.25 Q120.6 31.8 120.2 32.5 M108.5 0.65 L21.35 1.35 8.9 1.5 11.15 13.4 10.05 11.7 M21.35 50.2 L43.35 49.35 43.35 50.8 110.25 50.1 M117.65 40.6 L117.1 41.25 M117.65 40.6 Q119.25 38.9 120.9 38.1 M8.6 0.1 L8.9 1.5 8.55 1.5 M14.65 35.35 L15.0 34.6 Q15.0 33.4 10.85 32.9 L9.25 12.7 M17.2 40.9 Q17.7 40.5 17.7 40.1 17.7 38.7 13.45 37.8 L12.4 37.6 M10.85 43.6 L10.85 50.8 21.35 50.2" fill="none" stroke="#ffffff" stroke-linecap="round" stroke-linejoin="round" stroke-opacity="0.5019608" stroke-width="2.5"/>
    </g>
    <radialGradient cx="0" cy="0" gradientTransform="matrix(0.1976, 0.0, 0.0, 0.083, 92.4, 19.9)" gradientUnits="userSpaceOnUse" id="gradient0" r="819.2" spreadMethod="pad">
      <stop offset="0.0" stop-color="#fbe6c8"/>
      <stop offset="0.44313725490196076" stop-color="#f4c279"/>
      <stop offset="0.615686274509804" stop-color="#ed9b23"/>
      <stop offset="0.8470588235294118" stop-color="#ed9b23"/>
    </radialGradient>
    <radialGradient cx="0" cy="0" gradientTransform="matrix(0.0998, 0.0, 0.0, 0.083, 101.1, 19.9)" gradientUnits="userSpaceOnUse" id="gradient1" r="819.2" spreadMethod="pad">
      <stop offset="0.0" stop-color="#fbe6c8"/>
      <stop offset="0.44313725490196076" stop-color="#f4c279"/>
      <stop offset="0.615686274509804" stop-color="#ed9b23"/>
      <stop offset="0.8470588235294118" stop-color="#ed9b23"/>
    </radialGradient>
    <radialGradient cx="0" cy="0" gradientTransform="matrix(0.0031, -0.0049, 0.0085, 0.0045, 114.4, 6.1)" gradientUnits="userSpaceOnUse" id="gradient2" r="819.2" spreadMethod="pad">
      <stop offset="0.5411764705882353" stop-color="#fcedd8"/>
      <stop offset="0.7411764705882353" stop-color="#f7d5a2"/>
    </radialGradient>
    <radialGradient cx="0" cy="0" gradientTransform="matrix(0.1328, 0.0, 0.0, 0.083, 69.1, 19.9)" gradientUnits="userSpaceOnUse" id="gradient3" r="819.2" spreadMethod="pad">
      <stop offset="0.0" stop-color="#fbe6c8"/>
      <stop offset="0.44313725490196076" stop-color="#f4c279"/>
      <stop offset="0.615686274509804" stop-color="#ed9b23"/>
      <stop offset="0.8470588235294118" stop-color="#ed9b23"/>
    </radialGradient>
  </defs>
</svg>
