<?xml version="1.0" encoding="UTF-8" standalone="no"?>
<svg xmlns:ffdec="https://www.free-decompiler.com/flash" xmlns:xlink="http://www.w3.org/1999/xlink" ffdec:objectType="frame" height="81.95px" width="112.4px" xmlns="http://www.w3.org/2000/svg">
  <g transform="matrix(1.0, 0.0, 0.0, 1.0, 2.6, 15.3)">
    <use ffdec:characterId="1098" height="33.2" transform="matrix(1.0, 0.0, 0.0, 1.0, 3.75, 31.3)" width="105.4" xlink:href="#shape0"/>
    <use ffdec:characterId="1119" height="93.35" transform="matrix(0.8779, 0.0, 0.0, 0.8779, -2.6173, -15.303)" width="127.7" xlink:href="#sprite0"/>
    <use ffdec:characterId="1123" height="29.2" transform="matrix(0.8815, 0.0, 0.0, 0.8815, 16.3092, 39.8)" width="106.05" xlink:href="#sprite11"/>
  </g>
  <defs>
    <g id="shape0" transform="matrix(1.0, 0.0, 0.0, 1.0, -3.75, -31.3)">
      <path d="M109.15 45.5 Q109.15 52.3 93.7 57.75 78.3 63.3 56.4 64.3 34.6 65.3 19.15 61.15 3.75 57.1 3.75 50.3 3.75 43.5 19.15 38.0 34.6 32.5 56.4 31.5 78.3 30.5 93.7 34.6 109.15 38.7 109.15 45.5" fill="#72ce46" fill-rule="evenodd" stroke="none"/>
    </g>
    <g id="sprite0" transform="matrix(1.0, 0.0, 0.0, 1.0, 58.0, 85.55)">
      <use ffdec:characterId="1099" height="26.8" transform="matrix(1.0, 0.0, 0.0, 1.0, -51.2, -34.7)" width="119.35" xlink:href="#shape1"/>
      <filter id="filter0">
        <feConvolveMatrix divisor="4.0" in="SourceGraphic" kernelMatrix="1 1 1 1" order="2 2" result="filterResult0"/>
      </filter>
      <use ffdec:characterId="1101" filter="url(#filter0)" height="29.65" transform="matrix(1.0, 0.0, 0.0, 1.0, -58.0, -21.85)" width="120.1" xlink:href="#sprite1"/>
      <use ffdec:characterId="1102" height="84.65" transform="matrix(1.0, 0.0, 0.0, 1.0, -47.15, -85.55)" width="98.15" xlink:href="#shape3"/>
      <use ffdec:characterId="1104" height="17.0" transform="matrix(0.2271, 0.9739, -0.9739, 0.2271, 31.1996, -40.1646)" width="3.05" xlink:href="#sprite2"/>
      <use ffdec:characterId="1106" height="16.55" transform="matrix(1.2807, -0.3213, 0.063, 1.2936, -6.6109, -30.1479)" width="2.7" xlink:href="#sprite3"/>
      <use ffdec:characterId="1106" height="16.55" transform="matrix(1.2869, -0.1933, 0.0429, 1.2966, 45.5159, -48.5899)" width="2.7" xlink:href="#sprite4"/>
      <use ffdec:characterId="1104" height="17.0" transform="matrix(-0.1147, 1.0064, 0.9629, 0.27, -41.372, -27.8435)" width="3.05" xlink:href="#sprite5"/>
      <use ffdec:characterId="1107" height="81.5" transform="matrix(1.0, 0.0, 0.0, 1.0, -44.0, -83.35)" width="93.95" xlink:href="#shape8"/>
      <use ffdec:characterId="1109" height="6.1" transform="matrix(-0.6556, -0.0654, -0.0316, 0.6427, 21.9235, -22.3215)" width="4.9" xlink:href="#sprite6"/>
      <use ffdec:characterId="1109" height="6.1" transform="matrix(-0.6387, -0.1614, -0.126, 0.631, 40.4542, -26.9915)" width="4.9" xlink:href="#sprite6"/>
      <use ffdec:characterId="1111" height="24.05" transform="matrix(0.5498, 0.1916, 0.0, 0.5498, -21.2562, -20.3717)" width="21.5" xlink:href="#sprite7"/>
      <use ffdec:characterId="1117" height="75.6" transform="matrix(0.6334, 0.0, 0.0, 0.6334, -5.0164, -44.4506)" width="70.95" xlink:href="#sprite8"/>
      <use ffdec:characterId="1118" height="31.55" transform="matrix(1.0, 0.0, 0.0, 1.0, -51.2, -29.75)" width="120.9" xlink:href="#shape14"/>
    </g>
    <g id="shape1" transform="matrix(1.0, 0.0, 0.0, 1.0, 51.2, 34.7)">
      <path d="M62.9 -24.65 L64.25 -23.85 M-42.75 -20.1 Q-38.9 -22.3 -33.2 -24.4 -15.65 -30.75 9.2 -32.05 33.55 -33.35 50.85 -28.95 L51.3 -28.85 51.55 -28.8 56.9 -27.2 57.2 -27.1 59.8 -26.1 62.9 -24.65 M-45.5 -18.3 L-42.75 -20.1 M-48.3 -15.8 L-45.5 -18.3 M-50.45 -12.2 L-50.25 -12.7 Q-49.65 -14.3 -48.3 -15.8 M-50.7 -14.1 L-50.7 -13.75 -50.7 -10.5 -50.45 -12.2 M-48.7 -9.45 L-48.7 -10.7 M-50.7 -16.6 L-50.7 -14.1 M-50.4 -8.4 L-50.65 -9.6 -50.7 -10.1 -50.7 -10.5 M-48.7 -9.45 L-48.7 -8.4" ffdec:has-small-stroke="true" ffdec:original-stroke-width="1.0" fill="none" stroke="#000000" stroke-linecap="round" stroke-linejoin="round" stroke-width="1.1391027757982377"/>
      <path d="M65.6 -25.6 L63.2 -27.1 62.9 -27.25 59.8 -28.65 56.9 -29.7 53.8 -30.6 51.55 -31.2 51.3 -31.25 50.85 -31.35 Q33.55 -35.35 9.2 -34.15 -15.65 -32.95 -33.2 -27.1 -38.95 -25.15 -42.8 -23.05 L-45.5 -21.4 -48.3 -19.1 Q-50.65 -16.7 -50.7 -14.1 M65.6 -25.6 L67.5 -23.85 M-50.7 -13.75 L-50.45 -12.2 -50.25 -11.75 Q-49.75 -10.55 -48.7 -9.45 L-47.55 -8.4" ffdec:has-small-stroke="true" ffdec:original-stroke-width="0.5" fill="none" stroke="#000000" stroke-linecap="round" stroke-linejoin="round" stroke-width="1.1391027757982377"/>
      <path d="M62.9 -27.25 L62.9 -28.0 M65.6 -25.6 L65.6 -26.6 M62.9 -27.25 L62.9 -24.65 M51.3 -31.25 L51.3 -31.7 M-42.8 -23.05 L-42.75 -20.1 M51.3 -28.85 L51.3 -31.25 M53.8 -30.6 L53.8 -31.2 M53.8 -30.6 L53.8 -28.5 M56.9 -27.2 L56.9 -29.7 56.9 -30.5 M59.8 -28.65 L59.8 -29.4 M59.8 -26.1 L59.8 -28.65 M67.8 -23.85 L67.8 -24.5 M65.6 -23.85 L65.6 -25.6 M-45.5 -21.4 L-45.5 -18.3 M-42.8 -24.0 L-42.8 -23.05 M-45.5 -22.2 L-45.5 -21.4 M-48.3 -19.1 L-48.3 -15.8 M-48.3 -19.1 L-48.3 -20.2" ffdec:has-small-stroke="true" ffdec:original-stroke-width="0.7" fill="none" stroke="#000000" stroke-linecap="round" stroke-linejoin="round" stroke-width="1.1391027757982377"/>
    </g>
    <g id="sprite1" transform="matrix(1.0, 0.0, 0.0, 1.0, 0.0, 0.0)">
      <use ffdec:characterId="1100" height="29.65" transform="matrix(1.0, 0.0, 0.0, 1.0, 0.0, 0.0)" width="120.1" xlink:href="#shape2"/>
    </g>
    <g id="shape2" transform="matrix(1.0, 0.0, 0.0, 1.0, 0.0, 0.0)">
      <path d="M111.15 19.3 L115.65 18.8 Q120.1 18.8 120.1 19.75 120.1 20.15 119.55 20.55 L118.6 21.0 118.55 21.05 Q117.0 21.65 115.0 21.65 L111.55 21.25 Q110.0 20.85 110.0 20.25 110.0 19.7 111.15 19.3 M92.3 9.1 Q95.0 9.3 94.2 9.5 94.2 11.25 92.45 12.75 91.7 12.95 92.85 13.15 L76.9 16.45 77.0 18.4 78.05 18.35 50.4 24.25 24.25 17.0 30.2 15.85 23.3 13.9 13.4 11.0 7.25 9.25 0.0 7.0 37.3 1.1 44.3 0.7 45.4 0.7 55.7 4.5 65.2 7.55 Q72.35 10.1 76.4 12.65 76.55 13.55 101.05 0.0 102.15 6.65 109.0 4.75 111.3 4.8 92.3 9.1 M86.45 29.65 L82.95 29.25 Q81.35 28.85 81.35 28.25 81.35 27.7 82.5 27.3 L87.05 26.8 Q91.6 26.8 91.6 27.75 91.6 28.15 91.05 28.55 L90.05 29.0 90.0 29.05 Q88.4 29.65 86.45 29.65" fill="#000000" fill-opacity="0.3019608" fill-rule="evenodd" stroke="none"/>
    </g>
    <g id="shape3" transform="matrix(1.0, 0.0, 0.0, 1.0, 47.15, 85.55)">
      <path d="M-23.15 -9.95 L-42.25 -15.65 -42.3 -18.85 -23.3 -12.85 -23.15 -9.95 M-40.95 -19.75 Q-41.6 -22.05 -41.85 -24.15 L-23.6 -18.25 -23.3 -12.95 -40.95 -19.75 M31.1 -48.45 Q26.75 -52.05 22.9 -56.4 L30.9 -54.1 31.1 -48.45" fill="#a98166" fill-rule="evenodd" stroke="none"/>
      <path d="M49.85 -58.9 L51.0 -17.1 45.9 -15.25 44.55 -57.3 49.85 -58.9 M-1.0 -3.5 L-1.0 -2.55 -6.25 -0.9 -8.2 -37.3 -7.1 -37.0 -2.15 -38.5 -1.25 -11.35 -1.25 -11.2 -1.0 -3.5 M10.7 -37.5 Q24.35 -39.7 37.65 -43.7 L37.75 -43.65 37.5 -38.25 35.6 -37.6 Q23.65 -33.75 10.7 -31.25 L10.7 -37.5" fill="#eb987a" fill-rule="evenodd" stroke="none"/>
      <path d="M-6.25 -0.9 L-23.0 -6.85 -23.15 -9.95 -23.3 -12.85 -23.3 -12.95 -23.6 -18.25 -41.85 -24.15 -43.4 -24.65 -44.0 -29.3 -23.95 -23.95 -24.95 -42.45 -8.2 -37.3 -6.25 -0.9" fill="#a4493a" fill-rule="evenodd" stroke="none"/>
      <path d="M-34.0 -46.55 L-26.15 -45.8 -26.65 -44.5 -34.0 -46.55" fill="#364f7e" fill-rule="evenodd" stroke="none"/>
      <path d="M32.7 -69.35 L32.65 -68.6 Q32.1 -62.35 31.9 -55.9 L31.85 -53.8 31.45 -56.2 29.9 -65.85 29.9 -65.9 31.5 -78.35 32.7 -69.55 32.7 -69.35 M-6.4 -48.1 L-4.4 -43.3 -7.1 -37.0 -7.45 -40.0 -7.5 -40.25 -6.7 -43.3 -6.65 -43.45 Q-7.4 -45.75 -8.35 -47.15 L-8.85 -47.85 Q-8.5 -55.1 -10.35 -61.65 -7.7 -56.8 -6.6 -48.7 L-6.6 -48.6 -6.4 -48.1" fill="#000e2a" fill-rule="evenodd" stroke="none"/>
      <path d="M-21.25 -65.65 L-9.9 -69.0 3.25 -65.85 -10.5 -62.1 -21.25 -65.65 M17.75 -82.2 L29.1 -85.55 Q36.2 -83.3 44.1 -83.55 38.15 -80.15 31.5 -78.35 L17.75 -82.2" fill="#6484bf" fill-rule="evenodd" stroke="none"/>
      <path d="M-42.3 -18.85 Q-41.15 -19.2 -40.95 -19.65 L-40.95 -19.75 -23.3 -12.95 -23.3 -12.85 -42.3 -18.85" fill="#cba388" fill-rule="evenodd" stroke="none"/>
      <path d="M45.9 -15.25 L43.05 -16.2 43.0 -16.2 44.95 -16.75 43.2 -56.9 44.45 -57.3 44.55 -57.3 45.9 -15.25" fill="#5f0b07" fill-rule="evenodd" stroke="none"/>
      <path d="M-26.15 -45.8 L-25.2 -47.7 -7.45 -40.0 -7.1 -37.0 -8.2 -37.3 -24.95 -42.45 -27.25 -43.1 -26.65 -44.5 -26.15 -45.8 M-24.5 -53.45 Q-22.15 -58.35 -21.25 -65.65 L-10.5 -62.1 -10.35 -61.65 Q-8.5 -55.1 -8.85 -47.85 L-8.35 -47.15 -24.5 -53.45" fill="url(#gradient0)" fill-rule="evenodd" stroke="none"/>
      <path d="M44.7 -77.15 L32.7 -69.35 32.7 -69.55 31.5 -78.35 Q38.15 -80.15 44.1 -83.55 L44.7 -77.15 M32.65 -68.6 L47.5 -72.7 50.75 -59.2 49.85 -58.9 44.55 -57.3 44.45 -57.3 43.2 -56.9 32.25 -53.7 31.85 -53.8 31.9 -55.9 Q32.1 -62.35 32.65 -68.6 M3.25 -65.85 L4.2 -62.85 4.75 -61.05 5.55 -58.7 7.0 -55.2 Q7.1 -54.2 6.5 -51.25 L6.7 -51.0 6.4 -51.25 -6.6 -48.6 -6.6 -48.7 Q-7.7 -56.8 -10.35 -61.65 L-10.5 -62.1 3.25 -65.85 M9.75 -48.1 L10.35 -47.75 12.55 -42.8 10.95 -42.35 10.95 -42.4 -2.15 -38.5 -7.1 -37.0 -4.4 -43.3 -6.4 -48.1 10.35 -47.55 9.75 -48.1" fill="url(#gradient1)" fill-rule="evenodd" stroke="none"/>
      <path d="M-25.2 -47.7 L-24.6 -48.65 -24.5 -48.9 -6.7 -43.3 -7.5 -40.25 -7.45 -40.0 -25.2 -47.7" fill="url(#gradient2)" fill-rule="evenodd" stroke="none"/>
      <path d="M-24.5 -48.9 Q-24.25 -50.35 -24.5 -53.45 L-8.35 -47.15 Q-7.4 -45.75 -6.65 -43.45 L-6.7 -43.3 -24.5 -48.9" fill="url(#gradient3)" fill-rule="evenodd" stroke="none"/>
      <path d="M12.0 -60.2 L14.65 -67.75 31.45 -56.2 31.85 -53.8 30.9 -54.1 22.9 -56.4 Q20.65 -58.95 18.6 -61.75 L12.0 -60.2 M14.95 -68.75 Q16.9 -75.4 17.75 -82.2 L31.5 -78.35 29.9 -65.9 29.9 -65.85 14.95 -68.75" fill="url(#gradient4)" fill-rule="evenodd" stroke="none"/>
      <path d="M5.55 -58.7 L12.0 -60.2 18.6 -61.75 Q20.65 -58.95 22.9 -56.4 26.75 -52.05 31.1 -48.45 33.9 -46.2 38.65 -43.9 L37.75 -43.75 37.65 -43.7 Q24.35 -39.7 10.7 -37.5 L10.95 -42.35 12.55 -42.8 10.35 -47.75 9.75 -48.1 6.7 -51.0 6.5 -51.25 Q7.1 -54.2 7.0 -55.2 L5.55 -58.7" fill="url(#gradient5)" fill-rule="evenodd" stroke="none"/>
      <path d="M-6.6 -48.6 L6.4 -51.25 6.7 -51.0 9.75 -48.1 10.35 -47.55 -6.4 -48.1 -6.6 -48.6" fill="url(#gradient6)" fill-rule="evenodd" stroke="none"/>
      <path d="M14.65 -67.75 L14.95 -68.75 29.9 -65.85 31.45 -56.2 14.65 -67.75" fill="url(#gradient7)" fill-rule="evenodd" stroke="none"/>
      <path d="M44.7 -77.15 L44.7 -76.9 47.45 -72.85 47.5 -72.7 32.65 -68.6 32.7 -69.35 44.7 -77.15" fill="url(#gradient8)" fill-rule="evenodd" stroke="none"/>
      <path d="M43.0 -16.2 L39.5 -17.05 39.5 -15.4 -1.0 -3.5 -1.25 -11.2 -1.15 -11.2 11.7 -10.65 12.4 -13.2 12.4 -13.3 10.9 -14.9 -1.25 -11.35 -2.15 -38.5 10.95 -42.4 10.95 -42.35 10.7 -37.5 10.7 -31.25 Q23.65 -33.75 35.6 -37.6 L37.5 -38.25 37.75 -43.65 37.75 -43.75 38.65 -43.9 Q33.9 -46.2 31.1 -48.45 L30.9 -54.1 31.85 -53.8 32.25 -53.7 43.2 -56.9 44.95 -16.75 43.0 -16.2" fill="url(#gradient9)" fill-rule="evenodd" stroke="none"/>
      <path d="M-1.15 -11.2 L-1.25 -11.2 -1.25 -11.35 10.9 -14.9 12.4 -13.3 12.4 -13.2 -1.15 -11.2" fill="url(#gradient10)" fill-rule="evenodd" stroke="none"/>
      <path d="M12.4 -13.2 L11.7 -10.65 -1.15 -11.2 12.4 -13.2" fill="url(#gradient11)" fill-rule="evenodd" stroke="none"/>
      <path d="M-44.0 -29.3 L-47.15 -30.15 Q-40.35 -35.4 -34.0 -46.55 L-26.65 -44.5 -27.25 -43.1 -24.95 -42.45 -23.95 -23.95 -44.0 -29.3" fill="url(#gradient12)" fill-rule="evenodd" stroke="none"/>
      <path d="M43.2 -57.0 L43.25 -57.0 44.25 -33.45 44.25 -16.75 44.25 -16.55 43.3 -16.25 43.25 -16.75 43.2 -57.0 M41.95 -56.4 L41.6 -27.05 41.45 -26.7 Q41.3 -26.55 41.1 -26.55 40.9 -26.55 40.75 -26.7 40.6 -26.85 40.6 -27.05 L40.95 -56.3 41.9 -56.6 41.95 -56.4 M37.85 -55.2 L37.7 -44.35 36.7 -44.8 36.85 -55.05 37.85 -55.35 37.85 -55.2 M35.7 -54.65 L35.75 -54.4 36.0 -45.5 35.95 -45.25 35.0 -45.8 34.75 -54.4 35.7 -54.65 M33.5 -54.0 L33.6 -53.75 33.7 -47.2 33.55 -46.85 33.45 -46.75 32.7 -47.2 32.6 -53.75 33.5 -54.0 M39.9 -55.65 L39.25 -15.35 38.35 -15.05 38.25 -15.3 38.9 -55.65 39.8 -55.95 39.9 -55.65 M37.6 -38.3 L37.2 -14.7 37.05 -14.35 36.9 -14.25 36.7 -14.2 Q36.5 -14.2 36.35 -14.35 L36.2 -14.7 36.6 -37.95 37.6 -38.3 M1.0 -39.45 L1.95 -39.75 2.0 -39.55 3.0 -4.7 2.05 -4.4 2.0 -4.55 1.0 -39.45 M35.75 -32.3 L36.0 -32.0 35.95 -31.65 35.65 -31.4 10.7 -24.5 10.35 -24.55 10.4 -23.3 10.55 -23.45 10.7 -23.5 35.3 -30.05 35.65 -30.0 35.9 -29.7 35.85 -29.35 35.55 -29.1 10.95 -22.55 10.55 -22.6 10.4 -22.75 10.45 -21.45 10.6 -21.5 35.2 -28.35 35.55 -28.3 35.8 -28.0 35.75 -27.65 35.45 -27.4 10.85 -20.55 10.45 -20.6 10.5 -19.45 10.65 -19.5 35.3 -26.35 35.65 -26.3 35.9 -26.0 35.85 -25.65 35.55 -25.4 10.9 -18.55 10.5 -18.6 10.55 -17.15 10.6 -17.3 Q10.7 -17.5 10.9 -17.5 L35.25 -23.7 35.6 -23.65 35.8 -23.45 35.85 -23.35 35.8 -23.0 35.5 -22.75 11.15 -16.55 10.75 -16.6 10.55 -16.9 10.55 -15.35 35.0 -21.95 35.35 -21.9 35.6 -21.6 35.55 -21.25 Q35.4 -21.05 35.25 -21.0 L10.75 -14.35 10.6 -14.35 10.75 -7.15 10.7 -6.95 9.85 -6.7 9.75 -7.15 8.95 -41.85 9.9 -42.15 9.95 -41.9 10.35 -25.45 10.45 -25.45 35.4 -32.35 35.75 -32.3 M35.95 -33.3 L35.65 -33.05 11.0 -26.75 10.6 -26.8 10.4 -27.1 10.45 -27.5 10.75 -27.7 35.4 -34.0 35.75 -33.95 36.0 -33.65 35.95 -33.3 M36.05 -35.75 L35.75 -35.5 11.0 -29.15 10.6 -29.2 10.4 -29.5 10.45 -29.9 10.75 -30.1 35.5 -36.45 35.85 -36.4 36.1 -36.1 36.05 -35.75 M0.15 -39.2 L0.2 -39.0 1.1 -4.3 1.1 -4.15 0.95 -3.95 Q0.8 -3.8 0.6 -3.8 L0.3 -3.9 0.25 -3.95 0.1 -4.25 -0.8 -38.95 0.15 -39.2 M4.15 -40.4 L4.2 -40.15 4.65 -5.15 3.7 -4.9 3.65 -5.05 3.2 -40.15 4.15 -40.4 M-42.25 -18.25 L-41.95 -18.25 -23.3 -12.65 -23.25 -11.7 -23.6 -11.7 -42.25 -17.3 -42.25 -18.25 M-41.2 -19.4 L-40.95 -19.75 -41.0 -20.0 -40.9 -20.05 -40.55 -20.05 -23.4 -14.85 -23.35 -13.85 -23.6 -13.85 -40.85 -19.1 -41.2 -19.4 M-41.3 -21.6 L-41.5 -22.55 -41.15 -22.55 -23.5 -17.1 -23.45 -16.1 -23.65 -16.1 -41.3 -21.6 M12.05 -10.8 L11.65 -10.85 11.45 -11.15 11.5 -11.55 Q11.6 -11.75 11.8 -11.75 L35.1 -17.65 35.45 -17.6 35.7 -17.3 35.65 -16.95 35.35 -16.7 12.05 -10.8 M11.35 -9.45 L11.65 -9.65 35.15 -16.25 35.5 -16.2 35.75 -15.9 35.7 -15.55 35.4 -15.3 11.9 -8.7 11.5 -8.75 11.3 -9.05 11.35 -9.45 M12.5 -13.0 L12.3 -13.3 Q12.2 -13.5 12.35 -13.7 12.45 -13.9 12.65 -13.9 L35.4 -20.15 35.75 -20.1 36.0 -19.8 35.95 -19.45 35.65 -19.2 12.9 -12.95 12.5 -13.0 M8.1 -41.6 L8.25 -41.25 8.7 -6.35 7.75 -6.05 7.7 -6.35 7.25 -41.25 7.25 -41.35 8.1 -41.6 M6.15 -41.0 L6.15 -40.85 6.85 -6.05 6.8 -5.8 5.9 -5.55 5.85 -6.05 5.15 -40.7 6.15 -41.0" fill="#271100" fill-opacity="0.101960786" fill-rule="evenodd" stroke="none"/>
      <path d="M42.6 -56.35 L42.35 -25.75 42.2 -25.4 41.85 -25.25 Q41.65 -25.25 41.5 -25.4 L41.35 -25.75 41.6 -56.4 42.5 -56.65 42.6 -56.35 M39.65 -55.85 L40.45 -56.05 40.6 -55.7 40.1 -23.95 39.5 -23.6 39.5 -15.4 39.0 -15.25 38.95 -15.4 39.6 -55.7 39.65 -55.85 M34.35 -53.8 L34.5 -46.9 34.4 -46.55 34.05 -46.4 33.55 -46.7 33.5 -46.85 33.35 -53.75 33.4 -54.0 34.15 -54.2 34.2 -54.15 34.35 -53.8 M38.45 -43.95 L37.45 -44.45 37.7 -55.25 38.6 -55.55 38.7 -55.25 38.45 -43.95 37.75 -14.9 36.9 -14.6 36.85 -14.6 36.75 -14.85 37.3 -38.3 37.5 -38.4 37.75 -43.75 38.45 -43.95 M35.6 -54.65 L36.35 -54.85 36.4 -54.8 36.55 -54.45 36.6 -45.6 36.45 -45.25 36.3 -45.1 35.6 -45.5 35.6 -45.6 35.55 -54.45 35.6 -54.65 M31.45 -53.9 L32.25 -53.7 32.25 -53.5 32.45 -48.3 32.35 -47.95 Q32.2 -47.8 32.0 -47.8 L31.9 -47.8 31.5 -48.15 31.45 -48.25 31.25 -53.45 31.4 -53.85 31.45 -53.9 M10.25 -42.25 L10.35 -42.25 9.6 -42.05 10.25 -42.25 M35.95 -34.95 L35.65 -34.7 11.1 -28.45 11.0 -28.45 11.0 -26.95 35.3 -33.35 35.65 -33.3 35.9 -33.0 35.85 -32.65 35.55 -32.4 11.05 -25.95 11.05 -24.8 35.2 -31.65 35.55 -31.6 35.8 -31.3 35.75 -30.95 35.45 -30.7 11.15 -23.8 11.05 -23.8 11.1 -22.95 35.1 -29.4 35.45 -29.35 35.7 -29.05 35.65 -28.7 35.35 -28.45 11.1 -21.95 11.1 -21.2 35.25 -27.7 35.6 -27.65 35.85 -27.35 35.8 -27.0 35.5 -26.75 11.15 -20.2 11.15 -19.1 35.0 -25.75 35.35 -25.7 35.6 -25.4 35.55 -25.05 Q35.4 -24.85 35.25 -24.8 L11.2 -18.1 11.2 -17.1 35.05 -23.2 35.4 -23.15 35.65 -22.85 35.6 -22.5 35.3 -22.25 11.2 -16.1 11.3 -10.75 11.35 -10.85 11.65 -11.05 35.2 -17.1 35.55 -17.05 35.8 -16.75 35.75 -16.4 35.45 -16.15 11.9 -10.1 11.5 -10.15 11.3 -10.4 11.35 -7.45 11.25 -7.1 11.2 -7.1 Q11.05 -6.95 10.85 -6.95 L10.7 -6.95 10.5 -7.1 Q10.35 -7.25 10.35 -7.45 L9.75 -41.75 9.9 -42.05 10.45 -42.2 10.6 -42.1 10.75 -41.75 10.95 -29.45 35.4 -35.65 35.75 -35.6 36.0 -35.3 35.95 -34.95 M4.9 -40.25 L5.35 -5.65 5.25 -5.35 4.7 -5.15 4.5 -5.3 4.35 -5.65 3.9 -40.3 4.8 -40.55 4.9 -40.25 M2.5 -39.9 L2.65 -39.55 3.55 -5.15 3.4 -4.8 2.95 -4.65 2.7 -4.8 2.55 -5.1 1.65 -39.5 1.7 -39.65 2.5 -39.9 M0.55 -39.3 L0.7 -38.95 1.6 -4.5 1.55 -4.25 0.9 -4.05 0.75 -4.15 0.6 -4.45 -0.3 -38.9 -0.25 -39.05 0.55 -39.3 M7.0 -41.2 L7.05 -41.0 7.6 -6.05 6.75 -5.75 Q6.6 -5.9 6.6 -6.1 L6.05 -40.95 7.0 -41.2 M7.9 -41.4 L7.9 -41.5 8.75 -41.75 8.9 -41.4 9.5 -7.0 9.35 -6.65 Q9.2 -6.5 9.0 -6.5 L8.75 -6.35 8.65 -6.3 8.65 -6.35 8.5 -7.0 7.9 -41.4 M11.6 -8.9 L11.9 -9.1 35.1 -15.5 35.45 -15.45 35.7 -15.15 35.65 -14.8 35.35 -14.55 12.15 -8.15 11.75 -8.2 11.55 -8.5 Q11.45 -8.7 11.6 -8.9 M12.2 -13.05 L12.5 -13.25 35.0 -19.65 35.35 -19.6 35.6 -19.3 35.55 -18.95 35.25 -18.7 12.75 -12.3 12.35 -12.35 12.15 -12.65 12.2 -13.05 M11.35 -14.65 L11.65 -14.85 35.25 -21.25 35.55 -21.25 35.6 -21.2 35.85 -20.9 35.8 -20.55 35.5 -20.3 11.9 -13.9 11.5 -13.95 11.3 -14.25 11.35 -14.65 M43.95 -16.4 L43.85 -16.7 44.0 -39.35 44.85 -16.7 43.95 -16.4 M-42.2 -17.7 L-41.95 -17.7 -23.3 -12.0 -23.25 -11.0 -23.55 -11.0 -42.25 -16.75 -42.3 -16.8 -42.3 -17.7 -42.2 -17.7 M-42.3 -18.85 L-42.1 -18.85 -41.25 -19.4 -23.4 -14.15 -23.35 -13.1 -23.45 -13.1 -41.55 -18.45 -42.2 -18.8 -42.3 -18.85 M-41.45 -21.95 L-41.15 -21.95 -23.5 -16.55 -23.45 -15.55 -23.65 -15.55 -41.25 -20.95 -41.45 -21.95" fill="#ffffff" fill-opacity="0.2" fill-rule="evenodd" stroke="none"/>
      <path d="M25.9 -53.2 L26.6 -52.5 26.3 -52.3 8.8 -48.35 8.05 -48.1 -5.25 -44.6 -5.65 -44.65 -5.85 -44.95 -5.8 -45.35 -5.5 -45.55 8.45 -49.25 8.1 -49.2 25.9 -53.2 M27.65 -51.55 L28.35 -50.85 28.35 -50.8 28.0 -50.6 10.3 -46.65 10.35 -46.65 -4.45 -42.8 -4.85 -42.85 -5.05 -43.15 -5.0 -43.55 -4.7 -43.75 10.1 -47.6 10.1 -47.65 27.65 -51.55 M12.45 -61.45 L12.7 -61.45 15.0 -60.9 15.2 -60.8 13.6 -60.25 12.45 -60.5 12.2 -60.65 12.45 -61.45 M19.7 -60.4 L18.6 -61.75 30.65 -58.55 30.95 -58.35 31.0 -57.95 30.75 -57.65 30.4 -57.6 20.55 -60.2 20.6 -60.15 19.7 -60.4 M6.3 -50.85 L6.45 -50.9 6.55 -50.9 24.25 -54.9 24.95 -54.2 24.6 -54.0 6.75 -49.95 6.65 -49.95 6.5 -49.9 -6.25 -47.0 -6.6 -47.05 -6.8 -47.4 -6.75 -47.75 -6.45 -47.95 6.3 -50.85 M6.85 -55.15 L7.0 -55.2 20.85 -58.5 21.1 -58.5 31.45 -55.9 Q31.6 -55.9 31.75 -55.7 L31.8 -55.3 31.55 -55.0 31.2 -54.95 22.35 -57.2 21.8 -57.7 -7.15 -50.8 -7.55 -50.85 -7.75 -51.15 -7.7 -51.55 -7.4 -51.75 6.85 -55.15 M6.75 -53.05 L7.0 -53.05 7.1 -53.1 22.55 -56.95 23.1 -56.2 22.85 -56.0 7.35 -52.15 7.1 -52.15 7.0 -52.1 -6.65 -48.95 -7.05 -49.0 -7.25 -49.3 -7.2 -49.7 -6.9 -49.9 6.75 -53.05 M4.9 -60.55 L4.65 -60.35 -8.75 -57.1 -8.85 -57.1 -8.85 -57.05 -9.1 -56.75 -9.5 -56.7 -21.85 -60.6 -22.1 -60.8 -21.95 -61.55 -21.9 -61.55 -21.55 -61.55 -9.35 -57.7 -9.3 -57.85 -9.0 -58.05 4.4 -61.3 4.7 -61.3 4.9 -60.55 M5.15 -59.25 L5.3 -59.3 5.6 -58.4 5.4 -58.3 -8.2 -55.0 -8.5 -55.05 -8.5 -54.7 -8.75 -54.4 -9.15 -54.35 -22.5 -58.65 -22.6 -58.7 -22.35 -59.65 -22.2 -59.6 -8.85 -55.3 -8.8 -55.3 -8.8 -55.35 -8.75 -55.75 -8.45 -55.95 5.15 -59.25 M5.9 -57.45 L6.0 -57.25 6.1 -57.1 6.2 -57.15 19.8 -60.25 20.4 -59.35 20.3 -59.35 6.6 -56.25 6.45 -56.55 -7.95 -53.15 -8.35 -53.2 -8.55 -53.5 -8.5 -53.9 -8.2 -54.1 5.85 -57.45 5.9 -57.45 M4.2 -62.9 L4.05 -62.8 -9.35 -59.0 -9.4 -59.0 -9.55 -58.9 -9.95 -58.85 -21.65 -62.7 -21.7 -62.75 -21.5 -63.7 -21.35 -63.65 -9.8 -59.85 -9.6 -59.95 3.8 -63.75 3.9 -63.8 4.2 -62.9 M12.85 -62.3 L13.2 -63.2 13.3 -63.15 18.25 -61.85 17.2 -61.1 13.05 -62.2 12.85 -62.3 M14.0 -65.65 L14.15 -65.6 30.9 -60.85 31.2 -60.65 31.25 -60.25 31.0 -59.95 30.65 -59.9 13.9 -64.65 13.7 -64.75 14.0 -65.65 M14.5 -66.5 L14.3 -66.6 14.6 -67.5 14.75 -67.45 30.5 -63.55 30.8 -63.35 30.85 -62.95 30.6 -62.65 30.25 -62.6 14.5 -66.5 M14.85 -68.3 L15.1 -69.25 15.2 -69.25 29.95 -65.95 30.3 -65.7 30.35 -65.35 30.15 -65.0 29.75 -64.95 15.0 -68.25 14.85 -68.3 M16.3 -73.75 L16.55 -73.75 30.4 -69.85 30.7 -69.65 30.75 -69.25 30.5 -68.95 30.15 -68.9 16.3 -72.8 16.1 -72.9 16.3 -73.75 M15.7 -70.75 L15.55 -70.8 15.8 -71.75 15.95 -71.7 30.05 -67.85 30.35 -67.65 30.4 -67.25 30.15 -66.95 29.8 -66.9 15.7 -70.75 M16.7 -75.1 L16.6 -75.15 16.75 -76.1 17.0 -76.05 30.7 -71.8 31.0 -71.55 31.05 -71.2 30.8 -70.9 30.4 -70.85 16.7 -75.1 M50.6 -60.05 L50.45 -60.0 32.65 -54.95 32.25 -55.0 32.05 -55.3 32.1 -55.7 32.4 -55.9 50.2 -60.95 50.35 -61.0 50.6 -60.05 M48.75 -66.55 L49.0 -66.55 49.2 -65.7 49.0 -65.6 32.35 -61.2 31.95 -61.25 31.75 -61.55 31.8 -61.95 Q31.9 -62.15 32.1 -62.15 L48.75 -66.55 M49.7 -62.65 L49.95 -62.65 50.15 -61.75 50.0 -61.7 32.35 -56.65 31.95 -56.7 31.75 -57.0 31.8 -57.4 Q31.85 -57.55 32.05 -57.6 L49.7 -62.65 M49.2 -64.6 L49.45 -64.6 49.65 -63.8 49.45 -63.65 32.65 -59.1 32.25 -59.15 32.05 -59.45 32.1 -59.85 Q32.2 -60.05 32.4 -60.05 L49.2 -64.6 M48.25 -68.45 L48.55 -68.45 48.75 -67.65 48.5 -67.5 32.6 -63.35 32.2 -63.4 32.0 -63.7 32.05 -64.1 32.35 -64.3 48.25 -68.45 M47.5 -70.6 L47.85 -70.55 48.1 -70.25 48.05 -69.9 47.75 -69.65 32.4 -65.6 32.0 -65.65 31.8 -65.95 31.85 -66.35 Q31.95 -66.55 32.15 -66.55 L47.5 -70.6 M47.4 -72.6 L47.5 -72.65 47.75 -71.7 47.65 -71.65 32.65 -67.45 32.25 -67.5 32.05 -67.8 32.1 -68.2 32.4 -68.4 47.4 -72.6 M44.3 -81.15 L44.4 -80.1 31.95 -75.05 31.95 -75.0 31.7 -74.7 31.3 -74.65 17.35 -79.0 17.3 -79.05 17.45 -80.0 17.65 -79.95 31.15 -75.75 31.3 -75.85 44.3 -81.15 M46.25 -74.55 L46.4 -74.4 46.65 -74.35 46.5 -74.25 45.95 -73.9 32.8 -69.3 32.4 -69.35 32.15 -69.6 32.15 -70.0 32.45 -70.25 45.6 -74.85 46.0 -74.85 46.25 -74.55 M44.9 -76.6 L45.2 -76.3 45.2 -76.15 45.15 -75.95 44.9 -75.65 32.3 -71.0 31.9 -71.05 31.65 -71.3 31.65 -71.7 31.95 -71.95 44.55 -76.6 44.65 -76.65 44.9 -76.6 M44.4 -78.75 L44.5 -78.8 44.6 -77.75 32.4 -73.0 32.0 -73.05 31.75 -73.3 31.75 -73.25 31.5 -72.95 31.1 -72.9 17.15 -76.95 17.0 -77.05 17.15 -77.9 17.45 -77.9 31.4 -73.85 31.7 -73.65 31.7 -73.55 31.75 -73.7 32.05 -73.95 44.4 -78.75 M37.6 -44.0 L10.95 -38.25 10.85 -38.25 10.8 -39.25 36.75 -44.85 37.95 -44.2 37.6 -44.0 M31.2 -48.4 L32.05 -47.7 31.8 -47.5 12.45 -42.95 12.35 -43.2 11.7 -43.05 -5.9 -38.05 -6.9 -38.05 Q-6.45 -38.25 -6.5 -38.4 L-6.45 -38.8 -6.15 -39.0 11.95 -44.1 12.05 -43.85 31.2 -48.4 M33.8 -46.55 L34.75 -46.0 34.75 -45.9 34.4 -45.7 10.8 -40.25 10.75 -40.25 10.7 -41.25 33.8 -46.55 M30.1 -49.25 L29.8 -49.0 11.7 -44.75 11.55 -45.05 -5.05 -40.25 -5.45 -40.3 -5.65 -40.6 -5.6 -41.0 -5.35 -41.2 10.95 -45.9 11.2 -45.95 11.35 -45.85 11.35 -45.55 29.4 -49.95 30.15 -49.35 30.1 -49.25 M-24.4 -50.35 L-24.2 -50.3 -6.95 -44.2 -6.7 -43.95 -6.65 -43.55 -6.9 -43.3 -7.3 -43.25 -24.4 -49.3 -24.4 -50.35 M-24.5 -52.5 L-24.3 -52.45 -8.3 -47.0 -8.05 -46.75 -8.0 -46.4 -8.25 -46.1 -8.65 -46.05 -24.4 -51.45 -24.5 -52.5 M-24.3 -53.2 L-24.45 -53.3 -24.1 -54.2 -24.0 -54.15 -8.7 -49.2 -8.4 -48.95 -8.35 -48.6 -8.6 -48.3 -9.0 -48.25 -24.3 -53.2 M-24.55 -53.4 L-24.6 -53.45 -24.6 -53.85 -24.55 -53.4 M-23.7 -55.0 L-23.75 -55.4 -23.55 -55.65 -23.15 -55.7 -8.85 -51.6 -8.55 -51.4 -8.5 -51.0 -8.75 -50.7 -9.15 -50.65 -23.45 -54.75 -23.7 -55.0 M-23.05 -57.0 L-23.05 -57.05 -22.75 -57.95 -8.85 -53.55 -8.55 -53.3 -8.5 -52.95 -8.75 -52.65 -9.15 -52.6 -23.05 -57.0 M-41.85 -34.65 L-24.35 -29.8 -24.3 -28.75 -42.1 -33.7 -42.4 -33.95 -42.45 -34.3 -42.4 -34.45 -42.3 -34.55 -42.25 -34.6 -41.85 -34.65 M-39.7 -37.85 L-39.3 -37.9 -24.55 -34.45 -24.5 -33.55 -24.8 -33.5 -39.55 -36.95 -39.85 -37.2 -39.9 -37.55 -39.7 -37.85 M-38.15 -38.8 L-38.45 -39.05 -38.5 -39.4 -38.3 -39.7 -37.9 -39.75 -24.7 -36.6 -24.65 -36.6 -24.6 -35.7 -24.95 -35.65 -38.15 -38.8 M-24.7 -37.45 L-25.0 -37.4 -37.15 -40.5 -37.45 -40.75 -37.5 -40.85 -37.0 -41.5 -36.9 -41.45 -24.75 -38.35 -24.7 -37.45 M-24.8 -40.1 L-24.75 -39.2 -25.1 -39.15 -36.0 -42.2 -36.3 -42.45 -36.35 -42.55 -36.2 -42.9 -36.0 -43.15 -35.75 -43.15 -24.85 -40.1 -24.8 -40.1 M-25.2 -41.9 L-24.9 -41.65 -24.85 -41.3 -24.85 -41.25 -25.1 -41.0 -25.5 -40.95 -35.15 -43.8 -35.4 -44.05 -34.95 -44.8 -34.85 -44.75 -25.2 -41.9 M-7.7 -38.15 L-8.1 -38.1 -26.3 -44.15 -26.6 -44.4 -26.6 -44.45 -26.35 -45.1 -26.0 -45.1 -7.8 -39.05 -7.5 -38.8 -7.45 -38.45 -7.7 -38.15 M-7.25 -41.35 L-6.95 -41.1 -6.9 -40.75 -7.15 -40.45 -7.55 -40.4 -25.65 -46.05 -25.9 -46.25 -25.6 -47.05 -25.5 -47.05 -25.35 -47.0 -7.25 -41.35 M-6.7 -42.85 L-6.4 -42.6 -6.35 -42.25 -6.6 -41.95 -7.0 -41.9 -24.8 -47.55 -25.1 -47.8 -24.7 -48.55 -24.5 -48.5 -24.4 -48.5 -6.7 -42.85 M-45.8 -31.2 L-45.6 -31.5 -45.2 -31.55 -24.15 -25.75 -24.1 -24.85 -24.4 -24.8 -45.45 -30.6 -45.75 -30.85 -45.8 -31.2 M-44.05 -32.75 L-43.45 -33.2 -24.25 -27.75 -24.2 -26.75 -24.3 -26.75 -43.75 -32.25 -44.05 -32.5 -44.1 -32.65 -44.05 -32.75 M-41.05 -35.45 L-41.35 -35.7 -41.4 -35.7 -40.8 -36.4 -24.45 -32.2 -24.4 -31.2 -24.55 -31.2 -41.05 -35.45" fill="#001527" fill-opacity="0.2" fill-rule="evenodd" stroke="none"/>
      <path d="M15.0 -68.95 L15.25 -69.95 29.95 -66.65 30.3 -66.4 30.35 -66.05 30.15 -65.7 29.75 -65.65 15.0 -68.95 M14.5 -67.2 L14.75 -68.15 14.8 -68.15 30.5 -64.25 30.8 -64.05 30.85 -63.65 30.6 -63.35 30.25 -63.3 14.5 -67.2 M13.9 -65.35 L14.2 -66.3 30.9 -61.55 31.2 -61.35 31.25 -60.95 31.0 -60.65 30.65 -60.6 13.9 -65.35 M15.7 -71.45 L15.95 -72.4 30.05 -68.55 30.35 -68.35 30.4 -67.95 30.15 -67.65 29.8 -67.6 15.7 -71.45 M16.45 -74.5 L16.55 -74.45 30.4 -70.55 30.7 -70.35 30.75 -69.95 30.5 -69.65 30.15 -69.6 16.3 -73.5 16.25 -73.5 16.45 -74.5 M16.7 -75.8 L16.85 -76.8 17.0 -76.75 30.7 -72.5 31.0 -72.25 31.05 -71.9 30.8 -71.6 30.4 -71.55 16.7 -75.8 M50.1 -61.65 L50.3 -60.7 32.65 -55.65 32.25 -55.7 32.05 -56.0 32.1 -56.4 32.4 -56.6 50.1 -61.65 M49.25 -65.3 L49.45 -64.35 32.65 -59.8 32.25 -59.85 32.05 -60.15 32.1 -60.55 Q32.2 -60.75 32.4 -60.75 L49.2 -65.3 49.25 -65.3 M49.7 -63.35 L49.9 -62.4 32.35 -57.35 31.95 -57.4 31.75 -57.7 31.8 -58.1 Q31.85 -58.25 32.05 -58.3 L49.7 -63.35 M48.8 -67.25 L49.0 -66.3 32.35 -61.9 31.95 -61.95 31.75 -62.25 31.8 -62.65 Q31.9 -62.85 32.1 -62.85 L48.75 -67.25 48.8 -67.25 M47.5 -72.7 L47.6 -72.35 32.65 -68.15 32.25 -68.2 32.05 -68.5 32.1 -68.9 32.4 -69.1 47.15 -73.25 47.5 -72.7 M48.25 -69.15 L48.35 -69.2 48.55 -68.25 48.5 -68.2 32.6 -64.05 32.2 -64.1 32.0 -64.4 32.05 -64.8 32.35 -65.0 48.25 -69.15 M48.0 -70.55 L47.75 -70.35 32.4 -66.3 32.0 -66.35 31.8 -66.65 31.85 -67.05 Q31.95 -67.25 32.15 -67.25 L47.5 -71.3 47.85 -71.25 48.0 -70.55 M45.6 -75.55 L46.15 -74.75 45.95 -74.6 32.8 -70.0 32.4 -70.05 32.15 -70.3 32.15 -70.7 32.45 -70.95 45.6 -75.55 M45.0 -76.45 L44.9 -76.35 32.3 -71.7 31.9 -71.75 31.65 -72.0 31.65 -72.4 31.95 -72.65 44.55 -77.3 44.65 -77.35 44.7 -76.9 45.0 -76.45 M44.5 -79.5 L44.55 -78.45 32.4 -73.7 32.0 -73.75 31.75 -74.0 31.75 -73.95 31.5 -73.65 31.1 -73.6 17.15 -77.65 17.05 -77.7 17.2 -78.6 17.45 -78.6 31.4 -74.55 31.7 -74.35 31.7 -74.25 31.75 -74.4 32.05 -74.65 44.4 -79.45 44.5 -79.5 M44.3 -81.85 L44.4 -80.8 31.95 -75.75 31.95 -75.7 31.7 -75.4 31.3 -75.35 17.35 -79.7 17.55 -80.7 17.65 -80.65 31.15 -76.45 31.3 -76.55 44.3 -81.85 M13.35 -63.85 L30.65 -59.25 30.95 -59.05 31.0 -58.65 30.75 -58.35 30.4 -58.3 18.9 -61.35 18.7 -61.75 18.1 -61.55 13.05 -62.9 13.35 -63.85 M27.0 -52.15 L27.65 -51.55 27.6 -51.4 27.3 -51.2 10.35 -47.35 -4.45 -43.5 -4.85 -43.55 -5.05 -43.85 -5.0 -44.25 -4.7 -44.45 27.0 -52.15 M29.25 -49.8 L28.95 -49.55 11.4 -45.35 11.35 -45.35 11.25 -45.7 -5.05 -40.95 -5.45 -41.0 -5.65 -41.3 -5.6 -41.7 -5.35 -41.9 10.9 -46.6 11.05 -46.2 28.7 -50.5 29.3 -50.0 29.25 -49.8 M20.85 -59.2 L21.1 -59.2 31.45 -56.6 Q31.6 -56.6 31.75 -56.4 L31.8 -56.0 31.55 -55.7 31.2 -55.65 21.35 -58.35 -7.15 -51.5 -7.55 -51.55 -7.75 -51.85 -7.7 -52.25 -7.4 -52.45 20.85 -59.2 M15.3 -61.4 L15.35 -61.0 15.15 -60.75 15.1 -60.7 14.8 -60.65 14.75 -60.65 12.45 -61.2 12.8 -62.15 15.0 -61.6 15.3 -61.4 M7.8 -49.75 L7.85 -49.75 8.1 -49.95 25.3 -53.8 26.0 -53.1 26.0 -53.05 25.65 -52.85 8.3 -48.95 8.25 -48.95 8.05 -48.8 -5.25 -45.3 -5.65 -45.35 -5.85 -45.65 -5.8 -46.05 -5.5 -46.25 7.8 -49.75 M6.3 -51.55 L6.45 -51.6 6.55 -51.6 23.65 -55.55 24.35 -54.8 24.1 -54.65 6.8 -50.65 6.65 -50.65 6.5 -50.6 -6.25 -47.7 -6.6 -47.75 -6.8 -48.1 -6.75 -48.45 -6.45 -48.65 6.3 -51.55 M6.75 -53.75 L7.0 -53.75 7.1 -53.8 21.95 -57.55 22.5 -56.9 22.5 -56.85 22.2 -56.6 7.35 -52.85 7.1 -52.85 7.0 -52.8 -6.65 -49.65 -7.05 -49.7 -7.25 -50.0 -7.2 -50.4 -6.9 -50.6 6.75 -53.75 M6.3 -56.95 L6.25 -57.45 -7.95 -53.85 -8.35 -53.9 -8.55 -54.2 -8.5 -54.6 -8.2 -54.8 5.85 -58.15 5.9 -58.25 5.95 -57.8 19.3 -60.9 19.95 -60.1 19.75 -60.0 6.3 -56.95 M5.15 -59.95 L5.3 -60.0 5.75 -58.7 5.7 -58.75 5.55 -59.1 5.45 -59.05 5.4 -59.0 5.35 -59.0 -8.2 -55.7 -8.5 -55.75 -8.5 -55.4 -8.75 -55.1 -9.15 -55.05 -22.35 -59.3 -22.2 -60.3 -8.85 -56.0 -8.8 -56.0 -8.8 -56.05 -8.75 -56.45 -8.45 -56.65 5.05 -59.95 5.15 -59.95 M4.4 -62.0 L4.45 -62.0 4.7 -61.1 4.65 -61.05 -8.75 -57.8 -8.85 -57.8 -8.85 -57.75 -9.1 -57.45 -9.5 -57.4 -21.85 -61.3 -21.95 -61.4 -21.8 -62.3 -21.55 -62.25 -9.35 -58.4 -9.3 -58.55 -9.0 -58.75 4.4 -62.0 M3.7 -64.45 L4.0 -63.5 -9.35 -59.7 -9.4 -59.7 -9.55 -59.6 -9.95 -59.55 -21.6 -63.4 -21.45 -64.4 -21.35 -64.35 -9.8 -60.55 -9.6 -60.65 3.7 -64.45 M37.0 -44.75 L37.0 -44.7 36.65 -44.5 10.95 -38.95 10.6 -39.0 Q10.4 -39.15 10.35 -39.35 L10.45 -39.7 10.75 -39.95 35.8 -45.35 37.0 -44.75 M-23.9 -54.85 L-23.85 -54.8 -8.7 -49.9 -8.4 -49.65 -8.35 -49.3 -8.6 -49.0 -9.0 -48.95 -24.3 -53.9 -23.9 -54.85 M-24.95 -52.85 L-24.7 -53.15 -24.6 -53.2 -24.9 -52.4 -24.95 -52.45 -24.95 -52.85 M-22.85 -57.65 L-22.5 -58.6 -8.85 -54.25 -8.55 -54.0 -8.5 -53.65 -8.75 -53.35 -9.15 -53.3 -22.85 -57.65 M-23.25 -56.45 L-23.15 -56.4 -8.85 -52.3 -8.55 -52.1 -8.5 -51.7 -8.75 -51.4 -9.15 -51.35 -23.45 -55.45 -23.6 -55.55 -23.25 -56.45 M31.3 -48.3 L31.4 -48.3 31.35 -48.25 30.7 -48.0 12.3 -43.6 12.15 -43.6 12.0 -43.95 -5.9 -38.75 -6.3 -38.8 -6.5 -39.1 -6.45 -39.5 -6.15 -39.7 11.45 -44.7 11.8 -44.65 11.95 -44.55 12.05 -44.55 30.45 -48.95 30.5 -48.95 31.3 -48.3 M34.05 -46.3 L33.95 -46.3 10.8 -40.95 10.45 -41.0 10.25 -41.35 10.3 -41.7 Q10.4 -41.9 10.6 -41.9 L33.0 -47.1 34.05 -46.3 M-24.3 -53.15 L-8.3 -47.7 -8.05 -47.45 -8.0 -47.1 -8.25 -46.8 -8.65 -46.75 -24.45 -52.15 -24.5 -53.2 -24.3 -53.15 M-43.75 -32.95 L-43.9 -33.0 -43.15 -33.8 -24.25 -28.45 -24.2 -27.45 -24.3 -27.45 -43.75 -32.95 M-24.4 -50.0 L-24.35 -51.05 -24.2 -51.0 -6.95 -44.9 -6.7 -44.65 -6.65 -44.25 -6.9 -44.0 -7.3 -43.95 -24.4 -50.0 M-44.75 -32.15 L-24.15 -26.45 -24.1 -25.55 -24.4 -25.5 -45.45 -31.3 -45.65 -31.4 -44.75 -32.15 M-41.75 -35.35 L-24.35 -30.5 -24.3 -29.45 -42.1 -34.4 -42.4 -34.65 -41.75 -35.35 M-7.7 -38.85 L-8.1 -38.8 -26.3 -44.85 -26.45 -44.95 -26.05 -45.85 -26.0 -45.8 -7.8 -39.75 -7.5 -39.5 -7.45 -39.15 -7.7 -38.85 M-6.6 -42.65 L-7.0 -42.6 -24.8 -48.25 -24.85 -48.3 -24.5 -48.9 -24.45 -49.2 -24.35 -49.15 -6.7 -43.55 -6.4 -43.3 -6.35 -42.95 -6.6 -42.65 M-7.25 -42.05 L-6.95 -41.8 -6.9 -41.45 -7.15 -41.15 -7.55 -41.1 -25.65 -46.75 -25.2 -47.65 -7.25 -42.05 M-27.25 -43.1 L-24.95 -42.3 -24.85 -41.55 -24.9 -41.55 -35.15 -44.5 -34.65 -45.4 -27.2 -43.2 -27.25 -43.1 M-24.7 -38.15 L-25.0 -38.1 -37.15 -41.2 -37.25 -41.25 -36.7 -42.1 -24.8 -39.1 -24.75 -39.05 -24.7 -38.15 M-24.7 -37.3 L-24.65 -37.3 -24.6 -36.4 -24.95 -36.35 -38.15 -39.5 -38.4 -39.65 -37.85 -40.45 -24.7 -37.3 M-24.8 -39.9 L-36.0 -42.9 -36.15 -43.0 -35.65 -43.85 -24.85 -40.8 -24.8 -39.9 M-39.8 -37.8 L-39.15 -38.55 -24.55 -35.15 -24.5 -34.2 -24.8 -34.2 -39.55 -37.65 -39.8 -37.8 M-24.4 -31.9 L-24.55 -31.9 -41.05 -36.15 -40.4 -37.0 -24.45 -32.9 -24.4 -31.9" fill="#ffffff" fill-opacity="0.101960786" fill-rule="evenodd" stroke="none"/>
      <path d="M42.5 -52.2 L43.0 -52.3 43.05 -47.3 42.5 -47.55 42.5 -52.2 M39.5 -51.4 L40.05 -51.55 40.15 -46.6 39.7 -46.95 39.65 -46.95 39.5 -51.4 M39.6 -45.95 L40.2 -46.05 40.25 -40.35 39.75 -40.75 39.6 -45.95 M39.8 -39.5 L40.3 -39.7 40.4 -35.5 39.85 -36.0 39.8 -39.5 M7.5 -36.75 L8.0 -36.9 8.0 -31.75 7.5 -32.05 7.5 -36.75 M7.5 -31.05 L8.0 -31.2 8.0 -25.55 7.5 -25.85 7.5 -31.05 M4.6 -35.85 L5.1 -36.0 5.2 -30.9 4.75 -31.25 4.7 -31.25 4.6 -35.85 M4.85 -25.15 L4.7 -30.2 5.2 -30.35 5.3 -24.75 4.85 -25.15 M7.5 -24.8 L8.0 -24.95 8.0 -20.95 7.5 -21.35 7.5 -24.8 M4.85 -24.0 L5.35 -24.15 5.4 -20.2 4.95 -20.65 4.85 -24.0 M8.55 -14.95 L9.05 -15.15 9.05 -12.85 8.55 -13.15 8.55 -14.95 M5.9 -12.45 L5.8 -14.1 6.3 -14.25 6.35 -12.05 5.9 -12.45 M8.55 -12.1 L9.05 -12.25 9.05 -9.55 9.0 -9.55 8.5 -10.0 8.55 -12.1 M5.95 -9.3 L5.9 -11.3 6.4 -11.45 6.4 -8.85 5.95 -9.3 M42.6 -46.65 L43.05 -46.7 43.05 -41.0 42.6 -41.4 42.6 -46.65 M42.6 -40.25 L43.15 -40.35 43.15 -36.15 42.65 -36.55 42.6 -40.25 M-30.3 -19.0 L-30.3 -17.2 -30.8 -16.9 -30.8 -19.2 -30.3 -19.0 M-27.55 -18.15 L-27.65 -16.5 -28.1 -16.1 -28.05 -18.3 -27.55 -18.15 M-30.3 -16.15 L-30.25 -14.05 -30.75 -13.6 -30.8 -13.6 -30.8 -16.3 -30.3 -16.15 M-27.65 -15.35 L-27.7 -13.35 -28.15 -12.9 -28.15 -15.5 -27.65 -15.35 M-38.9 -19.25 L-38.9 -21.55 -38.4 -21.35 -38.4 -19.55 -38.9 -19.25 M-35.65 -20.5 L-35.75 -18.85 -36.2 -18.45 -36.15 -20.65 -35.65 -20.5 M-38.4 -18.5 L-38.35 -16.4 -38.85 -15.95 -38.9 -15.95 -38.9 -18.65 -38.4 -18.5 M-36.25 -15.25 L-36.25 -17.85 -35.75 -17.7 -35.8 -15.7 -36.25 -15.25" fill="#8a6246" fill-rule="evenodd" stroke="none"/>
      <path d="M43.05 -47.3 L40.85 -46.75 40.85 -47.2 42.5 -47.55 43.05 -47.3 M40.15 -46.6 L37.45 -45.9 37.45 -46.45 39.65 -46.95 39.7 -46.95 40.15 -46.6 M40.25 -40.35 L37.6 -39.7 37.6 -40.3 37.65 -40.3 39.75 -40.75 40.25 -40.35 M40.4 -35.5 L37.7 -34.85 37.7 -35.5 39.85 -36.0 40.4 -35.5 M8.0 -31.75 L5.8 -31.1 5.8 -31.55 7.5 -32.05 8.0 -31.75 M8.0 -25.55 L5.9 -24.95 5.9 -25.4 7.5 -25.85 8.0 -25.55 M5.2 -30.9 L2.55 -30.1 2.55 -30.65 4.7 -31.25 4.75 -31.25 5.2 -30.9 M2.75 -24.55 L4.85 -25.15 5.3 -24.75 2.75 -24.05 2.75 -24.55 M8.0 -20.95 L5.95 -20.35 5.95 -20.95 7.5 -21.35 8.0 -20.95 M5.4 -20.2 L2.9 -19.45 2.85 -20.1 4.95 -20.65 5.4 -20.2 M9.05 -12.85 L6.95 -12.25 6.95 -12.7 8.55 -13.15 9.05 -12.85 M3.8 -11.85 L5.9 -12.45 6.35 -12.05 3.8 -11.35 3.8 -11.85 M9.05 -9.55 L8.75 -9.5 8.55 -9.45 7.0 -9.0 6.95 -9.0 6.95 -9.6 7.0 -9.6 8.5 -10.0 9.0 -9.55 9.05 -9.55 M3.85 -8.75 L5.95 -9.3 6.4 -8.85 3.9 -8.1 3.85 -8.75 M43.05 -41.0 L40.9 -40.45 40.9 -40.9 42.6 -41.4 43.05 -41.0 M43.15 -36.15 L40.9 -35.65 40.9 -36.3 42.65 -36.55 43.15 -36.15 M-16.7 -30.65 L-16.2 -31.05 -16.15 -31.05 -13.8 -30.25 -13.75 -29.65 -16.7 -30.65 M-19.7 -31.75 L-19.2 -32.05 -17.35 -31.4 -17.3 -30.95 -19.7 -31.75 M-19.35 -25.4 L-18.75 -25.6 -17.15 -25.1 -17.1 -24.6 -19.35 -25.4 M-16.45 -24.35 L-15.95 -24.7 -13.7 -23.9 -13.65 -23.45 -13.65 -23.4 -16.45 -24.35 M-30.3 -17.2 L-28.7 -16.75 -28.7 -16.3 -30.8 -16.9 -30.3 -17.2 M-28.1 -16.1 L-27.65 -16.5 -25.55 -15.9 -25.55 -15.4 -28.1 -16.1 M-30.25 -14.05 L-28.75 -13.65 -28.7 -13.65 -28.7 -13.05 -28.75 -13.05 -30.5 -13.55 -30.8 -13.6 -30.75 -13.6 -30.25 -14.05 M-27.7 -13.35 L-25.6 -12.8 -25.65 -12.15 -28.15 -12.9 -27.7 -13.35 M-38.9 -19.25 L-38.4 -19.55 -36.8 -19.1 -36.8 -18.65 -38.9 -19.25 M-36.2 -18.45 L-35.75 -18.85 -33.65 -18.25 -33.65 -17.75 -36.2 -18.45 M-38.35 -16.4 L-36.85 -16.0 -36.8 -16.0 -36.8 -15.4 -36.85 -15.4 -38.4 -15.85 -38.6 -15.9 -38.9 -15.95 -38.85 -15.95 -38.35 -16.4 M-36.25 -15.25 L-35.8 -15.7 -33.7 -15.15 -33.75 -14.5 -36.25 -15.25 M-15.85 -20.15 L-13.65 -19.45 -13.6 -18.75 -16.3 -19.8 -15.85 -20.15 M-19.1 -20.8 L-18.55 -21.1 -16.95 -20.6 -16.9 -20.0 -19.1 -20.8" fill="#fff7e7" fill-rule="evenodd" stroke="none"/>
      <path d="M40.85 -47.2 L40.7 -51.7 42.5 -52.2 42.5 -47.55 40.85 -47.2 M37.45 -46.45 L37.35 -50.95 39.5 -51.4 39.65 -46.95 37.45 -46.45 M37.65 -40.3 L37.75 -43.75 38.6 -43.9 37.55 -44.45 37.5 -45.3 39.6 -45.95 39.75 -40.75 37.65 -40.3 M37.7 -35.5 L37.65 -39.05 39.8 -39.5 39.85 -36.0 37.7 -35.5 M5.8 -31.55 L5.75 -36.2 7.5 -36.75 7.5 -32.05 5.8 -31.55 M5.9 -25.4 L5.8 -30.55 7.5 -31.05 7.5 -25.85 5.9 -25.4 M2.55 -30.65 L2.4 -35.25 4.6 -35.85 4.7 -31.25 2.55 -30.65 M2.75 -24.55 L2.6 -29.5 4.7 -30.2 4.85 -25.15 2.75 -24.55 M5.95 -20.95 L5.9 -24.3 7.5 -24.8 7.5 -21.35 5.95 -20.95 M2.85 -20.1 L2.8 -23.4 4.85 -24.0 4.95 -20.65 2.85 -20.1 M6.95 -12.7 L6.9 -14.45 7.15 -14.55 8.55 -14.95 8.55 -13.15 6.95 -12.7 M5.8 -14.1 L5.9 -12.45 3.8 -11.85 3.7 -13.5 5.8 -14.1 M6.95 -9.6 L6.95 -11.6 8.55 -12.1 8.5 -10.0 7.0 -9.6 6.95 -9.6 M5.9 -11.3 L5.95 -9.3 3.85 -8.75 3.85 -10.7 5.9 -11.3 M41.7 -16.5 L39.5 -17.05 39.5 -26.4 Q39.5 -29.45 40.65 -30.05 41.7 -29.6 41.7 -27.45 L41.7 -16.5 M40.9 -40.9 L40.8 -46.15 42.6 -46.65 42.6 -41.4 40.9 -40.9 M40.9 -36.3 L40.85 -39.85 42.6 -40.25 42.65 -36.55 40.9 -36.3 M-16.15 -31.05 L-16.25 -35.9 -13.85 -35.1 -13.8 -30.25 -16.15 -31.05 M-19.2 -32.05 L-19.45 -36.9 -17.55 -36.3 -17.35 -31.4 -19.2 -32.05 M-18.75 -25.6 L-19.15 -31.0 -17.3 -30.35 -17.15 -25.1 -18.75 -25.6 M-15.95 -24.7 L-16.05 -29.95 -13.8 -29.05 -13.7 -23.9 -15.95 -24.7 M-30.3 -19.0 L-28.9 -18.6 -28.65 -18.5 -28.7 -16.75 -30.3 -17.2 -30.3 -19.0 M-27.65 -16.5 L-27.55 -18.15 -25.45 -17.55 -25.55 -15.9 -27.65 -16.5 M-30.3 -16.15 L-28.7 -15.65 -28.7 -13.65 -28.75 -13.65 -30.25 -14.05 -30.3 -16.15 M-27.7 -13.35 L-27.65 -15.35 -25.6 -14.75 -25.6 -12.8 -27.7 -13.35 M-38.4 -19.55 L-38.4 -21.35 -37.0 -20.95 -36.75 -20.85 -36.8 -19.1 -38.4 -19.55 M-35.75 -18.85 L-35.65 -20.5 -33.55 -19.9 -33.65 -18.25 -35.75 -18.85 M-38.4 -18.5 L-36.8 -18.0 -36.8 -16.0 -36.85 -16.0 -38.35 -16.4 -38.4 -18.5 M-35.8 -15.7 L-35.75 -17.7 -33.7 -17.1 -33.7 -15.15 -35.8 -15.7 M-15.95 -23.55 L-13.75 -22.75 -13.65 -19.45 -15.85 -20.15 -15.95 -23.55 M-18.55 -21.1 L-18.7 -24.6 -17.1 -23.95 -16.95 -20.6 -18.55 -21.1" fill="#331602" fill-rule="evenodd" stroke="none"/>
      <path d="M41.7 -16.5 L41.7 -27.45 Q41.7 -29.6 40.65 -30.05 L41.3 -30.2 Q43.05 -30.25 43.05 -27.45 L43.05 -16.2 41.7 -16.5" fill="#876045" fill-rule="evenodd" stroke="none"/>
      <path d="M-16.7 -30.65 L-16.85 -36.05 -16.25 -35.9 -16.15 -31.05 -16.2 -31.05 -16.7 -30.65 M-19.2 -32.05 L-19.7 -31.75 -20.0 -37.15 -19.45 -36.9 -19.2 -32.05 M-19.35 -25.4 L-19.65 -31.2 -19.15 -31.0 -18.75 -25.6 -19.35 -25.4 M-16.45 -24.35 L-16.65 -30.1 -16.05 -29.95 -15.95 -24.7 -16.45 -24.35 M-15.95 -23.55 L-15.85 -20.15 -16.3 -19.8 -16.45 -23.75 -15.95 -23.55 M-18.55 -21.1 L-19.1 -20.8 -19.3 -24.8 -18.7 -24.6 -18.55 -21.1" fill="#771b18" fill-rule="evenodd" stroke="none"/>
      <path d="M-17.95 -13.25 L-17.65 -8.15 -18.15 -8.35 -18.4 -13.45 -17.95 -13.25 M-18.9 -13.65 L-18.6 -8.5 -19.45 -8.8 -19.7 -14.0 -18.9 -13.65 M-16.9 -12.8 L-16.75 -7.85 -17.15 -8.0 -17.35 -13.0 -16.9 -12.8 M-11.4 -10.85 L-11.0 -5.9 -11.75 -6.15 -12.05 -11.05 -11.4 -10.85 M-12.45 -11.15 L-12.2 -6.3 -12.45 -6.4 -12.65 -11.25 -12.45 -11.15 M-14.35 -11.85 L-14.2 -7.0 -14.45 -7.05 -14.65 -11.95 -14.35 -11.85 M-13.5 -11.55 L-13.3 -6.7 -13.6 -6.8 -13.8 -11.65 -13.5 -11.55 M-14.8 -7.2 L-15.5 -7.45 -15.8 -12.35 -15.05 -12.1 -14.8 -7.2" fill="#2c0000" fill-rule="evenodd" stroke="none"/>
      <path d="M-20.45 -15.05 L-9.7 -11.75 -9.7 -4.8 -10.45 -11.35 Q-15.2 -12.9 -20.45 -15.05" fill="#7b1e1a" fill-rule="evenodd" stroke="none"/>
      <path d="M-16.9 -12.8 L-17.35 -13.0 -17.15 -8.0 -16.75 -7.85 -16.9 -12.8 M-18.9 -13.65 L-19.7 -14.0 -19.45 -8.8 -18.6 -8.5 -18.9 -13.65 M-17.95 -13.25 L-18.4 -13.45 -18.15 -8.35 -17.65 -8.15 -17.95 -13.25 M-14.8 -7.2 L-15.05 -12.1 -15.8 -12.35 -15.5 -7.45 -14.8 -7.2 M-13.5 -11.55 L-13.8 -11.65 -13.6 -6.8 -13.3 -6.7 -13.5 -11.55 M-14.35 -11.85 L-14.65 -11.95 -14.45 -7.05 -14.2 -7.0 -14.35 -11.85 M-12.45 -11.15 L-12.65 -11.25 -12.45 -6.4 -12.2 -6.3 -12.45 -11.15 M-11.4 -10.85 L-12.05 -11.05 -11.75 -6.15 -11.0 -5.9 -11.4 -10.85 M-9.7 -4.8 L-20.2 -8.4 -20.45 -15.05 Q-15.2 -12.9 -10.45 -11.35 L-9.7 -4.8" fill="url(#gradient13)" fill-rule="evenodd" stroke="none"/>
    </g>
    <linearGradient gradientTransform="matrix(0.0032, -0.0118, 0.9659, 0.2588, -199.65, -100.55)" gradientUnits="userSpaceOnUse" id="gradient0" spreadMethod="pad" x1="-819.2" x2="819.2">
      <stop offset="0.22745098039215686" stop-color="#1f355f"/>
      <stop offset="0.7764705882352941" stop-color="#15233c"/>
    </linearGradient>
    <linearGradient gradientTransform="matrix(-0.0035, -0.013, 0.9659, -0.2588, -161.0, -7.0)" gradientUnits="userSpaceOnUse" id="gradient1" spreadMethod="pad" x1="-819.2" x2="819.2">
      <stop offset="0.22745098039215686" stop-color="#4f74b8"/>
      <stop offset="0.7764705882352941" stop-color="#364f7e"/>
    </linearGradient>
    <linearGradient gradientTransform="matrix(0.0032, -0.0118, 0.9659, 0.2588, -199.65, -100.55)" gradientUnits="userSpaceOnUse" id="gradient2" spreadMethod="pad" x1="-819.2" x2="819.2">
      <stop offset="0.22745098039215686" stop-color="#3a5485"/>
      <stop offset="0.7764705882352941" stop-color="#344669"/>
    </linearGradient>
    <linearGradient gradientTransform="matrix(0.0032, -0.0118, 0.9659, 0.2588, -199.65, -100.55)" gradientUnits="userSpaceOnUse" id="gradient3" spreadMethod="pad" x1="-819.2" x2="819.2">
      <stop offset="0.22745098039215686" stop-color="#102141"/>
      <stop offset="0.7764705882352941" stop-color="#0d192e"/>
    </linearGradient>
    <linearGradient gradientTransform="matrix(0.003, -0.0112, 0.9659, 0.2588, -154.35, -115.4)" gradientUnits="userSpaceOnUse" id="gradient4" spreadMethod="pad" x1="-819.2" x2="819.2">
      <stop offset="0.22745098039215686" stop-color="#1f355f"/>
      <stop offset="0.7764705882352941" stop-color="#15233c"/>
    </linearGradient>
    <linearGradient gradientTransform="matrix(-0.014, -0.0081, 0.5, -0.866, -85.8, 127.4)" gradientUnits="userSpaceOnUse" id="gradient5" spreadMethod="pad" x1="-819.2" x2="819.2">
      <stop offset="0.058823529411764705" stop-color="#5c84cd"/>
      <stop offset="0.8117647058823529" stop-color="#364f7e"/>
    </linearGradient>
    <linearGradient gradientTransform="matrix(-0.0035, -0.013, 0.9659, -0.2588, -161.0, -7.0)" gradientUnits="userSpaceOnUse" id="gradient6" spreadMethod="pad" x1="-819.2" x2="819.2">
      <stop offset="0.22745098039215686" stop-color="#7494d0"/>
      <stop offset="0.7764705882352941" stop-color="#48608e"/>
    </linearGradient>
    <linearGradient gradientTransform="matrix(0.003, -0.0112, 0.9659, 0.2588, -154.35, -115.4)" gradientUnits="userSpaceOnUse" id="gradient7" spreadMethod="pad" x1="-819.2" x2="819.2">
      <stop offset="0.22745098039215686" stop-color="#15294f"/>
      <stop offset="0.7764705882352941" stop-color="#0d182c"/>
    </linearGradient>
    <linearGradient gradientTransform="matrix(-0.0035, -0.013, 0.9659, -0.2588, -161.0, -7.0)" gradientUnits="userSpaceOnUse" id="gradient8" spreadMethod="pad" x1="-819.2" x2="819.2">
      <stop offset="0.22745098039215686" stop-color="#7494d0"/>
      <stop offset="0.7764705882352941" stop-color="#526a98"/>
    </linearGradient>
    <radialGradient cx="0" cy="0" gradientTransform="matrix(0.0538, -0.0095, 0.0051, 0.0287, 22.6, -34.45)" gradientUnits="userSpaceOnUse" id="gradient9" r="819.2" spreadMethod="pad">
      <stop offset="0.37254901960784315" stop-color="#f3dfb0"/>
      <stop offset="1.0" stop-color="#e0ae90"/>
    </radialGradient>
    <radialGradient cx="0" cy="0" gradientTransform="matrix(0.0538, -0.0095, 0.0051, 0.0287, 22.6, -34.45)" gradientUnits="userSpaceOnUse" id="gradient10" r="819.2" spreadMethod="pad">
      <stop offset="0.3607843137254902" stop-color="#fff2d4"/>
      <stop offset="1.0" stop-color="#f0c6ac"/>
    </radialGradient>
    <radialGradient cx="0" cy="0" gradientTransform="matrix(0.0538, -0.0095, 0.0051, 0.0287, 22.6, -34.45)" gradientUnits="userSpaceOnUse" id="gradient11" r="819.2" spreadMethod="pad">
      <stop offset="0.37254901960784315" stop-color="#e0ca96"/>
      <stop offset="1.0" stop-color="#c99779"/>
    </radialGradient>
    <linearGradient gradientTransform="matrix(0.0021, -0.0065, 0.9514, 0.3049, -240.75, -98.65)" gradientUnits="userSpaceOnUse" id="gradient12" spreadMethod="pad" x1="-819.2" x2="819.2">
      <stop offset="0.22745098039215686" stop-color="#1f355f"/>
      <stop offset="0.7764705882352941" stop-color="#15233c"/>
    </linearGradient>
    <radialGradient cx="0" cy="0" gradientTransform="matrix(0.0353, 0.0, 0.0, 0.0237, -29.45, 5.35)" gradientUnits="userSpaceOnUse" id="gradient13" r="819.2" spreadMethod="pad">
      <stop offset="0.23137254901960785" stop-color="#fffaf5"/>
      <stop offset="0.9411764705882353" stop-color="#deccbb"/>
    </radialGradient>
    <g id="sprite2" transform="matrix(1.0, 0.0, 0.0, 1.0, 1.5, 4.2)">
      <use ffdec:characterId="1103" height="17.0" transform="matrix(1.0, 0.0, 0.0, 1.0, -1.5, -4.2)" width="3.05" xlink:href="#shape4"/>
    </g>
    <g id="shape4" transform="matrix(1.0, 0.0, 0.0, 1.0, 1.5, 4.2)">
      <path d="M-1.25 -3.95 L-1.05 -4.15 -0.7 -4.2 0.95 -3.85 1.45 -3.5 1.55 -3.0 1.55 12.2 1.5 12.6 Q1.3 12.6 1.2 12.75 L0.0 11.05 0.05 -1.95 -1.25 -3.95" fill="#ffffff" fill-opacity="0.5019608" fill-rule="evenodd" stroke="none"/>
      <path d="M-1.25 -3.95 L0.05 -1.95 0.0 11.05 1.2 12.75 0.75 12.8 -0.8 12.4 -1.25 12.1 -1.5 11.55 -1.5 -3.6 -1.3 -3.9 -1.25 -3.95" fill="#1c0600" fill-opacity="0.5019608" fill-rule="evenodd" stroke="none"/>
      <path d="M0.05 10.85 L0.05 -2.15" fill="none" stroke="#4f3939" stroke-linecap="round" stroke-linejoin="round" stroke-width="1.7000000000000002"/>
      <path d="M-0.1 11.05 L-0.05 -1.35" ffdec:has-small-stroke="true" ffdec:original-stroke-width="0.8" fill="none" stroke="#c4b7b7" stroke-linecap="round" stroke-linejoin="round" stroke-width="1.1391144824374357"/>
      <path d="M0.25 11.15 L0.25 -1.35" ffdec:has-small-stroke="true" ffdec:original-stroke-width="0.3" fill="none" stroke="#f7f5f5" stroke-linecap="round" stroke-linejoin="round" stroke-width="1.1391144824374357"/>
    </g>
    <g id="sprite3" transform="matrix(1.0, 0.0, 0.0, 1.0, 1.4, 4.25)">
      <use ffdec:characterId="1105" height="16.55" transform="matrix(1.0, 0.0, 0.0, 1.0, -1.4, -4.25)" width="2.7" xlink:href="#shape5"/>
    </g>
    <g id="shape5" transform="matrix(1.0, 0.0, 0.0, 1.0, 1.4, 4.25)">
      <path d="M1.0 -4.2 L1.25 -3.95 1.3 -3.6 1.3 11.45 1.2 11.95 0.75 12.2 -0.7 12.3 -1.0 12.25 -1.2 12.0 -0.05 10.2 -0.05 -2.6 1.0 -4.2" fill="#ffffff" fill-opacity="0.5019608" fill-rule="evenodd" stroke="none"/>
      <path d="M-1.2 12.0 L-1.25 11.95 -1.4 11.65 -1.4 -3.4 -1.2 -3.8 -0.8 -4.05 0.6 -4.25 1.0 -4.2 -0.05 -2.6 -0.05 10.2 -1.2 12.0" fill="#1c0600" fill-opacity="0.5019608" fill-rule="evenodd" stroke="none"/>
      <path d="M-0.05 10.75 L-0.05 -2.05" fill="none" stroke="#4f3939" stroke-linecap="round" stroke-linejoin="round" stroke-width="1.5"/>
      <path d="M0.1 10.25 L0.15 -2.15" ffdec:has-small-stroke="true" ffdec:original-stroke-width="0.5" fill="none" stroke="#c4b7b7" stroke-linecap="round" stroke-linejoin="round" stroke-width="0.9712534215028721"/>
      <path d="M-0.1 10.25 L-0.1 -2.2" ffdec:has-small-stroke="true" ffdec:original-stroke-width="0.2" fill="none" stroke="#f7f5f5" stroke-linecap="round" stroke-linejoin="round" stroke-width="0.9712534215028721"/>
    </g>
    <g id="sprite4" transform="matrix(1.0, 0.0, 0.0, 1.0, 1.4, 4.25)">
      <use ffdec:characterId="1105" height="16.55" transform="matrix(1.0, 0.0, 0.0, 1.0, -1.4, -4.25)" width="2.7" xlink:href="#shape6"/>
    </g>
    <g id="shape6" transform="matrix(1.0, 0.0, 0.0, 1.0, 1.4, 4.25)">
      <path d="M1.0 -4.2 L1.25 -3.95 1.3 -3.6 1.3 11.45 1.2 11.95 0.75 12.2 -0.7 12.3 -1.0 12.25 -1.2 12.0 -0.05 10.2 -0.05 -2.6 1.0 -4.2" fill="#ffffff" fill-opacity="0.5019608" fill-rule="evenodd" stroke="none"/>
      <path d="M-1.2 12.0 L-1.25 11.95 -1.4 11.65 -1.4 -3.4 -1.2 -3.8 -0.8 -4.05 0.6 -4.25 1.0 -4.2 -0.05 -2.6 -0.05 10.2 -1.2 12.0" fill="#1c0600" fill-opacity="0.5019608" fill-rule="evenodd" stroke="none"/>
      <path d="M-0.05 10.75 L-0.05 -2.05" fill="none" stroke="#4f3939" stroke-linecap="round" stroke-linejoin="round" stroke-width="1.5"/>
      <path d="M0.1 10.25 L0.15 -2.15" ffdec:has-small-stroke="true" ffdec:original-stroke-width="0.5" fill="none" stroke="#c4b7b7" stroke-linecap="round" stroke-linejoin="round" stroke-width="0.9323023204606934"/>
      <path d="M-0.1 10.25 L-0.1 -2.2" ffdec:has-small-stroke="true" ffdec:original-stroke-width="0.2" fill="none" stroke="#f7f5f5" stroke-linecap="round" stroke-linejoin="round" stroke-width="0.9323023204606934"/>
    </g>
    <g id="sprite5" transform="matrix(1.0, 0.0, 0.0, 1.0, 1.5, 4.2)">
      <use ffdec:characterId="1103" height="17.0" transform="matrix(1.0, 0.0, 0.0, 1.0, -1.5, -4.2)" width="3.05" xlink:href="#shape7"/>
    </g>
    <g id="shape7" transform="matrix(1.0, 0.0, 0.0, 1.0, 1.5, 4.2)">
      <path d="M-1.25 -3.95 L-1.05 -4.15 -0.7 -4.2 0.95 -3.85 1.45 -3.5 1.55 -3.0 1.55 12.2 1.5 12.6 Q1.3 12.6 1.2 12.75 L0.0 11.05 0.05 -1.95 -1.25 -3.95" fill="#ffffff" fill-opacity="0.5019608" fill-rule="evenodd" stroke="none"/>
      <path d="M-1.25 -3.95 L0.05 -1.95 0.0 11.05 1.2 12.75 0.75 12.8 -0.8 12.4 -1.25 12.1 -1.5 11.55 -1.5 -3.6 -1.3 -3.9 -1.25 -3.95" fill="#1c0600" fill-opacity="0.5019608" fill-rule="evenodd" stroke="none"/>
      <path d="M0.05 10.85 L0.05 -2.15" fill="none" stroke="#4f3939" stroke-linecap="round" stroke-linejoin="round" stroke-width="1.7000000000000002"/>
      <path d="M-0.1 11.05 L-0.05 -1.35" ffdec:has-small-stroke="true" ffdec:original-stroke-width="0.8" fill="none" stroke="#c4b7b7" stroke-linecap="round" stroke-linejoin="round" stroke-width="1.0511815253600745"/>
      <path d="M0.25 11.15 L0.25 -1.35" ffdec:has-small-stroke="true" ffdec:original-stroke-width="0.3" fill="none" stroke="#f7f5f5" stroke-linecap="round" stroke-linejoin="round" stroke-width="1.0511815253600745"/>
    </g>
    <g id="shape8" transform="matrix(1.0, 0.0, 0.0, 1.0, 44.0, 83.35)">
      <path d="M35.6 -37.6 Q35.2 -37.1 35.4 -36.95 L35.9 -36.4 35.85 -35.65 35.25 -35.15 Q24.2 -31.65 12.65 -29.3 L11.1 -14.75 10.6 -14.8 10.6 -29.35 10.3 -29.85 Q10.2 -30.25 10.4 -30.6 L10.65 -30.9 10.65 -31.25 11.25 -31.4 11.35 -31.4 11.55 -31.45 16.8 -32.55 Q24.7 -34.25 35.6 -37.6 M37.75 -43.75 L37.55 -41.25 Q24.15 -37.55 11.45 -35.3 L10.95 -35.35 Q10.85 -37.25 11.1 -37.25 L11.3 -37.6 Q24.35 -39.7 37.75 -43.75 M49.85 -58.9 L49.95 -55.9 31.6 -51.3 30.95 -51.35 25.55 -53.55 22.9 -56.4 22.7 -56.5 25.8 -55.6 30.65 -54.3 32.25 -53.7 49.85 -58.9 M10.8 -42.35 L10.85 -42.35 10.95 -42.5 10.95 -42.35 11.0 -40.15 10.55 -39.9 -0.05 -36.7 0.7 -11.9 1.25 -11.5 1.25 -11.1 11.7 -10.65 0.45 -9.5 0.9 -4.05 -1.0 -3.5 -1.1 -4.25 -2.05 -36.1 -7.35 -34.55 -7.95 -34.55 -24.55 -40.3 -24.85 -40.45 -24.95 -42.45 -23.9 -42.2 -8.4 -37.35 -7.1 -37.0 -1.1 -38.85 -1.1 -38.8 10.8 -42.35 M-43.35 -27.15 L-43.7 -27.3 -44.0 -29.3 -42.8 -29.05 -23.95 -23.95 -23.9 -23.45 -23.8 -21.55 -43.35 -27.15 M-41.45 -21.9 L-41.85 -24.15 -40.45 -23.7 -23.6 -18.25 -23.45 -16.1 -23.45 -16.0 -24.25 -16.25 -41.45 -21.9 M44.95 -16.75 L44.45 -16.6 44.45 -30.65 44.95 -16.75 M10.95 -14.2 L11.95 -14.5 11.65 -14.0 Q11.3 -13.75 10.95 -14.2 M11.1 -40.25 Q11.1 -41.45 11.2 -41.1 L11.15 -40.35 11.1 -40.25" fill="#200000" fill-opacity="0.3019608" fill-rule="evenodd" stroke="none"/>
      <path d="M35.6 -37.1 L35.4 -14.0 M11.7 -7.6 L11.45 -10.45 12.55 -13.35 10.7 -14.9" ffdec:has-small-stroke="true" ffdec:original-stroke-width="1.0" fill="none" stroke="#876045" stroke-linecap="round" stroke-linejoin="round" stroke-width="1.1391027757982377"/>
      <path d="M10.7 -14.9 L10.9 -41.2" ffdec:has-small-stroke="true" ffdec:original-stroke-width="1.0" fill="none" stroke="#8a6246" stroke-linecap="round" stroke-linejoin="round" stroke-width="1.1391027757982377"/>
      <path d="M42.95 -82.85 Q38.15 -80.15 31.5 -78.35 L32.7 -69.55 Q32.0 -61.8 31.8 -54.25 L29.9 -65.9 31.5 -78.35 18.9 -81.85" ffdec:has-small-stroke="true" ffdec:original-stroke-width="1.0" fill="none" stroke="#a3c4ff" stroke-linecap="round" stroke-linejoin="round" stroke-opacity="0.5019608" stroke-width="1.1391027757982377"/>
      <path d="M-6.25 -2.35 L-8.2 -35.4" ffdec:has-small-stroke="true" ffdec:original-stroke-width="1.0" fill="none" stroke="#ffbbb8" stroke-linecap="round" stroke-linejoin="round" stroke-opacity="0.5019608" stroke-width="1.1391027757982377"/>
      <path d="M-10.5 -62.1 L-10.35 -61.65 Q-7.7 -56.75 -6.6 -48.6 L-4.4 -43.3 -7.15 -37.5 -7.5 -40.25 -6.65 -43.45 Q-7.6 -46.35 -8.85 -47.85 -8.5 -55.1 -10.35 -61.65 M-20.15 -65.35 L-10.5 -62.1" ffdec:has-small-stroke="true" ffdec:original-stroke-width="1.0" fill="none" stroke="#a8c7ff" stroke-linecap="round" stroke-linejoin="round" stroke-opacity="0.5019608" stroke-width="1.1391027757982377"/>
      <path d="M-10.5 -62.1 L1.95 -65.4" ffdec:has-small-stroke="true" ffdec:original-stroke-width="1.0" fill="none" stroke="#b1cdff" stroke-linecap="round" stroke-linejoin="round" stroke-opacity="0.5019608" stroke-width="1.1391027757982377"/>
      <path d="M18.05 -61.65 L6.0 -58.75 M-34.0 -46.55 L-27.1 -44.55" ffdec:has-small-stroke="true" ffdec:original-stroke-width="1.0" fill="none" stroke="#7f92b8" stroke-linecap="round" stroke-linejoin="round" stroke-width="1.1391027757982377"/>
      <path d="M4.2 -14.9 L3.95 -15.85 4.2 -16.9 Q4.55 -17.75 5.3 -17.75 5.85 -17.75 6.2 -17.2 L13.45 -28.55 14.5 -8.15 14.85 -8.15 -1.0 -3.45 -1.05 -5.05 4.55 -14.45 4.2 -14.9" fill="#000000" fill-opacity="0.3019608" fill-rule="evenodd" stroke="none"/>
      <path d="M19.8 -17.5 Q17.6 -19.6 15.65 -23.45 14.5 -25.7 13.45 -28.55 L30.55 -32.75 Q33.8 -26.65 38.65 -23.5 L38.9 -23.45 37.95 -23.1 19.8 -17.5" fill="#4f74b8" fill-rule="evenodd" stroke="none"/>
      <path d="M19.7 -16.2 L18.75 -3.65 14.0 -7.95 13.45 -28.55 Q14.5 -25.7 15.65 -23.45 17.6 -19.6 19.8 -17.5 L19.7 -16.2 M20.95 -6.65 L21.0 -6.95 21.35 -8.55 33.25 -12.3 32.6 -10.5 20.95 -6.65 M22.0 -10.45 L22.7 -12.05 22.9 -12.35 31.85 -14.8 31.45 -13.15 22.0 -10.45" fill="#a4493a" fill-rule="evenodd" stroke="none"/>
      <path d="M18.75 -3.65 L19.7 -16.2 37.8 -22.25 35.65 -9.5 34.25 -9.0 Q34.8 -12.75 33.65 -15.4 32.25 -18.3 29.85 -18.05 L28.5 -17.75 Q25.9 -17.0 23.95 -14.15 L22.9 -12.35 22.7 -12.05 22.0 -10.45 21.35 -8.55 21.0 -6.95 20.95 -6.65 Q20.8 -5.5 20.8 -4.35 L18.75 -3.65" fill="#eb987a" fill-rule="evenodd" stroke="none"/>
      <path d="M29.85 -18.05 Q32.25 -18.3 33.65 -15.4 34.8 -12.75 34.25 -9.0 L32.6 -10.5 33.25 -12.3 31.45 -13.15 31.85 -14.8 29.7 -15.85 29.85 -18.05" fill="#250100" fill-rule="evenodd" stroke="none"/>
      <path d="M21.35 -8.55 L22.0 -10.45 31.45 -13.15 33.25 -12.3 21.35 -8.55 M22.9 -12.35 L23.95 -14.15 29.7 -15.85 31.85 -14.8 22.9 -12.35" fill="#4a110f" fill-rule="evenodd" stroke="none"/>
      <path d="M23.95 -14.15 Q25.9 -17.0 28.5 -17.75 L29.85 -18.05 29.7 -15.85 23.95 -14.15" fill="#9f7054" fill-rule="evenodd" stroke="none"/>
      <path d="M37.8 -22.25 L19.7 -16.2 19.8 -17.5 37.95 -23.1 37.8 -22.25" fill="#ad6a55" fill-rule="evenodd" stroke="none"/>
      <path d="M32.5 -29.55 L32.3 -29.4 15.1 -24.55 14.7 -25.45 14.8 -25.45 31.95 -30.35 32.5 -29.55 M33.35 -28.2 L33.05 -27.95 16.05 -22.8 16.0 -22.8 15.95 -22.9 15.85 -23.05 15.65 -23.45 15.55 -23.65 15.75 -23.75 32.75 -28.9 32.95 -28.95 33.4 -28.35 33.35 -28.2 M31.1 -31.8 L31.55 -31.0 31.35 -30.85 14.5 -26.6 14.2 -26.6 14.1 -26.9 13.95 -27.3 13.95 -27.35 Q14.05 -27.55 14.25 -27.55 L31.1 -31.8 M35.0 -26.3 L35.2 -26.35 35.65 -25.85 35.6 -25.6 35.3 -25.35 17.65 -20.05 17.1 -20.85 17.25 -20.95 35.0 -26.3 M36.05 -24.85 L36.65 -24.9 36.9 -24.75 37.05 -24.7 37.15 -24.6 36.95 -24.3 36.35 -23.9 18.8 -18.6 18.75 -18.6 18.2 -19.3 18.5 -19.55 36.05 -24.85 M34.0 -27.55 L34.05 -27.55 34.65 -26.9 34.6 -26.85 34.3 -26.6 16.75 -21.45 16.25 -22.35 16.3 -22.35 34.0 -27.55" fill="#001527" fill-opacity="0.2" fill-rule="evenodd" stroke="none"/>
      <path d="M31.25 -31.5 L31.45 -31.4 31.7 -31.1 31.65 -30.8 31.65 -30.75 31.35 -30.5 14.7 -26.1 14.4 -26.1 14.1 -26.8 14.15 -26.85 Q14.25 -27.05 14.45 -27.05 L31.1 -31.45 31.25 -31.5 M33.75 -27.9 L33.7 -27.7 33.4 -27.45 16.55 -22.5 16.15 -22.55 16.1 -22.6 15.95 -22.85 15.95 -22.9 16.0 -23.25 16.25 -23.45 33.1 -28.4 33.35 -28.4 33.75 -27.9 M18.5 -18.95 L18.55 -19.1 18.85 -19.3 36.75 -24.45 37.1 -24.4 37.35 -24.1 37.3 -23.75 37.0 -23.5 19.1 -18.35 19.0 -18.35 18.5 -18.95 M35.45 -25.8 L35.9 -25.65 Q36.05 -25.5 35.8 -25.2 L35.3 -24.85 18.05 -19.8 17.8 -19.8 17.45 -20.35 17.5 -20.55 17.75 -20.75 35.0 -25.8 35.45 -25.8 M34.55 -26.8 L34.5 -26.4 34.2 -26.15 17.1 -21.15 16.95 -21.15 16.5 -21.85 16.5 -21.9 16.8 -22.1 33.9 -27.1 34.3 -27.1 34.55 -26.8 M32.55 -29.5 L32.6 -29.4 32.55 -29.05 Q32.4 -28.85 32.25 -28.8 L15.65 -24.4 15.25 -24.45 15.05 -24.75 15.1 -25.15 Q15.2 -25.35 15.4 -25.35 L32.0 -29.75 32.35 -29.7 32.45 -29.65 32.55 -29.5" fill="#ffffff" fill-opacity="0.101960786" fill-rule="evenodd" stroke="none"/>
      <path d="M19.8 -16.65 L18.85 -4.65" ffdec:has-small-stroke="true" ffdec:original-stroke-width="1.0" fill="none" stroke="#ffdbd9" stroke-linecap="round" stroke-linejoin="round" stroke-opacity="0.5019608" stroke-width="1.1391027757982377"/>
    </g>
    <g id="sprite6" transform="matrix(1.0, 0.0, 0.0, 1.0, 0.65, 1.5)">
      <use ffdec:characterId="1108" height="6.1" transform="matrix(1.0, 0.0, 0.0, 1.0, -0.65, -1.5)" width="4.9" xlink:href="#shape9"/>
    </g>
    <g id="shape9" transform="matrix(1.0, 0.0, 0.0, 1.0, 0.65, 1.5)">
      <path d="M3.5 -0.7 Q4.25 0.2 4.25 1.55 4.25 2.85 3.5 3.65 2.8 4.6 1.8 4.6 0.75 4.6 0.05 3.65 -0.65 2.85 -0.65 1.55 -0.65 0.2 0.05 -0.7 0.75 -1.5 1.8 -1.5 2.8 -1.5 3.5 -0.7 M0.7 0.6 Q0.75 0.8 1.05 0.8 1.6 0.8 1.6 0.15 1.6 -0.5 1.1 -0.3 0.65 -0.1 0.65 0.4 L0.7 0.6" fill="url(#gradient14)" fill-rule="evenodd" stroke="none"/>
      <path d="M0.7 0.6 L0.65 0.4 Q0.65 -0.1 1.1 -0.3 1.6 -0.5 1.6 0.15 1.6 0.8 1.05 0.8 0.75 0.8 0.7 0.6" fill="#ffffff" fill-rule="evenodd" stroke="none"/>
    </g>
    <radialGradient cx="0" cy="0" gradientTransform="matrix(0.0029, 0.0, 0.0, 0.0036, 1.3, 0.8)" gradientUnits="userSpaceOnUse" id="gradient14" r="819.2" spreadMethod="pad">
      <stop offset="0.4549019607843137" stop-color="#fff9ee"/>
      <stop offset="0.9137254901960784" stop-color="#d0bfab"/>
    </radialGradient>
    <g id="sprite7" transform="matrix(1.0, 0.0, 0.0, 1.0, -17.45, 9.85)">
      <use ffdec:characterId="1110" height="24.05" transform="matrix(1.0, 0.0, 0.0, 1.0, 17.45, -9.85)" width="21.5" xlink:href="#shape10"/>
    </g>
    <g id="shape10" transform="matrix(1.0, 0.0, 0.0, 1.0, -17.45, 9.85)">
      <path d="M19.95 -3.45 Q19.7 -3.2 19.7 -2.6 19.7 -2.15 19.2 -1.9 L19.5 -1.05 19.05 -0.15 18.55 0.4 18.9 1.35 18.8 1.95 19.0 2.3 19.15 2.8 18.95 3.55 18.45 4.15 18.15 3.85 Q17.9 3.75 17.9 3.25 L17.95 2.45 17.75 1.7 17.8 1.25 17.55 0.8 17.6 0.45 17.45 0.05 Q17.4 -0.3 17.8 -0.7 L18.2 -1.35 18.1 -1.85 Q18.0 -2.15 18.6 -3.05 L19.0 -4.15 19.1 -4.35 19.1 -4.4 Q19.05 -4.7 19.3 -4.85 L19.5 -5.0 19.7 -5.35 Q19.5 -6.0 19.65 -6.0 19.75 -6.5 20.7 -6.4 20.55 -7.1 21.25 -7.5 21.7 -7.9 21.9 -7.65 L22.0 -7.4 21.85 -6.35 Q21.6 -5.45 21.05 -5.45 L20.6 -5.55 20.75 -5.1 20.55 -4.55 20.05 -4.25 19.95 -3.45 M27.05 -9.85 L27.45 -9.65 28.2 -9.4 28.5 -9.2 28.5 -9.15 28.7 -9.05 28.25 -8.75 27.7 -8.95 27.3 -9.15 26.8 -8.85 25.8 -8.55 25.35 -8.65 25.25 -8.75 25.0 -8.5 Q24.8 -8.3 24.5 -8.3 L24.0 -8.35 23.8 -8.45 23.6 -8.5 Q23.45 -8.35 23.1 -8.15 L23.05 -8.1 22.9 -7.8 22.45 -7.85 22.4 -7.9 22.35 -7.9 22.3 -8.0 Q22.3 -8.45 23.35 -8.8 L23.55 -8.8 Q23.6 -9.4 24.1 -9.4 L24.15 -9.35 24.6 -9.45 24.6 -9.5 25.25 -9.7 25.45 -9.7 25.85 -9.75 26.15 -9.65 26.5 -9.7 26.9 -9.75 27.05 -9.85 M30.1 -9.15 Q30.45 -9.15 30.85 -8.75 L30.65 -8.6 Q29.4 -8.8 29.4 -9.3 L29.8 -9.15 30.1 -9.15 M32.55 -8.15 L32.6 -8.15 33.05 -7.7 33.55 -7.5 33.6 -7.15 33.65 -7.1 Q34.65 -6.95 35.2 -6.05 L35.55 -5.6 35.75 -5.45 35.85 -5.25 36.1 -4.95 36.1 -4.9 36.7 -3.9 37.05 -3.3 37.3 -2.75 37.25 -2.7 Q36.95 -2.8 36.75 -3.4 36.45 -4.1 36.5 -4.25 L36.1 -4.7 35.15 -5.45 34.95 -5.65 34.8 -5.9 34.3 -5.95 33.8 -6.15 32.8 -6.45 32.75 -6.85 Q32.1 -7.05 31.9 -7.25 L31.7 -7.65 31.25 -8.1 30.9 -8.4 Q30.9 -8.7 31.85 -8.7 32.25 -8.7 32.55 -8.15 M37.5 -2.5 L37.8 -2.1 Q38.35 -1.35 38.35 -0.9 L38.2 -0.25 38.25 -0.15 38.5 0.3 38.8 1.25 38.7 2.1 Q38.45 2.1 38.45 1.6 L38.45 1.55 Q37.7 1.35 37.35 1.0 L37.15 0.35 Q37.15 -0.1 37.3 -0.4 L37.45 -0.9 37.25 -2.1 Q37.25 -2.55 37.5 -2.4 L37.5 -2.5 M38.75 2.35 L38.9 2.7 38.85 3.45 38.95 3.8 38.8 4.25 38.8 4.45 38.7 4.3 38.55 4.3 38.25 3.75 38.05 3.2 Q38.05 2.5 38.65 2.5 L38.75 2.35 M38.65 5.0 L38.6 4.9 Q38.5 4.7 38.7 4.65 38.7 4.4 38.8 4.75 L38.65 5.0 M38.55 5.3 L38.45 5.75 38.55 6.1 38.2 6.85 38.05 6.85 38.05 6.8 37.9 6.8 Q37.55 6.8 37.55 6.45 37.55 5.55 37.95 5.25 38.25 5.0 38.35 5.5 L38.35 5.25 38.5 5.25 38.55 5.3 M33.2 11.7 Q33.7 11.7 33.9 11.95 L34.2 11.7 34.35 11.3 34.75 11.05 34.95 10.7 Q34.8 10.25 35.35 10.05 L36.0 9.65 36.15 8.95 36.85 8.3 Q36.75 7.85 37.3 7.55 L37.9 7.5 38.15 7.55 37.8 8.3 Q37.55 8.6 37.65 9.0 L37.1 9.6 36.45 10.45 36.35 10.55 36.2 10.75 35.9 11.1 35.85 11.2 35.55 11.75 34.85 12.45 Q34.5 12.85 33.9 12.85 L33.7 13.2 33.3 13.2 33.1 13.15 32.65 13.6 32.45 13.5 31.9 13.7 31.9 13.8 31.5 13.95 30.8 14.0 30.65 13.9 30.55 13.9 30.3 13.9 30.05 13.9 Q29.95 13.75 29.9 14.0 L29.55 14.15 28.1 14.2 Q27.9 13.95 27.75 14.0 L27.7 13.9 28.0 13.85 28.5 13.8 Q28.15 13.7 28.15 13.45 28.15 13.2 29.0 13.05 L29.85 12.9 30.55 13.05 30.9 12.75 Q31.15 12.45 31.5 12.45 L32.0 12.6 32.5 12.15 Q32.85 11.7 33.2 11.7 M21.25 9.15 L21.7 9.35 22.15 9.55 22.35 10.15 Q22.4 10.55 23.55 10.65 L24.0 11.15 24.5 11.4 Q24.8 11.35 24.95 11.6 L25.2 12.2 25.0 12.6 25.1 12.75 24.9 13.1 24.5 12.85 24.25 12.55 23.75 12.85 22.85 11.95 22.4 11.35 Q21.7 11.25 21.55 10.85 L21.55 10.7 20.75 9.95 20.45 9.35 20.0 8.8 20.0 8.6 20.25 8.65 20.25 8.6 20.45 8.35 21.0 8.55 21.25 9.15 M29.45 13.7 L29.15 13.75 29.4 13.75 29.7 13.75 29.45 13.7 M27.4 13.9 Q27.25 13.9 27.25 14.0 L26.95 13.95 26.85 13.95 Q26.35 13.95 25.85 13.4 L25.8 13.35 25.7 13.3 25.55 13.35 Q25.25 13.35 25.35 13.15 25.25 12.9 25.45 12.85 L25.45 12.8 Q25.45 12.25 26.35 12.7 27.25 13.1 27.25 13.6 L27.25 13.75 27.4 13.9 M33.55 12.85 L33.55 12.8 33.45 12.75 33.4 12.85 33.55 12.85 M18.6 4.35 L19.1 4.8 19.85 5.75 Q20.25 6.2 20.35 7.65 20.35 8.2 19.95 8.2 L19.85 8.2 19.7 8.3 Q19.3 8.3 19.35 7.55 L19.15 7.1 19.25 6.7 18.7 5.95 18.05 4.5 Q18.0 3.9 18.35 4.35 L18.6 4.35" fill="#2e0000" fill-opacity="0.3019608" fill-rule="evenodd" stroke="none"/>
      <path d="M26.1 -6.5 L27.0 -6.2 27.75 -5.8 27.9 -5.4 28.3 -4.9 28.45 -4.55 28.7 -4.1 28.65 -3.75 28.95 -3.5 29.05 -3.3 29.15 -3.05 29.2 -3.0 29.3 -2.35 29.45 -1.65 29.6 -1.35 29.8 -1.05 29.75 -0.85 29.7 -0.75 29.65 -0.3 29.55 0.35 30.05 0.7 30.15 0.85 30.25 1.45 30.4 2.6 30.35 3.05 30.1 3.35 30.4 4.1 30.5 4.35 30.5 4.55 30.2 5.05 30.45 5.4 30.75 5.65 30.75 5.8 30.75 6.3 30.9 6.4 30.95 6.5 31.05 6.65 31.0 6.85 31.05 6.9 31.2 6.55 31.2 6.25 31.2 6.15 31.1 5.95 Q31.0 5.6 31.15 5.65 L31.15 5.55 31.5 5.45 31.3 5.05 31.3 5.0 31.1 5.15 30.9 5.05 30.9 4.95 31.1 4.75 31.3 4.85 Q31.25 4.2 31.7 4.25 L31.95 4.6 32.35 5.05 32.55 5.5 32.55 4.75 32.45 4.3 32.4 4.2 Q32.25 3.8 32.4 3.8 L32.35 3.5 32.6 3.3 32.3 3.0 32.3 2.75 32.3 2.55 32.25 1.85 Q32.1 1.4 32.25 1.15 L32.35 0.95 32.75 0.9 32.55 0.45 32.45 0.2 Q32.4 -0.2 32.65 -0.45 32.85 -1.0 33.35 -0.85 L33.8 -0.55 33.85 -0.45 34.1 -0.35 34.35 -0.15 34.4 0.05 34.4 0.45 34.35 0.8 Q34.1 1.05 34.2 1.25 L34.3 1.55 34.35 1.7 34.4 1.9 34.35 2.3 Q34.05 2.45 34.1 2.5 L34.05 2.5 34.0 2.6 33.95 3.1 33.55 4.0 33.6 4.0 Q33.85 4.0 33.85 4.3 L33.65 4.6 33.5 4.6 33.55 4.85 33.5 5.4 33.6 5.8 33.55 6.05 Q33.45 5.9 33.5 6.1 L33.55 6.2 33.7 6.65 33.55 7.15 33.35 7.35 33.5 7.8 33.55 8.1 Q33.55 8.95 33.35 8.95 L33.0 8.85 32.9 8.55 32.9 8.5 32.75 8.45 32.45 8.15 32.4 8.05 32.4 7.8 32.25 7.8 32.2 8.45 32.05 8.55 32.1 8.9 32.2 9.0 31.95 9.65 31.8 9.65 31.8 10.2 31.85 10.3 31.85 10.4 31.6 10.85 30.95 10.65 30.3 10.2 30.1 9.85 30.05 9.65 29.85 9.2 29.3 8.95 29.15 8.85 29.15 8.75 28.9 8.15 28.3 7.65 27.95 7.15 Q27.95 6.7 28.1 6.7 27.7 6.45 27.8 6.1 L27.4 6.2 27.2 6.2 26.8 5.9 26.8 5.55 Q26.65 5.5 26.8 5.5 L26.65 5.05 Q26.05 4.6 26.15 4.2 L25.9 4.15 25.8 4.0 25.7 3.8 25.7 3.75 25.75 3.5 Q25.7 2.8 25.35 2.7 24.95 2.45 24.85 1.65 L24.85 1.15 24.65 0.7 24.15 0.25 24.0 -0.15 23.95 -1.6 23.75 -1.85 23.65 -2.2 23.65 -2.5 23.95 -2.8 Q23.75 -3.05 23.85 -3.2 23.65 -3.4 23.9 -3.45 L23.95 -3.7 23.65 -4.3 23.65 -4.5 23.65 -4.8 23.75 -4.85 23.75 -4.9 Q23.6 -5.3 24.25 -5.55 24.3 -5.8 24.7 -5.85 24.95 -6.05 25.55 -5.85 25.45 -6.25 25.6 -6.25 25.7 -6.7 26.1 -6.5 M25.2 -6.65 L25.45 -6.35 25.2 -6.0 Q25.0 -6.0 24.95 -6.15 L24.95 -6.35 Q24.95 -6.65 25.2 -6.65 M27.35 6.65 L27.35 6.55 27.55 6.35 27.75 6.55 27.55 6.8 27.35 6.65" fill="#2e0000" fill-opacity="0.3019608" fill-rule="evenodd" stroke="none"/>
    </g>
    <g id="sprite8" transform="matrix(1.0, 0.0, 0.0, 1.0, 188.6, -42.15)">
      <use ffdec:characterId="1112" height="75.6" transform="matrix(1.0, 0.0, 0.0, 1.0, -188.6, 42.15)" width="70.95" xlink:href="#shape11"/>
      <filter id="filter1">
        <feConvolveMatrix divisor="4.0" in="SourceGraphic" kernelMatrix="1 1 1 1" order="2 2" result="filterResult1"/>
      </filter>
      <use ffdec:characterId="1114" filter="url(#filter1)" height="315.8" transform="matrix(0.2202, 0.0, 0.0, 0.2202, -187.102, 46.0711)" width="310.85" xlink:href="#sprite9"/>
      <filter id="filter2">
        <feConvolveMatrix divisor="4.0" in="SourceGraphic" kernelMatrix="1 1 1 1" order="2 2" result="filterResult2"/>
      </filter>
      <use ffdec:characterId="1116" filter="url(#filter2)" height="253.25" transform="matrix(0.276, 0.0, 0.0, 0.276, -184.3533, 44.0457)" width="238.65" xlink:href="#sprite10"/>
    </g>
    <g id="shape11" transform="matrix(1.0, 0.0, 0.0, 1.0, 188.6, -42.15)">
      <path d="M-141.85 48.95 L-140.75 48.35 -139.25 48.9 -137.8 48.5 -135.0 48.05 Q-133.75 48.05 -132.75 48.5 -131.95 49.0 -131.85 49.05 L-131.25 49.05 Q-131.5 48.0 -128.55 47.25 L-127.15 46.2 Q-126.45 45.6 -125.0 46.45 L-123.3 48.45 Q-121.85 50.35 -121.85 50.95 -121.85 51.65 -123.2 51.65 -124.65 51.65 -125.75 50.45 -126.8 49.25 -127.4 49.25 L-128.8 49.8 Q-130.05 50.35 -131.05 50.35 L-133.65 49.85 Q-134.9 49.35 -135.35 49.35 L-136.85 49.95 -139.25 50.5 Q-140.5 50.5 -141.8 49.7 L-142.9 49.35 Q-142.45 48.9 -141.85 48.95 M-130.3 49.3 L-129.3 48.9 Q-129.9 48.45 -130.3 49.2 L-130.3 49.3 M-161.6 112.8 L-164.25 112.35 -166.75 112.35 -167.35 112.4 Q-168.65 112.4 -168.65 111.85 -168.65 111.1 -166.75 110.85 L-163.9 110.85 Q-158.35 111.5 -158.35 113.65 -158.35 114.95 -159.45 115.85 L-160.55 116.5 Q-161.5 117.15 -165.95 117.75 L-171.7 117.75 -173.1 117.6 -174.65 117.35 -175.55 117.35 Q-177.75 117.35 -180.05 116.6 -181.6 116.1 -182.25 115.45 L-182.5 115.45 -184.7 115.35 Q-187.2 115.05 -187.2 114.3 L-186.85 113.8 -186.85 113.65 -186.75 113.25 Q-186.75 113.15 -186.6 113.15 -188.0 113.05 -188.0 112.35 -188.0 111.6 -187.35 111.85 L-184.65 112.35 -184.55 112.6 Q-184.55 113.15 -186.1 113.15 L-186.05 113.3 -185.35 113.65 -184.7 113.8 -182.65 113.8 -182.5 113.9 -182.4 113.8 -182.35 113.8 -182.2 113.75 -181.75 113.55 Q-181.35 113.55 -181.1 113.8 L-179.15 113.3 Q-177.1 113.0 -177.1 113.9 -177.1 114.2 -179.25 114.7 -179.3 115.05 -179.65 115.2 L-179.4 115.35 -179.4 115.3 Q-179.4 114.95 -178.9 114.95 L-174.45 115.85 -171.1 115.7 -165.8 116.25 -164.25 116.2 -163.8 115.6 -163.65 115.55 -167.2 115.95 Q-167.75 115.95 -167.9 115.55 -167.1 114.2 -164.15 114.05 L-161.7 113.95 -161.6 112.8" fill="#1c0000" fill-opacity="0.3019608" fill-rule="evenodd" stroke="none"/>
      <path d="M-118.75 46.85 Q-118.75 44.8 -119.95 43.8 -121.9 42.15 -126.1 44.65 -130.4 45.35 -134.05 46.55 L-139.4 48.5 -139.0 48.8 -137.85 49.0 Q-136.85 49.0 -136.3 48.6 -135.75 48.2 -134.4 48.2 L-132.3 48.4 -131.1 48.6 -128.8 47.65 Q-126.95 46.7 -126.0 46.7 -124.25 46.7 -123.05 48.6 -121.8 50.5 -121.3 50.5 -119.85 50.5 -119.15 48.7 L-118.75 46.85 M-117.75 48.0 Q-118.0 49.45 -118.6 50.55 -119.35 51.85 -121.0 51.7 -122.7 51.55 -123.75 49.6 -124.8 47.65 -126.0 47.65 L-128.45 48.65 Q-130.4 49.6 -130.95 49.6 L-133.7 49.15 -135.2 49.15 -136.0 49.65 -137.8 49.95 Q-139.2 49.95 -139.7 49.55 L-142.1 49.3 Q-144.0 49.4 -142.85 48.9 -140.3 47.5 -138.7 47.0 -133.65 45.35 -130.1 44.5 L-120.15 42.15 Q-117.15 43.5 -117.75 48.0 M-187.0 113.25 Q-187.0 114.2 -184.15 114.2 -183.15 114.2 -187.0 113.25 M-182.2 88.95 L-182.2 89.95 -182.2 90.45 -182.4 90.8 Q-182.2 90.8 -181.95 92.5 -181.6 94.95 -182.2 97.0 -182.75 98.65 -182.1 101.1 -181.5 103.9 -181.35 105.8 -181.1 108.4 -182.0 108.75 L-182.0 108.8 -182.2 108.9 -182.2 108.95 -182.4 109.4 -182.85 109.55 -185.2 110.05 -185.05 109.95 -186.1 110.45 -186.3 110.6 -186.5 110.85 -187.2 111.0 -185.05 111.45 -184.3 111.5 -183.9 110.8 -184.05 111.6 -183.8 111.6 -183.15 110.7 Q-182.75 110.45 -183.0 111.45 L-183.15 111.75 Q-181.85 112.15 -181.6 113.0 L-179.05 113.4 -181.6 113.15 -181.6 113.75 -181.6 113.8 Q-181.5 114.05 -179.0 114.55 L-171.75 115.3 -167.75 115.35 Q-163.55 115.35 -162.4 114.2 L-162.35 114.05 -161.95 113.5 Q-161.95 112.8 -162.2 112.5 L-162.25 112.4 -164.0 111.6 -165.55 111.25 -167.85 110.7 -167.9 110.6 -170.35 109.55 -174.25 109.55 -175.15 109.7 -175.45 109.7 -176.3 109.55 -176.6 109.4 -176.85 108.95 Q-177.35 107.5 -178.5 106.25 -180.8 103.9 -180.8 101.6 L-180.45 96.9 Q-180.45 94.3 -181.1 92.1 L-182.1 89.15 -182.2 88.95 M-181.75 85.6 Q-181.2 83.4 -181.6 81.45 -181.7 80.85 -181.95 80.3 L-182.0 85.1 -182.1 86.5 -181.75 85.55 -181.75 85.6 M-161.05 111.6 Q-160.45 112.35 -160.35 113.4 -160.35 113.95 -160.7 114.7 -161.95 116.5 -168.1 117.0 L-179.25 116.1 Q-181.85 115.7 -182.65 114.7 L-185.95 114.8 Q-188.9 114.45 -187.5 112.4 -188.9 111.9 -188.55 111.2 L-187.9 110.05 Q-187.65 109.65 -185.6 108.95 L-183.3 108.15 -182.75 107.65 Q-182.5 107.4 -182.65 105.85 L-183.4 101.1 Q-184.0 98.0 -183.55 96.45 -183.25 94.8 -183.3 93.3 L-183.55 90.95 -183.3 84.65 Q-183.1 79.2 -183.25 76.0 -180.35 79.15 -180.05 80.95 -179.7 82.6 -180.35 85.35 -181.1 88.05 -180.8 88.9 L-179.25 93.8 Q-178.8 95.3 -178.8 96.9 L-178.8 97.0 -179.3 101.2 Q-179.55 103.3 -177.35 105.6 -175.6 107.4 -175.55 108.25 L-169.95 108.25 Q-168.65 108.75 -168.0 109.15 -167.35 109.65 -164.45 110.3 -161.6 110.85 -161.05 111.6" fill="#296c01" fill-rule="evenodd" stroke="none"/>
      <path d="M-176.05 108.75 L-175.3 108.9 -174.4 108.75 -170.3 108.75 -167.6 109.85 -165.35 110.45 -163.8 110.8 Q-162.25 111.35 -161.7 111.85 -161.1 112.4 -161.1 113.5 -161.1 114.15 -161.85 114.7 -163.1 116.2 -167.75 116.2 L-171.85 116.1 -179.15 115.35 Q-182.6 114.7 -182.4 113.65 -182.35 112.5 -185.15 112.25 -188.0 112.0 -188.0 111.0 -188.0 110.45 -186.85 110.05 L-186.5 109.7 -185.35 109.2 -183.25 108.8 -183.25 108.9 Q-181.2 109.15 -180.7 110.05 -180.3 110.7 -177.25 110.85 L-173.4 110.45 Q-172.5 109.8 -174.15 109.3 L-176.05 108.75" fill="url(#gradient15)" fill-rule="evenodd" stroke="none"/>
      <path d="M-183.25 108.8 L-183.0 108.75 -182.75 108.3 -182.4 108.0 Q-182.0 107.75 -182.2 105.85 L-182.9 101.25 Q-183.55 98.55 -183.0 96.75 -182.4 94.85 -182.75 92.6 L-183.0 90.2 -182.85 85.05 Q-182.65 80.1 -182.85 77.5 -181.2 79.15 -180.8 81.25 -180.35 83.4 -181.05 85.8 -181.75 88.05 -181.35 88.75 L-180.35 91.85 Q-179.65 94.2 -179.65 96.9 L-179.95 101.6 Q-179.95 103.55 -177.9 105.7 -176.6 107.1 -176.1 108.75 L-176.05 108.75 -174.15 109.3 Q-172.5 109.8 -173.4 110.45 L-177.25 110.85 Q-180.3 110.7 -180.7 110.05 -181.2 109.15 -183.25 108.9 L-183.25 108.8" fill="url(#gradient16)" fill-rule="evenodd" stroke="none"/>
      <path d="M-187.2 113.0 L-184.65 113.0 Q-183.1 113.05 -183.1 113.65 -183.1 114.3 -183.65 114.3 -187.4 114.3 -187.4 113.4 L-187.2 113.0" fill="url(#gradient17)" fill-rule="evenodd" stroke="none"/>
      <path d="M-118.3 47.45 L-118.3 47.6 Q-118.3 49.1 -118.95 49.9 -119.7 51.1 -121.1 51.1 -122.65 51.1 -123.25 49.2 L-123.5 48.6 Q-124.3 47.45 -125.3 47.3 L-125.65 47.25 -125.75 47.25 Q-126.5 47.3 -128.3 48.2 -130.25 49.15 -131.1 49.15 L-132.5 49.0 -133.35 48.9 -134.45 48.7 Q-135.1 48.7 -135.9 49.2 L-137.2 49.65 -139.1 49.25 -139.65 48.9 -142.4 48.95 -136.25 47.05 -133.3 46.0 Q-131.7 45.35 -130.3 45.05 L-126.3 44.25 -124.7 43.75 -123.25 43.35 -120.7 42.75 Q-119.2 42.75 -118.55 44.7 -118.2 45.65 -118.2 46.7 L-118.3 47.45" fill="url(#gradient18)" fill-rule="evenodd" stroke="none"/>
    </g>
    <radialGradient cx="0" cy="0" gradientTransform="matrix(0.0198, 0.0019, -7.0E-4, 0.0078, -173.9, 109.45)" gradientUnits="userSpaceOnUse" id="gradient15" r="819.2" spreadMethod="pad">
      <stop offset="0.1411764705882353" stop-color="#b0ec34"/>
      <stop offset="0.4470588235294118" stop-color="#92d03d"/>
      <stop offset="0.8901960784313725" stop-color="#68b400"/>
      <stop offset="1.0" stop-color="#569500"/>
    </radialGradient>
    <linearGradient gradientTransform="matrix(0.0024, -2.0E-4, 0.1696, 1.629, -196.85, -69.85)" gradientUnits="userSpaceOnUse" id="gradient16" spreadMethod="pad" x1="-819.2" x2="819.2">
      <stop offset="0.0" stop-color="#92d03d"/>
      <stop offset="1.0" stop-color="#66b100"/>
    </linearGradient>
    <radialGradient cx="0" cy="0" gradientTransform="matrix(0.0032, 0.0, 0.0, 0.0013, -184.9, 113.15)" gradientUnits="userSpaceOnUse" id="gradient17" r="819.2" spreadMethod="pad">
      <stop offset="0.1411764705882353" stop-color="#b0ec34"/>
      <stop offset="0.4470588235294118" stop-color="#92d03d"/>
      <stop offset="0.8901960784313725" stop-color="#68b400"/>
      <stop offset="1.0" stop-color="#569500"/>
    </radialGradient>
    <linearGradient gradientTransform="matrix(2.0E-4, 0.0018, -0.7977, 0.0883, -161.55, 51.8)" gradientUnits="userSpaceOnUse" id="gradient18" spreadMethod="pad" x1="-819.2" x2="819.2">
      <stop offset="0.0" stop-color="#92d03d"/>
      <stop offset="1.0" stop-color="#66b100"/>
    </linearGradient>
    <g id="sprite9" transform="matrix(1.0, 0.0, 0.0, 1.0, 791.0, 138.85)">
      <use ffdec:characterId="1113" height="315.8" transform="matrix(1.0, 0.0, 0.0, 1.0, -791.0, -138.85)" width="310.85" xlink:href="#shape12"/>
    </g>
    <g id="shape12" transform="matrix(1.0, 0.0, 0.0, 1.0, 791.0, 138.85)">
      <path d="M-480.25 -127.75 Q-484.1 -116.8 -488.55 -116.8 -493.85 -116.8 -497.15 -119.55 -499.4 -121.4 -501.6 -125.6 -504.1 -130.4 -505.25 -131.7 -507.65 -134.45 -511.45 -134.45 -517.4 -134.45 -526.5 -129.9 -535.6 -125.4 -540.85 -125.4 -543.8 -125.4 -546.75 -126.75 L-549.6 -128.45 Q-554.95 -128.55 -559.75 -126.25 -564.6 -123.9 -569.0 -123.9 L-574.55 -124.9 -581.15 -125.9 Q-583.3 -125.9 -583.7 -127.4 L-574.0 -129.6 Q-571.85 -129.2 -570.6 -128.15 -568.9 -126.7 -565.95 -126.7 -564.65 -126.7 -559.65 -128.8 -554.7 -130.95 -548.7 -130.95 L-544.75 -130.3 -538.25 -129.7 Q-535.25 -129.7 -530.85 -131.15 -526.0 -132.95 -523.85 -135.25 -521.7 -137.55 -513.5 -138.6 -505.3 -139.7 -503.9 -136.15 -502.6 -135.55 -496.2 -128.35 -490.55 -122.05 -486.7 -122.05 -485.75 -122.05 -483.2 -124.9 L-480.25 -127.75 -480.15 -127.75 Q-480.25 -121.4 -480.25 -127.75 M-767.35 30.95 Q-767.35 39.3 -768.65 47.35 L-770.0 55.15 Q-770.0 59.4 -767.75 66.5 -765.55 73.55 -765.55 80.05 -765.55 84.05 -766.95 89.85 -768.4 95.65 -768.4 99.9 -768.4 109.6 -765.5 120.65 -762.65 131.75 -762.65 139.0 -762.65 140.15 -763.5 142.3 -764.4 144.45 -764.4 145.25 -764.4 146.6 -759.05 149.8 L-755.95 151.75 -744.35 153.1 -737.15 153.1 Q-732.0 153.2 -729.25 150.8 -728.75 150.4 -732.3 148.65 -723.85 149.75 -724.15 150.8 -724.5 151.85 -726.2 152.95 L-730.6 155.1 Q-733.2 156.05 -736.75 156.4 L-744.75 156.4 -754.3 155.05 -754.55 155.05 Q-759.25 155.05 -762.7 153.0 -765.55 152.2 -768.1 151.75 L-768.75 151.65 -768.8 151.3 -768.55 151.2 -768.85 151.05 -770.2 150.3 Q-773.25 150.3 -777.95 151.7 -783.8 153.4 -786.15 155.9 -776.9 156.6 -770.8 158.9 -765.3 161.0 -763.95 163.65 -762.9 165.7 -757.25 168.2 -754.1 169.6 -750.1 170.9 L-722.2 173.15 -706.1 173.5 -705.55 173.75 -697.0 173.75 Q-687.65 173.05 -682.3 169.25 -678.1 166.3 -678.1 163.3 L-678.55 160.8 -678.55 160.55 Q-677.2 160.8 -676.45 162.75 -675.9 164.2 -675.9 165.3 -675.9 168.6 -679.85 171.6 -684.65 175.4 -693.75 176.7 L-696.6 176.95 -705.55 176.95 -706.25 176.85 -716.0 176.7 -716.55 176.6 -723.15 176.35 -758.6 172.35 Q-762.3 171.6 -764.75 169.7 -766.85 168.2 -767.3 166.5 -768.0 164.2 -769.8 162.7 -771.0 162.2 -772.65 161.95 L-780.6 161.3 Q-791.0 160.7 -791.0 156.25 -791.0 153.6 -787.85 151.3 -783.6 148.2 -774.9 147.25 L-770.5 145.35 -768.75 144.95 Q-768.65 142.75 -767.6 140.1 -766.5 137.3 -766.5 132.85 L-769.6 119.55 Q-772.7 106.35 -772.7 99.95 -772.7 93.8 -771.25 88.6 -769.85 83.4 -769.85 80.05 -769.85 76.1 -771.2 67.95 -772.55 59.8 -772.55 58.5 L-772.2 46.15 Q-769.9 30.0 -770.35 7.15 -768.6 11.65 -767.9 17.9 -767.35 22.7 -767.35 30.95 M-771.9 34.45 L-772.0 38.05 -772.0 36.6 -771.9 34.45 M-780.85 167.6 Q-773.8 168.45 -773.0 169.1 L-773.5 169.5 -774.9 169.7 Q-784.0 169.7 -785.05 169.5 L-786.6 168.55 Q-789.4 167.35 -789.4 166.7 -789.4 166.15 -788.75 165.55 -787.65 166.7 -780.85 167.6" fill="#1a5b00" fill-opacity="0.8" fill-rule="evenodd" stroke="none"/>
    </g>
    <g id="sprite10" transform="matrix(1.0, 0.0, 0.0, 1.0, 653.85, 160.35)">
      <use ffdec:characterId="1115" height="253.25" transform="matrix(1.0, 0.0, 0.0, 1.0, -653.85, -160.35)" width="238.65" xlink:href="#shape13"/>
    </g>
    <g id="shape13" transform="matrix(1.0, 0.0, 0.0, 1.0, 653.85, 160.35)">
      <path d="M-617.2 -117.85 Q-617.2 -118.4 -616.05 -118.6 -614.9 -118.75 -614.9 -117.95 -614.9 -117.25 -616.05 -117.3 -617.4 -117.3 -617.2 -117.85 M-642.0 -25.05 Q-640.9 -24.35 -640.6 -22.05 L-640.5 -18.35 Q-640.5 -15.05 -641.0 -11.9 L-641.45 -11.7 Q-641.9 -12.45 -641.85 -13.15 L-641.75 -14.55 -642.3 -24.5 -642.2 -25.0 -642.0 -25.05 M-430.9 -160.3 Q-426.95 -160.15 -423.65 -158.6 L-418.4 -156.25 Q-415.2 -154.8 -415.2 -153.15 -415.2 -150.6 -415.7 -148.8 -416.8 -144.95 -419.85 -144.95 -423.6 -144.95 -425.35 -146.95 L-429.35 -151.65 -432.25 -154.85 -434.9 -157.65 Q-439.9 -157.65 -448.45 -153.55 -457.0 -149.45 -462.1 -149.45 L-464.25 -149.9 -474.05 -150.2 -474.1 -150.25 -474.2 -150.75 Q-474.2 -151.5 -474.05 -151.05 -460.4 -151.5 -452.85 -154.75 -445.1 -158.5 -440.0 -159.5 L-430.9 -160.3 M-641.85 6.75 Q-639.2 11.7 -638.05 15.85 -636.9 20.0 -636.9 24.75 -636.9 27.6 -638.1 33.8 -639.3 40.0 -639.3 44.7 L-638.65 52.45 -637.8 58.85 Q-637.55 60.15 -634.35 62.5 -630.95 65.05 -630.45 66.0 L-628.4 69.55 Q-626.7 72.55 -626.7 72.9 -626.7 74.55 -628.75 74.55 -629.5 74.55 -632.75 70.25 -636.1 65.75 -637.35 62.75 -639.8 56.8 -639.9 55.85 -639.65 54.2 -639.65 51.05 -639.65 50.35 -641.05 47.15 -642.5 43.95 -642.5 40.2 -642.5 37.85 -641.4 32.1 -640.35 26.4 -640.35 21.9 -640.35 18.4 -640.85 14.5 L-642.15 6.75 -641.85 6.75 M-630.5 83.05 L-628.8 83.4 Q-626.6 83.4 -625.55 82.85 -624.55 82.25 -623.3 82.25 L-620.45 82.5 -619.2 82.7 Q-617.25 82.7 -615.9 81.5 -614.85 80.6 -614.85 80.1 -614.85 78.75 -616.85 77.35 L-618.9 76.0 Q-618.9 74.55 -615.55 75.8 L-610.25 78.0 Q-606.8 78.7 -605.8 79.65 -605.25 80.25 -605.25 81.6 -605.25 82.95 -607.2 84.35 -609.65 86.1 -613.55 86.4 L-621.6 86.4 -627.05 85.6 -635.0 85.25 Q-639.05 85.25 -641.5 84.25 L-643.35 83.1 -644.45 81.6 -647.25 78.8 Q-646.45 79.2 -645.9 79.55 L-643.3 81.45 Q-640.5 83.25 -638.45 83.25 L-638.05 82.95 Q-638.0 82.65 -637.65 82.65 L-637.1 82.8 -636.6 82.95 -632.95 82.65 -630.5 83.05 M-622.5 75.9 L-623.85 75.6 -623.85 74.85 Q-623.85 74.05 -622.85 74.0 -621.9 73.95 -621.9 74.9 L-621.95 75.6 -622.0 75.75 -622.5 75.9 M-625.9 90.3 L-617.45 89.9 -609.45 90.0 -600.7 89.65 -595.95 89.3 -592.5 87.15 Q-587.85 84.45 -587.85 83.9 -587.85 83.55 -588.2 83.1 L-588.6 82.45 Q-590.15 81.6 -592.85 80.25 L-592.85 79.65 Q-585.75 81.25 -583.25 82.0 -579.15 83.3 -579.15 86.1 -579.15 87.85 -579.4 88.35 -579.95 89.4 -582.35 90.6 L-585.35 91.25 -588.05 91.7 -591.0 92.45 -596.2 92.9 -613.9 92.35 Q-625.0 91.75 -627.2 90.9 -626.35 90.45 -625.9 90.3 M-650.55 91.45 L-650.7 91.65 -651.55 91.8 Q-652.75 91.8 -653.4 91.1 L-653.85 90.25 Q-653.85 89.2 -652.2 89.5 -650.55 89.75 -650.55 91.0 L-650.55 91.45" fill="#d0ff83" fill-opacity="0.8" fill-rule="evenodd" stroke="none"/>
    </g>
    <g id="shape14" transform="matrix(1.0, 0.0, 0.0, 1.0, 51.2, 29.75)">
      <path d="M58.1 -26.8 L59.8 -26.1 62.9 -24.65 64.25 -23.85 64.8 -23.45 65.6 -22.85 67.75 -20.65 68.65 -19.1 68.7 -18.9 68.9 -18.15 M69.05 -18.75 L69.1 -20.0 69.2 -21.9 M69.0 -17.8 L69.05 -18.75 M-48.3 -15.8 L-45.9 -18.0 M-50.45 -12.2 L-50.25 -12.7 Q-49.65 -14.3 -48.3 -15.8 M-50.7 -14.1 L-50.7 -13.75 -50.7 -10.5 -50.45 -12.2 M-48.7 -9.45 L-48.7 -10.7 M-50.7 -16.6 L-50.7 -14.1 M-35.95 1.3 L-38.7 0.4 -42.65 -1.2 Q-44.55 -2.1 -46.0 -3.05 L-48.8 -5.5 Q-50.45 -7.45 -50.65 -9.6 L-50.7 -10.1 -50.7 -10.5 M-46.0 -7.3 L-46.0 -8.4 M-42.65 -1.2 L-42.6 -5.55 -42.6 -6.4 M-46.0 -7.3 L-46.0 -3.05 M-48.8 -5.5 L-48.7 -9.45 M-38.7 -4.9 L-38.7 -4.1 -38.7 0.4" ffdec:has-small-stroke="true" ffdec:original-stroke-width="1.0" fill="none" stroke="#000000" stroke-linecap="round" stroke-linejoin="round" stroke-width="1.1391027757982377"/>
      <path d="M62.9 -27.25 L63.2 -27.1 65.6 -25.6 67.5 -23.85 67.8 -23.45 Q69.0 -21.8 69.1 -20.0 L69.1 -19.75 69.1 -19.1 69.05 -18.75 68.9 -18.15 69.0 -17.8 M59.8 -28.65 L58.1 -29.3 M62.9 -27.25 L59.8 -28.65 M-48.3 -19.1 L-45.9 -21.15 M-48.3 -19.1 Q-50.65 -16.7 -50.7 -14.1 M-50.7 -13.75 L-50.45 -12.2 -50.25 -11.75 Q-49.75 -10.55 -48.7 -9.45 L-46.0 -7.3 Q-44.55 -6.4 -42.6 -5.55 L-38.7 -4.1 -35.95 -3.3" ffdec:has-small-stroke="true" ffdec:original-stroke-width="0.5" fill="none" stroke="#000000" stroke-linecap="round" stroke-linejoin="round" stroke-width="1.1391027757982377"/>
      <path d="M65.6 -25.6 L65.6 -26.6 M62.9 -28.0 L62.9 -27.25 62.9 -24.65 M67.8 -23.45 L67.8 -24.5 M59.8 -28.65 L59.8 -29.4 M59.8 -26.1 L59.8 -28.65 M67.8 -23.45 L67.75 -20.65 M65.6 -22.85 L65.6 -25.6 M-48.3 -15.8 L-48.3 -19.1 -48.3 -20.2" ffdec:has-small-stroke="true" ffdec:original-stroke-width="0.7" fill="none" stroke="#000000" stroke-linecap="round" stroke-linejoin="round" stroke-width="1.1391027757982377"/>
    </g>
    <g id="sprite11" transform="matrix(1.0, 0.0, 0.0, 1.0, 0.5, 0.0)">
      <use ffdec:characterId="1120" height="24.3" transform="matrix(1.0, 0.0, 0.0, 1.0, -0.5, 4.45)" width="106.05" xlink:href="#shape15"/>
      <use ffdec:characterId="1122" height="21.65" transform="matrix(1.0, 0.0, 0.0, 1.0, 88.45, 0.0)" width="10.65" xlink:href="#sprite12"/>
      <use ffdec:characterId="1122" height="21.65" transform="matrix(1.087, 0.0, 0.0, 1.087, 59.887, 5.6717)" width="10.65" xlink:href="#sprite13"/>
    </g>
    <g id="shape15" transform="matrix(1.0, 0.0, 0.0, 1.0, 0.5, -4.45)">
      <path d="M76.3 11.35 Q76.5 11.4 76.7 11.6 L77.0 12.3 76.7 13.0 76.15 13.3 76.1 13.3 75.45 13.0 75.2 12.3 Q75.2 11.9 75.45 11.6 75.75 11.3 76.1 11.3 L76.3 11.35 76.3 12.25 76.3 11.35 M84.0 10.3 L83.8 9.7 Q83.8 9.3 84.05 9.0 84.3 8.75 84.6 8.7 L84.7 8.7 Q85.05 8.7 85.3 9.0 L85.6 9.7 85.3 10.4 84.75 10.7 84.7 10.7 84.65 10.7 Q84.35 10.7 84.05 10.4 L84.0 10.3 84.65 10.15 84.6 8.7 84.65 10.15 84.0 10.3 M90.7 9.6 L90.9 10.0 90.7 10.45 90.35 10.6 90.3 10.6 89.95 10.45 89.8 10.0 89.95 9.6 90.35 9.4 90.7 9.6 M76.7 12.35 L77.0 12.3 76.7 12.35 M68.95 15.7 L68.9 15.7 68.55 15.55 68.4 15.1 68.45 14.9 68.55 14.7 68.95 14.5 69.3 14.7 69.45 14.9 69.5 15.1 69.3 15.55 68.95 15.7" fill="#000000" fill-rule="evenodd" stroke="none"/>
      <path d="M103.65 6.95 L104.65 5.2 104.95 4.95 M101.65 9.05 L103.65 6.95 M96.65 12.3 L97.85 11.65 99.35 10.75 101.65 9.05 M90.35 15.0 L90.95 14.8 93.35 13.85 96.65 12.3 M64.65 21.3 L65.75 21.15 67.1 20.95 68.95 20.65 M41.85 23.25 L45.15 23.1 46.8 23.05 47.95 22.95 48.05 22.95 53.85 22.55 59.15 22.0 64.65 21.3 M35.35 23.35 L41.85 23.25 M29.55 23.3 L35.35 23.35 M23.75 23.05 L29.55 23.3 M1.65 19.85 L0.0 19.4 M6.55 20.95 L7.3 21.1 11.5 21.8 12.65 21.95 18.05 22.6 23.75 23.05 M1.65 19.85 L2.75 20.1 6.55 20.95" ffdec:has-small-stroke="true" ffdec:original-stroke-width="0.5" fill="none" stroke="#000000" stroke-linecap="round" stroke-linejoin="round" stroke-width="1.1344099980959306"/>
      <path d="M104.95 4.95 L105.05 5.65 105.05 6.15 105.0 6.9 Q104.85 8.55 103.85 10.15 102.15 12.95 97.85 15.6 L96.65 16.3 93.45 17.9 90.95 19.0 90.45 19.2 90.35 15.35 Q90.3 14.0 89.45 13.3 88.7 12.7 87.7 12.9 L87.45 12.95 Q86.25 13.2 85.45 14.5 84.8 15.3 84.65 16.25 L84.65 21.3 M101.65 9.05 L101.65 12.1 M101.65 7.6 L101.65 9.05 M103.65 6.95 L103.65 5.4 M103.85 10.15 L103.65 6.95 M105.0 6.9 L105.05 5.65 M99.35 10.75 L99.35 9.5 M96.65 11.5 L96.65 12.3 96.65 16.3 M84.6 8.7 L84.6 7.95 81.6 7.7 81.2 7.75 Q78.95 8.15 76.25 9.95 L76.3 11.35 Q76.5 11.4 76.7 11.6 L77.0 12.3 Q79.35 10.45 81.2 10.0 L81.6 9.9 Q82.95 9.7 84.0 10.3 L83.8 9.7 Q83.8 9.3 84.05 9.0 84.3 8.75 84.6 8.7 L84.7 8.7 Q85.05 8.7 85.3 9.0 L85.6 9.7 85.3 10.4 84.75 10.7 M84.7 10.7 L84.65 10.7 84.65 15.15 84.65 16.25 M84.6 7.95 L84.6 6.6 M76.15 13.3 L76.2 18.0 76.35 17.6 Q76.55 15.7 77.7 14.15 78.85 12.35 80.4 11.85 L81.2 11.65 81.6 11.65 Q82.6 11.65 83.4 12.4 84.45 13.3 84.65 15.15 M84.65 10.7 Q84.35 10.7 84.05 10.4 L84.0 10.3 84.65 10.15 84.6 8.7 M90.7 9.6 L90.9 10.0 90.7 10.45 90.35 10.6 90.3 10.6 89.95 10.45 89.8 10.0 89.95 9.6 90.35 9.4 90.7 9.6 M93.35 13.85 L93.35 12.9 M90.35 15.35 L90.35 15.0 90.35 10.9 M93.45 17.9 L93.35 13.85 M99.35 14.2 L99.35 10.75 M76.3 11.35 L76.1 11.3 Q75.75 11.3 75.45 11.6 75.2 11.9 75.2 12.3 L75.45 13.0 76.1 13.3 M76.15 13.3 L76.7 13.0 77.0 12.3 76.7 12.35 M76.2 8.3 L76.25 9.95 M76.3 12.25 L76.3 11.35 M68.95 15.7 L68.9 15.7 68.55 15.55 68.4 15.1 68.45 14.9 68.55 14.7 68.95 14.5 69.3 14.7 69.45 14.9 69.5 15.1 69.3 15.55 68.95 15.7 68.95 20.65 68.95 21.05 Q69.0 19.75 70.05 18.65 71.1 17.4 72.6 17.15 L72.85 17.1 Q74.15 16.85 75.15 17.55 L75.3 17.65 Q76.05 18.25 76.2 19.25 L76.2 18.0 M64.65 20.6 L64.65 21.3 64.7 26.0 65.75 25.85 67.1 25.6 69.0 25.25 68.95 21.05 M76.2 23.7 L76.2 19.25 M48.05 22.95 L48.05 22.3 M41.85 22.5 L41.85 23.25 41.85 27.8 M59.15 22.0 L59.15 21.3 M53.85 21.9 L53.85 22.55 53.85 26.9 M35.35 23.35 L35.35 28.25 45.15 27.95 46.8 27.85 47.95 27.8 54.1 27.3 64.7 26.0 M59.15 26.4 L59.15 22.0 M48.05 27.3 L48.05 22.95 M29.55 23.3 L29.55 22.5 M23.75 23.05 L23.75 22.2 M35.35 22.7 L35.35 23.35 M29.55 23.3 L29.55 27.8 M1.65 19.85 L1.65 19.2 M0.0 24.0 L1.6 24.45 1.65 19.85 M12.65 21.95 L12.65 21.2 M6.55 20.95 L6.55 20.0 M18.05 22.6 L18.05 21.5 M23.75 23.05 L23.75 27.95 Q29.3 28.3 35.35 28.25 M23.75 27.95 L18.05 27.45 16.75 27.3 12.65 26.75 11.5 26.6 7.3 25.8 6.55 25.65 2.75 24.75 1.6 24.45 M12.65 26.75 L12.65 21.95 M18.05 27.45 L18.05 22.6 M6.55 25.65 L6.55 20.95" ffdec:has-small-stroke="true" ffdec:original-stroke-width="1.0" fill="none" stroke="#000000" stroke-linecap="round" stroke-linejoin="round" stroke-width="1.1344099980959306"/>
    </g>
    <g id="sprite12" transform="matrix(1.0, 0.0, 0.0, 1.0, 1.3, 5.5)">
      <use ffdec:characterId="1121" height="21.65" transform="matrix(1.0, 0.0, 0.0, 1.0, -1.3, -5.5)" width="10.65" xlink:href="#shape16"/>
    </g>
    <g id="shape16" transform="matrix(1.0, 0.0, 0.0, 1.0, 1.3, 5.5)">
      <path d="M5.7 -2.15 Q5.05 -2.15 4.6 -2.6 4.2 -3.0 4.2 -3.6 4.2 -4.25 4.6 -4.7 L5.7 -5.1 Q6.3 -5.1 6.7 -4.7 7.15 -4.25 7.15 -3.6 7.15 -3.0 6.7 -2.6 6.3 -2.15 5.7 -2.15" fill="url(#gradient19)" fill-rule="evenodd" stroke="none"/>
      <path d="M2.2 11.8 L5.75 10.85 6.95 12.35 Q5.95 13.7 3.55 13.35 2.4 12.7 2.2 11.8" fill="#f3e9e5" fill-rule="evenodd" stroke="none"/>
      <path d="M3.55 13.35 Q5.95 13.7 6.95 12.35 7.4 13.95 6.5 15.35 5.25 16.35 3.6 16.1 3.05 14.85 3.55 13.35" fill="#c9bcb8" fill-rule="evenodd" stroke="none"/>
      <path d="M2.2 11.8 Q2.4 12.7 3.55 13.35 3.05 14.85 3.6 16.1 L2.4 15.25 Q1.5 13.7 2.2 11.8" fill="#746b68" fill-rule="evenodd" stroke="none"/>
      <path d="M0.4 8.85 L0.4 8.7 Q0.45 7.85 1.3 7.2 2.45 5.95 2.0 4.25 L3.2 3.9 Q3.1 6.3 4.45 8.25 L4.4 8.25 3.1 8.45 1.95 8.65 1.6 8.8 Q0.85 9.15 0.65 9.7 L0.4 8.85" fill="url(#gradient20)" fill-rule="evenodd" stroke="none"/>
      <path d="M3.2 3.9 L3.6 3.8 Q4.4 5.55 5.7 6.05 L7.2 6.65 7.8 7.0 Q9.05 7.7 9.1 8.7 L9.1 8.85 8.95 9.5 7.95 8.5 Q7.0 7.95 5.9 7.95 L5.25 8.0 4.7 8.15 4.45 8.25 Q3.1 6.3 3.2 3.9" fill="url(#gradient21)" fill-rule="evenodd" stroke="none"/>
      <path d="M1.95 8.65 L3.1 8.45 4.4 8.25 4.45 8.25 4.7 8.15 5.25 8.0 5.9 7.95 Q7.0 7.95 7.95 8.5 L8.95 9.5 7.8 10.6 Q7.7 10.65 7.55 10.75 6.55 11.25 5.35 11.35 5.9 10.5 5.9 9.9 L5.75 9.0 5.5 8.75 4.85 8.65 3.75 8.75 2.65 8.55 1.95 8.65" fill="url(#gradient22)" fill-rule="evenodd" stroke="none"/>
      <path d="M0.65 9.7 Q0.85 9.15 1.6 8.8 L1.95 8.65 2.65 8.55 3.75 8.75 4.85 8.65 5.5 8.75 5.75 9.0 5.9 9.9 Q5.9 10.5 5.35 11.35 L4.75 11.35 3.5 11.25 1.65 10.6 0.65 9.7" fill="url(#gradient23)" fill-rule="evenodd" stroke="none"/>
      <path d="M9.1 8.85 L9.05 9.7 Q8.75 10.85 7.8 11.65 L6.2 12.6 5.9 12.7 4.75 12.8 4.0 12.75 3.85 12.75 3.6 12.7 3.25 12.6 Q2.4 12.35 1.65 11.65 L0.9 10.8 0.6 10.15 0.4 8.85 0.65 9.7 1.65 10.6 3.5 11.25 4.75 11.35 5.35 11.35 Q6.55 11.25 7.55 10.75 7.7 10.65 7.8 10.6 L8.95 9.5 9.1 8.85" fill="#746b68" fill-rule="evenodd" stroke="none"/>
      <path d="M0.4 8.85 L0.4 8.7 Q0.45 7.85 1.3 7.2 2.45 5.95 2.0 4.25 L3.2 3.9 3.6 3.8 Q4.4 5.55 5.7 6.05 L7.2 6.65 7.8 7.0 Q9.05 7.7 9.1 8.7 L9.1 8.85 8.95 9.5 7.8 10.6 Q7.7 10.65 7.55 10.75 6.55 11.25 5.35 11.35 L4.75 11.35 3.5 11.25 1.65 10.6 0.65 9.7 0.4 8.85 Z" ffdec:has-small-stroke="true" ffdec:original-stroke-width="0.5" fill="none" stroke="#ece2df" stroke-linecap="round" stroke-linejoin="round" stroke-width="1.1344099980959306"/>
      <path d="M1.7 3.2 Q2.3 2.7 3.05 2.55 3.8 2.4 4.25 2.75 4.85 3.1 4.85 3.7 4.85 4.3 4.25 4.85 3.8 5.35 3.05 5.5 L1.7 5.3 Q1.25 4.95 1.25 4.35 1.25 3.75 1.7 3.2" fill="url(#gradient24)" fill-rule="evenodd" stroke="none"/>
      <path d="M5.4 -4.55 L2.05 -3.9 0.5 -4.85 3.85 -5.5 5.4 -4.55" fill="#f3e9e5" fill-rule="evenodd" stroke="none"/>
      <path d="M4.2 3.3 L4.4 -1.05 Q4.35 -3.1 3.8 -2.75 3.2 -2.5 2.8 0.05 2.3 2.55 2.3 3.8 L2.05 -3.9 5.4 -4.55 5.4 2.9 4.35 3.2 4.2 3.3" fill="#c9bcb8" fill-rule="evenodd" stroke="none"/>
      <path d="M2.05 -3.9 L2.3 3.8 0.9 2.9 0.5 -4.85 2.05 -3.9" fill="#746b68" fill-rule="evenodd" stroke="none"/>
      <path d="M2.3 3.8 Q2.3 2.55 2.8 0.05 3.2 -2.5 3.8 -2.75 4.35 -3.1 4.4 -1.05 L4.2 3.3 2.3 3.8" fill="#b1a3a3" fill-rule="evenodd" stroke="none"/>
      <path d="M1.2 -1.2 Q0.8 -0.75 0.2 -0.75 -0.45 -0.75 -0.9 -1.2 -1.3 -1.6 -1.3 -2.2 -1.3 -2.8 -0.9 -3.3 -0.45 -3.7 0.2 -3.7 0.8 -3.7 1.2 -3.3 L1.65 -2.2 Q1.65 -1.6 1.2 -1.2" fill="url(#gradient25)" fill-rule="evenodd" stroke="none"/>
      <path d="M3.45 -2.9 L4.4 -3.0 5.7 -2.3 5.75 -2.2 4.95 -2.1 3.45 -2.9" fill="#f3e9e5" fill-rule="evenodd" stroke="none"/>
      <path d="M5.25 4.3 L4.25 3.6 Q3.85 1.35 4.2 -1.55 L3.45 -1.95 3.45 -2.9 4.95 -2.1 Q4.45 1.55 5.25 4.3" fill="#746b68" fill-rule="evenodd" stroke="none"/>
      <path d="M5.75 -2.2 Q6.7 0.8 6.0 4.05 L5.25 4.3 Q4.45 1.55 4.95 -2.1 L5.75 -2.2" fill="#c9bcb8" fill-rule="evenodd" stroke="none"/>
    </g>
    <radialGradient cx="0" cy="0" gradientTransform="matrix(0.0023, 0.0, 0.0, 0.0023, 6.0, -4.1)" gradientUnits="userSpaceOnUse" id="gradient19" r="819.2" spreadMethod="pad">
      <stop offset="0.1843137254901961" stop-color="#f3e9e5"/>
      <stop offset="0.8549019607843137" stop-color="#746b68"/>
    </radialGradient>
    <radialGradient cx="0" cy="0" gradientTransform="matrix(0.0065, 0.0, 0.0, 0.0065, 2.1, 8.5)" gradientUnits="userSpaceOnUse" id="gradient20" r="819.2" spreadMethod="pad">
      <stop offset="0.1843137254901961" stop-color="#f3e9e5"/>
      <stop offset="0.8549019607843137" stop-color="#746b68"/>
    </radialGradient>
    <radialGradient cx="0" cy="0" gradientTransform="matrix(0.0065, 0.0, 0.0, 0.0065, 2.1, 8.5)" gradientUnits="userSpaceOnUse" id="gradient21" r="819.2" spreadMethod="pad">
      <stop offset="0.1843137254901961" stop-color="#dbd0cb"/>
      <stop offset="0.8549019607843137" stop-color="#5f5754"/>
    </radialGradient>
    <radialGradient cx="0" cy="0" gradientTransform="matrix(0.0056, 0.0, 0.0, 0.0029, 4.4, 9.65)" gradientUnits="userSpaceOnUse" id="gradient22" r="819.2" spreadMethod="pad">
      <stop offset="0.2196078431372549" stop-color="#91c93e"/>
      <stop offset="0.7843137254901961" stop-color="#397006"/>
    </radialGradient>
    <radialGradient cx="0" cy="0" gradientTransform="matrix(0.0056, 0.0, 0.0, 0.0029, 4.4, 9.65)" gradientUnits="userSpaceOnUse" id="gradient23" r="819.2" spreadMethod="pad">
      <stop offset="0.2196078431372549" stop-color="#a7e150"/>
      <stop offset="0.8" stop-color="#4c8b10"/>
    </radialGradient>
    <radialGradient cx="0" cy="0" gradientTransform="matrix(0.0028, -5.0E-4, 0.0, 0.0023, 3.45, 3.5)" gradientUnits="userSpaceOnUse" id="gradient24" r="819.2" spreadMethod="pad">
      <stop offset="0.1843137254901961" stop-color="#f3e9e5"/>
      <stop offset="0.8549019607843137" stop-color="#746b68"/>
    </radialGradient>
    <radialGradient cx="0" cy="0" gradientTransform="matrix(0.0023, 0.0, 0.0, 0.0023, 0.5, -2.7)" gradientUnits="userSpaceOnUse" id="gradient25" r="819.2" spreadMethod="pad">
      <stop offset="0.1843137254901961" stop-color="#f3e9e5"/>
      <stop offset="0.8549019607843137" stop-color="#746b68"/>
    </radialGradient>
    <g id="sprite13" transform="matrix(1.0, 0.0, 0.0, 1.0, 1.3, 5.5)">
      <use ffdec:characterId="1121" height="21.65" transform="matrix(1.0, 0.0, 0.0, 1.0, -1.3, -5.5)" width="10.65" xlink:href="#shape17"/>
    </g>
    <g id="shape17" transform="matrix(1.0, 0.0, 0.0, 1.0, 1.3, 5.5)">
      <path d="M5.7 -2.15 Q5.05 -2.15 4.6 -2.6 4.2 -3.0 4.2 -3.6 4.2 -4.25 4.6 -4.7 L5.7 -5.1 Q6.3 -5.1 6.7 -4.7 7.15 -4.25 7.15 -3.6 7.15 -3.0 6.7 -2.6 6.3 -2.15 5.7 -2.15" fill="url(#gradient26)" fill-rule="evenodd" stroke="none"/>
      <path d="M2.2 11.8 L5.75 10.85 6.95 12.35 Q5.95 13.7 3.55 13.35 2.4 12.7 2.2 11.8" fill="#f3e9e5" fill-rule="evenodd" stroke="none"/>
      <path d="M3.55 13.35 Q5.95 13.7 6.95 12.35 7.4 13.95 6.5 15.35 5.25 16.35 3.6 16.1 3.05 14.85 3.55 13.35" fill="#c9bcb8" fill-rule="evenodd" stroke="none"/>
      <path d="M2.2 11.8 Q2.4 12.7 3.55 13.35 3.05 14.85 3.6 16.1 L2.4 15.25 Q1.5 13.7 2.2 11.8" fill="#746b68" fill-rule="evenodd" stroke="none"/>
      <path d="M0.4 8.85 L0.4 8.7 Q0.45 7.85 1.3 7.2 2.45 5.95 2.0 4.25 L3.2 3.9 Q3.1 6.3 4.45 8.25 L4.4 8.25 3.1 8.45 1.95 8.65 1.6 8.8 Q0.85 9.15 0.65 9.7 L0.4 8.85" fill="url(#gradient27)" fill-rule="evenodd" stroke="none"/>
      <path d="M3.2 3.9 L3.6 3.8 Q4.4 5.55 5.7 6.05 L7.2 6.65 7.8 7.0 Q9.05 7.7 9.1 8.7 L9.1 8.85 8.95 9.5 7.95 8.5 Q7.0 7.95 5.9 7.95 L5.25 8.0 4.7 8.15 4.45 8.25 Q3.1 6.3 3.2 3.9" fill="url(#gradient28)" fill-rule="evenodd" stroke="none"/>
      <path d="M1.95 8.65 L3.1 8.45 4.4 8.25 4.45 8.25 4.7 8.15 5.25 8.0 5.9 7.95 Q7.0 7.95 7.95 8.5 L8.95 9.5 7.8 10.6 Q7.7 10.65 7.55 10.75 6.55 11.25 5.35 11.35 5.9 10.5 5.9 9.9 L5.75 9.0 5.5 8.75 4.85 8.65 3.75 8.75 2.65 8.55 1.95 8.65" fill="url(#gradient29)" fill-rule="evenodd" stroke="none"/>
      <path d="M0.65 9.7 Q0.85 9.15 1.6 8.8 L1.95 8.65 2.65 8.55 3.75 8.75 4.85 8.65 5.5 8.75 5.75 9.0 5.9 9.9 Q5.9 10.5 5.35 11.35 L4.75 11.35 3.5 11.25 1.65 10.6 0.65 9.7" fill="url(#gradient30)" fill-rule="evenodd" stroke="none"/>
      <path d="M9.1 8.85 L9.05 9.7 Q8.75 10.85 7.8 11.65 L6.2 12.6 5.9 12.7 4.75 12.8 4.0 12.75 3.85 12.75 3.6 12.7 3.25 12.6 Q2.4 12.35 1.65 11.65 L0.9 10.8 0.6 10.15 0.4 8.85 0.65 9.7 1.65 10.6 3.5 11.25 4.75 11.35 5.35 11.35 Q6.55 11.25 7.55 10.75 7.7 10.65 7.8 10.6 L8.95 9.5 9.1 8.85" fill="#746b68" fill-rule="evenodd" stroke="none"/>
      <path d="M0.4 8.85 L0.4 8.7 Q0.45 7.85 1.3 7.2 2.45 5.95 2.0 4.25 L3.2 3.9 3.6 3.8 Q4.4 5.55 5.7 6.05 L7.2 6.65 7.8 7.0 Q9.05 7.7 9.1 8.7 L9.1 8.85 8.95 9.5 7.8 10.6 Q7.7 10.65 7.55 10.75 6.55 11.25 5.35 11.35 L4.75 11.35 3.5 11.25 1.65 10.6 0.65 9.7 0.4 8.85 Z" ffdec:has-small-stroke="true" ffdec:original-stroke-width="0.5" fill="none" stroke="#ece2df" stroke-linecap="round" stroke-linejoin="round" stroke-width="1.0436540132689678"/>
      <path d="M1.7 3.2 Q2.3 2.7 3.05 2.55 3.8 2.4 4.25 2.75 4.85 3.1 4.85 3.7 4.85 4.3 4.25 4.85 3.8 5.35 3.05 5.5 L1.7 5.3 Q1.25 4.95 1.25 4.35 1.25 3.75 1.7 3.2" fill="url(#gradient31)" fill-rule="evenodd" stroke="none"/>
      <path d="M5.4 -4.55 L2.05 -3.9 0.5 -4.85 3.85 -5.5 5.4 -4.55" fill="#f3e9e5" fill-rule="evenodd" stroke="none"/>
      <path d="M4.2 3.3 L4.4 -1.05 Q4.35 -3.1 3.8 -2.75 3.2 -2.5 2.8 0.05 2.3 2.55 2.3 3.8 L2.05 -3.9 5.4 -4.55 5.4 2.9 4.35 3.2 4.2 3.3" fill="#c9bcb8" fill-rule="evenodd" stroke="none"/>
      <path d="M2.05 -3.9 L2.3 3.8 0.9 2.9 0.5 -4.85 2.05 -3.9" fill="#746b68" fill-rule="evenodd" stroke="none"/>
      <path d="M2.3 3.8 Q2.3 2.55 2.8 0.05 3.2 -2.5 3.8 -2.75 4.35 -3.1 4.4 -1.05 L4.2 3.3 2.3 3.8" fill="#b1a3a3" fill-rule="evenodd" stroke="none"/>
      <path d="M1.2 -1.2 Q0.8 -0.75 0.2 -0.75 -0.45 -0.75 -0.9 -1.2 -1.3 -1.6 -1.3 -2.2 -1.3 -2.8 -0.9 -3.3 -0.45 -3.7 0.2 -3.7 0.8 -3.7 1.2 -3.3 L1.65 -2.2 Q1.65 -1.6 1.2 -1.2" fill="url(#gradient32)" fill-rule="evenodd" stroke="none"/>
      <path d="M3.45 -2.9 L4.4 -3.0 5.7 -2.3 5.75 -2.2 4.95 -2.1 3.45 -2.9" fill="#f3e9e5" fill-rule="evenodd" stroke="none"/>
      <path d="M5.25 4.3 L4.25 3.6 Q3.85 1.35 4.2 -1.55 L3.45 -1.95 3.45 -2.9 4.95 -2.1 Q4.45 1.55 5.25 4.3" fill="#746b68" fill-rule="evenodd" stroke="none"/>
      <path d="M5.75 -2.2 Q6.7 0.8 6.0 4.05 L5.25 4.3 Q4.45 1.55 4.95 -2.1 L5.75 -2.2" fill="#c9bcb8" fill-rule="evenodd" stroke="none"/>
    </g>
    <radialGradient cx="0" cy="0" gradientTransform="matrix(0.0023, 0.0, 0.0, 0.0023, 6.0, -4.1)" gradientUnits="userSpaceOnUse" id="gradient26" r="819.2" spreadMethod="pad">
      <stop offset="0.1843137254901961" stop-color="#f3e9e5"/>
      <stop offset="0.8549019607843137" stop-color="#746b68"/>
    </radialGradient>
    <radialGradient cx="0" cy="0" gradientTransform="matrix(0.0065, 0.0, 0.0, 0.0065, 2.1, 8.5)" gradientUnits="userSpaceOnUse" id="gradient27" r="819.2" spreadMethod="pad">
      <stop offset="0.1843137254901961" stop-color="#f3e9e5"/>
      <stop offset="0.8549019607843137" stop-color="#746b68"/>
    </radialGradient>
    <radialGradient cx="0" cy="0" gradientTransform="matrix(0.0065, 0.0, 0.0, 0.0065, 2.1, 8.5)" gradientUnits="userSpaceOnUse" id="gradient28" r="819.2" spreadMethod="pad">
      <stop offset="0.1843137254901961" stop-color="#dbd0cb"/>
      <stop offset="0.8549019607843137" stop-color="#5f5754"/>
    </radialGradient>
    <radialGradient cx="0" cy="0" gradientTransform="matrix(0.0056, 0.0, 0.0, 0.0029, 4.4, 9.65)" gradientUnits="userSpaceOnUse" id="gradient29" r="819.2" spreadMethod="pad">
      <stop offset="0.2196078431372549" stop-color="#91c93e"/>
      <stop offset="0.7843137254901961" stop-color="#397006"/>
    </radialGradient>
    <radialGradient cx="0" cy="0" gradientTransform="matrix(0.0056, 0.0, 0.0, 0.0029, 4.4, 9.65)" gradientUnits="userSpaceOnUse" id="gradient30" r="819.2" spreadMethod="pad">
      <stop offset="0.2196078431372549" stop-color="#a7e150"/>
      <stop offset="0.8" stop-color="#4c8b10"/>
    </radialGradient>
    <radialGradient cx="0" cy="0" gradientTransform="matrix(0.0028, -5.0E-4, 0.0, 0.0023, 3.45, 3.5)" gradientUnits="userSpaceOnUse" id="gradient31" r="819.2" spreadMethod="pad">
      <stop offset="0.1843137254901961" stop-color="#f3e9e5"/>
      <stop offset="0.8549019607843137" stop-color="#746b68"/>
    </radialGradient>
    <radialGradient cx="0" cy="0" gradientTransform="matrix(0.0023, 0.0, 0.0, 0.0023, 0.5, -2.7)" gradientUnits="userSpaceOnUse" id="gradient32" r="819.2" spreadMethod="pad">
      <stop offset="0.1843137254901961" stop-color="#f3e9e5"/>
      <stop offset="0.8549019607843137" stop-color="#746b68"/>
    </radialGradient>
  </defs>
</svg>
