<?xml version="1.0" encoding="UTF-8" standalone="no"?>
<svg xmlns:ffdec="https://www.free-decompiler.com/flash" xmlns:xlink="http://www.w3.org/1999/xlink" ffdec:objectType="frame" height="73.65px" width="135.85px" xmlns="http://www.w3.org/2000/svg">
  <g transform="matrix(1.0, 0.0, 0.0, 1.0, 136.2, -3.6)">
    <use ffdec:characterId="2248" height="73.65" transform="matrix(1.0, 0.0, 0.0, 1.0, -136.2, 3.6)" width="135.85" xlink:href="#shape0"/>
  </g>
  <defs>
    <g id="shape0" transform="matrix(1.0, 0.0, 0.0, 1.0, 136.2, -3.6)">
      <path d="M-9.05 33.1 Q2.3 52.7 -11.55 38.4 -5.4 50.9 -7.0 52.2 -11.0 50.2 -14.45 47.6 -9.8 62.75 -17.75 50.6 -15.35 59.45 -17.45 62.7 -18.6 53.5 -25.35 50.35 -23.25 56.4 -24.6 68.1 -27.65 58.0 -29.9 57.4 -31.5 69.5 -39.0 65.75 -71.15 89.3 -104.1 64.7 -117.65 72.5 -113.9 52.15 -117.9 60.8 -118.9 65.25 -120.0 58.85 -118.9 52.4 -123.25 53.2 -126.5 61.85 L-126.5 49.7 Q-129.3 49.35 -132.0 55.65 -133.5 53.45 -126.5 37.55 L-135.95 46.9 Q-137.2 42.85 -131.65 35.2 -136.1 35.0 -133.8 31.2 -132.8 29.5 -129.5 26.15 -118.25 7.5 -100.35 5.15 -99.75 6.65 -101.35 9.0 L-98.35 7.55 Q-97.4 12.05 -96.5 13.95 -95.5 11.25 -95.0 11.55 -92.95 16.75 -89.6 20.05 -90.35 15.0 -89.85 15.2 -86.55 21.15 -84.45 22.6 -84.5 20.05 -83.75 20.4 -82.1 24.0 -80.85 24.75 -80.5 22.55 -80.05 22.75 -79.5 23.4 -77.7 27.1 -77.85 25.5 -77.45 23.85 L-75.6 28.25 Q-74.8 27.9 -73.6 24.4 -72.8 24.15 -72.4 26.65 -71.45 26.2 -68.3 21.35 -67.5 21.1 -68.2 25.2 -65.6 23.7 -62.0 17.8 -61.25 17.55 -62.35 21.35 -59.7 19.65 -55.9 14.35 -55.5 14.2 -56.65 17.85 -55.05 16.6 -52.7 13.05 L-52.45 15.7 Q-51.0 11.6 -49.05 8.35 -49.45 9.85 -49.5 13.45 -47.05 10.25 -45.1 5.05 -43.95 5.3 -41.7 7.2 -42.15 4.4 -41.45 3.6 -19.1 6.55 -9.9 23.45 -5.55 24.8 -1.4 29.9 2.65 35.0 -9.05 33.1" fill="url(#gradient0)" fill-rule="evenodd" stroke="none"/>
    </g>
    <radialGradient cx="0" cy="0" gradientTransform="matrix(0.1225, 0.0, 0.0, 0.1095, -71.4, 34.9)" gradientUnits="userSpaceOnUse" id="gradient0" r="819.2" spreadMethod="pad">
      <stop offset="0.22745098039215686" stop-color="#db9dab"/>
      <stop offset="1.0" stop-color="#54374d"/>
    </radialGradient>
  </defs>
</svg>
