<?xml version="1.0" encoding="UTF-8" standalone="no"?>
<svg xmlns:ffdec="https://www.free-decompiler.com/flash" xmlns:xlink="http://www.w3.org/1999/xlink" ffdec:objectType="frame" height="38.9px" width="46.5px" xmlns="http://www.w3.org/2000/svg">
  <g transform="matrix(1.0, 0.0, 0.0, 1.0, 1.5, 1.5)">
    <use ffdec:characterId="1826" height="38.9" transform="matrix(1.0, 0.0, 0.0, 1.0, -1.5, -1.5)" width="46.5" xlink:href="#shape0"/>
  </g>
  <defs>
    <g id="shape0" transform="matrix(1.0, 0.0, 0.0, 1.0, 1.5, 1.5)">
      <path d="M41.45 11.1 L41.45 24.75 Q41.45 33.85 32.15 33.85 L11.35 33.85 Q2.05 33.85 2.05 24.75 L2.05 11.1 Q2.05 2.05 11.35 2.05 L32.15 2.05 Q41.45 2.05 41.45 11.1" fill="#ffffff" fill-rule="evenodd" stroke="none"/>
      <path d="M42.85 12.1 Q42.85 3.05 33.55 3.05 L12.75 3.05 Q3.45 3.05 3.45 12.1 L3.45 25.75 Q3.45 34.85 12.75 34.85 L33.55 34.85 Q42.85 34.85 42.85 25.75 L42.85 12.1 Z" fill="none" stroke="#ffe88a" stroke-linecap="round" stroke-linejoin="round" stroke-width="3.0"/>
      <path d="M43.5 10.25 Q43.5 0.0 33.25 0.0 L10.25 0.0 Q0.0 0.0 0.0 10.25 L0.0 25.65 Q0.0 35.9 10.25 35.9 L33.25 35.9 Q43.5 35.9 43.5 25.65 L43.5 10.25 Z" fill="none" stroke="#ffde20" stroke-linecap="round" stroke-linejoin="round" stroke-width="3.0"/>
      <path d="M41.45 11.1 Q41.45 2.05 32.15 2.05 L11.35 2.05 Q2.05 2.05 2.05 11.1 L2.05 24.75 Q2.05 33.85 11.35 33.85 L32.15 33.85 Q41.45 33.85 41.45 24.75 L41.45 11.1 Z" fill="none" stroke="#ffcf00" stroke-linecap="round" stroke-linejoin="round" stroke-width="3.0"/>
      <path d="M39.25 -0.55 L40.2 0.0 Q40.7 0.5 40.8 1.0 40.9 1.5 40.65 1.75 L39.9 1.9 Q39.4 1.8 38.9 1.3 38.45 0.85 38.35 0.35 38.2 -0.2 38.45 -0.45 L39.25 -0.55 M8.5 -0.8 Q8.65 -0.35 7.95 0.1 7.4 0.65 6.4 0.9 L4.55 1.0 Q3.8 0.95 3.65 0.5 3.55 0.05 4.15 -0.45 4.8 -0.9 5.85 -1.2 L7.55 -1.35 Q8.4 -1.25 8.5 -0.8 M3.1 2.2 Q3.1 2.65 2.7 3.0 L1.9 3.3 1.15 3.2 0.95 2.5 1.3 1.8 Q1.7 1.4 2.15 1.35 2.6 1.3 2.85 1.55 3.15 1.8 3.1 2.2" fill="#f5ffe6" fill-rule="evenodd" stroke="none"/>
    </g>
  </defs>
</svg>
