<?xml version="1.0" encoding="UTF-8" standalone="no"?>
<svg xmlns:ffdec="https://www.free-decompiler.com/flash" xmlns:xlink="http://www.w3.org/1999/xlink" ffdec:objectType="frame" height="111.85px" width="251.85px" xmlns="http://www.w3.org/2000/svg">
  <g transform="matrix(1.0, 0.0, 0.0, 1.0, 2.4, 1.95)">
    <use ffdec:characterId="2804" height="111.85" transform="matrix(1.0, 0.0, 0.0, 1.0, -2.4, -1.95)" width="251.85" xlink:href="#shape0"/>
  </g>
  <defs>
    <g id="shape0" transform="matrix(1.0, 0.0, 0.0, 1.0, 2.4, 1.95)">
      <path d="M244.45 104.9 L2.6 104.9 2.6 3.05 244.45 3.05 244.45 104.9 Z" fill="none" stroke="#1baeed" stroke-linecap="round" stroke-linejoin="round" stroke-width="10.0"/>
      <path d="M237.2 101.8 L9.85 101.8 9.85 6.05 237.2 6.05 237.2 101.8" fill="url(#gradient0)" fill-rule="evenodd" stroke="none"/>
      <path d="M240.75 103.3 L6.35 103.3 6.35 4.6 240.75 4.6 240.75 103.3 Z" fill="none" stroke="#52c1f1" stroke-linecap="round" stroke-linejoin="round" stroke-width="6.0"/>
      <path d="M11.35 8.65 L12.65 8.65 12.65 8.25 M12.65 100.0 L12.65 100.75 M235.5 8.65 L12.65 8.65 12.65 100.0" fill="none" stroke="#ffffff" stroke-linecap="round" stroke-linejoin="round" stroke-width="3.0"/>
      <path d="M12.65 100.0 L234.15 100.0" fill="none" stroke="#108ec5" stroke-linecap="round" stroke-linejoin="round" stroke-width="3.0"/>
      <path d="M237.2 101.8 L9.85 101.8 9.85 6.05 237.2 6.05 237.2 101.8 Z" fill="none" stroke="#c8ecfb" stroke-linecap="round" stroke-linejoin="round" stroke-width="3.0"/>
      <path d="M1.55 -0.35 L1.85 0.35 1.55 1.0 Q1.25 1.3 0.8 1.3 0.35 1.3 0.05 1.0 L-0.25 0.35 0.05 -0.35 0.8 -0.65 Q1.25 -0.65 1.55 -0.35 M245.1 -1.3 Q246.15 -1.15 247.25 -0.35 248.2 0.5 248.7 1.5 249.15 2.55 248.7 3.05 248.25 3.6 247.15 3.5 246.1 3.25 245.15 2.4 244.1 1.5 243.65 0.55 243.2 -0.45 243.65 -1.05 244.15 -1.55 245.1 -1.3 M249.45 5.65 Q249.45 6.25 248.95 6.65 248.5 7.1 247.85 7.1 247.25 7.1 246.8 6.65 246.35 6.25 246.35 5.65 246.35 5.1 246.8 4.65 247.25 4.25 247.85 4.25 248.5 4.25 248.95 4.65 249.45 5.1 249.45 5.65 M0.0 5.35 Q-0.65 5.85 -1.2 5.7 -1.85 5.5 -2.1 4.8 -2.4 4.1 -2.2 3.3 -2.0 2.55 -1.35 2.05 -0.8 1.55 -0.15 1.75 0.4 1.9 0.75 2.6 L0.8 4.1 Q0.6 4.9 0.0 5.35" fill="#c8ecfb" fill-rule="evenodd" stroke="none"/>
      <path d="M7.45 -0.15 L16.7 -0.15 M31.35 -0.15 L237.2 -0.15 M247.9 9.05 L247.95 102.9" fill="none" stroke="#c8ecfb" stroke-linecap="round" stroke-linejoin="round" stroke-width="1.5"/>
    </g>
    <radialGradient cx="0" cy="0" gradientTransform="matrix(0.207, 0.0, 0.0, 0.0955, 121.3, 51.95)" gradientUnits="userSpaceOnUse" id="gradient0" r="819.2" spreadMethod="pad">
      <stop offset="0.28627450980392155" stop-color="#d0eefb"/>
      <stop offset="0.788235294117647" stop-color="#99dbf7"/>
    </radialGradient>
  </defs>
</svg>
