<?xml version="1.0" encoding="UTF-8" standalone="no"?>
<svg xmlns:ffdec="https://www.free-decompiler.com/flash" xmlns:xlink="http://www.w3.org/1999/xlink" ffdec:objectType="frame" height="32.15px" width="37.15px" xmlns="http://www.w3.org/2000/svg">
  <g transform="matrix(1.0, 0.0, 0.0, 1.0, 6.7, 7.3)">
    <use ffdec:characterId="2745" height="20.55" transform="matrix(1.0, 0.0, 0.0, 1.0, -0.75, -0.75)" width="23.0" xlink:href="#shape0"/>
    <clipPath id="clipPath0">
      <path d="M 6 0 L 5.63 0.01 L 5.27 0.02 L 4.93 0.05 L 4.59 0.09 L 4.27 0.15 L 3.96 0.21 L 3.66 0.29 L 3.38 0.38 L 3.1 0.47 L 2.84 0.59 L 2.58 0.71 L 2.34 0.84 L 2.12 0.99 L 1.9 1.15 L 1.69 1.32 L 1.5 1.5 L 1.32 1.69 L 1.15 1.9 L 0.99 2.12 L 0.84 2.34 L 0.71 2.58 L 0.59 2.84 L 0.47 3.1 L 0.38 3.38 L 0.29 3.66 L 0.21 3.96 L 0.15 4.27 L 0.09 4.59 L 0.05 4.93 L 0.02 5.27 L 0.01 5.63 L 0 6 L 0 13.05 L 0.01 13.42 L 0.02 13.78 L 0.05 14.12 L 0.09 14.46 L 0.15 14.78 L 0.21 15.09 L 0.29 15.39 L 0.38 15.68 L 0.47 15.95 L 0.59 16.21 L 0.71 16.47 L 0.84 16.71 L 0.99 16.93 L 1.15 17.15 L 1.32 17.36 L 1.5 17.55 L 1.69 17.73 L 1.9 17.9 L 2.12 18.06 L 2.34 18.21 L 2.58 18.34 L 2.84 18.46 L 3.1 18.58 L 3.38 18.67 L 3.66 18.76 L 3.96 18.84 L 4.27 18.9 L 4.59 18.96 L 4.93 19 L 5.27 19.03 L 5.63 19.04 L 6 19.05 L 15.5 19.05 L 15.87 19.04 L 16.23 19.03 L 16.57 19 L 16.91 18.96 L 17.23 18.9 L 17.54 18.84 L 17.84 18.76 L 18.12 18.67 L 18.4 18.58 L 18.66 18.46 L 18.92 18.34 L 19.16 18.21 L 19.38 18.06 L 19.6 17.9 L 19.81 17.73 L 20 17.55 L 20.18 17.36 L 20.35 17.15 L 20.51 16.93 L 20.66 16.71 L 20.79 16.47 L 20.91 16.21 L 21.03 15.95 L 21.12 15.68 L 21.21 15.39 L 21.29 15.09 L 21.35 14.78 L 21.41 14.46 L 21.45 14.12 L 21.48 13.78 L 21.49 13.42 L 21.5 13.05 L 21.5 6 L 21.49 5.63 L 21.48 5.27 L 21.45 4.93 L 21.41 4.59 L 21.35 4.27 L 21.29 3.96 L 21.21 3.66 L 21.12 3.38 L 21.03 3.1 L 20.91 2.84 L 20.79 2.58 L 20.66 2.34 L 20.51 2.12 L 20.35 1.9 L 20.18 1.69 L 20 1.5 L 19.81 1.32 L 19.6 1.15 L 19.38 0.99 L 19.16 0.84 L 18.92 0.71 L 18.66 0.59 L 18.4 0.47 L 18.12 0.38 L 17.84 0.29 L 17.54 0.21 L 17.23 0.15 L 16.91 0.09 L 16.57 0.05 L 16.23 0.02 L 15.87 0.01 L 15.5 0 Z"/>
    </clipPath>
    <g clip-path="url(#clipPath0)">
      <filter id="filter0">
        <feConvolveMatrix divisor="9.0" in="SourceGraphic" kernelMatrix="1 1 1 1 1 1 1 1 1" order="3 3" result="filterResult0"/>
      </filter>
      <use ffdec:characterId="2748" filter="url(#filter0)" height="32.15" transform="matrix(1.0, 0.0, 0.0, 1.0, -6.7, -7.3)" width="37.15" xlink:href="#sprite0"/>
    </g>
    <use ffdec:characterId="2751" height="12.2" transform="matrix(1.0, 0.0, 0.0, 1.0, 5.0, 3.45)" width="11.35" xlink:href="#shape2"/>
    <filter id="filter1">
      <feColorMatrix in="SourceGraphic" result="filterResult1" type="matrix" values="0 0 0 0 1.0,0 0 0 0 1.0,0 0 0 0 1.0,0 0 0 1 0"/>
      <feConvolveMatrix divisor="81.0" in="filterResult1" kernelMatrix="1 1 1 1 1 1 1 1 1 1 1 1 1 1 1 1 1 1 1 1 1 1 1 1 1 1 1 1 1 1 1 1 1 1 1 1 1 1 1 1 1 1 1 1 1 1 1 1 1 1 1 1 1 1 1 1 1 1 1 1 1 1 1 1 1 1 1 1 1 1 1 1 1 1 1 1 1 1 1 1 1" order="9 9" result="filterResult2"/>
      <feComposite in="SourceGraphic" in2="filterResult2" operator="over" result="filterResult3"/>
    </filter>
    <use ffdec:characterId="2753" filter="url(#filter1)" height="10.35" transform="matrix(1.0, 0.0, 0.0, 1.0, 5.4, 4.8)" width="10.4" xlink:href="#button0"/>
  </g>
  <defs>
    <g id="shape0" transform="matrix(1.0, 0.0, 0.0, 1.0, 0.75, 0.75)">
      <path d="M21.5 6.0 Q21.5 0.0 15.5 0.0 L6.0 0.0 Q0.0 0.0 0.0 6.0 L0.0 13.05 Q0.0 19.05 6.0 19.05 L15.5 19.05 Q21.5 19.05 21.5 13.05 L21.5 6.0 Z" fill="none" stroke="#6b0000" stroke-linecap="round" stroke-linejoin="round" stroke-width="1.5"/>
    </g>
    <g id="sprite0" transform="matrix(1.0, 0.0, 0.0, 1.0, 6.7, 7.3)">
      <use ffdec:characterId="2747" height="32.15" transform="matrix(1.0, 0.0, 0.0, 1.0, -6.7, -7.3)" width="37.15" xlink:href="#shape1"/>
    </g>
    <g id="shape1" transform="matrix(1.0, 0.0, 0.0, 1.0, 6.7, 7.3)">
      <path d="M30.45 24.85 L-6.7 24.85 -6.7 -7.3 30.45 -7.3 30.45 24.85" fill="#690000" fill-rule="evenodd" stroke="none"/>
      <path d="M21.5 6.0 L21.5 13.05 Q21.5 19.05 15.5 19.05 L6.0 19.05 Q0.0 19.05 0.0 13.05 L0.0 6.0 Q0.0 0.0 6.0 0.0 L15.5 0.0 Q21.5 0.0 21.5 6.0 M13.8 3.4 L7.65 3.4 Q3.8 3.4 3.8 7.25 L3.8 11.8 Q3.8 15.7 7.65 15.7 L13.8 15.7 Q17.65 15.7 17.65 11.8 L17.65 7.25 Q17.65 3.4 13.8 3.4" fill="url(#gradient0)" fill-rule="evenodd" stroke="none"/>
      <path d="M13.8 3.4 Q17.65 3.4 17.65 7.25 L17.65 11.8 Q17.65 15.7 13.8 15.7 L7.65 15.7 Q3.8 15.7 3.8 11.8 L3.8 7.25 Q3.8 3.4 7.65 3.4 L13.8 3.4" fill="url(#gradient1)" fill-rule="evenodd" stroke="none"/>
      <path d="M17.45 4.75 Q16.65 3.3 13.45 3.0 10.25 2.65 12.25 2.55 L16.65 2.8 Q19.0 3.2 18.7 6.05 18.2 6.25 17.45 4.75" fill="#ffffff" fill-rule="evenodd" stroke="none"/>
    </g>
    <radialGradient cx="0" cy="0" gradientTransform="matrix(0.0567, 0.0265, -0.0095, 0.0204, 17.15, 3.05)" gradientUnits="userSpaceOnUse" id="gradient0" r="819.2" spreadMethod="pad">
      <stop offset="0.0" stop-color="#ff5635"/>
      <stop offset="0.3176470588235294" stop-color="#f70000"/>
      <stop offset="0.6784313725490196" stop-color="#cd0000"/>
      <stop offset="1.0" stop-color="#910000"/>
    </radialGradient>
    <radialGradient cx="0" cy="0" gradientTransform="matrix(0.0221, 0.0, 0.0, 0.012, 10.9, 13.15)" gradientUnits="userSpaceOnUse" id="gradient1" r="819.2" spreadMethod="pad">
      <stop offset="0.0" stop-color="#ff3820"/>
      <stop offset="0.5019607843137255" stop-color="#f70000"/>
      <stop offset="1.0" stop-color="#cd0000"/>
    </radialGradient>
    <g id="shape2" transform="matrix(1.0, 0.0, 0.0, 1.0, -5.0, -3.45)">
      <path d="M11.0 11.7 L10.7 11.4 6.95 15.05 5.4 13.5 8.55 10.35 8.8 9.5 8.4 9.1 5.8 6.5 5.45 6.15 6.8 4.8 10.45 8.45 14.15 4.8 15.7 6.35 12.6 9.5 12.35 10.35 15.8 13.8 14.45 15.15 14.25 14.95 11.0 11.7" fill="#920000" fill-rule="evenodd" stroke="none"/>
      <path d="M13.45 9.7 L16.3 12.75 16.1 13.0 12.8 9.7 13.45 9.7 M5.35 13.0 L5.05 12.7 7.7 9.8 8.5 9.8 5.35 13.0 M5.4 5.65 L5.1 5.35 7.0 3.45 10.65 7.1 14.35 3.45 16.2 5.3 16.0 5.55 14.4 3.95 10.7 7.6 7.05 3.95 5.4 5.65" fill="#c40000" fill-rule="evenodd" stroke="none"/>
      <path d="M16.0 5.55 L16.25 5.8 15.7 6.35 14.15 4.8 10.45 8.45 6.8 4.8 5.45 6.15 5.15 5.85 5.4 5.65 7.05 3.95 10.7 7.6 14.4 3.95 16.0 5.55 M16.1 13.0 L16.35 13.25 15.8 13.8 12.35 10.35 12.6 9.5 12.8 9.7 16.1 13.0 M5.1 13.2 L5.35 13.0 8.5 9.8 8.8 9.5 8.55 10.35 5.4 13.5 5.1 13.2" fill="#790000" fill-rule="evenodd" stroke="none"/>
      <path d="M16.25 5.8 L16.15 6.3 13.45 9.7 12.8 9.7 12.6 9.5 15.7 6.35 16.25 5.8 M16.35 13.25 L16.25 13.75 14.35 15.65 10.3 12.5 6.85 15.55 5.0 13.7 5.1 13.2 5.4 13.5 6.95 15.05 10.7 11.4 11.0 11.7 14.25 14.95 14.45 15.15 15.8 13.8 16.35 13.25 M7.7 9.8 L5.05 6.35 5.15 5.85 5.45 6.15 5.8 6.5 8.4 9.1 8.8 9.5 8.5 9.8 7.7 9.8" fill="#ff8051" fill-rule="evenodd" stroke="none"/>
      <path d="M11.0 11.7 L14.25 14.95 M5.8 6.5 L8.4 9.1" ffdec:has-small-stroke="true" ffdec:original-stroke-width="0.25" fill="none" stroke="#ffc58e" stroke-linecap="round" stroke-linejoin="round" stroke-width="1.0"/>
    </g>
    <g id="button0" transform="matrix(1.0, 0.0, 0.0, 1.0, 0.0, 0.0)">
      <use ffdec:characterId="2752" height="10.35" transform="matrix(1.0, 0.0, 0.0, 1.0, 0.0, 0.0)" width="10.4" xlink:href="#shape3"/>
    </g>
    <g id="shape3" transform="matrix(1.0, 0.0, 0.0, 1.0, 0.0, 0.0)">
      <path d="M7.2 4.7 L6.95 5.55 10.4 9.0 9.05 10.35 5.3 6.6 1.55 10.25 0.0 8.7 3.15 5.55 3.4 4.7 0.05 1.35 1.4 0.0 5.05 3.65 8.75 0.0 10.3 1.55 7.2 4.7" fill="#ff9269" fill-rule="evenodd" stroke="none"/>
    </g>
  </defs>
</svg>
