<?xml version="1.0" encoding="UTF-8" standalone="no"?>
<svg xmlns:ffdec="https://www.free-decompiler.com/flash" xmlns:xlink="http://www.w3.org/1999/xlink" ffdec:objectType="frame" height="144.4px" width="101.5px" xmlns="http://www.w3.org/2000/svg">
  <g transform="matrix(1.0, 0.0, 0.0, 1.0, -24.25, -2.25)">
    <use ffdec:characterId="563" height="23.75" transform="matrix(1.0, 0.0, 0.0, 1.0, 73.8, 14.0)" width="13.75" xlink:href="#shape0"/>
    <use ffdec:characterId="1394" height="13.5" transform="matrix(1.3889, 0.0, 0.0, 1.3889, 76.8, 2.25)" width="13.5" xlink:href="#sprite0"/>
    <use ffdec:characterId="1395" height="101.5" transform="matrix(1.0, 0.0, 0.0, 1.0, 24.25, 24.25)" width="101.5" xlink:href="#sprite1"/>
    <use ffdec:characterId="1396" height="43.1" transform="matrix(1.0, 0.0, 0.0, 1.0, 88.15, 57.2)" width="37.45" xlink:href="#sprite2"/>
    <use ffdec:characterId="1396" height="43.1" transform="matrix(-1.0, 0.0, 0.0, 1.0, 61.8, 57.2)" width="37.45" xlink:href="#sprite2"/>
    <use ffdec:characterId="1203" height="25.05" transform="matrix(1.0, 0.0, 0.0, 1.0, 82.45, 88.4)" width="19.5" xlink:href="#shape4"/>
    <use ffdec:characterId="1397" height="75.6" transform="matrix(1.0, 0.0, 0.0, 1.0, 65.4, 71.05)" width="19.3" xlink:href="#sprite3"/>
    <use ffdec:characterId="572" height="66.5" transform="matrix(0.5021, -0.1345, 0.1345, 0.5021, 33.8796, 53.5903)" width="68.95" xlink:href="#shape6"/>
    <use ffdec:characterId="573" height="28.85" transform="matrix(0.416, -0.1115, 0.1111, 0.4145, 54.81, 62.4869)" width="28.8" xlink:href="#shape7"/>
    <use ffdec:characterId="1205" height="67.15" transform="matrix(0.5101, -0.1367, 0.1367, 0.5101, 31.2019, 53.4746)" width="77.35" xlink:href="#shape8"/>
    <use ffdec:characterId="572" height="66.5" transform="matrix(-0.5021, -0.1345, -0.1345, 0.5021, 116.8704, 53.4903)" width="68.95" xlink:href="#shape6"/>
    <use ffdec:characterId="573" height="28.85" transform="matrix(-0.416, -0.1115, -0.1111, 0.4145, 95.94, 62.3869)" width="28.8" xlink:href="#shape7"/>
    <use ffdec:characterId="1205" height="67.15" transform="matrix(-0.5101, -0.1367, -0.1367, 0.5101, 119.5481, 53.3746)" width="77.35" xlink:href="#shape8"/>
    <use ffdec:characterId="1398" height="20.95" transform="matrix(-0.8985, 0.1095, 0.081, 0.6643, 69.1162, 33.1379)" width="34.8" xlink:href="#sprite4"/>
    <use ffdec:characterId="1398" height="20.95" transform="matrix(0.8985, 0.1095, -0.081, 0.6643, 80.0838, 33.1379)" width="34.8" xlink:href="#sprite4"/>
  </g>
  <defs>
    <g id="shape0" transform="matrix(1.0, 0.0, 0.0, 1.0, 1.2, 61.0)">
      <path d="M11.05 -59.5 Q1.4 -50.05 0.3 -38.75" fill="none" stroke="#383838" stroke-linecap="round" stroke-linejoin="round" stroke-width="3.0"/>
    </g>
    <g id="sprite0" transform="matrix(1.0, 0.0, 0.0, 1.0, 13.5, 0.0)">
      <use ffdec:characterId="564" height="13.5" transform="matrix(1.0, 0.0, 0.0, 1.0, -13.5, 0.0)" width="13.5" xlink:href="#shape1"/>
    </g>
    <g id="shape1" transform="matrix(1.0, 0.0, 0.0, 1.0, 13.5, 0.0)">
      <path d="M-13.5 6.75 Q-13.5 3.95 -11.55 1.95 -9.55 0.0 -6.75 0.0 -3.95 0.0 -2.0 1.95 0.0 3.95 0.0 6.75 0.0 9.55 -2.0 11.5 -3.95 13.5 -6.75 13.5 -9.55 13.5 -11.55 11.5 -13.5 9.55 -13.5 6.75" fill="#383838" fill-rule="evenodd" stroke="none"/>
    </g>
    <g id="sprite1" transform="matrix(1.0, 0.0, 0.0, 1.0, 100.5, 1.0)">
      <use ffdec:characterId="567" height="101.5" transform="matrix(1.0, 0.0, 0.0, 1.0, -100.5, -1.0)" width="101.5" xlink:href="#shape2"/>
    </g>
    <g id="shape2" transform="matrix(1.0, 0.0, 0.0, 1.0, 100.5, 1.0)">
      <path d="M-92.95 24.85 Q-96.35 33.1 -96.35 42.7 L-96.3 44.95 Q-95.55 62.9 -82.65 75.75 -68.9 89.5 -49.55 89.5 -30.15 89.5 -16.45 75.75 -3.5 62.9 -2.75 44.95 L-2.7 42.7 Q-2.7 34.6 -5.1 27.55 -0.5 36.6 -0.05 47.4 L0.0 49.75 Q0.0 70.35 -14.6 84.9 -29.15 99.5 -49.75 99.5 -70.35 99.5 -84.95 84.9 -99.5 70.35 -99.5 49.75 L-99.45 47.4 Q-98.95 35.0 -92.95 24.85" fill="url(#gradient0)" fill-rule="evenodd" stroke="none"/>
      <path d="M-5.1 27.55 Q-2.7 34.6 -2.7 42.7 L-2.75 44.95 Q-3.5 62.9 -16.45 75.75 -30.15 89.5 -49.55 89.5 -68.9 89.5 -82.65 75.75 -95.55 62.9 -96.3 44.95 L-96.35 42.7 Q-96.35 33.1 -92.95 24.85 -89.75 19.4 -84.95 14.55 -70.35 0.0 -49.75 0.0 -29.15 0.0 -14.6 14.55 -8.6 20.55 -5.1 27.55" fill="url(#gradient1)" fill-rule="evenodd" stroke="none"/>
      <path d="M-92.95 24.85 Q-98.95 35.0 -99.45 47.4 L-99.5 49.75 Q-99.5 70.35 -84.95 84.9 -70.35 99.5 -49.75 99.5 -29.15 99.5 -14.6 84.9 0.0 70.35 0.0 49.75 L-0.05 47.4 Q-0.5 36.6 -5.1 27.55 -8.6 20.55 -14.6 14.55 -29.15 0.0 -49.75 0.0 -70.35 0.0 -84.95 14.55 -89.75 19.4 -92.95 24.85 Z" fill="none" stroke="#a13e00" stroke-linecap="round" stroke-linejoin="round" stroke-width="2.0"/>
    </g>
    <radialGradient cx="0" cy="0" gradientTransform="matrix(0.0793, 0.0, 0.0, 0.0793, -46.75, 30.25)" gradientUnits="userSpaceOnUse" id="gradient0" r="819.2" spreadMethod="pad">
      <stop offset="0.0" stop-color="#ffb61b"/>
      <stop offset="1.0" stop-color="#ee8300"/>
    </radialGradient>
    <radialGradient cx="0" cy="0" gradientTransform="matrix(0.0793, 0.0, 0.0, 0.0793, -46.75, 30.25)" gradientUnits="userSpaceOnUse" id="gradient1" r="819.2" spreadMethod="pad">
      <stop offset="0.0" stop-color="#ffd035"/>
      <stop offset="1.0" stop-color="#ff9a00"/>
    </radialGradient>
    <g id="sprite2" transform="matrix(1.0, 0.0, 0.0, 1.0, 37.45, 0.0)">
      <use ffdec:characterId="1216" height="43.1" transform="matrix(1.0, 0.0, 0.0, 1.0, -37.45, 0.0)" width="37.45" xlink:href="#shape3"/>
    </g>
    <g id="shape3" transform="matrix(1.0, 0.0, 0.0, 1.0, 37.45, 0.0)">
      <path d="M-15.9 43.1 Q-24.85 43.1 -31.15 36.8 -37.45 30.5 -37.45 21.55 -37.45 12.6 -31.15 6.3 -24.85 0.0 -15.9 0.0 -7.6 0.0 -1.55 5.45 2.8 23.0 -4.9 40.15 -9.8 43.1 -15.9 43.1" fill="url(#gradient2)" fill-rule="evenodd" stroke="none"/>
    </g>
    <radialGradient cx="0" cy="0" gradientTransform="matrix(0.0266, 0.0, 0.0, 0.0266, -15.9, 21.55)" gradientUnits="userSpaceOnUse" id="gradient2" r="819.2" spreadMethod="pad">
      <stop offset="0.0" stop-color="#ff0000" stop-opacity="0.8"/>
      <stop offset="1.0" stop-color="#ff0000" stop-opacity="0.0"/>
    </radialGradient>
    <g id="shape4" transform="matrix(1.0, 0.0, 0.0, 1.0, -82.45, -88.4)">
      <path d="M94.5 98.75 Q98.0 101.2 96.45 102.35 94.85 103.45 93.2 102.95 91.5 102.45 90.45 99.15 89.65 96.6 90.15 95.65 L94.5 98.75" fill="#560f0f" fill-rule="evenodd" stroke="none"/>
      <path d="M94.25 112.2 Q93.35 109.8 95.45 108.35 L99.7 105.45 Q101.85 103.95 99.45 98.85 97.05 93.75 93.0 93.2 L86.5 92.4 Q84.1 92.2 83.7 89.65" fill="none" stroke="#560f0f" stroke-linecap="round" stroke-linejoin="round" stroke-width="2.5"/>
    </g>
    <g id="sprite3" transform="matrix(1.0, 0.0, 0.0, 1.0, 18.3, 0.0)">
      <use ffdec:characterId="570" height="75.6" transform="matrix(1.0, 0.0, 0.0, 1.0, -18.3, 0.0)" width="19.3" xlink:href="#shape5"/>
    </g>
    <g id="shape5" transform="matrix(1.0, 0.0, 0.0, 1.0, 18.3, 0.0)">
      <path d="M-12.4 2.05 Q-12.3 1.1 -11.25 0.55 -10.15 0.0 -8.65 0.0 -7.3 0.0 -6.2 0.55 -5.0 1.1 -4.9 2.05 L-2.5 26.4 -2.4 26.4 -2.35 26.7 Q-8.45 32.55 -14.9 26.7 L-14.9 26.4 -14.8 26.4 -12.4 2.05" fill="url(#gradient3)" fill-rule="evenodd" stroke="none"/>
      <path d="M-2.35 26.7 L0.0 68.35 Q0.05 70.8 -2.4 72.65 -5.0 74.6 -8.65 74.6 -12.5 74.6 -14.95 72.65 -17.5 70.8 -17.3 68.35 L-14.9 26.7 Q-8.45 32.55 -2.35 26.7" fill="url(#gradient4)" fill-rule="evenodd" stroke="none"/>
      <path d="M-4.9 2.05 L-2.5 26.4 M-2.4 26.4 L-2.35 26.7 0.0 68.35 Q0.05 70.8 -2.4 72.65 -5.0 74.6 -8.65 74.6 -12.5 74.6 -14.95 72.65 -17.5 70.8 -17.3 68.35 L-14.9 26.7 -14.9 26.4 M-14.8 26.4 L-12.4 2.05" fill="none" stroke="#af4a00" stroke-linecap="round" stroke-linejoin="round" stroke-width="2.0"/>
    </g>
    <radialGradient cx="0" cy="0" gradientTransform="matrix(0.0115, 0.0, 0.0, 0.1011, -9.15, 0.8)" gradientUnits="userSpaceOnUse" id="gradient3" r="819.2" spreadMethod="pad">
      <stop offset="0.0" stop-color="#ffd035"/>
      <stop offset="1.0" stop-color="#ff9a00"/>
    </radialGradient>
    <radialGradient cx="0" cy="0" gradientTransform="matrix(0.0115, 0.0, 0.0, 0.1011, -9.15, 0.8)" gradientUnits="userSpaceOnUse" id="gradient4" r="819.2" spreadMethod="pad">
      <stop offset="0.0" stop-color="#f7aa1a"/>
      <stop offset="1.0" stop-color="#ef8601"/>
    </radialGradient>
    <g id="shape6" transform="matrix(1.0, 0.0, 0.0, 1.0, 34.45, 33.25)">
      <path d="M-25.3 -20.35 L-23.2 -22.55 Q-20.25 -25.35 -16.45 -27.45 -4.65 -34.0 8.5 -30.6 21.65 -27.2 28.45 -15.8 35.35 -4.45 31.8 8.25 L31.1 10.45 Q27.4 14.85 21.85 17.9 10.0 24.5 -3.15 21.1 -16.3 17.7 -23.1 6.3 -29.9 -5.1 -26.35 -17.7 L-25.65 -19.95 -25.3 -20.35" fill="url(#gradient5)" fill-rule="evenodd" stroke="none"/>
      <path d="M31.1 10.45 Q27.2 21.45 16.45 27.45 4.6 34.0 -8.55 30.6 -21.7 27.2 -28.55 15.8 -35.3 4.4 -31.75 -8.2 -30.55 -12.65 -28.25 -16.3 L-27.2 -17.95 -26.05 -19.45 -25.65 -19.95 -26.35 -17.7 Q-29.9 -5.1 -23.1 6.3 -16.3 17.7 -3.15 21.1 10.0 24.5 21.85 17.9 27.4 14.85 31.1 10.45" fill="url(#gradient6)" fill-rule="evenodd" stroke="none"/>
      <path d="M-25.3 -20.35 L-23.2 -22.55 Q-20.25 -25.35 -16.45 -27.45 -4.65 -34.0 8.5 -30.6 21.65 -27.2 28.45 -15.8 35.35 -4.45 31.8 8.25 L31.1 10.45 Q27.2 21.45 16.45 27.45 4.6 34.0 -8.55 30.6 -21.7 27.2 -28.55 15.8 -35.3 4.4 -31.75 -8.2 -30.55 -12.65 -28.25 -16.3 L-27.2 -17.95 -26.05 -19.45 -25.3 -20.35 Z" fill="none" stroke="#828595" stroke-linecap="round" stroke-linejoin="round" stroke-width="3.0"/>
    </g>
    <radialGradient cx="0" cy="0" gradientTransform="matrix(0.0475, 0.0, 0.0, 0.0475, 1.05, -11.35)" gradientUnits="userSpaceOnUse" id="gradient5" r="819.2" spreadMethod="pad">
      <stop offset="0.0" stop-color="#ffffff"/>
      <stop offset="1.0" stop-color="#dadce7"/>
    </radialGradient>
    <radialGradient cx="0" cy="0" gradientTransform="matrix(0.0475, 0.0, 0.0, 0.0475, 1.05, -11.35)" gradientUnits="userSpaceOnUse" id="gradient6" r="819.2" spreadMethod="pad">
      <stop offset="0.0" stop-color="#eaebf1"/>
      <stop offset="0.9882352941176471" stop-color="#bfc2d2"/>
    </radialGradient>
    <g id="shape7" transform="matrix(1.0, 0.0, 0.0, 1.0, 14.4, 14.4)">
      <path d="M7.5 -2.1 Q8.75 -2.45 9.7 -3.4 11.15 -4.85 11.15 -6.9 11.15 -9.0 9.7 -10.45 8.25 -11.9 6.2 -11.9 4.1 -11.9 2.65 -10.45 1.3 -9.1 1.2 -7.2 L0.35 -7.25 Q-2.8 -7.3 -4.95 -5.1 -7.15 -2.9 -7.15 0.2 -7.15 1.8 -6.55 3.2 -6.95 3.8 -6.95 4.55 -6.95 5.6 -6.2 6.35 -5.5 7.05 -4.45 7.05 L-3.3 6.8 Q-1.7 7.7 0.35 7.7 3.45 7.7 5.65 5.5 7.8 3.3 7.85 0.2 L7.5 -2.1 M10.2 -10.15 Q14.4 -5.95 14.4 0.0 14.4 6.0 10.2 10.2 5.95 14.4 0.0 14.45 -6.0 14.4 -10.2 10.2 -14.4 6.0 -14.4 0.0 -14.4 -5.95 -10.2 -10.15 -6.0 -14.4 0.0 -14.4 5.95 -14.4 10.2 -10.15" fill="#5c31d2" fill-rule="evenodd" stroke="none"/>
      <path d="M7.5 -2.1 L7.85 0.2 Q7.8 3.3 5.65 5.5 3.45 7.7 0.35 7.7 -1.7 7.7 -3.3 6.8 L-2.7 6.35 Q-1.95 5.6 -1.95 4.55 -1.95 3.5 -2.7 2.8 -3.4 2.05 -4.45 2.05 -5.5 2.05 -6.2 2.8 L-6.55 3.2 Q-7.15 1.8 -7.15 0.2 -7.15 -2.9 -4.95 -5.1 -2.8 -7.3 0.35 -7.25 L1.2 -7.2 1.2 -6.9 Q1.2 -4.85 2.65 -3.4 4.1 -1.95 6.2 -1.95 L7.5 -2.1" fill="#2b3435" fill-rule="evenodd" stroke="none"/>
      <path d="M1.2 -7.2 Q1.3 -9.1 2.65 -10.45 4.1 -11.9 6.2 -11.9 8.25 -11.9 9.7 -10.45 11.15 -9.0 11.15 -6.9 11.15 -4.85 9.7 -3.4 8.75 -2.45 7.5 -2.1 L6.2 -1.95 Q4.1 -1.95 2.65 -3.4 1.2 -4.85 1.2 -6.9 L1.2 -7.2 M-3.3 6.8 L-4.45 7.05 Q-5.5 7.05 -6.2 6.35 -6.95 5.6 -6.95 4.55 -6.95 3.8 -6.55 3.2 L-6.2 2.8 Q-5.5 2.05 -4.45 2.05 -3.4 2.05 -2.7 2.8 -1.95 3.5 -1.95 4.55 -1.95 5.6 -2.7 6.35 L-3.3 6.8" fill="#e6e6e6" fill-rule="evenodd" stroke="none"/>
    </g>
    <g id="shape8" transform="matrix(1.0, 0.0, 0.0, 1.0, 38.75, 34.25)">
      <path d="M22.95 13.65 Q18.1 20.5 10.7 22.75 3.25 25.0 -4.0 22.45 -11.3 19.85 -19.6 9.8 1.45 8.9 22.95 13.65" fill="#ffc42a" fill-rule="evenodd" stroke="none"/>
      <path d="M22.95 13.65 Q1.45 8.9 -19.6 9.8 -11.3 19.85 -4.0 22.45 3.25 25.0 10.7 22.75 18.1 20.5 22.95 13.65 M30.9 10.95 Q26.9 21.35 16.55 27.1 4.7 33.65 -8.45 30.25 -21.6 26.85 -28.45 15.45 -30.7 11.6 -31.8 7.65 -25.25 4.3 -13.15 0.3 -1.05 -3.7 12.15 0.05 25.35 3.7 30.9 10.95" fill="#ee8300" fill-rule="evenodd" stroke="none"/>
      <path d="M30.9 10.95 Q26.9 21.35 16.55 27.1 4.7 33.65 -8.45 30.25 -21.6 26.85 -28.45 15.45 -30.7 11.6 -31.8 7.65 -25.25 4.3 -13.15 0.3 -1.05 -3.7 12.15 0.05 25.35 3.7 30.9 10.95 Z" fill="none" stroke="#a13e00" stroke-linecap="round" stroke-linejoin="round" stroke-width="3.0"/>
      <path d="M-25.25 -21.65 Q-21.7 -25.55 -16.65 -28.35 -4.65 -35.05 8.8 -31.55 20.85 -28.45 27.7 -18.65 30.7 -7.3 27.05 2.1 27.75 2.65 32.65 4.8 L33.05 5.75 Q32.45 7.95 25.15 5.15 17.8 2.3 8.85 1.05 L-1.85 0.1 -11.6 -0.25 Q-18.25 0.2 -22.25 -1.1 -25.25 -2.1 -26.5 -4.0 -27.15 -6.1 -27.25 -8.55 -27.45 -13.25 -25.75 -19.25 L-25.05 -21.5 -25.25 -21.65" fill="#ffc42a" fill-rule="evenodd" stroke="none"/>
      <path d="M27.7 -18.65 L29.15 -16.45 Q32.85 -10.4 33.3 -4.85 L33.45 1.0 33.0 4.2 Q36.9 4.6 36.6 7.5 36.5 8.55 35.65 9.35 34.35 10.45 31.5 11.0 L27.6 9.9 22.05 8.5 16.25 7.1 Q-2.5 3.1 -20.05 5.3 L-24.15 5.9 -25.0 6.05 -28.3 6.8 -31.55 7.7 -32.95 7.7 Q-36.65 6.6 -36.75 4.0 -36.9 1.1 -33.5 0.85 -33.65 -3.85 -32.25 -8.7 -30.2 -16.25 -25.25 -21.65 L-25.05 -21.5 -25.75 -19.25 Q-27.45 -13.25 -27.25 -8.55 -27.15 -6.1 -26.5 -4.0 -25.25 -2.1 -22.25 -1.1 -18.25 0.2 -11.6 -0.25 L-1.85 0.1 8.85 1.05 Q17.8 2.3 25.15 5.15 32.45 7.95 33.05 5.75 L32.65 4.8 Q27.75 2.65 27.05 2.1 30.7 -7.3 27.7 -18.65 M33.0 4.2 Q32.15 4.15 32.65 4.8 32.15 4.15 33.0 4.2 M-33.5 0.85 L-28.65 -0.9 -33.5 0.85" fill="#ee8300" fill-rule="evenodd" stroke="none"/>
      <path d="M27.7 -18.65 L29.15 -16.45 Q32.85 -10.4 33.3 -4.85 L33.45 1.0 33.0 4.2 Q32.15 4.15 32.65 4.8 27.75 2.65 27.05 2.1 M-33.5 0.85 Q-33.65 -3.85 -32.25 -8.7 -30.2 -16.25 -25.25 -21.65 -21.7 -25.55 -16.65 -28.35 -4.65 -35.05 8.8 -31.55 20.85 -28.45 27.7 -18.65 M-28.65 -0.9 L-33.5 0.85" fill="none" stroke="#a13e00" stroke-linecap="round" stroke-linejoin="round" stroke-width="3.0"/>
      <path d="M33.0 4.2 Q36.9 4.6 36.6 7.5 36.5 8.55 35.65 9.35 34.35 10.45 31.5 11.0 L27.6 9.9 22.05 8.5 16.25 7.1 Q-2.5 3.1 -20.05 5.3 L-24.15 5.9 -25.0 6.05 -28.3 6.8 -31.55 7.7 -32.95 7.7 Q-36.65 6.6 -36.75 4.0 -36.9 1.1 -33.5 0.85" fill="none" stroke="#a13e00" stroke-linecap="round" stroke-linejoin="round" stroke-width="4.0"/>
    </g>
    <g id="sprite4" transform="matrix(1.0, 0.0, 0.0, 1.0, 34.8, 0.0)">
      <use ffdec:characterId="575" height="20.95" transform="matrix(1.0, 0.0, 0.0, 1.0, -34.8, 0.0)" width="34.8" xlink:href="#shape9"/>
    </g>
    <g id="shape9" transform="matrix(1.0, 0.0, 0.0, 1.0, 34.8, 0.0)">
      <path d="M-32.35 8.85 L-34.8 4.1 Q-12.95 -9.3 0.0 20.95 -16.95 -0.45 -32.35 8.85" fill="#323232" fill-rule="evenodd" stroke="none"/>
    </g>
  </defs>
</svg>
