<?xml version="1.0" encoding="UTF-8" standalone="no"?>
<svg xmlns:ffdec="https://www.free-decompiler.com/flash" xmlns:xlink="http://www.w3.org/1999/xlink" ffdec:objectType="frame" height="232.05px" width="234.35px" xmlns="http://www.w3.org/2000/svg">
  <g transform="matrix(1.0, 0.0, 0.0, 1.0, 2.35, -0.95)">
    <use ffdec:characterId="2404" height="231.1" transform="matrix(1.0, 0.0, 0.0, 1.0, -2.35, 0.95)" width="234.35" xlink:href="#shape0"/>
  </g>
  <defs>
    <g id="shape0" transform="matrix(1.0, 0.0, 0.0, 1.0, 2.35, -0.95)">
      <path d="M8.35 179.3 L8.4 178.85 8.55 179.05 8.35 179.3" fill="url(#gradient0)" fill-rule="evenodd" stroke="none"/>
      <path d="M230.65 219.7 L230.2 220.35 230.1 220.45 230.65 219.7" fill="url(#gradient1)" fill-rule="evenodd" stroke="none"/>
      <path d="M221.8 217.8 L221.55 217.9 221.45 217.9 220.85 217.95 221.8 217.8" fill="url(#gradient2)" fill-rule="evenodd" stroke="none"/>
      <path d="M206.1 232.05 L206.55 231.4 206.2 232.05 206.1 232.05" fill="url(#gradient3)" fill-rule="evenodd" stroke="none"/>
      <path d="M8.4 178.85 Q11.25 126.75 0.0 0.95 L232.0 0.95 232.0 39.8 Q230.25 48.9 225.75 52.4 L225.55 52.6 225.25 52.8 -2.35 215.55 Q6.1 209.1 8.35 179.3 L8.55 179.05 8.4 178.85" fill="#ff0000" fill-rule="evenodd" stroke="none"/>
    </g>
    <linearGradient gradientTransform="matrix(0.0865, 0.0, 0.0, 0.1089, 70.9, 90.15)" gradientUnits="userSpaceOnUse" id="gradient0" spreadMethod="pad" x1="-819.2" x2="819.2">
      <stop offset="0.0" stop-color="#fbe6c8"/>
      <stop offset="0.6627450980392157" stop-color="#f4c279"/>
      <stop offset="1.0" stop-color="#d58611"/>
    </linearGradient>
    <linearGradient gradientTransform="matrix(4.0E-4, 0.0, 0.0, 5.0E-4, 230.35, 220.1)" gradientUnits="userSpaceOnUse" id="gradient1" spreadMethod="pad" x1="-819.2" x2="819.2">
      <stop offset="0.0" stop-color="#fbe6c8"/>
      <stop offset="0.6627450980392157" stop-color="#f4c279"/>
      <stop offset="1.0" stop-color="#d58611"/>
    </linearGradient>
    <linearGradient gradientTransform="matrix(6.0E-4, 0.0, 0.0, 1.0E-4, 221.3, 217.9)" gradientUnits="userSpaceOnUse" id="gradient2" spreadMethod="pad" x1="-819.2" x2="819.2">
      <stop offset="0.0" stop-color="#fbe6c8"/>
      <stop offset="0.6627450980392157" stop-color="#f4c279"/>
      <stop offset="1.0" stop-color="#d58611"/>
    </linearGradient>
    <linearGradient gradientTransform="matrix(3.0E-4, 0.0, 0.0, 4.0E-4, 206.3, 231.7)" gradientUnits="userSpaceOnUse" id="gradient3" spreadMethod="pad" x1="-819.2" x2="819.2">
      <stop offset="0.0" stop-color="#fbe6c8"/>
      <stop offset="0.6627450980392157" stop-color="#f4c279"/>
      <stop offset="1.0" stop-color="#d58611"/>
    </linearGradient>
  </defs>
</svg>
