<?xml version="1.0" encoding="UTF-8" standalone="no"?>
<svg xmlns:ffdec="https://www.free-decompiler.com/flash" xmlns:xlink="http://www.w3.org/1999/xlink" ffdec:objectType="frame" height="144.3px" width="101.5px" xmlns="http://www.w3.org/2000/svg">
  <g transform="matrix(1.0, 0.0, 0.0, 1.0, -24.25, -2.25)">
    <use ffdec:characterId="563" height="23.75" transform="matrix(1.0, 0.0, 0.0, 1.0, 73.8, 14.0)" width="13.75" xlink:href="#shape0"/>
    <use ffdec:characterId="1347" height="13.5" transform="matrix(1.3889, 0.0, 0.0, 1.3889, 76.8, 2.25)" width="13.5" xlink:href="#sprite0"/>
    <use ffdec:characterId="1348" height="101.5" transform="matrix(1.0, 0.0, 0.0, 1.0, 24.25, 24.25)" width="101.5" xlink:href="#sprite1"/>
    <use ffdec:characterId="1349" height="22.35" transform="matrix(1.0, 0.0, 0.0, 1.0, 44.0, 88.95)" width="62.0" xlink:href="#shape3"/>
    <use ffdec:characterId="1350" height="75.6" transform="matrix(1.0, 0.0, 0.0, 1.0, 65.4, 70.95)" width="19.3" xlink:href="#sprite2"/>
    <use ffdec:characterId="1351" height="91.8" transform="matrix(0.3526, -0.0945, 0.0945, 0.3526, 31.2903, 54.8854)" width="101.55" xlink:href="#sprite3"/>
    <use ffdec:characterId="1351" height="91.8" transform="matrix(-0.3526, -0.0945, -0.0945, 0.3526, 118.1097, 54.8854)" width="101.55" xlink:href="#sprite3"/>
    <use ffdec:characterId="1352" height="20.95" transform="matrix(-0.9051, 0.0, 0.0, 0.726, 70.1482, 32.65)" width="34.8" xlink:href="#sprite4"/>
    <use ffdec:characterId="1352" height="20.95" transform="matrix(0.9051, 0.0, 0.0, 0.726, 80.5018, 32.65)" width="34.8" xlink:href="#sprite4"/>
  </g>
  <defs>
    <g id="shape0" transform="matrix(1.0, 0.0, 0.0, 1.0, 1.2, 61.0)">
      <path d="M11.05 -59.5 Q1.4 -50.05 0.3 -38.75" fill="none" stroke="#383838" stroke-linecap="round" stroke-linejoin="round" stroke-width="3.0"/>
    </g>
    <g id="sprite0" transform="matrix(1.0, 0.0, 0.0, 1.0, 13.5, 0.0)">
      <use ffdec:characterId="564" height="13.5" transform="matrix(1.0, 0.0, 0.0, 1.0, -13.5, 0.0)" width="13.5" xlink:href="#shape1"/>
    </g>
    <g id="shape1" transform="matrix(1.0, 0.0, 0.0, 1.0, 13.5, 0.0)">
      <path d="M-13.5 6.75 Q-13.5 3.95 -11.55 1.95 -9.55 0.0 -6.75 0.0 -3.95 0.0 -2.0 1.95 0.0 3.95 0.0 6.75 0.0 9.55 -2.0 11.5 -3.95 13.5 -6.75 13.5 -9.55 13.5 -11.55 11.5 -13.5 9.55 -13.5 6.75" fill="#383838" fill-rule="evenodd" stroke="none"/>
    </g>
    <g id="sprite1" transform="matrix(1.0, 0.0, 0.0, 1.0, 100.5, 1.0)">
      <use ffdec:characterId="567" height="101.5" transform="matrix(1.0, 0.0, 0.0, 1.0, -100.5, -1.0)" width="101.5" xlink:href="#shape2"/>
    </g>
    <g id="shape2" transform="matrix(1.0, 0.0, 0.0, 1.0, 100.5, 1.0)">
      <path d="M-92.95 24.85 Q-96.35 33.1 -96.35 42.7 L-96.3 44.95 Q-95.55 62.9 -82.65 75.75 -68.9 89.5 -49.55 89.5 -30.15 89.5 -16.45 75.75 -3.5 62.9 -2.75 44.95 L-2.7 42.7 Q-2.7 34.6 -5.1 27.55 -0.5 36.6 -0.05 47.4 L0.0 49.75 Q0.0 70.35 -14.6 84.9 -29.15 99.5 -49.75 99.5 -70.35 99.5 -84.95 84.9 -99.5 70.35 -99.5 49.75 L-99.45 47.4 Q-98.95 35.0 -92.95 24.85" fill="url(#gradient0)" fill-rule="evenodd" stroke="none"/>
      <path d="M-5.1 27.55 Q-2.7 34.6 -2.7 42.7 L-2.75 44.95 Q-3.5 62.9 -16.45 75.75 -30.15 89.5 -49.55 89.5 -68.9 89.5 -82.65 75.75 -95.55 62.9 -96.3 44.95 L-96.35 42.7 Q-96.35 33.1 -92.95 24.85 -89.75 19.4 -84.95 14.55 -70.35 0.0 -49.75 0.0 -29.15 0.0 -14.6 14.55 -8.6 20.55 -5.1 27.55" fill="url(#gradient1)" fill-rule="evenodd" stroke="none"/>
      <path d="M-92.95 24.85 Q-98.95 35.0 -99.45 47.4 L-99.5 49.75 Q-99.5 70.35 -84.95 84.9 -70.35 99.5 -49.75 99.5 -29.15 99.5 -14.6 84.9 0.0 70.35 0.0 49.75 L-0.05 47.4 Q-0.5 36.6 -5.1 27.55 -8.6 20.55 -14.6 14.55 -29.15 0.0 -49.75 0.0 -70.35 0.0 -84.95 14.55 -89.75 19.4 -92.95 24.85 Z" fill="none" stroke="#a13e00" stroke-linecap="round" stroke-linejoin="round" stroke-width="2.0"/>
    </g>
    <radialGradient cx="0" cy="0" gradientTransform="matrix(0.0793, 0.0, 0.0, 0.0793, -46.75, 30.25)" gradientUnits="userSpaceOnUse" id="gradient0" r="819.2" spreadMethod="pad">
      <stop offset="0.0" stop-color="#ffb61b"/>
      <stop offset="1.0" stop-color="#ee8300"/>
    </radialGradient>
    <radialGradient cx="0" cy="0" gradientTransform="matrix(0.0793, 0.0, 0.0, 0.0793, -46.75, 30.25)" gradientUnits="userSpaceOnUse" id="gradient1" r="819.2" spreadMethod="pad">
      <stop offset="0.0" stop-color="#ffd035"/>
      <stop offset="1.0" stop-color="#ff9a00"/>
    </radialGradient>
    <g id="shape3" transform="matrix(1.0, 0.0, 0.0, 1.0, -44.0, -88.95)">
      <path d="M105.0 89.95 L104.55 92.95 Q102.95 98.4 95.95 103.75 86.95 110.55 74.55 110.3 66.1 110.15 59.55 107.1 56.35 105.6 53.65 103.5 45.15 96.9 45.0 89.95 L51.7 91.1 Q73.65 94.2 97.75 91.05 L105.0 89.95" fill="#5d1b1b" fill-rule="evenodd" stroke="none"/>
      <path d="M105.0 89.95 L104.55 92.95 Q102.95 98.4 95.95 103.75 86.95 110.55 74.55 110.3 66.1 110.15 59.55 107.1 56.35 105.6 53.65 103.5 45.15 96.9 45.0 89.95 L51.7 91.1 Q73.65 94.2 97.75 91.05 L105.0 89.95 Z" fill="none" stroke="#560f0f" stroke-linecap="round" stroke-linejoin="round" stroke-width="2.0"/>
    </g>
    <g id="sprite2" transform="matrix(1.0, 0.0, 0.0, 1.0, 18.3, 0.0)">
      <use ffdec:characterId="570" height="75.6" transform="matrix(1.0, 0.0, 0.0, 1.0, -18.3, 0.0)" width="19.3" xlink:href="#shape4"/>
    </g>
    <g id="shape4" transform="matrix(1.0, 0.0, 0.0, 1.0, 18.3, 0.0)">
      <path d="M-12.4 2.05 Q-12.3 1.1 -11.25 0.55 -10.15 0.0 -8.65 0.0 -7.3 0.0 -6.2 0.55 -5.0 1.1 -4.9 2.05 L-2.5 26.4 -2.4 26.4 -2.35 26.7 Q-8.45 32.55 -14.9 26.7 L-14.9 26.4 -14.8 26.4 -12.4 2.05" fill="url(#gradient2)" fill-rule="evenodd" stroke="none"/>
      <path d="M-2.35 26.7 L0.0 68.35 Q0.05 70.8 -2.4 72.65 -5.0 74.6 -8.65 74.6 -12.5 74.6 -14.95 72.65 -17.5 70.8 -17.3 68.35 L-14.9 26.7 Q-8.45 32.55 -2.35 26.7" fill="url(#gradient3)" fill-rule="evenodd" stroke="none"/>
      <path d="M-4.9 2.05 L-2.5 26.4 M-2.4 26.4 L-2.35 26.7 0.0 68.35 Q0.05 70.8 -2.4 72.65 -5.0 74.6 -8.65 74.6 -12.5 74.6 -14.95 72.65 -17.5 70.8 -17.3 68.35 L-14.9 26.7 -14.9 26.4 M-14.8 26.4 L-12.4 2.05" fill="none" stroke="#af4a00" stroke-linecap="round" stroke-linejoin="round" stroke-width="2.0"/>
    </g>
    <radialGradient cx="0" cy="0" gradientTransform="matrix(0.0115, 0.0, 0.0, 0.1011, -9.15, 0.8)" gradientUnits="userSpaceOnUse" id="gradient2" r="819.2" spreadMethod="pad">
      <stop offset="0.0" stop-color="#ffd035"/>
      <stop offset="1.0" stop-color="#ff9a00"/>
    </radialGradient>
    <radialGradient cx="0" cy="0" gradientTransform="matrix(0.0115, 0.0, 0.0, 0.1011, -9.15, 0.8)" gradientUnits="userSpaceOnUse" id="gradient3" r="819.2" spreadMethod="pad">
      <stop offset="0.0" stop-color="#f7aa1a"/>
      <stop offset="1.0" stop-color="#ef8601"/>
    </radialGradient>
    <g id="sprite3" transform="matrix(1.0, 0.0, 0.0, 1.0, 8.75, 8.2)">
      <use ffdec:characterId="1301" height="91.8" transform="matrix(1.0, 0.0, 0.0, 1.0, -8.75, -8.2)" width="101.55" xlink:href="#shape5"/>
    </g>
    <g id="shape5" transform="matrix(1.0, 0.0, 0.0, 1.0, 8.75, 8.2)">
      <path d="M83.7 37.6 L85.25 33.35 86.1 29.95 Q87.05 25.85 87.25 22.25 87.55 19.1 87.25 16.4 86.6 9.25 81.2 4.35 73.95 -3.5 61.35 -1.9 49.2 0.4 42.0 11.75 34.85 0.4 22.7 -1.9 10.1 -3.5 2.85 4.35 -2.55 9.25 -3.2 16.4 -3.45 18.3 -3.35 20.45 L-3.3 20.7 Q-1.6 33.0 5.7 43.55 17.75 60.75 35.35 64.8 52.95 68.8 65.75 58.0 78.55 47.15 83.7 37.6 M87.55 35.75 Q84.7 46.4 73.8 58.9 62.9 71.35 42.0 80.6 21.15 71.35 10.25 58.9 -0.65 46.4 -3.5 35.75 -6.3 25.05 -5.65 17.05 -5.25 13.15 -3.65 9.75 -2.05 6.2 0.8 3.3 8.35 -6.0 21.65 -5.15 34.5 -3.5 42.0 8.55 49.55 -3.5 62.4 -5.15 75.7 -6.0 83.25 3.3 88.9 9.1 89.7 17.05 89.95 20.15 89.7 23.6 89.25 29.15 87.55 35.75" fill="url(#gradient4)" fill-rule="evenodd" stroke="none"/>
      <path d="M83.7 37.6 Q78.55 47.15 65.75 58.0 52.95 68.8 35.35 64.8 17.75 60.75 5.7 43.55 -1.6 33.0 -3.3 20.7 L-3.35 20.45 Q-3.45 18.3 -3.2 16.4 -2.55 9.25 2.85 4.35 10.1 -3.5 22.7 -1.9 34.85 0.4 42.0 11.75 49.2 0.4 61.35 -1.9 73.95 -3.5 81.2 4.35 86.6 9.25 87.25 16.4 87.55 19.1 87.25 22.25 87.05 25.85 86.1 29.95 L85.25 33.35 83.7 37.6" fill="url(#gradient5)" fill-rule="evenodd" stroke="none"/>
      <path d="M82.75 25.05 Q81.65 30.85 76.5 38.8 71.35 46.7 65.9 46.7 60.45 46.7 58.1 42.45 56.35 37.75 55.65 36.85 54.2 34.15 52.6 32.5 49.7 29.5 43.4 27.65 L35.05 25.35 26.35 22.75 18.9 20.65 10.75 17.55 Q8.15 16.95 5.9 15.2 3.35 13.2 3.35 12.15 3.35 9.8 5.9 6.95 8.65 3.85 12.5 2.45 21.55 -0.85 29.7 7.15 L32.15 9.15 37.0 13.55 Q39.4 15.55 41.0 15.55 42.65 15.55 48.8 10.65 L51.0 8.75 Q60.75 -1.0 70.5 1.0 80.25 2.95 82.05 11.1 83.85 19.2 82.75 25.05" fill="url(#gradient6)" fill-rule="evenodd" stroke="none"/>
      <path d="M87.55 35.75 Q84.7 46.4 73.8 58.9 62.9 71.35 42.0 80.6 21.15 71.35 10.25 58.9 -0.65 46.4 -3.5 35.75 -6.3 25.05 -5.65 17.05 -5.25 13.15 -3.65 9.75 -2.05 6.2 0.8 3.3 8.35 -6.0 21.65 -5.15 34.5 -3.5 42.0 8.55 49.55 -3.5 62.4 -5.15 75.7 -6.0 83.25 3.3 88.9 9.1 89.7 17.05 89.95 20.15 89.7 23.6 89.25 29.15 87.55 35.75 Z" fill="none" stroke="#9f0707" stroke-linecap="round" stroke-linejoin="round" stroke-width="6.0"/>
    </g>
    <radialGradient cx="0" cy="0" gradientTransform="matrix(0.1059, 0.0, 0.0, 0.0765, 41.7, 17.4)" gradientUnits="userSpaceOnUse" id="gradient4" r="819.2" spreadMethod="pad">
      <stop offset="0.6549019607843137" stop-color="#c80000"/>
      <stop offset="1.0" stop-color="#f60000"/>
    </radialGradient>
    <radialGradient cx="0" cy="0" fx="268.8" fy="0" gradientTransform="matrix(0.0892, -0.0348, 0.0273, 0.0699, 34.35, 47.95)" gradientUnits="userSpaceOnUse" id="gradient5" r="819.2" spreadMethod="pad">
      <stop offset="0.3058823529411765" stop-color="#ff0000"/>
      <stop offset="0.48627450980392156" stop-color="#f60000"/>
      <stop offset="1.0" stop-color="#bb0000"/>
    </radialGradient>
    <radialGradient cx="0" cy="0" fx="6.4" fy="0" gradientTransform="matrix(0.1529, 0.0243, -0.0243, 0.1529, 76.45, -60.35)" gradientUnits="userSpaceOnUse" id="gradient6" r="819.2" spreadMethod="pad">
      <stop offset="0.23921568627450981" stop-color="#ff7171"/>
      <stop offset="0.4666666666666667" stop-color="#ff7171" stop-opacity="0.81960785"/>
      <stop offset="1.0" stop-color="#ff7171" stop-opacity="0.0"/>
    </radialGradient>
    <g id="sprite4" transform="matrix(1.0, 0.0, 0.0, 1.0, 34.8, 0.0)">
      <use ffdec:characterId="575" height="20.95" transform="matrix(1.0, 0.0, 0.0, 1.0, -34.8, 0.0)" width="34.8" xlink:href="#shape6"/>
    </g>
    <g id="shape6" transform="matrix(1.0, 0.0, 0.0, 1.0, 34.8, 0.0)">
      <path d="M-32.35 8.85 L-34.8 4.1 Q-12.95 -9.3 0.0 20.95 -16.95 -0.45 -32.35 8.85" fill="#323232" fill-rule="evenodd" stroke="none"/>
    </g>
  </defs>
</svg>
