<?xml version="1.0" encoding="UTF-8" standalone="no"?>
<svg xmlns:ffdec="https://www.free-decompiler.com/flash" xmlns:xlink="http://www.w3.org/1999/xlink" ffdec:objectType="frame" height="31.4px" width="8.0px" xmlns="http://www.w3.org/2000/svg">
  <g transform="matrix(1.0, 0.0, 0.0, 1.0, 0.0, 0.0)">
    <use ffdec:characterId="219" height="31.4" transform="matrix(1.0, 0.0, 0.0, 1.0, 0.0, 0.0)" width="8.0" xlink:href="#shape0"/>
  </g>
  <defs>
    <g id="shape0" transform="matrix(1.0, 0.0, 0.0, 1.0, 0.0, 0.0)">
      <path d="M6.25 2.9 Q7.0 5.85 7.0 10.0 7.0 14.15 6.25 17.05 L5.4 19.4 Q6.15 19.9 6.8 20.95 8.0 22.95 8.0 25.75 8.0 28.55 6.8 30.5 L6.2 31.4 Q3.55 31.55 2.35 30.6 L0.5 29.0 Q0.0 27.55 0.0 25.75 0.0 22.95 1.15 20.95 2.15 19.35 3.45 19.1 L2.7 17.05 Q2.0 14.15 2.0 10.0 2.0 5.85 2.7 2.9 3.45 0.0 4.5 0.0 5.55 0.0 6.25 2.9" fill="#4aa613" fill-rule="evenodd" stroke="none"/>
    </g>
  </defs>
</svg>
