<?xml version="1.0" encoding="UTF-8" standalone="no"?>
<svg xmlns:ffdec="https://www.free-decompiler.com/flash" xmlns:xlink="http://www.w3.org/1999/xlink" ffdec:objectType="frame" height="178.85px" width="173.05px" xmlns="http://www.w3.org/2000/svg">
  <g transform="matrix(1.0, 0.0, 0.0, 1.0, 21.65, 6.95)">
    <filter id="filter0">
      <feColorMatrix in="SourceGraphic" result="filterResult0" type="matrix" values="0.21094832 -0.16069257 0.9497442 0.0 0.0 0.29599896 0.923993 -0.21999197 0.0 0.0 -0.6023121 1.2205814 0.38173065 0.0 0.0 0.0 0.0 0.0 1.0 0.0"/>
    </filter>
    <use ffdec:characterId="811" filter="url(#filter0)" height="120.7" transform="matrix(1.2462, 0.0, 0.0, 1.2462, -5.2239, 4.7822)" width="120.7" xlink:href="#sprite0"/>
    <use ffdec:characterId="813" height="38.2" transform="matrix(0.6039, 0.0, 0.0, 1.0934, 112.0, 3.6)" width="27.95" xlink:href="#sprite18"/>
    <use ffdec:characterId="813" height="38.2" transform="matrix(0.4173, -0.1118, 0.2024, 0.7554, 94.15, 33.25)" width="27.95" xlink:href="#sprite18"/>
    <use ffdec:characterId="813" height="38.2" transform="matrix(0.3044, -0.0815, 0.1476, 0.5511, 131.7, 16.8)" width="27.95" xlink:href="#sprite18"/>
    <use ffdec:characterId="820" height="326.3" transform="matrix(-0.5456, 0.0026, 0.0026, 0.5456, 150.4884, -6.9442)" width="315.5" xlink:href="#sprite19"/>
    <use ffdec:characterId="96" height="18.0" transform="matrix(1.495, 0.0, 0.0, 8.3556, 1.0, 1.45)" width="100.6" xlink:href="#shape45"/>
  </g>
  <defs>
    <g id="sprite0" transform="matrix(1.0, 0.0, 0.0, 1.0, 0.3, 1.9)">
      <use ffdec:characterId="809" height="120.7" transform="matrix(1.0, 0.0, 0.0, 1.0, -0.3, -1.9)" width="120.7" xlink:href="#shape0"/>
      <use ffdec:characterId="810" height="13.5" transform="matrix(1.0, 0.0, 0.0, 1.0, 13.35, 11.65)" width="13.5" xlink:href="#sprite1"/>
      <use ffdec:characterId="810" height="13.5" transform="matrix(1.0, 0.0, 0.0, 1.0, 53.35, 11.65)" width="13.5" xlink:href="#sprite1"/>
      <use ffdec:characterId="810" height="13.5" transform="matrix(1.0, 0.0, 0.0, 1.0, 13.35, 51.65)" width="13.5" xlink:href="#sprite1"/>
      <use ffdec:characterId="810" height="13.5" transform="matrix(1.0, 0.0, 0.0, 1.0, 53.35, 51.65)" width="13.5" xlink:href="#sprite1"/>
      <use ffdec:characterId="810" height="13.5" transform="matrix(1.0, 0.0, 0.0, 1.0, 13.35, 91.75)" width="13.5" xlink:href="#sprite1"/>
      <use ffdec:characterId="810" height="13.5" transform="matrix(1.0, 0.0, 0.0, 1.0, 53.35, 91.75)" width="13.5" xlink:href="#sprite1"/>
      <use ffdec:characterId="810" height="13.5" transform="matrix(1.0, 0.0, 0.0, 1.0, 93.45, 11.65)" width="13.5" xlink:href="#sprite1"/>
      <use ffdec:characterId="810" height="13.5" transform="matrix(1.0, 0.0, 0.0, 1.0, 93.45, 51.65)" width="13.5" xlink:href="#sprite1"/>
      <use ffdec:characterId="810" height="13.5" transform="matrix(1.0, 0.0, 0.0, 1.0, 93.45, 91.75)" width="13.5" xlink:href="#sprite1"/>
      <use ffdec:characterId="810" height="13.5" transform="matrix(0.6825, 0.0, 0.0, 0.6825, 35.4016, 13.5016)" width="13.5" xlink:href="#sprite2"/>
      <use ffdec:characterId="810" height="13.5" transform="matrix(0.6825, 0.0, 0.0, 0.6825, 75.2516, 13.5516)" width="13.5" xlink:href="#sprite3"/>
      <use ffdec:characterId="810" height="13.5" transform="matrix(0.6825, 0.0, 0.0, 0.6825, 35.2516, 93.6516)" width="13.5" xlink:href="#sprite4"/>
      <use ffdec:characterId="810" height="13.5" transform="matrix(0.6825, 0.0, 0.0, 0.6825, 75.3016, 93.4016)" width="13.5" xlink:href="#sprite5"/>
      <use ffdec:characterId="810" height="13.5" transform="matrix(0.6825, 0.0, 0.0, 0.6825, 35.4516, 53.6516)" width="13.5" xlink:href="#sprite6"/>
      <use ffdec:characterId="810" height="13.5" transform="matrix(0.6825, 0.0, 0.0, 0.6825, 75.7516, 53.6516)" width="13.5" xlink:href="#sprite7"/>
      <use ffdec:characterId="810" height="13.5" transform="matrix(0.6825, 0.0, 0.0, 0.6825, 75.7516, 33.6516)" width="13.5" xlink:href="#sprite8"/>
      <use ffdec:characterId="810" height="13.5" transform="matrix(0.6825, 0.0, 0.0, 0.6825, 55.7516, 33.6516)" width="13.5" xlink:href="#sprite9"/>
      <use ffdec:characterId="810" height="13.5" transform="matrix(0.6825, 0.0, 0.0, 0.6825, 35.5516, 33.6516)" width="13.5" xlink:href="#sprite10"/>
      <use ffdec:characterId="810" height="13.5" transform="matrix(0.6825, 0.0, 0.0, 0.6825, 95.5516, 33.6516)" width="13.5" xlink:href="#sprite11"/>
      <use ffdec:characterId="810" height="13.5" transform="matrix(0.6825, 0.0, 0.0, 0.6825, 35.6516, 73.8016)" width="13.5" xlink:href="#sprite12"/>
      <use ffdec:characterId="810" height="13.5" transform="matrix(0.6825, 0.0, 0.0, 0.6825, 15.5516, 73.8016)" width="13.5" xlink:href="#sprite13"/>
      <use ffdec:characterId="810" height="13.5" transform="matrix(0.6825, 0.0, 0.0, 0.6825, 75.5516, 73.8016)" width="13.5" xlink:href="#sprite14"/>
      <use ffdec:characterId="810" height="13.5" transform="matrix(0.6825, 0.0, 0.0, 0.6825, 55.4516, 73.8016)" width="13.5" xlink:href="#sprite15"/>
      <use ffdec:characterId="810" height="13.5" transform="matrix(0.6825, 0.0, 0.0, 0.6825, 95.4016, 73.8016)" width="13.5" xlink:href="#sprite16"/>
      <use ffdec:characterId="810" height="13.5" transform="matrix(0.6825, 0.0, 0.0, 0.6825, 15.4516, 33.6516)" width="13.5" xlink:href="#sprite17"/>
    </g>
    <g id="shape0" transform="matrix(1.0, 0.0, 0.0, 1.0, 0.3, 1.9)">
      <path d="M117.9 36.55 L117.9 20.6 101.95 20.6 101.95 36.55 117.9 36.55 M117.8 16.6 L117.8 0.65 101.85 0.65 101.85 16.6 117.8 16.6 M119.8 18.6 L119.9 18.6 119.9 58.4 20.2 58.4 20.2 58.45 119.85 58.45 119.85 78.4 119.95 78.4 119.95 118.2 20.25 118.2 20.25 118.25 0.3 118.25 0.3 78.45 0.2 78.45 0.2 58.5 20.15 58.5 20.15 58.45 0.25 58.45 0.25 18.65 0.15 18.65 0.15 -1.3 20.1 -1.3 20.1 -1.35 39.9 -1.35 39.75 -1.2 39.75 -1.05 40.0 -1.3 40.0 -1.35 119.8 -1.35 119.8 18.6 M97.95 36.55 L97.95 20.6 82.0 20.6 82.0 36.55 97.85 36.55 99.85 38.55 99.95 38.55 97.95 36.55 M102.0 100.25 L102.0 116.2 117.95 116.2 117.95 100.25 102.0 100.25 M82.05 116.2 L98.0 116.2 98.0 100.25 82.05 100.25 82.05 116.2 M2.3 116.25 L18.25 116.25 18.25 100.3 2.3 100.3 2.3 116.25 M22.25 100.25 L22.25 116.2 38.2 116.2 38.2 100.25 22.25 100.25 M62.1 100.25 L62.1 116.2 78.05 116.2 78.05 100.25 62.1 100.25 M42.15 116.2 L58.1 116.2 58.1 100.25 42.15 100.25 42.15 116.2 M78.05 80.4 L62.1 80.4 62.1 96.35 78.05 96.35 78.05 80.4 M58.1 80.4 L42.15 80.4 42.15 96.35 58.1 96.35 58.1 80.4 M58.0 60.45 L42.05 60.45 42.05 76.4 58.0 76.4 58.0 60.45 M77.95 60.45 L62.0 60.45 62.0 76.4 77.95 76.4 77.95 60.45 M38.2 80.4 L22.25 80.4 22.25 96.35 38.2 96.35 38.2 80.4 M20.25 78.45 L20.25 78.4 20.15 78.4 20.15 78.45 20.25 78.45 M18.25 80.45 L2.3 80.45 2.3 96.4 18.25 96.4 18.25 80.45 M18.15 60.5 L2.2 60.5 2.2 76.45 18.15 76.45 18.15 60.5 M38.1 60.45 L22.15 60.45 22.15 76.4 38.1 76.4 38.1 60.45 M38.15 40.45 L22.2 40.45 22.2 56.4 38.15 56.4 38.15 40.45 M18.2 40.5 L2.25 40.5 2.25 56.45 18.2 56.45 18.2 40.5 M18.1 16.65 L18.1 0.7 2.15 0.7 2.15 16.65 18.1 16.65 M18.2 36.6 L18.2 20.65 2.25 20.65 2.25 36.6 18.2 36.6 M20.2 18.6 L20.1 18.6 20.1 18.65 20.2 18.65 20.2 18.6 M38.15 20.6 L22.2 20.6 22.2 36.55 38.15 36.55 38.15 20.6 M22.1 16.6 L38.05 16.6 38.05 0.65 22.1 0.65 22.1 16.6 M78.0 40.45 L62.05 40.45 62.05 56.4 78.0 56.4 78.0 40.45 M58.05 40.45 L42.1 40.45 42.1 56.4 58.05 56.4 58.05 40.45 M58.05 36.55 L58.05 20.6 42.1 20.6 42.1 36.55 58.05 36.55 M42.0 0.65 L42.0 16.6 57.95 16.6 57.95 0.65 42.0 0.65 M61.95 16.6 L77.9 16.6 77.9 0.65 61.95 0.65 61.95 16.6 M78.0 20.6 L62.05 20.6 62.05 36.55 78.0 36.55 78.0 20.6 M102.0 80.4 L102.0 96.35 117.95 96.35 117.95 80.4 102.0 80.4 M98.0 80.4 L82.05 80.4 82.05 96.35 98.0 96.35 98.0 80.4 M97.9 60.45 L81.95 60.45 81.95 76.4 97.9 76.4 97.9 60.45 M101.9 60.45 L101.9 76.4 117.85 76.4 117.85 60.45 101.9 60.45 M101.95 40.45 L101.95 56.4 117.9 56.4 117.9 40.45 101.95 40.45 M97.95 40.45 L82.0 40.45 82.0 56.4 97.95 56.4 97.95 40.45 M97.85 16.6 L97.85 0.65 81.9 0.65 81.9 16.6 97.85 16.6" fill="url(#gradient0)" fill-rule="evenodd" stroke="none"/>
      <path d="M99.9 98.7 L80.3 98.7 80.3 118.3 99.9 118.3 99.9 98.7 M59.8 38.7 L40.3 38.7 40.3 58.2 59.8 58.2 59.8 38.7 M59.8 98.7 L40.3 98.7 40.3 118.3 59.8 118.3 59.8 98.7 M79.8 78.2 L79.8 58.7 60.3 58.7 60.3 78.2 79.8 78.2 M60.3 98.7 L60.3 118.3 79.8 118.3 79.8 98.7 60.3 98.7 M60.3 98.2 L79.8 98.2 79.8 78.7 60.3 78.7 60.3 98.2 M59.8 58.7 L40.3 58.7 40.3 78.2 59.8 78.2 59.8 58.7 M39.8 98.2 L39.8 78.7 20.3 78.7 20.3 98.2 39.8 98.2 M39.8 118.3 L39.8 98.7 20.3 98.7 20.3 118.3 39.8 118.3 M59.8 78.7 L40.3 78.7 40.3 98.2 59.8 98.2 59.8 78.7 M19.8 78.7 L0.2 78.7 0.2 98.2 19.8 98.2 19.8 78.7 M0.2 118.3 L19.8 118.3 19.8 98.7 0.2 98.7 0.2 118.3 M19.8 78.2 L19.8 58.7 0.2 58.7 0.2 78.2 19.8 78.2 M39.8 78.2 L39.8 58.7 20.3 58.7 20.3 78.2 39.8 78.2 M39.8 58.2 L39.8 38.7 20.3 38.7 20.3 58.2 39.8 58.2 M19.8 38.7 L0.2 38.7 0.2 58.2 19.8 58.2 19.8 38.7 M0.2 38.2 L19.8 38.2 19.8 18.6 0.2 18.6 0.2 38.2 M39.8 38.2 L39.8 18.6 20.3 18.6 20.3 38.2 39.8 38.2 M79.8 38.7 L60.3 38.7 60.3 58.2 79.8 58.2 79.8 38.7 M60.3 18.6 L60.3 38.2 79.8 38.2 79.8 18.6 60.3 18.6 M40.3 18.6 L40.3 38.2 59.8 38.2 59.8 18.6 40.3 18.6 M99.9 38.7 L80.3 38.7 80.3 58.2 99.9 58.2 99.9 38.7 M100.4 58.7 L100.4 78.2 119.9 78.2 119.9 58.7 100.4 58.7 M99.9 58.7 L80.3 58.7 80.3 78.2 99.9 78.2 99.9 58.7 M100.4 98.7 L100.4 118.3 119.9 118.3 119.9 98.7 100.4 98.7 M100.4 78.7 L100.4 98.2 119.9 98.2 119.9 78.7 100.4 78.7 M99.9 78.7 L80.3 78.7 80.3 98.2 99.9 98.2 99.9 78.7 M119.9 38.7 L100.4 38.7 100.4 58.2 119.9 58.2 119.9 38.7 M119.9 38.2 L119.9 18.6 100.4 18.6 100.4 38.2 119.9 38.2 M80.3 18.6 L80.3 38.2 99.9 38.2 99.9 18.6 80.3 18.6 M99.9 18.1 L99.9 -1.4 80.3 -1.4 80.3 18.1 99.9 18.1 M119.9 18.1 L119.9 -1.4 100.4 -1.4 100.4 18.1 119.9 18.1 M120.15 -1.9 L120.35 -1.8 120.4 -1.65 120.4 118.55 120.35 118.75 120.15 118.8 -0.05 118.8 -0.2 118.75 -0.3 118.55 -0.3 -1.65 -0.2 -1.8 -0.05 -1.9 120.15 -1.9 M59.8 18.1 L59.8 -1.4 40.3 -1.4 40.3 18.1 59.8 18.1 M60.3 -1.4 L60.3 18.1 79.8 18.1 79.8 -1.4 60.3 -1.4 M39.8 18.1 L39.8 -1.4 20.3 -1.4 20.3 18.1 39.8 18.1 M19.8 18.1 L19.8 -1.4 0.2 -1.4 0.2 18.1 19.8 18.1" fill="url(#gradient1)" fill-rule="evenodd" stroke="none"/>
    </g>
    <radialGradient cx="0" cy="0" gradientTransform="matrix(0.0719, 0.0, 0.0, 0.0719, 59.95, 58.0)" gradientUnits="userSpaceOnUse" id="gradient0" r="819.2" spreadMethod="pad">
      <stop offset="0.0" stop-color="#0067db"/>
      <stop offset="1.0" stop-color="#0067db" stop-opacity="0.0"/>
    </radialGradient>
    <radialGradient cx="0" cy="0" gradientTransform="matrix(0.073, 0.0, 0.0, 0.073, 60.05, 58.45)" gradientUnits="userSpaceOnUse" id="gradient1" r="819.2" spreadMethod="pad">
      <stop offset="0.0" stop-color="#33c0ff"/>
      <stop offset="1.0" stop-color="#33c0ff" stop-opacity="0.0"/>
    </radialGradient>
    <g id="sprite1" transform="matrix(1.0, 0.0, 0.0, 1.0, 4.1, 4.1)">
      <use ffdec:characterId="381" height="13.5" transform="matrix(1.0, 0.0, 0.0, 1.0, -4.1, -4.1)" width="13.5" xlink:href="#shape1"/>
    </g>
    <g id="shape1" transform="matrix(1.0, 0.0, 0.0, 1.0, 4.1, 4.1)">
      <path d="M2.6 2.7 L8.9 2.7" fill="none" stroke="url(#gradient2)" stroke-linecap="round" stroke-linejoin="round" stroke-width="1.0"/>
      <path d="M2.6 2.7 L2.6 8.9 M2.6 -3.6 L2.6 2.7 -3.6 2.7" fill="none" stroke="url(#gradient3)" stroke-linecap="round" stroke-linejoin="round" stroke-width="1.0"/>
    </g>
    <radialGradient cx="0" cy="0" fx="3.2" fy="0" gradientTransform="matrix(0.0082, 0.0, 0.0, 0.0082, 2.65, 2.65)" gradientUnits="userSpaceOnUse" id="gradient2" r="819.2" spreadMethod="pad">
      <stop offset="0.0" stop-color="#72e2ff"/>
      <stop offset="1.0" stop-color="#72e2ff" stop-opacity="0.0"/>
    </radialGradient>
    <radialGradient cx="0" cy="0" fx="3.2" fy="0" gradientTransform="matrix(0.0082, 0.0, 0.0, 0.0082, 2.65, 2.65)" gradientUnits="userSpaceOnUse" id="gradient3" r="819.2" spreadMethod="pad">
      <stop offset="0.0" stop-color="#72e2ff"/>
      <stop offset="1.0" stop-color="#72e2ff" stop-opacity="0.0"/>
    </radialGradient>
    <g id="sprite2" transform="matrix(1.0, 0.0, 0.0, 1.0, 4.1, 4.1)">
      <use ffdec:characterId="381" height="13.5" transform="matrix(1.0, 0.0, 0.0, 1.0, -4.1, -4.1)" width="13.5" xlink:href="#shape2"/>
    </g>
    <g id="shape2" transform="matrix(1.0, 0.0, 0.0, 1.0, 4.1, 4.1)">
      <path d="M2.6 2.7 L8.9 2.7" ffdec:has-small-stroke="true" ffdec:original-stroke-width="1.0" fill="none" stroke="url(#gradient4)" stroke-linecap="round" stroke-linejoin="round" stroke-width="1.1756644353939654"/>
      <path d="M2.6 2.7 L2.6 8.9 M2.6 -3.6 L2.6 2.7 -3.6 2.7" ffdec:has-small-stroke="true" ffdec:original-stroke-width="1.0" fill="none" stroke="url(#gradient5)" stroke-linecap="round" stroke-linejoin="round" stroke-width="1.1756644353939654"/>
    </g>
    <radialGradient cx="0" cy="0" fx="3.2" fy="0" gradientTransform="matrix(0.0082, 0.0, 0.0, 0.0082, 2.65, 2.65)" gradientUnits="userSpaceOnUse" id="gradient4" r="819.2" spreadMethod="pad">
      <stop offset="0.0" stop-color="#72e2ff"/>
      <stop offset="1.0" stop-color="#72e2ff" stop-opacity="0.0"/>
    </radialGradient>
    <radialGradient cx="0" cy="0" fx="3.2" fy="0" gradientTransform="matrix(0.0082, 0.0, 0.0, 0.0082, 2.65, 2.65)" gradientUnits="userSpaceOnUse" id="gradient5" r="819.2" spreadMethod="pad">
      <stop offset="0.0" stop-color="#72e2ff"/>
      <stop offset="1.0" stop-color="#72e2ff" stop-opacity="0.0"/>
    </radialGradient>
    <g id="sprite3" transform="matrix(1.0, 0.0, 0.0, 1.0, 4.1, 4.1)">
      <use ffdec:characterId="381" height="13.5" transform="matrix(1.0, 0.0, 0.0, 1.0, -4.1, -4.1)" width="13.5" xlink:href="#shape3"/>
    </g>
    <g id="shape3" transform="matrix(1.0, 0.0, 0.0, 1.0, 4.1, 4.1)">
      <path d="M2.6 2.7 L8.9 2.7" ffdec:has-small-stroke="true" ffdec:original-stroke-width="1.0" fill="none" stroke="url(#gradient6)" stroke-linecap="round" stroke-linejoin="round" stroke-width="1.1756644353939654"/>
      <path d="M2.6 2.7 L2.6 8.9 M2.6 -3.6 L2.6 2.7 -3.6 2.7" ffdec:has-small-stroke="true" ffdec:original-stroke-width="1.0" fill="none" stroke="url(#gradient7)" stroke-linecap="round" stroke-linejoin="round" stroke-width="1.1756644353939654"/>
    </g>
    <radialGradient cx="0" cy="0" fx="3.2" fy="0" gradientTransform="matrix(0.0082, 0.0, 0.0, 0.0082, 2.65, 2.65)" gradientUnits="userSpaceOnUse" id="gradient6" r="819.2" spreadMethod="pad">
      <stop offset="0.0" stop-color="#72e2ff"/>
      <stop offset="1.0" stop-color="#72e2ff" stop-opacity="0.0"/>
    </radialGradient>
    <radialGradient cx="0" cy="0" fx="3.2" fy="0" gradientTransform="matrix(0.0082, 0.0, 0.0, 0.0082, 2.65, 2.65)" gradientUnits="userSpaceOnUse" id="gradient7" r="819.2" spreadMethod="pad">
      <stop offset="0.0" stop-color="#72e2ff"/>
      <stop offset="1.0" stop-color="#72e2ff" stop-opacity="0.0"/>
    </radialGradient>
    <g id="sprite4" transform="matrix(1.0, 0.0, 0.0, 1.0, 4.1, 4.1)">
      <use ffdec:characterId="381" height="13.5" transform="matrix(1.0, 0.0, 0.0, 1.0, -4.1, -4.1)" width="13.5" xlink:href="#shape4"/>
    </g>
    <g id="shape4" transform="matrix(1.0, 0.0, 0.0, 1.0, 4.1, 4.1)">
      <path d="M2.6 2.7 L8.9 2.7" ffdec:has-small-stroke="true" ffdec:original-stroke-width="1.0" fill="none" stroke="url(#gradient8)" stroke-linecap="round" stroke-linejoin="round" stroke-width="1.1756644353939654"/>
      <path d="M2.6 2.7 L2.6 8.9 M2.6 -3.6 L2.6 2.7 -3.6 2.7" ffdec:has-small-stroke="true" ffdec:original-stroke-width="1.0" fill="none" stroke="url(#gradient9)" stroke-linecap="round" stroke-linejoin="round" stroke-width="1.1756644353939654"/>
    </g>
    <radialGradient cx="0" cy="0" fx="3.2" fy="0" gradientTransform="matrix(0.0082, 0.0, 0.0, 0.0082, 2.65, 2.65)" gradientUnits="userSpaceOnUse" id="gradient8" r="819.2" spreadMethod="pad">
      <stop offset="0.0" stop-color="#72e2ff"/>
      <stop offset="1.0" stop-color="#72e2ff" stop-opacity="0.0"/>
    </radialGradient>
    <radialGradient cx="0" cy="0" fx="3.2" fy="0" gradientTransform="matrix(0.0082, 0.0, 0.0, 0.0082, 2.65, 2.65)" gradientUnits="userSpaceOnUse" id="gradient9" r="819.2" spreadMethod="pad">
      <stop offset="0.0" stop-color="#72e2ff"/>
      <stop offset="1.0" stop-color="#72e2ff" stop-opacity="0.0"/>
    </radialGradient>
    <g id="sprite5" transform="matrix(1.0, 0.0, 0.0, 1.0, 4.1, 4.1)">
      <use ffdec:characterId="381" height="13.5" transform="matrix(1.0, 0.0, 0.0, 1.0, -4.1, -4.1)" width="13.5" xlink:href="#shape5"/>
    </g>
    <g id="shape5" transform="matrix(1.0, 0.0, 0.0, 1.0, 4.1, 4.1)">
      <path d="M2.6 2.7 L8.9 2.7" ffdec:has-small-stroke="true" ffdec:original-stroke-width="1.0" fill="none" stroke="url(#gradient10)" stroke-linecap="round" stroke-linejoin="round" stroke-width="1.1756644353939654"/>
      <path d="M2.6 2.7 L2.6 8.9 M2.6 -3.6 L2.6 2.7 -3.6 2.7" ffdec:has-small-stroke="true" ffdec:original-stroke-width="1.0" fill="none" stroke="url(#gradient11)" stroke-linecap="round" stroke-linejoin="round" stroke-width="1.1756644353939654"/>
    </g>
    <radialGradient cx="0" cy="0" fx="3.2" fy="0" gradientTransform="matrix(0.0082, 0.0, 0.0, 0.0082, 2.65, 2.65)" gradientUnits="userSpaceOnUse" id="gradient10" r="819.2" spreadMethod="pad">
      <stop offset="0.0" stop-color="#72e2ff"/>
      <stop offset="1.0" stop-color="#72e2ff" stop-opacity="0.0"/>
    </radialGradient>
    <radialGradient cx="0" cy="0" fx="3.2" fy="0" gradientTransform="matrix(0.0082, 0.0, 0.0, 0.0082, 2.65, 2.65)" gradientUnits="userSpaceOnUse" id="gradient11" r="819.2" spreadMethod="pad">
      <stop offset="0.0" stop-color="#72e2ff"/>
      <stop offset="1.0" stop-color="#72e2ff" stop-opacity="0.0"/>
    </radialGradient>
    <g id="sprite6" transform="matrix(1.0, 0.0, 0.0, 1.0, 4.1, 4.1)">
      <use ffdec:characterId="381" height="13.5" transform="matrix(1.0, 0.0, 0.0, 1.0, -4.1, -4.1)" width="13.5" xlink:href="#shape6"/>
    </g>
    <g id="shape6" transform="matrix(1.0, 0.0, 0.0, 1.0, 4.1, 4.1)">
      <path d="M2.6 2.7 L8.9 2.7" ffdec:has-small-stroke="true" ffdec:original-stroke-width="1.0" fill="none" stroke="url(#gradient12)" stroke-linecap="round" stroke-linejoin="round" stroke-width="1.1756644353939654"/>
      <path d="M2.6 2.7 L2.6 8.9 M2.6 -3.6 L2.6 2.7 -3.6 2.7" ffdec:has-small-stroke="true" ffdec:original-stroke-width="1.0" fill="none" stroke="url(#gradient13)" stroke-linecap="round" stroke-linejoin="round" stroke-width="1.1756644353939654"/>
    </g>
    <radialGradient cx="0" cy="0" fx="3.2" fy="0" gradientTransform="matrix(0.0082, 0.0, 0.0, 0.0082, 2.65, 2.65)" gradientUnits="userSpaceOnUse" id="gradient12" r="819.2" spreadMethod="pad">
      <stop offset="0.0" stop-color="#72e2ff"/>
      <stop offset="1.0" stop-color="#72e2ff" stop-opacity="0.0"/>
    </radialGradient>
    <radialGradient cx="0" cy="0" fx="3.2" fy="0" gradientTransform="matrix(0.0082, 0.0, 0.0, 0.0082, 2.65, 2.65)" gradientUnits="userSpaceOnUse" id="gradient13" r="819.2" spreadMethod="pad">
      <stop offset="0.0" stop-color="#72e2ff"/>
      <stop offset="1.0" stop-color="#72e2ff" stop-opacity="0.0"/>
    </radialGradient>
    <g id="sprite7" transform="matrix(1.0, 0.0, 0.0, 1.0, 4.1, 4.1)">
      <use ffdec:characterId="381" height="13.5" transform="matrix(1.0, 0.0, 0.0, 1.0, -4.1, -4.1)" width="13.5" xlink:href="#shape7"/>
    </g>
    <g id="shape7" transform="matrix(1.0, 0.0, 0.0, 1.0, 4.1, 4.1)">
      <path d="M2.6 2.7 L8.9 2.7" ffdec:has-small-stroke="true" ffdec:original-stroke-width="1.0" fill="none" stroke="url(#gradient14)" stroke-linecap="round" stroke-linejoin="round" stroke-width="1.1756644353939654"/>
      <path d="M2.6 2.7 L2.6 8.9 M2.6 -3.6 L2.6 2.7 -3.6 2.7" ffdec:has-small-stroke="true" ffdec:original-stroke-width="1.0" fill="none" stroke="url(#gradient15)" stroke-linecap="round" stroke-linejoin="round" stroke-width="1.1756644353939654"/>
    </g>
    <radialGradient cx="0" cy="0" fx="3.2" fy="0" gradientTransform="matrix(0.0082, 0.0, 0.0, 0.0082, 2.65, 2.65)" gradientUnits="userSpaceOnUse" id="gradient14" r="819.2" spreadMethod="pad">
      <stop offset="0.0" stop-color="#72e2ff"/>
      <stop offset="1.0" stop-color="#72e2ff" stop-opacity="0.0"/>
    </radialGradient>
    <radialGradient cx="0" cy="0" fx="3.2" fy="0" gradientTransform="matrix(0.0082, 0.0, 0.0, 0.0082, 2.65, 2.65)" gradientUnits="userSpaceOnUse" id="gradient15" r="819.2" spreadMethod="pad">
      <stop offset="0.0" stop-color="#72e2ff"/>
      <stop offset="1.0" stop-color="#72e2ff" stop-opacity="0.0"/>
    </radialGradient>
    <g id="sprite8" transform="matrix(1.0, 0.0, 0.0, 1.0, 4.1, 4.1)">
      <use ffdec:characterId="381" height="13.5" transform="matrix(1.0, 0.0, 0.0, 1.0, -4.1, -4.1)" width="13.5" xlink:href="#shape8"/>
    </g>
    <g id="shape8" transform="matrix(1.0, 0.0, 0.0, 1.0, 4.1, 4.1)">
      <path d="M2.6 2.7 L8.9 2.7" ffdec:has-small-stroke="true" ffdec:original-stroke-width="1.0" fill="none" stroke="url(#gradient16)" stroke-linecap="round" stroke-linejoin="round" stroke-width="1.1756644353939654"/>
      <path d="M2.6 2.7 L2.6 8.9 M2.6 -3.6 L2.6 2.7 -3.6 2.7" ffdec:has-small-stroke="true" ffdec:original-stroke-width="1.0" fill="none" stroke="url(#gradient17)" stroke-linecap="round" stroke-linejoin="round" stroke-width="1.1756644353939654"/>
    </g>
    <radialGradient cx="0" cy="0" fx="3.2" fy="0" gradientTransform="matrix(0.0082, 0.0, 0.0, 0.0082, 2.65, 2.65)" gradientUnits="userSpaceOnUse" id="gradient16" r="819.2" spreadMethod="pad">
      <stop offset="0.0" stop-color="#72e2ff"/>
      <stop offset="1.0" stop-color="#72e2ff" stop-opacity="0.0"/>
    </radialGradient>
    <radialGradient cx="0" cy="0" fx="3.2" fy="0" gradientTransform="matrix(0.0082, 0.0, 0.0, 0.0082, 2.65, 2.65)" gradientUnits="userSpaceOnUse" id="gradient17" r="819.2" spreadMethod="pad">
      <stop offset="0.0" stop-color="#72e2ff"/>
      <stop offset="1.0" stop-color="#72e2ff" stop-opacity="0.0"/>
    </radialGradient>
    <g id="sprite9" transform="matrix(1.0, 0.0, 0.0, 1.0, 4.1, 4.1)">
      <use ffdec:characterId="381" height="13.5" transform="matrix(1.0, 0.0, 0.0, 1.0, -4.1, -4.1)" width="13.5" xlink:href="#shape9"/>
    </g>
    <g id="shape9" transform="matrix(1.0, 0.0, 0.0, 1.0, 4.1, 4.1)">
      <path d="M2.6 2.7 L8.9 2.7" ffdec:has-small-stroke="true" ffdec:original-stroke-width="1.0" fill="none" stroke="url(#gradient18)" stroke-linecap="round" stroke-linejoin="round" stroke-width="1.1756644353939654"/>
      <path d="M2.6 2.7 L2.6 8.9 M2.6 -3.6 L2.6 2.7 -3.6 2.7" ffdec:has-small-stroke="true" ffdec:original-stroke-width="1.0" fill="none" stroke="url(#gradient19)" stroke-linecap="round" stroke-linejoin="round" stroke-width="1.1756644353939654"/>
    </g>
    <radialGradient cx="0" cy="0" fx="3.2" fy="0" gradientTransform="matrix(0.0082, 0.0, 0.0, 0.0082, 2.65, 2.65)" gradientUnits="userSpaceOnUse" id="gradient18" r="819.2" spreadMethod="pad">
      <stop offset="0.0" stop-color="#72e2ff"/>
      <stop offset="1.0" stop-color="#72e2ff" stop-opacity="0.0"/>
    </radialGradient>
    <radialGradient cx="0" cy="0" fx="3.2" fy="0" gradientTransform="matrix(0.0082, 0.0, 0.0, 0.0082, 2.65, 2.65)" gradientUnits="userSpaceOnUse" id="gradient19" r="819.2" spreadMethod="pad">
      <stop offset="0.0" stop-color="#72e2ff"/>
      <stop offset="1.0" stop-color="#72e2ff" stop-opacity="0.0"/>
    </radialGradient>
    <g id="sprite10" transform="matrix(1.0, 0.0, 0.0, 1.0, 4.1, 4.1)">
      <use ffdec:characterId="381" height="13.5" transform="matrix(1.0, 0.0, 0.0, 1.0, -4.1, -4.1)" width="13.5" xlink:href="#shape10"/>
    </g>
    <g id="shape10" transform="matrix(1.0, 0.0, 0.0, 1.0, 4.1, 4.1)">
      <path d="M2.6 2.7 L8.9 2.7" ffdec:has-small-stroke="true" ffdec:original-stroke-width="1.0" fill="none" stroke="url(#gradient20)" stroke-linecap="round" stroke-linejoin="round" stroke-width="1.1756644353939654"/>
      <path d="M2.6 2.7 L2.6 8.9 M2.6 -3.6 L2.6 2.7 -3.6 2.7" ffdec:has-small-stroke="true" ffdec:original-stroke-width="1.0" fill="none" stroke="url(#gradient21)" stroke-linecap="round" stroke-linejoin="round" stroke-width="1.1756644353939654"/>
    </g>
    <radialGradient cx="0" cy="0" fx="3.2" fy="0" gradientTransform="matrix(0.0082, 0.0, 0.0, 0.0082, 2.65, 2.65)" gradientUnits="userSpaceOnUse" id="gradient20" r="819.2" spreadMethod="pad">
      <stop offset="0.0" stop-color="#72e2ff"/>
      <stop offset="1.0" stop-color="#72e2ff" stop-opacity="0.0"/>
    </radialGradient>
    <radialGradient cx="0" cy="0" fx="3.2" fy="0" gradientTransform="matrix(0.0082, 0.0, 0.0, 0.0082, 2.65, 2.65)" gradientUnits="userSpaceOnUse" id="gradient21" r="819.2" spreadMethod="pad">
      <stop offset="0.0" stop-color="#72e2ff"/>
      <stop offset="1.0" stop-color="#72e2ff" stop-opacity="0.0"/>
    </radialGradient>
    <g id="sprite11" transform="matrix(1.0, 0.0, 0.0, 1.0, 4.1, 4.1)">
      <use ffdec:characterId="381" height="13.5" transform="matrix(1.0, 0.0, 0.0, 1.0, -4.1, -4.1)" width="13.5" xlink:href="#shape11"/>
    </g>
    <g id="shape11" transform="matrix(1.0, 0.0, 0.0, 1.0, 4.1, 4.1)">
      <path d="M2.6 2.7 L8.9 2.7" ffdec:has-small-stroke="true" ffdec:original-stroke-width="1.0" fill="none" stroke="url(#gradient22)" stroke-linecap="round" stroke-linejoin="round" stroke-width="1.1756644353939654"/>
      <path d="M2.6 2.7 L2.6 8.9 M2.6 -3.6 L2.6 2.7 -3.6 2.7" ffdec:has-small-stroke="true" ffdec:original-stroke-width="1.0" fill="none" stroke="url(#gradient23)" stroke-linecap="round" stroke-linejoin="round" stroke-width="1.1756644353939654"/>
    </g>
    <radialGradient cx="0" cy="0" fx="3.2" fy="0" gradientTransform="matrix(0.0082, 0.0, 0.0, 0.0082, 2.65, 2.65)" gradientUnits="userSpaceOnUse" id="gradient22" r="819.2" spreadMethod="pad">
      <stop offset="0.0" stop-color="#72e2ff"/>
      <stop offset="1.0" stop-color="#72e2ff" stop-opacity="0.0"/>
    </radialGradient>
    <radialGradient cx="0" cy="0" fx="3.2" fy="0" gradientTransform="matrix(0.0082, 0.0, 0.0, 0.0082, 2.65, 2.65)" gradientUnits="userSpaceOnUse" id="gradient23" r="819.2" spreadMethod="pad">
      <stop offset="0.0" stop-color="#72e2ff"/>
      <stop offset="1.0" stop-color="#72e2ff" stop-opacity="0.0"/>
    </radialGradient>
    <g id="sprite12" transform="matrix(1.0, 0.0, 0.0, 1.0, 4.1, 4.1)">
      <use ffdec:characterId="381" height="13.5" transform="matrix(1.0, 0.0, 0.0, 1.0, -4.1, -4.1)" width="13.5" xlink:href="#shape12"/>
    </g>
    <g id="shape12" transform="matrix(1.0, 0.0, 0.0, 1.0, 4.1, 4.1)">
      <path d="M2.6 2.7 L8.9 2.7" ffdec:has-small-stroke="true" ffdec:original-stroke-width="1.0" fill="none" stroke="url(#gradient24)" stroke-linecap="round" stroke-linejoin="round" stroke-width="1.1756644353939654"/>
      <path d="M2.6 2.7 L2.6 8.9 M2.6 -3.6 L2.6 2.7 -3.6 2.7" ffdec:has-small-stroke="true" ffdec:original-stroke-width="1.0" fill="none" stroke="url(#gradient25)" stroke-linecap="round" stroke-linejoin="round" stroke-width="1.1756644353939654"/>
    </g>
    <radialGradient cx="0" cy="0" fx="3.2" fy="0" gradientTransform="matrix(0.0082, 0.0, 0.0, 0.0082, 2.65, 2.65)" gradientUnits="userSpaceOnUse" id="gradient24" r="819.2" spreadMethod="pad">
      <stop offset="0.0" stop-color="#72e2ff"/>
      <stop offset="1.0" stop-color="#72e2ff" stop-opacity="0.0"/>
    </radialGradient>
    <radialGradient cx="0" cy="0" fx="3.2" fy="0" gradientTransform="matrix(0.0082, 0.0, 0.0, 0.0082, 2.65, 2.65)" gradientUnits="userSpaceOnUse" id="gradient25" r="819.2" spreadMethod="pad">
      <stop offset="0.0" stop-color="#72e2ff"/>
      <stop offset="1.0" stop-color="#72e2ff" stop-opacity="0.0"/>
    </radialGradient>
    <g id="sprite13" transform="matrix(1.0, 0.0, 0.0, 1.0, 4.1, 4.1)">
      <use ffdec:characterId="381" height="13.5" transform="matrix(1.0, 0.0, 0.0, 1.0, -4.1, -4.1)" width="13.5" xlink:href="#shape13"/>
    </g>
    <g id="shape13" transform="matrix(1.0, 0.0, 0.0, 1.0, 4.1, 4.1)">
      <path d="M2.6 2.7 L8.9 2.7" ffdec:has-small-stroke="true" ffdec:original-stroke-width="1.0" fill="none" stroke="url(#gradient26)" stroke-linecap="round" stroke-linejoin="round" stroke-width="1.1756644353939654"/>
      <path d="M2.6 2.7 L2.6 8.9 M2.6 -3.6 L2.6 2.7 -3.6 2.7" ffdec:has-small-stroke="true" ffdec:original-stroke-width="1.0" fill="none" stroke="url(#gradient27)" stroke-linecap="round" stroke-linejoin="round" stroke-width="1.1756644353939654"/>
    </g>
    <radialGradient cx="0" cy="0" fx="3.2" fy="0" gradientTransform="matrix(0.0082, 0.0, 0.0, 0.0082, 2.65, 2.65)" gradientUnits="userSpaceOnUse" id="gradient26" r="819.2" spreadMethod="pad">
      <stop offset="0.0" stop-color="#72e2ff"/>
      <stop offset="1.0" stop-color="#72e2ff" stop-opacity="0.0"/>
    </radialGradient>
    <radialGradient cx="0" cy="0" fx="3.2" fy="0" gradientTransform="matrix(0.0082, 0.0, 0.0, 0.0082, 2.65, 2.65)" gradientUnits="userSpaceOnUse" id="gradient27" r="819.2" spreadMethod="pad">
      <stop offset="0.0" stop-color="#72e2ff"/>
      <stop offset="1.0" stop-color="#72e2ff" stop-opacity="0.0"/>
    </radialGradient>
    <g id="sprite14" transform="matrix(1.0, 0.0, 0.0, 1.0, 4.1, 4.1)">
      <use ffdec:characterId="381" height="13.5" transform="matrix(1.0, 0.0, 0.0, 1.0, -4.1, -4.1)" width="13.5" xlink:href="#shape14"/>
    </g>
    <g id="shape14" transform="matrix(1.0, 0.0, 0.0, 1.0, 4.1, 4.1)">
      <path d="M2.6 2.7 L8.9 2.7" ffdec:has-small-stroke="true" ffdec:original-stroke-width="1.0" fill="none" stroke="url(#gradient28)" stroke-linecap="round" stroke-linejoin="round" stroke-width="1.1756644353939654"/>
      <path d="M2.6 2.7 L2.6 8.9 M2.6 -3.6 L2.6 2.7 -3.6 2.7" ffdec:has-small-stroke="true" ffdec:original-stroke-width="1.0" fill="none" stroke="url(#gradient29)" stroke-linecap="round" stroke-linejoin="round" stroke-width="1.1756644353939654"/>
    </g>
    <radialGradient cx="0" cy="0" fx="3.2" fy="0" gradientTransform="matrix(0.0082, 0.0, 0.0, 0.0082, 2.65, 2.65)" gradientUnits="userSpaceOnUse" id="gradient28" r="819.2" spreadMethod="pad">
      <stop offset="0.0" stop-color="#72e2ff"/>
      <stop offset="1.0" stop-color="#72e2ff" stop-opacity="0.0"/>
    </radialGradient>
    <radialGradient cx="0" cy="0" fx="3.2" fy="0" gradientTransform="matrix(0.0082, 0.0, 0.0, 0.0082, 2.65, 2.65)" gradientUnits="userSpaceOnUse" id="gradient29" r="819.2" spreadMethod="pad">
      <stop offset="0.0" stop-color="#72e2ff"/>
      <stop offset="1.0" stop-color="#72e2ff" stop-opacity="0.0"/>
    </radialGradient>
    <g id="sprite15" transform="matrix(1.0, 0.0, 0.0, 1.0, 4.1, 4.1)">
      <use ffdec:characterId="381" height="13.5" transform="matrix(1.0, 0.0, 0.0, 1.0, -4.1, -4.1)" width="13.5" xlink:href="#shape15"/>
    </g>
    <g id="shape15" transform="matrix(1.0, 0.0, 0.0, 1.0, 4.1, 4.1)">
      <path d="M2.6 2.7 L8.9 2.7" ffdec:has-small-stroke="true" ffdec:original-stroke-width="1.0" fill="none" stroke="url(#gradient30)" stroke-linecap="round" stroke-linejoin="round" stroke-width="1.1756644353939654"/>
      <path d="M2.6 2.7 L2.6 8.9 M2.6 -3.6 L2.6 2.7 -3.6 2.7" ffdec:has-small-stroke="true" ffdec:original-stroke-width="1.0" fill="none" stroke="url(#gradient31)" stroke-linecap="round" stroke-linejoin="round" stroke-width="1.1756644353939654"/>
    </g>
    <radialGradient cx="0" cy="0" fx="3.2" fy="0" gradientTransform="matrix(0.0082, 0.0, 0.0, 0.0082, 2.65, 2.65)" gradientUnits="userSpaceOnUse" id="gradient30" r="819.2" spreadMethod="pad">
      <stop offset="0.0" stop-color="#72e2ff"/>
      <stop offset="1.0" stop-color="#72e2ff" stop-opacity="0.0"/>
    </radialGradient>
    <radialGradient cx="0" cy="0" fx="3.2" fy="0" gradientTransform="matrix(0.0082, 0.0, 0.0, 0.0082, 2.65, 2.65)" gradientUnits="userSpaceOnUse" id="gradient31" r="819.2" spreadMethod="pad">
      <stop offset="0.0" stop-color="#72e2ff"/>
      <stop offset="1.0" stop-color="#72e2ff" stop-opacity="0.0"/>
    </radialGradient>
    <g id="sprite16" transform="matrix(1.0, 0.0, 0.0, 1.0, 4.1, 4.1)">
      <use ffdec:characterId="381" height="13.5" transform="matrix(1.0, 0.0, 0.0, 1.0, -4.1, -4.1)" width="13.5" xlink:href="#shape16"/>
    </g>
    <g id="shape16" transform="matrix(1.0, 0.0, 0.0, 1.0, 4.1, 4.1)">
      <path d="M2.6 2.7 L8.9 2.7" ffdec:has-small-stroke="true" ffdec:original-stroke-width="1.0" fill="none" stroke="url(#gradient32)" stroke-linecap="round" stroke-linejoin="round" stroke-width="1.1756644353939654"/>
      <path d="M2.6 2.7 L2.6 8.9 M2.6 -3.6 L2.6 2.7 -3.6 2.7" ffdec:has-small-stroke="true" ffdec:original-stroke-width="1.0" fill="none" stroke="url(#gradient33)" stroke-linecap="round" stroke-linejoin="round" stroke-width="1.1756644353939654"/>
    </g>
    <radialGradient cx="0" cy="0" fx="3.2" fy="0" gradientTransform="matrix(0.0082, 0.0, 0.0, 0.0082, 2.65, 2.65)" gradientUnits="userSpaceOnUse" id="gradient32" r="819.2" spreadMethod="pad">
      <stop offset="0.0" stop-color="#72e2ff"/>
      <stop offset="1.0" stop-color="#72e2ff" stop-opacity="0.0"/>
    </radialGradient>
    <radialGradient cx="0" cy="0" fx="3.2" fy="0" gradientTransform="matrix(0.0082, 0.0, 0.0, 0.0082, 2.65, 2.65)" gradientUnits="userSpaceOnUse" id="gradient33" r="819.2" spreadMethod="pad">
      <stop offset="0.0" stop-color="#72e2ff"/>
      <stop offset="1.0" stop-color="#72e2ff" stop-opacity="0.0"/>
    </radialGradient>
    <g id="sprite17" transform="matrix(1.0, 0.0, 0.0, 1.0, 4.1, 4.1)">
      <use ffdec:characterId="381" height="13.5" transform="matrix(1.0, 0.0, 0.0, 1.0, -4.1, -4.1)" width="13.5" xlink:href="#shape17"/>
    </g>
    <g id="shape17" transform="matrix(1.0, 0.0, 0.0, 1.0, 4.1, 4.1)">
      <path d="M2.6 2.7 L8.9 2.7" ffdec:has-small-stroke="true" ffdec:original-stroke-width="1.0" fill="none" stroke="url(#gradient34)" stroke-linecap="round" stroke-linejoin="round" stroke-width="1.1756644353939654"/>
      <path d="M2.6 2.7 L2.6 8.9 M2.6 -3.6 L2.6 2.7 -3.6 2.7" ffdec:has-small-stroke="true" ffdec:original-stroke-width="1.0" fill="none" stroke="url(#gradient35)" stroke-linecap="round" stroke-linejoin="round" stroke-width="1.1756644353939654"/>
    </g>
    <radialGradient cx="0" cy="0" fx="3.2" fy="0" gradientTransform="matrix(0.0082, 0.0, 0.0, 0.0082, 2.65, 2.65)" gradientUnits="userSpaceOnUse" id="gradient34" r="819.2" spreadMethod="pad">
      <stop offset="0.0" stop-color="#72e2ff"/>
      <stop offset="1.0" stop-color="#72e2ff" stop-opacity="0.0"/>
    </radialGradient>
    <radialGradient cx="0" cy="0" fx="3.2" fy="0" gradientTransform="matrix(0.0082, 0.0, 0.0, 0.0082, 2.65, 2.65)" gradientUnits="userSpaceOnUse" id="gradient35" r="819.2" spreadMethod="pad">
      <stop offset="0.0" stop-color="#72e2ff"/>
      <stop offset="1.0" stop-color="#72e2ff" stop-opacity="0.0"/>
    </radialGradient>
    <g id="sprite18" transform="matrix(1.0, 0.0, 0.0, 1.0, 0.0, 0.0)">
      <use ffdec:characterId="812" height="38.2" transform="matrix(1.0, 0.0, 0.0, 1.0, 0.0, 0.0)" width="27.95" xlink:href="#shape18"/>
    </g>
    <g id="shape18" transform="matrix(1.0, 0.0, 0.0, 1.0, 0.0, 0.0)">
      <path d="M27.6 0.0 L27.55 10.55 15.0 27.9 26.95 27.35 27.95 38.2 0.45 38.05 0.0 28.35 13.8 11.25 2.2 11.85 0.65 0.0 Q13.35 0.6 27.6 0.0" fill="url(#gradient36)" fill-rule="evenodd" stroke="none"/>
    </g>
    <linearGradient gradientTransform="matrix(0.0, 0.0233, -0.0171, 0.0, 14.0, 19.1)" gradientUnits="userSpaceOnUse" id="gradient36" spreadMethod="pad" x1="-819.2" x2="819.2">
      <stop offset="0.0" stop-color="#ff452e"/>
      <stop offset="1.0" stop-color="#e00a0a"/>
    </linearGradient>
    <g id="sprite19" transform="matrix(1.0, 0.0, 0.0, 1.0, 70.7, 207.05)">
      <clipPath id="clipPath0">
        <path d="M 203.85 -194.3 L -70.7 -193.05 L -69.4 81.55 L 205.15 80.25 L 203.85 -194.3 Z"/>
      </clipPath>
      <g clip-path="url(#clipPath0)">
        <use ffdec:characterId="814" height="35.75" transform="matrix(0.7065, -0.6618, 0.3907, 0.4989, -17.9297, 81.119)" width="79.05" xlink:href="#shape19"/>
        <use ffdec:characterId="609" height="32.75" transform="matrix(0.536, -0.632, 0.399, 0.4282, -24.2481, 88.198)" width="33.2" xlink:href="#shape20"/>
        <use ffdec:characterId="814" height="35.75" transform="matrix(-0.6822, -0.683, -0.3423, 0.4319, 145.5937, 92.2175)" width="79.05" xlink:href="#shape19"/>
        <use ffdec:characterId="609" height="32.75" transform="matrix(-0.5228, -0.6398, -0.3529, 0.3649, 151.7522, 99.4057)" width="33.2" xlink:href="#shape21"/>
        <use ffdec:characterId="814" height="35.75" transform="matrix(0.3592, -0.6718, 0.6412, 0.3235, 0.581, 91.5614)" width="79.05" xlink:href="#shape19"/>
        <use ffdec:characterId="609" height="32.75" transform="matrix(0.2061, -0.614, 0.6133, 0.265, -2.0443, 98.48)" width="33.2" xlink:href="#shape22"/>
        <use ffdec:characterId="815" height="44.3" transform="matrix(-0.7242, 0.3433, 0.2471, 0.6236, 40.9053, 52.5734)" width="26.95" xlink:href="#shape23"/>
        <use ffdec:characterId="814" height="35.75" transform="matrix(0.3839, -0.6391, 0.5731, 0.3442, 28.4339, 52.982)" width="79.05" xlink:href="#shape24"/>
        <use ffdec:characterId="609" height="32.75" transform="matrix(0.237, -0.5897, 0.5514, 0.2859, 25.4723, 59.6533)" width="33.2" xlink:href="#shape25"/>
        <use ffdec:characterId="733" height="84.8" transform="matrix(1.0514, 0.0696, -0.0696, 1.0514, 22.8742, -9.7401)" width="98.7" xlink:href="#shape26"/>
        <use ffdec:characterId="814" height="35.75" transform="matrix(-0.3295, -0.6893, -0.6194, 0.2336, 129.8476, 106.3753)" width="79.05" xlink:href="#shape19"/>
        <use ffdec:characterId="609" height="32.75" transform="matrix(-0.1843, -0.6153, -0.5915, 0.1808, 132.2231, 113.3349)" width="33.2" xlink:href="#shape27"/>
        <use ffdec:characterId="815" height="44.3" transform="matrix(-0.6019, 0.5278, 0.3314, 0.4319, 86.2666, 74.1887)" width="26.95" xlink:href="#shape28"/>
        <use ffdec:characterId="814" height="35.75" transform="matrix(-0.0124, -0.7388, 0.6624, -0.0112, 77.3448, 85.3774)" width="79.05" xlink:href="#shape29"/>
        <use ffdec:characterId="609" height="32.75" transform="matrix(-0.11, -0.6202, 0.6136, -0.0488, 78.3851, 92.4958)" width="33.2" xlink:href="#shape30"/>
        <use ffdec:characterId="626" height="25.9" transform="matrix(-0.6304, -0.5427, -0.5736, 0.6663, 158.7685, -80.1271)" width="26.4" xlink:href="#shape31"/>
        <use ffdec:characterId="745" height="172.25" transform="matrix(-0.4962, -0.3639, -0.3334, 0.4794, 137.0081, -37.2078)" width="169.6" xlink:href="#shape32"/>
        <use ffdec:characterId="746" height="175.3" transform="matrix(-0.4962, -0.3639, -0.3334, 0.4794, 138.3272, -37.4246)" width="172.6" xlink:href="#shape33"/>
        <use ffdec:characterId="816" height="189.3" transform="matrix(0.6081, 0.3783, -0.3783, 0.6081, 84.856, -207.0678)" width="263.05" xlink:href="#shape34"/>
        <use ffdec:characterId="748" height="44.25" transform="matrix(0.739, 0.564, -0.528, 0.6918, 70.2982, -96.2334)" width="42.05" xlink:href="#shape35"/>
        <use ffdec:characterId="748" height="44.25" transform="matrix(0.8371, 0.6389, -0.6389, 0.8371, 93.239, -79.3668)" width="42.05" xlink:href="#shape35"/>
        <use ffdec:characterId="749" height="37.65" transform="matrix(0.8198, 0.6611, -0.6611, 0.8198, 70.6873, -106.0983)" width="38.9" xlink:href="#shape36"/>
        <use ffdec:characterId="750" height="28.85" transform="matrix(-0.5165, -0.1576, -0.1698, 0.5235, 81.6331, -82.8699)" width="28.8" xlink:href="#shape37"/>
        <use ffdec:characterId="817" height="67.15" transform="matrix(-0.466, -0.3777, -0.3807, 0.4698, 105.7303, -78.5314)" width="78.1" xlink:href="#shape38"/>
        <use ffdec:characterId="818" height="27.9" transform="matrix(0.3811, 0.3074, -0.3981, 0.4937, 43.6194, -26.8373)" width="32.95" xlink:href="#shape39"/>
        <use ffdec:characterId="819" height="69.3" transform="matrix(-0.398, -0.5365, -0.5365, 0.398, 87.6979, -55.4341)" width="88.9" xlink:href="#shape40"/>
        <use ffdec:characterId="753" height="65.5" transform="matrix(-0.5313, -0.4521, -0.4938, 0.5803, 134.4046, -59.052)" width="67.95" xlink:href="#shape41"/>
        <use ffdec:characterId="750" height="28.85" transform="matrix(-0.394, -0.1206, -0.1676, 0.4033, 112.3366, -60.4715)" width="28.8" xlink:href="#shape37"/>
        <use ffdec:characterId="817" height="67.15" transform="matrix(-0.5341, -0.4545, -0.4964, 0.5834, 138.1003, -57.2017)" width="78.1" xlink:href="#shape42"/>
        <use ffdec:characterId="754" height="152.15" transform="matrix(-0.398, -0.5365, -0.5365, 0.398, 33.966, -73.8839)" width="56.2" xlink:href="#shape43"/>
        <use ffdec:characterId="677" height="11.45" transform="matrix(-0.9159, 0.0723, 0.0758, 0.9599, 94.661, -112.2086)" width="28.7" xlink:href="#shape44"/>
        <use ffdec:characterId="677" height="11.45" transform="matrix(0.6232, 0.8479, -0.8479, 0.6232, 122.19, -90.0201)" width="28.7" xlink:href="#shape44"/>
      </g>
    </g>
    <g id="shape19" transform="matrix(1.0, 0.0, 0.0, 1.0, 3.2, 1.2)">
      <path d="M-0.65 3.9 L-0.7 3.8 -0.65 3.85 -0.65 3.9 M74.0 31.3 L74.2 31.4 73.3 33.0 Q70.6 34.3 68.5 33.55 L54.4 26.55 Q48.45 24.55 41.85 23.65 48.5 24.35 54.5 26.25 L68.75 33.05 Q70.8 33.75 73.45 32.35 L74.0 31.3 M3.3 21.05 L3.25 21.05 3.3 21.05" fill="#1f2f32" fill-rule="evenodd" stroke="none"/>
      <path d="M73.65 31.4 L54.15 21.25 Q48.5 18.65 43.15 16.65 L36.45 14.2 Q29.45 11.65 23.55 11.15 L8.7 9.8 Q2.35 9.7 -0.65 3.85 1.15 1.2 5.65 0.25 8.0 -0.1 11.55 0.15 22.6 0.85 38.9 7.45 47.35 10.95 55.3 15.25 62.5 19.05 69.35 23.6 72.9 25.9 74.0 27.75 75.0 29.15 74.3 30.75 L74.0 31.3 73.75 31.15 73.7 31.25 73.65 31.4" fill="#5b6e7d" fill-rule="evenodd" stroke="none"/>
      <path d="M-0.65 3.85 Q2.35 9.7 8.7 9.8 L23.55 11.15 Q29.45 11.65 36.45 14.2 L43.15 16.65 Q48.5 18.65 54.15 21.25 L73.65 31.4 73.7 31.25 73.75 31.15 74.0 31.3 73.45 32.35 Q70.8 33.75 68.75 33.05 L54.5 26.25 Q48.5 24.35 41.85 23.65 L32.65 23.15 17.6 24.2 Q16.8 24.35 15.95 24.7 8.75 25.1 5.3 22.75 L4.4 22.05 3.4 21.15 3.3 21.1 3.3 21.05 3.25 21.05 Q0.95 18.65 -0.45 15.0 L-0.5 14.8 -0.55 14.7 Q-3.25 7.65 -0.65 3.9 L-0.65 3.85" fill="#343541" fill-rule="evenodd" stroke="none"/>
      <path d="M-0.65 3.9 L-0.65 3.85 M41.85 23.65 L32.65 23.15 M3.3 21.05 L3.25 21.05 M-0.45 15.0 L-0.55 14.7" fill="none" stroke="#1f2f32" stroke-linecap="round" stroke-linejoin="round" stroke-width="2.5"/>
      <path d="M74.0 31.3 L74.3 30.75 Q75.0 29.15 74.0 27.75 72.9 25.9 69.35 23.6 62.5 19.05 55.3 15.25 47.35 10.95 38.9 7.45 22.6 0.85 11.55 0.15 8.0 -0.1 5.65 0.25 1.15 1.2 -0.65 3.85 M32.65 23.15 L17.65 24.55 15.95 24.7 Q8.75 25.1 5.3 22.75 L4.4 22.05 3.4 21.15 3.3 21.1 3.3 21.05 3.25 21.05 Q0.95 18.65 -0.45 15.0 M-0.55 14.7 Q-3.25 7.65 -0.65 3.9 M41.85 23.65 Q48.5 24.35 54.5 26.25 L68.75 33.05 Q70.8 33.75 73.45 32.35 L74.0 31.3" fill="none" stroke="#323232" stroke-linecap="round" stroke-linejoin="round" stroke-width="2.5"/>
    </g>
    <g id="shape20" transform="matrix(1.0, 0.0, 0.0, 1.0, 5.8, 11.25)">
      <path d="M1.7 -1.3 Q2.2 -5.2 6.25 -5.35 9.25 -4.75 9.9 -1.6 10.2 0.55 9.1 1.9 L10.2 2.5 Q11.25 3.2 11.1 4.5 L10.65 5.65 Q12.95 4.05 15.85 3.8 18.2 4.0 19.0 6.4 19.95 9.15 17.75 11.05 14.5 13.95 11.05 11.4 8.9 9.7 9.55 7.25 L9.75 6.6 7.3 6.5 Q6.55 6.25 6.25 5.35 5.85 4.55 5.9 3.95 L4.85 3.85 Q1.05 2.7 1.7 -1.3" fill="#5b6e7d" fill-rule="evenodd" stroke="none"/>
      <path d="M13.5 -4.7 Q13.9 -1.7 18.2 0.65 32.1 9.0 21.7 18.6 8.9 24.15 0.35 11.0 -8.25 -2.15 -1.75 -6.7 4.7 -11.3 8.9 -9.5 13.05 -7.75 13.5 -4.7 M1.7 -1.3 Q1.05 2.7 4.85 3.85 L5.9 3.95 Q5.85 4.55 6.25 5.35 6.55 6.25 7.3 6.5 L9.75 6.6 9.55 7.25 Q8.9 9.7 11.05 11.4 14.5 13.95 17.75 11.05 19.95 9.15 19.0 6.4 18.2 4.0 15.85 3.8 12.95 4.05 10.65 5.65 L11.1 4.5 Q11.25 3.2 10.2 2.5 L9.1 1.9 Q10.2 0.55 9.9 -1.6 9.25 -4.75 6.25 -5.35 2.2 -5.2 1.7 -1.3" fill="#343541" fill-rule="evenodd" stroke="none"/>
      <path d="M13.5 -4.7 Q13.9 -1.7 18.2 0.65 32.1 9.0 21.7 18.6 8.9 24.15 0.35 11.0 -8.25 -2.15 -1.75 -6.7 4.7 -11.3 8.9 -9.5 13.05 -7.75 13.5 -4.7 Z" ffdec:has-small-stroke="true" ffdec:original-stroke-width="2.5" fill="none" stroke="#323232" stroke-linecap="round" stroke-linejoin="round" stroke-width="2.7085598447077444"/>
    </g>
    <g id="shape21" transform="matrix(1.0, 0.0, 0.0, 1.0, 5.8, 11.25)">
      <path d="M1.7 -1.3 Q2.2 -5.2 6.25 -5.35 9.25 -4.75 9.9 -1.6 10.2 0.55 9.1 1.9 L10.2 2.5 Q11.25 3.2 11.1 4.5 L10.65 5.65 Q12.95 4.05 15.85 3.8 18.2 4.0 19.0 6.4 19.95 9.15 17.75 11.05 14.5 13.95 11.05 11.4 8.9 9.7 9.55 7.25 L9.75 6.6 7.3 6.5 Q6.55 6.25 6.25 5.35 5.85 4.55 5.9 3.95 L4.85 3.85 Q1.05 2.7 1.7 -1.3" fill="#5b6e7d" fill-rule="evenodd" stroke="none"/>
      <path d="M13.5 -4.7 Q13.9 -1.7 18.2 0.65 32.1 9.0 21.7 18.6 8.9 24.15 0.35 11.0 -8.25 -2.15 -1.75 -6.7 4.7 -11.3 8.9 -9.5 13.05 -7.75 13.5 -4.7 M1.7 -1.3 Q1.05 2.7 4.85 3.85 L5.9 3.95 Q5.85 4.55 6.25 5.35 6.55 6.25 7.3 6.5 L9.75 6.6 9.55 7.25 Q8.9 9.7 11.05 11.4 14.5 13.95 17.75 11.05 19.95 9.15 19.0 6.4 18.2 4.0 15.85 3.8 12.95 4.05 10.65 5.65 L11.1 4.5 Q11.25 3.2 10.2 2.5 L9.1 1.9 Q10.2 0.55 9.9 -1.6 9.25 -4.75 6.25 -5.35 2.2 -5.2 1.7 -1.3" fill="#343541" fill-rule="evenodd" stroke="none"/>
      <path d="M13.5 -4.7 Q13.9 -1.7 18.2 0.65 32.1 9.0 21.7 18.6 8.9 24.15 0.35 11.0 -8.25 -2.15 -1.75 -6.7 4.7 -11.3 8.9 -9.5 13.05 -7.75 13.5 -4.7 Z" ffdec:has-small-stroke="true" ffdec:original-stroke-width="2.5" fill="none" stroke="#323232" stroke-linecap="round" stroke-linejoin="round" stroke-width="2.824179951517425"/>
    </g>
    <g id="shape22" transform="matrix(1.0, 0.0, 0.0, 1.0, 5.8, 11.25)">
      <path d="M1.7 -1.3 Q2.2 -5.2 6.25 -5.35 9.25 -4.75 9.9 -1.6 10.2 0.55 9.1 1.9 L10.2 2.5 Q11.25 3.2 11.1 4.5 L10.65 5.65 Q12.95 4.05 15.85 3.8 18.2 4.0 19.0 6.4 19.95 9.15 17.75 11.05 14.5 13.95 11.05 11.4 8.9 9.7 9.55 7.25 L9.75 6.6 7.3 6.5 Q6.55 6.25 6.25 5.35 5.85 4.55 5.9 3.95 L4.85 3.85 Q1.05 2.7 1.7 -1.3" fill="#5b6e7d" fill-rule="evenodd" stroke="none"/>
      <path d="M13.5 -4.7 Q13.9 -1.7 18.2 0.65 32.1 9.0 21.7 18.6 8.9 24.15 0.35 11.0 -8.25 -2.15 -1.75 -6.7 4.7 -11.3 8.9 -9.5 13.05 -7.75 13.5 -4.7 M1.7 -1.3 Q1.05 2.7 4.85 3.85 L5.9 3.95 Q5.85 4.55 6.25 5.35 6.55 6.25 7.3 6.5 L9.75 6.6 9.55 7.25 Q8.9 9.7 11.05 11.4 14.5 13.95 17.75 11.05 19.95 9.15 19.0 6.4 18.2 4.0 15.85 3.8 12.95 4.05 10.65 5.65 L11.1 4.5 Q11.25 3.2 10.2 2.5 L9.1 1.9 Q10.2 0.55 9.9 -1.6 9.25 -4.75 6.25 -5.35 2.2 -5.2 1.7 -1.3" fill="#343541" fill-rule="evenodd" stroke="none"/>
      <path d="M13.5 -4.7 Q13.9 -1.7 18.2 0.65 32.1 9.0 21.7 18.6 8.9 24.15 0.35 11.0 -8.25 -2.15 -1.75 -6.7 4.7 -11.3 8.9 -9.5 13.05 -7.75 13.5 -4.7 Z" ffdec:has-small-stroke="true" ffdec:original-stroke-width="2.5" fill="none" stroke="#323232" stroke-linecap="round" stroke-linejoin="round" stroke-width="2.9106308686434237"/>
    </g>
    <g id="shape23" transform="matrix(1.0, 0.0, 0.0, 1.0, -2.9, -2.45)">
      <path d="M22.45 20.45 L28.6 36.0 20.75 45.5 Q15.85 35.25 11.85 28.1 4.6 15.45 4.2 10.95 3.8 6.45 6.35 4.55 8.9 2.65 13.1 4.95 17.25 7.2 22.45 20.45" fill="#343541" fill-rule="evenodd" stroke="none"/>
      <path d="M22.45 20.45 L28.6 36.0 M20.75 45.5 Q15.85 35.25 11.85 28.1 4.6 15.45 4.2 10.95 3.8 6.45 6.35 4.55 8.9 2.65 13.1 4.95 17.25 7.2 22.45 20.45" fill="none" stroke="#323232" stroke-linecap="round" stroke-linejoin="round" stroke-width="2.5"/>
    </g>
    <g id="shape24" transform="matrix(1.0, 0.0, 0.0, 1.0, 3.2, 1.2)">
      <path d="M-0.65 3.9 L-0.7 3.8 -0.65 3.85 -0.65 3.9 M74.0 31.3 L74.2 31.4 73.3 33.0 Q70.6 34.3 68.5 33.55 L54.4 26.55 Q48.45 24.55 41.85 23.65 48.5 24.35 54.5 26.25 L68.75 33.05 Q70.8 33.75 73.45 32.35 L74.0 31.3 M3.3 21.05 L3.25 21.05 3.3 21.05" fill="#1f2f32" fill-rule="evenodd" stroke="none"/>
      <path d="M73.65 31.4 L54.15 21.25 Q48.5 18.65 43.15 16.65 L36.45 14.2 Q29.45 11.65 23.55 11.15 L8.7 9.8 Q2.35 9.7 -0.65 3.85 1.15 1.2 5.65 0.25 8.0 -0.1 11.55 0.15 22.6 0.85 38.9 7.45 47.35 10.95 55.3 15.25 62.5 19.05 69.35 23.6 72.9 25.9 74.0 27.75 75.0 29.15 74.3 30.75 L74.0 31.3 73.75 31.15 73.7 31.25 73.65 31.4" fill="#5b6e7d" fill-rule="evenodd" stroke="none"/>
      <path d="M-0.65 3.85 Q2.35 9.7 8.7 9.8 L23.55 11.15 Q29.45 11.65 36.45 14.2 L43.15 16.65 Q48.5 18.65 54.15 21.25 L73.65 31.4 73.7 31.25 73.75 31.15 74.0 31.3 73.45 32.35 Q70.8 33.75 68.75 33.05 L54.5 26.25 Q48.5 24.35 41.85 23.65 L32.65 23.15 17.6 24.2 Q16.8 24.35 15.95 24.7 8.75 25.1 5.3 22.75 L4.4 22.05 3.4 21.15 3.3 21.1 3.3 21.05 3.25 21.05 Q0.95 18.65 -0.45 15.0 L-0.5 14.8 -0.55 14.7 Q-3.25 7.65 -0.65 3.9 L-0.65 3.85" fill="#343541" fill-rule="evenodd" stroke="none"/>
      <path d="M-0.65 3.9 L-0.65 3.85 M41.85 23.65 L32.65 23.15 M3.3 21.05 L3.25 21.05 M-0.45 15.0 L-0.55 14.7" ffdec:has-small-stroke="true" ffdec:original-stroke-width="2.5" fill="none" stroke="#1f2f32" stroke-linecap="round" stroke-linejoin="round" stroke-width="2.5885341783903937"/>
      <path d="M74.0 31.3 L74.3 30.75 Q75.0 29.15 74.0 27.75 72.9 25.9 69.35 23.6 62.5 19.05 55.3 15.25 47.35 10.95 38.9 7.45 22.6 0.85 11.55 0.15 8.0 -0.1 5.65 0.25 1.15 1.2 -0.65 3.85 M32.65 23.15 L17.65 24.55 15.95 24.7 Q8.75 25.1 5.3 22.75 L4.4 22.05 3.4 21.15 3.3 21.1 3.3 21.05 3.25 21.05 Q0.95 18.65 -0.45 15.0 M-0.55 14.7 Q-3.25 7.65 -0.65 3.9 M41.85 23.65 Q48.5 24.35 54.5 26.25 L68.75 33.05 Q70.8 33.75 73.45 32.35 L74.0 31.3" ffdec:has-small-stroke="true" ffdec:original-stroke-width="2.5" fill="none" stroke="#323232" stroke-linecap="round" stroke-linejoin="round" stroke-width="2.5885341783903937"/>
    </g>
    <g id="shape25" transform="matrix(1.0, 0.0, 0.0, 1.0, 5.8, 11.25)">
      <path d="M1.7 -1.3 Q2.2 -5.2 6.25 -5.35 9.25 -4.75 9.9 -1.6 10.2 0.55 9.1 1.9 L10.2 2.5 Q11.25 3.2 11.1 4.5 L10.65 5.65 Q12.95 4.05 15.85 3.8 18.2 4.0 19.0 6.4 19.95 9.15 17.75 11.05 14.5 13.95 11.05 11.4 8.9 9.7 9.55 7.25 L9.75 6.6 7.3 6.5 Q6.55 6.25 6.25 5.35 5.85 4.55 5.9 3.95 L4.85 3.85 Q1.05 2.7 1.7 -1.3" fill="#5b6e7d" fill-rule="evenodd" stroke="none"/>
      <path d="M13.5 -4.7 Q13.9 -1.7 18.2 0.65 32.1 9.0 21.7 18.6 8.9 24.15 0.35 11.0 -8.25 -2.15 -1.75 -6.7 4.7 -11.3 8.9 -9.5 13.05 -7.75 13.5 -4.7 M1.7 -1.3 Q1.05 2.7 4.85 3.85 L5.9 3.95 Q5.85 4.55 6.25 5.35 6.55 6.25 7.3 6.5 L9.75 6.6 9.55 7.25 Q8.9 9.7 11.05 11.4 14.5 13.95 17.75 11.05 19.95 9.15 19.0 6.4 18.2 4.0 15.85 3.8 12.95 4.05 10.65 5.65 L11.1 4.5 Q11.25 3.2 10.2 2.5 L9.1 1.9 Q10.2 0.55 9.9 -1.6 9.25 -4.75 6.25 -5.35 2.2 -5.2 1.7 -1.3" fill="#343541" fill-rule="evenodd" stroke="none"/>
      <path d="M13.5 -4.7 Q13.9 -1.7 18.2 0.65 32.1 9.0 21.7 18.6 8.9 24.15 0.35 11.0 -8.25 -2.15 -1.75 -6.7 4.7 -11.3 8.9 -9.5 13.05 -7.75 13.5 -4.7 Z" ffdec:has-small-stroke="true" ffdec:original-stroke-width="2.5" fill="none" stroke="#323232" stroke-linecap="round" stroke-linejoin="round" stroke-width="3.0679748602669914"/>
    </g>
    <g id="shape26" transform="matrix(1.0, 0.0, 0.0, 1.0, 48.15, 41.65)">
      <path d="M32.2 -23.15 Q21.2 -30.45 4.2 -34.1 -12.85 -37.8 -25.9 -35.7 -38.95 -33.6 -40.35 -26.9 -41.8 -20.25 -30.8 -12.95 -19.8 -5.65 -2.75 -1.95 14.25 1.7 27.3 -0.4 40.3 -2.5 41.75 -9.15 43.2 -15.85 32.2 -23.15 M0.1 38.65 Q-16.5 48.55 -27.65 31.25 -44.0 -4.85 -46.8 -20.3 -49.65 -35.75 -33.85 -39.75 1.4 -44.1 29.8 -29.1 58.15 -14.15 46.05 0.3 29.5 20.1 0.1 38.65" fill="#bd3232" fill-rule="evenodd" stroke="none"/>
      <path d="M32.2 -23.15 Q43.2 -15.85 41.75 -9.15 40.3 -2.5 27.3 -0.4 14.25 1.7 -2.75 -1.95 -19.8 -5.65 -30.8 -12.95 -41.8 -20.25 -40.35 -26.9 -38.95 -33.6 -25.9 -35.7 -12.85 -37.8 4.2 -34.1 21.2 -30.45 32.2 -23.15" fill="#e63232" fill-rule="evenodd" stroke="none"/>
      <path d="M0.1 38.65 Q-16.5 48.55 -27.65 31.25 -44.0 -4.85 -46.8 -20.3 -49.65 -35.75 -33.85 -39.75 1.4 -44.1 29.8 -29.1 58.15 -14.15 46.05 0.3 29.5 20.1 0.1 38.65 Z" fill="none" stroke="#323232" stroke-linecap="round" stroke-linejoin="round" stroke-width="1.8"/>
      <path d="M23.85 -32.0 Q22.0 -29.25 18.45 -26.15 -0.1 -9.95 -12.3 -9.5 -24.45 -9.05 -29.5 -15.4 -34.5 -21.7 -35.25 -35.15 L-35.2 -39.35 -33.85 -39.75 Q-2.25 -43.65 23.85 -32.0" fill="#bd3232" fill-rule="evenodd" stroke="none"/>
      <path d="M0.1 38.65 Q29.5 20.1 46.05 0.3 58.15 -14.15 29.8 -29.1 L23.85 -32.0 Q-2.25 -43.65 -33.85 -39.75 L-35.2 -39.35 Q-49.55 -35.1 -46.8 -20.3 -44.0 -4.85 -27.65 31.25" fill="none" stroke="#323232" stroke-linecap="round" stroke-linejoin="round" stroke-width="1.8"/>
    </g>
    <g id="shape27" transform="matrix(1.0, 0.0, 0.0, 1.0, 5.8, 11.25)">
      <path d="M1.7 -1.3 Q2.2 -5.2 6.25 -5.35 9.25 -4.75 9.9 -1.6 10.2 0.55 9.1 1.9 L10.2 2.5 Q11.25 3.2 11.1 4.5 L10.65 5.65 Q12.95 4.05 15.85 3.8 18.2 4.0 19.0 6.4 19.95 9.15 17.75 11.05 14.5 13.95 11.05 11.4 8.9 9.7 9.55 7.25 L9.75 6.6 7.3 6.5 Q6.55 6.25 6.25 5.35 5.85 4.55 5.9 3.95 L4.85 3.85 Q1.05 2.7 1.7 -1.3" fill="#5b6e7d" fill-rule="evenodd" stroke="none"/>
      <path d="M13.5 -4.7 Q13.9 -1.7 18.2 0.65 32.1 9.0 21.7 18.6 8.9 24.15 0.35 11.0 -8.25 -2.15 -1.75 -6.7 4.7 -11.3 8.9 -9.5 13.05 -7.75 13.5 -4.7 M1.7 -1.3 Q1.05 2.7 4.85 3.85 L5.9 3.95 Q5.85 4.55 6.25 5.35 6.55 6.25 7.3 6.5 L9.75 6.6 9.55 7.25 Q8.9 9.7 11.05 11.4 14.5 13.95 17.75 11.05 19.95 9.15 19.0 6.4 18.2 4.0 15.85 3.8 12.95 4.05 10.65 5.65 L11.1 4.5 Q11.25 3.2 10.2 2.5 L9.1 1.9 Q10.2 0.55 9.9 -1.6 9.25 -4.75 6.25 -5.35 2.2 -5.2 1.7 -1.3" fill="#343541" fill-rule="evenodd" stroke="none"/>
      <path d="M13.5 -4.7 Q13.9 -1.7 18.2 0.65 32.1 9.0 21.7 18.6 8.9 24.15 0.35 11.0 -8.25 -2.15 -1.75 -6.7 4.7 -11.3 8.9 -9.5 13.05 -7.75 13.5 -4.7 Z" ffdec:has-small-stroke="true" ffdec:original-stroke-width="2.5" fill="none" stroke="#323232" stroke-linecap="round" stroke-linejoin="round" stroke-width="2.915205782892176"/>
    </g>
    <g id="shape28" transform="matrix(1.0, 0.0, 0.0, 1.0, -2.9, -2.45)">
      <path d="M22.45 20.45 L28.6 36.0 20.75 45.5 Q15.85 35.25 11.85 28.1 4.6 15.45 4.2 10.95 3.8 6.45 6.35 4.55 8.9 2.65 13.1 4.95 17.25 7.2 22.45 20.45" fill="#343541" fill-rule="evenodd" stroke="none"/>
      <path d="M22.45 20.45 L28.6 36.0 M20.75 45.5 Q15.85 35.25 11.85 28.1 4.6 15.45 4.2 10.95 3.8 6.45 6.35 4.55 8.9 2.65 13.1 4.95 17.25 7.2 22.45 20.45" ffdec:has-small-stroke="true" ffdec:original-stroke-width="2.5" fill="none" stroke="#323232" stroke-linecap="round" stroke-linejoin="round" stroke-width="2.5997769539675475"/>
    </g>
    <g id="shape29" transform="matrix(1.0, 0.0, 0.0, 1.0, 3.2, 1.2)">
      <path d="M-0.65 3.9 L-0.7 3.8 -0.65 3.85 -0.65 3.9 M74.0 31.3 L74.2 31.4 73.3 33.0 Q70.6 34.3 68.5 33.55 L54.4 26.55 Q48.45 24.55 41.85 23.65 48.5 24.35 54.5 26.25 L68.75 33.05 Q70.8 33.75 73.45 32.35 L74.0 31.3 M3.3 21.05 L3.25 21.05 3.3 21.05" fill="#1f2f32" fill-rule="evenodd" stroke="none"/>
      <path d="M73.65 31.4 L54.15 21.25 Q48.5 18.65 43.15 16.65 L36.45 14.2 Q29.45 11.65 23.55 11.15 L8.7 9.8 Q2.35 9.7 -0.65 3.85 1.15 1.2 5.65 0.25 8.0 -0.1 11.55 0.15 22.6 0.85 38.9 7.45 47.35 10.95 55.3 15.25 62.5 19.05 69.35 23.6 72.9 25.9 74.0 27.75 75.0 29.15 74.3 30.75 L74.0 31.3 73.75 31.15 73.7 31.25 73.65 31.4" fill="#5b6e7d" fill-rule="evenodd" stroke="none"/>
      <path d="M-0.65 3.85 Q2.35 9.7 8.7 9.8 L23.55 11.15 Q29.45 11.65 36.45 14.2 L43.15 16.65 Q48.5 18.65 54.15 21.25 L73.65 31.4 73.7 31.25 73.75 31.15 74.0 31.3 73.45 32.35 Q70.8 33.75 68.75 33.05 L54.5 26.25 Q48.5 24.35 41.85 23.65 L32.65 23.15 17.6 24.2 Q16.8 24.35 15.95 24.7 8.75 25.1 5.3 22.75 L4.4 22.05 3.4 21.15 3.3 21.1 3.3 21.05 3.25 21.05 Q0.95 18.65 -0.45 15.0 L-0.5 14.8 -0.55 14.7 Q-3.25 7.65 -0.65 3.9 L-0.65 3.85" fill="#343541" fill-rule="evenodd" stroke="none"/>
      <path d="M-0.65 3.9 L-0.65 3.85 M41.85 23.65 L32.65 23.15 M3.3 21.05 L3.25 21.05 M-0.45 15.0 L-0.55 14.7" ffdec:has-small-stroke="true" ffdec:original-stroke-width="2.5" fill="none" stroke="#1f2f32" stroke-linecap="round" stroke-linejoin="round" stroke-width="2.6119337562511964"/>
      <path d="M74.0 31.3 L74.3 30.75 Q75.0 29.15 74.0 27.75 72.9 25.9 69.35 23.6 62.5 19.05 55.3 15.25 47.35 10.95 38.9 7.45 22.6 0.85 11.55 0.15 8.0 -0.1 5.65 0.25 1.15 1.2 -0.65 3.85 M32.65 23.15 L17.65 24.55 15.95 24.7 Q8.75 25.1 5.3 22.75 L4.4 22.05 3.4 21.15 3.3 21.1 3.3 21.05 3.25 21.05 Q0.95 18.65 -0.45 15.0 M-0.55 14.7 Q-3.25 7.65 -0.65 3.9 M41.85 23.65 Q48.5 24.35 54.5 26.25 L68.75 33.05 Q70.8 33.75 73.45 32.35 L74.0 31.3" ffdec:has-small-stroke="true" ffdec:original-stroke-width="2.5" fill="none" stroke="#323232" stroke-linecap="round" stroke-linejoin="round" stroke-width="2.6119337562511964"/>
    </g>
    <g id="shape30" transform="matrix(1.0, 0.0, 0.0, 1.0, 5.8, 11.25)">
      <path d="M1.7 -1.3 Q2.2 -5.2 6.25 -5.35 9.25 -4.75 9.9 -1.6 10.2 0.55 9.1 1.9 L10.2 2.5 Q11.25 3.2 11.1 4.5 L10.65 5.65 Q12.95 4.05 15.85 3.8 18.2 4.0 19.0 6.4 19.95 9.15 17.75 11.05 14.5 13.95 11.05 11.4 8.9 9.7 9.55 7.25 L9.75 6.6 7.3 6.5 Q6.55 6.25 6.25 5.35 5.85 4.55 5.9 3.95 L4.85 3.85 Q1.05 2.7 1.7 -1.3" fill="#5b6e7d" fill-rule="evenodd" stroke="none"/>
      <path d="M13.5 -4.7 Q13.9 -1.7 18.2 0.65 32.1 9.0 21.7 18.6 8.9 24.15 0.35 11.0 -8.25 -2.15 -1.75 -6.7 4.7 -11.3 8.9 -9.5 13.05 -7.75 13.5 -4.7 M1.7 -1.3 Q1.05 2.7 4.85 3.85 L5.9 3.95 Q5.85 4.55 6.25 5.35 6.55 6.25 7.3 6.5 L9.75 6.6 9.55 7.25 Q8.9 9.7 11.05 11.4 14.5 13.95 17.75 11.05 19.95 9.15 19.0 6.4 18.2 4.0 15.85 3.8 12.95 4.05 10.65 5.65 L11.1 4.5 Q11.25 3.2 10.2 2.5 L9.1 1.9 Q10.2 0.55 9.9 -1.6 9.25 -4.75 6.25 -5.35 2.2 -5.2 1.7 -1.3" fill="#343541" fill-rule="evenodd" stroke="none"/>
      <path d="M13.5 -4.7 Q13.9 -1.7 18.2 0.65 32.1 9.0 21.7 18.6 8.9 24.15 0.35 11.0 -8.25 -2.15 -1.75 -6.7 4.7 -11.3 8.9 -9.5 13.05 -7.75 13.5 -4.7 Z" ffdec:has-small-stroke="true" ffdec:original-stroke-width="2.5" fill="none" stroke="#323232" stroke-linecap="round" stroke-linejoin="round" stroke-width="3.095648544412942"/>
    </g>
    <g id="shape31" transform="matrix(1.0, 0.0, 0.0, 1.0, -0.05, 0.0)">
      <path d="M20.95 23.8 L20.45 24.2 19.9 24.5 Q15.85 26.55 11.15 25.6 5.7 24.5 2.5 19.95 -0.7 15.5 0.25 10.3 1.1 5.1 5.45 2.15 9.95 -0.8 15.35 0.3 20.75 1.35 23.95 5.9 27.1 10.35 26.3 15.65 25.35 20.8 20.95 23.8" fill="#323232" fill-rule="evenodd" stroke="none"/>
    </g>
    <g id="shape32" transform="matrix(1.0, 0.0, 0.0, 1.0, 0.05, -0.05)">
      <path d="M161.05 18.7 Q163.8 25.2 161.55 35.0 144.2 98.85 110.7 146.2 93.8 170.0 73.2 149.55 37.65 107.95 15.7 41.45 9.55 19.2 28.3 12.45 51.55 6.25 76.2 4.45 104.25 2.3 134.15 5.9 L137.2 6.25 147.0 7.65 Q157.7 10.75 161.05 18.7" fill="#e63232" fill-rule="evenodd" stroke="none"/>
      <path d="M160.35 8.0 Q172.85 15.9 168.4 34.7 148.5 105.45 110.2 158.05 90.9 184.5 67.3 161.85 26.75 115.75 1.7 42.0 -5.3 17.35 16.1 9.85 45.05 2.35 75.95 0.6 104.15 -1.05 133.9 2.1 L136.95 2.4 151.8 4.35 Q156.75 5.75 160.35 8.0 M161.05 18.7 Q157.7 10.75 147.0 7.65 L137.2 6.25 134.15 5.9 Q104.25 2.3 76.2 4.45 51.55 6.25 28.3 12.45 9.55 19.2 15.7 41.45 37.65 107.95 73.2 149.55 93.8 170.0 110.7 146.2 144.2 98.85 161.55 35.0 163.8 25.2 161.05 18.7" fill="#bd3232" fill-rule="evenodd" stroke="none"/>
    </g>
    <g id="shape33" transform="matrix(1.0, 0.0, 0.0, 1.0, 3.75, -1.9)">
      <path d="M65.1 165.25 Q24.55 119.15 -0.5 45.4 -7.5 20.75 13.9 13.25 77.25 -3.15 149.6 7.75 171.9 13.95 166.2 38.1 146.3 108.85 108.0 161.45 88.7 187.9 65.1 165.25 Z" ffdec:has-small-stroke="true" ffdec:original-stroke-width="3.0" fill="none" stroke="#323232" stroke-linecap="round" stroke-linejoin="round" stroke-width="3.0949052338051666"/>
    </g>
    <g id="shape34" transform="matrix(1.0, 0.0, 0.0, 1.0, 149.4, 21.3)">
      <path d="M-55.05 -9.5 Q-53.35 -16.75 -36.3 -19.3 -19.0 -21.8 3.75 -17.95 26.55 -14.1 41.6 -6.15 56.45 1.8 55.2 9.1 L32.7 118.6 Q28.65 116.3 20.7 113.75 4.25 108.5 -19.55 104.85 -43.25 101.25 -60.3 101.45 -69.8 101.55 -74.1 102.85 L-55.45 -6.95 -55.25 -8.25 -55.1 -8.95 -55.25 -8.25 -55.3 -7.9 -55.2 -8.65 -55.1 -8.95 -55.05 -9.5" fill="url(#gradient37)" fill-rule="evenodd" stroke="none"/>
      <path d="M-148.35 104.2 Q-149.2 98.2 -138.75 96.1 -115.35 93.2 -77.7 106.0 L-77.7 106.05 -81.85 127.8 Q-138.8 122.35 -147.9 105.85 L-148.35 104.2" fill="url(#gradient38)" fill-rule="evenodd" stroke="none"/>
      <path d="M34.35 129.65 L59.05 128.65 59.35 128.65 Q103.9 127.7 112.55 147.75 115.4 167.3 36.95 167.0 38.35 159.4 30.8 152.55 -8.75 128.6 -106.7 141.05 -144.3 127.3 -148.25 105.9 L-147.9 105.85 Q-138.8 122.35 -81.85 127.8 -39.2 131.9 30.4 129.75 L34.35 129.65 M46.45 160.45 L30.8 152.55 46.45 160.45" fill="url(#gradient39)" fill-rule="evenodd" stroke="none"/>
      <path d="M32.7 118.6 Q34.5 119.55 35.5 120.5 L34.35 129.65 30.4 129.75 Q-39.2 131.9 -81.85 127.8 L-77.7 106.05 -77.7 106.0 -77.45 104.9 Q-76.75 103.65 -74.1 102.85 -69.8 101.55 -60.3 101.45 -43.25 101.25 -19.55 104.85 4.25 108.5 20.7 113.75 28.65 116.3 32.7 118.6" fill="url(#gradient40)" fill-rule="evenodd" stroke="none"/>
      <path d="M-55.05 -9.5 Q-53.35 -16.75 -36.3 -19.3 -19.0 -21.8 3.75 -17.95 26.55 -14.1 41.6 -6.15 56.45 1.8 55.2 9.1 L32.7 118.6 Q34.5 119.55 35.5 120.5 L34.35 129.65 59.05 128.65 59.35 128.65 Q103.9 127.7 112.55 147.75 115.4 167.3 36.95 167.0 M-106.7 141.05 Q-144.3 127.3 -148.25 105.9 L-148.35 104.2 Q-149.2 98.2 -138.75 96.1 -115.35 93.2 -77.7 106.0 L-77.7 105.65 -77.45 104.9 Q-76.75 103.65 -74.1 102.85 L-55.45 -6.95 -55.3 -7.9 M-55.2 -8.65 L-55.1 -9.3 -55.05 -9.5 M-55.1 -8.95 L-55.25 -8.25 M-147.9 105.85 L-148.35 104.2 M-81.85 127.8 Q-138.8 122.35 -147.9 105.85 M32.7 118.6 Q28.65 116.3 20.7 113.75 4.25 108.5 -19.55 104.85 -43.25 101.25 -60.3 101.45 -69.8 101.55 -74.1 102.85 M-77.45 104.9 L-77.7 106.0 -77.7 106.05 -81.85 127.8 Q-39.2 131.9 30.4 129.75 L34.35 129.65" ffdec:has-small-stroke="true" ffdec:original-stroke-width="2.0" fill="none" stroke="#1d242e" stroke-linecap="round" stroke-linejoin="round" stroke-width="2.559323847862393"/>
      <path d="M36.95 167.0 Q38.35 159.4 30.8 152.55 -8.75 128.6 -106.7 141.05 M30.8 152.55 L46.45 160.45" ffdec:has-small-stroke="true" ffdec:original-stroke-width="2.0" fill="none" stroke="#323232" stroke-linecap="round" stroke-linejoin="round" stroke-width="2.559323847862393"/>
      <path d="M-77.45 104.9 Q-76.75 103.65 -74.1 102.85 -69.8 101.55 -60.3 101.45 -43.25 101.25 -19.55 104.85 4.25 108.5 20.7 113.75 28.65 116.3 32.7 118.6 34.5 119.55 35.5 120.5 L34.35 129.65 30.4 129.75 Q-39.2 131.9 -81.85 127.8 L-77.7 106.05 -77.7 106.0 -77.45 104.9" fill="url(#gradient41)" fill-rule="evenodd" stroke="none"/>
      <path d="M-77.45 104.9 Q-76.75 103.65 -74.1 102.85 -69.8 101.55 -60.3 101.45 -43.25 101.25 -19.55 104.85 4.25 108.5 20.7 113.75 28.65 116.3 32.7 118.6 34.5 119.55 35.5 120.5 L34.35 129.65 30.4 129.75 Q-39.2 131.9 -81.85 127.8 L-77.7 106.05" ffdec:has-small-stroke="true" ffdec:original-stroke-width="2.0" fill="none" stroke="#1d242e" stroke-linecap="round" stroke-linejoin="round" stroke-width="2.559323847862393"/>
      <path d="M112.55 149.2 Q103.9 129.15 59.35 130.1 L59.05 130.1 34.35 131.1 30.4 131.2 Q-39.2 133.35 -81.85 129.25 -138.8 123.8 -147.9 107.3 L-148.35 105.65 Q-149.2 99.65 -138.75 97.55 -115.8 94.7 -79.15 106.95" ffdec:has-small-stroke="true" ffdec:original-stroke-width="2.0" fill="none" stroke="#6869a8" stroke-linecap="round" stroke-linejoin="round" stroke-width="2.559323847862393"/>
    </g>
    <linearGradient gradientTransform="matrix(0.1016, 0.0125, -0.1224, 0.9921, 6.0, 0.4)" gradientUnits="userSpaceOnUse" id="gradient37" spreadMethod="pad" x1="-819.2" x2="819.2">
      <stop offset="0.0" stop-color="#151424"/>
      <stop offset="0.396078431372549" stop-color="#4d4d88"/>
      <stop offset="1.0" stop-color="#151424"/>
    </linearGradient>
    <radialGradient cx="0" cy="0" gradientTransform="matrix(-0.0138, 0.0517, -0.1208, -0.0324, -82.7, 132.9)" gradientUnits="userSpaceOnUse" id="gradient38" r="819.2" spreadMethod="pad">
      <stop offset="0.0" stop-color="#0d0f1e"/>
      <stop offset="0.5333333333333333" stop-color="#2a2f4c"/>
    </radialGradient>
    <radialGradient cx="0" cy="0" gradientTransform="matrix(-0.0085, 0.0751, -0.2624, -0.0295, -19.95, 168.55)" gradientUnits="userSpaceOnUse" id="gradient39" r="819.2" spreadMethod="pad">
      <stop offset="0.24313725490196078" stop-color="#2a2f4c"/>
      <stop offset="0.5019607843137255" stop-color="#1a1d32"/>
    </radialGradient>
    <linearGradient gradientTransform="matrix(0.0659, 0.0067, -0.1014, 0.9945, -16.7, -0.45)" gradientUnits="userSpaceOnUse" id="gradient40" spreadMethod="pad" x1="-819.2" x2="819.2">
      <stop offset="0.050980392156862744" stop-color="#84651e"/>
      <stop offset="0.49019607843137253" stop-color="#f7e5a3"/>
      <stop offset="0.8509803921568627" stop-color="#9f7a24"/>
    </linearGradient>
    <linearGradient gradientTransform="matrix(0.0659, 0.0067, -0.1014, 0.9945, -16.7, -0.45)" gradientUnits="userSpaceOnUse" id="gradient41" spreadMethod="pad" x1="-819.2" x2="819.2">
      <stop offset="0.050980392156862744" stop-color="#84651e"/>
      <stop offset="0.49019607843137253" stop-color="#f7e5a3"/>
      <stop offset="0.8509803921568627" stop-color="#9f7a24"/>
    </linearGradient>
    <g id="shape35" transform="matrix(1.0, 0.0, 0.0, 1.0, 21.0, 22.1)">
      <path d="M17.1 -12.95 Q19.6 -9.35 20.55 -4.6 22.35 4.3 17.65 12.0 12.85 19.65 4.35 21.6 -4.15 23.5 -11.4 18.55 -18.05 14.0 -20.1 6.25 L-20.5 4.65 Q-22.3 -4.3 -17.45 -11.95 -12.7 -19.65 -4.2 -21.55 4.25 -23.45 11.55 -18.5 14.9 -16.2 17.1 -12.95" fill="#bd3232" fill-rule="evenodd" stroke="none"/>
    </g>
    <g id="shape36" transform="matrix(1.0, 0.0, 0.0, 1.0, -15.1, 55.6)">
      <path d="M20.1 -24.95 Q22.95 -23.35 26.55 -22.85 34.15 -21.8 40.45 -26.25 46.7 -30.75 47.95 -38.2 49.25 -45.6 44.85 -51.55 L43.95 -52.6 44.75 -52.15 Q47.4 -50.4 48.5 -49.0 L51.8 -44.65 Q54.05 -41.65 52.8 -34.25 51.5 -26.8 45.25 -22.3 38.95 -17.85 31.35 -18.9 25.9 -19.65 22.1 -22.95 L21.05 -23.9 20.1 -24.95" fill="#c0c0c0" fill-rule="evenodd" stroke="none"/>
      <path d="M43.95 -52.6 L44.85 -51.55 Q49.25 -45.6 47.95 -38.2 46.7 -30.75 40.45 -26.25 34.15 -21.8 26.55 -22.85 22.95 -23.35 20.1 -24.95 L19.25 -25.95 Q14.85 -31.95 16.15 -39.35 17.45 -46.8 23.7 -51.3 30.0 -55.75 37.6 -54.65 40.25 -54.3 42.55 -53.3 L42.9 -53.15 43.95 -52.6" fill="#e6e6e6" fill-rule="evenodd" stroke="none"/>
      <path d="M21.05 -23.9 L22.1 -22.95 Q25.9 -19.65 31.35 -18.9 38.95 -17.85 45.25 -22.3 51.5 -26.8 52.8 -34.25 54.05 -41.65 51.8 -44.65 M48.5 -49.0 Q47.4 -50.4 44.75 -52.15 L42.9 -53.15 42.55 -53.3 Q40.25 -54.3 37.6 -54.65 30.0 -55.75 23.7 -51.3 17.45 -46.8 16.15 -39.35 14.85 -31.95 19.25 -25.95 L21.05 -23.9" ffdec:has-small-stroke="true" ffdec:original-stroke-width="1.5" fill="none" stroke="#323232" stroke-linecap="round" stroke-linejoin="round" stroke-width="1.740348233366137"/>
    </g>
    <g id="shape37" transform="matrix(1.0, 0.0, 0.0, 1.0, 14.4, 14.4)">
      <path d="M10.2 -10.15 Q14.4 -5.95 14.4 0.0 14.4 6.0 10.2 10.2 5.95 14.4 0.0 14.45 -6.0 14.4 -10.2 10.2 -14.4 6.0 -14.4 0.0 -14.4 -5.95 -10.2 -10.15 -6.0 -14.4 0.0 -14.4 5.95 -14.4 10.2 -10.15" fill="#e666cc" fill-rule="evenodd" stroke="none"/>
      <path d="M5.65 -5.1 Q7.8 -2.9 7.85 0.2 7.8 3.3 5.65 5.5 3.45 7.7 0.35 7.7 -2.8 7.7 -4.95 5.5 -7.15 3.3 -7.15 0.2 -7.15 -2.9 -4.95 -5.1 -2.8 -7.3 0.35 -7.25 3.45 -7.3 5.65 -5.1" fill="#993232" fill-rule="evenodd" stroke="none"/>
      <path d="M9.7 -3.4 Q8.25 -1.95 6.2 -1.95 4.1 -1.95 2.65 -3.4 1.2 -4.85 1.2 -6.9 1.2 -9.0 2.65 -10.45 4.1 -11.9 6.2 -11.9 8.25 -11.9 9.7 -10.45 11.15 -9.0 11.15 -6.9 11.15 -4.85 9.7 -3.4 M-6.2 6.35 Q-6.95 5.6 -6.95 4.55 -6.95 3.5 -6.2 2.8 -5.5 2.05 -4.45 2.05 -3.4 2.05 -2.7 2.8 -1.95 3.5 -1.95 4.55 -1.95 5.6 -2.7 6.35 -3.4 7.05 -4.45 7.05 -5.5 7.05 -6.2 6.35" fill="#e6e6e6" fill-rule="evenodd" stroke="none"/>
    </g>
    <g id="shape38" transform="matrix(1.0, 0.0, 0.0, 1.0, 39.5, 33.95)">
      <path d="M21.55 16.8 Q18.15 20.8 10.75 23.05 3.3 25.3 -3.95 22.75 -11.25 20.15 -15.3 15.05 5.1 19.95 21.55 16.8" fill="#e63232" fill-rule="evenodd" stroke="none"/>
      <path d="M30.95 11.25 Q26.95 21.65 16.6 27.4 4.75 33.95 -8.4 30.55 -21.55 27.15 -28.4 15.75 -30.65 11.9 -31.75 7.95 -25.65 9.55 -14.15 11.45 -2.65 13.35 10.5 13.0 23.65 12.65 30.95 11.25 M21.55 16.8 Q5.1 19.95 -15.3 15.05 -11.25 20.15 -3.95 22.75 3.3 25.3 10.75 23.05 18.15 20.8 21.55 16.8" fill="#bd3232" fill-rule="evenodd" stroke="none"/>
      <path d="M30.95 11.25 Q26.95 21.65 16.6 27.4 4.75 33.95 -8.4 30.55 -21.55 27.15 -28.4 15.75 -30.65 11.9 -31.75 7.95 -25.65 9.55 -14.15 11.45 -2.65 13.35 10.5 13.0 23.65 12.65 30.95 11.25 Z" ffdec:has-small-stroke="true" ffdec:original-stroke-width="3.0" fill="none" stroke="#323232" stroke-linecap="round" stroke-linejoin="round" stroke-width="3.0435931377457828"/>
      <path d="M-25.2 -21.35 L-25.15 -21.35 -25.0 -21.2 -25.2 -21.35" fill="#c0b9b1" fill-rule="evenodd" stroke="none"/>
      <path d="M-25.15 -21.35 Q-21.65 -25.25 -16.6 -28.05 -4.6 -34.75 8.85 -31.25 20.2 -28.35 27.0 -19.4 31.3 -4.45 28.15 7.8 L29.5 7.1 Q30.65 6.35 31.9 6.15 35.25 10.1 23.85 11.65 L22.7 11.8 22.1 11.85 22.1 11.95 Q11.9 13.05 2.3 12.25 -8.45 11.35 -13.5 8.85 -18.55 6.3 -22.0 3.35 -25.45 0.4 -26.65 -2.6 -28.15 -10.25 -25.7 -18.95 L-25.0 -21.2 -25.15 -21.35 M24.1 9.0 Q26.35 8.8 28.15 7.8 26.35 8.8 24.1 9.0" fill="#e63232" fill-rule="evenodd" stroke="none"/>
      <path d="M27.0 -19.4 Q35.85 -7.7 33.65 6.0 37.9 6.55 36.9 9.5 35.85 12.4 27.2 14.1 18.5 15.8 9.35 15.9 0.2 16.0 -9.15 14.55 L-25.05 11.8 -34.75 9.55 Q-37.9 8.55 -38.0 5.8 -38.15 3.05 -34.65 2.85 -34.75 0.2 -34.25 -2.5 -33.55 -7.1 -31.85 -11.5 -30.15 -15.95 -25.2 -21.35 L-25.0 -21.2 -25.7 -18.95 Q-28.15 -10.25 -26.65 -2.6 -25.45 0.4 -22.0 3.35 -18.55 6.3 -13.5 8.85 -8.45 11.35 2.3 12.25 11.9 13.05 22.1 11.95 L22.1 11.85 22.7 11.8 23.85 11.65 Q35.25 10.1 31.9 6.15 30.65 6.35 29.5 7.1 L28.15 7.8 Q31.3 -4.45 27.0 -19.4 M31.9 6.15 L33.65 6.0 31.9 6.15 M-31.3 3.8 Q-32.65 3.15 -34.6 2.85 L-34.65 2.85 -34.6 2.85 Q-32.65 3.15 -31.3 3.8" fill="#bd3232" fill-rule="evenodd" stroke="none"/>
      <path d="M-25.15 -21.35 Q-21.65 -25.25 -16.6 -28.05 -4.6 -34.75 8.85 -31.25 20.2 -28.35 27.0 -19.4 35.85 -7.7 33.65 6.0 37.9 6.55 36.9 9.5 35.85 12.4 27.2 14.1 18.5 15.8 9.35 15.9 0.2 16.0 -9.15 14.55 L-25.05 11.8 -34.75 9.55 Q-37.9 8.55 -38.0 5.8 -38.15 3.05 -34.65 2.85 -34.75 0.2 -34.25 -2.5 -33.55 -7.1 -31.85 -11.5 -30.15 -15.95 -25.2 -21.35 L-25.15 -21.35 M31.9 6.15 Q30.65 6.35 29.5 7.1 L28.15 7.8 Q26.35 8.8 24.1 9.0 M-34.65 2.85 L-34.6 2.85 Q-32.65 3.15 -31.3 3.8 M33.65 6.0 L31.9 6.15" ffdec:has-small-stroke="true" ffdec:original-stroke-width="3.0" fill="none" stroke="#323232" stroke-linecap="round" stroke-linejoin="round" stroke-width="3.0435931377457828"/>
    </g>
    <g id="shape39" transform="matrix(1.0, 0.0, 0.0, 1.0, 9.5, -10.7)">
      <path d="M7.95 36.65 Q9.75 24.15 -0.85 13.15 3.2 14.15 7.25 16.15 11.35 18.15 15.7 21.05 20.05 23.9 21.6 29.65 23.1 35.35 20.8 36.45 18.55 37.5 13.05 37.35 L7.95 36.65" fill="#713737" fill-rule="evenodd" stroke="none"/>
      <path d="M7.95 36.65 L13.05 37.35 Q18.55 37.5 20.8 36.45 23.1 35.35 21.6 29.65 20.05 23.9 15.7 21.05 11.35 18.15 7.25 16.15 3.2 14.15 -0.85 13.15 9.75 24.15 7.95 36.65 4.3 35.75 0.0 33.9 M-0.85 13.15 L-8.25 11.95" ffdec:has-small-stroke="true" ffdec:original-stroke-width="2.5" fill="none" stroke="#323232" stroke-linecap="round" stroke-linejoin="round" stroke-width="3.235135951044874"/>
    </g>
    <g id="shape40" transform="matrix(1.0, 0.0, 0.0, 1.0, -126.85, -11.5)">
      <path d="M129.75 14.95 Q127.9 12.7 132.25 11.65 136.65 10.85 141.45 14.0 L143.7 15.1 190.15 43.05 Q194.75 45.95 199.15 49.1 L200.35 49.95 Q204.6 53.1 208.6 56.75 L213.25 61.85 213.25 61.9 Q217.75 68.65 214.1 75.1 210.45 81.5 205.15 80.7 199.9 79.85 190.3 69.3 180.7 58.75 165.75 47.1 156.2 39.6 146.15 32.55 L139.4 27.85 126.85 19.1 Q126.75 17.55 128.0 17.45 L150.2 32.85 163.35 42.55 Q171.65 48.7 179.85 55.7 188.05 62.65 195.0 70.2 201.9 77.7 205.75 77.35 209.55 77.0 211.7 73.4 214.5 67.5 210.4 61.85 205.35 56.7 199.7 52.35 194.55 48.4 188.9 45.05 L142.8 17.1 Q135.8 11.9 129.75 14.95 M211.7 73.4 L211.75 73.4 211.7 73.4" fill="#323232" fill-rule="evenodd" stroke="none"/>
      <path d="M211.7 73.4 L211.75 73.4 211.7 73.4" fill="#bd1c1c" fill-rule="evenodd" stroke="none"/>
      <path d="M211.7 73.4 Q209.55 77.0 205.75 77.35 201.9 77.7 195.0 70.2 188.05 62.65 179.85 55.7 171.65 48.7 163.35 42.55 L150.2 32.85 128.0 17.45 129.6 15.15 129.45 15.1 129.55 15.05 129.75 14.95 175.55 46.75 Q184.8 52.85 190.15 58.1 195.45 63.3 202.55 68.6 207.85 72.55 211.7 73.4 M129.75 15.0 L130.1 15.35 129.75 14.95 129.75 15.0" fill="#bd3232" fill-rule="evenodd" stroke="none"/>
      <path d="M129.75 14.95 Q135.8 11.9 142.8 17.1 L188.9 45.05 Q194.55 48.4 199.7 52.35 205.35 56.7 210.4 61.85 214.5 67.5 211.7 73.4 207.85 72.55 202.55 68.6 195.45 63.3 190.15 58.1 184.8 52.85 175.55 46.75 L129.75 14.95 130.1 15.35 129.75 15.0 129.75 14.95" fill="#e63232" fill-rule="evenodd" stroke="none"/>
    </g>
    <g id="shape41" transform="matrix(1.0, 0.0, 0.0, 1.0, 33.8, 32.8)">
      <path d="M-25.5 -20.0 Q-21.8 -24.45 -16.3 -27.5 -4.5 -34.05 8.65 -30.65 21.8 -27.25 28.6 -15.85 35.5 -4.5 31.95 8.2 L31.25 10.4 Q27.55 14.8 22.0 17.85 10.15 24.45 -3.0 21.05 -16.15 17.65 -22.95 6.25 -29.75 -5.15 -26.2 -17.75 L-25.5 -20.0" fill="#e6e6e6" fill-rule="evenodd" stroke="none"/>
      <path d="M31.25 10.4 Q27.35 21.4 16.6 27.4 4.75 33.95 -8.4 30.55 -21.55 27.15 -28.4 15.75 -35.15 4.35 -31.6 -8.25 -29.75 -15.0 -25.5 -20.0 L-26.2 -17.75 Q-29.75 -5.15 -22.95 6.25 -16.15 17.65 -3.0 21.05 10.15 24.45 22.0 17.85 27.55 14.8 31.25 10.4" fill="#c0c0c0" fill-rule="evenodd" stroke="none"/>
      <path d="M28.6 -15.85 Q35.5 -4.5 31.95 8.2 28.4 20.8 16.6 27.4 4.75 33.95 -8.4 30.55 -21.55 27.15 -28.4 15.75 -35.15 4.35 -31.6 -8.25 -28.1 -20.9 -16.3 -27.5 -4.5 -34.05 8.65 -30.65 21.8 -27.25 28.6 -15.85 Z" ffdec:has-small-stroke="true" ffdec:original-stroke-width="2.0" fill="none" stroke="#323232" stroke-linecap="round" stroke-linejoin="round" stroke-width="2.5091012117841647"/>
    </g>
    <g id="shape42" transform="matrix(1.0, 0.0, 0.0, 1.0, 39.5, 33.95)">
      <path d="M21.55 16.8 Q18.15 20.8 10.75 23.05 3.3 25.3 -3.95 22.75 -11.25 20.15 -15.3 15.05 5.1 19.95 21.55 16.8" fill="#e63232" fill-rule="evenodd" stroke="none"/>
      <path d="M30.95 11.25 Q26.95 21.65 16.6 27.4 4.75 33.95 -8.4 30.55 -21.55 27.15 -28.4 15.75 -30.65 11.9 -31.75 7.95 -25.65 9.55 -14.15 11.45 -2.65 13.35 10.5 13.0 23.65 12.65 30.95 11.25 M21.55 16.8 Q5.1 19.95 -15.3 15.05 -11.25 20.15 -3.95 22.75 3.3 25.3 10.75 23.05 18.15 20.8 21.55 16.8" fill="#bd3232" fill-rule="evenodd" stroke="none"/>
      <path d="M30.95 11.25 Q26.95 21.65 16.6 27.4 4.75 33.95 -8.4 30.55 -21.55 27.15 -28.4 15.75 -30.65 11.9 -31.75 7.95 -25.65 9.55 -14.15 11.45 -2.65 13.35 10.5 13.0 23.65 12.65 30.95 11.25 Z" fill="none" stroke="#323232" stroke-linecap="round" stroke-linejoin="round" stroke-width="3.0"/>
      <path d="M-25.2 -21.35 L-25.15 -21.35 -25.0 -21.2 -25.2 -21.35" fill="#c0b9b1" fill-rule="evenodd" stroke="none"/>
      <path d="M-25.15 -21.35 Q-21.65 -25.25 -16.6 -28.05 -4.6 -34.75 8.85 -31.25 20.2 -28.35 27.0 -19.4 31.3 -4.45 28.15 7.8 L29.5 7.1 Q30.65 6.35 31.9 6.15 35.25 10.1 23.85 11.65 L22.7 11.8 22.1 11.85 22.1 11.95 Q11.9 13.05 2.3 12.25 -8.45 11.35 -13.5 8.85 -18.55 6.3 -22.0 3.35 -25.45 0.4 -26.65 -2.6 -28.15 -10.25 -25.7 -18.95 L-25.0 -21.2 -25.15 -21.35 M24.1 9.0 Q26.35 8.8 28.15 7.8 26.35 8.8 24.1 9.0" fill="#e63232" fill-rule="evenodd" stroke="none"/>
      <path d="M27.0 -19.4 Q35.85 -7.7 33.65 6.0 37.9 6.55 36.9 9.5 35.85 12.4 27.2 14.1 18.5 15.8 9.35 15.9 0.2 16.0 -9.15 14.55 L-25.05 11.8 -34.75 9.55 Q-37.9 8.55 -38.0 5.8 -38.15 3.05 -34.65 2.85 -34.75 0.2 -34.25 -2.5 -33.55 -7.1 -31.85 -11.5 -30.15 -15.95 -25.2 -21.35 L-25.0 -21.2 -25.7 -18.95 Q-28.15 -10.25 -26.65 -2.6 -25.45 0.4 -22.0 3.35 -18.55 6.3 -13.5 8.85 -8.45 11.35 2.3 12.25 11.9 13.05 22.1 11.95 L22.1 11.85 22.7 11.8 23.85 11.65 Q35.25 10.1 31.9 6.15 30.65 6.35 29.5 7.1 L28.15 7.8 Q31.3 -4.45 27.0 -19.4 M31.9 6.15 L33.65 6.0 31.9 6.15 M-31.3 3.8 Q-32.65 3.15 -34.6 2.85 L-34.65 2.85 -34.6 2.85 Q-32.65 3.15 -31.3 3.8" fill="#bd3232" fill-rule="evenodd" stroke="none"/>
      <path d="M-25.15 -21.35 Q-21.65 -25.25 -16.6 -28.05 -4.6 -34.75 8.85 -31.25 20.2 -28.35 27.0 -19.4 35.85 -7.7 33.65 6.0 37.9 6.55 36.9 9.5 35.85 12.4 27.2 14.1 18.5 15.8 9.35 15.9 0.2 16.0 -9.15 14.55 L-25.05 11.8 -34.75 9.55 Q-37.9 8.55 -38.0 5.8 -38.15 3.05 -34.65 2.85 -34.75 0.2 -34.25 -2.5 -33.55 -7.1 -31.85 -11.5 -30.15 -15.95 -25.2 -21.35 L-25.15 -21.35 M31.9 6.15 Q30.65 6.35 29.5 7.1 L28.15 7.8 Q26.35 8.8 24.1 9.0 M-34.65 2.85 L-34.6 2.85 Q-32.65 3.15 -31.3 3.8 M33.65 6.0 L31.9 6.15" fill="none" stroke="#323232" stroke-linecap="round" stroke-linejoin="round" stroke-width="3.0"/>
    </g>
    <g id="shape43" transform="matrix(1.0, 0.0, 0.0, 1.0, -196.95, -59.65)">
      <path d="M247.55 209.05 L250.2 209.05 Q251.5 206.65 250.65 204.0 249.65 200.95 247.2 195.95 L237.75 177.45 Q236.4 174.55 236.05 172.75 235.5 170.3 235.45 167.8 L234.75 153.8 230.7 117.05 229.15 107.5 Q228.05 101.85 226.6 96.25 225.35 91.5 223.7 86.9 221.4 80.7 218.3 74.85 215.7 70.05 212.55 65.4 210.2 61.45 207.35 59.85 212.0 61.05 214.9 64.9 217.8 68.75 220.2 73.75 L225.0 83.85 Q227.35 89.55 228.85 95.5 L231.4 106.95 233.0 116.65 235.65 137.65 237.6 162.0 Q237.9 167.3 237.7 168.0 242.2 182.8 247.05 191.75 251.85 200.7 252.4 202.35 L253.0 205.1 253.15 207.5 252.95 208.5 252.2 210.05 251.0 211.4 246.0 211.8 Q241.45 212.05 233.25 207.1 225.0 202.05 223.1 200.0 221.15 197.95 219.05 194.55 216.8 190.9 215.45 187.15 213.6 182.2 213.0 177.05 212.45 171.9 212.85 166.6 213.35 160.75 213.4 154.9 213.5 146.1 212.65 137.25 211.8 128.5 210.35 119.85 208.8 111.05 206.55 102.5 203.45 90.95 199.15 79.7 198.4 77.95 197.35 73.3 196.3 68.65 198.0 63.95 197.8 71.55 200.9 78.35 203.45 84.05 205.35 90.4 L211.3 113.65 213.35 125.3 214.85 137.05 Q215.8 145.9 215.75 154.85 L215.5 174.8 Q215.45 176.8 215.8 178.85 217.05 187.6 222.1 194.8 L224.5 197.9 Q229.35 203.65 236.55 205.95 L247.55 209.05" fill="#323232" fill-rule="evenodd" stroke="none"/>
      <path d="M198.0 63.95 Q199.8 69.1 201.75 73.4 203.65 77.65 206.95 82.6 210.2 87.55 212.5 96.55 L217.25 116.9 220.75 138.2 223.05 160.35 224.05 183.2 Q230.75 194.15 247.55 209.05 L236.55 205.95 Q229.35 203.65 224.5 197.9 L222.1 194.8 Q217.05 187.6 215.8 178.85 215.45 176.8 215.5 174.8 L215.75 154.85 Q215.8 145.9 214.85 137.05 L213.35 125.3 211.3 113.65 205.35 90.4 Q203.45 84.05 200.9 78.35 197.8 71.55 198.0 63.95" fill="#bd3232" fill-rule="evenodd" stroke="none"/>
      <path d="M247.55 209.05 Q230.75 194.15 224.05 183.2 L223.05 160.35 220.75 138.2 217.25 116.9 212.5 96.55 Q210.2 87.55 206.95 82.6 203.65 77.65 201.75 73.4 199.8 69.1 198.0 63.95 200.35 58.7 207.35 59.85 210.2 61.45 212.55 65.4 215.7 70.05 218.3 74.85 221.4 80.7 223.7 86.9 225.35 91.5 226.6 96.25 228.05 101.85 229.15 107.5 L230.7 117.05 234.75 153.8 235.45 167.8 Q235.5 170.3 236.05 172.75 236.4 174.55 237.75 177.45 L247.2 195.95 Q249.65 200.95 250.65 204.0 251.5 206.65 250.2 209.05 L247.55 209.05" fill="#e63232" fill-rule="evenodd" stroke="none"/>
    </g>
    <g id="shape44" transform="matrix(1.0, 0.0, 0.0, 1.0, 14.35, 5.7)">
      <path d="M9.75 -1.0 L12.3 1.6 Q13.65 3.15 14.35 5.75 13.95 5.0 12.2 3.8 6.35 -0.3 -0.75 -0.9 -7.9 -1.55 -12.9 -0.1 -14.25 -0.7 -14.35 -1.9 -14.5 -3.1 -13.7 -4.3 -11.05 -5.35 -5.7 -5.65 -0.35 -5.95 4.1 -3.95 8.5 -2.05 9.75 -1.0" fill="#323232" fill-rule="evenodd" stroke="none"/>
    </g>
    <g id="shape45" transform="matrix(1.0, 0.0, 0.0, 1.0, 0.0, 0.0)">
      <path d="M100.6 0.0 L100.6 18.0 0.0 18.0 0.0 0.0 100.6 0.0" fill="#ffffff" fill-opacity="0.0" fill-rule="evenodd" stroke="none"/>
    </g>
  </defs>
</svg>
