<?xml version="1.0" encoding="UTF-8" standalone="no"?>
<svg xmlns:ffdec="https://www.free-decompiler.com/flash" xmlns:xlink="http://www.w3.org/1999/xlink" ffdec:objectType="frame" height="12.0px" width="116.75px" xmlns="http://www.w3.org/2000/svg">
  <g transform="matrix(1.0, 0.0, 0.0, 1.0, 0.0, 0.0)">
    <filter id="filter0">
      <feConvolveMatrix divisor="0.0" in="SourceGraphic" kernelMatrix="" order="1 0" result="filterResult0"/>
    </filter>
    <use ffdec:characterId="87" filter="url(#filter0)" height="12.0" transform="matrix(1.0, 0.0, 0.0, 1.0, 0.0, 0.0)" width="116.75" xlink:href="#sprite0"/>
  </g>
  <defs>
    <g id="sprite0" transform="matrix(1.0, 0.0, 0.0, 1.0, 0.0, 0.0)">
      <use ffdec:characterId="86" height="12.0" transform="matrix(1.0, 0.0, 0.0, 1.0, 0.0, 0.0)" width="116.75" xlink:href="#shape0"/>
    </g>
    <g id="shape0" transform="matrix(1.0, 0.0, 0.0, 1.0, 0.0, 0.0)">
      <path d="M96.75 0.0 L90.0 12.0 80.0 12.0 86.75 0.0 96.75 0.0 M100.0 12.0 L106.75 0.0 116.75 0.0 110.0 12.0 100.0 12.0 M56.75 0.0 L50.0 12.0 40.0 12.0 46.75 0.0 56.75 0.0 M60.0 12.0 L66.75 0.0 76.75 0.0 70.0 12.0 60.0 12.0 M16.75 0.0 L10.0 12.0 0.0 12.0 6.75 0.0 16.75 0.0 M20.0 12.0 L26.75 0.0 36.75 0.0 30.0 12.0 20.0 12.0" fill="#ff9900" fill-rule="evenodd" stroke="none"/>
    </g>
  </defs>
</svg>
