<?xml version="1.0" encoding="UTF-8" standalone="no"?>
<svg xmlns:ffdec="https://www.free-decompiler.com/flash" xmlns:xlink="http://www.w3.org/1999/xlink" ffdec:objectType="frame" height="66.85px" width="101.75px" xmlns="http://www.w3.org/2000/svg">
  <g transform="matrix(1.0, 0.0, 0.0, 1.0, 105.75, 32.1)">
    <use ffdec:characterId="502" height="45.05" transform="matrix(0.6873, 0.0, 0.0, 1.2442, -29.45, -30.9)" width="37.05" xlink:href="#sprite0"/>
    <use ffdec:characterId="491" height="42.8" transform="matrix(0.6873, 0.0, 0.0, 1.2442, -45.55, -19.25)" width="29.75" xlink:href="#sprite1"/>
    <use ffdec:characterId="491" height="42.8" transform="matrix(0.6873, 0.0, 0.0, 1.2442, -64.2, -30.9)" width="29.75" xlink:href="#sprite1"/>
    <use ffdec:characterId="489" height="44.3" transform="matrix(0.6873, 0.0, 0.0, 1.2442, -82.95, -20.35)" width="30.5" xlink:href="#sprite2"/>
    <use ffdec:characterId="504" height="45.15" transform="matrix(0.6873, 0.0, 0.0, 1.2442, -105.75, -32.1)" width="35.6" xlink:href="#sprite3"/>
  </g>
  <defs>
    <g id="sprite0" transform="matrix(1.0, 0.0, 0.0, 1.0, 0.0, 0.0)">
      <use ffdec:characterId="501" height="45.05" transform="matrix(1.0, 0.0, 0.0, 1.0, 0.0, 0.0)" width="37.05" xlink:href="#shape0"/>
    </g>
    <g id="shape0" transform="matrix(1.0, 0.0, 0.0, 1.0, 0.0, 0.0)">
      <path d="M23.4 13.05 L21.55 15.6 Q18.3 14.45 18.25 12.15 18.15 9.25 20.75 9.1 23.4 9.25 23.4 13.05" fill="url(#gradient0)" fill-rule="evenodd" stroke="none"/>
      <path d="M29.3 17.75 Q26.55 16.7 23.35 16.05 L21.55 15.6 23.4 13.05 36.65 12.5 32.9 17.6 29.3 17.75" fill="#790000" fill-rule="evenodd" stroke="none"/>
      <path d="M21.55 15.6 L23.35 16.05 Q26.55 16.7 29.3 17.75 L31.55 18.7 32.2 19.0 Q37.4 22.0 37.05 28.25 36.85 31.55 35.2 34.05 L34.65 34.8 32.65 36.75 32.35 36.95 Q27.2 40.15 20.2 39.95 12.05 39.85 7.7 35.95 5.4 33.9 4.45 31.2 3.6 28.8 3.8 25.9 L4.7 25.95 17.45 26.55 Q17.1 30.7 20.65 30.4 22.85 29.4 22.65 27.2 22.4 25.0 14.8 23.45 8.55 22.15 6.2 18.45 L5.35 16.7 Q3.85 11.45 4.95 7.85 L5.75 6.0 6.0 5.55 7.6 3.65 Q12.35 -0.7 19.25 0.1 27.65 -0.55 32.35 3.3 36.05 7.05 36.65 12.5 L23.4 13.05 Q23.4 9.25 20.75 9.1 18.15 9.25 18.25 12.15 18.3 14.45 21.55 15.6" fill="url(#gradient1)" fill-rule="evenodd" stroke="none"/>
      <path d="M4.7 25.95 Q2.5 24.3 1.6 21.8 1.1 20.0 0.9 18.4 0.35 14.1 1.95 11.2 L2.1 10.9 3.2 9.45 5.75 6.0 4.95 7.85 Q3.85 11.45 5.35 16.7 L6.2 18.45 Q8.55 22.15 14.8 23.45 22.4 25.0 22.65 27.2 22.85 29.4 20.65 30.4 17.1 30.7 17.45 26.55 L4.7 25.95" fill="url(#gradient2)" fill-rule="evenodd" stroke="none"/>
      <path d="M34.65 34.8 L31.15 39.55 28.6 42.05 Q23.45 45.25 16.45 45.05 8.3 44.95 3.95 41.05 -0.4 37.15 0.05 31.0 L3.8 25.9 Q3.6 28.8 4.45 31.2 5.4 33.9 7.7 35.95 12.05 39.85 20.2 39.95 27.2 40.15 32.35 36.95 L32.65 36.75 34.65 34.8" fill="url(#gradient3)" fill-rule="evenodd" stroke="none"/>
      <path d="M34.65 34.8 L32.65 36.75 32.35 36.95 Q27.2 40.15 20.2 39.95 12.05 39.85 7.7 35.95 5.4 33.9 4.45 31.2 3.6 28.8 3.8 25.9" fill="none" stroke="url(#gradient4)" stroke-linecap="round" stroke-linejoin="round" stroke-width="1.0"/>
    </g>
    <linearGradient gradientTransform="matrix(0.0047, 0.0038, -0.0025, 0.0031, 18.65, 10.3)" gradientUnits="userSpaceOnUse" id="gradient0" spreadMethod="pad" x1="-819.2" x2="819.2">
      <stop offset="0.1803921568627451" stop-color="#aa0000"/>
      <stop offset="0.5019607843137255" stop-color="#790000"/>
      <stop offset="0.803921568627451" stop-color="#790000"/>
      <stop offset="0.9882352941176471" stop-color="#930000"/>
    </linearGradient>
    <linearGradient gradientTransform="matrix(0.0, 0.022, -0.0238, 0.0, 268.35, 20.0)" gradientUnits="userSpaceOnUse" id="gradient1" spreadMethod="pad" x1="-819.2" x2="819.2">
      <stop offset="0.0" stop-color="#ff452e"/>
      <stop offset="1.0" stop-color="#e00a0a"/>
    </linearGradient>
    <linearGradient gradientTransform="matrix(0.016, 0.013, -0.0094, 0.0115, 16.15, 21.0)" gradientUnits="userSpaceOnUse" id="gradient2" spreadMethod="pad" x1="-819.2" x2="819.2">
      <stop offset="0.1803921568627451" stop-color="#aa0000"/>
      <stop offset="0.5019607843137255" stop-color="#790000"/>
      <stop offset="0.803921568627451" stop-color="#790000"/>
      <stop offset="0.9882352941176471" stop-color="#930000"/>
    </linearGradient>
    <linearGradient gradientTransform="matrix(0.0166, 0.0135, -0.0093, 0.0115, 16.8, 35.95)" gradientUnits="userSpaceOnUse" id="gradient3" spreadMethod="pad" x1="-819.2" x2="819.2">
      <stop offset="0.1803921568627451" stop-color="#aa0000"/>
      <stop offset="0.5019607843137255" stop-color="#790000"/>
      <stop offset="0.803921568627451" stop-color="#790000"/>
      <stop offset="0.9882352941176471" stop-color="#930000"/>
    </linearGradient>
    <radialGradient cx="0" cy="0" gradientTransform="matrix(0.0238, 0.0, 0.0, 0.0102, 18.25, 36.5)" gradientUnits="userSpaceOnUse" id="gradient4" r="819.2" spreadMethod="pad">
      <stop offset="0.12941176470588237" stop-color="#ffe48e" stop-opacity="0.4"/>
      <stop offset="1.0" stop-color="#ffe983" stop-opacity="0.0"/>
    </radialGradient>
    <g id="sprite1" transform="matrix(1.0, 0.0, 0.0, 1.0, 0.0, 0.0)">
      <use ffdec:characterId="490" height="42.8" transform="matrix(1.0, 0.0, 0.0, 1.0, 0.0, 0.0)" width="29.75" xlink:href="#shape1"/>
    </g>
    <g id="shape1" transform="matrix(1.0, 0.0, 0.0, 1.0, 0.0, 0.0)">
      <path d="M3.75 0.65 L4.0 5.85 4.4 20.95 4.5 37.2 0.75 42.3 0.55 21.05 0.0 5.75 3.75 0.65" fill="#ab0404" fill-rule="evenodd" stroke="none"/>
      <path d="M4.5 37.2 L4.4 20.95 4.0 5.85 3.75 0.65 17.3 0.0 Q17.05 10.6 17.55 20.7 L17.9 26.6 29.75 26.2 Q28.9 31.9 29.05 37.55 L4.5 37.2" fill="url(#gradient5)" fill-rule="evenodd" stroke="none"/>
      <path d="M4.5 37.2 L29.05 37.55 25.3 42.65 0.75 42.3 4.5 37.2" fill="#790000" fill-rule="evenodd" stroke="none"/>
      <path d="M3.75 0.65 L4.0 5.85 4.4 20.95 4.5 37.2 29.05 37.55 M0.75 42.3 L4.5 37.2" fill="none" stroke="url(#gradient6)" stroke-linecap="round" stroke-linejoin="round" stroke-width="1.0"/>
    </g>
    <linearGradient gradientTransform="matrix(0.0, 0.0231, -0.024, 0.0, -267.75, 18.95)" gradientUnits="userSpaceOnUse" id="gradient5" spreadMethod="pad" x1="-819.2" x2="819.2">
      <stop offset="0.0" stop-color="#ff452e"/>
      <stop offset="1.0" stop-color="#e00a0a"/>
    </linearGradient>
    <radialGradient cx="0" cy="0" gradientTransform="matrix(0.0226, 0.0, 0.0, 0.0089, 9.75, 34.75)" gradientUnits="userSpaceOnUse" id="gradient6" r="819.2" spreadMethod="pad">
      <stop offset="0.12941176470588237" stop-color="#ffe48e" stop-opacity="0.4"/>
      <stop offset="1.0" stop-color="#ffe983" stop-opacity="0.0"/>
    </radialGradient>
    <g id="sprite2" transform="matrix(1.0, 0.0, 0.0, 1.0, 0.0, 0.0)">
      <use ffdec:characterId="488" height="44.3" transform="matrix(1.0, 0.0, 0.0, 1.0, 0.0, 0.0)" width="30.5" xlink:href="#shape2"/>
    </g>
    <g id="shape2" transform="matrix(1.0, 0.0, 0.0, 1.0, 0.0, 0.0)">
      <path d="M27.65 24.8 L24.6 28.95 17.7 28.85 17.8 25.1 27.65 24.8 M30.0 39.2 L26.25 44.3 Q13.35 43.2 0.85 43.7 L4.6 38.6 Q15.25 38.15 26.15 38.9 L30.0 39.2 M29.45 11.05 L26.55 15.0 17.85 15.05 17.7 11.05 29.45 11.05" fill="#790000" fill-rule="evenodd" stroke="none"/>
      <path d="M26.55 15.0 L27.65 15.0 Q27.15 19.9 27.65 24.8 L17.8 25.1 17.7 28.85 24.6 28.95 29.8 29.0 30.0 39.2 26.15 38.9 Q15.25 38.15 4.6 38.6 L4.55 26.65 4.5 24.2 4.0 6.3 3.75 1.25 29.65 0.0 29.45 11.05 17.7 11.05 17.85 15.05 26.55 15.0" fill="url(#gradient7)" fill-rule="evenodd" stroke="none"/>
      <path d="M0.85 43.7 L0.75 29.3 0.7 26.7 0.0 6.35 3.75 1.25 4.0 6.3 4.5 24.2 4.55 26.65 4.6 38.6 0.85 43.7" fill="#ab0404" fill-rule="evenodd" stroke="none"/>
      <path d="M3.75 1.25 L4.0 6.3 4.5 24.2 4.55 26.65 4.6 38.6 Q15.25 38.15 26.15 38.9 L30.0 39.2 M0.85 43.7 L4.6 38.6" fill="none" stroke="url(#gradient8)" stroke-linecap="round" stroke-linejoin="round" stroke-width="1.0"/>
    </g>
    <linearGradient gradientTransform="matrix(0.0, 0.0231, -0.024, 0.0, -19.95, 20.0)" gradientUnits="userSpaceOnUse" id="gradient7" spreadMethod="pad" x1="-819.2" x2="819.2">
      <stop offset="0.0" stop-color="#ff452e"/>
      <stop offset="1.0" stop-color="#e00a0a"/>
    </linearGradient>
    <radialGradient cx="0" cy="0" gradientTransform="matrix(0.0226, 0.0, 0.0, 0.0095, 10.0, 35.5)" gradientUnits="userSpaceOnUse" id="gradient8" r="819.2" spreadMethod="pad">
      <stop offset="0.12941176470588237" stop-color="#ffe48e" stop-opacity="0.4"/>
      <stop offset="1.0" stop-color="#ffe983" stop-opacity="0.0"/>
    </radialGradient>
    <g id="sprite3" transform="matrix(1.0, 0.0, 0.0, 1.0, 0.0, 0.0)">
      <use ffdec:characterId="503" height="45.15" transform="matrix(1.0, 0.0, 0.0, 1.0, 0.0, 0.0)" width="35.6" xlink:href="#shape3"/>
    </g>
    <g id="shape3" transform="matrix(1.0, 0.0, 0.0, 1.0, 0.0, 0.0)">
      <path d="M3.75 1.6 Q12.55 -0.35 21.7 0.05 32.25 1.25 33.35 9.3 33.75 13.85 31.95 16.7 L31.35 17.55 30.0 19.4 Q35.85 21.6 35.6 28.6 L35.4 30.5 Q35.1 32.6 34.1 34.2 L33.3 35.3 31.35 37.0 Q27.35 39.75 19.4 40.05 L4.65 39.2 4.8 29.2 Q4.85 17.15 4.1 5.95 L3.75 1.6 M18.65 31.4 Q21.7 31.15 22.45 28.85 L22.65 27.5 Q22.35 24.15 18.2 24.0 L17.2 24.0 17.25 29.8 17.25 31.4 18.65 31.4 M17.1 14.75 L17.1 15.9 17.5 15.95 18.1 15.95 Q21.95 15.85 22.05 12.25 22.05 8.6 17.05 8.95 L17.1 14.75" fill="url(#gradient9)" fill-rule="evenodd" stroke="none"/>
      <path d="M17.25 29.8 L17.2 24.0 18.2 24.0 Q22.35 24.15 22.65 27.5 L22.45 28.85 Q21.7 31.15 18.65 31.4 18.2 30.35 17.25 29.8 M17.1 14.75 L17.05 8.95 Q22.05 8.6 22.05 12.25 21.95 15.85 18.1 15.95 17.75 15.2 17.1 14.75" fill="#790000" fill-rule="evenodd" stroke="none"/>
      <path d="M3.75 1.6 L4.1 5.95 Q4.85 17.15 4.8 29.2 L4.65 39.2 0.9 44.3 1.05 29.25 Q0.9 17.6 0.0 6.7 L3.75 1.6" fill="#ab0404" fill-rule="evenodd" stroke="none"/>
      <path d="M4.65 39.2 L19.4 40.05 Q27.35 39.75 31.35 37.0 L33.3 35.3 30.3 39.35 Q26.9 44.7 15.65 45.15 L0.9 44.3 4.65 39.2" fill="url(#gradient10)" fill-rule="evenodd" stroke="none"/>
      <path d="M3.75 1.6 L4.1 5.95 Q4.85 17.15 4.8 29.2 L4.65 39.2 19.4 40.05 Q27.35 39.75 31.35 37.0 L33.3 35.3 M0.9 44.3 L4.65 39.2" fill="none" stroke="url(#gradient11)" stroke-linecap="round" stroke-linejoin="round" stroke-width="1.0"/>
    </g>
    <linearGradient gradientTransform="matrix(0.0, 0.0231, -0.024, 0.0, 100.55, 20.3)" gradientUnits="userSpaceOnUse" id="gradient9" spreadMethod="pad" x1="-819.2" x2="819.2">
      <stop offset="0.0" stop-color="#ff452e"/>
      <stop offset="1.0" stop-color="#e00a0a"/>
    </linearGradient>
    <linearGradient gradientTransform="matrix(0.0158, 0.0118, -0.0036, 0.0048, 10.95, 37.85)" gradientUnits="userSpaceOnUse" id="gradient10" spreadMethod="pad" x1="-819.2" x2="819.2">
      <stop offset="0.1803921568627451" stop-color="#aa0000"/>
      <stop offset="0.5019607843137255" stop-color="#790000"/>
      <stop offset="0.803921568627451" stop-color="#790000"/>
      <stop offset="0.9882352941176471" stop-color="#930000"/>
    </linearGradient>
    <radialGradient cx="0" cy="0" gradientTransform="matrix(0.0256, 0.0, 0.0, 0.0098, 10.25, 36.75)" gradientUnits="userSpaceOnUse" id="gradient11" r="819.2" spreadMethod="pad">
      <stop offset="0.12941176470588237" stop-color="#ffe48e" stop-opacity="0.4"/>
      <stop offset="1.0" stop-color="#ffe983" stop-opacity="0.0"/>
    </radialGradient>
  </defs>
</svg>
