<?xml version="1.0" encoding="UTF-8" standalone="no"?>
<svg xmlns:ffdec="https://www.free-decompiler.com/flash" xmlns:xlink="http://www.w3.org/1999/xlink" ffdec:objectType="frame" height="42.6px" width="42.6px" xmlns="http://www.w3.org/2000/svg">
  <g transform="matrix(1.0, 0.0, 0.0, 1.0, -6.8, 3.7)">
    <use ffdec:characterId="2587" height="42.6" transform="matrix(1.0, 0.0, 0.0, 1.0, 6.8, -3.7)" width="42.6" xlink:href="#sprite0"/>
  </g>
  <defs>
    <g id="sprite0" transform="matrix(1.0, 0.0, 0.0, 1.0, 0.75, 0.75)">
      <use ffdec:characterId="2586" height="42.6" transform="matrix(1.0, 0.0, 0.0, 1.0, -0.75, -0.75)" width="42.6" xlink:href="#shape0"/>
    </g>
    <g id="shape0" transform="matrix(1.0, 0.0, 0.0, 1.0, 0.75, 0.75)">
      <path d="M0.0 20.55 Q0.0 12.05 6.0 6.0 12.05 0.0 20.55 0.0 29.05 0.0 35.05 6.0 41.1 12.05 41.1 20.55 41.1 29.05 35.05 35.05 29.05 41.1 20.55 41.1 12.05 41.1 6.0 35.05 0.0 29.05 0.0 20.55" fill="url(#gradient0)" fill-rule="evenodd" stroke="none"/>
      <path d="M0.0 20.55 Q0.0 12.05 6.0 6.0 12.05 0.0 20.55 0.0 29.05 0.0 35.05 6.0 41.1 12.05 41.1 20.55 41.1 29.05 35.05 35.05 29.05 41.1 20.55 41.1 12.05 41.1 6.0 35.05 0.0 29.05 0.0 20.55 Z" fill="none" stroke="#676767" stroke-linecap="round" stroke-linejoin="round" stroke-width="1.5"/>
    </g>
    <linearGradient gradientTransform="matrix(0.0, 0.0251, -0.0251, 0.0, 20.55, 20.55)" gradientUnits="userSpaceOnUse" id="gradient0" spreadMethod="pad" x1="-819.2" x2="819.2">
      <stop offset="0.027450980392156862" stop-color="#ffffff"/>
      <stop offset="0.6039215686274509" stop-color="#eeeeee"/>
    </linearGradient>
  </defs>
</svg>
