<?xml version="1.0" encoding="UTF-8" standalone="no"?>
<svg xmlns:ffdec="https://www.free-decompiler.com/flash" xmlns:xlink="http://www.w3.org/1999/xlink" ffdec:objectType="frame" height="77.7px" width="139.6px" xmlns="http://www.w3.org/2000/svg">
  <g transform="matrix(1.0, 0.0, 0.0, 1.0, 141.75, 24.1)">
    <use ffdec:characterId="1055" height="44.8" transform="matrix(0.7895, 0.0, 0.0, 1.4303, -16.95, -13.2152)" width="18.75" xlink:href="#sprite0"/>
    <use ffdec:characterId="1056" height="44.5" transform="matrix(0.7901, 0.0, 0.0, 1.4303, -40.4, -24.1)" width="32.5" xlink:href="#sprite1"/>
    <use ffdec:characterId="1057" height="45.8" transform="matrix(0.7901, 0.0, 0.0, 1.4303, -65.245, -13.9652)" width="39.95" xlink:href="#sprite2"/>
    <use ffdec:characterId="1058" height="44.3" transform="matrix(0.7901, 0.0, 0.0, 1.4303, -86.05, -22.75)" width="30.5" xlink:href="#sprite3"/>
    <use ffdec:characterId="968" height="46.75" transform="matrix(0.7901, 0.0, 0.0, 1.4303, -112.229, -13.25)" width="37.7" xlink:href="#sprite4"/>
    <use ffdec:characterId="1059" height="45.8" transform="matrix(0.7901, 0.0, 0.0, 1.4303, -141.75, -22.3)" width="38.65" xlink:href="#sprite5"/>
  </g>
  <defs>
    <g id="sprite0" transform="matrix(1.0, 0.0, 0.0, 1.0, 0.0, 0.5)">
      <use ffdec:characterId="517" height="44.8" transform="matrix(1.0, 0.0, 0.0, 1.0, 0.0, -0.5)" width="18.75" xlink:href="#shape0"/>
    </g>
    <g id="shape0" transform="matrix(1.0, 0.0, 0.0, 1.0, 0.0, 0.5)">
      <path d="M3.8 0.0 L5.55 23.6 1.8 28.7 0.05 5.1 3.8 0.0" fill="#ab0404" fill-rule="evenodd" stroke="none"/>
      <path d="M3.8 0.0 L18.4 0.75 16.9 24.1 5.55 23.6 3.8 0.0 M14.75 27.05 Q15.95 27.45 16.8 28.25 L17.05 28.5 Q18.9 30.5 18.75 33.1 18.6 35.3 17.1 37.0 L16.8 37.35 16.55 37.55 15.0 38.6 Q13.25 39.35 10.7 39.2 6.85 38.95 5.25 37.2 3.65 35.4 3.75 32.8 L3.8 32.05 Q4.0 30.25 4.95 28.85 L5.3 28.35 Q5.75 27.8 6.45 27.4 8.05 26.5 11.0 26.5 L13.3 26.7 14.75 27.05" fill="url(#gradient0)" fill-rule="evenodd" stroke="none"/>
      <path d="M5.55 23.6 L16.9 24.1 14.75 27.05 13.3 26.7 11.0 26.5 Q8.05 26.5 6.45 27.4 5.75 27.8 5.3 28.35 L4.95 28.85 1.8 28.7 5.55 23.6" fill="#790000" fill-rule="evenodd" stroke="none"/>
      <path d="M16.8 37.35 L14.0 41.3 13.7 41.7 12.8 42.65 Q10.8 44.5 6.95 44.3 3.1 44.05 1.5 42.3 -0.1 40.5 0.0 37.9 0.05 35.6 1.25 33.9 L1.55 33.45 4.95 28.85 Q4.0 30.25 3.8 32.05 L3.75 32.8 Q3.65 35.4 5.25 37.2 6.85 38.95 10.7 39.2 13.25 39.35 15.0 38.6 L16.55 37.55 16.8 37.35" fill="url(#gradient1)" fill-rule="evenodd" stroke="none"/>
      <path d="M3.8 0.0 L5.55 23.6 16.9 24.1 M1.8 28.7 L5.55 23.6" fill="none" stroke="url(#gradient2)" stroke-linecap="round" stroke-linejoin="round" stroke-width="1.0"/>
      <path d="M16.8 37.35 L16.55 37.55 15.0 38.6 Q13.25 39.35 10.7 39.2 6.85 38.95 5.25 37.2 3.65 35.4 3.75 32.8 L3.8 32.05 Q4.0 30.25 4.95 28.85" fill="none" stroke="url(#gradient3)" stroke-linecap="round" stroke-linejoin="round" stroke-width="1.0"/>
    </g>
    <linearGradient gradientTransform="matrix(0.0, 0.0244, -0.0089, 0.0, 10.55, 19.25)" gradientUnits="userSpaceOnUse" id="gradient0" spreadMethod="pad" x1="-819.2" x2="819.2">
      <stop offset="0.0" stop-color="#ff452e"/>
      <stop offset="1.0" stop-color="#e00a0a"/>
    </linearGradient>
    <linearGradient gradientTransform="matrix(0.0071, 0.0054, -0.0057, 0.0075, 8.7, 35.3)" gradientUnits="userSpaceOnUse" id="gradient1" spreadMethod="pad" x1="-819.2" x2="819.2">
      <stop offset="0.1803921568627451" stop-color="#aa0000"/>
      <stop offset="0.5019607843137255" stop-color="#790000"/>
      <stop offset="0.803921568627451" stop-color="#790000"/>
      <stop offset="0.9882352941176471" stop-color="#930000"/>
    </linearGradient>
    <radialGradient cx="0" cy="0" gradientTransform="matrix(0.0189, 0.0, 0.0, 0.01, 8.75, 20.5)" gradientUnits="userSpaceOnUse" id="gradient2" r="819.2" spreadMethod="pad">
      <stop offset="0.12941176470588237" stop-color="#ffe48e" stop-opacity="0.4"/>
      <stop offset="1.0" stop-color="#ffe983" stop-opacity="0.0"/>
    </radialGradient>
    <radialGradient cx="0" cy="0" gradientTransform="matrix(0.011, 0.0, 0.0, 0.0081, 8.75, 37.0)" gradientUnits="userSpaceOnUse" id="gradient3" r="819.2" spreadMethod="pad">
      <stop offset="0.12941176470588237" stop-color="#ffe48e" stop-opacity="0.4"/>
      <stop offset="1.0" stop-color="#ffe983" stop-opacity="0.0"/>
    </radialGradient>
    <g id="sprite1" transform="matrix(1.0, 0.0, 0.0, 1.0, 0.0, 0.0)">
      <use ffdec:characterId="513" height="44.5" transform="matrix(1.0, 0.0, 0.0, 1.0, 0.0, 0.0)" width="32.5" xlink:href="#shape1"/>
    </g>
    <g id="shape1" transform="matrix(1.0, 0.0, 0.0, 1.0, 0.0, 0.0)">
      <path d="M24.8 16.9 L24.85 11.8 32.2 11.75 28.45 16.85 24.8 16.9 M4.25 11.85 L11.9 11.85 8.15 16.95 0.5 16.95 4.25 11.85 M11.7 38.9 L25.35 38.75 21.6 43.85 7.95 44.0 11.7 38.9" fill="#790000" fill-rule="evenodd" stroke="none"/>
      <path d="M32.2 11.75 L24.85 11.8 24.8 16.9 24.8 18.6 Q24.85 28.4 25.35 38.75 L11.7 38.9 Q12.1 28.8 12.05 18.5 L11.9 11.85 4.25 11.85 3.75 0.2 Q17.45 0.6 32.5 0.0 L32.2 11.75" fill="url(#gradient4)" fill-rule="evenodd" stroke="none"/>
      <path d="M3.75 0.2 L4.25 11.85 0.5 16.95 0.0 5.3 3.75 0.2 M11.9 11.85 L12.05 18.5 Q12.1 28.8 11.7 38.9 L7.95 44.0 Q8.45 31.4 8.2 18.45 L8.15 16.95 11.9 11.85" fill="#ab0404" fill-rule="evenodd" stroke="none"/>
      <path d="M11.9 11.85 L12.05 18.5 Q12.1 28.8 11.7 38.9 L25.35 38.75 M11.7 38.9 L7.95 44.0" fill="none" stroke="url(#gradient5)" stroke-linecap="round" stroke-linejoin="round" stroke-width="1.0"/>
    </g>
    <linearGradient gradientTransform="matrix(0.0, 0.022, -0.0238, 0.0, 229.2, 19.6)" gradientUnits="userSpaceOnUse" id="gradient4" spreadMethod="pad" x1="-819.2" x2="819.2">
      <stop offset="0.0" stop-color="#ff452e"/>
      <stop offset="1.0" stop-color="#e00a0a"/>
    </linearGradient>
    <radialGradient cx="0" cy="0" gradientTransform="matrix(0.0208, 0.0, 0.0, 0.01, 15.25, 35.5)" gradientUnits="userSpaceOnUse" id="gradient5" r="819.2" spreadMethod="pad">
      <stop offset="0.12941176470588237" stop-color="#ffe48e" stop-opacity="0.4"/>
      <stop offset="1.0" stop-color="#ffe983" stop-opacity="0.0"/>
    </radialGradient>
    <g id="sprite2" transform="matrix(1.0, 0.0, 0.0, 1.0, 0.5, 0.5)">
      <use ffdec:characterId="534" height="45.8" transform="matrix(1.0, 0.0, 0.0, 1.0, -0.5, -0.5)" width="39.95" xlink:href="#shape2"/>
    </g>
    <g id="shape2" transform="matrix(1.0, 0.0, 0.0, 1.0, 0.5, 0.5)">
      <path d="M22.6 23.15 L20.85 11.1 19.15 23.5 22.6 23.15 M3.75 37.35 L5.6 29.45 Q8.3 17.25 10.4 5.25 L11.3 0.0 Q19.4 0.5 30.6 0.55 L38.95 38.85 24.65 39.7 23.75 30.8 18.2 31.25 17.25 36.15 16.8 38.35 3.75 37.35" fill="url(#gradient6)" fill-rule="evenodd" stroke="none"/>
      <path d="M22.6 23.15 L19.15 23.5 20.85 11.1 22.6 23.15 M3.75 37.35 L16.8 38.35 13.05 43.45 0.0 42.45 3.75 37.35 M17.25 36.15 L18.2 31.25 23.75 30.8 20.0 35.9 17.25 36.15 M24.65 39.7 L38.95 38.85 35.2 43.95 20.9 44.8 24.65 39.7" fill="#790000" fill-rule="evenodd" stroke="none"/>
      <path d="M11.3 0.0 L10.4 5.25 Q8.3 17.25 5.6 29.45 L3.75 37.35 0.0 42.45 2.95 29.5 Q5.55 17.2 7.55 5.1 L11.3 0.0" fill="#ab0404" fill-rule="evenodd" stroke="none"/>
      <path d="M23.75 30.8 L24.65 39.7 20.9 44.8 20.0 35.9 23.75 30.8" fill="#9a0000" fill-rule="evenodd" stroke="none"/>
      <path d="M11.3 0.0 L10.4 5.25 Q8.3 17.25 5.6 29.45 L3.75 37.35 16.8 38.35 M0.0 42.45 L3.75 37.35" fill="none" stroke="url(#gradient7)" stroke-linecap="round" stroke-linejoin="round" stroke-width="1.0"/>
      <path d="M18.2 31.25 L23.75 30.8 24.65 39.7 38.95 38.85 M20.9 44.8 L24.65 39.7" fill="none" stroke="url(#gradient8)" stroke-linecap="round" stroke-linejoin="round" stroke-width="1.0"/>
    </g>
    <linearGradient gradientTransform="matrix(0.0, 0.0231, -0.024, 0.0, 142.65, 19.8)" gradientUnits="userSpaceOnUse" id="gradient6" spreadMethod="pad" x1="-819.2" x2="819.2">
      <stop offset="0.0" stop-color="#ff452e"/>
      <stop offset="1.0" stop-color="#e00a0a"/>
    </linearGradient>
    <radialGradient cx="0" cy="0" gradientTransform="matrix(0.0153, 0.0, 0.0, 0.0096, 8.25, 35.0)" gradientUnits="userSpaceOnUse" id="gradient7" r="819.2" spreadMethod="pad">
      <stop offset="0.12941176470588237" stop-color="#ffe48e" stop-opacity="0.4"/>
      <stop offset="1.0" stop-color="#ffe983" stop-opacity="0.0"/>
    </radialGradient>
    <radialGradient cx="0" cy="0" gradientTransform="matrix(0.0192, 0.0, 0.0, 0.0093, 26.75, 36.5)" gradientUnits="userSpaceOnUse" id="gradient8" r="819.2" spreadMethod="pad">
      <stop offset="0.12941176470588237" stop-color="#ffe48e" stop-opacity="0.4"/>
      <stop offset="1.0" stop-color="#ffe983" stop-opacity="0.0"/>
    </radialGradient>
    <g id="sprite3" transform="matrix(1.0, 0.0, 0.0, 1.0, 0.0, 0.0)">
      <use ffdec:characterId="488" height="44.3" transform="matrix(1.0, 0.0, 0.0, 1.0, 0.0, 0.0)" width="30.5" xlink:href="#shape3"/>
    </g>
    <g id="shape3" transform="matrix(1.0, 0.0, 0.0, 1.0, 0.0, 0.0)">
      <path d="M27.65 24.8 L24.6 28.95 17.7 28.85 17.8 25.1 27.65 24.8 M30.0 39.2 L26.25 44.3 Q13.35 43.2 0.85 43.7 L4.6 38.6 Q15.25 38.15 26.15 38.9 L30.0 39.2 M29.45 11.05 L26.55 15.0 17.85 15.05 17.7 11.05 29.45 11.05" fill="#790000" fill-rule="evenodd" stroke="none"/>
      <path d="M26.55 15.0 L27.65 15.0 Q27.15 19.9 27.65 24.8 L17.8 25.1 17.7 28.85 24.6 28.95 29.8 29.0 30.0 39.2 26.15 38.9 Q15.25 38.15 4.6 38.6 L4.55 26.65 4.5 24.2 4.0 6.3 3.75 1.25 29.65 0.0 29.45 11.05 17.7 11.05 17.85 15.05 26.55 15.0" fill="url(#gradient9)" fill-rule="evenodd" stroke="none"/>
      <path d="M0.85 43.7 L0.75 29.3 0.7 26.7 0.0 6.35 3.75 1.25 4.0 6.3 4.5 24.2 4.55 26.65 4.6 38.6 0.85 43.7" fill="#ab0404" fill-rule="evenodd" stroke="none"/>
      <path d="M3.75 1.25 L4.0 6.3 4.5 24.2 4.55 26.65 4.6 38.6 Q15.25 38.15 26.15 38.9 L30.0 39.2 M0.85 43.7 L4.6 38.6" fill="none" stroke="url(#gradient10)" stroke-linecap="round" stroke-linejoin="round" stroke-width="1.0"/>
    </g>
    <linearGradient gradientTransform="matrix(0.0, 0.0231, -0.024, 0.0, -19.95, 20.0)" gradientUnits="userSpaceOnUse" id="gradient9" spreadMethod="pad" x1="-819.2" x2="819.2">
      <stop offset="0.0" stop-color="#ff452e"/>
      <stop offset="1.0" stop-color="#e00a0a"/>
    </linearGradient>
    <radialGradient cx="0" cy="0" gradientTransform="matrix(0.0226, 0.0, 0.0, 0.0095, 10.0, 35.5)" gradientUnits="userSpaceOnUse" id="gradient10" r="819.2" spreadMethod="pad">
      <stop offset="0.12941176470588237" stop-color="#ffe48e" stop-opacity="0.4"/>
      <stop offset="1.0" stop-color="#ffe983" stop-opacity="0.0"/>
    </radialGradient>
    <g id="sprite4" transform="matrix(1.0, 0.0, 0.0, 1.0, 0.1, 0.0)">
      <use ffdec:characterId="539" height="46.75" transform="matrix(1.0, 0.0, 0.0, 1.0, -0.1, 0.0)" width="37.7" xlink:href="#shape4"/>
    </g>
    <g id="shape4" transform="matrix(1.0, 0.0, 0.0, 1.0, 0.1, 0.0)">
      <path d="M3.75 2.1 Q11.35 -0.2 21.35 0.0 31.35 0.2 34.25 7.8 36.05 12.8 33.85 18.0 L32.5 20.35 32.05 20.95 31.95 21.1 30.2 22.9 Q29.2 23.7 28.05 24.1 L28.8 25.4 37.1 39.65 24.05 41.15 18.75 27.3 17.4 27.5 17.4 29.15 17.4 38.25 4.15 37.7 3.75 2.1 M16.95 15.95 L17.05 19.15 17.95 19.05 Q21.2 18.4 21.65 14.2 22.2 9.45 16.7 10.2 L16.95 15.95" fill="url(#gradient11)" fill-rule="evenodd" stroke="none"/>
      <path d="M31.95 21.1 L28.8 25.4 28.05 24.1 Q29.2 23.7 30.2 22.9 L31.95 21.1 M37.1 39.65 L33.35 44.75 20.3 46.25 24.05 41.15 37.1 39.65 M17.3 38.4 L13.65 43.35 0.4 42.8 4.15 37.7 17.4 38.25 17.3 38.4 M17.4 29.15 L17.4 27.5 18.75 27.3 17.4 29.15" fill="#790000" fill-rule="evenodd" stroke="none"/>
      <path d="M0.4 42.8 L0.0 7.2 3.75 2.1 4.15 37.7 0.4 42.8" fill="#ab0404" fill-rule="evenodd" stroke="none"/>
      <path d="M17.95 19.05 Q18.1 16.85 16.95 15.95 L16.7 10.2 Q22.2 9.45 21.65 14.2 21.2 18.4 17.95 19.05" fill="url(#gradient12)" fill-rule="evenodd" stroke="none"/>
      <path d="M20.3 46.25 L17.3 38.4 17.4 38.25 17.4 29.15 18.75 27.3 24.05 41.15 20.3 46.25" fill="#9a0000" fill-rule="evenodd" stroke="none"/>
      <path d="M18.75 27.3 L24.05 41.15 37.1 39.65 M24.05 41.15 L20.3 46.25" fill="none" stroke="url(#gradient13)" stroke-linecap="round" stroke-linejoin="round" stroke-width="1.0"/>
      <path d="M3.75 2.1 L4.15 37.7 17.4 38.25 M4.15 37.7 L0.4 42.8" fill="none" stroke="url(#gradient14)" stroke-linecap="round" stroke-linejoin="round" stroke-width="1.0"/>
    </g>
    <linearGradient gradientTransform="matrix(0.0, 0.0242, -0.0251, 0.0, 20.4, 20.55)" gradientUnits="userSpaceOnUse" id="gradient11" spreadMethod="pad" x1="-819.2" x2="819.2">
      <stop offset="0.0" stop-color="#ff452e"/>
      <stop offset="1.0" stop-color="#e00a0a"/>
    </linearGradient>
    <linearGradient gradientTransform="matrix(0.004, 0.0037, -0.0037, 0.004, 19.5, 9.5)" gradientUnits="userSpaceOnUse" id="gradient12" spreadMethod="pad" x1="-819.2" x2="819.2">
      <stop offset="0.1803921568627451" stop-color="#aa0000"/>
      <stop offset="0.5019607843137255" stop-color="#790000"/>
      <stop offset="0.803921568627451" stop-color="#790000"/>
      <stop offset="0.9882352941176471" stop-color="#930000"/>
    </linearGradient>
    <radialGradient cx="0" cy="0" gradientTransform="matrix(0.015, 0.0, 0.0, 0.0092, 26.5, 38.25)" gradientUnits="userSpaceOnUse" id="gradient13" r="819.2" spreadMethod="pad">
      <stop offset="0.12941176470588237" stop-color="#ffe48e" stop-opacity="0.4"/>
      <stop offset="1.0" stop-color="#ffe983" stop-opacity="0.0"/>
    </radialGradient>
    <radialGradient cx="0" cy="0" gradientTransform="matrix(0.0146, 0.0, 0.0, 0.0097, 7.25, 35.25)" gradientUnits="userSpaceOnUse" id="gradient14" r="819.2" spreadMethod="pad">
      <stop offset="0.12941176470588237" stop-color="#ffe48e" stop-opacity="0.4"/>
      <stop offset="1.0" stop-color="#ffe983" stop-opacity="0.0"/>
    </radialGradient>
    <g id="sprite5" transform="matrix(1.0, 0.0, 0.0, 1.0, 0.0, 0.0)">
      <use ffdec:characterId="492" height="45.8" transform="matrix(1.0, 0.0, 0.0, 1.0, 0.0, 0.0)" width="38.65" xlink:href="#shape5"/>
    </g>
    <g id="shape5" transform="matrix(1.0, 0.0, 0.0, 1.0, 0.0, 0.0)">
      <path d="M6.6 7.3 L6.65 7.15 Q8.75 3.7 12.4 1.9 15.9 0.2 20.8 0.0 24.75 0.15 27.8 1.05 32.8 2.55 35.45 6.2 L36.05 7.1 37.0 8.95 Q37.95 11.25 38.25 14.1 L24.15 15.3 24.1 15.3 24.1 15.25 Q23.95 10.25 21.2 10.0 18.25 10.0 17.55 15.3 17.15 17.75 17.3 21.35 L17.45 23.65 17.65 25.5 Q18.15 29.05 19.5 30.45 20.35 31.3 21.5 31.3 L21.8 31.3 23.1 31.15 23.55 31.0 Q24.1 30.75 24.5 30.3 25.1 29.55 25.2 28.15 L21.25 27.9 19.75 20.3 20.4 20.25 20.65 20.25 34.55 19.4 38.65 19.15 38.65 19.5 38.45 24.5 Q37.7 31.1 34.7 35.0 L33.05 36.75 Q28.55 40.7 20.55 40.5 15.8 40.4 12.4 38.8 10.8 38.0 9.5 36.9 L7.85 35.2 6.9 33.9 Q3.95 29.35 3.75 21.7 3.45 14.2 5.55 9.35 6.0 8.25 6.6 7.3" fill="url(#gradient15)" fill-rule="evenodd" stroke="none"/>
      <path d="M34.55 19.4 L20.65 20.25 24.1 15.25 24.1 15.3 24.15 15.3 38.25 14.1 34.55 19.4 M21.25 27.9 L25.2 28.15 23.1 31.15 21.8 31.3 21.5 31.3 Q20.35 31.3 19.5 30.45 L21.25 27.9" fill="#790000" fill-rule="evenodd" stroke="none"/>
      <path d="M6.6 7.3 Q6.0 8.25 5.55 9.35 3.45 14.2 3.75 21.7 3.95 29.35 6.9 33.9 L7.85 35.2 9.5 36.9 Q10.8 38.0 12.4 38.8 15.8 40.4 20.55 40.5 28.55 40.7 33.05 36.75 L34.7 35.0 31.6 39.45 Q27.15 46.1 16.85 45.8 L12.4 45.3 Q8.5 44.45 5.8 42.2 L4.15 40.5 3.2 39.2 1.8 36.5 Q0.2 32.55 0.05 27.0 -0.25 19.6 1.8 14.7 2.55 12.85 3.7 11.4 L6.6 7.3" fill="url(#gradient16)" fill-rule="evenodd" stroke="none"/>
      <path d="M19.75 20.3 L21.25 27.9 19.5 30.45 Q18.15 29.05 17.65 25.5 L17.45 23.65 19.75 20.3 M25.2 28.15 Q25.1 29.55 24.5 30.3 24.1 30.75 23.55 31.0 L23.1 31.15 25.2 28.15" fill="#9a0000" fill-rule="evenodd" stroke="none"/>
      <path d="M20.65 20.25 L20.4 20.25 Q20.15 15.55 17.55 15.3 18.25 10.0 21.2 10.0 23.95 10.25 24.1 15.25 L20.65 20.25" fill="url(#gradient17)" fill-rule="evenodd" stroke="none"/>
      <path d="M6.6 7.3 Q6.0 8.25 5.55 9.35 3.45 14.2 3.75 21.7 3.95 29.35 6.9 33.9 L7.85 35.2 9.5 36.9 Q10.8 38.0 12.4 38.8 15.8 40.4 20.55 40.5 28.55 40.7 33.05 36.75 L34.7 35.0" fill="none" stroke="url(#gradient18)" stroke-linecap="round" stroke-linejoin="round" stroke-width="1.0"/>
    </g>
    <linearGradient gradientTransform="matrix(0.0, 0.0242, -0.0249, 0.0, 260.15, 20.3)" gradientUnits="userSpaceOnUse" id="gradient15" spreadMethod="pad" x1="-819.2" x2="819.2">
      <stop offset="0.0" stop-color="#ff452e"/>
      <stop offset="1.0" stop-color="#e00a0a"/>
    </linearGradient>
    <linearGradient gradientTransform="matrix(0.0188, 0.0131, -0.0144, 0.0207, 19.65, 30.25)" gradientUnits="userSpaceOnUse" id="gradient16" spreadMethod="pad" x1="-819.2" x2="819.2">
      <stop offset="0.1803921568627451" stop-color="#aa0000"/>
      <stop offset="0.5019607843137255" stop-color="#790000"/>
      <stop offset="0.803921568627451" stop-color="#790000"/>
      <stop offset="0.9882352941176471" stop-color="#930000"/>
    </linearGradient>
    <linearGradient gradientTransform="matrix(-0.0033, -0.0033, 0.0036, -0.0036, 18.1, 15.15)" gradientUnits="userSpaceOnUse" id="gradient17" spreadMethod="pad" x1="-819.2" x2="819.2">
      <stop offset="0.1803921568627451" stop-color="#aa0000"/>
      <stop offset="0.5019607843137255" stop-color="#790000"/>
      <stop offset="0.803921568627451" stop-color="#790000"/>
      <stop offset="0.9882352941176471" stop-color="#930000"/>
    </linearGradient>
    <radialGradient cx="0" cy="0" gradientTransform="matrix(0.0256, 0.0, 0.0, 0.0103, 17.75, 37.5)" gradientUnits="userSpaceOnUse" id="gradient18" r="819.2" spreadMethod="pad">
      <stop offset="0.12941176470588237" stop-color="#ffe48e" stop-opacity="0.4"/>
      <stop offset="1.0" stop-color="#ffe983" stop-opacity="0.0"/>
    </radialGradient>
  </defs>
</svg>
