<?xml version="1.0" encoding="UTF-8" standalone="no"?>
<svg xmlns:ffdec="https://www.free-decompiler.com/flash" xmlns:xlink="http://www.w3.org/1999/xlink" ffdec:objectType="frame" height="130.6px" width="275.45px" xmlns="http://www.w3.org/2000/svg">
  <g transform="matrix(1.0, 0.0, 0.0, 1.0, 137.85, 60.8)">
    <use ffdec:characterId="2924" height="104.45" transform="matrix(1.0, 0.0, 0.0, 1.0, -124.4, -45.75)" width="251.45" xlink:href="#shape0"/>
    <use ffdec:characterId="2926" height="4.7" transform="matrix(3.1506, 0.8239, -0.8239, 3.1506, -107.4178, -27.5401)" width="4.7" xlink:href="#sprite0"/>
    <use ffdec:characterId="2926" height="4.7" transform="matrix(0.8708, 0.2277, -0.2277, 0.8708, -96.1612, -32.7814)" width="4.7" xlink:href="#sprite0"/>
    <use ffdec:characterId="2926" height="4.7" transform="matrix(1.8684, 0.4886, -0.4886, 1.8684, 99.6075, -32.139)" width="4.7" xlink:href="#sprite0"/>
    <filter id="filter0">
      <feConvolveMatrix divisor="4.0" in="SourceGraphic" kernelMatrix="1 1 1 1" order="2 2" result="filterResult0"/>
    </filter>
    <use ffdec:characterId="2928" filter="url(#filter0)" height="35.85" transform="matrix(-0.0088, 0.8001, -0.8001, -0.0088, 6.155, 42.7107)" width="33.85" xlink:href="#sprite1"/>
    <filter id="filter1">
      <feConvolveMatrix divisor="4.0" in="SourceGraphic" kernelMatrix="1 1 1 1" order="2 2" result="filterResult1"/>
    </filter>
    <use ffdec:characterId="2928" filter="url(#filter1)" height="35.85" transform="matrix(0.6671, -0.7789, 0.7789, 0.6671, -137.8449, -34.4181)" width="33.85" xlink:href="#sprite1"/>
    <filter id="filter2">
      <feConvolveMatrix divisor="4.0" in="SourceGraphic" kernelMatrix="1 1 1 1" order="2 2" result="filterResult2"/>
    </filter>
    <use ffdec:characterId="2928" filter="url(#filter2)" height="35.85" transform="matrix(-0.0088, 0.8001, -0.8001, -0.0088, 137.605, -13.0393)" width="33.85" xlink:href="#sprite1"/>
  </g>
  <defs>
    <g id="shape0" transform="matrix(1.0, 0.0, 0.0, 1.0, 124.4, 45.75)">
      <path d="M122.05 28.7 L122.05 -15.75 Q122.05 -26.1 114.7 -33.45 107.4 -40.75 97.05 -40.75 L-94.4 -40.75 Q-104.75 -40.75 -112.1 -33.45 -119.4 -26.1 -119.4 -15.75 L-119.4 28.7 Q-119.4 39.05 -112.1 46.35 -104.75 53.7 -94.4 53.7 L97.05 53.7 Q107.4 53.7 114.7 46.35 122.05 39.05 122.05 28.7 Z" fill="none" stroke="#b042df" stroke-linecap="round" stroke-linejoin="round" stroke-width="10.0"/>
      <path d="M96.55 -43.05 L-93.95 -43.05 Q-105.1 -43.05 -113.05 -35.15 -120.95 -27.2 -120.95 -16.05 L-120.95 27.7 Q-120.95 38.85 -113.05 46.75 -105.1 54.7 -93.95 54.7 L96.55 54.7 Q107.7 54.7 115.6 46.75 123.55 38.85 123.55 27.7 L123.55 -16.05 Q123.55 -27.2 115.6 -35.15 107.7 -43.05 96.55 -43.05 Z" fill="none" stroke="#ffffff" stroke-linecap="round" stroke-linejoin="round" stroke-opacity="0.4" stroke-width="1.7000000000000002"/>
      <path d="M-116.95 17.15 L-116.95 -15.0 Q-116.95 -25.35 -109.65 -32.7 -102.3 -40.0 -91.95 -40.0 L94.55 -40.0 Q104.9 -40.0 112.2 -32.7 119.55 -25.35 119.55 -15.0 L119.55 17.15 -116.95 17.15" fill="url(#gradient0)" fill-rule="evenodd" stroke="none"/>
      <path d="M-116.95 17.15 L119.55 17.15 119.55 21.15 119.55 27.4 Q119.55 37.75 112.2 45.05 104.9 52.4 94.55 52.4 L-91.95 52.4 Q-102.3 52.4 -109.65 45.05 -116.95 37.75 -116.95 27.4 L-116.95 17.15" fill="url(#gradient1)" fill-rule="evenodd" stroke="none"/>
      <path d="M119.55 17.15 L119.55 -15.0 Q119.55 -25.35 112.2 -32.7 104.9 -40.0 94.55 -40.0 L-91.95 -40.0 Q-102.3 -40.0 -109.65 -32.7 -116.95 -25.35 -116.95 -15.0 L-116.95 17.15 -116.95 27.4 Q-116.95 37.75 -109.65 45.05 -102.3 52.4 -91.95 52.4 L94.55 52.4 Q104.9 52.4 112.2 45.05 119.55 37.75 119.55 27.4 L119.55 21.15" fill="none" stroke="#990000" stroke-linecap="round" stroke-linejoin="round" stroke-width="2.0"/>
      <path d="M117.55 21.15 L117.55 -14.0 Q117.55 -24.1 110.3 -31.2 103.05 -38.3 92.8 -38.3 L57.7 -38.3" fill="none" stroke="url(#gradient2)" stroke-linecap="round" stroke-linejoin="round" stroke-width="2.5"/>
      <path d="M57.7 -38.3 L-90.5 -38.3 Q-100.75 -38.3 -108.05 -31.2 -115.25 -24.1 -115.25 -14.0 L-115.25 21.15" fill="none" stroke="url(#gradient3)" stroke-linecap="round" stroke-linejoin="round" stroke-width="2.5"/>
      <path d="M57.7 50.95 L92.8 50.95 Q103.05 50.95 110.3 43.8 117.55 36.7 117.55 26.65 L117.55 21.15" fill="none" stroke="url(#gradient4)" stroke-linecap="round" stroke-linejoin="round" stroke-width="2.5"/>
      <path d="M-115.25 21.15 L-115.25 26.65 Q-115.25 36.7 -108.05 43.8 -100.75 50.95 -90.5 50.95 L57.7 50.95" fill="none" stroke="url(#gradient5)" stroke-linecap="round" stroke-linejoin="round" stroke-width="2.5"/>
      <path d="M-116.95 6.55 L-116.95 -15.0 Q-116.95 -25.35 -109.65 -32.7 -102.3 -40.0 -91.95 -40.0 L94.55 -40.0 Q104.9 -40.0 112.2 -32.7 119.55 -25.35 119.55 -15.0 L119.55 8.35 Q101.0 9.55 9.5 9.2 -87.9 8.8 -116.95 6.55" fill="#ffffff" fill-opacity="0.4" fill-rule="evenodd" stroke="none"/>
      <path d="M119.55 8.35 L119.55 -15.0 Q119.55 -25.35 112.2 -32.7 104.9 -40.0 94.55 -40.0 L-91.95 -40.0 Q-102.3 -40.0 -109.65 -32.7 -116.95 -25.35 -116.95 -15.0 L-116.95 6.55 -116.95 27.4 Q-116.95 37.75 -109.65 45.05 -102.3 52.4 -91.95 52.4 L94.55 52.4 Q104.9 52.4 112.2 45.05 119.55 37.75 119.55 27.4 L119.55 8.35 Z" fill="none" stroke="#440062" stroke-linecap="round" stroke-linejoin="round" stroke-width="3.0"/>
    </g>
    <linearGradient gradientTransform="matrix(0.0, 0.1075, -0.0675, 0.0, 6.3, 2.45)" gradientUnits="userSpaceOnUse" id="gradient0" spreadMethod="pad" x1="-819.2" x2="819.2">
      <stop offset="0.11764705882352941" stop-color="#bd9611"/>
      <stop offset="0.34509803921568627" stop-color="#f5dc67"/>
      <stop offset="0.6823529411764706" stop-color="#f5dc67"/>
      <stop offset="0.8666666666666667" stop-color="#bd9611"/>
    </linearGradient>
    <linearGradient gradientTransform="matrix(0.0, 0.1075, -0.0675, 0.0, 6.3, -15.8)" gradientUnits="userSpaceOnUse" id="gradient1" spreadMethod="pad" x1="-819.2" x2="819.2">
      <stop offset="0.11764705882352941" stop-color="#bd9611"/>
      <stop offset="0.34509803921568627" stop-color="#f5dc67"/>
      <stop offset="0.6823529411764706" stop-color="#f5dc67"/>
      <stop offset="0.8666666666666667" stop-color="#bd9611"/>
    </linearGradient>
    <linearGradient gradientTransform="matrix(0.0, 0.0646, -0.0671, 0.0, -58.1, 22.5)" gradientUnits="userSpaceOnUse" id="gradient2" spreadMethod="pad" x1="-819.2" x2="819.2">
      <stop offset="0.07058823529411765" stop-color="#ffffff"/>
      <stop offset="0.4549019607843137" stop-color="#aa860c"/>
    </linearGradient>
    <linearGradient gradientTransform="matrix(0.0, 0.0646, -0.0671, 0.0, 60.4, 22.5)" gradientUnits="userSpaceOnUse" id="gradient3" spreadMethod="pad" x1="-819.2" x2="819.2">
      <stop offset="0.07058823529411765" stop-color="#ffffff"/>
      <stop offset="0.4549019607843137" stop-color="#aa860c"/>
    </linearGradient>
    <linearGradient gradientTransform="matrix(0.0, 0.0646, -0.0671, 0.0, -58.1, 4.25)" gradientUnits="userSpaceOnUse" id="gradient4" spreadMethod="pad" x1="-819.2" x2="819.2">
      <stop offset="0.07058823529411765" stop-color="#ffffff"/>
      <stop offset="0.4549019607843137" stop-color="#aa860c"/>
    </linearGradient>
    <linearGradient gradientTransform="matrix(0.0, 0.0646, -0.0671, 0.0, 60.4, 4.25)" gradientUnits="userSpaceOnUse" id="gradient5" spreadMethod="pad" x1="-819.2" x2="819.2">
      <stop offset="0.07058823529411765" stop-color="#ffffff"/>
      <stop offset="0.4549019607843137" stop-color="#aa860c"/>
    </linearGradient>
    <g id="sprite0" transform="matrix(1.0, 0.0, 0.0, 1.0, 2.35, 2.35)">
      <use ffdec:characterId="2925" height="4.7" transform="matrix(1.0, 0.0, 0.0, 1.0, -2.35, -2.35)" width="4.7" xlink:href="#shape1"/>
    </g>
    <g id="shape1" transform="matrix(1.0, 0.0, 0.0, 1.0, 2.35, 2.35)">
      <path d="M1.65 -1.65 Q2.35 -0.95 2.35 0.0 2.35 0.95 1.65 1.65 0.95 2.35 0.0 2.35 -0.95 2.35 -1.65 1.65 -2.35 0.95 -2.35 0.0 -2.35 -0.95 -1.65 -1.65 -0.95 -2.35 0.0 -2.35 0.95 -2.35 1.65 -1.65" fill="#ffffff" fill-opacity="0.3882353" fill-rule="evenodd" stroke="none"/>
    </g>
    <g id="sprite1" transform="matrix(1.0, 0.0, 0.0, 1.0, 15.2, 19.65)">
      <use ffdec:characterId="62" height="9.3" transform="matrix(1.0, 0.0, 0.0, 1.0, -3.0, -6.35)" width="9.3" xlink:href="#shape2"/>
      <use ffdec:characterId="2927" height="33.55" transform="matrix(0.4248, 0.7364, -0.5688, 0.0125, 3.9, -14.65)" width="34.75" xlink:href="#shape3"/>
      <use ffdec:characterId="2927" height="33.55" transform="matrix(-0.6951, 0.4858, -0.0639, -0.5655, 14.55, -0.7)" width="34.75" xlink:href="#shape3"/>
    </g>
    <g id="shape2" transform="matrix(1.0, 0.0, 0.0, 1.0, 3.0, 6.35)">
      <path d="M5.0 -4.95 Q6.3 -3.6 6.3 -1.7 6.3 0.25 5.0 1.6 3.55 2.95 1.65 2.95 -0.3 2.95 -1.65 1.6 -3.0 0.25 -3.0 -1.7 -3.0 -3.6 -1.65 -4.95 -0.3 -6.35 1.65 -6.35 3.55 -6.35 5.0 -4.95" fill="url(#gradient6)" fill-rule="evenodd" stroke="none"/>
    </g>
    <radialGradient cx="0" cy="0" gradientTransform="matrix(0.0074, 0.0, 0.0, 0.0074, 1.65, -1.7)" gradientUnits="userSpaceOnUse" id="gradient6" r="819.2" spreadMethod="pad">
      <stop offset="0.5098039215686274" stop-color="#ffffff" stop-opacity="0.6"/>
      <stop offset="0.6705882352941176" stop-color="#ffffff" stop-opacity="0.0"/>
    </radialGradient>
    <g id="shape3" transform="matrix(1.0, 0.0, 0.0, 1.0, 0.0, 0.0)">
      <path d="M11.1 25.65 Q-2.0 35.85 0.35 32.85 15.65 11.45 34.75 0.0 24.6 15.1 11.1 25.65" fill="url(#gradient7)" fill-rule="evenodd" stroke="none"/>
      <path d="M11.1 25.65 Q-2.0 35.85 0.35 32.85 15.65 11.45 34.75 0.0 24.6 15.1 11.1 25.65" fill="url(#gradient8)" fill-rule="evenodd" stroke="none"/>
    </g>
    <linearGradient gradientTransform="matrix(0.0212, 0.0, 0.0, 0.0205, 17.35, 16.75)" gradientUnits="userSpaceOnUse" id="gradient7" spreadMethod="pad" x1="-819.2" x2="819.2">
      <stop offset="0.0" stop-color="#ffffff" stop-opacity="0.0"/>
      <stop offset="0.47843137254901963" stop-color="#ffffff"/>
      <stop offset="0.996078431372549" stop-color="#ffffff" stop-opacity="0.0"/>
    </linearGradient>
    <linearGradient gradientTransform="matrix(0.0212, 0.0, 0.0, 0.0205, 17.35, 16.75)" gradientUnits="userSpaceOnUse" id="gradient8" spreadMethod="pad" x1="-819.2" x2="819.2">
      <stop offset="0.0" stop-color="#ffffff" stop-opacity="0.0"/>
      <stop offset="0.47843137254901963" stop-color="#ffffff"/>
      <stop offset="0.996078431372549" stop-color="#ffffff" stop-opacity="0.0"/>
    </linearGradient>
  </defs>
</svg>
