<?xml version="1.0" encoding="UTF-8" standalone="no"?>
<svg xmlns:ffdec="https://www.free-decompiler.com/flash" xmlns:xlink="http://www.w3.org/1999/xlink" ffdec:objectType="frame" height="627.3px" width="979.35px" xmlns="http://www.w3.org/2000/svg">
  <g transform="matrix(1.0, 0.0, 0.0, 1.0, 80.8, 67.3)">
    <use ffdec:characterId="2" height="0.0" id="snapshotHolder_spr" transform="matrix(1.0, 0.0, 0.0, 1.0, 0.0, 0.0)" width="0.0" xlink:href="#sprite0"/>
    <clipPath id="clipPath0">
      <path d="M 461.74 48.71 L 460.74 48.71 L 459.74 48.73 L 458.75 48.76 L 457.77 48.8 L 456.79 48.85 L 455.82 48.92 L 454.86 48.99 L 453.91 49.08 L 452.96 49.18 L 452.02 49.29 L 451.09 49.41 L 450.17 49.55 L 449.25 49.69 L 448.35 49.85 L 447.44 50.02 L 446.55 50.2 L 445.02 50.5 L 443.5 50.84 L 442 51.2 L 440.52 51.6 L 439.05 52.03 L 437.59 52.49 L 436.15 52.98 L 434.73 53.5 L 433.31 54.05 L 431.92 54.64 L 430.54 55.25 L 429.17 55.9 L 427.82 56.58 L 426.48 57.29 L 425.16 58.03 L 423.85 58.8 L 421.57 59.93 L 419.11 61.14 L 416.49 62.41 L 413.7 63.75 L 412.56 64.38 L 411.45 64.96 L 410.38 65.48 L 409.35 65.95 L 408.36 66.36 L 407.4 66.71 L 406.94 66.87 L 406.48 67.01 L 406.04 67.14 L 405.6 67.25 L 404.31 67.68 L 403.04 68.09 L 401.77 68.47 L 400.52 68.82 L 399.28 69.14 L 398.05 69.44 L 396.83 69.7 L 395.63 69.94 L 394.44 70.15 L 393.26 70.33 L 392.09 70.49 L 390.93 70.61 L 389.79 70.71 L 388.65 70.78 L 387.53 70.82 L 386.42 70.84 L 385.53 70.83 L 384.65 70.8 L 384.4 70.75 L 383.37 70.72 L 382.31 70.64 L 381.22 70.53 L 380.1 70.38 L 378.95 70.18 L 377.76 69.94 L 376.55 69.67 L 375.3 69.35 L 372.39 68.69 L 369.48 68 L 366.54 67.29 L 363.6 66.55 L 362.48 66.16 L 361.37 65.8 L 360.28 65.46 L 359.2 65.14 L 358.13 64.86 L 357.08 64.59 L 356.04 64.35 L 355.02 64.14 L 354.01 63.95 L 353.01 63.79 L 352.03 63.65 L 351.06 63.54 L 350.11 63.45 L 349.16 63.39 L 348.24 63.35 L 347.32 63.34 L 346.74 63.34 L 346.16 63.36 L 345.58 63.39 L 345.01 63.42 L 344.45 63.47 L 343.89 63.53 L 343.33 63.6 L 342.79 63.68 L 342.25 63.77 L 341.71 63.87 L 341.19 63.98 L 340.66 64.11 L 340.15 64.24 L 339.63 64.38 L 339.13 64.54 L 338.63 64.7 L 338.14 64.88 L 337.65 65.07 L 337.17 65.26 L 336.69 65.47 L 336.22 65.69 L 335.76 65.92 L 335.3 66.16 L 334.85 66.41 L 334.41 66.67 L 333.97 66.94 L 333.53 67.23 L 333.1 67.52 L 332.68 67.82 L 332.26 68.14 L 331.85 68.46 L 331.45 68.8 L 330.77 69.45 L 330.08 70.07 L 329.38 70.67 L 328.68 71.25 L 327.96 71.81 L 327.24 72.34 L 326.5 72.86 L 325.76 73.35 L 325.01 73.82 L 324.25 74.27 L 323.48 74.7 L 322.7 75.1 L 321.92 75.48 L 321.12 75.84 L 320.31 76.18 L 319.5 76.5 L 319.02 76.74 L 318.53 76.96 L 318.03 77.17 L 317.53 77.36 L 317.02 77.54 L 316.51 77.7 L 315.99 77.85 L 315.46 77.99 L 314.93 78.11 L 314.39 78.21 L 313.85 78.31 L 313.3 78.38 L 312.75 78.45 L 312.19 78.5 L 311.62 78.53 L 311.05 78.55 L 309.56 78.51 L 308.05 78.45 L 306.52 78.36 L 304.97 78.24 L 303.4 78.1 L 301.81 77.93 L 300.2 77.73 L 298.58 77.51 L 296.93 77.27 L 295.26 76.99 L 293.57 76.69 L 291.87 76.37 L 290.14 76.01 L 288.4 75.64 L 286.63 75.23 L 284.85 74.8 L 283.75 74.55 L 282.71 74.29 L 281.67 74.05 L 280.63 73.83 L 279.59 73.62 L 278.55 73.43 L 277.52 73.25 L 276.48 73.09 L 275.45 72.95 L 274.41 72.83 L 273.38 72.72 L 272.34 72.63 L 271.31 72.55 L 270.28 72.49 L 269.25 72.45 L 268.22 72.43 L 267.19 72.42 L 265.99 72.43 L 264.79 72.46 L 263.59 72.52 L 262.4 72.6 L 261.06 72.75 L 259.78 72.94 L 258.55 73.15 L 257.96 73.27 L 257.38 73.4 L 256.81 73.54 L 256.25 73.68 L 255.71 73.83 L 255.18 73.99 L 254.67 74.15 L 254.16 74.33 L 253.68 74.51 L 253.2 74.7 L 252.65 74.93 L 252.12 75.17 L 251.6 75.42 L 251.1 75.68 L 250.62 75.95 L 250.15 76.23 L 249.7 76.51 L 249.26 76.81 L 248.84 77.12 L 248.44 77.44 L 248.05 77.77 L 247.68 78.1 L 247.32 78.45 L 246.98 78.81 L 246.66 79.17 L 246.35 79.55 L 244.9 81.25 L 244.69 81.57 L 244.47 81.89 L 244.23 82.2 L 243.98 82.51 L 243.7 82.82 L 243.42 83.12 L 243.12 83.41 L 242.8 83.7 L 242.3 84.05 L 241.73 84.41 L 241.11 84.76 L 240.44 85.12 L 239.7 85.49 L 238.91 85.86 L 238.06 86.23 L 237.15 86.6 L 233.76 87.54 L 230.14 88.55 L 222.2 90.8 L 220.77 91.21 L 219.38 91.65 L 218.04 92.11 L 216.74 92.59 L 215.48 93.09 L 214.26 93.62 L 213.08 94.17 L 212.51 94.46 L 211.95 94.75 L 211.11 95.22 L 210.3 95.71 L 209.51 96.21 L 208.75 96.72 L 208.01 97.26 L 207.3 97.81 L 206.61 98.37 L 205.95 98.95 L 205.53 99.34 L 205.12 99.74 L 204.73 100.14 L 204.35 100.55 L 203.99 100.96 L 203.64 101.37 L 203.3 101.79 L 202.98 102.21 L 202.68 102.64 L 202.39 103.07 L 202.11 103.5 L 201.85 103.94 L 201.6 104.38 L 201.36 104.83 L 201.14 105.28 L 200.94 105.74 L 200.75 106.2 L 200.57 106.66 L 200.41 107.13 L 200.26 107.6 L 200.12 108.08 L 200.01 108.56 L 199.9 109.05 L 199.81 109.53 L 199.73 110.03 L 199.67 110.53 L 199.62 111.03 L 199.59 111.53 L 199.57 112.04 L 199.57 112.56 L 199.58 113.08 L 199.6 113.6 L 199.71 114.55 L 199.81 115.49 L 199.89 116.42 L 199.96 117.35 L 200.02 118.27 L 200.06 119.18 L 200.09 120.09 L 200.1 120.99 L 200.1 121.88 L 200.08 122.77 L 200.06 123.65 L 200.01 124.52 L 199.96 125.39 L 199.88 126.25 L 199.8 127.1 L 199.7 127.95 L 199.77 128.7 L 199.82 129.45 L 199.87 130.19 L 199.89 130.94 L 199.91 131.68 L 199.91 132.42 L 199.9 133.16 L 199.88 133.9 L 199.84 134.64 L 199.79 135.37 L 199.72 136.11 L 199.64 136.84 L 199.55 137.57 L 199.45 138.3 L 199.33 139.02 L 199.2 139.75 L 198.85 141.65 L 198.74 142.21 L 198.61 142.75 L 198.46 143.28 L 198.3 143.81 L 198.13 144.32 L 197.94 144.81 L 197.74 145.3 L 197.52 145.77 L 197.28 146.24 L 197.03 146.69 L 196.77 147.13 L 196.49 147.56 L 196.19 147.97 L 195.88 148.38 L 195.55 148.77 L 195.21 149.15 L 194.86 149.52 L 194.49 149.88 L 194.1 150.22 L 193.7 150.56 L 193.28 150.88 L 192.85 151.19 L 192.4 151.49 L 191.94 151.77 L 191.46 152.05 L 190.97 152.31 L 190.46 152.57 L 189.94 152.81 L 189.4 153.03 L 188.85 153.25 L 188.28 153.46 L 187.7 153.65 L 187 153.96 L 186.3 154.29 L 185.6 154.64 L 184.91 155.02 L 184.23 155.41 L 183.55 155.82 L 182.87 156.26 L 182.2 156.71 L 181.53 157.19 L 180.87 157.69 L 180.21 158.2 L 179.56 158.74 L 178.91 159.3 L 178.27 159.88 L 177.63 160.48 L 177 161.1 L 176.47 161.62 L 175.95 162.14 L 175.44 162.68 L 174.94 163.23 L 174.46 163.78 L 173.99 164.34 L 173.52 164.92 L 173.07 165.5 L 172.64 166.09 L 172.21 166.69 L 171.8 167.3 L 171.39 167.93 L 171 168.55 L 170.62 169.19 L 170.26 169.84 L 169.9 170.5 L 169.35 171.65 L 169.01 172.32 L 168.68 172.99 L 168.37 173.65 L 168.07 174.32 L 167.79 174.99 L 167.52 175.66 L 167.26 176.32 L 167.02 176.99 L 166.8 177.65 L 166.59 178.32 L 166.4 178.98 L 166.22 179.65 L 166.05 180.31 L 165.9 180.97 L 165.77 181.64 L 165.65 182.3 L 165.51 183.26 L 165.4 184.18 L 165.31 185.07 L 165.24 185.93 L 165.19 186.75 L 165.17 187.53 L 165.17 188.28 L 165.2 189 L 165.25 190.75 L 165.37 191.65 L 165.5 192.47 L 165.65 193.19 L 165.81 193.81 L 165.9 194.09 L 165.99 194.35 L 166.08 194.58 L 166.18 194.79 L 166.28 194.98 L 166.38 195.14 L 166.49 195.28 L 166.6 195.4 L 166.75 195.68 L 166.89 196.01 L 167.02 196.4 L 167.15 196.85 L 167.9 199.55 L 168.06 200.26 L 168.19 201.02 L 168.3 201.83 L 168.38 202.69 L 168.42 203.59 L 168.44 204.55 L 168.44 205.55 L 168.4 206.6 L 168.36 207.14 L 168.32 207.68 L 168.19 208.76 L 168.03 209.85 L 167.82 210.94 L 167.58 212.03 L 167.29 213.13 L 166.97 214.24 L 166.6 215.35 L 166.39 215.94 L 166.16 216.52 L 165.93 217.09 L 165.68 217.65 L 165.42 218.2 L 165.15 218.74 L 164.87 219.28 L 164.57 219.8 L 164.27 220.31 L 163.95 220.82 L 163.62 221.31 L 163.28 221.8 L 162.93 222.28 L 162.56 222.74 L 162.19 223.2 L 161.8 223.65 L 160.49 225.17 L 159.2 226.68 L 157.94 228.17 L 156.7 229.65 L 151.18 236.41 L 145.5 243.3 L 144.66 244.08 L 143.86 244.86 L 143.11 245.63 L 142.4 246.39 L 141.73 247.14 L 141.11 247.89 L 140.52 248.63 L 139.99 249.36 L 139.49 250.09 L 139.04 250.8 L 138.64 251.51 L 138.27 252.22 L 137.95 252.91 L 137.67 253.6 L 137.44 254.28 L 137.25 254.95 L 136.82 255.86 L 136.42 256.78 L 136.04 257.7 L 135.68 258.62 L 135.35 259.54 L 135.04 260.47 L 134.75 261.39 L 134.49 262.33 L 134.25 263.26 L 134.03 264.19 L 133.83 265.13 L 133.66 266.07 L 133.51 267.01 L 133.38 267.95 L 133.28 268.9 L 133.2 269.85 L 133.4 269.9 L 133.4 271 L 133.36 271.74 L 133.34 272.48 L 133.34 273.2 L 133.35 273.92 L 133.38 274.64 L 133.43 275.35 L 133.49 276.05 L 133.56 276.75 L 133.65 277.44 L 133.76 278.12 L 133.89 278.8 L 134.03 279.48 L 134.18 280.14 L 134.36 280.8 L 134.55 281.45 L 134.75 282.1 L 134.97 282.72 L 135.21 283.33 L 135.45 283.92 L 135.7 284.51 L 135.96 285.08 L 136.22 285.64 L 136.5 286.19 L 136.79 286.73 L 137.08 287.25 L 137.39 287.76 L 137.7 288.27 L 138.02 288.76 L 138.35 289.23 L 138.69 289.7 L 139.04 290.16 L 139.4 290.6 L 139.79 291.1 L 140.19 291.58 L 140.59 292.04 L 140.98 292.49 L 141.38 292.93 L 141.78 293.34 L 142.18 293.74 L 142.59 294.12 L 142.99 294.49 L 143.4 294.84 L 143.8 295.18 L 144.21 295.49 L 144.62 295.79 L 145.03 296.08 L 145.44 296.35 L 145.85 296.6 L 146.6 297.19 L 147.34 297.76 L 148.09 298.3 L 148.82 298.82 L 149.56 299.31 L 150.29 299.77 L 151.02 300.21 L 151.75 300.62 L 152.47 301.01 L 153.19 301.37 L 153.91 301.71 L 154.62 302.02 L 155.34 302.3 L 156.04 302.56 L 156.75 302.79 L 157.45 303 L 157.83 303.02 L 158.22 303.06 L 158.6 303.11 L 158.98 303.16 L 159.36 303.23 L 159.74 303.31 L 160.12 303.4 L 160.5 303.5 L 160.87 303.61 L 161.25 303.73 L 161.62 303.86 L 162 304.01 L 162.37 304.16 L 162.75 304.32 L 163.12 304.5 L 163.49 304.69 L 164.23 305.09 L 164.96 305.54 L 165.69 306.04 L 166.42 306.57 L 167.15 307.15 L 167.87 307.77 L 168.59 308.44 L 169.3 309.15 L 169.61 309.45 L 169.92 309.75 L 170.22 310.07 L 170.52 310.39 L 170.8 310.73 L 171.09 311.07 L 171.64 311.78 L 172.16 312.52 L 172.67 313.3 L 173.14 314.11 L 173.6 314.96 L 174.03 315.85 L 174.44 316.76 L 174.83 317.72 L 175.19 318.7 L 175.53 319.73 L 175.84 320.78 L 176.13 321.87 L 176.4 323 L 176.48 324.64 L 176.59 326.24 L 176.72 327.8 L 176.89 329.33 L 177.08 330.82 L 177.31 332.26 L 177.56 333.67 L 177.83 335.04 L 178.14 336.38 L 178.48 337.67 L 178.84 338.93 L 179.23 340.14 L 179.65 341.32 L 179.88 341.9 L 180.1 342.46 L 180.34 343.02 L 180.58 343.56 L 180.83 344.1 L 181.09 344.62 L 181.35 345.14 L 181.62 345.65 L 181.9 346.15 L 182.18 346.64 L 182.48 347.11 L 182.78 347.58 L 183.08 348.04 L 183.4 348.49 L 183.72 348.93 L 184.04 349.36 L 184.38 349.78 L 184.72 350.19 L 185.07 350.6 L 185.43 350.99 L 185.79 351.37 L 186.16 351.74 L 186.54 352.11 L 186.92 352.46 L 187.31 352.8 L 187.71 353.14 L 188.12 353.46 L 188.53 353.78 L 188.95 354.08 L 189.38 354.38 L 189.81 354.67 L 190.25 354.94 L 190.7 355.21 L 191.16 355.47 L 191.62 355.71 L 192.09 355.95 L 192.57 356.18 L 193.05 356.4 L 194.51 356.57 L 195.95 356.76 L 197.35 356.96 L 198.73 357.19 L 200.08 357.43 L 201.41 357.69 L 202.71 357.97 L 203.98 358.27 L 205.22 358.58 L 206.43 358.92 L 207.62 359.27 L 208.78 359.64 L 209.91 360.03 L 211.02 360.44 L 212.1 360.87 L 213.15 361.31 L 214.17 361.78 L 215.17 362.26 L 216.14 362.76 L 217.08 363.28 L 218 363.82 L 218.88 364.37 L 219.74 364.95 L 220.57 365.54 L 221.38 366.15 L 222.16 366.78 L 222.91 367.43 L 223.63 368.1 L 224.33 368.78 L 225 369.49 L 225.64 370.21 L 226.25 370.95 L 226.35 371.05 L 230.43 376.84 L 234.61 382.83 L 238.9 388.99 L 243.3 395.35 L 243.3 395.6 L 243.28 396.37 L 243.3 397.13 L 243.34 397.86 L 243.41 398.57 L 243.51 399.27 L 243.64 399.94 L 243.8 400.59 L 243.99 401.22 L 244.21 401.83 L 244.46 402.42 L 244.74 402.99 L 245.05 403.54 L 245.39 404.07 L 245.75 404.58 L 246.15 405.07 L 246.57 405.54 L 247.03 405.99 L 247.52 406.41 L 248.03 406.82 L 248.57 407.21 L 249.15 407.57 L 249.75 407.92 L 250.38 408.24 L 251.04 408.55 L 251.74 408.83 L 252.46 409.1 L 253.21 409.34 L 253.99 409.56 L 254.8 409.76 L 255.63 409.95 L 256.5 410.11 L 257.4 410.25 L 258.04 410.4 L 258.69 410.54 L 259.34 410.65 L 259.99 410.74 L 260.65 410.81 L 261.31 410.86 L 261.97 410.9 L 262.64 410.91 L 263.4 410.89 L 264.17 410.85 L 264.94 410.79 L 265.72 410.69 L 266.5 410.57 L 267.29 410.43 L 268.08 410.25 L 268.87 410.05 L 269.67 409.83 L 270.48 409.58 L 271.29 409.3 L 272.1 408.99 L 272.92 408.66 L 273.74 408.3 L 274.57 407.91 L 275.4 407.5 L 279.6 405.5 L 280.34 405.16 L 281.08 404.81 L 281.8 404.46 L 282.52 404.08 L 283.22 403.7 L 283.92 403.31 L 284.6 402.9 L 285.27 402.49 L 285.94 402.06 L 286.59 401.62 L 287.24 401.17 L 287.87 400.71 L 288.49 400.24 L 289.1 399.75 L 289.71 399.26 L 290.3 398.75 L 290.84 398.04 L 291.39 397.36 L 291.94 396.72 L 292.49 396.12 L 293.04 395.55 L 293.59 395.02 L 294.14 394.52 L 294.7 394.06 L 295.26 393.64 L 295.82 393.25 L 296.38 392.9 L 296.94 392.59 L 297.5 392.31 L 298.07 392.07 L 298.63 391.87 L 299.2 391.7 L 299.92 391.05 L 300.63 390.43 L 301.35 389.82 L 302.06 389.23 L 302.78 388.67 L 303.49 388.13 L 304.2 387.6 L 304.92 387.1 L 305.63 386.62 L 306.34 386.15 L 307.05 385.71 L 307.77 385.29 L 308.48 384.89 L 309.19 384.51 L 309.9 384.15 L 310.61 383.81 L 311.32 383.49 L 312.03 383.19 L 312.74 382.92 L 313.45 382.66 L 314.16 382.42 L 314.87 382.21 L 315.57 382.01 L 316.28 381.84 L 316.99 381.68 L 317.7 381.55 L 318.4 381.44 L 319.11 381.35 L 319.81 381.27 L 320.52 381.22 L 321.23 381.19 L 321.93 381.18 L 322.91 381.2 L 323.89 381.26 L 324.87 381.36 L 325.85 381.5 L 326.35 381.6 L 327.17 381.77 L 327.98 381.96 L 328.78 382.17 L 329.56 382.4 L 330.34 382.65 L 331.1 382.91 L 331.85 383.2 L 332.58 383.51 L 333.31 383.84 L 334.02 384.19 L 334.72 384.56 L 335.41 384.95 L 336.08 385.36 L 336.75 385.78 L 337.4 386.23 L 338.04 386.7 L 338.66 387.19 L 339.28 387.7 L 339.88 388.22 L 340.47 388.77 L 341.05 389.34 L 341.61 389.93 L 342.17 390.53 L 342.71 391.16 L 343.24 391.81 L 343.76 392.48 L 344.26 393.16 L 344.75 393.87 L 345.23 394.6 L 345.7 395.35 L 346.16 396.11 L 346.6 396.9 L 347.16 397.71 L 347.74 398.5 L 348.33 399.28 L 348.95 400.04 L 349.59 400.79 L 350.24 401.52 L 350.91 402.23 L 351.6 402.93 L 352.31 403.61 L 353.04 404.27 L 353.79 404.92 L 354.56 405.55 L 355.34 406.17 L 356.15 406.76 L 356.97 407.35 L 357.81 407.91 L 358.67 408.46 L 359.55 409 L 360.45 409.51 L 361.37 410.01 L 362.31 410.5 L 363.26 410.97 L 364.24 411.42 L 365.23 411.85 L 366.24 412.27 L 367.27 412.68 L 368.32 413.06 L 369.39 413.43 L 370.48 413.79 L 371.58 414.12 L 372.71 414.44 L 373.85 414.75 L 375.76 415.23 L 377.62 415.67 L 379.46 416.08 L 381.25 416.45 L 382.51 416.67 L 383.74 416.86 L 384.96 417.03 L 386.15 417.16 L 387.31 417.26 L 388.45 417.34 L 389.57 417.38 L 390.67 417.39 L 391.47 417.39 L 392.26 417.36 L 393.04 417.32 L 393.8 417.26 L 394.55 417.19 L 395.29 417.1 L 396.01 416.99 L 396.72 416.87 L 397.42 416.73 L 398.11 416.58 L 398.78 416.4 L 399.44 416.22 L 400.09 416.01 L 400.72 415.79 L 401.34 415.55 L 401.95 415.3 L 402.82 414.87 L 403.7 414.46 L 404.6 414.08 L 405.5 413.73 L 406.42 413.41 L 407.35 413.11 L 408.29 412.84 L 409.25 412.61 L 410.21 412.4 L 411.19 412.21 L 412.18 412.06 L 413.18 411.93 L 414.19 411.83 L 415.22 411.76 L 416.25 411.72 L 417.3 411.71 L 417.95 411.71 L 418.61 411.73 L 419.27 411.76 L 419.94 411.79 L 420.61 411.84 L 421.29 411.9 L 421.97 411.97 L 422.65 412.05 L 424 412.25 L 425.31 412.47 L 426.57 412.71 L 427.79 412.98 L 428.96 413.26 L 430.08 413.57 L 431.16 413.9 L 432.2 414.25 L 433.11 414.6 L 433.55 414.78 L 433.98 414.97 L 434.39 415.17 L 434.79 415.37 L 435.18 415.57 L 435.56 415.79 L 435.93 416.01 L 436.28 416.23 L 436.62 416.46 L 436.95 416.7 L 437.27 416.94 L 437.58 417.19 L 437.87 417.44 L 438.15 417.7 L 438.35 417.85 L 438.58 418.08 L 438.82 418.3 L 439.07 418.51 L 439.33 418.72 L 439.61 418.92 L 439.89 419.12 L 440.18 419.31 L 440.49 419.49 L 440.8 419.66 L 441.13 419.83 L 441.46 419.99 L 441.81 420.15 L 442.17 420.3 L 442.53 420.44 L 443.3 420.7 L 443.69 420.82 L 444.08 420.92 L 444.48 421.01 L 444.88 421.08 L 445.29 421.14 L 445.71 421.18 L 446.13 421.2 L 446.56 421.21 L 447.04 421.2 L 447.54 421.17 L 448.04 421.12 L 448.55 421.05 L 448.91 420.98 L 449.26 420.91 L 449.61 420.82 L 449.95 420.72 L 450.29 420.62 L 450.62 420.5 L 450.94 420.37 L 451.26 420.24 L 451.58 420.09 L 451.88 419.94 L 452.18 419.77 L 452.48 419.6 L 452.77 419.41 L 453.05 419.22 L 453.33 419.01 L 453.6 418.8 L 453.96 418.52 L 454.31 418.23 L 454.66 417.93 L 454.98 417.62 L 455.3 417.32 L 455.61 417 L 455.9 416.68 L 456.19 416.35 L 456.46 416.02 L 456.72 415.67 L 456.97 415.33 L 457.21 414.98 L 457.44 414.62 L 457.65 414.25 L 457.86 413.88 L 458.05 413.5 L 458.15 413.35 L 458.46 412.85 L 458.81 412.36 L 459.19 411.86 L 459.61 411.35 L 460.06 410.85 L 460.55 410.34 L 461.08 409.83 L 461.64 409.31 L 462.23 408.8 L 462.86 408.28 L 463.53 407.75 L 464.23 407.23 L 464.97 406.7 L 465.75 406.17 L 466.56 405.64 L 467.4 405.1 L 468.17 404.63 L 468.95 404.19 L 469.73 403.76 L 470.53 403.34 L 471.34 402.95 L 472.16 402.57 L 472.99 402.22 L 473.83 401.88 L 474.67 401.55 L 475.53 401.25 L 476.4 400.96 L 477.28 400.69 L 478.17 400.44 L 479.07 400.21 L 479.98 400 L 480.9 399.8 L 481.89 399.61 L 482.92 399.44 L 483.99 399.28 L 485.1 399.15 L 485.63 399.04 L 486.16 398.95 L 486.7 398.87 L 487.24 398.81 L 487.79 398.76 L 488.34 398.72 L 488.9 398.7 L 489.46 398.69 L 490.27 398.71 L 491.08 398.75 L 491.91 398.82 L 492.75 398.92 L 493.59 399.05 L 494.45 399.2 L 495.32 399.39 L 496.2 399.6 L 496.98 399.73 L 497.76 399.82 L 498.56 399.87 L 499.37 399.89 L 499.8 399.88 L 500.23 399.87 L 501.11 399.81 L 501.99 399.71 L 502.89 399.57 L 503.8 399.39 L 504.72 399.16 L 505.66 398.9 L 506.6 398.6 L 507.57 398.25 L 508.54 397.86 L 509.52 397.45 L 510.51 397 L 511.51 396.52 L 512.52 396.01 L 513.53 395.47 L 514.55 394.9 L 515.77 394.23 L 516.99 393.58 L 518.22 392.95 L 519.44 392.35 L 520.67 391.76 L 521.9 391.2 L 523.13 390.66 L 524.36 390.14 L 525.6 389.64 L 526.84 389.16 L 528.07 388.71 L 529.32 388.27 L 530.56 387.86 L 531.8 387.47 L 533.05 387.1 L 534.3 386.75 L 536.22 386.26 L 538.14 385.77 L 540.05 385.31 L 541.95 384.85 L 543.88 384.49 L 545.77 384.15 L 547.64 383.83 L 549.47 383.54 L 551.27 383.27 L 553.04 383.02 L 554.77 382.8 L 556.48 382.6 L 558.15 382.42 L 559.79 382.27 L 561.4 382.14 L 562.98 382.04 L 564.53 381.95 L 566.04 381.9 L 567.52 381.86 L 568.97 381.85 L 569.35 381.85 L 572.11 382.04 L 574.82 382.2 L 577.48 382.34 L 580.08 382.45 L 582.63 382.54 L 585.14 382.6 L 587.59 382.64 L 589.99 382.65 L 592.87 382.64 L 595.67 382.58 L 597.05 382.54 L 598.4 382.48 L 599.74 382.42 L 601.05 382.35 L 603.15 382.2 L 603.86 382.1 L 604.56 382 L 605.25 381.88 L 605.92 381.75 L 606.6 381.61 L 607.26 381.46 L 607.91 381.3 L 608.55 381.13 L 609.18 380.95 L 609.81 380.75 L 610.42 380.55 L 611.03 380.33 L 611.62 380.11 L 612.21 379.87 L 612.78 379.62 L 613.35 379.36 L 613.91 379.09 L 614.46 378.81 L 615 378.52 L 615.53 378.22 L 616.05 377.91 L 616.56 377.58 L 617.06 377.25 L 617.55 376.9 L 618.03 376.55 L 618.51 376.18 L 618.97 375.8 L 619.42 375.41 L 619.87 375.01 L 620.31 374.6 L 620.73 374.18 L 621.15 373.75 L 621.7 373.29 L 622.23 372.79 L 622.75 372.27 L 623.24 371.73 L 623.71 371.15 L 624.16 370.54 L 624.59 369.91 L 625 369.25 L 628.05 364.55 L 628.26 364.24 L 628.47 363.93 L 628.7 363.63 L 628.94 363.33 L 629.18 363.04 L 629.43 362.75 L 629.69 362.47 L 629.97 362.2 L 630.25 361.93 L 630.54 361.67 L 630.83 361.41 L 631.14 361.16 L 631.78 360.67 L 632.46 360.2 L 633.18 359.75 L 633.93 359.33 L 634.72 358.93 L 635.54 358.55 L 636.4 358.19 L 637.3 357.86 L 638.23 357.54 L 639.2 357.25 L 640.2 356.91 L 641.16 356.55 L 641.63 356.36 L 642.08 356.16 L 642.52 355.96 L 642.95 355.75 L 645.05 354.45 L 648.75 351.1 L 649.38 350.52 L 650.02 349.96 L 650.67 349.42 L 651.34 348.89 L 652.02 348.39 L 652.72 347.9 L 653.43 347.43 L 654.15 346.98 L 654.89 346.54 L 655.64 346.12 L 656.41 345.72 L 657.19 345.34 L 657.98 344.98 L 658.79 344.64 L 659.61 344.31 L 660.45 344 L 661.35 343.65 L 662.24 343.28 L 663.12 342.88 L 663.97 342.46 L 664.82 342.01 L 665.64 341.54 L 666.45 341.04 L 667.25 340.52 L 668.03 339.98 L 668.79 339.41 L 669.54 338.82 L 670.28 338.21 L 670.99 337.57 L 671.69 336.9 L 672.38 336.21 L 673.05 335.5 L 673.62 334.86 L 674.17 334.2 L 674.71 333.53 L 675.22 332.86 L 675.72 332.17 L 676.19 331.46 L 676.65 330.75 L 677.09 330.02 L 677.51 329.29 L 677.91 328.54 L 678.29 327.78 L 678.65 327.01 L 678.99 326.22 L 679.31 325.43 L 679.62 324.62 L 679.9 323.8 L 680.1 323.2 L 680.39 322.27 L 680.65 321.34 L 680.89 320.41 L 681.1 319.49 L 681.28 318.56 L 681.44 317.64 L 681.58 316.72 L 681.69 315.8 L 681.77 314.88 L 681.83 313.97 L 681.86 313.05 L 681.87 312.14 L 681.85 311.23 L 681.81 310.32 L 681.74 309.41 L 681.65 308.5 L 681.55 307.39 L 681.43 306.3 L 681.27 305.21 L 681.09 304.13 L 680.88 303.06 L 680.64 302.01 L 680.36 300.96 L 680.06 299.92 L 679.73 298.9 L 679.37 297.88 L 678.98 296.88 L 678.57 295.88 L 678.12 294.9 L 677.64 293.92 L 677.14 292.96 L 676.6 292 L 676.21 291.37 L 675.84 290.72 L 675.48 290.07 L 675.14 289.4 L 674.81 288.71 L 674.5 288.02 L 674.2 287.31 L 673.91 286.59 L 673.64 285.85 L 673.39 285.11 L 673.14 284.35 L 672.92 283.57 L 672.7 282.79 L 672.5 281.99 L 672.32 281.17 L 672.15 280.35 L 671.99 279.49 L 671.85 278.63 L 671.73 277.75 L 671.61 276.86 L 671.51 275.96 L 671.43 275.05 L 671.36 274.13 L 671.3 273.2 L 671.2 271.54 L 671.13 269.88 L 671.08 268.21 L 671.04 266.55 L 671.03 264.89 L 671.04 263.23 L 671.07 261.56 L 671.12 259.9 L 671.2 258.24 L 671.29 256.58 L 671.41 254.91 L 671.54 253.25 L 671.7 251.59 L 671.88 249.93 L 672.08 248.26 L 672.3 246.6 L 672.39 246.15 L 672.47 245.69 L 672.53 245.23 L 672.59 244.76 L 672.63 244.3 L 672.67 243.83 L 672.69 243.36 L 672.7 242.88 L 672.7 242.4 L 672.69 241.92 L 672.67 241.44 L 672.64 240.95 L 672.59 240.46 L 672.54 239.97 L 672.48 239.47 L 672.4 238.98 L 672.31 238.47 L 672.22 237.97 L 672.11 237.46 L 671.99 236.95 L 671.72 235.92 L 671.4 234.88 L 671.04 233.83 L 670.64 232.76 L 670.19 231.69 L 669.7 230.6 L 668.78 228.83 L 667.81 227.02 L 666.8 225.17 L 665.75 223.29 L 664.65 221.36 L 663.51 219.4 L 662.33 217.39 L 661.1 215.35 L 659.84 213.32 L 658.64 211.34 L 657.52 209.42 L 656.47 207.55 L 655.5 205.74 L 654.59 203.98 L 654.17 203.11 L 653.76 202.27 L 653.37 201.43 L 653 200.61 L 652.65 199.81 L 652.31 199.01 L 651.99 198.23 L 651.69 197.46 L 651.41 196.71 L 651.15 195.97 L 650.9 195.24 L 650.67 194.53 L 650.47 193.83 L 650.27 193.14 L 650.1 192.47 L 649.94 191.81 L 649.81 191.16 L 649.69 190.53 L 649.58 189.91 L 649.5 189.3 L 649.39 188.89 L 649.3 188.48 L 649.22 188.08 L 649.16 187.68 L 649.1 187.27 L 649.06 186.87 L 649.04 186.48 L 649.03 186.08 L 649.03 185.68 L 649.04 185.29 L 649.07 184.9 L 649.11 184.51 L 649.16 184.12 L 649.23 183.73 L 649.31 183.35 L 649.4 182.96 L 649.51 182.58 L 649.63 182.2 L 649.76 181.82 L 649.91 181.44 L 650.07 181.07 L 650.24 180.7 L 650.43 180.32 L 650.62 179.95 L 650.84 179.58 L 651.06 179.22 L 651.3 178.85 L 651.56 178.49 L 651.82 178.13 L 652.1 177.77 L 652.39 177.41 L 652.7 177.05 L 653.25 176.07 L 653.84 175.07 L 654.48 174.07 L 655.16 173.05 L 655.89 172.02 L 656.67 170.98 L 657.49 169.92 L 658.35 168.85 L 658.88 168.28 L 659.4 167.7 L 659.89 167.1 L 660.36 166.48 L 660.81 165.86 L 661.24 165.21 L 661.65 164.56 L 662.04 163.89 L 662.41 163.2 L 662.75 162.5 L 663.08 161.79 L 663.38 161.06 L 663.67 160.32 L 663.93 159.56 L 664.18 158.79 L 664.4 158 L 664.45 157.7 L 664.64 157.07 L 664.81 156.43 L 664.96 155.79 L 665.11 155.14 L 665.23 154.49 L 665.35 153.83 L 665.44 153.17 L 665.53 152.5 L 665.59 151.83 L 665.65 151.15 L 665.68 150.47 L 665.71 149.79 L 665.71 149.1 L 665.71 148.4 L 665.69 147.7 L 665.65 147 L 665.6 146.22 L 665.54 145.45 L 665.46 144.69 L 665.37 143.93 L 665.26 143.18 L 665.14 142.44 L 665.01 141.7 L 664.86 140.98 L 664.7 140.25 L 664.53 139.54 L 664.34 138.83 L 664.14 138.13 L 663.93 137.44 L 663.7 136.75 L 663.46 136.07 L 663.2 135.4 L 662.8 134.2 L 662.35 132.93 L 662.12 132.32 L 661.88 131.72 L 661.63 131.13 L 661.38 130.56 L 661.13 130 L 660.87 129.45 L 660.6 128.92 L 660.32 128.4 L 660.05 127.89 L 659.76 127.4 L 659.47 126.92 L 659.17 126.45 L 658.87 126 L 658.56 125.56 L 658.25 125.14 L 657.93 124.72 L 657.6 124.32 L 657.27 123.94 L 656.94 123.57 L 656.59 123.21 L 656.24 122.86 L 655.89 122.53 L 655.53 122.21 L 655.17 121.9 L 654.79 121.61 L 654.42 121.33 L 654.03 121.07 L 653.64 120.81 L 653.25 120.58 L 652.85 120.35 L 652.37 119.86 L 651.89 119.39 L 651.38 118.93 L 650.87 118.5 L 650.34 118.08 L 649.8 117.68 L 649.24 117.3 L 648.67 116.94 L 648.09 116.59 L 647.5 116.27 L 646.89 115.96 L 646.27 115.67 L 645.63 115.4 L 644.99 115.15 L 644.32 114.92 L 643.65 114.7 L 640.95 113.9 L 638.53 113.61 L 636.11 113.29 L 633.7 112.93 L 631.3 112.55 L 630.55 112.56 L 629.64 112.55 L 628.72 112.51 L 627.82 112.46 L 626.91 112.38 L 626.01 112.28 L 625.12 112.16 L 624.23 112.02 L 623.34 111.86 L 622.46 111.67 L 621.58 111.46 L 620.71 111.23 L 619.84 110.98 L 618.97 110.7 L 618.11 110.41 L 617.25 110.09 L 616.4 109.75 L 615.71 109.46 L 615.06 109.14 L 614.43 108.8 L 613.84 108.43 L 613.55 108.23 L 613.27 108.02 L 613 107.81 L 612.73 107.59 L 612.48 107.37 L 612.23 107.14 L 611.98 106.9 L 611.75 106.65 L 607.9 102.9 L 607.41 102.44 L 606.89 101.99 L 606.36 101.56 L 605.8 101.15 L 605.22 100.75 L 604.62 100.36 L 604 99.99 L 603.35 99.64 L 602.68 99.3 L 601.99 98.97 L 601.28 98.67 L 600.55 98.37 L 599.8 98.09 L 599.02 97.83 L 598.22 97.58 L 597.4 97.35 L 594.35 96.7 L 592.43 96.35 L 590.44 96 L 588.4 95.66 L 586.3 95.33 L 584.14 95.01 L 581.93 94.7 L 579.65 94.39 L 577.31 94.09 L 574.92 93.79 L 572.46 93.51 L 569.95 93.23 L 567.38 92.96 L 564.75 92.7 L 562.06 92.44 L 559.31 92.19 L 556.5 91.95 L 549.4 91.15 L 548.61 91.08 L 547.83 90.98 L 547.06 90.86 L 546.3 90.72 L 545.54 90.56 L 544.79 90.37 L 544.05 90.16 L 543.32 89.93 L 542.59 89.68 L 541.87 89.41 L 541.16 89.11 L 540.46 88.79 L 539.77 88.45 L 539.08 88.08 L 538.4 87.7 L 537.72 87.29 L 537.06 86.86 L 536.4 86.4 L 535.75 85.93 L 535.11 85.43 L 534.48 84.91 L 533.85 84.36 L 533.23 83.8 L 532.62 83.21 L 532.01 82.6 L 531.42 81.97 L 530.83 81.31 L 530.25 80.63 L 529.67 79.93 L 529.11 79.21 L 528.55 78.47 L 528 77.7 L 527.8 77.65 L 527.3 76.84 L 526.8 76.04 L 526.29 75.26 L 525.78 74.49 L 525.26 73.74 L 524.73 73.01 L 524.2 72.28 L 523.66 71.58 L 523.11 70.89 L 522.56 70.21 L 522.01 69.55 L 521.45 68.9 L 520.88 68.27 L 520.3 67.65 L 519.72 67.05 L 519.14 66.46 L 518.55 65.89 L 517.95 65.33 L 517.34 64.79 L 516.73 64.26 L 516.12 63.75 L 515.5 63.25 L 514.87 62.77 L 514.23 62.3 L 513.59 61.85 L 512.95 61.41 L 512.3 60.99 L 511.64 60.58 L 510.98 60.19 L 510.31 59.81 L 509.63 59.45 L 508.95 59.1 L 507.2 58.35 L 505.1 57.51 L 503 56.7 L 500.9 55.93 L 498.8 55.21 L 496.7 54.52 L 494.6 53.86 L 492.5 53.25 L 490.4 52.67 L 488.3 52.14 L 486.2 51.64 L 484.1 51.18 L 482 50.76 L 479.9 50.37 L 477.8 50.03 L 475.7 49.72 L 473.6 49.45 L 472.07 49.28 L 470.55 49.12 L 469.04 49 L 467.55 48.89 L 466.08 48.81 L 464.62 48.75 L 463.17 48.72 L 461.74 48.71 Z"/>
    </clipPath>
    <g clip-path="url(#clipPath0)">
      <use ffdec:characterId="93" height="490.0" transform="matrix(1.0, 0.0, 0.0, 1.0, 0.0, 0.0)" width="825.0" xlink:href="#shape0"/>
    </g>
    <use ffdec:characterId="91" height="42.3" id="loadIndicators_mc" transform="matrix(1.0, 0.0, 0.0, 1.0, 197.0, 257.95)" width="434.95" xlink:href="#sprite1"/>
  </g>
  <defs>
    <g id="shape0" transform="matrix(1.0, 0.0, 0.0, 1.0, 0.0, 0.0)">
      <path d="M825.0 0.0 L825.0 490.0 0.0 490.0 0.0 0.0 825.0 0.0 M679.55 487.6 L678.65 488.0 Q679.05 488.2 679.2 487.85 L679.55 487.6" fill="#319831" fill-rule="evenodd" stroke="none"/>
    </g>
    <g id="sprite1" transform="matrix(1.0, 0.0, 0.0, 1.0, 217.45, 22.15)">
      <filter id="filter7">
        <feColorMatrix in="SourceGraphic" result="filterResult0" type="matrix" values="0 0 0 0 1.0,0 0 0 0 0.4,0 0 0 0 0.0,0 0 0 1 0"/>
        <feConvolveMatrix divisor="9.0" in="filterResult0" kernelMatrix="1 1 1 1 1 1 1 1 1" order="3 3" result="filterResult1"/>
        <feComposite in="SourceGraphic" in2="filterResult1" operator="over" result="filterResult2"/>
      </filter>
      <use ffdec:characterId="81" filter="url(#filter7)" height="26.15" id="loadMsg_txt" transform="matrix(1.0, 0.0, 0.0, 1.0, -217.45, -6.0)" width="434.95" xlink:href="#text0"/>
      <use ffdec:characterId="85" height="15.9" id="loadBar_spr" transform="matrix(1.0, 0.0, 0.0, 1.0, -52.0, -22.15)" width="102.95" xlink:href="#sprite2"/>
      <use ffdec:characterId="90" height="15.9" id="waitingBar_mc" transform="matrix(1.0, 0.0, 0.0, 1.0, -66.1, -22.15)" width="134.25" xlink:href="#sprite4"/>
    </g>
    <g id="text0" transform="matrix(1.0, 0.0, 0.0, 1.0, -20.4, 2.0)">
      <g transform="matrix(1.0, 0.0, 0.0, 1.0, 20.4, -2.0)">
        <use fill="#ffff00" height="26.15" transform="matrix(0.0156, 0.0, 0.0, 0.0156, 185.7, 17.4)" width="434.95" xlink:href="#font_GosmickSans_L0"/>
        <use fill="#ffff00" height="26.15" transform="matrix(0.0156, 0.0, 0.0, 0.0156, 193.5, 17.4)" width="434.95" xlink:href="#font_GosmickSans_O0"/>
        <use fill="#ffff00" height="26.15" transform="matrix(0.0156, 0.0, 0.0, 0.0156, 204.15, 17.4)" width="434.95" xlink:href="#font_GosmickSans_A0"/>
        <use fill="#ffff00" height="26.15" transform="matrix(0.0156, 0.0, 0.0, 0.0156, 214.25, 17.4)" width="434.95" xlink:href="#font_GosmickSans_D0"/>
        <use fill="#ffff00" height="26.15" transform="matrix(0.0156, 0.0, 0.0, 0.0156, 224.45, 17.4)" width="434.95" xlink:href="#font_GosmickSans_I0"/>
        <use fill="#ffff00" height="26.15" transform="matrix(0.0156, 0.0, 0.0, 0.0156, 228.8, 17.4)" width="434.95" xlink:href="#font_GosmickSans_N0"/>
        <use fill="#ffff00" height="26.15" transform="matrix(0.0156, 0.0, 0.0, 0.0156, 238.95, 17.4)" width="434.95" xlink:href="#font_GosmickSans_G0"/>
      </g>
    </g>
    <g id="font_GosmickSans_L0">
      <path d="M472.0 -59.5 Q477.0 -40.0 461.5 -27.5 445.5 -15.5 414.0 -8.0 383.0 -1.0 338.5 2.5 294.0 6.0 241.5 8.0 211.0 9.0 184.0 8.5 156.5 8.0 136.0 4.0 93.0 -3.0 72.0 -24.0 51.0 -45.0 43.5 -80.5 36.0 -115.5 36.5 -166.0 37.0 -216.0 38.0 -281.5 38.0 -318.5 39.5 -369.5 L42.5 -474.0 45.5 -578.0 48.0 -665.5 Q48.0 -683.0 61.5 -693.0 75.0 -703.5 83.0 -707.5 99.5 -711.5 114.0 -708.5 129.0 -705.5 141.0 -699.5 152.5 -693.0 158.5 -685.5 165.0 -678.0 164.0 -674.0 164.0 -665.5 162.5 -657.0 161.0 -648.0 159.5 -637.0 155.5 -597.0 152.5 -551.0 149.5 -505.0 147.5 -456.0 145.5 -407.5 144.5 -359.0 143.5 -310.5 143.5 -265.0 L143.5 -214.0 Q143.5 -181.0 144.5 -151.5 145.5 -122.0 147.5 -98.5 179.0 -77.0 239.5 -80.0 259.0 -81.0 277.5 -81.0 296.0 -81.0 317.5 -82.0 L364.0 -85.0 Q389.0 -87.0 422.0 -91.0 427.0 -92.0 432.0 -91.0 L439.5 -90.0 Q452.5 -90.0 461.5 -81.5 470.0 -72.5 472.0 -59.5" fill-rule="evenodd" stroke="none"/>
    </g>
    <g id="font_GosmickSans_O0">
      <path d="M557.0 -381.0 Q555.0 -417.5 550.5 -451.0 546.0 -484.5 537.5 -506.0 523.5 -544.0 503.5 -569.0 483.5 -594.0 459.5 -609.5 435.0 -624.5 406.0 -631.0 377.0 -637.0 344.0 -637.0 296.0 -637.0 256.0 -615.5 216.0 -594.0 187.5 -556.0 158.5 -518.0 143.5 -465.0 128.0 -411.5 128.0 -349.0 128.0 -291.5 143.5 -241.5 158.5 -191.5 187.0 -154.5 215.0 -117.5 254.5 -96.0 294.0 -74.5 342.0 -74.5 391.0 -74.5 432.0 -98.0 473.0 -121.5 501.0 -162.5 529.5 -203.5 544.5 -260.0 559.0 -316.5 557.0 -381.0 M653.5 -368.5 Q651.5 -286.5 626.0 -216.5 600.0 -146.5 557.0 -94.5 514.0 -43.0 456.5 -13.0 398.5 16.5 332.0 16.5 268.5 16.5 214.5 -10.0 161.0 -37.0 121.0 -83.5 81.0 -130.0 58.5 -193.0 36.0 -256.0 36.0 -328.5 36.0 -411.5 61.0 -483.5 86.0 -555.0 129.0 -608.0 172.0 -660.5 230.0 -691.0 288.0 -721.0 353.5 -721.0 399.5 -721.0 442.0 -708.0 484.5 -695.5 520.0 -671.5 555.0 -647.0 582.5 -613.5 609.5 -579.5 625.0 -538.5 632.0 -518.0 638.0 -490.5 644.5 -463.0 648.0 -437.5 651.5 -411.5 653.0 -392.0 654.5 -372.5 653.5 -368.5" fill-rule="evenodd" stroke="none"/>
    </g>
    <g id="font_GosmickSans_A0">
      <path d="M435.0 -296.0 Q412.5 -364.5 387.5 -437.0 362.5 -509.0 341.0 -577.5 339.0 -577.5 334.5 -568.0 329.5 -558.0 326.5 -550.0 299.0 -478.5 269.5 -417.0 239.5 -355.5 216.0 -292.0 255.0 -296.0 308.0 -293.5 361.5 -291.0 435.0 -296.0 M628.5 -32.0 Q631.0 -27.0 624.0 -20.0 617.5 -13.5 606.5 -7.5 596.0 -1.0 585.0 3.5 574.5 8.0 569.5 8.0 543.5 8.0 524.5 -35.0 505.0 -78.0 482.5 -145.5 479.0 -154.5 477.0 -165.5 475.0 -176.0 471.5 -186.5 468.0 -196.5 461.5 -203.0 454.5 -209.0 442.5 -209.0 425.0 -209.0 399.0 -210.0 372.5 -211.0 344.5 -211.5 L289.5 -212.5 240.5 -211.0 Q211.0 -208.0 197.0 -204.0 183.5 -199.5 178.0 -194.0 173.0 -188.5 171.0 -181.5 169.0 -174.0 162.0 -165.0 153.5 -143.5 143.0 -113.5 132.0 -83.0 118.5 -56.0 104.5 -29.0 87.5 -10.0 70.5 9.0 51.0 9.0 38.0 9.0 26.5 -1.0 15.5 -11.5 15.5 -29.0 19.5 -44.0 30.0 -68.0 41.0 -91.5 58.5 -135.5 68.5 -172.0 84.0 -208.5 99.5 -245.0 116.5 -288.0 138.0 -337.0 163.0 -400.5 187.5 -464.0 212.5 -523.0 237.5 -581.5 260.5 -628.5 283.5 -675.0 301.0 -690.0 316.5 -704.5 337.0 -714.0 357.5 -723.0 368.5 -723.0 387.0 -723.0 398.5 -711.5 409.5 -700.5 415.5 -684.0 422.0 -667.5 426.0 -648.5 430.0 -629.0 435.0 -613.5 471.0 -502.0 507.5 -391.0 543.5 -279.5 579.5 -166.0 583.5 -154.0 591.5 -134.5 599.0 -115.0 607.0 -95.0 615.5 -75.0 621.5 -58.0 627.5 -41.0 628.5 -32.0" fill-rule="evenodd" stroke="none"/>
    </g>
    <g id="font_GosmickSans_D0">
      <path d="M527.5 -365.5 Q525.5 -456.5 483.0 -516.5 440.5 -576.5 365.5 -594.5 350.5 -605.0 327.0 -610.5 303.5 -616.0 277.0 -619.0 251.0 -621.5 224.5 -621.0 198.0 -620.5 176.5 -618.0 170.0 -592.5 166.0 -526.5 162.0 -460.5 162.0 -361.0 L162.0 -265.0 Q162.0 -219.0 163.5 -180.5 165.0 -142.0 167.0 -110.5 190.5 -96.0 220.5 -85.5 250.0 -74.5 289.0 -74.5 345.5 -74.5 390.5 -95.5 435.5 -116.5 466.5 -155.0 498.0 -193.5 513.5 -247.0 529.5 -301.0 527.5 -365.5 M625.0 -357.0 Q625.0 -275.5 599.0 -207.5 573.0 -140.0 526.0 -91.5 479.5 -43.0 415.5 -15.5 351.5 11.5 275.5 11.5 235.5 11.5 193.0 4.0 150.5 -4.0 120.0 -18.0 107.5 -26.5 98.5 -29.0 89.0 -31.5 82.5 -35.0 76.0 -38.5 71.5 -46.0 66.5 -53.0 63.5 -70.5 60.5 -88.0 60.0 -118.0 59.5 -148.5 60.5 -197.5 61.5 -216.0 62.0 -245.0 62.5 -274.5 62.5 -305.0 62.5 -335.5 63.0 -363.0 63.5 -390.0 64.5 -404.5 70.5 -488.5 77.0 -572.5 78.0 -591.0 73.5 -598.5 68.5 -606.0 61.5 -610.5 L47.0 -620.5 Q40.0 -625.5 36.0 -640.0 33.0 -659.5 45.0 -671.5 57.5 -684.0 79.0 -691.5 100.5 -699.5 129.5 -702.5 159.0 -705.5 190.5 -705.5 236.5 -705.5 273.0 -703.5 309.5 -701.5 341.0 -693.0 410.0 -683.0 462.5 -651.5 515.5 -620.5 551.5 -575.0 588.0 -529.5 606.5 -473.5 625.0 -417.5 625.0 -357.0" fill-rule="evenodd" stroke="none"/>
    </g>
    <g id="font_GosmickSans_I0">
      <path d="M249.5 -19.5 Q251.5 -9.0 243.5 -3.0 235.5 3.0 222.5 7.5 209.5 11.5 194.0 13.0 L165.5 15.5 141.5 17.0 Q122.5 18.5 102.0 18.0 82.0 17.5 64.5 14.0 47.0 10.5 45.0 0.0 43.0 -12.0 49.5 -23.0 56.0 -33.5 64.5 -44.0 72.5 -54.0 79.0 -64.0 86.0 -73.5 83.0 -85.0 78.5 -102.5 76.5 -121.5 74.5 -141.0 73.0 -166.5 71.5 -191.5 71.0 -223.5 70.5 -256.0 70.5 -299.0 70.5 -358.5 72.5 -419.5 74.5 -481.0 78.5 -540.5 L76.5 -559.5 74.5 -579.5 Q71.5 -594.0 65.5 -601.0 59.0 -608.0 53.0 -615.5 47.0 -622.5 41.5 -631.0 36.5 -640.0 35.5 -657.5 33.5 -684.0 58.0 -693.0 82.5 -702.5 146.0 -707.5 L175.0 -708.5 Q191.5 -708.5 206.5 -704.5 222.0 -700.5 233.0 -692.0 244.5 -684.0 246.5 -669.5 247.5 -664.5 241.5 -655.0 235.5 -646.0 226.0 -633.0 217.0 -620.5 205.5 -605.5 194.5 -590.5 184.0 -575.5 180.0 -523.0 177.5 -468.5 175.0 -413.5 175.0 -359.5 L175.0 -327.5 175.0 -261.0 Q175.0 -228.0 176.0 -199.0 L177.5 -146.0 Q178.0 -121.5 180.0 -108.5 180.0 -94.0 191.0 -83.0 201.5 -71.5 214.5 -61.5 L238.5 -41.5 Q249.5 -31.5 249.5 -19.5" fill-rule="evenodd" stroke="none"/>
    </g>
    <g id="font_GosmickSans_N0">
      <path d="M619.5 -86.0 Q619.5 -70.0 610.5 -54.5 611.5 -37.0 597.5 -27.0 583.5 -16.5 565.5 -12.5 547.5 -8.5 531.0 -9.0 514.0 -9.5 508.0 -12.5 503.5 -12.5 501.5 -13.5 476.0 -37.0 437.0 -89.5 398.0 -141.5 353.0 -208.0 308.0 -274.5 261.5 -348.0 215.0 -421.0 175.0 -485.5 167.0 -499.0 158.0 -509.5 149.5 -520.5 141.0 -530.5 133.0 -478.5 133.5 -418.0 134.0 -357.5 134.0 -302.5 L134.0 -254.0 Q134.0 -198.0 135.5 -158.0 137.0 -118.0 140.0 -89.5 141.0 -75.0 135.5 -57.5 130.0 -40.0 120.0 -25.5 110.5 -10.5 98.0 -0.5 86.0 9.0 74.5 9.0 58.0 9.0 47.0 -2.5 35.5 -13.5 35.5 -30.0 L36.5 -58.5 Q38.0 -83.0 39.5 -121.5 41.0 -160.0 42.5 -210.0 44.0 -260.0 44.0 -317.5 44.0 -391.0 43.5 -443.0 43.0 -494.5 42.0 -532.5 41.0 -570.5 40.5 -599.0 40.0 -627.5 39.0 -655.0 39.0 -669.5 49.0 -682.5 59.5 -695.0 77.5 -700.0 93.0 -704.5 107.0 -705.0 120.5 -705.5 136.0 -696.5 151.5 -688.0 168.5 -667.5 185.0 -647.0 206.5 -609.0 245.5 -540.5 288.5 -471.0 331.5 -401.5 373.0 -339.5 414.5 -277.5 452.5 -228.0 490.5 -178.5 520.0 -149.5 524.0 -161.0 522.0 -185.5 521.0 -195.5 520.5 -203.0 L519.5 -218.0 518.5 -237.5 Q518.0 -249.0 518.0 -269.5 L518.0 -342.0 Q518.0 -432.0 517.0 -510.5 516.0 -588.5 509.0 -661.5 508.0 -674.5 516.0 -685.5 524.0 -696.0 537.0 -703.5 549.5 -710.5 564.0 -712.5 578.5 -714.5 589.5 -711.5 604.0 -711.5 611.5 -698.5 619.5 -686.0 619.5 -654.0 619.5 -621.5 618.0 -581.0 L615.0 -496.5 Q613.0 -452.5 612.0 -407.0 611.0 -361.5 611.0 -319.5 L611.0 -270.5 Q611.0 -216.0 613.0 -169.5 615.5 -123.0 619.5 -86.0" fill-rule="evenodd" stroke="none"/>
    </g>
    <g id="font_GosmickSans_G0">
      <path d="M622.0 -237.0 Q617.0 -178.5 591.0 -132.0 565.5 -85.0 527.0 -53.0 489.0 -20.5 440.5 -3.5 392.5 14.0 341.5 14.0 275.0 14.0 218.5 -9.0 162.0 -32.0 121.5 -75.0 81.0 -118.0 58.5 -180.5 36.0 -243.0 36.0 -321.5 36.0 -390.5 55.5 -461.0 75.0 -531.5 114.5 -589.5 154.0 -647.5 213.0 -685.0 271.5 -723.0 350.5 -726.0 397.5 -728.0 447.0 -721.5 496.0 -715.0 534.5 -698.0 572.5 -681.0 593.5 -653.5 614.5 -626.0 605.5 -585.0 603.5 -575.5 599.0 -566.0 594.5 -556.0 588.5 -548.0 583.0 -540.0 577.5 -534.5 571.5 -529.5 567.5 -529.5 548.0 -530.5 540.0 -536.5 532.0 -543.0 528.5 -551.0 525.5 -559.0 525.5 -568.5 525.5 -577.5 522.5 -585.0 518.5 -604.5 502.0 -616.0 485.5 -628.0 462.0 -633.5 438.5 -639.0 409.5 -640.5 380.0 -642.0 351.5 -641.0 303.5 -639.0 263.5 -612.0 223.5 -585.0 195.5 -541.0 167.0 -497.0 151.5 -442.0 135.5 -387.0 135.5 -331.0 135.5 -213.0 184.5 -148.5 234.0 -84.0 321.0 -78.0 368.0 -75.0 405.5 -87.0 442.5 -98.5 469.5 -122.5 496.0 -146.5 511.5 -180.0 526.5 -213.0 529.5 -253.0 536.0 -269.5 533.0 -276.0 529.5 -283.0 523.5 -285.5 517.5 -288.0 511.5 -288.0 505.0 -288.0 505.0 -291.0 468.5 -289.0 430.5 -292.0 392.5 -295.0 356.5 -289.0 340.5 -286.0 326.0 -295.0 311.5 -304.5 309.5 -318.5 307.5 -326.0 307.5 -336.0 307.5 -347.5 311.5 -356.5 315.5 -365.5 325.5 -372.5 335.0 -379.0 353.5 -380.0 370.0 -378.0 395.5 -378.0 L451.0 -378.0 Q479.5 -378.0 508.0 -379.0 L560.5 -381.0 Q577.0 -382.0 593.0 -378.0 609.5 -374.0 620.0 -359.0 630.0 -344.0 632.0 -315.0 634.0 -286.0 622.0 -237.0" fill-rule="evenodd" stroke="none"/>
    </g>
    <g id="sprite2" transform="matrix(1.0, 0.0, 0.0, 1.0, 1.55, 2.05)">
      <use ffdec:characterId="83" height="12.0" id="loadBarBar_spr" transform="matrix(1.0, 0.0, 0.0, 1.0, 0.0, 0.0)" width="100.0" xlink:href="#sprite3"/>
      <use ffdec:characterId="84" height="15.9" transform="matrix(1.0, 0.0, 0.0, 1.0, -1.55, -2.05)" width="102.95" xlink:href="#shape2"/>
    </g>
    <g id="sprite3" transform="matrix(1.0, 0.0, 0.0, 1.0, 0.0, 0.0)">
      <use ffdec:characterId="82" height="12.0" transform="matrix(1.0, 0.0, 0.0, 1.0, 0.0, 0.0)" width="100.0" xlink:href="#shape1"/>
    </g>
    <g id="shape1" transform="matrix(1.0, 0.0, 0.0, 1.0, 0.0, 0.0)">
      <path d="M100.0 12.0 L0.0 12.0 0.0 0.0 100.0 0.0 100.0 12.0" fill="#f3f301" fill-opacity="0.0" fill-rule="evenodd" stroke="none"/>
    </g>
    <g id="shape2" transform="matrix(1.0, 0.0, 0.0, 1.0, 1.55, 2.05)">
      <path d="M9.55 -0.15 Q9.8 0.15 9.3 0.5 8.85 0.85 8.6 0.35 8.35 -0.15 8.8 -0.3 L9.55 -0.15 M7.75 -0.35 Q8.15 0.2 7.65 0.5 7.1 0.8 6.8 0.2 6.45 -0.4 6.85 -0.65 7.3 -0.95 7.75 -0.35 M6.0 -0.05 Q6.35 0.55 5.75 1.0 5.15 1.45 4.75 0.65 4.3 -0.2 4.95 -0.45 5.6 -0.7 6.0 -0.05 M3.55 -0.45 Q3.85 0.5 3.15 0.7 2.45 0.95 1.85 0.1 1.3 -0.7 2.25 -1.05 3.25 -1.4 3.55 -0.45 M1.35 -0.2 Q1.65 0.15 1.1 0.6 0.55 1.05 0.2 0.4 -0.15 -0.25 0.45 -0.4 1.05 -0.6 1.35 -0.2 M16.95 -0.6 Q17.45 0.0 16.85 0.35 16.3 0.7 15.9 0.0 15.55 -0.65 16.05 -0.95 16.5 -1.2 16.95 -0.6 M12.1 0.8 Q11.4 1.05 10.8 0.2 10.25 -0.6 11.2 -0.95 12.05 -1.25 12.4 -0.6 L12.75 -0.85 Q13.5 -1.15 13.9 -0.45 14.35 0.25 13.65 0.75 13.0 1.25 12.55 0.45 L12.1 0.8 M23.85 -0.5 Q24.15 0.0 23.65 0.35 23.15 0.7 22.8 0.05 22.45 -0.6 23.0 -0.8 23.5 -1.0 23.85 -0.5 M22.55 -1.15 Q22.9 -0.15 22.15 0.15 21.35 0.4 20.75 -0.5 20.15 -1.4 21.2 -1.8 22.2 -2.15 22.55 -1.15 M29.55 -0.4 L29.7 -0.1 29.8 -0.15 Q30.7 -0.5 31.0 0.45 31.35 1.35 30.65 1.6 29.95 1.85 29.4 1.0 L29.2 0.55 Q28.6 1.0 28.2 0.3 27.8 -0.45 28.5 -0.65 29.2 -0.85 29.55 -0.4 M26.75 -1.1 Q27.25 -0.45 26.65 -0.1 26.0 0.25 25.65 -0.5 25.25 -1.2 25.75 -1.5 26.25 -1.75 26.75 -1.1 M40.4 -0.3 Q40.65 0.5 40.05 0.7 39.4 0.9 38.95 0.2 38.45 -0.55 39.3 -0.85 40.1 -1.15 40.4 -0.3 M38.6 -0.45 Q38.95 -0.05 38.3 0.45 37.65 1.0 37.25 0.25 36.85 -0.5 37.55 -0.7 38.25 -0.9 38.6 -0.45 M42.0 -0.45 Q42.35 0.05 41.8 0.45 41.3 0.85 40.95 0.15 40.55 -0.55 41.1 -0.8 41.65 -1.0 42.0 -0.45 M44.05 -1.0 Q44.55 -0.35 43.95 0.0 43.3 0.35 42.95 -0.4 42.55 -1.1 43.05 -1.4 43.55 -1.65 44.05 -1.0 M45.95 -1.25 Q46.2 -0.9 45.7 -0.5 45.15 -0.05 44.8 -0.65 44.5 -1.3 45.05 -1.45 L45.95 -1.25 M49.7 -0.15 Q49.95 0.25 49.6 0.55 49.2 0.8 48.95 0.3 48.65 -0.2 49.05 -0.4 49.5 -0.55 49.7 -0.15 M48.9 -1.35 Q49.25 -0.35 48.5 -0.1 47.75 0.15 47.2 -0.7 46.6 -1.6 47.6 -1.95 48.6 -2.3 48.9 -1.35 M57.9 -0.5 Q58.25 0.5 57.5 0.8 56.7 1.05 56.1 0.15 55.5 -0.75 56.55 -1.15 57.55 -1.5 57.9 -0.5 M55.45 -0.25 Q55.7 0.0 55.3 0.3 54.9 0.6 54.65 0.15 54.4 -0.25 54.85 -0.4 L55.45 -0.25 M52.95 -0.5 Q53.65 0.35 52.8 0.8 52.0 1.3 51.5 0.35 51.0 -0.6 51.65 -1.0 52.3 -1.35 52.95 -0.5 M79.85 -0.05 Q80.15 0.35 79.8 0.5 79.5 0.7 79.25 0.3 79.05 -0.05 79.35 -0.25 79.6 -0.4 79.85 -0.05 M78.75 -0.4 Q79.25 0.4 78.5 0.9 77.75 1.45 77.25 0.45 76.75 -0.5 77.5 -0.85 78.3 -1.15 78.75 -0.4 M73.75 -0.75 Q74.1 -0.3 73.4 0.25 72.75 0.75 72.3 0.0 71.9 -0.8 72.65 -1.0 73.35 -1.2 73.75 -0.75 M68.5 -0.3 Q68.85 0.3 68.25 0.75 67.65 1.2 67.25 0.4 66.8 -0.45 67.45 -0.7 68.1 -0.95 68.5 -0.3 M66.25 -0.7 Q66.5 0.05 65.9 0.25 65.35 0.45 64.9 -0.25 64.45 -0.9 65.2 -1.15 66.0 -1.45 66.25 -0.7 M64.4 -0.4 Q64.65 -0.1 64.2 0.3 63.7 0.65 63.4 0.1 63.15 -0.45 63.65 -0.6 64.15 -0.7 64.4 -0.4 M62.85 -0.6 Q63.6 0.4 62.7 0.9 61.75 1.45 61.2 0.4 60.65 -0.7 61.35 -1.1 62.1 -1.55 62.85 -0.6 M91.5 -1.05 Q91.75 -0.75 91.3 -0.35 90.8 0.0 90.5 -0.55 90.25 -1.1 90.75 -1.25 91.25 -1.35 91.5 -1.05 M88.75 -0.6 Q89.25 0.05 88.65 0.4 88.0 0.75 87.65 0.0 87.25 -0.7 87.75 -1.0 88.25 -1.25 88.75 -0.6 M87.3 -0.2 Q87.75 0.5 87.05 1.05 86.3 1.55 85.8 0.6 85.35 -0.35 86.1 -0.65 86.85 -0.95 87.3 -0.2 M85.4 -0.3 Q85.7 0.5 85.1 0.7 84.5 0.9 84.0 0.2 83.55 -0.5 84.35 -0.8 85.15 -1.1 85.4 -0.3 M82.8 -0.5 Q83.05 -0.15 82.55 0.25 82.0 0.7 81.65 0.1 81.35 -0.55 81.9 -0.7 L82.8 -0.5 M97.55 -0.9 Q98.1 -0.2 97.45 0.15 96.8 0.55 96.4 -0.2 96.05 -0.95 96.55 -1.25 97.05 -1.55 97.55 -0.9 M95.9 -0.4 Q96.35 0.3 95.65 0.8 94.95 1.3 94.5 0.4 94.05 -0.55 94.75 -0.8 95.5 -1.1 95.9 -0.4 M94.15 -0.8 Q94.5 0.2 93.75 0.5 92.95 0.75 92.35 -0.15 91.75 -1.05 92.8 -1.45 93.8 -1.8 94.15 -0.8 M101.3 -0.15 Q101.6 0.2 101.05 0.65 100.5 1.1 100.15 0.45 99.8 -0.2 100.4 -0.35 101.0 -0.55 101.3 -0.15 M99.95 1.55 Q100.25 2.35 99.65 2.55 99.05 2.75 98.55 2.05 98.1 1.35 98.9 1.05 99.7 0.75 99.95 1.55 M100.55 4.1 Q100.9 4.7 100.35 5.1 L100.1 5.25 100.55 5.6 Q101.0 6.2 100.45 6.55 99.9 6.85 99.55 6.2 99.2 5.55 99.65 5.3 L99.85 5.25 99.4 4.75 Q99.0 4.0 99.6 3.8 100.2 3.55 100.55 4.1 M91.55 11.4 Q91.85 11.9 91.4 12.25 90.9 12.55 90.6 11.95 90.25 11.3 90.75 11.1 91.25 10.95 91.55 11.4 M94.4 11.65 Q94.6 12.15 94.2 12.25 93.85 12.4 93.55 11.95 93.25 11.55 93.75 11.35 94.25 11.15 94.4 11.65 M95.65 11.7 Q95.9 12.05 95.4 12.45 94.9 12.85 94.6 12.25 94.3 11.7 94.85 11.55 L95.65 11.7 M100.6 8.6 Q100.95 9.05 100.25 9.6 99.6 10.1 99.15 9.35 98.75 8.55 99.5 8.35 100.2 8.15 100.6 8.6 M98.25 11.7 Q98.55 12.1 98.2 12.25 97.9 12.45 97.65 12.05 97.45 11.7 97.75 11.5 98.0 11.35 98.25 11.7 M100.25 12.7 Q99.6 13.15 99.15 12.3 98.75 11.45 99.4 11.2 L99.55 11.15 Q99.5 10.8 100.0 10.6 100.7 10.35 100.95 11.05 101.2 11.8 100.65 11.95 L100.6 12.0 100.25 12.7 M83.9 11.85 Q84.05 12.35 83.7 12.45 83.35 12.55 83.05 12.15 82.8 11.75 83.25 11.6 83.75 11.4 83.9 11.85 M89.25 11.5 Q89.65 12.05 89.15 12.35 88.6 12.65 88.3 12.05 87.95 11.45 88.35 11.2 88.8 10.9 89.25 11.5 M87.75 11.55 Q88.05 11.95 87.45 12.45 86.8 12.95 86.4 12.2 86.05 11.5 86.7 11.3 87.4 11.15 87.75 11.55 M82.05 11.3 Q82.55 12.2 81.7 12.8 80.85 13.4 80.25 12.3 79.7 11.15 80.6 10.8 81.5 10.45 82.05 11.3 M75.8 0.35 Q76.0 1.0 75.5 1.2 74.95 1.35 74.55 0.75 74.15 0.15 74.85 -0.1 75.55 -0.35 75.8 0.35 M71.95 0.05 Q72.35 0.6 71.85 0.9 71.35 1.15 71.05 0.6 70.75 0.0 71.15 -0.25 71.55 -0.5 71.95 0.05 M75.85 11.7 Q76.1 12.45 75.55 12.6 75.0 12.8 74.6 12.15 74.15 11.55 74.9 11.25 75.6 11.0 75.85 11.7 M73.05 11.8 Q73.5 12.5 72.8 13.0 72.1 13.5 71.65 12.6 71.2 11.65 71.9 11.4 72.65 11.1 73.05 11.8 M79.4 11.95 Q79.8 12.4 79.35 12.65 78.9 12.95 78.6 12.4 78.35 11.9 78.7 11.7 79.05 11.45 79.4 11.95 M78.0 11.55 Q78.35 11.95 77.7 12.45 77.05 13.0 76.65 12.25 76.25 11.5 76.95 11.3 77.65 11.1 78.0 11.55 M64.75 10.75 Q65.1 11.35 64.55 11.75 64.0 12.15 63.6 11.4 63.2 10.65 63.8 10.45 64.4 10.2 64.75 10.75 M66.65 11.85 Q66.85 12.5 66.35 12.7 65.8 12.85 65.4 12.25 65.0 11.65 65.7 11.4 66.4 11.15 66.65 11.85 M70.65 12.05 Q71.3 12.9 70.5 13.4 69.65 13.85 69.15 12.9 68.6 11.95 69.3 11.55 69.95 11.15 70.65 12.05 M68.7 11.05 Q69.05 11.45 68.4 11.95 67.75 12.5 67.35 11.75 66.95 11.0 67.65 10.8 68.35 10.6 68.7 11.05 M62.1 12.5 Q62.4 12.9 62.05 13.1 61.65 13.3 61.45 12.9 61.2 12.45 61.5 12.3 61.8 12.1 62.1 12.5 M60.0 0.0 Q60.35 0.6 59.75 1.05 59.15 1.5 58.75 0.7 58.3 -0.15 58.95 -0.4 59.6 -0.65 60.0 0.0 M55.35 12.0 Q55.75 12.6 55.15 13.0 54.55 13.45 54.15 12.65 53.75 11.9 54.4 11.65 55.0 11.4 55.35 12.0 M53.55 10.7 Q54.1 11.4 53.45 11.75 52.8 12.15 52.4 11.4 52.05 10.65 52.55 10.35 53.05 10.05 53.55 10.7 M59.7 12.3 Q60.0 12.7 59.4 13.2 58.75 13.7 58.35 12.95 58.0 12.25 58.65 12.05 59.35 11.9 59.7 12.3 M44.05 11.35 Q44.4 11.8 43.95 12.05 43.55 12.3 43.3 11.8 43.05 11.3 43.35 11.1 43.7 10.9 44.05 11.35 M41.9 11.45 Q42.3 11.9 41.6 12.45 40.85 13.0 40.45 12.2 40.0 11.4 40.75 11.2 41.55 10.95 41.9 11.45 M51.15 11.5 Q51.6 12.0 50.8 12.65 50.0 13.25 49.5 12.35 49.0 11.45 49.85 11.2 50.75 10.95 51.15 11.5 M49.05 11.8 Q49.25 12.45 48.75 12.65 48.2 12.8 47.8 12.2 47.4 11.6 48.1 11.35 48.8 11.1 49.05 11.8 M47.15 12.65 Q47.5 13.25 46.9 13.7 46.3 14.15 45.9 13.35 45.45 12.5 46.1 12.25 46.75 12.0 47.15 12.65 M57.95 12.55 Q58.25 13.35 57.65 13.55 57.05 13.75 56.55 13.05 56.1 12.35 56.9 12.05 57.7 11.75 57.95 12.55 M34.95 0.25 Q35.55 1.0 34.85 1.4 34.15 1.8 33.7 1.0 33.3 0.2 33.85 -0.15 34.4 -0.45 34.95 0.25 M33.15 0.3 Q33.5 0.9 32.95 1.3 32.4 1.7 32.0 0.95 31.6 0.2 32.2 0.0 32.8 -0.25 33.15 0.3 M35.0 11.35 Q35.75 12.35 34.85 12.85 33.9 13.4 33.35 12.35 32.8 11.25 33.5 10.85 34.25 10.4 35.0 11.35 M32.85 11.55 Q33.15 11.95 32.55 12.45 31.9 12.95 31.5 12.2 31.15 11.5 31.8 11.3 32.5 11.15 32.85 11.55 M39.65 11.65 Q39.9 12.4 39.35 12.55 38.8 12.75 38.4 12.1 37.95 11.5 38.7 11.2 39.4 10.95 39.65 11.65 M37.3 11.85 Q37.7 12.5 37.1 13.0 36.45 13.45 36.0 12.6 35.6 11.75 36.25 11.5 36.9 11.2 37.3 11.85 M25.95 10.5 Q26.6 11.3 25.85 11.7 25.05 12.15 24.6 11.25 24.15 10.4 24.75 10.05 25.35 9.7 25.95 10.5 M23.4 12.3 Q23.8 12.8 23.0 13.4 22.25 14.0 21.75 13.15 21.3 12.25 22.15 12.0 22.95 11.8 23.4 12.3 M21.3 11.75 Q21.55 12.5 21.0 12.65 20.45 12.85 20.05 12.2 19.6 11.6 20.35 11.3 21.05 11.05 21.3 11.75 M30.05 11.7 Q30.25 12.35 29.75 12.55 29.2 12.7 28.8 12.1 28.4 11.5 29.1 11.25 29.8 11.0 30.05 11.7 M27.45 12.25 Q27.8 12.85 27.2 13.3 26.6 13.75 26.2 12.95 25.75 12.1 26.4 11.85 27.05 11.6 27.45 12.25 M20.1 0.05 Q20.55 0.6 19.7 1.25 18.85 1.9 18.35 0.95 17.85 0.0 18.75 -0.25 19.65 -0.5 20.1 0.05 M16.3 11.8 Q16.85 12.5 16.2 12.85 L15.3 12.75 15.0 13.05 Q14.35 13.6 13.95 12.85 13.55 12.1 14.25 11.9 L15.0 11.95 15.3 11.45 Q15.8 11.15 16.3 11.8 M12.6 12.0 Q12.85 12.75 12.25 12.95 11.7 13.15 11.25 12.45 L11.2 12.4 11.0 12.55 Q10.25 13.05 9.75 12.1 9.3 11.15 10.05 10.85 10.8 10.55 11.25 11.3 L11.4 11.6 11.55 11.55 Q12.35 11.25 12.6 12.0 M19.15 11.8 Q19.4 12.25 18.95 12.6 18.5 12.9 18.2 12.35 17.9 11.75 18.4 11.55 18.85 11.35 19.15 11.8 M0.9 2.85 Q1.45 3.75 0.55 4.4 -0.35 5.1 -1.0 3.85 -1.4 3.05 -1.1 2.65 L-1.35 2.25 Q-1.75 1.55 -1.25 1.25 -0.75 1.0 -0.25 1.65 L0.0 2.2 Q0.5 2.25 0.9 2.85 M1.15 7.35 Q1.4 7.7 0.9 8.1 0.35 8.55 0.0 7.95 -0.3 7.3 0.25 7.15 0.85 7.0 1.15 7.35 M0.6 10.2 Q1.05 10.8 0.5 11.15 -0.05 11.45 -0.4 10.8 -0.75 10.15 -0.3 9.9 0.15 9.6 0.6 10.2 M0.2 11.85 Q0.4 12.15 0.1 12.35 -0.2 12.6 -0.45 12.2 -0.65 11.8 -0.3 11.65 0.0 11.55 0.2 11.85 M6.05 10.85 Q6.4 11.3 5.7 11.85 5.05 12.35 4.6 11.6 4.2 10.8 4.95 10.6 5.65 10.4 6.05 10.85 M4.0 11.6 Q4.35 12.65 3.55 12.9 2.75 13.15 2.15 12.25 1.5 11.3 2.55 10.95 3.65 10.55 4.0 11.6 M7.05 11.6 Q7.45 12.15 6.95 12.4 6.45 12.65 6.2 12.1 5.9 11.55 6.25 11.35 6.65 11.1 7.05 11.6 M0.0 5.6 Q0.15 6.1 -0.25 6.25 -0.65 6.4 -0.95 5.9 -1.25 5.45 -0.7 5.25 -0.2 5.05 0.0 5.6" fill="#ff9900" fill-opacity="0.0" fill-rule="evenodd" stroke="none"/>
    </g>
    <g id="sprite4" transform="matrix(1.0, 0.0, 0.0, 1.0, 15.65, 2.05)">
      <use ffdec:characterId="82" height="12.0" transform="matrix(1.0, 0.0, 0.0, 1.0, 0.0, 0.0)" width="100.0" xlink:href="#shape1"/>
      <clipPath id="clipPath1">
        <path d="M 0 0 L 0 12 L 100 12 L 100 0 Z"/>
      </clipPath>
      <g clip-path="url(#clipPath1)">
        <use ffdec:characterId="88" height="12.0" transform="matrix(1.0, 0.0, 0.0, 1.0, 1.85, 0.0)" width="116.75" xlink:href="#sprite5"/>
      </g>
      <use ffdec:characterId="89" height="15.9" transform="matrix(1.0, 0.0, 0.0, 1.0, -1.55, -2.05)" width="102.95" xlink:href="#shape4"/>
    </g>
    <g id="sprite5" transform="matrix(1.0, 0.0, 0.0, 1.0, 0.0, 0.0)">
      <filter id="filter8">
        <feConvolveMatrix divisor="0.0" in="SourceGraphic" kernelMatrix="" order="1 0" result="filterResult3"/>
      </filter>
      <use ffdec:characterId="87" filter="url(#filter8)" height="12.0" transform="matrix(1.0, 0.0, 0.0, 1.0, 0.0, 0.0)" width="116.75" xlink:href="#sprite6"/>
    </g>
    <g id="sprite6" transform="matrix(1.0, 0.0, 0.0, 1.0, 0.0, 0.0)">
      <use ffdec:characterId="86" height="12.0" transform="matrix(1.0, 0.0, 0.0, 1.0, 0.0, 0.0)" width="116.75" xlink:href="#shape3"/>
    </g>
    <g id="shape3" transform="matrix(1.0, 0.0, 0.0, 1.0, 0.0, 0.0)">
      <path d="M96.75 0.0 L90.0 12.0 80.0 12.0 86.75 0.0 96.75 0.0 M100.0 12.0 L106.75 0.0 116.75 0.0 110.0 12.0 100.0 12.0 M56.75 0.0 L50.0 12.0 40.0 12.0 46.75 0.0 56.75 0.0 M60.0 12.0 L66.75 0.0 76.75 0.0 70.0 12.0 60.0 12.0 M16.75 0.0 L10.0 12.0 0.0 12.0 6.75 0.0 16.75 0.0 M20.0 12.0 L26.75 0.0 36.75 0.0 30.0 12.0 20.0 12.0" fill="#ff9900" fill-opacity="0.0" fill-rule="evenodd" stroke="none"/>
    </g>
    <g id="shape4" transform="matrix(1.0, 0.0, 0.0, 1.0, 1.55, 2.05)">
      <path d="M9.55 -0.15 Q9.8 0.15 9.3 0.5 8.85 0.85 8.6 0.35 8.35 -0.15 8.8 -0.3 L9.55 -0.15 M7.75 -0.35 Q8.15 0.2 7.65 0.5 7.1 0.8 6.8 0.2 6.45 -0.4 6.85 -0.65 7.3 -0.95 7.75 -0.35 M6.0 -0.05 Q6.35 0.55 5.75 1.0 5.15 1.45 4.75 0.65 4.3 -0.2 4.95 -0.45 5.6 -0.7 6.0 -0.05 M3.55 -0.45 Q3.85 0.5 3.15 0.7 2.45 0.95 1.85 0.1 1.3 -0.7 2.25 -1.05 3.25 -1.4 3.55 -0.45 M1.35 -0.2 Q1.65 0.15 1.1 0.6 0.55 1.05 0.2 0.4 -0.15 -0.25 0.45 -0.4 1.05 -0.6 1.35 -0.2 M16.95 -0.6 Q17.45 0.0 16.85 0.35 16.3 0.7 15.9 0.0 15.55 -0.65 16.05 -0.95 16.5 -1.2 16.95 -0.6 M12.1 0.8 Q11.4 1.05 10.8 0.2 10.25 -0.6 11.2 -0.95 12.05 -1.25 12.4 -0.6 L12.75 -0.85 Q13.5 -1.15 13.9 -0.45 14.35 0.25 13.65 0.75 13.0 1.25 12.55 0.45 L12.1 0.8 M23.85 -0.5 Q24.15 0.0 23.65 0.35 23.15 0.7 22.8 0.05 22.45 -0.6 23.0 -0.8 23.5 -1.0 23.85 -0.5 M22.55 -1.15 Q22.9 -0.15 22.15 0.15 21.35 0.4 20.75 -0.5 20.15 -1.4 21.2 -1.8 22.2 -2.15 22.55 -1.15 M29.55 -0.4 L29.7 -0.1 29.8 -0.15 Q30.7 -0.5 31.0 0.45 31.35 1.35 30.65 1.6 29.95 1.85 29.4 1.0 L29.2 0.55 Q28.6 1.0 28.2 0.3 27.8 -0.45 28.5 -0.65 29.2 -0.85 29.55 -0.4 M26.75 -1.1 Q27.25 -0.45 26.65 -0.1 26.0 0.25 25.65 -0.5 25.25 -1.2 25.75 -1.5 26.25 -1.75 26.75 -1.1 M40.4 -0.3 Q40.65 0.5 40.05 0.7 39.4 0.9 38.95 0.2 38.45 -0.55 39.3 -0.85 40.1 -1.15 40.4 -0.3 M38.6 -0.45 Q38.95 -0.05 38.3 0.45 37.65 1.0 37.25 0.25 36.85 -0.5 37.55 -0.7 38.25 -0.9 38.6 -0.45 M42.0 -0.45 Q42.35 0.05 41.8 0.45 41.3 0.85 40.95 0.15 40.55 -0.55 41.1 -0.8 41.65 -1.0 42.0 -0.45 M44.05 -1.0 Q44.55 -0.35 43.95 0.0 43.3 0.35 42.95 -0.4 42.55 -1.1 43.05 -1.4 43.55 -1.65 44.05 -1.0 M45.95 -1.25 Q46.2 -0.9 45.7 -0.5 45.15 -0.05 44.8 -0.65 44.5 -1.3 45.05 -1.45 L45.95 -1.25 M49.7 -0.15 Q49.95 0.25 49.6 0.55 49.2 0.8 48.95 0.3 48.65 -0.2 49.05 -0.4 49.5 -0.55 49.7 -0.15 M48.9 -1.35 Q49.25 -0.35 48.5 -0.1 47.75 0.15 47.2 -0.7 46.6 -1.6 47.6 -1.95 48.6 -2.3 48.9 -1.35 M57.9 -0.5 Q58.25 0.5 57.5 0.8 56.7 1.05 56.1 0.15 55.5 -0.75 56.55 -1.15 57.55 -1.5 57.9 -0.5 M55.45 -0.25 Q55.7 0.0 55.3 0.3 54.9 0.6 54.65 0.15 54.4 -0.25 54.85 -0.4 L55.45 -0.25 M52.95 -0.5 Q53.65 0.35 52.8 0.8 52.0 1.3 51.5 0.35 51.0 -0.6 51.65 -1.0 52.3 -1.35 52.95 -0.5 M79.85 -0.05 Q80.15 0.35 79.8 0.5 79.5 0.7 79.25 0.3 79.05 -0.05 79.35 -0.25 79.6 -0.4 79.85 -0.05 M78.75 -0.4 Q79.25 0.4 78.5 0.9 77.75 1.45 77.25 0.45 76.75 -0.5 77.5 -0.85 78.3 -1.15 78.75 -0.4 M73.75 -0.75 Q74.1 -0.3 73.4 0.25 72.75 0.75 72.3 0.0 71.9 -0.8 72.65 -1.0 73.35 -1.2 73.75 -0.75 M68.5 -0.3 Q68.85 0.3 68.25 0.75 67.65 1.2 67.25 0.4 66.8 -0.45 67.45 -0.7 68.1 -0.95 68.5 -0.3 M66.25 -0.7 Q66.5 0.05 65.9 0.25 65.35 0.45 64.9 -0.25 64.45 -0.9 65.2 -1.15 66.0 -1.45 66.25 -0.7 M64.4 -0.4 Q64.65 -0.1 64.2 0.3 63.7 0.65 63.4 0.1 63.15 -0.45 63.65 -0.6 64.15 -0.7 64.4 -0.4 M62.85 -0.6 Q63.6 0.4 62.7 0.9 61.75 1.45 61.2 0.4 60.65 -0.7 61.35 -1.1 62.1 -1.55 62.85 -0.6 M91.5 -1.05 Q91.75 -0.75 91.3 -0.35 90.8 0.0 90.5 -0.55 90.25 -1.1 90.75 -1.25 91.25 -1.35 91.5 -1.05 M88.75 -0.6 Q89.25 0.05 88.65 0.4 88.0 0.75 87.65 0.0 87.25 -0.7 87.75 -1.0 88.25 -1.25 88.75 -0.6 M87.3 -0.2 Q87.75 0.5 87.05 1.05 86.3 1.55 85.8 0.6 85.35 -0.35 86.1 -0.65 86.85 -0.95 87.3 -0.2 M85.4 -0.3 Q85.7 0.5 85.1 0.7 84.5 0.9 84.0 0.2 83.55 -0.5 84.35 -0.8 85.15 -1.1 85.4 -0.3 M82.8 -0.5 Q83.05 -0.15 82.55 0.25 82.0 0.7 81.65 0.1 81.35 -0.55 81.9 -0.7 L82.8 -0.5 M97.55 -0.9 Q98.1 -0.2 97.45 0.15 96.8 0.55 96.4 -0.2 96.05 -0.95 96.55 -1.25 97.05 -1.55 97.55 -0.9 M95.9 -0.4 Q96.35 0.3 95.65 0.8 94.95 1.3 94.5 0.4 94.05 -0.55 94.75 -0.8 95.5 -1.1 95.9 -0.4 M94.15 -0.8 Q94.5 0.2 93.75 0.5 92.95 0.75 92.35 -0.15 91.75 -1.05 92.8 -1.45 93.8 -1.8 94.15 -0.8 M101.3 -0.15 Q101.6 0.2 101.05 0.65 100.5 1.1 100.15 0.45 99.8 -0.2 100.4 -0.35 101.0 -0.55 101.3 -0.15 M99.95 1.55 Q100.25 2.35 99.65 2.55 99.05 2.75 98.55 2.05 98.1 1.35 98.9 1.05 99.7 0.75 99.95 1.55 M100.55 4.1 Q100.9 4.7 100.35 5.1 L100.1 5.25 100.55 5.6 Q101.0 6.2 100.45 6.55 99.9 6.85 99.55 6.2 99.2 5.55 99.65 5.3 L99.85 5.25 99.4 4.75 Q99.0 4.0 99.6 3.8 100.2 3.55 100.55 4.1 M91.55 11.4 Q91.85 11.9 91.4 12.25 90.9 12.55 90.6 11.95 90.25 11.3 90.75 11.1 91.25 10.95 91.55 11.4 M94.4 11.65 Q94.6 12.15 94.2 12.25 93.85 12.4 93.55 11.95 93.25 11.55 93.75 11.35 94.25 11.15 94.4 11.65 M95.65 11.7 Q95.9 12.05 95.4 12.45 94.9 12.85 94.6 12.25 94.3 11.7 94.85 11.55 L95.65 11.7 M100.6 8.6 Q100.95 9.05 100.25 9.6 99.6 10.1 99.15 9.35 98.75 8.55 99.5 8.35 100.2 8.15 100.6 8.6 M98.25 11.7 Q98.55 12.1 98.2 12.25 97.9 12.45 97.65 12.05 97.45 11.7 97.75 11.5 98.0 11.35 98.25 11.7 M100.25 12.7 Q99.6 13.15 99.15 12.3 98.75 11.45 99.4 11.2 L99.55 11.15 Q99.5 10.8 100.0 10.6 100.7 10.35 100.95 11.05 101.2 11.8 100.65 11.95 L100.6 12.0 100.25 12.7 M83.9 11.85 Q84.05 12.35 83.7 12.45 83.35 12.55 83.05 12.15 82.8 11.75 83.25 11.6 83.75 11.4 83.9 11.85 M89.25 11.5 Q89.65 12.05 89.15 12.35 88.6 12.65 88.3 12.05 87.95 11.45 88.35 11.2 88.8 10.9 89.25 11.5 M87.75 11.55 Q88.05 11.95 87.45 12.45 86.8 12.95 86.4 12.2 86.05 11.5 86.7 11.3 87.4 11.15 87.75 11.55 M82.05 11.3 Q82.55 12.2 81.7 12.8 80.85 13.4 80.25 12.3 79.7 11.15 80.6 10.8 81.5 10.45 82.05 11.3 M75.8 0.35 Q76.0 1.0 75.5 1.2 74.95 1.35 74.55 0.75 74.15 0.15 74.85 -0.1 75.55 -0.35 75.8 0.35 M71.95 0.05 Q72.35 0.6 71.85 0.9 71.35 1.15 71.05 0.6 70.75 0.0 71.15 -0.25 71.55 -0.5 71.95 0.05 M75.85 11.7 Q76.1 12.45 75.55 12.6 75.0 12.8 74.6 12.15 74.15 11.55 74.9 11.25 75.6 11.0 75.85 11.7 M73.05 11.8 Q73.5 12.5 72.8 13.0 72.1 13.5 71.65 12.6 71.2 11.65 71.9 11.4 72.65 11.1 73.05 11.8 M79.4 11.95 Q79.8 12.4 79.35 12.65 78.9 12.95 78.6 12.4 78.35 11.9 78.7 11.7 79.05 11.45 79.4 11.95 M78.0 11.55 Q78.35 11.95 77.7 12.45 77.05 13.0 76.65 12.25 76.25 11.5 76.95 11.3 77.65 11.1 78.0 11.55 M64.75 10.75 Q65.1 11.35 64.55 11.75 64.0 12.15 63.6 11.4 63.2 10.65 63.8 10.45 64.4 10.2 64.75 10.75 M66.65 11.85 Q66.85 12.5 66.35 12.7 65.8 12.85 65.4 12.25 65.0 11.65 65.7 11.4 66.4 11.15 66.65 11.85 M70.65 12.05 Q71.3 12.9 70.5 13.4 69.65 13.85 69.15 12.9 68.6 11.95 69.3 11.55 69.95 11.15 70.65 12.05 M68.7 11.05 Q69.05 11.45 68.4 11.95 67.75 12.5 67.35 11.75 66.95 11.0 67.65 10.8 68.35 10.6 68.7 11.05 M62.1 12.5 Q62.4 12.9 62.05 13.1 61.65 13.3 61.45 12.9 61.2 12.45 61.5 12.3 61.8 12.1 62.1 12.5 M60.0 0.0 Q60.35 0.6 59.75 1.05 59.15 1.5 58.75 0.7 58.3 -0.15 58.95 -0.4 59.6 -0.65 60.0 0.0 M55.35 12.0 Q55.75 12.6 55.15 13.0 54.55 13.45 54.15 12.65 53.75 11.9 54.4 11.65 55.0 11.4 55.35 12.0 M53.55 10.7 Q54.1 11.4 53.45 11.75 52.8 12.15 52.4 11.4 52.05 10.65 52.55 10.35 53.05 10.05 53.55 10.7 M59.7 12.3 Q60.0 12.7 59.4 13.2 58.75 13.7 58.35 12.95 58.0 12.25 58.65 12.05 59.35 11.9 59.7 12.3 M44.05 11.35 Q44.4 11.8 43.95 12.05 43.55 12.3 43.3 11.8 43.05 11.3 43.35 11.1 43.7 10.9 44.05 11.35 M41.9 11.45 Q42.3 11.9 41.6 12.45 40.85 13.0 40.45 12.2 40.0 11.4 40.75 11.2 41.55 10.95 41.9 11.45 M51.15 11.5 Q51.6 12.0 50.8 12.65 50.0 13.25 49.5 12.35 49.0 11.45 49.85 11.2 50.75 10.95 51.15 11.5 M49.05 11.8 Q49.25 12.45 48.75 12.65 48.2 12.8 47.8 12.2 47.4 11.6 48.1 11.35 48.8 11.1 49.05 11.8 M47.15 12.65 Q47.5 13.25 46.9 13.7 46.3 14.15 45.9 13.35 45.45 12.5 46.1 12.25 46.75 12.0 47.15 12.65 M57.95 12.55 Q58.25 13.35 57.65 13.55 57.05 13.75 56.55 13.05 56.1 12.35 56.9 12.05 57.7 11.75 57.95 12.55 M34.95 0.25 Q35.55 1.0 34.85 1.4 34.15 1.8 33.7 1.0 33.3 0.2 33.85 -0.15 34.4 -0.45 34.95 0.25 M33.15 0.3 Q33.5 0.9 32.95 1.3 32.4 1.7 32.0 0.95 31.6 0.2 32.2 0.0 32.8 -0.25 33.15 0.3 M35.0 11.35 Q35.75 12.35 34.85 12.85 33.9 13.4 33.35 12.35 32.8 11.25 33.5 10.85 34.25 10.4 35.0 11.35 M32.85 11.55 Q33.15 11.95 32.55 12.45 31.9 12.95 31.5 12.2 31.15 11.5 31.8 11.3 32.5 11.15 32.85 11.55 M39.65 11.65 Q39.9 12.4 39.35 12.55 38.8 12.75 38.4 12.1 37.95 11.5 38.7 11.2 39.4 10.95 39.65 11.65 M37.3 11.85 Q37.7 12.5 37.1 13.0 36.45 13.45 36.0 12.6 35.6 11.75 36.25 11.5 36.9 11.2 37.3 11.85 M25.95 10.5 Q26.6 11.3 25.85 11.7 25.05 12.15 24.6 11.25 24.15 10.4 24.75 10.05 25.35 9.7 25.95 10.5 M23.4 12.3 Q23.8 12.8 23.0 13.4 22.25 14.0 21.75 13.15 21.3 12.25 22.15 12.0 22.95 11.8 23.4 12.3 M21.3 11.75 Q21.55 12.5 21.0 12.65 20.45 12.85 20.05 12.2 19.6 11.6 20.35 11.3 21.05 11.05 21.3 11.75 M30.05 11.7 Q30.25 12.35 29.75 12.55 29.2 12.7 28.8 12.1 28.4 11.5 29.1 11.25 29.8 11.0 30.05 11.7 M27.45 12.25 Q27.8 12.85 27.2 13.3 26.6 13.75 26.2 12.95 25.75 12.1 26.4 11.85 27.05 11.6 27.45 12.25 M20.1 0.05 Q20.55 0.6 19.7 1.25 18.85 1.9 18.35 0.95 17.85 0.0 18.75 -0.25 19.65 -0.5 20.1 0.05 M16.3 11.8 Q16.85 12.5 16.2 12.85 L15.3 12.75 15.0 13.05 Q14.35 13.6 13.95 12.85 13.55 12.1 14.25 11.9 L15.0 11.95 15.3 11.45 Q15.8 11.15 16.3 11.8 M12.6 12.0 Q12.85 12.75 12.25 12.95 11.7 13.15 11.25 12.45 L11.2 12.4 11.0 12.55 Q10.25 13.05 9.75 12.1 9.3 11.15 10.05 10.85 10.8 10.55 11.25 11.3 L11.4 11.6 11.55 11.55 Q12.35 11.25 12.6 12.0 M19.15 11.8 Q19.4 12.25 18.95 12.6 18.5 12.9 18.2 12.35 17.9 11.75 18.4 11.55 18.85 11.35 19.15 11.8 M0.9 2.85 Q1.45 3.75 0.55 4.4 -0.35 5.1 -1.0 3.85 -1.4 3.05 -1.1 2.65 L-1.35 2.25 Q-1.75 1.55 -1.25 1.25 -0.75 1.0 -0.25 1.65 L0.0 2.2 Q0.5 2.25 0.9 2.85 M1.15 7.35 Q1.4 7.7 0.9 8.1 0.35 8.55 0.0 7.95 -0.3 7.3 0.25 7.15 0.85 7.0 1.15 7.35 M0.6 10.2 Q1.05 10.8 0.5 11.15 -0.05 11.45 -0.4 10.8 -0.75 10.15 -0.3 9.9 0.15 9.6 0.6 10.2 M0.2 11.85 Q0.4 12.15 0.1 12.35 -0.2 12.6 -0.45 12.2 -0.65 11.8 -0.3 11.65 0.0 11.55 0.2 11.85 M6.05 10.85 Q6.4 11.3 5.7 11.85 5.05 12.35 4.6 11.6 4.2 10.8 4.95 10.6 5.65 10.4 6.05 10.85 M4.0 11.6 Q4.35 12.65 3.55 12.9 2.75 13.15 2.15 12.25 1.5 11.3 2.55 10.95 3.65 10.55 4.0 11.6 M7.05 11.6 Q7.45 12.15 6.95 12.4 6.45 12.65 6.2 12.1 5.9 11.55 6.25 11.35 6.65 11.1 7.05 11.6 M0.0 5.6 Q0.15 6.1 -0.25 6.25 -0.65 6.4 -0.95 5.9 -1.25 5.45 -0.7 5.25 -0.2 5.05 0.0 5.6" fill="#785a01" fill-opacity="0.0" fill-rule="evenodd" stroke="none"/>
    </g>
  </defs>
</svg>
