<?xml version="1.0" encoding="UTF-8" standalone="no"?>
<svg xmlns:ffdec="https://www.free-decompiler.com/flash" xmlns:xlink="http://www.w3.org/1999/xlink" ffdec:objectType="frame" height="627.3px" width="979.35px" xmlns="http://www.w3.org/2000/svg">
  <g transform="matrix(1.0, 0.0, 0.0, 1.0, 80.8, 67.3)">
    <use ffdec:characterId="2" height="0.0" id="snapshotHolder_spr" transform="matrix(1.0, 0.0, 0.0, 1.0, 0.0, 0.0)" width="0.0" xlink:href="#sprite0"/>
    <clipPath id="clipPath0">
      <path d="M 474.97 -0.83 L 473.82 -0.83 L 472.67 -0.81 L 471.53 -0.79 L 470.4 -0.75 L 468.41 -0.7 L 466.43 -0.62 L 464.46 -0.52 L 462.51 -0.38 L 460.56 -0.23 L 458.62 -0.04 L 456.69 0.17 L 454.77 0.41 L 452.87 0.68 L 450.97 0.97 L 449.08 1.29 L 447.21 1.64 L 445.34 2.02 L 443.48 2.42 L 441.64 2.84 L 439.8 3.3 L 436.46 4.05 L 433.02 4.84 L 429.51 5.67 L 425.9 6.55 L 424.51 7 L 423.14 7.41 L 421.8 7.79 L 420.48 8.14 L 419.17 8.45 L 417.89 8.73 L 416.64 8.98 L 415.4 9.2 L 412.06 9.98 L 410.4 10.34 L 408.75 10.7 L 407.12 11.04 L 405.49 11.38 L 403.87 11.69 L 402.26 12 L 400.66 12.29 L 399.08 12.57 L 397.5 12.84 L 395.93 13.1 L 394.37 13.34 L 392.82 13.57 L 391.28 13.79 L 389.75 14 L 389.4 14.05 L 388.12 14.23 L 386.82 14.38 L 385.5 14.51 L 384.16 14.61 L 382.8 14.7 L 381.43 14.76 L 380.03 14.79 L 378.62 14.8 L 377.9 14.8 L 375.82 14.82 L 373.73 14.83 L 371.09 14.82 L 368.43 14.78 L 365.75 14.73 L 363.05 14.65 L 361.12 14.44 L 359.2 14.26 L 357.29 14.1 L 355.4 13.97 L 353.52 13.88 L 351.66 13.81 L 349.81 13.76 L 347.97 13.75 L 346.2 13.76 L 344.45 13.8 L 342.7 13.87 L 340.97 13.96 L 339.26 14.08 L 337.55 14.23 L 335.86 14.4 L 334.19 14.6 L 332.52 14.83 L 330.87 15.08 L 329.24 15.36 L 327.61 15.66 L 326 15.99 L 324.4 16.35 L 322.82 16.74 L 321.25 17.15 L 320.13 17.48 L 319.01 17.79 L 317.89 18.09 L 316.76 18.38 L 315.62 18.65 L 314.48 18.91 L 313.34 19.16 L 312.19 19.4 L 311.03 19.62 L 309.87 19.84 L 308.71 20.04 L 307.53 20.23 L 306.36 20.4 L 305.18 20.56 L 303.99 20.71 L 302.8 20.85 L 301.76 21 L 300.71 21.13 L 299.65 21.24 L 298.58 21.33 L 297.51 21.4 L 296.43 21.45 L 295.35 21.48 L 294.26 21.49 L 293.16 21.48 L 292.05 21.45 L 290.13 21.29 L 288.19 21.12 L 286.24 20.93 L 284.29 20.73 L 282.32 20.52 L 280.34 20.29 L 278.35 20.05 L 276.35 19.79 L 274.34 19.51 L 272.32 19.23 L 270.28 18.93 L 268.24 18.61 L 266.18 18.28 L 264.12 17.93 L 262.04 17.57 L 259.95 17.2 L 258.6 16.95 L 256.95 16.65 L 255.3 16.36 L 253.65 16.08 L 252.01 15.82 L 250.36 15.58 L 248.71 15.36 L 247.07 15.15 L 245.43 14.95 L 243.78 14.77 L 242.14 14.61 L 240.5 14.46 L 238.86 14.32 L 237.22 14.21 L 235.58 14.11 L 233.94 14.02 L 232.3 13.95 L 230.18 13.93 L 228.88 13.94 L 227.6 13.96 L 226.34 13.99 L 225.1 14.04 L 223.88 14.1 L 222.68 14.17 L 221.51 14.25 L 220.35 14.35 L 218.73 14.54 L 217.15 14.74 L 215.6 14.97 L 214.09 15.23 L 212.61 15.5 L 211.17 15.79 L 209.77 16.11 L 208.4 16.45 L 204.75 17.3 L 203.58 17.64 L 202.36 17.98 L 201.1 18.29 L 199.8 18.6 L 195.9 19.45 L 191.6 20.4 L 189.28 20.74 L 186.96 21.12 L 184.62 21.54 L 182.27 21.99 L 179.92 22.47 L 177.56 23 L 175.18 23.56 L 172.8 24.15 L 171.08 24.6 L 169.4 25.08 L 167.76 25.58 L 166.16 26.11 L 164.6 26.67 L 163.08 27.25 L 161.59 27.86 L 160.87 28.18 L 160.15 28.5 L 159.12 29 L 158.11 29.51 L 157.12 30.04 L 156.15 30.59 L 155.2 31.15 L 154.26 31.73 L 153.35 32.33 L 152.45 32.95 L 151.87 33.37 L 151.29 33.79 L 150.73 34.22 L 150.18 34.65 L 149.64 35.09 L 149.1 35.54 L 148.58 35.99 L 148.07 36.45 L 147.57 36.91 L 147.07 37.38 L 146.59 37.86 L 146.12 38.34 L 145.65 38.83 L 145.2 39.33 L 144.76 39.83 L 144.32 40.34 L 143.9 40.85 L 143.49 41.37 L 143.09 41.9 L 142.69 42.43 L 142.31 42.97 L 141.94 43.51 L 141.57 44.06 L 141.22 44.62 L 140.88 45.19 L 140.54 45.75 L 140.22 46.33 L 139.9 46.91 L 139.6 47.5 L 139.31 48.09 L 139.02 48.69 L 138.75 49.3 L 135.43 57.91 L 131.95 66.95 L 131.52 68.69 L 131.06 70.45 L 130.59 72.22 L 130.1 74 L 129.59 75.79 L 129.06 77.6 L 128.52 79.42 L 127.95 81.25 L 127.3 83.5 L 127.09 84.16 L 126.88 84.81 L 126.65 85.45 L 126.42 86.09 L 126.17 86.72 L 125.92 87.35 L 125.65 87.96 L 125.37 88.58 L 125.08 89.19 L 124.79 89.79 L 124.48 90.38 L 124.16 90.97 L 123.83 91.55 L 123.5 92.13 L 123.15 92.7 L 122.79 93.26 L 122.42 93.82 L 122.04 94.37 L 121.65 94.92 L 121.25 95.46 L 120.84 95.99 L 120.42 96.52 L 119.99 97.04 L 119.55 97.55 L 119.1 98.06 L 118.63 98.56 L 118.16 99.06 L 117.68 99.55 L 117.19 100.03 L 116.69 100.51 L 116.17 100.98 L 115.65 101.45 L 114.29 102.83 L 112.92 104.25 L 111.55 105.73 L 110.18 107.26 L 108.8 108.84 L 107.42 110.48 L 106.04 112.16 L 104.65 113.9 L 103.5 115.29 L 102.38 116.69 L 101.29 118.12 L 100.22 119.56 L 99.19 121.03 L 98.18 122.52 L 97.2 124.02 L 96.25 125.55 L 95.45 126.8 L 94.49 128.34 L 93.57 129.87 L 92.67 131.41 L 91.81 132.94 L 90.99 134.47 L 90.19 136 L 89.43 137.52 L 88.7 139.05 L 87.73 141.16 L 86.81 143.2 L 85.95 145.16 L 85.15 147.05 L 84.05 149.5 L 83.49 150.82 L 82.94 152.09 L 82.4 153.31 L 81.86 154.48 L 81.34 155.59 L 80.82 156.64 L 80.3 157.65 L 79.8 158.6 L 79.35 159.49 L 78.9 160.41 L 78.45 161.37 L 78 162.35 L 76.25 166.95 L 75.57 169.07 L 74.82 171.3 L 74.02 173.62 L 73.15 176.05 L 72.67 177.35 L 72.17 178.65 L 71.66 179.95 L 71.14 181.25 L 70.6 182.55 L 70.05 183.85 L 69.48 185.15 L 68.9 186.45 L 68.27 187.81 L 67.62 189.16 L 66.95 190.48 L 66.26 191.77 L 65.56 193.05 L 64.84 194.31 L 64.1 195.54 L 63.35 196.75 L 62.05 198.89 L 60.79 201.02 L 59.57 203.14 L 58.4 205.25 L 57.07 207.7 L 55.77 210.17 L 54.49 212.65 L 53.24 215.16 L 52.01 217.69 L 50.8 220.24 L 49.61 222.81 L 48.45 225.4 L 47.85 226.47 L 47.28 227.53 L 46.74 228.6 L 46.23 229.66 L 45.74 230.72 L 45.29 231.78 L 44.86 232.84 L 44.46 233.9 L 44.09 234.96 L 43.75 236.01 L 43.44 237.06 L 43.15 238.11 L 42.9 239.16 L 42.67 240.21 L 42.47 241.26 L 42.3 242.3 L 42 243.45 L 41.72 244.61 L 41.46 245.77 L 41.21 246.93 L 40.98 248.09 L 40.77 249.26 L 40.58 250.44 L 40.4 251.61 L 40.24 252.79 L 40.1 253.98 L 39.97 255.16 L 39.86 256.35 L 39.77 257.55 L 39.7 258.74 L 39.64 259.95 L 39.6 261.15 L 39.4 261.1 L 39.4 263.05 L 39.39 264.81 L 39.42 266.55 L 39.49 268.28 L 39.59 270 L 39.72 271.71 L 39.9 273.4 L 40.11 275.08 L 40.35 276.75 L 40.66 278.34 L 40.99 279.9 L 41.34 281.43 L 41.71 282.94 L 42.1 284.42 L 42.52 285.87 L 42.95 287.3 L 43.4 288.7 L 43.93 290.33 L 44.46 291.91 L 45 293.45 L 45.55 294.95 L 46.1 296.4 L 46.66 297.81 L 47.23 299.18 L 47.8 300.5 L 48.35 301.95 L 48.91 303.38 L 49.47 304.79 L 50.03 306.17 L 50.6 307.54 L 51.18 308.88 L 51.76 310.2 L 52.34 311.5 L 52.92 312.78 L 53.51 314.03 L 54.11 315.26 L 54.71 316.48 L 55.31 317.66 L 55.92 318.83 L 56.53 319.98 L 57.15 321.1 L 58.44 323.04 L 59.75 325.05 L 61.07 327.13 L 62.4 329.29 L 63.74 331.52 L 65.1 333.82 L 66.47 336.2 L 67.85 338.65 L 68.43 339.64 L 68.99 340.64 L 69.55 341.66 L 70.1 342.7 L 70.63 343.75 L 71.16 344.82 L 71.68 345.9 L 72.19 347 L 72.69 348.11 L 73.17 349.24 L 73.65 350.39 L 74.12 351.55 L 74.58 352.73 L 75.03 353.92 L 75.47 355.13 L 75.9 356.35 L 76.32 358.06 L 76.77 359.74 L 77.24 361.4 L 77.72 363.02 L 78.23 364.62 L 78.77 366.19 L 79.32 367.73 L 79.9 369.24 L 80.49 370.72 L 81.11 372.17 L 81.76 373.6 L 82.42 375 L 83.1 376.37 L 83.81 377.71 L 84.54 379.02 L 85.29 380.3 L 86.06 381.55 L 86.85 382.78 L 87.67 383.98 L 88.51 385.15 L 89.36 386.29 L 90.25 387.4 L 91.15 388.48 L 92.07 389.54 L 93.02 390.56 L 93.99 391.56 L 94.98 392.53 L 95.99 393.47 L 97.02 394.38 L 98.07 395.27 L 99.15 396.12 L 100.25 396.95 L 103.02 398.28 L 105.75 399.63 L 108.44 400.99 L 111.09 402.36 L 113.71 403.75 L 116.29 405.15 L 118.82 406.57 L 121.32 408 L 123.79 409.44 L 126.21 410.9 L 128.6 412.38 L 130.94 413.86 L 133.25 415.36 L 135.52 416.88 L 137.76 418.41 L 139.95 419.95 L 140.15 420.05 L 141.08 420.74 L 142.03 421.43 L 143 422.12 L 143.99 422.79 L 144.99 423.46 L 146.01 424.13 L 147.04 424.79 L 148.09 425.44 L 149.16 426.09 L 150.25 426.74 L 151.35 427.37 L 152.47 428 L 153.61 428.63 L 154.77 429.25 L 155.94 429.87 L 157.12 430.48 L 158.33 431.08 L 159.55 431.68 L 160.79 432.27 L 162.05 432.85 L 163.32 433.44 L 164.61 434.01 L 165.92 434.58 L 167.24 435.14 L 168.59 435.7 L 169.94 436.25 L 171.32 436.8 L 172.71 437.34 L 174.12 437.88 L 175.55 438.41 L 176.99 438.93 L 178.45 439.45 L 178.55 439.6 L 179.01 440.06 L 179.5 440.51 L 180.01 440.94 L 180.56 441.37 L 181.13 441.78 L 181.73 442.18 L 182.36 442.56 L 183.02 442.94 L 183.71 443.3 L 184.43 443.65 L 185.18 443.99 L 185.96 444.32 L 186.76 444.63 L 187.6 444.93 L 188.46 445.22 L 189.35 445.5 L 190.27 445.77 L 191.22 446.02 L 192.2 446.26 L 193.21 446.49 L 194.24 446.71 L 195.31 446.91 L 196.4 447.11 L 197.52 447.29 L 198.68 447.46 L 199.86 447.61 L 201.07 447.76 L 202.31 447.89 L 203.57 448.01 L 204.87 448.12 L 206.2 448.22 L 207.55 448.3 L 208.39 448.39 L 209.23 448.46 L 210.08 448.52 L 210.92 448.57 L 211.77 448.61 L 212.62 448.64 L 213.47 448.66 L 214.32 448.66 L 215.3 448.66 L 216.29 448.63 L 217.27 448.6 L 218.26 448.54 L 219.25 448.48 L 220.24 448.4 L 221.24 448.3 L 222.23 448.19 L 223.23 448.06 L 224.24 447.92 L 225.24 447.76 L 226.25 447.59 L 227.26 447.4 L 228.27 447.2 L 229.28 446.98 L 230.3 446.75 L 236.05 445.65 L 238.25 445.28 L 240.41 444.88 L 242.54 444.47 L 244.64 444.04 L 246.7 443.58 L 248.73 443.11 L 250.73 442.61 L 252.7 442.1 L 253.64 441.74 L 254.59 441.39 L 255.53 441.07 L 256.48 440.76 L 257.43 440.48 L 258.38 440.22 L 259.33 439.97 L 260.27 439.75 L 261.23 439.55 L 262.18 439.37 L 263.13 439.2 L 264.08 439.06 L 265.03 438.94 L 265.99 438.84 L 266.94 438.76 L 267.9 438.7 L 269.57 438.19 L 271.22 437.72 L 272.87 437.28 L 274.51 436.87 L 276.14 436.5 L 277.77 436.15 L 279.39 435.84 L 280.99 435.57 L 282.59 435.32 L 284.19 435.11 L 285.77 434.93 L 287.35 434.78 L 288.91 434.67 L 290.47 434.59 L 292.02 434.54 L 293.57 434.52 L 295.02 434.54 L 296.46 434.58 L 297.89 434.65 L 299.32 434.75 L 300.74 434.88 L 302.15 435.04 L 303.55 435.23 L 304.95 435.45 L 305.55 435.55 L 306.63 435.75 L 307.7 435.97 L 308.77 436.2 L 309.82 436.44 L 310.87 436.7 L 311.91 436.97 L 312.94 437.25 L 313.97 437.54 L 314.98 437.85 L 315.99 438.17 L 316.99 438.5 L 317.98 438.85 L 318.96 439.21 L 319.94 439.58 L 320.9 439.96 L 321.86 440.36 L 322.81 440.77 L 323.76 441.2 L 324.69 441.64 L 325.62 442.09 L 326.53 442.55 L 327.44 443.02 L 328.35 443.51 L 329.24 444.02 L 330.13 444.53 L 331 445.06 L 331.87 445.6 L 332.74 446.15 L 333.59 446.72 L 334.43 447.3 L 335.27 447.89 L 336.1 448.5 L 337.13 449.16 L 338.17 449.81 L 340.27 451.1 L 342.41 452.36 L 344.58 453.6 L 346.79 454.81 L 349.04 456 L 351.32 457.16 L 353.64 458.3 L 355.99 459.41 L 358.38 460.5 L 360.8 461.56 L 363.26 462.6 L 365.75 463.61 L 368.28 464.6 L 370.85 465.56 L 373.45 466.5 L 377.84 468.04 L 382.1 469.55 L 383.91 470.14 L 385.69 470.7 L 387.46 471.22 L 389.2 471.7 L 390.92 472.14 L 392.62 472.55 L 394.3 472.92 L 395.95 473.25 L 397.58 473.54 L 399.19 473.8 L 400.78 474.02 L 402.35 474.2 L 403.9 474.34 L 405.42 474.45 L 406.92 474.52 L 408.4 474.55 L 410 474.5 L 411.61 474.47 L 413.23 474.44 L 414.85 474.44 L 417.31 474.45 L 419.8 474.5 L 422.3 474.58 L 424.83 474.69 L 427.37 474.83 L 429.94 475.01 L 432.54 475.21 L 435.15 475.45 L 438.3 475.8 L 441.34 476.16 L 444.27 476.53 L 447.1 476.9 L 448.35 477.04 L 449.57 477.2 L 450.76 477.38 L 451.92 477.56 L 453.06 477.76 L 454.17 477.98 L 455.25 478.21 L 456.3 478.45 L 456.65 478.5 L 457.55 478.65 L 458.47 478.79 L 459.42 478.92 L 460.39 479.02 L 461.38 479.12 L 462.4 479.19 L 463.44 479.25 L 464.5 479.3 L 464.95 479.3 L 465.69 479.29 L 466.44 479.27 L 467.19 479.22 L 467.95 479.15 L 468.71 479.07 L 469.48 478.96 L 470.26 478.84 L 471.05 478.7 L 471.91 478.5 L 472.75 478.28 L 473.57 478.04 L 474.39 477.77 L 475.19 477.49 L 475.97 477.18 L 476.74 476.85 L 477.5 476.5 L 478.57 475.95 L 479.62 475.39 L 480.64 474.82 L 481.64 474.23 L 482.61 473.62 L 483.55 472.99 L 484.46 472.35 L 485.35 471.7 L 485.55 471.55 L 486.89 470.62 L 488.33 469.67 L 489.87 468.69 L 491.51 467.69 L 493.26 466.66 L 495.1 465.6 L 497.05 464.51 L 499.1 463.4 L 500.04 462.9 L 500.98 462.41 L 501.94 461.93 L 502.91 461.45 L 503.88 460.98 L 504.87 460.51 L 506.88 459.6 L 508.92 458.71 L 511.01 457.85 L 513.13 457.01 L 515.3 456.2 L 520.25 454.5 L 521.1 454.17 L 521.95 453.85 L 522.8 453.54 L 523.66 453.24 L 524.53 452.96 L 525.4 452.69 L 526.27 452.42 L 527.15 452.17 L 528.03 451.94 L 528.92 451.71 L 529.81 451.5 L 530.71 451.29 L 531.61 451.1 L 532.52 450.92 L 533.43 450.76 L 534.35 450.6 L 535.1 450.43 L 535.86 450.25 L 536.62 450.06 L 537.38 449.85 L 538.14 449.64 L 538.91 449.41 L 539.69 449.17 L 540.46 448.91 L 541.24 448.65 L 542.03 448.37 L 542.81 448.08 L 543.6 447.78 L 545.19 447.14 L 546.8 446.45 L 547.99 445.92 L 549.18 445.37 L 550.38 444.8 L 551.59 444.21 L 552.8 443.61 L 554.01 442.99 L 555.23 442.35 L 556.45 441.7 L 558.02 440.89 L 559.58 440.09 L 561.13 439.32 L 562.67 438.57 L 564.21 437.84 L 565.73 437.14 L 567.25 436.45 L 568.75 435.79 L 570.25 435.15 L 571.73 434.52 L 573.21 433.92 L 574.67 433.35 L 576.13 432.79 L 577.58 432.26 L 579.02 431.74 L 580.45 431.25 L 582.75 430.51 L 585.05 429.79 L 587.35 429.08 L 589.65 428.4 L 591.85 427.82 L 594.04 427.26 L 596.2 426.74 L 598.35 426.23 L 600.48 425.76 L 602.59 425.31 L 604.68 424.88 L 606.75 424.49 L 608.8 424.12 L 610.84 423.77 L 612.85 423.45 L 614.85 423.16 L 616.83 422.89 L 618.79 422.65 L 620.73 422.44 L 622.65 422.25 L 627.5 422.03 L 632.27 421.83 L 636.97 421.67 L 641.61 421.54 L 646.17 421.43 L 650.66 421.36 L 655.08 421.31 L 659.43 421.3 L 661.15 421.3 L 663.7 421.25 L 665.46 421.17 L 667.19 421.05 L 668.89 420.9 L 670.57 420.72 L 672.22 420.49 L 673.84 420.24 L 675.44 419.94 L 676.23 419.78 L 677.01 419.61 L 677.79 419.43 L 678.56 419.25 L 679.32 419.05 L 680.08 418.85 L 680.83 418.63 L 681.57 418.41 L 682.31 418.18 L 683.04 417.94 L 683.76 417.69 L 684.48 417.43 L 685.19 417.17 L 685.9 416.89 L 686.6 416.61 L 687.29 416.31 L 687.97 416.01 L 688.65 415.7 L 689.61 415.32 L 690.55 414.92 L 691.48 414.5 L 692.4 414.08 L 693.31 413.63 L 694.2 413.17 L 695.08 412.69 L 695.95 412.2 L 702.4 408.3 L 703.21 407.77 L 704.04 407.24 L 704.88 406.72 L 705.75 406.21 L 706.63 405.7 L 707.53 405.2 L 708.45 404.71 L 709.39 404.23 L 710.34 403.75 L 711.32 403.28 L 712.31 402.81 L 713.32 402.36 L 714.35 401.91 L 715.4 401.46 L 716.47 401.03 L 717.55 400.6 L 718.69 400.12 L 719.81 399.61 L 720.92 399.09 L 722 398.55 L 724.65 397 L 729.55 393.4 L 731.24 392.11 L 732.95 390.85 L 734.67 389.61 L 736.4 388.39 L 738.14 387.19 L 739.9 386.02 L 741.67 384.87 L 743.45 383.75 L 744.43 383.12 L 745.4 382.46 L 746.35 381.79 L 747.28 381.1 L 748.21 380.4 L 749.11 379.67 L 750.01 378.93 L 750.89 378.16 L 751.75 377.38 L 752.6 376.58 L 753.44 375.76 L 754.26 374.93 L 755.07 374.07 L 755.86 373.2 L 756.64 372.31 L 757.4 371.4 L 758.06 370.59 L 758.7 369.78 L 759.32 368.95 L 759.93 368.12 L 760.53 367.27 L 761.11 366.42 L 761.67 365.55 L 762.22 364.67 L 762.76 363.79 L 763.28 362.89 L 763.79 361.99 L 764.28 361.07 L 764.76 360.14 L 765.22 359.2 L 765.67 358.26 L 766.1 357.3 L 766.4 356.6 L 766.86 355.5 L 767.31 354.4 L 767.73 353.3 L 768.13 352.2 L 768.51 351.1 L 768.86 349.99 L 769.2 348.89 L 769.51 347.79 L 769.8 346.68 L 770.08 345.58 L 770.33 344.48 L 770.55 343.37 L 770.76 342.27 L 770.94 341.16 L 771.11 340.06 L 771.25 338.95 L 771.45 337.53 L 771.62 336.12 L 771.76 334.71 L 771.87 333.3 L 771.95 331.89 L 772 330.49 L 772.02 329.09 L 772.01 327.69 L 771.98 326.29 L 771.91 324.9 L 771.82 323.51 L 771.69 322.12 L 771.54 320.74 L 771.35 319.36 L 771.14 317.98 L 770.9 316.6 L 770.54 314.8 L 770.2 312.96 L 769.86 311.09 L 769.54 309.19 L 769.22 307.25 L 768.92 305.28 L 768.63 303.28 L 768.35 301.25 L 768.08 299.11 L 767.83 296.95 L 767.58 294.76 L 767.35 292.55 L 767.09 290.43 L 766.82 288.32 L 766.53 286.22 L 766.24 284.12 L 765.93 282.02 L 765.62 279.94 L 765.29 277.85 L 764.95 275.77 L 764.6 273.7 L 764.24 271.64 L 763.87 269.57 L 763.49 267.52 L 763.09 265.47 L 762.69 263.42 L 762.28 261.38 L 761.85 259.35 L 761.6 258.18 L 761.31 257 L 760.99 255.82 L 760.63 254.64 L 760.25 253.45 L 759.83 252.25 L 759.37 251.05 L 758.89 249.85 L 758.37 248.64 L 757.81 247.43 L 757.23 246.21 L 756.61 244.99 L 755.96 243.76 L 755.27 242.53 L 754.55 241.29 L 753.8 240.05 L 752.41 237.88 L 751.03 235.67 L 749.66 233.42 L 748.29 231.12 L 746.92 228.79 L 745.56 226.42 L 744.2 224 L 742.85 221.55 L 742.24 220.47 L 741.65 219.39 L 741.07 218.32 L 740.5 217.25 L 739.95 216.19 L 739.41 215.13 L 738.89 214.08 L 738.38 213.03 L 737.89 211.99 L 737.41 210.96 L 736.95 209.92 L 736.5 208.9 L 736.06 207.87 L 735.64 206.86 L 735.23 205.84 L 734.84 204.84 L 734.46 203.84 L 734.09 202.84 L 733.74 201.85 L 733.41 200.86 L 733.09 199.88 L 732.78 198.9 L 732.49 197.93 L 732.21 196.96 L 731.95 196 L 731.7 195.04 L 731.46 194.09 L 731.24 193.14 L 731.03 192.2 L 730.84 191.26 L 730.66 190.33 L 730.5 189.4 L 730.28 188.35 L 730.09 187.3 L 729.94 186.26 L 729.83 185.21 L 729.74 184.16 L 729.69 183.12 L 729.68 182.08 L 729.7 181.04 L 729.75 180 L 729.84 178.96 L 729.97 177.92 L 730.12 176.88 L 730.32 175.85 L 730.54 174.81 L 730.8 173.78 L 731.1 172.75 L 731.34 171.2 L 731.62 169.61 L 731.94 167.99 L 732.29 166.34 L 732.67 164.65 L 733.1 162.93 L 733.56 161.18 L 734.05 159.4 L 734.36 158.53 L 734.66 157.65 L 734.95 156.75 L 735.22 155.84 L 735.5 154.92 L 735.76 153.98 L 736.01 153.03 L 736.25 152.06 L 736.48 151.08 L 736.71 150.09 L 736.92 149.09 L 737.12 148.07 L 737.32 147.03 L 737.51 145.99 L 737.68 144.92 L 737.85 143.85 L 737.9 143.45 L 738.17 141.83 L 738.41 140.2 L 738.61 138.56 L 738.78 136.91 L 738.91 135.25 L 739.01 133.58 L 739.07 131.89 L 739.1 130.2 L 739.11 128.28 L 739.09 126.38 L 739.03 124.5 L 738.95 122.64 L 738.83 120.79 L 738.69 118.96 L 738.51 117.15 L 738.3 115.35 L 738.1 113.6 L 737.9 111.77 L 737.68 110 L 737.43 108.29 L 737.16 106.63 L 736.87 105.03 L 736.55 103.48 L 736.21 101.99 L 735.85 100.56 L 735.46 99.19 L 735.05 97.87 L 734.84 97.23 L 734.62 96.61 L 734.39 96 L 734.16 95.4 L 733.93 94.82 L 733.68 94.25 L 733.43 93.7 L 733.18 93.16 L 732.92 92.64 L 732.65 92.13 L 732.38 91.63 L 732.1 91.15 L 731.72 90.19 L 731.32 89.25 L 730.91 88.33 L 730.47 87.43 L 730.02 86.56 L 729.54 85.71 L 729.05 84.88 L 728.54 84.07 L 728.01 83.29 L 727.46 82.53 L 726.89 81.8 L 726.3 81.08 L 725.69 80.39 L 725.06 79.72 L 724.42 79.07 L 723.75 78.45 L 720.8 75.9 L 719.54 75.11 L 718.25 74.34 L 716.93 73.58 L 715.56 72.85 L 714.16 72.13 L 712.73 71.44 L 711.26 70.76 L 709.75 70.1 L 707.67 69.5 L 705.55 68.88 L 703.39 68.22 L 701.19 67.55 L 698.95 66.85 L 696.67 66.12 L 694.36 65.38 L 692 64.6 L 691.12 64.32 L 690.26 64.02 L 689.41 63.71 L 688.58 63.39 L 687.76 63.05 L 686.96 62.7 L 686.17 62.33 L 685.4 61.95 L 678.8 59.2 L 677.98 58.9 L 677.14 58.62 L 676.29 58.34 L 675.43 58.07 L 674.55 57.8 L 673.67 57.55 L 672.77 57.3 L 671.86 57.06 L 670.94 56.83 L 670.01 56.61 L 669.06 56.4 L 668.1 56.19 L 667.13 55.99 L 666.15 55.8 L 665.16 55.62 L 664.15 55.45 L 660.4 55 L 658.08 54.71 L 655.68 54.39 L 653.21 54.05 L 650.67 53.67 L 648.06 53.27 L 645.38 52.84 L 642.63 52.39 L 639.8 51.9 L 636.9 51.39 L 633.93 50.84 L 630.89 50.27 L 627.78 49.67 L 624.59 49.05 L 621.33 48.39 L 618 47.71 L 614.6 47 L 606.15 45.05 L 605.4 44.9 L 604.64 44.74 L 603.87 44.55 L 603.09 44.35 L 602.3 44.13 L 601.49 43.89 L 600.68 43.63 L 599.85 43.36 L 599.02 43.06 L 598.17 42.75 L 597.31 42.41 L 596.44 42.06 L 595.57 41.69 L 594.68 41.31 L 593.77 40.9 L 592.86 40.47 L 591.94 40.03 L 591.01 39.57 L 590.06 39.09 L 589.11 38.59 L 588.14 38.07 L 587.16 37.53 L 586.18 36.98 L 585.18 36.41 L 584.17 35.81 L 583.15 35.2 L 582.12 34.57 L 581.08 33.93 L 578.96 32.58 L 576.8 31.15 L 576.4 31 L 574.39 29.56 L 572.4 28.17 L 570.43 26.83 L 568.48 25.54 L 566.56 24.3 L 564.66 23.1 L 562.79 21.96 L 560.94 20.86 L 559.11 19.82 L 557.3 18.82 L 555.52 17.87 L 553.76 16.97 L 552.02 16.11 L 550.31 15.31 L 548.62 14.56 L 546.95 13.85 L 544.75 13.05 L 542.12 12.1 L 539.49 11.19 L 536.88 10.31 L 534.28 9.47 L 531.68 8.65 L 529.09 7.87 L 526.52 7.13 L 523.95 6.41 L 521.39 5.73 L 518.84 5.09 L 516.3 4.47 L 513.78 3.89 L 511.25 3.34 L 508.74 2.83 L 506.24 2.35 L 503.75 1.9 L 501.84 1.57 L 499.95 1.26 L 498.07 0.97 L 496.21 0.71 L 494.36 0.46 L 492.52 0.24 L 490.7 0.03 L 488.9 -0.15 L 487.11 -0.31 L 485.33 -0.45 L 483.57 -0.56 L 481.82 -0.66 L 480.09 -0.73 L 478.37 -0.79 L 476.66 -0.82 L 474.97 -0.83 Z"/>
    </clipPath>
    <g clip-path="url(#clipPath0)">
      <use ffdec:characterId="93" height="490.0" transform="matrix(1.0, 0.0, 0.0, 1.0, 0.0, 0.0)" width="825.0" xlink:href="#shape0"/>
    </g>
    <use ffdec:characterId="91" height="42.3" id="loadIndicators_mc" transform="matrix(1.0, 0.0, 0.0, 1.0, 197.0, 257.95)" width="434.95" xlink:href="#sprite1"/>
  </g>
  <defs>
    <g id="shape0" transform="matrix(1.0, 0.0, 0.0, 1.0, 0.0, 0.0)">
      <path d="M825.0 0.0 L825.0 490.0 0.0 490.0 0.0 0.0 825.0 0.0 M679.55 487.6 L678.65 488.0 Q679.05 488.2 679.2 487.85 L679.55 487.6" fill="#319831" fill-rule="evenodd" stroke="none"/>
    </g>
    <g id="sprite1" transform="matrix(1.0, 0.0, 0.0, 1.0, 217.45, 22.15)">
      <filter id="filter7">
        <feColorMatrix in="SourceGraphic" result="filterResult0" type="matrix" values="0 0 0 0 1.0,0 0 0 0 0.4,0 0 0 0 0.0,0 0 0 1 0"/>
        <feConvolveMatrix divisor="9.0" in="filterResult0" kernelMatrix="1 1 1 1 1 1 1 1 1" order="3 3" result="filterResult1"/>
        <feComposite in="SourceGraphic" in2="filterResult1" operator="over" result="filterResult2"/>
      </filter>
      <use ffdec:characterId="81" filter="url(#filter7)" height="26.15" id="loadMsg_txt" transform="matrix(1.0, 0.0, 0.0, 1.0, -217.45, -6.0)" width="434.95" xlink:href="#text0"/>
      <use ffdec:characterId="85" height="15.9" id="loadBar_spr" transform="matrix(1.0, 0.0, 0.0, 1.0, -52.0, -22.15)" width="102.95" xlink:href="#sprite2"/>
      <use ffdec:characterId="90" height="15.9" id="waitingBar_mc" transform="matrix(1.0, 0.0, 0.0, 1.0, -66.1, -22.15)" width="134.25" xlink:href="#sprite4"/>
    </g>
    <g id="text0" transform="matrix(1.0, 0.0, 0.0, 1.0, -20.4, 2.0)">
      <g transform="matrix(1.0, 0.0, 0.0, 1.0, 20.4, -2.0)">
        <use fill="#ffff00" height="26.15" transform="matrix(0.0156, 0.0, 0.0, 0.0156, 185.7, 17.4)" width="434.95" xlink:href="#font_GosmickSans_L0"/>
        <use fill="#ffff00" height="26.15" transform="matrix(0.0156, 0.0, 0.0, 0.0156, 193.5, 17.4)" width="434.95" xlink:href="#font_GosmickSans_O0"/>
        <use fill="#ffff00" height="26.15" transform="matrix(0.0156, 0.0, 0.0, 0.0156, 204.15, 17.4)" width="434.95" xlink:href="#font_GosmickSans_A0"/>
        <use fill="#ffff00" height="26.15" transform="matrix(0.0156, 0.0, 0.0, 0.0156, 214.25, 17.4)" width="434.95" xlink:href="#font_GosmickSans_D0"/>
        <use fill="#ffff00" height="26.15" transform="matrix(0.0156, 0.0, 0.0, 0.0156, 224.45, 17.4)" width="434.95" xlink:href="#font_GosmickSans_I0"/>
        <use fill="#ffff00" height="26.15" transform="matrix(0.0156, 0.0, 0.0, 0.0156, 228.8, 17.4)" width="434.95" xlink:href="#font_GosmickSans_N0"/>
        <use fill="#ffff00" height="26.15" transform="matrix(0.0156, 0.0, 0.0, 0.0156, 238.95, 17.4)" width="434.95" xlink:href="#font_GosmickSans_G0"/>
      </g>
    </g>
    <g id="font_GosmickSans_L0">
      <path d="M472.0 -59.5 Q477.0 -40.0 461.5 -27.5 445.5 -15.5 414.0 -8.0 383.0 -1.0 338.5 2.5 294.0 6.0 241.5 8.0 211.0 9.0 184.0 8.5 156.5 8.0 136.0 4.0 93.0 -3.0 72.0 -24.0 51.0 -45.0 43.5 -80.5 36.0 -115.5 36.5 -166.0 37.0 -216.0 38.0 -281.5 38.0 -318.5 39.5 -369.5 L42.5 -474.0 45.5 -578.0 48.0 -665.5 Q48.0 -683.0 61.5 -693.0 75.0 -703.5 83.0 -707.5 99.5 -711.5 114.0 -708.5 129.0 -705.5 141.0 -699.5 152.5 -693.0 158.5 -685.5 165.0 -678.0 164.0 -674.0 164.0 -665.5 162.5 -657.0 161.0 -648.0 159.5 -637.0 155.5 -597.0 152.5 -551.0 149.5 -505.0 147.5 -456.0 145.5 -407.5 144.5 -359.0 143.5 -310.5 143.5 -265.0 L143.5 -214.0 Q143.5 -181.0 144.5 -151.5 145.5 -122.0 147.5 -98.5 179.0 -77.0 239.5 -80.0 259.0 -81.0 277.5 -81.0 296.0 -81.0 317.5 -82.0 L364.0 -85.0 Q389.0 -87.0 422.0 -91.0 427.0 -92.0 432.0 -91.0 L439.5 -90.0 Q452.5 -90.0 461.5 -81.5 470.0 -72.5 472.0 -59.5" fill-rule="evenodd" stroke="none"/>
    </g>
    <g id="font_GosmickSans_O0">
      <path d="M557.0 -381.0 Q555.0 -417.5 550.5 -451.0 546.0 -484.5 537.5 -506.0 523.5 -544.0 503.5 -569.0 483.5 -594.0 459.5 -609.5 435.0 -624.5 406.0 -631.0 377.0 -637.0 344.0 -637.0 296.0 -637.0 256.0 -615.5 216.0 -594.0 187.5 -556.0 158.5 -518.0 143.5 -465.0 128.0 -411.5 128.0 -349.0 128.0 -291.5 143.5 -241.5 158.5 -191.5 187.0 -154.5 215.0 -117.5 254.5 -96.0 294.0 -74.5 342.0 -74.5 391.0 -74.5 432.0 -98.0 473.0 -121.5 501.0 -162.5 529.5 -203.5 544.5 -260.0 559.0 -316.5 557.0 -381.0 M653.5 -368.5 Q651.5 -286.5 626.0 -216.5 600.0 -146.5 557.0 -94.5 514.0 -43.0 456.5 -13.0 398.5 16.5 332.0 16.5 268.5 16.5 214.5 -10.0 161.0 -37.0 121.0 -83.5 81.0 -130.0 58.5 -193.0 36.0 -256.0 36.0 -328.5 36.0 -411.5 61.0 -483.5 86.0 -555.0 129.0 -608.0 172.0 -660.5 230.0 -691.0 288.0 -721.0 353.5 -721.0 399.5 -721.0 442.0 -708.0 484.5 -695.5 520.0 -671.5 555.0 -647.0 582.5 -613.5 609.5 -579.5 625.0 -538.5 632.0 -518.0 638.0 -490.5 644.5 -463.0 648.0 -437.5 651.5 -411.5 653.0 -392.0 654.5 -372.5 653.5 -368.5" fill-rule="evenodd" stroke="none"/>
    </g>
    <g id="font_GosmickSans_A0">
      <path d="M435.0 -296.0 Q412.5 -364.5 387.5 -437.0 362.5 -509.0 341.0 -577.5 339.0 -577.5 334.5 -568.0 329.5 -558.0 326.5 -550.0 299.0 -478.5 269.5 -417.0 239.5 -355.5 216.0 -292.0 255.0 -296.0 308.0 -293.5 361.5 -291.0 435.0 -296.0 M628.5 -32.0 Q631.0 -27.0 624.0 -20.0 617.5 -13.5 606.5 -7.5 596.0 -1.0 585.0 3.5 574.5 8.0 569.5 8.0 543.5 8.0 524.5 -35.0 505.0 -78.0 482.5 -145.5 479.0 -154.5 477.0 -165.5 475.0 -176.0 471.5 -186.5 468.0 -196.5 461.5 -203.0 454.5 -209.0 442.5 -209.0 425.0 -209.0 399.0 -210.0 372.5 -211.0 344.5 -211.5 L289.5 -212.5 240.5 -211.0 Q211.0 -208.0 197.0 -204.0 183.5 -199.5 178.0 -194.0 173.0 -188.5 171.0 -181.5 169.0 -174.0 162.0 -165.0 153.5 -143.5 143.0 -113.5 132.0 -83.0 118.5 -56.0 104.5 -29.0 87.5 -10.0 70.5 9.0 51.0 9.0 38.0 9.0 26.5 -1.0 15.5 -11.5 15.5 -29.0 19.5 -44.0 30.0 -68.0 41.0 -91.5 58.5 -135.5 68.5 -172.0 84.0 -208.5 99.5 -245.0 116.5 -288.0 138.0 -337.0 163.0 -400.5 187.5 -464.0 212.5 -523.0 237.5 -581.5 260.5 -628.5 283.5 -675.0 301.0 -690.0 316.5 -704.5 337.0 -714.0 357.5 -723.0 368.5 -723.0 387.0 -723.0 398.5 -711.5 409.5 -700.5 415.5 -684.0 422.0 -667.5 426.0 -648.5 430.0 -629.0 435.0 -613.5 471.0 -502.0 507.5 -391.0 543.5 -279.5 579.5 -166.0 583.5 -154.0 591.5 -134.5 599.0 -115.0 607.0 -95.0 615.5 -75.0 621.5 -58.0 627.5 -41.0 628.5 -32.0" fill-rule="evenodd" stroke="none"/>
    </g>
    <g id="font_GosmickSans_D0">
      <path d="M527.5 -365.5 Q525.5 -456.5 483.0 -516.5 440.5 -576.5 365.5 -594.5 350.5 -605.0 327.0 -610.5 303.5 -616.0 277.0 -619.0 251.0 -621.5 224.5 -621.0 198.0 -620.5 176.5 -618.0 170.0 -592.5 166.0 -526.5 162.0 -460.5 162.0 -361.0 L162.0 -265.0 Q162.0 -219.0 163.5 -180.5 165.0 -142.0 167.0 -110.5 190.5 -96.0 220.5 -85.5 250.0 -74.5 289.0 -74.5 345.5 -74.5 390.5 -95.5 435.5 -116.5 466.5 -155.0 498.0 -193.5 513.5 -247.0 529.5 -301.0 527.5 -365.5 M625.0 -357.0 Q625.0 -275.5 599.0 -207.5 573.0 -140.0 526.0 -91.5 479.5 -43.0 415.5 -15.5 351.5 11.5 275.5 11.5 235.5 11.5 193.0 4.0 150.5 -4.0 120.0 -18.0 107.5 -26.5 98.5 -29.0 89.0 -31.5 82.5 -35.0 76.0 -38.5 71.5 -46.0 66.5 -53.0 63.5 -70.5 60.5 -88.0 60.0 -118.0 59.5 -148.5 60.5 -197.5 61.5 -216.0 62.0 -245.0 62.5 -274.5 62.5 -305.0 62.5 -335.5 63.0 -363.0 63.5 -390.0 64.5 -404.5 70.5 -488.5 77.0 -572.5 78.0 -591.0 73.5 -598.5 68.5 -606.0 61.5 -610.5 L47.0 -620.5 Q40.0 -625.5 36.0 -640.0 33.0 -659.5 45.0 -671.5 57.5 -684.0 79.0 -691.5 100.5 -699.5 129.5 -702.5 159.0 -705.5 190.5 -705.5 236.5 -705.5 273.0 -703.5 309.5 -701.5 341.0 -693.0 410.0 -683.0 462.5 -651.5 515.5 -620.5 551.5 -575.0 588.0 -529.5 606.5 -473.5 625.0 -417.5 625.0 -357.0" fill-rule="evenodd" stroke="none"/>
    </g>
    <g id="font_GosmickSans_I0">
      <path d="M249.5 -19.5 Q251.5 -9.0 243.5 -3.0 235.5 3.0 222.5 7.5 209.5 11.5 194.0 13.0 L165.5 15.5 141.5 17.0 Q122.5 18.5 102.0 18.0 82.0 17.5 64.5 14.0 47.0 10.5 45.0 0.0 43.0 -12.0 49.5 -23.0 56.0 -33.5 64.5 -44.0 72.5 -54.0 79.0 -64.0 86.0 -73.5 83.0 -85.0 78.5 -102.5 76.5 -121.5 74.5 -141.0 73.0 -166.5 71.5 -191.5 71.0 -223.5 70.5 -256.0 70.5 -299.0 70.5 -358.5 72.5 -419.5 74.5 -481.0 78.5 -540.5 L76.5 -559.5 74.5 -579.5 Q71.5 -594.0 65.5 -601.0 59.0 -608.0 53.0 -615.5 47.0 -622.5 41.5 -631.0 36.5 -640.0 35.5 -657.5 33.5 -684.0 58.0 -693.0 82.5 -702.5 146.0 -707.5 L175.0 -708.5 Q191.5 -708.5 206.5 -704.5 222.0 -700.5 233.0 -692.0 244.5 -684.0 246.5 -669.5 247.5 -664.5 241.5 -655.0 235.5 -646.0 226.0 -633.0 217.0 -620.5 205.5 -605.5 194.5 -590.5 184.0 -575.5 180.0 -523.0 177.5 -468.5 175.0 -413.5 175.0 -359.5 L175.0 -327.5 175.0 -261.0 Q175.0 -228.0 176.0 -199.0 L177.5 -146.0 Q178.0 -121.5 180.0 -108.5 180.0 -94.0 191.0 -83.0 201.5 -71.5 214.5 -61.5 L238.5 -41.5 Q249.5 -31.5 249.5 -19.5" fill-rule="evenodd" stroke="none"/>
    </g>
    <g id="font_GosmickSans_N0">
      <path d="M619.5 -86.0 Q619.5 -70.0 610.5 -54.5 611.5 -37.0 597.5 -27.0 583.5 -16.5 565.5 -12.5 547.5 -8.5 531.0 -9.0 514.0 -9.5 508.0 -12.5 503.5 -12.5 501.5 -13.5 476.0 -37.0 437.0 -89.5 398.0 -141.5 353.0 -208.0 308.0 -274.5 261.5 -348.0 215.0 -421.0 175.0 -485.5 167.0 -499.0 158.0 -509.5 149.5 -520.5 141.0 -530.5 133.0 -478.5 133.5 -418.0 134.0 -357.5 134.0 -302.5 L134.0 -254.0 Q134.0 -198.0 135.5 -158.0 137.0 -118.0 140.0 -89.5 141.0 -75.0 135.5 -57.5 130.0 -40.0 120.0 -25.5 110.5 -10.5 98.0 -0.5 86.0 9.0 74.5 9.0 58.0 9.0 47.0 -2.5 35.5 -13.5 35.5 -30.0 L36.5 -58.5 Q38.0 -83.0 39.5 -121.5 41.0 -160.0 42.5 -210.0 44.0 -260.0 44.0 -317.5 44.0 -391.0 43.5 -443.0 43.0 -494.5 42.0 -532.5 41.0 -570.5 40.5 -599.0 40.0 -627.5 39.0 -655.0 39.0 -669.5 49.0 -682.5 59.5 -695.0 77.5 -700.0 93.0 -704.5 107.0 -705.0 120.5 -705.5 136.0 -696.5 151.5 -688.0 168.5 -667.5 185.0 -647.0 206.5 -609.0 245.5 -540.5 288.5 -471.0 331.5 -401.5 373.0 -339.5 414.5 -277.5 452.5 -228.0 490.5 -178.5 520.0 -149.5 524.0 -161.0 522.0 -185.5 521.0 -195.5 520.5 -203.0 L519.5 -218.0 518.5 -237.5 Q518.0 -249.0 518.0 -269.5 L518.0 -342.0 Q518.0 -432.0 517.0 -510.5 516.0 -588.5 509.0 -661.5 508.0 -674.5 516.0 -685.5 524.0 -696.0 537.0 -703.5 549.5 -710.5 564.0 -712.5 578.5 -714.5 589.5 -711.5 604.0 -711.5 611.5 -698.5 619.5 -686.0 619.5 -654.0 619.5 -621.5 618.0 -581.0 L615.0 -496.5 Q613.0 -452.5 612.0 -407.0 611.0 -361.5 611.0 -319.5 L611.0 -270.5 Q611.0 -216.0 613.0 -169.5 615.5 -123.0 619.5 -86.0" fill-rule="evenodd" stroke="none"/>
    </g>
    <g id="font_GosmickSans_G0">
      <path d="M622.0 -237.0 Q617.0 -178.5 591.0 -132.0 565.5 -85.0 527.0 -53.0 489.0 -20.5 440.5 -3.5 392.5 14.0 341.5 14.0 275.0 14.0 218.5 -9.0 162.0 -32.0 121.5 -75.0 81.0 -118.0 58.5 -180.5 36.0 -243.0 36.0 -321.5 36.0 -390.5 55.5 -461.0 75.0 -531.5 114.5 -589.5 154.0 -647.5 213.0 -685.0 271.5 -723.0 350.5 -726.0 397.5 -728.0 447.0 -721.5 496.0 -715.0 534.5 -698.0 572.5 -681.0 593.5 -653.5 614.5 -626.0 605.5 -585.0 603.5 -575.5 599.0 -566.0 594.5 -556.0 588.5 -548.0 583.0 -540.0 577.5 -534.5 571.5 -529.5 567.5 -529.5 548.0 -530.5 540.0 -536.5 532.0 -543.0 528.5 -551.0 525.5 -559.0 525.5 -568.5 525.5 -577.5 522.5 -585.0 518.5 -604.5 502.0 -616.0 485.5 -628.0 462.0 -633.5 438.5 -639.0 409.5 -640.5 380.0 -642.0 351.5 -641.0 303.5 -639.0 263.5 -612.0 223.5 -585.0 195.5 -541.0 167.0 -497.0 151.5 -442.0 135.5 -387.0 135.5 -331.0 135.5 -213.0 184.5 -148.5 234.0 -84.0 321.0 -78.0 368.0 -75.0 405.5 -87.0 442.5 -98.5 469.5 -122.5 496.0 -146.5 511.5 -180.0 526.5 -213.0 529.5 -253.0 536.0 -269.5 533.0 -276.0 529.5 -283.0 523.5 -285.5 517.5 -288.0 511.5 -288.0 505.0 -288.0 505.0 -291.0 468.5 -289.0 430.5 -292.0 392.5 -295.0 356.5 -289.0 340.5 -286.0 326.0 -295.0 311.5 -304.5 309.5 -318.5 307.5 -326.0 307.5 -336.0 307.5 -347.5 311.5 -356.5 315.5 -365.5 325.5 -372.5 335.0 -379.0 353.5 -380.0 370.0 -378.0 395.5 -378.0 L451.0 -378.0 Q479.5 -378.0 508.0 -379.0 L560.5 -381.0 Q577.0 -382.0 593.0 -378.0 609.5 -374.0 620.0 -359.0 630.0 -344.0 632.0 -315.0 634.0 -286.0 622.0 -237.0" fill-rule="evenodd" stroke="none"/>
    </g>
    <g id="sprite2" transform="matrix(1.0, 0.0, 0.0, 1.0, 1.55, 2.05)">
      <use ffdec:characterId="83" height="12.0" id="loadBarBar_spr" transform="matrix(1.0, 0.0, 0.0, 1.0, 0.0, 0.0)" width="100.0" xlink:href="#sprite3"/>
      <use ffdec:characterId="84" height="15.9" transform="matrix(1.0, 0.0, 0.0, 1.0, -1.55, -2.05)" width="102.95" xlink:href="#shape2"/>
    </g>
    <g id="sprite3" transform="matrix(1.0, 0.0, 0.0, 1.0, 0.0, 0.0)">
      <use ffdec:characterId="82" height="12.0" transform="matrix(1.0, 0.0, 0.0, 1.0, 0.0, 0.0)" width="100.0" xlink:href="#shape1"/>
    </g>
    <g id="shape1" transform="matrix(1.0, 0.0, 0.0, 1.0, 0.0, 0.0)">
      <path d="M100.0 12.0 L0.0 12.0 0.0 0.0 100.0 0.0 100.0 12.0" fill="#f3f301" fill-opacity="0.0" fill-rule="evenodd" stroke="none"/>
    </g>
    <g id="shape2" transform="matrix(1.0, 0.0, 0.0, 1.0, 1.55, 2.05)">
      <path d="M9.55 -0.15 Q9.8 0.15 9.3 0.5 8.85 0.85 8.6 0.35 8.35 -0.15 8.8 -0.3 L9.55 -0.15 M7.75 -0.35 Q8.15 0.2 7.65 0.5 7.1 0.8 6.8 0.2 6.45 -0.4 6.85 -0.65 7.3 -0.95 7.75 -0.35 M6.0 -0.05 Q6.35 0.55 5.75 1.0 5.15 1.45 4.75 0.65 4.3 -0.2 4.95 -0.45 5.6 -0.7 6.0 -0.05 M3.55 -0.45 Q3.85 0.5 3.15 0.7 2.45 0.95 1.85 0.1 1.3 -0.7 2.25 -1.05 3.25 -1.4 3.55 -0.45 M1.35 -0.2 Q1.65 0.15 1.1 0.6 0.55 1.05 0.2 0.4 -0.15 -0.25 0.45 -0.4 1.05 -0.6 1.35 -0.2 M16.95 -0.6 Q17.45 0.0 16.85 0.35 16.3 0.7 15.9 0.0 15.55 -0.65 16.05 -0.95 16.5 -1.2 16.95 -0.6 M12.1 0.8 Q11.4 1.05 10.8 0.2 10.25 -0.6 11.2 -0.95 12.05 -1.25 12.4 -0.6 L12.75 -0.85 Q13.5 -1.15 13.9 -0.45 14.35 0.25 13.65 0.75 13.0 1.25 12.55 0.45 L12.1 0.8 M23.85 -0.5 Q24.15 0.0 23.65 0.35 23.15 0.7 22.8 0.05 22.45 -0.6 23.0 -0.8 23.5 -1.0 23.85 -0.5 M22.55 -1.15 Q22.9 -0.15 22.15 0.15 21.35 0.4 20.75 -0.5 20.15 -1.4 21.2 -1.8 22.2 -2.15 22.55 -1.15 M29.55 -0.4 L29.7 -0.1 29.8 -0.15 Q30.7 -0.5 31.0 0.45 31.35 1.35 30.65 1.6 29.95 1.85 29.4 1.0 L29.2 0.55 Q28.6 1.0 28.2 0.3 27.8 -0.45 28.5 -0.65 29.2 -0.85 29.55 -0.4 M26.75 -1.1 Q27.25 -0.45 26.65 -0.1 26.0 0.25 25.65 -0.5 25.25 -1.2 25.75 -1.5 26.25 -1.75 26.75 -1.1 M40.4 -0.3 Q40.65 0.5 40.05 0.7 39.4 0.9 38.95 0.2 38.45 -0.55 39.3 -0.85 40.1 -1.15 40.4 -0.3 M38.6 -0.45 Q38.95 -0.05 38.3 0.45 37.65 1.0 37.25 0.25 36.85 -0.5 37.55 -0.7 38.25 -0.9 38.6 -0.45 M42.0 -0.45 Q42.35 0.05 41.8 0.45 41.3 0.85 40.95 0.15 40.55 -0.55 41.1 -0.8 41.65 -1.0 42.0 -0.45 M44.05 -1.0 Q44.55 -0.35 43.95 0.0 43.3 0.35 42.95 -0.4 42.55 -1.1 43.05 -1.4 43.55 -1.65 44.05 -1.0 M45.95 -1.25 Q46.2 -0.9 45.7 -0.5 45.15 -0.05 44.8 -0.65 44.5 -1.3 45.05 -1.45 L45.95 -1.25 M49.7 -0.15 Q49.95 0.25 49.6 0.55 49.2 0.8 48.95 0.3 48.65 -0.2 49.05 -0.4 49.5 -0.55 49.7 -0.15 M48.9 -1.35 Q49.25 -0.35 48.5 -0.1 47.75 0.15 47.2 -0.7 46.6 -1.6 47.6 -1.95 48.6 -2.3 48.9 -1.35 M57.9 -0.5 Q58.25 0.5 57.5 0.8 56.7 1.05 56.1 0.15 55.5 -0.75 56.55 -1.15 57.55 -1.5 57.9 -0.5 M55.45 -0.25 Q55.7 0.0 55.3 0.3 54.9 0.6 54.65 0.15 54.4 -0.25 54.85 -0.4 L55.45 -0.25 M52.95 -0.5 Q53.65 0.35 52.8 0.8 52.0 1.3 51.5 0.35 51.0 -0.6 51.65 -1.0 52.3 -1.35 52.95 -0.5 M79.85 -0.05 Q80.15 0.35 79.8 0.5 79.5 0.7 79.25 0.3 79.05 -0.05 79.35 -0.25 79.6 -0.4 79.85 -0.05 M78.75 -0.4 Q79.25 0.4 78.5 0.9 77.75 1.45 77.25 0.45 76.75 -0.5 77.5 -0.85 78.3 -1.15 78.75 -0.4 M73.75 -0.75 Q74.1 -0.3 73.4 0.25 72.75 0.75 72.3 0.0 71.9 -0.8 72.65 -1.0 73.35 -1.2 73.75 -0.75 M68.5 -0.3 Q68.85 0.3 68.25 0.75 67.65 1.2 67.25 0.4 66.8 -0.45 67.45 -0.7 68.1 -0.95 68.5 -0.3 M66.25 -0.7 Q66.5 0.05 65.9 0.25 65.35 0.45 64.9 -0.25 64.45 -0.9 65.2 -1.15 66.0 -1.45 66.25 -0.7 M64.4 -0.4 Q64.65 -0.1 64.2 0.3 63.7 0.65 63.4 0.1 63.15 -0.45 63.65 -0.6 64.15 -0.7 64.4 -0.4 M62.85 -0.6 Q63.6 0.4 62.7 0.9 61.75 1.45 61.2 0.4 60.65 -0.7 61.35 -1.1 62.1 -1.55 62.85 -0.6 M91.5 -1.05 Q91.75 -0.75 91.3 -0.35 90.8 0.0 90.5 -0.55 90.25 -1.1 90.75 -1.25 91.25 -1.35 91.5 -1.05 M88.75 -0.6 Q89.25 0.05 88.65 0.4 88.0 0.75 87.65 0.0 87.25 -0.7 87.75 -1.0 88.25 -1.25 88.75 -0.6 M87.3 -0.2 Q87.75 0.5 87.05 1.05 86.3 1.55 85.8 0.6 85.35 -0.35 86.1 -0.65 86.85 -0.95 87.3 -0.2 M85.4 -0.3 Q85.7 0.5 85.1 0.7 84.5 0.9 84.0 0.2 83.55 -0.5 84.35 -0.8 85.15 -1.1 85.4 -0.3 M82.8 -0.5 Q83.05 -0.15 82.55 0.25 82.0 0.7 81.65 0.1 81.35 -0.55 81.9 -0.7 L82.8 -0.5 M97.55 -0.9 Q98.1 -0.2 97.45 0.15 96.8 0.55 96.4 -0.2 96.05 -0.95 96.55 -1.25 97.05 -1.55 97.55 -0.9 M95.9 -0.4 Q96.35 0.3 95.65 0.8 94.95 1.3 94.5 0.4 94.05 -0.55 94.75 -0.8 95.5 -1.1 95.9 -0.4 M94.15 -0.8 Q94.5 0.2 93.75 0.5 92.95 0.75 92.35 -0.15 91.75 -1.05 92.8 -1.45 93.8 -1.8 94.15 -0.8 M101.3 -0.15 Q101.6 0.2 101.05 0.65 100.5 1.1 100.15 0.45 99.8 -0.2 100.4 -0.35 101.0 -0.55 101.3 -0.15 M99.95 1.55 Q100.25 2.35 99.65 2.55 99.05 2.75 98.55 2.05 98.1 1.35 98.9 1.05 99.7 0.75 99.95 1.55 M100.55 4.1 Q100.9 4.7 100.35 5.1 L100.1 5.25 100.55 5.6 Q101.0 6.2 100.45 6.55 99.9 6.85 99.55 6.2 99.2 5.55 99.65 5.3 L99.85 5.25 99.4 4.75 Q99.0 4.0 99.6 3.8 100.2 3.55 100.55 4.1 M91.55 11.4 Q91.85 11.9 91.4 12.25 90.9 12.55 90.6 11.95 90.25 11.3 90.75 11.1 91.25 10.95 91.55 11.4 M94.4 11.65 Q94.6 12.15 94.2 12.25 93.85 12.4 93.55 11.95 93.25 11.55 93.75 11.35 94.25 11.15 94.4 11.65 M95.65 11.7 Q95.9 12.05 95.4 12.45 94.9 12.85 94.6 12.25 94.3 11.7 94.85 11.55 L95.65 11.7 M100.6 8.6 Q100.95 9.05 100.25 9.6 99.6 10.1 99.15 9.35 98.75 8.55 99.5 8.35 100.2 8.15 100.6 8.6 M98.25 11.7 Q98.55 12.1 98.2 12.25 97.9 12.45 97.65 12.05 97.45 11.7 97.75 11.5 98.0 11.35 98.25 11.7 M100.25 12.7 Q99.6 13.15 99.15 12.3 98.75 11.45 99.4 11.2 L99.55 11.15 Q99.5 10.8 100.0 10.6 100.7 10.35 100.95 11.05 101.2 11.8 100.65 11.95 L100.6 12.0 100.25 12.7 M83.9 11.85 Q84.05 12.35 83.7 12.45 83.35 12.55 83.05 12.15 82.8 11.75 83.25 11.6 83.75 11.4 83.9 11.85 M89.25 11.5 Q89.65 12.05 89.15 12.35 88.6 12.65 88.3 12.05 87.95 11.45 88.35 11.2 88.8 10.9 89.25 11.5 M87.75 11.55 Q88.05 11.95 87.45 12.45 86.8 12.95 86.4 12.2 86.05 11.5 86.7 11.3 87.4 11.15 87.75 11.55 M82.05 11.3 Q82.55 12.2 81.7 12.8 80.85 13.4 80.25 12.3 79.7 11.15 80.6 10.8 81.5 10.45 82.05 11.3 M75.8 0.35 Q76.0 1.0 75.5 1.2 74.95 1.35 74.55 0.75 74.15 0.15 74.85 -0.1 75.55 -0.35 75.8 0.35 M71.95 0.05 Q72.35 0.6 71.85 0.9 71.35 1.15 71.05 0.6 70.75 0.0 71.15 -0.25 71.55 -0.5 71.95 0.05 M75.85 11.7 Q76.1 12.45 75.55 12.6 75.0 12.8 74.6 12.15 74.15 11.55 74.9 11.25 75.6 11.0 75.85 11.7 M73.05 11.8 Q73.5 12.5 72.8 13.0 72.1 13.5 71.65 12.6 71.2 11.65 71.9 11.4 72.65 11.1 73.05 11.8 M79.4 11.95 Q79.8 12.4 79.35 12.65 78.9 12.95 78.6 12.4 78.35 11.9 78.7 11.7 79.05 11.45 79.4 11.95 M78.0 11.55 Q78.35 11.95 77.7 12.45 77.05 13.0 76.65 12.25 76.25 11.5 76.95 11.3 77.65 11.1 78.0 11.55 M64.75 10.75 Q65.1 11.35 64.55 11.75 64.0 12.15 63.6 11.4 63.2 10.65 63.8 10.45 64.4 10.2 64.75 10.75 M66.65 11.85 Q66.85 12.5 66.35 12.7 65.8 12.85 65.4 12.25 65.0 11.65 65.7 11.4 66.4 11.15 66.65 11.85 M70.65 12.05 Q71.3 12.9 70.5 13.4 69.65 13.85 69.15 12.9 68.6 11.95 69.3 11.55 69.95 11.15 70.65 12.05 M68.7 11.05 Q69.05 11.45 68.4 11.95 67.75 12.5 67.35 11.75 66.95 11.0 67.65 10.8 68.35 10.6 68.7 11.05 M62.1 12.5 Q62.4 12.9 62.05 13.1 61.65 13.3 61.45 12.9 61.2 12.45 61.5 12.3 61.8 12.1 62.1 12.5 M60.0 0.0 Q60.35 0.6 59.75 1.05 59.15 1.5 58.75 0.7 58.3 -0.15 58.95 -0.4 59.6 -0.65 60.0 0.0 M55.35 12.0 Q55.75 12.6 55.15 13.0 54.55 13.45 54.15 12.65 53.75 11.9 54.4 11.65 55.0 11.4 55.35 12.0 M53.55 10.7 Q54.1 11.4 53.45 11.75 52.8 12.15 52.4 11.4 52.05 10.65 52.55 10.35 53.05 10.05 53.55 10.7 M59.7 12.3 Q60.0 12.7 59.4 13.2 58.75 13.7 58.35 12.95 58.0 12.25 58.65 12.05 59.35 11.9 59.7 12.3 M44.05 11.35 Q44.4 11.8 43.95 12.05 43.55 12.3 43.3 11.8 43.05 11.3 43.35 11.1 43.7 10.9 44.05 11.35 M41.9 11.45 Q42.3 11.9 41.6 12.45 40.85 13.0 40.45 12.2 40.0 11.4 40.75 11.2 41.55 10.95 41.9 11.45 M51.15 11.5 Q51.6 12.0 50.8 12.65 50.0 13.25 49.5 12.35 49.0 11.45 49.85 11.2 50.75 10.95 51.15 11.5 M49.05 11.8 Q49.25 12.45 48.75 12.65 48.2 12.8 47.8 12.2 47.4 11.6 48.1 11.35 48.8 11.1 49.05 11.8 M47.15 12.65 Q47.5 13.25 46.9 13.7 46.3 14.15 45.9 13.35 45.45 12.5 46.1 12.25 46.75 12.0 47.15 12.65 M57.95 12.55 Q58.25 13.35 57.65 13.55 57.05 13.75 56.55 13.05 56.1 12.35 56.9 12.05 57.7 11.75 57.95 12.55 M34.95 0.25 Q35.55 1.0 34.85 1.4 34.15 1.8 33.7 1.0 33.3 0.2 33.85 -0.15 34.4 -0.45 34.95 0.25 M33.15 0.3 Q33.5 0.9 32.95 1.3 32.4 1.7 32.0 0.95 31.6 0.2 32.2 0.0 32.8 -0.25 33.15 0.3 M35.0 11.35 Q35.75 12.35 34.85 12.85 33.9 13.4 33.35 12.35 32.8 11.25 33.5 10.85 34.25 10.4 35.0 11.35 M32.85 11.55 Q33.15 11.95 32.55 12.45 31.9 12.95 31.5 12.2 31.15 11.5 31.8 11.3 32.5 11.15 32.85 11.55 M39.65 11.65 Q39.9 12.4 39.35 12.55 38.8 12.75 38.4 12.1 37.95 11.5 38.7 11.2 39.4 10.95 39.65 11.65 M37.3 11.85 Q37.7 12.5 37.1 13.0 36.45 13.45 36.0 12.6 35.6 11.75 36.25 11.5 36.9 11.2 37.3 11.85 M25.95 10.5 Q26.6 11.3 25.85 11.7 25.05 12.15 24.6 11.25 24.15 10.4 24.75 10.05 25.35 9.7 25.95 10.5 M23.4 12.3 Q23.8 12.8 23.0 13.4 22.25 14.0 21.75 13.15 21.3 12.25 22.15 12.0 22.95 11.8 23.4 12.3 M21.3 11.75 Q21.55 12.5 21.0 12.65 20.45 12.85 20.05 12.2 19.6 11.6 20.35 11.3 21.05 11.05 21.3 11.75 M30.05 11.7 Q30.25 12.35 29.75 12.55 29.2 12.7 28.8 12.1 28.4 11.5 29.1 11.25 29.8 11.0 30.05 11.7 M27.45 12.25 Q27.8 12.85 27.2 13.3 26.6 13.75 26.2 12.95 25.75 12.1 26.4 11.85 27.05 11.6 27.45 12.25 M20.1 0.05 Q20.55 0.6 19.7 1.25 18.85 1.9 18.35 0.95 17.85 0.0 18.75 -0.25 19.65 -0.5 20.1 0.05 M16.3 11.8 Q16.85 12.5 16.2 12.85 L15.3 12.75 15.0 13.05 Q14.35 13.6 13.95 12.85 13.55 12.1 14.25 11.9 L15.0 11.95 15.3 11.45 Q15.8 11.15 16.3 11.8 M12.6 12.0 Q12.85 12.75 12.25 12.95 11.7 13.15 11.25 12.45 L11.2 12.4 11.0 12.55 Q10.25 13.05 9.75 12.1 9.3 11.15 10.05 10.85 10.8 10.55 11.25 11.3 L11.4 11.6 11.55 11.55 Q12.35 11.25 12.6 12.0 M19.15 11.8 Q19.4 12.25 18.95 12.6 18.5 12.9 18.2 12.35 17.9 11.75 18.4 11.55 18.85 11.35 19.15 11.8 M0.9 2.85 Q1.45 3.75 0.55 4.4 -0.35 5.1 -1.0 3.85 -1.4 3.05 -1.1 2.65 L-1.35 2.25 Q-1.75 1.55 -1.25 1.25 -0.75 1.0 -0.25 1.65 L0.0 2.2 Q0.5 2.25 0.9 2.85 M1.15 7.35 Q1.4 7.7 0.9 8.1 0.35 8.55 0.0 7.95 -0.3 7.3 0.25 7.15 0.85 7.0 1.15 7.35 M0.6 10.2 Q1.05 10.8 0.5 11.15 -0.05 11.45 -0.4 10.8 -0.75 10.15 -0.3 9.9 0.15 9.6 0.6 10.2 M0.2 11.85 Q0.4 12.15 0.1 12.35 -0.2 12.6 -0.45 12.2 -0.65 11.8 -0.3 11.65 0.0 11.55 0.2 11.85 M6.05 10.85 Q6.4 11.3 5.7 11.85 5.05 12.35 4.6 11.6 4.2 10.8 4.95 10.6 5.65 10.4 6.05 10.85 M4.0 11.6 Q4.35 12.65 3.55 12.9 2.75 13.15 2.15 12.25 1.5 11.3 2.55 10.95 3.65 10.55 4.0 11.6 M7.05 11.6 Q7.45 12.15 6.95 12.4 6.45 12.65 6.2 12.1 5.9 11.55 6.25 11.35 6.65 11.1 7.05 11.6 M0.0 5.6 Q0.15 6.1 -0.25 6.25 -0.65 6.4 -0.95 5.9 -1.25 5.45 -0.7 5.25 -0.2 5.05 0.0 5.6" fill="#ff9900" fill-opacity="0.0" fill-rule="evenodd" stroke="none"/>
    </g>
    <g id="sprite4" transform="matrix(1.0, 0.0, 0.0, 1.0, 15.65, 2.05)">
      <use ffdec:characterId="82" height="12.0" transform="matrix(1.0, 0.0, 0.0, 1.0, 0.0, 0.0)" width="100.0" xlink:href="#shape1"/>
      <clipPath id="clipPath1">
        <path d="M 0 0 L 0 12 L 100 12 L 100 0 Z"/>
      </clipPath>
      <g clip-path="url(#clipPath1)">
        <use ffdec:characterId="88" height="12.0" transform="matrix(1.0, 0.0, 0.0, 1.0, 1.85, 0.0)" width="116.75" xlink:href="#sprite5"/>
      </g>
      <use ffdec:characterId="89" height="15.9" transform="matrix(1.0, 0.0, 0.0, 1.0, -1.55, -2.05)" width="102.95" xlink:href="#shape4"/>
    </g>
    <g id="sprite5" transform="matrix(1.0, 0.0, 0.0, 1.0, 0.0, 0.0)">
      <filter id="filter8">
        <feConvolveMatrix divisor="0.0" in="SourceGraphic" kernelMatrix="" order="1 0" result="filterResult3"/>
      </filter>
      <use ffdec:characterId="87" filter="url(#filter8)" height="12.0" transform="matrix(1.0, 0.0, 0.0, 1.0, 0.0, 0.0)" width="116.75" xlink:href="#sprite6"/>
    </g>
    <g id="sprite6" transform="matrix(1.0, 0.0, 0.0, 1.0, 0.0, 0.0)">
      <use ffdec:characterId="86" height="12.0" transform="matrix(1.0, 0.0, 0.0, 1.0, 0.0, 0.0)" width="116.75" xlink:href="#shape3"/>
    </g>
    <g id="shape3" transform="matrix(1.0, 0.0, 0.0, 1.0, 0.0, 0.0)">
      <path d="M96.75 0.0 L90.0 12.0 80.0 12.0 86.75 0.0 96.75 0.0 M100.0 12.0 L106.75 0.0 116.75 0.0 110.0 12.0 100.0 12.0 M56.75 0.0 L50.0 12.0 40.0 12.0 46.75 0.0 56.75 0.0 M60.0 12.0 L66.75 0.0 76.75 0.0 70.0 12.0 60.0 12.0 M16.75 0.0 L10.0 12.0 0.0 12.0 6.75 0.0 16.75 0.0 M20.0 12.0 L26.75 0.0 36.75 0.0 30.0 12.0 20.0 12.0" fill="#ff9900" fill-opacity="0.0" fill-rule="evenodd" stroke="none"/>
    </g>
    <g id="shape4" transform="matrix(1.0, 0.0, 0.0, 1.0, 1.55, 2.05)">
      <path d="M9.55 -0.15 Q9.8 0.15 9.3 0.5 8.85 0.85 8.6 0.35 8.35 -0.15 8.8 -0.3 L9.55 -0.15 M7.75 -0.35 Q8.15 0.2 7.65 0.5 7.1 0.8 6.8 0.2 6.45 -0.4 6.85 -0.65 7.3 -0.95 7.75 -0.35 M6.0 -0.05 Q6.35 0.55 5.75 1.0 5.15 1.45 4.75 0.65 4.3 -0.2 4.95 -0.45 5.6 -0.7 6.0 -0.05 M3.55 -0.45 Q3.85 0.5 3.15 0.7 2.45 0.95 1.85 0.1 1.3 -0.7 2.25 -1.05 3.25 -1.4 3.55 -0.45 M1.35 -0.2 Q1.65 0.15 1.1 0.6 0.55 1.05 0.2 0.4 -0.15 -0.25 0.45 -0.4 1.05 -0.6 1.35 -0.2 M16.95 -0.6 Q17.45 0.0 16.85 0.35 16.3 0.7 15.9 0.0 15.55 -0.65 16.05 -0.95 16.5 -1.2 16.95 -0.6 M12.1 0.8 Q11.4 1.05 10.8 0.2 10.25 -0.6 11.2 -0.95 12.05 -1.25 12.4 -0.6 L12.75 -0.85 Q13.5 -1.15 13.9 -0.45 14.35 0.25 13.65 0.75 13.0 1.25 12.55 0.45 L12.1 0.8 M23.85 -0.5 Q24.15 0.0 23.65 0.35 23.15 0.7 22.8 0.05 22.45 -0.6 23.0 -0.8 23.5 -1.0 23.85 -0.5 M22.55 -1.15 Q22.9 -0.15 22.15 0.15 21.35 0.4 20.75 -0.5 20.15 -1.4 21.2 -1.8 22.2 -2.15 22.55 -1.15 M29.55 -0.4 L29.7 -0.1 29.8 -0.15 Q30.7 -0.5 31.0 0.45 31.35 1.35 30.65 1.6 29.95 1.85 29.4 1.0 L29.2 0.55 Q28.6 1.0 28.2 0.3 27.8 -0.45 28.5 -0.65 29.2 -0.85 29.55 -0.4 M26.75 -1.1 Q27.25 -0.45 26.65 -0.1 26.0 0.25 25.65 -0.5 25.25 -1.2 25.75 -1.5 26.25 -1.75 26.75 -1.1 M40.4 -0.3 Q40.65 0.5 40.05 0.7 39.4 0.9 38.95 0.2 38.45 -0.55 39.3 -0.85 40.1 -1.15 40.4 -0.3 M38.6 -0.45 Q38.95 -0.05 38.3 0.45 37.65 1.0 37.25 0.25 36.85 -0.5 37.55 -0.7 38.25 -0.9 38.6 -0.45 M42.0 -0.45 Q42.35 0.05 41.8 0.45 41.3 0.85 40.95 0.15 40.55 -0.55 41.1 -0.8 41.65 -1.0 42.0 -0.45 M44.05 -1.0 Q44.55 -0.35 43.95 0.0 43.3 0.35 42.95 -0.4 42.55 -1.1 43.05 -1.4 43.55 -1.65 44.05 -1.0 M45.95 -1.25 Q46.2 -0.9 45.7 -0.5 45.15 -0.05 44.8 -0.65 44.5 -1.3 45.05 -1.45 L45.95 -1.25 M49.7 -0.15 Q49.95 0.25 49.6 0.55 49.2 0.8 48.95 0.3 48.65 -0.2 49.05 -0.4 49.5 -0.55 49.7 -0.15 M48.9 -1.35 Q49.25 -0.35 48.5 -0.1 47.75 0.15 47.2 -0.7 46.6 -1.6 47.6 -1.95 48.6 -2.3 48.9 -1.35 M57.9 -0.5 Q58.25 0.5 57.5 0.8 56.7 1.05 56.1 0.15 55.5 -0.75 56.55 -1.15 57.55 -1.5 57.9 -0.5 M55.45 -0.25 Q55.7 0.0 55.3 0.3 54.9 0.6 54.65 0.15 54.4 -0.25 54.85 -0.4 L55.45 -0.25 M52.95 -0.5 Q53.65 0.35 52.8 0.8 52.0 1.3 51.5 0.35 51.0 -0.6 51.65 -1.0 52.3 -1.35 52.95 -0.5 M79.85 -0.05 Q80.15 0.35 79.8 0.5 79.5 0.7 79.25 0.3 79.05 -0.05 79.35 -0.25 79.6 -0.4 79.85 -0.05 M78.75 -0.4 Q79.25 0.4 78.5 0.9 77.75 1.45 77.25 0.45 76.75 -0.5 77.5 -0.85 78.3 -1.15 78.75 -0.4 M73.75 -0.75 Q74.1 -0.3 73.4 0.25 72.75 0.75 72.3 0.0 71.9 -0.8 72.65 -1.0 73.35 -1.2 73.75 -0.75 M68.5 -0.3 Q68.85 0.3 68.25 0.75 67.65 1.2 67.25 0.4 66.8 -0.45 67.45 -0.7 68.1 -0.95 68.5 -0.3 M66.25 -0.7 Q66.5 0.05 65.9 0.25 65.35 0.45 64.9 -0.25 64.45 -0.9 65.2 -1.15 66.0 -1.45 66.25 -0.7 M64.4 -0.4 Q64.65 -0.1 64.2 0.3 63.7 0.65 63.4 0.1 63.15 -0.45 63.65 -0.6 64.15 -0.7 64.4 -0.4 M62.85 -0.6 Q63.6 0.4 62.7 0.9 61.75 1.45 61.2 0.4 60.65 -0.7 61.35 -1.1 62.1 -1.55 62.85 -0.6 M91.5 -1.05 Q91.75 -0.75 91.3 -0.35 90.8 0.0 90.5 -0.55 90.25 -1.1 90.75 -1.25 91.25 -1.35 91.5 -1.05 M88.75 -0.6 Q89.25 0.05 88.65 0.4 88.0 0.75 87.65 0.0 87.25 -0.7 87.75 -1.0 88.25 -1.25 88.75 -0.6 M87.3 -0.2 Q87.75 0.5 87.05 1.05 86.3 1.55 85.8 0.6 85.35 -0.35 86.1 -0.65 86.85 -0.95 87.3 -0.2 M85.4 -0.3 Q85.7 0.5 85.1 0.7 84.5 0.9 84.0 0.2 83.55 -0.5 84.35 -0.8 85.15 -1.1 85.4 -0.3 M82.8 -0.5 Q83.05 -0.15 82.55 0.25 82.0 0.7 81.65 0.1 81.35 -0.55 81.9 -0.7 L82.8 -0.5 M97.55 -0.9 Q98.1 -0.2 97.45 0.15 96.8 0.55 96.4 -0.2 96.05 -0.95 96.55 -1.25 97.05 -1.55 97.55 -0.9 M95.9 -0.4 Q96.35 0.3 95.65 0.8 94.95 1.3 94.5 0.4 94.05 -0.55 94.75 -0.8 95.5 -1.1 95.9 -0.4 M94.15 -0.8 Q94.5 0.2 93.75 0.5 92.95 0.75 92.35 -0.15 91.75 -1.05 92.8 -1.45 93.8 -1.8 94.15 -0.8 M101.3 -0.15 Q101.6 0.2 101.05 0.65 100.5 1.1 100.15 0.45 99.8 -0.2 100.4 -0.35 101.0 -0.55 101.3 -0.15 M99.95 1.55 Q100.25 2.35 99.65 2.55 99.05 2.75 98.55 2.05 98.1 1.35 98.9 1.05 99.7 0.75 99.95 1.55 M100.55 4.1 Q100.9 4.7 100.35 5.1 L100.1 5.25 100.55 5.6 Q101.0 6.2 100.45 6.55 99.9 6.85 99.55 6.2 99.2 5.55 99.65 5.3 L99.85 5.25 99.4 4.75 Q99.0 4.0 99.6 3.8 100.2 3.55 100.55 4.1 M91.55 11.4 Q91.85 11.9 91.4 12.25 90.9 12.55 90.6 11.95 90.25 11.3 90.75 11.1 91.25 10.95 91.55 11.4 M94.4 11.65 Q94.6 12.15 94.2 12.25 93.85 12.4 93.55 11.95 93.25 11.55 93.75 11.35 94.25 11.15 94.4 11.65 M95.65 11.7 Q95.9 12.05 95.4 12.45 94.9 12.85 94.6 12.25 94.3 11.7 94.85 11.55 L95.65 11.7 M100.6 8.6 Q100.95 9.05 100.25 9.6 99.6 10.1 99.15 9.35 98.75 8.55 99.5 8.35 100.2 8.15 100.6 8.6 M98.25 11.7 Q98.55 12.1 98.2 12.25 97.9 12.45 97.65 12.05 97.45 11.7 97.75 11.5 98.0 11.35 98.25 11.7 M100.25 12.7 Q99.6 13.15 99.15 12.3 98.75 11.45 99.4 11.2 L99.55 11.15 Q99.5 10.8 100.0 10.6 100.7 10.35 100.95 11.05 101.2 11.8 100.65 11.95 L100.6 12.0 100.25 12.7 M83.9 11.85 Q84.05 12.35 83.7 12.45 83.35 12.55 83.05 12.15 82.8 11.75 83.25 11.6 83.75 11.4 83.9 11.85 M89.25 11.5 Q89.65 12.05 89.15 12.35 88.6 12.65 88.3 12.05 87.95 11.45 88.35 11.2 88.8 10.9 89.25 11.5 M87.75 11.55 Q88.05 11.95 87.45 12.45 86.8 12.95 86.4 12.2 86.05 11.5 86.7 11.3 87.4 11.15 87.75 11.55 M82.05 11.3 Q82.55 12.2 81.7 12.8 80.85 13.4 80.25 12.3 79.7 11.15 80.6 10.8 81.5 10.45 82.05 11.3 M75.8 0.35 Q76.0 1.0 75.5 1.2 74.95 1.35 74.55 0.75 74.15 0.15 74.85 -0.1 75.55 -0.35 75.8 0.35 M71.95 0.05 Q72.35 0.6 71.85 0.9 71.35 1.15 71.05 0.6 70.75 0.0 71.15 -0.25 71.55 -0.5 71.95 0.05 M75.85 11.7 Q76.1 12.45 75.55 12.6 75.0 12.8 74.6 12.15 74.15 11.55 74.9 11.25 75.6 11.0 75.85 11.7 M73.05 11.8 Q73.5 12.5 72.8 13.0 72.1 13.5 71.65 12.6 71.2 11.65 71.9 11.4 72.65 11.1 73.05 11.8 M79.4 11.95 Q79.8 12.4 79.35 12.65 78.9 12.95 78.6 12.4 78.35 11.9 78.7 11.7 79.05 11.45 79.4 11.95 M78.0 11.55 Q78.35 11.95 77.7 12.45 77.05 13.0 76.65 12.25 76.25 11.5 76.95 11.3 77.65 11.1 78.0 11.55 M64.75 10.75 Q65.1 11.35 64.55 11.75 64.0 12.15 63.6 11.4 63.2 10.65 63.8 10.45 64.4 10.2 64.75 10.75 M66.65 11.85 Q66.85 12.5 66.35 12.7 65.8 12.85 65.4 12.25 65.0 11.65 65.7 11.4 66.4 11.15 66.65 11.85 M70.65 12.05 Q71.3 12.9 70.5 13.4 69.65 13.85 69.15 12.9 68.6 11.95 69.3 11.55 69.95 11.15 70.65 12.05 M68.7 11.05 Q69.05 11.45 68.4 11.95 67.75 12.5 67.35 11.75 66.95 11.0 67.65 10.8 68.35 10.6 68.7 11.05 M62.1 12.5 Q62.4 12.9 62.05 13.1 61.65 13.3 61.45 12.9 61.2 12.45 61.5 12.3 61.8 12.1 62.1 12.5 M60.0 0.0 Q60.35 0.6 59.75 1.05 59.15 1.5 58.75 0.7 58.3 -0.15 58.95 -0.4 59.6 -0.65 60.0 0.0 M55.35 12.0 Q55.75 12.6 55.15 13.0 54.55 13.45 54.15 12.65 53.75 11.9 54.4 11.65 55.0 11.4 55.35 12.0 M53.55 10.7 Q54.1 11.4 53.45 11.75 52.8 12.15 52.4 11.4 52.05 10.65 52.55 10.35 53.05 10.05 53.55 10.7 M59.7 12.3 Q60.0 12.7 59.4 13.2 58.75 13.7 58.35 12.95 58.0 12.25 58.65 12.05 59.35 11.9 59.7 12.3 M44.05 11.35 Q44.4 11.8 43.95 12.05 43.55 12.3 43.3 11.8 43.05 11.3 43.35 11.1 43.7 10.9 44.05 11.35 M41.9 11.45 Q42.3 11.9 41.6 12.45 40.85 13.0 40.45 12.2 40.0 11.4 40.75 11.2 41.55 10.95 41.9 11.45 M51.15 11.5 Q51.6 12.0 50.8 12.65 50.0 13.25 49.5 12.35 49.0 11.45 49.85 11.2 50.75 10.95 51.15 11.5 M49.05 11.8 Q49.25 12.45 48.75 12.65 48.2 12.8 47.8 12.2 47.4 11.6 48.1 11.35 48.8 11.1 49.05 11.8 M47.15 12.65 Q47.5 13.25 46.9 13.7 46.3 14.15 45.9 13.35 45.45 12.5 46.1 12.25 46.75 12.0 47.15 12.65 M57.95 12.55 Q58.25 13.35 57.65 13.55 57.05 13.75 56.55 13.05 56.1 12.35 56.9 12.05 57.7 11.75 57.95 12.55 M34.95 0.25 Q35.55 1.0 34.85 1.4 34.15 1.8 33.7 1.0 33.3 0.2 33.85 -0.15 34.4 -0.45 34.95 0.25 M33.15 0.3 Q33.5 0.9 32.95 1.3 32.4 1.7 32.0 0.95 31.6 0.2 32.2 0.0 32.8 -0.25 33.15 0.3 M35.0 11.35 Q35.75 12.35 34.85 12.85 33.9 13.4 33.35 12.35 32.8 11.25 33.5 10.85 34.25 10.4 35.0 11.35 M32.85 11.55 Q33.15 11.95 32.55 12.45 31.9 12.95 31.5 12.2 31.15 11.5 31.8 11.3 32.5 11.15 32.85 11.55 M39.65 11.65 Q39.9 12.4 39.35 12.55 38.8 12.75 38.4 12.1 37.95 11.5 38.7 11.2 39.4 10.95 39.65 11.65 M37.3 11.85 Q37.7 12.5 37.1 13.0 36.45 13.45 36.0 12.6 35.6 11.75 36.25 11.5 36.9 11.2 37.3 11.85 M25.95 10.5 Q26.6 11.3 25.85 11.7 25.05 12.15 24.6 11.25 24.15 10.4 24.75 10.05 25.35 9.7 25.95 10.5 M23.4 12.3 Q23.8 12.8 23.0 13.4 22.25 14.0 21.75 13.15 21.3 12.25 22.15 12.0 22.95 11.8 23.4 12.3 M21.3 11.75 Q21.55 12.5 21.0 12.65 20.45 12.85 20.05 12.2 19.6 11.6 20.35 11.3 21.05 11.05 21.3 11.75 M30.05 11.7 Q30.25 12.35 29.75 12.55 29.2 12.7 28.8 12.1 28.4 11.5 29.1 11.25 29.8 11.0 30.05 11.7 M27.45 12.25 Q27.8 12.85 27.2 13.3 26.6 13.75 26.2 12.95 25.75 12.1 26.4 11.85 27.05 11.6 27.45 12.25 M20.1 0.05 Q20.55 0.6 19.7 1.25 18.85 1.9 18.35 0.95 17.85 0.0 18.75 -0.25 19.65 -0.5 20.1 0.05 M16.3 11.8 Q16.85 12.5 16.2 12.85 L15.3 12.75 15.0 13.05 Q14.35 13.6 13.95 12.85 13.55 12.1 14.25 11.9 L15.0 11.95 15.3 11.45 Q15.8 11.15 16.3 11.8 M12.6 12.0 Q12.85 12.75 12.25 12.95 11.7 13.15 11.25 12.45 L11.2 12.4 11.0 12.55 Q10.25 13.05 9.75 12.1 9.3 11.15 10.05 10.85 10.8 10.55 11.25 11.3 L11.4 11.6 11.55 11.55 Q12.35 11.25 12.6 12.0 M19.15 11.8 Q19.4 12.25 18.95 12.6 18.5 12.9 18.2 12.35 17.9 11.75 18.4 11.55 18.85 11.35 19.15 11.8 M0.9 2.85 Q1.45 3.75 0.55 4.4 -0.35 5.1 -1.0 3.85 -1.4 3.05 -1.1 2.65 L-1.35 2.25 Q-1.75 1.55 -1.25 1.25 -0.75 1.0 -0.25 1.65 L0.0 2.2 Q0.5 2.25 0.9 2.85 M1.15 7.35 Q1.4 7.7 0.9 8.1 0.35 8.55 0.0 7.95 -0.3 7.3 0.25 7.15 0.85 7.0 1.15 7.35 M0.6 10.2 Q1.05 10.8 0.5 11.15 -0.05 11.45 -0.4 10.8 -0.75 10.15 -0.3 9.9 0.15 9.6 0.6 10.2 M0.2 11.85 Q0.4 12.15 0.1 12.35 -0.2 12.6 -0.45 12.2 -0.65 11.8 -0.3 11.65 0.0 11.55 0.2 11.85 M6.05 10.85 Q6.4 11.3 5.7 11.85 5.05 12.35 4.6 11.6 4.2 10.8 4.95 10.6 5.65 10.4 6.05 10.85 M4.0 11.6 Q4.35 12.65 3.55 12.9 2.75 13.15 2.15 12.25 1.5 11.3 2.55 10.95 3.65 10.55 4.0 11.6 M7.05 11.6 Q7.45 12.15 6.95 12.4 6.45 12.65 6.2 12.1 5.9 11.55 6.25 11.35 6.65 11.1 7.05 11.6 M0.0 5.6 Q0.15 6.1 -0.25 6.25 -0.65 6.4 -0.95 5.9 -1.25 5.45 -0.7 5.25 -0.2 5.05 0.0 5.6" fill="#785a01" fill-opacity="0.0" fill-rule="evenodd" stroke="none"/>
    </g>
  </defs>
</svg>
