<?xml version="1.0" encoding="UTF-8" standalone="no"?>
<svg xmlns:ffdec="https://www.free-decompiler.com/flash" xmlns:xlink="http://www.w3.org/1999/xlink" ffdec:objectType="frame" height="300.0px" width="32.5px" xmlns="http://www.w3.org/2000/svg">
  <g transform="matrix(1.0, 0.0, 0.0, 1.0, 16.85, 7.8)">
    <use ffdec:characterId="2667" height="274.7" id="track_mc" transform="matrix(0.996, 0.0, 0.0, 1.0, -9.1631, -3.15)" width="18.55" xlink:href="#sprite0"/>
    <use ffdec:characterId="2671" height="16.25" id="up_btn" transform="matrix(1.0, 0.0, 0.0, 1.0, -8.5, 0.15)" width="17.2" xlink:href="#button0"/>
    <use ffdec:characterId="2671" height="16.25" id="down_btn" transform="matrix(-1.0, 0.0, 0.0, -1.0, 8.5, 268.85)" width="17.2" xlink:href="#button1"/>
    <use ffdec:characterId="2673" height="51.0" id="dragger_mc" transform="matrix(0.996, 0.0, 0.0, 1.0, -8.9639, 18.8)" width="18.0" xlink:href="#sprite5"/>
    <use ffdec:characterId="2675" height="359.45" id="disabler_mc" transform="matrix(1.0, 0.0, 0.0, 0.8346, -16.85, -7.7794)" width="32.5" xlink:href="#sprite6"/>
  </g>
  <defs>
    <g id="sprite0" transform="matrix(1.0, 0.0, 0.0, 1.0, 9.2, 3.15)">
      <use ffdec:characterId="2664" height="274.7" transform="matrix(1.0, 0.0, 0.0, 1.0, -9.2, -3.15)" width="18.55" xlink:href="#shape0"/>
      <use ffdec:characterId="2666" height="19.25" transform="matrix(1.0, 0.0, 0.0, 1.0, -8.55, 251.65)" width="17.55" xlink:href="#sprite1"/>
      <use ffdec:characterId="2666" height="19.25" transform="matrix(1.004, 0.0, 0.0, 1.0035, -8.7345, -2.6593)" width="17.55" xlink:href="#sprite2"/>
    </g>
    <g id="shape0" transform="matrix(1.0, 0.0, 0.0, 1.0, 9.2, 3.15)">
      <path d="M6.35 1.85 L6.15 8.1 -6.2 6.4 -6.2 1.85 Q-6.2 -0.15 -4.2 -0.15 L4.35 -0.15 Q6.35 -0.15 6.35 1.85" fill="url(#gradient0)" fill-rule="evenodd" stroke="none"/>
      <path d="M6.35 260.55 L6.35 266.55 Q6.35 268.55 4.35 268.55 L-4.2 268.55 Q-6.2 268.55 -6.2 266.55 L-6.2 260.55 6.35 260.55" fill="url(#gradient1)" fill-rule="evenodd" stroke="none"/>
      <path d="M6.15 8.1 L6.35 1.85 6.35 260.55 -6.2 260.55 -6.2 6.4 6.15 8.1" fill="url(#gradient2)" fill-rule="evenodd" stroke="none"/>
      <path d="M6.15 8.1 L6.35 1.85 Q6.35 -0.15 4.35 -0.15 L-4.2 -0.15 Q-6.2 -0.15 -6.2 1.85 L-6.2 6.4 -6.2 260.55 -6.2 266.55 Q-6.2 268.55 -4.2 268.55 L4.35 268.55 Q6.35 268.55 6.35 266.55 L6.35 260.55 6.35 1.85" fill="none" stroke="#5eba01" stroke-linecap="round" stroke-linejoin="round" stroke-width="6.0"/>
      <path d="M-6.2 6.4 L-6.2 1.85 Q-6.2 -0.15 -4.2 -0.15 L4.35 -0.15 Q6.35 -0.15 6.35 1.85 L6.35 6.4 -6.2 6.4" fill="url(#gradient3)" fill-rule="evenodd" stroke="none"/>
      <path d="M6.35 260.55 L6.35 266.55 Q6.35 268.55 4.35 268.55 L-4.2 268.55 Q-6.2 268.55 -6.2 266.55 L-6.2 260.55 6.35 260.55" fill="url(#gradient4)" fill-rule="evenodd" stroke="none"/>
      <path d="M-6.2 6.4 L6.35 6.4 6.35 260.55 -6.2 260.55 -6.2 6.4" fill="url(#gradient5)" fill-rule="evenodd" stroke="none"/>
      <path d="M6.35 6.4 L6.35 1.85 Q6.35 -0.15 4.35 -0.15 L-4.2 -0.15 Q-6.2 -0.15 -6.2 1.85 L-6.2 6.4 -6.2 260.55 -6.2 266.55 Q-6.2 268.55 -4.2 268.55 L4.35 268.55 Q6.35 268.55 6.35 266.55 L6.35 260.55 6.35 6.4 Z" fill="none" stroke="#73e302" stroke-linecap="round" stroke-linejoin="round" stroke-width="3.0"/>
      <path d="M6.25 1.1 L6.35 1.85 6.35 6.0 6.25 1.1 M-6.2 6.4 L-6.2 1.85 Q-6.2 0.8 -5.65 0.3 -5.15 -0.15 -4.2 -0.15 L4.35 -0.15 5.25 0.0 -5.65 0.3 -6.2 6.4" fill="url(#gradient6)" fill-rule="evenodd" stroke="none"/>
      <path d="M6.35 266.55 Q6.35 268.55 4.35 268.55 L-4.2 268.55 Q-6.2 268.55 -6.2 266.55 L-5.35 268.3 5.5 268.3 6.35 266.55" fill="url(#gradient7)" fill-rule="evenodd" stroke="none"/>
      <path d="M5.25 0.0 L5.3 -0.05 5.35 0.05 5.25 0.0 M6.25 1.0 L6.25 1.1 6.25 1.0" fill="url(#gradient8)" fill-rule="evenodd" stroke="none"/>
      <path d="M5.35 0.05 Q6.0 0.3 6.25 1.0 L6.25 1.1 6.35 6.0 6.35 266.55 5.5 268.3 -5.35 268.3 -6.2 266.55 -6.2 6.4 -5.65 0.3 5.25 0.0 5.35 0.05" fill="url(#gradient9)" fill-rule="evenodd" stroke="none"/>
      <path d="M5.35 0.05 Q6.0 0.3 6.25 1.0 L6.25 1.1 6.35 1.85 6.35 6.0 6.35 266.55 Q6.35 268.55 4.35 268.55 L-4.2 268.55 Q-6.2 268.55 -6.2 266.55 L-6.2 6.4 -6.2 1.85 Q-6.2 0.8 -5.65 0.3 -5.15 -0.15 -4.2 -0.15 L4.35 -0.15 5.25 0.0 5.35 0.05 Z" ffdec:has-small-stroke="true" ffdec:original-stroke-width="1.0" fill="none" stroke="#bdff76" stroke-linecap="round" stroke-linejoin="round" stroke-width="1.0020085397788445"/>
    </g>
    <linearGradient gradientTransform="matrix(0.0077, 0.0, 0.0, 0.0279, 0.1, 22.7)" gradientUnits="userSpaceOnUse" id="gradient0" spreadMethod="pad" x1="-819.2" x2="819.2">
      <stop offset="0.0" stop-color="#e4ffc4"/>
      <stop offset="0.3607843137254902" stop-color="#d1fea0"/>
      <stop offset="0.7098039215686275" stop-color="#cffd8a"/>
    </linearGradient>
    <linearGradient gradientTransform="matrix(0.0077, 0.0, 0.0, 0.0279, 0.1, 245.65)" gradientUnits="userSpaceOnUse" id="gradient1" spreadMethod="pad" x1="-819.2" x2="819.2">
      <stop offset="0.0" stop-color="#e4ffc4"/>
      <stop offset="0.3607843137254902" stop-color="#d1fea0"/>
      <stop offset="0.7098039215686275" stop-color="#cffd8a"/>
    </linearGradient>
    <linearGradient gradientTransform="matrix(0.0077, 0.0, 0.0, 0.5914, 0.1, 289.15)" gradientUnits="userSpaceOnUse" id="gradient2" spreadMethod="pad" x1="-819.2" x2="819.2">
      <stop offset="0.0" stop-color="#e4ffc4"/>
      <stop offset="0.3607843137254902" stop-color="#d1fea0"/>
      <stop offset="0.7098039215686275" stop-color="#cffd8a"/>
    </linearGradient>
    <linearGradient gradientTransform="matrix(0.0077, 0.0, 0.0, 0.0279, 0.1, 22.7)" gradientUnits="userSpaceOnUse" id="gradient3" spreadMethod="pad" x1="-819.2" x2="819.2">
      <stop offset="0.0" stop-color="#e4ffc4"/>
      <stop offset="0.3607843137254902" stop-color="#d1fea0"/>
      <stop offset="0.7098039215686275" stop-color="#cffd8a"/>
    </linearGradient>
    <linearGradient gradientTransform="matrix(0.0077, 0.0, 0.0, 0.0279, 0.1, 245.65)" gradientUnits="userSpaceOnUse" id="gradient4" spreadMethod="pad" x1="-819.2" x2="819.2">
      <stop offset="0.0" stop-color="#e4ffc4"/>
      <stop offset="0.3607843137254902" stop-color="#d1fea0"/>
      <stop offset="0.7098039215686275" stop-color="#cffd8a"/>
    </linearGradient>
    <linearGradient gradientTransform="matrix(0.0077, 0.0, 0.0, 0.5914, 0.1, 289.15)" gradientUnits="userSpaceOnUse" id="gradient5" spreadMethod="pad" x1="-819.2" x2="819.2">
      <stop offset="0.0" stop-color="#e4ffc4"/>
      <stop offset="0.3607843137254902" stop-color="#d1fea0"/>
      <stop offset="0.7098039215686275" stop-color="#cffd8a"/>
    </linearGradient>
    <linearGradient gradientTransform="matrix(0.0077, 0.0, 0.0, 0.0279, 0.1, 22.7)" gradientUnits="userSpaceOnUse" id="gradient6" spreadMethod="pad" x1="-819.2" x2="819.2">
      <stop offset="0.0" stop-color="#e4ffc4"/>
      <stop offset="0.3607843137254902" stop-color="#d1fea0"/>
      <stop offset="0.7098039215686275" stop-color="#cffd8a"/>
    </linearGradient>
    <linearGradient gradientTransform="matrix(0.0077, 0.0, 0.0, 0.0279, 0.1, 245.65)" gradientUnits="userSpaceOnUse" id="gradient7" spreadMethod="pad" x1="-819.2" x2="819.2">
      <stop offset="0.0" stop-color="#e4ffc4"/>
      <stop offset="0.3607843137254902" stop-color="#d1fea0"/>
      <stop offset="0.7098039215686275" stop-color="#cffd8a"/>
    </linearGradient>
    <linearGradient gradientTransform="matrix(0.0077, 0.0, 0.0, 0.5914, 0.1, 289.15)" gradientUnits="userSpaceOnUse" id="gradient8" spreadMethod="pad" x1="-819.2" x2="819.2">
      <stop offset="0.0" stop-color="#fcfff7"/>
      <stop offset="0.3607843137254902" stop-color="#f2fede"/>
      <stop offset="0.7098039215686275" stop-color="#e8fec5"/>
    </linearGradient>
    <linearGradient gradientTransform="matrix(0.0077, 0.0, 0.0, 0.5914, 0.1, 289.15)" gradientUnits="userSpaceOnUse" id="gradient9" spreadMethod="pad" x1="-819.2" x2="819.2">
      <stop offset="0.21176470588235294" stop-color="#cffd90"/>
      <stop offset="0.803921568627451" stop-color="#b5fe45"/>
    </linearGradient>
    <g id="sprite1" transform="matrix(1.0, 0.0, 0.0, 1.0, 8.7, 2.65)">
      <use ffdec:characterId="2665" height="19.25" transform="matrix(1.0, 0.0, 0.0, 1.0, -8.7, -2.65)" width="17.55" xlink:href="#shape1"/>
    </g>
    <g id="shape1" transform="matrix(1.0, 0.0, 0.0, 1.0, 8.7, 2.65)">
      <path d="M6.35 3.55 L-6.2 3.55 -6.2 1.85 Q-6.2 -0.15 -4.2 -0.15 L4.35 -0.15 Q6.35 -0.15 6.35 1.85 L6.35 3.55" fill="url(#gradient10)" fill-rule="evenodd" stroke="none"/>
      <path d="M6.35 9.15 L6.35 9.45 6.35 12.1 Q6.35 14.1 4.35 14.1 L-4.2 14.1 Q-6.2 14.1 -6.2 12.1 L-6.2 9.15 6.35 9.15" fill="url(#gradient11)" fill-rule="evenodd" stroke="none"/>
      <path d="M6.35 9.15 L-6.2 9.15 -6.2 9.1 6.35 9.1 6.35 9.15" fill="url(#gradient12)" fill-rule="evenodd" stroke="none"/>
      <path d="M6.35 3.55 L6.35 3.6 6.35 8.7 6.35 9.1 -6.2 9.1 -6.2 3.55 6.35 3.55" fill="url(#gradient13)" fill-rule="evenodd" stroke="none"/>
      <path d="M-6.2 9.15 L-6.2 12.1 Q-6.2 14.1 -4.2 14.1 L4.35 14.1 Q6.35 14.1 6.35 12.1 L6.35 9.45 M-6.2 3.55 L-6.2 9.1 -6.2 9.15 M6.35 8.7 L6.35 3.6 M6.35 9.15 L6.35 9.1 M6.35 3.55 L6.35 1.85 Q6.35 -0.15 4.35 -0.15 L-4.2 -0.15 Q-6.2 -0.15 -6.2 1.85 L-6.2 3.55" fill="none" stroke="#5eba01" stroke-linecap="round" stroke-linejoin="round" stroke-width="5.0"/>
      <path d="M6.35 3.55 L-6.2 3.55 -6.2 1.85 Q-6.2 -0.15 -4.2 -0.15 L4.35 -0.15 Q6.35 -0.15 6.35 1.85 L6.35 3.55" fill="url(#gradient14)" fill-rule="evenodd" stroke="none"/>
      <path d="M-6.2 9.15 L6.35 9.15 6.35 9.45 6.35 12.1 Q6.35 14.1 4.35 14.1 L-4.2 14.1 Q-6.2 14.1 -6.2 12.1 L-6.2 9.15" fill="url(#gradient15)" fill-rule="evenodd" stroke="none"/>
      <path d="M6.35 9.1 L6.35 9.15 -6.2 9.15 -6.2 9.1 6.35 9.1" fill="url(#gradient16)" fill-rule="evenodd" stroke="none"/>
      <path d="M6.35 9.1 L-6.2 9.1 -6.2 3.55 6.35 3.55 6.35 3.6 6.35 8.7 6.35 9.1" fill="url(#gradient17)" fill-rule="evenodd" stroke="none"/>
      <path d="M6.35 9.15 L6.35 9.1 M-6.2 9.1 L-6.2 9.15 -6.2 12.1 Q-6.2 14.1 -4.2 14.1 L4.35 14.1 Q6.35 14.1 6.35 12.1 L6.35 9.45 M-6.2 3.55 L-6.2 9.1 M6.35 8.7 L6.35 3.6 M6.35 3.55 L6.35 1.85 Q6.35 -0.15 4.35 -0.15 L-4.2 -0.15 Q-6.2 -0.15 -6.2 1.85 L-6.2 3.55" fill="none" stroke="#73e302" stroke-linecap="round" stroke-linejoin="round" stroke-width="3.0"/>
      <path d="M-6.2 3.55 L-6.2 1.85 Q-6.2 -0.15 -4.2 -0.15 L4.35 -0.15 Q6.35 -0.15 6.35 1.85 L6.35 3.55 -6.2 3.55" fill="url(#gradient18)" fill-rule="evenodd" stroke="none"/>
      <path d="M6.35 9.15 L6.35 9.45 6.35 12.1 Q6.35 14.1 4.35 14.1 L-4.2 14.1 Q-6.2 14.1 -6.2 12.1 L-6.2 9.15 6.35 9.15" fill="url(#gradient19)" fill-rule="evenodd" stroke="none"/>
      <path d="M6.35 9.1 L6.35 9.15 -6.2 9.15 -6.2 9.1 6.35 9.1" fill="url(#gradient20)" fill-rule="evenodd" stroke="none"/>
      <path d="M-6.2 3.55 L6.35 3.55 6.35 3.6 6.35 8.7 6.35 9.1 -6.2 9.1 -6.2 3.55" fill="url(#gradient21)" fill-rule="evenodd" stroke="none"/>
      <path d="M6.35 3.55 L6.35 1.85 Q6.35 -0.15 4.35 -0.15 L-4.2 -0.15 Q-6.2 -0.15 -6.2 1.85 L-6.2 3.55 -6.2 9.1 -6.2 9.15 -6.2 12.1 Q-6.2 14.1 -4.2 14.1 L4.35 14.1 Q6.35 14.1 6.35 12.1 L6.35 9.45 M6.35 3.6 L6.35 8.7 M6.35 9.1 L6.35 9.15" ffdec:has-small-stroke="true" ffdec:original-stroke-width="1.0" fill="none" stroke="#bdff76" stroke-linecap="round" stroke-linejoin="round" stroke-width="1.0020085397788445"/>
    </g>
    <linearGradient gradientTransform="matrix(0.0077, 0.0, 0.0, 0.0279, 0.1, 22.7)" gradientUnits="userSpaceOnUse" id="gradient10" spreadMethod="pad" x1="-819.2" x2="819.2">
      <stop offset="0.0" stop-color="#e4ffc4"/>
      <stop offset="0.3607843137254902" stop-color="#d1fea0"/>
      <stop offset="0.7098039215686275" stop-color="#cffd8a"/>
    </linearGradient>
    <linearGradient gradientTransform="matrix(0.0077, 0.0, 0.0, 0.0279, 0.1, -8.8)" gradientUnits="userSpaceOnUse" id="gradient11" spreadMethod="pad" x1="-819.2" x2="819.2">
      <stop offset="0.0" stop-color="#e4ffc4"/>
      <stop offset="0.3607843137254902" stop-color="#d1fea0"/>
      <stop offset="0.7098039215686275" stop-color="#cffd8a"/>
    </linearGradient>
    <linearGradient gradientTransform="matrix(0.0077, 0.0, 0.0, 0.0279, 0.1, 24.45)" gradientUnits="userSpaceOnUse" id="gradient12" spreadMethod="pad" x1="-819.2" x2="819.2">
      <stop offset="0.0" stop-color="#e4ffc4"/>
      <stop offset="0.3607843137254902" stop-color="#d1fea0"/>
      <stop offset="0.7098039215686275" stop-color="#cffd8a"/>
    </linearGradient>
    <linearGradient gradientTransform="matrix(0.0077, 0.0, 0.0, 0.0463, 0.1, 35.2)" gradientUnits="userSpaceOnUse" id="gradient13" spreadMethod="pad" x1="-819.2" x2="819.2">
      <stop offset="0.0" stop-color="#e4ffc4"/>
      <stop offset="0.3607843137254902" stop-color="#d1fea0"/>
      <stop offset="0.7098039215686275" stop-color="#cffd8a"/>
    </linearGradient>
    <linearGradient gradientTransform="matrix(0.0077, 0.0, 0.0, 0.0279, 0.1, 22.7)" gradientUnits="userSpaceOnUse" id="gradient14" spreadMethod="pad" x1="-819.2" x2="819.2">
      <stop offset="0.0" stop-color="#e4ffc4"/>
      <stop offset="0.3607843137254902" stop-color="#d1fea0"/>
      <stop offset="0.7098039215686275" stop-color="#cffd8a"/>
    </linearGradient>
    <linearGradient gradientTransform="matrix(0.0077, 0.0, 0.0, 0.0279, 0.1, -8.8)" gradientUnits="userSpaceOnUse" id="gradient15" spreadMethod="pad" x1="-819.2" x2="819.2">
      <stop offset="0.0" stop-color="#e4ffc4"/>
      <stop offset="0.3607843137254902" stop-color="#d1fea0"/>
      <stop offset="0.7098039215686275" stop-color="#cffd8a"/>
    </linearGradient>
    <linearGradient gradientTransform="matrix(0.0077, 0.0, 0.0, 0.0279, 0.1, 24.45)" gradientUnits="userSpaceOnUse" id="gradient16" spreadMethod="pad" x1="-819.2" x2="819.2">
      <stop offset="0.0" stop-color="#e4ffc4"/>
      <stop offset="0.3607843137254902" stop-color="#d1fea0"/>
      <stop offset="0.7098039215686275" stop-color="#cffd8a"/>
    </linearGradient>
    <linearGradient gradientTransform="matrix(0.0077, 0.0, 0.0, 0.0463, 0.1, 35.2)" gradientUnits="userSpaceOnUse" id="gradient17" spreadMethod="pad" x1="-819.2" x2="819.2">
      <stop offset="0.0" stop-color="#e4ffc4"/>
      <stop offset="0.3607843137254902" stop-color="#d1fea0"/>
      <stop offset="0.7098039215686275" stop-color="#cffd8a"/>
    </linearGradient>
    <linearGradient gradientTransform="matrix(0.0117, 0.0, 0.0, 0.0279, 0.1, 22.7)" gradientUnits="userSpaceOnUse" id="gradient18" spreadMethod="pad" x1="-819.2" x2="819.2">
      <stop offset="0.13333333333333333" stop-color="#5eba01"/>
      <stop offset="0.28627450980392155" stop-color="#6fdb02"/>
      <stop offset="0.6470588235294118" stop-color="#6fdb02"/>
      <stop offset="0.8" stop-color="#5eba01"/>
    </linearGradient>
    <linearGradient gradientTransform="matrix(0.0117, 0.0, 0.0, 0.0279, 0.1, -8.8)" gradientUnits="userSpaceOnUse" id="gradient19" spreadMethod="pad" x1="-819.2" x2="819.2">
      <stop offset="0.13333333333333333" stop-color="#5eba01"/>
      <stop offset="0.28627450980392155" stop-color="#6fdb02"/>
      <stop offset="0.6470588235294118" stop-color="#6fdb02"/>
      <stop offset="0.8" stop-color="#5eba01"/>
    </linearGradient>
    <linearGradient gradientTransform="matrix(0.0117, 0.0, 0.0, 0.0279, 0.1, 24.45)" gradientUnits="userSpaceOnUse" id="gradient20" spreadMethod="pad" x1="-819.2" x2="819.2">
      <stop offset="0.13333333333333333" stop-color="#5eba01"/>
      <stop offset="0.28627450980392155" stop-color="#6fdb02"/>
      <stop offset="0.6470588235294118" stop-color="#6fdb02"/>
      <stop offset="0.8" stop-color="#5eba01"/>
    </linearGradient>
    <linearGradient gradientTransform="matrix(0.0117, 0.0, 0.0, 0.0463, 0.1, 35.2)" gradientUnits="userSpaceOnUse" id="gradient21" spreadMethod="pad" x1="-819.2" x2="819.2">
      <stop offset="0.13333333333333333" stop-color="#5eba01"/>
      <stop offset="0.28627450980392155" stop-color="#6fdb02"/>
      <stop offset="0.6470588235294118" stop-color="#6fdb02"/>
      <stop offset="0.8" stop-color="#5eba01"/>
    </linearGradient>
    <g id="sprite2" transform="matrix(1.0, 0.0, 0.0, 1.0, 8.7, 2.65)">
      <use ffdec:characterId="2665" height="19.25" transform="matrix(1.0, 0.0, 0.0, 1.0, -8.7, -2.65)" width="17.55" xlink:href="#shape2"/>
    </g>
    <g id="shape2" transform="matrix(1.0, 0.0, 0.0, 1.0, 8.7, 2.65)">
      <path d="M6.35 3.55 L-6.2 3.55 -6.2 1.85 Q-6.2 -0.15 -4.2 -0.15 L4.35 -0.15 Q6.35 -0.15 6.35 1.85 L6.35 3.55" fill="url(#gradient22)" fill-rule="evenodd" stroke="none"/>
      <path d="M6.35 9.15 L6.35 9.45 6.35 12.1 Q6.35 14.1 4.35 14.1 L-4.2 14.1 Q-6.2 14.1 -6.2 12.1 L-6.2 9.15 6.35 9.15" fill="url(#gradient23)" fill-rule="evenodd" stroke="none"/>
      <path d="M6.35 9.15 L-6.2 9.15 -6.2 9.1 6.35 9.1 6.35 9.15" fill="url(#gradient24)" fill-rule="evenodd" stroke="none"/>
      <path d="M6.35 3.55 L6.35 3.6 6.35 8.7 6.35 9.1 -6.2 9.1 -6.2 3.55 6.35 3.55" fill="url(#gradient25)" fill-rule="evenodd" stroke="none"/>
      <path d="M-6.2 9.15 L-6.2 12.1 Q-6.2 14.1 -4.2 14.1 L4.35 14.1 Q6.35 14.1 6.35 12.1 L6.35 9.45 M-6.2 3.55 L-6.2 9.1 -6.2 9.15 M6.35 8.7 L6.35 3.6 M6.35 9.15 L6.35 9.1 M6.35 3.55 L6.35 1.85 Q6.35 -0.15 4.35 -0.15 L-4.2 -0.15 Q-6.2 -0.15 -6.2 1.85 L-6.2 3.55" fill="none" stroke="#5eba01" stroke-linecap="round" stroke-linejoin="round" stroke-width="5.0"/>
      <path d="M6.35 3.55 L-6.2 3.55 -6.2 1.85 Q-6.2 -0.15 -4.2 -0.15 L4.35 -0.15 Q6.35 -0.15 6.35 1.85 L6.35 3.55" fill="url(#gradient26)" fill-rule="evenodd" stroke="none"/>
      <path d="M-6.2 9.15 L6.35 9.15 6.35 9.45 6.35 12.1 Q6.35 14.1 4.35 14.1 L-4.2 14.1 Q-6.2 14.1 -6.2 12.1 L-6.2 9.15" fill="url(#gradient27)" fill-rule="evenodd" stroke="none"/>
      <path d="M6.35 9.1 L6.35 9.15 -6.2 9.15 -6.2 9.1 6.35 9.1" fill="url(#gradient28)" fill-rule="evenodd" stroke="none"/>
      <path d="M6.35 9.1 L-6.2 9.1 -6.2 3.55 6.35 3.55 6.35 3.6 6.35 8.7 6.35 9.1" fill="url(#gradient29)" fill-rule="evenodd" stroke="none"/>
      <path d="M6.35 9.15 L6.35 9.1 M-6.2 9.1 L-6.2 9.15 -6.2 12.1 Q-6.2 14.1 -4.2 14.1 L4.35 14.1 Q6.35 14.1 6.35 12.1 L6.35 9.45 M-6.2 3.55 L-6.2 9.1 M6.35 8.7 L6.35 3.6 M6.35 3.55 L6.35 1.85 Q6.35 -0.15 4.35 -0.15 L-4.2 -0.15 Q-6.2 -0.15 -6.2 1.85 L-6.2 3.55" fill="none" stroke="#73e302" stroke-linecap="round" stroke-linejoin="round" stroke-width="3.0"/>
      <path d="M-6.2 3.55 L-6.2 1.85 Q-6.2 -0.15 -4.2 -0.15 L4.35 -0.15 Q6.35 -0.15 6.35 1.85 L6.35 3.55 -6.2 3.55" fill="url(#gradient30)" fill-rule="evenodd" stroke="none"/>
      <path d="M6.35 9.15 L6.35 9.45 6.35 12.1 Q6.35 14.1 4.35 14.1 L-4.2 14.1 Q-6.2 14.1 -6.2 12.1 L-6.2 9.15 6.35 9.15" fill="url(#gradient31)" fill-rule="evenodd" stroke="none"/>
      <path d="M6.35 9.1 L6.35 9.15 -6.2 9.15 -6.2 9.1 6.35 9.1" fill="url(#gradient32)" fill-rule="evenodd" stroke="none"/>
      <path d="M-6.2 3.55 L6.35 3.55 6.35 3.6 6.35 8.7 6.35 9.1 -6.2 9.1 -6.2 3.55" fill="url(#gradient33)" fill-rule="evenodd" stroke="none"/>
      <path d="M6.35 3.55 L6.35 1.85 Q6.35 -0.15 4.35 -0.15 L-4.2 -0.15 Q-6.2 -0.15 -6.2 1.85 L-6.2 3.55 -6.2 9.1 -6.2 9.15 -6.2 12.1 Q-6.2 14.1 -4.2 14.1 L4.35 14.1 Q6.35 14.1 6.35 12.1 L6.35 9.45 M6.35 3.6 L6.35 8.7 M6.35 9.1 L6.35 9.15" fill="none" stroke="#bdff76" stroke-linecap="round" stroke-linejoin="round" stroke-width="1.0"/>
    </g>
    <linearGradient gradientTransform="matrix(0.0077, 0.0, 0.0, 0.0279, 0.1, 22.7)" gradientUnits="userSpaceOnUse" id="gradient22" spreadMethod="pad" x1="-819.2" x2="819.2">
      <stop offset="0.0" stop-color="#e4ffc4"/>
      <stop offset="0.3607843137254902" stop-color="#d1fea0"/>
      <stop offset="0.7098039215686275" stop-color="#cffd8a"/>
    </linearGradient>
    <linearGradient gradientTransform="matrix(0.0077, 0.0, 0.0, 0.0279, 0.1, -8.8)" gradientUnits="userSpaceOnUse" id="gradient23" spreadMethod="pad" x1="-819.2" x2="819.2">
      <stop offset="0.0" stop-color="#e4ffc4"/>
      <stop offset="0.3607843137254902" stop-color="#d1fea0"/>
      <stop offset="0.7098039215686275" stop-color="#cffd8a"/>
    </linearGradient>
    <linearGradient gradientTransform="matrix(0.0077, 0.0, 0.0, 0.0279, 0.1, 24.45)" gradientUnits="userSpaceOnUse" id="gradient24" spreadMethod="pad" x1="-819.2" x2="819.2">
      <stop offset="0.0" stop-color="#e4ffc4"/>
      <stop offset="0.3607843137254902" stop-color="#d1fea0"/>
      <stop offset="0.7098039215686275" stop-color="#cffd8a"/>
    </linearGradient>
    <linearGradient gradientTransform="matrix(0.0077, 0.0, 0.0, 0.0463, 0.1, 35.2)" gradientUnits="userSpaceOnUse" id="gradient25" spreadMethod="pad" x1="-819.2" x2="819.2">
      <stop offset="0.0" stop-color="#e4ffc4"/>
      <stop offset="0.3607843137254902" stop-color="#d1fea0"/>
      <stop offset="0.7098039215686275" stop-color="#cffd8a"/>
    </linearGradient>
    <linearGradient gradientTransform="matrix(0.0077, 0.0, 0.0, 0.0279, 0.1, 22.7)" gradientUnits="userSpaceOnUse" id="gradient26" spreadMethod="pad" x1="-819.2" x2="819.2">
      <stop offset="0.0" stop-color="#e4ffc4"/>
      <stop offset="0.3607843137254902" stop-color="#d1fea0"/>
      <stop offset="0.7098039215686275" stop-color="#cffd8a"/>
    </linearGradient>
    <linearGradient gradientTransform="matrix(0.0077, 0.0, 0.0, 0.0279, 0.1, -8.8)" gradientUnits="userSpaceOnUse" id="gradient27" spreadMethod="pad" x1="-819.2" x2="819.2">
      <stop offset="0.0" stop-color="#e4ffc4"/>
      <stop offset="0.3607843137254902" stop-color="#d1fea0"/>
      <stop offset="0.7098039215686275" stop-color="#cffd8a"/>
    </linearGradient>
    <linearGradient gradientTransform="matrix(0.0077, 0.0, 0.0, 0.0279, 0.1, 24.45)" gradientUnits="userSpaceOnUse" id="gradient28" spreadMethod="pad" x1="-819.2" x2="819.2">
      <stop offset="0.0" stop-color="#e4ffc4"/>
      <stop offset="0.3607843137254902" stop-color="#d1fea0"/>
      <stop offset="0.7098039215686275" stop-color="#cffd8a"/>
    </linearGradient>
    <linearGradient gradientTransform="matrix(0.0077, 0.0, 0.0, 0.0463, 0.1, 35.2)" gradientUnits="userSpaceOnUse" id="gradient29" spreadMethod="pad" x1="-819.2" x2="819.2">
      <stop offset="0.0" stop-color="#e4ffc4"/>
      <stop offset="0.3607843137254902" stop-color="#d1fea0"/>
      <stop offset="0.7098039215686275" stop-color="#cffd8a"/>
    </linearGradient>
    <linearGradient gradientTransform="matrix(0.0117, 0.0, 0.0, 0.0279, 0.1, 22.7)" gradientUnits="userSpaceOnUse" id="gradient30" spreadMethod="pad" x1="-819.2" x2="819.2">
      <stop offset="0.13333333333333333" stop-color="#5eba01"/>
      <stop offset="0.28627450980392155" stop-color="#6fdb02"/>
      <stop offset="0.6470588235294118" stop-color="#6fdb02"/>
      <stop offset="0.8" stop-color="#5eba01"/>
    </linearGradient>
    <linearGradient gradientTransform="matrix(0.0117, 0.0, 0.0, 0.0279, 0.1, -8.8)" gradientUnits="userSpaceOnUse" id="gradient31" spreadMethod="pad" x1="-819.2" x2="819.2">
      <stop offset="0.13333333333333333" stop-color="#5eba01"/>
      <stop offset="0.28627450980392155" stop-color="#6fdb02"/>
      <stop offset="0.6470588235294118" stop-color="#6fdb02"/>
      <stop offset="0.8" stop-color="#5eba01"/>
    </linearGradient>
    <linearGradient gradientTransform="matrix(0.0117, 0.0, 0.0, 0.0279, 0.1, 24.45)" gradientUnits="userSpaceOnUse" id="gradient32" spreadMethod="pad" x1="-819.2" x2="819.2">
      <stop offset="0.13333333333333333" stop-color="#5eba01"/>
      <stop offset="0.28627450980392155" stop-color="#6fdb02"/>
      <stop offset="0.6470588235294118" stop-color="#6fdb02"/>
      <stop offset="0.8" stop-color="#5eba01"/>
    </linearGradient>
    <linearGradient gradientTransform="matrix(0.0117, 0.0, 0.0, 0.0463, 0.1, 35.2)" gradientUnits="userSpaceOnUse" id="gradient33" spreadMethod="pad" x1="-819.2" x2="819.2">
      <stop offset="0.13333333333333333" stop-color="#5eba01"/>
      <stop offset="0.28627450980392155" stop-color="#6fdb02"/>
      <stop offset="0.6470588235294118" stop-color="#6fdb02"/>
      <stop offset="0.8" stop-color="#5eba01"/>
    </linearGradient>
    <g id="button0" transform="matrix(1.0, 0.0, 0.0, 1.0, 8.5, -0.15)">
      <use ffdec:characterId="2668" height="16.25" transform="matrix(1.0, 0.0, 0.0, 1.0, -8.5, 0.15)" width="17.2" xlink:href="#shape3"/>
      <use ffdec:characterId="2670" height="11.7" transform="matrix(0.7407, 0.0, 0.0, 0.9346, -6.4407, 0.5117)" width="17.2" xlink:href="#sprite3"/>
    </g>
    <g id="shape3" transform="matrix(1.0, 0.0, 0.0, 1.0, 8.5, -0.15)">
      <path d="M8.7 16.4 L-8.5 16.4 -8.5 0.15 8.7 0.15 8.7 16.4" fill="#ff0000" fill-opacity="0.0" fill-rule="evenodd" stroke="none"/>
    </g>
    <g id="sprite3" transform="matrix(1.0, 0.0, 0.0, 1.0, 1.0, -1.35)">
      <use ffdec:characterId="2669" height="11.7" transform="matrix(1.0, 0.0, 0.0, 1.0, -1.0, 1.35)" width="17.2" xlink:href="#shape4"/>
    </g>
    <g id="shape4" transform="matrix(1.0, 0.0, 0.0, 1.0, 1.0, -1.35)">
      <path d="M1.0 10.6 L7.6 1.85 15.0 11.65 15.7 12.55 -0.5 12.55 1.0 10.7 1.0 10.6" fill="#4e8a0f" fill-rule="evenodd" stroke="none"/>
      <path d="M1.0 10.6 L7.6 1.85 15.0 11.65 15.7 12.55 -0.5 12.55 1.0 10.7" ffdec:has-small-stroke="true" ffdec:original-stroke-width="1.0" fill="none" stroke="#6bc414" stroke-linecap="round" stroke-linejoin="round" stroke-width="1.185887214858171"/>
      <path d="M1.45 10.5 L1.45 10.4 7.6 2.25 15.1 12.25 0.05 12.25 1.45 10.5" fill="#4e8a0f" fill-rule="evenodd" stroke="none"/>
      <path d="M1.45 10.4 L7.6 2.25 15.1 12.25 0.05 12.25 1.45 10.5" ffdec:has-small-stroke="true" ffdec:original-stroke-width="0.5" fill="none" stroke="#bdff76" stroke-linecap="round" stroke-linejoin="round" stroke-width="1.185887214858171"/>
    </g>
    <g id="button1" transform="matrix(1.0, 0.0, 0.0, 1.0, 8.5, -0.15)">
      <use ffdec:characterId="2668" height="16.25" transform="matrix(1.0, 0.0, 0.0, 1.0, -8.5, 0.15)" width="17.2" xlink:href="#shape3"/>
      <use ffdec:characterId="2670" height="11.7" transform="matrix(0.7407, 0.0, 0.0, 0.9346, -6.4407, 0.5117)" width="17.2" xlink:href="#sprite4"/>
    </g>
    <g id="sprite4" transform="matrix(1.0, 0.0, 0.0, 1.0, 1.0, -1.35)">
      <use ffdec:characterId="2669" height="11.7" transform="matrix(1.0, 0.0, 0.0, 1.0, -1.0, 1.35)" width="17.2" xlink:href="#shape5"/>
    </g>
    <g id="shape5" transform="matrix(1.0, 0.0, 0.0, 1.0, 1.0, -1.35)">
      <path d="M1.0 10.6 L7.6 1.85 15.0 11.65 15.7 12.55 -0.5 12.55 1.0 10.7 1.0 10.6" fill="#4e8a0f" fill-rule="evenodd" stroke="none"/>
      <path d="M1.0 10.6 L7.6 1.85 15.0 11.65 15.7 12.55 -0.5 12.55 1.0 10.7" ffdec:has-small-stroke="true" ffdec:original-stroke-width="1.0" fill="none" stroke="#6bc414" stroke-linecap="round" stroke-linejoin="round" stroke-width="1.185887214858171"/>
      <path d="M1.45 10.5 L1.45 10.4 7.6 2.25 15.1 12.25 0.05 12.25 1.45 10.5" fill="#4e8a0f" fill-rule="evenodd" stroke="none"/>
      <path d="M1.45 10.4 L7.6 2.25 15.1 12.25 0.05 12.25 1.45 10.5" ffdec:has-small-stroke="true" ffdec:original-stroke-width="0.5" fill="none" stroke="#bdff76" stroke-linecap="round" stroke-linejoin="round" stroke-width="1.185887214858171"/>
    </g>
    <g id="sprite5" transform="matrix(1.0, 0.0, 0.0, 1.0, 9.0, 0.0)">
      <use ffdec:characterId="2672" height="51.0" transform="matrix(1.0, 0.0, 0.0, 1.0, -9.0, 0.0)" width="18.0" xlink:href="#shape6"/>
    </g>
    <g id="shape6" transform="matrix(1.0, 0.0, 0.0, 1.0, 9.0, 0.0)">
      <path d="M9.0 51.0 L-9.0 51.0 -9.0 0.0 9.0 0.0 9.0 51.0" fill="#ff0000" fill-opacity="0.0" fill-rule="evenodd" stroke="none"/>
      <path d="M4.35 0.0 Q8.9 0.0 8.9 4.5 L8.9 46.3 Q8.9 50.8 4.35 50.8 L-4.2 50.8 Q-8.7 50.8 -8.7 46.3 L-8.7 4.5 Q-8.7 0.0 -4.2 0.0 L4.35 0.0 M3.85 45.8 L3.85 5.0 -3.7 5.0 -3.7 45.8 3.85 45.8" fill="#5eba01" fill-rule="evenodd" stroke="none"/>
      <path d="M3.85 45.8 L-3.7 45.8 -3.7 5.0 3.85 5.0 3.85 45.8" fill="url(#gradient34)" fill-rule="evenodd" stroke="none"/>
      <path d="M4.85 46.3 L4.85 4.5 Q4.85 4.0 4.35 4.0 L-4.2 4.0 Q-4.7 4.0 -4.7 4.5 L-4.7 46.3 Q-4.7 46.8 -4.2 46.8 L4.35 46.8 Q4.85 46.8 4.85 46.3 M7.85 4.5 L7.85 46.3 Q7.85 49.8 4.35 49.8 L-4.2 49.8 Q-7.7 49.8 -7.7 46.3 L-7.7 4.5 Q-7.7 1.0 -4.2 1.0 L4.35 1.0 Q7.85 1.0 7.85 4.5" fill="#73e302" fill-rule="evenodd" stroke="none"/>
      <path d="M4.85 46.3 Q4.85 46.8 4.35 46.8 L-4.2 46.8 Q-4.7 46.8 -4.7 46.3 L-4.7 4.5 Q-4.7 4.0 -4.2 4.0 L4.35 4.0 Q4.85 4.0 4.85 4.5 L4.85 46.3" fill="url(#gradient35)" fill-rule="evenodd" stroke="none"/>
      <path d="M4.35 2.0 Q6.85 2.0 6.85 4.5 L6.85 46.3 Q6.85 48.8 4.35 48.8 L-4.2 48.8 Q-6.7 48.8 -6.7 46.3 L-6.7 4.5 Q-6.7 2.0 -4.2 2.0 L4.35 2.0 M4.35 47.8 Q5.85 47.8 5.85 46.3 L5.85 4.5 Q5.85 3.0 4.35 3.0 L-4.2 3.0 Q-5.7 3.0 -5.7 4.5 L-5.7 46.3 Q-5.7 47.8 -4.2 47.8 L4.35 47.8" fill="#bdff76" fill-rule="evenodd" stroke="none"/>
      <path d="M4.35 47.8 L-4.2 47.8 Q-5.7 47.8 -5.7 46.3 L-5.7 4.5 Q-5.7 3.0 -4.2 3.0 L4.35 3.0 Q5.85 3.0 5.85 4.5 L5.85 46.3 Q5.85 47.8 4.35 47.8" fill="url(#gradient36)" fill-rule="evenodd" stroke="none"/>
    </g>
    <linearGradient gradientTransform="matrix(0.0077, 0.0, 0.0, 0.028, 0.1, 25.4)" gradientUnits="userSpaceOnUse" id="gradient34" spreadMethod="pad" x1="-819.2" x2="819.2">
      <stop offset="0.0" stop-color="#e4ffc4"/>
      <stop offset="0.3607843137254902" stop-color="#d1fea0"/>
      <stop offset="0.7098039215686275" stop-color="#cffd8a"/>
    </linearGradient>
    <linearGradient gradientTransform="matrix(0.0077, 0.0, 0.0, 0.028, 0.1, 25.4)" gradientUnits="userSpaceOnUse" id="gradient35" spreadMethod="pad" x1="-819.2" x2="819.2">
      <stop offset="0.0" stop-color="#e4ffc4"/>
      <stop offset="0.3607843137254902" stop-color="#d1fea0"/>
      <stop offset="0.7098039215686275" stop-color="#cffd8a"/>
    </linearGradient>
    <linearGradient gradientTransform="matrix(0.0117, 0.0, 0.0, 0.028, 0.1, 25.4)" gradientUnits="userSpaceOnUse" id="gradient36" spreadMethod="pad" x1="-819.2" x2="819.2">
      <stop offset="0.13333333333333333" stop-color="#5eba01"/>
      <stop offset="0.28627450980392155" stop-color="#6fdb02"/>
      <stop offset="0.6470588235294118" stop-color="#6fdb02"/>
      <stop offset="0.8" stop-color="#5eba01"/>
    </linearGradient>
    <g id="sprite6" transform="matrix(1.0, 0.0, 0.0, 1.0, 16.25, 179.7)">
      <use ffdec:characterId="2674" height="359.45" transform="matrix(1.0, 0.0, 0.0, 1.0, -16.25, -179.7)" width="32.5" xlink:href="#shape7"/>
    </g>
    <g id="shape7" transform="matrix(1.0, 0.0, 0.0, 1.0, 16.25, 179.7)">
      <path d="M6.25 -179.7 Q16.25 -179.7 16.25 -169.7 L16.25 169.75 Q16.25 179.75 6.25 179.75 L-6.25 179.75 Q-16.25 179.75 -16.25 169.75 L-16.25 -169.7 Q-16.25 -179.7 -6.25 -179.7 L6.25 -179.7" fill="#00ff00" fill-opacity="0.0" fill-rule="evenodd" stroke="none"/>
    </g>
  </defs>
</svg>
