<?xml version="1.0" encoding="UTF-8" standalone="no"?>
<svg xmlns:ffdec="https://www.free-decompiler.com/flash" xmlns:xlink="http://www.w3.org/1999/xlink" ffdec:objectType="frame" height="7.5px" width="19.8px" xmlns="http://www.w3.org/2000/svg">
  <g transform="matrix(1.0, 0.0, 0.0, 1.0, 0.0, 0.0)">
    <use ffdec:characterId="202" height="7.5" transform="matrix(1.0, 0.0, 0.0, 1.0, 0.0, 0.0)" width="19.8" xlink:href="#shape0"/>
  </g>
  <defs>
    <g id="shape0" transform="matrix(1.0, 0.0, 0.0, 1.0, 0.0, 0.0)">
      <path d="M4.25 1.25 L6.8 0.75 8.9 0.1 10.9 0.0 12.95 0.1 12.9 0.5 Q12.9 2.15 14.45 3.3 16.0 4.5 18.15 4.5 L19.8 4.3 Q19.4 5.5 17.25 6.4 14.65 7.5 10.9 7.5 7.15 7.5 3.2 5.25 -0.75 3.0 0.15 2.3 0.95 1.65 3.6 1.3 L3.8 1.3 4.25 1.25" fill="#2c9300" fill-rule="evenodd" stroke="none"/>
    </g>
  </defs>
</svg>
