<?xml version="1.0" encoding="UTF-8" standalone="no"?>
<svg xmlns:ffdec="https://www.free-decompiler.com/flash" xmlns:xlink="http://www.w3.org/1999/xlink" ffdec:objectType="frame" height="68.0px" width="83.6px" xmlns="http://www.w3.org/2000/svg">
  <g transform="matrix(1.0, 0.0, 0.0, 1.0, 42.1, 40.95)">
    <use ffdec:characterId="6" height="66.0" transform="matrix(0.55, 0.0, 0.0, 0.53, -18.1496, -10.69)" width="66.0" xlink:href="#sprite0"/>
    <use ffdec:characterId="13" height="11.5" transform="matrix(1.0, 0.0, 0.0, 1.0, -8.4, 5.5)" width="17.2" xlink:href="#sprite1"/>
    <use ffdec:characterId="15" height="13.0" transform="matrix(1.0, 0.0, 0.0, 1.0, -9.45, -19.75)" width="6.15" xlink:href="#sprite3"/>
    <use ffdec:characterId="17" height="13.0" transform="matrix(1.0, 0.0, 0.0, 1.0, 3.25, -19.85)" width="6.15" xlink:href="#sprite4"/>
    <use ffdec:characterId="19" height="35.35" transform="matrix(0.096, 0.0756, -0.1187, 0.1506, 18.5323, 3.0736)" width="173.25" xlink:href="#sprite5"/>
    <use ffdec:characterId="21" height="36.0" transform="matrix(-0.0897, -0.0644, -0.1036, 0.1442, 34.1219, 16.8263)" width="285.6" xlink:href="#sprite6"/>
    <use ffdec:characterId="19" height="35.35" transform="matrix(-0.1332, 0.0547, 0.073, 0.1776, -17.9518, 2.7074)" width="173.25" xlink:href="#sprite7"/>
    <use ffdec:characterId="21" height="36.0" transform="matrix(0.0162, 0.0092, -0.0684, 0.1207, -36.5389, 13.1782)" width="285.6" xlink:href="#sprite6"/>
    <use ffdec:characterId="23" height="55.5" transform="matrix(0.2506, 0.0, 0.0, 0.2522, -14.6675, -30.6858)" width="54.8" xlink:href="#sprite8"/>
    <use ffdec:characterId="23" height="55.5" transform="matrix(0.2506, 0.0, 0.0, 0.2522, 0.2825, -30.9358)" width="54.8" xlink:href="#sprite9"/>
    <use ffdec:characterId="25" height="17.1" transform="matrix(1.0025, 0.0, 0.0, 1.0089, -17.0519, -32.6566)" width="17.1" xlink:href="#sprite10"/>
    <use ffdec:characterId="25" height="17.1" transform="matrix(1.0025, 0.0, 0.0, 1.0089, 0.3981, -32.5566)" width="17.1" xlink:href="#sprite10"/>
    <use ffdec:characterId="30" height="9.3" transform="matrix(-1.0025, 0.0, 0.0, 1.0089, -0.8952, -29.9681)" width="9.4" xlink:href="#sprite11"/>
    <use ffdec:characterId="30" height="9.3" transform="matrix(-1.0025, 0.0, 0.0, 1.0089, 14.3548, -30.1181)" width="9.4" xlink:href="#sprite11"/>
    <use ffdec:characterId="32" height="12.0" transform="matrix(1.0, 0.0, 0.0, 1.0004, 15.55, -36.4022)" width="12.0" xlink:href="#sprite14"/>
    <use ffdec:characterId="32" height="12.0" transform="matrix(-1.0, 0.0, 0.0, 1.0004, 11.6, -15.9022)" width="12.0" xlink:href="#sprite15"/>
    <use ffdec:characterId="32" height="12.0" transform="matrix(1.0, 0.0, 0.0, 1.0004, -37.4, 7.8978)" width="12.0" xlink:href="#sprite16"/>
  </g>
  <defs>
    <g id="sprite0" transform="matrix(1.0, 0.0, 0.0, 1.0, 33.0, 33.0)">
      <use ffdec:characterId="5" height="66.0" transform="matrix(1.0, 0.0, 0.0, 1.0, -33.0, -33.0)" width="66.0" xlink:href="#shape0"/>
    </g>
    <g id="shape0" transform="matrix(1.0, 0.0, 0.0, 1.0, 33.0, 33.0)">
      <path d="M-11.75 -29.35 Q-6.3 -31.5 0.0 -31.5 13.05 -31.5 22.3 -22.3 25.8 -18.8 27.95 -14.75 29.3 -10.65 29.3 -6.0 29.3 5.25 21.4 13.2 13.4 21.15 2.2 21.15 -9.05 21.15 -17.0 13.2 -24.95 5.25 -24.95 -6.0 -24.95 -17.2 -17.0 -25.15 -14.5 -27.65 -11.75 -29.35" fill="#8500dd" fill-rule="evenodd" stroke="none"/>
      <path d="M-11.75 -29.35 Q-14.5 -27.65 -17.0 -25.15 -24.95 -17.2 -24.95 -6.0 -24.95 5.25 -17.0 13.2 -9.05 21.15 2.2 21.15 13.4 21.15 21.4 13.2 29.3 5.25 29.3 -6.0 29.3 -10.65 27.95 -14.75 31.5 -8.1 31.5 0.0 31.5 13.05 22.3 22.25 13.05 31.5 0.0 31.5 -13.05 31.5 -22.3 22.25 -31.5 13.05 -31.5 0.0 -31.5 -13.05 -22.3 -22.3 -17.5 -27.05 -11.75 -29.35" fill="#6200a4" fill-rule="evenodd" stroke="none"/>
      <path d="M19.8 -24.5 Q11.35 -31.5 0.0 -31.5 -11.3 -31.5 -19.8 -24.55 L-22.3 -22.3 Q-31.5 -13.05 -31.5 0.0 -31.5 13.05 -22.3 22.25 -13.05 31.5 0.0 31.5 13.05 31.5 22.3 22.25 31.5 13.05 31.5 0.0 31.5 -13.05 22.3 -22.3 L19.8 -24.5 Z" fill="none" stroke="#520088" stroke-linecap="round" stroke-linejoin="round" stroke-width="3.0"/>
      <path d="M-11.75 -29.35 Q-14.5 -27.65 -17.0 -25.15 -24.95 -17.2 -24.95 -6.0 -24.95 5.25 -17.0 13.2 -9.05 21.15 2.2 21.15 13.4 21.15 21.4 13.2 29.3 5.25 29.3 -6.0 29.3 -10.65 27.95 -14.75 31.5 -8.1 31.5 0.0 31.5 13.05 22.3 22.25 13.05 31.5 0.0 31.5 -13.05 31.5 -22.3 22.25 -31.5 13.05 -31.5 0.0 -31.5 -13.05 -22.3 -22.3 -17.5 -27.05 -11.75 -29.35" fill="#ff5515" fill-rule="evenodd" stroke="none"/>
      <path d="M27.95 -14.75 Q29.3 -10.65 29.3 -6.0 29.3 5.25 21.4 13.2 13.4 21.15 2.2 21.15 -9.05 21.15 -17.0 13.2 -24.95 5.25 -24.95 -6.0 -24.95 -17.2 -17.0 -25.15 -14.5 -27.65 -11.75 -29.35 -6.3 -31.5 0.0 -31.5 13.05 -31.5 22.3 -22.3 25.8 -18.8 27.95 -14.75" fill="#ff7925" fill-rule="evenodd" stroke="none"/>
      <path d="M19.8 -24.5 Q11.35 -31.5 0.0 -31.5 -11.3 -31.5 -19.8 -24.55 L-22.3 -22.3 Q-31.5 -13.05 -31.5 0.0 -31.5 13.05 -22.3 22.25 -13.05 31.5 0.0 31.5 13.05 31.5 22.3 22.25 31.5 13.05 31.5 0.0 31.5 -13.05 22.3 -22.3 L19.8 -24.5 Z" fill="none" stroke="#c33804" stroke-linecap="round" stroke-linejoin="round" stroke-width="3.0"/>
      <path d="M14.1 -22.75 L15.25 -22.65 16.85 -21.75 19.95 -18.8 Q22.15 -16.4 23.45 -13.65 24.75 -10.95 24.0 -9.15 L21.7 -9.2 Q20.55 -10.75 20.15 -11.8 L18.65 -15.15 Q17.7 -17.45 15.6 -20.0 13.5 -22.55 14.1 -22.75" fill="#ffffff" fill-opacity="0.34901962" fill-rule="evenodd" stroke="none"/>
    </g>
    <g id="sprite1" transform="matrix(1.0, 0.0, 0.0, 1.0, 2.4, 2.6)">
      <use ffdec:characterId="8" height="9.75" transform="matrix(0.27, 0.0, 0.0, 0.27, -0.5572, 1.7901)" width="54.85" xlink:href="#sprite2"/>
    </g>
    <g id="sprite2" transform="matrix(1.0, 0.0, 0.0, 1.0, 27.25, 13.0)">
      <use ffdec:characterId="7" height="9.75" transform="matrix(1.0, 0.0, 0.0, 1.0, -27.25, -13.0)" width="54.85" xlink:href="#shape1"/>
    </g>
    <g id="shape1" transform="matrix(1.0, 0.0, 0.0, 1.0, 27.25, 13.0)">
      <path d="M24.25 -9.95 Q18.8 -6.2 10.9 -4.6 2.95 -3.0 -1.6 -3.3 -6.2 -3.65 -12.75 -5.3 -19.35 -6.95 -23.95 -10.0 -28.6 -13.1 -26.7 -12.8 L-21.4 -11.65 -9.9 -9.85 5.05 -9.35 17.55 -10.9 26.4 -12.85 Q29.65 -13.75 24.25 -9.95" fill="#a62d00" fill-rule="evenodd" stroke="none"/>
    </g>
    <g id="sprite3" transform="matrix(1.0, 0.0, 0.0, 1.0, 3.15, 6.35)">
      <use ffdec:characterId="14" height="13.0" transform="matrix(1.0, 0.0, 0.0, 1.0, -3.15, -6.35)" width="6.15" xlink:href="#shape2"/>
    </g>
    <g id="shape2" transform="matrix(1.0, 0.0, 0.0, 1.0, 3.15, 6.35)">
      <path d="M0.5 4.1 L-0.5 -4.15" fill="none" stroke="#4d008a" stroke-linecap="round" stroke-linejoin="round" stroke-width="4.0"/>
      <path d="M1.1 4.7 L0.1 -3.55" fill="none" stroke="#6000ae" stroke-linecap="round" stroke-linejoin="round" stroke-width="2.5"/>
      <path d="M0.5 4.1 L-0.5 -4.15" fill="none" stroke="#b34700" stroke-linecap="round" stroke-linejoin="round" stroke-width="4.0"/>
      <path d="M1.2 4.7 L0.2 -3.55" fill="none" stroke="#ff6600" stroke-linecap="round" stroke-linejoin="round" stroke-width="2.0"/>
      <path d="M1.65 -0.25 L2.25 4.15 2.5 5.2 Q1.05 6.7 -1.2 6.15 L-1.15 5.2 -1.7 0.6 Q0.0 1.2 1.65 -0.25" fill="#ff7925" fill-rule="evenodd" stroke="none"/>
      <path d="M-1.7 0.6 L-2.4 -5.1 1.0 -5.6 1.65 -0.25 Q0.0 1.2 -1.7 0.6" fill="#ff5515" fill-rule="evenodd" stroke="none"/>
      <path d="M1.65 -0.25 L2.25 4.15 M-1.15 5.2 L-1.7 0.6" fill="none" stroke="#c33804" stroke-linecap="round" stroke-linejoin="round" stroke-width="1.5"/>
      <path d="M2.25 4.15 L2.5 5.2 M-1.2 6.15 L-1.15 5.2" fill="none" stroke="#c33804" stroke-linecap="round" stroke-linejoin="round" stroke-width="1.0"/>
      <path d="M-1.7 0.6 L-2.4 -5.1 1.0 -5.6 1.65 -0.25" fill="none" stroke="#a62d00" stroke-linecap="round" stroke-linejoin="round" stroke-width="1.5"/>
    </g>
    <g id="sprite4" transform="matrix(1.0, 0.0, 0.0, 1.0, 3.05, 6.45)">
      <use ffdec:characterId="16" height="13.0" transform="matrix(1.0, 0.0, 0.0, 1.0, -3.05, -6.45)" width="6.15" xlink:href="#shape3"/>
    </g>
    <g id="shape3" transform="matrix(1.0, 0.0, 0.0, 1.0, 3.05, 6.45)">
      <path d="M-0.5 4.1 L0.5 -4.15" fill="none" stroke="#4d008a" stroke-linecap="round" stroke-linejoin="round" stroke-width="4.0"/>
      <path d="M0.1 4.9 L1.1 -3.35" fill="none" stroke="#6200b3" stroke-linecap="round" stroke-linejoin="round" stroke-width="2.5"/>
      <path d="M-0.5 4.1 L0.5 -4.15" fill="none" stroke="#b34700" stroke-linecap="round" stroke-linejoin="round" stroke-width="4.0"/>
      <path d="M0.1 4.9 L1.1 -3.35" fill="none" stroke="#ff6600" stroke-linecap="round" stroke-linejoin="round" stroke-width="2.0"/>
      <path d="M1.65 0.5 L-0.1 0.55 -0.7 0.35 -1.7 -0.35 -1.05 -5.7 2.35 -5.2 1.65 0.5" fill="#ff5515" fill-rule="evenodd" stroke="none"/>
      <path d="M1.65 0.5 L1.1 5.1 1.15 6.05 Q-1.1 6.6 -2.55 5.1 L-2.3 4.05 -1.7 -0.35 -0.7 0.35 -0.1 0.55 1.65 0.5" fill="#ff7925" fill-rule="evenodd" stroke="none"/>
      <path d="M1.65 0.5 L2.35 -5.2 -1.05 -5.7 -1.7 -0.35" fill="none" stroke="#a62d00" stroke-linecap="round" stroke-linejoin="round" stroke-width="1.5"/>
      <path d="M1.1 5.1 L1.65 0.5 M-1.7 -0.35 L-2.3 4.05" fill="none" stroke="#c33804" stroke-linecap="round" stroke-linejoin="round" stroke-width="1.5"/>
      <path d="M-2.3 4.05 L-2.55 5.1 M1.15 6.05 L1.1 5.1" fill="none" stroke="#c33804" stroke-linecap="round" stroke-linejoin="round" stroke-width="1.0"/>
    </g>
    <g id="sprite5" transform="matrix(1.0, 0.0, 0.0, 1.0, 7.7, 19.55)">
      <use ffdec:characterId="18" height="35.35" transform="matrix(1.0, 0.0, 0.0, 1.0, -7.7, -19.55)" width="173.25" xlink:href="#shape4"/>
    </g>
    <g id="shape4" transform="matrix(1.0, 0.0, 0.0, 1.0, 7.7, 19.55)">
      <path d="M-5.2 1.0 L-5.15 1.1 -5.2 1.15 -5.2 1.1 -5.2 1.0 M140.2 12.0 L148.1 13.25 145.4 13.0 140.2 12.0" fill="#7f256b" fill-rule="evenodd" stroke="none"/>
      <path d="M-5.15 1.1 L16.4 -2.15 17.55 -2.3 33.4 -4.05 Q83.5 -7.4 131.55 -2.7 144.1 -1.5 162.85 2.5 161.95 7.85 157.05 10.9 153.0 13.55 148.1 13.25 L140.2 12.0 Q91.5 2.75 33.7 4.05 L18.45 4.55 17.85 4.55 10.6 4.95 0.4 4.65 Q-5.05 3.95 -5.2 1.15 L-5.15 1.1" fill="#640a50" fill-rule="evenodd" stroke="none"/>
      <path d="M162.85 2.5 Q144.1 -1.5 131.55 -2.7 83.5 -7.4 33.4 -4.05 L17.55 -2.3 16.4 -2.15 -5.15 1.1 -5.2 1.0 Q-5.25 -2.05 -1.2 -4.45 2.8 -6.75 15.4 -9.0 85.1 -22.35 148.0 -13.5 L148.25 -13.25 148.25 -13.4 Q156.6 -11.7 160.1 -7.4 163.75 -2.9 162.85 2.5" fill="#973d83" fill-rule="evenodd" stroke="none"/>
      <path d="M162.85 2.5 Q163.75 -2.9 160.1 -7.4 156.6 -11.7 148.25 -13.4 L148.0 -13.5 Q85.1 -22.35 15.4 -9.0 2.8 -6.75 -1.2 -4.45 -5.25 -2.05 -5.2 1.0 L-5.2 1.1 -5.2 1.15 Q-5.05 3.95 0.4 4.65 L10.6 4.95 17.85 4.55 18.45 4.55 33.7 4.05 Q91.5 2.75 140.2 12.0 L145.4 13.0 148.1 13.25 Q153.0 13.55 157.05 10.9 161.95 7.85 162.85 2.5 Z" ffdec:has-small-stroke="true" ffdec:original-stroke-width="5.0" fill="none" stroke="#640a50" stroke-linecap="round" stroke-linejoin="round" stroke-width="6.219934564918283"/>
    </g>
    <g id="sprite6" transform="matrix(1.0, 0.0, 0.0, 1.0, 14.6, 16.05)">
      <use ffdec:characterId="20" height="36.0" transform="matrix(1.0, 0.0, 0.0, 1.0, -14.6, -16.05)" width="285.6" xlink:href="#shape5"/>
    </g>
    <g id="shape5" transform="matrix(1.0, 0.0, 0.0, 1.0, 14.6, 16.05)">
      <path d="M5.3 -14.95 Q135.05 4.75 264.7 -9.2 277.3 -0.15 264.7 8.9 133.85 27.45 2.9 14.85 L-3.3 14.25 Q-7.95 14.25 -11.3 9.85 -14.6 5.4 -14.6 -0.95 -14.6 -7.15 -11.3 -11.6 -7.95 -16.05 -3.3 -16.05 L4.2 -15.05 5.3 -14.95" fill="#640a50" fill-rule="evenodd" stroke="none"/>
    </g>
    <g id="sprite7" transform="matrix(1.0, 0.0, 0.0, 1.0, 7.7, 19.55)">
      <use ffdec:characterId="18" height="35.35" transform="matrix(1.0, 0.0, 0.0, 1.0, -7.7, -19.55)" width="173.25" xlink:href="#shape6"/>
    </g>
    <g id="shape6" transform="matrix(1.0, 0.0, 0.0, 1.0, 7.7, 19.55)">
      <path d="M-5.2 1.0 L-5.15 1.1 -5.2 1.15 -5.2 1.1 -5.2 1.0 M140.2 12.0 L148.1 13.25 145.4 13.0 140.2 12.0" fill="#7f256b" fill-rule="evenodd" stroke="none"/>
      <path d="M-5.15 1.1 L16.4 -2.15 17.55 -2.3 33.4 -4.05 Q83.5 -7.4 131.55 -2.7 144.1 -1.5 162.85 2.5 161.95 7.85 157.05 10.9 153.0 13.55 148.1 13.25 L140.2 12.0 Q91.5 2.75 33.7 4.05 L18.45 4.55 17.85 4.55 10.6 4.95 0.4 4.65 Q-5.05 3.95 -5.2 1.15 L-5.15 1.1" fill="#640a50" fill-rule="evenodd" stroke="none"/>
      <path d="M162.85 2.5 Q144.1 -1.5 131.55 -2.7 83.5 -7.4 33.4 -4.05 L17.55 -2.3 16.4 -2.15 -5.15 1.1 -5.2 1.0 Q-5.25 -2.05 -1.2 -4.45 2.8 -6.75 15.4 -9.0 85.1 -22.35 148.0 -13.5 L148.25 -13.25 148.25 -13.4 Q156.6 -11.7 160.1 -7.4 163.75 -2.9 162.85 2.5" fill="#973d83" fill-rule="evenodd" stroke="none"/>
      <path d="M162.85 2.5 Q163.75 -2.9 160.1 -7.4 156.6 -11.7 148.25 -13.4 L148.0 -13.5 Q85.1 -22.35 15.4 -9.0 2.8 -6.75 -1.2 -4.45 -5.25 -2.05 -5.2 1.0 L-5.2 1.1 -5.2 1.15 Q-5.05 3.95 0.4 4.65 L10.6 4.95 17.85 4.55 18.45 4.55 33.7 4.05 Q91.5 2.75 140.2 12.0 L145.4 13.0 148.1 13.25 Q153.0 13.55 157.05 10.9 161.95 7.85 162.85 2.5 Z" ffdec:has-small-stroke="true" ffdec:original-stroke-width="5.0" fill="none" stroke="#640a50" stroke-linecap="round" stroke-linejoin="round" stroke-width="5.893785213098373"/>
    </g>
    <g id="sprite8" transform="matrix(1.0, 0.0, 0.0, 1.0, 28.0, 27.5)">
      <use ffdec:characterId="22" height="55.5" transform="matrix(1.0, 0.0, 0.0, 1.0, -28.0, -27.5)" width="54.8" xlink:href="#shape7"/>
    </g>
    <g id="shape7" transform="matrix(1.0, 0.0, 0.0, 1.0, 28.0, 27.5)">
      <path d="M-7.25 -24.9 Q-3.85 -26.85 0.05 -27.45 L-0.75 -27.45 1.0 -27.5 Q12.0 -27.5 19.75 -19.8 24.9 -14.6 26.65 -8.0 L26.8 -5.0 Q26.8 -2.8 26.45 -0.7 L26.3 -0.05 Q24.95 6.25 20.1 11.1 L19.6 11.6 19.1 12.1 Q12.75 17.8 4.0 17.8 -5.45 17.8 -12.15 11.1 -18.8 4.45 -18.8 -5.0 -18.8 -13.75 -13.1 -20.1 L-12.65 -20.65 -12.15 -21.15 Q-9.85 -23.4 -7.25 -24.9" fill="#ffffff" fill-rule="evenodd" stroke="none"/>
      <path d="M-7.25 -24.9 Q-9.85 -23.4 -12.15 -21.15 L-12.65 -20.65 -13.15 -20.15 -13.1 -20.1 Q-18.8 -13.75 -18.8 -5.0 -18.8 4.45 -12.15 11.1 -5.45 17.8 4.0 17.8 12.75 17.8 19.1 12.1 L19.6 11.6 20.1 11.1 Q24.95 6.25 26.3 -0.05 L26.45 -0.7 26.5 0.0 Q26.5 5.35 24.65 9.95 L19.1 18.4 18.75 18.75 Q11.0 26.5 0.0 26.5 -11.0 26.5 -18.8 18.75 -26.5 11.0 -26.5 0.0 -26.5 -11.0 -18.8 -18.8 L-15.75 -21.4 -15.55 -21.55 -15.15 -21.85 -14.95 -21.95 -14.75 -22.1 -13.8 -22.7 -13.6 -22.85 -13.25 -23.05 -13.1 -23.15 -12.9 -23.25 -12.75 -23.35 -7.25 -24.9" fill="#c8c8c8" fill-rule="evenodd" stroke="none"/>
      <path d="M19.1 18.4 L18.75 18.75 Q11.0 26.5 0.0 26.5 -11.0 26.5 -18.8 18.75 -26.5 11.0 -26.5 0.0 -26.5 -11.0 -18.8 -18.8 L-15.75 -21.4 -15.55 -21.55 -15.15 -21.85 -14.95 -21.95 -14.75 -22.1 -13.8 -22.7 -13.6 -22.85 -13.25 -23.05 -13.1 -23.15 -12.9 -23.25 -12.75 -23.35 -7.25 -24.9" ffdec:has-small-stroke="true" ffdec:original-stroke-width="3.0" fill="none" stroke="#6a6a6a" stroke-linecap="round" stroke-linejoin="round" stroke-width="3.9774032675773534"/>
    </g>
    <g id="sprite9" transform="matrix(1.0, 0.0, 0.0, 1.0, 28.0, 27.5)">
      <use ffdec:characterId="22" height="55.5" transform="matrix(1.0, 0.0, 0.0, 1.0, -28.0, -27.5)" width="54.8" xlink:href="#shape8"/>
    </g>
    <g id="shape8" transform="matrix(1.0, 0.0, 0.0, 1.0, 28.0, 27.5)">
      <path d="M-7.25 -24.9 Q-3.85 -26.85 0.05 -27.45 L-0.75 -27.45 1.0 -27.5 Q12.0 -27.5 19.75 -19.8 24.9 -14.6 26.65 -8.0 L26.8 -5.0 Q26.8 -2.8 26.45 -0.7 L26.3 -0.05 Q24.95 6.25 20.1 11.1 L19.6 11.6 19.1 12.1 Q12.75 17.8 4.0 17.8 -5.45 17.8 -12.15 11.1 -18.8 4.45 -18.8 -5.0 -18.8 -13.75 -13.1 -20.1 L-12.65 -20.65 -12.15 -21.15 Q-9.85 -23.4 -7.25 -24.9" fill="#ffffff" fill-rule="evenodd" stroke="none"/>
      <path d="M-7.25 -24.9 Q-9.85 -23.4 -12.15 -21.15 L-12.65 -20.65 -13.15 -20.15 -13.1 -20.1 Q-18.8 -13.75 -18.8 -5.0 -18.8 4.45 -12.15 11.1 -5.45 17.8 4.0 17.8 12.75 17.8 19.1 12.1 L19.6 11.6 20.1 11.1 Q24.95 6.25 26.3 -0.05 L26.45 -0.7 26.5 0.0 Q26.5 5.35 24.65 9.95 L19.1 18.4 18.75 18.75 Q11.0 26.5 0.0 26.5 -11.0 26.5 -18.8 18.75 -26.5 11.0 -26.5 0.0 -26.5 -11.0 -18.8 -18.8 L-15.75 -21.4 -15.55 -21.55 -15.15 -21.85 -14.95 -21.95 -14.75 -22.1 -13.8 -22.7 -13.6 -22.85 -13.25 -23.05 -13.1 -23.15 -12.9 -23.25 -12.75 -23.35 -7.25 -24.9" fill="#c8c8c8" fill-rule="evenodd" stroke="none"/>
      <path d="M19.1 18.4 L18.75 18.75 Q11.0 26.5 0.0 26.5 -11.0 26.5 -18.8 18.75 -26.5 11.0 -26.5 0.0 -26.5 -11.0 -18.8 -18.8 L-15.75 -21.4 -15.55 -21.55 -15.15 -21.85 -14.95 -21.95 -14.75 -22.1 -13.8 -22.7 -13.6 -22.85 -13.25 -23.05 -13.1 -23.15 -12.9 -23.25 -12.75 -23.35 -7.25 -24.9" ffdec:has-small-stroke="true" ffdec:original-stroke-width="3.0" fill="none" stroke="#6a6a6a" stroke-linecap="round" stroke-linejoin="round" stroke-width="3.9774032675773534"/>
    </g>
    <g id="sprite10" transform="matrix(1.0, 0.0, 0.0, 1.0, 0.75, 0.75)">
      <use ffdec:characterId="24" height="17.1" transform="matrix(1.0, 0.0, 0.0, 1.0, -0.75, -0.75)" width="17.1" xlink:href="#shape9"/>
    </g>
    <g id="shape9" transform="matrix(1.0, 0.0, 0.0, 1.0, 0.75, 0.75)">
      <path d="M15.05 10.75 L14.75 11.15 Q12.85 13.6 9.75 13.95 6.7 14.3 4.3 12.4 1.85 10.45 1.5 7.35 1.15 4.3 3.05 1.9 L3.75 1.15 Q5.15 0.25 6.95 0.05 10.15 -0.3 12.7 1.7 15.2 3.75 15.55 6.95 15.75 9.0 15.05 10.75" fill="#ffffff" fill-rule="evenodd" stroke="none"/>
      <path d="M3.75 1.15 L3.05 1.9 Q1.15 4.3 1.5 7.35 1.85 10.45 4.3 12.4 6.7 14.3 9.75 13.95 12.85 13.6 14.75 11.15 L15.05 10.75 13.9 12.65 Q11.9 15.15 8.7 15.55 5.5 15.9 2.95 13.9 0.4 11.9 0.05 8.7 -0.3 5.5 1.7 2.95 2.65 1.8 3.75 1.15" fill="#d9ecff" fill-rule="evenodd" stroke="none"/>
      <path d="M3.75 1.15 Q2.65 1.8 1.7 2.95 -0.3 5.5 0.05 8.7 0.4 11.9 2.95 13.9 5.5 15.9 8.7 15.55 11.9 15.15 13.9 12.65 L15.05 10.75 Q15.75 9.0 15.55 6.95 15.2 3.75 12.7 1.7 10.15 -0.3 6.95 0.05 5.15 0.25 3.75 1.15 Z" fill="none" stroke="#abcdf3" stroke-linecap="round" stroke-linejoin="round" stroke-width="1.5"/>
    </g>
    <g id="sprite11" transform="matrix(1.0, 0.0, 0.0, 1.0, 1.9, 2.05)">
      <use ffdec:characterId="27" height="25.95" transform="matrix(-0.3454, -0.0118, -0.0117, 0.3428, 7.4247, -1.6358)" width="25.9" xlink:href="#sprite12"/>
      <use ffdec:characterId="29" height="25.95" transform="matrix(-0.3523, -0.0121, -0.0118, 0.3457, 7.5154, -1.7209)" width="25.9" xlink:href="#sprite13"/>
    </g>
    <g id="sprite12" transform="matrix(1.0, 0.0, 0.0, 1.0, 12.95, 12.95)">
      <use ffdec:characterId="26" height="25.95" transform="matrix(1.0, 0.0, 0.0, 1.0, -12.95, -12.95)" width="25.9" xlink:href="#shape10"/>
    </g>
    <g id="shape10" transform="matrix(1.0, 0.0, 0.0, 1.0, 12.95, 12.95)">
      <path d="M1.1 -6.5 Q1.15 -8.2 2.4 -9.4 3.7 -10.7 5.6 -10.7 7.4 -10.7 8.75 -9.4 10.05 -8.1 10.05 -6.2 10.05 -4.35 8.75 -3.05 7.85 -2.2 6.75 -1.9 L5.6 -1.75 Q3.7 -1.75 2.4 -3.05 1.1 -4.35 1.1 -6.2 L1.1 -6.5 M-2.95 6.1 L-4.0 6.35 Q-4.95 6.35 -5.6 5.7 -6.25 5.05 -6.25 4.1 -6.25 3.4 -5.9 2.9 L-5.6 2.5 Q-4.95 1.85 -4.0 1.85 -3.05 1.85 -2.45 2.5 -1.75 3.15 -1.75 4.1 -1.75 5.05 -2.45 5.7 L-2.95 6.1" fill="#e6e6e6" fill-rule="evenodd" stroke="none"/>
      <path d="M6.75 -1.9 L7.05 0.2 Q7.0 2.95 5.1 4.95 3.1 6.95 0.3 6.95 -1.55 6.95 -2.95 6.1 L-2.45 5.7 Q-1.75 5.05 -1.75 4.1 -1.75 3.15 -2.45 2.5 -3.05 1.85 -4.0 1.85 -4.95 1.85 -5.6 2.5 L-5.9 2.9 Q-6.45 1.6 -6.45 0.2 -6.45 -2.6 -4.45 -4.6 -2.5 -6.55 0.3 -6.5 L1.1 -6.5 1.1 -6.2 Q1.1 -4.35 2.4 -3.05 3.7 -1.75 5.6 -1.75 L6.75 -1.9" fill="#48332f" fill-rule="evenodd" stroke="none"/>
      <path d="M6.75 -1.9 Q7.85 -2.2 8.75 -3.05 10.05 -4.35 10.05 -6.2 10.05 -8.1 8.75 -9.4 7.4 -10.7 5.6 -10.7 3.7 -10.7 2.4 -9.4 1.15 -8.2 1.1 -6.5 L0.3 -6.5 Q-2.5 -6.55 -4.45 -4.6 -6.45 -2.6 -6.45 0.2 -6.45 1.6 -5.9 2.9 -6.25 3.4 -6.25 4.1 -6.25 5.05 -5.6 5.7 -4.95 6.35 -4.0 6.35 L-2.95 6.1 Q-1.55 6.95 0.3 6.95 3.1 6.95 5.1 4.95 7.0 2.95 7.05 0.2 L6.75 -1.9 M9.2 -9.15 Q12.95 -5.35 12.95 0.0 12.95 5.4 9.2 9.2 5.35 12.95 0.0 13.0 -5.4 12.95 -9.2 9.2 -12.95 5.4 -12.95 0.0 -12.95 -5.35 -9.2 -9.15 -5.4 -12.95 0.0 -12.95 5.35 -12.95 9.2 -9.15" fill="#aa6c2d" fill-rule="evenodd" stroke="none"/>
    </g>
    <g id="sprite13" transform="matrix(1.0, 0.0, 0.0, 1.0, 12.95, 12.95)">
      <use ffdec:characterId="28" height="25.95" transform="matrix(1.0, 0.0, 0.0, 1.0, -12.95, -12.95)" width="25.9" xlink:href="#shape11"/>
    </g>
    <g id="shape11" transform="matrix(1.0, 0.0, 0.0, 1.0, 12.95, 12.95)">
      <path d="M1.1 -6.5 Q1.15 -8.2 2.4 -9.4 3.7 -10.7 5.6 -10.7 7.4 -10.7 8.75 -9.4 10.05 -8.1 10.05 -6.2 10.05 -4.35 8.75 -3.05 7.85 -2.2 6.75 -1.9 L5.6 -1.75 Q3.7 -1.75 2.4 -3.05 1.1 -4.35 1.1 -6.2 L1.1 -6.5 M-2.95 6.1 L-4.0 6.35 Q-4.95 6.35 -5.6 5.7 -6.25 5.05 -6.25 4.1 -6.25 3.4 -5.9 2.9 L-5.6 2.5 Q-4.95 1.85 -4.0 1.85 -3.05 1.85 -2.45 2.5 -1.75 3.15 -1.75 4.1 -1.75 5.05 -2.45 5.7 L-2.95 6.1" fill="#e6e6e6" fill-rule="evenodd" stroke="none"/>
      <path d="M6.75 -1.9 L7.05 0.2 Q7.0 2.95 5.1 4.95 3.1 6.95 0.3 6.95 -1.55 6.95 -2.95 6.1 L-2.45 5.7 Q-1.75 5.05 -1.75 4.1 -1.75 3.15 -2.45 2.5 -3.05 1.85 -4.0 1.85 -4.95 1.85 -5.6 2.5 L-5.9 2.9 Q-6.45 1.6 -6.45 0.2 -6.45 -2.6 -4.45 -4.6 -2.5 -6.55 0.3 -6.5 L1.1 -6.5 1.1 -6.2 Q1.1 -4.35 2.4 -3.05 3.7 -1.75 5.6 -1.75 L6.75 -1.9" fill="#305665" fill-rule="evenodd" stroke="none"/>
      <path d="M6.75 -1.9 Q7.85 -2.2 8.75 -3.05 10.05 -4.35 10.05 -6.2 10.05 -8.1 8.75 -9.4 7.4 -10.7 5.6 -10.7 3.7 -10.7 2.4 -9.4 1.15 -8.2 1.1 -6.5 L0.3 -6.5 Q-2.5 -6.55 -4.45 -4.6 -6.45 -2.6 -6.45 0.2 -6.45 1.6 -5.9 2.9 -6.25 3.4 -6.25 4.1 -6.25 5.05 -5.6 5.7 -4.95 6.35 -4.0 6.35 L-2.95 6.1 Q-1.55 6.95 0.3 6.95 3.1 6.95 5.1 4.95 7.0 2.95 7.05 0.2 L6.75 -1.9 M9.2 -9.15 Q12.95 -5.35 12.95 0.0 12.95 5.4 9.2 9.2 5.35 12.95 0.0 13.0 -5.4 12.95 -9.2 9.2 -12.95 5.4 -12.95 0.0 -12.95 -5.35 -9.2 -9.15 -5.4 -12.95 0.0 -12.95 5.35 -12.95 9.2 -9.15" fill="#63a5e7" fill-rule="evenodd" stroke="none"/>
    </g>
    <g id="sprite14" transform="matrix(1.0, 0.0, 0.0, 1.0, 6.0, 6.0)">
      <use ffdec:characterId="31" height="12.0" transform="matrix(1.0, 0.0, 0.0, 1.0, -6.0, -6.0)" width="12.0" xlink:href="#shape12"/>
    </g>
    <g id="shape12" transform="matrix(1.0, 0.0, 0.0, 1.0, 6.0, 6.0)">
      <path d="M3.7 -1.2 Q3.7 0.05 2.8 0.95 1.9 1.85 0.65 1.85 L-0.1 1.8 Q-0.9 1.55 -1.5 0.95 -2.4 0.05 -2.4 -1.2 -2.4 -2.45 -1.5 -3.35 -0.9 -3.95 -0.1 -4.2 L0.65 -4.25 Q1.9 -4.25 2.8 -3.35 3.7 -2.45 3.7 -1.2" fill="#e137ff" fill-rule="evenodd" stroke="none"/>
      <path d="M-3.35 -4.95 L-1.4 -5.9 0.0 -6.0 Q2.5 -6.0 4.2 -4.25 6.0 -2.45 6.0 0.0 L6.0 0.15 Q5.65 1.6 4.5 2.7 2.95 4.3 0.65 4.3 L-0.65 4.2 Q-2.1 3.85 -3.25 2.7 -4.85 1.1 -4.85 -1.2 -4.85 -3.35 -3.35 -4.95 M3.7 -1.2 Q3.7 -2.45 2.8 -3.35 1.9 -4.25 0.65 -4.25 L-0.1 -4.2 Q-0.9 -3.95 -1.5 -3.35 -2.4 -2.45 -2.4 -1.2 -2.4 0.05 -1.5 0.95 -0.9 1.55 -0.1 1.8 L0.65 1.85 Q1.9 1.85 2.8 0.95 3.7 0.05 3.7 -1.2" fill="#d228f0" fill-rule="evenodd" stroke="none"/>
      <path d="M6.0 0.15 Q5.95 2.55 4.2 4.25 2.5 6.0 0.0 6.0 L-1.4 5.9 Q-3.0 5.5 -4.25 4.25 -6.0 2.5 -6.0 0.0 -6.0 -2.45 -4.25 -4.25 L-3.35 -4.95 Q-4.85 -3.35 -4.85 -1.2 -4.85 1.1 -3.25 2.7 -2.1 3.85 -0.65 4.2 L0.65 4.3 Q2.95 4.3 4.5 2.7 5.65 1.6 6.0 0.15" fill="#81009f" fill-rule="evenodd" stroke="none"/>
    </g>
    <g id="sprite15" transform="matrix(1.0, 0.0, 0.0, 1.0, 6.0, 6.0)">
      <use ffdec:characterId="31" height="12.0" transform="matrix(1.0, 0.0, 0.0, 1.0, -6.0, -6.0)" width="12.0" xlink:href="#shape13"/>
    </g>
    <g id="shape13" transform="matrix(1.0, 0.0, 0.0, 1.0, 6.0, 6.0)">
      <path d="M3.7 -1.2 Q3.7 0.05 2.8 0.95 1.9 1.85 0.65 1.85 L-0.1 1.8 Q-0.9 1.55 -1.5 0.95 -2.4 0.05 -2.4 -1.2 -2.4 -2.45 -1.5 -3.35 -0.9 -3.95 -0.1 -4.2 L0.65 -4.25 Q1.9 -4.25 2.8 -3.35 3.7 -2.45 3.7 -1.2" fill="#ffe437" fill-rule="evenodd" stroke="none"/>
      <path d="M-3.35 -4.95 L-1.4 -5.9 0.0 -6.0 Q2.5 -6.0 4.2 -4.25 6.0 -2.45 6.0 0.0 L6.0 0.15 Q5.65 1.6 4.5 2.7 2.95 4.3 0.65 4.3 L-0.65 4.2 Q-2.1 3.85 -3.25 2.7 -4.85 1.1 -4.85 -1.2 -4.85 -3.35 -3.35 -4.95 M3.7 -1.2 Q3.7 -2.45 2.8 -3.35 1.9 -4.25 0.65 -4.25 L-0.1 -4.2 Q-0.9 -3.95 -1.5 -3.35 -2.4 -2.45 -2.4 -1.2 -2.4 0.05 -1.5 0.95 -0.9 1.55 -0.1 1.8 L0.65 1.85 Q1.9 1.85 2.8 0.95 3.7 0.05 3.7 -1.2" fill="#ffd528" fill-rule="evenodd" stroke="none"/>
      <path d="M6.0 0.15 Q5.95 2.55 4.2 4.25 2.5 6.0 0.0 6.0 L-1.4 5.9 Q-3.0 5.5 -4.25 4.25 -6.0 2.5 -6.0 0.0 -6.0 -2.45 -4.25 -4.25 L-3.35 -4.95 Q-4.85 -3.35 -4.85 -1.2 -4.85 1.1 -3.25 2.7 -2.1 3.85 -0.65 4.2 L0.65 4.3 Q2.95 4.3 4.5 2.7 5.65 1.6 6.0 0.15" fill="#c58400" fill-rule="evenodd" stroke="none"/>
    </g>
    <g id="sprite16" transform="matrix(1.0, 0.0, 0.0, 1.0, 6.0, 6.0)">
      <use ffdec:characterId="31" height="12.0" transform="matrix(1.0, 0.0, 0.0, 1.0, -6.0, -6.0)" width="12.0" xlink:href="#shape14"/>
    </g>
    <g id="shape14" transform="matrix(1.0, 0.0, 0.0, 1.0, 6.0, 6.0)">
      <path d="M3.7 -1.2 Q3.7 0.05 2.8 0.95 1.9 1.85 0.65 1.85 L-0.1 1.8 Q-0.9 1.55 -1.5 0.95 -2.4 0.05 -2.4 -1.2 -2.4 -2.45 -1.5 -3.35 -0.9 -3.95 -0.1 -4.2 L0.65 -4.25 Q1.9 -4.25 2.8 -3.35 3.7 -2.45 3.7 -1.2" fill="#ff353e" fill-rule="evenodd" stroke="none"/>
      <path d="M-3.35 -4.95 L-1.4 -5.9 0.0 -6.0 Q2.5 -6.0 4.2 -4.25 6.0 -2.45 6.0 0.0 L6.0 0.15 Q5.65 1.6 4.5 2.7 2.95 4.3 0.65 4.3 L-0.65 4.2 Q-2.1 3.85 -3.25 2.7 -4.85 1.1 -4.85 -1.2 -4.85 -3.35 -3.35 -4.95 M3.7 -1.2 Q3.7 -2.45 2.8 -3.35 1.9 -4.25 0.65 -4.25 L-0.1 -4.2 Q-0.9 -3.95 -1.5 -3.35 -2.4 -2.45 -2.4 -1.2 -2.4 0.05 -1.5 0.95 -0.9 1.55 -0.1 1.8 L0.65 1.85 Q1.9 1.85 2.8 0.95 3.7 0.05 3.7 -1.2" fill="#f3262f" fill-rule="evenodd" stroke="none"/>
      <path d="M6.0 0.15 Q5.95 2.55 4.2 4.25 2.5 6.0 0.0 6.0 L-1.4 5.9 Q-3.0 5.5 -4.25 4.25 -6.0 2.5 -6.0 0.0 -6.0 -2.45 -4.25 -4.25 L-3.35 -4.95 Q-4.85 -3.35 -4.85 -1.2 -4.85 1.1 -3.25 2.7 -2.1 3.85 -0.65 4.2 L0.65 4.3 Q2.95 4.3 4.5 2.7 5.65 1.6 6.0 0.15" fill="#a20000" fill-rule="evenodd" stroke="none"/>
    </g>
  </defs>
</svg>
