<?xml version="1.0" encoding="UTF-8" standalone="no"?>
<svg xmlns:ffdec="https://www.free-decompiler.com/flash" xmlns:xlink="http://www.w3.org/1999/xlink" ffdec:objectType="frame" height="65.1px" width="50.8px" xmlns="http://www.w3.org/2000/svg">
  <g transform="matrix(1.0, 0.0, 0.0, 1.0, 0.0, 0.0)">
    <use ffdec:characterId="120" height="65.1" transform="matrix(1.0, 0.0, 0.0, 1.0, 0.0, 0.0)" width="50.8" xlink:href="#shape0"/>
  </g>
  <defs>
    <g id="shape0" transform="matrix(1.0, 0.0, 0.0, 1.0, 0.0, 0.0)">
      <path d="M4.55 1.5 L5.1 1.1 Q3.8 1.1 3.05 0.0 L9.05 0.0 Q8.4 0.75 7.6 0.9 L7.6 1.0 Q13.4 24.4 16.5 25.9 L16.55 25.9 Q28.8 27.15 38.1 38.5 69.7 56.45 22.55 63.25 13.1 67.95 5.55 60.75 0.7 56.45 2.55 38.75 3.65 29.15 0.8 19.5 -1.85 9.75 4.55 1.5" fill="#4aa613" fill-rule="evenodd" stroke="none"/>
    </g>
  </defs>
</svg>
