<?xml version="1.0" encoding="UTF-8" standalone="no"?>
<svg xmlns:ffdec="https://www.free-decompiler.com/flash" xmlns:xlink="http://www.w3.org/1999/xlink" ffdec:objectType="frame" height="50.35px" width="135.2px" xmlns="http://www.w3.org/2000/svg">
  <g transform="matrix(1.0, 0.0, 0.0, 1.0, 128.35, -40.45)">
    <use ffdec:characterId="917" height="44.8" transform="matrix(0.4969, 0.0, 0.0, 0.9003, -2.45, 43.5499)" width="18.75" xlink:href="#sprite0"/>
    <use ffdec:characterId="905" height="44.3" transform="matrix(0.4973, 0.0, 0.0, 0.9003, -17.4, 50.45)" width="30.5" xlink:href="#sprite1"/>
    <use ffdec:characterId="918" height="43.35" transform="matrix(0.4973, 0.0, 0.0, 0.9003, -34.9, 44.0)" width="36.05" xlink:href="#sprite2"/>
    <use ffdec:characterId="919" height="45.8" transform="matrix(0.4973, 0.0, 0.0, 0.9003, -53.2487, 49.5499)" width="39.95" xlink:href="#sprite3"/>
    <use ffdec:characterId="921" height="45.15" transform="matrix(0.4973, 0.0, 0.0, 0.9003, -68.9, 42.6)" width="37.85" xlink:href="#sprite4"/>
    <use ffdec:characterId="906" height="45.05" transform="matrix(0.4973, 0.0, 0.0, 0.9003, -86.25, 48.0)" width="37.05" xlink:href="#sprite5"/>
    <use ffdec:characterId="912" height="44.7" transform="matrix(0.4973, 0.0, 0.0, 0.9003, -103.9487, 41.7)" width="37.5" xlink:href="#sprite6"/>
    <use ffdec:characterId="913" height="43.95" transform="matrix(0.4973, 0.0, 0.0, 0.9003, -112.2987, 47.8)" width="17.75" xlink:href="#sprite7"/>
    <use ffdec:characterId="922" height="45.15" transform="matrix(0.4973, 0.0, 0.0, 0.9003, -128.35, 40.45)" width="35.6" xlink:href="#sprite8"/>
  </g>
  <defs>
    <g id="sprite0" transform="matrix(1.0, 0.0, 0.0, 1.0, 0.0, 0.5)">
      <use ffdec:characterId="517" height="44.8" transform="matrix(1.0, 0.0, 0.0, 1.0, 0.0, -0.5)" width="18.75" xlink:href="#shape0"/>
    </g>
    <g id="shape0" transform="matrix(1.0, 0.0, 0.0, 1.0, 0.0, 0.5)">
      <path d="M3.8 0.0 L5.55 23.6 1.8 28.7 0.05 5.1 3.8 0.0" fill="#ab0404" fill-rule="evenodd" stroke="none"/>
      <path d="M3.8 0.0 L18.4 0.75 16.9 24.1 5.55 23.6 3.8 0.0 M14.75 27.05 Q15.95 27.45 16.8 28.25 L17.05 28.5 Q18.9 30.5 18.75 33.1 18.6 35.3 17.1 37.0 L16.8 37.35 16.55 37.55 15.0 38.6 Q13.25 39.35 10.7 39.2 6.85 38.95 5.25 37.2 3.65 35.4 3.75 32.8 L3.8 32.05 Q4.0 30.25 4.95 28.85 L5.3 28.35 Q5.75 27.8 6.45 27.4 8.05 26.5 11.0 26.5 L13.3 26.7 14.75 27.05" fill="url(#gradient0)" fill-rule="evenodd" stroke="none"/>
      <path d="M5.55 23.6 L16.9 24.1 14.75 27.05 13.3 26.7 11.0 26.5 Q8.05 26.5 6.45 27.4 5.75 27.8 5.3 28.35 L4.95 28.85 1.8 28.7 5.55 23.6" fill="#790000" fill-rule="evenodd" stroke="none"/>
      <path d="M16.8 37.35 L14.0 41.3 13.7 41.7 12.8 42.65 Q10.8 44.5 6.95 44.3 3.1 44.05 1.5 42.3 -0.1 40.5 0.0 37.9 0.05 35.6 1.25 33.9 L1.55 33.45 4.95 28.85 Q4.0 30.25 3.8 32.05 L3.75 32.8 Q3.65 35.4 5.25 37.2 6.85 38.95 10.7 39.2 13.25 39.35 15.0 38.6 L16.55 37.55 16.8 37.35" fill="url(#gradient1)" fill-rule="evenodd" stroke="none"/>
      <path d="M3.8 0.0 L5.55 23.6 16.9 24.1 M1.8 28.7 L5.55 23.6" ffdec:has-small-stroke="true" ffdec:original-stroke-width="1.0" fill="none" stroke="url(#gradient2)" stroke-linecap="round" stroke-linejoin="round" stroke-width="1.375248810782885"/>
      <path d="M16.8 37.35 L16.55 37.55 15.0 38.6 Q13.25 39.35 10.7 39.2 6.85 38.95 5.25 37.2 3.65 35.4 3.75 32.8 L3.8 32.05 Q4.0 30.25 4.95 28.85" ffdec:has-small-stroke="true" ffdec:original-stroke-width="1.0" fill="none" stroke="url(#gradient3)" stroke-linecap="round" stroke-linejoin="round" stroke-width="1.375248810782885"/>
    </g>
    <linearGradient gradientTransform="matrix(0.0, 0.0244, -0.0089, 0.0, 10.55, 19.25)" gradientUnits="userSpaceOnUse" id="gradient0" spreadMethod="pad" x1="-819.2" x2="819.2">
      <stop offset="0.0" stop-color="#ff452e"/>
      <stop offset="1.0" stop-color="#e00a0a"/>
    </linearGradient>
    <linearGradient gradientTransform="matrix(0.0071, 0.0054, -0.0057, 0.0075, 8.7, 35.3)" gradientUnits="userSpaceOnUse" id="gradient1" spreadMethod="pad" x1="-819.2" x2="819.2">
      <stop offset="0.1803921568627451" stop-color="#aa0000"/>
      <stop offset="0.5019607843137255" stop-color="#790000"/>
      <stop offset="0.803921568627451" stop-color="#790000"/>
      <stop offset="0.9882352941176471" stop-color="#930000"/>
    </linearGradient>
    <radialGradient cx="0" cy="0" gradientTransform="matrix(0.0189, 0.0, 0.0, 0.01, 8.75, 20.5)" gradientUnits="userSpaceOnUse" id="gradient2" r="819.2" spreadMethod="pad">
      <stop offset="0.12941176470588237" stop-color="#ffe48e" stop-opacity="0.4"/>
      <stop offset="1.0" stop-color="#ffe983" stop-opacity="0.0"/>
    </radialGradient>
    <radialGradient cx="0" cy="0" gradientTransform="matrix(0.011, 0.0, 0.0, 0.0081, 8.75, 37.0)" gradientUnits="userSpaceOnUse" id="gradient3" r="819.2" spreadMethod="pad">
      <stop offset="0.12941176470588237" stop-color="#ffe48e" stop-opacity="0.4"/>
      <stop offset="1.0" stop-color="#ffe983" stop-opacity="0.0"/>
    </radialGradient>
    <g id="sprite1" transform="matrix(1.0, 0.0, 0.0, 1.0, 0.0, 0.0)">
      <use ffdec:characterId="488" height="44.3" transform="matrix(1.0, 0.0, 0.0, 1.0, 0.0, 0.0)" width="30.5" xlink:href="#shape1"/>
    </g>
    <g id="shape1" transform="matrix(1.0, 0.0, 0.0, 1.0, 0.0, 0.0)">
      <path d="M27.65 24.8 L24.6 28.95 17.7 28.85 17.8 25.1 27.65 24.8 M30.0 39.2 L26.25 44.3 Q13.35 43.2 0.85 43.7 L4.6 38.6 Q15.25 38.15 26.15 38.9 L30.0 39.2 M29.45 11.05 L26.55 15.0 17.85 15.05 17.7 11.05 29.45 11.05" fill="#790000" fill-rule="evenodd" stroke="none"/>
      <path d="M26.55 15.0 L27.65 15.0 Q27.15 19.9 27.65 24.8 L17.8 25.1 17.7 28.85 24.6 28.95 29.8 29.0 30.0 39.2 26.15 38.9 Q15.25 38.15 4.6 38.6 L4.55 26.65 4.5 24.2 4.0 6.3 3.75 1.25 29.65 0.0 29.45 11.05 17.7 11.05 17.85 15.05 26.55 15.0" fill="url(#gradient4)" fill-rule="evenodd" stroke="none"/>
      <path d="M0.85 43.7 L0.75 29.3 0.7 26.7 0.0 6.35 3.75 1.25 4.0 6.3 4.5 24.2 4.55 26.65 4.6 38.6 0.85 43.7" fill="#ab0404" fill-rule="evenodd" stroke="none"/>
      <path d="M3.75 1.25 L4.0 6.3 4.5 24.2 4.55 26.65 4.6 38.6 Q15.25 38.15 26.15 38.9 L30.0 39.2 M0.85 43.7 L4.6 38.6" ffdec:has-small-stroke="true" ffdec:original-stroke-width="1.0" fill="none" stroke="url(#gradient5)" stroke-linecap="round" stroke-linejoin="round" stroke-width="1.3750121075640498"/>
    </g>
    <linearGradient gradientTransform="matrix(0.0, 0.0231, -0.024, 0.0, -19.95, 20.0)" gradientUnits="userSpaceOnUse" id="gradient4" spreadMethod="pad" x1="-819.2" x2="819.2">
      <stop offset="0.0" stop-color="#ff452e"/>
      <stop offset="1.0" stop-color="#e00a0a"/>
    </linearGradient>
    <radialGradient cx="0" cy="0" gradientTransform="matrix(0.0226, 0.0, 0.0, 0.0095, 10.0, 35.5)" gradientUnits="userSpaceOnUse" id="gradient5" r="819.2" spreadMethod="pad">
      <stop offset="0.12941176470588237" stop-color="#ffe48e" stop-opacity="0.4"/>
      <stop offset="1.0" stop-color="#ffe983" stop-opacity="0.0"/>
    </radialGradient>
    <g id="sprite2" transform="matrix(1.0, 0.0, 0.0, 1.0, 0.0, 0.0)">
      <use ffdec:characterId="532" height="43.35" transform="matrix(1.0, 0.0, 0.0, 1.0, 0.0, 0.0)" width="36.05" xlink:href="#shape2"/>
    </g>
    <g id="shape2" transform="matrix(1.0, 0.0, 0.0, 1.0, 0.0, 0.0)">
      <path d="M3.75 1.75 L9.95 0.65 16.0 0.05 Q25.8 -0.3 30.9 3.6 33.25 5.35 34.55 8.1 36.0 11.2 36.05 15.4 L36.0 16.95 Q35.75 20.1 34.4 22.25 L34.05 22.85 33.25 23.9 31.5 25.65 31.2 25.85 26.95 28.2 Q24.25 29.5 17.05 30.25 L17.5 34.8 17.8 38.25 4.55 37.65 Q4.7 27.0 4.4 16.65 L4.0 6.05 3.75 1.75 M20.35 20.95 L22.15 19.75 Q23.35 18.8 23.9 16.85 L24.05 16.05 Q24.45 13.4 23.1 12.1 21.75 10.8 19.25 10.8 L16.7 11.3 16.9 16.05 17.1 21.85 19.55 21.25 20.35 20.95" fill="url(#gradient6)" fill-rule="evenodd" stroke="none"/>
      <path d="M16.9 16.05 L16.7 11.3 19.25 10.8 Q21.75 10.8 23.1 12.1 24.45 13.4 24.05 16.05 L23.9 16.85 Q23.35 18.8 22.15 19.75 L20.35 20.95 Q20.65 18.45 19.35 17.2 L18.85 16.8 Q18.0 16.2 16.9 16.05" fill="url(#gradient7)" fill-rule="evenodd" stroke="none"/>
      <path d="M3.75 1.75 L4.0 6.05 4.4 16.65 Q4.7 27.0 4.55 37.65 L0.8 42.75 Q1.0 29.45 0.5 16.6 L0.0 6.85 3.75 1.75" fill="#ab0404" fill-rule="evenodd" stroke="none"/>
      <path d="M4.55 37.65 L17.8 38.25 14.05 43.35 0.8 42.75 4.55 37.65 M17.5 34.8 L17.05 30.25 Q24.25 29.5 26.95 28.2 L31.2 25.85 31.5 25.65 33.25 23.9 28.8 29.75 27.45 30.95 23.2 33.3 Q21.35 34.2 17.5 34.8" fill="#790000" fill-rule="evenodd" stroke="none"/>
      <path d="M3.75 1.75 L4.0 6.05 4.4 16.65 Q4.7 27.0 4.55 37.65 L17.8 38.25 M0.8 42.75 L4.55 37.65" ffdec:has-small-stroke="true" ffdec:original-stroke-width="1.0" fill="none" stroke="url(#gradient8)" stroke-linecap="round" stroke-linejoin="round" stroke-width="1.3750121075640498"/>
    </g>
    <linearGradient gradientTransform="matrix(0.0, 0.022, -0.0238, 0.0, 388.1, 19.4)" gradientUnits="userSpaceOnUse" id="gradient6" spreadMethod="pad" x1="-819.2" x2="819.2">
      <stop offset="0.0" stop-color="#ff452e"/>
      <stop offset="1.0" stop-color="#e00a0a"/>
    </linearGradient>
    <linearGradient gradientTransform="matrix(0.0059, 0.0044, -0.0037, 0.0049, 17.8, 13.1)" gradientUnits="userSpaceOnUse" id="gradient7" spreadMethod="pad" x1="-819.2" x2="819.2">
      <stop offset="0.1803921568627451" stop-color="#aa0000"/>
      <stop offset="0.5019607843137255" stop-color="#790000"/>
      <stop offset="0.803921568627451" stop-color="#790000"/>
      <stop offset="0.9882352941176471" stop-color="#930000"/>
    </linearGradient>
    <radialGradient cx="0" cy="0" gradientTransform="matrix(0.0162, 0.0, 0.0, 0.0095, 8.0, 35.0)" gradientUnits="userSpaceOnUse" id="gradient8" r="819.2" spreadMethod="pad">
      <stop offset="0.12941176470588237" stop-color="#ffe48e" stop-opacity="0.4"/>
      <stop offset="1.0" stop-color="#ffe983" stop-opacity="0.0"/>
    </radialGradient>
    <g id="sprite3" transform="matrix(1.0, 0.0, 0.0, 1.0, 0.5, 0.5)">
      <use ffdec:characterId="534" height="45.8" transform="matrix(1.0, 0.0, 0.0, 1.0, -0.5, -0.5)" width="39.95" xlink:href="#shape3"/>
    </g>
    <g id="shape3" transform="matrix(1.0, 0.0, 0.0, 1.0, 0.5, 0.5)">
      <path d="M22.6 23.15 L20.85 11.1 19.15 23.5 22.6 23.15 M3.75 37.35 L5.6 29.45 Q8.3 17.25 10.4 5.25 L11.3 0.0 Q19.4 0.5 30.6 0.55 L38.95 38.85 24.65 39.7 23.75 30.8 18.2 31.25 17.25 36.15 16.8 38.35 3.75 37.35" fill="url(#gradient9)" fill-rule="evenodd" stroke="none"/>
      <path d="M22.6 23.15 L19.15 23.5 20.85 11.1 22.6 23.15 M3.75 37.35 L16.8 38.35 13.05 43.45 0.0 42.45 3.75 37.35 M17.25 36.15 L18.2 31.25 23.75 30.8 20.0 35.9 17.25 36.15 M24.65 39.7 L38.95 38.85 35.2 43.95 20.9 44.8 24.65 39.7" fill="#790000" fill-rule="evenodd" stroke="none"/>
      <path d="M11.3 0.0 L10.4 5.25 Q8.3 17.25 5.6 29.45 L3.75 37.35 0.0 42.45 2.95 29.5 Q5.55 17.2 7.55 5.1 L11.3 0.0" fill="#ab0404" fill-rule="evenodd" stroke="none"/>
      <path d="M23.75 30.8 L24.65 39.7 20.9 44.8 20.0 35.9 23.75 30.8" fill="#9a0000" fill-rule="evenodd" stroke="none"/>
      <path d="M11.3 0.0 L10.4 5.25 Q8.3 17.25 5.6 29.45 L3.75 37.35 16.8 38.35 M0.0 42.45 L3.75 37.35" ffdec:has-small-stroke="true" ffdec:original-stroke-width="1.0" fill="none" stroke="url(#gradient10)" stroke-linecap="round" stroke-linejoin="round" stroke-width="1.3750121075640498"/>
      <path d="M18.2 31.25 L23.75 30.8 24.65 39.7 38.95 38.85 M20.9 44.8 L24.65 39.7" ffdec:has-small-stroke="true" ffdec:original-stroke-width="1.0" fill="none" stroke="url(#gradient11)" stroke-linecap="round" stroke-linejoin="round" stroke-width="1.3750121075640498"/>
    </g>
    <linearGradient gradientTransform="matrix(0.0, 0.0231, -0.024, 0.0, 142.65, 19.8)" gradientUnits="userSpaceOnUse" id="gradient9" spreadMethod="pad" x1="-819.2" x2="819.2">
      <stop offset="0.0" stop-color="#ff452e"/>
      <stop offset="1.0" stop-color="#e00a0a"/>
    </linearGradient>
    <radialGradient cx="0" cy="0" gradientTransform="matrix(0.0153, 0.0, 0.0, 0.0096, 8.25, 35.0)" gradientUnits="userSpaceOnUse" id="gradient10" r="819.2" spreadMethod="pad">
      <stop offset="0.12941176470588237" stop-color="#ffe48e" stop-opacity="0.4"/>
      <stop offset="1.0" stop-color="#ffe983" stop-opacity="0.0"/>
    </radialGradient>
    <radialGradient cx="0" cy="0" gradientTransform="matrix(0.0192, 0.0, 0.0, 0.0093, 26.75, 36.5)" gradientUnits="userSpaceOnUse" id="gradient11" r="819.2" spreadMethod="pad">
      <stop offset="0.12941176470588237" stop-color="#ffe48e" stop-opacity="0.4"/>
      <stop offset="1.0" stop-color="#ffe983" stop-opacity="0.0"/>
    </radialGradient>
    <g id="sprite4" transform="matrix(1.0, 0.0, 0.0, 1.0, 0.0, 0.0)">
      <use ffdec:characterId="920" height="45.15" transform="matrix(1.0, 0.0, 0.0, 1.0, 0.0, 0.0)" width="37.85" xlink:href="#shape4"/>
    </g>
    <g id="shape4" transform="matrix(1.0, 0.0, 0.0, 1.0, 0.0, 0.0)">
      <path d="M37.35 14.65 L23.8 16.6 Q23.3 11.05 21.05 11.05 19.25 11.0 18.75 16.9 L18.55 20.45 Q18.4 27.8 20.2 29.55 20.7 30.0 21.35 30.05 22.2 29.9 22.8 28.95 23.75 27.35 24.0 23.6 L37.85 24.95 Q37.55 31.05 34.9 34.7 L34.7 34.95 34.6 35.1 32.7 37.0 Q28.35 40.45 20.3 40.0 3.65 39.95 3.75 19.65 4.0 13.3 6.0 9.0 L6.9 7.3 7.35 6.6 Q11.55 0.5 20.5 0.0 36.65 0.9 37.35 14.65" fill="url(#gradient12)" fill-rule="evenodd" stroke="none"/>
      <path d="M23.8 16.6 L20.05 21.7 Q19.75 18.2 18.75 16.9 19.25 11.0 21.05 11.05 23.3 11.05 23.8 16.6" fill="url(#gradient13)" fill-rule="evenodd" stroke="none"/>
      <path d="M37.35 14.65 L33.6 19.75 20.05 21.7 23.8 16.6 37.35 14.65" fill="#790000" fill-rule="evenodd" stroke="none"/>
      <path d="M34.6 35.1 L31.65 39.05 31.3 39.65 Q27.05 45.65 16.55 45.1 -0.1 45.05 0.0 24.75 0.3 16.3 3.75 11.5 L4.45 10.55 6.9 7.3 6.0 9.0 Q4.0 13.3 3.75 19.65 3.65 39.95 20.3 40.0 28.35 40.45 32.7 37.0 L34.6 35.1" fill="url(#gradient14)" fill-rule="evenodd" stroke="none"/>
      <path d="M20.2 29.55 L20.25 28.7 24.0 23.6 Q23.75 27.35 22.8 28.95 22.2 29.9 21.35 30.05 20.7 30.0 20.2 29.55" fill="url(#gradient15)" fill-rule="evenodd" stroke="none"/>
      <path d="M6.9 7.3 L6.0 9.0 Q4.0 13.3 3.75 19.65 3.65 39.95 20.3 40.0 28.35 40.45 32.7 37.0 L34.6 35.1" ffdec:has-small-stroke="true" ffdec:original-stroke-width="1.0" fill="none" stroke="url(#gradient16)" stroke-linecap="round" stroke-linejoin="round" stroke-width="1.3750121075640498"/>
    </g>
    <linearGradient gradientTransform="matrix(0.0, 0.0239, -0.0244, 0.0, 20.8, 20.0)" gradientUnits="userSpaceOnUse" id="gradient12" spreadMethod="pad" x1="-819.2" x2="819.2">
      <stop offset="0.0" stop-color="#ff452e"/>
      <stop offset="1.0" stop-color="#e00a0a"/>
    </linearGradient>
    <linearGradient gradientTransform="matrix(0.004, 0.0029, -0.0038, 0.0052, 20.2, 12.75)" gradientUnits="userSpaceOnUse" id="gradient13" spreadMethod="pad" x1="-819.2" x2="819.2">
      <stop offset="0.1803921568627451" stop-color="#aa0000"/>
      <stop offset="0.5019607843137255" stop-color="#790000"/>
      <stop offset="0.803921568627451" stop-color="#790000"/>
      <stop offset="0.9882352941176471" stop-color="#930000"/>
    </linearGradient>
    <linearGradient gradientTransform="matrix(0.0184, 0.0125, -0.0129, 0.0191, 19.65, 27.25)" gradientUnits="userSpaceOnUse" id="gradient14" spreadMethod="pad" x1="-819.2" x2="819.2">
      <stop offset="0.1803921568627451" stop-color="#aa0000"/>
      <stop offset="0.5019607843137255" stop-color="#790000"/>
      <stop offset="0.803921568627451" stop-color="#790000"/>
      <stop offset="0.9882352941176471" stop-color="#930000"/>
    </linearGradient>
    <linearGradient gradientTransform="matrix(0.0054, 0.0038, -0.0023, 0.0032, 25.7, 29.55)" gradientUnits="userSpaceOnUse" id="gradient15" spreadMethod="pad" x1="-819.2" x2="819.2">
      <stop offset="0.1803921568627451" stop-color="#aa0000"/>
      <stop offset="0.5019607843137255" stop-color="#790000"/>
      <stop offset="0.803921568627451" stop-color="#790000"/>
      <stop offset="0.9882352941176471" stop-color="#930000"/>
    </linearGradient>
    <radialGradient cx="0" cy="0" gradientTransform="matrix(0.0241, 0.0, 0.0, 0.0111, 19.25, 35.75)" gradientUnits="userSpaceOnUse" id="gradient16" r="819.2" spreadMethod="pad">
      <stop offset="0.1568627450980392" stop-color="#ffe48e" stop-opacity="0.4"/>
      <stop offset="1.0" stop-color="#ffe983" stop-opacity="0.0"/>
    </radialGradient>
    <g id="sprite5" transform="matrix(1.0, 0.0, 0.0, 1.0, 0.0, 0.0)">
      <use ffdec:characterId="501" height="45.05" transform="matrix(1.0, 0.0, 0.0, 1.0, 0.0, 0.0)" width="37.05" xlink:href="#shape5"/>
    </g>
    <g id="shape5" transform="matrix(1.0, 0.0, 0.0, 1.0, 0.0, 0.0)">
      <path d="M23.4 13.05 L21.55 15.6 Q18.3 14.45 18.25 12.15 18.15 9.25 20.75 9.1 23.4 9.25 23.4 13.05" fill="url(#gradient17)" fill-rule="evenodd" stroke="none"/>
      <path d="M29.3 17.75 Q26.55 16.7 23.35 16.05 L21.55 15.6 23.4 13.05 36.65 12.5 32.9 17.6 29.3 17.75" fill="#790000" fill-rule="evenodd" stroke="none"/>
      <path d="M21.55 15.6 L23.35 16.05 Q26.55 16.7 29.3 17.75 L31.55 18.7 32.2 19.0 Q37.4 22.0 37.05 28.25 36.85 31.55 35.2 34.05 L34.65 34.8 32.65 36.75 32.35 36.95 Q27.2 40.15 20.2 39.95 12.05 39.85 7.7 35.95 5.4 33.9 4.45 31.2 3.6 28.8 3.8 25.9 L4.7 25.95 17.45 26.55 Q17.1 30.7 20.65 30.4 22.85 29.4 22.65 27.2 22.4 25.0 14.8 23.45 8.55 22.15 6.2 18.45 L5.35 16.7 Q3.85 11.45 4.95 7.85 L5.75 6.0 6.0 5.55 7.6 3.65 Q12.35 -0.7 19.25 0.1 27.65 -0.55 32.35 3.3 36.05 7.05 36.65 12.5 L23.4 13.05 Q23.4 9.25 20.75 9.1 18.15 9.25 18.25 12.15 18.3 14.45 21.55 15.6" fill="url(#gradient18)" fill-rule="evenodd" stroke="none"/>
      <path d="M4.7 25.95 Q2.5 24.3 1.6 21.8 1.1 20.0 0.9 18.4 0.35 14.1 1.95 11.2 L2.1 10.9 3.2 9.45 5.75 6.0 4.95 7.85 Q3.85 11.45 5.35 16.7 L6.2 18.45 Q8.55 22.15 14.8 23.45 22.4 25.0 22.65 27.2 22.85 29.4 20.65 30.4 17.1 30.7 17.45 26.55 L4.7 25.95" fill="url(#gradient19)" fill-rule="evenodd" stroke="none"/>
      <path d="M34.65 34.8 L31.15 39.55 28.6 42.05 Q23.45 45.25 16.45 45.05 8.3 44.95 3.95 41.05 -0.4 37.15 0.05 31.0 L3.8 25.9 Q3.6 28.8 4.45 31.2 5.4 33.9 7.7 35.95 12.05 39.85 20.2 39.95 27.2 40.15 32.35 36.95 L32.65 36.75 34.65 34.8" fill="url(#gradient20)" fill-rule="evenodd" stroke="none"/>
      <path d="M34.65 34.8 L32.65 36.75 32.35 36.95 Q27.2 40.15 20.2 39.95 12.05 39.85 7.7 35.95 5.4 33.9 4.45 31.2 3.6 28.8 3.8 25.9" ffdec:has-small-stroke="true" ffdec:original-stroke-width="1.0" fill="none" stroke="url(#gradient21)" stroke-linecap="round" stroke-linejoin="round" stroke-width="1.3750121075640498"/>
    </g>
    <linearGradient gradientTransform="matrix(0.0047, 0.0038, -0.0025, 0.0031, 18.65, 10.3)" gradientUnits="userSpaceOnUse" id="gradient17" spreadMethod="pad" x1="-819.2" x2="819.2">
      <stop offset="0.1803921568627451" stop-color="#aa0000"/>
      <stop offset="0.5019607843137255" stop-color="#790000"/>
      <stop offset="0.803921568627451" stop-color="#790000"/>
      <stop offset="0.9882352941176471" stop-color="#930000"/>
    </linearGradient>
    <linearGradient gradientTransform="matrix(0.0, 0.022, -0.0238, 0.0, 268.35, 20.0)" gradientUnits="userSpaceOnUse" id="gradient18" spreadMethod="pad" x1="-819.2" x2="819.2">
      <stop offset="0.0" stop-color="#ff452e"/>
      <stop offset="1.0" stop-color="#e00a0a"/>
    </linearGradient>
    <linearGradient gradientTransform="matrix(0.016, 0.013, -0.0094, 0.0115, 16.15, 21.0)" gradientUnits="userSpaceOnUse" id="gradient19" spreadMethod="pad" x1="-819.2" x2="819.2">
      <stop offset="0.1803921568627451" stop-color="#aa0000"/>
      <stop offset="0.5019607843137255" stop-color="#790000"/>
      <stop offset="0.803921568627451" stop-color="#790000"/>
      <stop offset="0.9882352941176471" stop-color="#930000"/>
    </linearGradient>
    <linearGradient gradientTransform="matrix(0.0166, 0.0135, -0.0093, 0.0115, 16.8, 35.95)" gradientUnits="userSpaceOnUse" id="gradient20" spreadMethod="pad" x1="-819.2" x2="819.2">
      <stop offset="0.1803921568627451" stop-color="#aa0000"/>
      <stop offset="0.5019607843137255" stop-color="#790000"/>
      <stop offset="0.803921568627451" stop-color="#790000"/>
      <stop offset="0.9882352941176471" stop-color="#930000"/>
    </linearGradient>
    <radialGradient cx="0" cy="0" gradientTransform="matrix(0.0238, 0.0, 0.0, 0.0102, 18.25, 36.5)" gradientUnits="userSpaceOnUse" id="gradient21" r="819.2" spreadMethod="pad">
      <stop offset="0.12941176470588237" stop-color="#ffe48e" stop-opacity="0.4"/>
      <stop offset="1.0" stop-color="#ffe983" stop-opacity="0.0"/>
    </radialGradient>
    <g id="sprite6" transform="matrix(1.0, 0.0, 0.0, 1.0, 0.5, 0.0)">
      <use ffdec:characterId="494" height="44.7" transform="matrix(1.0, 0.0, 0.0, 1.0, -0.5, 0.0)" width="37.5" xlink:href="#shape6"/>
    </g>
    <g id="shape6" transform="matrix(1.0, 0.0, 0.0, 1.0, 0.5, 0.0)">
      <path d="M23.9 0.0 L37.0 0.35 36.45 16.4 Q36.15 27.5 36.2 37.95 L24.5 39.1 Q20.85 31.35 16.25 25.05 L16.25 35.8 16.25 37.75 3.75 37.0 4.05 16.1 3.9 7.2 3.75 2.35 15.95 1.6 Q17.85 6.2 20.0 10.3 L23.4 16.15 23.9 0.0" fill="url(#gradient22)" fill-rule="evenodd" stroke="none"/>
      <path d="M23.9 0.0 L23.4 16.15 20.0 10.3 20.15 5.1 23.9 0.0 M3.75 2.35 L3.9 7.2 4.05 16.1 3.75 37.0 0.0 42.1 Q0.4 28.45 0.2 16.05 L0.0 7.45 3.75 2.35" fill="#ab0404" fill-rule="evenodd" stroke="none"/>
      <path d="M16.25 35.8 L16.25 25.05 Q20.85 31.35 24.5 39.1 L20.75 44.2 Q18.65 39.75 16.25 35.8" fill="#9a0000" fill-rule="evenodd" stroke="none"/>
      <path d="M3.75 37.0 L16.25 37.75 12.5 42.85 0.0 42.1 3.75 37.0 M24.5 39.1 L36.2 37.95 32.45 43.05 20.75 44.2 24.5 39.1" fill="#790000" fill-rule="evenodd" stroke="none"/>
      <path d="M16.25 25.05 Q20.85 31.35 24.5 39.1 L36.2 37.95 M20.75 44.2 L24.5 39.1" ffdec:has-small-stroke="true" ffdec:original-stroke-width="1.0" fill="none" stroke="url(#gradient23)" stroke-linecap="round" stroke-linejoin="round" stroke-width="1.3750121075640498"/>
      <path d="M3.75 2.35 L3.9 7.2 4.05 16.1 3.75 37.0 16.25 37.75 M0.0 42.1 L3.75 37.0" ffdec:has-small-stroke="true" ffdec:original-stroke-width="1.0" fill="none" stroke="url(#gradient24)" stroke-linecap="round" stroke-linejoin="round" stroke-width="1.3750121075640498"/>
    </g>
    <linearGradient gradientTransform="matrix(0.0, 0.022, -0.0238, 0.0, 469.9, 19.65)" gradientUnits="userSpaceOnUse" id="gradient22" spreadMethod="pad" x1="-819.2" x2="819.2">
      <stop offset="0.0" stop-color="#ff452e"/>
      <stop offset="1.0" stop-color="#e00a0a"/>
    </linearGradient>
    <radialGradient cx="0" cy="0" gradientTransform="matrix(0.0156, 0.0, 0.0, 0.0099, 26.0, 36.0)" gradientUnits="userSpaceOnUse" id="gradient23" r="819.2" spreadMethod="pad">
      <stop offset="0.12941176470588237" stop-color="#ffe48e" stop-opacity="0.4"/>
      <stop offset="1.0" stop-color="#ffe983" stop-opacity="0.0"/>
    </radialGradient>
    <radialGradient cx="0" cy="0" gradientTransform="matrix(0.0171, 0.0, 0.0, 0.0093, 7.25, 34.25)" gradientUnits="userSpaceOnUse" id="gradient24" r="819.2" spreadMethod="pad">
      <stop offset="0.12941176470588237" stop-color="#ffe48e" stop-opacity="0.4"/>
      <stop offset="1.0" stop-color="#ffe983" stop-opacity="0.0"/>
    </radialGradient>
    <g id="sprite7" transform="matrix(1.0, 0.0, 0.0, 1.0, 0.5, 0.0)">
      <use ffdec:characterId="496" height="43.95" transform="matrix(1.0, 0.0, 0.0, 1.0, -0.5, 0.0)" width="17.75" xlink:href="#shape7"/>
    </g>
    <g id="shape7" transform="matrix(1.0, 0.0, 0.0, 1.0, 0.5, 0.0)">
      <path d="M3.75 38.35 L4.0 23.4 3.9 5.55 3.75 0.65 16.4 0.0 Q16.2 11.25 16.4 23.15 L16.75 38.45 3.75 38.35" fill="url(#gradient25)" fill-rule="evenodd" stroke="none"/>
      <path d="M3.75 0.65 L3.9 5.55 4.0 23.4 3.75 38.35 0.0 43.45 0.25 23.45 0.0 5.75 3.75 0.65" fill="#ab0404" fill-rule="evenodd" stroke="none"/>
      <path d="M3.75 38.35 L16.75 38.45 13.0 43.55 0.0 43.45 3.75 38.35" fill="#790000" fill-rule="evenodd" stroke="none"/>
      <path d="M3.75 0.65 L3.9 5.55 4.0 23.4 3.75 38.35 16.75 38.45 M0.0 43.45 L3.75 38.35" ffdec:has-small-stroke="true" ffdec:original-stroke-width="1.0" fill="none" stroke="url(#gradient26)" stroke-linecap="round" stroke-linejoin="round" stroke-width="1.3750121075640498"/>
    </g>
    <linearGradient gradientTransform="matrix(0.0, 0.0231, -0.024, 0.0, -169.45, 19.55)" gradientUnits="userSpaceOnUse" id="gradient25" spreadMethod="pad" x1="-819.2" x2="819.2">
      <stop offset="0.0" stop-color="#ff452e"/>
      <stop offset="1.0" stop-color="#e00a0a"/>
    </linearGradient>
    <radialGradient cx="0" cy="0" gradientTransform="matrix(0.0134, 0.0, 0.0, 0.0091, 7.5, 35.25)" gradientUnits="userSpaceOnUse" id="gradient26" r="819.2" spreadMethod="pad">
      <stop offset="0.12941176470588237" stop-color="#ffe48e" stop-opacity="0.4"/>
      <stop offset="1.0" stop-color="#ffe983" stop-opacity="0.0"/>
    </radialGradient>
    <g id="sprite8" transform="matrix(1.0, 0.0, 0.0, 1.0, 0.0, 0.0)">
      <use ffdec:characterId="503" height="45.15" transform="matrix(1.0, 0.0, 0.0, 1.0, 0.0, 0.0)" width="35.6" xlink:href="#shape8"/>
    </g>
    <g id="shape8" transform="matrix(1.0, 0.0, 0.0, 1.0, 0.0, 0.0)">
      <path d="M3.75 1.6 Q12.55 -0.35 21.7 0.05 32.25 1.25 33.35 9.3 33.75 13.85 31.95 16.7 L31.35 17.55 30.0 19.4 Q35.85 21.6 35.6 28.6 L35.4 30.5 Q35.1 32.6 34.1 34.2 L33.3 35.3 31.35 37.0 Q27.35 39.75 19.4 40.05 L4.65 39.2 4.8 29.2 Q4.85 17.15 4.1 5.95 L3.75 1.6 M18.65 31.4 Q21.7 31.15 22.45 28.85 L22.65 27.5 Q22.35 24.15 18.2 24.0 L17.2 24.0 17.25 29.8 17.25 31.4 18.65 31.4 M17.1 14.75 L17.1 15.9 17.5 15.95 18.1 15.95 Q21.95 15.85 22.05 12.25 22.05 8.6 17.05 8.95 L17.1 14.75" fill="url(#gradient27)" fill-rule="evenodd" stroke="none"/>
      <path d="M17.25 29.8 L17.2 24.0 18.2 24.0 Q22.35 24.15 22.65 27.5 L22.45 28.85 Q21.7 31.15 18.65 31.4 18.2 30.35 17.25 29.8 M17.1 14.75 L17.05 8.95 Q22.05 8.6 22.05 12.25 21.95 15.85 18.1 15.95 17.75 15.2 17.1 14.75" fill="#790000" fill-rule="evenodd" stroke="none"/>
      <path d="M3.75 1.6 L4.1 5.95 Q4.85 17.15 4.8 29.2 L4.65 39.2 0.9 44.3 1.05 29.25 Q0.9 17.6 0.0 6.7 L3.75 1.6" fill="#ab0404" fill-rule="evenodd" stroke="none"/>
      <path d="M4.65 39.2 L19.4 40.05 Q27.35 39.75 31.35 37.0 L33.3 35.3 30.3 39.35 Q26.9 44.7 15.65 45.15 L0.9 44.3 4.65 39.2" fill="url(#gradient28)" fill-rule="evenodd" stroke="none"/>
      <path d="M3.75 1.6 L4.1 5.95 Q4.85 17.15 4.8 29.2 L4.65 39.2 19.4 40.05 Q27.35 39.75 31.35 37.0 L33.3 35.3 M0.9 44.3 L4.65 39.2" ffdec:has-small-stroke="true" ffdec:original-stroke-width="1.0" fill="none" stroke="url(#gradient29)" stroke-linecap="round" stroke-linejoin="round" stroke-width="1.3750121075640498"/>
    </g>
    <linearGradient gradientTransform="matrix(0.0, 0.0231, -0.024, 0.0, 100.55, 20.3)" gradientUnits="userSpaceOnUse" id="gradient27" spreadMethod="pad" x1="-819.2" x2="819.2">
      <stop offset="0.0" stop-color="#ff452e"/>
      <stop offset="1.0" stop-color="#e00a0a"/>
    </linearGradient>
    <linearGradient gradientTransform="matrix(0.0158, 0.0118, -0.0036, 0.0048, 10.95, 37.85)" gradientUnits="userSpaceOnUse" id="gradient28" spreadMethod="pad" x1="-819.2" x2="819.2">
      <stop offset="0.1803921568627451" stop-color="#aa0000"/>
      <stop offset="0.5019607843137255" stop-color="#790000"/>
      <stop offset="0.803921568627451" stop-color="#790000"/>
      <stop offset="0.9882352941176471" stop-color="#930000"/>
    </linearGradient>
    <radialGradient cx="0" cy="0" gradientTransform="matrix(0.0256, 0.0, 0.0, 0.0098, 10.25, 36.75)" gradientUnits="userSpaceOnUse" id="gradient29" r="819.2" spreadMethod="pad">
      <stop offset="0.12941176470588237" stop-color="#ffe48e" stop-opacity="0.4"/>
      <stop offset="1.0" stop-color="#ffe983" stop-opacity="0.0"/>
    </radialGradient>
  </defs>
</svg>
