<?xml version="1.0" encoding="UTF-8" standalone="no"?>
<svg xmlns:ffdec="https://www.free-decompiler.com/flash" xmlns:xlink="http://www.w3.org/1999/xlink" ffdec:objectType="frame" height="97.0px" width="93.0px" xmlns="http://www.w3.org/2000/svg">
  <g transform="matrix(1.0, 0.0, 0.0, 1.0, 45.95, 49.75)">
    <use ffdec:characterId="76" height="55.35" transform="matrix(0.9804, 0.0, 0.0, 0.9804, -37.3854, -27.4265)" width="76.8" xlink:href="#sprite0"/>
    <filter id="filter0">
      <feFlood flood-color="#0033cc" flood-opacity="1.0" result="filterResult0"/>
      <feComposite in="filterResult0" in2="SourceGraphic" operator="out" result="filterResult1"/>
      <feConvolveMatrix divisor="4.0" in="filterResult1" kernelMatrix="1 1 1 1" order="2 2" result="filterResult2"/>
      <feComposite in="filterResult2" in2="SourceGraphic" operator="in" result="filterResult3"/>
      <feComposite in="filterResult3" in2="SourceGraphic" operator="over" result="filterResult4"/>
      <feOffset dx="-0.6819880468532366" dy="0.7313633187064468" in="filterResult4" result="filterResult5"/>
      <feColorMatrix in="filterResult5" result="filterResult6" type="matrix" values="0 0 0 0 0.0,0 0 0 0 0.0,0 0 0 0 0.0,0 0 0 1 0"/>
      <feConvolveMatrix divisor="1.0" in="filterResult6" kernelMatrix="1" order="1 1" result="filterResult7"/>
      <feColorMatrix in="filterResult7" result="filterResult8" type="matrix" values="1 0 0 0 0,0 1 0 0 0,0 0 1 0 0,0 0 0 0.296875 0"/>
      <feComposite in="filterResult4" in2="filterResult8" operator="over" result="filterResult9"/>
    </filter>
    <use ffdec:characterId="48" filter="url(#filter0)" height="97.0" id="ring_spr" transform="matrix(1.0, 0.0, 0.0, 1.0, -45.95, -49.75)" width="93.0" xlink:href="#sprite12"/>
  </g>
  <defs>
    <g id="sprite0" transform="matrix(1.0, 0.0, 0.0, 1.0, 3.3, 1.2)">
      <use ffdec:characterId="67" height="55.35" transform="matrix(1.0, 0.0, 0.0, 1.0, -3.3, -1.2)" width="76.8" xlink:href="#shape0"/>
      <use ffdec:characterId="51" height="6.15" transform="matrix(0.9686, 0.0, 0.0, 0.9686, 11.55, 32.9)" width="19.05" xlink:href="#sprite1"/>
      <use ffdec:characterId="51" height="6.15" transform="matrix(-0.6976, 0.4027, -0.4843, -0.8389, 59.1, 32.35)" width="19.05" xlink:href="#sprite1"/>
      <use ffdec:characterId="51" height="6.15" transform="matrix(0.4038, 0.4038, -0.563, 0.563, 3.5, 23.4)" width="19.05" xlink:href="#sprite1"/>
      <use ffdec:characterId="51" height="6.15" transform="matrix(-0.2855, 0.4946, -0.6895, -0.3981, 70.9, 24.9)" width="19.05" xlink:href="#sprite1"/>
      <use ffdec:characterId="51" height="6.15" transform="matrix(0.5516, -0.1478, 0.2061, 0.7691, 33.1, 35.9)" width="19.05" xlink:href="#sprite1"/>
      <use ffdec:characterId="51" height="6.15" transform="matrix(-0.4378, 0.0, 0.0, -0.6104, 59.35, 37.65)" width="19.05" xlink:href="#sprite1"/>
      <use ffdec:characterId="68" height="18.05" transform="matrix(1.0, 0.0, 0.0, 1.0, 0.75, 14.55)" width="68.35" xlink:href="#shape2"/>
      <use ffdec:characterId="70" height="12.15" transform="matrix(0.9686, 0.0, 0.0, 0.9686, 41.65, 18.6)" width="21.85" xlink:href="#sprite2"/>
      <use ffdec:characterId="70" height="12.15" transform="matrix(-0.9686, 0.0, 0.0, 0.9686, 27.35, 18.55)" width="21.85" xlink:href="#sprite2"/>
      <use ffdec:characterId="71" height="34.55" transform="matrix(1.0, 0.0, 0.0, 1.0, 2.85, 0.3)" width="63.4" xlink:href="#shape4"/>
      <use ffdec:characterId="73" height="2.75" transform="matrix(0.962, -0.1137, 0.1137, 0.962, 23.55, 9.45)" width="4.3" xlink:href="#sprite3"/>
      <use ffdec:characterId="73" height="2.75" transform="matrix(0.9213, -0.2992, 0.2992, 0.9213, 15.6, 6.1)" width="4.3" xlink:href="#sprite3"/>
      <use ffdec:characterId="73" height="2.75" transform="matrix(0.962, -0.1137, 0.1137, 0.962, 24.5, 1.85)" width="4.3" xlink:href="#sprite3"/>
      <use ffdec:characterId="73" height="2.75" transform="matrix(0.8197, 0.5162, -0.5162, 0.8197, 51.0, 3.5)" width="4.3" xlink:href="#sprite3"/>
      <use ffdec:characterId="73" height="2.75" transform="matrix(0.9303, -0.27, 0.27, 0.9303, 32.2, 7.05)" width="4.3" xlink:href="#sprite3"/>
      <use ffdec:characterId="73" height="2.75" transform="matrix(0.8968, 0.3661, -0.3661, 0.8968, 38.0, -0.2)" width="4.3" xlink:href="#sprite3"/>
      <use ffdec:characterId="73" height="2.75" transform="matrix(0.962, -0.1137, 0.1137, 0.962, 40.85, 12.5)" width="4.3" xlink:href="#sprite3"/>
      <use ffdec:characterId="73" height="2.75" transform="matrix(0.8216, 0.5131, -0.5131, 0.8216, 42.25, 4.65)" width="4.3" xlink:href="#sprite3"/>
      <use ffdec:characterId="75" height="2.8" transform="matrix(0.9599, -0.1302, 0.1302, 0.9599, 24.569, 1.1381)" width="3.95" xlink:href="#sprite4"/>
      <use ffdec:characterId="75" height="2.8" transform="matrix(0.9509, 0.1847, -0.1847, 0.9509, 41.7152, 4.1778)" width="3.95" xlink:href="#sprite5"/>
      <use ffdec:characterId="75" height="2.8" transform="matrix(0.7319, -0.6345, 0.6345, 0.7319, 32.2133, 7.1073)" width="3.95" xlink:href="#sprite6"/>
      <use ffdec:characterId="75" height="2.8" transform="matrix(0.9634, 0.1009, -0.1009, 0.9634, 37.7376, -0.5092)" width="3.95" xlink:href="#sprite7"/>
      <use ffdec:characterId="75" height="2.8" transform="matrix(0.9609, 0.1221, -0.1221, 0.9609, 23.8445, 8.0373)" width="3.95" xlink:href="#sprite8"/>
      <use ffdec:characterId="75" height="2.8" transform="matrix(0.9176, -0.3102, 0.3102, 0.9176, 15.4234, 5.1868)" width="3.95" xlink:href="#sprite9"/>
      <use ffdec:characterId="75" height="2.8" transform="matrix(0.9599, -0.1302, 0.1302, 0.9599, 40.869, 11.2881)" width="3.95" xlink:href="#sprite10"/>
      <use ffdec:characterId="75" height="2.8" transform="matrix(0.7608, 0.5995, -0.5995, 0.7608, 51.4777, 2.4519)" width="3.95" xlink:href="#sprite11"/>
    </g>
    <g id="shape0" transform="matrix(1.0, 0.0, 0.0, 1.0, 3.3, 1.2)">
      <path d="M65.5 15.9 L62.55 15.2 60.0 14.8 58.55 14.55 56.4 14.55 Q61.15 15.95 65.75 18.8 L68.0 20.3 68.6 20.6 Q69.1 19.85 69.1 19.3 L69.1 18.25 Q69.05 17.0 65.5 15.9 M3.7 15.65 L7.95 14.55 12.25 14.55 Q23.95 10.8 41.1 13.55 48.9 12.35 56.4 14.55 L45.9 14.55 M67.8 21.7 L68.4 20.8 68.6 20.6 Q68.9 20.7 69.1 20.9 L69.9 21.5 Q71.75 23.2 72.0 26.3 71.95 29.0 70.4 29.55 L69.3 29.7 Q69.45 31.0 69.05 32.3 68.65 33.55 67.6 34.75 66.2 36.15 64.7 36.75 L62.15 37.15 61.3 37.1 Q60.1 39.0 58.1 39.95 L56.75 40.35 51.4 40.65 50.15 40.05 49.95 39.85 49.8 40.1 49.5 40.45 Q48.2 41.95 45.15 42.4 42.45 42.7 39.65 41.35 L39.4 41.2 38.95 40.95 38.55 41.25 Q38.45 41.3 38.3 41.4 35.0 43.5 30.75 42.95 27.3 42.3 25.75 41.25 L25.3 40.9 24.95 40.55 24.4 40.8 24.1 40.95 Q21.1 42.0 16.85 41.0 13.35 40.45 11.25 38.6 L10.45 37.75 10.4 37.75 10.4 37.7 10.25 37.65 9.95 37.65 9.35 37.55 8.5 37.4 Q5.9 36.9 4.2 35.75 2.75 34.8 1.95 33.45 L1.85 33.35 Q1.3 32.45 1.05 31.35 L0.0 30.95 -0.4 30.7 Q-1.45 29.85 -1.65 28.1 -1.95 26.75 -1.65 25.8 -1.35 24.75 -0.45 24.1 L-0.8 23.5 Q-1.55 22.15 -0.15 20.75 L0.6 20.05 0.75 19.9 1.25 19.45 0.75 18.6 0.75 18.3 Q0.8 16.95 2.3 16.05 L3.7 15.65 M3.35 18.4 L4.6 18.15 Q8.1 15.9 12.25 14.55 L22.0 14.55 M3.35 18.4 Q2.25 18.65 1.25 19.45 L1.9 21.2 Q2.1 22.35 2.9 23.05 L3.75 23.85" fill="none" stroke="#005f00" stroke-linecap="round" stroke-linejoin="round" stroke-width="3.0"/>
      <path d="M65.75 18.8 L65.75 18.5 65.75 18.25 65.5 15.9 Q64.15 10.15 56.6 5.95 47.45 0.8 34.55 0.8 21.6 0.8 12.45 5.95 5.1 10.05 3.7 15.65 3.35 16.95 3.35 18.25 L3.35 18.4 3.35 18.5 Q3.5 22.2 11.45 24.9 L12.45 25.25 Q21.6 28.1 34.55 28.1 47.45 28.1 56.6 25.25 L57.65 24.9 56.6 24.6 Q47.45 21.7 34.55 21.7 21.6 21.7 12.45 24.6 L11.45 24.9 Q8.85 25.8 7.15 26.8 3.35 28.9 3.35 31.5 L3.35 31.6 Q3.35 32.4 3.75 33.15 5.0 35.65 10.25 37.65 L10.4 37.75 M64.7 36.75 L63.9 40.1 62.65 44.0 62.6 44.05 62.6 44.1 Q61.8 47.3 54.4 49.55 46.2 52.15 34.55 52.15 22.85 52.15 14.65 49.55 7.3 47.3 6.55 44.1 L6.55 44.05 4.9 38.7 4.2 35.75 3.75 33.15 M49.8 40.1 L39.4 41.2 38.55 41.25 34.55 41.3 25.3 40.9 24.4 40.8 Q17.8 40.1 12.45 38.45 L11.7 38.2 10.45 37.75 M50.15 40.05 L56.6 38.45 57.4 38.2 Q64.4 35.8 65.55 32.7 L65.7 32.1 65.75 31.6 65.75 31.5 Q65.75 28.9 61.95 26.8 60.2 25.8 57.65 24.9 65.25 22.3 65.75 18.8 M49.8 40.1 L50.15 40.05 M64.7 36.75 L65.55 32.7" fill="none" stroke="#873b00" stroke-linecap="round" stroke-linejoin="round" stroke-width="4.0"/>
      <path d="M65.55 32.7 Q64.4 35.8 57.4 38.2 L56.6 38.45 Q47.45 41.3 34.55 41.3 21.6 41.3 12.45 38.45 L11.7 38.2 Q5.15 36.0 3.75 33.15 3.35 32.4 3.35 31.6 L3.35 31.5 Q3.35 28.9 7.15 26.8 8.85 25.8 11.45 24.9 L12.45 24.6 Q21.6 21.7 34.55 21.7 47.45 21.7 56.6 24.6 L57.65 24.9 Q60.2 25.8 61.95 26.8 65.75 28.9 65.75 31.5 L65.75 31.6 65.7 32.1 65.55 32.7" fill="#b68526" fill-rule="evenodd" stroke="none"/>
      <path d="M63.9 40.1 Q62.0 41.0 59.95 40.7 58.45 43.05 55.65 43.8 50.95 45.0 49.15 43.3 48.05 45.2 44.6 45.7 41.75 46.05 38.75 44.35 35.35 46.8 31.0 46.25 26.7 45.4 25.5 43.95 22.4 45.5 17.85 44.4 13.7 43.8 11.7 41.3 7.2 40.75 4.9 38.7 4.15 35.85 3.75 33.15 5.15 36.0 11.7 38.2 L12.45 38.45 Q21.6 41.3 34.55 41.3 47.45 41.3 56.6 38.45 L57.4 38.2 Q64.4 35.8 65.55 32.7 L63.9 40.1" fill="url(#gradient0)" fill-rule="evenodd" stroke="none"/>
      <path d="M4.9 38.7 Q7.2 40.75 11.7 41.3 13.7 43.8 17.85 44.4 22.4 45.5 25.5 43.95 26.7 45.4 31.0 46.25 35.35 46.8 38.75 44.35 41.75 46.05 44.6 45.7 48.05 45.2 49.15 43.3 50.95 45.0 55.65 43.8 58.45 43.05 59.95 40.7 62.0 41.0 63.9 40.1 L62.65 44.0 62.6 44.05 62.6 44.1 Q61.8 47.3 54.4 49.55 46.2 52.15 34.55 52.15 22.85 52.15 14.65 49.55 7.3 47.3 6.55 44.1 L6.55 44.05 4.9 38.7" fill="url(#gradient1)" fill-rule="evenodd" stroke="none"/>
      <path d="M63.9 40.1 L65.55 32.7 Q64.4 35.8 57.4 38.2 L56.6 38.45 Q47.45 41.3 34.55 41.3 21.6 41.3 12.45 38.45 L11.7 38.2 Q5.15 36.0 3.75 33.15 4.15 35.85 4.9 38.7 L6.55 44.05 6.55 44.1 Q7.3 47.3 14.65 49.55 22.85 52.15 34.55 52.15 46.2 52.15 54.4 49.55 61.8 47.3 62.6 44.1 L62.6 44.05 62.65 44.0 63.9 40.1 M3.75 33.15 Q3.35 32.4 3.35 31.6 L3.35 31.5 Q3.35 28.9 7.15 26.8 8.85 25.8 11.45 24.9 L12.45 24.6 Q21.6 21.7 34.55 21.7 47.45 21.7 56.6 24.6 L57.65 24.9 Q60.2 25.8 61.95 26.8 65.75 28.9 65.75 31.5 L65.75 31.6 65.7 32.1 65.55 32.7" ffdec:has-small-stroke="true" ffdec:original-stroke-width="1.0" fill="none" stroke="#b15700" stroke-linecap="round" stroke-linejoin="round" stroke-width="1.0199520652410745"/>
      <path d="M67.7 27.45 L67.1 27.45 Q68.35 31.2 65.75 33.25 63.95 34.8 62.5 32.0 59.65 37.1 55.4 37.75 51.15 38.4 49.35 36.05 48.85 39.45 44.65 39.85 39.6 39.65 38.95 36.85 36.55 40.7 31.7 40.3 27.55 40.0 25.85 37.55 L25.55 37.0 26.75 37.4 29.85 37.8 31.75 37.65 Q34.25 37.25 36.25 35.7 L36.75 35.3 38.25 33.45 Q42.5 33.25 43.35 33.45 L44.4 33.7 46.0 34.25 48.6 34.85 48.95 34.8 Q50.25 34.55 52.05 32.45 L52.5 32.0 Q53.5 31.0 54.65 30.45 55.75 30.7 56.75 31.1 58.65 32.0 60.1 33.65 62.15 31.4 61.9 28.4 63.35 27.8 64.55 27.55 L66.8 27.05 66.95 27.0 67.8 26.35 67.95 26.0 67.95 24.7 67.8 24.05 67.8 23.95 Q67.95 23.55 68.4 23.05 69.1 22.15 69.1 21.55 L69.1 20.9 69.9 21.5 Q71.15 24.65 70.15 26.45 69.7 27.45 67.85 27.45 L67.65 27.4 67.7 27.45 M0.75 19.9 L1.45 22.7 0.65 22.8 Q-0.35 21.65 0.6 20.05 L0.75 19.9 M1.85 23.15 Q2.15 23.55 2.1 24.15 L2.6 25.0 2.9 25.25 3.75 26.1 3.75 26.5 3.75 26.55 3.75 27.65 Q3.9 28.4 4.7 28.8 L6.15 29.2 7.25 29.3 8.35 29.3 Q8.2 31.15 9.15 32.4 7.75 34.95 5.25 34.0 1.45 31.95 1.7 26.8 L1.7 26.7 1.85 25.45 Q0.05 28.2 -0.4 26.8 -0.35 24.95 1.4 23.4 L1.85 23.15 M18.95 33.55 L21.4 33.35 22.65 35.0 23.45 35.7 Q24.25 36.35 25.2 36.85 L23.4 38.1 22.95 38.35 Q20.35 39.5 16.95 38.65 11.8 37.6 10.2 34.45 10.9 32.8 11.85 31.8 L12.6 31.0 12.75 31.0 Q14.8 31.2 15.85 32.45 16.85 33.55 18.95 33.55 M33.85 34.65 Q32.5 35.45 29.6 35.5 26.7 35.55 25.3 34.55 L23.4 33.05 Q25.8 32.65 27.1 33.45 28.45 34.3 31.75 34.0 L35.55 33.65 33.85 34.65" fill="#00cc00" fill-rule="evenodd" stroke="none"/>
      <path d="M69.1 20.9 L69.1 21.55 Q69.1 22.15 68.4 23.05 67.95 23.55 67.8 23.95 L67.8 24.05 67.95 24.7 67.95 26.0 67.8 26.35 66.95 27.0 66.8 27.05 64.55 27.55 Q63.35 27.8 61.9 28.4 62.15 31.4 60.1 33.65 58.65 32.0 56.75 31.1 55.75 30.7 54.65 30.45 53.5 31.0 52.5 32.0 L52.05 32.45 Q50.25 34.55 48.95 34.8 L48.6 34.85 46.0 34.25 44.4 33.7 43.35 33.45 Q42.5 33.25 38.25 33.45 L36.75 35.3 36.25 35.7 Q34.25 37.25 31.75 37.65 L29.85 37.8 26.75 37.4 25.55 37.0 25.85 37.55 Q27.55 40.0 31.7 40.3 36.55 40.7 38.95 36.85 39.6 39.65 44.65 39.85 48.85 39.45 49.35 36.05 51.15 38.4 55.4 37.75 59.65 37.1 62.5 32.0 63.95 34.8 65.75 33.25 68.35 31.2 67.1 27.45 L67.7 27.45 Q68.95 29.05 69.05 32.3 68.65 33.55 67.6 34.75 65.1 37.25 62.15 37.15 62.8 35.9 62.45 33.85 61.3 37.1 58.1 39.95 L56.75 40.35 51.4 40.65 Q50.05 39.35 49.65 37.3 49.85 39.15 49.5 40.45 48.2 41.95 45.15 42.4 42.45 42.7 39.65 41.35 38.9 40.0 38.9 37.75 38.8 39.95 38.3 41.4 35.0 43.5 30.75 42.95 27.3 42.3 25.75 41.25 25.15 40.05 25.5 38.45 L24.1 40.95 Q21.1 42.0 16.85 41.0 13.35 40.45 11.25 38.6 10.0 36.7 9.45 34.35 L9.25 33.3 Q8.6 35.35 9.35 37.55 L8.5 37.4 Q3.75 36.45 1.95 33.45 L1.85 33.35 Q1.3 32.45 1.05 31.35 L1.85 33.3 Q0.95 29.95 1.7 26.8 1.45 31.95 5.25 34.0 7.75 34.95 9.15 32.4 8.2 31.15 8.35 29.3 L7.25 29.3 6.15 29.2 4.7 28.8 Q3.9 28.4 3.75 27.65 L3.75 26.55 3.75 26.5 3.75 26.1 2.9 25.25 2.6 25.0 2.1 24.15 Q2.15 23.55 1.85 23.15 L2.55 22.75 1.7 22.7 1.45 22.7 0.75 19.9 Q2.45 18.35 4.6 18.15 17.8 9.75 41.1 13.55 55.25 11.35 68.0 20.3 L69.1 20.9 M67.85 27.45 Q69.7 27.45 70.15 26.45 71.15 24.65 69.9 21.5 71.75 23.2 72.0 26.3 71.95 29.0 70.4 29.55 69.25 27.9 67.85 27.45 M0.6 20.05 Q-0.35 21.65 0.65 22.8 -0.35 22.95 -0.8 23.5 -1.55 22.15 -0.15 20.75 L0.6 20.05 M1.4 23.4 Q-0.35 24.95 -0.4 26.8 0.05 28.2 1.85 25.45 L1.7 26.7 Q-0.25 28.3 0.05 30.9 0.55 31.15 1.05 31.35 L0.0 30.95 -0.4 30.7 Q-1.45 29.85 -1.65 28.1 -1.95 26.75 -1.65 25.8 L1.4 23.4 M18.95 33.55 Q16.85 33.55 15.85 32.45 14.8 31.2 12.75 31.0 L12.6 31.0 11.85 31.8 Q10.9 32.8 10.2 34.45 11.8 37.6 16.95 38.65 20.35 39.5 22.95 38.35 L23.4 38.1 25.2 36.85 Q24.25 36.35 23.45 35.7 L22.65 35.0 21.4 33.35 18.95 33.55 M33.85 34.65 L35.55 33.65 31.75 34.0 Q28.45 34.3 27.1 33.45 25.8 32.65 23.4 33.05 L25.3 34.55 Q26.7 35.55 29.6 35.5 32.5 35.45 33.85 34.65" fill="#00a600" fill-rule="evenodd" stroke="none"/>
      <path d="M67.7 27.45 L67.65 27.4 67.85 27.45 Q69.25 27.9 70.4 29.55 L69.3 29.7 Q69.45 31.0 69.05 32.3 68.95 29.05 67.7 27.45 M1.45 22.7 L1.7 22.7 2.55 22.75 1.85 23.15 1.4 23.4 -1.65 25.8 Q-1.35 24.75 -0.45 24.1 L-0.8 23.5 Q-0.35 22.95 0.65 22.8 L1.45 22.7 M1.7 26.8 Q0.95 29.95 1.85 33.3 L1.05 31.35 Q0.55 31.15 0.05 30.9 -0.25 28.3 1.7 26.7 L1.7 26.8 M9.35 37.55 Q8.6 35.35 9.25 33.3 L9.45 34.35 Q10.0 36.7 11.25 38.6 L10.4 37.7 9.95 37.65 9.35 37.55 M24.1 40.95 L25.5 38.45 Q25.15 40.05 25.75 41.25 L24.95 40.55 24.1 40.95 M38.3 41.4 Q38.8 39.95 38.9 37.75 38.9 40.0 39.65 41.35 L38.95 40.95 38.3 41.4 M49.5 40.45 Q49.85 39.15 49.65 37.3 50.05 39.35 51.4 40.65 50.5 40.4 49.95 39.85 L49.5 40.45 M58.1 39.95 Q61.3 37.1 62.45 33.85 62.8 35.9 62.15 37.15 L61.3 37.1 Q60.1 39.0 58.1 39.95" fill="#007700" fill-rule="evenodd" stroke="none"/>
      <path d="M69.9 21.5 L69.1 20.9 68.0 20.3 Q55.25 11.35 41.1 13.55 17.8 9.75 4.6 18.15 2.45 18.35 0.75 19.9 L0.6 20.05 -0.15 20.75 Q-1.55 22.15 -0.8 23.5 L-0.45 24.1 Q-1.35 24.75 -1.65 25.8 -1.95 26.75 -1.65 28.1 -1.45 29.85 -0.4 30.7 L0.0 30.95 1.05 31.35 Q1.3 32.45 1.85 33.35 L1.95 33.45 Q3.75 36.45 8.5 37.4 L9.35 37.55 9.95 37.65 10.4 37.7 11.25 38.6 Q13.35 40.45 16.85 41.0 21.1 42.0 24.1 40.95 L24.95 40.55 25.75 41.25 Q27.3 42.3 30.75 42.95 35.0 43.5 38.3 41.4 L38.95 40.95 39.65 41.35 Q42.45 42.7 45.15 42.4 48.2 41.95 49.5 40.45 L49.95 39.85 Q50.5 40.4 51.4 40.65 L56.75 40.35 58.1 39.95 Q60.1 39.0 61.3 37.1 L62.15 37.15 Q65.1 37.25 67.6 34.75 68.65 33.55 69.05 32.3 69.45 31.0 69.3 29.7 L70.4 29.55 Q71.95 29.0 72.0 26.3 71.75 23.2 69.9 21.5 Z" ffdec:has-small-stroke="true" ffdec:original-stroke-width="1.0" fill="none" stroke="#007700" stroke-linecap="round" stroke-linejoin="round" stroke-width="1.0199520652410745"/>
    </g>
    <radialGradient cx="0" cy="0" gradientTransform="matrix(0.0353, 0.0, 0.0, 0.018, 33.55, 37.2)" gradientUnits="userSpaceOnUse" id="gradient0" r="819.2" spreadMethod="pad">
      <stop offset="0.5254901960784314" stop-color="#a87f2e"/>
      <stop offset="1.0" stop-color="#956c1c"/>
    </radialGradient>
    <radialGradient cx="0" cy="0" gradientTransform="matrix(0.0353, 0.0, 0.0, 0.018, 33.55, 37.2)" gradientUnits="userSpaceOnUse" id="gradient1" r="819.2" spreadMethod="pad">
      <stop offset="0.5450980392156862" stop-color="#fcb709"/>
      <stop offset="1.0" stop-color="#cb6f00"/>
    </radialGradient>
    <g id="sprite1" transform="matrix(1.0, 0.0, 0.0, 1.0, 0.0, 0.0)">
      <use ffdec:characterId="50" height="6.15" transform="matrix(1.0, 0.0, 0.0, 1.0, 0.0, 0.0)" width="19.05" xlink:href="#shape1"/>
    </g>
    <g id="shape1" transform="matrix(1.0, 0.0, 0.0, 1.0, 0.0, 0.0)">
      <path d="M15.2 2.1 Q15.2 0.15 17.15 0.45 19.05 0.8 19.05 2.2 19.05 3.7 17.35 3.7 15.7 3.7 15.3 3.0 L15.2 2.1 M7.9 5.35 Q7.9 6.15 7.15 6.15 6.4 6.15 6.4 5.35 6.4 4.55 7.15 4.65 7.9 4.7 7.9 5.35 M0.0 1.15 Q0.0 0.35 1.0 0.05 2.0 -0.2 2.0 0.85 L1.75 1.7 Q1.45 2.25 1.05 2.25 0.25 2.25 0.05 1.75 L0.0 1.15" fill="#000000" fill-opacity="0.29803923" fill-rule="evenodd" stroke="none"/>
    </g>
    <g id="shape2" transform="matrix(1.0, 0.0, 0.0, 1.0, -0.75, -14.55)">
      <path d="M45.9 14.55 L58.55 14.55 60.0 14.8 62.55 15.2 Q69.05 16.55 69.1 18.25 L69.1 18.35 69.0 18.8 68.4 19.75 Q67.65 20.6 67.65 21.15 L67.8 21.7 67.8 21.8 67.95 22.45 67.95 22.55 67.95 22.6 67.85 23.0 66.8 23.75 64.55 24.25 64.3 24.3 Q65.7 22.95 65.75 21.4 65.4 15.75 45.9 14.55 M3.75 24.35 L3.75 24.3 3.75 23.85 3.75 22.9 Q4.55 24.55 7.15 26.0 L6.15 25.9 4.7 25.5 Q3.9 25.1 3.75 24.35 M0.75 18.35 L0.75 18.3 Q0.8 16.95 2.3 16.05 L7.95 14.55 22.0 14.55 Q4.8 15.55 3.35 21.4 L3.65 22.65 2.9 21.95 Q2.1 21.3 2.1 20.85 2.15 20.0 1.45 19.4 L0.9 18.65 0.75 18.35 M44.8 30.55 L51.9 29.4 Q49.9 31.55 48.6 31.55 L46.0 30.95 44.8 30.55 M15.85 29.1 L21.05 30.1 18.95 30.25 Q16.85 30.25 15.85 29.15 L15.85 29.1" fill="#006633" fill-rule="evenodd" stroke="none"/>
      <path d="M69.1 18.35 L69.1 19.3 Q69.1 19.95 68.4 20.8 L67.8 21.7 67.65 21.15 Q67.65 20.6 68.4 19.75 L69.0 18.8 69.1 18.35 M67.95 22.6 L67.95 23.75 Q67.8 24.5 66.8 24.8 L64.55 25.3 Q63.2 25.55 61.6 26.3 L60.6 26.7 57.2 27.4 Q55.05 27.75 53.35 29.1 L52.05 30.25 Q49.95 32.6 48.6 32.6 L46.0 32.05 43.35 31.2 Q42.4 31.0 37.25 31.2 L31.75 31.75 Q28.45 32.1 27.1 31.2 25.7 30.35 22.7 30.9 L18.95 31.3 Q16.85 31.3 15.85 30.2 14.8 29.0 12.75 28.8 10.4 28.6 9.8 27.85 9.15 27.15 8.45 27.05 L7.25 27.05 6.15 26.95 4.7 26.55 Q3.9 26.2 3.75 25.4 L3.75 24.35 Q3.9 25.1 4.7 25.5 L6.15 25.9 7.15 26.0 7.25 26.0 8.45 26.0 Q9.15 26.1 9.8 26.8 10.4 27.55 12.75 27.75 14.75 27.9 15.8 29.1 L15.85 29.1 15.85 29.15 Q16.85 30.25 18.95 30.25 L21.05 30.1 22.7 29.85 Q25.7 29.3 27.1 30.15 28.45 31.0 31.75 30.7 L37.25 30.15 Q42.4 29.95 43.35 30.15 L44.8 30.55 46.0 30.95 48.6 31.55 Q49.9 31.55 51.9 29.4 L52.05 29.2 Q54.2 26.75 57.2 26.3 60.15 25.9 61.6 25.2 63.05 24.6 64.3 24.3 L64.55 24.25 66.8 23.75 67.85 23.0 67.95 22.6 M3.75 23.85 L2.9 23.05 Q2.1 22.35 1.9 21.2 1.7 20.1 0.75 18.6 L0.75 18.35 0.9 18.65 1.45 19.4 Q2.15 20.0 2.1 20.85 2.1 21.3 2.9 21.95 L3.65 22.65 3.75 22.9 3.75 23.85" fill="#003c0f" fill-rule="evenodd" stroke="none"/>
      <path d="M22.0 14.55 L45.9 14.55 Q65.4 15.75 65.75 21.4 65.7 22.95 64.3 24.3 63.05 24.6 61.6 25.2 60.15 25.9 57.2 26.3 54.2 26.75 52.05 29.2 L51.9 29.4 44.8 30.55 43.35 30.15 Q42.4 29.95 37.25 30.15 L31.75 30.7 Q28.45 31.0 27.1 30.15 25.7 29.3 22.7 29.85 L21.05 30.1 15.85 29.1 15.8 29.1 Q14.75 27.9 12.75 27.75 10.4 27.55 9.8 26.8 9.15 26.1 8.45 26.0 L7.25 26.0 7.15 26.0 Q4.55 24.55 3.75 22.9 L3.65 22.65 3.35 21.4 Q4.8 15.55 22.0 14.55" fill="#004f27" fill-rule="evenodd" stroke="none"/>
    </g>
    <g id="sprite2" transform="matrix(1.0, 0.0, 0.0, 1.0, 0.0, 0.0)">
      <use ffdec:characterId="69" height="12.15" transform="matrix(1.0, 0.0, 0.0, 1.0, 0.0, 0.0)" width="21.85" xlink:href="#shape3"/>
    </g>
    <g id="shape3" transform="matrix(1.0, 0.0, 0.0, 1.0, 0.0, 0.0)">
      <path d="M20.75 10.65 L19.7 12.15 13.9 9.95 14.5 8.2 20.75 10.65" fill="#ff9900" fill-rule="evenodd" stroke="none"/>
      <path d="M0.7 4.8 L21.45 0.0 Q22.0 2.9 21.75 5.95 18.9 7.65 14.5 8.2 7.9 5.9 0.7 4.8" fill="#eeaa00" fill-rule="evenodd" stroke="none"/>
      <path d="M0.7 4.8 Q7.9 5.9 14.5 8.2 L13.9 9.95 Q7.3 7.8 0.0 6.85 L0.7 4.8" fill="#ee7500" fill-rule="evenodd" stroke="none"/>
      <path d="M14.5 8.2 Q18.9 7.65 21.75 5.95 21.5 8.25 20.75 10.65 L14.5 8.2" fill="url(#gradient2)" fill-rule="evenodd" stroke="none"/>
    </g>
    <radialGradient cx="0" cy="0" gradientTransform="matrix(0.012, 0.0024, -8.0E-4, 0.0038, 18.3, 10.9)" gradientUnits="userSpaceOnUse" id="gradient2" r="819.2" spreadMethod="pad">
      <stop offset="0.5450980392156862" stop-color="#fff4a6"/>
      <stop offset="1.0" stop-color="#ffcc00"/>
    </radialGradient>
    <g id="shape4" transform="matrix(1.0, 0.0, 0.0, 1.0, -2.85, -0.3)">
      <path d="M20.15 28.65 L23.1 29.1 24.5 30.05 Q26.75 31.2 29.95 31.2 33.1 31.2 35.3 30.05 L36.45 29.35 39.2 29.45 Q38.4 30.25 37.1 30.9 L36.5 31.25 Q33.7 32.45 29.95 32.45 26.1 32.45 23.3 31.2 L22.75 30.9 Q21.1 30.1 20.4 29.05 L20.15 28.65" fill="#ffffff" fill-rule="evenodd" stroke="none"/>
      <path d="M19.95 28.1 L20.15 28.65 20.4 29.05 Q21.1 30.1 22.75 30.9 L23.3 31.2 Q26.1 32.45 29.95 32.45 33.7 32.45 36.5 31.25 L37.1 30.9 Q38.4 30.25 39.2 29.45 L39.4 31.6 Q38.65 32.55 37.1 33.35 34.25 34.85 30.15 34.85 26.0 34.85 23.15 33.35 20.9 32.2 20.45 30.6 L20.3 29.95 19.95 28.1" fill="#b9e5ca" fill-rule="evenodd" stroke="none"/>
      <path d="M19.95 28.1 L19.9 27.9 19.85 27.8 19.8 27.25 Q19.8 25.05 22.75 23.5 25.75 22.0 29.95 22.0 34.15 22.0 37.1 23.5 40.05 25.05 40.05 27.25 L40.05 27.55 39.75 28.6 39.2 29.45 36.45 29.35 37.35 28.2 37.55 27.25 37.35 26.3 Q36.8 25.2 35.3 24.45 33.1 23.3 29.95 23.3 26.75 23.3 24.5 24.45 22.75 25.35 22.4 26.6 L22.3 27.25 22.55 28.25 23.1 29.1 20.15 28.65 19.95 28.1" fill="#90b89f" fill-rule="evenodd" stroke="none"/>
      <path d="M22.55 28.25 L22.3 27.25 22.4 26.6 Q22.75 25.35 24.5 24.45 26.75 23.3 29.95 23.3 33.1 23.3 35.3 24.45 36.8 25.2 37.35 26.3 L37.55 27.25 37.35 28.2 Q36.8 27.15 35.3 26.35 33.1 25.25 29.95 25.25 26.75 25.25 24.5 26.35 23.0 27.2 22.55 28.25 M39.2 29.45 L39.75 28.6 40.05 27.55 39.9 30.25 39.4 31.6 39.2 29.45" fill="#6e987e" fill-rule="evenodd" stroke="none"/>
      <path d="M65.75 18.5 Q65.6 22.2 57.65 24.9 L56.6 25.25 Q47.45 28.1 34.55 28.1 21.6 28.1 12.45 25.25 L11.45 24.9 Q3.5 22.2 3.35 18.5 L3.35 18.25 Q3.45 10.95 12.45 5.95 21.6 0.8 34.55 0.8 47.45 0.8 56.6 5.95 65.65 10.95 65.75 18.25 L65.75 18.5" fill="url(#gradient3)" fill-rule="evenodd" stroke="none"/>
      <path d="M65.75 18.5 L65.75 18.25 Q65.65 10.95 56.6 5.95 47.45 0.8 34.55 0.8 21.6 0.8 12.45 5.95 3.45 10.95 3.35 18.25 L3.35 18.5 Q3.5 22.2 11.45 24.9 L12.45 25.25 Q21.6 28.1 34.55 28.1 47.45 28.1 56.6 25.25 L57.65 24.9 Q65.6 22.2 65.75 18.5 Z" ffdec:has-small-stroke="true" ffdec:original-stroke-width="1.0" fill="none" stroke="#b15700" stroke-linecap="round" stroke-linejoin="round" stroke-width="1.0199520652410745"/>
      <path d="M65.15 18.4 Q65.0 22.05 57.2 24.75 L56.2 25.05 Q47.25 27.85 34.55 27.85 21.85 27.85 12.85 25.05 L11.85 24.75 Q4.1 22.05 3.95 18.4 L3.95 18.15 Q4.05 11.0 12.85 6.1 21.85 1.05 34.55 1.05 47.25 1.05 56.2 6.1 65.05 11.0 65.15 18.15 L65.15 18.4" fill="url(#gradient4)" fill-rule="evenodd" stroke="none"/>
    </g>
    <radialGradient cx="0" cy="0" gradientTransform="matrix(0.0449, 0.0, 0.0, 0.0207, 35.1, 10.1)" gradientUnits="userSpaceOnUse" id="gradient3" r="819.2" spreadMethod="pad">
      <stop offset="0.7176470588235294" stop-color="#fcb709"/>
      <stop offset="1.0" stop-color="#e38302"/>
    </radialGradient>
    <radialGradient cx="0" cy="0" gradientTransform="matrix(0.0547, 0.0, 0.0, 0.0328, 35.2, 29.65)" gradientUnits="userSpaceOnUse" id="gradient4" r="819.2" spreadMethod="pad">
      <stop offset="0.5176470588235295" stop-color="#fcb709" stop-opacity="0.0"/>
      <stop offset="0.6862745098039216" stop-color="#f4ab08" stop-opacity="0.1764706"/>
      <stop offset="1.0" stop-color="#cb6f00"/>
    </radialGradient>
    <g id="sprite3" transform="matrix(1.0, 0.0, 0.0, 1.0, 0.0, 0.0)">
      <use ffdec:characterId="72" height="2.75" transform="matrix(1.0, 0.0, 0.0, 1.0, 0.0, 0.0)" width="4.3" xlink:href="#shape5"/>
    </g>
    <g id="shape5" transform="matrix(1.0, 0.0, 0.0, 1.0, 0.0, 0.0)">
      <path d="M3.75 2.1 Q3.3 2.6 2.35 2.7 L0.7 2.55 Q0.05 2.25 0.0 1.7 -0.1 1.15 0.45 0.65 1.1 0.15 2.0 0.05 L3.55 0.2 Q4.25 0.5 4.3 1.05 4.4 1.6 3.75 2.1" fill="#4d2500" fill-opacity="0.3019608" fill-rule="evenodd" stroke="none"/>
    </g>
    <g id="sprite4" transform="matrix(1.0, 0.0, 0.0, 1.0, 0.2, 0.3)">
      <use ffdec:characterId="74" height="2.8" transform="matrix(1.0, 0.0, 0.0, 1.0, -0.2, -0.3)" width="3.95" xlink:href="#shape6"/>
    </g>
    <g id="shape6" transform="matrix(1.0, 0.0, 0.0, 1.0, 0.2, 0.3)">
      <path d="M3.25 1.1 L2.8 1.75 1.8 2.0 0.7 1.75 Q0.3 1.5 0.3 1.1 0.3 0.75 0.7 0.45 L1.8 0.2 2.8 0.45 3.25 1.1" fill="#fff29c" fill-rule="evenodd" stroke="none"/>
      <path d="M3.25 1.1 L2.8 1.75 1.8 2.0 0.7 1.75 Q0.3 1.5 0.3 1.1 0.3 0.75 0.7 0.45 L1.8 0.2 2.8 0.45 3.25 1.1 Z" ffdec:has-small-stroke="true" ffdec:original-stroke-width="1.0" fill="none" stroke="#ffcf58" stroke-linecap="round" stroke-linejoin="round" stroke-width="1.0529635856366273"/>
    </g>
    <g id="sprite5" transform="matrix(1.0, 0.0, 0.0, 1.0, 0.2, 0.3)">
      <use ffdec:characterId="74" height="2.8" transform="matrix(1.0, 0.0, 0.0, 1.0, -0.2, -0.3)" width="3.95" xlink:href="#shape7"/>
    </g>
    <g id="shape7" transform="matrix(1.0, 0.0, 0.0, 1.0, 0.2, 0.3)">
      <path d="M3.25 1.1 L2.8 1.75 1.8 2.0 0.7 1.75 Q0.3 1.5 0.3 1.1 0.3 0.75 0.7 0.45 L1.8 0.2 2.8 0.45 3.25 1.1" fill="#fff29c" fill-rule="evenodd" stroke="none"/>
      <path d="M3.25 1.1 L2.8 1.75 1.8 2.0 0.7 1.75 Q0.3 1.5 0.3 1.1 0.3 0.75 0.7 0.45 L1.8 0.2 2.8 0.45 3.25 1.1 Z" ffdec:has-small-stroke="true" ffdec:original-stroke-width="1.0" fill="none" stroke="#ffcf58" stroke-linecap="round" stroke-linejoin="round" stroke-width="1.0529822669712867"/>
    </g>
    <g id="sprite6" transform="matrix(1.0, 0.0, 0.0, 1.0, 0.2, 0.3)">
      <use ffdec:characterId="74" height="2.8" transform="matrix(1.0, 0.0, 0.0, 1.0, -0.2, -0.3)" width="3.95" xlink:href="#shape8"/>
    </g>
    <g id="shape8" transform="matrix(1.0, 0.0, 0.0, 1.0, 0.2, 0.3)">
      <path d="M3.25 1.1 L2.8 1.75 1.8 2.0 0.7 1.75 Q0.3 1.5 0.3 1.1 0.3 0.75 0.7 0.45 L1.8 0.2 2.8 0.45 3.25 1.1" fill="#fff29c" fill-rule="evenodd" stroke="none"/>
      <path d="M3.25 1.1 L2.8 1.75 1.8 2.0 0.7 1.75 Q0.3 1.5 0.3 1.1 0.3 0.75 0.7 0.45 L1.8 0.2 2.8 0.45 3.25 1.1 Z" ffdec:has-small-stroke="true" ffdec:original-stroke-width="1.0" fill="none" stroke="#ffcf58" stroke-linecap="round" stroke-linejoin="round" stroke-width="1.05296554125755"/>
    </g>
    <g id="sprite7" transform="matrix(1.0, 0.0, 0.0, 1.0, 0.2, 0.3)">
      <use ffdec:characterId="74" height="2.8" transform="matrix(1.0, 0.0, 0.0, 1.0, -0.2, -0.3)" width="3.95" xlink:href="#shape9"/>
    </g>
    <g id="shape9" transform="matrix(1.0, 0.0, 0.0, 1.0, 0.2, 0.3)">
      <path d="M3.25 1.1 L2.8 1.75 1.8 2.0 0.7 1.75 Q0.3 1.5 0.3 1.1 0.3 0.75 0.7 0.45 L1.8 0.2 2.8 0.45 3.25 1.1" fill="#fff29c" fill-rule="evenodd" stroke="none"/>
      <path d="M3.25 1.1 L2.8 1.75 1.8 2.0 0.7 1.75 Q0.3 1.5 0.3 1.1 0.3 0.75 0.7 0.45 L1.8 0.2 2.8 0.45 3.25 1.1 Z" ffdec:has-small-stroke="true" ffdec:original-stroke-width="1.0" fill="none" stroke="#ffcf58" stroke-linecap="round" stroke-linejoin="round" stroke-width="1.0529764935370711"/>
    </g>
    <g id="sprite8" transform="matrix(1.0, 0.0, 0.0, 1.0, 0.2, 0.3)">
      <use ffdec:characterId="74" height="2.8" transform="matrix(1.0, 0.0, 0.0, 1.0, -0.2, -0.3)" width="3.95" xlink:href="#shape10"/>
    </g>
    <g id="shape10" transform="matrix(1.0, 0.0, 0.0, 1.0, 0.2, 0.3)">
      <path d="M3.25 1.1 L2.8 1.75 1.8 2.0 0.7 1.75 Q0.3 1.5 0.3 1.1 0.3 0.75 0.7 0.45 L1.8 0.2 2.8 0.45 3.25 1.1" fill="#fff29c" fill-rule="evenodd" stroke="none"/>
      <path d="M3.25 1.1 L2.8 1.75 1.8 2.0 0.7 1.75 Q0.3 1.5 0.3 1.1 0.3 0.75 0.7 0.45 L1.8 0.2 2.8 0.45 3.25 1.1 Z" ffdec:has-small-stroke="true" ffdec:original-stroke-width="1.0" fill="none" stroke="#ffcf58" stroke-linecap="round" stroke-linejoin="round" stroke-width="1.0529782919274755"/>
    </g>
    <g id="sprite9" transform="matrix(1.0, 0.0, 0.0, 1.0, 0.2, 0.3)">
      <use ffdec:characterId="74" height="2.8" transform="matrix(1.0, 0.0, 0.0, 1.0, -0.2, -0.3)" width="3.95" xlink:href="#shape11"/>
    </g>
    <g id="shape11" transform="matrix(1.0, 0.0, 0.0, 1.0, 0.2, 0.3)">
      <path d="M3.25 1.1 L2.8 1.75 1.8 2.0 0.7 1.75 Q0.3 1.5 0.3 1.1 0.3 0.75 0.7 0.45 L1.8 0.2 2.8 0.45 3.25 1.1" fill="#fff29c" fill-rule="evenodd" stroke="none"/>
      <path d="M3.25 1.1 L2.8 1.75 1.8 2.0 0.7 1.75 Q0.3 1.5 0.3 1.1 0.3 0.75 0.7 0.45 L1.8 0.2 2.8 0.45 3.25 1.1 Z" ffdec:has-small-stroke="true" ffdec:original-stroke-width="1.0" fill="none" stroke="#ffcf58" stroke-linecap="round" stroke-linejoin="round" stroke-width="1.0529736349449166"/>
    </g>
    <g id="sprite10" transform="matrix(1.0, 0.0, 0.0, 1.0, 0.2, 0.3)">
      <use ffdec:characterId="74" height="2.8" transform="matrix(1.0, 0.0, 0.0, 1.0, -0.2, -0.3)" width="3.95" xlink:href="#shape12"/>
    </g>
    <g id="shape12" transform="matrix(1.0, 0.0, 0.0, 1.0, 0.2, 0.3)">
      <path d="M3.25 1.1 L2.8 1.75 1.8 2.0 0.7 1.75 Q0.3 1.5 0.3 1.1 0.3 0.75 0.7 0.45 L1.8 0.2 2.8 0.45 3.25 1.1" fill="#fff29c" fill-rule="evenodd" stroke="none"/>
      <path d="M3.25 1.1 L2.8 1.75 1.8 2.0 0.7 1.75 Q0.3 1.5 0.3 1.1 0.3 0.75 0.7 0.45 L1.8 0.2 2.8 0.45 3.25 1.1 Z" ffdec:has-small-stroke="true" ffdec:original-stroke-width="1.0" fill="none" stroke="#ffcf58" stroke-linecap="round" stroke-linejoin="round" stroke-width="1.0529635856366273"/>
    </g>
    <g id="sprite11" transform="matrix(1.0, 0.0, 0.0, 1.0, 0.2, 0.3)">
      <use ffdec:characterId="74" height="2.8" transform="matrix(1.0, 0.0, 0.0, 1.0, -0.2, -0.3)" width="3.95" xlink:href="#shape13"/>
    </g>
    <g id="shape13" transform="matrix(1.0, 0.0, 0.0, 1.0, 0.2, 0.3)">
      <path d="M3.25 1.1 L2.8 1.75 1.8 2.0 0.7 1.75 Q0.3 1.5 0.3 1.1 0.3 0.75 0.7 0.45 L1.8 0.2 2.8 0.45 3.25 1.1" fill="#fff29c" fill-rule="evenodd" stroke="none"/>
      <path d="M3.25 1.1 L2.8 1.75 1.8 2.0 0.7 1.75 Q0.3 1.5 0.3 1.1 0.3 0.75 0.7 0.45 L1.8 0.2 2.8 0.45 3.25 1.1 Z" ffdec:has-small-stroke="true" ffdec:original-stroke-width="1.0" fill="none" stroke="#ffcf58" stroke-linecap="round" stroke-linejoin="round" stroke-width="1.0529771866315916"/>
    </g>
    <g id="sprite12" transform="matrix(1.0, 0.0, 0.0, 1.0, 4.5, 4.5)">
      <use ffdec:characterId="47" height="97.0" transform="matrix(1.0, 0.0, 0.0, 1.0, -4.5, -4.5)" width="93.0" xlink:href="#shape14"/>
    </g>
    <g id="shape14" transform="matrix(1.0, 0.0, 0.0, 1.0, 4.5, 4.5)">
      <path d="M71.65 12.95 Q84.0 25.9 84.0 44.0 84.0 62.2 71.65 75.05 59.3 88.0 41.95 88.0 24.6 88.0 12.3 75.05 0.0 62.2 0.0 44.0 0.0 25.9 12.3 12.95 24.6 0.0 41.95 0.0 59.3 0.0 71.65 12.95 Z" fill="none" stroke="#0066ff" stroke-linecap="round" stroke-linejoin="round" stroke-width="9.0"/>
    </g>
  </defs>
</svg>
