<?xml version="1.0" encoding="UTF-8" standalone="no"?>
<svg xmlns:ffdec="https://www.free-decompiler.com/flash" xmlns:xlink="http://www.w3.org/1999/xlink" ffdec:objectType="frame" height="23.6px" width="21.65px" xmlns="http://www.w3.org/2000/svg">
  <g transform="matrix(1.0, 0.0, 0.0, 1.0, 3.7, 3.6)">
    <use ffdec:characterId="2534" height="15.35" transform="matrix(1.0, 0.0, 0.0, 1.0, -0.15, 0.05)" width="12.65" xlink:href="#shape0"/>
    <clipPath id="clipPath0">
      <path d="M 6.21 1.05 L 6.02 1.06 L 5.83 1.11 L 5.64 1.18 L 5.44 1.27 L 5.24 1.4 L 5.05 1.56 L 4.85 1.74 L 4.65 1.95 L 1.1 5.95 L 1 6.17 L 0.93 6.39 L 0.89 6.6 L 0.88 6.8 L 0.89 7 L 0.93 7.19 L 1 7.37 L 1.1 7.55 L 1.2 7.68 L 1.32 7.8 L 1.47 7.89 L 1.64 7.97 L 1.84 8.03 L 2.06 8.08 L 2.31 8.1 L 2.58 8.11 L 2.95 8.1 L 4.2 8.1 L 4.2 12.45 L 4.21 12.66 L 4.23 12.86 L 4.27 13.05 L 4.32 13.23 L 4.39 13.39 L 4.47 13.54 L 4.57 13.68 L 4.69 13.81 L 4.82 13.93 L 4.96 14.03 L 5.12 14.12 L 5.3 14.2 L 5.49 14.27 L 5.69 14.33 L 5.91 14.37 L 6.15 14.4 L 6.2 14.4 L 6.44 14.37 L 6.66 14.33 L 6.86 14.27 L 7.05 14.2 L 7.23 14.12 L 7.39 14.03 L 7.53 13.93 L 7.66 13.81 L 7.78 13.68 L 7.88 13.54 L 7.96 13.39 L 8.03 13.23 L 8.08 13.05 L 8.12 12.86 L 8.14 12.66 L 8.15 12.45 L 8.15 8.1 L 9.4 8.1 L 9.77 8.11 L 10.04 8.1 L 10.29 8.08 L 10.52 8.03 L 10.72 7.97 L 10.9 7.89 L 11.06 7.8 L 11.19 7.68 L 11.3 7.55 L 11.39 7.37 L 11.45 7.19 L 11.48 7 L 11.49 6.8 L 11.47 6.6 L 11.42 6.39 L 11.35 6.17 L 11.25 5.95 L 7.7 1.95 L 7.52 1.74 L 7.34 1.56 L 7.15 1.4 L 6.97 1.27 L 6.78 1.18 L 6.59 1.11 L 6.4 1.06 L 6.21 1.05 Z"/>
    </clipPath>
    <g clip-path="url(#clipPath0)">
      <filter id="filter0">
        <feConvolveMatrix divisor="16.0" in="SourceGraphic" kernelMatrix="1 1 1 1 1 1 1 1 1 1 1 1 1 1 1 1" order="4 4" result="filterResult0"/>
      </filter>
      <use ffdec:characterId="2537" filter="url(#filter0)" height="23.6" transform="matrix(1.0, 0.0, 0.0, 1.0, -3.7, -3.6)" width="21.65" xlink:href="#sprite0"/>
    </g>
  </g>
  <defs>
    <g id="shape0" transform="matrix(1.0, 0.0, 0.0, 1.0, 0.15, -0.05)">
      <path d="M11.25 5.95 L7.7 1.95 Q6.25 0.15 4.65 1.95 L1.1 5.95 Q0.65 6.85 1.1 7.55 1.5 8.2 2.95 8.1 L4.2 8.1 4.2 12.45 Q4.2 14.2 6.15 14.4 L6.2 14.4 Q8.15 14.2 8.15 12.45 L8.15 8.1 9.4 8.1 Q10.85 8.2 11.3 7.55 11.7 6.85 11.25 5.95 Z" fill="none" stroke="#022b4f" stroke-linecap="round" stroke-linejoin="round" stroke-width="2.0"/>
    </g>
    <g id="sprite0" transform="matrix(1.0, 0.0, 0.0, 1.0, 4.55, 4.65)">
      <use ffdec:characterId="2536" height="23.6" transform="matrix(1.0, 0.0, 0.0, 1.0, -4.55, -4.65)" width="21.65" xlink:href="#shape1"/>
    </g>
    <g id="shape1" transform="matrix(1.0, 0.0, 0.0, 1.0, 4.55, 4.65)">
      <path d="M6.3 -4.3 Q10.45 -4.3 13.35 -1.4 16.3 1.55 16.3 5.7 L16.3 8.95 Q16.3 13.1 13.35 16.0 10.45 18.95 6.3 18.95 L5.45 18.95 Q1.3 18.95 -1.65 16.0 -4.55 13.1 -4.55 8.95 L-4.55 5.7 Q-4.55 1.55 -1.65 -1.4 1.3 -4.3 5.45 -4.3 L6.3 -4.3" fill="#ffffff" fill-rule="evenodd" stroke="none"/>
      <path d="M9.9 6.95 L8.55 7.05 7.3 7.05 6.95 7.4 6.6 7.75 6.6 12.1 6.6 12.45 6.55 12.75 6.45 13.05 5.35 13.35 5.3 13.35 Q3.35 13.15 3.35 11.4 L3.35 7.05 2.1 7.05 Q0.65 7.15 0.25 6.5 -0.2 5.8 0.25 4.9 L3.6 1.15 Q4.9 0.1 6.15 1.6 L9.7 5.6 9.95 6.35 9.95 6.75 9.9 6.95" fill="#ffffff" fill-rule="evenodd" stroke="none"/>
      <path d="M3.8 0.9 Q5.4 -0.9 6.85 0.9 L10.4 4.9 10.65 5.65 10.65 6.05 10.45 6.5 10.15 6.8 10.3 6.4 10.3 6.0 10.05 5.25 6.5 1.25 Q5.2 -0.35 3.8 0.9 M6.95 7.4 L7.3 7.05 7.3 11.4 7.3 11.75 7.25 12.05 6.7 12.9 6.9 12.4 6.95 12.1 6.95 11.75 6.95 7.4" fill="#3c5c79" fill-rule="evenodd" stroke="none"/>
      <path d="M6.7 12.9 L6.45 13.05 6.55 12.75 6.6 12.45 6.6 12.1 6.6 7.75 6.95 7.4 6.95 11.75 6.95 12.1 6.9 12.4 6.7 12.9 M3.6 1.15 L3.65 1.1 3.8 0.9 Q5.2 -0.35 6.5 1.25 L10.05 5.25 10.3 6.0 10.3 6.4 10.15 6.8 9.9 6.95 9.95 6.75 9.95 6.35 9.7 5.6 6.15 1.6 Q4.9 0.1 3.6 1.15" fill="#6e98bf" fill-rule="evenodd" stroke="none"/>
      <path d="M3.65 1.1 L3.25 -2.3 6.4 -4.65 17.1 4.7 13.5 7.65 9.9 6.95 10.15 6.8 10.45 6.5 10.65 6.05 10.65 5.65 10.4 4.9 6.85 0.9 Q5.4 -0.9 3.8 0.9 L3.65 1.1 M7.3 7.05 L11.25 9.45 8.9 12.9 6.7 12.9 7.25 12.05 7.3 11.75 7.3 11.4 7.3 7.05" fill="#224362" fill-rule="evenodd" stroke="none"/>
    </g>
  </defs>
</svg>
