<?xml version="1.0" encoding="UTF-8" standalone="no"?>
<svg xmlns:ffdec="https://www.free-decompiler.com/flash" xmlns:xlink="http://www.w3.org/1999/xlink" ffdec:objectType="frame" height="41.1px" width="42.65px" xmlns="http://www.w3.org/2000/svg">
  <g transform="matrix(1.0, 0.0, 0.0, 1.0, 21.75, 13.45)">
    <use ffdec:characterId="11" height="41.1" transform="matrix(1.0, 0.0, 0.0, 1.0, -21.75, -13.45)" width="42.65" xlink:href="#shape0"/>
  </g>
  <defs>
    <g id="shape0" transform="matrix(1.0, 0.0, 0.0, 1.0, 21.75, 13.45)">
      <path d="M-17.75 17.0 L-18.2 16.0 Q-19.0 14.1 -19.25 11.8 -18.8 -1.35 -3.75 -8.55 6.55 -14.3 12.35 -6.35 18.55 0.6 18.4 11.25 L18.25 12.2 Q-0.35 3.2 -17.75 17.0" fill="#833300" fill-rule="evenodd" stroke="none"/>
      <path d="M18.25 12.2 L17.95 13.5 Q14.8 25.35 -1.45 25.15 -14.0 24.4 -17.75 17.0 -0.35 3.2 18.25 12.2" fill="#ff9999" fill-rule="evenodd" stroke="none"/>
      <path d="M-14.7 -0.4 Q-10.9 -5.15 -3.75 -8.55 6.55 -14.3 12.35 -6.35 14.35 -4.15 15.7 -1.5 L-14.7 -0.4" fill="#ffffff" fill-rule="evenodd" stroke="none"/>
      <path d="M-14.7 -0.4 L15.7 -1.5" fill="none" stroke="#694e56" stroke-linecap="round" stroke-linejoin="round" stroke-width="5.0"/>
      <path d="M12.35 -6.35 Q18.55 0.6 18.4 11.25 L17.95 13.5 Q14.8 25.35 -1.45 25.15 -14.85 24.35 -18.2 16.0 -19.0 14.1 -19.25 11.8 -18.8 -1.35 -3.75 -8.55 6.55 -14.3 12.35 -6.35 Z" fill="none" stroke="#b34700" stroke-linecap="round" stroke-linejoin="round" stroke-width="5.0"/>
    </g>
  </defs>
</svg>
