<?xml version="1.0" encoding="UTF-8" standalone="no"?>
<svg xmlns:ffdec="https://www.free-decompiler.com/flash" xmlns:xlink="http://www.w3.org/1999/xlink" ffdec:objectType="frame" height="7.5px" width="7.0px" xmlns="http://www.w3.org/2000/svg">
  <g transform="matrix(1.0, 0.0, 0.0, 1.0, 0.0, 0.0)">
    <use ffdec:characterId="164" height="7.5" transform="matrix(1.0, 0.0, 0.0, 1.0, 0.0, 0.0)" width="7.0" xlink:href="#shape0"/>
  </g>
  <defs>
    <g id="shape0" transform="matrix(1.0, 0.0, 0.0, 1.0, 0.0, 0.0)">
      <path d="M6.25 6.05 L5.95 6.4 Q4.95 7.5 3.5 7.5 2.05 7.5 1.0 6.4 0.0 5.3 0.0 3.75 0.0 2.2 1.0 1.1 1.65 0.4 2.5 0.15 L3.5 0.0 Q4.95 0.0 5.95 1.1 6.75 1.9 6.95 3.0 L7.0 3.75 Q7.0 4.8 6.55 5.6 L6.25 6.05" fill="#2c9300" fill-rule="evenodd" stroke="none"/>
    </g>
  </defs>
</svg>
