<?xml version="1.0" encoding="UTF-8" standalone="no"?>
<svg xmlns:ffdec="https://www.free-decompiler.com/flash" xmlns:xlink="http://www.w3.org/1999/xlink" ffdec:objectType="frame" height="223.0px" width="300.0px" xmlns="http://www.w3.org/2000/svg">
  <g transform="matrix(1.0, 0.0, 0.0, 1.0, 0.0, 0.0)">
    <use ffdec:characterId="101" ffdec:characterName="fl.core.ComponentShim" height="0.0" transform="matrix(1.0, 0.0, 0.0, 1.0031, 0.0, 0.0)" width="0.0" xlink:href="#sprite0"/>
    <clipPath id="clip1">
      <path d="M 0,0 L 5.0,0 L 5.0,5.0 L 0,5.0 Z"/>
    </clipPath>
    <clipPath id="clip2">
      <path d="M 0,17.0 L 5.0,17.0 L 5.0,0.0 L 0,0.0 Z"/>
    </clipPath>
    <clipPath id="clip3">
      <path d="M 77.0,0 L 0.0,0 L 0.0,5.0 L 77.0,5.0 Z"/>
    </clipPath>
    <clipPath id="clip4">
      <path d="M 77.0,17.0 L 0.0,17.0 L 0.0,0.0 L 77.0,0.0 Z"/>
    </clipPath>
    <clipPath id="clip5">
      <path d="M 5.0,0 L 77.0,0 L 77.0,5.0 L 5.0,5.0 Z"/>
    </clipPath>
    <clipPath id="clip6">
      <path d="M 0,5.0 L 5.0,5.0 L 5.0,17.0 L 0,17.0 Z"/>
    </clipPath>
    <clipPath id="clip7">
      <path d="M 5.0,17.0 L 77.0,17.0 L 77.0,0.0 L 5.0,0.0 Z"/>
    </clipPath>
    <clipPath id="clip8">
      <path d="M 77.0,5.0 L 0.0,5.0 L 0.0,17.0 L 77.0,17.0 Z"/>
    </clipPath>
    <clipPath id="clip9">
      <path d="M 5.0,5.0 L 77.0,5.0 L 77.0,17.0 L 5.0,17.0 Z"/>
    </clipPath>
    <g ffdec:characterId="104" ffdec:characterName="focusRectSkin">
      <use clip-path="url(#clip1)" transform="matrix(1.0, 0.0, 0.0, 1.0, 66.8, 223.0)" xlink:href="#sprite1"/>
      <use clip-path="url(#clip2)" transform="matrix(1.0, 0.0, 0.0, 1.0, 66.8, 223.0)" xlink:href="#sprite1"/>
      <use clip-path="url(#clip3)" transform="matrix(1.0, 0.0, 0.0, 1.0, 66.8, 223.0)" xlink:href="#sprite1"/>
      <use clip-path="url(#clip4)" transform="matrix(1.0, 0.0, 0.0, 1.0, 66.8, 223.0)" xlink:href="#sprite1"/>
      <use clip-path="url(#clip5)" transform="matrix(1.0, 0.0, 0.0, 1.0, 66.8, 223.0)" xlink:href="#sprite1"/>
      <use clip-path="url(#clip6)" transform="matrix(1.0, 0.0, 0.0, 1.0, 66.8, 223.0)" xlink:href="#sprite1"/>
      <use clip-path="url(#clip7)" transform="matrix(1.0, 0.0, 0.0, 1.0, 66.8, 223.0)" xlink:href="#sprite1"/>
      <use clip-path="url(#clip8)" transform="matrix(1.0, 0.0, 0.0, 1.0, 66.8, 223.0)" xlink:href="#sprite1"/>
      <use clip-path="url(#clip9)" transform="matrix(1.0, 0.0, 0.0, 1.0, 66.8, 223.0)" xlink:href="#sprite1"/>
    </g>
    <use ffdec:characterId="103" ffdec:characterName="ScrollTrack_skin" height="148.0" transform="matrix(1.0, 0.0, 0.0, 1.0, 286.0, 18.0)" width="13.0" xlink:href="#sprite2"/>
    <use ffdec:characterId="103" ffdec:characterName="ScrollTrack_skin" height="148.0" transform="matrix(1.0, 0.0, 0.0, 1.0, 35.0, 18.0)" width="13.0" xlink:href="#sprite2"/>
    <use ffdec:characterId="103" ffdec:characterName="ScrollTrack_skin" height="148.0" transform="matrix(1.0, 0.0, 0.0, 1.0, 122.0, 20.0)" width="13.0" xlink:href="#sprite2"/>
    <use ffdec:characterId="103" ffdec:characterName="ScrollTrack_skin" height="148.0" transform="matrix(1.0, 0.0, 0.0, 1.0, 210.0, 18.0)" width="13.0" xlink:href="#sprite2"/>
    <use ffdec:characterId="106" ffdec:characterName="ScrollArrowUp_downSkin" height="14.0" transform="matrix(1.0, 0.0, 0.0, 1.0, 208.0, 18.0)" width="17.7" xlink:href="#sprite3"/>
    <use ffdec:characterId="108" ffdec:characterName="ScrollArrowDown_downSkin" height="14.1" transform="matrix(1.0, 0.0, 0.0, 1.0, 207.6, 151.9)" width="17.7" xlink:href="#sprite4"/>
    <clipPath id="clip10">
      <path d="M 0,0 L -1.0,0 L -1.0,5.0 L 0,5.0 Z"/>
    </clipPath>
    <clipPath id="clip11">
      <path d="M 0,49.0 L -1.0,49.0 L -1.0,53.0 L 0,53.0 Z"/>
    </clipPath>
    <clipPath id="clip12">
      <path d="M 8.0,0 L 14.0,0 L 14.0,5.0 L 8.0,5.0 Z"/>
    </clipPath>
    <clipPath id="clip13">
      <path d="M 8.0,49.0 L 14.0,49.0 L 14.0,53.0 L 8.0,53.0 Z"/>
    </clipPath>
    <clipPath id="clip14">
      <path d="M -1.0,0 L 8.0,0 L 8.0,5.0 L -1.0,5.0 Z"/>
    </clipPath>
    <clipPath id="clip15">
      <path d="M 0,5.0 L -1.0,5.0 L -1.0,48.0 L 0,48.0 Z"/>
    </clipPath>
    <clipPath id="clip16">
      <path d="M -1.0,48.0 L 8.0,48.0 L 8.0,53.0 L -1.0,53.0 Z"/>
    </clipPath>
    <clipPath id="clip17">
      <path d="M 8.0,5.0 L 15.0,5.0 L 15.0,48.0 L 8.0,48.0 Z"/>
    </clipPath>
    <clipPath id="clip18">
      <path d="M -1.0,5.0 L 8.0,5.0 L 8.0,48.0 L -1.0,48.0 Z"/>
    </clipPath>
    <g ffdec:characterId="110" ffdec:characterName="ScrollThumb_downSkin">
      <use clip-path="url(#clip10)" transform="matrix(1.0, 0.0, 0.0, 1.0, 209.2, 58.9)" xlink:href="#sprite5"/>
      <use clip-path="url(#clip11)" transform="matrix(1.0, 0.0, 0.0, 1.0, 209.2, 58.9)" xlink:href="#sprite5"/>
      <use clip-path="url(#clip12)" transform="matrix(1.0, 0.0, 0.0, 1.0, 209.2, 58.9)" xlink:href="#sprite5"/>
      <use clip-path="url(#clip13)" transform="matrix(1.0, 0.0, 0.0, 1.0, 209.2, 58.9)" xlink:href="#sprite5"/>
      <use clip-path="url(#clip14)" transform="matrix(1.0, 0.0, 0.0, 1.0, 209.2, 58.9)" xlink:href="#sprite5"/>
      <use clip-path="url(#clip15)" transform="matrix(1.0, 0.0, 0.0, 1.0, 209.2, 58.9)" xlink:href="#sprite5"/>
      <use clip-path="url(#clip16)" transform="matrix(1.0, 0.0, 0.0, 1.0, 209.2, 58.9)" xlink:href="#sprite5"/>
      <use clip-path="url(#clip17)" transform="matrix(1.0, 0.0, 0.0, 1.0, 209.2, 58.9)" xlink:href="#sprite5"/>
      <use clip-path="url(#clip18)" transform="matrix(1.0, 0.0, 0.0, 1.0, 209.2, 58.9)" xlink:href="#sprite5"/>
    </g>
    <use ffdec:characterId="111" ffdec:characterName="ScrollArrowDown_overSkin" height="14.1" transform="matrix(1.0, 0.0, 0.0, 1.0, 119.6, 153.9)" width="17.7" xlink:href="#sprite6"/>
    <clipPath id="clip19">
      <path d="M 0,0 L 1.0,0 L 1.0,5.0 L 0,5.0 Z"/>
    </clipPath>
    <clipPath id="clip20">
      <path d="M 0,49.0 L 1.0,49.0 L 1.0,53.0 L 0,53.0 Z"/>
    </clipPath>
    <clipPath id="clip21">
      <path d="M 8.0,0 L 14.0,0 L 14.0,5.0 L 8.0,5.0 Z"/>
    </clipPath>
    <clipPath id="clip22">
      <path d="M 8.0,49.0 L 14.0,49.0 L 14.0,53.0 L 8.0,53.0 Z"/>
    </clipPath>
    <clipPath id="clip23">
      <path d="M 1.0,0 L 8.0,0 L 8.0,5.0 L 1.0,5.0 Z"/>
    </clipPath>
    <clipPath id="clip24">
      <path d="M 0,5.0 L 1.0,5.0 L 1.0,48.0 L 0,48.0 Z"/>
    </clipPath>
    <clipPath id="clip25">
      <path d="M 1.0,48.0 L 8.0,48.0 L 8.0,53.0 L 1.0,53.0 Z"/>
    </clipPath>
    <clipPath id="clip26">
      <path d="M 8.0,5.0 L 15.0,5.0 L 15.0,48.0 L 8.0,48.0 Z"/>
    </clipPath>
    <clipPath id="clip27">
      <path d="M 1.0,5.0 L 8.0,5.0 L 8.0,48.0 L 1.0,48.0 Z"/>
    </clipPath>
    <g ffdec:characterId="112" ffdec:characterName="ScrollThumb_overSkin">
      <use clip-path="url(#clip19)" transform="matrix(1.0, 0.0, 0.0, 1.0, 121.2, 60.9)" xlink:href="#sprite7"/>
      <use clip-path="url(#clip20)" transform="matrix(1.0, 0.0, 0.0, 1.0, 121.2, 60.9)" xlink:href="#sprite7"/>
      <use clip-path="url(#clip21)" transform="matrix(1.0, 0.0, 0.0, 1.0, 121.2, 60.9)" xlink:href="#sprite7"/>
      <use clip-path="url(#clip22)" transform="matrix(1.0, 0.0, 0.0, 1.0, 121.2, 60.9)" xlink:href="#sprite7"/>
      <use clip-path="url(#clip23)" transform="matrix(1.0, 0.0, 0.0, 1.0, 121.2, 60.9)" xlink:href="#sprite7"/>
      <use clip-path="url(#clip24)" transform="matrix(1.0, 0.0, 0.0, 1.0, 121.2, 60.9)" xlink:href="#sprite7"/>
      <use clip-path="url(#clip25)" transform="matrix(1.0, 0.0, 0.0, 1.0, 121.2, 60.9)" xlink:href="#sprite7"/>
      <use clip-path="url(#clip26)" transform="matrix(1.0, 0.0, 0.0, 1.0, 121.2, 60.9)" xlink:href="#sprite7"/>
      <use clip-path="url(#clip27)" transform="matrix(1.0, 0.0, 0.0, 1.0, 121.2, 60.9)" xlink:href="#sprite7"/>
    </g>
    <use ffdec:characterId="113" ffdec:characterName="ScrollArrowUp_overSkin" height="14.0" transform="matrix(1.0, 0.0, 0.0, 1.0, 120.0, 20.0)" width="17.7" xlink:href="#sprite8"/>
    <use ffdec:characterId="115" ffdec:characterName="ScrollArrowUp_upSkin" height="14.0" transform="matrix(1.0, 0.0, 0.0, 1.0, 33.0, 18.0)" width="17.7" xlink:href="#sprite9"/>
    <clipPath id="clip28">
      <path d="M 0,0 L 1.0,0 L 1.0,5.0 L 0,5.0 Z"/>
    </clipPath>
    <clipPath id="clip29">
      <path d="M 0,49.0 L 1.0,49.0 L 1.0,53.0 L 0,53.0 Z"/>
    </clipPath>
    <clipPath id="clip30">
      <path d="M 8.0,0 L 14.0,0 L 14.0,5.0 L 8.0,5.0 Z"/>
    </clipPath>
    <clipPath id="clip31">
      <path d="M 8.0,49.0 L 14.0,49.0 L 14.0,53.0 L 8.0,53.0 Z"/>
    </clipPath>
    <clipPath id="clip32">
      <path d="M 1.0,0 L 8.0,0 L 8.0,5.0 L 1.0,5.0 Z"/>
    </clipPath>
    <clipPath id="clip33">
      <path d="M 0,5.0 L 1.0,5.0 L 1.0,48.0 L 0,48.0 Z"/>
    </clipPath>
    <clipPath id="clip34">
      <path d="M 1.0,48.0 L 8.0,48.0 L 8.0,53.0 L 1.0,53.0 Z"/>
    </clipPath>
    <clipPath id="clip35">
      <path d="M 8.0,5.0 L 15.0,5.0 L 15.0,48.0 L 8.0,48.0 Z"/>
    </clipPath>
    <clipPath id="clip36">
      <path d="M 1.0,5.0 L 8.0,5.0 L 8.0,48.0 L 1.0,48.0 Z"/>
    </clipPath>
    <g ffdec:characterId="117" ffdec:characterName="ScrollThumb_upSkin">
      <use clip-path="url(#clip28)" transform="matrix(1.0, 0.0, 0.0, 1.0, 34.2, 58.9)" xlink:href="#sprite10"/>
      <use clip-path="url(#clip29)" transform="matrix(1.0, 0.0, 0.0, 1.0, 34.2, 58.9)" xlink:href="#sprite10"/>
      <use clip-path="url(#clip30)" transform="matrix(1.0, 0.0, 0.0, 1.0, 34.2, 58.9)" xlink:href="#sprite10"/>
      <use clip-path="url(#clip31)" transform="matrix(1.0, 0.0, 0.0, 1.0, 34.2, 58.9)" xlink:href="#sprite10"/>
      <use clip-path="url(#clip32)" transform="matrix(1.0, 0.0, 0.0, 1.0, 34.2, 58.9)" xlink:href="#sprite10"/>
      <use clip-path="url(#clip33)" transform="matrix(1.0, 0.0, 0.0, 1.0, 34.2, 58.9)" xlink:href="#sprite10"/>
      <use clip-path="url(#clip34)" transform="matrix(1.0, 0.0, 0.0, 1.0, 34.2, 58.9)" xlink:href="#sprite10"/>
      <use clip-path="url(#clip35)" transform="matrix(1.0, 0.0, 0.0, 1.0, 34.2, 58.9)" xlink:href="#sprite10"/>
      <use clip-path="url(#clip36)" transform="matrix(1.0, 0.0, 0.0, 1.0, 34.2, 58.9)" xlink:href="#sprite10"/>
    </g>
    <use ffdec:characterId="119" ffdec:characterName="ScrollArrowDown_upSkin" height="14.1" transform="matrix(1.0, 0.0, 0.0, 1.0, 32.6, 151.9)" width="17.7" xlink:href="#sprite11"/>
    <use ffdec:characterId="121" ffdec:characterName="ScrollArrowDown_disabledSkin" height="14.0" transform="matrix(1.0, 0.0, 0.0, 1.0, 285.0, 152.0)" width="15.0" xlink:href="#sprite12"/>
    <use ffdec:characterId="122" ffdec:characterName="ScrollArrowUp_disabledSkin" height="0.0" transform="matrix(1.0, 0.0, 0.0, 1.0, 285.0, 18.0)" width="0.0" xlink:href="#sprite13"/>
    <use ffdec:characterId="123" ffdec:characterName="ScrollBar_thumbIcon" height="0.0" transform="matrix(1.0, 0.0, 0.0, 1.0, 38.0, 82.0)" width="0.0" xlink:href="#sprite14"/>
    <use ffdec:characterId="123" ffdec:characterName="ScrollBar_thumbIcon" height="0.0" transform="matrix(1.0, 0.0, 0.0, 1.0, 125.0, 84.0)" width="0.0" xlink:href="#sprite14"/>
    <use ffdec:characterId="123" ffdec:characterName="ScrollBar_thumbIcon" height="0.0" transform="matrix(1.0, 0.0, 0.0, 1.0, 213.0, 82.0)" width="0.0" xlink:href="#sprite14"/>
  </g>
  <defs>
    <g id="sprite2" transform="matrix(1.0, 0.0, 0.0, 1.0, -1.0, 0.0)">
      <use ffdec:characterId="102" height="148.0" transform="matrix(1.0, 0.0, 0.0, 1.0, 1.0, 0.0)" width="13.0" xlink:href="#shape0"/>
    </g>
    <g id="shape0" transform="matrix(1.0, 0.0, 0.0, 1.0, -1.0, 0.0)">
      <path d="M14.0 0.0 L14.0 148.0 1.0 148.0 1.0 0.0 14.0 0.0" fill="#ffffff" fill-opacity="0.0" fill-rule="evenodd" stroke="none"/>
    </g>
    <g id="sprite3" transform="matrix(1.0, 0.0, 0.0, 1.0, 1.0, 0.0)">
      <use ffdec:characterId="105" height="14.0" transform="matrix(1.0, 0.0, 0.0, 1.0, -1.0, 0.0)" width="17.7" xlink:href="#shape1"/>
    </g>
    <g id="shape1" transform="matrix(1.0, 0.0, 0.0, 1.0, 1.0, 0.0)">
      <path d="M1.0 13.0 L1.0 1.0 14.0 1.0 14.0 13.0 1.0 13.0" fill="#0000ff" fill-opacity="0.0" fill-rule="evenodd" stroke="none"/>
      <path d="M15.7 12.55 L-0.5 12.55 7.6 1.85 15.7 12.55" fill="#ffff00" fill-rule="evenodd" stroke="none"/>
      <path d="M11.2 4.85 Q11.65 5.45 11.0 5.75 10.3 6.1 9.95 5.55 9.6 5.0 10.2 4.65 10.8 4.3 11.2 4.85 M13.6 7.9 Q13.95 8.35 13.4 8.7 12.8 9.05 12.5 8.5 12.2 7.9 12.75 7.7 13.25 7.45 13.6 7.9 M12.3 6.7 Q13.0 7.3 11.95 8.15 10.9 8.95 10.55 8.05 10.15 7.15 10.85 6.6 L12.3 6.7 M11.6 12.0 Q12.0 12.6 11.45 12.85 10.9 13.05 10.6 12.65 10.3 12.25 10.75 11.8 11.15 11.35 11.6 12.0 M14.4 11.75 Q14.85 12.3 14.1 12.75 13.35 13.2 12.95 12.5 12.55 11.75 13.25 11.45 L13.75 11.4 13.55 11.2 Q13.15 10.6 13.7 10.0 14.3 9.35 14.95 10.25 15.55 11.15 14.75 11.45 L14.2 11.55 14.4 11.75 M14.55 13.1 L14.5 12.75 Q14.45 12.25 15.0 11.9 15.85 11.35 16.45 12.2 17.05 13.05 16.1 13.5 L14.8 13.4 14.55 13.1 M8.45 1.65 Q8.75 2.05 8.5 2.4 L9.15 2.9 Q9.75 3.8 8.95 4.1 8.2 4.4 7.75 3.85 7.4 3.35 7.8 2.8 7.3 2.9 7.0 2.4 6.6 1.65 7.3 1.35 8.0 1.1 8.45 1.65 M5.7 5.35 Q6.2 6.05 5.45 6.4 4.7 6.75 4.3 6.15 3.9 5.55 4.55 5.1 L4.85 5.0 4.8 4.85 Q4.45 4.05 5.1 3.55 L6.35 3.6 Q7.0 4.15 6.05 4.9 L5.55 5.2 5.7 5.35 M4.2 7.35 Q4.75 8.1 4.1 8.35 3.45 8.6 3.1 8.1 2.7 7.65 3.2 7.1 3.7 6.6 4.2 7.35 M0.05 12.7 Q-0.55 13.0 -0.85 12.5 -1.2 12.05 -0.65 11.7 L-0.4 11.6 Q-0.45 11.05 0.0 10.7 L1.2 10.8 Q1.85 11.3 0.95 12.0 L0.4 12.3 0.05 12.7 M3.2 8.85 Q3.65 9.4 2.9 9.85 2.15 10.3 1.75 9.6 1.35 8.85 2.05 8.55 2.75 8.3 3.2 8.85 M9.85 11.8 Q10.4 12.55 9.55 13.0 8.7 13.4 8.25 12.7 7.8 12.0 8.55 11.55 9.3 11.05 9.85 11.8 M6.85 11.8 Q7.35 12.2 6.6 12.75 6.05 13.15 5.8 12.95 L5.35 13.4 Q4.55 13.85 4.15 13.1 3.75 12.3 4.45 12.0 5.1 11.75 5.6 12.25 5.6 11.95 5.9 11.75 L6.85 11.8 M3.05 12.4 Q3.45 12.95 2.95 13.1 2.5 13.3 2.25 12.95 1.95 12.6 2.35 12.2 2.7 11.85 3.05 12.4" fill="#b3aa00" fill-rule="evenodd" stroke="none"/>
      <path d="M14.0 13.0 L14.0 1.0 1.0 1.0 1.0 13.0 14.0 13.0 M15.0 0.0 L15.0 14.0 0.0 14.0 0.0 0.0 15.0 0.0" fill="#0000ff" fill-opacity="0.0" fill-rule="evenodd" stroke="none"/>
    </g>
    <g id="sprite4" transform="matrix(1.0, 0.0, 0.0, 1.0, 1.4, 0.1)">
      <use ffdec:characterId="107" height="14.1" transform="matrix(1.0, 0.0, 0.0, 1.0, -1.4, -0.1)" width="17.7" xlink:href="#shape2"/>
    </g>
    <g id="shape2" transform="matrix(1.0, 0.0, 0.0, 1.0, 1.4, 0.1)">
      <path d="M14.0 13.0 L1.0 13.0 1.0 1.0 14.0 1.0 14.0 13.0" fill="#0000ff" fill-opacity="0.0" fill-rule="evenodd" stroke="none"/>
      <path d="M14.0 13.0 L14.0 1.0 1.0 1.0 1.0 13.0 14.0 13.0 M15.0 0.0 L15.0 14.0 0.0 14.0 0.0 0.0 15.0 0.0" fill="#0000ff" fill-opacity="0.0" fill-rule="evenodd" stroke="none"/>
      <path d="M1.0 1.0 L14.0 1.0 14.0 7.5 1.0 7.5 1.0 1.0" fill="url(#gradient0)" fill-rule="evenodd" stroke="none"/>
      <path d="M15.7 1.35 L7.6 12.05 -0.5 1.35 15.7 1.35" fill="#ffff00" fill-rule="evenodd" stroke="none"/>
      <path d="M16.1 0.9 L16.2 1.5 Q16.5 2.15 15.9 2.5 15.25 2.9 14.9 2.25 14.7 1.8 14.85 1.5 L14.8 1.45 Q14.35 0.85 15.05 0.5 15.8 0.2 16.1 0.9 M13.8 1.1 Q14.2 1.8 13.55 2.1 12.9 2.45 12.5 1.75 12.15 1.0 12.8 0.7 13.45 0.4 13.8 1.1 M11.95 1.05 Q12.65 2.1 11.65 2.35 10.7 2.6 10.3 1.85 9.9 1.05 10.6 0.5 11.3 0.0 11.95 1.05 M15.3 3.45 Q15.85 4.3 15.05 4.55 14.25 4.75 13.9 4.1 13.6 3.5 14.15 3.05 14.7 2.55 15.3 3.45 M13.5 5.35 Q13.75 5.75 13.35 6.0 12.95 6.2 12.7 5.75 12.5 5.3 12.9 5.1 13.3 4.9 13.5 5.35 M12.65 6.6 Q12.95 7.45 12.3 7.7 11.6 8.0 11.1 7.25 10.6 6.55 11.45 6.15 12.3 5.8 12.65 6.6 M10.45 8.9 Q10.7 9.3 10.35 9.5 9.95 9.75 9.75 9.35 9.55 8.95 9.9 8.75 10.25 8.5 10.45 8.9 M9.35 1.25 Q9.75 1.95 9.1 2.35 8.4 2.8 8.0 2.05 7.65 1.35 8.3 0.95 8.9 0.55 9.35 1.25 M7.7 0.6 Q8.0 1.35 7.4 1.6 6.75 1.85 6.3 1.2 5.85 0.5 6.6 0.2 7.4 -0.15 7.7 0.6 M5.2 0.95 Q5.6 1.7 4.9 2.05 4.25 2.4 3.85 1.65 3.45 0.9 4.15 0.55 4.85 0.25 5.2 0.95 M3.0 0.95 Q3.5 1.75 2.75 1.95 2.0 2.15 1.7 1.6 1.45 1.0 1.95 0.6 2.45 0.15 3.0 0.95 M0.4 0.5 Q0.95 1.4 0.1 1.9 -0.75 2.45 -1.25 1.55 -1.7 0.65 -0.9 0.1 -0.1 -0.4 0.4 0.5 M1.05 2.45 Q1.3 3.05 0.8 3.25 0.3 3.45 -0.1 2.95 -0.45 2.4 0.15 2.1 0.8 1.85 1.05 2.45 M2.65 4.55 Q3.05 5.25 2.4 5.55 1.75 5.9 1.35 5.2 1.0 4.45 1.65 4.15 2.3 3.85 2.65 4.55 M4.0 5.85 Q4.65 6.85 3.75 7.05 2.8 7.3 2.45 6.6 2.1 5.9 2.75 5.4 3.4 4.9 4.0 5.85 M5.15 7.9 Q5.45 8.4 5.0 8.65 4.55 8.95 4.3 8.45 4.0 8.0 4.45 7.7 4.9 7.45 5.15 7.9 M7.2 9.3 Q7.5 10.05 6.85 10.35 6.2 10.6 5.7 9.9 5.25 9.2 6.05 8.85 6.85 8.5 7.2 9.3 M8.2 11.65 Q8.55 12.3 7.9 12.65 7.3 12.95 6.95 12.25 6.6 11.6 7.2 11.3 7.85 11.0 8.2 11.65 M9.25 10.25 Q9.75 11.05 9.0 11.25 8.25 11.45 7.95 10.9 7.7 10.3 8.2 9.9 8.7 9.45 9.25 10.25" fill="#b3aa00" fill-rule="evenodd" stroke="none"/>
    </g>
    <linearGradient gradientTransform="matrix(0.0, -0.0041, 0.009, 0.0, 6.45, 4.35)" gradientUnits="userSpaceOnUse" id="gradient0" spreadMethod="pad" x1="-819.2" x2="819.2">
      <stop offset="0.0" stop-color="#eeeeee" stop-opacity="0.0"/>
      <stop offset="1.0" stop-color="#ffffff" stop-opacity="0.3019608"/>
    </linearGradient>
    <g id="sprite5" transform="matrix(1.0, 0.0, 0.0, 1.0, -0.1, 0.55)">
      <use ffdec:characterId="109" height="53.3" transform="matrix(1.0, 0.0, 0.0, 1.0, 0.1, -0.55)" width="14.5" xlink:href="#shape3"/>
    </g>
    <g id="shape3" transform="matrix(1.0, 0.0, 0.0, 1.0, -0.1, 0.55)">
      <path d="M14.6 0.0 L14.6 4.95 14.6 48.05 14.6 52.0 11.6 52.0 11.6 48.05 11.6 4.95 11.6 0.0 14.6 0.0" fill="#ff0000" fill-opacity="0.0" fill-rule="evenodd" stroke="none"/>
      <path d="M12.55 0.5 L12.55 4.95 12.55 48.05 12.55 51.5 8.05 51.5 1.2 51.5 1.2 48.05 1.2 4.95 1.2 0.5 8.05 0.5 12.55 0.5" fill="#ffff00" fill-rule="evenodd" stroke="none"/>
      <path d="M13.25 47.25 Q13.65 47.75 13.35 48.1 L12.95 48.35 Q12.05 48.8 11.8 48.1 11.55 47.45 12.1 47.0 12.7 46.6 13.25 47.25 M13.5 4.25 L13.6 5.0 13.1 5.6 Q12.35 6.1 11.85 5.2 11.35 4.35 12.25 3.9 13.15 3.5 13.5 4.25 M3.65 -0.05 Q4.1 0.7 3.4 1.1 2.65 1.45 2.15 0.8 1.7 0.1 2.45 -0.35 3.2 -0.85 3.65 -0.05 M5.55 0.25 Q5.8 0.7 5.4 1.0 5.0 1.3 4.6 0.85 4.2 0.4 4.75 0.05 5.25 -0.25 5.55 0.25 M8.4 0.0 Q9.15 0.85 8.0 1.4 6.85 2.0 6.5 1.1 6.15 0.25 6.9 -0.35 7.7 -0.9 8.4 0.0 M10.45 0.1 Q10.6 0.5 10.2 0.8 9.85 1.05 9.6 0.6 9.3 0.15 9.8 -0.1 10.25 -0.3 10.45 0.1 M13.15 0.15 Q13.55 0.85 12.95 1.25 L12.3 1.35 Q11.7 1.6 11.3 1.0 10.85 0.35 11.55 -0.1 L12.3 -0.2 Q12.85 -0.45 13.15 0.15 M10.55 51.1 Q11.05 52.0 10.25 52.55 9.45 53.05 8.75 52.25 8.05 51.4 9.05 50.8 10.0 50.15 10.55 51.1 M5.5 51.1 Q5.75 51.7 5.2 52.1 4.6 52.5 4.2 51.8 3.85 51.1 4.55 50.8 5.25 50.5 5.5 51.1 M3.4 51.05 Q3.8 51.75 3.15 52.1 2.45 52.45 2.0 51.85 L1.85 51.5 1.65 51.65 Q1.0 52.05 0.45 51.45 -0.1 50.8 0.7 50.3 1.45 49.8 1.85 50.5 L2.0 51.0 2.25 50.8 Q2.95 50.35 3.4 51.05 M8.0 51.25 Q8.35 51.7 7.8 51.95 7.25 52.2 7.1 51.8 6.95 51.4 7.3 51.1 7.65 50.85 8.0 51.25 M13.45 50.15 Q13.75 50.8 13.1 51.3 L12.3 51.35 12.0 51.75 Q11.6 51.95 11.3 51.55 11.0 51.15 11.45 50.9 L11.9 50.8 Q11.65 50.1 12.35 49.8 13.15 49.45 13.45 50.15 M13.2 25.0 Q13.55 25.6 12.95 25.9 12.4 26.2 12.0 25.65 11.6 25.15 12.2 24.75 12.85 24.4 13.2 25.0 M13.25 36.55 Q13.6 37.15 13.1 37.5 12.55 37.9 12.05 37.3 11.6 36.75 12.25 36.35 12.9 35.9 13.25 36.55 M1.9 36.5 Q2.15 37.15 1.55 37.6 0.95 38.0 0.55 37.3 0.15 36.55 0.85 36.2 1.6 35.9 1.9 36.5 M13.3 42.6 Q13.7 43.3 13.05 43.65 12.35 44.0 11.9 43.4 11.5 42.75 12.15 42.35 12.85 41.9 13.3 42.6 M13.35 44.8 Q13.95 45.85 13.05 46.45 12.15 47.05 11.35 46.1 10.5 45.2 11.65 44.45 12.75 43.75 13.35 44.8 M13.1 38.05 Q13.45 38.5 12.85 38.75 12.3 39.05 12.15 38.6 11.95 38.15 12.35 37.9 12.7 37.6 13.1 38.05 M13.15 40.7 Q13.5 41.5 12.75 42.05 12.0 42.55 11.5 41.65 11.0 40.8 11.9 40.35 12.8 39.95 13.15 40.7 M1.7 43.65 Q2.1 44.25 1.5 44.6 0.9 44.9 0.5 44.35 0.1 43.75 0.7 43.4 1.35 43.0 1.7 43.65 M1.6 46.55 Q1.8 46.95 1.4 47.25 0.95 47.55 0.7 47.05 0.4 46.55 0.9 46.35 1.45 46.1 1.6 46.55 M1.55 48.35 Q2.05 48.95 1.3 49.35 0.5 49.7 0.3 49.1 0.05 48.55 0.55 48.15 1.05 47.8 1.55 48.35 M2.6 38.75 Q3.3 39.6 2.15 40.15 1.05 40.7 0.75 39.85 0.4 39.0 1.15 38.45 1.9 37.9 2.6 38.75 M2.2 41.25 Q2.6 42.0 2.0 42.4 1.35 42.8 0.8 42.2 0.25 41.55 1.05 41.05 1.8 40.55 2.2 41.25 M1.7 34.15 Q2.1 34.85 1.45 35.2 0.8 35.5 0.4 34.9 0.0 34.3 0.65 33.9 1.3 33.5 1.7 34.15 M1.8 31.7 Q2.15 32.3 1.65 32.65 1.1 33.05 0.6 32.45 0.15 31.9 0.8 31.5 1.45 31.05 1.8 31.7 M2.15 27.2 Q2.5 28.0 1.75 28.55 1.0 29.05 0.5 28.15 0.0 27.3 0.9 26.85 L1.3 26.75 0.9 26.4 Q0.45 25.7 1.2 25.25 1.95 24.75 2.4 25.55 2.85 26.3 2.15 26.7 L1.85 26.8 2.15 27.2 M2.25 29.3 Q2.75 29.9 1.9 30.35 1.1 30.75 0.85 30.1 0.55 29.45 1.15 29.05 1.7 28.65 2.25 29.3 M13.45 33.95 Q13.95 34.8 13.15 35.25 12.3 35.65 11.8 34.9 11.25 34.1 12.1 33.6 12.95 33.05 13.45 33.95 M13.7 31.4 Q13.95 32.05 13.35 32.5 12.75 32.9 12.35 32.2 11.95 31.45 12.65 31.1 13.4 30.8 13.7 31.4 M13.6 26.75 Q14.1 27.65 13.35 28.15 12.6 28.65 11.9 27.9 11.2 27.1 12.15 26.5 13.1 25.9 13.6 26.75 M13.1 28.85 Q13.6 29.4 12.85 29.75 12.15 30.1 11.9 29.55 11.7 29.0 12.2 28.65 12.65 28.3 13.1 28.85 M1.95 12.0 Q2.45 12.6 1.7 13.0 0.9 13.35 0.7 12.75 0.45 12.2 0.95 11.8 1.45 11.45 1.95 12.0 M13.1 18.35 Q13.45 19.05 13.0 19.45 13.25 19.5 13.5 19.8 14.0 20.4 13.2 20.8 12.4 21.2 12.15 20.6 11.9 20.0 12.4 19.65 12.0 19.65 11.7 19.3 11.15 18.65 11.95 18.15 12.7 17.65 13.1 18.35 M13.3 22.5 Q13.55 23.1 13.0 23.5 12.4 23.9 12.0 23.2 11.65 22.5 12.35 22.2 13.05 21.9 13.3 22.5 M13.55 13.7 Q13.95 14.6 13.05 15.25 L12.85 15.4 13.25 15.85 Q13.75 16.7 12.95 17.1 12.2 17.5 11.65 16.75 11.15 16.05 11.95 15.5 L12.15 15.4 11.6 14.8 Q11.0 13.75 12.05 13.25 13.15 12.75 13.55 13.7 M1.85 18.8 Q2.2 19.55 1.45 20.05 0.75 20.55 0.25 19.7 -0.2 18.85 0.65 18.45 1.55 18.05 1.85 18.8 M1.85 21.05 Q2.15 21.4 1.7 21.65 1.2 21.9 1.05 21.55 0.9 21.15 1.2 20.9 1.55 20.65 1.85 21.05 M2.05 23.05 Q2.55 23.9 1.8 24.4 1.1 24.85 0.45 24.1 -0.25 23.35 0.7 22.75 1.6 22.2 2.05 23.05 M2.35 16.7 Q2.85 17.55 2.05 17.95 1.3 18.35 0.75 17.6 0.25 16.9 1.05 16.35 1.9 15.85 2.35 16.7 M2.15 13.85 Q2.55 14.6 1.9 15.05 1.25 15.45 0.7 14.8 0.1 14.1 0.9 13.6 1.7 13.1 2.15 13.85 M2.05 5.5 Q2.35 6.05 1.9 6.35 1.4 6.7 1.0 6.2 0.55 5.7 1.15 5.3 1.75 4.9 2.05 5.5 M1.85 9.95 Q2.1 10.55 1.55 10.95 0.95 11.35 0.55 10.65 0.2 9.95 0.9 9.65 1.6 9.35 1.85 9.95 M1.9 7.35 Q2.35 8.1 1.65 8.45 0.95 8.8 0.5 8.15 0.05 7.5 0.75 7.05 1.5 6.6 1.9 7.35 M2.1 2.35 Q2.7 3.05 1.75 3.5 0.85 3.9 0.55 3.2 0.3 2.55 0.9 2.1 1.5 1.6 2.1 2.35 M1.7 0.85 Q1.85 1.25 1.45 1.55 1.1 1.8 0.85 1.35 0.55 0.9 1.05 0.65 1.5 0.45 1.7 0.85 M13.2 8.8 Q13.6 9.55 13.0 9.95 12.35 10.35 11.8 9.75 11.25 9.1 12.05 8.6 12.8 8.1 13.2 8.8 M13.3 6.95 Q13.65 7.55 13.05 7.85 12.5 8.15 12.1 7.6 11.7 7.1 12.3 6.7 12.95 6.35 13.3 6.95 M13.05 11.4 Q13.45 11.9 12.8 12.2 12.15 12.5 11.95 12.05 11.75 11.55 12.2 11.2 12.65 10.9 13.05 11.4 M13.3 2.05 Q13.8 2.65 13.0 3.05 12.2 3.45 11.95 2.85 11.7 2.2 12.25 1.85 12.8 1.45 13.3 2.05" fill="#b3aa00" fill-rule="evenodd" stroke="none"/>
    </g>
    <g id="sprite6" transform="matrix(1.0, 0.0, 0.0, 1.0, 1.4, 0.1)">
      <use ffdec:characterId="107" height="14.1" transform="matrix(1.0, 0.0, 0.0, 1.0, -1.4, -0.1)" width="17.7" xlink:href="#shape2"/>
    </g>
    <g id="sprite7" transform="matrix(1.0, 0.0, 0.0, 1.0, -0.1, 0.55)">
      <use ffdec:characterId="109" height="53.3" transform="matrix(1.0, 0.0, 0.0, 1.0, 0.1, -0.55)" width="14.5" xlink:href="#shape3"/>
    </g>
    <g id="sprite8" transform="matrix(1.0, 0.0, 0.0, 1.0, 1.0, 0.0)">
      <use ffdec:characterId="105" height="14.0" transform="matrix(1.0, 0.0, 0.0, 1.0, -1.0, 0.0)" width="17.7" xlink:href="#shape1"/>
    </g>
    <g id="sprite9" transform="matrix(1.0, 0.0, 0.0, 1.0, 1.0, 0.0)">
      <use ffdec:characterId="114" height="14.0" transform="matrix(1.0, 0.0, 0.0, 1.0, -1.0, 0.0)" width="17.7" xlink:href="#shape4"/>
    </g>
    <g id="shape4" transform="matrix(1.0, 0.0, 0.0, 1.0, 1.0, 0.0)">
      <path d="M1.0 13.0 L1.0 1.0 14.0 1.0 14.0 13.0 1.0 13.0" fill="#0000ff" fill-opacity="0.0" fill-rule="evenodd" stroke="none"/>
      <path d="M15.7 12.55 L-0.5 12.55 7.6 1.85 15.7 12.55" fill="#eaea00" fill-rule="evenodd" stroke="none"/>
      <path d="M11.2 4.85 Q11.65 5.45 11.0 5.75 10.3 6.1 9.95 5.55 9.6 5.0 10.2 4.65 10.8 4.3 11.2 4.85 M13.6 7.9 Q13.95 8.35 13.4 8.7 12.8 9.05 12.5 8.5 12.2 7.9 12.75 7.7 13.25 7.45 13.6 7.9 M12.3 6.7 Q13.0 7.3 11.95 8.15 10.9 8.95 10.55 8.05 10.15 7.15 10.85 6.6 L12.3 6.7 M11.6 12.0 Q12.0 12.6 11.45 12.85 10.9 13.05 10.6 12.65 10.3 12.25 10.75 11.8 11.15 11.35 11.6 12.0 M14.4 11.75 Q14.85 12.3 14.1 12.75 13.35 13.2 12.95 12.5 12.55 11.75 13.25 11.45 L13.75 11.4 13.55 11.2 Q13.15 10.6 13.7 10.0 14.3 9.35 14.95 10.25 15.55 11.15 14.75 11.45 L14.2 11.55 14.4 11.75 M14.55 13.1 L14.5 12.75 Q14.45 12.25 15.0 11.9 15.85 11.35 16.45 12.2 17.05 13.05 16.1 13.5 L14.8 13.4 14.55 13.1 M8.45 1.65 Q8.75 2.05 8.5 2.4 L9.15 2.9 Q9.75 3.8 8.95 4.1 8.2 4.4 7.75 3.85 7.4 3.35 7.8 2.8 7.3 2.9 7.0 2.4 6.6 1.65 7.3 1.35 8.0 1.1 8.45 1.65 M5.7 5.35 Q6.2 6.05 5.45 6.4 4.7 6.75 4.3 6.15 3.9 5.55 4.55 5.1 L4.85 5.0 4.8 4.85 Q4.45 4.05 5.1 3.55 L6.35 3.6 Q7.0 4.15 6.05 4.9 L5.55 5.2 5.7 5.35 M4.2 7.35 Q4.75 8.1 4.1 8.35 3.45 8.6 3.1 8.1 2.7 7.65 3.2 7.1 3.7 6.6 4.2 7.35 M0.05 12.7 Q-0.55 13.0 -0.85 12.5 -1.2 12.05 -0.65 11.7 L-0.4 11.6 Q-0.45 11.05 0.0 10.7 L1.2 10.8 Q1.85 11.3 0.95 12.0 L0.4 12.3 0.05 12.7 M3.2 8.85 Q3.65 9.4 2.9 9.85 2.15 10.3 1.75 9.6 1.35 8.85 2.05 8.55 2.75 8.3 3.2 8.85 M9.85 11.8 Q10.4 12.55 9.55 13.0 8.7 13.4 8.25 12.7 7.8 12.0 8.55 11.55 9.3 11.05 9.85 11.8 M6.85 11.8 Q7.35 12.2 6.6 12.75 6.05 13.15 5.8 12.95 L5.35 13.4 Q4.55 13.85 4.15 13.1 3.75 12.3 4.45 12.0 5.1 11.75 5.6 12.25 5.6 11.95 5.9 11.75 L6.85 11.8 M3.05 12.4 Q3.45 12.95 2.95 13.1 2.5 13.3 2.25 12.95 1.95 12.6 2.35 12.2 2.7 11.85 3.05 12.4" fill="#b3aa00" fill-rule="evenodd" stroke="none"/>
      <path d="M14.0 13.0 L14.0 1.0 1.0 1.0 1.0 13.0 14.0 13.0 M15.0 0.0 L15.0 14.0 0.0 14.0 0.0 0.0 15.0 0.0" fill="#0000ff" fill-opacity="0.0" fill-rule="evenodd" stroke="none"/>
    </g>
    <g id="sprite10" transform="matrix(1.0, 0.0, 0.0, 1.0, -0.1, 0.55)">
      <use ffdec:characterId="116" height="53.3" transform="matrix(1.0, 0.0, 0.0, 1.0, 0.1, -0.55)" width="14.5" xlink:href="#shape5"/>
    </g>
    <g id="shape5" transform="matrix(1.0, 0.0, 0.0, 1.0, -0.1, 0.55)">
      <path d="M14.6 0.0 L14.6 4.95 14.6 48.05 14.6 52.0 11.6 52.0 11.6 48.05 11.6 4.95 11.6 0.0 14.6 0.0" fill="#ff0000" fill-opacity="0.0" fill-rule="evenodd" stroke="none"/>
      <path d="M12.55 0.5 L12.55 4.95 12.55 48.05 12.55 51.5 8.05 51.5 1.2 51.5 1.2 48.05 1.2 4.95 1.2 0.5 8.05 0.5 12.55 0.5" fill="#ecec00" fill-rule="evenodd" stroke="none"/>
      <path d="M13.25 47.25 Q13.65 47.75 13.35 48.1 L12.95 48.35 Q12.05 48.8 11.8 48.1 11.55 47.45 12.1 47.0 12.7 46.6 13.25 47.25 M13.5 4.25 L13.6 5.0 13.1 5.6 Q12.35 6.1 11.85 5.2 11.35 4.35 12.25 3.9 13.15 3.5 13.5 4.25 M3.65 -0.05 Q4.1 0.7 3.4 1.1 2.65 1.45 2.15 0.8 1.7 0.1 2.45 -0.35 3.2 -0.85 3.65 -0.05 M5.55 0.25 Q5.8 0.7 5.4 1.0 5.0 1.3 4.6 0.85 4.2 0.4 4.75 0.05 5.25 -0.25 5.55 0.25 M8.4 0.0 Q9.15 0.85 8.0 1.4 6.85 2.0 6.5 1.1 6.15 0.25 6.9 -0.35 7.7 -0.9 8.4 0.0 M10.45 0.1 Q10.6 0.5 10.2 0.8 9.85 1.05 9.6 0.6 9.3 0.15 9.8 -0.1 10.25 -0.3 10.45 0.1 M13.15 0.15 Q13.55 0.85 12.95 1.25 L12.3 1.35 Q11.7 1.6 11.3 1.0 10.85 0.35 11.55 -0.1 L12.3 -0.2 Q12.85 -0.45 13.15 0.15 M10.55 51.1 Q11.05 52.0 10.25 52.55 9.45 53.05 8.75 52.25 8.05 51.4 9.05 50.8 10.0 50.15 10.55 51.1 M5.5 51.1 Q5.75 51.7 5.2 52.1 4.6 52.5 4.2 51.8 3.85 51.1 4.55 50.8 5.25 50.5 5.5 51.1 M3.4 51.05 Q3.8 51.75 3.15 52.1 2.45 52.45 2.0 51.85 L1.85 51.5 1.65 51.65 Q1.0 52.05 0.45 51.45 -0.1 50.8 0.7 50.3 1.45 49.8 1.85 50.5 L2.0 51.0 2.25 50.8 Q2.95 50.35 3.4 51.05 M8.0 51.25 Q8.35 51.7 7.8 51.95 7.25 52.2 7.1 51.8 6.95 51.4 7.3 51.1 7.65 50.85 8.0 51.25 M13.45 50.15 Q13.75 50.8 13.1 51.3 L12.3 51.35 12.0 51.75 Q11.6 51.95 11.3 51.55 11.0 51.15 11.45 50.9 L11.9 50.8 Q11.65 50.1 12.35 49.8 13.15 49.45 13.45 50.15 M13.2 25.0 Q13.55 25.6 12.95 25.9 12.4 26.2 12.0 25.65 11.6 25.15 12.2 24.75 12.85 24.4 13.2 25.0 M13.25 36.55 Q13.6 37.15 13.1 37.5 12.55 37.9 12.05 37.3 11.6 36.75 12.25 36.35 12.9 35.9 13.25 36.55 M1.9 36.5 Q2.15 37.15 1.55 37.6 0.95 38.0 0.55 37.3 0.15 36.55 0.85 36.2 1.6 35.9 1.9 36.5 M13.3 42.6 Q13.7 43.3 13.05 43.65 12.35 44.0 11.9 43.4 11.5 42.75 12.15 42.35 12.85 41.9 13.3 42.6 M13.35 44.8 Q13.95 45.85 13.05 46.45 12.15 47.05 11.35 46.1 10.5 45.2 11.65 44.45 12.75 43.75 13.35 44.8 M13.1 38.05 Q13.45 38.5 12.85 38.75 12.3 39.05 12.15 38.6 11.95 38.15 12.35 37.9 12.7 37.6 13.1 38.05 M13.15 40.7 Q13.5 41.5 12.75 42.05 12.0 42.55 11.5 41.65 11.0 40.8 11.9 40.35 12.8 39.95 13.15 40.7 M1.7 43.65 Q2.1 44.25 1.5 44.6 0.9 44.9 0.5 44.35 0.1 43.75 0.7 43.4 1.35 43.0 1.7 43.65 M1.6 46.55 Q1.8 46.95 1.4 47.25 0.95 47.55 0.7 47.05 0.4 46.55 0.9 46.35 1.45 46.1 1.6 46.55 M1.55 48.35 Q2.05 48.95 1.3 49.35 0.5 49.7 0.3 49.1 0.05 48.55 0.55 48.15 1.05 47.8 1.55 48.35 M2.6 38.75 Q3.3 39.6 2.15 40.15 1.05 40.7 0.75 39.85 0.4 39.0 1.15 38.45 1.9 37.9 2.6 38.75 M2.2 41.25 Q2.6 42.0 2.0 42.4 1.35 42.8 0.8 42.2 0.25 41.55 1.05 41.05 1.8 40.55 2.2 41.25 M1.7 34.15 Q2.1 34.85 1.45 35.2 0.8 35.5 0.4 34.9 0.0 34.3 0.65 33.9 1.3 33.5 1.7 34.15 M1.8 31.7 Q2.15 32.3 1.65 32.65 1.1 33.05 0.6 32.45 0.15 31.9 0.8 31.5 1.45 31.05 1.8 31.7 M2.15 27.2 Q2.5 28.0 1.75 28.55 1.0 29.05 0.5 28.15 0.0 27.3 0.9 26.85 L1.3 26.75 0.9 26.4 Q0.45 25.7 1.2 25.25 1.95 24.75 2.4 25.55 2.85 26.3 2.15 26.7 L1.85 26.8 2.15 27.2 M2.25 29.3 Q2.75 29.9 1.9 30.35 1.1 30.75 0.85 30.1 0.55 29.45 1.15 29.05 1.7 28.65 2.25 29.3 M13.45 33.95 Q13.95 34.8 13.15 35.25 12.3 35.65 11.8 34.9 11.25 34.1 12.1 33.6 12.95 33.05 13.45 33.95 M13.7 31.4 Q13.95 32.05 13.35 32.5 12.75 32.9 12.35 32.2 11.95 31.45 12.65 31.1 13.4 30.8 13.7 31.4 M13.6 26.75 Q14.1 27.65 13.35 28.15 12.6 28.65 11.9 27.9 11.2 27.1 12.15 26.5 13.1 25.9 13.6 26.75 M13.1 28.85 Q13.6 29.4 12.85 29.75 12.15 30.1 11.9 29.55 11.7 29.0 12.2 28.65 12.65 28.3 13.1 28.85 M1.95 12.0 Q2.45 12.6 1.7 13.0 0.9 13.35 0.7 12.75 0.45 12.2 0.95 11.8 1.45 11.45 1.95 12.0 M13.1 18.35 Q13.45 19.05 13.0 19.45 13.25 19.5 13.5 19.8 14.0 20.4 13.2 20.8 12.4 21.2 12.15 20.6 11.9 20.0 12.4 19.65 12.0 19.65 11.7 19.3 11.15 18.65 11.95 18.15 12.7 17.65 13.1 18.35 M13.3 22.5 Q13.55 23.1 13.0 23.5 12.4 23.9 12.0 23.2 11.65 22.5 12.35 22.2 13.05 21.9 13.3 22.5 M13.55 13.7 Q13.95 14.6 13.05 15.25 L12.85 15.4 13.25 15.85 Q13.75 16.7 12.95 17.1 12.2 17.5 11.65 16.75 11.15 16.05 11.95 15.5 L12.15 15.4 11.6 14.8 Q11.0 13.75 12.05 13.25 13.15 12.75 13.55 13.7 M1.85 18.8 Q2.2 19.55 1.45 20.05 0.75 20.55 0.25 19.7 -0.2 18.85 0.65 18.45 1.55 18.05 1.85 18.8 M1.85 21.05 Q2.15 21.4 1.7 21.65 1.2 21.9 1.05 21.55 0.9 21.15 1.2 20.9 1.55 20.65 1.85 21.05 M2.05 23.05 Q2.55 23.9 1.8 24.4 1.1 24.85 0.45 24.1 -0.25 23.35 0.7 22.75 1.6 22.2 2.05 23.05 M2.35 16.7 Q2.85 17.55 2.05 17.95 1.3 18.35 0.75 17.6 0.25 16.9 1.05 16.35 1.9 15.85 2.35 16.7 M2.15 13.85 Q2.55 14.6 1.9 15.05 1.25 15.45 0.7 14.8 0.1 14.1 0.9 13.6 1.7 13.1 2.15 13.85 M2.05 5.5 Q2.35 6.05 1.9 6.35 1.4 6.7 1.0 6.2 0.55 5.7 1.15 5.3 1.75 4.9 2.05 5.5 M1.85 9.95 Q2.1 10.55 1.55 10.95 0.95 11.35 0.55 10.65 0.2 9.95 0.9 9.65 1.6 9.35 1.85 9.95 M1.9 7.35 Q2.35 8.1 1.65 8.45 0.95 8.8 0.5 8.15 0.05 7.5 0.75 7.05 1.5 6.6 1.9 7.35 M2.1 2.35 Q2.7 3.05 1.75 3.5 0.85 3.9 0.55 3.2 0.3 2.55 0.9 2.1 1.5 1.6 2.1 2.35 M1.7 0.85 Q1.85 1.25 1.45 1.55 1.1 1.8 0.85 1.35 0.55 0.9 1.05 0.65 1.5 0.45 1.7 0.85 M13.2 8.8 Q13.6 9.55 13.0 9.95 12.35 10.35 11.8 9.75 11.25 9.1 12.05 8.6 12.8 8.1 13.2 8.8 M13.3 6.95 Q13.65 7.55 13.05 7.85 12.5 8.15 12.1 7.6 11.7 7.1 12.3 6.7 12.95 6.35 13.3 6.95 M13.05 11.4 Q13.45 11.9 12.8 12.2 12.15 12.5 11.95 12.05 11.75 11.55 12.2 11.2 12.65 10.9 13.05 11.4 M13.3 2.05 Q13.8 2.65 13.0 3.05 12.2 3.45 11.95 2.85 11.7 2.2 12.25 1.85 12.8 1.45 13.3 2.05" fill="#b3aa00" fill-rule="evenodd" stroke="none"/>
    </g>
    <g id="sprite11" transform="matrix(1.0, 0.0, 0.0, 1.0, 1.4, 0.1)">
      <use ffdec:characterId="118" height="14.1" transform="matrix(1.0, 0.0, 0.0, 1.0, -1.4, -0.1)" width="17.7" xlink:href="#shape6"/>
    </g>
    <g id="shape6" transform="matrix(1.0, 0.0, 0.0, 1.0, 1.4, 0.1)">
      <path d="M14.0 13.0 L1.0 13.0 1.0 1.0 14.0 1.0 14.0 13.0" fill="#0000ff" fill-opacity="0.0" fill-rule="evenodd" stroke="none"/>
      <path d="M15.0 0.0 L15.0 14.0 0.0 14.0 0.0 0.0 15.0 0.0 M14.0 13.0 L14.0 1.0 1.0 1.0 1.0 13.0 14.0 13.0" fill="#0000ff" fill-opacity="0.0" fill-rule="evenodd" stroke="none"/>
      <path d="M1.0 1.0 L14.0 1.0 14.0 7.5 1.0 7.5 1.0 1.0" fill="url(#gradient1)" fill-rule="evenodd" stroke="none"/>
      <path d="M15.7 1.35 L7.6 12.05 -0.5 1.35 15.7 1.35" fill="#eaea00" fill-rule="evenodd" stroke="none"/>
      <path d="M16.1 0.9 L16.2 1.5 Q16.5 2.15 15.9 2.5 15.25 2.9 14.9 2.25 14.7 1.8 14.85 1.5 L14.8 1.45 Q14.35 0.85 15.05 0.5 15.8 0.2 16.1 0.9 M13.8 1.1 Q14.2 1.8 13.55 2.1 12.9 2.45 12.5 1.75 12.15 1.0 12.8 0.7 13.45 0.4 13.8 1.1 M11.95 1.05 Q12.65 2.1 11.65 2.35 10.7 2.6 10.3 1.85 9.9 1.05 10.6 0.5 11.3 0.0 11.95 1.05 M15.3 3.45 Q15.85 4.3 15.05 4.55 14.25 4.75 13.9 4.1 13.6 3.5 14.15 3.05 14.7 2.55 15.3 3.45 M13.5 5.35 Q13.75 5.75 13.35 6.0 12.95 6.2 12.7 5.75 12.5 5.3 12.9 5.1 13.3 4.9 13.5 5.35 M12.65 6.6 Q12.95 7.45 12.3 7.7 11.6 8.0 11.1 7.25 10.6 6.55 11.45 6.15 12.3 5.8 12.65 6.6 M10.45 8.9 Q10.7 9.3 10.35 9.5 9.95 9.75 9.75 9.35 9.55 8.95 9.9 8.75 10.25 8.5 10.45 8.9 M9.35 1.25 Q9.75 1.95 9.1 2.35 8.4 2.8 8.0 2.05 7.65 1.35 8.3 0.95 8.9 0.55 9.35 1.25 M7.7 0.6 Q8.0 1.35 7.4 1.6 6.75 1.85 6.3 1.2 5.85 0.5 6.6 0.2 7.4 -0.15 7.7 0.6 M5.2 0.95 Q5.6 1.7 4.9 2.05 4.25 2.4 3.85 1.65 3.45 0.9 4.15 0.55 4.85 0.25 5.2 0.95 M3.0 0.95 Q3.5 1.75 2.75 1.95 2.0 2.15 1.7 1.6 1.45 1.0 1.95 0.6 2.45 0.15 3.0 0.95 M0.4 0.5 Q0.95 1.4 0.1 1.9 -0.75 2.45 -1.25 1.55 -1.7 0.65 -0.9 0.1 -0.1 -0.4 0.4 0.5 M1.05 2.45 Q1.3 3.05 0.8 3.25 0.3 3.45 -0.1 2.95 -0.45 2.4 0.15 2.1 0.8 1.85 1.05 2.45 M2.65 4.55 Q3.05 5.25 2.4 5.55 1.75 5.9 1.35 5.2 1.0 4.45 1.65 4.15 2.3 3.85 2.65 4.55 M4.0 5.85 Q4.65 6.85 3.75 7.05 2.8 7.3 2.45 6.6 2.1 5.9 2.75 5.4 3.4 4.9 4.0 5.85 M5.15 7.9 Q5.45 8.4 5.0 8.65 4.55 8.95 4.3 8.45 4.0 8.0 4.45 7.7 4.9 7.45 5.15 7.9 M7.2 9.3 Q7.5 10.05 6.85 10.35 6.2 10.6 5.7 9.9 5.25 9.2 6.05 8.85 6.85 8.5 7.2 9.3 M8.2 11.65 Q8.55 12.3 7.9 12.65 7.3 12.95 6.95 12.25 6.6 11.6 7.2 11.3 7.85 11.0 8.2 11.65 M9.25 10.25 Q9.75 11.05 9.0 11.25 8.25 11.45 7.95 10.9 7.7 10.3 8.2 9.9 8.7 9.45 9.25 10.25" fill="#b3aa00" fill-rule="evenodd" stroke="none"/>
    </g>
    <linearGradient gradientTransform="matrix(0.0, -0.0041, 0.009, 0.0, 6.45, 4.35)" gradientUnits="userSpaceOnUse" id="gradient1" spreadMethod="pad" x1="-819.2" x2="819.2">
      <stop offset="0.0" stop-color="#eeeeee" stop-opacity="0.0"/>
      <stop offset="1.0" stop-color="#ffffff" stop-opacity="0.3019608"/>
    </linearGradient>
    <g id="sprite12" transform="matrix(1.0, 0.0, 0.0, 1.0, 0.0, 0.0)">
      <use ffdec:characterId="120" height="14.0" transform="matrix(1.0, 0.0, 0.0, 1.0, 0.0, 0.0)" width="15.0" xlink:href="#shape7"/>
    </g>
    <g id="shape7" transform="matrix(1.0, 0.0, 0.0, 1.0, 0.0, 0.0)">
      <path d="M14.0 13.0 L1.0 13.0 1.0 1.0 14.0 1.0 14.0 13.0" fill="#ffffff" fill-opacity="0.0" fill-rule="evenodd" stroke="none"/>
      <path d="M15.0 0.0 L15.0 14.0 0.0 14.0 0.0 0.0 15.0 0.0 M1.0 1.0 L1.0 13.0 14.0 13.0 14.0 1.0 1.0 1.0" fill="#ffffff" fill-opacity="0.0" fill-rule="evenodd" stroke="none"/>
      <path d="M1.0 0.75 L14.0 0.75 14.0 7.25 1.0 7.25 1.0 0.75" fill="#ffff00" fill-opacity="0.0" fill-rule="evenodd" stroke="none"/>
    </g>
  </defs>
</svg>
