<?xml version="1.0" encoding="UTF-8" standalone="no"?>
<svg xmlns:ffdec="https://www.free-decompiler.com/flash" xmlns:xlink="http://www.w3.org/1999/xlink" ffdec:objectType="frame" height="87.55px" width="114.6px" xmlns="http://www.w3.org/2000/svg">
  <g transform="matrix(1.0, 0.0, 0.0, 1.0, 0.0, 0.0)">
    <use ffdec:characterId="124" height="87.55" transform="matrix(1.0, 0.0, 0.0, 1.0, 0.0, 0.0)" width="114.6" xlink:href="#shape0"/>
  </g>
  <defs>
    <g id="shape0" transform="matrix(1.0, 0.0, 0.0, 1.0, 0.0, 0.0)">
      <path d="M110.0 1.8 Q117.1 11.95 113.25 28.05 111.3 32.75 111.5 50.3 109.4 59.2 111.0 66.3 115.0 78.3 110.25 81.55 103.3 86.55 97.55 84.75 72.05 88.6 55.8 84.6 57.25 87.35 46.25 87.55 35.35 86.05 37.3 83.7 L37.2 83.55 Q35.9 85.55 24.3 86.85 8.25 88.05 3.55 85.2 0.7 84.65 0.0 83.8 1.35 73.0 5.25 73.7 9.15 74.4 8.9 75.1 L9.85 73.9 Q16.0 66.75 32.25 71.3 37.35 64.95 48.0 65.05 54.05 63.2 58.75 63.05 64.05 56.35 82.0 54.9 93.9 43.75 94.5 30.3 95.5 14.7 103.0 9.8 99.8 10.8 98.5 9.05 97.2 4.85 99.75 2.55 105.35 -2.15 110.0 1.8" fill="#4aa613" fill-rule="evenodd" stroke="none"/>
    </g>
  </defs>
</svg>
