<?xml version="1.0" encoding="UTF-8" standalone="no"?>
<svg xmlns:ffdec="https://www.free-decompiler.com/flash" xmlns:xlink="http://www.w3.org/1999/xlink" ffdec:objectType="frame" height="69.45px" width="157.85px" xmlns="http://www.w3.org/2000/svg">
  <g transform="matrix(1.0, 0.0, 0.0, 1.0, 78.9, 1.75)">
    <use ffdec:characterId="251" height="195.55" id="bg_mc" transform="matrix(1.0639, 0.0, 0.0, 0.355, -78.9078, -1.7395)" width="148.4" xlink:href="#sprite0"/>
    <use ffdec:characterId="1646" height="54.4" id="requirements_tx" transform="matrix(1.0, 0.0, 0.0, 1.0, -72.0, 6.0)" width="144.0" xlink:href="#text0"/>
  </g>
  <defs>
    <g id="sprite0" transform="matrix(1.0, 0.0, 0.0, 1.0, 5.6, 4.9)">
      <use ffdec:characterId="250" height="195.55" transform="matrix(1.0, 0.0, 0.0, 1.0, -5.6, -4.9)" width="148.4" xlink:href="#shape0"/>
    </g>
    <g id="shape0" transform="matrix(1.0, 0.0, 0.0, 1.0, 5.6, 4.9)">
      <path d="M-2.1 -1.9 L139.95 -1.9 139.95 187.95 -2.1 187.95 -2.1 -1.9" fill="#ffffff" fill-rule="evenodd" stroke="none"/>
      <path d="M-3.6 -2.9 L140.8 -2.9 140.8 188.65 -3.6 188.65 -3.6 -2.9 Z" fill="none" stroke="url(#gradient0)" stroke-linecap="round" stroke-linejoin="round" stroke-width="4.0"/>
      <path d="M-3.6 -2.9 L140.8 -2.9 140.8 188.65 -3.6 188.65 -3.6 -2.9 Z" ffdec:has-small-stroke="true" ffdec:original-stroke-width="1.0" fill="none" stroke="#ffffff" stroke-linecap="round" stroke-linejoin="round" stroke-opacity="0.5294118" stroke-width="1.26094240896507"/>
      <path d="M135.0 183.35 L-0.25 183.35 -0.25 2.95 135.0 2.95 135.0 183.35" fill="#dbf8ff" fill-rule="evenodd" stroke="none"/>
    </g>
    <radialGradient cx="0" cy="0" gradientTransform="matrix(0.1489, 0.0, 0.0, 0.1489, 68.6, 92.9)" gradientUnits="userSpaceOnUse" id="gradient0" r="819.2" spreadMethod="pad">
      <stop offset="0.1803921568627451" stop-color="#0849b8"/>
      <stop offset="0.984313725490196" stop-color="#1290ff"/>
    </radialGradient>
    <g id="text0" transform="matrix(1.0, 0.0, 0.0, 1.0, 2.0, 2.0)">
      <g transform="matrix(1.0, 0.0, 0.0, 1.0, -2.0, -2.0)">
        <use fill="#4e0463" height="54.4" transform="matrix(0.0137, 0.0, 0.0, 0.0137, 0.0, 13.25)" width="144.0" xlink:href="#font_GosmickSansBold_T0"/>
        <use fill="#4e0463" height="54.4" transform="matrix(0.0137, 0.0, 0.0, 0.0137, 2.5, 13.25)" width="144.0" xlink:href="#font_GosmickSansBold_o0"/>
      </g>
      <g transform="matrix(1.0, 0.0, 0.0, 1.0, -2.0, -2.0)">
        <use fill="#4e0463" height="54.4" transform="matrix(0.0137, 0.0, 0.0, 0.0137, 13.35, 13.25)" width="144.0" xlink:href="#font_GosmickSansBold_u0"/>
        <use fill="#4e0463" height="54.4" transform="matrix(0.0137, 0.0, 0.0, 0.0137, 20.0, 13.25)" width="144.0" xlink:href="#font_GosmickSansBold_n0"/>
        <use fill="#4e0463" height="54.4" transform="matrix(0.0137, 0.0, 0.0, 0.0137, 27.0, 13.25)" width="144.0" xlink:href="#font_GosmickSansBold_l0"/>
        <use fill="#4e0463" height="54.4" transform="matrix(0.0137, 0.0, 0.0, 0.0137, 29.4, 13.25)" width="144.0" xlink:href="#font_GosmickSansBold_o0"/>
        <use fill="#4e0463" height="54.4" transform="matrix(0.0137, 0.0, 0.0, 0.0137, 36.35, 13.25)" width="144.0" xlink:href="#font_GosmickSansBold_c0"/>
        <use fill="#4e0463" height="54.4" transform="matrix(0.0137, 0.0, 0.0, 0.0137, 42.8, 13.25)" width="144.0" xlink:href="#font_GosmickSansBold_k0"/>
      </g>
      <g transform="matrix(1.0, 0.0, 0.0, 1.0, -2.0, -2.0)">
        <use fill="#4e0463" height="54.4" transform="matrix(0.0137, 0.0, 0.0, 0.0137, 53.3, 13.25)" width="144.0" xlink:href="#font_GosmickSansBold_y0"/>
        <use fill="#4e0463" height="54.4" transform="matrix(0.0137, 0.0, 0.0, 0.0137, 59.3, 13.25)" width="144.0" xlink:href="#font_GosmickSansBold_o0"/>
        <use fill="#4e0463" height="54.4" transform="matrix(0.0137, 0.0, 0.0, 0.0137, 66.25, 13.25)" width="144.0" xlink:href="#font_GosmickSansBold_u0"/>
      </g>
      <g transform="matrix(1.0, 0.0, 0.0, 1.0, -2.0, -2.0)">
        <use fill="#4e0463" height="54.4" transform="matrix(0.0137, 0.0, 0.0, 0.0137, 76.8, 13.25)" width="144.0" xlink:href="#font_GosmickSansBold_n0"/>
        <use fill="#4e0463" height="54.4" transform="matrix(0.0137, 0.0, 0.0, 0.0137, 83.8, 13.25)" width="144.0" xlink:href="#font_GosmickSansBold_e0"/>
        <use fill="#4e0463" height="54.4" transform="matrix(0.0137, 0.0, 0.0, 0.0137, 89.4, 13.25)" width="144.0" xlink:href="#font_GosmickSansBold_e0"/>
        <use fill="#4e0463" height="54.4" transform="matrix(0.0137, 0.0, 0.0, 0.0137, 96.6, 13.25)" width="144.0" xlink:href="#font_GosmickSansBold_d0"/>
      </g>
      <g transform="matrix(1.0, 0.0, 0.0, 1.0, -2.0, -2.0)">
        <use fill="#4e0463" height="54.4" transform="matrix(0.0137, 0.0, 0.0, 0.0137, 0.0, 30.05)" width="144.0" xlink:href="#font_GosmickSansBold_j0"/>
        <use fill="#4e0463" height="54.4" transform="matrix(0.0137, 0.0, 0.0, 0.0137, 2.6, 30.05)" width="144.0" xlink:href="#font_GosmickSansBold_u0"/>
        <use fill="#4e0463" height="54.4" transform="matrix(0.0137, 0.0, 0.0, 0.0137, 9.25, 30.05)" width="144.0" xlink:href="#font_GosmickSansBold_g0"/>
        <use fill="#4e0463" height="54.4" transform="matrix(0.0137, 0.0, 0.0, 0.0137, 16.25, 30.05)" width="144.0" xlink:href="#font_GosmickSansBold_g0"/>
        <use fill="#4e0463" height="54.4" transform="matrix(0.0137, 0.0, 0.0, 0.0137, 23.25, 30.05)" width="144.0" xlink:href="#font_GosmickSansBold_l0"/>
        <use fill="#4e0463" height="54.4" transform="matrix(0.0137, 0.0, 0.0, 0.0137, 26.75, 30.05)" width="144.0" xlink:href="#font_GosmickSansBold_i0"/>
        <use fill="#4e0463" height="54.4" transform="matrix(0.0137, 0.0, 0.0, 0.0137, 29.3, 30.05)" width="144.0" xlink:href="#font_GosmickSansBold_n0"/>
        <use fill="#4e0463" height="54.4" transform="matrix(0.0137, 0.0, 0.0, 0.0137, 36.3, 30.05)" width="144.0" xlink:href="#font_GosmickSansBold_g0"/>
      </g>
      <g transform="matrix(1.0, 0.0, 0.0, 1.0, -2.0, -2.0)">
        <use fill="#4e0463" height="54.4" transform="matrix(0.0137, 0.0, 0.0, 0.0137, 47.2, 30.05)" width="144.0" xlink:href="#font_GosmickSansBold_l0"/>
        <use fill="#4e0463" height="54.4" transform="matrix(0.0137, 0.0, 0.0, 0.0137, 49.6, 30.05)" width="144.0" xlink:href="#font_GosmickSansBold_e0"/>
        <use fill="#4e0463" height="54.4" transform="matrix(0.0137, 0.0, 0.0, 0.0137, 56.05, 30.05)" width="144.0" xlink:href="#font_GosmickSansBold_v0"/>
        <use fill="#4e0463" height="54.4" transform="matrix(0.0137, 0.0, 0.0, 0.0137, 61.35, 30.05)" width="144.0" xlink:href="#font_GosmickSansBold_e0"/>
        <use fill="#4e0463" height="54.4" transform="matrix(0.0137, 0.0, 0.0, 0.0137, 68.55, 30.05)" width="144.0" xlink:href="#font_GosmickSansBold_l0"/>
      </g>
      <g transform="matrix(1.0, 0.0, 0.0, 1.0, -2.0, -2.0)">
        <use fill="#4e0463" height="54.4" transform="matrix(0.0137, 0.0, 0.0, 0.0137, 0.0, 46.85)" width="144.0" xlink:href="#font_GosmickSansBold_a0"/>
        <use fill="#4e0463" height="54.4" transform="matrix(0.0137, 0.0, 0.0, 0.0137, 6.6, 46.85)" width="144.0" xlink:href="#font_GosmickSansBold_a0"/>
      </g>
    </g>
    <g id="font_GosmickSansBold_T0">
      <path d="M595.5 -669.0 Q595.5 -641.5 582.0 -625.0 568.0 -608.5 547.0 -599.5 526.0 -590.0 500.0 -587.0 474.0 -584.0 448.5 -584.0 439.0 -584.0 430.0 -584.5 L412.5 -585.0 380.5 -585.0 Q375.5 -582.0 377.5 -569.5 L377.5 -557.5 Q376.5 -542.0 376.5 -525.5 376.5 -510.0 375.5 -495.0 L373.5 -434.0 Q372.5 -402.5 372.5 -372.0 L372.5 -308.5 Q372.5 -274.5 373.5 -238.5 374.5 -203.0 377.0 -168.0 379.5 -133.0 384.0 -105.5 L384.0 -106.5 Q389.0 -83.0 387.5 -68.0 386.0 -53.5 365.5 -33.0 354.0 -21.5 336.5 -9.5 319.5 3.0 301.0 3.0 276.5 3.0 265.0 -12.0 254.0 -26.5 250.0 -45.0 241.5 -84.0 238.5 -133.0 235.5 -182.5 235.5 -233.5 235.5 -250.0 236.0 -265.5 236.5 -281.5 236.5 -296.0 L236.5 -349.0 Q236.5 -429.0 239.5 -511.0 240.5 -524.0 241.0 -536.5 241.5 -549.0 241.5 -562.0 L241.5 -568.0 Q242.5 -573.5 241.5 -576.5 240.5 -579.5 234.5 -579.5 203.5 -578.5 172.5 -578.0 141.0 -577.5 108.5 -577.5 98.0 -577.5 86.0 -578.0 73.5 -578.5 62.5 -582.5 51.0 -586.5 43.0 -595.5 34.5 -604.0 31.5 -620.5 29.5 -632.5 37.0 -647.0 45.0 -661.5 56.5 -673.0 68.5 -685.0 82.0 -693.5 95.0 -702.5 105.5 -704.5 117.5 -706.5 130.0 -705.0 L154.5 -701.5 Q170.0 -698.5 182.0 -698.5 225.0 -698.5 266.0 -700.5 L350.0 -704.5 402.5 -707.0 Q431.0 -707.5 456.5 -708.5 L464.0 -709.0 475.0 -710.5 474.0 -710.5 498.0 -714.0 526.0 -715.0 Q555.0 -715.0 576.0 -705.5 597.0 -695.5 595.5 -669.0" fill-rule="evenodd" stroke="none"/>
    </g>
    <g id="font_GosmickSansBold_o0">
      <path d="M361.5 -252.0 Q361.5 -284.5 354.5 -313.0 347.0 -341.0 334.5 -361.5 321.5 -382.0 302.5 -393.5 283.5 -405.5 260.0 -405.5 235.5 -405.5 215.5 -393.5 195.5 -382.0 181.0 -361.5 167.0 -341.0 159.0 -314.0 151.5 -286.5 151.5 -256.0 151.5 -226.5 158.0 -199.0 165.0 -172.0 178.0 -151.5 191.5 -131.0 210.0 -119.0 228.5 -106.5 253.0 -106.5 277.5 -106.5 297.5 -118.0 317.5 -129.0 332.0 -148.5 346.0 -168.0 354.0 -194.5 361.5 -221.0 361.5 -252.0 M486.5 -240.5 Q482.5 -186.0 462.5 -140.0 442.5 -94.0 410.5 -59.0 379.0 -24.5 336.5 -5.0 294.0 14.5 245.5 14.5 196.5 14.5 156.5 -5.5 116.5 -25.5 88.0 -59.5 59.0 -94.0 44.0 -140.5 28.5 -187.0 28.5 -240.5 28.5 -299.0 47.0 -349.5 65.5 -400.0 97.5 -437.5 130.0 -475.0 174.5 -496.5 219.0 -518.0 271.5 -518.0 322.5 -518.0 364.0 -496.0 405.5 -474.0 434.0 -436.5 463.0 -399.0 477.0 -348.5 490.5 -298.0 486.5 -240.5" fill-rule="evenodd" stroke="none"/>
    </g>
    <g id="font_GosmickSansBold_u0">
      <path d="M466.0 -443.5 Q461.0 -380.0 459.5 -318.5 457.5 -257.0 457.5 -192.5 L457.5 -165.0 Q457.5 -146.5 458.0 -133.5 L460.0 -108.5 Q462.0 -102.5 463.0 -93.5 464.0 -84.0 464.0 -75.0 L464.0 -58.5 464.0 -48.5 Q466.0 -23.5 452.5 -8.5 439.5 7.0 406.5 7.0 L395.5 6.5 Q387.0 6.0 377.5 3.0 367.5 0.0 359.5 -7.5 351.0 -14.5 348.0 -27.0 332.0 -13.5 311.0 -6.5 290.0 1.0 269.0 4.5 248.0 8.0 229.5 8.0 L200.5 8.0 Q139.5 4.0 101.0 -30.0 62.5 -63.5 43.0 -117.0 33.0 -146.5 30.0 -182.5 27.5 -218.0 27.5 -251.0 L27.5 -288.0 Q27.5 -294.0 28.0 -299.5 28.5 -305.0 28.5 -311.5 29.5 -328.5 29.5 -347.0 29.5 -365.5 31.5 -385.0 L31.5 -412.5 Q31.5 -429.0 32.5 -445.5 33.0 -462.0 39.0 -475.5 45.0 -489.5 59.0 -499.5 72.5 -510.0 99.5 -514.0 111.5 -516.0 124.5 -512.5 137.0 -509.0 147.5 -501.0 157.5 -493.5 164.5 -481.5 171.0 -470.0 171.0 -455.5 171.0 -423.0 169.5 -390.5 168.0 -358.5 166.0 -329.5 164.0 -306.0 162.5 -285.5 161.0 -265.5 161.0 -249.0 161.0 -181.5 172.5 -149.0 184.5 -117.0 216.0 -115.0 235.5 -111.5 254.0 -117.0 272.5 -122.0 287.0 -134.0 302.0 -145.5 311.0 -164.0 319.5 -182.5 319.5 -206.0 323.5 -239.5 325.0 -278.0 326.5 -316.5 327.5 -355.5 327.5 -378.0 328.0 -400.5 328.5 -423.0 329.5 -443.5 329.5 -455.5 338.0 -468.5 346.0 -481.0 358.5 -491.5 370.5 -501.5 385.0 -508.5 399.5 -515.0 410.5 -515.0 435.0 -515.0 451.5 -498.5 468.0 -482.0 466.0 -443.5" fill-rule="evenodd" stroke="none"/>
    </g>
    <g id="font_GosmickSansBold_n0">
      <path d="M170.0 -439.5 Q170.0 -440.5 171.0 -441.5 L170.0 -440.5 170.0 -439.5 M489.5 -64.5 Q490.5 -40.0 481.5 -18.5 472.5 3.0 451.0 8.0 439.5 15.0 430.0 14.0 420.0 13.0 413.0 11.0 408.0 9.0 406.0 9.0 386.5 7.0 375.0 -11.0 364.0 -29.0 357.5 -55.0 351.5 -81.0 349.5 -112.5 347.5 -143.5 347.5 -172.0 L347.5 -224.5 Q347.5 -239.0 348.0 -254.5 348.5 -270.5 349.5 -285.0 350.5 -296.0 350.5 -305.5 L350.5 -322.0 Q350.5 -366.0 333.5 -385.0 316.5 -404.5 291.0 -403.5 255.5 -403.5 231.0 -380.5 207.0 -357.5 192.0 -320.5 176.5 -284.0 170.0 -237.0 163.0 -189.5 163.0 -140.5 L163.0 -119.0 Q163.0 -109.0 165.0 -97.5 168.0 -72.0 162.0 -52.5 156.0 -33.0 144.5 -19.0 133.5 -5.5 119.0 2.0 104.5 9.0 92.5 9.0 71.0 9.0 58.0 -1.0 45.5 -11.5 39.0 -30.0 33.0 -48.5 31.0 -75.5 29.0 -102.5 29.0 -136.5 L29.0 -194.0 Q29.0 -227.5 30.0 -264.0 31.0 -300.0 33.0 -336.0 35.0 -372.0 38.0 -402.5 L38.0 -421.0 Q38.0 -425.0 37.5 -428.0 37.0 -431.5 37.0 -436.5 36.0 -442.5 36.0 -452.0 36.0 -461.0 37.0 -466.0 39.0 -479.5 51.5 -489.5 64.0 -500.0 78.5 -505.5 93.5 -511.0 109.0 -513.0 124.0 -515.5 132.5 -513.0 153.0 -512.0 160.5 -496.5 168.0 -480.5 170.5 -458.0 169.5 -456.0 169.5 -453.0 169.5 -451.0 168.0 -451.0 L168.0 -448.5 168.0 -446.5 Q171.0 -449.0 173.5 -452.0 189.5 -468.0 209.0 -481.0 228.5 -494.0 249.0 -503.0 269.5 -512.0 289.5 -517.0 309.5 -521.5 328.0 -520.5 398.5 -516.5 440.5 -462.5 482.5 -409.0 482.5 -316.5 L482.5 -186.5 Q482.5 -159.0 484.5 -131.5 486.5 -103.5 488.5 -81.0 488.5 -77.0 489.0 -72.5 489.5 -68.0 489.5 -64.5" fill-rule="evenodd" stroke="none"/>
    </g>
    <g id="font_GosmickSansBold_l0">
      <path d="M162.5 -687.0 L160.5 -690.5 Q164.5 -681.0 163.5 -653.5 162.5 -626.0 160.5 -595.0 158.5 -569.5 157.0 -543.5 155.5 -517.5 155.5 -497.0 L155.5 -486.5 155.5 -437.5 Q155.5 -413.0 154.5 -388.0 L154.5 -366.5 Q154.5 -354.5 154.0 -341.0 153.5 -328.0 153.5 -315.5 L153.5 -294.0 153.5 -142.5 153.5 -107.5 Q153.5 -92.5 154.5 -75.0 153.5 -53.5 146.0 -38.0 138.0 -22.5 121.0 -14.5 111.5 -5.5 102.0 0.5 92.0 6.0 84.0 6.0 59.5 6.0 46.0 -4.5 33.0 -15.5 27.0 -37.0 21.5 -58.5 20.5 -92.0 19.5 -125.0 19.5 -170.0 L19.5 -202.0 Q19.5 -262.5 20.5 -322.0 21.5 -382.0 23.5 -443.5 L25.5 -524.0 27.5 -604.5 Q28.5 -615.5 28.5 -625.0 28.5 -635.0 29.5 -643.0 31.0 -664.5 33.5 -680.0 36.0 -695.5 42.5 -706.0 49.0 -717.0 63.0 -723.0 77.0 -729.0 100.5 -731.5 124.0 -733.5 140.0 -722.5 156.5 -712.0 162.5 -687.0" fill-rule="evenodd" stroke="none"/>
    </g>
    <g id="font_GosmickSansBold_c0">
      <path d="M449.5 -133.0 Q455.5 -107.5 443.5 -82.5 431.0 -57.5 406.5 -37.0 382.0 -16.5 349.5 -2.5 317.5 11.5 283.5 14.5 229.5 19.5 184.0 2.5 138.0 -14.5 104.5 -47.0 70.5 -80.0 50.5 -126.0 30.5 -172.0 27.5 -227.5 24.5 -282.5 40.5 -333.5 56.5 -384.0 86.5 -424.5 116.5 -465.0 158.0 -490.5 199.5 -516.0 248.0 -520.0 283.5 -523.5 317.0 -514.5 350.0 -506.0 376.0 -489.5 401.5 -473.0 415.5 -451.0 430.0 -429.0 428.0 -406.5 427.0 -393.0 419.0 -382.0 410.5 -370.5 400.0 -362.0 389.0 -353.5 379.0 -348.0 368.5 -343.0 364.5 -343.0 352.5 -343.0 338.0 -349.0 323.5 -355.5 320.5 -369.5 306.0 -387.0 290.5 -399.5 274.5 -411.5 254.0 -411.5 231.5 -411.5 213.0 -397.5 194.5 -383.0 180.5 -360.5 167.0 -338.0 159.0 -308.5 151.5 -279.5 151.5 -251.0 151.5 -217.0 161.5 -189.5 171.0 -162.0 188.5 -142.5 206.0 -123.0 229.5 -112.5 253.0 -102.5 281.5 -103.5 303.0 -105.5 327.5 -120.5 352.5 -135.0 371.5 -152.5 383.0 -163.0 389.5 -166.5 396.5 -170.0 405.5 -170.0 423.0 -170.0 434.5 -158.5 446.5 -147.5 449.5 -133.0" fill-rule="evenodd" stroke="none"/>
    </g>
    <g id="font_GosmickSansBold_k0">
      <path d="M485.5 -54.5 Q486.5 -36.0 470.0 -18.5 453.5 -1.0 432.0 7.0 L425.0 7.0 Q423.0 8.0 419.0 8.0 404.5 11.0 381.0 -4.0 357.5 -18.5 326.0 -46.0 295.0 -74.0 258.0 -111.0 L180.5 -188.5 Q177.0 -191.5 174.0 -195.0 L168.0 -203.0 168.0 -163.0 Q168.0 -143.5 163.0 -123.0 162.0 -111.0 162.5 -99.0 163.0 -87.0 164.0 -75.0 166.0 -39.0 143.0 -16.0 120.0 7.0 93.0 7.0 72.5 7.0 60.0 0.0 47.0 -7.5 40.5 -24.0 33.5 -41.0 31.0 -68.0 28.5 -94.5 28.5 -134.5 L28.5 -167.0 Q28.5 -201.0 29.5 -244.0 30.5 -287.0 32.0 -335.0 33.0 -393.5 33.5 -455.0 34.0 -516.5 34.0 -575.5 L34.0 -619.5 Q33.0 -662.5 39.5 -685.5 46.5 -708.0 79.0 -716.0 L80.0 -716.0 96.5 -719.5 Q104.5 -721.0 111.0 -719.0 117.0 -720.0 121.5 -719.0 L130.0 -717.0 Q133.5 -716.0 140.5 -716.0 159.0 -707.0 165.5 -693.0 172.0 -679.0 170.0 -654.5 165.0 -606.5 164.0 -558.5 163.0 -510.0 163.0 -458.0 L163.0 -359.5 Q171.5 -367.0 180.5 -374.0 198.5 -389.5 216.0 -403.5 233.5 -418.0 250.0 -434.5 L273.5 -457.0 272.5 -457.0 Q284.5 -470.0 298.0 -483.0 311.5 -496.0 326.0 -506.0 341.0 -516.5 359.0 -522.5 377.0 -528.5 398.5 -528.5 419.0 -528.5 434.0 -515.0 449.5 -501.0 451.5 -483.5 L451.5 -475.5 Q448.5 -463.0 441.0 -455.0 433.0 -446.5 424.0 -438.5 416.0 -432.5 408.0 -424.5 400.5 -417.0 392.5 -404.5 374.0 -387.5 354.0 -370.5 334.0 -353.5 314.5 -336.0 L291.0 -316.0 Q278.5 -306.5 266.5 -295.0 L265.5 -293.0 284.5 -272.5 Q293.0 -264.5 303.0 -253.5 L327.5 -228.5 Q341.0 -215.0 359.5 -197.0 378.0 -178.5 391.0 -166.0 L427.0 -130.0 Q444.5 -113.0 457.5 -98.0 470.0 -83.0 478.0 -72.0 485.5 -60.5 485.5 -54.5" fill-rule="evenodd" stroke="none"/>
    </g>
    <g id="font_GosmickSansBold_y0">
      <path d="M495.5 -451.5 L491.5 -440.5 Q482.5 -429.0 475.5 -412.5 L462.0 -379.0 Q460.0 -375.0 460.0 -370.5 460.0 -367.5 457.5 -365.5 440.5 -320.5 422.5 -276.0 404.5 -231.5 390.0 -194.5 L337.5 -61.0 Q311.5 5.0 280.5 87.0 265.0 126.0 260.5 150.5 256.0 175.0 254.0 190.5 L250.5 214.5 Q249.0 224.5 244.0 231.5 239.5 238.5 230.0 243.0 220.0 248.0 201.5 252.0 192.5 254.0 182.0 252.5 171.0 251.0 161.5 245.5 151.5 239.5 144.5 231.5 137.0 223.0 135.0 213.0 128.0 195.5 128.0 172.0 128.0 148.5 133.5 125.0 139.5 101.5 147.5 81.0 150.5 65.5 157.5 48.0 165.0 30.5 173.0 14.5 L185.0 -11.0 Q190.5 -23.5 192.5 -34.0 187.5 -47.0 181.0 -60.0 175.0 -72.5 169.0 -86.0 165.0 -94.0 159.5 -106.5 154.5 -119.0 150.5 -126.0 L150.5 -125.0 Q128.0 -171.0 106.5 -217.5 85.0 -264.0 65.5 -311.5 61.5 -319.5 57.5 -328.5 53.5 -338.0 50.0 -345.0 L27.0 -396.0 Q15.5 -422.0 12.5 -439.5 10.0 -452.5 17.0 -466.0 23.5 -479.0 35.0 -489.5 46.0 -499.5 60.0 -506.0 73.5 -512.0 85.0 -512.0 100.5 -512.0 115.5 -494.5 131.0 -477.0 146.0 -449.0 161.0 -421.0 174.5 -386.0 188.5 -351.0 201.5 -316.5 217.0 -277.5 230.0 -242.5 242.5 -208.0 255.0 -186.5 273.5 -229.5 291.5 -277.5 309.5 -325.5 323.5 -367.5 L323.5 -368.5 Q325.5 -372.5 326.5 -376.5 327.5 -380.0 329.5 -385.0 L344.0 -427.5 Q352.5 -450.5 364.5 -469.5 377.0 -488.5 395.0 -501.0 412.5 -514.0 438.5 -514.0 447.5 -514.0 458.0 -508.0 469.0 -502.0 477.5 -492.5 486.5 -483.5 491.5 -472.0 496.5 -461.0 495.5 -451.5" fill-rule="evenodd" stroke="none"/>
    </g>
    <g id="font_GosmickSansBold_e0">
      <path d="M294.0 -311.5 Q311.5 -325.5 320.5 -340.0 329.5 -354.5 328.5 -368.5 326.5 -369.5 326.5 -370.5 326.5 -371.5 325.5 -372.5 323.5 -375.0 322.0 -378.0 320.5 -381.0 321.5 -380.0 313.5 -394.0 296.5 -402.0 279.5 -409.5 259.0 -409.5 237.5 -409.5 219.5 -399.5 201.5 -389.0 188.0 -372.0 174.0 -355.5 165.5 -333.5 156.5 -311.5 153.5 -289.0 159.5 -287.5 165.0 -288.5 L177.0 -290.0 Q210.0 -293.0 239.0 -298.0 268.5 -303.0 294.0 -311.5 M454.5 -187.0 Q470.0 -187.0 485.5 -175.5 500.5 -163.5 503.0 -147.0 L503.0 -148.0 Q509.0 -120.5 489.5 -92.0 470.0 -63.0 436.0 -40.0 402.5 -17.0 358.5 -2.5 314.5 12.5 270.5 12.5 215.0 12.5 170.5 -5.5 126.0 -23.5 94.0 -56.5 62.5 -90.0 45.5 -136.0 28.5 -182.0 28.5 -239.5 28.5 -297.0 47.0 -347.5 65.5 -398.0 98.0 -435.5 130.0 -473.0 175.5 -495.0 221.0 -517.0 275.5 -517.0 313.5 -517.0 346.5 -505.0 380.0 -493.5 404.0 -472.0 428.0 -450.5 442.0 -421.5 455.5 -393.0 455.5 -359.0 455.5 -301.0 419.5 -265.0 383.0 -229.0 322.5 -210.5 295.0 -202.5 275.0 -197.5 255.0 -192.0 239.0 -190.0 L211.0 -187.0 186.5 -186.0 Q178.0 -185.0 176.0 -186.0 174.0 -187.0 164.0 -185.0 165.0 -177.0 173.0 -160.5 187.5 -132.0 216.0 -115.5 244.5 -99.0 281.5 -99.0 331.0 -99.0 361.5 -119.5 392.0 -140.0 417.0 -166.5 434.0 -184.0 454.5 -187.0" fill-rule="evenodd" stroke="none"/>
    </g>
    <g id="font_GosmickSansBold_d0">
      <path d="M370.5 -263.0 Q370.5 -327.5 345.5 -367.0 320.5 -406.5 268.0 -406.5 211.0 -406.5 180.0 -363.0 149.5 -319.5 149.5 -242.5 149.5 -215.0 157.5 -190.5 166.0 -166.0 179.5 -148.0 193.5 -130.0 213.0 -120.0 232.5 -109.5 254.0 -109.5 312.0 -109.5 341.5 -151.5 370.5 -193.5 370.5 -263.0 M515.0 -54.5 L514.0 -57.5 Q514.0 -51.5 507.0 -40.5 500.5 -30.0 490.5 -20.0 480.0 -10.5 467.5 -2.5 454.5 5.0 442.0 5.0 L434.0 4.0 Q427.0 3.0 417.0 -1.5 407.5 -6.5 396.0 -14.0 385.0 -21.5 375.5 -36.0 352.0 -18.5 323.0 -5.5 293.5 7.0 264.0 9.0 216.0 12.0 173.0 -4.0 130.0 -20.5 98.0 -53.5 66.5 -86.0 48.0 -133.0 29.5 -180.0 29.5 -237.5 29.5 -295.0 47.5 -345.5 65.5 -396.0 97.5 -434.5 130.0 -473.0 175.0 -495.5 220.0 -518.0 274.0 -518.0 305.0 -518.0 329.5 -510.5 354.0 -502.5 375.5 -490.5 L377.0 -589.0 Q377.5 -635.0 379.5 -675.0 380.5 -686.0 385.5 -696.0 390.0 -705.5 399.0 -710.5 406.5 -721.0 417.0 -723.0 428.0 -725.0 438.0 -726.0 446.5 -726.0 450.5 -727.0 486.0 -729.0 499.5 -703.5 513.0 -678.0 511.0 -635.0 L506.0 -540.5 Q503.5 -491.5 502.0 -441.0 500.5 -390.0 499.5 -340.0 498.5 -290.0 498.5 -243.0 498.5 -203.0 500.5 -171.0 502.5 -139.5 506.5 -116.0 L505.5 -117.0 Q506.5 -115.0 507.5 -110.5 L510.0 -101.5 Q512.0 -90.0 513.5 -76.5 515.0 -62.5 515.0 -54.5" fill-rule="evenodd" stroke="none"/>
    </g>
    <g id="font_GosmickSansBold_j0">
      <path d="M162.0 -641.0 Q156.5 -607.0 130.0 -586.5 103.5 -566.0 67.5 -566.0 40.0 -570.5 28.0 -596.0 16.5 -621.5 17.5 -651.0 21.5 -681.0 43.0 -705.0 64.5 -729.0 99.5 -729.0 118.0 -729.0 131.0 -721.0 144.5 -712.5 152.0 -699.5 159.5 -686.0 162.0 -670.5 164.0 -655.5 162.0 -641.0 M163.0 -449.5 Q163.0 -432.0 162.5 -415.5 162.0 -398.5 160.5 -381.0 159.5 -356.5 159.5 -326.5 L159.5 -274.5 159.5 -186.5 Q160.5 -159.0 161.0 -128.5 161.5 -98.5 161.5 -68.5 161.5 -55.5 162.0 -43.0 162.5 -31.0 164.0 -16.5 165.0 -5.0 165.0 9.0 L165.0 34.5 165.0 52.0 Q165.0 61.5 164.0 68.5 158.5 107.5 150.0 142.0 141.5 177.0 124.5 203.0 107.5 229.5 81.0 244.5 54.5 260.0 14.5 260.0 -60.0 260.0 -96.5 229.5 -133.0 198.5 -149.0 134.0 -148.0 111.5 -134.5 92.5 -120.5 73.5 -103.0 72.5 -89.0 68.5 -79.5 77.5 -70.5 87.0 -62.0 98.0 L-59.0 101.5 Q-57.0 103.5 -56.0 105.5 L-57.0 104.5 Q-31.5 140.0 -2.0 140.0 18.5 140.0 25.0 108.5 31.0 76.5 31.0 24.5 L31.0 -9.5 Q31.0 -34.0 30.5 -59.5 30.0 -85.0 28.5 -111.5 27.5 -138.5 27.0 -164.5 26.5 -190.5 26.5 -214.0 L26.5 -342.0 Q26.5 -353.5 27.0 -363.5 27.5 -374.0 27.5 -385.0 L27.5 -408.5 Q27.5 -418.0 26.5 -429.0 L26.0 -436.5 Q25.5 -440.5 25.5 -444.5 24.5 -462.0 32.5 -476.0 41.0 -490.5 53.5 -501.0 66.5 -511.0 82.0 -515.5 97.5 -520.5 109.5 -519.5 141.5 -516.0 153.5 -495.0 165.0 -474.0 163.0 -449.5" fill-rule="evenodd" stroke="none"/>
    </g>
    <g id="font_GosmickSansBold_g0">
      <path d="M355.5 -279.5 Q355.5 -301.0 354.0 -321.0 352.5 -341.0 346.0 -357.5 340.0 -373.5 328.5 -385.0 317.5 -396.5 298.0 -400.5 285.5 -406.5 271.5 -404.5 257.0 -402.5 242.5 -399.5 220.0 -393.0 203.5 -376.5 186.5 -359.5 175.0 -336.5 164.0 -313.5 158.0 -285.0 152.5 -257.0 154.5 -227.5 157.5 -172.0 186.0 -140.0 214.0 -107.5 260.0 -107.5 290.0 -107.5 308.0 -124.0 326.5 -140.5 337.5 -166.0 348.0 -191.5 351.5 -221.5 355.5 -252.0 355.5 -279.5 M489.5 -449.5 L489.5 -451.5 Q487.5 -426.0 486.0 -402.0 484.5 -378.0 482.5 -354.5 476.0 -284.5 471.0 -215.0 466.0 -145.5 466.0 -59.5 L466.0 -32.0 Q466.0 4.0 465.5 32.0 465.0 60.5 461.0 85.0 456.5 109.5 449.0 131.5 441.5 153.5 428.0 176.0 415.5 194.5 395.5 206.5 375.0 219.0 351.5 226.5 328.5 234.5 304.0 237.5 279.5 240.5 260.0 240.5 229.5 240.5 193.0 228.5 156.5 217.0 125.5 196.0 94.0 175.0 71.0 145.0 48.0 115.5 44.0 79.5 39.0 63.5 42.0 50.5 45.0 37.5 54.0 28.5 62.5 19.0 75.5 14.5 88.0 10.0 102.5 10.0 116.5 10.0 131.0 16.0 145.5 22.5 156.5 35.5 161.0 50.0 170.0 65.0 179.0 79.5 191.5 92.0 204.0 104.0 219.0 112.0 234.5 119.5 253.0 119.5 L254.0 119.0 Q255.0 118.5 255.0 120.5 271.5 118.5 287.0 113.5 303.0 108.5 314.5 96.5 325.5 85.0 333.0 64.5 340.0 44.0 340.0 11.0 L340.0 5.0 340.0 3.0 340.0 0.0 340.0 -7.5 Q323.5 -2.0 301.5 1.5 279.5 5.0 256.0 7.0 210.0 10.0 170.0 -5.5 130.0 -21.5 99.5 -52.0 68.5 -82.0 49.5 -126.0 30.5 -170.0 28.5 -224.5 26.5 -279.5 43.5 -332.0 60.5 -384.0 92.5 -424.5 125.0 -465.0 170.5 -490.0 216.0 -515.0 270.5 -518.0 302.0 -520.0 329.5 -515.0 357.5 -510.0 381.0 -490.5 398.5 -506.0 409.0 -510.0 420.0 -514.0 433.0 -514.0 445.5 -514.0 456.5 -508.5 468.0 -502.5 476.0 -494.0 484.5 -485.5 488.5 -473.5 492.5 -462.0 489.5 -449.5" fill-rule="evenodd" stroke="none"/>
    </g>
    <g id="font_GosmickSansBold_i0">
      <path d="M173.0 -642.0 Q171.0 -628.5 162.5 -614.5 153.5 -600.0 140.5 -588.0 127.0 -576.5 110.5 -570.5 94.0 -564.0 76.0 -567.0 48.0 -571.5 37.5 -596.0 26.5 -620.5 28.5 -650.0 31.5 -683.0 54.0 -706.5 76.0 -730.0 109.5 -730.0 128.0 -730.0 141.5 -722.0 154.5 -713.5 162.5 -700.5 170.0 -687.0 172.5 -671.5 175.0 -656.5 173.0 -642.0 M164.0 -442.5 L162.0 -399.5 Q161.0 -378.0 159.5 -357.5 157.5 -318.5 156.5 -282.5 155.5 -247.0 155.5 -210.0 155.5 -171.0 156.5 -134.5 157.5 -98.5 159.5 -71.5 159.5 -57.5 151.0 -44.0 142.5 -31.0 130.5 -20.0 119.0 -9.5 106.5 -2.5 94.0 4.0 86.0 4.0 63.5 4.0 50.0 -5.5 37.0 -15.5 30.0 -35.5 23.5 -55.5 21.5 -85.5 19.5 -116.0 19.5 -155.5 L19.5 -173.0 19.5 -198.5 Q19.5 -212.0 20.5 -224.5 22.5 -248.0 23.0 -273.0 23.5 -298.0 24.5 -324.5 L26.5 -388.5 Q27.5 -423.0 30.5 -451.5 33.0 -472.0 42.5 -485.0 52.0 -497.5 64.5 -504.5 77.0 -512.0 88.5 -514.5 100.5 -517.0 106.5 -517.0 136.0 -517.0 151.0 -498.5 166.0 -480.0 164.0 -442.5" fill-rule="evenodd" stroke="none"/>
    </g>
    <g id="font_GosmickSansBold_v0">
      <path d="M466.0 -467.0 L462.0 -451.5 459.5 -447.5 457.5 -444.5 Q456.5 -443.5 456.5 -441.0 439.5 -398.0 415.5 -344.5 L366.5 -232.5 Q359.5 -218.0 354.0 -203.5 348.0 -188.5 341.0 -174.0 337.0 -166.0 334.0 -158.5 L327.5 -143.5 Q314.5 -111.5 301.5 -83.0 289.0 -54.5 275.0 -34.0 261.0 -13.5 245.0 -2.5 229.5 8.0 210.0 5.0 L211.0 5.0 Q195.5 2.0 185.5 -2.5 175.0 -7.5 168.5 -16.0 162.0 -24.5 155.5 -38.0 149.5 -51.5 141.5 -70.5 120.0 -127.0 96.5 -193.5 72.5 -260.0 49.0 -334.0 33.0 -392.0 20.5 -419.5 13.5 -438.0 11.0 -449.0 8.0 -459.5 13.5 -470.0 17.5 -489.5 35.0 -500.5 52.0 -512.0 67.5 -515.0 90.0 -519.0 109.0 -509.5 128.0 -499.5 138.0 -475.0 L140.5 -462.5 Q142.5 -450.5 153.5 -416.5 163.0 -386.0 173.0 -356.0 L193.5 -296.0 Q201.5 -271.5 210.5 -245.5 219.0 -220.0 228.5 -195.5 242.5 -228.5 262.5 -276.5 282.5 -324.5 300.0 -379.0 L300.0 -378.0 Q302.0 -386.0 306.5 -396.5 311.5 -407.5 313.5 -415.5 315.5 -419.5 315.0 -420.5 314.5 -422.0 316.5 -426.0 L316.5 -425.0 Q322.5 -444.5 329.0 -461.5 336.0 -479.0 346.0 -492.0 356.5 -504.5 371.5 -512.0 387.0 -519.0 411.5 -519.0 435.0 -519.0 450.5 -504.5 466.0 -490.5 466.0 -467.0" fill-rule="evenodd" stroke="none"/>
    </g>
    <g id="font_GosmickSansBold_a0">
      <path d="M330.5 -196.5 Q330.5 -206.0 329.5 -213.5 328.5 -221.0 326.5 -226.5 312.0 -237.5 294.0 -246.0 276.0 -254.0 254.5 -254.0 203.5 -254.0 171.5 -228.0 140.0 -201.5 140.0 -167.0 140.0 -133.0 161.0 -113.0 182.0 -93.0 219.0 -93.0 247.5 -93.0 269.5 -102.5 291.5 -111.5 309.0 -125.0 322.5 -142.5 326.5 -161.5 330.5 -180.0 330.5 -196.5 M461.5 -54.0 L462.5 -52.0 Q463.5 -41.0 458.0 -29.0 452.5 -17.5 442.0 -7.0 432.0 3.0 420.0 9.5 408.5 15.5 398.0 15.5 377.5 15.5 363.5 2.0 349.0 -11.0 339.0 -32.5 310.0 -10.0 281.5 0.0 253.0 10.5 220.0 13.5 181.0 16.5 146.5 9.0 111.5 1.0 85.0 -20.0 58.0 -41.0 43.0 -76.0 27.5 -111.5 27.5 -163.5 27.5 -231.5 52.5 -270.5 77.5 -310.0 112.0 -330.0 146.5 -350.0 183.0 -355.5 220.0 -361.5 243.5 -360.5 273.5 -358.5 293.0 -354.5 313.0 -351.0 327.5 -346.0 327.5 -358.5 324.0 -371.5 320.5 -385.0 310.5 -395.5 301.0 -406.5 283.0 -412.5 265.0 -418.5 236.5 -417.5 190.5 -414.5 169.5 -402.5 148.5 -390.0 136.0 -380.0 L128.0 -373.0 Q124.0 -369.5 119.5 -367.5 112.5 -363.5 101.0 -363.0 L84.0 -363.5 83.0 -363.5 Q70.5 -363.5 63.5 -376.5 56.0 -390.0 51.0 -401.5 49.0 -403.5 48.5 -410.5 L48.0 -417.5 Q53.0 -442.0 70.5 -462.0 88.0 -482.0 113.5 -497.0 139.0 -512.0 171.0 -520.5 202.5 -529.5 238.5 -531.5 290.5 -534.5 327.0 -523.5 363.5 -513.0 387.0 -494.5 410.5 -476.0 423.5 -452.5 436.0 -429.0 442.0 -404.5 448.5 -380.0 449.0 -356.5 L449.5 -318.5 449.5 -310.0 449.5 -285.5 Q449.5 -273.5 448.5 -260.0 447.5 -239.5 447.5 -216.0 L447.5 -174.0 Q447.5 -143.0 450.5 -117.0 453.5 -91.0 461.5 -54.0" fill-rule="evenodd" stroke="none"/>
    </g>
  </defs>
</svg>
