<?xml version="1.0" encoding="UTF-8" standalone="no"?>
<svg xmlns:ffdec="https://www.free-decompiler.com/flash" xmlns:xlink="http://www.w3.org/1999/xlink" ffdec:objectType="frame" height="34.15px" width="136.4px" xmlns="http://www.w3.org/2000/svg">
  <g transform="matrix(1.0, 0.0, 0.0, 1.0, 34.55, 5.65)">
    <use ffdec:characterId="1466" height="29.65" transform="matrix(1.0, 0.0, 0.0, 1.0, -1.5, -1.15)" width="29.7" xlink:href="#sprite0"/>
    <use ffdec:characterId="1482" height="98.15" transform="matrix(0.2568, 0.0, 0.0, 0.2996, 0.0888, -3.5193)" width="104.25" xlink:href="#sprite1"/>
    <use ffdec:characterId="1470" height="20.6" id="bar_mc" transform="matrix(1.0, 0.0, 0.0, 1.0, -34.55, 4.8)" width="136.4" xlink:href="#sprite4"/>
    <use ffdec:characterId="1472" height="31.0" id="bt" transform="matrix(1.0, 0.0, 0.0, 1.0, -2.65, -3.0)" width="103.0" xlink:href="#button0"/>
  </g>
  <defs>
    <g id="sprite0" transform="matrix(1.0, 0.0, 0.0, 1.0, -159.95, -144.95)">
      <use ffdec:characterId="1465" height="29.65" transform="matrix(1.0, 0.0, 0.0, 1.0, 159.95, 144.95)" width="29.7" xlink:href="#shape0"/>
    </g>
    <g id="shape0" transform="matrix(1.0, 0.0, 0.0, 1.0, -159.95, -144.95)">
      <path d="M162.1 160.45 Q162.1 154.95 166.0 151.05 169.85 147.1 175.45 147.1 180.95 147.1 184.85 151.05 188.75 154.95 188.75 160.45 188.75 166.0 184.85 169.85 180.95 173.7 175.45 173.7 169.85 173.7 166.0 169.85 162.1 166.0 162.1 160.45 Z" fill="none" stroke="#000000" stroke-linecap="round" stroke-linejoin="round" stroke-opacity="0.2" stroke-width="1.8"/>
      <path d="M183.1 168.1 Q186.6 164.6 186.6 159.55 186.6 154.5 183.1 151.0 179.5 147.4 174.5 147.4 169.45 147.4 165.9 151.0 162.4 154.5 162.4 159.55 162.4 164.6 165.9 168.1 169.45 171.6 174.5 171.6 179.5 171.6 183.1 168.1 M183.75 168.75 Q179.9 172.5 174.5 172.5 169.05 172.5 165.25 168.75 161.45 164.95 161.45 159.5 161.45 154.1 165.25 150.3 169.05 146.45 174.5 146.45 179.9 146.45 183.75 150.3 187.55 154.1 187.55 159.5 187.55 164.95 183.75 168.75" fill="#ffffff" fill-opacity="0.50980395" fill-rule="evenodd" stroke="none"/>
      <path d="M183.1 168.1 Q179.5 171.6 174.5 171.6 169.45 171.6 165.9 168.1 162.4 164.6 162.4 159.55 162.4 154.5 165.9 151.0 169.45 147.4 174.5 147.4 179.5 147.4 183.1 151.0 186.6 154.5 186.6 159.55 186.6 164.6 183.1 168.1" fill="#ffffff" fill-rule="evenodd" stroke="none"/>
      <path d="M183.75 168.75 Q179.9 172.5 174.5 172.5 169.05 172.5 165.25 168.75 161.45 164.95 161.45 159.5 161.45 154.1 165.25 150.3 169.05 146.45 174.5 146.45 179.9 146.45 183.75 150.3 187.55 154.1 187.55 159.5 187.55 164.95 183.75 168.75" fill="none" stroke="#7d0c9c" stroke-linecap="round" stroke-linejoin="round" stroke-width="2.0"/>
      <path d="M183.1 168.1 Q179.5 171.6 174.5 171.6 169.45 171.6 165.9 168.1 162.4 164.6 162.4 159.55 162.4 154.5 165.9 151.0 169.45 147.4 174.5 147.4 179.5 147.4 183.1 151.0 186.6 154.5 186.6 159.55 186.6 164.6 183.1 168.1 Z" fill="none" stroke="#000000" stroke-linecap="round" stroke-linejoin="round" stroke-opacity="0.21176471" stroke-width="1.0"/>
      <path d="M184.75 153.95 Q183.9 151.1 181.85 148.7 L183.75 150.3 Q187.55 154.1 187.55 159.5 187.55 164.95 183.75 168.75 179.9 172.5 174.5 172.5 169.05 172.5 165.25 168.75 164.1 167.6 163.3 166.25 167.65 168.15 171.7 168.55 175.8 168.95 178.4 167.65 183.5 165.35 185.05 158.4 185.5 156.5 184.75 153.95" fill="#000000" fill-opacity="0.2" fill-rule="evenodd" stroke="none"/>
      <path d="M170.85 150.6 L170.15 150.3 169.95 149.65 170.15 148.95 170.85 148.7 Q171.3 148.7 171.55 148.95 L171.85 149.65 171.55 150.3 Q171.3 150.6 170.85 150.6 M167.75 150.6 Q168.1 150.25 168.55 150.25 169.05 150.25 169.35 150.6 169.7 150.95 169.7 151.4 169.7 151.9 169.35 152.2 169.05 152.55 168.55 152.55 168.1 152.55 167.75 152.2 167.4 151.9 167.4 151.4 167.4 150.95 167.75 150.6" fill="#ffffff" fill-rule="evenodd" stroke="none"/>
      <path d="M165.25 168.75 Q161.45 164.95 161.45 159.5 161.45 154.1 165.25 150.3 169.05 146.45 174.5 146.45 179.9 146.45 183.75 150.3 187.55 154.1 187.55 159.5 187.55 164.95 183.75 168.75 179.9 172.5 174.5 172.5 169.05 172.5 165.25 168.75 Z" fill="none" stroke="#7d0c9c" stroke-linecap="round" stroke-linejoin="round" stroke-width="3.0"/>
      <path d="M183.75 168.4 Q179.9 172.15 174.5 172.15 169.05 172.15 165.25 168.4 161.45 164.6 161.45 159.15 161.45 153.75 165.25 149.95 169.05 146.1 174.5 146.1 179.9 146.1 183.75 149.95 187.55 153.75 187.55 159.15 187.55 164.6 183.75 168.4 Z" fill="none" stroke="#ffffff" stroke-linecap="round" stroke-linejoin="round" stroke-opacity="0.2" stroke-width="1.0"/>
    </g>
    <g id="sprite1" transform="matrix(1.0, 0.0, 0.0, 1.0, -3.85, 1.9)">
      <use ffdec:characterId="1477" height="82.45" transform="matrix(1.0, 0.0, 0.0, 1.0, 3.85, 13.8)" width="104.25" xlink:href="#shape1"/>
      <use ffdec:characterId="1479" height="30.1" transform="matrix(1.1993, 0.0, 0.0, 1.1993, 61.15, 21.1)" width="32.3" xlink:href="#sprite2"/>
      <use ffdec:characterId="1479" height="30.1" transform="matrix(0.9822, 0.2632, -0.1815, 0.6774, 23.45, 15.65)" width="32.3" xlink:href="#sprite2"/>
      <use ffdec:characterId="1480" height="14.95" transform="matrix(1.0, 0.0, 0.0, 1.0, 30.4, 18.0)" width="67.65" xlink:href="#shape3"/>
      <use ffdec:characterId="1481" height="35.85" transform="matrix(1.0962, 0.2543, -0.2543, 1.0962, 20.6849, -1.9056)" width="33.85" xlink:href="#sprite3"/>
    </g>
    <g id="shape1" transform="matrix(1.0, 0.0, 0.0, 1.0, -3.85, -13.8)">
      <path d="M94.8 58.45 Q79.95 75.95 56.3 92.55 L56.0 92.75 55.3 92.25 Q31.95 75.8 17.2 58.45 2.15 40.85 10.15 28.65 18.1 16.45 34.9 17.35 47.55 18.7 55.3 28.45 L56.0 29.35 56.3 28.95 Q64.1 18.7 77.1 17.35 93.9 16.45 101.85 28.65 109.8 40.85 94.8 58.45" fill="#ffffff" fill-rule="evenodd" stroke="none"/>
      <path d="M94.8 58.45 Q79.95 75.95 56.3 92.55 L56.0 92.75 55.3 92.25 Q31.95 75.8 17.2 58.45 2.15 40.85 10.15 28.65 18.1 16.45 34.9 17.35 47.55 18.7 55.3 28.45 L56.0 29.35 56.3 28.95 Q64.1 18.7 77.1 17.35 93.9 16.45 101.85 28.65 109.8 40.85 94.8 58.45 Z" fill="none" stroke="#460505" stroke-linecap="round" stroke-linejoin="round" stroke-width="7.0"/>
      <path d="M56.0 92.75 L55.3 92.25 Q31.95 75.8 17.2 58.45 2.15 40.85 10.15 28.65 12.25 25.4 15.05 23.1 L56.0 49.6 56.0 92.75" fill="url(#gradient0)" fill-rule="evenodd" stroke="none"/>
      <path d="M98.8 24.75 L101.85 28.65 Q109.8 40.85 94.8 58.45 79.95 75.95 56.3 92.55 L56.0 92.75 56.0 49.6 98.8 24.75" fill="url(#gradient1)" fill-rule="evenodd" stroke="none"/>
      <path d="M15.05 23.1 Q22.6 16.7 34.9 17.35 47.55 18.7 55.3 28.45 L56.0 29.35 56.0 49.6 15.05 23.1" fill="url(#gradient2)" fill-rule="evenodd" stroke="none"/>
      <path d="M56.0 29.35 L56.3 28.95 Q64.1 18.7 77.1 17.35 90.95 16.6 98.8 24.75 L56.0 49.6 56.0 29.35" fill="url(#gradient3)" fill-rule="evenodd" stroke="none"/>
      <path d="M98.8 24.75 L101.85 28.65 Q109.8 40.85 94.8 58.45 79.95 75.95 56.3 92.55 L56.0 92.75 55.3 92.25 Q31.95 75.8 17.2 58.45 2.15 40.85 10.15 28.65 12.25 25.4 15.05 23.1 22.6 16.7 34.9 17.35 47.55 18.7 55.3 28.45 L56.0 29.35 56.3 28.95 Q64.1 18.7 77.1 17.35 90.95 16.6 98.8 24.75 Z" ffdec:has-small-stroke="true" ffdec:original-stroke-width="2.0" fill="none" stroke="#990000" stroke-linecap="round" stroke-linejoin="round" stroke-width="3.5834821310234193"/>
    </g>
    <radialGradient cx="0" cy="0" gradientTransform="matrix(0.0381, -0.0305, 0.0336, 0.0421, 58.15, 42.05)" gradientUnits="userSpaceOnUse" id="gradient0" r="819.2" spreadMethod="pad">
      <stop offset="0.7333333333333333" stop-color="#d72f2f"/>
      <stop offset="1.0" stop-color="#9c1515"/>
    </radialGradient>
    <radialGradient cx="0" cy="0" gradientTransform="matrix(0.0345, 0.0345, -0.0425, 0.0425, 60.55, 39.5)" gradientUnits="userSpaceOnUse" id="gradient1" r="819.2" spreadMethod="pad">
      <stop offset="0.7333333333333333" stop-color="#d72f2f"/>
      <stop offset="1.0" stop-color="#9c1515"/>
    </radialGradient>
    <radialGradient cx="0" cy="0" gradientTransform="matrix(0.0299, 0.0, 0.0, 0.0407, 39.0, 49.0)" gradientUnits="userSpaceOnUse" id="gradient2" r="819.2" spreadMethod="pad">
      <stop offset="0.7333333333333333" stop-color="#d72f2f"/>
      <stop offset="1.0" stop-color="#9c1515"/>
    </radialGradient>
    <radialGradient cx="0" cy="0" gradientTransform="matrix(0.0359, 0.0105, -0.013, 0.0443, 77.0, 51.0)" gradientUnits="userSpaceOnUse" id="gradient3" r="819.2" spreadMethod="pad">
      <stop offset="0.7333333333333333" stop-color="#d72f2f"/>
      <stop offset="1.0" stop-color="#9c1515"/>
    </radialGradient>
    <g id="sprite2" transform="matrix(1.0, 0.0, 0.0, 1.0, 0.0, 0.0)">
      <use ffdec:characterId="1478" height="30.1" transform="matrix(1.0, 0.0, 0.0, 1.0, 0.0, 0.0)" width="32.3" xlink:href="#shape2"/>
    </g>
    <g id="shape2" transform="matrix(1.0, 0.0, 0.0, 1.0, 0.0, 0.0)">
      <path d="M4.7 25.7 Q0.0 21.3 0.0 15.05 0.0 8.8 4.7 4.4 9.45 0.0 16.15 0.0 22.85 0.0 27.55 4.4 32.3 8.8 32.3 15.05 32.3 21.3 27.55 25.7 22.85 30.1 16.15 30.1 9.45 30.1 4.7 25.7" fill="url(#gradient4)" fill-rule="evenodd" stroke="none"/>
    </g>
    <radialGradient cx="0" cy="0" gradientTransform="matrix(0.0188, 0.0, 0.0, 0.0188, 15.95, 14.9)" gradientUnits="userSpaceOnUse" id="gradient4" r="819.2" spreadMethod="pad">
      <stop offset="0.0" stop-color="#ffffff" stop-opacity="0.3019608"/>
      <stop offset="1.0" stop-color="#ffffff" stop-opacity="0.0"/>
    </radialGradient>
    <g id="shape3" transform="matrix(1.0, 0.0, 0.0, 1.0, -30.4, -18.0)">
      <path d="M95.9 25.3 Q97.5 26.9 97.9 29.0 98.35 31.05 97.25 32.15 96.15 33.25 94.05 32.85 92.0 32.4 90.35 30.75 88.7 29.1 88.3 27.1 87.9 25.0 89.0 23.9 90.1 22.8 92.15 23.25 94.2 23.6 95.9 25.3 M52.15 30.7 Q51.6 31.55 50.35 31.65 49.05 31.75 47.85 31.1 46.7 30.4 46.1 29.2 45.55 28.05 46.05 27.2 46.5 26.35 47.85 26.2 49.25 26.1 50.4 26.75 51.55 27.4 52.05 28.6 52.6 29.85 52.15 30.7 M41.95 28.2 Q39.4 29.1 36.35 28.2 33.35 27.45 31.6 25.45 29.95 23.5 30.55 21.4 31.05 19.35 33.4 18.55 L39.0 18.4 Q42.1 19.2 43.75 21.3 45.55 23.2 45.0 25.3 44.4 27.4 41.95 28.2" fill="#ffffff" fill-opacity="0.6" fill-rule="evenodd" stroke="none"/>
    </g>
    <g id="sprite3" transform="matrix(1.0, 0.0, 0.0, 1.0, 15.2, 19.65)">
      <use ffdec:characterId="62" height="9.3" transform="matrix(1.0, 0.0, 0.0, 1.0, -3.0, -6.35)" width="9.3" xlink:href="#shape4"/>
      <use ffdec:characterId="63" height="33.55" transform="matrix(0.4248, 0.7364, -0.5688, 0.0125, 3.9, -14.65)" width="34.75" xlink:href="#shape5"/>
      <use ffdec:characterId="63" height="33.55" transform="matrix(-0.6951, 0.4858, -0.0639, -0.5655, 14.55, -0.7)" width="34.75" xlink:href="#shape5"/>
    </g>
    <g id="shape4" transform="matrix(1.0, 0.0, 0.0, 1.0, 3.0, 6.35)">
      <path d="M5.0 -4.95 Q6.3 -3.6 6.3 -1.7 6.3 0.25 5.0 1.6 3.55 2.95 1.65 2.95 -0.3 2.95 -1.65 1.6 -3.0 0.25 -3.0 -1.7 -3.0 -3.6 -1.65 -4.95 -0.3 -6.35 1.65 -6.35 3.55 -6.35 5.0 -4.95" fill="url(#gradient5)" fill-rule="evenodd" stroke="none"/>
    </g>
    <radialGradient cx="0" cy="0" gradientTransform="matrix(0.0074, 0.0, 0.0, 0.0074, 1.65, -1.7)" gradientUnits="userSpaceOnUse" id="gradient5" r="819.2" spreadMethod="pad">
      <stop offset="0.5098039215686274" stop-color="#ffffff" stop-opacity="0.6"/>
      <stop offset="0.6705882352941176" stop-color="#ffffff" stop-opacity="0.0"/>
    </radialGradient>
    <g id="shape5" transform="matrix(1.0, 0.0, 0.0, 1.0, 0.0, 0.0)">
      <path d="M11.1 25.65 Q-2.0 35.85 0.35 32.85 15.65 11.45 34.75 0.0 24.6 15.1 11.1 25.65" fill="url(#gradient6)" fill-rule="evenodd" stroke="none"/>
    </g>
    <linearGradient gradientTransform="matrix(0.0212, 0.0, 0.0, 0.0205, 17.35, 16.75)" gradientUnits="userSpaceOnUse" id="gradient6" spreadMethod="pad" x1="-819.2" x2="819.2">
      <stop offset="0.0" stop-color="#ffffff" stop-opacity="0.0"/>
      <stop offset="0.47843137254901963" stop-color="#ffffff"/>
      <stop offset="0.996078431372549" stop-color="#ffffff" stop-opacity="0.0"/>
    </linearGradient>
    <g id="sprite4" transform="matrix(1.0, 0.0, 0.0, 1.0, 66.3, 0.0)">
      <use ffdec:characterId="256" height="17.05" transform="matrix(1.0, 0.0, 0.0, 1.0, -0.05, 1.65)" width="70.15" xlink:href="#shape6"/>
      <clipPath id="clipPath0">
        <path d="M 6.15 2.25 L 5.86 2.26 L 5.57 2.28 L 5.29 2.33 L 5.02 2.38 L 4.75 2.46 L 4.49 2.55 L 4.23 2.66 L 3.97 2.79 L 3.73 2.93 L 3.49 3.09 L 3.25 3.27 L 3.02 3.46 L 2.79 3.67 L 2.57 3.9 L 2.36 4.14 L 2.15 4.4 L 1.96 4.67 L 1.77 4.94 L 1.61 5.22 L 1.45 5.51 L 1.31 5.8 L 1.17 6.1 L 1.06 6.41 L 0.95 6.72 L 0.86 7.05 L 0.77 7.38 L 0.71 7.71 L 0.65 8.06 L 0.61 8.41 L 0.57 8.76 L 0.56 9.13 L 0.55 9.5 L 0.56 9.87 L 0.57 10.23 L 0.61 10.58 L 0.65 10.93 L 0.71 11.27 L 0.77 11.6 L 0.86 11.93 L 0.95 12.25 L 1.06 12.57 L 1.17 12.88 L 1.31 13.18 L 1.45 13.48 L 1.61 13.77 L 1.77 14.05 L 1.96 14.33 L 2.15 14.6 L 2.36 14.85 L 2.57 15.09 L 2.79 15.31 L 3.02 15.52 L 3.25 15.71 L 3.49 15.88 L 3.73 16.04 L 3.97 16.17 L 4.23 16.3 L 4.49 16.4 L 4.75 16.49 L 5.02 16.57 L 5.29 16.63 L 5.57 16.67 L 5.86 16.69 L 6.15 16.7 L 62.65 16.7 L 62.92 16.69 L 63.19 16.67 L 63.46 16.63 L 63.72 16.57 L 63.98 16.49 L 64.24 16.4 L 64.49 16.3 L 64.74 16.17 L 64.98 16.04 L 65.22 15.88 L 65.46 15.71 L 65.7 15.52 L 65.93 15.31 L 66.16 15.09 L 66.38 14.85 L 66.6 14.6 L 66.8 14.33 L 66.99 14.05 L 67.16 13.77 L 67.32 13.48 L 67.47 13.18 L 67.61 12.88 L 67.73 12.57 L 67.84 12.25 L 67.93 11.93 L 68.02 11.6 L 68.09 11.27 L 68.15 10.93 L 68.19 10.58 L 68.22 10.23 L 68.24 9.87 L 68.25 9.5 L 68.24 9.13 L 68.22 8.76 L 68.19 8.41 L 68.15 8.06 L 68.09 7.71 L 68.02 7.38 L 67.93 7.05 L 67.84 6.72 L 67.73 6.41 L 67.61 6.1 L 67.47 5.8 L 67.32 5.51 L 67.16 5.22 L 66.99 4.94 L 66.8 4.67 L 66.6 4.4 L 66.38 4.14 L 66.16 3.9 L 65.93 3.67 L 65.7 3.46 L 65.46 3.27 L 65.22 3.09 L 64.98 2.93 L 64.74 2.79 L 64.49 2.66 L 64.24 2.55 L 63.98 2.46 L 63.72 2.38 L 63.46 2.33 L 63.19 2.28 L 62.92 2.26 L 62.65 2.25 Z"/>
      </clipPath>
      <g clip-path="url(#clipPath0)">
        <use ffdec:characterId="1469" height="22.1" transform="matrix(0.9325, 0.0, 0.0, 0.9321, -66.3001, 1.0E-4)" width="72.6" xlink:href="#sprite5"/>
      </g>
      <use ffdec:characterId="260" height="15.95" transform="matrix(1.0, 0.0, 0.0, 1.0, -0.2, 1.5)" width="69.2" xlink:href="#shape8"/>
    </g>
    <g id="shape6" transform="matrix(1.0, 0.0, 0.0, 1.0, -201.3, -153.3)">
      <path d="M207.6 170.35 Q205.2 170.35 203.5 168.05 201.85 165.75 201.85 162.55 201.85 159.3 203.5 157.0 205.2 154.7 207.6 154.7 L265.7 154.7 Q267.95 154.7 269.75 157.0 271.45 159.3 271.45 162.55 271.45 165.75 269.75 168.05 267.95 170.35 265.7 170.35 L207.6 170.35" fill="#000000" fill-opacity="0.2" fill-rule="evenodd" stroke="none"/>
      <path d="M203.7 155.9 Q205.35 153.8 207.7 153.8 L263.95 153.8 Q266.15 153.8 267.9 155.9 269.55 158.0 269.55 161.0 269.55 164.0 267.9 166.1 266.15 168.2 263.95 168.2 L207.7 168.2 Q205.35 168.2 203.7 166.1 202.1 164.0 202.1 161.0 202.1 158.0 203.7 155.9" fill="#3c054a" fill-rule="evenodd" stroke="none"/>
      <path d="M203.5 156.05 Q205.15 153.9 207.5 153.9 L264.0 153.9 Q266.2 153.9 267.95 156.05 269.6 158.15 269.6 161.15 269.6 164.1 267.95 166.25 266.2 168.35 264.0 168.35 L207.5 168.35 Q205.15 168.35 203.5 166.25 201.9 164.1 201.9 161.15 201.9 158.15 203.5 156.05" fill="url(#gradient7)" fill-rule="evenodd" stroke="none"/>
      <path d="M203.5 156.05 Q201.9 158.15 201.9 161.15 201.9 164.1 203.5 166.25 205.15 168.35 207.5 168.35 L264.0 168.35 Q266.2 168.35 267.95 166.25 269.6 164.1 269.6 161.15 269.6 158.15 267.95 156.05 266.2 153.9 264.0 153.9 L207.5 153.9 Q205.15 153.9 203.5 156.05 Z" fill="none" stroke="#009900" stroke-linecap="round" stroke-linejoin="round" stroke-width="1.2000000000000002"/>
      <path d="M269.6 161.75 L269.3 160.0 Q268.9 158.5 267.95 157.3 266.2 155.15 264.0 155.15 L207.5 155.15 Q205.15 155.15 203.5 157.3 201.9 159.4 201.9 162.4" fill="none" stroke="#000000" stroke-linecap="round" stroke-linejoin="round" stroke-opacity="0.2" stroke-width="1.2000000000000002"/>
    </g>
    <linearGradient gradientTransform="matrix(1.0E-4, 0.0159, -0.0088, 0.0, 235.9, 163.95)" gradientUnits="userSpaceOnUse" id="gradient7" spreadMethod="pad" x1="-819.2" x2="819.2">
      <stop offset="0.00784313725490196" stop-color="#3c054a"/>
      <stop offset="0.21176470588235294" stop-color="#89489a"/>
      <stop offset="0.7372549019607844" stop-color="#3c054a"/>
    </linearGradient>
    <g id="sprite5" transform="matrix(1.0, 0.0, 0.0, 1.0, 36.3, 11.05)">
      <use ffdec:characterId="258" height="22.1" transform="matrix(1.0, 0.0, 0.0, 1.0, -36.3, -11.05)" width="72.6" xlink:href="#shape7"/>
    </g>
    <g id="shape7" transform="matrix(1.0, 0.0, 0.0, 1.0, 36.3, 11.05)">
      <path d="M36.3 -11.05 L36.3 11.05 -36.3 11.05 -36.3 -11.05 36.3 -11.05" fill="url(#gradient8)" fill-rule="evenodd" stroke="none"/>
    </g>
    <linearGradient gradientTransform="matrix(1.0E-4, 0.0122, -0.0135, 1.0E-4, -0.6, 0.05)" gradientUnits="userSpaceOnUse" id="gradient8" spreadMethod="pad" x1="-819.2" x2="819.2">
      <stop offset="0.00392156862745098" stop-color="#54c800"/>
      <stop offset="0.24705882352941178" stop-color="#ffff71"/>
      <stop offset="0.5843137254901961" stop-color="#54c800"/>
    </linearGradient>
    <g id="shape8" transform="matrix(1.0, 0.0, 0.0, 1.0, -201.15, -153.15)">
      <path d="M203.5 156.05 Q201.9 158.15 201.9 161.15 201.9 164.1 203.5 166.25 205.15 168.35 207.5 168.35 L264.0 168.35 Q266.2 168.35 267.95 166.25 269.6 164.1 269.6 161.15 269.6 158.15 267.95 156.05 266.2 153.9 264.0 153.9 L207.5 153.9 Q205.15 153.9 203.5 156.05 Z" fill="none" stroke="#007e00" stroke-linecap="round" stroke-linejoin="round" stroke-width="1.55"/>
      <path d="M206.15 157.65 Q206.55 158.05 206.55 158.65 206.55 159.25 206.15 159.65 205.75 160.05 205.15 160.05 204.55 160.05 204.15 159.65 203.75 159.25 203.75 158.65 203.75 158.05 204.15 157.65 204.55 157.25 205.15 157.25 205.75 157.25 206.15 157.65 M206.7 156.85 Q206.35 156.55 206.35 156.1 206.35 155.7 206.7 155.35 207.1 155.05 207.55 155.05 208.05 155.05 208.4 155.35 208.75 155.7 208.75 156.1 208.75 156.55 208.4 156.85 208.05 157.2 207.55 157.2 L206.7 156.85 M265.8 157.25 Q265.45 157.65 264.95 157.65 264.45 157.65 264.05 157.25 263.7 156.9 263.7 156.4 263.7 155.9 264.05 155.5 264.45 155.15 264.95 155.15 265.45 155.15 265.8 155.5 266.2 155.9 266.2 156.4 266.2 156.9 265.8 157.25" fill="#ffffff" fill-rule="evenodd" stroke="none"/>
    </g>
  </defs>
</svg>
