<?xml version="1.0" encoding="UTF-8" standalone="no"?>
<svg xmlns:ffdec="https://www.free-decompiler.com/flash" xmlns:xlink="http://www.w3.org/1999/xlink" ffdec:objectType="frame" height="22.15px" width="22.15px" xmlns="http://www.w3.org/2000/svg">
  <g transform="matrix(1.0, 0.0, 0.0, 1.0, 0.5, 0.5)">
    <use ffdec:characterId="1765" height="22.15" transform="matrix(1.0, 0.0, 0.0, 1.0, -0.5, -0.5)" width="22.15" xlink:href="#shape0"/>
  </g>
  <defs>
    <g id="shape0" transform="matrix(1.0, 0.0, 0.0, 1.0, 0.5, 0.5)">
      <path d="M20.05 15.3 Q19.3 16.8 18.05 18.05 14.95 21.15 10.55 21.15 6.2 21.15 3.1 18.05 1.85 16.8 1.1 15.3 0.0 13.15 0.0 10.55 0.0 6.2 3.1 3.1 6.2 0.0 10.55 0.0 14.95 0.0 18.05 3.1 21.15 6.2 21.15 10.55 21.15 13.15 20.05 15.3" fill="#ffff00" fill-rule="evenodd" stroke="none"/>
      <path d="M20.05 15.3 Q19.3 16.8 18.05 18.05 14.95 21.15 10.55 21.15 6.2 21.15 3.1 18.05 1.85 16.8 1.1 15.3 0.0 13.15 0.0 10.55 0.0 6.2 3.1 3.1 6.2 0.0 10.55 0.0 14.95 0.0 18.05 3.1 21.15 6.2 21.15 10.55 21.15 13.15 20.05 15.3 Z" fill="none" stroke="#ff9900" stroke-linecap="round" stroke-linejoin="round" stroke-width="1.0"/>
      <path d="M17.6 11.7 L16.1 14.05 Q13.8 16.7 10.55 16.7 7.35 16.7 5.05 14.05 4.1 12.95 3.55 11.7" fill="none" stroke="#754600" stroke-linecap="round" stroke-linejoin="round" stroke-width="2.0"/>
      <path d="M13.25 3.6 Q13.8 3.6 14.2 4.3 14.6 5.15 14.6 6.2 14.6 7.3 14.2 8.0 13.8 8.75 13.25 8.75 12.75 8.75 12.35 8.0 11.9 7.3 11.9 6.2 11.9 5.15 12.35 4.3 12.75 3.6 13.25 3.6 M7.85 3.6 Q8.4 3.6 8.8 4.3 9.2 5.15 9.2 6.2 9.2 7.3 8.8 8.0 8.4 8.75 7.85 8.75 7.35 8.75 6.95 8.0 6.5 7.3 6.5 6.2 6.5 5.15 6.95 4.3 7.35 3.6 7.85 3.6" fill="#754600" fill-rule="evenodd" stroke="none"/>
    </g>
  </defs>
</svg>
