<?xml version="1.0" encoding="UTF-8" standalone="no"?>
<svg xmlns:ffdec="https://www.free-decompiler.com/flash" xmlns:xlink="http://www.w3.org/1999/xlink" ffdec:objectType="frame" height="67.9px" width="36.75px" xmlns="http://www.w3.org/2000/svg">
  <g transform="matrix(1.0, 0.0, 0.0, 1.0, -1.95, 0.55)">
    <use ffdec:characterId="1994" height="187.55" transform="matrix(0.2195, 0.0, 0.0, 0.215, 1.9707, -0.5725)" width="167.35" xlink:href="#sprite0"/>
    <use ffdec:characterId="1995" height="59.9" transform="matrix(1.0, 0.0, 0.0, 1.0, 7.0, 7.45)" width="27.1" xlink:href="#shape1"/>
  </g>
  <defs>
    <g id="sprite0" transform="matrix(1.0, 0.0, 0.0, 1.0, 1.5, 1.5)">
      <use ffdec:characterId="1993" height="187.55" transform="matrix(1.0, 0.0, 0.0, 1.0, -1.5, -1.5)" width="167.35" xlink:href="#shape0"/>
    </g>
    <g id="shape0" transform="matrix(1.0, 0.0, 0.0, 1.0, 1.5, 1.5)">
      <path d="M163.7 79.7 Q164.7 88.55 164.15 97.8 L160.35 97.6 Q162.7 88.45 163.7 79.7" fill="#e2e2e2" fill-rule="evenodd" stroke="none"/>
      <path d="M0.7 80.85 Q1.6 72.8 3.85 64.5 17.95 19.2 56.7 4.95 102.6 -11.65 140.65 27.7 160.35 51.45 163.7 79.7 162.7 88.45 160.35 97.6 138.25 158.5 82.9 161.05 37.6 159.5 14.05 119.4 3.1 100.8 0.7 80.85" fill="#f0ebd9" fill-rule="evenodd" stroke="none"/>
      <path d="M164.15 97.8 Q163.45 109.1 160.35 121.1 138.25 182.0 82.9 184.55 37.6 183.0 14.05 142.9 -3.2 113.6 0.7 80.85 3.1 100.8 14.05 119.4 37.6 159.5 82.9 161.05 138.25 158.5 160.35 97.6 L164.15 97.8" fill="#e6ddbf" fill-rule="evenodd" stroke="none"/>
      <path d="M163.7 79.7 Q164.7 88.55 164.15 97.8 163.45 109.1 160.35 121.1 138.25 182.0 82.9 184.55 37.6 183.0 14.05 142.9 -3.2 113.6 0.7 80.85 1.6 72.8 3.85 64.5 17.95 19.2 56.7 4.95 102.6 -11.65 140.65 27.7 160.35 51.45 163.7 79.7 Z" ffdec:has-small-stroke="true" ffdec:original-stroke-width="3.0" fill="none" stroke="#999999" stroke-linecap="round" stroke-linejoin="round" stroke-width="4.602478339154786"/>
    </g>
    <g id="shape1" transform="matrix(1.0, 0.0, 0.0, 1.0, -7.0, -7.45)">
      <path d="M27.85 29.0 Q25.75 36.95 19.85 37.0 13.0 36.45 11.25 29.0 19.85 35.4 27.85 29.0" fill="#ffffff" fill-rule="evenodd" stroke="none"/>
      <path d="M27.85 29.0 Q25.75 36.95 19.85 37.0 13.0 36.45 11.25 29.0 19.85 35.4 27.85 29.0 Z" ffdec:has-small-stroke="true" ffdec:original-stroke-width="0.05" fill="none" stroke="#666666" stroke-linecap="round" stroke-linejoin="round" stroke-width="1.0"/>
      <path d="M17.35 20.25 L21.75 20.25 Q20.9 53.95 19.65 65.25 17.65 69.45 16.0 65.25 15.35 58.1 17.35 20.25" fill="#f0ebd9" fill-rule="evenodd" stroke="none"/>
      <path d="M17.35 20.25 Q15.35 58.1 16.0 65.25 17.65 69.45 19.65 65.25 20.9 53.95 21.75 20.25" ffdec:has-small-stroke="true" ffdec:original-stroke-width="0.05" fill="none" stroke="#666666" stroke-linecap="round" stroke-linejoin="round" stroke-width="1.0"/>
      <path d="M17.85 9.3 Q19.7 11.15 19.7 13.8 19.7 16.45 17.85 18.3 16.0 20.15 13.35 20.15 10.7 20.15 8.85 18.3 7.0 16.45 7.0 13.8 7.0 11.15 8.85 9.3 10.7 7.45 13.35 7.45 16.0 7.45 17.85 9.3 M14.6 11.75 L13.95 11.25 12.9 11.0 Q11.9 11.0 11.2 11.75 10.5 12.55 10.5 13.65 10.5 14.75 11.2 15.5 L12.5 16.3 12.9 16.3 Q13.9 16.3 14.6 15.5 15.3 14.75 15.3 13.65 15.3 12.55 14.6 11.75" fill="#ffffff" fill-rule="evenodd" stroke="none"/>
      <path d="M14.6 11.75 Q15.3 12.55 15.3 13.65 15.3 14.75 14.6 15.5 13.9 16.3 12.9 16.3 L12.5 16.3 11.2 15.5 Q10.5 14.75 10.5 13.65 10.5 12.55 11.2 11.75 11.9 11.0 12.9 11.0 L13.95 11.25 14.6 11.75" fill="#996600" fill-rule="evenodd" stroke="none"/>
      <path d="M17.85 9.3 Q19.7 11.15 19.7 13.8 19.7 16.45 17.85 18.3 16.0 20.15 13.35 20.15 10.7 20.15 8.85 18.3 7.0 16.45 7.0 13.8 7.0 11.15 8.85 9.3 10.7 7.45 13.35 7.45 16.0 7.45 17.85 9.3 Z" ffdec:has-small-stroke="true" ffdec:original-stroke-width="0.05" fill="none" stroke="#666666" stroke-linecap="round" stroke-linejoin="round" stroke-width="1.0"/>
      <path d="M26.5 12.35 L27.15 11.85 28.2 11.6 Q29.2 11.6 29.9 12.35 30.6 13.15 30.6 14.25 30.6 15.35 29.9 16.1 L28.6 16.9 28.2 16.9 Q27.2 16.9 26.5 16.1 25.8 15.35 25.8 14.25 25.8 13.15 26.5 12.35" fill="#996600" fill-rule="evenodd" stroke="none"/>
      <path d="M23.25 9.9 Q25.1 8.05 27.75 8.05 30.4 8.05 32.25 9.9 34.1 11.75 34.1 14.4 34.1 17.05 32.25 18.9 30.4 20.75 27.75 20.75 25.1 20.75 23.25 18.9 21.4 17.05 21.4 14.4 21.4 11.75 23.25 9.9 M26.5 12.35 Q25.8 13.15 25.8 14.25 25.8 15.35 26.5 16.1 27.2 16.9 28.2 16.9 L28.6 16.9 29.9 16.1 Q30.6 15.35 30.6 14.25 30.6 13.15 29.9 12.35 29.2 11.6 28.2 11.6 L27.15 11.85 26.5 12.35" fill="#ffffff" fill-rule="evenodd" stroke="none"/>
      <path d="M23.25 9.9 Q21.4 11.75 21.4 14.4 21.4 17.05 23.25 18.9 25.1 20.75 27.75 20.75 30.4 20.75 32.25 18.9 34.1 17.05 34.1 14.4 34.1 11.75 32.25 9.9 30.4 8.05 27.75 8.05 25.1 8.05 23.25 9.9 Z" ffdec:has-small-stroke="true" ffdec:original-stroke-width="0.05" fill="none" stroke="#666666" stroke-linecap="round" stroke-linejoin="round" stroke-width="1.0"/>
    </g>
  </defs>
</svg>
