<?xml version="1.0" encoding="UTF-8" standalone="no"?>
<svg xmlns:ffdec="https://www.free-decompiler.com/flash" xmlns:xlink="http://www.w3.org/1999/xlink" ffdec:objectType="frame" height="6.0px" width="5.5px" xmlns="http://www.w3.org/2000/svg">
  <g transform="matrix(1.0, 0.0, 0.0, 1.0, 0.0, 0.0)">
    <use ffdec:characterId="174" height="6.0" transform="matrix(1.0, 0.0, 0.0, 1.0, 0.0, 0.0)" width="5.5" xlink:href="#shape0"/>
  </g>
  <defs>
    <g id="shape0" transform="matrix(1.0, 0.0, 0.0, 1.0, 0.0, 0.0)">
      <path d="M4.7 0.85 Q5.5 1.75 5.5 3.0 5.5 3.9 5.1 4.6 L4.7 5.1 Q4.1 5.8 3.3 5.95 L2.75 6.0 Q1.6 6.0 0.8 5.1 0.0 4.25 0.0 3.0 0.0 1.75 0.8 0.85 1.6 0.0 2.75 0.0 L3.85 0.25 4.7 0.85" fill="#2c9300" fill-rule="evenodd" stroke="none"/>
    </g>
  </defs>
</svg>
