<?xml version="1.0" encoding="UTF-8" standalone="no"?>
<svg xmlns:ffdec="https://www.free-decompiler.com/flash" xmlns:xlink="http://www.w3.org/1999/xlink" ffdec:objectType="frame" height="28.45px" width="28.3px" xmlns="http://www.w3.org/2000/svg">
  <g transform="matrix(1.0, 0.0, 0.0, 1.0, -11.2, -11.05)">
    <use ffdec:characterId="2164" height="27.6" transform="matrix(1.0, 0.0, 0.0, 1.0, 11.55, 11.55)" width="27.6" xlink:href="#shape0"/>
    <use ffdec:characterId="2165" height="63.8" transform="matrix(-0.415, -0.0104, -0.012, 0.4284, 39.3105, 11.7517)" width="65.5" xlink:href="#shape1"/>
    <use ffdec:characterId="2166" height="28.3" transform="matrix(1.0, 0.0, 0.0, 1.0, 11.2, 11.2)" width="28.3" xlink:href="#shape2"/>
  </g>
  <defs>
    <g id="shape0" transform="matrix(1.0, 0.0, 0.0, 1.0, -11.55, -11.55)">
      <path d="M35.1 15.6 Q39.15 19.65 39.15 25.35 39.15 31.05 35.1 35.1 31.05 39.15 25.35 39.15 19.65 39.15 15.6 35.1 11.55 31.05 11.55 25.35 11.55 19.65 15.6 15.6 19.65 11.55 25.35 11.55 31.05 11.55 35.1 15.6" fill="url(#gradient0)" fill-rule="evenodd" stroke="none"/>
    </g>
    <linearGradient gradientTransform="matrix(0.0039, -0.0145, 0.9648, 0.2567, -5.6, 16.9)" gradientUnits="userSpaceOnUse" id="gradient0" spreadMethod="pad" x1="-819.2" x2="819.2">
      <stop offset="0.0" stop-color="#d9abab"/>
      <stop offset="0.8392156862745098" stop-color="#150000"/>
    </linearGradient>
    <g id="shape1" transform="matrix(1.0, 0.0, 0.0, 1.0, 32.6, 31.95)">
      <path d="M32.85 -2.3 Q33.45 9.35 25.85 19.0 17.4 29.6 3.95 31.5 -9.5 33.4 -20.2 25.45 -30.85 17.5 -32.35 4.55 -33.25 -2.4 -31.2 -8.7 -29.5 -14.2 -25.55 -19.1 -17.2 -29.7 -3.75 -31.55 9.7 -33.5 20.35 -25.55 31.1 -17.7 32.65 -4.55 L32.85 -2.3" fill="url(#gradient1)" fill-rule="evenodd" stroke="none"/>
      <path d="M10.2 -10.15 Q14.4 -5.95 14.4 0.0 14.4 6.0 10.2 10.2 5.95 14.4 0.0 14.45 -6.0 14.4 -10.2 10.2 -14.4 6.0 -14.4 0.0 -14.4 -5.95 -10.2 -10.15 -6.0 -14.4 0.0 -14.4 5.95 -14.4 10.2 -10.15" fill="#0d5ba9" fill-rule="evenodd" stroke="none"/>
      <path d="M5.65 -5.1 Q7.8 -2.9 7.85 0.2 7.8 3.3 5.65 5.5 3.45 7.7 0.35 7.7 -2.8 7.7 -4.95 5.5 -7.15 3.3 -7.15 0.2 -7.15 -2.9 -4.95 -5.1 -2.8 -7.3 0.35 -7.25 3.45 -7.3 5.65 -5.1" fill="#03202b" fill-rule="evenodd" stroke="none"/>
      <path d="M9.7 -10.45 Q11.15 -9.0 11.15 -6.9 11.15 -4.85 9.7 -3.4 8.25 -1.95 6.2 -1.95 4.1 -1.95 2.65 -3.4 1.2 -4.85 1.2 -6.9 1.2 -9.0 2.65 -10.45 4.1 -11.9 6.2 -11.9 8.25 -11.9 9.7 -10.45 M-1.95 4.55 Q-1.95 5.6 -2.7 6.35 -3.4 7.05 -4.45 7.05 -5.5 7.05 -6.2 6.35 -6.95 5.6 -6.95 4.55 -6.95 3.5 -6.2 2.8 -5.5 2.05 -4.45 2.05 -3.4 2.05 -2.7 2.8 -1.95 3.5 -1.95 4.55" fill="#e5e5e5" fill-rule="evenodd" stroke="none"/>
    </g>
    <radialGradient cx="0" cy="0" gradientTransform="matrix(0.0419, 0.0, 0.0, 0.0419, 2.05, 2.45)" gradientUnits="userSpaceOnUse" id="gradient1" r="819.2" spreadMethod="pad">
      <stop offset="0.44313725490196076" stop-color="#e6d5d5"/>
      <stop offset="0.8274509803921568" stop-color="#867878"/>
      <stop offset="1.0" stop-color="#997373"/>
    </radialGradient>
    <g id="shape2" transform="matrix(1.0, 0.0, 0.0, 1.0, -11.2, -11.2)">
      <path d="M33.85 23.65 Q31.1 25.6 24.4 23.5 17.7 21.4 16.0 27.0 14.9 30.65 15.15 32.05 13.15 29.1 13.15 25.35 13.15 20.3 16.75 16.75 20.3 13.15 25.35 13.15 30.4 13.15 34.0 16.75 L35.5 18.55 Q36.6 21.7 33.85 23.65" fill="url(#gradient2)" fill-rule="evenodd" stroke="none"/>
      <path d="M33.9 34.8 L32.4 36.2 29.85 36.15 Q28.25 34.95 29.35 31.95 30.0 30.2 30.9 28.95 32.15 27.25 33.4 27.15 34.55 27.0 35.2 28.1 36.8 30.9 33.9 34.8 M34.55 24.0 L34.85 23.35 Q35.4 22.55 36.3 23.35 37.15 24.1 36.4 25.05 L36.05 25.3 35.4 25.55 34.7 25.05 34.55 24.0" fill="#ffffff" fill-opacity="0.34117648" fill-rule="evenodd" stroke="none"/>
      <path d="M35.1 35.1 Q31.05 39.15 25.35 39.15 19.65 39.15 15.6 35.1 11.55 31.05 11.55 25.35 11.55 19.65 15.6 15.6 19.65 11.55 25.35 11.55 31.05 11.55 35.1 15.6 39.15 19.65 39.15 25.35 39.15 31.05 35.1 35.1 Z" ffdec:has-small-stroke="true" ffdec:original-stroke-width="0.7" fill="none" stroke="url(#gradient3)" stroke-linecap="round" stroke-linejoin="round" stroke-width="1.0"/>
    </g>
    <linearGradient gradientTransform="matrix(0.0033, 0.007, -0.7951, 0.3788, 53.1, 6.3)" gradientUnits="userSpaceOnUse" id="gradient2" spreadMethod="pad" x1="-819.2" x2="819.2">
      <stop offset="0.0" stop-color="#fffbf0" stop-opacity="0.8509804"/>
      <stop offset="1.0" stop-color="#fff7f0" stop-opacity="0.0"/>
    </linearGradient>
    <radialGradient cx="0" cy="0" gradientTransform="matrix(0.0316, 0.0, 0.0, 0.0316, 39.75, 13.5)" gradientUnits="userSpaceOnUse" id="gradient3" r="819.2" spreadMethod="pad">
      <stop offset="0.0" stop-color="#ffd200"/>
      <stop offset="0.2784313725490196" stop-color="#ffa800"/>
      <stop offset="0.5098039215686274" stop-color="#793700"/>
      <stop offset="1.0" stop-color="#380000"/>
    </radialGradient>
  </defs>
</svg>
