<?xml version="1.0" encoding="UTF-8" standalone="no"?>
<svg xmlns:ffdec="https://www.free-decompiler.com/flash" xmlns:xlink="http://www.w3.org/1999/xlink" ffdec:objectType="frame" height="185.6px" width="117.85px" xmlns="http://www.w3.org/2000/svg">
  <g transform="matrix(1.0, 0.0, 0.0, 1.0, 4.45, 4.65)">
    <use ffdec:characterId="251" height="195.55" id="bg_mc" transform="matrix(0.794, 0.0, 0.0, 0.9491, -4.4466, -4.6506)" width="148.4" xlink:href="#sprite0"/>
    <use ffdec:characterId="253" height="152.35" id="requirements_tx" transform="matrix(1.0, 0.0, 0.0, 1.0, 0.0, 25.65)" width="109.0" xlink:href="#text0"/>
    <use ffdec:characterId="276" ffdec:characterName="core390_fla.levelandbar_1491" height="20.05" id="levelDisplay_mc" transform="matrix(1.0, 0.0, 0.0, 1.0, 2.45, 27.75)" width="101.75" xlink:href="#sprite1"/>
    <use ffdec:characterId="277" height="18.8" id="trickName_tx" transform="matrix(1.0, 0.0, 0.0, 1.0, 3.0, 4.5)" width="106.0" xlink:href="#text3"/>
  </g>
  <defs>
    <g id="sprite0" transform="matrix(1.0, 0.0, 0.0, 1.0, 5.6, 4.9)">
      <use ffdec:characterId="250" height="195.55" transform="matrix(1.0, 0.0, 0.0, 1.0, -5.6, -4.9)" width="148.4" xlink:href="#shape0"/>
    </g>
    <g id="shape0" transform="matrix(1.0, 0.0, 0.0, 1.0, 5.6, 4.9)">
      <path d="M-2.1 -1.9 L139.95 -1.9 139.95 187.95 -2.1 187.95 -2.1 -1.9" fill="#ffffff" fill-rule="evenodd" stroke="none"/>
      <path d="M-3.6 -2.9 L140.8 -2.9 140.8 188.65 -3.6 188.65 -3.6 -2.9 Z" fill="none" stroke="url(#gradient0)" stroke-linecap="round" stroke-linejoin="round" stroke-width="4.0"/>
      <path d="M-3.6 -2.9 L140.8 -2.9 140.8 188.65 -3.6 188.65 -3.6 -2.9 Z" ffdec:has-small-stroke="true" ffdec:original-stroke-width="1.0" fill="none" stroke="#ffffff" stroke-linecap="round" stroke-linejoin="round" stroke-opacity="0.5294118" stroke-width="1.142835493518744"/>
      <path d="M135.0 183.35 L-0.25 183.35 -0.25 2.95 135.0 2.95 135.0 183.35" fill="#dbf8ff" fill-rule="evenodd" stroke="none"/>
    </g>
    <radialGradient cx="0" cy="0" gradientTransform="matrix(0.1489, 0.0, 0.0, 0.1489, 68.6, 92.9)" gradientUnits="userSpaceOnUse" id="gradient0" r="819.2" spreadMethod="pad">
      <stop offset="0.1803921568627451" stop-color="#0849b8"/>
      <stop offset="0.984313725490196" stop-color="#1290ff"/>
    </radialGradient>
    <g id="text0" transform="matrix(1.0, 0.0, 0.0, 1.0, 2.0, 2.0)">
      <g transform="matrix(1.0, 0.0, 0.0, 1.0, -2.0, -2.0)">
        <use fill="#4d0362" height="152.35" transform="matrix(0.0117, 0.0, 0.0, 0.0117, 0.0, 11.0)" width="109.0" xlink:href="#font_Burbank_Big_Regular_Bold_T0"/>
        <use fill="#4d0362" height="152.35" transform="matrix(0.0117, 0.0, 0.0, 0.0117, 4.85, 11.0)" width="109.0" xlink:href="#font_Burbank_Big_Regular_Bold_O0"/>
      </g>
      <g transform="matrix(1.0, 0.0, 0.0, 1.0, -2.0, -2.0)">
        <use fill="#4d0362" height="152.35" transform="matrix(0.0117, 0.0, 0.0, 0.0117, 14.45, 11.0)" width="109.0" xlink:href="#font_Burbank_Big_Regular_Bold_U0"/>
        <use fill="#4d0362" height="152.35" transform="matrix(0.0117, 0.0, 0.0, 0.0117, 20.95, 11.0)" width="109.0" xlink:href="#font_Burbank_Big_Regular_Bold_N0"/>
        <use fill="#4d0362" height="152.35" transform="matrix(0.0117, 0.0, 0.0, 0.0117, 27.65, 11.0)" width="109.0" xlink:href="#font_Burbank_Big_Regular_Bold_L0"/>
        <use fill="#4d0362" height="152.35" transform="matrix(0.0117, 0.0, 0.0, 0.0117, 32.05, 11.0)" width="109.0" xlink:href="#font_Burbank_Big_Regular_Bold_O0"/>
        <use fill="#4d0362" height="152.35" transform="matrix(0.0117, 0.0, 0.0, 0.0117, 39.05, 11.0)" width="109.0" xlink:href="#font_Burbank_Big_Regular_Bold_C0"/>
        <use fill="#4d0362" height="152.35" transform="matrix(0.0117, 0.0, 0.0, 0.0117, 45.85, 11.0)" width="109.0" xlink:href="#font_Burbank_Big_Regular_Bold_K0"/>
        <use fill="#4d0362" height="152.35" transform="matrix(0.0117, 0.0, 0.0, 0.0117, 52.2, 11.0)" width="109.0" xlink:href="#font_Burbank_Big_Regular_Bold_:0"/>
      </g>
      <g transform="matrix(1.0, 0.0, 0.0, 1.0, -2.0, -2.0)">
        <use fill="#4d0362" height="152.35" transform="matrix(0.0117, 0.0, 0.0, 0.0117, 0.0, 25.0)" width="109.0" xlink:href="#font_Burbank_Big_Regular_Bold_T0"/>
        <use fill="#4d0362" height="152.35" transform="matrix(0.0117, 0.0, 0.0, 0.0117, 3.8, 25.0)" width="109.0" xlink:href="#font_Burbank_Big_Regular_Bold_r0"/>
        <use fill="#4d0362" height="152.35" transform="matrix(0.0117, 0.0, 0.0, 0.0117, 8.1, 25.0)" width="109.0" xlink:href="#font_Burbank_Big_Regular_Bold_i0"/>
        <use fill="#4d0362" height="152.35" transform="matrix(0.0117, 0.0, 0.0, 0.0117, 10.95, 25.0)" width="109.0" xlink:href="#font_Burbank_Big_Regular_Bold_c0"/>
        <use fill="#4d0362" height="152.35" transform="matrix(0.0117, 0.0, 0.0, 0.0117, 16.95, 25.0)" width="109.0" xlink:href="#font_Burbank_Big_Regular_Bold_k0"/>
      </g>
      <g transform="matrix(1.0, 0.0, 0.0, 1.0, -2.0, -2.0)">
        <use fill="#4d0362" height="152.35" transform="matrix(0.0117, 0.0, 0.0, 0.0117, 25.55, 25.0)" width="109.0" xlink:href="#font_Burbank_Big_Regular_Bold_10"/>
      </g>
      <g transform="matrix(1.0, 0.0, 0.0, 1.0, -2.0, -2.0)">
        <use fill="#4d0362" height="152.35" transform="matrix(0.0117, 0.0, 0.0, 0.0117, 32.75, 25.0)" width="109.0" xlink:href="#font_Burbank_Big_Regular_Bold_L0"/>
        <use fill="#4d0362" height="152.35" transform="matrix(0.0117, 0.0, 0.0, 0.0117, 37.4, 25.0)" width="109.0" xlink:href="#font_Burbank_Big_Regular_Bold_e0"/>
        <use fill="#4d0362" height="152.35" transform="matrix(0.0117, 0.0, 0.0, 0.0117, 43.15, 25.0)" width="109.0" xlink:href="#font_Burbank_Big_Regular_Bold_v0"/>
        <use fill="#4d0362" height="152.35" transform="matrix(0.0117, 0.0, 0.0, 0.0117, 47.85, 25.0)" width="109.0" xlink:href="#font_Burbank_Big_Regular_Bold_e0"/>
        <use fill="#4d0362" height="152.35" transform="matrix(0.0117, 0.0, 0.0, 0.0117, 54.1, 25.0)" width="109.0" xlink:href="#font_Burbank_Big_Regular_Bold_l0"/>
      </g>
      <g transform="matrix(1.0, 0.0, 0.0, 1.0, -2.0, -2.0)">
        <use fill="#4d0362" height="152.35" transform="matrix(0.0117, 0.0, 0.0, 0.0117, 59.5, 25.0)" width="109.0" xlink:href="#font_Burbank_Big_Regular_Bold_30"/>
      </g>
    </g>
    <g id="font_Burbank_Big_Regular_Bold_T0">
      <path d="M9.0 -560.0 L9.0 -600.0 Q9.0 -639.0 8.0 -711.5 L48.0 -711.5 Q87.0 -712.0 153.0 -712.0 L301.5 -713.0 Q383.5 -713.5 471.0 -715.0 L470.5 -694.0 Q470.0 -673.5 470.0 -638.5 469.5 -603.5 470.0 -560.0 L450.5 -560.0 Q431.5 -560.0 398.0 -560.5 365.0 -560.5 322.5 -561.0 322.5 -472.5 324.0 -330.0 L327.5 5.0 281.0 5.0 Q235.0 4.5 158.5 6.0 159.0 5.0 159.0 -64.0 L158.5 -260.5 Q158.0 -387.5 156.5 -561.0 L9.0 -560.0" fill-rule="evenodd" stroke="none"/>
    </g>
    <g id="font_Burbank_Big_Regular_Bold_O0">
      <path d="M300.0 -112.5 Q329.5 -112.0 351.0 -134.0 372.5 -156.5 384.5 -210.0 396.0 -263.5 396.5 -356.5 396.0 -482.0 371.5 -538.5 347.0 -595.0 299.0 -594.0 251.5 -594.5 226.5 -537.0 202.0 -479.5 201.5 -356.5 202.0 -268.5 213.0 -215.0 224.0 -161.0 246.0 -136.5 267.5 -112.5 300.0 -112.5 M300.0 18.5 Q163.0 18.0 93.5 -76.5 23.5 -171.0 22.5 -352.5 21.5 -463.0 51.0 -547.5 80.5 -631.5 142.5 -679.0 204.5 -726.0 300.0 -727.0 396.0 -726.5 457.5 -680.5 519.0 -635.0 548.0 -551.0 577.0 -467.5 576.5 -353.5 575.5 -220.5 542.0 -138.5 508.0 -56.5 446.5 -19.0 385.0 19.0 300.0 18.5" fill-rule="evenodd" stroke="none"/>
    </g>
    <g id="font_Burbank_Big_Regular_Bold_U0">
      <path d="M278.5 14.5 Q144.5 14.0 83.0 -88.0 21.5 -190.5 22.5 -394.0 22.5 -471.0 29.0 -548.0 36.0 -625.0 48.0 -700.5 L87.5 -695.0 Q127.0 -689.5 211.0 -680.0 200.0 -601.5 194.5 -539.0 188.5 -476.0 188.5 -421.0 188.5 -318.0 199.0 -256.5 209.5 -195.0 229.0 -168.0 248.5 -140.5 276.5 -141.5 305.0 -140.5 323.5 -162.0 342.5 -183.5 351.5 -236.0 360.5 -288.5 360.5 -381.0 360.5 -457.0 353.0 -544.0 346.0 -631.0 333.0 -721.0 L375.5 -723.0 500.5 -732.0 Q515.5 -642.5 524.0 -555.5 532.5 -468.5 532.5 -388.0 533.5 -186.0 473.0 -86.0 412.5 14.5 278.5 14.5" fill-rule="evenodd" stroke="none"/>
    </g>
    <g id="font_Burbank_Big_Regular_Bold_N0">
      <path d="M40.0 -17.5 L40.5 -99.0 Q41.0 -179.5 40.5 -329.5 40.0 -479.5 37.0 -688.0 L59.0 -689.5 117.0 -692.0 198.5 -695.5 212.0 -661.0 250.0 -567.5 Q275.0 -507.5 309.0 -428.0 342.5 -348.0 384.0 -255.0 382.5 -325.0 378.0 -447.0 373.5 -569.5 364.5 -730.0 L386.0 -729.5 442.5 -728.5 Q478.0 -728.0 522.0 -728.0 L523.5 -638.5 Q524.5 -550.5 527.5 -386.0 530.5 -221.5 535.5 7.0 L491.5 11.0 375.0 18.5 351.5 -35.5 286.5 -185.0 187.5 -412.5 Q188.0 -346.5 191.0 -244.5 194.5 -142.0 199.5 -15.5 L177.5 -16.0 120.0 -17.0 Q84.0 -17.5 40.0 -17.5" fill-rule="evenodd" stroke="none"/>
    </g>
    <g id="font_Burbank_Big_Regular_Bold_L0">
      <path d="M43.0 -3.0 L43.0 -59.5 Q43.0 -114.5 42.0 -211.5 L40.5 -435.0 37.0 -705.5 77.5 -705.0 Q118.0 -704.0 204.0 -705.5 203.5 -706.0 203.5 -677.5 L203.5 -584.5 Q203.5 -520.0 204.5 -412.0 205.5 -304.5 208.0 -146.5 318.5 -143.5 376.0 -143.5 433.0 -143.0 433.0 -143.5 431.5 -75.0 432.0 -37.5 L432.0 1.0 Q358.5 -0.5 289.0 -1.5 L164.5 -2.5 76.5 -3.0 43.0 -3.0" fill-rule="evenodd" stroke="none"/>
    </g>
    <g id="font_Burbank_Big_Regular_Bold_C0">
      <path d="M299.0 17.5 Q165.5 18.5 94.5 -71.5 23.0 -161.0 22.5 -354.5 22.5 -537.0 92.5 -632.5 162.5 -728.5 302.0 -729.0 388.5 -728.5 443.5 -691.0 499.0 -653.0 526.5 -588.0 554.0 -522.5 557.0 -438.5 466.0 -435.5 422.0 -435.0 L378.0 -435.0 Q374.0 -518.5 353.5 -556.0 332.5 -593.5 295.0 -593.0 246.5 -593.0 224.5 -534.5 202.0 -476.0 203.0 -356.5 202.5 -232.0 226.0 -175.5 249.5 -119.0 298.0 -120.0 323.0 -119.0 342.0 -135.0 361.0 -151.0 372.0 -190.0 383.0 -229.0 384.0 -298.0 466.5 -298.0 516.0 -297.0 L566.5 -296.0 Q564.5 -184.0 531.0 -115.0 498.0 -45.5 438.5 -13.5 379.5 18.5 299.0 17.5" fill-rule="evenodd" stroke="none"/>
    </g>
    <g id="font_Burbank_Big_Regular_Bold_K0">
      <path d="M378.0 24.5 Q343.5 -69.0 316.5 -136.0 290.0 -202.5 271.5 -244.5 237.0 -184.0 203.0 -123.0 203.5 -69.0 204.0 -41.0 L205.0 -13.5 Q124.5 -14.0 81.0 -13.0 L37.0 -12.5 Q37.5 -165.0 37.5 -290.5 38.0 -416.0 37.5 -507.0 37.5 -598.0 37.0 -647.5 L37.0 -697.5 Q113.0 -695.5 157.5 -695.5 202.0 -696.0 203.0 -696.5 202.0 -593.0 202.0 -505.5 201.5 -418.5 201.5 -345.0 289.5 -535.0 333.5 -632.0 L378.0 -729.0 512.5 -723.5 559.0 -723.0 Q497.0 -599.5 454.5 -512.5 411.5 -425.5 390.0 -380.0 438.5 -260.5 477.0 -172.0 515.0 -83.5 537.5 -34.5 L560.0 15.5 427.0 21.0 378.0 24.5" fill-rule="evenodd" stroke="none"/>
    </g>
    <g id="font_Burbank_Big_Regular_Bold_:0">
      <path d="M114.5 -269.5 Q71.5 -270.0 47.0 -296.5 23.0 -323.5 22.5 -368.5 23.5 -413.0 49.0 -437.5 74.5 -462.5 115.5 -463.0 160.5 -462.0 184.0 -436.5 207.5 -411.0 208.0 -368.5 207.0 -316.0 181.0 -292.5 155.0 -269.0 114.5 -269.5 M116.5 15.5 Q74.0 14.5 49.5 -12.0 25.0 -38.0 24.5 -82.0 25.0 -126.5 50.5 -152.5 76.0 -178.5 119.0 -179.0 162.0 -178.5 186.5 -153.0 210.5 -127.0 211.0 -82.0 210.5 -33.0 185.0 -8.5 159.5 15.5 116.5 15.5" fill-rule="evenodd" stroke="none"/>
    </g>
    <g id="font_Burbank_Big_Regular_Bold_r0">
      <path d="M35.0 1.0 L35.0 -43.5 Q35.5 -86.5 35.5 -159.5 35.5 -232.5 35.0 -322.0 35.0 -412.0 34.0 -506.0 33.5 -505.5 66.5 -505.5 99.5 -505.5 169.0 -507.0 L168.0 -480.5 Q167.0 -455.0 167.0 -415.5 191.5 -469.5 243.0 -499.0 294.0 -528.5 359.5 -525.5 L357.5 -485.5 Q356.0 -446.0 354.5 -369.5 297.5 -366.0 263.5 -347.0 230.0 -328.5 215.0 -290.5 200.0 -252.5 198.5 -191.5 198.0 -162.0 198.0 -129.0 L199.0 -67.0 200.0 -19.0 200.5 0.0 159.0 0.0 Q118.0 0.5 35.0 1.0" fill-rule="evenodd" stroke="none"/>
    </g>
    <g id="font_Burbank_Big_Regular_Bold_i0">
      <path d="M124.0 -562.0 Q72.5 -562.5 47.0 -585.0 21.5 -607.5 21.5 -651.5 21.5 -691.5 47.5 -714.0 73.0 -737.0 124.0 -737.5 174.5 -736.5 199.0 -713.0 223.5 -689.5 223.0 -651.5 223.5 -612.0 199.5 -587.5 175.0 -563.0 124.0 -562.0 M43.0 -1.0 L43.0 -50.5 42.5 -213.5 Q42.0 -326.0 40.0 -513.0 L83.0 -513.0 Q125.5 -512.5 204.0 -514.0 L203.5 -473.0 Q203.5 -433.0 204.0 -362.5 204.0 -292.0 204.5 -199.5 205.5 -107.0 207.0 -2.0 L185.5 -2.0 Q164.0 -2.5 127.5 -2.0 90.5 -2.0 43.0 -1.0" fill-rule="evenodd" stroke="none"/>
    </g>
    <g id="font_Burbank_Big_Regular_Bold_c0">
      <path d="M267.5 16.5 Q142.0 15.5 82.0 -56.5 22.0 -128.5 22.5 -258.0 22.5 -340.0 49.5 -401.0 77.0 -461.5 130.5 -495.0 184.5 -529.0 264.0 -529.5 337.0 -529.0 389.0 -500.0 440.5 -471.0 468.0 -420.0 496.0 -369.0 496.5 -302.0 458.0 -303.0 419.5 -302.5 380.5 -302.0 354.0 -301.0 L326.5 -300.0 Q325.0 -353.5 308.5 -383.0 292.0 -412.5 262.0 -412.5 227.0 -412.5 208.5 -372.0 190.5 -331.5 190.5 -255.0 190.5 -181.0 209.0 -144.5 227.0 -107.5 263.0 -107.5 289.0 -106.5 306.5 -131.5 324.0 -157.0 325.5 -215.0 L366.0 -213.0 Q407.5 -211.0 499.5 -211.0 493.5 -129.0 461.5 -78.5 430.0 -28.5 379.5 -6.0 329.5 17.0 267.5 16.5" fill-rule="evenodd" stroke="none"/>
    </g>
    <g id="font_Burbank_Big_Regular_Bold_k0">
      <path d="M333.0 21.5 Q305.0 -53.0 284.5 -106.0 263.5 -159.5 250.0 -191.5 L220.0 -146.5 Q207.0 -126.5 198.5 -112.5 198.5 -62.0 199.0 -38.5 L199.5 -15.5 Q122.0 -17.5 79.0 -17.0 L35.0 -16.5 Q36.5 -258.5 36.0 -409.0 36.0 -559.0 35.5 -628.0 L35.0 -696.5 Q119.0 -694.0 159.5 -694.5 200.0 -695.0 199.5 -695.5 L198.5 -459.0 Q197.5 -358.0 197.5 -282.5 256.0 -401.0 284.5 -466.0 313.5 -530.5 313.5 -531.5 L451.5 -525.5 Q501.0 -524.0 502.0 -524.5 451.5 -447.5 418.0 -393.5 385.0 -339.5 366.5 -308.0 433.0 -153.5 470.5 -69.5 L508.0 15.5 Q414.5 17.0 373.0 19.0 L333.0 21.5" fill-rule="evenodd" stroke="none"/>
    </g>
    <g id="font_Burbank_Big_Regular_Bold_10">
      <path d="M150.5 3.0 Q152.0 -207.0 151.0 -333.5 150.5 -460.5 149.5 -507.0 103.0 -483.5 76.5 -468.0 L49.0 -452.5 Q27.5 -523.5 14.5 -561.5 1.5 -599.5 1.0 -600.0 100.5 -651.0 156.0 -681.5 L213.0 -712.5 289.0 -703.5 315.5 -700.5 Q315.5 -591.5 316.0 -489.0 L318.0 -297.5 320.0 -141.5 Q321.0 -74.0 322.0 -36.5 L322.5 2.0 Q242.5 4.0 197.0 3.5 151.5 3.5 150.5 3.0" fill-rule="evenodd" stroke="none"/>
    </g>
    <g id="font_Burbank_Big_Regular_Bold_e0">
      <path d="M269.5 -423.0 Q234.0 -423.0 215.0 -390.0 196.5 -357.5 192.5 -293.0 222.5 -293.5 259.0 -294.5 L341.0 -298.0 Q340.0 -358.0 322.0 -390.5 304.0 -422.5 269.5 -423.0 M273.5 16.5 Q181.0 15.5 126.0 -20.0 70.5 -55.5 46.5 -117.5 22.0 -179.5 22.5 -260.0 22.5 -339.5 51.0 -399.5 79.0 -460.0 133.5 -494.0 187.5 -528.0 266.0 -528.5 360.5 -527.0 415.5 -488.0 470.5 -448.5 492.5 -379.0 514.5 -309.5 510.0 -217.0 L428.5 -216.0 Q347.5 -215.0 192.5 -212.0 197.0 -150.5 216.5 -121.5 236.0 -92.0 271.5 -92.0 299.0 -92.0 317.0 -112.5 334.5 -133.0 341.0 -175.0 L386.0 -173.5 Q430.5 -172.5 511.0 -170.0 488.0 -77.5 426.0 -30.5 364.0 16.5 273.5 16.5" fill-rule="evenodd" stroke="none"/>
    </g>
    <g id="font_Burbank_Big_Regular_Bold_v0">
      <path d="M356.5 -5.0 Q247.5 -6.0 189.5 -5.5 L131.0 -5.0 1.0 -496.5 124.5 -500.5 170.0 -503.0 Q193.5 -366.0 209.0 -282.5 225.0 -199.0 233.0 -161.0 L240.5 -124.0 Q271.5 -275.0 288.5 -365.0 305.5 -455.0 312.0 -494.0 319.0 -533.5 318.5 -532.5 L444.0 -528.5 Q484.0 -528.0 483.5 -528.5 L411.5 -230.0 369.5 -59.5 356.5 -5.0" fill-rule="evenodd" stroke="none"/>
    </g>
    <g id="font_Burbank_Big_Regular_Bold_l0">
      <path d="M201.5 -8.0 Q124.5 -9.5 81.5 -10.0 38.5 -10.5 38.0 -10.0 40.0 -256.0 40.0 -409.5 40.0 -562.5 39.5 -633.5 L39.0 -703.5 Q123.0 -702.0 163.5 -701.5 L204.0 -701.5 Q202.0 -497.5 201.5 -363.0 200.5 -228.0 201.0 -150.0 201.0 -72.5 201.5 -40.0 L201.5 -8.0" fill-rule="evenodd" stroke="none"/>
    </g>
    <g id="font_Burbank_Big_Regular_Bold_30">
      <path d="M279.5 23.5 Q135.5 23.0 68.5 -50.0 1.5 -123.0 14.5 -258.0 L40.0 -257.0 105.0 -253.5 193.5 -249.0 Q187.0 -177.0 209.0 -143.0 231.0 -109.0 277.5 -109.5 317.5 -109.0 341.0 -130.5 365.0 -151.5 365.5 -198.5 365.5 -231.5 352.5 -253.0 339.5 -274.5 314.5 -285.5 291.0 -295.0 259.0 -298.0 227.0 -301.0 184.5 -298.0 L183.5 -328.0 Q182.5 -358.0 180.0 -412.5 224.5 -409.5 259.5 -413.0 295.0 -416.5 317.5 -427.0 337.0 -436.5 349.0 -456.5 361.0 -477.0 361.5 -508.0 361.5 -553.5 340.5 -576.5 320.0 -600.0 281.5 -600.0 235.5 -599.5 215.0 -564.5 194.0 -529.0 198.5 -463.0 118.5 -462.0 71.0 -461.0 L22.5 -460.0 Q12.5 -596.5 81.0 -664.0 150.0 -731.5 289.0 -731.0 366.0 -730.5 421.0 -703.5 476.0 -676.0 505.5 -629.0 535.0 -582.0 535.5 -522.0 534.5 -460.0 502.5 -419.5 470.5 -379.5 419.0 -362.5 475.0 -347.5 510.0 -303.5 545.0 -259.0 546.0 -190.5 545.0 -117.5 509.5 -70.0 473.5 -22.5 413.5 0.5 353.5 23.5 279.5 23.5" fill-rule="evenodd" stroke="none"/>
    </g>
    <g id="sprite1" transform="matrix(1.0, 0.0, 0.0, 1.0, -2.45, 1.55)">
      <use ffdec:characterId="254" height="11.6" transform="matrix(1.0, 0.0, 0.0, 1.0, 2.45, 0.6)" width="30.75" xlink:href="#text1"/>
      <filter id="filter28">
        <feColorMatrix in="SourceGraphic" result="filterResult0" type="matrix" values="0 0 0 0 0.23529412,0 0 0 0 0.019607844,0 0 0 0 0.2901961,0 0 0 1 0"/>
        <feConvolveMatrix divisor="9.0" in="filterResult0" kernelMatrix="1 1 1 1 1 1 1 1 1" order="3 3" result="filterResult1"/>
        <feComposite in="SourceGraphic" in2="filterResult1" operator="over" result="filterResult2"/>
        <feOffset dx="1.41423199166404" dy="1.4141951328419862" in="filterResult2" result="filterResult3"/>
        <feColorMatrix in="filterResult3" result="filterResult4" type="matrix" values="0 0 0 0 0.0,0 0 0 0 0.0,0 0 0 0 0.0,0 0 0 1 0"/>
        <feColorMatrix in="filterResult4" result="filterResult5" type="matrix" values="1 0 0 0 0,0 1 0 0 0,0 0 1 0 0,0 0 0 0.3984375 0"/>
        <feComposite in="filterResult2" in2="filterResult5" operator="over" result="filterResult6"/>
      </filter>
      <use ffdec:characterId="255" filter="url(#filter28)" height="18.45" id="level_tx" transform="matrix(1.0, 0.0, 0.0, 1.0, 33.5, 0.05)" width="16.85" xlink:href="#text2"/>
      <use ffdec:characterId="261" ffdec:characterName="core390_fla.petCommands_EnergyStatusBar_50" height="20.6" id="progressBar" transform="matrix(0.6426, 0.0, 0.0, 0.7393, 14.0864, 0.9654)" width="136.4" xlink:href="#sprite2"/>
    </g>
    <g id="text1" transform="matrix(1.0, 0.0, 0.0, 1.0, -0.45, 1.4)">
      <g transform="matrix(1.0, 0.0, 0.0, 1.0, 0.0, 0.0)">
        <use fill="#4d0362" height="11.6" transform="matrix(0.0117, 0.0, 0.0, 0.0117, 0.0, 9.0)" width="30.75" xlink:href="#font_Burbank_Big_Regular_Bold_L0"/>
        <use fill="#4d0362" height="11.6" transform="matrix(0.0117, 0.0, 0.0, 0.0117, 5.15, 9.0)" width="30.75" xlink:href="#font_Burbank_Big_Regular_Bold_E0"/>
        <use fill="#4d0362" height="11.6" transform="matrix(0.0117, 0.0, 0.0, 0.0117, 10.65, 9.0)" width="30.75" xlink:href="#font_Burbank_Big_Regular_Bold_V0"/>
        <use fill="#4d0362" height="11.6" transform="matrix(0.0117, 0.0, 0.0, 0.0117, 16.9, 9.0)" width="30.75" xlink:href="#font_Burbank_Big_Regular_Bold_E0"/>
        <use fill="#4d0362" height="11.6" transform="matrix(0.0117, 0.0, 0.0, 0.0117, 22.4, 9.0)" width="30.75" xlink:href="#font_Burbank_Big_Regular_Bold_L0"/>
        <use fill="#4d0362" height="11.6" transform="matrix(0.0117, 0.0, 0.0, 0.0117, 27.75, 9.0)" width="30.75" xlink:href="#font_Burbank_Big_Regular_Bold_:0"/>
      </g>
    </g>
    <g id="font_Burbank_Big_Regular_Bold_E0">
      <path d="M45.0 -4.0 L45.0 -56.5 43.5 -202.0 Q43.0 -296.5 41.0 -425.5 39.5 -555.0 37.0 -710.5 L142.0 -712.0 444.5 -716.0 444.5 -677.5 Q445.0 -640.0 446.5 -572.5 L414.5 -572.0 328.5 -570.5 Q273.5 -570.0 203.0 -568.5 202.5 -567.5 202.5 -526.5 202.5 -485.0 204.0 -410.5 L273.5 -410.5 Q323.5 -410.5 407.5 -412.5 L407.5 -378.0 Q407.0 -343.5 408.5 -278.5 L354.0 -279.5 Q300.5 -280.0 206.0 -278.5 206.5 -247.0 207.5 -212.5 208.5 -178.5 210.0 -142.5 L273.5 -140.0 Q336.0 -138.0 450.5 -136.0 L449.5 -100.0 Q449.0 -64.0 449.5 5.0 L417.0 4.0 328.5 1.5 Q272.5 -0.5 200.0 -2.0 127.0 -3.5 45.0 -4.0" fill-rule="evenodd" stroke="none"/>
    </g>
    <g id="font_Burbank_Big_Regular_Bold_V0">
      <path d="M142.5 15.5 Q102.0 -196.5 70.5 -352.5 39.0 -508.5 20.5 -594.5 2.5 -681.0 2.0 -682.0 53.5 -682.0 92.5 -682.5 L154.0 -683.5 176.0 -684.0 Q193.0 -559.5 210.0 -451.0 227.0 -342.5 241.5 -259.0 256.0 -175.5 265.0 -125.0 296.0 -309.5 317.5 -442.0 339.5 -574.5 351.0 -646.0 L362.5 -718.0 Q442.5 -716.5 489.5 -716.5 536.5 -716.5 537.5 -717.0 L457.0 -315.0 Q423.5 -151.0 406.5 -66.5 389.0 18.0 389.0 18.5 L353.5 18.5 263.0 17.5 Q207.0 17.0 142.5 15.5" fill-rule="evenodd" stroke="none"/>
    </g>
    <g id="text2" transform="matrix(1.0, 0.0, 0.0, 1.0, -2.9, 2.0)">
      <g transform="matrix(1.0, 0.0, 0.0, 1.0, 2.9, -2.0)">
        <use fill="#ffffff" height="18.45" transform="matrix(0.0127, 0.0, 0.0, 0.0127, 5.65, 9.75)" width="16.85" xlink:href="#font_Burbank_Big_Regular_Black_10"/>
      </g>
    </g>
    <g id="font_Burbank_Big_Regular_Black_10">
      <path d="M151.5 3.0 Q153.0 -125.5 153.5 -214.5 154.0 -303.0 153.5 -358.5 153.0 -413.5 152.5 -441.5 109.0 -422.5 85.0 -410.5 61.0 -398.5 60.5 -398.5 33.0 -493.5 17.0 -545.5 0.5 -597.5 0.0 -598.0 111.0 -648.5 174.0 -679.5 L238.5 -710.5 339.0 -699.5 375.0 -695.5 Q375.0 -559.0 375.5 -434.5 376.5 -309.5 378.0 -211.5 379.0 -113.5 380.0 -56.0 L381.0 2.0 Q274.0 4.0 213.0 3.5 152.5 3.5 151.5 3.0" fill-rule="evenodd" stroke="none"/>
    </g>
    <g id="sprite2" transform="matrix(1.0, 0.0, 0.0, 1.0, -135.05, -151.65)">
      <use ffdec:characterId="256" height="17.05" transform="matrix(1.0, 0.0, 0.0, 1.0, 201.3, 153.3)" width="70.15" xlink:href="#shape1"/>
      <clipPath id="clipPath0">
        <path d="M 207.5 153.9 L 207.21 153.91 L 206.92 153.93 L 206.64 153.98 L 206.37 154.03 L 206.1 154.11 L 205.84 154.2 L 205.58 154.31 L 205.32 154.44 L 205.08 154.58 L 204.84 154.74 L 204.6 154.92 L 204.37 155.11 L 204.14 155.32 L 203.92 155.55 L 203.71 155.79 L 203.5 156.05 L 203.31 156.32 L 203.12 156.59 L 202.96 156.87 L 202.8 157.16 L 202.66 157.45 L 202.52 157.75 L 202.41 158.06 L 202.3 158.38 L 202.21 158.7 L 202.12 159.03 L 202.06 159.36 L 202 159.71 L 201.96 160.06 L 201.93 160.41 L 201.91 160.78 L 201.9 161.15 L 201.91 161.52 L 201.93 161.88 L 201.96 162.23 L 202 162.57 L 202.06 162.92 L 202.12 163.25 L 202.21 163.58 L 202.3 163.9 L 202.41 164.22 L 202.52 164.52 L 202.66 164.83 L 202.8 165.12 L 202.96 165.42 L 203.12 165.7 L 203.31 165.98 L 203.5 166.25 L 203.71 166.5 L 203.92 166.74 L 204.14 166.96 L 204.37 167.17 L 204.6 167.36 L 204.84 167.53 L 205.08 167.69 L 205.32 167.82 L 205.58 167.95 L 205.84 168.05 L 206.1 168.14 L 206.37 168.22 L 206.64 168.28 L 206.92 168.32 L 207.21 168.34 L 207.5 168.35 L 264 168.35 L 264.27 168.34 L 264.54 168.32 L 264.81 168.28 L 265.07 168.22 L 265.33 168.14 L 265.59 168.05 L 265.84 167.95 L 266.09 167.82 L 266.33 167.69 L 266.57 167.53 L 266.81 167.36 L 267.05 167.17 L 267.28 166.96 L 267.51 166.74 L 267.73 166.5 L 267.95 166.25 L 268.15 165.98 L 268.34 165.7 L 268.51 165.42 L 268.67 165.12 L 268.82 164.83 L 268.96 164.52 L 269.08 164.22 L 269.19 163.9 L 269.28 163.58 L 269.37 163.25 L 269.44 162.92 L 269.5 162.57 L 269.54 162.23 L 269.57 161.88 L 269.59 161.52 L 269.6 161.15 L 269.59 160.78 L 269.57 160.41 L 269.54 160.06 L 269.5 159.71 L 269.44 159.36 L 269.37 159.03 L 269.28 158.7 L 269.19 158.38 L 269.08 158.06 L 268.96 157.75 L 268.82 157.45 L 268.67 157.16 L 268.51 156.87 L 268.34 156.59 L 268.15 156.32 L 267.95 156.05 L 267.73 155.79 L 267.51 155.55 L 267.28 155.32 L 267.05 155.11 L 266.81 154.92 L 266.57 154.74 L 266.33 154.58 L 266.09 154.44 L 265.84 154.31 L 265.59 154.2 L 265.33 154.11 L 265.07 154.03 L 264.81 153.98 L 264.54 153.93 L 264.27 153.91 L 264 153.9 Z"/>
      </clipPath>
      <g clip-path="url(#clipPath0)">
        <use ffdec:characterId="259" height="22.1" transform="matrix(0.9325, 0.0, 0.0, 0.9321, 135.0499, 151.6501)" width="72.6" xlink:href="#sprite3"/>
      </g>
      <use ffdec:characterId="260" height="15.95" transform="matrix(1.0, 0.0, 0.0, 1.0, 201.15, 153.15)" width="69.2" xlink:href="#shape3"/>
    </g>
    <g id="shape1" transform="matrix(1.0, 0.0, 0.0, 1.0, -201.3, -153.3)">
      <path d="M207.6 170.35 Q205.2 170.35 203.5 168.05 201.85 165.75 201.85 162.55 201.85 159.3 203.5 157.0 205.2 154.7 207.6 154.7 L265.7 154.7 Q267.95 154.7 269.75 157.0 271.45 159.3 271.45 162.55 271.45 165.75 269.75 168.05 267.95 170.35 265.7 170.35 L207.6 170.35" fill="#000000" fill-opacity="0.2" fill-rule="evenodd" stroke="none"/>
      <path d="M203.7 155.9 Q205.35 153.8 207.7 153.8 L263.95 153.8 Q266.15 153.8 267.9 155.9 269.55 158.0 269.55 161.0 269.55 164.0 267.9 166.1 266.15 168.2 263.95 168.2 L207.7 168.2 Q205.35 168.2 203.7 166.1 202.1 164.0 202.1 161.0 202.1 158.0 203.7 155.9" fill="#3c054a" fill-rule="evenodd" stroke="none"/>
      <path d="M203.5 156.05 Q205.15 153.9 207.5 153.9 L264.0 153.9 Q266.2 153.9 267.95 156.05 269.6 158.15 269.6 161.15 269.6 164.1 267.95 166.25 266.2 168.35 264.0 168.35 L207.5 168.35 Q205.15 168.35 203.5 166.25 201.9 164.1 201.9 161.15 201.9 158.15 203.5 156.05" fill="url(#gradient1)" fill-rule="evenodd" stroke="none"/>
      <path d="M203.5 156.05 Q201.9 158.15 201.9 161.15 201.9 164.1 203.5 166.25 205.15 168.35 207.5 168.35 L264.0 168.35 Q266.2 168.35 267.95 166.25 269.6 164.1 269.6 161.15 269.6 158.15 267.95 156.05 266.2 153.9 264.0 153.9 L207.5 153.9 Q205.15 153.9 203.5 156.05 Z" ffdec:has-small-stroke="true" ffdec:original-stroke-width="1.2" fill="none" stroke="#009900" stroke-linecap="round" stroke-linejoin="round" stroke-width="1.44372516058824"/>
      <path d="M269.6 161.75 L269.3 160.0 Q268.9 158.5 267.95 157.3 266.2 155.15 264.0 155.15 L207.5 155.15 Q205.15 155.15 203.5 157.3 201.9 159.4 201.9 162.4" ffdec:has-small-stroke="true" ffdec:original-stroke-width="1.2" fill="none" stroke="#000000" stroke-linecap="round" stroke-linejoin="round" stroke-opacity="0.2" stroke-width="1.44372516058824"/>
    </g>
    <linearGradient gradientTransform="matrix(1.0E-4, 0.0159, -0.0088, 0.0, 235.9, 163.95)" gradientUnits="userSpaceOnUse" id="gradient1" spreadMethod="pad" x1="-819.2" x2="819.2">
      <stop offset="0.00784313725490196" stop-color="#3c054a"/>
      <stop offset="0.21176470588235294" stop-color="#89489a"/>
      <stop offset="0.7372549019607844" stop-color="#3c054a"/>
    </linearGradient>
    <g id="sprite3" transform="matrix(1.0, 0.0, 0.0, 1.0, 36.3, 11.05)">
      <use ffdec:characterId="258" height="22.1" transform="matrix(1.0, 0.0, 0.0, 1.0, -36.3, -11.05)" width="72.6" xlink:href="#shape2"/>
    </g>
    <g id="shape2" transform="matrix(1.0, 0.0, 0.0, 1.0, 36.3, 11.05)">
      <path d="M36.3 -11.05 L36.3 11.05 -36.3 11.05 -36.3 -11.05 36.3 -11.05" fill="url(#gradient2)" fill-rule="evenodd" stroke="none"/>
    </g>
    <linearGradient gradientTransform="matrix(1.0E-4, 0.0122, -0.0135, 1.0E-4, -0.6, 0.05)" gradientUnits="userSpaceOnUse" id="gradient2" spreadMethod="pad" x1="-819.2" x2="819.2">
      <stop offset="0.00392156862745098" stop-color="#54c800"/>
      <stop offset="0.24705882352941178" stop-color="#ffff71"/>
      <stop offset="0.5843137254901961" stop-color="#54c800"/>
    </linearGradient>
    <g id="shape3" transform="matrix(1.0, 0.0, 0.0, 1.0, -201.15, -153.15)">
      <path d="M203.5 156.05 Q201.9 158.15 201.9 161.15 201.9 164.1 203.5 166.25 205.15 168.35 207.5 168.35 L264.0 168.35 Q266.2 168.35 267.95 166.25 269.6 164.1 269.6 161.15 269.6 158.15 267.95 156.05 266.2 153.9 264.0 153.9 L207.5 153.9 Q205.15 153.9 203.5 156.05 Z" fill="none" stroke="#007e00" stroke-linecap="round" stroke-linejoin="round" stroke-width="1.55"/>
      <path d="M206.15 157.65 Q206.55 158.05 206.55 158.65 206.55 159.25 206.15 159.65 205.75 160.05 205.15 160.05 204.55 160.05 204.15 159.65 203.75 159.25 203.75 158.65 203.75 158.05 204.15 157.65 204.55 157.25 205.15 157.25 205.75 157.25 206.15 157.65 M206.7 156.85 Q206.35 156.55 206.35 156.1 206.35 155.7 206.7 155.35 207.1 155.05 207.55 155.05 208.05 155.05 208.4 155.35 208.75 155.7 208.75 156.1 208.75 156.55 208.4 156.85 208.05 157.2 207.55 157.2 L206.7 156.85 M265.8 157.25 Q265.45 157.65 264.95 157.65 264.45 157.65 264.05 157.25 263.7 156.9 263.7 156.4 263.7 155.9 264.05 155.5 264.45 155.15 264.95 155.15 265.45 155.15 265.8 155.5 266.2 155.9 266.2 156.4 266.2 156.9 265.8 157.25" fill="#ffffff" fill-rule="evenodd" stroke="none"/>
    </g>
    <g id="text3" transform="matrix(1.0, 0.0, 0.0, 1.0, 36.5, 2.0)">
      <g transform="matrix(1.0, 0.0, 0.0, 1.0, -36.5, -2.0)">
        <use fill="#4d0362" height="18.8" transform="matrix(0.0117, 0.0, 0.0, 0.0117, 0.0, 11.0)" width="106.0" xlink:href="#font_Burbank_Big_Regular_Bold_A0"/>
      </g>
    </g>
    <g id="font_Burbank_Big_Regular_Bold_A0">
      <path d="M270.5 -600.0 Q262.0 -557.5 245.0 -466.0 228.0 -375.0 207.0 -250.0 L333.0 -250.0 Q320.5 -319.5 305.0 -407.5 L270.5 -600.0 M2.0 -17.5 L13.0 -68.0 Q24.0 -117.5 44.0 -210.0 L91.5 -430.0 Q119.0 -558.0 151.5 -715.0 218.5 -717.0 274.0 -718.0 330.0 -719.0 363.5 -719.0 L398.5 -719.0 Q398.5 -717.5 411.0 -658.0 423.5 -598.5 445.5 -495.0 467.0 -392.0 495.5 -260.0 524.0 -128.0 556.0 17.5 L530.0 17.0 Q505.0 17.0 465.0 17.5 425.0 17.5 380.0 18.5 L373.5 -17.5 Q367.0 -53.5 355.5 -122.0 327.5 -122.5 285.5 -123.5 243.0 -124.0 186.5 -124.0 182.0 -97.0 178.0 -70.0 L170.0 -15.5 146.5 -16.0 Q124.0 -17.0 86.0 -17.5 48.0 -18.0 2.0 -17.5" fill-rule="evenodd" stroke="none"/>
    </g>
  </defs>
</svg>
