<?xml version="1.0" encoding="UTF-8" standalone="no"?>
<svg xmlns:ffdec="https://www.free-decompiler.com/flash" xmlns:xlink="http://www.w3.org/1999/xlink" ffdec:objectType="frame" height="32.95px" width="38.45px" xmlns="http://www.w3.org/2000/svg">
  <g transform="matrix(1.0, 0.0, 0.0, 1.0, -3.9, -49.95)">
    <filter id="filter0">
      <feColorMatrix in="SourceGraphic" result="filterResult0" type="matrix" values="0 0 0 0 0.0,0 0 0 0 1.0,0 0 0 0 0.0,0 0 0 1 0"/>
      <feConvolveMatrix divisor="441.0" in="filterResult0" kernelMatrix="1 1 1 1 1 1 1 1 1 1 1 1 1 1 1 1 1 1 1 1 1 1 1 1 1 1 1 1 1 1 1 1 1 1 1 1 1 1 1 1 1 1 1 1 1 1 1 1 1 1 1 1 1 1 1 1 1 1 1 1 1 1 1 1 1 1 1 1 1 1 1 1 1 1 1 1 1 1 1 1 1 1 1 1 1 1 1 1 1 1 1 1 1 1 1 1 1 1 1 1 1 1 1 1 1 1 1 1 1 1 1 1 1 1 1 1 1 1 1 1 1 1 1 1 1 1 1 1 1 1 1 1 1 1 1 1 1 1 1 1 1 1 1 1 1 1 1 1 1 1 1 1 1 1 1 1 1 1 1 1 1 1 1 1 1 1 1 1 1 1 1 1 1 1 1 1 1 1 1 1 1 1 1 1 1 1 1 1 1 1 1 1 1 1 1 1 1 1 1 1 1 1 1 1 1 1 1 1 1 1 1 1 1 1 1 1 1 1 1 1 1 1 1 1 1 1 1 1 1 1 1 1 1 1 1 1 1 1 1 1 1 1 1 1 1 1 1 1 1 1 1 1 1 1 1 1 1 1 1 1 1 1 1 1 1 1 1 1 1 1 1 1 1 1 1 1 1 1 1 1 1 1 1 1 1 1 1 1 1 1 1 1 1 1 1 1 1 1 1 1 1 1 1 1 1 1 1 1 1 1 1 1 1 1 1 1 1 1 1 1 1 1 1 1 1 1 1 1 1 1 1 1 1 1 1 1 1 1 1 1 1 1 1 1 1 1 1 1 1 1 1 1 1 1 1 1 1 1 1 1 1 1 1 1 1 1 1 1 1 1 1 1 1 1 1 1 1 1 1 1 1 1 1 1 1 1 1 1 1 1 1 1 1 1 1 1 1 1 1 1 1 1 1 1 1 1 1 1 1 1 1 1 1 1 1 1 1 1 1 1 1 1 1 1 1 1 1 1 1 1 1 1 1 1 1 1 1 1 1 1 1" order="21 21" result="filterResult1"/>
      <feComposite in="SourceGraphic" in2="filterResult1" operator="over" result="filterResult2"/>
      <feColorMatrix in="filterResult2" result="filterResult3" type="matrix" values="0 0 0 0 0.0,0 0 0 0 1.0,0 0 0 0 0.0,0 0 0 1 0"/>
      <feConvolveMatrix divisor="4.0" in="filterResult3" kernelMatrix="1 1 1 1" order="2 2" result="filterResult4"/>
      <feComposite in="filterResult2" in2="filterResult4" operator="over" result="filterResult5"/>
    </filter>
    <use ffdec:characterId="362" filter="url(#filter0)" height="32.95" transform="matrix(1.0, 0.0, 0.0, 1.0, 3.9, 49.95)" width="38.45" xlink:href="#sprite0"/>
    <use ffdec:characterId="364" height="11.1" transform="matrix(0.8525, 0.0, 0.0, 0.8525, 21.3, 57.1)" width="11.05" xlink:href="#sprite1"/>
    <use ffdec:characterId="364" height="11.1" transform="matrix(0.9462, 0.0, 0.0, 0.9462, 13.15, 57.65)" width="11.05" xlink:href="#sprite1"/>
    <use ffdec:characterId="365" height="10.05" transform="matrix(1.0, 0.0, 0.0, 1.0, 10.2, 69.75)" width="11.8" xlink:href="#shape2"/>
  </g>
  <defs>
    <g id="sprite0" transform="matrix(1.0, 0.0, 0.0, 1.0, 0.0, 0.0)">
      <use ffdec:characterId="361" height="32.95" transform="matrix(1.0, 0.0, 0.0, 1.0, 0.0, 0.0)" width="38.45" xlink:href="#shape0"/>
    </g>
    <g id="shape0" transform="matrix(1.0, 0.0, 0.0, 1.0, 0.0, 0.0)">
      <path d="M12.2 3.3 Q10.55 6.45 11.3 10.9 L11.4 10.9 Q15.0 10.8 18.75 11.0 22.0 11.25 22.75 14.7 L23.05 17.85 Q28.1 19.45 29.95 20.6 31.8 21.7 33.55 24.25 L36.2 28.3 37.8 30.75 Q38.55 31.75 38.45 32.2 L37.95 32.65 Q37.55 32.7 36.55 31.7 35.5 30.65 34.2 28.35 32.85 26.05 30.95 23.65 29.05 21.25 27.5 20.3 26.25 19.55 23.1 18.8 23.3 24.35 23.1 27.5 22.85 31.5 18.6 32.0 L5.6 32.95 Q2.05 32.85 0.85 28.2 L0.85 28.0 Q0.0 22.0 0.0 16.35 0.05 12.1 4.2 11.3 L10.6 10.95 Q9.3 7.05 4.5 4.15 L4.45 4.2 3.75 4.45 3.1 4.2 Q2.85 3.9 2.85 3.5 L2.9 3.25 3.1 2.85 Q3.4 2.6 3.75 2.6 L4.45 2.85 4.7 3.5 4.65 3.9 Q9.6 6.55 10.65 10.25 10.05 6.25 12.15 3.3 L11.7 2.95 Q11.2 2.45 11.2 1.7 11.2 0.95 11.7 0.45 12.2 0.0 12.9 0.0 13.65 0.0 14.15 0.45 14.65 0.95 14.65 1.7 14.65 2.45 14.15 2.95 13.65 3.45 12.9 3.45 L12.35 3.35 12.2 3.3 12.45 2.9 12.15 3.3 12.2 3.3" fill="#00ff00" fill-rule="evenodd" stroke="none"/>
    </g>
    <g id="sprite1" transform="matrix(1.0, 0.0, 0.0, 1.0, 0.0, 0.0)">
      <use ffdec:characterId="363" height="11.1" transform="matrix(1.0, 0.0, 0.0, 1.0, 0.0, 0.0)" width="11.05" xlink:href="#shape1"/>
    </g>
    <g id="shape1" transform="matrix(1.0, 0.0, 0.0, 1.0, 0.0, 0.0)">
      <path d="M10.1 5.55 Q10.1 7.45 8.75 8.8 7.4 10.15 5.5 10.15 3.65 10.15 2.25 8.8 0.95 7.45 0.95 5.55 0.95 3.7 2.25 2.3 3.65 0.95 5.5 0.95 7.4 0.95 8.75 2.3 10.1 3.7 10.1 5.55" fill="#ffffff" fill-rule="evenodd" stroke="none"/>
      <path d="M9.4 1.65 Q11.05 3.3 11.05 5.55 11.05 7.85 9.4 9.45 7.8 11.1 5.5 11.1 3.25 11.1 1.6 9.45 0.0 7.85 0.0 5.55 0.0 3.3 1.6 1.65 3.25 0.0 5.5 0.0 7.8 0.0 9.4 1.65 M10.1 5.55 Q10.1 3.7 8.75 2.3 7.4 0.95 5.5 0.95 3.65 0.95 2.25 2.3 0.95 3.7 0.95 5.55 0.95 7.45 2.25 8.8 3.65 10.15 5.5 10.15 7.4 10.15 8.75 8.8 10.1 7.45 10.1 5.55" fill="#007200" fill-rule="evenodd" stroke="none"/>
      <path d="M7.25 5.55 Q7.25 6.4 6.65 7.0 6.1 7.55 5.35 7.6 L5.2 7.6 Q4.4 7.6 3.8 7.0 3.2 6.4 3.2 5.55 3.2 4.75 3.8 4.15 4.4 3.55 5.2 3.55 L5.35 3.55 Q6.1 3.6 6.65 4.15 7.25 4.75 7.25 5.55" fill="#007200" fill-rule="evenodd" stroke="none"/>
    </g>
    <g id="shape2" transform="matrix(1.0, 0.0, 0.0, 1.0, -10.2, -69.75)">
      <path d="M22.0 69.75 Q21.85 70.65 20.8 71.4 20.5 74.3 18.1 74.3 17.75 75.35 18.2 77.45 19.7 77.05 20.45 78.2 L21.25 78.15 21.8 78.55 Q22.0 78.9 21.55 79.45 21.5 78.45 20.5 78.85 L18.7 79.5 17.85 79.7 16.85 79.8 16.75 79.8 Q15.7 79.8 14.45 79.15 13.1 78.5 11.75 76.8 10.4 75.1 10.2 70.0 15.1 72.7 22.0 69.75 M11.3 73.25 Q13.05 74.95 14.4 73.7 16.35 75.1 17.45 73.4 L19.0 73.55 Q19.95 73.2 20.05 71.6 15.6 73.0 11.15 71.45 L11.3 73.25 M16.05 77.8 Q14.75 77.7 14.05 78.2 15.1 79.25 17.25 79.25 18.85 79.25 20.3 78.45 19.6 77.65 18.5 77.85 17.85 78.05 17.6 78.4 17.0 77.9 16.05 77.8" fill="#007200" fill-rule="evenodd" stroke="none"/>
      <path d="M16.05 77.8 Q17.0 77.9 17.6 78.4 17.85 78.05 18.5 77.85 19.6 77.65 20.3 78.45 18.85 79.25 17.25 79.25 15.1 79.25 14.05 78.2 14.75 77.7 16.05 77.8 M11.3 73.25 L11.15 71.45 Q15.6 73.0 20.05 71.6 19.95 73.2 19.0 73.55 L17.45 73.4 Q16.35 75.1 14.4 73.7 13.05 74.95 11.3 73.25" fill="#ffffff" fill-rule="evenodd" stroke="none"/>
    </g>
  </defs>
</svg>
