<?xml version="1.0" encoding="UTF-8" standalone="no"?>
<svg xmlns:ffdec="https://www.free-decompiler.com/flash" xmlns:xlink="http://www.w3.org/1999/xlink" ffdec:objectType="frame" height="25.8px" width="22.0px" xmlns="http://www.w3.org/2000/svg">
  <g transform="matrix(1.0, 0.0, 0.0, 1.0, -0.25, 1.65)">
    <use ffdec:characterId="2277" height="25.8" transform="matrix(1.0, 0.0, 0.0, 1.0, 0.25, -1.65)" width="22.0" xlink:href="#shape0"/>
  </g>
  <defs>
    <g id="shape0" transform="matrix(1.0, 0.0, 0.0, 1.0, -0.25, 1.65)">
      <path d="M18.95 -0.05 Q21.15 1.05 22.25 1.05 21.8 2.75 19.1 5.85 L13.45 11.95 18.7 20.2 Q18.25 21.15 16.75 22.4 L14.3 24.15 Q13.95 22.8 9.75 16.1 6.45 20.3 5.3 23.55 L0.25 21.55 Q1.4 17.75 6.75 11.15 2.5 4.35 2.0 2.85 5.1 1.5 7.9 -1.05 8.35 2.05 10.55 6.6 15.8 0.35 16.35 -1.65 17.0 -1.05 18.95 -0.05" fill="#f3f301" fill-rule="evenodd" stroke="none"/>
    </g>
  </defs>
</svg>
