<?xml version="1.0" encoding="UTF-8" standalone="no"?>
<svg xmlns:ffdec="https://www.free-decompiler.com/flash" xmlns:xlink="http://www.w3.org/1999/xlink" ffdec:objectType="frame" height="624.6px" width="973.7px" xmlns="http://www.w3.org/2000/svg">
  <g transform="matrix(1.0, 0.0, 0.0, 1.0, 487.9, 309.6)">
    <use ffdec:characterId="97" height="624.6" transform="matrix(1.0, 0.0, 0.0, 1.0, -487.9, -309.6)" width="973.7" xlink:href="#morphshape0"/>
  </g>
  <defs>
    <g id="morphshape0" transform="matrix(1.0, 0.0, 0.0, 1.0, 487.9, 309.6)">
      <path d="M-211.7 31.5 L-211.7 32.0 Q-212.25 37.1 -210.1 41.25 -207.95 45.25 -204.25 47.3 -200.3 49.6 -196.35 49.25 -189.25 49.2 -183.2 45.45 -176.35 40.55 -170.55 43.5 -165.25 45.9 -164.15 54.5 -167.05 80.35 -152.95 82.85 -128.35 79.65 -124.25 91.4 L-124.2 91.5 Q-121.0 103.05 -122.5 119.3 L-122.6 119.65 Q-128.5 135.85 -119.1 138.6 -112.55 141.4 -104.4 134.95 -102.75 133.8 -101.35 132.35 -97.4 128.8 -94.9 123.3 -92.8 115.4 -90.45 113.65 -81.45 96.8 -71.3 98.45 L-70.9 98.55 Q-60.6 100.7 -58.1 115.55 -54.75 130.45 -38.1 133.3 -34.65 133.9 -31.6 134.1 -20.3 134.6 -14.9 128.5 -8.45 120.75 1.55 122.3 6.45 123.15 9.5 125.15 12.35 127.1 13.15 130.05 L13.25 130.3 Q13.85 133.05 16.2 134.65 18.05 136.0 20.55 135.7 23.1 135.45 24.65 133.55 26.65 131.25 26.75 127.85 L26.8 127.65 Q27.15 123.5 32.95 119.3 38.05 115.6 44.45 115.3 L48.1 115.45 Q51.9 115.45 57.05 118.95 60.95 121.35 65.9 120.1 69.1 119.25 72.6 117.05 80.3 112.35 89.25 110.4 L95.8 109.25 Q110.2 107.45 119.2 108.55 135.45 111.5 146.1 110.1 L147.85 109.85 Q157.35 107.75 160.9 99.35 162.05 97.35 162.3 94.15 L162.95 88.95 Q163.9 83.35 171.2 81.85 173.0 81.45 174.45 80.75 L176.15 79.6 179.0 76.4 Q182.7 72.05 189.1 71.05 195.9 69.95 200.6 65.25 204.8 61.1 206.15 55.3 L206.25 54.75 Q207.65 48.25 205.45 42.15 203.15 35.05 197.05 29.9 192.75 26.45 191.35 20.95 190.65 18.15 190.7 14.85 190.7 4.15 196.4 -7.05 200.3 -12.8 197.65 -20.7 195.45 -26.55 190.8 -33.65 180.05 -49.5 179.75 -55.4 178.05 -60.6 184.9 -64.45 188.65 -66.6 192.5 -69.0 198.2 -71.8 200.25 -76.55 L200.35 -76.8 Q202.2 -80.85 201.55 -85.75 200.9 -91.0 197.95 -95.05 L197.4 -95.9 Q192.5 -103.05 184.65 -103.65 180.4 -104.95 174.9 -104.25 L172.35 -103.8 Q167.55 -102.5 163.65 -102.05 156.3 -100.1 150.85 -102.95 148.65 -104.1 147.65 -106.4 L145.75 -110.8 Q143.85 -115.5 138.3 -117.65 L135.7 -118.45 Q122.85 -121.7 103.55 -120.85 L97.4 -120.85 Q84.15 -121.0 81.6 -134.05 L81.5 -134.1 Q79.5 -148.15 70.2 -153.65 69.5 -154.0 68.75 -154.3 54.95 -160.6 40.3 -161.55 27.55 -162.4 17.65 -158.35 7.95 -154.65 0.55 -146.6 -2.3 -143.9 -6.9 -140.45 -10.9 -137.25 -13.3 -136.4 -23.25 -131.95 -30.9 -133.8 L-31.15 -133.85 Q-34.25 -134.5 -38.55 -136.75 -43.25 -139.05 -48.0 -141.4 -67.35 -152.15 -73.2 -139.3 -76.1 -132.2 -80.5 -128.8 -83.4 -126.05 -87.25 -125.7 -96.6 -125.2 -109.25 -129.1 L-110.2 -129.4 Q-119.2 -132.3 -128.0 -130.55 -132.75 -129.55 -135.3 -127.2 -138.25 -124.6 -138.55 -120.35 L-138.4 -118.0 Q-138.1 -116.25 -138.5 -114.75 -139.05 -112.85 -142.25 -110.95 -146.85 -108.8 -154.45 -106.45 -159.45 -104.95 -163.0 -102.8 -165.8 -101.05 -167.65 -98.8 -172.65 -92.8 -168.75 -85.3 -164.75 -78.3 -163.6 -73.3 -161.4 -67.95 -161.6 -63.25 L-161.7 -61.55 Q-162.4 -53.7 -172.55 -53.85 -178.35 -53.6 -183.05 -49.95 -187.1 -46.9 -189.2 -42.25 L-189.6 -41.2 Q-191.55 -36.35 -191.05 -31.6 -190.65 -28.0 -189.3 -25.8 -188.9 -25.1 -188.4 -24.55 -186.0 -21.9 -183.0 -23.15 -181.85 -23.55 -180.75 -23.3 L-178.2 -21.95 Q-176.1 -20.15 -175.15 -16.35 -174.2 -12.65 -175.25 -8.7 -176.3 -4.55 -179.5 -1.85 -182.1 0.3 -184.65 2.4 -190.2 6.95 -196.8 11.5 -205.1 16.15 -206.55 19.35 -210.85 25.3 -211.55 31.45" fill="#ff0000" fill-rule="evenodd" stroke="none"/>
      <path d="M-211.55 31.45 Q-210.85 25.3 -206.55 19.35 -205.1 16.15 -196.8 11.5 -190.2 6.95 -184.65 2.4 -182.1 0.3 -179.5 -1.85 -176.3 -4.55 -175.25 -8.7 -174.2 -12.65 -175.15 -16.35 -176.1 -20.15 -178.2 -21.95 L-180.75 -23.3 Q-181.85 -23.55 -183.0 -23.15 -186.0 -21.9 -188.4 -24.55 -188.9 -25.1 -189.3 -25.8 -190.65 -28.0 -191.05 -31.6 -191.55 -36.35 -189.6 -41.2 L-189.2 -42.25 Q-187.1 -46.9 -183.05 -49.95 -178.35 -53.6 -172.55 -53.85 -162.4 -53.7 -161.7 -61.55 L-161.6 -63.25 Q-161.4 -67.95 -163.6 -73.3 -164.75 -78.3 -168.75 -85.3 -172.65 -92.8 -167.65 -98.8 -165.8 -101.05 -163.0 -102.8 -159.45 -104.95 -154.45 -106.45 -146.85 -108.8 -142.25 -110.95 -139.05 -112.85 -138.5 -114.75 -138.1 -116.25 -138.4 -118.0 L-138.55 -120.35 Q-138.25 -124.6 -135.3 -127.2 -132.75 -129.55 -128.0 -130.55 -119.2 -132.3 -110.2 -129.4 L-109.25 -129.1 Q-96.6 -125.2 -87.25 -125.7 -83.4 -126.05 -80.5 -128.8 -76.1 -132.2 -73.2 -139.3 -67.35 -152.15 -48.0 -141.4 -43.25 -139.05 -38.55 -136.75 -34.25 -134.5 -31.15 -133.85 L-30.9 -133.8 Q-23.25 -131.95 -13.3 -136.4 -10.9 -137.25 -6.9 -140.45 -2.3 -143.9 0.55 -146.6 7.95 -154.65 17.65 -158.35 27.55 -162.4 40.3 -161.55 54.95 -160.6 68.75 -154.3 69.5 -154.0 70.2 -153.65 79.5 -148.15 81.5 -134.1 L81.6 -134.05 Q84.15 -121.0 97.4 -120.85 L103.55 -120.85 Q122.85 -121.7 135.7 -118.45 L138.3 -117.65 Q143.85 -115.5 145.75 -110.8 L147.65 -106.4 Q148.65 -104.1 150.85 -102.95 156.3 -100.1 163.65 -102.05 167.55 -102.5 172.35 -103.8 L174.9 -104.25 Q180.4 -104.95 184.65 -103.65 192.5 -103.05 197.4 -95.9 L197.95 -95.05 Q200.9 -91.0 201.55 -85.75 202.2 -80.85 200.35 -76.8 L200.25 -76.55 Q198.2 -71.8 192.5 -69.0 188.65 -66.6 184.9 -64.45 178.05 -60.6 179.75 -55.4 180.05 -49.5 190.8 -33.65 195.45 -26.55 197.65 -20.7 200.3 -12.8 196.4 -7.05 190.7 4.15 190.7 14.85 190.65 18.15 191.35 20.95 192.75 26.45 197.05 29.9 203.15 35.05 205.45 42.15 207.65 48.25 206.25 54.75 L206.15 55.3 Q204.8 61.1 200.6 65.25 195.9 69.95 189.1 71.05 182.7 72.05 179.0 76.4 L176.15 79.6 174.45 80.75 Q173.0 81.45 171.2 81.85 163.9 83.35 162.95 88.95 L162.3 94.15 Q162.05 97.35 160.9 99.35 157.35 107.75 147.85 109.85 L146.1 110.1 Q135.45 111.5 119.2 108.55 110.2 107.45 95.8 109.25 L89.25 110.4 Q80.3 112.35 72.6 117.05 69.1 119.25 65.9 120.1 60.95 121.35 57.05 118.95 51.9 115.45 48.1 115.45 L44.45 115.3 Q38.05 115.6 32.95 119.3 27.15 123.5 26.8 127.65 L26.75 127.85 Q26.65 131.25 24.65 133.55 23.1 135.45 20.55 135.7 18.05 136.0 16.2 134.65 13.85 133.05 13.25 130.3 L13.15 130.05 Q12.35 127.1 9.5 125.15 6.45 123.15 1.55 122.3 -8.45 120.75 -14.9 128.5 -20.3 134.6 -31.6 134.1 -34.65 133.9 -38.1 133.3 -54.75 130.45 -58.1 115.55 -60.6 100.7 -70.9 98.55 L-71.3 98.45 Q-81.45 96.8 -90.45 113.65 -92.8 115.4 -94.9 123.3 -97.4 128.8 -101.35 132.35 -102.75 133.8 -104.4 134.95 -112.55 141.4 -119.1 138.6 -128.5 135.85 -122.6 119.65 L-122.5 119.3 Q-121.0 103.05 -124.2 91.5 L-124.25 91.4 Q-128.35 79.65 -152.95 82.85 -167.05 80.35 -164.15 54.5 -165.25 45.9 -170.55 43.5 -176.35 40.55 -183.2 45.45 -189.25 49.2 -196.35 49.25 -200.3 49.6 -204.25 47.3 -207.95 45.25 -210.1 41.25 -212.25 37.1 -211.7 32.0 L-211.7 31.5" ffdec:has-small-stroke="true" ffdec:original-stroke-width="0.0" fill="none" stroke="#000000" stroke-linecap="round" stroke-linejoin="round" stroke-opacity="0.0" stroke-width="1.0"/>
    </g>
  </defs>
</svg>
