<?xml version="1.0" encoding="UTF-8" standalone="no"?>
<svg xmlns:ffdec="https://www.free-decompiler.com/flash" xmlns:xlink="http://www.w3.org/1999/xlink" ffdec:objectType="frame" height="624.6px" width="973.7px" xmlns="http://www.w3.org/2000/svg">
  <g transform="matrix(1.0, 0.0, 0.0, 1.0, 487.9, 309.6)">
    <use ffdec:characterId="97" height="624.6" transform="matrix(1.0, 0.0, 0.0, 1.0, -487.9, -309.6)" width="973.7" xlink:href="#morphshape0"/>
  </g>
  <defs>
    <g id="morphshape0" transform="matrix(1.0, 0.0, 0.0, 1.0, 487.9, 309.6)">
      <path d="M-277.2 25.85 L-277.2 26.95 Q-277.55 32.9 -275.85 38.05 -274.1 43.05 -271.2 46.55 -268.05 50.6 -264.75 52.55 -258.75 57.4 -253.15 58.95 -247.0 59.25 -241.3 65.1 -236.25 69.8 -234.2 78.95 -233.15 105.5 -217.55 112.35 -193.95 114.9 -184.35 126.9 L-184.25 127.0 Q-176.2 138.4 -167.3 151.3 L-167.3 151.55 Q-167.8 164.1 -153.2 166.2 -144.8 168.35 -135.2 163.45 -133.0 162.6 -131.0 161.5 -125.0 158.85 -120.3 154.75 -115.95 148.9 -111.4 147.7 -97.95 135.35 -84.75 137.5 L-84.25 137.6 Q-71.0 140.15 -64.0 152.9 -55.2 166.0 -36.75 170.75 -32.9 171.75 -29.35 172.45 -16.7 174.8 -8.65 171.3 0.4 166.6 12.05 168.05 17.55 168.8 21.6 170.25 25.35 171.6 27.55 173.7 L27.75 173.85 Q29.55 175.7 32.7 176.7 35.1 177.5 37.95 177.05 40.85 176.55 43.0 174.8 45.95 172.55 47.45 169.5 L47.55 169.35 Q49.9 165.4 56.8 161.1 62.9 157.3 70.3 155.8 L74.5 155.15 Q79.55 154.05 85.6 155.6 90.4 156.5 96.0 154.6 99.85 153.25 103.95 150.9 113.7 145.45 123.7 142.75 L131.35 140.85 Q147.15 137.8 158.75 137.85 176.75 139.15 190.45 138.35 L192.55 138.2 Q203.95 136.75 210.55 129.75 212.8 127.95 214.4 125.25 L217.45 120.55 Q220.7 115.5 228.6 113.25 230.65 112.6 232.35 111.75 L234.45 110.45 238.15 107.1 Q243.1 102.4 249.85 100.0 257.15 97.3 262.45 91.5 267.1 86.4 269.3 79.8 L269.5 79.2 Q271.9 71.75 271.05 64.5 270.4 55.6 266.0 48.0 262.85 43.0 261.55 36.35 260.9 32.95 260.7 29.2 259.85 15.9 261.7 2.6 263.2 -4.65 259.1 -13.4 255.5 -20.4 250.5 -28.65 240.1 -45.1 238.9 -54.7 237.1 -61.25 242.1 -66.95 244.8 -70.75 247.75 -75.15 252.1 -79.65 253.8 -86.0 L253.85 -86.3 Q255.4 -91.35 255.05 -97.0 254.7 -103.25 252.6 -108.6 L252.2 -109.8 Q248.7 -120.15 242.25 -123.65 238.5 -127.65 233.05 -129.3 L230.35 -130.1 Q225.5 -130.65 220.7 -131.45 212.95 -131.3 205.8 -134.25 203.0 -135.35 201.15 -137.35 L197.3 -141.1 Q193.45 -144.85 186.8 -146.65 L183.75 -147.3 Q168.6 -150.15 145.9 -152.05 L138.8 -152.85 Q126.15 -153.85 117.4 -166.3 L117.2 -166.35 Q109.3 -179.45 98.35 -184.9 97.5 -185.3 96.6 -185.65 79.8 -192.55 63.0 -194.55 48.1 -196.35 35.95 -193.8 23.65 -191.5 13.25 -185.2 8.85 -183.0 3.1 -180.25 -1.55 -177.6 -5.0 -176.75 -16.4 -172.8 -25.95 -173.2 L-26.2 -173.25 Q-30.25 -173.3 -35.3 -174.65 -41.1 -175.95 -47.0 -177.45 -67.8 -184.85 -79.15 -175.2 -84.55 -169.95 -91.1 -167.5 -94.95 -165.55 -99.55 -165.45 -111.4 -165.65 -125.75 -169.2 L-126.85 -169.45 Q-137.6 -172.2 -148.2 -171.4 -153.65 -170.85 -157.4 -169.3 -161.85 -167.5 -164.25 -164.45 L-165.7 -162.75 Q-166.5 -161.45 -167.8 -160.3 -169.7 -158.9 -173.45 -157.4 -180.0 -155.6 -188.4 -153.2 -194.2 -151.6 -198.65 -149.25 -202.05 -147.4 -204.65 -145.05 -211.5 -138.8 -211.0 -130.4 -210.05 -122.8 -210.9 -116.05 -210.3 -110.05 -211.4 -104.25 L-211.75 -102.35 Q-213.45 -93.35 -222.9 -90.35 -228.55 -87.95 -233.6 -82.9 -237.8 -78.85 -240.7 -73.55 L-241.25 -72.4 Q-244.05 -67.05 -244.95 -61.75 -245.55 -57.85 -245.4 -55.05 -245.4 -54.1 -245.3 -53.3 -244.85 -49.5 -243.95 -48.65 -243.65 -48.15 -243.4 -47.2 L-242.65 -44.5 Q-241.95 -41.75 -242.15 -37.45 -242.3 -33.15 -243.95 -28.7 -245.6 -23.95 -248.75 -20.4 -251.4 -17.35 -253.85 -14.4 -259.3 -7.7 -265.05 -0.75 -271.95 5.55 -273.3 10.9 -276.8 18.2 -277.35 25.8" fill="#ff0000" fill-rule="evenodd" stroke="none"/>
      <path d="M-277.35 25.8 Q-276.8 18.2 -273.3 10.9 -271.95 5.55 -265.05 -0.75 -259.3 -7.7 -253.85 -14.4 -251.4 -17.35 -248.75 -20.4 -245.6 -23.95 -243.95 -28.7 -242.3 -33.15 -242.15 -37.45 -241.95 -41.75 -242.65 -44.5 L-243.4 -47.2 Q-243.65 -48.15 -243.95 -48.65 -244.85 -49.5 -245.3 -53.3 -245.4 -54.1 -245.4 -55.05 -245.55 -57.85 -244.95 -61.75 -244.05 -67.05 -241.25 -72.4 L-240.7 -73.55 Q-237.8 -78.85 -233.6 -82.9 -228.55 -87.95 -222.9 -90.35 -213.45 -93.35 -211.75 -102.35 L-211.4 -104.25 Q-210.3 -110.05 -210.9 -116.05 -210.05 -122.8 -211.0 -130.4 -211.5 -138.8 -204.65 -145.05 -202.05 -147.4 -198.65 -149.25 -194.2 -151.6 -188.4 -153.2 -180.0 -155.6 -173.45 -157.4 -169.7 -158.9 -167.8 -160.3 -166.5 -161.45 -165.7 -162.75 L-164.25 -164.45 Q-161.85 -167.5 -157.4 -169.3 -153.65 -170.85 -148.2 -171.4 -137.6 -172.2 -126.85 -169.45 L-125.75 -169.2 Q-111.4 -165.65 -99.55 -165.45 -94.95 -165.55 -91.1 -167.5 -84.55 -169.95 -79.15 -175.2 -67.8 -184.85 -47.0 -177.45 -41.1 -175.95 -35.3 -174.65 -30.25 -173.3 -26.2 -173.25 L-25.95 -173.2 Q-16.4 -172.8 -5.0 -176.75 -1.55 -177.6 3.1 -180.25 8.85 -183.0 13.25 -185.2 23.65 -191.5 35.95 -193.8 48.1 -196.35 63.0 -194.55 79.8 -192.55 96.6 -185.65 97.5 -185.3 98.35 -184.9 109.3 -179.45 117.2 -166.35 L117.4 -166.3 Q126.15 -153.85 138.8 -152.85 L145.9 -152.05 Q168.6 -150.15 183.75 -147.3 L186.8 -146.65 Q193.45 -144.85 197.3 -141.1 L201.15 -137.35 Q203.0 -135.35 205.8 -134.25 212.95 -131.3 220.7 -131.45 225.5 -130.65 230.35 -130.1 L233.05 -129.3 Q238.5 -127.65 242.25 -123.65 248.7 -120.15 252.2 -109.8 L252.6 -108.6 Q254.7 -103.25 255.05 -97.0 255.4 -91.35 253.85 -86.3 L253.8 -86.0 Q252.1 -79.65 247.75 -75.15 244.8 -70.75 242.1 -66.95 237.1 -61.25 238.9 -54.7 240.1 -45.1 250.5 -28.65 255.5 -20.4 259.1 -13.4 263.2 -4.65 261.7 2.6 259.85 15.9 260.7 29.2 260.9 32.95 261.55 36.35 262.85 43.0 266.0 48.0 270.4 55.6 271.05 64.5 271.9 71.75 269.5 79.2 L269.3 79.8 Q267.1 86.4 262.45 91.5 257.15 97.3 249.85 100.0 243.1 102.4 238.15 107.1 L234.45 110.45 232.35 111.75 Q230.65 112.6 228.6 113.25 220.7 115.5 217.45 120.55 L214.4 125.25 Q212.8 127.95 210.55 129.75 203.95 136.75 192.55 138.2 L190.45 138.35 Q176.75 139.15 158.75 137.85 147.15 137.8 131.35 140.85 L123.7 142.75 Q113.7 145.45 103.95 150.9 99.85 153.25 96.0 154.6 90.4 156.5 85.6 155.6 79.55 154.05 74.5 155.15 L70.3 155.8 Q62.9 157.3 56.8 161.1 49.9 165.4 47.55 169.35 L47.45 169.5 Q45.95 172.55 43.0 174.8 40.85 176.55 37.95 177.05 35.1 177.5 32.7 176.7 29.55 175.7 27.75 173.85 L27.55 173.7 Q25.35 171.6 21.6 170.25 17.55 168.8 12.05 168.05 0.4 166.6 -8.65 171.3 -16.7 174.8 -29.35 172.45 -32.9 171.75 -36.75 170.75 -55.2 166.0 -64.0 152.9 -71.0 140.15 -84.25 137.6 L-84.75 137.5 Q-97.95 135.35 -111.4 147.7 -115.95 148.9 -120.3 154.75 -125.0 158.85 -131.0 161.5 -133.0 162.6 -135.2 163.45 -144.8 168.35 -153.2 166.2 -167.8 164.1 -167.3 151.55 L-167.3 151.3 Q-176.2 138.4 -184.25 127.0 L-184.35 126.9 Q-193.95 114.9 -217.55 112.35 -233.15 105.5 -234.2 78.95 -236.25 69.8 -241.3 65.1 -247.0 59.25 -253.15 58.95 -258.75 57.4 -264.75 52.55 -268.05 50.6 -271.2 46.55 -274.1 43.05 -275.85 38.05 -277.55 32.9 -277.2 26.95 L-277.2 25.85" ffdec:has-small-stroke="true" ffdec:original-stroke-width="0.0" fill="none" stroke="#000000" stroke-linecap="round" stroke-linejoin="round" stroke-opacity="0.0" stroke-width="1.0"/>
    </g>
  </defs>
</svg>
