<?xml version="1.0" encoding="UTF-8" standalone="no"?>
<svg xmlns:ffdec="https://www.free-decompiler.com/flash" xmlns:xlink="http://www.w3.org/1999/xlink" ffdec:objectType="frame" height="624.6px" width="973.7px" xmlns="http://www.w3.org/2000/svg">
  <g transform="matrix(1.0, 0.0, 0.0, 1.0, 487.9, 309.6)">
    <use ffdec:characterId="97" height="624.6" transform="matrix(1.0, 0.0, 0.0, 1.0, -487.9, -309.6)" width="973.7" xlink:href="#morphshape0"/>
  </g>
  <defs>
    <g id="morphshape0" transform="matrix(1.0, 0.0, 0.0, 1.0, 487.9, 309.6)">
      <path d="M-369.6 17.85 L-369.6 19.8 Q-369.7 26.85 -368.65 33.5 -367.45 39.9 -365.6 45.45 -363.5 52.05 -361.2 57.25 -356.8 68.95 -351.85 77.85 -346.7 85.45 -341.15 95.4 -336.5 103.25 -333.1 113.1 -326.5 140.7 -308.75 153.7 -286.45 164.3 -269.05 176.7 L-268.85 176.8 Q-254.05 187.95 -230.55 196.2 L-230.45 196.35 Q-223.35 203.8 -201.45 205.05 -190.4 206.25 -178.7 203.5 -175.75 203.0 -172.95 202.35 -164.1 200.9 -156.3 198.8 -148.75 195.8 -141.1 195.4 -121.45 189.25 -104.05 192.15 L-103.45 192.25 Q-86.1 195.4 -72.9 205.2 -56.5 215.8 -35.55 223.2 -31.1 224.75 -26.9 226.25 -12.35 231.15 -0.6 231.25 12.15 230.8 26.15 232.15 32.55 232.85 38.1 233.6 43.15 234.15 47.3 235.15 L47.65 235.2 Q51.2 235.85 55.5 236.0 58.65 236.05 62.05 235.4 65.5 234.65 68.5 233.2 72.85 231.05 76.35 228.4 L76.55 228.25 Q81.7 224.6 90.1 220.1 97.55 216.1 106.3 212.9 L111.25 211.2 Q118.0 208.5 125.35 207.3 131.35 206.0 137.8 203.15 142.55 201.05 147.45 198.4 160.05 191.8 171.45 187.95 L180.65 185.1 Q198.35 180.35 213.65 178.95 234.15 177.95 252.15 178.0 L254.7 177.95 Q268.85 177.45 279.65 172.4 283.5 170.9 286.95 168.9 L293.4 165.0 Q299.8 160.7 308.55 157.3 310.85 156.35 313.0 155.25 L315.65 153.7 320.55 150.1 Q327.3 144.9 334.45 140.45 342.35 135.45 348.4 128.1 353.7 121.7 357.1 114.0 L357.4 113.3 Q361.2 104.5 362.25 95.65 363.95 84.3 361.9 73.3 360.45 66.15 359.35 57.95 358.8 53.7 358.35 49.25 356.3 32.3 352.85 16.05 350.95 6.7 344.8 -3.25 339.25 -11.85 333.85 -21.75 324.0 -39.1 321.5 -53.9 319.6 -62.3 322.1 -70.55 323.35 -76.65 325.05 -83.9 327.55 -90.8 328.85 -99.45 L328.9 -99.85 Q330.05 -106.3 330.1 -113.1 330.2 -120.8 329.3 -127.95 L329.1 -129.7 Q327.6 -144.55 323.1 -152.15 320.15 -159.95 314.75 -164.85 L311.8 -167.4 Q306.85 -170.6 300.75 -173.2 292.5 -175.55 283.0 -178.7 279.45 -179.8 276.4 -181.35 L269.8 -184.1 Q263.25 -186.5 255.15 -187.85 L251.4 -188.3 Q233.1 -190.5 205.6 -196.3 L197.15 -198.25 Q185.25 -200.45 167.8 -212.15 L167.4 -212.3 Q151.2 -224.0 137.95 -229.45 136.85 -229.85 135.75 -230.25 114.65 -237.95 94.75 -241.4 76.8 -244.6 61.4 -244.05 45.45 -243.75 30.8 -240.0 24.2 -238.55 16.9 -236.75 11.3 -234.9 6.4 -234.1 -7.05 -230.9 -19.25 -229.3 L-19.6 -229.25 Q-25.0 -228.45 -31.1 -228.5 -38.35 -228.4 -45.95 -228.65 -68.8 -231.3 -87.75 -226.15 -96.65 -223.5 -106.2 -222.45 -111.4 -221.65 -116.95 -221.85 -132.3 -223.05 -149.05 -226.1 L-150.4 -226.35 Q-163.6 -228.85 -176.7 -229.35 -183.15 -229.45 -188.65 -228.95 -195.2 -228.25 -200.6 -226.85 L-204.25 -226.0 Q-206.55 -225.3 -209.2 -224.7 -212.9 -223.9 -217.4 -222.9 -226.65 -221.6 -236.2 -219.15 -243.15 -217.4 -248.85 -214.8 -253.0 -212.85 -256.55 -210.35 -265.95 -203.75 -270.25 -194.0 -273.5 -185.6 -277.05 -176.35 -278.75 -169.4 -281.05 -162.05 L-281.7 -159.8 Q-284.9 -149.25 -293.35 -141.85 -298.8 -136.45 -304.35 -129.4 -308.8 -123.95 -312.75 -117.7 L-313.55 -116.45 Q-317.45 -110.3 -320.3 -104.2 -322.3 -99.9 -323.85 -96.2 -324.45 -94.95 -325.0 -93.75 -327.25 -88.35 -329.25 -84.65 -330.15 -82.9 -331.05 -80.9 L-332.8 -76.3 Q-334.1 -72.15 -335.9 -67.2 -337.6 -62.05 -340.15 -56.8 -342.65 -51.3 -345.7 -46.5 -348.35 -42.2 -350.65 -38.0 -356.0 -28.25 -360.6 -17.85 -365.5 -9.3 -366.75 -0.95 -369.2 8.25 -369.45 17.9" fill="#ff0000" fill-rule="evenodd" stroke="none"/>
      <path d="M-369.45 17.9 Q-369.2 8.25 -366.75 -0.95 -365.5 -9.3 -360.6 -17.85 -356.0 -28.25 -350.65 -38.0 -348.35 -42.2 -345.7 -46.5 -342.65 -51.3 -340.15 -56.8 -337.6 -62.05 -335.9 -67.2 -334.1 -72.15 -332.8 -76.3 L-331.05 -80.9 Q-330.15 -82.9 -329.25 -84.65 -327.25 -88.35 -325.0 -93.75 -324.45 -94.95 -323.85 -96.2 -322.3 -99.9 -320.3 -104.2 -317.45 -110.3 -313.55 -116.45 L-312.75 -117.7 Q-308.8 -123.95 -304.35 -129.4 -298.8 -136.45 -293.35 -141.85 -284.9 -149.25 -281.7 -159.8 L-281.05 -162.05 Q-278.75 -169.4 -277.05 -176.35 -273.5 -185.6 -270.25 -194.0 -265.95 -203.75 -256.55 -210.35 -253.0 -212.85 -248.85 -214.8 -243.15 -217.4 -236.2 -219.15 -226.65 -221.6 -217.4 -222.9 -212.9 -223.9 -209.2 -224.7 -206.55 -225.3 -204.25 -226.0 L-200.6 -226.85 Q-195.2 -228.25 -188.65 -228.95 -183.15 -229.45 -176.7 -229.35 -163.6 -228.85 -150.4 -226.35 L-149.05 -226.1 Q-132.3 -223.05 -116.95 -221.85 -111.4 -221.65 -106.2 -222.45 -96.65 -223.5 -87.75 -226.15 -68.8 -231.3 -45.95 -228.65 -38.35 -228.4 -31.1 -228.5 -25.0 -228.45 -19.6 -229.25 L-19.25 -229.3 Q-7.05 -230.9 6.4 -234.1 11.3 -234.9 16.9 -236.75 24.2 -238.55 30.8 -240.0 45.45 -243.75 61.4 -244.05 76.8 -244.6 94.75 -241.4 114.65 -237.95 135.75 -230.25 136.85 -229.85 137.95 -229.45 151.2 -224.0 167.4 -212.3 L167.8 -212.15 Q185.25 -200.45 197.15 -198.25 L205.6 -196.3 Q233.1 -190.5 251.4 -188.3 L255.15 -187.85 Q263.25 -186.5 269.8 -184.1 L276.4 -181.35 Q279.45 -179.8 283.0 -178.7 292.5 -175.55 300.75 -173.2 306.85 -170.6 311.8 -167.4 L314.75 -164.85 Q320.15 -159.95 323.1 -152.15 327.6 -144.55 329.1 -129.7 L329.3 -127.95 Q330.2 -120.8 330.1 -113.1 330.05 -106.3 328.9 -99.85 L328.85 -99.45 Q327.55 -90.8 325.05 -83.9 323.35 -76.65 322.1 -70.55 319.6 -62.3 321.5 -53.9 324.0 -39.1 333.85 -21.75 339.25 -11.85 344.8 -3.25 350.95 6.7 352.85 16.05 356.3 32.3 358.35 49.25 358.8 53.7 359.35 57.95 360.45 66.15 361.9 73.3 363.95 84.3 362.25 95.65 361.2 104.5 357.4 113.3 L357.1 114.0 Q353.7 121.7 348.4 128.1 342.35 135.45 334.45 140.45 327.3 144.9 320.55 150.1 L315.65 153.7 313.0 155.25 Q310.85 156.35 308.55 157.3 299.8 160.7 293.4 165.0 L286.95 168.9 Q283.5 170.9 279.65 172.4 268.85 177.45 254.7 177.95 L252.15 178.0 Q234.15 177.95 213.65 178.95 198.35 180.35 180.65 185.1 L171.45 187.95 Q160.05 191.8 147.45 198.4 142.55 201.05 137.8 203.15 131.35 206.0 125.35 207.3 118.0 208.5 111.25 211.2 L106.3 212.9 Q97.55 216.1 90.1 220.1 81.7 224.6 76.55 228.25 L76.35 228.4 Q72.85 231.05 68.5 233.2 65.5 234.65 62.05 235.4 58.65 236.05 55.5 236.0 51.2 235.85 47.65 235.2 L47.3 235.15 Q43.15 234.15 38.1 233.6 32.55 232.85 26.15 232.15 12.15 230.8 -0.6 231.25 -12.35 231.15 -26.9 226.25 -31.1 224.75 -35.55 223.2 -56.5 215.8 -72.9 205.2 -86.1 195.4 -103.45 192.25 L-104.05 192.15 Q-121.45 189.25 -141.1 195.4 -148.75 195.8 -156.3 198.8 -164.1 200.9 -172.95 202.35 -175.75 203.0 -178.7 203.5 -190.4 206.25 -201.45 205.05 -223.35 203.8 -230.45 196.35 L-230.55 196.2 Q-254.05 187.95 -268.85 176.8 L-269.05 176.7 Q-286.45 164.3 -308.75 153.7 -326.5 140.7 -333.1 113.1 -336.5 103.25 -341.15 95.4 -346.7 85.45 -351.85 77.85 -356.8 68.95 -361.2 57.25 -363.5 52.05 -365.6 45.45 -367.45 39.9 -368.65 33.5 -369.7 26.85 -369.6 19.8 L-369.6 17.85" ffdec:has-small-stroke="true" ffdec:original-stroke-width="0.0" fill="none" stroke="#000000" stroke-linecap="round" stroke-linejoin="round" stroke-opacity="0.0" stroke-width="1.0"/>
    </g>
  </defs>
</svg>
