<?xml version="1.0" encoding="UTF-8" standalone="no"?>
<svg xmlns:ffdec="https://www.free-decompiler.com/flash" xmlns:xlink="http://www.w3.org/1999/xlink" ffdec:objectType="frame" height="113.85px" width="266.3px" xmlns="http://www.w3.org/2000/svg">
  <g transform="matrix(1.0, 0.0, 0.0, 1.0, 3.4, 2.95)">
    <use ffdec:characterId="2789" height="113.85" transform="matrix(1.0, 0.0, 0.0, 1.0, -3.4, -2.95)" width="266.3" xlink:href="#shape0"/>
  </g>
  <defs>
    <g id="shape0" transform="matrix(1.0, 0.0, 0.0, 1.0, 3.4, 2.95)">
      <path d="M256.9 104.9 L118.95 104.9 2.6 104.9 2.6 3.05 256.9 3.05 256.9 104.9 Z" fill="none" stroke="#6bc414" stroke-linecap="round" stroke-linejoin="round" stroke-width="12.0"/>
      <path d="M254.45 104.9 L7.85 104.9 7.85 6.6 254.45 6.6 254.45 104.9" fill="url(#gradient0)" fill-rule="evenodd" stroke="none"/>
      <path d="M253.2 103.3 L6.35 103.3 6.35 4.6 116.2 4.6 253.2 4.6 253.2 103.3 Z" fill="none" stroke="#77d717" stroke-linecap="round" stroke-linejoin="round" stroke-width="6.0"/>
      <path d="M12.65 100.0 L12.65 100.75 M247.95 8.65 L12.65 8.65 12.65 100.0" fill="none" stroke="#ffffff" stroke-linecap="round" stroke-linejoin="round" stroke-width="3.0"/>
      <path d="M12.65 100.0 L246.6 100.0" fill="none" stroke="#6bc414" stroke-linecap="round" stroke-linejoin="round" stroke-width="3.0"/>
      <path d="M249.65 101.8 L115.2 101.8 9.85 101.8 9.85 6.05 249.65 6.05 249.65 101.8 Z" fill="none" stroke="#bdff76" stroke-linecap="round" stroke-linejoin="round" stroke-width="3.0"/>
      <path d="M1.15 -1.35 L1.9 -1.65 2.65 -1.35 2.95 -0.65 2.65 0.0 1.9 0.3 Q1.45 0.3 1.15 0.0 0.85 -0.25 0.85 -0.65 0.85 -1.05 1.15 -1.35 M256.8 -2.25 L259.0 -1.8 260.65 -0.35 Q261.25 0.55 260.9 1.2 260.55 1.85 259.5 2.0 258.45 2.05 257.4 1.45 256.25 0.85 255.65 0.0 255.1 -0.9 255.4 -1.55 255.8 -2.2 256.8 -2.25 M259.95 3.45 Q260.4 3.05 261.0 3.05 261.65 3.05 262.1 3.45 262.6 3.9 262.6 4.45 262.6 5.05 262.1 5.45 261.65 5.9 261.0 5.9 260.4 5.9 259.95 5.45 259.5 5.05 259.5 4.45 259.5 3.9 259.95 3.45 M0.3 3.1 Q0.1 3.9 -0.5 4.35 -1.15 4.85 -1.7 4.7 -2.35 4.5 -2.6 3.8 -2.9 3.1 -2.7 2.3 -2.5 1.55 -1.85 1.05 -1.3 0.55 -0.65 0.75 -0.1 0.9 0.25 1.6 0.5 2.35 0.3 3.1" fill="#d3edb9" fill-rule="evenodd" stroke="none"/>
      <path d="M8.45 -1.55 L17.7 -1.55 M32.35 -1.55 L114.85 -1.55 250.65 -1.55 M261.35 7.65 L261.4 101.5" fill="none" stroke="#d3edb9" stroke-linecap="round" stroke-linejoin="round" stroke-width="1.5"/>
    </g>
    <linearGradient gradientTransform="matrix(0.0, -0.1269, 0.06, 0.0, 124.9, 55.75)" gradientUnits="userSpaceOnUse" id="gradient0" spreadMethod="pad" x1="-819.2" x2="819.2">
      <stop offset="0.42745098039215684" stop-color="#ffffff"/>
      <stop offset="1.0" stop-color="#70d801"/>
    </linearGradient>
  </defs>
</svg>
