<?xml version="1.0" encoding="UTF-8" standalone="no"?>
<svg xmlns:ffdec="https://www.free-decompiler.com/flash" xmlns:xlink="http://www.w3.org/1999/xlink" ffdec:objectType="frame" height="609.95px" width="313.3px" xmlns="http://www.w3.org/2000/svg">
  <g transform="matrix(1.0, 0.0, 0.0, 1.0, 40.75, 55.2)">
    <use ffdec:characterId="755" height="490.35" transform="matrix(1.0, 0.0, 0.0, 1.0, -40.75, 64.4)" width="203.9" xlink:href="#shape0"/>
    <clipPath id="clipPath0">
      <path d="M 143.8 -55.2 L -19.3 41.1 L -17.75 48.2 L -12.2 65.75 L -11.52 67.83 L -10.86 69.89 L -10.24 71.93 L -9.64 73.95 L -9.08 75.95 L -8.54 77.92 L -8.04 79.87 L -7.56 81.8 L -7.12 83.71 L -6.7 85.59 L -6.32 87.46 L -5.97 89.3 L -5.64 91.12 L -5.35 92.92 L -5.08 94.7 L -4.85 96.45 L -4.12 96.24 L -3.41 96.05 L -2.7 95.87 L -2.01 95.71 L -1.32 95.55 L -0.65 95.41 L 0.02 95.29 L 0.68 95.18 L 1.32 95.08 L 1.95 94.99 L 2.58 94.92 L 3.19 94.86 L 3.8 94.81 L 4.39 94.78 L 4.98 94.76 L 5.55 94.75 L 6.06 94.76 L 6.55 94.77 L 7.04 94.8 L 7.53 94.84 L 8 94.9 L 8.47 94.96 L 8.93 95.03 L 9.38 95.12 L 9.83 95.22 L 10.26 95.33 L 10.69 95.45 L 11.11 95.59 L 11.53 95.73 L 11.93 95.89 L 12.33 96.06 L 12.73 96.24 L 13.11 96.43 L 13.48 96.63 L 13.85 96.85 L 14.21 97.07 L 14.57 97.31 L 14.91 97.56 L 15.25 97.82 L 15.58 98.1 L 15.9 98.38 L 16.22 98.68 L 16.53 98.99 L 16.83 99.31 L 17.12 99.64 L 17.4 99.98 L 17.68 100.33 L 17.95 100.7 L 18.36 101.3 L 18.74 101.92 L 19.09 102.56 L 19.42 103.21 L 19.72 103.87 L 19.99 104.56 L 20.24 105.26 L 20.46 105.97 L 20.66 106.71 L 20.83 107.46 L 20.97 108.22 L 21.09 109.01 L 21.18 109.81 L 21.25 110.62 L 21.29 111.45 L 21.3 112.3 L 21.29 112.9 L 21.27 113.51 L 21.23 114.12 L 21.18 114.74 L 21.11 115.36 L 21.03 115.98 L 20.93 116.61 L 20.81 117.25 L 20.68 117.89 L 20.54 118.53 L 20.38 119.18 L 20.2 119.84 L 20.01 120.5 L 19.81 121.16 L 19.59 121.83 L 19.35 122.5 L 24.25 122.25 L 25.24 122.26 L 26.23 122.28 L 27.2 122.32 L 28.16 122.38 L 29.12 122.45 L 30.06 122.54 L 30.99 122.65 L 31.91 122.77 L 32.81 122.91 L 33.71 123.07 L 34.6 123.24 L 35.48 123.42 L 36.34 123.63 L 37.2 123.85 L 38.04 124.08 L 38.88 124.34 L 39.7 124.61 L 40.51 124.89 L 41.31 125.19 L 42.1 125.51 L 42.88 125.85 L 43.65 126.2 L 44.41 126.56 L 45.16 126.95 L 45.89 127.35 L 46.62 127.76 L 47.33 128.19 L 48.04 128.64 L 48.73 129.11 L 49.42 129.59 L 50.09 130.09 L 50.75 130.6 L 51.37 131.11 L 51.97 131.62 L 52.55 132.14 L 53.11 132.66 L 53.65 133.2 L 54.17 133.74 L 54.67 134.28 L 55.15 134.83 L 55.61 135.39 L 56.05 135.96 L 56.47 136.53 L 56.87 137.11 L 57.26 137.69 L 57.62 138.28 L 57.96 138.88 L 58.29 139.49 L 58.59 140.1 L 58.88 140.72 L 59.14 141.34 L 59.39 141.97 L 59.61 142.61 L 59.82 143.25 L 60.01 143.9 L 60.17 144.56 L 60.32 145.22 L 60.45 145.89 L 60.55 146.57 L 60.64 147.25 L 60.71 147.94 L 60.76 148.64 L 60.79 149.34 L 60.8 150.05 L 60.79 151.04 L 60.75 152.03 L 60.7 153 L 60.62 153.96 L 60.51 154.91 L 60.39 155.85 L 60.24 156.77 L 60.06 157.69 L 59.87 158.59 L 59.65 159.48 L 59.41 160.36 L 59.14 161.23 L 58.85 162.09 L 58.54 162.94 L 58.21 163.78 L 57.85 164.6 L 57.56 165.23 L 57.25 165.86 L 56.93 166.48 L 56.6 167.1 L 56.25 167.72 L 55.89 168.33 L 55.51 168.94 L 55.12 169.55 L 54.72 170.16 L 54.3 170.76 L 53.87 171.36 L 53.42 171.96 L 52.96 172.55 L 52.49 173.14 L 52 173.73 L 51.5 174.31 L 50.98 174.89 L 50.45 175.47 L 49.91 176.05 L 49.35 176.62 L 48.78 177.19 L 48.19 177.75 L 47.59 178.32 L 46.97 178.88 L 46.35 179.44 L 45.7 179.99 L 45.05 180.54 L 44.38 181.09 L 43.69 181.63 L 42.99 182.18 L 42.28 182.71 L 41.55 183.25 L 35.95 187.4 L 37.3 188.5 L 37.84 188.98 L 38.37 189.46 L 38.87 189.94 L 39.36 190.42 L 39.84 190.91 L 40.29 191.4 L 40.73 191.89 L 41.15 192.39 L 41.55 192.89 L 41.94 193.39 L 42.31 193.9 L 42.66 194.4 L 43 194.91 L 43.32 195.43 L 43.62 195.94 L 43.9 196.46 L 44.17 196.98 L 44.42 197.51 L 44.65 198.04 L 44.86 198.57 L 45.06 199.1 L 45.24 199.64 L 45.4 200.17 L 45.55 200.72 L 45.68 201.26 L 45.79 201.81 L 45.89 202.36 L 45.96 202.91 L 46.02 203.47 L 46.07 204.02 L 46.09 204.59 L 46.1 205.15 L 46.09 206.03 L 46.07 206.91 L 46.04 207.77 L 45.99 208.62 L 45.92 209.47 L 45.85 210.3 L 45.76 211.12 L 45.65 211.94 L 45.53 212.74 L 45.4 213.54 L 45.25 214.32 L 45.09 215.1 L 44.91 215.86 L 44.72 216.62 L 44.52 217.36 L 44.3 218.1 L 44.08 218.8 L 43.82 219.56 L 43.52 220.39 L 43.19 221.28 L 42.43 223.24 L 41.53 225.46 L 40.48 227.93 L 39.29 230.65 L 37.97 233.63 L 36.5 236.85 L 36.35 237.15 L 36.18 237.47 L 35.99 237.81 L 35.78 238.16 L 35.29 238.91 L 34.71 239.74 L 34.05 240.63 L 33.3 241.58 L 32.47 242.61 L 31.55 243.7 L 265.6 227.35 L 272.55 9.75 L 143.8 -55.2 Z"/>
    </clipPath>
    <g clip-path="url(#clipPath0)">
      <use ffdec:characterId="757" height="259.45" transform="matrix(1.0, 0.0, 0.0, 1.0, -3.55, -27.25)" width="263.45" xlink:href="#shape1"/>
      <filter id="filter0">
        <feConvolveMatrix divisor="16.0" in="SourceGraphic" kernelMatrix="1 1 1 1 1 1 1 1 1 1 1 1 1 1 1 1" order="4 4" result="filterResult0"/>
      </filter>
      <use ffdec:characterId="760" filter="url(#filter0)" height="144.45" transform="matrix(1.0, 0.0, 0.0, 1.0, 7.1, 77.8)" width="206.4" xlink:href="#sprite0"/>
      <use ffdec:characterId="761" height="239.45" transform="matrix(1.0, 0.0, 0.0, 1.0, 37.7, -17.25)" width="133.05" xlink:href="#shape3"/>
    </g>
  </g>
  <defs>
    <g id="shape0" transform="matrix(1.0, 0.0, 0.0, 1.0, 40.75, -64.4)">
      <path d="M92.15 79.75 L65.0 81.0 Q58.5 81.0 54.0 79.35 51.4 78.4 47.3 75.75 43.25 73.15 40.3 72.15 35.5 70.5 28.55 70.5 28.25 70.5 22.8 72.5 L12.5 76.35 Q11.3 76.8 8.6 80.7 L7.15 82.6 Q8.1 88.35 8.1 89.75 L8.0 91.1 9.15 91.8 13.65 93.8 Q16.45 94.95 17.5 95.75 19.2 97.1 21.65 101.8 24.4 107.0 24.4 110.15 L22.75 120.1 Q34.75 117.45 49.25 129.1 55.45 134.1 59.25 139.95 63.25 146.0 63.25 150.85 63.25 157.8 59.25 165.8 L55.25 173.85 53.3 176.4 Q53.3 177.15 47.05 181.35 41.25 185.25 37.5 187.25 39.9 190.55 44.8 196.15 48.55 201.35 48.55 207.65 L48.2 209.9 Q47.85 211.5 47.85 212.15 L46.5 217.0 Q46.5 218.4 45.25 220.35 L44.4 225.4 44.25 226.15 Q49.1 223.75 58.25 220.05 75.65 213.0 79.1 212.15 87.25 210.2 103.35 196.95 116.1 186.5 120.9 180.85 140.2 158.4 149.15 140.2 157.0 124.1 157.0 110.9 157.0 101.75 151.65 94.75 145.85 87.25 136.8 86.4 L115.1 82.95 Q95.65 79.75 92.15 79.75 M116.4 77.15 L142.65 81.5 Q151.1 82.75 157.3 92.05 163.15 100.8 163.15 110.35 163.15 124.75 156.15 140.0 147.9 158.05 128.65 180.75 L122.75 188.2 Q119.55 192.3 116.5 195.25 108.0 203.4 87.8 214.75 47.5 232.5 41.6 232.5 40.75 232.5 40.1 232.05 L39.55 232.1 Q37.9 232.1 37.5 230.7 37.35 230.2 37.35 228.6 37.35 227.8 38.25 223.9 39.1 220.0 39.1 217.75 39.1 206.35 28.15 203.15 22.65 201.9 20.6 201.1 17.15 199.75 17.15 197.0 17.15 193.3 20.05 187.55 21.55 184.55 26.35 176.7 35.55 161.75 35.55 154.6 35.55 150.8 29.7 147.9 25.75 145.95 16.9 143.65 L4.1 140.0 Q-1.75 137.85 -1.75 135.25 -1.75 134.2 2.45 124.45 6.6 114.75 6.6 113.0 6.6 112.05 2.9 107.7 -0.85 103.35 -0.85 102.3 L1.85 81.15 Q1.85 78.35 2.2 75.65 2.8 71.6 3.9 71.6 4.5 71.6 5.2 73.65 8.15 70.95 13.9 68.5 23.5 64.4 28.05 64.4 L34.2 65.4 43.0 66.4 Q44.35 66.4 46.3 67.75 L50.4 70.65 Q56.9 74.9 65.9 74.9 L91.9 73.65 Q95.25 73.65 116.4 77.15 M13.15 112.65 L13.15 113.1 Q13.15 115.65 9.6 123.75 L5.05 133.75 15.95 136.5 Q23.5 138.35 28.0 140.0 41.8 145.05 41.8 153.35 41.8 162.6 32.35 177.05 L25.8 187.0 Q22.85 191.95 22.85 194.75 L26.35 196.0 Q30.9 197.3 34.1 199.0 42.9 203.75 44.85 212.85 45.65 210.4 45.65 208.65 45.65 201.1 39.2 193.6 32.75 187.45 32.75 186.8 L43.1 178.15 Q53.7 169.15 55.0 166.75 59.5 158.15 59.5 150.8 59.5 140.6 48.25 132.65 37.25 124.8 23.85 124.8 21.4 124.8 19.3 123.95 17.0 123.0 17.0 121.6 17.0 120.5 18.45 116.25 19.85 111.95 19.85 109.55 19.85 104.25 17.15 101.35 15.3 99.4 11.25 97.95 L7.0 96.4 6.95 96.5 Q5.8 101.4 5.8 101.8 L9.5 106.1 Q11.3 108.35 12.2 110.05 11.85 110.6 11.85 111.25 11.85 111.7 12.45 112.25 L13.15 112.65" fill="#020201" fill-rule="evenodd" stroke="none"/>
      <path d="M12.2 110.05 Q11.3 108.35 9.5 106.1 L5.8 101.8 Q5.8 101.4 6.95 96.5 L7.0 96.4 11.25 97.95 Q15.3 99.4 17.15 101.35 19.85 104.25 19.85 109.55 19.85 111.95 18.45 116.25 17.0 120.5 17.0 121.6 17.0 123.0 19.3 123.95 21.4 124.8 23.85 124.8 37.25 124.8 48.25 132.65 59.5 140.6 59.5 150.8 59.5 158.15 55.0 166.75 53.7 169.15 43.1 178.15 L32.75 186.8 Q32.75 187.45 39.2 193.6 45.65 201.1 45.65 208.65 45.65 210.4 44.85 212.85 42.9 203.75 34.1 199.0 30.9 197.3 26.35 196.0 L22.85 194.75 Q22.85 191.95 25.8 187.0 L32.35 177.05 Q41.8 162.6 41.8 153.35 41.8 145.05 28.0 140.0 23.5 138.35 15.95 136.5 L5.05 133.75 9.6 123.75 Q13.15 115.65 13.15 113.1 L13.15 112.65 13.85 112.8 Q14.75 112.8 15.45 112.05 16.1 111.4 16.1 110.75 L16.0 109.7 Q15.65 108.75 14.35 108.75 13.6 108.75 12.8 109.4 L12.2 110.05 M14.15 123.1 Q13.4 123.1 12.6 123.6 11.5 124.3 11.5 125.5 11.5 126.6 12.25 127.75 13.1 129.05 14.25 129.05 15.15 129.05 16.0 128.5 17.1 127.8 17.1 126.55 17.1 125.5 16.25 124.35 15.3 123.1 14.15 123.1 M41.85 138.9 Q41.85 137.9 41.3 137.05 40.55 135.85 39.15 135.85 38.2 135.85 37.15 136.7 35.9 137.65 35.9 139.05 35.9 139.7 36.95 140.6 38.1 141.65 39.3 141.65 41.85 141.65 41.85 138.9 M50.55 143.35 Q48.95 141.1 47.55 141.1 46.5 141.1 45.6 141.65 44.35 142.45 44.35 144.0 44.35 145.2 45.8 147.3 47.4 149.65 49.0 149.65 50.7 149.65 51.5 148.25 52.0 147.35 52.0 146.5 52.0 145.4 50.55 143.35 M28.55 128.05 Q27.55 126.6 26.0 126.6 23.95 126.6 23.05 127.7 22.5 128.4 22.5 129.4 22.5 130.4 23.75 131.8 25.05 133.25 26.25 133.25 27.9 133.25 28.75 132.15 29.35 131.3 29.35 130.25 29.35 129.25 28.55 128.05 M37.1 136.0 Q39.1 136.0 39.1 134.0 39.1 132.2 37.2 132.45 35.3 132.7 35.3 134.3 35.3 134.85 35.75 135.4 36.25 136.0 37.1 136.0 M18.5 134.5 Q18.3 133.65 17.5 132.85 16.1 132.8 15.65 133.4 15.4 133.7 15.1 135.0 L15.75 135.9 16.75 136.15 17.8 135.7 Q18.25 135.4 18.5 134.5 M52.8 159.0 Q52.8 158.2 52.2 157.35 51.5 156.35 50.4 156.35 49.1 156.35 48.45 157.2 48.0 157.75 48.0 158.35 48.0 159.35 48.75 160.25 49.6 161.25 50.8 161.25 52.8 161.25 52.8 159.0 M35.0 181.5 Q34.5 180.6 33.5 180.6 33.1 180.6 32.5 180.95 31.6 181.4 31.6 182.3 L32.15 183.3 Q32.85 184.3 33.65 184.3 34.9 184.3 35.15 183.6 L35.3 182.5 35.0 181.5 M49.05 166.65 Q48.45 165.9 47.15 165.9 L46.05 166.35 Q45.0 167.05 45.0 168.35 45.0 169.05 45.55 169.6 46.25 170.3 47.5 170.3 48.6 170.3 49.1 169.45 49.5 168.8 49.5 168.0 49.5 167.25 49.05 166.65" fill="#c3b488" fill-rule="evenodd" stroke="none"/>
      <path d="M12.2 110.05 L12.8 109.4 Q13.6 108.75 14.35 108.75 15.65 108.75 16.0 109.7 L16.1 110.75 Q16.1 111.4 15.45 112.05 14.75 112.8 13.85 112.8 L13.15 112.65 12.45 112.25 Q11.85 111.7 11.85 111.25 11.85 110.6 12.2 110.05 M50.55 143.35 Q52.0 145.4 52.0 146.5 52.0 147.35 51.5 148.25 50.7 149.65 49.0 149.65 47.4 149.65 45.8 147.3 44.35 145.2 44.35 144.0 44.35 142.45 45.6 141.65 46.5 141.1 47.55 141.1 48.95 141.1 50.55 143.35 M41.85 138.9 Q41.85 141.65 39.3 141.65 38.1 141.65 36.95 140.6 35.9 139.7 35.9 139.05 35.9 137.65 37.15 136.7 38.2 135.85 39.15 135.85 40.55 135.85 41.3 137.05 41.85 137.9 41.85 138.9 M14.15 123.1 Q15.3 123.1 16.25 124.35 17.1 125.5 17.1 126.55 17.1 127.8 16.0 128.5 15.15 129.05 14.25 129.05 13.1 129.05 12.25 127.75 11.5 126.6 11.5 125.5 11.5 124.3 12.6 123.6 13.4 123.1 14.15 123.1 M35.0 181.5 L35.3 182.5 35.15 183.6 Q34.9 184.3 33.65 184.3 32.85 184.3 32.15 183.3 L31.6 182.3 Q31.6 181.4 32.5 180.95 33.1 180.6 33.5 180.6 34.5 180.6 35.0 181.5 M52.8 159.0 Q52.8 161.25 50.8 161.25 49.6 161.25 48.75 160.25 48.0 159.35 48.0 158.35 48.0 157.75 48.45 157.2 49.1 156.35 50.4 156.35 51.5 156.35 52.2 157.35 52.8 158.2 52.8 159.0" fill="#8c7d52" fill-rule="evenodd" stroke="none"/>
      <path d="M18.5 134.5 Q18.25 135.4 17.8 135.7 L16.75 136.15 15.75 135.9 15.1 135.0 Q15.4 133.7 15.65 133.4 16.1 132.8 17.5 132.85 18.3 133.65 18.5 134.5 M37.1 136.0 Q36.25 136.0 35.75 135.4 35.3 134.85 35.3 134.3 35.3 132.7 37.2 132.45 39.1 132.2 39.1 134.0 39.1 136.0 37.1 136.0 M28.55 128.05 Q29.35 129.25 29.35 130.25 29.35 131.3 28.75 132.15 27.9 133.25 26.25 133.25 25.05 133.25 23.75 131.8 22.5 130.4 22.5 129.4 22.5 128.4 23.05 127.7 23.95 126.6 26.0 126.6 27.55 126.6 28.55 128.05 M49.05 166.65 Q49.5 167.25 49.5 168.0 49.5 168.8 49.1 169.45 48.6 170.3 47.5 170.3 46.25 170.3 45.55 169.6 45.0 169.05 45.0 168.35 45.0 167.05 46.05 166.35 L47.15 165.9 Q48.45 165.9 49.05 166.65" fill="#f5e9c4" fill-rule="evenodd" stroke="none"/>
      <path d="M39.55 422.8 Q40.85 424.55 40.85 426.25 40.85 431.7 33.8 441.25 26.35 451.4 25.85 454.5 L25.0 454.75 24.8 453.85 24.75 451.6 Q24.45 443.8 25.55 436.0 27.7 420.5 34.75 420.5 37.75 420.5 39.55 422.8" fill="#6c4a19" fill-rule="evenodd" stroke="none"/>
      <path d="M23.7 384.55 L24.5 387.75 Q22.95 389.45 21.35 390.35 20.25 391.0 19.75 391.0 18.0 391.0 16.7 389.6 15.5 388.35 15.5 387.1 15.5 384.5 17.5 383.15 18.8 382.25 19.85 382.25 22.55 382.25 23.7 384.55 M22.3 465.5 Q22.6 465.5 22.6 467.0 22.6 469.5 22.35 469.25 L22.0 469.75 Q21.3 470.25 19.75 470.25 L18.05 470.15 18.25 470.0 17.0 468.1 Q18.6 465.55 21.75 465.35 L22.3 465.5 M38.6 474.85 Q40.25 467.45 49.9 457.25 59.75 446.85 65.6 446.85 67.95 446.85 69.6 449.1 71.0 450.95 71.0 452.75 71.0 454.3 70.65 454.95 L69.6 456.35 Q44.9 475.75 41.75 475.75 L39.5 475.45 38.6 474.85 M46.85 499.25 Q50.1 499.25 51.75 501.4 53.0 503.0 53.0 505.0 53.0 507.0 51.8 508.75 49.85 511.6 45.5 511.6 42.75 511.6 41.05 509.25 39.75 507.5 39.75 506.0 39.75 503.7 41.0 501.9 42.85 499.25 46.85 499.25 M56.15 534.65 Q58.55 534.0 60.75 534.0 74.2 534.0 75.95 534.35 81.25 535.45 81.25 541.1 81.25 544.3 79.1 545.65 77.75 546.5 75.75 546.5 71.9 546.5 64.1 542.65 L52.5 536.5 Q53.35 535.35 56.15 534.65 M10.0 548.85 Q10.0 551.05 8.75 552.65 7.1 554.75 3.75 554.75 1.2 554.75 -0.5 552.55 -1.85 550.8 -1.85 549.25 -1.85 546.7 -0.5 545.0 1.25 542.85 4.85 542.85 7.35 542.85 8.85 545.1 10.0 546.9 10.0 548.85 M-35.25 497.5 L-34.55 497.75 Q-34.25 497.95 -34.25 499.5 -34.25 500.7 -35.05 501.9 -36.0 503.35 -37.6 503.35 L-39.15 503.25 -39.5 502.85 -40.75 501.0 Q-40.75 499.85 -40.1 498.75 -39.0 497.0 -36.6 497.0 L-35.0 497.25 -35.25 497.5" fill="#432f14" fill-rule="evenodd" stroke="none"/>
    </g>
    <g id="shape1" transform="matrix(1.0, 0.0, 0.0, 1.0, 3.55, 27.25)">
      <path d="M169.4 12.0 L168.9 10.85 Q167.4 7.85 163.5 7.85 L161.0 8.05 Q154.95 10.7 144.45 14.1 140.2 15.45 135.6 16.2 136.8 7.65 141.35 3.7 145.85 -0.3 158.55 -12.45 155.2 -14.6 153.1 -17.25 L149.0 -15.45 Q143.55 -13.2 133.35 -9.75 125.0 -6.45 119.45 -4.6 111.95 -2.05 105.0 -1.0 96.2 5.8 92.2 11.9 86.05 21.25 86.05 30.0 86.05 31.55 86.2 33.05 90.05 31.85 96.7 27.9 105.15 22.9 119.15 20.5 L133.65 18.6 136.15 18.3 147.6 16.35 Q156.7 14.15 165.0 9.05 166.95 9.6 169.4 12.0 L170.1 12.75 172.8 15.5 174.75 17.0 Q176.65 18.15 179.35 19.25 182.0 20.35 185.25 24.0 187.0 25.85 191.7 27.1 L198.25 28.35 199.85 28.6 Q202.9 31.05 205.75 32.0 L209.75 32.65 212.55 33.35 213.8 34.0 Q214.75 34.8 215.45 37.95 L216.3 42.5 Q217.1 45.7 222.75 45.6 228.4 45.45 230.35 47.05 L230.8 47.5 Q231.85 48.85 234.9 50.0 L236.65 50.6 243.8 53.1 249.9 58.15 Q248.7 62.3 248.85 64.55 249.1 67.75 247.0 72.25 244.85 76.95 244.85 78.6 244.85 80.55 246.6 86.7 L248.35 93.35 Q248.35 95.25 246.35 100.7 244.3 106.15 244.3 110.85 244.3 118.0 246.85 123.75 249.35 129.5 249.35 134.9 249.35 140.2 246.35 143.5 243.3 146.75 243.3 151.25 L244.3 168.75 Q244.3 174.65 241.55 177.45 L239.65 179.4 Q238.8 180.65 238.8 182.5 238.8 184.65 241.05 190.7 243.3 196.75 243.3 199.75 L243.05 205.25 243.0 207.25 206.05 210.3 201.45 210.65 201.35 210.65 151.4 214.25 137.15 213.8 Q123.7 213.8 104.8 214.6 L78.9 215.75 78.55 215.8 78.65 217.0 Q78.45 218.45 77.05 219.15 L77.0 219.15 69.55 219.5 66.3 218.9 63.85 218.3 Q64.35 217.25 65.0 216.3 L56.2 216.25 56.35 216.8 57.2 220.8 56.15 221.2 53.35 221.85 47.2 222.05 41.85 221.4 39.9 220.9 Q38.75 220.45 37.7 219.65 38.05 218.1 38.9 216.35 27.2 216.35 19.75 216.5 L18.95 203.7 Q17.0 177.9 17.0 174.0 17.0 168.6 17.55 157.6 L17.55 157.55 17.65 154.55 17.75 152.75 18.4 139.45 18.5 136.65 18.5 136.25 18.5 135.55 Q18.15 129.55 14.45 117.5 10.85 105.65 12.0 96.6 12.65 91.2 12.65 86.0 L12.65 85.85 12.6 84.2 Q12.4 78.5 11.4 73.1 L9.25 62.7 6.7 58.1 6.45 57.65 8.1 56.75 Q13.2 54.1 19.2 52.45 L22.85 51.6 28.45 50.5 36.8 49.15 38.35 48.9 46.65 47.65 Q49.9 47.15 52.65 45.3 L54.65 43.7 56.45 42.05 61.35 37.6 61.55 37.45 63.05 36.25 Q65.0 34.9 66.3 35.3 L68.7 35.5 70.65 35.4 74.25 34.9 84.35 33.45 86.2 33.05 Q87.1 41.2 93.05 46.0 99.3 51.0 109.1 51.0 115.1 51.0 120.05 49.2 L121.3 48.7 M170.2 14.65 L169.4 12.0 M65.0 216.3 Q65.85 215.0 66.9 213.95 67.55 213.4 73.25 210.7 75.55 211.5 76.3 212.95 77.05 214.4 77.9 214.75 78.4 214.95 78.55 215.8 L65.55 216.3 65.0 216.3 M56.2 216.25 L52.2 216.1 Q45.15 215.75 41.65 216.35 L38.9 216.35 41.05 212.65 Q43.65 208.7 48.75 208.4 53.85 208.05 54.95 211.8 L56.2 216.25 Z" fill="none" stroke="#000000" stroke-linecap="round" stroke-linejoin="round" stroke-width="20.0"/>
      <path d="M6.45 57.65 L8.1 56.75 Q13.2 54.1 19.2 52.45 L22.85 51.6 28.45 50.5 36.8 49.15 38.35 48.9 46.65 47.65 Q49.9 47.15 52.65 45.3 L54.65 43.7 56.45 42.05 61.35 37.6 61.55 37.45 63.05 36.25 Q65.0 34.9 66.3 35.3 L68.7 35.5 70.65 35.4 74.25 34.9 84.35 33.45 86.2 33.05 Q90.05 31.85 96.7 27.9 105.15 22.9 119.15 20.5 L133.65 18.6 136.15 18.3 147.6 16.35 Q156.7 14.15 165.0 9.05 166.95 9.6 169.4 12.0 L170.1 12.75 172.8 15.5 174.75 17.0 Q176.65 18.15 179.35 19.25 182.0 20.35 185.25 24.0 187.0 25.85 191.7 27.1 L198.25 28.35 199.85 28.6 Q202.9 31.05 205.75 32.0 L209.75 32.65 212.55 33.35 213.8 34.0 Q214.75 34.8 215.45 37.95 L216.3 42.5 Q217.1 45.7 222.75 45.6 228.4 45.45 230.35 47.05 L230.8 47.5 Q231.85 48.85 234.9 50.0 L236.65 50.6 243.8 53.1 249.9 58.15 M170.2 14.65 L169.4 12.0 M86.2 33.05 Q87.1 41.2 93.05 46.0 99.3 51.0 109.1 51.0 115.1 51.0 120.05 49.2 L121.3 48.7" fill="none" stroke="#3f2c11" stroke-linecap="round" stroke-linejoin="round" stroke-width="8.0"/>
      <path d="M249.9 58.15 Q248.7 62.3 248.85 64.55 249.1 67.75 247.0 72.25 244.85 76.95 244.85 78.6 244.85 80.55 246.6 86.7 L248.35 93.35 Q248.35 95.25 246.35 100.7 244.3 106.15 244.3 110.85 244.3 118.0 246.85 123.75 249.35 129.5 249.35 134.9 249.35 140.2 246.35 143.5 243.3 146.75 243.3 151.25 L244.3 168.75 Q244.3 174.65 241.55 177.45 L239.65 179.4 Q238.8 180.65 238.8 182.5 238.8 184.65 241.05 190.7 243.3 196.75 243.3 199.75 L243.05 205.25 243.0 207.25 206.05 210.3 201.45 210.65 201.35 210.65 M78.55 215.8 L78.65 217.0 Q78.45 218.45 77.05 219.15 L77.0 219.15 69.55 219.5 66.3 218.9 63.85 218.3 Q64.35 217.25 65.0 216.3 65.85 215.0 66.9 213.95 67.55 213.4 73.25 210.7 75.55 211.5 76.3 212.95 77.05 214.4 77.9 214.75 78.4 214.95 78.55 215.8 L65.55 216.3 65.0 216.3 M56.2 216.25 L56.35 216.8 57.2 220.8 56.15 221.2 53.35 221.85 47.2 222.05 41.85 221.4 39.9 220.9 Q38.75 220.45 37.7 219.65 38.05 218.1 38.9 216.35 L41.05 212.65 Q43.65 208.7 48.75 208.4 53.85 208.05 54.95 211.8 L56.2 216.25 52.2 216.1 Q45.15 215.75 41.65 216.35 L38.9 216.35 M17.55 157.6 L17.55 157.55 17.65 154.55 17.75 152.75 18.4 139.45 18.5 136.65 18.5 136.25 M12.65 86.0 L12.65 85.85 12.6 84.2 Q12.4 78.5 11.4 73.1 L9.25 62.7 6.7 58.1 6.45 57.65" fill="none" stroke="#33230c" stroke-linecap="round" stroke-linejoin="round" stroke-width="8.0"/>
      <path d="M201.35 210.65 L151.4 214.25 137.15 213.8 Q123.7 213.8 104.8 214.6 L78.9 215.75 78.55 215.8 M65.0 216.3 L56.2 216.25 M38.9 216.35 Q27.2 216.35 19.75 216.5 L18.95 203.7 Q17.0 177.9 17.0 174.0 17.0 168.6 17.55 157.6 M18.5 136.25 L18.5 135.55 Q18.15 129.55 14.45 117.5 10.85 105.65 12.0 96.6 12.65 91.2 12.65 86.0" fill="none" stroke="#4d3410" stroke-linecap="round" stroke-linejoin="round" stroke-width="8.0"/>
      <path d="M169.4 12.0 L168.9 10.85 Q167.4 7.85 163.5 7.85 L161.0 8.05 Q154.95 10.7 144.45 14.1 140.2 15.45 135.6 16.2 136.8 7.65 141.35 3.7 145.85 -0.3 158.55 -12.45 155.2 -14.6 153.1 -17.25 L149.0 -15.45 Q143.55 -13.2 133.35 -9.75 125.0 -6.45 119.45 -4.6 111.95 -2.05 105.0 -1.0 96.2 5.8 92.2 11.9 86.05 21.25 86.05 30.0 86.05 31.55 86.2 33.05" fill="none" stroke="#9a885d" stroke-linecap="round" stroke-linejoin="round" stroke-width="8.0"/>
      <path d="M234.9 50.0 L236.65 50.6 243.8 53.1 248.65 57.1 243.55 56.8 Q241.8 57.05 239.05 58.2 L232.7 60.4 229.8 61.3 229.45 61.3 225.3 61.55 Q223.1 61.55 216.45 59.55 L209.5 57.55 Q207.8 57.55 205.2 58.4 199.5 58.55 194.65 56.3 190.2 53.8 185.75 53.15 179.4 51.95 175.2 54.3 171.0 56.65 166.2 56.4 161.35 56.1 154.45 59.8 147.5 63.5 142.65 61.5 131.65 57.5 127.8 58.0 123.9 58.5 116.7 61.2 109.5 63.85 101.2 63.45 L83.8 59.8 82.6 59.55 78.75 57.65 77.65 57.1 Q67.75 52.25 60.0 52.25 L58.75 52.3 57.55 52.45 55.55 51.0 Q55.15 50.7 53.3 46.4 L52.65 45.3 54.65 43.7 56.45 42.05 Q58.8 42.85 59.7 44.75 L61.05 47.4 Q62.15 48.75 64.55 49.0 68.3 49.4 72.85 51.2 L76.3 52.7 76.3 52.65 Q73.75 45.7 71.4 44.35 L67.1 42.0 Q64.1 40.15 61.55 37.45 L63.05 36.25 66.05 40.2 Q67.7 41.85 71.05 42.5 72.85 42.85 74.1 45.25 L76.3 52.65 77.2 50.95 78.2 47.95 Q78.4 46.8 78.0 43.9 77.6 40.95 72.25 39.2 66.9 37.4 70.65 35.4 L74.25 34.9 84.35 33.45 Q88.25 32.9 96.7 27.9 105.15 22.9 119.15 20.5 L133.65 18.6 136.15 18.3 139.7 20.05 Q144.25 22.75 144.25 27.0 144.25 28.95 141.85 31.45 L140.3 32.85 137.55 32.75 Q122.15 32.75 106.85 36.25 101.4 37.5 97.4 39.0 86.3 43.15 86.3 49.25 86.3 52.3 89.3 53.5 90.6 54.05 92.25 52.95 97.0 52.75 97.75 54.2 98.45 55.6 99.35 55.8 L118.7 54.75 Q138.35 52.35 142.6 47.6 146.85 42.8 154.2 42.8 161.55 42.8 164.45 41.4 167.35 40.0 171.55 35.2 175.7 30.35 179.75 30.5 183.7 28.6 179.75 25.7 177.1 24.45 173.65 17.25 L172.8 15.5 174.75 17.0 Q176.65 18.15 179.35 19.25 182.0 20.35 185.25 24.0 187.0 25.85 191.7 27.1 L192.25 29.0 Q193.25 32.0 193.25 33.0 193.25 35.85 188.2 37.7 184.95 38.9 180.25 39.5 174.9 40.2 170.8 42.45 L161.95 47.95 173.2 46.65 190.9 46.05 Q200.55 45.4 205.45 42.8 211.1 39.75 212.55 33.35 L213.8 34.0 Q214.75 34.8 215.45 37.95 L216.3 42.5 Q217.1 45.7 222.75 45.6 228.4 45.45 230.35 47.05 230.1 48.35 228.8 49.2 227.3 50.15 225.3 50.25 223.15 50.05 221.5 50.25 218.3 50.6 218.3 52.75 L218.4 53.45 218.5 53.75 Q220.65 52.25 223.1 52.15 L229.05 52.5 Q231.15 52.5 233.85 50.75 L234.9 50.0 M22.85 51.6 L28.45 50.5 36.8 49.15 37.3 49.6 Q39.95 52.0 42.05 51.5 L42.05 54.0 40.0 57.2 39.3 57.3 37.25 57.5 Q33.2 57.5 28.55 56.15 23.9 54.75 20.85 54.75 L18.5 54.95 Q20.2 53.5 22.55 51.8 L22.85 51.6" fill="#6c4b21" fill-rule="evenodd" stroke="none"/>
      <path d="M249.15 57.55 L249.9 58.15 239.75 59.75 234.8 60.55 233.15 60.85 239.6 58.9 Q242.45 58.0 244.15 57.65 245.85 57.3 249.15 57.55 M63.05 36.25 Q65.0 34.9 66.3 35.3 L68.7 35.5 Q65.6 37.8 70.0 39.3 74.35 40.75 75.65 42.0 76.9 43.2 77.05 44.95 77.2 46.7 76.95 48.05 76.65 49.35 76.3 52.65 L74.1 45.25 Q72.85 42.85 71.05 42.5 67.7 41.85 66.05 40.2 L63.05 36.25 M104.3 63.95 Q110.75 64.4 117.45 62.15 124.15 59.85 127.9 59.2 131.65 58.5 141.5 62.1 147.55 63.85 155.2 60.45 162.8 57.05 167.35 57.9 171.85 58.75 175.6 56.25 179.3 53.7 184.65 54.0 189.8 54.6 194.65 57.3 199.45 59.3 203.3 59.05 199.35 60.55 196.75 60.55 194.8 60.55 190.9 59.55 187.0 58.55 182.25 58.55 176.65 58.55 174.35 60.05 172.1 61.55 169.0 61.55 L165.0 61.05 161.0 60.55 Q158.25 60.55 153.25 61.8 148.3 63.05 145.15 63.05 141.8 63.05 137.35 61.8 132.9 60.55 130.65 60.55 128.0 60.55 121.5 62.55 115.05 64.55 110.85 64.55 L104.3 63.95 M78.75 58.65 L62.55 55.05 61.55 55.1 Q56.4 55.25 47.2 57.3 L38.6 59.35 37.5 59.55 27.45 58.55 19.5 57.55 11.1 57.6 Q14.5 56.6 17.1 56.15 L20.85 55.75 Q23.9 55.75 28.55 57.15 33.2 58.5 37.25 58.5 L39.3 58.3 Q42.25 57.75 47.95 55.9 54.85 53.65 58.75 53.3 L60.0 53.25 Q67.75 53.25 77.65 58.1 L78.75 58.65" fill="#ded0bf" fill-rule="evenodd" stroke="none"/>
      <path d="M248.65 57.1 L249.15 57.55 Q245.85 57.3 244.15 57.65 242.45 58.0 239.6 58.9 L233.15 60.85 229.8 61.3 232.7 60.4 239.05 58.2 Q241.8 57.05 243.55 56.8 L248.65 57.1 M68.7 35.5 L70.65 35.4 Q66.9 37.4 72.25 39.2 77.6 40.95 78.0 43.9 78.4 46.8 78.2 47.95 L77.2 50.95 76.3 52.65 Q76.65 49.35 76.95 48.05 77.2 46.7 77.05 44.95 76.9 43.2 75.65 42.0 74.35 40.75 70.0 39.3 65.6 37.8 68.7 35.5 M203.3 59.05 Q199.45 59.3 194.65 57.3 189.8 54.6 184.65 54.0 179.3 53.7 175.6 56.25 171.85 58.75 167.35 57.9 162.8 57.05 155.2 60.45 147.55 63.85 141.5 62.1 131.65 58.5 127.9 59.2 124.15 59.85 117.45 62.15 110.75 64.4 104.3 63.95 L101.2 63.45 Q109.5 63.85 116.7 61.2 123.9 58.5 127.8 58.0 131.65 57.5 142.65 61.5 147.5 63.5 154.45 59.8 161.35 56.1 166.2 56.4 171.0 56.65 175.2 54.3 179.4 51.95 185.75 53.15 190.2 53.8 194.65 56.3 199.5 58.55 205.2 58.4 204.3 58.65 203.35 59.05 L203.3 59.05 M78.75 58.65 L77.65 58.1 Q67.75 53.25 60.0 53.25 L58.75 53.3 57.55 52.45 58.75 52.3 60.0 52.25 Q67.75 52.25 77.65 57.1 L78.75 57.65 82.6 59.55 78.75 58.65 M39.3 58.3 L37.25 58.5 Q33.2 58.5 28.55 57.15 23.9 55.75 20.85 55.75 L17.1 56.15 18.5 54.95 20.85 54.75 Q23.9 54.75 28.55 56.15 33.2 57.5 37.25 57.5 L39.3 57.3 40.0 57.2 39.3 58.3" fill="#b69a76" fill-rule="evenodd" stroke="none"/>
      <path d="M6.45 57.65 L8.1 56.75 Q13.2 54.1 19.2 52.45 L22.85 51.6 22.55 51.8 Q20.2 53.5 18.5 54.95 L17.1 55.15 Q14.5 55.6 11.1 56.6 10.3 56.8 8.85 57.65 L6.45 57.65 M56.45 42.05 L61.35 37.6 61.55 37.45 Q64.1 40.15 67.1 42.0 L71.4 44.35 Q73.75 45.7 76.3 52.65 L76.3 52.7 72.85 51.2 Q68.3 49.4 64.55 49.0 62.15 48.75 61.05 47.4 L59.7 44.75 Q58.8 42.85 56.45 42.05" fill="#5b3d16" fill-rule="evenodd" stroke="none"/>
      <path d="M36.8 49.15 L38.35 48.9 46.65 47.65 Q49.9 47.15 52.65 45.3 L53.3 46.4 Q55.15 50.7 55.55 51.0 L57.55 52.45 Q53.8 53.0 47.95 54.9 42.85 56.55 40.0 57.2 L42.05 54.0 42.05 51.5 Q39.95 52.0 37.3 49.6 L36.8 49.15 M136.15 18.3 L147.6 16.35 Q156.7 14.15 165.0 9.05 167.25 9.7 170.1 12.75 L172.8 15.5 173.65 17.25 Q177.1 24.45 179.75 25.7 183.7 28.6 179.75 30.5 175.7 30.35 171.55 35.2 167.35 40.0 164.45 41.4 161.55 42.8 154.2 42.8 146.85 42.8 142.6 47.6 138.35 52.35 118.7 54.75 L99.35 55.8 Q98.45 55.6 97.75 54.2 97.0 52.75 92.25 52.95 90.6 54.05 89.3 53.5 86.3 52.3 86.3 49.25 86.3 43.15 97.4 39.0 92.55 44.2 92.55 46.4 92.55 48.1 93.85 49.3 95.35 50.7 98.55 51.5 102.45 52.5 107.85 52.5 L117.9 51.9 123.1 51.3 126.6 50.5 134.0 46.95 Q139.1 44.45 141.65 43.75 L157.75 40.15 Q167.2 37.45 169.0 32.5 L164.45 32.0 150.9 31.5 150.85 31.75 150.35 31.5 150.85 31.5 Q150.7 30.8 141.85 31.45 144.25 28.95 144.25 27.0 144.25 22.75 139.7 20.05 L136.15 18.3 M191.7 27.1 L198.25 28.35 199.85 28.6 Q202.9 31.05 205.75 32.0 L209.75 32.65 212.55 33.35 Q211.1 39.75 205.45 42.8 200.55 45.4 190.9 46.05 L173.2 46.65 161.95 47.95 170.8 42.45 Q174.9 40.2 180.25 39.5 184.95 38.9 188.2 37.7 193.25 35.85 193.25 33.0 193.25 32.0 192.25 29.0 L191.7 27.1 M230.35 47.05 L230.8 47.5 Q231.85 48.85 234.9 50.0 L233.85 50.75 Q231.15 52.5 229.05 52.5 L223.1 52.15 Q220.65 52.25 218.5 53.75 L218.4 53.45 218.3 52.75 Q218.3 50.6 221.5 50.25 223.15 50.05 225.3 50.25 227.3 50.15 228.8 49.2 230.1 48.35 230.35 47.05" fill="#543713" fill-rule="evenodd" stroke="none"/>
      <path d="M249.9 58.15 Q248.7 62.3 248.85 64.55 249.1 67.75 247.0 72.25 244.85 76.95 244.85 78.6 244.85 80.55 246.6 86.7 L248.35 93.35 Q248.35 95.25 246.35 100.7 244.3 106.15 244.3 110.85 244.3 118.0 246.85 123.75 249.35 129.5 249.35 134.9 249.35 140.2 246.35 143.5 243.3 146.75 243.3 151.25 L244.3 168.75 Q244.3 174.65 241.55 177.45 L239.65 179.4 Q238.8 180.65 238.8 182.5 238.8 184.65 241.05 190.7 243.3 196.75 243.3 199.75 L243.05 205.25 243.0 207.25 206.05 210.3 208.05 198.6 Q210.8 182.65 210.8 180.25 L208.75 155.65 208.5 152.05 204.6 151.85 197.35 151.25 182.0 150.25 117.2 152.25 Q52.55 154.55 52.55 155.75 L38.15 155.65 17.65 154.55 17.75 152.75 18.4 139.45 24.2 140.25 29.5 140.65 38.7 139.65 49.0 138.65 73.8 139.65 95.45 139.55 113.65 138.65 Q124.45 137.8 134.7 135.5 142.7 133.65 152.75 133.65 L177.5 134.65 Q187.25 134.65 195.75 133.15 L204.75 132.65 207.3 132.6 207.25 131.4 207.25 129.95 Q207.3 118.3 208.25 107.9 208.9 100.9 209.15 88.0 L209.2 83.45 179.0 83.75 154.25 83.0 Q146.8 82.1 133.65 83.1 L126.75 83.6 118.4 83.3 Q118.05 83.4 118.05 83.45 L117.95 83.55 108.25 82.85 96.35 82.1 81.65 83.1 61.8 84.1 42.7 84.35 25.25 84.6 12.6 84.2 Q12.4 78.5 11.4 73.1 L9.25 62.7 6.7 58.1 6.45 57.65 8.85 57.65 11.1 57.6 19.5 57.55 27.45 58.55 37.5 59.55 38.6 59.35 47.2 57.3 Q56.4 55.25 61.55 55.1 L62.55 55.05 78.75 58.65 82.6 59.55 83.8 59.8 101.2 63.45 104.3 63.95 110.85 64.55 Q115.05 64.55 121.5 62.55 128.0 60.55 130.65 60.55 132.9 60.55 137.35 61.8 141.8 63.05 145.15 63.05 148.3 63.05 153.25 61.8 158.25 60.55 161.0 60.55 L165.0 61.05 169.0 61.55 Q172.1 61.55 174.35 60.05 176.65 58.55 182.25 58.55 187.0 58.55 190.9 59.55 194.8 60.55 196.75 60.55 199.35 60.55 203.3 59.05 L203.35 59.05 Q204.3 58.65 205.2 58.4 207.8 57.55 209.5 57.55 L216.45 59.55 Q223.1 61.55 225.3 61.55 L229.45 61.3 229.8 61.3 233.15 60.85 234.8 60.55 239.75 59.75 249.9 58.15" fill="url(#gradient0)" fill-rule="evenodd" stroke="none"/>
      <path d="M206.05 210.3 L201.45 210.65 Q203.8 202.75 205.0 197.45 207.25 187.25 207.25 178.0 207.25 174.85 206.1 168.5 204.85 161.7 204.75 159.25 L204.6 155.2 195.1 154.2 168.75 152.25 132.85 154.25 98.1 156.25 Q80.3 156.25 25.5 157.75 L17.55 157.6 17.65 154.55 38.15 155.65 52.55 155.75 Q52.55 154.55 117.2 152.25 L182.0 150.25 197.35 151.25 204.6 151.85 208.5 152.05 208.75 155.65 210.8 180.25 Q210.8 182.65 208.05 198.6 L206.05 210.3 M18.4 139.45 L18.5 136.65 18.5 135.55 20.3 136.15 Q23.2 137.15 25.75 137.15 L34.35 136.4 46.25 135.65 65.55 136.65 88.15 136.4 110.35 136.15 Q115.65 136.15 129.95 133.15 L144.65 130.15 180.0 132.15 Q190.15 132.15 204.75 130.25 L204.85 117.0 206.6 87.7 189.75 86.1 182.25 86.85 174.25 87.6 156.45 86.4 140.15 85.6 Q134.35 85.9 120.5 85.3 L99.85 84.6 83.25 85.6 69.05 86.6 37.35 86.7 12.65 85.85 12.6 84.2 25.25 84.6 42.7 84.35 61.8 84.1 81.65 83.1 96.35 82.1 108.25 82.85 117.95 83.55 118.05 83.45 Q118.05 83.4 118.4 83.3 L126.75 83.6 133.65 83.1 Q146.8 82.1 154.25 83.0 L179.0 83.75 209.2 83.45 209.15 88.0 Q208.9 100.9 208.25 107.9 207.3 118.3 207.25 129.95 L207.25 131.4 207.3 132.6 204.75 132.65 195.75 133.15 Q187.25 134.65 177.5 134.65 L152.75 133.65 Q142.7 133.65 134.7 135.5 124.45 137.8 113.65 138.65 L95.45 139.55 73.8 139.65 49.0 138.65 38.7 139.65 29.5 140.65 24.2 140.25 18.4 139.45 M52.55 155.75 L52.55 155.85 Q52.3 155.95 52.35 156.2 52.55 157.25 52.55 155.85 L53.0 155.75 52.55 155.75" fill="#2e1f09" fill-rule="evenodd" stroke="none"/>
      <path d="M141.85 31.45 Q150.7 30.8 150.85 31.5 L150.35 31.5 150.85 31.75 150.9 31.5 164.45 32.0 169.0 32.5 Q167.2 37.45 157.75 40.15 L141.65 43.75 Q139.1 44.45 134.0 46.95 L126.6 50.5 123.1 51.3 117.9 51.9 107.85 52.5 Q102.45 52.5 98.55 51.5 95.35 50.7 93.85 49.3 92.55 48.1 92.55 46.4 92.55 44.2 97.4 39.0 101.4 37.5 106.85 36.25 122.15 32.75 137.55 32.75 L140.3 32.85 141.85 31.45" fill="#3c260b" fill-rule="evenodd" stroke="none"/>
      <path d="M58.75 53.3 Q54.85 53.65 47.95 55.9 42.25 57.75 39.3 58.3 L40.0 57.2 Q42.85 56.55 47.95 54.9 53.8 53.0 57.55 52.45 L58.75 53.3 M17.1 56.15 Q14.5 56.6 11.1 57.6 L8.85 57.65 Q10.3 56.8 11.1 56.6 14.5 55.6 17.1 55.15 L18.5 54.95 17.1 56.15" fill="#9a7d59" fill-rule="evenodd" stroke="none"/>
      <path d="M18.5 135.55 Q18.15 129.55 14.45 117.5 10.85 105.65 12.0 96.6 12.65 91.15 12.65 85.85 L37.35 86.7 69.05 86.6 83.25 85.6 99.85 84.6 120.5 85.3 Q134.35 85.9 140.15 85.6 L156.45 86.4 174.25 87.6 182.25 86.85 189.75 86.1 206.6 87.7 204.85 117.0 204.75 130.25 Q190.15 132.15 180.0 132.15 L144.65 130.15 129.95 133.15 Q115.65 136.15 110.35 136.15 L88.15 136.4 65.55 136.65 46.25 135.65 34.35 136.4 25.75 137.15 Q23.2 137.15 20.3 136.15 L18.5 135.55" fill="url(#gradient1)" fill-rule="evenodd" stroke="none"/>
      <path d="M201.45 210.65 L151.4 214.25 137.15 213.8 Q123.7 213.8 104.8 214.6 L78.9 215.75 65.55 216.3 Q59.2 216.4 52.2 216.1 45.15 215.75 41.65 216.35 28.05 216.35 19.75 216.5 L18.95 203.7 Q17.0 177.9 17.0 174.0 17.0 168.6 17.55 157.6 L25.5 157.75 Q80.3 156.25 98.1 156.25 L132.85 154.25 168.75 152.25 195.1 154.2 204.6 155.2 204.75 159.25 Q204.85 161.7 206.1 168.5 207.25 174.85 207.25 178.0 207.25 187.25 205.0 197.45 203.8 202.75 201.45 210.65" fill="url(#gradient2)" fill-rule="evenodd" stroke="none"/>
      <path d="M171.15 31.85 L171.25 32.75 Q171.25 37.25 167.0 40.75 163.35 43.75 160.35 43.75 L157.2 43.4 153.65 43.0 Q150.95 43.0 148.05 44.15 L143.6 46.25 Q148.65 42.0 151.25 41.35 L157.9 41.0 Q162.9 40.6 166.95 37.4 169.9 35.05 171.15 31.85 M118.1 53.7 L121.5 53.15 118.1 54.55 113.6 56.3 109.8 56.95 105.5 57.3 Q103.05 57.3 100.35 56.1 96.95 54.65 95.35 54.3 92.35 53.7 91.4 51.25 L89.85 47.15 Q90.85 49.1 95.4 51.95 100.6 55.2 105.9 55.0 L118.1 53.7" fill="#ded0bf" fill-rule="evenodd" stroke="none"/>
    </g>
    <radialGradient cx="0" cy="0" gradientTransform="matrix(0.2891, 0.0, 0.0, 0.1527, 216.35, 69.1)" gradientUnits="userSpaceOnUse" id="gradient0" r="819.2" spreadMethod="pad">
      <stop offset="0.4470588235294118" stop-color="#483417"/>
      <stop offset="1.0" stop-color="#3c2a10"/>
    </radialGradient>
    <radialGradient cx="0" cy="0" gradientTransform="matrix(0.2276, 0.0, 0.0, 0.0304, 12.75, 110.95)" gradientUnits="userSpaceOnUse" id="gradient1" r="819.2" spreadMethod="pad">
      <stop offset="0.5647058823529412" stop-color="#78531f"/>
      <stop offset="1.0" stop-color="#6d4a19"/>
    </radialGradient>
    <radialGradient cx="0" cy="0" gradientTransform="matrix(0.2244, 0.0, 0.0, 0.0317, 17.8, 188.05)" gradientUnits="userSpaceOnUse" id="gradient2" r="819.2" spreadMethod="pad">
      <stop offset="0.5647058823529412" stop-color="#78531f"/>
      <stop offset="1.0" stop-color="#6d4a19"/>
    </radialGradient>
    <g id="sprite0" transform="matrix(1.0, 0.0, 0.0, 1.0, 3.15, -58.7)">
      <use ffdec:characterId="759" height="17.1" transform="matrix(0.4444, 0.0, 0.0, 0.4444, 126.0, 85.95)" width="17.1" xlink:href="#sprite1"/>
      <use ffdec:characterId="759" height="17.1" transform="matrix(0.4444, 0.0, 0.0, 0.4444, 113.8, 75.1)" width="17.1" xlink:href="#sprite1"/>
      <use ffdec:characterId="759" height="17.1" transform="matrix(0.2703, 0.0, 0.0, 0.2703, 134.7, 80.1)" width="17.1" xlink:href="#sprite1"/>
      <use ffdec:characterId="759" height="17.1" transform="matrix(0.5614, 0.0, 0.0, 0.5614, 143.2, 88.35)" width="17.1" xlink:href="#sprite1"/>
      <use ffdec:characterId="759" height="17.1" transform="matrix(0.2677, 0.0, 0.0, 0.2677, 137.9, 98.1)" width="17.1" xlink:href="#sprite1"/>
      <use ffdec:characterId="759" height="17.1" transform="matrix(0.2677, 0.0, 0.0, 0.2677, 117.85, 96.1)" width="17.1" xlink:href="#sprite1"/>
      <use ffdec:characterId="759" height="17.1" transform="matrix(0.2677, 0.0, 0.0, 0.2677, 145.15, 78.1)" width="17.1" xlink:href="#sprite1"/>
      <use ffdec:characterId="759" height="17.1" transform="matrix(0.2002, 0.0, 0.0, 0.2002, 127.85, 74.9)" width="17.1" xlink:href="#sprite1"/>
      <use ffdec:characterId="759" height="17.1" transform="matrix(0.2002, 0.0, 0.0, 0.2002, 157.75, 84.55)" width="17.1" xlink:href="#sprite1"/>
      <use ffdec:characterId="759" height="17.1" transform="matrix(0.2002, 0.0, 0.0, 0.2002, 146.95, 105.5)" width="17.1" xlink:href="#sprite1"/>
      <use ffdec:characterId="759" height="17.1" transform="matrix(0.4444, 0.0, 0.0, 0.4444, 175.45, 69.75)" width="17.1" xlink:href="#sprite1"/>
      <use ffdec:characterId="759" height="17.1" transform="matrix(0.4444, 0.0, 0.0, 0.4444, 146.75, 67.15)" width="17.1" xlink:href="#sprite1"/>
      <use ffdec:characterId="759" height="17.1" transform="matrix(0.2703, 0.0, 0.0, 0.2703, 184.15, 63.9)" width="17.1" xlink:href="#sprite1"/>
      <use ffdec:characterId="759" height="17.1" transform="matrix(0.5614, 0.0, 0.0, 0.5614, 192.65, 72.15)" width="17.1" xlink:href="#sprite1"/>
      <use ffdec:characterId="759" height="17.1" transform="matrix(0.2677, 0.0, 0.0, 0.2677, 187.35, 81.9)" width="17.1" xlink:href="#sprite1"/>
      <use ffdec:characterId="759" height="17.1" transform="matrix(0.2677, 0.0, 0.0, 0.2677, 167.3, 79.9)" width="17.1" xlink:href="#sprite1"/>
      <use ffdec:characterId="759" height="17.1" transform="matrix(0.2677, 0.0, 0.0, 0.2677, 194.6, 61.9)" width="17.1" xlink:href="#sprite1"/>
      <use ffdec:characterId="759" height="17.1" transform="matrix(0.2002, 0.0, 0.0, 0.2002, 177.3, 58.7)" width="17.1" xlink:href="#sprite1"/>
      <use ffdec:characterId="759" height="17.1" transform="matrix(0.2002, 0.0, 0.0, 0.2002, 174.2, 89.65)" width="17.1" xlink:href="#sprite1"/>
      <use ffdec:characterId="759" height="17.1" transform="matrix(0.2002, 0.0, 0.0, 0.2002, 196.4, 89.3)" width="17.1" xlink:href="#sprite1"/>
      <use ffdec:characterId="759" height="17.1" transform="matrix(0.4444, 0.0, 0.0, 0.4444, 50.5, 96.8)" width="17.1" xlink:href="#sprite1"/>
      <use ffdec:characterId="759" height="17.1" transform="matrix(0.4444, 0.0, 0.0, 0.4444, 38.3, 85.95)" width="17.1" xlink:href="#sprite1"/>
      <use ffdec:characterId="759" height="17.1" transform="matrix(0.2703, 0.0, 0.0, 0.2703, 59.2, 90.95)" width="17.1" xlink:href="#sprite1"/>
      <use ffdec:characterId="759" height="17.1" transform="matrix(0.5614, 0.0, 0.0, 0.5614, 67.7, 99.2)" width="17.1" xlink:href="#sprite1"/>
      <use ffdec:characterId="759" height="17.1" transform="matrix(0.2677, 0.0, 0.0, 0.2677, 62.4, 108.95)" width="17.1" xlink:href="#sprite1"/>
      <use ffdec:characterId="759" height="17.1" transform="matrix(0.2677, 0.0, 0.0, 0.2677, 42.35, 106.95)" width="17.1" xlink:href="#sprite1"/>
      <use ffdec:characterId="759" height="17.1" transform="matrix(0.2677, 0.0, 0.0, 0.2677, 69.65, 88.95)" width="17.1" xlink:href="#sprite1"/>
      <use ffdec:characterId="759" height="17.1" transform="matrix(0.2002, 0.0, 0.0, 0.2002, 52.35, 85.75)" width="17.1" xlink:href="#sprite1"/>
      <use ffdec:characterId="759" height="17.1" transform="matrix(0.2002, 0.0, 0.0, 0.2002, 82.25, 95.4)" width="17.1" xlink:href="#sprite1"/>
      <use ffdec:characterId="759" height="17.1" transform="matrix(0.2002, 0.0, 0.0, 0.2002, 71.45, 116.35)" width="17.1" xlink:href="#sprite1"/>
      <use ffdec:characterId="759" height="17.1" transform="matrix(0.4444, 0.0, 0.0, 0.4444, 68.3, 64.5)" width="17.1" xlink:href="#sprite1"/>
      <use ffdec:characterId="759" height="17.1" transform="matrix(0.4444, 0.0, 0.0, 0.4444, 34.05, 64.9)" width="17.1" xlink:href="#sprite1"/>
      <use ffdec:characterId="759" height="17.1" transform="matrix(0.2703, 0.0, 0.0, 0.2703, 123.1, 139.75)" width="17.1" xlink:href="#sprite1"/>
      <use ffdec:characterId="759" height="17.1" transform="matrix(0.5614, 0.0, 0.0, 0.5614, 85.5, 66.9)" width="17.1" xlink:href="#sprite1"/>
      <use ffdec:characterId="759" height="17.1" transform="matrix(0.2677, 0.0, 0.0, 0.2677, 80.2, 76.65)" width="17.1" xlink:href="#sprite1"/>
      <use ffdec:characterId="759" height="17.1" transform="matrix(0.2677, 0.0, 0.0, 0.2677, 60.15, 74.65)" width="17.1" xlink:href="#sprite1"/>
      <use ffdec:characterId="759" height="17.1" transform="matrix(0.2677, 0.0, 0.0, 0.2677, 133.55, 137.75)" width="17.1" xlink:href="#sprite1"/>
      <use ffdec:characterId="759" height="17.1" transform="matrix(0.2002, 0.0, 0.0, 0.2002, 116.25, 134.55)" width="17.1" xlink:href="#sprite1"/>
      <use ffdec:characterId="759" height="17.1" transform="matrix(0.2002, 0.0, 0.0, 0.2002, 100.05, 63.1)" width="17.1" xlink:href="#sprite1"/>
      <use ffdec:characterId="759" height="17.1" transform="matrix(0.2002, 0.0, 0.0, 0.2002, 89.25, 84.05)" width="17.1" xlink:href="#sprite1"/>
      <use ffdec:characterId="759" height="17.1" transform="matrix(0.4444, 0.0, 0.0, 0.4444, 183.75, 110.35)" width="17.1" xlink:href="#sprite1"/>
      <use ffdec:characterId="759" height="17.1" transform="matrix(0.4444, 0.0, 0.0, 0.4444, 171.55, 99.5)" width="17.1" xlink:href="#sprite1"/>
      <use ffdec:characterId="759" height="17.1" transform="matrix(0.2703, 0.0, 0.0, 0.2703, 192.45, 104.5)" width="17.1" xlink:href="#sprite1"/>
      <use ffdec:characterId="759" height="17.1" transform="matrix(0.5614, 0.0, 0.0, 0.5614, 181.45, 184.9)" width="17.1" xlink:href="#sprite1"/>
      <use ffdec:characterId="759" height="17.1" transform="matrix(0.2677, 0.0, 0.0, 0.2677, 195.65, 122.5)" width="17.1" xlink:href="#sprite1"/>
      <use ffdec:characterId="759" height="17.1" transform="matrix(0.2677, 0.0, 0.0, 0.2677, 175.6, 120.5)" width="17.1" xlink:href="#sprite1"/>
      <use ffdec:characterId="759" height="17.1" transform="matrix(0.2677, 0.0, 0.0, 0.2677, 176.4, 170.1)" width="17.1" xlink:href="#sprite1"/>
      <use ffdec:characterId="759" height="17.1" transform="matrix(0.2002, 0.0, 0.0, 0.2002, 185.6, 99.3)" width="17.1" xlink:href="#sprite1"/>
      <use ffdec:characterId="759" height="17.1" transform="matrix(0.2002, 0.0, 0.0, 0.2002, 189.0, 176.55)" width="17.1" xlink:href="#sprite1"/>
      <use ffdec:characterId="759" height="17.1" transform="matrix(0.2002, 0.0, 0.0, 0.2002, 167.4, 174.95)" width="17.1" xlink:href="#sprite1"/>
      <use ffdec:characterId="759" height="17.1" transform="matrix(0.4444, 0.0, 0.0, 0.4444, 15.5, 115.1)" width="17.1" xlink:href="#sprite1"/>
      <use ffdec:characterId="759" height="17.1" transform="matrix(0.2703, 0.0, 0.0, 0.2703, 24.2, 109.25)" width="17.1" xlink:href="#sprite1"/>
      <use ffdec:characterId="759" height="17.1" transform="matrix(0.5614, 0.0, 0.0, 0.5614, 2.15, 81.45)" width="17.1" xlink:href="#sprite1"/>
      <use ffdec:characterId="759" height="17.1" transform="matrix(0.2677, 0.0, 0.0, 0.2677, -3.15, 91.2)" width="17.1" xlink:href="#sprite1"/>
      <use ffdec:characterId="759" height="17.1" transform="matrix(0.2677, 0.0, 0.0, 0.2677, 4.1, 71.2)" width="17.1" xlink:href="#sprite1"/>
      <use ffdec:characterId="759" height="17.1" transform="matrix(0.2002, 0.0, 0.0, 0.2002, 17.35, 104.05)" width="17.1" xlink:href="#sprite1"/>
      <use ffdec:characterId="759" height="17.1" transform="matrix(0.2002, 0.0, 0.0, 0.2002, 16.7, 77.65)" width="17.1" xlink:href="#sprite1"/>
      <use ffdec:characterId="759" height="17.1" transform="matrix(0.2002, 0.0, 0.0, 0.2002, 5.9, 98.6)" width="17.1" xlink:href="#sprite1"/>
      <use ffdec:characterId="759" height="17.1" transform="matrix(0.4444, 0.0, 0.0, 0.4444, 126.9, 167.9)" width="17.1" xlink:href="#sprite1"/>
      <use ffdec:characterId="759" height="17.1" transform="matrix(0.4444, 0.0, 0.0, 0.4444, 114.7, 157.05)" width="17.1" xlink:href="#sprite1"/>
      <use ffdec:characterId="759" height="17.1" transform="matrix(0.2703, 0.0, 0.0, 0.2703, 135.6, 162.05)" width="17.1" xlink:href="#sprite1"/>
      <use ffdec:characterId="759" height="17.1" transform="matrix(0.5614, 0.0, 0.0, 0.5614, 144.1, 170.3)" width="17.1" xlink:href="#sprite1"/>
      <use ffdec:characterId="759" height="17.1" transform="matrix(0.2677, 0.0, 0.0, 0.2677, 138.8, 180.05)" width="17.1" xlink:href="#sprite1"/>
      <use ffdec:characterId="759" height="17.1" transform="matrix(0.2677, 0.0, 0.0, 0.2677, 118.75, 178.05)" width="17.1" xlink:href="#sprite1"/>
      <use ffdec:characterId="759" height="17.1" transform="matrix(0.2677, 0.0, 0.0, 0.2677, 146.05, 160.05)" width="17.1" xlink:href="#sprite1"/>
      <use ffdec:characterId="759" height="17.1" transform="matrix(0.2002, 0.0, 0.0, 0.2002, 128.75, 156.85)" width="17.1" xlink:href="#sprite1"/>
      <use ffdec:characterId="759" height="17.1" transform="matrix(0.2002, 0.0, 0.0, 0.2002, 158.65, 166.5)" width="17.1" xlink:href="#sprite1"/>
      <use ffdec:characterId="759" height="17.1" transform="matrix(0.2002, 0.0, 0.0, 0.2002, 147.85, 187.45)" width="17.1" xlink:href="#sprite1"/>
      <use ffdec:characterId="759" height="17.1" transform="matrix(0.4444, 0.0, 0.0, 0.4444, 42.5, 163.65)" width="17.1" xlink:href="#sprite1"/>
      <use ffdec:characterId="759" height="17.1" transform="matrix(0.4444, 0.0, 0.0, 0.4444, 30.3, 152.8)" width="17.1" xlink:href="#sprite1"/>
      <use ffdec:characterId="759" height="17.1" transform="matrix(0.2703, 0.0, 0.0, 0.2703, 51.2, 157.8)" width="17.1" xlink:href="#sprite1"/>
      <use ffdec:characterId="759" height="17.1" transform="matrix(0.5614, 0.0, 0.0, 0.5614, 59.7, 166.05)" width="17.1" xlink:href="#sprite1"/>
      <use ffdec:characterId="759" height="17.1" transform="matrix(0.2677, 0.0, 0.0, 0.2677, 54.4, 175.8)" width="17.1" xlink:href="#sprite1"/>
      <use ffdec:characterId="759" height="17.1" transform="matrix(0.2677, 0.0, 0.0, 0.2677, 34.35, 173.8)" width="17.1" xlink:href="#sprite1"/>
      <use ffdec:characterId="759" height="17.1" transform="matrix(0.2677, 0.0, 0.0, 0.2677, 61.65, 155.8)" width="17.1" xlink:href="#sprite1"/>
      <use ffdec:characterId="759" height="17.1" transform="matrix(0.2002, 0.0, 0.0, 0.2002, 44.35, 152.6)" width="17.1" xlink:href="#sprite1"/>
      <use ffdec:characterId="759" height="17.1" transform="matrix(0.2002, 0.0, 0.0, 0.2002, 74.25, 162.25)" width="17.1" xlink:href="#sprite1"/>
      <use ffdec:characterId="759" height="17.1" transform="matrix(0.2002, 0.0, 0.0, 0.2002, 63.45, 183.2)" width="17.1" xlink:href="#sprite1"/>
      <use ffdec:characterId="759" height="17.1" transform="matrix(0.4444, 0.0, 0.0, 0.4444, 80.8, 143.6)" width="17.1" xlink:href="#sprite1"/>
      <use ffdec:characterId="759" height="17.1" transform="matrix(0.4444, 0.0, 0.0, 0.4444, 68.6, 132.75)" width="17.1" xlink:href="#sprite1"/>
      <use ffdec:characterId="759" height="17.1" transform="matrix(0.2703, 0.0, 0.0, 0.2703, 89.5, 137.75)" width="17.1" xlink:href="#sprite1"/>
      <use ffdec:characterId="759" height="17.1" transform="matrix(0.5614, 0.0, 0.0, 0.5614, 98.0, 146.0)" width="17.1" xlink:href="#sprite1"/>
      <use ffdec:characterId="759" height="17.1" transform="matrix(0.2677, 0.0, 0.0, 0.2677, 92.7, 155.75)" width="17.1" xlink:href="#sprite1"/>
      <use ffdec:characterId="759" height="17.1" transform="matrix(0.2677, 0.0, 0.0, 0.2677, 72.65, 153.75)" width="17.1" xlink:href="#sprite1"/>
      <use ffdec:characterId="759" height="17.1" transform="matrix(0.2677, 0.0, 0.0, 0.2677, 99.95, 135.75)" width="17.1" xlink:href="#sprite1"/>
      <use ffdec:characterId="759" height="17.1" transform="matrix(0.2002, 0.0, 0.0, 0.2002, 82.65, 132.55)" width="17.1" xlink:href="#sprite1"/>
      <use ffdec:characterId="759" height="17.1" transform="matrix(0.2002, 0.0, 0.0, 0.2002, 112.55, 142.2)" width="17.1" xlink:href="#sprite1"/>
      <use ffdec:characterId="759" height="17.1" transform="matrix(0.2002, 0.0, 0.0, 0.2002, 101.75, 163.15)" width="17.1" xlink:href="#sprite1"/>
      <use ffdec:characterId="759" height="17.1" transform="matrix(0.4444, 0.0, 0.0, 0.4444, 176.45, 145.1)" width="17.1" xlink:href="#sprite1"/>
      <use ffdec:characterId="759" height="17.1" transform="matrix(0.4444, 0.0, 0.0, 0.4444, 164.25, 134.25)" width="17.1" xlink:href="#sprite1"/>
      <use ffdec:characterId="759" height="17.1" transform="matrix(0.2703, 0.0, 0.0, 0.2703, 185.15, 139.25)" width="17.1" xlink:href="#sprite1"/>
      <use ffdec:characterId="759" height="17.1" transform="matrix(0.5614, 0.0, 0.0, 0.5614, 193.65, 147.5)" width="17.1" xlink:href="#sprite1"/>
      <use ffdec:characterId="759" height="17.1" transform="matrix(0.2677, 0.0, 0.0, 0.2677, 188.35, 157.25)" width="17.1" xlink:href="#sprite1"/>
      <use ffdec:characterId="759" height="17.1" transform="matrix(0.2677, 0.0, 0.0, 0.2677, 168.3, 155.25)" width="17.1" xlink:href="#sprite1"/>
      <use ffdec:characterId="759" height="17.1" transform="matrix(0.2677, 0.0, 0.0, 0.2677, 195.6, 137.25)" width="17.1" xlink:href="#sprite1"/>
      <use ffdec:characterId="759" height="17.1" transform="matrix(0.2002, 0.0, 0.0, 0.2002, 178.3, 134.05)" width="17.1" xlink:href="#sprite1"/>
      <use ffdec:characterId="759" height="17.1" transform="matrix(0.2002, 0.0, 0.0, 0.2002, 170.9, 188.75)" width="17.1" xlink:href="#sprite1"/>
      <use ffdec:characterId="759" height="17.1" transform="matrix(0.2002, 0.0, 0.0, 0.2002, 197.4, 164.65)" width="17.1" xlink:href="#sprite1"/>
      <use ffdec:characterId="759" height="17.1" transform="matrix(0.4444, 0.0, 0.0, 0.4444, 14.45, 191.15)" width="17.1" xlink:href="#sprite1"/>
      <use ffdec:characterId="759" height="17.1" transform="matrix(0.4444, 0.0, 0.0, 0.4444, 3.0, 177.8)" width="17.1" xlink:href="#sprite1"/>
      <use ffdec:characterId="759" height="17.1" transform="matrix(0.2703, 0.0, 0.0, 0.2703, 23.15, 185.3)" width="17.1" xlink:href="#sprite1"/>
      <use ffdec:characterId="759" height="17.1" transform="matrix(0.5614, 0.0, 0.0, 0.5614, 31.65, 193.55)" width="17.1" xlink:href="#sprite1"/>
      <use ffdec:characterId="759" height="17.1" transform="matrix(0.2677, 0.0, 0.0, 0.2677, 23.35, 169.25)" width="17.1" xlink:href="#sprite1"/>
      <use ffdec:characterId="759" height="17.1" transform="matrix(0.2677, 0.0, 0.0, 0.2677, 8.8, 163.0)" width="17.1" xlink:href="#sprite1"/>
      <use ffdec:characterId="759" height="17.1" transform="matrix(0.2677, 0.0, 0.0, 0.2677, 33.6, 183.3)" width="17.1" xlink:href="#sprite1"/>
      <use ffdec:characterId="759" height="17.1" transform="matrix(0.2002, 0.0, 0.0, 0.2002, 16.3, 180.1)" width="17.1" xlink:href="#sprite1"/>
      <use ffdec:characterId="759" height="17.1" transform="matrix(0.2002, 0.0, 0.0, 0.2002, 46.2, 189.75)" width="17.1" xlink:href="#sprite1"/>
      <use ffdec:characterId="759" height="17.1" transform="matrix(0.4444, 0.0, 0.0, 0.4444, 97.35, 193.2)" width="17.1" xlink:href="#sprite1"/>
      <use ffdec:characterId="759" height="17.1" transform="matrix(0.4444, 0.0, 0.0, 0.4444, 85.15, 182.35)" width="17.1" xlink:href="#sprite1"/>
      <use ffdec:characterId="759" height="17.1" transform="matrix(0.2703, 0.0, 0.0, 0.2703, 106.05, 187.35)" width="17.1" xlink:href="#sprite1"/>
      <use ffdec:characterId="759" height="17.1" transform="matrix(0.2677, 0.0, 0.0, 0.2677, 95.95, 169.05)" width="17.1" xlink:href="#sprite1"/>
      <use ffdec:characterId="759" height="17.1" transform="matrix(0.2677, 0.0, 0.0, 0.2677, 70.2, 189.85)" width="17.1" xlink:href="#sprite1"/>
      <use ffdec:characterId="759" height="17.1" transform="matrix(0.2677, 0.0, 0.0, 0.2677, 116.5, 185.35)" width="17.1" xlink:href="#sprite1"/>
      <use ffdec:characterId="759" height="17.1" transform="matrix(0.2002, 0.0, 0.0, 0.2002, 99.2, 182.15)" width="17.1" xlink:href="#sprite1"/>
      <use ffdec:characterId="759" height="17.1" transform="matrix(0.2002, 0.0, 0.0, 0.2002, 129.1, 191.8)" width="17.1" xlink:href="#sprite1"/>
      <use ffdec:characterId="759" height="17.1" transform="matrix(0.2002, 0.0, 0.0, 0.2002, 105.0, 176.45)" width="17.1" xlink:href="#sprite1"/>
      <use ffdec:characterId="759" height="17.1" transform="matrix(0.2703, 0.0, 0.0, 0.2703, 146.25, 133.9)" width="17.1" xlink:href="#sprite1"/>
      <use ffdec:characterId="759" height="17.1" transform="matrix(0.2677, 0.0, 0.0, 0.2677, 156.45, 140.9)" width="17.1" xlink:href="#sprite1"/>
      <use ffdec:characterId="759" height="17.1" transform="matrix(0.2703, 0.0, 0.0, 0.2703, 143.5, 152.15)" width="17.1" xlink:href="#sprite1"/>
      <use ffdec:characterId="759" height="17.1" transform="matrix(0.2086, 0.0, 0.0, 0.2086, 154.45, 150.65)" width="17.1" xlink:href="#sprite1"/>
      <use ffdec:characterId="759" height="17.1" transform="matrix(0.2002, 0.0, 0.0, 0.2002, 138.15, 143.7)" width="17.1" xlink:href="#sprite1"/>
      <use ffdec:characterId="759" height="17.1" transform="matrix(0.2703, 0.0, 0.0, 0.2703, 94.9, 95.35)" width="17.1" xlink:href="#sprite1"/>
      <use ffdec:characterId="759" height="17.1" transform="matrix(0.2677, 0.0, 0.0, 0.2677, 105.1, 102.35)" width="17.1" xlink:href="#sprite1"/>
      <use ffdec:characterId="759" height="17.1" transform="matrix(0.2703, 0.0, 0.0, 0.2703, 92.15, 113.6)" width="17.1" xlink:href="#sprite1"/>
      <use ffdec:characterId="759" height="17.1" transform="matrix(0.2086, 0.0, 0.0, 0.2086, 103.1, 112.1)" width="17.1" xlink:href="#sprite1"/>
      <use ffdec:characterId="759" height="17.1" transform="matrix(0.2002, 0.0, 0.0, 0.2002, 86.8, 105.15)" width="17.1" xlink:href="#sprite1"/>
      <use ffdec:characterId="759" height="17.1" transform="matrix(0.2703, 0.0, 0.0, 0.2703, 107.7, 67.8)" width="17.1" xlink:href="#sprite1"/>
      <use ffdec:characterId="759" height="17.1" transform="matrix(0.2677, 0.0, 0.0, 0.2677, 121.4, 68.55)" width="17.1" xlink:href="#sprite1"/>
      <use ffdec:characterId="759" height="17.1" transform="matrix(0.2703, 0.0, 0.0, 0.2703, 104.95, 86.05)" width="17.1" xlink:href="#sprite1"/>
      <use ffdec:characterId="759" height="17.1" transform="matrix(0.2086, 0.0, 0.0, 0.2086, 115.9, 84.55)" width="17.1" xlink:href="#sprite1"/>
      <use ffdec:characterId="759" height="17.1" transform="matrix(0.2002, 0.0, 0.0, 0.2002, 99.6, 77.6)" width="17.1" xlink:href="#sprite1"/>
      <use ffdec:characterId="759" height="17.1" transform="matrix(0.2703, 0.0, 0.0, 0.2703, 124.95, 105.35)" width="17.1" xlink:href="#sprite1"/>
      <use ffdec:characterId="759" height="17.1" transform="matrix(0.2677, 0.0, 0.0, 0.2677, 35.0, 138.4)" width="17.1" xlink:href="#sprite1"/>
      <use ffdec:characterId="759" height="17.1" transform="matrix(0.2703, 0.0, 0.0, 0.2703, 50.6, 141.35)" width="17.1" xlink:href="#sprite1"/>
      <use ffdec:characterId="759" height="17.1" transform="matrix(0.2086, 0.0, 0.0, 0.2086, 157.2, 110.05)" width="17.1" xlink:href="#sprite1"/>
      <use ffdec:characterId="759" height="17.1" transform="matrix(0.2002, 0.0, 0.0, 0.2002, 116.85, 115.15)" width="17.1" xlink:href="#sprite1"/>
      <use ffdec:characterId="759" height="17.1" transform="matrix(0.2703, 0.0, 0.0, 0.2703, 35.9, 80.55)" width="17.1" xlink:href="#sprite1"/>
      <use ffdec:characterId="759" height="17.1" transform="matrix(0.2677, 0.0, 0.0, 0.2677, 20.05, 138.4)" width="17.1" xlink:href="#sprite1"/>
      <use ffdec:characterId="759" height="17.1" transform="matrix(0.2703, 0.0, 0.0, 0.2703, 7.1, 149.65)" width="17.1" xlink:href="#sprite1"/>
      <use ffdec:characterId="759" height="17.1" transform="matrix(0.2086, 0.0, 0.0, 0.2086, 18.05, 148.15)" width="17.1" xlink:href="#sprite1"/>
      <use ffdec:characterId="759" height="17.1" transform="matrix(0.2002, 0.0, 0.0, 0.2002, 21.8, 88.65)" width="17.1" xlink:href="#sprite1"/>
    </g>
    <g id="sprite1" transform="matrix(1.0, 0.0, 0.0, 1.0, 0.0, 0.0)">
      <use ffdec:characterId="758" height="17.1" transform="matrix(1.0, 0.0, 0.0, 1.0, 0.0, 0.0)" width="17.1" xlink:href="#shape2"/>
    </g>
    <g id="shape2" transform="matrix(1.0, 0.0, 0.0, 1.0, 0.0, 0.0)">
      <path d="M0.15 9.55 L0.1 9.85 0.05 9.3 0.0 8.55 Q0.0 7.5 0.25 6.55 0.75 4.25 2.5 2.5 5.0 0.0 8.55 0.0 12.1 0.0 14.6 2.5 16.35 4.25 16.9 6.55 L17.1 8.55 17.1 9.35 16.95 10.4 16.85 9.85 16.3 8.25 Q15.65 6.8 14.5 5.65 12.0 3.15 8.45 3.15 4.9 3.15 2.4 5.65 1.3 6.75 0.7 8.0 L0.15 9.55" fill="#231c0d" fill-opacity="0.44705883" fill-rule="evenodd" stroke="none"/>
      <path d="M16.85 9.85 L15.15 11.85 Q12.4 14.35 8.55 14.35 4.7 14.35 2.0 11.85 0.8 10.8 0.15 9.55 L0.7 8.0 Q1.3 6.75 2.4 5.65 4.9 3.15 8.45 3.15 12.0 3.15 14.5 5.65 15.65 6.8 16.3 8.25 L16.85 9.85" fill="#4a3811" fill-opacity="0.44705883" fill-rule="evenodd" stroke="none"/>
      <path d="M0.15 9.55 Q0.8 10.8 2.0 11.85 4.7 14.35 8.55 14.35 12.4 14.35 15.15 11.85 L16.85 9.85 16.95 10.4 Q16.4 12.8 14.6 14.6 12.1 17.1 8.55 17.1 5.0 17.1 2.5 14.6 0.45 12.55 0.1 9.85 L0.15 9.55" fill="#e0caad" fill-opacity="0.44705883" fill-rule="evenodd" stroke="none"/>
    </g>
    <g id="shape3" transform="matrix(1.0, 0.0, 0.0, 1.0, -37.7, 17.25)">
      <path d="M121.3 48.7 L120.05 49.2 Q115.1 51.0 109.1 51.0 99.3 51.0 93.05 46.0 86.05 40.35 86.05 30.0 86.05 21.25 92.2 11.9 96.2 5.8 105.0 -1.0 L111.25 5.2 Q101.6 12.15 98.6 19.8 95.55 27.4 95.55 31.9 95.55 38.85 99.55 41.5 102.3 43.3 107.75 43.3 115.8 43.3 119.85 39.5 123.6 36.0 123.6 29.65 123.6 25.0 119.1 25.0 117.3 25.0 115.05 26.35 L114.35 25.35 111.2 20.7 113.65 19.4 Q118.5 17.0 120.6 17.0 L121.3 17.05 121.6 17.05 Q123.9 17.15 125.95 17.95 128.2 18.8 130.1 20.5 131.4 21.7 132.3 23.15 134.15 26.15 134.15 30.25 134.15 39.05 128.0 44.5 L126.1 46.0 Q123.85 47.6 121.3 48.7" fill="#f4f2d2" fill-rule="evenodd" stroke="none"/>
      <path d="M158.55 -12.45 Q145.85 -0.3 141.35 3.7 136.8 7.65 135.6 16.2 L121.6 17.05 121.3 17.05 120.6 17.0 Q118.5 17.0 113.65 19.4 L111.2 20.7 114.35 25.35 115.05 26.35 Q117.3 25.0 119.1 25.0 123.6 25.0 123.6 29.65 123.6 36.0 119.85 39.5 115.8 43.3 107.75 43.3 102.3 43.3 99.55 41.5 95.55 38.85 95.55 31.9 95.55 27.4 98.6 19.8 101.6 12.15 111.25 5.2 131.45 -1.0 141.45 -4.8 150.3 -8.15 158.55 -12.45" fill="url(#gradient3)" fill-rule="evenodd" stroke="none"/>
      <path d="M105.0 -1.0 Q111.95 -2.05 119.45 -4.6 125.0 -6.45 133.35 -9.75 143.55 -13.2 149.0 -15.45 L153.1 -17.25 Q155.2 -14.6 158.55 -12.45 150.3 -8.15 141.45 -4.8 131.45 -1.0 111.25 5.2 L105.0 -1.0 M163.5 7.85 Q167.4 7.85 168.9 10.85 169.7 12.55 170.2 14.65 164.2 17.05 155.6 19.15 143.35 22.15 132.3 23.15 131.4 21.7 130.1 20.5 128.2 18.8 125.95 17.95 L135.6 16.95 146.15 15.45 Q152.85 13.85 163.5 7.85" fill="#fdfefc" fill-rule="evenodd" stroke="none"/>
      <path d="M135.6 16.2 Q140.2 15.45 144.45 14.1 154.95 10.7 161.0 8.05 L163.5 7.85 Q152.85 13.85 146.15 15.45 L135.6 16.95 125.95 17.95 Q123.9 17.15 121.6 17.05 L135.6 16.2" fill="#f0eccc" fill-rule="evenodd" stroke="none"/>
      <path d="M170.2 14.65 Q170.75 17.25 170.75 20.4 170.75 26.05 169.45 29.25 L168.95 30.35 164.15 32.5 156.35 34.45 149.15 36.0 Q145.7 37.05 138.6 40.1 L128.0 44.5 Q134.15 39.05 134.15 30.25 134.15 26.15 132.3 23.15 143.35 22.15 155.6 19.15 164.2 17.05 170.2 14.65" fill="url(#gradient4)" fill-rule="evenodd" stroke="none"/>
      <path d="M168.95 30.35 Q167.7 32.7 165.8 33.75 163.45 35.0 158.0 36.9 141.95 40.6 121.3 48.7 123.85 47.6 126.1 46.0 L128.0 44.5 138.6 40.1 Q145.7 37.05 149.15 36.0 L156.35 34.45 164.15 32.5 168.95 30.35" fill="#c1b185" fill-rule="evenodd" stroke="none"/>
      <path d="M70.8 214.6 L73.25 213.65 74.8 215.2 74.0 215.8 Q73.3 216.4 72.0 216.45 70.7 216.45 70.8 214.6 M46.05 212.25 L47.3 211.95 51.05 211.2 Q53.55 213.25 55.0 217.05 L51.15 217.25 Q47.45 217.25 46.7 216.05 46.25 215.45 46.05 212.25" fill="#78531f" fill-rule="evenodd" stroke="none"/>
      <path d="M74.8 215.2 L75.7 216.5 74.75 216.7 71.55 217.0 69.0 216.95 67.95 216.8 Q69.2 215.45 70.65 214.65 L70.8 214.6 Q70.7 216.45 72.0 216.45 73.3 216.4 74.0 215.8 L74.8 215.2 M55.0 217.05 L55.1 217.4 55.55 218.75 53.35 219.15 50.65 219.5 44.45 218.7 40.7 218.0 Q41.85 214.45 43.75 213.2 44.6 212.65 46.05 212.25 46.25 215.45 46.7 216.05 47.45 217.25 51.15 217.25 L55.0 217.05" fill="#6d4916" fill-rule="evenodd" stroke="none"/>
      <path d="M66.9 213.95 Q67.55 213.4 73.25 210.7 75.55 211.5 76.3 212.95 77.05 214.4 77.9 214.75 78.7 215.05 78.65 217.0 78.45 218.45 77.05 219.15 L77.0 219.15 69.55 219.5 66.3 218.9 63.85 218.3 Q65.1 215.7 66.9 213.95 M70.8 214.6 L70.65 214.65 Q69.2 215.45 67.95 216.8 L69.0 216.95 71.55 217.0 74.75 216.7 75.7 216.5 74.8 215.2 73.25 213.65 70.8 214.6 M41.85 221.4 L39.9 220.9 Q38.75 220.45 37.7 219.65 38.45 216.5 41.05 212.65 43.65 208.7 48.75 208.4 53.85 208.05 54.95 211.8 L56.35 216.8 57.2 220.8 56.15 221.2 53.35 221.85 47.2 222.05 41.85 221.4 M46.05 212.25 Q44.6 212.65 43.75 213.2 41.85 214.45 40.7 218.0 L44.45 218.7 50.65 219.5 53.35 219.15 55.55 218.75 55.1 217.4 55.0 217.05 Q53.55 213.25 51.05 211.2 L47.3 211.95 46.05 212.25" fill="#54360c" fill-rule="evenodd" stroke="none"/>
    </g>
    <linearGradient gradientTransform="matrix(0.0059, 0.022, -0.0329, 0.0088, 124.85, 18.25)" gradientUnits="userSpaceOnUse" id="gradient3" spreadMethod="pad" x1="-819.2" x2="819.2">
      <stop offset="0.3607843137254902" stop-color="#d3d0a1"/>
      <stop offset="1.0" stop-color="#bfad82"/>
    </linearGradient>
    <linearGradient gradientTransform="matrix(0.0022, 0.0082, -0.0176, 0.0047, 149.35, 25.55)" gradientUnits="userSpaceOnUse" id="gradient4" spreadMethod="pad" x1="-819.2" x2="819.2">
      <stop offset="0.3568627450980392" stop-color="#f6f4e0"/>
      <stop offset="1.0" stop-color="#d3d0a1"/>
    </linearGradient>
  </defs>
</svg>
