<?xml version="1.0" encoding="UTF-8" standalone="no"?>
<svg xmlns:ffdec="https://www.free-decompiler.com/flash" xmlns:xlink="http://www.w3.org/1999/xlink" ffdec:objectType="frame" height="35.15px" width="35.1px" xmlns="http://www.w3.org/2000/svg">
  <g transform="matrix(1.0, 0.0, 0.0, 1.0, 3.5, 3.55)">
    <use ffdec:characterId="1616" height="33.1" transform="matrix(1.0605, 0.0, 0.0, 1.0605, -3.506, -3.5262)" width="33.1" xlink:href="#sprite0"/>
    <use ffdec:characterId="1638" height="17.7" transform="matrix(1.108, 0.0, 0.0, 1.1073, 5.8481, 3.3367)" width="14.35" xlink:href="#shape1"/>
  </g>
  <defs>
    <g id="sprite0" transform="matrix(1.0, 0.0, 0.0, 1.0, 0.1, -193.0)">
      <use ffdec:characterId="1615" height="33.1" transform="matrix(1.0, 0.0, 0.0, 1.0, -0.1, 193.0)" width="33.1" xlink:href="#shape0"/>
    </g>
    <g id="shape0" transform="matrix(1.0, 0.0, 0.0, 1.0, 0.1, -193.0)">
      <path d="M16.55 195.5 Q20.6 195.5 23.85 197.5 25.25 198.4 26.45 199.65 30.5 203.8 30.5 209.45 30.5 215.3 26.45 219.45 22.3 223.6 16.55 223.6 14.0 223.6 11.75 222.8 8.95 221.75 6.65 219.45 3.6 216.45 2.7 212.5 2.4 211.0 2.4 209.45 2.4 208.0 2.7 206.55 3.45 203.15 5.85 200.5 L6.65 199.65 Q10.25 195.85 15.45 195.5 L16.55 195.5" fill="#faecff" fill-rule="evenodd" stroke="none"/>
      <path d="M16.55 195.5 Q20.6 195.5 23.85 197.5 25.25 198.4 26.45 199.65 30.5 203.8 30.5 209.45 30.5 215.3 26.45 219.45 22.3 223.6 16.55 223.6 14.0 223.6 11.75 222.8 8.95 221.75 6.65 219.45 3.6 216.45 2.7 212.5 2.4 211.0 2.4 209.45 2.4 208.0 2.7 206.55 3.45 203.15 5.85 200.5 L6.65 199.65 Q10.25 195.85 15.45 195.5 L16.55 195.5 Z" fill="none" stroke="#4d0362" stroke-linecap="round" stroke-linejoin="round" stroke-width="5.0"/>
      <path d="M23.85 197.5 Q25.25 198.4 26.45 199.65 30.5 203.8 30.5 209.45 30.5 215.3 26.45 219.45 22.3 223.6 16.55 223.6 14.0 223.6 11.75 222.8 8.95 221.75 6.65 219.45 3.6 216.45 2.7 212.5 2.4 211.0 2.4 209.45 2.4 208.0 2.7 206.55 3.45 203.15 5.85 200.5 L6.65 199.65 Q10.25 195.85 15.45 195.5 L16.55 195.5 Q20.6 195.5 23.85 197.5" fill="#f2defa" fill-rule="evenodd" stroke="none"/>
      <path d="M23.85 197.5 Q25.25 198.4 26.45 199.65 30.5 203.8 30.5 209.45 30.5 215.3 26.45 219.45 22.3 223.6 16.55 223.6 14.0 223.6 11.75 222.8 8.95 221.75 6.65 219.45 3.6 216.45 2.7 212.5 2.4 211.0 2.4 209.45 2.4 208.0 2.7 206.55 3.45 203.15 5.85 200.5 L6.65 199.65 Q10.25 195.85 15.45 195.5 L16.55 195.5 Q20.6 195.5 23.85 197.5 Z" fill="none" stroke="#bb46db" stroke-linecap="round" stroke-linejoin="round" stroke-width="3.0"/>
      <path d="M27.6 203.6 Q29.25 206.55 29.05 210.2 28.75 215.4 24.85 218.9 20.95 222.35 15.75 222.1 10.6 221.8 7.1 217.9 6.05 216.7 5.35 215.35 9.9 220.1 14.25 220.35 19.6 220.65 23.7 217.0 27.85 213.4 28.15 207.9 L27.6 203.6" fill="#000000" fill-opacity="0.2" fill-rule="evenodd" stroke="none"/>
      <path d="M25.4 200.8 L27.15 203.3 Q22.6 198.7 18.35 198.55 13.1 198.35 9.15 202.0 5.1 205.55 4.9 210.95 4.85 212.1 5.55 215.15 3.9 212.3 4.05 208.7 4.2 203.6 8.0 200.15 11.7 196.7 16.8 196.85 21.9 197.1 25.4 200.8" fill="#ffffff" fill-opacity="0.98039216" fill-rule="evenodd" stroke="none"/>
      <path d="M9.65 196.7 Q10.0 197.0 10.0 197.45 L9.75 198.3 Q9.45 198.65 9.0 198.65 8.5 198.7 8.15 198.4 7.8 198.1 7.8 197.65 7.75 197.15 8.05 196.8 8.35 196.45 8.8 196.45 9.3 196.4 9.65 196.7 M7.4 199.05 L7.55 199.45 7.45 199.9 7.05 200.05 6.6 199.95 6.45 199.55 6.55 199.1 6.95 198.95 7.4 199.05" fill="#ffffff" fill-rule="evenodd" stroke="none"/>
    </g>
    <g id="shape1" transform="matrix(1.0, 0.0, 0.0, 1.0, -6.0, -5.0)">
      <path d="M13.4 14.9 L12.55 15.05 Q12.2 15.25 11.8 15.5 12.0 17.2 12.35 17.9 12.8 18.6 13.45 18.6 14.1 18.6 14.4 18.1 L14.7 16.65 14.4 15.35 Q14.05 14.9 13.4 14.9 M13.35 9.05 Q12.6 9.0 12.25 9.9 11.85 10.8 11.75 13.0 12.5 12.35 13.5 11.9 L15.6 11.5 Q18.1 11.5 19.25 12.85 20.4 14.15 20.35 16.45 20.35 18.65 19.4 20.05 18.45 21.4 16.85 22.1 L13.3 22.7 Q9.65 22.7 7.85 20.5 6.0 18.25 6.0 14.0 6.0 11.35 6.8 9.3 7.55 7.25 9.2 6.15 10.9 5.0 13.45 5.0 15.7 5.0 17.15 5.8 18.6 6.5 19.3 7.8 20.0 9.1 20.0 10.75 L15.8 10.75 14.35 10.8 14.05 9.45 Q13.8 9.05 13.35 9.05" fill="#8f24ad" fill-rule="evenodd" stroke="none"/>
    </g>
  </defs>
</svg>
