<?xml version="1.0" encoding="UTF-8" standalone="no"?>
<svg xmlns:ffdec="https://www.free-decompiler.com/flash" xmlns:xlink="http://www.w3.org/1999/xlink" ffdec:objectType="frame" height="244.85px" width="419.3px" xmlns="http://www.w3.org/2000/svg">
  <g transform="matrix(1.0, 0.0, 0.0, 1.0, 21.5, 27.7)">
    <use ffdec:characterId="1668" height="228.7" transform="matrix(1.0, 0.0, 0.0, 1.0, -10.6, -11.55)" width="408.4" xlink:href="#shape0"/>
    <use ffdec:characterId="1669" height="35.85" transform="matrix(0.8343, 0.3343, -0.3343, 0.8343, -9.5128, -27.7242)" width="33.85" xlink:href="#sprite0"/>
    <use ffdec:characterId="1669" height="35.85" transform="matrix(0.5501, -0.6467, 0.6467, 0.5501, 332.9815, 6.72)" width="33.85" xlink:href="#sprite0"/>
  </g>
  <defs>
    <g id="shape0" transform="matrix(1.0, 0.0, 0.0, 1.0, 10.6, 11.55)">
      <path d="M5.3 -1.05 Q-0.7 -1.05 -0.7 3.65 L-0.7 191.4 Q-0.1 209.65 18.5 209.65 L371.3 209.65 Q390.3 209.65 390.3 190.65 L390.3 29.75 Q390.3 10.75 371.3 10.75 L130.7 10.75 125.55 3.65 Q122.15 -1.05 116.2 -1.05 L5.3 -1.05 Z" fill="none" stroke="#000000" stroke-linecap="round" stroke-linejoin="round" stroke-opacity="0.21960784" stroke-width="15.0"/>
      <path d="M2.9 -4.05 L113.8 -4.05 Q119.75 -4.05 123.15 0.65 L128.3 7.75 368.9 7.75 Q387.9 7.75 387.9 26.75 L387.9 187.65 Q387.9 206.65 368.9 206.65 L16.1 206.65 Q-2.9 206.65 -2.9 187.65 L-3.1 0.65 Q-3.1 -4.05 2.9 -4.05" fill="#cad2d2" fill-rule="evenodd" stroke="none"/>
      <path d="M2.9 -4.05 Q-3.1 -4.05 -3.1 0.65 L-2.9 187.65 Q-2.9 206.65 16.1 206.65 L368.9 206.65 Q387.9 206.65 387.9 187.65 L387.9 26.75 Q387.9 7.75 368.9 7.75 L128.3 7.75 123.15 0.65 Q119.75 -4.05 113.8 -4.05 L2.9 -4.05 Z" fill="none" stroke="#e95811" stroke-linecap="round" stroke-linejoin="round" stroke-width="15.0"/>
      <path d="M2.9 -4.05 L113.8 -4.05 Q119.75 -4.05 123.15 0.65 L128.3 7.75 368.9 7.75 Q387.9 7.75 387.9 26.75 L387.9 187.65 Q387.9 206.65 368.9 206.65 L16.1 206.65 Q-2.9 206.65 -2.9 187.65 L-2.9 56.45 -3.1 54.0 -3.1 0.65 Q-3.1 -4.05 2.9 -4.05" fill="#f5f5f5" fill-rule="evenodd" stroke="none"/>
      <path d="M2.9 -4.05 L113.8 -4.05 Q119.75 -4.05 123.15 0.65 L128.3 7.75 368.9 7.75 Q387.9 7.75 387.9 26.75 L387.9 187.65 Q387.9 206.65 368.9 206.65 L16.1 206.65 Q-2.9 206.65 -2.9 187.65 L-3.1 0.65 Q-3.1 -4.05 2.9 -4.05" fill="url(#gradient0)" fill-rule="evenodd" stroke="none"/>
      <path d="M114.45 -7.65 L-0.55 -7.8 Q-6.6 -7.8 -6.6 -2.95 L-6.4 190.45 Q-6.45 210.05 12.85 210.15 L371.2 210.85 Q380.55 210.85 386.05 204.0 391.2 197.55 391.25 187.3 L390.6 23.8 Q390.55 4.05 371.15 4.05 L129.1 4.55 123.95 -2.8 Q120.5 -7.65 114.45 -7.65 Z" fill="none" stroke="#ffffff" stroke-linecap="round" stroke-linejoin="round" stroke-opacity="0.3019608" stroke-width="2.0"/>
      <path d="M2.9 -4.05 Q-3.1 -4.05 -3.1 0.65 L-2.9 187.65 Q-2.9 206.65 16.1 206.65 L368.9 206.65 Q387.9 206.65 387.9 187.65 L387.9 26.75 Q387.9 7.75 368.9 7.75 L128.3 7.75 123.15 0.65 Q119.75 -4.05 113.8 -4.05 L2.9 -4.05 Z" fill="none" stroke="#b83d01" stroke-linecap="round" stroke-linejoin="round" stroke-width="3.0"/>
    </g>
    <linearGradient gradientTransform="matrix(1.0E-4, -0.238, 0.1286, 0.0, 193.3, 103.0)" gradientUnits="userSpaceOnUse" id="gradient0" spreadMethod="pad" x1="-819.2" x2="819.2">
      <stop offset="0.0" stop-color="#adeaff"/>
      <stop offset="0.4196078431372549" stop-color="#ffffff"/>
      <stop offset="0.7019607843137254" stop-color="#ffffff"/>
      <stop offset="1.0" stop-color="#80dfff"/>
    </linearGradient>
    <g id="sprite0" transform="matrix(1.0, 0.0, 0.0, 1.0, 15.2, 19.65)">
      <use ffdec:characterId="62" height="9.3" transform="matrix(1.0, 0.0, 0.0, 1.0, -3.0, -6.35)" width="9.3" xlink:href="#shape1"/>
      <use ffdec:characterId="63" height="33.55" transform="matrix(0.4248, 0.7364, -0.5688, 0.0125, 3.9, -14.65)" width="34.75" xlink:href="#shape2"/>
      <use ffdec:characterId="63" height="33.55" transform="matrix(-0.6951, 0.4858, -0.0639, -0.5655, 14.55, -0.7)" width="34.75" xlink:href="#shape2"/>
    </g>
    <g id="shape1" transform="matrix(1.0, 0.0, 0.0, 1.0, 3.0, 6.35)">
      <path d="M5.0 -4.95 Q6.3 -3.6 6.3 -1.7 6.3 0.25 5.0 1.6 3.55 2.95 1.65 2.95 -0.3 2.95 -1.65 1.6 -3.0 0.25 -3.0 -1.7 -3.0 -3.6 -1.65 -4.95 -0.3 -6.35 1.65 -6.35 3.55 -6.35 5.0 -4.95" fill="url(#gradient1)" fill-rule="evenodd" stroke="none"/>
    </g>
    <radialGradient cx="0" cy="0" gradientTransform="matrix(0.0074, 0.0, 0.0, 0.0074, 1.65, -1.7)" gradientUnits="userSpaceOnUse" id="gradient1" r="819.2" spreadMethod="pad">
      <stop offset="0.5098039215686274" stop-color="#ffffff" stop-opacity="0.6"/>
      <stop offset="0.6705882352941176" stop-color="#ffffff" stop-opacity="0.0"/>
    </radialGradient>
    <g id="shape2" transform="matrix(1.0, 0.0, 0.0, 1.0, 0.0, 0.0)">
      <path d="M11.1 25.65 Q-2.0 35.85 0.35 32.85 15.65 11.45 34.75 0.0 24.6 15.1 11.1 25.65" fill="url(#gradient2)" fill-rule="evenodd" stroke="none"/>
    </g>
    <linearGradient gradientTransform="matrix(0.0212, 0.0, 0.0, 0.0205, 17.35, 16.75)" gradientUnits="userSpaceOnUse" id="gradient2" spreadMethod="pad" x1="-819.2" x2="819.2">
      <stop offset="0.0" stop-color="#ffffff" stop-opacity="0.0"/>
      <stop offset="0.47843137254901963" stop-color="#ffffff"/>
      <stop offset="0.996078431372549" stop-color="#ffffff" stop-opacity="0.0"/>
    </linearGradient>
  </defs>
</svg>
