<?xml version="1.0" encoding="UTF-8" standalone="no"?>
<svg xmlns:ffdec="https://www.free-decompiler.com/flash" xmlns:xlink="http://www.w3.org/1999/xlink" ffdec:objectType="frame" height="166.5px" width="554.4px" xmlns="http://www.w3.org/2000/svg">
  <g transform="matrix(1.0, 0.0, 0.0, 1.0, -0.6, 1.35)">
    <use ffdec:characterId="2370" height="118.75" transform="matrix(1.0, 0.0, 0.0, 1.0, 0.6, -1.35)" width="284.95" xlink:href="#shape0"/>
    <use ffdec:characterId="2373" height="14.1" id="scrollBottom_btn" transform="matrix(1.0, 0.0, 0.0, 1.0, 251.5, 98.95)" width="22.2" xlink:href="#button0"/>
    <use ffdec:characterId="2373" height="14.1" id="scrollTop_btn" transform="matrix(1.0, 0.0, 0.0, -1.0, 251.5, 43.55)" width="22.2" xlink:href="#button0"/>
    <use ffdec:characterId="1431" ffdec:characterName="fl.controls.UIScrollBar" height="223.0" id="scrollBar" transform="matrix(1.0, 0.0, 0.0, 0.5393, 255.0, 44.9)" width="300.0" xlink:href="#sprite0"/>
    <use ffdec:characterId="2374" height="104.0" id="chatLog_txt" transform="matrix(1.0, 0.0, 0.0, 1.0, 8.0, 7.0)" width="240.0" xlink:href="#text0"/>
    <use ffdec:characterId="2279" height="25.0" id="close_btn" transform="matrix(1.0, 0.0, 0.0, 1.0, 254.55, 2.2)" width="25.0" xlink:href="#button1"/>
  </g>
  <defs>
    <g id="shape0" transform="matrix(1.0, 0.0, 0.0, 1.0, -0.6, 1.35)">
      <path d="M24.9 0.4 L31.05 0.4 31.05 1.55 23.5 1.55 24.9 0.4" fill="url(#gradient0)" fill-rule="evenodd" stroke="none"/>
      <path d="M225.55 -0.1 L245.85 -0.35 245.85 1.45 268.35 0.5 268.35 1.45 243.45 2.65 243.45 0.85 225.55 0.9 225.55 -0.1" fill="url(#gradient1)" fill-rule="evenodd" stroke="none"/>
      <path d="M268.35 0.5 L281.75 -0.35 281.75 7.95 280.35 7.95 280.2 0.85 268.35 1.45 268.35 0.5" fill="url(#gradient2)" fill-rule="evenodd" stroke="none"/>
      <path d="M283.1 92.7 L283.7 100.65 282.0 100.65 281.45 92.7 283.1 92.7 M278.2 116.25 L268.35 116.25 268.35 114.6 282.4 114.4 282.45 114.5 282.75 116.15 278.2 116.15 278.2 116.25" fill="url(#gradient3)" fill-rule="evenodd" stroke="none"/>
      <path d="M66.95 115.7 L31.05 116.25 31.05 115.5 66.95 115.7" fill="url(#gradient4)" fill-rule="evenodd" stroke="none"/>
      <path d="M268.35 116.25 L222.55 115.0 Q215.05 109.3 268.35 114.6 L268.35 116.25" fill="url(#gradient5)" fill-rule="evenodd" stroke="none"/>
      <path d="M2.7 105.8 L3.4 105.95 2.7 105.85 2.7 105.8" fill="url(#gradient6)" fill-rule="evenodd" stroke="none"/>
      <path d="M31.05 116.25 L18.35 116.25 18.35 115.45 31.05 115.5 31.05 116.25" fill="url(#gradient7)" fill-rule="evenodd" stroke="none"/>
      <path d="M11.9 115.45 L11.85 115.45 11.45 115.2 11.35 115.15 10.4 114.65 Q7.8 113.1 5.3 111.15 3.8 109.9 2.7 107.95 L2.7 105.85 3.4 105.95 8.0 106.5 8.05 106.5 Q10.1 106.5 13.25 105.3 12.8 111.95 13.45 113.75 L14.15 115.45 11.9 115.45 Q11.75 115.35 11.45 115.2 11.75 115.35 11.9 115.45 M2.15 9.35 L22.0 1.55 23.5 1.55 8.4 13.9 2.15 9.35" fill="url(#gradient8)" fill-rule="evenodd" stroke="none"/>
      <path d="M281.0 32.2 L280.7 32.25 280.7 32.2 281.0 32.2 M280.8 38.5 L281.75 38.65 282.5 38.75 282.5 38.8 281.75 39.0 280.8 39.3 280.8 38.5 M282.55 43.95 L283.1 92.7 281.45 92.7 280.95 49.2 282.15 49.2 282.55 43.95 M281.75 38.65 L281.75 39.0 281.75 38.65" fill="url(#gradient9)" fill-rule="evenodd" stroke="none"/>
      <path d="M281.75 7.95 L282.35 29.2 280.65 29.2 280.7 30.45 280.2 30.45 280.2 32.2 280.7 32.2 280.7 32.25 Q278.6 32.5 276.9 33.1 L276.85 33.1 276.8 33.2 276.3 33.35 276.0 33.45 275.85 33.55 Q274.1 34.4 274.1 35.35 L274.3 36.15 274.9 36.7 278.85 38.1 279.15 38.15 280.8 38.5 280.8 39.3 279.85 39.7 279.15 40.0 278.5 40.3 278.05 40.6 Q277.1 41.35 277.1 42.1 277.1 42.45 277.4 42.8 278.25 43.55 280.85 44.05 L282.45 43.75 282.55 43.95 282.15 49.2 280.95 49.2 281.45 92.7 282.0 100.65 281.75 100.65 284.3 115.15 284.5 116.15 282.75 116.15 282.45 114.5 282.4 114.4 268.35 114.6 Q215.05 109.3 222.55 115.0 L66.95 115.7 31.05 115.5 18.35 115.45 17.8 115.45 15.4 115.45 14.15 115.45 13.45 113.75 Q12.8 111.95 13.25 105.3 10.1 106.5 8.05 106.5 L8.0 106.5 3.4 105.95 2.7 105.8 2.7 105.0 1.95 105.0 1.95 103.15 1.85 103.15 1.85 90.2 1.85 88.2 3.25 87.9 4.25 87.6 5.0 87.25 6.3 86.1 6.6 85.2 Q6.6 84.15 4.5 82.45 L3.1 81.25 2.75 80.95 2.6 80.8 2.35 80.6 2.3 80.45 5.3 79.3 7.0 78.4 8.3 77.3 8.65 76.75 8.75 76.3 8.75 76.25 8.7 76.1 8.65 76.0 8.65 75.95 8.25 75.4 3.85 73.95 2.5 73.8 1.85 73.7 2.15 9.35 8.4 13.9 23.5 1.55 31.05 1.55 31.05 0.4 225.55 -0.1 225.55 0.9 243.45 0.85 243.45 2.65 268.35 1.45 280.2 0.85 280.35 7.95 281.75 7.95 M22.0 1.55 L21.65 1.55 24.9 0.4 22.0 1.55 M280.65 29.2 L280.35 7.95 280.65 29.2 M278.45 39.55 L277.25 39.3 Q272.45 38.2 272.45 36.5 272.45 36.0 273.0 35.5 272.45 36.0 272.45 36.5 272.45 38.2 277.25 39.3 L278.45 39.55 M282.15 49.2 L280.2 45.35 Q275.5 44.75 275.5 43.25 275.5 42.8 275.9 42.35 275.5 42.8 275.5 43.25 275.5 44.75 280.2 45.35 L282.15 49.2 M281.1 101.9 L279.85 99.8 282.4 114.4 279.85 99.8 281.1 101.9 M225.55 0.9 L31.05 1.55 225.55 0.9 M4.35 81.45 Q6.2 80.45 8.0 78.4 8.35 78.0 8.3 77.3 8.35 78.0 8.0 78.4 6.2 80.45 4.35 81.45 M5.15 88.35 Q4.7 89.2 3.05 89.85 L1.85 90.2 3.05 89.85 Q4.7 89.2 5.15 88.35" fill="url(#gradient10)" fill-rule="evenodd" stroke="none"/>
      <path d="M2.35 80.6 L2.25 80.45 2.3 80.45 2.35 80.6" fill="url(#gradient11)" fill-rule="evenodd" stroke="none"/>
      <path d="M4.25 87.6 L4.95 87.25 5.0 87.25 4.25 87.6" fill="url(#gradient12)" fill-rule="evenodd" stroke="none"/>
      <path d="M280.7 30.45 L281.75 30.45 281.75 32.15 281.45 32.15 281.4 32.15 281.2 32.2 281.0 32.2 280.7 32.2 280.2 32.2 280.2 30.45 280.7 30.45 M274.3 36.15 L274.35 36.15 274.9 36.7 274.3 36.15" fill="url(#gradient13)" fill-rule="evenodd" stroke="none"/>
      <path d="M282.45 43.75 L282.55 43.7 282.55 43.95 282.45 43.75 M282.55 43.95 L282.55 43.7 282.55 43.95" fill="url(#gradient14)" fill-rule="evenodd" stroke="none"/>
      <path d="M225.55 -0.1 L245.85 -0.35 245.85 1.45 268.35 0.5 281.75 -0.35 281.75 7.95 282.35 29.2 M281.75 30.45 L281.75 32.15 281.45 32.15 281.4 32.15 281.2 32.2 281.0 32.2 280.7 32.25 Q278.6 32.5 276.9 33.1 M276.85 33.1 L276.8 33.2 276.3 33.35 276.0 33.45 M275.85 33.55 Q274.1 34.4 274.1 35.35 L274.3 36.15 274.9 36.7 278.85 38.1 279.15 38.15 280.8 38.5 281.75 38.65 282.5 38.75 282.7 38.75 282.5 38.8 281.75 39.0 280.8 39.3 279.85 39.7 279.15 40.0 278.5 40.3 278.05 40.6 Q277.1 41.35 277.1 42.1 277.1 42.45 277.4 42.8 278.25 43.55 280.85 44.05 L282.45 43.75 282.55 43.7 282.55 43.95 283.1 92.7 283.7 100.65 282.0 100.65 281.75 100.65 284.3 115.15 284.55 116.25 278.2 116.25 268.35 116.25 M66.95 115.7 L31.05 116.25 18.35 116.25 14.55 116.25 14.25 116.25 Q13.4 116.2 11.9 115.45 11.75 115.35 11.45 115.2 L11.35 115.15 10.4 114.65 Q7.8 113.1 5.3 111.15 3.8 109.9 2.7 107.95 L2.35 107.2 2.05 106.2 1.85 105.7 1.85 103.15 1.85 90.2 1.85 88.2 3.25 87.9 4.25 87.6 5.0 87.25 6.3 86.1 6.6 85.2 Q6.6 84.15 4.5 82.45 L3.1 81.25 2.75 80.95 2.6 80.8 2.35 80.6 2.25 80.45 2.3 80.45 5.3 79.3 7.0 78.4 8.3 77.3 8.65 76.75 8.75 76.3 8.75 76.25 8.7 76.1 8.65 76.0 8.65 75.95 8.25 75.4 3.85 73.95 2.5 73.8 1.85 73.7 2.15 9.35 8.4 13.9 23.5 1.55 24.9 0.4 31.05 0.4 225.55 -0.1 M282.5 38.75 L282.5 38.8 M281.75 39.0 L281.75 38.65 M282.15 49.2 L282.55 43.95 282.55 43.7 M2.7 105.8 L3.4 105.95 8.0 106.5 8.05 106.5 Q10.1 106.5 13.25 105.3 12.8 111.95 13.45 113.75 L14.15 115.45 14.55 116.25 M1.85 105.7 L2.7 105.8" fill="none" stroke="#d58611" stroke-linecap="round" stroke-linejoin="round" stroke-width="2.0"/>
      <path d="M280.65 29.2 L280.7 30.45 M222.55 115.0 L66.95 115.7 31.05 115.5 18.35 115.45 M2.15 9.35 L22.0 1.55 21.65 1.55 24.9 0.4 22.0 1.55 23.5 1.55 31.05 1.55 225.55 0.9 243.45 0.85 243.45 2.65 268.35 1.45 280.2 0.85 280.35 7.95 280.65 29.2 M280.7 32.2 L280.7 32.25 M280.2 32.2 L280.2 30.45 M273.0 35.5 Q272.45 36.0 272.45 36.5 272.45 38.2 277.25 39.3 L278.45 39.55 M280.8 38.5 L280.8 39.3 M275.9 42.35 Q275.5 42.8 275.5 43.25 275.5 44.75 280.2 45.35 L282.15 49.2 M281.45 92.7 L280.95 49.2 M282.4 114.4 L279.85 99.8 281.1 101.9 M282.4 114.4 L282.45 114.5 282.75 116.15 M282.4 114.4 L268.35 114.6 Q215.05 109.3 222.55 115.0 M282.0 100.65 L281.45 92.7 M8.3 77.3 Q8.35 78.0 8.0 78.4 6.2 80.45 4.35 81.45 M1.85 90.2 L3.05 89.85 Q4.7 89.2 5.15 88.35 M15.4 115.45 L17.8 115.45" fill="none" stroke="#ffffff" stroke-linecap="round" stroke-linejoin="round" stroke-opacity="0.5019608" stroke-width="2.5"/>
    </g>
    <radialGradient cx="0" cy="0" gradientTransform="matrix(-0.2233, 0.0, 0.0, -0.1019, 36.55, 38.8)" gradientUnits="userSpaceOnUse" id="gradient0" r="819.2" spreadMethod="pad">
      <stop offset="0.0" stop-color="#fbe6c8"/>
      <stop offset="0.44313725490196076" stop-color="#f4c279"/>
      <stop offset="0.615686274509804" stop-color="#ed9b23"/>
      <stop offset="0.8470588235294118" stop-color="#ed9b23"/>
    </radialGradient>
    <radialGradient cx="0" cy="0" gradientTransform="matrix(-0.2233, 0.0, 0.0, -0.1019, 188.05, 38.8)" gradientUnits="userSpaceOnUse" id="gradient1" r="819.2" spreadMethod="pad">
      <stop offset="0.0" stop-color="#fbe6c8"/>
      <stop offset="0.44313725490196076" stop-color="#f4c279"/>
      <stop offset="0.615686274509804" stop-color="#ed9b23"/>
      <stop offset="0.8470588235294118" stop-color="#ed9b23"/>
    </radialGradient>
    <radialGradient cx="0" cy="0" gradientTransform="matrix(-0.1501, 0.0, 0.0, -0.1019, 214.35, 38.8)" gradientUnits="userSpaceOnUse" id="gradient2" r="819.2" spreadMethod="pad">
      <stop offset="0.0" stop-color="#fbe6c8"/>
      <stop offset="0.44313725490196076" stop-color="#f4c279"/>
      <stop offset="0.615686274509804" stop-color="#ed9b23"/>
      <stop offset="0.8470588235294118" stop-color="#ed9b23"/>
    </radialGradient>
    <radialGradient cx="0" cy="0" gradientTransform="matrix(-0.1501, 0.0, 0.0, -0.1019, 214.35, 91.8)" gradientUnits="userSpaceOnUse" id="gradient3" r="819.2" spreadMethod="pad">
      <stop offset="0.0" stop-color="#fbe6c8"/>
      <stop offset="0.44313725490196076" stop-color="#f4c279"/>
      <stop offset="0.615686274509804" stop-color="#ed9b23"/>
      <stop offset="0.8470588235294118" stop-color="#ed9b23"/>
    </radialGradient>
    <radialGradient cx="0" cy="0" gradientTransform="matrix(-1.0102, 0.0, 0.0, -0.1019, 55.9, 91.8)" gradientUnits="userSpaceOnUse" id="gradient4" r="819.2" spreadMethod="pad">
      <stop offset="0.0" stop-color="#fbe6c8"/>
      <stop offset="0.44313725490196076" stop-color="#f4c279"/>
      <stop offset="0.615686274509804" stop-color="#ed9b23"/>
      <stop offset="0.8470588235294118" stop-color="#ed9b23"/>
    </radialGradient>
    <radialGradient cx="0" cy="0" gradientTransform="matrix(-0.2233, 0.0, 0.0, -0.1019, 188.05, 91.8)" gradientUnits="userSpaceOnUse" id="gradient5" r="819.2" spreadMethod="pad">
      <stop offset="0.0" stop-color="#fbe6c8"/>
      <stop offset="0.44313725490196076" stop-color="#f4c279"/>
      <stop offset="0.615686274509804" stop-color="#ed9b23"/>
      <stop offset="0.8470588235294118" stop-color="#ed9b23"/>
    </radialGradient>
    <radialGradient cx="0" cy="0" gradientTransform="matrix(-0.1128, 0.0, 0.0, -0.1019, 26.7, 91.8)" gradientUnits="userSpaceOnUse" id="gradient6" r="819.2" spreadMethod="pad">
      <stop offset="0.0" stop-color="#fbe6c8"/>
      <stop offset="0.44313725490196076" stop-color="#f4c279"/>
      <stop offset="0.615686274509804" stop-color="#ed9b23"/>
      <stop offset="0.8470588235294118" stop-color="#ed9b23"/>
    </radialGradient>
    <radialGradient cx="0" cy="0" gradientTransform="matrix(-0.2233, 0.0, 0.0, -0.1019, 36.55, 91.8)" gradientUnits="userSpaceOnUse" id="gradient7" r="819.2" spreadMethod="pad">
      <stop offset="0.0" stop-color="#fbe6c8"/>
      <stop offset="0.44313725490196076" stop-color="#f4c279"/>
      <stop offset="0.615686274509804" stop-color="#ed9b23"/>
      <stop offset="0.8470588235294118" stop-color="#ed9b23"/>
    </radialGradient>
    <radialGradient cx="0" cy="0" gradientTransform="matrix(-0.0035, 0.0061, -0.0096, -0.0056, 11.7, 108.75)" gradientUnits="userSpaceOnUse" id="gradient8" r="819.2" spreadMethod="pad">
      <stop offset="0.5411764705882353" stop-color="#fcedd8"/>
      <stop offset="0.7411764705882353" stop-color="#f7d5a2"/>
    </radialGradient>
    <radialGradient cx="0" cy="0" gradientTransform="matrix(-0.1501, 0.0, 0.0, -0.6163, 214.35, 87.25)" gradientUnits="userSpaceOnUse" id="gradient9" r="819.2" spreadMethod="pad">
      <stop offset="0.0" stop-color="#fbe6c8"/>
      <stop offset="0.44313725490196076" stop-color="#f4c279"/>
      <stop offset="0.615686274509804" stop-color="#ed9b23"/>
      <stop offset="0.8470588235294118" stop-color="#ed9b23"/>
    </radialGradient>
    <radialGradient cx="0" cy="0" gradientTransform="matrix(-0.3492, 0.0, 0.0, -0.1545, 142.45, 55.5)" gradientUnits="userSpaceOnUse" id="gradient10" r="819.2" spreadMethod="pad">
      <stop offset="0.0" stop-color="#fbe6c8"/>
      <stop offset="0.44313725490196076" stop-color="#f4c279"/>
      <stop offset="0.615686274509804" stop-color="#ed9b23"/>
      <stop offset="0.8470588235294118" stop-color="#ed9b23"/>
    </radialGradient>
    <radialGradient cx="0" cy="0" gradientTransform="matrix(-0.3492, 0.0, 0.0, -0.1545, 142.45, 120.5)" gradientUnits="userSpaceOnUse" id="gradient11" r="819.2" spreadMethod="pad">
      <stop offset="0.0" stop-color="#fbe6c8"/>
      <stop offset="0.44313725490196076" stop-color="#f4c279"/>
      <stop offset="0.615686274509804" stop-color="#ed9b23"/>
      <stop offset="0.8470588235294118" stop-color="#ed9b23"/>
    </radialGradient>
    <radialGradient cx="0" cy="0" gradientTransform="matrix(-0.1128, 0.0, 0.0, -0.1019, 26.7, 103.8)" gradientUnits="userSpaceOnUse" id="gradient12" r="819.2" spreadMethod="pad">
      <stop offset="0.0" stop-color="#fbe6c8"/>
      <stop offset="0.44313725490196076" stop-color="#f4c279"/>
      <stop offset="0.615686274509804" stop-color="#ed9b23"/>
      <stop offset="0.8470588235294118" stop-color="#ed9b23"/>
    </radialGradient>
    <radialGradient cx="0" cy="0" gradientTransform="matrix(-0.1501, 0.0, 0.0, -0.1019, 214.35, 61.3)" gradientUnits="userSpaceOnUse" id="gradient13" r="819.2" spreadMethod="pad">
      <stop offset="0.0" stop-color="#fbe6c8"/>
      <stop offset="0.44313725490196076" stop-color="#f4c279"/>
      <stop offset="0.615686274509804" stop-color="#ed9b23"/>
      <stop offset="0.8470588235294118" stop-color="#ed9b23"/>
    </radialGradient>
    <radialGradient cx="0" cy="0" gradientTransform="matrix(-0.3492, 0.0, 0.0, -0.1545, 142.45, 78.0)" gradientUnits="userSpaceOnUse" id="gradient14" r="819.2" spreadMethod="pad">
      <stop offset="0.0" stop-color="#fbe6c8"/>
      <stop offset="0.44313725490196076" stop-color="#f4c279"/>
      <stop offset="0.615686274509804" stop-color="#ed9b23"/>
      <stop offset="0.8470588235294118" stop-color="#ed9b23"/>
    </radialGradient>
    <g id="button0" transform="matrix(1.0, 0.0, 0.0, 1.0, 2.2, 0.9)">
      <use ffdec:characterId="2371" height="12.25" transform="matrix(1.0, 0.0, 0.0, 1.0, -0.5, -0.9)" width="19.0" xlink:href="#shape1"/>
    </g>
    <g id="shape1" transform="matrix(1.0, 0.0, 0.0, 1.0, 0.5, 0.9)">
      <path d="M18.0 -0.4 L9.0 9.8 0.0 -0.4 18.0 -0.4" fill="#0066ff" fill-rule="evenodd" stroke="none"/>
      <path d="M18.0 -0.4 L9.0 9.8 0.0 -0.4 18.0 -0.4" fill="none" stroke="#0000ff" stroke-linecap="round" stroke-linejoin="round" stroke-width="1.0"/>
      <path d="M2.65 10.1 L14.9 10.1" fill="none" stroke="#0000ff" stroke-linecap="round" stroke-linejoin="round" stroke-width="2.5"/>
    </g>
    <g id="sprite0" transform="matrix(1.0, 0.0, 0.0, 1.0, 0.0, 0.0)">
      <use ffdec:characterId="100" height="22.0" transform="matrix(0.1875, 0.0, 0.0, 4.5455, 0.0, 0.0)" width="80.0" xlink:href="#sprite1"/>
    </g>
    <g id="sprite1" transform="matrix(1.0, 0.0, 0.0, 1.0, 0.0, 0.0)">
      <use ffdec:characterId="99" height="22.0" transform="matrix(1.0, 0.0, 0.0, 1.0, 0.0, 0.0)" width="80.0" xlink:href="#shape2"/>
    </g>
    <g id="shape2" transform="matrix(1.0, 0.0, 0.0, 1.0, 0.0, 0.0)">
      <path d="M80.0 22.0 L0.0 22.0 0.0 0.0 80.0 0.0 80.0 22.0" fill="#ffffff" fill-rule="evenodd" stroke="none"/>
      <path d="M80.0 22.0 L0.0 22.0 0.0 0.0 80.0 0.0 80.0 22.0 Z" ffdec:has-small-stroke="true" ffdec:original-stroke-width="0.05" fill="none" stroke="#000000" stroke-linecap="round" stroke-linejoin="round" stroke-width="0.5752376793709473"/>
    </g>
    <g id="text0" transform="matrix(1.0, 0.0, 0.0, 1.0, 2.0, 2.0)">
      <g transform="matrix(1.0, 0.0, 0.0, 1.0, -2.0, -2.0)">
        <use fill="#000000" height="104.0" transform="matrix(0.0137, 0.0, 0.0, 0.0137, 3.9, 14.45)" width="240.0" xlink:href="#font_GosmickSans_-0"/>
        <use fill="#000000" height="104.0" transform="matrix(0.0137, 0.0, 0.0, 0.0137, 9.75, 14.45)" width="240.0" xlink:href="#font_GosmickSans_-0"/>
        <use fill="#000000" height="104.0" transform="matrix(0.0137, 0.0, 0.0, 0.0137, 15.6, 14.45)" width="240.0" xlink:href="#font_GosmickSans_-0"/>
        <use fill="#000000" height="104.0" transform="matrix(0.0137, 0.0, 0.0, 0.0137, 21.45, 14.45)" width="240.0" xlink:href="#font_GosmickSans_-0"/>
        <use fill="#000000" height="104.0" transform="matrix(0.0137, 0.0, 0.0, 0.0137, 27.3, 14.45)" width="240.0" xlink:href="#font_GosmickSans_-0"/>
        <use fill="#000000" height="104.0" transform="matrix(0.0137, 0.0, 0.0, 0.0137, 33.15, 14.45)" width="240.0" xlink:href="#font_GosmickSans_-0"/>
        <use fill="#000000" height="104.0" transform="matrix(0.0137, 0.0, 0.0, 0.0137, 39.0, 14.45)" width="240.0" xlink:href="#font_GosmickSans_-0"/>
        <use fill="#000000" height="104.0" transform="matrix(0.0137, 0.0, 0.0, 0.0137, 44.85, 14.45)" width="240.0" xlink:href="#font_GosmickSans_-0"/>
        <use fill="#000000" height="104.0" transform="matrix(0.0137, 0.0, 0.0, 0.0137, 50.7, 14.45)" width="240.0" xlink:href="#font_GosmickSans_-0"/>
        <use fill="#000000" height="104.0" transform="matrix(0.0137, 0.0, 0.0, 0.0137, 56.55, 14.45)" width="240.0" xlink:href="#font_GosmickSans_-0"/>
        <use fill="#000000" height="104.0" transform="matrix(0.0137, 0.0, 0.0, 0.0137, 62.4, 14.45)" width="240.0" xlink:href="#font_GosmickSans_-0"/>
        <use fill="#000000" height="104.0" transform="matrix(0.0137, 0.0, 0.0, 0.0137, 68.25, 14.45)" width="240.0" xlink:href="#font_GosmickSans_-0"/>
        <use fill="#000000" height="104.0" transform="matrix(0.0137, 0.0, 0.0, 0.0137, 74.1, 14.45)" width="240.0" xlink:href="#font_GosmickSans_-0"/>
      </g>
      <g transform="matrix(1.0, 0.0, 0.0, 1.0, -2.0, -2.0)">
        <use fill="#000000" height="104.0" transform="matrix(0.0137, 0.0, 0.0, 0.0137, 83.85, 14.45)" width="240.0" xlink:href="#font_GosmickSans_C0"/>
        <use fill="#000000" height="104.0" transform="matrix(0.0137, 0.0, 0.0, 0.0137, 92.05, 14.45)" width="240.0" xlink:href="#font_GosmickSans_H0"/>
        <use fill="#000000" height="104.0" transform="matrix(0.0137, 0.0, 0.0, 0.0137, 100.65, 14.45)" width="240.0" xlink:href="#font_GosmickSans_A0"/>
        <use fill="#000000" height="104.0" transform="matrix(0.0137, 0.0, 0.0, 0.0137, 109.5, 14.45)" width="240.0" xlink:href="#font_GosmickSans_T0"/>
      </g>
      <g transform="matrix(1.0, 0.0, 0.0, 1.0, -2.0, -2.0)">
        <use fill="#000000" height="104.0" transform="matrix(0.0137, 0.0, 0.0, 0.0137, 121.9, 14.45)" width="240.0" xlink:href="#font_GosmickSans_L0"/>
        <use fill="#000000" height="104.0" transform="matrix(0.0137, 0.0, 0.0, 0.0137, 128.75, 14.45)" width="240.0" xlink:href="#font_GosmickSans_O0"/>
        <use fill="#000000" height="104.0" transform="matrix(0.0137, 0.0, 0.0, 0.0137, 138.05, 14.45)" width="240.0" xlink:href="#font_GosmickSans_G0"/>
      </g>
      <g transform="matrix(1.0, 0.0, 0.0, 1.0, -2.0, -2.0)">
        <use fill="#000000" height="104.0" transform="matrix(0.0137, 0.0, 0.0, 0.0137, 151.0, 14.45)" width="240.0" xlink:href="#font_GosmickSans_-0"/>
        <use fill="#000000" height="104.0" transform="matrix(0.0137, 0.0, 0.0, 0.0137, 156.85, 14.45)" width="240.0" xlink:href="#font_GosmickSans_-0"/>
        <use fill="#000000" height="104.0" transform="matrix(0.0137, 0.0, 0.0, 0.0137, 162.7, 14.45)" width="240.0" xlink:href="#font_GosmickSans_-0"/>
        <use fill="#000000" height="104.0" transform="matrix(0.0137, 0.0, 0.0, 0.0137, 168.55, 14.45)" width="240.0" xlink:href="#font_GosmickSans_-0"/>
        <use fill="#000000" height="104.0" transform="matrix(0.0137, 0.0, 0.0, 0.0137, 174.4, 14.45)" width="240.0" xlink:href="#font_GosmickSans_-0"/>
        <use fill="#000000" height="104.0" transform="matrix(0.0137, 0.0, 0.0, 0.0137, 180.25, 14.45)" width="240.0" xlink:href="#font_GosmickSans_-0"/>
        <use fill="#000000" height="104.0" transform="matrix(0.0137, 0.0, 0.0, 0.0137, 186.1, 14.45)" width="240.0" xlink:href="#font_GosmickSans_-0"/>
        <use fill="#000000" height="104.0" transform="matrix(0.0137, 0.0, 0.0, 0.0137, 191.95, 14.45)" width="240.0" xlink:href="#font_GosmickSans_-0"/>
        <use fill="#000000" height="104.0" transform="matrix(0.0137, 0.0, 0.0, 0.0137, 197.8, 14.45)" width="240.0" xlink:href="#font_GosmickSans_-0"/>
        <use fill="#000000" height="104.0" transform="matrix(0.0137, 0.0, 0.0, 0.0137, 203.65, 14.45)" width="240.0" xlink:href="#font_GosmickSans_-0"/>
        <use fill="#000000" height="104.0" transform="matrix(0.0137, 0.0, 0.0, 0.0137, 209.5, 14.45)" width="240.0" xlink:href="#font_GosmickSans_-0"/>
        <use fill="#000000" height="104.0" transform="matrix(0.0137, 0.0, 0.0, 0.0137, 215.35, 14.45)" width="240.0" xlink:href="#font_GosmickSans_-0"/>
      </g>
    </g>
    <g id="font_GosmickSans_-0">
      <path d="M400.5 -321.5 Q400.5 -319.5 399.0 -312.0 397.5 -304.0 393.0 -299.0 383.0 -269.5 363.5 -263.0 344.0 -257.0 303.0 -257.0 L265.0 -257.0 Q246.0 -257.0 238.5 -257.5 L226.5 -258.0 216.0 -258.5 Q210.0 -259.0 193.5 -259.0 150.5 -259.0 126.0 -257.5 L79.0 -256.0 76.0 -256.0 Q40.0 -256.0 36.0 -283.5 33.0 -290.0 41.0 -299.0 49.0 -326.5 68.5 -333.0 88.0 -339.0 131.0 -339.0 L137.0 -339.0 149.5 -338.0 179.0 -338.0 Q189.5 -338.0 197.5 -337.5 206.0 -337.0 216.0 -337.0 L251.0 -337.0 290.0 -337.0 Q302.0 -337.0 311.5 -337.5 320.5 -338.0 333.0 -338.0 L376.0 -338.0 Q385.0 -335.0 391.5 -334.0 398.5 -333.0 400.5 -321.5" fill-rule="evenodd" stroke="none"/>
    </g>
    <g id="font_GosmickSans_C0">
      <path d="M572.5 -579.5 Q572.5 -563.0 569.5 -547.5 566.5 -531.5 558.5 -518.5 551.0 -506.0 538.5 -497.5 526.5 -489.5 509.0 -489.5 491.5 -489.5 484.5 -499.5 483.5 -500.5 482.5 -512.0 481.5 -523.5 478.0 -537.5 475.0 -552.0 468.5 -567.0 462.0 -581.5 450.5 -591.0 444.5 -597.0 427.5 -603.0 410.5 -609.5 389.5 -614.5 368.5 -619.5 347.5 -621.5 326.5 -623.5 311.5 -622.5 268.5 -618.5 234.5 -594.0 200.5 -569.5 178.0 -530.0 155.5 -490.5 145.0 -439.0 134.0 -387.0 137.0 -328.5 143.5 -206.0 201.0 -142.5 259.0 -79.0 349.0 -86.0 380.0 -88.0 403.5 -97.5 427.0 -106.5 452.5 -130.0 462.0 -138.0 471.0 -151.5 L490.0 -178.0 Q499.5 -191.5 511.0 -201.5 522.0 -212.0 535.5 -213.0 549.0 -215.0 559.0 -206.5 569.5 -197.5 571.5 -186.5 572.5 -180.0 570.0 -168.5 567.5 -156.5 562.5 -144.5 558.0 -132.0 553.5 -121.0 549.0 -109.5 546.0 -103.5 504.0 -48.0 445.5 -20.0 387.0 8.0 320.5 8.0 261.0 8.0 210.0 -15.0 158.5 -38.0 120.5 -79.5 82.0 -121.0 59.5 -178.0 37.0 -235.5 36.0 -304.0 34.0 -389.0 54.5 -462.5 75.0 -535.5 113.0 -590.0 151.5 -644.0 205.5 -676.5 259.0 -708.5 324.5 -711.5 349.0 -712.5 390.5 -706.5 432.0 -700.5 472.5 -685.0 513.0 -669.5 542.5 -643.5 572.5 -617.5 572.5 -579.5" fill-rule="evenodd" stroke="none"/>
    </g>
    <g id="font_GosmickSans_H0">
      <path d="M602.0 -677.0 Q602.0 -676.0 600.0 -672.5 598.0 -669.0 595.5 -656.5 593.0 -644.5 590.5 -620.0 588.0 -596.0 585.0 -555.5 582.5 -515.5 581.0 -455.5 579.5 -395.5 579.5 -310.5 L579.5 -253.0 Q579.5 -205.0 582.0 -166.0 584.5 -127.0 591.0 -94.5 594.0 -80.0 595.0 -64.5 596.0 -49.5 593.0 -35.5 590.0 -21.5 581.5 -10.0 573.5 2.0 558.0 8.0 558.0 14.0 547.0 11.0 535.5 8.0 525.5 8.0 510.0 8.0 500.5 -6.0 491.5 -19.5 487.0 -52.0 482.5 -84.0 479.5 -137.5 477.0 -190.5 476.0 -269.5 476.0 -282.0 476.5 -294.0 477.0 -306.5 477.0 -317.5 399.5 -316.5 316.0 -318.0 232.5 -319.5 138.0 -309.5 137.0 -289.0 138.0 -261.0 139.5 -232.5 139.5 -214.0 139.5 -177.5 141.5 -140.5 L145.5 -71.0 Q149.5 -53.5 143.0 -38.5 136.0 -23.5 124.5 -12.5 112.5 -1.0 99.5 5.5 86.0 12.5 79.0 12.5 65.5 12.5 56.5 4.0 47.0 -4.5 45.0 -17.5 42.0 -36.0 40.5 -61.5 39.0 -87.0 38.0 -117.0 37.0 -146.5 36.5 -180.0 36.0 -213.0 36.0 -247.0 L36.0 -329.0 Q36.0 -390.5 38.0 -447.5 40.0 -505.0 43.0 -563.5 44.0 -582.0 42.0 -605.5 40.0 -629.0 41.5 -650.5 43.0 -672.0 51.0 -689.0 59.5 -705.5 80.0 -711.0 110.5 -719.0 127.5 -709.5 144.5 -699.5 149.5 -691.5 149.5 -690.5 150.5 -685.5 151.5 -680.0 152.0 -673.5 152.5 -667.0 152.5 -660.5 152.5 -655.5 151.5 -653.5 148.5 -619.5 145.5 -572.0 142.5 -524.5 140.5 -472.5 139.5 -435.0 138.0 -397.5 175.0 -401.5 218.5 -403.5 262.0 -405.5 307.0 -405.5 L396.5 -405.5 480.5 -405.5 Q482.5 -440.5 486.0 -491.0 489.5 -542.0 489.5 -605.5 490.5 -611.5 490.0 -614.5 L487.5 -626.0 Q485.5 -638.0 485.0 -650.5 484.5 -662.5 488.5 -674.0 492.5 -685.0 502.0 -693.5 511.0 -701.5 529.5 -705.5 538.5 -711.0 554.0 -711.5 569.5 -712.0 580.5 -707.0 590.0 -704.5 596.5 -697.5 603.0 -690.5 602.0 -677.0" fill-rule="evenodd" stroke="none"/>
    </g>
    <g id="font_GosmickSans_A0">
      <path d="M435.0 -296.0 Q412.5 -364.5 387.5 -437.0 362.5 -509.0 341.0 -577.5 339.0 -577.5 334.5 -568.0 329.5 -558.0 326.5 -550.0 299.0 -478.5 269.5 -417.0 239.5 -355.5 216.0 -292.0 255.0 -296.0 308.0 -293.5 361.5 -291.0 435.0 -296.0 M628.5 -32.0 Q631.0 -27.0 624.0 -20.0 617.5 -13.5 606.5 -7.5 596.0 -1.0 585.0 3.5 574.5 8.0 569.5 8.0 543.5 8.0 524.5 -35.0 505.0 -78.0 482.5 -145.5 479.0 -154.5 477.0 -165.5 475.0 -176.0 471.5 -186.5 468.0 -196.5 461.5 -203.0 454.5 -209.0 442.5 -209.0 425.0 -209.0 399.0 -210.0 372.5 -211.0 344.5 -211.5 L289.5 -212.5 240.5 -211.0 Q211.0 -208.0 197.0 -204.0 183.5 -199.5 178.0 -194.0 173.0 -188.5 171.0 -181.5 169.0 -174.0 162.0 -165.0 153.5 -143.5 143.0 -113.5 132.0 -83.0 118.5 -56.0 104.5 -29.0 87.5 -10.0 70.5 9.0 51.0 9.0 38.0 9.0 26.5 -1.0 15.5 -11.5 15.5 -29.0 19.5 -44.0 30.0 -68.0 41.0 -91.5 58.5 -135.5 68.5 -172.0 84.0 -208.5 99.5 -245.0 116.5 -288.0 138.0 -337.0 163.0 -400.5 187.5 -464.0 212.5 -523.0 237.5 -581.5 260.5 -628.5 283.5 -675.0 301.0 -690.0 316.5 -704.5 337.0 -714.0 357.5 -723.0 368.5 -723.0 387.0 -723.0 398.5 -711.5 409.5 -700.5 415.5 -684.0 422.0 -667.5 426.0 -648.5 430.0 -629.0 435.0 -613.5 471.0 -502.0 507.5 -391.0 543.5 -279.5 579.5 -166.0 583.5 -154.0 591.5 -134.5 599.0 -115.0 607.0 -95.0 615.5 -75.0 621.5 -58.0 627.5 -41.0 628.5 -32.0" fill-rule="evenodd" stroke="none"/>
    </g>
    <g id="font_GosmickSans_T0">
      <path d="M592.0 -687.5 Q592.0 -654.5 567.5 -639.5 543.0 -625.0 509.0 -621.0 475.5 -616.5 440.5 -618.0 405.5 -619.5 385.0 -618.5 374.0 -618.5 369.0 -613.5 363.5 -608.5 362.0 -602.0 360.5 -595.0 361.0 -586.5 361.5 -577.5 361.5 -569.5 L357.5 -471.0 Q355.5 -422.0 355.5 -373.0 L355.5 -305.5 Q355.5 -268.5 357.0 -230.0 358.5 -191.5 360.5 -154.5 362.5 -118.0 368.0 -88.0 372.0 -67.5 371.0 -56.0 370.0 -44.0 354.5 -28.5 344.0 -18.5 329.5 -8.0 314.5 3.0 300.0 3.0 285.0 3.0 277.0 -7.5 269.5 -18.5 266.5 -32.0 259.0 -65.5 256.0 -106.0 253.0 -146.5 252.5 -188.5 252.0 -230.5 252.5 -272.0 253.0 -313.5 253.0 -348.0 253.0 -405.5 254.5 -461.5 256.0 -517.0 258.0 -573.5 259.0 -594.0 257.0 -603.5 255.0 -613.5 230.5 -612.5 197.5 -611.0 164.5 -610.5 131.0 -610.0 97.5 -610.0 89.0 -610.0 79.0 -610.5 68.5 -611.0 60.0 -614.0 51.5 -616.5 44.5 -622.0 38.0 -627.5 36.0 -639.0 35.0 -648.0 41.0 -659.0 47.0 -669.5 57.5 -679.0 67.5 -688.0 78.5 -694.5 89.0 -701.5 97.5 -703.5 115.0 -706.5 136.0 -702.0 156.5 -697.0 175.0 -697.0 249.0 -697.0 320.5 -702.0 392.5 -706.5 466.0 -708.5 476.5 -708.5 497.5 -711.5 518.5 -715.0 539.0 -715.0 560.5 -715.0 576.0 -709.5 592.0 -703.5 592.0 -687.5" fill-rule="evenodd" stroke="none"/>
    </g>
    <g id="font_GosmickSans_L0">
      <path d="M472.0 -59.5 Q477.0 -40.0 461.5 -27.5 445.5 -15.5 414.0 -8.0 383.0 -1.0 338.5 2.5 294.0 6.0 241.5 8.0 211.0 9.0 184.0 8.5 156.5 8.0 136.0 4.0 93.0 -3.0 72.0 -24.0 51.0 -45.0 43.5 -80.5 36.0 -115.5 36.5 -166.0 37.0 -216.0 38.0 -281.5 38.0 -318.5 39.5 -369.5 L42.5 -474.0 45.5 -578.0 48.0 -665.5 Q48.0 -683.0 61.5 -693.0 75.0 -703.5 83.0 -707.5 99.5 -711.5 114.0 -708.5 129.0 -705.5 141.0 -699.5 152.5 -693.0 158.5 -685.5 165.0 -678.0 164.0 -674.0 164.0 -665.5 162.5 -657.0 161.0 -648.0 159.5 -637.0 155.5 -597.0 152.5 -551.0 149.5 -505.0 147.5 -456.0 145.5 -407.5 144.5 -359.0 143.5 -310.5 143.5 -265.0 L143.5 -214.0 Q143.5 -181.0 144.5 -151.5 145.5 -122.0 147.5 -98.5 179.0 -77.0 239.5 -80.0 259.0 -81.0 277.5 -81.0 296.0 -81.0 317.5 -82.0 L364.0 -85.0 Q389.0 -87.0 422.0 -91.0 427.0 -92.0 432.0 -91.0 L439.5 -90.0 Q452.5 -90.0 461.5 -81.5 470.0 -72.5 472.0 -59.5" fill-rule="evenodd" stroke="none"/>
    </g>
    <g id="font_GosmickSans_O0">
      <path d="M557.0 -381.0 Q555.0 -417.5 550.5 -451.0 546.0 -484.5 537.5 -506.0 523.5 -544.0 503.5 -569.0 483.5 -594.0 459.5 -609.5 435.0 -624.5 406.0 -631.0 377.0 -637.0 344.0 -637.0 296.0 -637.0 256.0 -615.5 216.0 -594.0 187.5 -556.0 158.5 -518.0 143.5 -465.0 128.0 -411.5 128.0 -349.0 128.0 -291.5 143.5 -241.5 158.5 -191.5 187.0 -154.5 215.0 -117.5 254.5 -96.0 294.0 -74.5 342.0 -74.5 391.0 -74.5 432.0 -98.0 473.0 -121.5 501.0 -162.5 529.5 -203.5 544.5 -260.0 559.0 -316.5 557.0 -381.0 M653.5 -368.5 Q651.5 -286.5 626.0 -216.5 600.0 -146.5 557.0 -94.5 514.0 -43.0 456.5 -13.0 398.5 16.5 332.0 16.5 268.5 16.5 214.5 -10.0 161.0 -37.0 121.0 -83.5 81.0 -130.0 58.5 -193.0 36.0 -256.0 36.0 -328.5 36.0 -411.5 61.0 -483.5 86.0 -555.0 129.0 -608.0 172.0 -660.5 230.0 -691.0 288.0 -721.0 353.5 -721.0 399.5 -721.0 442.0 -708.0 484.5 -695.5 520.0 -671.5 555.0 -647.0 582.5 -613.5 609.5 -579.5 625.0 -538.5 632.0 -518.0 638.0 -490.5 644.5 -463.0 648.0 -437.5 651.5 -411.5 653.0 -392.0 654.5 -372.5 653.5 -368.5" fill-rule="evenodd" stroke="none"/>
    </g>
    <g id="font_GosmickSans_G0">
      <path d="M622.0 -237.0 Q617.0 -178.5 591.0 -132.0 565.5 -85.0 527.0 -53.0 489.0 -20.5 440.5 -3.5 392.5 14.0 341.5 14.0 275.0 14.0 218.5 -9.0 162.0 -32.0 121.5 -75.0 81.0 -118.0 58.5 -180.5 36.0 -243.0 36.0 -321.5 36.0 -390.5 55.5 -461.0 75.0 -531.5 114.5 -589.5 154.0 -647.5 213.0 -685.0 271.5 -723.0 350.5 -726.0 397.5 -728.0 447.0 -721.5 496.0 -715.0 534.5 -698.0 572.5 -681.0 593.5 -653.5 614.5 -626.0 605.5 -585.0 603.5 -575.5 599.0 -566.0 594.5 -556.0 588.5 -548.0 583.0 -540.0 577.5 -534.5 571.5 -529.5 567.5 -529.5 548.0 -530.5 540.0 -536.5 532.0 -543.0 528.5 -551.0 525.5 -559.0 525.5 -568.5 525.5 -577.5 522.5 -585.0 518.5 -604.5 502.0 -616.0 485.5 -628.0 462.0 -633.5 438.5 -639.0 409.5 -640.5 380.0 -642.0 351.5 -641.0 303.5 -639.0 263.5 -612.0 223.5 -585.0 195.5 -541.0 167.0 -497.0 151.5 -442.0 135.5 -387.0 135.5 -331.0 135.5 -213.0 184.5 -148.5 234.0 -84.0 321.0 -78.0 368.0 -75.0 405.5 -87.0 442.5 -98.5 469.5 -122.5 496.0 -146.5 511.5 -180.0 526.5 -213.0 529.5 -253.0 536.0 -269.5 533.0 -276.0 529.5 -283.0 523.5 -285.5 517.5 -288.0 511.5 -288.0 505.0 -288.0 505.0 -291.0 468.5 -289.0 430.5 -292.0 392.5 -295.0 356.5 -289.0 340.5 -286.0 326.0 -295.0 311.5 -304.5 309.5 -318.5 307.5 -326.0 307.5 -336.0 307.5 -347.5 311.5 -356.5 315.5 -365.5 325.5 -372.5 335.0 -379.0 353.5 -380.0 370.0 -378.0 395.5 -378.0 L451.0 -378.0 Q479.5 -378.0 508.0 -379.0 L560.5 -381.0 Q577.0 -382.0 593.0 -378.0 609.5 -374.0 620.0 -359.0 630.0 -344.0 632.0 -315.0 634.0 -286.0 622.0 -237.0" fill-rule="evenodd" stroke="none"/>
    </g>
    <g id="button1" transform="matrix(1.0, 0.0, 0.0, 1.0, 3.55, 3.7)">
      <filter id="filter32">
        <feOffset dx="0.70711599583202" dy="0.7070975664209931" in="SourceGraphic" result="filterResult0"/>
        <feColorMatrix in="filterResult0" result="filterResult1" type="matrix" values="0 0 0 0 0.0,0 0 0 0 0.0,0 0 0 0 0.0,0 0 0 1 0"/>
        <feConvolveMatrix divisor="1.0" in="filterResult1" kernelMatrix="1" order="1 1" result="filterResult2"/>
        <feColorMatrix in="filterResult2" result="filterResult3" type="matrix" values="1 0 0 0 0,0 1 0 0 0,0 0 1 0 0,0 0 0 2.0 0"/>
        <feComposite in="SourceGraphic" in2="filterResult3" operator="over" result="filterResult4"/>
        <feColorMatrix in="filterResult4" result="filterResult5" type="matrix" values="0 0 0 0 0.47058824,0 0 0 0 0.3529412,0 0 0 0 0.003921569,0 0 0 1 0"/>
        <feConvolveMatrix divisor="25.0" in="filterResult5" kernelMatrix="1 1 1 1 1 1 1 1 1 1 1 1 1 1 1 1 1 1 1 1 1 1 1 1 1" order="5 5" result="filterResult6"/>
        <feComposite in="filterResult4" in2="filterResult6" operator="over" result="filterResult7"/>
      </filter>
      <use ffdec:characterId="2278" filter="url(#filter32)" height="25.8" transform="matrix(0.8, 0.0, 0.0, 0.8, 0.2, -1.32)" width="22.0" xlink:href="#sprite2"/>
    </g>
    <g id="sprite2" transform="matrix(1.0, 0.0, 0.0, 1.0, -0.25, 1.65)">
      <use ffdec:characterId="2277" height="25.8" transform="matrix(1.0, 0.0, 0.0, 1.0, 0.25, -1.65)" width="22.0" xlink:href="#shape3"/>
    </g>
    <g id="shape3" transform="matrix(1.0, 0.0, 0.0, 1.0, -0.25, 1.65)">
      <path d="M18.95 -0.05 Q21.15 1.05 22.25 1.05 21.8 2.75 19.1 5.85 L13.45 11.95 18.7 20.2 Q18.25 21.15 16.75 22.4 L14.3 24.15 Q13.95 22.8 9.75 16.1 6.45 20.3 5.3 23.55 L0.25 21.55 Q1.4 17.75 6.75 11.15 2.5 4.35 2.0 2.85 5.1 1.5 7.9 -1.05 8.35 2.05 10.55 6.6 15.8 0.35 16.35 -1.65 17.0 -1.05 18.95 -0.05" fill="#f3f301" fill-rule="evenodd" stroke="none"/>
    </g>
  </defs>
</svg>
