<?xml version="1.0" encoding="UTF-8" standalone="no"?>
<svg xmlns:ffdec="https://www.free-decompiler.com/flash" xmlns:xlink="http://www.w3.org/1999/xlink" ffdec:objectType="frame" height="386.1px" width="315.9px" xmlns="http://www.w3.org/2000/svg">
  <g transform="matrix(1.0, 0.0, 0.0, 1.0, 37.9, 8.35)">
    <use ffdec:characterId="2636" height="335.0" id="holderAndMask_mc" transform="matrix(1.0, 0.0, 0.0, 1.0, -35.55, 42.75)" width="311.0" xlink:href="#sprite0"/>
    <use ffdec:characterId="2637" height="16.05" id="pagingInfo_txt" transform="matrix(1.0, 0.0, 0.0, 1.0, 51.75, 27.2)" width="127.4" xlink:href="#text0"/>
    <use ffdec:characterId="2639" height="26.1" id="noBuddies_spr" transform="matrix(1.0, 0.0, 0.0, 1.0, 73.8, 132.55)" width="74.4" xlink:href="#sprite2"/>
    <filter id="filter32">
      <feOffset dx="-1.5628939176605707" dy="3.6820324010170786" in="SourceGraphic" result="filterResult0"/>
      <feColorMatrix in="filterResult0" result="filterResult1" type="matrix" values="0 0 0 0 0.0,0 0 0 0 0.0,0 0 0 0 0.0,0 0 0 1 0"/>
      <feConvolveMatrix divisor="16.0" in="filterResult1" kernelMatrix="1 1 1 1 1 1 1 1 1 1 1 1 1 1 1 1" order="4 4" result="filterResult2"/>
      <feConvolveMatrix divisor="16.0" in="filterResult2" kernelMatrix="1 1 1 1 1 1 1 1 1 1 1 1 1 1 1 1" order="4 4" result="filterResult3"/>
      <feColorMatrix in="filterResult3" result="filterResult4" type="matrix" values="1 0 0 0 0,0 1 0 0 0,0 0 1 0 0,0 0 0 0.19921875 0"/>
      <feComposite in="SourceGraphic" in2="filterResult4" operator="over" result="filterResult5"/>
      <feColorMatrix in="filterResult5" result="filterResult6" type="matrix" values="1.06 0.0 0.0 0.0 0.072352946 0.0 1.06 0.0 0.0 0.072352946 0.0 0.0 1.06 0.0 0.072352946 0.0 0.0 0.0 1.0 0.0"/>
    </filter>
    <use ffdec:characterId="2641" filter="url(#filter32)" height="206.75" transform="matrix(0.1531, 0.0, 0.0, 0.1531, -37.9, -8.3543)" width="2062.9" xlink:href="#sprite3"/>
    <use ffdec:characterId="2643" height="83.95" transform="matrix(0.2355, 0.0, 0.0, 0.2355, 46.0113, -3.0839)" width="628.5" xlink:href="#sprite4"/>
    <filter id="filter35">
      <feOffset dx="-1.5628939176605707" dy="3.6820324010170786" in="SourceGraphic" result="filterResult24"/>
      <feColorMatrix in="filterResult24" result="filterResult25" type="matrix" values="0 0 0 0 0.0,0 0 0 0 0.0,0 0 0 0 0.0,0 0 0 1 0"/>
      <feConvolveMatrix divisor="16.0" in="filterResult25" kernelMatrix="1 1 1 1 1 1 1 1 1 1 1 1 1 1 1 1" order="4 4" result="filterResult26"/>
      <feConvolveMatrix divisor="16.0" in="filterResult26" kernelMatrix="1 1 1 1 1 1 1 1 1 1 1 1 1 1 1 1" order="4 4" result="filterResult27"/>
      <feColorMatrix in="filterResult27" result="filterResult28" type="matrix" values="1 0 0 0 0,0 1 0 0 0,0 0 1 0 0,0 0 0 0.19921875 0"/>
      <feComposite in="SourceGraphic" in2="filterResult28" operator="over" result="filterResult29"/>
    </filter>
    <use ffdec:characterId="2650" filter="url(#filter35)" height="72.95" id="close_btn" transform="matrix(0.3016, 0.0, 0.0, 0.3016, 2.9317, -4.6778)" width="93.4" xlink:href="#button0"/>
    <use ffdec:characterId="2651" height="81.45" id="searchInput_txt" transform="matrix(0.2017, 0.0, 0.0, 0.2017, 48.9466, -1.3034)" width="695.65" xlink:href="#text2"/>
  </g>
  <defs>
    <g id="sprite0" transform="matrix(1.0, 0.0, 0.0, 1.0, 45.5, 7.3)">
      <clipPath id="clipPath0">
        <path d="M -45 -6.8 L -45 327.2 L 265 327.2 L 265 321.5 L 265 310.55 L 265 -6.8 Z"/>
      </clipPath>
      <g clip-path="url(#clipPath0)">
        <use ffdec:characterId="2572" height="0.0" id="itemsHolder_spr" transform="matrix(1.0, 0.0, 0.0, 1.0, 0.0, 0.0)" width="0.0" xlink:href="#sprite1"/>
      </g>
    </g>
    <g id="text0" transform="matrix(1.0, 0.0, 0.0, 1.0, -18.6, 2.0)">
      <g transform="matrix(1.0, 0.0, 0.0, 1.0, 18.6, -2.0)">
        <use fill="#084432" height="16.05" transform="matrix(0.0098, 0.0, 0.0, 0.0098, 8.8, 11.45)" width="127.4" xlink:href="#font_GosmickSansBold_B0"/>
        <use fill="#084432" height="16.05" transform="matrix(0.0098, 0.0, 0.0, 0.0098, 14.95, 11.45)" width="127.4" xlink:href="#font_GosmickSansBold_u0"/>
        <use fill="#084432" height="16.05" transform="matrix(0.0098, 0.0, 0.0, 0.0098, 19.7, 11.45)" width="127.4" xlink:href="#font_GosmickSansBold_d0"/>
        <use fill="#084432" height="16.05" transform="matrix(0.0098, 0.0, 0.0, 0.0098, 24.95, 11.45)" width="127.4" xlink:href="#font_GosmickSansBold_d0"/>
        <use fill="#084432" height="16.05" transform="matrix(0.0098, 0.0, 0.0, 0.0098, 30.2, 11.45)" width="127.4" xlink:href="#font_GosmickSansBold_y0"/>
      </g>
      <g transform="matrix(1.0, 0.0, 0.0, 1.0, 18.6, -2.0)">
        <use fill="#084432" height="16.05" transform="matrix(0.0098, 0.0, 0.0, 0.0098, 37.95, 11.45)" width="127.4" xlink:href="#font_GosmickSansBold_L0"/>
        <use fill="#084432" height="16.05" transform="matrix(0.0098, 0.0, 0.0, 0.0098, 42.85, 11.45)" width="127.4" xlink:href="#font_GosmickSansBold_i0"/>
        <use fill="#084432" height="16.05" transform="matrix(0.0098, 0.0, 0.0, 0.0098, 44.65, 11.45)" width="127.4" xlink:href="#font_GosmickSansBold_s0"/>
        <use fill="#084432" height="16.05" transform="matrix(0.0098, 0.0, 0.0, 0.0098, 49.15, 11.45)" width="127.4" xlink:href="#font_GosmickSansBold_t0"/>
      </g>
      <g transform="matrix(1.0, 0.0, 0.0, 1.0, 18.6, -2.0)">
        <use fill="#084432" height="16.05" transform="matrix(0.0098, 0.0, 0.0, 0.0098, 55.65, 11.45)" width="127.4" xlink:href="#font_GosmickSansBold__1"/>
        <use fill="#084432" height="16.05" transform="matrix(0.0098, 0.0, 0.0, 0.0098, 58.15, 11.45)" width="127.4" xlink:href="#font_GosmickSansBold__1"/>
        <use fill="#084432" height="16.05" transform="matrix(0.0098, 0.0, 0.0, 0.0098, 60.65, 11.45)" width="127.4" xlink:href="#font_GosmickSansBold__1"/>
        <use fill="#084432" height="16.05" transform="matrix(0.0098, 0.0, 0.0, 0.0098, 63.15, 11.45)" width="127.4" xlink:href="#font_GosmickSansBold__1"/>
        <use fill="#084432" height="16.05" transform="matrix(0.0098, 0.0, 0.0, 0.0098, 65.65, 11.45)" width="127.4" xlink:href="#font_GosmickSansBold__1"/>
        <use fill="#084432" height="16.05" transform="matrix(0.0098, 0.0, 0.0, 0.0098, 68.15, 11.45)" width="127.4" xlink:href="#font_GosmickSansBold_80"/>
        <use fill="#084432" height="16.05" transform="matrix(0.0098, 0.0, 0.0, 0.0098, 73.7, 11.45)" width="127.4" xlink:href="#font_GosmickSansBold_-0"/>
        <use fill="#084432" height="16.05" transform="matrix(0.0098, 0.0, 0.0, 0.0098, 77.9, 11.45)" width="127.4" xlink:href="#font_GosmickSansBold_10"/>
        <use fill="#084432" height="16.05" transform="matrix(0.0098, 0.0, 0.0, 0.0098, 80.9, 11.45)" width="127.4" xlink:href="#font_GosmickSansBold_40"/>
      </g>
      <g transform="matrix(1.0, 0.0, 0.0, 1.0, 18.6, -2.0)">
        <use fill="#084432" height="16.05" transform="matrix(0.0098, 0.0, 0.0, 0.0098, 89.95, 11.45)" width="127.4" xlink:href="#font_GosmickSansBold_o0"/>
        <use fill="#084432" height="16.05" transform="matrix(0.0098, 0.0, 0.0, 0.0098, 94.9, 11.45)" width="127.4" xlink:href="#font_GosmickSansBold_f0"/>
      </g>
      <g transform="matrix(1.0, 0.0, 0.0, 1.0, 18.6, -2.0)">
        <use fill="#084432" height="16.05" transform="matrix(0.0098, 0.0, 0.0, 0.0098, 101.8, 11.45)" width="127.4" xlink:href="#font_GosmickSansBold_20"/>
        <use fill="#084432" height="16.05" transform="matrix(0.0098, 0.0, 0.0, 0.0098, 107.4, 11.45)" width="127.4" xlink:href="#font_GosmickSansBold_20"/>
        <use fill="#084432" height="16.05" transform="matrix(0.0098, 0.0, 0.0, 0.0098, 113.0, 11.45)" width="127.4" xlink:href="#font_GosmickSansBold_30"/>
      </g>
    </g>
    <g id="font_GosmickSansBold_B0">
      <path d="M385.0 -545.0 Q385.0 -574.5 357.5 -593.5 330.0 -612.5 292.0 -612.5 265.5 -612.5 245.5 -608.5 225.5 -604.0 214.0 -597.0 214.0 -573.5 211.0 -541.5 209.0 -521.0 207.5 -498.5 206.0 -476.0 206.0 -454.5 L206.0 -440.5 Q206.0 -434.0 207.0 -428.0 216.0 -425.0 226.5 -425.0 243.0 -423.0 261.5 -426.0 279.5 -429.0 296.5 -435.0 313.5 -441.5 328.5 -449.5 343.0 -457.5 353.5 -467.0 363.5 -476.0 370.0 -487.5 376.0 -498.5 379.5 -510.0 383.0 -521.0 384.0 -530.5 385.0 -539.5 385.0 -545.0 M318.5 -108.5 Q372.0 -110.5 412.0 -129.5 452.0 -148.5 465.0 -184.5 465.0 -218.0 450.5 -242.0 435.5 -266.0 411.5 -282.0 387.5 -298.0 357.5 -305.5 328.0 -313.5 299.0 -313.5 L275.0 -312.5 Q262.5 -311.5 249.0 -309.0 L229.0 -306.0 210.0 -305.0 Q207.0 -294.0 205.5 -278.0 204.0 -262.0 204.0 -238.5 204.0 -208.0 205.5 -176.0 207.0 -144.5 209.0 -120.0 227.5 -111.5 254.0 -109.0 281.0 -106.5 318.5 -108.5 M571.5 -316.5 Q583.0 -300.0 588.0 -280.5 593.0 -261.0 593.5 -242.5 594.0 -224.5 592.0 -210.5 590.0 -196.5 587.0 -191.5 596.0 -199.5 604.5 -208.0 602.5 -158.5 577.0 -120.0 551.0 -81.0 511.5 -53.5 471.5 -25.5 420.5 -9.5 370.0 6.0 316.5 9.0 270.5 11.5 226.5 5.5 182.5 0.0 144.5 -9.0 119.0 -15.5 103.5 -32.5 88.5 -49.0 80.5 -73.5 73.0 -98.5 70.5 -129.5 67.5 -161.0 67.5 -196.5 L67.5 -271.5 Q67.5 -333.0 69.5 -399.0 72.0 -465.0 75.0 -515.0 75.0 -521.0 75.5 -529.5 76.0 -537.5 76.0 -543.5 77.0 -550.0 77.0 -558.0 77.0 -566.5 78.0 -573.5 79.0 -574.5 73.0 -578.5 62.5 -583.5 51.0 -592.0 40.0 -600.0 31.5 -620.5 28.5 -639.0 44.5 -654.5 60.5 -669.5 86.5 -681.5 113.0 -693.5 145.5 -701.5 178.5 -709.5 210.0 -715.5 242.0 -721.0 269.0 -723.0 L311.5 -725.0 Q358.5 -722.0 398.5 -705.5 438.5 -689.0 466.5 -663.0 495.0 -637.0 508.5 -602.5 522.5 -568.5 517.5 -529.5 L517.5 -530.5 Q512.5 -489.5 490.5 -457.0 468.5 -425.0 435.5 -400.5 L437.5 -400.5 Q480.5 -389.0 515.5 -367.5 550.0 -346.0 571.5 -316.5" fill-rule="evenodd" stroke="none"/>
    </g>
    <g id="font_GosmickSansBold_u0">
      <path d="M466.0 -443.5 Q461.0 -380.0 459.5 -318.5 457.5 -257.0 457.5 -192.5 L457.5 -165.0 Q457.5 -146.5 458.0 -133.5 L460.0 -108.5 Q462.0 -102.5 463.0 -93.5 464.0 -84.0 464.0 -75.0 L464.0 -58.5 464.0 -48.5 Q466.0 -23.5 452.5 -8.5 439.5 7.0 406.5 7.0 L395.5 6.5 Q387.0 6.0 377.5 3.0 367.5 0.0 359.5 -7.5 351.0 -14.5 348.0 -27.0 332.0 -13.5 311.0 -6.5 290.0 1.0 269.0 4.5 248.0 8.0 229.5 8.0 L200.5 8.0 Q139.5 4.0 101.0 -30.0 62.5 -63.5 43.0 -117.0 33.0 -146.5 30.0 -182.5 27.5 -218.0 27.5 -251.0 L27.5 -288.0 Q27.5 -294.0 28.0 -299.5 28.5 -305.0 28.5 -311.5 29.5 -328.5 29.5 -347.0 29.5 -365.5 31.5 -385.0 L31.5 -412.5 Q31.5 -429.0 32.5 -445.5 33.0 -462.0 39.0 -475.5 45.0 -489.5 59.0 -499.5 72.5 -510.0 99.5 -514.0 111.5 -516.0 124.5 -512.5 137.0 -509.0 147.5 -501.0 157.5 -493.5 164.5 -481.5 171.0 -470.0 171.0 -455.5 171.0 -423.0 169.5 -390.5 168.0 -358.5 166.0 -329.5 164.0 -306.0 162.5 -285.5 161.0 -265.5 161.0 -249.0 161.0 -181.5 172.5 -149.0 184.5 -117.0 216.0 -115.0 235.5 -111.5 254.0 -117.0 272.5 -122.0 287.0 -134.0 302.0 -145.5 311.0 -164.0 319.5 -182.5 319.5 -206.0 323.5 -239.5 325.0 -278.0 326.5 -316.5 327.5 -355.5 327.5 -378.0 328.0 -400.5 328.5 -423.0 329.5 -443.5 329.5 -455.5 338.0 -468.5 346.0 -481.0 358.5 -491.5 370.5 -501.5 385.0 -508.5 399.5 -515.0 410.5 -515.0 435.0 -515.0 451.5 -498.5 468.0 -482.0 466.0 -443.5" fill-rule="evenodd" stroke="none"/>
    </g>
    <g id="font_GosmickSansBold_d0">
      <path d="M370.5 -263.0 Q370.5 -327.5 345.5 -367.0 320.5 -406.5 268.0 -406.5 211.0 -406.5 180.0 -363.0 149.5 -319.5 149.5 -242.5 149.5 -215.0 157.5 -190.5 166.0 -166.0 179.5 -148.0 193.5 -130.0 213.0 -120.0 232.5 -109.5 254.0 -109.5 312.0 -109.5 341.5 -151.5 370.5 -193.5 370.5 -263.0 M515.0 -54.5 L514.0 -57.5 Q514.0 -51.5 507.0 -40.5 500.5 -30.0 490.5 -20.0 480.0 -10.5 467.5 -2.5 454.5 5.0 442.0 5.0 L434.0 4.0 Q427.0 3.0 417.0 -1.5 407.5 -6.5 396.0 -14.0 385.0 -21.5 375.5 -36.0 352.0 -18.5 323.0 -5.5 293.5 7.0 264.0 9.0 216.0 12.0 173.0 -4.0 130.0 -20.5 98.0 -53.5 66.5 -86.0 48.0 -133.0 29.5 -180.0 29.5 -237.5 29.5 -295.0 47.5 -345.5 65.5 -396.0 97.5 -434.5 130.0 -473.0 175.0 -495.5 220.0 -518.0 274.0 -518.0 305.0 -518.0 329.5 -510.5 354.0 -502.5 375.5 -490.5 L377.0 -589.0 Q377.5 -635.0 379.5 -675.0 380.5 -686.0 385.5 -696.0 390.0 -705.5 399.0 -710.5 406.5 -721.0 417.0 -723.0 428.0 -725.0 438.0 -726.0 446.5 -726.0 450.5 -727.0 486.0 -729.0 499.5 -703.5 513.0 -678.0 511.0 -635.0 L506.0 -540.5 Q503.5 -491.5 502.0 -441.0 500.5 -390.0 499.5 -340.0 498.5 -290.0 498.5 -243.0 498.5 -203.0 500.5 -171.0 502.5 -139.5 506.5 -116.0 L505.5 -117.0 Q506.5 -115.0 507.5 -110.5 L510.0 -101.5 Q512.0 -90.0 513.5 -76.5 515.0 -62.5 515.0 -54.5" fill-rule="evenodd" stroke="none"/>
    </g>
    <g id="font_GosmickSansBold_y0">
      <path d="M495.5 -451.5 L491.5 -440.5 Q482.5 -429.0 475.5 -412.5 L462.0 -379.0 Q460.0 -375.0 460.0 -370.5 460.0 -367.5 457.5 -365.5 440.5 -320.5 422.5 -276.0 404.5 -231.5 390.0 -194.5 L337.5 -61.0 Q311.5 5.0 280.5 87.0 265.0 126.0 260.5 150.5 256.0 175.0 254.0 190.5 L250.5 214.5 Q249.0 224.5 244.0 231.5 239.5 238.5 230.0 243.0 220.0 248.0 201.5 252.0 192.5 254.0 182.0 252.5 171.0 251.0 161.5 245.5 151.5 239.5 144.5 231.5 137.0 223.0 135.0 213.0 128.0 195.5 128.0 172.0 128.0 148.5 133.5 125.0 139.5 101.5 147.5 81.0 150.5 65.5 157.5 48.0 165.0 30.5 173.0 14.5 L185.0 -11.0 Q190.5 -23.5 192.5 -34.0 187.5 -47.0 181.0 -60.0 175.0 -72.5 169.0 -86.0 165.0 -94.0 159.5 -106.5 154.5 -119.0 150.5 -126.0 L150.5 -125.0 Q128.0 -171.0 106.5 -217.5 85.0 -264.0 65.5 -311.5 61.5 -319.5 57.5 -328.5 53.5 -338.0 50.0 -345.0 L27.0 -396.0 Q15.5 -422.0 12.5 -439.5 10.0 -452.5 17.0 -466.0 23.5 -479.0 35.0 -489.5 46.0 -499.5 60.0 -506.0 73.5 -512.0 85.0 -512.0 100.5 -512.0 115.5 -494.5 131.0 -477.0 146.0 -449.0 161.0 -421.0 174.5 -386.0 188.5 -351.0 201.5 -316.5 217.0 -277.5 230.0 -242.5 242.5 -208.0 255.0 -186.5 273.5 -229.5 291.5 -277.5 309.5 -325.5 323.5 -367.5 L323.5 -368.5 Q325.5 -372.5 326.5 -376.5 327.5 -380.0 329.5 -385.0 L344.0 -427.5 Q352.5 -450.5 364.5 -469.5 377.0 -488.5 395.0 -501.0 412.5 -514.0 438.5 -514.0 447.5 -514.0 458.0 -508.0 469.0 -502.0 477.5 -492.5 486.5 -483.5 491.5 -472.0 496.5 -461.0 495.5 -451.5" fill-rule="evenodd" stroke="none"/>
    </g>
    <g id="font_GosmickSansBold_L0">
      <path d="M479.0 -78.0 L479.0 -81.0 Q485.5 -54.5 470.0 -38.0 454.5 -21.5 422.5 -12.5 390.0 -3.5 343.5 1.5 297.0 6.0 242.5 8.0 L225.0 8.5 208.0 9.0 170.5 7.5 139.5 4.0 Q103.5 -2.0 81.5 -16.5 59.5 -31.0 47.5 -54.0 36.0 -77.0 32.5 -108.5 28.5 -140.5 28.5 -181.5 28.5 -195.0 29.0 -209.0 29.5 -223.5 29.5 -240.0 29.5 -251.0 30.0 -262.5 30.5 -273.5 30.5 -286.0 30.5 -316.5 31.5 -358.5 33.0 -400.5 34.0 -446.0 35.0 -491.5 36.5 -536.5 L39.0 -617.5 Q39.0 -626.0 39.5 -633.5 40.0 -641.0 40.0 -649.5 40.0 -661.5 45.0 -671.5 50.0 -681.0 57.5 -688.5 64.5 -695.5 72.0 -700.0 80.0 -704.5 85.0 -708.0 104.5 -713.0 123.5 -708.0 142.5 -702.5 156.5 -693.5 171.0 -684.0 179.0 -673.0 187.5 -661.5 187.5 -654.5 L188.5 -656.5 Q188.5 -651.5 188.0 -647.0 187.5 -642.0 186.5 -637.0 184.5 -627.0 184.5 -619.5 180.0 -582.0 177.5 -539.0 175.0 -496.0 173.0 -450.0 171.0 -404.5 170.0 -359.0 169.0 -313.5 169.0 -270.5 L169.0 -222.5 Q169.0 -191.5 169.5 -168.5 170.0 -145.5 172.0 -124.0 196.5 -112.0 239.5 -115.0 L257.0 -115.5 274.5 -116.0 332.5 -118.0 Q363.5 -119.0 410.5 -125.0 L408.5 -125.0 Q414.5 -127.0 419.0 -126.5 423.0 -126.0 428.0 -124.0 L429.0 -124.0 Q449.5 -124.0 463.5 -111.0 477.0 -97.5 479.0 -78.0" fill-rule="evenodd" stroke="none"/>
    </g>
    <g id="font_GosmickSansBold_i0">
      <path d="M173.0 -642.0 Q171.0 -628.5 162.5 -614.5 153.5 -600.0 140.5 -588.0 127.0 -576.5 110.5 -570.5 94.0 -564.0 76.0 -567.0 48.0 -571.5 37.5 -596.0 26.5 -620.5 28.5 -650.0 31.5 -683.0 54.0 -706.5 76.0 -730.0 109.5 -730.0 128.0 -730.0 141.5 -722.0 154.5 -713.5 162.5 -700.5 170.0 -687.0 172.5 -671.5 175.0 -656.5 173.0 -642.0 M164.0 -442.5 L162.0 -399.5 Q161.0 -378.0 159.5 -357.5 157.5 -318.5 156.5 -282.5 155.5 -247.0 155.5 -210.0 155.5 -171.0 156.5 -134.5 157.5 -98.5 159.5 -71.5 159.5 -57.5 151.0 -44.0 142.5 -31.0 130.5 -20.0 119.0 -9.5 106.5 -2.5 94.0 4.0 86.0 4.0 63.5 4.0 50.0 -5.5 37.0 -15.5 30.0 -35.5 23.5 -55.5 21.5 -85.5 19.5 -116.0 19.5 -155.5 L19.5 -173.0 19.5 -198.5 Q19.5 -212.0 20.5 -224.5 22.5 -248.0 23.0 -273.0 23.5 -298.0 24.5 -324.5 L26.5 -388.5 Q27.5 -423.0 30.5 -451.5 33.0 -472.0 42.5 -485.0 52.0 -497.5 64.5 -504.5 77.0 -512.0 88.5 -514.5 100.5 -517.0 106.5 -517.0 136.0 -517.0 151.0 -498.5 166.0 -480.0 164.0 -442.5" fill-rule="evenodd" stroke="none"/>
    </g>
    <g id="font_GosmickSansBold_s0">
      <path d="M440.5 -147.5 Q437.5 -109.5 417.5 -79.5 397.5 -50.0 366.5 -29.0 336.0 -8.0 297.5 2.5 259.0 13.5 219.0 13.5 154.5 13.5 102.5 -7.5 50.0 -28.5 31.5 -65.0 23.5 -81.5 30.0 -98.5 37.0 -115.5 49.5 -128.5 62.5 -142.0 78.0 -149.5 93.0 -157.5 102.5 -155.5 104.5 -153.0 108.5 -151.0 L111.5 -147.5 Q113.5 -145.0 115.5 -143.0 127.0 -129.5 156.0 -115.5 185.5 -101.0 226.5 -101.0 262.0 -101.0 287.5 -112.0 313.5 -122.5 314.5 -141.0 316.5 -180.0 243.5 -196.5 L221.0 -202.5 Q168.0 -216.0 132.5 -230.0 97.5 -244.5 76.5 -262.5 55.5 -280.5 48.5 -304.0 42.0 -327.5 45.0 -360.5 49.0 -397.5 71.5 -426.5 94.0 -455.5 128.0 -477.0 162.0 -499.0 203.5 -512.0 244.5 -525.5 286.5 -528.5 L323.0 -527.0 Q342.0 -525.5 360.0 -519.5 378.0 -513.0 393.0 -501.0 408.5 -488.5 419.0 -467.0 424.0 -449.5 423.5 -437.0 423.0 -424.0 421.0 -416.0 421.0 -417.0 421.5 -417.5 L422.0 -418.0 Q413.5 -391.0 406.0 -376.5 398.5 -361.5 376.0 -359.5 357.5 -357.5 346.0 -361.0 335.0 -364.5 327.0 -371.0 319.5 -378.0 316.0 -386.5 312.5 -395.5 309.5 -404.5 L309.5 -405.5 295.5 -409.5 Q287.5 -411.5 279.5 -411.5 L260.5 -410.5 242.5 -408.5 Q211.0 -404.5 189.5 -389.5 168.0 -375.0 167.0 -358.5 175.0 -346.0 206.0 -337.0 272.5 -318.5 319.0 -300.0 365.5 -281.5 393.5 -260.0 422.0 -238.5 432.5 -211.5 443.5 -184.0 440.5 -147.5" fill-rule="evenodd" stroke="none"/>
    </g>
    <g id="font_GosmickSansBold_t0">
      <path d="M374.5 -462.0 L374.5 -459.5 Q372.5 -449.5 362.5 -435.0 352.0 -421.0 342.0 -410.5 339.0 -409.5 327.5 -408.0 L301.0 -404.5 269.5 -401.0 242.5 -399.5 Q239.5 -384.0 239.5 -342.0 L239.5 -243.0 Q239.5 -232.5 239.0 -221.0 238.5 -209.0 237.5 -197.5 236.5 -180.5 236.0 -163.0 235.5 -145.5 237.5 -134.5 236.5 -120.0 242.0 -112.0 247.5 -103.5 255.0 -103.5 266.0 -103.5 282.5 -120.0 295.0 -125.0 309.5 -127.0 324.5 -129.0 337.0 -124.0 349.0 -119.0 357.0 -105.0 364.5 -91.5 362.5 -64.5 352.0 -40.0 343.0 -26.0 333.5 -11.5 319.0 -4.5 304.0 3.0 281.0 5.5 258.0 8.0 220.0 9.0 207.0 9.0 197.5 7.0 188.5 5.0 180.5 1.5 173.0 -2.5 166.0 -8.0 L149.5 -20.5 143.5 -36.0 Q143.5 -32.0 142.5 -32.0 141.5 -32.0 140.0 -34.0 135.0 -39.0 129.5 -46.0 124.0 -52.5 122.0 -59.5 113.5 -80.0 110.5 -102.0 107.5 -124.0 107.5 -147.5 107.5 -155.0 108.0 -162.0 108.5 -169.0 108.5 -176.5 L108.5 -204.0 Q108.5 -250.0 110.0 -297.0 111.5 -344.0 113.5 -390.0 L113.0 -392.5 Q112.5 -393.5 112.5 -394.5 L99.5 -395.5 84.0 -395.5 Q73.5 -395.5 63.5 -396.0 L46.0 -397.5 Q30.5 -398.5 22.0 -405.5 13.5 -412.5 9.0 -422.0 5.0 -431.0 5.0 -440.5 5.0 -450.5 8.0 -458.0 13.5 -485.5 32.5 -498.0 52.0 -511.0 72.5 -511.0 L83.0 -510.5 92.0 -510.0 Q97.0 -509.0 101.5 -509.0 L110.5 -509.0 Q113.5 -509.0 114.5 -508.0 L115.5 -509.0 117.5 -560.5 Q118.5 -589.0 121.0 -606.0 125.0 -642.0 146.5 -656.0 168.0 -669.5 190.5 -670.5 220.0 -671.5 238.0 -655.0 256.0 -638.0 256.0 -599.0 256.0 -589.0 255.0 -578.0 L253.0 -558.0 Q252.0 -548.0 252.0 -538.5 L252.0 -521.0 252.0 -514.0 Q252.0 -513.0 256.0 -513.0 L273.5 -513.5 288.5 -515.0 309.0 -515.0 Q352.0 -515.0 364.5 -501.5 376.5 -488.5 374.5 -462.0" fill-rule="evenodd" stroke="none"/>
    </g>
    <g id="font_GosmickSansBold__1">
      <path d="M282.5 -103.5 Q303.0 -105.5 325.5 -119.0 348.0 -132.0 368.5 -149.5 L368.5 -161.0 368.5 -188.5 Q368.5 -202.5 369.5 -217.0 371.5 -239.5 372.0 -264.5 372.5 -290.0 374.0 -316.5 374.0 -318.5 373.0 -327.0 372.5 -336.0 374.0 -344.0 371.5 -343.0 366.5 -343.0 354.5 -343.0 340.0 -349.0 325.5 -355.5 322.5 -369.5 308.0 -387.0 292.0 -399.5 275.5 -411.5 256.0 -411.5 233.5 -411.5 215.0 -397.5 196.5 -383.0 183.0 -360.5 169.0 -338.0 161.5 -308.5 153.5 -279.5 153.5 -251.0 153.5 -217.0 163.5 -189.5 173.0 -162.0 190.0 -142.5 207.0 -123.0 231.0 -112.5 255.0 -102.5 282.5 -103.5 M512.0 -456.5 Q512.0 -433.0 511.0 -410.0 L509.0 -363.5 Q507.0 -320.5 505.5 -280.5 504.0 -240.5 504.0 -202.0 504.0 -156.0 505.0 -117.0 506.0 -78.0 508.0 -48.5 508.0 -34.0 499.5 -19.5 491.5 -5.5 479.5 6.0 468.0 17.0 455.5 24.5 443.5 31.5 435.0 31.5 391.0 31.5 379.0 -14.5 336.0 11.0 284.5 14.0 232.5 17.0 187.0 0.5 141.5 -16.5 107.5 -49.5 73.5 -82.0 52.5 -127.5 31.5 -173.0 28.5 -227.5 25.5 -282.5 41.5 -333.5 57.5 -384.0 87.5 -424.5 118.0 -465.0 159.0 -490.5 200.5 -516.0 249.0 -520.0 287.5 -523.0 323.5 -513.5 359.5 -504.0 385.0 -485.5 390.0 -500.5 400.0 -510.5 409.5 -520.0 420.5 -526.0 431.0 -531.5 441.0 -533.5 450.5 -535.5 455.5 -535.5 485.5 -535.5 499.5 -515.5 514.0 -495.5 512.0 -456.5" fill-rule="evenodd" stroke="none"/>
    </g>
    <g id="font_GosmickSansBold_80">
      <path d="M357.5 -525.5 Q357.5 -564.5 332.0 -587.0 306.0 -609.5 267.5 -609.5 221.0 -609.5 195.5 -583.0 170.0 -556.0 170.0 -516.5 171.0 -482.5 196.0 -461.0 221.0 -439.5 264.0 -437.5 307.0 -439.5 332.5 -464.0 357.5 -488.5 357.5 -525.5 M413.5 -204.5 Q413.5 -236.0 402.0 -258.5 390.0 -280.5 370.0 -294.0 350.0 -308.0 324.0 -313.5 298.0 -319.0 269.5 -318.0 247.0 -318.0 227.5 -309.5 208.0 -300.5 193.0 -287.0 178.0 -273.0 169.5 -255.5 161.0 -238.5 161.0 -220.0 161.0 -193.0 170.5 -170.5 180.0 -148.0 197.5 -132.0 215.0 -115.5 238.5 -106.5 262.0 -98.0 289.0 -98.0 344.0 -98.0 379.0 -127.0 413.5 -156.5 413.5 -204.5 M547.0 -209.0 Q547.0 -164.0 527.5 -123.0 508.0 -82.0 473.0 -50.5 438.5 -19.5 390.0 -1.0 342.0 17.5 285.5 17.5 234.5 17.5 189.5 3.0 144.5 -11.0 110.0 -38.5 76.0 -65.5 54.5 -103.5 33.0 -141.5 29.5 -189.5 27.5 -244.5 49.5 -292.5 71.5 -340.0 118.0 -368.5 79.0 -403.5 62.5 -437.0 46.0 -470.0 47.0 -519.5 49.0 -562.5 69.0 -598.5 89.0 -635.0 121.5 -661.5 153.5 -688.5 196.0 -703.0 238.5 -718.0 285.5 -718.0 329.5 -718.0 368.5 -703.5 407.5 -689.5 435.5 -663.0 464.0 -637.0 478.5 -601.5 493.5 -566.5 491.5 -523.5 486.5 -475.0 466.0 -448.0 445.5 -421.0 419.0 -398.5 L421.0 -397.5 Q422.0 -397.5 424.0 -396.5 L422.0 -397.5 Q460.0 -386.0 484.0 -358.0 508.0 -330.0 521.5 -299.0 535.5 -268.5 541.0 -242.0 547.0 -216.0 547.0 -209.0" fill-rule="evenodd" stroke="none"/>
    </g>
    <g id="font_GosmickSansBold_-0">
      <path d="M409.5 -327.5 L409.5 -323.5 Q409.5 -321.5 407.5 -312.5 405.5 -303.0 401.5 -295.0 395.5 -276.5 387.0 -266.0 379.0 -256.0 366.5 -250.5 354.5 -245.5 337.5 -244.0 L298.0 -242.5 262.0 -242.5 Q228.5 -242.5 223.0 -243.5 L212.5 -244.0 Q206.0 -244.5 194.5 -244.5 171.0 -244.5 154.5 -244.0 L124.0 -242.5 104.5 -241.5 83.0 -241.5 Q33.0 -241.5 26.5 -282.5 24.5 -288.5 26.5 -297.0 28.5 -305.0 33.0 -312.5 44.0 -343.0 67.0 -351.5 90.0 -359.5 136.0 -359.5 L143.5 -359.5 154.5 -358.5 197.5 -358.5 Q206.0 -358.5 216.0 -358.0 226.5 -357.5 249.0 -357.5 L306.0 -357.5 Q314.5 -357.5 328.0 -358.0 342.0 -358.5 369.5 -358.5 371.5 -357.5 375.5 -357.0 379.0 -356.5 381.0 -355.5 L380.0 -355.5 Q391.0 -352.5 399.0 -348.5 406.5 -345.0 409.5 -327.5" fill-rule="evenodd" stroke="none"/>
    </g>
    <g id="font_GosmickSansBold_10">
      <path d="M292.0 -42.0 Q292.0 -25.5 285.0 -16.5 278.5 -7.0 267.5 -3.0 256.0 1.0 241.5 1.5 227.5 2.0 212.0 1.0 L201.0 0.5 190.5 0.0 119.0 0.0 Q92.0 0.0 83.0 -5.0 73.5 -10.0 76.0 -18.5 78.0 -26.5 87.5 -38.5 L108.5 -62.5 124.0 -81.0 125.0 -244.0 Q125.0 -289.0 128.0 -340.5 131.0 -392.5 134.0 -439.5 L139.5 -504.0 Q141.5 -533.5 141.5 -552.0 L140.5 -552.0 Q132.0 -552.0 124.5 -549.5 116.5 -547.0 108.5 -545.0 100.5 -543.0 95.0 -540.0 90.0 -536.5 79.0 -536.5 58.5 -536.5 42.0 -550.5 25.5 -564.5 23.5 -585.0 L24.5 -583.0 Q19.5 -601.5 36.5 -619.0 53.5 -637.0 81.5 -654.0 109.5 -671.0 142.5 -685.0 175.0 -699.5 203.0 -710.0 215.0 -717.0 228.5 -717.0 240.5 -715.0 249.0 -709.0 257.0 -702.5 262.0 -690.5 275.5 -676.0 278.5 -658.5 281.5 -641.0 281.5 -620.5 L281.5 -604.5 Q281.5 -596.0 280.5 -589.0 279.5 -581.0 279.0 -570.5 278.5 -560.5 277.5 -551.0 L271.5 -471.0 265.5 -390.0 Q263.0 -349.5 261.5 -312.0 260.0 -274.5 260.0 -245.0 259.0 -199.5 261.5 -153.5 264.0 -107.5 267.5 -79.0 269.5 -75.0 272.0 -71.0 L276.5 -64.5 277.5 -64.5 Q282.5 -61.5 287.0 -59.0 292.0 -56.5 292.0 -42.0" fill-rule="evenodd" stroke="none"/>
    </g>
    <g id="font_GosmickSansBold_40">
      <path d="M616.5 -254.0 Q617.5 -236.5 608.5 -220.0 599.0 -203.5 585.0 -191.0 571.5 -178.0 557.0 -171.0 542.5 -163.5 534.5 -166.0 L519.0 -167.0 505.0 -167.0 494.5 -167.0 490.0 -166.5 483.5 -166.0 Q483.5 -161.5 484.0 -150.0 L485.0 -124.0 Q485.5 -109.5 486.5 -95.5 487.5 -82.0 488.5 -74.5 489.5 -60.5 482.0 -46.5 474.0 -33.0 462.0 -22.0 449.5 -11.5 436.5 -5.0 424.0 1.0 414.5 1.0 394.0 1.0 381.5 -21.0 368.5 -43.0 362.0 -71.5 355.5 -100.0 352.5 -126.5 349.0 -153.5 349.0 -161.5 L347.0 -161.5 336.0 -161.0 324.5 -160.5 Q282.5 -158.5 240.0 -158.0 197.5 -157.5 162.0 -157.5 L109.5 -157.5 Q88.0 -157.5 72.5 -164.0 57.5 -170.5 48.0 -181.5 39.0 -192.0 35.0 -204.0 30.5 -216.0 31.5 -227.0 29.5 -233.0 31.5 -241.0 34.0 -248.5 42.0 -262.0 L70.5 -307.0 Q105.5 -358.5 127.0 -393.0 148.5 -428.0 162.5 -456.0 176.0 -484.5 186.0 -512.0 L208.0 -576.5 212.5 -590.5 Q215.0 -598.0 218.0 -605.5 224.5 -632.0 237.5 -652.5 251.0 -673.0 267.0 -687.5 282.5 -701.5 298.0 -709.5 313.5 -717.0 322.5 -717.0 339.0 -717.0 355.0 -703.5 370.5 -690.5 374.0 -673.0 374.0 -660.5 369.5 -637.5 365.5 -614.5 357.5 -593.0 352.5 -575.5 345.5 -562.0 L333.0 -536.5 322.5 -513.0 Q315.5 -497.5 307.0 -481.5 290.0 -446.5 270.0 -408.5 250.0 -370.5 232.5 -340.0 L233.5 -341.0 219.0 -312.5 Q213.0 -300.0 205.0 -285.5 L207.0 -285.5 267.5 -285.5 Q303.0 -285.5 350.0 -287.5 L351.0 -287.5 Q351.0 -288.5 352.5 -288.5 L351.0 -288.5 Q354.5 -294.5 357.5 -301.0 353.5 -297.0 353.5 -312.0 353.5 -328.5 354.5 -347.0 L356.5 -413.5 Q357.5 -450.5 359.5 -474.0 362.5 -494.5 372.0 -507.0 382.0 -520.0 394.0 -527.0 406.5 -534.5 418.5 -537.0 430.0 -539.5 436.0 -539.5 496.5 -539.5 493.5 -464.5 L491.5 -414.5 Q490.5 -386.0 489.0 -360.5 L486.5 -316.5 485.5 -299.0 Q483.5 -292.5 481.5 -291.5 L503.0 -292.5 Q515.0 -293.5 525.5 -295.5 534.5 -297.0 545.5 -297.5 556.0 -298.0 566.5 -298.0 585.5 -295.5 599.5 -286.0 613.5 -276.5 616.5 -254.0" fill-rule="evenodd" stroke="none"/>
    </g>
    <g id="font_GosmickSansBold_o0">
      <path d="M361.5 -252.0 Q361.5 -284.5 354.5 -313.0 347.0 -341.0 334.5 -361.5 321.5 -382.0 302.5 -393.5 283.5 -405.5 260.0 -405.5 235.5 -405.5 215.5 -393.5 195.5 -382.0 181.0 -361.5 167.0 -341.0 159.0 -314.0 151.5 -286.5 151.5 -256.0 151.5 -226.5 158.0 -199.0 165.0 -172.0 178.0 -151.5 191.5 -131.0 210.0 -119.0 228.5 -106.5 253.0 -106.5 277.5 -106.5 297.5 -118.0 317.5 -129.0 332.0 -148.5 346.0 -168.0 354.0 -194.5 361.5 -221.0 361.5 -252.0 M486.5 -240.5 Q482.5 -186.0 462.5 -140.0 442.5 -94.0 410.5 -59.0 379.0 -24.5 336.5 -5.0 294.0 14.5 245.5 14.5 196.5 14.5 156.5 -5.5 116.5 -25.5 88.0 -59.5 59.0 -94.0 44.0 -140.5 28.5 -187.0 28.5 -240.5 28.5 -299.0 47.0 -349.5 65.5 -400.0 97.5 -437.5 130.0 -475.0 174.5 -496.5 219.0 -518.0 271.5 -518.0 322.5 -518.0 364.0 -496.0 405.5 -474.0 434.0 -436.5 463.0 -399.0 477.0 -348.5 490.5 -298.0 486.5 -240.5" fill-rule="evenodd" stroke="none"/>
    </g>
    <g id="font_GosmickSansBold_f0">
      <path d="M435.0 -676.0 L436.0 -668.0 434.5 -650.5 Q434.0 -643.5 434.0 -636.0 433.0 -605.5 426.5 -590.0 420.0 -574.5 395.5 -572.5 372.5 -569.5 363.5 -580.5 354.5 -591.0 349.0 -605.5 347.0 -612.5 342.0 -618.5 337.0 -625.0 319.5 -623.0 292.0 -623.0 274.5 -591.0 257.0 -559.5 258.0 -503.0 L280.5 -503.0 285.0 -503.5 290.0 -504.0 323.5 -504.0 Q359.5 -504.0 376.0 -490.5 392.0 -477.0 392.0 -449.5 391.0 -434.0 386.0 -423.0 381.0 -411.5 368.0 -404.5 355.5 -397.0 332.5 -392.5 309.5 -388.0 273.5 -386.0 262.0 -383.0 259.0 -373.0 256.0 -363.5 256.0 -346.0 L256.0 -320.5 Q255.0 -306.0 255.0 -289.5 L255.0 -257.0 255.0 -153.5 Q255.0 -139.0 256.0 -125.5 L258.0 -97.0 258.0 -68.5 Q258.0 -1.0 205.0 16.5 172.0 28.0 155.5 18.5 139.5 9.5 131.5 -11.5 124.0 -32.5 123.5 -60.5 123.0 -88.0 123.0 -115.5 L123.0 -364.5 Q123.0 -374.5 121.0 -376.5 119.0 -379.0 112.5 -377.5 L80.0 -377.5 Q52.0 -377.5 41.0 -390.5 29.5 -403.5 27.5 -419.5 L29.5 -413.5 Q27.5 -425.0 33.5 -444.0 39.0 -462.5 45.0 -471.0 L45.0 -470.0 Q56.5 -484.0 73.5 -488.5 91.0 -492.5 108.5 -494.5 L120.0 -495.5 Q127.0 -495.5 129.0 -494.5 130.0 -543.5 141.5 -586.0 152.5 -629.0 174.0 -661.0 195.5 -693.5 228.0 -713.5 260.0 -733.5 304.0 -737.5 333.0 -737.5 356.0 -730.0 379.0 -722.0 396.0 -712.0 412.5 -701.5 423.0 -692.0 433.0 -682.0 435.0 -676.0" fill-rule="evenodd" stroke="none"/>
    </g>
    <g id="font_GosmickSansBold_20">
      <path d="M552.0 -81.0 Q555.0 -68.5 547.0 -54.0 538.5 -40.0 525.0 -28.5 511.0 -17.5 494.0 -10.0 477.0 -3.0 462.0 -3.0 L443.0 -4.5 Q434.0 -5.0 425.0 -5.0 L395.5 -5.0 326.5 -5.0 Q292.0 -5.0 256.5 -4.5 221.0 -4.0 188.5 -2.5 L128.0 1.0 130.0 1.0 122.5 2.5 112.5 3.0 Q103.5 3.0 93.0 -3.0 L92.0 -3.0 Q86.0 -7.0 80.0 -9.0 64.5 -17.5 52.0 -29.0 40.0 -41.0 38.0 -62.5 38.0 -75.5 45.5 -95.0 53.5 -114.5 66.0 -136.0 79.0 -157.5 93.5 -178.0 108.5 -198.5 122.0 -214.0 139.5 -233.5 158.0 -253.0 L192.5 -288.5 191.5 -288.5 Q232.5 -332.5 263.0 -367.0 294.0 -401.5 314.0 -429.5 334.0 -457.5 342.5 -481.5 351.0 -506.0 347.0 -529.5 347.0 -540.5 340.0 -551.0 333.0 -561.0 322.0 -569.0 311.5 -577.5 298.5 -582.5 285.5 -587.5 275.5 -588.5 251.0 -592.0 228.0 -585.0 205.0 -578.5 183.5 -564.0 169.0 -553.0 157.0 -538.0 145.5 -523.0 136.0 -510.0 125.0 -493.5 115.5 -482.0 106.5 -471.0 89.0 -471.0 37.0 -469.0 30.5 -518.0 27.5 -552.0 51.0 -586.0 75.0 -620.5 112.5 -647.5 150.5 -674.5 197.0 -691.5 243.5 -708.5 285.5 -708.5 324.5 -708.5 361.5 -695.5 398.5 -683.0 426.5 -659.5 454.5 -636.0 472.0 -603.5 489.5 -571.5 489.5 -531.5 489.5 -494.5 479.5 -462.0 470.0 -430.0 450.5 -399.0 431.0 -367.5 401.0 -335.0 370.5 -302.0 331.0 -264.0 293.0 -229.5 256.5 -194.0 220.0 -158.5 204.0 -130.0 205.0 -130.0 206.0 -131.0 L253.0 -134.0 Q261.0 -134.0 273.0 -134.5 284.5 -135.0 296.0 -135.0 314.5 -135.0 334.5 -134.5 L372.5 -133.0 405.0 -131.5 Q420.0 -131.0 432.0 -131.0 493.5 -132.0 521.5 -118.0 550.0 -104.5 552.0 -81.0" fill-rule="evenodd" stroke="none"/>
    </g>
    <g id="font_GosmickSansBold_30">
      <path d="M546.0 -214.0 Q546.0 -167.0 526.5 -125.5 507.0 -84.0 471.5 -53.0 436.0 -22.5 388.0 -4.5 340.0 13.5 283.5 13.5 239.5 13.5 196.5 0.5 153.5 -12.0 118.5 -33.0 83.0 -54.0 59.5 -82.5 36.0 -110.5 30.5 -141.0 L31.5 -139.0 Q28.5 -153.5 33.5 -167.5 38.0 -181.0 48.0 -192.0 58.5 -202.5 71.0 -209.5 84.0 -216.0 96.5 -216.0 112.5 -216.0 122.5 -209.5 132.0 -202.5 142.5 -185.5 168.0 -152.5 197.0 -130.0 226.5 -107.5 273.5 -103.5 304.0 -101.5 329.0 -108.0 354.5 -114.5 372.0 -127.5 390.0 -140.0 400.0 -158.0 409.5 -176.0 409.5 -197.5 409.5 -226.0 397.0 -249.5 384.0 -272.5 362.5 -288.5 341.0 -305.0 313.0 -314.0 284.5 -322.5 253.0 -323.5 L233.0 -322.0 207.0 -318.5 197.5 -318.5 Q174.0 -321.5 159.5 -330.5 145.5 -340.0 143.5 -360.5 140.5 -383.0 159.5 -407.0 179.0 -431.0 223.0 -435.0 246.0 -440.0 268.5 -447.0 291.0 -453.5 309.0 -463.0 327.5 -472.0 339.0 -486.0 350.0 -499.5 350.0 -518.0 350.0 -549.0 327.5 -567.0 305.0 -585.5 272.5 -591.0 236.5 -595.0 204.0 -581.0 171.0 -567.0 139.5 -541.5 134.0 -529.5 123.0 -523.5 111.5 -518.0 98.5 -518.0 73.5 -518.0 58.5 -537.0 43.0 -556.0 49.0 -580.5 54.5 -607.0 76.5 -630.5 98.5 -654.0 129.0 -671.0 159.5 -688.0 195.0 -698.0 230.5 -707.5 263.0 -707.5 313.5 -707.5 356.5 -693.5 399.5 -680.0 429.0 -655.0 459.0 -629.5 474.0 -595.0 489.5 -560.0 486.5 -519.0 481.5 -482.0 459.0 -450.5 436.0 -418.5 402.5 -395.0 L403.5 -395.0 Q433.0 -383.0 459.5 -366.0 485.5 -349.0 504.5 -326.5 523.5 -304.0 534.5 -278.0 546.0 -252.0 546.0 -221.0 L546.0 -214.0" fill-rule="evenodd" stroke="none"/>
    </g>
    <g id="sprite2" transform="matrix(1.0, 0.0, 0.0, 1.0, 37.2, 10.4)">
      <use ffdec:characterId="2638" height="26.1" transform="matrix(1.0, 0.0, 0.0, 1.0, -37.2, -10.4)" width="74.4" xlink:href="#text1"/>
    </g>
    <g id="text1" transform="matrix(1.0, 0.0, 0.0, 1.0, -34.8, 2.0)">
      <g transform="matrix(1.0, 0.0, 0.0, 1.0, 34.8, -2.0)">
        <use fill="#145f49" height="26.1" transform="matrix(0.0137, 0.0, 0.0, 0.0137, 5.0, 15.25)" width="74.4" xlink:href="#font_GosmickSansBold_N0"/>
        <use fill="#145f49" height="26.1" transform="matrix(0.0137, 0.0, 0.0, 0.0137, 13.85, 15.25)" width="74.4" xlink:href="#font_GosmickSansBold_o0"/>
      </g>
      <g transform="matrix(1.0, 0.0, 0.0, 1.0, 34.8, -2.0)">
        <use fill="#145f49" height="26.1" transform="matrix(0.0137, 0.0, 0.0, 0.0137, 24.7, 15.25)" width="74.4" xlink:href="#font_GosmickSansBold_b0"/>
        <use fill="#145f49" height="26.1" transform="matrix(0.0137, 0.0, 0.0, 0.0137, 31.95, 15.25)" width="74.4" xlink:href="#font_GosmickSansBold_u0"/>
        <use fill="#145f49" height="26.1" transform="matrix(0.0137, 0.0, 0.0, 0.0137, 38.6, 15.25)" width="74.4" xlink:href="#font_GosmickSansBold_d0"/>
        <use fill="#145f49" height="26.1" transform="matrix(0.0137, 0.0, 0.0, 0.0137, 45.95, 15.25)" width="74.4" xlink:href="#font_GosmickSansBold_d0"/>
        <use fill="#145f49" height="26.1" transform="matrix(0.0137, 0.0, 0.0, 0.0137, 53.3, 15.25)" width="74.4" xlink:href="#font_GosmickSansBold_i0"/>
        <use fill="#145f49" height="26.1" transform="matrix(0.0137, 0.0, 0.0, 0.0137, 55.85, 15.25)" width="74.4" xlink:href="#font_GosmickSansBold_e0"/>
        <use fill="#145f49" height="26.1" transform="matrix(0.0137, 0.0, 0.0, 0.0137, 63.05, 15.25)" width="74.4" xlink:href="#font_GosmickSansBold_s0"/>
      </g>
    </g>
    <g id="font_GosmickSansBold_N0">
      <path d="M623.5 -102.5 L623.5 -100.5 Q623.5 -82.0 614.5 -66.0 613.5 -46.5 599.0 -34.5 584.5 -22.5 565.5 -16.5 547.0 -10.5 527.5 -9.5 508.0 -8.5 497.5 -11.5 489.5 -11.5 480.0 -16.5 464.0 -32.0 441.5 -60.0 419.0 -88.5 392.0 -124.5 365.5 -161.0 336.5 -204.0 307.5 -247.0 278.0 -292.0 249.0 -337.0 221.0 -382.0 192.5 -427.0 167.0 -468.0 L166.0 -468.0 166.0 -469.0 Q164.0 -448.5 164.0 -424.0 L164.0 -381.0 164.0 -260.5 Q164.0 -207.0 165.5 -169.5 167.0 -132.5 170.0 -105.5 172.0 -88.5 164.5 -68.5 157.0 -48.5 144.5 -31.5 132.0 -14.5 117.0 -3.0 101.5 9.0 88.0 9.0 64.5 9.0 48.0 -7.5 32.0 -24.0 32.0 -47.5 L32.0 -56.5 Q32.0 -64.5 33.0 -72.0 35.0 -105.5 37.5 -171.5 40.0 -238.0 40.0 -319.5 40.0 -379.0 39.5 -423.0 L38.5 -500.5 37.5 -559.5 Q37.0 -585.0 36.0 -607.5 36.0 -615.5 35.5 -623.5 35.0 -631.0 35.0 -639.0 35.0 -659.5 48.5 -676.5 61.5 -693.5 86.0 -700.5 102.5 -706.0 119.5 -705.0 136.5 -704.5 154.0 -695.0 171.0 -685.5 189.5 -664.0 208.0 -642.5 229.5 -605.5 260.0 -551.0 295.0 -495.0 330.0 -438.5 364.0 -386.5 398.5 -334.0 430.5 -288.5 463.0 -243.0 490.5 -210.0 489.5 -220.5 489.0 -234.5 488.5 -249.0 488.5 -274.5 L488.5 -343.5 Q488.5 -428.0 487.5 -501.5 486.5 -574.5 480.5 -643.5 478.5 -660.5 488.5 -675.0 498.5 -689.5 514.0 -699.0 529.5 -709.0 547.0 -712.5 564.5 -716.0 578.5 -712.0 601.0 -711.0 612.5 -694.5 623.5 -678.0 623.5 -638.0 623.5 -609.5 622.5 -573.5 621.5 -538.0 619.5 -499.0 617.5 -456.0 616.5 -409.0 615.5 -361.5 615.5 -322.0 L615.5 -275.5 Q615.5 -224.5 617.5 -181.5 619.5 -138.5 623.5 -102.5" fill-rule="evenodd" stroke="none"/>
    </g>
    <g id="font_GosmickSansBold_b0">
      <path d="M387.0 -245.0 L387.0 -267.5 Q387.0 -280.0 385.5 -291.0 384.0 -301.5 381.5 -309.5 379.0 -318.0 375.5 -321.0 368.5 -364.0 340.5 -382.5 312.5 -401.0 279.5 -401.0 250.0 -401.0 224.5 -384.0 199.5 -367.0 177.0 -340.5 172.0 -320.0 169.0 -299.5 166.0 -279.0 166.0 -255.5 L166.0 -249.5 Q166.0 -197.0 177.0 -155.0 L178.0 -154.0 Q197.5 -137.5 218.5 -123.0 239.5 -108.0 266.0 -108.0 318.5 -108.0 351.5 -146.5 385.0 -185.0 387.0 -245.0 M511.0 -252.0 Q511.0 -198.0 492.0 -149.5 473.0 -101.5 440.0 -66.5 406.5 -31.0 361.5 -10.5 316.5 10.0 264.0 10.0 223.5 10.0 193.0 3.5 163.0 -3.5 138.5 -24.0 136.0 -14.5 129.5 -6.5 123.0 2.0 114.5 7.0 106.5 12.0 97.5 13.5 88.0 15.0 80.0 11.0 L63.5 10.5 Q54.5 9.0 46.5 3.0 39.0 -3.5 34.5 -16.0 29.5 -29.0 30.5 -51.5 29.5 -59.5 29.0 -68.5 28.5 -77.0 28.5 -89.5 28.5 -116.0 30.0 -151.5 L34.0 -222.5 Q36.0 -254.0 37.0 -283.5 38.0 -312.5 38.0 -333.0 38.0 -382.0 38.5 -433.5 39.0 -484.5 40.0 -529.0 41.0 -573.5 42.5 -607.5 44.0 -641.0 46.0 -654.5 48.0 -679.0 61.0 -693.5 74.0 -707.5 90.0 -714.0 106.5 -720.0 123.0 -720.0 139.5 -720.0 150.5 -716.0 157.5 -714.0 166.5 -706.5 175.0 -699.5 177.0 -691.5 L176.0 -686.0 Q175.0 -681.0 174.0 -673.0 172.0 -658.5 170.5 -635.5 169.0 -612.5 169.0 -594.0 L169.0 -524.5 169.0 -499.0 Q169.0 -486.5 170.0 -474.5 187.5 -486.5 215.0 -499.5 242.5 -512.0 275.5 -515.0 322.5 -519.5 365.5 -503.5 408.5 -487.5 441.0 -456.0 473.0 -424.0 492.0 -379.0 511.0 -334.0 511.0 -278.5 L511.0 -252.0" fill-rule="evenodd" stroke="none"/>
    </g>
    <g id="font_GosmickSansBold_e0">
      <path d="M294.0 -311.5 Q311.5 -325.5 320.5 -340.0 329.5 -354.5 328.5 -368.5 326.5 -369.5 326.5 -370.5 326.5 -371.5 325.5 -372.5 323.5 -375.0 322.0 -378.0 320.5 -381.0 321.5 -380.0 313.5 -394.0 296.5 -402.0 279.5 -409.5 259.0 -409.5 237.5 -409.5 219.5 -399.5 201.5 -389.0 188.0 -372.0 174.0 -355.5 165.5 -333.5 156.5 -311.5 153.5 -289.0 159.5 -287.5 165.0 -288.5 L177.0 -290.0 Q210.0 -293.0 239.0 -298.0 268.5 -303.0 294.0 -311.5 M454.5 -187.0 Q470.0 -187.0 485.5 -175.5 500.5 -163.5 503.0 -147.0 L503.0 -148.0 Q509.0 -120.5 489.5 -92.0 470.0 -63.0 436.0 -40.0 402.5 -17.0 358.5 -2.5 314.5 12.5 270.5 12.5 215.0 12.5 170.5 -5.5 126.0 -23.5 94.0 -56.5 62.5 -90.0 45.5 -136.0 28.5 -182.0 28.5 -239.5 28.5 -297.0 47.0 -347.5 65.5 -398.0 98.0 -435.5 130.0 -473.0 175.5 -495.0 221.0 -517.0 275.5 -517.0 313.5 -517.0 346.5 -505.0 380.0 -493.5 404.0 -472.0 428.0 -450.5 442.0 -421.5 455.5 -393.0 455.5 -359.0 455.5 -301.0 419.5 -265.0 383.0 -229.0 322.5 -210.5 295.0 -202.5 275.0 -197.5 255.0 -192.0 239.0 -190.0 L211.0 -187.0 186.5 -186.0 Q178.0 -185.0 176.0 -186.0 174.0 -187.0 164.0 -185.0 165.0 -177.0 173.0 -160.5 187.5 -132.0 216.0 -115.5 244.5 -99.0 281.5 -99.0 331.0 -99.0 361.5 -119.5 392.0 -140.0 417.0 -166.5 434.0 -184.0 454.5 -187.0" fill-rule="evenodd" stroke="none"/>
    </g>
    <g id="sprite3" transform="matrix(1.0, 0.0, 0.0, 1.0, 0.0, -71.15)">
      <use ffdec:characterId="2640" height="206.75" transform="matrix(1.0, 0.0, 0.0, 1.0, 0.0, 71.15)" width="2062.9" xlink:href="#shape0"/>
    </g>
    <g id="shape0" transform="matrix(1.0, 0.0, 0.0, 1.0, 0.0, -71.15)">
      <path d="M2062.9 263.9 L2062.9 277.9 0.0 277.9 0.0 263.9 2062.9 263.9" fill="#1c981a" fill-rule="evenodd" stroke="none"/>
      <path d="M0.0 263.9 L0.0 71.15 2062.9 71.15 2062.9 263.9 0.0 263.9" fill="#35b732" fill-rule="evenodd" stroke="none"/>
    </g>
    <g id="sprite4" transform="matrix(1.0, 0.0, 0.0, 1.0, 2.5, -7.5)">
      <use ffdec:characterId="2642" height="83.95" transform="matrix(1.0, 0.0, 0.0, 1.0, -2.5, 7.5)" width="628.5" xlink:href="#shape1"/>
    </g>
    <g id="shape1" transform="matrix(1.0, 0.0, 0.0, 1.0, 2.5, -7.5)">
      <path d="M618.95 39.75 L618.95 77.45 Q618.95 81.2 618.25 84.25 L617.85 84.6 617.8 84.6 Q612.85 88.95 603.5 88.95 L20.0 88.95 Q0.0 88.95 0.0 68.95 L0.0 39.75 618.95 39.75" fill="#dcf7dc" fill-rule="evenodd" stroke="none"/>
      <path d="M618.95 39.75 L623.5 39.75 623.5 68.95 Q623.5 79.2 618.25 84.25 618.95 81.2 618.95 77.45 L618.95 39.75" fill="#add9ad" fill-rule="evenodd" stroke="none"/>
      <path d="M618.25 84.25 Q623.5 79.2 623.5 68.95 L623.5 39.75 M0.0 39.75 L0.0 68.95 Q0.0 88.95 20.0 88.95 L603.5 88.95 Q612.85 88.95 617.8 84.6 L617.85 84.6 618.25 84.25" fill="none" stroke="#158e13" stroke-linecap="round" stroke-linejoin="round" stroke-width="5.0"/>
      <path d="M623.5 49.75 L618.95 49.75 618.95 38.5 Q618.95 18.5 598.95 18.5 L15.45 18.5 Q5.7 18.5 0.75 23.25 3.7 10.0 20.0 10.0 L603.5 10.0 Q623.5 10.0 623.5 30.0 L623.5 49.75" fill="#add9ad" fill-rule="evenodd" stroke="none"/>
      <path d="M618.95 49.75 L0.0 49.75 0.0 30.0 0.1 27.35 0.6 23.85 0.75 23.25 Q5.7 18.5 15.45 18.5 L598.95 18.5 Q618.95 18.5 618.95 38.5 L618.95 49.75" fill="#dcf7dc" fill-rule="evenodd" stroke="none"/>
      <path d="M0.0 49.75 L0.0 30.0 0.1 27.35 0.6 23.85 0.75 23.25 Q3.7 10.0 20.0 10.0 L603.5 10.0 Q623.5 10.0 623.5 30.0 L623.5 49.75" fill="none" stroke="#158e13" stroke-linecap="round" stroke-linejoin="round" stroke-width="5.0"/>
    </g>
    <g id="button0" transform="matrix(1.0, 0.0, 0.0, 1.0, 5.2, 4.9)">
      <use ffdec:characterId="2644" height="72.95" transform="matrix(1.0, 0.0, 0.0, 1.0, -5.2, -4.9)" width="93.4" xlink:href="#shape2"/>
      <filter id="filter34">
        <feOffset dx="-0.7814352685846861" dy="1.8410211625649444" in="SourceGraphic" result="filterResult9"/>
        <feColorMatrix in="filterResult9" result="filterResult10" type="matrix" values="0 0 0 0 0.70980394,0 0 0 0 0.8666667,0 0 0 0 1.0,0 0 0 1 0"/>
        <feColorMatrix in="filterResult10" result="filterResult11" type="matrix" values="1 0 0 0 0,0 1 0 0 0,0 0 1 0 0,0 0 0 0.56640625 0"/>
        <feComposite in="filterResult11" in2="SourceGraphic" operator="out" result="filterResult12"/>
        <feOffset dx="0.7814352685846864" dy="-1.8410211625649442" in="SourceGraphic" result="filterResult13"/>
        <feColorMatrix in="filterResult13" result="filterResult14" type="matrix" values="0 0 0 0 0.0,0 0 0 0 0.15294118,0 0 0 0 0.42352942,0 0 0 1 0"/>
        <feColorMatrix in="filterResult14" result="filterResult15" type="matrix" values="1 0 0 0 0,0 1 0 0 0,0 0 1 0 0,0 0 0 0.56640625 0"/>
        <feComposite in="filterResult15" in2="SourceGraphic" operator="out" result="filterResult16"/>
        <feComposite in="filterResult12" in2="filterResult16" operator="out" result="filterResult17"/>
        <feComposite in="filterResult16" in2="filterResult12" operator="out" result="filterResult18"/>
        <feComposite in="filterResult17" in2="filterResult18" operator="over" result="filterResult19"/>
        <feConvolveMatrix divisor="25.0" in="filterResult19" kernelMatrix="1 1 1 1 1 1 1 1 1 1 1 1 1 1 1 1 1 1 1 1 1 1 1 1 1" order="5 5" result="filterResult20"/>
        <feConvolveMatrix divisor="25.0" in="filterResult20" kernelMatrix="1 1 1 1 1 1 1 1 1 1 1 1 1 1 1 1 1 1 1 1 1 1 1 1 1" order="5 5" result="filterResult21"/>
        <feComposite in="filterResult21" in2="SourceGraphic" operator="out" result="filterResult22"/>
        <feComposite in="filterResult22" in2="SourceGraphic" operator="over" result="filterResult23"/>
      </filter>
      <use ffdec:characterId="2649" filter="url(#filter34)" height="56.8" transform="matrix(1.0, 0.0, 0.0, 1.0, 3.1, 0.95)" width="73.85" xlink:href="#sprite5"/>
    </g>
    <g id="shape2" transform="matrix(1.0, 0.0, 0.0, 1.0, 5.2, 4.9)">
      <path d="M20.5 -0.5 Q41.5 -1.45 63.0 -0.25 83.0 0.0 83.95 20.0 84.5 31.5 83.95 43.25 83.0 63.0 63.0 63.75 41.0 64.5 19.75 63.5 0.0 63.0 -0.9 43.25 -1.45 31.0 -0.9 19.7 0.0 0.0 20.5 -0.5 Z" fill="none" stroke="#214687" stroke-linecap="round" stroke-linejoin="round" stroke-width="8.0"/>
      <path d="M2.9 14.1 L2.9 14.3 2.8 14.5 2.9 14.1" fill="#ffffff" fill-rule="evenodd" stroke="none"/>
      <path d="M80.25 7.3 Q83.6 12.1 83.95 20.0 84.5 31.5 83.95 43.25 83.3 56.9 73.5 61.5 69.15 63.5 63.0 63.75 41.0 64.5 19.75 63.5 5.25 63.15 0.9 52.35 -0.65 48.5 -0.9 43.25 -1.45 31.0 -0.9 19.7 -0.35 7.6 7.6 2.75 3.7 6.9 2.9 14.1 L2.8 14.5 2.9 14.3 2.75 16.1 Q2.25 26.65 2.75 38.1 3.6 56.6 22.1 57.05 41.95 58.0 62.55 57.3 74.8 56.85 79.4 48.75 L80.9 45.4 Q81.95 42.2 82.15 38.1 82.65 27.1 82.15 16.35 81.9 11.1 80.25 7.3" fill="#0073e7" fill-rule="evenodd" stroke="none"/>
      <path d="M7.6 2.75 Q12.6 -0.3 20.5 -0.5 41.5 -1.45 63.0 -0.25 75.1 -0.1 80.25 7.3 81.9 11.1 82.15 16.35 82.65 27.1 82.15 38.1 81.95 42.2 80.9 45.4 L79.4 48.75 Q74.8 56.85 62.55 57.3 41.95 58.0 22.1 57.05 3.6 56.6 2.75 38.1 2.25 26.65 2.75 16.1 L2.9 14.3 2.9 14.1 Q3.7 6.9 7.6 2.75 M21.7 2.4 Q14.45 2.55 9.8 5.35 13.85 4.25 19.95 3.9 L59.95 6.1 Q78.7 6.45 80.5 22.25 L81.3 30.75 81.05 21.55 Q80.15 2.85 61.45 2.6 41.35 1.5 21.7 2.4" fill="url(#gradient0)" fill-rule="evenodd" stroke="none"/>
      <path d="M21.7 2.4 Q41.35 1.5 61.45 2.6 80.15 2.85 81.05 21.55 L81.3 30.75 80.5 22.25 Q78.7 6.45 59.95 6.1 L19.95 3.9 Q13.85 4.25 9.8 5.35 14.45 2.55 21.7 2.4" fill="#b5ddff" fill-rule="evenodd" stroke="none"/>
    </g>
    <radialGradient cx="0" cy="0" gradientTransform="matrix(0.0723, 0.0, 0.0, 0.0511, 54.8, 18.25)" gradientUnits="userSpaceOnUse" id="gradient0" r="819.2" spreadMethod="pad">
      <stop offset="0.3843137254901961" stop-color="#5ab8ff"/>
      <stop offset="1.0" stop-color="#0f88ff"/>
    </radialGradient>
    <g id="sprite5" transform="matrix(1.0, 0.0, 0.0, 1.0, 12.75, 10.7)">
      <use ffdec:characterId="2645" height="44.5" transform="matrix(1.0, 0.0, 0.0, 1.0, -0.45, -2.25)" width="48.85" xlink:href="#shape3"/>
      <clipPath id="clipPath1">
        <path d="M 26.59 0.73 L 26.42 0.75 L 26.23 0.81 L 26.03 0.91 L 25.8 1.05 L 4.4 16.7 L 4.06 17.02 L 3.75 17.35 L 3.47 17.67 L 3.24 18 L 3.04 18.33 L 2.87 18.65 L 2.74 18.98 L 2.65 19.3 L 2.55 19.9 L 2.57 20.11 L 2.61 20.32 L 2.66 20.53 L 2.72 20.74 L 2.8 20.95 L 2.88 21.15 L 2.98 21.36 L 3.09 21.56 L 3.21 21.77 L 3.34 21.97 L 3.49 22.17 L 3.65 22.37 L 4 22.76 L 4.4 23.15 L 26.1 39.05 L 26.23 39.11 L 26.36 39.15 L 26.47 39.17 L 26.58 39.18 L 26.7 39.17 L 26.8 39.13 L 26.89 39.07 L 26.97 38.99 L 27.04 38.88 L 27.09 38.74 L 27.13 38.58 L 27.15 38.4 L 27.15 28.7 L 44.25 28.7 L 44.38 28.69 L 44.51 28.67 L 44.63 28.64 L 44.73 28.6 L 44.83 28.55 L 44.93 28.49 L 45.01 28.42 L 45.09 28.34 L 45.16 28.25 L 45.21 28.15 L 45.27 28.04 L 45.31 27.92 L 45.34 27.79 L 45.37 27.66 L 45.4 27.35 L 45.4 12.5 L 45.39 12.34 L 45.37 12.18 L 45.34 12.04 L 45.3 11.91 L 45.26 11.79 L 45.2 11.68 L 45.13 11.58 L 45.06 11.49 L 44.98 11.41 L 44.88 11.34 L 44.78 11.28 L 44.67 11.23 L 44.55 11.2 L 44.42 11.17 L 44.29 11.15 L 44.14 11.15 L 44.05 11.15 L 27.15 11.15 L 27.15 2.2 L 27.16 1.86 L 27.15 1.56 L 27.12 1.31 L 27.06 1.1 L 27.02 1.01 L 26.98 0.94 L 26.93 0.88 L 26.87 0.82 L 26.81 0.78 L 26.74 0.76 L 26.67 0.74 L 26.59 0.73 Z"/>
      </clipPath>
      <g clip-path="url(#clipPath1)">
        <filter id="filter33">
          <feConvolveMatrix divisor="4.0" in="SourceGraphic" kernelMatrix="1 1 1 1" order="2 2" result="filterResult7"/>
          <feConvolveMatrix divisor="4.0" in="filterResult7" kernelMatrix="1 1 1 1" order="2 2" result="filterResult8"/>
        </filter>
        <use ffdec:characterId="2648" filter="url(#filter33)" height="56.8" transform="matrix(1.0, 0.0, 0.0, 1.0, -12.75, -10.7)" width="73.85" xlink:href="#sprite6"/>
      </g>
    </g>
    <g id="shape3" transform="matrix(1.0, 0.0, 0.0, 1.0, 0.45, 2.25)">
      <path d="M44.25 28.7 L27.15 28.7 27.15 38.8 Q27.05 39.5 26.1 39.05 L4.4 23.15 Q2.7 21.6 2.55 19.9 L2.65 19.3 Q2.95 18.0 4.4 16.7 L25.25 1.3 Q27.3 0.05 27.55 1.7 L27.15 11.15 44.05 11.15 Q45.35 11.1 45.4 12.5 L45.4 27.35 Q45.35 28.65 44.25 28.7 Z" fill="none" stroke="#214687" stroke-linecap="round" stroke-linejoin="round" stroke-width="6.0"/>
    </g>
    <g id="sprite6" transform="matrix(1.0, 0.0, 0.0, 1.0, 15.3, 11.45)">
      <use ffdec:characterId="2647" height="56.8" transform="matrix(1.0, 0.0, 0.0, 1.0, -15.3, -11.45)" width="73.85" xlink:href="#shape4"/>
    </g>
    <g id="shape4" transform="matrix(1.0, 0.0, 0.0, 1.0, 15.3, 11.45)">
      <path d="M58.55 21.75 L58.55 45.35 -15.3 45.35 -15.3 17.7 58.55 21.75" fill="#ffffff" fill-rule="evenodd" stroke="none"/>
      <path d="M58.55 21.75 L-15.3 17.7 -15.3 -11.45 58.55 -11.45 58.55 21.75" fill="#8ba8b8" fill-rule="evenodd" stroke="none"/>
      <path d="M42.85 24.55 L42.85 26.6 Q42.8 27.9 41.7 27.95 L24.6 27.95 24.6 37.65 Q24.5 38.75 23.55 38.3 L1.85 22.4 Q0.35 21.0 0.05 19.5 0.95 21.45 2.4 22.15 11.4 29.0 21.0 34.3 23.2 35.05 23.4 33.25 L23.65 28.4 Q23.55 26.75 28.15 27.0 L36.95 26.7 Q41.15 26.15 42.85 24.55" fill="#ffffff" fill-rule="evenodd" stroke="none"/>
      <path d="M42.85 22.15 L42.85 24.55 Q41.15 26.15 36.95 26.7 L28.15 27.0 Q23.55 26.75 23.65 28.4 L23.4 33.25 Q23.2 35.05 21.0 34.3 11.4 29.0 2.4 22.15 0.95 21.45 0.05 19.5 L0.0 19.15 0.1 18.55 0.35 17.85 Q1.8 20.9 5.65 23.15 L15.0 28.55 Q20.55 31.7 21.95 29.75 22.15 28.65 22.85 27.1 23.55 25.55 27.25 25.5 39.35 26.0 42.85 22.15" fill="#a4becd" fill-rule="evenodd" stroke="none"/>
      <path d="M42.85 19.75 L42.85 22.15 Q39.35 26.0 27.25 25.5 23.55 25.55 22.85 27.1 22.15 28.65 21.95 29.75 20.55 31.7 15.0 28.55 L5.65 23.15 Q1.8 20.9 0.35 17.85 L0.55 17.5 Q1.1 18.45 4.5 21.05 7.85 23.6 12.6 25.85 17.3 28.1 19.65 28.05 21.75 28.3 22.75 26.2 23.75 24.1 26.8 23.9 L37.35 23.15 Q40.9 22.25 41.85 21.4 42.75 20.5 42.85 19.75" fill="#bbd1de" fill-rule="evenodd" stroke="none"/>
      <path d="M0.55 17.5 L1.35 16.45 1.85 15.95 23.25 0.3 Q24.75 -0.7 24.6 1.45 L24.6 10.4 26.8 23.9 Q23.75 24.1 22.75 26.2 21.75 28.3 19.65 28.05 17.3 28.1 12.6 25.85 7.85 23.6 4.5 21.05 1.1 18.45 0.55 17.5" fill="url(#gradient1)" fill-rule="evenodd" stroke="none"/>
      <path d="M24.6 10.4 L41.5 10.4 Q42.8 10.35 42.85 11.75 L42.85 19.75 Q42.75 20.5 41.85 21.4 40.9 22.25 37.35 23.15 L26.8 23.9 24.6 10.4" fill="url(#gradient2)" fill-rule="evenodd" stroke="none"/>
    </g>
    <radialGradient cx="0" cy="0" gradientTransform="matrix(0.0451, -1.0E-4, 0.0, 0.019, 18.5, 8.5)" gradientUnits="userSpaceOnUse" id="gradient1" r="819.2" spreadMethod="pad">
      <stop offset="0.44313725490196076" stop-color="#ffffff"/>
      <stop offset="1.0" stop-color="#d6e4ec"/>
    </radialGradient>
    <radialGradient cx="0" cy="0" gradientTransform="matrix(0.0323, 0.0, 0.0, 0.0148, 27.75, 11.05)" gradientUnits="userSpaceOnUse" id="gradient2" r="819.2" spreadMethod="pad">
      <stop offset="0.44313725490196076" stop-color="#ffffff"/>
      <stop offset="1.0" stop-color="#d6e4ec"/>
    </radialGradient>
    <g id="text2" transform="matrix(1.0, 0.0, 0.0, 1.0, 2.0, 2.0)">
      <g transform="matrix(1.0, 0.0, 0.0, 1.0, -2.0, -2.0)">
        <use fill="#000000" height="81.45" transform="matrix(0.0566, 0.0, 0.0, 0.0566, 0.0, 57.7)" width="695.65" xlink:href="#font_GosmickSans_S0"/>
        <use fill="#000000" height="81.45" transform="matrix(0.0566, 0.0, 0.0, 0.0566, 35.75, 57.7)" width="695.65" xlink:href="#font_GosmickSans_E0"/>
        <use fill="#000000" height="81.45" transform="matrix(0.0566, 0.0, 0.0, 0.0566, 69.2, 57.7)" width="695.65" xlink:href="#font_GosmickSans_A0"/>
        <use fill="#000000" height="81.45" transform="matrix(0.0566, 0.0, 0.0, 0.0566, 107.85, 57.7)" width="695.65" xlink:href="#font_GosmickSans_R0"/>
        <use fill="#000000" height="81.45" transform="matrix(0.0566, 0.0, 0.0, 0.0566, 143.7, 57.7)" width="695.65" xlink:href="#font_GosmickSans_C0"/>
        <use fill="#000000" height="81.45" transform="matrix(0.0566, 0.0, 0.0, 0.0566, 179.75, 57.7)" width="695.65" xlink:href="#font_GosmickSans_H0"/>
      </g>
    </g>
    <g id="font_GosmickSans_S0">
      <path d="M566.5 -209.0 Q564.0 -193.5 559.0 -173.5 554.0 -153.5 546.5 -134.0 538.5 -114.5 528.5 -98.0 518.0 -82.0 506.0 -74.5 481.5 -47.0 453.5 -30.5 426.0 -14.5 396.5 -5.0 366.5 4.0 336.0 7.0 305.0 10.5 275.5 12.5 231.5 15.5 188.5 6.5 145.5 -2.0 111.5 -19.5 78.0 -37.0 57.0 -62.0 36.0 -87.0 36.0 -117.5 36.0 -137.0 46.5 -155.5 57.5 -174.0 81.0 -174.0 88.0 -174.0 99.5 -168.5 110.5 -162.5 110.5 -153.5 128.0 -110.5 168.0 -92.5 208.0 -74.5 255.0 -72.5 296.0 -70.5 337.0 -80.5 378.0 -90.0 409.0 -108.5 440.5 -127.0 457.0 -154.0 474.0 -181.0 469.0 -215.0 464.0 -242.5 444.5 -261.5 425.0 -280.5 397.0 -293.5 368.5 -306.0 335.0 -314.0 301.0 -321.5 268.5 -327.5 159.5 -348.0 106.5 -385.0 53.5 -422.0 44.0 -488.5 38.0 -535.5 61.5 -576.0 85.0 -616.5 126.5 -645.0 168.0 -673.5 220.5 -690.0 273.5 -706.5 324.5 -706.5 L365.0 -704.5 Q387.0 -702.5 408.0 -696.5 429.0 -690.0 447.0 -680.0 465.0 -669.5 475.0 -653.0 480.5 -642.0 489.0 -628.5 497.5 -615.5 489.5 -606.0 494.5 -595.0 487.5 -583.5 480.5 -572.5 467.5 -562.0 454.5 -552.0 441.0 -544.5 427.0 -537.5 418.0 -536.5 413.5 -537.5 415.5 -549.0 418.0 -560.0 414.5 -571.5 414.5 -588.5 400.0 -600.0 385.0 -611.5 364.0 -618.0 343.0 -624.5 320.5 -626.5 298.0 -628.5 282.5 -627.5 250.0 -625.5 222.0 -616.0 194.5 -606.0 176.0 -590.0 157.5 -573.5 149.5 -552.5 141.5 -531.5 146.5 -508.0 152.5 -481.0 177.5 -461.0 203.0 -441.5 252.0 -428.0 272.5 -423.0 298.5 -417.5 324.5 -412.5 350.0 -406.5 403.5 -398.5 445.5 -381.5 487.5 -364.5 516.0 -340.0 545.0 -315.5 557.5 -282.0 570.5 -249.0 566.5 -209.0" fill-rule="evenodd" stroke="none"/>
    </g>
    <g id="font_GosmickSans_E0">
      <path d="M524.5 -74.5 Q530.5 -52.0 515.5 -35.5 501.0 -19.0 467.5 -8.5 434.0 2.0 385.5 8.0 337.0 13.5 277.5 13.5 203.0 13.5 160.0 6.0 117.0 -2.0 95.5 -31.0 74.0 -60.5 69.0 -119.0 63.5 -178.0 63.5 -279.5 L63.5 -316.5 Q63.5 -326.5 63.0 -336.5 62.5 -346.0 62.5 -356.5 62.5 -405.5 69.0 -458.5 75.0 -511.0 76.0 -554.0 76.0 -576.5 70.5 -592.0 65.0 -607.5 57.0 -618.0 49.5 -629.0 43.5 -637.0 37.0 -645.0 36.0 -654.5 35.0 -675.0 45.0 -681.0 54.5 -687.0 75.0 -691.5 76.0 -691.5 81.0 -693.0 L92.0 -696.0 Q97.5 -697.5 102.0 -698.0 106.5 -698.5 107.5 -697.5 127.0 -702.5 154.5 -706.5 182.5 -711.0 214.5 -714.0 247.0 -717.0 281.5 -718.5 316.5 -720.0 350.5 -720.0 L369.5 -720.0 Q428.0 -720.0 459.5 -713.5 490.5 -706.5 492.5 -683.0 494.5 -673.0 488.0 -661.0 481.5 -649.5 469.0 -643.0 463.0 -637.0 450.5 -634.5 438.5 -632.0 424.0 -631.5 409.5 -631.0 394.0 -631.5 378.0 -632.0 362.5 -632.0 L331.0 -632.0 Q312.5 -632.0 290.5 -631.5 L247.0 -629.0 Q225.5 -627.0 207.0 -622.0 188.5 -617.5 176.0 -610.5 L172.0 -579.5 Q169.0 -557.0 167.5 -528.0 166.0 -498.5 167.0 -466.5 168.0 -434.0 176.0 -406.5 205.0 -407.5 240.5 -410.5 L312.0 -416.5 378.5 -422.5 429.0 -425.0 Q470.0 -425.0 473.0 -396.0 475.0 -382.0 462.5 -367.5 449.5 -353.0 429.0 -346.0 L410.5 -346.0 Q394.5 -341.0 379.5 -339.5 L342.0 -337.0 276.0 -333.5 Q248.0 -332.5 227.0 -329.5 206.0 -326.5 192.0 -322.0 178.0 -317.5 169.0 -308.0 168.0 -298.0 167.5 -287.5 167.0 -277.5 167.0 -266.0 167.0 -241.5 168.0 -216.0 169.0 -190.5 170.5 -167.5 172.0 -145.0 174.0 -127.0 176.0 -108.5 179.0 -98.0 189.5 -84.5 212.0 -79.5 234.5 -74.5 267.5 -74.5 320.5 -75.5 373.0 -81.0 425.0 -87.0 480.5 -99.0 486.5 -101.0 490.5 -101.0 519.0 -101.0 524.5 -74.5" fill-rule="evenodd" stroke="none"/>
    </g>
    <g id="font_GosmickSans_A0">
      <path d="M435.0 -296.0 Q412.5 -364.5 387.5 -437.0 362.5 -509.0 341.0 -577.5 339.0 -577.5 334.5 -568.0 329.5 -558.0 326.5 -550.0 299.0 -478.5 269.5 -417.0 239.5 -355.5 216.0 -292.0 255.0 -296.0 308.0 -293.5 361.5 -291.0 435.0 -296.0 M628.5 -32.0 Q631.0 -27.0 624.0 -20.0 617.5 -13.5 606.5 -7.5 596.0 -1.0 585.0 3.5 574.5 8.0 569.5 8.0 543.5 8.0 524.5 -35.0 505.0 -78.0 482.5 -145.5 479.0 -154.5 477.0 -165.5 475.0 -176.0 471.5 -186.5 468.0 -196.5 461.5 -203.0 454.5 -209.0 442.5 -209.0 425.0 -209.0 399.0 -210.0 372.5 -211.0 344.5 -211.5 L289.5 -212.5 240.5 -211.0 Q211.0 -208.0 197.0 -204.0 183.5 -199.5 178.0 -194.0 173.0 -188.5 171.0 -181.5 169.0 -174.0 162.0 -165.0 153.5 -143.5 143.0 -113.5 132.0 -83.0 118.5 -56.0 104.5 -29.0 87.5 -10.0 70.5 9.0 51.0 9.0 38.0 9.0 26.5 -1.0 15.5 -11.5 15.5 -29.0 19.5 -44.0 30.0 -68.0 41.0 -91.5 58.5 -135.5 68.5 -172.0 84.0 -208.5 99.5 -245.0 116.5 -288.0 138.0 -337.0 163.0 -400.5 187.5 -464.0 212.5 -523.0 237.5 -581.5 260.5 -628.5 283.5 -675.0 301.0 -690.0 316.5 -704.5 337.0 -714.0 357.5 -723.0 368.5 -723.0 387.0 -723.0 398.5 -711.5 409.5 -700.5 415.5 -684.0 422.0 -667.5 426.0 -648.5 430.0 -629.0 435.0 -613.5 471.0 -502.0 507.5 -391.0 543.5 -279.5 579.5 -166.0 583.5 -154.0 591.5 -134.5 599.0 -115.0 607.0 -95.0 615.5 -75.0 621.5 -58.0 627.5 -41.0 628.5 -32.0" fill-rule="evenodd" stroke="none"/>
    </g>
    <g id="font_GosmickSans_R0">
      <path d="M439.5 -490.5 Q447.5 -517.0 438.5 -542.5 429.0 -568.5 408.0 -589.0 387.0 -609.5 358.0 -622.0 328.5 -635.0 297.0 -635.0 265.0 -635.0 235.0 -632.0 205.0 -628.5 187.5 -624.5 185.5 -605.0 184.5 -579.5 L182.5 -527.5 Q182.5 -488.5 180.5 -463.5 L178.0 -421.0 Q177.0 -403.5 176.0 -392.0 175.0 -381.0 175.0 -370.5 191.5 -364.5 216.0 -364.5 258.0 -364.5 297.0 -373.0 336.0 -382.0 366.0 -398.0 396.5 -413.5 415.5 -437.0 435.0 -461.0 439.5 -490.5 M593.0 -45.0 Q596.0 -41.0 591.5 -33.0 587.0 -24.5 578.0 -17.0 569.5 -9.5 558.0 -3.0 547.0 3.0 536.5 3.0 525.5 3.0 510.0 -6.0 494.5 -15.5 478.0 -28.5 462.0 -42.0 446.5 -56.5 431.0 -70.5 420.0 -81.0 383.0 -115.0 343.0 -148.0 303.0 -181.5 268.5 -209.0 233.5 -236.5 208.5 -255.0 183.5 -273.5 177.0 -277.5 174.0 -267.5 173.0 -250.5 172.0 -233.5 172.0 -212.0 172.0 -185.5 173.0 -155.5 174.0 -126.0 179.0 -96.5 182.5 -76.0 177.5 -57.5 173.0 -39.0 164.5 -24.5 155.5 -10.5 143.0 -2.0 130.0 6.0 115.5 6.0 87.0 6.0 82.0 -25.5 77.0 -44.0 74.0 -69.5 71.5 -95.5 70.5 -125.0 69.5 -154.5 69.0 -186.5 68.5 -218.0 68.5 -249.0 L68.5 -278.5 Q68.5 -306.0 70.0 -345.0 71.5 -384.0 73.5 -426.0 76.0 -468.0 78.0 -508.5 80.0 -548.5 82.0 -578.5 83.0 -586.5 80.0 -595.5 L75.0 -609.0 Q72.5 -611.0 66.5 -614.0 60.5 -617.5 54.0 -622.0 47.0 -626.5 41.5 -633.0 36.0 -640.0 36.0 -651.0 35.0 -667.5 57.5 -679.0 80.0 -691.0 114.0 -698.5 148.5 -706.5 188.5 -710.0 228.5 -713.5 264.0 -713.5 336.0 -713.5 391.5 -697.5 447.5 -682.0 484.5 -652.5 521.0 -623.5 538.0 -582.5 555.0 -541.5 548.0 -491.5 541.5 -449.5 516.5 -416.5 491.5 -384.0 451.5 -357.5 433.0 -345.0 412.5 -336.0 392.0 -326.5 374.0 -319.5 355.5 -312.5 340.5 -306.5 325.5 -301.0 316.5 -296.0 365.5 -250.0 414.5 -207.5 L503.5 -131.5 Q542.5 -98.5 567.5 -75.5 592.0 -52.5 593.0 -45.0" fill-rule="evenodd" stroke="none"/>
    </g>
    <g id="font_GosmickSans_C0">
      <path d="M572.5 -579.5 Q572.5 -563.0 569.5 -547.5 566.5 -531.5 558.5 -518.5 551.0 -506.0 538.5 -497.5 526.5 -489.5 509.0 -489.5 491.5 -489.5 484.5 -499.5 483.5 -500.5 482.5 -512.0 481.5 -523.5 478.0 -537.5 475.0 -552.0 468.5 -567.0 462.0 -581.5 450.5 -591.0 444.5 -597.0 427.5 -603.0 410.5 -609.5 389.5 -614.5 368.5 -619.5 347.5 -621.5 326.5 -623.5 311.5 -622.5 268.5 -618.5 234.5 -594.0 200.5 -569.5 178.0 -530.0 155.5 -490.5 145.0 -439.0 134.0 -387.0 137.0 -328.5 143.5 -206.0 201.0 -142.5 259.0 -79.0 349.0 -86.0 380.0 -88.0 403.5 -97.5 427.0 -106.5 452.5 -130.0 462.0 -138.0 471.0 -151.5 L490.0 -178.0 Q499.5 -191.5 511.0 -201.5 522.0 -212.0 535.5 -213.0 549.0 -215.0 559.0 -206.5 569.5 -197.5 571.5 -186.5 572.5 -180.0 570.0 -168.5 567.5 -156.5 562.5 -144.5 558.0 -132.0 553.5 -121.0 549.0 -109.5 546.0 -103.5 504.0 -48.0 445.5 -20.0 387.0 8.0 320.5 8.0 261.0 8.0 210.0 -15.0 158.5 -38.0 120.5 -79.5 82.0 -121.0 59.5 -178.0 37.0 -235.5 36.0 -304.0 34.0 -389.0 54.5 -462.5 75.0 -535.5 113.0 -590.0 151.5 -644.0 205.5 -676.5 259.0 -708.5 324.5 -711.5 349.0 -712.5 390.5 -706.5 432.0 -700.5 472.5 -685.0 513.0 -669.5 542.5 -643.5 572.5 -617.5 572.5 -579.5" fill-rule="evenodd" stroke="none"/>
    </g>
    <g id="font_GosmickSans_H0">
      <path d="M602.0 -677.0 Q602.0 -676.0 600.0 -672.5 598.0 -669.0 595.5 -656.5 593.0 -644.5 590.5 -620.0 588.0 -596.0 585.0 -555.5 582.5 -515.5 581.0 -455.5 579.5 -395.5 579.5 -310.5 L579.5 -253.0 Q579.5 -205.0 582.0 -166.0 584.5 -127.0 591.0 -94.5 594.0 -80.0 595.0 -64.5 596.0 -49.5 593.0 -35.5 590.0 -21.5 581.5 -10.0 573.5 2.0 558.0 8.0 558.0 14.0 547.0 11.0 535.5 8.0 525.5 8.0 510.0 8.0 500.5 -6.0 491.5 -19.5 487.0 -52.0 482.5 -84.0 479.5 -137.5 477.0 -190.5 476.0 -269.5 476.0 -282.0 476.5 -294.0 477.0 -306.5 477.0 -317.5 399.5 -316.5 316.0 -318.0 232.5 -319.5 138.0 -309.5 137.0 -289.0 138.0 -261.0 139.5 -232.5 139.5 -214.0 139.5 -177.5 141.5 -140.5 L145.5 -71.0 Q149.5 -53.5 143.0 -38.5 136.0 -23.5 124.5 -12.5 112.5 -1.0 99.5 5.5 86.0 12.5 79.0 12.5 65.5 12.5 56.5 4.0 47.0 -4.5 45.0 -17.5 42.0 -36.0 40.5 -61.5 39.0 -87.0 38.0 -117.0 37.0 -146.5 36.5 -180.0 36.0 -213.0 36.0 -247.0 L36.0 -329.0 Q36.0 -390.5 38.0 -447.5 40.0 -505.0 43.0 -563.5 44.0 -582.0 42.0 -605.5 40.0 -629.0 41.5 -650.5 43.0 -672.0 51.0 -689.0 59.5 -705.5 80.0 -711.0 110.5 -719.0 127.5 -709.5 144.5 -699.5 149.5 -691.5 149.5 -690.5 150.5 -685.5 151.5 -680.0 152.0 -673.5 152.5 -667.0 152.5 -660.5 152.5 -655.5 151.5 -653.5 148.5 -619.5 145.5 -572.0 142.5 -524.5 140.5 -472.5 139.5 -435.0 138.0 -397.5 175.0 -401.5 218.5 -403.5 262.0 -405.5 307.0 -405.5 L396.5 -405.5 480.5 -405.5 Q482.5 -440.5 486.0 -491.0 489.5 -542.0 489.5 -605.5 490.5 -611.5 490.0 -614.5 L487.5 -626.0 Q485.5 -638.0 485.0 -650.5 484.5 -662.5 488.5 -674.0 492.5 -685.0 502.0 -693.5 511.0 -701.5 529.5 -705.5 538.5 -711.0 554.0 -711.5 569.5 -712.0 580.5 -707.0 590.0 -704.5 596.5 -697.5 603.0 -690.5 602.0 -677.0" fill-rule="evenodd" stroke="none"/>
    </g>
  </defs>
</svg>
