<?xml version="1.0" encoding="UTF-8" standalone="no"?>
<svg xmlns:ffdec="https://www.free-decompiler.com/flash" xmlns:xlink="http://www.w3.org/1999/xlink" ffdec:objectType="morphshape" height="624.6px" width="973.7px" xmlns="http://www.w3.org/2000/svg">
  <g transform="matrix(1.0, 0.0, 0.0, 1.0, 80.8, 67.3)">
    <path d="M253.6 280.95 L253.6 280.95 Q252.9 285.4 255.45 288.7 257.95 291.9 262.25 292.75 266.8 293.6 271.3 291.4 279.3 287.4 285.7 279.45 293.15 270.4 299.05 271.05 304.55 271.65 304.85 279.85 298.75 305.1 311.65 304.1 337.0 296.3 336.65 307.85 L336.65 307.95 Q336.0 319.6 326.15 338.5 L325.95 338.9 Q315.75 358.05 321.0 361.3 326.05 364.65 333.0 357.0 L335.2 353.9 Q337.55 349.65 338.25 343.0 338.55 333.5 339.15 331.3 344.6 310.9 352.35 312.15 L352.65 312.25 Q360.6 314.1 359.55 330.6 358.55 346.9 373.8 348.25 376.9 348.5 379.55 348.25 389.8 347.3 393.1 339.15 397.45 329.0 406.15 330.6 410.55 331.5 412.75 333.9 414.85 336.3 414.55 339.9 L414.55 340.2 Q414.15 343.65 415.85 345.7 417.3 347.5 419.5 347.3 421.75 347.2 422.8 345.15 424.0 342.8 422.95 339.15 L422.95 338.95 Q421.7 334.6 426.65 330.5 430.95 326.9 436.55 327.6 438.1 327.8 439.75 328.35 442.55 329.25 447.0 334.3 450.2 337.95 454.65 337.25 457.3 336.8 460.35 334.75 466.45 330.7 474.6 329.4 477.45 329.1 480.25 328.8 493.55 328.0 500.45 329.95 515.3 334.2 523.5 332.3 L524.95 331.95 Q532.9 329.35 534.05 319.8 534.3 317.65 533.5 314.05 L532.2 308.4 Q531.35 302.35 538.15 301.5 539.8 301.3 541.0 300.7 L542.4 299.7 544.6 296.65 Q547.3 292.6 553.45 292.75 559.9 292.95 564.15 289.15 567.95 285.75 568.6 280.6 L568.65 280.1 Q569.25 274.4 565.95 269.25 562.3 263.55 554.85 260.35 549.6 258.1 548.1 253.5 547.35 251.2 547.55 248.3 548.2 239.7 556.95 230.2 562.8 225.65 561.3 218.4 560.25 213.45 555.85 207.25 544.8 191.9 545.2 188.95 543.55 184.8 551.85 182.45 555.45 181.45 560.95 180.8 567.7 179.4 570.0 175.95 L570.1 175.75 Q572.15 172.5 571.25 168.25 570.35 163.8 566.75 160.8 L566.05 160.25 Q560.0 155.65 551.05 157.35 546.35 158.2 540.85 160.75 L538.45 162.2 Q533.7 165.0 530.55 166.45 523.5 169.8 519.4 167.05 517.65 165.9 517.3 163.35 L517.0 158.4 Q516.65 152.95 511.95 150.5 L509.75 149.6 Q498.7 146.0 482.15 149.05 L476.75 149.7 Q463.05 150.25 465.45 136.75 L465.45 136.75 Q468.15 121.9 460.15 116.4 L459.0 115.75 Q447.65 109.9 434.75 109.8 423.7 109.75 415.65 114.95 408.05 119.8 403.05 129.3 401.45 132.4 397.75 136.4 394.3 140.05 392.75 140.9 383.95 145.75 377.8 142.75 L377.6 142.65 Q375.25 141.5 371.55 138.55 367.7 135.45 363.9 132.4 345.7 118.95 344.2 134.4 343.3 143.0 340.6 147.2 338.45 150.6 335.15 151.15 327.8 152.25 316.55 148.1 L315.75 147.8 Q308.15 144.75 300.75 147.25 296.6 148.65 295.05 151.6 293.3 154.85 294.7 160.05 L296.1 162.9 Q297.3 165.0 297.65 166.8 298.15 169.05 295.35 171.25 292.3 173.65 285.35 176.0 281.0 177.45 278.2 179.45 275.85 181.15 274.55 183.3 271.05 189.1 277.65 195.85 284.05 202.4 286.75 206.0 290.25 210.85 290.75 214.65 L290.85 216.15 Q291.0 223.1 280.3 220.45 274.35 218.95 269.95 221.5 266.05 223.75 264.55 227.9 L264.25 228.85 Q262.95 233.25 264.55 237.55 265.75 240.9 268.1 242.6 L269.65 243.45 Q273.6 245.2 278.25 242.3 280.1 241.2 281.9 240.85 L285.9 241.1 Q289.15 242.1 291.0 245.5 292.8 248.7 292.25 252.2 291.65 255.9 288.4 257.9 285.8 259.35 283.2 260.75 277.55 263.6 270.25 266.2 260.85 269.55 259.35 271.05 254.45 275.95 253.6 280.95" fill="#ff0000" fill-rule="evenodd" stroke="none">
      <animate attributeName="fill" dur="2s" repeatCount="indefinite" values="#ff0000;#ff0001"/>
      <animate attributeName="fill-opacity" dur="2s" repeatCount="indefinite" values="1.0;1.0"/>
      <animate attributeName="d" dur="2s" repeatCount="indefinite" values="M253.6 280.95 L253.6 280.95 Q252.9 285.4 255.45 288.7 257.95 291.9 262.25 292.75 266.8 293.6 271.3 291.4 279.3 287.4 285.7 279.45 293.15 270.4 299.05 271.05 304.55 271.65 304.85 279.85 298.75 305.1 311.65 304.1 337.0 296.3 336.65 307.85 L336.65 307.95 Q336.0 319.6 326.15 338.5 L325.95 338.9 Q315.75 358.05 321.0 361.3 326.05 364.65 333.0 357.0 L335.2 353.9 Q337.55 349.65 338.25 343.0 338.55 333.5 339.15 331.3 344.6 310.9 352.35 312.15 L352.65 312.25 Q360.6 314.1 359.55 330.6 358.55 346.9 373.8 348.25 376.9 348.5 379.55 348.25 389.8 347.3 393.1 339.15 397.45 329.0 406.15 330.6 410.55 331.5 412.75 333.9 414.85 336.3 414.55 339.9 L414.55 340.2 Q414.15 343.65 415.85 345.7 417.3 347.5 419.5 347.3 421.75 347.2 422.8 345.15 424.0 342.8 422.95 339.15 L422.95 338.95 Q421.7 334.6 426.65 330.5 430.95 326.9 436.55 327.6 438.1 327.8 439.75 328.35 442.55 329.25 447.0 334.3 450.2 337.95 454.65 337.25 457.3 336.8 460.35 334.75 466.45 330.7 474.6 329.4 477.45 329.1 480.25 328.8 493.55 328.0 500.45 329.95 515.3 334.2 523.5 332.3 L524.95 331.95 Q532.9 329.35 534.05 319.8 534.3 317.65 533.5 314.05 L532.2 308.4 Q531.35 302.35 538.15 301.5 539.8 301.3 541.0 300.7 L542.4 299.7 544.6 296.65 Q547.3 292.6 553.45 292.75 559.9 292.95 564.15 289.15 567.95 285.75 568.6 280.6 L568.65 280.1 Q569.25 274.4 565.95 269.25 562.3 263.55 554.85 260.35 549.6 258.1 548.1 253.5 547.35 251.2 547.55 248.3 548.2 239.7 556.95 230.2 562.8 225.65 561.3 218.4 560.25 213.45 555.85 207.25 544.8 191.9 545.2 188.95 543.55 184.8 551.85 182.45 555.45 181.45 560.95 180.8 567.7 179.4 570.0 175.95 L570.1 175.75 Q572.15 172.5 571.25 168.25 570.35 163.8 566.75 160.8 L566.05 160.25 Q560.0 155.65 551.05 157.35 546.35 158.2 540.85 160.75 L538.45 162.2 Q533.7 165.0 530.55 166.45 523.5 169.8 519.4 167.05 517.65 165.9 517.3 163.35 L517.0 158.4 Q516.65 152.95 511.95 150.5 L509.75 149.6 Q498.7 146.0 482.15 149.05 L476.75 149.7 Q463.05 150.25 465.45 136.75 L465.45 136.75 Q468.15 121.9 460.15 116.4 L459.0 115.75 Q447.65 109.9 434.75 109.8 423.7 109.75 415.65 114.95 408.05 119.8 403.05 129.3 401.45 132.4 397.75 136.4 394.3 140.05 392.75 140.9 383.95 145.75 377.8 142.75 L377.6 142.65 Q375.25 141.5 371.55 138.55 367.7 135.45 363.9 132.4 345.7 118.95 344.2 134.4 343.3 143.0 340.6 147.2 338.45 150.6 335.15 151.15 327.8 152.25 316.55 148.1 L315.75 147.8 Q308.15 144.75 300.75 147.25 296.6 148.65 295.05 151.6 293.3 154.85 294.7 160.05 L296.1 162.9 Q297.3 165.0 297.65 166.8 298.15 169.05 295.35 171.25 292.3 173.65 285.35 176.0 281.0 177.45 278.2 179.45 275.85 181.15 274.55 183.3 271.05 189.1 277.65 195.85 284.05 202.4 286.75 206.0 290.25 210.85 290.75 214.65 L290.85 216.15 Q291.0 223.1 280.3 220.45 274.35 218.95 269.95 221.5 266.05 223.75 264.55 227.9 L264.25 228.85 Q262.95 233.25 264.55 237.55 265.75 240.9 268.1 242.6 L269.65 243.45 Q273.6 245.2 278.25 242.3 280.1 241.2 281.9 240.85 L285.9 241.1 Q289.15 242.1 291.0 245.5 292.8 248.7 292.25 252.2 291.65 255.9 288.4 257.9 285.8 259.35 283.2 260.75 277.55 263.6 270.25 266.2 260.85 269.55 259.35 271.05 254.45 275.95 253.6 280.95;M-80.8 250.05 L-80.8 253.1 Q-80.55 261.65 -80.35 270.15 -79.9 278.35 -79.45 286.55 -78.75 296.35 -77.65 305.7 -75.25 326.25 -71.1 344.65 -67.25 361.6 -61.9 376.75 -57.7 388.7 -52.55 399.5 -38.8 428.4 -18.35 449.25 2.2 470.2 29.55 483.05 L29.85 483.15 Q53.35 494.05 95.6 496.3 L95.9 496.3 Q112.7 497.15 143.95 497.25 158.35 497.25 172.7 497.25 L180.45 497.25 Q192.95 497.4 204.75 497.85 216.35 498.5 227.95 499.1 255.6 501.0 278.45 504.8 L279.25 504.9 Q301.9 508.75 323.15 514.8 349.35 522.2 373.5 533.0 378.7 535.3 383.8 537.75 400.75 545.95 417.25 550.7 434.7 555.7 451.65 556.9 459.15 557.45 466.55 557.25 473.25 556.75 479.9 556.25 L480.45 556.15 Q486.2 555.2 491.95 554.3 496.05 553.35 500.1 552.45 504.2 551.3 508.3 550.15 514.4 548.1 520.45 546.05 L520.75 545.95 Q529.5 542.7 539.85 538.0 549.1 533.8 559.65 528.4 562.35 527.0 565.6 525.3 574.6 520.6 583.55 515.9 591.15 511.85 598.75 507.8 604.7 504.8 610.65 501.85 626.9 493.85 640.15 488.6 645.75 486.4 651.35 484.45 671.55 477.45 691.55 474.15 715.2 470.2 738.7 471.35 L741.9 471.5 Q759.5 472.15 775.75 469.65 781.6 468.5 787.45 467.4 L798.25 464.45 Q808.75 461.15 818.6 456.35 821.3 454.95 823.95 453.6 L827.3 451.75 833.7 447.85 Q842.7 442.0 850.45 435.0 859.2 427.1 866.3 417.75 872.45 409.65 877.4 400.5 L877.85 399.7 Q883.45 389.15 886.95 378.2 891.65 363.65 892.65 348.25 893.3 338.35 892.4 328.1 891.95 322.75 891.1 317.45 887.55 295.8 877.2 275.75 870.95 263.7 862.2 252.25 854.1 241.6 848.1 229.65 838.9 211.2 834.8 189.75 832.75 178.95 831.95 167.35 831.35 158.3 831.45 147.45 831.55 137.45 832.25 125.9 L832.25 125.4 Q832.9 117.15 833.5 108.95 834.15 99.45 834.75 89.95 L834.85 87.55 Q835.9 66.95 833.9 54.15 831.9 41.5 826.55 32.4 L823.3 27.6 Q818.25 21.05 810.5 16.2 801.55 10.65 789.0 7.3 784.4 6.25 779.85 5.25 L769.7 3.7 Q759.65 3.0 749.6 2.3 L745.0 2.1 Q722.6 0.65 688.95 -10.1 L678.8 -13.5 Q667.95 -17.25 639.35 -27.9 L638.75 -28.1 Q611.95 -38.05 595.75 -43.45 L592.95 -44.35 Q566.4 -53.1 542.6 -58.45 520.8 -63.4 501.3 -65.5 480.65 -67.75 460.6 -67.2 451.2 -66.65 441.85 -66.1 435.05 -65.25 428.25 -64.45 412.2 -62.15 396.6 -57.95 L396.2 -57.85 Q389.1 -55.95 381.65 -54.4 372.45 -52.5 362.75 -51.2 337.3 -47.8 308.5 -48.45 295.1 -49.15 281.7 -49.85 274.8 -50.5 267.95 -51.15 248.1 -53.65 228.25 -56.1 L226.6 -56.3 Q210.25 -58.5 193.95 -60.7 186.2 -61.65 178.5 -62.55 169.25 -63.3 160.05 -64.05 L153.55 -64.35 Q149.25 -64.45 144.95 -64.5 138.85 -64.55 133.4 -64.25 120.65 -63.55 109.65 -61.05 101.25 -59.15 93.9 -56.2 88.7 -54.1 83.85 -51.4 71.1 -44.35 60.7 -32.95 52.0 -23.5 44.9 -11.1 40.3 -3.0 36.4 6.35 L35.3 9.0 Q30.25 21.6 23.05 34.65 17.9 43.95 11.7 53.5 6.65 60.85 1.6 68.15 L0.55 69.6 Q-4.85 76.7 -10.2 83.8 -14.0 88.65 -17.75 93.45 L-20.35 96.8 Q-26.1 104.25 -31.85 111.7 -34.3 115.05 -36.75 118.35 L-41.75 125.4 Q-45.6 131.3 -49.45 137.15 -53.4 143.45 -56.75 149.6 -60.3 156.15 -63.25 162.5 -65.95 168.4 -68.1 174.15 -73.25 187.75 -76.3 202.5 -78.7 214.0 -79.8 226.2 -80.85 237.8 -80.8 250.05"/>
    </path>
    <path d="M253.6 280.95 Q254.45 275.95 259.35 271.05 260.85 269.55 270.25 266.2 277.55 263.6 283.2 260.75 285.8 259.35 288.4 257.9 291.65 255.9 292.25 252.2 292.8 248.7 291.0 245.5 289.15 242.1 285.9 241.1 L281.9 240.85 Q280.1 241.2 278.25 242.3 273.6 245.2 269.65 243.45 L268.1 242.6 Q265.75 240.9 264.55 237.55 262.95 233.25 264.25 228.85 L264.55 227.9 Q266.05 223.75 269.95 221.5 274.35 218.95 280.3 220.45 291.0 223.1 290.85 216.15 L290.75 214.65 Q290.25 210.85 286.75 206.0 284.05 202.4 277.65 195.85 271.05 189.1 274.55 183.3 275.85 181.15 278.2 179.45 281.0 177.45 285.35 176.0 292.3 173.65 295.35 171.25 298.15 169.05 297.65 166.8 297.3 165.0 296.1 162.9 L294.7 160.05 Q293.3 154.85 295.05 151.6 296.6 148.65 300.75 147.25 308.15 144.75 315.75 147.8 L316.55 148.1 Q327.8 152.25 335.15 151.15 338.45 150.6 340.6 147.2 343.3 143.0 344.2 134.4 345.7 118.95 363.9 132.4 367.7 135.45 371.55 138.55 375.25 141.5 377.6 142.65 L377.8 142.75 Q383.95 145.75 392.75 140.9 394.3 140.05 397.75 136.4 401.45 132.4 403.05 129.3 408.05 119.8 415.65 114.95 423.7 109.75 434.75 109.8 447.65 109.9 459.0 115.75 L460.15 116.4 Q468.15 121.9 465.45 136.75 L465.45 136.75 Q463.05 150.25 476.75 149.7 L482.15 149.05 Q498.7 146.0 509.75 149.6 L511.95 150.5 Q516.65 152.95 517.0 158.4 L517.3 163.35 Q517.65 165.9 519.4 167.05 523.5 169.8 530.55 166.45 533.7 165.0 538.45 162.2 L540.85 160.75 Q546.35 158.2 551.05 157.35 560.0 155.65 566.05 160.25 L566.75 160.8 Q570.35 163.8 571.25 168.25 572.15 172.5 570.1 175.75 L570.0 175.95 Q567.7 179.4 560.95 180.8 555.45 181.45 551.85 182.45 543.55 184.8 545.2 188.95 544.8 191.9 555.85 207.25 560.25 213.45 561.3 218.4 562.8 225.65 556.95 230.2 548.2 239.7 547.55 248.3 547.35 251.2 548.1 253.5 549.6 258.1 554.85 260.35 562.3 263.55 565.95 269.25 569.25 274.4 568.65 280.1 L568.6 280.6 Q567.95 285.75 564.15 289.15 559.9 292.95 553.45 292.75 547.3 292.6 544.6 296.65 L542.4 299.7 541.0 300.7 Q539.8 301.3 538.15 301.5 531.35 302.35 532.2 308.4 L533.5 314.05 Q534.3 317.65 534.05 319.8 532.9 329.35 524.95 331.95 L523.5 332.3 Q515.3 334.2 500.45 329.95 493.55 328.0 480.25 328.8 477.45 329.1 474.6 329.4 466.45 330.7 460.35 334.75 457.3 336.8 454.65 337.25 450.2 337.95 447.0 334.3 442.55 329.25 439.75 328.35 438.1 327.8 436.55 327.6 430.95 326.9 426.65 330.5 421.7 334.6 422.95 338.95 L422.95 339.15 Q424.0 342.8 422.8 345.15 421.75 347.2 419.5 347.3 417.3 347.5 415.85 345.7 414.15 343.65 414.55 340.2 L414.55 339.9 Q414.85 336.3 412.75 333.9 410.55 331.5 406.15 330.6 397.45 329.0 393.1 339.15 389.8 347.3 379.55 348.25 376.9 348.5 373.8 348.25 358.55 346.9 359.55 330.6 360.6 314.1 352.65 312.25 L352.35 312.15 Q344.6 310.9 339.15 331.3 338.55 333.5 338.25 343.0 337.55 349.65 335.2 353.9 L333.0 357.0 Q326.05 364.65 321.0 361.3 315.75 358.05 325.95 338.9 L326.15 338.5 Q336.0 319.6 336.65 307.95 L336.65 307.85 Q337.0 296.3 311.65 304.1 298.75 305.1 304.85 279.85 304.55 271.65 299.05 271.05 293.15 270.4 285.7 279.45 279.3 287.4 271.3 291.4 266.8 293.6 262.25 292.75 257.95 291.9 255.45 288.7 252.9 285.4 253.6 280.95 L253.6 280.95 Z" fill="none" stroke="#000000" stroke-linecap="round" stroke-linejoin="round" stroke-opacity="0.0" stroke-width="0.0">
      <animate attributeName="stroke" dur="2s" repeatCount="indefinite" values="#000000;#000001"/>
      <animate attributeName="stroke-width" dur="2s" repeatCount="indefinite" values="0.0;0.0"/>
      <animate attributeName="fill-opacity" dur="2s" repeatCount="indefinite" values="0.0;0.0"/>
      <animate attributeName="d" dur="2s" repeatCount="indefinite" values="M253.6 280.95 Q254.45 275.95 259.35 271.05 260.85 269.55 270.25 266.2 277.55 263.6 283.2 260.75 285.8 259.35 288.4 257.9 291.65 255.9 292.25 252.2 292.8 248.7 291.0 245.5 289.15 242.1 285.9 241.1 L281.9 240.85 Q280.1 241.2 278.25 242.3 273.6 245.2 269.65 243.45 L268.1 242.6 Q265.75 240.9 264.55 237.55 262.95 233.25 264.25 228.85 L264.55 227.9 Q266.05 223.75 269.95 221.5 274.35 218.95 280.3 220.45 291.0 223.1 290.85 216.15 L290.75 214.65 Q290.25 210.85 286.75 206.0 284.05 202.4 277.65 195.85 271.05 189.1 274.55 183.3 275.85 181.15 278.2 179.45 281.0 177.45 285.35 176.0 292.3 173.65 295.35 171.25 298.15 169.05 297.65 166.8 297.3 165.0 296.1 162.9 L294.7 160.05 Q293.3 154.85 295.05 151.6 296.6 148.65 300.75 147.25 308.15 144.75 315.75 147.8 L316.55 148.1 Q327.8 152.25 335.15 151.15 338.45 150.6 340.6 147.2 343.3 143.0 344.2 134.4 345.7 118.95 363.9 132.4 367.7 135.45 371.55 138.55 375.25 141.5 377.6 142.65 L377.8 142.75 Q383.95 145.75 392.75 140.9 394.3 140.05 397.75 136.4 401.45 132.4 403.05 129.3 408.05 119.8 415.65 114.95 423.7 109.75 434.75 109.8 447.65 109.9 459.0 115.75 L460.15 116.4 Q468.15 121.9 465.45 136.75 L465.45 136.75 Q463.05 150.25 476.75 149.7 L482.15 149.05 Q498.7 146.0 509.75 149.6 L511.95 150.5 Q516.65 152.95 517.0 158.4 L517.3 163.35 Q517.65 165.9 519.4 167.05 523.5 169.8 530.55 166.45 533.7 165.0 538.45 162.2 L540.85 160.75 Q546.35 158.2 551.05 157.35 560.0 155.65 566.05 160.25 L566.75 160.8 Q570.35 163.8 571.25 168.25 572.15 172.5 570.1 175.75 L570.0 175.95 Q567.7 179.4 560.95 180.8 555.45 181.45 551.85 182.45 543.55 184.8 545.2 188.95 544.8 191.9 555.85 207.25 560.25 213.45 561.3 218.4 562.8 225.65 556.95 230.2 548.2 239.7 547.55 248.3 547.35 251.2 548.1 253.5 549.6 258.1 554.85 260.35 562.3 263.55 565.95 269.25 569.25 274.4 568.65 280.1 L568.6 280.6 Q567.95 285.75 564.15 289.15 559.9 292.95 553.45 292.75 547.3 292.6 544.6 296.65 L542.4 299.7 541.0 300.7 Q539.8 301.3 538.15 301.5 531.35 302.35 532.2 308.4 L533.5 314.05 Q534.3 317.65 534.05 319.8 532.9 329.35 524.95 331.95 L523.5 332.3 Q515.3 334.2 500.45 329.95 493.55 328.0 480.25 328.8 477.45 329.1 474.6 329.4 466.45 330.7 460.35 334.75 457.3 336.8 454.65 337.25 450.2 337.95 447.0 334.3 442.55 329.25 439.75 328.35 438.1 327.8 436.55 327.6 430.95 326.9 426.65 330.5 421.7 334.6 422.95 338.95 L422.95 339.15 Q424.0 342.8 422.8 345.15 421.75 347.2 419.5 347.3 417.3 347.5 415.85 345.7 414.15 343.65 414.55 340.2 L414.55 339.9 Q414.85 336.3 412.75 333.9 410.55 331.5 406.15 330.6 397.45 329.0 393.1 339.15 389.8 347.3 379.55 348.25 376.9 348.5 373.8 348.25 358.55 346.9 359.55 330.6 360.6 314.1 352.65 312.25 L352.35 312.15 Q344.6 310.9 339.15 331.3 338.55 333.5 338.25 343.0 337.55 349.65 335.2 353.9 L333.0 357.0 Q326.05 364.65 321.0 361.3 315.75 358.05 325.95 338.9 L326.15 338.5 Q336.0 319.6 336.65 307.95 L336.65 307.85 Q337.0 296.3 311.65 304.1 298.75 305.1 304.85 279.85 304.55 271.65 299.05 271.05 293.15 270.4 285.7 279.45 279.3 287.4 271.3 291.4 266.8 293.6 262.25 292.75 257.95 291.9 255.45 288.7 252.9 285.4 253.6 280.95 L253.6 280.95 Z;M-80.8 250.05 Q-80.85 237.8 -79.8 226.2 -78.7 214.0 -76.3 202.5 -73.25 187.75 -68.1 174.15 -65.95 168.4 -63.25 162.5 -60.3 156.15 -56.75 149.6 -53.4 143.45 -49.45 137.15 -45.6 131.3 -41.75 125.4 L-36.75 118.35 Q-34.3 115.05 -31.85 111.7 -26.1 104.25 -20.35 96.8 L-17.75 93.45 Q-14.0 88.65 -10.2 83.8 -4.85 76.7 0.55 69.6 L1.6 68.15 Q6.65 60.85 11.7 53.5 17.9 43.95 23.05 34.65 30.25 21.6 35.3 9.0 L36.4 6.35 Q40.3 -3.0 44.9 -11.1 52.0 -23.5 60.7 -32.95 71.1 -44.35 83.85 -51.4 88.7 -54.1 93.9 -56.2 101.25 -59.15 109.65 -61.05 120.65 -63.55 133.4 -64.25 138.85 -64.55 144.95 -64.5 149.25 -64.45 153.55 -64.35 L160.05 -64.05 Q169.25 -63.3 178.5 -62.55 186.2 -61.65 193.95 -60.7 210.25 -58.5 226.6 -56.3 L228.25 -56.1 Q248.1 -53.65 267.95 -51.15 274.8 -50.5 281.7 -49.85 295.1 -49.15 308.5 -48.45 337.3 -47.8 362.75 -51.2 372.45 -52.5 381.65 -54.4 389.1 -55.95 396.2 -57.85 L396.6 -57.95 Q412.2 -62.15 428.25 -64.45 435.05 -65.25 441.85 -66.1 451.2 -66.65 460.6 -67.2 480.65 -67.75 501.3 -65.5 520.8 -63.4 542.6 -58.45 566.4 -53.1 592.95 -44.35 L595.75 -43.45 Q611.95 -38.05 638.75 -28.1 L639.35 -27.9 Q667.95 -17.25 678.8 -13.5 L688.95 -10.1 Q722.6 0.65 745.0 2.1 L749.6 2.3 Q759.65 3.0 769.7 3.7 L779.85 5.25 Q784.4 6.25 789.0 7.3 801.55 10.65 810.5 16.2 818.25 21.05 823.3 27.6 L826.55 32.4 Q831.9 41.5 833.9 54.15 835.9 66.95 834.85 87.55 L834.75 89.95 Q834.15 99.45 833.5 108.95 832.9 117.15 832.25 125.4 L832.25 125.9 Q831.55 137.45 831.45 147.45 831.35 158.3 831.95 167.35 832.75 178.95 834.8 189.75 838.9 211.2 848.1 229.65 854.1 241.6 862.2 252.25 870.95 263.7 877.2 275.75 887.55 295.8 891.1 317.45 891.95 322.75 892.4 328.1 893.3 338.35 892.65 348.25 891.65 363.65 886.95 378.2 883.45 389.15 877.85 399.7 L877.4 400.5 Q872.45 409.65 866.3 417.75 859.2 427.1 850.45 435.0 842.7 442.0 833.7 447.85 L827.3 451.75 823.95 453.6 Q821.3 454.95 818.6 456.35 808.75 461.15 798.25 464.45 L787.45 467.4 Q781.6 468.5 775.75 469.65 759.5 472.15 741.9 471.5 L738.7 471.35 Q715.2 470.2 691.55 474.15 671.55 477.45 651.35 484.45 645.75 486.4 640.15 488.6 626.9 493.85 610.65 501.85 604.7 504.8 598.75 507.8 591.15 511.85 583.55 515.9 574.6 520.6 565.6 525.3 562.35 527.0 559.65 528.4 549.1 533.8 539.85 538.0 529.5 542.7 520.75 545.95 L520.45 546.05 Q514.4 548.1 508.3 550.15 504.2 551.3 500.1 552.45 496.05 553.35 491.95 554.3 486.2 555.2 480.45 556.15 L479.9 556.25 Q473.25 556.75 466.55 557.25 459.15 557.45 451.65 556.9 434.7 555.7 417.25 550.7 400.75 545.95 383.8 537.75 378.7 535.3 373.5 533.0 349.35 522.2 323.15 514.8 301.9 508.75 279.25 504.9 L278.45 504.8 Q255.6 501.0 227.95 499.1 216.35 498.5 204.75 497.85 192.95 497.4 180.45 497.25 L172.7 497.25 Q158.35 497.25 143.95 497.25 112.7 497.15 95.9 496.3 L95.6 496.3 Q53.35 494.05 29.85 483.15 L29.55 483.05 Q2.2 470.2 -18.35 449.25 -38.8 428.4 -52.55 399.5 -57.7 388.7 -61.9 376.75 -67.25 361.6 -71.1 344.65 -75.25 326.25 -77.65 305.7 -78.75 296.35 -79.45 286.55 -79.9 278.35 -80.35 270.15 -80.55 261.65 -80.8 253.1 L-80.8 250.05 Z"/>
    </path>
  </g>
</svg>
