<?xml version="1.0" encoding="UTF-8" standalone="no"?>
<svg xmlns:ffdec="https://www.free-decompiler.com/flash" xmlns:xlink="http://www.w3.org/1999/xlink" ffdec:objectType="frame" height="29.0px" width="32.2px" xmlns="http://www.w3.org/2000/svg">
  <g transform="matrix(1.0, 0.0, 0.0, 1.0, 0.0, 0.0)">
    <use ffdec:characterId="2359" ffdec:characterName="core390_fla.controlTab_450" height="34.9" id="bg_mc" transform="matrix(0.8154, 0.0, 0.0, 0.8305, 0.0, 0.0)" width="39.5" xlink:href="#sprite0"/>
    <use ffdec:characterId="2362" height="15.9" transform="matrix(1.0, 0.0, 0.0, 1.0, 3.7, 6.3)" width="24.25" xlink:href="#shape1"/>
  </g>
  <defs>
    <g id="sprite0" transform="matrix(1.0, 0.0, 0.0, 1.0, 0.0, 0.0)">
      <use ffdec:characterId="2357" height="34.9" transform="matrix(1.0, 0.0, 0.0, 1.0, 0.0, 0.0)" width="39.5" xlink:href="#shape0"/>
    </g>
    <g id="shape0" transform="matrix(1.0, 0.0, 0.0, 1.0, 0.0, 0.0)">
      <path d="M36.25 3.05 L39.5 0.0 39.5 34.9 36.25 32.05 36.25 3.05" fill="#000000" fill-opacity="0.2784314" fill-rule="evenodd" stroke="none"/>
      <path d="M39.5 0.0 L36.25 3.05 2.95 3.05 0.0 0.0 39.5 0.0" fill="#ffffff" fill-opacity="0.4392157" fill-rule="evenodd" stroke="none"/>
      <path d="M0.0 0.0 L2.95 3.05 2.95 32.05 0.0 34.9 0.0 0.0" fill="#ffffff" fill-opacity="0.36078432" fill-rule="evenodd" stroke="none"/>
      <path d="M36.25 32.05 L39.5 34.9 0.0 34.9 2.95 32.05 36.25 32.05" fill="#000000" fill-opacity="0.4" fill-rule="evenodd" stroke="none"/>
      <path d="M36.25 3.05 L36.25 32.05 2.95 32.05 2.95 3.05 36.25 3.05" fill="#000000" fill-opacity="0.09019608" fill-rule="evenodd" stroke="none"/>
    </g>
    <g id="shape1" transform="matrix(1.0, 0.0, 0.0, 1.0, -3.7, -6.3)">
      <path d="M6.95 10.3 L14.4 6.75 Q14.7 6.55 15.05 6.5 L16.45 6.3 Q17.75 6.55 18.55 8.0 19.35 9.3 19.05 11.1 18.65 12.9 17.5 13.95 L16.35 14.7 10.05 19.1 10.0 19.05 Q11.5 17.85 11.8 15.75 12.2 13.7 11.2 11.95 10.4 10.35 8.65 10.15 L6.95 10.3" fill="url(#gradient0)" fill-rule="evenodd" stroke="none"/>
      <path d="M10.0 19.05 L9.8 19.25 9.25 19.6 Q8.2 20.2 7.0 20.05 5.3 19.7 4.4 18.15 3.45 16.55 3.8 14.45 4.15 12.4 5.65 11.05 6.15 10.65 6.6 10.4 L6.7 10.4 6.8 10.35 6.9 10.35 6.95 10.3 8.65 10.15 Q10.4 10.35 11.2 11.95 12.2 13.7 11.8 15.75 11.5 17.85 10.0 19.05 M6.75 11.95 L6.25 12.3 Q5.25 13.2 5.0 14.6 4.8 16.05 5.4 17.2 6.05 18.35 7.2 18.6 L8.7 18.25 9.25 17.85 9.95 17.15 10.55 15.55 10.6 14.4 Q10.55 13.6 10.1 12.95 L9.4 12.1 Q9.0 11.75 8.4 11.6 7.5 11.45 6.75 11.95" fill="#8484ff" fill-rule="evenodd" stroke="none"/>
      <path d="M6.75 11.95 Q7.5 11.45 8.4 11.6 9.0 11.75 9.4 12.1 L10.1 12.95 Q10.55 13.6 10.6 14.4 L10.55 15.55 9.95 17.15 9.25 17.85 8.7 18.25 7.2 18.6 Q6.05 18.35 5.4 17.2 4.8 16.05 5.0 14.6 5.25 13.2 6.25 12.3 L6.75 11.95" fill="url(#gradient1)" fill-rule="evenodd" stroke="none"/>
      <path d="M13.75 11.9 L19.1 12.65 17.8 13.9 13.9 13.35 13.75 11.9" fill="#484a9f" fill-rule="evenodd" stroke="none"/>
      <path d="M19.1 12.65 L13.75 11.9 16.75 10.15 21.9 10.8 19.1 12.65" fill="#000051" fill-rule="evenodd" stroke="none"/>
      <path d="M17.2 12.7 L22.95 8.8 23.05 8.7 23.1 8.65 23.4 8.5 Q24.25 7.95 25.2 8.15 26.7 8.4 27.35 9.75 28.15 11.15 27.85 12.9 27.55 14.65 26.4 15.8 L26.1 16.05 21.75 20.1 Q22.4 19.1 22.65 17.85 L22.75 16.25 Q22.6 15.1 22.05 14.1 L21.05 12.95 Q20.35 12.45 19.5 12.25 18.3 12.05 17.2 12.7" fill="url(#gradient2)" fill-rule="evenodd" stroke="none"/>
      <path d="M21.75 20.1 L20.8 21.15 20.0 21.75 17.85 22.2 Q16.2 21.85 15.25 20.25 14.3 18.6 14.7 16.55 15.0 14.5 16.55 13.2 L17.2 12.7 Q18.3 12.05 19.5 12.25 20.35 12.45 21.05 12.95 L22.05 14.1 Q22.6 15.1 22.75 16.25 L22.65 17.85 Q22.4 19.1 21.75 20.1 M21.5 17.7 L21.55 16.55 Q21.5 15.75 21.05 15.1 L20.35 14.25 19.3 13.75 Q18.45 13.65 17.7 14.1 17.4 14.25 17.2 14.45 16.15 15.35 15.95 16.75 15.65 18.25 16.3 19.35 16.95 20.5 18.1 20.75 L19.65 20.4 20.2 20.0 20.9 19.3 21.5 17.7" fill="#8484ff" fill-rule="evenodd" stroke="none"/>
      <path d="M21.5 17.7 L20.9 19.3 20.2 20.0 19.65 20.4 18.1 20.75 Q16.95 20.5 16.3 19.35 15.65 18.25 15.95 16.75 16.15 15.35 17.2 14.45 17.4 14.25 17.7 14.1 18.45 13.65 19.3 13.75 L20.35 14.25 21.05 15.1 Q21.5 15.75 21.55 16.55 L21.5 17.7" fill="url(#gradient3)" fill-rule="evenodd" stroke="none"/>
    </g>
    <linearGradient gradientTransform="matrix(-0.0033, -0.0051, 0.9387, -0.5082, 0.55, 18.15)" gradientUnits="userSpaceOnUse" id="gradient0" spreadMethod="pad" x1="-819.2" x2="819.2">
      <stop offset="0.0" stop-color="#01025c"/>
      <stop offset="0.6" stop-color="#0000ff"/>
      <stop offset="1.0" stop-color="#01025c"/>
    </linearGradient>
    <radialGradient cx="0" cy="0" gradientTransform="matrix(0.0033, 7.0E-4, -0.0011, 0.0039, 7.6, 15.15)" gradientUnits="userSpaceOnUse" id="gradient1" r="819.2" spreadMethod="pad">
      <stop offset="0.0" stop-color="#7067c2"/>
      <stop offset="1.0" stop-color="#222222"/>
    </radialGradient>
    <linearGradient gradientTransform="matrix(-0.0035, -0.0041, 0.0011, -8.0E-4, 14.3, 18.8)" gradientUnits="userSpaceOnUse" id="gradient2" spreadMethod="pad" x1="-819.2" x2="819.2">
      <stop offset="0.0" stop-color="#01025c"/>
      <stop offset="0.6" stop-color="#0000ff"/>
      <stop offset="1.0" stop-color="#01025c"/>
    </linearGradient>
    <radialGradient cx="0" cy="0" gradientTransform="matrix(0.0034, 8.0E-4, -0.0012, 0.0049, 18.85, 17.15)" gradientUnits="userSpaceOnUse" id="gradient3" r="819.2" spreadMethod="pad">
      <stop offset="0.0" stop-color="#7067c2"/>
      <stop offset="1.0" stop-color="#222222"/>
    </radialGradient>
  </defs>
</svg>
