<?xml version="1.0" encoding="UTF-8" standalone="no"?>
<svg xmlns:ffdec="https://www.free-decompiler.com/flash" xmlns:xlink="http://www.w3.org/1999/xlink" ffdec:objectType="frame" height="83.95px" width="628.5px" xmlns="http://www.w3.org/2000/svg">
  <g transform="matrix(1.0, 0.0, 0.0, 1.0, 2.5, -7.5)">
    <use ffdec:characterId="2642" height="83.95" transform="matrix(1.0, 0.0, 0.0, 1.0, -2.5, 7.5)" width="628.5" xlink:href="#shape0"/>
  </g>
  <defs>
    <g id="shape0" transform="matrix(1.0, 0.0, 0.0, 1.0, 2.5, -7.5)">
      <path d="M618.95 39.75 L618.95 77.45 Q618.95 81.2 618.25 84.25 L617.85 84.6 617.8 84.6 Q612.85 88.95 603.5 88.95 L20.0 88.95 Q0.0 88.95 0.0 68.95 L0.0 39.75 618.95 39.75" fill="#dcf7dc" fill-rule="evenodd" stroke="none"/>
      <path d="M618.95 39.75 L623.5 39.75 623.5 68.95 Q623.5 79.2 618.25 84.25 618.95 81.2 618.95 77.45 L618.95 39.75" fill="#add9ad" fill-rule="evenodd" stroke="none"/>
      <path d="M618.25 84.25 Q623.5 79.2 623.5 68.95 L623.5 39.75 M0.0 39.75 L0.0 68.95 Q0.0 88.95 20.0 88.95 L603.5 88.95 Q612.85 88.95 617.8 84.6 L617.85 84.6 618.25 84.25" fill="none" stroke="#158e13" stroke-linecap="round" stroke-linejoin="round" stroke-width="5.0"/>
      <path d="M623.5 49.75 L618.95 49.75 618.95 38.5 Q618.95 18.5 598.95 18.5 L15.45 18.5 Q5.7 18.5 0.75 23.25 3.7 10.0 20.0 10.0 L603.5 10.0 Q623.5 10.0 623.5 30.0 L623.5 49.75" fill="#add9ad" fill-rule="evenodd" stroke="none"/>
      <path d="M618.95 49.75 L0.0 49.75 0.0 30.0 0.1 27.35 0.6 23.85 0.75 23.25 Q5.7 18.5 15.45 18.5 L598.95 18.5 Q618.95 18.5 618.95 38.5 L618.95 49.75" fill="#dcf7dc" fill-rule="evenodd" stroke="none"/>
      <path d="M0.0 49.75 L0.0 30.0 0.1 27.35 0.6 23.85 0.75 23.25 Q3.7 10.0 20.0 10.0 L603.5 10.0 Q623.5 10.0 623.5 30.0 L623.5 49.75" fill="none" stroke="#158e13" stroke-linecap="round" stroke-linejoin="round" stroke-width="5.0"/>
    </g>
  </defs>
</svg>
