<?xml version="1.0" encoding="UTF-8" standalone="no"?>
<svg xmlns:ffdec="https://www.free-decompiler.com/flash" xmlns:xlink="http://www.w3.org/1999/xlink" ffdec:objectType="frame" height="17.6px" width="51.6px" xmlns="http://www.w3.org/2000/svg">
  <g transform="matrix(1.0, 0.0, 0.0, 1.0, 0.2, 0.5)">
    <use ffdec:characterId="1711" height="17.45" transform="matrix(1.0, 0.0, 0.0, 1.0, -0.2, -0.35)" width="51.6" xlink:href="#shape0"/>
    <clipPath id="clipPath0">
      <path d="M 6.7 0 L 6.35 0.01 L 6.01 0.03 L 5.68 0.07 L 5.35 0.12 L 5.03 0.2 L 4.72 0.28 L 4.41 0.38 L 4.11 0.5 L 3.82 0.63 L 3.53 0.78 L 3.25 0.95 L 2.98 1.12 L 2.71 1.32 L 2.45 1.53 L 2.2 1.76 L 1.95 2 L 1.71 2.27 L 1.49 2.54 L 1.29 2.82 L 1.1 3.1 L 0.92 3.39 L 0.76 3.69 L 0.62 3.99 L 0.49 4.3 L 0.37 4.62 L 0.27 4.94 L 0.19 5.27 L 0.12 5.6 L 0.07 5.94 L 0.03 6.29 L 0.01 6.64 L 0 7 L 0.01 7.36 L 0.03 7.71 L 0.07 8.06 L 0.12 8.4 L 0.19 8.73 L 0.27 9.06 L 0.37 9.37 L 0.49 9.69 L 0.62 9.99 L 0.76 10.29 L 0.92 10.59 L 1.1 10.87 L 1.29 11.15 L 1.49 11.42 L 1.71 11.69 L 1.95 11.95 L 2.2 12.2 L 2.45 12.43 L 2.71 12.65 L 2.98 12.85 L 3.25 13.03 L 3.53 13.2 L 3.82 13.35 L 4.11 13.49 L 4.41 13.61 L 4.72 13.71 L 5.03 13.8 L 5.35 13.87 L 5.68 13.93 L 6.01 13.97 L 6.35 13.99 L 6.7 14 L 44.3 14 L 44.65 13.99 L 44.99 13.97 L 45.32 13.93 L 45.64 13.87 L 45.96 13.8 L 46.27 13.71 L 46.58 13.61 L 46.88 13.49 L 47.17 13.35 L 47.45 13.2 L 47.72 13.03 L 47.99 12.85 L 48.26 12.65 L 48.51 12.43 L 48.76 12.2 L 49 11.95 L 49.24 11.69 L 49.47 11.42 L 49.68 11.15 L 49.88 10.87 L 50.05 10.59 L 50.22 10.29 L 50.37 9.99 L 50.5 9.69 L 50.62 9.37 L 50.72 9.06 L 50.8 8.73 L 50.88 8.4 L 50.93 8.06 L 50.97 7.71 L 50.99 7.36 L 51 7 L 50.99 6.64 L 50.97 6.29 L 50.93 5.94 L 50.88 5.6 L 50.8 5.27 L 50.72 4.94 L 50.62 4.62 L 50.5 4.3 L 50.37 3.99 L 50.22 3.69 L 50.05 3.39 L 49.88 3.1 L 49.68 2.82 L 49.47 2.54 L 49.24 2.27 L 49 2 L 48.76 1.76 L 48.51 1.53 L 48.26 1.32 L 47.99 1.12 L 47.72 0.95 L 47.45 0.78 L 47.17 0.63 L 46.88 0.5 L 46.58 0.38 L 46.27 0.28 L 45.96 0.2 L 45.64 0.12 L 45.32 0.07 L 44.99 0.03 L 44.65 0.01 L 44.3 0 Z"/>
    </clipPath>
    <g clip-path="url(#clipPath0)">
      <use ffdec:characterId="1714" height="14.45" id="bar_mc" transform="matrix(1.0, 0.0, 0.0, 1.0, 0.0, 0.0)" width="51.0" xlink:href="#sprite0"/>
    </g>
    <use ffdec:characterId="1715" height="15.95" transform="matrix(1.0, 0.0, 0.0, 1.0, -0.1, -0.5)" width="51.2" xlink:href="#shape2"/>
  </g>
  <defs>
    <g id="shape0" transform="matrix(1.0, 0.0, 0.0, 1.0, 0.2, 0.35)">
      <path d="M49.7 3.75 Q51.4 6.05 51.4 9.3 51.4 12.5 49.7 14.8 47.9 17.1 45.65 17.1 L5.55 17.1 Q3.15 17.1 1.45 14.8 -0.2 12.5 -0.2 9.3 -0.2 6.05 1.45 3.75 3.15 1.45 5.55 1.45 L45.65 1.45 Q47.9 1.45 49.7 3.75" fill="#000000" fill-opacity="0.2" fill-rule="evenodd" stroke="none"/>
      <path d="M48.65 2.25 Q50.3 4.35 50.3 7.35 50.3 10.35 48.65 12.45 46.9 14.55 44.7 14.55 L6.45 14.55 Q4.1 14.55 2.45 12.45 0.85 10.35 0.85 7.35 0.85 4.35 2.45 2.25 4.1 0.15 6.45 0.15 L44.7 0.15 Q46.9 0.15 48.65 2.25" fill="#990000" fill-rule="evenodd" stroke="none"/>
      <path d="M15.95 0.25 L44.75 0.25 Q46.95 0.25 48.7 2.4 50.35 4.5 50.35 7.5 50.35 10.45 48.7 12.6 46.95 14.7 44.75 14.7 L15.95 14.7 15.95 0.25" fill="url(#gradient0)" fill-rule="evenodd" stroke="none"/>
      <path d="M15.95 0.25 L15.95 14.7 6.25 14.7 Q3.9 14.7 2.25 12.6 0.65 10.45 0.65 7.5 0.65 4.5 2.25 2.4 3.9 0.25 6.25 0.25 L15.95 0.25" fill="url(#gradient1)" fill-rule="evenodd" stroke="none"/>
      <path d="M15.95 14.7 L44.75 14.7 Q46.95 14.7 48.7 12.6 50.35 10.45 50.35 7.5 50.35 4.5 48.7 2.4 46.95 0.25 44.75 0.25 L15.95 0.25 6.25 0.25 Q3.9 0.25 2.25 2.4 0.65 4.5 0.65 7.5 0.65 10.45 2.25 12.6 3.9 14.7 6.25 14.7 L15.95 14.7 Z" fill="none" stroke="#009900" stroke-linecap="round" stroke-linejoin="round" stroke-width="1.2000000000000002"/>
      <path d="M50.35 8.1 L50.05 6.35 Q49.65 4.85 48.7 3.65 46.95 1.5 44.75 1.5 L6.25 1.5 Q3.9 1.5 2.25 3.65 0.65 5.75 0.65 8.75" fill="none" stroke="#000000" stroke-linecap="round" stroke-linejoin="round" stroke-opacity="0.2" stroke-width="1.2000000000000002"/>
    </g>
    <linearGradient gradientTransform="matrix(1.0E-4, 0.0159, -0.0088, 0.0, 16.65, 10.3)" gradientUnits="userSpaceOnUse" id="gradient0" spreadMethod="pad" x1="-819.2" x2="819.2">
      <stop offset="0.00784313725490196" stop-color="#990000"/>
      <stop offset="0.21176470588235294" stop-color="#ff0000"/>
      <stop offset="0.7372549019607844" stop-color="#990000"/>
    </linearGradient>
    <linearGradient gradientTransform="matrix(1.0E-4, 0.0159, -0.0088, 0.0, 34.65, 10.3)" gradientUnits="userSpaceOnUse" id="gradient1" spreadMethod="pad" x1="-819.2" x2="819.2">
      <stop offset="0.00784313725490196" stop-color="#990000"/>
      <stop offset="0.21176470588235294" stop-color="#ff0000"/>
      <stop offset="0.7372549019607844" stop-color="#990000"/>
    </linearGradient>
    <g id="sprite0" transform="matrix(1.0, 0.0, 0.0, 1.0, 0.0, 0.0)">
      <use ffdec:characterId="1713" height="14.45" transform="matrix(1.0, 0.0, 0.0, 1.0, 0.0, 0.0)" width="51.0" xlink:href="#shape1"/>
    </g>
    <g id="shape1" transform="matrix(1.0, 0.0, 0.0, 1.0, 0.0, 0.0)">
      <path d="M51.0 14.45 L0.0 14.45 0.0 0.0 51.0 0.0 51.0 14.45" fill="url(#gradient2)" fill-rule="evenodd" stroke="none"/>
    </g>
    <linearGradient gradientTransform="matrix(1.0E-4, 0.0122, -0.0175, 1.0E-4, 3.05, 9.2)" gradientUnits="userSpaceOnUse" id="gradient2" spreadMethod="pad" x1="-819.2" x2="819.2">
      <stop offset="0.00392156862745098" stop-color="#54c800"/>
      <stop offset="0.24705882352941178" stop-color="#ffff71"/>
      <stop offset="0.5843137254901961" stop-color="#54c800"/>
    </linearGradient>
    <g id="shape2" transform="matrix(1.0, 0.0, 0.0, 1.0, 0.1, 0.5)">
      <path d="M48.7 2.4 Q46.95 0.25 44.75 0.25 L6.25 0.25 Q3.9 0.25 2.25 2.4 0.65 4.5 0.65 7.5 0.65 10.45 2.25 12.6 3.9 14.7 6.25 14.7 L44.75 14.7 Q46.95 14.7 48.7 12.6 50.35 10.45 50.35 7.5 50.35 4.5 48.7 2.4 Z" fill="none" stroke="#007e00" stroke-linecap="round" stroke-linejoin="round" stroke-width="1.55"/>
      <path d="M45.7 4.0 Q45.2 4.0 44.8 3.6 44.45 3.25 44.45 2.75 44.45 2.25 44.8 1.85 45.2 1.5 45.7 1.5 46.2 1.5 46.55 1.85 46.95 2.25 46.95 2.75 46.95 3.25 46.55 3.6 46.2 4.0 45.7 4.0 M5.45 3.2 Q5.1 2.9 5.1 2.45 5.1 2.05 5.45 1.7 L6.3 1.4 Q6.8 1.4 7.15 1.7 7.5 2.05 7.5 2.45 7.5 2.9 7.15 3.2 6.8 3.55 6.3 3.55 5.85 3.55 5.45 3.2 M2.5 5.0 Q2.5 4.4 2.9 4.0 3.3 3.6 3.9 3.6 4.5 3.6 4.9 4.0 5.3 4.4 5.3 5.0 5.3 5.6 4.9 6.0 4.5 6.4 3.9 6.4 3.3 6.4 2.9 6.0 2.5 5.6 2.5 5.0" fill="#ffffff" fill-rule="evenodd" stroke="none"/>
    </g>
  </defs>
</svg>
