<?xml version="1.0" encoding="UTF-8" standalone="no"?>
<svg xmlns:ffdec="https://www.free-decompiler.com/flash" xmlns:xlink="http://www.w3.org/1999/xlink" ffdec:objectType="frame" height="92.15px" width="129.65px" xmlns="http://www.w3.org/2000/svg">
  <g transform="matrix(1.0, 0.0, 0.0, 1.0, 205.9, 2.35)">
    <use ffdec:characterId="2301" height="42.0" transform="matrix(0.9987, -0.0515, 0.0515, 0.9987, -169.4948, 47.8532)" width="51.15" xlink:href="#sprite0"/>
    <use ffdec:characterId="2303" height="79.7" transform="matrix(1.0, 0.0, 0.0, 1.0, -205.9, -0.5)" width="49.6" xlink:href="#sprite1"/>
    <use ffdec:characterId="2303" height="79.7" transform="matrix(-1.0, 0.0, 0.0, 1.0, -76.25, -2.35)" width="49.6" xlink:href="#sprite1"/>
    <use ffdec:characterId="2305" height="54.5" transform="matrix(0.9715, 0.0, 0.0, 0.9379, -167.5531, 23.8867)" width="48.3" xlink:href="#sprite2"/>
  </g>
  <defs>
    <g id="sprite0" transform="matrix(1.0, 0.0, 0.0, 1.0, 168.25, -46.25)">
      <use ffdec:characterId="2300" height="42.0" transform="matrix(1.0, 0.0, 0.0, 1.0, -168.25, 46.25)" width="51.15" xlink:href="#shape0"/>
    </g>
    <g id="shape0" transform="matrix(1.0, 0.0, 0.0, 1.0, 168.25, -46.25)">
      <path d="M-152.55 46.65 L-152.3 46.55 -131.6 47.0 Q-131.4 47.0 -131.25 47.15 -131.1 47.3 -131.1 47.5 L-131.25 47.85 -131.6 48.0 -151.95 47.55 -157.05 60.3 -152.15 48.65 -151.95 48.45 -151.65 48.35 -144.35 48.55 -142.35 48.6 -134.15 48.7 -130.05 48.8 -129.75 48.95 -129.6 49.2 -125.4 69.6 -123.55 70.45 Q-116.4 74.15 -117.15 78.8 -117.7 82.3 -122.7 84.75 L-124.0 85.35 -125.1 85.8 -125.15 85.8 -126.05 86.1 Q-133.9 88.75 -144.35 88.15 -154.1 87.65 -160.7 84.55 L-161.75 84.05 Q-164.2 82.8 -165.65 81.5 -168.65 78.8 -168.15 75.8 -167.5 71.6 -160.7 68.95 L-160.3 68.0 -160.35 68.0 -160.75 68.05 -161.0 67.75 -161.0 67.35 -152.75 46.85 -152.55 46.65" fill="#000000" fill-opacity="0.2" fill-rule="evenodd" stroke="none"/>
      <path d="M-150.6 47.85 L-144.45 48.0 -142.4 48.05 -134.2 48.15 -132.0 48.2 -130.15 48.25 -125.9 68.9 -123.85 69.85 Q-117.05 73.35 -117.7 77.65 -118.25 80.95 -123.0 83.25 L-125.35 84.25 -126.25 84.55 Q-134.05 87.2 -144.4 86.6 -154.0 86.1 -160.55 83.05 L-161.6 82.55 Q-163.95 81.35 -165.4 80.05 -168.15 77.6 -167.7 74.8 -167.05 70.85 -160.4 68.3 L-151.75 47.8 -150.6 47.85" fill="url(#gradient0)" fill-rule="evenodd" stroke="none"/>
      <path d="M-150.6 47.85 L-144.45 48.0 -142.4 48.05 -134.2 48.15 -132.0 48.2 -130.15 48.25 -125.9 68.9 -123.85 69.85 Q-117.05 73.35 -117.7 77.65 -118.25 80.95 -123.0 83.25 L-125.35 84.25 -126.25 84.55 Q-134.05 87.2 -144.4 86.6 -154.0 86.1 -160.55 83.05 L-161.6 82.55 Q-163.95 81.35 -165.4 80.05 -168.15 77.6 -167.7 74.8 -167.05 70.85 -160.4 68.3 L-151.75 47.8 -150.6 47.85 Z" ffdec:has-small-stroke="true" ffdec:original-stroke-width="1.0" fill="none" stroke="#3300cc" stroke-linecap="round" stroke-linejoin="round" stroke-width="1.0000005902262044"/>
      <path d="M-123.55 82.15 L-123.45 82.55 -124.3 82.55 -125.95 82.45 Q-124.75 82.0 -123.7 81.45 L-123.55 82.15 -123.7 82.2 -124.3 82.55 -123.7 82.2 -123.55 82.15" fill="#3366ff" fill-rule="evenodd" stroke="none"/>
      <path d="M-124.3 82.55 L-125.95 83.2 -126.8 83.5 Q-134.25 86.15 -144.2 85.55 -153.4 85.05 -159.65 82.0 L-160.65 81.5 -164.3 79.0 Q-166.95 76.55 -166.5 73.75 -165.9 69.8 -159.5 67.25 L-151.25 46.75 -130.55 47.2 -126.45 67.85 -124.5 68.8 Q-118.0 72.3 -118.6 76.6 -119.15 79.85 -123.55 82.15 L-123.7 82.2 -124.3 82.55 Z" ffdec:has-small-stroke="true" ffdec:original-stroke-width="1.0" fill="none" stroke="#3399ff" stroke-linecap="round" stroke-linejoin="round" stroke-width="1.0000005902262044"/>
      <path d="M-154.3 61.7 L-149.8 51.05 -129.6 51.55" fill="none" stroke="#000000" stroke-linecap="round" stroke-linejoin="round" stroke-opacity="0.6" stroke-width="2.0"/>
      <path d="M-127.45 49.4 L-126.25 63.35 Q-146.55 61.2 -159.7 67.75 L-151.2 49.0 -127.45 49.4" fill="#000000" fill-opacity="0.2" fill-rule="evenodd" stroke="none"/>
    </g>
    <radialGradient cx="0" cy="0" gradientTransform="matrix(0.0555, 0.0, 0.0, 0.0363, -143.65, 68.5)" gradientUnits="userSpaceOnUse" id="gradient0" r="819.2" spreadMethod="pad">
      <stop offset="0.4392156862745098" stop-color="#3366ff"/>
      <stop offset="0.6039215686274509" stop-color="#003bee"/>
    </radialGradient>
    <g id="sprite1" transform="matrix(1.0, 0.0, 0.0, 1.0, 0.95, -1.35)">
      <use ffdec:characterId="2302" height="79.7" transform="matrix(1.0, 0.0, 0.0, 1.0, -0.95, 1.35)" width="49.6" xlink:href="#shape1"/>
    </g>
    <g id="shape1" transform="matrix(1.0, 0.0, 0.0, 1.0, 0.95, -1.35)">
      <path d="M45.7 24.3 L45.7 30.1 Q45.35 31.45 44.6 32.8 L44.35 33.15 41.5 36.55 Q37.55 40.5 31.6 42.6 L27.25 43.8 26.45 43.95 24.85 44.2 23.35 44.4 Q16.7 45.0 11.25 42.95 8.8 42.05 7.1 40.8 L6.8 40.55 5.2 39.0 3.2 33.3 4.8 35.0 Q6.05 36.05 7.75 36.85 L9.75 37.7 Q15.5 39.8 22.4 39.15 L23.35 44.4 22.4 39.15 25.45 38.7 26.25 38.55 30.85 37.3 Q36.9 35.2 40.95 31.3 L42.25 30.05 Q43.6 28.55 44.4 27.05 L45.7 24.3" fill="#ff9900" fill-rule="evenodd" stroke="none"/>
      <path d="M44.1 24.7 L44.9 23.05 45.6 20.7 45.7 24.3 44.4 27.05 Q43.6 28.55 42.25 30.05 L40.95 31.3 Q36.9 35.2 30.85 37.3 L26.25 38.55 25.45 38.7 22.4 39.15 22.0 37.05 22.4 39.15 Q15.5 39.8 9.75 37.7 L7.75 36.85 Q6.05 36.05 4.8 35.0 L3.2 33.3 3.05 33.15 3.05 33.0 1.75 29.3 3.15 31.55 3.85 32.35 Q5.65 34.05 8.55 35.25 L9.45 35.6 Q13.25 37.0 17.55 37.15 L22.0 37.05 25.05 36.65 25.95 36.45 30.55 35.2 Q36.6 33.1 40.65 29.2 L40.9 29.0 43.25 26.1 44.1 24.7" fill="#ffff66" fill-rule="evenodd" stroke="none"/>
      <path d="M33.0 9.35 L38.25 12.55 Q44.0 16.2 44.8 17.55 45.85 19.35 45.6 20.65 L45.6 20.7 44.9 23.05 44.1 24.7 34.3 16.25 Q35.25 14.45 34.9 12.6 34.55 10.65 33.0 9.35 34.55 10.65 34.9 12.6 35.25 14.45 34.3 16.25 L44.1 24.7 43.25 26.1 40.9 29.0 40.65 29.2 Q36.6 33.1 30.55 35.2 L25.95 36.45 25.05 36.65 22.0 37.05 17.55 37.15 17.8 23.3 23.0 22.95 Q28.6 21.9 32.05 18.85 33.55 17.55 34.3 16.25 L27.15 10.1 Q28.25 8.7 28.0 7.2 L28.0 7.1 Q27.8 6.3 27.2 5.7 27.8 6.3 28.0 7.1 L28.0 7.2 Q28.25 8.7 27.15 10.1 L34.3 16.25 Q33.55 17.55 32.05 18.85 28.6 21.9 23.0 22.95 L17.8 23.3 17.55 37.15 Q13.25 37.0 9.45 35.6 L8.55 35.25 Q5.65 34.05 3.85 32.35 L3.15 31.55 1.75 29.3 Q1.6 29.05 1.55 27.9 1.45 26.6 1.6 25.6 1.75 24.65 4.75 19.85 L7.75 15.2 7.9 14.95 8.45 14.2 9.75 12.3 11.75 9.25 Q11.7 9.15 11.8 9.1 L11.85 8.95 14.9 4.8 Q16.85 2.5 18.6 2.3 L20.95 2.7 23.25 3.65 26.95 5.55 27.2 5.7 31.1 8.15 33.0 9.35 M44.6 33.9 L44.7 37.7 45.3 63.8 45.4 68.05 45.45 69.55 Q45.2 72.6 42.45 75.35 40.15 77.65 36.85 78.85 L33.35 79.8 33.2 79.8 Q27.55 80.65 23.0 78.35 20.05 76.9 18.8 74.65 18.2 73.55 18.0 72.35 L7.95 43.85 7.3 42.05 7.2 41.6 7.1 40.8 Q8.8 42.05 11.25 42.95 16.7 45.0 23.35 44.4 L24.85 44.2 26.45 43.95 27.25 43.8 31.6 42.6 Q37.55 40.5 41.5 36.55 L44.35 33.15 44.6 33.9 M44.7 37.7 Q44.0 40.85 40.65 43.9 37.35 47.05 32.5 48.7 L28.0 49.85 27.6 49.95 26.0 50.15 24.85 44.2 26.0 50.15 27.6 49.95 28.0 49.85 32.5 48.7 Q37.35 47.05 40.65 43.9 44.0 40.85 44.7 37.7 M11.75 9.25 L11.75 10.35 11.8 10.5 11.8 10.55 Q12.35 12.55 14.75 13.3 L18.0 13.85 20.9 13.55 Q24.25 12.85 26.3 11.0 L27.15 10.1 26.3 11.0 Q24.25 12.85 20.9 13.55 L18.0 13.85 17.8 23.3 Q15.15 23.15 12.9 22.35 8.6 20.8 7.95 17.5 7.65 15.8 8.45 14.2 7.65 15.8 7.95 17.5 8.6 20.8 12.9 22.35 15.15 23.15 17.8 23.3 L18.0 13.85 14.75 13.3 Q12.35 12.55 11.8 10.55 L11.8 10.5 11.75 10.35 11.75 9.25 M7.95 43.85 Q9.5 47.0 14.05 48.8 19.35 50.95 26.0 50.15 19.35 50.95 14.05 48.8 9.5 47.0 7.95 43.85 M33.35 79.8 L27.6 49.95 33.35 79.8" fill="#ffff00" fill-rule="evenodd" stroke="none"/>
      <path d="M45.6 20.7 L45.6 20.65 Q45.85 19.35 44.8 17.55 44.0 16.2 38.25 12.55 L33.0 9.35 Q34.55 10.65 34.9 12.6 35.25 14.45 34.3 16.25 L44.1 24.7 44.9 23.05 45.6 20.7 45.7 24.3 45.7 30.1 Q45.35 31.45 44.6 32.8 L44.6 33.9 44.7 37.7 45.3 63.8 45.4 68.05 45.45 69.55 Q45.2 72.6 42.45 75.35 40.15 77.65 36.85 78.85 L33.35 79.8 33.2 79.8 Q27.55 80.65 23.0 78.35 20.05 76.9 18.8 74.65 18.2 73.55 18.0 72.35 L7.95 43.85 7.3 42.05 6.8 40.55 5.2 39.0 3.2 33.3 3.05 33.15 3.05 33.0 1.75 29.3 Q1.6 29.05 1.55 27.9 1.45 26.6 1.6 25.6 1.75 24.65 4.75 19.85 L7.75 15.2 7.9 14.95 8.45 14.2 9.75 12.3 11.75 9.25 Q11.7 9.15 11.8 9.1 L11.85 8.95 14.9 4.8 Q16.85 2.5 18.6 2.3 L20.95 2.7 23.25 3.65 26.95 5.55 27.2 5.7 31.1 8.15 33.0 9.35 M44.1 24.7 L43.25 26.1 40.9 29.0 40.65 29.2 Q36.6 33.1 30.55 35.2 L25.95 36.45 25.05 36.65 22.0 37.05 22.4 39.15 25.45 38.7 26.25 38.55 30.85 37.3 Q36.9 35.2 40.95 31.3 L42.25 30.05 Q43.6 28.55 44.4 27.05 L45.7 24.3 M44.6 33.9 L44.35 33.15 41.5 36.55 Q37.55 40.5 31.6 42.6 L27.25 43.8 26.45 43.95 24.85 44.2 26.0 50.15 27.6 49.95 28.0 49.85 32.5 48.7 Q37.35 47.05 40.65 43.9 44.0 40.85 44.7 37.7 M44.6 32.8 L44.35 33.15 M27.2 5.7 Q27.8 6.3 28.0 7.1 L28.0 7.2 Q28.25 8.7 27.15 10.1 L34.3 16.25 Q33.55 17.55 32.05 18.85 28.6 21.9 23.0 22.95 L17.8 23.3 17.55 37.15 22.0 37.05 M27.15 10.1 L26.3 11.0 Q24.25 12.85 20.9 13.55 L18.0 13.85 17.8 23.3 Q15.15 23.15 12.9 22.35 8.6 20.8 7.95 17.5 7.65 15.8 8.45 14.2 M18.0 13.85 L14.75 13.3 Q12.35 12.55 11.8 10.55 L11.8 10.5 11.75 10.35 11.75 9.25 M11.8 9.1 L11.85 8.95 M22.4 39.15 Q15.5 39.8 9.75 37.7 L7.75 36.85 Q6.05 36.05 4.8 35.0 L3.2 33.3 M1.75 29.3 L3.15 31.55 3.85 32.35 Q5.65 34.05 8.55 35.25 L9.45 35.6 Q13.25 37.0 17.55 37.15 M7.3 42.05 L7.2 41.6 7.1 40.8 6.8 40.55 M26.0 50.15 Q19.35 50.95 14.05 48.8 9.5 47.0 7.95 43.85 M7.1 40.8 Q8.8 42.05 11.25 42.95 16.7 45.0 23.35 44.4 L22.4 39.15 M24.85 44.2 L23.35 44.4 M27.6 49.95 L33.35 79.8" fill="none" stroke="#ffcc00" stroke-linecap="round" stroke-linejoin="round" stroke-width="1.0"/>
      <path d="M44.6 33.9 L45.4 68.05 45.45 69.55 Q45.2 72.6 42.45 75.35 40.15 77.65 36.85 78.85 L33.35 79.8 33.2 79.8 Q27.55 80.65 23.0 78.35 20.05 76.9 18.8 74.65 18.2 73.55 18.0 72.35 L7.95 43.85 7.3 42.05 7.2 41.6 7.1 40.8 Q8.8 42.05 11.25 42.95 16.7 45.0 23.35 44.4 L24.85 44.2 26.45 43.95 27.25 43.8 31.6 42.6 Q37.55 40.5 41.5 36.55 L44.35 33.15 44.6 33.9" fill="#ffff00" fill-rule="evenodd" stroke="none"/>
      <path d="M44.6 33.9 L44.35 33.15 41.5 36.55 Q37.55 40.5 31.6 42.6 L27.25 43.8 26.45 43.95 24.85 44.2 23.35 44.4 Q16.7 45.0 11.25 42.95 8.8 42.05 7.1 40.8 L7.2 41.6 7.3 42.05 7.95 43.85 18.0 72.35 Q18.2 73.55 18.8 74.65 20.05 76.9 23.0 78.35 27.55 80.65 33.2 79.8 L33.35 79.8 36.85 78.85 Q40.15 77.65 42.45 75.35 45.2 72.6 45.45 69.55 L45.4 68.05 44.6 33.9 44.6 32.8 44.35 33.15 M7.3 42.05 L6.8 40.55 7.1 40.8" fill="none" stroke="#ffcc00" stroke-linecap="round" stroke-linejoin="round" stroke-width="2.0"/>
      <path d="M11.0 41.55 Q17.75 44.45 29.45 42.35 36.4 40.15 39.95 36.3" fill="none" stroke="#000000" stroke-linecap="round" stroke-linejoin="round" stroke-opacity="0.2" stroke-width="10.0"/>
      <path d="M4.05 35.2 Q11.0 42.95 29.2 39.6 41.8 35.7 43.65 27.1" fill="none" stroke="#ff9900" stroke-linecap="round" stroke-linejoin="round" stroke-width="10.0"/>
      <path d="M45.6 20.65 L45.3 24.8 44.85 26.2 Q43.05 29.75 39.9 32.25 37.05 34.6 33.75 36.05 L30.8 37.15 26.25 38.55 22.75 39.0 15.8 39.15 Q12.15 38.65 8.7 37.3 5.5 36.05 3.8 33.35 2.55 31.35 1.8 29.15 1.4 27.9 1.5 26.7 1.6 25.1 2.45 23.65 L6.2 17.5 9.65 12.25 11.8 9.1 11.85 8.95 Q13.85 5.7 16.9 3.1 18.1 2.1 19.6 2.4 21.45 2.85 23.2 3.75 27.15 5.9 31.05 8.2 L33.0 9.35 39.65 13.5 Q41.65 14.8 43.55 16.3 45.65 18.0 45.6 20.65" fill="url(#gradient1)" fill-rule="evenodd" stroke="none"/>
      <path d="M45.6 20.65 L45.3 24.8 44.85 26.2 Q43.05 29.75 39.9 32.25 37.05 34.6 33.75 36.05 L30.8 37.15 26.25 38.55 22.75 39.0 15.8 39.15 Q12.15 38.65 8.7 37.3 5.5 36.05 3.8 33.35 2.55 31.35 1.8 29.15 1.4 27.9 1.5 26.7 1.6 25.1 2.45 23.65 L6.2 17.5 9.65 12.25 11.8 9.1 11.85 8.95 Q13.85 5.7 16.9 3.1 18.1 2.1 19.6 2.4 21.45 2.85 23.2 3.75 27.15 5.9 31.05 8.2 L33.0 9.35 39.65 13.5 Q41.65 14.8 43.55 16.3 45.65 18.0 45.6 20.65 Z" fill="none" stroke="#ffcc00" stroke-linecap="round" stroke-linejoin="round" stroke-width="2.0"/>
      <path d="M22.0 11.75 Q21.9 13.45 20.5 14.65 19.1 15.85 17.25 15.85 15.4 15.85 14.0 14.65 12.65 13.45 12.65 11.75 12.7 10.1 14.05 8.85 15.45 7.7 17.3 7.7 19.15 7.7 20.6 8.85 22.0 10.1 22.0 11.75 M10.0 18.3 Q11.9 17.05 13.4 17.9 14.75 18.8 14.9 21.25 15.0 23.85 13.6 26.65 12.2 29.45 10.2 30.75 8.25 32.0 6.85 31.15 5.4 30.35 5.3 27.75 5.25 25.25 6.6 22.5 8.0 19.7 10.0 18.3 M22.05 52.85 Q22.05 54.25 21.25 55.15 20.45 56.1 19.2 56.1 17.95 56.1 17.1 55.15 16.3 54.25 16.3 52.85 16.3 51.5 17.1 50.55 17.95 49.6 19.2 49.6 20.45 49.6 21.25 50.55 22.05 51.5 22.05 52.85 M26.05 66.3 Q26.85 69.0 26.55 71.25 26.3 73.5 24.95 73.9 23.6 74.25 22.1 72.5 20.6 70.8 19.75 68.0 18.9 65.3 19.25 63.05 19.65 60.8 20.95 60.4 22.25 60.0 23.75 61.7 25.2 63.5 26.05 66.3" fill="#ffffff" fill-rule="evenodd" stroke="none"/>
    </g>
    <radialGradient cx="0" cy="0" gradientTransform="matrix(-0.0154, -0.0434, 0.0384, -0.0136, 16.1, 9.3)" gradientUnits="userSpaceOnUse" id="gradient1" r="819.2" spreadMethod="pad">
      <stop offset="0.4392156862745098" stop-color="#ffff70"/>
      <stop offset="0.6" stop-color="#ffff00"/>
    </radialGradient>
    <g id="sprite2" transform="matrix(1.0, 0.0, 0.0, 1.0, 3.4, 2.2)">
      <use ffdec:characterId="2304" height="54.5" transform="matrix(1.0, 0.0, 0.0, 1.0, -3.4, -2.2)" width="48.3" xlink:href="#shape2"/>
    </g>
    <g id="shape2" transform="matrix(1.0, 0.0, 0.0, 1.0, 3.4, 2.2)">
      <path d="M5.15 -0.85 L6.15 -0.95 20.85 -1.05 34.2 -0.95 33.8 -0.2 Q33.35 0.25 32.75 0.25 L5.8 0.65 4.25 3.3 Q2.3 6.45 1.6 8.2 -0.4 13.6 -0.4 23.5 -0.4 26.6 1.6 37.8 2.7 44.3 4.1 49.1 L3.9 49.25 1.8 51.9 0.7 47.95 Q-0.5 43.35 -1.35 38.3 -3.4 26.7 -3.4 23.5 -3.4 17.7 -2.3 12.65 L-2.05 12.35 Q-0.9 11.4 -0.25 8.35 L0.2 5.65 0.6 5.0 3.05 1.8 4.3 0.0 5.15 -0.85" fill="#000000" fill-opacity="0.2" fill-rule="evenodd" stroke="none"/>
      <path d="M12.25 25.45 L12.2 25.45 13.95 -0.35 36.45 1.4 35.65 25.65 35.65 25.85 12.25 25.45" fill="#1a599f" fill-rule="evenodd" stroke="none"/>
      <path d="M21.55 7.35 L37.6 8.05 34.2 25.65 22.2 25.55 12.55 25.95 7.45 6.7 21.55 7.35 22.2 25.55 21.55 7.35" fill="#9edcf7" fill-rule="evenodd" stroke="none"/>
      <path d="M21.55 7.35 L21.45 0.6 M37.6 8.05 L38.2 5.1 M21.55 7.35 L37.6 8.05 40.15 8.15 M5.15 6.6 L7.45 6.7 6.95 4.85 M11.25 25.95 L12.55 25.95 7.45 6.7 21.55 7.35 22.2 25.55 34.2 25.65 37.6 8.05 M34.2 25.65 L34.95 26.05 M12.55 25.95 L22.2 25.55" fill="none" stroke="#ff0000" stroke-linecap="round" stroke-linejoin="round" stroke-width="2.0"/>
      <path d="M23.8 13.8 L24.05 24.0 36.85 23.85 M12.75 24.35 L24.05 24.0" fill="none" stroke="#000000" stroke-linecap="round" stroke-linejoin="round" stroke-opacity="0.2" stroke-width="2.0"/>
      <path d="M37.3 -1.25 L39.25 -0.65 39.6 -0.45 39.6 -0.4 Q40.15 0.05 41.35 24.8 42.5 49.4 42.25 49.65 41.4 50.5 39.35 50.4 37.35 50.35 36.7 49.6 L36.45 36.85 36.35 36.55 Q34.85 28.85 33.85 25.4 L34.6 9.55 Q34.15 9.0 29.85 8.1 25.1 7.15 22.05 7.35 17.1 7.65 14.55 8.4 12.45 8.95 11.35 10.0 L13.5 25.2 9.95 36.95 6.2 48.75 Q5.95 49.5 2.75 39.05 L2.45 38.1 Q-1.1 26.5 -1.1 23.35 -1.1 16.8 -0.3 12.4 L1.0 7.5 Q1.45 6.0 3.45 2.7 5.4 -0.65 6.0 -0.9 L21.9 -1.45 Q36.15 -1.5 37.3 -1.25 M3.4 6.5 L3.75 5.95 3.75 5.75 3.4 6.5" fill="#ffb600" fill-rule="evenodd" stroke="none"/>
      <path d="M37.3 -1.25 L39.25 -0.65 39.6 -0.45 39.6 -0.4 Q40.15 0.05 41.35 24.8 42.5 49.4 42.25 49.65 41.4 50.5 39.35 50.4 37.35 50.35 36.7 49.6 L36.45 36.85 36.35 36.55 Q34.85 28.85 33.85 25.4 L34.6 9.55 Q34.15 9.0 29.85 8.1 25.1 7.15 22.05 7.35 17.1 7.65 14.55 8.4 12.45 8.95 11.35 10.0 L13.5 25.2 9.95 36.95 6.2 48.75 Q5.95 49.5 2.75 39.05 L2.45 38.1 Q-1.1 26.5 -1.1 23.35 -1.1 16.8 -0.3 12.4 L1.0 7.5 Q1.45 6.0 3.45 2.7 5.4 -0.65 6.0 -0.9 L21.9 -1.45 Q36.15 -1.5 37.3 -1.25 M3.4 6.5 L3.75 5.95 3.75 5.75 3.4 6.5" fill="#000000" fill-opacity="0.2" fill-rule="evenodd" stroke="none"/>
      <path d="M38.05 5.3 L38.85 7.8 Q40.25 12.6 41.2 19.85 41.6 23.3 41.2 36.0 40.8 48.0 40.5 48.8 40.4 49.15 38.95 49.3 L36.6 49.5 Q36.35 49.15 35.5 44.05 L35.2 32.5 Q34.85 25.2 34.4 22.9 32.65 14.3 25.0 11.4 L25.0 11.5 22.85 11.7 Q17.2 12.65 14.2 14.75 9.6 18.05 9.0 24.8 8.85 26.75 9.6 33.4 L10.95 43.75 Q9.8 48.5 9.5 48.8 L7.2 48.9 5.6 48.65 Q5.2 47.95 3.3 37.3 1.3 26.05 1.3 22.9 1.3 16.35 2.1 11.9 2.45 9.95 3.4 6.9 3.85 5.35 5.85 1.85 L6.3 1.15 6.15 2.85 14.8 3.55 38.05 5.3 M14.8 3.55 L16.1 10.2 18.25 10.15 Q22.25 10.4 25.0 11.4 22.25 10.4 18.25 10.15 L16.1 10.2 14.8 3.55" fill="#ffc400" fill-rule="evenodd" stroke="none"/>
      <path d="M38.05 5.3 L38.85 7.8 Q40.25 12.6 41.2 19.85 41.6 23.3 41.2 36.0 40.8 48.0 40.5 48.8 40.4 49.15 38.95 49.3 L36.6 49.5 Q36.35 49.15 35.5 44.05 L35.2 32.5 Q34.85 25.2 34.4 22.9 32.65 14.3 25.0 11.4 L25.0 11.5 22.85 11.7 Q17.2 12.65 14.2 14.75 9.6 18.05 9.0 24.8 8.85 26.75 9.6 33.4 L10.95 43.75 Q9.8 48.5 9.5 48.8 L7.2 48.9 5.6 48.65 Q5.2 47.95 3.3 37.3 1.3 26.05 1.3 22.9 1.3 16.35 2.1 11.9 2.45 9.95 3.4 6.9 3.85 5.35 5.85 1.85 L6.3 1.15 M25.0 11.4 Q22.25 10.4 18.25 10.15 L16.1 10.2 14.8 3.55" ffdec:has-small-stroke="true" ffdec:original-stroke-width="0.7" fill="none" stroke="#ffcc00" stroke-linecap="round" stroke-linejoin="round" stroke-width="1.0473071354654526"/>
      <path d="M39.25 -0.65 L39.6 -0.45 39.6 -0.4 Q40.9 0.6 41.8 2.85 42.6 4.9 43.65 26.55 44.65 48.6 43.6 49.65 42.75 50.5 40.0 50.4 37.35 50.3 36.7 49.6 L36.15 26.85 Q35.75 20.65 31.55 17.1 27.2 13.45 20.45 13.95 14.8 14.4 11.8 16.3 7.2 19.2 6.6 25.9 6.4 28.05 8.1 38.6 9.7 48.6 9.45 48.95 8.5 50.3 5.95 50.3 3.6 50.25 3.2 49.5 2.8 48.75 0.9 37.9 -1.1 26.5 -1.1 23.35 -1.1 16.8 -0.3 12.4 L1.0 7.5 Q1.45 6.0 3.45 2.7 5.4 -0.65 6.0 -0.9 L21.9 -1.45 Q36.15 -1.5 37.3 -1.25 L39.25 -0.65" fill="#ffff00" fill-rule="evenodd" stroke="none"/>
      <path d="M14.85 -1.4 L21.9 -1.45 23.7 -1.45 33.5 -1.4 37.3 -1.25 39.25 -0.65 39.6 -0.45 39.6 -0.4 Q40.9 0.6 41.8 2.85 L42.15 4.5 Q42.8 9.3 43.65 26.55 44.65 48.6 43.6 49.65 42.75 50.5 40.0 50.4 37.35 50.3 36.7 49.6 L36.4 35.1 36.15 26.85 Q35.8 21.75 32.95 18.45 L31.55 17.1 Q27.45 13.65 21.2 13.9 L20.45 13.95 Q14.8 14.4 11.8 16.3 9.75 17.6 8.5 19.65 6.95 22.2 6.6 25.9 6.4 28.05 8.1 38.6 9.55 47.55 9.5 48.75 L8.15 49.75 5.95 50.3 Q3.6 50.25 3.2 49.5 2.8 48.75 0.9 37.9 -1.1 26.5 -1.1 23.35 -1.1 16.8 -0.3 12.4 L1.0 7.5 Q1.35 6.35 2.6 4.2 L3.45 2.7 Q5.4 -0.65 6.0 -0.9 L14.85 -1.4 Z" fill="none" stroke="#ffcc00" stroke-linecap="round" stroke-linejoin="round" stroke-width="1.5"/>
      <path d="M26.75 13.1 L27.55 13.35 M32.1 15.85 L32.55 16.2 34.2 17.8 Q37.55 21.7 38.0 27.75 L38.3 37.5 38.55 47.95 M28.8 13.85 Q29.9 14.35 30.95 15.0 M6.3 32.05 L7.4 39.7 8.65 47.95 M6.0 26.05 L5.95 26.8 M5.9 28.35 L6.1 30.3" ffdec:has-small-stroke="true" ffdec:original-stroke-width="0.7" fill="none" stroke="#ffffff" stroke-linecap="round" stroke-linejoin="round" stroke-width="1.0473071354654526"/>
      <path d="M8.45 49.3 Q-1.8 14.8 20.35 13.35 41.35 13.2 37.0 48.75" fill="none" stroke="#ff0000" stroke-linecap="round" stroke-linejoin="round" stroke-width="6.0"/>
      <path d="M36.5 48.95 Q40.85 12.65 19.85 12.8 -2.3 14.25 8.25 50.2" fill="none" stroke="#ffffff" stroke-linecap="round" stroke-linejoin="round" stroke-opacity="0.2" stroke-width="3.5"/>
      <path d="M8.15 18.3 Q5.15 22.3 4.9 29.25 M36.2 26.8 Q33.1 13.3 20.95 12.85 M36.5 48.95 Q37.15 43.7 37.25 39.2 M37.15 34.1 L36.95 31.2 M16.05 13.4 L13.75 14.1" fill="none" stroke="#ffffff" stroke-linecap="round" stroke-linejoin="round" stroke-opacity="0.6" stroke-width="1.8"/>
    </g>
  </defs>
</svg>
