<?xml version="1.0" encoding="UTF-8" standalone="no"?>
<svg xmlns:ffdec="https://www.free-decompiler.com/flash" xmlns:xlink="http://www.w3.org/1999/xlink" ffdec:objectType="frame" height="32.5px" width="48.8px" xmlns="http://www.w3.org/2000/svg">
  <g transform="matrix(1.0, 0.0, 0.0, 1.0, -11.5, -5.15)">
    <use ffdec:characterId="1871" height="32.5" transform="matrix(1.0, 0.0, 0.0, 1.0, 11.5, 5.15)" width="48.8" xlink:href="#shape0"/>
    <filter id="filter0">
      <feConvolveMatrix divisor="4.0" in="SourceGraphic" kernelMatrix="1 1 1 1" order="2 2" result="filterResult0"/>
    </filter>
    <use ffdec:characterId="1873" filter="url(#filter0)" height="15.35" transform="matrix(1.0326, 0.0, 0.0, 1.0326, 34.4, 17.75)" width="10.8" xlink:href="#sprite0"/>
    <use ffdec:characterId="1874" height="11.3" transform="matrix(1.0, 0.0, 0.0, 1.0, 26.35, 13.45)" width="9.2" xlink:href="#shape2"/>
    <filter id="filter3">
      <feColorMatrix in="SourceGraphic" result="filterResult5" type="matrix" values="1.04 0.0 0.0 0.0 0.022666661 0.0 1.04 0.0 0.0 0.022666661 0.0 0.0 1.04 0.0 0.022666661 0.0 0.0 0.0 1.0 0.0"/>
    </filter>
    <use ffdec:characterId="1881" filter="url(#filter3)" height="111.25" transform="matrix(0.23, 0.0, 0.0, 0.23, 35.9541, 11.5232)" width="105.05" xlink:href="#sprite1"/>
  </g>
  <defs>
    <g id="shape0" transform="matrix(1.0, 0.0, 0.0, 1.0, -11.5, -5.15)">
      <path d="M37.75 30.45 L37.2 29.6 36.95 29.3 Q35.85 26.9 36.4 24.1 37.1 20.0 40.65 17.15 44.3 14.3 48.7 14.3 53.05 14.3 55.9 17.15 56.9 18.05 57.45 19.05 L57.65 19.5 57.75 19.95 58.8 22.2 59.0 22.7 59.05 22.8 Q59.7 24.6 59.5 26.7 59.05 30.85 55.5 33.85 51.85 36.85 47.4 36.9 42.8 36.85 40.0 33.85 L39.15 32.8 38.8 32.2 37.75 30.45 Z" fill="none" stroke="#693800" stroke-linecap="round" stroke-linejoin="round" stroke-width="1.5"/>
      <path d="M45.7 11.45 L45.7 26.8 14.2 26.8 14.2 11.45 45.7 11.45" fill="#ffffff" fill-rule="evenodd" stroke="none"/>
      <path d="M39.45 9.95 L42.6 9.95 42.6 6.65 39.45 6.65 39.45 9.95 M11.5 28.2 L11.5 9.95 13.0 9.95 13.0 6.65 11.5 6.65 11.65 6.0 Q12.0 5.15 13.25 5.15 L46.45 5.15 Q48.1 5.15 48.25 6.65 L46.75 6.65 46.75 9.95 48.25 9.95 48.25 28.2 46.75 28.2 46.75 31.5 48.25 31.5 Q48.2 32.4 47.6 32.8 L46.45 33.05 13.25 33.05 Q11.95 33.05 11.65 32.15 11.5 31.9 11.5 31.5 L13.0 31.5 13.0 28.2 11.5 28.2 M39.45 31.5 L42.6 31.5 42.6 28.2 39.45 28.2 39.45 31.5 M45.7 11.45 L14.2 11.45 14.2 26.8 45.7 26.8 45.7 11.45 M24.65 31.5 L27.75 31.5 27.75 28.2 24.65 28.2 24.65 31.5 M32.05 31.5 L35.15 31.5 35.15 28.2 32.05 28.2 32.05 31.5 M17.3 31.5 L20.4 31.5 20.4 28.2 17.3 28.2 17.3 31.5 M17.3 9.95 L20.4 9.95 20.4 6.65 17.3 6.65 17.3 9.95 M24.65 9.95 L27.75 9.95 27.75 6.65 24.65 6.65 24.65 9.95 M32.05 9.95 L35.15 9.95 35.15 6.65 32.05 6.65 32.05 9.95" fill="#434343" fill-rule="evenodd" stroke="none"/>
      <path d="M45.7 11.45 L45.7 26.8 45.5 26.8 45.5 11.7 14.2 11.7 14.2 11.45 45.7 11.45" fill="#000000" fill-opacity="0.30980393" fill-rule="evenodd" stroke="none"/>
    </g>
    <g id="sprite0" transform="matrix(1.0, 0.0, 0.0, 1.0, 0.0, 0.0)">
      <use ffdec:characterId="1872" height="15.35" transform="matrix(1.0, 0.0, 0.0, 1.0, 0.0, 0.0)" width="10.8" xlink:href="#shape1"/>
    </g>
    <g id="shape1" transform="matrix(1.0, 0.0, 0.0, 1.0, 0.0, 0.0)">
      <path d="M3.0 15.35 L0.7 11.55 Q-1.75 6.05 4.6 0.0 L10.8 6.0 6.0 15.35 3.0 15.35" fill="#000000" fill-opacity="0.28627452" fill-rule="evenodd" stroke="none"/>
    </g>
    <g id="shape2" transform="matrix(1.0, 0.0, 0.0, 1.0, -26.35, -13.45)">
      <path d="M35.2 19.5 L34.45 20.05 28.7 24.2 Q26.45 25.7 26.7 22.95 L26.4 15.05 26.4 14.2 Q26.55 12.85 28.6 14.0 L34.25 17.25 Q36.2 18.25 35.2 19.5" fill="#272727" fill-rule="evenodd" stroke="none"/>
    </g>
    <g id="sprite1" transform="matrix(1.0, 0.0, 0.0, 1.0, 21.5, 31.85)">
      <use ffdec:characterId="1875" height="100.5" transform="matrix(1.0, 0.0, 0.0, 1.0, -21.5, -21.1)" width="103.85" xlink:href="#shape3"/>
      <clipPath id="clipPath0">
        <path d="M 64.35 -1.4 L 64.35 -1.4 L 64.35 -1.4 Z M 23.53 -5.08 L 23.78 -5.07 L 24.03 -5.04 L 24.26 -5 L 24.5 -4.94 L 24.72 -4.85 L 24.94 -4.75 L 25.15 -4.64 L 25.35 -4.5 L 25.35 -4.4 L 24.85 -2.25 L 26 -2.25 L 30.4 -2.45 L 35.75 -2.9 L 36.35 -3 L 37.35 -3.1 L 37.65 -3.2 L 38.85 -3.35 L 42.45 -3.45 L 42.68 -3.42 L 42.89 -3.37 L 43.08 -3.31 L 43.25 -3.24 L 43.4 -3.15 L 43.54 -3.05 L 43.65 -2.93 L 43.75 -2.8 L 43.75 -2.7 L 43.55 -1.85 L 43.4 -1.65 L 43.22 -1.46 L 43 -1.28 L 42.76 -1.12 L 42.49 -0.98 L 42.19 -0.86 L 41.86 -0.75 L 41.5 -0.65 L 38.1 0 L 36.6 0.1 L 35.35 0.17 L 34.14 0.21 L 32.97 0.24 L 31.84 0.25 L 30.95 0.25 L 30.08 0.23 L 29.24 0.2 L 28.42 0.15 L 27.63 0.1 L 26.86 0.03 L 26.12 -0.06 L 25.4 -0.15 L 24.33 -0.35 L 23.37 -0.54 L 22.52 -0.73 L 21.79 -0.91 L 21.16 -1.09 L 20.65 -1.27 L 20.24 -1.44 L 20.08 -1.52 L 19.95 -1.6 L 19.9 -1.7 L 19.2 -2.25 L 19.05 -2.5 L 19.05 -2.8 L 19.08 -2.93 L 19.12 -3.06 L 19.19 -3.19 L 19.27 -3.31 L 19.38 -3.44 L 19.5 -3.56 L 19.64 -3.68 L 19.8 -3.8 L 19.98 -3.92 L 20.17 -4.03 L 20.62 -4.26 L 21.15 -4.48 L 21.75 -4.7 L 22.22 -4.87 L 22.45 -4.93 L 22.68 -4.99 L 22.9 -5.03 L 23.11 -5.06 L 23.33 -5.07 L 23.53 -5.08 Z M 49.59 -0.19 L 49.78 -0.18 L 49.97 -0.15 L 50.17 -0.1 L 50.38 -0.02 L 50.6 0.08 L 50.82 0.2 L 51.06 0.34 L 51.3 0.5 L 51.85 0.85 L 52.7 1.5 L 53.35 2.95 L 53.25 3.85 L 51 4.9 L 51.75 6.5 L 53.35 9.05 L 55.9 13.1 L 57.65 15.25 L 59 17.5 L 59.1 17.95 L 59.17 18.2 L 59.22 18.44 L 59.25 18.65 L 59.25 18.85 L 59.22 19.03 L 59.17 19.19 L 59.1 19.33 L 59 19.45 L 58.82 19.54 L 58.65 19.63 L 58.47 19.69 L 58.3 19.75 L 58.13 19.79 L 57.96 19.83 L 57.8 19.84 L 57.64 19.85 L 57.42 19.84 L 57.2 19.8 L 56.99 19.75 L 56.78 19.66 L 56.58 19.56 L 56.38 19.43 L 56.19 19.28 L 56 19.1 L 54.1 16.75 L 53.35 15.6 L 51.35 12.35 L 50.96 11.58 L 50.61 10.83 L 50.28 10.09 L 49.99 9.36 L 49.72 8.65 L 49.48 7.95 L 49.28 7.27 L 49.1 6.6 L 48.82 5.63 L 48.6 4.76 L 48.42 3.97 L 48.29 3.28 L 48.21 2.67 L 48.18 2.4 L 48.17 2.16 L 48.17 1.93 L 48.19 1.73 L 48.21 1.56 L 48.25 1.4 L 48.31 1.09 L 48.38 0.82 L 48.46 0.58 L 48.56 0.38 L 48.68 0.2 L 48.8 0.07 L 48.94 -0.03 L 49.1 -0.1 L 49.22 -0.14 L 49.34 -0.17 L 49.46 -0.19 L 49.59 -0.19 Z M 13 0.37 L 13.15 0.37 L 13.3 0.4 L 13.48 0.5 L 13.63 0.61 L 13.77 0.73 L 13.89 0.88 L 13.98 1.03 L 14.06 1.21 L 14.11 1.4 L 14.15 1.6 L 14.15 1.9 L 13.85 2.95 L 12.35 5.65 L 11.5 6.95 L 10.59 8.27 L 9.68 9.53 L 8.77 10.73 L 7.86 11.86 L 6.96 12.94 L 6.05 13.95 L 5.6 14.44 L 5.15 14.91 L 4.7 15.36 L 4.25 15.8 L 3.38 16.58 L 2.58 17.27 L 1.86 17.87 L 1.21 18.39 L 0.64 18.81 L 0.15 19.15 L -0.26 19.39 L -0.44 19.48 L -0.6 19.55 L -2.05 19.95 L -2.4 19.75 L -2.5 19.65 L -2.7 19.4 L -2.77 19.21 L -2.82 18.98 L -2.84 18.71 L -2.84 18.41 L -2.81 18.08 L -2.75 17.7 L -2.66 17.29 L -2.55 16.85 L -2.41 16.41 L -2.33 16.21 L -2.25 16.02 L -2.15 15.84 L -2.06 15.67 L -1.95 15.52 L -1.84 15.38 L -1.72 15.24 L -1.59 15.12 L -1.46 15.02 L -1.32 14.92 L -1.18 14.83 L -1.02 14.76 L -0.87 14.7 L -0.7 14.65 L 1.05 14.7 L 1 14.7 L 1.85 15.25 L 5.1 10.9 L 7.45 7.3 L 8.15 6.15 L 8.5 5.7 L 9.5 4 L 10.8 2.05 L 11.6 1.15 L 11.78 0.97 L 11.95 0.81 L 12.13 0.67 L 12.3 0.56 L 12.48 0.48 L 12.65 0.41 L 12.83 0.38 L 13 0.37 Z M 27.4 14.55 L 29.3 14.85 L 29.53 14.92 L 29.76 15.01 L 29.97 15.12 L 30.17 15.25 L 30.37 15.4 L 30.56 15.56 L 30.73 15.75 L 30.9 15.95 L 31.6 17.25 L 31.9 18.55 L 31.96 18.98 L 32.01 19.44 L 32.03 19.93 L 32.03 20.45 L 32 21 L 31.96 21.59 L 31.89 22.2 L 31.8 22.85 L 31.25 25.35 L 31.18 25.65 L 31.1 25.96 L 31.01 26.26 L 30.9 26.58 L 30.78 26.89 L 30.65 27.21 L 30.51 27.53 L 30.35 27.85 L 28.5 29.4 L 28.22 29.55 L 27.91 29.69 L 27.59 29.81 L 27.25 29.91 L 26.89 30 L 26.51 30.07 L 26.12 30.12 L 25.7 30.15 L 25.2 30.15 L 25.01 30.12 L 24.83 30.08 L 24.68 30.03 L 24.54 29.96 L 24.41 29.89 L 24.31 29.8 L 24.22 29.71 L 24.15 29.6 L 24.05 29.45 L 23.97 29.29 L 23.91 29.11 L 23.88 28.91 L 23.86 28.7 L 23.87 28.47 L 23.9 28.22 L 23.95 27.95 L 25.65 16.2 L 25.67 16.01 L 25.7 15.82 L 25.74 15.65 L 25.79 15.49 L 25.85 15.34 L 25.92 15.2 L 26.01 15.07 L 26.1 14.95 L 26.17 14.86 L 26.27 14.77 L 26.4 14.71 L 26.55 14.65 L 26.73 14.61 L 26.92 14.57 L 27.15 14.56 L 27.4 14.55 Z M 31.08 11.22 L 30.52 11.23 L 29.95 11.25 L 18.8 11.25 L 17.6 11.35 L 17.4 11.36 L 17.22 11.38 L 17.04 11.41 L 16.86 11.46 L 16.7 11.53 L 16.54 11.6 L 16.39 11.69 L 16.25 11.8 L 16.11 11.87 L 15.98 11.96 L 15.86 12.06 L 15.76 12.18 L 15.68 12.31 L 15.6 12.46 L 15.54 12.62 L 15.5 12.8 L 15.48 12.99 L 15.49 13.16 L 15.51 13.32 L 15.55 13.45 L 15.75 13.75 L 16.7 14.1 L 16.95 14.3 L 17.4 14.85 L 17.5 15.85 L 17.4 16.4 L 17.05 18.8 L 15.4 18.8 L 15.02 18.81 L 14.66 18.85 L 14.31 18.92 L 13.98 19.01 L 13.66 19.13 L 13.36 19.28 L 13.07 19.45 L 12.8 19.65 L 12.52 19.88 L 12.27 20.12 L 12.05 20.38 L 11.88 20.65 L 11.73 20.93 L 11.62 21.23 L 11.54 21.53 L 11.5 21.85 L 11.46 22.18 L 11.45 22.5 L 11.47 22.81 L 11.54 23.1 L 11.64 23.38 L 11.77 23.65 L 11.94 23.91 L 12.15 24.15 L 12.8 24.65 L 14.45 25 L 16.05 25 L 15.6 27.2 L 15.05 29.3 L 14.2 30.15 L 13.35 30.4 L 13.09 30.46 L 12.88 30.55 L 12.78 30.6 L 12.69 30.66 L 12.62 30.73 L 12.55 30.8 L 12.46 30.83 L 12.37 30.88 L 12.3 30.95 L 12.24 31.04 L 12.19 31.14 L 12.15 31.26 L 12.12 31.4 L 12.1 31.55 L 12.08 31.67 L 12.07 31.8 L 12.08 31.92 L 12.1 32.04 L 12.13 32.16 L 12.18 32.27 L 12.23 32.39 L 12.3 32.5 L 12.45 32.65 L 13.25 33.2 L 13.45 33.25 L 14.55 33.45 L 16.05 33.45 L 17.4 33.35 L 18.8 33.2 L 21.65 33.2 L 23.35 33.35 L 25 33.45 L 27 33.45 L 27.8 33.41 L 28.58 33.34 L 29.33 33.25 L 30.06 33.12 L 30.77 32.97 L 31.45 32.79 L 32.11 32.59 L 32.75 32.35 L 33.34 32.12 L 33.91 31.86 L 34.47 31.59 L 35 31.3 L 35.52 30.99 L 36.01 30.66 L 36.49 30.32 L 36.95 29.95 L 37.36 29.51 L 37.76 29.06 L 38.13 28.61 L 38.47 28.15 L 38.8 27.68 L 39.11 27.21 L 39.39 26.73 L 39.65 26.25 L 40.2 25 L 41.95 25 L 42.3 24.99 L 42.64 24.95 L 42.97 24.88 L 43.3 24.79 L 43.62 24.67 L 43.94 24.52 L 44.25 24.35 L 44.55 24.15 L 44.83 23.92 L 45.08 23.67 L 45.3 23.4 L 45.49 23.12 L 45.64 22.83 L 45.76 22.52 L 45.85 22.19 L 45.9 21.85 L 45.9 21.2 L 45.5 20.15 L 45.45 20.05 L 45.1 19.65 L 44.86 19.45 L 44.6 19.28 L 44.33 19.13 L 44.05 19.01 L 43.76 18.92 L 43.45 18.85 L 43.13 18.81 L 42.8 18.8 L 41.05 18.8 L 40.85 17.95 L 40.1 15.85 L 39.3 14.45 L 38.94 14.07 L 38.55 13.72 L 38.14 13.39 L 37.71 13.07 L 37.26 12.79 L 36.78 12.52 L 36.28 12.27 L 35.75 12.05 L 35.26 11.85 L 34.74 11.69 L 34.2 11.54 L 33.62 11.43 L 33.03 11.33 L 32.41 11.27 L 31.76 11.23 L 31.08 11.22 Z M 30.8 3.75 L 31.33 3.76 L 31.84 3.77 L 32.36 3.8 L 32.87 3.84 L 33.37 3.89 L 33.86 3.95 L 34.35 4.02 L 34.84 4.1 L 35.32 4.19 L 35.79 4.29 L 36.25 4.41 L 36.72 4.53 L 37.17 4.67 L 37.62 4.81 L 38.06 4.97 L 38.5 5.14 L 38.93 5.32 L 39.36 5.51 L 39.78 5.71 L 40.19 5.92 L 40.6 6.14 L 41 6.37 L 41.4 6.62 L 41.79 6.87 L 42.17 7.14 L 42.55 7.41 L 42.92 7.7 L 43.29 8 L 43.65 8.31 L 44.01 8.63 L 44.36 8.96 L 44.7 9.3 L 45.14 9.76 L 45.55 10.22 L 45.94 10.7 L 46.3 11.19 L 46.64 11.69 L 46.95 12.2 L 47.24 12.72 L 47.5 13.25 L 47.95 14.15 L 48 14.2 L 48.05 14.3 L 48.25 14.85 L 48.4 15.29 L 48.54 15.74 L 48.66 16.19 L 48.77 16.65 L 48.86 17.12 L 48.94 17.59 L 49.01 18.07 L 49.06 18.55 L 49.1 19.04 L 49.13 19.54 L 49.14 20.04 L 49.14 20.55 L 49.13 21.07 L 49.1 21.59 L 49.06 22.12 L 49 22.65 L 48.87 23.52 L 48.7 24.39 L 48.5 25.24 L 48.26 26.07 L 47.98 26.9 L 47.67 27.71 L 47.32 28.5 L 46.94 29.29 L 46.52 30.06 L 46.06 30.82 L 45.56 31.56 L 45.03 32.3 L 44.47 33.02 L 43.86 33.72 L 43.23 34.42 L 42.55 35.1 L 41.1 36.3 L 40.41 36.84 L 39.72 37.35 L 39.02 37.84 L 38.31 38.3 L 37.6 38.73 L 36.87 39.14 L 36.14 39.53 L 35.4 39.89 L 34.65 40.22 L 33.9 40.53 L 33.13 40.81 L 32.36 41.07 L 31.58 41.3 L 30.8 41.51 L 30 41.69 L 29.2 41.85 L 25.4 42.15 L 24.85 42.14 L 24.31 42.12 L 23.78 42.08 L 23.25 42.04 L 22.74 41.98 L 22.22 41.91 L 21.72 41.84 L 21.22 41.75 L 20.73 41.65 L 20.24 41.54 L 19.76 41.41 L 19.29 41.28 L 18.83 41.14 L 18.37 40.98 L 17.92 40.81 L 17.48 40.64 L 17.04 40.45 L 16.61 40.25 L 16.18 40.04 L 15.77 39.82 L 15.36 39.59 L 14.95 39.34 L 14.56 39.09 L 14.17 38.82 L 13.79 38.55 L 13.41 38.26 L 13.04 37.96 L 12.68 37.65 L 12.32 37.33 L 11.98 37 L 11.63 36.65 L 11.3 36.3 L 9.55 34.05 L 8.9 33 L 8.6 32.55 L 8.33 31.99 L 8.09 31.42 L 7.87 30.85 L 7.67 30.26 L 7.5 29.67 L 7.35 29.07 L 7.22 28.46 L 7.12 27.85 L 7.05 27.23 L 7 26.6 L 6.97 25.96 L 6.97 25.31 L 6.99 24.66 L 7.04 24 L 7.11 23.33 L 7.2 22.65 L 7.28 22.16 L 7.37 21.67 L 7.48 21.19 L 7.59 20.71 L 7.72 20.24 L 7.85 19.77 L 8 19.31 L 8.16 18.85 L 8.33 18.4 L 8.51 17.95 L 8.7 17.51 L 8.91 17.07 L 9.12 16.64 L 9.35 16.21 L 9.59 15.78 L 9.84 15.36 L 10.1 14.95 L 10.37 14.54 L 10.65 14.13 L 10.95 13.73 L 11.25 13.34 L 11.57 12.95 L 11.9 12.56 L 12.23 12.18 L 12.58 11.8 L 12.95 11.43 L 13.32 11.06 L 13.7 10.7 L 14.1 10.34 L 14.5 9.99 L 14.92 9.64 L 15.35 9.3 L 15.78 8.96 L 16.22 8.63 L 16.66 8.31 L 17.1 8 L 17.55 7.7 L 18 7.41 L 18.45 7.14 L 18.9 6.87 L 19.36 6.62 L 19.82 6.37 L 20.29 6.14 L 20.76 5.92 L 21.23 5.71 L 21.7 5.51 L 22.18 5.32 L 22.66 5.14 L 23.15 4.97 L 23.63 4.81 L 24.13 4.67 L 24.62 4.53 L 25.12 4.41 L 25.62 4.29 L 26.12 4.19 L 26.63 4.1 L 27.14 4.02 L 27.65 3.95 L 28.17 3.89 L 28.69 3.84 L 29.21 3.8 L 29.74 3.77 L 30.27 3.76 L 30.8 3.75 Z M 58.6 25.5 L 58.73 25.6 L 58.84 25.72 L 58.94 25.86 L 59.01 26.02 L 59.07 26.21 L 59.12 26.42 L 59.14 26.65 L 59.15 26.9 L 58.9 28.4 L 58.81 28.66 L 58.72 28.92 L 58.62 29.16 L 58.5 29.39 L 58.38 29.62 L 58.25 29.83 L 58.11 30.03 L 57.96 30.23 L 57.8 30.41 L 57.64 30.58 L 57.46 30.74 L 57.28 30.89 L 57.08 31.04 L 56.88 31.17 L 56.67 31.29 L 56.45 31.4 L 54.45 30.1 L 54.24 30.33 L 53.97 30.66 L 53.66 31.08 L 53.3 31.6 L 52.89 32.21 L 52.42 32.91 L 51.35 34.6 L 48.65 39.2 L 46.85 42.05 L 45 44.95 L 44.79 45.13 L 44.59 45.28 L 44.4 45.41 L 44.21 45.52 L 44.03 45.6 L 43.86 45.66 L 43.7 45.7 L 43.54 45.71 L 43.4 45.7 L 43.1 45.5 L 42.95 45.39 L 42.81 45.28 L 42.69 45.15 L 42.58 45.03 L 42.5 44.89 L 42.43 44.75 L 42.37 44.6 L 42.34 44.45 L 42.32 44.29 L 42.31 44.12 L 42.33 43.95 L 42.36 43.78 L 42.41 43.59 L 42.47 43.4 L 42.55 43.2 L 42.65 43 L 43.02 42.06 L 43.38 41.24 L 43.55 40.87 L 43.72 40.53 L 43.89 40.23 L 44.05 39.95 L 45 38.65 L 45.43 37.94 L 45.86 37.25 L 46.3 36.58 L 46.73 35.93 L 47.17 35.3 L 47.61 34.69 L 48.05 34.1 L 48.49 33.53 L 48.93 32.97 L 49.37 32.44 L 49.81 31.93 L 50.26 31.43 L 50.71 30.96 L 51.15 30.5 L 51.6 30.07 L 52.05 29.65 L 52.88 28.82 L 53.65 28.09 L 54.35 27.45 L 54.99 26.91 L 55.56 26.47 L 55.82 26.28 L 56.07 26.12 L 56.3 25.98 L 56.52 25.86 L 56.72 25.77 L 56.9 25.7 L 58.6 25.5 Z M -1.83 25.38 L -1.6 25.39 L -1.38 25.43 L -1.15 25.5 L -0.93 25.6 L -0.71 25.72 L -0.49 25.87 L -0.27 26.05 L -0.05 26.25 L 0.51 26.88 L 1 27.49 L 1.22 27.78 L 1.41 28.06 L 1.59 28.33 L 1.75 28.6 L 2.5 29.7 L 4.55 33.5 L 4.87 34.22 L 5.16 34.94 L 5.44 35.65 L 5.7 36.35 L 5.94 37.05 L 6.16 37.74 L 6.37 38.42 L 6.55 39.1 L 6.78 40.11 L 6.97 41.03 L 7.12 41.85 L 7.24 42.58 L 7.31 43.2 L 7.35 43.73 L 7.34 44.16 L 7.33 44.34 L 7.3 44.5 L 7.17 44.81 L 7.05 45.09 L 6.92 45.33 L 6.79 45.55 L 6.66 45.73 L 6.52 45.89 L 6.39 46.01 L 6.25 46.1 L 6.12 46.15 L 5.98 46.18 L 5.85 46.2 L 5.7 46.21 L 5.47 46.19 L 5.22 46.14 L 4.96 46.06 L 4.69 45.94 L 4.41 45.8 L 4.12 45.61 L 3.82 45.4 L 3.5 45.15 L 2.85 44.55 L 2.2 43.55 L 2.1 42.8 L 2.2 41.95 L 4.55 40.9 L 4.45 40.45 L 2.2 36.5 L -0.45 32.25 L -1.85 30.1 L -2.3 29.45 L -3.25 27.3 L -3.32 27.02 L -3.36 26.77 L -3.37 26.54 L -3.35 26.33 L -3.3 26.14 L -3.21 25.97 L -3.1 25.82 L -2.95 25.7 L -2.67 25.56 L -2.39 25.46 L -2.11 25.4 L -1.83 25.38 Z M 24.52 45.63 L 25.37 45.64 L 26.2 45.66 L 27.01 45.7 L 27.79 45.76 L 28.55 45.83 L 29.29 45.92 L 30.01 46.03 L 30.7 46.15 L 31.82 46.34 L 32.82 46.53 L 33.7 46.72 L 34.47 46.91 L 35.13 47.11 L 35.41 47.2 L 35.67 47.3 L 35.89 47.4 L 36.09 47.5 L 36.26 47.6 L 36.4 47.7 L 36.65 47.88 L 36.86 48.06 L 37.04 48.23 L 37.19 48.4 L 37.3 48.56 L 37.38 48.71 L 37.43 48.86 L 37.45 49 L 37.35 49.25 L 37.28 49.37 L 37.19 49.48 L 37.09 49.6 L 36.97 49.71 L 36.71 49.93 L 36.4 50.15 L 36.04 50.36 L 35.62 50.56 L 35.16 50.76 L 34.65 50.95 L 31.7 51.25 L 30.8 50.8 L 31.15 48.45 L 25.6 48.7 L 19.95 49.2 L 16.8 49.65 L 13.2 49.85 L 12.75 49.75 L 12 49.2 L 11.8 48.9 L 11.82 48.68 L 11.86 48.47 L 11.91 48.27 L 11.98 48.08 L 12.07 47.91 L 12.18 47.74 L 12.3 47.58 L 12.44 47.44 L 12.59 47.3 L 12.76 47.18 L 12.95 47.06 L 13.16 46.96 L 13.38 46.87 L 13.62 46.78 L 13.88 46.71 L 14.15 46.65 L 17.55 46 L 19.15 45.9 L 20.56 45.78 L 21.93 45.7 L 23.25 45.64 L 24.52 45.63 Z M 37.2 -6.3 L 37 -4.95 L 36.8 -4.1 L 35.6 -4.5 L 31.35 -4.85 L 29.1 -4.95 L 27.1 -4.85 L 26.95 -4.85 L 25.7 -4.7 L 26.1 -6.2 L 26.1 -6.2 L 25.5 -6.1 L 24.89 -5.99 L 24.29 -5.87 L 23.7 -5.75 L 23.11 -5.61 L 22.52 -5.46 L 21.93 -5.3 L 21.34 -5.14 L 20.76 -4.96 L 20.18 -4.77 L 19.61 -4.58 L 19.04 -4.37 L 18.47 -4.16 L 17.9 -3.93 L 17.34 -3.7 L 16.77 -3.45 L 16.22 -3.2 L 15.66 -2.93 L 15.11 -2.66 L 14.56 -2.37 L 13.47 -1.77 L 12.39 -1.14 L 11.33 -0.46 L 10.27 0.25 L 9.23 1.01 L 8.2 1.8 L 5.7 4.05 L 6.7 5.75 L 6.45 5.95 L 6.07 6.24 L 5.69 6.57 L 5.3 6.93 L 4.9 7.32 L 4.5 7.75 L 4.09 8.22 L 3.67 8.72 L 3.25 9.25 L 2.84 9.66 L 2.45 10.07 L 2.09 10.48 L 1.76 10.89 L 1.46 11.29 L 1.18 11.7 L 0.93 12.1 L 0.7 12.5 L 0.41 12.86 L 0.19 13.19 L 0.1 13.34 L 0.03 13.48 L -0.02 13.62 L -0.05 13.75 L -0.15 13.65 L -1.25 12.8 L -1.65 13.55 L -1.93 14.08 L -2.19 14.62 L -2.44 15.16 L -2.68 15.71 L -2.91 16.26 L -3.13 16.82 L -3.33 17.38 L -3.53 17.95 L -3.71 18.52 L -3.88 19.1 L -4.03 19.68 L -4.18 20.26 L -4.32 20.85 L -4.44 21.45 L -4.55 22.05 L -4.65 22.65 L -4.76 23.37 L -4.85 24.08 L -4.93 24.78 L -4.99 25.48 L -5.03 26.17 L -5.06 26.86 L -5.07 27.54 L -5.06 28.21 L -5.04 28.88 L -5 29.54 L -4.94 30.2 L -4.87 30.85 L -4.77 31.5 L -4.67 32.14 L -4.54 32.77 L -4.4 33.4 L -3.9 33.2 L -1.85 32.25 L -1.85 32.25 L -1.89 32.36 L -1.92 32.48 L -1.93 32.61 L -1.92 32.76 L -1.9 32.93 L -1.87 33.1 L -1.82 33.29 L -1.75 33.5 L -1.55 34.05 L -0.6 37.35 L 0.6 39.95 L 1.1 40.7 L 1.17 40.88 L 1.24 41.05 L 1.32 41.21 L 1.41 41.36 L 1.51 41.5 L 1.62 41.63 L 1.73 41.74 L 1.85 41.85 L 1.65 41.95 L 0.15 42.5 L 1.25 43.9 L 1.65 44.3 L 2.16 44.84 L 2.68 45.37 L 3.21 45.88 L 3.76 46.37 L 4.31 46.85 L 4.87 47.31 L 5.44 47.76 L 6.03 48.19 L 6.62 48.6 L 7.22 49 L 7.83 49.38 L 8.46 49.75 L 9.09 50.1 L 9.73 50.43 L 10.39 50.75 L 11.05 51.05 L 11.91 51.39 L 12.79 51.7 L 13.68 51.99 L 14.6 52.25 L 15.53 52.49 L 16.49 52.7 L 17.46 52.89 L 18.45 53.05 L 18.85 50.95 L 18.95 50.5 L 20.25 50.8 L 24.6 51.25 L 25.22 51.29 L 25.81 51.33 L 26.39 51.34 L 26.95 51.35 L 27.49 51.34 L 28.01 51.33 L 28.52 51.29 L 29 51.25 L 30.6 50.95 L 30.1 52.75 L 30.2 52.95 L 31.35 52.75 L 32 52.55 L 32.8 52.38 L 33.59 52.19 L 34.37 51.99 L 35.15 51.76 L 35.92 51.52 L 36.69 51.27 L 37.45 50.99 L 38.2 50.7 L 39.07 50.31 L 39.94 49.91 L 40.8 49.48 L 41.65 49.03 L 42.5 48.55 L 43.34 48.06 L 44.17 47.54 L 45 47 L 45.45 46.75 L 48.65 44.3 L 50.5 42.6 L 51.2 41.95 L 50.5 41.55 L 49.4 40.8 L 49 40.65 L 49.75 40.05 L 50.15 39.7 L 53.25 36.4 L 55.9 32.9 L 56.25 32.25 L 56.55 31.6 L 57.85 32.65 L 58.15 32.35 L 59.85 27.75 L 59.93 27.33 L 60.04 26.92 L 60.16 26.53 L 60.3 26.15 L 60.85 22.65 L 60.92 22.05 L 60.98 21.45 L 61.02 20.85 L 61.05 20.26 L 61.07 19.68 L 61.08 19.1 L 61.08 18.52 L 61.06 17.95 L 61.03 17.38 L 60.99 16.82 L 60.94 16.26 L 60.88 15.71 L 60.8 15.16 L 60.71 14.62 L 60.61 14.08 L 60.5 13.55 L 60 11.95 L 59.5 12.16 L 59.01 12.39 L 58.53 12.63 L 58.05 12.9 L 57.5 13.1 L 57.4 11.85 L 56.15 8.3 L 54.65 5.45 L 54.4 5 L 54.1 4.55 L 53.65 4.05 L 54 3.95 L 54.85 3.6 L 55.3 3.4 L 53.8 1.8 L 53.4 1.4 L 52.99 1.01 L 52.58 0.63 L 52.16 0.25 L 51.73 -0.11 L 51.3 -0.46 L 50.87 -0.8 L 50.42 -1.14 L 49.98 -1.46 L 49.53 -1.77 L 49.07 -2.08 L 48.61 -2.37 L 48.14 -2.66 L 47.66 -2.93 L 47.18 -3.2 L 46.7 -3.45 L 46.21 -3.7 L 45.71 -3.93 L 45.21 -4.16 L 44.71 -4.37 L 44.19 -4.58 L 43.68 -4.77 L 43.15 -4.96 L 42.62 -5.14 L 42.09 -5.3 L 41.55 -5.46 L 41.01 -5.61 L 40.46 -5.75 L 39.9 -5.87 L 39.34 -5.99 L 38.77 -6.1 L 38.2 -6.2 L 37.2 -6.3 Z M 34.35 -16.65 L 34.95 -16.59 L 35.51 -16.52 L 36.04 -16.44 L 36.54 -16.34 L 37 -16.22 L 37.43 -16.1 L 37.83 -15.96 L 38.2 -15.8 L 38.53 -15.65 L 38.84 -15.48 L 39.11 -15.31 L 39.35 -15.12 L 39.56 -14.93 L 39.74 -14.73 L 39.88 -14.52 L 40 -14.3 L 40 -14.2 L 40.05 -14.2 L 40.82 -14.09 L 41.58 -13.96 L 42.33 -13.82 L 43.08 -13.67 L 43.82 -13.5 L 44.55 -13.32 L 45.27 -13.13 L 45.99 -12.92 L 46.7 -12.7 L 47.4 -12.47 L 48.09 -12.22 L 48.78 -11.96 L 49.46 -11.69 L 50.13 -11.4 L 50.79 -11.1 L 51.45 -10.79 L 52.1 -10.46 L 52.74 -10.12 L 53.38 -9.77 L 54 -9.4 L 54.62 -9.02 L 55.24 -8.62 L 55.84 -8.22 L 56.44 -7.8 L 57.03 -7.36 L 57.61 -6.92 L 58.19 -6.45 L 58.75 -5.98 L 59.31 -5.49 L 59.87 -4.99 L 60.41 -4.48 L 60.95 -3.95 L 63.6 -0.95 L 64.35 -1.5 L 64.35 -1.4 L 64.41 -1.48 L 64.47 -1.53 L 64.56 -1.57 L 64.65 -1.58 L 64.8 -1.56 L 64.97 -1.5 L 65.17 -1.41 L 65.39 -1.27 L 65.63 -1.1 L 65.9 -0.89 L 66.19 -0.64 L 66.5 -0.35 L 66.86 0.03 L 67.2 0.42 L 67.51 0.82 L 67.79 1.23 L 68.04 1.64 L 68.27 2.07 L 68.47 2.5 L 68.65 2.95 L 68.7 3 L 68.85 3.4 L 69.05 3.91 L 69.22 4.4 L 69.37 4.87 L 69.49 5.34 L 69.58 5.79 L 69.65 6.22 L 69.69 6.64 L 69.7 7.05 L 69.25 9.25 L 69.05 9.4 L 69.4 11 L 69.54 11.59 L 69.66 12.19 L 69.78 12.79 L 69.88 13.4 L 69.97 14.01 L 70.04 14.63 L 70.11 15.26 L 70.16 15.89 L 70.2 16.52 L 70.23 17.17 L 70.25 17.82 L 70.25 18.47 L 70.25 19.13 L 70.23 19.8 L 70.19 20.47 L 70.15 21.15 L 70 22.65 L 69.88 23.59 L 69.75 24.52 L 69.59 25.45 L 69.41 26.37 L 69.21 27.28 L 68.99 28.19 L 68.75 29.08 L 68.49 29.98 L 68.21 30.86 L 67.9 31.74 L 67.58 32.61 L 67.23 33.47 L 66.87 34.32 L 66.48 35.17 L 66.08 36.02 L 65.65 36.85 L 66.4 37.15 L 66.47 37.14 L 66.54 37.15 L 66.6 37.19 L 66.63 37.26 L 66.66 37.36 L 66.67 37.48 L 66.66 37.62 L 66.64 37.8 L 66.6 38 L 66.6 38.05 L 66.5 38.45 L 66.15 39.5 L 65.9 40.08 L 65.62 40.65 L 65.32 41.21 L 64.99 41.75 L 64.63 42.28 L 64.25 42.8 L 63.84 43.31 L 63.4 43.8 L 61.5 45.6 L 60.1 46.65 L 59.73 46.85 L 59.38 47.02 L 59.05 47.17 L 58.74 47.29 L 58.44 47.38 L 58.16 47.45 L 57.9 47.49 L 57.65 47.5 L 57.3 47.85 L 54.45 50.4 L 53.75 50.96 L 53.05 51.51 L 52.34 52.04 L 51.63 52.57 L 50.91 53.07 L 50.19 53.57 L 49.46 54.05 L 48.73 54.51 L 48 54.97 L 47.26 55.4 L 46.51 55.83 L 45.76 56.24 L 45.01 56.64 L 44.25 57.02 L 43.49 57.39 L 42.72 57.75 L 41.95 58.09 L 41.18 58.42 L 40.4 58.74 L 39.61 59.04 L 38.83 59.33 L 38.03 59.6 L 37.23 59.87 L 36.43 60.11 L 35.62 60.35 L 34.81 60.57 L 34 60.77 L 33.18 60.97 L 32.35 61.14 L 31.52 61.31 L 30.69 61.46 L 29.85 61.6 L 29 61.7 L 29 62.55 L 29.04 62.61 L 29.05 62.68 L 29.03 62.74 L 28.99 62.81 L 28.92 62.88 L 28.82 62.95 L 28.7 63.03 L 28.55 63.1 L 27.75 63.45 L 26.65 63.75 L 26.45 63.85 L 21.4 64.15 L 20.75 64.07 L 20.13 63.99 L 19.56 63.9 L 19.02 63.8 L 18.53 63.7 L 18.08 63.59 L 17.67 63.47 L 17.3 63.35 L 17.15 63.3 L 16.4 62.8 L 16.2 62.66 L 16.02 62.52 L 15.87 62.37 L 15.74 62.22 L 15.63 62.07 L 15.55 61.92 L 15.49 61.76 L 15.45 61.6 L 14.44 61.42 L 13.44 61.22 L 12.46 61 L 11.48 60.75 L 10.53 60.49 L 9.58 60.2 L 8.65 59.89 L 7.74 59.56 L 6.83 59.21 L 5.95 58.84 L 5.07 58.44 L 4.21 58.03 L 3.36 57.59 L 2.53 57.13 L 1.71 56.65 L 0.9 56.15 L -0.03 55.55 L -0.93 54.91 L -1.82 54.24 L -2.69 53.54 L -3.53 52.8 L -4.36 52.03 L -5.16 51.23 L -5.95 50.4 L -7.75 48.35 L -8.3 47.5 L -8.7 46.9 L -8.9 47 L -9.25 47.3 L -9.37 47.4 L -9.5 47.47 L -9.64 47.52 L -9.79 47.53 L -9.97 47.51 L -10.16 47.46 L -10.37 47.36 L -10.59 47.23 L -10.82 47.07 L -11.07 46.87 L -11.33 46.63 L -11.6 46.35 L -12.95 44.65 L -13.13 44.4 L -13.29 44.13 L -13.44 43.86 L -13.57 43.59 L -13.69 43.3 L -13.79 43.01 L -13.88 42.71 L -13.95 42.4 L -14.12 41.87 L -14.27 41.36 L -14.39 40.86 L -14.48 40.39 L -14.54 39.93 L -14.57 39.48 L -14.57 39.06 L -14.55 38.65 L -14.51 38.26 L -14.46 37.9 L -14.38 37.56 L -14.29 37.24 L -14.17 36.94 L -14.03 36.67 L -13.88 36.42 L -13.7 36.2 L -13.5 36.2 L -13.68 35.4 L -13.83 34.59 L -13.97 33.77 L -14.08 32.95 L -14.17 32.13 L -14.25 31.29 L -14.3 30.46 L -14.32 29.61 L -14.33 28.76 L -14.32 27.91 L -14.29 27.05 L -14.23 26.18 L -14.16 25.3 L -14.06 24.43 L -13.94 23.54 L -13.8 22.65 L -13.63 21.77 L -13.45 20.89 L -13.25 20.02 L -13.03 19.16 L -12.79 18.31 L -12.54 17.46 L -12.27 16.62 L -11.98 15.79 L -11.67 14.96 L -11.34 14.15 L -10.99 13.34 L -10.63 12.53 L -10.25 11.74 L -9.85 10.95 L -9.43 10.17 L -9 9.4 L -8.6 8.85 L -8.8 8.75 L -9.45 8.45 L -9.35 8.4 L -9.45 8.4 L -9.48 8.4 L -9.56 8.39 L -9.63 8.37 L -9.68 8.32 L -9.72 8.26 L -9.75 8.18 L -9.76 8.08 L -9.76 7.96 L -9.75 7.83 L -9.68 7.5 L -9.56 7.11 L -9.38 6.64 L -9.15 6.1 L -8.91 5.54 L -8.63 5 L -8.32 4.47 L -7.97 3.95 L -7.6 3.44 L -7.18 2.95 L -6.73 2.47 L -6.25 2 L -5.83 1.56 L -5.41 1.16 L -4.99 0.78 L -4.57 0.44 L -4.16 0.12 L -3.76 -0.17 L -3.35 -0.42 L -2.95 -0.65 L -2.66 -0.85 L -2.37 -1.03 L -2.09 -1.17 L -1.8 -1.29 L -1.53 -1.39 L -1.25 -1.46 L -0.99 -1.5 L -0.72 -1.51 L -0.5 -1.5 L -0.35 -1.2 L 2.75 -3.95 L 3.45 -4.48 L 4.15 -5 L 4.85 -5.51 L 5.56 -6 L 6.27 -6.48 L 6.99 -6.95 L 7.71 -7.4 L 8.43 -7.83 L 9.16 -8.26 L 9.9 -8.67 L 10.64 -9.06 L 11.38 -9.45 L 12.12 -9.81 L 12.87 -10.17 L 13.63 -10.51 L 14.39 -10.84 L 15.15 -11.15 L 15.92 -11.45 L 16.69 -11.74 L 17.46 -12.01 L 18.24 -12.27 L 19.03 -12.51 L 19.82 -12.74 L 20.61 -12.96 L 21.41 -13.16 L 22.21 -13.35 L 23.01 -13.53 L 23.82 -13.69 L 24.63 -13.84 L 25.45 -13.97 L 26.27 -14.09 L 27.1 -14.2 L 27.07 -14.37 L 27.06 -14.54 L 27.08 -14.7 L 27.12 -14.85 L 27.18 -15 L 27.27 -15.14 L 27.38 -15.28 L 27.51 -15.41 L 27.67 -15.54 L 27.85 -15.66 L 28.06 -15.77 L 28.29 -15.88 L 28.54 -15.98 L 28.82 -16.08 L 29.12 -16.17 L 29.45 -16.25 L 34.35 -16.65 Z M 34 -18.6 L 32.83 -18.59 L 31.66 -18.55 L 30.51 -18.5 L 29.36 -18.41 L 28.21 -18.31 L 27.08 -18.18 L 25.95 -18.03 L 24.83 -17.86 L 23.71 -17.66 L 22.61 -17.44 L 21.51 -17.2 L 20.41 -16.93 L 19.33 -16.64 L 18.25 -16.33 L 17.18 -16 L 16.11 -15.64 L 15.06 -15.26 L 14 -14.85 L 12.96 -14.42 L 11.93 -13.97 L 10.9 -13.5 L 9.88 -13 L 8.86 -12.48 L 7.85 -11.93 L 6.85 -11.37 L 5.86 -10.78 L 4.87 -10.16 L 3.89 -9.53 L 2.92 -8.87 L 1.96 -8.18 L 1 -7.48 L 0.05 -6.75 L -0.9 -5.99 L -1.83 -5.22 L -2.74 -4.44 L -3.62 -3.65 L -4.47 -2.85 L -5.31 -2.04 L -6.11 -1.22 L -6.9 -0.39 L -7.66 0.45 L -8.39 1.3 L -9.1 2.16 L -9.79 3.03 L -10.45 3.92 L -11.09 4.81 L -11.7 5.71 L -12.29 6.62 L -12.85 7.55 L -13.39 8.48 L -13.91 9.43 L -14.4 10.38 L -14.87 11.35 L -15.31 12.32 L -15.73 13.31 L -16.12 14.31 L -16.49 15.31 L -16.84 16.33 L -17.16 17.36 L -17.46 18.4 L -17.73 19.44 L -17.98 20.5 L -18.2 21.57 L -18.4 22.65 L -18.52 23.4 L -18.63 24.15 L -18.73 24.89 L -18.81 25.63 L -18.88 26.36 L -18.93 27.09 L -18.97 27.82 L -19 28.54 L -19.02 29.25 L -19.02 29.97 L -19.01 30.67 L -18.99 31.38 L -18.95 32.08 L -18.9 32.77 L -18.84 33.46 L -18.76 34.15 L -18.67 34.83 L -18.57 35.51 L -18.45 36.18 L -18.33 36.85 L -18.18 37.52 L -18.03 38.18 L -17.86 38.84 L -17.68 39.49 L -17.48 40.14 L -17.28 40.78 L -17.05 41.42 L -16.82 42.05 L -16.57 42.68 L -16.31 43.31 L -16.04 43.93 L -15.75 44.55 L -14.9 46.15 L -12.65 49.85 L -9.85 53.3 L -9.75 53.4 L -4 58.7 L -3.34 59.18 L -2.66 59.64 L -1.98 60.09 L -1.29 60.53 L -0.58 60.95 L 0.13 61.35 L 0.85 61.74 L 1.58 62.12 L 2.33 62.47 L 3.08 62.82 L 3.84 63.15 L 4.61 63.46 L 5.39 63.76 L 6.18 64.04 L 6.98 64.31 L 7.79 64.56 L 8.61 64.8 L 9.43 65.02 L 10.27 65.23 L 11.12 65.42 L 11.98 65.6 L 12.85 65.76 L 13.72 65.91 L 14.61 66.04 L 15.51 66.16 L 16.41 66.26 L 17.33 66.35 L 18.25 66.42 L 19.19 66.47 L 20.13 66.51 L 21.09 66.54 L 22.05 66.55 L 23.27 66.53 L 24.49 66.49 L 25.7 66.43 L 26.9 66.33 L 28.09 66.22 L 29.28 66.07 L 30.46 65.9 L 31.63 65.71 L 32.79 65.49 L 33.95 65.24 L 35.09 64.97 L 36.23 64.68 L 37.36 64.36 L 38.49 64.01 L 39.6 63.64 L 40.71 63.24 L 41.81 62.81 L 42.91 62.36 L 43.99 61.89 L 45.07 61.39 L 46.14 60.86 L 47.2 60.31 L 48.26 59.74 L 49.3 59.13 L 50.34 58.51 L 51.37 57.85 L 52.4 57.18 L 53.41 56.47 L 54.42 55.74 L 55.42 54.99 L 56.41 54.21 L 57.4 53.4 L 58.34 52.59 L 59.25 51.76 L 60.13 50.93 L 60.99 50.09 L 61.83 49.23 L 62.64 48.37 L 63.42 47.5 L 64.18 46.62 L 64.91 45.73 L 65.61 44.83 L 66.29 43.92 L 66.94 43.01 L 67.57 42.08 L 68.17 41.14 L 68.75 40.19 L 69.3 39.24 L 69.82 38.27 L 70.32 37.3 L 70.8 36.31 L 71.24 35.32 L 71.67 34.31 L 72.06 33.3 L 72.43 32.28 L 72.78 31.25 L 73.09 30.21 L 73.39 29.15 L 73.65 28.09 L 73.89 27.02 L 74.11 25.94 L 74.3 24.86 L 74.46 23.76 L 74.6 22.65 L 74.85 18.7 L 74.84 17.61 L 74.8 16.52 L 74.74 15.45 L 74.65 14.39 L 74.54 13.34 L 74.4 12.3 L 74.24 11.27 L 74.05 10.25 L 73.89 9.58 L 73.72 8.91 L 73.54 8.25 L 73.35 7.59 L 73.14 6.93 L 72.93 6.28 L 72.69 5.64 L 72.45 5 L 71.7 3.2 L 70.85 1.7 L 70.54 1.14 L 70.21 0.58 L 69.88 0.03 L 69.53 -0.52 L 69.17 -1.06 L 68.8 -1.6 L 68.42 -2.13 L 68.03 -2.66 L 67.62 -3.19 L 67.2 -3.71 L 66.77 -4.23 L 66.33 -4.74 L 65.88 -5.25 L 65.41 -5.75 L 64.94 -6.25 L 64.45 -6.75 L 63.7 -7.48 L 62.93 -8.18 L 62.15 -8.87 L 61.36 -9.53 L 60.56 -10.16 L 59.74 -10.78 L 58.91 -11.37 L 58.07 -11.93 L 57.21 -12.48 L 56.34 -13 L 55.46 -13.5 L 54.57 -13.97 L 53.66 -14.42 L 52.74 -14.85 L 51.81 -15.26 L 50.86 -15.64 L 49.9 -16 L 48.93 -16.33 L 47.95 -16.64 L 46.95 -16.93 L 45.94 -17.2 L 44.92 -17.44 L 43.89 -17.66 L 42.84 -17.86 L 41.78 -18.03 L 40.71 -18.18 L 39.62 -18.31 L 38.52 -18.41 L 37.41 -18.5 L 36.29 -18.55 L 35.15 -18.59 L 34 -18.6 Z"/>
      </clipPath>
      <g clip-path="url(#clipPath0)">
        <use ffdec:characterId="1878" height="90.35" transform="matrix(1.0, 0.0, 0.0, 1.0, -13.25, -29.8)" width="96.8" xlink:href="#sprite2"/>
      </g>
      <filter id="filter1">
        <feConvolveMatrix divisor="4.0" in="SourceGraphic" kernelMatrix="1 1 1 1" order="2 2" result="filterResult1"/>
        <feConvolveMatrix divisor="4.0" in="filterResult1" kernelMatrix="1 1 1 1" order="2 2" result="filterResult2"/>
      </filter>
      <use ffdec:characterId="1880" filter="url(#filter1)" height="29.55" transform="matrix(1.8002, 0.0, 0.0, 1.8002, -19.731, -31.8509)" width="25.7" xlink:href="#sprite3"/>
      <filter id="filter2">
        <feConvolveMatrix divisor="4.0" in="SourceGraphic" kernelMatrix="1 1 1 1" order="2 2" result="filterResult3"/>
        <feConvolveMatrix divisor="4.0" in="filterResult3" kernelMatrix="1 1 1 1" order="2 2" result="filterResult4"/>
      </filter>
      <use ffdec:characterId="1880" filter="url(#filter2)" height="29.55" transform="matrix(0.7743, 0.0, 0.0, 0.7743, 17.7011, 3.0593)" width="25.7" xlink:href="#sprite3"/>
    </g>
    <g id="shape3" transform="matrix(1.0, 0.0, 0.0, 1.0, 21.5, 21.1)">
      <path d="M-12.65 49.85 L-14.9 46.15 -15.75 44.55 Q-20.45 34.7 -18.4 22.65 -15.4 5.3 0.05 -6.75 15.2 -18.6 34.0 -18.6 52.5 -18.6 64.45 -6.75 68.4 -2.8 70.85 1.7 L71.7 3.2 72.45 5.0 76.75 14.85 77.6 16.75 77.8 17.3 Q80.6 24.85 79.55 33.95 77.7 51.35 62.75 64.05 47.35 76.8 28.15 76.9 8.6 76.8 -3.05 64.05 L-6.35 59.8 -8.05 57.1 -12.65 49.85 -9.85 53.3" fill="none" stroke="url(#gradient0)" stroke-linecap="round" stroke-linejoin="round" stroke-width="5.0"/>
      <path d="M25.35 -4.45 L26.6 -4.85 26.95 -4.85 27.1 -4.85 29.1 -4.95 31.35 -4.85 35.6 -4.5 36.8 -4.1 37.0 -4.95 37.05 -5.55 38.7 -4.7 Q45.3 -3.65 50.45 0.0 L49.1 -0.1 Q48.45 0.1 48.25 1.4 47.9 2.55 49.1 6.6 49.75 9.25 51.35 12.35 L53.35 15.6 54.1 16.75 56.0 19.1 Q57.3 20.4 59.0 19.45 59.45 19.0 59.1 17.95 L59.0 17.5 57.65 15.25 55.9 13.1 53.35 9.05 51.75 6.5 51.0 4.9 53.25 3.85 53.35 2.95 53.05 2.1 54.3 3.3 54.65 3.7 54.1 3.95 53.8 4.1 54.1 4.55 54.4 5.0 54.65 5.45 56.15 8.3 57.4 11.85 57.5 13.1 58.05 12.9 Q59.0 12.35 60.0 11.95 L60.5 13.55 Q61.45 17.8 60.85 22.65 L60.3 26.15 Q60.0 26.9 59.85 27.75 L58.15 32.35 57.85 32.65 56.55 31.6 56.25 32.25 55.9 32.9 53.25 36.4 50.15 39.7 49.75 40.05 49.0 40.65 49.4 40.8 50.5 41.55 51.2 41.95 50.5 42.6 48.65 44.3 45.45 46.75 45.0 47.0 Q41.7 49.2 38.2 50.7 L33.4 52.3 31.05 52.7 30.1 52.75 30.6 50.95 29.0 51.25 Q27.1 51.45 24.6 51.25 L20.25 50.8 18.95 50.5 18.75 51.65 18.45 53.05 Q14.45 52.45 11.05 51.05 5.7 48.7 1.65 44.3 L1.25 43.9 0.15 42.5 1.65 41.95 1.85 41.85 1.1 41.0 0.6 39.95 -0.6 37.35 -1.55 34.05 -1.75 33.5 Q-2.05 32.65 -1.85 32.25 L-3.9 33.2 -4.2 33.35 Q-4.95 29.0 -4.15 24.15 -3.75 21.4 -2.8 18.9 L-2.7 19.4 -2.5 19.65 -2.4 19.75 -2.05 19.95 -0.6 19.55 Q0.6 19.1 4.25 15.8 7.85 12.35 11.5 6.95 L12.35 5.65 13.85 2.95 14.15 1.9 14.15 1.6 Q14.05 0.75 13.3 0.4 L12.9 0.4 Q15.85 -1.45 19.0 -2.65 L19.05 -2.5 19.2 -2.25 19.9 -1.7 19.95 -1.6 Q20.9 -0.95 25.4 -0.15 29.95 0.5 36.6 0.1 L38.1 0.0 41.5 -0.65 Q43.0 -1.0 43.55 -1.85 L43.75 -2.7 43.75 -2.8 Q43.4 -3.35 42.45 -3.45 L38.85 -3.35 37.65 -3.2 37.1 -3.15 36.4 -3.0 35.4 -2.9 30.4 -2.45 26.0 -2.25 24.85 -2.25 25.15 -3.45 25.35 -4.4 25.35 -4.45 M6.45 5.3 L8.7 3.3 Q10.05 2.25 11.45 1.3 L10.8 2.05 9.5 4.0 8.5 5.7 8.15 6.15 7.45 7.3 5.1 10.9 1.85 15.25 1.0 14.7 1.05 14.7 -0.7 14.65 -1.25 14.85 -0.55 13.4 -0.15 13.65 -0.05 13.75 Q0.05 13.25 0.7 12.5 1.55 10.9 3.25 9.25 4.95 7.05 6.45 5.95 L6.7 5.75 6.55 5.45 6.45 5.3 M27.1 -14.2 Q13.85 -12.6 2.75 -3.95 L-0.35 -1.2 -0.5 -1.5 Q-1.65 -1.6 -2.95 -0.65 -4.55 0.2 -6.25 2.0 -8.25 3.85 -9.15 6.1 -10.2 8.45 -9.45 8.4 L-8.8 8.75 -8.6 8.85 -9.0 9.4 Q-12.55 15.55 -13.8 22.65 -15.0 29.8 -13.5 36.2 L-13.7 36.2 Q-14.45 37.05 -14.55 38.65 -14.7 40.25 -13.95 42.4 -13.7 43.65 -12.95 44.65 L-11.6 46.35 Q-10.0 48.05 -9.25 47.3 L-8.9 47.0 -8.7 46.9 -8.3 47.5 -7.75 48.35 -5.95 50.4 Q-2.85 53.8 0.9 56.15 7.3 60.25 15.45 61.6 15.55 62.25 16.4 62.8 L17.15 63.3 17.3 63.35 Q18.7 63.85 21.4 64.15 L26.45 63.85 26.65 63.75 27.75 63.45 28.55 63.1 Q29.2 62.8 29.0 62.55 L29.0 61.7 29.85 61.6 Q43.3 59.5 54.45 50.4 L57.3 47.85 57.65 47.5 Q58.6 47.5 60.1 46.65 L61.5 45.6 63.4 43.8 Q65.2 41.85 66.15 39.5 L66.5 38.45 66.6 38.05 66.6 38.0 Q66.8 37.05 66.4 37.15 L65.65 36.85 Q69.15 30.2 70.0 22.65 L70.15 21.15 Q70.55 15.7 69.4 11.0 L69.05 9.4 69.25 9.25 69.7 7.05 Q69.7 5.45 68.85 3.4 L68.7 3.0 68.65 2.95 Q68.0 1.15 66.5 -0.35 64.7 -2.05 64.35 -1.4 L63.6 -0.95 60.95 -3.95 Q52.4 -12.5 40.05 -14.2 L40.0 -14.2 40.0 -14.3 Q39.6 -15.2 38.2 -15.8 36.8 -16.45 34.35 -16.65 L29.45 -16.25 Q26.75 -15.6 27.1 -14.2 M67.95 -2.75 Q69.6 -0.6 70.85 1.7 L71.45 2.85 71.7 3.2 72.05 4.0 72.45 5.0 Q73.45 7.55 74.05 10.25 74.85 14.3 74.85 18.7 L74.6 22.65 Q72.6 40.45 57.4 53.4 41.7 66.5 22.05 66.55 6.55 66.5 -4.0 58.7 L-9.75 53.4 -9.85 53.3 -12.65 49.85 -13.25 48.95 -14.9 46.15 -15.7 44.7 -15.75 44.55 Q-17.6 40.65 -18.4 36.45 -19.65 29.95 -18.4 22.65 -17.4 16.75 -14.9 11.45 -10.0 2.1 -0.35 -5.25 15.15 -17.1 34.4 -17.1 53.35 -17.1 65.6 -5.25 L67.95 -2.75 M8.9 33.0 L9.55 34.05 11.3 36.3 Q16.6 42.05 25.4 42.15 L29.2 41.85 Q35.65 40.7 41.1 36.3 L42.55 35.1 Q48.1 29.7 49.0 22.65 49.5 18.35 48.25 14.85 L48.05 14.3 48.0 14.2 47.95 14.15 47.5 13.25 Q46.5 11.1 44.7 9.3 39.25 3.75 30.8 3.75 22.25 3.75 15.35 9.3 8.4 14.75 7.2 22.65 6.35 28.1 8.6 32.55 L8.9 33.0 M59.15 26.9 Q59.15 25.85 58.6 25.5 L56.9 25.7 Q55.5 26.15 52.05 29.65 48.45 32.9 45.0 38.65 L44.05 39.95 Q43.4 41.0 42.65 43.0 41.8 44.65 43.1 45.5 L43.4 45.7 Q44.05 45.8 45.0 44.95 L46.85 42.05 48.65 39.2 51.35 34.6 Q53.7 30.85 54.45 30.1 L56.45 31.4 Q58.25 30.55 58.9 28.4 L59.15 26.9 M4.55 33.5 L2.5 29.7 1.75 28.6 Q1.15 27.55 -0.05 26.25 -1.45 24.85 -2.95 25.7 -3.6 26.15 -3.25 27.3 L-2.3 29.45 -1.85 30.1 -0.45 32.25 2.2 36.5 4.45 40.45 4.55 40.9 2.2 41.95 2.1 42.8 2.2 43.55 2.85 44.55 3.5 45.15 Q5.2 46.55 6.25 46.1 6.8 45.8 7.3 44.5 7.55 43.35 6.55 39.1 5.85 36.4 4.55 33.5 M37.35 49.25 L37.45 49.0 Q37.45 48.45 36.4 47.7 35.4 46.9 30.7 46.15 26.0 45.25 19.15 45.9 L17.55 46.0 14.15 46.65 Q11.9 47.1 11.8 48.9 L12.0 49.2 12.75 49.75 13.2 49.85 16.8 49.65 19.95 49.2 25.6 48.7 31.15 48.45 30.8 50.8 31.7 51.25 34.65 50.95 Q36.8 50.2 37.35 49.25" fill="url(#gradient1)" fill-rule="evenodd" stroke="none"/>
      <path d="M19.0 -2.65 L19.05 -2.8 Q19.2 -3.85 21.75 -4.7 23.9 -5.55 25.35 -4.5 L25.35 -4.45 25.35 -4.4 25.15 -3.45 22.5 -3.2 Q20.45 -2.5 19.95 -1.6 L19.9 -1.7 19.2 -2.25 19.05 -2.5 19.0 -2.65 M26.6 -4.85 L25.7 -4.7 26.1 -6.2 26.95 -4.85 26.6 -4.85 M11.45 1.3 L11.6 1.15 Q12.25 0.45 12.9 0.4 L13.3 0.4 Q14.05 0.75 14.15 1.6 L14.15 1.9 13.95 1.8 Q13.2 1.7 12.35 2.65 L10.3 5.35 Q9.05 7.05 8.8 7.9 L5.85 12.4 2.6 16.75 0.6 15.55 Q-1.2 16.3 -1.75 18.55 L-2.05 19.95 -2.4 19.75 -2.5 19.65 -2.7 19.4 -2.8 18.9 -2.55 16.85 Q-2.15 15.4 -1.25 14.85 L-0.7 14.65 1.05 14.7 1.0 14.7 1.85 15.25 5.1 10.9 7.45 7.3 8.15 6.15 8.5 5.7 9.5 4.0 10.8 2.05 11.45 1.3 M27.85 -12.75 Q27.1 -13.45 27.1 -14.2 26.75 -15.6 29.45 -16.25 L34.35 -16.65 Q36.8 -16.45 38.2 -15.8 39.6 -15.2 40.0 -14.3 L40.0 -14.2 40.05 -14.2 40.65 -12.95 39.8 -13.8 38.95 -14.3 38.75 -14.35 35.1 -15.1 30.2 -14.75 29.15 -14.45 Q27.7 -13.9 27.95 -13.7 L27.85 -13.6 27.85 -12.75 M24.85 -2.25 L26.0 -2.25 30.4 -2.45 35.4 -2.9 36.4 -3.0 37.1 -3.15 37.65 -3.2 38.85 -3.35 42.45 -3.45 Q43.4 -3.35 43.75 -2.8 L43.75 -2.7 43.55 -1.85 43.2 -1.95 39.6 -1.85 36.5 -1.4 31.15 -0.95 25.6 -0.75 24.85 -2.25 M50.45 0.0 L51.3 0.5 51.85 0.85 52.7 1.5 53.05 2.1 53.35 2.95 52.6 2.35 Q50.9 0.95 49.85 1.4 49.2 1.6 49.0 2.95 48.65 4.05 49.85 8.1 50.35 10.05 51.35 12.35 49.75 9.25 49.1 6.6 47.9 2.55 48.25 1.4 48.45 0.1 49.1 -0.1 L50.45 0.0 M54.65 3.7 L54.85 3.6 55.3 3.4 56.05 4.9 55.85 5.0 54.65 5.45 54.4 5.0 54.1 4.55 53.8 4.1 54.1 3.95 54.65 3.7 M63.3 -0.75 L63.6 -0.95 64.35 -1.4 Q64.7 -2.05 66.5 -0.35 68.0 1.15 68.65 2.95 L67.25 1.15 Q65.45 -0.55 65.2 -0.2 L64.85 0.2 64.6 0.4 64.35 0.6 64.05 0.2 63.3 -0.75 M65.65 36.85 L66.4 37.15 Q66.8 37.05 66.6 38.0 L66.6 38.05 66.45 38.3 65.65 36.85 M-12.95 44.65 Q-13.7 43.65 -13.95 42.4 -14.7 40.25 -14.55 38.65 -14.45 37.05 -13.7 36.2 L-13.5 36.2 -12.75 37.7 Q-13.7 38.75 -13.8 40.15 -13.95 41.75 -13.2 43.9 L-12.95 44.65 M57.95 32.75 L58.7 34.25 57.6 33.4 57.3 33.1 56.65 34.4 54.0 37.9 50.9 41.2 50.5 41.55 49.4 40.8 49.0 40.65 49.75 40.05 50.15 39.7 53.25 36.4 55.9 32.9 56.25 32.25 56.55 31.6 57.85 32.65 57.95 32.75 M51.75 6.5 L53.35 9.05 55.9 13.1 57.65 15.25 59.0 17.5 58.4 16.75 56.65 14.6 54.1 10.55 Q52.05 7.25 51.75 6.5 M58.05 12.9 L57.5 13.1 57.4 11.85 56.15 8.3 56.9 9.8 58.05 12.9 M43.1 45.5 Q41.8 44.65 42.65 43.0 43.4 41.0 44.05 39.95 L45.0 38.65 Q48.45 32.9 52.05 29.65 55.5 26.15 56.9 25.7 L58.6 25.5 Q59.15 25.85 59.15 26.9 58.6 26.8 57.65 27.2 56.25 27.65 52.8 31.15 49.2 34.4 45.75 40.15 L44.8 41.45 Q44.15 42.5 43.4 44.5 43.1 45.05 43.1 45.5 M-4.2 33.35 L-3.9 33.2 -1.85 32.25 Q-2.05 32.65 -1.75 33.5 L-1.55 34.05 Q-2.6 34.4 -3.55 34.9 L-3.55 34.8 -4.4 33.4 -4.2 33.35 M1.1 41.0 L1.85 41.85 1.65 41.95 1.1 41.0 M18.45 53.05 L18.75 51.65 18.95 50.5 20.25 50.8 24.6 51.25 Q27.1 51.45 29.0 51.25 L30.6 50.95 30.1 52.75 29.75 52.75 Q27.85 52.95 25.35 52.75 L21.0 52.3 19.7 52.0 19.5 53.2 19.2 54.55 18.45 53.05 M4.55 33.5 L3.25 31.2 2.5 30.1 Q1.9 29.05 0.7 27.75 -0.7 26.35 -2.2 27.2 -2.85 27.65 -2.5 28.8 L-2.3 29.45 -3.25 27.3 Q-3.6 26.15 -2.95 25.7 -1.45 24.85 -0.05 26.25 1.15 27.55 1.75 28.6 L2.5 29.7 4.55 33.5 M4.45 40.45 L5.3 42.4 2.95 43.45 Q2.75 44.0 2.85 44.55 L2.2 43.55 2.1 42.8 2.2 41.95 4.55 40.9 4.45 40.45 M12.75 49.75 L12.0 49.2 11.8 48.9 Q11.9 47.1 14.15 46.65 L17.55 46.0 19.15 45.9 Q26.0 45.25 30.7 46.15 35.4 46.9 36.4 47.7 37.45 48.45 37.45 49.0 L37.35 49.25 37.2 49.2 Q36.15 48.45 31.45 47.7 26.75 46.75 19.9 47.4 L18.3 47.5 14.9 48.15 Q13.1 48.5 12.75 49.75 M31.7 51.25 L30.8 50.8 31.15 48.45 31.9 49.95 31.7 51.25" fill="#895900" fill-rule="evenodd" stroke="none"/>
      <path d="M19.95 -1.6 Q20.45 -2.5 22.5 -3.2 L25.15 -3.45 24.85 -2.25 25.6 -0.75 31.15 -0.95 36.5 -1.4 39.6 -1.85 43.2 -1.95 43.55 -1.85 Q43.0 -1.0 41.5 -0.65 L38.1 0.0 36.6 0.1 Q29.95 0.5 25.4 -0.15 20.9 -0.95 19.95 -1.6 M0.4 0.2 Q2.3 2.55 5.0 4.6 L6.3 5.45 6.45 5.55 6.7 5.75 6.45 5.95 Q4.95 7.05 3.25 9.25 1.55 10.9 0.7 12.5 0.05 13.25 -0.05 13.75 L-0.15 13.65 -0.55 13.4 -1.25 12.8 -1.65 13.55 Q-4.65 11.6 -7.85 10.25 L-8.6 8.85 -8.8 8.75 -8.4 7.65 Q-7.5 5.35 -5.5 3.5 -4.2 2.2 -2.95 1.35 L-2.2 0.85 Q-0.9 -0.1 0.25 0.0 L0.4 0.2 M27.85 -12.75 L27.85 -13.6 27.95 -13.7 Q27.7 -13.9 29.15 -14.45 L30.2 -14.75 35.1 -15.1 38.75 -14.35 38.95 -14.3 39.8 -13.8 40.65 -12.95 40.75 -12.75 40.75 -12.7 Q39.05 -9.75 38.2 -6.2 L37.2 -6.3 37.05 -5.55 37.0 -4.95 36.8 -4.1 35.6 -4.5 31.35 -4.85 29.1 -4.95 27.1 -4.85 26.95 -4.85 27.2 -6.4 Q27.75 -9.55 27.85 -12.75 M29.85 -13.45 L29.1 -13.15 29.1 -12.85 29.2 -10.05 29.2 -6.55 29.2 -6.45 Q28.8 -4.6 29.35 -5.65 L29.55 -6.55 30.8 -13.05 30.9 -13.45 29.85 -13.45 M68.65 2.95 L68.7 3.0 68.85 3.4 Q69.7 5.45 69.7 7.05 L69.25 9.25 69.05 9.4 69.4 11.0 Q65.2 11.5 60.75 13.45 L60.2 11.85 60.0 11.95 Q59.0 12.35 58.05 12.9 L56.9 9.8 56.15 8.3 54.65 5.45 55.85 5.0 56.05 4.9 Q56.15 4.8 56.35 4.8 56.45 4.7 56.65 4.7 60.7 2.85 64.35 0.6 L64.6 0.4 64.85 0.2 65.2 -0.2 Q65.45 -0.55 67.25 1.15 L68.65 2.95 M66.5 38.45 L66.15 39.5 Q65.2 41.85 63.4 43.8 L61.5 45.6 60.1 46.65 Q58.6 47.5 57.65 47.5 L57.3 47.85 Q55.05 45.5 51.95 43.45 L51.2 41.95 50.5 41.55 50.9 41.2 54.0 37.9 56.65 34.4 57.3 33.1 57.6 33.4 58.7 34.25 Q61.6 36.3 65.1 37.8 L66.4 38.35 66.5 38.45 M29.85 61.6 L29.0 61.7 29.0 62.55 Q29.2 62.8 28.55 63.1 L28.45 61.8 Q28.25 57.9 28.45 56.15 L28.55 54.75 28.35 55.1 Q28.05 55.65 27.6 57.9 27.2 59.45 26.85 61.95 L26.75 62.35 26.55 63.55 26.45 63.85 21.4 64.15 Q18.7 63.85 17.3 63.35 L17.25 63.3 17.15 63.3 16.4 62.8 16.85 61.8 Q18.3 58.4 19.2 54.55 L19.5 53.2 19.7 52.0 21.0 52.3 25.35 52.75 Q27.85 52.95 29.75 52.75 L30.1 52.75 30.9 54.45 Q29.95 58.0 29.85 61.6 M-8.7 46.9 L-8.9 47.0 -9.25 47.3 Q-10.0 48.05 -11.6 46.35 L-12.95 44.65 -13.2 43.9 Q-13.95 41.75 -13.8 40.15 -13.7 38.75 -12.75 37.7 -8.4 36.75 -3.9 35.0 L-3.85 35.0 -3.55 34.9 Q-2.6 34.4 -1.55 34.05 L-0.6 37.35 0.6 39.95 1.1 41.0 1.65 41.95 0.15 42.5 -0.15 42.6 -1.55 43.15 Q-5.2 44.75 -8.7 46.9 M58.6 5.45 Q57.5 6.05 57.4 6.2 L57.4 6.3 57.65 6.2 Q58.8 5.85 65.95 2.75 L66.15 2.75 66.2 2.65 Q66.05 2.0 65.45 1.6 L65.1 1.4 65.1 1.5 58.6 5.45 M53.35 2.95 L53.25 3.85 51.0 4.9 51.75 6.5 Q52.05 7.25 54.1 10.55 L56.65 14.6 58.4 16.75 59.0 17.5 59.1 17.95 Q59.45 19.0 59.0 19.45 57.3 20.4 56.0 19.1 L54.1 16.75 53.35 15.6 51.35 12.35 Q50.35 10.05 49.85 8.1 48.65 4.05 49.0 2.95 49.2 1.6 49.85 1.4 50.9 0.95 52.6 2.35 L53.35 2.95 M47.95 14.15 L48.0 14.2 48.05 14.3 48.25 14.85 Q49.5 18.35 49.0 22.65 48.1 29.7 42.55 35.1 L41.1 36.3 Q35.65 40.7 29.2 41.85 L25.4 42.15 Q16.6 42.05 11.3 36.3 L9.55 34.05 8.9 33.0 Q7.2 28.95 7.95 24.15 9.15 16.3 16.1 10.85 23.0 5.3 31.55 5.3 40.0 5.3 45.45 10.85 46.9 12.3 47.95 14.15 M59.15 26.9 L58.9 28.4 Q58.25 30.55 56.45 31.4 L54.45 30.1 Q53.7 30.85 51.35 34.6 L48.65 39.2 46.85 42.05 45.0 44.95 Q44.05 45.8 43.4 45.7 L43.1 45.5 Q43.1 45.05 43.4 44.5 44.15 42.5 44.8 41.45 L45.75 40.15 Q49.2 34.4 52.8 31.15 56.25 27.65 57.65 27.2 58.6 26.8 59.15 26.9 M57.7 36.15 L57.7 36.2 57.85 36.4 63.7 40.25 64.9 41.0 65.0 41.1 Q65.75 40.35 65.85 39.4 L64.7 39.05 64.45 38.95 61.35 37.7 59.1 36.7 57.7 36.15 M14.15 1.9 L13.85 2.95 12.35 5.65 11.5 6.95 Q7.85 12.35 4.25 15.8 0.6 19.1 -0.6 19.55 L-2.05 19.95 -1.75 18.55 Q-1.2 16.3 0.6 15.55 L2.6 16.75 5.85 12.4 8.8 7.9 Q9.05 7.05 10.3 5.35 L12.35 2.65 Q13.2 1.7 13.95 1.8 L14.15 1.9 M-4.1 9.25 L-6.25 7.8 -6.75 7.55 -7.1 8.0 -7.4 9.15 -7.2 9.25 Q-2.85 10.85 -1.0 11.75 L-0.8 11.85 0.0 12.25 Q0.65 12.55 0.25 12.15 L0.1 12.05 Q-0.15 11.85 -0.6 11.6 -1.75 10.75 -4.1 9.25 M-2.3 29.45 L-2.5 28.8 Q-2.85 27.65 -2.2 27.2 -0.7 26.35 0.7 27.75 1.9 29.05 2.5 30.1 L3.25 31.2 4.55 33.5 Q5.85 36.4 6.55 39.1 7.55 43.35 7.3 44.5 6.8 45.8 6.25 46.1 5.2 46.55 3.5 45.15 L2.85 44.55 Q2.75 44.0 2.95 43.45 L5.3 42.4 4.45 40.45 2.2 36.5 -0.45 32.25 -1.85 30.1 -2.3 29.45 M37.35 49.25 Q36.8 50.2 34.65 50.95 L31.7 51.25 31.9 49.95 31.15 48.45 25.6 48.7 19.95 49.2 16.8 49.65 13.2 49.85 12.75 49.75 Q13.1 48.5 14.9 48.15 L18.3 47.5 19.9 47.4 Q26.75 46.75 31.45 47.7 36.15 48.45 37.2 49.2 L37.35 49.25 M-9.45 46.15 L-9.25 46.15 Q-4.85 42.9 -2.6 41.85 -0.6 40.7 -1.65 41.0 -2.8 41.2 -10.6 44.85 -10.4 45.7 -9.45 46.15" fill="#000000" fill-rule="evenodd" stroke="none"/>
      <path d="M29.85 -13.45 L30.9 -13.45 30.8 -13.05 29.55 -6.55 29.35 -5.65 Q28.8 -4.6 29.2 -6.45 L29.2 -6.55 29.2 -10.05 29.1 -12.85 29.1 -13.15 29.85 -13.45 M28.55 63.1 L27.75 63.45 26.65 63.75 26.45 63.85 26.55 63.55 26.75 62.35 26.85 61.95 Q27.2 59.45 27.6 57.9 28.05 55.65 28.35 55.1 L28.55 54.75 28.45 56.15 Q28.25 57.9 28.45 61.8 L28.55 63.1 M58.6 5.45 L65.1 1.5 65.1 1.4 65.45 1.6 Q66.05 2.0 66.2 2.65 L66.15 2.75 65.95 2.75 Q58.8 5.85 57.65 6.2 L57.4 6.3 57.4 6.2 Q57.5 6.05 58.6 5.45 M57.7 36.15 L59.1 36.7 61.35 37.7 64.45 38.95 64.7 39.05 65.85 39.4 Q65.75 40.35 65.0 41.1 L64.9 41.0 63.7 40.25 57.85 36.4 57.7 36.2 57.7 36.15 M-4.1 9.25 Q-1.75 10.75 -0.6 11.6 -0.15 11.85 0.1 12.05 L0.25 12.15 Q0.65 12.55 0.0 12.25 L-0.8 11.85 -1.0 11.75 Q-2.85 10.85 -7.2 9.25 L-7.4 9.15 -7.1 8.0 -6.75 7.55 -6.25 7.8 -4.1 9.25 M-9.45 46.15 Q-10.4 45.7 -10.6 44.85 -2.8 41.2 -1.65 41.0 -0.6 40.7 -2.6 41.85 -4.85 42.9 -9.25 46.15 L-9.45 46.15" fill="#fff395" fill-rule="evenodd" stroke="none"/>
      <path d="M60.75 13.45 Q62.3 18.45 61.6 24.15 L61.05 27.65 59.1 33.5 58.7 34.25 57.95 32.75 58.15 32.35 59.85 27.75 Q60.0 26.9 60.3 26.15 L60.85 22.65 Q61.45 17.8 60.5 13.55 L60.0 11.95 60.2 11.85 60.75 13.45 M51.2 41.95 L51.95 43.45 49.4 45.8 Q40.85 52.75 30.9 54.45 L30.1 52.75 31.05 52.7 33.4 52.3 38.2 50.7 Q41.7 49.2 45.0 47.0 L45.45 46.75 48.65 44.3 50.5 42.6 51.2 41.95 M0.15 42.5 L1.25 43.9 1.65 44.3 Q5.7 48.7 11.05 51.05 14.45 52.45 18.45 53.05 L19.2 54.55 18.1 54.35 Q14.7 53.8 11.8 52.55 6.45 50.2 2.4 45.8 L0.9 44.0 0.15 42.5" fill="#851100" fill-rule="evenodd" stroke="none"/>
      <path d="M8.9 33.0 L8.6 32.55 Q6.35 28.1 7.2 22.65 8.4 14.75 15.35 9.3 22.25 3.75 30.8 3.75 39.25 3.75 44.7 9.3 46.5 11.1 47.5 13.25 L47.95 14.15 Q46.9 12.3 45.45 10.85 40.0 5.3 31.55 5.3 23.0 5.3 16.1 10.85 9.15 16.3 7.95 24.15 7.2 28.95 8.9 33.0" fill="url(#gradient2)" fill-rule="evenodd" stroke="none"/>
      <path d="M-0.35 -1.2 L0.8 -0.1 0.4 0.2 0.25 0.0 Q-0.9 -0.1 -2.2 0.85 L-2.95 1.35 Q-4.2 2.2 -5.5 3.5 -7.5 5.35 -8.4 7.65 L-8.8 8.75 -9.45 8.4 Q-10.2 8.45 -9.15 6.1 -8.25 3.85 -6.25 2.0 -4.55 0.2 -2.95 -0.65 -1.65 -1.6 -0.5 -1.5 L-0.35 -1.2" fill="#8c5b00" fill-rule="evenodd" stroke="none"/>
      <path d="M-13.5 36.2 L-13.1 36.1 -12.75 37.7 -13.5 36.2" fill="#664200" fill-rule="evenodd" stroke="none"/>
      <path d="M26.1 -6.2 Q16.4 -4.7 8.2 1.8 L5.7 4.05 6.45 5.3 6.55 5.45 6.45 5.55 6.3 5.45 5.0 4.6 Q2.3 2.55 0.4 0.2 L0.8 -0.1 3.5 -2.45 Q14.35 -10.8 27.85 -12.75 27.75 -9.55 27.2 -6.4 L26.95 -4.85 26.1 -6.2 M55.3 3.4 L53.8 1.8 Q47.4 -4.7 38.2 -6.2 39.05 -9.75 40.75 -12.7 53.15 -11.0 61.7 -2.45 L63.3 -0.75 64.05 0.2 64.35 0.6 Q60.7 2.85 56.65 4.7 56.45 4.7 56.35 4.8 56.15 4.8 56.05 4.9 L55.3 3.4 M69.4 11.0 Q70.55 15.7 70.15 21.15 L70.0 22.65 Q69.15 30.2 65.65 36.85 L66.45 38.3 66.4 38.35 65.1 37.8 Q61.6 36.3 58.7 34.25 L59.1 33.5 61.05 27.65 61.6 24.15 Q62.3 18.45 60.75 13.45 65.2 11.5 69.4 11.0 M57.3 47.85 L54.45 50.4 Q43.3 59.5 29.85 61.6 29.95 58.0 30.9 54.45 40.85 52.75 49.4 45.8 L51.95 43.45 Q55.05 45.5 57.3 47.85 M16.4 62.8 Q15.55 62.25 15.45 61.6 7.3 60.25 0.9 56.15 -2.85 53.8 -5.95 50.4 L-7.75 48.35 -8.3 47.5 -8.7 46.9 Q-5.2 44.75 -1.55 43.15 L-0.15 42.6 0.15 42.5 0.9 44.0 2.4 45.8 Q6.45 50.2 11.8 52.55 14.7 53.8 18.1 54.35 L19.2 54.55 Q18.3 58.4 16.85 61.8 L16.4 62.8 M-7.85 10.25 Q-4.65 11.6 -1.65 13.55 -3.9 17.8 -4.65 22.65 -5.6 28.4 -4.4 33.4 L-3.55 34.8 -3.55 34.9 -3.85 35.0 -3.9 35.0 Q-8.4 36.75 -12.75 37.7 L-13.1 36.1 Q-14.15 30.45 -13.0 24.15 -11.8 16.65 -7.85 10.25" fill="url(#gradient3)" fill-rule="evenodd" stroke="none"/>
      <path d="M27.85 -12.75 Q14.35 -10.8 3.5 -2.45 L0.8 -0.1 -0.35 -1.2 2.75 -3.95 Q13.85 -12.6 27.1 -14.2 27.1 -13.45 27.85 -12.75 M40.65 -12.95 L40.05 -14.2 Q52.4 -12.5 60.95 -3.95 L63.6 -0.95 63.3 -0.75 61.7 -2.45 Q53.15 -11.0 40.75 -12.7 L40.75 -12.75 40.65 -12.95 M-13.5 36.2 Q-15.0 29.8 -13.8 22.65 -12.55 15.55 -9.0 9.4 L-8.6 8.85 -7.85 10.25 Q-11.8 16.65 -13.0 24.15 -14.15 30.45 -13.1 36.1 L-13.5 36.2" fill="url(#gradient4)" fill-rule="evenodd" stroke="none"/>
      <path d="M72.45 5.0 L76.75 14.85 77.6 16.75 77.8 17.3 Q80.6 24.85 79.55 33.95 77.7 51.35 62.75 64.05 47.35 76.8 28.15 76.9 8.6 76.8 -3.05 64.05 L-6.35 59.8 -8.05 57.1 -12.65 49.85 -9.85 53.3 -9.75 53.4 -4.0 58.7 Q6.55 66.5 22.05 66.55 41.7 66.5 57.4 53.4 72.6 40.45 74.6 22.65 L74.85 18.7 Q74.85 14.3 74.05 10.25 73.45 7.55 72.45 5.0" fill="url(#gradient5)" fill-rule="evenodd" stroke="none"/>
      <path d="M25.35 -4.45 L25.35 -4.5 Q23.9 -5.55 21.75 -4.7 19.2 -3.85 19.05 -2.8 L19.0 -2.65 Q15.85 -1.45 12.9 0.4 12.25 0.45 11.6 1.15 L11.45 1.3 Q10.05 2.25 8.7 3.3 L6.45 5.3 5.7 4.05 8.2 1.8 Q16.4 -4.7 26.1 -6.2 L25.7 -4.7 26.6 -4.85 25.35 -4.45 M37.05 -5.55 L37.2 -6.3 38.2 -6.2 Q47.4 -4.7 53.8 1.8 L55.3 3.4 54.85 3.6 54.65 3.7 54.3 3.3 53.05 2.1 52.7 1.5 51.85 0.85 51.3 0.5 50.45 0.0 Q45.3 -3.65 38.7 -4.7 L37.05 -5.55 M-14.9 11.45 Q-10.15 1.2 0.05 -6.75 15.2 -18.6 34.0 -18.6 52.5 -18.6 64.45 -6.75 L67.95 -2.75 65.6 -5.25 Q53.35 -17.1 34.4 -17.1 15.15 -17.1 -0.35 -5.25 -10.0 2.1 -14.9 11.45 M-2.8 18.9 Q-3.75 21.4 -4.15 24.15 -4.95 29.0 -4.2 33.35 L-4.4 33.4 Q-5.6 28.4 -4.65 22.65 -3.9 17.8 -1.65 13.55 L-1.25 12.8 -0.55 13.4 -1.25 14.85 Q-2.15 15.4 -2.55 16.85 L-2.8 18.9" fill="#fff28e" fill-rule="evenodd" stroke="none"/>
      <path d="M-11.95 50.8 L-9.85 53.3 -9.75 53.4 -4.0 58.7 Q6.55 66.5 22.05 66.55 41.7 66.5 57.4 53.4 72.6 40.45 74.6 22.65 L74.85 18.7 Q74.85 14.3 74.05 10.25 L73.1 6.85 72.45 5.0 76.75 14.85 77.6 16.75 77.8 17.3 Q80.6 24.85 79.55 33.95 77.7 51.35 62.75 64.05 47.35 76.8 28.15 76.9 8.6 76.8 -3.05 64.05 L-6.35 59.8 -8.05 57.1 -12.65 49.85 -11.95 50.8" fill="url(#gradient6)" fill-rule="evenodd" stroke="none"/>
      <path d="M-11.95 50.8 L-12.7 49.5 -10.25 52.4 -4.5 57.7 Q6.05 65.5 21.55 65.55 41.2 65.5 56.9 52.4 72.1 39.45 74.1 21.65 L74.35 17.7 Q74.35 13.3 73.55 9.25 L72.4 5.2 73.1 6.85 74.05 10.25 Q74.85 14.3 74.85 18.7 L74.6 22.65 Q72.6 40.45 57.4 53.4 41.7 66.5 22.05 66.55 6.55 66.5 -4.0 58.7 L-9.75 53.4 -9.85 53.3 -11.95 50.8" fill="#d2a60c" fill-opacity="0.0" fill-rule="evenodd" stroke="none"/>
      <path d="M-9.85 53.3 L-9.75 53.4" ffdec:has-small-stroke="true" ffdec:original-stroke-width="0.1" fill="none" stroke="#000000" stroke-linecap="round" stroke-linejoin="round" stroke-width="4.3470416556115685"/>
      <path d="M74.25 9.4 L74.5 10.5 74.5 10.55 74.5 10.6 Q75.2 13.95 75.35 17.6 L75.35 17.65 75.35 19.15 75.25 21.7 75.25 21.75 75.1 23.15 74.65 26.25 74.65 26.3 Q71.7 42.4 57.8 54.4 42.0 67.75 22.25 67.8 6.65 67.75 -3.95 59.8 -7.05 57.4 -9.75 54.4 L-9.85 54.3 -10.05 54.1 -12.7 49.5 -10.25 52.4 -4.5 57.7 -3.2 58.6 Q6.95 65.5 21.55 65.55 41.2 65.5 56.9 52.4 70.2 41.05 73.4 26.05 L74.1 21.65 74.35 17.7 Q74.35 14.05 73.8 10.65 L73.55 9.25 72.4 5.2 74.25 9.4" fill="url(#gradient7)" fill-rule="evenodd" stroke="none"/>
      <path d="M15.75 13.75 L15.9 13.85 16.7 14.1 16.95 14.3 17.4 14.85 17.55 15.5 17.5 15.85 17.05 15.65 16.8 15.25 15.75 13.75 M12.15 24.15 L12.8 24.65 14.45 25.0 16.05 25.0 15.65 26.9 Q14.2 26.9 13.55 26.15 L12.15 24.15 M12.3 32.5 L12.45 32.65 12.5 32.7 13.25 33.2 13.45 33.25 14.55 33.45 16.05 33.45 17.4 33.35 18.8 33.2 20.35 33.2 21.65 33.2 23.35 33.35 25.0 33.45 27.0 33.45 Q30.25 33.35 32.75 32.35 35.15 31.45 36.95 29.95 38.65 28.2 39.65 26.25 L40.2 25.0 41.95 25.0 Q43.35 25.0 44.55 24.15 45.75 23.25 45.9 21.85 L45.9 21.2 45.95 21.25 46.4 21.55 46.5 21.65 46.95 22.3 Q47.25 22.95 47.2 23.75 47.05 25.15 45.85 26.05 44.65 26.9 43.25 26.9 L41.5 26.9 40.95 28.15 Q39.95 30.1 38.25 31.85 36.45 33.35 34.05 34.25 31.55 35.25 28.3 35.35 L26.3 35.35 24.65 35.25 22.95 35.1 21.65 35.1 20.1 35.1 18.7 35.25 17.35 35.35 15.85 35.35 14.55 35.1 13.75 34.55 13.55 34.3 12.3 32.5 M41.25 18.8 L41.05 18.8 40.85 17.95 40.6 17.05 40.1 15.85 40.6 16.35 Q41.4 17.5 41.85 18.8 L41.25 18.8 M24.1 29.5 Q23.7 28.95 23.95 27.95 L25.65 16.2 Q25.7 15.4 26.1 14.95 26.35 14.55 27.4 14.55 L29.3 14.85 Q30.25 15.1 30.9 15.95 L31.6 17.25 31.5 17.2 Q31.1 16.9 30.6 16.75 L28.7 16.45 Q27.65 16.45 27.4 16.85 27.0 17.3 26.95 18.1 L25.25 29.85 25.2 30.15 Q24.4 30.05 24.15 29.6 L24.1 29.5" fill="#895900" fill-rule="evenodd" stroke="none"/>
      <path d="M15.5 13.05 L16.95 12.6 17.6 12.4 18.0 12.35 19.2 12.25 30.35 12.25 Q33.85 12.05 36.15 13.05 38.3 13.9 39.7 15.45 L40.5 16.85 40.6 17.05 40.85 17.95 41.05 18.8 41.25 18.8 41.25 18.95 41.45 19.8 43.2 19.8 Q44.55 19.8 45.5 20.65 L45.85 21.05 45.9 21.15 45.9 21.2 45.9 21.85 Q45.75 23.25 44.55 24.15 43.35 25.0 41.95 25.0 L40.2 25.0 39.65 26.25 Q38.65 28.2 36.95 29.95 35.15 31.45 32.75 32.35 30.25 33.35 27.0 33.45 L25.0 33.45 23.35 33.35 21.65 33.2 20.35 33.2 18.8 33.2 17.4 33.35 16.05 33.45 14.55 33.45 13.45 33.25 13.25 33.2 12.5 32.7 12.45 32.65 12.3 32.5 Q12.0 32.05 12.1 31.55 12.15 30.9 12.55 30.8 12.8 30.5 13.35 30.4 L14.2 30.15 15.05 29.3 15.6 27.2 15.65 26.9 16.05 25.0 14.45 25.0 12.8 24.65 12.15 24.15 11.9 23.8 11.9 22.85 Q12.0 21.55 13.2 20.65 14.25 19.8 15.8 19.8 L15.9 19.8 17.05 18.8 17.4 16.4 17.5 15.85 17.55 15.5 17.4 14.85 16.95 14.3 16.7 14.1 15.9 13.85 15.75 13.75 15.55 13.45 15.5 13.05 M31.6 17.25 L30.9 15.95 Q30.25 15.1 29.3 14.85 L27.4 14.55 Q26.35 14.55 26.1 14.95 25.7 15.4 25.65 16.2 L23.95 27.95 Q23.7 28.95 24.1 29.5 24.1 29.9 24.35 30.2 24.6 30.65 25.4 30.75 L25.9 30.75 Q27.6 30.65 28.7 30.0 L30.55 28.45 31.45 25.95 32.0 23.45 Q32.4 20.8 32.1 19.15 L31.8 17.85 31.7 17.55 31.6 17.25" fill="url(#gradient8)" fill-rule="evenodd" stroke="none"/>
      <path d="M40.6 17.05 L40.5 16.85 39.7 15.45 Q38.3 13.9 36.15 13.05 33.85 12.05 30.35 12.25 L19.2 12.25 18.0 12.35 17.6 12.4 16.95 12.6 15.5 13.05 15.5 12.8 Q15.65 12.05 16.25 11.8 16.8 11.35 17.6 11.35 L18.8 11.25 29.95 11.25 Q33.45 11.05 35.75 12.05 37.9 12.9 39.3 14.45 L40.1 15.85 40.6 17.05 M17.05 18.8 L15.9 19.8 15.8 19.8 Q14.25 19.8 13.2 20.65 12.0 21.55 11.9 22.85 L11.9 23.8 Q11.3 22.95 11.5 21.85 11.6 20.55 12.8 19.65 13.85 18.8 15.4 18.8 L17.05 18.8 M45.9 21.15 L45.85 21.05 45.5 20.65 Q44.55 19.8 43.2 19.8 L41.45 19.8 41.25 18.95 41.25 18.8 41.85 18.8 42.8 18.8 Q44.15 18.8 45.1 19.65 L45.45 20.05 45.5 20.15 45.9 21.15 M31.7 17.55 L31.8 17.85 32.1 19.15 Q32.4 20.8 32.0 23.45 L31.45 25.95 30.55 28.45 28.7 30.0 Q27.6 30.65 25.9 30.75 L25.4 30.75 Q24.6 30.65 24.35 30.2 24.1 29.9 24.1 29.5 L24.15 29.6 Q24.4 30.05 25.2 30.15 L25.7 30.15 Q27.4 30.05 28.5 29.4 L30.35 27.85 Q31.0 26.55 31.25 25.35 L31.8 22.85 Q32.2 20.2 31.9 18.55 L31.7 17.55" fill="#fff28e" fill-rule="evenodd" stroke="none"/>
    </g>
    <linearGradient gradientTransform="matrix(0.0275, 0.0506, -0.0533, 0.0289, 30.4, 29.1)" gradientUnits="userSpaceOnUse" id="gradient0" spreadMethod="pad" x1="-819.2" x2="819.2">
      <stop offset="0.2627450980392157" stop-color="#bf7e00"/>
      <stop offset="0.4666666666666667" stop-color="#925200"/>
      <stop offset="1.0" stop-color="#774100"/>
    </linearGradient>
    <linearGradient gradientTransform="matrix(-0.024, 0.0502, -0.0468, -0.0224, 27.85, 24.0)" gradientUnits="userSpaceOnUse" id="gradient1" spreadMethod="pad" x1="-819.2" x2="819.2">
      <stop offset="0.0" stop-color="#d2b709"/>
      <stop offset="0.18823529411764706" stop-color="#efd402"/>
      <stop offset="0.27450980392156865" stop-color="#ffeb4f"/>
      <stop offset="0.45098039215686275" stop-color="#f7dd00"/>
      <stop offset="0.6274509803921569" stop-color="#b89b11"/>
      <stop offset="0.7843137254901961" stop-color="#e6cc04"/>
      <stop offset="0.9450980392156862" stop-color="#b89b11"/>
    </linearGradient>
    <linearGradient gradientTransform="matrix(0.0203, -0.0145, 0.0104, 0.0145, 25.05, 19.45)" gradientUnits="userSpaceOnUse" id="gradient2" spreadMethod="pad" x1="-819.2" x2="819.2">
      <stop offset="0.0" stop-color="#644100"/>
      <stop offset="0.43137254901960786" stop-color="#b47600"/>
      <stop offset="1.0" stop-color="#644100"/>
    </linearGradient>
    <radialGradient cx="0" cy="0" gradientTransform="matrix(0.0472, -0.0272, 0.0231, 0.0401, 28.2, 25.8)" gradientUnits="userSpaceOnUse" id="gradient3" r="819.2" spreadMethod="pad">
      <stop offset="0.8862745098039215" stop-color="#cf2006"/>
      <stop offset="1.0" stop-color="#901d0b"/>
    </radialGradient>
    <linearGradient gradientTransform="matrix(0.0429, -0.0247, 0.0043, 0.0075, 10.2, -2.35)" gradientUnits="userSpaceOnUse" id="gradient4" spreadMethod="pad" x1="-819.2" x2="819.2">
      <stop offset="0.0" stop-color="#644100"/>
      <stop offset="0.17647058823529413" stop-color="#a46b00"/>
      <stop offset="0.6823529411764706" stop-color="#b47600"/>
      <stop offset="1.0" stop-color="#644100"/>
    </linearGradient>
    <linearGradient gradientTransform="matrix(0.0506, -0.0292, 0.0219, 0.038, 34.75, 37.4)" gradientUnits="userSpaceOnUse" id="gradient5" spreadMethod="pad" x1="-819.2" x2="819.2">
      <stop offset="0.0" stop-color="#d1a40a"/>
      <stop offset="0.0784313725490196" stop-color="#ae6e03"/>
      <stop offset="0.1607843137254902" stop-color="#8e4f00"/>
      <stop offset="0.3568627450980392" stop-color="#a66400"/>
      <stop offset="0.6" stop-color="#f9e118"/>
      <stop offset="0.7137254901960784" stop-color="#ffef7e"/>
      <stop offset="0.8196078431372549" stop-color="#f4d917"/>
      <stop offset="1.0" stop-color="#b37500"/>
    </linearGradient>
    <radialGradient cx="0" cy="0" gradientTransform="matrix(0.0701, 0.0, 0.0, 0.0646, 30.1, 26.45)" gradientUnits="userSpaceOnUse" id="gradient6" r="819.2" spreadMethod="pad">
      <stop offset="0.7725490196078432" stop-color="#ae6e03" stop-opacity="0.0"/>
      <stop offset="1.0" stop-color="#8e4f00"/>
    </radialGradient>
    <linearGradient gradientTransform="matrix(0.0523, -0.0279, 0.0179, 0.0337, 32.55, 33.75)" gradientUnits="userSpaceOnUse" id="gradient7" spreadMethod="pad" x1="-819.2" x2="819.2">
      <stop offset="0.0" stop-color="#aa5f00"/>
      <stop offset="0.2627450980392157" stop-color="#a86600"/>
      <stop offset="0.49411764705882355" stop-color="#db9c26"/>
      <stop offset="0.7215686274509804" stop-color="#fff298"/>
      <stop offset="1.0" stop-color="#bd7b0b"/>
    </linearGradient>
    <linearGradient gradientTransform="matrix(-0.024, 0.0502, -0.0468, -0.0224, 27.05, 23.6)" gradientUnits="userSpaceOnUse" id="gradient8" spreadMethod="pad" x1="-819.2" x2="819.2">
      <stop offset="0.0" stop-color="#d2b709"/>
      <stop offset="0.18823529411764706" stop-color="#efd402"/>
      <stop offset="0.27450980392156865" stop-color="#ffeb4f"/>
      <stop offset="0.45098039215686275" stop-color="#f7dd00"/>
      <stop offset="0.6274509803921569" stop-color="#b89b11"/>
      <stop offset="0.7843137254901961" stop-color="#e6cc04"/>
      <stop offset="0.9450980392156862" stop-color="#b89b11"/>
    </linearGradient>
    <g id="sprite2" transform="matrix(1.0, 0.0, 0.0, 1.0, 0.0, 6.3)">
      <use ffdec:characterId="1877" height="90.35" transform="matrix(1.0, 0.0, 0.0, 1.0, 0.0, -6.3)" width="96.8" xlink:href="#shape4"/>
    </g>
    <g id="shape4" transform="matrix(1.0, 0.0, 0.0, 1.0, 0.0, 6.3)">
      <path d="M96.8 60.95 L71.2 84.05 0.0 15.75 30.35 -6.3 96.8 60.95" fill="url(#gradient9)" fill-rule="evenodd" stroke="none"/>
    </g>
    <linearGradient gradientTransform="matrix(0.0119, -0.0119, 0.0363, 0.0363, 48.45, 38.85)" gradientUnits="userSpaceOnUse" id="gradient9" spreadMethod="pad" x1="-819.2" x2="819.2">
      <stop offset="0.011764705882352941" stop-color="#ffffff" stop-opacity="0.0"/>
      <stop offset="0.3058823529411765" stop-color="#ffffff" stop-opacity="0.43137255"/>
      <stop offset="0.6313725490196078" stop-color="#ffffff" stop-opacity="0.7019608"/>
      <stop offset="1.0" stop-color="#ffffff" stop-opacity="0.0"/>
    </linearGradient>
    <g id="sprite3" transform="matrix(1.0, 0.0, 0.0, 1.0, 5.1, 4.25)">
      <use ffdec:characterId="1879" height="29.55" transform="matrix(1.0, 0.0, 0.0, 1.0, -5.1, -4.25)" width="25.7" xlink:href="#shape5"/>
    </g>
    <g id="shape5" transform="matrix(1.0, 0.0, 0.0, 1.0, 5.1, 4.25)">
      <path d="M15.8 7.9 Q15.8 11.15 13.45 13.45 11.15 15.8 7.9 15.8 4.65 15.8 2.3 13.45 0.0 11.15 0.0 7.9 0.0 4.65 2.3 2.3 4.65 0.0 7.9 0.0 11.15 0.0 13.45 2.3 15.8 4.65 15.8 7.9" fill="url(#gradient10)" fill-rule="evenodd" stroke="none"/>
      <path d="M7.75 -4.25 L9.25 6.2 20.6 7.05 9.45 8.8 7.75 25.3 6.05 8.8 -5.1 7.05 6.25 6.2 7.75 -4.25" fill="url(#gradient11)" fill-rule="evenodd" stroke="none"/>
    </g>
    <radialGradient cx="0" cy="0" gradientTransform="matrix(0.0106, 0.0, 0.0, 0.0106, 7.9, 7.9)" gradientUnits="userSpaceOnUse" id="gradient10" r="819.2" spreadMethod="pad">
      <stop offset="0.36470588235294116" stop-color="#ffffff" stop-opacity="0.7019608"/>
      <stop offset="1.0" stop-color="#ffffff" stop-opacity="0.0"/>
    </radialGradient>
    <radialGradient cx="0" cy="0" gradientTransform="matrix(0.0159, 0.0, 0.0, 0.0228, 8.25, 8.0)" gradientUnits="userSpaceOnUse" id="gradient11" r="819.2" spreadMethod="pad">
      <stop offset="0.36470588235294116" stop-color="#ffffff" stop-opacity="0.7019608"/>
      <stop offset="1.0" stop-color="#ffffff" stop-opacity="0.0"/>
    </radialGradient>
  </defs>
</svg>
