<?xml version="1.0" encoding="UTF-8" standalone="no"?>
<svg xmlns:ffdec="https://www.free-decompiler.com/flash" xmlns:xlink="http://www.w3.org/1999/xlink" ffdec:objectType="shape" height="14.0px" width="17.7px" xmlns="http://www.w3.org/2000/svg">
  <g transform="matrix(1.0, 0.0, 0.0, 1.0, 1.0, 0.0)">
    <path d="M1.0 13.0 L1.0 1.0 14.0 1.0 14.0 13.0 1.0 13.0" fill="#0000ff" fill-opacity="0.0" fill-rule="evenodd" stroke="none"/>
    <path d="M15.7 12.55 L-0.5 12.55 7.6 1.85 15.7 12.55" fill="#ffff00" fill-rule="evenodd" stroke="none"/>
    <path d="M11.2 4.85 Q11.65 5.45 11.0 5.75 10.3 6.1 9.95 5.55 9.6 5.0 10.2 4.65 10.8 4.3 11.2 4.85 M13.6 7.9 Q13.95 8.35 13.4 8.7 12.8 9.05 12.5 8.5 12.2 7.9 12.75 7.7 13.25 7.45 13.6 7.9 M12.3 6.7 Q13.0 7.3 11.95 8.15 10.9 8.95 10.55 8.05 10.15 7.15 10.85 6.6 L12.3 6.7 M11.6 12.0 Q12.0 12.6 11.45 12.85 10.9 13.05 10.6 12.65 10.3 12.25 10.75 11.8 11.15 11.35 11.6 12.0 M14.4 11.75 Q14.85 12.3 14.1 12.75 13.35 13.2 12.95 12.5 12.55 11.75 13.25 11.45 L13.75 11.4 13.55 11.2 Q13.15 10.6 13.7 10.0 14.3 9.35 14.95 10.25 15.55 11.15 14.75 11.45 L14.2 11.55 14.4 11.75 M14.55 13.1 L14.5 12.75 Q14.45 12.25 15.0 11.9 15.85 11.35 16.45 12.2 17.05 13.05 16.1 13.5 L14.8 13.4 14.55 13.1 M8.45 1.65 Q8.75 2.05 8.5 2.4 L9.15 2.9 Q9.75 3.8 8.95 4.1 8.2 4.4 7.75 3.85 7.4 3.35 7.8 2.8 7.3 2.9 7.0 2.4 6.6 1.65 7.3 1.35 8.0 1.1 8.45 1.65 M5.7 5.35 Q6.2 6.05 5.45 6.4 4.7 6.75 4.3 6.15 3.9 5.55 4.55 5.1 L4.85 5.0 4.8 4.85 Q4.45 4.05 5.1 3.55 L6.35 3.6 Q7.0 4.15 6.05 4.9 L5.55 5.2 5.7 5.35 M4.2 7.35 Q4.75 8.1 4.1 8.35 3.45 8.6 3.1 8.1 2.7 7.65 3.2 7.1 3.7 6.6 4.2 7.35 M0.05 12.7 Q-0.55 13.0 -0.85 12.5 -1.2 12.05 -0.65 11.7 L-0.4 11.6 Q-0.45 11.05 0.0 10.7 L1.2 10.8 Q1.85 11.3 0.95 12.0 L0.4 12.3 0.05 12.7 M3.2 8.85 Q3.65 9.4 2.9 9.85 2.15 10.3 1.75 9.6 1.35 8.85 2.05 8.55 2.75 8.3 3.2 8.85 M9.85 11.8 Q10.4 12.55 9.55 13.0 8.7 13.4 8.25 12.7 7.8 12.0 8.55 11.55 9.3 11.05 9.85 11.8 M6.85 11.8 Q7.35 12.2 6.6 12.75 6.05 13.15 5.8 12.95 L5.35 13.4 Q4.55 13.85 4.15 13.1 3.75 12.3 4.45 12.0 5.1 11.75 5.6 12.25 5.6 11.95 5.9 11.75 L6.85 11.8 M3.05 12.4 Q3.45 12.95 2.95 13.1 2.5 13.3 2.25 12.95 1.95 12.6 2.35 12.2 2.7 11.85 3.05 12.4" fill="#b3aa00" fill-rule="evenodd" stroke="none"/>
    <path d="M14.0 13.0 L14.0 1.0 1.0 1.0 1.0 13.0 14.0 13.0 M15.0 0.0 L15.0 14.0 0.0 14.0 0.0 0.0 15.0 0.0" fill="#0000ff" fill-opacity="0.0" fill-rule="evenodd" stroke="none"/>
  </g>
</svg>
