<?xml version="1.0" encoding="UTF-8" standalone="no"?>
<svg xmlns:ffdec="https://www.free-decompiler.com/flash" xmlns:xlink="http://www.w3.org/1999/xlink" ffdec:objectType="shape" height="29.65px" width="120.1px" xmlns="http://www.w3.org/2000/svg">
  <g transform="matrix(1.0, 0.0, 0.0, 1.0, 0.0, 0.0)">
    <path d="M111.15 19.3 L115.65 18.8 Q120.1 18.8 120.1 19.75 120.1 20.15 119.55 20.55 L118.6 21.0 118.55 21.05 Q117.0 21.65 115.0 21.65 L111.55 21.25 Q110.0 20.85 110.0 20.25 110.0 19.7 111.15 19.3 M92.3 9.1 Q95.0 9.3 94.2 9.5 94.2 11.25 92.45 12.75 91.7 12.95 92.85 13.15 L76.9 16.45 77.0 18.4 78.05 18.35 50.4 24.25 24.25 17.0 30.2 15.85 23.3 13.9 13.4 11.0 7.25 9.25 0.0 7.0 37.3 1.1 44.3 0.7 45.4 0.7 55.7 4.5 65.2 7.55 Q72.35 10.1 76.4 12.65 76.55 13.55 101.05 0.0 102.15 6.65 109.0 4.75 111.3 4.8 92.3 9.1 M86.45 29.65 L82.95 29.25 Q81.35 28.85 81.35 28.25 81.35 27.7 82.5 27.3 L87.05 26.8 Q91.6 26.8 91.6 27.75 91.6 28.15 91.05 28.55 L90.05 29.0 90.0 29.05 Q88.4 29.65 86.45 29.65" fill="#000000" fill-opacity="0.3019608" fill-rule="evenodd" stroke="none"/>
  </g>
</svg>
