<?xml version="1.0" encoding="UTF-8" standalone="no"?>
<svg xmlns:ffdec="https://www.free-decompiler.com/flash" xmlns:xlink="http://www.w3.org/1999/xlink" ffdec:objectType="shape" height="16.55px" width="2.7px" xmlns="http://www.w3.org/2000/svg">
  <g transform="matrix(1.0, 0.0, 0.0, 1.0, 1.4, 4.25)">
    <path d="M1.0 -4.2 L1.25 -3.95 1.3 -3.6 1.3 11.45 1.2 11.95 0.75 12.2 -0.7 12.3 -1.0 12.25 -1.2 12.0 -0.05 10.2 -0.05 -2.6 1.0 -4.2" fill="#ffffff" fill-opacity="0.5019608" fill-rule="evenodd" stroke="none"/>
    <path d="M-1.2 12.0 L-1.25 11.95 -1.4 11.65 -1.4 -3.4 -1.2 -3.8 -0.8 -4.05 0.6 -4.25 1.0 -4.2 -0.05 -2.6 -0.05 10.2 -1.2 12.0" fill="#1c0600" fill-opacity="0.5019608" fill-rule="evenodd" stroke="none"/>
    <path d="M-0.05 10.75 L-0.05 -2.05" fill="none" stroke="#4f3939" stroke-linecap="round" stroke-linejoin="round" stroke-width="1.5"/>
    <path d="M0.1 10.25 L0.15 -2.15" ffdec:has-small-stroke="true" ffdec:original-stroke-width="0.5" fill="none" stroke="#c4b7b7" stroke-linecap="round" stroke-linejoin="round" stroke-width="1.0"/>
    <path d="M-0.1 10.25 L-0.1 -2.2" ffdec:has-small-stroke="true" ffdec:original-stroke-width="0.2" fill="none" stroke="#f7f5f5" stroke-linecap="round" stroke-linejoin="round" stroke-width="1.0"/>
  </g>
</svg>
