<?xml version="1.0" encoding="UTF-8" standalone="no"?>
<svg xmlns:ffdec="https://www.free-decompiler.com/flash" xmlns:xlink="http://www.w3.org/1999/xlink" ffdec:objectType="shape" height="315.8px" width="310.85px" xmlns="http://www.w3.org/2000/svg">
  <g transform="matrix(1.0, 0.0, 0.0, 1.0, 791.0, 138.85)">
    <path d="M-480.25 -127.75 Q-484.1 -116.8 -488.55 -116.8 -493.85 -116.8 -497.15 -119.55 -499.4 -121.4 -501.6 -125.6 -504.1 -130.4 -505.25 -131.7 -507.65 -134.45 -511.45 -134.45 -517.4 -134.45 -526.5 -129.9 -535.6 -125.4 -540.85 -125.4 -543.8 -125.4 -546.75 -126.75 L-549.6 -128.45 Q-554.95 -128.55 -559.75 -126.25 -564.6 -123.9 -569.0 -123.9 L-574.55 -124.9 -581.15 -125.9 Q-583.3 -125.9 -583.7 -127.4 L-574.0 -129.6 Q-571.85 -129.2 -570.6 -128.15 -568.9 -126.7 -565.95 -126.7 -564.65 -126.7 -559.65 -128.8 -554.7 -130.95 -548.7 -130.95 L-544.75 -130.3 -538.25 -129.7 Q-535.25 -129.7 -530.85 -131.15 -526.0 -132.95 -523.85 -135.25 -521.7 -137.55 -513.5 -138.6 -505.3 -139.7 -503.9 -136.15 -502.6 -135.55 -496.2 -128.35 -490.55 -122.05 -486.7 -122.05 -485.75 -122.05 -483.2 -124.9 L-480.25 -127.75 -480.15 -127.75 Q-480.25 -121.4 -480.25 -127.75 M-767.35 30.95 Q-767.35 39.3 -768.65 47.35 L-770.0 55.15 Q-770.0 59.4 -767.75 66.5 -765.55 73.55 -765.55 80.05 -765.55 84.05 -766.95 89.85 -768.4 95.65 -768.4 99.9 -768.4 109.6 -765.5 120.65 -762.65 131.75 -762.65 139.0 -762.65 140.15 -763.5 142.3 -764.4 144.45 -764.4 145.25 -764.4 146.6 -759.05 149.8 L-755.95 151.75 -744.35 153.1 -737.15 153.1 Q-732.0 153.2 -729.25 150.8 -728.75 150.4 -732.3 148.65 -723.85 149.75 -724.15 150.8 -724.5 151.85 -726.2 152.95 L-730.6 155.1 Q-733.2 156.05 -736.75 156.4 L-744.75 156.4 -754.3 155.05 -754.55 155.05 Q-759.25 155.05 -762.7 153.0 -765.55 152.2 -768.1 151.75 L-768.75 151.65 -768.8 151.3 -768.55 151.2 -768.85 151.05 -770.2 150.3 Q-773.25 150.3 -777.95 151.7 -783.8 153.4 -786.15 155.9 -776.9 156.6 -770.8 158.9 -765.3 161.0 -763.95 163.65 -762.9 165.7 -757.25 168.2 -754.1 169.6 -750.1 170.9 L-722.2 173.15 -706.1 173.5 -705.55 173.75 -697.0 173.75 Q-687.65 173.05 -682.3 169.25 -678.1 166.3 -678.1 163.3 L-678.55 160.8 -678.55 160.55 Q-677.2 160.8 -676.45 162.75 -675.9 164.2 -675.9 165.3 -675.9 168.6 -679.85 171.6 -684.65 175.4 -693.75 176.7 L-696.6 176.95 -705.55 176.95 -706.25 176.85 -716.0 176.7 -716.55 176.6 -723.15 176.35 -758.6 172.35 Q-762.3 171.6 -764.75 169.7 -766.85 168.2 -767.3 166.5 -768.0 164.2 -769.8 162.7 -771.0 162.2 -772.65 161.95 L-780.6 161.3 Q-791.0 160.7 -791.0 156.25 -791.0 153.6 -787.85 151.3 -783.6 148.2 -774.9 147.25 L-770.5 145.35 -768.75 144.95 Q-768.65 142.75 -767.6 140.1 -766.5 137.3 -766.5 132.85 L-769.6 119.55 Q-772.7 106.35 -772.7 99.95 -772.7 93.8 -771.25 88.6 -769.85 83.4 -769.85 80.05 -769.85 76.1 -771.2 67.95 -772.55 59.8 -772.55 58.5 L-772.2 46.15 Q-769.9 30.0 -770.35 7.15 -768.6 11.65 -767.9 17.9 -767.35 22.7 -767.35 30.95 M-771.9 34.45 L-772.0 38.05 -772.0 36.6 -771.9 34.45 M-780.85 167.6 Q-773.8 168.45 -773.0 169.1 L-773.5 169.5 -774.9 169.7 Q-784.0 169.7 -785.05 169.5 L-786.6 168.55 Q-789.4 167.35 -789.4 166.7 -789.4 166.15 -788.75 165.55 -787.65 166.7 -780.85 167.6" fill="#1a5b00" fill-opacity="0.8" fill-rule="evenodd" stroke="none"/>
  </g>
</svg>
