<?xml version="1.0" encoding="UTF-8" standalone="no"?>
<svg xmlns:ffdec="https://www.free-decompiler.com/flash" xmlns:xlink="http://www.w3.org/1999/xlink" ffdec:objectType="shape" height="31.55px" width="120.9px" xmlns="http://www.w3.org/2000/svg">
  <g transform="matrix(1.0, 0.0, 0.0, 1.0, 51.2, 29.75)">
    <path d="M58.1 -26.8 L59.8 -26.1 62.9 -24.65 64.25 -23.85 64.8 -23.45 65.6 -22.85 67.75 -20.65 68.65 -19.1 68.7 -18.9 68.9 -18.15 M69.05 -18.75 L69.1 -20.0 69.2 -21.9 M69.0 -17.8 L69.05 -18.75 M-48.3 -15.8 L-45.9 -18.0 M-50.45 -12.2 L-50.25 -12.7 Q-49.65 -14.3 -48.3 -15.8 M-50.7 -14.1 L-50.7 -13.75 -50.7 -10.5 -50.45 -12.2 M-48.7 -9.45 L-48.7 -10.7 M-50.7 -16.6 L-50.7 -14.1 M-35.95 1.3 L-38.7 0.4 -42.65 -1.2 Q-44.55 -2.1 -46.0 -3.05 L-48.8 -5.5 Q-50.45 -7.45 -50.65 -9.6 L-50.7 -10.1 -50.7 -10.5 M-46.0 -7.3 L-46.0 -8.4 M-42.65 -1.2 L-42.6 -5.55 -42.6 -6.4 M-46.0 -7.3 L-46.0 -3.05 M-48.8 -5.5 L-48.7 -9.45 M-38.7 -4.9 L-38.7 -4.1 -38.7 0.4" fill="none" stroke="#000000" stroke-linecap="round" stroke-linejoin="round" stroke-width="1.0"/>
    <path d="M62.9 -27.25 L63.2 -27.1 65.6 -25.6 67.5 -23.85 67.8 -23.45 Q69.0 -21.8 69.1 -20.0 L69.1 -19.75 69.1 -19.1 69.05 -18.75 68.9 -18.15 69.0 -17.8 M59.8 -28.65 L58.1 -29.3 M62.9 -27.25 L59.8 -28.65 M-48.3 -19.1 L-45.9 -21.15 M-48.3 -19.1 Q-50.65 -16.7 -50.7 -14.1 M-50.7 -13.75 L-50.45 -12.2 -50.25 -11.75 Q-49.75 -10.55 -48.7 -9.45 L-46.0 -7.3 Q-44.55 -6.4 -42.6 -5.55 L-38.7 -4.1 -35.95 -3.3" ffdec:has-small-stroke="true" ffdec:original-stroke-width="0.5" fill="none" stroke="#000000" stroke-linecap="round" stroke-linejoin="round" stroke-width="1.0"/>
    <path d="M65.6 -25.6 L65.6 -26.6 M62.9 -28.0 L62.9 -27.25 62.9 -24.65 M67.8 -23.45 L67.8 -24.5 M59.8 -28.65 L59.8 -29.4 M59.8 -26.1 L59.8 -28.65 M67.8 -23.45 L67.75 -20.65 M65.6 -22.85 L65.6 -25.6 M-48.3 -15.8 L-48.3 -19.1 -48.3 -20.2" ffdec:has-small-stroke="true" ffdec:original-stroke-width="0.7" fill="none" stroke="#000000" stroke-linecap="round" stroke-linejoin="round" stroke-width="1.0"/>
  </g>
</svg>
