<?xml version="1.0" encoding="UTF-8" standalone="no"?>
<svg xmlns:ffdec="https://www.free-decompiler.com/flash" xmlns:xlink="http://www.w3.org/1999/xlink" ffdec:objectType="shape" height="16.7px" width="39.3px" xmlns="http://www.w3.org/2000/svg">
  <g transform="matrix(1.0, 0.0, 0.0, 1.0, -55.4, -93.8)">
    <path d="M75.4 94.8 Q80.55 96.4 84.7 99.0 L88.35 101.7 Q93.6 106.2 93.7 109.5 87.3 105.25 78.65 101.8 L75.3 100.8 Q67.05 102.85 56.4 109.25 56.4 108.6 56.7 107.75 57.7 104.95 62.0 101.3 67.35 96.75 74.65 94.8 L75.4 94.8" fill="#5d1b1b" fill-rule="evenodd" stroke="none"/>
    <path d="M75.4 94.8 Q80.55 96.4 84.7 99.0 L88.35 101.7 Q93.6 106.2 93.7 109.5 87.3 105.25 78.65 101.8 L75.3 100.8 Q67.05 102.85 56.4 109.25 56.4 108.6 56.7 107.75 57.7 104.95 62.0 101.3 67.35 96.75 74.65 94.8 L75.4 94.8 Z" fill="none" stroke="#560f0f" stroke-linecap="round" stroke-linejoin="round" stroke-width="2.0"/>
  </g>
</svg>
