<?xml version="1.0" encoding="UTF-8" standalone="no"?>
<svg xmlns:ffdec="https://www.free-decompiler.com/flash" xmlns:xlink="http://www.w3.org/1999/xlink" ffdec:objectType="shape" height="49.35px" width="57.2px" xmlns="http://www.w3.org/2000/svg">
  <g transform="matrix(1.0, 0.0, 0.0, 1.0, 51.2, 31.45)">
    <path d="M4.5 -1.0 L4.6 -0.25 4.5 -1.0 4.65 0.05 4.6 -0.25 Q5.4 9.9 2.25 13.0 -1.2 16.35 -9.7 16.65 -18.25 16.9 -21.85 12.5 -25.25 8.35 -26.65 -3.9 -27.15 -4.65 -31.4 -4.7 L-43.25 -3.8 Q-50.8 -2.9 -49.85 -8.7 -48.9 -14.45 -44.2 -15.15 L-30.35 -15.7 Q-21.2 -15.55 -7.8 -11.95 L-9.0 -16.4 Q-10.1 -20.6 -9.05 -23.7 -8.0 -26.85 -6.5 -28.35 -5.0 -29.85 -3.25 -30.1 -0.45 -30.55 1.0 -29.25 2.45 -28.0 2.35 -25.7 2.25 -23.45 2.3 -17.7 2.3 -12.0 4.5 -1.0 M-21.4 -2.4 Q-25.35 -2.3 -26.65 -3.9 -25.35 -2.3 -21.4 -2.4" fill="#343541" fill-rule="evenodd" stroke="none"/>
    <path d="M4.6 -0.25 L4.5 -1.0 Q2.3 -12.0 2.3 -17.7 2.25 -23.45 2.35 -25.7 2.45 -28.0 1.0 -29.25 -0.45 -30.55 -3.25 -30.1 -5.0 -29.85 -6.5 -28.35 -8.0 -26.85 -9.05 -23.7 -10.1 -20.6 -9.0 -16.4 L-7.8 -11.95 Q-21.2 -15.55 -30.35 -15.7 L-44.2 -15.15 Q-48.9 -14.45 -49.85 -8.7 -50.8 -2.9 -43.25 -3.8 L-31.4 -4.7 Q-27.15 -4.65 -26.65 -3.9 -25.35 -2.3 -21.4 -2.4 M4.65 0.05 L4.5 -1.0 M4.6 -0.25 Q5.4 9.9 2.25 13.0 -1.2 16.35 -9.7 16.65 -18.25 16.9 -21.85 12.5 -25.25 8.35 -26.65 -3.9" fill="none" stroke="#323232" stroke-linecap="round" stroke-linejoin="round" stroke-width="2.5"/>
  </g>
</svg>
