<?xml version="1.0" encoding="UTF-8" standalone="no"?>
<svg xmlns:ffdec="https://www.free-decompiler.com/flash" xmlns:xlink="http://www.w3.org/1999/xlink" ffdec:objectType="shape" height="88.55px" width="34.1px" xmlns="http://www.w3.org/2000/svg">
  <g transform="matrix(1.0, 0.0, 0.0, 1.0, 37.85, 2.6)">
    <path d="M-8.8 -1.6 Q-7.75 -1.9 -6.7 -1.05 -5.7 -0.25 -5.3 1.6 -4.95 3.4 -4.75 6.25 -9.7 15.5 -14.15 29.5 -16.3 36.1 -27.5 25.35 -20.9 11.3 -8.8 -1.6" fill="url(#gradient0)" fill-rule="evenodd" stroke="none"/>
    <path d="M-14.15 29.5 L-19.25 79.6 Q-19.95 82.45 -22.85 84.0 -26.05 85.55 -29.55 84.6 -33.25 83.6 -35.0 80.75 -36.9 77.9 -36.85 76.55 -36.2 50.85 -27.5 25.35 -16.3 36.1 -14.15 29.5" fill="url(#gradient1)" fill-rule="evenodd" stroke="none"/>
    <path d="M-4.75 6.25 Q-9.7 15.5 -14.15 29.5 L-19.25 79.6 Q-19.95 82.45 -22.85 84.0 -26.05 85.55 -29.55 84.6 -33.25 83.6 -35.0 80.75 -36.9 77.9 -36.85 76.55 -36.2 50.85 -27.5 25.35 -20.9 11.3 -8.8 -1.6" fill="none" stroke="#af4a00" stroke-linecap="round" stroke-linejoin="round" stroke-width="2.0"/>
  </g>
  <defs>
    <radialGradient cx="0" cy="0" gradientTransform="matrix(0.0111, 0.003, -0.0313, 0.1167, -7.2, -0.75)" gradientUnits="userSpaceOnUse" id="gradient0" r="819.2" spreadMethod="pad">
      <stop offset="0.0" stop-color="#ffd035"/>
      <stop offset="1.0" stop-color="#ff9a00"/>
    </radialGradient>
    <radialGradient cx="0" cy="0" gradientTransform="matrix(0.0111, 0.003, -0.0313, 0.1167, -7.2, -0.75)" gradientUnits="userSpaceOnUse" id="gradient1" r="819.2" spreadMethod="pad">
      <stop offset="0.0" stop-color="#f7aa1a"/>
      <stop offset="1.0" stop-color="#ef8601"/>
    </radialGradient>
  </defs>
</svg>
