<?xml version="1.0" encoding="UTF-8" standalone="no"?>
<svg xmlns:ffdec="https://www.free-decompiler.com/flash" xmlns:xlink="http://www.w3.org/1999/xlink" ffdec:objectType="shape" height="46.45px" width="64.2px" xmlns="http://www.w3.org/2000/svg">
  <g transform="matrix(1.0, 0.0, 0.0, 1.0, -37.65, -81.2)">
    <path d="M74.95 95.05 Q84.25 97.25 93.6 98.2 L100.85 98.75 Q98.55 106.75 87.75 112.1 84.25 113.8 80.55 114.65 72.8 116.35 64.15 114.25 L62.6 113.85 Q66.35 105.5 74.95 95.05 M44.0 100.55 Q38.65 92.45 38.65 85.75 38.75 83.9 39.15 82.2 L46.25 85.45 55.2 89.05 Q47.3 94.35 44.0 100.55" fill="#5d1b1b" fill-rule="evenodd" stroke="none"/>
    <path d="M74.95 95.05 Q66.35 105.5 62.6 113.85 L60.75 118.1 Q55.15 128.85 48.0 126.1 43.35 124.3 41.85 116.95 40.25 109.7 42.95 102.85 43.35 101.65 44.0 100.55 47.3 94.35 55.2 89.05 65.1 92.7 74.95 95.05" fill="url(#gradient0)" fill-rule="evenodd" stroke="none"/>
    <path d="M62.6 113.85 L64.15 114.25 Q72.8 116.35 80.55 114.65 84.25 113.8 87.75 112.1 98.55 106.75 100.85 98.75 M39.15 82.2 Q38.75 83.9 38.65 85.75 38.65 92.45 44.0 100.55" fill="none" stroke="#560f0f" stroke-linecap="round" stroke-linejoin="round" stroke-width="2.0"/>
    <path d="M74.95 95.05 Q66.35 105.5 62.6 113.85 L60.75 118.1 Q55.15 128.85 48.0 126.1 43.35 124.3 41.85 116.95 40.25 109.7 42.95 102.85 43.35 101.65 44.0 100.55 47.3 94.35 55.2 89.05" fill="none" stroke="#006630" stroke-linecap="round" stroke-linejoin="round" stroke-width="2.0"/>
    <path d="M100.85 98.75 L93.6 98.2 Q84.25 97.25 74.95 95.05 65.1 92.7 55.2 89.05 L46.25 85.45 39.15 82.2" fill="none" stroke="#560d0d" stroke-linecap="round" stroke-linejoin="round" stroke-width="2.0"/>
    <path d="M58.25 97.35 L57.95 97.85 Q60.3 98.9 60.65 101.1 61.0 103.45 59.55 106.65 L58.85 106.35 56.2 105.4 Q56.9 103.85 57.0 102.8 57.3 101.5 56.55 100.95 L53.75 107.2 54.35 107.85 Q55.75 109.35 56.25 110.55 56.75 111.75 56.7 112.85 56.65 114.0 56.05 115.2 55.05 117.15 53.8 118.1 52.5 119.15 51.05 119.3 L48.4 119.1 48.0 120.0 47.65 120.3 47.1 120.4 46.85 120.0 Q46.7 119.85 46.85 119.6 L47.3 118.7 Q44.95 117.6 44.4 115.6 L44.35 115.65 Q43.75 113.4 45.35 110.05 L46.0 110.3 48.9 111.45 Q48.15 113.05 48.1 114.05 48.0 115.05 48.6 115.65 L51.3 109.75 50.6 108.95 Q48.9 107.25 48.45 105.5 48.25 103.6 49.35 101.3 L49.4 101.2 Q50.0 99.75 51.25 98.75 52.4 97.7 53.95 97.35 L56.85 97.5 57.1 97.0 57.45 96.5 57.9 96.4 58.25 96.85 58.25 97.35 M54.05 101.05 Q53.3 101.5 52.8 102.5 52.15 103.9 52.55 105.15 L52.95 106.1 55.45 100.6 Q54.7 100.5 54.05 101.05 M52.15 110.8 L49.7 116.1 50.95 115.8 51.0 115.75 Q51.75 115.35 52.45 114.0 L52.7 112.65 52.25 110.95 52.15 110.8" fill="#00381a" fill-rule="evenodd" stroke="none"/>
  </g>
  <defs>
    <radialGradient cx="0" cy="0" gradientTransform="matrix(-0.0733, -0.0197, -0.0091, 0.0338, 62.0, 91.55)" gradientUnits="userSpaceOnUse" id="gradient0" r="819.2" spreadMethod="pad">
      <stop offset="0.25098039215686274" stop-color="#52f394"/>
      <stop offset="1.0" stop-color="#00af53"/>
    </radialGradient>
  </defs>
</svg>
