<?xml version="1.0" encoding="UTF-8" standalone="no"?>
<svg xmlns:ffdec="https://www.free-decompiler.com/flash" xmlns:xlink="http://www.w3.org/1999/xlink" ffdec:objectType="shape" height="31.9px" width="77.4px" xmlns="http://www.w3.org/2000/svg">
  <g transform="matrix(1.0, 0.0, 0.0, 1.0, 37.45, 34.25)">
    <path d="M27.7 -18.65 Q29.1 -14.1 29.1 -9.95 L29.5 -10.1 32.15 -10.9 33.25 -11.1 33.3 -11.05 Q34.65 -7.95 30.9 -7.35 L18.3 -7.7 -1.95 -9.2 Q-10.35 -9.65 -19.5 -9.05 -25.85 -13.9 -24.4 -22.5 -21.15 -25.85 -16.65 -28.35 -4.65 -35.05 8.8 -31.55 20.85 -28.45 27.7 -18.65 M29.1 -9.95 Q27.2 -9.6 25.6 -9.95 27.2 -9.6 29.1 -9.95" fill="#ffc42a" fill-rule="evenodd" stroke="none"/>
    <path d="M27.7 -18.65 L29.15 -16.45 32.15 -10.9 29.5 -10.1 29.1 -9.95 Q29.1 -14.1 27.7 -18.65 M33.3 -11.05 Q38.25 -10.45 38.45 -7.0 38.65 -3.55 32.9 -3.85 L17.15 -5.3 -7.2 -6.6 Q-21.55 -6.7 -29.4 -6.2 -37.3 -5.75 -35.65 -9.5 -34.35 -12.6 -30.6 -12.7 -27.8 -18.85 -25.25 -21.65 L-24.4 -22.5 Q-25.85 -13.9 -19.5 -9.05 -10.35 -9.65 -1.95 -9.2 L18.3 -7.7 30.9 -7.35 Q34.65 -7.95 33.3 -11.05 M-28.95 -12.6 L-30.6 -12.7 -28.95 -12.6" fill="#ee8300" fill-rule="evenodd" stroke="none"/>
    <path d="M32.15 -10.9 L29.15 -16.45 27.7 -18.65 Q20.85 -28.45 8.8 -31.55 -4.65 -35.05 -16.65 -28.35 -21.15 -25.85 -24.4 -22.5 L-25.25 -21.65 Q-27.8 -18.85 -30.6 -12.7 L-28.95 -12.6 M29.1 -9.95 L29.5 -10.1 32.15 -10.9 33.25 -11.1 M33.3 -11.05 Q38.25 -10.45 38.45 -7.0 38.65 -3.55 32.9 -3.85 L17.15 -5.3 -7.2 -6.6 Q-21.55 -6.7 -29.4 -6.2 -37.3 -5.75 -35.65 -9.5 -34.35 -12.6 -30.6 -12.7 M25.6 -9.95 Q27.2 -9.6 29.1 -9.95" fill="none" stroke="#a13e00" stroke-linecap="round" stroke-linejoin="round" stroke-width="3.0"/>
  </g>
</svg>
