<?xml version="1.0" encoding="UTF-8" standalone="no"?>
<svg xmlns:ffdec="https://www.free-decompiler.com/flash" xmlns:xlink="http://www.w3.org/1999/xlink" ffdec:objectType="shape" height="21.25px" width="68.75px" xmlns="http://www.w3.org/2000/svg">
  <g transform="matrix(1.0, 0.0, 0.0, 1.0, -40.65, -89.75)">
    <path d="M102.8 92.0 L104.3 91.8 105.3 93.05 105.55 93.35 105.5 93.8 105.05 93.4 102.8 92.0 105.05 93.4 105.5 93.8 105.45 93.95 Q105.0 96.95 102.95 99.75 L96.3 100.3 100.75 100.7 Q104.0 104.15 103.15 108.55 L103.1 108.75 102.85 108.75 Q100.25 110.0 97.0 110.0 L53.05 110.0 Q49.8 110.0 47.25 108.75 L47.05 108.75 46.7 108.5 46.7 108.45 47.25 108.75 46.7 108.45 46.8 106.5 Q47.2 103.5 49.1 100.7 L53.65 100.3 47.2 99.75 Q44.7 97.25 44.45 94.35 L46.6 92.3 46.95 92.0 47.2 92.0 Q49.75 90.75 53.05 90.75 L97.0 90.75 Q100.2 90.75 102.8 92.0 M102.85 108.75 L103.15 108.55 102.85 108.75 M47.2 92.0 L46.6 92.3 47.2 92.0" fill="#ffffff" fill-rule="evenodd" stroke="none"/>
    <path d="M105.5 93.8 Q108.4 96.4 108.4 100.0 L108.4 100.75 Q108.4 104.6 105.05 107.25 L103.15 108.55 Q104.0 104.15 100.75 100.7 L96.3 100.3 102.95 99.75 Q105.0 96.95 105.45 93.95 L105.5 93.8 M46.7 108.45 L44.95 107.25 Q41.65 104.6 41.65 100.75 L41.65 100.0 Q41.65 96.15 44.95 93.4 L46.6 92.3 44.45 94.35 Q44.7 97.25 47.2 99.75 L53.65 100.3 49.1 100.7 Q47.2 103.5 46.8 106.5 L46.7 108.45" fill="#5d1b1b" fill-rule="evenodd" stroke="none"/>
    <path d="M105.55 93.35 L105.5 93.8 105.45 93.95 Q105.0 96.95 102.95 99.75 L96.3 100.3 100.75 100.7 Q104.0 104.15 103.15 108.55 L103.1 108.75 M46.7 108.5 L46.7 108.45 46.8 106.5 Q47.2 103.5 49.1 100.7 L53.65 100.3 47.2 99.75 Q44.7 97.25 44.45 94.35" fill="none" stroke="#aaa4a4" stroke-linecap="round" stroke-linejoin="round" stroke-width="2.0"/>
    <path d="M105.5 93.8 Q108.4 96.4 108.4 100.0 L108.4 100.75 Q108.4 104.6 105.05 107.25 L103.15 108.55 102.85 108.75 Q100.25 110.0 97.0 110.0 L53.05 110.0 Q49.8 110.0 47.25 108.75 L46.7 108.45 44.95 107.25 Q41.65 104.6 41.65 100.75 L41.65 100.0 Q41.65 96.15 44.95 93.4 L46.6 92.3 47.2 92.0 Q49.75 90.75 53.05 90.75 L97.0 90.75 Q100.2 90.75 102.8 92.0 L105.05 93.4 105.5 93.8 Z" fill="none" stroke="#560f0f" stroke-linecap="round" stroke-linejoin="round" stroke-width="2.0"/>
  </g>
</svg>
