<?xml version="1.0" encoding="UTF-8" standalone="no"?>
<svg xmlns:ffdec="https://www.free-decompiler.com/flash" xmlns:xlink="http://www.w3.org/1999/xlink" ffdec:objectType="shape" height="22.35px" width="62.0px" xmlns="http://www.w3.org/2000/svg">
  <g transform="matrix(1.0, 0.0, 0.0, 1.0, -44.0, -88.95)">
    <path d="M105.0 89.95 L104.55 92.95 Q102.95 98.4 95.95 103.75 86.95 110.55 74.55 110.3 66.1 110.15 59.55 107.1 56.35 105.6 53.65 103.5 45.15 96.9 45.0 89.95 L51.7 91.1 Q73.65 94.2 97.75 91.05 L105.0 89.95" fill="#5d1b1b" fill-rule="evenodd" stroke="none"/>
    <path d="M105.0 89.95 L104.55 92.95 Q102.95 98.4 95.95 103.75 86.95 110.55 74.55 110.3 66.1 110.15 59.55 107.1 56.35 105.6 53.65 103.5 45.15 96.9 45.0 89.95 L51.7 91.1 Q73.65 94.2 97.75 91.05 L105.0 89.95 Z" fill="none" stroke="#560f0f" stroke-linecap="round" stroke-linejoin="round" stroke-width="2.0"/>
  </g>
</svg>
