<?xml version="1.0" encoding="UTF-8" standalone="no"?>
<svg xmlns:ffdec="https://www.free-decompiler.com/flash" xmlns:xlink="http://www.w3.org/1999/xlink" ffdec:objectType="shape" height="67.15px" width="73.3px" xmlns="http://www.w3.org/2000/svg">
  <g transform="matrix(1.0, 0.0, 0.0, 1.0, 36.45, 34.25)">
    <path d="M8.0 26.45 Q6.15 28.15 3.15 28.15 0.1 28.15 -2.25 26.15 L8.0 26.45" fill="#ffc42a" fill-rule="evenodd" stroke="none"/>
    <path d="M8.0 26.45 L-2.25 26.15 Q0.1 28.15 3.15 28.15 6.15 28.15 8.0 26.45 M16.55 27.1 Q4.7 33.65 -8.45 30.25 -19.4 27.4 -26.0 19.05 1.7 27.4 23.9 21.7 20.75 24.75 16.55 27.1" fill="#ee8300" fill-rule="evenodd" stroke="none"/>
    <path d="M16.55 27.1 Q4.7 33.65 -8.45 30.25 -19.4 27.4 -26.0 19.05 1.7 27.4 23.9 21.7 20.75 24.75 16.55 27.1 Z" fill="none" stroke="#a13e00" stroke-linecap="round" stroke-linejoin="round" stroke-width="3.0"/>
    <path d="M31.0 -17.1 L31.6 -17.1 33.1 -16.85 Q35.35 -16.15 35.35 -13.95 35.3 -11.95 31.85 -11.55 L31.2 -11.5 17.6 -12.7 Q-5.85 -14.0 -28.4 -11.5 L-30.0 -11.35 -30.2 -11.35 Q-36.1 -11.35 -34.7 -14.25 -33.5 -16.75 -30.45 -16.7 L-30.4 -16.7 -29.0 -16.6 -26.35 -20.35 -24.5 -22.45 Q-24.45 -19.6 -22.3 -17.0 -20.15 -14.4 -8.75 -15.45 2.6 -16.5 14.85 -14.95 27.05 -13.4 29.9 -14.2 32.75 -15.05 31.0 -17.1" fill="#ee8300" fill-rule="evenodd" stroke="none"/>
    <path d="M-24.5 -22.45 L-24.4 -22.5 -22.95 -23.9 Q-20.2 -26.4 -16.65 -28.35 -4.65 -35.05 8.8 -31.55 19.4 -28.85 25.95 -20.95 L29.05 -16.5 29.3 -16.65 30.35 -17.05 31.0 -17.1 Q32.75 -15.05 29.9 -14.2 27.05 -13.4 14.85 -14.95 2.6 -16.5 -8.75 -15.45 -20.15 -14.4 -22.3 -17.0 -24.45 -19.6 -24.5 -22.45 M25.6 -15.85 Q27.55 -15.8 29.05 -16.5 27.55 -15.8 25.6 -15.85" fill="#ffc42a" fill-rule="evenodd" stroke="none"/>
    <path d="M31.0 -17.1 L31.6 -17.1 33.1 -16.85 Q35.35 -16.15 35.35 -13.95 35.3 -11.95 31.85 -11.55 L31.2 -11.5 17.6 -12.7 Q-5.85 -14.0 -28.4 -11.5 L-29.6 -11.35 -30.0 -11.35 -30.2 -11.3 -30.2 -11.35 Q-36.1 -11.35 -34.7 -14.25 -33.5 -16.75 -30.45 -16.7 L-30.4 -16.7 -29.0 -16.6 -26.35 -20.35 -24.5 -22.45 -24.4 -22.5 -22.95 -23.9 Q-20.2 -26.4 -16.65 -28.35 -4.65 -35.05 8.8 -31.55 19.4 -28.85 25.95 -20.95 L29.05 -16.5 29.3 -16.65 30.35 -17.05 31.0 -17.1 M29.05 -16.5 Q27.55 -15.8 25.6 -15.85 M-28.4 -11.5 L-30.0 -11.35 -30.2 -11.35" fill="none" stroke="#a13e00" stroke-linecap="round" stroke-linejoin="round" stroke-width="3.0"/>
  </g>
</svg>
