<?xml version="1.0" encoding="UTF-8" standalone="no"?>
<svg xmlns:ffdec="https://www.free-decompiler.com/flash" xmlns:xlink="http://www.w3.org/1999/xlink" ffdec:objectType="shape" height="38.0px" width="38.0px" xmlns="http://www.w3.org/2000/svg">
  <g transform="matrix(1.0, 0.0, 0.0, 1.0, 0.0, 0.0)">
    <path d="M36.5 8.75 L36.5 29.25 Q36.5 36.5 29.2 36.5 L8.75 36.5 Q1.5 36.5 1.5 29.25 L1.5 8.75 Q1.5 1.5 8.75 1.5 L29.2 1.5 Q36.5 1.5 36.5 8.75" fill="#000000" fill-opacity="0.078431375" fill-rule="evenodd" stroke="none"/>
    <path d="M36.5 8.75 Q36.5 1.5 29.2 1.5 L8.75 1.5 Q1.5 1.5 1.5 8.75 L1.5 29.25 Q1.5 36.5 8.75 36.5 L29.2 36.5 Q36.5 36.5 36.5 29.25 L36.5 8.75 M29.2 0.0 Q38.0 0.0 38.0 8.75 L38.0 29.25 Q38.0 38.0 29.2 38.0 L8.75 38.0 Q0.0 38.0 0.0 29.25 L0.0 8.75 Q0.0 0.0 8.75 0.0 L29.2 0.0" fill="#ffffff" fill-rule="evenodd" stroke="none"/>
  </g>
</svg>
