<?xml version="1.0" encoding="UTF-8" standalone="no"?>
<svg xmlns:ffdec="https://www.free-decompiler.com/flash" xmlns:xlink="http://www.w3.org/1999/xlink" ffdec:objectType="shape" height="228.7px" width="408.4px" xmlns="http://www.w3.org/2000/svg">
  <g transform="matrix(1.0, 0.0, 0.0, 1.0, 10.6, 11.55)">
    <path d="M5.3 -1.05 Q-0.7 -1.05 -0.7 3.65 L-0.7 191.4 Q-0.1 209.65 18.5 209.65 L371.3 209.65 Q390.3 209.65 390.3 190.65 L390.3 29.75 Q390.3 10.75 371.3 10.75 L130.7 10.75 125.55 3.65 Q122.15 -1.05 116.2 -1.05 L5.3 -1.05 Z" fill="none" stroke="#000000" stroke-linecap="round" stroke-linejoin="round" stroke-opacity="0.21960784" stroke-width="15.0"/>
    <path d="M2.9 -4.05 L113.8 -4.05 Q119.75 -4.05 123.15 0.65 L128.3 7.75 368.9 7.75 Q387.9 7.75 387.9 26.75 L387.9 187.65 Q387.9 206.65 368.9 206.65 L16.1 206.65 Q-2.9 206.65 -2.9 187.65 L-2.9 56.45 -3.1 54.0 -3.1 0.65 Q-3.1 -4.05 2.9 -4.05" fill="#cad2d2" fill-rule="evenodd" stroke="none"/>
    <path d="M2.9 -4.05 Q-3.1 -4.05 -3.1 0.65 L-3.1 54.0 -2.9 56.45 -2.9 187.65 Q-2.9 206.65 16.1 206.65 L368.9 206.65 Q387.9 206.65 387.9 187.65 L387.9 26.75 Q387.9 7.75 368.9 7.75 L128.3 7.75 123.15 0.65 Q119.75 -4.05 113.8 -4.05 L2.9 -4.05 Z" fill="none" stroke="url(#gradient0)" stroke-linecap="round" stroke-linejoin="round" stroke-width="15.0"/>
    <path d="M2.9 -4.05 L113.8 -4.05 Q119.75 -4.05 123.15 0.65 L128.3 7.75 368.9 7.75 Q387.9 7.75 387.9 26.75 L387.9 187.65 Q387.9 206.65 368.9 206.65 L16.1 206.65 Q-2.9 206.65 -2.9 187.65 L-2.9 56.45 -3.1 54.0 -3.1 0.65 Q-3.1 -4.05 2.9 -4.05" fill="#f5f5f5" fill-rule="evenodd" stroke="none"/>
    <path d="M2.9 -4.05 L113.8 -4.05 Q119.75 -4.05 123.15 0.65 L128.3 7.75 368.9 7.75 Q387.9 7.75 387.9 26.75 L387.9 187.65 Q387.9 206.65 368.9 206.65 L16.1 206.65 Q-2.9 206.65 -2.9 187.65 L-3.1 0.65 Q-3.1 -4.05 2.9 -4.05" fill="url(#gradient1)" fill-rule="evenodd" stroke="none"/>
    <path d="M114.45 -7.65 L-0.55 -7.8 Q-6.6 -7.8 -6.6 -2.95 L-6.6 52.25 -6.4 54.8 -6.4 190.45 Q-6.45 210.05 12.85 210.15 L371.2 210.85 Q380.55 210.85 386.05 204.0 391.2 197.55 391.25 187.3 L390.6 23.8 Q390.55 4.05 371.15 4.05 L129.1 4.55 123.95 -2.8 Q120.5 -7.65 114.45 -7.65 Z" fill="none" stroke="#ffffff" stroke-linecap="round" stroke-linejoin="round" stroke-opacity="0.3019608" stroke-width="2.0"/>
    <path d="M2.9 -4.05 Q-3.1 -4.05 -3.1 0.65 L-3.1 54.0 -2.9 56.45 -2.9 187.65 Q-2.9 206.65 16.1 206.65 L368.9 206.65 Q387.9 206.65 387.9 187.65 L387.9 26.75 Q387.9 7.75 368.9 7.75 L128.3 7.75 123.15 0.65 Q119.75 -4.05 113.8 -4.05 L2.9 -4.05 Z" fill="none" stroke="#4d0362" stroke-linecap="round" stroke-linejoin="round" stroke-width="3.0"/>
  </g>
  <defs>
    <radialGradient cx="0" cy="0" gradientTransform="matrix(0.2784, 0.0, 0.0, 0.2784, 192.4, 101.3)" gradientUnits="userSpaceOnUse" id="gradient0" r="819.2" spreadMethod="pad">
      <stop offset="0.2823529411764706" stop-color="#1a0320"/>
      <stop offset="0.807843137254902" stop-color="#7d0c9c"/>
      <stop offset="1.0" stop-color="#ce57ee"/>
    </radialGradient>
    <linearGradient gradientTransform="matrix(1.0E-4, -0.238, 0.1286, 0.0, 193.3, 103.0)" gradientUnits="userSpaceOnUse" id="gradient1" spreadMethod="pad" x1="-819.2" x2="819.2">
      <stop offset="0.0" stop-color="#adeaff"/>
      <stop offset="0.4196078431372549" stop-color="#ffffff"/>
      <stop offset="0.7019607843137254" stop-color="#ffffff"/>
      <stop offset="1.0" stop-color="#80dfff"/>
    </linearGradient>
  </defs>
</svg>
