<?xml version="1.0" encoding="UTF-8" standalone="no"?>
<svg xmlns:ffdec="https://www.free-decompiler.com/flash" xmlns:xlink="http://www.w3.org/1999/xlink" ffdec:objectType="shape" height="117.65px" width="117.65px" xmlns="http://www.w3.org/2000/svg">
  <g transform="matrix(1.0, 0.0, 0.0, 1.0, -7.6, -44.4)">
    <path d="M116.0 46.4 L16.85 46.4 Q9.6 46.4 9.6 53.65 L9.6 152.8 Q9.6 160.05 16.85 160.05 L116.0 160.05 Q123.25 160.05 123.25 152.8 L123.25 53.65 Q123.25 46.4 116.0 46.4 Z" fill="none" stroke="#000000" stroke-linecap="round" stroke-linejoin="round" stroke-opacity="0.21960784" stroke-width="4.0"/>
    <path d="M116.0 44.4 Q123.25 44.4 123.25 51.65 L123.25 150.8 Q123.25 158.05 116.0 158.05 L16.85 158.05 Q9.6 158.05 9.6 150.8 L9.6 51.65 Q9.6 44.4 16.85 44.4 L116.0 44.4" fill="#d4d4d4" fill-opacity="0.54901963" fill-rule="evenodd" stroke="none"/>
  </g>
</svg>
