<?xml version="1.0" encoding="UTF-8" standalone="no"?>
<svg xmlns:ffdec="https://www.free-decompiler.com/flash" xmlns:xlink="http://www.w3.org/1999/xlink" ffdec:objectType="shape" height="96.2px" width="490.5px" xmlns="http://www.w3.org/2000/svg">
  <g transform="matrix(1.0, 0.0, 0.0, 1.0, 0.0, 0.0)">
    <path d="M481.6 20.25 Q502.2 32.75 475.05 48.65 493.1 56.0 480.15 66.7 493.45 79.25 482.55 87.9 471.45 96.55 441.15 96.2 410.85 95.8 361.7 90.9 282.35 86.65 68.55 63.8 -15.85 35.4 3.7 36.0 36.95 21.15 145.45 44.95 253.8 68.75 255.65 51.4 231.0 30.8 288.85 28.65 274.65 16.15 306.2 10.45 337.7 4.65 363.35 9.3 364.95 -4.15 412.95 1.8 460.95 7.8 481.6 20.25" fill="url(#gradient0)" fill-rule="evenodd" stroke="none"/>
  </g>
  <defs>
    <radialGradient cx="0" cy="0" fx="-12.8" fy="0" gradientTransform="matrix(0.0085, 0.0528, -0.2817, -0.0172, 293.7, 18.9)" gradientUnits="userSpaceOnUse" id="gradient0" r="819.2" spreadMethod="pad">
      <stop offset="0.6627450980392157" stop-color="#ffffff"/>
      <stop offset="0.807843137254902" stop-color="#e2f7ff"/>
    </radialGradient>
  </defs>
</svg>
