<?xml version="1.0" encoding="UTF-8" standalone="no"?>
<svg xmlns:ffdec="https://www.free-decompiler.com/flash" xmlns:xlink="http://www.w3.org/1999/xlink" ffdec:objectType="shape" height="265.05px" width="1088.8px" xmlns="http://www.w3.org/2000/svg">
  <g transform="matrix(1.0, 0.0, 0.0, 1.0, 537.45, 364.4)">
    <path d="M550.95 -327.8 L538.2 -99.35 -537.4 -109.1 -524.95 -333.35 Q-412.5 -347.9 -298.05 -354.95 -179.5 -362.25 -60.65 -363.75 59.75 -365.3 179.7 -359.65 299.85 -354.0 418.9 -341.95 L550.95 -327.8" fill="url(#gradient0)" fill-rule="evenodd" stroke="none"/>
    <path d="M544.6 -213.85 L538.25 -99.35 -537.4 -109.1 -531.6 -213.85 544.6 -213.85" fill="url(#gradient1)" fill-rule="evenodd" stroke="none"/>
    <path d="M201.9 -359.8 L270.6 -356.6 344.0 -352.25 415.3 -347.2 487.65 -341.2 542.75 -336.05 551.35 -335.2 538.25 -99.35 -537.45 -109.1 -524.8 -335.75 -461.85 -342.45 -388.1 -349.6 -308.2 -355.4 -234.3 -359.5 -160.05 -362.3 Q-123.65 -363.45 -87.15 -363.95 L-16.35 -364.4 Q20.8 -364.45 57.75 -363.95 95.35 -363.45 132.8 -362.1 L201.9 -359.8" fill="url(#gradient2)" fill-rule="evenodd" stroke="none"/>
  </g>
  <defs>
    <radialGradient cx="0" cy="0" gradientTransform="matrix(5.1941, 0.0, 0.0, 0.9391, 95.85, 128.5)" gradientUnits="userSpaceOnUse" id="gradient0" r="819.2" spreadMethod="pad">
      <stop offset="0.5019607843137255" stop-color="#8ce720"/>
      <stop offset="0.5843137254901961" stop-color="#bfee77"/>
    </radialGradient>
    <linearGradient gradientTransform="matrix(-9.0E-4, 0.8209, -1.0279, -5.0E-4, -36.9, 79.95)" gradientUnits="userSpaceOnUse" id="gradient1" spreadMethod="pad" x1="-819.2" x2="819.2">
      <stop offset="0.2823529411764706" stop-color="#69b500" stop-opacity="0.0"/>
      <stop offset="0.43137254901960786" stop-color="#69b500"/>
    </linearGradient>
    <radialGradient cx="0" cy="0" gradientTransform="matrix(5.1941, 0.0, 0.0, 0.9391, 69.8, 128.5)" gradientUnits="userSpaceOnUse" id="gradient2" r="819.2" spreadMethod="pad">
      <stop offset="0.28627450980392155" stop-color="#508a00"/>
      <stop offset="0.5019607843137255" stop-color="#6ac400"/>
      <stop offset="0.5843137254901961" stop-color="#9fee25"/>
    </radialGradient>
  </defs>
</svg>
