<?xml version="1.0" encoding="UTF-8" standalone="no"?>
<svg xmlns:ffdec="https://www.free-decompiler.com/flash" xmlns:xlink="http://www.w3.org/1999/xlink" ffdec:objectType="shape" height="82.45px" width="104.25px" xmlns="http://www.w3.org/2000/svg">
  <g transform="matrix(1.0, 0.0, 0.0, 1.0, -3.85, -13.8)">
    <path d="M94.8 58.45 Q79.95 75.95 56.3 92.55 L56.0 92.75 55.3 92.25 Q31.95 75.8 17.2 58.45 2.15 40.85 10.15 28.65 18.1 16.45 34.9 17.35 47.55 18.7 55.3 28.45 L56.0 29.35 56.3 28.95 Q64.1 18.7 77.1 17.35 93.9 16.45 101.85 28.65 109.8 40.85 94.8 58.45" fill="#ffffff" fill-rule="evenodd" stroke="none"/>
    <path d="M94.8 58.45 Q79.95 75.95 56.3 92.55 L56.0 92.75 55.3 92.25 Q31.95 75.8 17.2 58.45 2.15 40.85 10.15 28.65 18.1 16.45 34.9 17.35 47.55 18.7 55.3 28.45 L56.0 29.35 56.3 28.95 Q64.1 18.7 77.1 17.35 93.9 16.45 101.85 28.65 109.8 40.85 94.8 58.45 Z" fill="none" stroke="#460505" stroke-linecap="round" stroke-linejoin="round" stroke-width="7.0"/>
    <path d="M56.0 92.75 L55.3 92.25 Q31.95 75.8 17.2 58.45 2.15 40.85 10.15 28.65 12.25 25.4 15.05 23.1 L56.0 49.6 56.0 92.75" fill="url(#gradient0)" fill-rule="evenodd" stroke="none"/>
    <path d="M98.8 24.75 L101.85 28.65 Q109.8 40.85 94.8 58.45 79.95 75.95 56.3 92.55 L56.0 92.75 56.0 49.6 98.8 24.75" fill="url(#gradient1)" fill-rule="evenodd" stroke="none"/>
    <path d="M15.05 23.1 Q22.6 16.7 34.9 17.35 47.55 18.7 55.3 28.45 L56.0 29.35 56.0 49.6 15.05 23.1" fill="url(#gradient2)" fill-rule="evenodd" stroke="none"/>
    <path d="M56.0 29.35 L56.3 28.95 Q64.1 18.7 77.1 17.35 90.95 16.6 98.8 24.75 L56.0 49.6 56.0 29.35" fill="url(#gradient3)" fill-rule="evenodd" stroke="none"/>
    <path d="M98.8 24.75 L101.85 28.65 Q109.8 40.85 94.8 58.45 79.95 75.95 56.3 92.55 L56.0 92.75 55.3 92.25 Q31.95 75.8 17.2 58.45 2.15 40.85 10.15 28.65 12.25 25.4 15.05 23.1 22.6 16.7 34.9 17.35 47.55 18.7 55.3 28.45 L56.0 29.35 56.3 28.95 Q64.1 18.7 77.1 17.35 90.95 16.6 98.8 24.75 Z" fill="none" stroke="#990000" stroke-linecap="round" stroke-linejoin="round" stroke-width="2.0"/>
  </g>
  <defs>
    <radialGradient cx="0" cy="0" gradientTransform="matrix(0.0381, -0.0305, 0.0336, 0.0421, 58.15, 42.05)" gradientUnits="userSpaceOnUse" id="gradient0" r="819.2" spreadMethod="pad">
      <stop offset="0.7333333333333333" stop-color="#d72f2f"/>
      <stop offset="1.0" stop-color="#9c1515"/>
    </radialGradient>
    <radialGradient cx="0" cy="0" gradientTransform="matrix(0.0345, 0.0345, -0.0425, 0.0425, 60.55, 39.5)" gradientUnits="userSpaceOnUse" id="gradient1" r="819.2" spreadMethod="pad">
      <stop offset="0.7333333333333333" stop-color="#d72f2f"/>
      <stop offset="1.0" stop-color="#9c1515"/>
    </radialGradient>
    <radialGradient cx="0" cy="0" gradientTransform="matrix(0.0299, 0.0, 0.0, 0.0407, 39.0, 49.0)" gradientUnits="userSpaceOnUse" id="gradient2" r="819.2" spreadMethod="pad">
      <stop offset="0.7333333333333333" stop-color="#d72f2f"/>
      <stop offset="1.0" stop-color="#9c1515"/>
    </radialGradient>
    <radialGradient cx="0" cy="0" gradientTransform="matrix(0.0359, 0.0105, -0.013, 0.0443, 77.0, 51.0)" gradientUnits="userSpaceOnUse" id="gradient3" r="819.2" spreadMethod="pad">
      <stop offset="0.7333333333333333" stop-color="#d72f2f"/>
      <stop offset="1.0" stop-color="#9c1515"/>
    </radialGradient>
  </defs>
</svg>
