<?xml version="1.0" encoding="UTF-8" standalone="no"?>
<svg xmlns:ffdec="https://www.free-decompiler.com/flash" xmlns:xlink="http://www.w3.org/1999/xlink" ffdec:objectType="shape" height="7.5px" width="14.05px" xmlns="http://www.w3.org/2000/svg">
  <g transform="matrix(1.0, 0.0, 0.0, 1.0, -34.15, -65.55)">
    <path d="M37.5 66.7 L39.75 66.5 42.05 66.7 43.75 67.1 Q45.4 67.7 45.4 68.55 45.35 69.4 43.75 69.95 L39.75 70.55 Q37.45 70.55 35.8 69.95 34.15 69.4 34.15 68.55 34.15 67.7 35.8 67.1 L37.5 66.7 M39.75 66.8 L37.75 66.9 36.25 67.3 Q34.75 67.75 34.75 68.55 34.8 69.3 36.25 69.8 L39.75 70.35 43.3 69.8 Q44.7 69.3 44.75 68.55 44.75 67.75 43.3 67.3 L41.75 66.9 39.75 66.8" fill="#666666" fill-rule="evenodd" stroke="none"/>
    <path d="M39.75 66.8 L41.75 66.9 43.3 67.3 Q44.75 67.75 44.75 68.55 44.7 69.3 43.3 69.8 L39.75 70.35 36.25 69.8 Q34.8 69.3 34.75 68.55 34.75 67.75 36.25 67.3 L37.75 66.9 39.75 66.8 M38.35 67.4 L37.3 67.65 Q36.25 68.05 36.25 68.55 36.3 69.05 37.3 69.4 L39.75 69.8 42.2 69.4 Q43.25 69.05 43.3 68.55 43.3 68.05 42.2 67.65 L41.2 67.4 39.75 67.3 38.35 67.4" fill="#999999" fill-rule="evenodd" stroke="none"/>
    <path d="M38.35 67.4 L39.75 67.3 41.2 67.4 42.2 67.65 Q43.3 68.05 43.3 68.55 43.25 69.05 42.2 69.4 L39.75 69.8 37.3 69.4 Q36.3 69.05 36.25 68.55 36.25 68.05 37.3 67.65 L38.35 67.4" fill="#707070" fill-rule="evenodd" stroke="none"/>
    <path d="M36.95 66.5 L37.15 66.1 37.75 65.75 39.8 65.55 41.8 65.75 42.35 66.1 42.6 66.45 42.6 66.5 Q42.6 66.95 41.8 67.25 L41.45 67.3 39.8 67.6 38.05 67.3 37.75 67.25 Q36.95 66.95 36.95 66.5" fill="#999999" fill-rule="evenodd" stroke="none"/>
    <path d="M42.6 66.5 L42.9 68.15 Q42.9 68.6 41.95 68.95 L39.8 69.25 37.45 68.95 Q36.6 68.6 36.6 68.15 L36.95 66.5 Q36.95 66.95 37.75 67.25 L38.05 67.3 39.8 67.6 41.45 67.3 41.8 67.25 Q42.6 66.95 42.6 66.5" fill="url(#gradient0)" fill-rule="evenodd" stroke="none"/>
    <path d="M43.65 73.0 L43.15 72.5 Q43.05 72.15 43.2 71.8 L43.65 71.3 44.35 71.35 44.85 71.8 44.85 72.5 44.35 73.0 43.65 73.0 M47.35 72.65 L46.3 72.6 Q45.8 72.4 45.6 71.9 45.4 71.4 45.6 70.85 45.85 70.35 46.35 70.15 L47.35 70.2 48.1 70.9 Q48.3 71.4 48.1 71.95 L47.35 72.65" fill="#ffffff" fill-opacity="0.4" fill-rule="evenodd" stroke="none"/>
  </g>
  <defs>
    <radialGradient cx="0" cy="0" gradientTransform="matrix(0.0036, 0.0, 0.0, 0.0021, 40.1, 67.8)" gradientUnits="userSpaceOnUse" id="gradient0" r="819.2" spreadMethod="pad">
      <stop offset="0.3254901960784314" stop-color="#878787"/>
      <stop offset="1.0" stop-color="#5d5d5d"/>
    </radialGradient>
  </defs>
</svg>
