<?xml version="1.0" encoding="UTF-8" standalone="no"?>
<svg xmlns:ffdec="https://www.free-decompiler.com/flash" xmlns:xlink="http://www.w3.org/1999/xlink" ffdec:objectType="shape" height="59.5px" width="59.55px" xmlns="http://www.w3.org/2000/svg">
  <g transform="matrix(1.0, 0.0, 0.0, 1.0, 31.05, 56.1)">
    <path d="M22.6 -42.95 Q27.75 -35.7 27.75 -26.35 27.75 -14.35 19.25 -5.85 16.85 -3.45 14.15 -1.7 7.35 2.65 -1.25 2.65 -13.25 2.65 -21.8 -5.85 -27.0 -11.05 -29.0 -17.5 -27.15 -14.35 -24.35 -11.55 -15.9 -3.15 -4.0 -3.15 6.4 -3.15 14.15 -9.6 L16.25 -11.55 Q24.7 -19.95 24.7 -31.85 24.7 -37.85 22.6 -42.95" fill="#e2e2e2" fill-rule="evenodd" stroke="none"/>
    <path d="M-29.0 -17.5 Q-30.3 -21.65 -30.3 -26.35 -30.3 -38.35 -21.8 -46.85 -13.25 -55.35 -1.25 -55.35 7.35 -55.35 14.15 -50.95 16.85 -49.25 19.25 -46.85 L22.2 -43.5 22.55 -43.0 22.6 -42.95 Q24.7 -37.85 24.7 -31.85 24.7 -19.95 16.25 -11.55 L14.15 -9.6 Q6.4 -3.15 -4.0 -3.15 -15.9 -3.15 -24.35 -11.55 -27.15 -14.35 -29.0 -17.5" fill="#ffffff" fill-rule="evenodd" stroke="none"/>
    <path d="M27.75 -26.35 Q27.75 -14.35 19.25 -5.85 16.85 -3.45 14.15 -1.7 7.35 2.65 -1.25 2.65 -13.25 2.65 -21.8 -5.85 -30.3 -14.35 -30.3 -26.35 -30.3 -38.35 -21.8 -46.85 -13.25 -55.35 -1.25 -55.35 7.35 -55.35 14.15 -50.95 16.85 -49.25 19.25 -46.85 27.75 -38.35 27.75 -26.35 Z" fill="none" stroke="#737373" stroke-linecap="round" stroke-linejoin="round" stroke-width="1.5"/>
  </g>
</svg>
