<?xml version="1.0" encoding="UTF-8" standalone="no"?>
<svg xmlns:ffdec="https://www.free-decompiler.com/flash" xmlns:xlink="http://www.w3.org/1999/xlink" ffdec:objectType="shape" height="20.35px" width="19.35px" xmlns="http://www.w3.org/2000/svg">
  <g transform="matrix(1.0, 0.0, 0.0, 1.0, -303.85, 179.8)">
    <path d="M312.6 -178.45 Q312.8 -178.8 313.25 -178.8 315.2 -178.8 318.1 -179.5 L319.45 -179.8 Q320.7 -179.8 320.7 -179.05 L319.35 -176.35 318.35 -174.45 317.9 -173.4 Q316.45 -170.6 316.4 -169.95 L318.35 -170.15 321.15 -170.85 322.5 -171.25 Q323.2 -171.25 323.2 -170.05 L322.85 -169.25 321.85 -168.7 319.8 -168.35 314.4 -167.8 Q313.05 -167.8 313.05 -168.6 313.05 -169.35 314.65 -172.75 L315.1 -173.75 316.2 -175.65 317.3 -177.25 315.75 -177.0 313.5 -176.7 Q313.05 -176.7 312.7 -177.0 312.35 -177.15 312.35 -177.55 L312.6 -178.45 M309.85 -167.55 L308.9 -165.6 308.2 -164.25 307.85 -163.45 306.75 -161.0 308.2 -161.15 310.2 -161.65 311.15 -161.9 Q311.7 -161.9 311.7 -161.05 L311.45 -160.5 Q311.25 -160.2 310.7 -160.1 L309.2 -159.85 305.3 -159.45 Q304.35 -159.45 304.35 -160.0 304.35 -160.55 305.5 -163.0 L305.85 -163.75 306.6 -165.1 307.4 -166.25 306.3 -166.05 304.65 -165.85 304.1 -166.05 Q303.85 -166.2 303.85 -166.45 303.85 -166.85 304.0 -167.1 L304.5 -167.35 308.0 -167.9 308.95 -168.1 Q309.85 -168.1 309.85 -167.55" fill="#333333" fill-rule="evenodd" stroke="none"/>
  </g>
</svg>
