<?xml version="1.0" encoding="UTF-8" standalone="no"?>
<svg xmlns:ffdec="https://www.free-decompiler.com/flash" xmlns:xlink="http://www.w3.org/1999/xlink" ffdec:objectType="shape" height="11.85px" width="34.8px" xmlns="http://www.w3.org/2000/svg">
  <g transform="matrix(1.0, 0.0, 0.0, 1.0, 0.75, 0.75)">
    <path d="M23.0 10.35 L10.5 10.35 10.4 10.35 Q6.1 10.35 3.05 8.85 0.0 7.35 0.0 5.2 0.0 3.05 3.05 1.55 5.5 0.3 8.75 0.05 L10.4 0.0 10.5 0.0 23.0 0.0 24.95 0.1 Q27.95 0.4 30.25 1.55 33.3 3.05 33.3 5.2 33.3 7.35 30.25 8.85 27.25 10.35 23.0 10.35 M7.9 5.0 L11.45 5.55 22.15 5.55 25.6 5.0 24.95 4.75 22.15 4.4 11.45 4.4 8.75 4.7 7.9 5.0 7.25 4.7 6.75 4.4 7.25 4.7 7.9 5.0 M26.85 4.25 L26.2 4.7 25.6 5.0 26.2 4.7 26.85 4.25" fill="url(#gradient0)" fill-rule="evenodd" stroke="none"/>
    <path d="M7.9 5.0 L7.25 4.7 6.75 4.4 M25.6 5.0 L26.2 4.7 26.85 4.25" fill="none" stroke="#666666" stroke-linecap="round" stroke-linejoin="round" stroke-width="1.0"/>
    <path d="M23.0 10.35 L10.5 10.35 10.4 10.35 Q6.1 10.35 3.05 8.85 0.0 7.35 0.0 5.2 0.0 3.05 3.05 1.55 5.5 0.3 8.75 0.05 L10.4 0.0 10.5 0.0 23.0 0.0 24.95 0.1 Q27.95 0.4 30.25 1.55 33.3 3.05 33.3 5.2 33.3 7.35 30.25 8.85 27.25 10.35 23.0 10.35 M25.6 5.0 L22.15 5.55 11.45 5.55 7.9 5.0 8.75 4.7 11.45 4.4 22.15 4.4 24.95 4.75 25.6 5.0 Z" fill="none" stroke="#3f3f3f" stroke-linecap="round" stroke-linejoin="round" stroke-width="1.5"/>
    <path d="M12.1 -0.3 L21.3 -0.3 Q25.45 -0.3 28.6 0.95 31.7 2.1 31.7 3.7 L31.7 3.8 Q31.7 5.45 28.6 6.7 25.45 7.8 21.3 7.8 L12.1 7.8 Q7.95 7.8 4.8 6.7 1.7 5.45 1.7 3.8 L1.7 3.7 Q1.7 2.1 4.8 0.95 7.95 -0.3 12.1 -0.3 M25.45 2.1 L20.0 1.55 13.75 1.55 8.6 2.1 Q6.3 2.75 6.3 3.7 6.3 4.6 8.6 5.25 L13.75 5.9 20.0 5.9 25.45 5.25 Q27.5 4.6 27.5 3.7 27.5 2.75 25.45 2.1" fill="url(#gradient1)" fill-rule="evenodd" stroke="none"/>
  </g>
  <defs>
    <radialGradient cx="0" cy="0" gradientTransform="matrix(0.0235, 0.0, 0.0, 0.0076, 15.9, 3.75)" gradientUnits="userSpaceOnUse" id="gradient0" r="819.2" spreadMethod="pad">
      <stop offset="0.3137254901960784" stop-color="#999999"/>
      <stop offset="0.4588235294117647" stop-color="#c0c0c0"/>
      <stop offset="0.596078431372549" stop-color="#c0c0c0"/>
      <stop offset="0.8901960784313725" stop-color="#626262"/>
    </radialGradient>
    <radialGradient cx="0" cy="0" gradientTransform="matrix(0.0309, 0.0, 0.0, 0.0077, 16.7, 3.8)" gradientUnits="userSpaceOnUse" id="gradient1" r="819.2" spreadMethod="pad">
      <stop offset="0.4627450980392157" stop-color="#ffffff" stop-opacity="0.0"/>
      <stop offset="0.5098039215686274" stop-color="#ffffff" stop-opacity="0.34901962"/>
      <stop offset="0.5333333333333333" stop-color="#ffffff" stop-opacity="0.0"/>
    </radialGradient>
  </defs>
</svg>
