<?xml version="1.0" encoding="UTF-8" standalone="no"?>
<svg xmlns:ffdec="https://www.free-decompiler.com/flash" xmlns:xlink="http://www.w3.org/1999/xlink" ffdec:objectType="shape" height="8.1px" width="38.15px" xmlns="http://www.w3.org/2000/svg">
  <g transform="matrix(1.0, 0.0, 0.0, 1.0, 19.05, -8.8)">
    <path d="M-17.95 9.0 L-17.05 9.0 Q-15.1 9.0 -14.15 9.75 -13.15 10.5 -13.15 12.05 -13.15 13.1 -13.6 13.8 -14.05 14.45 -14.85 14.75 L-16.65 15.05 -16.6 16.6 -16.95 16.6 -17.9 16.6 -19.05 16.6 -19.05 15.7 -19.0 13.1 -19.0 9.15 -17.95 9.0 M-16.55 10.9 L-16.7 10.9 -16.7 11.5 -16.7 13.35 -15.8 13.1 Q-15.5 12.8 -15.5 12.1 -15.5 11.5 -15.75 11.2 -16.0 10.9 -16.45 10.9 L-16.55 10.9 M-2.5 11.5 L-2.75 10.85 -3.15 10.65 -3.6 10.85 -3.8 11.55 -3.9 12.9 -3.8 14.2 -3.55 14.9 Q-3.4 15.1 -3.15 15.1 -2.9 15.1 -2.75 14.9 L-2.5 14.25 -2.4 12.85 -2.5 11.5 M-3.15 8.85 Q-2.0 8.85 -1.25 9.3 -0.5 9.8 -0.15 10.7 0.2 11.6 0.2 12.9 0.2 14.3 -0.25 15.2 -0.65 16.05 -1.4 16.45 -2.15 16.85 -3.15 16.85 -4.8 16.85 -5.65 15.85 -6.5 14.85 -6.5 12.9 -6.5 11.65 -6.1 10.75 -5.75 9.8 -5.0 9.35 -4.25 8.85 -3.15 8.85 M-9.15 11.75 Q-9.15 11.25 -9.4 10.95 -9.65 10.65 -10.15 10.65 L-10.3 10.65 -10.5 10.7 -10.45 11.75 -10.45 12.5 -10.45 12.8 -9.5 12.6 Q-9.15 12.35 -9.15 11.75 M-7.7 9.5 Q-6.75 10.25 -6.75 11.65 -6.75 12.45 -7.1 12.95 L-7.95 13.8 -7.45 14.9 -6.6 16.65 -6.9 16.7 -7.75 16.75 -9.05 16.9 -9.35 16.2 -10.1 14.35 -10.2 14.35 -10.45 14.35 -10.4 16.55 -10.75 16.55 -11.65 16.55 -12.8 16.55 -12.8 15.65 -12.75 13.05 -12.75 9.05 -11.5 8.85 -10.4 8.8 Q-8.6 8.8 -7.7 9.5 M6.0 9.0 L6.65 9.0 8.4 9.0 8.45 9.65 8.45 11.35 8.45 13.8 8.5 16.65 8.15 16.65 7.35 16.65 6.05 16.65 6.05 16.05 6.05 14.45 6.05 12.0 6.0 9.0 M0.7 12.1 L0.65 9.0 1.05 9.0 2.05 9.0 3.6 9.0 5.5 8.95 5.5 9.55 5.5 11.15 5.15 11.15 4.3 11.15 3.05 11.2 3.05 11.5 3.05 12.5 3.45 12.5 4.05 12.5 5.05 12.45 5.05 13.0 5.05 14.6 4.55 14.6 3.1 14.6 3.1 16.6 1.9 16.6 1.05 16.6 0.75 16.6 0.75 16.05 0.75 14.5 0.7 12.1 M11.5 9.3 L11.5 10.15 11.5 11.8 11.55 14.55 13.25 14.6 13.85 14.6 13.8 16.1 13.85 16.65 12.2 16.65 10.7 16.6 9.6 16.6 9.2 16.6 9.15 16.0 9.15 14.3 9.15 11.9 9.1 9.05 9.7 9.1 11.5 9.05 11.5 9.3 M14.2 12.1 L14.15 9.05 15.4 9.0 19.1 8.95 19.1 9.5 19.1 11.0 18.8 11.0 17.85 11.05 16.55 11.05 16.55 11.7 16.55 11.95 16.7 11.95 17.35 11.95 18.6 11.9 18.6 12.4 18.6 13.8 18.15 13.8 16.6 13.8 16.6 14.4 16.6 14.65 17.2 14.65 19.1 14.7 19.1 15.2 19.1 16.7 18.7 16.7 17.65 16.65 16.15 16.65 14.25 16.6 14.25 16.05 14.25 14.5 14.2 12.1" fill="#4d0362" fill-opacity="0.8" fill-rule="evenodd" stroke="none"/>
  </g>
</svg>
