<?xml version="1.0" encoding="UTF-8" standalone="no"?>
<svg xmlns:ffdec="https://www.free-decompiler.com/flash" xmlns:xlink="http://www.w3.org/1999/xlink" ffdec:objectType="shape" height="231.55px" width="405.95px" xmlns="http://www.w3.org/2000/svg">
  <g transform="matrix(1.0, 0.0, 0.0, 1.0, 8.0, 13.55)">
    <path d="M115.15 190.55 L115.75 190.4 116.8 190.7 125.6 183.55 117.5 191.6 117.6 192.1 117.3 193.15 124.6 201.85 116.45 193.85 115.9 193.95 115.0 193.7 106.35 201.05 114.25 192.85 114.1 192.3 Q114.05 191.75 114.3 191.35 L106.8 182.95 115.15 190.55 M28.65 169.4 L29.0 169.35 29.8 169.45 35.95 164.4 30.3 170.1 Q30.55 170.65 30.15 171.25 L35.25 177.35 29.5 171.75 29.15 171.8 28.5 171.7 22.45 176.85 27.95 171.05 Q27.65 170.5 28.0 170.05 L22.75 164.0 28.65 169.4 M11.15 129.05 L10.7 128.95 4.5 134.2 10.25 128.5 10.1 128.15 2.0 127.45 10.1 127.45 Q10.1 127.2 10.25 127.1 L5.0 120.8 10.7 126.65 11.05 126.55 11.7 118.3 11.7 126.55 11.95 126.65 18.35 121.3 12.55 127.1 12.65 127.35 20.85 128.0 12.65 128.0 12.65 128.35 17.9 134.65 12.2 128.95 11.85 129.05 11.15 137.15 11.15 129.05 M40.6 139.05 L46.85 133.7 41.05 139.5 41.15 139.75 49.4 140.55 41.15 140.55 41.15 140.8 46.4 147.05 40.7 141.35 40.35 141.45 39.65 149.7 39.65 141.45 39.45 141.45 33.05 146.6 38.85 140.9 38.75 140.55 30.5 139.85 38.75 139.85 38.85 139.65 33.5 133.35 39.35 139.05 39.55 139.05 40.25 130.7 40.25 138.95 40.6 139.05 M132.35 74.1 L132.8 74.0 Q133.35 73.9 133.7 74.25 L141.15 68.05 134.4 74.9 Q134.75 75.6 134.15 76.4 L140.35 83.7 133.35 76.95 132.9 77.1 132.1 76.85 124.8 83.15 131.4 76.05 Q131.1 75.35 131.55 74.9 L125.15 67.6 132.35 74.1 M322.5 157.65 L322.5 158.0 327.75 164.3 322.15 158.55 Q321.9 158.55 321.7 158.7 L321.0 166.8 321.0 158.7 Q320.9 158.55 320.75 158.55 L314.45 163.8 320.2 158.1 320.1 157.75 311.85 157.05 320.2 157.05 320.2 156.85 314.8 150.45 320.65 156.25 320.9 156.25 321.55 147.9 321.55 156.15 321.9 156.25 328.2 150.9 322.35 156.85 322.5 156.95 330.7 157.65 322.5 157.65 M281.7 190.5 L275.7 195.65 281.1 189.9 Q280.8 189.35 281.15 188.85 L276.0 182.95 281.8 188.3 282.2 188.2 282.9 188.45 289.05 183.35 283.45 189.05 283.5 189.45 283.35 190.2 288.4 196.2 282.6 190.65 282.4 190.65 281.7 190.5 M281.3 130.45 L281.3 130.65 286.55 136.95 280.85 131.25 280.5 131.35 279.8 139.6 279.8 131.35 279.6 131.35 273.2 136.5 279.0 130.75 278.9 130.45 270.65 129.75 278.9 129.75 279.0 129.5 273.65 123.2 279.45 128.95 279.7 128.95 280.4 120.6 280.4 128.8 Q280.6 128.8 280.75 128.95 L287.0 123.55 281.2 129.4 281.3 129.65 289.55 130.45 281.3 130.45 M236.4 180.8 L240.65 184.7 240.95 184.65 241.5 184.85 246.0 181.1 241.85 185.3 241.9 185.55 241.8 186.1 245.5 190.55 241.25 186.45 241.1 186.45 240.6 186.35 236.15 190.15 240.15 185.9 Q239.95 185.5 240.2 185.1 L236.4 180.8 M168.55 186.95 L162.7 192.75 162.8 193.0 171.05 193.65 162.8 193.65 162.8 194.0 168.05 200.3 162.35 194.6 162.0 194.7 161.35 202.8 161.35 194.7 160.85 194.6 154.7 199.85 160.4 194.15 160.3 193.8 152.2 193.1 160.3 193.1 160.4 192.75 155.15 186.45 160.85 192.3 161.2 192.2 161.9 183.95 161.9 192.2 162.15 192.3 168.55 186.95 M217.85 68.9 L219.2 69.25 230.9 59.75 220.1 70.5 220.25 71.2 219.9 72.55 229.6 84.1 218.75 73.45 218.05 73.6 216.8 73.25 205.35 83.05 215.8 72.1 215.65 71.4 Q215.55 70.7 215.9 70.15 L205.95 58.95 217.05 69.1 217.85 68.9 M314.85 17.7 L315.35 17.65 316.4 17.8 324.25 11.35 317.0 18.6 Q317.35 19.35 316.8 20.1 L323.4 27.95 316.0 20.75 315.55 20.8 314.65 20.65 306.95 27.3 313.95 19.85 Q313.6 19.15 314.05 18.5 L307.3 10.8 314.85 17.7 M369.6 132.25 Q370.35 132.85 370.0 134.0 L381.05 139.5 369.2 135.05 369.0 135.15 Q368.45 135.6 367.9 135.45 L362.5 146.6 366.75 134.95 Q366.0 134.4 366.15 133.45 L355.0 128.15 366.65 132.3 Q367.35 131.45 368.35 131.65 L374.0 120.6 369.6 132.25 M66.85 -4.75 L66.95 -4.55 75.2 -3.85 66.95 -3.85 66.95 -3.5 72.25 2.8 66.5 -2.95 66.15 -2.8 65.5 5.3 65.5 -2.8 65.0 -2.95 58.85 2.35 64.55 -3.4 64.45 -3.75 56.35 -4.4 64.45 -4.4 64.55 -4.75 59.3 -11.05 65.0 -5.2 65.35 -5.35 66.05 -13.55 66.05 -5.35 66.3 -5.2 72.7 -10.6 66.85 -4.75" fill="#ffffff" fill-opacity="0.54901963" fill-rule="evenodd" stroke="none"/>
    <path d="M-8.0 159.0 L-8.0 158.25 -6.6 159.65 -6.4 159.65 -5.75 151.95 -5.75 159.55 -5.45 159.65 0.35 154.7 -5.0 160.2 -4.9 160.3 2.7 160.9 -4.9 160.9 -4.9 161.25 -0.05 167.05 -5.25 161.75 -5.65 161.85 -6.3 169.35 -6.3 161.85 -6.5 161.75 -8.0 163.0 -8.0 162.35 -7.0 161.35 -7.15 161.0 -8.0 160.95 -8.0 160.4 -7.0 160.4 -7.0 160.2 -8.0 159.0 M-8.0 77.85 L-8.0 77.6 -6.7 76.55 -8.0 77.85 M-8.0 94.2 L-8.0 94.15 -7.75 94.45 -8.0 94.2 M306.45 218.0 L305.95 218.0 308.9 215.6 306.45 218.0 M293.6 218.0 L293.05 218.0 290.4 215.05 293.6 218.0 M145.5 218.0 L144.45 218.0 150.0 213.35 145.5 218.0 M137.3 218.0 L136.25 218.0 131.65 212.85 137.3 218.0 M107.3 123.6 L107.65 123.5 108.3 123.65 113.8 119.15 108.7 124.25 108.8 124.6 108.6 125.2 113.25 130.7 108.1 125.65 107.75 125.7 107.15 125.55 101.75 130.2 106.65 125.0 106.6 124.7 106.7 124.1 102.0 118.8 107.3 123.6 M150.55 126.75 Q150.35 126.75 150.25 126.85 L149.6 134.35 149.6 126.85 149.2 126.75 143.5 131.6 148.75 126.3 148.65 126.0 141.15 125.4 148.65 125.4 148.75 125.05 143.9 119.25 149.2 124.65 Q149.3 124.55 149.5 124.55 L150.1 116.95 150.1 124.55 150.35 124.65 156.25 119.7 150.85 125.05 150.95 125.25 158.55 125.9 150.95 125.9 150.95 126.2 155.8 132.0 150.55 126.75 M57.45 185.35 L57.7 185.35 58.3 177.65 58.3 185.25 58.65 185.35 64.45 180.4 59.05 185.9 59.15 186.0 66.75 186.6 59.15 186.6 59.15 186.95 64.0 192.75 58.85 187.45 58.4 187.55 57.8 195.05 57.8 187.55 57.6 187.45 51.8 192.3 57.05 187.05 56.95 186.75 49.35 186.1 56.95 186.1 57.05 185.9 52.1 180.0 57.45 185.35 M68.55 165.0 L67.9 164.85 62.1 169.85 67.35 164.25 Q67.05 163.75 67.4 163.25 L62.35 157.5 68.0 162.65 68.4 162.6 69.15 162.75 75.05 157.9 69.6 163.35 Q69.85 163.85 69.45 164.45 L74.35 170.35 68.85 164.95 68.55 165.0 M10.25 65.8 L10.15 65.45 2.7 64.85 10.15 64.85 10.25 64.5 5.4 58.7 10.7 64.1 11.0 64.0 11.65 56.4 11.65 64.0 11.85 64.1 17.75 59.15 12.4 64.5 12.5 64.75 20.1 65.35 12.5 65.35 12.5 65.7 17.35 71.5 12.05 66.2 11.75 66.3 11.1 73.8 11.1 66.3 10.7 66.2 5.0 71.05 10.25 65.8 M279.4 150.8 L274.05 156.2 274.15 156.4 281.75 157.0 274.15 157.0 274.15 157.35 279.0 163.15 273.75 157.85 273.4 157.95 272.8 165.45 272.8 157.95 272.35 157.85 266.65 162.7 271.95 157.45 271.85 157.15 264.35 156.5 271.85 156.5 271.95 156.2 267.1 150.4 272.35 155.75 Q272.45 155.65 272.65 155.65 L273.3 148.05 273.3 155.65 273.5 155.75 279.4 150.8 M248.15 105.75 Q248.25 106.4 247.95 106.8 L255.0 115.25 246.9 107.45 246.55 107.45 245.6 107.25 237.15 114.5 244.75 106.4 Q244.35 105.65 244.85 104.9 L237.6 96.7 245.7 104.15 246.35 104.05 Q246.9 104.05 247.3 104.4 L255.95 97.2 248.05 105.2 248.15 105.75 M183.65 119.55 L191.25 119.55 191.35 119.35 186.4 113.55 191.8 118.85 192.0 118.85 192.65 111.15 192.65 118.75 192.95 118.85 198.75 113.9 193.35 119.25 193.45 119.45 201.05 120.2 193.45 120.2 193.45 120.4 198.3 126.2 193.05 120.95 192.75 121.05 192.1 128.65 192.1 121.05 191.9 121.05 186.0 125.8 191.35 120.5 191.25 120.2 183.65 119.55 M242.55 146.85 Q242.1 146.1 242.65 145.35 L235.35 137.15 243.5 144.65 244.1 144.5 Q244.65 144.5 245.05 144.85 L253.7 137.65 245.8 145.7 245.9 146.2 Q246.0 146.85 245.7 147.25 L252.75 155.7 244.65 147.9 244.35 147.9 243.4 147.7 234.95 154.95 242.55 146.85 M172.45 52.45 Q172.05 51.7 172.55 50.95 L165.3 42.75 173.4 50.2 174.05 50.1 Q174.6 50.1 175.0 50.45 L183.65 43.25 175.75 51.25 175.85 51.8 Q175.95 52.45 175.65 52.85 L182.7 61.3 174.6 53.5 174.25 53.5 173.3 53.3 164.85 60.55 172.45 52.45 M260.25 67.6 L260.25 67.8 265.1 73.6 259.8 68.3 259.5 68.4 258.85 76.0 258.85 68.4 258.65 68.4 252.75 73.15 258.1 67.9 258.0 67.6 250.45 66.95 258.0 66.95 258.1 66.75 253.15 60.95 258.55 66.2 258.75 66.2 259.4 58.5 259.4 66.1 259.7 66.2 265.5 61.25 260.15 66.65 260.25 66.85 267.85 67.6 260.25 67.6 M333.95 190.25 L334.05 190.75 Q334.15 191.4 333.85 191.8 L340.9 200.25 332.8 192.45 332.5 192.45 331.55 192.25 323.1 199.5 330.7 191.4 Q330.25 190.65 330.8 189.9 L323.5 181.7 331.65 189.2 332.25 189.1 Q332.8 189.1 333.2 189.4 L341.85 182.2 333.95 190.25 M331.35 100.65 L331.45 100.75 339.05 101.4 331.45 101.4 331.45 101.7 336.3 107.5 331.15 102.2 Q330.95 102.2 330.7 102.35 L330.1 109.8 330.1 102.35 329.85 102.2 324.05 107.1 329.35 101.8 329.25 101.5 321.65 100.85 329.35 100.85 329.35 100.65 324.4 94.75 329.75 100.1 330.0 100.1 330.6 92.4 330.6 100.0 330.95 100.1 336.75 95.15 331.35 100.65 M362.6 78.1 Q363.35 77.4 364.3 77.65 L371.25 66.85 365.55 78.4 Q366.25 79.1 365.75 80.25 L376.6 86.9 364.9 81.25 364.65 81.3 Q364.1 81.7 363.5 81.5 L356.9 92.4 362.4 80.85 Q361.7 80.2 361.9 79.3 L351.1 72.85 362.6 78.1 M120.85 -0.05 L113.5 -8.25 121.6 -0.8 Q122.45 -1.3 123.3 -0.8 L131.95 -7.75 123.95 0.15 124.05 0.7 123.85 1.65 130.9 10.2 123.0 2.5 Q122.25 2.8 121.5 2.25 L113.05 9.45 120.75 1.45 120.65 0.9 Q120.55 0.35 120.85 -0.05" fill="#ffffff" fill-opacity="0.54901963" fill-rule="evenodd" stroke="none"/>
    <path d="M233.1 26.0 Q233.55 26.55 233.5 27.25 233.45 28.0 232.9 28.45 L231.65 28.85 Q230.95 28.8 230.45 28.25 230.0 27.7 230.05 26.95 230.1 26.25 230.65 25.8 231.25 25.4 231.95 25.45 232.6 25.5 233.1 26.0 M212.85 27.2 L211.4 27.8 211.8 26.25 210.75 25.05 212.35 25.0 213.15 23.65 213.75 25.15 215.2 25.45 214.0 26.45 214.15 28.05 212.85 27.2 M208.2 9.6 L209.1 11.85 211.5 12.45 209.6 14.0 209.85 16.5 207.7 15.1 205.45 16.1 206.05 13.7 204.45 11.85 206.9 11.65 208.2 9.6 M235.9 7.0 L237.55 6.9 238.35 5.55 238.9 7.0 240.4 7.4 239.15 8.35 239.35 9.9 238.05 9.05 236.6 9.7 236.95 8.15 235.9 7.0 M314.45 72.1 L316.9 71.95 318.15 69.85 319.05 72.15 321.55 72.7 319.6 74.25 319.85 76.75 317.7 75.4 315.45 76.35 316.1 73.95 314.45 72.1 M280.65 52.35 L278.7 53.95 278.95 56.4 276.9 55.05 274.6 56.0 275.2 53.65 273.6 51.75 276.1 51.6 277.4 49.5 278.3 51.8 280.65 52.35 M276.6 35.15 L278.05 35.55 276.85 36.55 277.05 38.15 275.7 37.25 274.25 37.9 274.6 36.35 273.6 35.15 275.2 35.05 276.0 33.75 276.6 35.15 M265.6 18.35 Q266.05 18.95 266.0 19.6 265.95 20.3 265.4 20.8 264.85 21.25 264.15 21.2 263.45 21.15 262.95 20.6 262.5 20.0 262.55 19.3 262.6 18.65 263.15 18.15 263.75 17.7 264.45 17.75 265.15 17.8 265.6 18.35" fill="#ffffff" fill-opacity="0.4" fill-rule="evenodd" stroke="none"/>
    <path d="M277.4 86.2 L275.7 84.45 278.2 84.2 279.4 82.05 280.4 84.3 282.8 84.85 280.95 86.45 281.2 88.85 279.1 87.65 276.8 88.65 277.4 86.2 M324.65 119.8 L327.1 120.35 325.2 121.9 325.5 124.35 323.4 123.1 321.15 124.2 321.7 121.75 319.95 119.9 322.5 119.7 323.7 117.55 324.65 119.8 M380.05 52.75 L379.25 53.9 377.95 54.1 Q377.25 54.0 376.9 53.4 376.5 52.8 376.6 52.05 376.8 51.35 377.4 51.0 377.95 50.6 378.7 50.7 379.4 50.9 379.8 51.5 380.15 52.1 380.05 52.75 M342.35 85.4 L341.0 84.6 339.55 85.25 339.9 83.65 338.8 82.55 340.4 82.45 341.15 81.05 341.8 82.45 343.3 82.8 342.2 83.85 342.35 85.4 M340.5 54.45 Q341.2 54.6 341.55 55.2 341.95 55.75 341.85 56.5 341.65 57.2 341.05 57.6 L339.75 57.8 Q339.05 57.65 338.65 57.1 338.3 56.5 338.4 55.75 338.6 55.0 339.2 54.65 339.8 54.25 340.5 54.45 M362.9 47.2 L361.7 48.3 361.85 49.8 360.55 49.05 359.1 49.65 359.45 48.1 358.4 46.95 359.95 46.85 360.75 45.45 361.3 46.9 362.9 47.2 M341.6 28.0 L339.9 26.2 342.35 25.95 343.6 23.85 344.55 26.1 347.0 26.6 345.1 28.25 345.4 30.7 343.3 29.4 341.05 30.45 341.6 28.0 M324.6 36.2 L326.1 36.55 324.95 37.6 325.15 39.15 323.8 38.35 322.35 38.95 322.7 37.45 321.65 36.3 323.25 36.2 324.0 34.8 324.6 36.2 M381.5 21.35 L382.4 23.7 384.85 24.1 383.0 25.8 383.3 28.2 381.15 26.95 378.9 27.95 379.45 25.6 377.75 23.7 380.25 23.5 381.5 21.35 M370.2 17.2 L371.75 17.5 370.55 18.5 370.75 20.1 369.4 19.25 368.0 19.9 368.3 18.4 367.25 17.25 368.8 17.1 369.6 15.75 370.2 17.2" fill="#ffffff" fill-opacity="0.4" fill-rule="evenodd" stroke="none"/>
    <path d="M286.3 217.1 L285.2 218.0 280.55 218.0 279.25 216.5 281.7 216.3 283.0 214.25 283.9 216.5 286.3 217.1 M311.75 212.8 L310.7 211.65 312.35 211.55 313.15 210.2 313.7 211.65 315.2 212.05 313.95 213.0 314.15 214.55 312.85 213.7 311.4 214.35 311.75 212.8" fill="#ffffff" fill-opacity="0.4" fill-rule="evenodd" stroke="none"/>
    <path d="M37.75 102.35 L35.8 103.9 36.0 106.4 33.9 105.05 31.6 106.0 32.3 103.6 30.65 101.75 33.1 101.6 34.4 99.45 35.3 101.8 37.75 102.35 M70.55 113.7 Q70.0 114.15 69.25 114.1 68.55 114.05 68.1 113.5 67.65 112.95 67.7 112.25 67.75 111.55 68.3 111.05 68.85 110.65 69.55 110.7 70.3 110.75 70.75 111.25 71.2 111.85 71.15 112.55 71.1 113.25 70.55 113.7 M52.3 55.65 L54.8 55.5 56.1 53.4 57.0 55.7 59.35 56.25 57.4 57.85 57.65 60.3 55.6 58.95 53.3 59.9 53.9 57.55 52.3 55.65 M40.35 87.25 Q40.3 88.0 39.75 88.45 39.2 88.9 38.5 88.85 37.8 88.8 37.3 88.25 36.85 87.7 36.9 86.95 36.95 86.25 37.5 85.8 38.1 85.35 38.8 85.4 39.5 85.45 39.95 86.0 40.4 86.55 40.35 87.25 M27.15 47.7 L28.75 47.65 29.55 46.3 30.15 47.8 31.6 48.1 30.4 49.1 30.55 50.7 29.25 49.85 27.8 50.45 28.2 48.9 27.15 47.7 M24.6 32.25 L25.5 34.5 27.9 35.1 26.0 36.65 26.25 39.15 24.1 37.75 21.85 38.75 22.45 36.35 20.85 34.5 23.3 34.3 24.6 32.25 M48.35 48.1 Q49.0 48.15 49.5 48.65 49.95 49.2 49.9 49.9 49.85 50.65 49.3 51.1 L48.05 51.5 Q47.35 51.45 46.85 50.9 46.4 50.35 46.45 49.6 46.5 48.9 47.05 48.45 47.65 48.05 48.35 48.1 M53.95 29.55 L54.75 28.2 55.3 29.65 56.8 30.05 55.55 31.0 55.75 32.55 54.45 31.7 53.0 32.35 53.35 30.8 52.3 29.65 53.95 29.55 M83.15 65.8 L83.55 64.3 82.55 63.1 84.1 63.0 84.9 61.65 85.45 63.1 87.0 63.5 85.75 64.5 85.9 66.05 84.6 65.2 83.15 65.8 M84.9 55.85 L82.95 57.4 83.2 59.9 81.05 58.55 78.8 59.5 79.45 57.1 77.8 55.25 80.25 55.1 81.5 53.0 82.4 55.3 84.9 55.85 M93.45 60.8 L92.1 59.9 Q91.4 60.25 90.65 60.55 L91.0 59.0 90.0 57.8 91.6 57.7 92.4 56.4 93.0 57.8 94.45 58.2 93.25 59.2 93.45 60.8 M113.2 58.85 L113.45 61.3 111.35 59.95 109.05 60.95 109.7 58.5 108.1 56.65 110.55 56.55 111.8 54.4 112.75 56.7 115.15 57.3 113.2 58.85 M82.4 42.25 Q82.35 42.95 81.8 43.45 L80.55 43.85 Q79.85 43.8 79.35 43.25 78.9 42.65 78.95 41.95 79.0 41.3 79.55 40.8 80.15 40.35 80.85 40.4 81.55 40.45 82.0 41.0 82.45 41.6 82.4 42.25" fill="#ffffff" fill-opacity="0.4" fill-rule="evenodd" stroke="none"/>
    <path d="M53.6 91.05 L51.3 92.0 52.0 89.6 50.35 87.75 52.8 87.6 54.1 85.45 55.0 87.8 57.45 88.35 55.5 89.9 55.7 92.4 53.6 91.05 M59.65 72.0 Q60.1 72.55 60.05 73.25 60.0 74.0 59.45 74.45 58.9 74.9 58.2 74.85 57.5 74.8 57.0 74.25 56.55 73.7 56.6 72.95 56.65 72.25 57.2 71.8 57.8 71.35 58.5 71.4 59.2 71.45 59.65 72.0 M76.7 41.7 L79.05 42.25 77.1 43.85 77.35 46.3 75.3 44.95 73.0 45.9 73.6 43.55 72.0 41.65 74.5 41.5 75.8 39.4 76.7 41.7 M66.55 36.9 Q66.1 36.35 66.15 35.6 66.2 34.9 66.75 34.45 67.35 34.05 68.05 34.1 68.7 34.15 69.2 34.65 69.65 35.2 69.6 35.9 69.55 36.65 69.0 37.1 L67.75 37.5 Q67.05 37.45 66.55 36.9 M50.1 35.1 L50.25 36.7 48.95 35.85 47.5 36.45 47.9 34.9 46.85 33.7 48.45 33.65 49.25 32.3 49.85 33.8 51.3 34.1 50.1 35.1 M44.3 18.25 L45.2 20.5 47.6 21.1 45.7 22.65 45.95 25.15 43.8 23.75 41.55 24.75 42.15 22.35 40.55 20.5 43.0 20.3 44.3 18.25 M75.25 17.0 L75.45 18.55 74.15 17.7 72.7 18.35 73.05 16.8 72.0 15.65 73.65 15.55 74.45 14.2 75.0 15.65 76.5 16.05 75.25 17.0 M87.4 98.25 Q87.45 97.55 88.0 97.05 88.55 96.65 89.25 96.7 90.0 96.75 90.45 97.25 90.9 97.85 90.85 98.55 90.8 99.25 90.25 99.7 89.7 100.15 88.95 100.1 88.25 100.05 87.8 99.5 87.35 98.95 87.4 98.25 M110.7 45.0 L109.7 43.8 111.3 43.7 112.1 42.4 112.7 43.8 114.15 44.2 112.95 45.2 113.15 46.8 111.8 45.9 110.35 46.55 110.7 45.0 M102.25 49.1 L103.8 49.0 104.6 47.65 105.15 49.1 106.7 49.5 105.45 50.5 105.6 52.05 104.3 51.2 102.85 51.8 103.25 50.3 102.25 49.1 M99.15 43.1 L97.5 41.25 99.95 41.1 101.2 39.0 102.1 41.3 104.6 41.85 102.65 43.4 102.9 45.9 100.75 44.55 98.5 45.5 99.15 43.1 M100.25 29.85 Q99.55 29.8 99.05 29.25 98.6 28.65 98.65 27.95 98.7 27.3 99.25 26.8 99.85 26.35 100.55 26.4 101.25 26.45 101.7 27.0 102.15 27.6 102.1 28.25 102.05 28.95 101.5 29.45 100.95 29.9 100.25 29.85 M129.4 44.5 L127.8 42.65 130.25 42.55 131.5 40.4 132.45 42.7 134.85 43.3 132.9 44.85 133.15 47.3 131.05 45.95 128.75 46.95 129.4 44.5" fill="#ffffff" fill-opacity="0.4" fill-rule="evenodd" stroke="none"/>
    <path d="M396.3 179.8 L395.0 180.0 393.9 179.3 Q393.55 178.7 393.65 177.95 393.85 177.2 394.45 176.85 L395.75 176.65 Q396.45 176.8 396.8 177.4 397.2 177.95 397.1 178.7 396.9 179.4 396.3 179.8 M376.2 169.85 L376.85 171.25 378.35 171.6 377.25 172.65 377.4 174.2 376.05 173.4 374.6 174.05 374.95 172.45 373.85 171.35 375.45 171.25 376.2 169.85 M379.9 163.9 L380.1 165.45 378.75 164.65 377.3 165.25 377.65 163.75 376.6 162.6 378.2 162.5 378.95 161.1 379.55 162.5 381.05 162.85 379.9 163.9 M385.05 165.55 L386.25 163.4 387.2 165.65 389.65 166.2 387.75 167.75 388.05 170.2 385.95 168.95 383.7 170.05 384.25 167.6 382.5 165.75 385.05 165.55 M357.7 183.2 L360.2 182.95 361.4 180.8 362.4 183.05 364.8 183.6 362.95 185.2 363.2 187.6 361.1 186.4 358.8 187.4 359.4 184.95 357.7 183.2 M360.95 117.55 Q360.25 117.35 359.9 116.75 359.5 116.15 359.65 115.5 359.75 114.8 360.4 114.4 L361.7 114.15 362.75 114.9 Q363.1 115.5 363.0 116.2 362.85 116.9 362.25 117.25 L360.95 117.55 M397.95 100.5 L397.95 101.1 396.65 102.2 397.0 104.65 394.75 103.4 392.55 104.45 393.1 102.0 391.45 100.2 393.95 99.95 395.15 97.8 396.1 100.1 397.95 100.5" fill="#ffffff" fill-opacity="0.4" fill-rule="evenodd" stroke="none"/>
  </g>
</svg>
