<?xml version="1.0" encoding="UTF-8" standalone="no"?>
<svg xmlns:ffdec="https://www.free-decompiler.com/flash" xmlns:xlink="http://www.w3.org/1999/xlink" ffdec:objectType="shape" height="18.4px" width="14.55px" xmlns="http://www.w3.org/2000/svg">
  <g transform="matrix(1.0, 0.0, 0.0, 1.0, -6.9, -2.9)">
    <path d="M20.45 5.8 Q21.2 7.1 21.2 8.85 21.15 11.35 19.4 13.25 17.6 15.15 14.45 16.2 L19.05 16.1 20.7 16.0 20.7 19.85 20.75 21.05 10.75 20.95 7.45 20.95 7.3 18.1 7.25 16.05 7.25 15.25 Q9.8 14.5 11.6 13.55 13.4 12.6 14.35 11.45 15.3 10.3 15.3 9.05 L15.0 7.85 Q14.75 7.4 14.2 7.4 13.4 7.35 13.0 8.25 12.65 9.15 12.8 11.25 L11.35 11.25 7.2 11.25 Q6.85 7.25 8.7 5.2 10.6 3.15 14.45 3.15 16.8 3.15 18.25 3.85 19.75 4.55 20.45 5.8" fill="#8f24ad" fill-rule="evenodd" stroke="none"/>
    <path d="M20.45 5.8 Q19.75 4.55 18.25 3.85 16.8 3.15 14.45 3.15 10.6 3.15 8.7 5.2 6.85 7.25 7.2 11.25 L11.35 11.25 12.8 11.25 Q12.65 9.15 13.0 8.25 13.4 7.35 14.2 7.4 14.75 7.4 15.0 7.85 L15.3 9.05 Q15.3 10.3 14.35 11.45 13.4 12.6 11.6 13.55 9.8 14.5 7.25 15.25 L7.25 16.05 7.3 18.1 7.45 20.95 10.75 20.95 20.75 21.05 20.7 19.85 20.7 16.0 19.05 16.1 14.45 16.2 Q17.6 15.15 19.4 13.25 21.15 11.35 21.2 8.85 21.2 7.1 20.45 5.8 Z" ffdec:has-small-stroke="true" ffdec:original-stroke-width="0.5" fill="none" stroke="#000000" stroke-linecap="round" stroke-linejoin="round" stroke-width="1.0"/>
  </g>
</svg>
