<?xml version="1.0" encoding="UTF-8" standalone="no"?>
<svg xmlns:ffdec="https://www.free-decompiler.com/flash" xmlns:xlink="http://www.w3.org/1999/xlink" ffdec:objectType="shape" height="17.5px" width="14.0px" xmlns="http://www.w3.org/2000/svg">
  <g transform="matrix(1.0, 0.0, 0.0, 1.0, -7.15, -4.05)">
    <path d="M20.8 14.55 Q21.15 15.3 21.15 16.35 21.15 18.1 20.25 19.3 19.25 20.4 17.7 21.0 16.1 21.55 14.25 21.55 10.45 21.5 8.65 19.8 6.9 18.1 7.2 14.95 L8.0 15.0 10.05 15.1 12.85 15.2 Q12.7 16.5 13.05 17.0 13.45 17.55 14.2 17.5 L15.15 17.25 Q15.6 16.85 15.6 16.05 L15.35 15.15 14.65 14.65 13.4 14.4 11.7 14.45 11.7 13.6 11.55 11.05 13.25 11.05 14.5 10.75 15.25 10.3 15.5 9.4 Q15.5 8.65 15.15 8.3 14.85 7.9 14.25 7.9 13.45 7.9 13.05 8.55 12.75 9.15 12.85 10.35 L9.95 10.4 8.05 10.4 7.4 10.4 Q7.1 7.15 9.0 5.6 10.8 4.05 14.45 4.05 16.5 4.05 17.95 4.7 19.35 5.35 20.15 6.5 20.9 7.6 20.9 9.1 20.9 10.35 20.2 11.25 L18.3 12.5 Q19.1 12.75 19.75 13.25 L20.8 14.55" fill="#8f24ad" fill-rule="evenodd" stroke="none"/>
  </g>
</svg>
