<?xml version="1.0" encoding="UTF-8" standalone="no"?>
<svg xmlns:ffdec="https://www.free-decompiler.com/flash" xmlns:xlink="http://www.w3.org/1999/xlink" ffdec:objectType="shape" height="35.6px" width="35.4px" xmlns="http://www.w3.org/2000/svg">
  <g transform="matrix(1.0, 0.0, 0.0, 1.0, -75.8, -197.35)">
    <path d="M87.15 199.35 L88.5 211.2 77.8 216.65 89.6 219.1 91.5 230.95 97.35 220.55 109.2 222.35 101.15 213.45 106.5 202.8 95.65 207.8 87.15 199.35 Z" fill="none" stroke="#720000" stroke-linecap="round" stroke-linejoin="round" stroke-width="4.0"/>
    <path d="M106.5 202.8 L101.15 213.45 109.2 222.35 97.35 220.55 91.5 230.95 89.6 219.1 77.8 216.65 88.5 211.2 87.15 199.35 95.65 207.8 106.5 202.8" fill="#f30f0f" fill-rule="evenodd" stroke="none"/>
    <path d="M106.5 202.8 L95.65 207.8 87.15 199.35 88.5 211.2 77.8 216.65 89.6 219.1 91.5 230.95 97.35 220.55 109.2 222.35 101.15 213.45 106.5 202.8 Z" fill="none" stroke="#a60404" stroke-linecap="round" stroke-linejoin="round" stroke-width="1.5"/>
    <path d="M106.5 202.65 L95.65 207.65 87.15 199.2 88.5 211.05 77.8 216.5 89.6 218.95 91.5 230.8 97.35 220.4 109.2 222.2 101.15 213.3 106.5 202.65 Z" ffdec:has-small-stroke="true" ffdec:original-stroke-width="0.2" fill="none" stroke="#ff9a00" stroke-linecap="round" stroke-linejoin="round" stroke-width="1.0"/>
    <path d="M88.15 222.95 L87.15 223.45 85.9 224.0 85.4 223.05 84.05 220.15 81.95 215.75 83.15 215.1 84.1 214.6 Q86.25 213.55 87.8 213.9 89.25 214.2 90.05 216.0 90.55 217.15 90.4 218.1 90.25 219.05 89.55 219.85 88.8 220.65 87.7 221.1 L88.6 222.8 88.15 222.95 M88.9 212.4 Q89.55 211.9 90.15 211.55 90.85 211.1 91.4 210.85 93.35 209.95 94.75 210.3 96.15 210.6 96.9 212.15 97.25 213.05 97.2 213.8 97.1 214.6 96.65 215.2 L97.75 216.1 99.65 217.65 99.3 217.9 98.45 218.4 97.0 219.25 96.35 218.55 94.5 216.9 94.4 216.95 94.2 217.1 95.35 219.5 94.95 219.65 93.95 220.15 92.75 220.7 92.3 219.75 90.95 216.85 88.9 212.4 M102.95 212.85 L102.35 211.3 101.5 209.8 100.95 209.2 100.35 209.25 100.0 209.7 100.1 210.55 100.7 212.15 101.45 213.55 102.1 214.15 102.7 214.1 103.0 213.75 102.95 212.85 M103.75 207.75 Q104.55 208.6 105.25 210.0 105.95 211.6 105.95 212.75 105.95 213.9 105.3 214.85 104.75 215.65 103.6 216.1 L100.25 216.25 Q98.85 215.65 97.8 213.5 97.2 212.1 97.15 210.9 97.1 209.65 97.65 208.7 98.25 207.85 99.4 207.25 100.7 206.65 101.8 206.75 102.85 206.95 103.75 207.75 M86.75 219.2 L87.6 218.45 Q87.8 218.0 87.4 217.2 L86.7 216.35 85.75 216.3 85.65 216.35 85.45 216.4 85.75 217.15 86.75 219.2 M93.35 215.4 L94.35 214.65 Q94.6 214.2 94.35 213.55 L93.6 212.8 Q93.1 212.55 92.55 212.8 L92.45 212.85 92.25 213.05 92.8 214.2 93.25 215.0 93.35 215.4" fill="#ffffff" fill-rule="evenodd" stroke="none"/>
    <path d="M88.15 222.95 L88.6 222.8 M85.75 217.15 L85.45 216.4 M93.35 215.4 L93.25 215.0" fill="none" stroke="#3a0202" stroke-linecap="round" stroke-linejoin="round" stroke-width="1.5"/>
    <path d="M86.75 219.2 L85.75 217.15" fill="none" stroke="#000000" stroke-linecap="round" stroke-linejoin="round" stroke-width="2.5"/>
    <path d="M103.75 207.75 Q102.85 206.95 101.8 206.75 100.7 206.65 99.4 207.25 98.25 207.85 97.65 208.7 97.1 209.65 97.15 210.9 97.2 212.1 97.8 213.5 98.85 215.65 100.25 216.25 L103.6 216.1 Q104.75 215.65 105.3 214.85 105.95 213.9 105.95 212.75 105.95 211.6 105.25 210.0 104.55 208.6 103.75 207.75 M102.95 212.85 L103.0 213.75 102.7 214.1 102.1 214.15 101.45 213.55 100.7 212.15 100.1 210.55 100.0 209.7 100.35 209.25 100.95 209.2 101.5 209.8 102.35 211.3 102.95 212.85 M88.9 212.4 L90.95 216.85 92.3 219.75 92.75 220.7 93.95 220.15 94.95 219.65 95.35 219.5 94.2 217.1 94.4 216.95 94.5 216.9 96.35 218.55 97.0 219.25 98.45 218.4 99.3 217.9 99.65 217.65 97.75 216.1 96.65 215.2 Q97.1 214.6 97.2 213.8 97.25 213.05 96.9 212.15 96.15 210.6 94.75 210.3 93.35 209.95 91.4 210.85 90.85 211.1 90.15 211.55 89.55 211.9 88.9 212.4 M88.6 222.8 L87.7 221.1 Q88.8 220.65 89.55 219.85 90.25 219.05 90.4 218.1 90.55 217.15 90.05 216.0 89.25 214.2 87.8 213.9 86.25 213.55 84.1 214.6 L83.15 215.1 81.95 215.75 84.05 220.15 85.4 223.05 85.9 224.0 87.15 223.45 88.15 222.95 M85.45 216.4 L85.65 216.35 85.75 216.3 86.7 216.35 87.4 217.2 Q87.8 218.0 87.6 218.45 L86.75 219.2 M93.25 215.0 L92.8 214.2 92.25 213.05 92.45 212.85 92.55 212.8 Q93.1 212.55 93.6 212.8 L94.35 213.55 Q94.6 214.2 94.35 214.65 L93.35 215.4" fill="none" stroke="#3c0000" stroke-linecap="round" stroke-linejoin="round" stroke-width="2.5"/>
    <path d="M102.95 212.85 L102.35 211.3 101.5 209.8 100.95 209.2 100.35 209.25 100.0 209.7 100.1 210.55 100.7 212.15 101.45 213.55 102.1 214.15 102.7 214.1 103.0 213.75 102.95 212.85 M101.8 206.75 Q102.85 206.95 103.75 207.75 104.55 208.6 105.25 210.0 105.95 211.6 105.95 212.75 105.95 213.9 105.3 214.85 104.75 215.65 103.6 216.1 L100.25 216.25 Q98.85 215.65 97.8 213.5 97.2 212.1 97.15 210.9 97.1 209.65 97.65 208.7 98.25 207.85 99.4 207.25 100.7 206.65 101.8 206.75 M93.6 212.8 Q93.1 212.55 92.55 212.8 L92.45 212.85 92.25 213.05 92.8 214.2 93.25 215.0 93.35 215.4 94.35 214.65 Q94.6 214.2 94.35 213.55 L93.6 212.8 M85.75 216.3 L85.65 216.35 85.45 216.4 85.75 217.15 86.75 219.2 87.6 218.45 Q87.8 218.0 87.4 217.2 L86.7 216.35 85.75 216.3 M87.8 213.9 Q89.25 214.2 90.05 216.0 90.55 217.15 90.4 218.1 90.25 219.05 89.55 219.85 88.8 220.65 87.7 221.1 L88.6 222.8 88.15 222.95 87.15 223.45 85.9 224.0 85.4 223.05 84.05 220.15 81.95 215.75 83.15 215.1 84.1 214.6 Q86.25 213.55 87.8 213.9 M88.9 212.4 Q89.55 211.9 90.15 211.55 90.85 211.1 91.4 210.85 93.35 209.95 94.75 210.3 96.15 210.6 96.9 212.15 97.25 213.05 97.2 213.8 97.1 214.6 96.65 215.2 L97.75 216.1 99.65 217.65 99.3 217.9 98.45 218.4 97.0 219.25 96.35 218.55 94.5 216.9 94.4 216.95 94.2 217.1 95.35 219.5 94.95 219.65 93.95 220.15 92.75 220.7 92.3 219.75 90.95 216.85 88.9 212.4" fill="#ffffff" fill-rule="evenodd" stroke="none"/>
  </g>
</svg>
