<?xml version="1.0" encoding="UTF-8" standalone="no"?>
<svg xmlns:ffdec="https://www.free-decompiler.com/flash" xmlns:xlink="http://www.w3.org/1999/xlink" ffdec:objectType="shape" height="18.05px" width="15.1px" xmlns="http://www.w3.org/2000/svg">
  <g transform="matrix(1.0, 0.0, 0.0, 1.0, -6.5, -4.55)">
    <path d="M15.2 18.45 Q15.65 18.05 15.65 17.3 15.65 16.6 15.15 16.05 14.65 15.5 13.9 15.3 13.05 15.55 12.7 16.1 12.3 16.65 12.3 17.15 12.35 17.95 12.8 18.35 13.25 18.75 14.15 18.75 L15.2 18.45 M12.8 8.8 Q12.5 9.25 12.5 9.85 12.5 10.55 13.0 11.15 13.5 11.7 14.4 11.95 L15.3 11.15 15.65 10.0 Q15.65 9.2 15.2 8.8 14.8 8.4 14.05 8.4 13.15 8.45 12.8 8.8 M20.6 6.95 Q21.35 8.1 21.35 9.55 21.35 10.95 20.65 11.9 L18.55 13.55 Q19.95 13.95 20.8 14.95 21.6 15.85 21.6 17.25 21.55 19.25 20.55 20.4 19.6 21.6 17.9 22.1 L14.35 22.6 9.8 21.95 Q8.05 21.25 7.3 20.1 6.5 18.9 6.5 17.35 6.5 15.95 7.3 15.05 8.05 14.1 9.5 13.65 8.35 13.05 7.7 12.0 6.95 10.9 6.95 9.5 6.95 8.05 7.7 6.9 8.5 5.8 10.15 5.15 L14.2 4.55 Q16.55 4.55 18.15 5.2 19.75 5.85 20.6 6.95" fill="#8f24ad" fill-rule="evenodd" stroke="none"/>
  </g>
</svg>
