<?xml version="1.0" encoding="UTF-8" standalone="no"?>
<svg xmlns:ffdec="https://www.free-decompiler.com/flash" xmlns:xlink="http://www.w3.org/1999/xlink" ffdec:objectType="shape" height="84.75px" width="62.4px" xmlns="http://www.w3.org/2000/svg">
  <g transform="matrix(1.0, 0.0, 0.0, 1.0, 30.0, 40.2)">
    <path d="M29.25 -4.6 Q18.9 17.0 0.5 38.75 -9.85 50.45 -16.85 34.35 -27.05 0.0 -28.8 -15.15 -30.6 -30.25 -20.7 -36.0 1.35 -44.15 19.1 -32.25 36.8 -20.35 29.25 -4.6 M26.55 -15.1 L26.65 -15.1 26.65 -15.85 Q27.0 -21.5 20.6 -26.6 L20.0 -27.05 Q13.25 -32.2 3.1 -33.9 -7.15 -35.65 -15.05 -33.1 L-15.75 -32.85 Q-23.9 -30.0 -24.8 -24.05 L-24.85 -21.85 Q-24.4 -17.05 -18.8 -12.6 -11.95 -7.1 -1.25 -5.3 9.35 -3.5 17.5 -6.35 25.65 -9.25 26.55 -15.1" fill="#bd3232" fill-rule="evenodd" stroke="none"/>
    <path d="M26.65 -15.85 L26.55 -15.1 Q25.65 -9.25 17.5 -6.35 9.35 -3.5 -1.25 -5.3 -11.95 -7.1 -18.8 -12.6 -24.4 -17.05 -24.85 -21.85 L-24.8 -24.05 Q-23.9 -30.0 -15.75 -32.85 L-15.05 -33.1 Q-7.15 -35.65 3.1 -33.9 13.25 -32.2 20.0 -27.05 L20.6 -26.6 Q27.0 -21.5 26.65 -15.85" fill="#e63232" fill-rule="evenodd" stroke="none"/>
    <path d="M29.25 -4.6 Q18.9 17.0 0.5 38.75 -9.85 50.45 -16.85 34.35 -27.05 0.0 -28.8 -15.15 -30.6 -30.25 -20.7 -36.0 1.35 -44.15 19.1 -32.25 36.8 -20.35 29.25 -4.6 Z" fill="none" stroke="#323232" stroke-linecap="round" stroke-linejoin="round" stroke-width="1.8"/>
  </g>
</svg>
