<?xml version="1.0" encoding="UTF-8" standalone="no"?>
<svg xmlns:ffdec="https://www.free-decompiler.com/flash" xmlns:xlink="http://www.w3.org/1999/xlink" ffdec:objectType="shape" height="29.75px" width="81.9px" xmlns="http://www.w3.org/2000/svg">
  <g transform="matrix(1.0, 0.0, 0.0, 1.0, 50.05, 43.65)">
    <path d="M26.05 -24.25 Q26.25 -22.4 24.8 -21.85 22.55 -20.95 12.55 -21.8 2.55 -22.7 -7.75 -21.7 -18.1 -20.7 -19.8 -21.55 -21.4 -22.35 -21.05 -24.35 L-20.85 -25.3 -16.6 -28.05 Q-4.6 -34.75 8.85 -31.25 17.05 -29.15 22.85 -23.95 L26.05 -24.25 M19.35 -23.2 L21.2 -23.5 22.85 -23.95 21.2 -23.5 19.35 -23.2" fill="#e63232" fill-rule="evenodd" stroke="none"/>
    <path d="M-20.85 -25.3 L-21.05 -24.35 Q-21.4 -22.35 -19.8 -21.55 -18.1 -20.7 -7.75 -21.7 2.55 -22.7 12.55 -21.8 22.55 -20.95 24.8 -21.85 26.25 -22.4 26.05 -24.25 L27.4 -24.1 Q30.35 -23.55 30.6 -21.0 30.8 -18.45 27.75 -18.35 -3.35 -23.15 -29.15 -15.3 -33.1 -14.65 -32.05 -17.15 -31.05 -19.7 -26.4 -19.85 L-25.2 -21.35 -24.35 -22.2 -20.85 -25.3" fill="#bd3232" fill-rule="evenodd" stroke="none"/>
    <path d="M-20.85 -25.3 L-24.35 -22.2 -25.2 -21.35 -26.4 -19.85 Q-31.05 -19.7 -32.05 -17.15 -33.1 -14.65 -29.15 -15.3 -3.35 -23.15 27.75 -18.35 30.8 -18.45 30.6 -21.0 30.35 -23.55 27.4 -24.1 L26.05 -24.25 22.85 -23.95 21.2 -23.5 19.35 -23.2 M22.85 -23.95 Q17.05 -29.15 8.85 -31.25 -4.6 -34.75 -16.6 -28.05 L-20.85 -25.3" fill="none" stroke="#323232" stroke-linecap="round" stroke-linejoin="round" stroke-width="2.5"/>
    <path d="M-26.15 -42.4 Q-26.65 -39.65 -24.2 -34.8 -21.75 -30.0 -15.2 -25.2 -8.75 -20.35 -3.2 -19.85 L-16.3 -18.05 Q-20.4 -17.85 -27.4 -18.0 -34.45 -18.2 -40.25 -22.9 -46.05 -27.65 -48.8 -35.35 M-3.2 -19.85 Q-15.25 -20.1 -21.05 -22.55 -26.9 -25.0 -32.0 -29.9 -37.1 -34.85 -39.15 -40.7" fill="none" stroke="#323232" stroke-linecap="round" stroke-linejoin="round" stroke-width="2.5"/>
  </g>
</svg>
