<?xml version="1.0" encoding="UTF-8" standalone="no"?>
<svg xmlns:ffdec="https://www.free-decompiler.com/flash" xmlns:xlink="http://www.w3.org/1999/xlink" ffdec:objectType="shape" height="102.35px" width="94.0px" xmlns="http://www.w3.org/2000/svg">
  <g transform="matrix(1.0, 0.0, 0.0, 1.0, -125.4, -16.95)">
    <path d="M209.95 117.25 L210.05 117.55 Q208.4 117.5 206.55 115.35 208.25 117.25 209.95 117.25" fill="#e4ddb1" fill-rule="evenodd" stroke="none"/>
    <path d="M130.05 20.5 L129.95 20.6 129.9 20.6 130.05 20.5" fill="#e1c92c" fill-rule="evenodd" stroke="none"/>
    <path d="M130.2 20.45 L130.15 20.5 130.1 20.45 130.15 20.45 130.15 20.5 130.2 20.45" fill="#ceaa1a" fill-rule="evenodd" stroke="none"/>
    <path d="M129.95 20.6 L136.9 27.0 155.4 43.7 Q171.35 58.6 184.25 74.15 197.1 89.75 210.25 110.6 L213.15 115.6 Q211.55 117.25 209.95 117.25 208.25 117.25 206.55 115.35 L205.1 113.45 Q177.05 69.8 127.15 22.55 128.35 21.55 129.65 20.75 129.7 20.7 129.9 20.6 L129.95 20.6" fill="#bd3232" fill-rule="evenodd" stroke="none"/>
    <path d="M133.5 18.7 L133.9 19.05 Q166.0 46.3 178.15 59.4 193.9 76.55 208.15 95.1 L215.75 105.35 217.05 108.2 Q217.9 110.3 217.55 112.3 217.15 114.3 214.65 116.0 212.25 117.65 210.05 117.55 L209.95 117.25 Q211.55 117.25 213.15 115.6 L210.25 110.6 Q197.1 89.75 184.25 74.15 171.35 58.6 155.4 43.7 L136.9 27.0 129.95 20.6 130.05 20.5 130.1 20.5 130.05 20.35 130.15 20.45 130.1 20.45 130.15 20.5 130.2 20.45 131.6 19.45 133.5 18.7" fill="#e63232" fill-rule="evenodd" stroke="none"/>
    <path d="M210.05 117.55 Q212.25 117.65 214.65 116.0 217.15 114.3 217.55 112.3 217.9 110.3 217.05 108.2 L215.75 105.35 208.15 95.1 Q193.9 76.55 178.15 59.4 166.0 46.3 133.9 19.05 L133.5 18.7 M210.05 117.55 Q208.4 117.5 206.55 115.35 L205.1 113.45 Q177.05 69.8 127.15 22.55" fill="none" stroke="#323232" stroke-linecap="round" stroke-linejoin="round" stroke-width="3.5"/>
  </g>
</svg>
