<?xml version="1.0" encoding="UTF-8" standalone="no"?>
<svg xmlns:ffdec="https://www.free-decompiler.com/flash" xmlns:xlink="http://www.w3.org/1999/xlink" ffdec:objectType="shape" height="44.3px" width="74.9px" xmlns="http://www.w3.org/2000/svg">
  <g transform="matrix(1.0, 0.0, 0.0, 1.0, -2.85, -5.2)">
    <path d="M7.85 12.15 L6.75 15.1 Q6.05 18.2 5.95 21.95 6.2 33.45 12.45 38.6 18.4 43.55 30.3 44.1 L49.8 44.1 50.8 44.1 55.55 44.1 Q68.15 43.75 74.35 38.6 L75.9 37.2 76.15 36.95 75.65 38.25 Q74.0 41.7 71.25 43.95 65.05 49.15 52.45 49.5 L28.2 49.5 Q15.55 49.15 9.35 43.95 3.05 38.85 2.85 27.35 3.0 17.6 7.6 12.4 L7.85 12.15" fill="#2991e2" fill-rule="evenodd" stroke="none"/>
    <path d="M76.15 36.95 L75.9 37.2 74.35 38.6 Q68.15 43.75 55.55 44.1 L50.8 44.1 49.8 44.1 30.3 44.1 Q18.4 43.55 12.45 38.6 6.2 33.45 5.95 21.95 6.05 18.2 6.75 15.1 L7.85 12.15 9.35 10.75 Q15.55 5.55 28.2 5.2 L52.45 5.2 Q65.05 5.55 71.25 10.75 77.55 15.85 77.75 27.35 77.65 32.9 76.15 36.95" fill="#56b5ff" fill-rule="evenodd" stroke="none"/>
    <path d="M49.8 44.1 L49.8 5.2 52.45 5.2 Q65.05 5.55 71.25 10.75 77.55 15.85 77.75 27.35 77.65 32.9 76.15 36.95 L75.9 37.2 74.35 38.6 Q68.15 43.75 55.55 44.1 L50.8 44.1 49.8 44.1 M7.85 12.15 L9.35 10.75 Q15.55 5.55 28.2 5.2 L30.3 5.2 30.3 44.1 Q18.4 43.55 12.45 38.6 6.2 33.45 5.95 21.95 6.05 18.2 6.75 15.1 L7.85 12.15" fill="#56b5ff" fill-rule="evenodd" stroke="none"/>
    <path d="M76.15 36.95 L75.65 38.25 Q74.0 41.7 71.25 43.95 65.05 49.15 52.45 49.5 L49.8 49.5 49.8 44.1 50.8 44.1 55.55 44.1 Q68.15 43.75 74.35 38.6 L75.9 37.2 76.15 36.95 M30.3 44.1 L30.3 49.5 28.2 49.5 Q15.55 49.15 9.35 43.95 3.05 38.85 2.85 27.35 3.0 17.6 7.6 12.4 L7.85 12.15 6.75 15.1 Q6.05 18.2 5.95 21.95 6.2 33.45 12.45 38.6 18.4 43.55 30.3 44.1" fill="#2991e2" fill-rule="evenodd" stroke="none"/>
  </g>
</svg>
