<?xml version="1.0" encoding="UTF-8" standalone="no"?>
<svg xmlns:ffdec="https://www.free-decompiler.com/flash" xmlns:xlink="http://www.w3.org/1999/xlink" ffdec:objectType="shape" height="176.55px" width="233.1px" xmlns="http://www.w3.org/2000/svg">
  <g transform="matrix(1.0, 0.0, 0.0, 1.0, 16.3, 12.8)">
    <path d="M-8.55 -1.9 L-13.55 161.0 -5.25 159.95 204.8 159.95" fill="none" stroke="#000000" stroke-linecap="round" stroke-linejoin="round" stroke-opacity="0.2" stroke-width="5.5"/>
    <path d="M204.9 -2.5 L11.05 -2.5 7.65 147.45 198.4 147.45 204.9 -2.5 M1.65 -11.55 L215.55 -11.55 206.6 157.25 -3.45 157.25 1.65 -11.55" fill="url(#gradient0)" fill-rule="evenodd" stroke="none"/>
    <path d="M204.9 -2.5 L198.4 147.45 7.65 147.45 11.05 -2.5 204.9 -2.5" fill="url(#gradient1)" fill-rule="evenodd" stroke="none"/>
    <path d="M1.65 -11.55 L-3.45 157.25 -11.75 158.3 -6.75 -4.6 1.65 -11.55" fill="url(#gradient2)" fill-rule="evenodd" stroke="none"/>
    <path d="M215.55 -11.55 L1.65 -11.55 -6.75 -4.6" fill="none" stroke="#ffc06d" stroke-linecap="round" stroke-linejoin="round" stroke-width="2.5"/>
    <path d="M206.6 157.25 L215.55 -11.55" fill="none" stroke="#e77121" stroke-linecap="round" stroke-linejoin="round" stroke-width="2.5"/>
    <path d="M-3.45 157.25 L206.6 157.25 M-6.75 -4.6 L-11.75 158.3 -3.45 157.25" fill="none" stroke="#aa3700" stroke-linecap="round" stroke-linejoin="round" stroke-width="2.5"/>
  </g>
  <defs>
    <radialGradient cx="0" cy="0" gradientTransform="matrix(0.2504, 0.0, 0.0, 0.2504, 105.15, 38.85)" gradientUnits="userSpaceOnUse" id="gradient0" r="819.2" spreadMethod="pad">
      <stop offset="0.043137254901960784" stop-color="#ffb038"/>
      <stop offset="1.0" stop-color="#fd8b13"/>
    </radialGradient>
    <radialGradient cx="0" cy="0" gradientTransform="matrix(0.2504, 0.0, 0.0, 0.2504, 105.15, 38.85)" gradientUnits="userSpaceOnUse" id="gradient1" r="819.2" spreadMethod="pad">
      <stop offset="0.043137254901960784" stop-color="#ffbd5b"/>
      <stop offset="1.0" stop-color="#ff9a31"/>
    </radialGradient>
    <linearGradient gradientTransform="matrix(7.0E-4, 0.0988, -0.1037, 5.0E-4, -5.05, 73.35)" gradientUnits="userSpaceOnUse" id="gradient2" spreadMethod="pad" x1="-819.2" x2="819.2">
      <stop offset="0.10588235294117647" stop-color="#e76300"/>
      <stop offset="0.9411764705882353" stop-color="#d85700"/>
    </linearGradient>
  </defs>
</svg>
