<?xml version="1.0" encoding="UTF-8" standalone="no"?>
<svg xmlns:ffdec="https://www.free-decompiler.com/flash" xmlns:xlink="http://www.w3.org/1999/xlink" ffdec:objectType="shape" height="117.65px" width="117.65px" xmlns="http://www.w3.org/2000/svg">
  <g transform="matrix(1.0, 0.0, 0.0, 1.0, -7.6, -42.4)">
    <path d="M116.0 44.4 L16.85 44.4 Q9.6 44.4 9.6 51.65 L9.6 150.8 Q9.6 158.05 16.85 158.05 L116.0 158.05 Q123.25 158.05 123.25 150.8 L123.25 51.65 Q123.25 44.4 116.0 44.4 Z" fill="none" stroke="#e95811" stroke-linecap="round" stroke-linejoin="round" stroke-width="4.0"/>
    <path d="M114.6 46.0 L18.25 46.0 Q11.2 46.0 11.2 53.05 L11.2 149.45 Q11.2 156.45 18.25 156.45 L114.6 156.45 Q121.65 156.45 121.65 149.45 L121.65 53.05 Q121.65 46.0 114.6 46.0 Z" fill="none" stroke="#b83d01" stroke-linecap="round" stroke-linejoin="round" stroke-width="1.0"/>
    <path d="M113.05 47.8 L19.85 47.8 Q15.95 47.8 14.45 49.3 12.95 50.85 13.0 54.65 L13.0 147.9 Q13.1 151.85 14.45 153.25 15.85 154.65 19.85 154.65 L113.05 154.65 Q117.1 154.65 118.55 153.15 119.9 151.7 119.85 147.9 L119.85 54.65 Q120.05 50.85 118.4 49.2 116.8 47.65 113.05 47.8 Z" fill="none" stroke="#000000" stroke-linecap="round" stroke-linejoin="round" stroke-opacity="0.21960784" stroke-width="3.0"/>
    <path d="M116.0 44.4 L16.85 44.4 Q9.6 44.4 9.6 51.65 L9.6 150.8 Q9.6 158.05 16.85 158.05 L116.0 158.05 Q123.25 158.05 123.25 150.8 L123.25 51.65 Q123.25 44.4 116.0 44.4 Z" fill="none" stroke="#ffffff" stroke-linecap="round" stroke-linejoin="round" stroke-opacity="0.36078432" stroke-width="1.0"/>
  </g>
</svg>
