<?xml version="1.0" encoding="UTF-8" standalone="no"?>
<svg xmlns:ffdec="https://www.free-decompiler.com/flash" xmlns:xlink="http://www.w3.org/1999/xlink" ffdec:objectType="shape" height="3.4px" width="10.35px" xmlns="http://www.w3.org/2000/svg">
  <g transform="matrix(1.0, 0.0, 0.0, 1.0, -71.25, -1.6)">
    <path d="M80.55 2.1 Q81.6 2.6 81.6 3.3 81.6 4.0 80.55 4.5 L78.15 5.0 75.7 4.5 Q74.75 4.0 74.75 3.3 74.75 2.6 75.7 2.1 76.75 1.6 78.15 1.6 79.6 1.6 80.55 2.1 M72.5 2.45 Q73.0 2.45 73.35 2.75 73.75 3.1 73.75 3.55 L73.35 4.3 Q73.0 4.65 72.5 4.65 72.0 4.65 71.6 4.3 71.25 4.0 71.25 3.55 71.25 3.1 71.6 2.75 72.0 2.45 72.5 2.45" fill="#ffffff" fill-rule="evenodd" stroke="none"/>
  </g>
</svg>
