<?xml version="1.0" encoding="UTF-8" standalone="no"?>
<svg xmlns:ffdec="https://www.free-decompiler.com/flash" xmlns:xlink="http://www.w3.org/1999/xlink" ffdec:objectType="shape" height="39.4px" width="38.75px" xmlns="http://www.w3.org/2000/svg">
  <g transform="matrix(1.0, 0.0, 0.0, 1.0, 18.1, 20.35)">
    <path d="M4.05 -19.6 L8.5 -7.75 19.9 -2.2 9.9 5.75 8.05 18.3 -2.45 11.35 -14.95 13.4 -11.45 1.25 -17.35 -10.1 -4.6 -10.5 4.05 -19.6" fill="url(#gradient0)" fill-rule="evenodd" stroke="none"/>
    <path d="M-11.45 1.25 L-14.95 13.4 M19.9 -2.2 L8.5 -7.75" fill="none" stroke="#efefef" stroke-linecap="round" stroke-linejoin="round" stroke-width="1.5"/>
    <path d="M8.5 -7.75 L4.05 -19.6" fill="none" stroke="#a6a6a6" stroke-linecap="round" stroke-linejoin="round" stroke-width="1.5"/>
    <path d="M-2.45 11.35 L8.05 18.3 9.9 5.75 19.9 -2.2" fill="none" stroke="#999999" stroke-linecap="round" stroke-linejoin="round" stroke-width="1.5"/>
    <path d="M4.05 -19.6 L-4.6 -10.5 -17.35 -10.1" fill="none" stroke="#ffffff" stroke-linecap="round" stroke-linejoin="round" stroke-width="1.5"/>
    <path d="M-14.95 13.4 L-2.45 11.35" fill="none" stroke="#8f8f8f" stroke-linecap="round" stroke-linejoin="round" stroke-width="1.5"/>
    <path d="M-17.35 -10.1 L-11.45 1.25" fill="none" stroke="#b1b1b1" stroke-linecap="round" stroke-linejoin="round" stroke-width="1.5"/>
  </g>
  <defs>
    <linearGradient gradientTransform="matrix(0.0126, 0.0126, -0.0163, 0.0164, -0.3, -0.8)" gradientUnits="userSpaceOnUse" id="gradient0" spreadMethod="pad" x1="-819.2" x2="819.2">
      <stop offset="0.0" stop-color="#ffffff"/>
      <stop offset="0.5333333333333333" stop-color="#999999"/>
      <stop offset="1.0" stop-color="#eeeeee"/>
    </linearGradient>
  </defs>
</svg>
