<?xml version="1.0" encoding="UTF-8" standalone="no"?>
<svg xmlns:ffdec="https://www.free-decompiler.com/flash" xmlns:xlink="http://www.w3.org/1999/xlink" ffdec:objectType="shape" height="17.45px" width="51.6px" xmlns="http://www.w3.org/2000/svg">
  <g transform="matrix(1.0, 0.0, 0.0, 1.0, 0.2, 0.35)">
    <path d="M49.7 3.75 Q51.4 6.05 51.4 9.3 51.4 12.5 49.7 14.8 47.9 17.1 45.65 17.1 L5.55 17.1 Q3.15 17.1 1.45 14.8 -0.2 12.5 -0.2 9.3 -0.2 6.05 1.45 3.75 3.15 1.45 5.55 1.45 L45.65 1.45 Q47.9 1.45 49.7 3.75" fill="#000000" fill-opacity="0.2" fill-rule="evenodd" stroke="none"/>
    <path d="M48.65 2.25 Q50.3 4.35 50.3 7.35 50.3 10.35 48.65 12.45 46.9 14.55 44.7 14.55 L6.45 14.55 Q4.1 14.55 2.45 12.45 0.85 10.35 0.85 7.35 0.85 4.35 2.45 2.25 4.1 0.15 6.45 0.15 L44.7 0.15 Q46.9 0.15 48.65 2.25" fill="#990000" fill-rule="evenodd" stroke="none"/>
    <path d="M15.95 0.25 L44.75 0.25 Q46.95 0.25 48.7 2.4 50.35 4.5 50.35 7.5 50.35 10.45 48.7 12.6 46.95 14.7 44.75 14.7 L15.95 14.7 15.95 0.25" fill="url(#gradient0)" fill-rule="evenodd" stroke="none"/>
    <path d="M15.95 0.25 L15.95 14.7 6.25 14.7 Q3.9 14.7 2.25 12.6 0.65 10.45 0.65 7.5 0.65 4.5 2.25 2.4 3.9 0.25 6.25 0.25 L15.95 0.25" fill="url(#gradient1)" fill-rule="evenodd" stroke="none"/>
    <path d="M15.95 14.7 L44.75 14.7 Q46.95 14.7 48.7 12.6 50.35 10.45 50.35 7.5 50.35 4.5 48.7 2.4 46.95 0.25 44.75 0.25 L15.95 0.25 6.25 0.25 Q3.9 0.25 2.25 2.4 0.65 4.5 0.65 7.5 0.65 10.45 2.25 12.6 3.9 14.7 6.25 14.7 L15.95 14.7 Z" fill="none" stroke="#009900" stroke-linecap="round" stroke-linejoin="round" stroke-width="1.2000000000000002"/>
    <path d="M50.35 8.1 L50.05 6.35 Q49.65 4.85 48.7 3.65 46.95 1.5 44.75 1.5 L6.25 1.5 Q3.9 1.5 2.25 3.65 0.65 5.75 0.65 8.75" fill="none" stroke="#000000" stroke-linecap="round" stroke-linejoin="round" stroke-opacity="0.2" stroke-width="1.2000000000000002"/>
  </g>
  <defs>
    <linearGradient gradientTransform="matrix(1.0E-4, 0.0159, -0.0088, 0.0, 16.65, 10.3)" gradientUnits="userSpaceOnUse" id="gradient0" spreadMethod="pad" x1="-819.2" x2="819.2">
      <stop offset="0.00784313725490196" stop-color="#990000"/>
      <stop offset="0.21176470588235294" stop-color="#ff0000"/>
      <stop offset="0.7372549019607844" stop-color="#990000"/>
    </linearGradient>
    <linearGradient gradientTransform="matrix(1.0E-4, 0.0159, -0.0088, 0.0, 34.65, 10.3)" gradientUnits="userSpaceOnUse" id="gradient1" spreadMethod="pad" x1="-819.2" x2="819.2">
      <stop offset="0.00784313725490196" stop-color="#990000"/>
      <stop offset="0.21176470588235294" stop-color="#ff0000"/>
      <stop offset="0.7372549019607844" stop-color="#990000"/>
    </linearGradient>
  </defs>
</svg>
