<?xml version="1.0" encoding="UTF-8" standalone="no"?>
<svg xmlns:ffdec="https://www.free-decompiler.com/flash" xmlns:xlink="http://www.w3.org/1999/xlink" ffdec:objectType="shape" height="41.0px" width="108.45px" xmlns="http://www.w3.org/2000/svg">
  <g transform="matrix(1.0, 0.0, 0.0, 1.0, 4.15, 4.3)">
    <path d="M16.85 -1.8 Q9.2 -1.8 3.75 3.45 -1.65 8.75 -1.65 16.2 L-1.65 16.75 Q-1.5 21.5 0.9 25.35 2.05 27.25 3.75 28.9 9.2 34.2 16.85 34.2 L83.25 34.2 Q90.95 34.2 96.35 28.9 101.6 23.85 101.8 16.75 L101.8 16.2 Q101.8 8.75 96.35 3.45 90.95 -1.8 83.25 -1.8 L16.85 -1.8 Z" fill="none" stroke="#69c8f3" stroke-linecap="round" stroke-linejoin="round" stroke-width="5.0"/>
    <path d="M97.15 8.85 L94.85 6.1 Q89.75 1.15 82.5 1.15 L20.05 1.15 Q12.85 1.15 7.7 6.1 2.6 11.1 2.6 18.15 L2.6 18.75 Q2.7 22.3 4.2 25.35 L4.45 25.8" fill="none" stroke="#0f89bd" stroke-linecap="round" stroke-linejoin="round" stroke-width="3.0"/>
    <path d="M18.85 -0.85 Q11.65 -0.85 6.5 4.1 1.4 9.1 1.4 16.15 L1.4 16.75 Q1.55 21.55 4.2 25.35 L6.5 28.1 Q11.65 33.1 18.85 33.1 L81.3 33.1 Q88.55 33.1 93.65 28.1 98.55 23.35 98.75 16.75 L98.75 16.15 Q98.75 9.1 93.65 4.1 88.55 -0.85 81.3 -0.85 L18.85 -0.85 Z" fill="none" stroke="#13abec" stroke-linecap="round" stroke-linejoin="round" stroke-width="3.0"/>
  </g>
</svg>
