<?xml version="1.0" encoding="UTF-8" standalone="no"?>
<svg xmlns:ffdec="https://www.free-decompiler.com/flash" xmlns:xlink="http://www.w3.org/1999/xlink" ffdec:objectType="shape" height="15.8px" width="102.55px" xmlns="http://www.w3.org/2000/svg">
  <g transform="matrix(1.0, 0.0, 0.0, 1.0, 2.6, 1.65)">
    <path d="M94.9 -0.55 L96.85 1.1 Q97.55 1.95 97.3 2.4 L95.95 2.55 Q94.85 2.35 93.6 1.55 92.3 0.8 91.65 -0.1 90.9 -0.95 91.2 -1.4 L92.55 -1.55 94.9 -0.55 M99.45 4.1 L99.95 5.25 Q100.0 5.85 99.65 6.1 L98.75 6.15 97.8 5.4 97.3 4.25 Q97.25 3.7 97.6 3.4 L98.5 3.35 Q99.0 3.55 99.45 4.1 M0.3 8.7 L-0.3 9.1 -0.9 8.7 -1.15 7.85 -0.9 6.95 Q-0.65 6.6 -0.3 6.6 0.05 6.6 0.3 6.95 L0.55 7.85 0.3 8.7 M-2.25 10.4 Q-1.85 9.75 -1.3 9.75 -0.75 9.75 -0.4 10.4 0.0 11.05 0.0 11.95 0.0 12.85 -0.4 13.5 -0.75 14.15 -1.3 14.15 -1.85 14.15 -2.25 13.5 -2.6 12.85 -2.6 11.95 -2.6 11.05 -2.25 10.4" fill="#d8f1fc" fill-rule="evenodd" stroke="none"/>
  </g>
</svg>
