<?xml version="1.0" encoding="UTF-8" standalone="no"?>
<svg xmlns:ffdec="https://www.free-decompiler.com/flash" xmlns:xlink="http://www.w3.org/1999/xlink" ffdec:objectType="shape" height="76.0px" width="91.0px" xmlns="http://www.w3.org/2000/svg">
  <g transform="matrix(1.0, 0.0, 0.0, 1.0, 3.0, 3.0)">
    <path d="M81.0 21.7 L81.0 48.3 Q81.0 66.0 62.9 66.0 L22.15 66.0 Q4.0 66.0 4.0 48.3 L4.0 21.7 Q4.0 4.0 22.15 4.0 L62.9 4.0 Q81.0 4.0 81.0 21.7" fill="#ffffff" fill-rule="evenodd" stroke="none"/>
    <path d="M81.6 24.55 Q81.6 7.4 64.05 7.4 L24.55 7.4 Q6.95 7.4 6.95 24.55 L6.95 50.35 Q6.95 67.5 24.55 67.5 L64.05 67.5 Q81.6 67.5 81.6 50.35 L81.6 24.55 Z" fill="none" stroke="#d8f1fc" stroke-linecap="round" stroke-linejoin="round" stroke-width="4.0"/>
    <path d="M85.0 20.0 Q85.0 0.0 65.0 0.0 L20.0 0.0 Q0.0 0.0 0.0 20.0 L0.0 50.0 Q0.0 70.0 20.0 70.0 L65.0 70.0 Q85.0 70.0 85.0 50.0 L85.0 20.0 Z" fill="none" stroke="#69c8f3" stroke-linecap="round" stroke-linejoin="round" stroke-width="6.0"/>
    <path d="M7.2 60.15 Q11.3 67.75 23.2 67.75 L63.95 67.75 Q82.05 67.75 82.05 50.05 L82.05 23.45 Q82.05 16.2 79.0 11.9" fill="none" stroke="#0f89bd" stroke-linecap="round" stroke-linejoin="round" stroke-width="4.0"/>
    <path d="M81.0 21.7 Q81.0 4.0 62.9 4.0 L22.15 4.0 Q4.0 4.0 4.0 21.7 L4.0 48.3 Q4.0 66.0 22.15 66.0 L62.9 66.0 Q81.0 66.0 81.0 48.3 L81.0 21.7 Z" fill="none" stroke="#13abec" stroke-linecap="round" stroke-linejoin="round" stroke-width="4.0"/>
    <path d="M11.6 -1.65 L15.2 -1.9 Q16.75 -1.65 17.0 -0.75 17.25 0.15 16.0 1.2 14.8 2.2 12.8 2.75 L9.2 3.0 Q7.65 2.7 7.4 1.8 7.15 0.9 8.4 -0.1 9.6 -1.15 11.6 -1.65 M82.1 7.2 L80.55 7.3 Q79.4 6.95 78.35 5.9 77.3 4.85 76.95 3.7 76.6 2.65 77.05 2.1 77.6 1.55 78.7 1.9 79.85 2.3 80.9 3.4 81.95 4.4 82.3 5.55 82.7 6.65 82.1 7.2 M6.15 4.7 Q6.15 5.4 5.6 5.9 5.05 6.4 4.3 6.4 3.55 6.4 3.0 5.9 2.45 5.4 2.45 4.7 2.45 4.0 3.0 3.5 3.55 3.0 4.3 3.0 5.05 3.0 5.6 3.5 6.15 4.0 6.15 4.7" fill="#d8f1fc" fill-rule="evenodd" stroke="none"/>
  </g>
</svg>
