<?xml version="1.0" encoding="UTF-8" standalone="no"?>
<svg xmlns:ffdec="https://www.free-decompiler.com/flash" xmlns:xlink="http://www.w3.org/1999/xlink" ffdec:objectType="shape" height="121.3px" width="307.95px" xmlns="http://www.w3.org/2000/svg">
  <g transform="matrix(1.0, 0.0, 0.0, 1.0, 2.55, 2.6)">
    <path d="M301.7 5.15 L297.75 110.7 284.8 108.7 283.05 88.85 277.2 103.6 273.0 107.35 269.5 106.9 265.75 98.5 246.2 104.6 Q168.55 94.7 94.85 101.5 L63.55 98.6 51.75 105.8 5.25 112.35 1.05 1.15 1.8 1.2 10.0 2.1 11.0 6.2 8.3 5.85 14.05 21.2 18.3 6.05 19.9 6.15 26.2 10.45 34.25 6.75 Q123.5 14.8 226.55 9.25 L232.6 11.8 240.65 11.2 241.85 8.35 249.25 7.5 261.15 10.95 283.65 5.4 301.7 5.15" fill="url(#gradient0)" fill-rule="evenodd" stroke="none"/>
    <path d="M0.1 -1.0 L2.0 -0.8 10.9 0.15 11.65 0.25 13.7 10.95 14.8 0.5 15.8 0.6 20.8 1.1 21.1 1.15 26.8 5.75 32.05 2.1 32.4 2.1 Q128.7 10.15 227.5 5.2 L227.8 5.2 233.3 8.0 238.3 8.0 239.3 4.6 240.0 4.55 251.3 3.85 251.5 3.85 251.7 3.9 260.65 7.2 284.6 1.3 284.7 1.25 284.75 1.25 302.75 -0.4 303.9 -0.5 299.5 116.45 298.4 116.25 281.7 113.55 280.85 113.4 280.85 103.6 280.25 106.3 274.65 112.5 274.1 112.4 267.7 111.5 267.15 111.4 263.8 103.15 249.95 109.35 249.7 109.3 Q174.4 100.75 97.4 105.95 L97.25 105.95 65.2 103.55 50.85 110.3 50.7 110.3 Q27.7 113.05 4.6 117.0 L3.45 117.2 -1.05 -1.1 0.1 -1.0 M301.7 5.15 L283.65 5.4 261.15 10.95 249.25 7.5 241.85 8.35 240.65 11.2 232.6 11.8 226.55 9.25 Q123.5 14.8 34.25 6.75 L26.2 10.45 19.9 6.15 18.3 6.05 14.05 21.2 8.3 5.85 11.0 6.2 10.0 2.1 1.8 1.2 1.05 1.15 5.25 112.35 51.75 105.8 63.55 98.6 94.85 101.5 Q168.55 94.7 246.2 104.6 L265.75 98.5 269.5 106.9 273.0 107.35 277.2 103.6 283.05 88.85 284.8 108.7 297.75 110.7 301.7 5.15" fill="url(#gradient1)" fill-rule="evenodd" stroke="none"/>
    <path d="M0.1 -1.0 L-1.05 -1.1 3.45 117.2 4.6 117.0 Q27.7 113.05 50.7 110.3 L50.85 110.3 65.2 103.55 97.25 105.95 97.4 105.95 Q174.4 100.75 249.7 109.3 L249.95 109.35 263.8 103.15 267.15 111.4 267.7 111.5 274.1 112.4 274.65 112.5 280.25 106.3 280.85 103.6 280.85 113.4 281.7 113.55 298.4 116.25 299.5 116.45 303.9 -0.5 302.75 -0.4 284.75 1.25 284.7 1.25 284.6 1.3 260.65 7.2 251.7 3.9 251.5 3.85 251.3 3.85 240.0 4.55 239.3 4.6 238.3 8.0 233.3 8.0 227.8 5.2 227.5 5.2 Q128.7 10.15 32.4 2.1 L32.05 2.1 26.8 5.75 21.1 1.15 20.8 1.1 15.8 0.6 14.8 0.5 13.7 10.95 11.65 0.25 10.9 0.15 2.0 -0.8 0.1 -1.0 Z" fill="none" stroke="#b68121" stroke-linecap="round" stroke-linejoin="round" stroke-width="3.0"/>
  </g>
  <defs>
    <radialGradient cx="0" cy="0" gradientTransform="matrix(0.2119, 0.0, 0.0, 0.0895, 146.05, 37.0)" gradientUnits="userSpaceOnUse" id="gradient0" r="819.2" spreadMethod="pad">
      <stop offset="0.0" stop-color="#ffe777"/>
      <stop offset="0.7333333333333333" stop-color="#f1b547"/>
      <stop offset="1.0" stop-color="#d08f31"/>
    </radialGradient>
    <radialGradient cx="0" cy="0" gradientTransform="matrix(0.2119, 0.0, 0.0, 0.0895, 146.05, 37.0)" gradientUnits="userSpaceOnUse" id="gradient1" r="819.2" spreadMethod="pad">
      <stop offset="0.0" stop-color="#e7ce59"/>
      <stop offset="0.7333333333333333" stop-color="#e5a736"/>
      <stop offset="1.0" stop-color="#bb7d24"/>
    </radialGradient>
  </defs>
</svg>
