<?xml version="1.0" encoding="UTF-8" standalone="no"?>
<svg xmlns:ffdec="https://www.free-decompiler.com/flash" xmlns:xlink="http://www.w3.org/1999/xlink" ffdec:objectType="shape" height="97.35px" width="341.0px" xmlns="http://www.w3.org/2000/svg">
  <g transform="matrix(1.0, 0.0, 0.0, 1.0, 21.95, -9.0)">
    <path d="M308.1 11.85 L307.8 13.15 308.0 15.45 Q308.15 17.05 308.65 18.2 309.25 19.5 311.75 23.05 314.05 26.3 314.65 28.1 L317.6 38.05 318.45 40.5 Q319.05 42.2 319.05 43.1 L319.05 47.95 318.8 51.05 318.55 55.3 Q318.55 59.0 317.1 62.45 315.95 65.15 314.65 69.5 L312.2 76.75 Q311.65 78.2 311.45 80.35 L311.25 84.1 311.15 87.65 310.75 91.25 310.1 94.75 Q309.6 97.0 308.8 98.4 308.45 100.75 306.7 102.3 303.4 105.25 294.1 105.25 289.95 105.25 287.3 104.2 L282.75 101.95 Q275.7 98.6 258.45 98.6 L246.7 99.45 239.9 100.3 215.0 100.3 202.3 97.35 Q190.4 94.7 174.2 94.7 L159.6 95.9 137.3 97.45 123.15 97.45 113.65 96.1 106.25 94.9 Q100.9 94.9 92.1 96.75 83.35 98.55 80.35 98.55 75.95 98.55 73.25 97.5 70.6 96.45 64.65 96.45 58.05 96.45 53.35 97.85 50.5 98.7 46.15 101.05 37.0 105.9 26.4 106.35 L14.65 106.35 Q-4.9 102.8 -10.1 98.65 -12.15 97.0 -12.6 94.85 L-12.7 90.95 -12.7 86.95 Q-11.35 84.5 -11.1 83.05 -10.75 81.0 -10.75 75.5 -11.3 68.6 -11.25 65.15 -11.2 62.95 -12.4 60.05 L-14.65 54.9 Q-16.85 48.9 -19.4 44.65 -21.35 41.5 -21.75 39.45 -21.95 38.4 -21.95 34.55 L-21.8 28.05 Q-20.95 24.65 -16.0 21.85 L-9.9 18.3 Q-8.05 17.0 -7.8 15.5 -7.45 12.65 -7.05 12.15 -5.3 9.7 1.0 9.7 3.0 9.7 11.3 12.45 19.55 15.15 21.4 15.15 L29.6 14.8 Q30.5 14.55 31.05 13.95 L64.25 12.75 Q66.3 12.75 72.0 13.9 77.7 15.0 82.25 15.0 L91.5 14.15 98.2 13.15 108.45 13.1 Q119.5 13.2 122.4 13.45 L149.75 13.45 164.15 12.7 187.6 12.7 206.4 13.95 225.15 15.0 237.5 14.0 246.75 12.95 254.35 13.6 260.4 14.4 271.4 14.35 Q275.25 13.85 280.45 11.45 284.85 9.35 294.6 9.0 305.45 9.2 307.5 10.55 308.25 11.05 308.1 11.85" fill="url(#gradient0)" fill-rule="evenodd" stroke="none"/>
  </g>
  <defs>
    <radialGradient cx="0" cy="0" gradientTransform="matrix(0.2119, 0.0, 0.0, 0.0895, 146.05, 37.0)" gradientUnits="userSpaceOnUse" id="gradient0" r="819.2" spreadMethod="pad">
      <stop offset="0.0" stop-color="#6dd1ff"/>
      <stop offset="0.7294117647058823" stop-color="#2a99ff"/>
      <stop offset="1.0" stop-color="#0071d7"/>
    </radialGradient>
  </defs>
</svg>
