<?xml version="1.0" encoding="UTF-8" standalone="no"?>
<svg xmlns:ffdec="https://www.free-decompiler.com/flash" xmlns:xlink="http://www.w3.org/1999/xlink" ffdec:objectType="shape" height="63.1px" width="231.45px" xmlns="http://www.w3.org/2000/svg">
  <g transform="matrix(1.0, 0.0, 0.0, 1.0, 245.1, -84.65)">
    <path d="M-48.05 135.6 Q-82.1 144.3 -130.05 144.3 -178.0 144.25 -211.7 135.5 -245.45 126.85 -245.1 114.45 -244.8 102.1 -210.75 93.35 -176.65 84.7 -128.7 84.65 -80.75 84.7 -47.0 93.4 -13.35 102.15 -13.65 114.5 -14.0 126.9 -48.05 135.6" fill="url(#gradient0)" fill-rule="evenodd" stroke="none"/>
    <path d="M-27.1 120.75 Q-27.1 131.95 -55.3 139.85 -83.5 147.75 -123.35 147.75 -163.2 147.75 -191.4 139.85 -219.6 131.95 -219.6 120.75 -219.6 109.55 -191.4 101.65 -163.2 93.75 -123.35 93.75 -83.5 93.75 -55.3 101.65 -27.1 109.55 -27.1 120.75" fill="url(#gradient1)" fill-rule="evenodd" stroke="none"/>
    <path d="M-115.7 143.65 Q-124.55 141.8 -124.6 138.8 -124.6 135.7 -115.85 133.3 -107.15 130.9 -94.75 130.45 -82.35 130.1 -73.55 131.95 -64.75 133.85 -64.7 136.9 -64.65 139.95 -73.4 142.35 -82.1 144.8 -94.5 145.15 -106.95 145.6 -115.7 143.65" fill="url(#gradient2)" fill-rule="evenodd" stroke="none"/>
    <path d="M-117.15 143.05 Q-117.15 143.65 -118.95 144.2 L-121.25 144.65 -123.0 144.3 -123.75 143.65 Q-123.75 142.8 -120.45 142.55 -117.15 142.3 -117.15 143.05 M-126.2 141.5 L-126.25 141.5 -126.2 141.55 -126.2 141.5 M-126.5 141.9 L-127.05 141.55 Q-126.55 141.1 -125.75 140.9 L-122.25 140.6 -121.6 140.7 -121.25 140.95 Q-122.0 142.0 -124.45 142.0 L-126.5 141.9 M-121.95 141.1 L-121.85 141.0 -122.0 141.05 -121.95 141.1 M-129.25 142.85 Q-129.25 142.2 -127.35 142.15 -125.45 142.1 -125.45 142.85 -125.45 143.05 -126.05 143.3 L-127.0 143.5 Q-129.25 143.5 -129.25 142.85 M-123.4 143.6 L-123.4 143.55 -123.4 143.6" fill="#d3e8ad" fill-rule="evenodd" stroke="none"/>
    <path d="M-111.05 134.0 L-111.0 134.05 -110.95 134.0 -111.05 134.0 M-114.15 134.2 L-114.3 134.2 -114.2 134.25 -114.15 134.2 M-111.9 134.85 L-112.05 134.85 -113.1 134.9 Q-114.85 134.9 -114.85 134.2 -114.85 133.45 -112.7 133.4 -110.55 133.35 -109.95 133.9 -110.45 134.6 -111.8 134.85 L-111.9 134.85 M-111.65 136.05 Q-111.65 136.55 -112.35 136.9 -113.05 137.25 -114.0 137.25 L-114.55 137.4 -115.25 137.55 Q-117.5 137.55 -118.35 137.0 L-118.75 136.4 Q-118.75 135.35 -115.2 135.35 -111.65 135.35 -111.65 136.05 M-112.2 136.15 L-116.25 135.8 Q-117.2 135.85 -118.25 136.4 L-117.95 136.75 -115.05 137.05 Q-112.65 136.6 -112.2 136.15" fill="#4b6e35" fill-rule="evenodd" stroke="none"/>
    <path d="M-108.45 135.0 Q-107.7 134.6 -104.25 135.0 L-104.15 135.1 -104.05 135.55 Q-104.05 136.05 -105.3 136.4 L-108.35 136.25 -108.75 135.8 Q-108.85 135.2 -108.45 135.0 M-177.15 139.2 Q-177.4 138.9 -177.3 138.6 -176.5 137.95 -174.5 137.65 -172.1 137.35 -170.5 138.05 -172.1 139.75 -174.85 139.75 -176.65 139.75 -177.15 139.2 M-164.6 139.35 Q-164.6 139.8 -167.85 140.65 L-170.25 140.4 Q-168.95 139.4 -166.9 138.9 -164.6 138.3 -164.6 139.35" fill="#e0f4fb" fill-rule="evenodd" stroke="none"/>
    <path d="M-46.35 108.15 L-46.3 108.5 Q-46.3 108.9 -46.8 109.0 L-47.75 109.05 Q-48.35 109.05 -48.75 108.65 -47.9 108.05 -47.45 108.0 L-46.4 108.25 -46.35 108.15 M-46.75 107.55 L-48.05 107.9 -49.65 108.05 -52.05 107.7 -52.15 107.15 Q-51.3 106.5 -50.05 106.35 -48.2 106.1 -46.75 107.25 L-46.75 107.55 M-70.9 141.3 L-70.85 141.75 Q-70.85 142.35 -72.05 142.35 L-73.75 142.0 Q-73.2 141.2 -72.2 141.15 L-71.0 141.3 -70.9 141.3 M-72.35 140.25 Q-72.35 138.7 -67.15 139.0 L-67.05 139.05 -67.0 139.5 Q-67.0 140.15 -68.65 140.65 L-70.75 141.0 -72.25 140.8 -72.35 140.25" fill="#64b514" fill-rule="evenodd" stroke="none"/>
    <path d="M-174.1 140.75 Q-172.85 140.25 -170.5 141.15 L-170.45 141.1 -170.4 141.5 Q-170.4 142.05 -173.25 142.6 L-174.9 142.4 -175.0 141.95 Q-175.0 141.15 -174.1 140.75 M-212.65 118.85 L-212.55 119.35 -212.65 119.75 -212.65 119.8 -213.0 119.85 -214.85 119.75 Q-215.0 120.05 -215.0 119.4 -215.0 119.05 -214.5 118.85 L-212.75 118.75 -212.65 118.85 M-217.25 118.05 L-217.3 117.75 Q-217.3 116.9 -213.4 117.25 L-213.1 117.9 Q-214.3 118.65 -215.25 118.65 -216.6 118.65 -217.25 118.05" fill="#fee9ab" fill-rule="evenodd" stroke="none"/>
    <path d="M-58.85 104.3 L-60.3 104.65 -60.55 105.0 -58.8 105.05 -57.5 104.5 -56.9 104.15 -58.85 104.3 M-59.9 105.85 Q-61.0 105.85 -61.55 105.3 L-61.6 104.8 Q-61.6 103.2 -55.8 103.35 L-55.5 103.8 -56.6 104.9 Q-57.9 105.85 -59.9 105.85 M-61.0 103.5 Q-61.1 104.0 -62.4 104.0 L-63.8 103.75 Q-63.65 102.75 -62.7 102.45 -61.75 102.1 -61.05 103.1 L-61.0 103.5" fill="#3a618f" fill-rule="evenodd" stroke="none"/>
    <path d="M-94.1 141.05 L-94.05 141.45 -94.1 141.75 -96.4 142.5 Q-97.15 142.5 -97.6 142.05 -97.2 141.4 -96.0 141.15 L-94.3 141.0 -94.1 141.05 M-93.9 143.55 L-94.0 143.45 -94.1 143.0 Q-94.1 142.05 -90.25 141.65 -86.7 141.25 -85.55 141.6 L-85.45 141.55 -85.4 141.95 Q-85.4 142.35 -87.6 143.0 -90.05 143.75 -92.5 143.75 L-93.9 143.55 M-92.5 142.8 L-93.15 142.85 -90.9 142.9 -88.5 142.6 -87.0 142.25 -86.6 142.05 -91.4 142.25 -92.1 142.5 -92.5 142.8 M-35.35 122.15 Q-34.55 120.5 -30.9 120.65 L-30.8 120.8 -30.75 121.3 -30.75 121.55 -32.4 122.1 -34.05 122.4 -35.35 122.15 M-32.25 123.0 L-32.25 122.55 -30.5 122.5 -30.3 122.85 Q-30.75 123.3 -31.25 123.3 L-32.25 123.0 M-68.55 135.25 L-69.35 135.6 -70.4 135.8 -72.25 135.5 Q-71.85 134.75 -70.7 134.4 L-68.8 134.5 -68.55 135.25 M-70.15 133.25 Q-70.15 132.75 -69.6 132.6 -68.75 132.3 -66.4 132.65 L-66.25 133.05 Q-66.6 133.5 -67.75 133.7 L-69.0 133.85 -70.1 133.85 -70.15 133.25" fill="#ffffff" fill-rule="evenodd" stroke="none"/>
  </g>
  <defs>
    <radialGradient cx="0" cy="0" gradientTransform="matrix(0.2272, -8.0E-4, -0.0011, 0.0569, -129.35, 114.45)" gradientUnits="userSpaceOnUse" id="gradient0" r="819.2" spreadMethod="pad">
      <stop offset="0.5176470588235295" stop-color="#107309" stop-opacity="0.3019608"/>
      <stop offset="0.6196078431372549" stop-color="#107309" stop-opacity="0.0"/>
    </radialGradient>
    <radialGradient cx="0" cy="0" gradientTransform="matrix(0.1444, 0.0, 0.0, 0.0366, -127.5, 114.75)" gradientUnits="userSpaceOnUse" id="gradient1" r="819.2" spreadMethod="pad">
      <stop offset="0.4" stop-color="#273a1b"/>
      <stop offset="0.48627450980392156" stop-color="#3c5827"/>
      <stop offset="0.5803921568627451" stop-color="#639342"/>
    </radialGradient>
    <radialGradient cx="0" cy="0" gradientTransform="matrix(0.0494, -0.0052, 0.0013, 0.0125, -94.65, 137.8)" gradientUnits="userSpaceOnUse" id="gradient2" r="819.2" spreadMethod="pad">
      <stop offset="0.396078431372549" stop-color="#ffffff" stop-opacity="0.2"/>
      <stop offset="0.6666666666666666" stop-color="#ffffff" stop-opacity="0.0"/>
    </radialGradient>
  </defs>
</svg>
