<?xml version="1.0" encoding="UTF-8" standalone="no"?>
<svg xmlns:ffdec="https://www.free-decompiler.com/flash" xmlns:xlink="http://www.w3.org/1999/xlink" ffdec:objectType="shape" height="31.25px" width="45.65px" xmlns="http://www.w3.org/2000/svg">
  <g transform="matrix(1.0, 0.0, 0.0, 1.0, 21.45, 12.3)">
    <path d="M4.6 -5.6 Q4.6 -6.7 6.0 -6.35 7.4 -6.05 7.4 -5.5 L6.75 -4.95 6.0 -4.55 Q5.5 -4.55 5.0 -5.0 L4.6 -5.6 M5.0 -5.85 L5.85 -4.9 Q6.05 -4.9 7.0 -5.45 L6.55 -5.85 5.05 -6.1 5.0 -5.85 M2.45 16.05 L2.45 15.85 Q2.45 14.7 4.7 14.5 6.9 14.25 6.9 15.75 6.9 16.05 3.0 17.1 L2.8 17.1 2.8 16.95 Q2.8 16.3 2.45 16.05 M-3.55 15.3 Q-3.85 15.0 -3.75 14.4 L-3.75 14.35 Q-3.65 13.95 -2.55 14.0 L-2.3 14.05 Q-1.4 14.1 -1.4 14.55 L-1.65 15.1 -2.25 15.0 -3.55 15.3 M-2.95 14.55 L-2.8 14.6 -2.95 14.45 -2.95 14.55 M-2.15 15.4 L-2.75 15.5 -3.05 15.5 -2.15 15.4" fill="#9ec4e9" fill-rule="evenodd" stroke="none"/>
    <path d="M17.65 12.25 Q17.65 12.9 16.75 13.35 15.65 13.9 13.6 13.9 12.65 13.9 12.65 12.7 12.65 11.7 15.15 11.0 L15.35 10.95 14.4 10.05 Q15.8 8.45 17.05 8.75 18.15 9.0 18.15 10.1 18.15 10.45 17.35 10.85 L17.05 11.0 Q17.65 11.3 17.65 12.25 M17.0 10.55 L17.8 10.05 Q17.8 9.25 16.85 9.1 15.85 8.95 14.9 9.95 L15.3 10.55 15.75 10.9 16.25 10.85 17.0 10.55" fill="#f8a887" fill-rule="evenodd" stroke="none"/>
    <path d="M22.3 6.1 Q24.2 5.65 24.2 7.55 L23.25 8.6 Q22.3 9.3 21.95 9.3 21.5 9.3 20.75 8.2 L20.1 7.05 20.55 6.85 19.8 6.15 19.35 5.5 Q19.35 4.75 20.85 4.95 22.25 5.15 22.3 6.1 M-1.5 -11.2 Q-0.15 -11.2 -0.15 -10.55 -0.15 -10.15 -0.55 -10.05 L-2.05 -9.9 -2.25 -10.2 -2.8 -10.65 -2.8 -10.6 -2.85 -10.75 Q-4.25 -10.75 -4.25 -11.85 -4.25 -12.35 -2.9 -12.3 -1.55 -12.25 -1.55 -11.45 L-1.55 -11.2 -1.5 -11.2 M-1.8 -11.45 Q-1.8 -11.75 -2.6 -11.8 L-3.95 -11.65 Q-3.8 -11.05 -2.85 -11.05 L-1.85 -11.25 -1.8 -11.45 M-9.85 -1.35 Q-9.0 -1.35 -8.15 0.0 L-7.45 1.35 -7.45 1.55 -7.0 1.6 Q-5.05 1.9 -5.05 3.4 -5.05 4.1 -7.35 4.1 -8.1 4.1 -8.65 3.15 L-9.0 2.25 -9.0 2.2 -9.65 2.2 -11.75 -0.75 Q-11.75 -1.35 -9.85 -1.35 M-11.2 -0.55 L-10.4 0.7 -9.45 1.7 -7.95 1.4 -7.9 1.3 Q-7.9 0.8 -8.95 -0.3 -10.2 -1.6 -11.2 -0.55" fill="#4b200e" fill-rule="evenodd" stroke="none"/>
    <path d="M8.75 -2.7 L8.2 -3.55 Q10.4 -5.25 11.25 -2.75 L10.6 -2.25 9.75 -2.05 Q9.15 -2.05 8.75 -2.7 M9.8 -2.45 Q10.3 -2.45 10.8 -2.8 9.85 -4.55 8.8 -3.15 L9.2 -2.75 Q9.55 -2.45 9.8 -2.45 M1.2 6.9 L-1.6 7.25 Q-2.45 7.25 -2.25 6.35 -2.25 5.5 -0.45 5.25 1.3 5.05 1.3 6.35 L1.2 6.9 M0.95 6.2 Q0.5 5.4 -0.6 5.6 L-1.9 6.05 -1.9 6.75 -1.45 6.85 0.95 6.65 0.95 6.2 M9.7 13.85 L11.35 13.6 11.85 13.8 12.0 14.0 Q12.0 14.3 10.95 14.75 L9.3 15.2 8.95 14.7 8.85 14.2 Q8.85 14.05 9.7 13.85 M-11.65 -3.6 Q-11.65 -3.35 -11.95 -3.05 -12.35 -2.55 -13.2 -2.55 -14.4 -2.55 -14.6 -3.0 L-14.65 -3.85 -14.45 -3.9 -15.35 -4.9 Q-14.6 -5.5 -13.85 -5.1 -13.2 -4.75 -13.2 -4.25 L-12.4 -4.3 Q-11.65 -4.2 -11.65 -3.6 M-11.95 -3.55 Q-11.95 -4.1 -13.45 -3.8 L-13.9 -3.75 -14.15 -3.7 -14.15 -3.25 -14.0 -3.0 -13.5 -2.9 Q-12.75 -2.9 -12.3 -3.2 L-11.95 -3.55 M-14.75 -4.9 L-14.5 -4.4 -14.05 -4.1 -13.65 -4.2 -13.65 -4.15 -13.6 -4.15 -13.6 -4.3 -14.0 -4.75 -14.75 -4.9 M-0.35 -3.1 Q-0.35 -2.65 -0.6 -2.45 -0.85 -2.25 -1.55 -2.15 L-1.45 -1.7 Q-1.45 -1.3 -1.8 -1.2 L-3.4 -0.7 -4.2 -0.7 -4.4 -1.55 Q-4.4 -2.2 -2.9 -2.4 L-2.85 -2.4 -2.95 -2.7 Q-2.95 -3.0 -2.15 -3.3 L-0.8 -3.55 Q-0.35 -3.55 -0.35 -3.1 M-3.95 -1.05 Q-2.95 -0.85 -1.75 -1.8 -1.75 -2.2 -2.15 -2.1 L-4.0 -1.8 -3.95 -1.05" fill="#325c78" fill-rule="evenodd" stroke="none"/>
    <path d="M-3.75 14.35 L-4.25 14.45 -4.45 14.05 Q-4.45 12.45 -4.25 12.2 L-4.05 12.05 -4.5 11.6 Q-5.0 10.95 -5.0 10.1 L-4.9 9.8 -1.6 9.6 Q-1.3 9.8 -1.3 10.95 -1.3 11.6 -1.45 11.8 L-2.0 12.2 -2.0 12.25 -1.8 13.15 Q-1.8 13.8 -1.95 13.9 L-2.3 14.05 -2.55 14.0 Q-3.65 13.95 -3.75 14.35 M-3.25 11.9 L-2.45 11.95 -1.9 11.55 -1.65 10.95 Q-1.65 9.65 -3.05 9.8 -4.5 9.9 -4.5 10.5 L-4.25 11.35 -3.45 11.95 -3.25 11.9" fill="#ffffff" fill-rule="evenodd" stroke="none"/>
    <path d="M17.4 2.05 L17.45 2.0 Q17.2 1.75 16.4 1.65 L15.1 1.8 15.3 2.25 16.05 2.35 16.75 2.2 17.4 2.05 M17.2 2.65 L18.15 2.8 Q20.35 3.35 20.35 4.3 L19.45 4.95 17.8 5.45 Q17.1 5.45 16.45 4.6 L15.9 3.75 Q15.9 3.25 16.15 3.0 15.35 2.95 15.0 2.45 14.7 2.05 14.7 1.7 14.7 1.05 16.25 1.2 17.8 1.35 17.8 2.0 L17.2 2.6 17.15 2.65 17.2 2.65 M-1.65 15.1 Q-1.15 15.3 -0.8 16.0 L-0.45 16.95 Q-0.3 16.4 1.15 16.0 L2.45 16.05 Q2.8 16.3 2.8 16.95 L2.8 17.1 2.25 17.55 1.0 17.85 -0.4 17.6 -0.45 17.5 Q-0.5 18.35 -0.8 18.55 L-3.75 18.95 Q-4.65 18.95 -4.45 17.05 L-4.2 15.8 -3.55 15.3 -2.25 15.0 -1.65 15.1 M-20.45 -8.85 L-18.75 -9.1 Q-18.0 -9.05 -17.95 -8.75 L-17.95 -8.35 -17.3 -8.15 -16.75 -7.8 Q-15.85 -7.45 -15.85 -6.85 L-16.85 -6.25 -18.25 -5.9 Q-19.1 -5.9 -19.9 -7.4 L-20.25 -7.4 Q-20.75 -7.4 -21.45 -8.15 -21.45 -8.55 -20.45 -8.85 M-3.05 15.5 Q-3.55 15.65 -3.8 16.15 L-4.05 17.85 -3.9 18.55 -2.5 18.4 -1.1 18.25 -0.8 17.45 -1.2 15.65 -2.15 15.4 -3.05 15.5" fill="#e7ce6d" fill-rule="evenodd" stroke="none"/>
  </g>
</svg>
