<?xml version="1.0" encoding="UTF-8" standalone="no"?>
<svg xmlns:ffdec="https://www.free-decompiler.com/flash" xmlns:xlink="http://www.w3.org/1999/xlink" ffdec:objectType="shape" height="27.75px" width="19.35px" xmlns="http://www.w3.org/2000/svg">
  <g transform="matrix(1.0, 0.0, 0.0, 1.0, 9.85, 13.6)">
    <path d="M9.0 -0.5 Q9.3 5.05 6.9 9.1 4.5 13.2 0.75 13.4 -3.0 13.6 -5.85 9.85 -8.7 6.05 -9.0 0.5 -9.35 -5.05 -6.95 -9.1 -4.55 -13.15 -0.8 -13.35 2.95 -13.55 5.8 -9.85 8.65 -6.05 9.0 -0.5" fill="#8a581b" fill-rule="evenodd" stroke="none"/>
    <path d="M6.45 -0.15 Q6.7 5.35 4.65 9.3 2.6 13.4 -0.65 13.6 -3.9 13.75 -6.35 10.1 -8.85 6.3 -9.1 0.85 -9.4 -4.65 -7.3 -8.6 -5.25 -12.6 -2.0 -12.85 1.2 -13.0 3.7 -9.35 6.15 -5.6 6.45 -0.15" fill="#a9cdef" fill-rule="evenodd" stroke="none"/>
    <path d="M6.45 -0.15 Q6.7 5.35 4.65 9.3 2.6 13.4 -0.65 13.6 -3.9 13.75 -6.35 10.1 -8.85 6.3 -9.1 0.85 -9.4 -4.65 -7.3 -8.6 -5.25 -12.6 -2.0 -12.85 1.2 -13.0 3.7 -9.35 6.15 -5.6 6.45 -0.15" fill="url(#gradient0)" fill-rule="evenodd" stroke="none"/>
    <path d="M1.65 -7.1 L-1.4 -0.75 Q-3.0 2.35 -4.55 2.45 -5.65 2.5 -5.95 2.95 L-6.4 4.3 -7.2 7.25 -7.45 8.45 -8.6 6.75 Q-8.15 5.45 -7.95 2.7 -7.6 -1.7 -7.05 -1.7 -5.45 -0.8 -4.55 -0.8 -2.45 -0.8 -1.8 -5.25 -1.05 -10.0 0.3 -12.4 1.5 -11.95 2.15 -11.2 L2.95 -10.4 Q3.1 -10.3 1.65 -7.1 M6.0 -3.45 L5.85 -3.1 Q3.4 2.9 0.7 3.1 -0.6 3.2 -3.2 6.8 -5.1 9.4 -6.4 10.1 L-6.75 9.55 Q-5.4 8.6 -2.9 5.1 -0.05 1.1 0.4 1.15 L2.0 0.5 Q3.35 -0.35 3.9 -1.7 4.8 -3.95 5.65 -5.1 L6.0 -3.45" fill="#ffffff" fill-rule="evenodd" stroke="none"/>
    <path d="M8.95 -0.5 Q9.3 5.05 6.8 9.15 4.3 13.35 0.45 13.65 -3.45 13.95 -6.25 10.25 -9.1 6.55 -9.35 1.0 -9.6 -4.55 -7.3 -8.65 -5.05 -12.75 -1.2 -13.1 2.7 -13.4 5.65 -9.75 8.6 -6.05 8.95 -0.5 Z" fill="none" stroke="#cca277" stroke-linecap="round" stroke-linejoin="round" stroke-width="1.0"/>
  </g>
  <defs>
    <radialGradient cx="0" cy="0" gradientTransform="matrix(0.0163, 0.0, 0.0, 0.0277, -0.3, 3.5)" gradientUnits="userSpaceOnUse" id="gradient0" r="819.2" spreadMethod="pad">
      <stop offset="0.5411764705882353" stop-color="#2d308a" stop-opacity="0.0"/>
      <stop offset="0.7411764705882353" stop-color="#3c3cb0" stop-opacity="0.5019608"/>
    </radialGradient>
  </defs>
</svg>
