<?xml version="1.0" encoding="UTF-8" standalone="no"?>
<svg xmlns:ffdec="https://www.free-decompiler.com/flash" xmlns:xlink="http://www.w3.org/1999/xlink" ffdec:objectType="shape" height="47.35px" width="60.1px" xmlns="http://www.w3.org/2000/svg">
  <g transform="matrix(1.0, 0.0, 0.0, 1.0, 30.05, 23.7)">
    <path d="M2.15 -14.95 L2.4 -14.95 3.65 -11.0 Q3.65 -10.75 3.25 -10.45 L4.85 -7.45 14.2 -0.3 15.55 -0.75 Q18.25 0.45 18.85 1.0 19.25 1.4 18.7 2.05 19.65 1.15 20.5 1.35 21.3 1.55 23.35 3.2 25.35 4.8 25.35 5.1 L24.7 5.9 23.45 6.7 30.05 11.7 25.55 14.6 27.8 16.7 25.35 17.75 21.4 16.05 22.5 19.0 19.65 20.25 17.15 17.05 10.45 17.8 10.65 20.8 -3.05 21.95 -2.65 23.65 -14.15 23.45 -13.1 16.75 -16.15 21.2 Q-23.05 20.3 -30.05 18.4 L-21.4 9.5 -22.0 9.15 -22.75 8.8 Q-22.5 7.5 -15.5 0.3 -14.4 0.3 -12.95 0.8 L-7.35 -4.95 -7.3 -5.05 -6.6 -8.9 -6.35 -12.15 -6.0 -12.15 -3.8 -23.7 1.25 -14.25 2.15 -14.95 M-2.25 -8.75 L-2.25 -8.85 -2.25 -8.8 -2.25 -8.75 M18.1 2.65 L18.2 2.55 18.1 2.65" fill="#a33737" fill-rule="evenodd" stroke="none"/>
    <path d="M2.15 -14.95 L2.4 -14.95 3.65 -11.0 Q3.65 -10.75 3.25 -10.45 L4.85 -7.45 14.2 -0.3 15.55 -0.75 Q18.25 0.45 18.85 1.0 19.25 1.4 18.7 2.05 19.65 1.15 20.5 1.35 21.3 1.55 23.35 3.2 25.35 4.8 25.35 5.1 L24.7 5.9 23.45 6.7 30.05 11.7 25.55 14.6 27.8 16.7 25.35 17.75 21.4 16.05 22.5 19.0 19.65 20.25 17.15 17.05 10.45 17.8 10.65 20.8 -3.05 21.95 -2.65 23.65 -14.15 23.45 -13.1 16.75 -16.15 21.2 Q-23.05 20.3 -30.05 18.4 L-21.4 9.5 -22.0 9.15 -22.75 8.8 Q-22.5 7.5 -15.5 0.3 -14.4 0.3 -12.95 0.8 L-7.35 -4.95 -7.3 -5.05 -6.6 -8.9 -6.35 -12.15 -6.0 -12.15 -3.8 -23.7 1.25 -14.25 2.15 -14.95 M18.1 2.65 L18.2 2.55 18.1 2.65 M-2.25 -8.85 L-2.25 -8.8 -2.25 -8.75 -2.25 -8.85" fill="url(#gradient0)" fill-rule="evenodd" stroke="none"/>
    <path d="M17.85 12.85 L14.3 13.2 Q12.45 13.1 11.25 11.15 10.35 9.65 10.35 9.1 17.9 6.35 19.75 9.2 20.5 10.3 20.5 11.1 L20.3 11.15 17.65 12.2 17.85 12.85 M8.05 15.2 Q8.05 16.65 7.85 16.85 7.1 17.75 3.55 17.75 1.15 17.75 0.7 17.15 0.45 16.8 0.45 14.4 0.45 13.35 0.8 13.1 L5.8 12.95 7.55 13.5 7.9 14.0 8.05 15.2 M7.15 14.0 Q2.9 13.05 1.7 14.0 1.3 14.3 1.3 15.6 L1.3 16.35 Q1.7 17.0 3.7 17.0 6.45 17.0 7.15 16.1 L7.35 15.2 7.15 14.0 M-9.5 14.5 L-10.85 14.7 -12.65 14.45 -12.65 14.2 -12.35 13.35 -11.65 12.55 Q-10.5 11.6 -8.6 12.15 -8.45 12.1 -8.45 12.45 L-8.5 12.85 -9.4 13.15 -9.5 14.5" fill="#d68787" fill-rule="evenodd" stroke="none"/>
    <path d="M20.5 11.1 Q22.95 10.65 22.95 13.05 22.95 13.5 21.3 14.35 19.75 15.15 19.2 15.15 18.85 15.15 18.2 13.75 L17.85 12.85 17.65 12.2 20.3 11.15 20.5 11.1 M-8.5 12.85 L-6.45 12.8 Q-6.25 12.95 -6.25 13.65 L-6.3 14.8 Q-6.7 15.45 -8.5 15.45 L-9.5 15.3 -9.55 15.05 -9.5 14.5 -9.4 13.15 -8.5 12.85" fill="#5b493e" fill-rule="evenodd" stroke="none"/>
    <path d="M-15.0 13.7 L-15.6 14.1 Q-16.85 14.1 -16.8 13.5 -16.8 12.75 -15.75 12.6 -14.7 12.4 -14.7 13.2 L-15.0 13.7 M-17.5 14.65 Q-17.7 15.0 -18.55 15.0 L-19.65 14.8 -19.7 14.4 Q-19.7 13.45 -18.55 13.35 -17.4 13.25 -17.4 14.15 L-17.5 14.65" fill="#a3c1ed" fill-rule="evenodd" stroke="none"/>
  </g>
  <defs>
    <radialGradient cx="0" cy="0" gradientTransform="matrix(0.063, -0.0061, 0.0041, 0.0423, 3.45, -6.6)" gradientUnits="userSpaceOnUse" id="gradient0" r="819.2" spreadMethod="pad">
      <stop offset="0.396078431372549" stop-color="#ffffff" stop-opacity="0.0"/>
      <stop offset="0.7607843137254902" stop-color="#ffffff" stop-opacity="0.3019608"/>
    </radialGradient>
  </defs>
</svg>
