<?xml version="1.0" encoding="UTF-8" standalone="no"?>
<svg xmlns:ffdec="https://www.free-decompiler.com/flash" xmlns:xlink="http://www.w3.org/1999/xlink" ffdec:objectType="shape" height="49.35px" width="62.1px" xmlns="http://www.w3.org/2000/svg">
  <g transform="matrix(1.0, 0.0, 0.0, 1.0, 31.05, 24.7)">
    <path d="M-21.4 9.5 L-22.0 9.15 -22.75 8.8 Q-22.5 7.5 -15.5 0.3 -14.4 0.3 -12.95 0.8 -11.75 1.2 -10.35 1.9 -12.8 4.95 -15.75 7.75 -18.7 10.5 -19.75 10.25 L-20.95 9.8 -21.4 9.5" fill="#5b493e" fill-rule="evenodd" stroke="none"/>
    <path d="M-7.3 -5.05 L-6.6 -8.9 -6.35 -12.15 -6.0 -12.15 -5.1 -12.15 -3.4 -11.95 -3.35 -11.95 -2.9 -11.2 -2.85 -10.7 -2.85 -10.65 -2.85 -6.45 -2.75 -6.35 -2.7 -4.8 -2.95 -4.65 -3.2 -4.55 -4.1 -4.3 -5.2 -4.55 -6.85 -4.9 -7.3 -5.05 M-2.85 -6.45 L-2.85 -6.35 -2.85 -6.45" fill="#e16a6a" fill-rule="evenodd" stroke="none"/>
    <path d="M3.25 -10.45 L4.85 -7.45 5.4 -7.05 Q4.4 -6.0 2.75 -5.1 0.9 -4.1 -0.05 -4.0 -1.0 -3.9 -1.8 -5.05 L-2.75 -6.45 -2.85 -6.45 -2.85 -10.65 -2.85 -10.7 -2.8 -10.7 -2.25 -8.8 -2.25 -8.75 -2.25 -8.85 2.3 -10.05 3.25 -10.45" fill="#a3c1ed" fill-rule="evenodd" stroke="none"/>
    <path d="M14.2 -0.3 L15.55 -0.75 Q18.25 0.45 18.85 1.0 19.25 1.4 18.7 2.05 L18.2 2.55 18.1 2.65 15.45 4.45 Q11.9 1.15 11.6 0.4 L14.2 -0.3" fill="#d68787" fill-rule="evenodd" stroke="none"/>
    <path d="M-6.0 -12.15 L-3.8 -23.7 1.25 -14.25 2.15 -14.95 2.4 -14.95 3.65 -11.0 Q3.65 -10.75 3.25 -10.45 L4.85 -7.45 5.4 -7.05 14.2 -0.3 15.55 -0.75 Q18.25 0.45 18.85 1.0 19.25 1.4 18.7 2.05 19.65 1.15 20.5 1.35 21.3 1.55 23.35 3.2 25.35 4.8 25.35 5.1 L24.7 5.9 23.45 6.7 30.05 11.7 25.55 14.6 27.8 16.7 25.35 17.75 21.4 16.05 22.5 19.0 19.65 20.25 17.15 17.05 10.45 17.8 10.65 20.8 -3.05 21.95 -2.65 23.65 -14.15 23.45 -13.1 16.75 -16.15 21.2 Q-23.05 20.3 -30.05 18.4 L-21.4 9.5 -22.0 9.15 -22.75 8.8 Q-22.5 7.5 -15.5 0.3 -14.4 0.3 -12.95 0.8 L-7.35 -4.95 -7.3 -5.05 -6.6 -8.9 -6.35 -12.15 -6.0 -12.15 -5.1 -12.15 -3.4 -11.95 -3.35 -11.95 -3.4 -12.0 -0.45 -13.4 1.25 -14.25 M-2.85 -6.45 L-2.75 -6.45 -1.8 -5.05 Q-1.0 -3.9 -0.05 -4.0 0.9 -4.1 2.75 -5.1 4.4 -6.0 5.4 -7.05 M3.25 -10.45 L2.3 -10.05 -2.25 -8.85 -2.25 -8.75 -2.25 -8.8 -2.8 -10.7 -2.9 -11.2 -2.85 -10.7 -2.85 -10.65 -2.85 -6.45 -2.75 -6.35 -2.75 -6.45 M23.45 6.7 L22.8 7.1 22.0 7.65 21.3 7.95 Q20.5 7.95 16.9 4.05 16.9 3.85 17.8 2.95 L18.1 2.65 18.2 2.55 18.1 2.65 15.45 4.45 Q11.9 1.15 11.6 0.4 L14.2 -0.3 M18.2 2.55 L18.7 2.05 M-2.9 -11.2 L-2.95 -11.9 -3.35 -11.95 -2.9 -11.2 M-2.85 -6.45 L-2.85 -6.35 -2.85 -6.45 M-2.75 -6.35 L-2.7 -4.8 -2.95 -4.65 -3.2 -4.55 -4.1 -4.3 -5.2 -4.55 -6.85 -4.9 -7.3 -5.05 M-12.95 0.8 Q-11.75 1.2 -10.35 1.9 -12.8 4.95 -15.75 7.75 -18.7 10.5 -19.75 10.25 L-20.95 9.8 -21.4 9.5 M-3.05 21.95 L-4.2 17.5" fill="none" stroke="#6e261e" stroke-linecap="round" stroke-linejoin="round" stroke-width="2.0"/>
  </g>
</svg>
