<?xml version="1.0" encoding="UTF-8" standalone="no"?>
<svg xmlns:ffdec="https://www.free-decompiler.com/flash" xmlns:xlink="http://www.w3.org/1999/xlink" ffdec:objectType="shape" height="169.8px" width="150.9px" xmlns="http://www.w3.org/2000/svg">
  <g transform="matrix(1.0, 0.0, 0.0, 1.0, 208.9, 44.2)">
    <path d="M-208.9 -44.2 L-58.0 -44.2 -58.0 125.6 -208.9 125.6 -208.9 -44.2 M-117.85 1.55 L-116.45 3.55 -125.55 6.3 -127.35 4.45 -134.3 4.95 -134.55 3.7 -140.4 4.25 -137.7 15.35 -113.1 12.75 -115.5 1.55 -117.85 1.55 M-104.0 32.15 L-104.0 32.1 Q-107.3 33.05 -113.55 33.05 L-121.5 33.55 -127.35 33.4 -131.9 32.9 -132.2 32.85 -136.45 31.9 -137.2 31.65 -137.7 31.85 -143.5 30.2 -146.15 29.1 -146.45 29.1 Q-147.6 29.35 -150.9 30.75 -155.15 32.5 -156.3 33.25 -158.15 34.55 -160.85 37.25 -164.65 41.1 -164.75 43.2 L-164.25 45.45 Q-163.8 47.75 -163.85 48.65 L-164.2 52.6 Q-164.1 54.4 -162.05 57.1 L-161.7 57.6 -161.8 57.7 -161.55 58.05 Q-157.85 62.3 -151.9 63.9 -144.8 65.75 -144.35 66.2 -142.85 67.75 -139.55 68.5 L-134.5 69.05 -133.7 69.1 -120.65 69.15 Q-114.3 68.7 -108.55 67.4 L-103.95 66.2 -103.6 66.0 -93.1 60.45 Q-92.15 59.3 -90.75 56.9 -88.65 53.45 -88.65 52.95 -88.6 52.35 -89.35 51.65 L-89.9 50.45 -89.6 49.4 -89.3 48.7 Q-89.2 46.85 -91.4 42.65 -93.85 38.45 -95.55 37.6 L-97.6 37.0 Q-99.15 36.5 -98.95 36.0 L-98.7 35.75 Q-99.85 34.05 -101.3 33.0 -102.5 32.25 -103.45 32.15 L-103.55 32.15 -104.0 32.15" fill="#00ff00" fill-rule="evenodd" stroke="none"/>
  </g>
</svg>
