<?xml version="1.0" encoding="UTF-8" standalone="no"?>
<svg xmlns:ffdec="https://www.free-decompiler.com/flash" xmlns:xlink="http://www.w3.org/1999/xlink" ffdec:objectType="shape" height="155.3px" width="140.45px" xmlns="http://www.w3.org/2000/svg">
  <g transform="matrix(1.0, 0.0, 0.0, 1.0, 70.2, 77.7)">
    <path d="M47.85 -67.55 Q54.65 -61.85 60.6 -55.05 66.6 -48.3 69.2 -39.55 71.95 -30.2 67.55 -21.35 63.3 -12.8 56.55 -6.05 49.75 0.85 41.6 5.95 33.2 11.15 23.7 14.05 15.3 16.7 6.7 17.85 -2.75 19.4 -12.4 19.35 L-29.2 18.3 Q-37.85 17.45 -46.4 15.6 L-52.2 15.4 Q-60.75 16.85 -59.4 25.55 -58.75 29.55 -55.25 31.5 -46.7 36.15 -36.95 37.7 L-20.25 39.55 -1.1 41.5 18.35 43.55 Q26.3 44.3 36.45 47.05 46.6 49.8 56.0 57.2 65.35 64.55 66.8 70.9 68.2 77.2 59.35 77.6 58.05 77.75 56.2 74.85 54.3 71.95 49.1 66.05 43.85 60.1 34.9 57.4 25.95 54.65 17.25 53.5 L-2.0 51.45 -20.95 49.55 Q-30.05 48.95 -38.85 47.3 -47.5 45.8 -55.9 43.15 -61.8 41.45 -65.5 36.7 -71.4 29.3 -69.9 19.6 -68.8 12.6 -62.85 8.5 -55.05 3.1 -45.6 5.2 L-28.25 8.25 -9.55 9.3 7.25 7.8 Q16.3 6.1 25.0 2.65 33.15 -0.45 40.3 -5.55 47.35 -10.5 53.3 -16.85 58.35 -22.2 59.05 -29.45 59.95 -38.95 54.25 -46.65 48.6 -54.3 41.35 -60.25 34.55 -65.85 25.6 -66.7 14.9 -68.05 10.45 -58.25 6.45 -49.4 10.7 -40.5 14.05 -33.45 11.45 -30.65 8.8 -27.85 4.8 -29.55 0.8 -31.3 -1.05 -43.15 -2.95 -55.05 1.6 -63.95 5.85 -72.35 14.75 -75.85 23.65 -79.4 32.8 -76.15 41.05 -73.1 47.85 -67.55" fill="#9ec4e9" fill-rule="evenodd" stroke="none"/>
    <path d="M-9.55 9.3 L-8.2 9.3 Q-7.5 10.75 -7.5 12.4 -7.5 16.3 -11.65 19.35 L-12.4 19.35 -29.2 18.3 Q-37.85 17.45 -46.4 15.6 L-52.2 15.4 Q-54.5 15.8 -56.05 16.7 -57.5 14.7 -57.5 12.4 -57.5 7.95 -52.2 4.65 L-45.6 5.2 -28.25 8.25 -9.55 9.3" fill="url(#gradient0)" fill-rule="evenodd" stroke="none"/>
    <path d="M10.3 -57.8 Q6.55 -49.2 10.7 -40.5 14.05 -33.45 11.4 -30.55 8.75 -27.7 4.8 -29.3 0.85 -30.95 -0.9 -41.1 -2.6 -51.25 -1.15 -56.85 1.85 -58.75 5.5 -58.75 8.05 -58.75 10.3 -57.8" fill="url(#gradient1)" fill-rule="evenodd" stroke="none"/>
    <path d="M60.1 -14.85 L62.4 -12.85 Q59.75 -9.25 56.55 -6.05 49.75 0.85 41.6 5.95 35.15 9.95 28.05 12.6 L25.9 11.1 Q21.95 8.1 20.2 4.45 L25.0 2.65 Q33.15 -0.45 40.3 -5.55 47.35 -10.5 53.3 -16.85 L54.4 -18.1 Q57.45 -16.85 60.1 -14.85" fill="url(#gradient2)" fill-rule="evenodd" stroke="none"/>
  </g>
  <defs>
    <radialGradient cx="0" cy="0" gradientTransform="matrix(-0.0042, -0.0168, 0.0363, -0.0091, -58.4, 10.6)" gradientUnits="userSpaceOnUse" id="gradient0" r="819.2" spreadMethod="pad">
      <stop offset="0.33725490196078434" stop-color="#000000" stop-opacity="0.0"/>
      <stop offset="0.4627450980392157" stop-color="#000000" stop-opacity="0.101960786"/>
    </radialGradient>
    <radialGradient cx="0" cy="0" gradientTransform="matrix(0.0109, -6.0E-4, 0.0019, 0.0341, 3.0, -58.65)" gradientUnits="userSpaceOnUse" id="gradient1" r="819.2" spreadMethod="pad">
      <stop offset="0.5411764705882353" stop-color="#000000" stop-opacity="0.0"/>
      <stop offset="0.7098039215686275" stop-color="#000000" stop-opacity="0.2"/>
    </radialGradient>
    <radialGradient cx="0" cy="0" gradientTransform="matrix(0.0392, -0.0273, 0.0108, 0.0155, 30.15, 7.05)" gradientUnits="userSpaceOnUse" id="gradient2" r="819.2" spreadMethod="pad">
      <stop offset="0.49411764705882355" stop-color="#000000" stop-opacity="0.101960786"/>
      <stop offset="0.6627450980392157" stop-color="#000000" stop-opacity="0.0"/>
    </radialGradient>
  </defs>
</svg>
