<?xml version="1.0" encoding="UTF-8" standalone="no"?>
<svg xmlns:ffdec="https://www.free-decompiler.com/flash" xmlns:xlink="http://www.w3.org/1999/xlink" ffdec:objectType="shape" height="23.55px" width="26.25px" xmlns="http://www.w3.org/2000/svg">
  <g transform="matrix(1.0, 0.0, 0.0, 1.0, -8.55, -5.9)">
    <path d="M29.7 28.7 L29.7 24.0 34.05 24.0 29.7 24.0 29.7 28.7 9.3 28.7 9.3 6.65 34.05 6.65 34.05 24.0 29.7 28.7" fill="#ffffff" fill-rule="evenodd" stroke="none"/>
    <path d="M34.05 24.0 L29.7 24.0 29.7 28.7 34.05 24.0 34.05 6.65 9.3 6.65 9.3 28.7 29.7 28.7" fill="none" stroke="#828282" stroke-linecap="round" stroke-linejoin="round" stroke-width="1.5"/>
    <path d="M10.55 6.7 L10.55 28.2 M10.8 7.95 L33.15 7.95 M28.45 24.15 L28.45 28.7" fill="none" stroke="#e6ddbf" stroke-linecap="round" stroke-linejoin="round" stroke-width="1.0"/>
    <path d="M34.05 24.0 L29.7 24.0 29.7 28.7 34.05 24.0 34.05 6.65 9.3 6.65 9.3 28.7 29.7 28.7" fill="none" stroke="#828282" stroke-linecap="round" stroke-linejoin="round" stroke-width="1.5"/>
    <path d="M14.05 23.6 L24.45 23.6 M14.05 15.7 L29.75 15.7 M14.05 19.65 L26.6 19.65 M14.05 11.75 L27.3 11.75" fill="none" stroke="#c7c7c7" stroke-linecap="round" stroke-linejoin="round" stroke-width="2.0"/>
  </g>
</svg>
