<?xml version="1.0" encoding="UTF-8" standalone="no"?>
<svg xmlns:ffdec="https://www.free-decompiler.com/flash" xmlns:xlink="http://www.w3.org/1999/xlink" ffdec:objectType="shape" height="12.45px" width="17.0px" xmlns="http://www.w3.org/2000/svg">
  <g transform="matrix(1.0, 0.0, 0.0, 1.0, 8.3, 14.5)">
    <path d="M2.4 -13.0 L-2.0 -13.0 Q-4.0 -13.0 -5.4 -11.6 -6.65 -10.3 -6.8 -8.6 L-6.8 -8.4 -6.8 -8.2 -6.8 -7.8 -6.75 -7.8 Q-6.6 -6.2 -5.4 -5.0 -4.0 -3.55 -2.0 -3.55 L2.4 -3.55 Q4.4 -3.55 5.8 -5.0 6.95 -6.15 7.15 -7.8 L7.2 -7.8 7.2 -8.3 7.2 -8.4 7.2 -8.6 Q7.05 -10.3 5.8 -11.6 4.4 -13.0 2.4 -13.0 Z" fill="none" stroke="#000000" stroke-linecap="round" stroke-linejoin="round" stroke-width="3.0"/>
    <path d="M2.4 -13.0 Q4.4 -13.0 5.8 -11.6 7.05 -10.3 7.2 -8.6 L7.2 -8.4 7.2 -8.3 7.2 -7.8 7.15 -7.8 Q6.95 -6.15 5.8 -5.0 4.4 -3.55 2.4 -3.55 L-2.0 -3.55 Q-4.0 -3.55 -5.4 -5.0 -6.6 -6.2 -6.75 -7.8 L-6.8 -7.8 -6.8 -8.2 -6.8 -8.4 -6.8 -8.6 Q-6.65 -10.3 -5.4 -11.6 -4.0 -13.0 -2.0 -13.0 L2.4 -13.0" fill="#ffe000" fill-rule="evenodd" stroke="none"/>
    <path d="M7.9 -7.7 Q7.7 -5.75 6.4 -4.4 4.85 -2.7 2.6 -2.7 L-2.25 -2.7 Q-4.5 -2.7 -6.05 -4.4 -7.4 -5.8 -7.55 -7.7 L-7.6 -7.7 -7.6 -8.15 -7.6 -8.4 -7.6 -8.6 Q-7.45 -10.6 -6.05 -12.15 -4.5 -13.8 -2.25 -13.8 L2.6 -13.8 Q4.85 -13.8 6.4 -12.15 7.8 -10.6 7.95 -8.6 L7.95 -8.4 7.95 -8.25 7.95 -7.7 7.9 -7.7" fill="#ffe000" fill-opacity="0.9882353" fill-rule="evenodd" stroke="none"/>
  </g>
</svg>
