<?xml version="1.0" encoding="UTF-8" standalone="no"?>
<svg xmlns:ffdec="https://www.free-decompiler.com/flash" xmlns:xlink="http://www.w3.org/1999/xlink" ffdec:objectType="shape" height="32.5px" width="48.8px" xmlns="http://www.w3.org/2000/svg">
  <g transform="matrix(1.0, 0.0, 0.0, 1.0, -11.5, -5.15)">
    <path d="M37.75 30.45 L37.2 29.6 36.95 29.3 Q35.85 26.9 36.4 24.1 37.1 20.0 40.65 17.15 44.3 14.3 48.7 14.3 53.05 14.3 55.9 17.15 56.9 18.05 57.45 19.05 L57.65 19.5 57.75 19.95 58.8 22.2 59.0 22.7 59.05 22.8 Q59.7 24.6 59.5 26.7 59.05 30.85 55.5 33.85 51.85 36.85 47.4 36.9 42.8 36.85 40.0 33.85 L39.15 32.8 38.8 32.2 37.75 30.45 Z" fill="none" stroke="#693800" stroke-linecap="round" stroke-linejoin="round" stroke-width="1.5"/>
    <path d="M45.7 11.45 L45.7 26.8 14.2 26.8 14.2 11.45 45.7 11.45" fill="#ffffff" fill-rule="evenodd" stroke="none"/>
    <path d="M39.45 9.95 L42.6 9.95 42.6 6.65 39.45 6.65 39.45 9.95 M11.5 28.2 L11.5 9.95 13.0 9.95 13.0 6.65 11.5 6.65 11.65 6.0 Q12.0 5.15 13.25 5.15 L46.45 5.15 Q48.1 5.15 48.25 6.65 L46.75 6.65 46.75 9.95 48.25 9.95 48.25 28.2 46.75 28.2 46.75 31.5 48.25 31.5 Q48.2 32.4 47.6 32.8 L46.45 33.05 13.25 33.05 Q11.95 33.05 11.65 32.15 11.5 31.9 11.5 31.5 L13.0 31.5 13.0 28.2 11.5 28.2 M39.45 31.5 L42.6 31.5 42.6 28.2 39.45 28.2 39.45 31.5 M45.7 11.45 L14.2 11.45 14.2 26.8 45.7 26.8 45.7 11.45 M24.65 31.5 L27.75 31.5 27.75 28.2 24.65 28.2 24.65 31.5 M32.05 31.5 L35.15 31.5 35.15 28.2 32.05 28.2 32.05 31.5 M17.3 31.5 L20.4 31.5 20.4 28.2 17.3 28.2 17.3 31.5 M17.3 9.95 L20.4 9.95 20.4 6.65 17.3 6.65 17.3 9.95 M24.65 9.95 L27.75 9.95 27.75 6.65 24.65 6.65 24.65 9.95 M32.05 9.95 L35.15 9.95 35.15 6.65 32.05 6.65 32.05 9.95" fill="#434343" fill-rule="evenodd" stroke="none"/>
    <path d="M45.7 11.45 L45.7 26.8 45.5 26.8 45.5 11.7 14.2 11.7 14.2 11.45 45.7 11.45" fill="#000000" fill-opacity="0.30980393" fill-rule="evenodd" stroke="none"/>
  </g>
</svg>
