<?xml version="1.0" encoding="UTF-8" standalone="no"?>
<svg xmlns:ffdec="https://www.free-decompiler.com/flash" xmlns:xlink="http://www.w3.org/1999/xlink" ffdec:objectType="shape" height="100.5px" width="103.85px" xmlns="http://www.w3.org/2000/svg">
  <g transform="matrix(1.0, 0.0, 0.0, 1.0, 21.5, 21.1)">
    <path d="M-12.65 49.85 L-14.9 46.15 -15.75 44.55 Q-20.45 34.7 -18.4 22.65 -15.4 5.3 0.05 -6.75 15.2 -18.6 34.0 -18.6 52.5 -18.6 64.45 -6.75 68.4 -2.8 70.85 1.7 L71.7 3.2 72.45 5.0 76.75 14.85 77.6 16.75 77.8 17.3 Q80.6 24.85 79.55 33.95 77.7 51.35 62.75 64.05 47.35 76.8 28.15 76.9 8.6 76.8 -3.05 64.05 L-6.35 59.8 -8.05 57.1 -12.65 49.85 -9.85 53.3" fill="none" stroke="url(#gradient0)" stroke-linecap="round" stroke-linejoin="round" stroke-width="5.0"/>
    <path d="M25.35 -4.45 L26.6 -4.85 26.95 -4.85 27.1 -4.85 29.1 -4.95 31.35 -4.85 35.6 -4.5 36.8 -4.1 37.0 -4.95 37.05 -5.55 38.7 -4.7 Q45.3 -3.65 50.45 0.0 L49.1 -0.1 Q48.45 0.1 48.25 1.4 47.9 2.55 49.1 6.6 49.75 9.25 51.35 12.35 L53.35 15.6 54.1 16.75 56.0 19.1 Q57.3 20.4 59.0 19.45 59.45 19.0 59.1 17.95 L59.0 17.5 57.65 15.25 55.9 13.1 53.35 9.05 51.75 6.5 51.0 4.9 53.25 3.85 53.35 2.95 53.05 2.1 54.3 3.3 54.65 3.7 54.1 3.95 53.8 4.1 54.1 4.55 54.4 5.0 54.65 5.45 56.15 8.3 57.4 11.85 57.5 13.1 58.05 12.9 Q59.0 12.35 60.0 11.95 L60.5 13.55 Q61.45 17.8 60.85 22.65 L60.3 26.15 Q60.0 26.9 59.85 27.75 L58.15 32.35 57.85 32.65 56.55 31.6 56.25 32.25 55.9 32.9 53.25 36.4 50.15 39.7 49.75 40.05 49.0 40.65 49.4 40.8 50.5 41.55 51.2 41.95 50.5 42.6 48.65 44.3 45.45 46.75 45.0 47.0 Q41.7 49.2 38.2 50.7 L33.4 52.3 31.05 52.7 30.1 52.75 30.6 50.95 29.0 51.25 Q27.1 51.45 24.6 51.25 L20.25 50.8 18.95 50.5 18.75 51.65 18.45 53.05 Q14.45 52.45 11.05 51.05 5.7 48.7 1.65 44.3 L1.25 43.9 0.15 42.5 1.65 41.95 1.85 41.85 1.1 41.0 0.6 39.95 -0.6 37.35 -1.55 34.05 -1.75 33.5 Q-2.05 32.65 -1.85 32.25 L-3.9 33.2 -4.2 33.35 Q-4.95 29.0 -4.15 24.15 -3.75 21.4 -2.8 18.9 L-2.7 19.4 -2.5 19.65 -2.4 19.75 -2.05 19.95 -0.6 19.55 Q0.6 19.1 4.25 15.8 7.85 12.35 11.5 6.95 L12.35 5.65 13.85 2.95 14.15 1.9 14.15 1.6 Q14.05 0.75 13.3 0.4 L12.9 0.4 Q15.85 -1.45 19.0 -2.65 L19.05 -2.5 19.2 -2.25 19.9 -1.7 19.95 -1.6 Q20.9 -0.95 25.4 -0.15 29.95 0.5 36.6 0.1 L38.1 0.0 41.5 -0.65 Q43.0 -1.0 43.55 -1.85 L43.75 -2.7 43.75 -2.8 Q43.4 -3.35 42.45 -3.45 L38.85 -3.35 37.65 -3.2 37.1 -3.15 36.4 -3.0 35.4 -2.9 30.4 -2.45 26.0 -2.25 24.85 -2.25 25.15 -3.45 25.35 -4.4 25.35 -4.45 M6.45 5.3 L8.7 3.3 Q10.05 2.25 11.45 1.3 L10.8 2.05 9.5 4.0 8.5 5.7 8.15 6.15 7.45 7.3 5.1 10.9 1.85 15.25 1.0 14.7 1.05 14.7 -0.7 14.65 -1.25 14.85 -0.55 13.4 -0.15 13.65 -0.05 13.75 Q0.05 13.25 0.7 12.5 1.55 10.9 3.25 9.25 4.95 7.05 6.45 5.95 L6.7 5.75 6.55 5.45 6.45 5.3 M27.1 -14.2 Q13.85 -12.6 2.75 -3.95 L-0.35 -1.2 -0.5 -1.5 Q-1.65 -1.6 -2.95 -0.65 -4.55 0.2 -6.25 2.0 -8.25 3.85 -9.15 6.1 -10.2 8.45 -9.45 8.4 L-8.8 8.75 -8.6 8.85 -9.0 9.4 Q-12.55 15.55 -13.8 22.65 -15.0 29.8 -13.5 36.2 L-13.7 36.2 Q-14.45 37.05 -14.55 38.65 -14.7 40.25 -13.95 42.4 -13.7 43.65 -12.95 44.65 L-11.6 46.35 Q-10.0 48.05 -9.25 47.3 L-8.9 47.0 -8.7 46.9 -8.3 47.5 -7.75 48.35 -5.95 50.4 Q-2.85 53.8 0.9 56.15 7.3 60.25 15.45 61.6 15.55 62.25 16.4 62.8 L17.15 63.3 17.3 63.35 Q18.7 63.85 21.4 64.15 L26.45 63.85 26.65 63.75 27.75 63.45 28.55 63.1 Q29.2 62.8 29.0 62.55 L29.0 61.7 29.85 61.6 Q43.3 59.5 54.45 50.4 L57.3 47.85 57.65 47.5 Q58.6 47.5 60.1 46.65 L61.5 45.6 63.4 43.8 Q65.2 41.85 66.15 39.5 L66.5 38.45 66.6 38.05 66.6 38.0 Q66.8 37.05 66.4 37.15 L65.65 36.85 Q69.15 30.2 70.0 22.65 L70.15 21.15 Q70.55 15.7 69.4 11.0 L69.05 9.4 69.25 9.25 69.7 7.05 Q69.7 5.45 68.85 3.4 L68.7 3.0 68.65 2.95 Q68.0 1.15 66.5 -0.35 64.7 -2.05 64.35 -1.4 L63.6 -0.95 60.95 -3.95 Q52.4 -12.5 40.05 -14.2 L40.0 -14.2 40.0 -14.3 Q39.6 -15.2 38.2 -15.8 36.8 -16.45 34.35 -16.65 L29.45 -16.25 Q26.75 -15.6 27.1 -14.2 M67.95 -2.75 Q69.6 -0.6 70.85 1.7 L71.45 2.85 71.7 3.2 72.05 4.0 72.45 5.0 Q73.45 7.55 74.05 10.25 74.85 14.3 74.85 18.7 L74.6 22.65 Q72.6 40.45 57.4 53.4 41.7 66.5 22.05 66.55 6.55 66.5 -4.0 58.7 L-9.75 53.4 -9.85 53.3 -12.65 49.85 -13.25 48.95 -14.9 46.15 -15.7 44.7 -15.75 44.55 Q-17.6 40.65 -18.4 36.45 -19.65 29.95 -18.4 22.65 -17.4 16.75 -14.9 11.45 -10.0 2.1 -0.35 -5.25 15.15 -17.1 34.4 -17.1 53.35 -17.1 65.6 -5.25 L67.95 -2.75 M8.9 33.0 L9.55 34.05 11.3 36.3 Q16.6 42.05 25.4 42.15 L29.2 41.85 Q35.65 40.7 41.1 36.3 L42.55 35.1 Q48.1 29.7 49.0 22.65 49.5 18.35 48.25 14.85 L48.05 14.3 48.0 14.2 47.95 14.15 47.5 13.25 Q46.5 11.1 44.7 9.3 39.25 3.75 30.8 3.75 22.25 3.75 15.35 9.3 8.4 14.75 7.2 22.65 6.35 28.1 8.6 32.55 L8.9 33.0 M59.15 26.9 Q59.15 25.85 58.6 25.5 L56.9 25.7 Q55.5 26.15 52.05 29.65 48.45 32.9 45.0 38.65 L44.05 39.95 Q43.4 41.0 42.65 43.0 41.8 44.65 43.1 45.5 L43.4 45.7 Q44.05 45.8 45.0 44.95 L46.85 42.05 48.65 39.2 51.35 34.6 Q53.7 30.85 54.45 30.1 L56.45 31.4 Q58.25 30.55 58.9 28.4 L59.15 26.9 M4.55 33.5 L2.5 29.7 1.75 28.6 Q1.15 27.55 -0.05 26.25 -1.45 24.85 -2.95 25.7 -3.6 26.15 -3.25 27.3 L-2.3 29.45 -1.85 30.1 -0.45 32.25 2.2 36.5 4.45 40.45 4.55 40.9 2.2 41.95 2.1 42.8 2.2 43.55 2.85 44.55 3.5 45.15 Q5.2 46.55 6.25 46.1 6.8 45.8 7.3 44.5 7.55 43.35 6.55 39.1 5.85 36.4 4.55 33.5 M37.35 49.25 L37.45 49.0 Q37.45 48.45 36.4 47.7 35.4 46.9 30.7 46.15 26.0 45.25 19.15 45.9 L17.55 46.0 14.15 46.65 Q11.9 47.1 11.8 48.9 L12.0 49.2 12.75 49.75 13.2 49.85 16.8 49.65 19.95 49.2 25.6 48.7 31.15 48.45 30.8 50.8 31.7 51.25 34.65 50.95 Q36.8 50.2 37.35 49.25" fill="url(#gradient1)" fill-rule="evenodd" stroke="none"/>
    <path d="M19.0 -2.65 L19.05 -2.8 Q19.2 -3.85 21.75 -4.7 23.9 -5.55 25.35 -4.5 L25.35 -4.45 25.35 -4.4 25.15 -3.45 22.5 -3.2 Q20.45 -2.5 19.95 -1.6 L19.9 -1.7 19.2 -2.25 19.05 -2.5 19.0 -2.65 M26.6 -4.85 L25.7 -4.7 26.1 -6.2 26.95 -4.85 26.6 -4.85 M11.45 1.3 L11.6 1.15 Q12.25 0.45 12.9 0.4 L13.3 0.4 Q14.05 0.75 14.15 1.6 L14.15 1.9 13.95 1.8 Q13.2 1.7 12.35 2.65 L10.3 5.35 Q9.05 7.05 8.8 7.9 L5.85 12.4 2.6 16.75 0.6 15.55 Q-1.2 16.3 -1.75 18.55 L-2.05 19.95 -2.4 19.75 -2.5 19.65 -2.7 19.4 -2.8 18.9 -2.55 16.85 Q-2.15 15.4 -1.25 14.85 L-0.7 14.65 1.05 14.7 1.0 14.7 1.85 15.25 5.1 10.9 7.45 7.3 8.15 6.15 8.5 5.7 9.5 4.0 10.8 2.05 11.45 1.3 M27.85 -12.75 Q27.1 -13.45 27.1 -14.2 26.75 -15.6 29.45 -16.25 L34.35 -16.65 Q36.8 -16.45 38.2 -15.8 39.6 -15.2 40.0 -14.3 L40.0 -14.2 40.05 -14.2 40.65 -12.95 39.8 -13.8 38.95 -14.3 38.75 -14.35 35.1 -15.1 30.2 -14.75 29.15 -14.45 Q27.7 -13.9 27.95 -13.7 L27.85 -13.6 27.85 -12.75 M24.85 -2.25 L26.0 -2.25 30.4 -2.45 35.4 -2.9 36.4 -3.0 37.1 -3.15 37.65 -3.2 38.85 -3.35 42.45 -3.45 Q43.4 -3.35 43.75 -2.8 L43.75 -2.7 43.55 -1.85 43.2 -1.95 39.6 -1.85 36.5 -1.4 31.15 -0.95 25.6 -0.75 24.85 -2.25 M50.45 0.0 L51.3 0.5 51.85 0.85 52.7 1.5 53.05 2.1 53.35 2.95 52.6 2.35 Q50.9 0.95 49.85 1.4 49.2 1.6 49.0 2.95 48.65 4.05 49.85 8.1 50.35 10.05 51.35 12.35 49.75 9.25 49.1 6.6 47.9 2.55 48.25 1.4 48.45 0.1 49.1 -0.1 L50.45 0.0 M54.65 3.7 L54.85 3.6 55.3 3.4 56.05 4.9 55.85 5.0 54.65 5.45 54.4 5.0 54.1 4.55 53.8 4.1 54.1 3.95 54.65 3.7 M63.3 -0.75 L63.6 -0.95 64.35 -1.4 Q64.7 -2.05 66.5 -0.35 68.0 1.15 68.65 2.95 L67.25 1.15 Q65.45 -0.55 65.2 -0.2 L64.85 0.2 64.6 0.4 64.35 0.6 64.05 0.2 63.3 -0.75 M65.65 36.85 L66.4 37.15 Q66.8 37.05 66.6 38.0 L66.6 38.05 66.45 38.3 65.65 36.85 M-12.95 44.65 Q-13.7 43.65 -13.95 42.4 -14.7 40.25 -14.55 38.65 -14.45 37.05 -13.7 36.2 L-13.5 36.2 -12.75 37.7 Q-13.7 38.75 -13.8 40.15 -13.95 41.75 -13.2 43.9 L-12.95 44.65 M57.95 32.75 L58.7 34.25 57.6 33.4 57.3 33.1 56.65 34.4 54.0 37.9 50.9 41.2 50.5 41.55 49.4 40.8 49.0 40.65 49.75 40.05 50.15 39.7 53.25 36.4 55.9 32.9 56.25 32.25 56.55 31.6 57.85 32.65 57.95 32.75 M51.75 6.5 L53.35 9.05 55.9 13.1 57.65 15.25 59.0 17.5 58.4 16.75 56.65 14.6 54.1 10.55 Q52.05 7.25 51.75 6.5 M58.05 12.9 L57.5 13.1 57.4 11.85 56.15 8.3 56.9 9.8 58.05 12.9 M43.1 45.5 Q41.8 44.65 42.65 43.0 43.4 41.0 44.05 39.95 L45.0 38.65 Q48.45 32.9 52.05 29.65 55.5 26.15 56.9 25.7 L58.6 25.5 Q59.15 25.85 59.15 26.9 58.6 26.8 57.65 27.2 56.25 27.65 52.8 31.15 49.2 34.4 45.75 40.15 L44.8 41.45 Q44.15 42.5 43.4 44.5 43.1 45.05 43.1 45.5 M-4.2 33.35 L-3.9 33.2 -1.85 32.25 Q-2.05 32.65 -1.75 33.5 L-1.55 34.05 Q-2.6 34.4 -3.55 34.9 L-3.55 34.8 -4.4 33.4 -4.2 33.35 M1.1 41.0 L1.85 41.85 1.65 41.95 1.1 41.0 M18.45 53.05 L18.75 51.65 18.95 50.5 20.25 50.8 24.6 51.25 Q27.1 51.45 29.0 51.25 L30.6 50.95 30.1 52.75 29.75 52.75 Q27.85 52.95 25.35 52.75 L21.0 52.3 19.7 52.0 19.5 53.2 19.2 54.55 18.45 53.05 M4.55 33.5 L3.25 31.2 2.5 30.1 Q1.9 29.05 0.7 27.75 -0.7 26.35 -2.2 27.2 -2.85 27.65 -2.5 28.8 L-2.3 29.45 -3.25 27.3 Q-3.6 26.15 -2.95 25.7 -1.45 24.85 -0.05 26.25 1.15 27.55 1.75 28.6 L2.5 29.7 4.55 33.5 M4.45 40.45 L5.3 42.4 2.95 43.45 Q2.75 44.0 2.85 44.55 L2.2 43.55 2.1 42.8 2.2 41.95 4.55 40.9 4.45 40.45 M12.75 49.75 L12.0 49.2 11.8 48.9 Q11.9 47.1 14.15 46.65 L17.55 46.0 19.15 45.9 Q26.0 45.25 30.7 46.15 35.4 46.9 36.4 47.7 37.45 48.45 37.45 49.0 L37.35 49.25 37.2 49.2 Q36.15 48.45 31.45 47.7 26.75 46.75 19.9 47.4 L18.3 47.5 14.9 48.15 Q13.1 48.5 12.75 49.75 M31.7 51.25 L30.8 50.8 31.15 48.45 31.9 49.95 31.7 51.25" fill="#895900" fill-rule="evenodd" stroke="none"/>
    <path d="M19.95 -1.6 Q20.45 -2.5 22.5 -3.2 L25.15 -3.45 24.85 -2.25 25.6 -0.75 31.15 -0.95 36.5 -1.4 39.6 -1.85 43.2 -1.95 43.55 -1.85 Q43.0 -1.0 41.5 -0.65 L38.1 0.0 36.6 0.1 Q29.95 0.5 25.4 -0.15 20.9 -0.95 19.95 -1.6 M0.4 0.2 Q2.3 2.55 5.0 4.6 L6.3 5.45 6.45 5.55 6.7 5.75 6.45 5.95 Q4.95 7.05 3.25 9.25 1.55 10.9 0.7 12.5 0.05 13.25 -0.05 13.75 L-0.15 13.65 -0.55 13.4 -1.25 12.8 -1.65 13.55 Q-4.65 11.6 -7.85 10.25 L-8.6 8.85 -8.8 8.75 -8.4 7.65 Q-7.5 5.35 -5.5 3.5 -4.2 2.2 -2.95 1.35 L-2.2 0.85 Q-0.9 -0.1 0.25 0.0 L0.4 0.2 M27.85 -12.75 L27.85 -13.6 27.95 -13.7 Q27.7 -13.9 29.15 -14.45 L30.2 -14.75 35.1 -15.1 38.75 -14.35 38.95 -14.3 39.8 -13.8 40.65 -12.95 40.75 -12.75 40.75 -12.7 Q39.05 -9.75 38.2 -6.2 L37.2 -6.3 37.05 -5.55 37.0 -4.95 36.8 -4.1 35.6 -4.5 31.35 -4.85 29.1 -4.95 27.1 -4.85 26.95 -4.85 27.2 -6.4 Q27.75 -9.55 27.85 -12.75 M29.85 -13.45 L29.1 -13.15 29.1 -12.85 29.2 -10.05 29.2 -6.55 29.2 -6.45 Q28.8 -4.6 29.35 -5.65 L29.55 -6.55 30.8 -13.05 30.9 -13.45 29.85 -13.45 M68.65 2.95 L68.7 3.0 68.85 3.4 Q69.7 5.45 69.7 7.05 L69.25 9.25 69.05 9.4 69.4 11.0 Q65.2 11.5 60.75 13.45 L60.2 11.85 60.0 11.95 Q59.0 12.35 58.05 12.9 L56.9 9.8 56.15 8.3 54.65 5.45 55.85 5.0 56.05 4.9 Q56.15 4.8 56.35 4.8 56.45 4.7 56.65 4.7 60.7 2.85 64.35 0.6 L64.6 0.4 64.85 0.2 65.2 -0.2 Q65.45 -0.55 67.25 1.15 L68.65 2.95 M66.5 38.45 L66.15 39.5 Q65.2 41.85 63.4 43.8 L61.5 45.6 60.1 46.65 Q58.6 47.5 57.65 47.5 L57.3 47.85 Q55.05 45.5 51.95 43.45 L51.2 41.95 50.5 41.55 50.9 41.2 54.0 37.9 56.65 34.4 57.3 33.1 57.6 33.4 58.7 34.25 Q61.6 36.3 65.1 37.8 L66.4 38.35 66.5 38.45 M29.85 61.6 L29.0 61.7 29.0 62.55 Q29.2 62.8 28.55 63.1 L28.45 61.8 Q28.25 57.9 28.45 56.15 L28.55 54.75 28.35 55.1 Q28.05 55.65 27.6 57.9 27.2 59.45 26.85 61.95 L26.75 62.35 26.55 63.55 26.45 63.85 21.4 64.15 Q18.7 63.85 17.3 63.35 L17.25 63.3 17.15 63.3 16.4 62.8 16.85 61.8 Q18.3 58.4 19.2 54.55 L19.5 53.2 19.7 52.0 21.0 52.3 25.35 52.75 Q27.85 52.95 29.75 52.75 L30.1 52.75 30.9 54.45 Q29.95 58.0 29.85 61.6 M-8.7 46.9 L-8.9 47.0 -9.25 47.3 Q-10.0 48.05 -11.6 46.35 L-12.95 44.65 -13.2 43.9 Q-13.95 41.75 -13.8 40.15 -13.7 38.75 -12.75 37.7 -8.4 36.75 -3.9 35.0 L-3.85 35.0 -3.55 34.9 Q-2.6 34.4 -1.55 34.05 L-0.6 37.35 0.6 39.95 1.1 41.0 1.65 41.95 0.15 42.5 -0.15 42.6 -1.55 43.15 Q-5.2 44.75 -8.7 46.9 M58.6 5.45 Q57.5 6.05 57.4 6.2 L57.4 6.3 57.65 6.2 Q58.8 5.85 65.95 2.75 L66.15 2.75 66.2 2.65 Q66.05 2.0 65.45 1.6 L65.1 1.4 65.1 1.5 58.6 5.45 M53.35 2.95 L53.25 3.85 51.0 4.9 51.75 6.5 Q52.05 7.25 54.1 10.55 L56.65 14.6 58.4 16.75 59.0 17.5 59.1 17.95 Q59.45 19.0 59.0 19.45 57.3 20.4 56.0 19.1 L54.1 16.75 53.35 15.6 51.35 12.35 Q50.35 10.05 49.85 8.1 48.65 4.05 49.0 2.95 49.2 1.6 49.85 1.4 50.9 0.95 52.6 2.35 L53.35 2.95 M47.95 14.15 L48.0 14.2 48.05 14.3 48.25 14.85 Q49.5 18.35 49.0 22.65 48.1 29.7 42.55 35.1 L41.1 36.3 Q35.65 40.7 29.2 41.85 L25.4 42.15 Q16.6 42.05 11.3 36.3 L9.55 34.05 8.9 33.0 Q7.2 28.95 7.95 24.15 9.15 16.3 16.1 10.85 23.0 5.3 31.55 5.3 40.0 5.3 45.45 10.85 46.9 12.3 47.95 14.15 M59.15 26.9 L58.9 28.4 Q58.25 30.55 56.45 31.4 L54.45 30.1 Q53.7 30.85 51.35 34.6 L48.65 39.2 46.85 42.05 45.0 44.95 Q44.05 45.8 43.4 45.7 L43.1 45.5 Q43.1 45.05 43.4 44.5 44.15 42.5 44.8 41.45 L45.75 40.15 Q49.2 34.4 52.8 31.15 56.25 27.65 57.65 27.2 58.6 26.8 59.15 26.9 M57.7 36.15 L57.7 36.2 57.85 36.4 63.7 40.25 64.9 41.0 65.0 41.1 Q65.75 40.35 65.85 39.4 L64.7 39.05 64.45 38.95 61.35 37.7 59.1 36.7 57.7 36.15 M14.15 1.9 L13.85 2.95 12.35 5.65 11.5 6.95 Q7.85 12.35 4.25 15.8 0.6 19.1 -0.6 19.55 L-2.05 19.95 -1.75 18.55 Q-1.2 16.3 0.6 15.55 L2.6 16.75 5.85 12.4 8.8 7.9 Q9.05 7.05 10.3 5.35 L12.35 2.65 Q13.2 1.7 13.95 1.8 L14.15 1.9 M-4.1 9.25 L-6.25 7.8 -6.75 7.55 -7.1 8.0 -7.4 9.15 -7.2 9.25 Q-2.85 10.85 -1.0 11.75 L-0.8 11.85 0.0 12.25 Q0.65 12.55 0.25 12.15 L0.1 12.05 Q-0.15 11.85 -0.6 11.6 -1.75 10.75 -4.1 9.25 M-2.3 29.45 L-2.5 28.8 Q-2.85 27.65 -2.2 27.2 -0.7 26.35 0.7 27.75 1.9 29.05 2.5 30.1 L3.25 31.2 4.55 33.5 Q5.85 36.4 6.55 39.1 7.55 43.35 7.3 44.5 6.8 45.8 6.25 46.1 5.2 46.55 3.5 45.15 L2.85 44.55 Q2.75 44.0 2.95 43.45 L5.3 42.4 4.45 40.45 2.2 36.5 -0.45 32.25 -1.85 30.1 -2.3 29.45 M37.35 49.25 Q36.8 50.2 34.65 50.95 L31.7 51.25 31.9 49.95 31.15 48.45 25.6 48.7 19.95 49.2 16.8 49.65 13.2 49.85 12.75 49.75 Q13.1 48.5 14.9 48.15 L18.3 47.5 19.9 47.4 Q26.75 46.75 31.45 47.7 36.15 48.45 37.2 49.2 L37.35 49.25 M-9.45 46.15 L-9.25 46.15 Q-4.85 42.9 -2.6 41.85 -0.6 40.7 -1.65 41.0 -2.8 41.2 -10.6 44.85 -10.4 45.7 -9.45 46.15" fill="#000000" fill-rule="evenodd" stroke="none"/>
    <path d="M29.85 -13.45 L30.9 -13.45 30.8 -13.05 29.55 -6.55 29.35 -5.65 Q28.8 -4.6 29.2 -6.45 L29.2 -6.55 29.2 -10.05 29.1 -12.85 29.1 -13.15 29.85 -13.45 M28.55 63.1 L27.75 63.45 26.65 63.75 26.45 63.85 26.55 63.55 26.75 62.35 26.85 61.95 Q27.2 59.45 27.6 57.9 28.05 55.65 28.35 55.1 L28.55 54.75 28.45 56.15 Q28.25 57.9 28.45 61.8 L28.55 63.1 M58.6 5.45 L65.1 1.5 65.1 1.4 65.45 1.6 Q66.05 2.0 66.2 2.65 L66.15 2.75 65.95 2.75 Q58.8 5.85 57.65 6.2 L57.4 6.3 57.4 6.2 Q57.5 6.05 58.6 5.45 M57.7 36.15 L59.1 36.7 61.35 37.7 64.45 38.95 64.7 39.05 65.85 39.4 Q65.75 40.35 65.0 41.1 L64.9 41.0 63.7 40.25 57.85 36.4 57.7 36.2 57.7 36.15 M-4.1 9.25 Q-1.75 10.75 -0.6 11.6 -0.15 11.85 0.1 12.05 L0.25 12.15 Q0.65 12.55 0.0 12.25 L-0.8 11.85 -1.0 11.75 Q-2.85 10.85 -7.2 9.25 L-7.4 9.15 -7.1 8.0 -6.75 7.55 -6.25 7.8 -4.1 9.25 M-9.45 46.15 Q-10.4 45.7 -10.6 44.85 -2.8 41.2 -1.65 41.0 -0.6 40.7 -2.6 41.85 -4.85 42.9 -9.25 46.15 L-9.45 46.15" fill="#fff395" fill-rule="evenodd" stroke="none"/>
    <path d="M60.75 13.45 Q62.3 18.45 61.6 24.15 L61.05 27.65 59.1 33.5 58.7 34.25 57.95 32.75 58.15 32.35 59.85 27.75 Q60.0 26.9 60.3 26.15 L60.85 22.65 Q61.45 17.8 60.5 13.55 L60.0 11.95 60.2 11.85 60.75 13.45 M51.2 41.95 L51.95 43.45 49.4 45.8 Q40.85 52.75 30.9 54.45 L30.1 52.75 31.05 52.7 33.4 52.3 38.2 50.7 Q41.7 49.2 45.0 47.0 L45.45 46.75 48.65 44.3 50.5 42.6 51.2 41.95 M0.15 42.5 L1.25 43.9 1.65 44.3 Q5.7 48.7 11.05 51.05 14.45 52.45 18.45 53.05 L19.2 54.55 18.1 54.35 Q14.7 53.8 11.8 52.55 6.45 50.2 2.4 45.8 L0.9 44.0 0.15 42.5" fill="#851100" fill-rule="evenodd" stroke="none"/>
    <path d="M8.9 33.0 L8.6 32.55 Q6.35 28.1 7.2 22.65 8.4 14.75 15.35 9.3 22.25 3.75 30.8 3.75 39.25 3.75 44.7 9.3 46.5 11.1 47.5 13.25 L47.95 14.15 Q46.9 12.3 45.45 10.85 40.0 5.3 31.55 5.3 23.0 5.3 16.1 10.85 9.15 16.3 7.95 24.15 7.2 28.95 8.9 33.0" fill="url(#gradient2)" fill-rule="evenodd" stroke="none"/>
    <path d="M-0.35 -1.2 L0.8 -0.1 0.4 0.2 0.25 0.0 Q-0.9 -0.1 -2.2 0.85 L-2.95 1.35 Q-4.2 2.2 -5.5 3.5 -7.5 5.35 -8.4 7.65 L-8.8 8.75 -9.45 8.4 Q-10.2 8.45 -9.15 6.1 -8.25 3.85 -6.25 2.0 -4.55 0.2 -2.95 -0.65 -1.65 -1.6 -0.5 -1.5 L-0.35 -1.2" fill="#8c5b00" fill-rule="evenodd" stroke="none"/>
    <path d="M-13.5 36.2 L-13.1 36.1 -12.75 37.7 -13.5 36.2" fill="#664200" fill-rule="evenodd" stroke="none"/>
    <path d="M26.1 -6.2 Q16.4 -4.7 8.2 1.8 L5.7 4.05 6.45 5.3 6.55 5.45 6.45 5.55 6.3 5.45 5.0 4.6 Q2.3 2.55 0.4 0.2 L0.8 -0.1 3.5 -2.45 Q14.35 -10.8 27.85 -12.75 27.75 -9.55 27.2 -6.4 L26.95 -4.85 26.1 -6.2 M55.3 3.4 L53.8 1.8 Q47.4 -4.7 38.2 -6.2 39.05 -9.75 40.75 -12.7 53.15 -11.0 61.7 -2.45 L63.3 -0.75 64.05 0.2 64.35 0.6 Q60.7 2.85 56.65 4.7 56.45 4.7 56.35 4.8 56.15 4.8 56.05 4.9 L55.3 3.4 M69.4 11.0 Q70.55 15.7 70.15 21.15 L70.0 22.65 Q69.15 30.2 65.65 36.85 L66.45 38.3 66.4 38.35 65.1 37.8 Q61.6 36.3 58.7 34.25 L59.1 33.5 61.05 27.65 61.6 24.15 Q62.3 18.45 60.75 13.45 65.2 11.5 69.4 11.0 M57.3 47.85 L54.45 50.4 Q43.3 59.5 29.85 61.6 29.95 58.0 30.9 54.45 40.85 52.75 49.4 45.8 L51.95 43.45 Q55.05 45.5 57.3 47.85 M16.4 62.8 Q15.55 62.25 15.45 61.6 7.3 60.25 0.9 56.15 -2.85 53.8 -5.95 50.4 L-7.75 48.35 -8.3 47.5 -8.7 46.9 Q-5.2 44.75 -1.55 43.15 L-0.15 42.6 0.15 42.5 0.9 44.0 2.4 45.8 Q6.45 50.2 11.8 52.55 14.7 53.8 18.1 54.35 L19.2 54.55 Q18.3 58.4 16.85 61.8 L16.4 62.8 M-7.85 10.25 Q-4.65 11.6 -1.65 13.55 -3.9 17.8 -4.65 22.65 -5.6 28.4 -4.4 33.4 L-3.55 34.8 -3.55 34.9 -3.85 35.0 -3.9 35.0 Q-8.4 36.75 -12.75 37.7 L-13.1 36.1 Q-14.15 30.45 -13.0 24.15 -11.8 16.65 -7.85 10.25" fill="url(#gradient3)" fill-rule="evenodd" stroke="none"/>
    <path d="M27.85 -12.75 Q14.35 -10.8 3.5 -2.45 L0.8 -0.1 -0.35 -1.2 2.75 -3.95 Q13.85 -12.6 27.1 -14.2 27.1 -13.45 27.85 -12.75 M40.65 -12.95 L40.05 -14.2 Q52.4 -12.5 60.95 -3.95 L63.6 -0.95 63.3 -0.75 61.7 -2.45 Q53.15 -11.0 40.75 -12.7 L40.75 -12.75 40.65 -12.95 M-13.5 36.2 Q-15.0 29.8 -13.8 22.65 -12.55 15.55 -9.0 9.4 L-8.6 8.85 -7.85 10.25 Q-11.8 16.65 -13.0 24.15 -14.15 30.45 -13.1 36.1 L-13.5 36.2" fill="url(#gradient4)" fill-rule="evenodd" stroke="none"/>
    <path d="M72.45 5.0 L76.75 14.85 77.6 16.75 77.8 17.3 Q80.6 24.85 79.55 33.95 77.7 51.35 62.75 64.05 47.35 76.8 28.15 76.9 8.6 76.8 -3.05 64.05 L-6.35 59.8 -8.05 57.1 -12.65 49.85 -9.85 53.3 -9.75 53.4 -4.0 58.7 Q6.55 66.5 22.05 66.55 41.7 66.5 57.4 53.4 72.6 40.45 74.6 22.65 L74.85 18.7 Q74.85 14.3 74.05 10.25 73.45 7.55 72.45 5.0" fill="url(#gradient5)" fill-rule="evenodd" stroke="none"/>
    <path d="M25.35 -4.45 L25.35 -4.5 Q23.9 -5.55 21.75 -4.7 19.2 -3.85 19.05 -2.8 L19.0 -2.65 Q15.85 -1.45 12.9 0.4 12.25 0.45 11.6 1.15 L11.45 1.3 Q10.05 2.25 8.7 3.3 L6.45 5.3 5.7 4.05 8.2 1.8 Q16.4 -4.7 26.1 -6.2 L25.7 -4.7 26.6 -4.85 25.35 -4.45 M37.05 -5.55 L37.2 -6.3 38.2 -6.2 Q47.4 -4.7 53.8 1.8 L55.3 3.4 54.85 3.6 54.65 3.7 54.3 3.3 53.05 2.1 52.7 1.5 51.85 0.85 51.3 0.5 50.45 0.0 Q45.3 -3.65 38.7 -4.7 L37.05 -5.55 M-14.9 11.45 Q-10.15 1.2 0.05 -6.75 15.2 -18.6 34.0 -18.6 52.5 -18.6 64.45 -6.75 L67.95 -2.75 65.6 -5.25 Q53.35 -17.1 34.4 -17.1 15.15 -17.1 -0.35 -5.25 -10.0 2.1 -14.9 11.45 M-2.8 18.9 Q-3.75 21.4 -4.15 24.15 -4.95 29.0 -4.2 33.35 L-4.4 33.4 Q-5.6 28.4 -4.65 22.65 -3.9 17.8 -1.65 13.55 L-1.25 12.8 -0.55 13.4 -1.25 14.85 Q-2.15 15.4 -2.55 16.85 L-2.8 18.9" fill="#fff28e" fill-rule="evenodd" stroke="none"/>
    <path d="M-11.95 50.8 L-9.85 53.3 -9.75 53.4 -4.0 58.7 Q6.55 66.5 22.05 66.55 41.7 66.5 57.4 53.4 72.6 40.45 74.6 22.65 L74.85 18.7 Q74.85 14.3 74.05 10.25 L73.1 6.85 72.45 5.0 76.75 14.85 77.6 16.75 77.8 17.3 Q80.6 24.85 79.55 33.95 77.7 51.35 62.75 64.05 47.35 76.8 28.15 76.9 8.6 76.8 -3.05 64.05 L-6.35 59.8 -8.05 57.1 -12.65 49.85 -11.95 50.8" fill="url(#gradient6)" fill-rule="evenodd" stroke="none"/>
    <path d="M-11.95 50.8 L-12.7 49.5 -10.25 52.4 -4.5 57.7 Q6.05 65.5 21.55 65.55 41.2 65.5 56.9 52.4 72.1 39.45 74.1 21.65 L74.35 17.7 Q74.35 13.3 73.55 9.25 L72.4 5.2 73.1 6.85 74.05 10.25 Q74.85 14.3 74.85 18.7 L74.6 22.65 Q72.6 40.45 57.4 53.4 41.7 66.5 22.05 66.55 6.55 66.5 -4.0 58.7 L-9.75 53.4 -9.85 53.3 -11.95 50.8" fill="#d2a60c" fill-opacity="0.0" fill-rule="evenodd" stroke="none"/>
    <path d="M-9.85 53.3 L-9.75 53.4" ffdec:has-small-stroke="true" ffdec:original-stroke-width="0.1" fill="none" stroke="#000000" stroke-linecap="round" stroke-linejoin="round" stroke-width="1.0"/>
    <path d="M74.25 9.4 L74.5 10.5 74.5 10.55 74.5 10.6 Q75.2 13.95 75.35 17.6 L75.35 17.65 75.35 19.15 75.25 21.7 75.25 21.75 75.1 23.15 74.65 26.25 74.65 26.3 Q71.7 42.4 57.8 54.4 42.0 67.75 22.25 67.8 6.65 67.75 -3.95 59.8 -7.05 57.4 -9.75 54.4 L-9.85 54.3 -10.05 54.1 -12.7 49.5 -10.25 52.4 -4.5 57.7 -3.2 58.6 Q6.95 65.5 21.55 65.55 41.2 65.5 56.9 52.4 70.2 41.05 73.4 26.05 L74.1 21.65 74.35 17.7 Q74.35 14.05 73.8 10.65 L73.55 9.25 72.4 5.2 74.25 9.4" fill="url(#gradient7)" fill-rule="evenodd" stroke="none"/>
    <path d="M15.75 13.75 L15.9 13.85 16.7 14.1 16.95 14.3 17.4 14.85 17.55 15.5 17.5 15.85 17.05 15.65 16.8 15.25 15.75 13.75 M12.15 24.15 L12.8 24.65 14.45 25.0 16.05 25.0 15.65 26.9 Q14.2 26.9 13.55 26.15 L12.15 24.15 M12.3 32.5 L12.45 32.65 12.5 32.7 13.25 33.2 13.45 33.25 14.55 33.45 16.05 33.45 17.4 33.35 18.8 33.2 20.35 33.2 21.65 33.2 23.35 33.35 25.0 33.45 27.0 33.45 Q30.25 33.35 32.75 32.35 35.15 31.45 36.95 29.95 38.65 28.2 39.65 26.25 L40.2 25.0 41.95 25.0 Q43.35 25.0 44.55 24.15 45.75 23.25 45.9 21.85 L45.9 21.2 45.95 21.25 46.4 21.55 46.5 21.65 46.95 22.3 Q47.25 22.95 47.2 23.75 47.05 25.15 45.85 26.05 44.65 26.9 43.25 26.9 L41.5 26.9 40.95 28.15 Q39.95 30.1 38.25 31.85 36.45 33.35 34.05 34.25 31.55 35.25 28.3 35.35 L26.3 35.35 24.65 35.25 22.95 35.1 21.65 35.1 20.1 35.1 18.7 35.25 17.35 35.35 15.85 35.35 14.55 35.1 13.75 34.55 13.55 34.3 12.3 32.5 M41.25 18.8 L41.05 18.8 40.85 17.95 40.6 17.05 40.1 15.85 40.6 16.35 Q41.4 17.5 41.85 18.8 L41.25 18.8 M24.1 29.5 Q23.7 28.95 23.95 27.95 L25.65 16.2 Q25.7 15.4 26.1 14.95 26.35 14.55 27.4 14.55 L29.3 14.85 Q30.25 15.1 30.9 15.95 L31.6 17.25 31.5 17.2 Q31.1 16.9 30.6 16.75 L28.7 16.45 Q27.65 16.45 27.4 16.85 27.0 17.3 26.95 18.1 L25.25 29.85 25.2 30.15 Q24.4 30.05 24.15 29.6 L24.1 29.5" fill="#895900" fill-rule="evenodd" stroke="none"/>
    <path d="M15.5 13.05 L16.95 12.6 17.6 12.4 18.0 12.35 19.2 12.25 30.35 12.25 Q33.85 12.05 36.15 13.05 38.3 13.9 39.7 15.45 L40.5 16.85 40.6 17.05 40.85 17.95 41.05 18.8 41.25 18.8 41.25 18.95 41.45 19.8 43.2 19.8 Q44.55 19.8 45.5 20.65 L45.85 21.05 45.9 21.15 45.9 21.2 45.9 21.85 Q45.75 23.25 44.55 24.15 43.35 25.0 41.95 25.0 L40.2 25.0 39.65 26.25 Q38.65 28.2 36.95 29.95 35.15 31.45 32.75 32.35 30.25 33.35 27.0 33.45 L25.0 33.45 23.35 33.35 21.65 33.2 20.35 33.2 18.8 33.2 17.4 33.35 16.05 33.45 14.55 33.45 13.45 33.25 13.25 33.2 12.5 32.7 12.45 32.65 12.3 32.5 Q12.0 32.05 12.1 31.55 12.15 30.9 12.55 30.8 12.8 30.5 13.35 30.4 L14.2 30.15 15.05 29.3 15.6 27.2 15.65 26.9 16.05 25.0 14.45 25.0 12.8 24.65 12.15 24.15 11.9 23.8 11.9 22.85 Q12.0 21.55 13.2 20.65 14.25 19.8 15.8 19.8 L15.9 19.8 17.05 18.8 17.4 16.4 17.5 15.85 17.55 15.5 17.4 14.85 16.95 14.3 16.7 14.1 15.9 13.85 15.75 13.75 15.55 13.45 15.5 13.05 M31.6 17.25 L30.9 15.95 Q30.25 15.1 29.3 14.85 L27.4 14.55 Q26.35 14.55 26.1 14.95 25.7 15.4 25.65 16.2 L23.95 27.95 Q23.7 28.95 24.1 29.5 24.1 29.9 24.35 30.2 24.6 30.65 25.4 30.75 L25.9 30.75 Q27.6 30.65 28.7 30.0 L30.55 28.45 31.45 25.95 32.0 23.45 Q32.4 20.8 32.1 19.15 L31.8 17.85 31.7 17.55 31.6 17.25" fill="url(#gradient8)" fill-rule="evenodd" stroke="none"/>
    <path d="M40.6 17.05 L40.5 16.85 39.7 15.45 Q38.3 13.9 36.15 13.05 33.85 12.05 30.35 12.25 L19.2 12.25 18.0 12.35 17.6 12.4 16.95 12.6 15.5 13.05 15.5 12.8 Q15.65 12.05 16.25 11.8 16.8 11.35 17.6 11.35 L18.8 11.25 29.95 11.25 Q33.45 11.05 35.75 12.05 37.9 12.9 39.3 14.45 L40.1 15.85 40.6 17.05 M17.05 18.8 L15.9 19.8 15.8 19.8 Q14.25 19.8 13.2 20.65 12.0 21.55 11.9 22.85 L11.9 23.8 Q11.3 22.95 11.5 21.85 11.6 20.55 12.8 19.65 13.85 18.8 15.4 18.8 L17.05 18.8 M45.9 21.15 L45.85 21.05 45.5 20.65 Q44.55 19.8 43.2 19.8 L41.45 19.8 41.25 18.95 41.25 18.8 41.85 18.8 42.8 18.8 Q44.15 18.8 45.1 19.65 L45.45 20.05 45.5 20.15 45.9 21.15 M31.7 17.55 L31.8 17.85 32.1 19.15 Q32.4 20.8 32.0 23.45 L31.45 25.95 30.55 28.45 28.7 30.0 Q27.6 30.65 25.9 30.75 L25.4 30.75 Q24.6 30.65 24.35 30.2 24.1 29.9 24.1 29.5 L24.15 29.6 Q24.4 30.05 25.2 30.15 L25.7 30.15 Q27.4 30.05 28.5 29.4 L30.35 27.85 Q31.0 26.55 31.25 25.35 L31.8 22.85 Q32.2 20.2 31.9 18.55 L31.7 17.55" fill="#fff28e" fill-rule="evenodd" stroke="none"/>
  </g>
  <defs>
    <linearGradient gradientTransform="matrix(0.0275, 0.0506, -0.0533, 0.0289, 30.4, 29.1)" gradientUnits="userSpaceOnUse" id="gradient0" spreadMethod="pad" x1="-819.2" x2="819.2">
      <stop offset="0.2627450980392157" stop-color="#bf7e00"/>
      <stop offset="0.4666666666666667" stop-color="#925200"/>
      <stop offset="1.0" stop-color="#774100"/>
    </linearGradient>
    <linearGradient gradientTransform="matrix(-0.024, 0.0502, -0.0468, -0.0224, 27.85, 24.0)" gradientUnits="userSpaceOnUse" id="gradient1" spreadMethod="pad" x1="-819.2" x2="819.2">
      <stop offset="0.0" stop-color="#d2b709"/>
      <stop offset="0.18823529411764706" stop-color="#efd402"/>
      <stop offset="0.27450980392156865" stop-color="#ffeb4f"/>
      <stop offset="0.45098039215686275" stop-color="#f7dd00"/>
      <stop offset="0.6274509803921569" stop-color="#b89b11"/>
      <stop offset="0.7843137254901961" stop-color="#e6cc04"/>
      <stop offset="0.9450980392156862" stop-color="#b89b11"/>
    </linearGradient>
    <linearGradient gradientTransform="matrix(0.0203, -0.0145, 0.0104, 0.0145, 25.05, 19.45)" gradientUnits="userSpaceOnUse" id="gradient2" spreadMethod="pad" x1="-819.2" x2="819.2">
      <stop offset="0.0" stop-color="#644100"/>
      <stop offset="0.43137254901960786" stop-color="#b47600"/>
      <stop offset="1.0" stop-color="#644100"/>
    </linearGradient>
    <radialGradient cx="0" cy="0" gradientTransform="matrix(0.0472, -0.0272, 0.0231, 0.0401, 28.2, 25.8)" gradientUnits="userSpaceOnUse" id="gradient3" r="819.2" spreadMethod="pad">
      <stop offset="0.8862745098039215" stop-color="#cf2006"/>
      <stop offset="1.0" stop-color="#901d0b"/>
    </radialGradient>
    <linearGradient gradientTransform="matrix(0.0429, -0.0247, 0.0043, 0.0075, 10.2, -2.35)" gradientUnits="userSpaceOnUse" id="gradient4" spreadMethod="pad" x1="-819.2" x2="819.2">
      <stop offset="0.0" stop-color="#644100"/>
      <stop offset="0.17647058823529413" stop-color="#a46b00"/>
      <stop offset="0.6823529411764706" stop-color="#b47600"/>
      <stop offset="1.0" stop-color="#644100"/>
    </linearGradient>
    <linearGradient gradientTransform="matrix(0.0506, -0.0292, 0.0219, 0.038, 34.75, 37.4)" gradientUnits="userSpaceOnUse" id="gradient5" spreadMethod="pad" x1="-819.2" x2="819.2">
      <stop offset="0.0" stop-color="#d1a40a"/>
      <stop offset="0.0784313725490196" stop-color="#ae6e03"/>
      <stop offset="0.1607843137254902" stop-color="#8e4f00"/>
      <stop offset="0.3568627450980392" stop-color="#a66400"/>
      <stop offset="0.6" stop-color="#f9e118"/>
      <stop offset="0.7137254901960784" stop-color="#ffef7e"/>
      <stop offset="0.8196078431372549" stop-color="#f4d917"/>
      <stop offset="1.0" stop-color="#b37500"/>
    </linearGradient>
    <radialGradient cx="0" cy="0" gradientTransform="matrix(0.0701, 0.0, 0.0, 0.0646, 30.1, 26.45)" gradientUnits="userSpaceOnUse" id="gradient6" r="819.2" spreadMethod="pad">
      <stop offset="0.7725490196078432" stop-color="#ae6e03" stop-opacity="0.0"/>
      <stop offset="1.0" stop-color="#8e4f00"/>
    </radialGradient>
    <linearGradient gradientTransform="matrix(0.0523, -0.0279, 0.0179, 0.0337, 32.55, 33.75)" gradientUnits="userSpaceOnUse" id="gradient7" spreadMethod="pad" x1="-819.2" x2="819.2">
      <stop offset="0.0" stop-color="#aa5f00"/>
      <stop offset="0.2627450980392157" stop-color="#a86600"/>
      <stop offset="0.49411764705882355" stop-color="#db9c26"/>
      <stop offset="0.7215686274509804" stop-color="#fff298"/>
      <stop offset="1.0" stop-color="#bd7b0b"/>
    </linearGradient>
    <linearGradient gradientTransform="matrix(-0.024, 0.0502, -0.0468, -0.0224, 27.05, 23.6)" gradientUnits="userSpaceOnUse" id="gradient8" spreadMethod="pad" x1="-819.2" x2="819.2">
      <stop offset="0.0" stop-color="#d2b709"/>
      <stop offset="0.18823529411764706" stop-color="#efd402"/>
      <stop offset="0.27450980392156865" stop-color="#ffeb4f"/>
      <stop offset="0.45098039215686275" stop-color="#f7dd00"/>
      <stop offset="0.6274509803921569" stop-color="#b89b11"/>
      <stop offset="0.7843137254901961" stop-color="#e6cc04"/>
      <stop offset="0.9450980392156862" stop-color="#b89b11"/>
    </linearGradient>
  </defs>
</svg>
