<?xml version="1.0" encoding="UTF-8" standalone="no"?>
<svg xmlns:ffdec="https://www.free-decompiler.com/flash" xmlns:xlink="http://www.w3.org/1999/xlink" ffdec:objectType="shape" height="29.55px" width="25.7px" xmlns="http://www.w3.org/2000/svg">
  <g transform="matrix(1.0, 0.0, 0.0, 1.0, 5.1, 4.25)">
    <path d="M15.8 7.9 Q15.8 11.15 13.45 13.45 11.15 15.8 7.9 15.8 4.65 15.8 2.3 13.45 0.0 11.15 0.0 7.9 0.0 4.65 2.3 2.3 4.65 0.0 7.9 0.0 11.15 0.0 13.45 2.3 15.8 4.65 15.8 7.9" fill="url(#gradient0)" fill-rule="evenodd" stroke="none"/>
    <path d="M7.75 -4.25 L9.25 6.2 20.6 7.05 9.45 8.8 7.75 25.3 6.05 8.8 -5.1 7.05 6.25 6.2 7.75 -4.25" fill="url(#gradient1)" fill-rule="evenodd" stroke="none"/>
  </g>
  <defs>
    <radialGradient cx="0" cy="0" gradientTransform="matrix(0.0106, 0.0, 0.0, 0.0106, 7.9, 7.9)" gradientUnits="userSpaceOnUse" id="gradient0" r="819.2" spreadMethod="pad">
      <stop offset="0.36470588235294116" stop-color="#ffffff" stop-opacity="0.7019608"/>
      <stop offset="1.0" stop-color="#ffffff" stop-opacity="0.0"/>
    </radialGradient>
    <radialGradient cx="0" cy="0" gradientTransform="matrix(0.0159, 0.0, 0.0, 0.0228, 8.25, 8.0)" gradientUnits="userSpaceOnUse" id="gradient1" r="819.2" spreadMethod="pad">
      <stop offset="0.36470588235294116" stop-color="#ffffff" stop-opacity="0.7019608"/>
      <stop offset="1.0" stop-color="#ffffff" stop-opacity="0.0"/>
    </radialGradient>
  </defs>
</svg>
