<?xml version="1.0" encoding="UTF-8" standalone="no"?>
<svg xmlns:ffdec="https://www.free-decompiler.com/flash" xmlns:xlink="http://www.w3.org/1999/xlink" ffdec:objectType="shape" height="69.3px" width="63.4px" xmlns="http://www.w3.org/2000/svg">
  <g transform="matrix(1.0, 0.0, 0.0, 1.0, 31.55, 29.4)">
    <path d="M24.9 -5.3 L0.0 0.15 14.9 23.85 M-25.25 -6.15 L0.0 0.15 0.35 -23.85 M0.0 0.15 L-15.9 23.3" fill="none" stroke="#ffffff" stroke-linecap="round" stroke-linejoin="round" stroke-width="2.0"/>
    <path d="M13.9 -19.0 Q20.95 -14.85 27.85 -14.8 28.1 24.0 0.0 35.9 -25.65 22.25 -27.55 -14.35 -21.5 -14.35 -13.5 -18.9 -5.45 -23.5 0.25 -25.4 6.8 -23.15 13.9 -19.0 Z" fill="none" stroke="#9d8f15" stroke-linecap="round" stroke-linejoin="round" stroke-width="8.0"/>
    <path d="M13.9 -20.05 Q20.95 -15.9 27.85 -15.85 28.1 22.95 0.0 34.85 -25.65 21.2 -27.55 -15.4 -21.5 -15.4 -13.5 -19.95 -5.45 -24.55 0.25 -26.45 6.8 -24.2 13.9 -20.05" fill="url(#gradient0)" fill-rule="evenodd" stroke="none"/>
    <path d="M13.9 -20.05 Q20.95 -15.9 27.85 -15.85 28.1 22.95 0.0 34.85 -25.65 21.2 -27.55 -15.4 -21.5 -15.4 -13.5 -19.95 -5.45 -24.55 0.25 -26.45 6.8 -24.2 13.9 -20.05" fill="url(#gradient1)" fill-rule="evenodd" stroke="none"/>
    <path d="M1.3 -26.0 L1.3 34.9" fill="none" stroke="#ffffff" stroke-linecap="round" stroke-linejoin="round" stroke-width="2.0"/>
    <path d="M-0.05 -26.45 L-0.05 34.45" fill="none" stroke="#9d8f15" stroke-linecap="round" stroke-linejoin="round" stroke-opacity="0.6" stroke-width="2.0"/>
    <path d="M13.9 -20.05 Q20.95 -15.9 27.85 -15.85 28.1 22.95 0.0 34.85 -25.65 21.2 -27.55 -15.4 -21.5 -15.4 -13.5 -19.95 -5.45 -24.55 0.25 -26.45 6.8 -24.2 13.9 -20.05 Z" fill="none" stroke="#dac61d" stroke-linecap="round" stroke-linejoin="round" stroke-width="3.0"/>
  </g>
  <defs>
    <radialGradient cx="0" cy="0" gradientTransform="matrix(0.0466, 0.0078, -0.0106, 0.0633, 6.25, -6.1)" gradientUnits="userSpaceOnUse" id="gradient0" r="819.2" spreadMethod="pad">
      <stop offset="0.21176470588235294" stop-color="#f4eebd"/>
      <stop offset="0.4392156862745098" stop-color="#e7db65"/>
      <stop offset="0.6549019607843137" stop-color="#d0bf28"/>
    </radialGradient>
    <radialGradient cx="0" cy="0" gradientTransform="matrix(0.1188, 0.0316, -0.0699, 0.2633, 24.9, -5.3)" gradientUnits="userSpaceOnUse" id="gradient1" r="819.2" spreadMethod="pad">
      <stop offset="0.19607843137254902" stop-color="#f4eebd" stop-opacity="0.0"/>
      <stop offset="0.2901960784313726" stop-color="#ffffff"/>
      <stop offset="0.35294117647058826" stop-color="#ffffff" stop-opacity="0.6"/>
      <stop offset="0.4392156862745098" stop-color="#f4eebd" stop-opacity="0.0"/>
    </radialGradient>
  </defs>
</svg>
