<?xml version="1.0" encoding="UTF-8" standalone="no"?>
<svg xmlns:ffdec="https://www.free-decompiler.com/flash" xmlns:xlink="http://www.w3.org/1999/xlink" ffdec:objectType="shape" height="40.95px" width="65.4px" xmlns="http://www.w3.org/2000/svg">
  <g transform="matrix(1.0, 0.0, 0.0, 1.0, 49.75, 20.2)">
    <path d="M10.75 -15.4 Q13.05 -13.0 12.5 -8.75 L12.5 9.4 Q13.15 13.9 10.8 16.5 L9.35 17.75 Q7.3 19.0 4.55 18.75 L-16.95 18.75 -29.65 18.75 -33.8 18.75 -39.0 18.75 Q-42.85 19.35 -45.25 16.6 -47.5 13.95 -47.0 9.45 L-47.0 -8.75 Q-47.15 -13.25 -44.75 -15.7 -42.45 -18.2 -39.45 -18.05 L-33.8 -18.05 -29.65 -18.05 4.95 -18.05 Q8.25 -17.95 10.75 -15.4" fill="url(#gradient0)" fill-rule="evenodd" stroke="none"/>
    <path d="M10.65 -15.5 Q8.65 -17.4 5.95 -17.8 L-40.0 -17.8 Q-42.7 -17.4 -44.75 -15.5 -47.15 -13.15 -47.3 -9.9 L-47.3 10.4 Q-47.15 13.65 -44.75 15.9 -42.55 18.05 -39.6 18.3 L5.55 18.3 Q7.0 18.2 8.4 17.55 L10.65 15.9 11.75 14.7 Q13.15 12.85 13.2 10.4 L13.2 -9.9 Q13.1 -13.15 10.65 -15.5 Z" fill="none" stroke="#ff9900" stroke-linecap="round" stroke-linejoin="round" stroke-width="2.0"/>
    <path d="M7.2 -19.2 L-41.25 -19.2 Q-44.0 -18.75 -46.15 -16.7 -48.6 -14.2 -48.75 -10.65 L-48.75 11.2 Q-48.6 14.7 -46.15 17.15 -43.85 19.45 -40.8 19.75 L6.75 19.75 9.7 18.95 Q11.0 18.3 12.05 17.15 L13.15 15.85 Q14.6 13.85 14.65 11.2 L14.65 -10.65 Q14.55 -14.2 12.05 -16.7 9.95 -18.75 7.2 -19.2 Z" fill="none" stroke="#ffc023" stroke-linecap="round" stroke-linejoin="round" stroke-width="2.0"/>
  </g>
  <defs>
    <linearGradient gradientTransform="matrix(0.0, -0.06, 0.0208, 0.0, -34.2, 0.4)" gradientUnits="userSpaceOnUse" id="gradient0" spreadMethod="pad" x1="-819.2" x2="819.2">
      <stop offset="0.2784313725490196" stop-color="#ffcc33"/>
      <stop offset="0.40784313725490196" stop-color="#ffff8b"/>
      <stop offset="0.47058823529411764" stop-color="#ffff8b"/>
      <stop offset="0.7372549019607844" stop-color="#ffff8b"/>
      <stop offset="0.8941176470588236" stop-color="#ffcc33"/>
      <stop offset="0.9725490196078431" stop-color="#ffcc33"/>
    </linearGradient>
  </defs>
</svg>
