<?xml version="1.0" encoding="UTF-8" standalone="no"?>
<svg xmlns:ffdec="https://www.free-decompiler.com/flash" xmlns:xlink="http://www.w3.org/1999/xlink" ffdec:objectType="shape" height="103.45px" width="127.7px" xmlns="http://www.w3.org/2000/svg">
  <g transform="matrix(1.0, 0.0, 0.0, 1.0, -5.55, -4.45)">
    <path d="M112.85 83.6 L113.55 83.7 113.5 85.05 113.35 89.4 113.25 92.05 113.25 92.2 113.2 92.75 113.25 92.75 113.55 92.75 114.75 92.9 114.7 97.45 110.55 96.9 111.1 83.35 112.85 83.6 M130.5 99.65 L126.6 99.1 126.65 94.35 128.35 94.55 128.4 94.0 128.5 90.85 128.65 88.1 128.75 86.5 128.75 85.75 129.3 85.8 131.55 83.0 130.5 99.65 M122.6 98.55 L118.6 98.0 118.55 93.35 121.6 93.75 121.65 93.75 122.0 93.8 122.65 93.85 122.6 98.55" fill="#00c08f" fill-rule="evenodd" stroke="none"/>
    <path d="M133.25 76.5 L131.95 97.05 130.5 99.65 131.55 83.0 129.3 85.8 Q131.25 83.25 133.2 76.6 L133.25 76.5" fill="#0de2ad" fill-rule="evenodd" stroke="none"/>
    <path d="M117.3 84.2 L120.15 84.55 120.1 85.4 123.75 85.85 127.6 86.35 128.75 86.5 128.65 88.1 127.8 88.0 124.2 87.55 120.6 87.1 116.9 86.65 116.8 86.8 116.8 86.5 117.2 86.05 117.25 85.5 117.2 85.5 117.25 85.45 117.3 84.2" fill="#005842" fill-rule="evenodd" stroke="none"/>
    <path d="M113.95 89.5 L115.75 87.6 116.8 86.5 116.8 86.8 115.05 89.35 115.05 89.4 113.25 92.05 113.35 89.4 113.95 89.5 M116.85 85.85 L116.85 85.9 116.8 85.9 116.85 85.85" fill="#009570" fill-rule="evenodd" stroke="none"/>
    <path d="M128.75 86.5 L127.6 86.35 127.6 85.6 128.75 85.75 128.75 86.5 M117.8 92.75 L117.5 92.7 119.1 89.8 123.0 90.25 121.65 93.2 117.8 92.75" fill="#d92d25" fill-rule="evenodd" stroke="none"/>
    <path d="M121.65 93.2 L123.0 90.25 126.75 90.65 125.6 93.65 121.95 93.25 121.65 93.2 M121.6 93.75 L121.6 93.65 121.6 93.75" fill="#0e67dc" fill-rule="evenodd" stroke="none"/>
    <path d="M117.5 92.7 L117.5 93.25 114.75 92.9 113.55 92.75 113.55 92.25 117.5 92.7 M117.8 93.3 L117.8 92.75 121.65 93.2 121.65 93.75 121.6 93.75 118.55 93.35 117.8 93.3 M121.6 93.75 L121.6 93.65 121.6 93.75 M121.95 93.25 L125.6 93.65 125.6 94.2 125.55 94.2 125.55 94.15 125.55 94.2 122.65 93.85 122.0 93.8 121.95 93.25 M125.9 93.7 L128.4 94.0 128.35 94.55 126.65 94.35 125.95 94.25 125.9 93.7" fill="#ffffff" fill-rule="evenodd" stroke="none"/>
    <path d="M119.1 89.8 L117.5 92.7 113.55 92.25 113.25 92.2 113.25 92.05 115.05 89.4 115.05 89.35 119.1 89.8 M115.0 90.1 L115.0 90.05 115.0 90.1" fill="#0aaa3b" fill-rule="evenodd" stroke="none"/>
    <path d="M116.8 86.8 L116.9 86.65 120.6 87.1 119.1 89.8 115.05 89.35 116.8 86.8 M125.6 93.65 L126.75 90.65 128.5 90.85 128.4 94.0 125.9 93.7 125.6 93.65" fill="#ffa825" fill-rule="evenodd" stroke="none"/>
    <path d="M120.6 87.1 L124.2 87.55 123.0 90.25 119.1 89.8 120.6 87.1" fill="#22c1f4" fill-rule="evenodd" stroke="none"/>
    <path d="M124.2 87.55 L127.8 88.0 126.75 90.65 123.0 90.25 124.2 87.55" fill="#f949ec" fill-rule="evenodd" stroke="none"/>
    <path d="M120.15 84.55 L121.2 84.7 123.75 85.05 123.75 85.85 120.1 85.4 120.15 84.55 M127.8 88.0 L128.65 88.1 128.5 90.85 126.75 90.65 127.8 88.0" fill="#112d4f" fill-rule="evenodd" stroke="none"/>
    <path d="M115.95 84.0 L117.05 84.15 117.3 84.2 117.25 85.45 117.2 85.5 117.25 85.5 117.2 86.05 116.8 86.5 115.75 87.6 115.95 84.0 M116.85 85.85 L116.8 85.9 116.85 85.9 116.85 85.85" fill="#009102" fill-rule="evenodd" stroke="none"/>
    <path d="M115.55 83.95 L115.95 84.0 115.75 87.6 113.95 89.5 114.1 85.15 114.2 85.15 115.55 83.95" fill="#fc1888" fill-rule="evenodd" stroke="none"/>
    <path d="M114.15 83.75 L115.55 83.95 114.2 85.15 114.1 85.15 114.15 83.75" fill="#fe5966" fill-rule="evenodd" stroke="none"/>
    <path d="M113.5 85.05 L114.1 85.15 113.95 89.5 113.35 89.4 113.5 85.05" fill="#c60057" fill-rule="evenodd" stroke="none"/>
    <path d="M113.55 83.7 L114.15 83.75 114.1 85.15 113.5 85.05 113.55 83.7" fill="#e23e4b" fill-rule="evenodd" stroke="none"/>
    <path d="M113.55 92.25 L113.55 92.75 113.25 92.75 113.2 92.75 113.25 92.2 113.55 92.25" fill="#008328" fill-rule="evenodd" stroke="none"/>
    <path d="M117.5 92.7 L117.8 92.75 117.8 93.3 117.5 93.25 117.5 92.7" fill="#b6110a" fill-rule="evenodd" stroke="none"/>
    <path d="M121.65 93.75 L121.65 93.2 121.95 93.25 122.0 93.8 121.65 93.75" fill="#0049aa" fill-rule="evenodd" stroke="none"/>
    <path d="M125.6 94.2 L125.6 93.65 125.9 93.7 125.95 94.25 125.6 94.2" fill="#de7a00" fill-rule="evenodd" stroke="none"/>
    <path d="M123.75 85.85 L123.75 85.05 125.3 85.25 127.6 85.6 127.6 86.35 123.75 85.85" fill="#ee620a" fill-rule="evenodd" stroke="none"/>
    <path d="M126.6 99.1 L122.6 98.55 122.65 93.85 125.55 94.2 125.6 94.2 125.95 94.25 126.65 94.35 126.6 99.1 M118.6 98.0 L114.7 97.45 114.75 92.9 117.5 93.25 117.8 93.3 118.55 93.35 118.6 98.0" fill="#d0e6ea" fill-rule="evenodd" stroke="none"/>
    <path d="M117.35 74.75 L121.3 75.15 Q119.95 80.8 117.05 84.15 L115.95 84.0 115.55 83.95 114.15 83.75 113.55 83.7 112.85 83.6 Q115.85 80.1 117.35 74.75 M125.25 75.6 L129.2 76.05 Q127.85 81.6 125.3 85.25 L123.75 85.05 121.2 84.7 Q123.75 82.0 125.25 75.6" fill="url(#gradient0)" fill-rule="evenodd" stroke="none"/>
    <path d="M117.35 74.75 Q115.85 80.1 112.85 83.6 L111.1 83.35 108.6 83.05 Q111.95 79.7 113.35 75.05 L113.4 74.8 113.55 74.3 117.35 74.75 M117.05 84.15 Q119.95 80.8 121.3 75.15 L125.25 75.6 Q123.75 82.0 121.2 84.7 L120.15 84.55 117.3 84.2 117.05 84.15 M129.2 76.05 L133.2 76.5 133.25 76.5 133.2 76.6 Q131.25 83.25 129.3 85.8 L128.75 85.75 127.6 85.6 125.3 85.25 Q127.85 81.6 129.2 76.05" fill="url(#gradient1)" fill-rule="evenodd" stroke="none"/>
    <path d="M82.5 23.6 L82.5 29.35 M57.05 9.55 L60.1 25.1" fill="none" stroke="#ffffff" stroke-linecap="round" stroke-linejoin="round" stroke-width="1.5"/>
    <path d="M58.6 31.9 L58.7 31.85 58.7 31.9 58.6 31.9" fill="#fcdf1a" fill-rule="evenodd" stroke="none"/>
    <path d="M59.0 31.8 L58.7 31.9 58.7 31.85 59.0 31.8" fill="#f8b911" fill-rule="evenodd" stroke="none"/>
    <path d="M92.55 94.75 Q74.2 99.5 51.25 107.9 L65.35 90.05 92.55 94.75" fill="#ffe74a" fill-rule="evenodd" stroke="none"/>
    <path d="M11.35 42.25 Q9.8 32.3 7.9 22.55 23.2 33.75 37.55 47.0 L44.1 53.2 46.65 72.85 Q29.7 55.45 11.35 42.25" fill="#e7b511" fill-rule="evenodd" stroke="none"/>
    <path d="M44.1 53.2 L59.95 42.9 62.25 63.0 46.65 72.85 44.1 53.2" fill="#fbf864" fill-rule="evenodd" stroke="none"/>
    <path d="M51.25 107.9 Q35.4 90.9 15.3 73.95 13.75 57.85 11.35 42.25 29.7 55.45 46.65 72.85 L51.25 107.9 M7.9 22.55 L5.55 11.15 14.95 18.35 15.5 18.75 16.3 19.4 27.65 28.65 27.9 28.9 28.5 29.4 35.65 35.55 40.05 39.5 40.35 39.75 42.6 41.8 44.1 53.2 37.55 47.0 Q23.2 33.75 7.9 22.55" fill="url(#gradient2)" fill-rule="evenodd" stroke="none"/>
    <path d="M93.95 29.7 L93.25 41.9 59.95 42.9 58.7 31.9 59.0 31.8 93.95 29.7 M92.55 63.0 Q92.2 78.55 92.55 94.75 L65.35 90.05 62.25 63.0 92.55 63.0" fill="url(#gradient3)" fill-rule="evenodd" stroke="none"/>
    <path d="M46.65 72.85 L62.25 63.0 65.35 90.05 51.25 107.9 46.65 72.85" fill="url(#gradient4)" fill-rule="evenodd" stroke="none"/>
    <path d="M93.25 41.9 Q92.75 52.3 92.55 63.0 L62.25 63.0 59.95 42.9 93.25 41.9" fill="#fce93d" fill-rule="evenodd" stroke="none"/>
    <path d="M5.55 11.15 L31.8 11.55 32.9 18.85 35.65 35.55 28.5 29.4 27.9 28.9 27.65 28.65 16.3 19.4 15.5 18.75 14.95 18.35 5.55 11.15" fill="url(#gradient5)" fill-rule="evenodd" stroke="none"/>
    <path d="M31.8 11.55 L46.95 4.45 47.9 12.25 51.05 36.6 42.6 41.8 40.35 39.75 40.05 39.5 35.65 35.55 32.9 18.85 31.8 11.55" fill="url(#gradient6)" fill-rule="evenodd" stroke="none"/>
    <path d="M46.95 4.45 Q67.95 18.55 93.95 29.7 L59.0 31.8 58.7 31.85 58.6 31.9 51.05 36.6 47.9 12.25 46.95 4.45" fill="url(#gradient7)" fill-rule="evenodd" stroke="none"/>
    <path d="M58.7 31.9 L59.95 42.9 44.1 53.2 42.6 41.8 51.05 36.6 58.6 31.9 58.7 31.9" fill="url(#gradient8)" fill-rule="evenodd" stroke="none"/>
  </g>
  <defs>
    <linearGradient gradientTransform="matrix(7.0E-4, -0.0048, 0.0058, 9.0E-4, 125.15, 80.45)" gradientUnits="userSpaceOnUse" id="gradient0" spreadMethod="pad" x1="-819.2" x2="819.2">
      <stop offset="0.0" stop-color="#f0fdff"/>
      <stop offset="1.0" stop-color="#daedf0"/>
    </linearGradient>
    <linearGradient gradientTransform="matrix(7.0E-4, -0.0048, 0.0059, 8.0E-4, 129.25, 80.9)" gradientUnits="userSpaceOnUse" id="gradient1" spreadMethod="pad" x1="-819.2" x2="819.2">
      <stop offset="0.2901960784313726" stop-color="#12fdca"/>
      <stop offset="1.0" stop-color="#00e5a3"/>
    </linearGradient>
    <radialGradient cx="0" cy="0" gradientTransform="matrix(0.0385, -0.0065, 0.0095, 0.0564, 36.8, 39.2)" gradientUnits="userSpaceOnUse" id="gradient2" r="819.2" spreadMethod="pad">
      <stop offset="0.29411764705882354" stop-color="#f49600"/>
      <stop offset="1.0" stop-color="#e07b00"/>
    </radialGradient>
    <radialGradient cx="0" cy="0" gradientTransform="matrix(0.0326, 0.0, 0.0, 0.0536, 86.0, 33.6)" gradientUnits="userSpaceOnUse" id="gradient3" r="819.2" spreadMethod="pad">
      <stop offset="0.29411764705882354" stop-color="#fcc61f"/>
      <stop offset="1.0" stop-color="#f4b70f"/>
    </radialGradient>
    <radialGradient cx="0" cy="0" gradientTransform="matrix(0.0161, -0.0012, 0.0051, 0.0685, 56.4, 38.8)" gradientUnits="userSpaceOnUse" id="gradient4" r="819.2" spreadMethod="pad">
      <stop offset="0.29411764705882354" stop-color="#fff510"/>
      <stop offset="0.9921568627450981" stop-color="#f8cd02"/>
    </radialGradient>
    <radialGradient cx="0" cy="0" gradientTransform="matrix(0.0327, 0.0, 0.0, 0.0088, 25.2, 12.8)" gradientUnits="userSpaceOnUse" id="gradient5" r="819.2" spreadMethod="pad">
      <stop offset="0.29411764705882354" stop-color="#de7a00"/>
      <stop offset="1.0" stop-color="#b65000"/>
    </radialGradient>
    <radialGradient cx="0" cy="0" gradientTransform="matrix(0.0198, -0.008, 0.0033, 0.008, 38.2, 8.6)" gradientUnits="userSpaceOnUse" id="gradient6" r="819.2" spreadMethod="pad">
      <stop offset="0.29411764705882354" stop-color="#ffcb20"/>
      <stop offset="1.0" stop-color="#e29500"/>
    </radialGradient>
    <radialGradient cx="0" cy="0" gradientTransform="matrix(0.0491, 0.0279, -0.0033, 0.0058, 71.2, 20.0)" gradientUnits="userSpaceOnUse" id="gradient7" r="819.2" spreadMethod="pad">
      <stop offset="0.29411764705882354" stop-color="#cd7000"/>
      <stop offset="1.0" stop-color="#a65200"/>
    </radialGradient>
    <radialGradient cx="0" cy="0" gradientTransform="matrix(0.0161, -0.0012, 0.0051, 0.0685, 56.4, 38.8)" gradientUnits="userSpaceOnUse" id="gradient8" r="819.2" spreadMethod="pad">
      <stop offset="0.26666666666666666" stop-color="#fde70b"/>
      <stop offset="0.9921568627450981" stop-color="#f8cd02"/>
    </radialGradient>
  </defs>
</svg>
