<?xml version="1.0" encoding="UTF-8" standalone="no"?>
<svg xmlns:ffdec="https://www.free-decompiler.com/flash" xmlns:xlink="http://www.w3.org/1999/xlink" ffdec:objectType="shape" height="29.55px" width="65.85px" xmlns="http://www.w3.org/2000/svg">
  <g transform="matrix(1.0, 0.0, 0.0, 1.0, 0.0, 0.0)">
    <path d="M62.8 18.15 L62.85 18.15 63.0 18.1 65.55 18.05 65.85 18.25 61.2 18.55 62.15 18.3 62.8 18.15 M34.5 25.3 L27.65 29.55 25.4 27.5 34.5 25.3" fill="url(#gradient0)" fill-rule="evenodd" stroke="none"/>
    <path d="M62.85 18.15 L62.8 18.15 Q62.3 17.0 61.4 16.55 56.1 12.7 50.2 10.25 L47.7 9.95 47.6 9.35 50.0 9.65 Q55.9 12.1 61.2 15.95 62.35 16.5 62.85 18.15" fill="#5ad5d5" fill-rule="evenodd" stroke="none"/>
    <path d="M63.0 18.1 L62.85 18.15 Q62.35 16.5 61.2 15.95 55.9 12.1 50.0 9.65 L47.6 9.35 47.5 9.35 47.3 9.35 46.35 9.5 12.95 16.65 12.7 16.4 34.3 11.8 46.4 9.2 46.45 9.2 47.4 9.05 47.5 9.05 50.1 9.35 Q56.0 11.8 61.3 15.65 62.55 16.25 63.0 18.1 M35.45 24.75 L34.5 25.3 25.4 27.5 25.1 27.25 35.45 24.75" fill="#2a91aa" fill-rule="evenodd" stroke="none"/>
    <path d="M62.8 18.15 L62.15 18.3 61.2 18.55 43.75 19.6 35.75 24.55 34.4 12.7 46.55 10.1 47.5 9.95 47.7 9.95 50.2 10.25 Q56.1 12.7 61.4 16.55 62.3 17.0 62.8 18.15" fill="url(#gradient1)" fill-rule="evenodd" stroke="none"/>
    <path d="M47.4 8.9 L47.4 9.05 46.45 9.2 46.4 9.2 34.3 11.8 33.1 1.0 33.25 1.0 Q34.15 1.05 37.6 2.55 41.0 4.0 46.75 8.2 L47.4 8.9" fill="url(#gradient2)" fill-rule="evenodd" stroke="none"/>
    <path d="M47.6 9.35 L47.7 9.95 47.5 9.95 46.55 10.1 34.4 12.7 13.55 17.15 12.95 16.65 46.35 9.5 47.3 9.35 47.5 9.35 47.6 9.35 M47.4 8.7 L47.4 8.9 46.75 8.2 Q41.0 4.0 37.6 2.55 34.15 1.05 33.25 1.0 L33.1 1.0 31.55 1.3 18.25 7.6 1.35 7.15 0.55 6.5 18.05 7.0 31.35 0.7 33.0 0.4 33.05 0.4 Q33.95 0.45 37.4 1.95 40.8 3.4 46.55 7.6 L47.4 8.7" fill="#44c5c7" fill-rule="evenodd" stroke="none"/>
    <path d="M0.55 6.5 L0.0 6.1 17.95 6.6 31.25 0.3 32.95 0.0 Q33.9 0.1 37.3 1.55 40.7 3.0 46.45 7.2 47.3 7.9 47.4 8.7 L46.55 7.6 Q40.8 3.4 37.4 1.95 33.95 0.45 33.05 0.4 L33.0 0.4 31.35 0.7 18.05 7.0 0.55 6.5" fill="#32a0b2" fill-rule="evenodd" stroke="none"/>
    <path d="M34.3 11.8 L12.7 16.4 1.35 7.15 18.25 7.6 31.55 1.3 33.1 1.0 34.3 11.8" fill="url(#gradient3)" fill-rule="evenodd" stroke="none"/>
    <path d="M34.4 12.7 L35.75 24.55 35.45 24.75 25.1 27.25 13.55 17.15 34.4 12.7" fill="url(#gradient4)" fill-rule="evenodd" stroke="none"/>
    <path d="M35.05 2.5 L37.0 3.8 Q41.0 5.75 38.35 7.1 L26.85 10.3 18.4 12.25 Q15.55 12.7 15.2 13.05 L16.7 13.0 13.05 13.75 Q12.55 11.95 20.1 10.75 39.35 7.8 35.05 2.5 M30.95 23.1 L25.7 24.6 Q25.6 22.85 33.45 20.75 54.35 17.65 50.8 12.35 52.4 13.15 54.65 14.7 56.85 16.2 44.5 19.1 L44.45 19.1 42.2 19.65 Q31.85 22.1 29.8 22.9 27.5 23.7 30.95 23.1" fill="#ffffff" fill-opacity="0.4" fill-rule="evenodd" stroke="none"/>
    <path d="M16.7 13.0 L15.2 13.05 Q15.55 12.7 18.4 12.25 L26.85 10.3 38.35 7.1 Q41.0 5.75 37.0 3.8 L35.05 2.5 Q38.9 3.75 41.25 5.4 43.6 7.05 41.0 8.1 L28.55 10.8 16.7 13.0 M50.8 12.35 Q51.95 12.2 56.05 14.35 60.15 16.45 57.7 17.1 L48.8 19.25 43.75 19.55 41.75 20.75 31.1 23.05 31.05 23.05 31.1 23.05 30.95 23.1 Q27.5 23.7 29.8 22.9 31.85 22.1 42.2 19.65 L44.45 19.1 44.5 19.1 Q56.85 16.2 54.65 14.7 52.4 13.15 50.8 12.35" fill="#ffffff" fill-rule="evenodd" stroke="none"/>
  </g>
  <defs>
    <radialGradient cx="0" cy="0" gradientTransform="matrix(0.0327, 0.0, 0.0, 0.0146, 51.25, 23.35)" gradientUnits="userSpaceOnUse" id="gradient0" r="819.2" spreadMethod="pad">
      <stop offset="0.5490196078431373" stop-color="#9dfcfc"/>
      <stop offset="0.7686274509803922" stop-color="#48cbcb"/>
      <stop offset="1.0" stop-color="#2a91aa"/>
    </radialGradient>
    <radialGradient cx="0" cy="0" gradientTransform="matrix(0.0371, -0.0021, 8.0E-4, 0.0139, 37.25, 14.55)" gradientUnits="userSpaceOnUse" id="gradient1" r="819.2" spreadMethod="pad">
      <stop offset="0.5490196078431373" stop-color="#6ee1ec"/>
      <stop offset="0.7686274509803922" stop-color="#48cbcb"/>
      <stop offset="1.0" stop-color="#2a91aa"/>
    </radialGradient>
    <radialGradient cx="0" cy="0" gradientTransform="matrix(0.0325, -0.004, 0.0016, 0.013, 24.65, 5.35)" gradientUnits="userSpaceOnUse" id="gradient2" r="819.2" spreadMethod="pad">
      <stop offset="0.5490196078431373" stop-color="#6ee1ec"/>
      <stop offset="0.7686274509803922" stop-color="#48cbcb"/>
      <stop offset="1.0" stop-color="#2a91aa"/>
    </radialGradient>
    <radialGradient cx="0" cy="0" gradientTransform="matrix(0.0325, -0.004, 0.0016, 0.013, 24.65, 5.35)" gradientUnits="userSpaceOnUse" id="gradient3" r="819.2" spreadMethod="pad">
      <stop offset="0.5490196078431373" stop-color="#62d5e0"/>
      <stop offset="0.7686274509803922" stop-color="#3dbfbf"/>
      <stop offset="1.0" stop-color="#2a91aa"/>
    </radialGradient>
    <radialGradient cx="0" cy="0" gradientTransform="matrix(0.0371, -0.0021, 8.0E-4, 0.0139, 37.25, 14.55)" gradientUnits="userSpaceOnUse" id="gradient4" r="819.2" spreadMethod="pad">
      <stop offset="0.5490196078431373" stop-color="#62d5e0"/>
      <stop offset="0.7803921568627451" stop-color="#36bfbf"/>
      <stop offset="1.0" stop-color="#2a91aa"/>
    </radialGradient>
  </defs>
</svg>
