<?xml version="1.0" encoding="UTF-8" standalone="no"?>
<svg xmlns:ffdec="https://www.free-decompiler.com/flash" xmlns:xlink="http://www.w3.org/1999/xlink" ffdec:objectType="shape" height="10.05px" width="7.7px" xmlns="http://www.w3.org/2000/svg">
  <g transform="matrix(1.0, 0.0, 0.0, 1.0, 0.0, 0.0)">
    <path d="M0.25 0.2 L3.4 0.5 Q5.15 0.8 5.55 1.05 L6.2 1.85 Q6.45 2.45 5.1 4.55 L2.95 7.8 Q7.05 3.25 7.25 2.0 7.45 0.65 5.75 0.5 L3.0 0.2 1.7 0.05 1.5 0.05 6.05 0.2 6.9 0.45 Q8.2 0.85 7.45 2.65 5.75 5.55 2.3 9.05 L1.65 9.7 0.95 9.9 0.8 10.05 Q0.2 10.2 1.4 8.5 L2.85 7.35 Q4.55 5.25 5.0 3.2 5.4 1.1 0.25 0.2 M1.8 9.15 L1.95 9.0 2.45 8.15 1.35 9.35 1.55 9.3 Q1.65 9.2 1.8 9.15" fill="#ffffff" fill-opacity="0.4" fill-rule="evenodd" stroke="none"/>
    <path d="M1.5 0.05 L1.7 0.05 3.0 0.2 5.75 0.5 Q7.45 0.65 7.25 2.0 7.05 3.25 2.95 7.8 L5.1 4.55 Q6.45 2.45 6.2 1.85 L5.55 1.05 Q5.15 0.8 3.4 0.5 L0.25 0.2 0.0 0.1 0.6 0.0 0.9 0.0 1.5 0.05 M1.8 9.15 Q1.65 9.2 1.55 9.3 L1.35 9.35 2.45 8.15 1.95 9.0 1.8 9.15" fill="#ffffff" fill-rule="evenodd" stroke="none"/>
  </g>
</svg>
