<?xml version="1.0" encoding="UTF-8" standalone="no"?>
<svg xmlns:ffdec="https://www.free-decompiler.com/flash" xmlns:xlink="http://www.w3.org/1999/xlink" ffdec:objectType="shape" height="36.25px" width="36.35px" xmlns="http://www.w3.org/2000/svg">
  <g transform="matrix(1.0, 0.0, 0.0, 1.0, -29.65, 0.0)">
    <path d="M59.95 23.5 L59.55 11.45 59.5 11.1 62.5 12.9 62.5 25.05 59.95 23.5" fill="url(#gradient0)" fill-rule="evenodd" stroke="none"/>
    <path d="M59.0 10.8 L59.55 23.65 62.5 25.6 62.5 26.95 58.45 24.3 58.3 21.25 57.85 11.95 57.75 10.05 59.0 10.8" fill="#70776d" fill-rule="evenodd" stroke="none"/>
    <path d="M59.5 11.1 L59.55 11.45 59.95 23.5 59.55 23.65 59.0 10.8 59.5 11.1" fill="#5f645d" fill-rule="evenodd" stroke="none"/>
    <path d="M59.55 23.65 L59.95 23.5 62.5 25.05 62.5 25.6 59.55 23.65" fill="#858783" fill-rule="evenodd" stroke="none"/>
    <path d="M58.3 21.25 L58.45 24.3 62.5 26.95 62.5 27.55 38.3 35.5 34.35 31.9 32.9 18.9 48.55 14.5 58.3 21.25" fill="url(#gradient1)" fill-rule="evenodd" stroke="none"/>
    <path d="M57.85 11.95 L58.3 21.25 48.55 14.5 57.85 11.95" fill="url(#gradient2)" fill-rule="evenodd" stroke="none"/>
    <path d="M57.85 11.95 L58.45 24.3 62.5 26.95 62.5 27.55 38.3 35.5 34.35 31.9 32.9 18.9 57.85 11.95" fill="url(#gradient3)" fill-rule="evenodd" stroke="none"/>
    <path d="M58.25 27.45 L58.25 28.1 43.6 33.2 43.55 32.5 58.25 27.45" fill="#2c6cb9" fill-rule="evenodd" stroke="none"/>
    <path d="M43.6 33.2 L39.9 29.25 39.85 28.5 43.55 32.5 43.6 33.2" fill="#1e5496" fill-rule="evenodd" stroke="none"/>
    <path d="M39.85 28.5 L53.95 23.75 58.25 27.45 43.55 32.5 39.85 28.5" fill="#3e88df" fill-rule="evenodd" stroke="none"/>
    <path d="M53.95 28.1 Q54.2 24.6 53.1 24.3 52.55 24.15 52.7 17.9 L52.65 17.45 54.4 16.9 Q53.7 21.0 54.05 22.55 54.35 24.25 54.6 24.85 L54.5 27.4 54.4 28.45 53.9 28.6 53.95 28.1 M58.35 16.05 L58.4 15.65 59.4 15.35 59.85 16.55 Q60.25 17.45 60.25 18.1 60.25 18.65 58.5 20.45 L56.7 22.4 Q56.7 23.0 57.6 23.6 58.55 24.2 58.55 25.1 58.55 26.2 58.05 26.95 L57.7 27.35 55.1 28.2 55.35 27.75 56.5 25.65 56.95 24.5 Q56.95 23.6 56.6 23.4 L55.65 22.75 57.75 20.75 Q58.6 20.15 58.85 19.35 L58.35 16.05 M49.55 27.85 L46.7 24.85 Q46.5 24.6 46.85 23.55 47.55 21.15 45.9 19.6 L47.05 19.2 48.2 21.35 47.05 23.7 48.15 24.6 49.35 25.95 49.55 27.85 M40.9 24.75 Q40.85 23.7 41.15 22.65 41.5 21.45 42.3 20.7 L43.6 20.3 42.95 21.8 41.75 25.35 Q41.75 25.95 41.9 26.0 L42.35 26.0 Q46.25 23.55 46.25 28.5 46.25 30.3 45.3 31.4 L43.5 32.0 44.45 27.1 44.4 26.3 44.1 26.25 Q42.2 26.95 41.1 26.7 L40.9 24.75" fill="url(#gradient4)" fill-rule="evenodd" stroke="none"/>
    <path d="M63.8 14.2 L64.0 27.65 62.5 28.15 62.25 14.7 63.8 14.2 M39.75 35.45 L39.8 35.65 38.0 36.25 36.55 23.05 38.4 22.45 39.75 35.45" fill="#b4bab8" fill-rule="evenodd" stroke="none"/>
    <path d="M62.5 28.15 L62.2 27.95 61.9 14.8 62.25 14.7 62.5 28.15 M38.0 36.25 L34.0 32.55 34.0 32.5 32.3 18.4 36.55 23.05 38.0 36.25 M33.85 20.55 L33.25 19.85 34.7 31.55 36.75 33.55 36.7 32.8 35.5 22.45 33.85 20.55" fill="#878e84" fill-rule="evenodd" stroke="none"/>
    <path d="M62.2 27.95 L51.75 31.5 50.9 18.35 52.1 18.0 52.95 28.95 53.0 29.35 61.05 26.7 60.7 15.2 61.9 14.8 62.2 27.95 M51.55 31.55 L39.75 35.45 38.4 22.45 39.9 21.95 41.0 32.85 41.05 33.2 50.1 30.3 49.35 18.9 50.65 18.45 51.55 31.55" fill="#d8dad2" fill-rule="evenodd" stroke="none"/>
    <path d="M49.0 18.6 L49.3 18.55 49.35 18.9 50.1 30.3 49.7 30.05 49.0 18.6 M60.35 15.05 L60.7 14.95 60.7 15.2 61.05 26.7 60.6 26.45 60.35 15.05" fill="#a4aaa8" fill-rule="evenodd" stroke="none"/>
    <path d="M52.1 18.0 L52.05 17.65 60.35 15.05 60.6 26.45 52.95 28.95 52.1 18.0" fill="url(#gradient5)" fill-rule="evenodd" stroke="none"/>
    <path d="M52.95 28.95 L60.6 26.45 61.05 26.7 53.0 29.35 52.95 28.95 M41.0 32.85 L49.7 30.05 50.1 30.3 41.05 33.2 41.0 32.85" fill="#e4e5e1" fill-rule="evenodd" stroke="none"/>
    <path d="M39.9 21.95 L39.85 21.55 49.0 18.6 49.7 30.05 41.0 32.85 39.9 21.95" fill="url(#gradient6)" fill-rule="evenodd" stroke="none"/>
    <path d="M32.25 18.15 L30.85 16.5 29.65 8.2 Q30.9 12.95 32.85 17.0 L33.35 17.95 33.6 18.45 35.4 21.55 35.75 22.1 32.25 18.15" fill="#db5700" fill-rule="evenodd" stroke="none"/>
    <path d="M34.7 31.55 L33.25 19.85 33.85 20.55 35.2 31.4 34.7 31.55" fill="#697264" fill-rule="evenodd" stroke="none"/>
    <path d="M35.2 31.4 L33.85 20.55 35.5 22.45 36.7 32.8 35.2 31.4" fill="url(#gradient7)" fill-rule="evenodd" stroke="none"/>
    <path d="M34.7 31.55 L35.2 31.4 36.7 32.8 36.75 33.55 34.7 31.55" fill="#9ca19a" fill-rule="evenodd" stroke="none"/>
    <path d="M61.6 13.85 L57.55 15.15 Q52.65 9.3 50.75 2.4 L54.95 1.2 Q56.85 8.4 61.6 13.85 M53.4 16.45 L49.35 17.75 Q44.9 11.8 42.35 4.7 L46.55 3.55 Q48.05 7.9 50.15 11.6 L50.45 12.1 53.4 16.45 M45.05 19.15 L40.35 20.65 Q36.55 14.6 33.95 7.05 L38.15 5.9 Q40.65 13.25 45.05 19.15" fill="url(#gradient8)" fill-rule="evenodd" stroke="none"/>
    <path d="M59.3 0.0 L60.05 2.85 Q60.75 5.05 61.7 6.9 63.4 10.15 66.0 12.4 L63.75 13.15 62.2 13.65 61.85 13.75 61.6 13.85 Q56.85 8.4 54.95 1.2 L59.3 0.0 M57.55 15.15 L53.4 16.45 50.45 12.1 50.15 11.6 Q48.05 7.9 46.55 3.55 L50.75 2.4 Q52.65 9.3 57.55 15.15 M49.35 17.75 L45.05 19.15 Q40.65 13.25 38.15 5.9 L42.35 4.7 Q44.9 11.8 49.35 17.75 M40.35 20.65 L38.25 21.3 36.4 21.9 35.75 22.1 35.4 21.55 33.6 18.45 33.35 17.95 32.85 17.0 Q30.9 12.95 29.65 8.2 L33.95 7.05 Q36.55 14.6 40.35 20.65" fill="url(#gradient9)" fill-rule="evenodd" stroke="none"/>
    <path d="M32.25 18.15 L35.75 22.1 36.4 21.9 36.55 23.05 32.3 18.4 32.25 18.15" fill="#696d66" fill-rule="evenodd" stroke="none"/>
    <path d="M63.75 13.15 L63.8 14.2 62.25 14.7 62.2 13.65 63.75 13.15 M38.25 21.3 L38.4 22.45 36.55 23.05 36.4 21.9 38.25 21.3" fill="#9ba19f" fill-rule="evenodd" stroke="none"/>
    <path d="M62.2 13.65 L62.25 14.7 61.9 14.8 61.85 13.75 62.2 13.65" fill="#69706d" fill-rule="evenodd" stroke="none"/>
    <path d="M61.85 13.75 L61.9 14.8 60.7 15.2 60.7 14.95 60.35 15.05 52.05 17.65 52.1 18.0 50.9 18.35 50.65 18.45 49.35 18.9 49.3 18.55 49.0 18.6 39.85 21.55 39.9 21.95 38.4 22.45 38.25 21.3 40.35 20.65 45.05 19.15 49.35 17.75 53.4 16.45 57.55 15.15 61.6 13.85 61.85 13.75" fill="#babdb3" fill-rule="evenodd" stroke="none"/>
    <path d="M51.75 31.5 L51.55 31.55 50.65 18.45 50.9 18.35 51.75 31.5" fill="#9ea6a3" fill-rule="evenodd" stroke="none"/>
    <path d="M34.0 32.5 L31.15 33.4 30.75 17.95 29.8 17.95 29.65 8.2 30.85 16.5 32.25 18.15 32.3 18.4 34.0 32.5" fill="#000000" fill-opacity="0.2" fill-rule="evenodd" stroke="none"/>
    <path d="M29.65 8.2 L39.0 0.45 59.3 0.0 54.95 1.2 50.75 2.4 46.55 3.55 42.35 4.7 38.15 5.9 33.95 7.05 29.65 8.2" fill="#fd7c04" fill-rule="evenodd" stroke="none"/>
  </g>
  <defs>
    <radialGradient cx="0" cy="0" gradientTransform="matrix(0.0034, 0.0, 0.0, 0.0097, 61.25, 15.95)" gradientUnits="userSpaceOnUse" id="gradient0" r="819.2" spreadMethod="pad">
      <stop offset="0.19607843137254902" stop-color="#80e5ff" stop-opacity="0.3019608"/>
      <stop offset="1.0" stop-color="#00ccff" stop-opacity="0.5019608"/>
    </radialGradient>
    <radialGradient cx="0" cy="0" gradientTransform="matrix(0.0034, 0.0126, -0.0243, 0.0065, 50.05, 31.45)" gradientUnits="userSpaceOnUse" id="gradient1" r="819.2" spreadMethod="pad">
      <stop offset="0.23921568627450981" stop-color="#b8aa84"/>
      <stop offset="0.5294117647058824" stop-color="#9f9a79"/>
      <stop offset="1.0" stop-color="#58503f"/>
    </radialGradient>
    <radialGradient cx="0" cy="0" gradientTransform="matrix(0.0093, 0.0, 0.0, 0.0093, 57.05, 20.85)" gradientUnits="userSpaceOnUse" id="gradient2" r="819.2" spreadMethod="pad">
      <stop offset="0.3686274509803922" stop-color="#525979"/>
      <stop offset="0.9333333333333333" stop-color="#21222e"/>
    </radialGradient>
    <radialGradient cx="0" cy="0" gradientTransform="matrix(0.0408, -0.0135, 0.0058, 0.0174, 50.4, 30.4)" gradientUnits="userSpaceOnUse" id="gradient3" r="819.2" spreadMethod="pad">
      <stop offset="0.43529411764705883" stop-color="#000000" stop-opacity="0.0"/>
      <stop offset="1.0" stop-color="#000000" stop-opacity="0.8"/>
    </radialGradient>
    <linearGradient gradientTransform="matrix(0.0015, 0.0062, -0.0042, 0.001, 43.8, 26.25)" gradientUnits="userSpaceOnUse" id="gradient4" spreadMethod="pad" x1="-819.2" x2="819.2">
      <stop offset="0.15294117647058825" stop-color="#ffffff" stop-opacity="0.29803923"/>
      <stop offset="1.0" stop-color="#ffffff"/>
    </linearGradient>
    <radialGradient cx="0" cy="0" gradientTransform="matrix(0.007, 0.0, 0.0, 0.0103, 56.95, 18.5)" gradientUnits="userSpaceOnUse" id="gradient5" r="819.2" spreadMethod="pad">
      <stop offset="0.19607843137254902" stop-color="#80e5ff" stop-opacity="0.3019608"/>
      <stop offset="1.0" stop-color="#00ccff" stop-opacity="0.5019608"/>
    </radialGradient>
    <radialGradient cx="0" cy="0" gradientTransform="matrix(0.0061, 0.0, 0.0, 0.0093, 45.15, 23.25)" gradientUnits="userSpaceOnUse" id="gradient6" r="819.2" spreadMethod="pad">
      <stop offset="0.19607843137254902" stop-color="#80e5ff" stop-opacity="0.3019608"/>
      <stop offset="1.0" stop-color="#00ccff" stop-opacity="0.5019608"/>
    </radialGradient>
    <radialGradient cx="0" cy="0" gradientTransform="matrix(0.0024, -3.0E-4, 9.0E-4, 0.0079, 35.8, 24.5)" gradientUnits="userSpaceOnUse" id="gradient7" r="819.2" spreadMethod="pad">
      <stop offset="0.19607843137254902" stop-color="#80e5ff" stop-opacity="0.3019608"/>
      <stop offset="1.0" stop-color="#00ccff" stop-opacity="0.5019608"/>
    </radialGradient>
    <linearGradient gradientTransform="matrix(-0.0029, -0.0085, 0.0064, -0.0022, 39.5, 13.25)" gradientUnits="userSpaceOnUse" id="gradient8" spreadMethod="pad" x1="-819.2" x2="819.2">
      <stop offset="0.18823529411764706" stop-color="#f9feff"/>
      <stop offset="1.0" stop-color="#fff5dd"/>
    </linearGradient>
    <linearGradient gradientTransform="matrix(-0.0022, -0.0071, 0.0088, -0.0027, 34.95, 14.6)" gradientUnits="userSpaceOnUse" id="gradient9" spreadMethod="pad" x1="-819.2" x2="819.2">
      <stop offset="0.18823529411764706" stop-color="#fd7c04"/>
      <stop offset="1.0" stop-color="#f16c00"/>
    </linearGradient>
  </defs>
</svg>
