<?xml version="1.0" encoding="UTF-8" standalone="no"?>
<svg xmlns:ffdec="https://www.free-decompiler.com/flash" xmlns:xlink="http://www.w3.org/1999/xlink" ffdec:objectType="shape" height="68.4px" width="131.95px" xmlns="http://www.w3.org/2000/svg">
  <g transform="matrix(1.0, 0.0, 0.0, 1.0, -11.8, -10.35)">
    <path d="M12.85 16.4 L13.05 16.35 13.45 16.35 13.6 16.5 13.9 17.05 Q18.75 65.85 28.15 75.45 L29.7 76.7 Q31.8 77.4 33.2 75.8 L33.65 75.2 Q34.85 73.15 35.55 69.2 37.25 59.0 35.4 36.65 L35.6 35.95 35.85 35.6 36.05 35.55 36.5 35.6 36.6 35.7 36.9 36.3 Q38.7 59.0 37.0 69.4 36.25 73.95 34.85 76.25 L34.15 77.1 Q32.15 79.55 29.1 78.4 L29.0 78.4 27.2 76.95 Q17.35 67.1 12.4 17.5 12.3 17.05 12.55 16.8 L12.85 16.4" fill="#000000" fill-opacity="0.14901961" fill-rule="evenodd" stroke="none"/>
    <path d="M12.9 15.95 L13.0 16.25 Q16.55 56.6 26.1 65.25 L27.65 66.5 Q29.8 67.4 31.3 66.3 L31.75 65.9 Q33.3 64.55 34.25 60.95 36.3 53.1 35.15 35.0 L35.25 34.65 35.45 34.6 35.9 34.7 35.95 35.0 Q37.1 53.4 35.05 61.45 34.0 65.4 32.2 67.0 L31.9 67.2 Q31.15 67.8 30.25 68.0 28.9 68.1 27.35 67.4 L27.25 67.35 Q16.05 60.25 12.2 16.3 L12.3 15.9 12.5 15.85 12.9 15.95" fill="#ffffff" fill-rule="evenodd" stroke="none"/>
    <path d="M26.1 65.25 Q16.55 56.6 13.0 16.25 L12.9 15.95 13.05 16.05 13.3 16.55 Q16.75 56.25 26.1 65.25 M12.3 15.9 L12.2 16.3 Q16.05 60.25 27.25 67.35 L27.35 67.4 Q28.9 68.1 30.25 68.0 31.15 67.8 31.9 67.2 L32.2 67.0 Q34.0 65.4 35.05 61.45 37.1 53.4 35.95 35.0 L35.9 34.7 36.0 34.8 36.25 35.3 Q37.4 53.7 35.35 61.75 34.4 65.25 32.9 66.9 L32.2 67.5 Q30.05 69.15 26.95 67.8 L26.85 67.75 25.1 66.35 Q15.35 57.05 11.8 16.7 11.75 16.35 12.0 16.15 12.1 15.95 12.3 15.9 M35.25 34.65 L35.15 35.0 Q36.3 53.1 34.25 60.95 33.3 64.55 31.75 65.9 33.05 64.45 33.85 61.35 35.9 53.5 34.75 35.4 L34.95 34.85 Q35.05 34.7 35.25 34.65" fill="#a6b1b4" fill-rule="evenodd" stroke="none"/>
    <path d="M101.3 58.05 L101.35 51.8 143.75 56.0 134.35 61.65 101.3 58.05" fill="url(#gradient0)" fill-rule="evenodd" stroke="none"/>
    <path d="M47.85 10.45 L48.05 10.35 82.15 30.6 73.5 31.05 47.85 15.35 47.85 10.45" fill="url(#gradient1)" fill-rule="evenodd" stroke="none"/>
    <path d="M47.85 10.45 L47.85 15.35 31.65 23.65 31.9 17.95 47.85 10.45" fill="url(#gradient2)" fill-rule="evenodd" stroke="none"/>
    <path d="M31.65 23.65 L20.85 23.4 13.3 17.35 31.95 17.35 31.9 17.95 31.65 23.65" fill="url(#gradient3)" fill-rule="evenodd" stroke="none"/>
  </g>
  <defs>
    <linearGradient gradientTransform="matrix(-7.0E-4, 0.0057, -0.0098, -0.0011, 122.4, 55.9)" gradientUnits="userSpaceOnUse" id="gradient0" spreadMethod="pad" x1="-819.2" x2="819.2">
      <stop offset="0.3607843137254902" stop-color="#484540" stop-opacity="0.0"/>
      <stop offset="1.0" stop-color="#471566" stop-opacity="0.2"/>
    </linearGradient>
    <linearGradient gradientTransform="matrix(-0.0022, 0.0036, -0.0107, -0.0066, 64.25, 22.05)" gradientUnits="userSpaceOnUse" id="gradient1" spreadMethod="pad" x1="-819.2" x2="819.2">
      <stop offset="0.4627450980392157" stop-color="#cd7000" stop-opacity="0.2"/>
      <stop offset="0.4666666666666667" stop-color="#cd7000" stop-opacity="0.16078432"/>
      <stop offset="1.0" stop-color="#cd7000" stop-opacity="0.2509804"/>
    </linearGradient>
    <linearGradient gradientTransform="matrix(0.0013, 0.0023, -0.0071, 0.0038, 39.75, 17.05)" gradientUnits="userSpaceOnUse" id="gradient2" spreadMethod="pad" x1="-819.2" x2="819.2">
      <stop offset="0.4627450980392157" stop-color="#cd7000" stop-opacity="0.2"/>
      <stop offset="0.4666666666666667" stop-color="#cd7000" stop-opacity="0.16078432"/>
      <stop offset="1.0" stop-color="#cd7000" stop-opacity="0.2509804"/>
    </linearGradient>
    <linearGradient gradientTransform="matrix(0.0, 0.0045, -0.0038, 0.0, 22.85, 19.9)" gradientUnits="userSpaceOnUse" id="gradient3" spreadMethod="pad" x1="-819.2" x2="819.2">
      <stop offset="0.4627450980392157" stop-color="#cd7000" stop-opacity="0.2"/>
      <stop offset="0.4666666666666667" stop-color="#cd7000" stop-opacity="0.16078432"/>
      <stop offset="1.0" stop-color="#cd7000" stop-opacity="0.2509804"/>
    </linearGradient>
  </defs>
</svg>
