<?xml version="1.0" encoding="UTF-8" standalone="no"?>
<svg xmlns:ffdec="https://www.free-decompiler.com/flash" xmlns:xlink="http://www.w3.org/1999/xlink" ffdec:objectType="shape" height="27.4px" width="264.95px" xmlns="http://www.w3.org/2000/svg">
  <g transform="matrix(1.0, 0.0, 0.0, 1.0, -9.65, -11.3)">
    <path d="M217.65 29.0 Q215.45 24.05 217.0 21.65 L217.6 20.95 Q219.0 19.65 220.3 20.45 221.65 21.25 222.95 24.3 222.1 25.4 220.6 26.5 219.85 27.6 217.65 29.0 M219.45 24.2 L220.6 26.5 219.45 24.2 M157.3 26.2 Q159.7 26.7 161.45 28.25 L161.55 28.25 162.7 29.75 Q163.75 32.35 163.65 35.2 L163.6 36.2 163.55 36.2 163.0 36.55 162.9 36.55 162.75 36.6 Q162.15 36.95 161.55 37.1 L161.0 37.2 159.15 37.05 158.85 36.95 158.8 36.95 157.8 36.55 157.5 36.35 Q156.4 35.6 156.15 34.15 155.75 32.0 156.15 29.95 L156.15 29.8 156.2 29.55 156.3 29.3 156.3 29.05 156.4 28.7 Q156.7 27.5 157.15 26.45 L157.2 26.15 157.3 26.2 157.15 26.45 157.3 26.2 M158.85 36.95 L161.0 37.2 158.85 36.95 M156.15 29.95 Q155.8 31.95 156.15 34.1 156.45 35.6 157.5 36.35 156.45 35.6 156.15 34.1 155.8 31.95 156.15 29.95" fill="#ff9999" fill-rule="evenodd" stroke="none"/>
    <path d="M167.15 17.9 L168.5 17.7 Q169.4 19.75 169.75 21.95 170.1 24.25 169.75 26.55 L168.6 30.7 167.6 32.5 166.2 34.1 166.15 34.15 164.6 35.55 163.6 36.2 163.65 35.2 Q163.75 32.35 162.7 29.75 L161.55 28.25 161.45 28.25 Q159.7 26.7 157.3 26.2 L157.6 25.5 157.85 25.15 157.85 25.05 157.9 25.0 158.2 24.35 159.95 22.1 160.0 22.05 161.5 20.65 163.15 19.45 163.45 19.3 163.55 19.25 163.95 19.0 Q165.45 18.2 167.15 17.9" fill="#333333" fill-rule="evenodd" stroke="none"/>
    <path d="M163.45 19.3 L163.15 19.45 161.5 20.65 163.1 19.45 163.45 19.3 M157.85 25.15 L157.6 25.5 157.3 26.2 157.2 26.15 157.55 25.5 157.85 25.15" fill="#000000" fill-rule="evenodd" stroke="none"/>
    <path d="M56.0 25.45 L57.65 23.05 Q58.7 21.8 60.45 20.95 62.2 20.1 65.6 19.5 69.1 18.95 72.3 20.55 75.45 22.1 78.2 22.9 L78.4 22.9 Q83.2 21.95 85.7 19.95 85.3 25.4 80.15 30.5 L78.4 28.9 78.35 28.85 Q77.15 27.55 74.45 28.1 71.75 28.65 68.7 29.9 65.6 31.1 63.35 31.5 61.15 31.85 58.55 31.6 56.05 31.35 55.45 30.4 54.8 29.4 55.15 27.9 55.4 26.4 56.0 25.45 L64.9 25.75 56.0 25.45 M12.45 26.6 Q10.8 23.75 10.65 17.3 21.4 26.6 35.2 19.45 L35.55 25.75 33.45 27.15 33.25 31.75 Q23.6 37.05 12.95 27.35 L12.45 26.6 Q17.8 29.2 22.35 28.65 17.8 29.2 12.45 26.6" fill="#f0ebd9" fill-rule="evenodd" stroke="none"/>
    <path d="M243.9 25.4 L250.8 24.65 255.2 24.35 M265.8 24.85 L266.75 25.0 267.2 25.15 268.6 25.4 Q271.05 26.0 271.4 26.3 M199.45 27.15 Q204.35 33.45 211.25 33.05 L212.95 32.85 Q219.9 31.9 224.1 25.5 M128.2 25.4 L125.3 22.85 Q124.35 22.2 123.4 21.85 116.5 19.1 108.9 30.9 L108.25 31.9" fill="none" stroke="#a79272" stroke-linecap="round" stroke-linejoin="round" stroke-width="2.0"/>
    <path d="M222.95 24.3 Q221.65 21.25 220.3 20.45 219.0 19.65 217.6 20.95 L217.0 21.65 Q215.45 24.05 217.65 29.0 M220.6 26.5 L219.45 24.2" fill="none" stroke="#b86b67" stroke-linecap="round" stroke-linejoin="round" stroke-width="1.5"/>
    <path d="M198.4 23.6 Q204.65 32.35 212.9 31.0 220.1 30.1 224.1 22.65 M167.15 17.9 L168.5 17.65 171.65 17.4 Q172.8 17.3 173.2 16.55 174.3 14.45 172.6 12.8 M167.15 17.9 Q165.45 18.2 163.95 19.0 L163.55 19.25 163.45 19.3 163.15 19.45 161.5 20.65 160.0 22.05 159.95 22.1 158.2 24.35 157.9 25.0 157.85 25.05 157.85 25.15 157.6 25.5 157.3 26.2 157.15 26.45 Q156.7 27.5 156.4 28.7 L156.3 29.05 156.3 29.3 156.2 29.5 156.15 29.8 156.15 29.95 Q155.8 31.95 156.15 34.1 156.45 35.6 157.5 36.35 L157.8 36.55 158.8 36.95 158.85 36.95 161.0 37.2 161.55 37.1 Q162.2 36.95 162.8 36.6 L162.9 36.55 163.0 36.55 163.55 36.2 163.6 36.2 164.6 35.55 166.15 34.15 M166.2 34.1 L167.6 32.5 168.65 30.65 169.8 26.55 Q170.15 24.2 169.8 21.95 169.45 19.75 168.5 17.65 M129.45 24.2 Q127.75 22.3 126.05 21.15 124.75 20.25 123.4 19.8 116.4 17.45 108.9 27.55 L106.0 31.85" fill="none" stroke="#75644a" stroke-linecap="round" stroke-linejoin="round" stroke-width="3.0"/>
    <path d="M121.35 26.35 Q115.6 28.45 115.05 35.1 M56.0 25.45 L57.65 23.05 Q58.7 21.8 60.45 20.95 62.2 20.1 65.6 19.5 69.1 18.95 72.3 20.55 75.45 22.1 78.2 22.9 L78.4 22.9 Q83.2 21.95 85.7 19.95 85.3 25.4 80.15 30.5 L78.4 28.9 78.35 28.85 Q77.15 27.55 74.45 28.1 71.75 28.65 68.7 29.9 65.6 31.1 63.35 31.5 61.15 31.85 58.55 31.6 56.05 31.35 55.45 30.4 54.8 29.4 55.15 27.9 55.4 26.4 56.0 25.45 L64.9 25.75 M35.2 19.45 L37.3 17.25 M12.45 26.6 L12.95 27.35 Q23.6 37.05 33.25 31.75 L33.45 27.15 35.55 25.75 35.2 19.45 Q21.4 26.6 10.65 17.3 10.8 23.75 12.45 26.6 17.8 29.2 22.35 28.65" fill="none" stroke="#75644a" stroke-linecap="round" stroke-linejoin="round" stroke-width="2.0"/>
    <path d="M252.6 23.0 L253.65 22.95 257.35 23.2 260.45 23.45 261.15 23.4 264.7 23.15 264.8 23.15 265.55 24.35 265.95 25.85 Q266.15 27.4 266.0 29.25 265.8 31.1 264.6 32.3 263.35 33.5 261.7 33.55 259.7 33.55 258.65 32.4 257.75 31.4 257.2 29.7 L256.1 26.5 Q255.55 24.95 254.3 23.9 L254.25 23.85 252.6 23.0 M262.2 28.85 Q262.4 26.3 260.8 23.95 L260.45 23.45 260.8 23.95 Q262.4 26.3 262.2 28.85" fill="#ff9999" fill-rule="evenodd" stroke="none"/>
    <path d="M264.8 23.15 L265.55 24.35 265.95 25.85 Q266.15 27.4 266.0 29.25 265.8 31.1 264.6 32.3 263.35 33.5 261.7 33.55 259.7 33.55 258.65 32.4 257.75 31.4 257.2 29.7 L256.1 26.5 Q255.55 24.95 254.3 23.9 L254.25 23.85 252.6 23.0 M260.45 23.45 L260.8 23.95 Q262.4 26.3 262.2 28.85" fill="none" stroke="#b86b67" stroke-linecap="round" stroke-linejoin="round" stroke-width="1.5"/>
    <path d="M242.45 24.95 L242.3 24.5 Q242.15 22.85 249.25 22.3 L256.35 22.0 261.85 22.15 268.0 22.75 Q273.95 23.7 272.95 25.4" fill="none" stroke="#75644a" stroke-linecap="round" stroke-linejoin="round" stroke-width="3.0"/>
  </g>
</svg>
