<?xml version="1.0" encoding="UTF-8" standalone="no"?>
<svg xmlns:ffdec="https://www.free-decompiler.com/flash" xmlns:xlink="http://www.w3.org/1999/xlink" ffdec:objectType="shape" height="30.0px" width="30.0px" xmlns="http://www.w3.org/2000/svg">
  <g transform="matrix(1.0, 0.0, 0.0, 1.0, 0.0, 0.0)">
    <path d="M0.45 4.0 Q2.1 2.8 5.0 2.8 L21.0 2.8 Q28.0 2.8 28.0 9.8 L28.0 25.8 Q28.0 27.5 27.6 28.85 25.9 30.0 23.0 30.0 L7.0 30.0 Q0.0 30.0 0.0 23.0 L0.0 7.0 Q0.0 5.3 0.45 4.0" fill="#c9ffee" fill-rule="evenodd" stroke="none"/>
    <path d="M0.45 4.0 Q1.7 0.0 7.0 0.0 L23.0 0.0 Q30.0 0.0 30.0 7.0 L30.0 23.0 Q30.0 27.1 27.6 28.85 28.0 27.5 28.0 25.8 L28.0 9.8 Q28.0 2.8 21.0 2.8 L5.0 2.8 Q2.1 2.8 0.45 4.0" fill="#75cbb1" fill-rule="evenodd" stroke="none"/>
  </g>
</svg>
