<?xml version="1.0" encoding="UTF-8" standalone="no"?>
<svg xmlns:ffdec="https://www.free-decompiler.com/flash" xmlns:xlink="http://www.w3.org/1999/xlink" ffdec:objectType="shape" height="39.9px" width="67.8px" xmlns="http://www.w3.org/2000/svg">
  <g transform="matrix(1.0, 0.0, 0.0, 1.0, -21.25, 51.2)">
    <path d="M22.05 -26.2 L21.75 -27.4 Q20.1 -34.0 23.8 -39.8 27.45 -45.65 34.15 -47.25 40.85 -48.9 46.75 -45.35 49.5 -43.7 51.3 -41.35 L52.75 -39.15 54.0 -41.6 Q58.1 -48.65 65.75 -50.6 73.35 -52.5 80.0 -48.2 83.1 -46.25 85.15 -43.35 87.5 -40.15 88.5 -35.9 90.3 -27.95 86.25 -20.85 82.1 -13.85 74.5 -11.9 66.9 -10.0 60.2 -14.25 54.9 -17.7 52.65 -23.45 L52.25 -22.75 Q48.55 -16.9 41.85 -15.3 35.15 -13.7 29.25 -17.25 23.85 -20.5 22.05 -26.2" fill="#97d3ee" fill-rule="evenodd" stroke="none"/>
  </g>
</svg>
