<?xml version="1.0" encoding="UTF-8" standalone="no"?>
<svg xmlns:ffdec="https://www.free-decompiler.com/flash" xmlns:xlink="http://www.w3.org/1999/xlink" ffdec:objectType="shape" height="92.05px" width="90.9px" xmlns="http://www.w3.org/2000/svg">
  <g transform="matrix(1.0, 0.0, 0.0, 1.0, 45.45, 46.05)">
    <path d="M26.75 -33.7 L32.55 -25.8 27.2 -25.5 23.55 -33.3 26.75 -33.7 M25.05 -25.25 L14.8 -24.95 12.7 -32.3 22.0 -32.7 25.05 -25.25 M25.15 -35.05 L18.15 -42.15 20.4 -42.15 29.9 -35.6 25.15 -35.05 M34.3 -26.5 L28.35 -33.75 30.55 -34.8 36.85 -27.45 34.3 -26.5 M15.95 -41.65 L21.25 -34.95 16.05 -34.6 12.3 -41.25 15.95 -41.65 M1.9 -41.15 L1.95 -41.0 9.75 -41.15 12.8 -34.9 4.1 -34.35 1.85 -41.15 1.9 -41.15 M8.25 -45.95 L12.75 -43.55 1.15 -43.55 1.15 -45.95 8.25 -45.95 M9.85 -32.35 L12.7 -24.9 2.4 -24.3 2.4 -32.35 9.85 -32.35 M3.65 -18.9 L12.45 -18.75 12.45 -10.65 3.65 -10.75 3.65 -18.9 M16.05 -20.9 L20.85 -20.9 22.8 -12.4 16.85 -11.85 16.05 -20.9 M11.95 -8.5 L11.95 3.3 2.65 2.85 3.15 -8.5 11.95 -8.5 M32.85 -22.4 L36.0 -23.95 39.9 -14.9 36.25 -13.85 32.85 -22.4 M30.0 -22.5 L34.15 -13.4 25.9 -12.2 23.55 -21.45 30.0 -22.5 M39.45 -0.05 L34.6 0.35 34.6 -9.25 37.9 -10.25 39.45 -0.05 M30.75 -8.95 L32.3 1.25 27.45 1.65 27.45 -7.95 30.75 -8.95 M24.1 -9.2 L25.4 2.25 15.95 3.1 15.95 -9.2 24.1 -9.2 M43.35 -12.15 L45.45 -1.0 41.75 -0.25 40.6 -11.0 43.35 -12.15 M44.5 13.8 L41.45 23.25 39.6 23.25 41.75 14.7 44.5 13.8 M45.0 2.55 L44.0 11.6 39.45 12.8 41.25 3.15 45.0 2.55 M37.4 13.65 L30.65 14.45 32.6 5.4 38.7 5.9 37.4 13.65 M29.8 17.25 L35.85 16.65 31.85 25.8 29.7 26.05 25.8 25.85 28.95 17.8 29.8 17.25 M28.5 14.7 L18.65 15.75 19.15 6.4 29.25 5.7 28.5 14.7 M14.0 16.5 L3.15 16.5 3.15 7.45 14.8 7.45 14.0 16.5 M14.5 19.65 L14.5 27.85 3.15 27.9 3.15 19.85 14.5 19.65 M4.45 40.15 L10.3 39.65 5.2 46.0 2.2 45.85 4.45 40.15 M2.75 38.85 L3.95 30.6 11.15 30.65 7.7 39.2 2.75 38.85 M10.7 38.95 L13.8 30.0 21.45 29.55 15.1 38.6 10.7 38.95 M7.6 45.85 L13.25 40.15 20.5 39.65 11.0 45.6 7.6 45.85 M34.15 25.05 L37.8 16.5 41.05 15.25 37.25 25.05 34.15 25.05 M32.6 27.6 L36.55 26.75 29.85 35.85 28.65 36.4 26.4 36.4 31.85 28.1 32.6 27.6 M29.25 28.25 L22.9 37.5 18.6 37.85 24.45 29.15 29.25 28.25 M19.8 19.35 L27.25 18.45 23.7 27.6 16.65 27.4 19.8 19.35 M-41.45 23.15 L-44.5 13.7 -41.75 14.55 -39.6 23.15 -41.45 23.15 M-45.0 2.45 L-41.25 3.05 -39.45 12.7 -44.0 11.45 -45.0 2.45 M-19.8 19.25 L-16.65 27.3 -23.7 27.5 -27.25 18.35 -19.8 19.25 M-7.6 45.75 L-11.0 45.5 -20.5 39.55 -13.25 40.05 -7.6 45.75 M-2.75 38.75 L-7.7 39.05 -11.15 30.55 -3.95 30.5 -2.75 38.75 M-4.45 40.05 L-2.2 45.75 -5.2 45.9 -10.3 39.55 -4.45 40.05 M-10.7 38.85 L-15.1 38.5 -21.45 29.45 -13.8 29.85 -10.7 38.85 M-34.15 24.95 L-37.25 24.95 -41.05 15.15 -37.8 16.4 -34.15 24.95 M-29.25 28.15 L-24.45 29.05 -18.6 37.75 -22.9 37.4 -29.25 28.15 M-26.4 36.3 L-28.65 36.3 -29.85 35.75 -36.55 26.65 -32.6 27.5 -31.85 28.0 -26.4 36.3 M-35.85 16.55 L-29.8 17.15 -28.95 17.7 -25.8 25.75 -29.7 25.95 -31.85 25.7 -35.85 16.55 M-32.6 5.25 L-30.65 14.35 -37.4 13.55 -38.7 5.8 -32.6 5.25 M-19.15 6.3 L-18.65 15.65 -28.5 14.55 -29.25 5.6 -19.15 6.3 M-14.5 19.55 L-3.15 19.75 -3.15 27.8 -14.5 27.75 -14.5 19.55 M-14.8 7.35 L-3.15 7.35 -3.15 16.4 -14.0 16.4 -14.8 7.35 M-24.1 -9.3 L-15.95 -9.3 -15.95 3.0 -25.4 2.15 -24.1 -9.3 M-11.95 -8.6 L-3.15 -8.6 -2.65 2.75 -11.95 3.2 -11.95 -8.6 M-3.65 -19.0 L-3.65 -10.85 -12.45 -10.75 -12.45 -18.85 -3.65 -19.0 M-30.75 -9.05 L-27.45 -8.05 -27.45 1.55 -32.3 1.15 -30.75 -9.05 M-37.9 -10.35 L-34.6 -9.35 -34.6 0.25 -39.45 -0.15 -37.9 -10.35 M-36.25 -13.95 L-39.9 -15.0 -36.0 -24.05 -32.85 -22.5 -36.25 -13.95 M-22.8 -12.5 L-20.85 -21.0 -16.05 -21.0 -16.85 -11.95 -22.8 -12.5 M-30.0 -22.6 L-23.55 -21.55 -25.9 -12.3 -34.15 -13.5 -30.0 -22.6 M-25.15 -35.15 L-29.9 -35.7 -20.4 -42.3 -18.15 -42.3 -25.15 -35.15 M-26.75 -33.8 L-23.55 -33.4 -27.2 -25.6 -32.55 -25.9 -26.75 -33.8 M-34.3 -26.6 L-36.85 -27.55 -30.55 -34.9 -28.35 -33.85 -34.3 -26.6 M-9.85 -32.45 L-2.4 -32.45 -2.4 -24.4 -12.7 -25.0 -9.85 -32.45 M-12.7 -32.4 L-14.8 -25.05 -25.05 -25.4 -22.0 -32.8 -12.7 -32.4 M-15.95 -41.75 L-12.3 -41.35 -16.05 -34.7 -21.25 -35.05 -15.95 -41.75 M-8.25 -46.05 L-1.15 -46.05 -1.15 -43.65 -12.75 -43.65 -8.25 -46.05 M-1.95 -41.1 L-1.9 -41.25 -1.85 -41.25 -4.1 -34.45 -12.8 -35.0 -9.75 -41.25 -1.95 -41.1 M-43.35 -12.25 L-40.6 -11.1 -41.75 -0.35 -45.45 -1.1 -43.35 -12.25" fill="url(#gradient0)" fill-rule="evenodd" stroke="none"/>
  </g>
  <defs>
    <radialGradient cx="0" cy="0" gradientTransform="matrix(0.0693, 0.0, 0.0, 0.0693, 1.5, -2.0)" gradientUnits="userSpaceOnUse" id="gradient0" r="819.2" spreadMethod="pad">
      <stop offset="0.2627450980392157" stop-color="#fcfcfc"/>
      <stop offset="0.6352941176470588" stop-color="#e8b8ff"/>
      <stop offset="0.8117647058823529" stop-color="#b0aaff"/>
      <stop offset="0.9450980392156862" stop-color="#cddfff"/>
    </radialGradient>
  </defs>
</svg>
