<?xml version="1.0" encoding="UTF-8" standalone="no"?>
<svg xmlns:ffdec="https://www.free-decompiler.com/flash" xmlns:xlink="http://www.w3.org/1999/xlink" ffdec:objectType="shape" height="95.55px" width="120.65px" xmlns="http://www.w3.org/2000/svg">
  <g transform="matrix(1.0, 0.0, 0.0, 1.0, 72.85, 47.75)">
    <path d="M33.05 -33.05 Q46.8 -19.35 46.8 0.05 46.8 19.4 33.05 33.1 19.4 46.8 0.0 46.8 -19.35 46.8 -33.1 33.1 -46.75 19.4 -46.75 0.05 -46.75 -19.35 -33.1 -33.05 -19.35 -46.75 0.0 -46.75 19.4 -46.75 33.05 -33.05 Z" fill="none" stroke="#ffffff" stroke-linecap="round" stroke-linejoin="round" stroke-width="2.0"/>
    <path d="M-48.4 -8.5 L-43.25 -6.65 Q-30.75 -1.95 -19.75 4.2 -32.45 1.65 -44.45 -2.55 L-49.5 -4.4 Q-54.05 -6.1 -58.5 -8.15 -76.3 -16.15 -72.05 -15.1 -59.65 -12.35 -48.4 -8.5" fill="url(#gradient0)" fill-rule="evenodd" stroke="none"/>
    <path d="M-43.25 -6.65 L-48.4 -8.5 Q-42.8 -28.95 -35.25 -46.6 -38.15 -25.9 -43.25 -6.65 M-49.5 -4.4 L-44.45 -2.55 Q-46.7 5.7 -49.4 13.6 -58.75 41.1 -57.5 34.45 -54.2 13.95 -49.5 -4.4" fill="url(#gradient1)" fill-rule="evenodd" stroke="none"/>
  </g>
  <defs>
    <linearGradient gradientTransform="matrix(0.0137, 0.0178, -0.0188, 0.006, -46.3, -5.5)" gradientUnits="userSpaceOnUse" id="gradient0" spreadMethod="pad" x1="-819.2" x2="819.2">
      <stop offset="0.0" stop-color="#ffffff" stop-opacity="0.0"/>
      <stop offset="0.47843137254901963" stop-color="#ffffff"/>
      <stop offset="0.996078431372549" stop-color="#ffffff" stop-opacity="0.0"/>
    </linearGradient>
    <linearGradient gradientTransform="matrix(0.0214, -0.0201, 0.0078, 0.0302, -46.45, -5.45)" gradientUnits="userSpaceOnUse" id="gradient1" spreadMethod="pad" x1="-819.2" x2="819.2">
      <stop offset="0.0" stop-color="#ffffff" stop-opacity="0.0"/>
      <stop offset="0.47843137254901963" stop-color="#ffffff"/>
      <stop offset="0.996078431372549" stop-color="#ffffff" stop-opacity="0.0"/>
    </linearGradient>
  </defs>
</svg>
