<?xml version="1.0" encoding="UTF-8" standalone="no"?>
<svg xmlns:ffdec="https://www.free-decompiler.com/flash" xmlns:xlink="http://www.w3.org/1999/xlink" ffdec:objectType="shape" height="59.3px" width="44.55px" xmlns="http://www.w3.org/2000/svg">
  <g transform="matrix(1.0, 0.0, 0.0, 1.0, 25.55, -16.6)">
    <path d="M-23.95 22.25 L-23.75 22.05 -23.45 33.7 -19.45 35.45 -22.6 46.85 -5.45 59.45 -9.6 71.65 -6.0 75.9 -10.85 71.45 -6.55 60.0 -24.7 47.25 -20.4 36.1 -24.25 33.95 -24.25 33.85 -25.3 27.3 -25.35 27.35 -25.35 27.1 -25.55 24.25 -24.65 23.15 -24.65 23.1 -23.95 22.25 M18.9 17.15 L19.0 17.25 11.3 21.9 13.05 33.05 0.4 41.2 1.5 42.1 0.2 45.3 4.55 48.65 -1.0 56.4 3.15 48.95 -0.8 45.35 0.7 42.75 -0.8 41.15 10.65 32.7 10.35 21.2 18.25 16.6 18.65 16.95 18.9 17.15" fill="#776b3e" fill-rule="evenodd" stroke="none"/>
  </g>
</svg>
