<?xml version="1.0" encoding="UTF-8" standalone="no"?>
<svg xmlns:ffdec="https://www.free-decompiler.com/flash" xmlns:xlink="http://www.w3.org/1999/xlink" ffdec:objectType="shape" height="99.45px" width="77.95px" xmlns="http://www.w3.org/2000/svg">
  <g transform="matrix(1.0, 0.0, 0.0, 1.0, 39.0, -9.85)">
    <path d="M36.95 49.1 L36.95 49.15 38.15 55.1 Q41.0 73.3 33.9 88.65 24.3 109.4 1.3 109.3 L-0.15 109.3 -0.25 109.3 -0.35 109.3 -1.25 109.3 Q-24.35 109.4 -33.95 88.65 -41.15 73.35 -38.1 55.25 L-38.15 55.3 Q-37.75 52.15 -36.85 49.1 -32.35 30.8 -21.65 19.85 -12.2 10.1 -0.4 9.85 L-0.35 9.85 Q12.25 10.1 21.7 19.85 32.3 30.8 36.95 49.1" fill="#66ff00" fill-rule="evenodd" stroke="none"/>
  </g>
</svg>
