<?xml version="1.0" encoding="UTF-8" standalone="no"?>
<svg xmlns:ffdec="https://www.free-decompiler.com/flash" xmlns:xlink="http://www.w3.org/1999/xlink" ffdec:objectType="shape" height="104.45px" width="104.45px" xmlns="http://www.w3.org/2000/svg">
  <g transform="matrix(1.0, 0.0, 0.0, 1.0, 39.95, 39.95)">
    <path d="M62.0 12.25 Q62.0 32.8 47.4 47.4 32.8 62.0 12.25 62.0 -8.25 62.0 -22.85 47.4 -37.45 32.8 -37.45 12.25 -37.45 -8.25 -22.85 -22.85 -8.25 -37.45 12.25 -37.45 32.8 -37.45 47.4 -22.85 62.0 -8.25 62.0 12.25" fill="#e9e9e9" fill-rule="evenodd" stroke="none"/>
    <path d="M62.0 12.25 Q62.0 32.8 47.4 47.4 32.8 62.0 12.25 62.0 -8.25 62.0 -22.85 47.4 -37.45 32.8 -37.45 12.25 -37.45 -8.25 -22.85 -22.85 -8.25 -37.45 12.25 -37.45 32.8 -37.45 47.4 -22.85 62.0 -8.25 62.0 12.25 Z" fill="none" stroke="#858585" stroke-linecap="round" stroke-linejoin="round" stroke-width="5.0"/>
    <path d="M46.15 12.25 Q46.15 26.25 36.2 36.2 26.25 46.15 12.25 46.15 -1.7 46.15 -11.65 36.2 -21.6 26.25 -21.6 12.25 -21.6 -1.7 -11.65 -11.65 -1.7 -21.6 12.25 -21.6 26.25 -21.6 36.2 -11.65 46.15 -1.7 46.15 12.25" fill="url(#gradient0)" fill-rule="evenodd" stroke="none"/>
  </g>
  <defs>
    <radialGradient cx="0" cy="0" gradientTransform="matrix(0.0412, 0.0, 0.0, 0.0412, 13.0, 15.5)" gradientUnits="userSpaceOnUse" id="gradient0" r="819.2" spreadMethod="pad">
      <stop offset="0.6352941176470588" stop-color="#00b62d" stop-opacity="0.0"/>
      <stop offset="1.0" stop-color="#009123"/>
    </radialGradient>
  </defs>
</svg>
