<?xml version="1.0" encoding="UTF-8" standalone="no"?>
<svg xmlns:ffdec="https://www.free-decompiler.com/flash" xmlns:xlink="http://www.w3.org/1999/xlink" ffdec:objectType="shape" height="49.95px" width="6.3px" xmlns="http://www.w3.org/2000/svg">
  <g transform="matrix(1.0, 0.0, 0.0, 1.0, 0.0, 1.85)">
    <path d="M2.5 5.45 L2.5 1.85 2.6 2.6 Q2.35 -1.4 2.65 -1.75 3.55 -2.5 3.95 1.95 L4.4 7.65 4.4 12.7 4.45 16.65 Q4.55 19.45 4.8 21.2 L5.45 26.65 6.2 35.25 Q6.45 40.15 6.1 44.0 5.75 47.85 3.6 48.1 1.45 48.35 0.75 43.9 0.05 39.45 0.0 35.4 -0.1 31.35 0.45 25.6 L1.7 13.8 2.25 9.2 2.5 5.45" fill="url(#gradient0)" fill-rule="evenodd" stroke="none"/>
  </g>
  <defs>
    <radialGradient cx="0" cy="0" fx="540.8000000000001" fy="0" gradientTransform="matrix(1.0E-4, 0.0322, -0.0042, 0.0, 3.0, 28.4)" gradientUnits="userSpaceOnUse" id="gradient0" r="819.2" spreadMethod="pad">
      <stop offset="0.4549019607843137" stop-color="#95d411"/>
      <stop offset="0.8549019607843137" stop-color="#6ea104"/>
    </radialGradient>
  </defs>
</svg>
