<?xml version="1.0" encoding="UTF-8" standalone="no"?>
<svg xmlns:ffdec="https://www.free-decompiler.com/flash" xmlns:xlink="http://www.w3.org/1999/xlink" ffdec:objectType="shape" height="108.75px" width="108.75px" xmlns="http://www.w3.org/2000/svg">
  <g transform="matrix(1.0, 0.0, 0.0, 1.0, 0.0, 0.0)">
    <path d="M108.75 54.35 Q108.75 76.8 92.8 92.8 76.8 108.75 54.35 108.75 31.95 108.75 15.95 92.8 0.0 76.8 0.0 54.35 0.0 31.95 15.95 15.95 31.95 0.0 54.35 0.0 76.8 0.0 92.8 15.95 108.75 31.95 108.75 54.35 M88.25 54.35 Q88.25 40.4 78.3 30.45 68.35 20.5 54.35 20.5 40.4 20.5 30.45 30.45 20.5 40.4 20.5 54.35 20.5 68.35 30.45 78.3 40.4 88.25 54.35 88.25 68.35 88.25 78.3 78.3 88.25 68.35 88.25 54.35" fill="url(#gradient0)" fill-rule="evenodd" stroke="none"/>
    <path d="M88.25 54.35 Q88.25 68.35 78.3 78.3 68.35 88.25 54.35 88.25 40.4 88.25 30.45 78.3 20.5 68.35 20.5 54.35 20.5 40.4 30.45 30.45 40.4 20.5 54.35 20.5 68.35 20.5 78.3 30.45 88.25 40.4 88.25 54.35" fill="url(#gradient1)" fill-rule="evenodd" stroke="none"/>
    <path d="M88.25 54.35 Q88.25 68.35 78.3 78.3 68.35 88.25 54.35 88.25 40.4 88.25 30.45 78.3 20.5 68.35 20.5 54.35 20.5 40.4 30.45 30.45 40.4 20.5 54.35 20.5 68.35 20.5 78.3 30.45 88.25 40.4 88.25 54.35 Z" fill="none" stroke="#003f00" stroke-linecap="round" stroke-linejoin="round" stroke-width="5.0"/>
  </g>
  <defs>
    <radialGradient cx="0" cy="0" gradientTransform="matrix(0.0551, 0.0, 0.0, 0.0551, 54.15, 54.15)" gradientUnits="userSpaceOnUse" id="gradient0" r="819.2" spreadMethod="pad">
      <stop offset="0.615686274509804" stop-color="#00af00"/>
      <stop offset="1.0" stop-color="#00af00" stop-opacity="0.0"/>
    </radialGradient>
    <radialGradient cx="0" cy="0" gradientTransform="matrix(0.0363, 0.0, 0.0, 0.0274, 57.1, 62.6)" gradientUnits="userSpaceOnUse" id="gradient1" r="819.2" spreadMethod="pad">
      <stop offset="0.27450980392156865" stop-color="#30ee5f"/>
      <stop offset="0.4117647058823529" stop-color="#2ce95a"/>
      <stop offset="0.8745098039215686" stop-color="#06bd33"/>
      <stop offset="1.0" stop-color="#00b62d"/>
    </radialGradient>
  </defs>
</svg>
