<?xml version="1.0" encoding="UTF-8" standalone="no"?>
<svg xmlns:ffdec="https://www.free-decompiler.com/flash" xmlns:xlink="http://www.w3.org/1999/xlink" ffdec:objectType="shape" height="66.5px" width="68.95px" xmlns="http://www.w3.org/2000/svg">
  <g transform="matrix(1.0, 0.0, 0.0, 1.0, 34.3, 33.3)">
    <path d="M-25.5 -20.0 Q-21.8 -24.45 -16.3 -27.5 -4.5 -34.05 8.65 -30.65 21.8 -27.25 28.6 -15.85 35.5 -4.5 31.95 8.2 L31.25 10.4 Q27.55 14.8 22.0 17.85 10.15 24.45 -3.0 21.05 -16.15 17.65 -22.95 6.25 -29.75 -5.15 -26.2 -17.75 L-25.5 -20.0" fill="#e6e6e6" fill-rule="evenodd" stroke="none"/>
    <path d="M31.25 10.4 Q27.35 21.4 16.6 27.4 4.75 33.95 -8.4 30.55 -21.55 27.15 -28.4 15.75 -35.15 4.35 -31.6 -8.25 -29.75 -15.0 -25.5 -20.0 L-26.2 -17.75 Q-29.75 -5.15 -22.95 6.25 -16.15 17.65 -3.0 21.05 10.15 24.45 22.0 17.85 27.55 14.8 31.25 10.4" fill="#c0c0c0" fill-rule="evenodd" stroke="none"/>
    <path d="M28.6 -15.85 Q35.5 -4.5 31.95 8.2 28.4 20.8 16.6 27.4 4.75 33.95 -8.4 30.55 -21.55 27.15 -28.4 15.75 -35.15 4.35 -31.6 -8.25 -28.1 -20.9 -16.3 -27.5 -4.5 -34.05 8.65 -30.65 21.8 -27.25 28.6 -15.85 Z" fill="none" stroke="#191919" stroke-linecap="round" stroke-linejoin="round" stroke-width="3.0"/>
    <path d="M10.2 -10.15 Q14.4 -5.95 14.4 0.0 14.4 6.0 10.2 10.2 5.95 14.4 0.0 14.45 -6.0 14.4 -10.2 10.2 -14.4 6.0 -14.4 0.0 -14.4 -5.95 -10.2 -10.15 -6.0 -14.4 0.0 -14.4 5.95 -14.4 10.2 -10.15" fill="#666666" fill-rule="evenodd" stroke="none"/>
    <path d="M5.65 -5.1 Q7.8 -2.9 7.85 0.2 7.8 3.3 5.65 5.5 3.45 7.7 0.35 7.7 -2.8 7.7 -4.95 5.5 -7.15 3.3 -7.15 0.2 -7.15 -2.9 -4.95 -5.1 -2.8 -7.3 0.35 -7.25 3.45 -7.3 5.65 -5.1" fill="#000000" fill-rule="evenodd" stroke="none"/>
    <path d="M2.65 -3.4 Q1.2 -4.85 1.2 -6.9 1.2 -9.0 2.65 -10.45 4.1 -11.9 6.2 -11.9 8.25 -11.9 9.7 -10.45 11.15 -9.0 11.15 -6.9 11.15 -4.85 9.7 -3.4 8.25 -1.95 6.2 -1.95 4.1 -1.95 2.65 -3.4 M-6.95 4.55 Q-6.95 3.5 -6.2 2.8 -5.5 2.05 -4.45 2.05 -3.4 2.05 -2.7 2.8 -1.95 3.5 -1.95 4.55 -1.95 5.6 -2.7 6.35 -3.4 7.05 -4.45 7.05 -5.5 7.05 -6.2 6.35 -6.95 5.6 -6.95 4.55" fill="#e6e6e6" fill-opacity="0.69803923" fill-rule="evenodd" stroke="none"/>
  </g>
</svg>
