<?xml version="1.0" encoding="UTF-8" standalone="no"?>
<svg xmlns:ffdec="https://www.free-decompiler.com/flash" xmlns:xlink="http://www.w3.org/1999/xlink" ffdec:objectType="shape" height="532.95px" width="529.85px" xmlns="http://www.w3.org/2000/svg">
  <g transform="matrix(1.0, 0.0, 0.0, 1.0, 264.9, 266.45)">
    <path d="M238.8 -265.85 Q249.45 -267.95 254.3 -262.9 259.2 -257.9 260.05 -253.2 L262.3 -244.2 Q267.65 -218.45 262.25 -188.0 L260.8 -181.0 Q258.55 -171.05 254.9 -161.95 247.15 -142.35 233.3 -126.75 222.9 -115.0 209.0 -105.55 193.2 -94.8 172.9 -86.95 L174.7 -82.85 Q186.05 -57.25 193.85 -31.15 209.8 22.0 211.15 77.0 211.85 104.3 207.85 127.7 L206.6 134.2 Q187.7 226.9 91.15 255.05 70.1 261.2 45.35 264.25 L19.8 266.35 Q9.05 266.6 0.05 266.45 L0.0 266.45 Q-8.95 266.6 -19.75 266.35 L-45.3 264.25 Q-70.05 261.2 -91.1 255.05 -187.65 226.9 -206.55 134.2 L-207.8 127.7 Q-211.8 104.3 -211.1 77.0 -209.75 22.0 -193.8 -31.15 -186.0 -57.25 -174.65 -82.85 L-172.85 -86.95 Q-193.15 -94.8 -208.95 -105.55 -222.85 -115.0 -233.25 -126.75 -247.1 -142.35 -254.85 -161.95 -258.5 -171.05 -260.75 -181.0 L-262.2 -188.0 Q-267.6 -218.45 -262.25 -244.2 L-260.0 -253.2 Q-259.15 -257.9 -254.25 -262.9 -249.4 -267.95 -238.75 -265.85 L-217.5 -262.6 Q-201.2 -259.65 -186.75 -255.6 -170.05 -250.95 -155.85 -244.75 -130.05 -232.65 -112.85 -217.1 L-105.2 -209.5 Q-100.3 -204.15 -96.3 -198.45 L-92.9 -202.5 Q-87.8 -208.0 -81.5 -211.1 L-70.1 -219.8 -64.5 -223.75 Q-32.55 -240.55 -26.2 -251.05 -21.95 -257.4 -19.75 -251.05 -17.65 -244.75 -15.55 -242.65 L-0.1 -260.6 0.35 -260.1 15.6 -242.65 Q17.7 -244.75 19.8 -251.05 22.0 -257.4 26.25 -251.05 32.6 -240.55 64.55 -223.75 L70.15 -219.8 81.55 -211.1 Q87.85 -208.0 92.95 -202.5 L96.35 -198.45 Q100.35 -204.15 105.25 -209.5 L112.9 -217.1 Q130.1 -232.65 155.9 -244.75 170.1 -250.95 186.8 -255.6 201.25 -259.65 217.55 -262.6 L238.8 -265.85" fill="#000000" fill-rule="evenodd" stroke="none"/>
  </g>
</svg>
