<?xml version="1.0" encoding="UTF-8" standalone="no"?>
<svg xmlns:ffdec="https://www.free-decompiler.com/flash" xmlns:xlink="http://www.w3.org/1999/xlink" ffdec:objectType="shape" height="26.35px" width="21.25px" xmlns="http://www.w3.org/2000/svg">
  <g transform="matrix(1.0, 0.0, 0.0, 1.0, 0.0, 0.0)">
    <path d="M21.0 3.6 Q21.0 3.9 19.85 4.35 18.6 4.85 18.4 5.1 L17.8 6.05 16.9 6.85 16.85 6.6 16.8 6.5 16.4 7.8 Q15.85 9.65 15.85 9.95 L16.1 10.25 16.3 10.85 16.3 11.65 16.1 13.9 16.3 14.55 Q16.3 15.0 15.95 15.0 L15.8 15.0 Q17.25 17.85 19.2 19.3 21.25 20.85 21.25 22.5 L20.95 23.55 Q20.5 24.35 19.55 24.35 L19.0 24.3 18.95 24.35 15.95 26.35 Q14.65 26.35 14.2 25.55 L14.0 24.6 13.4 25.05 Q13.15 25.55 12.45 25.55 L11.5 25.25 11.05 24.9 Q8.3 25.9 5.95 25.9 0.0 25.9 0.0 23.45 0.0 22.25 1.2 22.1 L1.3 21.2 Q1.45 20.7 2.15 20.3 L2.5 20.65 2.3 21.85 Q2.3 22.45 3.1 22.8 L3.8 21.15 6.0 16.3 9.1 8.55 9.1 7.3 9.15 6.75 Q9.15 5.75 9.8 4.45 10.5 2.95 11.4 2.8 L10.4 5.0 Q9.6 6.8 9.6 7.55 L9.65 7.6 9.65 12.5 9.75 14.25 9.95 12.65 10.0 11.95 10.15 11.25 Q10.4 8.8 11.85 5.7 13.15 2.95 14.3 1.9 L14.35 1.75 Q15.05 0.45 16.5 0.0 L16.55 0.25 13.95 5.65 13.75 6.15 14.05 7.4 13.95 8.7 14.05 8.6 14.0 8.5 14.2 8.2 Q14.45 8.2 14.8 8.95 15.35 6.85 16.25 4.55 17.45 1.35 18.35 0.95 L18.45 0.7 Q18.7 0.05 18.9 0.0 19.15 -0.05 19.15 0.55 19.15 1.4 18.3 3.05 L17.5 4.6 17.6 4.5 Q18.65 3.25 20.4 3.25 21.0 3.25 21.0 3.6 M14.15 10.5 L14.7 12.5 14.8 12.7 14.65 12.0 14.15 10.5 M12.65 8.7 Q11.3 12.4 11.3 15.4 11.3 16.95 12.75 20.0 L13.9 22.7 Q14.0 22.6 14.2 22.6 L14.3 22.65 13.9 21.45 13.35 17.5 12.85 13.05 12.55 9.75 12.65 8.7 M6.8 16.85 L4.8 21.55 4.1 23.0 6.3 23.1 7.35 23.0 7.85 22.75 8.8 21.25 8.85 21.15 9.15 19.4 9.15 12.85 Q9.0 12.25 9.1 11.45 L8.65 12.7 6.8 16.85 M14.05 16.5 Q14.5 20.2 15.35 23.0 L15.5 23.05 Q17.4 23.05 17.4 21.95 L15.75 19.4 Q14.65 17.45 14.0 15.45 L14.05 16.5 M14.15 23.6 L14.15 23.8 14.15 24.25 14.25 23.75 14.15 23.6" fill="#102700" fill-opacity="0.2" fill-rule="evenodd" stroke="none"/>
    <path d="M14.35 19.55 Q14.5 22.8 14.75 24.0 13.05 15.15 13.05 13.25 13.05 12.95 13.2 12.75 12.6 11.55 12.6 10.8 12.6 10.1 14.05 12.4 L15.1 14.05 15.0 13.45 15.2 11.45 15.35 9.45 Q15.35 7.9 15.95 6.65 16.55 5.4 16.55 6.3 L16.25 9.1 16.1 10.5 15.95 11.8 Q15.95 13.3 16.25 14.6 L16.55 16.05 16.55 16.3 19.4 19.3 Q20.95 21.0 20.95 22.35 20.95 22.95 20.3 23.6 19.35 24.5 17.5 24.5 17.0 24.5 16.85 24.15 L16.8 23.8 Q16.8 23.05 18.05 22.55 L19.3 21.9 Q19.3 21.4 15.95 17.05 L13.6 13.55 Q14.1 15.45 14.25 18.3 L14.25 18.45 14.2 19.05 14.35 19.55 M16.0 0.75 L14.75 2.7 Q13.45 4.95 13.05 7.4 L12.8 7.45 12.55 7.4 12.45 6.4 Q12.45 5.1 13.4 3.35 14.35 1.55 15.7 0.5 L16.0 0.75 M11.15 10.2 L10.9 12.6 Q10.65 13.7 10.65 15.65 L10.9 17.75 11.45 19.85 Q12.45 22.2 13.5 23.1 L14.2 23.95 Q14.2 24.85 13.2 24.85 12.3 24.85 11.75 24.2 L11.5 23.85 11.4 23.9 Q10.7 24.45 9.5 24.35 L9.1 24.4 8.45 24.25 5.0 24.7 2.9 24.95 2.05 24.95 Q0.35 24.25 0.35 22.85 0.35 22.2 1.3 22.95 L2.5 23.85 3.05 23.8 Q2.9 23.0 3.5 23.0 L3.85 22.3 5.4 18.75 Q6.75 14.5 8.05 12.85 L8.2 13.0 Q6.4 16.7 5.85 19.0 L4.95 21.95 4.05 23.65 4.7 23.75 8.35 23.35 9.05 22.6 Q9.9 21.9 9.9 21.1 L9.6 19.3 10.15 17.0 10.15 13.2 10.4 11.3 Q10.55 10.15 10.9 9.6 L11.15 10.2" fill="#102700" fill-opacity="0.2" fill-rule="evenodd" stroke="none"/>
    <path d="M14.25 18.45 Q14.4 17.75 15.05 18.45 15.9 19.4 15.9 20.8 15.9 21.4 15.3 21.4 14.85 21.4 14.5 20.25 L14.35 19.55 14.2 19.05 14.25 18.45 M16.75 2.45 Q16.35 3.3 15.85 3.45 L15.75 3.0 Q15.75 2.15 16.4 1.35 17.05 0.6 17.05 1.45 L16.75 2.45 M13.0 2.4 Q13.0 3.35 11.55 6.15 L11.45 6.45 10.85 7.4 10.55 7.9 10.05 7.4 9.85 6.9 Q9.85 5.7 11.0 4.0 L11.5 3.15 Q12.5 1.65 12.75 1.95 13.0 1.9 13.0 2.4 M8.9 15.4 Q7.75 21.4 6.7 21.4 6.2 21.4 6.0 21.05 L5.9 20.7 Q5.9 18.3 7.4 15.85 8.9 13.35 8.9 15.4" fill="#fbffb6" fill-opacity="0.2" fill-rule="evenodd" stroke="none"/>
    <path d="M15.85 2.8 Q15.85 1.95 16.85 1.15 17.85 0.4 17.85 1.45 L17.3 2.55 Q16.65 3.45 16.2 3.45 L15.9 3.15 15.85 2.8 M12.45 3.2 Q11.5 6.55 10.85 6.55 L10.4 6.45 10.3 5.7 Q10.3 4.65 11.4 3.25 12.45 1.8 12.45 3.2 M7.2 19.95 Q6.85 19.95 6.7 19.6 L6.65 19.2 Q6.65 18.0 7.65 16.6 8.6 15.15 8.6 16.4 8.25 19.95 7.2 19.95 M15.0 21.35 Q14.55 21.35 14.45 20.75 L14.4 20.25 Q14.4 19.3 15.0 19.25 15.6 19.2 15.6 20.25 15.65 21.35 15.0 21.35" fill="#fbffb6" fill-opacity="0.2" fill-rule="evenodd" stroke="none"/>
  </g>
</svg>
