<?xml version="1.0" encoding="UTF-8" standalone="no"?>
<svg xmlns:ffdec="https://www.free-decompiler.com/flash" xmlns:xlink="http://www.w3.org/1999/xlink" ffdec:objectType="shape" height="81.55px" width="101.7px" xmlns="http://www.w3.org/2000/svg">
  <g transform="matrix(1.0, 0.0, 0.0, 1.0, 0.0, -16.8)">
    <path d="M84.1 55.45 Q84.8 54.2 85.1 52.9 85.45 51.3 85.3 49.55 84.85 44.6 80.45 41.05 L77.5 39.2 77.15 39.0 73.5 45.7 74.3 46.6 Q75.0 47.6 75.0 48.85 75.0 50.7 73.5 52.0 72.85 52.6 72.05 52.9 L69.9 53.3 69.4 53.3 Q67.6 53.15 66.3 52.0 L66.25 51.95 Q64.8 50.65 64.8 48.85 64.8 47.0 66.3 45.7 67.3 44.85 68.55 44.55 L69.9 44.4 71.65 44.6 Q71.85 44.6 72.05 44.75 L74.95 39.5 75.45 38.35 75.15 38.25 72.05 37.65 70.35 37.55 67.6 37.8 Q63.7 38.45 60.95 41.05 57.25 44.6 57.7 49.55 58.0 52.8 60.0 55.45 61.05 56.8 62.55 58.0 66.7 61.4 72.05 61.55 L72.6 61.55 73.1 61.55 Q78.45 61.4 82.05 58.0 L84.1 55.45 M81.25 68.1 L81.15 68.25 80.95 68.65 80.6 69.25 78.9 71.45 67.5 67.1 63.15 68.65 Q58.0 70.2 54.95 70.6 L50.3 70.95 46.05 70.6 Q43.3 70.25 38.15 68.65 L36.85 68.2 33.8 67.1 33.85 67.3 25.25 70.3 25.05 70.45 22.4 71.45 Q21.2 70.15 20.35 68.65 L20.3 68.5 20.1 68.0 20.05 68.05 Q19.25 66.5 18.8 64.7 L12.4 68.85 12.35 68.6 Q11.65 65.45 12.0 62.85 L12.4 60.85 Q11.5 61.05 10.05 61.9 8.6 62.75 6.6 64.25 L4.15 66.1 10.3 64.2 10.15 65.25 Q9.8 68.15 10.35 70.65 L11.3 73.3 17.3 70.7 Q18.8 75.05 20.95 78.95 L23.4 83.1 23.45 83.15 38.9 78.55 Q44.55 83.9 50.8 85.1 56.75 83.9 62.4 78.55 L65.7 79.55 66.75 77.3 74.9 80.0 74.55 82.2 77.85 83.15 80.4 78.95 Q82.5 75.05 84.0 70.7 L90.0 73.3 90.15 73.05 90.95 70.65 Q91.6 67.7 91.0 64.2 L96.8 65.45 94.9 64.1 Q90.75 61.25 88.9 60.85 L89.4 63.25 Q89.6 65.65 88.95 68.6 L88.9 68.85 82.5 64.7 Q82.05 66.5 81.25 68.1 M90.7 83.2 Q84.95 88.55 78.8 91.8 68.6 99.65 59.25 96.35 55.85 98.35 50.75 98.35 45.85 98.35 42.45 96.35 33.1 99.65 22.9 91.8 16.75 88.55 11.0 83.2 -0.9 71.55 0.05 58.45 1.45 38.6 18.15 26.3 20.95 24.3 24.0 23.2 26.7 22.2 29.65 21.95 35.9 16.6 43.1 18.5 45.25 16.05 48.4 17.1 L48.0 17.65 46.35 19.7 43.85 22.7 42.9 24.0 41.85 26.0 Q43.45 26.5 45.0 27.35 L45.65 27.15 48.6 26.7 Q51.0 26.35 53.25 26.7 L56.4 27.25 56.7 27.35 56.9 27.25 57.85 26.8 Q60.85 25.15 63.75 24.2 64.05 22.9 60.8 20.4 L59.9 19.65 59.15 18.85 58.9 17.55 Q61.4 17.55 62.4 18.65 71.0 16.05 78.4 23.65 81.1 24.55 83.55 26.3 100.25 38.6 101.65 58.45 102.6 71.55 90.7 83.2 M29.25 37.65 L26.1 38.25 25.85 38.35 29.05 44.85 29.25 44.7 29.65 44.6 31.4 44.4 32.8 44.55 Q34.0 44.85 35.0 45.7 36.5 47.0 36.5 48.85 36.5 49.85 36.05 50.7 L35.0 52.0 Q33.85 53.0 32.3 53.25 L31.4 53.3 29.25 52.9 27.8 52.0 Q26.3 50.7 26.3 48.85 26.3 47.6 27.0 46.6 L27.8 45.65 24.15 39.0 23.8 39.2 Q22.25 39.95 20.85 41.05 16.45 44.6 16.0 49.55 15.85 51.3 16.2 52.9 L17.2 55.45 Q18.0 56.8 19.25 58.0 23.0 61.55 28.7 61.55 L29.25 61.55 Q34.6 61.4 38.75 58.0 L41.3 55.45 Q43.3 52.8 43.6 49.55 44.05 44.6 40.35 41.05 37.75 38.6 34.15 37.85 L30.95 37.55 29.25 37.65" fill="url(#gradient0)" fill-rule="evenodd" stroke="none"/>
    <path d="M73.1 61.55 Q78.45 61.4 82.05 58.0 L84.1 55.45 Q84.8 54.2 85.1 52.9 85.45 51.3 85.3 49.55 84.85 44.6 80.45 41.05 L77.5 39.2 77.15 39.0 73.5 45.7 74.3 46.6 Q75.0 47.6 75.0 48.85 75.0 50.7 73.5 52.0 72.85 52.6 72.05 52.9 L69.9 53.3 69.4 53.3 Q67.6 53.15 66.3 52.0 L66.25 51.95 Q64.8 50.65 64.8 48.85 64.8 47.0 66.3 45.7 67.3 44.85 68.55 44.55 L69.9 44.4 71.65 44.6 Q71.85 44.6 72.05 44.75 L74.95 39.5 75.45 38.35 75.15 38.25 72.05 37.65 70.35 37.55 67.6 37.8 Q63.2 29.0 56.7 27.35 L56.9 27.25 57.85 26.8 Q65.7 23.1 76.55 28.95 92.0 38.6 95.15 55.95 95.55 59.7 94.9 64.1 90.75 61.25 88.9 60.85 L89.4 63.25 Q89.6 65.65 88.95 68.6 L88.9 68.85 82.5 64.7 Q82.05 66.5 81.25 68.1 L81.15 68.25 80.95 68.65 80.6 69.25 78.9 71.45 73.2 69.3 Q73.5 67.35 73.4 66.15 L73.1 61.55 M70.45 78.4 L72.5 77.9 71.05 76.9 71.7 75.15 75.3 75.9 75.5 76.1 74.55 82.2 77.85 83.15 80.4 78.95 Q82.5 75.05 84.0 70.7 L90.0 73.3 90.15 73.05 90.95 70.65 Q91.6 67.7 91.0 64.2 L94.95 65.05 Q92.85 77.45 82.9 88.25 L78.8 91.8 Q68.6 99.65 59.25 96.35 62.05 94.65 63.8 91.3 68.05 84.0 70.45 78.4" fill="url(#gradient1)" fill-rule="evenodd" stroke="none"/>
    <path d="M94.9 64.1 Q95.55 59.7 95.15 55.95 92.0 38.6 76.55 28.95 65.7 23.1 57.85 26.8 60.85 25.15 63.75 24.2 71.75 21.4 78.4 23.65 81.1 24.55 83.55 26.3 100.25 38.6 101.65 58.45 102.6 71.55 90.7 83.2 84.95 88.55 78.8 91.8 L82.9 88.25 Q92.85 77.45 94.95 65.05 L96.8 65.45 94.9 64.1" fill="url(#gradient2)" fill-rule="evenodd" stroke="none"/>
    <path d="M78.4 23.65 Q71.75 21.4 63.75 24.2 64.05 22.9 60.8 20.4 L59.9 19.65 62.4 18.65 Q71.0 16.05 78.4 23.65" fill="url(#gradient3)" fill-rule="evenodd" stroke="none"/>
    <path d="M29.65 21.95 Q35.9 16.6 43.1 18.5 44.7 18.9 46.35 19.7 L43.85 22.7 42.9 24.0 Q35.85 21.35 29.65 21.95" fill="url(#gradient4)" fill-rule="evenodd" stroke="none"/>
    <path d="M41.85 26.0 Q43.45 26.5 45.0 27.35 38.5 29.0 34.15 37.85 L30.95 37.55 29.25 37.65 26.1 38.25 25.85 38.35 29.05 44.85 29.25 44.7 29.65 44.6 31.4 44.4 32.8 44.55 Q34.0 44.85 35.0 45.7 36.5 47.0 36.5 48.85 36.5 49.85 36.05 50.7 L35.0 52.0 Q33.85 53.0 32.3 53.25 L31.4 53.3 29.25 52.9 27.8 52.0 Q26.3 50.7 26.3 48.85 26.3 47.6 27.0 46.6 L27.8 45.65 24.15 39.0 23.8 39.2 Q22.25 39.95 20.85 41.05 16.45 44.6 16.0 49.55 15.85 51.3 16.2 52.9 L17.2 55.45 Q18.0 56.8 19.25 58.0 23.0 61.55 28.7 61.55 L28.3 65.0 Q28.15 66.9 28.3 68.35 28.4 69.75 33.8 67.1 L35.0 74.2 26.8 75.7 25.05 70.45 22.4 71.45 Q21.2 70.15 20.35 68.65 L20.3 68.5 20.1 68.0 20.05 68.05 Q19.25 66.5 18.8 64.7 L12.4 68.85 12.35 68.6 Q11.65 65.45 12.0 62.85 L12.4 60.85 Q11.5 61.05 10.05 61.9 8.6 62.75 6.6 64.25 6.15 59.85 6.55 55.95 9.7 38.6 25.15 28.95 34.6 23.85 41.85 26.0 M6.6 65.35 L10.3 64.2 10.15 65.25 Q9.8 68.15 10.35 70.65 L11.3 73.3 17.3 70.7 Q18.8 75.05 20.95 78.95 L23.4 83.1 23.45 83.15 32.25 80.55 Q34.85 86.05 37.9 91.3 39.65 94.65 42.45 96.35 33.1 99.65 22.9 91.8 L18.8 88.25 Q9.0 77.6 6.6 65.35" fill="url(#gradient5)" fill-rule="evenodd" stroke="none"/>
    <path d="M67.6 37.8 Q63.7 38.45 60.95 41.05 57.25 44.6 57.7 49.55 58.0 52.8 60.0 55.45 61.05 56.8 62.55 58.0 66.7 61.4 72.05 61.55 L72.6 61.55 73.1 61.55 73.4 66.15 Q73.5 67.35 73.2 69.3 L67.5 67.1 63.15 68.65 Q58.0 70.2 54.95 70.6 L50.3 70.95 46.05 70.6 Q43.3 70.25 38.15 68.65 L36.85 68.2 33.8 67.1 Q28.4 69.75 28.3 68.35 28.15 66.9 28.3 65.0 L28.7 61.55 29.25 61.55 Q34.6 61.4 38.75 58.0 L41.3 55.45 Q43.3 52.8 43.6 49.55 44.05 44.6 40.35 41.05 37.75 38.6 34.15 37.85 38.5 29.0 45.0 27.35 L45.65 27.15 48.6 26.7 Q51.0 26.35 53.25 26.7 L56.4 27.25 56.7 27.35 Q63.2 29.0 67.6 37.8" fill="url(#gradient6)" fill-rule="evenodd" stroke="none"/>
    <path d="M29.65 21.95 Q35.85 21.35 42.9 24.0 L41.85 26.0 Q34.6 23.85 25.15 28.95 9.7 38.6 6.55 55.95 6.15 59.85 6.6 64.25 L4.15 66.1 6.6 65.35 Q9.0 77.6 18.8 88.25 L22.9 91.8 Q16.75 88.55 11.0 83.2 -0.9 71.55 0.05 58.45 1.45 38.6 18.15 26.3 20.95 24.3 24.0 23.2 26.7 22.2 29.65 21.95" fill="url(#gradient7)" fill-rule="evenodd" stroke="none"/>
    <path d="M32.25 80.55 L38.9 78.55 Q44.55 83.9 50.8 85.1 56.75 83.9 62.4 78.55 L65.7 79.55 70.45 78.4 Q68.05 84.0 63.8 91.3 62.05 94.65 59.25 96.35 55.85 98.35 50.75 98.35 45.85 98.35 42.45 96.35 39.65 94.65 37.9 91.3 34.85 86.05 32.25 80.55" fill="url(#gradient8)" fill-rule="evenodd" stroke="none"/>
  </g>
  <defs>
    <radialGradient cx="0" cy="0" gradientTransform="matrix(0.0652, 0.0, 0.0, 0.0537, 50.5, 54.25)" gradientUnits="userSpaceOnUse" id="gradient0" r="819.2" spreadMethod="pad">
      <stop offset="0.0" stop-color="#ffc400"/>
      <stop offset="0.6235294117647059" stop-color="#ff8a00"/>
      <stop offset="0.9411764705882353" stop-color="#8e1700"/>
      <stop offset="1.0" stop-color="#bb6500"/>
    </radialGradient>
    <radialGradient cx="0" cy="0" gradientTransform="matrix(0.0493, 0.0, 0.0, 0.0493, 55.0, 59.6)" gradientUnits="userSpaceOnUse" id="gradient1" r="819.2" spreadMethod="pad">
      <stop offset="0.8549019607843137" stop-color="#7e1400" stop-opacity="0.0"/>
      <stop offset="0.9137254901960784" stop-color="#9c3200" stop-opacity="0.4"/>
    </radialGradient>
    <radialGradient cx="0" cy="0" gradientTransform="matrix(0.0442, 0.0, 0.0, 0.0442, 65.4, 55.2)" gradientUnits="userSpaceOnUse" id="gradient2" r="819.2" spreadMethod="pad">
      <stop offset="0.8549019607843137" stop-color="#7e1400" stop-opacity="0.0"/>
      <stop offset="0.9137254901960784" stop-color="#9c3200" stop-opacity="0.5019608"/>
    </radialGradient>
    <radialGradient cx="0" cy="0" gradientTransform="matrix(0.0141, 0.0, 0.0, 0.0107, 66.4, 27.1)" gradientUnits="userSpaceOnUse" id="gradient3" r="819.2" spreadMethod="pad">
      <stop offset="0.5725490196078431" stop-color="#9c3200" stop-opacity="0.4"/>
      <stop offset="0.8431372549019608" stop-color="#7e1400" stop-opacity="0.0"/>
    </radialGradient>
    <radialGradient cx="0" cy="0" gradientTransform="matrix(0.0157, 0.0, 0.0, 0.0098, 39.9, 26.5)" gradientUnits="userSpaceOnUse" id="gradient4" r="819.2" spreadMethod="pad">
      <stop offset="0.5725490196078431" stop-color="#9c3200" stop-opacity="0.4"/>
      <stop offset="0.8431372549019608" stop-color="#7e1400" stop-opacity="0.0"/>
    </radialGradient>
    <radialGradient cx="0" cy="0" gradientTransform="matrix(0.0465, 0.0, 0.0, 0.0465, 42.8, 59.2)" gradientUnits="userSpaceOnUse" id="gradient5" r="819.2" spreadMethod="pad">
      <stop offset="0.8549019607843137" stop-color="#7e1400" stop-opacity="0.0"/>
      <stop offset="0.9137254901960784" stop-color="#9c3200" stop-opacity="0.4"/>
    </radialGradient>
    <radialGradient cx="0" cy="0" gradientTransform="matrix(0.0277, 0.0, 0.0, 0.0511, 50.8, 56.8)" gradientUnits="userSpaceOnUse" id="gradient6" r="819.2" spreadMethod="pad">
      <stop offset="0.6823529411764706" stop-color="#7e1400" stop-opacity="0.0"/>
      <stop offset="0.8235294117647058" stop-color="#9c3200" stop-opacity="0.29803923"/>
    </radialGradient>
    <radialGradient cx="0" cy="0" gradientTransform="matrix(0.045, 0.0, 0.0, 0.045, 36.0, 55.4)" gradientUnits="userSpaceOnUse" id="gradient7" r="819.2" spreadMethod="pad">
      <stop offset="0.8549019607843137" stop-color="#7e1400" stop-opacity="0.0"/>
      <stop offset="0.9137254901960784" stop-color="#9c3200" stop-opacity="0.5019608"/>
    </radialGradient>
    <radialGradient cx="0" cy="0" gradientTransform="matrix(0.0277, 0.0, 0.0, 0.0511, 50.8, 56.8)" gradientUnits="userSpaceOnUse" id="gradient8" r="819.2" spreadMethod="pad">
      <stop offset="0.6823529411764706" stop-color="#7e1400" stop-opacity="0.0"/>
      <stop offset="0.8235294117647058" stop-color="#9c3200" stop-opacity="0.4"/>
    </radialGradient>
  </defs>
</svg>
