<?xml version="1.0" encoding="UTF-8" standalone="no"?>
<svg xmlns:ffdec="https://www.free-decompiler.com/flash" xmlns:xlink="http://www.w3.org/1999/xlink" ffdec:objectType="shape" height="42.05px" width="45.2px" xmlns="http://www.w3.org/2000/svg">
  <g transform="matrix(1.0, 0.0, 0.0, 1.0, 0.5, 0.05)">
    <path d="M42.2 15.15 Q44.2 19.1 44.2 22.5 44.2 29.55 34.55 36.25 30.9 38.75 27.2 40.25 23.65 41.7 22.0 41.4 20.55 41.7 17.0 40.25 13.3 38.75 9.65 36.25 0.0 29.55 0.0 22.5 0.0 19.1 2.0 15.15 L4.65 9.4 Q5.3 7.5 4.05 4.6 19.2 -4.8 39.95 4.75 39.0 8.65 39.6 9.95 L42.2 15.15" fill="url(#gradient0)" fill-rule="evenodd" stroke="none"/>
    <path d="M42.2 15.15 Q44.2 19.1 44.2 22.5 44.2 29.55 34.55 36.25 30.9 38.75 27.2 40.25 23.65 41.7 22.0 41.4 20.55 41.7 17.0 40.25 13.3 38.75 9.65 36.25 0.0 29.55 0.0 22.5 0.0 19.1 2.0 15.15 4.0 11.25 4.65 9.3 5.25 7.35 4.6 6.2 L4.3 4.65 Q19.75 -4.65 39.95 4.75 39.35 7.9 39.65 9.1 40.2 11.25 42.2 15.15" fill="url(#gradient1)" fill-rule="evenodd" stroke="none"/>
    <path d="M43.7 22.5 Q43.7 19.2 41.75 15.4 39.7 11.4 39.25 9.75 38.8 8.35 39.65 6.1 39.35 7.1 40.35 9.9 L40.2 9.45 Q40.7 11.1 42.65 14.95 44.7 19.0 44.7 22.5 44.75 29.75 34.85 36.65 L34.85 36.7 Q31.15 39.2 27.4 40.75 23.75 42.2 22.0 41.95 20.45 42.2 16.8 40.75 13.05 39.2 9.4 36.7 L9.4 36.65 Q-0.55 29.75 -0.5 22.5 -0.5 19.0 1.55 14.95 L4.2 9.7 Q4.85 8.3 4.55 6.0 5.4 8.3 5.0 9.75 L2.45 15.4 Q0.5 19.2 0.5 22.5 0.55 29.35 9.95 35.85 13.55 38.3 17.2 39.8 20.55 41.15 21.9 40.9 L22.1 40.9 Q23.65 41.15 27.0 39.8 30.65 38.3 34.3 35.85 43.65 29.35 43.7 22.5" fill="#002735" fill-rule="evenodd" stroke="none"/>
  </g>
  <defs>
    <radialGradient cx="0" cy="0" fx="3.2" fy="0" gradientTransform="matrix(0.092, 0.0, 0.0, 0.0413, 21.8, 11.3)" gradientUnits="userSpaceOnUse" id="gradient0" r="819.2" spreadMethod="pad">
      <stop offset="0.0" stop-color="#778a52"/>
      <stop offset="1.0" stop-color="#41728e"/>
    </radialGradient>
    <radialGradient cx="0" cy="0" fx="3.2" fy="0" gradientTransform="matrix(0.0383, 0.0, 0.0, 0.0329, 22.6, 14.2)" gradientUnits="userSpaceOnUse" id="gradient1" r="819.2" spreadMethod="pad">
      <stop offset="0.5372549019607843" stop-color="#001927" stop-opacity="0.03137255"/>
      <stop offset="0.9568627450980393" stop-color="#001927" stop-opacity="0.7490196"/>
    </radialGradient>
  </defs>
</svg>
