<?xml version="1.0" encoding="UTF-8" standalone="no"?>
<svg xmlns:ffdec="https://www.free-decompiler.com/flash" xmlns:xlink="http://www.w3.org/1999/xlink" ffdec:objectType="shape" height="102.0px" width="194.05px" xmlns="http://www.w3.org/2000/svg">
  <g transform="matrix(1.0, 0.0, 0.0, 1.0, 0.2, -0.05)">
    <path d="M29.8 0.05 L163.85 0.05 Q176.25 0.05 185.05 8.85 193.85 17.65 193.85 30.05 L193.85 72.05 Q193.85 78.5 191.5 83.95 L190.1 86.7 187.45 90.65 186.15 92.15 185.05 93.25 181.05 96.7 Q176.8 99.7 171.9 101.05 168.1 102.05 163.85 102.05 L29.8 102.05 Q17.4 102.05 8.6 93.25 4.4 89.05 2.2 84.0 -0.2 78.5 -0.2 72.05 L-0.2 30.05 Q-0.2 23.75 2.1 18.35 2.8 16.65 3.75 15.1 4.7 13.45 5.9 11.9 L7.3 10.25 8.6 8.85 10.1 7.45 Q18.45 0.05 29.8 0.05" fill="#ff00ff" fill-rule="evenodd" stroke="none"/>
  </g>
</svg>
