<?xml version="1.0" encoding="UTF-8" standalone="no"?>
<svg xmlns:ffdec="https://www.free-decompiler.com/flash" xmlns:xlink="http://www.w3.org/1999/xlink" ffdec:objectType="shape" height="10.55px" width="12.35px" xmlns="http://www.w3.org/2000/svg">
  <g transform="matrix(1.0, 0.0, 0.0, 1.0, 0.0, 0.0)">
    <path d="M1.65 6.35 Q2.15 6.75 4.15 7.35 L5.95 7.95 7.65 8.35 Q10.2 8.35 12.05 5.75 L12.35 5.4 Q12.1 7.2 10.55 8.75 8.75 10.55 6.65 10.55 5.55 10.55 4.2 9.6 L2.15 8.35 Q0.3 7.75 0.05 6.45 L0.0 4.6 1.65 6.35" fill="#c9e0e2" fill-opacity="0.3019608" fill-rule="evenodd" stroke="none"/>
    <path d="M11.45 4.1 Q11.45 5.05 11.15 5.45 10.5 6.35 8.4 6.35 5.1 6.35 3.05 4.85 1.55 3.75 1.55 3.05 1.55 -0.35 6.5 0.05 11.45 0.45 11.45 4.1" fill="#ffffff" fill-opacity="0.5019608" fill-rule="evenodd" stroke="none"/>
  </g>
</svg>
