<?xml version="1.0" encoding="UTF-8" standalone="no"?>
<svg xmlns:ffdec="https://www.free-decompiler.com/flash" xmlns:xlink="http://www.w3.org/1999/xlink" ffdec:objectType="shape" height="21.3px" width="60.0px" xmlns="http://www.w3.org/2000/svg">
  <g transform="matrix(1.0, 0.0, 0.0, 1.0, 0.0, 0.0)">
    <path d="M56.8 3.9 Q60.0 5.6 60.0 7.4 L59.65 8.8 59.0 10.3 Q58.75 10.9 56.8 11.9 L54.8 12.9 Q51.5 16.5 48.4 18.3 47.35 18.85 44.4 19.15 L39.2 19.3 Q38.55 19.25 35.3 20.25 L30.6 21.3 Q29.6 21.3 27.15 20.4 L24.7 19.5 20.4 20.1 13.9 19.25 Q11.85 18.55 8.4 16.5 7.6 16.0 5.45 15.7 3.45 15.4 2.8 14.9 L1.95 14.1 Q1.55 13.55 1.6 12.7 1.65 11.7 0.85 10.8 0.0 9.9 0.0 9.6 0.0 8.2 2.2 6.65 8.35 0.85 28.9 0.25 46.5 -1.05 56.8 3.9" fill="#2d6f74" fill-opacity="0.2" fill-rule="evenodd" stroke="none"/>
  </g>
</svg>
