<?xml version="1.0" encoding="UTF-8" standalone="no"?>
<svg xmlns:ffdec="https://www.free-decompiler.com/flash" xmlns:xlink="http://www.w3.org/1999/xlink" ffdec:objectType="shape" height="49.4px" width="72.85px" xmlns="http://www.w3.org/2000/svg">
  <g transform="matrix(1.0, 0.0, 0.0, 1.0, 3.9, 0.5)">
    <path d="M0.35 13.15 Q-1.05 17.55 -1.05 25.5 -1.05 29.5 0.65 32.35 2.35 35.15 5.1 36.3 7.8 37.45 9.1 38.15 10.4 38.8 12.25 40.5 14.1 42.15 17.1 42.7 L21.75 42.9 26.35 41.7 29.65 40.6 Q31.05 40.0 33.0 40.15 37.35 40.4 39.75 41.2 L43.75 41.0 Q45.4 40.05 48.5 39.1 51.55 38.2 52.75 36.9 L54.85 34.6 Q55.75 33.6 58.85 32.95 61.95 32.3 63.05 27.5 64.15 22.7 63.45 19.25 62.7 15.8 59.95 11.7 58.75 9.9 58.4 7.95 61.3 10.5 62.65 12.4 68.15 18.9 68.45 24.95 68.15 25.55 67.8 26.95 67.45 28.35 66.15 30.45 L62.9 34.7 59.2 38.4 56.4 40.95 51.7 43.75 Q47.75 45.65 44.65 46.2 L32.75 47.05 21.1 46.95 Q16.5 46.85 10.7 44.25 5.95 42.15 5.7 43.2 L3.75 41.8 3.1 41.3 0.95 39.8 Q-0.85 38.5 -1.7 33.65 -3.75 29.45 -3.3 24.5 -3.05 22.35 -2.3 20.25 -2.8 16.15 0.35 13.15" fill="#dff1f3" fill-rule="evenodd" stroke="none"/>
    <path d="M5.7 43.2 Q5.95 42.15 10.7 44.25 16.5 46.85 21.1 46.95 L32.75 47.05 44.65 46.2 Q47.75 45.65 51.7 43.75 L56.4 40.95 59.2 38.4 62.9 34.7 66.15 30.45 Q67.45 28.35 67.8 26.95 68.15 25.55 68.45 24.95 L68.45 25.5 Q68.45 27.8 67.05 30.8 L65.05 34.35 62.8 37.4 59.4 41.25 Q57.4 43.3 52.7 45.4 47.95 47.5 42.8 47.95 37.6 48.4 21.3 48.4 13.15 48.4 5.7 43.2" fill="#ffffff" fill-rule="evenodd" stroke="none"/>
    <path d="M58.4 7.95 Q58.75 9.9 59.95 11.7 62.7 15.8 63.45 19.25 64.15 22.7 63.05 27.5 61.95 32.3 58.85 32.95 55.75 33.6 54.85 34.6 L52.75 36.9 Q51.55 38.2 48.5 39.1 45.4 40.05 43.75 41.0 L39.75 41.2 Q37.35 40.4 33.0 40.15 31.05 40.0 29.65 40.6 L26.35 41.7 21.75 42.9 17.1 42.7 Q14.1 42.15 12.25 40.5 10.4 38.8 9.1 38.15 7.8 37.45 5.1 36.3 2.35 35.15 0.65 32.35 -1.05 29.5 -1.05 25.5 -1.05 17.55 0.35 13.15 L4.9 8.95 Q6.15 8.45 8.8 5.85 11.4 3.2 17.6 2.7 24.95 -0.2 32.55 0.0 42.25 0.3 51.3 4.4 55.6 5.55 58.4 7.95" fill="url(#gradient0)" fill-rule="evenodd" stroke="none"/>
    <path d="M58.4 7.95 Q55.6 5.55 51.3 4.4 42.25 0.3 32.55 0.0 24.95 -0.2 17.6 2.7 11.4 3.2 8.8 5.85 6.15 8.45 4.9 8.95 L0.35 13.15 Q-2.8 16.15 -2.3 20.25 -3.05 22.35 -3.3 24.5 -3.75 29.45 -1.7 33.65 -0.85 38.5 0.95 39.8 L3.1 41.3 3.75 41.8 5.7 43.2 Q13.15 48.4 21.3 48.4 37.6 48.4 42.8 47.95 47.95 47.5 52.7 45.4 57.4 43.3 59.4 41.25 L62.8 37.4 65.05 34.35 67.05 30.8 Q68.45 27.8 68.45 25.5 L68.45 24.95 Q68.15 18.9 62.65 12.4 61.3 10.5 58.4 7.95 Z" fill="none" stroke="#addeeb" stroke-linecap="round" stroke-linejoin="round" stroke-width="1.0"/>
  </g>
  <defs>
    <radialGradient cx="0" cy="0" gradientTransform="matrix(0.0383, 0.0, 0.0, 0.0287, 28.8, 16.85)" gradientUnits="userSpaceOnUse" id="gradient0" r="819.2" spreadMethod="pad">
      <stop offset="0.5333333333333333" stop-color="#ffffff"/>
      <stop offset="1.0" stop-color="#edf7f9"/>
    </radialGradient>
  </defs>
</svg>
