<?xml version="1.0" encoding="UTF-8" standalone="no"?>
<svg xmlns:ffdec="https://www.free-decompiler.com/flash" xmlns:xlink="http://www.w3.org/1999/xlink" ffdec:objectType="shape" height="26.75px" width="47.65px" xmlns="http://www.w3.org/2000/svg">
  <g transform="matrix(1.0, 0.0, 0.0, 1.0, -3.35, 0.0)">
    <path d="M30.6 16.05 L30.7 15.35 35.85 11.4 36.7 11.0 Q43.9 7.55 49.1 7.0 L49.55 6.85 51.0 6.85 49.0 7.7 Q43.8 8.25 36.6 11.7 L35.75 12.1 30.6 16.05 M35.65 5.45 L35.75 4.75 37.25 2.35 39.7 0.5 39.7 1.1 37.15 3.05 35.65 5.45 M34.2 4.45 Q35.35 6.45 34.8 9.65 35.1 6.75 33.9 4.9 L34.2 4.45 M5.1 26.7 L6.8 25.95 Q7.55 25.75 9.1 23.9 L9.5 23.4 13.1 20.75 Q17.2 18.15 21.75 16.8 L25.55 18.5 28.0 18.1 29.25 16.6 32.05 16.9 33.7 18.65 37.35 18.8 37.6 18.85 37.5 19.5 33.6 19.35 31.95 17.6 29.15 17.3 27.9 18.8 25.45 19.2 21.65 17.5 Q17.4 18.75 13.1 21.9 L10.55 23.9 8.4 25.9 Q6.75 26.95 5.1 26.7" fill="#643912" fill-rule="evenodd" stroke="none"/>
    <path d="M49.55 6.85 L49.1 7.0 Q43.9 7.55 36.7 11.0 L35.85 11.4 30.7 15.35 30.6 16.05 32.6 16.35 35.05 18.3 37.35 18.8 33.7 18.65 32.05 16.9 29.25 16.6 28.0 18.1 25.55 18.5 21.75 16.8 Q17.2 18.15 13.1 20.75 L9.5 23.4 9.1 23.9 Q7.55 25.75 6.8 25.95 L5.1 26.7 4.35 26.5 Q3.1 25.9 3.4 24.55 L3.45 24.5 Q6.3 22.15 9.1 20.3 11.1 19.0 13.1 17.95 16.9 15.85 20.75 14.7 L22.9 14.7 26.4 16.55 33.45 11.15 34.65 10.55 34.75 9.85 34.8 9.65 Q35.35 6.45 34.2 4.45 L35.75 2.25 39.7 0.0 39.7 0.5 37.25 2.35 35.75 4.75 35.65 5.45 Q36.85 7.2 36.5 9.8 43.5 6.95 49.55 6.85" fill="#7b4c22" fill-rule="evenodd" stroke="none"/>
    <path d="M33.8 12.35 L33.5 12.6 32.2 13.65 31.95 13.2 33.2 12.1 33.5 11.9 33.75 11.75 33.9 12.1 34.0 12.25 33.8 12.35 M35.6 6.65 L35.7 8.0 36.0 9.35 36.0 10.4 37.3 9.8 37.25 10.4 Q35.8 11.0 34.8 11.65 L34.5 11.25 35.6 10.6 35.5 10.55 35.45 6.65 35.6 6.65 M41.6 8.6 L38.3 9.95 38.4 9.4 Q39.95 8.85 41.6 8.6 M24.65 16.25 L26.35 17.35 26.4 17.45 26.15 17.5 Q23.5 16.1 21.8 16.1 L21.75 15.35 Q23.05 15.4 24.65 16.25 M17.45 16.5 Q19.45 15.65 20.8 15.45 L20.85 16.2 Q19.5 16.4 17.65 17.15 L17.45 16.5 M27.35 16.8 L31.15 13.9 31.2 14.0 31.35 14.3 27.35 16.8 M6.5 23.85 L6.4 23.65 Q6.4 23.15 8.8 21.5 L8.9 21.75 9.1 22.15 6.5 23.85 M13.7 18.8 L13.6 18.5 15.1 17.7 16.65 16.9 16.8 17.55 Q16.0 17.9 15.1 18.4 14.45 18.7 13.8 19.1 L13.7 18.8 M12.5 19.85 L10.4 21.3 10.0 20.7 12.4 19.2 12.8 19.0 12.95 19.6 12.5 19.85" fill="#9a6e3a" fill-rule="evenodd" stroke="none"/>
  </g>
</svg>
