<?xml version="1.0" encoding="UTF-8" standalone="no"?>
<svg xmlns:ffdec="https://www.free-decompiler.com/flash" xmlns:xlink="http://www.w3.org/1999/xlink" ffdec:objectType="shape" height="42.05px" width="56.35px" xmlns="http://www.w3.org/2000/svg">
  <g transform="matrix(1.0, 0.0, 0.0, 1.0, 4.5, 7.9)">
    <path d="M-1.85 -2.85 L-0.1 -3.9 2.95 -5.0 Q5.0 -5.65 9.05 -6.1 L11.25 -6.35 16.25 -6.7 22.85 -6.9 25.0 -6.85 31.0 -6.45 Q35.3 -5.95 38.1 -4.8 L40.25 -3.7 Q42.9 -1.9 43.05 0.9 L41.75 2.1 40.75 2.95 39.2 4.2 36.25 6.05 34.45 5.05 33.8 4.7 31.15 3.8 28.85 3.35 25.6 2.75 24.5 2.7 20.25 2.6 17.1 2.65 11.4 3.1 10.7 3.2 5.4 4.15 4.85 4.3 Q2.75 4.9 1.65 5.95 L0.0 4.8 -3.05 1.9 -3.45 1.5 Q-3.7 -1.25 -1.85 -2.85 Z" fill="none" stroke="#00375b" stroke-linecap="round" stroke-linejoin="round" stroke-width="2.0"/>
    <path d="M2.7 -2.85 Q5.8 -4.0 10.45 -4.6 L10.8 -3.2 11.3 -1.1 11.45 -0.25 11.4 1.5 10.3 1.65 Q7.1 2.15 4.4 2.95 L4.3 2.7 Q3.9 1.65 3.65 -0.3 L3.6 -0.6 2.7 -2.85 M17.2 1.1 L17.15 -1.7 17.0 -3.5 16.8 -5.15 23.0 -5.3 24.65 -5.25 24.5 -4.6 24.45 -2.5 24.4 0.25 24.4 1.1 22.0 1.0 17.2 1.1 M29.3 1.35 L29.65 0.4 Q30.45 -1.65 30.45 -3.1 L30.45 -3.2 30.4 -4.05 30.35 -4.35 30.3 -4.7 30.35 -4.7 32.8 -4.25 34.0 -4.05 34.7 -3.9 35.5 -3.65 36.55 -3.2 36.5 -3.2 Q35.85 -2.55 35.95 -0.6 35.95 -0.2 34.75 1.85 L34.6 2.25 32.9 1.8 30.35 1.4 29.3 1.35" fill="#00dd4d" fill-rule="evenodd" stroke="none"/>
    <path d="M41.75 2.0 L40.75 2.85 39.2 4.1 38.15 3.65 34.6 2.25 34.75 1.85 Q35.95 -0.2 35.95 -0.6 35.85 -2.55 36.5 -3.2 L36.55 -3.2 38.8 -1.8 39.65 -0.9 41.2 0.6 41.75 2.0 M0.0 4.7 L-3.05 1.8 Q-1.95 -1.1 2.7 -2.85 L3.6 -0.6 3.65 -0.3 Q3.9 1.65 4.3 2.7 L4.4 2.95 Q1.95 3.7 0.0 4.7 M11.4 1.5 L11.45 -0.25 11.3 -1.1 10.8 -3.2 10.45 -4.6 16.8 -5.15 17.0 -3.5 17.15 -1.7 17.2 1.1 11.4 1.5 M24.4 1.1 L24.4 0.25 24.45 -2.5 24.5 -4.6 24.65 -5.25 30.3 -4.7 30.35 -4.35 30.4 -4.05 30.45 -3.2 30.45 -3.1 Q30.45 -1.65 29.65 0.4 L29.3 1.35 25.8 1.15 24.4 1.1" fill="#006ca5" fill-rule="evenodd" stroke="none"/>
    <path d="M-0.1 -4.0 L2.95 -5.1 Q5.0 -5.75 9.05 -6.2 L10.25 -5.55 10.45 -4.6 Q5.8 -4.0 2.7 -2.85 L2.3 -3.45 -0.1 -4.0 M16.25 -6.8 L17.15 -6.85 22.85 -7.0 25.0 -6.95 25.0 -6.85 Q24.75 -6.2 24.65 -5.25 L23.0 -5.3 16.8 -5.15 16.75 -5.95 16.25 -6.8 M31.0 -6.55 L32.8 -6.3 Q35.9 -5.8 38.05 -4.9 L38.1 -4.9 40.25 -3.8 39.7 -3.9 37.85 -3.7 Q36.95 -3.55 36.55 -3.2 L35.5 -3.65 34.7 -3.9 34.0 -4.05 32.8 -4.25 30.35 -4.7 30.3 -4.7 30.1 -5.3 30.35 -5.95 31.0 -6.55 M39.7 -3.9 L40.0 -3.9 Q39.9 -3.9 39.75 -4.0 L39.7 -3.9" fill="#00ff96" fill-rule="evenodd" stroke="none"/>
    <path d="M9.05 -6.2 L11.25 -6.45 16.25 -6.8 16.75 -5.95 16.8 -5.15 10.45 -4.6 10.25 -5.55 9.05 -6.2 M25.0 -6.95 L27.8 -6.85 30.35 -6.6 31.0 -6.55 30.35 -5.95 30.1 -5.3 30.3 -4.7 24.65 -5.25 Q24.75 -6.2 25.0 -6.85 L25.0 -6.95 M40.25 -3.8 Q42.9 -2.0 43.05 0.8 L41.75 2.0 41.2 0.6 39.65 -0.9 38.8 -1.8 36.55 -3.2 Q36.95 -3.55 37.85 -3.7 L39.7 -3.9 40.25 -3.8 M-3.05 1.8 L-3.45 1.4 Q-3.7 -1.35 -1.85 -2.95 L-0.1 -4.0 2.3 -3.45 2.7 -2.85 Q-1.95 -1.1 -3.05 1.8" fill="#0072ad" fill-rule="evenodd" stroke="none"/>
    <path d="M39.7 -3.9 L39.75 -4.0 Q39.9 -3.9 40.0 -3.9 L39.7 -3.9" fill="#009900" fill-rule="evenodd" stroke="none"/>
    <path d="M39.2 4.1 L36.25 5.95 34.45 4.95 33.8 4.6 Q34.0 3.3 34.6 2.25 L38.15 3.65 39.2 4.1 M28.85 3.25 L25.6 2.65 24.5 2.6 24.4 1.1 25.8 1.15 29.3 1.35 Q28.9 2.5 28.85 3.25 M17.1 2.55 L11.4 3.0 11.4 2.05 11.4 1.5 17.2 1.1 17.2 1.7 17.1 2.55 M4.85 4.2 Q2.75 4.8 1.65 5.85 L0.0 4.7 Q1.95 3.7 4.4 2.95 L4.85 4.2" fill="#005585" fill-rule="evenodd" stroke="none"/>
    <path d="M33.8 4.6 L32.9 4.25 31.15 3.7 28.85 3.25 Q28.9 2.5 29.3 1.35 L30.35 1.4 32.9 1.8 34.6 2.25 Q34.0 3.3 33.8 4.6 M24.5 2.6 L20.25 2.5 17.1 2.55 17.2 1.7 17.2 1.1 22.0 1.0 24.4 1.1 24.5 2.6 M11.4 3.0 L10.7 3.1 5.4 4.05 4.85 4.2 4.4 2.95 Q7.1 2.15 10.3 1.65 L11.4 1.5 11.4 2.05 11.4 3.0" fill="#00870d" fill-rule="evenodd" stroke="none"/>
    <path d="M30.95 10.2 L31.65 11.85 31.85 12.2 32.95 13.8 33.4 14.35 Q34.15 15.25 34.55 16.45 L34.8 17.6 Q35.1 19.65 34.55 22.4 L34.4 23.15 33.9 24.95 Q33.85 27.3 34.15 29.15 34.6 31.75 35.8 33.15 L36.4 32.75 Q42.4 28.8 50.85 26.45 49.8 25.2 49.1 23.75 48.1 21.7 47.65 19.35 L47.4 17.35 47.1 15.95 46.6 14.4 Q45.6 11.65 43.95 10.5 L43.9 10.4 42.65 9.5 Q41.45 8.4 41.25 7.5 L41.2 7.25 Q41.0 5.2 40.35 3.85 L39.9 3.15 39.45 2.6 39.35 2.5 39.55 2.3 40.0 1.8 Q40.7 0.9 39.05 0.6 38.05 0.5 37.1 1.1 L36.15 1.75 35.3 1.9 34.2 2.55 33.35 2.95 33.05 3.1 32.3 3.45 31.95 3.55 30.95 3.95 30.0 4.25 29.6 4.4 Q27.95 4.75 27.4 5.2 L27.4 5.25 Q27.1 5.4 27.1 5.65 L27.65 5.6" fill="none" stroke="#00456b" stroke-linecap="round" stroke-linejoin="round" stroke-width="2.0"/>
  </g>
</svg>
