<?xml version="1.0" encoding="UTF-8" standalone="no"?>
<svg xmlns:ffdec="https://www.free-decompiler.com/flash" xmlns:xlink="http://www.w3.org/1999/xlink" ffdec:objectType="shape" height="36.1px" width="55.95px" xmlns="http://www.w3.org/2000/svg">
  <g transform="matrix(1.0, 0.0, 0.0, 1.0, 5.1, 2.95)">
    <path d="M24.9 11.65 L24.95 11.9 24.8 12.15 24.2 12.15 24.1 11.85 24.3 11.55 24.9 11.65" fill="#00dd4d" fill-rule="evenodd" stroke="none"/>
    <path d="M39.3 12.3 L41.45 9.9 Q43.25 7.75 43.3 4.85 L43.1 0.0 41.5 -1.85 Q41.05 -2.1 40.3 0.3 39.5 2.65 36.6 4.65 M32.8 6.45 L29.55 6.95 28.2 7.2 27.3 7.35 25.1 7.65 20.5 7.9 14.75 7.35 Q11.65 6.85 7.6 5.1 L1.5 2.2 Q-0.6 1.05 -1.15 -0.4 -1.7 -1.85 -2.25 -1.95 -2.8 -2.1 -3.5 -1.1 -4.2 -0.1 -4.1 0.35 L-3.95 1.2 -3.9 1.7 -3.75 2.6 -3.5 3.75 -3.15 5.55 -2.8 7.2 -2.3 8.75 Q-1.85 9.85 -0.5 10.8 L1.75 12.1 3.85 13.1 Q5.05 13.65 5.8 13.8 L7.9 14.5 11.5 15.65 17.25 16.6 19.9 16.75 27.7 16.4 30.85 15.8 32.3 15.4 33.75 14.85 34.6 14.55" fill="none" stroke="#00456b" stroke-linecap="round" stroke-linejoin="round" stroke-width="2.0"/>
    <path d="M36.6 4.65 Q39.5 2.6 40.25 -0.25 40.95 -3.1 42.0 -1.7 L43.1 0.0 Q43.45 2.5 42.0 4.45 39.85 6.95 37.7 7.8 L36.6 4.65 M27.7 16.7 L19.9 17.05 17.25 16.85 17.0 16.4 17.0 16.2 21.7 16.5 28.15 15.95 27.7 16.7 M5.7 14.0 L4.45 13.5 1.8 12.45 -0.55 11.0 Q-1.95 10.05 -2.45 9.0 L-3.0 7.6 -3.2 6.7 -2.55 7.85 Q-1.5 9.8 0.2 10.75 L2.35 11.95 2.9 12.15 5.8 13.0 5.55 13.5 5.7 14.0 M-4.1 0.35 L-3.9 -0.7 -2.75 -2.0 Q-1.85 -2.75 -1.2 -0.85 -0.6 1.05 1.0 1.9 3.6 3.3 6.7 4.7 L6.45 5.1 6.45 5.2 5.3 6.1 5.0 7.1 1.25 5.45 Q-0.3 4.7 -1.45 3.6 L-4.0 0.65 -4.1 0.35 M16.8 7.55 L19.85 7.9 27.1 7.4 27.7 7.8 Q28.25 8.5 28.25 9.4 L28.2 10.2 18.75 10.85 15.95 10.75 15.85 10.05 15.95 8.9 Q16.1 8.3 16.8 7.55" fill="#005585" fill-rule="evenodd" stroke="none"/>
    <path d="M-3.2 6.7 L-3.55 5.2 -4.05 2.55 -3.95 1.5 -3.95 1.2 -3.4 3.35 -3.0 4.7 -2.75 6.45 -2.55 7.85 -3.2 6.7 M37.7 7.8 Q39.85 6.95 42.0 4.45 41.9 6.0 41.55 6.35 L39.1 8.35 38.1 8.9 37.7 7.8 M28.2 10.2 L27.9 11.3 27.9 11.5 20.3 12.15 16.25 12.0 15.95 10.75 18.75 10.85 28.2 10.2" fill="#0072ad" fill-rule="evenodd" stroke="none"/>
    <path d="M43.1 0.0 Q43.65 2.15 43.6 5.0 43.55 7.9 39.95 11.8 L39.3 12.3 38.1 8.9 39.1 8.35 41.55 6.35 Q41.9 6.0 42.0 4.45 43.45 2.5 43.1 0.0 M16.25 12.0 L20.3 12.15 27.9 11.5 27.6 13.0 27.75 13.95 27.85 14.55 28.15 15.85 28.15 15.95 21.7 16.5 17.0 16.2 16.75 13.1 16.45 12.5 16.25 12.0" fill="#006ca5" fill-rule="evenodd" stroke="none"/>
    <path d="M33.2 6.0 L34.05 5.8 34.95 5.5 36.6 4.65 37.7 7.8 35.1 8.7 Q34.3 7.05 33.2 6.0 M27.95 7.2 Q28.8 7.3 29.1 7.75 L30.05 10.0 29.45 10.15 28.85 8.5 Q28.5 7.4 27.95 7.2 M5.0 7.1 L5.3 6.1 6.45 5.2 6.35 6.9 6.4 7.9 5.1 7.1 5.0 7.1" fill="#00a320" fill-rule="evenodd" stroke="none"/>
    <path d="M39.3 12.3 Q38.1 13.25 36.3 14.05 L35.75 10.9 35.1 8.7 37.7 7.8 38.1 8.9 39.3 12.3 M30.6 16.1 L27.7 16.7 28.15 15.95 Q29.35 15.65 29.25 15.25 L29.15 14.1 29.15 12.9 Q29.15 12.2 29.45 11.35 L29.45 10.15 30.05 10.0 30.4 11.7 30.6 12.95 30.85 14.2 31.05 15.05 30.6 16.1 M17.25 16.85 L11.5 15.9 7.9 14.75 5.7 14.0 5.55 13.5 5.8 13.0 7.0 13.4 7.25 13.5 10.15 14.7 Q14.2 16.25 15.75 16.2 L17.0 16.2 17.0 16.4 17.25 16.85 M7.0 4.85 L8.35 5.45 Q11.8 6.85 16.8 7.55 16.1 8.3 15.95 8.9 L15.85 10.05 15.95 10.75 11.9 9.95 8.65 8.85 8.4 8.75 6.4 7.9 6.35 6.9 6.45 5.2 7.0 4.85 M27.1 7.4 L27.9 7.2 27.95 7.2 Q28.5 7.4 28.85 8.5 L29.45 10.15 28.2 10.2 28.25 9.4 Q28.25 8.5 27.7 7.8 L27.1 7.4" fill="#00d248" fill-rule="evenodd" stroke="none"/>
    <path d="M27.95 7.2 L33.2 6.0 Q34.3 7.05 35.1 8.7 L30.05 10.0 29.1 7.75 Q28.8 7.3 27.95 7.2" fill="#00870d" fill-rule="evenodd" stroke="none"/>
    <path d="M36.3 14.05 L32.3 15.6 31.95 15.75 31.45 15.9 30.55 16.1 30.85 16.0 30.6 16.1 31.05 15.05 30.85 14.2 30.6 12.95 30.4 11.7 30.05 10.0 35.1 8.7 35.75 10.9 36.3 14.05" fill="#00a721" fill-rule="evenodd" stroke="none"/>
    <path d="M28.2 10.2 L29.45 10.15 29.45 11.35 27.9 11.5 27.9 11.3 28.2 10.2 M6.4 7.9 L8.4 8.75 8.65 8.85 11.9 9.95 15.95 10.75 16.25 12.0 12.1 11.45 8.5 10.45 6.85 9.85 6.4 7.9" fill="#00ff96" fill-rule="evenodd" stroke="none"/>
    <path d="M27.9 11.5 L29.45 11.35 Q29.15 12.2 29.15 12.9 L29.15 14.1 29.25 15.25 Q29.35 15.65 28.15 15.95 L28.15 15.85 27.85 14.55 27.75 13.95 27.6 13.0 27.9 11.5 M6.85 9.85 L8.5 10.45 12.1 11.45 16.25 12.0 16.45 12.5 16.75 13.1 17.0 16.2 15.75 16.2 Q14.2 16.25 10.15 14.7 L9.5 14.05 8.5 12.85 8.3 12.55 Q7.35 11.2 6.85 9.85" fill="#00ff76" fill-rule="evenodd" stroke="none"/>
    <path d="M6.7 4.7 L6.75 4.7 7.0 4.85 6.45 5.2 6.45 5.1 6.7 4.7" fill="#009900" fill-rule="evenodd" stroke="none"/>
    <path d="M6.85 9.85 Q7.35 11.2 8.3 12.55 L8.5 12.85 9.5 14.05 10.15 14.7 7.25 13.5 7.0 13.4 5.8 13.0 5.9 12.35 5.95 11.55 5.45 9.6 Q4.9 8.4 4.9 7.75 L5.0 7.1 5.1 7.1 6.4 7.9 6.85 9.85" fill="#00dd4d" fill-rule="evenodd" stroke="none"/>
    <path d="M-3.95 1.2 L-4.1 0.4 -4.1 0.35 -4.0 0.65 -1.45 3.6 Q-0.3 4.7 1.25 5.45 L5.0 7.1 4.9 7.75 Q4.9 8.4 5.45 9.6 L5.95 11.55 5.9 12.35 5.8 13.0 2.9 12.15 2.35 11.95 0.2 10.75 Q-1.5 9.8 -2.55 7.85 L-2.75 6.45 -3.0 4.7 -3.4 3.35 -3.95 1.2" fill="#006195" fill-rule="evenodd" stroke="none"/>
    <path d="M34.9 9.15 L35.0 9.1 37.55 8.1 40.4 7.55 41.25 7.5 Q41.45 8.4 42.65 9.5 L40.0 10.2 37.3 11.05 35.7 11.25 35.05 11.35 34.85 10.85 34.9 9.15 M46.6 14.4 L47.1 15.95 46.35 16.85 44.3 17.95 42.6 18.65 40.45 19.25 38.5 19.0 38.15 18.85 Q37.25 18.65 36.75 17.05 L41.4 15.8 44.5 15.1 46.6 14.4 M34.0 10.1 Q34.1 10.85 34.5 11.45 L34.3 11.5 33.3 11.6 33.05 11.1 Q32.85 10.85 33.3 10.25 33.7 9.6 34.0 10.1" fill="#0072ad" fill-rule="evenodd" stroke="none"/>
    <path d="M42.65 9.5 L43.9 10.4 43.95 10.5 Q45.6 11.65 46.6 14.4 L44.5 15.1 41.4 15.8 36.75 17.05 Q36.25 15.15 35.85 14.75 L34.9 13.75 33.95 12.55 33.3 11.6 34.3 11.5 34.5 11.45 35.3 12.3 35.85 12.7 35.05 11.35 35.7 11.25 37.3 11.05 40.0 10.2 42.65 9.5 M38.85 2.15 L39.3 2.5 39.45 2.6 36.9 4.0 36.65 3.7 37.95 2.95 38.85 2.15 M35.95 4.1 L36.0 4.2 36.2 4.4 35.85 4.55 34.05 5.5 33.75 5.05 35.5 4.35 35.95 4.1 M31.05 5.8 L32.7 5.45 32.95 5.4 33.25 5.8 Q32.0 6.2 31.5 6.85 L31.25 6.4 31.05 5.8" fill="#00ff96" fill-rule="evenodd" stroke="none"/>
    <path d="M40.35 3.85 Q41.0 5.2 41.2 7.25 L41.25 7.5 40.4 7.55 37.55 8.1 35.0 9.1 34.9 9.15 34.9 8.85 34.9 8.0 34.45 6.2 36.0 5.6 36.7 5.4 37.0 6.35 37.8 7.5 37.7 7.2 37.35 5.1 38.7 4.45 40.35 3.85 M47.1 15.95 L47.4 17.3 47.4 17.35 47.65 19.35 Q46.95 19.95 45.45 20.3 42.65 20.7 41.6 21.1 L39.15 21.9 Q36.4 22.8 36.4 22.9 L36.5 21.6 36.6 20.45 36.7 19.35 36.75 17.05 Q37.25 18.65 38.15 18.85 L38.5 19.0 40.45 19.25 42.6 18.65 44.3 17.95 46.35 16.85 47.1 15.95 M49.1 23.75 Q49.8 25.2 50.85 26.45 42.4 28.8 37.3 32.2 37.3 31.5 36.8 30.5 36.3 29.5 36.05 28.1 35.55 28.4 35.15 28.6 L36.0 28.1 Q36.65 27.7 37.0 27.6 L40.6 26.35 41.2 26.1 45.4 25.0 47.8 24.55 49.1 23.75 M31.5 6.85 L33.1 6.6 33.5 6.5 Q33.85 7.7 34.0 10.1 33.7 9.6 33.3 10.25 32.85 10.85 33.05 11.1 31.85 9.6 31.9 9.0 L31.75 7.85 31.5 6.85" fill="#006295" fill-rule="evenodd" stroke="none"/>
    <path d="M40.35 3.85 L38.7 4.45 37.35 5.1 37.25 4.75 37.0 4.1 36.9 4.0 39.45 2.6 40.35 3.85 M36.7 5.4 L36.0 5.6 34.45 6.2 34.4 6.05 34.1 5.55 34.05 5.5 35.85 4.55 36.2 4.4 36.35 4.65 36.7 5.4 M47.65 19.35 Q48.1 21.7 49.1 23.75 L47.8 24.55 45.4 25.0 41.2 26.1 40.6 26.35 37.0 27.6 Q36.65 27.7 36.0 28.1 L35.75 25.3 Q35.75 24.15 36.45 22.9 L36.4 22.9 Q36.4 22.8 39.15 21.9 L41.6 21.1 Q42.65 20.7 45.45 20.3 46.95 19.95 47.65 19.35 M33.25 5.8 L33.4 6.15 33.5 6.5 33.1 6.6 31.5 6.85 Q32.0 6.2 33.25 5.8" fill="#00f06f" fill-rule="evenodd" stroke="none"/>
    <path d="M34.15 29.15 Q33.85 27.3 33.9 24.95 L34.4 23.15 34.9 23.15 36.4 22.9 36.45 22.9 Q35.75 24.15 35.75 25.3 L36.0 28.1 35.15 28.6 34.15 29.15 M34.8 17.6 L34.55 16.45 Q34.15 15.25 33.4 14.35 L32.95 13.8 31.85 12.2 Q32.2 12.05 33.3 11.6 L33.95 12.55 34.9 13.75 35.85 14.75 Q36.25 15.15 36.75 17.05 L35.1 17.6 34.8 17.6 M30.4 7.25 L29.95 6.3 31.05 5.8 Q29.55 4.45 28.55 4.8 L27.4 5.25 27.4 5.2 Q27.95 4.75 29.6 4.4 L30.95 3.95 Q31.65 4.1 32.1 4.45 L32.95 5.4 33.75 5.05 33.65 4.9 33.4 4.65 31.95 3.55 32.3 3.45 33.35 2.95 Q35.1 3.2 35.95 4.1 L36.65 3.7 36.9 4.0 37.0 4.1 37.25 4.75 37.35 5.1 36.7 5.4 36.35 4.65 36.2 4.4 36.0 4.2 35.95 4.1 35.5 4.35 33.75 5.05 34.05 5.5 34.1 5.55 34.4 6.05 34.45 6.2 34.1 6.35 33.5 6.5 33.4 6.15 33.25 5.8 32.95 5.4 32.7 5.45 31.05 5.8 31.25 6.4 31.5 6.85 30.4 7.25 M34.2 2.55 L35.3 1.9 Q37.45 1.35 38.85 2.15 L37.95 2.95 36.65 3.7 Q35.85 2.9 34.2 2.55 M34.5 11.45 L35.05 11.35 35.85 12.7 35.3 12.3 34.5 11.45" fill="#00d248" fill-rule="evenodd" stroke="none"/>
    <path d="M29.95 6.3 L29.85 6.25 28.9 5.7 27.1 5.65 Q27.1 5.4 27.4 5.25 L28.55 4.8 Q29.55 4.45 31.05 5.8 L29.95 6.3 M30.95 3.95 L31.95 3.55 33.4 4.65 33.65 4.9 33.75 5.05 32.95 5.4 32.1 4.45 Q31.65 4.1 30.95 3.95 M33.35 2.95 L34.2 2.55 Q35.85 2.9 36.65 3.7 L35.95 4.1 Q35.1 3.2 33.35 2.95" fill="#00870d" fill-rule="evenodd" stroke="none"/>
    <path d="M37.35 5.1 L37.7 7.2 37.8 7.5 37.0 6.35 36.7 5.4 37.35 5.1 M34.45 6.2 L34.9 8.0 34.9 8.85 34.9 9.15 34.85 10.85 35.05 11.35 34.5 11.45 Q34.1 10.85 34.0 10.1 33.85 7.7 33.5 6.5 L34.1 6.35 34.45 6.2 M37.3 32.2 L35.8 33.15 Q34.6 31.75 34.15 29.15 L35.15 28.6 Q35.55 28.4 36.05 28.1 36.3 29.5 36.8 30.5 37.3 31.5 37.3 32.2 M34.4 23.15 L34.55 22.4 Q35.1 19.65 34.8 17.6 L35.1 17.6 36.75 17.05 36.7 19.35 36.6 20.45 36.5 21.6 36.4 22.9 34.9 23.15 34.4 23.15 M31.85 12.2 L31.65 11.85 Q30.6 9.9 30.55 8.15 L30.45 7.55 30.4 7.25 31.5 6.85 31.75 7.85 31.9 9.0 Q31.85 9.6 33.05 11.1 L33.3 11.6 Q32.2 12.05 31.85 12.2" fill="#005585" fill-rule="evenodd" stroke="none"/>
  </g>
</svg>
