<?xml version="1.0" encoding="UTF-8" standalone="no"?>
<svg xmlns:ffdec="https://www.free-decompiler.com/flash" xmlns:xlink="http://www.w3.org/1999/xlink" ffdec:objectType="shape" height="39.8px" width="36.65px" xmlns="http://www.w3.org/2000/svg">
  <g transform="matrix(1.0, 0.0, 0.0, 1.0, 0.0, 0.0)">
    <path d="M8.05 11.35 Q5.45 8.05 3.5 2.7 L3.3 0.0 3.7 1.05 3.75 2.05 Q5.75 7.55 8.45 10.85 L8.05 11.35 M36.65 38.5 Q36.45 39.95 34.1 39.8 32.8 37.6 31.3 35.75 L30.45 34.8 Q27.7 31.8 24.25 29.95 L21.35 31.0 14.9 31.15 Q11.35 28.45 8.9 25.5 L5.5 25.1 1.35 23.3 1.05 22.3 1.55 22.5 1.6 22.65 5.75 24.45 9.15 24.85 Q11.6 27.8 15.25 30.2 L21.5 30.15 24.5 29.3 Q27.75 31.0 30.45 33.55 L32.6 35.75 34.55 38.25 Q36.1 39.25 36.65 38.5 M7.0 23.0 L6.75 22.6 4.85 19.05 5.35 17.1 Q4.65 14.2 2.0 13.8 L0.0 12.6 0.9 12.35 2.25 13.15 Q4.9 13.55 5.6 16.45 L5.1 18.4 Q5.95 20.4 7.25 22.35 L7.0 23.0" fill="#643912" fill-rule="evenodd" stroke="none"/>
    <path d="M8.05 11.35 L8.45 10.85 Q5.75 7.55 3.75 2.05 L3.7 1.05 Q6.05 7.1 9.1 10.65 L9.65 11.55 Q8.7 12.35 8.15 13.95 7.3 15.85 7.25 19.05 9.25 23.9 15.05 27.65 L20.45 27.9 24.85 26.8 Q27.85 28.25 30.45 30.35 33.3 32.65 35.7 35.75 L36.3 36.55 Q36.75 37.7 36.65 38.5 36.1 39.25 34.55 38.25 L32.6 35.75 30.45 33.55 Q27.75 31.0 24.5 29.3 L21.5 30.15 15.25 30.2 Q11.6 27.8 9.15 24.85 L5.75 24.45 1.6 22.65 1.55 22.5 Q5.75 23.8 7.0 23.0 L7.25 22.35 Q5.95 20.4 5.1 18.4 L5.6 16.45 Q4.9 13.55 2.25 13.15 L0.9 12.35 1.5 12.2 Q5.05 12.65 6.25 14.65 7.1 12.75 8.2 11.5 L8.05 11.35" fill="#7b4c22" fill-rule="evenodd" stroke="none"/>
    <path d="M9.65 11.55 L9.85 11.85 Q8.8 12.55 8.15 13.95 8.7 12.35 9.65 11.55" fill="#6d421b" fill-rule="evenodd" stroke="none"/>
    <path d="M8.6 11.95 L8.85 12.05 Q7.5 13.35 6.95 15.25 L5.95 18.6 5.85 18.7 5.6 18.05 Q5.6 17.2 6.55 15.1 7.6 12.75 8.6 11.95 M6.75 19.65 L10.45 24.85 11.15 25.6 10.8 26.05 9.2 23.75 8.9 23.9 8.35 24.05 6.15 23.95 6.1 23.7 8.1 23.4 8.9 23.3 6.6 19.7 6.75 19.65 M17.15 28.75 L19.6 28.8 19.7 29.35 15.75 28.95 15.9 28.6 17.15 28.75 M13.05 27.15 L14.45 28.05 15.0 28.35 14.8 28.75 Q12.95 28.2 11.85 27.25 L11.6 27.0 12.0 26.3 13.05 27.15 M30.55 32.6 L30.35 32.35 30.6 31.45 31.15 32.05 32.45 33.55 32.0 34.3 30.55 32.6 M34.75 37.0 L34.8 37.05 34.6 37.1 33.05 35.5 32.75 35.15 33.05 34.55 33.15 34.4 Q34.35 35.95 34.75 37.0 M25.2 28.2 L24.1 28.1 24.05 27.85 Q25.5 27.75 27.1 28.6 L26.75 29.5 25.2 28.2 M27.95 30.4 L27.65 30.2 28.0 29.2 Q28.85 29.75 29.7 30.6 L29.4 31.55 27.95 30.4 M20.8 28.75 L21.6 28.55 22.25 28.35 22.45 28.3 22.75 28.45 22.25 28.85 21.9 29.05 20.7 29.35 20.6 28.75 20.8 28.75" fill="#9a6e3a" fill-rule="evenodd" stroke="none"/>
  </g>
</svg>
