<?xml version="1.0" encoding="UTF-8" standalone="no"?>
<svg xmlns:ffdec="https://www.free-decompiler.com/flash" xmlns:xlink="http://www.w3.org/1999/xlink" ffdec:objectType="shape" height="45.3px" width="18.4px" xmlns="http://www.w3.org/2000/svg">
  <g transform="matrix(1.0, 0.0, 0.0, 1.0, 0.1, -0.25)">
    <path d="M17.25 4.55 Q17.7 6.35 17.55 9.15 L17.05 15.15 Q16.65 18.3 17.15 21.85 17.6 25.35 18.15 28.05 18.65 30.75 17.7 31.65 L13.1 31.45 Q9.4 30.3 8.65 27.45 7.85 24.55 7.85 20.7 6.6 12.8 6.6 11.65 6.6 7.6 8.25 4.65 9.75 2.05 11.95 1.25 14.05 0.45 15.4 1.6 16.75 2.7 17.25 4.55" fill="#2d6f74" fill-opacity="0.2" fill-rule="evenodd" stroke="none"/>
    <path d="M4.55 44.6 Q2.75 43.15 2.25 40.15 L1.7 37.8 0.8 33.35 Q0.2 29.85 0.0 26.75 -0.25 22.45 0.25 18.75 L0.25 18.5 Q0.85 14.3 2.75 10.6 4.8 6.5 8.5 3.05 11.75 -0.45 14.45 0.4 16.6 1.15 16.6 3.25 L16.5 4.35 16.1 6.15 Q15.75 7.5 14.95 8.15 15.25 10.0 14.9 11.2 L13.95 12.8 Q14.45 15.55 13.95 17.15 13.45 18.75 12.9 18.8 13.5 21.85 13.3 23.4 13.1 24.95 12.05 26.45 12.5 28.45 12.05 30.1 11.6 31.7 10.75 32.15 11.15 35.1 10.7 35.9 L9.25 37.6 Q10.1 39.9 8.65 42.25 7.4 44.25 4.55 44.6 M4.4 42.25 Q3.7 38.85 4.4 36.65 2.85 33.75 4.4 31.0 L2.45 32.25 Q1.5 33.9 3.2 37.15 2.5 39.2 4.4 42.25 M1.9 29.85 L2.55 32.1 4.4 30.8 Q2.4 27.5 4.45 23.7 3.0 19.2 6.4 16.45 5.35 12.4 8.75 9.2 8.65 5.9 11.45 5.1 11.0 2.15 14.05 1.2 12.25 1.45 11.05 2.1 9.85 2.75 9.2 4.95 L9.2 5.05 Q5.45 7.1 4.7 10.2 3.6 11.05 2.8 12.7 2.0 14.35 2.5 17.7 L2.5 17.75 Q1.35 19.35 1.1 21.3 0.85 23.2 1.85 25.75 1.4 28.35 1.9 29.85" fill="#ff6600" fill-rule="evenodd" stroke="none"/>
    <path d="M1.9 29.85 Q1.4 28.35 1.85 25.75 0.85 23.2 1.1 21.3 1.35 19.35 2.5 17.75 L2.5 17.7 Q2.0 14.35 2.8 12.7 3.6 11.05 4.7 10.2 5.45 7.1 9.2 5.05 L9.2 4.95 Q9.85 2.75 11.05 2.1 12.25 1.45 14.05 1.2 11.0 2.15 11.45 5.1 8.65 5.9 8.75 9.2 5.35 12.4 6.4 16.45 3.0 19.2 4.45 23.7 2.4 27.5 4.4 30.8 L2.55 32.1 1.9 29.85 M4.4 42.25 Q2.5 39.2 3.2 37.15 1.5 33.9 2.45 32.25 L4.4 31.0 Q2.85 33.75 4.4 36.65 3.7 38.85 4.4 42.25" fill="#de4900" fill-rule="evenodd" stroke="none"/>
    <path d="M4.55 44.6 Q7.4 44.25 8.65 42.25 10.1 39.9 9.25 37.6 L10.7 35.9 Q11.15 35.1 10.75 32.15 11.6 31.7 12.05 30.1 12.5 28.45 12.05 26.45 13.1 24.95 13.3 23.4 13.5 21.85 12.9 18.8 13.45 18.75 13.95 17.15 14.45 15.55 13.95 12.8 L14.9 11.2 Q15.25 10.0 14.95 8.15 15.75 7.5 16.1 6.15 L16.5 4.35 15.15 17.3 14.7 21.45 13.8 27.7 12.55 33.9 11.7 37.2 11.35 38.3 Q9.05 45.8 6.2 45.55 L4.55 44.6" fill="#ff8d1e" fill-rule="evenodd" stroke="none"/>
  </g>
</svg>
