<?xml version="1.0" encoding="UTF-8" standalone="no"?>
<svg xmlns:ffdec="https://www.free-decompiler.com/flash" xmlns:xlink="http://www.w3.org/1999/xlink" ffdec:objectType="shape" height="207.05px" width="221.55px" xmlns="http://www.w3.org/2000/svg">
  <g transform="matrix(1.0, 0.0, 0.0, 1.0, 167.1, 55.75)">
    <path d="M51.95 35.15 L52.75 36.1 Q48.45 53.9 34.8 66.1 L23.8 75.75 19.85 79.2 15.3 82.85 13.35 84.4 Q-41.55 123.75 -107.7 143.0 -147.45 155.15 -158.6 145.6 L-159.65 144.7 -159.4 144.5 -159.4 144.55 -158.25 144.95 -157.6 145.15 Q-141.5 150.05 -99.75 124.75 L-99.95 124.3 -98.7 123.55 Q-65.65 103.55 -16.45 64.45 L-14.9 63.2 Q-14.1 63.0 -13.5 62.45 L0.15 51.45 2.65 49.35 2.85 49.2 Q19.9 35.95 32.7 32.65 44.6 30.05 51.95 35.15" fill="url(#gradient0)" fill-rule="evenodd" stroke="none"/>
    <path d="M32.7 32.65 Q43.75 29.75 51.7 34.35 L51.9 34.6 52.45 35.3 52.5 35.35 Q52.9 35.9 51.95 35.15 44.6 30.05 32.7 32.65" fill="url(#gradient1)" fill-rule="evenodd" stroke="none"/>
    <path d="M-160.6 143.55 Q-164.45 139.65 -158.0 132.5 -142.65 117.75 -108.5 106.7 L-108.5 106.75 -99.95 124.3 -99.75 124.75 Q-141.5 150.05 -157.6 145.15 L-158.25 144.95 -159.4 144.55 -159.4 144.5 -160.6 143.55" fill="url(#gradient2)" fill-rule="evenodd" stroke="none"/>
    <path d="M32.7 32.65 Q43.75 29.75 51.7 34.35 L51.9 34.6 52.45 35.3 M52.5 35.35 Q52.9 35.9 51.95 35.15 L52.75 36.1 Q48.45 53.9 34.8 66.1 L23.8 75.75 19.85 79.2 15.3 82.85 13.35 84.4 M-107.7 143.0 Q-147.45 155.15 -158.6 145.6 L-159.65 144.7 -160.6 143.55 Q-164.45 139.65 -158.0 132.5 -142.65 117.75 -108.5 106.7 M-14.9 63.2 Q-14.1 63.0 -13.5 62.45 L0.15 51.45 2.65 49.35 2.85 49.2 Q19.9 35.95 32.7 32.65 M-159.4 144.5 L-159.4 144.55 M-160.6 143.55 L-159.4 144.5" fill="none" stroke="#1d242e" stroke-linecap="round" stroke-linejoin="round" stroke-width="2.0"/>
    <path d="M13.35 84.4 Q-41.55 123.75 -107.7 143.0" fill="none" stroke="#323232" stroke-linecap="round" stroke-linejoin="round" stroke-width="2.0"/>
    <path d="M-165.0 1.5 Q-168.0 -5.35 -155.9 -17.6 -143.45 -29.95 -122.9 -40.45 -102.35 -50.95 -85.5 -53.6 -68.85 -56.05 -65.5 -49.5 L-18.1 51.75 Q-22.75 52.35 -30.65 55.05 -46.95 60.65 -68.25 71.95 -89.4 83.25 -102.95 93.6 -110.5 99.3 -113.2 102.95 L-164.25 2.9 -164.6 2.35 -164.65 2.25 -164.85 1.7 -165.0 1.5" fill="url(#gradient3)" fill-rule="evenodd" stroke="none"/>
    <path d="M-18.1 51.75 L-14.75 51.6 -10.2 59.65 -13.3 62.1 Q-67.8 105.4 -104.45 127.55 L-114.15 107.7 -114.2 107.65 -114.65 106.6 Q-114.8 105.2 -113.2 102.95 -110.5 99.3 -102.95 93.6 -89.4 83.25 -68.25 71.95 -46.95 60.65 -30.65 55.05 -22.75 52.35 -18.1 51.75" fill="url(#gradient4)" fill-rule="evenodd" stroke="none"/>
    <path d="M-165.0 1.5 Q-168.0 -5.35 -155.9 -17.6 -143.45 -29.95 -122.9 -40.45 -102.35 -50.95 -85.5 -53.6 -68.85 -56.05 -65.5 -49.5 L-18.1 51.75 -14.75 51.6 -10.2 59.65 -13.3 62.1 Q-67.8 105.4 -104.45 127.55 L-114.15 107.7 -114.2 107.65 -114.4 107.35 -114.65 106.6 Q-114.8 105.2 -113.2 102.95 L-164.25 2.9 -164.6 2.35 -164.65 2.25 -164.95 1.7 -165.0 1.5 -164.85 1.7 M-18.1 51.75 Q-22.75 52.35 -30.65 55.05 -46.95 60.65 -68.25 71.95 -89.4 83.25 -102.95 93.6 -110.5 99.3 -113.2 102.95 M-114.65 106.6 L-114.2 107.65" fill="none" stroke="#1d242e" stroke-linecap="round" stroke-linejoin="round" stroke-width="2.0"/>
    <path d="M-122.25 -39.8 Q-101.7 -50.35 -84.85 -52.95 -68.2 -55.5 -64.8 -48.9 L-17.45 52.35 Q-22.05 52.9 -29.95 55.6 -46.25 61.25 -67.55 72.55 -88.7 83.85 -102.25 94.2 -109.8 99.95 -112.5 103.55 L-164.2 2.3 -164.35 2.1 Q-167.3 -4.75 -155.15 -16.95 -142.8 -29.3 -122.25 -39.8" fill="url(#gradient5)" fill-rule="evenodd" stroke="none"/>
    <path d="M53.45 36.55 Q46.1 31.45 34.2 34.0 21.65 36.7 5.4 49.4 L5.2 49.55 4.15 50.3 4.0 50.55 1.35 52.75 -12.1 63.55 -13.35 64.55 -14.9 65.8 Q-64.15 104.9 -97.2 124.9 L-98.45 125.65 Q-141.5 151.6 -156.85 144.75 -161.55 141.3 -155.85 134.8 L-155.6 134.65 -154.5 133.65 Q-139.3 120.0 -111.85 110.25" fill="none" stroke="#6869a8" stroke-linecap="round" stroke-linejoin="round" stroke-width="2.0"/>
    <path d="M-103.35 125.05 L-111.25 108.5 Q-113.1 105.15 -110.55 103.4 -80.25 74.2 -14.1 52.85" fill="none" stroke="#ffffff" stroke-linecap="round" stroke-linejoin="round" stroke-opacity="0.8" stroke-width="2.0"/>
    <path d="M-165.0 1.5 Q-168.0 -5.35 -155.9 -17.6 -143.45 -29.95 -122.9 -40.45 -102.35 -50.95 -85.5 -53.6 -68.85 -56.05 -65.5 -49.5 L-18.1 51.75 -14.75 51.6 -10.15 59.6 -10.1 59.7 0.2 51.5 Q8.55 45.15 18.05 39.05 33.7 29.1 42.45 30.55 51.25 31.95 52.75 36.1 54.1 46.3 41.3 59.35 29.35 71.4 23.95 75.95 L23.15 76.65 16.1 82.2 13.35 84.4 Q-41.55 123.75 -107.7 143.0 -147.45 155.15 -158.6 145.6 L-160.6 143.55 Q-164.45 139.65 -158.0 132.5 -143.85 118.9 -113.75 108.5 L-114.15 107.7 -114.2 107.65 -114.4 107.35 -114.65 106.6 Q-114.8 105.2 -113.2 102.95 L-164.6 2.35 -164.65 2.25 -164.95 1.7 -165.0 1.5 -164.85 1.7 -164.6 2.35 M-10.15 59.6 L-10.15 59.75 -10.1 59.7 M-114.65 106.6 L-114.2 107.65" fill="none" stroke="#1d242e" stroke-linecap="round" stroke-linejoin="round" stroke-width="3.0"/>
  </g>
  <defs>
    <radialGradient cx="0" cy="0" gradientTransform="matrix(0.0344, 0.0589, -0.2058, 0.1201, 20.05, 1.45)" gradientUnits="userSpaceOnUse" id="gradient0" r="819.2" spreadMethod="pad">
      <stop offset="0.24313725490196078" stop-color="#2a2f4c"/>
      <stop offset="0.5019607843137255" stop-color="#1a1d32"/>
    </radialGradient>
    <radialGradient cx="0" cy="0" gradientTransform="matrix(0.0344, 0.0589, -0.2058, 0.1201, -33.0, 120.8)" gradientUnits="userSpaceOnUse" id="gradient1" r="819.2" spreadMethod="pad">
      <stop offset="0.24313725490196078" stop-color="#2a2f4c"/>
      <stop offset="0.5019607843137255" stop-color="#1a1d32"/>
    </radialGradient>
    <radialGradient cx="0" cy="0" gradientTransform="matrix(0.0178, 0.0448, -0.1048, 0.0417, -97.65, 128.9)" gradientUnits="userSpaceOnUse" id="gradient2" r="819.2" spreadMethod="pad">
      <stop offset="0.0" stop-color="#0d0f1e"/>
      <stop offset="0.5333333333333333" stop-color="#2a2f4c"/>
    </radialGradient>
    <linearGradient gradientTransform="matrix(0.0889, -0.0507, 0.4948, 0.8686, -110.15, -27.05)" gradientUnits="userSpaceOnUse" id="gradient3" spreadMethod="pad" x1="-819.2" x2="819.2">
      <stop offset="0.0" stop-color="#151424"/>
      <stop offset="0.396078431372549" stop-color="#4d4d88"/>
      <stop offset="1.0" stop-color="#151424"/>
    </linearGradient>
    <linearGradient gradientTransform="matrix(0.0568, -0.034, 0.513, 0.858, -128.85, -14.15)" gradientUnits="userSpaceOnUse" id="gradient4" spreadMethod="pad" x1="-819.2" x2="819.2">
      <stop offset="0.050980392156862744" stop-color="#84651e"/>
      <stop offset="0.49019607843137253" stop-color="#f7e5a3"/>
      <stop offset="0.8509803921568627" stop-color="#9f7a24"/>
    </linearGradient>
    <radialGradient cx="0" cy="0" gradientTransform="matrix(0.0629, -0.0351, 0.0682, 0.1222, -128.35, -8.45)" gradientUnits="userSpaceOnUse" id="gradient5" r="819.2" spreadMethod="pad">
      <stop offset="0.44313725490196076" stop-color="#c8c5ed" stop-opacity="0.3019608"/>
      <stop offset="0.6941176470588235" stop-color="#c8c5ed" stop-opacity="0.0"/>
    </radialGradient>
  </defs>
</svg>
