<?xml version="1.0" encoding="UTF-8" standalone="no"?>
<svg xmlns:ffdec="https://www.free-decompiler.com/flash" xmlns:xlink="http://www.w3.org/1999/xlink" ffdec:objectType="shape" height="86.5px" width="93.5px" xmlns="http://www.w3.org/2000/svg">
  <g transform="matrix(1.0, 0.0, 0.0, 1.0, 47.55, -23.3)">
    <path d="M34.4 43.9 L37.35 47.1 Q45.45 56.9 45.45 69.65 L45.45 69.9 Q45.35 86.15 31.9 97.7 L27.65 100.95 Q24.6 103.05 21.35 104.55 17.55 106.35 13.45 107.5 L11.45 107.95 Q5.65 109.3 -0.8 109.3 -8.0 109.3 -14.45 107.65 L-17.05 106.9 -22.9 104.55 Q-26.2 103.05 -29.25 100.95 L-33.5 97.7 Q-47.05 86.05 -47.05 69.65 -47.05 55.65 -36.55 44.8" fill="none" stroke="url(#gradient0)" stroke-linecap="round" stroke-linejoin="round" stroke-width="1.0"/>
    <path d="M-36.55 44.8 Q-37.55 42.85 -37.55 40.7 -37.55 37.1 -34.75 34.05 -32.15 31.1 -26.95 28.7 L-25.35 28.0 -22.75 27.05 -22.65 27.0 -22.55 26.95 -19.6 26.05 -17.15 25.45 -14.0 24.8 -1.3 23.8 Q13.7 23.8 24.3 28.7 34.95 33.65 34.95 40.7 L34.5 43.6 34.4 43.9 Q33.55 45.95 31.8 47.7 L31.7 47.85 31.6 47.95 M-30.9 50.5 Q-32.35 49.6 -33.45 48.6 L-35.7 46.2 -36.55 44.8" fill="none" stroke="url(#gradient1)" stroke-linecap="round" stroke-linejoin="round" stroke-width="1.0"/>
    <path d="M31.6 47.95 L28.9 50.1 27.1 51.2 24.3 52.65 Q20.25 54.55 15.55 55.75 7.95 57.6 -1.3 57.6 -16.3 57.6 -26.95 52.65 L-30.9 50.5" fill="none" stroke="url(#gradient2)" stroke-linecap="round" stroke-linejoin="round" stroke-width="1.0"/>
    <path d="M24.0 32.95 Q28.7 35.8 29.1 39.35 L29.15 40.05 Q29.15 41.7 28.3 43.2 L27.6 44.2 Q26.7 45.35 25.2 46.4 L23.5 47.5 20.2 49.1 Q16.65 50.6 12.55 51.5 6.3 52.85 -1.3 52.85 -13.9 52.85 -22.85 49.1 -29.95 46.15 -31.35 42.15 L-31.75 40.3 -31.75 40.05 Q-31.75 38.1 -30.55 36.4 L-29.1 34.8" fill="none" stroke="#b1e3eb" stroke-linecap="round" stroke-linejoin="round" stroke-opacity="0.70980394" stroke-width="1.0"/>
    <path d="M-29.1 34.8 Q-26.9 32.75 -22.85 31.0 L-21.55 30.5 -19.25 29.75 -16.85 29.05 -15.0 28.65 -11.7 28.05 -1.3 27.3 Q11.3 27.3 20.2 31.0 22.35 31.9 24.0 32.95" fill="none" stroke="url(#gradient3)" stroke-linecap="round" stroke-linejoin="round" stroke-width="1.0"/>
  </g>
  <defs>
    <radialGradient cx="0" cy="0" gradientTransform="matrix(0.0314, 0.0, 0.0, 0.0291, -49.0, 68.55)" gradientUnits="userSpaceOnUse" id="gradient0" r="819.2" spreadMethod="pad">
      <stop offset="0.0" stop-color="#ffffff"/>
      <stop offset="0.396078431372549" stop-color="#ffffff" stop-opacity="0.7607843"/>
      <stop offset="0.6980392156862745" stop-color="#bdf6ff" stop-opacity="0.87058824"/>
    </radialGradient>
    <radialGradient cx="0" cy="0" gradientTransform="matrix(0.0266, 0.0, 0.0, 0.0246, -37.5, 39.6)" gradientUnits="userSpaceOnUse" id="gradient1" r="819.2" spreadMethod="pad">
      <stop offset="0.0" stop-color="#ffffff"/>
      <stop offset="0.396078431372549" stop-color="#ffffff" stop-opacity="0.7607843"/>
      <stop offset="0.6980392156862745" stop-color="#bdf6ff" stop-opacity="0.87058824"/>
    </radialGradient>
    <radialGradient cx="0" cy="0" gradientTransform="matrix(0.0378, 0.0, 0.0, 0.038, -3.4, 57.2)" gradientUnits="userSpaceOnUse" id="gradient2" r="819.2" spreadMethod="pad">
      <stop offset="0.25882352941176473" stop-color="#3c7d87"/>
      <stop offset="1.0" stop-color="#b1e3eb"/>
    </radialGradient>
    <radialGradient cx="0" cy="0" gradientTransform="matrix(0.0299, 0.0, 0.0, 0.0162, 0.8, 27.3)" gradientUnits="userSpaceOnUse" id="gradient3" r="819.2" spreadMethod="pad">
      <stop offset="0.25882352941176473" stop-color="#3c7d87"/>
      <stop offset="1.0" stop-color="#b1e3eb"/>
    </radialGradient>
  </defs>
</svg>
