<?xml version="1.0" encoding="UTF-8" standalone="no"?>
<svg xmlns:ffdec="https://www.free-decompiler.com/flash" xmlns:xlink="http://www.w3.org/1999/xlink" ffdec:objectType="shape" height="63.8px" width="65.5px" xmlns="http://www.w3.org/2000/svg">
  <g transform="matrix(1.0, 0.0, 0.0, 1.0, 32.6, 31.95)">
    <path d="M32.85 -2.3 Q33.45 9.35 25.85 19.0 17.4 29.6 3.95 31.5 -9.5 33.4 -20.2 25.45 -30.85 17.5 -32.35 4.55 -33.25 -2.4 -31.2 -8.7 -29.5 -14.2 -25.55 -19.1 -17.2 -29.7 -3.75 -31.55 9.7 -33.5 20.35 -25.55 31.1 -17.7 32.65 -4.55 L32.85 -2.3" fill="url(#gradient0)" fill-rule="evenodd" stroke="none"/>
    <path d="M10.2 -10.15 Q14.4 -5.95 14.4 0.0 14.4 6.0 10.2 10.2 5.95 14.4 0.0 14.45 -6.0 14.4 -10.2 10.2 -14.4 6.0 -14.4 0.0 -14.4 -5.95 -10.2 -10.15 -6.0 -14.4 0.0 -14.4 5.95 -14.4 10.2 -10.15" fill="#0e5caa" fill-rule="evenodd" stroke="none"/>
    <path d="M5.65 -5.1 Q7.8 -2.9 7.85 0.2 7.8 3.3 5.65 5.5 3.45 7.7 0.35 7.7 -2.8 7.7 -4.95 5.5 -7.15 3.3 -7.15 0.2 -7.15 -2.9 -4.95 -5.1 -2.8 -7.3 0.35 -7.25 3.45 -7.3 5.65 -5.1" fill="#04212c" fill-rule="evenodd" stroke="none"/>
    <path d="M9.7 -10.45 Q11.15 -9.0 11.15 -6.9 11.15 -4.85 9.7 -3.4 8.25 -1.95 6.2 -1.95 4.1 -1.95 2.65 -3.4 1.2 -4.85 1.2 -6.9 1.2 -9.0 2.65 -10.45 4.1 -11.9 6.2 -11.9 8.25 -11.9 9.7 -10.45 M-1.95 4.55 Q-1.95 5.6 -2.7 6.35 -3.4 7.05 -4.45 7.05 -5.5 7.05 -6.2 6.35 -6.95 5.6 -6.95 4.55 -6.95 3.5 -6.2 2.8 -5.5 2.05 -4.45 2.05 -3.4 2.05 -2.7 2.8 -1.95 3.5 -1.95 4.55" fill="#e6e6e6" fill-rule="evenodd" stroke="none"/>
  </g>
  <defs>
    <radialGradient cx="0" cy="0" gradientTransform="matrix(0.0419, 0.0, 0.0, 0.0419, 2.05, 2.45)" gradientUnits="userSpaceOnUse" id="gradient0" r="819.2" spreadMethod="pad">
      <stop offset="0.44313725490196076" stop-color="#e7d6d6"/>
      <stop offset="0.8274509803921568" stop-color="#877979"/>
      <stop offset="1.0" stop-color="#9a7474"/>
    </radialGradient>
  </defs>
</svg>
