<?xml version="1.0" encoding="UTF-8" standalone="no"?>
<svg xmlns:ffdec="https://www.free-decompiler.com/flash" xmlns:xlink="http://www.w3.org/1999/xlink" ffdec:objectType="shape" height="83.35px" width="92.5px" xmlns="http://www.w3.org/2000/svg">
  <g transform="matrix(1.0, 0.0, 0.0, 1.0, 47.05, -25.95)">
    <path d="M31.8 47.7 Q33.55 45.95 34.4 43.9 L37.35 47.1 Q45.45 56.9 45.45 69.65 L45.45 69.9 Q45.35 86.15 31.9 97.7 L27.65 100.95 Q24.6 103.05 21.35 104.55 17.55 106.35 13.45 107.5 L11.45 107.95 Q5.65 109.3 -0.8 109.3 -8.0 109.3 -14.45 107.65 L-17.05 106.9 -22.9 104.55 Q-26.2 103.05 -29.25 100.95 L-33.5 97.7 Q-47.05 86.05 -47.05 69.65 -47.05 55.65 -36.55 44.8 L-35.7 46.2 -33.45 48.6 Q-32.35 49.6 -30.9 50.5 L-26.95 52.65 Q-16.3 57.6 -1.3 57.6 7.95 57.6 15.55 55.75 20.25 54.55 24.3 52.65 L27.1 51.2 28.9 50.1 31.6 47.95 31.7 47.85 31.8 47.7" fill="url(#gradient0)" fill-rule="evenodd" stroke="none"/>
    <path d="M-42.15 79.1 Q-46.6 60.3 -35.7 49.95 -22.0 61.75 4.7 59.7 4.1 119.8 -28.7 97.5 -38.05 90.5 -42.15 79.1" fill="url(#gradient1)" fill-rule="evenodd" stroke="none"/>
    <path d="M37.35 87.4 Q41.85 66.05 30.7 50.7 33.6 49.15 35.6 46.3 45.8 58.25 44.15 73.45 43.15 81.75 37.35 87.4" fill="url(#gradient2)" fill-rule="evenodd" stroke="none"/>
    <path d="M-19.1 67.95 Q-20.1 66.55 -20.1 64.6 -20.1 62.65 -19.1 61.25 -18.05 59.85 -16.6 59.85 -15.15 59.85 -14.15 61.25 -13.15 62.65 -13.15 64.6 -13.15 66.55 -14.15 67.95 -15.15 69.3 -16.6 69.3 -18.05 69.3 -19.1 67.95" fill="url(#gradient3)" fill-rule="evenodd" stroke="none"/>
    <path d="M-37.45 78.85 Q-40.25 75.05 -40.25 69.6 -40.25 64.15 -37.45 60.3 -34.6 56.5 -30.6 56.5 -26.6 56.5 -23.8 60.3 -20.95 64.15 -20.95 69.6 -20.95 75.05 -23.8 78.85 -26.6 82.7 -30.6 82.7 -34.6 82.7 -37.45 78.85" fill="url(#gradient4)" fill-rule="evenodd" stroke="none"/>
    <path d="M19.45 27.85 L16.55 25.95 Q20.65 27.0 24.3 28.7 34.95 33.65 34.95 40.7 L34.5 43.6 34.4 43.9 Q33.55 45.95 31.8 47.7 29.15 50.4 24.3 52.65 13.7 57.6 -1.3 57.6 -16.3 57.6 -26.95 52.65 -30.95 50.8 -33.45 48.6 L-35.7 46.2 -36.55 44.8 Q-37.55 42.85 -37.55 40.7 -37.55 33.65 -26.95 28.7 -23.4 27.05 -19.35 26.0 -21.4 27.05 -23.2 28.45 -31.75 34.8 -31.75 40.05 -31.75 41.1 -31.35 42.15 -29.95 46.15 -22.85 49.1 -13.9 52.85 -1.3 52.85 11.3 52.85 20.2 49.1 29.15 45.35 29.15 40.05 L29.1 39.35 Q28.55 34.55 19.45 27.85" fill="url(#gradient5)" fill-rule="evenodd" stroke="none"/>
  </g>
  <defs>
    <radialGradient cx="0" cy="0" gradientTransform="matrix(0.1154, 0.0, 0.0, 0.0898, -9.65, 52.4)" gradientUnits="userSpaceOnUse" id="gradient0" r="819.2" spreadMethod="pad">
      <stop offset="0.4588235294117647" stop-color="#e0f2ff" stop-opacity="0.101960786"/>
      <stop offset="0.7450980392156863" stop-color="#094066"/>
    </radialGradient>
    <linearGradient gradientTransform="matrix(-0.0114, -0.0426, 0.0316, -0.0085, -37.95, 96.75)" gradientUnits="userSpaceOnUse" id="gradient1" spreadMethod="pad" x1="-819.2" x2="819.2">
      <stop offset="0.4745098039215686" stop-color="#ffffff" stop-opacity="0.0"/>
      <stop offset="1.0" stop-color="#ffffff" stop-opacity="0.6"/>
    </linearGradient>
    <linearGradient gradientTransform="matrix(0.019, -0.011, 0.0061, 0.0103, 37.0, 75.4)" gradientUnits="userSpaceOnUse" id="gradient2" spreadMethod="pad" x1="-819.2" x2="819.2">
      <stop offset="0.4745098039215686" stop-color="#ffffff" stop-opacity="0.0"/>
      <stop offset="1.0" stop-color="#ffffff" stop-opacity="0.6"/>
    </linearGradient>
    <linearGradient gradientTransform="matrix(-0.0021, -0.0037, 0.005, -0.0029, -16.6, 64.6)" gradientUnits="userSpaceOnUse" id="gradient3" spreadMethod="pad" x1="-819.2" x2="819.2">
      <stop offset="0.17254901960784313" stop-color="#ffffff" stop-opacity="0.09803922"/>
      <stop offset="1.0" stop-color="#ffffff"/>
    </linearGradient>
    <linearGradient gradientTransform="matrix(-0.0059, -0.0102, 0.0139, -0.008, -30.6, 69.6)" gradientUnits="userSpaceOnUse" id="gradient4" spreadMethod="pad" x1="-819.2" x2="819.2">
      <stop offset="0.17254901960784313" stop-color="#ffffff" stop-opacity="0.09803922"/>
      <stop offset="1.0" stop-color="#ffffff"/>
    </linearGradient>
    <radialGradient cx="0" cy="0" gradientTransform="matrix(0.0461, 0.0, 0.0, 0.0214, -1.75, 39.5)" gradientUnits="userSpaceOnUse" id="gradient5" r="819.2" spreadMethod="pad">
      <stop offset="0.8627450980392157" stop-color="#ffffff" stop-opacity="0.0"/>
      <stop offset="1.0" stop-color="#356d74" stop-opacity="0.8117647"/>
    </radialGradient>
  </defs>
</svg>
