<?xml version="1.0" encoding="UTF-8" standalone="no"?>
<svg xmlns:ffdec="https://www.free-decompiler.com/flash" xmlns:xlink="http://www.w3.org/1999/xlink" ffdec:objectType="shape" height="93.05px" width="107.6px" xmlns="http://www.w3.org/2000/svg">
  <g transform="matrix(1.0, 0.0, 0.0, 1.0, 12.3, 14.9)">
    <path d="M17.0 -10.35 Q41.5 -11.6 66.55 -10.05 89.9 -9.7 91.0 16.45 91.65 31.5 91.0 46.9 89.9 72.7 66.55 73.7 40.95 74.7 16.15 73.35 -6.9 72.7 -8.0 46.9 -8.6 30.85 -8.0 16.05 -6.9 -9.7 17.0 -10.35 Z" fill="none" stroke="#3e5277" stroke-linecap="round" stroke-linejoin="round" stroke-width="8.0"/>
    <path d="M18.4 -6.55 Q41.35 -7.75 64.8 -6.3 86.6 -5.95 87.65 18.5 L87.9 30.55 Q87.65 25.6 87.0 19.4 84.9 -1.25 63.0 -1.7 L16.35 -4.6 Q9.25 -4.15 4.5 -2.7 9.95 -6.35 18.4 -6.55 M-3.55 8.8 L-3.55 9.0 -3.55 9.1 -3.65 9.25 -3.55 8.8" fill="#ffffff" fill-rule="evenodd" stroke="none"/>
    <path d="M86.7 -0.15 Q90.6 6.15 91.0 16.45 91.65 31.5 91.0 46.9 90.25 64.75 78.8 70.75 73.75 73.35 66.55 73.7 40.95 74.7 16.15 73.35 -0.8 72.9 -5.85 58.8 -7.65 53.75 -8.0 46.9 -8.6 30.85 -8.0 16.05 -7.3 0.25 1.95 -6.1 -2.6 -0.65 -3.55 8.75 L-3.55 8.8 -3.65 9.25 -3.55 9.1 -3.7 11.35 Q-4.3 25.15 -3.7 40.15 -2.7 64.35 18.85 64.95 42.05 66.15 66.05 65.25 80.35 64.65 85.7 54.05 86.75 52.05 87.45 49.7 88.65 45.5 88.9 40.15 89.5 25.75 88.9 11.7 88.65 4.8 86.7 -0.15" fill="#bbd1de" fill-rule="evenodd" stroke="none"/>
    <path d="M18.4 -6.55 Q9.95 -6.35 4.5 -2.7 9.25 -4.15 16.35 -4.6 L63.0 -1.7 Q84.9 -1.25 87.0 19.4 87.65 25.6 87.9 30.55 L87.65 18.5 Q86.6 -5.95 64.8 -6.3 41.35 -7.75 18.4 -6.55 M1.95 -6.1 Q7.8 -10.1 17.0 -10.35 41.5 -11.6 66.55 -10.05 80.7 -9.85 86.7 -0.15 88.65 4.8 88.9 11.7 89.5 25.75 88.9 40.15 88.65 45.5 87.45 49.7 86.75 52.05 85.7 54.05 80.35 64.65 66.05 65.25 42.05 66.15 18.85 64.95 -2.7 64.35 -3.7 40.15 -4.3 25.15 -3.7 11.35 L-3.55 9.1 -3.55 9.0 -3.55 8.8 -3.55 8.75 Q-2.6 -0.65 1.95 -6.1" fill="url(#gradient0)" fill-rule="evenodd" stroke="none"/>
  </g>
  <defs>
    <radialGradient cx="0" cy="0" gradientTransform="matrix(0.0986, 0.0, 0.0, 0.0669, 57.0, 14.15)" gradientUnits="userSpaceOnUse" id="gradient0" r="819.2" spreadMethod="pad">
      <stop offset="0.3843137254901961" stop-color="#f1f8fc"/>
      <stop offset="1.0" stop-color="#d6e5ed"/>
    </radialGradient>
  </defs>
</svg>
