<?xml version="1.0" encoding="UTF-8" standalone="no"?>
<svg xmlns:ffdec="https://www.free-decompiler.com/flash" xmlns:xlink="http://www.w3.org/1999/xlink" ffdec:objectType="shape" height="28.9px" width="30.95px" xmlns="http://www.w3.org/2000/svg">
  <g transform="matrix(1.0, 0.0, 0.0, 1.0, 30.95, 0.0)">
    <path d="M-27.9 16.35 L-24.05 12.4 -19.85 8.55 -16.6 5.95 Q-13.6 3.7 -10.8 2.3 -7.7 0.7 -4.85 0.05 L-4.65 0.05 -4.45 0.2 -4.4 0.45 Q-5.15 12.7 -24.05 21.65 L-20.0 21.4 Q-13.95 21.0 -7.95 21.25 L-7.1 20.8 -7.0 20.8 -6.95 20.8 -4.6 20.5 -2.1 20.8 -2.05 20.8 Q-0.75 21.25 -0.8 22.0 -0.75 22.75 -2.1 23.15 L-2.05 23.15 -4.6 23.55 -7.1 23.15 -7.35 23.1 -9.5 23.2 -6.1 23.9 -3.8 23.6 -1.3 23.9 -1.25 23.9 Q0.05 24.35 0.0 25.1 0.05 25.85 -1.3 26.25 L-1.25 26.25 -3.8 26.65 -6.3 26.25 -7.5 25.5 -12.9 25.1 -11.65 25.85 -11.4 25.85 -8.9 26.15 -8.85 26.15 Q-7.55 26.6 -7.6 27.35 -7.55 28.1 -8.9 28.5 L-8.85 28.5 -11.4 28.9 -13.9 28.5 Q-15.25 28.1 -15.15 27.35 -15.25 27.0 -14.65 26.65 -19.4 25.05 -23.75 24.6 L-30.0 24.45 -30.25 24.4 -30.4 24.2 -30.4 24.0 -30.3 23.8 -26.55 20.5 -30.2 21.5 -30.5 21.8 -30.8 21.75 -30.95 21.5 -30.9 21.2 -30.7 21.05 -30.3 20.65 Q-27.5 20.15 -24.75 18.9 -19.55 16.5 -14.65 12.2 L-14.1 11.75 -8.45 5.95 -8.2 5.85 -7.95 5.95 -7.8 6.2 -7.9 6.45 Q-15.8 15.55 -24.4 19.6 L-24.45 19.6 -28.95 23.6 -23.65 23.85 -23.25 23.9 Q-18.6 24.4 -13.5 26.25 L-13.35 26.4 -13.25 26.6 -13.35 26.85 -13.5 26.95 -14.4 27.35 Q-14.35 27.6 -13.7 27.8 L-13.65 27.8 -11.4 28.15 -9.1 27.8 Q-8.45 27.6 -8.35 27.35 -8.45 27.1 -9.1 26.85 L-11.4 26.6 -11.75 26.6 -11.9 26.55 Q-13.25 25.9 -13.6 25.5 -14.0 25.1 -13.75 24.8 -13.7 24.5 -13.15 24.4 L-7.15 24.8 -6.9 24.9 -6.8 25.1 -6.05 25.55 -3.8 25.9 -1.5 25.55 -0.75 25.1 Q-0.85 24.85 -1.5 24.6 L-3.8 24.35 -5.95 24.6 -6.15 24.65 Q-10.55 23.9 -10.85 23.45 L-10.9 22.95 -10.6 22.7 -9.95 22.5 -7.3 22.35 -7.15 22.35 -6.85 22.45 -4.6 22.8 -2.3 22.45 Q-1.65 22.25 -1.55 22.0 -1.65 21.75 -2.3 21.5 L-4.6 21.25 -6.75 21.5 -6.9 21.55 -6.95 21.55 Q-7.35 21.7 -7.5 21.9 L-7.65 21.95 -7.8 22.0 Q-13.85 21.75 -19.95 22.15 L-20.7 22.2 -26.15 22.6 -26.4 22.5 -26.55 22.3 -26.55 22.05 -26.35 21.85 Q-6.45 13.05 -5.2 0.9 -8.1 1.6 -11.25 3.3 L-16.65 6.65 -20.2 9.35 -24.05 12.65 -27.9 16.35" fill="#2d4300" fill-rule="evenodd" stroke="none"/>
    <path d="M-27.9 16.35 L-24.05 12.65 -23.7 14.6 Q-23.25 16.25 -22.45 16.25 -22.15 16.25 -21.3 12.6 L-20.2 9.35 -16.65 6.65 -16.7 7.45 -16.35 10.15 Q-15.8 12.15 -14.65 12.2 -19.55 16.5 -24.75 18.9 -27.5 20.15 -30.3 20.65 -31.25 20.0 -27.9 16.35 M-11.25 3.3 Q-8.1 1.6 -5.2 0.9 -6.45 13.05 -26.35 21.85 L-26.55 22.05 -26.55 22.3 -26.4 22.5 -26.15 22.6 -20.7 22.2 -21.55 22.7 -23.25 23.9 -23.65 23.85 -28.95 23.6 -24.45 19.6 -24.4 19.6 Q-15.8 15.55 -7.9 6.45 L-7.8 6.2 -7.95 5.95 -8.2 5.85 -8.45 5.95 -14.1 11.75 Q-13.6 10.85 -12.95 8.3 -12.3 5.65 -11.25 3.3" fill="url(#gradient0)" fill-rule="evenodd" stroke="none"/>
    <path d="M-20.7 22.2 L-19.95 22.15 Q-13.85 21.75 -7.8 22.0 L-7.65 21.95 -7.5 21.9 Q-7.35 21.7 -6.95 21.55 L-6.9 21.55 -6.75 21.5 -4.6 21.25 -2.3 21.5 Q-1.65 21.75 -1.55 22.0 -1.65 22.25 -2.3 22.45 L-4.6 22.8 -6.85 22.45 -7.15 22.35 -7.3 22.35 -9.95 22.5 -10.6 22.7 -10.9 22.95 -10.85 23.45 Q-10.55 23.9 -6.15 24.65 L-5.95 24.6 -3.8 24.35 -1.5 24.6 Q-0.85 24.85 -0.75 25.1 L-1.5 25.55 -3.8 25.9 -6.05 25.55 -6.8 25.1 -6.9 24.9 -7.15 24.8 -13.15 24.4 Q-13.7 24.5 -13.75 24.8 -14.0 25.1 -13.6 25.5 -13.25 25.9 -11.9 26.55 L-11.75 26.6 -11.4 26.6 -9.1 26.85 Q-8.45 27.1 -8.35 27.35 -8.45 27.6 -9.1 27.8 L-11.4 28.15 -13.65 27.8 -13.7 27.8 Q-14.35 27.6 -14.4 27.35 L-13.5 26.95 -13.35 26.85 -13.25 26.6 -13.35 26.4 -13.5 26.25 Q-18.6 24.4 -23.25 23.9 L-21.55 22.7 -20.7 22.2" fill="url(#gradient1)" fill-rule="evenodd" stroke="none"/>
    <path d="M-24.05 12.65 L-20.2 9.35 -21.3 12.6 Q-22.15 16.25 -22.45 16.25 -23.25 16.25 -23.7 14.6 L-24.05 12.65 M-16.65 6.65 L-11.25 3.3 Q-12.3 5.65 -12.95 8.3 -13.6 10.85 -14.1 11.75 L-14.65 12.2 Q-15.8 12.15 -16.35 10.15 L-16.7 7.45 -16.65 6.65" fill="url(#gradient2)" fill-rule="evenodd" stroke="none"/>
  </g>
  <defs>
    <radialGradient cx="0" cy="0" gradientTransform="matrix(0.004, 0.0055, -0.0238, 0.0172, -28.1, 13.8)" gradientUnits="userSpaceOnUse" id="gradient0" r="819.2" spreadMethod="pad">
      <stop offset="0.0" stop-color="#e2d57b"/>
      <stop offset="0.42745098039215684" stop-color="#a6c259"/>
      <stop offset="0.9529411764705882" stop-color="#305600"/>
    </radialGradient>
    <radialGradient cx="0" cy="0" gradientTransform="matrix(0.027, 0.0, 0.0, 0.0202, -0.3, 23.6)" gradientUnits="userSpaceOnUse" id="gradient1" r="819.2" spreadMethod="pad">
      <stop offset="0.0" stop-color="#e2d57b"/>
      <stop offset="0.42745098039215684" stop-color="#a6c259"/>
      <stop offset="0.9529411764705882" stop-color="#305600"/>
    </radialGradient>
    <radialGradient cx="0" cy="0" gradientTransform="matrix(0.004, 0.0055, -0.0238, 0.0172, -28.1, 13.8)" gradientUnits="userSpaceOnUse" id="gradient2" r="819.2" spreadMethod="pad">
      <stop offset="0.403921568627451" stop-color="#5e8023"/>
      <stop offset="0.9529411764705882" stop-color="#172a00"/>
    </radialGradient>
  </defs>
</svg>
