<?xml version="1.0" encoding="UTF-8" standalone="no"?>
<svg xmlns:ffdec="https://www.free-decompiler.com/flash" xmlns:xlink="http://www.w3.org/1999/xlink" ffdec:objectType="shape" height="11.95px" width="13.1px" xmlns="http://www.w3.org/2000/svg">
  <g transform="matrix(1.0, 0.0, 0.0, 1.0, 12.6, 0.5)">
    <path d="M-4.55 10.95 Q-7.0 10.95 -9.15 9.35 -11.25 7.75 -11.9 5.5 -12.5 3.2 -11.2 1.6 -9.95 0.0 -7.5 0.0 -5.1 0.0 -2.95 1.6 -0.8 3.2 -0.2 5.5 0.45 7.75 -0.9 9.35 -2.15 10.95 -4.55 10.95" fill="url(#gradient0)" fill-rule="evenodd" stroke="none"/>
    <path d="M-5.65 1.45 Q-3.25 2.15 -2.05 3.7 -0.9 5.25 -1.25 6.75 -1.65 8.25 -3.2 8.35 -4.8 8.4 -6.55 6.7 -8.3 5.0 -10.0 5.35 -11.7 5.65 -11.35 3.9 -11.0 2.15 -9.55 1.45 -8.1 0.7 -5.65 1.45" fill="url(#gradient1)" fill-rule="evenodd" stroke="none"/>
    <path d="M-1.25 5.25 Q-1.25 6.1 -1.9 6.7 -2.5 7.35 -3.35 7.35 -4.2 7.35 -4.85 6.7 -5.45 6.1 -5.45 5.25 -5.45 4.4 -4.85 3.75 -4.2 3.15 -3.35 3.15 -2.5 3.15 -1.9 3.75 -1.25 4.4 -1.25 5.25" fill="#000000" fill-rule="evenodd" stroke="none"/>
    <path d="M-3.15 3.75 Q-3.15 4.3 -3.55 4.7 -3.95 5.1 -4.5 5.1 -5.05 5.1 -5.45 4.7 -5.85 4.3 -5.85 3.75 -5.85 3.25 -5.45 2.8 -5.05 2.4 -4.5 2.4 -3.95 2.4 -3.55 2.8 -3.15 3.25 -3.15 3.75" fill="#ffffff" fill-opacity="0.2" fill-rule="evenodd" stroke="none"/>
    <path d="M-9.15 9.35 Q-11.25 7.75 -11.9 5.5 -12.5 3.2 -11.2 1.6 -9.95 0.0 -7.5 0.0 -5.1 0.0 -2.95 1.6 -0.8 3.2 -0.2 5.5 0.45 7.75 -0.9 9.35 -2.15 10.95 -4.55 10.95 -7.0 10.95 -9.15 9.35 Z" fill="none" stroke="#96a180" stroke-linecap="round" stroke-linejoin="round" stroke-width="1.0"/>
  </g>
  <defs>
    <radialGradient cx="0" cy="0" gradientTransform="matrix(0.0069, 0.0, 0.0017, 0.0065, -5.3, 4.7)" gradientUnits="userSpaceOnUse" id="gradient0" r="819.2" spreadMethod="pad">
      <stop offset="0.3803921568627451" stop-color="#ffffff"/>
      <stop offset="0.9529411764705882" stop-color="#d1d4c3"/>
    </radialGradient>
    <radialGradient cx="0" cy="0" gradientTransform="matrix(-0.0126, -0.0034, 0.0029, -0.0107, -5.2, 2.2)" gradientUnits="userSpaceOnUse" id="gradient1" r="819.2" spreadMethod="pad">
      <stop offset="0.0" stop-color="#ffffff"/>
      <stop offset="0.8313725490196079" stop-color="#ffffff" stop-opacity="0.0"/>
    </radialGradient>
  </defs>
</svg>
