<?xml version="1.0" encoding="UTF-8" standalone="no"?>
<svg xmlns:ffdec="https://www.free-decompiler.com/flash" xmlns:xlink="http://www.w3.org/1999/xlink" ffdec:objectType="shape" height="21.95px" width="37.6px" xmlns="http://www.w3.org/2000/svg">
  <g transform="matrix(1.0, 0.0, 0.0, 1.0, 37.1, 0.5)">
    <path d="M-32.95 4.35 Q-30.1 0.95 -25.1 0.15 -20.8 -0.5 -15.7 1.55 -13.4 2.45 -11.0 3.85 -3.0 8.55 0.0 15.95 L-35.45 20.95 Q-37.0 16.45 -36.5 12.5 -35.85 7.7 -32.95 4.35" fill="url(#gradient0)" fill-rule="evenodd" stroke="none"/>
    <path d="M-32.95 4.35 Q-35.85 7.7 -36.5 12.5 -37.0 16.45 -35.45 20.95 L0.0 15.95 Q-3.0 8.55 -11.0 3.85 -13.4 2.45 -15.7 1.55 -20.8 -0.5 -25.1 0.15 -30.1 0.95 -32.95 4.35 Z" fill="none" stroke="#2d4300" stroke-linecap="round" stroke-linejoin="round" stroke-width="1.0"/>
  </g>
  <defs>
    <radialGradient cx="0" cy="0" gradientTransform="matrix(0.0095, -0.0165, 0.0234, 0.0135, -19.75, 14.35)" gradientUnits="userSpaceOnUse" id="gradient0" r="819.2" spreadMethod="pad">
      <stop offset="0.5843137254901961" stop-color="#82c259"/>
      <stop offset="0.9529411764705882" stop-color="#305600"/>
    </radialGradient>
  </defs>
</svg>
