<?xml version="1.0" encoding="UTF-8" standalone="no"?>
<svg xmlns:ffdec="https://www.free-decompiler.com/flash" xmlns:xlink="http://www.w3.org/1999/xlink" ffdec:objectType="shape" height="55.65px" width="64.4px" xmlns="http://www.w3.org/2000/svg">
  <g transform="matrix(1.0, 0.0, 0.0, 1.0, 8.1, 6.8)">
    <path d="M56.3 3.5 L54.0 8.65 Q34.75 23.55 18.95 48.85 8.75 40.6 -5.8 32.85 L-8.1 29.2 Q-6.8 29.5 0.45 33.1 7.65 36.7 18.4 44.6 32.1 23.85 43.8 14.05 L56.3 3.5" fill="#003ca6" fill-rule="evenodd" stroke="none"/>
    <path d="M56.3 3.5 L43.8 14.05 Q32.1 23.85 18.4 44.6 7.65 36.7 0.45 33.1 -6.8 29.5 -8.1 29.2 -5.1 21.95 -0.55 16.25 8.25 20.85 15.8 27.0 27.3 6.4 43.65 -6.8 50.4 -2.5 56.3 3.5" fill="url(#gradient0)" fill-rule="evenodd" stroke="none"/>
  </g>
  <defs>
    <radialGradient cx="0" cy="0" gradientTransform="matrix(0.0486, 0.0, 0.0, 0.0486, 30.5, 3.75)" gradientUnits="userSpaceOnUse" id="gradient0" r="819.2" spreadMethod="pad">
      <stop offset="0.4" stop-color="#339bff"/>
      <stop offset="1.0" stop-color="#1f92ff"/>
    </radialGradient>
  </defs>
</svg>
