<?xml version="1.0" encoding="UTF-8" standalone="no"?>
<svg xmlns:ffdec="https://www.free-decompiler.com/flash" xmlns:xlink="http://www.w3.org/1999/xlink" ffdec:objectType="shape" height="35.4px" width="40.75px" xmlns="http://www.w3.org/2000/svg">
  <g transform="matrix(1.0, 0.0, 0.0, 1.0, 78.65, -56.75)">
    <path d="M-50.8 65.1 Q-46.65 66.75 -42.55 65.1 -40.3 67.4 -38.75 74.4 -37.2 81.35 -42.35 86.55 L-45.65 89.2 Q-49.55 91.7 -54.25 91.65 -59.8 91.6 -64.75 89.0 -69.7 86.4 -73.3 82.25 -77.3 77.6 -78.05 71.65 -78.8 65.65 -74.95 60.95 -71.3 56.45 -65.55 57.55 -61.85 58.3 -58.8 60.6 -54.95 63.45 -50.8 65.1" fill="url(#gradient0)" fill-rule="evenodd" stroke="none"/>
    <path d="M-50.8 65.1 Q-46.65 66.75 -42.55 65.1 -40.3 67.4 -38.75 74.4 -37.2 81.35 -42.35 86.55 L-45.65 89.2 Q-49.55 91.7 -54.25 91.65 -59.8 91.6 -64.75 89.0 -69.7 86.4 -73.3 82.25 -77.3 77.6 -78.05 71.65 -78.8 65.65 -74.95 60.95 -71.3 56.45 -65.55 57.55 -61.85 58.3 -58.8 60.6 -54.95 63.45 -50.8 65.1 Z" fill="none" stroke="#2d4300" stroke-linecap="round" stroke-linejoin="round" stroke-width="1.0"/>
    <path d="M-50.8 64.5 Q-46.65 66.15 -42.55 64.5 -40.3 66.8 -38.75 73.8 -37.2 80.75 -42.35 85.95 L-45.65 88.6 Q-49.55 91.1 -54.25 91.05 -59.8 91.0 -64.75 88.4 -69.7 85.8 -73.3 81.65 -77.3 77.0 -78.05 71.05 -78.8 65.05 -74.95 60.35 -71.3 55.85 -65.55 56.95 -61.85 57.7 -58.8 60.0 -54.95 62.85 -50.8 64.5" fill="url(#gradient1)" fill-rule="evenodd" stroke="none"/>
  </g>
  <defs>
    <radialGradient cx="0" cy="0" gradientTransform="matrix(0.0245, -0.0141, 0.0199, 0.0346, -64.8, 65.2)" gradientUnits="userSpaceOnUse" id="gradient0" r="819.2" spreadMethod="pad">
      <stop offset="0.34901960784313724" stop-color="#ffeb91"/>
      <stop offset="0.7019607843137254" stop-color="#9ea24d"/>
      <stop offset="0.8784313725490196" stop-color="#3d5d13"/>
      <stop offset="1.0" stop-color="#5a7229"/>
    </radialGradient>
    <radialGradient cx="0" cy="0" gradientTransform="matrix(0.0245, -0.0141, 0.0199, 0.0346, -64.8, 64.6)" gradientUnits="userSpaceOnUse" id="gradient1" r="819.2" spreadMethod="pad">
      <stop offset="0.34901960784313724" stop-color="#ffeb91"/>
      <stop offset="0.7019607843137254" stop-color="#9ea24d" stop-opacity="0.0"/>
    </radialGradient>
  </defs>
</svg>
