<?xml version="1.0" encoding="UTF-8" standalone="no"?>
<svg xmlns:ffdec="https://www.free-decompiler.com/flash" xmlns:xlink="http://www.w3.org/1999/xlink" ffdec:objectType="shape" height="64.65px" width="92.7px" xmlns="http://www.w3.org/2000/svg">
  <g transform="matrix(1.0, 0.0, 0.0, 1.0, 92.2, 0.5)">
    <path d="M-15.5 22.95 L-17.5 26.35 -7.1 25.2 -5.85 25.05 Q4.6 23.85 -3.6 32.6 L-24.75 41.6 -13.3 43.25 Q7.8 50.35 -17.65 52.55 L-27.9 52.35 -26.8 59.7 Q-24.85 66.15 -36.9 62.1 -45.65 58.0 -54.8 62.1 -66.85 66.15 -64.9 59.7 L-63.8 52.35 -74.05 52.55 Q-99.5 50.35 -78.4 43.25 L-66.95 41.6 -88.1 32.6 Q-96.3 23.85 -85.85 25.05 L-84.6 25.2 -74.2 26.35 -76.2 22.95 Q-86.8 0.55 -69.9 13.8 L-62.05 17.75 -61.85 9.55 Q-60.2 -8.7 -50.2 7.95 -45.85 19.4 -41.5 7.95 -31.5 -8.7 -29.85 9.55 L-29.65 17.75 -21.8 13.8 Q-4.9 0.55 -15.5 22.95" fill="url(#gradient0)" fill-rule="evenodd" stroke="none"/>
    <path d="M-15.5 22.95 Q-4.9 0.55 -21.8 13.8 L-29.65 17.75 -29.85 9.55 Q-31.5 -8.7 -41.5 7.95 -45.85 19.4 -50.2 7.95 -60.2 -8.7 -61.85 9.55 L-62.05 17.75 -69.9 13.8 Q-86.8 0.55 -76.2 22.95 L-74.2 26.35 -84.6 25.2 -85.85 25.05 Q-96.3 23.85 -88.1 32.6 L-66.95 41.6 -78.4 43.25 Q-99.5 50.35 -74.05 52.55 L-63.8 52.35 -64.9 59.7 Q-66.85 66.15 -54.8 62.1 -45.65 58.0 -36.9 62.1 -24.85 66.15 -26.8 59.7 L-27.9 52.35 -17.65 52.55 Q7.8 50.35 -13.3 43.25 L-24.75 41.6 -3.6 32.6 Q4.6 23.85 -5.85 25.05 L-7.1 25.2 -17.5 26.35 -15.5 22.95 Z" fill="none" stroke="#7d99af" stroke-linecap="round" stroke-linejoin="round" stroke-width="1.0"/>
  </g>
  <defs>
    <radialGradient cx="0" cy="0" fx="-70.4" fy="0" gradientTransform="matrix(1.0E-4, -0.0388, 0.0525, 1.0E-4, -45.6, 32.4)" gradientUnits="userSpaceOnUse" id="gradient0" r="819.2" spreadMethod="pad">
      <stop offset="0.3254901960784314" stop-color="#87a1bb"/>
      <stop offset="0.792156862745098" stop-color="#c0d7f0"/>
      <stop offset="1.0" stop-color="#dde9f7"/>
    </radialGradient>
  </defs>
</svg>
