<?xml version="1.0" encoding="UTF-8" standalone="no"?>
<svg xmlns:ffdec="https://www.free-decompiler.com/flash" xmlns:xlink="http://www.w3.org/1999/xlink" ffdec:objectType="shape" height="27.0px" width="27.1px" xmlns="http://www.w3.org/2000/svg">
  <g transform="matrix(1.0, 0.0, 0.0, 1.0, 1.0, -15.75)">
    <path d="M12.5 16.25 Q17.9 16.25 21.7 20.05 25.6 23.85 25.6 29.25 25.6 34.65 21.7 38.45 17.9 42.25 12.5 42.25 7.1 42.25 3.3 38.45 -0.5 34.65 -0.5 29.25 -0.5 23.85 3.3 20.05 7.1 16.25 12.5 16.25" fill="url(#gradient0)" fill-rule="evenodd" stroke="none"/>
    <path d="M12.5 16.25 Q17.9 16.25 21.7 20.05 25.6 23.85 25.6 29.25 25.6 34.65 21.7 38.45 17.9 42.25 12.5 42.25 7.1 42.25 3.3 38.45 -0.5 34.65 -0.5 29.25 -0.5 23.85 3.3 20.05 7.1 16.25 12.5 16.25 Z" fill="none" stroke="#873107" stroke-linecap="round" stroke-linejoin="round" stroke-width="1.0"/>
  </g>
  <defs>
    <radialGradient cx="0" cy="0" gradientTransform="matrix(0.0192, 0.0, 0.0, 0.0192, 16.6, 29.4)" gradientUnits="userSpaceOnUse" id="gradient0" r="819.2" spreadMethod="pad">
      <stop offset="0.0" stop-color="#fff4c6"/>
      <stop offset="0.4627450980392157" stop-color="#fee060"/>
      <stop offset="0.8823529411764706" stop-color="#e78b00"/>
      <stop offset="1.0" stop-color="#eb9a11"/>
    </radialGradient>
  </defs>
</svg>
