<?xml version="1.0" encoding="UTF-8" standalone="no"?>
<svg xmlns:ffdec="https://www.free-decompiler.com/flash" xmlns:xlink="http://www.w3.org/1999/xlink" ffdec:objectType="shape" height="29.7px" width="5.2px" xmlns="http://www.w3.org/2000/svg">
  <g transform="matrix(1.0, 0.0, 0.0, 1.0, 5.2, -0.1)">
    <path d="M-2.3 2.95 L-1.1 12.1 Q-0.35 17.5 -0.05 23.65 0.1 26.7 -0.1 28.15 -0.25 29.0 -0.5 29.35 -0.95 30.0 -1.55 29.75 L-1.6 29.7 Q-2.95 29.1 -4.05 23.65 -6.65 2.4 -3.35 0.1 L-3.4 0.4 -3.4 0.35 -3.45 0.45 Q-5.8 5.45 -3.05 23.45 -2.2 27.95 -1.25 28.75 L-1.1 28.0 Q-0.9 26.65 -1.05 23.7 -1.35 17.6 -2.1 12.25 -2.8 7.5 -2.4 2.55 L-2.35 2.65 -2.3 2.95" fill="#873107" fill-rule="evenodd" stroke="none"/>
    <path d="M-2.35 2.65 L-2.3 2.75 -2.25 2.8 -2.3 2.95 -2.35 2.65 M-3.35 0.1 L-3.35 0.2 -2.4 2.55 Q-2.8 7.5 -2.1 12.25 -1.35 17.6 -1.05 23.7 -0.9 26.65 -1.1 28.0 L-1.25 28.75 Q-2.2 27.95 -3.05 23.45 -5.8 5.45 -3.45 0.45 L-3.4 0.35 -3.4 0.4 -3.35 0.1" fill="url(#gradient0)" fill-rule="evenodd" stroke="none"/>
  </g>
  <defs>
    <radialGradient cx="0" cy="0" gradientTransform="matrix(0.0292, 0.0, 0.0, 0.0292, -3.1, 1.7)" gradientUnits="userSpaceOnUse" id="gradient0" r="819.2" spreadMethod="pad">
      <stop offset="0.1803921568627451" stop-color="#fee167"/>
      <stop offset="0.8156862745098039" stop-color="#cd6500"/>
    </radialGradient>
  </defs>
</svg>
