<?xml version="1.0" encoding="UTF-8" standalone="no"?>
<svg xmlns:ffdec="https://www.free-decompiler.com/flash" xmlns:xlink="http://www.w3.org/1999/xlink" ffdec:objectType="shape" height="149.95px" width="92.8px" xmlns="http://www.w3.org/2000/svg">
  <g transform="matrix(1.0, 0.0, 0.0, 1.0, 1.0, -1.15)">
    <path d="M1.95 85.7 L1.95 84.7 1.7 71.3 2.65 71.3 2.9 85.7 1.95 85.7" fill="url(#gradient0)" fill-rule="evenodd" stroke="none"/>
    <path d="M6.35 100.75 Q6.0 99.8 4.95 99.05 4.45 98.65 3.8 98.35 L3.75 98.35 3.65 98.3 3.65 96.65 4.7 96.9 Q6.55 97.8 7.15 99.05 L7.45 100.3 Q7.45 100.9 6.7 101.55 L6.7 100.75 6.35 100.75 M4.6 92.7 Q4.1 91.6 2.15 91.1 L1.95 85.7 2.9 85.7 3.05 89.65 Q5.7 90.35 5.7 92.15 5.7 92.7 5.1 93.25 L5.1 92.7 4.6 92.7" fill="url(#gradient1)" fill-rule="evenodd" stroke="none"/>
    <path d="M89.5 15.75 L89.6 16.0 89.6 16.05 89.5 15.75 89.6 16.05 89.6 19.6 85.05 18.7 84.95 18.7 84.8 18.65 84.75 18.65 84.3 18.6 84.05 18.6 83.95 18.6 83.35 18.55 Q81.0 18.55 77.35 20.5 77.8 9.3 77.1 6.3 L76.6 4.45 76.25 3.45 76.3 3.45 78.9 3.45 78.95 3.45 79.7 4.05 80.65 4.8 Q83.7 7.35 86.6 10.65 L89.45 15.6 89.5 15.75 M78.9 3.45 L79.7 4.05 78.9 3.45" fill="url(#gradient2)" fill-rule="evenodd" stroke="none"/>
    <path d="M1.95 22.85 L0.2 3.9 0.05 2.3 5.55 2.3 5.55 2.15 72.35 2.15 72.35 3.45 74.8 3.45 1.9 5.25 3.5 22.85 1.95 22.85" fill="url(#gradient3)" fill-rule="evenodd" stroke="none"/>
    <path d="M90.55 22.85 L90.55 23.05 3.5 23.05 3.5 22.85 3.5 23.05 1.95 23.05 1.95 22.85 3.5 22.85 90.55 22.85" fill="url(#gradient4)" fill-rule="evenodd" stroke="none"/>
    <path d="M90.7 25.3 L90.75 37.9 90.8 37.9 90.8 45.5 90.6 49.45 90.55 50.0 90.55 50.85 90.1 51.1 Q89.2 51.8 88.9 52.65 89.2 51.8 90.1 51.1 L90.55 50.85 90.5 52.85 88.95 53.35 88.9 53.55 88.05 55.65 Q88.05 56.75 89.25 58.45 L89.85 59.65 90.35 60.25 90.2 60.25 90.35 60.5 Q89.35 60.85 88.15 61.55 L87.45 62.05 86.85 62.45 85.9 63.45 85.6 64.05 85.55 64.5 85.6 64.9 Q86.05 66.15 89.25 66.8 L89.95 66.95 90.75 67.0 90.75 67.25 90.8 67.25 90.8 67.85 90.75 67.85 90.75 68.15 90.55 143.6 90.3 143.6 90.3 148.15 89.85 148.2 27.5 150.1 27.5 147.35 2.45 150.1 2.2 107.9 2.15 106.9 2.15 105.55 2.45 105.55 3.05 105.55 4.9 105.55 4.9 104.4 4.95 104.4 4.95 104.3 5.5 103.85 6.4 103.85 6.4 102.55 6.7 102.55 6.7 101.55 Q7.45 100.9 7.45 100.3 L7.15 99.05 Q6.55 97.8 4.7 96.9 L3.65 96.65 3.65 96.15 4.6 94.75 5.1 94.75 5.1 93.25 Q5.7 92.7 5.7 92.15 5.7 90.35 3.05 89.65 L2.9 85.7 2.65 71.3 1.7 71.3 1.95 84.7 1.75 84.7 0.75 33.85 2.45 33.85 1.95 23.05 3.5 23.05 90.55 23.05 90.55 25.3 90.7 25.3 M77.1 6.3 Q77.8 9.3 77.35 20.5 81.0 18.55 83.35 18.55 L83.95 18.6 84.05 18.6 84.3 18.6 84.75 18.65 84.8 18.65 84.95 18.7 85.05 18.7 89.6 19.6 89.6 20.95 90.55 20.95 90.55 22.85 3.5 22.85 1.9 5.25 74.8 3.45 76.25 3.45 76.6 4.45 77.1 6.3 M82.95 49.7 L82.95 50.0 83.65 50.0 83.65 49.7 82.95 49.7 M85.9 63.45 Q85.85 62.9 86.1 62.45 87.45 60.4 88.9 59.45 87.45 60.4 86.1 62.45 85.85 62.9 85.9 63.45 M3.0 29.75 L4.1 36.8 3.5 23.05 4.1 36.8 3.0 29.75 M2.25 34.4 L2.65 71.3 2.25 34.4 M89.6 146.45 L28.9 148.3 28.9 145.5 3.85 148.3 3.05 105.55 3.85 148.3 28.9 145.5 28.9 148.3 89.6 146.45" fill="url(#gradient5)" fill-rule="evenodd" stroke="none"/>
    <path d="M90.8 45.5 L90.8 49.45 90.6 49.45 90.8 45.5" fill="url(#gradient6)" fill-rule="evenodd" stroke="none"/>
    <path d="M90.8 49.45 L90.8 50.0 90.55 50.0 90.6 49.45 90.8 49.45 M82.95 49.7 L83.65 49.7 83.65 50.0 82.95 50.0 82.95 49.7" fill="url(#gradient7)" fill-rule="evenodd" stroke="none"/>
    <path d="M90.8 50.0 L90.8 52.75 90.75 52.8 90.5 52.85 90.55 50.85 90.55 50.0 90.8 50.0" fill="url(#gradient8)" fill-rule="evenodd" stroke="none"/>
    <path d="M90.35 60.25 L90.45 60.4 90.5 60.4 90.35 60.5 90.2 60.25 90.35 60.25" fill="url(#gradient9)" fill-rule="evenodd" stroke="none"/>
    <path d="M89.5 15.75 L89.6 16.05 M89.6 19.6 L90.7 19.9 90.55 22.85 90.55 23.05 90.7 25.3 90.75 37.9 M90.8 37.9 L90.8 45.5 90.8 49.45 90.8 50.0 90.8 52.75 M90.5 52.85 L88.95 53.35 88.9 53.55 88.05 55.65 Q88.05 56.75 89.25 58.45 L89.85 59.65 90.35 60.25 90.45 60.4 90.5 60.4 90.35 60.5 Q89.35 60.85 88.15 61.55 L87.45 62.05 86.85 62.45 85.9 63.45 85.6 64.05 85.55 64.5 85.6 64.9 Q86.05 66.15 89.25 66.8 L89.95 66.95 90.75 67.0 90.8 67.0 90.8 67.25 90.8 67.85 90.75 68.15 90.55 143.6 90.7 148.15 89.85 148.2 27.5 150.1 27.5 147.35 2.45 150.1 2.2 107.9 M2.15 106.9 L2.15 105.55 Q3.7 105.35 4.9 104.4 L4.95 104.4 4.95 104.3 Q6.05 103.45 6.4 102.55 L6.55 101.7 6.35 100.75 Q6.0 99.8 4.95 99.05 4.45 98.65 3.8 98.35 L3.75 98.35 3.65 98.3 2.15 97.75 1.6 97.55 2.15 97.25 3.2 96.5 Q4.8 95.15 4.8 93.55 L4.6 92.7 Q4.1 91.6 2.15 91.1 L1.95 85.7 1.95 84.7 1.7 71.3 M1.75 84.7 L0.75 33.85 2.45 33.85 1.95 23.05 1.95 22.85 0.2 3.9 0.0 2.15 5.55 2.15 72.35 2.15 75.75 2.15 76.15 2.15 M89.45 15.6 L89.5 15.75 M84.75 18.65 L84.8 18.65 M90.75 67.25 L90.75 67.0 M90.75 67.85 L90.75 68.15 M76.3 3.45 L75.75 2.15 M79.7 4.05 L78.9 3.45 M76.6 4.45 L77.1 6.3 M2.15 97.25 L2.15 97.75" fill="none" stroke="#d58611" stroke-linecap="round" stroke-linejoin="round" stroke-width="2.0"/>
    <path d="M3.5 22.85 L3.5 23.05 4.1 36.8 3.0 29.75 M90.55 50.85 L90.1 51.1 Q89.2 51.8 88.9 52.65 M88.9 59.45 Q87.45 60.4 86.1 62.45 85.85 62.9 85.9 63.45 M74.8 3.45 L1.9 5.25 3.5 22.85 M2.65 71.3 L2.25 34.4 M2.9 85.7 L2.65 71.3 M3.65 96.65 L4.7 96.9 Q6.55 97.8 7.15 99.05 L7.45 100.3 Q7.45 100.9 6.7 101.55 M5.1 93.25 Q5.7 92.7 5.7 92.15 5.7 90.35 3.05 89.65 L2.9 85.7 M3.05 105.55 L3.85 148.3 28.9 145.5 28.9 148.3 89.6 146.45" fill="none" stroke="#ffffff" stroke-linecap="round" stroke-linejoin="round" stroke-opacity="0.5019608" stroke-width="2.5"/>
    <path d="M90.7 19.9 L90.45 19.0 90.0 17.3 89.6 16.05 M77.1 6.3 Q77.8 9.3 77.35 20.5 81.0 18.55 83.35 18.55 L83.95 18.6 84.05 18.6 84.3 18.6 84.95 18.7 85.05 18.7 89.6 19.6 M79.7 4.05 L80.65 4.8 Q83.7 7.35 86.6 10.65 L89.45 15.6 M76.15 2.15 Q77.15 2.25 78.9 3.45 M76.6 4.45 L76.3 3.45" fill="none" stroke="#d58611" stroke-linecap="round" stroke-linejoin="round" stroke-width="2.0"/>
  </g>
  <defs>
    <radialGradient cx="0" cy="0" gradientTransform="matrix(0.0857, 0.0, 0.0, 0.2244, 40.6, 57.8)" gradientUnits="userSpaceOnUse" id="gradient0" r="819.2" spreadMethod="pad">
      <stop offset="0.0" stop-color="#fbe6c8"/>
      <stop offset="0.44313725490196076" stop-color="#f4c279"/>
      <stop offset="0.615686274509804" stop-color="#ed9b23"/>
      <stop offset="0.8470588235294118" stop-color="#ed9b23"/>
    </radialGradient>
    <radialGradient cx="0" cy="0" gradientTransform="matrix(0.0857, 0.0, 0.0, 0.1229, 40.6, 70.45)" gradientUnits="userSpaceOnUse" id="gradient1" r="819.2" spreadMethod="pad">
      <stop offset="0.0" stop-color="#fbe6c8"/>
      <stop offset="0.44313725490196076" stop-color="#f4c279"/>
      <stop offset="0.615686274509804" stop-color="#ed9b23"/>
      <stop offset="0.8470588235294118" stop-color="#ed9b23"/>
    </radialGradient>
    <radialGradient cx="0" cy="0" gradientTransform="matrix(0.0041, -0.0102, 0.0112, 0.0094, 79.15, 14.75)" gradientUnits="userSpaceOnUse" id="gradient2" r="819.2" spreadMethod="pad">
      <stop offset="0.5411764705882353" stop-color="#fcedd8"/>
      <stop offset="0.7411764705882353" stop-color="#f7d5a2"/>
    </radialGradient>
    <radialGradient cx="0" cy="0" gradientTransform="matrix(0.1318, 0.0, 0.0, 0.1714, 61.6, 43.25)" gradientUnits="userSpaceOnUse" id="gradient3" r="819.2" spreadMethod="pad">
      <stop offset="0.0" stop-color="#fbe6c8"/>
      <stop offset="0.44313725490196076" stop-color="#f4c279"/>
      <stop offset="0.615686274509804" stop-color="#ed9b23"/>
      <stop offset="0.8470588235294118" stop-color="#ed9b23"/>
    </radialGradient>
    <radialGradient cx="0" cy="0" gradientTransform="matrix(0.1318, 0.0, 0.0, 0.3131, 61.6, 60.1)" gradientUnits="userSpaceOnUse" id="gradient4" r="819.2" spreadMethod="pad">
      <stop offset="0.0" stop-color="#fbe6c8"/>
      <stop offset="0.44313725490196076" stop-color="#f4c279"/>
      <stop offset="0.615686274509804" stop-color="#ed9b23"/>
      <stop offset="0.8470588235294118" stop-color="#ed9b23"/>
    </radialGradient>
    <radialGradient cx="0" cy="0" gradientTransform="matrix(0.1318, 0.0, 0.0, 0.2824, 61.6, 74.85)" gradientUnits="userSpaceOnUse" id="gradient5" r="819.2" spreadMethod="pad">
      <stop offset="0.0" stop-color="#fbe6c8"/>
      <stop offset="0.44313725490196076" stop-color="#f4c279"/>
      <stop offset="0.615686274509804" stop-color="#ed9b23"/>
      <stop offset="0.8470588235294118" stop-color="#ed9b23"/>
    </radialGradient>
    <radialGradient cx="0" cy="0" gradientTransform="matrix(0.1318, 0.0, 0.0, 0.3453, 61.6, -6.05)" gradientUnits="userSpaceOnUse" id="gradient6" r="819.2" spreadMethod="pad">
      <stop offset="0.0" stop-color="#fbe6c8"/>
      <stop offset="0.44313725490196076" stop-color="#f4c279"/>
      <stop offset="0.615686274509804" stop-color="#ed9b23"/>
      <stop offset="0.8470588235294118" stop-color="#ed9b23"/>
    </radialGradient>
    <radialGradient cx="0" cy="0" gradientTransform="matrix(0.1318, 0.0, 0.0, 0.2999, 61.6, 1.25)" gradientUnits="userSpaceOnUse" id="gradient7" r="819.2" spreadMethod="pad">
      <stop offset="0.0" stop-color="#fbe6c8"/>
      <stop offset="0.44313725490196076" stop-color="#f4c279"/>
      <stop offset="0.615686274509804" stop-color="#ed9b23"/>
      <stop offset="0.8470588235294118" stop-color="#ed9b23"/>
    </radialGradient>
    <radialGradient cx="0" cy="0" gradientTransform="matrix(0.1318, 0.0, 0.0, 0.2824, 61.6, 4.1)" gradientUnits="userSpaceOnUse" id="gradient8" r="819.2" spreadMethod="pad">
      <stop offset="0.0" stop-color="#fbe6c8"/>
      <stop offset="0.44313725490196076" stop-color="#f4c279"/>
      <stop offset="0.615686274509804" stop-color="#ed9b23"/>
      <stop offset="0.8470588235294118" stop-color="#ed9b23"/>
    </radialGradient>
    <radialGradient cx="0" cy="0" gradientTransform="matrix(0.0857, 0.0, 0.0, 0.1005, 71.9, 37.4)" gradientUnits="userSpaceOnUse" id="gradient9" r="819.2" spreadMethod="pad">
      <stop offset="0.0" stop-color="#fbe6c8"/>
      <stop offset="0.44313725490196076" stop-color="#f4c279"/>
      <stop offset="0.615686274509804" stop-color="#ed9b23"/>
      <stop offset="0.8470588235294118" stop-color="#ed9b23"/>
    </radialGradient>
  </defs>
</svg>
