<?xml version="1.0" encoding="UTF-8" standalone="no"?>
<svg xmlns:ffdec="https://www.free-decompiler.com/flash" xmlns:xlink="http://www.w3.org/1999/xlink" ffdec:objectType="shape" height="47.7px" width="289.7px" xmlns="http://www.w3.org/2000/svg">
  <g transform="matrix(1.0, 0.0, 0.0, 1.0, 208.85, -6.05)">
    <path d="M-198.0 6.9 L70.0 6.9 Q80.0 6.9 80.0 16.9 L80.0 42.9 Q80.0 52.9 70.0 52.9 L-198.0 52.9 Q-208.0 52.9 -208.0 42.9 L-208.0 16.9 Q-208.0 6.9 -198.0 6.9" fill="#ffffff" fill-rule="evenodd" stroke="none"/>
    <path d="M-198.0 6.9 L70.0 6.9 Q80.0 6.9 80.0 16.9 L80.0 42.9 Q80.0 52.9 70.0 52.9 L-198.0 52.9 Q-208.0 52.9 -208.0 42.9 L-208.0 16.9 Q-208.0 6.9 -198.0 6.9 Z" fill="none" stroke="#70d801" stroke-linecap="round" stroke-linejoin="round" stroke-width="1.7000000000000002"/>
  </g>
</svg>
