<?xml version="1.0" encoding="UTF-8" standalone="no"?>
<svg xmlns:ffdec="https://www.free-decompiler.com/flash" xmlns:xlink="http://www.w3.org/1999/xlink" ffdec:objectType="shape" height="139.1px" width="127.0px" xmlns="http://www.w3.org/2000/svg">
  <g transform="matrix(1.0, 0.0, 0.0, 1.0, -25.5, -7.45)">
    <path d="M111.05 93.0 L110.35 93.75 150.3 133.75 Q152.5 135.95 152.5 139.1 152.5 142.15 150.3 144.35 148.05 146.55 145.0 146.55 141.9 146.55 139.7 144.35 L98.0 102.6 Q87.85 107.7 75.6 107.7 54.85 107.7 40.15 93.0 25.5 78.35 25.5 57.6 25.5 36.8 40.15 22.1 54.85 7.45 75.6 7.45 96.35 7.45 111.05 22.1 125.75 36.8 125.75 57.55 125.75 78.35 111.05 93.0" fill="#000000" fill-opacity="0.2" fill-rule="evenodd" stroke="none"/>
  </g>
</svg>
