<?xml version="1.0" encoding="UTF-8" standalone="no"?>
<svg xmlns:ffdec="https://www.free-decompiler.com/flash" xmlns:xlink="http://www.w3.org/1999/xlink" ffdec:objectType="shape" height="386.85px" width="427.05px" xmlns="http://www.w3.org/2000/svg">
  <g transform="matrix(1.0, 0.0, 0.0, 1.0, 417.05, 311.45)">
    <path d="M-394.05 -303.45 L-8.5 -303.45 Q6.5 -303.45 6.5 -288.45 L6.5 56.9 Q6.5 71.9 -8.5 71.9 L-394.05 71.9 Q-409.05 71.9 -409.05 56.9 L-409.05 -288.45 Q-409.05 -303.45 -394.05 -303.45 Z" fill="none" stroke="#000033" stroke-linecap="round" stroke-linejoin="round" stroke-opacity="0.2" stroke-width="7.0"/>
    <path d="M-413.55 -292.95 Q-413.55 -307.95 -398.55 -307.95 L-13.0 -307.95 Q2.0 -307.95 2.0 -292.95 L2.0 52.4 Q2.0 67.4 -13.0 67.4 L-398.55 67.4 Q-413.55 67.4 -413.55 52.4 L-413.55 -292.95" fill="#f7ffff" fill-rule="evenodd" stroke="none"/>
    <path d="M-413.55 -292.95 L-413.55 52.4 Q-413.55 67.4 -398.55 67.4 L-13.0 67.4 Q2.0 67.4 2.0 52.4 L2.0 -292.95 Q2.0 -307.95 -13.0 -307.95 L-398.55 -307.95 Q-413.55 -307.95 -413.55 -292.95 Z" fill="none" stroke="#70d801" stroke-linecap="round" stroke-linejoin="round" stroke-width="7.0"/>
    <path d="M-396.75 -305.95 L-15.0 -305.95 Q0.0 -305.95 0.0 -290.95 L0.0 48.8 Q0.0 63.8 -15.0 63.8 L-396.75 63.8 Q-411.75 63.8 -411.75 48.8 L-411.75 -290.95 Q-411.75 -305.95 -396.75 -305.95 Z" fill="none" stroke="#6bc414" stroke-linecap="round" stroke-linejoin="round" stroke-width="3.0"/>
    <path d="M-398.7 -308.4 L-13.15 -308.4 Q1.85 -308.4 1.85 -293.4 L1.85 51.95 Q1.85 66.95 -13.15 66.95 L-398.7 66.95 Q-413.7 66.95 -413.7 51.95 L-413.7 -293.4 Q-413.7 -308.4 -398.7 -308.4 Z" fill="none" stroke="#bdff76" stroke-linecap="round" stroke-linejoin="round" stroke-width="3.0"/>
    <path d="M0.95 -294.3 L0.95 -295.55 M0.95 51.05 L0.95 -294.3 M-374.55 -309.3 L-399.6 -309.3 Q-414.6 -309.3 -414.6 -294.3 L-414.6 51.05 Q-414.6 66.05 -399.6 66.05 L-398.0 66.05 M-353.55 -309.3 L-364.8 -309.3 M-349.05 -309.3 L-14.05 -309.3 M-383.95 66.05 L-386.2 66.05 M-372.4 66.05 L-14.05 66.05 Q0.95 66.05 0.95 51.05" fill="none" stroke="#ffffff" stroke-linecap="round" stroke-linejoin="round" stroke-width="1.5"/>
    <path d="M1.25 -300.35 Q0.65 -300.0 -0.25 -300.55 -1.15 -301.15 -1.8 -302.3 -2.5 -303.45 -2.55 -304.55 -2.6 -305.6 -2.0 -305.95 L-0.45 -305.75 Q0.4 -305.15 1.1 -304.0 1.75 -302.85 1.85 -301.75 1.85 -300.7 1.25 -300.35 M-4.8 -306.8 L-6.6 -306.9 Q-7.7 -307.2 -8.3 -307.75 -9.0 -308.25 -8.85 -308.65 -8.75 -309.1 -7.9 -309.25 L-6.05 -309.05 -4.4 -308.3 Q-3.75 -307.75 -3.85 -307.3 -4.0 -306.9 -4.8 -306.8" fill="#ffffff" fill-rule="evenodd" stroke="none"/>
  </g>
</svg>
