<?xml version="1.0" encoding="UTF-8" standalone="no"?>
<svg xmlns:ffdec="https://www.free-decompiler.com/flash" xmlns:xlink="http://www.w3.org/1999/xlink" ffdec:objectType="shape" height="21.1px" width="21.15px" xmlns="http://www.w3.org/2000/svg">
  <g transform="matrix(1.0, 0.0, 0.0, 1.0, 0.5, 0.5)">
    <path d="M16.65 10.05 Q16.65 7.35 14.7 5.4 12.85 3.5 10.05 3.5 7.4 3.5 5.45 5.4 3.5 7.35 3.5 10.05 3.5 12.85 5.45 14.7 7.4 16.6 10.05 16.6 12.85 16.6 14.7 14.7 16.65 12.85 16.65 10.05 16.65 12.85 14.7 14.7 12.85 16.6 10.05 16.6 7.4 16.6 5.45 14.7 3.5 12.85 3.5 10.05 3.5 7.35 5.45 5.4 7.4 3.5 10.05 3.5 12.85 3.5 14.7 5.4 16.65 7.35 16.65 10.05 M17.2 2.95 Q20.15 5.95 20.15 10.05 20.1 14.3 17.2 17.15 L17.1 17.25 Q14.3 20.1 10.05 20.1 6.0 20.1 3.05 17.25 L3.0 17.2 Q0.05 14.35 0.0 10.05 0.0 5.9 3.0 2.95 L3.0 2.9 Q6.0 0.0 10.05 0.0 14.35 0.0 17.2 2.95 M12.25 7.9 L12.2 7.85 Q11.35 7.0 10.05 7.0 8.85 7.0 7.95 7.9 L7.9 7.9 7.85 7.95 Q7.0 8.85 7.0 10.05 L7.0 10.4 Q7.1 11.45 7.85 12.15 L7.9 12.2 Q8.8 13.1 10.05 13.1 11.35 13.1 12.2 12.25 L12.3 12.15 Q13.2 11.3 13.15 10.05 13.15 8.8 12.25 7.9" fill="#1bad1b" fill-rule="evenodd" stroke="none"/>
    <path d="M12.25 7.9 Q13.15 8.8 13.15 10.05 13.2 11.3 12.3 12.15 L12.2 12.25 Q11.35 13.1 10.05 13.1 8.8 13.1 7.9 12.2 L7.85 12.15 Q7.1 11.45 7.0 10.4 L7.0 10.05 Q7.0 8.85 7.85 7.95 L7.9 7.9 7.95 7.9 Q8.85 7.0 10.05 7.0 11.35 7.0 12.2 7.85 L12.25 7.9" fill="url(#gradient0)" fill-rule="evenodd" stroke="none"/>
    <path d="M17.2 2.95 Q14.35 0.0 10.05 0.0 6.0 0.0 3.0 2.9 L3.0 2.95 Q0.0 5.9 0.0 10.05 0.05 14.35 3.0 17.2 L3.05 17.25 Q6.0 20.1 10.05 20.1 14.3 20.1 17.1 17.25 L17.2 17.15 Q20.1 14.3 20.15 10.05 20.15 5.95 17.2 2.95" fill="none" stroke="#003f00" stroke-linecap="round" stroke-linejoin="round" stroke-width="1.0"/>
    <path d="M16.65 10.05 Q16.65 12.85 14.7 14.7 12.85 16.6 10.05 16.6 7.4 16.6 5.45 14.7 3.5 12.85 3.5 10.05 3.5 7.35 5.45 5.4 7.4 3.5 10.05 3.5 12.85 3.5 14.7 5.4 16.65 7.35 16.65 10.05 Z" fill="none" stroke="#1bad1b" stroke-linecap="round" stroke-linejoin="round" stroke-width="7.0"/>
  </g>
  <defs>
    <radialGradient cx="0" cy="0" gradientTransform="matrix(0.0088, 0.0, 0.0, 0.0088, 8.6, 8.1)" gradientUnits="userSpaceOnUse" id="gradient0" r="819.2" spreadMethod="pad">
      <stop offset="0.42745098039215684" stop-color="#83e075"/>
      <stop offset="0.7647058823529411" stop-color="#1fb60a"/>
    </radialGradient>
  </defs>
</svg>
