<?xml version="1.0" encoding="UTF-8" standalone="no"?>
<svg xmlns:ffdec="https://www.free-decompiler.com/flash" xmlns:xlink="http://www.w3.org/1999/xlink" ffdec:objectType="shape" height="147.55px" width="171.25px" xmlns="http://www.w3.org/2000/svg">
  <g transform="matrix(1.0, 0.0, 0.0, 1.0, 85.6, 73.75)">
    <path d="M5.65 -64.5 L16.65 -73.75 40.15 -73.75 Q57.35 -63.7 63.9 -53.0 83.85 -48.1 84.65 -37.75 L85.65 29.5 74.9 40.5 74.9 -28.0 Q72.35 -37.45 53.15 -43.5 59.4 -21.7 61.25 -7.1 53.25 -30.6 37.15 -30.75 L30.4 -35.8 49.4 -54.25 Q30.5 -71.2 5.65 -64.5" fill="#333333" fill-rule="evenodd" stroke="none"/>
    <path d="M30.4 -35.8 L37.15 -30.75 23.95 -31.6 Q57.6 -8.55 42.5 33.25 43.55 29.1 43.95 24.55 45.7 5.1 33.25 -11.4 20.75 -27.8 1.5 -31.45 -13.6 -34.3 -25.9 -27.95 L-17.5 -34.3 -24.6 -34.75 -23.45 -36.0 -23.0 -36.5 -22.5 -37.05 Q-1.95 -58.15 30.4 -35.8 M61.25 -7.1 Q59.4 -21.7 53.15 -43.5 72.35 -37.45 74.9 -28.0 L74.9 40.5 40.4 39.35 42.0 34.95 Q54.7 27.15 60.4 15.0 63.1 7.75 61.25 -7.1 M21.9 58.95 L20.5 60.55 15.1 65.35 Q0.4 76.55 -18.85 72.9 -38.05 69.25 -50.5 52.8 -54.95 46.9 -57.6 40.6 -62.3 29.35 -61.25 16.9 -59.7 -1.7 -46.3 -12.8 L-46.1 -12.95 -42.85 -15.35 Q-28.85 -24.85 -11.0 -21.45 8.25 -17.8 20.75 -1.4 33.2 15.1 31.45 34.55 30.25 49.05 21.9 58.95 M-31.55 -60.75 L-31.55 -63.1 Q-31.25 -61.5 -27.6 -60.3 L-25.65 -59.75 Q-22.25 -59.0 -17.85 -59.0 L-10.05 -59.75 -8.15 -60.3 Q-4.15 -61.6 -4.1 -63.35 L-4.1 -56.15 -7.4 -53.3 -8.15 -53.05 Q-12.15 -51.75 -17.85 -51.75 -23.55 -51.75 -27.6 -53.05 -31.15 -54.2 -31.55 -55.75 L-31.55 -56.5 -31.55 -60.75 M19.95 32.4 Q21.3 17.75 11.95 5.35 2.55 -7.0 -11.95 -9.75 -26.35 -12.5 -37.45 -4.05 -48.5 4.4 -49.75 19.1 -51.0 33.75 -41.65 46.1 -32.3 58.45 -17.85 61.2 -3.4 63.95 7.65 55.55 18.75 47.1 19.95 32.4" fill="#000000" fill-rule="evenodd" stroke="none"/>
    <path d="M37.15 -30.75 Q53.25 -30.6 61.25 -7.1 63.1 7.75 60.4 15.0 54.7 27.15 42.0 34.95 L40.4 39.35 21.9 58.95 Q30.25 49.05 31.45 34.55 33.2 15.1 20.75 -1.4 8.25 -17.8 -11.0 -21.45 -28.85 -24.85 -42.85 -15.35 L-25.9 -27.95 Q-13.6 -34.3 1.5 -31.45 20.75 -27.8 33.25 -11.4 45.7 5.1 43.95 24.55 43.55 29.1 42.5 33.25 57.6 -8.55 23.95 -31.6 L37.15 -30.75" fill="url(#gradient0)" fill-rule="evenodd" stroke="none"/>
    <path d="M-31.55 -63.1 L-31.55 -63.7 Q-31.25 -65.3 -27.6 -66.5 -23.55 -67.8 -17.85 -67.8 -12.15 -67.8 -8.15 -66.5 -4.1 -65.2 -4.1 -63.4 L-4.1 -63.35 Q-4.15 -61.6 -8.15 -60.3 L-10.05 -59.75 -17.85 -59.0 Q-22.25 -59.0 -25.65 -59.75 L-27.6 -60.3 Q-31.25 -61.5 -31.55 -63.1" fill="#999999" fill-rule="evenodd" stroke="none"/>
    <path d="M-85.6 -41.5 Q-68.9 -65.65 -31.55 -60.75 L-31.55 -56.5 -31.6 -56.15 -31.55 -55.75 Q-31.15 -54.2 -27.6 -53.05 -23.55 -51.75 -17.85 -51.75 -12.15 -51.75 -8.15 -53.05 L-7.4 -53.3 -12.2 -48.15 -41.1 -49.0 Q-49.1 -48.95 -57.1 -39.25 -76.75 -32.05 -85.6 -41.5" fill="#666666" fill-rule="evenodd" stroke="none"/>
    <path d="M-57.6 40.6 Q-82.8 42.35 -84.6 30.5 L-85.6 -41.5 Q-76.75 -32.05 -57.1 -39.25 -49.1 -48.95 -41.1 -49.0 L-12.2 -48.15 -22.5 -37.05 -23.0 -36.5 -23.45 -36.0 -24.6 -34.75 -17.5 -34.3 -25.9 -27.95 -42.85 -15.35 -44.9 -13.9 -46.1 -12.95 -46.3 -12.8 Q-59.7 -1.7 -61.25 16.9 -62.3 29.35 -57.6 40.6" fill="url(#gradient1)" fill-rule="evenodd" stroke="none"/>
    <path d="M5.65 -64.5 Q30.5 -71.2 49.4 -54.25 L30.4 -35.8 Q-1.95 -58.15 -22.5 -37.05 L-12.2 -48.15 -7.4 -53.3 -4.1 -56.15 5.65 -64.5" fill="url(#gradient2)" fill-rule="evenodd" stroke="none"/>
    <path d="M19.95 32.4 Q18.75 47.1 7.65 55.55 -3.4 63.95 -17.85 61.2 -32.3 58.45 -41.65 46.1 -51.0 33.75 -49.75 19.1 -48.5 4.4 -37.45 -4.05 -26.35 -12.5 -11.95 -9.75 2.55 -7.0 11.95 5.35 21.3 17.75 19.95 32.4 M-37.9 15.5 Q-38.75 18.1 -39.0 21.1 -39.9 31.25 -33.45 39.8 -27.0 48.25 -17.1 50.2 -27.0 48.25 -33.45 39.8 -39.9 31.25 -39.0 21.1 -38.75 18.1 -37.9 15.5 M-6.6 3.15 Q-9.55 1.8 -12.85 1.15 -22.85 -0.75 -30.5 5.1 -32.7 6.8 -34.35 8.85 -32.7 6.8 -30.5 5.1 -22.85 -0.75 -12.85 1.15 -9.55 1.8 -6.6 3.15" fill="url(#gradient3)" fill-rule="evenodd" stroke="none"/>
    <path d="M-34.35 8.85 Q-32.7 6.8 -30.5 5.1 -22.85 -0.75 -12.85 1.15 -9.55 1.8 -6.6 3.15 M-17.1 50.2 Q-27.0 48.25 -33.45 39.8 -39.9 31.25 -39.0 21.1 -38.75 18.1 -37.9 15.5" fill="none" stroke="#ffffff" stroke-linecap="round" stroke-linejoin="round" stroke-width="4.0"/>
  </g>
  <defs>
    <linearGradient gradientTransform="matrix(0.0413, 0.0414, -0.0469, 0.0467, 23.65, -13.8)" gradientUnits="userSpaceOnUse" id="gradient0" spreadMethod="pad" x1="-819.2" x2="819.2">
      <stop offset="0.0" stop-color="#333333"/>
      <stop offset="0.5333333333333333" stop-color="#8c8c8c"/>
      <stop offset="1.0" stop-color="#373737"/>
    </linearGradient>
    <linearGradient gradientTransform="matrix(0.0448, 0.0, 0.0, 0.0548, -48.9, -4.1)" gradientUnits="userSpaceOnUse" id="gradient1" spreadMethod="pad" x1="-819.2" x2="819.2">
      <stop offset="0.0" stop-color="#000000"/>
      <stop offset="0.5333333333333333" stop-color="#6a6a6a"/>
      <stop offset="1.0" stop-color="#000000"/>
    </linearGradient>
    <linearGradient gradientTransform="matrix(0.0253, 0.0253, -0.7071, 0.7071, 136.7, -165.85)" gradientUnits="userSpaceOnUse" id="gradient2" spreadMethod="pad" x1="-819.2" x2="819.2">
      <stop offset="0.0" stop-color="#333333"/>
      <stop offset="0.5333333333333333" stop-color="#8c8c8c"/>
      <stop offset="1.0" stop-color="#373737"/>
    </linearGradient>
    <radialGradient cx="0" cy="0" gradientTransform="matrix(0.0415, 0.0, 0.0, 0.0415, -20.15, 20.75)" gradientUnits="userSpaceOnUse" id="gradient3" r="819.2" spreadMethod="pad">
      <stop offset="0.27450980392156865" stop-color="#dddddd"/>
      <stop offset="1.0" stop-color="#7b7b7b"/>
    </radialGradient>
  </defs>
</svg>
