<?xml version="1.0" encoding="UTF-8" standalone="no"?>
<svg xmlns:ffdec="https://www.free-decompiler.com/flash" xmlns:xlink="http://www.w3.org/1999/xlink" ffdec:objectType="shape" height="232.1px" width="236.35px" xmlns="http://www.w3.org/2000/svg">
  <g transform="matrix(1.0, 0.0, 0.0, 1.0, 3.35, 0.05)">
    <path d="M8.4 178.85 Q11.25 126.75 0.0 0.95 L232.0 0.95 232.0 39.8 Q230.25 48.9 225.75 52.4 L225.55 52.6 225.25 52.8 -2.35 215.55 Q6.1 209.1 8.35 179.3 L8.55 179.05 8.4 178.85" fill="url(#gradient0)" fill-rule="evenodd" stroke="none"/>
    <path d="M8.35 179.3 L8.4 178.85 8.55 179.05 8.35 179.3" fill="url(#gradient1)" fill-rule="evenodd" stroke="none"/>
    <path d="M230.1 220.45 L230.65 219.7 230.2 220.35 230.1 220.45" fill="url(#gradient2)" fill-rule="evenodd" stroke="none"/>
    <path d="M220.85 217.95 L221.8 217.8 221.55 217.9 221.45 217.9 220.85 217.95" fill="url(#gradient3)" fill-rule="evenodd" stroke="none"/>
    <path d="M206.1 232.05 L206.55 231.4 206.2 232.05 206.1 232.05" fill="url(#gradient4)" fill-rule="evenodd" stroke="none"/>
    <path d="M8.4 178.85 Q11.25 126.75 0.0 0.95 L232.0 0.95 232.0 39.8 Q230.25 48.9 225.75 52.4 L225.55 52.6 225.25 52.8 -2.35 215.55 Q6.1 209.1 8.35 179.3 L8.4 178.85 M8.55 179.05 L8.35 179.3" fill="none" stroke="#d58611" stroke-linecap="round" stroke-linejoin="round" stroke-width="2.0"/>
    <path d="M182.25 58.0 L188.65 58.0 182.25 58.0 M218.2 58.0 L188.65 58.0 16.05 170.3 Q16.1 94.35 9.0 35.0 L224.0 35.0 Q223.85 49.7 218.2 58.0" fill="#ffffff" fill-rule="evenodd" stroke="none"/>
    <path d="M188.65 58.0 L182.25 58.0 M16.05 170.3 Q16.1 94.35 9.0 35.0 L224.0 35.0 Q223.85 49.7 218.2 58.0" fill="none" stroke="#333333" stroke-linecap="round" stroke-linejoin="round" stroke-width="1.0"/>
    <path d="M190.8 58.0 L21.05 163.7 Q21.2 93.3 15.4 41.0 L218.1 41.0 Q218.05 50.95 214.05 58.0 L190.8 58.0" fill="url(#gradient5)" fill-rule="evenodd" stroke="none"/>
  </g>
  <defs>
    <radialGradient cx="0" cy="0" gradientTransform="matrix(0.2651, 0.0, 0.0, 0.3029, 121.25, 121.8)" gradientUnits="userSpaceOnUse" id="gradient0" r="819.2" spreadMethod="pad">
      <stop offset="0.0" stop-color="#fbe6c8"/>
      <stop offset="0.44313725490196076" stop-color="#f4c279"/>
      <stop offset="0.615686274509804" stop-color="#ed9b23"/>
      <stop offset="0.8470588235294118" stop-color="#ed9b23"/>
    </radialGradient>
    <linearGradient gradientTransform="matrix(0.0865, 0.0, 0.0, 0.1089, 70.9, 90.15)" gradientUnits="userSpaceOnUse" id="gradient1" spreadMethod="pad" x1="-819.2" x2="819.2">
      <stop offset="0.0" stop-color="#fbe6c8"/>
      <stop offset="0.6627450980392157" stop-color="#f4c279"/>
      <stop offset="1.0" stop-color="#d58611"/>
    </linearGradient>
    <linearGradient gradientTransform="matrix(4.0E-4, 0.0, 0.0, 5.0E-4, 230.35, 220.1)" gradientUnits="userSpaceOnUse" id="gradient2" spreadMethod="pad" x1="-819.2" x2="819.2">
      <stop offset="0.0" stop-color="#fbe6c8"/>
      <stop offset="0.6627450980392157" stop-color="#f4c279"/>
      <stop offset="1.0" stop-color="#d58611"/>
    </linearGradient>
    <linearGradient gradientTransform="matrix(6.0E-4, 0.0, 0.0, 1.0E-4, 221.3, 217.9)" gradientUnits="userSpaceOnUse" id="gradient3" spreadMethod="pad" x1="-819.2" x2="819.2">
      <stop offset="0.0" stop-color="#fbe6c8"/>
      <stop offset="0.6627450980392157" stop-color="#f4c279"/>
      <stop offset="1.0" stop-color="#d58611"/>
    </linearGradient>
    <linearGradient gradientTransform="matrix(3.0E-4, 0.0, 0.0, 4.0E-4, 206.3, 231.7)" gradientUnits="userSpaceOnUse" id="gradient4" spreadMethod="pad" x1="-819.2" x2="819.2">
      <stop offset="0.0" stop-color="#fbe6c8"/>
      <stop offset="0.6627450980392157" stop-color="#f4c279"/>
      <stop offset="1.0" stop-color="#d58611"/>
    </linearGradient>
    <radialGradient cx="0" cy="0" gradientTransform="matrix(0.226, 0.0, 0.0, 0.1812, 120.0, 119.0)" gradientUnits="userSpaceOnUse" id="gradient5" r="819.2" spreadMethod="pad">
      <stop offset="0.07058823529411765" stop-color="#cdf5d5"/>
      <stop offset="0.9294117647058824" stop-color="#58752d"/>
    </radialGradient>
  </defs>
</svg>
