<?xml version="1.0" encoding="UTF-8" standalone="no"?>
<svg xmlns:ffdec="https://www.free-decompiler.com/flash" xmlns:xlink="http://www.w3.org/1999/xlink" ffdec:objectType="shape" height="25.3px" width="18.9px" xmlns="http://www.w3.org/2000/svg">
  <g transform="matrix(1.0, 0.0, 0.0, 1.0, -1.3, -1.75)">
    <path d="M17.65 3.3 Q17.65 4.05 16.7 5.7 L14.95 8.05 Q14.3 8.7 12.95 10.75 11.65 12.7 11.25 13.65 11.25 14.05 14.45 16.75 17.65 19.4 18.15 19.4 L18.6 19.3 Q18.85 19.15 19.05 19.15 19.55 19.15 19.9 19.7 20.2 20.25 20.2 21.35 20.2 22.15 19.7 22.8 19.15 23.4 18.25 23.4 17.3 23.4 14.1 20.8 10.85 18.2 9.4 16.5 L8.7 17.85 Q8.15 18.95 7.5 21.3 6.8 23.75 6.75 24.55 6.95 24.4 7.3 24.4 7.5 24.4 7.7 24.65 L7.9 25.2 Q7.9 25.55 6.3 26.25 L5.45 26.65 Q4.95 27.05 4.45 27.05 4.0 27.05 3.65 26.7 3.3 26.35 3.3 25.9 3.3 21.9 6.95 14.2 L5.05 11.75 2.85 9.25 1.75 8.05 Q1.3 7.4 1.3 6.9 1.3 6.2 1.8 5.65 2.3 5.1 3.0 5.1 3.6 5.1 4.45 5.8 L7.25 8.95 9.25 11.35 10.15 9.65 11.8 7.3 Q13.05 5.75 14.55 2.85 14.95 1.75 16.4 1.75 17.65 1.75 17.65 3.3" fill="#ff0000" fill-rule="evenodd" stroke="none"/>
  </g>
</svg>
