<?xml version="1.0" encoding="UTF-8" standalone="no"?>
<svg xmlns:ffdec="https://www.free-decompiler.com/flash" xmlns:xlink="http://www.w3.org/1999/xlink" ffdec:objectType="shape" height="22.15px" width="22.15px" xmlns="http://www.w3.org/2000/svg">
  <g transform="matrix(1.0, 0.0, 0.0, 1.0, -0.7, -0.7)">
    <path d="M21.25 16.5 Q20.5 18.0 19.25 19.25 16.15 22.35 11.75 22.35 7.4 22.35 4.3 19.25 3.05 18.0 2.3 16.5 1.2 14.35 1.2 11.75 1.2 7.4 4.3 4.3 7.4 1.2 11.75 1.2 16.15 1.2 19.25 4.3 22.35 7.4 22.35 11.75 22.35 14.35 21.25 16.5" fill="#ffff00" fill-rule="evenodd" stroke="none"/>
    <path d="M21.25 16.5 Q20.5 18.0 19.25 19.25 16.15 22.35 11.75 22.35 7.4 22.35 4.3 19.25 3.05 18.0 2.3 16.5 1.2 14.35 1.2 11.75 1.2 7.4 4.3 4.3 7.4 1.2 11.75 1.2 16.15 1.2 19.25 4.3 22.35 7.4 22.35 11.75 22.35 14.35 21.25 16.5 Z" fill="none" stroke="#ff9900" stroke-linecap="round" stroke-linejoin="round" stroke-width="1.0"/>
  </g>
</svg>
