<?xml version="1.0" encoding="UTF-8" standalone="no"?>
<svg xmlns:ffdec="https://www.free-decompiler.com/flash" xmlns:xlink="http://www.w3.org/1999/xlink" ffdec:objectType="shape" height="23.8px" width="23.8px" xmlns="http://www.w3.org/2000/svg">
  <g transform="matrix(1.0, 0.0, 0.0, 1.0, 0.0, 0.0)">
    <path d="M23.8 11.9 L23.8 12.5 Q23.6 17.05 20.3 20.35 L19.7 20.95 19.15 21.4 17.2 22.65 Q14.8 23.8 11.9 23.8 6.95 23.8 3.45 20.35 0.7 17.55 0.15 13.8 L0.0 11.9 0.0 11.8 Q0.05 6.9 3.45 3.5 L4.5 2.55 Q5.55 1.7 6.7 1.15 8.0 0.5 9.45 0.25 L11.9 0.0 Q16.85 0.0 20.3 3.5 22.95 6.1 23.6 9.55 L23.8 11.9" fill="#ff0000" fill-rule="evenodd" stroke="none"/>
  </g>
</svg>
