<?xml version="1.0" encoding="UTF-8" standalone="no"?>
<svg xmlns:ffdec="https://www.free-decompiler.com/flash" xmlns:xlink="http://www.w3.org/1999/xlink" ffdec:objectType="shape" height="26.4px" width="26.4px" xmlns="http://www.w3.org/2000/svg">
  <g transform="matrix(1.0, 0.0, 0.0, 1.0, 0.0, 0.0)">
    <path d="M22.55 22.6 Q18.7 26.4 13.2 26.4 7.7 26.4 3.85 22.6 0.0 18.7 0.0 13.2 0.0 7.7 3.85 3.9 7.7 0.0 13.2 0.0 18.7 0.0 22.55 3.9 26.4 7.7 26.4 13.2 26.4 18.7 22.55 22.6" fill="#003c00" fill-rule="evenodd" stroke="none"/>
    <path d="M24.7 15.8 L24.85 14.1 24.85 13.5 24.65 11.15 Q24.0 7.7 21.35 5.1 17.9 1.6 12.95 1.6 L10.5 1.85 Q9.25 2.05 8.15 2.6 L7.1 3.2 7.55 2.85 8.0 2.55 Q9.3 1.9 10.75 1.65 L13.2 1.4 Q18.15 1.4 21.6 4.9 24.25 7.5 24.9 10.95 L25.1 13.3 25.1 13.9 24.95 14.8 24.7 15.8" fill="#00cc00" fill-rule="evenodd" stroke="none"/>
    <path d="M7.1 3.2 L8.15 2.6 Q9.25 2.05 10.5 1.85 L12.95 1.6 Q17.9 1.6 21.35 5.1 24.0 7.7 24.65 11.15 L24.85 13.5 24.85 14.1 24.7 15.8 23.25 18.65 23.1 18.85 23.2 18.55 23.85 16.35 23.55 17.25 23.8 14.8 Q23.8 10.1 20.5 6.85 17.2 3.5 12.5 3.5 7.8 3.5 4.5 6.85 L3.9 7.5 5.3 5.8 6.0 5.15 Q8.9 2.95 12.7 2.95 17.4 2.95 20.7 6.3 24.0 9.55 24.0 14.25 L23.85 16.35 24.15 13.6 Q24.15 9.0 20.9 5.8 17.7 2.55 13.15 2.55 9.05 2.55 6.0 5.15 L4.7 6.3 3.5 7.7 3.75 7.15 Q4.55 5.6 5.9 4.25 6.45 3.65 7.1 3.2" fill="#18ee18" fill-rule="evenodd" stroke="none"/>
    <path d="M24.95 14.8 L25.1 13.9 Q24.9 18.45 21.6 21.75 L21.0 22.35 20.45 22.8 18.5 24.05 Q16.1 25.2 13.2 25.2 8.25 25.2 4.75 21.75 2.0 18.95 1.45 15.2 L1.3 13.3 1.3 13.2 Q1.35 8.3 4.75 4.9 L5.8 3.95 Q6.85 3.1 8.0 2.55 L7.55 2.85 7.1 3.2 Q6.05 3.85 5.15 4.8 2.65 7.25 2.0 10.5 L2.0 10.55 Q1.75 11.7 1.75 13.0 1.75 14.65 2.15 16.15 2.9 19.0 5.15 21.25 L5.3 21.4 Q7.35 23.4 10.0 24.2 L10.75 24.4 13.4 24.65 17.15 24.1 Q19.6 23.3 21.55 21.35 L21.65 21.25 22.25 20.65 Q23.65 19.05 24.35 17.15 L24.95 14.8" fill="#006600" fill-rule="evenodd" stroke="none"/>
    <path d="M24.7 15.8 L24.95 14.8 24.35 17.15 Q23.65 19.05 22.25 20.65 L21.65 21.25 21.55 21.35 Q19.6 23.3 17.15 24.1 L13.4 24.65 10.75 24.4 10.0 24.2 Q7.35 23.4 5.3 21.4 L5.15 21.25 Q2.9 19.0 2.15 16.15 1.75 14.65 1.75 13.0 1.75 11.7 2.0 10.55 L2.0 10.5 Q2.65 7.25 5.15 4.8 6.05 3.85 7.1 3.2 6.45 3.65 5.9 4.25 4.55 5.6 3.75 7.15 L3.5 7.7 3.25 8.3 3.0 9.15 Q2.6 10.6 2.6 12.2 2.6 16.9 5.9 20.25 9.2 23.5 13.9 23.5 18.6 23.5 21.9 20.25 L22.0 20.2 23.05 18.9 23.1 18.85 23.25 18.65 24.7 15.8" fill="#009300" fill-rule="evenodd" stroke="none"/>
    <path d="M3.5 7.7 L4.7 6.3 6.0 5.15 5.3 5.8 3.9 7.5 4.5 6.85 Q7.8 3.5 12.5 3.5 17.2 3.5 20.5 6.85 23.8 10.1 23.8 14.8 L23.55 17.25 23.85 16.35 23.2 18.55 23.1 18.85 23.05 18.9 22.0 20.2 21.9 20.25 Q18.6 23.5 13.9 23.5 9.2 23.5 5.9 20.25 2.6 16.9 2.6 12.2 2.6 10.6 3.0 9.15 L3.25 8.3 3.5 7.7" fill="url(#gradient0)" fill-rule="evenodd" stroke="none"/>
    <path d="M6.0 5.15 Q9.05 2.55 13.15 2.55 17.7 2.55 20.9 5.8 24.15 9.0 24.15 13.6 L23.85 16.35 24.0 14.25 Q24.0 9.55 20.7 6.3 17.4 2.95 12.7 2.95 8.9 2.95 6.0 5.15" fill="#7bff7b" fill-rule="evenodd" stroke="none"/>
  </g>
  <defs>
    <radialGradient cx="0" cy="0" gradientTransform="matrix(0.0209, 0.0, 0.0, 0.0209, 15.35, 5.75)" gradientUnits="userSpaceOnUse" id="gradient0" r="819.2" spreadMethod="pad">
      <stop offset="0.4588235294117647" stop-color="#06d706"/>
      <stop offset="1.0" stop-color="#00af00"/>
    </radialGradient>
  </defs>
</svg>
