<?xml version="1.0" encoding="UTF-8" standalone="no"?>
<svg xmlns:ffdec="https://www.free-decompiler.com/flash" xmlns:xlink="http://www.w3.org/1999/xlink" ffdec:objectType="shape" height="16.55px" width="60.8px" xmlns="http://www.w3.org/2000/svg">
  <g transform="matrix(1.0, 0.0, 0.0, 1.0, -78.3, -68.05)">
    <path d="M136.75 78.35 L137.55 79.2 137.85 80.3 137.5 81.5 Q137.2 82.0 136.65 82.25 L135.4 82.5 Q134.2 82.5 133.5 81.9 132.85 81.3 132.8 80.25 132.8 79.3 133.45 78.7 134.1 78.1 135.35 78.05 L136.75 78.35 M133.35 73.5 L133.05 69.0 133.7 69.05 135.4 69.05 137.6 69.05 137.45 71.15 137.15 77.4 136.7 77.4 135.4 77.4 133.6 77.45 133.55 76.4 133.35 73.5 M125.75 72.85 L123.1 72.85 123.1 71.9 123.1 69.1 123.65 69.1 125.2 69.1 127.4 69.1 129.95 69.05 132.55 69.05 132.55 69.55 132.5 70.95 132.5 72.85 132.15 72.85 131.2 72.85 129.9 72.85 129.9 76.8 129.95 82.35 129.45 82.35 128.0 82.35 125.8 82.35 125.8 81.2 125.8 77.95 125.75 72.85 M90.75 72.85 L90.75 71.9 90.75 69.1 91.3 69.1 92.85 69.1 95.05 69.1 97.6 69.05 100.2 69.05 100.2 69.55 100.15 70.95 100.15 72.85 99.8 72.85 98.85 72.85 97.55 72.85 97.55 76.8 97.6 82.35 97.1 82.35 95.65 82.35 93.45 82.35 93.45 81.2 93.45 77.95 93.4 72.85 90.75 72.85 M84.1 72.85 Q84.1 73.45 84.65 73.85 85.15 74.25 86.3 74.5 87.85 74.85 88.8 75.35 L90.15 76.65 Q90.55 77.4 90.5 78.55 90.5 79.9 89.85 80.85 L87.95 82.2 85.1 82.6 Q82.35 82.6 81.0 81.3 79.6 80.0 79.55 77.6 L80.7 77.65 83.9 77.6 Q83.9 78.55 84.2 79.05 84.5 79.6 85.1 79.6 L85.8 79.35 86.05 78.6 85.85 77.95 85.1 77.45 83.6 76.95 81.45 76.1 Q80.6 75.55 80.15 74.7 79.7 73.9 79.7 72.65 79.75 71.35 80.4 70.45 81.05 69.6 82.2 69.2 L84.95 68.75 Q87.55 68.75 88.9 70.05 90.25 71.35 90.3 73.8 L89.75 73.75 88.25 73.7 86.1 73.65 Q86.15 72.65 85.85 72.25 85.6 71.8 85.05 71.8 84.6 71.8 84.35 72.05 84.1 72.35 84.1 72.85 M112.45 69.15 L114.6 68.8 116.55 68.7 Q119.6 68.7 121.2 70.0 122.8 71.25 122.8 73.65 122.8 75.05 122.25 75.95 L120.7 77.4 121.6 79.3 123.05 82.3 122.55 82.35 121.05 82.5 118.8 82.75 118.35 81.55 117.05 78.3 116.85 78.3 116.45 78.35 116.5 82.15 115.9 82.1 114.35 82.1 112.4 82.15 112.4 80.55 112.45 76.1 112.45 69.15 M116.35 72.0 L116.4 73.8 116.4 75.1 116.45 75.6 Q117.45 75.7 118.05 75.25 118.65 74.85 118.65 73.85 118.65 73.0 118.25 72.45 117.8 71.95 116.9 71.9 L116.65 71.95 116.35 72.0 M105.9 71.95 L105.55 74.1 105.1 77.45 106.75 77.45 105.9 71.95 M103.0 69.05 L105.3 69.0 107.25 68.95 108.6 68.95 109.1 68.95 109.3 70.05 109.9 73.0 110.75 77.35 111.85 82.6 111.2 82.6 109.6 82.6 107.45 82.6 107.4 82.1 107.15 80.55 106.1 80.55 104.7 80.5 104.5 82.0 103.9 82.0 102.4 82.0 100.35 82.0 100.55 81.05 101.1 78.35 101.95 74.3 103.0 69.05" fill="#4d0362" fill-rule="evenodd" stroke="none"/>
    <path d="M136.75 78.95 L137.55 79.8 137.85 80.9 137.5 82.1 Q137.2 82.6 136.65 82.85 L135.4 83.1 Q134.2 83.1 133.5 82.5 132.85 81.9 132.8 80.85 132.8 79.9 133.45 79.3 134.1 78.7 135.35 78.65 L136.75 78.95 M133.35 74.1 L133.05 69.6 133.7 69.65 135.4 69.65 137.6 69.65 137.45 71.75 137.15 78.0 136.7 78.0 135.4 78.0 133.6 78.05 133.55 77.0 133.35 74.1 M123.65 69.7 L125.2 69.7 127.4 69.7 129.95 69.65 132.55 69.65 132.55 70.15 132.5 71.55 132.5 73.45 132.15 73.45 131.2 73.45 129.9 73.45 129.9 77.4 129.95 82.95 129.45 82.95 128.0 82.95 125.8 82.95 125.8 81.8 125.8 78.55 125.75 73.45 123.1 73.45 123.1 72.5 123.1 69.7 123.65 69.7 M105.55 74.7 L105.1 78.05 106.75 78.05 105.9 72.55 105.55 74.7 M85.85 72.85 Q85.6 72.4 85.05 72.4 84.6 72.4 84.35 72.65 84.1 72.95 84.1 73.45 84.1 74.05 84.65 74.45 85.15 74.85 86.3 75.1 87.85 75.45 88.8 75.95 L90.15 77.25 Q90.55 78.0 90.5 79.15 90.5 80.5 89.85 81.45 L87.95 82.8 85.1 83.2 Q82.35 83.2 81.0 81.9 79.6 80.6 79.55 78.2 L80.7 78.25 83.9 78.2 Q83.9 79.15 84.2 79.65 84.5 80.2 85.1 80.2 L85.8 79.95 86.05 79.2 85.85 78.55 85.1 78.05 83.6 77.55 81.45 76.7 Q80.6 76.15 80.15 75.3 79.7 74.5 79.7 73.25 79.75 71.95 80.4 71.05 81.05 70.2 82.2 69.8 L84.95 69.35 Q87.55 69.35 88.9 70.65 90.25 71.95 90.3 74.4 L89.75 74.35 88.25 74.3 86.1 74.25 Q86.15 73.25 85.85 72.85 M90.75 73.45 L90.75 72.5 90.75 69.7 91.3 69.7 92.85 69.7 95.05 69.7 97.6 69.65 100.2 69.65 100.2 70.15 100.15 71.55 100.15 73.45 99.8 73.45 98.85 73.45 97.55 73.45 97.55 77.4 97.6 82.95 97.1 82.95 95.65 82.95 93.45 82.95 93.45 81.8 93.45 78.55 93.4 73.45 90.75 73.45 M114.6 69.4 L116.55 69.3 Q119.6 69.3 121.2 70.6 122.8 71.85 122.8 74.25 122.8 75.65 122.25 76.55 L120.7 78.0 121.6 79.9 123.05 82.9 122.55 82.95 121.05 83.1 118.8 83.35 118.35 82.15 117.05 78.9 116.85 78.9 116.45 78.95 116.5 82.75 115.9 82.7 114.35 82.7 112.4 82.75 112.4 81.15 112.45 76.7 112.45 69.75 114.6 69.4 M116.9 72.5 L116.65 72.55 116.35 72.6 116.4 74.4 116.4 75.7 116.45 76.2 Q117.45 76.3 118.05 75.85 118.65 75.45 118.65 74.45 118.65 73.6 118.25 73.05 117.8 72.55 116.9 72.5 M103.0 69.65 L105.3 69.6 107.25 69.55 108.6 69.55 109.1 69.55 109.3 70.65 109.9 73.6 110.75 77.95 111.85 83.2 111.2 83.2 109.6 83.2 107.45 83.2 107.4 82.7 107.15 81.15 106.1 81.15 104.7 81.1 104.5 82.6 103.9 82.6 102.4 82.6 100.35 82.6 100.55 81.65 101.1 78.95 101.95 74.9 103.0 69.65" fill="#e90808" fill-rule="evenodd" stroke="none"/>
    <path d="M103.0 69.65 L101.95 74.9 101.1 78.95 100.55 81.65 100.35 82.6 102.4 82.6 103.9 82.6 104.5 82.6 104.7 81.1 106.1 81.15 107.15 81.15 107.4 82.7 107.45 83.2 109.6 83.2 111.2 83.2 111.85 83.2 110.75 77.95 109.9 73.6 109.3 70.65 109.1 69.55 108.6 69.55 107.25 69.55 105.3 69.6 103.0 69.65 M116.9 72.5 Q117.8 72.55 118.25 73.05 118.65 73.6 118.65 74.45 118.65 75.45 118.05 75.85 117.45 76.3 116.45 76.2 L116.4 75.7 116.4 74.4 116.35 72.6 116.65 72.55 116.9 72.5 M114.6 69.4 L112.45 69.75 112.45 76.7 112.4 81.15 112.4 82.75 114.35 82.7 115.9 82.7 116.5 82.75 116.45 78.95 116.85 78.9 117.05 78.9 118.35 82.15 118.8 83.35 121.05 83.1 122.55 82.95 123.05 82.9 121.6 79.9 120.7 78.0 122.25 76.55 Q122.8 75.65 122.8 74.25 122.8 71.85 121.2 70.6 119.6 69.3 116.55 69.3 L114.6 69.4 M90.75 73.45 L93.4 73.45 93.45 78.55 93.45 81.8 93.45 82.95 95.65 82.95 97.1 82.95 97.6 82.95 97.55 77.4 97.55 73.45 98.85 73.45 99.8 73.45 100.15 73.45 100.15 71.55 100.2 70.15 100.2 69.65 97.6 69.65 95.05 69.7 92.85 69.7 91.3 69.7 90.75 69.7 90.75 72.5 90.75 73.45 M85.85 72.85 Q86.15 73.25 86.1 74.25 L88.25 74.3 89.75 74.35 90.3 74.4 Q90.25 71.95 88.9 70.65 87.55 69.35 84.95 69.35 L82.2 69.8 Q81.05 70.2 80.4 71.05 79.75 71.95 79.7 73.25 79.7 74.5 80.15 75.3 80.6 76.15 81.45 76.7 L83.6 77.55 85.1 78.05 85.85 78.55 86.05 79.2 85.8 79.95 85.1 80.2 Q84.5 80.2 84.2 79.65 83.9 79.15 83.9 78.2 L80.7 78.25 79.55 78.2 Q79.6 80.6 81.0 81.9 82.35 83.2 85.1 83.2 L87.95 82.8 89.85 81.45 Q90.5 80.5 90.5 79.15 90.55 78.0 90.15 77.25 L88.8 75.95 Q87.85 75.45 86.3 75.1 85.15 74.85 84.65 74.45 84.1 74.05 84.1 73.45 84.1 72.95 84.35 72.65 84.6 72.4 85.05 72.4 85.6 72.4 85.85 72.85 M105.55 74.7 L105.9 72.55 106.75 78.05 105.1 78.05 105.55 74.7 M123.65 69.7 L123.1 69.7 123.1 72.5 123.1 73.45 125.75 73.45 125.8 78.55 125.8 81.8 125.8 82.95 128.0 82.95 129.45 82.95 129.95 82.95 129.9 77.4 129.9 73.45 131.2 73.45 132.15 73.45 132.5 73.45 132.5 71.55 132.55 70.15 132.55 69.65 129.95 69.65 127.4 69.7 125.2 69.7 123.65 69.7 M133.35 74.1 L133.55 77.0 133.6 78.05 135.4 78.0 136.7 78.0 137.15 78.0 137.45 71.75 137.6 69.65 135.4 69.65 133.7 69.65 133.05 69.6 133.35 74.1 M136.75 78.95 L135.35 78.65 Q134.1 78.7 133.45 79.3 132.8 79.9 132.8 80.85 132.85 81.9 133.5 82.5 134.2 83.1 135.4 83.1 L136.65 82.85 Q137.2 82.6 137.5 82.1 L137.85 80.9 137.55 79.8 136.75 78.95 Z" fill="none" stroke="#5d0000" stroke-linecap="round" stroke-linejoin="round" stroke-width="2.5"/>
    <path d="M136.75 78.35 L137.55 79.2 137.85 80.3 137.5 81.5 Q137.2 82.0 136.65 82.25 L135.4 82.5 Q134.2 82.5 133.5 81.9 132.85 81.3 132.8 80.25 132.8 79.3 133.45 78.7 134.1 78.1 135.35 78.05 L136.75 78.35 M133.35 73.5 L133.05 69.0 133.7 69.05 135.4 69.05 137.6 69.05 137.45 71.15 137.15 77.4 136.7 77.4 135.4 77.4 133.6 77.45 133.55 76.4 133.35 73.5 M123.1 69.1 L123.65 69.1 125.2 69.1 127.4 69.1 129.95 69.05 132.55 69.05 132.55 69.55 132.5 70.95 132.5 72.85 132.15 72.85 131.2 72.85 129.9 72.85 129.9 76.8 129.95 82.35 129.45 82.35 128.0 82.35 125.8 82.35 125.8 81.2 125.8 77.95 125.75 72.85 123.1 72.85 123.1 71.9 123.1 69.1 M90.75 72.85 L90.75 71.9 90.75 69.1 91.3 69.1 92.85 69.1 95.05 69.1 97.6 69.05 100.2 69.05 100.2 69.55 100.15 70.95 100.15 72.85 99.8 72.85 98.85 72.85 97.55 72.85 97.55 76.8 97.6 82.35 97.1 82.35 95.65 82.35 93.45 82.35 93.45 81.2 93.45 77.95 93.4 72.85 90.75 72.85 M85.85 72.25 Q85.6 71.8 85.05 71.8 84.6 71.8 84.35 72.05 84.1 72.35 84.1 72.85 84.1 73.45 84.65 73.85 85.15 74.25 86.3 74.5 87.85 74.85 88.8 75.35 L90.15 76.65 Q90.55 77.4 90.5 78.55 90.5 79.9 89.85 80.85 L87.95 82.2 85.1 82.6 Q82.35 82.6 81.0 81.3 79.6 80.0 79.55 77.6 L80.7 77.65 83.9 77.6 Q83.9 78.55 84.2 79.05 84.5 79.6 85.1 79.6 L85.8 79.35 86.05 78.6 85.85 77.95 85.1 77.45 83.6 76.95 81.45 76.1 Q80.6 75.55 80.15 74.7 79.7 73.9 79.7 72.65 79.75 71.35 80.4 70.45 81.05 69.6 82.2 69.2 L84.95 68.75 Q87.55 68.75 88.9 70.05 90.25 71.35 90.3 73.8 L89.75 73.75 88.25 73.7 86.1 73.65 Q86.15 72.65 85.85 72.25 M116.35 72.0 L116.4 73.8 116.4 75.1 116.45 75.6 Q117.45 75.7 118.05 75.25 118.65 74.85 118.65 73.85 118.65 73.0 118.25 72.45 117.8 71.95 116.9 71.9 L116.65 71.95 116.35 72.0 M112.45 69.15 L114.6 68.8 116.55 68.7 Q119.6 68.7 121.2 70.0 122.8 71.25 122.8 73.65 122.8 75.05 122.25 75.95 L120.7 77.4 121.6 79.3 123.05 82.3 122.55 82.35 121.05 82.5 118.8 82.75 118.35 81.55 117.05 78.3 116.85 78.3 116.45 78.35 116.5 82.15 115.9 82.1 114.35 82.1 112.4 82.15 112.4 80.55 112.45 76.1 112.45 69.15 M105.9 71.95 L105.55 74.1 105.1 77.45 106.75 77.45 105.9 71.95 M109.3 70.05 L109.9 73.0 110.75 77.35 111.85 82.6 111.2 82.6 109.6 82.6 107.45 82.6 107.4 82.1 107.15 80.55 106.1 80.55 104.7 80.5 104.5 82.0 103.9 82.0 102.4 82.0 100.35 82.0 100.55 81.05 101.1 78.35 101.95 74.3 103.0 69.05 105.3 69.0 107.25 68.95 108.6 68.95 109.1 68.95 109.3 70.05" fill="url(#gradient0)" fill-rule="evenodd" stroke="none"/>
  </g>
  <defs>
    <linearGradient gradientTransform="matrix(-1.0E-4, -0.0171, 0.0085, 0.0, 84.85, 83.65)" gradientUnits="userSpaceOnUse" id="gradient0" spreadMethod="pad" x1="-819.2" x2="819.2">
      <stop offset="0.054901960784313725" stop-color="#790004"/>
      <stop offset="0.9921568627450981" stop-color="#ff0000"/>
    </linearGradient>
  </defs>
</svg>
