<?xml version="1.0" encoding="UTF-8" standalone="no"?>
<svg xmlns:ffdec="https://www.free-decompiler.com/flash" xmlns:xlink="http://www.w3.org/1999/xlink" ffdec:objectType="shape" height="19.15px" width="75.0px" xmlns="http://www.w3.org/2000/svg">
  <g transform="matrix(1.0, 0.0, 0.0, 1.0, 1.0, 0.35)">
    <path d="M0.0 11.8 L0.0 9.9 0.2 9.9 0.0 11.8 M72.8 9.9 L73.0 9.9 73.0 11.75 72.8 9.9" fill="#0099ff" fill-rule="evenodd" stroke="none"/>
    <path d="M73.0 11.75 L73.0 13.5 73.0 18.8 0.0 18.8 0.0 13.65 0.0 11.8 0.2 9.9 Q1.55 0.65 12.35 0.65 L60.7 0.65 Q71.5 0.65 72.8 9.9 L73.0 11.75" fill="#ffffff" fill-rule="evenodd" stroke="none"/>
    <path d="M73.0 11.75 L73.0 13.5 M0.0 13.65 L0.0 11.8 0.2 9.9 Q1.55 0.65 12.35 0.65 L60.7 0.65 Q71.5 0.65 72.8 9.9 L73.0 11.75" fill="none" stroke="#70d801" stroke-linecap="round" stroke-linejoin="round" stroke-width="2.0"/>
  </g>
</svg>
