<?xml version="1.0" encoding="UTF-8" standalone="no"?>
<svg xmlns:ffdec="https://www.free-decompiler.com/flash" xmlns:xlink="http://www.w3.org/1999/xlink" ffdec:objectType="shape" height="234.05px" width="234.0px" xmlns="http://www.w3.org/2000/svg">
  <g transform="matrix(1.0, 0.0, 0.0, 1.0, 1.0, 0.05)">
    <path d="M230.55 73.65 L230.0 2.65 2.0 2.65 2.0 230.15 102.95 230.15 2.0 230.15 2.0 2.65 230.0 2.65 230.55 73.65 228.5 126.7 224.55 136.5 223.85 137.05 107.55 227.5 Q105.95 228.9 102.95 230.15 99.4 231.7 93.9 233.0 L0.0 233.0 0.0 0.95 232.0 0.95 Q231.0 37.4 230.55 73.65" fill="url(#gradient0)" fill-rule="evenodd" stroke="none"/>
    <path d="M102.95 230.15 L2.0 230.15 2.0 2.65 230.0 2.65 230.55 73.65" fill="none" stroke="#ffffff" stroke-linecap="round" stroke-linejoin="round" stroke-opacity="0.4509804" stroke-width="2.0"/>
    <path d="M230.55 73.65 Q231.0 37.4 232.0 0.95 L0.0 0.95 0.0 233.0 93.9 233.0 Q99.4 231.7 102.95 230.15 105.95 228.9 107.55 227.5 L223.85 137.05 224.55 136.5 228.5 126.7 230.55 73.65 Z" fill="none" stroke="#d58611" stroke-linecap="round" stroke-linejoin="round" stroke-width="2.0"/>
    <path d="M126.25 193.0 L8.0 193.0 8.0 35.0 224.0 35.0 Q224.95 87.75 220.9 138.85 L126.25 193.0" fill="#ffffff" fill-rule="evenodd" stroke="none"/>
    <path d="M126.25 193.0 L8.0 193.0 8.0 35.0 224.0 35.0 Q224.95 87.75 220.9 138.85" fill="none" stroke="#333333" stroke-linecap="round" stroke-linejoin="round" stroke-width="1.0"/>
    <path d="M214.95 142.25 Q175.85 164.65 136.7 187.0 L14.0 187.0 14.0 41.0 218.05 41.0 Q219.0 92.1 214.95 142.25" fill="url(#gradient1)" fill-rule="evenodd" stroke="none"/>
  </g>
  <defs>
    <radialGradient cx="0" cy="0" gradientTransform="matrix(0.2651, 0.0, 0.0, 0.3029, 121.25, 121.8)" gradientUnits="userSpaceOnUse" id="gradient0" r="819.2" spreadMethod="pad">
      <stop offset="0.0" stop-color="#fbe6c8"/>
      <stop offset="0.44313725490196076" stop-color="#f4c279"/>
      <stop offset="0.615686274509804" stop-color="#ed9b23"/>
      <stop offset="0.8470588235294118" stop-color="#ed9b23"/>
    </radialGradient>
    <radialGradient cx="0" cy="0" gradientTransform="matrix(0.2439, 0.0, 0.0, 0.1955, 120.0, 119.0)" gradientUnits="userSpaceOnUse" id="gradient1" r="819.2" spreadMethod="pad">
      <stop offset="0.08235294117647059" stop-color="#cdf5d5"/>
      <stop offset="0.9294117647058824" stop-color="#58752d"/>
    </radialGradient>
  </defs>
</svg>
