<?xml version="1.0" encoding="UTF-8" standalone="no"?>
<svg xmlns:ffdec="https://www.free-decompiler.com/flash" xmlns:xlink="http://www.w3.org/1999/xlink" ffdec:objectType="shape" height="234.3px" width="234.0px" xmlns="http://www.w3.org/2000/svg">
  <g transform="matrix(1.0, 0.0, 0.0, 1.0, 1.0, 0.05)">
    <path d="M232.0 213.9 Q231.85 213.35 230.0 215.3 225.25 217.65 222.0 217.8 L221.8 217.8 220.85 217.95 220.65 217.95 220.2 217.95 220.0 217.95 218.9 218.0 Q214.7 218.0 210.6 215.9 211.3 226.6 208.65 230.15 L206.55 231.4 206.1 232.05 206.2 232.05 205.45 233.0 0.0 233.0 0.0 0.95 232.0 0.95 232.0 213.9 M208.65 230.15 L2.0 230.15 2.0 2.65 230.0 2.65 230.0 215.3 230.0 2.65 2.0 2.65 2.0 230.15 208.65 230.15" fill="url(#gradient0)" fill-rule="evenodd" stroke="none"/>
    <path d="M230.0 215.3 L231.8 217.5 231.75 217.55 231.4 218.3 224.1 225.0 223.2 225.65 Q219.0 228.65 214.05 230.8 L211.95 231.65 Q211.5 231.8 211.0 232.05 L210.95 232.05 210.9 232.05 206.2 232.05 206.55 231.4 206.2 232.05 206.1 232.05 206.55 231.4 208.65 230.15 Q211.3 226.6 210.6 215.9 214.7 218.0 218.9 218.0 L220.0 217.95 220.2 217.95 220.65 217.95 220.85 217.95 221.45 217.9 221.55 217.9 221.8 217.8 222.0 217.8 Q225.25 217.65 230.0 215.3 M230.2 220.35 L230.1 220.45 230.65 219.7 230.2 220.35" fill="url(#gradient1)" fill-rule="evenodd" stroke="none"/>
    <path d="M221.45 217.9 L220.85 217.95 221.8 217.8 221.55 217.9 221.45 217.9" fill="url(#gradient2)" fill-rule="evenodd" stroke="none"/>
    <path d="M231.8 217.5 L232.0 215.45 232.0 214.2 232.0 213.9 Q231.85 213.35 230.0 215.3 225.25 217.65 222.0 217.8 L221.8 217.8 220.85 217.95 220.65 217.95 220.2 217.95 220.0 217.95 218.9 218.0 Q214.7 218.0 210.6 215.9 211.3 226.6 208.65 230.15 L206.55 231.4 206.2 232.05 205.45 233.0 0.0 233.0 0.0 0.95 232.0 0.95 232.0 213.9 M231.8 217.5 L231.75 217.55 231.4 218.3 232.0 217.7 232.0 215.45 M221.45 217.9 L221.55 217.9 M210.9 232.05 L210.95 232.05 211.0 232.05 Q211.5 231.8 211.95 231.65 L214.05 230.8 Q219.0 228.65 223.2 225.65 L224.1 225.0 231.4 218.3 M210.95 232.05 L209.95 233.0 207.55 233.0 205.95 233.25 205.2 233.25 205.45 233.0 207.55 233.0 210.9 232.05" fill="none" stroke="#d58611" stroke-linecap="round" stroke-linejoin="round" stroke-width="2.0"/>
    <path d="M230.0 215.3 L230.0 2.65 2.0 2.65 2.0 230.15 208.65 230.15" fill="none" stroke="#ffffff" stroke-linecap="round" stroke-linejoin="round" stroke-opacity="0.4509804" stroke-width="2.0"/>
    <path d="M224.0 193.0 L8.0 193.0 8.0 35.0 224.0 35.0 224.0 193.0" fill="#ffffff" fill-rule="evenodd" stroke="none"/>
    <path d="M224.0 193.0 L8.0 193.0 8.0 35.0 224.0 35.0 224.0 193.0 Z" fill="none" stroke="#333333" stroke-linecap="round" stroke-linejoin="round" stroke-width="1.0"/>
    <path d="M218.0 187.0 L14.0 187.0 14.0 41.0 218.0 41.0 218.0 187.0" fill="url(#gradient3)" fill-rule="evenodd" stroke="none"/>
  </g>
  <defs>
    <radialGradient cx="0" cy="0" gradientTransform="matrix(0.2651, 0.0, 0.0, 0.3029, 121.25, 121.8)" gradientUnits="userSpaceOnUse" id="gradient0" r="819.2" spreadMethod="pad">
      <stop offset="0.0" stop-color="#fbe6c8"/>
      <stop offset="0.44313725490196076" stop-color="#f4c279"/>
      <stop offset="0.615686274509804" stop-color="#ed9b23"/>
      <stop offset="0.8470588235294118" stop-color="#ed9b23"/>
    </radialGradient>
    <radialGradient cx="0" cy="0" gradientTransform="matrix(0.0074, 0.0095, 0.0202, -0.0087, 211.35, 221.5)" gradientUnits="userSpaceOnUse" id="gradient1" r="819.2" spreadMethod="pad">
      <stop offset="0.5411764705882353" stop-color="#fcedd8"/>
      <stop offset="0.7411764705882353" stop-color="#f7d5a2"/>
    </radialGradient>
    <radialGradient cx="0" cy="0" gradientTransform="matrix(0.2378, 0.0, 0.0, -0.2627, 179.7, 165.6)" gradientUnits="userSpaceOnUse" id="gradient2" r="819.2" spreadMethod="pad">
      <stop offset="0.0" stop-color="#fbe6c8"/>
      <stop offset="0.44313725490196076" stop-color="#f4c279"/>
      <stop offset="0.615686274509804" stop-color="#ed9b23"/>
      <stop offset="0.8470588235294118" stop-color="#ed9b23"/>
    </radialGradient>
    <radialGradient cx="0" cy="0" gradientTransform="matrix(0.2439, 0.0, 0.0, 0.1955, 120.0, 119.0)" gradientUnits="userSpaceOnUse" id="gradient3" r="819.2" spreadMethod="pad">
      <stop offset="0.08235294117647059" stop-color="#cdf5d5"/>
      <stop offset="0.9294117647058824" stop-color="#58752d"/>
    </radialGradient>
  </defs>
</svg>
