<?xml version="1.0" encoding="UTF-8" standalone="no"?>
<svg xmlns:ffdec="https://www.free-decompiler.com/flash" xmlns:xlink="http://www.w3.org/1999/xlink" ffdec:objectType="shape" height="314.0px" width="182.0px" xmlns="http://www.w3.org/2000/svg">
  <g transform="matrix(1.0, 0.0, 0.0, 1.0, 8.7, 2.95)">
    <path d="M0.0 12.6 Q0.0 0.1 12.0 0.1 L152.95 0.1 Q164.95 0.1 164.95 12.6 L164.95 296.4 Q164.95 302.85 161.8 305.95 158.8 308.9 152.95 308.9 L12.0 308.9 Q6.15 308.9 3.15 305.95 0.0 302.85 0.0 296.4 L0.0 12.6" fill="url(#gradient0)" fill-rule="evenodd" stroke="none"/>
    <path d="M0.0 12.6 L0.0 296.4 Q0.0 302.85 3.15 305.95 6.15 308.9 12.0 308.9 L152.95 308.9 Q158.8 308.9 161.8 305.95 164.95 302.85 164.95 296.4 L164.95 12.6 Q164.95 0.1 152.95 0.1 L12.0 0.1 Q0.0 0.1 0.0 12.6 Z" fill="none" stroke="#990000" stroke-linecap="round" stroke-linejoin="round" stroke-width="4.0"/>
    <path d="M-0.45 27.55 L-0.45 14.55 Q-0.45 -0.45 14.55 -0.45 L150.05 -0.45 Q165.05 -0.45 165.05 14.55 L165.05 27.55 165.8 27.55 Q170.8 27.55 170.8 32.55 L170.8 75.05 Q170.8 80.05 165.8 80.05 L165.05 80.05 165.05 293.55 Q165.05 308.55 150.05 308.55 L14.55 308.55 Q-0.45 308.55 -0.45 293.55 L-0.45 80.05 -1.2 80.05 Q-6.2 80.05 -6.2 75.05 L-6.2 32.55 Q-6.2 27.55 -1.2 27.55 L-0.45 27.55" fill="url(#gradient1)" fill-rule="evenodd" stroke="none"/>
    <path d="M165.05 27.55 L165.05 14.55 Q165.05 -0.45 150.05 -0.45 L14.55 -0.45 Q-0.45 -0.45 -0.45 14.55 L-0.45 27.55 M-1.2 27.55 Q-6.2 27.55 -6.2 32.55 L-6.2 75.05 Q-6.2 80.05 -1.2 80.05 M-0.45 80.05 L-0.45 293.55 Q-0.45 308.55 14.55 308.55 L150.05 308.55 Q165.05 308.55 165.05 293.55 L165.05 80.05 M165.8 80.05 Q170.8 80.05 170.8 75.05 L170.8 32.55 Q170.8 27.55 165.8 27.55" fill="none" stroke="#4d0066" stroke-linecap="round" stroke-linejoin="round" stroke-width="5.0"/>
    <path d="M159.6 238.9 L156.45 242.0 8.35 242.0 5.2 238.9 159.6 238.9" fill="#000000" fill-opacity="0.23921569" fill-rule="evenodd" stroke="none"/>
    <path d="M156.45 242.0 L159.6 238.9 159.6 304.0 156.45 300.9 156.45 242.0" fill="#ffffff" fill-opacity="0.12156863" fill-rule="evenodd" stroke="none"/>
    <path d="M5.2 238.9 L8.35 242.0 8.35 300.9 5.2 304.0 5.2 238.9" fill="#000000" fill-opacity="0.21176471" fill-rule="evenodd" stroke="none"/>
    <path d="M156.45 300.9 L159.6 304.0 5.2 304.0 8.35 300.9 156.45 300.9" fill="#ffffff" fill-opacity="0.16078432" fill-rule="evenodd" stroke="none"/>
    <path d="M8.35 242.0 L156.45 242.0 156.45 300.9 8.35 300.9 8.35 242.0" fill="#000000" fill-opacity="0.101960786" fill-rule="evenodd" stroke="none"/>
  </g>
  <defs>
    <linearGradient gradientTransform="matrix(0.1833, 0.1552, -0.6291, 0.8032, 231.5, 7.95)" gradientUnits="userSpaceOnUse" id="gradient0" spreadMethod="pad" x1="-819.2" x2="819.2">
      <stop offset="0.03137254901960784" stop-color="#870101"/>
      <stop offset="0.47058823529411764" stop-color="#bf0101"/>
      <stop offset="0.6039215686274509" stop-color="#c10202"/>
      <stop offset="1.0" stop-color="#7e0101"/>
    </linearGradient>
    <radialGradient cx="0" cy="0" gradientTransform="matrix(0.6644, 0.1088, -0.0571, 0.3484, 44.0, 301.95)" gradientUnits="userSpaceOnUse" id="gradient1" r="819.2" spreadMethod="pad">
      <stop offset="0.054901960784313725" stop-color="#950865"/>
      <stop offset="0.44313725490196076" stop-color="#7f0895"/>
      <stop offset="0.9882352941176471" stop-color="#2e005b"/>
    </radialGradient>
  </defs>
</svg>
