<?xml version="1.0" encoding="UTF-8" standalone="no"?>
<svg xmlns:ffdec="https://www.free-decompiler.com/flash" xmlns:xlink="http://www.w3.org/1999/xlink" ffdec:objectType="shape" height="118.85px" width="119.65px" xmlns="http://www.w3.org/2000/svg">
  <g transform="matrix(1.0, 0.0, 0.0, 1.0, -42.8, -23.0)">
    <path d="M162.45 32.1 L162.45 132.8 Q162.45 141.85 153.4 141.85 L51.9 141.85 Q42.8 141.85 42.8 132.8 L42.8 32.1 Q42.8 23.0 51.9 23.0 L153.4 23.0 Q162.45 23.0 162.45 32.1" fill="#003887" fill-rule="evenodd" stroke="none"/>
    <path d="M144.65 133.1 L143.15 133.15 62.35 133.15 59.35 132.95 59.9 131.2 62.25 131.35 143.4 131.35 144.4 131.35 144.65 133.1 M62.5 36.55 L63.0 36.5 63.45 36.5 142.15 36.5 142.55 36.5 143.1 36.55 142.7 38.3 142.6 38.3 62.9 38.3 62.5 36.55" fill="#0045a6" fill-rule="evenodd" stroke="none"/>
    <path d="M61.25 31.45 L62.25 31.4 143.4 31.4 144.25 31.45 144.75 31.45 Q152.25 32.05 152.75 39.7 L152.75 40.25 152.75 40.75 152.75 121.95 152.75 122.95 152.7 123.55 Q152.0 130.65 144.95 131.3 L144.4 131.35 143.4 131.35 62.25 131.35 59.9 131.2 59.45 131.1 Q53.3 129.95 52.9 123.05 L52.85 122.45 52.85 121.95 52.85 40.75 52.95 39.1 53.0 38.7 Q53.85 32.1 60.7 31.5 L61.25 31.45 M143.1 36.55 L142.55 36.5 142.15 36.5 63.45 36.5 63.0 36.5 62.5 36.55 Q58.6 36.95 58.0 40.65 L57.95 41.15 57.9 42.0 57.9 120.65 57.95 121.2 58.0 121.8 Q58.4 125.25 61.5 126.0 L61.95 126.1 63.45 126.2 142.15 126.2 142.95 126.2 143.55 126.15 Q146.95 125.6 147.55 122.25 L147.6 121.6 147.65 120.65 147.65 42.0 147.65 41.8 147.65 41.2 Q147.25 36.95 143.1 36.55" fill="url(#gradient0)" fill-rule="evenodd" stroke="none"/>
    <path d="M60.8 29.65 L62.35 29.6 143.15 29.6 144.65 29.65 144.25 31.45 143.4 31.4 62.25 31.4 61.25 31.45 60.8 29.65 M143.55 126.15 L142.95 126.2 142.15 126.2 63.45 126.2 61.95 126.1 61.5 126.0 62.0 124.4 62.85 124.45 142.6 124.45 143.25 124.45 143.55 126.15" fill="#6bd9ff" fill-rule="evenodd" stroke="none"/>
    <path d="M144.25 31.45 L144.65 29.65 Q154.0 30.35 154.5 39.95 L152.75 40.25 152.75 39.7 Q152.25 32.05 144.75 31.45 L144.25 31.45" fill="url(#gradient1)" fill-rule="evenodd" stroke="none"/>
    <path d="M51.05 122.65 L51.0 121.75 51.0 40.95 Q51.0 39.7 51.15 38.55 L52.95 39.1 52.85 40.75 52.85 121.95 52.85 122.45 51.05 122.65 M147.65 41.2 L147.65 41.8 147.65 42.0 147.65 120.65 147.6 121.6 147.55 122.25 145.8 122.0 145.85 121.25 145.85 41.55 147.65 41.2" fill="#005fc9" fill-rule="evenodd" stroke="none"/>
    <path d="M142.7 38.3 L143.1 36.55 Q147.25 36.95 147.65 41.2 L145.85 41.55 145.85 41.45 Q145.85 38.35 142.7 38.3" fill="url(#gradient2)" fill-rule="evenodd" stroke="none"/>
    <path d="M154.5 39.95 L154.5 40.95 154.5 121.75 154.45 123.2 152.75 122.95 152.75 121.95 152.75 40.75 152.75 40.25 154.5 39.95 M58.0 121.8 L57.95 121.2 57.9 120.65 57.9 42.0 57.95 41.15 58.0 40.65 59.7 41.2 59.7 41.45 59.7 121.25 59.7 121.6 58.0 121.8" fill="#1eaeff" fill-rule="evenodd" stroke="none"/>
    <path d="M62.5 36.55 L62.9 38.3 62.85 38.3 Q59.85 38.3 59.7 41.2 L58.0 40.65 Q58.6 36.95 62.5 36.55" fill="url(#gradient3)" fill-rule="evenodd" stroke="none"/>
    <path d="M60.8 29.65 L61.25 31.45 60.7 31.5 Q53.85 32.1 53.0 38.7 L52.95 39.1 51.15 38.55 Q52.2 30.3 60.8 29.65" fill="url(#gradient4)" fill-rule="evenodd" stroke="none"/>
    <path d="M61.5 126.0 Q58.4 125.25 58.0 121.8 L59.7 121.6 Q59.85 124.0 62.0 124.4 L61.5 126.0" fill="url(#gradient5)" fill-rule="evenodd" stroke="none"/>
    <path d="M59.35 132.95 Q51.4 131.6 51.05 122.65 L52.85 122.45 52.9 123.05 Q53.3 129.95 59.45 131.1 L59.9 131.2 59.35 132.95" fill="url(#gradient6)" fill-rule="evenodd" stroke="none"/>
    <path d="M154.45 123.2 Q153.8 132.4 144.65 133.1 L144.4 131.35 144.95 131.3 Q152.0 130.65 152.7 123.55 L152.75 122.95 154.45 123.2" fill="url(#gradient7)" fill-rule="evenodd" stroke="none"/>
    <path d="M147.55 122.25 Q146.95 125.6 143.55 126.15 L143.25 124.45 Q145.5 124.15 145.8 122.0 L147.55 122.25" fill="url(#gradient8)" fill-rule="evenodd" stroke="none"/>
    <path d="M60.25 125.85 Q58.75 125.2 58.25 123.3 L58.0 121.4 58.8 123.5 Q60.0 125.6 63.3 125.75 L93.55 126.0 63.6 126.55 Q61.7 126.45 60.25 125.85 M149.4 33.7 Q148.0 32.5 144.0 31.95 L99.65 31.4 144.75 31.0 Q148.3 31.3 150.05 32.65 152.6 35.05 152.85 37.15 153.45 41.8 152.7 47.1 152.5 40.9 151.8 37.05 151.1 34.9 149.4 33.7" fill="#ffffff" fill-rule="evenodd" stroke="none"/>
  </g>
  <defs>
    <radialGradient cx="0" cy="0" gradientTransform="matrix(0.1843, 0.0, 0.0, 0.1138, 147.6, 35.6)" gradientUnits="userSpaceOnUse" id="gradient0" r="819.2" spreadMethod="pad">
      <stop offset="0.41568627450980394" stop-color="#0099ff"/>
      <stop offset="0.9882352941176471" stop-color="#007dec"/>
    </radialGradient>
    <linearGradient gradientTransform="matrix(0.0045, 0.0045, -0.0046, 0.0046, 149.25, 35.0)" gradientUnits="userSpaceOnUse" id="gradient1" spreadMethod="pad" x1="-819.2" x2="819.2">
      <stop offset="0.027450980392156862" stop-color="#6bd9ff"/>
      <stop offset="0.9882352941176471" stop-color="#1eaeff"/>
    </linearGradient>
    <linearGradient gradientTransform="matrix(0.0023, 0.0027, -0.0027, 0.0023, 145.6, 38.6)" gradientUnits="userSpaceOnUse" id="gradient2" spreadMethod="pad" x1="-819.2" x2="819.2">
      <stop offset="0.027450980392156862" stop-color="#0045a6"/>
      <stop offset="0.9882352941176471" stop-color="#005fc9"/>
    </linearGradient>
    <linearGradient gradientTransform="matrix(-0.0018, 0.0022, -0.0026, -0.0021, 60.05, 38.5)" gradientUnits="userSpaceOnUse" id="gradient3" spreadMethod="pad" x1="-819.2" x2="819.2">
      <stop offset="0.0392156862745098" stop-color="#0045a6"/>
      <stop offset="0.9882352941176471" stop-color="#1eaeff"/>
    </linearGradient>
    <linearGradient gradientTransform="matrix(0.0043, -0.0046, 0.0044, 0.004, 56.3, 34.5)" gradientUnits="userSpaceOnUse" id="gradient4" spreadMethod="pad" x1="-819.2" x2="819.2">
      <stop offset="0.0392156862745098" stop-color="#005fc9"/>
      <stop offset="0.9882352941176471" stop-color="#6bd9ff"/>
    </linearGradient>
    <linearGradient gradientTransform="matrix(0.0019, 0.0015, -0.002, 0.0026, 59.55, 124.25)" gradientUnits="userSpaceOnUse" id="gradient5" spreadMethod="pad" x1="-819.2" x2="819.2">
      <stop offset="0.027450980392156862" stop-color="#1eaeff"/>
      <stop offset="0.9882352941176471" stop-color="#6bd9ff"/>
    </linearGradient>
    <linearGradient gradientTransform="matrix(-0.0031, -0.0046, 0.0054, -0.0036, 55.6, 127.65)" gradientUnits="userSpaceOnUse" id="gradient6" spreadMethod="pad" x1="-819.2" x2="819.2">
      <stop offset="0.027450980392156862" stop-color="#0045a6"/>
      <stop offset="0.9882352941176471" stop-color="#005fc9"/>
    </linearGradient>
    <linearGradient gradientTransform="matrix(0.0043, -0.0044, 0.0045, 0.0044, 149.35, 127.95)" gradientUnits="userSpaceOnUse" id="gradient7" spreadMethod="pad" x1="-819.2" x2="819.2">
      <stop offset="0.0392156862745098" stop-color="#0045a6"/>
      <stop offset="0.9882352941176471" stop-color="#1eaeff"/>
    </linearGradient>
    <linearGradient gradientTransform="matrix(-0.0016, 0.0018, -0.0023, -0.002, 145.85, 124.5)" gradientUnits="userSpaceOnUse" id="gradient8" spreadMethod="pad" x1="-819.2" x2="819.2">
      <stop offset="0.0392156862745098" stop-color="#005fc9"/>
      <stop offset="0.9882352941176471" stop-color="#6bd9ff"/>
    </linearGradient>
  </defs>
</svg>
