<?xml version="1.0" encoding="UTF-8" standalone="no"?>
<svg xmlns:ffdec="https://www.free-decompiler.com/flash" xmlns:xlink="http://www.w3.org/1999/xlink" ffdec:objectType="shape" height="94.15px" width="516.5px" xmlns="http://www.w3.org/2000/svg">
  <g transform="matrix(1.0, 0.0, 0.0, 1.0, -176.85, -129.3)">
    <path d="M662.45 189.0 L681.3 189.65 690.6 181.85 Q693.05 162.3 670.55 157.0 656.6 155.3 649.05 164.55 L642.85 171.2 Q640.05 173.95 638.0 178.0 639.75 164.55 641.8 151.75 L623.75 150.15 618.2 157.45 619.8 147.5 Q598.35 145.5 579.0 142.3 L573.75 151.55 573.45 154.95 Q572.45 149.9 569.3 145.85 563.3 139.55 551.25 139.1 541.55 136.8 534.1 142.2 531.4 144.1 529.95 147.05 529.25 148.35 528.85 149.9 L526.5 156.05 525.85 157.6 Q524.2 162.15 525.3 168.9 525.9 171.5 527.55 173.6 L524.95 173.15 521.7 181.25 521.6 182.0 521.5 182.55 513.4 135.7 485.9 133.7 Q480.85 157.65 474.05 182.05 L472.75 186.55 471.35 194.15 489.3 196.35 491.9 186.65 499.25 186.35 500.0 198.65 519.75 198.35 522.75 191.45 Q523.7 193.65 525.45 195.6 530.8 201.7 541.85 203.15 551.45 204.55 558.95 200.95 562.7 198.8 564.75 195.5 L564.85 195.3 568.8 189.2 Q571.05 186.15 571.8 182.05 L571.85 181.95 Q573.3 173.2 566.45 168.1 L566.35 168.05 568.8 168.2 572.85 161.35 572.25 167.55 582.75 168.9 581.2 181.95 Q579.55 194.05 577.45 205.85 L596.1 208.15 602.2 201.05 Q603.05 191.3 604.15 181.95 L605.4 171.9 610.5 172.55 616.2 165.25 614.1 181.95 609.7 210.55 627.45 213.15 634.7 206.25 Q638.15 217.45 652.1 219.9 664.45 222.8 671.55 217.65 L671.95 217.35 680.4 210.95 Q686.45 206.55 688.75 196.5 L669.6 191.15 662.25 197.6 Q660.95 194.35 662.6 186.0 M497.4 167.6 L495.6 167.7 496.8 161.4 497.4 167.6 M334.4 176.65 L320.65 178.25 Q318.9 164.55 318.0 150.05 L313.6 140.75 Q304.1 142.9 294.4 143.3 296.2 157.35 297.65 171.8 296.05 162.8 292.35 151.65 L287.0 142.4 268.8 147.55 270.3 153.95 Q275.35 175.5 274.15 182.25 273.75 184.4 272.7 185.05 L272.15 182.25 Q270.65 174.1 270.15 159.8 L263.95 150.9 245.6 151.4 245.45 159.3 245.75 166.8 243.95 159.05 236.75 150.1 211.1 155.2 212.15 166.3 205.5 159.5 179.35 163.55 182.45 182.35 Q184.85 198.45 186.45 214.15 L195.5 220.75 212.1 218.25 Q210.7 209.8 209.85 201.5 L218.1 208.6 232.3 205.45 232.55 206.6 239.9 213.5 257.25 211.0 251.4 189.75 253.6 193.1 Q254.75 194.6 256.05 195.9 L260.25 200.6 262.15 202.75 Q268.85 209.5 280.2 208.7 288.7 207.55 293.45 202.4 L295.4 199.6 296.0 198.5 Q298.75 193.15 298.9 185.05 L299.7 195.25 304.6 202.55 338.4 200.3 Q337.55 192.55 338.05 184.65 L334.4 176.65 M362.65 159.5 Q364.6 159.3 365.95 162.2 366.7 163.9 367.25 166.7 L385.55 162.25 384.95 159.3 384.75 158.6 383.7 153.4 Q380.75 133.95 357.65 134.9 334.95 138.5 336.6 165.25 337.35 173.0 339.6 178.55 L340.45 180.45 342.9 186.1 343.3 187.05 Q349.25 200.85 365.65 199.3 385.45 198.35 387.5 182.15 387.8 179.4 387.65 176.25 L385.85 167.95 365.95 168.0 Q366.25 176.6 363.1 177.55 361.9 177.6 360.95 176.65 L360.55 172.75 Q359.55 159.7 362.65 159.5 M390.75 182.15 Q390.35 159.15 388.8 136.85 L406.95 136.9 407.95 146.35 408.65 160.3 414.85 158.9 414.05 133.7 432.7 131.8 432.8 141.4 432.8 142.8 433.25 166.95 433.9 182.1 434.25 189.45 Q434.05 193.2 434.25 196.95 L416.35 197.5 415.65 190.0 415.6 180.8 409.6 182.0 410.0 194.65 392.45 196.0 390.85 188.45 390.75 182.15 M475.8 159.05 L477.35 150.1 478.3 133.3 Q456.75 133.5 437.2 132.35 L437.3 158.0 447.85 158.3 447.45 178.0 447.05 185.35 446.85 188.0 446.9 188.0 446.4 195.55 465.2 195.95 466.35 188.4 466.3 182.05 Q466.15 170.15 466.5 158.8 L475.8 159.05 Z" fill="none" stroke="#300038" stroke-linecap="round" stroke-linejoin="round" stroke-width="5.0"/>
    <path d="M662.45 189.0 L681.3 189.65 690.6 181.85 Q693.05 162.3 670.55 157.0 656.6 155.3 649.05 164.55 L642.85 171.2 Q640.05 173.95 638.0 178.0 639.75 164.55 641.8 151.75 L623.75 150.15 618.2 157.45 619.8 147.5 Q598.35 145.5 579.0 142.3 L573.75 151.55 573.45 154.95 Q572.45 149.9 569.3 145.85 563.3 139.55 551.25 139.1 541.55 136.8 534.1 142.2 531.4 144.1 529.95 147.05 529.25 148.35 528.85 149.9 L526.5 156.05 525.85 157.6 Q524.2 162.15 525.3 168.9 525.9 171.5 527.55 173.6 L524.95 173.15 521.7 181.25 521.6 182.0 521.5 182.55 513.4 135.7 485.9 133.7 Q480.85 157.65 474.05 182.05 L472.75 186.55 471.35 194.15 489.3 196.35 491.9 186.65 499.25 186.35 500.0 198.65 519.75 198.35 522.75 191.45 Q523.7 193.65 525.45 195.6 530.8 201.7 541.85 203.15 551.45 204.55 558.95 200.95 562.7 198.8 564.75 195.5 L564.85 195.3 568.8 189.2 Q571.05 186.15 571.8 182.05 L571.85 181.95 Q573.3 173.2 566.45 168.1 L566.35 168.05 568.8 168.2 572.85 161.35 572.25 167.55 582.75 168.9 581.2 181.95 Q579.55 194.05 577.45 205.85 L596.1 208.15 602.2 201.05 Q603.05 191.3 604.15 181.95 L605.4 171.9 610.5 172.55 616.2 165.25 614.1 181.95 609.7 210.55 627.45 213.15 634.7 206.25 Q638.15 217.45 652.1 219.9 664.45 222.8 671.55 217.65 L671.95 217.35 680.4 210.95 Q686.45 206.55 688.75 196.5 L669.6 191.15 662.25 197.6 Q660.95 194.35 662.6 186.0 M496.8 161.4 L497.4 167.6 495.6 167.7 496.8 161.4 M362.65 159.5 Q364.6 159.3 365.95 162.2 366.7 163.9 367.25 166.7 L385.55 162.25 384.95 159.3 384.75 158.6 383.7 153.4 Q380.75 133.95 357.65 134.9 334.95 138.5 336.6 165.25 337.35 173.0 339.6 178.55 L340.45 180.45 342.9 186.1 343.3 187.05 Q349.25 200.85 365.65 199.3 385.45 198.35 387.5 182.15 387.8 179.4 387.65 176.25 L385.85 167.95 365.95 168.0 Q366.25 176.6 363.1 177.55 361.9 177.6 360.95 176.65 L360.55 172.75 Q359.55 159.7 362.65 159.5 M334.4 176.65 L320.65 178.25 Q318.9 164.55 318.0 150.05 L313.6 140.75 Q304.1 142.9 294.4 143.3 296.2 157.35 297.65 171.8 296.05 162.8 292.35 151.65 L287.0 142.4 268.8 147.55 270.3 153.95 Q275.35 175.5 274.15 182.25 273.75 184.4 272.7 185.05 L272.15 182.25 Q270.65 174.1 270.15 159.8 L263.95 150.9 245.6 151.4 245.45 159.3 245.75 166.8 243.95 159.05 236.75 150.1 211.1 155.2 212.15 166.3 205.5 159.5 179.35 163.55 182.45 182.35 Q184.85 198.45 186.45 214.15 L195.5 220.75 212.1 218.25 Q210.7 209.8 209.85 201.5 L218.1 208.6 232.3 205.45 232.55 206.6 239.9 213.5 257.25 211.0 251.4 189.75 253.6 193.1 Q254.75 194.6 256.05 195.9 L260.25 200.6 262.15 202.75 Q268.85 209.5 280.2 208.7 288.7 207.55 293.45 202.4 L295.4 199.6 296.0 198.5 Q298.75 193.15 298.9 185.05 L299.7 195.25 304.6 202.55 338.4 200.3 Q337.55 192.55 338.05 184.65 L334.4 176.65 M390.85 188.45 L390.75 182.15 Q390.35 159.15 388.8 136.85 L406.95 136.9 407.95 146.35 408.65 160.3 414.85 158.9 414.05 133.7 432.7 131.8 432.8 141.4 432.8 142.8 433.25 166.95 433.9 182.1 434.25 189.45 Q434.05 193.2 434.25 196.95 L416.35 197.5 415.65 190.0 415.6 180.8 409.6 182.0 410.0 194.65 392.45 196.0 390.85 188.45 M477.35 150.1 L478.3 133.3 Q456.75 133.5 437.2 132.35 L437.3 158.0 447.85 158.3 447.45 178.0 447.05 185.35 446.85 188.0 446.9 188.0 446.4 195.55 465.2 195.95 466.35 188.4 466.3 182.05 Q466.15 170.15 466.5 158.8 L475.8 159.05 477.35 150.1 Z" fill="none" stroke="#650074" stroke-linecap="round" stroke-linejoin="round" stroke-width="3.0"/>
    <path d="M687.2 196.05 L686.8 197.5 Q684.55 205.55 679.45 209.25 677.45 210.7 675.0 211.5 669.1 213.35 660.7 211.4 639.35 207.6 643.4 182.1 L643.65 180.8 643.85 179.95 Q645.25 173.9 647.7 169.55 648.8 167.55 650.2 165.9 657.25 157.3 670.25 158.85 690.1 163.55 689.2 180.1 L672.4 179.55 Q672.8 171.5 668.75 170.95 665.1 170.35 662.5 180.65 L662.35 181.3 661.45 185.2 661.45 185.9 Q659.55 195.35 661.35 199.0 661.95 200.4 663.2 200.95 L664.05 201.2 664.25 201.2 Q668.2 200.9 670.5 192.95 L670.85 191.5 687.2 196.05" fill="url(#gradient0)" fill-rule="evenodd" stroke="none"/>
    <path d="M662.6 186.0 L662.7 185.35 663.45 181.9 663.75 180.7 Q665.95 172.2 668.55 172.7 671.7 173.25 671.1 181.0 L671.05 181.2 662.45 189.0 662.6 186.0" fill="url(#gradient1)" fill-rule="evenodd" stroke="none"/>
    <path d="M669.6 191.15 Q667.6 199.3 664.4 199.55 L663.6 199.35 Q662.7 198.85 662.25 197.6 L669.6 191.15 M501.7 178.45 L502.45 191.2 500.0 198.65 499.25 186.35 501.7 178.45 M409.6 182.0 L410.0 194.65 409.05 187.05 408.65 173.9 409.6 182.0 M203.7 211.55 L203.4 209.75 Q201.3 196.35 200.45 183.3 206.8 195.8 209.85 201.3 210.7 209.7 212.1 218.25 L203.7 211.55 M225.0 198.15 L225.65 176.05 232.15 204.9 225.0 198.15" fill="#9f1db1" fill-rule="evenodd" stroke="none"/>
    <path d="M671.05 181.2 L690.6 181.85 681.3 189.65 662.45 189.0 671.05 181.2 M472.75 186.55 L491.35 188.8 489.3 196.35 471.35 194.15 472.75 186.55 M491.9 186.65 L493.8 178.75 501.7 178.45 499.25 186.35 491.9 186.65 M502.45 191.2 L522.95 190.9 522.75 191.45 519.75 198.35 500.0 198.65 502.45 191.2 M497.4 167.6 L496.8 161.4 498.85 150.15 500.55 167.45 497.4 167.6 M566.35 168.05 Q561.25 164.7 554.4 162.45 L553.05 161.95 554.95 158.2 573.85 159.6 572.85 161.35 568.8 168.2 566.35 168.05 M605.4 171.9 L606.7 162.75 617.1 164.1 616.2 165.25 610.5 172.55 605.4 171.9 M572.25 167.55 L577.45 158.9 588.3 160.35 582.75 168.9 572.25 167.55 M602.2 201.05 L596.1 208.15 577.45 205.85 582.8 198.65 602.2 201.05 M634.7 206.25 L627.45 213.15 609.7 210.55 616.3 203.55 634.7 206.25 M365.95 162.2 L364.7 158.05 383.7 153.4 384.75 158.6 384.95 159.3 385.55 162.25 367.25 166.7 Q366.7 163.9 365.95 162.2 M334.75 192.9 L338.4 200.3 304.6 202.55 299.7 195.25 334.75 192.9 M410.0 194.65 L392.45 196.0 390.85 188.45 409.05 187.05 410.0 194.65 M434.25 189.45 Q434.05 193.2 434.25 196.95 L416.35 197.5 415.65 190.0 434.25 189.45 M415.6 180.8 L409.6 182.0 408.65 173.9 415.55 172.5 415.6 180.8 M447.45 178.0 L447.65 172.7 447.85 158.3 437.3 158.0 437.4 149.0 448.35 149.35 Q448.3 161.1 447.75 172.7 L447.45 178.0 M477.35 150.1 L475.8 159.05 466.5 158.8 466.85 149.8 477.35 150.1 M466.35 188.4 L465.2 195.95 446.4 195.55 446.9 188.0 466.35 188.4 M186.45 214.15 L203.7 211.55 212.1 218.25 195.5 220.75 186.45 214.15 M209.95 201.5 L225.0 198.15 232.15 204.9 232.3 205.45 218.1 208.6 209.95 201.5 M232.55 206.6 L250.55 204.0 257.25 211.0 239.9 213.5 232.55 206.6" fill="#7a008c" fill-rule="evenodd" stroke="none"/>
    <path d="M649.05 164.55 Q647.6 166.3 646.4 168.45 643.7 173.2 642.2 179.9 L642.05 180.5 641.8 181.9 Q637.45 209.2 660.3 213.25 669.3 215.35 675.65 213.35 678.25 212.5 680.4 210.95 L671.95 217.35 671.55 217.65 Q664.45 222.8 652.1 219.9 638.15 217.45 634.75 206.05 636.0 193.75 637.5 181.9 L637.8 179.75 638.0 178.0 Q640.05 173.95 642.85 171.2 L649.05 164.55" fill="url(#gradient2)" fill-rule="evenodd" stroke="none"/>
    <path d="M551.1 140.65 Q562.5 141.05 568.2 147.05 571.15 150.85 572.1 155.65 L572.4 157.8 556.55 156.6 Q556.4 151.4 552.15 150.65 546.85 150.35 546.45 155.35 546.05 160.35 550.5 162.3 554.95 164.2 556.2 164.6 557.4 164.95 565.55 169.0 L568.1 171.55 Q570.3 173.75 570.55 177.05 L570.55 177.25 Q570.75 180.4 570.2 182.65 569.6 184.9 568.15 187.1 566.7 189.25 565.5 190.3 L562.85 192.15 Q555.45 195.65 546.05 194.3 535.2 192.9 529.95 186.9 527.65 184.25 526.65 181.2 L526.6 181.05 Q525.8 178.5 525.95 175.6 L526.0 174.85 542.7 177.6 Q542.45 181.95 545.6 183.25 L548.35 183.75 549.65 183.25 Q552.85 181.6 552.95 177.9 L552.7 176.6 Q551.3 173.05 542.55 170.3 532.15 166.95 530.5 160.45 529.85 156.85 529.8 154.6 529.75 152.35 530.05 150.9 530.3 149.4 531.0 148.15 532.35 145.35 534.9 143.6 541.95 138.45 551.1 140.65" fill="url(#gradient3)" fill-rule="evenodd" stroke="none"/>
    <path d="M527.55 173.6 Q525.9 171.5 525.3 168.9 524.5 164.2 525.1 160.55 525.35 158.95 525.85 157.6 L526.5 156.05 528.85 149.9 Q528.45 151.55 528.3 153.4 528.1 156.5 528.7 160.3 530.5 168.05 541.0 171.5 548.9 174.1 550.9 176.5 551.55 177.3 551.55 178.1 551.45 180.8 549.1 182.0 L548.15 182.35 546.15 182.0 Q543.35 180.85 544.25 176.35 L527.55 173.6" fill="url(#gradient4)" fill-rule="evenodd" stroke="none"/>
    <path d="M487.4 135.7 L502.5 136.9 511.75 137.45 520.7 189.0 504.25 189.3 503.45 176.65 492.7 177.05 490.15 186.85 475.15 185.05 476.35 180.75 478.25 173.85 Q483.4 154.6 487.4 135.7 M500.05 148.45 L497.75 148.45 493.45 169.6 502.3 169.2 500.05 148.45" fill="url(#gradient5)" fill-rule="evenodd" stroke="none"/>
    <path d="M522.95 190.9 L521.5 182.55 521.6 182.0 521.7 181.25 524.95 173.15 524.65 175.55 Q524.4 178.9 525.3 181.85 L525.35 182.0 Q526.4 185.25 528.85 188.05 534.4 194.35 545.9 195.85 555.85 197.3 563.65 193.6 L566.45 191.65 568.8 189.2 564.85 195.3 564.75 195.5 Q562.7 198.8 558.95 200.95 551.45 204.55 541.85 203.15 530.8 201.7 525.45 195.6 523.7 193.65 522.75 191.45 L522.95 190.9" fill="url(#gradient6)" fill-rule="evenodd" stroke="none"/>
    <path d="M553.05 161.95 Q547.45 159.7 547.8 156.05 548.15 151.9 551.9 152.1 555.6 152.8 554.95 158.2 L553.05 161.95" fill="url(#gradient7)" fill-rule="evenodd" stroke="none"/>
    <path d="M603.75 171.9 L602.9 178.45 602.55 181.3 Q601.55 190.0 600.8 199.05 L585.2 197.15 587.7 181.6 588.25 177.9 590.45 159.15 579.55 157.55 580.8 144.25 Q598.3 147.1 617.7 149.0 L615.5 162.3 605.55 160.95 603.75 171.9" fill="url(#gradient8)" fill-rule="evenodd" stroke="none"/>
    <path d="M573.45 154.95 L573.75 151.55 579.0 142.3 577.45 158.9 572.25 167.55 572.85 161.35 573.85 159.6 Q573.85 157.15 573.45 154.95 M618.2 157.45 L623.75 150.15 622.65 159.65 620.1 179.05 619.7 181.95 616.3 203.55 609.7 210.55 614.1 181.95 614.5 178.85 616.2 165.25 617.1 164.1 618.2 157.45 M582.75 168.9 L588.3 160.35 586.15 177.8 585.55 181.95 582.8 198.65 577.45 205.85 Q579.55 194.05 581.2 181.95 L581.75 177.65 582.75 168.9 M334.75 192.9 Q334.35 189.0 334.25 185.1 L334.25 182.2 Q334.25 179.45 334.4 176.65 L338.05 184.65 Q337.55 192.55 338.4 200.3 L334.75 192.9 M320.65 178.25 L317.55 178.6 Q316.75 173.25 316.1 167.75 315.05 159.4 314.35 150.8 L313.75 142.55 313.6 140.75 318.0 150.05 Q318.55 159.1 319.45 167.9 L320.65 178.25 M406.95 136.9 L407.95 146.35 408.65 160.3 408.05 160.4 406.95 136.9 M250.55 204.0 L244.6 182.3 240.2 164.95 239.05 160.05 236.75 150.1 243.95 159.05 245.35 165.15 245.75 166.8 Q246.35 175.65 248.35 182.3 249.6 186.45 251.4 189.75 L257.25 211.0 250.55 204.0 M212.15 166.3 L213.5 181.3 205.5 159.5 212.15 166.3 M272.7 185.05 L272.1 185.25 Q271.0 185.45 270.0 184.55 269.1 183.8 268.35 182.25 266.05 177.65 264.9 165.85 L264.4 160.0 Q264.15 156.5 264.05 152.55 L263.95 150.9 270.15 159.8 270.45 166.05 Q271.0 176.0 272.15 182.25 L272.7 185.05" fill="#aa27bd" fill-rule="evenodd" stroke="none"/>
    <path d="M625.65 152.4 L639.8 153.65 Q637.9 165.6 636.3 178.05 L636.1 179.65 635.85 181.65 Q634.45 192.6 633.3 204.05 L618.75 201.95 621.9 181.7 622.3 179.15 624.65 161.05 625.65 152.4" fill="url(#gradient9)" fill-rule="evenodd" stroke="none"/>
    <path d="M365.95 162.2 Q364.6 159.3 362.65 159.5 360.0 159.65 360.35 169.4 L360.55 172.75 360.95 176.65 Q359.2 174.8 358.35 169.35 L357.75 164.3 Q356.7 150.8 359.95 150.55 362.75 150.25 364.3 156.25 L364.7 158.05 365.95 162.2" fill="url(#gradient10)" fill-rule="evenodd" stroke="none"/>
    <path d="M356.9 169.3 Q357.95 176.15 360.4 178.35 361.65 179.4 363.25 179.4 367.3 178.35 367.3 169.65 L384.3 169.6 384.3 170.3 Q384.2 173.05 383.7 175.4 383.05 178.5 381.65 180.9 376.8 189.3 362.95 189.95 349.35 191.25 343.15 181.55 L342.75 180.95 341.9 179.35 341.1 177.55 Q339.5 173.65 338.75 168.6 338.45 166.95 338.3 165.15 336.75 140.2 357.95 136.85 378.15 136.0 381.8 151.95 L365.55 155.95 Q363.55 148.35 359.6 148.7 355.25 149.05 356.35 164.3 356.55 167.05 356.9 169.3" fill="url(#gradient11)" fill-rule="evenodd" stroke="none"/>
    <path d="M385.85 167.95 L387.65 176.25 Q387.8 179.4 387.5 182.15 385.45 198.35 365.65 199.3 349.25 200.85 343.3 187.05 L342.9 186.1 340.45 180.45 341.4 182.2 341.8 182.85 Q348.45 193.25 363.05 191.85 377.9 191.15 383.1 182.15 384.6 179.55 385.3 176.25 385.85 173.55 385.9 170.35 L385.85 167.95" fill="url(#gradient12)" fill-rule="evenodd" stroke="none"/>
    <path d="M332.9 183.95 Q333.0 187.6 333.4 191.25 L301.6 193.4 300.85 183.75 300.65 181.15 299.7 171.4 299.3 167.15 296.7 144.9 Q304.3 144.5 311.75 143.0 311.95 147.55 312.4 151.95 312.95 159.15 314.15 167.7 314.95 173.8 316.1 180.65 L332.95 178.8 332.9 181.25 332.9 183.95" fill="url(#gradient13)" fill-rule="evenodd" stroke="none"/>
    <path d="M392.35 180.5 L392.15 170.6 Q391.65 154.45 390.55 138.7 L405.2 138.75 406.45 162.25 416.65 160.25 415.8 135.6 415.85 135.6 431.1 134.05 431.2 142.9 431.2 144.2 431.6 166.5 431.85 172.1 432.2 180.45 432.5 187.25 417.6 187.7 417.4 170.25 406.85 172.5 407.15 185.25 392.45 186.35 392.35 180.5" fill="url(#gradient14)" fill-rule="evenodd" stroke="none"/>
    <path d="M475.4 148.25 L465.35 147.9 464.7 158.9 Q464.45 166.0 464.45 173.3 L464.5 180.6 464.55 186.5 448.95 186.15 449.1 183.8 449.5 176.95 449.75 172.75 Q450.25 161.85 450.2 147.8 L439.35 147.4 439.2 134.3 Q456.8 135.35 476.15 135.15 L475.4 148.25" fill="url(#gradient15)" fill-rule="evenodd" stroke="none"/>
    <path d="M184.55 182.35 L181.7 164.75 204.35 161.3 212.7 183.35 215.55 182.9 213.25 156.6 235.3 152.2 237.45 161.5 238.25 164.85 Q240.3 173.6 242.65 182.3 L248.2 202.55 233.9 204.65 227.0 174.15 224.2 174.5 223.0 196.85 210.8 199.55 210.7 199.45 201.4 181.25 198.9 181.8 Q200.0 199.65 201.7 210.05 L188.3 212.05 Q186.8 197.35 184.55 182.35" fill="url(#gradient16)" fill-rule="evenodd" stroke="none"/>
    <path d="M270.75 148.95 L285.6 144.7 288.4 153.9 Q290.3 160.9 291.15 166.85 292.35 175.2 291.5 181.45 290.85 186.1 289.05 189.55 L288.5 190.6 286.65 193.3 Q282.1 198.2 273.95 199.3 265.15 199.9 259.25 195.75 L257.1 194.0 254.85 191.45 Q253.75 190.0 252.8 188.35 251.15 185.3 250.0 181.5 248.15 175.35 247.6 167.2 L247.5 165.2 247.35 160.3 247.45 153.0 262.45 152.6 Q262.35 156.45 262.55 159.9 L262.85 165.8 Q263.85 178.9 267.1 183.95 268.05 185.6 269.4 186.4 270.85 187.4 272.6 187.15 L273.5 186.95 Q275.1 186.25 275.85 183.95 277.45 178.9 274.95 166.25 273.85 160.55 271.9 153.35 L270.75 148.95" fill="url(#gradient17)" fill-rule="evenodd" stroke="none"/>
    <path d="M297.65 171.8 L298.65 182.25 298.9 185.05 Q298.75 193.15 296.0 198.5 L295.4 199.6 293.45 202.4 Q288.7 207.55 280.2 208.7 268.85 209.5 262.15 202.75 L260.25 200.6 256.05 195.9 258.4 197.8 Q264.8 202.3 274.35 201.65 283.2 200.45 288.1 195.1 L290.15 192.2 290.75 191.05 Q292.7 187.3 293.4 182.25 294.25 175.65 293.05 166.9 292.15 160.25 290.0 152.35 L287.0 142.4 292.35 151.65 Q295.1 159.95 296.7 167.05 L297.65 171.8" fill="url(#gradient18)" fill-rule="evenodd" stroke="none"/>
    <path d="M662.6 186.0 Q660.95 194.35 662.25 197.6 662.7 198.85 663.6 199.35 L664.25 199.55 664.4 199.55 Q667.6 199.3 669.6 191.15 L670.85 191.5 670.5 192.95 Q668.2 200.9 664.25 201.2 L664.05 201.2 663.2 200.95 Q661.95 200.4 661.35 199.0 659.55 195.35 661.45 185.9 L661.45 185.2 662.35 181.3 662.5 180.65 Q665.1 170.35 668.75 170.95 672.8 171.5 672.4 179.55 L689.2 180.1 Q690.1 163.55 670.25 158.85 657.25 157.3 650.2 165.9 648.8 167.55 647.7 169.55 645.25 173.9 643.85 179.95 L643.65 180.8 643.4 182.1 Q639.35 207.6 660.7 211.4 669.1 213.35 675.0 211.5 677.45 210.7 679.45 209.25 684.55 205.55 686.8 197.5 L687.2 196.05 688.75 196.5 Q686.45 206.55 680.4 210.95 678.25 212.5 675.65 213.35 669.3 215.35 660.3 213.25 637.45 209.2 641.8 181.9 L642.05 180.5 642.2 179.9 Q643.7 173.2 646.4 168.45 647.6 166.3 649.05 164.55 656.6 155.3 670.55 157.0 692.95 162.3 690.65 181.7 L690.6 181.85 671.05 181.2 671.1 181.0 Q671.7 173.25 668.55 172.7 665.95 172.2 663.75 180.7 L663.45 181.9 662.7 185.35 662.6 186.0 M551.1 140.65 Q541.95 138.45 534.9 143.6 532.35 145.35 531.0 148.15 530.3 149.4 530.05 150.9 529.75 152.35 529.8 154.6 529.85 156.85 530.5 160.45 532.15 166.95 542.55 170.3 551.3 173.05 552.7 176.6 L552.95 177.9 Q552.85 181.6 549.65 183.25 L548.35 183.75 545.6 183.25 Q542.45 181.95 542.7 177.6 L526.0 174.85 525.95 175.6 Q525.8 178.5 526.6 181.05 L526.65 181.2 Q527.65 184.25 529.95 186.9 535.2 192.9 546.05 194.3 555.45 195.65 562.85 192.15 L565.5 190.3 Q566.7 189.25 568.15 187.1 569.6 184.9 570.2 182.65 570.75 180.4 570.55 177.25 L570.55 177.05 Q570.3 173.75 568.1 171.55 L565.55 169.0 Q557.4 164.95 556.2 164.6 554.95 164.2 550.5 162.3 546.05 160.35 546.45 155.35 546.85 150.35 552.15 150.65 556.4 151.4 556.55 156.6 L572.4 157.8 572.1 155.65 Q571.15 150.85 568.2 147.05 562.5 141.05 551.1 140.65 M528.85 149.9 Q529.25 148.35 529.95 147.05 531.4 144.1 534.1 142.2 541.55 136.8 551.25 139.1 563.3 139.55 569.3 145.85 572.45 149.9 573.45 154.95 573.85 157.15 573.85 159.6 L554.95 158.2 Q555.6 152.8 551.9 152.1 548.15 151.9 547.8 156.05 547.45 159.7 553.05 161.95 L554.4 162.45 Q561.25 164.7 566.35 168.05 L566.45 168.1 Q571.35 171.75 572.0 177.3 572.25 179.45 571.85 181.95 L571.8 182.05 Q571.05 186.15 568.8 189.2 L566.45 191.65 563.65 193.6 Q555.85 197.3 545.9 195.85 534.4 194.35 528.85 188.05 526.4 185.25 525.35 182.0 L525.3 181.85 Q524.4 178.9 524.65 175.55 L524.95 173.15 527.55 173.6 544.25 176.35 Q543.35 180.85 546.15 182.0 L548.15 182.35 549.1 182.0 Q551.45 180.8 551.55 178.1 551.55 177.3 550.9 176.5 548.9 174.1 541.0 171.5 530.5 168.05 528.7 160.3 528.1 156.5 528.3 153.4 528.45 151.55 528.85 149.9 M579.0 142.3 Q598.35 145.5 619.8 147.5 L618.2 157.45 617.1 164.1 606.7 162.75 605.4 171.9 604.55 178.5 604.15 181.95 Q603.05 191.3 602.2 201.05 L582.8 198.65 585.55 181.95 586.15 177.8 588.3 160.35 577.45 158.9 579.0 142.3 M623.75 150.15 L641.8 151.75 Q639.75 164.55 638.0 178.0 L637.8 179.75 637.5 181.9 Q636.0 193.75 634.75 206.05 L634.7 206.25 616.3 203.55 619.7 181.95 620.1 179.05 622.65 159.65 623.75 150.15 M500.05 148.45 L502.3 169.2 493.45 169.6 497.75 148.45 500.05 148.45 M487.4 135.7 Q483.4 154.6 478.25 173.85 L476.35 180.75 475.15 185.05 490.15 186.85 492.7 177.05 503.45 176.65 504.25 189.3 520.7 189.0 511.75 137.45 502.5 136.9 487.4 135.7 M472.75 186.55 L474.05 182.05 476.3 173.75 Q481.7 153.55 485.9 133.7 L502.75 135.1 513.4 135.7 521.5 182.55 522.95 190.9 502.45 191.2 501.7 178.45 493.8 178.75 491.9 186.65 491.35 188.8 472.75 186.55 M497.4 167.6 L500.55 167.45 498.85 150.15 496.8 161.4 495.6 167.7 497.4 167.6 M603.75 171.9 L605.55 160.95 615.5 162.3 617.7 149.0 Q598.3 147.1 580.8 144.25 L579.55 157.55 590.45 159.15 588.25 177.9 587.7 181.6 585.2 197.15 600.8 199.05 Q601.55 190.0 602.55 181.3 L602.9 178.45 603.75 171.9 M625.65 152.4 L624.65 161.05 622.3 179.15 621.9 181.7 618.75 201.95 633.3 204.05 Q634.45 192.6 635.85 181.65 L636.1 179.65 636.3 178.05 Q637.9 165.6 639.8 153.65 L625.65 152.4 M364.7 158.05 L364.3 156.25 Q362.75 150.25 359.95 150.55 356.7 150.8 357.75 164.3 L358.35 169.35 Q359.2 174.8 360.95 176.65 361.9 177.6 363.1 177.55 365.95 176.7 366.0 169.65 L366.0 169.6 365.95 168.0 385.85 167.95 385.9 170.35 Q385.85 173.55 385.3 176.25 384.6 179.55 383.1 182.15 377.9 191.15 363.05 191.85 348.45 193.25 341.8 182.85 L341.4 182.2 340.45 180.45 339.6 178.55 Q337.8 174.2 337.0 168.55 L336.6 165.25 Q334.95 138.5 357.65 134.9 380.75 133.95 383.7 153.4 L364.7 158.05 M356.9 169.3 Q356.55 167.05 356.35 164.3 355.25 149.05 359.6 148.7 363.55 148.35 365.55 155.95 L381.8 151.95 Q378.15 136.0 357.95 136.85 336.75 140.2 338.3 165.15 338.45 166.95 338.75 168.6 339.5 173.65 341.1 177.55 L341.9 179.35 342.75 180.95 343.15 181.55 Q349.35 191.25 362.95 189.95 376.8 189.3 381.65 180.9 383.05 178.5 383.7 175.4 384.2 173.05 384.3 170.3 L384.3 169.6 367.3 169.65 Q367.3 178.35 363.25 179.4 361.65 179.4 360.4 178.35 357.95 176.15 356.9 169.3 M334.4 176.65 Q334.25 179.45 334.25 182.2 L334.25 185.1 Q334.35 189.0 334.75 192.9 L299.7 195.25 298.9 185.05 298.65 182.25 297.65 171.8 297.2 167.05 294.4 143.3 Q304.1 142.9 313.6 140.75 L313.75 142.55 314.35 150.8 Q315.05 159.4 316.1 167.75 316.75 173.25 317.55 178.6 L320.65 178.25 334.4 176.65 M332.9 183.95 L332.9 181.25 332.95 178.8 316.1 180.65 Q314.95 173.8 314.15 167.7 312.95 159.15 312.4 151.95 311.95 147.55 311.75 143.0 304.3 144.5 296.7 144.9 L299.3 167.15 299.7 171.4 300.65 181.15 300.85 183.75 301.6 193.4 333.4 191.25 Q333.0 187.6 332.9 183.95 M392.35 180.5 L392.45 186.35 407.15 185.25 406.85 172.5 417.4 170.25 417.6 187.7 432.5 187.25 432.2 180.45 431.85 172.1 431.6 166.5 431.2 144.2 431.2 142.9 431.1 134.05 415.85 135.6 415.8 135.6 416.65 160.25 406.45 162.25 405.2 138.75 390.55 138.7 Q391.65 154.45 392.15 170.6 L392.35 180.5 M390.85 188.45 L390.75 182.15 390.5 170.55 Q389.95 153.5 388.8 136.85 L406.95 136.9 408.05 160.4 408.65 160.3 414.85 158.9 414.05 133.7 432.7 131.8 432.8 141.4 432.8 142.8 433.25 166.95 433.5 172.15 433.9 182.1 434.25 189.45 415.65 190.0 415.6 180.8 415.55 172.5 408.65 173.9 409.05 187.05 390.85 188.45 M475.4 148.25 L476.15 135.15 Q456.8 135.35 439.2 134.3 L439.35 147.4 450.2 147.8 Q450.25 161.85 449.75 172.75 L449.5 176.95 449.1 183.8 448.95 186.15 464.55 186.5 464.5 180.6 464.45 173.3 Q464.45 166.0 464.7 158.9 L465.35 147.9 475.4 148.25 M447.45 178.0 L447.75 172.7 Q448.3 161.1 448.35 149.35 L437.4 149.0 437.2 132.35 Q456.75 133.5 478.3 133.3 L477.35 150.1 466.85 149.8 466.5 158.8 Q466.3 165.95 466.25 173.4 L466.3 182.05 466.35 188.4 446.9 188.0 446.85 188.0 447.05 185.35 447.45 178.0 M184.55 182.35 Q186.8 197.35 188.3 212.05 L201.7 210.05 Q200.0 199.65 198.9 181.8 L201.4 181.25 210.7 199.45 210.8 199.55 223.0 196.85 224.2 174.5 227.0 174.15 233.9 204.65 248.2 202.55 242.65 182.3 Q240.3 173.6 238.25 164.85 L237.45 161.5 235.3 152.2 213.25 156.6 215.55 182.9 212.7 183.35 204.35 161.3 181.7 164.75 184.55 182.35 M186.45 214.15 Q184.85 198.45 182.45 182.35 L179.35 163.55 205.5 159.5 213.5 181.3 212.15 166.3 211.1 155.2 236.75 150.1 239.05 160.05 240.2 164.95 244.6 182.3 250.55 204.0 232.55 206.6 232.3 205.45 232.15 204.9 225.65 176.05 225.0 198.15 209.95 201.5 209.85 201.3 Q206.8 195.8 200.45 183.3 201.3 196.35 203.4 209.75 L203.7 211.55 186.45 214.15 M272.7 185.05 Q273.75 184.4 274.15 182.25 274.95 177.65 272.9 166.15 L270.3 153.95 269.25 149.35 268.8 147.55 287.0 142.4 290.0 152.35 Q292.15 160.25 293.05 166.9 294.25 175.65 293.4 182.25 292.7 187.3 290.75 191.05 L290.15 192.2 288.1 195.1 Q283.2 200.45 274.35 201.65 264.8 202.3 258.4 197.8 L256.05 195.9 Q254.75 194.6 253.6 193.1 L251.4 189.75 Q249.6 186.45 248.35 182.3 246.35 175.65 245.75 166.8 L245.65 165.15 245.45 159.3 245.6 151.4 263.95 150.9 264.05 152.55 Q264.15 156.5 264.4 160.0 L264.9 165.85 Q266.05 177.65 268.35 182.25 269.1 183.8 270.0 184.55 271.0 185.45 272.1 185.25 L272.7 185.05 M270.75 148.95 L271.9 153.35 Q273.85 160.55 274.95 166.25 277.45 178.9 275.85 183.95 275.1 186.25 273.5 186.95 L272.6 187.15 Q270.85 187.4 269.4 186.4 268.05 185.6 267.1 183.95 263.85 178.9 262.85 165.8 L262.55 159.9 Q262.35 156.45 262.45 152.6 L247.45 153.0 247.35 160.3 247.5 165.2 247.6 167.2 Q248.15 175.35 250.0 181.5 251.15 185.3 252.8 188.35 253.75 190.0 254.85 191.45 L257.1 194.0 259.25 195.75 Q265.15 199.9 273.95 199.3 282.1 198.2 286.65 193.3 L288.5 190.6 289.05 189.55 Q290.85 186.1 291.5 181.45 292.35 175.2 291.15 166.85 290.3 160.9 288.4 153.9 L285.6 144.7 270.75 148.95" fill="#ffb600" fill-rule="evenodd" stroke="none"/>
  </g>
  <defs>
    <linearGradient gradientTransform="matrix(-0.0061, 0.0344, -0.0296, -0.0052, 666.15, 185.3)" gradientUnits="userSpaceOnUse" id="gradient0" spreadMethod="pad" x1="-819.2" x2="819.2">
      <stop offset="0.3333333333333333" stop-color="#ffed69"/>
      <stop offset="0.5647058823529412" stop-color="#ffe65a"/>
      <stop offset="1.0" stop-color="#ffca1c"/>
    </linearGradient>
    <linearGradient gradientTransform="matrix(-0.0078, -0.0078, 0.007, -0.007, 665.75, 177.25)" gradientUnits="userSpaceOnUse" id="gradient1" spreadMethod="pad" x1="-819.2" x2="819.2">
      <stop offset="0.1803921568627451" stop-color="#aa27bd"/>
      <stop offset="0.4823529411764706" stop-color="#7a008c"/>
      <stop offset="0.803921568627451" stop-color="#7a008c"/>
      <stop offset="0.9882352941176471" stop-color="#aa27bd"/>
    </linearGradient>
    <linearGradient gradientTransform="matrix(0.0211, 0.0181, -0.0224, 0.0261, 664.85, 194.2)" gradientUnits="userSpaceOnUse" id="gradient2" spreadMethod="pad" x1="-819.2" x2="819.2">
      <stop offset="0.1803921568627451" stop-color="#aa27bd"/>
      <stop offset="0.4823529411764706" stop-color="#7a008c"/>
      <stop offset="0.803921568627451" stop-color="#7a008c"/>
      <stop offset="0.9882352941176471" stop-color="#aa27bd"/>
    </linearGradient>
    <linearGradient gradientTransform="matrix(-0.0039, 0.0329, -1.4199, -0.1674, 544.95, 166.95)" gradientUnits="userSpaceOnUse" id="gradient3" spreadMethod="pad" x1="-819.2" x2="819.2">
      <stop offset="0.3333333333333333" stop-color="#ffed69"/>
      <stop offset="0.5647058823529412" stop-color="#ffe65a"/>
      <stop offset="1.0" stop-color="#ffca1c"/>
    </linearGradient>
    <linearGradient gradientTransform="matrix(0.0227, 0.0083, -0.0068, 0.0186, 544.45, 167.35)" gradientUnits="userSpaceOnUse" id="gradient4" spreadMethod="pad" x1="-819.2" x2="819.2">
      <stop offset="0.1803921568627451" stop-color="#aa27bd"/>
      <stop offset="0.4823529411764706" stop-color="#7a008c"/>
      <stop offset="0.803921568627451" stop-color="#7a008c"/>
      <stop offset="0.9882352941176471" stop-color="#aa27bd"/>
    </linearGradient>
    <linearGradient gradientTransform="matrix(-0.0015, 0.0335, -0.0344, -0.0015, 543.1, 163.9)" gradientUnits="userSpaceOnUse" id="gradient5" spreadMethod="pad" x1="-819.2" x2="819.2">
      <stop offset="0.3333333333333333" stop-color="#ffed69"/>
      <stop offset="0.5647058823529412" stop-color="#ffe65a"/>
      <stop offset="1.0" stop-color="#ffca1c"/>
    </linearGradient>
    <linearGradient gradientTransform="matrix(0.025, 0.0144, -0.0093, 0.0161, 545.2, 188.4)" gradientUnits="userSpaceOnUse" id="gradient6" spreadMethod="pad" x1="-819.2" x2="819.2">
      <stop offset="0.1803921568627451" stop-color="#aa27bd"/>
      <stop offset="0.4823529411764706" stop-color="#7a008c"/>
      <stop offset="0.803921568627451" stop-color="#7a008c"/>
      <stop offset="0.9882352941176471" stop-color="#aa27bd"/>
    </linearGradient>
    <linearGradient gradientTransform="matrix(-0.0074, -0.0043, 0.003, -0.0052, 551.1, 155.75)" gradientUnits="userSpaceOnUse" id="gradient7" spreadMethod="pad" x1="-819.2" x2="819.2">
      <stop offset="0.1803921568627451" stop-color="#aa27bd"/>
      <stop offset="0.4823529411764706" stop-color="#7a008c"/>
      <stop offset="0.803921568627451" stop-color="#7a008c"/>
      <stop offset="0.9882352941176471" stop-color="#aa27bd"/>
    </linearGradient>
    <linearGradient gradientTransform="matrix(-0.0046, 0.0342, -0.0351, -0.0048, 502.55, 160.15)" gradientUnits="userSpaceOnUse" id="gradient8" spreadMethod="pad" x1="-819.2" x2="819.2">
      <stop offset="0.3333333333333333" stop-color="#ffed69"/>
      <stop offset="0.5647058823529412" stop-color="#ffe65a"/>
      <stop offset="1.0" stop-color="#ffca1c"/>
    </linearGradient>
    <linearGradient gradientTransform="matrix(-0.0046, 0.0328, -0.0332, -0.0046, 629.3, 177.75)" gradientUnits="userSpaceOnUse" id="gradient9" spreadMethod="pad" x1="-819.2" x2="819.2">
      <stop offset="0.3333333333333333" stop-color="#ffed69"/>
      <stop offset="0.5647058823529412" stop-color="#ffe65a"/>
      <stop offset="1.0" stop-color="#ffca1c"/>
    </linearGradient>
    <linearGradient gradientTransform="matrix(0.0096, -0.0026, 0.0034, 0.0126, 364.05, 170.05)" gradientUnits="userSpaceOnUse" id="gradient10" spreadMethod="pad" x1="-819.2" x2="819.2">
      <stop offset="0.1803921568627451" stop-color="#aa27bd"/>
      <stop offset="0.4823529411764706" stop-color="#7a008c"/>
      <stop offset="0.803921568627451" stop-color="#7a008c"/>
      <stop offset="0.9882352941176471" stop-color="#aa27bd"/>
    </linearGradient>
    <linearGradient gradientTransform="matrix(0.0035, 0.0348, -0.0299, 0.003, 361.1, 163.3)" gradientUnits="userSpaceOnUse" id="gradient11" spreadMethod="pad" x1="-819.2" x2="819.2">
      <stop offset="0.3333333333333333" stop-color="#ffed69"/>
      <stop offset="0.5647058823529412" stop-color="#ffe65a"/>
      <stop offset="1.0" stop-color="#ffca1c"/>
    </linearGradient>
    <linearGradient gradientTransform="matrix(-0.0277, 0.0075, -0.0069, -0.0255, 368.4, 195.65)" gradientUnits="userSpaceOnUse" id="gradient12" spreadMethod="pad" x1="-819.2" x2="819.2">
      <stop offset="0.1803921568627451" stop-color="#aa27bd"/>
      <stop offset="0.4823529411764706" stop-color="#7a008c"/>
      <stop offset="0.803921568627451" stop-color="#7a008c"/>
      <stop offset="0.9882352941176471" stop-color="#aa27bd"/>
    </linearGradient>
    <linearGradient gradientTransform="matrix(0.0028, 0.0345, -0.0355, 0.0029, 403.95, 160.1)" gradientUnits="userSpaceOnUse" id="gradient13" spreadMethod="pad" x1="-819.2" x2="819.2">
      <stop offset="0.3333333333333333" stop-color="#ffed69"/>
      <stop offset="0.5647058823529412" stop-color="#ffe65a"/>
      <stop offset="1.0" stop-color="#ffca1c"/>
    </linearGradient>
    <linearGradient gradientTransform="matrix(0.0011, 0.0347, -0.0356, 0.0011, 694.85, 153.25)" gradientUnits="userSpaceOnUse" id="gradient14" spreadMethod="pad" x1="-819.2" x2="819.2">
      <stop offset="0.3333333333333333" stop-color="#ffed69"/>
      <stop offset="0.5647058823529412" stop-color="#ffe65a"/>
      <stop offset="1.0" stop-color="#ffca1c"/>
    </linearGradient>
    <linearGradient gradientTransform="matrix(-0.001, 0.0345, -0.0354, -0.0011, 363.05, 158.1)" gradientUnits="userSpaceOnUse" id="gradient15" spreadMethod="pad" x1="-819.2" x2="819.2">
      <stop offset="0.3333333333333333" stop-color="#ffed69"/>
      <stop offset="0.5647058823529412" stop-color="#ffe65a"/>
      <stop offset="1.0" stop-color="#ffca1c"/>
    </linearGradient>
    <linearGradient gradientTransform="matrix(0.0061, 0.0317, 0.035, -0.0068, 214.05, 183.2)" gradientUnits="userSpaceOnUse" id="gradient16" spreadMethod="pad" x1="-819.2" x2="819.2">
      <stop offset="0.3333333333333333" stop-color="#ffed69"/>
      <stop offset="0.5647058823529412" stop-color="#ffe65a"/>
      <stop offset="1.0" stop-color="#ffca1c"/>
    </linearGradient>
    <linearGradient gradientTransform="matrix(0.0045, 0.0319, -0.0353, 0.005, 390.5, 156.35)" gradientUnits="userSpaceOnUse" id="gradient17" spreadMethod="pad" x1="-819.2" x2="819.2">
      <stop offset="0.3333333333333333" stop-color="#ffed69"/>
      <stop offset="0.5647058823529412" stop-color="#ffe65a"/>
      <stop offset="1.0" stop-color="#ffca1c"/>
    </linearGradient>
    <linearGradient gradientTransform="matrix(-0.0227, 0.0172, -0.0236, -0.0311, 267.15, 177.7)" gradientUnits="userSpaceOnUse" id="gradient18" spreadMethod="pad" x1="-819.2" x2="819.2">
      <stop offset="0.1803921568627451" stop-color="#aa27bd"/>
      <stop offset="0.4823529411764706" stop-color="#7a008c"/>
      <stop offset="0.803921568627451" stop-color="#7a008c"/>
      <stop offset="0.9882352941176471" stop-color="#aa27bd"/>
    </linearGradient>
  </defs>
</svg>
