<?xml version="1.0" encoding="UTF-8" standalone="no"?>
<svg xmlns:ffdec="https://www.free-decompiler.com/flash" xmlns:xlink="http://www.w3.org/1999/xlink" ffdec:objectType="shape" height="126.75px" width="48.0px" xmlns="http://www.w3.org/2000/svg">
  <g transform="matrix(1.0, 0.0, 0.0, 1.0, 0.0, 0.0)">
    <path d="M48.0 21.15 L48.0 44.0 Q48.0 45.9 46.7 47.4 L45.4 49.1 Q45.0 49.5 44.8 50.05 44.45 50.8 44.5 51.8 L44.5 55.05 Q44.5 55.7 44.75 56.25 L45.4 57.4 46.7 59.1 Q47.45 59.95 47.8 61.0 L48.0 62.4 48.0 93.85 Q47.7 98.6 45.45 101.75 L31.05 120.6 Q26.2 126.35 18.45 126.75 L0.0 126.75 0.0 3.65 18.2 3.65 Q21.9 3.65 23.8 1.8 25.65 -0.05 28.0 0.0 L31.1 0.0 Q35.3 0.25 37.7 3.0 L45.3 12.95 Q47.8 16.6 48.0 21.15" fill="#40f30d" fill-rule="evenodd" stroke="none"/>
  </g>
</svg>
