<?xml version="1.0" encoding="UTF-8" standalone="no"?>
<svg xmlns:ffdec="https://www.free-decompiler.com/flash" xmlns:xlink="http://www.w3.org/1999/xlink" ffdec:objectType="shape" height="47.0px" width="40.9px" xmlns="http://www.w3.org/2000/svg">
  <g transform="matrix(1.0, 0.0, 0.0, 1.0, 9.4, 6.45)">
    <path d="M0.6 -6.45 L21.5 -6.45 Q31.5 -6.45 31.5 3.55 L31.5 30.55 Q31.5 40.55 21.5 40.55 L0.6 40.55 Q-9.4 40.55 -9.4 30.55 L-9.4 3.55 Q-9.4 -6.45 0.6 -6.45" fill="#0056b6" fill-rule="evenodd" stroke="none"/>
    <path d="M4.3 6.9 L6.05 4.15 Q8.4 1.1 10.8 4.15 L15.5 10.3 Q18.3 14.25 18.3 18.6 L18.3 32.75 18.25 33.55 15.95 33.95 8.3 33.95 Q1.85 34.2 2.35 27.45 L2.35 13.6 Q2.4 9.6 4.3 6.9 M11.65 7.9 Q9.95 5.75 8.35 7.9 L5.05 12.15 Q3.1 14.9 3.1 17.9 L3.1 27.55 Q3.15 32.25 7.65 32.05 L12.9 32.05 Q16.75 31.95 16.85 27.7 L16.85 17.9 Q16.85 14.9 14.9 12.15 L11.65 7.9 M18.5 34.55 L18.9 33.25 19.35 32.95 18.5 34.55" fill="#03a9f5" fill-rule="evenodd" stroke="none"/>
    <path d="M18.25 33.55 L18.9 33.25 18.5 34.55 17.45 35.0 14.95 35.15 7.3 35.15 Q1.6 35.0 1.35 29.15 L1.35 15.15 Q1.2 11.45 2.35 8.95 L1.3 10.3 1.25 10.4 1.65 9.6 2.8 7.7 7.55 1.55 8.5 0.6 8.35 0.75 3.6 6.9 3.4 7.2 3.35 7.3 3.35 7.35 3.6 7.2 Q3.9 7.0 4.3 6.9 2.4 9.6 2.35 13.6 L2.35 27.45 Q1.85 34.2 8.3 33.95 L15.95 33.95 18.25 33.55" fill="#007cd4" fill-rule="evenodd" stroke="none"/>
    <path d="M18.25 33.55 L18.3 32.75 18.3 18.6 Q18.3 14.25 15.5 10.3 L10.8 4.15 Q8.4 1.1 6.05 4.15 L4.3 6.9 Q3.9 7.0 3.6 7.2 L3.35 7.35 3.35 7.3 3.4 7.2 6.85 2.75 Q9.2 -0.3 11.6 2.75 L16.3 8.9 Q19.1 12.85 19.1 17.2 L19.1 31.35 18.9 33.25 18.25 33.55" fill="#29c7fc" fill-rule="evenodd" stroke="none"/>
    <path d="M18.9 33.25 L19.1 31.35 19.1 17.2 Q19.1 12.85 16.3 8.9 L11.6 2.75 Q9.2 -0.3 6.85 2.75 L3.4 7.2 3.6 6.9 8.35 0.75 8.5 0.6 Q10.4 -0.9 12.3 1.55 L17.0 7.7 Q19.8 11.65 19.8 16.0 L19.8 30.15 Q19.75 31.75 19.35 32.95 L18.9 33.25" fill="#64e1ff" fill-rule="evenodd" stroke="none"/>
    <path d="M1.25 10.4 L1.3 10.3 2.35 8.95 Q1.2 11.45 1.35 15.15 L1.35 29.15 Q1.6 35.0 7.3 35.15 L14.95 35.15 17.45 35.0 18.5 34.55 18.0 35.1 Q16.6 36.35 14.15 36.45 L6.5 36.45 Q0.05 36.7 0.0 29.95 L0.0 16.0 Q0.0 13.1 1.25 10.4" fill="#0a63c6" fill-rule="evenodd" stroke="none"/>
    <path d="M11.65 7.9 L14.9 12.15 Q16.85 14.9 16.85 17.9 L16.85 27.7 Q16.75 31.95 12.9 32.05 L7.65 32.05 Q3.15 32.25 3.1 27.55 L3.1 17.9 Q3.1 14.9 5.05 12.15 L8.35 7.9 Q9.95 5.75 11.65 7.9" fill="url(#gradient0)" fill-rule="evenodd" stroke="none"/>
    <path d="M15.05 6.4 Q17.1 9.05 18.35 13.2 15.8 7.6 12.0 5.1 7.35 4.3 8.35 2.95 9.7 0.35 12.0 2.8 L15.05 6.4" fill="#ffffff" fill-rule="evenodd" stroke="none"/>
  </g>
  <defs>
    <radialGradient cx="0" cy="0" gradientTransform="matrix(0.0311, 0.0, 0.0, 0.0216, 10.4, 28.9)" gradientUnits="userSpaceOnUse" id="gradient0" r="819.2" spreadMethod="pad">
      <stop offset="0.3333333333333333" stop-color="#27bbff"/>
      <stop offset="0.5803921568627451" stop-color="#03a9f5"/>
      <stop offset="0.9058823529411765" stop-color="#0091e2"/>
    </radialGradient>
  </defs>
</svg>
