<?xml version="1.0" encoding="UTF-8" standalone="no"?>
<svg xmlns:ffdec="https://www.free-decompiler.com/flash" xmlns:xlink="http://www.w3.org/1999/xlink" ffdec:objectType="shape" height="492.8px" width="410.2px" xmlns="http://www.w3.org/2000/svg">
  <g transform="matrix(1.0, 0.0, 0.0, 1.0, 23.9, 20.9)">
    <path d="M358.2 -19.6 Q386.3 -16.2 386.3 -3.9 L386.3 60.65 355.3 60.65 355.3 454.9 Q355.3 471.9 338.3 471.9 L-6.9 471.9 Q-23.9 471.9 -23.9 454.9 L-23.9 -3.9 Q-23.9 -20.9 -6.9 -20.9 L338.3 -20.9 Q343.0 -20.9 346.4 -19.6 L358.2 -19.6" fill="#bd3400" fill-rule="evenodd" stroke="none"/>
    <path d="M341.9 3.5 L341.65 4.0 346.35 4.55 355.65 4.9 Q363.75 4.9 367.15 6.25 369.6 7.2 370.9 8.65 372.45 10.3 373.0 13.25 373.55 16.05 373.7 19.5 L373.7 22.65 Q373.9 24.8 375.0 25.0 L374.65 27.45 374.6 27.4 374.6 27.65 Q374.6 28.85 372.9 31.15 371.15 33.45 368.65 33.55 L363.4 33.65 360.2 33.55 348.5 33.5 Q344.15 33.45 342.1 31.85 340.65 30.75 340.65 29.4 L340.7 28.7 339.9 26.75 339.85 28.0 Q339.7 29.75 339.75 28.45 339.8 27.1 339.45 24.9 339.1 22.7 338.75 22.05 338.4 21.4 339.15 15.2 L339.95 7.8 Q339.95 6.5 341.4 3.65 L341.9 3.5 M367.9 26.9 L368.15 26.45 368.45 26.15 Q369.4 24.5 369.4 21.95 L369.4 14.0 Q369.4 7.25 362.75 7.25 L352.25 7.25 Q348.7 7.25 347.05 9.2 L346.85 9.55 346.55 9.9 Q345.1 11.55 345.1 14.7 L345.1 22.65 Q345.1 29.45 351.75 29.45 L362.25 29.45 Q366.35 29.45 367.9 26.9" fill="#ff792a" fill-rule="evenodd" stroke="none"/>
    <path d="M338.1 36.7 L339.5 35.35 340.0 34.85 Q339.75 35.05 340.45 32.6 L340.8 33.1 Q340.85 33.85 341.65 34.45 343.15 35.6 347.05 35.6 L350.5 35.5 350.55 35.45 358.75 35.55 363.25 35.65 369.75 35.15 Q372.45 34.65 373.65 32.55 374.8 30.45 374.8 28.55 L374.75 27.75 Q375.6 26.85 375.6 28.75 375.6 32.55 373.15 35.85 372.75 37.35 347.95 37.15 L347.9 37.2 Q344.1 37.15 342.0 42.0 341.65 42.75 341.45 43.45 L341.4 43.6 341.2 47.5 Q341.05 49.85 340.55 51.35 L340.45 51.35 340.2 47.9 340.15 47.6 Q339.9 47.05 339.9 46.05 L339.95 45.3 339.9 44.45 339.6 43.5 339.8 42.0 339.6 41.0 339.85 39.7 339.8 39.7 339.35 39.55 339.35 39.45 339.2 39.25 339.15 38.95 339.35 37.45 338.85 37.25 Q336.75 38.05 338.1 36.7" fill="#bd3400" fill-rule="evenodd" stroke="none"/>
    <path d="M341.4 3.65 Q339.95 6.5 339.95 7.8 L339.15 15.2 Q338.4 21.4 338.75 22.05 339.1 22.7 339.45 24.9 339.8 27.1 339.75 28.45 339.7 29.75 339.85 28.0 L339.9 26.75 340.7 28.7 340.65 29.4 Q340.65 30.75 342.1 31.85 344.15 33.45 348.5 33.5 L360.2 33.55 363.4 33.65 368.65 33.55 Q371.15 33.45 372.9 31.15 374.6 28.85 374.6 27.65 L374.6 27.4 374.65 27.45 374.75 27.75 374.8 28.55 Q374.8 30.45 373.65 32.55 372.45 34.65 369.75 35.15 L363.25 35.65 358.75 35.55 350.55 35.45 350.5 35.5 347.05 35.6 Q343.15 35.6 341.65 34.45 340.85 33.85 340.8 33.1 L340.45 32.6 Q339.75 35.05 340.0 34.85 L339.5 35.35 338.1 36.7 337.3 35.8 336.8 34.85 336.1 33.3 334.55 28.95 Q333.75 27.35 333.45 24.75 L332.8 20.35 332.8 16.05 332.7 14.55 Q332.7 10.35 335.35 8.5 L334.8 8.05 Q333.8 7.0 333.8 6.05 333.8 5.7 334.2 5.7 334.65 5.7 335.4 6.6 L335.5 6.7 Q335.9 6.95 336.5 7.35 L336.6 7.4 337.05 7.45 Q338.25 7.45 339.1 6.1 339.9 4.7 340.65 4.05 340.95 3.8 341.4 3.65" fill="#ec5911" fill-rule="evenodd" stroke="none"/>
    <path d="M375.0 25.0 Q373.9 24.8 373.7 22.65 L373.7 19.5 Q373.55 16.05 373.0 13.25 372.45 10.3 370.9 8.65 369.6 7.2 367.15 6.25 363.75 4.9 355.65 4.9 L346.35 4.55 341.65 4.0 341.9 3.5 343.6 3.25 344.15 3.2 347.45 3.45 356.75 3.8 Q364.85 3.8 368.25 5.15 370.7 6.1 372.0 7.55 373.55 9.2 374.1 12.15 374.65 14.95 374.8 18.4 L374.8 21.55 375.1 22.95 375.0 25.0" fill="#ffa956" fill-rule="evenodd" stroke="none"/>
    <path d="M375.1 22.95 L374.8 21.55 374.8 18.4 Q374.65 14.95 374.1 12.15 373.55 9.2 372.0 7.55 370.7 6.1 368.25 5.15 364.85 3.8 356.75 3.8 L347.45 3.45 344.15 3.2 352.1 2.7 363.45 2.95 Q368.3 3.3 370.2 4.25 371.95 5.15 372.95 6.8 374.35 9.35 374.6 11.85 L375.1 21.9 375.1 22.95 M367.9 26.9 Q366.35 29.45 362.25 29.45 L351.75 29.45 Q345.1 29.45 345.1 22.65 L345.1 14.7 Q345.1 11.55 346.55 9.9 345.6 11.45 345.6 14.0 L345.6 21.95 Q345.6 28.75 352.25 28.75 L362.75 28.75 Q366.25 28.75 367.9 26.9" fill="#ffcb66" fill-rule="evenodd" stroke="none"/>
    <path d="M346.55 9.9 L346.85 9.55 347.05 9.2 Q348.7 7.25 352.25 7.25 L362.75 7.25 Q369.4 7.25 369.4 14.0 L369.4 21.95 Q369.4 24.5 368.45 26.15 L368.15 26.45 367.9 26.9 Q366.25 28.75 362.75 28.75 L352.25 28.75 Q345.6 28.75 345.6 21.95 L345.6 14.0 Q345.6 11.45 346.55 9.9" fill="#e24a00" fill-rule="evenodd" stroke="none"/>
    <path d="M29.55 16.2 Q14.25 16.2 14.25 31.5 L14.25 422.25 Q14.25 437.55 29.55 437.55 L313.45 437.55 Q328.7 437.55 328.7 422.25 L328.7 31.5 Q328.7 16.2 313.45 16.2 L29.55 16.2 M27.9 13.8 L315.05 13.8 Q330.5 13.8 330.5 29.25 L330.5 424.5 Q330.5 439.95 315.05 439.95 L27.9 439.95 Q12.45 439.95 12.45 424.5 L12.45 29.25 Q12.45 13.8 27.9 13.8" fill="#bd3400" fill-rule="evenodd" stroke="none"/>
    <path d="M4.95 10.6 L5.35 9.5 5.8 8.55 6.05 8.1 6.45 7.45 6.9 6.9 7.4 6.25 Q8.7 4.75 10.5 3.7 15.9 0.45 25.7 1.15 L171.55 0.0 317.4 1.15 Q343.8 0.7 357.6 1.1 L358.85 1.05 365.35 0.9 Q369.8 0.7 372.1 2.65 373.5 3.85 373.75 5.1 374.3 5.6 374.6 6.45 374.95 7.3 375.1 9.15 L375.45 11.6 375.85 13.95 375.85 14.0 375.85 14.45 375.85 15.0 375.8 14.8 375.55 13.4 375.4 12.75 375.0 11.55 Q375.35 11.45 374.75 10.1 373.6 6.4 372.7 5.75 371.7 4.95 371.2 4.75 369.6 4.05 361.75 3.05 L358.3 3.05 358.0 3.1 355.05 3.1 352.6 3.35 349.15 3.35 346.6 3.3 345.55 3.55 340.05 3.55 338.35 3.35 335.2 3.3 334.8 3.2 330.35 3.2 320.7 3.85 316.8 4.3 315.8 4.35 169.95 3.2 24.1 4.35 Q14.4 2.7 11.45 4.15 8.45 5.6 7.45 6.75 L7.35 6.85 6.9 7.4 6.35 8.2 6.05 8.7 5.3 10.05 4.95 10.6 M340.2 27.55 L340.45 32.8 340.55 34.7 341.05 47.45 Q340.2 36.4 339.85 27.35 L340.2 27.55 M341.15 49.5 Q342.15 79.5 342.85 132.95 343.25 162.55 343.05 198.4 L342.7 214.1 342.7 217.45 Q342.6 219.35 341.8 220.2 L340.2 221.6 Q340.9 219.9 341.1 217.3 L341.1 216.8 341.45 201.6 Q341.65 165.75 341.25 136.15 340.55 83.9 341.15 49.5" fill="#ffcb66" fill-rule="evenodd" stroke="none"/>
    <path d="M375.85 13.95 L375.85 14.05 375.85 14.0 375.85 13.95 M341.05 47.45 L341.15 48.6 341.15 49.5 Q340.55 83.9 341.25 136.15 341.65 165.75 341.45 201.6 L341.1 216.8 341.1 217.3 Q340.9 219.9 340.2 221.6 L338.85 222.75 Q339.65 221.8 340.0 219.35 L340.0 218.95 340.25 203.6 Q340.45 167.75 339.75 99.7 339.15 49.05 339.7 27.9 L339.85 27.3 339.85 27.35 Q340.2 36.4 341.05 47.45 M4.7 11.35 L4.95 10.6 5.3 10.05 6.05 8.7 6.35 8.2 6.9 7.4 7.35 6.85 7.45 6.75 Q8.45 5.6 11.45 4.15 14.4 2.7 24.1 4.35 L169.95 3.2 315.8 4.35 316.8 4.3 320.7 3.85 330.35 3.2 334.8 3.2 335.2 3.3 338.35 3.35 340.05 3.55 345.55 3.55 346.6 3.3 349.15 3.35 352.6 3.35 355.05 3.1 358.0 3.1 358.3 3.05 361.75 3.05 Q369.6 4.05 371.2 4.75 371.7 4.95 372.7 5.75 373.6 6.4 374.75 10.1 375.35 11.45 375.0 11.55 374.6 10.6 374.05 10.2 L373.8 10.05 Q372.85 8.75 371.15 8.2 L370.0 7.6 369.0 7.3 364.6 6.6 359.65 6.3 342.8 6.3 342.6 6.35 336.45 6.4 336.25 6.5 319.65 6.5 318.6 6.25 314.6 6.35 168.75 5.2 22.9 6.35 Q13.0 4.35 10.2 5.85 L7.3 7.65 6.95 7.95 6.8 8.1 6.2 8.95 5.8 9.65 5.25 10.5 4.7 11.35" fill="#ffa956" fill-rule="evenodd" stroke="none"/>
    <path d="M375.85 15.0 L376.0 16.8 375.9 16.8 Q375.8 18.2 375.85 20.65 375.8 22.9 375.3 24.5 L375.0 26.35 374.65 28.25 374.5 28.6 372.25 28.6 372.2 28.5 372.25 28.25 369.55 28.1 372.35 27.8 372.4 27.65 Q373.65 27.0 374.4 26.7 L374.6 24.9 374.55 24.65 374.55 17.55 374.2 13.8 Q373.9 11.5 372.45 10.2 372.65 9.85 373.05 9.85 L373.8 10.05 374.05 10.2 Q374.6 10.6 375.0 11.55 L375.4 12.75 375.55 13.4 375.8 14.8 375.85 15.0 M372.75 13.75 Q372.85 15.75 372.0 15.75 371.55 15.75 371.4 15.55 371.1 15.2 371.05 14.25 L371.1 13.15 370.8 12.05 370.8 10.75 371.6 10.45 Q372.25 11.55 372.75 13.75 M370.7 9.1 L368.7 8.15 Q364.0 6.2 353.0 6.65 342.0 7.1 341.85 10.6 341.65 14.05 341.8 14.65 L341.95 15.3 341.95 15.45 341.55 17.2 341.35 17.85 341.45 18.25 340.95 19.7 340.6 20.9 340.55 21.1 340.7 21.25 340.9 20.9 Q341.0 20.75 341.3 20.75 341.8 20.75 341.8 22.05 L341.05 24.9 Q341.65 25.3 342.15 26.2 L342.8 27.95 Q342.6 29.25 340.4 27.5 L340.2 27.55 339.85 27.35 339.85 27.3 339.7 27.9 Q339.15 49.05 339.75 99.7 340.45 167.75 340.25 203.6 L340.0 218.95 340.0 219.35 Q339.65 221.8 338.85 222.75 L338.5 223.05 338.1 223.6 Q337.7 224.55 337.65 225.45 337.15 226.7 337.1 231.3 337.05 235.9 337.5 238.25 337.7 240.7 338.8 241.95 L341.4 245.1 Q342.05 246.1 342.35 247.25 L342.1 260.05 Q342.05 261.95 341.25 262.8 L337.9 265.65 337.5 266.2 Q337.05 267.15 337.0 268.05 336.5 269.25 336.45 273.85 336.3 278.45 336.8 280.8 336.95 283.3 338.05 284.55 L340.65 287.65 Q341.3 288.7 341.55 289.85 L341.25 302.8 Q341.15 304.7 340.35 305.55 L337.0 308.35 336.6 308.9 Q336.15 309.85 336.1 310.75 335.6 311.95 335.5 316.55 335.35 321.15 335.8 323.5 335.95 326.0 337.05 327.25 L339.6 330.4 Q340.25 331.45 340.5 332.6 L340.15 348.15 Q340.05 349.85 339.3 350.6 L336.2 353.0 335.85 353.45 Q335.4 354.3 335.4 355.1 334.9 356.15 334.8 360.2 334.6 364.25 335.0 366.3 335.1 368.5 336.1 369.6 L338.4 372.35 338.4 375.05 337.8 388.6 336.6 425.85 Q336.2 432.1 334.1 437.1 332.7 440.45 330.3 442.8 324.7 448.4 314.55 449.55 L313.55 449.65 Q243.55 454.0 172.95 453.9 101.85 454.0 31.3 449.55 20.45 448.65 14.6 442.8 8.7 436.95 8.7 424.85 L7.4 385.15 Q7.05 371.5 6.35 371.4 L5.6 371.6 4.35 372.65 4.45 372.4 6.8 369.6 Q7.8 368.5 7.9 366.3 8.3 364.25 8.1 360.2 8.0 356.15 7.5 355.1 7.5 354.3 7.05 353.45 L6.7 353.0 3.6 350.6 Q2.85 349.85 2.75 348.15 L2.4 332.6 Q2.65 331.45 3.3 330.4 L5.85 327.25 Q6.95 326.0 7.1 323.5 7.55 321.15 7.4 316.55 7.3 311.95 6.8 310.75 6.75 309.85 6.3 308.9 L5.9 308.35 2.55 305.55 Q1.75 304.7 1.65 302.8 L1.35 289.85 Q1.6 288.7 2.25 287.65 L4.85 284.55 Q5.95 283.3 6.1 280.8 6.6 278.45 6.45 273.85 6.4 269.25 5.9 268.05 5.85 267.15 5.4 266.2 L5.0 265.65 1.65 262.8 Q0.85 261.95 0.8 260.05 L0.55 247.25 Q0.85 246.1 1.5 245.1 L4.1 241.95 Q5.2 240.7 5.4 238.25 5.85 235.9 5.8 231.3 5.75 226.7 5.25 225.45 L4.8 223.6 4.4 223.05 2.5 221.45 2.8 208.8 Q2.4 164.85 2.85 129.75 4.25 23.85 5.5 14.2 L6.2 8.95 6.8 8.1 6.95 7.95 7.3 7.65 10.2 5.85 Q13.0 4.35 22.9 6.35 L168.75 5.2 314.6 6.35 318.6 6.25 319.65 6.5 336.25 6.5 336.45 6.4 342.6 6.35 342.8 6.3 359.65 6.3 364.6 6.6 369.0 7.3 Q368.6 7.35 368.6 7.75 L368.7 7.95 Q369.8 8.45 370.7 9.1 M322.15 442.15 Q332.95 439.4 332.95 425.85 L332.95 27.4 Q332.95 10.4 315.95 10.4 L27.0 10.4 Q13.05 10.4 10.55 21.85 10.0 24.35 10.0 27.4 L9.4 425.65 Q9.25 443.25 27.2 443.45 L315.95 442.85 322.15 442.15" fill="url(#gradient0)" fill-rule="evenodd" stroke="none"/>
    <path d="M373.65 30.25 L372.5 31.6 372.25 31.6 372.2 31.5 373.15 29.1 373.0 29.2 373.0 29.0 372.75 29.05 Q372.4 29.05 372.25 28.8 L372.25 28.6 374.5 28.6 373.75 30.05 373.65 30.25 M372.4 27.65 L372.8 25.75 Q373.35 23.15 373.35 20.8 373.35 17.5 372.9 14.65 L372.75 13.75 Q372.25 11.55 371.6 10.45 L371.0 9.7 371.4 9.65 370.7 9.1 Q369.8 8.45 368.7 7.95 L368.6 7.75 Q368.6 7.35 369.0 7.3 L370.0 7.6 371.15 8.2 Q372.85 8.75 373.8 10.05 L373.05 9.85 Q372.65 9.85 372.45 10.2 373.9 11.5 374.2 13.8 L374.55 17.55 374.55 24.65 374.6 24.9 374.4 26.7 Q373.65 27.0 372.4 27.65 M29.55 16.2 L313.45 16.2 Q328.7 16.2 328.7 31.5 L328.7 422.25 Q328.7 437.55 313.45 437.55 L29.55 437.55 Q14.25 437.55 14.25 422.25 L14.25 31.5 Q14.25 16.2 29.55 16.2" fill="#ff792a" fill-rule="evenodd" stroke="none"/>
    <path d="M342.7 217.45 L342.65 220.45 Q342.6 222.05 341.6 222.65 L340.7 223.2 338.65 224.4 Q338.05 224.7 337.65 225.45 337.7 224.55 338.1 223.6 L338.5 223.05 338.85 222.75 340.2 221.6 341.8 220.2 Q342.6 219.35 342.7 217.45 M342.1 260.05 L342.1 263.05 Q342.0 264.65 341.0 265.25 L340.25 265.7 338.0 267.0 Q337.4 267.3 337.0 268.05 337.05 267.15 337.5 266.2 L337.9 265.65 341.25 262.8 Q342.05 261.95 342.1 260.05 M341.25 302.8 L341.2 305.8 Q341.1 307.4 340.1 308.0 L339.4 308.4 337.1 309.7 336.1 310.75 Q336.15 309.85 336.6 308.9 L337.0 308.35 340.35 305.55 Q341.15 304.7 341.25 302.8 M340.15 348.15 L340.1 350.8 Q340.0 352.2 339.05 352.75 L338.2 353.2 336.3 354.2 Q335.75 354.45 335.4 355.1 335.4 354.3 335.85 353.45 L336.2 353.0 339.3 350.6 Q340.05 349.85 340.15 348.15" fill="#f75100" fill-rule="evenodd" stroke="none"/>
    <path d="M340.55 241.55 L340.95 241.9 Q342.35 243.05 342.35 244.7 L342.35 247.25 Q342.05 246.1 341.4 245.1 L338.8 241.95 Q337.7 240.7 337.5 238.25 337.75 239.15 338.5 239.75 L340.55 241.55 M339.9 284.25 L340.2 284.5 Q341.45 285.45 341.55 287.3 L341.55 289.85 Q341.3 288.7 340.65 287.65 L338.05 284.55 Q336.95 283.3 336.8 280.8 337.05 281.75 337.75 282.35 L339.9 284.25 M338.95 327.0 L339.2 327.2 Q340.75 328.5 340.55 330.05 L340.5 332.6 Q340.25 331.45 339.6 330.4 L337.05 327.25 Q335.95 326.0 335.8 323.5 336.05 324.45 336.75 325.05 L338.95 327.0 M337.7 369.3 L338.05 369.6 Q339.35 370.65 339.3 372.1 L339.2 374.35 338.75 372.95 338.45 372.4 338.4 372.35 336.1 369.6 Q335.1 368.5 335.0 366.3 335.25 367.15 335.8 367.65 L337.7 369.3" fill="#ffb862" fill-rule="evenodd" stroke="none"/>
    <path d="M339.2 374.35 L339.2 376.5 339.15 377.7 339.05 382.15 337.4 429.85 Q337.4 437.15 335.3 442.2 333.85 445.6 331.45 448.0 325.55 453.9 314.55 454.8 243.35 459.3 171.55 459.2 99.75 459.3 28.55 454.8 17.55 453.9 11.65 448.0 5.7 442.05 5.7 429.85 L3.95 378.6 3.7 374.35 3.75 374.1 Q4.75 372.55 5.4 372.95 L5.65 373.3 Q6.35 375.2 6.45 387.2 6.55 401.0 7.5 427.05 8.1 439.05 14.0 444.9 19.85 450.75 30.7 451.65 101.25 456.1 172.35 456.0 243.45 456.1 313.95 451.65 324.85 450.75 330.7 444.9 333.1 442.55 334.5 439.2 336.6 434.2 337.0 427.95 L338.2 390.7 338.8 377.15 338.75 372.95 339.2 374.35 M0.2 217.45 L0.2 212.0 Q-0.2 168.05 0.25 132.95 1.65 25.6 4.35 12.7 L4.7 11.35 5.25 10.5 4.65 14.8 Q3.5 23.4 2.55 94.15 1.6 164.85 2.0 208.8 L1.8 220.85 1.1 220.2 Q0.3 219.35 0.2 217.45" fill="#e24a00" fill-rule="evenodd" stroke="none"/>
    <path d="M6.2 8.95 L5.5 14.2 Q4.25 23.85 2.85 129.75 2.4 164.85 2.8 208.8 L2.5 221.45 1.8 220.85 2.0 208.8 Q1.6 164.85 2.55 94.15 3.5 23.4 4.65 14.8 L5.25 10.5 5.8 9.65 6.2 8.95 M338.4 372.35 L338.45 372.4 338.75 372.95 338.8 377.15 338.2 390.7 337.0 427.95 Q336.6 434.2 334.5 439.2 333.1 442.55 330.7 444.9 324.85 450.75 313.95 451.65 243.45 456.1 172.35 456.0 101.25 456.1 30.7 451.65 19.85 450.75 14.0 444.9 8.1 439.05 7.5 427.05 6.55 401.0 6.45 387.2 6.35 375.2 5.65 373.3 L5.4 372.95 Q4.75 372.55 3.75 374.1 L4.1 373.1 4.35 372.65 5.6 371.6 6.35 371.4 Q7.05 371.5 7.4 385.15 L8.7 424.85 Q8.7 436.95 14.6 442.8 20.45 448.65 31.3 449.55 101.85 454.0 172.95 453.9 243.55 454.0 313.55 449.65 L314.55 449.55 Q324.7 448.4 330.3 442.8 332.7 440.45 334.1 437.1 336.2 432.1 336.6 425.85 L337.8 388.6 338.4 375.05 338.4 372.35" fill="#f86d21" fill-rule="evenodd" stroke="none"/>
    <path d="M5.0 353.35 L3.85 352.75 Q2.9 352.2 2.8 350.8 L2.75 348.15 Q2.85 349.85 3.6 350.6 L6.7 353.0 7.05 353.45 Q7.5 354.3 7.5 355.1 L6.6 354.2 5.0 353.35 M3.8 308.6 L2.8 308.0 Q1.8 307.4 1.7 305.8 L1.65 302.8 Q1.75 304.7 2.55 305.55 L5.9 308.35 6.3 308.9 Q6.75 309.85 6.8 310.75 6.4 310.0 5.8 309.7 L3.8 308.6 M3.0 265.9 L1.9 265.25 Q0.9 264.65 0.8 263.05 L0.8 260.05 Q0.85 261.95 1.65 262.8 L5.0 265.65 5.4 266.2 Q5.85 267.15 5.9 268.05 5.5 267.3 4.9 267.0 L3.0 265.9 M2.5 223.4 L1.3 222.65 Q0.3 222.05 0.25 220.45 L0.2 217.45 Q0.3 219.35 1.1 220.2 L1.8 220.85 2.5 221.45 4.4 223.05 4.8 223.6 5.25 225.45 Q4.85 224.7 4.25 224.4 L2.5 223.4" fill="#c93f0b" fill-rule="evenodd" stroke="none"/>
    <path d="M340.7 223.2 L340.55 241.55 338.5 239.75 Q337.75 239.15 337.5 238.25 337.05 235.9 337.1 231.3 337.15 226.7 337.65 225.45 338.05 224.7 338.65 224.4 L340.7 223.2 M340.25 265.7 L339.9 284.25 337.75 282.35 Q337.05 281.75 336.8 280.8 336.3 278.45 336.45 273.85 336.5 269.25 337.0 268.05 337.4 267.3 338.0 267.0 L340.25 265.7 M339.4 308.4 L338.95 327.0 336.75 325.05 Q336.05 324.45 335.8 323.5 335.35 321.15 335.5 316.55 335.6 311.95 336.1 310.75 L337.1 309.7 339.4 308.4 M338.2 353.2 L337.7 369.3 335.8 367.65 Q335.25 367.15 335.0 366.3 334.6 364.25 334.8 360.2 334.9 356.15 335.4 355.1 335.75 354.45 336.3 354.2 L338.2 353.2 M5.5 369.05 L5.0 353.35 6.6 354.2 7.5 355.1 Q8.0 356.15 8.1 360.2 8.3 364.25 7.9 366.3 L7.1 367.65 5.5 369.05 M4.25 326.75 L3.8 308.6 5.8 309.7 Q6.4 310.0 6.8 310.75 7.3 311.95 7.4 316.55 7.55 321.15 7.1 323.5 6.85 324.45 6.15 325.05 L4.25 326.75 M3.3 284.0 L3.0 265.9 4.9 267.0 Q5.5 267.3 5.9 268.05 6.4 269.25 6.45 273.85 6.6 278.45 6.1 280.8 5.85 281.75 5.15 282.35 L3.3 284.0 M2.7 241.3 L2.5 223.4 4.25 224.4 Q4.85 224.7 5.25 225.45 5.75 226.7 5.8 231.3 5.85 235.9 5.4 238.25 5.15 239.15 4.4 239.75 L2.7 241.3" fill="#e55404" fill-rule="evenodd" stroke="none"/>
    <path d="M3.7 374.35 L3.6 372.1 Q3.55 370.65 4.85 369.6 L5.5 369.05 7.1 367.65 7.9 366.3 Q7.8 368.5 6.8 369.6 L4.45 372.4 4.35 372.65 4.1 373.1 3.75 374.1 3.7 374.35 M2.4 332.6 L2.35 330.05 Q2.15 328.5 3.7 327.2 L4.25 326.75 6.15 325.05 Q6.85 324.45 7.1 323.5 6.95 326.0 5.85 327.25 L3.3 330.4 Q2.65 331.45 2.4 332.6 M1.35 289.85 L1.35 287.3 Q1.45 285.45 2.7 284.5 L3.3 284.0 5.15 282.35 Q5.85 281.75 6.1 280.8 5.95 283.3 4.85 284.55 L2.25 287.65 Q1.6 288.7 1.35 289.85 M0.55 247.25 L0.55 244.7 Q0.55 243.05 1.95 241.9 L2.7 241.3 4.4 239.75 Q5.15 239.15 5.4 238.25 5.2 240.7 4.1 241.95 L1.5 245.1 Q0.85 246.1 0.55 247.25" fill="#ffa54d" fill-rule="evenodd" stroke="none"/>
    <path d="M10.55 21.85 Q13.05 10.4 27.0 10.4 L315.95 10.4 Q332.95 10.4 332.95 27.4 L332.95 425.85 Q332.95 439.4 322.15 442.15 144.55 441.5 27.6 442.05 10.6 442.05 10.6 425.05 11.35 252.8 10.55 21.85 M27.9 13.8 Q12.45 13.8 12.45 29.25 L12.45 424.5 Q12.45 439.95 27.9 439.95 L315.05 439.95 Q330.5 439.95 330.5 424.5 L330.5 29.25 Q330.5 13.8 315.05 13.8 L27.9 13.8" fill="url(#gradient1)" fill-rule="evenodd" stroke="none"/>
    <path d="M322.15 442.15 L315.95 442.85 27.2 443.45 Q9.25 443.25 9.4 425.65 L10.0 27.4 Q10.0 24.35 10.55 21.85 11.35 252.8 10.6 425.05 10.6 442.05 27.6 442.05 144.55 441.5 322.15 442.15" fill="#ffde8c" fill-rule="evenodd" stroke="none"/>
    <path d="M376.0 16.8 L376.05 16.8 376.3 22.9 Q376.3 25.6 375.4 28.7 374.4 32.25 373.1 32.4 372.95 32.35 372.95 32.1 372.95 31.65 373.65 30.25 L373.75 30.05 374.5 28.6 374.65 28.25 375.0 26.35 375.3 24.5 Q375.8 22.9 375.85 20.65 375.8 18.2 375.9 16.8 L376.0 16.8" fill="#ec5911" fill-rule="evenodd" stroke="none"/>
    <path d="M372.7 5.6 Q373.0 7.7 372.9 10.35 371.65 6.75 370.8 5.65 369.95 4.5 355.9 4.0 341.85 3.45 316.65 3.1 360.95 1.7 366.65 2.65 372.35 3.55 372.7 5.6 M298.55 3.3 Q278.85 3.4 250.15 2.95 288.8 2.05 309.3 2.55 L298.55 3.3 M9.0 419.15 Q10.4 434.35 15.15 438.9 18.85 442.75 35.45 444.05 18.7 444.45 13.85 440.7 8.8 436.55 9.0 419.15" fill="#ffffff" fill-rule="evenodd" stroke="none"/>
  </g>
  <defs>
    <radialGradient cx="0" cy="0" gradientTransform="matrix(0.4625, 0.0, 0.0, 0.4625, 654.95, 29.4)" gradientUnits="userSpaceOnUse" id="gradient0" r="819.2" spreadMethod="pad">
      <stop offset="0.24313725490196078" stop-color="#ff903a"/>
      <stop offset="0.40784313725490196" stop-color="#ff8d38"/>
      <stop offset="0.8235294117647058" stop-color="#ff792a"/>
    </radialGradient>
    <linearGradient gradientTransform="matrix(0.0089, -0.0066, 0.1569, 0.2113, 171.4, 226.6)" gradientUnits="userSpaceOnUse" id="gradient1" spreadMethod="pad" x1="-819.2" x2="819.2">
      <stop offset="0.0" stop-color="#ffa63a"/>
      <stop offset="1.0" stop-color="#ec5911"/>
    </linearGradient>
  </defs>
</svg>
