<?xml version="1.0" encoding="UTF-8" standalone="no"?>
<svg xmlns:ffdec="https://www.free-decompiler.com/flash" xmlns:xlink="http://www.w3.org/1999/xlink" ffdec:objectType="shape" height="42.6px" width="39.65px" xmlns="http://www.w3.org/2000/svg">
  <g transform="matrix(1.0, 0.0, 0.0, 1.0, -7.85, 1.8)">
    <path d="M36.25 -1.7 L37.05 -0.95 47.35 19.25 Q47.6 19.75 47.45 20.3 L46.85 21.15 45.8 21.4 37.45 20.15 Q36.05 29.5 37.4 37.85 L37.3 38.65 36.8 39.3 36.0 39.55 17.55 40.8 16.75 40.65 16.15 40.05 15.95 39.25 Q16.45 25.75 19.4 17.55 L9.15 16.15 Q8.55 16.05 8.2 15.6 7.8 15.1 7.85 14.5 7.95 13.85 8.45 13.5 19.8 4.45 35.15 -1.7 35.7 -1.9 36.25 -1.7" fill="#000000" fill-opacity="0.29803923" fill-rule="evenodd" stroke="none"/>
  </g>
</svg>
