<?xml version="1.0" encoding="UTF-8" standalone="no"?>
<svg xmlns:ffdec="https://www.free-decompiler.com/flash" xmlns:xlink="http://www.w3.org/1999/xlink" ffdec:objectType="shape" height="15.95px" width="69.2px" xmlns="http://www.w3.org/2000/svg">
  <g transform="matrix(1.0, 0.0, 0.0, 1.0, -201.15, -153.15)">
    <path d="M203.5 156.05 Q201.9 158.15 201.9 161.15 201.9 164.1 203.5 166.25 205.15 168.35 207.5 168.35 L264.0 168.35 Q266.2 168.35 267.95 166.25 269.6 164.1 269.6 161.15 269.6 158.15 267.95 156.05 266.2 153.9 264.0 153.9 L207.5 153.9 Q205.15 153.9 203.5 156.05 Z" fill="none" stroke="#007e00" stroke-linecap="round" stroke-linejoin="round" stroke-width="1.55"/>
    <path d="M206.15 157.65 Q206.55 158.05 206.55 158.65 206.55 159.25 206.15 159.65 205.75 160.05 205.15 160.05 204.55 160.05 204.15 159.65 203.75 159.25 203.75 158.65 203.75 158.05 204.15 157.65 204.55 157.25 205.15 157.25 205.75 157.25 206.15 157.65 M206.7 156.85 Q206.35 156.55 206.35 156.1 206.35 155.7 206.7 155.35 207.1 155.05 207.55 155.05 208.05 155.05 208.4 155.35 208.75 155.7 208.75 156.1 208.75 156.55 208.4 156.85 208.05 157.2 207.55 157.2 L206.7 156.85 M265.8 157.25 Q265.45 157.65 264.95 157.65 264.45 157.65 264.05 157.25 263.7 156.9 263.7 156.4 263.7 155.9 264.05 155.5 264.45 155.15 264.95 155.15 265.45 155.15 265.8 155.5 266.2 155.9 266.2 156.4 266.2 156.9 265.8 157.25" fill="#ffffff" fill-rule="evenodd" stroke="none"/>
  </g>
</svg>
