<?xml version="1.0" encoding="UTF-8" standalone="no"?>
<svg xmlns:ffdec="https://www.free-decompiler.com/flash" xmlns:xlink="http://www.w3.org/1999/xlink" ffdec:objectType="shape" height="156.0px" width="231.8px" xmlns="http://www.w3.org/2000/svg">
  <g transform="matrix(1.0, 0.0, 0.0, 1.0, 0.0, 0.0)">
    <path d="M221.25 0.0 Q231.8 0.0 231.8 10.55 L231.8 145.45 Q231.8 149.25 230.45 151.7 229.7 153.0 228.55 153.95 225.95 156.0 221.25 156.0 L10.55 156.0 Q0.0 156.0 0.0 145.45 L0.0 10.55 Q0.0 5.85 2.1 3.3 L2.6 2.7 Q5.2 0.0 10.55 0.0 L221.25 0.0 M216.35 5.95 L15.7 5.95 Q10.85 5.95 8.4 8.4 L7.85 9.05 Q5.95 11.45 5.95 15.7 L5.95 140.35 Q5.95 150.1 15.7 150.1 L216.35 150.1 Q220.65 150.1 223.05 148.25 224.15 147.35 224.85 146.1 226.1 143.85 226.1 140.35 L226.1 15.7 Q226.1 5.95 216.35 5.95" fill="#00ff00" fill-rule="evenodd" stroke="none"/>
  </g>
</svg>
