<?xml version="1.0" encoding="UTF-8" standalone="no"?>
<svg xmlns:ffdec="https://www.free-decompiler.com/flash" xmlns:xlink="http://www.w3.org/1999/xlink" ffdec:objectType="shape" height="189.5px" width="270.4px" xmlns="http://www.w3.org/2000/svg">
  <g transform="matrix(1.0, 0.0, 0.0, 1.0, 15.7, -134.95)">
    <path d="M244.7 134.95 Q254.7 134.95 254.7 144.95 L254.7 314.45 Q254.7 324.45 244.7 324.45 L-5.7 324.45 Q-15.7 324.45 -15.7 314.45 L-15.7 144.95 Q-15.7 134.95 -5.7 134.95 L244.7 134.95" fill="#bd3400" fill-rule="evenodd" stroke="none"/>
    <path d="M223.05 300.0 Q220.6 303.05 215.15 303.05 L14.5 303.05 Q4.75 303.05 4.75 293.3 L4.75 168.65 Q4.75 163.15 7.85 160.8 5.95 163.2 5.95 167.45 L5.95 292.1 Q5.95 301.85 15.7 301.85 L216.35 301.85 Q220.65 301.85 223.05 300.0 M229.4 304.35 Q230.6 301.95 230.6 298.4 L230.6 163.5 Q230.6 152.95 220.05 152.95 L9.35 152.95 Q4.95 152.95 2.4 154.8 L2.6 154.45 Q5.2 151.75 10.55 151.75 L221.25 151.75 Q231.8 151.75 231.8 162.3 L231.8 297.2 Q231.8 301.0 230.45 303.45 L229.4 304.35" fill="#ffcb66" fill-rule="evenodd" stroke="none"/>
    <path d="M8.4 160.15 Q10.65 156.1 16.9 156.1 L217.55 156.1 Q227.3 156.1 227.3 165.85 L227.3 290.5 Q227.3 295.4 224.85 297.85 226.1 295.6 226.1 292.1 L226.1 167.45 Q226.1 157.7 216.35 157.7 L15.7 157.7 Q10.85 157.7 8.4 160.15 M2.4 154.8 Q1.2 157.15 1.2 160.7 L1.2 295.6 Q1.2 306.15 11.75 306.15 L222.45 306.15 Q226.85 306.15 229.4 304.35 L228.55 305.7 Q225.95 307.75 221.25 307.75 L10.55 307.75 Q0.0 307.75 0.0 297.2 L0.0 162.3 Q0.0 157.6 2.1 155.05 L2.4 154.8" fill="#ec5911" fill-rule="evenodd" stroke="none"/>
    <path d="M224.85 297.85 Q227.3 295.4 227.3 290.5 L227.3 165.85 Q227.3 156.1 217.55 156.1 L16.9 156.1 Q10.65 156.1 8.4 160.15 L7.85 160.8 Q4.75 163.15 4.75 168.65 L4.75 293.3 Q4.75 303.05 14.5 303.05 L215.15 303.05 Q220.6 303.05 223.05 300.0 224.15 299.1 224.85 297.85 M2.4 154.8 Q4.95 152.95 9.35 152.95 L220.05 152.95 Q230.6 152.95 230.6 163.5 L230.6 298.4 Q230.6 301.95 229.4 304.35 226.85 306.15 222.45 306.15 L11.75 306.15 Q1.2 306.15 1.2 295.6 L1.2 160.7 Q1.2 157.15 2.4 154.8" fill="#ff8f39" fill-rule="evenodd" stroke="none"/>
    <path d="M229.4 304.35 L230.45 303.45 Q229.7 304.75 228.55 305.7 L229.4 304.35 M2.6 154.45 L2.4 154.8 2.1 155.05 2.6 154.45" fill="#0ec800" fill-rule="evenodd" stroke="none"/>
    <path d="M230.55 169.7 Q230.65 164.5 229.75 160.65 228.8 156.75 226.85 155.45 224.85 154.15 221.35 153.5 217.85 152.85 200.95 152.95 L218.0 152.5 Q222.55 152.4 225.55 153.45 228.6 154.55 230.0 157.8 231.3 162.05 230.55 169.7 M5.45 295.45 Q6.4 299.35 8.35 300.65 10.35 301.95 13.85 302.6 17.35 303.25 34.25 303.15 L17.2 303.6 Q12.65 303.7 9.65 302.65 6.6 301.55 5.2 298.3 3.9 294.05 4.65 286.4 4.55 291.6 5.45 295.45" fill="#ffffff" fill-rule="evenodd" stroke="none"/>
  </g>
</svg>
