<?xml version="1.0" encoding="UTF-8" standalone="no"?>
<svg xmlns:ffdec="https://www.free-decompiler.com/flash" xmlns:xlink="http://www.w3.org/1999/xlink" ffdec:objectType="shape" height="39.5px" width="58.0px" xmlns="http://www.w3.org/2000/svg">
  <g transform="matrix(1.0, 0.0, 0.0, 1.0, 0.75, 0.75)">
    <path d="M56.5 33.0 Q56.5 38.0 51.5 38.0 L5.0 38.0 Q0.0 38.0 0.0 33.0 L0.0 5.0 Q0.0 0.0 5.0 0.0 L51.5 0.0 Q56.5 0.0 56.5 5.0 L56.5 33.0" fill="url(#gradient0)" fill-rule="evenodd" stroke="none"/>
    <path d="M56.5 33.0 L56.5 5.0 Q56.5 0.0 51.5 0.0 L5.0 0.0 Q0.0 0.0 0.0 5.0 L0.0 33.0 Q0.0 38.0 5.0 38.0 L51.5 38.0 Q56.5 38.0 56.5 33.0 Z" fill="none" stroke="#676767" stroke-linecap="round" stroke-linejoin="round" stroke-width="1.5"/>
    <path d="M18.7 16.65 L18.5 17.55 18.3 20.8 18.5 23.85 18.7 24.7 18.9 23.95 19.05 20.65 18.9 17.45 18.7 16.65 M45.5 9.4 L46.0 10.2 45.95 11.2 43.5 16.65 42.1 19.8 43.95 25.1 45.4 28.8 45.45 28.9 Q45.6 29.35 45.3 29.45 L45.55 29.65 Q46.0 30.05 46.0 30.7 46.0 31.3 45.6 31.75 L44.55 32.2 44.5 32.2 43.95 32.2 39.75 32.35 37.85 32.5 36.95 32.2 36.4 31.4 36.0 29.95 Q36.0 30.55 35.55 31.0 L34.5 31.45 29.95 31.45 28.4 31.5 Q27.8 31.5 27.35 31.05 26.9 30.6 26.9 30.0 L26.9 28.25 Q25.75 30.15 23.9 31.15 L23.95 31.15 Q21.7 32.35 18.7 32.35 13.7 32.3 11.25 29.2 L11.25 29.25 Q8.75 26.35 8.7 20.85 8.65 17.2 9.8 14.65 L9.8 14.7 Q10.95 11.85 13.2 10.45 15.45 8.95 18.65 8.9 L18.7 8.9 Q22.15 8.95 24.35 10.4 L24.4 10.4 Q25.9 11.4 26.9 12.95 L26.9 12.6 26.9 11.15 27.1 10.4 27.7 9.85 28.45 9.65 32.75 9.75 32.8 9.75 34.45 9.7 35.2 9.9 35.75 10.5 35.95 11.25 35.95 11.3 36.55 9.75 Q36.7 9.3 37.15 9.05 L38.05 8.8 42.9 9.0 44.55 9.05 Q45.05 9.05 45.5 9.4" fill="#000000" fill-opacity="0.29803923" fill-rule="evenodd" stroke="none"/>
  </g>
  <defs>
    <linearGradient gradientTransform="matrix(0.0, 0.0219, -0.0232, 0.0, 28.25, 19.0)" gradientUnits="userSpaceOnUse" id="gradient0" spreadMethod="pad" x1="-819.2" x2="819.2">
      <stop offset="0.027450980392156862" stop-color="#ffffff"/>
      <stop offset="0.6039215686274509" stop-color="#eeeeee"/>
    </linearGradient>
  </defs>
</svg>
