<?xml version="1.0" encoding="UTF-8" standalone="no"?>
<svg xmlns:ffdec="https://www.free-decompiler.com/flash" xmlns:xlink="http://www.w3.org/1999/xlink" ffdec:objectType="shape" height="23.7px" width="37.35px" xmlns="http://www.w3.org/2000/svg">
  <g transform="matrix(1.0, 0.0, 0.0, 1.0, -1.0, -1.5)">
    <path d="M36.85 3.25 L35.15 3.2 30.25 3.0 29.35 5.3 26.7 12.35 26.7 8.45 26.75 3.9 25.1 3.95 20.7 3.85 20.7 5.3 20.7 9.2 20.7 15.15 20.7 22.7 22.25 22.65 26.8 22.65 26.8 22.15 26.75 20.65 28.4 17.65 29.15 20.2 30.15 23.7 31.95 23.55 36.8 23.4 36.3 22.05 34.85 18.3 32.75 12.45 34.4 8.75 36.85 3.25 M12.65 9.9 L12.85 13.35 12.65 16.9 Q12.45 18.1 12.05 18.55 11.6 19.0 11.05 19.0 10.4 19.0 9.95 18.5 9.5 18.0 9.3 16.8 L9.1 13.5 9.3 10.0 Q9.5 8.75 9.9 8.25 10.35 7.75 10.95 7.75 11.6 7.7 12.0 8.2 12.45 8.65 12.65 9.9 M10.95 3.1 Q8.25 3.15 6.3 4.4 4.45 5.6 3.45 7.95 2.45 10.25 2.5 13.5 2.55 18.4 4.7 20.95 6.8 23.5 11.0 23.55 13.6 23.55 15.5 22.5 17.4 21.5 18.4 19.25 19.5 17.05 19.5 13.45 19.5 10.2 18.65 7.9 17.75 5.6 15.85 4.35 13.95 3.15 10.95 3.1 Z" fill="none" stroke="url(#gradient0)" stroke-linecap="round" stroke-linejoin="round" stroke-width="3.0"/>
    <path d="M12.65 9.9 Q12.45 8.65 12.0 8.2 11.6 7.7 10.95 7.75 10.35 7.75 9.9 8.25 9.5 8.75 9.3 10.0 L9.1 13.5 9.3 16.8 Q9.5 18.0 9.95 18.5 10.4 19.0 11.05 19.0 11.6 19.0 12.05 18.55 12.45 18.1 12.65 16.9 L12.85 13.35 12.65 9.9 M10.95 3.1 Q13.95 3.15 15.85 4.35 17.75 5.6 18.65 7.9 19.5 10.2 19.5 13.45 19.5 17.05 18.4 19.25 17.4 21.5 15.5 22.5 13.6 23.55 11.0 23.55 6.8 23.5 4.7 20.95 2.55 18.4 2.5 13.5 2.45 10.25 3.45 7.95 4.45 5.6 6.3 4.4 8.25 3.15 10.95 3.1 M36.85 3.25 L34.4 8.75 32.75 12.45 34.85 18.3 36.3 22.05 36.8 23.4 31.95 23.55 30.15 23.7 29.15 20.2 28.4 17.65 26.75 20.65 26.8 22.15 26.8 22.65 22.25 22.65 20.7 22.7 20.7 15.15 20.7 9.2 20.7 5.3 20.7 3.85 25.1 3.95 26.75 3.9 26.7 8.45 26.7 12.35 29.35 5.3 30.25 3.0 35.15 3.2 36.85 3.25" fill="url(#gradient1)" fill-rule="evenodd" stroke="none"/>
  </g>
  <defs>
    <linearGradient gradientTransform="matrix(0.0, 0.0079, -0.0258, 0.0, 177.9, 8.5)" gradientUnits="userSpaceOnUse" id="gradient0" spreadMethod="pad" x1="-819.2" x2="819.2">
      <stop offset="0.027450980392156862" stop-color="#39de39"/>
      <stop offset="0.6039215686274509" stop-color="#006000"/>
    </linearGradient>
    <linearGradient gradientTransform="matrix(0.0, 0.0104, -0.0125, 0.0, 11.0, 11.5)" gradientUnits="userSpaceOnUse" id="gradient1" spreadMethod="pad" x1="-819.2" x2="819.2">
      <stop offset="0.13725490196078433" stop-color="#cbffd2"/>
      <stop offset="0.7803921568627451" stop-color="#00cc33"/>
    </linearGradient>
  </defs>
</svg>
