<?xml version="1.0" encoding="UTF-8" standalone="no"?>
<svg xmlns:ffdec="https://www.free-decompiler.com/flash" xmlns:xlink="http://www.w3.org/1999/xlink" ffdec:objectType="shape" height="107.6px" width="728.2px" xmlns="http://www.w3.org/2000/svg">
  <g transform="matrix(1.0, 0.0, 0.0, 1.0, -751.95, -108.35)">
    <path d="M755.3 128.1 Q758.75 110.85 777.65 110.85 L1454.45 110.85 Q1477.65 110.85 1477.65 136.85 L1477.65 187.45 Q1477.65 200.75 1471.55 207.35 1472.4 203.35 1472.4 198.5 L1472.4 147.9 Q1472.4 121.9 1449.2 121.9 L772.35 121.9 Q761.05 121.9 755.3 128.1" fill="#f5e93f" fill-rule="evenodd" stroke="none"/>
    <path d="M755.3 128.1 Q761.05 121.9 772.35 121.9 L1449.2 121.9 Q1472.4 121.9 1472.4 147.9 L1472.4 198.5 Q1472.4 203.35 1471.55 207.35 L1471.1 207.8 1471.05 207.8 Q1465.3 213.45 1454.45 213.45 L777.65 213.45 Q754.45 213.45 754.45 187.45 L754.45 136.85 754.55 133.4 755.15 128.85 755.3 128.1" fill="#fffcd0" fill-rule="evenodd" stroke="none"/>
    <path d="M1471.55 207.35 Q1477.65 200.75 1477.65 187.45 L1477.65 136.85 Q1477.65 110.85 1454.45 110.85 L777.65 110.85 Q758.75 110.85 755.3 128.1 L755.15 128.85 754.55 133.4 754.45 136.85 754.45 187.45 Q754.45 213.45 777.65 213.45 L1454.45 213.45 Q1465.3 213.45 1471.05 207.8 L1471.1 207.8 1471.55 207.35 Z" fill="none" stroke="#e9a600" stroke-linecap="round" stroke-linejoin="round" stroke-width="5.0"/>
  </g>
</svg>
