<?xml version="1.0" encoding="UTF-8" standalone="no"?>
<svg xmlns:ffdec="https://www.free-decompiler.com/flash" xmlns:xlink="http://www.w3.org/1999/xlink" ffdec:objectType="shape" height="274.7px" width="18.55px" xmlns="http://www.w3.org/2000/svg">
  <g transform="matrix(1.0, 0.0, 0.0, 1.0, 9.2, 3.15)">
    <path d="M6.35 1.85 L6.15 8.1 -6.2 6.4 -6.2 1.85 Q-6.2 -0.15 -4.2 -0.15 L4.35 -0.15 Q6.35 -0.15 6.35 1.85" fill="url(#gradient0)" fill-rule="evenodd" stroke="none"/>
    <path d="M6.35 260.55 L6.35 266.55 Q6.35 268.55 4.35 268.55 L-4.2 268.55 Q-6.2 268.55 -6.2 266.55 L-6.2 260.55 6.35 260.55" fill="url(#gradient1)" fill-rule="evenodd" stroke="none"/>
    <path d="M6.15 8.1 L6.35 1.85 6.35 260.55 -6.2 260.55 -6.2 6.4 6.15 8.1" fill="url(#gradient2)" fill-rule="evenodd" stroke="none"/>
    <path d="M6.15 8.1 L6.35 1.85 Q6.35 -0.15 4.35 -0.15 L-4.2 -0.15 Q-6.2 -0.15 -6.2 1.85 L-6.2 6.4 -6.2 260.55 -6.2 266.55 Q-6.2 268.55 -4.2 268.55 L4.35 268.55 Q6.35 268.55 6.35 266.55 L6.35 260.55 6.35 1.85" fill="none" stroke="#5eba01" stroke-linecap="round" stroke-linejoin="round" stroke-width="6.0"/>
    <path d="M-6.2 6.4 L-6.2 1.85 Q-6.2 -0.15 -4.2 -0.15 L4.35 -0.15 Q6.35 -0.15 6.35 1.85 L6.35 6.4 -6.2 6.4" fill="url(#gradient3)" fill-rule="evenodd" stroke="none"/>
    <path d="M6.35 260.55 L6.35 266.55 Q6.35 268.55 4.35 268.55 L-4.2 268.55 Q-6.2 268.55 -6.2 266.55 L-6.2 260.55 6.35 260.55" fill="url(#gradient4)" fill-rule="evenodd" stroke="none"/>
    <path d="M-6.2 6.4 L6.35 6.4 6.35 260.55 -6.2 260.55 -6.2 6.4" fill="url(#gradient5)" fill-rule="evenodd" stroke="none"/>
    <path d="M6.35 6.4 L6.35 1.85 Q6.35 -0.15 4.35 -0.15 L-4.2 -0.15 Q-6.2 -0.15 -6.2 1.85 L-6.2 6.4 -6.2 260.55 -6.2 266.55 Q-6.2 268.55 -4.2 268.55 L4.35 268.55 Q6.35 268.55 6.35 266.55 L6.35 260.55 6.35 6.4 Z" fill="none" stroke="#73e302" stroke-linecap="round" stroke-linejoin="round" stroke-width="3.0"/>
    <path d="M6.25 1.1 L6.35 1.85 6.35 6.0 6.25 1.1 M-6.2 6.4 L-6.2 1.85 Q-6.2 0.8 -5.65 0.3 -5.15 -0.15 -4.2 -0.15 L4.35 -0.15 5.25 0.0 -5.65 0.3 -6.2 6.4" fill="url(#gradient6)" fill-rule="evenodd" stroke="none"/>
    <path d="M6.35 266.55 Q6.35 268.55 4.35 268.55 L-4.2 268.55 Q-6.2 268.55 -6.2 266.55 L-5.35 268.3 5.5 268.3 6.35 266.55" fill="url(#gradient7)" fill-rule="evenodd" stroke="none"/>
    <path d="M5.25 0.0 L5.3 -0.05 5.35 0.05 5.25 0.0 M6.25 1.0 L6.25 1.1 6.25 1.0" fill="url(#gradient8)" fill-rule="evenodd" stroke="none"/>
    <path d="M5.35 0.05 Q6.0 0.3 6.25 1.0 L6.25 1.1 6.35 6.0 6.35 266.55 5.5 268.3 -5.35 268.3 -6.2 266.55 -6.2 6.4 -5.65 0.3 5.25 0.0 5.35 0.05" fill="url(#gradient9)" fill-rule="evenodd" stroke="none"/>
    <path d="M5.35 0.05 Q6.0 0.3 6.25 1.0 L6.25 1.1 6.35 1.85 6.35 6.0 6.35 266.55 Q6.35 268.55 4.35 268.55 L-4.2 268.55 Q-6.2 268.55 -6.2 266.55 L-6.2 6.4 -6.2 1.85 Q-6.2 0.8 -5.65 0.3 -5.15 -0.15 -4.2 -0.15 L4.35 -0.15 5.25 0.0 5.35 0.05 Z" fill="none" stroke="#bdff76" stroke-linecap="round" stroke-linejoin="round" stroke-width="1.0"/>
  </g>
  <defs>
    <linearGradient gradientTransform="matrix(0.0077, 0.0, 0.0, 0.0279, 0.1, 22.7)" gradientUnits="userSpaceOnUse" id="gradient0" spreadMethod="pad" x1="-819.2" x2="819.2">
      <stop offset="0.0" stop-color="#e4ffc4"/>
      <stop offset="0.3607843137254902" stop-color="#d1fea0"/>
      <stop offset="0.7098039215686275" stop-color="#cffd8a"/>
    </linearGradient>
    <linearGradient gradientTransform="matrix(0.0077, 0.0, 0.0, 0.0279, 0.1, 245.65)" gradientUnits="userSpaceOnUse" id="gradient1" spreadMethod="pad" x1="-819.2" x2="819.2">
      <stop offset="0.0" stop-color="#e4ffc4"/>
      <stop offset="0.3607843137254902" stop-color="#d1fea0"/>
      <stop offset="0.7098039215686275" stop-color="#cffd8a"/>
    </linearGradient>
    <linearGradient gradientTransform="matrix(0.0077, 0.0, 0.0, 0.5914, 0.1, 289.15)" gradientUnits="userSpaceOnUse" id="gradient2" spreadMethod="pad" x1="-819.2" x2="819.2">
      <stop offset="0.0" stop-color="#e4ffc4"/>
      <stop offset="0.3607843137254902" stop-color="#d1fea0"/>
      <stop offset="0.7098039215686275" stop-color="#cffd8a"/>
    </linearGradient>
    <linearGradient gradientTransform="matrix(0.0077, 0.0, 0.0, 0.0279, 0.1, 22.7)" gradientUnits="userSpaceOnUse" id="gradient3" spreadMethod="pad" x1="-819.2" x2="819.2">
      <stop offset="0.0" stop-color="#e4ffc4"/>
      <stop offset="0.3607843137254902" stop-color="#d1fea0"/>
      <stop offset="0.7098039215686275" stop-color="#cffd8a"/>
    </linearGradient>
    <linearGradient gradientTransform="matrix(0.0077, 0.0, 0.0, 0.0279, 0.1, 245.65)" gradientUnits="userSpaceOnUse" id="gradient4" spreadMethod="pad" x1="-819.2" x2="819.2">
      <stop offset="0.0" stop-color="#e4ffc4"/>
      <stop offset="0.3607843137254902" stop-color="#d1fea0"/>
      <stop offset="0.7098039215686275" stop-color="#cffd8a"/>
    </linearGradient>
    <linearGradient gradientTransform="matrix(0.0077, 0.0, 0.0, 0.5914, 0.1, 289.15)" gradientUnits="userSpaceOnUse" id="gradient5" spreadMethod="pad" x1="-819.2" x2="819.2">
      <stop offset="0.0" stop-color="#e4ffc4"/>
      <stop offset="0.3607843137254902" stop-color="#d1fea0"/>
      <stop offset="0.7098039215686275" stop-color="#cffd8a"/>
    </linearGradient>
    <linearGradient gradientTransform="matrix(0.0077, 0.0, 0.0, 0.0279, 0.1, 22.7)" gradientUnits="userSpaceOnUse" id="gradient6" spreadMethod="pad" x1="-819.2" x2="819.2">
      <stop offset="0.0" stop-color="#e4ffc4"/>
      <stop offset="0.3607843137254902" stop-color="#d1fea0"/>
      <stop offset="0.7098039215686275" stop-color="#cffd8a"/>
    </linearGradient>
    <linearGradient gradientTransform="matrix(0.0077, 0.0, 0.0, 0.0279, 0.1, 245.65)" gradientUnits="userSpaceOnUse" id="gradient7" spreadMethod="pad" x1="-819.2" x2="819.2">
      <stop offset="0.0" stop-color="#e4ffc4"/>
      <stop offset="0.3607843137254902" stop-color="#d1fea0"/>
      <stop offset="0.7098039215686275" stop-color="#cffd8a"/>
    </linearGradient>
    <linearGradient gradientTransform="matrix(0.0077, 0.0, 0.0, 0.5914, 0.1, 289.15)" gradientUnits="userSpaceOnUse" id="gradient8" spreadMethod="pad" x1="-819.2" x2="819.2">
      <stop offset="0.0" stop-color="#fcfff7"/>
      <stop offset="0.3607843137254902" stop-color="#f2fede"/>
      <stop offset="0.7098039215686275" stop-color="#e8fec5"/>
    </linearGradient>
    <linearGradient gradientTransform="matrix(0.0077, 0.0, 0.0, 0.5914, 0.1, 289.15)" gradientUnits="userSpaceOnUse" id="gradient9" spreadMethod="pad" x1="-819.2" x2="819.2">
      <stop offset="0.21176470588235294" stop-color="#cffd90"/>
      <stop offset="0.803921568627451" stop-color="#b5fe45"/>
    </linearGradient>
  </defs>
</svg>
