<?xml version="1.0" encoding="UTF-8" standalone="no"?>
<svg xmlns:ffdec="https://www.free-decompiler.com/flash" xmlns:xlink="http://www.w3.org/1999/xlink" ffdec:objectType="shape" height="27.85px" width="249.15px" xmlns="http://www.w3.org/2000/svg">
  <g transform="matrix(1.0, 0.0, 0.0, 1.0, -18.75, -329.75)">
    <path d="M21.05 332.55 Q22.95 330.25 25.5 330.25 L261.15 330.25 Q263.8 330.25 265.6 332.55 267.4 334.85 267.4 338.05 L267.4 349.3 Q267.4 352.3 265.8 354.55 L265.7 354.7 Q266.1 353.35 266.1 351.8 L266.1 340.55 Q266.1 337.35 264.3 335.05 262.5 332.75 259.85 332.75 L24.2 332.75 Q21.65 332.75 19.75 335.05 L19.75 335.1 19.8 334.85 Q20.25 333.6 21.05 332.55" fill="#000000" fill-opacity="0.12156863" fill-rule="evenodd" stroke="none"/>
    <path d="M267.4 342.15 L267.4 338.05 Q267.4 334.85 265.6 332.55 263.8 330.25 261.15 330.25 L25.5 330.25 Q22.95 330.25 21.05 332.55 20.25 333.6 19.8 334.85 L19.65 335.3 Q19.25 336.55 19.25 338.05 L19.25 349.3 Q19.25 352.5 21.05 354.8 22.95 357.1 25.5 357.1 L261.15 357.1 Q262.85 357.1 264.15 356.15 L265.6 354.8 265.8 354.55 Q267.4 352.3 267.4 349.3 L267.4 343.1" fill="none" stroke="url(#gradient0)" stroke-linecap="round" stroke-linejoin="round" stroke-width="1.0"/>
    <path d="M267.4 343.1 L267.4 342.15" fill="none" stroke="url(#gradient1)" stroke-linecap="round" stroke-linejoin="round" stroke-width="1.0"/>
  </g>
  <defs>
    <linearGradient gradientTransform="matrix(1.0E-4, -0.0141, 0.0341, 0.0, 179.9, 343.7)" gradientUnits="userSpaceOnUse" id="gradient0" spreadMethod="pad" x1="-819.2" x2="819.2">
      <stop offset="0.0" stop-color="#b8ffe9"/>
      <stop offset="0.17647058823529413" stop-color="#6caf9a"/>
      <stop offset="0.8196078431372549" stop-color="#6caf9a"/>
      <stop offset="1.0" stop-color="#276552"/>
    </linearGradient>
    <linearGradient gradientTransform="matrix(1.0E-4, -0.0489, 0.0341, 0.0, 179.9, 347.05)" gradientUnits="userSpaceOnUse" id="gradient1" spreadMethod="pad" x1="-819.2" x2="819.2">
      <stop offset="0.0" stop-color="#b8ffe9"/>
      <stop offset="0.17647058823529413" stop-color="#6caf9a"/>
      <stop offset="0.8196078431372549" stop-color="#6caf9a"/>
      <stop offset="1.0" stop-color="#276552"/>
    </linearGradient>
  </defs>
</svg>
