<?xml version="1.0" encoding="UTF-8" standalone="no"?>
<svg xmlns:ffdec="https://www.free-decompiler.com/flash" xmlns:xlink="http://www.w3.org/1999/xlink" ffdec:objectType="shape" height="65.35px" width="56.2px" xmlns="http://www.w3.org/2000/svg">
  <g transform="matrix(1.0, 0.0, 0.0, 1.0, 20.65, 11.75)">
    <path d="M28.5 -8.45 Q28.5 -7.1 27.5 -6.15 26.55 -5.15 25.2 -5.15 24.0 -5.15 23.1 -5.9 20.7 -4.55 19.5 -1.6 25.15 -0.85 29.4 3.4 34.6 8.6 34.6 15.9 34.6 23.25 29.4 28.4 24.2 33.6 16.85 33.6 9.55 33.6 4.35 28.4 -0.8 23.25 -0.8 15.9 L-5.3 17.6 Q-10.75 19.95 -12.2 23.6 -13.65 27.25 -14.5 31.5 L-15.9 37.65 Q-16.35 39.55 -18.25 40.8 -20.2 42.05 -20.5 39.55 -20.9 37.05 -20.15 31.9 -19.4 26.7 -17.55 21.4 -15.75 16.05 -6.55 13.8 L-0.45 12.35 Q0.5 7.3 4.35 3.4 9.55 -1.8 16.85 -1.8 L17.95 -1.75 Q19.45 -5.4 22.3 -6.9 21.9 -7.6 21.9 -8.45 21.9 -9.8 22.85 -10.8 23.85 -11.75 25.2 -11.75 26.55 -11.75 27.5 -10.8 28.5 -9.8 28.5 -8.45" fill="#000000" fill-rule="evenodd" stroke="none"/>
    <path d="M-1.55 53.6 Q0.0 34.9 17.0 34.0 33.6 34.8 35.55 53.4 L-1.55 53.6" fill="#000000" fill-rule="evenodd" stroke="none"/>
  </g>
</svg>
