<?xml version="1.0" encoding="UTF-8" standalone="no"?>
<svg xmlns:ffdec="https://www.free-decompiler.com/flash" xmlns:xlink="http://www.w3.org/1999/xlink" ffdec:objectType="shape" height="160.45px" width="210.2px" xmlns="http://www.w3.org/2000/svg">
  <g transform="matrix(1.0, 0.0, 0.0, 1.0, -88.0, -23.9)">
    <path d="M234.6 80.4 Q251.6 97.4 251.6 121.45 251.6 145.5 234.6 162.45 217.65 179.45 193.6 179.45 169.55 179.45 152.55 162.45 135.55 145.5 135.55 121.45 135.55 97.4 152.55 80.4 169.55 63.4 193.6 63.4 217.65 63.4 234.6 80.4" fill="url(#gradient0)" fill-rule="evenodd" stroke="none"/>
    <path d="M215.1 97.9 L218.8 75.4 Q206.45 68.35 191.25 68.35 175.45 68.35 162.8 75.95 L166.4 97.9 M240.2 98.85 L214.75 98.85 M222.2 54.4 L218.8 75.4 Q225.3 79.15 231.0 84.85 247.5 101.3 247.5 124.6 247.5 128.45 247.05 132.15 244.75 150.65 231.0 164.4 214.55 180.85 191.25 180.85 167.95 180.85 151.45 164.4 137.75 150.65 135.45 132.15 135.0 128.45 135.0 124.6 135.0 110.4 141.1 98.75 145.0 91.3 151.45 84.85 156.8 79.5 162.8 75.95 L159.3 54.4 M224.45 119.55 L224.45 120.7 Q224.45 126.85 222.55 132.15 220.15 138.75 214.75 144.15 205.05 153.85 191.3 153.85 177.55 153.85 167.85 144.15 162.45 138.75 160.1 132.15 158.15 126.85 158.15 120.7 L158.15 119.85 M191.4 177.7 L191.4 155.5 M291.5 82.5 L283.55 134.85 248.25 129.95 M91.5 82.5 L99.45 134.85 134.75 129.95 M166.75 98.85 L141.1 98.75" fill="none" stroke="#000000" stroke-linecap="round" stroke-linejoin="round" stroke-opacity="0.2" stroke-width="7.0"/>
    <path d="M174.15 45.45 Q174.15 52.0 169.5 56.6 164.85 61.25 158.3 61.25 151.75 61.25 147.1 56.6 142.5 52.0 142.5 45.45 142.5 38.9 147.1 34.25 151.75 29.6 158.3 29.6 164.85 29.6 169.5 34.25 174.15 38.9 174.15 45.45 Z" fill="none" stroke="#000000" stroke-linecap="round" stroke-linejoin="round" stroke-opacity="0.2" stroke-width="7.0"/>
    <path d="M235.3 34.25 Q239.95 38.9 239.95 45.45 239.95 52.0 235.3 56.6 230.65 61.25 224.1 61.25 217.55 61.25 212.9 56.6 208.3 52.0 208.3 45.45 208.3 38.9 212.9 34.25 217.55 29.6 224.1 29.6 230.65 29.6 235.3 34.25 Z" fill="none" stroke="#000000" stroke-linecap="round" stroke-linejoin="round" stroke-opacity="0.2" stroke-width="7.0"/>
    <path d="M242.35 43.75 Q242.35 50.3 237.7 54.9 233.05 59.55 226.5 59.55 219.95 59.55 215.3 54.9 210.7 50.3 210.7 43.75 210.7 37.2 215.3 32.55 219.95 27.9 226.5 27.9 233.05 27.9 237.7 32.55 242.35 37.2 242.35 43.75 Z" fill="none" stroke="#623501" stroke-linecap="round" stroke-linejoin="round" stroke-width="8.0"/>
    <path d="M217.8 95.95 L221.5 73.45 Q209.15 66.4 193.95 66.4 178.15 66.4 165.5 74.0 L169.1 95.95 M162.0 52.45 L165.5 74.0 Q159.5 77.55 154.15 82.9 147.7 89.35 143.8 96.8 L169.45 96.9 M242.9 96.9 L217.45 96.9 M224.9 52.45 L221.5 73.45 Q228.0 77.2 233.7 82.9 250.2 99.35 250.2 122.65 250.2 126.5 249.75 130.2 247.45 148.7 233.7 162.45 217.25 178.9 193.95 178.9 170.65 178.9 154.15 162.45 140.45 148.7 138.15 130.2 137.7 126.5 137.7 122.65 137.7 108.45 143.8 96.8 M227.15 117.6 L227.15 118.75 Q227.15 124.9 225.25 130.2 222.85 136.8 217.45 142.2 207.75 151.9 194.0 151.9 180.25 151.9 170.55 142.2 165.15 136.8 162.8 130.2 160.85 124.9 160.85 118.75 L160.85 117.9 M194.1 175.75 L194.1 153.55 M294.2 80.55 L286.25 132.9 250.95 128.0 M94.2 80.55 L102.15 132.9 137.45 128.0" fill="none" stroke="#623501" stroke-linecap="round" stroke-linejoin="round" stroke-width="8.0"/>
    <path d="M242.35 43.75 Q242.35 50.3 237.7 54.9 233.05 59.55 226.5 59.55 219.95 59.55 215.3 54.9 210.7 50.3 210.7 43.75 210.7 37.2 215.3 32.55 219.95 27.9 226.5 27.9 233.05 27.9 237.7 32.55 242.35 37.2 242.35 43.75 Z" fill="none" stroke="url(#gradient1)" stroke-linecap="round" stroke-linejoin="round" stroke-width="6.0"/>
    <path d="M176.55 43.75 Q176.55 50.3 171.9 54.9 167.25 59.55 160.7 59.55 154.15 59.55 149.5 54.9 144.9 50.3 144.9 43.75 144.9 37.2 149.5 32.55 154.15 27.9 160.7 27.9 167.25 27.9 171.9 32.55 176.55 37.2 176.55 43.75 Z" fill="none" stroke="#623501" stroke-linecap="round" stroke-linejoin="round" stroke-width="8.0"/>
    <path d="M217.8 95.95 L221.5 73.45 Q209.15 66.4 193.95 66.4 178.15 66.4 165.5 74.0 L169.1 95.95 M162.0 52.45 L165.5 74.0 Q159.5 77.55 154.15 82.9 147.7 89.35 143.8 96.8 L169.45 96.9 M242.9 96.9 L217.45 96.9 M224.9 52.45 L221.5 73.45 Q228.0 77.2 233.7 82.9 250.2 99.35 250.2 122.65 250.2 126.5 249.75 130.2 247.45 148.7 233.7 162.45 217.25 178.9 193.95 178.9 170.65 178.9 154.15 162.45 140.45 148.7 138.15 130.2 137.7 126.5 137.7 122.65 137.7 108.45 143.8 96.8 M227.15 117.6 L227.15 118.75 Q227.15 124.9 225.25 130.2 222.85 136.8 217.45 142.2 207.75 151.9 194.0 151.9 180.25 151.9 170.55 142.2 165.15 136.8 162.8 130.2 160.85 124.9 160.85 118.75 L160.85 117.9 M194.1 175.75 L194.1 153.55 M294.2 80.55 L286.25 132.9 250.95 128.0 M94.2 80.55 L102.15 132.9 137.45 128.0" fill="none" stroke="url(#gradient2)" stroke-linecap="round" stroke-linejoin="round" stroke-width="6.0"/>
    <path d="M176.55 43.75 Q176.55 50.3 171.9 54.9 167.25 59.55 160.7 59.55 154.15 59.55 149.5 54.9 144.9 50.3 144.9 43.75 144.9 37.2 149.5 32.55 154.15 27.9 160.7 27.9 167.25 27.9 171.9 32.55 176.55 37.2 176.55 43.75 Z" fill="none" stroke="url(#gradient3)" stroke-linecap="round" stroke-linejoin="round" stroke-width="6.0"/>
    <path d="M163.55 59.35 L160.7 59.55 Q154.15 59.55 149.5 54.9 144.9 50.3 144.9 43.75 144.9 37.2 149.5 32.55 154.15 27.9 160.7 27.9 167.25 27.9 171.9 32.55 176.55 37.2 176.55 43.75 176.55 50.3 171.9 54.9 168.3 58.5 163.55 59.35 L165.85 73.65 Q178.5 66.05 194.3 66.05 209.5 66.05 221.85 73.1 L224.1 59.4 Q219.05 58.65 215.3 54.9 210.7 50.3 210.7 43.75 210.7 37.2 215.3 32.55 219.95 27.9 226.5 27.9 233.05 27.9 237.7 32.55 242.35 37.2 242.35 43.75 242.35 50.3 237.7 54.9 233.05 59.55 226.5 59.55 L224.1 59.4 225.25 52.1 M162.35 52.1 L163.55 59.35 M165.85 73.65 L169.45 95.6 M169.8 96.55 L144.15 96.45 Q138.05 108.1 138.05 122.3 138.05 126.35 138.55 130.2 140.9 148.45 154.5 162.1 171.0 178.55 194.3 178.55 217.6 178.55 234.05 162.1 247.7 148.45 250.05 130.2 250.55 126.35 250.55 122.3 250.55 99.0 234.05 82.55 228.35 76.85 221.85 73.1 L218.15 95.6 M227.5 117.25 L227.5 118.4 Q227.5 124.75 225.45 130.2 223.05 136.6 217.8 141.85 208.1 151.55 194.35 151.55 180.6 151.55 170.9 141.85 165.65 136.6 163.25 130.2 161.2 124.75 161.2 118.4 L161.2 117.55 M194.45 175.4 L194.45 153.2 M294.55 80.2 L286.6 132.55 251.3 127.65 M243.25 96.55 L217.8 96.55 M165.85 73.65 Q159.85 77.2 154.5 82.55 148.05 89.0 144.15 96.45 M94.55 80.2 L102.5 132.55 137.8 127.65" fill="none" stroke="#ffffff" stroke-linecap="round" stroke-linejoin="round" stroke-opacity="0.2" stroke-width="3.5"/>
    <path d="M227.85 116.9 L227.85 118.05 Q227.85 131.8 218.15 141.5 208.45 151.2 194.7 151.2 180.95 151.2 171.25 141.5 161.55 131.8 161.55 118.05 L161.55 117.2 M194.8 175.05 L194.8 152.85 M294.9 79.85 L286.95 132.2 251.65 127.3 M243.6 96.2 L218.15 96.2 M94.9 79.85 L102.85 132.2 138.15 127.3" fill="none" stroke="#ffffff" stroke-linecap="round" stroke-linejoin="round" stroke-opacity="0.2" stroke-width="1.7000000000000002"/>
    <path d="M163.95 59.25 L160.7 59.55 Q154.15 59.55 149.5 54.9 144.9 50.3 144.9 43.75 144.9 37.2 149.5 32.55 154.15 27.9 160.7 27.9 167.25 27.9 171.9 32.55 176.55 37.2 176.55 43.75 176.55 50.3 171.9 54.9 168.45 58.35 163.95 59.25 L166.2 73.3 Q178.85 65.7 194.65 65.7 209.85 65.7 222.2 72.75 L224.35 59.45 Q219.15 58.75 215.3 54.9 210.7 50.3 210.7 43.75 210.7 37.2 215.3 32.55 219.95 27.9 226.5 27.9 233.05 27.9 237.7 32.55 242.35 37.2 242.35 43.75 242.35 50.3 237.7 54.9 233.05 59.55 226.5 59.55 L224.35 59.45 225.6 51.75 M162.7 51.75 L163.95 59.25 M166.2 73.3 L169.8 95.25 M170.15 96.2 L144.5 96.1 Q138.4 107.75 138.4 121.95 138.4 145.25 154.85 161.75 171.35 178.2 194.65 178.2 217.95 178.2 234.4 161.75 250.9 145.25 250.9 121.95 250.9 98.65 234.4 82.2 228.7 76.5 222.2 72.75 L218.5 95.25 M166.2 73.3 Q160.2 76.85 154.85 82.2 148.4 88.65 144.5 96.1" fill="none" stroke="#ffffff" stroke-linecap="round" stroke-linejoin="round" stroke-opacity="0.34901962" stroke-width="1.7000000000000002"/>
  </g>
  <defs>
    <linearGradient gradientTransform="matrix(0.0245, 0.0446, -0.0619, 0.034, 210.35, 120.2)" gradientUnits="userSpaceOnUse" id="gradient0" spreadMethod="pad" x1="-819.2" x2="819.2">
      <stop offset="0.0" stop-color="#b89828"/>
      <stop offset="0.3137254901960784" stop-color="#ffffff"/>
      <stop offset="0.4549019607843137" stop-color="#f7e5a3"/>
      <stop offset="0.8235294117647058" stop-color="#c19a3e"/>
      <stop offset="1.0" stop-color="#d09f2f"/>
    </linearGradient>
    <radialGradient cx="0" cy="0" gradientTransform="matrix(0.0538, 0.0, 0.0, 0.0538, 194.2, 115.7)" gradientUnits="userSpaceOnUse" id="gradient1" r="819.2" spreadMethod="pad">
      <stop offset="0.0" stop-color="#b89828"/>
      <stop offset="0.3137254901960784" stop-color="#ffffff"/>
      <stop offset="0.5254901960784314" stop-color="#f7e5a3"/>
      <stop offset="0.7686274509803922" stop-color="#c19a3e"/>
      <stop offset="0.9450980392156862" stop-color="#d09f2f"/>
    </radialGradient>
    <radialGradient cx="0" cy="0" gradientTransform="matrix(0.0538, 0.0, 0.0, 0.0538, 194.2, 115.7)" gradientUnits="userSpaceOnUse" id="gradient2" r="819.2" spreadMethod="pad">
      <stop offset="0.0" stop-color="#b89828"/>
      <stop offset="0.3137254901960784" stop-color="#ffffff"/>
      <stop offset="0.5254901960784314" stop-color="#f7e5a3"/>
      <stop offset="0.7686274509803922" stop-color="#c19a3e"/>
      <stop offset="0.9450980392156862" stop-color="#d09f2f"/>
    </radialGradient>
    <radialGradient cx="0" cy="0" gradientTransform="matrix(0.023, 0.0, 0.0, 0.023, 160.7, 43.7)" gradientUnits="userSpaceOnUse" id="gradient3" r="819.2" spreadMethod="pad">
      <stop offset="0.0" stop-color="#b89828"/>
      <stop offset="0.3137254901960784" stop-color="#ffffff"/>
      <stop offset="0.5254901960784314" stop-color="#f7e5a3"/>
      <stop offset="0.7686274509803922" stop-color="#c19a3e"/>
      <stop offset="0.9450980392156862" stop-color="#d09f2f"/>
    </radialGradient>
  </defs>
</svg>
