<?xml version="1.0" encoding="UTF-8" standalone="no"?>
<svg xmlns:ffdec="https://www.free-decompiler.com/flash" xmlns:xlink="http://www.w3.org/1999/xlink" ffdec:objectType="shape" height="162.15px" width="451.85px" xmlns="http://www.w3.org/2000/svg">
  <g transform="matrix(1.0, 0.0, 0.0, 1.0, 123.9, 29.65)">
    <path d="M31.9 -29.65 L194.05 132.5 171.8 132.5 9.65 -29.65 31.9 -29.65 M76.4 -29.65 L238.55 132.5 216.3 132.5 54.15 -29.65 76.4 -29.65 M120.9 -29.65 L283.05 132.5 260.8 132.5 98.65 -29.65 120.9 -29.65 M165.8 -29.65 L327.95 132.5 305.3 132.5 143.15 -29.65 165.8 -29.65 M38.25 132.5 L-123.9 -29.65 -101.65 -29.65 60.5 132.5 38.25 132.5 M127.3 132.5 L-34.85 -29.65 -12.6 -29.65 149.55 132.5 127.3 132.5 M82.75 132.5 L-79.4 -29.65 -57.1 -29.65 105.05 132.5 82.75 132.5" fill="#00cc00" fill-rule="evenodd" stroke="none"/>
  </g>
</svg>
