<?xml version="1.0" encoding="UTF-8" standalone="no"?>
<svg xmlns:ffdec="https://www.free-decompiler.com/flash" xmlns:xlink="http://www.w3.org/1999/xlink" ffdec:objectType="shape" height="655.35px" width="1219.2px" xmlns="http://www.w3.org/2000/svg">
  <g transform="matrix(1.0, 0.0, 0.0, 1.0, 554.9, 392.05)">
    <path d="M644.3 246.8 L-534.9 246.8 -534.9 -357.55 644.3 -357.55 644.3 246.8 Z" fill="none" stroke="#000000" stroke-linecap="round" stroke-linejoin="round" stroke-opacity="0.2" stroke-width="33.0"/>
    <path d="M-534.9 232.3 L-534.9 -372.05 644.3 -372.05 644.3 232.3 -534.9 232.3 Z" fill="none" stroke="#f02100" stroke-linecap="round" stroke-linejoin="round" stroke-width="40.0"/>
    <path d="M630.95 -371.2 Q646.45 -368.75 646.45 -350.8 L646.45 216.45 Q646.45 234.4 630.95 236.95 L630.95 237.35 -518.1 237.35 Q-539.0 237.35 -539.0 216.45 L-539.0 -350.8 Q-539.0 -371.7 -518.1 -371.7 L630.95 -371.7 630.95 -371.2" fill="url(#gradient0)" fill-rule="evenodd" stroke="none"/>
    <path d="M-524.75 223.15 L-524.75 230.8" fill="none" stroke="#ffffff" stroke-linecap="round" stroke-linejoin="round" stroke-width="5.0"/>
    <path d="M-524.75 223.15 L-530.75 223.15 M635.65 223.15 L-524.75 223.15" fill="none" stroke="#000000" stroke-linecap="round" stroke-linejoin="round" stroke-opacity="0.2" stroke-width="5.0"/>
    <path d="M-524.75 223.15 L-524.75 -367.9" fill="none" stroke="#ddeeff" stroke-linecap="round" stroke-linejoin="round" stroke-width="5.0"/>
    <path d="M-527.2 -363.9 L634.65 -363.9 634.65 -364.9" fill="none" stroke="#ffffff" stroke-linecap="round" stroke-linejoin="round" stroke-width="5.0"/>
    <path d="M-534.9 232.3 L-534.9 -372.05 644.3 -372.05 644.3 232.3 -534.9 232.3 Z" fill="none" stroke="#cdb31e" stroke-linecap="round" stroke-linejoin="round" stroke-opacity="0.9490196" stroke-width="12.0"/>
    <path d="M-529.85 228.55 L-529.85 -368.3 639.25 -368.3 639.25 228.55 -529.85 228.55 Z" fill="none" stroke="#000000" stroke-linecap="round" stroke-linejoin="round" stroke-opacity="0.9490196" stroke-width="6.0"/>
    <path d="M650.1 -387.8 Q651.35 -387.6 652.35 -386.65 653.4 -385.75 653.65 -384.55 653.85 -383.45 653.35 -382.8 L652.75 -382.4 652.65 -382.2 651.35 -382.05 Q650.15 -382.2 649.1 -383.1 648.05 -384.05 647.8 -385.3 647.55 -386.45 648.2 -387.25 648.9 -387.95 650.1 -387.8 M655.55 -382.3 Q656.35 -381.85 656.85 -380.9 657.4 -380.0 657.25 -379.1 657.15 -378.2 656.5 -377.85 L655.0 -377.9 Q654.2 -378.25 653.65 -379.15 653.2 -380.1 653.3 -381.05 653.35 -381.8 653.9 -382.2 L654.05 -382.35 654.55 -382.45 655.55 -382.3 M-533.95 -385.65 Q-533.95 -384.75 -534.75 -384.1 -535.55 -383.45 -536.7 -383.45 -537.85 -383.45 -538.65 -384.1 -539.45 -384.75 -539.45 -385.65 -539.45 -386.55 -538.65 -387.2 -537.85 -387.85 -536.7 -387.85 -535.55 -387.85 -534.75 -387.2 -533.95 -386.55 -533.95 -385.65 M-545.15 -376.6 Q-546.4 -376.6 -547.3 -377.55 -548.15 -378.45 -548.15 -379.8 -548.15 -381.15 -547.3 -382.1 -546.4 -383.0 -545.15 -383.0 -543.9 -383.0 -543.05 -382.1 -542.15 -381.15 -542.15 -379.8 -542.15 -378.45 -543.05 -377.55 -543.9 -376.6 -545.15 -376.6" fill="#ffffff" fill-opacity="0.6" fill-rule="evenodd" stroke="none"/>
    <path d="M641.8 -385.95 L550.6 -385.95 M659.1 221.8 L659.1 -372.95 M-527.8 -385.45 L537.7 -385.45" fill="none" stroke="#ffffff" stroke-linecap="round" stroke-linejoin="round" stroke-opacity="0.6" stroke-width="4.0"/>
  </g>
  <defs>
    <radialGradient cx="0" cy="0" gradientTransform="matrix(1.1036, 0.0, 0.0, 0.7613, 69.25, -184.6)" gradientUnits="userSpaceOnUse" id="gradient0" r="819.2" spreadMethod="pad">
      <stop offset="0.39215686274509803" stop-color="#f9ffff"/>
      <stop offset="1.0" stop-color="#a8fffc"/>
    </radialGradient>
  </defs>
</svg>
