<?xml version="1.0" encoding="UTF-8" standalone="no"?>
<svg xmlns:ffdec="https://www.free-decompiler.com/flash" xmlns:xlink="http://www.w3.org/1999/xlink" ffdec:objectType="shape" height="271.4px" width="255.1px" xmlns="http://www.w3.org/2000/svg">
  <g transform="matrix(1.0, 0.0, 0.0, 1.0, 127.5, 127.5)">
    <path d="M88.65 -71.6 Q125.35 -34.85 125.35 17.05 125.35 69.0 88.65 105.7 51.95 142.45 0.0 142.45 -51.95 142.45 -88.65 105.7 -125.35 69.0 -125.35 17.05 -125.35 -34.85 -88.65 -71.6 -51.95 -108.3 0.0 -108.3 51.95 -108.3 88.65 -71.6" fill="url(#gradient0)" fill-rule="evenodd" stroke="none"/>
    <path d="M89.1 -89.1 Q126.0 -52.2 126.0 0.0 126.0 52.2 89.1 89.1 52.2 126.0 0.0 126.0 -52.2 126.0 -89.1 89.1 -126.0 52.2 -126.0 0.0 -126.0 -52.2 -89.1 -89.1 -52.2 -126.0 0.0 -126.0 52.2 -126.0 89.1 -89.1" fill="url(#gradient1)" fill-rule="evenodd" stroke="none"/>
    <path d="M125.85 2.5 L126.1 11.75 Q126.1 65.9 89.3 104.1 52.5 142.4 0.4 142.4 -51.7 142.4 -88.5 104.1 -124.5 66.75 -125.55 11.9" fill="none" stroke="#69560e" stroke-linecap="round" stroke-linejoin="round" stroke-width="3.0"/>
    <path d="M120.25 35.6 Q111.45 64.35 89.3 87.3 77.9 99.15 65.05 107.35 M51.15 114.95 Q47.35 116.7 43.4 118.15 M33.3 121.4 Q17.7 125.6 0.4 125.6 -51.7 125.6 -88.5 87.3 -106.25 68.9 -115.5 46.25 M-120.7 30.75 L-122.2 24.55" fill="none" stroke="#ffffff" stroke-linecap="round" stroke-linejoin="round" stroke-opacity="0.6" stroke-width="3.5"/>
    <path d="M-125.45 12.6 Q-126.0 6.4 -126.0 0.0 -126.0 -52.2 -89.1 -89.1 -52.2 -126.0 0.0 -126.0 52.2 -126.0 89.1 -89.1 126.0 -52.2 126.0 0.0 L125.95 3.6" fill="none" stroke="#69560e" stroke-linecap="round" stroke-linejoin="round" stroke-width="3.0"/>
    <path d="M-0.05 -89.85 Q-37.3 -89.85 -63.65 -63.55 -89.95 -37.2 -89.95 0.0 -89.95 37.25 -63.65 63.55 -37.3 89.9 -0.05 89.9 37.15 89.9 63.45 63.55 89.8 37.25 89.8 0.0 89.8 -37.2 63.45 -63.55 37.15 -89.85 -0.05 -89.85 M-0.05 -112.3 Q46.45 -112.3 79.35 -79.4 112.25 -46.5 112.25 0.0 112.25 46.55 79.35 79.45 46.45 112.35 -0.05 112.35 -46.6 112.35 -79.5 79.45 -112.4 46.55 -112.4 0.0 -112.4 -46.5 -79.5 -79.4 -46.6 -112.3 -0.05 -112.3" fill="url(#gradient2)" fill-rule="evenodd" stroke="none"/>
    <path d="M-0.05 -89.85 Q37.15 -89.85 63.45 -63.55 89.8 -37.2 89.8 0.0 89.8 37.25 63.45 63.55 37.15 89.9 -0.05 89.9 -37.3 89.9 -63.65 63.55 -89.95 37.25 -89.95 0.0 -89.95 -37.2 -63.65 -63.55 -37.3 -89.85 -0.05 -89.85" fill="none" stroke="#fcf29f" stroke-linecap="round" stroke-linejoin="round" stroke-width="2.0"/>
    <path d="M-0.05 -112.3 Q46.45 -112.3 79.35 -79.4 112.25 -46.5 112.25 0.0 112.25 46.55 79.35 79.45 46.45 112.35 -0.05 112.35 -46.6 112.35 -79.5 79.45 -112.4 46.55 -112.4 0.0 -112.4 -46.5 -79.5 -79.4 -46.6 -112.3 -0.05 -112.3 Z" fill="none" stroke="#69560e" stroke-linecap="round" stroke-linejoin="round" stroke-width="2.0"/>
    <path d="M-0.05 -89.85 Q-37.3 -89.85 -63.65 -63.55 -89.95 -37.2 -89.95 0.0 -89.95 37.25 -63.65 63.55 -37.3 89.9 -0.05 89.9 37.15 89.9 63.45 63.55 89.8 37.25 89.8 0.0 89.8 -37.2 63.45 -63.55 37.15 -89.85 -0.05 -89.85 M-0.05 -112.3 Q46.45 -112.3 79.35 -79.4 112.25 -46.5 112.25 0.0 112.25 46.55 79.35 79.45 46.45 112.35 -0.05 112.35 -46.6 112.35 -79.5 79.45 -112.4 46.55 -112.4 0.0 -112.4 -46.5 -79.5 -79.4 -46.6 -112.3 -0.05 -112.3" fill="url(#gradient3)" fill-rule="evenodd" stroke="none"/>
    <path d="M-0.05 -89.85 Q37.15 -89.85 63.45 -63.55 89.8 -37.2 89.8 0.0 89.8 37.25 63.45 63.55 37.15 89.9 -0.05 89.9 -37.3 89.9 -63.65 63.55 -89.95 37.25 -89.95 0.0 -89.95 -37.2 -63.65 -63.55 -37.3 -89.85 -0.05 -89.85" fill="none" stroke="#fcf29f" stroke-linecap="round" stroke-linejoin="round" stroke-width="2.0"/>
    <path d="M-0.05 -112.3 Q46.45 -112.3 79.35 -79.4 112.25 -46.5 112.25 0.0 112.25 46.55 79.35 79.45 46.45 112.35 -0.05 112.35 -46.6 112.35 -79.5 79.45 -112.4 46.55 -112.4 0.0 -112.4 -46.5 -79.5 -79.4 -46.6 -112.3 -0.05 -112.3 Z" fill="none" stroke="#69560e" stroke-linecap="round" stroke-linejoin="round" stroke-width="2.0"/>
    <path d="M58.7 -0.05 Q58.7 24.25 41.5 41.4 24.35 58.6 0.05 58.6 -24.25 58.6 -41.45 41.4 -58.6 24.25 -58.6 -0.05 -58.6 -24.35 -41.45 -41.55 -24.25 -58.7 0.05 -58.7 24.35 -58.7 41.5 -41.55 58.7 -24.35 58.7 -0.05" fill="#000000" fill-rule="evenodd" stroke="none"/>
    <path d="M58.7 -0.05 Q58.7 24.25 41.5 41.4 24.35 58.6 0.05 58.6 -24.25 58.6 -41.45 41.4 -58.6 24.25 -58.6 -0.05 -58.6 -24.35 -41.45 -41.55 -24.25 -58.7 0.05 -58.7 24.35 -58.7 41.5 -41.55 58.7 -24.35 58.7 -0.05 Z" fill="none" stroke="#69560e" stroke-linecap="round" stroke-linejoin="round" stroke-width="2.5"/>
    <path d="M13.1 -117.25 Q17.35 -115.3 18.6 -112.6 13.65 -98.3 13.45 -80.3 12.45 -80.9 9.85 -81.5 4.95 -82.5 -2.15 -82.9 -9.2 -83.4 -14.0 -82.8 -16.9 -82.8 -18.15 -82.05 -16.0 -98.85 -18.35 -115.3 L-18.15 -115.1 -18.2 -115.3 Q-19.55 -116.8 -12.35 -118.9 -5.2 -121.1 1.7 -120.1 8.8 -119.15 13.1 -117.25 M75.7 -55.15 Q70.5 -51.9 73.35 -52.8 76.35 -53.75 96.0 -64.1 95.05 -66.55 92.45 -67.9 80.9 -58.3 75.7 -55.15 M49.55 -67.8 Q52.2 -69.05 57.7 -64.85 63.1 -60.9 62.6 -55.5 L56.55 -52.45 Q57.55 -49.75 64.65 -39.4 L73.5 -27.15 78.8 -20.35 Q82.35 -15.8 83.95 -12.05 85.3 -8.9 83.9 -7.35 79.8 -4.6 75.65 -8.85 71.35 -13.1 69.45 -15.7 L66.9 -19.2 Q56.35 -34.45 51.9 -46.95 47.2 -59.55 47.7 -63.3 48.1 -67.05 49.55 -67.8 M63.45 -55.1 Q79.05 -61.65 92.1 -72.0 L92.1 -71.75 92.25 -71.85 Q92.8 -73.7 98.25 -68.5 103.75 -63.5 106.35 -56.95 109.05 -50.35 109.55 -45.65 110.0 -41.0 108.3 -38.55 93.45 -35.7 77.7 -26.85 77.7 -28.05 77.0 -30.6 75.4 -35.35 72.2 -41.7 69.1 -48.0 66.1 -51.95 64.65 -54.4 63.45 -55.1 M19.05 -67.55 L14.7 -67.05 Q-3.8 -65.55 -16.9 -68.0 -30.1 -70.25 -33.0 -72.5 -36.1 -74.75 -36.1 -76.35 -35.75 -79.35 -29.45 -81.95 -23.35 -84.6 -18.9 -81.5 L-19.25 -74.7 -3.9 -75.3 11.15 -76.8 19.65 -77.95 29.5 -78.25 Q32.8 -77.9 33.55 -75.9 33.75 -70.95 28.05 -69.4 22.15 -67.85 19.05 -67.55 M109.9 45.4 L109.7 45.5 109.9 45.6 Q111.7 45.15 109.95 52.45 108.35 59.7 104.0 65.3 99.65 70.95 95.85 73.65 92.05 76.4 89.05 76.15 79.15 64.7 63.65 55.5 L66.5 53.0 Q69.85 49.25 73.75 43.25 77.65 37.55 79.55 32.95 80.95 30.5 81.0 29.05 94.45 39.25 109.9 45.4 M106.55 47.8 Q92.5 42.55 87.2 39.6 81.8 36.75 83.95 38.8 86.3 40.9 105.05 52.75 106.7 50.7 106.55 47.8 M86.45 19.15 Q85.8 25.9 80.9 28.1 L75.25 24.5 Q73.35 26.65 68.05 38.0 62.7 49.3 61.7 51.8 L58.55 59.7 Q56.35 65.05 53.95 68.35 51.85 71.1 49.9 70.75 45.45 68.45 46.95 62.7 48.55 56.85 49.85 54.0 L51.7 49.95 Q59.55 33.25 68.15 23.1 76.75 12.75 80.15 11.35 83.65 9.8 85.0 10.7 87.45 12.4 86.45 19.15 M12.7 86.95 Q15.55 86.95 16.8 86.2 14.65 103.0 17.1 119.45 L16.9 119.25 16.95 119.45 Q18.2 120.95 11.0 123.0 3.9 125.3 -3.0 124.25 -10.1 123.35 -14.4 121.4 -18.7 119.5 -19.9 116.8 -14.95 102.45 -14.75 84.45 L-11.2 85.7 0.9 87.05 Q7.85 87.55 12.7 86.95 M2.55 79.4 L-12.5 80.95 -21.0 82.15 Q-26.65 82.95 -30.8 82.4 -34.1 82.05 -34.85 80.05 -35.1 75.15 -29.4 73.6 -23.5 72.05 -20.35 71.7 L-16.0 71.25 Q2.55 69.75 15.55 72.2 28.75 74.4 31.7 76.65 34.85 78.85 34.75 80.55 34.45 83.45 28.15 86.1 22.0 88.8 17.6 85.65 L17.9 78.9 2.55 79.4 M-9.65 -114.75 Q-12.2 -115.1 -14.7 -113.6 -12.2 -98.75 -11.95 -92.7 -11.85 -86.65 -11.1 -89.5 -10.5 -92.5 -9.65 -114.75 M10.65 96.85 Q10.5 90.8 9.8 93.7 9.2 96.7 8.3 118.9 10.95 119.25 13.4 117.75 10.9 102.9 10.65 96.85 M-97.15 -69.45 Q-93.3 -72.25 -90.3 -72.0 -80.5 -60.55 -64.95 -51.35 L-67.75 -48.85 Q-71.15 -45.1 -75.1 -39.1 -78.95 -33.35 -80.9 -28.8 -82.25 -26.3 -82.3 -24.85 -95.7 -35.15 -111.2 -41.2 L-110.95 -41.35 -111.1 -41.4 Q-113.05 -41.0 -111.25 -48.35 -109.7 -55.55 -105.3 -61.1 -100.9 -66.75 -97.15 -69.45 M-88.45 -35.45 Q-83.1 -32.6 -85.25 -34.6 -87.6 -36.7 -106.4 -48.55 -108.0 -46.5 -107.9 -43.6 -93.8 -38.4 -88.45 -35.45 M-87.8 -15.0 Q-87.15 -21.7 -82.15 -23.95 L-76.5 -20.3 Q-74.7 -22.5 -69.3 -33.85 L-63.05 -47.65 -59.8 -55.55 Q-57.7 -60.9 -55.2 -64.2 -53.2 -66.95 -51.2 -66.55 -46.8 -64.3 -48.3 -58.55 -49.85 -52.7 -51.15 -49.8 L-52.95 -45.85 Q-60.85 -29.05 -69.5 -18.9 -78.05 -8.6 -81.5 -7.2 -84.9 -5.6 -86.3 -6.55 -88.75 -8.3 -87.8 -15.0 M-70.8 19.8 L-68.2 23.45 Q-57.65 38.65 -53.2 51.15 -48.55 63.75 -49.05 67.4 -49.45 71.2 -50.9 72.0 -53.55 73.2 -58.95 69.0 -64.35 65.05 -63.9 59.65 L-57.9 56.6 Q-58.9 53.9 -66.0 43.55 L-74.85 31.35 -80.1 24.5 Q-83.65 20.0 -85.25 16.2 -86.65 13.1 -85.25 11.5 -81.1 8.75 -76.95 13.0 -72.6 17.25 -70.8 19.8 M-73.55 45.9 Q-70.4 52.2 -67.45 56.1 -65.95 58.55 -64.75 59.25 -80.4 65.85 -93.4 76.15 L-93.4 75.9 -93.55 76.0 Q-94.1 77.85 -99.55 72.7 -105.05 67.65 -107.65 61.15 -110.4 54.55 -110.85 49.85 -111.35 45.2 -109.6 42.7 -94.8 39.85 -79.05 31.0 L-78.3 34.75 Q-76.7 39.5 -73.55 45.9 M-77.05 59.3 Q-71.85 56.1 -74.7 57.0 -77.7 57.95 -97.35 68.25 -96.35 70.7 -93.8 72.05 -82.2 62.45 -77.05 59.3" fill="#fcf29f" fill-rule="evenodd" stroke="none"/>
    <path d="M13.65 -121.0 Q17.9 -119.1 19.15 -116.4 14.2 -102.05 14.0 -84.05 13.0 -84.65 10.4 -85.25 5.5 -86.25 -1.6 -86.7 -8.65 -87.15 -13.45 -86.6 -16.35 -86.5 -17.6 -85.8 -15.45 -102.6 -17.85 -119.05 L-17.65 -118.9 -17.7 -119.1 Q-19.0 -120.55 -11.8 -122.6 -4.65 -124.9 2.25 -123.85 9.35 -122.9 13.65 -121.0 M76.25 -58.9 Q71.05 -55.7 73.9 -56.55 76.9 -57.55 96.55 -67.85 95.6 -70.35 93.0 -71.65 81.4 -62.05 76.25 -58.9 M63.15 -59.25 L57.1 -56.2 Q58.1 -53.5 65.2 -43.15 72.45 -33.0 74.05 -30.95 L79.35 -24.1 Q82.9 -19.6 84.5 -15.85 85.85 -12.65 84.45 -11.1 80.35 -8.4 76.2 -12.6 71.85 -16.9 70.0 -19.45 L67.45 -23.0 Q56.9 -38.25 52.45 -50.75 47.75 -63.35 48.25 -67.0 48.65 -70.8 50.1 -71.6 52.75 -72.8 58.2 -68.6 63.6 -64.7 63.15 -59.25 M63.95 -58.9 Q79.6 -65.45 92.65 -75.8 L92.65 -75.5 92.8 -75.65 Q93.35 -77.5 98.75 -72.3 104.25 -67.25 106.9 -60.75 109.6 -54.15 110.1 -49.45 110.55 -44.8 108.85 -42.3 94.0 -39.5 78.25 -30.6 78.25 -31.85 77.55 -34.35 75.95 -39.15 72.75 -45.5 69.65 -51.75 66.65 -55.7 65.2 -58.15 63.95 -58.9 M19.6 -71.35 L15.2 -70.85 Q-3.25 -69.35 -16.35 -71.75 -29.55 -74.0 -32.45 -76.25 -35.55 -78.45 -35.55 -80.15 -35.2 -83.05 -28.9 -85.7 -22.8 -88.4 -18.35 -85.3 L-18.7 -78.5 -3.35 -79.0 11.7 -80.5 20.2 -81.75 Q25.9 -82.5 30.05 -82.0 33.35 -81.65 34.1 -79.7 34.3 -74.75 28.6 -73.2 22.7 -71.65 19.6 -71.35 M87.0 15.35 Q86.35 22.1 81.4 24.35 L75.8 20.7 Q73.9 22.9 68.55 34.2 L62.25 48.0 59.1 55.95 Q56.9 61.3 54.5 64.6 52.4 67.3 50.45 66.95 46.0 64.7 47.5 58.95 49.1 53.1 50.4 50.2 L52.25 46.2 Q60.1 29.45 68.7 19.3 77.3 8.95 80.7 7.65 84.15 6.0 85.55 6.9 88.0 8.7 87.0 15.35 M87.7 35.85 Q82.35 33.0 84.5 35.0 86.85 37.1 105.6 48.95 107.25 46.95 107.1 44.0 93.05 38.8 87.7 35.85 M110.4 41.8 Q112.25 41.4 110.5 48.7 108.9 55.95 104.55 61.5 100.2 67.15 96.4 69.9 92.6 72.65 89.55 72.35 79.7 60.95 64.2 51.75 65.3 51.15 67.0 49.25 70.4 45.5 74.3 39.5 78.15 33.75 80.1 29.2 81.5 26.7 81.55 25.25 94.95 35.55 110.45 41.65 L110.25 41.75 110.4 41.8 M3.1 75.7 L-11.95 77.15 -20.45 78.35 Q-26.1 79.2 -30.25 78.6 -33.55 78.3 -34.3 76.35 -34.55 71.35 -28.85 69.85 -22.95 68.25 -19.8 67.95 L-15.45 67.45 Q3.05 65.95 16.1 68.4 29.3 70.6 32.25 72.85 35.35 75.1 35.3 76.75 35.0 79.7 28.7 82.35 22.55 85.0 18.1 81.9 L18.45 75.1 3.1 75.7 M13.25 83.2 Q16.1 83.15 17.35 82.5 15.2 99.25 17.65 115.7 L17.4 115.55 17.5 115.75 Q18.75 117.15 11.55 119.25 4.45 121.5 -2.45 120.5 -9.6 119.55 -13.85 117.65 -18.15 115.75 -19.35 113.0 -14.4 98.7 -14.2 80.65 -13.2 81.3 -10.65 81.9 L1.45 83.3 Q8.4 83.75 13.25 83.2 M-9.1 -118.45 Q-11.7 -118.9 -14.15 -117.3 -11.65 -102.55 -11.45 -96.5 -11.3 -90.45 -10.6 -93.3 -9.95 -96.3 -9.1 -118.45 M11.2 93.15 Q11.05 87.05 10.35 89.95 9.75 92.95 8.85 115.15 11.45 115.5 13.95 113.95 11.45 99.2 11.2 93.15 M-96.6 -73.25 Q-92.75 -76.05 -89.75 -75.75 -79.95 -64.35 -64.4 -55.1 -65.55 -54.55 -67.25 -52.6 -70.6 -48.8 -74.55 -42.9 -78.4 -37.15 -80.35 -32.55 -81.75 -30.1 -81.75 -28.65 -95.15 -38.9 -110.65 -45.0 L-110.4 -45.15 -110.55 -45.2 Q-112.5 -44.8 -110.7 -52.05 -109.15 -59.35 -104.75 -64.9 -100.4 -70.55 -96.6 -73.25 M-107.35 -47.4 Q-93.25 -42.15 -87.9 -39.25 -82.55 -36.4 -84.7 -38.4 -87.1 -40.5 -105.85 -52.35 -107.45 -50.3 -107.35 -47.4 M-87.25 -18.75 Q-86.6 -25.45 -81.6 -27.7 L-76.0 -24.05 Q-74.15 -26.3 -68.8 -37.55 L-62.5 -51.35 -59.3 -59.35 Q-57.15 -64.65 -54.7 -68.0 -52.65 -70.7 -50.65 -70.35 -46.25 -68.05 -47.75 -62.35 -49.35 -56.45 -50.6 -53.6 L-52.45 -49.55 Q-60.3 -32.8 -68.95 -22.7 -77.5 -12.35 -80.95 -11.0 -84.35 -9.4 -85.75 -10.3 -88.2 -12.05 -87.25 -18.75 M-67.65 19.65 Q-57.1 34.85 -52.65 47.4 -48.0 59.95 -48.5 63.7 -48.9 67.45 -50.35 68.2 -53.0 69.45 -58.45 65.2 -63.8 61.3 -63.35 55.9 L-57.35 52.8 Q-58.35 50.15 -65.45 39.75 L-74.3 27.55 -79.55 20.7 Q-83.1 16.2 -84.7 12.45 -86.1 9.3 -84.7 7.75 -80.55 5.0 -76.4 9.2 -72.05 13.5 -70.25 16.1 L-67.65 19.65 M-73.0 42.1 Q-69.85 48.4 -66.9 52.35 -65.4 54.75 -64.2 55.5 -79.85 62.05 -92.85 72.4 L-92.85 72.15 -93.0 72.3 Q-93.55 74.1 -99.05 68.9 -104.5 63.85 -107.1 57.35 -109.85 50.75 -110.3 46.05 -110.8 41.4 -109.05 38.95 -94.25 36.1 -78.5 27.25 L-77.75 30.95 Q-76.2 35.8 -73.0 42.1 M-76.5 55.55 Q-71.3 52.35 -74.15 53.2 -77.15 54.15 -96.8 64.5 -95.8 67.0 -93.25 68.25 -81.65 58.7 -76.5 55.55" fill="#69560e" fill-rule="evenodd" stroke="none"/>
    <path d="M13.6 -119.4 Q17.9 -117.5 19.1 -114.75 14.15 -100.4 13.95 -82.4 12.9 -83.05 10.35 -83.65 L-1.65 -85.1 Q-8.65 -85.5 -13.55 -84.95 -16.35 -84.9 -17.6 -84.2 -15.5 -101.0 -17.9 -117.45 L-17.7 -117.3 -17.75 -117.5 Q-19.0 -118.9 -11.9 -121.0 -4.7 -123.3 2.2 -122.25 9.3 -121.3 13.6 -119.4 M76.25 -57.3 Q71.05 -54.1 73.9 -54.95 76.9 -55.9 96.5 -66.2 95.55 -68.75 92.95 -70.05 81.4 -60.45 76.25 -57.3 M63.1 -57.65 L57.1 -54.55 Q58.1 -51.9 65.2 -41.55 L74.0 -29.3 79.3 -22.5 Q82.8 -17.95 84.4 -14.2 85.85 -11.05 84.45 -9.5 80.3 -6.75 76.1 -10.95 71.8 -15.25 70.0 -17.85 L67.4 -21.35 Q56.8 -36.6 52.4 -49.15 47.75 -61.7 48.25 -65.4 48.6 -69.2 50.1 -69.95 52.75 -71.15 58.15 -66.95 63.55 -63.05 63.1 -57.65 M63.95 -57.25 Q79.55 -63.8 92.6 -74.15 L92.6 -73.9 92.7 -74.05 Q93.3 -75.85 98.75 -70.65 104.25 -65.6 106.85 -59.1 109.6 -52.5 110.05 -47.8 110.5 -43.15 108.8 -40.65 93.95 -37.85 78.2 -29.0 78.2 -30.2 77.45 -32.7 75.85 -37.55 72.65 -43.85 69.6 -50.1 66.65 -54.1 65.15 -56.5 63.95 -57.25 M29.95 -80.4 Q33.3 -80.05 34.05 -78.1 34.3 -73.1 28.6 -71.6 22.7 -70.0 19.55 -69.7 L15.15 -69.2 Q-3.35 -67.7 -16.4 -70.15 -29.55 -72.35 -32.5 -74.6 -35.65 -76.85 -35.55 -78.5 -35.25 -81.45 -28.95 -84.1 -22.8 -86.75 -18.45 -83.65 L-18.7 -76.85 -3.35 -77.4 11.6 -78.9 20.2 -80.1 29.95 -80.4 M110.35 43.25 L110.2 43.35 110.35 43.4 Q112.25 43.05 110.45 50.3 108.85 57.6 104.5 63.15 100.1 68.8 96.35 71.5 92.55 74.3 89.5 74.0 79.7 62.6 64.15 53.4 65.2 52.8 66.95 50.85 70.35 47.1 74.2 41.15 78.15 35.4 80.1 30.85 81.45 28.35 81.5 26.9 94.9 37.15 110.35 43.25 M107.1 45.65 Q93.0 40.4 87.65 37.5 82.3 34.65 84.45 36.65 86.8 38.75 105.55 50.6 107.2 48.55 107.1 45.65 M87.0 17.0 Q86.25 23.7 81.35 26.0 L75.7 22.3 Q73.9 24.55 68.5 35.8 L62.25 49.6 59.0 57.6 Q56.9 62.95 54.4 66.25 52.4 68.9 50.4 68.6 45.9 66.3 47.45 60.6 49.05 54.7 50.35 51.85 L52.15 47.8 Q60.05 31.05 68.65 20.95 77.25 10.6 80.7 9.25 84.1 7.65 85.5 8.55 87.95 10.3 87.0 17.0 M13.2 84.85 Q16.05 84.75 17.3 84.1 15.2 100.85 17.55 117.3 L17.35 117.15 17.4 117.35 Q18.7 118.8 11.55 120.85 4.45 123.15 -2.55 122.1 -9.6 121.15 -13.9 119.25 -18.15 117.35 -19.45 114.65 -14.5 100.3 -14.25 82.3 -13.25 82.9 -10.7 83.5 L1.4 84.95 Q8.35 85.4 13.2 84.85 M18.4 76.75 L3.1 77.3 -11.95 78.75 -20.45 80.0 Q-26.2 80.8 -30.3 80.25 -33.6 79.9 -34.35 77.95 -34.55 73.0 -28.85 71.45 -23.0 69.9 -19.9 69.6 L-15.5 69.1 Q3.0 67.6 16.1 70.0 29.25 72.25 32.2 74.5 35.3 76.7 35.25 78.4 34.95 81.3 28.6 83.95 22.5 86.65 18.1 83.5 L18.4 76.75 M-9.15 -116.85 Q-11.75 -117.25 -14.2 -115.7 -11.7 -100.95 -11.45 -94.9 -11.3 -88.8 -10.6 -91.7 -10.05 -94.7 -9.15 -116.85 M11.15 94.75 Q10.95 88.7 10.3 91.55 9.7 94.55 8.85 116.75 11.4 117.15 13.9 115.55 11.35 100.8 11.15 94.75 M-96.65 -71.65 Q-92.8 -74.45 -89.85 -74.1 -79.95 -62.7 -64.5 -53.45 L-67.3 -51.0 Q-70.7 -47.2 -74.55 -41.25 -78.45 -35.5 -80.4 -30.9 -81.8 -28.45 -81.8 -27.0 -95.25 -37.3 -110.7 -43.4 L-110.45 -43.5 -110.65 -43.55 Q-112.55 -43.15 -110.75 -50.45 -109.2 -57.7 -104.85 -63.3 -100.45 -68.9 -96.65 -71.65 M-107.35 -45.75 Q-93.3 -40.55 -88.0 -37.6 -82.6 -34.8 -84.75 -36.75 -87.15 -38.85 -105.85 -50.75 -107.5 -48.7 -107.35 -45.75 M-87.3 -17.1 Q-86.6 -23.85 -81.7 -26.1 L-76.05 -22.45 Q-74.2 -24.65 -68.85 -35.95 L-62.55 -49.75 -59.35 -57.75 Q-57.2 -63.0 -54.75 -66.35 -52.7 -69.05 -50.7 -68.7 -46.25 -66.45 -47.75 -60.7 -49.35 -54.85 -50.65 -51.95 L-52.5 -47.95 Q-60.4 -31.2 -68.95 -21.05 -77.55 -10.75 -80.95 -9.4 -84.45 -7.75 -85.8 -8.7 -88.25 -10.45 -87.3 -17.1 M-67.7 21.3 Q-57.15 36.5 -52.7 49.0 -48.05 61.6 -48.55 65.3 -48.95 69.05 -50.4 69.85 -53.1 71.1 -58.5 66.85 -63.9 62.95 -63.4 57.5 L-57.4 54.45 Q-58.35 51.75 -65.5 41.4 L-74.35 29.2 -79.65 22.35 Q-83.15 17.85 -84.75 14.1 -86.15 10.9 -84.8 9.35 -80.65 6.65 -76.45 10.85 -72.15 15.15 -70.3 17.7 L-67.7 21.3 M-73.0 43.75 Q-69.9 50.05 -66.95 53.95 -65.45 56.4 -64.25 57.15 -79.85 63.7 -92.9 74.05 L-92.9 73.75 -93.05 73.9 Q-93.65 75.75 -99.05 70.55 -104.55 65.5 -107.15 59.0 -109.85 52.4 -110.35 47.7 -110.8 43.05 -109.1 40.6 -94.25 37.75 -78.55 28.85 L-77.8 32.6 Q-76.2 37.4 -73.0 43.75 M-76.55 57.15 Q-71.4 53.95 -74.15 54.8 -77.15 55.8 -96.85 66.15 -95.85 68.6 -93.25 69.9 -81.75 60.3 -76.55 57.15" fill="#000000" fill-rule="evenodd" stroke="none"/>
    <path d="M76.25 -57.3 Q81.4 -60.45 92.95 -70.05 95.55 -68.75 96.5 -66.2 76.9 -55.9 73.9 -54.95 71.05 -54.1 76.25 -57.3 M107.1 45.65 Q107.2 48.55 105.55 50.6 86.8 38.75 84.45 36.65 82.3 34.65 87.65 37.5 93.0 40.4 107.1 45.65 M11.15 94.75 Q11.35 100.8 13.9 115.55 11.4 117.15 8.85 116.75 9.7 94.55 10.3 91.55 10.95 88.7 11.15 94.75 M-9.15 -116.85 Q-10.05 -94.7 -10.6 -91.7 -11.3 -88.8 -11.45 -94.9 -11.7 -100.95 -14.2 -115.7 -11.75 -117.25 -9.15 -116.85 M-107.35 -45.75 Q-107.5 -48.7 -105.85 -50.75 -87.15 -38.85 -84.75 -36.75 -82.6 -34.8 -88.0 -37.6 -93.3 -40.55 -107.35 -45.75 M-76.55 57.15 Q-81.75 60.3 -93.25 69.9 -95.85 68.6 -96.85 66.15 -77.15 55.8 -74.15 54.8 -71.4 53.95 -76.55 57.15" fill="#fcf29f" fill-rule="evenodd" stroke="none"/>
    <path d="M39.7 -14.25 L40.35 -11.9 41.45 -11.95 45.4 -11.95 Q49.45 -11.95 52.3 -9.1 55.15 -6.25 55.15 -2.2 55.15 1.85 52.3 4.7 49.45 7.55 45.4 7.55 L41.45 7.55 40.5 7.5 39.45 11.3 Q37.45 17.5 33.2 22.4 28.95 27.25 22.4 30.1 15.8 32.95 6.75 33.0 L1.0 32.95 -3.8 32.75 -8.05 32.6 -12.05 32.55 -16.15 32.6 -20.25 32.75 -24.25 32.95 -28.4 33.0 -31.75 32.45 Q-33.45 31.9 -34.6 30.7 -35.75 29.45 -35.8 27.55 -35.75 25.55 -35.0 24.85 -34.25 24.15 -33.1 23.95 -31.95 23.7 -30.8 23.05 -29.65 22.4 -28.85 20.4 -28.05 18.45 -27.9 14.25 L-27.75 7.55 -32.1 7.55 Q-36.15 7.55 -39.0 4.7 -41.85 1.85 -41.85 -2.2 -41.85 -6.25 -39.0 -9.1 -36.15 -11.95 -32.1 -11.95 L-27.5 -11.95 -27.3 -11.95 -27.15 -19.05 Q-27.1 -22.65 -28.15 -24.1 -29.2 -25.55 -30.6 -26.1 -32.0 -26.6 -33.0 -27.35 -34.1 -28.15 -34.15 -30.4 -34.1 -32.55 -32.6 -33.65 -31.1 -34.75 -29.05 -35.15 L-25.25 -35.45 6.05 -35.45 Q16.0 -35.4 22.85 -32.6 29.65 -29.85 33.75 -25.05 37.85 -20.3 39.7 -14.25 M5.8 -24.1 Q3.0 -25.05 0.2 -25.0 -2.7 -25.0 -3.45 -23.75 -4.2 -22.45 -4.1 -19.7 L-4.1 16.1 Q-4.25 19.75 -3.05 21.4 -1.95 23.1 1.85 23.05 6.35 23.0 9.15 20.95 12.0 18.9 13.45 15.65 14.95 12.35 15.5 8.5 16.05 4.7 16.0 1.05 15.95 -7.35 14.6 -12.55 13.2 -17.7 10.9 -20.4 8.55 -23.15 5.8 -24.1" fill="#fcf29f" fill-rule="evenodd" stroke="none"/>
    <path d="M12.4 -8.15 Q11.0 -13.3 8.7 -16.0 6.35 -18.75 3.6 -19.7 0.8 -20.65 -2.0 -20.6 -4.9 -20.6 -5.65 -19.35 -6.4 -18.05 -6.3 -15.3 L-6.3 20.5 Q-6.45 24.15 -5.25 25.8 -4.15 27.5 -0.35 27.45 4.15 27.4 6.95 25.35 9.8 23.3 11.25 20.05 12.75 16.75 13.3 12.9 13.85 9.1 13.8 5.45 13.75 -2.95 12.4 -8.15 M37.5 -9.85 L38.15 -7.5 39.25 -7.55 43.2 -7.55 Q47.25 -7.55 50.1 -4.7 52.95 -1.85 52.95 2.2 52.95 6.25 50.1 9.1 47.25 11.95 43.2 11.95 L39.25 11.95 38.3 11.9 37.25 15.7 Q35.25 21.9 31.0 26.8 26.75 31.65 20.2 34.5 13.6 37.35 4.55 37.4 L-1.2 37.35 -6.0 37.15 -10.25 37.0 -14.25 36.95 -18.35 37.0 -22.45 37.15 -26.45 37.35 -30.6 37.4 -33.95 36.85 Q-35.65 36.3 -36.8 35.1 -37.95 33.85 -38.0 31.95 -37.95 29.95 -37.2 29.25 -36.45 28.55 -35.3 28.35 L-33.0 27.45 Q-31.85 26.8 -31.05 24.8 -30.25 22.85 -30.1 18.65 L-29.95 11.95 -34.3 11.95 Q-38.35 11.95 -41.2 9.1 -44.05 6.25 -44.05 2.2 -44.05 -1.85 -41.2 -4.7 -38.35 -7.55 -34.3 -7.55 L-29.7 -7.55 -29.5 -7.55 -29.35 -14.65 Q-29.3 -18.25 -30.35 -19.7 -31.4 -21.15 -32.8 -21.7 L-35.2 -22.95 Q-36.3 -23.75 -36.35 -26.0 -36.3 -28.15 -34.8 -29.25 -33.3 -30.35 -31.25 -30.75 L-27.45 -31.05 3.85 -31.05 Q13.8 -31.0 20.65 -28.2 27.45 -25.45 31.55 -20.65 35.65 -15.9 37.5 -9.85" fill="#69560e" fill-rule="evenodd" stroke="none"/>
    <path d="M-39.75 -7.6 Q-36.9 -10.45 -32.85 -10.45 L-17.95 -10.45 Q-13.9 -10.45 -11.05 -7.6 -8.2 -4.75 -8.2 -0.7 -8.2 3.35 -11.05 6.2 -13.9 9.05 -17.95 9.05 L-32.85 9.05 Q-36.9 9.05 -39.75 6.2 -42.6 3.35 -42.6 -0.7 -42.6 -4.75 -39.75 -7.6 M23.75 -0.7 Q23.75 -4.75 26.6 -7.6 29.45 -10.45 33.5 -10.45 L44.65 -10.45 Q48.7 -10.45 51.55 -7.6 54.4 -4.75 54.4 -0.7 54.4 3.35 51.55 6.2 48.7 9.05 44.65 9.05 L33.5 9.05 Q29.45 9.05 26.6 6.2 23.75 3.35 23.75 -0.7" fill="url(#gradient4)" fill-rule="evenodd" stroke="none"/>
    <path d="M5.3 -33.95 Q15.25 -33.9 22.1 -31.1 28.9 -28.35 33.0 -23.55 37.1 -18.8 38.95 -12.75 40.75 -6.75 40.7 -0.15 40.7 6.6 38.7 12.8 36.7 19.0 32.45 23.9 28.2 28.75 21.65 31.6 15.05 34.45 6.0 34.5 L0.25 34.45 -4.55 34.25 -8.8 34.1 -12.8 34.05 -16.9 34.1 -21.0 34.25 -25.0 34.45 -29.15 34.5 -32.5 33.95 Q-34.2 33.4 -35.35 32.2 -36.5 30.95 -36.55 29.05 -36.5 27.05 -35.75 26.35 -35.0 25.65 -33.85 25.45 -32.7 25.2 -31.55 24.55 -30.4 23.9 -29.6 21.9 -28.8 19.95 -28.65 15.75 L-27.9 -17.55 Q-27.85 -21.15 -28.9 -22.6 -29.95 -24.05 -31.35 -24.6 -32.75 -25.1 -33.75 -25.85 -34.85 -26.65 -34.9 -28.9 -34.85 -31.05 -33.35 -32.15 -31.85 -33.25 -29.8 -33.65 L-26.0 -33.95 5.3 -33.95 M13.85 -11.05 Q12.45 -16.2 10.15 -18.9 7.8 -21.65 5.05 -22.6 2.25 -23.55 -0.55 -23.5 -3.45 -23.5 -4.2 -22.25 -4.95 -20.95 -4.85 -18.2 L-4.85 17.6 Q-5.0 21.25 -3.8 22.9 -2.7 24.6 1.1 24.55 5.6 24.5 8.4 22.45 11.25 20.4 12.7 17.15 14.2 13.85 14.75 10.0 15.3 6.2 15.25 2.55 15.2 -5.85 13.85 -11.05" fill="url(#gradient5)" fill-rule="evenodd" stroke="none"/>
  </g>
  <defs>
    <linearGradient gradientTransform="matrix(0.072, -0.0539, 0.0916, 0.1223, 0.0, 17.05)" gradientUnits="userSpaceOnUse" id="gradient0" spreadMethod="reflect" x1="-819.2" x2="819.2">
      <stop offset="0.0392156862745098" stop-color="#f7dd00"/>
      <stop offset="0.17254901960784313" stop-color="#a48717"/>
      <stop offset="0.30196078431372547" stop-color="#f7dd00"/>
      <stop offset="0.40784313725490196" stop-color="#ffff77"/>
      <stop offset="0.6" stop-color="#ffffff"/>
      <stop offset="0.7568627450980392" stop-color="#f7dd00"/>
      <stop offset="1.0" stop-color="#a48717"/>
    </linearGradient>
    <linearGradient gradientTransform="matrix(0.0724, -0.0542, 0.092, 0.1229, 0.0, 0.0)" gradientUnits="userSpaceOnUse" id="gradient1" spreadMethod="reflect" x1="-819.2" x2="819.2">
      <stop offset="0.0392156862745098" stop-color="#f7dd00"/>
      <stop offset="0.17254901960784313" stop-color="#a48717"/>
      <stop offset="0.30196078431372547" stop-color="#f7dd00"/>
      <stop offset="0.40784313725490196" stop-color="#ffff77"/>
      <stop offset="0.6" stop-color="#ffffff"/>
      <stop offset="0.7568627450980392" stop-color="#f7dd00"/>
      <stop offset="1.0" stop-color="#a48717"/>
    </linearGradient>
    <linearGradient gradientTransform="matrix(0.0753, -0.0564, 0.092, 0.1229, 164.7, 237.35)" gradientUnits="userSpaceOnUse" id="gradient2" spreadMethod="reflect" x1="-819.2" x2="819.2">
      <stop offset="0.0392156862745098" stop-color="#f70000"/>
      <stop offset="0.17254901960784313" stop-color="#a81313"/>
      <stop offset="0.30196078431372547" stop-color="#f70000"/>
      <stop offset="0.40784313725490196" stop-color="#ff7777"/>
      <stop offset="0.6" stop-color="#ffffff"/>
      <stop offset="0.7568627450980392" stop-color="#f70000"/>
      <stop offset="1.0" stop-color="#a41717"/>
    </linearGradient>
    <radialGradient cx="0" cy="0" gradientTransform="matrix(0.1373, 0.0, 0.0, 0.1373, 0.05, -0.05)" gradientUnits="userSpaceOnUse" id="gradient3" r="819.2" spreadMethod="reflect">
      <stop offset="0.7843137254901961" stop-color="#f7dd00" stop-opacity="0.0"/>
      <stop offset="0.9568627450980393" stop-color="#43370a" stop-opacity="0.4"/>
    </radialGradient>
    <linearGradient gradientTransform="matrix(0.0724, -0.0542, 0.092, 0.1229, 255.95, 187.0)" gradientUnits="userSpaceOnUse" id="gradient4" spreadMethod="reflect" x1="-819.2" x2="819.2">
      <stop offset="0.0392156862745098" stop-color="#f7dd00"/>
      <stop offset="0.17254901960784313" stop-color="#a48717"/>
      <stop offset="0.30196078431372547" stop-color="#f7dd00"/>
      <stop offset="0.40784313725490196" stop-color="#ffff77"/>
      <stop offset="0.6" stop-color="#ffffff"/>
      <stop offset="0.7568627450980392" stop-color="#f7dd00"/>
      <stop offset="1.0" stop-color="#a48717"/>
    </linearGradient>
    <linearGradient gradientTransform="matrix(0.0724, -0.0542, 0.092, 0.1229, 255.95, 187.0)" gradientUnits="userSpaceOnUse" id="gradient5" spreadMethod="reflect" x1="-819.2" x2="819.2">
      <stop offset="0.0392156862745098" stop-color="#f7dd00"/>
      <stop offset="0.17254901960784313" stop-color="#a48717"/>
      <stop offset="0.30196078431372547" stop-color="#f7dd00"/>
      <stop offset="0.40784313725490196" stop-color="#ffff77"/>
      <stop offset="0.6" stop-color="#ffffff"/>
      <stop offset="0.7568627450980392" stop-color="#f7dd00"/>
      <stop offset="1.0" stop-color="#a48717"/>
    </linearGradient>
  </defs>
</svg>
