<?xml version="1.0" encoding="UTF-8" standalone="no"?>
<svg xmlns:ffdec="https://www.free-decompiler.com/flash" xmlns:xlink="http://www.w3.org/1999/xlink" ffdec:objectType="shape" height="165.15px" width="176.3px" xmlns="http://www.w3.org/2000/svg">
  <g transform="matrix(1.0, 0.0, 0.0, 1.0, -37.45, -27.15)">
    <path d="M193.75 133.45 L193.7 133.45 193.75 133.5 Q210.05 153.5 212.4 179.25 L178.0 179.25 Q173.0 179.25 173.0 184.25 L172.9 184.25 Q171.7 167.0 159.1 154.4 145.15 140.45 125.5 140.45 105.8 140.45 91.95 154.4 79.6 166.7 78.2 183.5 77.9 179.25 73.2 179.25 L38.6 179.25 Q40.9 153.25 57.45 133.15 L57.5 133.1 57.5 27.9 96.3 27.9 96.3 105.4 Q109.9 100.65 125.45 100.65 141.2 100.65 154.95 105.5 L154.95 27.9 193.75 27.9 193.75 133.45 M193.7 133.45 Q190.65 129.7 187.15 126.2 172.75 111.8 154.95 105.5 172.75 111.8 187.15 126.2 190.65 129.7 193.7 133.45 M57.5 133.1 Q60.45 129.55 63.75 126.2 78.3 111.65 96.3 105.4 78.3 111.65 63.75 126.2 60.45 129.55 57.5 133.1" fill="url(#gradient0)" fill-rule="evenodd" stroke="none"/>
    <path d="M78.2 183.5 L78.2 184.25 78.2 184.55 Q78.05 189.25 73.2 189.25 L38.2 189.25 38.2 179.25 38.6 179.25 73.2 179.25 Q77.9 179.25 78.2 183.5 M212.4 179.25 L213.0 179.25 213.0 191.55 178.0 191.55 Q173.1 191.55 173.0 186.8 L173.0 186.55 173.0 184.25 Q173.0 179.25 178.0 179.25 L212.4 179.25" fill="url(#gradient1)" fill-rule="evenodd" stroke="none"/>
    <path d="M193.75 133.5 L193.75 133.45 M173.0 186.55 L172.9 184.25" fill="none" stroke="#69560e" stroke-linecap="round" stroke-linejoin="round" stroke-width="1.0"/>
    <path d="M193.75 133.45 L193.7 133.45 193.75 133.5 Q210.05 153.5 212.4 179.25 L178.0 179.25 Q173.0 179.25 173.0 184.25 L172.9 184.25 Q171.7 167.0 159.1 154.4 145.15 140.45 125.5 140.45 105.8 140.45 91.95 154.4 79.6 166.7 78.2 183.5 L78.2 184.25 78.2 184.55 Q78.05 189.25 73.2 189.25 L38.2 189.25 38.2 179.25 38.6 179.25 Q40.9 153.25 57.45 133.15 L57.5 133.1 57.5 27.9 96.3 27.9 96.3 105.4 Q109.9 100.65 125.45 100.65 141.2 100.65 154.95 105.5 172.75 111.8 187.15 126.2 190.65 129.7 193.7 133.45 M193.75 133.45 L193.75 27.9 154.95 27.9 154.95 105.5 M173.0 184.25 L173.0 186.55 173.0 186.8 Q173.1 191.55 178.0 191.55 L213.0 191.55 213.0 179.25 212.4 179.25 M96.3 105.4 Q78.3 111.65 63.75 126.2 60.45 129.55 57.5 133.1 M38.6 179.25 L73.2 179.25 Q77.9 179.25 78.2 183.5" fill="none" stroke="#69560e" stroke-linecap="round" stroke-linejoin="round" stroke-width="1.5"/>
  </g>
  <defs>
    <linearGradient gradientTransform="matrix(-0.0919, -0.053, 0.0255, -0.0442, 141.2, 78.85)" gradientUnits="userSpaceOnUse" id="gradient0" spreadMethod="reflect" x1="-819.2" x2="819.2">
      <stop offset="0.0392156862745098" stop-color="#e0c800"/>
      <stop offset="0.17254901960784313" stop-color="#876e0d"/>
      <stop offset="0.30196078431372547" stop-color="#e0c800"/>
      <stop offset="0.40784313725490196" stop-color="#dbdb66"/>
      <stop offset="0.6" stop-color="#e7e7d2"/>
      <stop offset="0.7568627450980392" stop-color="#e0c800"/>
      <stop offset="1.0" stop-color="#876e0d"/>
    </linearGradient>
    <linearGradient gradientTransform="matrix(0.0, -0.0112, 0.0118, 0.0, 58.2, 188.95)" gradientUnits="userSpaceOnUse" id="gradient1" spreadMethod="reflect" x1="-819.2" x2="819.2">
      <stop offset="0.0392156862745098" stop-color="#e0c800"/>
      <stop offset="0.17254901960784313" stop-color="#876e0d"/>
      <stop offset="0.30196078431372547" stop-color="#e0c800"/>
      <stop offset="0.40784313725490196" stop-color="#dbdb66"/>
      <stop offset="0.6" stop-color="#e7e7d2"/>
      <stop offset="0.7568627450980392" stop-color="#e0c800"/>
      <stop offset="1.0" stop-color="#876e0d"/>
    </linearGradient>
  </defs>
</svg>
