<?xml version="1.0" encoding="UTF-8" standalone="no"?>
<svg xmlns:ffdec="https://www.free-decompiler.com/flash" xmlns:xlink="http://www.w3.org/1999/xlink" ffdec:objectType="shape" height="164.9px" width="238.35px" xmlns="http://www.w3.org/2000/svg">
  <g transform="matrix(1.0, 0.0, 0.0, 1.0, -71.55, -27.65)">
    <path d="M253.55 98.95 Q251.7 100.85 248.9 100.85 246.25 100.85 244.3 98.95 242.35 97.1 242.35 94.3 242.35 91.6 244.3 89.65 246.25 87.75 248.9 87.75 251.7 87.75 253.55 89.65 255.5 91.6 255.5 94.3 255.5 97.1 253.55 98.95 M305.9 76.3 Q305.9 79.1 303.95 80.95 302.1 82.85 299.3 82.85 296.65 82.85 294.7 80.95 292.75 79.1 292.75 76.3 292.75 73.6 294.7 71.65 296.65 69.75 299.3 69.75 302.1 69.75 303.95 71.65 305.9 73.6 305.9 76.3 M227.2 31.65 Q230.0 31.65 231.85 33.55 233.8 35.5 233.8 38.2 233.8 41.0 231.85 42.85 230.0 44.75 227.2 44.75 224.55 44.75 222.6 42.85 220.65 41.0 220.65 38.2 220.65 35.5 222.6 33.55 224.55 31.65 227.2 31.65 M185.25 58.45 Q185.25 55.75 187.2 53.8 189.15 51.9 191.8 51.9 194.6 51.9 196.45 53.8 198.4 55.75 198.4 58.45 198.4 61.25 196.45 63.1 194.6 65.0 191.8 65.0 189.15 65.0 187.2 63.1 185.25 61.25 185.25 58.45 M170.6 98.6 Q168.75 100.5 165.95 100.5 163.3 100.5 161.35 98.6 159.4 96.75 159.4 93.95 159.4 91.25 161.35 89.3 163.3 87.4 165.95 87.4 168.75 87.4 170.6 89.3 172.55 91.25 172.55 93.95 172.55 96.75 170.6 98.6 M222.5 94.0 Q222.5 96.8 220.55 98.65 218.7 100.55 215.9 100.55 213.25 100.55 211.3 98.65 209.35 96.8 209.35 94.0 209.35 91.3 211.3 89.35 213.25 87.45 215.9 87.45 218.7 87.45 220.55 89.35 222.5 91.3 222.5 94.0 M229.8 125.1 Q227.95 127.0 225.15 127.0 222.5 127.0 220.55 125.1 218.6 123.25 218.6 120.45 218.6 117.75 220.55 115.8 222.5 113.9 225.15 113.9 227.95 113.9 229.8 115.8 231.75 117.75 231.75 120.45 231.75 123.25 229.8 125.1 M165.45 122.4 Q165.45 125.2 163.5 127.05 161.65 128.95 158.85 128.95 156.2 128.95 154.25 127.05 152.3 125.2 152.3 122.4 152.3 119.7 154.25 117.75 156.2 115.85 158.85 115.85 161.65 115.85 163.5 117.75 165.45 119.7 165.45 122.4 M196.65 148.1 Q198.6 150.05 198.6 152.75 198.6 155.55 196.65 157.4 194.8 159.3 192.0 159.3 189.35 159.3 187.4 157.4 185.45 155.55 185.45 152.75 185.45 150.05 187.4 148.1 189.35 146.2 192.0 146.2 194.8 146.2 196.65 148.1 M192.0 188.55 Q189.35 188.55 187.4 186.65 185.45 184.8 185.45 182.0 185.45 179.3 187.4 177.35 189.35 175.45 192.0 175.45 194.8 175.45 196.65 177.35 198.6 179.3 198.6 182.0 198.6 184.8 196.65 186.65 194.8 188.55 192.0 188.55 M242.85 159.35 Q244.8 161.3 244.8 164.0 244.8 166.8 242.85 168.65 241.0 170.55 238.2 170.55 235.55 170.55 233.6 168.65 231.65 166.8 231.65 164.0 231.65 161.3 233.6 159.35 235.55 157.45 238.2 157.45 241.0 157.45 242.85 159.35 M288.25 104.35 Q288.25 101.65 290.2 99.7 292.15 97.8 294.8 97.8 297.6 97.8 299.45 99.7 301.4 101.65 301.4 104.35 301.4 107.15 299.45 109.0 297.6 110.9 294.8 110.9 292.15 110.9 290.2 109.0 288.25 107.15 288.25 104.35 M290.1 127.15 Q292.9 127.15 294.75 129.05 296.7 131.0 296.7 133.7 296.7 136.5 294.75 138.35 292.9 140.25 290.1 140.25 287.45 140.25 285.5 138.35 283.55 136.5 283.55 133.7 283.55 131.0 285.5 129.05 287.45 127.15 290.1 127.15 M260.55 126.65 Q260.55 129.45 258.6 131.3 256.75 133.2 253.95 133.2 251.3 133.2 249.35 131.3 247.4 129.45 247.4 126.65 247.4 123.95 249.35 122.0 251.3 120.1 253.95 120.1 256.75 120.1 258.6 122.0 260.55 123.95 260.55 126.65 M152.55 33.55 Q154.5 31.65 157.15 31.65 159.95 31.65 161.8 33.55 163.75 35.5 163.75 38.2 163.75 41.0 161.8 42.85 159.95 44.75 157.15 44.75 154.5 44.75 152.55 42.85 150.6 41.0 150.6 38.2 150.6 35.5 152.55 33.55 M92.25 75.6 Q89.5 78.4 85.3 78.4 81.35 78.4 78.45 75.6 75.55 72.85 75.55 68.65 75.55 64.65 78.45 61.75 81.35 58.9 85.3 58.9 89.5 58.9 92.25 61.75 95.15 64.65 95.15 68.65 95.15 72.85 92.25 75.6 M135.8 86.9 Q138.6 86.9 140.45 88.8 142.4 90.75 142.4 93.45 142.4 96.25 140.45 98.1 138.6 100.0 135.8 100.0 133.15 100.0 131.2 98.1 129.25 96.25 129.25 93.45 129.25 90.75 131.2 88.8 133.15 86.9 135.8 86.9 M135.0 121.5 Q136.95 123.45 136.95 126.15 136.95 128.95 135.0 130.8 133.15 132.7 130.35 132.7 127.7 132.7 125.75 130.8 123.8 128.95 123.8 126.15 123.8 123.45 125.75 121.5 127.7 119.6 130.35 119.6 133.15 119.6 135.0 121.5 M85.75 110.0 Q83.8 108.15 83.8 105.35 83.8 102.65 85.75 100.7 87.7 98.8 90.35 98.8 93.15 98.8 95.0 100.7 96.95 102.65 96.95 105.35 96.95 108.15 95.0 110.0 93.15 111.9 90.35 111.9 87.7 111.9 85.75 110.0 M91.25 130.75 Q93.2 128.85 95.85 128.85 98.65 128.85 100.5 130.75 102.45 132.7 102.45 135.4 102.45 138.2 100.5 140.05 98.65 141.95 95.85 141.95 93.2 141.95 91.25 140.05 89.3 138.2 89.3 135.4 89.3 132.7 91.25 130.75 M153.15 161.0 Q153.15 163.8 151.2 165.65 149.35 167.55 146.55 167.55 143.9 167.55 141.95 165.65 140.0 163.8 140.0 161.0 140.0 158.3 141.95 156.35 143.9 154.45 146.55 154.45 149.35 154.45 151.2 156.35 153.15 158.3 153.15 161.0 Z" fill="none" stroke="#000000" stroke-linecap="round" stroke-linejoin="round" stroke-opacity="0.2" stroke-width="8.0"/>
  </g>
</svg>
