<?xml version="1.0" encoding="UTF-8" standalone="no"?>
<svg xmlns:ffdec="https://www.free-decompiler.com/flash" xmlns:xlink="http://www.w3.org/1999/xlink" ffdec:objectType="shape" height="236.0px" width="236.1px" xmlns="http://www.w3.org/2000/svg">
  <g transform="matrix(1.0, 0.0, 0.0, 1.0, 115.1, 214.2)">
    <path d="M86.05 -13.15 Q51.65 21.3 3.0 21.3 -45.65 21.3 -80.1 -13.15 -114.5 -47.55 -114.5 -96.2 -114.5 -144.85 -80.1 -179.3 -45.65 -213.7 3.0 -213.7 51.65 -213.7 86.05 -179.3 120.5 -144.85 120.5 -96.2 120.5 -47.55 86.05 -13.15 M83.1 -16.05 Q116.35 -49.25 116.35 -96.2 116.35 -143.1 83.1 -176.35 49.95 -209.55 3.0 -209.55 -43.95 -209.55 -77.2 -176.35 -110.4 -143.1 -110.4 -96.2 -110.4 -49.25 -77.2 -16.05 -43.95 17.2 3.0 17.2 49.95 17.2 83.1 -16.05" fill="url(#gradient0)" fill-rule="evenodd" stroke="none"/>
    <path d="M86.05 -13.15 Q51.65 21.3 3.0 21.3 -45.65 21.3 -80.1 -13.15 -114.5 -47.55 -114.5 -96.2 -114.5 -144.85 -80.1 -179.3 -45.65 -213.7 3.0 -213.7 51.65 -213.7 86.05 -179.3 120.5 -144.85 120.5 -96.2 120.5 -47.55 86.05 -13.15 Z" fill="none" stroke="#69560e" stroke-linecap="round" stroke-linejoin="round" stroke-width="1.0"/>
    <path d="M86.0 -13.2 Q51.6 21.25 2.95 21.25 -45.7 21.25 -80.15 -13.2 -114.6 -47.6 -114.6 -96.25 -114.6 -144.85 -80.15 -179.3 -45.7 -213.7 2.95 -213.7 51.6 -213.7 86.0 -179.3 120.45 -144.85 120.45 -96.25 120.45 -47.6 86.0 -13.2" fill="url(#gradient1)" fill-rule="evenodd" stroke="none"/>
    <path d="M86.0 -13.2 Q51.6 21.25 2.95 21.25 -45.7 21.25 -80.15 -13.2 -114.6 -47.6 -114.6 -96.25 -114.6 -144.85 -80.15 -179.3 -45.7 -213.7 2.95 -213.7 51.6 -213.7 86.0 -179.3 120.45 -144.85 120.45 -96.25 120.45 -47.6 86.0 -13.2 Z" fill="none" stroke="#fceb59" stroke-linecap="round" stroke-linejoin="round" stroke-width="1.0"/>
  </g>
  <defs>
    <linearGradient gradientTransform="matrix(0.1335, 0.0624, -0.0183, 0.0393, 2.85, -96.3)" gradientUnits="userSpaceOnUse" id="gradient0" spreadMethod="reflect" x1="-819.2" x2="819.2">
      <stop offset="0.0392156862745098" stop-color="#f7dd00"/>
      <stop offset="0.17254901960784313" stop-color="#a48717"/>
      <stop offset="0.30196078431372547" stop-color="#f7dd00"/>
      <stop offset="0.40784313725490196" stop-color="#ffff77"/>
      <stop offset="0.6" stop-color="#ffffff"/>
      <stop offset="0.7568627450980392" stop-color="#f7dd00"/>
      <stop offset="1.0" stop-color="#a48717"/>
    </linearGradient>
    <linearGradient gradientTransform="matrix(0.075, -0.0562, 0.0954, 0.1273, 265.15, 197.25)" gradientUnits="userSpaceOnUse" id="gradient1" spreadMethod="reflect" x1="-819.2" x2="819.2">
      <stop offset="0.0392156862745098" stop-color="#f7dd00"/>
      <stop offset="0.17254901960784313" stop-color="#a48717"/>
      <stop offset="0.30196078431372547" stop-color="#f7dd00"/>
      <stop offset="0.40784313725490196" stop-color="#ffff77"/>
      <stop offset="0.6" stop-color="#ffffff"/>
      <stop offset="0.7568627450980392" stop-color="#f7dd00"/>
      <stop offset="1.0" stop-color="#a48717"/>
    </linearGradient>
  </defs>
</svg>
