<?xml version="1.0" encoding="UTF-8" standalone="no"?>
<svg xmlns:ffdec="https://www.free-decompiler.com/flash" xmlns:xlink="http://www.w3.org/1999/xlink" ffdec:objectType="shape" height="15.65px" width="46.25px" xmlns="http://www.w3.org/2000/svg">
  <g transform="matrix(1.0, 0.0, 0.0, 1.0, -13.8, 48.8)">
    <path d="M15.75 -38.7 Q14.55 -39.7 14.45 -40.1 14.15 -41.15 14.4 -41.55 14.6 -41.95 20.0 -43.05 L35.95 -46.2 47.8 -48.3 53.25 -48.0 Q47.15 -42.15 32.4 -38.7 17.65 -35.35 43.25 -44.75 L15.75 -38.7" fill="#e6e6e6" fill-rule="evenodd" stroke="none"/>
    <path d="M53.25 -48.0 L56.05 -48.25 59.1 -47.9 Q59.65 -47.85 59.5 -46.45 59.3 -45.15 57.15 -43.85 54.05 -42.05 49.95 -40.85 L41.15 -38.25 24.05 -33.65 19.35 -36.35 15.75 -38.7 43.25 -44.75 Q17.65 -35.35 32.4 -38.7 47.15 -42.15 53.25 -48.0" fill="#c0c0c0" fill-rule="evenodd" stroke="none"/>
    <path d="M15.75 -38.7 Q14.55 -39.7 14.45 -40.1 14.15 -41.15 14.4 -41.55 14.6 -41.95 20.0 -43.05 L35.95 -46.2 47.8 -48.3 53.25 -48.0 56.05 -48.25 59.1 -47.9 Q59.65 -47.85 59.5 -46.45 59.3 -45.15 57.15 -43.85 54.05 -42.05 49.95 -40.85 L41.15 -38.25 24.05 -33.65 19.35 -36.35 15.75 -38.7 Z" fill="none" stroke="#323232" stroke-linecap="round" stroke-linejoin="round" stroke-opacity="0.9882353" stroke-width="1.0"/>
  </g>
</svg>
