<?xml version="1.0" encoding="UTF-8" standalone="no"?>
<svg xmlns:ffdec="https://www.free-decompiler.com/flash" xmlns:xlink="http://www.w3.org/1999/xlink" ffdec:objectType="shape" height="89.3px" width="88.15px" xmlns="http://www.w3.org/2000/svg">
  <g transform="matrix(1.0, 0.0, 0.0, 1.0, 44.0, 60.55)">
    <path d="M42.3 3.75 Q48.05 29.15 18.75 27.8 -10.6 26.45 -30.25 14.25 -49.95 2.05 -39.4 -11.75 -28.85 -25.5 -6.35 -48.55 16.15 -71.65 26.35 -46.65 36.55 -21.65 42.3 3.75" fill="#ceaa1a" fill-rule="evenodd" stroke="none"/>
    <path d="M42.3 3.75 Q36.55 -21.65 26.35 -46.65 16.15 -71.65 -6.35 -48.55 -28.85 -25.5 -39.4 -11.75 -49.95 2.05 -30.25 14.25 -10.6 26.45 18.75 27.8 48.05 29.15 42.3 3.75 Z" fill="none" stroke="#323232" stroke-linecap="round" stroke-linejoin="round" stroke-width="1.8"/>
    <path d="M20.4 -47.85 Q31.55 -24.8 35.25 -6.85 38.95 11.05 16.1 12.9 -6.75 14.8 -25.25 0.4 -37.3 -9.05 -28.75 -19.4 -20.2 -29.7 1.55 -51.3 13.2 -62.9 20.4 -47.85" fill="#e1c92c" fill-rule="evenodd" stroke="none"/>
    <path d="M-14.85 -39.7 L-6.35 -48.55 Q16.15 -71.65 26.35 -46.65 L29.0 -39.9 Q23.95 -34.45 15.85 -28.95 1.45 -19.15 -4.9 -24.2 -10.4 -28.7 -14.85 -39.7" fill="#ceaa1a" fill-rule="evenodd" stroke="none"/>
    <path d="M29.0 -39.9 L26.35 -46.65 Q16.15 -71.65 -6.35 -48.55 L-14.85 -39.7 Q-30.95 -22.75 -39.4 -11.75 -49.95 2.05 -30.25 14.25 -10.6 26.45 18.75 27.8 48.05 29.15 42.3 3.75 37.35 -18.25 29.0 -39.9 Z" fill="none" stroke="#323232" stroke-linecap="round" stroke-linejoin="round" stroke-width="1.8"/>
  </g>
</svg>
