<?xml version="1.0" encoding="UTF-8" standalone="no"?>
<svg xmlns:ffdec="https://www.free-decompiler.com/flash" xmlns:xlink="http://www.w3.org/1999/xlink" ffdec:objectType="shape" height="130.9px" width="44.0px" xmlns="http://www.w3.org/2000/svg">
  <g transform="matrix(1.0, 0.0, 0.0, 1.0, -12.25, -16.3)">
    <path d="M51.75 45.65 Q49.7 59.85 50.65 74.1 51.5 87.0 47.85 99.6 43.7 113.95 45.75 128.95 47.05 138.2 41.65 146.45" fill="none" stroke="#7c6d21" stroke-linecap="round" stroke-linejoin="round" stroke-width="1.5"/>
    <path d="M50.0 46.05 Q49.05 44.95 49.05 43.35 49.05 41.75 50.0 40.6 50.95 39.5 52.25 39.5 53.6 39.5 54.55 40.6 55.5 41.75 55.5 43.35 55.5 44.95 54.55 46.05 53.6 47.2 52.25 47.2 50.95 47.2 50.0 46.05" fill="#5b6e7d" fill-rule="evenodd" stroke="none"/>
    <path d="M50.0 46.05 Q50.95 47.2 52.25 47.2 53.6 47.2 54.55 46.05 55.5 44.95 55.5 43.35 55.5 41.75 54.55 40.6 53.6 39.5 52.25 39.5 50.95 39.5 50.0 40.6 49.05 41.75 49.05 43.35 49.05 44.95 50.0 46.05 Z" fill="none" stroke="#305665" stroke-linecap="round" stroke-linejoin="round" stroke-width="1.5"/>
    <path d="M33.2 64.15 L30.9 64.3 Q27.6 64.3 24.8 62.95 21.25 61.25 18.4 57.4 15.45 53.45 14.2 48.6 13.25 44.95 13.25 40.8 13.2 31.1 18.4 24.2 23.55 17.3 30.9 17.3 L33.2 17.5 Q27.4 18.45 23.1 24.2 17.9 31.1 17.95 40.8 L18.1 44.25 Q18.65 49.9 21.2 54.45 L23.1 57.4 Q24.75 59.6 26.65 61.15 29.6 63.55 33.2 64.15" fill="#99b1b5" fill-opacity="0.38039216" fill-rule="evenodd" stroke="none"/>
    <path d="M33.2 17.5 L35.6 17.3 Q38.6 17.3 41.25 18.5 45.0 20.15 48.05 24.2 L48.85 25.35 Q51.7 29.65 52.7 35.0 53.2 37.75 53.2 40.8 L53.0 44.6 Q52.15 51.9 48.05 57.4 42.85 64.3 35.6 64.3 L33.35 64.15 33.2 64.15 Q29.6 63.55 26.65 61.15 24.75 59.6 23.1 57.4 L21.2 54.45 Q18.65 49.9 18.1 44.25 L17.95 40.8 Q17.9 31.1 23.1 24.2 27.4 18.45 33.2 17.5" fill="#e2e6e6" fill-opacity="0.4509804" fill-rule="evenodd" stroke="none"/>
    <path d="M33.2 17.5 L35.6 17.3 Q38.6 17.3 41.25 18.5 45.0 20.15 48.05 24.2 L48.85 25.35 Q51.7 29.65 52.7 35.0 53.2 37.75 53.2 40.8 L53.0 44.6 Q52.15 51.9 48.05 57.4 42.85 64.3 35.6 64.3 L33.35 64.15 33.2 64.15 30.9 64.3 Q27.6 64.3 24.8 62.95 21.25 61.25 18.4 57.4 15.45 53.45 14.2 48.6 13.25 44.95 13.25 40.8 13.2 31.1 18.4 24.2 23.55 17.3 30.9 17.3 L33.2 17.5 Q27.4 18.45 23.1 24.2 17.9 31.1 17.95 40.8 L18.1 44.25 Q18.65 49.9 21.2 54.45 L23.1 57.4 Q24.75 59.6 26.65 61.15 29.6 63.55 33.2 64.15" fill="none" stroke="#d3dbdc" stroke-linecap="round" stroke-linejoin="round" stroke-width="2.0"/>
    <path d="M47.65 34.6 Q48.6 34.5 49.45 36.45 50.3 38.4 50.55 41.2 50.75 44.05 50.2 46.1 49.65 48.15 48.65 48.25 47.7 48.3 47.05 46.4 46.35 44.5 46.95 41.8 47.5 39.1 47.1 36.9 46.7 34.65 47.65 34.6 M46.8 27.75 L47.85 30.0 Q48.25 31.3 48.15 32.3 48.05 33.25 47.55 33.3 47.0 33.35 46.8 32.3 L46.4 29.9 45.65 27.7 Q45.1 26.9 45.6 26.9 46.1 26.85 46.8 27.75" fill="#e6e6e6" fill-rule="evenodd" stroke="none"/>
  </g>
</svg>
