<?xml version="1.0" encoding="UTF-8" standalone="no"?>
<svg xmlns:ffdec="https://www.free-decompiler.com/flash" xmlns:xlink="http://www.w3.org/1999/xlink" ffdec:objectType="shape" height="13.05px" width="40.45px" xmlns="http://www.w3.org/2000/svg">
  <g transform="matrix(1.0, 0.0, 0.0, 1.0, 60.2, 40.3)">
    <path d="M-21.0 -35.8 Q-26.2 -37.15 -39.45 -34.85 -21.8 -31.55 -34.15 -30.9 -46.5 -30.3 -51.05 -33.0 -47.45 -33.15 -47.25 -35.5 -48.1 -35.7 -40.85 -37.8 -33.6 -39.9 -27.35 -39.8 L-20.5 -39.25 Q-20.25 -39.0 -20.25 -37.75 -20.25 -37.25 -21.0 -35.8" fill="#e6e6e6" fill-rule="evenodd" stroke="none"/>
    <path d="M-21.0 -35.8 L-23.3 -32.15 Q-26.15 -27.9 -26.5 -27.75 L-41.0 -27.75 -48.45 -28.1 Q-52.0 -28.2 -54.75 -29.25 -58.1 -29.8 -59.15 -31.55 -60.25 -33.3 -59.05 -33.35 -58.7 -33.4 -57.6 -34.35 -56.2 -33.35 -52.7 -33.05 L-51.05 -33.0 Q-46.5 -30.3 -34.15 -30.9 -21.8 -31.55 -39.45 -34.85 -26.2 -37.15 -21.0 -35.8" fill="#c0c0c0" fill-rule="evenodd" stroke="none"/>
    <path d="M-51.05 -33.0 L-52.7 -33.05 Q-56.2 -33.35 -57.6 -34.35 -58.7 -33.4 -59.05 -33.35 -60.25 -33.3 -59.15 -31.55 -58.1 -29.8 -54.75 -29.25 -52.0 -28.2 -48.45 -28.1 L-41.0 -27.75 -26.5 -27.75 Q-26.15 -27.9 -23.3 -32.15 L-21.0 -35.8 Q-20.25 -37.25 -20.25 -37.75 -20.25 -39.0 -20.5 -39.25 L-27.35 -39.8 Q-33.6 -39.9 -40.85 -37.8 -48.1 -35.7 -47.25 -35.5 -47.45 -33.15 -51.05 -33.0 Z" fill="none" stroke="#323232" stroke-linecap="round" stroke-linejoin="round" stroke-opacity="0.9882353" stroke-width="1.0"/>
  </g>
</svg>
