<?xml version="1.0" encoding="UTF-8" standalone="no"?>
<svg xmlns:ffdec="https://www.free-decompiler.com/flash" xmlns:xlink="http://www.w3.org/1999/xlink" ffdec:objectType="shape" height="7.0px" width="6.85px" xmlns="http://www.w3.org/2000/svg">
  <g transform="matrix(1.0, 0.0, 0.0, 1.0, 0.1, 0.0)">
    <path d="M3.0 6.0 Q1.75 6.0 0.85 5.1 0.0 4.25 0.0 3.0 0.0 1.75 0.85 0.85 1.75 0.0 3.0 0.0 4.25 0.0 5.1 0.85 6.0 1.75 6.0 3.0 6.0 4.25 5.1 5.1 4.25 6.0 3.0 6.0" fill="#000000" fill-rule="evenodd" stroke="none"/>
    <path d="M3.0 6.0 Q2.0 5.6 1.15 3.7 0.35 1.8 1.95 1.35 3.55 0.9 4.9 2.25 6.3 3.65 5.4 4.3 L3.0 6.0 Z" fill="none" stroke="#000000" stroke-linecap="round" stroke-linejoin="round" stroke-width="2.0"/>
  </g>
</svg>
