<?xml version="1.0" encoding="UTF-8" standalone="no"?>
<svg xmlns:ffdec="https://www.free-decompiler.com/flash" xmlns:xlink="http://www.w3.org/1999/xlink" ffdec:objectType="shape" height="122.7px" width="269.6px" xmlns="http://www.w3.org/2000/svg">
  <g transform="matrix(1.0, 0.0, 0.0, 1.0, 36.85, 7.85)">
    <path d="M-12.4 -6.5 L208.35 -6.5 Q231.4 -6.5 231.4 14.15 L231.4 92.8 Q231.4 113.5 208.35 113.5 L-12.4 113.5 Q-35.5 113.5 -35.5 92.8 L-35.5 14.15 Q-35.5 -6.5 -12.4 -6.5" fill="url(#gradient0)" fill-rule="evenodd" stroke="none"/>
    <path d="M-12.4 -6.5 Q-35.5 -6.5 -35.5 14.15 L-35.5 92.8 Q-35.5 113.5 -12.4 113.5 L208.35 113.5 Q231.4 113.5 231.4 92.8 L231.4 14.15 Q231.4 -6.5 208.35 -6.5 L-12.4 -6.5 Z" fill="none" stroke="#9e3016" stroke-linecap="round" stroke-linejoin="round" stroke-width="2.75"/>
  </g>
  <defs>
    <linearGradient gradientTransform="matrix(0.0, 0.0823, -0.1684, 0.0, 137.35, 76.65)" gradientUnits="userSpaceOnUse" id="gradient0" spreadMethod="pad" x1="-819.2" x2="819.2">
      <stop offset="0.0" stop-color="#ff4e24"/>
      <stop offset="1.0" stop-color="#b5381a"/>
    </linearGradient>
  </defs>
</svg>
