<?xml version="1.0" encoding="UTF-8" standalone="no"?>
<svg xmlns:ffdec="https://www.free-decompiler.com/flash" xmlns:xlink="http://www.w3.org/1999/xlink" ffdec:objectType="shape" height="152.15px" width="233.35px" xmlns="http://www.w3.org/2000/svg">
  <g transform="matrix(1.0, 0.0, 0.0, 1.0, -66.9, -20.75)">
    <path d="M296.45 167.5 L74.45 167.75 184.85 24.0 296.45 167.5" fill="url(#gradient0)" fill-rule="evenodd" stroke="none"/>
    <path d="M296.45 167.65 L74.45 167.75 111.8 118.9 184.75 118.3 257.35 119.8 296.45 167.65" fill="url(#gradient1)" fill-rule="evenodd" stroke="none"/>
    <path d="M185.35 72.0 L185.65 119.2 111.2 119.5 144.15 72.3 170.8 71.7 185.35 72.0" fill="url(#gradient2)" fill-rule="evenodd" stroke="none"/>
    <path d="M185.25 72.0 L199.8 71.7 226.45 72.3 259.4 119.5 184.95 119.2 185.25 72.0" fill="url(#gradient3)" fill-rule="evenodd" stroke="none"/>
    <path d="M183.8 23.9 L219.95 70.8 150.7 70.8 183.8 23.9" fill="url(#gradient4)" fill-rule="evenodd" stroke="none"/>
    <path d="M146.5 71.7 L182.05 26.0 217.8 71.7 255.4 119.85 293.75 168.9 70.9 168.9 109.05 119.85 146.5 71.7 217.8 71.7 M109.05 119.85 L182.15 119.85 182.15 72.05 M255.4 119.85 L182.15 119.85" fill="none" stroke="#000000" stroke-linecap="round" stroke-linejoin="round" stroke-opacity="0.21176471" stroke-width="8.0"/>
    <path d="M149.0 70.45 L184.55 24.75 220.3 70.45 257.9 118.6 296.25 167.65 73.4 167.65 111.55 118.6 149.0 70.45 220.3 70.45 M111.55 118.6 L184.65 118.6 184.65 70.8 M257.9 118.6 L184.65 118.6" fill="none" stroke="#000000" stroke-linecap="round" stroke-linejoin="round" stroke-width="8.0"/>
    <path d="M149.0 70.45 L184.55 24.75 220.3 70.45 257.9 118.6 296.25 167.65 73.4 167.65 111.55 118.6 149.0 70.45 220.3 70.45 M111.55 118.6 L184.65 118.6 184.65 70.8 M257.9 118.6 L184.65 118.6" fill="none" stroke="#4a4949" stroke-linecap="round" stroke-linejoin="round" stroke-width="6.0"/>
    <path d="M149.0 70.45 L184.55 24.75 220.3 70.45 257.9 118.6 296.25 167.65 73.4 167.65 111.55 118.6 149.0 70.45 220.3 70.45 M111.55 118.6 L184.65 118.6 184.65 70.8 M257.9 118.6 L184.65 118.6" fill="none" stroke="#ffffff" stroke-linecap="round" stroke-linejoin="round" stroke-opacity="0.12941177" stroke-width="3.5"/>
    <path d="M149.0 70.45 L184.55 24.75 220.3 70.45 257.9 118.6 296.25 167.65 73.4 167.65 111.55 118.6 149.0 70.45 220.3 70.45 M111.55 118.6 L184.65 118.6 184.65 70.8 M257.9 118.6 L184.65 118.6" fill="none" stroke="#ffffff" stroke-linecap="round" stroke-linejoin="round" stroke-opacity="0.2" stroke-width="1.7000000000000002"/>
  </g>
  <defs>
    <radialGradient cx="0" cy="0" gradientTransform="matrix(0.2599, 0.0, 0.0, 0.2599, 169.9, 71.5)" gradientUnits="userSpaceOnUse" id="gradient0" r="819.2" spreadMethod="pad">
      <stop offset="0.07450980392156863" stop-color="#272727"/>
      <stop offset="0.396078431372549" stop-color="#5d5b5b"/>
      <stop offset="1.0" stop-color="#878787"/>
    </radialGradient>
    <radialGradient cx="0" cy="0" gradientTransform="matrix(0.2599, 0.0, 0.0, 0.0937, 171.45, 105.15)" gradientUnits="userSpaceOnUse" id="gradient1" r="819.2" spreadMethod="pad">
      <stop offset="0.07450980392156863" stop-color="#272727"/>
      <stop offset="0.396078431372549" stop-color="#3f6174"/>
      <stop offset="0.9921568627450981" stop-color="#00e9ff"/>
    </radialGradient>
    <radialGradient cx="0" cy="0" gradientTransform="matrix(0.0949, 0.0, 0.0, 0.0937, 167.6, 77.25)" gradientUnits="userSpaceOnUse" id="gradient2" r="819.2" spreadMethod="pad">
      <stop offset="0.07450980392156863" stop-color="#703a61"/>
      <stop offset="0.396078431372549" stop-color="#85346f"/>
      <stop offset="1.0" stop-color="#fa09f7"/>
    </radialGradient>
    <radialGradient cx="0" cy="0" gradientTransform="matrix(-0.1487, 0.0, 0.0, 0.075, 202.1, 71.7)" gradientUnits="userSpaceOnUse" id="gradient3" r="819.2" spreadMethod="pad">
      <stop offset="0.07450980392156863" stop-color="#2b3518"/>
      <stop offset="0.396078431372549" stop-color="#607e25"/>
      <stop offset="1.0" stop-color="#c7fa09"/>
    </radialGradient>
    <radialGradient cx="0" cy="0" gradientTransform="matrix(-0.0597, -0.0032, -0.0022, 0.0413, 185.0, 35.1)" gradientUnits="userSpaceOnUse" id="gradient4" r="819.2" spreadMethod="pad">
      <stop offset="0.09019607843137255" stop-color="#512515"/>
      <stop offset="0.396078431372549" stop-color="#af3d1e"/>
      <stop offset="1.0" stop-color="#faa809"/>
    </radialGradient>
  </defs>
</svg>
