<?xml version="1.0" encoding="UTF-8" standalone="no"?>
<svg xmlns:ffdec="https://www.free-decompiler.com/flash" xmlns:xlink="http://www.w3.org/1999/xlink" ffdec:objectType="shape" height="66.3px" width="448.15px" xmlns="http://www.w3.org/2000/svg">
  <g transform="matrix(1.0, 0.0, 0.0, 1.0, 29.4, 8.85)">
    <path d="M62.35 -4.35 L52.05 -3.75 51.85 -1.55 51.35 5.85 50.3 18.7 50.25 19.65 50.2 19.95 44.5 13.0 Q43.3 11.5 41.6 10.55 37.85 8.15 31.15 8.7 25.55 9.1 21.6 11.55 20.0 12.45 18.7 13.7 L18.25 13.25 18.1 13.1 8.8 3.5 7.9 2.6 Q3.8 -1.4 -4.85 -0.25 -9.85 0.05 -14.0 1.95 -17.9 3.75 -20.65 6.75 -23.3 9.75 -23.8 14.15 -24.05 16.35 -23.8 18.15 L-23.65 19.05 -23.15 20.8 Q-21.9 23.4 -19.25 25.05 L-13.6 29.55 -22.45 30.45 -26.4 30.85 Q-26.45 35.1 -25.6 38.1 -24.75 41.1 -23.0 42.8 L-22.0 43.65 -21.55 43.95 -10.75 51.4 -9.95 52.05 Q-6.5 54.45 -0.2 54.45 L1.8 54.45 Q6.85 53.95 11.1 52.4 15.1 50.5 17.65 47.5 18.95 45.8 19.75 43.65 L25.4 48.5 25.7 48.8 Q26.6 49.7 27.85 50.4 31.35 52.3 37.8 52.1 43.65 51.75 48.35 48.7 50.35 47.25 52.2 44.7 L56.5 49.25 59.9 49.25 69.5 48.85 69.6 46.85 70.1 39.95 70.2 38.95 70.25 38.1 75.8 45.05 75.95 45.2 Q77.15 46.7 78.95 47.85 82.3 50.05 88.75 49.95 94.75 49.55 99.25 46.6 102.3 44.4 104.95 39.3 L105.85 37.4 104.5 34.95 105.15 34.95 109.0 41.65 110.4 44.1 110.6 44.35 110.8 44.6 Q114.6 48.95 122.9 48.95 126.9 48.65 130.4 47.25 133.9 45.5 136.25 42.2 L137.55 39.6 Q138.45 37.2 139.1 33.75 L139.15 33.4 137.45 28.45 139.4 28.45 Q139.05 23.8 138.15 21.4 L138.0 21.05 135.3 12.8 134.75 11.15 134.55 10.7 Q132.55 7.05 129.1 5.2 125.45 3.1 120.35 3.35 114.8 3.7 110.95 6.05 107.05 8.35 104.95 12.45 103.35 15.35 102.8 19.1 L102.8 19.2 102.75 19.1 99.55 13.05 Q98.95 11.45 98.05 10.2 96.75 8.4 94.9 7.25 91.15 4.7 84.4 5.1 78.9 5.45 75.0 7.85 73.6 8.65 72.45 9.75 L72.7 6.45 65.65 -4.45 62.35 -4.35 M152.2 -5.75 L142.3 -5.5 142.3 -3.05 141.85 3.2 139.85 3.25 137.85 3.25 137.65 7.85 137.35 14.9 140.5 24.75 140.95 24.75 Q140.8 29.1 141.8 32.05 L142.0 32.7 144.6 40.55 144.7 40.85 Q145.4 43.05 146.7 44.45 149.4 47.75 154.9 47.6 L159.15 47.3 163.9 46.45 163.75 43.15 163.7 39.8 163.7 34.55 163.7 34.05 161.9 24.75 160.0 25.2 159.6 25.25 158.6 25.35 157.35 25.15 157.0 25.1 157.05 24.45 Q161.0 24.4 163.95 24.6 L164.15 20.4 164.2 19.55 164.4 13.25 162.6 2.75 157.5 2.95 155.75 -5.85 152.2 -5.75 M414.7 16.9 L414.45 13.55 Q409.3 13.05 406.85 14.25 403.6 15.65 402.55 18.9 402.15 16.55 402.15 15.05 L401.95 13.5 393.4 12.85 390.85 12.6 386.0 17.15 Q384.2 14.85 381.75 13.2 377.5 10.25 370.75 9.7 365.2 9.2 361.7 11.1 360.0 11.9 358.8 13.2 358.15 13.8 357.65 14.55 L353.0 19.75 354.65 8.4 351.15 8.05 340.8 7.0 335.8 13.5 335.0 8.65 331.15 8.75 320.7 8.35 320.05 9.35 320.05 5.9 Q315.05 5.5 312.45 7.0 310.1 8.15 307.8 12.05 L307.65 8.1 307.65 6.5 299.15 6.05 296.55 5.8 292.7 13.1 Q290.9 9.25 287.55 6.95 283.45 3.95 276.9 3.65 271.45 3.45 267.7 5.65 264.0 7.7 262.15 11.75 L261.8 12.5 261.15 14.3 258.1 22.7 257.8 23.45 256.85 22.35 258.85 16.65 Q258.4 11.75 257.05 9.3 255.05 5.95 251.55 4.05 247.9 2.1 242.95 2.05 238.4 1.8 235.1 3.15 231.75 4.55 230.0 7.1 229.0 8.4 228.55 10.0 L228.45 10.3 228.15 12.05 226.7 20.25 226.4 21.55 226.3 23.2 Q226.25 25.6 227.05 27.4 L225.6 34.95 225.9 36.7 226.8 40.4 Q228.0 43.8 230.2 45.7 234.4 49.15 241.65 49.35 245.75 49.25 249.05 48.2 252.3 46.9 254.1 44.55 L254.8 43.4 255.5 41.6 257.4 36.5 257.75 37.8 258.55 40.1 258.8 40.65 Q260.35 44.35 264.0 46.75 267.6 49.25 274.0 49.5 279.95 49.7 284.35 46.8 286.15 45.55 287.5 43.3 L292.0 35.85 292.15 38.6 292.15 38.9 292.25 40.95 292.5 46.25 292.6 49.15 302.5 49.6 305.7 49.7 312.05 41.3 312.05 41.15 311.8 36.85 Q311.55 34.95 311.6 33.05 L311.4 30.4 311.4 29.6 311.4 29.45 313.6 29.4 316.15 25.85 316.3 26.4 320.15 39.85 320.55 41.2 323.05 49.9 328.0 50.25 341.6 50.9 348.65 43.95 348.7 44.05 Q350.45 48.0 354.55 50.5 358.45 52.85 364.85 53.3 370.95 53.55 375.1 51.0 L375.9 50.45 382.65 45.0 383.25 50.7 383.7 53.55 393.6 54.0 396.95 54.25 408.6 46.1 Q408.0 42.95 407.95 42.0 L407.95 41.95 407.55 38.4 407.15 35.15 406.95 33.6 406.95 33.2 415.75 26.4 415.2 21.35 414.7 16.9 M211.25 18.35 Q211.15 13.1 209.65 9.5 208.1 5.7 204.7 3.95 201.25 1.9 195.7 2.0 190.9 1.9 187.55 3.7 184.2 5.4 182.2 8.55 180.6 10.7 179.85 15.7 L180.45 22.35 Q179.3 23.85 178.8 25.9 178.35 27.5 178.35 29.45 L178.35 31.0 178.4 31.45 179.3 39.5 179.3 39.95 179.35 40.15 Q179.5 42.15 180.55 43.8 181.75 45.85 184.2 47.2 186.5 48.3 189.8 48.4 192.7 48.35 195.4 47.25 196.95 46.45 199.45 43.95 L199.55 43.8 199.3 48.35 207.15 48.15 210.1 48.25 210.95 39.75 Q210.95 35.3 211.1 32.9 L211.2 27.0 211.25 26.1 211.25 19.9 211.25 18.35 M12.7 25.0 L12.55 26.15 11.4 25.1 12.7 25.0 Z" fill="none" stroke="#000000" stroke-linecap="round" stroke-linejoin="round" stroke-width="6.0"/>
    <path d="M62.35 -4.35 L52.05 -3.75 51.85 -1.55 51.35 5.85 50.3 18.7 50.25 19.65 50.2 19.95 44.5 13.0 Q43.3 11.5 41.6 10.55 37.85 8.15 31.15 8.7 25.55 9.1 21.6 11.55 20.0 12.45 18.7 13.7 L18.25 13.25 18.1 13.1 8.8 3.5 7.9 2.6 Q3.8 -1.4 -4.85 -0.25 -9.85 0.05 -14.0 1.95 -17.9 3.75 -20.65 6.75 -23.3 9.75 -23.8 14.15 -24.05 16.35 -23.8 18.15 L-23.65 19.05 -23.15 20.8 Q-21.9 23.4 -19.25 25.05 L-13.6 29.55 -22.45 30.45 -26.4 30.85 Q-26.45 35.1 -25.6 38.1 -24.75 41.1 -23.0 42.8 L-22.0 43.65 -21.55 43.95 -10.75 51.4 -9.95 52.05 Q-6.5 54.45 -0.2 54.45 L1.8 54.45 Q6.85 53.95 11.1 52.4 15.1 50.5 17.65 47.5 18.95 45.8 19.75 43.65 L25.4 48.5 25.7 48.8 Q26.6 49.7 27.85 50.4 31.35 52.3 37.8 52.1 43.65 51.75 48.35 48.7 50.35 47.25 52.2 44.7 L56.5 49.25 59.9 49.25 69.5 48.85 69.6 46.85 70.1 39.95 70.2 38.95 70.25 38.1 75.8 45.05 75.95 45.2 Q77.15 46.7 78.95 47.85 82.3 50.05 88.75 49.95 94.75 49.55 99.25 46.6 102.3 44.4 104.95 39.3 L105.85 37.4 104.5 34.95 105.15 34.95 109.0 41.65 110.4 44.1 110.6 44.35 110.8 44.6 Q114.6 48.95 122.9 48.95 126.9 48.65 130.4 47.25 133.9 45.5 136.25 42.2 L137.55 39.6 Q138.45 37.2 139.1 33.75 L139.15 33.4 137.45 28.45 139.4 28.45 Q139.05 23.8 138.15 21.4 L138.0 21.05 135.3 12.8 134.75 11.15 134.55 10.7 Q132.55 7.05 129.1 5.2 125.45 3.1 120.35 3.35 114.8 3.7 110.95 6.05 107.05 8.35 104.95 12.45 103.35 15.35 102.8 19.1 L102.8 19.2 102.75 19.1 99.55 13.05 Q98.95 11.45 98.05 10.2 96.75 8.4 94.9 7.25 91.15 4.7 84.4 5.1 78.9 5.45 75.0 7.85 73.6 8.65 72.45 9.75 L72.7 6.45 65.65 -4.45 62.35 -4.35 M152.2 -5.75 L142.3 -5.5 142.3 -3.05 141.85 3.2 139.85 3.25 137.85 3.25 137.65 7.85 137.35 14.9 140.5 24.75 140.95 24.75 Q140.8 29.1 141.8 32.05 L142.0 32.7 144.6 40.55 144.7 40.85 Q145.4 43.05 146.7 44.45 149.4 47.75 154.9 47.6 L159.15 47.3 163.9 46.45 163.75 43.15 163.7 39.8 163.7 34.55 163.7 34.05 161.9 24.75 160.0 25.2 159.6 25.25 158.6 25.35 157.35 25.15 157.0 25.1 157.05 24.45 Q161.0 24.4 163.95 24.6 L164.15 20.4 164.2 19.55 164.4 13.25 162.6 2.75 157.5 2.95 155.75 -5.85 152.2 -5.75 M414.7 16.9 L414.45 13.55 Q409.3 13.05 406.85 14.25 403.6 15.65 402.55 18.9 402.15 16.55 402.15 15.05 L401.95 13.5 393.4 12.85 390.85 12.6 386.0 17.15 Q384.2 14.85 381.75 13.2 377.5 10.25 370.75 9.7 365.2 9.2 361.7 11.1 360.0 11.9 358.8 13.2 358.15 13.8 357.65 14.55 L353.0 19.75 354.65 8.4 351.15 8.05 340.8 7.0 335.8 13.5 335.0 8.65 331.15 8.75 320.7 8.35 320.05 9.35 320.05 5.9 Q315.05 5.5 312.45 7.0 310.1 8.15 307.8 12.05 L307.65 8.1 307.65 6.5 299.15 6.05 296.55 5.8 292.7 13.1 Q290.9 9.25 287.55 6.95 283.45 3.95 276.9 3.65 271.45 3.45 267.7 5.65 264.0 7.7 262.15 11.75 L261.8 12.5 261.15 14.3 258.1 22.7 257.8 23.45 256.85 22.35 258.85 16.65 Q258.4 11.75 257.05 9.3 255.05 5.95 251.55 4.05 247.9 2.1 242.95 2.05 238.4 1.8 235.1 3.15 231.75 4.55 230.0 7.1 229.0 8.4 228.55 10.0 L228.45 10.3 228.15 12.05 226.7 20.25 226.4 21.55 226.3 23.2 Q226.25 25.6 227.05 27.4 L225.6 34.95 225.9 36.7 226.8 40.4 Q228.0 43.8 230.2 45.7 234.4 49.15 241.65 49.35 245.75 49.25 249.05 48.2 252.3 46.9 254.1 44.55 L254.8 43.4 255.5 41.6 257.4 36.5 257.75 37.8 258.55 40.1 258.8 40.65 Q260.35 44.35 264.0 46.75 267.6 49.25 274.0 49.5 279.95 49.7 284.35 46.8 286.15 45.55 287.5 43.3 L292.0 35.85 292.15 38.6 292.15 38.9 292.25 40.95 292.5 46.25 292.6 49.15 302.5 49.6 305.7 49.7 312.05 41.3 312.05 41.15 311.8 36.85 Q311.55 34.95 311.6 33.05 L311.4 30.4 311.4 29.6 311.4 29.45 313.6 29.4 316.15 25.85 316.3 26.4 320.15 39.85 320.55 41.2 323.05 49.9 328.0 50.25 341.6 50.9 348.65 43.95 348.7 44.05 Q350.45 48.0 354.55 50.5 358.45 52.85 364.85 53.3 370.95 53.55 375.1 51.0 L375.9 50.45 382.65 45.0 383.25 50.7 383.7 53.55 393.6 54.0 396.95 54.25 408.6 46.1 Q408.0 42.95 407.95 42.0 L407.95 41.95 407.55 38.4 407.15 35.15 406.95 33.6 406.95 33.2 415.75 26.4 415.2 21.35 414.7 16.9 M211.25 18.35 Q211.15 13.1 209.65 9.5 208.1 5.7 204.7 3.95 201.25 1.9 195.7 2.0 190.9 1.9 187.55 3.7 184.2 5.4 182.2 8.55 180.6 10.7 179.85 15.7 L180.45 22.35 Q179.3 23.85 178.8 25.9 178.35 27.5 178.35 29.45 L178.35 31.0 178.4 31.45 179.3 39.5 179.3 39.95 179.35 40.15 Q179.5 42.15 180.55 43.8 181.75 45.85 184.2 47.2 186.5 48.3 189.8 48.4 192.7 48.35 195.4 47.25 196.95 46.45 199.45 43.95 L199.55 43.8 199.3 48.35 207.15 48.15 210.1 48.25 210.95 39.75 Q210.95 35.3 211.1 32.9 L211.2 27.0 211.25 26.1 211.25 19.9 211.25 18.35 M12.7 25.0 L12.55 26.15 11.4 25.1 12.7 25.0 Z" fill="none" stroke="#642000" stroke-linecap="round" stroke-linejoin="round" stroke-width="4.0"/>
    <path d="M50.2 19.95 L50.15 20.7 50.1 21.55 49.35 30.65 46.95 28.0 47.1 21.45 46.95 19.3 46.85 18.7 46.55 17.25 Q45.9 14.75 44.5 13.0 L50.2 19.95 M62.25 40.4 L62.35 38.9 62.35 38.3 62.9 31.0 63.6 22.0 63.8 18.8 63.9 16.95 64.7 6.8 65.65 -4.45 72.7 6.45 72.45 9.75 Q70.25 11.65 68.8 14.35 67.5 16.4 66.85 18.85 66.4 20.35 66.25 22.1 L66.1 23.7 Q65.6 28.8 67.05 33.0 67.55 34.4 68.4 35.7 L69.25 36.75 70.25 38.1 70.2 38.95 70.1 39.95 69.6 46.85 69.5 48.85 62.25 40.4 M99.55 13.05 L102.75 19.1 102.8 19.2 102.75 19.55 102.55 22.15 102.5 23.3 Q102.35 27.45 103.25 30.65 L100.45 25.65 100.6 23.25 100.65 19.1 100.5 17.6 99.95 14.4 99.55 13.05 M135.3 12.8 L138.0 21.05 138.15 21.4 Q139.05 23.8 139.4 28.45 L136.2 18.85 136.15 18.3 135.3 12.8 M8.8 3.5 L18.1 13.1 18.25 13.25 18.7 13.7 Q16.75 15.5 15.35 17.95 L15.1 18.4 11.45 14.8 11.25 10.25 Q10.7 5.85 8.8 3.5 M157.5 2.95 L155.1 3.0 155.6 -3.3 155.75 -5.85 157.5 2.95 M162.1 37.85 L161.95 34.5 161.95 34.35 Q161.75 31.65 161.9 25.3 L161.9 24.75 163.7 34.05 163.7 34.55 163.7 39.8 163.75 43.15 163.9 46.45 162.1 37.85 M157.0 25.1 Q156.1 24.85 155.55 24.4 154.55 23.35 154.6 21.3 L154.65 19.5 154.65 18.0 154.85 14.6 157.05 24.45 157.0 25.1 M162.15 14.75 L162.15 13.35 162.35 10.3 162.6 2.75 164.4 13.25 164.2 19.55 164.15 20.4 163.95 24.6 162.15 14.75 M390.85 12.65 L391.75 21.15 392.1 24.15 392.35 26.4 393.1 33.15 393.25 34.7 394.05 41.9 394.1 42.35 394.55 45.35 383.7 53.55 383.25 50.7 382.65 45.0 385.45 42.7 386.55 41.85 Q389.45 39.25 391.05 34.15 L387.7 33.8 390.4 31.5 Q389.9 26.65 388.95 23.25 L388.25 21.15 388.1 20.7 Q387.2 18.75 386.0 17.15 L390.85 12.65 M340.8 7.0 L340.75 9.15 340.4 16.85 340.3 18.0 340.05 20.8 339.05 30.85 Q338.05 26.5 337.4 22.35 L337.05 20.75 336.5 17.6 335.8 13.5 340.8 7.0 M320.7 8.35 L323.3 16.65 323.9 18.9 324.4 20.65 327.35 30.9 330.35 41.3 330.4 41.5 323.05 49.9 320.55 41.2 320.15 39.85 316.3 26.4 316.15 25.85 320.4 19.85 320.35 18.8 320.05 9.55 320.05 9.35 320.7 8.35 M296.55 5.85 L297.1 16.5 297.2 18.2 297.25 20.5 297.75 29.55 297.75 29.9 298.1 37.65 298.2 40.7 292.6 49.15 292.5 46.25 292.25 40.95 292.15 38.9 292.15 38.6 292.0 35.85 292.15 35.6 293.45 33.4 293.65 33.05 294.9 29.8 295.2 28.95 293.65 28.8 295.2 26.1 294.7 20.45 293.85 16.35 293.35 14.7 292.7 13.1 296.55 5.85 M280.9 27.85 L280.55 29.35 280.0 30.75 279.15 31.35 280.9 27.85 M83.7 32.05 L83.1 32.2 Q81.55 32.2 80.85 30.95 80.3 30.05 80.05 26.7 L83.7 32.05" fill="#d75505" fill-rule="evenodd" stroke="none"/>
    <path d="M49.35 30.65 L49.15 33.0 47.0 30.6 42.1 30.8 36.4 31.1 36.35 31.1 32.5 31.15 31.15 33.9 31.05 34.0 26.7 29.7 37.1 28.75 41.65 28.5 41.8 28.5 46.95 28.0 49.35 30.65 M48.5 40.85 L52.1 40.85 54.6 40.7 57.2 40.55 62.25 40.4 69.5 48.85 59.9 49.25 56.5 49.25 52.2 44.7 48.5 40.85 M139.4 28.45 L137.45 28.45 135.9 24.05 Q129.4 24.0 126.35 24.1 L125.3 24.15 124.75 24.2 123.8 24.15 121.8 19.4 123.8 19.25 126.65 19.1 131.25 18.9 136.2 18.85 139.4 28.45 M105.15 34.95 L104.5 34.95 100.7 28.3 92.75 28.4 90.0 28.45 86.95 28.4 86.3 28.4 85.0 31.3 83.7 32.05 80.05 26.7 87.5 26.25 92.5 26.0 95.25 25.9 100.45 25.65 103.25 30.65 Q103.9 33.05 105.15 34.95 M-13.6 29.55 L-19.25 25.05 Q-16.35 26.5 -12.45 27.35 L-11.9 27.45 Q-8.85 27.95 -7.4 28.65 -5.55 29.25 -5.05 30.2 -4.45 30.95 -4.65 32.15 -4.8 33.45 -5.35 34.4 L-11.55 29.4 -11.6 29.35 -13.6 29.55 M137.35 14.9 L140.95 14.85 141.35 14.85 141.2 19.4 141.2 19.65 Q140.85 22.05 140.95 24.6 L140.95 24.75 140.5 24.75 137.35 14.9 M142.0 32.7 Q142.7 34.5 143.9 35.75 L143.9 35.8 Q146.8 39.25 152.55 39.1 L157.05 38.75 162.1 37.85 163.9 46.45 159.15 47.3 154.9 47.6 Q149.4 47.75 146.7 44.45 145.4 43.05 144.7 40.85 L144.6 40.55 142.0 32.7 M154.85 14.6 Q159.0 14.55 162.15 14.75 L163.95 24.6 Q161.0 24.4 157.05 24.45 L154.85 14.6 M394.55 45.35 L395.8 45.4 405.05 45.85 408.6 46.1 396.95 54.25 393.6 54.0 383.7 53.55 394.55 45.35 M406.95 33.2 Q406.85 30.95 407.35 29.55 407.75 27.4 409.85 26.8 L415.75 26.4 406.95 33.2 M390.4 31.5 L387.7 33.8 381.35 33.2 380.15 33.1 376.1 32.75 376.1 32.8 372.7 35.85 Q371.8 35.5 371.25 34.65 370.75 33.95 370.25 32.35 L369.75 30.45 377.85 30.75 381.1 30.95 385.15 31.2 390.4 31.5 M369.2 21.0 Q369.35 19.85 369.65 19.4 370.25 18.1 371.85 18.2 373.4 18.4 374.3 19.95 L374.75 21.05 375.4 24.45 373.3 24.45 372.1 24.5 369.05 24.25 369.15 21.75 369.2 21.0 M330.4 41.5 L335.65 41.9 342.65 42.2 348.05 42.45 350.05 42.55 348.65 43.95 341.6 50.9 328.0 50.25 323.05 49.9 330.4 41.5 M320.4 19.85 L316.15 25.85 313.6 29.4 311.4 29.45 Q311.2 25.7 311.95 23.55 312.3 22.1 313.3 21.25 L314.35 20.6 314.5 20.5 314.65 20.45 Q316.25 19.75 320.4 19.85 M298.2 40.7 L305.15 41.05 306.45 41.1 308.7 41.2 312.05 41.3 305.7 49.7 302.5 49.6 292.6 49.15 298.2 40.7 M293.65 28.8 L291.7 28.65 289.0 28.4 284.75 28.2 280.9 27.85 279.15 31.35 278.2 31.5 Q276.65 31.4 275.85 30.1 L275.4 29.15 275.3 28.85 274.8 25.6 275.5 25.6 Q283.8 25.7 288.45 25.95 L289.8 26.05 291.55 26.05 295.2 26.1 293.65 28.8 M277.5 12.7 Q279.0 12.8 279.8 14.45 L280.1 15.8 280.6 19.25 277.4 19.25 274.35 19.2 Q274.45 15.65 275.05 14.35 L275.2 14.05 Q275.85 12.6 277.5 12.7 M246.55 16.5 L251.3 16.5 255.8 16.65 258.85 16.65 256.85 22.35 Q255.9 21.45 254.55 20.7 L254.2 20.5 253.6 20.15 Q251.0 18.85 247.1 18.0 L246.2 17.8 246.55 16.5 M179.85 15.7 L185.55 15.75 189.2 15.85 192.55 15.8 192.6 17.35 Q186.8 17.5 183.45 19.7 L182.5 20.35 181.8 20.9 180.45 22.35 179.85 15.7 M199.55 39.85 L207.85 39.65 210.3 39.75 210.95 39.75 210.1 48.25 207.15 48.15 199.3 48.35 199.55 43.8 199.45 43.95 199.55 39.85 M196.85 23.15 L197.85 22.95 197.55 26.5 197.45 27.25 196.9 29.15 Q195.9 30.5 194.45 30.6 193.1 30.4 192.6 29.75 191.95 28.75 192.0 27.55 L192.05 27.1 Q192.05 26.7 192.2 26.35 L192.5 25.6 192.8 25.15 192.8 25.1 193.4 24.5 Q194.2 23.7 196.85 23.15 M28.3 18.55 Q29.1 17.2 30.8 17.1 32.2 17.1 32.85 18.5 L32.85 18.6 33.15 20.5 33.2 20.95 33.35 22.9 29.9 23.35 28.55 23.45 26.9 23.6 27.45 20.75 Q27.8 19.2 28.25 18.65 L28.3 18.55 M-2.4 15.45 L4.55 15.1 9.55 14.85 11.45 14.8 15.1 18.4 15.05 18.45 14.05 20.3 Q13.05 22.5 12.7 25.0 L11.4 25.1 8.35 22.25 Q7.25 21.2 5.75 20.45 L4.75 20.0 4.65 19.95 Q3.2 19.35 1.45 18.95 L-2.4 15.45" fill="#9d3300" fill-rule="evenodd" stroke="none"/>
    <path d="M376.1 32.8 L375.55 35.35 Q374.75 36.1 373.7 36.05 L372.7 35.85 376.1 32.8 M26.7 29.7 L31.05 34.0 29.3 34.85 Q27.7 34.85 27.1 33.65 26.6 32.95 26.7 29.7 M-5.35 34.4 L-5.75 34.95 -5.9 35.1 Q-6.7 35.75 -8.15 35.9 -10.3 35.85 -11.0 34.35 -11.35 33.55 -11.5 31.25 L-11.6 29.35 -11.55 29.4 -5.35 34.4" fill="#c24900" fill-rule="evenodd" stroke="none"/>
    <path d="M385.45 42.7 L382.65 45.0 375.9 50.45 375.1 51.0 Q370.95 53.55 364.85 53.3 358.45 52.85 354.55 50.5 350.45 48.0 348.7 44.05 L348.65 43.95 350.05 42.55 350.15 41.5 350.5 38.9 351.35 31.7 351.9 27.65 352.8 21.1 352.85 20.85 353.0 19.75 357.65 14.55 356.4 16.75 Q355.6 18.3 355.3 20.15 L355.15 20.9 Q354.85 23.15 355.15 25.85 355.35 29.0 356.2 31.9 L357.55 35.3 Q358.55 37.6 360.35 39.45 361.5 40.65 362.95 41.6 L363.75 42.15 366.0 43.3 Q369.55 44.75 374.65 45.1 L379.75 44.8 382.55 44.05 385.45 42.7" fill="url(#gradient0)" fill-rule="evenodd" stroke="none"/>
    <path d="M261.15 14.3 Q260.5 16.4 260.35 18.8 L260.3 20.2 260.35 21.3 Q260.35 25.25 261.35 28.7 L262.2 31.15 Q263.85 35.5 267.95 38.2 270.8 40.15 275.4 40.8 L278.55 41.1 282.6 40.9 Q286.4 40.3 289.5 38.25 L289.75 38.1 292.0 35.8 292.0 35.85 287.5 43.3 Q286.15 45.55 284.35 46.8 279.95 49.7 274.0 49.5 267.6 49.25 264.0 46.75 260.35 44.35 258.8 40.65 L258.55 40.1 257.75 37.8 257.4 36.5 257.85 35.3 Q258.75 33.8 259.15 31.95 L259.4 29.15 259.4 28.6 Q259.25 26.2 258.3 24.35 L257.8 23.45 258.1 22.7 261.15 14.3" fill="url(#gradient1)" fill-rule="evenodd" stroke="none"/>
    <path d="M246.2 17.8 Q243.55 17.05 242.45 16.4 241.15 15.3 241.25 14.25 241.1 13.35 241.85 12.8 L241.95 12.7 Q242.45 12.15 243.6 12.25 244.75 12.25 245.55 13.3 L245.7 13.5 246.55 16.5 246.2 17.8" fill="url(#gradient2)" fill-rule="evenodd" stroke="none"/>
    <path d="M227.35 25.7 L227.65 27.55 227.9 28.85 Q228.7 32.6 230.4 35.05 L232.2 37.05 Q235.3 39.6 239.95 40.5 L244.3 40.95 248.45 40.55 252.15 39.7 Q254.35 38.85 255.9 37.55 L257.35 36.1 257.5 35.85 257.85 35.3 257.4 36.5 255.5 41.6 254.8 43.4 254.1 44.55 Q252.3 46.9 249.05 48.2 245.75 49.25 241.65 49.35 234.4 49.15 230.2 45.7 228.0 43.8 226.8 40.4 L225.9 36.7 225.6 34.95 227.05 27.4 227.35 25.7" fill="url(#gradient3)" fill-rule="evenodd" stroke="none"/>
    <path d="M228.15 12.05 L228.1 13.25 Q228.05 15.2 228.55 16.8 228.9 18.05 229.6 19.05 L230.3 20.0 Q231.7 21.6 233.75 22.7 235.9 23.85 238.8 24.55 L240.0 24.85 243.65 25.85 243.8 25.9 243.85 25.9 244.55 26.25 245.7 27.1 246.15 28.1 246.15 28.15 246.25 28.45 Q246.1 29.45 245.55 30.05 244.95 30.6 243.75 30.55 242.05 30.45 241.4 29.35 241.05 28.9 240.8 28.0 L240.45 26.45 240.35 26.05 239.75 26.0 Q233.05 25.7 230.45 25.8 L227.35 25.7 227.05 27.4 Q226.25 25.6 226.3 23.2 L226.4 21.55 226.7 20.25 228.15 12.05" fill="url(#gradient4)" fill-rule="evenodd" stroke="none"/>
    <path d="M192.55 15.8 Q192.95 13.45 193.35 12.85 L193.5 12.65 Q194.05 11.7 195.2 11.75 196.1 11.6 196.7 12.55 L196.8 12.8 Q197.2 13.55 197.45 17.5 L195.95 17.35 194.55 17.35 192.6 17.35 192.55 15.8" fill="url(#gradient5)" fill-rule="evenodd" stroke="none"/>
    <path d="M178.4 31.45 Q178.65 33.4 179.7 35.05 L179.7 35.1 Q181.0 37.25 183.55 38.65 186.0 39.8 189.5 39.95 L193.5 39.35 195.4 38.7 197.1 37.6 199.8 35.05 199.55 39.85 199.45 43.95 Q196.95 46.45 195.4 47.25 192.7 48.35 189.8 48.4 186.5 48.3 184.2 47.2 181.75 45.85 180.55 43.8 179.5 42.15 179.35 40.15 L179.3 39.95 179.3 39.5 178.4 31.45" fill="url(#gradient6)" fill-rule="evenodd" stroke="none"/>
    <path d="M121.8 19.4 L123.8 24.15 122.15 24.2 121.6 24.2 120.45 28.5 Q119.65 29.6 118.7 29.75 117.45 29.65 116.85 27.95 116.45 26.35 116.5 23.8 L116.55 21.95 116.75 19.2 Q117.0 16.7 117.5 15.45 L117.5 15.35 Q118.15 13.15 119.6 13.2 120.7 13.05 121.25 14.25 L121.45 14.85 121.8 19.25 121.8 19.4" fill="url(#gradient7)" fill-rule="evenodd" stroke="none"/>
    <path d="M137.45 28.45 L139.15 33.4 139.1 33.75 Q138.45 37.2 137.55 39.6 L136.25 42.2 Q133.9 45.5 130.4 47.25 126.9 48.65 122.9 48.95 114.6 48.95 110.8 44.6 L110.6 44.35 110.4 44.1 109.0 41.65 105.15 34.95 105.9 35.9 107.85 37.7 Q109.25 38.7 111.05 39.35 114.25 40.5 118.7 40.5 121.75 40.3 124.55 39.45 L126.65 38.7 Q130.3 36.85 132.8 33.4 L132.85 33.35 Q134.0 31.5 134.9 28.5 L135.85 24.45 135.9 24.05 137.45 28.45" fill="url(#gradient8)" fill-rule="evenodd" stroke="none"/>
    <path d="M86.55 16.05 L86.85 19.0 86.9 20.0 83.4 20.25 80.45 20.5 80.7 18.95 80.75 18.6 Q81.15 16.2 81.75 15.4 82.5 13.95 84.25 13.9 85.7 13.85 86.35 15.35 L86.55 16.05" fill="url(#gradient9)" fill-rule="evenodd" stroke="none"/>
    <path d="M104.5 34.95 L105.85 37.4 104.95 39.3 Q102.3 44.4 99.25 46.6 94.75 49.55 88.75 49.95 82.3 50.05 78.95 47.85 77.15 46.7 75.95 45.2 L75.8 45.05 70.25 38.1 69.25 36.75 70.3 37.85 Q70.9 38.45 71.65 38.95 L72.25 39.35 73.55 40.05 Q76.95 41.65 82.6 41.55 L87.8 40.7 91.55 39.25 91.75 39.15 93.7 38.0 94.3 37.55 96.5 35.3 Q98.7 32.6 100.7 28.3 L104.5 34.95" fill="url(#gradient10)" fill-rule="evenodd" stroke="none"/>
    <path d="M49.15 33.0 L48.75 37.65 48.65 38.75 48.6 39.85 48.5 40.85 52.2 44.7 Q50.35 47.25 48.35 48.7 43.65 51.75 37.8 52.1 31.35 52.3 27.85 50.4 26.6 49.7 25.7 48.8 L25.4 48.5 19.75 43.65 16.6 40.9 18.2 42.05 20.05 42.85 22.8 43.5 28.7 43.85 Q32.65 43.55 36.15 42.2 38.05 41.4 39.85 40.25 L41.65 38.7 42.2 38.15 Q44.8 35.35 47.0 30.6 L49.15 33.0" fill="url(#gradient11)" fill-rule="evenodd" stroke="none"/>
    <path d="M19.75 43.65 Q18.95 45.8 17.65 47.5 15.1 50.5 11.1 52.4 6.85 53.95 1.8 54.45 L-0.2 54.45 Q-6.5 54.45 -9.95 52.05 L-10.75 51.4 -21.55 43.95 Q-18.6 45.9 -13.6 46.3 L-11.5 46.35 -9.35 46.3 Q-4.0 45.8 0.45 44.15 L0.85 43.95 Q4.0 42.4 6.3 40.2 L7.4 39.0 7.85 38.4 Q10.0 35.2 10.6 30.9 L10.65 28.25 10.15 25.15 9.9 24.5 Q9.3 23.25 8.35 22.3 L8.35 22.25 11.4 25.1 12.55 26.15 12.5 27.05 12.3 28.65 Q12.0 32.7 13.25 35.95 13.65 37.3 14.4 38.45 15.2 39.75 16.5 40.85 L16.6 40.9 19.75 43.65" fill="url(#gradient12)" fill-rule="evenodd" stroke="none"/>
    <path d="M1.45 18.95 L-1.9 18.35 -2.35 18.25 Q-5.95 17.55 -7.6 16.55 L-8.0 16.2 Q-9.3 15.0 -9.05 13.3 -8.75 11.6 -7.95 10.75 -6.75 9.8 -5.5 9.6 -3.7 9.35 -2.85 10.85 -2.6 11.3 -2.45 12.45 -2.35 13.6 -2.4 15.45 L1.45 18.95" fill="url(#gradient13)" fill-rule="evenodd" stroke="none"/>
    <path d="M-21.55 43.95 L-22.0 43.65 -23.0 42.8 Q-24.75 41.1 -25.6 38.1 -26.45 35.1 -26.4 30.85 L-22.45 30.45 -13.6 29.55 -11.6 29.35 -11.5 31.25 Q-11.35 33.55 -11.0 34.35 -10.3 35.85 -8.15 35.9 -6.7 35.75 -5.9 35.1 L-5.75 34.95 -5.35 34.4 Q-4.8 33.45 -4.65 32.15 -4.45 30.95 -5.05 30.2 -5.55 29.25 -7.4 28.65 -8.85 27.95 -11.9 27.45 L-12.45 27.35 Q-16.35 26.5 -19.25 25.05 -21.9 23.4 -23.15 20.8 L-23.65 19.05 -23.8 18.15 Q-24.05 16.35 -23.8 14.15 -23.3 9.75 -20.65 6.75 -17.9 3.75 -14.0 1.95 -9.85 0.05 -4.85 -0.25 3.8 -1.4 7.9 2.6 L8.8 3.5 Q10.7 5.85 11.25 10.25 L11.45 14.8 9.55 14.85 4.55 15.1 -2.4 15.45 Q-2.35 13.6 -2.45 12.45 -2.6 11.3 -2.85 10.85 -3.7 9.35 -5.5 9.6 -6.75 9.8 -7.95 10.75 -8.75 11.6 -9.05 13.3 -9.3 15.0 -8.0 16.2 L-7.6 16.55 Q-5.95 17.55 -2.35 18.25 L-1.9 18.35 1.45 18.95 Q3.2 19.35 4.65 19.95 L4.75 20.0 5.75 20.45 Q7.25 21.2 8.35 22.25 L8.35 22.3 Q9.3 23.25 9.9 24.5 L10.15 25.15 10.65 28.25 10.6 30.9 Q10.0 35.2 7.85 38.4 L7.4 39.0 6.3 40.2 Q4.0 42.4 0.85 43.95 L0.45 44.15 Q-4.0 45.8 -9.35 46.3 L-11.5 46.35 -13.6 46.3 Q-18.6 45.9 -21.55 43.95" fill="url(#gradient14)" fill-rule="evenodd" stroke="none"/>
    <path d="M18.7 13.7 Q20.0 12.45 21.6 11.55 25.55 9.1 31.15 8.7 37.85 8.15 41.6 10.55 43.3 11.5 44.5 13.0 45.9 14.75 46.55 17.25 L46.85 18.7 46.95 19.3 47.1 21.45 46.95 28.0 41.8 28.5 41.65 28.5 37.1 28.75 26.7 29.7 Q26.6 32.95 27.1 33.65 27.7 34.85 29.3 34.85 L31.05 34.0 31.15 33.9 32.5 31.15 36.35 31.1 36.4 31.1 42.1 30.8 47.0 30.6 Q44.8 35.35 42.2 38.15 L41.65 38.7 39.85 40.25 Q38.05 41.4 36.15 42.2 32.65 43.55 28.7 43.85 L22.8 43.5 20.05 42.85 18.2 42.05 16.6 40.9 16.5 40.85 Q15.2 39.75 14.4 38.45 13.65 37.3 13.25 35.95 12.0 32.7 12.3 28.65 L12.5 27.05 12.55 26.15 12.7 25.0 Q13.05 22.5 14.05 20.3 L15.05 18.45 15.1 18.4 15.35 17.95 Q16.75 15.5 18.7 13.7 M28.3 18.55 L28.25 18.65 Q27.8 19.2 27.45 20.75 L26.9 23.6 28.55 23.45 29.9 23.35 33.35 22.9 33.2 20.95 33.15 20.5 32.85 18.6 32.85 18.5 Q32.2 17.1 30.8 17.1 29.1 17.2 28.3 18.55" fill="url(#gradient15)" fill-rule="evenodd" stroke="none"/>
    <path d="M50.2 19.95 L50.25 19.65 50.3 18.7 51.35 5.85 51.85 -1.55 52.05 -3.75 62.35 -4.35 65.65 -4.45 64.7 6.8 63.9 16.95 63.8 18.8 63.6 22.0 62.9 31.0 62.35 38.3 62.35 38.9 62.25 40.4 57.2 40.55 54.6 40.7 52.1 40.85 48.5 40.85 48.6 39.85 48.65 38.75 48.75 37.65 49.15 33.0 49.35 30.65 50.1 21.55 50.15 20.7 50.2 19.95" fill="url(#gradient16)" fill-rule="evenodd" stroke="none"/>
    <path d="M72.45 9.75 Q73.6 8.65 75.0 7.85 78.9 5.45 84.4 5.1 91.15 4.7 94.9 7.25 96.75 8.4 98.05 10.2 98.95 11.45 99.55 13.05 L99.95 14.4 100.5 17.6 100.65 19.1 100.6 23.25 100.45 25.65 95.25 25.9 92.5 26.0 87.5 26.25 80.05 26.7 Q80.3 30.05 80.85 30.95 81.55 32.2 83.1 32.2 L83.7 32.05 85.0 31.3 86.3 28.4 86.95 28.4 90.0 28.45 92.75 28.4 100.7 28.3 Q98.7 32.6 96.5 35.3 L94.3 37.55 93.7 38.0 91.75 39.15 91.55 39.25 87.8 40.7 82.6 41.55 Q76.95 41.65 73.55 40.05 L72.25 39.35 71.65 38.95 Q70.9 38.45 70.3 37.85 L69.25 36.75 68.4 35.7 Q67.55 34.4 67.05 33.0 65.6 28.8 66.1 23.7 L66.25 22.1 Q66.4 20.35 66.85 18.85 67.5 16.4 68.8 14.35 70.25 11.65 72.45 9.75 M86.55 16.05 L86.35 15.35 Q85.7 13.85 84.25 13.9 82.5 13.95 81.75 15.4 81.15 16.2 80.75 18.6 L80.7 18.95 80.45 20.5 83.4 20.25 86.9 20.0 86.85 19.0 86.55 16.05" fill="url(#gradient17)" fill-rule="evenodd" stroke="none"/>
    <path d="M102.8 19.2 L102.8 19.1 Q103.35 15.35 104.95 12.45 107.05 8.35 110.95 6.05 114.8 3.7 120.35 3.35 125.45 3.1 129.1 5.2 132.55 7.05 134.55 10.7 L134.75 11.15 135.3 12.8 136.15 18.3 136.2 18.85 131.25 18.9 126.65 19.1 123.8 19.25 121.8 19.4 121.8 19.25 121.45 14.85 121.25 14.25 Q120.7 13.05 119.6 13.2 118.15 13.15 117.5 15.35 L117.5 15.45 Q117.0 16.7 116.75 19.2 L116.55 21.95 116.5 23.8 Q116.45 26.35 116.85 27.95 117.45 29.65 118.7 29.75 119.65 29.6 120.45 28.5 L121.6 24.2 122.15 24.2 123.8 24.15 124.75 24.2 125.3 24.15 126.35 24.1 Q129.4 24.0 135.9 24.05 L135.85 24.45 134.9 28.5 Q134.0 31.5 132.85 33.35 L132.8 33.4 Q130.3 36.85 126.65 38.7 L124.55 39.45 Q121.75 40.3 118.7 40.5 114.25 40.5 111.05 39.35 109.25 38.7 107.85 37.7 L105.9 35.9 105.15 34.95 Q103.9 33.05 103.25 30.65 102.35 27.45 102.5 23.3 L102.55 22.15 102.75 19.55 102.8 19.2" fill="url(#gradient18)" fill-rule="evenodd" stroke="none"/>
    <path d="M155.75 -5.85 L155.6 -3.3 155.1 3.0 157.5 2.95 162.6 2.75 162.35 10.3 162.15 13.35 162.15 14.75 Q159.0 14.55 154.85 14.6 L154.65 18.0 154.65 19.5 154.6 21.3 Q154.55 23.35 155.55 24.4 156.1 24.85 157.0 25.1 L157.35 25.15 158.6 25.35 159.6 25.25 160.0 25.2 161.9 24.75 161.9 25.3 Q161.75 31.65 161.95 34.35 L161.95 34.5 162.1 37.85 157.05 38.75 152.55 39.1 Q146.8 39.25 143.9 35.8 L143.9 35.75 Q142.7 34.5 142.0 32.7 L141.8 32.05 Q140.8 29.1 140.95 24.75 L140.95 24.6 Q140.85 22.05 141.2 19.65 L141.2 19.4 141.35 14.85 140.95 14.85 137.35 14.9 137.65 7.85 137.85 3.25 139.85 3.25 141.85 3.2 142.3 -3.05 142.3 -5.5 152.2 -5.75 155.75 -5.85" fill="url(#gradient19)" fill-rule="evenodd" stroke="none"/>
    <path d="M179.85 15.7 Q180.6 10.7 182.2 8.55 184.2 5.4 187.55 3.7 190.9 1.9 195.7 2.0 201.25 1.9 204.7 3.95 208.1 5.7 209.65 9.5 211.15 13.1 211.25 18.35 L211.25 19.9 211.25 26.1 211.2 27.0 211.1 32.9 Q210.95 35.3 210.95 39.75 L210.3 39.75 207.85 39.65 199.55 39.85 199.8 35.05 197.1 37.6 195.4 38.7 193.5 39.35 189.5 39.95 Q186.0 39.8 183.55 38.65 181.0 37.25 179.7 35.1 L179.7 35.05 Q178.65 33.4 178.4 31.45 L178.35 31.0 178.35 29.45 Q178.35 27.5 178.8 25.9 179.3 23.85 180.45 22.35 L181.8 20.9 182.5 20.35 183.45 19.7 Q186.8 17.5 192.6 17.35 L194.55 17.35 195.95 17.35 197.45 17.5 Q197.2 13.55 196.8 12.8 L196.7 12.55 Q196.1 11.6 195.2 11.75 194.05 11.7 193.5 12.65 L193.35 12.85 Q192.95 13.45 192.55 15.8 L189.2 15.85 185.55 15.75 179.85 15.7 M196.85 23.15 Q194.2 23.7 193.4 24.5 L192.8 25.1 192.8 25.15 192.5 25.6 192.2 26.35 Q192.05 26.7 192.05 27.1 L192.0 27.55 Q191.95 28.75 192.6 29.75 193.1 30.4 194.45 30.6 195.9 30.5 196.9 29.15 L197.45 27.25 197.55 26.5 197.85 22.95 196.85 23.15" fill="url(#gradient20)" fill-rule="evenodd" stroke="none"/>
    <path d="M246.55 16.5 L245.7 13.5 245.55 13.3 Q244.75 12.25 243.6 12.25 242.45 12.15 241.95 12.7 L241.85 12.8 Q241.1 13.35 241.25 14.25 241.15 15.3 242.45 16.4 243.55 17.05 246.2 17.8 L247.1 18.0 Q251.0 18.85 253.6 20.15 L254.2 20.5 254.55 20.7 Q255.9 21.45 256.85 22.35 L257.8 23.45 258.3 24.35 Q259.25 26.2 259.4 28.6 L259.4 29.15 259.15 31.95 Q258.75 33.8 257.85 35.3 L257.5 35.85 257.35 36.1 255.9 37.55 Q254.35 38.85 252.15 39.7 L248.45 40.55 244.3 40.95 239.95 40.5 Q235.3 39.6 232.2 37.05 L230.4 35.05 Q228.7 32.6 227.9 28.85 L227.65 27.55 227.35 25.7 230.45 25.8 Q233.05 25.7 239.75 26.0 L240.35 26.05 240.45 26.45 240.8 28.0 Q241.05 28.9 241.4 29.35 242.05 30.45 243.75 30.55 244.95 30.6 245.55 30.05 246.1 29.45 246.25 28.45 L246.15 28.15 246.15 28.1 245.7 27.1 244.55 26.25 243.85 25.9 243.8 25.9 243.65 25.85 240.0 24.85 238.8 24.55 Q235.9 23.85 233.75 22.7 231.7 21.6 230.3 20.0 L229.6 19.05 Q228.9 18.05 228.55 16.8 228.05 15.2 228.1 13.25 L228.15 12.05 228.45 10.3 228.55 10.0 Q229.0 8.4 230.0 7.1 231.75 4.55 235.1 3.15 238.4 1.8 242.95 2.05 247.9 2.1 251.55 4.05 255.05 5.95 257.05 9.3 258.4 11.75 258.85 16.65 L255.8 16.65 251.3 16.5 246.55 16.5" fill="url(#gradient21)" fill-rule="evenodd" stroke="none"/>
    <path d="M292.7 13.1 L293.35 14.7 293.85 16.35 294.7 20.45 295.2 26.1 291.55 26.05 289.8 26.05 288.45 25.95 Q283.8 25.7 275.5 25.6 L274.8 25.6 275.3 28.85 275.4 29.15 275.85 30.1 Q276.65 31.4 278.2 31.5 L279.15 31.35 280.0 30.75 280.55 29.35 280.9 27.85 284.75 28.2 289.0 28.4 291.7 28.65 293.65 28.8 295.2 28.95 294.9 29.8 293.65 33.05 293.45 33.4 292.15 35.6 292.0 35.8 289.75 38.1 289.5 38.25 Q286.4 40.3 282.6 40.9 L278.55 41.1 275.4 40.8 Q270.8 40.15 267.95 38.2 263.85 35.5 262.2 31.15 L261.35 28.7 Q260.35 25.25 260.35 21.3 L260.3 20.2 260.35 18.8 Q260.5 16.4 261.15 14.3 L261.8 12.5 262.15 11.75 Q264.0 7.7 267.7 5.65 271.45 3.45 276.9 3.65 283.45 3.95 287.55 6.95 290.9 9.25 292.7 13.1 M277.5 12.7 Q275.85 12.6 275.2 14.05 L275.05 14.35 Q274.45 15.65 274.35 19.2 L277.4 19.25 280.6 19.25 280.1 15.8 279.8 14.45 Q279.0 12.8 277.5 12.7" fill="url(#gradient22)" fill-rule="evenodd" stroke="none"/>
    <path d="M320.05 9.35 L320.05 9.55 320.35 18.8 320.4 19.85 Q316.25 19.75 314.65 20.45 L314.5 20.5 314.35 20.6 313.3 21.25 Q312.3 22.1 311.95 23.55 311.2 25.7 311.4 29.45 L311.4 29.6 311.4 30.4 311.6 33.05 Q311.55 34.95 311.8 36.85 L312.05 41.15 312.05 41.3 308.7 41.2 306.45 41.1 305.15 41.05 298.2 40.7 298.1 37.65 297.75 29.9 297.75 29.55 297.25 20.5 297.2 18.2 297.1 16.5 296.55 5.85 296.55 5.8 299.15 6.05 307.65 6.5 307.65 8.1 307.8 12.05 Q310.1 8.15 312.45 7.0 315.05 5.5 320.05 5.9 L320.05 9.35" fill="url(#gradient23)" fill-rule="evenodd" stroke="none"/>
    <path d="M353.0 19.75 L352.85 20.85 352.8 21.1 351.9 27.65 351.35 31.7 350.5 38.9 350.15 41.5 350.05 42.55 348.05 42.45 342.65 42.2 335.65 41.9 330.4 41.5 330.35 41.3 327.35 30.9 324.4 20.65 323.9 18.9 323.3 16.65 320.7 8.35 331.15 8.75 335.0 8.65 335.8 13.5 336.5 17.6 337.05 20.75 337.4 22.35 Q338.05 26.5 339.05 30.85 L340.05 20.8 340.3 18.0 340.4 16.85 340.75 9.15 340.8 7.0 351.15 8.05 354.65 8.4 353.0 19.75" fill="url(#gradient24)" fill-rule="evenodd" stroke="none"/>
    <path d="M386.0 17.15 Q387.2 18.75 388.1 20.7 L388.25 21.15 388.95 23.25 Q389.9 26.65 390.4 31.5 L385.15 31.2 381.1 30.95 377.85 30.75 369.75 30.45 370.25 32.35 Q370.75 33.95 371.25 34.65 371.8 35.5 372.7 35.85 L373.7 36.05 Q374.75 36.1 375.55 35.35 L376.1 32.8 376.1 32.75 380.15 33.1 381.35 33.2 387.7 33.8 391.05 34.15 Q389.45 39.25 386.55 41.85 L385.45 42.7 382.55 44.05 379.75 44.8 374.65 45.1 Q369.55 44.75 366.0 43.3 L363.75 42.15 362.95 41.6 Q361.5 40.65 360.35 39.45 358.55 37.6 357.55 35.3 L356.2 31.9 Q355.35 29.0 355.15 25.85 354.85 23.15 355.15 20.9 L355.3 20.15 Q355.6 18.3 356.4 16.75 L357.65 14.55 Q358.15 13.8 358.8 13.2 360.0 11.9 361.7 11.1 365.2 9.2 370.75 9.7 377.5 10.25 381.75 13.2 384.2 14.85 386.0 17.15 M369.2 21.0 L369.15 21.75 369.05 24.25 372.1 24.5 373.3 24.45 375.4 24.45 374.75 21.05 374.3 19.95 Q373.4 18.4 371.85 18.2 370.25 18.1 369.65 19.4 369.35 19.85 369.2 21.0" fill="url(#gradient25)" fill-rule="evenodd" stroke="none"/>
    <path d="M390.85 12.65 L390.85 12.6 393.4 12.85 401.95 13.5 402.15 15.05 Q402.15 16.55 402.55 18.9 403.6 15.65 406.85 14.25 409.3 13.05 414.45 13.55 L414.7 16.9 415.2 21.35 415.75 26.4 409.85 26.8 Q407.75 27.4 407.35 29.55 406.85 30.95 406.95 33.2 L406.95 33.6 407.15 35.15 407.55 38.4 407.95 41.95 407.95 42.0 Q408.0 42.95 408.6 46.1 L405.05 45.85 395.8 45.4 394.55 45.35 394.1 42.35 394.05 41.9 393.25 34.7 393.1 33.15 392.35 26.4 392.1 24.15 391.75 21.15 390.85 12.65" fill="url(#gradient26)" fill-rule="evenodd" stroke="none"/>
    <path d="M64.4 -3.65 L62.35 -3.6 53.65 -3.1 M154.4 -5.05 L152.2 -5.0 143.65 -4.75 M413.45 14.25 Q409.4 13.95 407.2 14.85 M382.95 14.85 L381.75 13.95 Q377.5 11.0 370.75 10.45 366.15 10.05 362.95 11.3 M401.45 14.2 L393.4 13.6 392.2 13.45 M353.45 9.25 L341.95 7.9 M334.45 9.5 L331.15 9.5 322.45 9.2 M306.7 7.2 L299.15 6.8 297.45 6.65 M289.05 8.85 L287.55 7.7 Q283.45 4.7 276.9 4.4 271.45 4.2 267.7 6.4 L265.95 7.55 M320.05 6.65 Q316.15 6.35 313.7 7.2 M253.9 6.4 Q252.8 5.5 251.55 4.8 247.9 2.85 242.95 2.8 238.4 2.55 235.1 3.9 L233.4 4.75 M208.15 7.55 Q206.75 5.75 204.7 4.7 201.25 2.65 195.7 2.75 190.9 2.65 187.55 4.45 185.85 5.3 184.5 6.55 M131.2 7.35 Q130.25 6.55 129.1 5.95 125.45 3.85 120.35 4.1 114.8 4.45 110.95 6.8 109.85 7.45 108.9 8.25 M141.65 3.95 L139.85 4.0 138.65 4.0 M161.15 3.55 L156.0 3.7 M96.85 9.55 L94.9 8.0 Q91.15 5.45 84.4 5.85 78.9 6.2 75.0 8.6 73.6 9.4 72.45 10.5 M41.4 11.2 Q37.65 8.9 31.15 9.45 26.45 9.8 22.9 11.6 M6.9 2.5 Q2.8 -0.5 -4.85 0.5 -9.85 0.8 -14.0 2.7 -17.45 4.3 -20.0 6.85" fill="none" stroke="#ffea8a" stroke-linecap="round" stroke-linejoin="round" stroke-width="1.5"/>
  </g>
  <defs>
    <linearGradient gradientTransform="matrix(0.0301, 0.0301, -0.0167, 0.0167, 388.0, 46.55)" gradientUnits="userSpaceOnUse" id="gradient0" spreadMethod="pad" x1="-819.2" x2="819.2">
      <stop offset="0.027450980392156862" stop-color="#c24900"/>
      <stop offset="0.20392156862745098" stop-color="#9d3300"/>
      <stop offset="0.792156862745098" stop-color="#9d3300"/>
      <stop offset="0.9921568627450981" stop-color="#c24900"/>
    </linearGradient>
    <linearGradient gradientTransform="matrix(0.0191, 0.0089, -0.0091, 0.0194, 276.65, 31.35)" gradientUnits="userSpaceOnUse" id="gradient1" spreadMethod="pad" x1="-819.2" x2="819.2">
      <stop offset="0.027450980392156862" stop-color="#c24900"/>
      <stop offset="0.20392156862745098" stop-color="#9d3300"/>
      <stop offset="0.792156862745098" stop-color="#9d3300"/>
      <stop offset="0.9921568627450981" stop-color="#c24900"/>
    </linearGradient>
    <linearGradient gradientTransform="matrix(0.0055, 0.0014, -9.0E-4, 0.0033, 242.9, 14.1)" gradientUnits="userSpaceOnUse" id="gradient2" spreadMethod="pad" x1="-819.2" x2="819.2">
      <stop offset="0.027450980392156862" stop-color="#c24900"/>
      <stop offset="0.20392156862745098" stop-color="#9d3300"/>
      <stop offset="0.792156862745098" stop-color="#9d3300"/>
      <stop offset="0.9921568627450981" stop-color="#c24900"/>
    </linearGradient>
    <linearGradient gradientTransform="matrix(0.0188, 0.005, -0.0037, 0.0139, 243.0, 37.2)" gradientUnits="userSpaceOnUse" id="gradient3" spreadMethod="pad" x1="-819.2" x2="819.2">
      <stop offset="0.027450980392156862" stop-color="#c24900"/>
      <stop offset="0.20392156862745098" stop-color="#9d3300"/>
      <stop offset="0.792156862745098" stop-color="#9d3300"/>
      <stop offset="0.9921568627450981" stop-color="#c24900"/>
    </linearGradient>
    <linearGradient gradientTransform="matrix(0.0201, 0.0054, -0.0029, 0.0109, 243.15, 22.7)" gradientUnits="userSpaceOnUse" id="gradient4" spreadMethod="pad" x1="-819.2" x2="819.2">
      <stop offset="0.027450980392156862" stop-color="#c24900"/>
      <stop offset="0.20392156862745098" stop-color="#9d3300"/>
      <stop offset="0.792156862745098" stop-color="#9d3300"/>
      <stop offset="0.9921568627450981" stop-color="#c24900"/>
    </linearGradient>
    <linearGradient gradientTransform="matrix(0.0059, 0.0, 0.0, 0.0038, 196.9, 14.6)" gradientUnits="userSpaceOnUse" id="gradient5" spreadMethod="pad" x1="-819.2" x2="819.2">
      <stop offset="0.027450980392156862" stop-color="#c24900"/>
      <stop offset="0.20392156862745098" stop-color="#9d3300"/>
      <stop offset="0.792156862745098" stop-color="#9d3300"/>
      <stop offset="0.9921568627450981" stop-color="#c24900"/>
    </linearGradient>
    <linearGradient gradientTransform="matrix(0.0131, 0.0, 0.0, 0.0103, 189.1, 39.9)" gradientUnits="userSpaceOnUse" id="gradient6" spreadMethod="pad" x1="-819.2" x2="819.2">
      <stop offset="0.027450980392156862" stop-color="#c24900"/>
      <stop offset="0.20392156862745098" stop-color="#9d3300"/>
      <stop offset="0.792156862745098" stop-color="#9d3300"/>
      <stop offset="0.9921568627450981" stop-color="#8a2c00"/>
    </linearGradient>
    <linearGradient gradientTransform="matrix(0.0104, -0.0044, 0.004, 0.0093, 125.75, 15.55)" gradientUnits="userSpaceOnUse" id="gradient7" spreadMethod="pad" x1="-819.2" x2="819.2">
      <stop offset="0.027450980392156862" stop-color="#c24900"/>
      <stop offset="0.20392156862745098" stop-color="#9d3300"/>
      <stop offset="0.792156862745098" stop-color="#9d3300"/>
      <stop offset="0.9921568627450981" stop-color="#c24900"/>
    </linearGradient>
    <linearGradient gradientTransform="matrix(0.0171, -0.0065, 0.0054, 0.0142, 121.65, 36.9)" gradientUnits="userSpaceOnUse" id="gradient8" spreadMethod="pad" x1="-819.2" x2="819.2">
      <stop offset="0.027450980392156862" stop-color="#c24900"/>
      <stop offset="0.20392156862745098" stop-color="#9d3300"/>
      <stop offset="0.792156862745098" stop-color="#9d3300"/>
      <stop offset="0.9921568627450981" stop-color="#c24900"/>
    </linearGradient>
    <linearGradient gradientTransform="matrix(0.0099, -0.0051, 0.0018, 0.0036, 87.3, 14.7)" gradientUnits="userSpaceOnUse" id="gradient9" spreadMethod="pad" x1="-819.2" x2="819.2">
      <stop offset="0.027450980392156862" stop-color="#c24900"/>
      <stop offset="0.20392156862745098" stop-color="#9d3300"/>
      <stop offset="0.792156862745098" stop-color="#9d3300"/>
      <stop offset="0.9921568627450981" stop-color="#c24900"/>
    </linearGradient>
    <linearGradient gradientTransform="matrix(0.0146, -0.0099, 0.0074, 0.0109, 86.2, 39.3)" gradientUnits="userSpaceOnUse" id="gradient10" spreadMethod="pad" x1="-819.2" x2="819.2">
      <stop offset="0.027450980392156862" stop-color="#c24900"/>
      <stop offset="0.20392156862745098" stop-color="#9d3300"/>
      <stop offset="0.792156862745098" stop-color="#9d3300"/>
      <stop offset="0.9921568627450981" stop-color="#c24900"/>
    </linearGradient>
    <linearGradient gradientTransform="matrix(0.0225, -0.0211, 0.009, 0.0096, 27.85, 45.5)" gradientUnits="userSpaceOnUse" id="gradient11" spreadMethod="pad" x1="-819.2" x2="819.2">
      <stop offset="0.027450980392156862" stop-color="#c24900"/>
      <stop offset="0.20392156862745098" stop-color="#9d3300"/>
      <stop offset="0.792156862745098" stop-color="#9d3300"/>
      <stop offset="0.9921568627450981" stop-color="#c24900"/>
    </linearGradient>
    <linearGradient gradientTransform="matrix(0.0276, -0.0289, 0.0129, 0.0123, -11.6, 50.4)" gradientUnits="userSpaceOnUse" id="gradient12" spreadMethod="pad" x1="-819.2" x2="819.2">
      <stop offset="0.027450980392156862" stop-color="#c24900"/>
      <stop offset="0.20392156862745098" stop-color="#9d3300"/>
      <stop offset="0.792156862745098" stop-color="#9d3300"/>
      <stop offset="0.9921568627450981" stop-color="#c24900"/>
    </linearGradient>
    <linearGradient gradientTransform="matrix(0.0086, -0.0103, 0.0044, 0.0037, -0.6, 9.0)" gradientUnits="userSpaceOnUse" id="gradient13" spreadMethod="pad" x1="-819.2" x2="819.2">
      <stop offset="0.027450980392156862" stop-color="#c24900"/>
      <stop offset="0.20392156862745098" stop-color="#9d3300"/>
      <stop offset="0.792156862745098" stop-color="#9d3300"/>
      <stop offset="0.9921568627450981" stop-color="#c24900"/>
    </linearGradient>
    <linearGradient gradientTransform="matrix(0.0, 0.0286, -0.0231, 0.0, -7.45, 22.9)" gradientUnits="userSpaceOnUse" id="gradient14" spreadMethod="pad" x1="-819.2" x2="819.2">
      <stop offset="0.0" stop-color="#ffc22c"/>
      <stop offset="0.7490196078431373" stop-color="#ff9900"/>
    </linearGradient>
    <linearGradient gradientTransform="matrix(0.0, 0.0215, -0.0213, 0.0, 29.7, 26.2)" gradientUnits="userSpaceOnUse" id="gradient15" spreadMethod="pad" x1="-819.2" x2="819.2">
      <stop offset="0.0" stop-color="#ffc22c"/>
      <stop offset="0.7490196078431373" stop-color="#ff9900"/>
    </linearGradient>
    <linearGradient gradientTransform="matrix(0.0, 0.0276, -0.0105, 0.0, 57.1, 18.2)" gradientUnits="userSpaceOnUse" id="gradient16" spreadMethod="pad" x1="-819.2" x2="819.2">
      <stop offset="0.0" stop-color="#ffc22c"/>
      <stop offset="0.7490196078431373" stop-color="#ff9900"/>
    </linearGradient>
    <linearGradient gradientTransform="matrix(0.0, 0.0223, -0.0212, 0.0, 83.35, 23.3)" gradientUnits="userSpaceOnUse" id="gradient17" spreadMethod="pad" x1="-819.2" x2="819.2">
      <stop offset="0.0" stop-color="#ffc22c"/>
      <stop offset="0.7490196078431373" stop-color="#ff9900"/>
    </linearGradient>
    <linearGradient gradientTransform="matrix(0.0, 0.0227, -0.0206, 0.0, 119.35, 21.9)" gradientUnits="userSpaceOnUse" id="gradient18" spreadMethod="pad" x1="-819.2" x2="819.2">
      <stop offset="0.0" stop-color="#ffc22c"/>
      <stop offset="0.7490196078431373" stop-color="#ff9900"/>
    </linearGradient>
    <linearGradient gradientTransform="matrix(0.0, 0.0274, -0.0154, 0.0, 150.0, 16.6)" gradientUnits="userSpaceOnUse" id="gradient19" spreadMethod="pad" x1="-819.2" x2="819.2">
      <stop offset="0.0" stop-color="#ffc22c"/>
      <stop offset="0.7490196078431373" stop-color="#ff9900"/>
    </linearGradient>
    <linearGradient gradientTransform="matrix(0.0, 0.0232, -0.0201, 0.0, 194.8, 20.95)" gradientUnits="userSpaceOnUse" id="gradient20" spreadMethod="pad" x1="-819.2" x2="819.2">
      <stop offset="0.0" stop-color="#ffc22c"/>
      <stop offset="0.7490196078431373" stop-color="#ff9900"/>
    </linearGradient>
    <linearGradient gradientTransform="matrix(0.0, 0.0232, -0.0238, 0.0, 243.4, 21.5)" gradientUnits="userSpaceOnUse" id="gradient21" spreadMethod="pad" x1="-819.2" x2="819.2">
      <stop offset="0.0" stop-color="#ffc22c"/>
      <stop offset="0.7490196078431373" stop-color="#ff9900"/>
    </linearGradient>
    <linearGradient gradientTransform="matrix(0.0, 0.0229, -0.0213, 0.0, 277.75, 22.35)" gradientUnits="userSpaceOnUse" id="gradient22" spreadMethod="pad" x1="-819.2" x2="819.2">
      <stop offset="0.0" stop-color="#ffc22c"/>
      <stop offset="0.7490196078431373" stop-color="#ff9900"/>
    </linearGradient>
    <linearGradient gradientTransform="matrix(0.0, 0.0217, -0.0146, 0.0, 308.5, 23.55)" gradientUnits="userSpaceOnUse" id="gradient23" spreadMethod="pad" x1="-819.2" x2="819.2">
      <stop offset="0.0" stop-color="#ffc22c"/>
      <stop offset="0.7490196078431373" stop-color="#ff9900"/>
    </linearGradient>
    <linearGradient gradientTransform="matrix(0.0, 0.0217, -0.0207, 0.0, 337.7, 24.75)" gradientUnits="userSpaceOnUse" id="gradient24" spreadMethod="pad" x1="-819.2" x2="819.2">
      <stop offset="0.0" stop-color="#ffc22c"/>
      <stop offset="0.7490196078431373" stop-color="#ff9900"/>
    </linearGradient>
    <linearGradient gradientTransform="matrix(0.0, 0.0217, -0.022, 0.0, 373.05, 27.35)" gradientUnits="userSpaceOnUse" id="gradient25" spreadMethod="pad" x1="-819.2" x2="819.2">
      <stop offset="0.0" stop-color="#ffc22c"/>
      <stop offset="0.7490196078431373" stop-color="#ff9900"/>
    </linearGradient>
    <linearGradient gradientTransform="matrix(0.0, 0.0204, -0.0152, 0.0, 403.3, 29.35)" gradientUnits="userSpaceOnUse" id="gradient26" spreadMethod="pad" x1="-819.2" x2="819.2">
      <stop offset="0.0" stop-color="#ffc22c"/>
      <stop offset="0.7490196078431373" stop-color="#ff9900"/>
    </linearGradient>
  </defs>
</svg>
