<?xml version="1.0" encoding="UTF-8" standalone="no"?>
<svg xmlns:ffdec="https://www.free-decompiler.com/flash" xmlns:xlink="http://www.w3.org/1999/xlink" ffdec:objectType="shape" height="83.6px" width="345.95px" xmlns="http://www.w3.org/2000/svg">
  <g transform="matrix(1.0, 0.0, 0.0, 1.0, -14.7, -76.75)">
    <path d="M18.7 120.45 Q33.5 131.5 49.9 140.75 67.2 150.45 86.8 154.5 106.8 158.7 126.3 153.3 145.45 148.1 161.1 137.3 176.0 126.9 189.8 115.7 203.7 104.45 220.25 95.95 237.15 87.25 256.65 84.85 276.8 82.55 296.55 86.85 316.7 91.1 331.75 102.95 346.65 114.65 352.45 131.4 L354.9 139.7" fill="none" stroke="#15001c" stroke-linecap="round" stroke-linejoin="round" stroke-opacity="0.21960784" stroke-width="8.0"/>
    <path d="M19.9 117.65 Q34.75 128.7 51.15 137.95 68.4 147.65 88.0 151.7 108.0 155.9 127.5 150.5 146.7 145.3 162.3 134.5 177.2 124.1 191.0 112.9 204.95 101.65 221.45 93.15 238.35 84.45 257.85 82.05 278.0 79.75 297.75 84.05 317.9 88.3 333.0 100.15 347.85 111.85 353.65 128.6 L356.15 136.9" fill="none" stroke="#065ab6" stroke-linecap="round" stroke-linejoin="round" stroke-width="9.0"/>
    <path d="M19.9 117.65 Q34.75 128.7 51.15 137.95 68.4 147.65 88.0 151.7 108.0 155.9 127.5 150.5 146.7 145.3 162.3 134.5 177.2 124.1 191.0 112.9 204.95 101.65 221.45 93.15 238.35 84.45 257.85 82.05 278.0 79.75 297.75 84.05 317.9 88.3 333.0 100.15 347.85 111.85 353.65 128.6 L356.15 136.9" fill="none" stroke="#00a3ff" stroke-linecap="round" stroke-linejoin="round" stroke-width="6.0"/>
    <path d="M19.9 117.65 Q34.75 128.7 51.15 137.95 68.4 147.65 88.0 151.7 108.0 155.9 127.5 150.5 146.7 145.3 162.3 134.5 177.2 124.1 191.0 112.9 204.95 101.65 221.45 93.15 238.35 84.45 257.85 82.05 278.0 79.75 297.75 84.05 317.9 88.3 333.0 100.15 347.85 111.85 353.65 128.6 L356.15 136.9" fill="none" stroke="#ffffff" stroke-linecap="round" stroke-linejoin="round" stroke-opacity="0.2" stroke-width="3.5"/>
    <path d="M19.9 117.65 Q34.75 128.7 51.15 137.95 68.4 147.65 88.0 151.7 108.0 155.9 127.5 150.5 146.7 145.3 162.3 134.5 177.2 124.1 191.0 112.9 204.95 101.65 221.45 93.15 238.35 84.45 257.85 82.05 278.0 79.75 297.75 84.05 317.9 88.3 333.0 100.15 347.85 111.85 353.65 128.6 L356.15 136.9" fill="none" stroke="#ffffff" stroke-linecap="round" stroke-linejoin="round" stroke-opacity="0.30980393" stroke-width="1.7000000000000002"/>
  </g>
</svg>
