<?xml version="1.0" encoding="UTF-8" standalone="no"?>
<svg xmlns:ffdec="https://www.free-decompiler.com/flash" xmlns:xlink="http://www.w3.org/1999/xlink" ffdec:objectType="shape" height="98.7px" width="300.45px" xmlns="http://www.w3.org/2000/svg">
  <g transform="matrix(1.0, 0.0, 0.0, 1.0, 346.1, 47.8)">
    <path d="M-325.9 -31.85 L-325.9 -35.55 -325.9 -35.95 -325.9 -36.55 -316.85 -38.85 -307.85 -41.15 -307.85 -41.05 -307.8 41.5 -307.8 42.95 -307.8 43.05 -307.95 43.0 -308.35 42.9 -326.1 37.3 -326.05 30.4 -325.9 -31.85 M-276.3 -40.5 L-266.6 -38.05 -266.6 -37.45 -266.6 -37.05 -266.6 -34.15 -266.4 32.7 -266.4 35.8 -274.6 38.4 -284.7 41.55 -284.65 -42.65 -276.3 -40.5" fill="#48cbf7" fill-rule="evenodd" stroke="none"/>
    <path d="M-316.85 -38.85 Q-307.1 -44.55 -295.0 -44.55 -284.8 -44.55 -276.3 -40.5 L-284.65 -42.65 -284.7 41.55 -274.6 38.4 Q-283.8 43.25 -295.0 43.25 -301.75 43.25 -307.8 41.5 L-307.85 -41.05 -307.85 -41.15 -316.85 -38.85 M-266.6 -34.15 L-263.95 -31.7 Q-251.1 -18.85 -251.1 -0.65 -251.1 17.55 -263.95 30.4 L-266.4 32.7 -266.6 -34.15 M-326.05 30.4 Q-338.9 17.55 -338.9 -0.65 -338.9 -18.85 -326.05 -31.7 L-325.9 -31.85 -326.05 30.4 M-123.25 -31.7 Q-110.4 -44.55 -92.2 -44.55 -74.0 -44.55 -61.15 -31.7 -48.3 -18.85 -48.3 -0.65 -48.3 17.55 -61.15 30.4 -74.0 43.25 -92.2 43.25 -110.4 43.25 -123.25 30.4 -136.1 17.55 -136.1 -0.65 -136.1 -18.85 -123.25 -31.7" fill="#2c8ade" fill-rule="evenodd" stroke="none"/>
    <path d="M-325.9 -31.85 L-325.9 -35.55 -325.9 -35.95 -325.9 -36.55 -316.85 -38.85 Q-307.1 -44.55 -295.0 -44.55 -284.8 -44.55 -276.3 -40.5 L-266.6 -38.05 -266.6 -37.45 -266.6 -37.05 -266.6 -34.15 -263.95 -31.7 Q-251.1 -18.85 -251.1 -0.65 -251.1 17.55 -263.95 30.4 L-266.4 32.7 -266.4 35.8 -274.6 38.4 Q-283.8 43.25 -295.0 43.25 -301.75 43.25 -307.8 41.5 L-307.8 42.95 -307.8 43.05 -307.95 43.0 -308.35 42.9 -326.1 37.3 -326.05 30.4 Q-338.9 17.55 -338.9 -0.65 -338.9 -18.85 -326.05 -31.7 L-325.9 -31.85 -326.05 30.4 M-316.85 -38.85 L-307.85 -41.15 -307.85 -41.05 -307.8 41.5 M-276.3 -40.5 L-284.65 -42.65 -284.7 41.55 -274.6 38.4 M-123.25 -31.7 Q-110.4 -44.55 -92.2 -44.55 -74.0 -44.55 -61.15 -31.7 -48.3 -18.85 -48.3 -0.65 -48.3 17.55 -61.15 30.4 -74.0 43.25 -92.2 43.25 -110.4 43.25 -123.25 30.4 -136.1 17.55 -136.1 -0.65 -136.1 -18.85 -123.25 -31.7 M-266.4 32.7 L-266.6 -34.15" fill="none" stroke="#14016b" stroke-linecap="round" stroke-linejoin="round" stroke-width="1.0"/>
    <path d="M-123.1 -35.55 L-123.1 -35.95 -123.1 -36.55 -105.05 -41.15 -105.05 -41.05 -105.0 42.95 -105.0 43.05 -105.15 43.0 -105.55 42.9 -123.3 37.3 -123.1 -35.55 M-63.8 -37.05 L-63.6 35.8 -81.9 41.55 -81.85 -42.65 -63.8 -38.05 -63.8 -37.45 -63.8 -37.05" fill="#48cbf7" fill-rule="evenodd" stroke="none"/>
    <path d="M-123.1 -35.55 L-123.3 37.3 -105.55 42.9 -105.15 43.0 -105.0 43.05 -105.0 42.95 -105.05 -41.05 -105.05 -41.15 -123.1 -36.55 -123.1 -35.95 -123.1 -35.55 M-63.8 -37.05 L-63.6 35.8 -81.9 41.55 -81.85 -42.65 -63.8 -38.05 -63.8 -37.45 -63.8 -37.05 Z" fill="none" stroke="#14016b" stroke-linecap="round" stroke-linejoin="round" stroke-width="1.0"/>
    <path d="M-140.05 2.1 Q-139.85 -15.95 -127.1 -28.75 -114.1 -41.7 -95.75 -41.7 -77.4 -41.7 -64.45 -28.75 -51.45 -15.75 -51.45 2.6 -51.45 20.95 -64.45 33.9 -77.4 46.9 -95.75 46.9 -114.1 46.9 -127.1 33.9 -140.05 20.95 -140.05 2.6 L-140.05 2.1 -253.5 2.1 -253.5 2.6 Q-253.5 20.95 -266.5 33.9 -279.45 46.9 -297.8 46.9 -316.15 46.9 -329.15 33.9 -342.1 20.95 -342.1 2.6 -342.1 -15.75 -329.15 -28.75 -316.15 -41.7 -297.8 -41.7 -279.45 -41.7 -266.5 -28.75 -253.7 -15.95 -253.5 2.1 L-287.95 2.1 M-140.05 2.1 L-100.9 2.1" fill="none" stroke="#000000" stroke-linecap="round" stroke-linejoin="round" stroke-opacity="0.2" stroke-width="8.0"/>
    <path d="M-138.25 0.0 Q-138.05 -18.05 -125.3 -30.85 -112.3 -43.8 -93.95 -43.8 -75.6 -43.8 -62.65 -30.85 -49.65 -17.85 -49.65 0.5 -49.65 18.85 -62.65 31.8 -75.6 44.8 -93.95 44.8 -112.3 44.8 -125.3 31.8 -138.25 18.85 -138.25 0.5 L-138.25 0.0 -251.7 0.0 -251.7 0.5 Q-251.7 18.85 -264.7 31.8 -277.65 44.8 -296.0 44.8 -314.35 44.8 -327.35 31.8 -340.3 18.85 -340.3 0.5 -340.3 -17.85 -327.35 -30.85 -314.35 -43.8 -296.0 -43.8 -277.65 -43.8 -264.7 -30.85 -251.9 -18.05 -251.7 0.0 L-286.15 0.0 M-138.25 0.0 L-99.1 0.0" fill="none" stroke="#14016b" stroke-linecap="round" stroke-linejoin="round" stroke-width="8.0"/>
  </g>
</svg>
