<?xml version="1.0" encoding="UTF-8" standalone="no"?>
<svg xmlns:ffdec="https://www.free-decompiler.com/flash" xmlns:xlink="http://www.w3.org/1999/xlink" ffdec:objectType="shape" height="94.6px" width="296.65px" xmlns="http://www.w3.org/2000/svg">
  <g transform="matrix(1.0, 0.0, 0.0, 1.0, 343.3, 46.8)">
    <path d="M-138.25 0.0 Q-138.05 -18.05 -125.3 -30.85 -112.3 -43.8 -93.95 -43.8 -75.6 -43.8 -62.65 -30.85 -49.65 -17.85 -49.65 0.5 -49.65 18.85 -62.65 31.8 -75.6 44.8 -93.95 44.8 -112.3 44.8 -125.3 31.8 -138.25 18.85 -138.25 0.5 L-138.25 0.0 -251.7 0.0 -251.7 0.5 Q-251.7 18.85 -264.7 31.8 -277.65 44.8 -296.0 44.8 -314.35 44.8 -327.35 31.8 -340.3 18.85 -340.3 0.5 -340.3 -17.85 -327.35 -30.85 -314.35 -43.8 -296.0 -43.8 -277.65 -43.8 -264.7 -30.85 -251.9 -18.05 -251.7 0.0 L-286.15 0.0 M-138.25 0.0 L-99.1 0.0" fill="none" stroke="#1556c6" stroke-linecap="round" stroke-linejoin="round" stroke-width="6.0"/>
    <path d="M-138.25 0.0 Q-138.05 -18.05 -125.3 -30.85 -112.3 -43.8 -93.95 -43.8 -75.6 -43.8 -62.65 -30.85 -49.65 -17.85 -49.65 0.5 -49.65 18.85 -62.65 31.8 -75.6 44.8 -93.95 44.8 -112.3 44.8 -125.3 31.8 -138.25 18.85 -138.25 0.5 L-138.25 0.0 -251.7 0.0 -251.7 0.5 Q-251.7 18.85 -264.7 31.8 -277.65 44.8 -296.0 44.8 -314.35 44.8 -327.35 31.8 -340.3 18.85 -340.3 0.5 -340.3 -17.85 -327.35 -30.85 -314.35 -43.8 -296.0 -43.8 -277.65 -43.8 -264.7 -30.85 -251.9 -18.05 -251.7 0.0 L-286.15 0.0 M-138.25 0.0 L-99.1 0.0" fill="none" stroke="#ffffff" stroke-linecap="round" stroke-linejoin="round" stroke-opacity="0.12941177" stroke-width="3.5"/>
    <path d="M-138.25 0.0 Q-138.05 -18.05 -125.3 -30.85 -112.3 -43.8 -93.95 -43.8 -75.6 -43.8 -62.65 -30.85 -49.65 -17.85 -49.65 0.5 -49.65 18.85 -62.65 31.8 -75.6 44.8 -93.95 44.8 -112.3 44.8 -125.3 31.8 -138.25 18.85 -138.25 0.5 L-138.25 0.0 -251.7 0.0 -251.7 0.5 Q-251.7 18.85 -264.7 31.8 -277.65 44.8 -296.0 44.8 -314.35 44.8 -327.35 31.8 -340.3 18.85 -340.3 0.5 -340.3 -17.85 -327.35 -30.85 -314.35 -43.8 -296.0 -43.8 -277.65 -43.8 -264.7 -30.85 -251.9 -18.05 -251.7 0.0 L-286.15 0.0 M-138.25 0.0 L-99.1 0.0" fill="none" stroke="#ffffff" stroke-linecap="round" stroke-linejoin="round" stroke-opacity="0.2" stroke-width="1.7000000000000002"/>
  </g>
</svg>
