<?xml version="1.0" encoding="UTF-8" standalone="no"?>
<svg xmlns:ffdec="https://www.free-decompiler.com/flash" xmlns:xlink="http://www.w3.org/1999/xlink" ffdec:objectType="shape" height="149.2px" width="150.35px" xmlns="http://www.w3.org/2000/svg">
  <g transform="matrix(1.0, 0.0, 0.0, 1.0, -116.5, -26.35)">
    <path d="M193.75 99.7 L166.15 32.4 225.35 32.55 266.15 74.35 260.95 76.5 195.2 103.1 195.05 102.75 195.95 102.35 194.7 99.55 193.85 99.95 193.75 99.7" fill="url(#gradient0)" fill-rule="evenodd" stroke="none"/>
    <path d="M192.25 100.3 L121.55 129.9 121.15 71.35 163.05 29.65 192.25 100.3" fill="url(#gradient1)" fill-rule="evenodd" stroke="none"/>
    <path d="M193.85 99.95 L194.7 99.55 195.95 102.35 195.05 102.75 192.5 103.75 195.5 111.1 219.1 169.55 166.75 171.0 124.6 130.45 191.1 101.15 193.85 99.95" fill="url(#gradient2)" fill-rule="evenodd" stroke="none"/>
    <path d="M193.75 99.7 L193.85 99.95 191.1 101.15 190.95 100.9 193.75 99.7 M195.05 102.75 L195.2 103.1 260.95 76.5 262.45 128.85 221.95 171.0 195.5 111.1 192.5 103.75 195.05 102.75" fill="url(#gradient3)" fill-rule="evenodd" stroke="none"/>
    <path d="M162.1 30.9 L220.05 31.1 261.05 72.35 261.05 72.65 260.9 130.45 219.65 171.55 161.5 171.3 120.5 130.0 120.6 71.85 161.85 30.9 162.1 30.9 190.95 101.35 191.0 101.3 191.55 101.1 191.95 100.9 261.05 72.65 M219.45 171.0 L191.7 103.15 191.0 101.3 M191.55 101.1 L191.75 101.5 M190.95 101.35 L123.65 128.85" fill="none" stroke="#000000" stroke-linecap="round" stroke-linejoin="round" stroke-opacity="0.2" stroke-width="8.0"/>
    <path d="M163.95 30.35 L221.85 30.55 262.85 71.8 262.85 72.1 262.7 129.95 221.45 171.0 163.3 170.75 122.35 129.5 122.4 71.35 163.65 30.35 163.95 30.35 192.75 100.8 192.8 100.75 193.35 100.55 193.75 100.35 262.85 72.1 M193.55 100.95 L193.35 100.55 M221.25 170.45 L193.5 102.6 192.8 100.75 M192.75 100.8 L125.45 128.3" fill="none" stroke="#46004a" stroke-linecap="round" stroke-linejoin="round" stroke-width="8.0"/>
    <path d="M163.95 30.35 L221.85 30.55 262.85 71.8 262.85 72.1 262.7 129.95 221.45 171.0 163.3 170.75 122.35 129.5 122.4 71.35 163.65 30.35 163.95 30.35 192.75 100.8 192.8 100.75 193.35 100.55 193.75 100.35 262.85 72.1 M192.8 100.75 L193.5 102.6 221.25 170.45 M193.35 100.55 L193.55 100.95 M192.75 100.8 L125.45 128.3" fill="none" stroke="#800187" stroke-linecap="round" stroke-linejoin="round" stroke-width="6.0"/>
    <path d="M163.95 30.35 L221.85 30.55 262.85 71.8 262.85 72.1 262.7 129.95 221.45 171.0 163.3 170.75 122.35 129.5 122.4 71.35 163.65 30.35 163.95 30.35 192.75 100.8 192.8 100.75 193.35 100.55 193.75 100.35 262.85 72.1 M221.25 170.45 L193.5 102.6 192.8 100.75 M193.35 100.55 L193.55 100.95 M192.75 100.8 L122.35 129.5" fill="none" stroke="#ffffff" stroke-linecap="round" stroke-linejoin="round" stroke-opacity="0.12941177" stroke-width="3.5"/>
    <path d="M163.95 30.35 L221.85 30.55 262.85 71.8 262.85 72.1 262.7 129.95 221.45 171.0 163.3 170.75 122.35 129.5 122.35 129.45 122.4 71.35 163.65 30.35 163.95 30.35 192.65 100.55 192.75 100.75 192.8 100.75 193.35 100.55 193.75 100.35 262.85 72.1 M221.25 170.45 L193.5 102.6 192.8 100.75 M192.75 100.75 L122.35 129.45" fill="none" stroke="#ffffff" stroke-linecap="round" stroke-linejoin="round" stroke-opacity="0.2" stroke-width="1.7000000000000002"/>
  </g>
  <defs>
    <radialGradient cx="0" cy="0" fx="25.6" fy="0" gradientTransform="matrix(-0.0521, 0.0516, 0.0516, 0.0521, 197.3, 90.65)" gradientUnits="userSpaceOnUse" id="gradient0" r="819.2" spreadMethod="pad">
      <stop offset="0.0" stop-color="#045f69"/>
      <stop offset="1.0" stop-color="#3ee9fa"/>
    </radialGradient>
    <radialGradient cx="0" cy="0" fx="25.6" fy="0" gradientTransform="matrix(0.0734, 0.0, 0.0, 0.0734, 177.55, 92.4)" gradientUnits="userSpaceOnUse" id="gradient1" r="819.2" spreadMethod="pad">
      <stop offset="0.11764705882352941" stop-color="#ff3300"/>
      <stop offset="1.0" stop-color="#ffff00"/>
    </radialGradient>
    <radialGradient cx="0" cy="0" fx="25.6" fy="0" gradientTransform="matrix(0.0505, -0.0532, -0.0532, -0.0505, 188.65, 112.1)" gradientUnits="userSpaceOnUse" id="gradient2" r="819.2" spreadMethod="pad">
      <stop offset="0.3137254901960784" stop-color="#3300ff"/>
      <stop offset="1.0" stop-color="#076fff"/>
    </radialGradient>
    <radialGradient cx="0" cy="0" fx="25.6" fy="0" gradientTransform="matrix(-0.0394, -0.0374, -0.0374, 0.0394, 203.05, 104.6)" gradientUnits="userSpaceOnUse" id="gradient3" r="819.2" spreadMethod="pad">
      <stop offset="0.23137254901960785" stop-color="#870051"/>
      <stop offset="1.0" stop-color="#ff0099"/>
    </radialGradient>
  </defs>
</svg>
