<?xml version="1.0" encoding="UTF-8" standalone="no"?>
<svg xmlns:ffdec="https://www.free-decompiler.com/flash" xmlns:xlink="http://www.w3.org/1999/xlink" ffdec:objectType="shape" height="39.2px" width="45.25px" xmlns="http://www.w3.org/2000/svg">
  <g transform="matrix(1.0, 0.0, 0.0, 1.0, -0.35, -47.1)">
    <path d="M28.9 67.05 Q32.5 67.8 34.7 69.1 36.85 70.4 38.9 73.4 L42.45 78.95 44.05 81.8 Q44.2 82.55 43.85 83.1 43.35 83.7 42.75 83.75 L41.15 83.6 Q40.15 83.4 38.35 81.3 36.6 79.15 35.0 76.1 33.35 73.05 31.65 71.85 29.95 70.65 29.1 70.45 L29.0 78.4 Q28.7 83.1 23.7 83.65 L8.45 84.8 Q4.3 84.7 2.9 79.2 L2.9 79.0 Q1.85 71.95 1.85 65.3 1.95 60.35 6.8 59.4 L13.1 58.95 Q12.0 56.4 9.05 54.85 8.5 55.45 7.6 55.45 6.75 55.45 6.15 54.85 5.6 54.3 5.6 53.4 5.6 52.55 6.15 51.95 6.75 51.4 7.6 51.4 8.5 51.4 9.05 51.95 9.65 52.55 9.65 53.4 L9.5 54.25 Q12.4 55.65 13.9 57.95 14.2 55.95 15.0 54.25 L14.6 53.9 Q13.75 53.0 13.75 51.7 13.75 50.4 14.6 49.5 15.5 48.6 16.8 48.6 18.1 48.6 19.0 49.5 19.9 50.4 19.9 51.7 19.9 53.0 19.0 53.9 18.1 54.8 16.8 54.8 L15.95 54.7 Q15.15 56.5 15.25 58.9 19.5 58.8 23.9 59.05 27.7 59.35 28.55 63.4 L28.9 67.05 Z" fill="none" stroke="#004b91" stroke-linecap="round" stroke-linejoin="round" stroke-width="3.0"/>
    <path d="M12.75 58.25 Q14.4 59.4 15.4 60.95 L15.65 59.7 16.75 61.9 Q21.0 61.8 25.4 62.05 27.35 62.2 28.5 63.35 L28.55 63.4 28.9 67.05 30.4 70.05 Q34.0 70.8 36.2 72.1 38.35 73.4 40.4 76.4 L43.95 81.95 44.1 82.2 43.85 83.1 Q43.35 83.7 42.75 83.75 L41.15 83.6 Q40.15 83.4 38.35 81.3 36.6 79.15 35.0 76.1 33.35 73.05 31.65 71.85 29.95 70.65 29.1 70.45 L29.0 78.4 Q28.7 83.1 23.7 83.65 L8.45 84.8 Q6.1 84.75 4.6 82.95 L4.4 82.2 4.4 82.0 Q3.35 74.95 3.35 68.3 3.45 63.35 8.3 62.4 L14.6 61.95 13.1 58.95 12.75 58.25 M15.5 56.05 L15.25 54.7 Q15.25 53.4 16.1 52.5 17.0 51.6 18.3 51.6 19.2 51.6 19.9 52.05 19.8 53.1 19.0 53.9 18.1 54.8 16.8 54.8 L15.95 54.7 15.5 56.05 M7.35 55.45 L7.65 54.95 Q8.25 54.4 9.1 54.4 10.0 54.4 10.55 54.95 11.1 55.5 11.15 56.3 L9.05 54.85 Q8.5 55.45 7.6 55.45 L7.35 55.45" fill="#0077c9" fill-rule="evenodd" stroke="none"/>
    <path d="M28.5 63.35 Q27.35 62.2 25.4 62.05 21.0 61.8 16.75 61.9 L15.65 59.7 15.4 60.95 Q14.4 59.4 12.75 58.25 12.15 57.15 11.15 56.3 11.1 55.5 10.55 54.95 10.0 54.4 9.1 54.4 8.25 54.4 7.65 54.95 L7.35 55.45 Q6.65 55.35 6.15 54.85 5.6 54.3 5.6 53.4 5.6 52.55 6.15 51.95 6.75 51.4 7.6 51.4 8.5 51.4 9.05 51.95 9.65 52.55 9.65 53.4 L9.5 54.25 Q12.4 55.65 13.9 57.95 14.2 55.95 15.0 54.25 L14.6 53.9 Q13.75 53.0 13.75 51.7 13.75 50.4 14.6 49.5 15.5 48.6 16.8 48.6 18.1 48.6 19.0 49.5 19.9 50.4 19.9 51.7 L19.9 52.05 Q19.2 51.6 18.3 51.6 17.0 51.6 16.1 52.5 15.25 53.4 15.25 54.7 L15.5 56.05 Q15.2 57.35 15.25 58.9 L15.9 58.9 17.05 58.85 23.9 59.05 Q27.65 59.35 28.5 63.35 M13.1 58.95 L14.6 61.95 8.3 62.4 Q3.45 63.35 3.35 68.3 3.35 74.95 4.4 82.0 L4.4 82.2 4.6 82.95 Q3.5 81.55 2.9 79.2 L2.9 79.0 Q1.85 71.95 1.85 65.3 1.95 60.35 6.8 59.4 L12.3 59.0 13.1 58.95 M44.1 82.2 L43.95 81.95 40.4 76.4 Q38.35 73.4 36.2 72.1 34.0 70.8 30.4 70.05 L28.9 67.05 30.15 67.35 Q32.9 68.05 34.7 69.1 36.85 70.4 38.9 73.4 L42.45 78.95 44.05 81.8 44.1 82.2" fill="#0062a6" fill-rule="evenodd" stroke="none"/>
  </g>
</svg>
