<?xml version="1.0" encoding="UTF-8" standalone="no"?>
<svg xmlns:ffdec="https://www.free-decompiler.com/flash" xmlns:xlink="http://www.w3.org/1999/xlink" ffdec:objectType="shape" height="32.95px" width="38.45px" xmlns="http://www.w3.org/2000/svg">
  <g transform="matrix(1.0, 0.0, 0.0, 1.0, 0.0, 0.0)">
    <path d="M12.2 3.3 Q10.55 6.45 11.3 10.9 L11.4 10.9 Q15.0 10.8 18.75 11.0 22.0 11.25 22.75 14.7 L23.05 17.85 Q28.1 19.45 29.95 20.6 31.8 21.7 33.55 24.25 L36.2 28.3 37.8 30.75 Q38.55 31.75 38.45 32.2 L37.95 32.65 Q37.55 32.7 36.55 31.7 35.5 30.65 34.2 28.35 32.85 26.05 30.95 23.65 29.05 21.25 27.5 20.3 26.25 19.55 23.1 18.8 23.3 24.35 23.1 27.5 22.85 31.5 18.6 32.0 L5.6 32.95 Q2.05 32.85 0.85 28.2 L0.85 28.0 Q0.0 22.0 0.0 16.35 0.05 12.1 4.2 11.3 L10.6 10.95 Q9.3 7.05 4.5 4.15 L4.45 4.2 3.75 4.45 3.1 4.2 Q2.85 3.9 2.85 3.5 L2.9 3.25 3.1 2.85 Q3.4 2.6 3.75 2.6 L4.45 2.85 4.7 3.5 4.65 3.9 Q9.6 6.55 10.65 10.25 10.05 6.25 12.15 3.3 L11.7 2.95 Q11.2 2.45 11.2 1.7 11.2 0.95 11.7 0.45 12.2 0.0 12.9 0.0 13.65 0.0 14.15 0.45 14.65 0.95 14.65 1.7 14.65 2.45 14.15 2.95 13.65 3.45 12.9 3.45 L12.35 3.35 12.2 3.3 12.45 2.9 12.15 3.3 12.2 3.3" fill="#00ff00" fill-rule="evenodd" stroke="none"/>
  </g>
</svg>
