<?xml version="1.0" encoding="UTF-8" standalone="no"?>
<svg xmlns:ffdec="https://www.free-decompiler.com/flash" xmlns:xlink="http://www.w3.org/1999/xlink" ffdec:objectType="shape" height="10.05px" width="11.8px" xmlns="http://www.w3.org/2000/svg">
  <g transform="matrix(1.0, 0.0, 0.0, 1.0, -10.2, -69.75)">
    <path d="M22.0 69.75 Q21.85 70.65 20.8 71.4 20.5 74.3 18.1 74.3 17.75 75.35 18.2 77.45 19.7 77.05 20.45 78.2 L21.25 78.15 21.8 78.55 Q22.0 78.9 21.55 79.45 21.5 78.45 20.5 78.85 L18.7 79.5 17.85 79.7 16.85 79.8 16.75 79.8 Q15.7 79.8 14.45 79.15 13.1 78.5 11.75 76.8 10.4 75.1 10.2 70.0 15.1 72.7 22.0 69.75 M11.3 73.25 Q13.05 74.95 14.4 73.7 16.35 75.1 17.45 73.4 L19.0 73.55 Q19.95 73.2 20.05 71.6 15.6 73.0 11.15 71.45 L11.3 73.25 M16.05 77.8 Q14.75 77.7 14.05 78.2 15.1 79.25 17.25 79.25 18.85 79.25 20.3 78.45 19.6 77.65 18.5 77.85 17.85 78.05 17.6 78.4 17.0 77.9 16.05 77.8" fill="#007200" fill-rule="evenodd" stroke="none"/>
    <path d="M16.05 77.8 Q17.0 77.9 17.6 78.4 17.85 78.05 18.5 77.85 19.6 77.65 20.3 78.45 18.85 79.25 17.25 79.25 15.1 79.25 14.05 78.2 14.75 77.7 16.05 77.8 M11.3 73.25 L11.15 71.45 Q15.6 73.0 20.05 71.6 19.95 73.2 19.0 73.55 L17.45 73.4 Q16.35 75.1 14.4 73.7 13.05 74.95 11.3 73.25" fill="#ffffff" fill-rule="evenodd" stroke="none"/>
  </g>
</svg>
