<?xml version="1.0" encoding="UTF-8" standalone="no"?>
<svg xmlns:ffdec="https://www.free-decompiler.com/flash" xmlns:xlink="http://www.w3.org/1999/xlink" ffdec:objectType="shape" height="45.5px" width="61.0px" xmlns="http://www.w3.org/2000/svg">
  <g transform="matrix(1.0, 0.0, 0.0, 1.0, -62.2, -209.45)">
    <path d="M96.8 210.45 L101.15 209.95 Q106.3 209.95 108.0 211.8 109.2 213.1 109.2 216.5 L108.8 224.05 108.35 231.25 Q108.35 236.45 110.45 239.05 111.3 240.1 112.5 240.75 114.95 242.05 115.35 242.45 116.65 243.7 116.65 246.3 116.65 247.05 114.3 253.9 L107.55 254.4 105.55 254.45 Q106.05 251.9 106.05 249.8 106.05 245.2 101.25 233.0 96.55 221.0 96.8 210.45" fill="url(#gradient0)" fill-rule="evenodd" stroke="none"/>
    <path d="M105.55 254.45 L95.05 253.85 85.45 252.2 Q84.3 249.05 88.4 245.0 92.5 240.95 93.0 238.55 93.5 236.15 93.5 233.45 L93.45 232.3 Q93.25 229.55 92.15 225.95 L91.15 222.9 90.15 220.6 89.9 219.9 Q89.1 217.35 89.1 216.05 89.1 213.7 92.95 211.8 94.8 210.9 96.8 210.45 96.55 221.0 101.25 233.0 106.05 245.2 106.05 249.8 106.05 251.9 105.55 254.45" fill="url(#gradient1)" fill-rule="evenodd" stroke="none"/>
    <path d="M85.45 252.2 L78.85 251.35 71.1 250.4 Q69.65 245.25 73.55 243.9 77.45 242.55 82.7 241.4 L84.7 240.8 87.1 239.85 Q93.05 237.1 93.45 232.3 L93.5 233.45 Q93.5 236.15 93.0 238.55 92.5 240.95 88.4 245.0 84.3 249.05 85.45 252.2" fill="url(#gradient2)" fill-rule="evenodd" stroke="none"/>
    <path d="M71.1 250.4 L65.4 249.4 Q62.7 248.7 62.7 247.05 L62.75 246.15 63.1 245.5 63.4 245.1 Q64.6 243.1 67.0 241.75 69.15 240.5 70.2 240.4 L73.15 240.55 76.6 240.9 77.65 241.0 78.8 241.05 79.8 241.15 79.95 241.25 84.7 240.8 82.7 241.4 Q77.45 242.55 73.55 243.9 69.65 245.25 71.1 250.4" fill="url(#gradient3)" fill-rule="evenodd" stroke="none"/>
    <path d="M77.65 241.0 L79.95 238.75 Q81.25 237.65 82.5 237.65 83.25 237.65 84.75 238.7 86.25 239.75 87.1 239.85 L84.7 240.8 79.95 241.25 Q80.25 241.15 79.85 241.15 L79.8 241.15 78.8 241.05 77.65 241.0" fill="url(#gradient4)" fill-rule="evenodd" stroke="none"/>
    <path d="M110.45 239.05 L111.7 239.85 Q112.6 240.4 113.55 240.4 L115.15 240.2 116.65 239.95 Q117.75 239.95 118.85 240.8 120.35 241.9 121.2 244.1 122.75 247.8 122.7 248.7 122.6 249.55 119.6 251.95 117.9 253.25 114.3 253.9 116.65 247.05 116.65 246.3 116.65 243.7 115.35 242.45 114.95 242.05 112.5 240.75 111.3 240.1 110.45 239.05" fill="url(#gradient5)" fill-rule="evenodd" stroke="none"/>
    <path d="M91.8 222.85 L91.75 222.35 91.9 222.35 92.1 222.75 91.8 222.85 M94.05 223.55 L93.0 218.95 93.4 217.05 93.75 217.4 Q93.8 214.45 94.9 215.9 96.05 217.35 96.35 220.25 L97.35 224.15 97.8 225.75 97.2 225.45 97.3 225.65 95.55 224.65 94.05 223.55 M102.4 225.75 L102.4 225.45 Q102.5 224.25 103.05 223.5 103.65 223.85 103.55 224.35 L103.3 225.15 103.35 225.95 102.9 226.05 102.4 225.75 M107.1 233.75 L107.5 236.15 Q107.6 235.9 107.8 235.9 108.5 238.65 111.55 244.0 L114.4 249.4 113.9 252.1 Q113.3 253.95 112.8 254.3 112.3 254.2 112.3 253.55 113.25 250.35 113.25 249.35 113.25 248.85 110.25 244.8 L110.25 245.8 109.75 250.2 Q108.9 254.35 107.0 254.35 L106.3 254.2 106.25 253.7 107.95 248.25 Q107.95 242.2 105.15 236.2 L103.75 232.9 105.55 233.75 106.25 234.9 106.05 233.9 106.2 233.9 106.45 233.85 107.1 233.75 M100.4 232.65 L101.6 235.9 Q102.9 240.0 102.9 243.6 L102.6 249.3 Q101.9 254.55 99.85 254.55 L99.0 254.4 Q99.05 253.7 100.05 250.8 100.95 248.05 100.95 246.9 100.95 241.45 97.35 232.15 L98.85 232.95 99.9 232.95 100.4 232.65 M97.25 232.1 Q98.3 238.85 98.3 241.45 98.3 243.45 96.6 247.95 95.15 251.75 95.4 254.1 L94.3 253.95 94.25 253.0 Q94.25 250.75 95.75 247.2 97.25 243.6 97.25 239.1 97.25 237.5 95.9 231.35 L97.25 232.1 M94.9 232.3 Q95.6 236.5 95.6 241.3 95.6 243.5 93.1 247.05 90.6 250.55 90.6 252.4 90.6 253.0 90.25 253.3 L88.15 252.85 88.1 252.65 88.1 251.7 Q88.1 250.7 88.75 249.5 89.0 247.15 90.4 243.4 L91.7 240.25 91.4 240.55 Q88.9 242.95 86.25 244.0 84.15 244.8 79.6 247.4 L77.4 249.4 75.7 251.05 Q75.05 251.05 74.8 250.2 L74.7 249.35 Q74.7 245.2 85.7 242.5 88.25 241.85 90.05 240.45 L88.05 241.25 Q84.5 242.55 80.6 243.35 72.05 244.95 70.65 250.1 L70.5 250.1 70.45 249.8 Q70.45 247.85 72.75 246.0 75.55 243.7 80.45 242.9 84.9 242.15 88.3 240.6 90.4 239.7 91.65 238.7 L93.4 235.15 93.65 235.15 93.95 236.6 Q93.95 237.3 93.4 238.2 L93.4 238.3 91.65 243.45 90.65 246.85 91.25 246.15 Q94.4 242.75 94.4 237.95 94.4 235.95 93.8 232.45 L94.1 232.65 Q94.5 232.65 94.9 232.3 M93.4 230.6 L93.25 229.8 93.2 229.55 93.65 229.95 93.4 230.6 M85.2 240.95 L85.05 241.0 84.1 240.3 83.0 239.35 Q81.55 239.7 80.9 240.15 L79.85 241.05 79.55 240.95 Q80.2 238.6 82.9 239.05 85.55 239.5 85.2 240.95 M113.95 241.05 Q115.35 240.1 117.8 241.7 119.95 243.2 120.3 244.2 120.8 244.95 121.15 246.45 L121.5 248.95 Q121.5 249.8 120.65 251.35 L120.45 251.3 Q121.1 249.9 121.1 249.0 121.1 246.6 119.8 244.7 118.9 243.45 117.5 242.6 L118.15 243.6 Q119.75 246.45 119.75 248.85 119.75 252.15 118.55 252.9 L118.45 252.7 118.95 250.75 Q118.95 248.05 117.95 245.65 116.45 242.15 113.3 241.25 L113.95 241.05 M81.4 252.05 L80.4 251.95 Q80.45 250.95 83.7 248.4 86.85 245.95 88.15 245.55 L81.4 252.05 M68.4 245.8 Q67.45 246.85 67.45 248.95 L67.3 249.6 66.7 250.05 Q65.55 250.05 65.2 248.95 L65.1 247.8 Q65.1 245.0 67.15 243.4 70.4 240.95 78.0 242.25 L78.2 242.6 Q78.1 242.85 77.75 242.95 L74.15 243.05 73.85 243.15 72.0 244.05 Q70.45 244.75 70.1 245.15 L69.55 246.4 69.35 247.75 69.6 248.75 70.1 249.7 69.65 249.85 Q69.05 249.85 68.8 248.8 L68.65 247.7 Q68.65 246.1 69.25 245.05 L68.4 245.8" fill="#2a0000" fill-opacity="0.2" fill-rule="evenodd" stroke="none"/>
    <path d="M92.1 222.75 Q92.7 222.65 93.9 223.45 L94.05 223.55 95.55 224.65 94.55 224.0 Q92.1 222.45 91.55 223.15 L91.8 222.85 92.1 222.75 M98.55 226.25 Q98.6 226.05 98.8 225.8 99.15 225.35 99.75 225.35 100.3 225.35 100.65 225.85 L100.9 226.1 100.8 226.15 100.35 226.5 100.25 226.45 99.15 226.2 98.65 226.3 98.55 226.25 M103.35 225.95 L103.5 225.85 104.85 225.6 104.6 225.75 103.1 226.8 102.9 226.05 103.35 225.95 M105.8 225.1 L105.95 224.8 Q106.4 224.0 107.15 224.0 108.2 224.0 108.4 225.45 107.85 224.85 106.7 224.85 L105.8 225.1 M108.4 228.65 L108.3 229.65 108.0 230.6 108.3 231.75 Q108.3 233.4 107.1 233.75 L106.45 233.85 106.2 233.9 106.05 233.9 105.85 233.8 105.55 233.75 103.75 232.9 103.1 232.5 101.1 231.0 100.9 231.95 100.4 232.65 99.9 232.95 98.85 232.95 97.35 232.15 97.25 232.1 95.9 231.35 95.65 231.2 95.6 231.25 94.9 232.3 Q94.5 232.65 94.1 232.65 L93.8 232.45 93.5 232.0 93.3 231.3 93.4 230.6 93.65 229.95 93.2 229.55 Q92.6 228.85 92.6 228.1 L92.65 227.65 93.45 228.15 Q94.05 228.15 94.45 227.8 L94.95 227.25 97.05 228.35 99.0 229.15 100.65 232.05 100.65 231.9 100.7 231.45 100.5 229.95 102.15 230.25 106.05 228.9 106.65 229.05 107.25 229.2 Q107.9 229.2 108.4 228.65" fill="#2a0000" fill-opacity="0.4" fill-rule="evenodd" stroke="none"/>
    <path d="M97.8 225.75 L98.45 226.25 98.55 226.25 98.65 226.3 99.15 226.2 100.25 226.45 100.35 226.5 100.8 226.15 100.9 226.1 101.7 225.65 102.4 225.75 102.9 226.05 103.1 226.8 104.6 225.75 104.85 225.6 105.8 225.1 106.7 224.85 Q107.85 224.85 108.4 225.45 L108.55 225.6 108.55 225.55 Q109.35 224.6 109.35 226.3 L108.85 228.0 108.4 228.65 Q107.9 229.2 107.25 229.2 L106.65 229.05 106.05 228.9 102.15 230.25 100.5 229.95 100.7 231.45 100.65 231.9 100.65 232.05 99.0 229.15 97.05 228.35 94.95 227.25 94.45 227.8 Q94.05 228.15 93.45 228.15 L92.65 227.65 Q92.2 227.1 91.85 225.9 L91.5 224.3 91.4 224.05 91.35 223.8 91.55 223.15 Q92.1 222.45 94.55 224.0 L95.55 224.65 97.3 225.65 97.2 225.45 97.8 225.75" fill="#2a0000" fill-opacity="0.7019608" fill-rule="evenodd" stroke="none"/>
    <path d="M95.05 227.6 L96.5 234.65 Q97.35 239.05 97.35 241.85 97.35 243.65 95.5 248.05 93.85 251.85 94.55 254.55 L94.45 254.6 94.0 252.9 94.0 251.5 Q94.0 250.15 95.4 246.7 96.75 243.3 96.75 241.4 96.75 238.4 96.15 234.45 L94.95 227.6 95.05 227.6 M90.75 247.15 Q91.2 246.05 92.4 244.15 L93.75 241.85 Q94.0 241.05 94.05 239.35 L94.0 236.65 94.05 235.9 94.1 235.9 94.5 240.25 Q94.5 242.05 93.6 243.55 L90.85 247.15 90.75 247.15 M82.95 243.0 L77.85 244.6 Q75.95 245.25 74.25 246.6 L71.75 248.9 71.45 248.8 71.4 248.5 Q71.4 246.2 77.65 244.15 81.05 243.05 87.25 241.4 85.55 242.2 82.95 243.0 M87.8 242.95 L91.9 240.45 Q90.65 242.1 83.95 245.65 77.7 249.0 76.85 250.95 L76.5 250.65 Q76.5 249.75 79.1 247.6 81.65 245.55 83.05 245.15 85.2 244.5 87.8 242.95 M98.25 235.45 L98.4 235.45 100.3 241.85 Q100.7 243.8 100.7 247.4 100.7 249.3 100.2 250.8 99.65 252.45 98.3 254.25 L98.2 254.0 Q98.2 253.2 98.9 251.15 99.6 249.05 99.6 247.45 L99.45 241.5 99.3 240.3 98.25 235.45 M104.8 234.8 L106.15 238.75 Q107.1 240.95 107.45 242.75 L107.7 246.6 Q107.7 249.8 106.75 252.05 L106.65 252.15 Q106.55 252.25 106.55 252.0 L106.85 247.9 Q106.85 243.35 105.95 240.2 L102.9 231.2 Q103.95 232.5 104.8 234.8 M120.35 245.35 Q121.0 246.8 121.0 248.5 L120.8 250.5 120.7 250.5 Q120.8 248.3 120.3 246.7 119.65 244.6 117.9 242.9 L117.9 242.7 Q119.55 243.55 120.35 245.35 M112.5 250.7 Q112.5 250.0 111.6 248.25 L110.45 245.9 Q113.55 247.0 113.55 250.15 113.55 251.45 112.15 254.6 L111.95 254.25 112.05 253.15 112.5 250.7 M68.1 242.9 Q66.5 244.15 66.05 244.95 65.45 245.9 64.9 249.0 64.6 249.0 64.5 248.0 L64.45 246.95 Q64.45 244.6 66.5 242.85 69.85 240.05 77.2 241.5 L77.2 241.55 75.2 241.65 70.0 241.85 Q68.95 242.15 68.1 242.9" fill="#fccaa4" fill-opacity="0.101960786" fill-rule="evenodd" stroke="none"/>
    <path d="M96.8 210.45 L101.15 209.95 Q106.3 209.95 108.0 211.8 109.2 213.1 109.2 216.5 L108.8 224.05 108.35 231.25 Q108.35 236.45 110.45 239.05 L111.7 239.85 Q112.6 240.4 113.55 240.4 L115.15 240.2 116.65 239.95 Q117.75 239.95 118.85 240.8 120.35 241.9 121.2 244.1 122.75 247.8 122.7 248.7 122.6 249.55 119.6 251.95 117.9 253.25 114.3 253.9 L107.55 254.4 105.55 254.45 95.05 253.85 85.45 252.2 78.85 251.35 71.1 250.4 65.4 249.4 Q62.7 248.7 62.7 247.05 L62.75 246.15 63.1 245.5 63.4 245.1 Q64.6 243.1 67.0 241.75 69.15 240.5 70.2 240.4 L73.15 240.55 76.6 240.9 77.65 241.0 79.95 238.75 Q81.25 237.65 82.5 237.65 83.25 237.65 84.75 238.7 86.25 239.75 87.1 239.85 93.05 237.1 93.45 232.3 93.25 229.55 92.15 225.95 L91.15 222.9 90.15 220.6 89.9 219.9 Q89.1 217.35 89.1 216.05 89.1 213.7 92.95 211.8 94.8 210.9 96.8 210.45 96.55 221.0 101.25 233.0 106.05 245.2 106.05 249.8 106.05 251.9 105.55 254.45 M85.45 252.2 Q84.3 249.05 88.4 245.0 92.5 240.95 93.0 238.55 93.5 236.15 93.5 233.45 L93.45 232.3 M87.1 239.85 L84.7 240.8 82.7 241.4 Q77.45 242.55 73.55 243.9 69.65 245.25 71.1 250.4 M110.45 239.05 Q111.3 240.1 112.5 240.75 114.95 242.05 115.35 242.45 116.65 243.7 116.65 246.3 116.65 247.05 114.3 253.9 M77.65 241.0 L78.8 241.05 79.8 241.15 79.85 241.15 Q80.25 241.15 79.95 241.25 L84.7 240.8 M79.8 241.15 L79.95 241.25" fill="none" stroke="#4d1500" stroke-linecap="round" stroke-linejoin="round" stroke-width="1.0"/>
  </g>
  <defs>
    <radialGradient cx="0" cy="0" gradientTransform="matrix(0.0071, -0.0019, 0.0057, 0.0213, 103.25, 237.65)" gradientUnits="userSpaceOnUse" id="gradient0" r="819.2" spreadMethod="pad">
      <stop offset="0.5176470588235295" stop-color="#8c4f4f"/>
      <stop offset="1.0" stop-color="#5b2020"/>
    </radialGradient>
    <radialGradient cx="0" cy="0" gradientTransform="matrix(0.0095, 0.0, 0.0, 0.0223, 93.65, 238.0)" gradientUnits="userSpaceOnUse" id="gradient1" r="819.2" spreadMethod="pad">
      <stop offset="0.5176470588235295" stop-color="#8c4f4f"/>
      <stop offset="1.0" stop-color="#5b2020"/>
    </radialGradient>
    <radialGradient cx="0" cy="0" gradientTransform="matrix(0.0169, -0.0097, 0.0046, 0.008, 81.95, 239.8)" gradientUnits="userSpaceOnUse" id="gradient2" r="819.2" spreadMethod="pad">
      <stop offset="0.5176470588235295" stop-color="#8c4f4f"/>
      <stop offset="1.0" stop-color="#5b2020"/>
    </radialGradient>
    <radialGradient cx="0" cy="0" gradientTransform="matrix(0.0168, 0.0, 0.0, 0.0128, 73.25, 248.85)" gradientUnits="userSpaceOnUse" id="gradient3" r="819.2" spreadMethod="pad">
      <stop offset="0.5372549019607843" stop-color="#5b2020"/>
      <stop offset="0.7450980392156863" stop-color="#8c4f4f"/>
    </radialGradient>
    <radialGradient cx="0" cy="0" gradientTransform="matrix(0.0066, 0.0, 0.0, 0.0044, 82.7, 241.4)" gradientUnits="userSpaceOnUse" id="gradient4" r="819.2" spreadMethod="pad">
      <stop offset="0.4627450980392157" stop-color="#5b2020"/>
      <stop offset="0.7450980392156863" stop-color="#8c4f4f"/>
    </radialGradient>
    <radialGradient cx="0" cy="0" gradientTransform="matrix(0.0134, 0.0, 0.0, 0.0134, 113.6, 247.8)" gradientUnits="userSpaceOnUse" id="gradient5" r="819.2" spreadMethod="pad">
      <stop offset="0.4627450980392157" stop-color="#5b2020"/>
      <stop offset="0.7450980392156863" stop-color="#8c4f4f"/>
    </radialGradient>
  </defs>
</svg>
