<?xml version="1.0" encoding="UTF-8" standalone="no"?>
<svg xmlns:ffdec="https://www.free-decompiler.com/flash" xmlns:xlink="http://www.w3.org/1999/xlink" ffdec:objectType="shape" height="18.85px" width="37.4px" xmlns="http://www.w3.org/2000/svg">
  <g transform="matrix(1.0, 0.0, 0.0, 1.0, 0.5, 0.4)">
    <path d="M24.95 2.25 L25.1 2.1 25.4 1.85 Q28.35 7.4 29.65 8.9 L32.3 11.3 34.25 12.8 34.5 13.0 33.75 12.8 30.85 11.4 28.25 9.7 26.3 7.95 27.55 9.45 Q29.35 11.55 30.9 12.8 L31.8 13.5 34.2 15.05 36.4 16.15 32.45 16.15 29.75 15.6 27.55 12.8 26.75 12.05 26.75 11.4 27.05 11.4 Q27.05 11.45 27.4 11.7 L27.4 11.55 26.05 9.85 25.3 8.65 24.95 7.65 24.95 6.45 25.1 6.45 26.0 7.45 27.05 8.25 25.65 5.35 25.2 4.25 24.55 2.35 24.7 2.35 24.95 2.25 M19.25 1.25 L19.25 1.85 18.8 5.7 Q18.55 8.65 16.9 10.55 L16.9 11.7 Q17.55 11.5 18.7 10.1 L19.1 10.1 19.05 12.8 18.95 13.55 18.95 14.85 19.0 14.85 19.65 15.0 20.55 14.7 21.5 14.4 21.5 16.05 21.4 16.7 20.5 16.75 20.3 16.6 20.1 16.45 19.85 16.25 17.2 14.5 17.1 14.5 Q16.8 14.5 16.25 14.85 16.4 14.2 16.7 13.7 L16.7 12.9 16.4 12.9 16.25 13.1 15.85 13.3 15.05 13.5 15.05 12.2 15.2 12.05 16.05 10.9 17.05 9.3 16.6 9.25 16.55 8.45 Q16.55 7.85 17.3 4.7 L17.85 1.95 18.0 1.95 18.55 1.8 19.25 1.25 M12.65 15.0 L12.0 14.6 11.5 14.3 10.1 13.7 9.95 13.65 9.45 13.6 5.55 14.75 3.15 15.5 0.0 16.3 3.15 14.35 5.5 12.8 6.55 12.15 6.75 12.0 8.3 10.95 9.25 10.25 10.95 8.95 12.3 7.75 10.95 8.5 9.65 9.0 8.15 9.4 7.35 9.6 6.25 9.85 3.45 10.65 3.15 10.65 Q5.2 10.0 7.0 9.0 L7.8 8.55 9.85 7.1 10.95 6.1 Q13.0 3.95 14.05 1.1 L14.4 0.1 14.45 0.1 15.65 1.0 15.95 1.25 15.65 1.7 Q14.9 2.85 14.9 3.1 L15.1 3.75 15.25 4.8 Q15.25 5.4 14.35 7.1 L12.15 11.2 12.1 11.25 12.1 11.4 12.6 11.3 14.45 10.55 14.45 11.55 14.35 11.75 13.6 12.8 12.65 14.55 12.65 15.0" fill="url(#gradient0)" fill-rule="evenodd" stroke="none"/>
    <path d="M24.55 2.35 L25.2 4.25 25.65 5.35 27.05 8.25 26.0 7.45 25.1 6.45 24.95 6.45 24.95 7.65 25.3 8.65 26.05 9.85 27.4 11.55 27.4 11.7 Q27.05 11.45 27.05 11.4 L26.75 11.4 26.75 12.05 27.55 12.8 29.75 15.6 28.45 15.3 27.2 15.1 Q26.55 14.25 26.1 13.0 L26.05 12.8 Q25.35 10.85 24.95 10.65 L24.65 12.6 24.4 12.6 Q24.05 11.9 23.65 9.35 L23.45 7.9 23.15 6.15 23.0 6.35 22.6 7.55 21.35 10.8 Q20.95 10.25 20.8 6.65 20.65 4.1 20.65 0.15 L21.15 0.0 Q22.5 0.0 23.25 1.2 L23.75 1.85 24.55 2.35" fill="url(#gradient1)" fill-rule="evenodd" stroke="none"/>
    <path d="M20.65 0.15 Q20.65 4.1 20.8 6.65 20.95 10.25 21.35 10.8 L22.6 7.55 23.0 6.35 23.15 6.15 23.45 7.9 23.65 9.35 Q24.05 11.9 24.4 12.6 L24.65 12.6 24.95 10.65 Q25.35 10.85 26.05 12.8 L26.1 13.0 Q26.55 14.25 27.2 15.1 L26.1 14.95 25.8 15.0 Q24.75 15.1 24.7 16.45 24.65 17.75 23.65 17.95 L23.3 17.95 22.05 17.65 20.5 16.75 21.4 16.7 21.5 16.05 21.5 14.4 20.55 14.7 19.65 15.0 19.0 14.85 18.95 14.85 18.95 13.55 19.05 12.8 19.1 10.1 18.7 10.1 Q17.55 11.5 16.9 11.7 L16.9 10.55 Q18.55 8.65 18.8 5.7 L19.25 1.85 19.25 1.25 19.5 1.0 20.65 0.15" fill="url(#gradient2)" fill-rule="evenodd" stroke="none"/>
    <path d="M16.25 14.85 L15.85 15.05 Q15.2 15.5 14.75 15.6 L14.55 15.6 14.45 15.6 14.1 15.55 13.75 15.45 13.75 15.4 13.35 15.25 12.65 15.0 12.65 14.55 13.6 12.8 14.35 11.75 14.45 11.55 14.45 10.55 12.6 11.3 12.1 11.4 12.1 11.25 12.15 11.2 14.35 7.1 Q15.25 5.4 15.25 4.8 L15.1 3.75 14.9 3.1 Q14.9 2.85 15.65 1.7 L15.95 1.25 17.3 1.9 17.7 1.95 17.85 1.95 17.3 4.7 Q16.55 7.85 16.55 8.45 L16.6 9.25 17.05 9.3 16.05 10.9 15.2 12.05 15.05 12.2 15.05 13.5 15.85 13.3 16.25 13.1 16.4 12.9 16.7 12.9 16.7 13.7 Q16.4 14.2 16.25 14.85 M13.75 15.4 L14.1 15.55 13.75 15.4" fill="url(#gradient3)" fill-rule="evenodd" stroke="none"/>
    <path d="M24.95 2.25 L24.7 2.35 24.55 2.35 M29.75 15.6 L32.45 16.15 36.4 16.15 34.2 15.05 31.8 13.5 30.9 12.8 Q29.35 11.55 27.55 9.45 L26.3 7.95 28.25 9.7 30.85 11.4 33.75 12.8 34.5 13.0 34.25 12.8 32.3 11.3 29.65 8.9 Q28.35 7.4 25.4 1.85 M27.2 15.1 L28.45 15.3 29.75 15.6 M23.65 17.95 Q24.65 17.75 24.7 16.45 24.75 15.1 25.8 15.0 L26.1 14.95 27.2 15.1 M17.2 14.5 L17.1 14.5 Q16.8 14.5 16.25 14.85 L15.85 15.05 Q15.2 15.5 14.75 15.6 L14.55 15.6 14.45 15.6 M10.1 13.7 L9.95 13.65 9.45 13.6 5.55 14.75 3.15 15.5 0.0 16.3 M12.3 7.75 L10.95 8.5 9.65 9.0 8.15 9.4 7.35 9.6 6.25 9.85 3.45 10.65 3.15 10.65 M14.4 0.1 L14.45 0.1" fill="none" stroke="#005d2c" stroke-linecap="round" stroke-linejoin="round" stroke-width="1.0"/>
    <path d="M20.5 16.75 L22.05 17.65 23.3 17.95 23.65 17.95 M20.5 16.75 L20.3 16.6 M20.1 16.45 L19.85 16.25 17.2 14.5 M14.45 15.6 L14.1 15.55 13.75 15.45 M13.75 15.4 L13.35 15.25 12.65 15.0 12.0 14.6 11.5 14.3 10.1 13.7 M0.0 16.3 L3.15 14.35 5.5 12.8 6.55 12.15 6.75 12.0 8.3 10.95 9.25 10.25 10.95 8.95 12.3 7.75 M3.15 10.65 Q5.2 10.0 7.0 9.0 L7.8 8.55 9.85 7.1 10.95 6.1 Q13.0 3.95 14.05 1.1 L14.4 0.1 M14.1 15.55 L13.75 15.4" fill="none" stroke="#47d95c" stroke-linecap="round" stroke-linejoin="round" stroke-width="1.0"/>
  </g>
  <defs>
    <radialGradient cx="0" cy="0" gradientTransform="matrix(0.0211, 0.0, 0.0, 0.0211, 24.1, 0.9)" gradientUnits="userSpaceOnUse" id="gradient0" r="819.2" spreadMethod="pad">
      <stop offset="0.3803921568627451" stop-color="#006631"/>
      <stop offset="0.8784313725490196" stop-color="#36bf4a"/>
    </radialGradient>
    <radialGradient cx="0" cy="0" gradientTransform="matrix(0.0211, 0.0, 0.0, 0.0211, 24.1, 0.9)" gradientUnits="userSpaceOnUse" id="gradient1" r="819.2" spreadMethod="pad">
      <stop offset="0.3803921568627451" stop-color="#004f26"/>
      <stop offset="0.8784313725490196" stop-color="#26a638"/>
    </radialGradient>
    <radialGradient cx="0" cy="0" gradientTransform="matrix(0.0211, 0.0, 0.0, 0.0211, 24.1, 0.9)" gradientUnits="userSpaceOnUse" id="gradient2" r="819.2" spreadMethod="pad">
      <stop offset="0.3803921568627451" stop-color="#00582a"/>
      <stop offset="0.8784313725490196" stop-color="#2aad3d"/>
    </radialGradient>
    <radialGradient cx="0" cy="0" gradientTransform="matrix(0.0211, 0.0, 0.0, 0.0211, 24.1, 0.9)" gradientUnits="userSpaceOnUse" id="gradient3" r="819.2" spreadMethod="pad">
      <stop offset="0.3803921568627451" stop-color="#008540"/>
      <stop offset="0.8784313725490196" stop-color="#61d750"/>
    </radialGradient>
  </defs>
</svg>
