<?xml version="1.0" encoding="UTF-8" standalone="no"?>
<svg xmlns:ffdec="https://www.free-decompiler.com/flash" xmlns:xlink="http://www.w3.org/1999/xlink" ffdec:objectType="shape" height="34.15px" width="32.1px" xmlns="http://www.w3.org/2000/svg">
  <g transform="matrix(1.0, 0.0, 0.0, 1.0, 16.05, 17.1)">
    <path d="M2.05 -13.9 L6.8 -10.95 10.2 -8.25 12.9 -5.35 Q14.05 -3.85 14.8 -2.1 15.95 0.4 16.0 3.2 16.2 5.75 15.55 8.35 L14.7 10.85 Q13.7 13.35 11.5 14.85 8.95 16.55 5.85 17.05 L2.7 16.7 Q-0.2 16.0 -2.8 14.55 L-5.7 12.65 -8.35 10.25 Q-10.35 8.0 -11.7 5.3 L-13.55 1.35 -15.4 -4.15 Q-16.1 -7.0 -16.05 -10.05 -15.9 -13.25 -13.55 -15.5 -12.4 -16.65 -10.7 -17.0 L-6.45 -16.85 Q-3.45 -16.45 -0.6 -15.15 L2.05 -13.9" fill="url(#gradient0)" fill-rule="evenodd" stroke="none"/>
  </g>
  <defs>
    <radialGradient cx="0" cy="0" fx="3.2" fy="0" gradientTransform="matrix(0.0182, -0.0157, 0.0216, 0.0249, -3.2, -5.55)" gradientUnits="userSpaceOnUse" id="gradient0" r="819.2" spreadMethod="pad">
      <stop offset="0.16470588235294117" stop-color="#eff8ed"/>
      <stop offset="0.396078431372549" stop-color="#83c97a"/>
      <stop offset="0.8862745098039215" stop-color="#387a30"/>
    </radialGradient>
  </defs>
</svg>
