<?xml version="1.0" encoding="UTF-8" standalone="no"?>
<svg xmlns:ffdec="https://www.free-decompiler.com/flash" xmlns:xlink="http://www.w3.org/1999/xlink" ffdec:objectType="shape" height="60.7px" width="66.55px" xmlns="http://www.w3.org/2000/svg">
  <g transform="matrix(1.0, 0.0, 0.0, 1.0, 12.85, 6.6)">
    <path d="M39.3 26.1 Q41.55 25.2 41.55 24.0 41.55 22.8 38.65 21.8 L45.7 19.55 Q47.45 18.7 47.45 17.2 47.45 15.25 45.1 14.75 L41.55 14.4 Q48.55 11.35 50.55 9.95 52.55 8.55 52.1 5.55 51.65 2.5 44.55 5.9 51.65 -3.9 46.8 -4.85 41.95 -5.85 39.3 -2.85 36.7 0.05 35.25 7.35 33.8 4.0 33.0 3.2 31.85 2.05 30.7 2.05 30.05 2.05 29.1 2.95 28.3 3.75 28.0 4.95 L29.65 6.7 Q35.4 13.4 36.6 21.85 38.65 23.75 39.3 26.1 L39.45 27.1 39.5 27.25 39.5 27.5 Q40.2 36.6 34.85 43.2 33.35 45.15 31.6 46.55 30.65 47.65 32.35 48.35 L32.75 48.5 35.4 49.05 Q35.7 50.3 34.7 51.5 L34.5 51.7 Q33.1 52.95 31.6 52.5 28.55 51.15 27.7 48.9 25.55 49.85 23.1 50.2 L21.4 50.35 Q13.2 50.75 6.95 44.65 1.05 38.95 0.1 30.5 L0.0 29.75 -0.9 29.3 Q-2.1 28.55 -2.25 27.75 -2.45 26.95 -1.9 26.3 -1.35 25.65 0.85 25.0 L-4.85 22.6 Q-7.35 21.55 -7.55 20.25 -7.75 18.9 -6.2 18.0 -4.7 17.05 -1.3 18.5 -4.8 15.6 -7.65 13.85 -11.35 11.6 -11.35 9.2 -11.35 8.45 -10.75 7.55 -9.9 6.3 -8.35 6.3 L-6.65 7.0 -3.6 8.55 -6.9 3.15 Q-8.1 0.85 -8.1 -0.9 -8.1 -2.35 -7.5 -3.0 -6.95 -3.6 -5.75 -3.6 -1.15 -3.6 1.95 2.15 3.35 4.75 4.3 8.4 L5.35 6.55 Q9.5 -0.1 16.7 -0.05 22.9 0.0 28.0 4.95 L27.8 6.55 Q27.8 8.0 30.25 30.1 30.7 29.65 31.3 29.25 32.35 28.5 33.85 27.85 35.4 27.2 37.5 26.65 L39.3 26.1 M0.0 29.75 L0.0 29.65 0.0 29.55 Q-0.1 26.95 1.5 24.65 1.2 14.7 4.3 8.4 5.65 13.6 6.05 21.0 L6.15 23.95 6.05 31.3 0.05 29.75 0.1 30.5 M0.0 29.75 L0.05 29.75 0.0 29.55 M27.7 48.9 Q29.75 48.0 31.6 46.55 M3.05 30.35 Q2.0 27.45 1.5 24.65" fill="none" stroke="#663300" stroke-linecap="round" stroke-linejoin="round" stroke-width="3.0"/>
    <path d="M31.3 29.25 Q34.65 16.5 39.75 5.7 35.8 16.45 33.85 27.85 32.35 28.5 31.3 29.25 M6.05 21.0 L6.15 23.95 Q3.4 16.85 -1.1 10.65 2.95 14.1 6.05 21.0" fill="#663300" fill-rule="evenodd" stroke="none"/>
    <path d="M31.3 29.25 Q30.7 29.65 30.25 30.1 27.8 8.0 27.8 6.55 27.8 4.25 29.1 2.95 30.05 2.05 30.7 2.05 31.85 2.05 33.0 3.2 33.8 4.0 35.25 7.35 36.7 0.05 39.3 -2.85 41.95 -5.85 46.8 -4.85 51.65 -3.9 44.55 5.9 51.65 2.5 52.1 5.55 52.55 8.55 50.55 9.95 48.55 11.35 41.55 14.4 L45.1 14.75 Q47.45 15.25 47.45 17.2 47.45 18.7 45.7 19.55 L38.65 21.8 Q41.55 22.8 41.55 24.0 41.55 25.6 37.5 26.65 35.4 27.2 33.85 27.85 35.8 16.45 39.75 5.7 34.65 16.5 31.3 29.25" fill="url(#gradient0)" fill-rule="evenodd" stroke="none"/>
    <path d="M6.15 23.95 L6.05 31.3 Q0.25 30.05 -0.9 29.3 -2.1 28.55 -2.25 27.75 -2.45 26.95 -1.9 26.3 -1.35 25.65 0.85 25.0 L-4.85 22.6 Q-7.35 21.55 -7.55 20.25 -7.75 18.9 -6.2 18.0 -4.7 17.05 -1.3 18.5 -4.8 15.6 -7.65 13.85 -11.35 11.6 -11.35 9.2 -11.35 8.45 -10.75 7.55 -9.9 6.3 -8.35 6.3 L-6.65 7.0 -3.6 8.55 -6.9 3.15 Q-8.1 0.85 -8.1 -0.9 -8.1 -2.35 -7.5 -3.0 -6.95 -3.6 -5.75 -3.6 -1.15 -3.6 1.95 2.15 5.45 8.55 6.05 21.0 2.95 14.1 -1.1 10.65 3.4 16.85 6.15 23.95" fill="url(#gradient1)" fill-rule="evenodd" stroke="none"/>
    <path d="M33.85 27.85 Q35.4 27.2 37.5 26.65 41.55 25.6 41.55 24.0 41.55 22.8 38.65 21.8 L45.7 19.55 Q47.45 18.7 47.45 17.2 47.45 15.25 45.1 14.75 L41.55 14.4 Q48.55 11.35 50.55 9.95 52.55 8.55 52.1 5.55 51.65 2.5 44.55 5.9 51.65 -3.9 46.8 -4.85 41.95 -5.85 39.3 -2.85 36.7 0.05 35.25 7.35 33.8 4.0 33.0 3.2 31.85 2.05 30.7 2.05 30.05 2.05 29.1 2.95 27.8 4.25 27.8 6.55 27.8 8.0 30.25 30.1 30.7 29.65 31.3 29.25 32.35 28.5 33.85 27.85 M6.05 21.0 L6.15 23.95 6.05 31.3 Q0.25 30.05 -0.9 29.3 -2.1 28.55 -2.25 27.75 -2.45 26.95 -1.9 26.3 -1.35 25.65 0.85 25.0 L-4.85 22.6 Q-7.35 21.55 -7.55 20.25 -7.75 18.9 -6.2 18.0 -4.7 17.05 -1.3 18.5 -4.8 15.6 -7.65 13.85 -11.35 11.6 -11.35 9.2 -11.35 8.45 -10.75 7.55 -9.9 6.3 -8.35 6.3 L-6.65 7.0 -3.6 8.55 -6.9 3.15 Q-8.1 0.85 -8.1 -0.9 -8.1 -2.35 -7.5 -3.0 -6.95 -3.6 -5.75 -3.6 -1.15 -3.6 1.95 2.15 5.45 8.55 6.05 21.0 Z" fill="none" stroke="#663300" stroke-linecap="round" stroke-linejoin="round" stroke-width="1.0"/>
    <path d="M47.35 17.9 Q47.05 18.9 45.7 19.55 L38.65 21.8 Q41.55 22.8 41.55 24.0 41.55 25.6 37.5 26.65 35.4 27.2 31.3 29.25 30.7 29.65 30.25 30.1 27.8 8.0 27.8 6.55 27.8 4.25 29.1 2.95 30.0 2.1 30.65 2.05 33.1 10.65 36.85 13.9 40.55 17.15 47.35 17.9 M6.15 23.95 L6.05 31.3 Q0.25 30.05 -0.9 29.3 -2.1 28.55 -2.25 27.75 -2.45 26.95 -1.9 26.3 -1.35 25.65 0.85 25.0 L-3.9 23.0 Q0.45 21.0 0.9 13.6 1.85 6.1 0.2 -0.5 L1.95 2.15 Q5.45 8.55 6.15 23.95" fill="#000000" fill-opacity="0.2" fill-rule="evenodd" stroke="none"/>
    <path d="M1.5 24.65 Q1.15 13.2 5.35 6.55 9.5 -0.1 16.7 -0.05 23.9 0.0 29.65 6.7 35.4 13.4 36.6 21.85 36.85 25.25 35.85 28.4 L35.75 28.75 34.85 30.5 33.8 31.85 33.45 32.2 Q31.15 34.45 27.2 35.75 24.25 36.7 20.4 37.1 L15.95 37.3 Q9.5 37.05 5.8 33.8 L4.4 32.35 3.05 30.35 Q2.0 27.45 1.5 24.65" fill="url(#gradient2)" fill-rule="evenodd" stroke="none"/>
    <path d="M39.3 26.2 L39.45 27.1 39.5 27.25 Q38.1 38.2 21.85 40.05 5.6 41.9 0.1 30.5 L0.0 29.55 0.0 29.45 Q2.9 33.15 5.8 33.8 9.5 37.05 15.95 37.3 L20.4 37.1 Q24.25 36.7 27.2 35.75 31.15 34.45 33.45 32.2 L33.8 31.85 Q37.2 30.35 39.3 26.2" fill="#b87d36" fill-rule="evenodd" stroke="none"/>
    <path d="M39.5 27.25 L39.5 27.5 Q40.2 36.6 34.85 43.2 33.35 45.15 31.6 46.55 29.75 48.0 27.7 48.9 25.55 49.85 23.1 50.2 L21.4 50.35 Q13.2 50.75 6.95 44.65 1.05 38.95 0.1 30.5 5.6 41.9 21.85 40.05 38.1 38.2 39.5 27.25" fill="url(#gradient3)" fill-rule="evenodd" stroke="none"/>
    <path d="M31.6 46.55 Q30.65 47.65 32.35 48.35 31.9 49.55 31.15 50.15 31.65 51.3 34.7 51.5 L34.5 51.7 Q33.1 52.95 31.6 52.5 28.55 51.15 27.7 48.9 29.75 48.0 31.6 46.55" fill="#7f4a0b" fill-rule="evenodd" stroke="none"/>
    <path d="M32.35 48.35 L32.75 48.5 35.4 49.05 Q35.7 50.3 34.7 51.5 31.65 51.3 31.15 50.15 31.9 49.55 32.35 48.35" fill="#9d621c" fill-rule="evenodd" stroke="none"/>
    <path d="M36.6 21.85 Q38.45 23.55 39.15 25.65 L39.3 26.2 Q37.2 30.35 33.8 31.85 L34.85 30.5 35.75 28.75 35.85 28.4 Q36.85 25.25 36.6 21.85 M0.0 29.45 Q-0.05 26.9 1.5 24.65 2.0 27.45 3.05 30.35 L4.4 32.35 5.8 33.8 Q2.9 33.15 0.0 29.45" fill="#975d18" fill-rule="evenodd" stroke="none"/>
    <path d="M1.5 24.65 Q1.15 13.2 5.35 6.55 9.5 -0.1 16.7 -0.05 23.9 0.0 29.65 6.7 35.4 13.4 36.6 21.85 38.45 23.55 39.15 25.65 L39.3 26.2 39.45 27.1 39.5 27.25 39.5 27.5 Q40.2 36.6 34.85 43.2 33.35 45.15 31.6 46.55 30.65 47.65 32.35 48.35 L32.75 48.5 35.4 49.05 Q35.7 50.3 34.7 51.5 L34.5 51.7 Q33.1 52.95 31.6 52.5 28.55 51.15 27.7 48.9 25.55 49.85 23.1 50.2 L21.4 50.35 Q13.2 50.75 6.95 44.65 1.05 38.95 0.1 30.5 L0.0 29.65 0.0 29.55 0.0 29.45 Q-0.05 26.9 1.5 24.65 2.0 27.45 3.05 30.35 M0.1 30.5 L0.0 29.55 M31.6 46.55 Q29.75 48.0 27.7 48.9" fill="none" stroke="#663300" stroke-linecap="round" stroke-linejoin="round" stroke-width="2.0"/>
    <path d="M3.2 30.6 L3.05 30.35" fill="none" stroke="#663300" stroke-linecap="round" stroke-linejoin="round" stroke-width="1.0"/>
    <path d="M36.6 21.85 Q36.8 24.8 36.1 27.6" fill="none" stroke="#663300" stroke-linecap="round" stroke-linejoin="round" stroke-width="2.0"/>
    <path d="M37.05 27.75 Q34.0 35.1 23.25 36.75 32.55 34.65 35.3 27.05 36.35 26.6 37.05 27.75 M4.05 30.25 Q7.45 36.75 18.85 37.15 7.65 38.3 2.3 31.05 2.95 29.85 4.05 30.25" fill="#663300" fill-rule="evenodd" stroke="none"/>
  </g>
  <defs>
    <radialGradient cx="0" cy="0" gradientTransform="matrix(0.0202, 0.009, -0.0152, 0.0341, 39.5, -2.5)" gradientUnits="userSpaceOnUse" id="gradient0" r="819.2" spreadMethod="pad">
      <stop offset="0.12941176470588237" stop-color="#ffe319"/>
      <stop offset="0.40784313725490196" stop-color="#ffcc00"/>
      <stop offset="0.7372549019607844" stop-color="#ff9a00"/>
      <stop offset="1.0" stop-color="#ffc500"/>
    </radialGradient>
    <radialGradient cx="0" cy="0" gradientTransform="matrix(0.0244, -0.013, 0.0178, 0.0334, 0.35, 2.4)" gradientUnits="userSpaceOnUse" id="gradient1" r="819.2" spreadMethod="pad">
      <stop offset="0.12941176470588237" stop-color="#ffe319"/>
      <stop offset="0.40784313725490196" stop-color="#ffcc00"/>
      <stop offset="0.7372549019607844" stop-color="#ff9a00"/>
      <stop offset="1.0" stop-color="#ffc500"/>
    </radialGradient>
    <radialGradient cx="0" cy="0" gradientTransform="matrix(0.0273, 0.0, 0.0, 0.0347, 16.0, 14.5)" gradientUnits="userSpaceOnUse" id="gradient2" r="819.2" spreadMethod="pad">
      <stop offset="0.12941176470588237" stop-color="#ffe319"/>
      <stop offset="0.40784313725490196" stop-color="#ffcc00"/>
      <stop offset="0.7372549019607844" stop-color="#ff9a00"/>
      <stop offset="1.0" stop-color="#ffc500"/>
    </radialGradient>
    <radialGradient cx="0" cy="0" gradientTransform="matrix(0.0063, 0.033, -0.0242, 0.0046, 17.8, 23.6)" gradientUnits="userSpaceOnUse" id="gradient3" r="819.2" spreadMethod="pad">
      <stop offset="0.4117647058823529" stop-color="#bb7a2c"/>
      <stop offset="0.611764705882353" stop-color="#aa6c23"/>
      <stop offset="0.9921568627450981" stop-color="#693900"/>
    </radialGradient>
  </defs>
</svg>
