<?xml version="1.0" encoding="UTF-8" standalone="no"?>
<svg xmlns:ffdec="https://www.free-decompiler.com/flash" xmlns:xlink="http://www.w3.org/1999/xlink" ffdec:objectType="shape" height="20.55px" width="16.0px" xmlns="http://www.w3.org/2000/svg">
  <g transform="matrix(1.0, 0.0, 0.0, 1.0, 0.5, 5.05)">
    <path d="M15.0 7.5 Q15.0 10.6 12.8 12.8 10.6 15.0 7.5 15.0 4.4 15.0 2.2 12.8 0.0 10.6 0.0 7.5 0.0 4.4 2.2 2.2 4.4 0.0 7.5 0.0 10.6 0.0 12.8 2.2 15.0 4.4 15.0 7.5" fill="url(#gradient0)" fill-rule="evenodd" stroke="none"/>
    <path d="M15.0 7.5 Q15.0 10.6 12.8 12.8 10.6 15.0 7.5 15.0 4.4 15.0 2.2 12.8 0.0 10.6 0.0 7.5 0.0 4.4 2.2 2.2 4.4 0.0 7.5 0.0 10.6 0.0 12.8 2.2 15.0 4.4 15.0 7.5 Z" fill="none" stroke="#aaaaaa" stroke-linecap="round" stroke-linejoin="round" stroke-width="1.0"/>
    <path d="M4.05 0.8 L4.95 -2.5 8.25 -2.7 9.85 0.15 Q6.6 1.35 4.05 0.8" fill="url(#gradient1)" fill-rule="evenodd" stroke="none"/>
    <path d="M8.25 -2.7 L9.85 0.15 Q6.6 1.35 4.05 0.8" ffdec:has-small-stroke="true" ffdec:original-stroke-width="0.75" fill="none" stroke="#353535" stroke-linecap="round" stroke-linejoin="round" stroke-width="1.0"/>
    <path d="M4.05 0.8 L4.95 -2.5 8.25 -2.7" ffdec:has-small-stroke="true" ffdec:original-stroke-width="0.75" fill="none" stroke="#7b7b7b" stroke-linecap="round" stroke-linejoin="round" stroke-width="1.0"/>
    <path d="M7.2 -3.9 L7.0 -3.3 Q6.8 -3.05 6.5 -3.05 6.25 -3.05 6.05 -3.3 L5.85 -3.9 6.05 -4.55 6.5 -4.8 7.0 -4.55 7.2 -3.9 Z" ffdec:has-small-stroke="true" ffdec:original-stroke-width="0.5" fill="none" stroke="url(#gradient2)" stroke-linecap="round" stroke-linejoin="round" stroke-width="1.0"/>
  </g>
  <defs>
    <radialGradient cx="0" cy="0" gradientTransform="matrix(0.0116, 0.0, 0.0, 0.0116, 6.75, 5.5)" gradientUnits="userSpaceOnUse" id="gradient0" r="819.2" spreadMethod="pad">
      <stop offset="0.0" stop-color="#ffffff"/>
      <stop offset="0.3568627450980392" stop-color="#ffffff"/>
      <stop offset="0.8392156862745098" stop-color="#bdbdbd"/>
      <stop offset="0.9921568627450981" stop-color="#ffffff"/>
    </radialGradient>
    <radialGradient cx="0" cy="0" gradientTransform="matrix(0.0073, 0.0, 0.0, 0.0078, 5.75, -4.35)" gradientUnits="userSpaceOnUse" id="gradient1" r="819.2" spreadMethod="pad">
      <stop offset="0.0" stop-color="#c4c4c4"/>
      <stop offset="0.6196078431372549" stop-color="#a1a1a1"/>
      <stop offset="0.7490196078431373" stop-color="#5b5b5b"/>
    </radialGradient>
    <linearGradient gradientTransform="matrix(8.0E-4, 8.0E-4, -0.001, 0.001, 6.5, -3.95)" gradientUnits="userSpaceOnUse" id="gradient2" spreadMethod="pad" x1="-819.2" x2="819.2">
      <stop offset="0.16862745098039217" stop-color="#a1a1a1"/>
      <stop offset="0.796078431372549" stop-color="#2c2c2c"/>
    </linearGradient>
  </defs>
</svg>
