<?xml version="1.0" encoding="UTF-8" standalone="no"?>
<svg xmlns:ffdec="https://www.free-decompiler.com/flash" xmlns:xlink="http://www.w3.org/1999/xlink" ffdec:objectType="shape" height="57.0px" width="59.15px" xmlns="http://www.w3.org/2000/svg">
  <g transform="matrix(1.0, 0.0, 0.0, 1.0, 277.7, 17.05)">
    <path d="M-219.3 -6.9 Q-222.35 9.85 -224.4 30.85 L-258.45 39.2 -273.5 20.15 Q-274.9 -0.85 -276.95 -16.3" fill="none" stroke="#910000" stroke-linecap="round" stroke-linejoin="round" stroke-width="1.5"/>
    <path d="M-236.1 31.1 L-236.05 34.4 -241.5 35.9 -241.6 32.8 -241.35 32.75 -241.3 32.7 -241.1 32.65 -236.1 31.1 M-241.0 35.25 L-241.1 32.65 -241.0 35.25" fill="#e8d2d2" fill-rule="evenodd" stroke="none"/>
    <path d="M-242.6 -3.0 L-242.9 -3.15 -242.65 -3.15 -236.95 -4.15 Q-236.95 -3.8 -236.55 -3.9 L-236.1 31.1 -241.1 32.65 -242.25 3.0 -241.1 32.65 -241.3 32.7 -241.7 30.15 -242.7 5.15 -242.4 4.75 -242.7 4.75 -242.75 3.8 -243.05 -2.95 -242.75 -2.9 -242.6 -2.9 -242.6 -3.0 -242.65 -3.15 -242.6 -3.0 M-242.25 3.0 L-242.35 1.2 -242.7 3.55 -242.75 3.8 -242.25 3.0 M-242.6 -2.9 L-242.35 1.2 -242.6 -2.9" fill="#eac7c7" fill-rule="evenodd" stroke="none"/>
    <path d="M-268.05 -8.3 L-268.5 -8.2 -266.3 29.3 -268.5 -8.2 -268.05 -8.3 -268.05 -8.25 -267.75 -7.95 -267.85 -7.7 -265.65 31.1 -269.1 26.25 Q-270.6 2.95 -272.25 -10.4 L-270.4 -10.4 -269.7 -10.6 -268.05 -8.3" fill="#d9b4b4" fill-rule="evenodd" stroke="none"/>
    <path d="M-272.25 -10.4 Q-270.6 2.95 -269.1 26.25 L-265.65 31.1 -267.85 -7.7 M-236.55 -3.9 L-236.1 31.1 -236.05 34.4 -241.5 35.9 -241.6 32.8 -241.7 30.15 -242.7 5.15 -242.7 4.75 -242.75 3.8 -243.05 -2.95" fill="none" stroke="#cb8d8d" stroke-linecap="round" stroke-linejoin="round" stroke-width="1.0"/>
    <path d="M-268.05 -8.3 L-267.5 -8.45 M-266.3 29.3 L-268.5 -8.2 -268.05 -8.3 M-242.6 -2.9 L-242.6 -3.0 -242.65 -3.15 M-242.25 3.0 L-242.35 1.2 -242.6 -2.9 M-242.25 3.0 L-241.1 32.65 -241.0 35.25" ffdec:has-small-stroke="true" ffdec:original-stroke-width="0.3" fill="none" stroke="#ffffff" stroke-linecap="round" stroke-linejoin="round" stroke-width="1.0"/>
  </g>
</svg>
