<?xml version="1.0" encoding="UTF-8" standalone="no"?>
<svg xmlns:ffdec="https://www.free-decompiler.com/flash" xmlns:xlink="http://www.w3.org/1999/xlink" ffdec:objectType="shape" height="125.8px" width="173.7px" xmlns="http://www.w3.org/2000/svg">
  <g transform="matrix(1.0, 0.0, 0.0, 1.0, -18.6, 56.2)">
    <path d="M88.25 37.1 L90.45 36.5 100.7 43.55 98.35 44.2 88.25 37.1" fill="#225987" fill-rule="evenodd" stroke="none"/>
    <path d="M100.7 43.55 L90.45 36.5 111.1 30.85 121.4 37.5 100.7 43.55" fill="#bd8e8e" fill-rule="evenodd" stroke="none"/>
    <path d="M98.35 44.2 L100.7 43.55 121.4 37.5 157.05 60.15 132.8 67.95 98.35 44.2 M90.45 36.5 L53.25 10.05 72.4 5.85 111.1 30.85 90.45 36.5 M133.4 67.1 L100.7 43.55 133.4 67.1" fill="url(#gradient0)" fill-rule="evenodd" stroke="none"/>
    <path d="M90.45 36.5 L88.25 37.1 50.65 10.6 53.25 10.05 90.45 36.5" fill="url(#gradient1)" fill-rule="evenodd" stroke="none"/>
    <path d="M90.45 36.5 L88.25 37.1 57.4 45.5 M111.1 30.85 L90.45 36.5 M157.05 18.35 L111.1 30.85" ffdec:has-small-stroke="true" ffdec:original-stroke-width="0.1" fill="none" stroke="#741d1d" stroke-linecap="round" stroke-linejoin="round" stroke-width="1.0"/>
    <path d="M100.7 43.55 L90.45 36.5 53.25 10.05 M100.7 43.55 L133.4 67.1" fill="none" stroke="#ffffff" stroke-linecap="round" stroke-linejoin="round" stroke-width="2.0"/>
    <path d="M157.05 60.15 L72.4 5.85 50.65 10.6 132.0 68.1" fill="none" stroke="#cb8d8d" stroke-linecap="round" stroke-linejoin="round" stroke-width="3.0"/>
    <path d="M179.9 14.6 L29.15 59.2 18.8 47.75 163.35 7.7 177.6 13.6 179.9 14.6 M177.6 13.6 L28.95 57.2 177.6 13.6" fill="url(#gradient2)" fill-rule="evenodd" stroke="none"/>
    <path d="M28.95 57.2 L177.6 13.6" fill="none" stroke="#ffffff" stroke-linecap="round" stroke-linejoin="round" stroke-width="2.0"/>
    <path d="M179.8 14.6 L30.75 58.5 20.1 47.4 163.25 7.7 179.8 14.6 Z" fill="none" stroke="#cb8d8d" stroke-linecap="round" stroke-linejoin="round" stroke-width="3.0"/>
    <path d="M108.95 12.3 L109.3 11.55 109.7 10.7 108.95 12.3" fill="url(#gradient3)" fill-rule="evenodd" stroke="none"/>
    <path d="M96.4 17.6 Q100.8 13.65 107.45 15.55 112.0 16.9 117.6 20.85 L118.05 21.95 Q119.2 25.4 118.85 31.1 L118.1 36.75 117.9 37.85 92.7 38.85 92.7 38.45 92.7 38.35 Q90.5 35.95 93.5 25.55 94.4 22.2 95.9 18.1 L96.4 17.6" fill="url(#gradient4)" fill-rule="evenodd" stroke="none"/>
    <path d="M34.35 -26.75 Q36.6 -29.05 39.95 -29.9 38.6 -15.45 57.0 1.7 73.7 18.35 93.5 25.55 90.5 35.95 92.7 38.35 L92.7 38.45 89.5 38.3 Q65.9 36.75 43.7 21.7 36.95 17.8 34.5 12.1 32.05 6.5 30.95 1.0 27.9 -15.35 31.85 -23.2 L32.15 -23.85 Q33.1 -25.45 34.35 -26.75" fill="url(#gradient5)" fill-rule="evenodd" stroke="none"/>
    <path d="M188.05 0.65 Q189.1 2.4 189.65 4.3 L190.0 5.15 Q192.5 14.35 187.0 28.85 184.5 33.2 179.85 36.75 L179.3 37.1 Q175.5 39.35 172.0 39.5 L166.45 40.2 Q141.95 42.8 118.15 36.75 L118.1 36.75 118.85 31.1 Q140.25 29.15 161.65 18.6 182.2 9.75 183.15 -4.85 186.25 -2.5 188.05 0.65" fill="url(#gradient6)" fill-rule="evenodd" stroke="none"/>
    <path d="M34.35 -26.75 L38.05 -32.65 Q42.05 -39.75 45.4 -49.05 52.5 -59.2 66.75 -51.1 80.25 -41.5 94.35 -17.85 103.3 -2.8 108.95 12.3 L107.45 15.55 Q100.8 13.65 96.4 17.6 80.15 -5.3 61.05 -22.65 56.35 -26.6 51.25 -28.9 L51.1 -29.05 Q44.45 -31.15 39.95 -29.9 36.6 -29.05 34.35 -26.75" fill="url(#gradient7)" fill-rule="evenodd" stroke="none"/>
    <path d="M107.45 15.55 L108.95 12.3 109.7 10.7 111.25 7.6 128.65 -16.05 Q146.0 -33.0 160.65 -36.5 L163.0 -36.7 163.15 -36.7 163.7 -36.7 164.9 -36.7 Q175.3 -38.2 181.05 -25.6 182.65 -15.2 185.4 -6.75 L188.05 0.65 Q186.25 -2.5 183.15 -4.85 179.0 -7.85 172.2 -8.65 L172.05 -8.65 Q166.75 -8.45 161.65 -6.6 140.3 2.2 118.05 21.95 L117.6 20.85 Q112.0 16.9 107.45 15.55" fill="url(#gradient8)" fill-rule="evenodd" stroke="none"/>
    <path d="M108.95 12.3 Q103.3 -2.8 94.35 -17.85 80.25 -41.5 66.75 -51.1 52.5 -59.2 45.4 -49.05 42.05 -39.75 38.05 -32.65 L34.35 -26.75 Q36.6 -29.05 39.95 -29.9 44.45 -31.15 51.1 -29.05 L51.25 -28.9 Q56.35 -26.6 61.05 -22.65 80.15 -5.3 96.4 17.6 100.8 13.65 107.45 15.55 L108.95 12.3 109.3 11.55 109.7 10.7 111.25 7.6 128.65 -16.05 Q146.0 -33.0 160.65 -36.5 L163.0 -36.7 163.15 -36.7 163.7 -36.7 164.9 -36.7 Q175.3 -38.2 181.05 -25.6 182.65 -15.2 185.4 -6.75 L188.05 0.65 Q189.1 2.4 189.65 4.3 L190.0 5.15 Q192.5 14.35 187.0 28.85 184.5 33.2 179.85 36.75 L179.3 37.1 Q175.5 39.35 172.0 39.5 L166.45 40.2 Q141.95 42.8 118.15 36.75 L118.1 36.75 117.9 37.85 92.7 38.85 M92.7 38.45 L89.5 38.3 Q65.9 36.75 43.7 21.7 36.95 17.8 34.5 12.1 32.05 6.5 30.95 1.0 27.9 -15.35 31.85 -23.2 L32.15 -23.85 Q33.1 -25.45 34.35 -26.75 M118.05 21.95 Q140.3 2.2 161.65 -6.6 166.75 -8.45 172.05 -8.65 L172.2 -8.65 Q179.0 -7.85 183.15 -4.85 186.25 -2.5 188.05 0.65 M118.05 21.95 L117.6 20.85 Q112.0 16.9 107.45 15.55 M96.4 17.6 L95.9 18.1 Q94.4 22.2 93.5 25.55 90.5 35.95 92.7 38.35 M118.1 36.75 L118.85 31.1 Q119.2 25.4 118.05 21.95 M183.15 -4.85 Q182.2 9.75 161.65 18.6 140.25 29.15 118.85 31.1 M93.5 25.55 Q73.7 18.35 57.0 1.7 38.6 -15.45 39.95 -29.9" fill="none" stroke="#cb8d8d" stroke-linecap="round" stroke-linejoin="round" stroke-width="3.0"/>
  </g>
  <defs>
    <linearGradient gradientTransform="matrix(0.0314, 0.0442, -0.0318, 0.0197, 112.2, 40.5)" gradientUnits="userSpaceOnUse" id="gradient0" spreadMethod="pad" x1="-819.2" x2="819.2">
      <stop offset="0.0" stop-color="#e5b9b9"/>
      <stop offset="0.5490196078431373" stop-color="#ffffff"/>
      <stop offset="1.0" stop-color="#e6bcbc"/>
    </linearGradient>
    <linearGradient gradientTransform="matrix(0.0314, 0.0442, -0.0318, 0.0197, 112.2, 40.5)" gradientUnits="userSpaceOnUse" id="gradient1" spreadMethod="pad" x1="-819.2" x2="819.2">
      <stop offset="0.0" stop-color="#00289f"/>
      <stop offset="0.5490196078431373" stop-color="#51b7ff"/>
      <stop offset="1.0" stop-color="#00289f"/>
    </linearGradient>
    <linearGradient gradientTransform="matrix(0.0555, -0.0491, 0.0179, 0.0208, 100.15, 33.15)" gradientUnits="userSpaceOnUse" id="gradient2" spreadMethod="pad" x1="-819.2" x2="819.2">
      <stop offset="0.0" stop-color="#d9b4b4"/>
      <stop offset="0.5411764705882353" stop-color="#ffffff"/>
      <stop offset="1.0" stop-color="#d9b3b3"/>
    </linearGradient>
    <linearGradient gradientTransform="matrix(-0.0514, 0.0224, -0.0047, -0.0283, 142.15, -4.2)" gradientUnits="userSpaceOnUse" id="gradient3" spreadMethod="pad" x1="-819.2" x2="819.2">
      <stop offset="0.0392156862745098" stop-color="#cc3300"/>
      <stop offset="0.4745098039215686" stop-color="#ed7350"/>
      <stop offset="1.0" stop-color="#cc3300"/>
    </linearGradient>
    <linearGradient gradientTransform="matrix(-0.0035, 0.0151, -1.0345, -0.3189, 137.75, 33.85)" gradientUnits="userSpaceOnUse" id="gradient4" spreadMethod="pad" x1="-819.2" x2="819.2">
      <stop offset="0.0" stop-color="#ffd2d2"/>
      <stop offset="0.5490196078431373" stop-color="#ffffff"/>
      <stop offset="1.0" stop-color="#e29a9a"/>
    </linearGradient>
    <linearGradient gradientTransform="matrix(0.0331, 0.0089, -0.2588, 0.9659, 60.05, 19.25)" gradientUnits="userSpaceOnUse" id="gradient5" spreadMethod="pad" x1="-819.2" x2="819.2">
      <stop offset="0.0" stop-color="#e0b5b5"/>
      <stop offset="0.29411764705882354" stop-color="#fad4d4"/>
      <stop offset="0.7294117647058823" stop-color="#ffe5e5"/>
      <stop offset="0.9921568627450981" stop-color="#e0b5b5"/>
    </linearGradient>
    <linearGradient gradientTransform="matrix(-0.0352, 0.0154, -0.0038, -0.023, 154.05, 27.05)" gradientUnits="userSpaceOnUse" id="gradient6" spreadMethod="pad" x1="-819.2" x2="819.2">
      <stop offset="0.0" stop-color="#e0b5b5"/>
      <stop offset="0.29411764705882354" stop-color="#fad4d4"/>
      <stop offset="0.7294117647058823" stop-color="#ffe5e5"/>
      <stop offset="0.9921568627450981" stop-color="#e0b5b5"/>
    </linearGradient>
    <linearGradient gradientTransform="matrix(0.0461, 0.0434, -0.009, 0.0254, 79.6, -12.0)" gradientUnits="userSpaceOnUse" id="gradient7" spreadMethod="pad" x1="-819.2" x2="819.2">
      <stop offset="0.0" stop-color="#ffecec"/>
      <stop offset="0.23137254901960785" stop-color="#fffbfb"/>
      <stop offset="0.7450980392156863" stop-color="#ffffff"/>
      <stop offset="0.9098039215686274" stop-color="#ffcbcb"/>
    </linearGradient>
    <linearGradient gradientTransform="matrix(-0.0514, 0.0224, -0.0047, -0.0283, 142.15, -4.2)" gradientUnits="userSpaceOnUse" id="gradient8" spreadMethod="pad" x1="-819.2" x2="819.2">
      <stop offset="0.0" stop-color="#ffecec"/>
      <stop offset="0.23137254901960785" stop-color="#fffbfb"/>
      <stop offset="0.7450980392156863" stop-color="#ffffff"/>
      <stop offset="0.9098039215686274" stop-color="#ffcbcb"/>
    </linearGradient>
  </defs>
</svg>
