<?xml version="1.0" encoding="UTF-8" standalone="no"?>
<svg xmlns:ffdec="https://www.free-decompiler.com/flash" xmlns:xlink="http://www.w3.org/1999/xlink" ffdec:objectType="shape" height="44.3px" width="30.5px" xmlns="http://www.w3.org/2000/svg">
  <g transform="matrix(1.0, 0.0, 0.0, 1.0, 0.0, 0.0)">
    <path d="M27.65 24.8 L24.6 28.95 17.7 28.85 17.8 25.1 27.65 24.8 M30.0 39.2 L26.25 44.3 Q13.35 43.2 0.85 43.7 L4.6 38.6 Q15.25 38.15 26.15 38.9 L30.0 39.2 M29.45 11.05 L26.55 15.0 17.85 15.05 17.7 11.05 29.45 11.05" fill="#790000" fill-rule="evenodd" stroke="none"/>
    <path d="M26.55 15.0 L27.65 15.0 Q27.15 19.9 27.65 24.8 L17.8 25.1 17.7 28.85 24.6 28.95 29.8 29.0 30.0 39.2 26.15 38.9 Q15.25 38.15 4.6 38.6 L4.55 26.65 4.5 24.2 4.0 6.3 3.75 1.25 29.65 0.0 29.45 11.05 17.7 11.05 17.85 15.05 26.55 15.0" fill="url(#gradient0)" fill-rule="evenodd" stroke="none"/>
    <path d="M0.85 43.7 L0.75 29.3 0.7 26.7 0.0 6.35 3.75 1.25 4.0 6.3 4.5 24.2 4.55 26.65 4.6 38.6 0.85 43.7" fill="#ab0404" fill-rule="evenodd" stroke="none"/>
    <path d="M3.75 1.25 L4.0 6.3 4.5 24.2 4.55 26.65 4.6 38.6 Q15.25 38.15 26.15 38.9 L30.0 39.2 M0.85 43.7 L4.6 38.6" fill="none" stroke="url(#gradient1)" stroke-linecap="round" stroke-linejoin="round" stroke-width="1.0"/>
  </g>
  <defs>
    <linearGradient gradientTransform="matrix(0.0, 0.0231, -0.024, 0.0, -19.95, 20.0)" gradientUnits="userSpaceOnUse" id="gradient0" spreadMethod="pad" x1="-819.2" x2="819.2">
      <stop offset="0.0" stop-color="#ff452e"/>
      <stop offset="1.0" stop-color="#e00a0a"/>
    </linearGradient>
    <radialGradient cx="0" cy="0" gradientTransform="matrix(0.0226, 0.0, 0.0, 0.0095, 10.0, 35.5)" gradientUnits="userSpaceOnUse" id="gradient1" r="819.2" spreadMethod="pad">
      <stop offset="0.12941176470588237" stop-color="#ffe48e" stop-opacity="0.4"/>
      <stop offset="1.0" stop-color="#ffe983" stop-opacity="0.0"/>
    </radialGradient>
  </defs>
</svg>
