<?xml version="1.0" encoding="UTF-8" standalone="no"?>
<svg xmlns:ffdec="https://www.free-decompiler.com/flash" xmlns:xlink="http://www.w3.org/1999/xlink" ffdec:objectType="shape" height="45.8px" width="38.65px" xmlns="http://www.w3.org/2000/svg">
  <g transform="matrix(1.0, 0.0, 0.0, 1.0, 0.0, 0.0)">
    <path d="M6.6 7.3 L6.65 7.15 Q8.75 3.7 12.4 1.9 15.9 0.2 20.8 0.0 24.75 0.15 27.8 1.05 32.8 2.55 35.45 6.2 L36.05 7.1 37.0 8.95 Q37.95 11.25 38.25 14.1 L24.15 15.3 24.1 15.3 24.1 15.25 Q23.95 10.25 21.2 10.0 18.25 10.0 17.55 15.3 17.15 17.75 17.3 21.35 L17.45 23.65 17.65 25.5 Q18.15 29.05 19.5 30.45 20.35 31.3 21.5 31.3 L21.8 31.3 23.1 31.15 23.55 31.0 Q24.1 30.75 24.5 30.3 25.1 29.55 25.2 28.15 L21.25 27.9 19.75 20.3 20.4 20.25 20.65 20.25 34.55 19.4 38.65 19.15 38.65 19.5 38.45 24.5 Q37.7 31.1 34.7 35.0 L33.05 36.75 Q28.55 40.7 20.55 40.5 15.8 40.4 12.4 38.8 10.8 38.0 9.5 36.9 L7.85 35.2 6.9 33.9 Q3.95 29.35 3.75 21.7 3.45 14.2 5.55 9.35 6.0 8.25 6.6 7.3" fill="url(#gradient0)" fill-rule="evenodd" stroke="none"/>
    <path d="M34.55 19.4 L20.65 20.25 24.1 15.25 24.1 15.3 24.15 15.3 38.25 14.1 34.55 19.4 M21.25 27.9 L25.2 28.15 23.1 31.15 21.8 31.3 21.5 31.3 Q20.35 31.3 19.5 30.45 L21.25 27.9" fill="#790000" fill-rule="evenodd" stroke="none"/>
    <path d="M6.6 7.3 Q6.0 8.25 5.55 9.35 3.45 14.2 3.75 21.7 3.95 29.35 6.9 33.9 L7.85 35.2 9.5 36.9 Q10.8 38.0 12.4 38.8 15.8 40.4 20.55 40.5 28.55 40.7 33.05 36.75 L34.7 35.0 31.6 39.45 Q27.15 46.1 16.85 45.8 L12.4 45.3 Q8.5 44.45 5.8 42.2 L4.15 40.5 3.2 39.2 1.8 36.5 Q0.2 32.55 0.05 27.0 -0.25 19.6 1.8 14.7 2.55 12.85 3.7 11.4 L6.6 7.3" fill="url(#gradient1)" fill-rule="evenodd" stroke="none"/>
    <path d="M19.75 20.3 L21.25 27.9 19.5 30.45 Q18.15 29.05 17.65 25.5 L17.45 23.65 19.75 20.3 M25.2 28.15 Q25.1 29.55 24.5 30.3 24.1 30.75 23.55 31.0 L23.1 31.15 25.2 28.15" fill="#9a0000" fill-rule="evenodd" stroke="none"/>
    <path d="M20.65 20.25 L20.4 20.25 Q20.15 15.55 17.55 15.3 18.25 10.0 21.2 10.0 23.95 10.25 24.1 15.25 L20.65 20.25" fill="url(#gradient2)" fill-rule="evenodd" stroke="none"/>
    <path d="M6.6 7.3 Q6.0 8.25 5.55 9.35 3.45 14.2 3.75 21.7 3.95 29.35 6.9 33.9 L7.85 35.2 9.5 36.9 Q10.8 38.0 12.4 38.8 15.8 40.4 20.55 40.5 28.55 40.7 33.05 36.75 L34.7 35.0" fill="none" stroke="url(#gradient3)" stroke-linecap="round" stroke-linejoin="round" stroke-width="1.0"/>
  </g>
  <defs>
    <linearGradient gradientTransform="matrix(0.0, 0.0242, -0.0249, 0.0, 260.15, 20.3)" gradientUnits="userSpaceOnUse" id="gradient0" spreadMethod="pad" x1="-819.2" x2="819.2">
      <stop offset="0.0" stop-color="#ff452e"/>
      <stop offset="1.0" stop-color="#e00a0a"/>
    </linearGradient>
    <linearGradient gradientTransform="matrix(0.0188, 0.0131, -0.0144, 0.0207, 19.65, 30.25)" gradientUnits="userSpaceOnUse" id="gradient1" spreadMethod="pad" x1="-819.2" x2="819.2">
      <stop offset="0.1803921568627451" stop-color="#aa0000"/>
      <stop offset="0.5019607843137255" stop-color="#790000"/>
      <stop offset="0.803921568627451" stop-color="#790000"/>
      <stop offset="0.9882352941176471" stop-color="#930000"/>
    </linearGradient>
    <linearGradient gradientTransform="matrix(-0.0033, -0.0033, 0.0036, -0.0036, 18.1, 15.15)" gradientUnits="userSpaceOnUse" id="gradient2" spreadMethod="pad" x1="-819.2" x2="819.2">
      <stop offset="0.1803921568627451" stop-color="#aa0000"/>
      <stop offset="0.5019607843137255" stop-color="#790000"/>
      <stop offset="0.803921568627451" stop-color="#790000"/>
      <stop offset="0.9882352941176471" stop-color="#930000"/>
    </linearGradient>
    <radialGradient cx="0" cy="0" gradientTransform="matrix(0.0256, 0.0, 0.0, 0.0103, 17.75, 37.5)" gradientUnits="userSpaceOnUse" id="gradient3" r="819.2" spreadMethod="pad">
      <stop offset="0.12941176470588237" stop-color="#ffe48e" stop-opacity="0.4"/>
      <stop offset="1.0" stop-color="#ffe983" stop-opacity="0.0"/>
    </radialGradient>
  </defs>
</svg>
