<?xml version="1.0" encoding="UTF-8" standalone="no"?>
<svg xmlns:ffdec="https://www.free-decompiler.com/flash" xmlns:xlink="http://www.w3.org/1999/xlink" ffdec:objectType="shape" height="45.1px" width="34.2px" xmlns="http://www.w3.org/2000/svg">
  <g transform="matrix(1.0, 0.0, 0.0, 1.0, 3.75, 0.0)">
    <path d="M0.75 17.85 L12.75 20.6 Q12.1 27.2 13.5 28.8 14.0 29.4 14.75 29.3 19.05 29.05 16.15 5.55 L15.4 0.0 29.0 1.25 Q32.65 24.2 27.2 33.55 L25.6 35.8 24.25 37.15 Q20.8 39.95 15.5 40.0 -0.7 40.15 0.05 23.65 0.2 20.95 0.75 17.85" fill="url(#gradient0)" fill-rule="evenodd" stroke="none"/>
    <path d="M0.75 17.85 Q0.2 20.95 0.05 23.65 -0.7 40.15 15.5 40.0 20.8 39.95 24.25 37.15 L25.6 35.8 22.85 39.65 22.45 40.25 Q18.7 45.05 11.75 45.1 -7.1 45.3 -3.0 22.95 L0.75 17.85" fill="url(#gradient1)" fill-rule="evenodd" stroke="none"/>
    <path d="M15.4 0.0 L16.15 5.55 Q19.05 29.05 14.75 29.3 14.0 29.4 13.5 28.8 14.0 21.6 11.65 5.1 L15.4 0.0" fill="#ab0404" fill-rule="evenodd" stroke="none"/>
    <path d="M0.75 17.85 Q0.2 20.95 0.05 23.65 -0.7 40.15 15.5 40.0 20.8 39.95 24.25 37.15 L25.6 35.8" fill="none" stroke="url(#gradient2)" stroke-linecap="round" stroke-linejoin="round" stroke-width="1.0"/>
  </g>
  <defs>
    <linearGradient gradientTransform="matrix(0.0, 0.0244, -0.0183, 0.0, 15.0, 20.0)" gradientUnits="userSpaceOnUse" id="gradient0" spreadMethod="pad" x1="-819.2" x2="819.2">
      <stop offset="0.0" stop-color="#ff452e"/>
      <stop offset="1.0" stop-color="#e00a0a"/>
    </linearGradient>
    <linearGradient gradientTransform="matrix(0.0154, 0.0107, -0.0069, 0.01, 7.6, 34.7)" gradientUnits="userSpaceOnUse" id="gradient1" spreadMethod="pad" x1="-819.2" x2="819.2">
      <stop offset="0.1803921568627451" stop-color="#aa0000"/>
      <stop offset="0.5019607843137255" stop-color="#790000"/>
      <stop offset="0.803921568627451" stop-color="#790000"/>
      <stop offset="0.9882352941176471" stop-color="#930000"/>
    </linearGradient>
    <radialGradient cx="0" cy="0" gradientTransform="matrix(0.0189, 0.0, 0.0, 0.01, 11.25, 36.5)" gradientUnits="userSpaceOnUse" id="gradient2" r="819.2" spreadMethod="pad">
      <stop offset="0.12941176470588237" stop-color="#ffe48e" stop-opacity="0.4"/>
      <stop offset="1.0" stop-color="#ffe983" stop-opacity="0.0"/>
    </radialGradient>
  </defs>
</svg>
