<?xml version="1.0" encoding="UTF-8" standalone="no"?>
<svg xmlns:ffdec="https://www.free-decompiler.com/flash" xmlns:xlink="http://www.w3.org/1999/xlink" ffdec:objectType="shape" height="45.15px" width="35.6px" xmlns="http://www.w3.org/2000/svg">
  <g transform="matrix(1.0, 0.0, 0.0, 1.0, 0.0, 0.0)">
    <path d="M3.75 1.6 Q12.55 -0.35 21.7 0.05 32.25 1.25 33.35 9.3 33.75 13.85 31.95 16.7 L31.35 17.55 30.0 19.4 Q35.85 21.6 35.6 28.6 L35.4 30.5 Q35.1 32.6 34.1 34.2 L33.3 35.3 31.35 37.0 Q27.35 39.75 19.4 40.05 L4.65 39.2 4.8 29.2 Q4.85 17.15 4.1 5.95 L3.75 1.6 M18.65 31.4 Q21.7 31.15 22.45 28.85 L22.65 27.5 Q22.35 24.15 18.2 24.0 L17.2 24.0 17.25 29.8 17.25 31.4 18.65 31.4 M17.1 14.75 L17.1 15.9 17.5 15.95 18.1 15.95 Q21.95 15.85 22.05 12.25 22.05 8.6 17.05 8.95 L17.1 14.75" fill="url(#gradient0)" fill-rule="evenodd" stroke="none"/>
    <path d="M17.25 29.8 L17.2 24.0 18.2 24.0 Q22.35 24.15 22.65 27.5 L22.45 28.85 Q21.7 31.15 18.65 31.4 18.2 30.35 17.25 29.8 M17.1 14.75 L17.05 8.95 Q22.05 8.6 22.05 12.25 21.95 15.85 18.1 15.95 17.75 15.2 17.1 14.75" fill="#790000" fill-rule="evenodd" stroke="none"/>
    <path d="M3.75 1.6 L4.1 5.95 Q4.85 17.15 4.8 29.2 L4.65 39.2 0.9 44.3 1.05 29.25 Q0.9 17.6 0.0 6.7 L3.75 1.6" fill="#ab0404" fill-rule="evenodd" stroke="none"/>
    <path d="M4.65 39.2 L19.4 40.05 Q27.35 39.75 31.35 37.0 L33.3 35.3 30.3 39.35 Q26.9 44.7 15.65 45.15 L0.9 44.3 4.65 39.2" fill="url(#gradient1)" fill-rule="evenodd" stroke="none"/>
    <path d="M3.75 1.6 L4.1 5.95 Q4.85 17.15 4.8 29.2 L4.65 39.2 19.4 40.05 Q27.35 39.75 31.35 37.0 L33.3 35.3 M0.9 44.3 L4.65 39.2" fill="none" stroke="url(#gradient2)" stroke-linecap="round" stroke-linejoin="round" stroke-width="1.0"/>
  </g>
  <defs>
    <linearGradient gradientTransform="matrix(0.0, 0.0231, -0.024, 0.0, 100.55, 20.3)" gradientUnits="userSpaceOnUse" id="gradient0" spreadMethod="pad" x1="-819.2" x2="819.2">
      <stop offset="0.0" stop-color="#ff452e"/>
      <stop offset="1.0" stop-color="#e00a0a"/>
    </linearGradient>
    <linearGradient gradientTransform="matrix(0.0158, 0.0118, -0.0036, 0.0048, 10.95, 37.85)" gradientUnits="userSpaceOnUse" id="gradient1" spreadMethod="pad" x1="-819.2" x2="819.2">
      <stop offset="0.1803921568627451" stop-color="#aa0000"/>
      <stop offset="0.5019607843137255" stop-color="#790000"/>
      <stop offset="0.803921568627451" stop-color="#790000"/>
      <stop offset="0.9882352941176471" stop-color="#930000"/>
    </linearGradient>
    <radialGradient cx="0" cy="0" gradientTransform="matrix(0.0256, 0.0, 0.0, 0.0098, 10.25, 36.75)" gradientUnits="userSpaceOnUse" id="gradient2" r="819.2" spreadMethod="pad">
      <stop offset="0.12941176470588237" stop-color="#ffe48e" stop-opacity="0.4"/>
      <stop offset="1.0" stop-color="#ffe983" stop-opacity="0.0"/>
    </radialGradient>
  </defs>
</svg>
