<?xml version="1.0" encoding="UTF-8" standalone="no"?>
<svg xmlns:ffdec="https://www.free-decompiler.com/flash" xmlns:xlink="http://www.w3.org/1999/xlink" ffdec:objectType="shape" height="45.8px" width="39.95px" xmlns="http://www.w3.org/2000/svg">
  <g transform="matrix(1.0, 0.0, 0.0, 1.0, 0.5, 0.5)">
    <path d="M22.6 23.15 L20.85 11.1 19.15 23.5 22.6 23.15 M3.75 37.35 L5.6 29.45 Q8.3 17.25 10.4 5.25 L11.3 0.0 Q19.4 0.5 30.6 0.55 L38.95 38.85 24.65 39.7 23.75 30.8 18.2 31.25 17.25 36.15 16.8 38.35 3.75 37.35" fill="url(#gradient0)" fill-rule="evenodd" stroke="none"/>
    <path d="M22.6 23.15 L19.15 23.5 20.85 11.1 22.6 23.15 M3.75 37.35 L16.8 38.35 13.05 43.45 0.0 42.45 3.75 37.35 M17.25 36.15 L18.2 31.25 23.75 30.8 20.0 35.9 17.25 36.15 M24.65 39.7 L38.95 38.85 35.2 43.95 20.9 44.8 24.65 39.7" fill="#790000" fill-rule="evenodd" stroke="none"/>
    <path d="M11.3 0.0 L10.4 5.25 Q8.3 17.25 5.6 29.45 L3.75 37.35 0.0 42.45 2.95 29.5 Q5.55 17.2 7.55 5.1 L11.3 0.0" fill="#ab0404" fill-rule="evenodd" stroke="none"/>
    <path d="M23.75 30.8 L24.65 39.7 20.9 44.8 20.0 35.9 23.75 30.8" fill="#9a0000" fill-rule="evenodd" stroke="none"/>
    <path d="M11.3 0.0 L10.4 5.25 Q8.3 17.25 5.6 29.45 L3.75 37.35 16.8 38.35 M0.0 42.45 L3.75 37.35" fill="none" stroke="url(#gradient1)" stroke-linecap="round" stroke-linejoin="round" stroke-width="1.0"/>
    <path d="M18.2 31.25 L23.75 30.8 24.65 39.7 38.95 38.85 M20.9 44.8 L24.65 39.7" fill="none" stroke="url(#gradient2)" stroke-linecap="round" stroke-linejoin="round" stroke-width="1.0"/>
  </g>
  <defs>
    <linearGradient gradientTransform="matrix(0.0, 0.0231, -0.024, 0.0, 142.65, 19.8)" gradientUnits="userSpaceOnUse" id="gradient0" spreadMethod="pad" x1="-819.2" x2="819.2">
      <stop offset="0.0" stop-color="#ff452e"/>
      <stop offset="1.0" stop-color="#e00a0a"/>
    </linearGradient>
    <radialGradient cx="0" cy="0" gradientTransform="matrix(0.0153, 0.0, 0.0, 0.0096, 8.25, 35.0)" gradientUnits="userSpaceOnUse" id="gradient1" r="819.2" spreadMethod="pad">
      <stop offset="0.12941176470588237" stop-color="#ffe48e" stop-opacity="0.4"/>
      <stop offset="1.0" stop-color="#ffe983" stop-opacity="0.0"/>
    </radialGradient>
    <radialGradient cx="0" cy="0" gradientTransform="matrix(0.0192, 0.0, 0.0, 0.0093, 26.75, 36.5)" gradientUnits="userSpaceOnUse" id="gradient2" r="819.2" spreadMethod="pad">
      <stop offset="0.12941176470588237" stop-color="#ffe48e" stop-opacity="0.4"/>
      <stop offset="1.0" stop-color="#ffe983" stop-opacity="0.0"/>
    </radialGradient>
  </defs>
</svg>
