<?xml version="1.0" encoding="UTF-8" standalone="no"?>
<svg xmlns:ffdec="https://www.free-decompiler.com/flash" xmlns:xlink="http://www.w3.org/1999/xlink" ffdec:objectType="shape" height="46.75px" width="37.7px" xmlns="http://www.w3.org/2000/svg">
  <g transform="matrix(1.0, 0.0, 0.0, 1.0, 0.1, 0.0)">
    <path d="M3.75 2.1 Q11.35 -0.2 21.35 0.0 31.35 0.2 34.25 7.8 36.05 12.8 33.85 18.0 L32.5 20.35 32.05 20.95 31.95 21.1 30.2 22.9 Q29.2 23.7 28.05 24.1 L28.8 25.4 37.1 39.65 24.05 41.15 18.75 27.3 17.4 27.5 17.4 29.15 17.4 38.25 4.15 37.7 3.75 2.1 M16.95 15.95 L17.05 19.15 17.95 19.05 Q21.2 18.4 21.65 14.2 22.2 9.45 16.7 10.2 L16.95 15.95" fill="url(#gradient0)" fill-rule="evenodd" stroke="none"/>
    <path d="M31.95 21.1 L28.8 25.4 28.05 24.1 Q29.2 23.7 30.2 22.9 L31.95 21.1 M37.1 39.65 L33.35 44.75 20.3 46.25 24.05 41.15 37.1 39.65 M17.3 38.4 L13.65 43.35 0.4 42.8 4.15 37.7 17.4 38.25 17.3 38.4 M17.4 29.15 L17.4 27.5 18.75 27.3 17.4 29.15" fill="#790000" fill-rule="evenodd" stroke="none"/>
    <path d="M0.4 42.8 L0.0 7.2 3.75 2.1 4.15 37.7 0.4 42.8" fill="#ab0404" fill-rule="evenodd" stroke="none"/>
    <path d="M17.95 19.05 Q18.1 16.85 16.95 15.95 L16.7 10.2 Q22.2 9.45 21.65 14.2 21.2 18.4 17.95 19.05" fill="url(#gradient1)" fill-rule="evenodd" stroke="none"/>
    <path d="M20.3 46.25 L17.3 38.4 17.4 38.25 17.4 29.15 18.75 27.3 24.05 41.15 20.3 46.25" fill="#9a0000" fill-rule="evenodd" stroke="none"/>
    <path d="M18.75 27.3 L24.05 41.15 37.1 39.65 M24.05 41.15 L20.3 46.25" fill="none" stroke="url(#gradient2)" stroke-linecap="round" stroke-linejoin="round" stroke-width="1.0"/>
    <path d="M3.75 2.1 L4.15 37.7 17.4 38.25 M4.15 37.7 L0.4 42.8" fill="none" stroke="url(#gradient3)" stroke-linecap="round" stroke-linejoin="round" stroke-width="1.0"/>
  </g>
  <defs>
    <linearGradient gradientTransform="matrix(0.0, 0.0242, -0.0251, 0.0, 20.4, 20.55)" gradientUnits="userSpaceOnUse" id="gradient0" spreadMethod="pad" x1="-819.2" x2="819.2">
      <stop offset="0.0" stop-color="#ff452e"/>
      <stop offset="1.0" stop-color="#e00a0a"/>
    </linearGradient>
    <linearGradient gradientTransform="matrix(0.004, 0.0037, -0.0037, 0.004, 19.5, 9.5)" gradientUnits="userSpaceOnUse" id="gradient1" spreadMethod="pad" x1="-819.2" x2="819.2">
      <stop offset="0.1803921568627451" stop-color="#aa0000"/>
      <stop offset="0.5019607843137255" stop-color="#790000"/>
      <stop offset="0.803921568627451" stop-color="#790000"/>
      <stop offset="0.9882352941176471" stop-color="#930000"/>
    </linearGradient>
    <radialGradient cx="0" cy="0" gradientTransform="matrix(0.015, 0.0, 0.0, 0.0092, 26.5, 38.25)" gradientUnits="userSpaceOnUse" id="gradient2" r="819.2" spreadMethod="pad">
      <stop offset="0.12941176470588237" stop-color="#ffe48e" stop-opacity="0.4"/>
      <stop offset="1.0" stop-color="#ffe983" stop-opacity="0.0"/>
    </radialGradient>
    <radialGradient cx="0" cy="0" gradientTransform="matrix(0.0146, 0.0, 0.0, 0.0097, 7.25, 35.25)" gradientUnits="userSpaceOnUse" id="gradient3" r="819.2" spreadMethod="pad">
      <stop offset="0.12941176470588237" stop-color="#ffe48e" stop-opacity="0.4"/>
      <stop offset="1.0" stop-color="#ffe983" stop-opacity="0.0"/>
    </radialGradient>
  </defs>
</svg>
