<?xml version="1.0" encoding="UTF-8" standalone="no"?>
<svg xmlns:ffdec="https://www.free-decompiler.com/flash" xmlns:xlink="http://www.w3.org/1999/xlink" ffdec:objectType="shape" height="130.85px" width="106.8px" xmlns="http://www.w3.org/2000/svg">
  <g transform="matrix(1.0, 0.0, 0.0, 1.0, -37.45, -0.4)">
    <path d="M123.4 99.2 Q121.1 92.95 118.5 82.15 81.3 42.75 38.45 17.6 71.95 -11.4 116.3 11.5 155.7 35.05 133.6 98.65 L130.45 107.25 Q127.45 110.3 123.4 99.2" fill="url(#gradient0)" fill-rule="evenodd" stroke="none"/>
    <path d="M133.6 98.65 Q137.2 100.25 139.1 102.5 143.25 107.25 143.25 114.0 143.25 120.75 139.1 125.5 135.0 130.25 129.1 130.25 123.25 130.25 119.15 125.5 115.0 120.75 115.0 114.0 115.0 107.25 119.15 102.5 120.9 100.45 123.4 99.2 127.45 110.3 130.45 107.25 L133.6 98.65" fill="url(#gradient1)" fill-rule="evenodd" stroke="none"/>
    <path d="M133.6 98.65 Q137.2 100.25 139.1 102.5 143.25 107.25 143.25 114.0 143.25 120.75 139.1 125.5 135.0 130.25 129.1 130.25 123.25 130.25 119.15 125.5 115.0 120.75 115.0 114.0 115.0 107.25 119.15 102.5 120.9 100.45 123.4 99.2" fill="none" stroke="#7a9fb8" stroke-linecap="round" stroke-linejoin="round" stroke-width="2.0"/>
    <path d="M123.4 99.2 Q121.1 92.95 118.5 82.15 81.3 42.75 38.45 17.6 71.95 -11.4 116.3 11.5 155.7 35.05 133.6 98.65 L130.45 107.25 Q127.45 110.3 123.4 99.2 Z" fill="none" stroke="#560000" stroke-linecap="round" stroke-linejoin="round" stroke-width="2.0"/>
  </g>
  <defs>
    <radialGradient cx="0" cy="0" gradientTransform="matrix(0.0854, 0.0, 0.0, 0.0816, 73.95, 65.5)" gradientUnits="userSpaceOnUse" id="gradient0" r="819.2" spreadMethod="pad">
      <stop offset="0.7019607843137254" stop-color="#640000"/>
      <stop offset="1.0" stop-color="#db0202"/>
    </radialGradient>
    <radialGradient cx="0" cy="0" gradientTransform="matrix(0.0186, 0.0024, -0.0027, 0.019, 130.95, 110.5)" gradientUnits="userSpaceOnUse" id="gradient1" r="819.2" spreadMethod="pad">
      <stop offset="0.5098039215686274" stop-color="#ffffff"/>
      <stop offset="0.9254901960784314" stop-color="#c5dbe9"/>
    </radialGradient>
  </defs>
</svg>
