<?xml version="1.0" encoding="UTF-8" standalone="no"?>
<svg xmlns:ffdec="https://www.free-decompiler.com/flash" xmlns:xlink="http://www.w3.org/1999/xlink" ffdec:objectType="shape" height="46.45px" width="64.2px" xmlns="http://www.w3.org/2000/svg">
  <g transform="matrix(1.0, 0.0, 0.0, 1.0, -37.65, -81.2)">
    <path d="M74.95 95.05 Q84.25 97.25 93.6 98.2 L100.85 98.75 Q98.55 106.75 87.75 112.1 84.25 113.8 80.55 114.65 72.8 116.35 64.15 114.25 L62.6 113.85 Q66.35 105.5 74.95 95.05 M44.0 100.55 Q38.65 92.45 38.65 85.75 38.75 83.9 39.15 82.2 L46.25 85.45 55.2 89.05 Q47.3 94.35 44.0 100.55" fill="#5d1b1b" fill-rule="evenodd" stroke="none"/>
    <path d="M74.95 95.05 Q66.35 105.5 62.6 113.85 L60.75 118.1 Q55.15 128.85 48.0 126.1 43.35 124.3 41.85 116.95 40.25 109.7 42.95 102.85 43.35 101.65 44.0 100.55 47.3 94.35 55.2 89.05 65.1 92.7 74.95 95.05" fill="url(#gradient0)" fill-rule="evenodd" stroke="none"/>
    <path d="M62.6 113.85 L64.15 114.25 Q72.8 116.35 80.55 114.65 84.25 113.8 87.75 112.1 98.55 106.75 100.85 98.75 M39.15 82.2 Q38.75 83.9 38.65 85.75 38.65 92.45 44.0 100.55" fill="none" stroke="#560f0f" stroke-linecap="round" stroke-linejoin="round" stroke-width="2.0"/>
    <path d="M74.95 95.05 Q66.35 105.5 62.6 113.85 L60.75 118.1 Q55.15 128.85 48.0 126.1 43.35 124.3 41.85 116.95 40.25 109.7 42.95 102.85 43.35 101.65 44.0 100.55 47.3 94.35 55.2 89.05" fill="none" stroke="#930000" stroke-linecap="round" stroke-linejoin="round" stroke-width="2.0"/>
    <path d="M100.85 98.75 L93.6 98.2 Q84.25 97.25 74.95 95.05 65.1 92.7 55.2 89.05 L46.25 85.45 39.15 82.2" fill="none" stroke="#540d0d" stroke-linecap="round" stroke-linejoin="round" stroke-width="2.0"/>
  </g>
  <defs>
    <radialGradient cx="0" cy="0" gradientTransform="matrix(-0.0733, -0.0197, -0.0091, 0.0338, 62.0, 91.55)" gradientUnits="userSpaceOnUse" id="gradient0" r="819.2" spreadMethod="pad">
      <stop offset="0.24705882352941178" stop-color="#ffa3a9"/>
      <stop offset="1.0" stop-color="#d73740"/>
    </radialGradient>
  </defs>
</svg>
