<?xml version="1.0" encoding="UTF-8" standalone="no"?>
<svg xmlns:ffdec="https://www.free-decompiler.com/flash" xmlns:xlink="http://www.w3.org/1999/xlink" ffdec:objectType="shape" height="84.0px" width="49.65px" xmlns="http://www.w3.org/2000/svg">
  <g transform="matrix(1.0, 0.0, 0.0, 1.0, 27.6, 58.4)">
    <path d="M12.75 -46.15 Q16.4 -22.75 20.35 -0.55 24.25 21.6 9.35 24.1 -5.6 26.6 -18.7 18.7 -31.8 10.8 -23.45 -4.6 -15.1 -20.1 -3.0 -44.8 9.1 -69.55 12.75 -46.15" fill="#ceaa1a" fill-rule="evenodd" stroke="none"/>
    <path d="M12.75 -46.15 Q9.1 -69.55 -3.0 -44.8 -15.1 -20.1 -23.45 -4.6 -31.8 10.8 -18.7 18.7 -5.6 26.6 9.35 24.1 24.25 21.6 20.35 -0.55 16.4 -22.75 12.75 -46.15 Z" fill="none" stroke="#323232" stroke-linecap="round" stroke-linejoin="round" stroke-width="1.8"/>
    <path d="M10.4 -38.3 Q13.85 -19.0 16.75 -0.75 19.65 17.5 6.25 18.15 -7.2 18.8 -15.65 13.2 -24.15 7.55 -19.3 -3.45 -14.45 -14.4 -3.75 -36.0 6.95 -57.6 10.4 -38.3" fill="#e1c92c" fill-rule="evenodd" stroke="none"/>
  </g>
</svg>
