<?xml version="1.0" encoding="UTF-8" standalone="no"?>
<svg xmlns:ffdec="https://www.free-decompiler.com/flash" xmlns:xlink="http://www.w3.org/1999/xlink" ffdec:objectType="shape" height="118.2px" width="156.6px" xmlns="http://www.w3.org/2000/svg">
  <g transform="matrix(1.0, 0.0, 0.0, 1.0, 78.3, 59.1)">
    <path d="M74.25 -57.75 L74.25 -58.1 77.3 -58.1 74.25 -57.75" fill="#ffffff" fill-rule="evenodd" stroke="none"/>
    <path d="M74.25 -57.75 L77.3 -58.1 77.25 -57.4 74.25 -57.75" fill="#ff3300" fill-rule="evenodd" stroke="none"/>
    <path d="M52.45 -55.2 L62.55 -56.35 37.4 50.9 25.65 55.2 52.45 -55.2 M-77.3 -51.85 L-54.55 -51.85 -72.45 -14.2 -77.3 -51.85 M-69.0 12.6 L-31.8 -51.85 -12.0 -51.85 -65.8 37.3 -69.0 12.6 M-53.55 53.0 L8.6 -51.85 23.85 -51.85 23.4 -43.75 -34.55 54.35 -53.55 53.0 M33.4 -52.95 L41.4 -53.9 18.95 33.55 4.35 57.15 -15.15 55.75 21.1 -3.8 33.4 -52.95 M74.25 -57.75 L77.25 -57.4 69.2 8.6 60.4 42.55 49.2 46.65 74.25 -57.75" fill="#de1818" fill-rule="evenodd" stroke="none"/>
    <path d="M52.45 -55.2 L41.4 -53.9 33.4 -52.95 23.85 -51.85 8.6 -51.85 -53.55 53.0 -63.9 52.25 -65.8 37.3 -12.0 -51.85 -31.8 -51.85 -69.0 12.6 -72.45 -14.2 -54.55 -51.85 -77.3 -51.85 -20.5 -57.85 74.25 -58.1 74.25 -57.75 62.55 -56.35 52.45 -55.2 M18.95 33.55 L17.55 58.1 4.35 57.15 18.95 33.55 M23.4 -43.75 L21.1 -3.8 -15.15 55.75 -34.55 54.35 23.4 -43.75" fill="#66ccff" fill-rule="evenodd" stroke="none"/>
    <path d="M41.4 -53.9 L52.45 -55.2 25.65 55.2 17.55 58.1 18.95 33.55 41.4 -53.9 M62.55 -56.35 L74.25 -57.75 49.2 46.65 37.4 50.9 62.55 -56.35 M23.85 -51.85 L33.4 -52.95 21.1 -3.8 23.4 -43.75 23.85 -51.85 M60.4 42.55 L69.2 8.6 65.3 40.75 60.4 42.55" fill="#299cdb" fill-rule="evenodd" stroke="none"/>
    <path d="M74.25 -58.1 L-20.5 -57.85 -77.3 -51.85 -72.45 -14.2 -69.0 12.6 -65.8 37.3 -63.9 52.25 -53.55 53.0 -34.55 54.35 -15.15 55.75 4.35 57.15 17.55 58.1 25.65 55.2 37.4 50.9 49.2 46.65 60.4 42.55 65.3 40.75 69.2 8.6 77.25 -57.4 M77.3 -58.1 L74.25 -58.1" fill="none" stroke="#abe6fe" stroke-linecap="round" stroke-linejoin="round" stroke-width="2.0"/>
    <path d="M-66.85 -51.85 L23.85 -51.85 62.3 -56.05 M17.65 54.7 L23.85 -51.85" fill="none" stroke="#ffffff" stroke-linecap="round" stroke-linejoin="round" stroke-opacity="0.5019608" stroke-width="3.0"/>
    <path d="M38.05 51.7 L44.85 -51.4" fill="none" stroke="#000066" stroke-linecap="round" stroke-linejoin="round" stroke-opacity="0.101960786" stroke-width="2.0"/>
    <path d="M39.2 47.65 L46.5 -53.9 57.4 -55.1 48.5 48.3 39.2 47.65" fill="url(#gradient0)" fill-rule="evenodd" stroke="none"/>
    <path d="M-22.3 -50.85 L-20.3 56.9 -37.2 55.35 -40.4 -50.85 -22.3 -50.85" fill="url(#gradient1)" fill-rule="evenodd" stroke="none"/>
    <path d="M48.5 48.3 L39.0 51.75 38.95 51.35 39.2 47.65 48.5 48.3" fill="url(#gradient2)" fill-rule="evenodd" stroke="none"/>
    <path d="M39.2 47.65 L46.5 -53.9 57.4 -55.1 48.5 48.3 39.0 51.75 M38.95 51.35 L39.2 47.65 M-22.3 -50.85 L-20.3 56.9 -37.2 55.35 -40.4 -50.85 -22.3 -50.85 Z" fill="none" stroke="#8f5f00" stroke-linecap="round" stroke-linejoin="round" stroke-width="2.0"/>
  </g>
  <defs>
    <linearGradient gradientTransform="matrix(0.0023, -0.0236, 0.0072, 7.0E-4, 44.9, 9.6)" gradientUnits="userSpaceOnUse" id="gradient0" spreadMethod="pad" x1="-819.2" x2="819.2">
      <stop offset="0.0392156862745098" stop-color="#bd7e00"/>
      <stop offset="0.5176470588235295" stop-color="#e7d100"/>
      <stop offset="1.0" stop-color="#a87800"/>
    </linearGradient>
    <linearGradient gradientTransform="matrix(-0.0017, -0.0426, 0.011, -4.0E-4, -29.4, -1.6)" gradientUnits="userSpaceOnUse" id="gradient1" spreadMethod="pad" x1="-819.2" x2="819.2">
      <stop offset="0.0392156862745098" stop-color="#bd7e00"/>
      <stop offset="0.4745098039215686" stop-color="#ffff00"/>
      <stop offset="1.0" stop-color="#a87800"/>
    </linearGradient>
    <linearGradient gradientTransform="matrix(0.0023, -0.0236, 0.0072, 7.0E-4, 49.0, -18.25)" gradientUnits="userSpaceOnUse" id="gradient2" spreadMethod="pad" x1="-819.2" x2="819.2">
      <stop offset="0.0392156862745098" stop-color="#bd7e00"/>
      <stop offset="0.4745098039215686" stop-color="#ffff00"/>
      <stop offset="1.0" stop-color="#a87800"/>
    </linearGradient>
  </defs>
</svg>
