<?xml version="1.0" encoding="UTF-8" standalone="no"?>
<svg xmlns:ffdec="https://www.free-decompiler.com/flash" xmlns:xlink="http://www.w3.org/1999/xlink" ffdec:objectType="shape" height="145.25px" width="214.05px" xmlns="http://www.w3.org/2000/svg">
  <g transform="matrix(1.0, 0.0, 0.0, 1.0, 30.25, 9.6)">
    <path d="M143.0 -1.75 Q198.7 9.15 175.5 44.1 152.25 79.1 115.5 115.2 78.65 151.3 43.4 118.65 8.05 85.95 -20.35 44.55 -48.8 3.15 19.25 -4.75 87.25 -12.7 143.0 -1.75" fill="#ceaa1a" fill-rule="evenodd" stroke="none"/>
    <path d="M143.0 -1.75 Q198.7 9.15 175.5 44.1 152.25 79.1 115.5 115.2 78.65 151.3 43.4 118.65 8.05 85.95 -20.35 44.55 -48.8 3.15 19.25 -4.75 87.25 -12.7 143.0 -1.75 Z" fill="none" stroke="#323232" stroke-linecap="round" stroke-linejoin="round" stroke-width="3.0"/>
    <path d="M51.95 110.15 Q27.1 82.05 -2.0 43.85 -31.15 5.65 27.75 -1.35 86.6 -8.45 137.3 1.35 188.05 11.15 164.6 42.65 141.15 74.2 109.0 106.25 76.75 138.25 51.95 110.15" fill="#e1c92c" fill-rule="evenodd" stroke="none"/>
  </g>
</svg>
