<?xml version="1.0" encoding="UTF-8" standalone="no"?>
<svg xmlns:ffdec="https://www.free-decompiler.com/flash" xmlns:xlink="http://www.w3.org/1999/xlink" ffdec:objectType="shape" height="88.6px" width="84.55px" xmlns="http://www.w3.org/2000/svg">
  <g transform="matrix(1.0, 0.0, 0.0, 1.0, 50.05, 55.35)">
    <path d="M-25.3 -20.35 L-23.2 -22.55 Q-20.25 -25.35 -16.45 -27.45 -4.65 -34.0 8.5 -30.6 21.65 -27.2 28.45 -15.8 35.35 -4.45 31.8 8.25 L31.1 10.45 Q27.2 21.45 16.45 27.45 4.6 34.0 -8.55 30.6 -21.7 27.2 -28.55 15.8 -35.3 4.4 -31.75 -8.2 -30.55 -12.65 -28.25 -16.3 L-27.2 -17.95 -26.05 -19.45 -25.65 -19.95 -25.3 -20.35" fill="#010101" fill-opacity="0.0" fill-rule="evenodd" stroke="none"/>
    <path d="M-25.3 -20.35 L-23.2 -22.55 Q-20.25 -25.35 -16.45 -27.45 -4.65 -34.0 8.5 -30.6 21.65 -27.2 28.45 -15.8 35.35 -4.45 31.8 8.25 L31.1 10.45 Q27.2 21.45 16.45 27.45 4.6 34.0 -8.55 30.6 -21.7 27.2 -28.55 15.8 -35.3 4.4 -31.75 -8.2 -30.55 -12.65 -28.25 -16.3 L-27.2 -17.95 -26.05 -19.45 -25.3 -20.35 Z" fill="none" stroke="#010101" stroke-linecap="round" stroke-linejoin="round" stroke-opacity="0.0" stroke-width="3.0"/>
    <path d="M-26.15 -54.1 Q-26.65 -51.35 -24.2 -46.5 -21.75 -41.7 -15.2 -36.9 -8.75 -32.05 -3.2 -31.55 L-16.3 -29.75 Q-20.4 -29.55 -27.4 -29.7 -34.45 -29.9 -40.25 -34.6 -46.05 -39.35 -48.8 -47.05 M-3.2 -31.55 Q-15.25 -31.8 -21.05 -34.25 -26.9 -36.7 -32.0 -41.6 -37.1 -46.55 -39.15 -52.4" fill="none" stroke="#323232" stroke-linecap="round" stroke-linejoin="round" stroke-width="2.5"/>
  </g>
</svg>
