<?xml version="1.0" encoding="UTF-8" standalone="no"?>
<svg xmlns:ffdec="https://www.free-decompiler.com/flash" xmlns:xlink="http://www.w3.org/1999/xlink" ffdec:objectType="shape" height="35.6px" width="50.0px" xmlns="http://www.w3.org/2000/svg">
  <g transform="matrix(1.0, 0.0, 0.0, 1.0, -3.9, 0.0)">
    <path d="M7.1 4.5 Q12.0 2.5 16.6 5.2 L17.65 5.85 Q26.7 -2.75 38.35 1.25 50.0 5.25 53.9 16.3 46.15 37.05 25.0 35.5 3.8 33.9 3.95 19.5 3.6 6.0 7.1 4.5" fill="#ed81a2" fill-rule="evenodd" stroke="none"/>
    <path d="M37.25 28.8 Q37.25 29.55 36.25 30.0 L34.0 30.4 Q32.75 30.25 31.8 29.6 30.8 29.0 30.8 28.25 30.8 27.55 31.8 27.05 L34.0 26.7 Q35.3 26.8 36.25 27.45 37.25 28.05 37.25 28.8 M27.6 29.2 L26.7 28.9 26.3 28.35 26.7 27.85 27.6 27.7 Q28.15 27.75 28.55 28.05 L28.9 28.55 28.55 29.05 27.6 29.2" fill="#fce9ef" fill-rule="evenodd" stroke="none"/>
  </g>
</svg>
