<?xml version="1.0" encoding="UTF-8" standalone="no"?>
<svg xmlns:ffdec="https://www.free-decompiler.com/flash" xmlns:xlink="http://www.w3.org/1999/xlink" ffdec:objectType="shape" height="70.4px" width="49.9px" xmlns="http://www.w3.org/2000/svg">
  <g transform="matrix(1.0, 0.0, 0.0, 1.0, 42.1, 104.95)">
    <path d="M-26.6 -38.25 Q-40.75 -85.95 -41.6 -101.75 -39.45 -105.45 -35.95 -104.1 -30.55 -101.75 -5.35 -55.9 L-7.65 -52.65 Q-30.9 -97.15 -34.65 -99.55 -37.15 -101.0 -38.3 -98.1 -36.65 -84.9 -22.7 -39.7 L-26.6 -38.25" fill="#ff5858" fill-rule="evenodd" stroke="none"/>
    <path d="M-26.6 -38.25 Q-40.75 -85.95 -41.6 -101.75 -39.45 -105.45 -35.95 -104.1 -30.55 -101.75 -5.35 -55.9 L7.3 -73.5 M-5.35 -55.9 L-3.4 -52.35 M-7.65 -52.65 L-6.15 -49.85 M-5.35 -55.9 L-7.65 -52.65 Q-30.9 -97.15 -34.65 -99.55 -37.15 -101.0 -38.3 -98.1 -36.65 -84.9 -22.7 -39.7 L-15.55 -42.35 M-29.6 -37.15 L-26.6 -38.25 -22.7 -39.7 -21.95 -37.05 M-26.6 -38.25 L-25.65 -35.05 M-10.5 -48.7 L-7.65 -52.65" fill="none" stroke="#690000" stroke-linecap="round" stroke-linejoin="round" stroke-width="1.0"/>
  </g>
</svg>
