<?xml version="1.0" encoding="UTF-8" standalone="no"?>
<svg xmlns:ffdec="https://www.free-decompiler.com/flash" xmlns:xlink="http://www.w3.org/1999/xlink" ffdec:objectType="shape" height="119.2px" width="157.6px" xmlns="http://www.w3.org/2000/svg">
  <g transform="matrix(1.0, 0.0, 0.0, 1.0, 78.8, 59.6)">
    <path d="M74.25 -57.75 L74.25 -58.1 77.3 -58.1 74.25 -57.75" fill="#ffffff" fill-rule="evenodd" stroke="none"/>
    <path d="M77.25 -57.4 L74.25 -57.75 77.3 -58.1 77.25 -57.4" fill="#ff3300" fill-rule="evenodd" stroke="none"/>
    <path d="M-77.3 -51.85 L-77.1 -50.5 23.85 -51.85 18.8 36.55 18.8 36.6 17.55 58.1 -63.9 52.25 -77.3 -51.85" fill="url(#gradient0)" fill-rule="evenodd" stroke="none"/>
    <path d="M23.85 -51.85 L77.05 -55.7 74.25 -57.75 77.25 -57.4 77.05 -55.7 65.3 40.75 17.55 58.1 18.8 36.6 18.8 36.55 23.85 -51.85" fill="url(#gradient1)" fill-rule="evenodd" stroke="none"/>
    <path d="M74.25 -57.75 L77.05 -55.7 23.85 -51.85 -77.1 -50.5 -77.3 -51.85 -20.5 -57.85 74.25 -58.1 74.25 -57.75" fill="#2bd717" fill-rule="evenodd" stroke="none"/>
    <path d="M74.25 -58.1 L-20.5 -57.85 -77.3 -51.85 -63.9 52.25 17.55 58.1 65.3 40.75 77.05 -55.7 77.25 -57.4 M77.3 -58.1 L74.25 -58.1" fill="none" stroke="#006600" stroke-linecap="round" stroke-linejoin="round" stroke-width="3.0"/>
    <path d="M-58.25 -50.75 L23.85 -51.85 60.2 -54.05 M17.9 52.25 L23.85 -51.85" fill="none" stroke="#acf4a4" stroke-linecap="round" stroke-linejoin="round" stroke-width="2.0"/>
  </g>
  <defs>
    <radialGradient cx="0" cy="0" gradientTransform="matrix(0.1199, 0.0, 0.0, 0.1476, -41.3, -27.4)" gradientUnits="userSpaceOnUse" id="gradient0" r="819.2" spreadMethod="pad">
      <stop offset="0.4588235294117647" stop-color="#02a901"/>
      <stop offset="0.6980392156862745" stop-color="#23c41b"/>
    </radialGradient>
    <radialGradient cx="0" cy="0" gradientTransform="matrix(0.086, 0.016, -0.0302, 0.1624, 76.55, -35.8)" gradientUnits="userSpaceOnUse" id="gradient1" r="819.2" spreadMethod="pad">
      <stop offset="0.5019607843137255" stop-color="#229515"/>
      <stop offset="0.6039215686274509" stop-color="#017e01"/>
    </radialGradient>
  </defs>
</svg>
