<?xml version="1.0" encoding="UTF-8" standalone="no"?>
<svg xmlns:ffdec="https://www.free-decompiler.com/flash" xmlns:xlink="http://www.w3.org/1999/xlink" ffdec:objectType="shape" height="161.45px" width="138.85px" xmlns="http://www.w3.org/2000/svg">
  <g transform="matrix(1.0, 0.0, 0.0, 1.0, 1.0, -0.2)">
    <path d="M75.2 48.65 L75.25 48.95 46.55 52.7 30.2 52.8 53.65 49.35 75.2 48.65" fill="url(#gradient0)" fill-rule="evenodd" stroke="none"/>
    <path d="M75.25 48.95 L46.55 52.7 M30.2 52.8 L29.4 52.9 M30.2 52.8 L53.65 49.35 75.2 48.65" fill="none" stroke="#741d1d" stroke-linecap="round" stroke-linejoin="round" stroke-width="2.0"/>
    <path d="M4.05 15.8 Q5.95 14.6 8.8 14.15 7.65 21.7 23.3 30.65 41.15 41.6 63.0 44.65 L64.5 46.4 60.55 49.75 Q35.4 50.8 11.95 41.1 6.25 39.05 4.2 36.1 2.1 33.15 1.15 30.3 -1.45 21.75 1.9 17.65 L2.2 17.3 Q2.95 16.45 4.05 15.8" fill="url(#gradient1)" fill-rule="evenodd" stroke="none"/>
    <path d="M4.05 15.8 L7.2 12.7 Q10.6 9.0 13.4 4.15 19.45 -1.15 31.55 3.1 43.05 8.1 55.0 20.45 67.4 33.3 72.3 46.1 L64.65 46.25 63.0 44.65 Q46.7 29.1 26.7 17.95 22.75 15.9 18.4 14.65 L18.3 14.6 8.8 14.15 Q5.95 14.6 4.05 15.8" fill="url(#gradient2)" fill-rule="evenodd" stroke="none"/>
    <path d="M8.8 14.15 L18.3 14.6 18.4 14.65 Q22.75 15.9 26.7 17.95 46.7 29.1 63.0 44.65 L64.65 46.25 72.3 46.1 Q67.4 33.3 55.0 20.45 43.05 8.1 31.55 3.1 19.45 -1.15 13.4 4.15 10.6 9.0 7.2 12.7 L4.05 15.8 Q5.95 14.6 8.8 14.15 7.65 21.7 23.3 30.65 41.15 41.6 63.0 44.65 L64.5 46.4 64.65 46.25 65.4 47.0 M4.05 15.8 Q2.95 16.45 2.2 17.3 L1.9 17.65 Q-1.45 21.75 1.15 30.3 2.1 33.15 4.2 36.1 6.25 39.05 11.95 41.1 35.4 50.8 60.55 49.75 L64.5 46.4" fill="none" stroke="#741d1d" stroke-linecap="round" stroke-linejoin="round" stroke-width="1.0"/>
    <path d="M73.2 45.05 L65.55 45.2 66.3 45.95 M63.9 43.6 L65.4 45.35 65.55 45.2 63.9 43.6 Q47.6 28.05 27.6 16.9 23.65 14.85 19.3 13.6 L19.2 13.55 9.7 13.1 Q6.85 13.55 4.95 14.75 L3.1 16.25 2.8 16.6 Q-0.55 20.7 2.05 29.25 3.0 32.1 5.1 35.05 7.15 38.0 12.85 40.05 36.3 49.75 61.45 48.7 L65.4 45.35 M9.65 9.9 L8.1 11.65 4.95 14.75" fill="none" stroke="#ffffff" stroke-linecap="round" stroke-linejoin="round" stroke-opacity="0.6" stroke-width="1.0"/>
    <path d="M64.65 46.25 L64.5 46.4 60.55 49.75 Q35.4 50.8 11.95 41.1 6.25 39.05 4.2 36.1 2.1 33.15 1.15 30.3 -1.45 21.75 1.9 17.65 L2.2 17.3 Q2.95 16.45 4.05 15.8 L7.2 12.7 Q10.6 9.0 13.4 4.15 19.45 -1.15 31.55 3.1 43.05 8.1 55.0 20.45 67.4 33.3 72.3 46.1 L64.65 46.25 65.4 47.0 M64.65 46.25 L63.0 44.65 64.5 46.4 M4.05 15.8 Q5.95 14.6 8.8 14.15 L18.3 14.6 18.4 14.65 Q22.75 15.9 26.7 17.95 46.7 29.1 63.0 44.65 41.15 41.6 23.3 30.65 7.65 21.7 8.8 14.15" fill="none" stroke="#741d1d" stroke-linecap="round" stroke-linejoin="round" stroke-width="2.0"/>
    <path d="M118.3 152.05 L108.8 155.5 108.75 155.1 109.0 151.4 118.3 152.05" fill="url(#gradient3)" fill-rule="evenodd" stroke="none"/>
    <path d="M109.0 151.4 L116.3 49.85 127.2 48.65 118.3 152.05 109.0 151.4" fill="url(#gradient4)" fill-rule="evenodd" stroke="none"/>
    <path d="M47.5 52.9 L49.5 160.65 32.6 159.1 29.4 52.9 47.5 52.9" fill="url(#gradient5)" fill-rule="evenodd" stroke="none"/>
    <path d="M109.0 151.4 L116.3 49.85 127.2 48.65 118.3 152.05 108.8 155.5 M108.75 155.1 L109.0 151.4 M47.5 52.9 L49.5 160.65 32.6 159.1 29.4 52.9 47.5 52.9 Z" fill="none" stroke="#741d1d" stroke-linecap="round" stroke-linejoin="round" stroke-width="2.0"/>
    <path d="M109.75 155.3 L117.3 50.05 128.2 48.85 M29.9 54.1 L45.7 54.1 47.7 160.4" fill="none" stroke="#ffffff" stroke-linecap="round" stroke-linejoin="round" stroke-opacity="0.8" stroke-width="2.0"/>
    <path d="M108.75 155.1 L116.3 49.85 127.2 48.65 118.3 152.05 108.8 155.5 M47.5 52.9 L49.5 160.65 32.6 159.1 29.4 52.9 47.5 52.9 Z" fill="none" stroke="#741d1d" stroke-linecap="round" stroke-linejoin="round" stroke-width="2.0"/>
    <path d="M130.45 27.25 Q133.05 28.45 134.6 30.1 135.5 31.0 135.95 32.0 L136.2 32.45 Q138.35 37.25 133.65 44.85 131.6 47.1 127.6 48.95 124.15 50.3 120.95 50.4 95.55 52.65 71.2 48.25 L66.65 46.2 Q89.4 46.4 112.15 39.45 129.6 34.85 130.45 27.25" fill="url(#gradient6)" fill-rule="evenodd" stroke="none"/>
    <path d="M130.45 27.25 Q126.9 25.65 121.1 25.25 L121.0 25.25 Q116.5 25.35 112.15 26.3 89.95 31.9 66.65 46.2 L61.9 45.15 Q68.9 30.6 84.15 21.4 98.9 12.55 111.3 10.7 124.1 9.75 128.6 16.4 130.0 21.85 132.35 26.25 L134.6 30.1 Q133.05 28.45 130.45 27.25" fill="url(#gradient7)" fill-rule="evenodd" stroke="none"/>
    <path d="M134.6 30.1 L132.35 26.25 Q130.0 21.85 128.6 16.4 124.1 9.75 111.3 10.7 98.9 12.55 84.15 21.4 68.9 30.6 61.9 45.15 L66.65 46.2 Q89.95 31.9 112.15 26.3 116.5 25.35 121.0 25.25 L121.1 25.25 Q126.9 25.65 130.45 27.25 133.05 28.45 134.6 30.1 135.5 31.0 135.95 32.0 L136.2 32.45 Q138.35 37.25 133.65 44.85 131.6 47.1 127.6 48.95 124.15 50.3 120.95 50.4 95.55 52.65 71.2 48.25 L66.65 46.2 Q89.4 46.4 112.15 39.45 129.6 34.85 130.45 27.25" fill="none" stroke="#741d1d" stroke-linecap="round" stroke-linejoin="round" stroke-width="1.0"/>
    <path d="M133.8 27.5 Q132.5 26.45 130.75 25.65 127.2 24.05 121.4 23.65 L121.3 23.65 Q116.8 23.75 112.45 24.7 90.25 30.3 66.95 44.6 L71.5 46.65 Q95.85 51.05 121.25 48.8 124.45 48.7 127.9 47.35 131.9 45.5 133.95 43.25 136.4 39.25 137.0 36.05 M62.2 43.55 L66.95 44.6" fill="none" stroke="#ffffff" stroke-linecap="round" stroke-linejoin="round" stroke-opacity="0.6" stroke-width="1.0"/>
    <path d="M134.6 30.1 Q133.05 28.45 130.45 27.25 129.6 34.85 112.15 39.45 89.4 46.4 66.65 46.2 L71.2 48.25 Q95.55 52.65 120.95 50.4 124.15 50.3 127.6 48.95 131.6 47.1 133.65 44.85 138.35 37.25 136.2 32.45 L135.95 32.0 Q135.5 31.0 134.6 30.1 L132.35 26.25 Q130.0 21.85 128.6 16.4 127.15 14.3 124.9 12.95 121.05 10.7 114.95 10.6 L111.3 10.7 Q98.9 12.55 84.15 21.4 74.15 27.45 67.7 35.8 64.3 40.15 61.9 45.15 L66.65 46.2 Q89.95 31.9 112.15 26.3 116.5 25.35 121.0 25.25 L121.1 25.25 Q126.9 25.65 130.45 27.25" fill="none" stroke="#741d1d" stroke-linecap="round" stroke-linejoin="round" stroke-width="2.0"/>
    <path d="M53.6 49.8 Q51.1 48.15 56.3 39.2 62.65 35.35 74.75 40.65 76.85 43.4 75.0 49.55 L53.6 50.05 53.6 49.8" fill="url(#gradient8)" fill-rule="evenodd" stroke="none"/>
    <path d="M53.6 50.05 L75.0 49.55 Q76.85 43.4 74.75 40.65 62.65 35.35 56.3 39.2 51.1 48.15 53.6 49.8" fill="none" stroke="#741d1d" stroke-linecap="round" stroke-linejoin="round" stroke-width="2.0"/>
  </g>
  <defs>
    <linearGradient gradientTransform="matrix(0.0275, 0.0, 0.0, 0.0025, 52.7, 50.7)" gradientUnits="userSpaceOnUse" id="gradient0" spreadMethod="pad" x1="-819.2" x2="819.2">
      <stop offset="0.0392156862745098" stop-color="#cc3300"/>
      <stop offset="0.4745098039215686" stop-color="#fe9378"/>
      <stop offset="1.0" stop-color="#cc3300"/>
    </linearGradient>
    <linearGradient gradientTransform="matrix(0.0363, 0.021, -0.007, 0.0121, 29.4, 38.45)" gradientUnits="userSpaceOnUse" id="gradient1" spreadMethod="pad" x1="-819.2" x2="819.2">
      <stop offset="0.0392156862745098" stop-color="#981f01"/>
      <stop offset="0.47843137254901963" stop-color="#ec3102"/>
      <stop offset="1.0" stop-color="#981f01"/>
    </linearGradient>
    <linearGradient gradientTransform="matrix(0.0392, 0.0227, -0.0077, 0.0133, 42.5, 23.5)" gradientUnits="userSpaceOnUse" id="gradient2" spreadMethod="pad" x1="-819.2" x2="819.2">
      <stop offset="0.0392156862745098" stop-color="#cc3300"/>
      <stop offset="0.4745098039215686" stop-color="#ed7350"/>
      <stop offset="1.0" stop-color="#cc3300"/>
    </linearGradient>
    <linearGradient gradientTransform="matrix(0.0023, -0.0236, 0.0072, 7.0E-4, 118.8, 85.5)" gradientUnits="userSpaceOnUse" id="gradient3" spreadMethod="pad" x1="-819.2" x2="819.2">
      <stop offset="0.0392156862745098" stop-color="#bd7e00"/>
      <stop offset="0.4745098039215686" stop-color="#ffff00"/>
      <stop offset="1.0" stop-color="#a87800"/>
    </linearGradient>
    <linearGradient gradientTransform="matrix(0.0061, -0.0632, 0.0072, 7.0E-4, 117.45, 99.95)" gradientUnits="userSpaceOnUse" id="gradient4" spreadMethod="pad" x1="-819.2" x2="819.2">
      <stop offset="0.0392156862745098" stop-color="#cc3300"/>
      <stop offset="0.41568627450980394" stop-color="#ef7856"/>
      <stop offset="1.0" stop-color="#cc3300"/>
    </linearGradient>
    <linearGradient gradientTransform="matrix(-0.0017, -0.0426, 0.011, -4.0E-4, 40.4, 102.15)" gradientUnits="userSpaceOnUse" id="gradient5" spreadMethod="pad" x1="-819.2" x2="819.2">
      <stop offset="0.0392156862745098" stop-color="#cc3300"/>
      <stop offset="0.41568627450980394" stop-color="#ef7856"/>
      <stop offset="1.0" stop-color="#cc3300"/>
    </linearGradient>
    <linearGradient gradientTransform="matrix(-0.0418, 0.0112, -0.0032, -0.012, 103.1, 45.2)" gradientUnits="userSpaceOnUse" id="gradient6" spreadMethod="pad" x1="-819.2" x2="819.2">
      <stop offset="0.0392156862745098" stop-color="#981f01"/>
      <stop offset="0.47843137254901963" stop-color="#ec3102"/>
      <stop offset="1.0" stop-color="#981f01"/>
    </linearGradient>
    <linearGradient gradientTransform="matrix(-0.0437, 0.0117, -0.004, -0.0148, 95.6, 27.55)" gradientUnits="userSpaceOnUse" id="gradient7" spreadMethod="pad" x1="-819.2" x2="819.2">
      <stop offset="0.0392156862745098" stop-color="#cc3300"/>
      <stop offset="0.4745098039215686" stop-color="#ed7350"/>
      <stop offset="1.0" stop-color="#cc3300"/>
    </linearGradient>
    <linearGradient gradientTransform="matrix(0.0, -0.0076, 0.0141, 0.0, 64.3, 43.85)" gradientUnits="userSpaceOnUse" id="gradient8" spreadMethod="pad" x1="-819.2" x2="819.2">
      <stop offset="0.0392156862745098" stop-color="#cc3300"/>
      <stop offset="0.4745098039215686" stop-color="#fe9378"/>
      <stop offset="1.0" stop-color="#cc3300"/>
    </linearGradient>
  </defs>
</svg>
