<?xml version="1.0" encoding="UTF-8" standalone="no"?>
<svg xmlns:ffdec="https://www.free-decompiler.com/flash" xmlns:xlink="http://www.w3.org/1999/xlink" ffdec:objectType="shape" height="89.7px" width="61.75px" xmlns="http://www.w3.org/2000/svg">
  <g transform="matrix(1.0, 0.0, 0.0, 1.0, 33.85, 59.7)">
    <path d="M25.55 2.2 Q32.0 25.65 9.4 28.55 -13.2 31.45 -26.2 19.1 -39.25 6.75 -27.05 -7.55 -14.85 -21.85 -1.45 -46.5 11.95 -71.2 15.5 -46.2 19.05 -21.25 25.55 2.2" fill="#dfd1a4" fill-rule="evenodd" stroke="none"/>
    <path d="M25.55 2.2 Q19.05 -21.25 15.5 -46.2 11.95 -71.2 -1.45 -46.5 -14.85 -21.85 -27.05 -7.55 -39.25 6.75 -26.2 19.1 -13.2 31.45 9.4 28.55 32.0 25.65 25.55 2.2 Z" fill="none" stroke="#323232" stroke-linecap="round" stroke-linejoin="round" stroke-width="1.8"/>
    <path d="M16.1 -15.5 Q20.7 -3.05 7.95 -2.25 -4.8 -1.5 -12.1 -7.9 -19.45 -14.3 -13.15 -19.3 -6.85 -24.35 1.3 -41.55 9.4 -58.75 10.45 -43.35 11.45 -27.95 16.1 -15.5" fill="#e4ddb1" fill-rule="evenodd" stroke="none"/>
    <path d="M16.8 -32.8 Q8.8 -32.0 0.2 -34.25 -3.15 -35.15 -6.15 -36.35 L-0.65 -46.1 Q5.7 -57.8 9.5 -57.9 13.05 -57.7 14.7 -46.05 L16.8 -32.8" fill="#dfd1a4" fill-rule="evenodd" stroke="none"/>
  </g>
</svg>
