<?xml version="1.0" encoding="UTF-8" standalone="no"?>
<svg xmlns:ffdec="https://www.free-decompiler.com/flash" xmlns:xlink="http://www.w3.org/1999/xlink" ffdec:objectType="shape" height="42.3px" width="119.5px" xmlns="http://www.w3.org/2000/svg">
  <g transform="matrix(1.0, 0.0, 0.0, 1.0, 59.7, 21.15)">
    <path d="M3.45 15.25 L1.9 12.9 Q0.1 9.85 -1.95 5.8 -3.05 10.9 -4.75 14.4 -8.0 21.15 -14.0 21.15 -17.95 21.15 -20.05 15.75 L-21.5 11.5 Q-22.3 9.15 -23.0 8.35 -24.25 11.05 -25.85 13.05 -28.9 16.9 -33.4 16.9 -36.55 16.9 -38.3 13.05 -39.6 10.3 -39.6 7.9 L-42.45 10.2 Q-45.2 12.15 -47.35 12.15 -49.2 12.15 -49.8 11.0 -50.1 10.45 -50.1 9.3 -50.1 3.95 -49.35 0.5 -50.6 0.5 -53.25 1.55 -55.9 2.6 -57.1 2.6 -59.7 2.6 -59.7 -0.85 L-59.15 -3.65 Q-58.65 -5.8 -58.65 -6.45 -58.65 -7.05 -59.25 -7.7 -59.85 -8.35 -59.3 -11.05 -58.8 -13.8 -57.3 -14.65 L-55.6 -15.55 -55.6 -15.65 Q-54.95 -16.35 -53.5 -16.5 L-52.4 -16.65 -41.5 -16.35 -32.4 -16.1 Q-31.95 -15.75 -32.1 -15.25 -30.3 -15.25 -29.3 -13.1 -26.35 -13.35 -24.95 -11.75 -23.6 -10.2 -23.25 -10.2 -23.1 -10.2 -22.1 -11.05 -21.15 -11.9 -20.35 -11.9 -18.9 -11.9 -17.7 -10.95 L-16.1 -9.4 Q-15.55 -9.75 -14.9 -10.6 -14.05 -11.2 -11.5 -11.2 -10.65 -11.2 -9.8 -10.45 -8.95 -9.75 -7.9 -9.75 -7.25 -9.75 -6.6 -11.05 -5.95 -12.35 -3.4 -12.35 -2.8 -12.35 -1.3 -11.4 0.2 -10.5 0.75 -10.5 L2.0 -11.55 Q3.4 -12.6 4.4 -12.6 6.75 -12.6 9.0 -13.25 L11.7 -13.95 Q13.7 -13.95 14.95 -13.4 L16.65 -12.1 16.9 -12.7 Q16.95 -15.85 19.2 -16.95 L19.7 -17.15 Q19.55 -17.55 19.55 -18.0 19.55 -19.75 37.9 -20.85 55.95 -21.95 56.25 -18.95 56.9 -18.45 57.5 -18.25 59.8 -17.5 59.8 -16.0 59.8 -15.0 58.95 -14.3 57.9 -13.45 56.05 -13.85 L57.65 -10.65 Q58.9 -8.25 58.9 -7.45 58.5 -4.65 56.4 -4.5 L56.15 -4.5 Q54.65 -4.5 53.8 -5.15 53.25 -5.6 53.1 -6.2 L52.1 -6.85 Q48.35 -9.3 46.5 -9.4 46.15 -5.15 46.15 -3.9 46.1 -0.3 45.6 3.2 44.55 10.1 42.15 10.1 40.35 10.1 36.1 5.7 L31.05 0.4 31.0 0.85 32.05 5.45 Q32.8 9.05 32.75 11.55 32.55 19.05 25.2 19.05 21.95 19.05 18.65 14.05 L14.75 6.8 14.65 7.05 Q14.05 11.4 13.35 14.0 12.15 18.85 9.0 18.85 7.6 18.85 6.2 17.95 13.8 17.5 10.7 8.75 -5.2 -11.7 1.6 8.2 L3.45 15.25 M13.3 -3.8 L13.0 -2.35 18.9 5.35 20.4 13.45 24.05 16.2 Q34.25 16.3 28.7 1.05 L27.1 2.75 24.6 3.4 13.3 -3.8 M17.0 -11.35 Q17.0 -10.65 21.15 -6.35 L26.75 -0.75 27.45 -1.5 Q27.45 -2.3 23.6 -6.7 19.4 -11.5 17.15 -11.9 17.0 -12.0 17.0 -11.35 M37.55 -20.15 L30.0 -19.95 Q25.95 -19.95 24.95 -19.1 L24.9 -18.9 25.8 -18.6 28.65 -18.4 35.95 -18.75 Q36.65 -18.85 38.15 -19.65 L37.55 -20.15 M35.7 -13.45 L39.0 -12.95 41.9 -12.5 Q42.8 -12.5 43.3 -12.85 L43.35 -12.75 43.4 -13.15 Q43.4 -14.45 33.15 -15.45 22.9 -16.5 22.9 -15.65 22.9 -15.0 27.0 -13.95 L33.65 -12.95 34.7 -13.2 35.7 -13.45 M40.45 -7.0 L39.4 -7.35 38.75 -6.75 38.75 -5.65 38.3 -8.75 36.75 -9.0 35.4 -7.55 22.2 -12.55 34.35 1.8 35.85 1.65 40.2 6.4 Q45.85 5.05 42.95 -8.65 L40.45 -7.0 M47.05 -13.45 L47.0 -12.4 47.2 -10.75 49.15 -10.9 Q49.7 -10.9 55.25 -5.85 L56.2 -7.35 56.55 -8.4 Q56.55 -11.65 53.05 -13.25 50.75 -14.35 48.45 -14.35 47.35 -14.35 47.05 -13.45 M12.05 4.5 Q12.05 2.15 -2.75 -11.9 L-3.2 -11.8 -3.35 -11.35 3.05 -4.9 Q9.7 1.75 10.8 5.3 L11.4 5.4 12.05 4.5 M-47.6 -12.6 L-52.55 -11.25 Q-56.75 -9.9 -56.75 -9.6 -56.75 -9.0 -56.1 -8.85 L-52.35 -8.65 Q-52.05 -8.65 -50.85 -9.5 L-51.6 -10.35 Q-50.8 -10.95 -46.9 -11.75 L-40.85 -12.6 Q-40.0 -12.6 -39.6 -13.0 -39.9 -14.0 -42.95 -13.5 L-47.6 -12.6 M-52.5 -14.7 L-40.85 -14.35 Q-39.05 -14.35 -38.6 -14.7 L-39.3 -15.5 -45.4 -15.85 -52.9 -16.5 -54.0 -15.85 Q-53.4 -14.85 -52.5 -14.7 M-53.8 -6.75 L-56.3 -5.6 Q-59.6 -0.8 -56.75 0.2 L-51.7 -3.75 -38.2 -9.35 -53.8 -6.75 M-49.75 -1.65 Q-47.55 -1.65 -42.45 -4.0 -37.6 -6.25 -37.6 -6.8 -37.6 -8.3 -43.45 -5.9 -47.0 -4.45 -50.45 -2.6 L-50.25 -2.0 Q-50.1 -1.65 -49.75 -1.65 M-25.75 -5.0 Q-27.6 -4.25 -31.5 -1.35 -35.3 1.4 -37.1 3.25 L-36.7 3.95 Q-36.5 4.4 -35.65 4.4 -35.0 4.4 -30.3 0.0 L-25.7 -4.45 -25.75 -5.0 M-14.35 -3.6 L-14.85 -3.65 -14.3 -4.7 -13.9 -5.75 Q-13.9 -6.85 -14.5 -7.0 -15.35 -5.25 -18.95 0.1 -21.35 3.65 -21.35 5.65 L-21.25 6.15 Q-21.3 6.4 -20.65 6.4 L-14.1 -3.15 Q-14.1 -3.55 -14.35 -3.6 M-32.1 14.55 L-31.45 15.25 -29.15 14.8 -26.0 9.5 -23.45 -2.9 -38.1 9.95 Q-37.4 14.1 -32.1 14.55 M-30.9 -4.7 Q-39.65 -4.95 -44.45 -2.35 -48.65 -0.05 -49.2 4.95 -49.5 8.05 -46.95 8.9 -42.1 10.4 -40.4 4.2 L-30.9 -4.7 M-8.9 -0.25 L-10.0 -0.85 -11.5 4.8 -16.6 14.65 -13.7 17.55 Q-3.0 14.7 -8.9 -0.25" fill="#c24dc4" fill-rule="evenodd" stroke="none"/>
    <path d="M3.45 15.25 L1.6 8.2 Q-5.2 -11.7 10.7 8.75 13.8 17.5 6.2 17.95 L5.65 18.1 3.45 15.25 M13.3 -3.8 L24.6 3.4 27.1 2.75 28.7 1.05 Q34.25 16.3 24.05 16.2 L20.4 13.45 18.9 5.35 13.0 -2.35 13.3 -3.8 M40.45 -7.0 L42.95 -8.65 Q45.85 5.05 40.2 6.4 L35.85 1.65 34.35 1.8 22.2 -12.55 35.4 -7.55 36.75 -9.0 38.3 -8.75 38.75 -5.65 38.75 -6.75 39.4 -7.35 40.45 -7.0 M47.05 -13.45 Q47.35 -14.35 48.45 -14.35 50.75 -14.35 53.05 -13.25 56.55 -11.65 56.55 -8.4 L56.2 -7.35 55.25 -5.85 Q49.7 -10.9 49.15 -10.9 L47.2 -10.75 47.0 -12.4 47.05 -13.45 M-53.8 -6.75 L-38.2 -9.35 -51.7 -3.75 -56.75 0.2 Q-59.6 -0.8 -56.3 -5.6 L-53.8 -6.75 M-8.9 -0.25 Q-3.0 14.7 -13.7 17.55 L-16.6 14.65 -11.5 4.8 -10.0 -0.85 -8.9 -0.25 M-30.9 -4.7 L-40.4 4.2 Q-42.1 10.4 -46.95 8.9 -49.5 8.05 -49.2 4.95 -48.65 -0.05 -44.45 -2.35 -39.65 -4.95 -30.9 -4.7 M-32.1 14.55 Q-37.4 14.1 -38.1 9.95 L-23.45 -2.9 -26.0 9.5 -29.15 14.8 -31.45 15.25 -32.1 14.55" fill="#993399" fill-rule="evenodd" stroke="none"/>
    <path d="M35.7 -13.45 L34.7 -13.2 33.65 -12.95 27.0 -13.95 Q22.9 -15.0 22.9 -15.65 22.9 -16.5 33.15 -15.45 43.4 -14.45 43.4 -13.15 L43.35 -12.75 43.3 -12.85 Q42.8 -12.5 41.9 -12.5 L39.0 -12.95 35.7 -13.45 M37.55 -20.15 L38.15 -19.65 Q36.65 -18.85 35.95 -18.75 L28.65 -18.4 25.8 -18.6 24.9 -18.9 24.95 -19.1 Q25.95 -19.95 30.0 -19.95 L37.55 -20.15 M17.0 -11.35 Q17.0 -12.0 17.15 -11.9 19.4 -11.5 23.6 -6.7 27.45 -2.3 27.45 -1.5 L26.75 -0.75 21.15 -6.35 Q17.0 -10.65 17.0 -11.35 M-52.5 -14.7 Q-53.4 -14.85 -54.0 -15.85 L-52.9 -16.5 -45.4 -15.85 -39.3 -15.5 -38.6 -14.7 Q-39.05 -14.35 -40.85 -14.35 L-52.5 -14.7 M-47.6 -12.6 L-42.95 -13.5 Q-39.9 -14.0 -39.6 -13.0 -40.0 -12.6 -40.85 -12.6 L-46.9 -11.75 Q-50.8 -10.95 -51.6 -10.35 L-50.85 -9.5 Q-52.05 -8.65 -52.35 -8.65 L-56.1 -8.85 Q-56.75 -9.0 -56.75 -9.6 -56.75 -9.9 -52.55 -11.25 L-47.6 -12.6 M12.05 4.5 L11.4 5.4 10.8 5.3 Q9.7 1.75 3.05 -4.9 L-3.35 -11.35 -3.2 -11.8 -2.75 -11.9 Q12.05 2.15 12.05 4.5 M-14.35 -3.6 Q-14.1 -3.55 -14.1 -3.15 L-20.65 6.4 Q-21.3 6.4 -21.25 6.15 L-21.35 5.65 Q-21.35 3.65 -18.95 0.1 -15.35 -5.25 -14.5 -7.0 -13.9 -6.85 -13.9 -5.75 L-14.3 -4.7 -14.85 -3.65 -14.35 -3.6 M-25.75 -5.0 L-25.7 -4.45 -30.3 0.0 Q-35.0 4.4 -35.65 4.4 -36.5 4.4 -36.7 3.95 L-37.1 3.25 Q-35.3 1.4 -31.5 -1.35 -27.6 -4.25 -25.75 -5.0 M-49.75 -1.65 Q-50.1 -1.65 -50.25 -2.0 L-50.45 -2.6 Q-47.0 -4.45 -43.45 -5.9 -37.6 -8.3 -37.6 -6.8 -37.6 -6.25 -42.45 -4.0 -47.55 -1.65 -49.75 -1.65" fill="#e2ace3" fill-rule="evenodd" stroke="none"/>
    <path d="M-28.9 9.95 Q-26.65 6.85 -26.0 6.85 L-25.5 7.0 -25.3 7.15 -25.25 8.0 Q-26.1 8.35 -28.2 11.25 -30.1 13.85 -31.5 13.85 L-32.55 14.1 -33.6 14.3 Q-36.55 14.3 -38.25 9.9 -39.35 7.0 -39.35 5.15 L-39.2 4.75 -39.05 4.75 Q-38.7 5.1 -37.05 9.55 -35.75 13.0 -33.8 13.0 -31.15 13.0 -28.9 9.95 M-9.95 12.05 Q-8.15 9.3 -6.3 9.3 L-5.75 9.45 -5.55 9.6 -5.5 10.2 Q-5.5 10.8 -5.65 10.75 -7.15 10.75 -9.05 13.45 -10.95 16.15 -12.8 16.15 -16.5 16.15 -18.2 12.0 -20.55 6.45 -22.75 4.75 L-22.6 4.55 Q-20.35 4.0 -17.3 9.3 -14.2 14.8 -12.6 14.8 -11.8 14.8 -9.95 12.05 M-50.6 -0.35 Q-50.45 -2.85 -50.05 -3.35 -49.4 -3.1 -49.3 -2.1 -49.25 -1.6 -49.35 -1.0 -49.5 1.15 -49.25 3.2 -48.7 7.35 -46.6 7.35 L-45.0 6.1 -43.25 4.8 -42.25 5.0 -42.25 5.4 -44.35 7.1 Q-46.1 8.65 -47.25 8.65 -48.7 8.65 -49.85 5.8 -50.75 3.6 -50.75 2.4 L-50.6 -0.35 M-57.1 -11.15 L-56.5 -11.9 -56.25 -11.9 -56.25 -11.75 Q-56.55 -11.25 -57.05 -11.0 L-57.1 -11.15 M-54.8 -7.5 Q-54.25 -7.3 -54.25 -6.3 -54.25 -5.85 -55.45 -4.35 L-56.65 -2.85 -56.55 -1.5 -54.65 -1.4 -53.9 -1.35 -53.0 -1.6 -52.05 -1.85 Q-51.25 -1.85 -51.25 -1.2 L-51.3 -0.8 -51.4 -0.55 -51.85 -0.5 -54.65 -0.1 Q-57.1 -0.1 -57.7 -0.75 -57.9 -1.0 -57.9 -1.9 -57.9 -3.55 -57.05 -4.4 -55.6 -5.8 -54.8 -7.5 M11.9 8.9 L12.3 9.3 11.5 13.65 Q10.55 16.65 8.25 16.65 5.55 16.65 0.7 11.1 L-4.6 4.8 -4.35 4.4 Q-2.45 5.15 1.85 10.5 5.7 15.25 8.6 15.25 9.25 15.25 10.35 12.45 L11.9 8.9 M30.3 7.15 Q30.3 9.25 29.25 11.35 27.35 15.05 22.95 15.05 20.5 15.05 17.5 12.1 L14.5 8.55 14.75 8.35 Q15.5 8.7 17.95 11.3 20.7 13.75 23.65 13.75 27.65 13.75 28.7 10.65 L29.75 6.15 Q30.3 6.35 30.3 7.15 M52.75 -14.25 Q52.75 -14.85 53.05 -15.25 53.85 -14.8 54.95 -12.55 L55.9 -10.15 Q56.05 -7.65 55.0 -7.65 53.5 -7.65 51.6 -8.4 L48.75 -9.15 Q47.85 -9.15 47.25 -6.9 L46.25 -2.0 Q44.75 5.1 41.25 5.1 39.8 5.1 37.15 3.25 34.75 1.6 34.75 1.25 L34.85 0.8 35.25 0.75 Q35.65 0.85 37.9 2.4 39.9 3.8 41.25 3.8 42.45 3.8 43.45 1.95 44.25 0.45 44.25 -0.5 44.75 -3.0 45.6 -5.4 47.2 -10.25 48.75 -10.25 49.65 -10.25 51.1 -9.65 52.65 -9.0 54.75 -8.9 L54.8 -9.5 53.8 -12.1 52.75 -14.25" fill="#c24dc4" fill-rule="evenodd" stroke="none"/>
    <path d="M-38.55 7.85 L-40.35 4.75 Q-41.0 5.0 -42.3 6.85 -43.5 8.5 -44.35 8.5 -45.8 8.5 -47.6 6.0 -49.15 3.8 -49.15 3.0 -49.15 2.4 -48.9 2.6 -48.25 2.9 -46.55 5.1 -45.05 7.05 -44.4 7.05 L-43.0 5.25 Q-41.55 3.4 -40.65 3.4 -39.6 3.4 -38.1 6.3 -36.75 8.95 -36.75 9.8 -36.75 10.9 -37.35 11.4 L-37.75 11.1 Q-37.55 9.8 -38.55 7.85 M-19.6 12.5 Q-19.6 13.1 -20.25 13.75 L-20.75 13.55 -20.75 13.0 Q-20.75 12.3 -21.8 9.4 -23.05 6.05 -23.95 6.05 -25.25 6.05 -26.7 8.45 -28.1 10.8 -28.55 10.8 -28.95 10.8 -29.05 10.6 L-29.15 10.25 Q-25.8 2.35 -22.4 5.75 -19.6 8.65 -19.6 12.5 M-58.3 -8.4 L-58.0 -6.85 -57.75 -4.9 -57.9 -0.65 -57.5 -0.6 -56.45 -1.55 Q-55.85 -2.25 -54.55 -2.25 -53.55 -2.25 -53.0 -1.5 -52.5 -0.9 -52.5 -0.2 L-52.6 0.8 -52.75 1.05 -53.25 1.1 Q-53.85 1.1 -54.25 0.5 -53.85 -0.55 -54.1 -0.8 L-55.3 -0.8 -56.15 0.0 Q-57.05 0.65 -57.85 0.65 -58.9 0.65 -59.15 -0.05 L-59.25 -1.05 Q-59.25 -5.55 -58.3 -8.4 M0.4 9.65 L0.3 10.55 -0.25 10.6 -0.6 10.6 -0.7 10.6 -0.8 10.15 Q-0.8 9.85 -1.25 9.2 -1.85 8.35 -2.6 8.25 L-4.5 13.2 Q-6.4 17.05 -8.9 17.05 -9.55 17.05 -9.25 16.9 L-9.35 16.55 Q-7.55 14.7 -6.45 12.85 L-4.8 9.9 Q-4.6 9.6 -4.15 8.1 -3.85 7.1 -3.05 6.5 -2.6 6.35 -1.1 7.7 0.4 9.05 0.4 9.65 M14.9 7.4 L14.45 8.0 Q14.3 8.3 13.75 8.5 L13.3 8.0 Q14.15 5.2 16.2 6.7 18.15 8.15 18.15 9.85 L18.0 10.75 17.15 10.75 16.2 9.1 14.9 7.4 M30.5 5.65 Q31.05 6.15 31.1 8.65 30.85 11.25 30.05 13.6 28.55 18.25 26.0 18.25 21.6 18.25 19.3 15.15 17.55 11.8 16.5 11.25 L16.8 10.85 19.45 14.0 Q22.35 16.85 25.5 16.85 27.4 16.85 28.8 12.25 L30.5 5.65 M43.55 4.0 Q42.5 7.25 40.65 7.25 39.95 7.25 36.0 4.25 L32.15 1.0 Q32.15 0.35 32.4 0.55 L36.3 3.4 Q39.5 5.8 40.65 5.8 41.15 5.8 42.5 2.75 43.85 -0.35 44.3 -0.35 44.35 1.55 43.55 4.0 M52.0 -15.05 L52.65 -15.85 53.5 -14.7 53.85 -13.55 53.85 -11.85 Q53.6 -10.25 52.55 -10.25 50.15 -10.25 49.0 -11.8 L50.85 -11.8 52.5 -11.65 52.55 -13.5 52.3 -14.25 52.0 -15.05" fill="#993399" fill-rule="evenodd" stroke="none"/>
    <path d="M-19.0 8.35 Q-17.65 10.5 -17.65 12.3 L-17.75 12.8 -18.05 13.0 -20.45 8.45 Q-22.5 5.0 -25.0 5.0 L-26.2 7.4 Q-27.35 9.75 -30.4 9.75 -32.3 9.75 -33.6 8.75 -34.75 7.9 -34.75 7.05 L-34.65 6.65 -34.25 6.6 -33.1 7.6 Q-31.75 8.5 -30.25 8.5 -27.75 8.5 -26.4 5.2 -25.45 2.75 -22.35 4.85 -20.35 6.25 -19.0 8.35 M-46.85 -1.8 Q-46.85 -2.5 -46.65 -2.6 -45.6 -1.4 -45.4 1.1 L-45.0 5.25 Q-44.05 4.95 -42.45 3.65 L-41.0 2.4 Q-40.45 2.4 -39.1 4.0 -37.8 5.55 -37.8 6.1 L-37.9 6.6 -38.35 6.8 -39.5 5.4 Q-40.45 4.1 -40.75 3.9 L-42.75 5.6 Q-44.2 6.55 -44.95 6.55 -46.5 6.55 -46.85 -1.8 M-55.75 -4.65 L-55.7 -5.0 -55.5 -5.1 -54.8 -4.2 -54.55 -3.5 -53.85 -3.9 Q-53.4 -4.3 -52.9 -4.3 L-51.75 -3.6 Q-50.9 -2.85 -50.9 -2.35 -50.9 -0.9 -51.6 -0.15 L-51.9 -0.25 -52.1 -1.7 Q-52.2 -2.5 -53.05 -3.05 L-53.5 -2.5 Q-53.95 -2.05 -54.5 -2.05 -55.35 -2.05 -55.6 -2.95 L-55.75 -4.65 M1.1 9.15 L0.55 9.15 Q-0.5 5.5 -3.9 3.35 L-6.0 9.5 Q-7.6 13.65 -9.75 13.65 -10.6 13.65 -11.0 13.25 L-10.9 13.0 Q-9.25 12.25 -7.65 9.2 L-5.35 4.15 Q-4.1 1.75 -2.8 2.25 -1.2 2.8 1.1 7.8 L1.1 9.15 M14.6 5.25 L14.55 5.35 Q14.0 6.9 13.45 10.05 12.65 12.75 10.15 14.55 L9.75 14.25 Q11.8 12.45 12.35 9.0 12.9 5.4 14.5 3.85 L17.95 7.85 Q20.15 10.8 20.15 11.25 L20.0 11.9 19.55 12.25 19.0 12.05 Q18.55 10.15 17.45 8.55 L14.6 5.25 M47.35 -12.65 L47.4 -12.5 47.35 -11.25 Q47.35 -8.25 46.7 -4.75 45.9 -0.15 44.5 0.75 L44.05 0.65 43.9 0.5 Q45.55 -5.2 45.9 -8.0 L46.25 -12.25 Q46.35 -14.25 48.2 -14.1 50.05 -13.95 50.05 -12.65 L49.95 -12.25 49.4 -11.75 48.8 -12.45 Q48.45 -12.85 47.75 -12.85 47.35 -12.85 47.35 -12.65 M29.9 -0.55 Q31.35 -3.4 34.45 -0.6 37.35 2.0 37.35 3.5 L37.25 4.05 36.85 4.3 34.7 1.35 Q33.35 -0.35 31.35 -0.9 30.9 0.3 30.6 4.3 30.35 7.4 28.9 9.05 L28.65 8.75 29.05 7.95 29.25 7.15 28.85 3.55 Q28.75 1.55 29.9 -0.55" fill="#e2ace3" fill-rule="evenodd" stroke="none"/>
  </g>
</svg>
