<?xml version="1.0" encoding="UTF-8" standalone="no"?>
<svg xmlns:ffdec="https://www.free-decompiler.com/flash" xmlns:xlink="http://www.w3.org/1999/xlink" ffdec:objectType="shape" height="66.5px" width="68.95px" xmlns="http://www.w3.org/2000/svg">
  <g transform="matrix(1.0, 0.0, 0.0, 1.0, 34.45, 33.25)">
    <path d="M-25.3 -20.35 L-23.2 -22.55 Q-20.25 -25.35 -16.45 -27.45 -4.65 -34.0 8.5 -30.6 21.65 -27.2 28.45 -15.8 35.35 -4.45 31.8 8.25 L31.1 10.45 Q27.2 21.45 16.45 27.45 4.6 34.0 -8.55 30.6 -21.7 27.2 -28.55 15.8 -35.3 4.4 -31.75 -8.2 -30.55 -12.65 -28.25 -16.3 L-27.2 -17.95 -26.05 -19.45 -25.65 -19.95 -25.3 -20.35" fill="#010101" fill-opacity="0.0" fill-rule="evenodd" stroke="none"/>
    <path d="M-25.3 -20.35 L-23.2 -22.55 Q-20.25 -25.35 -16.45 -27.45 -4.65 -34.0 8.5 -30.6 21.65 -27.2 28.45 -15.8 35.35 -4.45 31.8 8.25 L31.1 10.45 Q27.2 21.45 16.45 27.45 4.6 34.0 -8.55 30.6 -21.7 27.2 -28.55 15.8 -35.3 4.4 -31.75 -8.2 -30.55 -12.65 -28.25 -16.3 L-27.2 -17.95 -26.05 -19.45 -25.3 -20.35 Z" fill="none" stroke="#010101" stroke-linecap="round" stroke-linejoin="round" stroke-opacity="0.0" stroke-width="3.0"/>
  </g>
</svg>
