<?xml version="1.0" encoding="UTF-8" standalone="no"?>
<svg xmlns:ffdec="https://www.free-decompiler.com/flash" xmlns:xlink="http://www.w3.org/1999/xlink" ffdec:objectType="shape" height="55.35px" width="76.8px" xmlns="http://www.w3.org/2000/svg">
  <g transform="matrix(1.0, 0.0, 0.0, 1.0, 3.3, 1.2)">
    <path d="M65.5 15.9 L62.55 15.2 60.0 14.8 58.55 14.55 56.4 14.55 Q61.15 15.95 65.75 18.8 L68.0 20.3 68.6 20.6 Q69.1 19.85 69.1 19.3 L69.1 18.25 Q69.05 17.0 65.5 15.9 M3.7 15.65 L7.95 14.55 12.25 14.55 Q23.95 10.8 41.1 13.55 48.9 12.35 56.4 14.55 L45.9 14.55 M67.8 21.7 L68.4 20.8 68.6 20.6 Q68.9 20.7 69.1 20.9 L69.9 21.5 Q71.75 23.2 72.0 26.3 71.95 29.0 70.4 29.55 L69.3 29.7 Q69.45 31.0 69.05 32.3 68.65 33.55 67.6 34.75 66.2 36.15 64.7 36.75 L62.15 37.15 61.3 37.1 Q60.1 39.0 58.1 39.95 L56.75 40.35 51.4 40.65 50.15 40.05 49.95 39.85 49.8 40.1 49.5 40.45 Q48.2 41.95 45.15 42.4 42.45 42.7 39.65 41.35 L39.4 41.2 38.95 40.95 38.55 41.25 Q38.45 41.3 38.3 41.4 35.0 43.5 30.75 42.95 27.3 42.3 25.75 41.25 L25.3 40.9 24.95 40.55 24.4 40.8 24.1 40.95 Q21.1 42.0 16.85 41.0 13.35 40.45 11.25 38.6 L10.45 37.75 10.4 37.75 10.4 37.7 10.25 37.65 9.95 37.65 9.35 37.55 8.5 37.4 Q5.9 36.9 4.2 35.75 2.75 34.8 1.95 33.45 L1.85 33.35 Q1.3 32.45 1.05 31.35 L0.0 30.95 -0.4 30.7 Q-1.45 29.85 -1.65 28.1 -1.95 26.75 -1.65 25.8 -1.35 24.75 -0.45 24.1 L-0.8 23.5 Q-1.55 22.15 -0.15 20.75 L0.6 20.05 0.75 19.9 1.25 19.45 0.75 18.6 0.75 18.3 Q0.8 16.95 2.3 16.05 L3.7 15.65 M3.35 18.4 L4.6 18.15 Q8.1 15.9 12.25 14.55 L22.0 14.55 M3.35 18.4 Q2.25 18.65 1.25 19.45 L1.9 21.2 Q2.1 22.35 2.9 23.05 L3.75 23.85" fill="none" stroke="#005f00" stroke-linecap="round" stroke-linejoin="round" stroke-width="3.0"/>
    <path d="M65.75 18.8 L65.75 18.5 65.75 18.25 65.5 15.9 Q64.15 10.15 56.6 5.95 47.45 0.8 34.55 0.8 21.6 0.8 12.45 5.95 5.1 10.05 3.7 15.65 3.35 16.95 3.35 18.25 L3.35 18.4 3.35 18.5 Q3.5 22.2 11.45 24.9 L12.45 25.25 Q21.6 28.1 34.55 28.1 47.45 28.1 56.6 25.25 L57.65 24.9 56.6 24.6 Q47.45 21.7 34.55 21.7 21.6 21.7 12.45 24.6 L11.45 24.9 Q8.85 25.8 7.15 26.8 3.35 28.9 3.35 31.5 L3.35 31.6 Q3.35 32.4 3.75 33.15 5.0 35.65 10.25 37.65 L10.4 37.75 M64.7 36.75 L63.9 40.1 62.65 44.0 62.6 44.05 62.6 44.1 Q61.8 47.3 54.4 49.55 46.2 52.15 34.55 52.15 22.85 52.15 14.65 49.55 7.3 47.3 6.55 44.1 L6.55 44.05 4.9 38.7 4.2 35.75 3.75 33.15 M49.8 40.1 L39.4 41.2 38.55 41.25 34.55 41.3 25.3 40.9 24.4 40.8 Q17.8 40.1 12.45 38.45 L11.7 38.2 10.45 37.75 M50.15 40.05 L56.6 38.45 57.4 38.2 Q64.4 35.8 65.55 32.7 L65.7 32.1 65.75 31.6 65.75 31.5 Q65.75 28.9 61.95 26.8 60.2 25.8 57.65 24.9 65.25 22.3 65.75 18.8 M49.8 40.1 L50.15 40.05 M64.7 36.75 L65.55 32.7" fill="none" stroke="#873b00" stroke-linecap="round" stroke-linejoin="round" stroke-width="4.0"/>
    <path d="M65.55 32.7 Q64.4 35.8 57.4 38.2 L56.6 38.45 Q47.45 41.3 34.55 41.3 21.6 41.3 12.45 38.45 L11.7 38.2 Q5.15 36.0 3.75 33.15 3.35 32.4 3.35 31.6 L3.35 31.5 Q3.35 28.9 7.15 26.8 8.85 25.8 11.45 24.9 L12.45 24.6 Q21.6 21.7 34.55 21.7 47.45 21.7 56.6 24.6 L57.65 24.9 Q60.2 25.8 61.95 26.8 65.75 28.9 65.75 31.5 L65.75 31.6 65.7 32.1 65.55 32.7" fill="#b68526" fill-rule="evenodd" stroke="none"/>
    <path d="M63.9 40.1 Q62.0 41.0 59.95 40.7 58.45 43.05 55.65 43.8 50.95 45.0 49.15 43.3 48.05 45.2 44.6 45.7 41.75 46.05 38.75 44.35 35.35 46.8 31.0 46.25 26.7 45.4 25.5 43.95 22.4 45.5 17.85 44.4 13.7 43.8 11.7 41.3 7.2 40.75 4.9 38.7 4.15 35.85 3.75 33.15 5.15 36.0 11.7 38.2 L12.45 38.45 Q21.6 41.3 34.55 41.3 47.45 41.3 56.6 38.45 L57.4 38.2 Q64.4 35.8 65.55 32.7 L63.9 40.1" fill="url(#gradient0)" fill-rule="evenodd" stroke="none"/>
    <path d="M4.9 38.7 Q7.2 40.75 11.7 41.3 13.7 43.8 17.85 44.4 22.4 45.5 25.5 43.95 26.7 45.4 31.0 46.25 35.35 46.8 38.75 44.35 41.75 46.05 44.6 45.7 48.05 45.2 49.15 43.3 50.95 45.0 55.65 43.8 58.45 43.05 59.95 40.7 62.0 41.0 63.9 40.1 L62.65 44.0 62.6 44.05 62.6 44.1 Q61.8 47.3 54.4 49.55 46.2 52.15 34.55 52.15 22.85 52.15 14.65 49.55 7.3 47.3 6.55 44.1 L6.55 44.05 4.9 38.7" fill="url(#gradient1)" fill-rule="evenodd" stroke="none"/>
    <path d="M63.9 40.1 L65.55 32.7 Q64.4 35.8 57.4 38.2 L56.6 38.45 Q47.45 41.3 34.55 41.3 21.6 41.3 12.45 38.45 L11.7 38.2 Q5.15 36.0 3.75 33.15 4.15 35.85 4.9 38.7 L6.55 44.05 6.55 44.1 Q7.3 47.3 14.65 49.55 22.85 52.15 34.55 52.15 46.2 52.15 54.4 49.55 61.8 47.3 62.6 44.1 L62.6 44.05 62.65 44.0 63.9 40.1 M3.75 33.15 Q3.35 32.4 3.35 31.6 L3.35 31.5 Q3.35 28.9 7.15 26.8 8.85 25.8 11.45 24.9 L12.45 24.6 Q21.6 21.7 34.55 21.7 47.45 21.7 56.6 24.6 L57.65 24.9 Q60.2 25.8 61.95 26.8 65.75 28.9 65.75 31.5 L65.75 31.6 65.7 32.1 65.55 32.7" fill="none" stroke="#b15700" stroke-linecap="round" stroke-linejoin="round" stroke-width="1.0"/>
    <path d="M67.7 27.45 L67.1 27.45 Q68.35 31.2 65.75 33.25 63.95 34.8 62.5 32.0 59.65 37.1 55.4 37.75 51.15 38.4 49.35 36.05 48.85 39.45 44.65 39.85 39.6 39.65 38.95 36.85 36.55 40.7 31.7 40.3 27.55 40.0 25.85 37.55 L25.55 37.0 26.75 37.4 29.85 37.8 31.75 37.65 Q34.25 37.25 36.25 35.7 L36.75 35.3 38.25 33.45 Q42.5 33.25 43.35 33.45 L44.4 33.7 46.0 34.25 48.6 34.85 48.95 34.8 Q50.25 34.55 52.05 32.45 L52.5 32.0 Q53.5 31.0 54.65 30.45 55.75 30.7 56.75 31.1 58.65 32.0 60.1 33.65 62.15 31.4 61.9 28.4 63.35 27.8 64.55 27.55 L66.8 27.05 66.95 27.0 67.8 26.35 67.95 26.0 67.95 24.7 67.8 24.05 67.8 23.95 Q67.95 23.55 68.4 23.05 69.1 22.15 69.1 21.55 L69.1 20.9 69.9 21.5 Q71.15 24.65 70.15 26.45 69.7 27.45 67.85 27.45 L67.65 27.4 67.7 27.45 M0.75 19.9 L1.45 22.7 0.65 22.8 Q-0.35 21.65 0.6 20.05 L0.75 19.9 M1.85 23.15 Q2.15 23.55 2.1 24.15 L2.6 25.0 2.9 25.25 3.75 26.1 3.75 26.5 3.75 26.55 3.75 27.65 Q3.9 28.4 4.7 28.8 L6.15 29.2 7.25 29.3 8.35 29.3 Q8.2 31.15 9.15 32.4 7.75 34.95 5.25 34.0 1.45 31.95 1.7 26.8 L1.7 26.7 1.85 25.45 Q0.05 28.2 -0.4 26.8 -0.35 24.95 1.4 23.4 L1.85 23.15 M18.95 33.55 L21.4 33.35 22.65 35.0 23.45 35.7 Q24.25 36.35 25.2 36.85 L23.4 38.1 22.95 38.35 Q20.35 39.5 16.95 38.65 11.8 37.6 10.2 34.45 10.9 32.8 11.85 31.8 L12.6 31.0 12.75 31.0 Q14.8 31.2 15.85 32.45 16.85 33.55 18.95 33.55 M33.85 34.65 Q32.5 35.45 29.6 35.5 26.7 35.55 25.3 34.55 L23.4 33.05 Q25.8 32.65 27.1 33.45 28.45 34.3 31.75 34.0 L35.55 33.65 33.85 34.65" fill="#00cc00" fill-rule="evenodd" stroke="none"/>
    <path d="M69.1 20.9 L69.1 21.55 Q69.1 22.15 68.4 23.05 67.95 23.55 67.8 23.95 L67.8 24.05 67.95 24.7 67.95 26.0 67.8 26.35 66.95 27.0 66.8 27.05 64.55 27.55 Q63.35 27.8 61.9 28.4 62.15 31.4 60.1 33.65 58.65 32.0 56.75 31.1 55.75 30.7 54.65 30.45 53.5 31.0 52.5 32.0 L52.05 32.45 Q50.25 34.55 48.95 34.8 L48.6 34.85 46.0 34.25 44.4 33.7 43.35 33.45 Q42.5 33.25 38.25 33.45 L36.75 35.3 36.25 35.7 Q34.25 37.25 31.75 37.65 L29.85 37.8 26.75 37.4 25.55 37.0 25.85 37.55 Q27.55 40.0 31.7 40.3 36.55 40.7 38.95 36.85 39.6 39.65 44.65 39.85 48.85 39.45 49.35 36.05 51.15 38.4 55.4 37.75 59.65 37.1 62.5 32.0 63.95 34.8 65.75 33.25 68.35 31.2 67.1 27.45 L67.7 27.45 Q68.95 29.05 69.05 32.3 68.65 33.55 67.6 34.75 65.1 37.25 62.15 37.15 62.8 35.9 62.45 33.85 61.3 37.1 58.1 39.95 L56.75 40.35 51.4 40.65 Q50.05 39.35 49.65 37.3 49.85 39.15 49.5 40.45 48.2 41.95 45.15 42.4 42.45 42.7 39.65 41.35 38.9 40.0 38.9 37.75 38.8 39.95 38.3 41.4 35.0 43.5 30.75 42.95 27.3 42.3 25.75 41.25 25.15 40.05 25.5 38.45 L24.1 40.95 Q21.1 42.0 16.85 41.0 13.35 40.45 11.25 38.6 10.0 36.7 9.45 34.35 L9.25 33.3 Q8.6 35.35 9.35 37.55 L8.5 37.4 Q3.75 36.45 1.95 33.45 L1.85 33.35 Q1.3 32.45 1.05 31.35 L1.85 33.3 Q0.95 29.95 1.7 26.8 1.45 31.95 5.25 34.0 7.75 34.95 9.15 32.4 8.2 31.15 8.35 29.3 L7.25 29.3 6.15 29.2 4.7 28.8 Q3.9 28.4 3.75 27.65 L3.75 26.55 3.75 26.5 3.75 26.1 2.9 25.25 2.6 25.0 2.1 24.15 Q2.15 23.55 1.85 23.15 L2.55 22.75 1.7 22.7 1.45 22.7 0.75 19.9 Q2.45 18.35 4.6 18.15 17.8 9.75 41.1 13.55 55.25 11.35 68.0 20.3 L69.1 20.9 M67.85 27.45 Q69.7 27.45 70.15 26.45 71.15 24.65 69.9 21.5 71.75 23.2 72.0 26.3 71.95 29.0 70.4 29.55 69.25 27.9 67.85 27.45 M0.6 20.05 Q-0.35 21.65 0.65 22.8 -0.35 22.95 -0.8 23.5 -1.55 22.15 -0.15 20.75 L0.6 20.05 M1.4 23.4 Q-0.35 24.95 -0.4 26.8 0.05 28.2 1.85 25.45 L1.7 26.7 Q-0.25 28.3 0.05 30.9 0.55 31.15 1.05 31.35 L0.0 30.95 -0.4 30.7 Q-1.45 29.85 -1.65 28.1 -1.95 26.75 -1.65 25.8 L1.4 23.4 M18.95 33.55 Q16.85 33.55 15.85 32.45 14.8 31.2 12.75 31.0 L12.6 31.0 11.85 31.8 Q10.9 32.8 10.2 34.45 11.8 37.6 16.95 38.65 20.35 39.5 22.95 38.35 L23.4 38.1 25.2 36.85 Q24.25 36.35 23.45 35.7 L22.65 35.0 21.4 33.35 18.95 33.55 M33.85 34.65 L35.55 33.65 31.75 34.0 Q28.45 34.3 27.1 33.45 25.8 32.65 23.4 33.05 L25.3 34.55 Q26.7 35.55 29.6 35.5 32.5 35.45 33.85 34.65" fill="#00a600" fill-rule="evenodd" stroke="none"/>
    <path d="M67.7 27.45 L67.65 27.4 67.85 27.45 Q69.25 27.9 70.4 29.55 L69.3 29.7 Q69.45 31.0 69.05 32.3 68.95 29.05 67.7 27.45 M1.45 22.7 L1.7 22.7 2.55 22.75 1.85 23.15 1.4 23.4 -1.65 25.8 Q-1.35 24.75 -0.45 24.1 L-0.8 23.5 Q-0.35 22.95 0.65 22.8 L1.45 22.7 M1.7 26.8 Q0.95 29.95 1.85 33.3 L1.05 31.35 Q0.55 31.15 0.05 30.9 -0.25 28.3 1.7 26.7 L1.7 26.8 M9.35 37.55 Q8.6 35.35 9.25 33.3 L9.45 34.35 Q10.0 36.7 11.25 38.6 L10.4 37.7 9.95 37.65 9.35 37.55 M24.1 40.95 L25.5 38.45 Q25.15 40.05 25.75 41.25 L24.95 40.55 24.1 40.95 M38.3 41.4 Q38.8 39.95 38.9 37.75 38.9 40.0 39.65 41.35 L38.95 40.95 38.3 41.4 M49.5 40.45 Q49.85 39.15 49.65 37.3 50.05 39.35 51.4 40.65 50.5 40.4 49.95 39.85 L49.5 40.45 M58.1 39.95 Q61.3 37.1 62.45 33.85 62.8 35.9 62.15 37.15 L61.3 37.1 Q60.1 39.0 58.1 39.95" fill="#007700" fill-rule="evenodd" stroke="none"/>
    <path d="M69.9 21.5 L69.1 20.9 68.0 20.3 Q55.25 11.35 41.1 13.55 17.8 9.75 4.6 18.15 2.45 18.35 0.75 19.9 L0.6 20.05 -0.15 20.75 Q-1.55 22.15 -0.8 23.5 L-0.45 24.1 Q-1.35 24.75 -1.65 25.8 -1.95 26.75 -1.65 28.1 -1.45 29.85 -0.4 30.7 L0.0 30.95 1.05 31.35 Q1.3 32.45 1.85 33.35 L1.95 33.45 Q3.75 36.45 8.5 37.4 L9.35 37.55 9.95 37.65 10.4 37.7 11.25 38.6 Q13.35 40.45 16.85 41.0 21.1 42.0 24.1 40.95 L24.95 40.55 25.75 41.25 Q27.3 42.3 30.75 42.95 35.0 43.5 38.3 41.4 L38.95 40.95 39.65 41.35 Q42.45 42.7 45.15 42.4 48.2 41.95 49.5 40.45 L49.95 39.85 Q50.5 40.4 51.4 40.65 L56.75 40.35 58.1 39.95 Q60.1 39.0 61.3 37.1 L62.15 37.15 Q65.1 37.25 67.6 34.75 68.65 33.55 69.05 32.3 69.45 31.0 69.3 29.7 L70.4 29.55 Q71.95 29.0 72.0 26.3 71.75 23.2 69.9 21.5 Z" fill="none" stroke="#007700" stroke-linecap="round" stroke-linejoin="round" stroke-width="1.0"/>
  </g>
  <defs>
    <radialGradient cx="0" cy="0" gradientTransform="matrix(0.0353, 0.0, 0.0, 0.018, 33.55, 37.2)" gradientUnits="userSpaceOnUse" id="gradient0" r="819.2" spreadMethod="pad">
      <stop offset="0.5254901960784314" stop-color="#a87f2e"/>
      <stop offset="1.0" stop-color="#956c1c"/>
    </radialGradient>
    <radialGradient cx="0" cy="0" gradientTransform="matrix(0.0353, 0.0, 0.0, 0.018, 33.55, 37.2)" gradientUnits="userSpaceOnUse" id="gradient1" r="819.2" spreadMethod="pad">
      <stop offset="0.5450980392156862" stop-color="#fcb709"/>
      <stop offset="1.0" stop-color="#cb6f00"/>
    </radialGradient>
  </defs>
</svg>
