<?xml version="1.0" encoding="UTF-8" standalone="no"?>
<svg xmlns:ffdec="https://www.free-decompiler.com/flash" xmlns:xlink="http://www.w3.org/1999/xlink" ffdec:objectType="shape" height="53.25px" width="65.55px" xmlns="http://www.w3.org/2000/svg">
  <g transform="matrix(1.0, 0.0, 0.0, 1.0, 23.85, 14.8)">
    <path d="M-23.55 -11.6 L-21.95 -11.0 Q-10.4 -7.0 -1.3 -6.75 L17.8 -7.7 Q26.45 -8.9 41.5 -14.8 43.2 13.7 32.05 27.7 20.85 41.6 6.2 37.5 -7.55 33.65 -11.85 34.15 L-12.05 34.2 -23.7 -11.5 -23.65 -11.5 -23.6 -11.55 -23.55 -11.6" fill="#33ff00" fill-rule="evenodd" stroke="none"/>
    <path d="M-23.7 -11.5 L-23.75 -11.55 -23.8 -11.6 -23.85 -11.7 -23.7 -11.65 -23.55 -11.6 -23.6 -11.55 -23.65 -11.5 -23.7 -11.5" fill="#ff0099" fill-rule="evenodd" stroke="none"/>
  </g>
</svg>
