<?xml version="1.0" encoding="UTF-8" standalone="no"?>
<svg xmlns:ffdec="https://www.free-decompiler.com/flash" xmlns:xlink="http://www.w3.org/1999/xlink" ffdec:objectType="shape" height="43.25px" width="89.9px" xmlns="http://www.w3.org/2000/svg">
  <g transform="matrix(1.0, 0.0, 0.0, 1.0, 1.7, 0.8)">
    <path d="M84.9 14.0 L85.55 15.55 Q86.65 18.65 85.4 21.6 74.3 24.75 66.1 16.5 65.2 22.0 60.1 23.55 49.95 26.6 43.2 18.05 L41.35 19.75 Q29.05 30.95 14.3 20.25 12.6 22.1 10.45 23.05 8.25 24.15 4.0 23.7 0.35 17.0 1.5 10.0 6.3 11.9 11.25 13.2 15.6 14.35 18.85 11.65 22.15 14.8 30.1 15.35 39.05 15.9 45.05 10.8 47.35 16.3 56.15 15.5 60.1 15.15 63.4 13.25 65.0 12.3 65.4 10.9 74.3 16.7 84.9 14.0" fill="#b9c7c8" fill-rule="evenodd" stroke="none"/>
    <path d="M87.4 23.9 Q82.55 41.35 62.65 41.7 44.25 43.15 24.9 41.8 7.15 40.55 2.15 24.1 -5.3 6.6 1.6 2.9 8.5 -0.85 17.0 5.25 27.5 -5.35 39.9 2.55 L42.7 4.6 Q52.85 -2.75 62.85 4.5 76.65 -3.4 86.15 10.6 89.45 15.45 87.4 23.9 M1.5 10.0 Q0.35 17.0 4.0 23.7 8.25 24.15 10.45 23.05 12.6 22.1 14.3 20.25 29.05 30.95 41.35 19.75 L43.2 18.05 Q49.95 26.6 60.1 23.55 65.2 22.0 66.1 16.5 74.3 24.75 85.4 21.6 86.65 18.65 85.55 15.55 L84.9 14.0 Q76.6 -1.9 64.9 7.2 L64.15 8.0 Q53.15 -0.7 42.1 7.75 29.4 -4.6 18.8 8.05 L18.0 9.25 Q11.0 2.45 6.9 3.8 2.75 5.15 1.5 10.0 M84.7 24.35 Q76.15 27.25 69.05 21.8 L67.05 20.15 Q62.8 29.2 52.6 27.25 47.1 26.15 43.35 21.75 32.9 31.5 19.3 25.5 16.9 24.45 14.65 23.2 10.7 26.75 5.15 26.4 8.4 34.15 19.6 38.2 30.25 40.25 52.7 40.35 75.1 40.45 83.1 28.9 L84.7 24.35" fill="#323232" fill-rule="evenodd" stroke="none"/>
    <path d="M84.9 14.0 Q74.3 16.7 65.4 10.9 65.0 12.3 63.4 13.25 60.1 15.15 56.15 15.5 47.35 16.3 45.05 10.8 39.05 15.9 30.1 15.35 22.15 14.8 18.85 11.65 15.6 14.35 11.25 13.2 6.3 11.9 1.5 10.0 2.75 5.15 6.9 3.8 11.0 2.45 18.0 9.25 L18.8 8.05 Q29.4 -4.6 42.1 7.75 53.15 -0.7 64.15 8.0 L64.9 7.2 Q76.6 -1.9 84.9 14.0" fill="#d3dbdc" fill-rule="evenodd" stroke="none"/>
    <path d="M84.7 24.35 L83.1 28.9 Q75.1 40.45 52.7 40.35 30.25 40.25 19.6 38.2 8.4 34.15 5.15 26.4 10.7 26.75 14.65 23.2 16.9 24.45 19.3 25.5 32.9 31.5 43.35 21.75 47.1 26.15 52.6 27.25 62.8 29.2 67.05 20.15 L69.05 21.8 Q76.15 27.25 84.7 24.35" fill="#c96598" fill-rule="evenodd" stroke="none"/>
  </g>
</svg>
