<?xml version="1.0" encoding="UTF-8" standalone="no"?>
<svg xmlns:ffdec="https://www.free-decompiler.com/flash" xmlns:xlink="http://www.w3.org/1999/xlink" ffdec:objectType="shape" height="52.05px" width="87.0px" xmlns="http://www.w3.org/2000/svg">
  <g transform="matrix(1.0, 0.0, 0.0, 1.0, -1.2, 10.7)">
    <path d="M14.6 -5.9 Q21.05 -9.3 28.75 -9.9 59.65 -12.2 73.9 -7.85 88.15 -3.55 88.2 10.35 88.2 24.25 81.35 34.0 74.5 43.7 63.65 37.8 54.05 44.95 43.9 37.75 40.95 39.85 37.3 40.45 28.55 41.45 23.05 33.75 19.75 36.8 16.9 37.5 9.0 39.5 4.7 32.45 0.6 25.65 1.3 16.6 2.0 7.55 4.75 1.55 8.1 -2.5 14.6 -5.9 M70.0 -5.7 Q57.25 -10.2 35.95 -8.2 14.6 -6.25 7.45 1.6 4.75 5.15 3.95 16.5 14.6 8.2 25.05 17.4 35.0 10.35 44.2 17.85 55.25 10.7 64.5 19.1 71.35 11.8 85.0 12.75 85.55 8.8 84.15 3.75 82.75 -1.25 70.0 -5.7 M82.05 27.65 Q84.15 22.4 84.75 15.55 71.0 15.1 63.95 21.9 54.7 13.45 43.65 20.7 41.95 18.95 39.6 18.0 31.75 14.55 24.8 20.15 L20.95 17.85 Q10.55 11.25 3.45 21.4 3.75 26.75 8.05 32.15 13.95 38.2 23.9 30.15 25.4 34.15 28.65 35.75 36.8 39.8 44.35 34.8 54.5 42.25 63.7 34.85 L65.7 35.95 Q74.55 40.4 79.85 32.0 L82.05 27.7 82.05 27.65" fill="#323232" fill-rule="evenodd" stroke="none"/>
    <path d="M70.0 -5.7 Q82.75 -1.25 84.15 3.75 85.55 8.8 85.0 12.75 71.35 11.8 64.5 19.1 55.25 10.7 44.2 17.85 35.0 10.35 25.05 17.4 14.6 8.2 3.95 16.5 4.75 5.15 7.45 1.6 14.6 -6.25 35.95 -8.2 57.25 -10.2 70.0 -5.7" fill="#c96598" fill-rule="evenodd" stroke="none"/>
    <path d="M23.9 30.15 Q26.3 24.8 34.15 25.7 41.95 26.55 44.0 30.7 49.75 24.35 55.95 26.1 62.15 27.8 63.15 30.7 71.25 22.45 82.05 27.65 L82.05 27.7 79.85 32.0 Q74.55 40.4 65.7 35.95 L63.7 34.85 Q54.5 42.25 44.35 34.8 36.8 39.8 28.65 35.75 25.4 34.15 23.9 30.15" fill="#d3dbdc" fill-rule="evenodd" stroke="none"/>
    <path d="M23.9 30.15 Q13.95 38.2 8.05 32.15 3.75 26.75 3.45 21.4 10.55 11.25 20.95 17.85 L24.8 20.15 Q31.75 14.55 39.6 18.0 41.95 18.95 43.65 20.7 54.7 13.45 63.95 21.9 71.0 15.1 84.75 15.55 84.15 22.4 82.05 27.65 71.25 22.45 63.15 30.7 62.15 27.8 55.95 26.1 49.75 24.35 44.0 30.7 41.95 26.55 34.15 25.7 26.3 24.8 23.9 30.15" fill="#a7b9ba" fill-rule="evenodd" stroke="none"/>
  </g>
</svg>
