<?xml version="1.0" encoding="UTF-8" standalone="no"?>
<svg xmlns:ffdec="https://www.free-decompiler.com/flash" xmlns:xlink="http://www.w3.org/1999/xlink" ffdec:objectType="shape" height="168.55px" width="58.35px" xmlns="http://www.w3.org/2000/svg">
  <g transform="matrix(1.0, 0.0, 0.0, 1.0, -183.4, -102.85)">
    <path d="M193.8 105.05 L191.9 102.85 Q195.6 103.8 196.7 105.15 198.1 106.7 198.9 108.25 L198.85 108.25 203.0 120.35 Q206.35 130.95 209.0 148.55 212.3 170.2 213.4 191.95 L213.4 192.0 Q214.45 213.4 222.8 233.65 230.4 252.05 239.65 266.25 L241.5 269.1 Q241.8 269.55 241.75 270.1 L241.3 271.0 Q240.9 271.35 240.35 271.4 L239.35 271.15 Q227.05 261.9 217.95 248.4 197.85 218.65 193.55 167.85 191.5 143.95 188.3 131.3 L184.7 118.0 Q183.55 114.3 183.45 112.55 L183.5 112.55 Q183.3 110.65 183.5 108.95 L183.5 108.9 Q183.6 108.0 183.95 107.25 L184.0 107.2 Q184.6 106.0 185.85 105.0 L186.8 104.15 186.45 106.45 Q186.0 110.05 186.45 112.3 186.6 113.9 187.6 117.1 L191.2 130.55 Q194.45 143.35 196.5 167.6 200.65 216.2 219.45 245.2 L220.45 246.7 Q226.35 255.5 233.75 262.45 226.3 250.05 220.0 234.8 211.45 214.05 210.4 192.15 209.3 170.5 206.0 149.0 L206.05 149.0 Q203.45 131.7 200.2 121.25 L196.25 109.5 Q195.15 106.95 193.8 105.05" fill="#323232" fill-rule="evenodd" stroke="none"/>
    <path d="M219.45 245.2 Q200.65 216.2 196.5 167.6 194.45 143.35 191.2 130.55 L187.6 117.1 Q186.6 113.9 186.45 112.3 186.0 110.05 186.45 106.45 L186.75 106.2 Q188.3 104.95 190.7 103.6 192.4 109.5 195.95 124.8 199.5 140.1 200.25 161.7 201.05 183.3 205.5 205.3 209.75 226.15 219.45 245.2" fill="#e4ddb1" fill-rule="evenodd" stroke="none"/>
    <path d="M193.8 105.05 Q195.15 106.95 196.25 109.5 L200.2 121.25 Q203.45 131.7 206.05 149.0 L206.0 149.0 Q209.3 170.5 210.4 192.15 211.45 214.05 220.0 234.8 226.3 250.05 233.75 262.45 226.35 255.5 220.45 246.7 L219.45 245.2 Q209.75 226.15 205.5 205.3 201.05 183.3 200.25 161.7 199.5 140.1 195.95 124.8 192.4 109.5 190.7 103.6 L192.05 103.85 Q192.85 103.8 193.8 105.05" fill="#dfd1a4" fill-rule="evenodd" stroke="none"/>
  </g>
</svg>
