<?xml version="1.0" encoding="UTF-8" standalone="no"?>
<svg xmlns:ffdec="https://www.free-decompiler.com/flash" xmlns:xlink="http://www.w3.org/1999/xlink" ffdec:objectType="shape" height="18.05px" width="68.35px" xmlns="http://www.w3.org/2000/svg">
  <g transform="matrix(1.0, 0.0, 0.0, 1.0, -0.75, -14.55)">
    <path d="M45.9 14.55 L58.55 14.55 60.0 14.8 62.55 15.2 Q69.05 16.55 69.1 18.25 L69.1 18.35 69.0 18.8 68.4 19.75 Q67.65 20.6 67.65 21.15 L67.8 21.7 67.8 21.8 67.95 22.45 67.95 22.55 67.95 22.6 67.85 23.0 66.8 23.75 64.55 24.25 64.3 24.3 Q65.7 22.95 65.75 21.4 65.4 15.75 45.9 14.55 M3.75 24.35 L3.75 24.3 3.75 23.85 3.75 22.9 Q4.55 24.55 7.15 26.0 L6.15 25.9 4.7 25.5 Q3.9 25.1 3.75 24.35 M0.75 18.35 L0.75 18.3 Q0.8 16.95 2.3 16.05 L7.95 14.55 22.0 14.55 Q4.8 15.55 3.35 21.4 L3.65 22.65 2.9 21.95 Q2.1 21.3 2.1 20.85 2.15 20.0 1.45 19.4 L0.9 18.65 0.75 18.35 M44.8 30.55 L51.9 29.4 Q49.9 31.55 48.6 31.55 L46.0 30.95 44.8 30.55 M15.85 29.1 L21.05 30.1 18.95 30.25 Q16.85 30.25 15.85 29.15 L15.85 29.1" fill="#006633" fill-rule="evenodd" stroke="none"/>
    <path d="M69.1 18.35 L69.1 19.3 Q69.1 19.95 68.4 20.8 L67.8 21.7 67.65 21.15 Q67.65 20.6 68.4 19.75 L69.0 18.8 69.1 18.35 M67.95 22.6 L67.95 23.75 Q67.8 24.5 66.8 24.8 L64.55 25.3 Q63.2 25.55 61.6 26.3 L60.6 26.7 57.2 27.4 Q55.05 27.75 53.35 29.1 L52.05 30.25 Q49.95 32.6 48.6 32.6 L46.0 32.05 43.35 31.2 Q42.4 31.0 37.25 31.2 L31.75 31.75 Q28.45 32.1 27.1 31.2 25.7 30.35 22.7 30.9 L18.95 31.3 Q16.85 31.3 15.85 30.2 14.8 29.0 12.75 28.8 10.4 28.6 9.8 27.85 9.15 27.15 8.45 27.05 L7.25 27.05 6.15 26.95 4.7 26.55 Q3.9 26.2 3.75 25.4 L3.75 24.35 Q3.9 25.1 4.7 25.5 L6.15 25.9 7.15 26.0 7.25 26.0 8.45 26.0 Q9.15 26.1 9.8 26.8 10.4 27.55 12.75 27.75 14.75 27.9 15.8 29.1 L15.85 29.1 15.85 29.15 Q16.85 30.25 18.95 30.25 L21.05 30.1 22.7 29.85 Q25.7 29.3 27.1 30.15 28.45 31.0 31.75 30.7 L37.25 30.15 Q42.4 29.95 43.35 30.15 L44.8 30.55 46.0 30.95 48.6 31.55 Q49.9 31.55 51.9 29.4 L52.05 29.2 Q54.2 26.75 57.2 26.3 60.15 25.9 61.6 25.2 63.05 24.6 64.3 24.3 L64.55 24.25 66.8 23.75 67.85 23.0 67.95 22.6 M3.75 23.85 L2.9 23.05 Q2.1 22.35 1.9 21.2 1.7 20.1 0.75 18.6 L0.75 18.35 0.9 18.65 1.45 19.4 Q2.15 20.0 2.1 20.85 2.1 21.3 2.9 21.95 L3.65 22.65 3.75 22.9 3.75 23.85" fill="#003c0f" fill-rule="evenodd" stroke="none"/>
    <path d="M22.0 14.55 L45.9 14.55 Q65.4 15.75 65.75 21.4 65.7 22.95 64.3 24.3 63.05 24.6 61.6 25.2 60.15 25.9 57.2 26.3 54.2 26.75 52.05 29.2 L51.9 29.4 44.8 30.55 43.35 30.15 Q42.4 29.95 37.25 30.15 L31.75 30.7 Q28.45 31.0 27.1 30.15 25.7 29.3 22.7 29.85 L21.05 30.1 15.85 29.1 15.8 29.1 Q14.75 27.9 12.75 27.75 10.4 27.55 9.8 26.8 9.15 26.1 8.45 26.0 L7.25 26.0 7.15 26.0 Q4.55 24.55 3.75 22.9 L3.65 22.65 3.35 21.4 Q4.8 15.55 22.0 14.55" fill="#004f27" fill-rule="evenodd" stroke="none"/>
  </g>
</svg>
