<?xml version="1.0" encoding="UTF-8" standalone="no"?>
<svg xmlns:ffdec="https://www.free-decompiler.com/flash" xmlns:xlink="http://www.w3.org/1999/xlink" ffdec:objectType="shape" height="75.5px" width="117.5px" xmlns="http://www.w3.org/2000/svg">
  <g transform="matrix(1.0, 0.0, 0.0, 1.0, 10.05, 7.65)">
    <path d="M48.6 56.9 L48.65 56.9 48.7 57.1 48.6 56.9" fill="#7998b5" fill-rule="evenodd" stroke="none"/>
    <path d="M68.85 44.3 L68.8 44.3 68.85 44.2 68.85 44.3 M15.25 35.45 L15.2 35.5 15.15 35.4 15.25 35.45" fill="#d7e6e7" fill-rule="evenodd" stroke="none"/>
    <path d="M51.2 26.95 L51.2 27.25 51.05 27.15 51.2 26.95 M48.7 57.1 L48.3 57.0 48.6 56.9 48.7 57.1" fill="#b0cfdf" fill-rule="evenodd" stroke="none"/>
    <path d="M68.85 44.3 L69.95 44.25 73.05 44.1 76.1 43.45 79.0 42.3 82.15 40.7 83.6 39.75 83.65 39.75 83.65 39.7 84.0 38.75 84.6 36.8 84.6 38.9 83.85 41.7 Q79.75 52.5 68.1 49.3 67.4 49.95 67.55 51.1 67.7 52.65 68.85 53.95 69.0 56.8 67.75 59.35 67.05 61.0 65.65 61.7 53.1 67.9 39.05 60.7 36.6 59.5 33.25 56.75 27.05 56.6 21.9 55.05 11.15 51.75 17.0 44.85 L17.25 44.5 17.35 44.15 17.15 43.75 16.85 43.35 Q15.8 42.2 14.55 42.45 13.95 42.5 13.35 42.9 L12.4 43.6 Q8.6 40.25 6.5 36.7 8.2 38.05 10.4 38.7 L11.25 38.75 10.9 38.15 Q10.55 37.45 10.65 36.65 L11.0 34.5 11.7 32.3 Q12.05 31.35 12.8 30.6 13.45 29.9 14.25 29.55 14.95 29.2 15.55 29.0 L16.15 28.65 16.2 28.4 16.25 27.85 16.65 27.05 Q17.15 26.4 17.8 26.0 18.5 25.45 19.45 25.0 L21.35 24.15 Q22.7 23.6 24.1 23.45 L27.2 23.35 28.5 23.45 29.75 23.7 29.85 23.7 28.65 24.55 28.35 25.2 27.75 26.15 27.6 26.6 25.8 26.2 24.25 25.65 Q22.65 25.95 21.15 26.7 L18.3 28.4 18.1 28.8 Q17.15 30.85 16.55 33.0 16.15 34.35 16.05 35.85 L16.25 36.25 17.05 37.9 17.6 38.8 Q18.8 39.15 19.3 40.25 L20.25 41.25 20.05 41.55 19.35 42.6 Q18.65 43.7 18.5 45.05 L18.4 45.8 19.65 46.45 19.65 46.9 19.8 48.3 Q20.85 51.1 23.8 52.35 28.35 54.2 33.3 53.85 36.05 53.6 38.55 52.65 L39.45 52.55 Q40.45 52.5 41.3 54.1 41.7 55.1 42.6 55.65 L45.05 57.35 Q45.8 57.75 46.6 57.8 L47.35 57.6 48.7 57.1 Q53.95 58.85 57.9 54.25 L57.9 54.1 57.3 53.15 57.25 52.4 57.3 52.15 56.75 52.1 56.0 52.0 50.15 50.5 Q49.65 50.4 49.5 49.85 46.9 50.2 47.05 48.6 L49.7 48.7 59.35 48.85 Q61.3 49.0 62.65 47.65 62.95 47.15 62.0 46.9 L61.6 46.7 61.45 46.4 61.25 45.8 Q62.0 44.55 63.1 43.55 64.9 41.75 67.5 40.4 68.7 39.75 69.05 38.5 68.7 34.45 65.6 31.65 65.05 31.15 65.0 30.45 L65.25 30.05 66.05 29.4 66.7 29.25 67.5 29.25 Q76.85 36.45 68.85 44.2 L68.8 44.3 68.85 44.3 M15.25 35.45 L15.15 35.4 15.2 35.5 15.25 35.45" fill="#41793c" fill-rule="evenodd" stroke="none"/>
    <path d="M81.2 22.25 L80.95 24.85 Q83.35 27.15 85.0 29.45 87.15 32.6 87.8 35.65 89.15 42.25 83.35 48.6 78.6 53.6 72.15 53.75 72.25 59.0 69.5 63.3 68.5 64.9 67.0 65.65 64.5 67.05 61.7 67.4 L61.55 67.45 61.35 67.45 60.65 67.55 60.6 67.45 60.55 67.6 Q51.65 68.55 43.15 65.95 L43.55 65.6 42.95 65.95 Q36.85 64.05 30.9 60.3 L29.75 60.55 27.75 60.85 26.55 60.8 26.5 60.75 26.5 60.8 Q12.6 60.25 11.0 47.85 L10.9 46.9 Q1.85 40.2 0.45 32.7 -0.65 27.65 0.95 22.6 L1.35 21.2 Q3.25 17.6 7.05 16.25 12.9 14.0 18.9 16.95 23.5 6.4 34.45 2.25 42.5 -0.85 50.65 0.3 61.25 2.0 69.9 7.85 L71.15 8.85 Q72.15 9.7 73.35 13.15 80.05 16.75 81.05 21.25 L81.2 22.25 M6.5 36.7 Q8.6 40.25 12.4 43.6 L13.35 42.9 Q13.95 42.5 14.55 42.45 15.8 42.2 16.85 43.35 L17.15 43.75 17.35 44.15 17.25 44.5 17.0 44.85 Q11.15 51.75 21.9 55.05 27.05 56.6 33.25 56.75 36.6 59.5 39.05 60.7 53.1 67.9 65.65 61.7 67.05 61.0 67.75 59.35 69.0 56.8 68.85 53.95 67.7 52.65 67.55 51.1 67.4 49.95 68.1 49.3 79.75 52.5 83.85 41.7 L84.6 38.9 84.6 36.8 Q84.15 32.6 79.65 29.35 L78.75 31.15 Q77.1 34.35 74.2 34.55 73.9 33.75 74.55 33.2 L75.3 32.15 75.3 31.7 75.4 31.35 75.45 31.05 Q82.4 20.8 69.95 15.55 63.2 12.65 53.75 13.45 60.7 9.85 68.45 11.45 58.95 3.4 44.25 3.9 34.05 4.25 26.85 11.15 22.2 15.7 21.7 21.95 L21.55 22.25 20.8 23.3 19.45 24.0 18.75 23.85 17.4 23.05 17.2 22.65 17.15 21.55 17.15 20.75 Q14.3 18.25 9.85 18.8 L9.2 19.05 Q2.4 22.95 4.25 31.2 4.9 34.0 6.5 36.7 M72.45 12.6 L71.2 12.1 71.35 12.15 72.45 12.6" fill="#326736" fill-rule="evenodd" stroke="none"/>
    <path d="M84.6 36.8 L84.0 38.75 83.65 39.7 83.65 39.75 83.6 39.75 82.15 40.7 79.0 42.3 76.1 43.45 73.05 44.1 69.95 44.25 68.85 44.3 68.85 44.2 Q76.85 36.45 67.5 29.25 L66.7 29.25 66.05 29.4 65.25 30.05 65.0 30.45 Q65.05 31.15 65.6 31.65 68.7 34.45 69.05 38.5 68.7 39.75 67.5 40.4 64.9 41.75 63.1 43.55 62.0 44.55 61.25 45.8 L61.45 46.4 61.6 46.7 62.0 46.9 Q62.95 47.15 62.65 47.65 61.3 49.0 59.35 48.85 L49.7 48.7 47.05 48.6 Q46.9 50.2 49.5 49.85 49.65 50.4 50.15 50.5 L56.0 52.0 56.75 52.1 57.3 52.15 57.25 52.4 57.3 53.15 57.9 54.1 57.9 54.25 Q53.95 58.85 48.7 57.1 L47.35 57.6 46.6 57.8 Q45.8 57.75 45.05 57.35 L42.6 55.65 Q41.7 55.1 41.3 54.1 40.45 52.5 39.45 52.55 L38.55 52.65 Q36.05 53.6 33.3 53.85 28.35 54.2 23.8 52.35 20.85 51.1 19.8 48.3 L19.65 46.9 19.65 46.45 18.4 45.8 18.5 45.05 Q18.65 43.7 19.35 42.6 L20.05 41.55 20.25 41.25 19.3 40.25 Q18.8 39.15 17.6 38.8 L17.05 37.9 16.25 36.25 16.05 35.85 Q16.15 34.35 16.55 33.0 17.15 30.85 18.1 28.8 L18.3 28.4 21.15 26.7 Q22.65 25.95 24.25 25.65 L25.8 26.2 27.6 26.6 27.75 26.15 28.35 25.2 28.65 24.55 29.85 23.7 29.75 23.7 28.5 23.45 27.2 23.35 24.1 23.45 Q22.7 23.6 21.35 24.15 L19.45 25.0 Q18.5 25.45 17.8 26.0 17.15 26.4 16.65 27.05 L16.25 27.85 16.2 28.4 16.15 28.65 15.55 29.0 Q14.95 29.2 14.25 29.55 13.45 29.9 12.8 30.6 12.05 31.35 11.7 32.3 L11.0 34.5 10.65 36.65 Q10.55 37.45 10.9 38.15 L11.25 38.75 10.4 38.7 Q8.2 38.05 6.5 36.7 4.9 34.0 4.25 31.2 2.4 22.95 9.2 19.05 L9.85 18.8 Q14.3 18.25 17.15 20.75 L17.15 21.55 17.2 22.65 17.4 23.05 18.75 23.85 19.45 24.0 20.8 23.3 21.55 22.25 21.7 21.95 Q22.2 15.7 26.85 11.15 34.05 4.25 44.25 3.9 58.95 3.4 68.45 11.45 60.7 9.85 53.75 13.45 63.2 12.65 69.95 15.55 82.4 20.8 75.45 31.05 L75.4 31.35 75.3 31.7 75.3 32.15 74.55 33.2 Q73.9 33.75 74.2 34.55 77.1 34.35 78.75 31.15 L79.65 29.35 Q84.15 32.6 84.6 36.8 M51.2 26.95 L51.05 27.15 51.2 27.25 51.2 26.95 M48.7 57.1 L48.65 56.9 48.6 56.9 48.3 57.0 48.7 57.1" fill="#5aa552" fill-rule="evenodd" stroke="none"/>
    <path d="M37.65 16.0 L37.8 16.15 37.8 16.2 37.65 16.0" fill="#7998b5" fill-rule="evenodd" stroke="none"/>
    <path d="M67.0 44.55 L67.3 45.2 Q67.3 47.55 63.85 49.25 L61.5 50.1 Q61.2 53.85 56.5 56.15 52.85 58.0 50.1 58.0 L47.5 57.7 Q46.1 57.3 45.75 56.7 L50.05 55.75 Q54.35 55.75 57.6 52.0 L59.1 50.1 Q58.4 49.7 58.4 49.25 58.4 48.3 59.95 48.05 L61.9 47.9 Q63.75 47.2 64.85 45.65 65.75 44.3 66.2 44.3 L67.0 44.55 M37.65 16.0 L37.8 16.2 Q33.75 18.8 30.75 22.95 L29.45 24.7 30.8 25.0 Q32.05 25.35 32.5 25.6 31.35 26.4 28.55 26.6 25.55 26.75 23.75 27.8 18.8 30.65 16.75 34.1 15.2 36.75 14.8 36.75 14.2 36.75 13.85 36.2 13.6 35.75 13.6 35.1 13.6 30.2 20.75 27.0 24.25 25.4 26.8 24.9 27.2 21.8 31.85 18.85 35.25 16.65 37.65 16.0" fill="#336633" fill-rule="evenodd" stroke="none"/>
    <path d="M36.15 -7.65 Q36.85 -7.65 39.95 4.2 L40.65 7.65 Q39.75 7.7 37.65 1.65 35.55 -4.45 35.55 -7.2 L35.7 -7.65 36.15 -7.65 M27.0 -4.85 Q31.35 -1.95 35.9 9.75 L35.8 10.15 35.15 10.35 Q34.65 10.35 27.0 -4.6 L27.0 -4.85 M47.4 -1.8 Q47.7 -1.65 47.7 -0.9 47.7 0.1 46.95 2.5 L45.65 5.85 45.15 5.85 Q44.85 5.8 44.85 5.3 44.85 1.35 46.65 -1.8 L47.4 -1.8 M107.45 12.5 L74.4 24.95 74.3 24.95 Q82.2 20.1 91.0 16.6 100.35 12.95 107.1 12.3 L107.45 12.5 M87.15 11.9 L80.65 17.1 Q75.55 21.0 74.15 21.0 L73.7 21.0 73.65 20.9 Q75.05 19.15 79.6 16.0 84.15 12.85 87.0 11.7 L87.15 11.9 M82.8 40.25 L93.45 42.15 93.45 42.3 90.7 42.6 86.4 41.85 Q82.7 41.1 82.7 40.65 L82.75 40.2 82.8 40.25 M92.0 51.8 Q88.95 50.75 83.15 47.65 77.85 44.8 77.85 44.6 L77.9 44.25 77.85 44.2 78.35 44.1 Q79.55 44.1 85.35 47.4 90.2 50.1 92.1 51.45 L92.0 51.8 M76.95 8.15 Q76.1 10.3 73.45 14.35 70.75 18.5 69.9 18.9 L69.6 18.9 Q69.45 18.9 69.45 18.45 69.45 17.95 72.15 13.35 75.1 8.25 76.55 7.8 L76.95 8.15 M54.35 18.0 L54.45 18.6 54.15 21.65 53.7 26.85 52.65 27.15 52.3 27.15 Q52.1 27.15 52.1 26.7 52.1 19.7 54.0 18.0 L54.35 18.0 M45.35 18.85 L48.35 27.9 48.35 29.45 48.0 29.7 Q43.1 18.3 41.4 11.45 L41.45 11.45 Q43.45 13.45 45.35 18.85 M9.05 20.4 Q9.35 20.7 8.6 20.7 7.05 20.7 5.0 18.6 3.2 16.75 2.55 15.15 4.0 15.15 5.85 17.0 L9.05 20.1 9.05 20.4 M6.15 23.75 Q5.2 23.75 1.2 21.3 -2.85 18.8 -2.85 18.15 L-2.75 17.75 -2.7 17.75 Q-1.05 18.2 2.05 20.35 5.2 22.6 6.8 23.1 L6.75 23.7 6.15 23.75 M5.7 25.3 L5.1 25.5 Q4.2 25.5 -1.95 23.1 -7.8 20.8 -10.05 19.7 L-9.95 19.7 Q-4.15 21.25 -1.9 21.95 2.6 23.3 5.75 24.9 L5.7 25.3 M10.85 49.45 Q15.65 49.95 16.85 50.7 L16.8 51.2 16.2 51.3 4.35 50.25 0.9 49.85 1.05 49.5 5.55 49.1 10.85 49.45 M32.85 35.75 Q32.9 36.15 32.15 36.15 31.55 36.15 30.35 33.7 29.1 31.15 29.25 30.05 L31.3 32.2 Q32.45 33.75 32.85 35.75 M24.0 32.75 Q25.5 33.4 27.9 36.05 30.2 38.65 31.8 39.2 L31.35 39.8 Q29.3 39.15 26.5 36.55 23.85 34.1 23.85 33.15 23.85 32.7 23.95 32.75 L24.0 32.75 M17.6 51.75 Q16.25 54.7 12.65 55.95 L7.2 57.3 7.35 57.15 12.15 54.55 Q15.95 52.35 17.6 51.75 M62.75 57.05 Q57.05 56.3 52.95 53.3 L53.1 52.95 57.9 54.75 62.75 56.4 62.75 57.05 M53.75 56.1 L55.5 59.3 55.35 59.55 Q54.1 58.65 52.65 56.5 L50.4 53.25 50.4 53.1 51.0 52.95 Q51.85 52.95 53.75 56.1" fill="#9ecc99" fill-rule="evenodd" stroke="none"/>
  </g>
</svg>
