<?xml version="1.0" encoding="UTF-8" standalone="no"?>
<svg xmlns:ffdec="https://www.free-decompiler.com/flash" xmlns:xlink="http://www.w3.org/1999/xlink" ffdec:objectType="shape" height="132.35px" width="187.1px" xmlns="http://www.w3.org/2000/svg">
  <g transform="matrix(1.0, 0.0, 0.0, 1.0, 1.5, 1.5)">
    <path d="M32.95 40.6 L42.1 30.65 Q49.7 22.45 60.75 14.3 71.8 6.1 84.4 3.2 96.95 0.3 107.4 0.0 117.8 -0.35 125.4 5.85 128.7 8.55 131.65 11.65 L135.45 15.9 136.2 18.65 Q137.2 22.4 138.45 25.95 140.25 31.15 138.75 36.55 137.0 43.15 129.8 41.1 124.75 39.7 119.9 37.5 118.75 36.95 117.95 35.95 L118.55 39.0 Q119.05 41.15 116.05 42.05 107.35 44.75 99.8 39.85 L89.9 33.4 Q92.65 38.3 91.5 43.4 90.05 49.75 85.05 53.7 73.8 45.0 60.9 41.75 47.95 38.45 32.95 40.6" fill="#db0202" fill-rule="evenodd" stroke="none"/>
    <path d="M136.45 50.0 Q134.6 52.7 133.4 55.7 L131.0 54.1 Q122.95 48.4 122.8 48.85 L121.35 51.0 Q120.1 52.75 117.5 54.15 114.9 55.5 110.9 51.45 L111.8 56.7 Q112.65 60.7 111.65 65.15 L108.95 75.55 Q107.25 81.45 108.3 86.25 104.15 69.9 95.2 64.35 L85.05 53.7 Q90.05 49.75 91.5 43.4 92.65 38.3 89.9 33.4 L99.8 39.85 Q107.35 44.75 116.05 42.05 119.05 41.15 118.55 39.0 L117.95 35.95 Q118.75 36.95 119.9 37.5 124.75 39.7 129.8 41.1 137.0 43.15 138.75 36.55 140.25 31.15 138.45 25.95 137.2 22.4 136.2 18.65 L135.45 15.9 137.6 18.65 138.55 20.0 Q143.5 27.1 146.8 40.9 142.55 42.95 139.0 46.8 137.6 48.35 136.45 50.0" fill="#9e0303" fill-rule="evenodd" stroke="none"/>
    <path d="M179.9 51.45 Q184.1 58.4 184.1 67.2 184.1 79.15 176.35 87.55 168.65 96.0 157.7 96.0 146.75 96.0 139.0 87.55 131.3 79.15 131.3 67.2 131.3 61.0 133.4 55.7 134.6 52.7 136.45 50.0 135.9 54.25 137.35 57.95 138.7 61.3 141.75 64.15 147.8 69.8 155.35 73.35 163.15 77.0 169.35 70.95 175.25 65.15 178.45 57.25 179.65 54.35 179.9 51.45 M108.3 86.25 Q117.3 101.45 109.4 107.45 101.5 113.45 93.8 129.35 82.65 118.55 72.2 116.55 L73.2 116.0 Q74.15 115.45 77.05 110.2 79.9 104.9 81.55 95.55 83.2 86.15 87.25 79.0 L95.2 64.35 Q104.15 69.9 108.3 86.25" fill="#babcc6" fill-rule="evenodd" stroke="none"/>
    <path d="M179.9 51.45 Q179.65 54.35 178.45 57.25 175.25 65.15 169.35 70.95 163.15 77.0 155.35 73.35 147.8 69.8 141.75 64.15 138.7 61.3 137.35 57.95 135.9 54.25 136.45 50.0 137.6 48.35 139.0 46.8 142.55 42.95 146.8 40.9 151.75 38.4 157.7 38.4 168.65 38.4 176.35 46.8 178.4 49.0 179.9 51.45 M72.2 116.55 Q-0.5 102.35 0.0 95.55 L1.25 78.6 Q2.1 66.85 6.65 55.3 11.2 43.75 21.4 42.25 L32.95 40.6 Q47.95 38.45 60.9 41.75 73.8 45.0 85.05 53.7 L95.2 64.35 87.25 79.0 Q83.2 86.15 81.55 95.55 79.9 104.9 77.05 110.2 74.15 115.45 73.2 116.0 L72.2 116.55" fill="#dde5ec" fill-rule="evenodd" stroke="none"/>
    <path d="M133.4 55.7 L131.0 54.1 Q122.95 48.4 122.8 48.85 L121.35 51.0 Q120.1 52.75 117.5 54.15 114.9 55.5 110.9 51.45 L111.8 56.7 Q112.65 60.7 111.65 65.15 L108.95 75.55 Q107.25 81.45 108.3 86.25 M32.95 40.6 L42.1 30.65 Q49.7 22.45 60.75 14.3 71.8 6.1 84.4 3.2 96.95 0.3 107.4 0.0 117.8 -0.35 125.4 5.85 128.7 8.55 131.65 11.65 L135.45 15.9 137.6 18.65 138.55 20.0 Q143.5 27.1 146.8 40.9" fill="none" stroke="#560000" stroke-linecap="round" stroke-linejoin="round" stroke-width="3.0"/>
    <path d="M133.4 55.7 Q131.3 61.0 131.3 67.2 131.3 79.15 139.0 87.55 146.75 96.0 157.7 96.0 168.65 96.0 176.35 87.55 184.1 79.15 184.1 67.2 184.1 58.4 179.9 51.45 178.4 49.0 176.35 46.8 168.65 38.4 157.7 38.4 151.75 38.4 146.8 40.9 142.55 42.95 139.0 46.8 137.6 48.35 136.45 50.0 134.6 52.7 133.4 55.7 M108.3 86.25 Q117.3 101.45 109.4 107.45 101.5 113.45 93.8 129.35 82.65 118.55 72.2 116.55 -0.5 102.35 0.0 95.55 L1.25 78.6 Q2.1 66.85 6.65 55.3 11.2 43.75 21.4 42.25 L32.95 40.6 Q47.95 38.45 60.9 41.75 73.8 45.0 85.05 53.7 L95.2 64.35 Q104.15 69.9 108.3 86.25 Z" fill="none" stroke="#8a98ad" stroke-linecap="round" stroke-linejoin="round" stroke-width="3.0"/>
  </g>
</svg>
