<?xml version="1.0" encoding="UTF-8" standalone="no"?>
<svg xmlns:ffdec="https://www.free-decompiler.com/flash" xmlns:xlink="http://www.w3.org/1999/xlink" ffdec:objectType="shape" height="165.65px" width="145.35px" xmlns="http://www.w3.org/2000/svg">
  <g transform="matrix(1.0, 0.0, 0.0, 1.0, 5.85, 13.8)">
    <path d="M114.3 6.9 Q135.6 28.0 137.8 60.8 139.8 94.85 119.9 121.15 99.3 148.3 68.45 150.2 37.4 152.05 15.75 127.5 -5.3 103.6 -4.3 69.1 -3.5 36.05 17.3 12.4 37.45 -10.7 65.5 -12.2 93.45 -13.85 114.3 6.9 M129.45 58.1 Q127.5 24.0 107.5 8.15 87.8 -7.5 65.5 -5.85 43.1 -4.3 25.55 14.65 8.05 33.55 6.7 65.6 5.3 97.6 24.15 115.85 42.95 134.1 71.25 132.55 99.5 131.0 115.45 111.6 131.35 92.15 129.45 58.1" fill="#ceaa1a" fill-rule="evenodd" stroke="none"/>
    <path d="M129.45 58.1 Q131.35 92.15 115.45 111.6 99.5 131.0 71.25 132.55 42.95 134.1 24.15 115.85 5.3 97.6 6.7 65.6 8.05 33.55 25.55 14.65 43.1 -4.3 65.5 -5.85 87.8 -7.5 107.5 8.15 127.5 24.0 129.45 58.1" fill="#e6c92c" fill-rule="evenodd" stroke="none"/>
    <path d="M114.3 6.9 Q93.45 -13.85 65.5 -12.2 37.45 -10.7 17.3 12.4 -3.5 36.05 -4.3 69.1 -5.3 103.6 15.75 127.5 37.4 152.05 68.45 150.2 99.3 148.3 119.9 121.15 139.8 94.85 137.8 60.8 135.6 28.0 114.3 6.9 Z" fill="none" stroke="#323232" stroke-linecap="round" stroke-linejoin="round" stroke-width="3.0"/>
  </g>
</svg>
