<?xml version="1.0" encoding="UTF-8" standalone="no"?>
<svg xmlns:ffdec="https://www.free-decompiler.com/flash" xmlns:xlink="http://www.w3.org/1999/xlink" ffdec:objectType="shape" height="62.55px" width="88.6px" xmlns="http://www.w3.org/2000/svg">
  <g transform="matrix(1.0, 0.0, 0.0, 1.0, 28.4, 27.35)">
    <path d="M42.6 -9.15 Q41.1 -5.15 37.85 -3.55 29.7 0.5 22.15 -4.5 12.0 2.95 2.8 -4.45 L0.8 -3.35 -0.3 -2.8 Q-8.4 0.55 -13.35 -7.3 L-15.55 -11.6 -15.5 -11.6 -15.55 -11.65 -15.5 -11.65 -13.8 -12.4 -8.55 -11.75 -0.6 -11.75 Q1.45 -10.55 3.35 -8.6 4.05 -10.55 7.1 -11.95 L16.7 -12.9 Q19.65 -11.75 22.5 -8.6 24.55 -12.75 32.35 -13.6 40.2 -14.5 42.6 -9.15 M-5.4 28.7 Q-1.4 23.7 3.7 24.2 4.9 24.3 6.2 24.75 8.25 25.45 10.45 26.95 L11.25 27.7 Q17.85 21.7 24.9 22.65 L27.45 23.2 Q30.3 24.05 33.25 26.0 40.3 18.15 47.2 19.2 41.35 25.55 35.0 28.4 L31.45 29.9 30.5 29.2 29.95 30.45 Q23.95 32.6 19.55 32.85 15.55 33.0 12.1 32.75 10.65 31.9 10.2 30.65 L7.95 32.2 Q3.2 31.35 -2.55 29.55 L-5.4 28.7" fill="#d3dbdc" fill-rule="evenodd" stroke="none"/>
    <path d="M58.6 -7.3 L58.45 -7.15 Q52.55 -1.1 42.6 -9.15 40.2 -14.5 32.35 -13.6 24.55 -12.75 22.5 -8.6 19.65 -11.75 16.7 -12.9 L21.35 -13.5 Q28.55 -14.55 41.5 -19.3 L41.7 -19.15 42.7 -19.75 Q47.75 -21.65 53.65 -24.05 56.4 -23.95 58.85 -22.25 59.2 -14.0 58.6 -7.3 M-15.5 -11.65 L-15.95 -12.8 -13.8 -12.4 -15.5 -11.65 M7.1 -11.95 Q4.05 -10.55 3.35 -8.6 1.45 -10.55 -0.6 -11.75 L2.35 -11.75 7.1 -11.95" fill="#a7b9ba" fill-rule="evenodd" stroke="none"/>
    <path d="M58.0 -2.8 Q54.5 -0.55 49.6 -1.8 46.75 -2.5 43.5 -5.55 37.95 2.15 29.2 1.15 25.55 0.55 22.6 -1.55 12.45 5.65 2.85 -1.5 L2.7 -1.4 Q6.15 10.95 6.25 22.1 9.1 22.55 12.3 24.1 19.1 18.45 26.5 20.25 27.7 18.75 29.85 16.65 L29.85 16.7 Q34.05 12.35 43.85 11.55 47.9 11.15 52.0 13.3 L50.4 15.4 Q47.2 13.85 44.05 14.05 35.35 14.75 31.6 18.45 L29.05 21.1 32.45 22.9 35.1 20.65 Q42.25 15.35 49.2 16.9 L47.2 19.2 Q40.3 18.15 33.25 26.0 30.3 24.05 27.45 23.2 L24.9 22.65 Q17.85 21.7 11.25 27.7 L10.45 26.95 Q8.25 25.45 6.2 24.75 4.9 24.3 3.7 24.2 -1.4 23.7 -5.4 28.7 L-8.05 28.15 Q-3.0 21.85 3.7 21.85 3.6 11.35 0.4 -0.35 -8.8 3.3 -14.85 -5.3 -17.5 -9.1 -19.1 -13.5 L-17.55 -13.15 -15.95 -12.8 -15.5 -11.65 -15.55 -11.65 -15.5 -11.6 -15.55 -11.6 -13.35 -7.3 Q-8.4 0.55 -0.3 -2.8 L0.8 -3.35 2.8 -4.45 Q12.0 2.95 22.15 -4.5 29.7 0.5 37.85 -3.55 41.1 -5.15 42.6 -9.15 52.55 -1.1 58.45 -7.15 L58.6 -7.3 58.0 -2.8 M41.5 -19.3 L42.7 -19.75 41.7 -19.15 41.5 -19.3 M53.65 -24.05 L57.65 -25.7 58.65 -25.25 58.85 -22.25 Q56.4 -23.95 53.65 -24.05" fill="#323232" fill-rule="evenodd" stroke="none"/>
    <path d="M57.65 -25.7 L58.6 -26.1 58.65 -25.25 57.65 -25.7" fill="#c96598" fill-rule="evenodd" stroke="none"/>
    <path d="M52.0 13.3 Q47.9 11.15 43.85 11.55 34.05 12.35 29.85 16.7 L29.85 16.65 Q27.7 18.75 26.5 20.25 19.1 18.45 12.3 24.1 9.1 22.55 6.25 22.1 6.15 10.95 2.7 -1.4 L2.85 -1.5 Q12.45 5.65 22.6 -1.55 25.55 0.55 29.2 1.15 37.95 2.15 43.5 -5.55 46.75 -2.5 49.6 -1.8 54.5 -0.55 58.0 -2.8 56.45 6.95 52.4 12.7 L52.0 13.3" fill="#713737" fill-rule="evenodd" stroke="none"/>
    <path d="M49.2 16.9 Q42.25 15.35 35.1 20.65 L32.45 22.9 29.05 21.1 31.6 18.45 Q35.35 14.75 44.05 14.05 47.2 13.85 50.4 15.4 L49.2 16.9" fill="#e697d0" fill-rule="evenodd" stroke="none"/>
    <path d="M12.1 32.75 L8.5 32.3 7.95 32.2 10.2 30.65 Q10.65 31.9 12.1 32.75 M31.45 29.9 L29.95 30.45 30.5 29.2 31.45 29.9" fill="#b9c7c8" fill-rule="evenodd" stroke="none"/>
    <path d="M-27.15 -16.5 Q-25.3 -15.5 -23.1 -14.7 L-17.55 -13.15 Q-11.9 -11.9 -8.55 -11.75 L2.35 -11.75 Q9.9 -11.9 21.35 -13.5 32.75 -15.2 58.6 -26.1 60.5 1.2 52.4 12.7 44.25 24.25 35.0 28.4 25.7 32.5 19.55 32.85 L8.5 32.3 Q3.6 31.45 -2.55 29.55 -8.65 27.6 -10.9 28.0 L-13.65 28.6 -14.2 28.85 -14.6 29.05 Q-17.1 30.5 -17.65 33.95" fill="none" stroke="#323232" stroke-linecap="round" stroke-linejoin="round" stroke-width="2.5"/>
  </g>
</svg>
