<?xml version="1.0" encoding="UTF-8" standalone="no"?>
<svg xmlns:ffdec="https://www.free-decompiler.com/flash" xmlns:xlink="http://www.w3.org/1999/xlink" ffdec:objectType="shape" height="160.3px" width="80.9px" xmlns="http://www.w3.org/2000/svg">
  <g transform="matrix(1.0, 0.0, 0.0, 1.0, -191.8, -56.8)">
    <path d="M196.4 58.75 L196.9 58.85 Q200.9 58.85 206.8 61.05 L206.8 61.1 Q211.0 62.5 213.05 64.05 236.3 81.95 249.85 107.65 253.0 113.65 255.65 120.05 L255.6 120.0 Q270.25 156.3 269.7 206.05 L269.45 205.9 269.35 205.85 269.5 204.7 269.3 203.9 267.25 197.0 Q264.4 174.0 254.95 152.7 243.8 127.75 230.45 104.1 221.3 87.85 205.3 80.15 199.15 76.35 193.35 73.1 192.45 72.15 191.9 69.25 L196.4 58.75" fill="#e6c92c" fill-rule="evenodd" stroke="none"/>
    <path d="M267.25 197.0 Q253.85 154.1 230.4 116.05 L230.4 116.1 Q221.4 101.45 212.35 91.35 L206.4 85.25 206.4 85.2 Q203.5 82.45 200.65 80.55 L200.6 80.5 Q196.15 77.2 193.35 73.1 199.15 76.35 205.3 80.15 221.3 87.85 230.45 104.1 243.8 127.75 254.95 152.7 264.4 174.0 267.25 197.0" fill="#ceaa1a" fill-rule="evenodd" stroke="none"/>
    <path d="M196.4 58.75 Q197.5 56.75 201.65 56.8 203.55 56.75 207.85 58.25 L207.8 58.25 Q212.5 59.9 214.85 61.65 L214.9 61.65 Q238.7 79.95 252.5 106.25 255.7 112.35 258.4 118.9 273.55 156.4 272.65 208.05 L272.45 215.65 Q272.45 216.2 272.05 216.65 271.65 217.05 271.15 217.1 L270.1 216.85 Q269.65 216.5 269.5 216.0 L267.25 207.6 Q267.1 207.0 267.4 206.45 L267.45 206.4 267.3 206.35 Q266.75 206.0 266.6 205.45 L266.4 204.7 266.4 204.75 Q252.95 158.35 227.85 117.65 219.0 103.25 210.1 93.35 L204.35 87.4 204.3 87.4 Q201.6 84.8 198.95 83.0 L195.05 79.35 Q191.2 75.75 191.9 69.25 192.45 72.15 193.35 73.1 196.15 77.2 200.6 80.5 L200.65 80.55 Q203.5 82.45 206.4 85.2 L206.4 85.25 212.35 91.35 Q221.4 101.45 230.4 116.1 L230.4 116.05 Q253.85 154.1 267.25 197.0 L269.3 203.9 269.5 204.7 269.35 205.85 269.45 205.9 269.7 206.05 Q270.25 156.3 255.6 120.0 L255.65 120.05 Q253.0 113.65 249.85 107.65 236.3 81.95 213.05 64.05 211.0 62.5 206.8 61.1 L206.8 61.05 Q200.9 58.85 196.9 58.85 L196.4 58.75" fill="#323232" fill-rule="evenodd" stroke="none"/>
  </g>
</svg>
