<?xml version="1.0" encoding="UTF-8" standalone="no"?>
<svg xmlns:ffdec="https://www.free-decompiler.com/flash" xmlns:xlink="http://www.w3.org/1999/xlink" ffdec:objectType="shape" height="172.25px" width="169.6px" xmlns="http://www.w3.org/2000/svg">
  <g transform="matrix(1.0, 0.0, 0.0, 1.0, 0.05, -0.05)">
    <path d="M161.05 18.7 Q163.8 25.2 161.55 35.0 144.2 98.85 110.7 146.2 93.8 170.0 73.2 149.55 37.65 107.95 15.7 41.45 9.55 19.2 28.3 12.45 51.55 6.25 76.2 4.45 104.25 2.3 134.15 5.9 L137.2 6.25 147.0 7.65 Q157.7 10.75 161.05 18.7" fill="#e63232" fill-rule="evenodd" stroke="none"/>
    <path d="M160.35 8.0 Q172.85 15.9 168.4 34.7 148.5 105.45 110.2 158.05 90.9 184.5 67.3 161.85 26.75 115.75 1.7 42.0 -5.3 17.35 16.1 9.85 45.05 2.35 75.95 0.6 104.15 -1.05 133.9 2.1 L136.95 2.4 151.8 4.35 Q156.75 5.75 160.35 8.0 M161.05 18.7 Q157.7 10.75 147.0 7.65 L137.2 6.25 134.15 5.9 Q104.25 2.3 76.2 4.45 51.55 6.25 28.3 12.45 9.55 19.2 15.7 41.45 37.65 107.95 73.2 149.55 93.8 170.0 110.7 146.2 144.2 98.85 161.55 35.0 163.8 25.2 161.05 18.7" fill="#bd3232" fill-rule="evenodd" stroke="none"/>
  </g>
</svg>
