<?xml version="1.0" encoding="UTF-8" standalone="no"?>
<svg xmlns:ffdec="https://www.free-decompiler.com/flash" xmlns:xlink="http://www.w3.org/1999/xlink" ffdec:objectType="shape" height="298.9px" width="291.85px" xmlns="http://www.w3.org/2000/svg">
  <g transform="matrix(1.0, 0.0, 0.0, 1.0, 19.3, 55.2)">
    <path d="M24.25 122.25 L19.35 122.5 Q21.3 117.1 21.3 112.3 21.3 105.45 17.95 100.7 13.7 94.75 5.55 94.75 1.0 94.75 -4.85 96.45 -6.6 82.5 -12.2 65.75 L-17.75 48.2 -19.3 41.1 143.8 -55.2 272.55 9.75 265.6 227.35 31.55 243.7 Q35.4 239.2 36.5 236.85 42.65 223.45 44.3 218.1 46.1 212.25 46.1 205.15 46.1 196.1 37.3 188.5 L35.95 187.4 41.55 183.25 Q53.3 174.7 57.85 164.6 60.8 158.05 60.8 150.05 60.8 138.65 50.75 130.6 40.25 122.25 24.25 122.25" fill="#66ff00" fill-rule="evenodd" stroke="none"/>
  </g>
</svg>
