<?xml version="1.0" encoding="UTF-8" standalone="no"?>
<svg xmlns:ffdec="https://www.free-decompiler.com/flash" xmlns:xlink="http://www.w3.org/1999/xlink" ffdec:objectType="shape" height="67.15px" width="76.35px" xmlns="http://www.w3.org/2000/svg">
  <g transform="matrix(1.0, 0.0, 0.0, 1.0, 38.2, 33.95)">
    <path d="M21.55 16.8 Q18.15 20.8 10.75 23.05 3.3 25.3 -3.95 22.75 -11.25 20.15 -15.3 15.05 5.1 19.95 21.55 16.8" fill="#e63232" fill-rule="evenodd" stroke="none"/>
    <path d="M30.95 11.25 Q26.95 21.65 16.6 27.4 4.75 33.95 -8.4 30.55 -21.55 27.15 -28.4 15.75 -30.65 11.9 -31.75 7.95 -25.65 9.55 -14.15 11.45 -2.65 13.35 10.5 13.0 23.65 12.65 30.95 11.25 M21.55 16.8 Q5.1 19.95 -15.3 15.05 -11.25 20.15 -3.95 22.75 3.3 25.3 10.75 23.05 18.15 20.8 21.55 16.8" fill="#bd3232" fill-rule="evenodd" stroke="none"/>
    <path d="M30.95 11.25 Q26.95 21.65 16.6 27.4 4.75 33.95 -8.4 30.55 -21.55 27.15 -28.4 15.75 -30.65 11.9 -31.75 7.95 -25.65 9.55 -14.15 11.45 -2.65 13.35 10.5 13.0 23.65 12.65 30.95 11.25 Z" fill="none" stroke="#323232" stroke-linecap="round" stroke-linejoin="round" stroke-width="3.0"/>
    <path d="M27.75 -18.35 L29.2 -16.15 Q32.9 -10.1 33.35 -4.55 L33.5 1.3 33.05 4.5 Q36.95 4.9 36.65 7.8 36.35 10.7 31.4 11.95 L28.15 12.85 24.85 13.6 24.0 13.75 Q4.55 17.0 -16.4 12.55 L-22.2 11.15 -31.65 8.65 Q-36.6 7.2 -36.7 4.3 -36.85 1.4 -33.45 1.15 -33.6 -3.55 -32.2 -8.4 -30.15 -15.95 -25.2 -21.35 L-25.0 -21.2 -25.7 -18.95 Q-29.25 -6.35 -24.5 0.4 -19.8 7.1 -14.25 9.35 -8.75 11.6 2.15 12.45 13.0 13.3 23.85 11.15 34.7 9.0 31.4 4.65 30.2 4.9 29.05 5.7 L27.75 6.4 Q30.75 -7.0 27.75 -18.35 M33.05 4.5 L31.4 4.65 33.05 4.5 M-30.25 2.15 Q-31.55 1.5 -33.45 1.15 -31.55 1.5 -30.25 2.15" fill="#bd3232" fill-rule="evenodd" stroke="none"/>
    <path d="M-25.2 -21.35 L-25.15 -21.35 Q-21.65 -25.25 -16.6 -28.05 -4.6 -34.75 8.85 -31.25 20.9 -28.15 27.75 -18.35 30.75 -7.0 27.75 6.4 L29.05 5.7 Q30.2 4.9 31.4 4.65 34.7 9.0 23.85 11.15 13.0 13.3 2.15 12.45 -8.75 11.6 -14.25 9.35 -19.8 7.1 -24.5 0.4 -29.25 -6.35 -25.7 -18.95 L-25.0 -21.2 -25.2 -21.35 M22.7 7.3 Q25.6 7.35 27.75 6.4 25.6 7.35 22.7 7.3" fill="#e63232" fill-rule="evenodd" stroke="none"/>
    <path d="M27.75 -18.35 L29.2 -16.15 Q32.9 -10.1 33.35 -4.55 L33.5 1.3 33.05 4.5 Q36.95 4.9 36.65 7.8 36.35 10.7 31.4 11.95 L28.15 12.85 24.85 13.6 24.0 13.75 Q4.55 17.0 -16.4 12.55 L-22.2 11.15 -31.65 8.65 Q-36.6 7.2 -36.7 4.3 -36.85 1.4 -33.45 1.15 -33.6 -3.55 -32.2 -8.4 -30.15 -15.95 -25.2 -21.35 L-25.15 -21.35 Q-21.65 -25.25 -16.6 -28.05 -4.6 -34.75 8.85 -31.25 20.9 -28.15 27.75 -18.35 M27.75 6.4 L29.05 5.7 Q30.2 4.9 31.4 4.65 L33.05 4.5 M-33.45 1.15 Q-31.55 1.5 -30.25 2.15 M27.75 6.4 Q25.6 7.35 22.7 7.3" fill="none" stroke="#323232" stroke-linecap="round" stroke-linejoin="round" stroke-width="3.0"/>
  </g>
</svg>
