<?xml version="1.0" encoding="UTF-8" standalone="no"?>
<svg xmlns:ffdec="https://www.free-decompiler.com/flash" xmlns:xlink="http://www.w3.org/1999/xlink" ffdec:objectType="shape" height="82.4px" width="70.9px" xmlns="http://www.w3.org/2000/svg">
  <g transform="matrix(1.0, 0.0, 0.0, 1.0, 3.65, 34.15)">
    <path d="M46.7 47.0 L3.45 36.5 Q8.3 14.85 -2.4 -12.7 L64.95 -32.9 Q70.45 13.35 46.7 47.0" fill="#713737" fill-rule="evenodd" stroke="none"/>
    <path d="M46.7 47.0 Q70.45 13.35 64.95 -32.9 L-2.4 -12.7 Q8.3 14.85 3.45 36.5 L46.7 47.0 Z" fill="none" stroke="#323232" stroke-linecap="round" stroke-linejoin="round" stroke-width="2.5"/>
    <path d="M60.4 27.9 Q62.65 30.3 64.95 33.5 61.6 37.05 55.45 41.9 30.25 42.45 28.6 39.35 26.9 36.2 27.2 34.6 27.45 33.0 28.1 31.3 28.8 29.55 32.8 25.6 36.8 21.6 46.05 20.85 53.1 20.25 60.4 27.9" fill="#e697d0" fill-rule="evenodd" stroke="none"/>
    <path d="M60.4 27.9 Q62.65 30.3 64.95 33.5 M55.45 41.9 Q30.25 42.45 28.6 39.35 26.9 36.2 27.2 34.6 27.45 33.0 28.1 31.3 28.8 29.55 32.8 25.6 36.8 21.6 46.05 20.85 53.1 20.25 60.4 27.9 L62.85 25.45" fill="none" stroke="#323232" stroke-linecap="round" stroke-linejoin="round" stroke-width="2.5"/>
  </g>
</svg>
