<?xml version="1.0" encoding="UTF-8" standalone="no"?>
<svg xmlns:ffdec="https://www.free-decompiler.com/flash" xmlns:xlink="http://www.w3.org/1999/xlink" ffdec:objectType="shape" height="24.45px" width="73.3px" xmlns="http://www.w3.org/2000/svg">
  <g transform="matrix(1.0, 0.0, 0.0, 1.0, 36.4, 33.95)">
    <path d="M29.1 -16.2 L29.35 -16.35 30.4 -16.75 31.05 -16.8 Q32.8 -14.75 29.95 -13.9 27.1 -13.1 14.9 -14.65 2.65 -16.2 -8.7 -15.15 -20.1 -14.1 -22.25 -16.7 -24.4 -19.3 -24.45 -22.15 L-24.35 -22.2 -22.9 -23.6 Q-20.15 -26.1 -16.6 -28.05 -4.6 -34.75 8.85 -31.25 19.45 -28.55 26.0 -20.65 L29.1 -16.2 Q27.6 -15.5 25.65 -15.55 27.6 -15.5 29.1 -16.2" fill="#e63232" fill-rule="evenodd" stroke="none"/>
    <path d="M31.05 -16.8 L31.65 -16.8 33.15 -16.55 Q35.4 -15.85 35.4 -13.65 35.35 -11.65 31.9 -11.25 L31.25 -11.2 17.65 -12.4 Q-5.8 -13.7 -28.35 -11.2 L-29.95 -11.05 -30.15 -11.05 Q-36.05 -11.05 -34.65 -13.95 -33.45 -16.45 -30.4 -16.4 L-30.35 -16.4 -28.95 -16.3 Q-27.85 -18.3 -26.3 -20.05 L-24.45 -22.15 Q-24.4 -19.3 -22.25 -16.7 -20.1 -14.1 -8.7 -15.15 2.65 -16.2 14.9 -14.65 27.1 -13.1 29.95 -13.9 32.8 -14.75 31.05 -16.8" fill="#bd3232" fill-rule="evenodd" stroke="none"/>
    <path d="M31.05 -16.8 L30.4 -16.75 29.35 -16.35 29.1 -16.2 Q27.6 -15.5 25.65 -15.55 M-24.45 -22.15 L-26.3 -20.05 Q-27.85 -18.3 -28.95 -16.3 L-30.35 -16.4 -30.4 -16.4 Q-33.45 -16.45 -34.65 -13.95 -36.05 -11.05 -30.15 -11.05 L-29.95 -11.05 -28.35 -11.2 Q-5.8 -13.7 17.65 -12.4 L31.25 -11.2 31.9 -11.25 Q35.35 -11.65 35.4 -13.65 35.4 -15.85 33.15 -16.55 L31.65 -16.8 31.05 -16.8 M-24.45 -22.15 L-24.35 -22.2 -22.9 -23.6 Q-20.15 -26.1 -16.6 -28.05 -4.6 -34.75 8.85 -31.25 19.45 -28.55 26.0 -20.65 L29.1 -16.2 M-28.35 -11.2 L-29.55 -11.05 -29.95 -11.05 -30.15 -11.0 -30.15 -11.05" fill="none" stroke="#323232" stroke-linecap="round" stroke-linejoin="round" stroke-width="3.0"/>
  </g>
</svg>
