<?xml version="1.0" encoding="UTF-8" standalone="no"?>
<svg xmlns:ffdec="https://www.free-decompiler.com/flash" xmlns:xlink="http://www.w3.org/1999/xlink" ffdec:objectType="shape" height="50.2px" width="105.8px" xmlns="http://www.w3.org/2000/svg">
  <g transform="matrix(1.0, 0.0, 0.0, 1.0, 34.15, 25.15)">
    <path d="M46.2 -23.05 Q70.9 -29.45 71.55 -16.3 72.15 -3.2 68.7 8.15 65.2 19.45 58.25 22.5 51.3 25.45 42.6 25.0 33.85 24.5 28.9 23.1 23.95 21.7 15.1 18.3 6.25 14.9 -1.45 11.35 -9.15 7.75 -19.45 5.35 -26.35 3.75 -30.9 5.75 L-34.15 -15.85 Q-30.85 -14.45 -24.65 -13.5 -11.3 -11.5 5.1 -14.1 21.45 -16.7 46.2 -23.05" fill="#ff0099" fill-rule="evenodd" stroke="none"/>
  </g>
</svg>
