<?xml version="1.0" encoding="UTF-8" standalone="no"?>
<svg xmlns:ffdec="https://www.free-decompiler.com/flash" xmlns:xlink="http://www.w3.org/1999/xlink" ffdec:objectType="shape" height="75.05px" width="128.6px" xmlns="http://www.w3.org/2000/svg">
  <g transform="matrix(1.0, 0.0, 0.0, 1.0, 32.45, 38.8)">
    <path d="M78.05 -37.55 Q90.35 14.2 76.15 32.2 L-31.2 17.45 Q-25.15 4.45 -28.95 -22.7 27.7 -33.6 78.05 -37.55" fill="#713737" fill-rule="evenodd" stroke="none"/>
    <path d="M78.05 -37.55 Q27.7 -33.6 -28.95 -22.7 -25.15 4.45 -31.2 17.45 L76.15 32.2 Q90.35 14.2 78.05 -37.55 Z" fill="none" stroke="#323232" stroke-linecap="round" stroke-linejoin="round" stroke-width="2.5"/>
    <path d="M41.8 15.6 Q39.4 12.6 40.3 11.05 L42.55 7.15 Q43.9 4.75 47.95 1.4 51.95 -1.95 64.25 -1.7 76.5 -1.45 94.9 10.0 95.25 32.1 76.7 35.0 67.1 14.35 59.45 13.0 44.15 18.55 41.8 15.6" fill="#e697d0" fill-rule="evenodd" stroke="none"/>
    <path d="M41.8 15.6 Q39.4 12.6 40.3 11.05 L42.55 7.15 Q43.9 4.75 47.95 1.4 51.95 -1.95 64.25 -1.7 76.5 -1.45 94.9 10.0 95.25 32.1 76.7 35.0 67.1 14.35 59.45 13.0 44.15 18.55 41.8 15.6 Z" fill="none" stroke="#323232" stroke-linecap="round" stroke-linejoin="round" stroke-width="2.5"/>
  </g>
</svg>
