<?xml version="1.0" encoding="UTF-8" standalone="no"?>
<svg xmlns:ffdec="https://www.free-decompiler.com/flash" xmlns:xlink="http://www.w3.org/1999/xlink" ffdec:objectType="shape" height="54.75px" width="111.9px" xmlns="http://www.w3.org/2000/svg">
  <g transform="matrix(1.0, 0.0, 0.0, 1.0, 39.0, 28.45)">
    <path d="M-31.15 19.5 Q-40.1 14.55 -34.95 8.75 -33.25 6.75 -30.9 5.75 -26.35 3.75 -19.45 5.35 -9.15 7.75 -1.45 11.35 L1.7 12.75 8.15 15.55 15.1 18.3 Q23.95 21.7 28.9 23.1 33.85 24.5 42.6 25.0 51.3 25.45 58.25 22.5 65.2 19.45 68.7 8.15 72.15 -3.2 71.55 -16.3 70.9 -29.45 46.2 -23.05 21.45 -16.7 5.1 -14.1 -11.3 -11.5 -24.65 -13.5 -30.85 -14.45 -34.15 -15.85 L-34.2 -15.85 Q-37.9 -17.45 -37.75 -19.6 -37.05 -24.4 -32.3 -27.2" fill="none" stroke="#323232" stroke-linecap="round" stroke-linejoin="round" stroke-width="2.5"/>
  </g>
</svg>
