<?xml version="1.0" encoding="UTF-8" standalone="no"?>
<svg xmlns:ffdec="https://www.free-decompiler.com/flash" xmlns:xlink="http://www.w3.org/1999/xlink" ffdec:objectType="shape" height="67.15px" width="78.1px" xmlns="http://www.w3.org/2000/svg">
  <g transform="matrix(1.0, 0.0, 0.0, 1.0, 39.5, 33.95)">
    <path d="M21.55 16.8 Q18.15 20.8 10.75 23.05 3.3 25.3 -3.95 22.75 -11.25 20.15 -15.3 15.05 5.1 19.95 21.55 16.8" fill="#e63232" fill-rule="evenodd" stroke="none"/>
    <path d="M30.95 11.25 Q26.95 21.65 16.6 27.4 4.75 33.95 -8.4 30.55 -21.55 27.15 -28.4 15.75 -30.65 11.9 -31.75 7.95 -25.65 9.55 -14.15 11.45 -2.65 13.35 10.5 13.0 23.65 12.65 30.95 11.25 M21.55 16.8 Q5.1 19.95 -15.3 15.05 -11.25 20.15 -3.95 22.75 3.3 25.3 10.75 23.05 18.15 20.8 21.55 16.8" fill="#bd3232" fill-rule="evenodd" stroke="none"/>
    <path d="M30.95 11.25 Q26.95 21.65 16.6 27.4 4.75 33.95 -8.4 30.55 -21.55 27.15 -28.4 15.75 -30.65 11.9 -31.75 7.95 -25.65 9.55 -14.15 11.45 -2.65 13.35 10.5 13.0 23.65 12.65 30.95 11.25 Z" fill="none" stroke="#323232" stroke-linecap="round" stroke-linejoin="round" stroke-width="3.0"/>
    <path d="M-25.2 -21.35 L-25.15 -21.35 -25.0 -21.2 -25.2 -21.35" fill="#c0b9b1" fill-rule="evenodd" stroke="none"/>
    <path d="M-25.15 -21.35 Q-21.65 -25.25 -16.6 -28.05 -4.6 -34.75 8.85 -31.25 20.2 -28.35 27.0 -19.4 31.3 -4.45 28.15 7.8 L29.5 7.1 Q30.65 6.35 31.9 6.15 35.25 10.1 23.85 11.65 L22.7 11.8 22.1 11.85 22.1 11.95 Q11.9 13.05 2.3 12.25 -8.45 11.35 -13.5 8.85 -18.55 6.3 -22.0 3.35 -25.45 0.4 -26.65 -2.6 -28.15 -10.25 -25.7 -18.95 L-25.0 -21.2 -25.15 -21.35 M24.1 9.0 Q26.35 8.8 28.15 7.8 26.35 8.8 24.1 9.0" fill="#e63232" fill-rule="evenodd" stroke="none"/>
    <path d="M27.0 -19.4 Q35.85 -7.7 33.65 6.0 37.9 6.55 36.9 9.5 35.85 12.4 27.2 14.1 18.5 15.8 9.35 15.9 0.2 16.0 -9.15 14.55 L-25.05 11.8 -34.75 9.55 Q-37.9 8.55 -38.0 5.8 -38.15 3.05 -34.65 2.85 -34.75 0.2 -34.25 -2.5 -33.55 -7.1 -31.85 -11.5 -30.15 -15.95 -25.2 -21.35 L-25.0 -21.2 -25.7 -18.95 Q-28.15 -10.25 -26.65 -2.6 -25.45 0.4 -22.0 3.35 -18.55 6.3 -13.5 8.85 -8.45 11.35 2.3 12.25 11.9 13.05 22.1 11.95 L22.1 11.85 22.7 11.8 23.85 11.65 Q35.25 10.1 31.9 6.15 30.65 6.35 29.5 7.1 L28.15 7.8 Q31.3 -4.45 27.0 -19.4 M31.9 6.15 L33.65 6.0 31.9 6.15 M-31.3 3.8 Q-32.65 3.15 -34.6 2.85 L-34.65 2.85 -34.6 2.85 Q-32.65 3.15 -31.3 3.8" fill="#bd3232" fill-rule="evenodd" stroke="none"/>
    <path d="M-25.15 -21.35 Q-21.65 -25.25 -16.6 -28.05 -4.6 -34.75 8.85 -31.25 20.2 -28.35 27.0 -19.4 35.85 -7.7 33.65 6.0 37.9 6.55 36.9 9.5 35.85 12.4 27.2 14.1 18.5 15.8 9.35 15.9 0.2 16.0 -9.15 14.55 L-25.05 11.8 -34.75 9.55 Q-37.9 8.55 -38.0 5.8 -38.15 3.05 -34.65 2.85 -34.75 0.2 -34.25 -2.5 -33.55 -7.1 -31.85 -11.5 -30.15 -15.95 -25.2 -21.35 L-25.15 -21.35 M31.9 6.15 Q30.65 6.35 29.5 7.1 L28.15 7.8 Q26.35 8.8 24.1 9.0 M-34.65 2.85 L-34.6 2.85 Q-32.65 3.15 -31.3 3.8 M33.65 6.0 L31.9 6.15" fill="none" stroke="#323232" stroke-linecap="round" stroke-linejoin="round" stroke-width="3.0"/>
  </g>
</svg>
