<?xml version="1.0" encoding="UTF-8" standalone="no"?>
<svg xmlns:ffdec="https://www.free-decompiler.com/flash" xmlns:xlink="http://www.w3.org/1999/xlink" ffdec:objectType="shape" height="27.9px" width="32.95px" xmlns="http://www.w3.org/2000/svg">
  <g transform="matrix(1.0, 0.0, 0.0, 1.0, 9.5, -10.7)">
    <path d="M7.95 36.65 Q9.75 24.15 -0.85 13.15 3.2 14.15 7.25 16.15 11.35 18.15 15.7 21.05 20.05 23.9 21.6 29.65 23.1 35.35 20.8 36.45 18.55 37.5 13.05 37.35 L7.95 36.65" fill="#713737" fill-rule="evenodd" stroke="none"/>
    <path d="M7.95 36.65 L13.05 37.35 Q18.55 37.5 20.8 36.45 23.1 35.35 21.6 29.65 20.05 23.9 15.7 21.05 11.35 18.15 7.25 16.15 3.2 14.15 -0.85 13.15 9.75 24.15 7.95 36.65 4.3 35.75 0.0 33.9 M-0.85 13.15 L-8.25 11.95" fill="none" stroke="#323232" stroke-linecap="round" stroke-linejoin="round" stroke-width="2.5"/>
  </g>
</svg>
