<?xml version="1.0" encoding="UTF-8" standalone="no"?>
<svg xmlns:ffdec="https://www.free-decompiler.com/flash" xmlns:xlink="http://www.w3.org/1999/xlink" ffdec:objectType="shape" height="38.5px" width="56.0px" xmlns="http://www.w3.org/2000/svg">
  <g transform="matrix(1.0, 0.0, 0.0, 1.0, 48.95, 23.3)">
    <path d="M2.45 -21.85 Q6.3 -20.95 5.75 -15.75 5.15 -10.55 3.05 -7.25 1.45 -4.9 0.55 -1.05 L-0.05 1.9 Q-0.2 6.65 -2.05 9.05 -3.95 11.45 -7.1 12.45 L-13.35 12.7 Q-16.4 11.9 -18.9 11.95 L-21.25 12.25 -28.25 13.5 Q-36.85 15.15 -43.05 10.7 -49.25 6.25 -47.2 -2.2 -45.2 -10.7 -36.6 -11.3 -28.0 -11.95 -22.8 -9.5 L-21.15 -8.85 -20.7 -8.75 -20.2 -8.65 -15.9 -7.85 Q-11.95 -7.2 -9.95 -11.85 -8.05 -16.55 -4.75 -19.65 -1.45 -22.8 2.45 -21.85" fill="#343541" fill-rule="evenodd" stroke="none"/>
    <path d="M2.45 -21.85 Q6.3 -20.95 5.75 -15.75 5.15 -10.55 3.05 -7.25 1.45 -4.9 0.55 -1.05 L-0.05 1.9 Q-0.2 6.65 -2.05 9.05 -3.95 11.45 -7.1 12.45 L-13.35 12.7 Q-16.4 11.9 -18.9 11.95 L-21.25 12.25 -28.25 13.5 Q-36.85 15.15 -43.05 10.7 -49.25 6.25 -47.2 -2.2 -45.2 -10.7 -36.6 -11.3 -28.0 -11.95 -22.8 -9.5 L-21.15 -8.85 -20.7 -8.75 -20.2 -8.65 -15.9 -7.85 Q-11.95 -7.2 -9.95 -11.85 -8.05 -16.55 -4.75 -19.65 -1.45 -22.8 2.45 -21.85 Z" fill="none" stroke="#323232" stroke-linecap="round" stroke-linejoin="round" stroke-width="2.5"/>
  </g>
</svg>
