<?xml version="1.0" encoding="UTF-8" standalone="no"?>
<svg xmlns:ffdec="https://www.free-decompiler.com/flash" xmlns:xlink="http://www.w3.org/1999/xlink" ffdec:objectType="shape" height="55.7px" width="110.45px" xmlns="http://www.w3.org/2000/svg">
  <g transform="matrix(1.0, 0.0, 0.0, 1.0, 45.9, 16.6)">
    <path d="M64.3 -16.6 Q66.65 13.7 47.8 27.75 28.95 41.8 4.9 38.45 L-22.75 34.65 -25.75 34.7 Q-6.3 22.9 -39.45 -12.35 L-33.95 -11.15 Q-23.25 -8.65 -7.35 -8.35 L23.3 -9.4 Q38.0 -10.7 64.3 -16.6 M-45.9 -12.95 L-45.9 -13.15 -43.85 -13.1 Q-43.7 -12.3 -45.9 -12.95" fill="#33ff00" fill-rule="evenodd" stroke="none"/>
    <path d="M-23.7 -11.5 L-23.75 -11.55 -23.8 -11.6 -23.85 -11.7 -23.7 -11.65 -23.55 -11.6 -23.6 -11.55 -23.65 -11.5 -23.7 -11.5" fill="#ff0099" fill-rule="evenodd" stroke="none"/>
  </g>
</svg>
