<?xml version="1.0" encoding="UTF-8" standalone="no"?>
<svg xmlns:ffdec="https://www.free-decompiler.com/flash" xmlns:xlink="http://www.w3.org/1999/xlink" ffdec:objectType="shape" height="50.3px" width="78.7px" xmlns="http://www.w3.org/2000/svg">
  <g transform="matrix(1.0, 0.0, 0.0, 1.0, 53.4, 74.0)">
    <path d="M-2.05 -57.6 Q-4.05 -53.05 -7.95 -52.3 L-14.65 -52.0 -19.5 -52.3 Q-24.4 -51.3 -25.45 -48.0 -20.8 -49.55 -16.45 -48.65 L-14.85 -48.25 -13.4 -48.4 Q-12.85 -48.45 -12.05 -47.8 L-12.95 -47.6 -8.85 -44.1 -8.85 -41.8 Q-8.9 -39.5 -11.6 -37.05 -14.3 -34.65 -18.35 -33.8 L-25.45 -33.5 Q-28.6 -34.05 -31.45 -35.1 -27.65 -36.35 -25.1 -37.7 -19.5 -40.6 -19.5 -44.05 L-19.5 -44.1 -25.25 -42.65 -26.35 -42.45 Q-31.25 -41.5 -33.55 -41.5 L-39.4 -41.9 Q-41.85 -41.9 -46.15 -44.2 -49.9 -46.15 -52.2 -49.05 -51.85 -51.6 -51.0 -53.3 -50.0 -55.2 -47.85 -56.9 -48.85 -60.25 -47.15 -63.25 -45.85 -65.55 -42.9 -67.7 -35.65 -73.0 -24.3 -73.0 -20.6 -73.0 -15.1 -70.65 -7.2 -67.2 -6.9 -61.4 -4.95 -61.2 -3.6 -60.1 -2.35 -59.1 -2.05 -57.6 M-7.8 -43.0 L-7.7 -42.85 -7.6 -42.7 -7.5 -42.5 -7.45 -42.45 -6.9 -41.3 -6.75 -40.9 Q-6.45 -40.1 -6.55 -39.7 -6.75 -39.0 -8.75 -44.0 L-7.8 -43.0 M-37.65 -33.3 L-37.65 -33.7 -36.65 -33.65 -36.3 -33.65 -37.65 -33.3 M-45.75 -58.35 L-47.85 -56.9 -45.75 -58.35 M-14.85 -48.25 L-12.95 -47.6 -14.85 -48.25 M-19.75 -45.65 L-19.75 -45.55 -19.7 -45.45 -19.75 -45.65" fill="url(#gradient0)" fill-rule="evenodd" stroke="none"/>
    <path d="M-2.05 -57.6 L-2.0 -56.75 Q-2.0 -50.65 -8.5 -46.8 L-10.2 -45.9 Q-11.45 -46.95 -12.95 -47.6 -11.45 -46.95 -10.2 -45.9 -8.8 -44.65 -7.8 -43.0 L-8.75 -44.0 Q-6.75 -39.0 -6.55 -39.7 -6.45 -40.1 -6.75 -40.9 L-6.4 -40.05 Q-6.05 -38.85 -6.05 -37.75 -6.05 -35.8 -6.7 -34.0 -7.55 -31.75 -9.35 -29.8 -14.15 -24.7 -24.2 -24.7 -34.3 -24.7 -36.85 -28.7 -37.55 -29.75 -37.65 -33.3 L-36.3 -33.65 -36.65 -33.65 -37.65 -33.7 Q-44.2 -33.95 -48.45 -37.65 -52.4 -41.15 -52.4 -45.5 L-52.2 -49.05 Q-49.9 -46.15 -46.15 -44.2 -41.85 -41.9 -39.4 -41.9 L-33.55 -41.5 Q-31.25 -41.5 -26.35 -42.45 L-25.25 -42.65 -19.5 -44.1 -19.5 -44.05 Q-19.5 -40.6 -25.1 -37.7 -27.65 -36.35 -31.45 -35.1 -28.6 -34.05 -25.45 -33.5 L-18.35 -33.8 Q-14.3 -34.65 -11.6 -37.05 -8.9 -39.5 -8.85 -41.8 L-8.85 -44.1 -12.95 -47.6 -12.05 -47.8 Q-12.85 -48.45 -13.4 -48.4 L-14.85 -48.25 -16.45 -48.65 Q-20.8 -49.55 -25.45 -48.0 -24.4 -51.3 -19.5 -52.3 L-14.65 -52.0 -7.95 -52.3 Q-4.05 -53.05 -2.05 -57.6 M-19.75 -45.65 L-19.7 -45.45 -19.75 -45.55 -19.75 -45.65 M-36.3 -33.65 L-32.6 -34.1 -32.2 -34.2 -32.6 -34.1 -36.3 -33.65" fill="url(#gradient1)" fill-rule="evenodd" stroke="none"/>
    <path d="M-10.2 -45.9 L-8.5 -46.8 Q-2.0 -50.65 -2.0 -56.75 L-2.05 -57.6 Q-2.35 -59.1 -3.6 -60.1 -4.95 -61.2 -6.9 -61.4 -7.2 -67.2 -15.1 -70.65 -20.6 -73.0 -24.3 -73.0 -35.65 -73.0 -42.9 -67.7 -45.85 -65.55 -47.15 -63.25 -48.85 -60.25 -47.85 -56.9 L-45.75 -58.35 M-16.45 -48.65 L-14.85 -48.25 -12.95 -47.6 Q-11.45 -46.95 -10.2 -45.9 -8.8 -44.65 -7.8 -43.0 L-7.7 -42.85 -7.6 -42.7 -7.5 -42.5 -7.45 -42.45 -6.9 -41.3 -6.75 -40.9 -6.4 -40.05 Q-6.05 -38.85 -6.05 -37.75 -6.05 -35.8 -6.7 -34.0 -7.55 -31.75 -9.35 -29.8 -14.15 -24.7 -24.2 -24.7 -34.3 -24.7 -36.85 -28.7 -37.55 -29.75 -37.65 -33.3 L-37.65 -33.7 Q-44.2 -33.95 -48.45 -37.65 -52.4 -41.15 -52.4 -45.5 L-52.2 -49.05 Q-51.85 -51.6 -51.0 -53.3 -50.0 -55.2 -47.85 -56.9 M-36.3 -33.65 L-36.65 -33.65 -37.65 -33.7 M-32.2 -34.2 L-32.6 -34.1 -36.3 -33.65" fill="none" stroke="#5c6775" stroke-linecap="round" stroke-linejoin="round" stroke-width="2.0"/>
    <path d="M11.0 -45.55 L17.5 -44.5 -25.1 -42.5 Q1.85 -45.7 11.0 -45.55 M21.7 -46.95 Q15.3 -46.6 2.9 -46.45 L-29.75 -46.1 -19.85 -47.2 -14.35 -47.55 Q-18.95 -48.1 -22.35 -49.3 L13.4 -50.25 25.3 -49.3 11.3 -47.7 21.7 -46.95 M18.25 -51.85 L13.75 -51.2 Q-26.75 -50.85 -34.7 -53.55 2.15 -54.15 18.25 -51.85" fill="url(#gradient2)" fill-rule="evenodd" stroke="none"/>
  </g>
  <defs>
    <radialGradient cx="0" cy="0" gradientTransform="matrix(0.0403, 0.0, 0.0, -0.0403, -31.65, -38.2)" gradientUnits="userSpaceOnUse" id="gradient0" r="819.2" spreadMethod="pad">
      <stop offset="0.26666666666666666" stop-color="#ffffff"/>
      <stop offset="0.8980392156862745" stop-color="#bed4e7"/>
    </radialGradient>
    <radialGradient cx="0" cy="0" gradientTransform="matrix(0.0403, 0.0, 0.0, -0.0403, -31.65, -38.2)" gradientUnits="userSpaceOnUse" id="gradient1" r="819.2" spreadMethod="pad">
      <stop offset="0.24705882352941178" stop-color="#cddeed"/>
      <stop offset="0.8823529411764706" stop-color="#97afc5"/>
    </radialGradient>
    <radialGradient cx="0" cy="0" gradientTransform="matrix(-0.0409, 0.0, 0.0, -0.0386, -11.25, -47.55)" gradientUnits="userSpaceOnUse" id="gradient2" r="819.2" spreadMethod="pad">
      <stop offset="0.11372549019607843" stop-color="#cddeed"/>
      <stop offset="0.9058823529411765" stop-color="#ffffff"/>
    </radialGradient>
  </defs>
</svg>
