<?xml version="1.0" encoding="UTF-8" standalone="no"?>
<svg xmlns:ffdec="https://www.free-decompiler.com/flash" xmlns:xlink="http://www.w3.org/1999/xlink" ffdec:objectType="shape" height="189.3px" width="263.05px" xmlns="http://www.w3.org/2000/svg">
  <g transform="matrix(1.0, 0.0, 0.0, 1.0, 149.4, 21.3)">
    <path d="M-55.05 -9.5 Q-53.35 -16.75 -36.3 -19.3 -19.0 -21.8 3.75 -17.95 26.55 -14.1 41.6 -6.15 56.45 1.8 55.2 9.1 L32.7 118.6 Q28.65 116.3 20.7 113.75 4.25 108.5 -19.55 104.85 -43.25 101.25 -60.3 101.45 -69.8 101.55 -74.1 102.85 L-55.45 -6.95 -55.25 -8.25 -55.1 -8.95 -55.25 -8.25 -55.3 -7.9 -55.2 -8.65 -55.1 -8.95 -55.05 -9.5" fill="url(#gradient0)" fill-rule="evenodd" stroke="none"/>
    <path d="M-147.9 105.85 L-148.35 104.2 Q-149.2 98.2 -138.75 96.1 -115.35 93.2 -77.7 106.0 L-77.7 106.05 -81.85 127.8 Q-138.8 122.35 -147.9 105.85" fill="url(#gradient1)" fill-rule="evenodd" stroke="none"/>
    <path d="M-148.25 105.9 L-147.9 105.85 Q-138.8 122.35 -81.85 127.8 -39.2 131.9 30.4 129.75 L34.35 129.65 59.05 128.65 59.35 128.65 Q103.9 127.7 112.55 147.75 115.4 167.3 36.95 167.0 38.35 159.4 30.8 152.55 -8.75 128.6 -106.7 141.05 -144.3 127.3 -148.25 105.9 M46.45 160.45 L30.8 152.55 46.45 160.45" fill="url(#gradient2)" fill-rule="evenodd" stroke="none"/>
    <path d="M-55.05 -9.5 Q-53.35 -16.75 -36.3 -19.3 -19.0 -21.8 3.75 -17.95 26.55 -14.1 41.6 -6.15 56.45 1.8 55.2 9.1 L32.7 118.6 M-74.1 102.85 L-55.45 -6.95 -55.3 -7.9 M-55.2 -8.65 L-55.1 -9.3 -55.05 -9.5 M-55.1 -8.95 L-55.25 -8.25 M-148.35 104.2 L-148.25 105.9 Q-144.3 127.3 -106.7 141.05 M-147.9 105.85 L-148.35 104.2 Q-149.2 98.2 -138.75 96.1 -115.35 93.2 -77.7 106.0 L-77.7 105.65 -77.45 104.9 -77.7 106.0 -77.7 106.05 M34.35 129.65 L59.05 128.65 59.35 128.65 Q103.9 127.7 112.55 147.75 115.4 167.3 36.95 167.0 M-81.85 127.8 Q-138.8 122.35 -147.9 105.85" fill="none" stroke="#1d242e" stroke-linecap="round" stroke-linejoin="round" stroke-width="2.0"/>
    <path d="M36.95 167.0 Q38.35 159.4 30.8 152.55 -8.75 128.6 -106.7 141.05 M30.8 152.55 L46.45 160.45" fill="none" stroke="#323232" stroke-linecap="round" stroke-linejoin="round" stroke-width="2.0"/>
    <path d="M-77.45 104.9 Q-76.75 103.65 -74.1 102.85 -69.8 101.55 -60.3 101.45 -43.25 101.25 -19.55 104.85 4.25 108.5 20.7 113.75 28.65 116.3 32.7 118.6 34.5 119.55 35.5 120.5 L34.35 129.65 30.4 129.75 Q-39.2 131.9 -81.85 127.8 L-77.7 106.05 -77.7 106.0 -77.45 104.9" fill="url(#gradient3)" fill-rule="evenodd" stroke="none"/>
    <path d="M-77.45 104.9 Q-76.75 103.65 -74.1 102.85 -69.8 101.55 -60.3 101.45 -43.25 101.25 -19.55 104.85 4.25 108.5 20.7 113.75 28.65 116.3 32.7 118.6 34.5 119.55 35.5 120.5 L34.35 129.65 30.4 129.75 Q-39.2 131.9 -81.85 127.8 L-77.7 106.05" fill="none" stroke="#1d242e" stroke-linecap="round" stroke-linejoin="round" stroke-width="2.0"/>
    <path d="M-77.45 104.9 Q-76.75 103.65 -74.1 102.85 -69.8 101.55 -60.3 101.45 -43.25 101.25 -19.55 104.85 4.25 108.5 20.7 113.75 28.65 116.3 32.7 118.6 34.5 119.55 35.5 120.5 L34.35 129.65 30.4 129.75 Q-39.2 131.9 -81.85 127.8 L-77.7 106.05 -77.7 106.0 -77.45 104.9" fill="url(#gradient4)" fill-rule="evenodd" stroke="none"/>
    <path d="M-77.45 104.9 Q-76.75 103.65 -74.1 102.85 -69.8 101.55 -60.3 101.45 -43.25 101.25 -19.55 104.85 4.25 108.5 20.7 113.75 28.65 116.3 32.7 118.6 34.5 119.55 35.5 120.5 L34.35 129.65 30.4 129.75 Q-39.2 131.9 -81.85 127.8 L-77.7 106.05" fill="none" stroke="#1d242e" stroke-linecap="round" stroke-linejoin="round" stroke-width="2.0"/>
    <path d="M112.55 149.2 Q103.9 129.15 59.35 130.1 L59.05 130.1 34.35 131.1 30.4 131.2 Q-39.2 133.35 -81.85 129.25 -138.8 123.8 -147.9 107.3 L-148.35 105.65 Q-149.2 99.65 -138.75 97.55 -115.8 94.7 -79.15 106.95" fill="none" stroke="#6869a8" stroke-linecap="round" stroke-linejoin="round" stroke-width="2.0"/>
  </g>
  <defs>
    <linearGradient gradientTransform="matrix(0.1016, 0.0125, -0.1224, 0.9921, 6.0, 0.4)" gradientUnits="userSpaceOnUse" id="gradient0" spreadMethod="pad" x1="-819.2" x2="819.2">
      <stop offset="0.0" stop-color="#151424"/>
      <stop offset="0.396078431372549" stop-color="#4d4d88"/>
      <stop offset="1.0" stop-color="#151424"/>
    </linearGradient>
    <radialGradient cx="0" cy="0" gradientTransform="matrix(-0.0138, 0.0517, -0.1208, -0.0324, -82.7, 132.9)" gradientUnits="userSpaceOnUse" id="gradient1" r="819.2" spreadMethod="pad">
      <stop offset="0.0" stop-color="#0d0f1e"/>
      <stop offset="0.5333333333333333" stop-color="#2a2f4c"/>
    </radialGradient>
    <radialGradient cx="0" cy="0" gradientTransform="matrix(-0.0085, 0.0751, -0.2624, -0.0295, -19.95, 168.55)" gradientUnits="userSpaceOnUse" id="gradient2" r="819.2" spreadMethod="pad">
      <stop offset="0.24313725490196078" stop-color="#2a2f4c"/>
      <stop offset="0.5019607843137255" stop-color="#1a1d32"/>
    </radialGradient>
    <linearGradient gradientTransform="matrix(0.0659, 0.0067, -0.1014, 0.9945, -16.7, -0.45)" gradientUnits="userSpaceOnUse" id="gradient3" spreadMethod="pad" x1="-819.2" x2="819.2">
      <stop offset="0.050980392156862744" stop-color="#84651e"/>
      <stop offset="0.49019607843137253" stop-color="#f7e5a3"/>
      <stop offset="0.8509803921568627" stop-color="#9f7a24"/>
    </linearGradient>
    <linearGradient gradientTransform="matrix(0.0659, 0.0067, -0.1014, 0.9945, -16.7, -0.45)" gradientUnits="userSpaceOnUse" id="gradient4" spreadMethod="pad" x1="-819.2" x2="819.2">
      <stop offset="0.050980392156862744" stop-color="#84651e"/>
      <stop offset="0.49019607843137253" stop-color="#f7e5a3"/>
      <stop offset="0.8509803921568627" stop-color="#9f7a24"/>
    </linearGradient>
  </defs>
</svg>
