<?xml version="1.0" encoding="UTF-8" standalone="no"?>
<svg xmlns:ffdec="https://www.free-decompiler.com/flash" xmlns:xlink="http://www.w3.org/1999/xlink" ffdec:objectType="shape" height="69.3px" width="88.9px" xmlns="http://www.w3.org/2000/svg">
  <g transform="matrix(1.0, 0.0, 0.0, 1.0, -126.85, -11.5)">
    <path d="M129.75 14.95 Q127.9 12.7 132.25 11.65 136.65 10.85 141.45 14.0 L143.7 15.1 190.15 43.05 Q194.75 45.95 199.15 49.1 L200.35 49.95 Q204.6 53.1 208.6 56.75 L213.25 61.85 213.25 61.9 Q217.75 68.65 214.1 75.1 210.45 81.5 205.15 80.7 199.9 79.85 190.3 69.3 180.7 58.75 165.75 47.1 156.2 39.6 146.15 32.55 L139.4 27.85 126.85 19.1 Q126.75 17.55 128.0 17.45 L150.2 32.85 163.35 42.55 Q171.65 48.7 179.85 55.7 188.05 62.65 195.0 70.2 201.9 77.7 205.75 77.35 209.55 77.0 211.7 73.4 214.5 67.5 210.4 61.85 205.35 56.7 199.7 52.35 194.55 48.4 188.9 45.05 L142.8 17.1 Q135.8 11.9 129.75 14.95 M211.7 73.4 L211.75 73.4 211.7 73.4" fill="#323232" fill-rule="evenodd" stroke="none"/>
    <path d="M211.7 73.4 L211.75 73.4 211.7 73.4" fill="#bd1c1c" fill-rule="evenodd" stroke="none"/>
    <path d="M211.7 73.4 Q209.55 77.0 205.75 77.35 201.9 77.7 195.0 70.2 188.05 62.65 179.85 55.7 171.65 48.7 163.35 42.55 L150.2 32.85 128.0 17.45 129.6 15.15 129.45 15.1 129.55 15.05 129.75 14.95 175.55 46.75 Q184.8 52.85 190.15 58.1 195.45 63.3 202.55 68.6 207.85 72.55 211.7 73.4 M129.75 15.0 L130.1 15.35 129.75 14.95 129.75 15.0" fill="#bd3232" fill-rule="evenodd" stroke="none"/>
    <path d="M129.75 14.95 Q135.8 11.9 142.8 17.1 L188.9 45.05 Q194.55 48.4 199.7 52.35 205.35 56.7 210.4 61.85 214.5 67.5 211.7 73.4 207.85 72.55 202.55 68.6 195.45 63.3 190.15 58.1 184.8 52.85 175.55 46.75 L129.75 14.95 130.1 15.35 129.75 15.0 129.75 14.95" fill="#e63232" fill-rule="evenodd" stroke="none"/>
  </g>
</svg>
