<?xml version="1.0" encoding="UTF-8" standalone="no"?>
<svg xmlns:ffdec="https://www.free-decompiler.com/flash" xmlns:xlink="http://www.w3.org/1999/xlink" ffdec:objectType="shape" height="46.55px" width="29.7px" xmlns="http://www.w3.org/2000/svg">
  <g transform="matrix(1.0, 0.0, 0.0, 1.0, 48.15, 23.0)">
    <path d="M-32.8 -5.0 Q-26.25 -5.4 -22.9 -2.35 -19.65 0.65 -20.2 3.1 -20.75 5.55 -22.65 7.3 -24.6 8.95 -30.5 8.35 -36.4 7.7 -38.35 4.55 -40.4 1.35 -38.85 -1.25 -37.25 -3.85 -32.8 -5.0" fill="#323232" fill-rule="evenodd" stroke="none"/>
    <path d="M-31.15 22.3 Q-32.25 16.7 -37.25 14.9 -42.25 13.1 -45.05 9.15 -47.85 5.2 -46.45 -1.95 -44.95 -9.2 -37.4 -10.95 L-24.7 -13.8 Q-19.65 -14.85 -19.7 -21.75" fill="none" stroke="#323232" stroke-linecap="round" stroke-linejoin="round" stroke-width="2.5"/>
  </g>
</svg>
