<?xml version="1.0" encoding="UTF-8" standalone="no"?>
<svg xmlns:ffdec="https://www.free-decompiler.com/flash" xmlns:xlink="http://www.w3.org/1999/xlink" ffdec:objectType="shape" height="45.7px" width="11.8px" xmlns="http://www.w3.org/2000/svg">
  <g transform="matrix(1.0, 0.0, 0.0, 1.0, -25.85, -34.9)">
    <path d="M37.65 43.65 Q35.75 47.35 34.95 51.3 34.15 55.1 34.45 58.8 L34.4 59.0 Q33.8 57.25 33.65 54.7 33.5 52.65 35.0 48.5 36.5 44.3 37.65 43.65 M31.85 37.85 L29.4 40.95 29.25 40.9 31.3 37.4 Q32.65 35.55 35.2 34.9 33.35 35.95 31.85 37.85 M26.45 67.75 L26.7 68.2 26.85 68.7 27.35 69.95 27.8 71.4 Q27.95 73.55 34.0 80.6 31.5 79.65 28.95 75.2 26.7 71.1 26.5 68.25 L26.25 67.3 25.9 66.35 25.85 65.1 26.05 65.1 26.45 67.75" fill="#fceee9" fill-opacity="0.2" fill-rule="evenodd" stroke="none"/>
  </g>
</svg>
