<?xml version="1.0" encoding="UTF-8" standalone="no"?>
<svg xmlns:ffdec="https://www.free-decompiler.com/flash" xmlns:xlink="http://www.w3.org/1999/xlink" ffdec:objectType="shape" height="25.7px" width="44.65px" xmlns="http://www.w3.org/2000/svg">
  <g transform="matrix(1.0, 0.0, 0.0, 1.0, 36.4, 23.3)">
    <path d="M0.7 -0.6 Q-4.25 0.75 -15.35 1.1 -26.5 1.4 -31.0 -1.2 -35.5 -3.85 -35.1 -8.65 -34.7 -13.5 -30.55 -17.0 -26.4 -20.55 -22.45 -21.15 L-15.15 -21.95 -7.2 -21.45 Q-2.6 -20.7 0.45 -17.95 3.5 -15.2 5.65 -10.7 7.7 -6.2 6.65 -4.05 5.6 -1.95 0.7 -0.6" fill="#343541" fill-rule="evenodd" stroke="none"/>
    <path d="M0.7 -0.6 Q-4.25 0.75 -15.35 1.1 -26.5 1.4 -31.0 -1.2 -35.5 -3.85 -35.1 -8.65 -34.7 -13.5 -30.55 -17.0 -26.4 -20.55 -22.45 -21.15 L-15.15 -21.95 -7.2 -21.45 Q-2.6 -20.7 0.45 -17.95 3.5 -15.2 5.65 -10.7 7.7 -6.2 6.65 -4.05 5.6 -1.95 0.7 -0.6 Z" fill="none" stroke="#323232" stroke-linecap="round" stroke-linejoin="round" stroke-width="2.5"/>
  </g>
</svg>
