<?xml version="1.0" encoding="UTF-8" standalone="no"?>
<svg xmlns:ffdec="https://www.free-decompiler.com/flash" xmlns:xlink="http://www.w3.org/1999/xlink" ffdec:objectType="shape" height="65.5px" width="67.95px" xmlns="http://www.w3.org/2000/svg">
  <g transform="matrix(1.0, 0.0, 0.0, 1.0, 33.8, 32.8)">
    <path d="M28.6 -15.85 Q35.5 -4.5 31.95 8.2 L31.25 10.4 Q27.35 21.4 16.6 27.4 4.75 33.95 -8.4 30.55 -21.55 27.15 -28.4 15.75 -35.15 4.35 -31.6 -8.25 -29.75 -15.0 -25.5 -20.0 -21.8 -24.45 -16.3 -27.5 -4.5 -34.05 8.65 -30.65 21.8 -27.25 28.6 -15.85" fill="url(#gradient0)" fill-rule="evenodd" stroke="none"/>
    <path d="M0.3 -27.3 Q0.3 -28.3 0.7 -28.95 1.2 -29.7 2.6 -30.3 L2.75 -30.05 1.5 -28.65 Q1.05 -28.25 1.05 -27.6 1.05 -27.3 2.6 -26.15 4.1 -25.0 4.1 -24.15 L3.2 -21.2 2.1 -17.75 1.95 -17.7 1.95 -19.35 Q1.95 -20.45 2.1 -21.0 L3.0 -22.8 Q3.45 -23.35 3.45 -24.15 3.45 -24.8 1.9 -25.85 0.3 -26.9 0.3 -27.3 M14.9 -27.0 L14.0 -26.2 Q12.95 -25.3 12.6 -24.15 L12.6 -22.7 Q12.45 -21.6 11.3 -21.6 L10.45 -21.8 9.7 -22.05 Q8.8 -22.05 8.0 -20.35 L7.6 -19.2 7.85 -20.8 Q8.45 -22.55 11.4 -22.35 L12.0 -25.1 Q12.75 -26.8 14.85 -27.3 L14.9 -27.0 M20.1 -23.85 L20.25 -23.75 20.25 -23.45 19.5 -22.7 Q18.75 -22.2 18.75 -21.6 20.1 -19.0 20.1 -18.0 20.1 -16.0 19.15 -14.9 17.9 -13.45 14.45 -12.3 L14.4 -12.35 Q14.45 -12.95 16.45 -13.5 18.45 -14.05 18.65 -14.85 L19.1 -16.55 19.0 -16.45 Q18.5 -15.9 18.05 -15.9 17.15 -15.9 15.65 -16.65 L13.95 -17.55 Q13.65 -16.5 10.55 -14.55 12.55 -18.05 14.5 -17.65 L17.85 -16.5 Q18.15 -16.5 18.65 -16.85 L19.25 -17.3 19.25 -17.85 18.75 -19.85 18.4 -20.65 18.0 -21.6 Q18.0 -22.15 18.55 -22.85 19.2 -23.7 20.1 -23.85 M6.9 -18.0 L7.3 -18.55 7.05 -17.9 6.9 -18.0 M19.1 -9.0 L20.25 -9.75 18.3 -8.1 19.1 -9.0 M22.95 -13.5 Q22.95 -16.45 27.3 -16.05 L27.45 -15.75 Q27.45 -15.5 25.65 -15.15 23.85 -14.85 23.85 -13.6 L24.15 -12.05 Q24.15 -10.55 21.65 -10.2 L22.85 -10.95 23.55 -11.75 23.25 -12.55 Q22.95 -12.95 22.95 -13.5 M22.5 -6.15 Q25.35 -5.35 25.65 -4.35 L26.4 -2.35 26.75 -2.7 27.75 -4.05 Q29.05 -5.35 31.35 -2.4 L31.2 -2.25 30.1 -2.85 Q29.4 -3.3 28.25 -3.3 L27.35 -2.25 Q26.45 -1.2 25.95 -1.2 24.75 -1.2 22.8 -1.75 L20.25 -2.4 20.25 -2.55 21.25 -2.55 23.35 -2.25 25.45 -1.95 26.05 -2.1 Q25.6 -2.3 25.3 -2.8 24.95 -3.35 24.95 -3.75 24.35 -6.05 22.05 -5.7 L21.8 -5.7 22.5 -6.15 M28.05 5.55 L29.2 6.9 29.85 8.25 29.7 8.35 29.4 8.4 28.2 7.0 Q27.2 5.55 26.4 5.55 26.0 5.55 25.5 5.95 L23.85 6.3 23.65 6.25 22.9 6.45 Q22.35 6.45 21.95 6.1 21.5 5.75 20.55 5.75 20.0 5.75 19.55 6.15 L18.75 6.65 Q19.65 5.4 21.15 5.65 L22.85 6.0 21.7 5.5 19.1 4.2 21.7 4.95 23.85 5.55 Q24.6 5.55 25.6 4.8 26.15 4.4 28.05 5.55 M25.0 10.05 Q25.8 11.35 25.8 13.45 L26.0 14.25 26.7 15.0 26.85 15.0 26.4 15.15 Q25.4 15.15 25.15 13.75 L25.1 11.4 25.0 10.05 M20.85 18.6 L18.2 18.55 Q15.95 18.45 15.95 17.85 15.2 16.05 15.2 15.6 L14.5 14.65 Q13.8 13.75 13.8 13.0 L13.85 12.6 14.0 12.6 14.5 13.45 14.85 14.3 16.05 16.7 Q16.05 17.4 16.95 17.45 16.95 16.75 18.0 15.8 19.05 14.9 19.05 13.35 L18.15 11.65 Q17.25 10.0 17.25 9.35 L17.35 9.1 17.6 9.15 18.65 11.2 Q19.55 13.0 19.55 13.5 19.55 14.7 18.8 15.7 L17.5 17.5 18.9 17.4 Q20.7 17.4 21.6 17.9 22.2 18.25 22.2 18.65 L22.0 19.6 21.65 20.45 Q21.2 20.3 21.3 19.55 21.4 18.8 20.85 18.6 M17.75 8.0 L17.85 7.8 Q22.4 7.05 24.45 9.25 22.95 8.65 17.85 8.4 L17.75 8.0 M8.55 17.85 Q8.55 18.8 8.8 19.5 L9.0 20.55 Q9.0 23.55 12.3 23.55 13.6 23.55 13.95 24.5 L14.1 25.5 13.95 26.45 13.8 26.7 Q13.45 26.45 13.2 25.35 13.05 24.6 11.75 24.6 10.0 24.6 9.1 23.5 L7.55 23.05 Q6.15 22.6 6.0 22.35 L8.85 23.1 8.4 22.05 Q8.25 21.4 8.25 18.25 8.25 17.85 8.55 17.85 M1.75 19.55 Q1.85 18.4 2.25 18.05 L2.3 18.75 Q2.3 20.55 1.65 21.5 1.0 22.45 -1.1 23.85 L-1.1 24.15 Q-1.1 25.85 -1.7 26.65 L-3.65 29.55 -3.95 29.55 -4.05 29.3 -3.0 26.95 Q-1.95 24.9 -1.95 23.85 L-1.8 21.1 Q-1.5 19.45 -0.3 18.6 L-1.25 20.1 -1.5 21.25 -1.3 22.75 -1.15 23.7 1.4 21.05 1.75 19.55 M-10.65 -25.95 L-9.75 -23.85 -6.15 -22.3 -5.5 -21.95 Q-2.1 -22.35 -2.1 -20.75 L-1.7 -19.35 -1.2 -17.85 -1.35 -17.7 Q-1.95 -18.35 -2.35 -19.55 L-3.0 -21.45 -5.05 -21.6 Q-4.5 -21.05 -4.5 -20.2 L-4.65 -17.3 -4.85 -16.35 Q-5.25 -16.55 -5.4 -17.9 L-5.1 -20.4 Q-5.1 -21.15 -7.35 -21.9 -9.9 -22.75 -10.4 -23.55 L-10.95 -25.45 Q-11.4 -26.55 -13.2 -26.9 L-13.2 -27.15 Q-11.35 -27.35 -10.65 -25.95 M-22.05 -17.25 L-18.3 -18.35 Q-15.15 -19.15 -14.25 -17.85 L-12.55 -15.7 Q-11.25 -14.1 -11.1 -13.4 L-11.15 -13.25 Q-12.4 -14.1 -15.5 -18.0 L-18.35 -17.55 -18.9 -17.25 -19.2 -16.65 -17.65 -15.1 Q-16.1 -13.75 -16.1 -12.65 L-16.35 -10.8 -16.4 -10.7 Q-16.9 -11.1 -16.9 -12.05 L-17.1 -13.5 -18.6 -14.9 Q-19.8 -15.9 -19.8 -16.35 -19.8 -17.0 -19.15 -17.4 L-22.2 -16.65 -25.1 -17.15 Q-26.1 -17.55 -26.25 -18.15 L-26.25 -18.3 Q-25.35 -17.8 -24.85 -17.6 L-22.05 -17.25 M-23.5 -7.5 Q-24.3 -6.9 -25.05 -6.9 L-28.9 -7.45 Q-30.05 -7.85 -30.35 -8.15 L-30.35 -8.45 -30.05 -8.6 Q-28.2 -7.65 -25.5 -7.65 L-22.8 -8.6 -19.8 -8.45 Q-18.9 -8.3 -17.85 -7.25 -16.65 -6.0 -16.05 -5.7 L-16.05 -5.45 -16.35 -5.4 Q-16.6 -5.4 -18.4 -6.75 -20.15 -8.1 -21.35 -8.1 -22.65 -8.1 -23.5 -7.5 M-26.25 -2.25 Q-26.55 -2.55 -27.8 -3.2 L-29.6 -4.2 Q-27.1 -3.6 -25.8 -2.85 L-25.55 -1.65 Q-25.45 -0.85 -24.85 -0.4 L-24.1 -0.25 -18.9 0.15 -18.6 0.45 Q-19.1 1.25 -20.3 1.1 L-24.15 0.65 -26.45 0.15 Q-27.55 0.15 -29.5 1.3 L-31.95 2.85 -32.25 2.75 Q-31.75 1.4 -27.8 -0.3 L-25.35 -0.45 -25.8 -1.1 -26.25 -2.25 M-9.45 -19.5 Q-9.9 -19.2 -10.4 -19.2 L-13.9 -19.65 -15.3 -20.1 Q-16.15 -20.1 -16.65 -19.6 L-17.3 -18.9 -17.4 -19.2 -15.45 -20.55 Q-14.8 -20.7 -13.65 -20.15 -12.3 -19.55 -9.75 -19.65 L-9.45 -19.5 M-13.65 10.85 L-15.6 13.35 Q-16.5 14.4 -16.35 14.8 L-16.05 15.9 Q-16.05 17.55 -18.0 17.9 -19.95 18.25 -19.95 20.4 L-19.7 21.85 -19.35 23.25 -19.35 23.4 -19.65 23.4 Q-20.1 23.4 -20.55 21.6 -20.55 18.1 -18.8 17.55 -17.1 17.0 -17.1 14.9 -17.1 13.15 -13.65 10.8 L-13.65 10.85 M-16.35 8.55 Q-16.35 10.55 -20.6 11.6 -24.9 12.6 -24.9 13.7 L-24.75 16.15 -24.45 18.15 -24.75 18.2 Q-25.6 18.2 -25.55 13.95 -25.55 12.55 -25.1 12.2 -24.7 11.85 -23.4 11.6 -23.5 10.5 -23.9 9.85 -24.3 9.2 -24.3 8.45 -24.3 7.8 -23.7 7.7 -22.6 7.45 -21.45 6.2 L-18.95 3.75 Q-19.25 4.55 -20.55 5.95 -22.0 7.5 -22.8 7.5 -23.85 7.5 -23.85 8.85 L-23.4 9.8 -22.95 10.8 -22.95 11.5 -20.85 11.1 Q-19.35 10.9 -18.05 9.7 L-16.5 7.95 -16.35 8.55 M-11.8 15.7 Q-11.05 14.35 -10.05 14.1 -11.85 16.8 -11.85 18.0 -11.85 19.3 -10.65 20.6 L-9.45 22.1 -10.1 23.6 -10.35 23.55 -10.05 22.45 Q-10.05 22.05 -11.25 20.8 -12.45 19.55 -12.45 18.05 -12.45 16.95 -11.8 15.7 M-5.1 14.85 L-7.55 18.75 Q-8.3 19.8 -8.3 21.7 -8.3 23.25 -10.25 25.1 -10.75 25.6 -10.65 26.85 -10.6 28.1 -11.1 28.55 -11.45 28.4 -11.45 26.95 -11.45 25.1 -10.15 24.1 -8.9 23.15 -9.0 20.75 -9.05 19.45 -7.8 17.65 -6.65 16.1 -5.1 14.85" fill="#c23c3c" fill-opacity="0.5372549" fill-rule="evenodd" stroke="none"/>
    <path d="M28.6 -15.85 Q35.5 -4.5 31.95 8.2 28.4 20.8 16.6 27.4 4.75 33.95 -8.4 30.55 -21.55 27.15 -28.4 15.75 -35.15 4.35 -31.6 -8.25 -28.1 -20.9 -16.3 -27.5 -4.5 -34.05 8.65 -30.65 21.8 -27.25 28.6 -15.85 Z" fill="none" stroke="#323232" stroke-linecap="round" stroke-linejoin="round" stroke-width="2.0"/>
  </g>
  <defs>
    <radialGradient cx="0" cy="0" gradientTransform="matrix(0.0399, 0.0, 0.0, 0.0399, 0.0, 0.0)" gradientUnits="userSpaceOnUse" id="gradient0" r="819.2" spreadMethod="pad">
      <stop offset="0.5725490196078431" stop-color="#e6e6e6"/>
      <stop offset="1.0" stop-color="#d94545"/>
    </radialGradient>
  </defs>
</svg>
