<?xml version="1.0" encoding="UTF-8" standalone="no"?>
<svg xmlns:ffdec="https://www.free-decompiler.com/flash" xmlns:xlink="http://www.w3.org/1999/xlink" ffdec:objectType="shape" height="102.0px" width="87.2px" xmlns="http://www.w3.org/2000/svg">
  <g transform="matrix(1.0, 0.0, 0.0, 1.0, 0.5, 26.6)">
    <path d="M0.75 -21.2 L64.4 -25.35 Q83.95 25.5 54.05 74.15 L11.3 65.1 Q27.8 23.1 0.75 -21.2" fill="#713737" fill-rule="evenodd" stroke="none"/>
    <path d="M0.75 -21.2 Q27.8 23.1 11.3 65.1 L54.05 74.15 Q83.95 25.5 64.4 -25.35 L0.75 -21.2 Z" fill="none" stroke="#323232" stroke-linecap="round" stroke-linejoin="round" stroke-width="2.5"/>
    <path d="M67.35 44.6 Q61.2 22.7 53.9 20.2 37.9 23.2 36.05 19.9 34.15 16.55 35.3 15.2 L38.15 11.65 Q39.8 9.55 44.4 6.9 48.9 4.2 57.7 5.95 66.55 7.7 85.4 31.0 86.1 44.85 67.35 44.6" fill="#e697d0" fill-rule="evenodd" stroke="none"/>
    <path d="M67.35 44.6 Q61.2 22.7 53.9 20.2 37.9 23.2 36.05 19.9 34.15 16.55 35.3 15.2 L38.15 11.65 Q39.8 9.55 44.4 6.9 48.9 4.2 57.7 5.95 66.55 7.7 85.4 31.0 86.1 44.85 67.35 44.6 Z" fill="none" stroke="#323232" stroke-linecap="round" stroke-linejoin="round" stroke-width="2.5"/>
  </g>
</svg>
