<?xml version="1.0" encoding="UTF-8" standalone="no"?>
<svg xmlns:ffdec="https://www.free-decompiler.com/flash" xmlns:xlink="http://www.w3.org/1999/xlink" ffdec:objectType="shape" height="34.8px" width="14.7px" xmlns="http://www.w3.org/2000/svg">
  <g transform="matrix(1.0, 0.0, 0.0, 1.0, -40.9, -32.25)">
    <path d="M48.1 37.7 Q51.9 33.55 55.6 32.25 53.45 33.05 51.3 35.15 L49.75 36.95 Q46.95 40.25 44.85 44.2 42.75 48.15 42.15 51.45 L41.35 56.1 Q41.3 57.4 41.4 58.3 L41.55 59.6 Q41.6 60.0 42.15 60.55 L42.0 64.3 42.5 65.4 Q42.5 66.0 43.15 66.95 L43.05 67.05 41.55 63.6 41.65 61.05 41.05 59.95 40.9 56.05 Q40.85 53.85 41.3 53.05 41.7 52.25 41.8 50.15 41.85 48.1 42.55 47.05 43.2 46.0 43.35 46.1 L43.85 46.05 Q44.25 41.8 48.1 37.7" fill="#fceee9" fill-opacity="0.4" fill-rule="evenodd" stroke="none"/>
  </g>
</svg>
