<?xml version="1.0" encoding="UTF-8" standalone="no"?>
<svg xmlns:ffdec="https://www.free-decompiler.com/flash" xmlns:xlink="http://www.w3.org/1999/xlink" ffdec:objectType="shape" height="44.9px" width="36.65px" xmlns="http://www.w3.org/2000/svg">
  <g transform="matrix(1.0, 0.0, 0.0, 1.0, 0.0, 0.0)">
    <path d="M21.75 1.8 L22.2 6.35 Q24.15 28.0 20.4 28.2 19.6 28.25 19.0 27.55 19.5 21.0 18.0 6.9 L21.75 1.8" fill="#ab0404" fill-rule="evenodd" stroke="none"/>
    <path d="M19.0 27.55 Q19.6 28.25 20.4 28.2 24.15 28.0 22.2 6.35 L21.75 1.8 34.85 0.0 Q39.35 24.7 32.75 34.05 L32.2 34.8 30.5 36.6 Q26.6 39.85 20.35 39.8 0.35 38.35 4.45 7.65 L5.3 2.2 18.05 3.65 Q15.95 24.2 19.0 27.55" fill="url(#gradient0)" fill-rule="evenodd" stroke="none"/>
    <path d="M5.3 2.2 L4.45 7.65 Q0.35 38.35 20.35 39.8 26.6 39.85 30.5 36.6 L32.2 34.8 29.3 38.75 28.3 40.1 27.95 40.55 Q23.9 44.95 16.6 44.9 -5.1 43.3 1.55 7.3 L5.3 2.2" fill="url(#gradient1)" fill-rule="evenodd" stroke="none"/>
    <path d="M5.3 2.2 L4.45 7.65 Q0.35 38.35 20.35 39.8 26.6 39.85 30.5 36.6 L32.2 34.8" fill="none" stroke="url(#gradient2)" stroke-linecap="round" stroke-linejoin="round" stroke-width="1.0"/>
  </g>
  <defs>
    <linearGradient gradientTransform="matrix(0.0, 0.0226, -0.025, 0.0, 105.2, 19.7)" gradientUnits="userSpaceOnUse" id="gradient0" spreadMethod="pad" x1="-819.2" x2="819.2">
      <stop offset="0.0" stop-color="#ff452e"/>
      <stop offset="1.0" stop-color="#e00a0a"/>
    </linearGradient>
    <linearGradient gradientTransform="matrix(0.017, 0.0098, -0.013, 0.0226, 19.55, 26.65)" gradientUnits="userSpaceOnUse" id="gradient1" spreadMethod="pad" x1="-819.2" x2="819.2">
      <stop offset="0.1803921568627451" stop-color="#aa0000"/>
      <stop offset="0.5019607843137255" stop-color="#790000"/>
      <stop offset="0.803921568627451" stop-color="#790000"/>
      <stop offset="0.9882352941176471" stop-color="#930000"/>
    </linearGradient>
    <radialGradient cx="0" cy="0" gradientTransform="matrix(0.0171, 0.0, 0.0, 0.0085, 17.75, 36.75)" gradientUnits="userSpaceOnUse" id="gradient2" r="819.2" spreadMethod="pad">
      <stop offset="0.12941176470588237" stop-color="#ffe48e" stop-opacity="0.4"/>
      <stop offset="1.0" stop-color="#ffe983" stop-opacity="0.0"/>
    </radialGradient>
  </defs>
</svg>
