<?xml version="1.0" encoding="UTF-8" standalone="no"?>
<svg xmlns:ffdec="https://www.free-decompiler.com/flash" xmlns:xlink="http://www.w3.org/1999/xlink" ffdec:objectType="shape" height="45.15px" width="37.85px" xmlns="http://www.w3.org/2000/svg">
  <g transform="matrix(1.0, 0.0, 0.0, 1.0, 0.0, 0.0)">
    <path d="M37.35 14.65 L23.8 16.6 Q23.3 11.05 21.05 11.05 19.25 11.0 18.75 16.9 L18.55 20.45 Q18.4 27.8 20.2 29.55 20.7 30.0 21.35 30.05 22.2 29.9 22.8 28.95 23.75 27.35 24.0 23.6 L37.85 24.95 Q37.55 31.05 34.9 34.7 L34.7 34.95 34.6 35.1 32.7 37.0 Q28.35 40.45 20.3 40.0 3.65 39.95 3.75 19.65 4.0 13.3 6.0 9.0 L6.9 7.3 7.35 6.6 Q11.55 0.5 20.5 0.0 36.65 0.9 37.35 14.65" fill="url(#gradient0)" fill-rule="evenodd" stroke="none"/>
    <path d="M23.8 16.6 L20.05 21.7 Q19.75 18.2 18.75 16.9 19.25 11.0 21.05 11.05 23.3 11.05 23.8 16.6" fill="url(#gradient1)" fill-rule="evenodd" stroke="none"/>
    <path d="M37.35 14.65 L33.6 19.75 20.05 21.7 23.8 16.6 37.35 14.65" fill="#790000" fill-rule="evenodd" stroke="none"/>
    <path d="M34.6 35.1 L31.65 39.05 31.3 39.65 Q27.05 45.65 16.55 45.1 -0.1 45.05 0.0 24.75 0.3 16.3 3.75 11.5 L4.45 10.55 6.9 7.3 6.0 9.0 Q4.0 13.3 3.75 19.65 3.65 39.95 20.3 40.0 28.35 40.45 32.7 37.0 L34.6 35.1" fill="url(#gradient2)" fill-rule="evenodd" stroke="none"/>
    <path d="M20.2 29.55 L20.25 28.7 24.0 23.6 Q23.75 27.35 22.8 28.95 22.2 29.9 21.35 30.05 20.7 30.0 20.2 29.55" fill="url(#gradient3)" fill-rule="evenodd" stroke="none"/>
    <path d="M6.9 7.3 L6.0 9.0 Q4.0 13.3 3.75 19.65 3.65 39.95 20.3 40.0 28.35 40.45 32.7 37.0 L34.6 35.1" fill="none" stroke="url(#gradient4)" stroke-linecap="round" stroke-linejoin="round" stroke-width="1.0"/>
  </g>
  <defs>
    <linearGradient gradientTransform="matrix(0.0, 0.0239, -0.0244, 0.0, 20.8, 20.0)" gradientUnits="userSpaceOnUse" id="gradient0" spreadMethod="pad" x1="-819.2" x2="819.2">
      <stop offset="0.0" stop-color="#ff452e"/>
      <stop offset="1.0" stop-color="#e00a0a"/>
    </linearGradient>
    <linearGradient gradientTransform="matrix(0.004, 0.0029, -0.0038, 0.0052, 20.2, 12.75)" gradientUnits="userSpaceOnUse" id="gradient1" spreadMethod="pad" x1="-819.2" x2="819.2">
      <stop offset="0.1803921568627451" stop-color="#aa0000"/>
      <stop offset="0.5019607843137255" stop-color="#790000"/>
      <stop offset="0.803921568627451" stop-color="#790000"/>
      <stop offset="0.9882352941176471" stop-color="#930000"/>
    </linearGradient>
    <linearGradient gradientTransform="matrix(0.0184, 0.0125, -0.0129, 0.0191, 19.65, 27.25)" gradientUnits="userSpaceOnUse" id="gradient2" spreadMethod="pad" x1="-819.2" x2="819.2">
      <stop offset="0.1803921568627451" stop-color="#aa0000"/>
      <stop offset="0.5019607843137255" stop-color="#790000"/>
      <stop offset="0.803921568627451" stop-color="#790000"/>
      <stop offset="0.9882352941176471" stop-color="#930000"/>
    </linearGradient>
    <linearGradient gradientTransform="matrix(0.0054, 0.0038, -0.0023, 0.0032, 25.7, 29.55)" gradientUnits="userSpaceOnUse" id="gradient3" spreadMethod="pad" x1="-819.2" x2="819.2">
      <stop offset="0.1803921568627451" stop-color="#aa0000"/>
      <stop offset="0.5019607843137255" stop-color="#790000"/>
      <stop offset="0.803921568627451" stop-color="#790000"/>
      <stop offset="0.9882352941176471" stop-color="#930000"/>
    </linearGradient>
    <radialGradient cx="0" cy="0" gradientTransform="matrix(0.0241, 0.0, 0.0, 0.0111, 19.25, 35.75)" gradientUnits="userSpaceOnUse" id="gradient4" r="819.2" spreadMethod="pad">
      <stop offset="0.1568627450980392" stop-color="#ffe48e" stop-opacity="0.4"/>
      <stop offset="1.0" stop-color="#ffe983" stop-opacity="0.0"/>
    </radialGradient>
  </defs>
</svg>
