<?xml version="1.0" encoding="UTF-8" standalone="no"?>
<svg xmlns:ffdec="https://www.free-decompiler.com/flash" xmlns:xlink="http://www.w3.org/1999/xlink" ffdec:objectType="frame" height="115.9px" width="125.6px" xmlns="http://www.w3.org/2000/svg">
  <g transform="matrix(1.0, 0.0, 0.0, 1.0, 1.0, 1.0)">
    <filter id="filter0">
      <feOffset dx="2.440424256682121" dy="5.481270787636523" in="SourceGraphic" result="filterResult0"/>
      <feColorMatrix in="filterResult0" result="filterResult1" type="matrix" values="0 0 0 0 0.0,0 0 0 0 0.0,0 0 0 0 0.0,0 0 0 1 0"/>
      <feConvolveMatrix divisor="25.0" in="filterResult1" kernelMatrix="1 1 1 1 1 1 1 1 1 1 1 1 1 1 1 1 1 1 1 1 1 1 1 1 1" order="5 5" result="filterResult2"/>
      <feColorMatrix in="filterResult2" result="filterResult3" type="matrix" values="1 0 0 0 0,0 1 0 0 0,0 0 1 0 0,0 0 0 0.41796875 0"/>
      <feComposite in="SourceGraphic" in2="filterResult3" operator="over" result="filterResult4"/>
    </filter>
    <use ffdec:characterId="2344" filter="url(#filter0)" height="56.95" id="left_btn" transform="matrix(1.0, 0.0, 0.0, 1.0, -1.0, 19.85)" width="32.6" xlink:href="#button0"/>
    <filter id="filter1">
      <feOffset dx="-2.440389451227444" dy="5.481286283924405" in="SourceGraphic" result="filterResult5"/>
      <feColorMatrix in="filterResult5" result="filterResult6" type="matrix" values="0 0 0 0 0.0,0 0 0 0 0.0,0 0 0 0 0.0,0 0 0 1 0"/>
      <feConvolveMatrix divisor="25.0" in="filterResult6" kernelMatrix="1 1 1 1 1 1 1 1 1 1 1 1 1 1 1 1 1 1 1 1 1 1 1 1 1" order="5 5" result="filterResult7"/>
      <feColorMatrix in="filterResult7" result="filterResult8" type="matrix" values="1 0 0 0 0,0 1 0 0 0,0 0 1 0 0,0 0 0 0.41796875 0"/>
      <feComposite in="SourceGraphic" in2="filterResult8" operator="over" result="filterResult9"/>
    </filter>
    <use ffdec:characterId="2344" filter="url(#filter1)" height="56.95" id="right_btn" transform="matrix(-1.0, 0.0, 0.0, 1.0, 124.6, 19.85)" width="32.6" xlink:href="#button0"/>
    <filter id="filter2">
      <feOffset dx="4.3217335835636105E-5" dy="3.9999999997665325" in="SourceGraphic" result="filterResult10"/>
      <feColorMatrix in="filterResult10" result="filterResult11" type="matrix" values="0 0 0 0 0.0,0 0 0 0 0.0,0 0 0 0 0.0,0 0 0 1 0"/>
      <feConvolveMatrix divisor="60.0" in="filterResult11" kernelMatrix="1 1 1 1 1 1 1 1 1 1 1 1 1 1 1 1 1 1 1 1 1 1 1 1 1 1 1 1 1 1 1 1 1 1 1 1 1 1 1 1 1 1 1 1 1 1 1 1 1 1 1 1 1 1 1 1 1 1 1 1" order="10 6" result="filterResult12"/>
      <feColorMatrix in="filterResult12" result="filterResult13" type="matrix" values="1 0 0 0 0,0 1 0 0 0,0 0 1 0 0,0 0 0 0.51953125 0"/>
      <feComposite in="SourceGraphic" in2="filterResult13" operator="over" result="filterResult14"/>
    </filter>
    <use ffdec:characterId="2347" filter="url(#filter2)" height="27.45" id="forward_btn" transform="matrix(1.0, 0.0, 0.0, 1.0, 37.85, -1.0)" width="49.1" xlink:href="#button1"/>
    <filter id="filter3">
      <feOffset dx="4.3217335835636105E-5" dy="3.9999999997665325" in="SourceGraphic" result="filterResult15"/>
      <feColorMatrix in="filterResult15" result="filterResult16" type="matrix" values="0 0 0 0 0.0,0 0 0 0 0.0,0 0 0 0 0.0,0 0 0 1 0"/>
      <feConvolveMatrix divisor="168.0" in="filterResult16" kernelMatrix="1 1 1 1 1 1 1 1 1 1 1 1 1 1 1 1 1 1 1 1 1 1 1 1 1 1 1 1 1 1 1 1 1 1 1 1 1 1 1 1 1 1 1 1 1 1 1 1 1 1 1 1 1 1 1 1 1 1 1 1 1 1 1 1 1 1 1 1 1 1 1 1 1 1 1 1 1 1 1 1 1 1 1 1 1 1 1 1 1 1 1 1 1 1 1 1 1 1 1 1 1 1 1 1 1 1 1 1 1 1 1 1 1 1 1 1 1 1 1 1 1 1 1 1 1 1 1 1 1 1 1 1 1 1 1 1 1 1 1 1 1 1 1 1 1 1 1 1 1 1 1 1 1 1 1 1 1 1 1 1 1 1 1 1 1 1 1 1" order="14 12" result="filterResult17"/>
      <feColorMatrix in="filterResult17" result="filterResult18" type="matrix" values="1 0 0 0 0,0 1 0 0 0,0 0 1 0 0,0 0 0 0.63671875 0"/>
      <feComposite in="SourceGraphic" in2="filterResult18" operator="over" result="filterResult19"/>
    </filter>
    <use ffdec:characterId="2350" filter="url(#filter3)" height="33.05" id="backward_btn" transform="matrix(1.0, 0.0, 0.0, 1.0, 28.55, 81.85)" width="69.1" xlink:href="#button2"/>
    <use ffdec:characterId="2355" height="68.0" id="joy1_spr" transform="matrix(1.0, 0.0, 0.0, 1.0, 27.0, 20.7)" width="68.0" xlink:href="#sprite0"/>
  </g>
  <defs>
    <g id="button0" transform="matrix(1.0, 0.0, 0.0, 1.0, 1.0, 1.5)">
      <use ffdec:characterId="2342" height="56.95" transform="matrix(1.0, 0.0, 0.0, 1.0, -1.0, -1.5)" width="32.6" xlink:href="#shape0"/>
    </g>
    <g id="shape0" transform="matrix(1.0, 0.0, 0.0, 1.0, 1.0, 1.5)">
      <path d="M10.25 10.25 Q16.4 14.35 30.05 15.3 L30.1 50.85 Q17.1 48.35 11.1 44.1 L10.85 53.95 Q2.75 39.35 0.0 19.4 6.25 9.75 10.2 0.0 L10.25 10.25" fill="url(#gradient0)" fill-rule="evenodd" stroke="none"/>
      <path d="M10.2 0.0 Q6.25 9.75 0.0 19.4 2.75 39.35 10.85 53.95" fill="none" stroke="#b3b300" stroke-linecap="round" stroke-linejoin="round" stroke-width="2.0"/>
      <path d="M10.25 10.25 L10.2 0.0 M10.85 53.95 L11.1 44.1 M30.1 50.85 L30.05 15.3" fill="none" stroke="#ffff00" stroke-linecap="round" stroke-linejoin="round" stroke-width="3.0"/>
      <path d="M30.05 15.3 Q16.4 14.35 10.25 10.25" fill="none" stroke="url(#gradient1)" stroke-linecap="round" stroke-linejoin="round" stroke-width="2.0"/>
      <path d="M11.1 44.1 Q17.1 48.35 30.1 50.85" fill="none" stroke="url(#gradient2)" stroke-linecap="round" stroke-linejoin="round" stroke-width="2.0"/>
    </g>
    <linearGradient gradientTransform="matrix(-0.0177, -4.0E-4, 0.0064, -0.2746, 13.55, 74.55)" gradientUnits="userSpaceOnUse" id="gradient0" spreadMethod="pad" x1="-819.2" x2="819.2">
      <stop offset="0.0" stop-color="#fbfb00"/>
      <stop offset="0.2980392156862745" stop-color="#ecec00"/>
      <stop offset="1.0" stop-color="#b8b803"/>
    </linearGradient>
    <linearGradient gradientTransform="matrix(-0.0143, -9.0E-4, 0.0025, -0.0335, 17.25, 67.5)" gradientUnits="userSpaceOnUse" id="gradient1" spreadMethod="pad" x1="-819.2" x2="819.2">
      <stop offset="0.0" stop-color="#fefe78"/>
      <stop offset="0.2980392156862745" stop-color="#fdfd3e"/>
      <stop offset="1.0" stop-color="#f2f204"/>
    </linearGradient>
    <linearGradient gradientTransform="matrix(-0.0143, -9.0E-4, 0.0025, -0.0335, 17.25, 67.5)" gradientUnits="userSpaceOnUse" id="gradient2" spreadMethod="pad" x1="-819.2" x2="819.2">
      <stop offset="0.0" stop-color="#fbfb00"/>
      <stop offset="0.2980392156862745" stop-color="#ecec00"/>
      <stop offset="1.0" stop-color="#b8b803"/>
    </linearGradient>
    <g id="button1" transform="matrix(1.0, 0.0, 0.0, 1.0, 1.5, 1.0)">
      <use ffdec:characterId="2345" height="27.45" transform="matrix(1.0, 0.0, 0.0, 1.0, -1.5, -1.0)" width="49.1" xlink:href="#shape1"/>
    </g>
    <g id="shape1" transform="matrix(1.0, 0.0, 0.0, 1.0, 1.5, 1.0)">
      <path d="M0.0 11.85 L23.7 0.0 46.1 11.85 38.5 11.85 42.15 24.45 3.65 24.45 7.95 11.85 0.0 11.85" fill="url(#gradient3)" fill-rule="evenodd" stroke="none"/>
      <path d="M7.95 11.85 L3.65 24.45 M42.15 24.45 L38.5 11.85" fill="none" stroke="url(#gradient4)" stroke-linecap="round" stroke-linejoin="round" stroke-width="2.0"/>
      <path d="M0.0 11.85 L7.95 11.85 M38.5 11.85 L46.1 11.85" fill="none" stroke="#ffff00" stroke-linecap="round" stroke-linejoin="round" stroke-width="3.0"/>
      <path d="M46.1 11.85 L23.7 0.0 0.0 11.85" fill="none" stroke="#c1c102" stroke-linecap="round" stroke-linejoin="round" stroke-width="2.0"/>
      <path d="M3.65 24.45 L42.15 24.45" fill="none" stroke="#ffff00" stroke-linecap="round" stroke-linejoin="round" stroke-width="4.0"/>
    </g>
    <linearGradient gradientTransform="matrix(0.0, -0.0181, -0.0136, 0.0, 22.15, 11.25)" gradientUnits="userSpaceOnUse" id="gradient3" spreadMethod="pad" x1="-819.2" x2="819.2">
      <stop offset="0.0" stop-color="#ffff00"/>
      <stop offset="1.0" stop-color="#cac902"/>
    </linearGradient>
    <linearGradient gradientTransform="matrix(0.0, -0.0097, -0.0191, 0.0, 14.8, 18.15)" gradientUnits="userSpaceOnUse" id="gradient4" spreadMethod="pad" x1="-819.2" x2="819.2">
      <stop offset="0.0" stop-color="#f7f700"/>
      <stop offset="1.0" stop-color="#cac902"/>
    </linearGradient>
    <g id="button2" transform="matrix(1.0, 0.0, 0.0, 1.0, 2.0, 1.0)">
      <use ffdec:characterId="2348" height="33.05" transform="matrix(1.0, 0.0, 0.0, 1.0, -2.0, -1.0)" width="69.1" xlink:href="#shape2"/>
    </g>
    <g id="shape2" transform="matrix(1.0, 0.0, 0.0, 1.0, 2.0, 1.0)">
      <path d="M53.25 12.75 L65.1 12.75 32.2 30.05 0.0 12.6 11.45 12.6 15.6 0.0 48.8 0.05 53.25 12.75" fill="url(#gradient5)" fill-rule="evenodd" stroke="none"/>
      <path d="M53.25 12.75 L65.1 12.75 M0.0 12.6 L11.45 12.6" fill="none" stroke="#dddd00" stroke-linecap="round" stroke-linejoin="round" stroke-width="2.0"/>
      <path d="M11.45 12.6 L15.6 0.0 M48.8 0.05 L53.25 12.75" fill="none" stroke="url(#gradient6)" stroke-linecap="round" stroke-linejoin="round" stroke-width="2.0"/>
      <path d="M15.6 0.0 L48.8 0.05" fill="none" stroke="#bdbd02" stroke-linecap="round" stroke-linejoin="round" stroke-width="2.0"/>
      <path d="M65.1 12.75 L32.2 30.05 0.0 12.6" fill="none" stroke="#ffff00" stroke-linecap="round" stroke-linejoin="round" stroke-width="4.0"/>
    </g>
    <linearGradient gradientTransform="matrix(0.0, -0.0183, 0.0148, 0.0, 32.85, 13.35)" gradientUnits="userSpaceOnUse" id="gradient5" spreadMethod="pad" x1="-819.2" x2="819.2">
      <stop offset="0.0" stop-color="#ffff00"/>
      <stop offset="1.0" stop-color="#cac902"/>
    </linearGradient>
    <linearGradient gradientTransform="matrix(-1.0E-4, -0.0098, 0.0208, -2.0E-4, 40.8, 6.3)" gradientUnits="userSpaceOnUse" id="gradient6" spreadMethod="pad" x1="-819.2" x2="819.2">
      <stop offset="0.0" stop-color="#f7f700"/>
      <stop offset="1.0" stop-color="#cac902"/>
    </linearGradient>
    <g id="sprite0" transform="matrix(1.0, 0.0, 0.0, 1.0, 34.0, 34.0)">
      <clipPath id="clipPath0">
        <path d="M -7.55 -20.05 L -8.32 -20.04 L -9.06 -20 L -9.78 -19.94 L -10.48 -19.85 L -11.15 -19.74 L -11.8 -19.61 L -12.42 -19.45 L -13.02 -19.27 L -13.59 -19.06 L -14.14 -18.83 L -14.67 -18.57 L -15.17 -18.29 L -15.64 -17.99 L -16.09 -17.66 L -16.52 -17.3 L -16.92 -16.92 L -17.3 -16.52 L -17.66 -16.09 L -17.99 -15.64 L -18.29 -15.17 L -18.57 -14.67 L -18.83 -14.14 L -19.06 -13.59 L -19.27 -13.02 L -19.45 -12.42 L -19.61 -11.8 L -19.74 -11.15 L -19.85 -10.48 L -19.94 -9.78 L -20 -9.06 L -20.04 -8.32 L -20.05 -7.55 L -20.05 7.25 L -20.04 8.02 L -20 8.76 L -19.94 9.48 L -19.85 10.18 L -19.74 10.85 L -19.61 11.5 L -19.45 12.12 L -19.27 12.72 L -19.06 13.29 L -18.83 13.84 L -18.57 14.37 L -18.29 14.87 L -17.99 15.34 L -17.66 15.79 L -17.3 16.22 L -16.92 16.62 L -16.52 17 L -16.09 17.36 L -15.64 17.69 L -15.17 17.99 L -14.67 18.27 L -14.14 18.53 L -13.59 18.76 L -13.02 18.97 L -12.42 19.15 L -11.8 19.31 L -11.15 19.44 L -10.48 19.55 L -9.78 19.64 L -9.06 19.7 L -8.32 19.74 L -7.55 19.75 L 7.25 19.75 L 8.02 19.74 L 8.76 19.7 L 9.48 19.64 L 10.18 19.55 L 10.85 19.44 L 11.5 19.31 L 12.12 19.15 L 12.72 18.97 L 13.29 18.76 L 13.84 18.53 L 14.37 18.27 L 14.87 17.99 L 15.34 17.69 L 15.79 17.36 L 16.22 17 L 16.62 16.62 L 17 16.22 L 17.36 15.79 L 17.69 15.34 L 17.99 14.87 L 18.27 14.37 L 18.53 13.84 L 18.76 13.29 L 18.97 12.72 L 19.15 12.12 L 19.31 11.5 L 19.44 10.85 L 19.55 10.18 L 19.64 9.48 L 19.7 8.76 L 19.74 8.02 L 19.75 7.25 L 19.75 -7.55 L 19.74 -8.32 L 19.7 -9.06 L 19.64 -9.78 L 19.55 -10.48 L 19.44 -11.15 L 19.31 -11.8 L 19.15 -12.42 L 18.97 -13.02 L 18.76 -13.59 L 18.53 -14.14 L 18.27 -14.67 L 17.99 -15.17 L 17.69 -15.64 L 17.36 -16.09 L 17 -16.52 L 16.62 -16.92 L 16.22 -17.3 L 15.79 -17.66 L 15.34 -17.99 L 14.87 -18.29 L 14.37 -18.57 L 13.84 -18.83 L 13.29 -19.06 L 12.72 -19.27 L 12.12 -19.45 L 11.5 -19.61 L 10.85 -19.74 L 10.18 -19.85 L 9.48 -19.94 L 8.76 -20 L 8.02 -20.04 L 7.25 -20.05 Z"/>
      </clipPath>
      <g clip-path="url(#clipPath0)">
        <use ffdec:characterId="2353" height="68.0" id="ballJoint_spr" transform="matrix(1.0, 0.0, 0.0, 1.0, -34.0, -34.0)" width="68.0" xlink:href="#sprite1"/>
      </g>
      <use ffdec:characterId="2354" height="49.5" transform="matrix(1.0, 0.0, 0.0, 1.0, -24.75, -24.75)" width="49.5" xlink:href="#shape4"/>
      <use ffdec:characterId="2339" height="28.0" id="s6" transform="matrix(0.6538, 0.0, 0.0, 0.6538, -9.1533, -9.1533)" width="28.0" xlink:href="#sprite2"/>
      <use ffdec:characterId="2339" height="28.0" id="s5" transform="matrix(0.7115, 0.0, 0.0, 0.7115, -9.9608, -9.9608)" width="28.0" xlink:href="#sprite3"/>
      <use ffdec:characterId="2339" height="28.0" id="s4" transform="matrix(0.7692, 0.0, 0.0, 0.7692, -10.7687, -10.7687)" width="28.0" xlink:href="#sprite4"/>
      <use ffdec:characterId="2339" height="28.0" id="s3" transform="matrix(0.8269, 0.0, 0.0, 0.8269, -11.5771, -11.5771)" width="28.0" xlink:href="#sprite5"/>
      <use ffdec:characterId="2339" height="28.0" id="s2" transform="matrix(0.8846, 0.0, 0.0, 0.8846, -12.385, -12.385)" width="28.0" xlink:href="#sprite6"/>
      <use ffdec:characterId="2339" height="28.0" id="s1" transform="matrix(0.9423, 0.0, 0.0, 0.9423, -13.1923, -13.1923)" width="28.0" xlink:href="#sprite7"/>
      <use ffdec:characterId="2339" height="28.0" id="s0" transform="matrix(1.0, 0.0, 0.0, 1.0, -14.0, -14.0)" width="28.0" xlink:href="#sprite8"/>
    </g>
    <g id="sprite1" transform="matrix(1.0, 0.0, 0.0, 1.0, 34.0, 34.0)">
      <use ffdec:characterId="2352" height="68.0" transform="matrix(1.0, 0.0, 0.0, 1.0, -34.0, -34.0)" width="68.0" xlink:href="#shape3"/>
    </g>
    <g id="shape3" transform="matrix(1.0, 0.0, 0.0, 1.0, 34.0, 34.0)">
      <path d="M12.6 -34.0 Q34.0 -34.0 34.0 -12.6 L34.0 12.6 Q34.0 34.0 12.6 34.0 L-12.6 34.0 Q-34.0 34.0 -34.0 12.6 L-34.0 -12.6 Q-34.0 -34.0 -12.6 -34.0 L12.6 -34.0" fill="url(#gradient7)" fill-rule="evenodd" stroke="none"/>
    </g>
    <radialGradient cx="0" cy="0" gradientTransform="matrix(0.0554, 0.0, 0.0, 0.0554, 0.05, 0.05)" gradientUnits="userSpaceOnUse" id="gradient7" r="819.2" spreadMethod="pad">
      <stop offset="0.1450980392156863" stop-color="#484848"/>
      <stop offset="1.0" stop-color="#000000"/>
    </radialGradient>
    <g id="shape4" transform="matrix(1.0, 0.0, 0.0, 1.0, 24.75, 24.75)">
      <path d="M-8.25 22.25 L8.25 22.25 Q22.25 22.25 22.25 8.25 L22.25 -8.25" fill="none" stroke="#b99e42" stroke-linecap="round" stroke-linejoin="round" stroke-width="5.0"/>
      <path d="M22.25 -8.25 Q22.65 -22.25 8.25 -22.25 M-22.25 8.25 Q-22.25 22.25 -8.25 22.25" fill="none" stroke="#927a34" stroke-linecap="round" stroke-linejoin="round" stroke-width="5.0"/>
      <path d="M8.25 -22.25 L-8.25 -22.25 Q-22.25 -22.25 -22.25 -8.25 L-22.25 8.25" fill="none" stroke="#5e5022" stroke-linecap="round" stroke-linejoin="round" stroke-width="5.0"/>
    </g>
    <g id="sprite2" transform="matrix(1.0, 0.0, 0.0, 1.0, 14.0, 14.0)">
      <use ffdec:characterId="2338" height="28.0" transform="matrix(1.0, 0.0, 0.0, 1.0, -14.0, -14.0)" width="28.0" xlink:href="#shape5"/>
    </g>
    <g id="shape5" transform="matrix(1.0, 0.0, 0.0, 1.0, 14.0, 14.0)">
      <path d="M9.9 -9.9 Q14.0 -5.8 14.0 0.0 14.0 5.75 9.9 9.85 5.75 14.0 0.0 14.0 -5.75 14.0 -9.9 9.85 -14.0 5.75 -14.0 0.0 -14.0 -5.8 -9.9 -9.9 -5.75 -14.0 0.0 -14.0 5.75 -14.0 9.9 -9.9" fill="url(#gradient8)" fill-rule="evenodd" stroke="none"/>
      <path d="M-11.1 -2.3 Q-11.1 -3.45 -10.3 -4.3 -9.45 -5.1 -8.3 -5.1 -7.15 -5.1 -6.35 -4.3 -5.5 -3.45 -5.5 -2.3 -5.5 -1.15 -6.35 -0.35 -7.15 0.5 -8.3 0.5 -9.45 0.5 -10.3 -0.35 -11.1 -1.15 -11.1 -2.3 M-4.05 -6.45 Q-4.65 -5.8 -5.5 -5.8 -6.35 -5.8 -7.0 -6.45 -7.6 -7.05 -7.6 -7.9 -7.6 -8.75 -7.0 -9.4 -6.35 -10.0 -5.5 -10.0 -4.65 -10.0 -4.05 -9.4 -3.4 -8.75 -3.4 -7.9 -3.4 -7.05 -4.05 -6.45" fill="#a3a3a3" fill-rule="evenodd" stroke="none"/>
      <path d="M-0.75 -9.75 Q7.5 -9.75 9.9 -2.0" fill="none" stroke="#a3a3a3" stroke-linecap="round" stroke-linejoin="round" stroke-width="3.0"/>
    </g>
    <radialGradient cx="0" cy="0" gradientTransform="matrix(0.0212, 0.0, 0.0, 0.0212, 1.1, -0.85)" gradientUnits="userSpaceOnUse" id="gradient8" r="819.2" spreadMethod="pad">
      <stop offset="0.5333333333333333" stop-color="#7b95a0"/>
      <stop offset="0.7215686274509804" stop-color="#43809b"/>
    </radialGradient>
    <g id="sprite3" transform="matrix(1.0, 0.0, 0.0, 1.0, 14.0, 14.0)">
      <use ffdec:characterId="2338" height="28.0" transform="matrix(1.0, 0.0, 0.0, 1.0, -14.0, -14.0)" width="28.0" xlink:href="#shape6"/>
    </g>
    <g id="shape6" transform="matrix(1.0, 0.0, 0.0, 1.0, 14.0, 14.0)">
      <path d="M9.9 -9.9 Q14.0 -5.8 14.0 0.0 14.0 5.75 9.9 9.85 5.75 14.0 0.0 14.0 -5.75 14.0 -9.9 9.85 -14.0 5.75 -14.0 0.0 -14.0 -5.8 -9.9 -9.9 -5.75 -14.0 0.0 -14.0 5.75 -14.0 9.9 -9.9" fill="url(#gradient9)" fill-rule="evenodd" stroke="none"/>
      <path d="M-11.1 -2.3 Q-11.1 -3.45 -10.3 -4.3 -9.45 -5.1 -8.3 -5.1 -7.15 -5.1 -6.35 -4.3 -5.5 -3.45 -5.5 -2.3 -5.5 -1.15 -6.35 -0.35 -7.15 0.5 -8.3 0.5 -9.45 0.5 -10.3 -0.35 -11.1 -1.15 -11.1 -2.3 M-4.05 -6.45 Q-4.65 -5.8 -5.5 -5.8 -6.35 -5.8 -7.0 -6.45 -7.6 -7.05 -7.6 -7.9 -7.6 -8.75 -7.0 -9.4 -6.35 -10.0 -5.5 -10.0 -4.65 -10.0 -4.05 -9.4 -3.4 -8.75 -3.4 -7.9 -3.4 -7.05 -4.05 -6.45" fill="#b2b2b2" fill-rule="evenodd" stroke="none"/>
      <path d="M-0.75 -9.75 Q7.5 -9.75 9.9 -2.0" fill="none" stroke="#b2b2b2" stroke-linecap="round" stroke-linejoin="round" stroke-width="3.0"/>
    </g>
    <radialGradient cx="0" cy="0" gradientTransform="matrix(0.0212, 0.0, 0.0, 0.0212, 1.1, -0.85)" gradientUnits="userSpaceOnUse" id="gradient9" r="819.2" spreadMethod="pad">
      <stop offset="0.5333333333333333" stop-color="#86a2ae"/>
      <stop offset="0.7215686274509804" stop-color="#498ba9"/>
    </radialGradient>
    <g id="sprite4" transform="matrix(1.0, 0.0, 0.0, 1.0, 14.0, 14.0)">
      <use ffdec:characterId="2338" height="28.0" transform="matrix(1.0, 0.0, 0.0, 1.0, -14.0, -14.0)" width="28.0" xlink:href="#shape7"/>
    </g>
    <g id="shape7" transform="matrix(1.0, 0.0, 0.0, 1.0, 14.0, 14.0)">
      <path d="M9.9 -9.9 Q14.0 -5.8 14.0 0.0 14.0 5.75 9.9 9.85 5.75 14.0 0.0 14.0 -5.75 14.0 -9.9 9.85 -14.0 5.75 -14.0 0.0 -14.0 -5.8 -9.9 -9.9 -5.75 -14.0 0.0 -14.0 5.75 -14.0 9.9 -9.9" fill="url(#gradient10)" fill-rule="evenodd" stroke="none"/>
      <path d="M-11.1 -2.3 Q-11.1 -3.45 -10.3 -4.3 -9.45 -5.1 -8.3 -5.1 -7.15 -5.1 -6.35 -4.3 -5.5 -3.45 -5.5 -2.3 -5.5 -1.15 -6.35 -0.35 -7.15 0.5 -8.3 0.5 -9.45 0.5 -10.3 -0.35 -11.1 -1.15 -11.1 -2.3 M-4.05 -6.45 Q-4.65 -5.8 -5.5 -5.8 -6.35 -5.8 -7.0 -6.45 -7.6 -7.05 -7.6 -7.9 -7.6 -8.75 -7.0 -9.4 -6.35 -10.0 -5.5 -10.0 -4.65 -10.0 -4.05 -9.4 -3.4 -8.75 -3.4 -7.9 -3.4 -7.05 -4.05 -6.45" fill="#c2c2c2" fill-rule="evenodd" stroke="none"/>
      <path d="M-0.75 -9.75 Q7.5 -9.75 9.9 -2.0" fill="none" stroke="#c2c2c2" stroke-linecap="round" stroke-linejoin="round" stroke-width="3.0"/>
    </g>
    <radialGradient cx="0" cy="0" gradientTransform="matrix(0.0212, 0.0, 0.0, 0.0212, 1.1, -0.85)" gradientUnits="userSpaceOnUse" id="gradient10" r="819.2" spreadMethod="pad">
      <stop offset="0.5333333333333333" stop-color="#92b1be"/>
      <stop offset="0.7215686274509804" stop-color="#4f98b9"/>
    </radialGradient>
    <g id="sprite5" transform="matrix(1.0, 0.0, 0.0, 1.0, 14.0, 14.0)">
      <use ffdec:characterId="2338" height="28.0" transform="matrix(1.0, 0.0, 0.0, 1.0, -14.0, -14.0)" width="28.0" xlink:href="#shape8"/>
    </g>
    <g id="shape8" transform="matrix(1.0, 0.0, 0.0, 1.0, 14.0, 14.0)">
      <path d="M9.9 -9.9 Q14.0 -5.8 14.0 0.0 14.0 5.75 9.9 9.85 5.75 14.0 0.0 14.0 -5.75 14.0 -9.9 9.85 -14.0 5.75 -14.0 0.0 -14.0 -5.8 -9.9 -9.9 -5.75 -14.0 0.0 -14.0 5.75 -14.0 9.9 -9.9" fill="url(#gradient11)" fill-rule="evenodd" stroke="none"/>
      <path d="M-11.1 -2.3 Q-11.1 -3.45 -10.3 -4.3 -9.45 -5.1 -8.3 -5.1 -7.15 -5.1 -6.35 -4.3 -5.5 -3.45 -5.5 -2.3 -5.5 -1.15 -6.35 -0.35 -7.15 0.5 -8.3 0.5 -9.45 0.5 -10.3 -0.35 -11.1 -1.15 -11.1 -2.3 M-4.05 -6.45 Q-4.65 -5.8 -5.5 -5.8 -6.35 -5.8 -7.0 -6.45 -7.6 -7.05 -7.6 -7.9 -7.6 -8.75 -7.0 -9.4 -6.35 -10.0 -5.5 -10.0 -4.65 -10.0 -4.05 -9.4 -3.4 -8.75 -3.4 -7.9 -3.4 -7.05 -4.05 -6.45" fill="#d1d1d1" fill-rule="evenodd" stroke="none"/>
      <path d="M-0.75 -9.75 Q7.5 -9.75 9.9 -2.0" fill="none" stroke="#d1d1d1" stroke-linecap="round" stroke-linejoin="round" stroke-width="3.0"/>
    </g>
    <radialGradient cx="0" cy="0" gradientTransform="matrix(0.0212, 0.0, 0.0, 0.0212, 1.1, -0.85)" gradientUnits="userSpaceOnUse" id="gradient11" r="819.2" spreadMethod="pad">
      <stop offset="0.5333333333333333" stop-color="#9dbfcd"/>
      <stop offset="0.7215686274509804" stop-color="#56a4c7"/>
    </radialGradient>
    <g id="sprite6" transform="matrix(1.0, 0.0, 0.0, 1.0, 14.0, 14.0)">
      <use ffdec:characterId="2338" height="28.0" transform="matrix(1.0, 0.0, 0.0, 1.0, -14.0, -14.0)" width="28.0" xlink:href="#shape9"/>
    </g>
    <g id="shape9" transform="matrix(1.0, 0.0, 0.0, 1.0, 14.0, 14.0)">
      <path d="M9.9 -9.9 Q14.0 -5.8 14.0 0.0 14.0 5.75 9.9 9.85 5.75 14.0 0.0 14.0 -5.75 14.0 -9.9 9.85 -14.0 5.75 -14.0 0.0 -14.0 -5.8 -9.9 -9.9 -5.75 -14.0 0.0 -14.0 5.75 -14.0 9.9 -9.9" fill="url(#gradient12)" fill-rule="evenodd" stroke="none"/>
      <path d="M-11.1 -2.3 Q-11.1 -3.45 -10.3 -4.3 -9.45 -5.1 -8.3 -5.1 -7.15 -5.1 -6.35 -4.3 -5.5 -3.45 -5.5 -2.3 -5.5 -1.15 -6.35 -0.35 -7.15 0.5 -8.3 0.5 -9.45 0.5 -10.3 -0.35 -11.1 -1.15 -11.1 -2.3 M-4.05 -6.45 Q-4.65 -5.8 -5.5 -5.8 -6.35 -5.8 -7.0 -6.45 -7.6 -7.05 -7.6 -7.9 -7.6 -8.75 -7.0 -9.4 -6.35 -10.0 -5.5 -10.0 -4.65 -10.0 -4.05 -9.4 -3.4 -8.75 -3.4 -7.9 -3.4 -7.05 -4.05 -6.45" fill="#e0e0e0" fill-rule="evenodd" stroke="none"/>
      <path d="M-0.75 -9.75 Q7.5 -9.75 9.9 -2.0" fill="none" stroke="#e0e0e0" stroke-linecap="round" stroke-linejoin="round" stroke-width="3.0"/>
    </g>
    <radialGradient cx="0" cy="0" gradientTransform="matrix(0.0212, 0.0, 0.0, 0.0212, 1.1, -0.85)" gradientUnits="userSpaceOnUse" id="gradient12" r="819.2" spreadMethod="pad">
      <stop offset="0.5333333333333333" stop-color="#a8ccdb"/>
      <stop offset="0.7215686274509804" stop-color="#5cafd5"/>
    </radialGradient>
    <g id="sprite7" transform="matrix(1.0, 0.0, 0.0, 1.0, 14.0, 14.0)">
      <use ffdec:characterId="2338" height="28.0" transform="matrix(1.0, 0.0, 0.0, 1.0, -14.0, -14.0)" width="28.0" xlink:href="#shape10"/>
    </g>
    <g id="shape10" transform="matrix(1.0, 0.0, 0.0, 1.0, 14.0, 14.0)">
      <path d="M9.9 -9.9 Q14.0 -5.8 14.0 0.0 14.0 5.75 9.9 9.85 5.75 14.0 0.0 14.0 -5.75 14.0 -9.9 9.85 -14.0 5.75 -14.0 0.0 -14.0 -5.8 -9.9 -9.9 -5.75 -14.0 0.0 -14.0 5.75 -14.0 9.9 -9.9" fill="url(#gradient13)" fill-rule="evenodd" stroke="none"/>
      <path d="M-11.1 -2.3 Q-11.1 -3.45 -10.3 -4.3 -9.45 -5.1 -8.3 -5.1 -7.15 -5.1 -6.35 -4.3 -5.5 -3.45 -5.5 -2.3 -5.5 -1.15 -6.35 -0.35 -7.15 0.5 -8.3 0.5 -9.45 0.5 -10.3 -0.35 -11.1 -1.15 -11.1 -2.3 M-4.05 -6.45 Q-4.65 -5.8 -5.5 -5.8 -6.35 -5.8 -7.0 -6.45 -7.6 -7.05 -7.6 -7.9 -7.6 -8.75 -7.0 -9.4 -6.35 -10.0 -5.5 -10.0 -4.65 -10.0 -4.05 -9.4 -3.4 -8.75 -3.4 -7.9 -3.4 -7.05 -4.05 -6.45" fill="#f0f0f0" fill-rule="evenodd" stroke="none"/>
      <path d="M-0.75 -9.75 Q7.5 -9.75 9.9 -2.0" fill="none" stroke="#f0f0f0" stroke-linecap="round" stroke-linejoin="round" stroke-width="3.0"/>
    </g>
    <radialGradient cx="0" cy="0" gradientTransform="matrix(0.0212, 0.0, 0.0, 0.0212, 1.1, -0.85)" gradientUnits="userSpaceOnUse" id="gradient13" r="819.2" spreadMethod="pad">
      <stop offset="0.5333333333333333" stop-color="#b4dbeb"/>
      <stop offset="0.7215686274509804" stop-color="#62bce4"/>
    </radialGradient>
    <g id="sprite8" transform="matrix(1.0, 0.0, 0.0, 1.0, 14.0, 14.0)">
      <use ffdec:characterId="2338" height="28.0" transform="matrix(1.0, 0.0, 0.0, 1.0, -14.0, -14.0)" width="28.0" xlink:href="#shape11"/>
    </g>
    <g id="shape11" transform="matrix(1.0, 0.0, 0.0, 1.0, 14.0, 14.0)">
      <path d="M9.9 -9.9 Q14.0 -5.8 14.0 0.0 14.0 5.75 9.9 9.85 5.75 14.0 0.0 14.0 -5.75 14.0 -9.9 9.85 -14.0 5.75 -14.0 0.0 -14.0 -5.8 -9.9 -9.9 -5.75 -14.0 0.0 -14.0 5.75 -14.0 9.9 -9.9" fill="url(#gradient14)" fill-rule="evenodd" stroke="none"/>
      <path d="M-11.1 -2.3 Q-11.1 -3.45 -10.3 -4.3 -9.45 -5.1 -8.3 -5.1 -7.15 -5.1 -6.35 -4.3 -5.5 -3.45 -5.5 -2.3 -5.5 -1.15 -6.35 -0.35 -7.15 0.5 -8.3 0.5 -9.45 0.5 -10.3 -0.35 -11.1 -1.15 -11.1 -2.3 M-4.05 -6.45 Q-4.65 -5.8 -5.5 -5.8 -6.35 -5.8 -7.0 -6.45 -7.6 -7.05 -7.6 -7.9 -7.6 -8.75 -7.0 -9.4 -6.35 -10.0 -5.5 -10.0 -4.65 -10.0 -4.05 -9.4 -3.4 -8.75 -3.4 -7.9 -3.4 -7.05 -4.05 -6.45" fill="#ffffff" fill-rule="evenodd" stroke="none"/>
      <path d="M-0.75 -9.75 Q7.5 -9.75 9.9 -2.0" fill="none" stroke="#ffffff" stroke-linecap="round" stroke-linejoin="round" stroke-width="3.0"/>
    </g>
    <radialGradient cx="0" cy="0" gradientTransform="matrix(0.0212, 0.0, 0.0, 0.0212, 1.1, -0.85)" gradientUnits="userSpaceOnUse" id="gradient14" r="819.2" spreadMethod="pad">
      <stop offset="0.5333333333333333" stop-color="#c0e9fa"/>
      <stop offset="0.7215686274509804" stop-color="#69c8f3"/>
    </radialGradient>
  </defs>
</svg>
