<?xml version="1.0" encoding="UTF-8" standalone="no"?>
<svg xmlns:ffdec="https://www.free-decompiler.com/flash" xmlns:xlink="http://www.w3.org/1999/xlink" ffdec:objectType="frame" height="45.75px" width="52.4px" xmlns="http://www.w3.org/2000/svg">
  <g transform="matrix(1.0, 0.0, 0.0, 1.0, 0.5, 0.5)">
    <use ffdec:characterId="2121" height="45.75" transform="matrix(1.0, 0.0, 0.0, 1.0, -0.5, -0.5)" width="52.4" xlink:href="#shape0"/>
    <use ffdec:characterId="2095" height="10.55" transform="matrix(1.0881, 0.0, 0.0, 1.0881, 27.4, 21.3)" width="12.35" xlink:href="#sprite0"/>
    <use ffdec:characterId="2095" height="10.55" transform="matrix(1.0881, 0.0, 0.0, 1.0881, 12.6, 6.5)" width="12.35" xlink:href="#sprite0"/>
    <use ffdec:characterId="2095" height="10.55" transform="matrix(0.6633, 0.0, 0.0, 0.6633, 16.2, 24.55)" width="12.35" xlink:href="#sprite0"/>
    <use ffdec:characterId="2095" height="10.55" transform="matrix(0.6633, 0.0, 0.0, 0.6633, 1.8, 13.95)" width="12.35" xlink:href="#sprite0"/>
    <use ffdec:characterId="2095" height="10.55" transform="matrix(0.6633, 0.0, 0.0, 0.6633, 25.0, 4.15)" width="12.35" xlink:href="#sprite0"/>
    <use ffdec:characterId="2095" height="10.55" transform="matrix(0.6633, 0.0, 0.0, 0.6633, 37.2, 12.75)" width="12.35" xlink:href="#sprite0"/>
  </g>
  <defs>
    <g id="shape0" transform="matrix(1.0, 0.0, 0.0, 1.0, 0.5, 0.5)">
      <path d="M4.15 32.2 L7.1 34.75 Q8.8 36.35 12.7 38.4 19.3 42.95 23.05 43.1 L30.35 42.8 Q33.95 42.3 35.75 41.35 37.5 40.35 38.8 39.0 40.1 37.6 41.2 37.3 42.3 36.95 44.5 34.05 46.65 31.1 46.45 32.15 50.0 29.85 48.85 26.35 L50.35 22.5 51.35 19.25 51.35 22.1 Q51.2 24.1 50.65 26.05 51.2 32.1 45.1 35.6 44.1 36.55 42.25 39.0 40.35 41.4 36.4 42.25 L32.8 43.75 Q29.3 44.9 25.7 44.75 22.85 44.65 20.0 43.75 15.95 42.5 11.95 39.6 9.7 38.5 7.45 36.8 5.15 35.05 4.45 32.6 L4.15 32.2" fill="#ffffff" fill-rule="evenodd" stroke="none"/>
      <path d="M45.25 6.05 L45.8 6.6 46.2 7.05 Q50.3 10.1 50.2 13.65 51.2 16.3 51.35 19.25 L50.35 22.5 48.85 26.35 Q50.0 29.85 46.45 32.15 46.65 31.1 44.5 34.05 42.3 36.95 41.2 37.3 40.1 37.6 38.8 39.0 37.5 40.35 35.75 41.35 33.95 42.3 30.35 42.8 L23.05 43.1 Q19.3 42.95 12.7 38.4 8.8 36.35 7.1 34.75 L4.15 32.2 Q0.0 26.8 0.0 21.2 0.0 19.05 1.0 16.3 1.75 14.35 2.35 13.4 L2.25 13.7 Q1.65 15.6 1.65 18.25 1.65 20.25 3.2 24.75 4.7 29.25 6.3 29.6 L9.1 30.2 Q9.1 32.15 11.3 33.15 13.5 34.1 14.25 34.8 17.75 35.2 18.7 35.75 19.6 36.3 22.85 35.8 L27.8 36.65 Q29.95 36.8 34.15 34.5 39.5 32.55 40.9 30.0 42.3 27.45 44.65 25.45 46.2 23.85 46.8 22.4 L47.95 17.85 Q48.8 13.2 47.75 11.55 46.65 9.9 45.55 6.85 L45.25 6.05" fill="#dff1f3" fill-rule="evenodd" stroke="none"/>
      <path d="M45.25 6.05 L45.55 6.85 Q46.65 9.9 47.75 11.55 48.8 13.2 47.95 17.85 L46.8 22.4 Q46.2 23.85 44.65 25.45 42.3 27.45 40.9 30.0 39.5 32.55 34.15 34.5 29.95 36.8 27.8 36.65 L22.85 35.8 Q19.6 36.3 18.7 35.75 17.75 35.2 14.25 34.8 13.5 34.1 11.3 33.15 9.1 32.15 9.1 30.2 L6.3 29.6 Q4.7 29.25 3.2 24.75 1.65 20.25 1.65 18.25 1.65 15.6 2.25 13.7 L2.35 13.4 2.45 13.25 5.95 7.1 Q7.9 3.55 9.6 2.95 14.7 0.75 19.3 0.3 22.05 0.0 33.75 0.0 39.4 0.0 45.25 6.05" fill="url(#gradient0)" fill-rule="evenodd" stroke="none"/>
      <path d="M51.35 19.25 Q51.2 16.3 50.2 13.65 50.3 10.1 46.2 7.05 L45.8 6.6 45.25 6.05 Q39.4 0.0 33.75 0.0 22.05 0.0 19.3 0.3 14.7 0.75 9.6 2.95 7.9 3.55 5.95 7.1 L2.45 13.25 2.35 13.4 Q1.75 14.35 1.0 16.3 0.0 19.05 0.0 21.2 0.0 26.8 4.15 32.2 L4.45 32.6 Q5.15 35.05 7.45 36.8 9.7 38.5 11.95 39.6 15.95 42.5 20.0 43.75 22.85 44.65 25.7 44.75 29.3 44.9 32.8 43.75 L36.4 42.25 Q40.35 41.4 42.25 39.0 44.1 36.55 45.1 35.6 51.2 32.1 50.65 26.05 51.2 24.1 51.35 22.1 L51.35 19.25 Z" fill="none" stroke="#addeeb" stroke-linecap="round" stroke-linejoin="round" stroke-width="1.0"/>
    </g>
    <radialGradient cx="0" cy="0" gradientTransform="matrix(0.0334, 0.0, 0.0, 0.028, 25.0, 13.0)" gradientUnits="userSpaceOnUse" id="gradient0" r="819.2" spreadMethod="pad">
      <stop offset="0.5333333333333333" stop-color="#ffffff"/>
      <stop offset="1.0" stop-color="#edf7f9"/>
    </radialGradient>
    <g id="sprite0" transform="matrix(1.0, 0.0, 0.0, 1.0, 0.0, 0.0)">
      <use ffdec:characterId="2094" height="10.55" transform="matrix(1.0, 0.0, 0.0, 1.0, 0.0, 0.0)" width="12.35" xlink:href="#shape1"/>
    </g>
    <g id="shape1" transform="matrix(1.0, 0.0, 0.0, 1.0, 0.0, 0.0)">
      <path d="M1.65 6.35 Q2.15 6.75 4.15 7.35 L5.95 7.95 7.65 8.35 Q10.2 8.35 12.05 5.75 L12.35 5.4 Q12.1 7.2 10.55 8.75 8.75 10.55 6.65 10.55 5.55 10.55 4.2 9.6 L2.15 8.35 Q0.3 7.75 0.05 6.45 L0.0 4.6 1.65 6.35" fill="#c9e0e2" fill-opacity="0.18039216" fill-rule="evenodd" stroke="none"/>
      <path d="M11.45 4.1 Q11.45 5.05 11.15 5.45 10.5 6.35 8.4 6.35 5.1 6.35 3.05 4.85 1.55 3.75 1.55 3.05 1.55 -0.35 6.5 0.05 11.45 0.45 11.45 4.1" fill="#ffffff" fill-opacity="0.30588236" fill-rule="evenodd" stroke="none"/>
    </g>
  </defs>
</svg>
