<?xml version="1.0" encoding="UTF-8" standalone="no"?>
<svg xmlns:ffdec="https://www.free-decompiler.com/flash" xmlns:xlink="http://www.w3.org/1999/xlink" ffdec:objectType="frame" height="55.4px" width="28.25px" xmlns="http://www.w3.org/2000/svg">
  <g transform="matrix(1.0, 0.0, 0.0, 1.0, -1.45, -2.85)">
    <use ffdec:characterId="2513" height="55.4" transform="matrix(1.0, 0.0, 0.0, 1.0, 1.45, 2.85)" width="28.25" xlink:href="#shape0"/>
  </g>
  <defs>
    <g id="shape0" transform="matrix(1.0, 0.0, 0.0, 1.0, -1.45, -2.85)">
      <path d="M29.7 19.2 Q29.5 25.55 27.1 29.8 24.75 33.9 20.0 35.8 L19.9 42.75 11.8 42.95 11.65 30.25 Q17.8 29.35 19.25 24.85 20.2 21.7 20.2 18.7 L20.0 16.25 Q19.4 12.3 15.05 12.3 L14.85 12.3 Q11.05 12.35 11.05 19.2 L11.15 22.0 1.65 21.75 1.45 17.55 Q1.45 10.75 3.95 7.75 7.1 3.9 12.0 3.1 L15.4 2.85 Q18.45 2.85 21.2 3.7 25.6 5.05 27.8 8.95 29.7 12.5 29.7 17.95 L29.7 19.2 M21.75 52.7 Q21.75 54.95 20.15 56.6 18.5 58.25 16.15 58.25 13.9 58.25 12.25 56.6 10.6 54.95 10.6 52.7 10.6 50.35 12.25 48.7 13.9 47.05 16.15 47.05 18.5 47.05 20.15 48.7 21.75 50.35 21.75 52.7" fill="#0066ff" fill-rule="evenodd" stroke="none"/>
    </g>
  </defs>
</svg>
