<?xml version="1.0" encoding="UTF-8" standalone="no"?>
<svg xmlns:ffdec="https://www.free-decompiler.com/flash" xmlns:xlink="http://www.w3.org/1999/xlink" ffdec:objectType="frame" height="44.5px" width="32.5px" xmlns="http://www.w3.org/2000/svg">
  <g transform="matrix(1.0, 0.0, 0.0, 1.0, 0.0, 0.0)">
    <use ffdec:characterId="513" height="44.5" transform="matrix(1.0, 0.0, 0.0, 1.0, 0.0, 0.0)" width="32.5" xlink:href="#shape0"/>
  </g>
  <defs>
    <g id="shape0" transform="matrix(1.0, 0.0, 0.0, 1.0, 0.0, 0.0)">
      <path d="M24.8 16.9 L24.85 11.8 32.2 11.75 28.45 16.85 24.8 16.9 M4.25 11.85 L11.9 11.85 8.15 16.95 0.5 16.95 4.25 11.85 M11.7 38.9 L25.35 38.75 21.6 43.85 7.95 44.0 11.7 38.9" fill="#790000" fill-rule="evenodd" stroke="none"/>
      <path d="M32.2 11.75 L24.85 11.8 24.8 16.9 24.8 18.6 Q24.85 28.4 25.35 38.75 L11.7 38.9 Q12.1 28.8 12.05 18.5 L11.9 11.85 4.25 11.85 3.75 0.2 Q17.45 0.6 32.5 0.0 L32.2 11.75" fill="url(#gradient0)" fill-rule="evenodd" stroke="none"/>
      <path d="M3.75 0.2 L4.25 11.85 0.5 16.95 0.0 5.3 3.75 0.2 M11.9 11.85 L12.05 18.5 Q12.1 28.8 11.7 38.9 L7.95 44.0 Q8.45 31.4 8.2 18.45 L8.15 16.95 11.9 11.85" fill="#ab0404" fill-rule="evenodd" stroke="none"/>
      <path d="M11.9 11.85 L12.05 18.5 Q12.1 28.8 11.7 38.9 L25.35 38.75 M11.7 38.9 L7.95 44.0" fill="none" stroke="url(#gradient1)" stroke-linecap="round" stroke-linejoin="round" stroke-width="1.0"/>
    </g>
    <linearGradient gradientTransform="matrix(0.0, 0.022, -0.0238, 0.0, 229.2, 19.6)" gradientUnits="userSpaceOnUse" id="gradient0" spreadMethod="pad" x1="-819.2" x2="819.2">
      <stop offset="0.0" stop-color="#ff452e"/>
      <stop offset="1.0" stop-color="#e00a0a"/>
    </linearGradient>
    <radialGradient cx="0" cy="0" gradientTransform="matrix(0.0208, 0.0, 0.0, 0.01, 15.25, 35.5)" gradientUnits="userSpaceOnUse" id="gradient1" r="819.2" spreadMethod="pad">
      <stop offset="0.12941176470588237" stop-color="#ffe48e" stop-opacity="0.4"/>
      <stop offset="1.0" stop-color="#ffe983" stop-opacity="0.0"/>
    </radialGradient>
  </defs>
</svg>
