<?xml version="1.0" encoding="UTF-8" standalone="no"?>
<svg xmlns:ffdec="https://www.free-decompiler.com/flash" xmlns:xlink="http://www.w3.org/1999/xlink" ffdec:objectType="frame" height="62.95px" width="115.5px" xmlns="http://www.w3.org/2000/svg">
  <g transform="matrix(1.0, 0.0, 0.0, 1.0, 117.55, -24.0)">
    <use ffdec:characterId="899" height="44.6" transform="matrix(0.6646, 0.0, 0.0, 1.2031, -28.45, 24.0)" width="39.75" xlink:href="#sprite0"/>
    <use ffdec:characterId="1045" height="44.35" transform="matrix(0.6646, 0.0, 0.0, 1.2031, -47.6332, 32.95)" width="36.5" xlink:href="#sprite1"/>
    <use ffdec:characterId="1045" height="44.35" transform="matrix(0.6646, 0.0, 0.0, 1.2031, -71.0332, 24.0)" width="36.5" xlink:href="#sprite2"/>
    <use ffdec:characterId="971" height="44.9" transform="matrix(0.6646, 0.0, 0.0, 1.2031, -95.05, 32.95)" width="36.65" xlink:href="#sprite3"/>
    <use ffdec:characterId="1046" height="45.15" transform="matrix(0.6646, 0.0, 0.0, 1.2031, -117.55, 26.35)" width="35.6" xlink:href="#sprite4"/>
  </g>
  <defs>
    <g id="sprite0" transform="matrix(1.0, 0.0, 0.0, 1.0, 0.0, 0.0)">
      <use ffdec:characterId="530" height="44.6" transform="matrix(1.0, 0.0, 0.0, 1.0, 0.0, 0.0)" width="39.75" xlink:href="#shape0"/>
    </g>
    <g id="shape0" transform="matrix(1.0, 0.0, 0.0, 1.0, 0.0, 0.0)">
      <path d="M26.15 0.0 L25.05 5.25 Q23.9 10.0 22.1 15.05 L20.95 11.85 22.4 5.1 26.15 0.0" fill="#b80a0a" fill-rule="evenodd" stroke="none"/>
      <path d="M20.95 11.85 L22.1 15.05 Q23.9 10.0 25.05 5.25 L26.15 0.0 39.75 0.7 Q35.2 11.45 32.05 20.6 L29.05 29.95 29.15 38.4 15.4 39.0 14.75 29.6 11.2 20.4 5.9 7.45 3.75 2.4 17.75 1.55 Q19.1 6.65 20.95 11.85" fill="url(#gradient0)" fill-rule="evenodd" stroke="none"/>
      <path d="M3.75 2.4 L5.9 7.45 11.2 20.4 14.75 29.6 11.0 34.7 5.4 20.35 0.0 7.5 3.75 2.4" fill="#9a0000" fill-rule="evenodd" stroke="none"/>
      <path d="M15.4 39.0 L29.15 38.4 25.4 43.5 11.65 44.1 15.4 39.0" fill="#790000" fill-rule="evenodd" stroke="none"/>
      <path d="M14.75 29.6 L15.4 39.0 11.65 44.1 11.0 34.7 14.75 29.6" fill="#ab0404" fill-rule="evenodd" stroke="none"/>
      <path d="M14.75 29.6 L15.4 39.0 29.15 38.4 M15.4 39.0 L11.65 44.1" ffdec:has-small-stroke="true" ffdec:original-stroke-width="1.0" fill="none" stroke="url(#gradient1)" stroke-linecap="round" stroke-linejoin="round" stroke-width="1.0289127531584041"/>
    </g>
    <linearGradient gradientTransform="matrix(0.0, 0.022, -0.0238, 0.0, 21.75, 19.5)" gradientUnits="userSpaceOnUse" id="gradient0" spreadMethod="pad" x1="-819.2" x2="819.2">
      <stop offset="0.0" stop-color="#ff452e"/>
      <stop offset="1.0" stop-color="#e00a0a"/>
    </linearGradient>
    <radialGradient cx="0" cy="0" gradientTransform="matrix(0.0153, 0.0, 0.0, 0.008, 18.5, 36.75)" gradientUnits="userSpaceOnUse" id="gradient1" r="819.2" spreadMethod="pad">
      <stop offset="0.12941176470588237" stop-color="#ffe48e" stop-opacity="0.4"/>
      <stop offset="1.0" stop-color="#ffe983" stop-opacity="0.0"/>
    </radialGradient>
    <g id="sprite1" transform="matrix(1.0, 0.0, 0.0, 1.0, 0.05, 0.0)">
      <use ffdec:characterId="556" height="44.35" transform="matrix(1.0, 0.0, 0.0, 1.0, -0.05, 0.0)" width="36.5" xlink:href="#shape1"/>
    </g>
    <g id="shape1" transform="matrix(1.0, 0.0, 0.0, 1.0, 0.05, 0.0)">
      <path d="M0.45 43.8 L0.0 6.75 3.75 1.65 4.2 38.7 0.45 43.8" fill="#ab0404" fill-rule="evenodd" stroke="none"/>
      <path d="M19.1 29.2 L19.3 26.7 19.25 24.4 Q18.75 18.55 16.85 16.5 L16.75 10.5 Q22.1 8.9 23.0 19.3 23.2 24.15 22.15 26.65 21.15 28.95 19.1 29.2" fill="url(#gradient2)" fill-rule="evenodd" stroke="none"/>
      <path d="M19.1 29.2 Q21.15 28.95 22.15 26.65 23.2 24.15 23.0 19.3 22.1 8.9 16.75 10.5 L16.85 16.5 17.0 29.0 19.1 29.2 M4.2 38.7 L3.75 1.65 Q35.5 -5.6 36.35 18.55 36.7 22.95 35.85 26.4 35.15 29.3 33.6 31.55 L33.05 32.3 31.2 34.25 Q23.4 40.95 4.2 38.7" fill="url(#gradient3)" fill-rule="evenodd" stroke="none"/>
      <path d="M0.45 43.8 L4.2 38.7 Q23.4 40.95 31.2 34.25 L33.05 32.3 29.8 36.7 29.35 37.35 Q22.3 46.35 0.45 43.8" fill="#790000" fill-rule="evenodd" stroke="none"/>
      <path d="M0.45 43.8 L4.2 38.7 3.75 1.65 M33.05 32.3 L31.2 34.25 Q23.4 40.95 4.2 38.7" ffdec:has-small-stroke="true" ffdec:original-stroke-width="1.0" fill="none" stroke="url(#gradient4)" stroke-linecap="round" stroke-linejoin="round" stroke-width="1.0289127531584041"/>
    </g>
    <linearGradient gradientTransform="matrix(0.0078, 0.0048, -0.0061, 0.0098, 17.35, 11.35)" gradientUnits="userSpaceOnUse" id="gradient2" spreadMethod="pad" x1="-819.2" x2="819.2">
      <stop offset="0.1803921568627451" stop-color="#aa0000"/>
      <stop offset="0.5019607843137255" stop-color="#790000"/>
      <stop offset="0.803921568627451" stop-color="#790000"/>
      <stop offset="0.9882352941176471" stop-color="#930000"/>
    </linearGradient>
    <linearGradient gradientTransform="matrix(0.0, 0.0231, -0.024, 0.0, 20.1, 19.6)" gradientUnits="userSpaceOnUse" id="gradient3" spreadMethod="pad" x1="-819.2" x2="819.2">
      <stop offset="0.0" stop-color="#ff452e"/>
      <stop offset="1.0" stop-color="#e00a0a"/>
    </linearGradient>
    <radialGradient cx="0" cy="0" gradientTransform="matrix(0.0247, 0.0, 0.0, 0.0112, 11.75, 35.25)" gradientUnits="userSpaceOnUse" id="gradient4" r="819.2" spreadMethod="pad">
      <stop offset="0.12941176470588237" stop-color="#ffe48e" stop-opacity="0.4"/>
      <stop offset="1.0" stop-color="#ffe983" stop-opacity="0.0"/>
    </radialGradient>
    <g id="sprite2" transform="matrix(1.0, 0.0, 0.0, 1.0, 0.05, 0.0)">
      <use ffdec:characterId="556" height="44.35" transform="matrix(1.0, 0.0, 0.0, 1.0, -0.05, 0.0)" width="36.5" xlink:href="#shape2"/>
    </g>
    <g id="shape2" transform="matrix(1.0, 0.0, 0.0, 1.0, 0.05, 0.0)">
      <path d="M0.45 43.8 L0.0 6.75 3.75 1.65 4.2 38.7 0.45 43.8" fill="#ab0404" fill-rule="evenodd" stroke="none"/>
      <path d="M19.1 29.2 L19.3 26.7 19.25 24.4 Q18.75 18.55 16.85 16.5 L16.75 10.5 Q22.1 8.9 23.0 19.3 23.2 24.15 22.15 26.65 21.15 28.95 19.1 29.2" fill="url(#gradient5)" fill-rule="evenodd" stroke="none"/>
      <path d="M19.1 29.2 Q21.15 28.95 22.15 26.65 23.2 24.15 23.0 19.3 22.1 8.9 16.75 10.5 L16.85 16.5 17.0 29.0 19.1 29.2 M4.2 38.7 L3.75 1.65 Q35.5 -5.6 36.35 18.55 36.7 22.95 35.85 26.4 35.15 29.3 33.6 31.55 L33.05 32.3 31.2 34.25 Q23.4 40.95 4.2 38.7" fill="url(#gradient6)" fill-rule="evenodd" stroke="none"/>
      <path d="M0.45 43.8 L4.2 38.7 Q23.4 40.95 31.2 34.25 L33.05 32.3 29.8 36.7 29.35 37.35 Q22.3 46.35 0.45 43.8" fill="#790000" fill-rule="evenodd" stroke="none"/>
      <path d="M0.45 43.8 L4.2 38.7 3.75 1.65 M33.05 32.3 L31.2 34.25 Q23.4 40.95 4.2 38.7" ffdec:has-small-stroke="true" ffdec:original-stroke-width="1.0" fill="none" stroke="url(#gradient7)" stroke-linecap="round" stroke-linejoin="round" stroke-width="1.0289127531584041"/>
    </g>
    <linearGradient gradientTransform="matrix(0.0078, 0.0048, -0.0061, 0.0098, 17.35, 11.35)" gradientUnits="userSpaceOnUse" id="gradient5" spreadMethod="pad" x1="-819.2" x2="819.2">
      <stop offset="0.1803921568627451" stop-color="#aa0000"/>
      <stop offset="0.5019607843137255" stop-color="#790000"/>
      <stop offset="0.803921568627451" stop-color="#790000"/>
      <stop offset="0.9882352941176471" stop-color="#930000"/>
    </linearGradient>
    <linearGradient gradientTransform="matrix(0.0, 0.0231, -0.024, 0.0, 20.1, 19.6)" gradientUnits="userSpaceOnUse" id="gradient6" spreadMethod="pad" x1="-819.2" x2="819.2">
      <stop offset="0.0" stop-color="#ff452e"/>
      <stop offset="1.0" stop-color="#e00a0a"/>
    </linearGradient>
    <radialGradient cx="0" cy="0" gradientTransform="matrix(0.0247, 0.0, 0.0, 0.0112, 11.75, 35.25)" gradientUnits="userSpaceOnUse" id="gradient7" r="819.2" spreadMethod="pad">
      <stop offset="0.12941176470588237" stop-color="#ffe48e" stop-opacity="0.4"/>
      <stop offset="1.0" stop-color="#ffe983" stop-opacity="0.0"/>
    </radialGradient>
    <g id="sprite3" transform="matrix(1.0, 0.0, 0.0, 1.0, 0.0, 0.0)">
      <use ffdec:characterId="907" height="44.9" transform="matrix(1.0, 0.0, 0.0, 1.0, 0.0, 0.0)" width="36.65" xlink:href="#shape3"/>
    </g>
    <g id="shape3" transform="matrix(1.0, 0.0, 0.0, 1.0, 0.0, 0.0)">
      <path d="M21.75 1.8 L22.2 6.35 Q24.15 28.0 20.4 28.2 19.6 28.25 19.0 27.55 19.5 21.0 18.0 6.9 L21.75 1.8" fill="#ab0404" fill-rule="evenodd" stroke="none"/>
      <path d="M19.0 27.55 Q19.6 28.25 20.4 28.2 24.15 28.0 22.2 6.35 L21.75 1.8 34.85 0.0 Q39.35 24.7 32.75 34.05 L32.2 34.8 30.5 36.6 Q26.6 39.85 20.35 39.8 0.35 38.35 4.45 7.65 L5.3 2.2 18.05 3.65 Q15.95 24.2 19.0 27.55" fill="url(#gradient8)" fill-rule="evenodd" stroke="none"/>
      <path d="M5.3 2.2 L4.45 7.65 Q0.35 38.35 20.35 39.8 26.6 39.85 30.5 36.6 L32.2 34.8 29.3 38.75 28.3 40.1 27.95 40.55 Q23.9 44.95 16.6 44.9 -5.1 43.3 1.55 7.3 L5.3 2.2" fill="url(#gradient9)" fill-rule="evenodd" stroke="none"/>
      <path d="M5.3 2.2 L4.45 7.65 Q0.35 38.35 20.35 39.8 26.6 39.85 30.5 36.6 L32.2 34.8" ffdec:has-small-stroke="true" ffdec:original-stroke-width="1.0" fill="none" stroke="url(#gradient10)" stroke-linecap="round" stroke-linejoin="round" stroke-width="1.0289127531584041"/>
    </g>
    <linearGradient gradientTransform="matrix(0.0, 0.0226, -0.025, 0.0, 105.2, 19.7)" gradientUnits="userSpaceOnUse" id="gradient8" spreadMethod="pad" x1="-819.2" x2="819.2">
      <stop offset="0.0" stop-color="#ff452e"/>
      <stop offset="1.0" stop-color="#e00a0a"/>
    </linearGradient>
    <linearGradient gradientTransform="matrix(0.017, 0.0098, -0.013, 0.0226, 19.55, 26.65)" gradientUnits="userSpaceOnUse" id="gradient9" spreadMethod="pad" x1="-819.2" x2="819.2">
      <stop offset="0.1803921568627451" stop-color="#aa0000"/>
      <stop offset="0.5019607843137255" stop-color="#790000"/>
      <stop offset="0.803921568627451" stop-color="#790000"/>
      <stop offset="0.9882352941176471" stop-color="#930000"/>
    </linearGradient>
    <radialGradient cx="0" cy="0" gradientTransform="matrix(0.0171, 0.0, 0.0, 0.0085, 17.75, 36.75)" gradientUnits="userSpaceOnUse" id="gradient10" r="819.2" spreadMethod="pad">
      <stop offset="0.12941176470588237" stop-color="#ffe48e" stop-opacity="0.4"/>
      <stop offset="1.0" stop-color="#ffe983" stop-opacity="0.0"/>
    </radialGradient>
    <g id="sprite4" transform="matrix(1.0, 0.0, 0.0, 1.0, 0.0, 0.0)">
      <use ffdec:characterId="503" height="45.15" transform="matrix(1.0, 0.0, 0.0, 1.0, 0.0, 0.0)" width="35.6" xlink:href="#shape4"/>
    </g>
    <g id="shape4" transform="matrix(1.0, 0.0, 0.0, 1.0, 0.0, 0.0)">
      <path d="M3.75 1.6 Q12.55 -0.35 21.7 0.05 32.25 1.25 33.35 9.3 33.75 13.85 31.95 16.7 L31.35 17.55 30.0 19.4 Q35.85 21.6 35.6 28.6 L35.4 30.5 Q35.1 32.6 34.1 34.2 L33.3 35.3 31.35 37.0 Q27.35 39.75 19.4 40.05 L4.65 39.2 4.8 29.2 Q4.85 17.15 4.1 5.95 L3.75 1.6 M18.65 31.4 Q21.7 31.15 22.45 28.85 L22.65 27.5 Q22.35 24.15 18.2 24.0 L17.2 24.0 17.25 29.8 17.25 31.4 18.65 31.4 M17.1 14.75 L17.1 15.9 17.5 15.95 18.1 15.95 Q21.95 15.85 22.05 12.25 22.05 8.6 17.05 8.95 L17.1 14.75" fill="url(#gradient11)" fill-rule="evenodd" stroke="none"/>
      <path d="M17.25 29.8 L17.2 24.0 18.2 24.0 Q22.35 24.15 22.65 27.5 L22.45 28.85 Q21.7 31.15 18.65 31.4 18.2 30.35 17.25 29.8 M17.1 14.75 L17.05 8.95 Q22.05 8.6 22.05 12.25 21.95 15.85 18.1 15.95 17.75 15.2 17.1 14.75" fill="#790000" fill-rule="evenodd" stroke="none"/>
      <path d="M3.75 1.6 L4.1 5.95 Q4.85 17.15 4.8 29.2 L4.65 39.2 0.9 44.3 1.05 29.25 Q0.9 17.6 0.0 6.7 L3.75 1.6" fill="#ab0404" fill-rule="evenodd" stroke="none"/>
      <path d="M4.65 39.2 L19.4 40.05 Q27.35 39.75 31.35 37.0 L33.3 35.3 30.3 39.35 Q26.9 44.7 15.65 45.15 L0.9 44.3 4.65 39.2" fill="url(#gradient12)" fill-rule="evenodd" stroke="none"/>
      <path d="M3.75 1.6 L4.1 5.95 Q4.85 17.15 4.8 29.2 L4.65 39.2 19.4 40.05 Q27.35 39.75 31.35 37.0 L33.3 35.3 M0.9 44.3 L4.65 39.2" ffdec:has-small-stroke="true" ffdec:original-stroke-width="1.0" fill="none" stroke="url(#gradient13)" stroke-linecap="round" stroke-linejoin="round" stroke-width="1.0289127531584041"/>
    </g>
    <linearGradient gradientTransform="matrix(0.0, 0.0231, -0.024, 0.0, 100.55, 20.3)" gradientUnits="userSpaceOnUse" id="gradient11" spreadMethod="pad" x1="-819.2" x2="819.2">
      <stop offset="0.0" stop-color="#ff452e"/>
      <stop offset="1.0" stop-color="#e00a0a"/>
    </linearGradient>
    <linearGradient gradientTransform="matrix(0.0158, 0.0118, -0.0036, 0.0048, 10.95, 37.85)" gradientUnits="userSpaceOnUse" id="gradient12" spreadMethod="pad" x1="-819.2" x2="819.2">
      <stop offset="0.1803921568627451" stop-color="#aa0000"/>
      <stop offset="0.5019607843137255" stop-color="#790000"/>
      <stop offset="0.803921568627451" stop-color="#790000"/>
      <stop offset="0.9882352941176471" stop-color="#930000"/>
    </linearGradient>
    <radialGradient cx="0" cy="0" gradientTransform="matrix(0.0256, 0.0, 0.0, 0.0098, 10.25, 36.75)" gradientUnits="userSpaceOnUse" id="gradient13" r="819.2" spreadMethod="pad">
      <stop offset="0.12941176470588237" stop-color="#ffe48e" stop-opacity="0.4"/>
      <stop offset="1.0" stop-color="#ffe983" stop-opacity="0.0"/>
    </radialGradient>
  </defs>
</svg>
