<?xml version="1.0" encoding="UTF-8" standalone="no"?>
<svg xmlns:ffdec="https://www.free-decompiler.com/flash" xmlns:xlink="http://www.w3.org/1999/xlink" ffdec:objectType="frame" height="54.5px" width="48.3px" xmlns="http://www.w3.org/2000/svg">
  <g transform="matrix(1.0, 0.0, 0.0, 1.0, 3.4, 2.2)">
    <use ffdec:characterId="2304" height="54.5" transform="matrix(1.0, 0.0, 0.0, 1.0, -3.4, -2.2)" width="48.3" xlink:href="#shape0"/>
  </g>
  <defs>
    <g id="shape0" transform="matrix(1.0, 0.0, 0.0, 1.0, 3.4, 2.2)">
      <path d="M5.15 -0.85 L6.15 -0.95 20.85 -1.05 34.2 -0.95 33.8 -0.2 Q33.35 0.25 32.75 0.25 L5.8 0.65 4.25 3.3 Q2.3 6.45 1.6 8.2 -0.4 13.6 -0.4 23.5 -0.4 26.6 1.6 37.8 2.7 44.3 4.1 49.1 L3.9 49.25 1.8 51.9 0.7 47.95 Q-0.5 43.35 -1.35 38.3 -3.4 26.7 -3.4 23.5 -3.4 17.7 -2.3 12.65 L-2.05 12.35 Q-0.9 11.4 -0.25 8.35 L0.2 5.65 0.6 5.0 3.05 1.8 4.3 0.0 5.15 -0.85" fill="#000000" fill-opacity="0.2" fill-rule="evenodd" stroke="none"/>
      <path d="M12.25 25.45 L12.2 25.45 13.95 -0.35 36.45 1.4 35.65 25.65 35.65 25.85 12.25 25.45" fill="#1a599f" fill-rule="evenodd" stroke="none"/>
      <path d="M21.55 7.35 L37.6 8.05 34.2 25.65 22.2 25.55 12.55 25.95 7.45 6.7 21.55 7.35 22.2 25.55 21.55 7.35" fill="#9edcf7" fill-rule="evenodd" stroke="none"/>
      <path d="M21.55 7.35 L21.45 0.6 M37.6 8.05 L38.2 5.1 M21.55 7.35 L37.6 8.05 40.15 8.15 M5.15 6.6 L7.45 6.7 6.95 4.85 M11.25 25.95 L12.55 25.95 7.45 6.7 21.55 7.35 22.2 25.55 34.2 25.65 37.6 8.05 M34.2 25.65 L34.95 26.05 M12.55 25.95 L22.2 25.55" fill="none" stroke="#ff0000" stroke-linecap="round" stroke-linejoin="round" stroke-width="2.0"/>
      <path d="M23.8 13.8 L24.05 24.0 36.85 23.85 M12.75 24.35 L24.05 24.0" fill="none" stroke="#000000" stroke-linecap="round" stroke-linejoin="round" stroke-opacity="0.2" stroke-width="2.0"/>
      <path d="M37.3 -1.25 L39.25 -0.65 39.6 -0.45 39.6 -0.4 Q40.15 0.05 41.35 24.8 42.5 49.4 42.25 49.65 41.4 50.5 39.35 50.4 37.35 50.35 36.7 49.6 L36.45 36.85 36.35 36.55 Q34.85 28.85 33.85 25.4 L34.6 9.55 Q34.15 9.0 29.85 8.1 25.1 7.15 22.05 7.35 17.1 7.65 14.55 8.4 12.45 8.95 11.35 10.0 L13.5 25.2 9.95 36.95 6.2 48.75 Q5.95 49.5 2.75 39.05 L2.45 38.1 Q-1.1 26.5 -1.1 23.35 -1.1 16.8 -0.3 12.4 L1.0 7.5 Q1.45 6.0 3.45 2.7 5.4 -0.65 6.0 -0.9 L21.9 -1.45 Q36.15 -1.5 37.3 -1.25 M3.4 6.5 L3.75 5.95 3.75 5.75 3.4 6.5" fill="#ffb600" fill-rule="evenodd" stroke="none"/>
      <path d="M37.3 -1.25 L39.25 -0.65 39.6 -0.45 39.6 -0.4 Q40.15 0.05 41.35 24.8 42.5 49.4 42.25 49.65 41.4 50.5 39.35 50.4 37.35 50.35 36.7 49.6 L36.45 36.85 36.35 36.55 Q34.85 28.85 33.85 25.4 L34.6 9.55 Q34.15 9.0 29.85 8.1 25.1 7.15 22.05 7.35 17.1 7.65 14.55 8.4 12.45 8.95 11.35 10.0 L13.5 25.2 9.95 36.95 6.2 48.75 Q5.95 49.5 2.75 39.05 L2.45 38.1 Q-1.1 26.5 -1.1 23.35 -1.1 16.8 -0.3 12.4 L1.0 7.5 Q1.45 6.0 3.45 2.7 5.4 -0.65 6.0 -0.9 L21.9 -1.45 Q36.15 -1.5 37.3 -1.25 M3.4 6.5 L3.75 5.95 3.75 5.75 3.4 6.5" fill="#000000" fill-opacity="0.2" fill-rule="evenodd" stroke="none"/>
      <path d="M38.05 5.3 L38.85 7.8 Q40.25 12.6 41.2 19.85 41.6 23.3 41.2 36.0 40.8 48.0 40.5 48.8 40.4 49.15 38.95 49.3 L36.6 49.5 Q36.35 49.15 35.5 44.05 L35.2 32.5 Q34.85 25.2 34.4 22.9 32.65 14.3 25.0 11.4 L25.0 11.5 22.85 11.7 Q17.2 12.65 14.2 14.75 9.6 18.05 9.0 24.8 8.85 26.75 9.6 33.4 L10.95 43.75 Q9.8 48.5 9.5 48.8 L7.2 48.9 5.6 48.65 Q5.2 47.95 3.3 37.3 1.3 26.05 1.3 22.9 1.3 16.35 2.1 11.9 2.45 9.95 3.4 6.9 3.85 5.35 5.85 1.85 L6.3 1.15 6.15 2.85 14.8 3.55 38.05 5.3 M14.8 3.55 L16.1 10.2 18.25 10.15 Q22.25 10.4 25.0 11.4 22.25 10.4 18.25 10.15 L16.1 10.2 14.8 3.55" fill="#ffc400" fill-rule="evenodd" stroke="none"/>
      <path d="M38.05 5.3 L38.85 7.8 Q40.25 12.6 41.2 19.85 41.6 23.3 41.2 36.0 40.8 48.0 40.5 48.8 40.4 49.15 38.95 49.3 L36.6 49.5 Q36.35 49.15 35.5 44.05 L35.2 32.5 Q34.85 25.2 34.4 22.9 32.65 14.3 25.0 11.4 L25.0 11.5 22.85 11.7 Q17.2 12.65 14.2 14.75 9.6 18.05 9.0 24.8 8.85 26.75 9.6 33.4 L10.95 43.75 Q9.8 48.5 9.5 48.8 L7.2 48.9 5.6 48.65 Q5.2 47.95 3.3 37.3 1.3 26.05 1.3 22.9 1.3 16.35 2.1 11.9 2.45 9.95 3.4 6.9 3.85 5.35 5.85 1.85 L6.3 1.15 M25.0 11.4 Q22.25 10.4 18.25 10.15 L16.1 10.2 14.8 3.55" ffdec:has-small-stroke="true" ffdec:original-stroke-width="0.7" fill="none" stroke="#ffcc00" stroke-linecap="round" stroke-linejoin="round" stroke-width="1.0"/>
      <path d="M39.25 -0.65 L39.6 -0.45 39.6 -0.4 Q40.9 0.6 41.8 2.85 42.6 4.9 43.65 26.55 44.65 48.6 43.6 49.65 42.75 50.5 40.0 50.4 37.35 50.3 36.7 49.6 L36.15 26.85 Q35.75 20.65 31.55 17.1 27.2 13.45 20.45 13.95 14.8 14.4 11.8 16.3 7.2 19.2 6.6 25.9 6.4 28.05 8.1 38.6 9.7 48.6 9.45 48.95 8.5 50.3 5.95 50.3 3.6 50.25 3.2 49.5 2.8 48.75 0.9 37.9 -1.1 26.5 -1.1 23.35 -1.1 16.8 -0.3 12.4 L1.0 7.5 Q1.45 6.0 3.45 2.7 5.4 -0.65 6.0 -0.9 L21.9 -1.45 Q36.15 -1.5 37.3 -1.25 L39.25 -0.65" fill="#ffff00" fill-rule="evenodd" stroke="none"/>
      <path d="M14.85 -1.4 L21.9 -1.45 23.7 -1.45 33.5 -1.4 37.3 -1.25 39.25 -0.65 39.6 -0.45 39.6 -0.4 Q40.9 0.6 41.8 2.85 L42.15 4.5 Q42.8 9.3 43.65 26.55 44.65 48.6 43.6 49.65 42.75 50.5 40.0 50.4 37.35 50.3 36.7 49.6 L36.4 35.1 36.15 26.85 Q35.8 21.75 32.95 18.45 L31.55 17.1 Q27.45 13.65 21.2 13.9 L20.45 13.95 Q14.8 14.4 11.8 16.3 9.75 17.6 8.5 19.65 6.95 22.2 6.6 25.9 6.4 28.05 8.1 38.6 9.55 47.55 9.5 48.75 L8.15 49.75 5.95 50.3 Q3.6 50.25 3.2 49.5 2.8 48.75 0.9 37.9 -1.1 26.5 -1.1 23.35 -1.1 16.8 -0.3 12.4 L1.0 7.5 Q1.35 6.35 2.6 4.2 L3.45 2.7 Q5.4 -0.65 6.0 -0.9 L14.85 -1.4 Z" fill="none" stroke="#ffcc00" stroke-linecap="round" stroke-linejoin="round" stroke-width="1.5"/>
      <path d="M26.75 13.1 L27.55 13.35 M32.1 15.85 L32.55 16.2 34.2 17.8 Q37.55 21.7 38.0 27.75 L38.3 37.5 38.55 47.95 M28.8 13.85 Q29.9 14.35 30.95 15.0 M6.3 32.05 L7.4 39.7 8.65 47.95 M6.0 26.05 L5.95 26.8 M5.9 28.35 L6.1 30.3" ffdec:has-small-stroke="true" ffdec:original-stroke-width="0.7" fill="none" stroke="#ffffff" stroke-linecap="round" stroke-linejoin="round" stroke-width="1.0"/>
      <path d="M8.45 49.3 Q-1.8 14.8 20.35 13.35 41.35 13.2 37.0 48.75" fill="none" stroke="#ff0000" stroke-linecap="round" stroke-linejoin="round" stroke-width="6.0"/>
      <path d="M36.5 48.95 Q40.85 12.65 19.85 12.8 -2.3 14.25 8.25 50.2" fill="none" stroke="#ffffff" stroke-linecap="round" stroke-linejoin="round" stroke-opacity="0.2" stroke-width="3.5"/>
      <path d="M8.15 18.3 Q5.15 22.3 4.9 29.25 M36.2 26.8 Q33.1 13.3 20.95 12.85 M36.5 48.95 Q37.15 43.7 37.25 39.2 M37.15 34.1 L36.95 31.2 M16.05 13.4 L13.75 14.1" fill="none" stroke="#ffffff" stroke-linecap="round" stroke-linejoin="round" stroke-opacity="0.6" stroke-width="1.8"/>
    </g>
  </defs>
</svg>
