<?xml version="1.0" encoding="UTF-8" standalone="no"?>
<svg xmlns:ffdec="https://www.free-decompiler.com/flash" xmlns:xlink="http://www.w3.org/1999/xlink" ffdec:objectType="frame" height="247.3px" width="171.55px" xmlns="http://www.w3.org/2000/svg">
  <g transform="matrix(1.0, 0.0, 0.0, 1.0, 0.0, 0.0)">
    <clipPath id="clip1">
      <path d="M 0,0 L 1.0,0 L 1.0,1.0 L 0,1.0 Z"/>
    </clipPath>
    <clipPath id="clip2">
      <path d="M 0,21.0 L 1.0,21.0 L 1.0,22.0 L 0,22.0 Z"/>
    </clipPath>
    <clipPath id="clip3">
      <path d="M 151.0,0 L 152.0,0 L 152.0,1.0 L 151.0,1.0 Z"/>
    </clipPath>
    <clipPath id="clip4">
      <path d="M 151.0,21.0 L 152.0,21.0 L 152.0,22.0 L 151.0,22.0 Z"/>
    </clipPath>
    <clipPath id="clip5">
      <path d="M 1.0,0 L 151.0,0 L 151.0,1.0 L 1.0,1.0 Z"/>
    </clipPath>
    <clipPath id="clip6">
      <path d="M 0,1.0 L 1.0,1.0 L 1.0,21.0 L 0,21.0 Z"/>
    </clipPath>
    <clipPath id="clip7">
      <path d="M 1.0,21.0 L 151.0,21.0 L 151.0,22.0 L 1.0,22.0 Z"/>
    </clipPath>
    <clipPath id="clip8">
      <path d="M 151.0,1.0 L 152.0,1.0 L 152.0,21.0 L 151.0,21.0 Z"/>
    </clipPath>
    <clipPath id="clip9">
      <path d="M 1.0,1.0 L 151.0,1.0 L 151.0,21.0 L 1.0,21.0 Z"/>
    </clipPath>
    <g ffdec:characterId="126" ffdec:characterName="CellRenderer_upSkin">
      <use clip-path="url(#clip1)" transform="matrix(1.0, 0.0, 0.0, 1.0, 0.0, 0.0)" xlink:href="#sprite0"/>
      <use clip-path="url(#clip2)" transform="matrix(1.0, 0.0, 0.0, 1.0, 0.0, 0.0)" xlink:href="#sprite0"/>
      <use clip-path="url(#clip3)" transform="matrix(1.0, 0.0, 0.0, 1.0, 0.0, 0.0)" xlink:href="#sprite0"/>
      <use clip-path="url(#clip4)" transform="matrix(1.0, 0.0, 0.0, 1.0, 0.0, 0.0)" xlink:href="#sprite0"/>
      <use clip-path="url(#clip5)" transform="matrix(1.0, 0.0, 0.0, 1.0, 0.0, 0.0)" xlink:href="#sprite0"/>
      <use clip-path="url(#clip6)" transform="matrix(1.0, 0.0, 0.0, 1.0, 0.0, 0.0)" xlink:href="#sprite0"/>
      <use clip-path="url(#clip7)" transform="matrix(1.0, 0.0, 0.0, 1.0, 0.0, 0.0)" xlink:href="#sprite0"/>
      <use clip-path="url(#clip8)" transform="matrix(1.0, 0.0, 0.0, 1.0, 0.0, 0.0)" xlink:href="#sprite0"/>
      <use clip-path="url(#clip9)" transform="matrix(1.0, 0.0, 0.0, 1.0, 0.0, 0.0)" xlink:href="#sprite0"/>
    </g>
  </g>
  <defs>
    <g id="sprite0" transform="matrix(1.0, 0.0, 0.0, 1.0, 0.0, 0.0)">
      <use ffdec:characterId="125" height="22.05" transform="matrix(1.0, 0.0, 0.0, 1.0, 0.0, 0.0)" width="152.0" xlink:href="#shape0"/>
    </g>
    <g id="shape0" transform="matrix(1.0, 0.0, 0.0, 1.0, 0.0, 0.0)">
      <path d="M152.0 22.05 L151.05 22.05 0.95 22.05 0.0 22.05 0.0 21.05 0.0 0.95 0.0 0.05 0.95 0.05 151.05 0.05 152.0 0.05 152.0 0.95 152.0 21.05 152.0 22.05" fill="#eee6b7" fill-opacity="0.14901961" fill-rule="evenodd" stroke="none"/>
      <path d="M152.0 22.0 L151.05 22.0 0.95 22.0 0.0 22.0 0.0 21.05 0.0 0.95 0.0 0.0 0.95 0.0 151.05 0.0 152.0 0.0 152.0 0.95 152.0 21.05 152.0 22.0 M151.0 1.0 L1.0 1.0 1.0 21.0 151.0 21.0 151.0 1.0" fill="#666600" fill-opacity="0.0" fill-rule="evenodd" stroke="none"/>
    </g>
  </defs>
</svg>
