<?xml version="1.0" encoding="UTF-8" standalone="no"?>
<svg xmlns:ffdec="https://www.free-decompiler.com/flash" xmlns:xlink="http://www.w3.org/1999/xlink" ffdec:objectType="frame" height="247.3px" width="171.55px" xmlns="http://www.w3.org/2000/svg">
  <g transform="matrix(1.0, 0.0, 0.0, 1.0, 0.0, 0.0)">
    <use ffdec:characterId="101" ffdec:characterName="fl.core.ComponentShim" height="0.0" transform="matrix(1.0, 0.0, 0.0, 1.0, 86.05, 30.0)" width="0.0" xlink:href="#sprite0"/>
    <clipPath id="clip1">
      <path d="M 0,0 L 1.0,0 L 1.0,1.0 L 0,1.0 Z"/>
    </clipPath>
    <clipPath id="clip2">
      <path d="M 0,21.0 L 1.0,21.0 L 1.0,22.0 L 0,22.0 Z"/>
    </clipPath>
    <clipPath id="clip3">
      <path d="M 151.0,0 L 152.0,0 L 152.0,1.0 L 151.0,1.0 Z"/>
    </clipPath>
    <clipPath id="clip4">
      <path d="M 151.0,21.0 L 152.0,21.0 L 152.0,22.0 L 151.0,22.0 Z"/>
    </clipPath>
    <clipPath id="clip5">
      <path d="M 1.0,0 L 151.0,0 L 151.0,1.0 L 1.0,1.0 Z"/>
    </clipPath>
    <clipPath id="clip6">
      <path d="M 0,1.0 L 1.0,1.0 L 1.0,21.0 L 0,21.0 Z"/>
    </clipPath>
    <clipPath id="clip7">
      <path d="M 1.0,21.0 L 151.0,21.0 L 151.0,22.0 L 1.0,22.0 Z"/>
    </clipPath>
    <clipPath id="clip8">
      <path d="M 151.0,1.0 L 152.0,1.0 L 152.0,21.0 L 151.0,21.0 Z"/>
    </clipPath>
    <clipPath id="clip9">
      <path d="M 1.0,1.0 L 151.0,1.0 L 151.0,21.0 L 1.0,21.0 Z"/>
    </clipPath>
    <g ffdec:characterId="128" ffdec:characterName="CellRenderer_disabledSkin">
      <use clip-path="url(#clip1)" transform="matrix(1.0, 0.0, 0.0, 1.0, 19.55, 15.6)" xlink:href="#sprite1"/>
      <use clip-path="url(#clip2)" transform="matrix(1.0, 0.0, 0.0, 1.0, 19.55, 15.596)" xlink:href="#sprite1"/>
      <use clip-path="url(#clip3)" transform="matrix(1.0, 0.0, 0.0, 1.0, 19.5314, 15.6)" xlink:href="#sprite1"/>
      <use clip-path="url(#clip4)" transform="matrix(1.0, 0.0, 0.0, 1.0, 19.5314, 15.596)" xlink:href="#sprite1"/>
      <use clip-path="url(#clip5)" transform="matrix(0.9999, 0.0, 0.0, 1.0, 19.5501, 15.6)" xlink:href="#sprite1"/>
      <use clip-path="url(#clip6)" transform="matrix(1.0, 0.0, 0.0, 0.9998, 19.55, 15.6002)" xlink:href="#sprite1"/>
      <use clip-path="url(#clip7)" transform="matrix(0.9999, 0.0, 0.0, 1.0, 19.5501, 15.596)" xlink:href="#sprite1"/>
      <use clip-path="url(#clip8)" transform="matrix(1.0, 0.0, 0.0, 0.9998, 19.5314, 15.6002)" xlink:href="#sprite1"/>
      <use clip-path="url(#clip9)" transform="matrix(0.9999, 0.0, 0.0, 0.9998, 19.5501, 15.6002)" xlink:href="#sprite1"/>
    </g>
    <clipPath id="clip10">
      <path d="M 0,0 L 1.0,0 L 1.0,1.0 L 0,1.0 Z"/>
    </clipPath>
    <clipPath id="clip11">
      <path d="M 0,21.0 L 1.0,21.0 L 1.0,22.0 L 0,22.0 Z"/>
    </clipPath>
    <clipPath id="clip12">
      <path d="M 151.0,0 L 152.0,0 L 152.0,1.0 L 151.0,1.0 Z"/>
    </clipPath>
    <clipPath id="clip13">
      <path d="M 151.0,21.0 L 152.0,21.0 L 152.0,22.0 L 151.0,22.0 Z"/>
    </clipPath>
    <clipPath id="clip14">
      <path d="M 1.0,0 L 151.0,0 L 151.0,1.0 L 1.0,1.0 Z"/>
    </clipPath>
    <clipPath id="clip15">
      <path d="M 0,1.0 L 1.0,1.0 L 1.0,21.0 L 0,21.0 Z"/>
    </clipPath>
    <clipPath id="clip16">
      <path d="M 1.0,21.0 L 151.0,21.0 L 151.0,22.0 L 1.0,22.0 Z"/>
    </clipPath>
    <clipPath id="clip17">
      <path d="M 151.0,1.0 L 152.0,1.0 L 152.0,21.0 L 151.0,21.0 Z"/>
    </clipPath>
    <clipPath id="clip18">
      <path d="M 1.0,1.0 L 151.0,1.0 L 151.0,21.0 L 1.0,21.0 Z"/>
    </clipPath>
    <g ffdec:characterId="130" ffdec:characterName="CellRenderer_downSkin">
      <use clip-path="url(#clip10)" transform="matrix(1.0, 0.0, 0.0, 1.0, 19.55, 105.6)" xlink:href="#sprite2"/>
      <use clip-path="url(#clip11)" transform="matrix(1.0, 0.0, 0.0, 1.0, 19.55, 105.596)" xlink:href="#sprite2"/>
      <use clip-path="url(#clip12)" transform="matrix(1.0, 0.0, 0.0, 1.0, 19.5314, 105.6)" xlink:href="#sprite2"/>
      <use clip-path="url(#clip13)" transform="matrix(1.0, 0.0, 0.0, 1.0, 19.5314, 105.596)" xlink:href="#sprite2"/>
      <use clip-path="url(#clip14)" transform="matrix(0.9999, 0.0, 0.0, 1.0, 19.5501, 105.6)" xlink:href="#sprite2"/>
      <use clip-path="url(#clip15)" transform="matrix(1.0, 0.0, 0.0, 0.9998, 19.55, 105.6002)" xlink:href="#sprite2"/>
      <use clip-path="url(#clip16)" transform="matrix(0.9999, 0.0, 0.0, 1.0, 19.5501, 105.596)" xlink:href="#sprite2"/>
      <use clip-path="url(#clip17)" transform="matrix(1.0, 0.0, 0.0, 0.9998, 19.5314, 105.6002)" xlink:href="#sprite2"/>
      <use clip-path="url(#clip18)" transform="matrix(0.9999, 0.0, 0.0, 0.9998, 19.5501, 105.6002)" xlink:href="#sprite2"/>
    </g>
    <clipPath id="clip19">
      <path d="M 0,0 L 1.0,0 L 1.0,1.0 L 0,1.0 Z"/>
    </clipPath>
    <clipPath id="clip20">
      <path d="M 0,21.0 L 1.0,21.0 L 1.0,22.0 L 0,22.0 Z"/>
    </clipPath>
    <clipPath id="clip21">
      <path d="M 151.0,0 L 152.0,0 L 152.0,1.0 L 151.0,1.0 Z"/>
    </clipPath>
    <clipPath id="clip22">
      <path d="M 151.0,21.0 L 152.0,21.0 L 152.0,22.0 L 151.0,22.0 Z"/>
    </clipPath>
    <clipPath id="clip23">
      <path d="M 1.0,0 L 151.0,0 L 151.0,1.0 L 1.0,1.0 Z"/>
    </clipPath>
    <clipPath id="clip24">
      <path d="M 0,1.0 L 1.0,1.0 L 1.0,21.0 L 0,21.0 Z"/>
    </clipPath>
    <clipPath id="clip25">
      <path d="M 1.0,21.0 L 151.0,21.0 L 151.0,22.0 L 1.0,22.0 Z"/>
    </clipPath>
    <clipPath id="clip26">
      <path d="M 151.0,1.0 L 152.0,1.0 L 152.0,21.0 L 151.0,21.0 Z"/>
    </clipPath>
    <clipPath id="clip27">
      <path d="M 1.0,1.0 L 151.0,1.0 L 151.0,21.0 L 1.0,21.0 Z"/>
    </clipPath>
    <g ffdec:characterId="132" ffdec:characterName="CellRenderer_overSkin">
      <use clip-path="url(#clip19)" transform="matrix(1.0, 0.0, 0.0, 1.0, 19.55, 75.6)" xlink:href="#sprite3"/>
      <use clip-path="url(#clip20)" transform="matrix(1.0, 0.0, 0.0, 1.0, 19.55, 75.596)" xlink:href="#sprite3"/>
      <use clip-path="url(#clip21)" transform="matrix(1.0, 0.0, 0.0, 1.0, 19.5314, 75.6)" xlink:href="#sprite3"/>
      <use clip-path="url(#clip22)" transform="matrix(1.0, 0.0, 0.0, 1.0, 19.5314, 75.596)" xlink:href="#sprite3"/>
      <use clip-path="url(#clip23)" transform="matrix(0.9999, 0.0, 0.0, 1.0, 19.5501, 75.6)" xlink:href="#sprite3"/>
      <use clip-path="url(#clip24)" transform="matrix(1.0, 0.0, 0.0, 0.9998, 19.55, 75.6002)" xlink:href="#sprite3"/>
      <use clip-path="url(#clip25)" transform="matrix(0.9999, 0.0, 0.0, 1.0, 19.5501, 75.596)" xlink:href="#sprite3"/>
      <use clip-path="url(#clip26)" transform="matrix(1.0, 0.0, 0.0, 0.9998, 19.5314, 75.6002)" xlink:href="#sprite3"/>
      <use clip-path="url(#clip27)" transform="matrix(0.9999, 0.0, 0.0, 0.9998, 19.5501, 75.6002)" xlink:href="#sprite3"/>
    </g>
    <clipPath id="clip28">
      <path d="M 0,0 L 1.0,0 L 1.0,1.0 L 0,1.0 Z"/>
    </clipPath>
    <clipPath id="clip29">
      <path d="M 0,21.0 L 1.0,21.0 L 1.0,22.0 L 0,22.0 Z"/>
    </clipPath>
    <clipPath id="clip30">
      <path d="M 151.0,0 L 152.0,0 L 152.0,1.0 L 151.0,1.0 Z"/>
    </clipPath>
    <clipPath id="clip31">
      <path d="M 151.0,21.0 L 152.0,21.0 L 152.0,22.0 L 151.0,22.0 Z"/>
    </clipPath>
    <clipPath id="clip32">
      <path d="M 1.0,0 L 151.0,0 L 151.0,1.0 L 1.0,1.0 Z"/>
    </clipPath>
    <clipPath id="clip33">
      <path d="M 0,1.0 L 1.0,1.0 L 1.0,21.0 L 0,21.0 Z"/>
    </clipPath>
    <clipPath id="clip34">
      <path d="M 1.0,21.0 L 151.0,21.0 L 151.0,22.0 L 1.0,22.0 Z"/>
    </clipPath>
    <clipPath id="clip35">
      <path d="M 151.0,1.0 L 152.0,1.0 L 152.0,21.0 L 151.0,21.0 Z"/>
    </clipPath>
    <clipPath id="clip36">
      <path d="M 1.0,1.0 L 151.0,1.0 L 151.0,21.0 L 1.0,21.0 Z"/>
    </clipPath>
    <g ffdec:characterId="126" ffdec:characterName="CellRenderer_upSkin">
      <use clip-path="url(#clip28)" transform="matrix(1.0, 0.0, 0.0, 1.0, 18.55, 45.6)" xlink:href="#sprite4"/>
      <use clip-path="url(#clip29)" transform="matrix(1.0, 0.0, 0.0, 1.0, 18.55, 45.596)" xlink:href="#sprite4"/>
      <use clip-path="url(#clip30)" transform="matrix(1.0, 0.0, 0.0, 1.0, 18.5314, 45.6)" xlink:href="#sprite4"/>
      <use clip-path="url(#clip31)" transform="matrix(1.0, 0.0, 0.0, 1.0, 18.5314, 45.596)" xlink:href="#sprite4"/>
      <use clip-path="url(#clip32)" transform="matrix(0.9999, 0.0, 0.0, 1.0, 18.5501, 45.6)" xlink:href="#sprite4"/>
      <use clip-path="url(#clip33)" transform="matrix(1.0, 0.0, 0.0, 0.9998, 18.55, 45.6002)" xlink:href="#sprite4"/>
      <use clip-path="url(#clip34)" transform="matrix(0.9999, 0.0, 0.0, 1.0, 18.5501, 45.596)" xlink:href="#sprite4"/>
      <use clip-path="url(#clip35)" transform="matrix(1.0, 0.0, 0.0, 0.9998, 18.5314, 45.6002)" xlink:href="#sprite4"/>
      <use clip-path="url(#clip36)" transform="matrix(0.9999, 0.0, 0.0, 0.9998, 18.5501, 45.6002)" xlink:href="#sprite4"/>
    </g>
    <clipPath id="clip37">
      <path d="M 0,0 L 1.0,0 L 1.0,1.0 L 0,1.0 Z"/>
    </clipPath>
    <clipPath id="clip38">
      <path d="M 0,21.0 L 1.0,21.0 L 1.0,22.0 L 0,22.0 Z"/>
    </clipPath>
    <clipPath id="clip39">
      <path d="M 151.0,0 L 152.0,0 L 152.0,1.0 L 151.0,1.0 Z"/>
    </clipPath>
    <clipPath id="clip40">
      <path d="M 151.0,21.0 L 152.0,21.0 L 152.0,22.0 L 151.0,22.0 Z"/>
    </clipPath>
    <clipPath id="clip41">
      <path d="M 1.0,0 L 151.0,0 L 151.0,1.0 L 1.0,1.0 Z"/>
    </clipPath>
    <clipPath id="clip42">
      <path d="M 0,1.0 L 1.0,1.0 L 1.0,21.0 L 0,21.0 Z"/>
    </clipPath>
    <clipPath id="clip43">
      <path d="M 1.0,21.0 L 151.0,21.0 L 151.0,22.0 L 1.0,22.0 Z"/>
    </clipPath>
    <clipPath id="clip44">
      <path d="M 151.0,1.0 L 152.0,1.0 L 152.0,21.0 L 151.0,21.0 Z"/>
    </clipPath>
    <clipPath id="clip45">
      <path d="M 1.0,1.0 L 151.0,1.0 L 151.0,21.0 L 1.0,21.0 Z"/>
    </clipPath>
    <g ffdec:characterId="134" ffdec:characterName="CellRenderer_selectedDisabledSkin">
      <use clip-path="url(#clip37)" transform="matrix(1.0, 0.0, 0.0, 1.0, 19.55, 137.55)" xlink:href="#sprite5"/>
      <use clip-path="url(#clip38)" transform="matrix(1.0, 0.0, 0.0, 1.0, 19.55, 137.546)" xlink:href="#sprite5"/>
      <use clip-path="url(#clip39)" transform="matrix(1.0, 0.0, 0.0, 1.0, 19.5314, 137.55)" xlink:href="#sprite5"/>
      <use clip-path="url(#clip40)" transform="matrix(1.0, 0.0, 0.0, 1.0, 19.5314, 137.546)" xlink:href="#sprite5"/>
      <use clip-path="url(#clip41)" transform="matrix(0.9999, 0.0, 0.0, 1.0, 19.5501, 137.55)" xlink:href="#sprite5"/>
      <use clip-path="url(#clip42)" transform="matrix(1.0, 0.0, 0.0, 0.9998, 19.55, 137.5502)" xlink:href="#sprite5"/>
      <use clip-path="url(#clip43)" transform="matrix(0.9999, 0.0, 0.0, 1.0, 19.5501, 137.546)" xlink:href="#sprite5"/>
      <use clip-path="url(#clip44)" transform="matrix(1.0, 0.0, 0.0, 0.9998, 19.5314, 137.5502)" xlink:href="#sprite5"/>
      <use clip-path="url(#clip45)" transform="matrix(0.9999, 0.0, 0.0, 0.9998, 19.5501, 137.5502)" xlink:href="#sprite5"/>
    </g>
    <clipPath id="clip46">
      <path d="M 0,0 L 0.0,0 L 0.0,0.0 L 0,0.0 Z"/>
    </clipPath>
    <clipPath id="clip47">
      <path d="M 0,21.0 L 0.0,21.0 L 0.0,22.0 L 0,22.0 Z"/>
    </clipPath>
    <clipPath id="clip48">
      <path d="M 151.0,0 L 152.0,0 L 152.0,0.0 L 151.0,0.0 Z"/>
    </clipPath>
    <clipPath id="clip49">
      <path d="M 151.0,21.0 L 152.0,21.0 L 152.0,22.0 L 151.0,22.0 Z"/>
    </clipPath>
    <clipPath id="clip50">
      <path d="M 0.0,0 L 151.0,0 L 151.0,0.0 L 0.0,0.0 Z"/>
    </clipPath>
    <clipPath id="clip51">
      <path d="M 0,0.0 L 0.0,0.0 L 0.0,21.0 L 0,21.0 Z"/>
    </clipPath>
    <clipPath id="clip52">
      <path d="M 0.0,21.0 L 151.0,21.0 L 151.0,22.0 L 0.0,22.0 Z"/>
    </clipPath>
    <clipPath id="clip53">
      <path d="M 151.0,0.0 L 152.0,0.0 L 152.0,21.0 L 151.0,21.0 Z"/>
    </clipPath>
    <clipPath id="clip54">
      <path d="M 0.0,0.0 L 151.0,0.0 L 151.0,21.0 L 0.0,21.0 Z"/>
    </clipPath>
    <g ffdec:characterId="136" ffdec:characterName="CellRenderer_selectedDownSkin">
      <use clip-path="url(#clip46)" transform="matrix(1.0, 0.0, 0.0, 1.0, 19.55, 167.25)" xlink:href="#sprite6"/>
      <use clip-path="url(#clip47)" transform="matrix(1.0, 0.0, 0.0, 1.0, 19.55, 167.246)" xlink:href="#sprite6"/>
      <use clip-path="url(#clip48)" transform="matrix(1.0, 0.0, 0.0, 1.0, 19.5314, 167.25)" xlink:href="#sprite6"/>
      <use clip-path="url(#clip49)" transform="matrix(1.0, 0.0, 0.0, 1.0, 19.5314, 167.246)" xlink:href="#sprite6"/>
      <use clip-path="url(#clip50)" transform="matrix(0.9999, 0.0, 0.0, 1.0, 19.55, 167.25)" xlink:href="#sprite6"/>
      <use clip-path="url(#clip51)" transform="matrix(1.0, 0.0, 0.0, 0.9998, 19.55, 167.25)" xlink:href="#sprite6"/>
      <use clip-path="url(#clip52)" transform="matrix(0.9999, 0.0, 0.0, 1.0, 19.55, 167.246)" xlink:href="#sprite6"/>
      <use clip-path="url(#clip53)" transform="matrix(1.0, 0.0, 0.0, 0.9998, 19.5314, 167.25)" xlink:href="#sprite6"/>
      <use clip-path="url(#clip54)" transform="matrix(0.9999, 0.0, 0.0, 0.9998, 19.55, 167.25)" xlink:href="#sprite6"/>
    </g>
    <clipPath id="clip55">
      <path d="M 0,0 L 1.0,0 L 1.0,1.0 L 0,1.0 Z"/>
    </clipPath>
    <clipPath id="clip56">
      <path d="M 0,21.0 L 1.0,21.0 L 1.0,22.0 L 0,22.0 Z"/>
    </clipPath>
    <clipPath id="clip57">
      <path d="M 151.0,0 L 152.0,0 L 152.0,1.0 L 151.0,1.0 Z"/>
    </clipPath>
    <clipPath id="clip58">
      <path d="M 151.0,21.0 L 152.0,21.0 L 152.0,22.0 L 151.0,22.0 Z"/>
    </clipPath>
    <clipPath id="clip59">
      <path d="M 1.0,0 L 151.0,0 L 151.0,1.0 L 1.0,1.0 Z"/>
    </clipPath>
    <clipPath id="clip60">
      <path d="M 0,1.0 L 1.0,1.0 L 1.0,21.0 L 0,21.0 Z"/>
    </clipPath>
    <clipPath id="clip61">
      <path d="M 1.0,21.0 L 151.0,21.0 L 151.0,22.0 L 1.0,22.0 Z"/>
    </clipPath>
    <clipPath id="clip62">
      <path d="M 151.0,1.0 L 152.0,1.0 L 152.0,21.0 L 151.0,21.0 Z"/>
    </clipPath>
    <clipPath id="clip63">
      <path d="M 1.0,1.0 L 151.0,1.0 L 151.0,21.0 L 1.0,21.0 Z"/>
    </clipPath>
    <g ffdec:characterId="138" ffdec:characterName="CellRenderer_selectedOverSkin">
      <use clip-path="url(#clip55)" transform="matrix(1.0, 0.0, 0.0, 1.0, 19.55, 195.25)" xlink:href="#sprite7"/>
      <use clip-path="url(#clip56)" transform="matrix(1.0, 0.0, 0.0, 1.0, 19.55, 195.246)" xlink:href="#sprite7"/>
      <use clip-path="url(#clip57)" transform="matrix(1.0, 0.0, 0.0, 1.0, 19.5314, 195.25)" xlink:href="#sprite7"/>
      <use clip-path="url(#clip58)" transform="matrix(1.0, 0.0, 0.0, 1.0, 19.5314, 195.246)" xlink:href="#sprite7"/>
      <use clip-path="url(#clip59)" transform="matrix(0.9999, 0.0, 0.0, 1.0, 19.5501, 195.25)" xlink:href="#sprite7"/>
      <use clip-path="url(#clip60)" transform="matrix(1.0, 0.0, 0.0, 0.9998, 19.55, 195.2502)" xlink:href="#sprite7"/>
      <use clip-path="url(#clip61)" transform="matrix(0.9999, 0.0, 0.0, 1.0, 19.5501, 195.246)" xlink:href="#sprite7"/>
      <use clip-path="url(#clip62)" transform="matrix(1.0, 0.0, 0.0, 0.9998, 19.5314, 195.2502)" xlink:href="#sprite7"/>
      <use clip-path="url(#clip63)" transform="matrix(0.9999, 0.0, 0.0, 0.9998, 19.5501, 195.2502)" xlink:href="#sprite7"/>
    </g>
    <clipPath id="clip64">
      <path d="M 0,0 L 1.0,0 L 1.0,1.0 L 0,1.0 Z"/>
    </clipPath>
    <clipPath id="clip65">
      <path d="M 0,21.0 L 1.0,21.0 L 1.0,22.0 L 0,22.0 Z"/>
    </clipPath>
    <clipPath id="clip66">
      <path d="M 151.0,0 L 152.0,0 L 152.0,1.0 L 151.0,1.0 Z"/>
    </clipPath>
    <clipPath id="clip67">
      <path d="M 151.0,21.0 L 152.0,21.0 L 152.0,22.0 L 151.0,22.0 Z"/>
    </clipPath>
    <clipPath id="clip68">
      <path d="M 1.0,0 L 151.0,0 L 151.0,1.0 L 1.0,1.0 Z"/>
    </clipPath>
    <clipPath id="clip69">
      <path d="M 0,1.0 L 1.0,1.0 L 1.0,21.0 L 0,21.0 Z"/>
    </clipPath>
    <clipPath id="clip70">
      <path d="M 1.0,21.0 L 151.0,21.0 L 151.0,22.0 L 1.0,22.0 Z"/>
    </clipPath>
    <clipPath id="clip71">
      <path d="M 151.0,1.0 L 152.0,1.0 L 152.0,21.0 L 151.0,21.0 Z"/>
    </clipPath>
    <clipPath id="clip72">
      <path d="M 1.0,1.0 L 151.0,1.0 L 151.0,21.0 L 1.0,21.0 Z"/>
    </clipPath>
    <g ffdec:characterId="140" ffdec:characterName="CellRenderer_selectedUpSkin">
      <use clip-path="url(#clip64)" transform="matrix(1.0, 0.0, 0.0, 1.0, 19.55, 225.25)" xlink:href="#sprite8"/>
      <use clip-path="url(#clip65)" transform="matrix(1.0, 0.0, 0.0, 1.0, 19.55, 225.246)" xlink:href="#sprite8"/>
      <use clip-path="url(#clip66)" transform="matrix(1.0, 0.0, 0.0, 1.0, 19.5314, 225.25)" xlink:href="#sprite8"/>
      <use clip-path="url(#clip67)" transform="matrix(1.0, 0.0, 0.0, 1.0, 19.5314, 225.246)" xlink:href="#sprite8"/>
      <use clip-path="url(#clip68)" transform="matrix(0.9999, 0.0, 0.0, 1.0, 19.5501, 225.25)" xlink:href="#sprite8"/>
      <use clip-path="url(#clip69)" transform="matrix(1.0, 0.0, 0.0, 0.9998, 19.55, 225.2502)" xlink:href="#sprite8"/>
      <use clip-path="url(#clip70)" transform="matrix(0.9999, 0.0, 0.0, 1.0, 19.5501, 225.246)" xlink:href="#sprite8"/>
      <use clip-path="url(#clip71)" transform="matrix(1.0, 0.0, 0.0, 0.9998, 19.5314, 225.2502)" xlink:href="#sprite8"/>
      <use clip-path="url(#clip72)" transform="matrix(0.9999, 0.0, 0.0, 0.9998, 19.5501, 225.2502)" xlink:href="#sprite8"/>
    </g>
  </g>
  <defs>
    <g id="sprite1" transform="matrix(1.0, 0.0, 0.0, 1.0, 0.0, 0.0)">
      <use ffdec:characterId="127" height="22.05" transform="matrix(1.0, 0.0, 0.0, 1.0, 0.0, 0.0)" width="152.0" xlink:href="#shape0"/>
    </g>
    <g id="shape0" transform="matrix(1.0, 0.0, 0.0, 1.0, 0.0, 0.0)">
      <path d="M152.0 22.05 L151.0 22.05 0.95 22.05 0.0 22.05 0.0 21.05 0.0 0.95 0.0 0.05 0.95 0.05 151.0 0.05 152.0 0.05 152.0 0.95 152.0 21.05 152.0 22.05" fill="#ffffff" fill-opacity="0.3019608" fill-rule="evenodd" stroke="none"/>
      <path d="M151.0 21.0 L151.0 1.0 1.0 1.0 1.0 21.0 151.0 21.0 M152.0 0.0 L152.0 0.95 152.0 21.05 152.0 22.0 151.0 22.0 0.95 22.0 0.0 22.0 0.0 21.05 0.0 0.95 0.0 0.0 0.95 0.0 151.0 0.0 152.0 0.0" fill="url(#gradient0)" fill-rule="evenodd" stroke="none"/>
    </g>
    <linearGradient gradientTransform="matrix(0.0, 0.0079, -0.0079, 0.0, 143.5, 7.55)" gradientUnits="userSpaceOnUse" id="gradient0" spreadMethod="pad" x1="-819.2" x2="819.2">
      <stop offset="0.0" stop-color="#5b5d5e" stop-opacity="0.3019608"/>
      <stop offset="1.0" stop-color="#b7babc" stop-opacity="0.3019608"/>
    </linearGradient>
    <g id="sprite2" transform="matrix(1.0, 0.0, 0.0, 1.0, 0.0, 0.0)">
      <use ffdec:characterId="129" height="22.05" transform="matrix(1.0, 0.0, 0.0, 1.0, 0.0, 0.0)" width="152.0" xlink:href="#shape1"/>
    </g>
    <g id="shape1" transform="matrix(1.0, 0.0, 0.0, 1.0, 0.0, 0.0)">
      <path d="M152.0 22.05 L151.0 22.05 0.95 22.05 0.0 22.05 0.0 21.05 0.0 0.95 0.0 0.05 0.95 0.05 151.0 0.05 152.0 0.05 152.0 0.95 152.0 21.05 152.0 22.05" fill="#f4efd0" fill-rule="evenodd" stroke="none"/>
      <path d="M152.0 0.0 L152.0 0.95 152.0 21.05 152.0 22.0 151.0 22.0 0.95 22.0 0.0 22.0 0.0 21.05 0.0 0.95 0.0 0.0 0.95 0.0 151.0 0.0 152.0 0.0" fill="#f4efd0" fill-rule="evenodd" stroke="none"/>
    </g>
    <g id="sprite3" transform="matrix(1.0, 0.0, 0.0, 1.0, 0.0, 0.0)">
      <use ffdec:characterId="131" height="22.05" transform="matrix(1.0, 0.0, 0.0, 1.0, 0.0, 0.0)" width="152.0" xlink:href="#shape2"/>
    </g>
    <g id="shape2" transform="matrix(1.0, 0.0, 0.0, 1.0, 0.0, 0.0)">
      <path d="M152.0 22.05 L151.05 22.05 0.95 22.05 0.0 22.05 0.0 21.05 0.0 0.95 0.0 0.05 0.95 0.05 151.05 0.05 152.0 0.05 152.0 0.95 152.0 21.05 152.0 22.05" fill="#f4efd0" fill-rule="evenodd" stroke="none"/>
      <path d="M152.0 0.0 L152.0 0.95 152.0 21.05 152.0 22.0 151.05 22.0 0.95 22.0 0.0 22.0 0.0 21.05 0.0 0.95 0.0 0.0 0.95 0.0 151.05 0.0 152.0 0.0 M151.0 21.0 L151.0 1.0 1.0 1.0 1.0 21.0 151.0 21.0" fill="#eee6b7" fill-rule="evenodd" stroke="none"/>
      <path d="M151.0 21.0 L1.0 21.0 1.0 1.0 151.0 1.0 151.0 21.0" fill="#f0e9bf" fill-rule="evenodd" stroke="none"/>
    </g>
    <g id="sprite4" transform="matrix(1.0, 0.0, 0.0, 1.0, 0.0, 0.0)">
      <use ffdec:characterId="125" height="22.05" transform="matrix(1.0, 0.0, 0.0, 1.0, 0.0, 0.0)" width="152.0" xlink:href="#shape3"/>
    </g>
    <g id="shape3" transform="matrix(1.0, 0.0, 0.0, 1.0, 0.0, 0.0)">
      <path d="M152.0 22.05 L151.05 22.05 0.95 22.05 0.0 22.05 0.0 21.05 0.0 0.95 0.0 0.05 0.95 0.05 151.05 0.05 152.0 0.05 152.0 0.95 152.0 21.05 152.0 22.05" fill="#eee6b7" fill-opacity="0.14901961" fill-rule="evenodd" stroke="none"/>
      <path d="M152.0 22.0 L151.05 22.0 0.95 22.0 0.0 22.0 0.0 21.05 0.0 0.95 0.0 0.0 0.95 0.0 151.05 0.0 152.0 0.0 152.0 0.95 152.0 21.05 152.0 22.0 M151.0 1.0 L1.0 1.0 1.0 21.0 151.0 21.0 151.0 1.0" fill="#666600" fill-opacity="0.0" fill-rule="evenodd" stroke="none"/>
    </g>
    <g id="sprite5" transform="matrix(1.0, 0.0, 0.0, 1.0, 0.0, 0.0)">
      <use ffdec:characterId="133" height="22.0" transform="matrix(1.0, 0.0, 0.0, 1.0, 0.0, 0.0)" width="152.0" xlink:href="#shape4"/>
    </g>
    <g id="shape4" transform="matrix(1.0, 0.0, 0.0, 1.0, 0.0, 0.0)">
      <path d="M152.0 0.0 L152.0 0.95 152.0 21.05 152.0 22.0 151.05 22.0 1.1 22.0 0.0 22.0 0.0 21.05 0.0 0.95 0.0 0.0 1.1 0.0 151.05 0.0 152.0 0.0 M151.0 21.0 L151.0 1.0 1.1 1.0 1.0 1.0 1.0 21.0 1.1 21.0 151.0 21.0" fill="url(#gradient1)" fill-rule="evenodd" stroke="none"/>
      <path d="M151.0 21.0 L1.1 21.0 1.0 21.0 1.0 1.0 1.1 1.0 151.0 1.0 151.0 21.0" fill="url(#gradient2)" fill-rule="evenodd" stroke="none"/>
      <path d="M151.0 12.0 L1.1 12.0 1.0 12.0 1.0 1.0 1.1 1.0 151.0 1.0 151.0 12.0" fill="url(#gradient3)" fill-rule="evenodd" stroke="none"/>
    </g>
    <linearGradient gradientTransform="matrix(0.0, -0.0079, 0.0079, 0.0, 8.5, 14.45)" gradientUnits="userSpaceOnUse" id="gradient1" spreadMethod="pad" x1="-819.2" x2="819.2">
      <stop offset="0.0" stop-color="#5b5d5e" stop-opacity="0.3019608"/>
      <stop offset="1.0" stop-color="#b7babc" stop-opacity="0.3019608"/>
    </linearGradient>
    <linearGradient gradientTransform="matrix(0.0, -0.0139, 0.0139, 0.0, 63.5, 11.25)" gradientUnits="userSpaceOnUse" id="gradient2" spreadMethod="pad" x1="-819.2" x2="819.2">
      <stop offset="0.0" stop-color="#cccccc" stop-opacity="0.2"/>
      <stop offset="1.0" stop-color="#ffffff" stop-opacity="0.3019608"/>
    </linearGradient>
    <linearGradient gradientTransform="matrix(0.0, -0.0071, 0.104, 0.0, 63.5, 6.65)" gradientUnits="userSpaceOnUse" id="gradient3" spreadMethod="pad" x1="-819.2" x2="819.2">
      <stop offset="0.0" stop-color="#eeeeee" stop-opacity="0.0"/>
      <stop offset="1.0" stop-color="#ffffff" stop-opacity="0.2"/>
    </linearGradient>
    <g id="sprite6" transform="matrix(1.0, 0.0, 0.0, 1.0, 0.0, 0.0)">
      <use ffdec:characterId="135" height="22.05" transform="matrix(1.0, 0.0, 0.0, 1.0, 0.0, 0.0)" width="152.0" xlink:href="#shape5"/>
    </g>
    <g id="shape5" transform="matrix(1.0, 0.0, 0.0, 1.0, 0.0, 0.0)">
      <path d="M152.0 22.05 L151.05 22.05 0.0 22.05 0.0 21.05 0.0 0.05 151.05 0.05 152.0 0.05 152.0 21.05 152.0 22.05" fill="#f4efd0" fill-rule="evenodd" stroke="none"/>
      <path d="M151.0 21.0 L151.0 1.0 1.0 1.0 1.0 21.0 151.0 21.0 M152.0 0.0 L152.0 21.05 152.0 22.0 151.05 22.0 0.0 22.0 0.0 21.05 0.0 0.0 151.05 0.0 152.0 0.0" fill="#f4efd0" fill-rule="evenodd" stroke="none"/>
    </g>
    <g id="sprite7" transform="matrix(1.0, 0.0, 0.0, 1.0, 0.0, 0.0)">
      <use ffdec:characterId="137" height="22.05" transform="matrix(1.0, 0.0, 0.0, 1.0, 0.0, 0.0)" width="152.0" xlink:href="#shape6"/>
    </g>
    <g id="shape6" transform="matrix(1.0, 0.0, 0.0, 1.0, 0.0, 0.0)">
      <path d="M152.0 22.05 L151.05 22.05 0.95 22.05 0.0 22.05 0.0 21.05 0.0 0.95 0.0 0.05 0.95 0.05 151.05 0.05 152.0 0.05 152.0 0.95 152.0 21.05 152.0 22.05" fill="#f8f3de" fill-rule="evenodd" stroke="none"/>
      <path d="M152.0 0.0 L152.0 0.95 152.0 21.05 152.0 22.0 151.05 22.0 0.95 22.0 0.0 22.0 0.0 21.05 0.0 0.95 0.0 0.0 0.95 0.0 151.05 0.0 152.0 0.0" fill="#f8f3de" fill-rule="evenodd" stroke="none"/>
      <path d="M151.0 12.0 L1.0 12.0 1.0 1.0 151.0 1.0 151.0 12.0" fill="url(#gradient4)" fill-rule="evenodd" stroke="none"/>
    </g>
    <linearGradient gradientTransform="matrix(0.0, -0.0071, 0.104, 0.0, 63.5, 6.65)" gradientUnits="userSpaceOnUse" id="gradient4" spreadMethod="pad" x1="-819.2" x2="819.2">
      <stop offset="0.0" stop-color="#eeeeee" stop-opacity="0.0"/>
      <stop offset="1.0" stop-color="#ffffff" stop-opacity="0.3019608"/>
    </linearGradient>
    <g id="sprite8" transform="matrix(1.0, 0.0, 0.0, 1.0, 0.0, 0.0)">
      <use ffdec:characterId="139" height="22.05" transform="matrix(1.0, 0.0, 0.0, 1.0, 0.0, 0.0)" width="152.0" xlink:href="#shape7"/>
    </g>
    <g id="shape7" transform="matrix(1.0, 0.0, 0.0, 1.0, 0.0, 0.0)">
      <path d="M152.0 22.05 L151.05 22.05 0.95 22.05 0.0 22.05 0.0 21.05 0.0 0.95 0.0 0.05 0.95 0.05 151.05 0.05 152.0 0.05 152.0 0.95 152.0 21.05 152.0 22.05" fill="#f4efd0" fill-rule="evenodd" stroke="none"/>
      <path d="M151.0 21.0 L151.0 1.0 1.0 1.0 1.0 21.0 151.0 21.0 M152.0 0.0 L152.0 0.95 152.0 21.05 152.0 22.0 151.05 22.0 0.95 22.0 0.0 22.0 0.0 21.05 0.0 0.95 0.0 0.0 0.95 0.0 151.05 0.0 152.0 0.0" fill="#f1e7be" fill-rule="evenodd" stroke="none"/>
    </g>
  </defs>
</svg>
