<?xml version="1.0" encoding="UTF-8" standalone="no"?>
<svg xmlns:ffdec="https://www.free-decompiler.com/flash" xmlns:xlink="http://www.w3.org/1999/xlink" ffdec:objectType="frame" height="144.3px" width="101.5px" xmlns="http://www.w3.org/2000/svg">
  <g transform="matrix(1.0, 0.0, 0.0, 1.0, -24.25, -2.25)">
    <use ffdec:characterId="563" height="23.75" transform="matrix(1.0, 0.0, 0.0, 1.0, 73.8, 14.0)" width="13.75" xlink:href="#shape0"/>
    <use ffdec:characterId="1316" height="13.5" transform="matrix(1.3889, 0.0, 0.0, 1.3889, 76.8, 2.25)" width="13.5" xlink:href="#sprite0"/>
    <use ffdec:characterId="1317" height="101.5" transform="matrix(1.0, 0.0, 0.0, 1.0, 24.25, 24.25)" width="101.5" xlink:href="#sprite1"/>
    <use ffdec:characterId="1318" height="21.25" transform="matrix(1.0, 0.0, 0.0, 1.0, 40.65, 89.75)" width="68.75" xlink:href="#shape3"/>
    <use ffdec:characterId="1319" height="75.6" transform="matrix(1.0, 0.0, 0.0, 1.0, 65.4, 70.95)" width="19.3" xlink:href="#sprite2"/>
    <use ffdec:characterId="572" height="66.5" transform="matrix(0.5198, 0.0, 0.0, 0.5198, 37.6427, 48.3165)" width="68.95" xlink:href="#shape5"/>
    <use ffdec:characterId="573" height="28.85" transform="matrix(0.4307, 0.0, 0.0, 0.4291, 55.598, 62.3713)" width="28.8" xlink:href="#shape6"/>
    <use ffdec:characterId="1205" height="67.15" transform="matrix(0.5281, 0.0, 0.0, 0.5281, 35.0859, 47.5123)" width="77.35" xlink:href="#shape7"/>
    <use ffdec:characterId="572" height="66.5" transform="matrix(-0.5198, 0.0, 0.0, 0.5198, 113.1073, 48.3165)" width="68.95" xlink:href="#shape5"/>
    <use ffdec:characterId="573" height="28.85" transform="matrix(-0.4307, 0.0, 0.0, 0.4291, 95.152, 62.3713)" width="28.8" xlink:href="#shape6"/>
    <use ffdec:characterId="1205" height="67.15" transform="matrix(-0.5281, 0.0, 0.0, 0.5281, 115.6641, 47.5123)" width="77.35" xlink:href="#shape7"/>
    <use ffdec:characterId="1320" height="20.95" transform="matrix(-0.9051, 0.0, 0.0, 0.9051, 70.1482, 34.65)" width="34.8" xlink:href="#sprite3"/>
    <use ffdec:characterId="1320" height="20.95" transform="matrix(0.9051, 0.0, 0.0, 0.9051, 80.5018, 34.65)" width="34.8" xlink:href="#sprite3"/>
  </g>
  <defs>
    <g id="shape0" transform="matrix(1.0, 0.0, 0.0, 1.0, 1.2, 61.0)">
      <path d="M11.05 -59.5 Q1.4 -50.05 0.3 -38.75" fill="none" stroke="#383838" stroke-linecap="round" stroke-linejoin="round" stroke-width="3.0"/>
    </g>
    <g id="sprite0" transform="matrix(1.0, 0.0, 0.0, 1.0, 13.5, 0.0)">
      <use ffdec:characterId="564" height="13.5" transform="matrix(1.0, 0.0, 0.0, 1.0, -13.5, 0.0)" width="13.5" xlink:href="#shape1"/>
    </g>
    <g id="shape1" transform="matrix(1.0, 0.0, 0.0, 1.0, 13.5, 0.0)">
      <path d="M-13.5 6.75 Q-13.5 3.95 -11.55 1.95 -9.55 0.0 -6.75 0.0 -3.95 0.0 -2.0 1.95 0.0 3.95 0.0 6.75 0.0 9.55 -2.0 11.5 -3.95 13.5 -6.75 13.5 -9.55 13.5 -11.55 11.5 -13.5 9.55 -13.5 6.75" fill="#383838" fill-rule="evenodd" stroke="none"/>
    </g>
    <g id="sprite1" transform="matrix(1.0, 0.0, 0.0, 1.0, 100.5, 1.0)">
      <use ffdec:characterId="567" height="101.5" transform="matrix(1.0, 0.0, 0.0, 1.0, -100.5, -1.0)" width="101.5" xlink:href="#shape2"/>
    </g>
    <g id="shape2" transform="matrix(1.0, 0.0, 0.0, 1.0, 100.5, 1.0)">
      <path d="M-92.95 24.85 Q-96.35 33.1 -96.35 42.7 L-96.3 44.95 Q-95.55 62.9 -82.65 75.75 -68.9 89.5 -49.55 89.5 -30.15 89.5 -16.45 75.75 -3.5 62.9 -2.75 44.95 L-2.7 42.7 Q-2.7 34.6 -5.1 27.55 -0.5 36.6 -0.05 47.4 L0.0 49.75 Q0.0 70.35 -14.6 84.9 -29.15 99.5 -49.75 99.5 -70.35 99.5 -84.95 84.9 -99.5 70.35 -99.5 49.75 L-99.45 47.4 Q-98.95 35.0 -92.95 24.85" fill="url(#gradient0)" fill-rule="evenodd" stroke="none"/>
      <path d="M-5.1 27.55 Q-2.7 34.6 -2.7 42.7 L-2.75 44.95 Q-3.5 62.9 -16.45 75.75 -30.15 89.5 -49.55 89.5 -68.9 89.5 -82.65 75.75 -95.55 62.9 -96.3 44.95 L-96.35 42.7 Q-96.35 33.1 -92.95 24.85 -89.75 19.4 -84.95 14.55 -70.35 0.0 -49.75 0.0 -29.15 0.0 -14.6 14.55 -8.6 20.55 -5.1 27.55" fill="url(#gradient1)" fill-rule="evenodd" stroke="none"/>
      <path d="M-92.95 24.85 Q-98.95 35.0 -99.45 47.4 L-99.5 49.75 Q-99.5 70.35 -84.95 84.9 -70.35 99.5 -49.75 99.5 -29.15 99.5 -14.6 84.9 0.0 70.35 0.0 49.75 L-0.05 47.4 Q-0.5 36.6 -5.1 27.55 -8.6 20.55 -14.6 14.55 -29.15 0.0 -49.75 0.0 -70.35 0.0 -84.95 14.55 -89.75 19.4 -92.95 24.85 Z" fill="none" stroke="#a13e00" stroke-linecap="round" stroke-linejoin="round" stroke-width="2.0"/>
    </g>
    <radialGradient cx="0" cy="0" gradientTransform="matrix(0.0793, 0.0, 0.0, 0.0793, -46.75, 30.25)" gradientUnits="userSpaceOnUse" id="gradient0" r="819.2" spreadMethod="pad">
      <stop offset="0.0" stop-color="#ffb61b"/>
      <stop offset="1.0" stop-color="#ee8300"/>
    </radialGradient>
    <radialGradient cx="0" cy="0" gradientTransform="matrix(0.0793, 0.0, 0.0, 0.0793, -46.75, 30.25)" gradientUnits="userSpaceOnUse" id="gradient1" r="819.2" spreadMethod="pad">
      <stop offset="0.0" stop-color="#ffd035"/>
      <stop offset="1.0" stop-color="#ff9a00"/>
    </radialGradient>
    <g id="shape3" transform="matrix(1.0, 0.0, 0.0, 1.0, -40.65, -89.75)">
      <path d="M102.8 92.0 L104.3 91.8 105.3 93.05 105.55 93.35 105.5 93.8 105.05 93.4 102.8 92.0 105.05 93.4 105.5 93.8 105.45 93.95 Q105.0 96.95 102.95 99.75 L96.3 100.3 100.75 100.7 Q104.0 104.15 103.15 108.55 L103.1 108.75 102.85 108.75 Q100.25 110.0 97.0 110.0 L53.05 110.0 Q49.8 110.0 47.25 108.75 L47.05 108.75 46.7 108.5 46.7 108.45 47.25 108.75 46.7 108.45 46.8 106.5 Q47.2 103.5 49.1 100.7 L53.65 100.3 47.2 99.75 Q44.7 97.25 44.45 94.35 L46.6 92.3 46.95 92.0 47.2 92.0 Q49.75 90.75 53.05 90.75 L97.0 90.75 Q100.2 90.75 102.8 92.0 M102.85 108.75 L103.15 108.55 102.85 108.75 M47.2 92.0 L46.6 92.3 47.2 92.0" fill="#ffffff" fill-rule="evenodd" stroke="none"/>
      <path d="M105.5 93.8 Q108.4 96.4 108.4 100.0 L108.4 100.75 Q108.4 104.6 105.05 107.25 L103.15 108.55 Q104.0 104.15 100.75 100.7 L96.3 100.3 102.95 99.75 Q105.0 96.95 105.45 93.95 L105.5 93.8 M46.7 108.45 L44.95 107.25 Q41.65 104.6 41.65 100.75 L41.65 100.0 Q41.65 96.15 44.95 93.4 L46.6 92.3 44.45 94.35 Q44.7 97.25 47.2 99.75 L53.65 100.3 49.1 100.7 Q47.2 103.5 46.8 106.5 L46.7 108.45" fill="#5d1b1b" fill-rule="evenodd" stroke="none"/>
      <path d="M105.55 93.35 L105.5 93.8 105.45 93.95 Q105.0 96.95 102.95 99.75 L96.3 100.3 100.75 100.7 Q104.0 104.15 103.15 108.55 L103.1 108.75 M46.7 108.5 L46.7 108.45 46.8 106.5 Q47.2 103.5 49.1 100.7 L53.65 100.3 47.2 99.75 Q44.7 97.25 44.45 94.35" fill="none" stroke="#aaa4a4" stroke-linecap="round" stroke-linejoin="round" stroke-width="2.0"/>
      <path d="M105.5 93.8 Q108.4 96.4 108.4 100.0 L108.4 100.75 Q108.4 104.6 105.05 107.25 L103.15 108.55 102.85 108.75 Q100.25 110.0 97.0 110.0 L53.05 110.0 Q49.8 110.0 47.25 108.75 L46.7 108.45 44.95 107.25 Q41.65 104.6 41.65 100.75 L41.65 100.0 Q41.65 96.15 44.95 93.4 L46.6 92.3 47.2 92.0 Q49.75 90.75 53.05 90.75 L97.0 90.75 Q100.2 90.75 102.8 92.0 L105.05 93.4 105.5 93.8 Z" fill="none" stroke="#560f0f" stroke-linecap="round" stroke-linejoin="round" stroke-width="2.0"/>
    </g>
    <g id="sprite2" transform="matrix(1.0, 0.0, 0.0, 1.0, 18.3, 0.0)">
      <use ffdec:characterId="570" height="75.6" transform="matrix(1.0, 0.0, 0.0, 1.0, -18.3, 0.0)" width="19.3" xlink:href="#shape4"/>
    </g>
    <g id="shape4" transform="matrix(1.0, 0.0, 0.0, 1.0, 18.3, 0.0)">
      <path d="M-12.4 2.05 Q-12.3 1.1 -11.25 0.55 -10.15 0.0 -8.65 0.0 -7.3 0.0 -6.2 0.55 -5.0 1.1 -4.9 2.05 L-2.5 26.4 -2.4 26.4 -2.35 26.7 Q-8.45 32.55 -14.9 26.7 L-14.9 26.4 -14.8 26.4 -12.4 2.05" fill="url(#gradient2)" fill-rule="evenodd" stroke="none"/>
      <path d="M-2.35 26.7 L0.0 68.35 Q0.05 70.8 -2.4 72.65 -5.0 74.6 -8.65 74.6 -12.5 74.6 -14.95 72.65 -17.5 70.8 -17.3 68.35 L-14.9 26.7 Q-8.45 32.55 -2.35 26.7" fill="url(#gradient3)" fill-rule="evenodd" stroke="none"/>
      <path d="M-4.9 2.05 L-2.5 26.4 M-2.4 26.4 L-2.35 26.7 0.0 68.35 Q0.05 70.8 -2.4 72.65 -5.0 74.6 -8.65 74.6 -12.5 74.6 -14.95 72.65 -17.5 70.8 -17.3 68.35 L-14.9 26.7 -14.9 26.4 M-14.8 26.4 L-12.4 2.05" fill="none" stroke="#af4a00" stroke-linecap="round" stroke-linejoin="round" stroke-width="2.0"/>
    </g>
    <radialGradient cx="0" cy="0" gradientTransform="matrix(0.0115, 0.0, 0.0, 0.1011, -9.15, 0.8)" gradientUnits="userSpaceOnUse" id="gradient2" r="819.2" spreadMethod="pad">
      <stop offset="0.0" stop-color="#ffd035"/>
      <stop offset="1.0" stop-color="#ff9a00"/>
    </radialGradient>
    <radialGradient cx="0" cy="0" gradientTransform="matrix(0.0115, 0.0, 0.0, 0.1011, -9.15, 0.8)" gradientUnits="userSpaceOnUse" id="gradient3" r="819.2" spreadMethod="pad">
      <stop offset="0.0" stop-color="#f7aa1a"/>
      <stop offset="1.0" stop-color="#ef8601"/>
    </radialGradient>
    <g id="shape5" transform="matrix(1.0, 0.0, 0.0, 1.0, 34.45, 33.25)">
      <path d="M-25.3 -20.35 L-23.2 -22.55 Q-20.25 -25.35 -16.45 -27.45 -4.65 -34.0 8.5 -30.6 21.65 -27.2 28.45 -15.8 35.35 -4.45 31.8 8.25 L31.1 10.45 Q27.4 14.85 21.85 17.9 10.0 24.5 -3.15 21.1 -16.3 17.7 -23.1 6.3 -29.9 -5.1 -26.35 -17.7 L-25.65 -19.95 -25.3 -20.35" fill="url(#gradient4)" fill-rule="evenodd" stroke="none"/>
      <path d="M31.1 10.45 Q27.2 21.45 16.45 27.45 4.6 34.0 -8.55 30.6 -21.7 27.2 -28.55 15.8 -35.3 4.4 -31.75 -8.2 -30.55 -12.65 -28.25 -16.3 L-27.2 -17.95 -26.05 -19.45 -25.65 -19.95 -26.35 -17.7 Q-29.9 -5.1 -23.1 6.3 -16.3 17.7 -3.15 21.1 10.0 24.5 21.85 17.9 27.4 14.85 31.1 10.45" fill="url(#gradient5)" fill-rule="evenodd" stroke="none"/>
      <path d="M-25.3 -20.35 L-23.2 -22.55 Q-20.25 -25.35 -16.45 -27.45 -4.65 -34.0 8.5 -30.6 21.65 -27.2 28.45 -15.8 35.35 -4.45 31.8 8.25 L31.1 10.45 Q27.2 21.45 16.45 27.45 4.6 34.0 -8.55 30.6 -21.7 27.2 -28.55 15.8 -35.3 4.4 -31.75 -8.2 -30.55 -12.65 -28.25 -16.3 L-27.2 -17.95 -26.05 -19.45 -25.3 -20.35 Z" fill="none" stroke="#828595" stroke-linecap="round" stroke-linejoin="round" stroke-width="3.0"/>
    </g>
    <radialGradient cx="0" cy="0" gradientTransform="matrix(0.0475, 0.0, 0.0, 0.0475, 1.05, -11.35)" gradientUnits="userSpaceOnUse" id="gradient4" r="819.2" spreadMethod="pad">
      <stop offset="0.0" stop-color="#ffffff"/>
      <stop offset="1.0" stop-color="#dadce7"/>
    </radialGradient>
    <radialGradient cx="0" cy="0" gradientTransform="matrix(0.0475, 0.0, 0.0, 0.0475, 1.05, -11.35)" gradientUnits="userSpaceOnUse" id="gradient5" r="819.2" spreadMethod="pad">
      <stop offset="0.0" stop-color="#eaebf1"/>
      <stop offset="0.9882352941176471" stop-color="#bfc2d2"/>
    </radialGradient>
    <g id="shape6" transform="matrix(1.0, 0.0, 0.0, 1.0, 14.4, 14.4)">
      <path d="M7.5 -2.1 Q8.75 -2.45 9.7 -3.4 11.15 -4.85 11.15 -6.9 11.15 -9.0 9.7 -10.45 8.25 -11.9 6.2 -11.9 4.1 -11.9 2.65 -10.45 1.3 -9.1 1.2 -7.2 L0.35 -7.25 Q-2.8 -7.3 -4.95 -5.1 -7.15 -2.9 -7.15 0.2 -7.15 1.8 -6.55 3.2 -6.95 3.8 -6.95 4.55 -6.95 5.6 -6.2 6.35 -5.5 7.05 -4.45 7.05 L-3.3 6.8 Q-1.7 7.7 0.35 7.7 3.45 7.7 5.65 5.5 7.8 3.3 7.85 0.2 L7.5 -2.1 M10.2 -10.15 Q14.4 -5.95 14.4 0.0 14.4 6.0 10.2 10.2 5.95 14.4 0.0 14.45 -6.0 14.4 -10.2 10.2 -14.4 6.0 -14.4 0.0 -14.4 -5.95 -10.2 -10.15 -6.0 -14.4 0.0 -14.4 5.95 -14.4 10.2 -10.15" fill="#5c31d2" fill-rule="evenodd" stroke="none"/>
      <path d="M7.5 -2.1 L7.85 0.2 Q7.8 3.3 5.65 5.5 3.45 7.7 0.35 7.7 -1.7 7.7 -3.3 6.8 L-2.7 6.35 Q-1.95 5.6 -1.95 4.55 -1.95 3.5 -2.7 2.8 -3.4 2.05 -4.45 2.05 -5.5 2.05 -6.2 2.8 L-6.55 3.2 Q-7.15 1.8 -7.15 0.2 -7.15 -2.9 -4.95 -5.1 -2.8 -7.3 0.35 -7.25 L1.2 -7.2 1.2 -6.9 Q1.2 -4.85 2.65 -3.4 4.1 -1.95 6.2 -1.95 L7.5 -2.1" fill="#2b3435" fill-rule="evenodd" stroke="none"/>
      <path d="M1.2 -7.2 Q1.3 -9.1 2.65 -10.45 4.1 -11.9 6.2 -11.9 8.25 -11.9 9.7 -10.45 11.15 -9.0 11.15 -6.9 11.15 -4.85 9.7 -3.4 8.75 -2.45 7.5 -2.1 L6.2 -1.95 Q4.1 -1.95 2.65 -3.4 1.2 -4.85 1.2 -6.9 L1.2 -7.2 M-3.3 6.8 L-4.45 7.05 Q-5.5 7.05 -6.2 6.35 -6.95 5.6 -6.95 4.55 -6.95 3.8 -6.55 3.2 L-6.2 2.8 Q-5.5 2.05 -4.45 2.05 -3.4 2.05 -2.7 2.8 -1.95 3.5 -1.95 4.55 -1.95 5.6 -2.7 6.35 L-3.3 6.8" fill="#e6e6e6" fill-rule="evenodd" stroke="none"/>
    </g>
    <g id="shape7" transform="matrix(1.0, 0.0, 0.0, 1.0, 38.75, 34.25)">
      <path d="M22.95 13.65 Q18.1 20.5 10.7 22.75 3.25 25.0 -4.0 22.45 -11.3 19.85 -19.6 9.8 1.45 8.9 22.95 13.65" fill="#ffc42a" fill-rule="evenodd" stroke="none"/>
      <path d="M22.95 13.65 Q1.45 8.9 -19.6 9.8 -11.3 19.85 -4.0 22.45 3.25 25.0 10.7 22.75 18.1 20.5 22.95 13.65 M30.9 10.95 Q26.9 21.35 16.55 27.1 4.7 33.65 -8.45 30.25 -21.6 26.85 -28.45 15.45 -30.7 11.6 -31.8 7.65 -25.25 4.3 -13.15 0.3 -1.05 -3.7 12.15 0.05 25.35 3.7 30.9 10.95" fill="#ee8300" fill-rule="evenodd" stroke="none"/>
      <path d="M30.9 10.95 Q26.9 21.35 16.55 27.1 4.7 33.65 -8.45 30.25 -21.6 26.85 -28.45 15.45 -30.7 11.6 -31.8 7.65 -25.25 4.3 -13.15 0.3 -1.05 -3.7 12.15 0.05 25.35 3.7 30.9 10.95 Z" fill="none" stroke="#a13e00" stroke-linecap="round" stroke-linejoin="round" stroke-width="3.0"/>
      <path d="M-25.25 -21.65 Q-21.7 -25.55 -16.65 -28.35 -4.65 -35.05 8.8 -31.55 20.85 -28.45 27.7 -18.65 30.7 -7.3 27.05 2.1 27.75 2.65 32.65 4.8 L33.05 5.75 Q32.45 7.95 25.15 5.15 17.8 2.3 8.85 1.05 L-1.85 0.1 -11.6 -0.25 Q-18.25 0.2 -22.25 -1.1 -25.25 -2.1 -26.5 -4.0 -27.15 -6.1 -27.25 -8.55 -27.45 -13.25 -25.75 -19.25 L-25.05 -21.5 -25.25 -21.65" fill="#ffc42a" fill-rule="evenodd" stroke="none"/>
      <path d="M27.7 -18.65 L29.15 -16.45 Q32.85 -10.4 33.3 -4.85 L33.45 1.0 33.0 4.2 Q36.9 4.6 36.6 7.5 36.5 8.55 35.65 9.35 34.35 10.45 31.5 11.0 L27.6 9.9 22.05 8.5 16.25 7.1 Q-2.5 3.1 -20.05 5.3 L-24.15 5.9 -25.0 6.05 -28.3 6.8 -31.55 7.7 -32.95 7.7 Q-36.65 6.6 -36.75 4.0 -36.9 1.1 -33.5 0.85 -33.65 -3.85 -32.25 -8.7 -30.2 -16.25 -25.25 -21.65 L-25.05 -21.5 -25.75 -19.25 Q-27.45 -13.25 -27.25 -8.55 -27.15 -6.1 -26.5 -4.0 -25.25 -2.1 -22.25 -1.1 -18.25 0.2 -11.6 -0.25 L-1.85 0.1 8.85 1.05 Q17.8 2.3 25.15 5.15 32.45 7.95 33.05 5.75 L32.65 4.8 Q27.75 2.65 27.05 2.1 30.7 -7.3 27.7 -18.65 M33.0 4.2 Q32.15 4.15 32.65 4.8 32.15 4.15 33.0 4.2 M-33.5 0.85 L-28.65 -0.9 -33.5 0.85" fill="#ee8300" fill-rule="evenodd" stroke="none"/>
      <path d="M27.7 -18.65 L29.15 -16.45 Q32.85 -10.4 33.3 -4.85 L33.45 1.0 33.0 4.2 Q32.15 4.15 32.65 4.8 27.75 2.65 27.05 2.1 M-33.5 0.85 Q-33.65 -3.85 -32.25 -8.7 -30.2 -16.25 -25.25 -21.65 -21.7 -25.55 -16.65 -28.35 -4.65 -35.05 8.8 -31.55 20.85 -28.45 27.7 -18.65 M-28.65 -0.9 L-33.5 0.85" fill="none" stroke="#a13e00" stroke-linecap="round" stroke-linejoin="round" stroke-width="3.0"/>
      <path d="M33.0 4.2 Q36.9 4.6 36.6 7.5 36.5 8.55 35.65 9.35 34.35 10.45 31.5 11.0 L27.6 9.9 22.05 8.5 16.25 7.1 Q-2.5 3.1 -20.05 5.3 L-24.15 5.9 -25.0 6.05 -28.3 6.8 -31.55 7.7 -32.95 7.7 Q-36.65 6.6 -36.75 4.0 -36.9 1.1 -33.5 0.85" fill="none" stroke="#a13e00" stroke-linecap="round" stroke-linejoin="round" stroke-width="4.0"/>
    </g>
    <g id="sprite3" transform="matrix(1.0, 0.0, 0.0, 1.0, 34.8, 0.0)">
      <use ffdec:characterId="575" height="20.95" transform="matrix(1.0, 0.0, 0.0, 1.0, -34.8, 0.0)" width="34.8" xlink:href="#shape8"/>
    </g>
    <g id="shape8" transform="matrix(1.0, 0.0, 0.0, 1.0, 34.8, 0.0)">
      <path d="M-32.35 8.85 L-34.8 4.1 Q-12.95 -9.3 0.0 20.95 -16.95 -0.45 -32.35 8.85" fill="#323232" fill-rule="evenodd" stroke="none"/>
    </g>
  </defs>
</svg>
