<?xml version="1.0" encoding="UTF-8" standalone="no"?>
<svg xmlns:ffdec="https://www.free-decompiler.com/flash" xmlns:xlink="http://www.w3.org/1999/xlink" ffdec:objectType="frame" height="21.75px" width="119.45px" xmlns="http://www.w3.org/2000/svg">
  <g transform="matrix(1.0, 0.0, 0.0, 1.0, 0.0, 0.55)">
    <use ffdec:characterId="95" height="21.2" id="item_txt" transform="matrix(1.0, 0.0, 0.0, 1.0, 0.0, 0.0)" width="119.45" xlink:href="#text0"/>
    <use ffdec:characterId="97" height="18.0" transform="matrix(1.0, 0.0, 0.0, 1.0, 0.05, -0.55)" width="100.6" xlink:href="#sprite0"/>
  </g>
  <defs>
    <g id="text0" transform="matrix(1.0, 0.0, 0.0, 1.0, 2.0, 2.0)">
      <g transform="matrix(1.0, 0.0, 0.0, 1.0, -2.0, -2.0)">
        <use fill="#422d00" height="21.2" transform="matrix(0.0137, 0.0, 0.0, 0.0137, 0.0, 14.45)" width="119.45" xlink:href="#font_GosmickSans_a0"/>
        <use fill="#422d00" height="21.2" transform="matrix(0.0137, 0.0, 0.0, 0.0137, 6.6, 14.45)" width="119.45" xlink:href="#font_GosmickSans_s0"/>
        <use fill="#422d00" height="21.2" transform="matrix(0.0137, 0.0, 0.0, 0.0137, 12.9, 14.45)" width="119.45" xlink:href="#font_GosmickSans_d0"/>
        <use fill="#422d00" height="21.2" transform="matrix(0.0137, 0.0, 0.0, 0.0137, 20.25, 14.45)" width="119.45" xlink:href="#font_GosmickSans_w0"/>
        <use fill="#422d00" height="21.2" transform="matrix(0.0137, 0.0, 0.0, 0.0137, 30.5, 14.45)" width="119.45" xlink:href="#font_GosmickSans_e0"/>
        <use fill="#422d00" height="21.2" transform="matrix(0.0137, 0.0, 0.0, 0.0137, 37.7, 14.45)" width="119.45" xlink:href="#font_GosmickSans_r0"/>
        <use fill="#422d00" height="21.2" transform="matrix(0.0137, 0.0, 0.0, 0.0137, 42.8, 14.45)" width="119.45" xlink:href="#font_GosmickSans_t0"/>
        <use fill="#422d00" height="21.2" transform="matrix(0.0137, 0.0, 0.0, 0.0137, 48.0, 14.45)" width="119.45" xlink:href="#font_GosmickSans_y0"/>
        <use fill="#422d00" height="21.2" transform="matrix(0.0137, 0.0, 0.0, 0.0137, 54.95, 14.45)" width="119.45" xlink:href="#font_GosmickSans_u0"/>
        <use fill="#422d00" height="21.2" transform="matrix(0.0137, 0.0, 0.0, 0.0137, 61.6, 14.45)" width="119.45" xlink:href="#font_GosmickSans_m0"/>
        <use fill="#422d00" height="21.2" transform="matrix(0.0137, 0.0, 0.0, 0.0137, 72.8, 14.45)" width="119.45" xlink:href="#font_GosmickSans_n0"/>
        <use fill="#422d00" height="21.2" transform="matrix(0.0137, 0.0, 0.0, 0.0137, 79.8, 14.45)" width="119.45" xlink:href="#font_GosmickSans_b0"/>
        <use fill="#422d00" height="21.2" transform="matrix(0.0137, 0.0, 0.0, 0.0137, 87.05, 14.45)" width="119.45" xlink:href="#font_GosmickSans_w0"/>
      </g>
    </g>
    <g id="font_GosmickSans_a0">
      <path d="M349.5 -232.5 Q331.0 -247.0 308.0 -257.5 285.0 -268.5 256.5 -268.5 224.5 -268.5 198.5 -259.0 172.5 -250.0 153.5 -234.5 134.5 -219.0 124.0 -198.5 114.0 -178.0 114.0 -155.5 114.0 -110.5 141.5 -84.0 169.5 -57.5 218.5 -57.5 254.5 -57.5 279.5 -68.5 304.5 -80.0 327.0 -96.5 342.5 -115.5 349.0 -137.0 355.5 -158.5 356.5 -177.5 357.5 -196.5 355.0 -211.5 352.5 -226.5 349.5 -232.5 M455.0 -31.5 Q456.0 -23.5 451.0 -14.5 446.5 -6.0 439.5 0.5 432.5 7.5 423.0 12.0 414.0 16.5 406.5 16.5 388.5 16.5 375.5 -2.0 362.5 -20.5 353.5 -49.0 293.0 8.5 218.5 14.5 181.5 17.5 148.0 10.0 115.0 2.0 90.5 -18.0 65.5 -38.0 51.0 -70.5 36.0 -103.5 36.0 -152.5 36.0 -217.0 60.0 -254.5 84.0 -291.5 117.0 -311.0 149.5 -330.5 185.0 -336.0 220.5 -341.0 243.0 -340.0 296.0 -338.0 320.5 -330.0 345.0 -322.5 349.5 -317.5 353.5 -312.0 353.5 -311.0 353.5 -321.5 355.0 -344.5 356.5 -367.5 347.5 -390.5 338.0 -413.5 313.0 -429.5 288.0 -445.5 235.5 -441.0 200.0 -439.0 178.0 -431.5 156.0 -424.0 141.5 -415.0 127.0 -406.5 118.5 -397.5 109.5 -389.0 100.5 -384.0 96.5 -381.0 86.0 -382.5 L74.0 -384.0 Q72.0 -384.0 69.5 -388.5 66.5 -393.0 64.5 -398.5 L60.5 -409.5 57.5 -416.5 Q62.5 -439.0 79.0 -457.5 95.5 -476.0 119.5 -489.5 143.5 -502.5 174.5 -511.0 206.0 -519.0 240.0 -521.0 296.0 -524.0 333.0 -512.0 370.0 -499.5 392.5 -478.5 415.0 -457.5 425.0 -432.0 435.5 -406.5 439.0 -381.5 442.5 -356.0 441.5 -336.5 440.5 -316.5 440.5 -307.0 L440.5 -282.5 Q440.5 -270.0 439.5 -256.0 438.5 -231.5 438.5 -209.0 L438.5 -163.5 Q438.5 -130.0 441.5 -101.5 444.5 -72.5 455.0 -31.5" fill-rule="evenodd" stroke="none"/>
    </g>
    <g id="font_GosmickSans_s0">
      <path d="M432.0 -137.0 Q429.0 -101.5 409.5 -73.0 390.0 -45.0 360.5 -25.5 331.0 -6.0 294.0 4.0 257.0 14.5 218.0 14.5 154.5 14.5 105.5 -5.0 56.5 -24.5 39.0 -58.5 33.0 -70.5 37.0 -83.0 41.0 -95.0 49.5 -105.0 58.5 -114.5 68.5 -120.5 79.0 -126.0 86.0 -125.0 88.0 -124.0 89.5 -122.5 L94.0 -118.5 94.0 -117.5 Q108.5 -101.5 143.0 -84.0 177.0 -66.5 226.5 -66.5 271.5 -66.5 304.5 -83.0 338.0 -99.5 339.0 -128.0 341.0 -155.5 319.5 -175.5 298.0 -195.5 250.0 -207.0 L225.5 -213.0 Q174.0 -226.0 140.0 -239.5 105.5 -253.0 85.5 -270.0 65.5 -286.5 58.5 -307.5 51.0 -328.5 54.5 -358.5 58.5 -394.0 80.0 -422.5 101.5 -450.5 134.5 -471.0 168.0 -491.5 208.5 -503.0 249.0 -515.0 291.0 -517.0 308.0 -518.0 325.5 -517.5 343.0 -517.0 358.5 -512.0 374.0 -507.0 386.5 -497.0 399.5 -487.5 407.5 -470.0 411.5 -455.5 412.5 -446.0 413.5 -436.0 412.5 -430.0 411.5 -424.0 410.0 -420.0 408.5 -415.5 409.5 -414.5 404.5 -398.5 400.5 -390.0 396.5 -382.0 382.0 -380.0 365.5 -378.0 357.0 -381.5 348.0 -385.0 343.0 -391.0 338.0 -397.0 335.5 -405.5 333.0 -413.5 329.5 -422.0 313.5 -435.0 289.0 -434.5 L240.5 -432.0 Q195.5 -427.0 166.5 -405.0 137.0 -383.0 142.5 -354.0 147.5 -343.0 161.0 -333.0 174.0 -323.5 198.5 -316.5 264.0 -298.0 310.5 -280.0 356.5 -262.0 384.5 -242.0 412.5 -222.0 424.0 -196.5 435.0 -171.0 432.0 -137.0" fill-rule="evenodd" stroke="none"/>
    </g>
    <g id="font_GosmickSans_d0">
      <path d="M397.5 -258.0 Q397.5 -335.0 366.0 -382.5 334.0 -430.0 268.5 -430.0 198.0 -430.0 160.0 -378.5 122.0 -326.5 122.0 -236.5 122.0 -202.5 132.0 -173.0 142.5 -143.5 160.5 -121.5 178.5 -99.0 202.0 -87.0 225.5 -74.5 253.0 -74.5 324.0 -74.5 360.5 -125.0 397.5 -175.0 397.5 -258.0 M509.0 -37.0 Q510.0 -34.0 505.0 -26.5 499.5 -19.5 491.5 -13.0 483.5 -6.5 472.5 -0.5 462.0 5.0 451.5 5.0 L443.0 3.5 Q435.0 2.0 425.5 -3.5 416.0 -9.5 405.5 -20.5 395.5 -32.0 389.0 -51.5 365.5 -28.0 332.5 -10.5 299.0 7.0 262.0 10.0 214.0 14.0 173.0 -1.5 132.0 -17.5 101.5 -50.0 71.0 -82.0 53.5 -128.0 36.0 -174.0 36.0 -230.5 36.0 -287.0 53.5 -337.0 71.0 -387.0 102.5 -425.0 134.5 -463.0 178.5 -485.0 222.5 -507.0 274.5 -507.0 313.5 -507.0 343.0 -493.5 373.0 -480.5 402.5 -461.0 L404.0 -586.0 Q404.5 -643.0 406.5 -692.5 406.5 -700.5 410.5 -707.0 414.5 -714.0 422.0 -716.0 426.0 -725.0 439.5 -725.5 452.5 -726.0 462.0 -728.0 488.5 -730.0 497.0 -709.5 506.0 -689.5 504.0 -651.5 498.5 -555.0 495.0 -447.0 491.5 -339.0 491.5 -236.5 491.5 -192.5 493.5 -158.0 495.5 -123.0 499.5 -98.5 L502.0 -85.0 Q504.0 -77.0 505.5 -67.5 507.0 -58.5 508.0 -50.0 509.0 -41.0 509.0 -37.0" fill-rule="evenodd" stroke="none"/>
    </g>
    <g id="font_GosmickSans_w0">
      <path d="M729.0 -471.0 Q724.0 -458.0 721.0 -447.0 718.0 -436.5 712.5 -422.0 679.0 -324.5 654.5 -244.5 630.0 -165.0 607.5 -107.5 585.5 -50.0 563.5 -18.5 541.5 13.5 513.0 13.5 500.5 13.5 488.5 3.0 476.0 -8.0 463.5 -34.0 450.5 -60.0 435.5 -103.0 421.0 -146.0 402.5 -210.5 L393.5 -245.5 Q389.0 -265.0 383.5 -283.5 378.0 -302.0 372.0 -318.0 366.5 -334.5 359.5 -344.0 357.5 -344.0 356.0 -341.0 L350.0 -327.5 Q334.0 -278.5 315.5 -219.0 297.0 -159.5 276.5 -108.5 256.0 -57.0 233.0 -23.0 210.0 11.5 184.5 11.5 168.0 11.5 153.0 -8.5 138.0 -28.5 125.0 -61.0 111.5 -94.0 99.0 -137.0 86.0 -180.0 75.0 -226.0 L52.0 -317.0 Q41.0 -362.5 29.5 -401.0 L23.5 -422.5 Q21.5 -431.0 20.5 -438.5 19.5 -446.0 17.5 -453.5 16.5 -464.5 22.0 -474.0 27.5 -483.0 38.0 -490.0 48.0 -496.5 60.0 -499.0 71.5 -501.5 83.0 -500.5 94.0 -498.5 105.0 -490.5 115.5 -482.0 115.5 -468.0 121.0 -450.5 127.0 -421.5 133.0 -393.0 140.5 -359.0 L155.0 -290.0 170.0 -223.5 Q177.0 -192.5 184.5 -167.5 191.5 -143.0 198.5 -132.0 212.0 -156.5 222.0 -186.0 232.5 -216.0 241.5 -247.5 251.0 -279.5 260.0 -312.0 269.5 -345.0 280.5 -374.5 290.0 -399.0 299.5 -422.0 309.5 -445.0 321.0 -462.0 333.0 -479.0 346.5 -489.5 360.5 -499.5 379.0 -499.5 387.0 -499.5 397.0 -494.5 406.5 -489.5 412.5 -475.0 418.0 -464.5 426.0 -437.0 L444.5 -373.5 465.5 -298.0 Q476.0 -258.0 487.0 -223.0 497.5 -188.0 507.5 -161.5 517.0 -135.0 525.5 -125.5 542.5 -168.5 568.0 -249.0 593.0 -329.5 621.5 -434.0 625.5 -446.0 632.0 -459.5 638.0 -473.0 647.0 -483.5 656.5 -494.5 668.5 -501.0 681.0 -508.0 696.5 -508.0 711.5 -508.0 723.0 -498.5 734.0 -488.5 729.0 -471.0" fill-rule="evenodd" stroke="none"/>
    </g>
    <g id="font_GosmickSans_e0">
      <path d="M351.0 -378.0 Q349.0 -379.0 346.5 -385.5 344.0 -391.5 342.0 -392.5 329.5 -412.0 307.5 -422.5 285.5 -433.5 259.0 -433.5 229.5 -433.5 205.0 -418.5 180.0 -404.0 163.0 -380.5 145.5 -356.5 135.5 -327.0 126.0 -297.5 126.0 -266.5 136.0 -264.5 148.0 -264.0 159.5 -263.5 174.0 -265.5 210.0 -268.5 243.0 -275.5 276.5 -282.0 306.0 -291.0 331.0 -312.5 343.5 -333.5 356.5 -354.5 351.0 -378.0 M495.5 -132.0 Q500.5 -106.5 482.5 -81.0 464.0 -55.5 430.5 -34.0 397.5 -13.0 355.0 0.0 312.5 13.5 270.5 13.5 216.0 13.5 173.0 -4.0 130.0 -21.5 99.5 -53.5 68.5 -86.0 52.0 -131.5 36.0 -177.0 36.0 -232.5 36.0 -289.0 54.0 -338.5 71.5 -388.0 103.0 -425.5 134.0 -463.0 178.0 -484.5 222.0 -506.0 275.5 -506.0 312.5 -506.0 343.5 -494.5 375.0 -483.5 398.0 -464.0 421.0 -444.5 433.5 -418.0 446.5 -391.5 446.5 -359.5 446.5 -306.0 412.0 -273.0 378.0 -239.5 319.5 -222.0 280.5 -210.0 256.0 -205.0 231.5 -199.5 212.5 -198.0 L177.5 -196.0 141.5 -193.5 Q130.0 -178.0 149.5 -140.5 167.0 -104.5 201.5 -84.5 236.5 -64.5 279.5 -64.5 L282.5 -64.5 Q311.5 -64.5 335.0 -70.5 358.5 -77.0 377.0 -87.5 395.5 -98.5 410.5 -112.0 426.0 -126.0 440.5 -141.5 454.5 -155.5 467.0 -156.5 477.0 -156.5 486.0 -149.5 494.5 -142.5 495.5 -132.0" fill-rule="evenodd" stroke="none"/>
    </g>
    <g id="font_GosmickSans_r0">
      <path d="M365.5 -438.5 Q358.5 -389.0 344.5 -370.0 331.0 -351.0 318.0 -349.0 305.0 -347.0 296.5 -356.5 287.5 -365.5 292.0 -373.5 291.0 -387.0 285.5 -394.5 280.5 -402.5 273.5 -406.0 266.0 -409.5 258.5 -411.0 251.0 -412.5 246.0 -412.5 207.0 -410.5 185.0 -390.0 163.0 -369.5 151.5 -337.5 140.5 -305.0 137.0 -263.0 134.0 -221.0 134.0 -176.0 134.0 -143.0 135.0 -110.0 136.0 -76.5 138.0 -45.0 140.5 -24.5 129.5 -14.5 119.0 -5.0 97.5 1.5 89.0 6.5 85.5 9.0 82.0 11.5 77.0 11.5 65.5 10.5 57.5 5.0 49.0 -1.0 44.0 -13.5 39.0 -26.5 37.0 -47.0 35.0 -67.5 36.0 -99.0 37.0 -143.0 36.5 -204.0 36.0 -265.0 37.0 -323.5 38.0 -382.0 41.0 -426.5 44.0 -471.0 52.0 -481.5 73.5 -509.0 101.5 -509.0 122.0 -509.0 131.5 -494.0 141.5 -479.5 138.0 -452.5 L138.0 -446.5 Q140.5 -441.5 141.0 -437.0 141.5 -432.0 143.5 -428.0 179.0 -464.0 215.0 -487.5 251.0 -511.0 290.0 -511.0 324.5 -511.0 342.5 -490.0 360.5 -469.0 365.5 -438.5" fill-rule="evenodd" stroke="none"/>
    </g>
    <g id="font_GosmickSans_t0">
      <path d="M365.0 -470.0 Q363.0 -462.0 355.0 -451.0 347.5 -439.5 339.0 -431.5 336.0 -430.5 321.5 -428.0 L288.5 -424.5 255.0 -422.0 Q239.0 -421.0 234.0 -422.0 222.5 -410.0 222.5 -366.0 L222.5 -236.5 Q222.5 -207.0 220.0 -175.0 217.5 -142.5 220.5 -121.0 219.5 -99.5 227.5 -86.5 236.0 -74.0 248.0 -70.5 260.5 -67.0 274.5 -72.0 289.0 -77.0 300.5 -90.5 308.5 -93.5 318.0 -95.0 328.0 -96.5 336.0 -92.5 344.5 -88.5 349.0 -79.0 353.5 -70.0 352.5 -51.5 344.5 -31.0 336.0 -19.0 328.0 -7.5 314.0 -1.0 300.5 5.0 279.0 6.5 L222.5 9.0 Q201.0 9.0 189.0 2.5 177.5 -4.5 161.0 -17.5 161.0 -18.5 157.5 -23.0 154.0 -28.0 149.0 -33.0 144.5 -38.0 141.0 -43.0 137.5 -48.5 137.5 -50.5 123.0 -84.0 123.5 -119.0 124.0 -153.5 124.0 -194.5 124.0 -243.5 126.0 -293.0 L130.0 -391.0 Q130.0 -396.0 129.5 -402.0 129.0 -407.5 129.0 -412.5 126.0 -415.5 115.5 -416.5 L91.0 -417.5 Q78.0 -417.5 64.0 -418.0 L40.0 -419.5 Q30.0 -420.5 24.5 -425.5 19.5 -430.0 17.5 -436.5 15.5 -443.0 16.0 -449.5 16.5 -455.5 18.5 -459.5 21.5 -480.0 36.0 -490.0 50.5 -499.5 65.5 -498.5 L85.0 -497.5 106.5 -496.5 121.5 -497.0 Q127.0 -497.5 132.0 -501.0 132.0 -526.5 134.0 -561.0 135.5 -595.0 137.5 -618.5 139.5 -648.5 157.0 -657.5 174.5 -667.0 191.5 -668.0 213.5 -669.0 226.5 -656.0 240.0 -643.5 240.0 -612.5 240.0 -592.0 237.5 -571.5 235.0 -551.0 235.0 -530.5 234.0 -517.5 235.0 -509.5 236.0 -502.0 257.5 -502.0 L260.5 -502.0 Q271.5 -502.0 280.5 -502.5 L297.5 -504.0 316.5 -504.0 Q347.5 -504.0 357.0 -496.0 367.0 -487.5 365.0 -470.0" fill-rule="evenodd" stroke="none"/>
    </g>
    <g id="font_GosmickSans_y0">
      <path d="M489.5 -458.5 Q475.0 -441.0 466.5 -417.0 457.5 -393.0 449.5 -372.5 423.0 -304.0 400.0 -246.0 L355.0 -133.0 Q333.0 -77.5 310.5 -20.0 287.5 37.0 262.0 105.5 242.5 155.0 238.5 184.0 234.5 213.0 232.5 229.5 230.5 246.0 224.5 253.5 218.0 261.5 193.5 267.5 181.5 270.5 166.0 263.5 150.5 256.0 148.5 242.0 142.5 228.5 142.0 211.5 141.5 195.0 144.0 178.0 146.5 161.0 151.0 144.0 155.5 127.0 162.0 112.0 163.0 96.5 170.0 80.0 177.0 63.5 186.0 47.0 194.5 30.0 201.5 13.5 209.0 -3.0 211.0 -18.0 199.5 -45.0 187.0 -70.0 174.0 -95.0 163.0 -120.5 139.5 -169.5 116.5 -218.5 94.0 -267.0 73.5 -316.0 68.5 -328.5 60.0 -346.0 51.0 -363.5 43.0 -381.5 35.0 -400.0 28.0 -417.0 21.5 -434.0 19.5 -446.0 17.5 -456.5 23.0 -466.0 28.5 -476.0 37.5 -483.5 46.0 -491.5 56.5 -496.0 66.5 -500.5 76.0 -500.5 89.0 -500.5 104.5 -477.0 120.0 -453.5 135.5 -417.0 151.5 -380.5 168.0 -336.5 184.5 -292.5 200.0 -252.0 216.0 -211.5 231.0 -180.0 246.0 -148.0 259.0 -136.0 270.5 -161.5 282.0 -190.0 294.0 -219.0 305.5 -248.5 317.5 -278.5 327.5 -307.0 338.0 -335.5 347.0 -362.5 353.5 -380.5 361.0 -405.0 368.5 -429.0 380.0 -451.0 391.0 -473.0 407.5 -488.0 424.0 -503.0 448.5 -503.0 455.5 -503.0 463.0 -498.5 470.0 -494.5 476.0 -487.5 482.5 -481.0 486.5 -473.5 490.5 -465.5 489.5 -458.5" fill-rule="evenodd" stroke="none"/>
    </g>
    <g id="font_GosmickSans_u0">
      <path d="M457.5 -449.5 Q452.5 -382.0 451.0 -316.5 449.5 -251.0 449.5 -183.5 L449.5 -154.0 Q449.5 -134.5 450.0 -119.0 450.5 -103.5 451.5 -90.5 452.5 -87.0 453.5 -77.5 454.5 -68.0 455.0 -58.0 455.5 -48.5 455.5 -39.0 L455.5 -29.0 Q457.5 -12.5 448.0 -2.5 438.5 7.0 415.5 7.0 L407.5 6.5 Q401.5 6.0 395.0 4.5 388.0 3.0 382.0 -1.0 376.0 -5.5 375.0 -13.5 L373.0 -20.0 370.0 -34.5 367.0 -48.5 Q365.5 -54.5 364.5 -54.5 355.5 -30.0 332.5 -16.5 309.5 -3.0 283.5 2.5 258.0 8.0 234.0 8.5 210.0 9.0 198.5 8.0 140.5 5.0 104.5 -27.5 68.5 -59.5 51.0 -111.0 38.0 -149.5 36.5 -198.0 35.0 -246.0 36.0 -284.0 37.0 -310.5 37.5 -335.0 38.0 -359.5 40.0 -386.0 41.0 -404.5 40.0 -423.5 39.0 -442.5 42.0 -459.0 45.0 -475.5 56.5 -487.0 67.5 -499.0 94.0 -503.0 112.5 -506.0 129.5 -494.0 146.5 -481.5 146.5 -461.0 146.5 -430.5 145.0 -400.0 143.5 -370.0 141.0 -341.0 138.0 -312.5 136.5 -287.5 135.0 -262.5 135.0 -243.0 135.0 -161.0 152.0 -123.0 169.0 -85.0 212.0 -80.0 236.5 -77.0 260.5 -83.0 284.5 -89.5 303.0 -104.0 321.5 -119.0 333.0 -142.0 344.0 -165.0 344.0 -196.0 347.0 -223.5 348.5 -255.5 350.0 -288.0 351.0 -320.5 352.5 -353.5 353.0 -385.5 353.5 -418.0 355.5 -447.5 354.5 -457.0 361.0 -466.5 367.5 -476.5 377.5 -485.0 387.0 -494.0 399.0 -499.0 410.5 -504.0 420.0 -504.0 437.5 -504.0 448.5 -491.5 460.0 -479.5 457.5 -449.5" fill-rule="evenodd" stroke="none"/>
    </g>
    <g id="font_GosmickSans_m0">
      <path d="M146.5 -405.5 Q149.5 -408.5 152.0 -412.0 154.5 -415.5 157.5 -418.5 187.5 -454.5 227.5 -481.0 267.5 -508.0 316.5 -507.0 352.5 -506.0 383.0 -486.5 413.5 -467.0 431.0 -436.0 432.0 -428.0 437.0 -421.0 442.5 -413.5 447.5 -407.5 483.5 -451.5 533.5 -481.0 583.5 -511.0 643.0 -506.0 680.0 -502.5 708.0 -482.0 736.5 -461.5 753.5 -429.0 766.0 -405.5 772.5 -367.0 779.5 -328.5 782.5 -286.0 785.5 -243.5 786.0 -203.5 786.5 -163.5 787.5 -137.0 788.5 -108.5 787.5 -79.5 786.5 -68.5 786.0 -57.0 785.5 -46.0 787.5 -34.5 787.5 -29.5 789.0 -25.5 790.5 -21.5 790.5 -16.0 790.5 -8.0 784.5 -2.5 778.0 3.0 769.5 7.0 761.0 10.5 751.5 12.5 742.5 14.5 736.5 14.5 705.5 14.5 695.5 -18.5 685.0 -51.0 683.5 -100.0 682.0 -149.5 684.5 -206.5 687.0 -264.0 682.0 -313.0 677.0 -362.5 658.5 -395.0 640.0 -428.0 597.0 -428.0 576.5 -428.0 556.5 -418.5 536.5 -409.5 520.0 -395.0 504.0 -381.0 492.0 -362.0 480.5 -343.0 474.0 -324.5 466.0 -297.0 463.5 -260.5 461.0 -224.0 461.5 -185.5 462.0 -147.5 464.0 -110.0 466.0 -72.5 467.0 -43.0 468.0 -20.5 451.0 -1.0 434.0 18.5 410.5 18.5 389.0 18.5 378.0 3.0 368.5 -10.5 365.0 -42.5 361.5 -75.0 360.5 -111.5 359.5 -147.5 360.0 -181.0 L360.5 -230.5 Q360.5 -251.0 361.5 -284.0 362.5 -316.5 357.5 -348.0 352.5 -379.0 337.5 -401.5 322.5 -424.0 291.0 -424.0 264.0 -424.0 239.5 -412.5 215.0 -400.5 195.5 -381.5 176.0 -362.5 163.5 -338.0 150.5 -313.5 148.5 -288.0 145.5 -249.0 141.0 -210.5 136.0 -172.0 137.0 -133.5 137.0 -113.0 139.5 -94.0 141.5 -75.0 142.5 -55.5 143.5 -44.0 139.0 -33.0 134.0 -21.5 125.5 -12.5 116.5 -3.5 106.0 3.0 95.0 9.0 84.0 9.0 63.5 9.0 54.0 -6.5 44.0 -21.5 40.5 -43.0 37.0 -64.5 36.5 -86.5 36.0 -108.5 36.0 -122.0 35.0 -168.0 38.5 -212.5 42.0 -257.0 43.0 -303.0 44.0 -339.0 43.5 -376.0 43.0 -412.5 43.0 -448.5 43.0 -475.0 60.0 -495.0 77.0 -515.0 104.5 -515.0 122.0 -515.0 132.5 -503.5 143.5 -492.5 145.5 -475.0 147.5 -457.5 145.0 -440.5 142.5 -424.0 146.5 -405.5" fill-rule="evenodd" stroke="none"/>
    </g>
    <g id="font_GosmickSans_n0">
      <path d="M482.0 -48.5 Q484.0 -28.0 478.0 -10.5 472.0 7.0 454.5 8.0 450.5 12.0 445.0 12.5 439.0 13.0 433.5 12.5 L423.5 11.0 416.5 10.0 Q402.0 8.0 393.5 -9.0 385.0 -26.0 380.0 -50.5 375.5 -75.0 374.0 -104.5 372.5 -134.5 372.5 -162.0 L372.5 -217.5 Q372.5 -244.0 374.0 -273.0 375.5 -302.5 375.5 -319.5 375.5 -378.0 352.0 -403.0 328.5 -428.0 293.0 -427.0 250.0 -427.0 220.0 -401.0 190.5 -375.0 172.0 -332.5 154.0 -290.0 145.5 -237.0 137.5 -183.5 137.5 -128.0 L137.5 -103.5 Q137.5 -91.5 139.5 -80.0 141.5 -58.5 137.0 -42.0 132.5 -26.0 123.5 -14.5 115.0 -3.5 104.0 3.0 93.5 9.0 83.0 9.0 51.5 9.0 43.5 -26.5 36.0 -61.5 36.0 -124.0 L36.0 -184.5 Q36.0 -220.5 37.0 -258.0 38.0 -295.0 40.0 -333.0 42.0 -371.0 46.0 -402.5 L46.0 -424.0 Q46.0 -435.5 44.5 -447.5 43.0 -460.0 45.0 -470.5 46.0 -481.5 57.0 -488.5 67.5 -496.0 80.5 -499.5 93.5 -503.0 105.5 -503.5 118.0 -504.0 123.0 -502.0 134.0 -502.0 139.0 -491.0 143.5 -480.5 144.5 -466.0 143.5 -462.0 143.5 -458.0 143.5 -455.0 142.5 -451.0 L144.0 -442.0 Q144.5 -438.5 146.0 -435.5 147.5 -432.5 152.0 -430.5 157.0 -428.5 167.0 -427.0 174.5 -435.0 182.5 -442.5 214.0 -474.5 255.0 -493.0 296.0 -511.0 330.5 -509.0 396.0 -505.0 435.0 -453.5 474.0 -401.5 474.0 -314.5 L474.0 -251.0 474.0 -176.5 Q474.0 -140.5 477.0 -107.0 480.0 -74.0 482.0 -48.5" fill-rule="evenodd" stroke="none"/>
    </g>
    <g id="font_GosmickSans_b0">
      <path d="M414.5 -237.5 Q414.5 -249.5 414.0 -264.0 413.5 -278.5 412.0 -291.0 410.5 -304.0 408.0 -313.5 405.5 -323.5 401.5 -327.5 397.5 -353.0 385.5 -371.0 374.0 -389.0 357.5 -400.0 341.0 -411.5 321.0 -417.0 301.0 -422.5 280.5 -422.5 240.5 -422.5 211.0 -402.5 181.5 -383.0 154.5 -350.0 139.5 -305.0 139.5 -248.5 L139.5 -242.5 Q139.5 -179.0 154.5 -132.0 179.0 -109.5 204.5 -91.0 229.5 -72.5 266.0 -72.5 298.0 -72.5 324.5 -85.0 351.0 -97.0 370.5 -119.0 390.0 -141.0 401.5 -171.5 412.5 -201.5 414.5 -237.5 M504.0 -245.5 Q504.0 -192.5 485.5 -145.5 467.0 -98.0 434.5 -63.5 402.5 -28.5 358.5 -8.5 314.5 11.5 264.0 11.5 211.0 11.5 175.5 -1.5 140.5 -14.0 116.5 -53.0 112.5 -44.0 114.5 -35.0 116.5 -26.5 111.5 -16.0 114.5 -8.0 110.5 -0.5 106.5 7.5 100.0 12.0 93.0 16.5 85.5 17.0 78.0 17.5 72.5 10.5 68.5 11.5 62.5 11.5 56.5 11.5 50.0 8.0 44.0 4.5 40.0 -5.5 36.0 -15.0 38.0 -33.5 36.0 -54.0 36.5 -92.5 37.0 -131.0 39.0 -174.5 L43.0 -260.5 Q45.0 -303.0 45.0 -332.0 45.0 -384.0 45.5 -438.5 46.0 -492.5 47.0 -540.0 48.0 -587.0 50.0 -620.5 52.0 -654.5 54.5 -667.0 55.5 -690.5 67.0 -702.5 79.0 -715.0 94.0 -719.5 109.5 -724.0 123.0 -722.0 136.0 -720.0 140.5 -716.0 148.5 -716.0 150.5 -710.0 L149.5 -699.5 147.0 -674.5 144.0 -641.5 Q142.5 -624.0 142.5 -607.5 L142.5 -533.5 Q142.5 -485.5 145.5 -441.5 L161.5 -453.5 Q173.0 -463.0 190.5 -473.0 208.0 -483.5 230.5 -492.5 253.0 -502.0 277.5 -504.0 323.5 -508.0 364.5 -492.5 405.5 -477.5 436.0 -446.5 467.0 -416.0 485.5 -371.5 504.0 -327.5 504.0 -274.5 L504.0 -245.5" fill-rule="evenodd" stroke="none"/>
    </g>
    <g id="sprite0" transform="matrix(1.0, 0.0, 0.0, 1.0, 0.0, 0.0)">
      <use ffdec:characterId="96" height="18.0" transform="matrix(1.0, 0.0, 0.0, 1.0, 0.0, 0.0)" width="100.6" xlink:href="#shape0"/>
    </g>
    <g id="shape0" transform="matrix(1.0, 0.0, 0.0, 1.0, 0.0, 0.0)">
      <path d="M100.6 0.0 L100.6 18.0 0.0 18.0 0.0 0.0 100.6 0.0" fill="#ffffff" fill-opacity="0.0" fill-rule="evenodd" stroke="none"/>
    </g>
  </defs>
</svg>
