<?xml version="1.0" encoding="UTF-8" standalone="no"?>
<svg xmlns:ffdec="https://www.free-decompiler.com/flash" xmlns:xlink="http://www.w3.org/1999/xlink" ffdec:objectType="frame" height="38.8px" width="41.0px" xmlns="http://www.w3.org/2000/svg">
  <g transform="matrix(1.0, 0.0, 0.0, 1.0, 8.95, 4.4)">
    <use ffdec:characterId="1999" height="81.2" transform="matrix(0.4307, 0.0, 0.0, 0.4307, -2.7833, -3.0531)" width="71.5" xlink:href="#sprite0"/>
  </g>
  <defs>
    <g id="sprite0" transform="matrix(1.0, 0.0, 0.0, 1.0, -4.45, 18.0)">
      <use ffdec:characterId="1997" height="59.75" transform="matrix(0.9864, 0.1613, -0.1613, 0.9864, 14.1102, -3.7316)" width="49.65" xlink:href="#sprite1"/>
      <use ffdec:characterId="1997" height="59.75" transform="matrix(0.9351, -0.3495, 0.3495, 0.9351, 8.6572, -0.6459)" width="49.65" xlink:href="#sprite3"/>
      <use ffdec:characterId="1997" height="59.75" transform="matrix(0.9958, -0.088, 0.088, 0.9958, 11.5464, -3.0257)" width="49.65" xlink:href="#sprite5"/>
    </g>
    <g id="sprite1" transform="matrix(1.0, 0.0, 0.0, 1.0, -3.75, 1.0)">
      <use ffdec:characterId="1989" height="186.4" transform="matrix(0.2027, 0.0, 0.0, 0.2027, 3.746, -1.004)" width="160.65" xlink:href="#sprite2"/>
      <use ffdec:characterId="1756" height="53.7" transform="matrix(1.0, 0.0, 0.0, 1.0, 15.7, 5.05)" width="37.7" xlink:href="#shape1"/>
    </g>
    <g id="sprite2" transform="matrix(1.0, 0.0, 0.0, 1.0, 1.5, 1.5)">
      <use ffdec:characterId="1988" height="186.4" transform="matrix(1.0, 0.0, 0.0, 1.0, -1.5, -1.5)" width="160.65" xlink:href="#shape0"/>
    </g>
    <g id="shape0" transform="matrix(1.0, 0.0, 0.0, 1.0, 1.5, 1.5)">
      <path d="M157.6 97.95 L156.95 107.25 154.85 106.95 157.6 97.95" fill="#e2e2e2" fill-opacity="0.6" fill-rule="evenodd" stroke="none"/>
      <path d="M3.6 59.2 L3.85 58.1 Q18.5 14.3 56.9 2.2 109.35 -9.4 143.2 40.35 158.3 69.15 157.6 97.95 L154.85 106.95 Q130.55 163.75 74.45 158.45 31.0 150.55 10.25 102.05 2.75 80.9 3.6 59.2" fill="#f0ebd9" fill-opacity="0.6" fill-rule="evenodd" stroke="none"/>
      <path d="M156.95 107.25 Q155.55 119.35 151.35 131.45 127.05 188.25 70.95 182.95 27.5 175.05 6.75 126.55 -4.95 93.55 3.6 59.2 2.75 80.9 10.25 102.05 31.0 150.55 74.45 158.45 130.55 163.75 154.85 106.95 L156.95 107.25" fill="#dacda3" fill-opacity="0.6" fill-rule="evenodd" stroke="none"/>
      <path d="M3.6 59.2 L3.85 58.1 Q18.5 14.3 56.9 2.2 109.35 -9.4 143.2 40.35 158.3 69.15 157.6 97.95 L156.95 107.25 Q155.55 119.35 151.35 131.45 127.05 188.25 70.95 182.95 27.5 175.05 6.75 126.55 -4.95 93.55 3.6 59.2 Z" ffdec:has-small-stroke="true" ffdec:original-stroke-width="3.0" fill="none" stroke="#666666" stroke-linecap="round" stroke-linejoin="round" stroke-opacity="0.6" stroke-width="11.459900600580132"/>
    </g>
    <g id="shape1" transform="matrix(1.0, 0.0, 0.0, 1.0, -55.7, -9.0)">
      <path d="M73.85 29.05 Q70.25 38.15 65.5 38.2 59.65 38.25 59.5 31.4 66.3 35.3 73.85 29.05" fill="#ffffff" fill-opacity="0.6" fill-rule="evenodd" stroke="none"/>
      <path d="M73.85 29.05 Q66.3 35.3 59.5 31.4 59.65 38.25 65.5 38.2 70.25 38.15 73.85 29.05 Z" ffdec:has-small-stroke="true" ffdec:original-stroke-width="0.05" fill="none" stroke="#666666" stroke-linecap="round" stroke-linejoin="round" stroke-opacity="0.6" stroke-width="2.3228961117264784"/>
      <path d="M70.75 20.05 Q77.4 25.7 82.35 32.2 88.9 41.2 91.6 51.8 95.15 61.15 91.75 62.7 90.35 62.25 83.35 41.3 78.15 29.75 67.85 22.8 L70.75 20.05" fill="#f0ebd9" fill-opacity="0.6" fill-rule="evenodd" stroke="none"/>
      <path d="M70.75 20.05 Q77.4 25.7 82.35 32.2 88.9 41.2 91.6 51.8 95.15 61.15 91.75 62.7 90.35 62.25 83.35 41.3 78.15 29.75 67.85 22.8" ffdec:has-small-stroke="true" ffdec:original-stroke-width="0.05" fill="none" stroke="#999999" stroke-linecap="round" stroke-linejoin="round" stroke-opacity="0.6" stroke-width="2.3228961117264784"/>
      <path d="M74.8 12.35 Q74.3 11.85 73.75 12.0 73.2 12.15 72.95 12.8 72.75 13.5 72.95 14.35 73.15 15.15 73.65 15.6 74.2 16.1 74.75 15.95 75.3 15.8 75.5 15.15 75.75 14.5 75.55 13.7 75.35 12.85 74.8 12.35 M70.65 9.1 Q72.05 8.7 73.55 10.0 75.05 11.45 75.65 13.8 76.3 16.1 75.7 18.0 75.1 20.0 73.7 20.4 72.25 20.75 70.7 19.35 69.25 17.95 68.6 15.65 68.0 13.3 68.55 11.35 69.2 9.45 70.65 9.1 M64.25 16.4 Q64.25 15.5 63.6 14.85 63.0 14.25 62.1 14.25 61.2 14.25 60.55 14.85 59.95 15.5 59.95 16.4 59.95 17.3 60.55 17.9 61.2 18.55 62.1 18.55 63.0 18.55 63.6 17.9 64.25 17.3 64.25 16.4 M67.6 16.6 Q67.6 19.05 65.85 20.8 64.1 22.55 61.65 22.55 59.2 22.55 57.45 20.8 55.7 19.05 55.7 16.6 55.7 14.15 57.45 12.4 59.2 10.65 61.65 10.65 64.1 10.65 65.85 12.4 67.6 14.15 67.6 16.6" fill="#ffffff" fill-opacity="0.6" fill-rule="evenodd" stroke="none"/>
      <path d="M74.8 12.35 Q75.35 12.85 75.55 13.7 75.75 14.5 75.5 15.15 75.3 15.8 74.75 15.95 74.2 16.1 73.65 15.6 73.15 15.15 72.95 14.35 72.75 13.5 72.95 12.8 73.2 12.15 73.75 12.0 74.3 11.85 74.8 12.35 M64.25 16.4 Q64.25 17.3 63.6 17.9 63.0 18.55 62.1 18.55 61.2 18.55 60.55 17.9 59.95 17.3 59.95 16.4 59.95 15.5 60.55 14.85 61.2 14.25 62.1 14.25 63.0 14.25 63.6 14.85 64.25 15.5 64.25 16.4" fill="#996600" fill-opacity="0.6" fill-rule="evenodd" stroke="none"/>
      <path d="M70.65 9.1 Q72.05 8.7 73.55 10.0 75.05 11.45 75.65 13.8 76.3 16.1 75.7 18.0 75.1 20.0 73.7 20.4 72.25 20.75 70.7 19.35 69.25 17.95 68.6 15.65 68.0 13.3 68.55 11.35 69.2 9.45 70.65 9.1 M67.6 16.6 Q67.6 19.05 65.85 20.8 64.1 22.55 61.65 22.55 59.2 22.55 57.45 20.8 55.7 19.05 55.7 16.6 55.7 14.15 57.45 12.4 59.2 10.65 61.65 10.65 64.1 10.65 65.85 12.4 67.6 14.15 67.6 16.6 Z" ffdec:has-small-stroke="true" ffdec:original-stroke-width="0.05" fill="none" stroke="#999999" stroke-linecap="round" stroke-linejoin="round" stroke-opacity="0.6" stroke-width="2.3228961117264784"/>
    </g>
    <g id="sprite3" transform="matrix(1.0, 0.0, 0.0, 1.0, -3.75, 1.0)">
      <use ffdec:characterId="1989" height="186.4" transform="matrix(0.2027, 0.0, 0.0, 0.2027, 3.746, -1.004)" width="160.65" xlink:href="#sprite4"/>
      <use ffdec:characterId="1756" height="53.7" transform="matrix(1.0, 0.0, 0.0, 1.0, 15.7, 5.05)" width="37.7" xlink:href="#shape3"/>
    </g>
    <g id="sprite4" transform="matrix(1.0, 0.0, 0.0, 1.0, 1.5, 1.5)">
      <use ffdec:characterId="1988" height="186.4" transform="matrix(1.0, 0.0, 0.0, 1.0, -1.5, -1.5)" width="160.65" xlink:href="#shape2"/>
    </g>
    <g id="shape2" transform="matrix(1.0, 0.0, 0.0, 1.0, 1.5, 1.5)">
      <path d="M157.6 97.95 L156.95 107.25 154.85 106.95 157.6 97.95" fill="#e2e2e2" fill-opacity="0.6" fill-rule="evenodd" stroke="none"/>
      <path d="M3.6 59.2 L3.85 58.1 Q18.5 14.3 56.9 2.2 109.35 -9.4 143.2 40.35 158.3 69.15 157.6 97.95 L154.85 106.95 Q130.55 163.75 74.45 158.45 31.0 150.55 10.25 102.05 2.75 80.9 3.6 59.2" fill="#f0ebd9" fill-opacity="0.6" fill-rule="evenodd" stroke="none"/>
      <path d="M156.95 107.25 Q155.55 119.35 151.35 131.45 127.05 188.25 70.95 182.95 27.5 175.05 6.75 126.55 -4.95 93.55 3.6 59.2 2.75 80.9 10.25 102.05 31.0 150.55 74.45 158.45 130.55 163.75 154.85 106.95 L156.95 107.25" fill="#dacda3" fill-opacity="0.6" fill-rule="evenodd" stroke="none"/>
      <path d="M3.6 59.2 L3.85 58.1 Q18.5 14.3 56.9 2.2 109.35 -9.4 143.2 40.35 158.3 69.15 157.6 97.95 L156.95 107.25 Q155.55 119.35 151.35 131.45 127.05 188.25 70.95 182.95 27.5 175.05 6.75 126.55 -4.95 93.55 3.6 59.2 Z" ffdec:has-small-stroke="true" ffdec:original-stroke-width="3.0" fill="none" stroke="#666666" stroke-linecap="round" stroke-linejoin="round" stroke-opacity="0.6" stroke-width="11.473002494175855"/>
    </g>
    <g id="shape3" transform="matrix(1.0, 0.0, 0.0, 1.0, -55.7, -9.0)">
      <path d="M73.85 29.05 Q70.25 38.15 65.5 38.2 59.65 38.25 59.5 31.4 66.3 35.3 73.85 29.05" fill="#ffffff" fill-opacity="0.6" fill-rule="evenodd" stroke="none"/>
      <path d="M73.85 29.05 Q66.3 35.3 59.5 31.4 59.65 38.25 65.5 38.2 70.25 38.15 73.85 29.05 Z" ffdec:has-small-stroke="true" ffdec:original-stroke-width="0.05" fill="none" stroke="#666666" stroke-linecap="round" stroke-linejoin="round" stroke-opacity="0.6" stroke-width="2.32555183613025"/>
      <path d="M70.75 20.05 Q77.4 25.7 82.35 32.2 88.9 41.2 91.6 51.8 95.15 61.15 91.75 62.7 90.35 62.25 83.35 41.3 78.15 29.75 67.85 22.8 L70.75 20.05" fill="#f0ebd9" fill-opacity="0.6" fill-rule="evenodd" stroke="none"/>
      <path d="M70.75 20.05 Q77.4 25.7 82.35 32.2 88.9 41.2 91.6 51.8 95.15 61.15 91.75 62.7 90.35 62.25 83.35 41.3 78.15 29.75 67.85 22.8" ffdec:has-small-stroke="true" ffdec:original-stroke-width="0.05" fill="none" stroke="#999999" stroke-linecap="round" stroke-linejoin="round" stroke-opacity="0.6" stroke-width="2.32555183613025"/>
      <path d="M74.8 12.35 Q74.3 11.85 73.75 12.0 73.2 12.15 72.95 12.8 72.75 13.5 72.95 14.35 73.15 15.15 73.65 15.6 74.2 16.1 74.75 15.95 75.3 15.8 75.5 15.15 75.75 14.5 75.55 13.7 75.35 12.85 74.8 12.35 M70.65 9.1 Q72.05 8.7 73.55 10.0 75.05 11.45 75.65 13.8 76.3 16.1 75.7 18.0 75.1 20.0 73.7 20.4 72.25 20.75 70.7 19.35 69.25 17.95 68.6 15.65 68.0 13.3 68.55 11.35 69.2 9.45 70.65 9.1 M64.25 16.4 Q64.25 15.5 63.6 14.85 63.0 14.25 62.1 14.25 61.2 14.25 60.55 14.85 59.95 15.5 59.95 16.4 59.95 17.3 60.55 17.9 61.2 18.55 62.1 18.55 63.0 18.55 63.6 17.9 64.25 17.3 64.25 16.4 M67.6 16.6 Q67.6 19.05 65.85 20.8 64.1 22.55 61.65 22.55 59.2 22.55 57.45 20.8 55.7 19.05 55.7 16.6 55.7 14.15 57.45 12.4 59.2 10.65 61.65 10.65 64.1 10.65 65.85 12.4 67.6 14.15 67.6 16.6" fill="#ffffff" fill-opacity="0.6" fill-rule="evenodd" stroke="none"/>
      <path d="M74.8 12.35 Q75.35 12.85 75.55 13.7 75.75 14.5 75.5 15.15 75.3 15.8 74.75 15.95 74.2 16.1 73.65 15.6 73.15 15.15 72.95 14.35 72.75 13.5 72.95 12.8 73.2 12.15 73.75 12.0 74.3 11.85 74.8 12.35 M64.25 16.4 Q64.25 17.3 63.6 17.9 63.0 18.55 62.1 18.55 61.2 18.55 60.55 17.9 59.95 17.3 59.95 16.4 59.95 15.5 60.55 14.85 61.2 14.25 62.1 14.25 63.0 14.25 63.6 14.85 64.25 15.5 64.25 16.4" fill="#996600" fill-opacity="0.6" fill-rule="evenodd" stroke="none"/>
      <path d="M70.65 9.1 Q72.05 8.7 73.55 10.0 75.05 11.45 75.65 13.8 76.3 16.1 75.7 18.0 75.1 20.0 73.7 20.4 72.25 20.75 70.7 19.35 69.25 17.95 68.6 15.65 68.0 13.3 68.55 11.35 69.2 9.45 70.65 9.1 M67.6 16.6 Q67.6 19.05 65.85 20.8 64.1 22.55 61.65 22.55 59.2 22.55 57.45 20.8 55.7 19.05 55.7 16.6 55.7 14.15 57.45 12.4 59.2 10.65 61.65 10.65 64.1 10.65 65.85 12.4 67.6 14.15 67.6 16.6 Z" ffdec:has-small-stroke="true" ffdec:original-stroke-width="0.05" fill="none" stroke="#999999" stroke-linecap="round" stroke-linejoin="round" stroke-opacity="0.6" stroke-width="2.32555183613025"/>
    </g>
    <g id="sprite5" transform="matrix(1.0, 0.0, 0.0, 1.0, -3.75, 1.0)">
      <use ffdec:characterId="1989" height="186.4" transform="matrix(0.2027, 0.0, 0.0, 0.2027, 3.746, -1.004)" width="160.65" xlink:href="#sprite6"/>
      <use ffdec:characterId="1756" height="53.7" transform="matrix(1.0, 0.0, 0.0, 1.0, 15.7, 5.05)" width="37.7" xlink:href="#shape5"/>
    </g>
    <g id="sprite6" transform="matrix(1.0, 0.0, 0.0, 1.0, 1.5, 1.5)">
      <use ffdec:characterId="1988" height="186.4" transform="matrix(1.0, 0.0, 0.0, 1.0, -1.5, -1.5)" width="160.65" xlink:href="#shape4"/>
    </g>
    <g id="shape4" transform="matrix(1.0, 0.0, 0.0, 1.0, 1.5, 1.5)">
      <path d="M157.6 97.95 L156.95 107.25 154.85 106.95 157.6 97.95" fill="#e2e2e2" fill-rule="evenodd" stroke="none"/>
      <path d="M3.6 59.2 L3.85 58.1 Q18.5 14.3 56.9 2.2 109.35 -9.4 143.2 40.35 158.3 69.15 157.6 97.95 L154.85 106.95 Q130.55 163.75 74.45 158.45 31.0 150.55 10.25 102.05 2.75 80.9 3.6 59.2" fill="#f0ebd9" fill-rule="evenodd" stroke="none"/>
      <path d="M156.95 107.25 Q155.55 119.35 151.35 131.45 127.05 188.25 70.95 182.95 27.5 175.05 6.75 126.55 -4.95 93.55 3.6 59.2 2.75 80.9 10.25 102.05 31.0 150.55 74.45 158.45 130.55 163.75 154.85 106.95 L156.95 107.25" fill="#dacda3" fill-rule="evenodd" stroke="none"/>
      <path d="M3.6 59.2 L3.85 58.1 Q18.5 14.3 56.9 2.2 109.35 -9.4 143.2 40.35 158.3 69.15 157.6 97.95 L156.95 107.25 Q155.55 119.35 151.35 131.45 127.05 188.25 70.95 182.95 27.5 175.05 6.75 126.55 -4.95 93.55 3.6 59.2 Z" ffdec:has-small-stroke="true" ffdec:original-stroke-width="3.0" fill="none" stroke="#666666" stroke-linecap="round" stroke-linejoin="round" stroke-width="11.457132821546566"/>
    </g>
    <g id="shape5" transform="matrix(1.0, 0.0, 0.0, 1.0, -55.7, -9.0)">
      <path d="M73.85 29.05 Q70.25 38.15 65.5 38.2 59.65 38.25 59.5 31.4 66.3 35.3 73.85 29.05" fill="#ffffff" fill-rule="evenodd" stroke="none"/>
      <path d="M73.85 29.05 Q66.3 35.3 59.5 31.4 59.65 38.25 65.5 38.2 70.25 38.15 73.85 29.05 Z" ffdec:has-small-stroke="true" ffdec:original-stroke-width="0.05" fill="none" stroke="#666666" stroke-linecap="round" stroke-linejoin="round" stroke-width="2.3223350891330656"/>
      <path d="M70.75 20.05 Q77.4 25.7 82.35 32.2 88.9 41.2 91.6 51.8 95.15 61.15 91.75 62.7 90.35 62.25 83.35 41.3 78.15 29.75 67.85 22.8 L70.75 20.05" fill="#f0ebd9" fill-rule="evenodd" stroke="none"/>
      <path d="M70.75 20.05 Q77.4 25.7 82.35 32.2 88.9 41.2 91.6 51.8 95.15 61.15 91.75 62.7 90.35 62.25 83.35 41.3 78.15 29.75 67.85 22.8" ffdec:has-small-stroke="true" ffdec:original-stroke-width="0.05" fill="none" stroke="#999999" stroke-linecap="round" stroke-linejoin="round" stroke-width="2.3223350891330656"/>
      <path d="M74.8 12.35 Q74.3 11.85 73.75 12.0 73.2 12.15 72.95 12.8 72.75 13.5 72.95 14.35 73.15 15.15 73.65 15.6 74.2 16.1 74.75 15.95 75.3 15.8 75.5 15.15 75.75 14.5 75.55 13.7 75.35 12.85 74.8 12.35 M70.65 9.1 Q72.05 8.7 73.55 10.0 75.05 11.45 75.65 13.8 76.3 16.1 75.7 18.0 75.1 20.0 73.7 20.4 72.25 20.75 70.7 19.35 69.25 17.95 68.6 15.65 68.0 13.3 68.55 11.35 69.2 9.45 70.65 9.1 M64.25 16.4 Q64.25 15.5 63.6 14.85 63.0 14.25 62.1 14.25 61.2 14.25 60.55 14.85 59.95 15.5 59.95 16.4 59.95 17.3 60.55 17.9 61.2 18.55 62.1 18.55 63.0 18.55 63.6 17.9 64.25 17.3 64.25 16.4 M67.6 16.6 Q67.6 19.05 65.85 20.8 64.1 22.55 61.65 22.55 59.2 22.55 57.45 20.8 55.7 19.05 55.7 16.6 55.7 14.15 57.45 12.4 59.2 10.65 61.65 10.65 64.1 10.65 65.85 12.4 67.6 14.15 67.6 16.6" fill="#ffffff" fill-rule="evenodd" stroke="none"/>
      <path d="M74.8 12.35 Q75.35 12.85 75.55 13.7 75.75 14.5 75.5 15.15 75.3 15.8 74.75 15.95 74.2 16.1 73.65 15.6 73.15 15.15 72.95 14.35 72.75 13.5 72.95 12.8 73.2 12.15 73.75 12.0 74.3 11.85 74.8 12.35 M64.25 16.4 Q64.25 17.3 63.6 17.9 63.0 18.55 62.1 18.55 61.2 18.55 60.55 17.9 59.95 17.3 59.95 16.4 59.95 15.5 60.55 14.85 61.2 14.25 62.1 14.25 63.0 14.25 63.6 14.85 64.25 15.5 64.25 16.4" fill="#996600" fill-rule="evenodd" stroke="none"/>
      <path d="M70.65 9.1 Q72.05 8.7 73.55 10.0 75.05 11.45 75.65 13.8 76.3 16.1 75.7 18.0 75.1 20.0 73.7 20.4 72.25 20.75 70.7 19.35 69.25 17.95 68.6 15.65 68.0 13.3 68.55 11.35 69.2 9.45 70.65 9.1 M67.6 16.6 Q67.6 19.05 65.85 20.8 64.1 22.55 61.65 22.55 59.2 22.55 57.45 20.8 55.7 19.05 55.7 16.6 55.7 14.15 57.45 12.4 59.2 10.65 61.65 10.65 64.1 10.65 65.85 12.4 67.6 14.15 67.6 16.6 Z" ffdec:has-small-stroke="true" ffdec:original-stroke-width="0.05" fill="none" stroke="#999999" stroke-linecap="round" stroke-linejoin="round" stroke-width="2.3223350891330656"/>
    </g>
  </defs>
</svg>
