<?xml version="1.0" encoding="UTF-8" standalone="no"?>
<svg xmlns:ffdec="https://www.free-decompiler.com/flash" xmlns:xlink="http://www.w3.org/1999/xlink" ffdec:objectType="frame" height="38.8px" width="41.0px" xmlns="http://www.w3.org/2000/svg">
  <g transform="matrix(1.0, 0.0, 0.0, 1.0, 8.95, 4.4)">
    <use ffdec:characterId="2003" height="111.0" transform="matrix(0.32, 0.0, 0.0, 0.3, 0.02, -1.05)" width="80.9" xlink:href="#sprite0"/>
  </g>
  <defs>
    <g id="sprite0" transform="matrix(1.0, 0.0, 0.0, 1.0, 1.5, 0.0)">
      <use ffdec:characterId="2002" height="28.3" transform="matrix(1.0, 0.0, 0.0, 1.0, -1.5, 82.7)" width="59.9" xlink:href="#shape0"/>
      <use ffdec:characterId="1984" height="25.15" transform="matrix(-0.0157, 0.1172, -0.1463, -0.0196, 56.437, 45.0982)" width="285.6" xlink:href="#sprite1"/>
      <use ffdec:characterId="1984" height="25.15" transform="matrix(-0.0095, 0.0967, -0.1469, -0.0144, 48.8024, 46.1907)" width="285.6" xlink:href="#sprite1"/>
      <use ffdec:characterId="1984" height="25.15" transform="matrix(-0.0103, 0.1177, -0.147, -0.0128, 40.9154, 35.0679)" width="285.6" xlink:href="#sprite1"/>
      <use ffdec:characterId="1985" height="99.0" transform="matrix(0.3627, 0.0, 0.0, 0.3627, 12.5059, 18.6559)" width="99.0" xlink:href="#sprite2"/>
      <use ffdec:characterId="1987" height="31.35" transform="matrix(-0.0502, 0.0493, 0.0876, 0.0892, 11.448, 32.5029)" width="169.25" xlink:href="#sprite3"/>
      <use ffdec:characterId="1987" height="31.35" transform="matrix(-0.0238, 0.0538, 0.1021, 0.0451, 24.1428, 41.9523)" width="169.25" xlink:href="#sprite4"/>
      <use ffdec:characterId="1987" height="31.35" transform="matrix(-0.0409, 0.0571, 0.0993, 0.0711, 16.6903, 38.7262)" width="169.25" xlink:href="#sprite5"/>
      <use ffdec:characterId="1987" height="31.35" transform="matrix(0.0368, 0.0448, -0.0988, 0.0812, 50.7245, 38.1692)" width="169.25" xlink:href="#sprite6"/>
      <use ffdec:characterId="1984" height="25.15" transform="matrix(-0.0022, 0.1263, 0.1475, 0.0026, 10.7616, 45.7283)" width="285.6" xlink:href="#sprite1"/>
      <use ffdec:characterId="1984" height="25.15" transform="matrix(-0.0063, 0.12, 0.1474, 0.0078, 3.3729, 39.714)" width="285.6" xlink:href="#sprite1"/>
      <use ffdec:characterId="1984" height="25.15" transform="matrix(-0.0023, 0.1332, 0.1475, 0.0026, 20.6634, 48.7271)" width="285.6" xlink:href="#sprite1"/>
      <use ffdec:characterId="1989" height="186.4" transform="matrix(0.2027, 0.0, 0.0, 0.2027, 29.746, -0.004)" width="160.65" xlink:href="#sprite7"/>
      <use ffdec:characterId="1756" height="53.7" transform="matrix(1.0, 0.0, 0.0, 1.0, 41.7, 6.05)" width="37.7" xlink:href="#shape8"/>
    </g>
    <g id="shape0" transform="matrix(1.0, 0.0, 0.0, 1.0, 1.5, -82.7)">
      <path d="M28.45 82.7 Q40.85 82.7 49.65 86.85 58.4 91.05 58.4 96.85 58.4 102.7 49.65 106.8 40.85 111.0 28.45 111.0 16.05 111.0 7.3 106.8 -1.5 102.7 -1.5 96.85 -1.5 91.05 7.3 86.85 16.05 82.7 28.45 82.7" fill="url(#gradient0)" fill-rule="evenodd" stroke="none"/>
    </g>
    <radialGradient cx="0" cy="0" gradientTransform="matrix(0.0372, 0.0, 0.0, 0.0176, 28.45, 96.85)" gradientUnits="userSpaceOnUse" id="gradient0" r="819.2" spreadMethod="pad">
      <stop offset="0.3764705882352941" stop-color="#000000" stop-opacity="0.24313726"/>
      <stop offset="1.0" stop-color="#000000" stop-opacity="0.0"/>
    </radialGradient>
    <g id="sprite1" transform="matrix(1.0, 0.0, 0.0, 1.0, 14.6, 10.65)">
      <use ffdec:characterId="1748" height="25.15" transform="matrix(1.0, 0.0, 0.0, 1.0, -14.6, -10.65)" width="285.6" xlink:href="#shape1"/>
    </g>
    <g id="shape1" transform="matrix(1.0, 0.0, 0.0, 1.0, 14.6, 10.65)">
      <path d="M3.5 -10.0 L-3.3 -10.65 2.9 -10.1 3.5 -10.0" fill="#1b1b1b" fill-rule="evenodd" stroke="none"/>
      <path d="M5.3 -9.85 Q135.05 3.85 264.7 -5.85 277.3 0.45 264.7 6.75 133.85 19.7 2.9 10.95 L-3.3 10.5 Q-7.95 10.5 -11.3 7.4 -14.6 4.3 -14.6 -0.1 -14.6 -4.45 -11.3 -7.55 -7.95 -10.65 -3.3 -10.65 L4.2 -9.95 5.3 -9.85" fill="#000000" fill-rule="evenodd" stroke="none"/>
    </g>
    <g id="sprite2" transform="matrix(1.0, 0.0, 0.0, 1.0, 1.5, 1.5)">
      <use ffdec:characterId="1750" height="99.0" transform="matrix(1.0, 0.0, 0.0, 1.0, -1.5, -1.5)" width="99.0" xlink:href="#shape2"/>
    </g>
    <g id="shape2" transform="matrix(1.0, 0.0, 0.0, 1.0, 1.5, 1.5)">
      <path d="M89.75 24.05 L90.6 25.55 90.65 25.7 89.75 24.05" fill="#ffffff" fill-rule="evenodd" stroke="none"/>
      <path d="M90.6 25.55 L91.3 26.95 93.9 38.65 92.65 38.9 Q92.65 35.4 92.15 32.1 91.65 28.75 90.65 25.7 L91.3 26.95 90.65 25.7 90.6 25.55" fill="#e2e2e2" fill-rule="evenodd" stroke="none"/>
      <path d="M30.1 3.3 Q38.35 0.0 48.0 0.0 65.3 0.0 78.2 10.65 L81.95 14.05 89.75 24.05 90.65 25.7 Q91.65 28.75 92.15 32.1 92.65 35.4 92.65 38.9 92.65 56.05 80.6 68.1 68.45 80.2 51.35 80.2 34.2 80.2 22.1 68.1 10.0 56.05 10.0 38.9 10.0 21.8 22.1 9.65 25.85 5.9 30.1 3.3" fill="#f0ebd9" fill-rule="evenodd" stroke="none"/>
      <path d="M93.9 38.65 L96.0 48.0 Q96.0 67.9 81.95 81.9 67.85 96.0 48.0 96.0 28.15 96.0 14.05 81.9 0.0 67.9 0.0 48.0 0.0 28.15 14.05 14.05 L17.85 10.6 Q23.55 5.9 30.1 3.3 25.85 5.9 22.1 9.65 10.0 21.8 10.0 38.9 10.0 56.05 22.1 68.1 34.2 80.2 51.35 80.2 68.45 80.2 80.6 68.1 92.65 56.05 92.65 38.9 L93.9 38.65" fill="#e6ddbf" fill-rule="evenodd" stroke="none"/>
      <path d="M30.1 3.3 Q38.35 0.0 48.0 0.0 65.3 0.0 78.2 10.65 L81.95 14.05 89.75 24.05 90.65 25.7 91.3 26.95 93.9 38.65 96.0 48.0 Q96.0 67.9 81.95 81.9 67.85 96.0 48.0 96.0 28.15 96.0 14.05 81.9 0.0 67.9 0.0 48.0 0.0 28.15 14.05 14.05 L17.85 10.6 Q23.55 5.9 30.1 3.3 Z" ffdec:has-small-stroke="true" ffdec:original-stroke-width="3.0" fill="none" stroke="#666666" stroke-linecap="round" stroke-linejoin="round" stroke-width="8.88912350605146"/>
    </g>
    <g id="sprite3" transform="matrix(1.0, 0.0, 0.0, 1.0, 5.7, 17.55)">
      <use ffdec:characterId="1986" height="31.35" transform="matrix(1.0, 0.0, 0.0, 1.0, -5.7, -17.55)" width="169.25" xlink:href="#shape3"/>
    </g>
    <g id="shape3" transform="matrix(1.0, 0.0, 0.0, 1.0, 5.7, 17.55)">
      <path d="M-5.2 1.0 L-5.15 1.1 -5.2 1.15 -5.2 1.1 -5.2 1.0 M140.2 12.0 L148.1 13.25 145.4 13.0 140.2 12.0" fill="#1b1b1b" fill-rule="evenodd" stroke="none"/>
      <path d="M-5.15 1.1 L16.4 -2.15 17.55 -2.3 33.4 -4.05 Q83.5 -7.4 131.55 -2.7 144.1 -1.5 162.85 2.5 161.95 7.85 157.05 10.9 153.0 13.55 148.1 13.25 L140.2 12.0 Q91.5 2.75 33.7 4.05 L18.45 4.55 17.85 4.55 10.6 4.95 0.4 4.65 Q-5.05 3.95 -5.2 1.15 L-5.15 1.1" fill="#000000" fill-rule="evenodd" stroke="none"/>
      <path d="M162.85 2.5 Q144.1 -1.5 131.55 -2.7 83.5 -7.4 33.4 -4.05 L17.55 -2.3 16.4 -2.15 -5.15 1.1 -5.2 1.0 Q-5.25 -2.05 -1.2 -4.45 2.8 -6.75 15.4 -9.0 85.1 -22.35 148.0 -13.5 L148.25 -13.25 148.25 -13.4 Q156.6 -11.7 160.1 -7.4 163.75 -2.9 162.85 2.5" fill="#333333" fill-rule="evenodd" stroke="none"/>
      <path d="M162.85 2.5 Q163.75 -2.9 160.1 -7.4 156.6 -11.7 148.25 -13.4 L148.0 -13.5 Q85.1 -22.35 15.4 -9.0 2.8 -6.75 -1.2 -4.45 -5.25 -2.05 -5.2 1.0 L-5.2 1.1 -5.2 1.15 Q-5.05 3.95 0.4 4.65 L10.6 4.95 17.85 4.55 18.45 4.55 33.7 4.05 Q91.5 2.75 140.2 12.0 L145.4 13.0 148.1 13.25 Q153.0 13.55 157.05 10.9 161.95 7.85 162.85 2.5 Z" ffdec:has-small-stroke="true" ffdec:original-stroke-width="1.0" fill="none" stroke="#000000" stroke-linecap="round" stroke-linejoin="round" stroke-width="32.69640229013594"/>
    </g>
    <g id="sprite4" transform="matrix(1.0, 0.0, 0.0, 1.0, 5.7, 17.55)">
      <use ffdec:characterId="1986" height="31.35" transform="matrix(1.0, 0.0, 0.0, 1.0, -5.7, -17.55)" width="169.25" xlink:href="#shape4"/>
    </g>
    <g id="shape4" transform="matrix(1.0, 0.0, 0.0, 1.0, 5.7, 17.55)">
      <path d="M-5.2 1.0 L-5.15 1.1 -5.2 1.15 -5.2 1.1 -5.2 1.0 M140.2 12.0 L148.1 13.25 145.4 13.0 140.2 12.0" fill="#1b1b1b" fill-rule="evenodd" stroke="none"/>
      <path d="M-5.15 1.1 L16.4 -2.15 17.55 -2.3 33.4 -4.05 Q83.5 -7.4 131.55 -2.7 144.1 -1.5 162.85 2.5 161.95 7.85 157.05 10.9 153.0 13.55 148.1 13.25 L140.2 12.0 Q91.5 2.75 33.7 4.05 L18.45 4.55 17.85 4.55 10.6 4.95 0.4 4.65 Q-5.05 3.95 -5.2 1.15 L-5.15 1.1" fill="#000000" fill-rule="evenodd" stroke="none"/>
      <path d="M162.85 2.5 Q144.1 -1.5 131.55 -2.7 83.5 -7.4 33.4 -4.05 L17.55 -2.3 16.4 -2.15 -5.15 1.1 -5.2 1.0 Q-5.25 -2.05 -1.2 -4.45 2.8 -6.75 15.4 -9.0 85.1 -22.35 148.0 -13.5 L148.25 -13.25 148.25 -13.4 Q156.6 -11.7 160.1 -7.4 163.75 -2.9 162.85 2.5" fill="#333333" fill-rule="evenodd" stroke="none"/>
      <path d="M162.85 2.5 Q163.75 -2.9 160.1 -7.4 156.6 -11.7 148.25 -13.4 L148.0 -13.5 Q85.1 -22.35 15.4 -9.0 2.8 -6.75 -1.2 -4.45 -5.25 -2.05 -5.2 1.0 L-5.2 1.1 -5.2 1.15 Q-5.05 3.95 0.4 4.65 L10.6 4.95 17.85 4.55 18.45 4.55 33.7 4.05 Q91.5 2.75 140.2 12.0 L145.4 13.0 148.1 13.25 Q153.0 13.55 157.05 10.9 161.95 7.85 162.85 2.5 Z" ffdec:has-small-stroke="true" ffdec:original-stroke-width="1.0" fill="none" stroke="#000000" stroke-linecap="round" stroke-linejoin="round" stroke-width="36.41290084791283"/>
    </g>
    <g id="sprite5" transform="matrix(1.0, 0.0, 0.0, 1.0, 5.7, 17.55)">
      <use ffdec:characterId="1986" height="31.35" transform="matrix(1.0, 0.0, 0.0, 1.0, -5.7, -17.55)" width="169.25" xlink:href="#shape5"/>
    </g>
    <g id="shape5" transform="matrix(1.0, 0.0, 0.0, 1.0, 5.7, 17.55)">
      <path d="M-5.2 1.0 L-5.15 1.1 -5.2 1.15 -5.2 1.1 -5.2 1.0 M140.2 12.0 L148.1 13.25 145.4 13.0 140.2 12.0" fill="#1b1b1b" fill-rule="evenodd" stroke="none"/>
      <path d="M-5.15 1.1 L16.4 -2.15 17.55 -2.3 33.4 -4.05 Q83.5 -7.4 131.55 -2.7 144.1 -1.5 162.85 2.5 161.95 7.85 157.05 10.9 153.0 13.55 148.1 13.25 L140.2 12.0 Q91.5 2.75 33.7 4.05 L18.45 4.55 17.85 4.55 10.6 4.95 0.4 4.65 Q-5.05 3.95 -5.2 1.15 L-5.15 1.1" fill="#000000" fill-rule="evenodd" stroke="none"/>
      <path d="M162.85 2.5 Q144.1 -1.5 131.55 -2.7 83.5 -7.4 33.4 -4.05 L17.55 -2.3 16.4 -2.15 -5.15 1.1 -5.2 1.0 Q-5.25 -2.05 -1.2 -4.45 2.8 -6.75 15.4 -9.0 85.1 -22.35 148.0 -13.5 L148.25 -13.25 148.25 -13.4 Q156.6 -11.7 160.1 -7.4 163.75 -2.9 162.85 2.5" fill="#333333" fill-rule="evenodd" stroke="none"/>
      <path d="M162.85 2.5 Q163.75 -2.9 160.1 -7.4 156.6 -11.7 148.25 -13.4 L148.0 -13.5 Q85.1 -22.35 15.4 -9.0 2.8 -6.75 -1.2 -4.45 -5.25 -2.05 -5.2 1.0 L-5.2 1.1 -5.2 1.15 Q-5.05 3.95 0.4 4.65 L10.6 4.95 17.85 4.55 18.45 4.55 33.7 4.05 Q91.5 2.75 140.2 12.0 L145.4 13.0 148.1 13.25 Q153.0 13.55 157.05 10.9 161.95 7.85 162.85 2.5 Z" ffdec:has-small-stroke="true" ffdec:original-stroke-width="1.0" fill="none" stroke="#000000" stroke-linecap="round" stroke-linejoin="round" stroke-width="33.0662595519113"/>
    </g>
    <g id="sprite6" transform="matrix(1.0, 0.0, 0.0, 1.0, 5.7, 17.55)">
      <use ffdec:characterId="1986" height="31.35" transform="matrix(1.0, 0.0, 0.0, 1.0, -5.7, -17.55)" width="169.25" xlink:href="#shape6"/>
    </g>
    <g id="shape6" transform="matrix(1.0, 0.0, 0.0, 1.0, 5.7, 17.55)">
      <path d="M-5.2 1.0 L-5.15 1.1 -5.2 1.15 -5.2 1.1 -5.2 1.0 M140.2 12.0 L148.1 13.25 145.4 13.0 140.2 12.0" fill="#1b1b1b" fill-rule="evenodd" stroke="none"/>
      <path d="M-5.15 1.1 L16.4 -2.15 17.55 -2.3 33.4 -4.05 Q83.5 -7.4 131.55 -2.7 144.1 -1.5 162.85 2.5 161.95 7.85 157.05 10.9 153.0 13.55 148.1 13.25 L140.2 12.0 Q91.5 2.75 33.7 4.05 L18.45 4.55 17.85 4.55 10.6 4.95 0.4 4.65 Q-5.05 3.95 -5.2 1.15 L-5.15 1.1" fill="#000000" fill-rule="evenodd" stroke="none"/>
      <path d="M162.85 2.5 Q144.1 -1.5 131.55 -2.7 83.5 -7.4 33.4 -4.05 L17.55 -2.3 16.4 -2.15 -5.15 1.1 -5.2 1.0 Q-5.25 -2.05 -1.2 -4.45 2.8 -6.75 15.4 -9.0 85.1 -22.35 148.0 -13.5 L148.25 -13.25 148.25 -13.4 Q156.6 -11.7 160.1 -7.4 163.75 -2.9 162.85 2.5" fill="#333333" fill-rule="evenodd" stroke="none"/>
      <path d="M162.85 2.5 Q163.75 -2.9 160.1 -7.4 156.6 -11.7 148.25 -13.4 L148.0 -13.5 Q85.1 -22.35 15.4 -9.0 2.8 -6.75 -1.2 -4.45 -5.25 -2.05 -5.2 1.0 L-5.2 1.1 -5.2 1.15 Q-5.05 3.95 0.4 4.65 L10.6 4.95 17.85 4.55 18.45 4.55 33.7 4.05 Q91.5 2.75 140.2 12.0 L145.4 13.0 148.1 13.25 Q153.0 13.55 157.05 10.9 161.95 7.85 162.85 2.5 Z" ffdec:has-small-stroke="true" ffdec:original-stroke-width="1.0" fill="none" stroke="#000000" stroke-linecap="round" stroke-linejoin="round" stroke-width="33.124284020183794"/>
    </g>
    <g id="sprite7" transform="matrix(1.0, 0.0, 0.0, 1.0, 1.5, 1.5)">
      <use ffdec:characterId="1988" height="186.4" transform="matrix(1.0, 0.0, 0.0, 1.0, -1.5, -1.5)" width="160.65" xlink:href="#shape7"/>
    </g>
    <g id="shape7" transform="matrix(1.0, 0.0, 0.0, 1.0, 1.5, 1.5)">
      <path d="M157.6 97.95 L156.95 107.25 154.85 106.95 157.6 97.95" fill="#e2e2e2" fill-rule="evenodd" stroke="none"/>
      <path d="M3.6 59.2 L3.85 58.1 Q18.5 14.3 56.9 2.2 109.35 -9.4 143.2 40.35 158.3 69.15 157.6 97.95 L154.85 106.95 Q130.55 163.75 74.45 158.45 31.0 150.55 10.25 102.05 2.75 80.9 3.6 59.2" fill="#f0ebd9" fill-rule="evenodd" stroke="none"/>
      <path d="M156.95 107.25 Q155.55 119.35 151.35 131.45 127.05 188.25 70.95 182.95 27.5 175.05 6.75 126.55 -4.95 93.55 3.6 59.2 2.75 80.9 10.25 102.05 31.0 150.55 74.45 158.45 130.55 163.75 154.85 106.95 L156.95 107.25" fill="#dacda3" fill-rule="evenodd" stroke="none"/>
      <path d="M3.6 59.2 L3.85 58.1 Q18.5 14.3 56.9 2.2 109.35 -9.4 143.2 40.35 158.3 69.15 157.6 97.95 L156.95 107.25 Q155.55 119.35 151.35 131.45 127.05 188.25 70.95 182.95 27.5 175.05 6.75 126.55 -4.95 93.55 3.6 59.2 Z" ffdec:has-small-stroke="true" ffdec:original-stroke-width="3.0" fill="none" stroke="#666666" stroke-linecap="round" stroke-linejoin="round" stroke-width="15.90660605708742"/>
    </g>
    <g id="shape8" transform="matrix(1.0, 0.0, 0.0, 1.0, -55.7, -9.0)">
      <path d="M73.85 29.05 Q70.25 38.15 65.5 38.2 59.65 38.25 59.5 31.4 66.3 35.3 73.85 29.05" fill="#ffffff" fill-rule="evenodd" stroke="none"/>
      <path d="M73.85 29.05 Q66.3 35.3 59.5 31.4 59.65 38.25 65.5 38.2 70.25 38.15 73.85 29.05 Z" ffdec:has-small-stroke="true" ffdec:original-stroke-width="0.05" fill="none" stroke="#666666" stroke-linecap="round" stroke-linejoin="round" stroke-width="3.224233320043171"/>
      <path d="M70.75 20.05 Q77.4 25.7 82.35 32.2 88.9 41.2 91.6 51.8 95.15 61.15 91.75 62.7 90.35 62.25 83.35 41.3 78.15 29.75 67.85 22.8 L70.75 20.05" fill="#f0ebd9" fill-rule="evenodd" stroke="none"/>
      <path d="M70.75 20.05 Q77.4 25.7 82.35 32.2 88.9 41.2 91.6 51.8 95.15 61.15 91.75 62.7 90.35 62.25 83.35 41.3 78.15 29.75 67.85 22.8" ffdec:has-small-stroke="true" ffdec:original-stroke-width="0.05" fill="none" stroke="#999999" stroke-linecap="round" stroke-linejoin="round" stroke-width="3.224233320043171"/>
      <path d="M74.8 12.35 Q74.3 11.85 73.75 12.0 73.2 12.15 72.95 12.8 72.75 13.5 72.95 14.35 73.15 15.15 73.65 15.6 74.2 16.1 74.75 15.95 75.3 15.8 75.5 15.15 75.75 14.5 75.55 13.7 75.35 12.85 74.8 12.35 M70.65 9.1 Q72.05 8.7 73.55 10.0 75.05 11.45 75.65 13.8 76.3 16.1 75.7 18.0 75.1 20.0 73.7 20.4 72.25 20.75 70.7 19.35 69.25 17.95 68.6 15.65 68.0 13.3 68.55 11.35 69.2 9.45 70.65 9.1 M64.25 16.4 Q64.25 15.5 63.6 14.85 63.0 14.25 62.1 14.25 61.2 14.25 60.55 14.85 59.95 15.5 59.95 16.4 59.95 17.3 60.55 17.9 61.2 18.55 62.1 18.55 63.0 18.55 63.6 17.9 64.25 17.3 64.25 16.4 M67.6 16.6 Q67.6 19.05 65.85 20.8 64.1 22.55 61.65 22.55 59.2 22.55 57.45 20.8 55.7 19.05 55.7 16.6 55.7 14.15 57.45 12.4 59.2 10.65 61.65 10.65 64.1 10.65 65.85 12.4 67.6 14.15 67.6 16.6" fill="#ffffff" fill-rule="evenodd" stroke="none"/>
      <path d="M74.8 12.35 Q75.35 12.85 75.55 13.7 75.75 14.5 75.5 15.15 75.3 15.8 74.75 15.95 74.2 16.1 73.65 15.6 73.15 15.15 72.95 14.35 72.75 13.5 72.95 12.8 73.2 12.15 73.75 12.0 74.3 11.85 74.8 12.35 M64.25 16.4 Q64.25 17.3 63.6 17.9 63.0 18.55 62.1 18.55 61.2 18.55 60.55 17.9 59.95 17.3 59.95 16.4 59.95 15.5 60.55 14.85 61.2 14.25 62.1 14.25 63.0 14.25 63.6 14.85 64.25 15.5 64.25 16.4" fill="#996600" fill-rule="evenodd" stroke="none"/>
      <path d="M70.65 9.1 Q72.05 8.7 73.55 10.0 75.05 11.45 75.65 13.8 76.3 16.1 75.7 18.0 75.1 20.0 73.7 20.4 72.25 20.75 70.7 19.35 69.25 17.95 68.6 15.65 68.0 13.3 68.55 11.35 69.2 9.45 70.65 9.1 M67.6 16.6 Q67.6 19.05 65.85 20.8 64.1 22.55 61.65 22.55 59.2 22.55 57.45 20.8 55.7 19.05 55.7 16.6 55.7 14.15 57.45 12.4 59.2 10.65 61.65 10.65 64.1 10.65 65.85 12.4 67.6 14.15 67.6 16.6 Z" ffdec:has-small-stroke="true" ffdec:original-stroke-width="0.05" fill="none" stroke="#999999" stroke-linecap="round" stroke-linejoin="round" stroke-width="3.224233320043171"/>
    </g>
  </defs>
</svg>
